<?xml version="1.0" encoding="utf-8"?>
<svg xmlns="http://www.w3.org/2000/svg" xmlns:xlink="http://www.w3.org/1999/xlink" width="600" height="400" viewBox="0 0 2400 1600">
<defs>
  <clipPath id="clip070">
    <rect x="0" y="0" width="2400" height="1600"/>
  </clipPath>
</defs>
<path clip-path="url(#clip070)" d="
M0 1600 L2400 1600 L2400 0 L0 0  Z
  " fill="#ffffff" fill-rule="evenodd" fill-opacity="1"/>
<defs>
  <clipPath id="clip071">
    <rect x="480" y="0" width="1681" height="1600"/>
  </clipPath>
</defs>
<path clip-path="url(#clip070)" d="
M162.455 1486.45 L2352.76 1486.45 L2352.76 47.2441 L162.455 47.2441  Z
  " fill="#ffffff" fill-rule="evenodd" fill-opacity="1"/>
<defs>
  <clipPath id="clip072">
    <rect x="162" y="47" width="2191" height="1440"/>
  </clipPath>
</defs>
<polyline clip-path="url(#clip072)" style="stroke:#000000; stroke-width:2; stroke-opacity:0.1; fill:none" points="
  169.91,1486.45 169.91,47.2441 
  "/>
<polyline clip-path="url(#clip072)" style="stroke:#000000; stroke-width:2; stroke-opacity:0.1; fill:none" points="
  727.592,1486.45 727.592,47.2441 
  "/>
<polyline clip-path="url(#clip072)" style="stroke:#000000; stroke-width:2; stroke-opacity:0.1; fill:none" points="
  1285.27,1486.45 1285.27,47.2441 
  "/>
<polyline clip-path="url(#clip072)" style="stroke:#000000; stroke-width:2; stroke-opacity:0.1; fill:none" points="
  1842.95,1486.45 1842.95,47.2441 
  "/>
<polyline clip-path="url(#clip072)" style="stroke:#000000; stroke-width:2; stroke-opacity:0.1; fill:none" points="
  162.455,1365.85 2352.76,1365.85 
  "/>
<polyline clip-path="url(#clip072)" style="stroke:#000000; stroke-width:2; stroke-opacity:0.1; fill:none" points="
  162.455,1169.79 2352.76,1169.79 
  "/>
<polyline clip-path="url(#clip072)" style="stroke:#000000; stroke-width:2; stroke-opacity:0.1; fill:none" points="
  162.455,973.735 2352.76,973.735 
  "/>
<polyline clip-path="url(#clip072)" style="stroke:#000000; stroke-width:2; stroke-opacity:0.1; fill:none" points="
  162.455,777.677 2352.76,777.677 
  "/>
<polyline clip-path="url(#clip072)" style="stroke:#000000; stroke-width:2; stroke-opacity:0.1; fill:none" points="
  162.455,581.619 2352.76,581.619 
  "/>
<polyline clip-path="url(#clip072)" style="stroke:#000000; stroke-width:2; stroke-opacity:0.1; fill:none" points="
  162.455,385.561 2352.76,385.561 
  "/>
<polyline clip-path="url(#clip072)" style="stroke:#000000; stroke-width:2; stroke-opacity:0.1; fill:none" points="
  162.455,189.503 2352.76,189.503 
  "/>
<polyline clip-path="url(#clip070)" style="stroke:#000000; stroke-width:4; stroke-opacity:1; fill:none" points="
  162.455,1486.45 2352.76,1486.45 
  "/>
<polyline clip-path="url(#clip070)" style="stroke:#000000; stroke-width:4; stroke-opacity:1; fill:none" points="
  162.455,1486.45 162.455,47.2441 
  "/>
<polyline clip-path="url(#clip070)" style="stroke:#000000; stroke-width:4; stroke-opacity:1; fill:none" points="
  169.91,1486.45 169.91,1469.18 
  "/>
<polyline clip-path="url(#clip070)" style="stroke:#000000; stroke-width:4; stroke-opacity:1; fill:none" points="
  727.592,1486.45 727.592,1469.18 
  "/>
<polyline clip-path="url(#clip070)" style="stroke:#000000; stroke-width:4; stroke-opacity:1; fill:none" points="
  1285.27,1486.45 1285.27,1469.18 
  "/>
<polyline clip-path="url(#clip070)" style="stroke:#000000; stroke-width:4; stroke-opacity:1; fill:none" points="
  1842.95,1486.45 1842.95,1469.18 
  "/>
<polyline clip-path="url(#clip070)" style="stroke:#000000; stroke-width:4; stroke-opacity:1; fill:none" points="
  162.455,1365.85 188.738,1365.85 
  "/>
<polyline clip-path="url(#clip070)" style="stroke:#000000; stroke-width:4; stroke-opacity:1; fill:none" points="
  162.455,1169.79 188.738,1169.79 
  "/>
<polyline clip-path="url(#clip070)" style="stroke:#000000; stroke-width:4; stroke-opacity:1; fill:none" points="
  162.455,973.735 188.738,973.735 
  "/>
<polyline clip-path="url(#clip070)" style="stroke:#000000; stroke-width:4; stroke-opacity:1; fill:none" points="
  162.455,777.677 188.738,777.677 
  "/>
<polyline clip-path="url(#clip070)" style="stroke:#000000; stroke-width:4; stroke-opacity:1; fill:none" points="
  162.455,581.619 188.738,581.619 
  "/>
<polyline clip-path="url(#clip070)" style="stroke:#000000; stroke-width:4; stroke-opacity:1; fill:none" points="
  162.455,385.561 188.738,385.561 
  "/>
<polyline clip-path="url(#clip070)" style="stroke:#000000; stroke-width:4; stroke-opacity:1; fill:none" points="
  162.455,189.503 188.738,189.503 
  "/>
<path clip-path="url(#clip070)" d="M 0 0 M150.778 1525.04 L163.255 1525.04 L163.255 1528.83 L150.778 1528.83 L150.778 1525.04 Z" fill="#000000" fill-rule="evenodd" fill-opacity="1" /><path clip-path="url(#clip070)" d="M 0 0 M169.135 1535.98 L176.774 1535.98 L176.774 1509.62 L168.464 1511.29 L168.464 1507.03 L176.727 1505.36 L181.403 1505.36 L181.403 1535.98 L189.042 1535.98 L189.042 1539.92 L169.135 1539.92 L169.135 1535.98 Z" fill="#000000" fill-rule="evenodd" fill-opacity="1" /><path clip-path="url(#clip070)" d="M 0 0 M727.592 1508.44 Q723.981 1508.44 722.152 1512 Q720.346 1515.55 720.346 1522.67 Q720.346 1529.78 722.152 1533.35 Q723.981 1536.89 727.592 1536.89 Q731.226 1536.89 733.032 1533.35 Q734.86 1529.78 734.86 1522.67 Q734.86 1515.55 733.032 1512 Q731.226 1508.44 727.592 1508.44 M727.592 1504.73 Q733.402 1504.73 736.457 1509.34 Q739.536 1513.92 739.536 1522.67 Q739.536 1531.4 736.457 1536.01 Q733.402 1540.59 727.592 1540.59 Q721.782 1540.59 718.703 1536.01 Q715.647 1531.4 715.647 1522.67 Q715.647 1513.92 718.703 1509.34 Q721.782 1504.73 727.592 1504.73 Z" fill="#000000" fill-rule="evenodd" fill-opacity="1" /><path clip-path="url(#clip070)" d="M 0 0 M1275.66 1535.98 L1283.29 1535.98 L1283.29 1509.62 L1274.98 1511.29 L1274.98 1507.03 L1283.25 1505.36 L1287.92 1505.36 L1287.92 1535.98 L1295.56 1535.98 L1295.56 1539.92 L1275.66 1539.92 L1275.66 1535.98 Z" fill="#000000" fill-rule="evenodd" fill-opacity="1" /><path clip-path="url(#clip070)" d="M 0 0 M1837.61 1535.98 L1853.93 1535.98 L1853.93 1539.92 L1831.98 1539.92 L1831.98 1535.98 Q1834.64 1533.23 1839.23 1528.6 Q1843.83 1523.95 1845.01 1522.61 Q1847.26 1520.08 1848.14 1518.35 Q1849.04 1516.59 1849.04 1514.9 Q1849.04 1512.14 1847.1 1510.41 Q1845.18 1508.67 1842.07 1508.67 Q1839.88 1508.67 1837.42 1509.43 Q1834.99 1510.2 1832.21 1511.75 L1832.21 1507.03 Q1835.04 1505.89 1837.49 1505.31 Q1839.95 1504.73 1841.98 1504.73 Q1847.35 1504.73 1850.55 1507.42 Q1853.74 1510.11 1853.74 1514.6 Q1853.74 1516.73 1852.93 1518.65 Q1852.14 1520.54 1850.04 1523.14 Q1849.46 1523.81 1846.36 1527.03 Q1843.26 1530.22 1837.61 1535.98 Z" fill="#000000" fill-rule="evenodd" fill-opacity="1" /><path clip-path="url(#clip070)" d="M 0 0 M62.9921 1368.25 L75.4689 1368.25 L75.4689 1372.04 L62.9921 1372.04 L62.9921 1368.25 Z" fill="#000000" fill-rule="evenodd" fill-opacity="1" /><path clip-path="url(#clip070)" d="M 0 0 M90.5383 1351.65 Q86.9272 1351.65 85.0985 1355.22 Q83.2929 1358.76 83.2929 1365.89 Q83.2929 1372.99 85.0985 1376.56 Q86.9272 1380.1 90.5383 1380.1 Q94.1725 1380.1 95.9781 1376.56 Q97.8068 1372.99 97.8068 1365.89 Q97.8068 1358.76 95.9781 1355.22 Q94.1725 1351.65 90.5383 1351.65 M90.5383 1347.95 Q96.3484 1347.95 99.404 1352.55 Q102.483 1357.14 102.483 1365.89 Q102.483 1374.61 99.404 1379.22 Q96.3484 1383.8 90.5383 1383.8 Q84.7281 1383.8 81.6494 1379.22 Q78.5939 1374.61 78.5939 1365.89 Q78.5939 1357.14 81.6494 1352.55 Q84.7281 1347.95 90.5383 1347.95 Z" fill="#000000" fill-rule="evenodd" fill-opacity="1" /><path clip-path="url(#clip070)" d="M 0 0 M107.552 1377.25 L112.436 1377.25 L112.436 1383.13 L107.552 1383.13 L107.552 1377.25 Z" fill="#000000" fill-rule="evenodd" fill-opacity="1" /><path clip-path="url(#clip070)" d="M 0 0 M117.552 1348.57 L135.908 1348.57 L135.908 1352.51 L121.834 1352.51 L121.834 1360.98 Q122.853 1360.63 123.871 1360.47 Q124.89 1360.28 125.908 1360.28 Q131.695 1360.28 135.075 1363.46 Q138.455 1366.63 138.455 1372.04 Q138.455 1377.62 134.982 1380.72 Q131.51 1383.8 125.191 1383.8 Q123.015 1383.8 120.746 1383.43 Q118.501 1383.06 116.094 1382.32 L116.094 1377.62 Q118.177 1378.76 120.399 1379.31 Q122.621 1379.87 125.098 1379.87 Q129.103 1379.87 131.441 1377.76 Q133.779 1375.65 133.779 1372.04 Q133.779 1368.43 131.441 1366.33 Q129.103 1364.22 125.098 1364.22 Q123.223 1364.22 121.348 1364.64 Q119.496 1365.05 117.552 1365.93 L117.552 1348.57 Z" fill="#000000" fill-rule="evenodd" fill-opacity="1" /><path clip-path="url(#clip070)" d="M 0 0 M89.5429 1155.59 Q85.9318 1155.59 84.1031 1159.16 Q82.2976 1162.7 82.2976 1169.83 Q82.2976 1176.93 84.1031 1180.5 Q85.9318 1184.04 89.5429 1184.04 Q93.1771 1184.04 94.9827 1180.5 Q96.8114 1176.93 96.8114 1169.83 Q96.8114 1162.7 94.9827 1159.16 Q93.1771 1155.59 89.5429 1155.59 M89.5429 1151.89 Q95.3531 1151.89 98.4086 1156.5 Q101.487 1161.08 101.487 1169.83 Q101.487 1178.56 98.4086 1183.16 Q95.3531 1187.74 89.5429 1187.74 Q83.7328 1187.74 80.6541 1183.16 Q77.5985 1178.56 77.5985 1169.83 Q77.5985 1161.08 80.6541 1156.5 Q83.7328 1151.89 89.5429 1151.89 Z" fill="#000000" fill-rule="evenodd" fill-opacity="1" /><path clip-path="url(#clip070)" d="M 0 0 M106.557 1181.19 L111.441 1181.19 L111.441 1187.07 L106.557 1187.07 L106.557 1181.19 Z" fill="#000000" fill-rule="evenodd" fill-opacity="1" /><path clip-path="url(#clip070)" d="M 0 0 M126.51 1155.59 Q122.899 1155.59 121.071 1159.16 Q119.265 1162.7 119.265 1169.83 Q119.265 1176.93 121.071 1180.5 Q122.899 1184.04 126.51 1184.04 Q130.145 1184.04 131.95 1180.5 Q133.779 1176.93 133.779 1169.83 Q133.779 1162.7 131.95 1159.16 Q130.145 1155.59 126.51 1155.59 M126.51 1151.89 Q132.32 1151.89 135.376 1156.5 Q138.455 1161.08 138.455 1169.83 Q138.455 1178.56 135.376 1183.16 Q132.32 1187.74 126.51 1187.74 Q120.7 1187.74 117.621 1183.16 Q114.566 1178.56 114.566 1169.83 Q114.566 1161.08 117.621 1156.5 Q120.7 1151.89 126.51 1151.89 Z" fill="#000000" fill-rule="evenodd" fill-opacity="1" /><path clip-path="url(#clip070)" d="M 0 0 M90.5383 959.534 Q86.9272 959.534 85.0985 963.099 Q83.2929 966.641 83.2929 973.77 Q83.2929 980.877 85.0985 984.441 Q86.9272 987.983 90.5383 987.983 Q94.1725 987.983 95.9781 984.441 Q97.8068 980.877 97.8068 973.77 Q97.8068 966.641 95.9781 963.099 Q94.1725 959.534 90.5383 959.534 M90.5383 955.83 Q96.3484 955.83 99.404 960.437 Q102.483 965.02 102.483 973.77 Q102.483 982.497 99.404 987.103 Q96.3484 991.687 90.5383 991.687 Q84.7281 991.687 81.6494 987.103 Q78.5939 982.497 78.5939 973.77 Q78.5939 965.02 81.6494 960.437 Q84.7281 955.83 90.5383 955.83 Z" fill="#000000" fill-rule="evenodd" fill-opacity="1" /><path clip-path="url(#clip070)" d="M 0 0 M107.552 985.136 L112.436 985.136 L112.436 991.015 L107.552 991.015 L107.552 985.136 Z" fill="#000000" fill-rule="evenodd" fill-opacity="1" /><path clip-path="url(#clip070)" d="M 0 0 M117.552 956.455 L135.908 956.455 L135.908 960.391 L121.834 960.391 L121.834 968.863 Q122.853 968.516 123.871 968.353 Q124.89 968.168 125.908 968.168 Q131.695 968.168 135.075 971.34 Q138.455 974.511 138.455 979.927 Q138.455 985.506 134.982 988.608 Q131.51 991.687 125.191 991.687 Q123.015 991.687 120.746 991.316 Q118.501 990.946 116.094 990.205 L116.094 985.506 Q118.177 986.64 120.399 987.196 Q122.621 987.752 125.098 987.752 Q129.103 987.752 131.441 985.645 Q133.779 983.539 133.779 979.927 Q133.779 976.316 131.441 974.21 Q129.103 972.103 125.098 972.103 Q123.223 972.103 121.348 972.52 Q119.496 972.937 117.552 973.816 L117.552 956.455 Z" fill="#000000" fill-rule="evenodd" fill-opacity="1" /><path clip-path="url(#clip070)" d="M 0 0 M81.58 791.022 L89.2188 791.022 L89.2188 764.656 L80.9087 766.323 L80.9087 762.064 L89.1725 760.397 L93.8484 760.397 L93.8484 791.022 L101.487 791.022 L101.487 794.957 L81.58 794.957 L81.58 791.022 Z" fill="#000000" fill-rule="evenodd" fill-opacity="1" /><path clip-path="url(#clip070)" d="M 0 0 M106.557 789.078 L111.441 789.078 L111.441 794.957 L106.557 794.957 L106.557 789.078 Z" fill="#000000" fill-rule="evenodd" fill-opacity="1" /><path clip-path="url(#clip070)" d="M 0 0 M126.51 763.476 Q122.899 763.476 121.071 767.041 Q119.265 770.582 119.265 777.712 Q119.265 784.818 121.071 788.383 Q122.899 791.925 126.51 791.925 Q130.145 791.925 131.95 788.383 Q133.779 784.818 133.779 777.712 Q133.779 770.582 131.95 767.041 Q130.145 763.476 126.51 763.476 M126.51 759.772 Q132.32 759.772 135.376 764.379 Q138.455 768.962 138.455 777.712 Q138.455 786.439 135.376 791.045 Q132.32 795.629 126.51 795.629 Q120.7 795.629 117.621 791.045 Q114.566 786.439 114.566 777.712 Q114.566 768.962 117.621 764.379 Q120.7 759.772 126.51 759.772 Z" fill="#000000" fill-rule="evenodd" fill-opacity="1" /><path clip-path="url(#clip070)" d="M 0 0 M82.5754 594.964 L90.2142 594.964 L90.2142 568.598 L81.9041 570.265 L81.9041 566.006 L90.1679 564.339 L94.8438 564.339 L94.8438 594.964 L102.483 594.964 L102.483 598.899 L82.5754 598.899 L82.5754 594.964 Z" fill="#000000" fill-rule="evenodd" fill-opacity="1" /><path clip-path="url(#clip070)" d="M 0 0 M107.552 593.019 L112.436 593.019 L112.436 598.899 L107.552 598.899 L107.552 593.019 Z" fill="#000000" fill-rule="evenodd" fill-opacity="1" /><path clip-path="url(#clip070)" d="M 0 0 M117.552 564.339 L135.908 564.339 L135.908 568.274 L121.834 568.274 L121.834 576.746 Q122.853 576.399 123.871 576.237 Q124.89 576.052 125.908 576.052 Q131.695 576.052 135.075 579.223 Q138.455 582.395 138.455 587.811 Q138.455 593.39 134.982 596.492 Q131.51 599.57 125.191 599.57 Q123.015 599.57 120.746 599.2 Q118.501 598.83 116.094 598.089 L116.094 593.39 Q118.177 594.524 120.399 595.08 Q122.621 595.635 125.098 595.635 Q129.103 595.635 131.441 593.529 Q133.779 591.422 133.779 587.811 Q133.779 584.2 131.441 582.094 Q129.103 579.987 125.098 579.987 Q123.223 579.987 121.348 580.404 Q119.496 580.82 117.552 581.7 L117.552 564.339 Z" fill="#000000" fill-rule="evenodd" fill-opacity="1" /><path clip-path="url(#clip070)" d="M 0 0 M85.1679 398.906 L101.487 398.906 L101.487 402.841 L79.543 402.841 L79.543 398.906 Q82.205 396.151 86.7883 391.522 Q91.3948 386.869 92.5753 385.526 Q94.8207 383.003 95.7003 381.267 Q96.6031 379.508 96.6031 377.818 Q96.6031 375.063 94.6586 373.327 Q92.7373 371.591 89.6355 371.591 Q87.4364 371.591 84.9827 372.355 Q82.5522 373.119 79.7744 374.67 L79.7744 369.948 Q82.5985 368.813 85.0522 368.235 Q87.5059 367.656 89.5429 367.656 Q94.9133 367.656 98.1077 370.341 Q101.302 373.026 101.302 377.517 Q101.302 379.647 100.492 381.568 Q99.7049 383.466 97.5984 386.059 Q97.0197 386.73 93.9179 389.947 Q90.8161 393.142 85.1679 398.906 Z" fill="#000000" fill-rule="evenodd" fill-opacity="1" /><path clip-path="url(#clip070)" d="M 0 0 M106.557 396.961 L111.441 396.961 L111.441 402.841 L106.557 402.841 L106.557 396.961 Z" fill="#000000" fill-rule="evenodd" fill-opacity="1" /><path clip-path="url(#clip070)" d="M 0 0 M126.51 371.36 Q122.899 371.36 121.071 374.924 Q119.265 378.466 119.265 385.596 Q119.265 392.702 121.071 396.267 Q122.899 399.809 126.51 399.809 Q130.145 399.809 131.95 396.267 Q133.779 392.702 133.779 385.596 Q133.779 378.466 131.95 374.924 Q130.145 371.36 126.51 371.36 M126.51 367.656 Q132.32 367.656 135.376 372.262 Q138.455 376.846 138.455 385.596 Q138.455 394.322 135.376 398.929 Q132.32 403.512 126.51 403.512 Q120.7 403.512 117.621 398.929 Q114.566 394.322 114.566 385.596 Q114.566 376.846 117.621 372.262 Q120.7 367.656 126.51 367.656 Z" fill="#000000" fill-rule="evenodd" fill-opacity="1" /><path clip-path="url(#clip070)" d="M 0 0 M86.1633 202.848 L102.483 202.848 L102.483 206.783 L80.5383 206.783 L80.5383 202.848 Q83.2004 200.093 87.7837 195.463 Q92.3901 190.811 93.5707 189.468 Q95.816 186.945 96.6956 185.209 Q97.5984 183.45 97.5984 181.76 Q97.5984 179.005 95.654 177.269 Q93.7327 175.533 90.6309 175.533 Q88.4318 175.533 85.9781 176.297 Q83.5476 177.061 80.7698 178.612 L80.7698 173.889 Q83.5939 172.755 86.0476 172.177 Q88.5012 171.598 90.5383 171.598 Q95.9086 171.598 99.103 174.283 Q102.297 176.968 102.297 181.459 Q102.297 183.588 101.487 185.51 Q100.7 187.408 98.5938 190 Q98.0151 190.672 94.9133 193.889 Q91.8114 197.084 86.1633 202.848 Z" fill="#000000" fill-rule="evenodd" fill-opacity="1" /><path clip-path="url(#clip070)" d="M 0 0 M107.552 200.903 L112.436 200.903 L112.436 206.783 L107.552 206.783 L107.552 200.903 Z" fill="#000000" fill-rule="evenodd" fill-opacity="1" /><path clip-path="url(#clip070)" d="M 0 0 M117.552 172.223 L135.908 172.223 L135.908 176.158 L121.834 176.158 L121.834 184.63 Q122.853 184.283 123.871 184.121 Q124.89 183.936 125.908 183.936 Q131.695 183.936 135.075 187.107 Q138.455 190.278 138.455 195.695 Q138.455 201.274 134.982 204.375 Q131.51 207.454 125.191 207.454 Q123.015 207.454 120.746 207.084 Q118.501 206.713 116.094 205.973 L116.094 201.274 Q118.177 202.408 120.399 202.963 Q122.621 203.519 125.098 203.519 Q129.103 203.519 131.441 201.412 Q133.779 199.306 133.779 195.695 Q133.779 192.084 131.441 189.977 Q129.103 187.871 125.098 187.871 Q123.223 187.871 121.348 188.288 Q119.496 188.704 117.552 189.584 L117.552 172.223 Z" fill="#000000" fill-rule="evenodd" fill-opacity="1" /><circle clip-path="url(#clip072)" cx="2290.77" cy="87.9763" r="14" fill="#009af9" fill-rule="evenodd" fill-opacity="1" stroke="#000000" stroke-opacity="1" stroke-width="3.2"/>
<circle clip-path="url(#clip072)" cx="224.444" cy="1364.18" r="14" fill="#009af9" fill-rule="evenodd" fill-opacity="1" stroke="#000000" stroke-opacity="1" stroke-width="3.2"/>
<circle clip-path="url(#clip072)" cx="1798.88" cy="340.269" r="14" fill="#009af9" fill-rule="evenodd" fill-opacity="1" stroke="#000000" stroke-opacity="1" stroke-width="3.2"/>
<circle clip-path="url(#clip072)" cx="935.519" cy="1085.34" r="14" fill="#009af9" fill-rule="evenodd" fill-opacity="1" stroke="#000000" stroke-opacity="1" stroke-width="3.2"/>
<circle clip-path="url(#clip072)" cx="1111.47" cy="885.201" r="14" fill="#009af9" fill-rule="evenodd" fill-opacity="1" stroke="#000000" stroke-opacity="1" stroke-width="3.2"/>
<circle clip-path="url(#clip072)" cx="1966.18" cy="309.012" r="14" fill="#009af9" fill-rule="evenodd" fill-opacity="1" stroke="#000000" stroke-opacity="1" stroke-width="3.2"/>
<circle clip-path="url(#clip072)" cx="1989.59" cy="260.768" r="14" fill="#009af9" fill-rule="evenodd" fill-opacity="1" stroke="#000000" stroke-opacity="1" stroke-width="3.2"/>
<circle clip-path="url(#clip072)" cx="816.445" cy="1037.54" r="14" fill="#009af9" fill-rule="evenodd" fill-opacity="1" stroke="#000000" stroke-opacity="1" stroke-width="3.2"/>
<circle clip-path="url(#clip072)" cx="779.382" cy="1141.47" r="14" fill="#009af9" fill-rule="evenodd" fill-opacity="1" stroke="#000000" stroke-opacity="1" stroke-width="3.2"/>
<circle clip-path="url(#clip072)" cx="2076.61" cy="218.854" r="14" fill="#009af9" fill-rule="evenodd" fill-opacity="1" stroke="#000000" stroke-opacity="1" stroke-width="3.2"/>
<circle clip-path="url(#clip072)" cx="1213.84" cy="863.513" r="14" fill="#009af9" fill-rule="evenodd" fill-opacity="1" stroke="#000000" stroke-opacity="1" stroke-width="3.2"/>
<circle clip-path="url(#clip072)" cx="1311.52" cy="750.599" r="14" fill="#009af9" fill-rule="evenodd" fill-opacity="1" stroke="#000000" stroke-opacity="1" stroke-width="3.2"/>
<circle clip-path="url(#clip072)" cx="1678.06" cy="464.581" r="14" fill="#009af9" fill-rule="evenodd" fill-opacity="1" stroke="#000000" stroke-opacity="1" stroke-width="3.2"/>
<circle clip-path="url(#clip072)" cx="516.888" cy="1283.33" r="14" fill="#009af9" fill-rule="evenodd" fill-opacity="1" stroke="#000000" stroke-opacity="1" stroke-width="3.2"/>
<circle clip-path="url(#clip072)" cx="1980.11" cy="267.66" r="14" fill="#009af9" fill-rule="evenodd" fill-opacity="1" stroke="#000000" stroke-opacity="1" stroke-width="3.2"/>
<circle clip-path="url(#clip072)" cx="2060.35" cy="247.147" r="14" fill="#009af9" fill-rule="evenodd" fill-opacity="1" stroke="#000000" stroke-opacity="1" stroke-width="3.2"/>
<circle clip-path="url(#clip072)" cx="1176.8" cy="848.625" r="14" fill="#009af9" fill-rule="evenodd" fill-opacity="1" stroke="#000000" stroke-opacity="1" stroke-width="3.2"/>
<circle clip-path="url(#clip072)" cx="2233.89" cy="150.465" r="14" fill="#009af9" fill-rule="evenodd" fill-opacity="1" stroke="#000000" stroke-opacity="1" stroke-width="3.2"/>
<circle clip-path="url(#clip072)" cx="1395.79" cy="777.936" r="14" fill="#009af9" fill-rule="evenodd" fill-opacity="1" stroke="#000000" stroke-opacity="1" stroke-width="3.2"/>
<circle clip-path="url(#clip072)" cx="330.338" cy="1445.72" r="14" fill="#009af9" fill-rule="evenodd" fill-opacity="1" stroke="#000000" stroke-opacity="1" stroke-width="3.2"/>
<path clip-path="url(#clip070)" d="
M1985.36 216.178 L2279.75 216.178 L2279.75 95.2176 L1985.36 95.2176  Z
  " fill="#ffffff" fill-rule="evenodd" fill-opacity="1"/>
<polyline clip-path="url(#clip070)" style="stroke:#000000; stroke-width:4; stroke-opacity:1; fill:none" points="
  1985.36,216.178 2279.75,216.178 2279.75,95.2176 1985.36,95.2176 1985.36,216.178 
  "/>
<circle clip-path="url(#clip070)" cx="2082.71" cy="155.698" r="23" fill="#009af9" fill-rule="evenodd" fill-opacity="1" stroke="#000000" stroke-opacity="1" stroke-width="5.12"/>
<circle clip-path="url(#clip070)" cx="2082.71" cy="155.698" r="23" fill="#009af9" fill-rule="evenodd" fill-opacity="1" stroke="#000000" stroke-opacity="1" stroke-width="5.12"/>
<circle clip-path="url(#clip070)" cx="2082.71" cy="155.698" r="23" fill="#009af9" fill-rule="evenodd" fill-opacity="1" stroke="#000000" stroke-opacity="1" stroke-width="5.12"/>
<circle clip-path="url(#clip070)" cx="2082.71" cy="155.698" r="23" fill="#009af9" fill-rule="evenodd" fill-opacity="1" stroke="#000000" stroke-opacity="1" stroke-width="5.12"/>
<circle clip-path="url(#clip070)" cx="2082.71" cy="155.698" r="23" fill="#009af9" fill-rule="evenodd" fill-opacity="1" stroke="#000000" stroke-opacity="1" stroke-width="5.12"/>
<circle clip-path="url(#clip070)" cx="2082.71" cy="155.698" r="23" fill="#009af9" fill-rule="evenodd" fill-opacity="1" stroke="#000000" stroke-opacity="1" stroke-width="5.12"/>
<circle clip-path="url(#clip070)" cx="2082.71" cy="155.698" r="23" fill="#009af9" fill-rule="evenodd" fill-opacity="1" stroke="#000000" stroke-opacity="1" stroke-width="5.12"/>
<circle clip-path="url(#clip070)" cx="2082.71" cy="155.698" r="23" fill="#009af9" fill-rule="evenodd" fill-opacity="1" stroke="#000000" stroke-opacity="1" stroke-width="5.12"/>
<circle clip-path="url(#clip070)" cx="2082.71" cy="155.698" r="23" fill="#009af9" fill-rule="evenodd" fill-opacity="1" stroke="#000000" stroke-opacity="1" stroke-width="5.12"/>
<circle clip-path="url(#clip070)" cx="2082.71" cy="155.698" r="23" fill="#009af9" fill-rule="evenodd" fill-opacity="1" stroke="#000000" stroke-opacity="1" stroke-width="5.12"/>
<circle clip-path="url(#clip070)" cx="2082.71" cy="155.698" r="23" fill="#009af9" fill-rule="evenodd" fill-opacity="1" stroke="#000000" stroke-opacity="1" stroke-width="5.12"/>
<circle clip-path="url(#clip070)" cx="2082.71" cy="155.698" r="23" fill="#009af9" fill-rule="evenodd" fill-opacity="1" stroke="#000000" stroke-opacity="1" stroke-width="5.12"/>
<circle clip-path="url(#clip070)" cx="2082.71" cy="155.698" r="23" fill="#009af9" fill-rule="evenodd" fill-opacity="1" stroke="#000000" stroke-opacity="1" stroke-width="5.12"/>
<circle clip-path="url(#clip070)" cx="2082.71" cy="155.698" r="23" fill="#009af9" fill-rule="evenodd" fill-opacity="1" stroke="#000000" stroke-opacity="1" stroke-width="5.12"/>
<circle clip-path="url(#clip070)" cx="2082.71" cy="155.698" r="23" fill="#009af9" fill-rule="evenodd" fill-opacity="1" stroke="#000000" stroke-opacity="1" stroke-width="5.12"/>
<circle clip-path="url(#clip070)" cx="2082.71" cy="155.698" r="23" fill="#009af9" fill-rule="evenodd" fill-opacity="1" stroke="#000000" stroke-opacity="1" stroke-width="5.12"/>
<circle clip-path="url(#clip070)" cx="2082.71" cy="155.698" r="23" fill="#009af9" fill-rule="evenodd" fill-opacity="1" stroke="#000000" stroke-opacity="1" stroke-width="5.12"/>
<circle clip-path="url(#clip070)" cx="2082.71" cy="155.698" r="23" fill="#009af9" fill-rule="evenodd" fill-opacity="1" stroke="#000000" stroke-opacity="1" stroke-width="5.12"/>
<circle clip-path="url(#clip070)" cx="2082.71" cy="155.698" r="23" fill="#009af9" fill-rule="evenodd" fill-opacity="1" stroke="#000000" stroke-opacity="1" stroke-width="5.12"/>
<circle clip-path="url(#clip070)" cx="2082.71" cy="155.698" r="23" fill="#009af9" fill-rule="evenodd" fill-opacity="1" stroke="#000000" stroke-opacity="1" stroke-width="5.12"/>
<path clip-path="url(#clip070)" d="M 0 0 M2193.9 175.385 Q2192.09 180.015 2190.38 181.427 Q2188.67 182.839 2185.79 182.839 L2182.39 182.839 L2182.39 179.274 L2184.89 179.274 Q2186.65 179.274 2187.62 178.44 Q2188.6 177.607 2189.78 174.505 L2190.54 172.561 L2180.05 147.052 L2184.57 147.052 L2192.67 167.329 L2200.77 147.052 L2205.29 147.052 L2193.9 175.385 Z" fill="#000000" fill-rule="evenodd" fill-opacity="1" /><path clip-path="url(#clip070)" d="M 0 0 M2211.17 169.042 L2218.8 169.042 L2218.8 142.677 L2210.49 144.343 L2210.49 140.084 L2218.76 138.418 L2223.43 138.418 L2223.43 169.042 L2231.07 169.042 L2231.07 172.978 L2211.17 172.978 L2211.17 169.042 Z" fill="#000000" fill-rule="evenodd" fill-opacity="1" /></svg>
