<?xml version="1.0" encoding="utf-8"?>
<svg xmlns="http://www.w3.org/2000/svg" xmlns:xlink="http://www.w3.org/1999/xlink" width="600" height="400" viewBox="0 0 2400 1600">
<defs>
  <clipPath id="clip660">
    <rect x="0" y="0" width="2400" height="1600"/>
  </clipPath>
</defs>
<path clip-path="url(#clip660)" d="
M0 1600 L2400 1600 L2400 0 L0 0  Z
  " fill="#ffffff" fill-rule="evenodd" fill-opacity="1"/>
<defs>
  <clipPath id="clip661">
    <rect x="480" y="0" width="1681" height="1600"/>
  </clipPath>
</defs>
<path clip-path="url(#clip660)" d="
M86.9921 1521.01 L2352.76 1521.01 L2352.76 47.2441 L86.9921 47.2441  Z
  " fill="#ffffff" fill-rule="evenodd" fill-opacity="1"/>
<defs>
  <clipPath id="clip662">
    <rect x="86" y="47" width="2267" height="1475"/>
  </clipPath>
</defs>
<polyline clip-path="url(#clip662)" style="stroke:#000000; stroke-width:2; stroke-opacity:0.1; fill:none" points="
  114.469,1521.01 114.469,47.2441 
  "/>
<polyline clip-path="url(#clip662)" style="stroke:#000000; stroke-width:2; stroke-opacity:0.1; fill:none" points="
  786.638,1521.01 786.638,47.2441 
  "/>
<polyline clip-path="url(#clip662)" style="stroke:#000000; stroke-width:2; stroke-opacity:0.1; fill:none" points="
  1458.81,1521.01 1458.81,47.2441 
  "/>
<polyline clip-path="url(#clip662)" style="stroke:#000000; stroke-width:2; stroke-opacity:0.1; fill:none" points="
  2130.98,1521.01 2130.98,47.2441 
  "/>
<polyline clip-path="url(#clip662)" style="stroke:#000000; stroke-width:2; stroke-opacity:0.1; fill:none" points="
  86.9921,1502.44 2352.76,1502.44 
  "/>
<polyline clip-path="url(#clip662)" style="stroke:#000000; stroke-width:2; stroke-opacity:0.1; fill:none" points="
  86.9921,1079.99 2352.76,1079.99 
  "/>
<polyline clip-path="url(#clip662)" style="stroke:#000000; stroke-width:2; stroke-opacity:0.1; fill:none" points="
  86.9921,657.544 2352.76,657.544 
  "/>
<polyline clip-path="url(#clip662)" style="stroke:#000000; stroke-width:2; stroke-opacity:0.1; fill:none" points="
  86.9921,235.096 2352.76,235.096 
  "/>
<polyline clip-path="url(#clip660)" style="stroke:#000000; stroke-width:4; stroke-opacity:1; fill:none" points="
  86.9921,1521.01 2352.76,1521.01 
  "/>
<polyline clip-path="url(#clip660)" style="stroke:#000000; stroke-width:4; stroke-opacity:1; fill:none" points="
  86.9921,1521.01 86.9921,47.2441 
  "/>
<polyline clip-path="url(#clip660)" style="stroke:#000000; stroke-width:4; stroke-opacity:1; fill:none" points="
  114.469,1521.01 114.469,1503.32 
  "/>
<polyline clip-path="url(#clip660)" style="stroke:#000000; stroke-width:4; stroke-opacity:1; fill:none" points="
  786.638,1521.01 786.638,1503.32 
  "/>
<polyline clip-path="url(#clip660)" style="stroke:#000000; stroke-width:4; stroke-opacity:1; fill:none" points="
  1458.81,1521.01 1458.81,1503.32 
  "/>
<polyline clip-path="url(#clip660)" style="stroke:#000000; stroke-width:4; stroke-opacity:1; fill:none" points="
  2130.98,1521.01 2130.98,1503.32 
  "/>
<polyline clip-path="url(#clip660)" style="stroke:#000000; stroke-width:4; stroke-opacity:1; fill:none" points="
  86.9921,1502.44 114.181,1502.44 
  "/>
<polyline clip-path="url(#clip660)" style="stroke:#000000; stroke-width:4; stroke-opacity:1; fill:none" points="
  86.9921,1079.99 114.181,1079.99 
  "/>
<polyline clip-path="url(#clip660)" style="stroke:#000000; stroke-width:4; stroke-opacity:1; fill:none" points="
  86.9921,657.544 114.181,657.544 
  "/>
<polyline clip-path="url(#clip660)" style="stroke:#000000; stroke-width:4; stroke-opacity:1; fill:none" points="
  86.9921,235.096 114.181,235.096 
  "/>
<path clip-path="url(#clip660)" d="M 0 0 M95.3374 1559.6 L107.814 1559.6 L107.814 1563.39 L95.3374 1563.39 L95.3374 1559.6 Z" fill="#000000" fill-rule="evenodd" fill-opacity="1" /><path clip-path="url(#clip660)" d="M 0 0 M113.694 1570.54 L121.333 1570.54 L121.333 1544.18 L113.023 1545.85 L113.023 1541.59 L121.286 1539.92 L125.962 1539.92 L125.962 1570.54 L133.601 1570.54 L133.601 1574.48 L113.694 1574.48 L113.694 1570.54 Z" fill="#000000" fill-rule="evenodd" fill-opacity="1" /><path clip-path="url(#clip660)" d="M 0 0 M786.638 1543 Q783.027 1543 781.198 1546.56 Q779.393 1550.11 779.393 1557.23 Q779.393 1564.34 781.198 1567.91 Q783.027 1571.45 786.638 1571.45 Q790.272 1571.45 792.078 1567.91 Q793.907 1564.34 793.907 1557.23 Q793.907 1550.11 792.078 1546.56 Q790.272 1543 786.638 1543 M786.638 1539.29 Q792.448 1539.29 795.504 1543.9 Q798.582 1548.48 798.582 1557.23 Q798.582 1565.96 795.504 1570.57 Q792.448 1575.15 786.638 1575.15 Q780.828 1575.15 777.749 1570.57 Q774.694 1565.96 774.694 1557.23 Q774.694 1548.48 777.749 1543.9 Q780.828 1539.29 786.638 1539.29 Z" fill="#000000" fill-rule="evenodd" fill-opacity="1" /><path clip-path="url(#clip660)" d="M 0 0 M1449.19 1570.54 L1456.83 1570.54 L1456.83 1544.18 L1448.52 1545.85 L1448.52 1541.59 L1456.78 1539.92 L1461.46 1539.92 L1461.46 1570.54 L1469.1 1570.54 L1469.1 1574.48 L1449.19 1574.48 L1449.19 1570.54 Z" fill="#000000" fill-rule="evenodd" fill-opacity="1" /><path clip-path="url(#clip660)" d="M 0 0 M2125.63 1570.54 L2141.95 1570.54 L2141.95 1574.48 L2120 1574.48 L2120 1570.54 Q2122.67 1567.79 2127.25 1563.16 Q2131.86 1558.51 2133.04 1557.17 Q2135.28 1554.64 2136.16 1552.91 Q2137.06 1551.15 2137.06 1549.46 Q2137.06 1546.7 2135.12 1544.97 Q2133.2 1543.23 2130.1 1543.23 Q2127.9 1543.23 2125.44 1543.99 Q2123.01 1544.76 2120.24 1546.31 L2120.24 1541.59 Q2123.06 1540.45 2125.51 1539.87 Q2127.97 1539.29 2130 1539.29 Q2135.37 1539.29 2138.57 1541.98 Q2141.76 1544.67 2141.76 1549.16 Q2141.76 1551.29 2140.95 1553.21 Q2140.17 1555.1 2138.06 1557.7 Q2137.48 1558.37 2134.38 1561.59 Q2131.28 1564.78 2125.63 1570.54 Z" fill="#000000" fill-rule="evenodd" fill-opacity="1" /><path clip-path="url(#clip660)" d="M 0 0 M24.7284 1504.84 L37.2052 1504.84 L37.2052 1508.63 L24.7284 1508.63 L24.7284 1504.84 Z" fill="#000000" fill-rule="evenodd" fill-opacity="1" /><path clip-path="url(#clip660)" d="M 0 0 M43.0848 1515.79 L50.7237 1515.79 L50.7237 1489.42 L42.4135 1491.09 L42.4135 1486.83 L50.6774 1485.16 L55.3533 1485.16 L55.3533 1515.79 L62.9921 1515.79 L62.9921 1519.72 L43.0848 1519.72 L43.0848 1515.79 Z" fill="#000000" fill-rule="evenodd" fill-opacity="1" /><path clip-path="url(#clip660)" d="M 0 0 M51.0477 1065.79 Q47.4367 1065.79 45.608 1069.36 Q43.8024 1072.9 43.8024 1080.03 Q43.8024 1087.13 45.608 1090.7 Q47.4367 1094.24 51.0477 1094.24 Q54.682 1094.24 56.4875 1090.7 Q58.3162 1087.13 58.3162 1080.03 Q58.3162 1072.9 56.4875 1069.36 Q54.682 1065.79 51.0477 1065.79 M51.0477 1062.09 Q56.8579 1062.09 59.9134 1066.69 Q62.9921 1071.28 62.9921 1080.03 Q62.9921 1088.75 59.9134 1093.36 Q56.8579 1097.94 51.0477 1097.94 Q45.2376 1097.94 42.1589 1093.36 Q39.1034 1088.75 39.1034 1080.03 Q39.1034 1071.28 42.1589 1066.69 Q45.2376 1062.09 51.0477 1062.09 Z" fill="#000000" fill-rule="evenodd" fill-opacity="1" /><path clip-path="url(#clip660)" d="M 0 0 M43.0848 670.889 L50.7237 670.889 L50.7237 644.524 L42.4135 646.19 L42.4135 641.931 L50.6774 640.264 L55.3533 640.264 L55.3533 670.889 L62.9921 670.889 L62.9921 674.824 L43.0848 674.824 L43.0848 670.889 Z" fill="#000000" fill-rule="evenodd" fill-opacity="1" /><path clip-path="url(#clip660)" d="M 0 0 M46.6728 248.441 L62.9921 248.441 L62.9921 252.376 L41.0478 252.376 L41.0478 248.441 Q43.7098 245.686 48.2931 241.057 Q52.8996 236.404 54.0801 235.061 Q56.3255 232.538 57.2051 230.802 Q58.1079 229.043 58.1079 227.353 Q58.1079 224.598 56.1635 222.862 Q54.2422 221.126 51.1403 221.126 Q48.9413 221.126 46.4876 221.89 Q44.057 222.654 41.2793 224.205 L41.2793 219.483 Q44.1033 218.349 46.557 217.77 Q49.0107 217.191 51.0477 217.191 Q56.4181 217.191 59.6125 219.876 Q62.8069 222.561 62.8069 227.052 Q62.8069 229.182 61.9968 231.103 Q61.2097 233.001 59.1033 235.594 Q58.5246 236.265 55.4227 239.483 Q52.3209 242.677 46.6728 248.441 Z" fill="#000000" fill-rule="evenodd" fill-opacity="1" /><circle clip-path="url(#clip662)" cx="1455.27" cy="696.7" r="14" fill="#009af9" fill-rule="evenodd" fill-opacity="1" stroke="#000000" stroke-opacity="1" stroke-width="3.2"/>
<circle clip-path="url(#clip662)" cx="1934.25" cy="378.764" r="14" fill="#009af9" fill-rule="evenodd" fill-opacity="1" stroke="#000000" stroke-opacity="1" stroke-width="3.2"/>
<circle clip-path="url(#clip662)" cx="756.14" cy="986.769" r="14" fill="#009af9" fill-rule="evenodd" fill-opacity="1" stroke="#000000" stroke-opacity="1" stroke-width="3.2"/>
<circle clip-path="url(#clip662)" cx="1479.02" cy="693.205" r="14" fill="#009af9" fill-rule="evenodd" fill-opacity="1" stroke="#000000" stroke-opacity="1" stroke-width="3.2"/>
<circle clip-path="url(#clip662)" cx="2288.63" cy="88.9544" r="14" fill="#009af9" fill-rule="evenodd" fill-opacity="1" stroke="#000000" stroke-opacity="1" stroke-width="3.2"/>
<circle clip-path="url(#clip662)" cx="1506.33" cy="666.91" r="14" fill="#009af9" fill-rule="evenodd" fill-opacity="1" stroke="#000000" stroke-opacity="1" stroke-width="3.2"/>
<circle clip-path="url(#clip662)" cx="1422.81" cy="575.763" r="14" fill="#009af9" fill-rule="evenodd" fill-opacity="1" stroke="#000000" stroke-opacity="1" stroke-width="3.2"/>
<circle clip-path="url(#clip662)" cx="1445.8" cy="669.158" r="14" fill="#009af9" fill-rule="evenodd" fill-opacity="1" stroke="#000000" stroke-opacity="1" stroke-width="3.2"/>
<circle clip-path="url(#clip662)" cx="433.249" cy="1249.32" r="14" fill="#009af9" fill-rule="evenodd" fill-opacity="1" stroke="#000000" stroke-opacity="1" stroke-width="3.2"/>
<circle clip-path="url(#clip662)" cx="151.118" cy="1395.18" r="14" fill="#009af9" fill-rule="evenodd" fill-opacity="1" stroke="#000000" stroke-opacity="1" stroke-width="3.2"/>
<circle clip-path="url(#clip662)" cx="157.536" cy="1479.3" r="14" fill="#009af9" fill-rule="evenodd" fill-opacity="1" stroke="#000000" stroke-opacity="1" stroke-width="3.2"/>
<circle clip-path="url(#clip662)" cx="2083.83" cy="300.63" r="14" fill="#009af9" fill-rule="evenodd" fill-opacity="1" stroke="#000000" stroke-opacity="1" stroke-width="3.2"/>
<circle clip-path="url(#clip662)" cx="1891.62" cy="704.64" r="14" fill="#009af9" fill-rule="evenodd" fill-opacity="1" stroke="#000000" stroke-opacity="1" stroke-width="3.2"/>
<circle clip-path="url(#clip662)" cx="461.295" cy="1327.75" r="14" fill="#009af9" fill-rule="evenodd" fill-opacity="1" stroke="#000000" stroke-opacity="1" stroke-width="3.2"/>
<circle clip-path="url(#clip662)" cx="1917.2" cy="379.994" r="14" fill="#009af9" fill-rule="evenodd" fill-opacity="1" stroke="#000000" stroke-opacity="1" stroke-width="3.2"/>
<circle clip-path="url(#clip662)" cx="200.709" cy="1367.77" r="14" fill="#009af9" fill-rule="evenodd" fill-opacity="1" stroke="#000000" stroke-opacity="1" stroke-width="3.2"/>
<circle clip-path="url(#clip662)" cx="713.67" cy="1125.57" r="14" fill="#009af9" fill-rule="evenodd" fill-opacity="1" stroke="#000000" stroke-opacity="1" stroke-width="3.2"/>
<circle clip-path="url(#clip662)" cx="1585.64" cy="558.819" r="14" fill="#009af9" fill-rule="evenodd" fill-opacity="1" stroke="#000000" stroke-opacity="1" stroke-width="3.2"/>
<circle clip-path="url(#clip662)" cx="296.288" cy="1412.78" r="14" fill="#009af9" fill-rule="evenodd" fill-opacity="1" stroke="#000000" stroke-opacity="1" stroke-width="3.2"/>
<circle clip-path="url(#clip662)" cx="1511.4" cy="662.667" r="14" fill="#009af9" fill-rule="evenodd" fill-opacity="1" stroke="#000000" stroke-opacity="1" stroke-width="3.2"/>
<path clip-path="url(#clip660)" d="
M1974.46 217.33 L2277.23 217.33 L2277.23 96.3696 L1974.46 96.3696  Z
  " fill="#ffffff" fill-rule="evenodd" fill-opacity="1"/>
<polyline clip-path="url(#clip660)" style="stroke:#000000; stroke-width:4; stroke-opacity:1; fill:none" points="
  1974.46,217.33 2277.23,217.33 2277.23,96.3696 1974.46,96.3696 1974.46,217.33 
  "/>
<circle clip-path="url(#clip660)" cx="2075.16" cy="156.85" r="23" fill="#009af9" fill-rule="evenodd" fill-opacity="1" stroke="#000000" stroke-opacity="1" stroke-width="5.12"/>
<circle clip-path="url(#clip660)" cx="2075.16" cy="156.85" r="23" fill="#009af9" fill-rule="evenodd" fill-opacity="1" stroke="#000000" stroke-opacity="1" stroke-width="5.12"/>
<circle clip-path="url(#clip660)" cx="2075.16" cy="156.85" r="23" fill="#009af9" fill-rule="evenodd" fill-opacity="1" stroke="#000000" stroke-opacity="1" stroke-width="5.12"/>
<circle clip-path="url(#clip660)" cx="2075.16" cy="156.85" r="23" fill="#009af9" fill-rule="evenodd" fill-opacity="1" stroke="#000000" stroke-opacity="1" stroke-width="5.12"/>
<circle clip-path="url(#clip660)" cx="2075.16" cy="156.85" r="23" fill="#009af9" fill-rule="evenodd" fill-opacity="1" stroke="#000000" stroke-opacity="1" stroke-width="5.12"/>
<circle clip-path="url(#clip660)" cx="2075.16" cy="156.85" r="23" fill="#009af9" fill-rule="evenodd" fill-opacity="1" stroke="#000000" stroke-opacity="1" stroke-width="5.12"/>
<circle clip-path="url(#clip660)" cx="2075.16" cy="156.85" r="23" fill="#009af9" fill-rule="evenodd" fill-opacity="1" stroke="#000000" stroke-opacity="1" stroke-width="5.12"/>
<circle clip-path="url(#clip660)" cx="2075.16" cy="156.85" r="23" fill="#009af9" fill-rule="evenodd" fill-opacity="1" stroke="#000000" stroke-opacity="1" stroke-width="5.12"/>
<circle clip-path="url(#clip660)" cx="2075.16" cy="156.85" r="23" fill="#009af9" fill-rule="evenodd" fill-opacity="1" stroke="#000000" stroke-opacity="1" stroke-width="5.12"/>
<circle clip-path="url(#clip660)" cx="2075.16" cy="156.85" r="23" fill="#009af9" fill-rule="evenodd" fill-opacity="1" stroke="#000000" stroke-opacity="1" stroke-width="5.12"/>
<circle clip-path="url(#clip660)" cx="2075.16" cy="156.85" r="23" fill="#009af9" fill-rule="evenodd" fill-opacity="1" stroke="#000000" stroke-opacity="1" stroke-width="5.12"/>
<circle clip-path="url(#clip660)" cx="2075.16" cy="156.85" r="23" fill="#009af9" fill-rule="evenodd" fill-opacity="1" stroke="#000000" stroke-opacity="1" stroke-width="5.12"/>
<circle clip-path="url(#clip660)" cx="2075.16" cy="156.85" r="23" fill="#009af9" fill-rule="evenodd" fill-opacity="1" stroke="#000000" stroke-opacity="1" stroke-width="5.12"/>
<circle clip-path="url(#clip660)" cx="2075.16" cy="156.85" r="23" fill="#009af9" fill-rule="evenodd" fill-opacity="1" stroke="#000000" stroke-opacity="1" stroke-width="5.12"/>
<circle clip-path="url(#clip660)" cx="2075.16" cy="156.85" r="23" fill="#009af9" fill-rule="evenodd" fill-opacity="1" stroke="#000000" stroke-opacity="1" stroke-width="5.12"/>
<circle clip-path="url(#clip660)" cx="2075.16" cy="156.85" r="23" fill="#009af9" fill-rule="evenodd" fill-opacity="1" stroke="#000000" stroke-opacity="1" stroke-width="5.12"/>
<circle clip-path="url(#clip660)" cx="2075.16" cy="156.85" r="23" fill="#009af9" fill-rule="evenodd" fill-opacity="1" stroke="#000000" stroke-opacity="1" stroke-width="5.12"/>
<circle clip-path="url(#clip660)" cx="2075.16" cy="156.85" r="23" fill="#009af9" fill-rule="evenodd" fill-opacity="1" stroke="#000000" stroke-opacity="1" stroke-width="5.12"/>
<circle clip-path="url(#clip660)" cx="2075.16" cy="156.85" r="23" fill="#009af9" fill-rule="evenodd" fill-opacity="1" stroke="#000000" stroke-opacity="1" stroke-width="5.12"/>
<circle clip-path="url(#clip660)" cx="2075.16" cy="156.85" r="23" fill="#009af9" fill-rule="evenodd" fill-opacity="1" stroke="#000000" stroke-opacity="1" stroke-width="5.12"/>
<path clip-path="url(#clip660)" d="M 0 0 M2189.7 176.537 Q2187.9 181.167 2186.19 182.579 Q2184.47 183.991 2181.6 183.991 L2178.2 183.991 L2178.2 180.426 L2180.7 180.426 Q2182.46 180.426 2183.43 179.592 Q2184.4 178.759 2185.58 175.657 L2186.35 173.713 L2175.86 148.204 L2180.38 148.204 L2188.48 168.481 L2196.58 148.204 L2201.09 148.204 L2189.7 176.537 Z" fill="#000000" fill-rule="evenodd" fill-opacity="1" /><path clip-path="url(#clip660)" d="M 0 0 M2206.97 170.194 L2214.61 170.194 L2214.61 143.829 L2206.3 145.495 L2206.3 141.236 L2214.57 139.57 L2219.24 139.57 L2219.24 170.194 L2226.88 170.194 L2226.88 174.13 L2206.97 174.13 L2206.97 170.194 Z" fill="#000000" fill-rule="evenodd" fill-opacity="1" /></svg>
