<?xml version="1.0" encoding="utf-8"?>
<svg xmlns="http://www.w3.org/2000/svg" xmlns:xlink="http://www.w3.org/1999/xlink" width="600" height="400" viewBox="0 0 2400 1600">
<defs>
  <clipPath id="clip120">
    <rect x="0" y="0" width="2400" height="1600"/>
  </clipPath>
</defs>
<path clip-path="url(#clip120)" d="
M0 1600 L2400 1600 L2400 0 L0 0  Z
  " fill="#ffffff" fill-rule="evenodd" fill-opacity="1"/>
<defs>
  <clipPath id="clip121">
    <rect x="480" y="0" width="1681" height="1600"/>
  </clipPath>
</defs>
<path clip-path="url(#clip120)" d="
M86.9921 1521.01 L2352.76 1521.01 L2352.76 47.2441 L86.9921 47.2441  Z
  " fill="#ffffff" fill-rule="evenodd" fill-opacity="1"/>
<defs>
  <clipPath id="clip122">
    <rect x="86" y="47" width="2267" height="1475"/>
  </clipPath>
</defs>
<polyline clip-path="url(#clip122)" style="stroke:#000000; stroke-width:2; stroke-opacity:0.1; fill:none" points="
  393.273,1521.01 393.273,47.2441 
  "/>
<polyline clip-path="url(#clip122)" style="stroke:#000000; stroke-width:2; stroke-opacity:0.1; fill:none" points="
  886.441,1521.01 886.441,47.2441 
  "/>
<polyline clip-path="url(#clip122)" style="stroke:#000000; stroke-width:2; stroke-opacity:0.1; fill:none" points="
  1379.61,1521.01 1379.61,47.2441 
  "/>
<polyline clip-path="url(#clip122)" style="stroke:#000000; stroke-width:2; stroke-opacity:0.1; fill:none" points="
  1872.78,1521.01 1872.78,47.2441 
  "/>
<polyline clip-path="url(#clip122)" style="stroke:#000000; stroke-width:2; stroke-opacity:0.1; fill:none" points="
  86.9921,1479.3 2352.76,1479.3 
  "/>
<polyline clip-path="url(#clip122)" style="stroke:#000000; stroke-width:2; stroke-opacity:0.1; fill:none" points="
  86.9921,1271.64 2352.76,1271.64 
  "/>
<polyline clip-path="url(#clip122)" style="stroke:#000000; stroke-width:2; stroke-opacity:0.1; fill:none" points="
  86.9921,1063.98 2352.76,1063.98 
  "/>
<polyline clip-path="url(#clip122)" style="stroke:#000000; stroke-width:2; stroke-opacity:0.1; fill:none" points="
  86.9921,856.328 2352.76,856.328 
  "/>
<polyline clip-path="url(#clip122)" style="stroke:#000000; stroke-width:2; stroke-opacity:0.1; fill:none" points="
  86.9921,648.672 2352.76,648.672 
  "/>
<polyline clip-path="url(#clip122)" style="stroke:#000000; stroke-width:2; stroke-opacity:0.1; fill:none" points="
  86.9921,441.015 2352.76,441.015 
  "/>
<polyline clip-path="url(#clip122)" style="stroke:#000000; stroke-width:2; stroke-opacity:0.1; fill:none" points="
  86.9921,233.359 2352.76,233.359 
  "/>
<polyline clip-path="url(#clip120)" style="stroke:#000000; stroke-width:4; stroke-opacity:1; fill:none" points="
  86.9921,1521.01 2352.76,1521.01 
  "/>
<polyline clip-path="url(#clip120)" style="stroke:#000000; stroke-width:4; stroke-opacity:1; fill:none" points="
  86.9921,1521.01 86.9921,47.2441 
  "/>
<polyline clip-path="url(#clip120)" style="stroke:#000000; stroke-width:4; stroke-opacity:1; fill:none" points="
  393.273,1521.01 393.273,1503.32 
  "/>
<polyline clip-path="url(#clip120)" style="stroke:#000000; stroke-width:4; stroke-opacity:1; fill:none" points="
  886.441,1521.01 886.441,1503.32 
  "/>
<polyline clip-path="url(#clip120)" style="stroke:#000000; stroke-width:4; stroke-opacity:1; fill:none" points="
  1379.61,1521.01 1379.61,1503.32 
  "/>
<polyline clip-path="url(#clip120)" style="stroke:#000000; stroke-width:4; stroke-opacity:1; fill:none" points="
  1872.78,1521.01 1872.78,1503.32 
  "/>
<polyline clip-path="url(#clip120)" style="stroke:#000000; stroke-width:4; stroke-opacity:1; fill:none" points="
  86.9921,1479.3 114.181,1479.3 
  "/>
<polyline clip-path="url(#clip120)" style="stroke:#000000; stroke-width:4; stroke-opacity:1; fill:none" points="
  86.9921,1271.64 114.181,1271.64 
  "/>
<polyline clip-path="url(#clip120)" style="stroke:#000000; stroke-width:4; stroke-opacity:1; fill:none" points="
  86.9921,1063.98 114.181,1063.98 
  "/>
<polyline clip-path="url(#clip120)" style="stroke:#000000; stroke-width:4; stroke-opacity:1; fill:none" points="
  86.9921,856.328 114.181,856.328 
  "/>
<polyline clip-path="url(#clip120)" style="stroke:#000000; stroke-width:4; stroke-opacity:1; fill:none" points="
  86.9921,648.672 114.181,648.672 
  "/>
<polyline clip-path="url(#clip120)" style="stroke:#000000; stroke-width:4; stroke-opacity:1; fill:none" points="
  86.9921,441.015 114.181,441.015 
  "/>
<polyline clip-path="url(#clip120)" style="stroke:#000000; stroke-width:4; stroke-opacity:1; fill:none" points="
  86.9921,233.359 114.181,233.359 
  "/>
<path clip-path="url(#clip120)" d="M 0 0 M335.657 1543 Q332.046 1543 330.217 1546.56 Q328.412 1550.11 328.412 1557.23 Q328.412 1564.34 330.217 1567.91 Q332.046 1571.45 335.657 1571.45 Q339.291 1571.45 341.097 1567.91 Q342.926 1564.34 342.926 1557.23 Q342.926 1550.11 341.097 1546.56 Q339.291 1543 335.657 1543 M335.657 1539.29 Q341.467 1539.29 344.523 1543.9 Q347.602 1548.48 347.602 1557.23 Q347.602 1565.96 344.523 1570.57 Q341.467 1575.15 335.657 1575.15 Q329.847 1575.15 326.768 1570.57 Q323.713 1565.96 323.713 1557.23 Q323.713 1548.48 326.768 1543.9 Q329.847 1539.29 335.657 1539.29 Z" fill="#000000" fill-rule="evenodd" fill-opacity="1" /><path clip-path="url(#clip120)" d="M 0 0 M352.671 1568.6 L357.555 1568.6 L357.555 1574.48 L352.671 1574.48 L352.671 1568.6 Z" fill="#000000" fill-rule="evenodd" fill-opacity="1" /><path clip-path="url(#clip120)" d="M 0 0 M366.652 1570.54 L382.972 1570.54 L382.972 1574.48 L361.027 1574.48 L361.027 1570.54 Q363.689 1567.79 368.273 1563.16 Q372.879 1558.51 374.06 1557.17 Q376.305 1554.64 377.185 1552.91 Q378.087 1551.15 378.087 1549.46 Q378.087 1546.7 376.143 1544.97 Q374.222 1543.23 371.12 1543.23 Q368.921 1543.23 366.467 1543.99 Q364.037 1544.76 361.259 1546.31 L361.259 1541.59 Q364.083 1540.45 366.537 1539.87 Q368.99 1539.29 371.027 1539.29 Q376.398 1539.29 379.592 1541.98 Q382.787 1544.67 382.787 1549.16 Q382.787 1551.29 381.976 1553.21 Q381.189 1555.1 379.083 1557.7 Q378.504 1558.37 375.402 1561.59 Q372.3 1564.78 366.652 1570.54 Z" fill="#000000" fill-rule="evenodd" fill-opacity="1" /><path clip-path="url(#clip120)" d="M 0 0 M388.18 1573.76 L388.18 1569.5 Q389.939 1570.34 391.745 1570.78 Q393.55 1571.22 395.286 1571.22 Q399.916 1571.22 402.347 1568.11 Q404.8 1564.99 405.148 1558.65 Q403.805 1560.64 401.745 1561.7 Q399.685 1562.77 397.185 1562.77 Q391.999 1562.77 388.967 1559.64 Q385.958 1556.49 385.958 1551.05 Q385.958 1545.73 389.106 1542.51 Q392.254 1539.29 397.486 1539.29 Q403.481 1539.29 406.629 1543.9 Q409.8 1548.48 409.8 1557.23 Q409.8 1565.41 405.911 1570.29 Q402.046 1575.15 395.495 1575.15 Q393.736 1575.15 391.93 1574.8 Q390.124 1574.46 388.18 1573.76 M397.486 1559.11 Q400.634 1559.11 402.462 1556.96 Q404.314 1554.8 404.314 1551.05 Q404.314 1547.33 402.462 1545.17 Q400.634 1543 397.486 1543 Q394.337 1543 392.486 1545.17 Q390.657 1547.33 390.657 1551.05 Q390.657 1554.8 392.486 1556.96 Q394.337 1559.11 397.486 1559.11 Z" fill="#000000" fill-rule="evenodd" fill-opacity="1" /><path clip-path="url(#clip120)" d="M 0 0 M414.916 1539.92 L433.272 1539.92 L433.272 1543.86 L419.198 1543.86 L419.198 1552.33 Q420.217 1551.98 421.235 1551.82 Q422.254 1551.63 423.272 1551.63 Q429.059 1551.63 432.439 1554.8 Q435.819 1557.98 435.819 1563.39 Q435.819 1568.97 432.346 1572.07 Q428.874 1575.15 422.555 1575.15 Q420.379 1575.15 418.11 1574.78 Q415.865 1574.41 413.458 1573.67 L413.458 1568.97 Q415.541 1570.1 417.763 1570.66 Q419.985 1571.22 422.462 1571.22 Q426.467 1571.22 428.805 1569.11 Q431.143 1567 431.143 1563.39 Q431.143 1559.78 428.805 1557.67 Q426.467 1555.57 422.462 1555.57 Q420.587 1555.57 418.712 1555.98 Q416.86 1556.4 414.916 1557.28 L414.916 1539.92 Z" fill="#000000" fill-rule="evenodd" fill-opacity="1" /><path clip-path="url(#clip120)" d="M 0 0 M450.888 1543 Q447.277 1543 445.448 1546.56 Q443.643 1550.11 443.643 1557.23 Q443.643 1564.34 445.448 1567.91 Q447.277 1571.45 450.888 1571.45 Q454.522 1571.45 456.328 1567.91 Q458.157 1564.34 458.157 1557.23 Q458.157 1550.11 456.328 1546.56 Q454.522 1543 450.888 1543 M450.888 1539.29 Q456.698 1539.29 459.754 1543.9 Q462.832 1548.48 462.832 1557.23 Q462.832 1565.96 459.754 1570.57 Q456.698 1575.15 450.888 1575.15 Q445.078 1575.15 441.999 1570.57 Q438.944 1565.96 438.944 1557.23 Q438.944 1548.48 441.999 1543.9 Q445.078 1539.29 450.888 1539.29 Z" fill="#000000" fill-rule="evenodd" fill-opacity="1" /><path clip-path="url(#clip120)" d="M 0 0 M829.324 1543 Q825.713 1543 823.884 1546.56 Q822.078 1550.11 822.078 1557.23 Q822.078 1564.34 823.884 1567.91 Q825.713 1571.45 829.324 1571.45 Q832.958 1571.45 834.763 1567.91 Q836.592 1564.34 836.592 1557.23 Q836.592 1550.11 834.763 1546.56 Q832.958 1543 829.324 1543 M829.324 1539.29 Q835.134 1539.29 838.189 1543.9 Q841.268 1548.48 841.268 1557.23 Q841.268 1565.96 838.189 1570.57 Q835.134 1575.15 829.324 1575.15 Q823.514 1575.15 820.435 1570.57 Q817.379 1565.96 817.379 1557.23 Q817.379 1548.48 820.435 1543.9 Q823.514 1539.29 829.324 1539.29 Z" fill="#000000" fill-rule="evenodd" fill-opacity="1" /><path clip-path="url(#clip120)" d="M 0 0 M846.337 1568.6 L851.222 1568.6 L851.222 1574.48 L846.337 1574.48 L846.337 1568.6 Z" fill="#000000" fill-rule="evenodd" fill-opacity="1" /><path clip-path="url(#clip120)" d="M 0 0 M860.319 1570.54 L876.638 1570.54 L876.638 1574.48 L854.694 1574.48 L854.694 1570.54 Q857.356 1567.79 861.939 1563.16 Q866.546 1558.51 867.726 1557.17 Q869.972 1554.64 870.851 1552.91 Q871.754 1551.15 871.754 1549.46 Q871.754 1546.7 869.81 1544.97 Q867.888 1543.23 864.786 1543.23 Q862.587 1543.23 860.134 1543.99 Q857.703 1544.76 854.925 1546.31 L854.925 1541.59 Q857.749 1540.45 860.203 1539.87 Q862.657 1539.29 864.694 1539.29 Q870.064 1539.29 873.259 1541.98 Q876.453 1544.67 876.453 1549.16 Q876.453 1551.29 875.643 1553.21 Q874.856 1555.1 872.749 1557.7 Q872.171 1558.37 869.069 1561.59 Q865.967 1564.78 860.319 1570.54 Z" fill="#000000" fill-rule="evenodd" fill-opacity="1" /><path clip-path="url(#clip120)" d="M 0 0 M881.847 1573.76 L881.847 1569.5 Q883.606 1570.34 885.411 1570.78 Q887.217 1571.22 888.953 1571.22 Q893.583 1571.22 896.013 1568.11 Q898.467 1564.99 898.814 1558.65 Q897.471 1560.64 895.411 1561.7 Q893.351 1562.77 890.851 1562.77 Q885.666 1562.77 882.634 1559.64 Q879.624 1556.49 879.624 1551.05 Q879.624 1545.73 882.772 1542.51 Q885.921 1539.29 891.152 1539.29 Q897.147 1539.29 900.296 1543.9 Q903.467 1548.48 903.467 1557.23 Q903.467 1565.41 899.578 1570.29 Q895.712 1575.15 889.161 1575.15 Q887.402 1575.15 885.597 1574.8 Q883.791 1574.46 881.847 1573.76 M891.152 1559.11 Q894.3 1559.11 896.129 1556.96 Q897.981 1554.8 897.981 1551.05 Q897.981 1547.33 896.129 1545.17 Q894.3 1543 891.152 1543 Q888.004 1543 886.152 1545.17 Q884.323 1547.33 884.323 1551.05 Q884.323 1554.8 886.152 1556.96 Q888.004 1559.11 891.152 1559.11 Z" fill="#000000" fill-rule="evenodd" fill-opacity="1" /><path clip-path="url(#clip120)" d="M 0 0 M908.583 1539.92 L926.939 1539.92 L926.939 1543.86 L912.865 1543.86 L912.865 1552.33 Q913.883 1551.98 914.902 1551.82 Q915.92 1551.63 916.939 1551.63 Q922.726 1551.63 926.106 1554.8 Q929.485 1557.98 929.485 1563.39 Q929.485 1568.97 926.013 1572.07 Q922.541 1575.15 916.221 1575.15 Q914.045 1575.15 911.777 1574.78 Q909.532 1574.41 907.124 1573.67 L907.124 1568.97 Q909.208 1570.1 911.43 1570.66 Q913.652 1571.22 916.129 1571.22 Q920.133 1571.22 922.471 1569.11 Q924.809 1567 924.809 1563.39 Q924.809 1559.78 922.471 1557.67 Q920.133 1555.57 916.129 1555.57 Q914.254 1555.57 912.379 1555.98 Q910.527 1556.4 908.583 1557.28 L908.583 1539.92 Z" fill="#000000" fill-rule="evenodd" fill-opacity="1" /><path clip-path="url(#clip120)" d="M 0 0 M934.601 1539.92 L952.957 1539.92 L952.957 1543.86 L938.883 1543.86 L938.883 1552.33 Q939.902 1551.98 940.92 1551.82 Q941.939 1551.63 942.957 1551.63 Q948.744 1551.63 952.124 1554.8 Q955.504 1557.98 955.504 1563.39 Q955.504 1568.97 952.031 1572.07 Q948.559 1575.15 942.24 1575.15 Q940.064 1575.15 937.795 1574.78 Q935.55 1574.41 933.143 1573.67 L933.143 1568.97 Q935.226 1570.1 937.448 1570.66 Q939.67 1571.22 942.147 1571.22 Q946.152 1571.22 948.49 1569.11 Q950.828 1567 950.828 1563.39 Q950.828 1559.78 948.49 1557.67 Q946.152 1555.57 942.147 1555.57 Q940.272 1555.57 938.397 1555.98 Q936.545 1556.4 934.601 1557.28 L934.601 1539.92 Z" fill="#000000" fill-rule="evenodd" fill-opacity="1" /><path clip-path="url(#clip120)" d="M 0 0 M1321.42 1543 Q1317.81 1543 1315.98 1546.56 Q1314.17 1550.11 1314.17 1557.23 Q1314.17 1564.34 1315.98 1567.91 Q1317.81 1571.45 1321.42 1571.45 Q1325.05 1571.45 1326.86 1567.91 Q1328.68 1564.34 1328.68 1557.23 Q1328.68 1550.11 1326.86 1546.56 Q1325.05 1543 1321.42 1543 M1321.42 1539.29 Q1327.23 1539.29 1330.28 1543.9 Q1333.36 1548.48 1333.36 1557.23 Q1333.36 1565.96 1330.28 1570.57 Q1327.23 1575.15 1321.42 1575.15 Q1315.61 1575.15 1312.53 1570.57 Q1309.47 1565.96 1309.47 1557.23 Q1309.47 1548.48 1312.53 1543.9 Q1315.61 1539.29 1321.42 1539.29 Z" fill="#000000" fill-rule="evenodd" fill-opacity="1" /><path clip-path="url(#clip120)" d="M 0 0 M1338.43 1568.6 L1343.31 1568.6 L1343.31 1574.48 L1338.43 1574.48 L1338.43 1568.6 Z" fill="#000000" fill-rule="evenodd" fill-opacity="1" /><path clip-path="url(#clip120)" d="M 0 0 M1352.41 1570.54 L1368.73 1570.54 L1368.73 1574.48 L1346.79 1574.48 L1346.79 1570.54 Q1349.45 1567.79 1354.03 1563.16 Q1358.64 1558.51 1359.82 1557.17 Q1362.06 1554.64 1362.94 1552.91 Q1363.85 1551.15 1363.85 1549.46 Q1363.85 1546.7 1361.9 1544.97 Q1359.98 1543.23 1356.88 1543.23 Q1354.68 1543.23 1352.23 1543.99 Q1349.8 1544.76 1347.02 1546.31 L1347.02 1541.59 Q1349.84 1540.45 1352.3 1539.87 Q1354.75 1539.29 1356.79 1539.29 Q1362.16 1539.29 1365.35 1541.98 Q1368.55 1544.67 1368.55 1549.16 Q1368.55 1551.29 1367.74 1553.21 Q1366.95 1555.1 1364.84 1557.7 Q1364.26 1558.37 1361.16 1561.59 Q1358.06 1564.78 1352.41 1570.54 Z" fill="#000000" fill-rule="evenodd" fill-opacity="1" /><path clip-path="url(#clip120)" d="M 0 0 M1373.94 1573.76 L1373.94 1569.5 Q1375.7 1570.34 1377.5 1570.78 Q1379.31 1571.22 1381.05 1571.22 Q1385.68 1571.22 1388.11 1568.11 Q1390.56 1564.99 1390.91 1558.65 Q1389.56 1560.64 1387.5 1561.7 Q1385.44 1562.77 1382.94 1562.77 Q1377.76 1562.77 1374.73 1559.64 Q1371.72 1556.49 1371.72 1551.05 Q1371.72 1545.73 1374.86 1542.51 Q1378.01 1539.29 1383.24 1539.29 Q1389.24 1539.29 1392.39 1543.9 Q1395.56 1548.48 1395.56 1557.23 Q1395.56 1565.41 1391.67 1570.29 Q1387.8 1575.15 1381.25 1575.15 Q1379.49 1575.15 1377.69 1574.8 Q1375.88 1574.46 1373.94 1573.76 M1383.24 1559.11 Q1386.39 1559.11 1388.22 1556.96 Q1390.07 1554.8 1390.07 1551.05 Q1390.07 1547.33 1388.22 1545.17 Q1386.39 1543 1383.24 1543 Q1380.1 1543 1378.24 1545.17 Q1376.42 1547.33 1376.42 1551.05 Q1376.42 1554.8 1378.24 1556.96 Q1380.1 1559.11 1383.24 1559.11 Z" fill="#000000" fill-rule="evenodd" fill-opacity="1" /><path clip-path="url(#clip120)" d="M 0 0 M1411.21 1555.34 Q1408.06 1555.34 1406.21 1557.49 Q1404.38 1559.64 1404.38 1563.39 Q1404.38 1567.12 1406.21 1569.29 Q1408.06 1571.45 1411.21 1571.45 Q1414.36 1571.45 1416.18 1569.29 Q1418.04 1567.12 1418.04 1563.39 Q1418.04 1559.64 1416.18 1557.49 Q1414.36 1555.34 1411.21 1555.34 M1420.49 1540.68 L1420.49 1544.94 Q1418.73 1544.11 1416.92 1543.67 Q1415.14 1543.23 1413.38 1543.23 Q1408.75 1543.23 1406.3 1546.36 Q1403.87 1549.48 1403.52 1555.8 Q1404.89 1553.79 1406.95 1552.72 Q1409.01 1551.63 1411.49 1551.63 Q1416.69 1551.63 1419.7 1554.8 Q1422.74 1557.95 1422.74 1563.39 Q1422.74 1568.72 1419.59 1571.93 Q1416.44 1575.15 1411.21 1575.15 Q1405.21 1575.15 1402.04 1570.57 Q1398.87 1565.96 1398.87 1557.23 Q1398.87 1549.04 1402.76 1544.18 Q1406.65 1539.29 1413.2 1539.29 Q1414.96 1539.29 1416.74 1539.64 Q1418.55 1539.99 1420.49 1540.68 Z" fill="#000000" fill-rule="evenodd" fill-opacity="1" /><path clip-path="url(#clip120)" d="M 0 0 M1437.8 1543 Q1434.19 1543 1432.36 1546.56 Q1430.56 1550.11 1430.56 1557.23 Q1430.56 1564.34 1432.36 1567.91 Q1434.19 1571.45 1437.8 1571.45 Q1441.44 1571.45 1443.24 1567.91 Q1445.07 1564.34 1445.07 1557.23 Q1445.07 1550.11 1443.24 1546.56 Q1441.44 1543 1437.8 1543 M1437.8 1539.29 Q1443.61 1539.29 1446.67 1543.9 Q1449.75 1548.48 1449.75 1557.23 Q1449.75 1565.96 1446.67 1570.57 Q1443.61 1575.15 1437.8 1575.15 Q1431.99 1575.15 1428.92 1570.57 Q1425.86 1565.96 1425.86 1557.23 Q1425.86 1548.48 1428.92 1543.9 Q1431.99 1539.29 1437.8 1539.29 Z" fill="#000000" fill-rule="evenodd" fill-opacity="1" /><path clip-path="url(#clip120)" d="M 0 0 M1815.08 1543 Q1811.47 1543 1809.64 1546.56 Q1807.84 1550.11 1807.84 1557.23 Q1807.84 1564.34 1809.64 1567.91 Q1811.47 1571.45 1815.08 1571.45 Q1818.72 1571.45 1820.52 1567.91 Q1822.35 1564.34 1822.35 1557.23 Q1822.35 1550.11 1820.52 1546.56 Q1818.72 1543 1815.08 1543 M1815.08 1539.29 Q1820.89 1539.29 1823.95 1543.9 Q1827.03 1548.48 1827.03 1557.23 Q1827.03 1565.96 1823.95 1570.57 Q1820.89 1575.15 1815.08 1575.15 Q1809.27 1575.15 1806.19 1570.57 Q1803.14 1565.96 1803.14 1557.23 Q1803.14 1548.48 1806.19 1543.9 Q1809.27 1539.29 1815.08 1539.29 Z" fill="#000000" fill-rule="evenodd" fill-opacity="1" /><path clip-path="url(#clip120)" d="M 0 0 M1832.1 1568.6 L1836.98 1568.6 L1836.98 1574.48 L1832.1 1574.48 L1832.1 1568.6 Z" fill="#000000" fill-rule="evenodd" fill-opacity="1" /><path clip-path="url(#clip120)" d="M 0 0 M1846.08 1570.54 L1862.4 1570.54 L1862.4 1574.48 L1840.45 1574.48 L1840.45 1570.54 Q1843.11 1567.79 1847.7 1563.16 Q1852.3 1558.51 1853.49 1557.17 Q1855.73 1554.64 1856.61 1552.91 Q1857.51 1551.15 1857.51 1549.46 Q1857.51 1546.7 1855.57 1544.97 Q1853.65 1543.23 1850.55 1543.23 Q1848.35 1543.23 1845.89 1543.99 Q1843.46 1544.76 1840.68 1546.31 L1840.68 1541.59 Q1843.51 1540.45 1845.96 1539.87 Q1848.42 1539.29 1850.45 1539.29 Q1855.82 1539.29 1859.02 1541.98 Q1862.21 1544.67 1862.21 1549.16 Q1862.21 1551.29 1861.4 1553.21 Q1860.61 1555.1 1858.51 1557.7 Q1857.93 1558.37 1854.83 1561.59 Q1851.73 1564.78 1846.08 1570.54 Z" fill="#000000" fill-rule="evenodd" fill-opacity="1" /><path clip-path="url(#clip120)" d="M 0 0 M1867.61 1573.76 L1867.61 1569.5 Q1869.36 1570.34 1871.17 1570.78 Q1872.98 1571.22 1874.71 1571.22 Q1879.34 1571.22 1881.77 1568.11 Q1884.23 1564.99 1884.57 1558.65 Q1883.23 1560.64 1881.17 1561.7 Q1879.11 1562.77 1876.61 1562.77 Q1871.42 1562.77 1868.39 1559.64 Q1865.38 1556.49 1865.38 1551.05 Q1865.38 1545.73 1868.53 1542.51 Q1871.68 1539.29 1876.91 1539.29 Q1882.91 1539.29 1886.05 1543.9 Q1889.23 1548.48 1889.23 1557.23 Q1889.23 1565.41 1885.34 1570.29 Q1881.47 1575.15 1874.92 1575.15 Q1873.16 1575.15 1871.36 1574.8 Q1869.55 1574.46 1867.61 1573.76 M1876.91 1559.11 Q1880.06 1559.11 1881.89 1556.96 Q1883.74 1554.8 1883.74 1551.05 Q1883.74 1547.33 1881.89 1545.17 Q1880.06 1543 1876.91 1543 Q1873.76 1543 1871.91 1545.17 Q1870.08 1547.33 1870.08 1551.05 Q1870.08 1554.8 1871.91 1556.96 Q1873.76 1559.11 1876.91 1559.11 Z" fill="#000000" fill-rule="evenodd" fill-opacity="1" /><path clip-path="url(#clip120)" d="M 0 0 M1904.87 1555.34 Q1901.73 1555.34 1899.87 1557.49 Q1898.05 1559.64 1898.05 1563.39 Q1898.05 1567.12 1899.87 1569.29 Q1901.73 1571.45 1904.87 1571.45 Q1908.02 1571.45 1909.85 1569.29 Q1911.7 1567.12 1911.7 1563.39 Q1911.7 1559.64 1909.85 1557.49 Q1908.02 1555.34 1904.87 1555.34 M1914.16 1540.68 L1914.16 1544.94 Q1912.4 1544.11 1910.59 1543.67 Q1908.81 1543.23 1907.05 1543.23 Q1902.42 1543.23 1899.97 1546.36 Q1897.54 1549.48 1897.19 1555.8 Q1898.55 1553.79 1900.61 1552.72 Q1902.67 1551.63 1905.15 1551.63 Q1910.36 1551.63 1913.37 1554.8 Q1916.4 1557.95 1916.4 1563.39 Q1916.4 1568.72 1913.25 1571.93 Q1910.11 1575.15 1904.87 1575.15 Q1898.88 1575.15 1895.71 1570.57 Q1892.54 1565.96 1892.54 1557.23 Q1892.54 1549.04 1896.42 1544.18 Q1900.31 1539.29 1906.86 1539.29 Q1908.62 1539.29 1910.41 1539.64 Q1912.21 1539.99 1914.16 1540.68 Z" fill="#000000" fill-rule="evenodd" fill-opacity="1" /><path clip-path="url(#clip120)" d="M 0 0 M1921.52 1539.92 L1939.87 1539.92 L1939.87 1543.86 L1925.8 1543.86 L1925.8 1552.33 Q1926.82 1551.98 1927.84 1551.82 Q1928.86 1551.63 1929.87 1551.63 Q1935.66 1551.63 1939.04 1554.8 Q1942.42 1557.98 1942.42 1563.39 Q1942.42 1568.97 1938.95 1572.07 Q1935.48 1575.15 1929.16 1575.15 Q1926.98 1575.15 1924.71 1574.78 Q1922.47 1574.41 1920.06 1573.67 L1920.06 1568.97 Q1922.14 1570.1 1924.36 1570.66 Q1926.59 1571.22 1929.06 1571.22 Q1933.07 1571.22 1935.41 1569.11 Q1937.74 1567 1937.74 1563.39 Q1937.74 1559.78 1935.41 1557.67 Q1933.07 1555.57 1929.06 1555.57 Q1927.19 1555.57 1925.31 1555.98 Q1923.46 1556.4 1921.52 1557.28 L1921.52 1539.92 Z" fill="#000000" fill-rule="evenodd" fill-opacity="1" /><path clip-path="url(#clip120)" d="M 0 0 M51.0477 1465.1 Q47.4367 1465.1 45.608 1468.66 Q43.8024 1472.2 43.8024 1479.33 Q43.8024 1486.44 45.608 1490 Q47.4367 1493.55 51.0477 1493.55 Q54.682 1493.55 56.4875 1490 Q58.3162 1486.44 58.3162 1479.33 Q58.3162 1472.2 56.4875 1468.66 Q54.682 1465.1 51.0477 1465.1 M51.0477 1461.39 Q56.8579 1461.39 59.9134 1466 Q62.9921 1470.58 62.9921 1479.33 Q62.9921 1488.06 59.9134 1492.67 Q56.8579 1497.25 51.0477 1497.25 Q45.2376 1497.25 42.1589 1492.67 Q39.1034 1488.06 39.1034 1479.33 Q39.1034 1470.58 42.1589 1466 Q45.2376 1461.39 51.0477 1461.39 Z" fill="#000000" fill-rule="evenodd" fill-opacity="1" /><path clip-path="url(#clip120)" d="M 0 0 M-7.35472 1284.99 L8.96464 1284.99 L8.96464 1288.92 L-12.9797 1288.92 L-12.9797 1284.99 Q-10.3177 1282.23 -5.73436 1277.6 Q-1.1279 1272.95 0.0526484 1271.61 Q2.29801 1269.08 3.17763 1267.35 Q4.0804 1265.59 4.0804 1263.9 Q4.0804 1261.14 2.13597 1259.41 Q0.214685 1257.67 -2.88715 1257.67 Q-5.08621 1257.67 -7.5399 1258.44 Q-9.97045 1259.2 -12.7482 1260.75 L-12.7482 1256.03 Q-9.92415 1254.89 -7.47046 1254.31 Q-5.01677 1253.74 -2.97974 1253.74 Q2.3906 1253.74 5.58503 1256.42 Q8.77945 1259.11 8.77945 1263.6 Q8.77945 1265.73 7.96927 1267.65 Q7.18224 1269.55 5.07577 1272.14 Q4.49707 1272.81 1.39523 1276.03 Q-1.7066 1279.22 -7.35472 1284.99 Z" fill="#000000" fill-rule="evenodd" fill-opacity="1" /><path clip-path="url(#clip120)" d="M 0 0 M24.034 1257.44 Q20.4229 1257.44 18.5942 1261 Q16.7887 1264.55 16.7887 1271.68 Q16.7887 1278.78 18.5942 1282.35 Q20.4229 1285.89 24.034 1285.89 Q27.6682 1285.89 29.4738 1282.35 Q31.3025 1278.78 31.3025 1271.68 Q31.3025 1264.55 29.4738 1261 Q27.6682 1257.44 24.034 1257.44 M24.034 1253.74 Q29.8442 1253.74 32.8997 1258.34 Q35.9784 1262.93 35.9784 1271.68 Q35.9784 1280.4 32.8997 1285.01 Q29.8442 1289.59 24.034 1289.59 Q18.2238 1289.59 15.1452 1285.01 Q12.0896 1280.4 12.0896 1271.68 Q12.0896 1262.93 15.1452 1258.34 Q18.2238 1253.74 24.034 1253.74 Z" fill="#000000" fill-rule="evenodd" fill-opacity="1" /><path clip-path="url(#clip120)" d="M 0 0 M51.0477 1257.44 Q47.4367 1257.44 45.608 1261 Q43.8024 1264.55 43.8024 1271.68 Q43.8024 1278.78 45.608 1282.35 Q47.4367 1285.89 51.0477 1285.89 Q54.682 1285.89 56.4875 1282.35 Q58.3162 1278.78 58.3162 1271.68 Q58.3162 1264.55 56.4875 1261 Q54.682 1257.44 51.0477 1257.44 M51.0477 1253.74 Q56.8579 1253.74 59.9134 1258.34 Q62.9921 1262.93 62.9921 1271.68 Q62.9921 1280.4 59.9134 1285.01 Q56.8579 1289.59 51.0477 1289.59 Q45.2376 1289.59 42.1589 1285.01 Q39.1034 1280.4 39.1034 1271.68 Q39.1034 1262.93 42.1589 1258.34 Q45.2376 1253.74 51.0477 1253.74 Z" fill="#000000" fill-rule="evenodd" fill-opacity="1" /><path clip-path="url(#clip120)" d="M 0 0 M-0.618644 1050.78 L-12.4241 1069.23 L-0.618644 1069.23 L-0.618644 1050.78 M-1.84549 1046.7 L4.03411 1046.7 L4.03411 1069.23 L8.96464 1069.23 L8.96464 1073.12 L4.03411 1073.12 L4.03411 1081.26 L-0.618644 1081.26 L-0.618644 1073.12 L-16.2204 1073.12 L-16.2204 1068.6 L-1.84549 1046.7 Z" fill="#000000" fill-rule="evenodd" fill-opacity="1" /><path clip-path="url(#clip120)" d="M 0 0 M24.034 1049.78 Q20.4229 1049.78 18.5942 1053.35 Q16.7887 1056.89 16.7887 1064.02 Q16.7887 1071.13 18.5942 1074.69 Q20.4229 1078.23 24.034 1078.23 Q27.6682 1078.23 29.4738 1074.69 Q31.3025 1071.13 31.3025 1064.02 Q31.3025 1056.89 29.4738 1053.35 Q27.6682 1049.78 24.034 1049.78 M24.034 1046.08 Q29.8442 1046.08 32.8997 1050.69 Q35.9784 1055.27 35.9784 1064.02 Q35.9784 1072.75 32.8997 1077.35 Q29.8442 1081.94 24.034 1081.94 Q18.2238 1081.94 15.1452 1077.35 Q12.0896 1072.75 12.0896 1064.02 Q12.0896 1055.27 15.1452 1050.69 Q18.2238 1046.08 24.034 1046.08 Z" fill="#000000" fill-rule="evenodd" fill-opacity="1" /><path clip-path="url(#clip120)" d="M 0 0 M51.0477 1049.78 Q47.4367 1049.78 45.608 1053.35 Q43.8024 1056.89 43.8024 1064.02 Q43.8024 1071.13 45.608 1074.69 Q47.4367 1078.23 51.0477 1078.23 Q54.682 1078.23 56.4875 1074.69 Q58.3162 1071.13 58.3162 1064.02 Q58.3162 1056.89 56.4875 1053.35 Q54.682 1049.78 51.0477 1049.78 M51.0477 1046.08 Q56.8579 1046.08 59.9134 1050.69 Q62.9921 1055.27 62.9921 1064.02 Q62.9921 1072.75 59.9134 1077.35 Q56.8579 1081.94 51.0477 1081.94 Q45.2376 1081.94 42.1589 1077.35 Q39.1034 1072.75 39.1034 1064.02 Q39.1034 1055.27 42.1589 1050.69 Q45.2376 1046.08 51.0477 1046.08 Z" fill="#000000" fill-rule="evenodd" fill-opacity="1" /><path clip-path="url(#clip120)" d="M 0 0 M-2.56308 854.465 Q-5.71121 854.465 -7.56305 856.617 Q-9.39175 858.77 -9.39175 862.52 Q-9.39175 866.247 -7.56305 868.423 Q-5.71121 870.576 -2.56308 870.576 Q0.585053 870.576 2.41375 868.423 Q4.26559 866.247 4.26559 862.52 Q4.26559 858.77 2.41375 856.617 Q0.585053 854.465 -2.56308 854.465 M6.71928 839.812 L6.71928 844.071 Q4.96003 843.238 3.15448 842.798 Q1.37209 842.358 -0.387164 842.358 Q-5.01677 842.358 -7.47046 845.483 Q-9.901 848.608 -10.2482 854.928 Q-8.88249 852.914 -6.82231 851.849 Q-4.76214 850.761 -2.2853 850.761 Q2.923 850.761 5.93225 853.932 Q8.96464 857.08 8.96464 862.52 Q8.96464 867.844 5.81651 871.062 Q2.66838 874.279 -2.56308 874.279 Q-8.55842 874.279 -11.7297 869.696 Q-14.901 865.09 -14.901 856.363 Q-14.901 848.168 -11.0121 843.307 Q-7.12324 838.423 -0.572348 838.423 Q1.1869 838.423 2.9693 838.77 Q4.77485 839.118 6.71928 839.812 Z" fill="#000000" fill-rule="evenodd" fill-opacity="1" /><path clip-path="url(#clip120)" d="M 0 0 M24.034 842.127 Q20.4229 842.127 18.5942 845.692 Q16.7887 849.233 16.7887 856.363 Q16.7887 863.469 18.5942 867.034 Q20.4229 870.576 24.034 870.576 Q27.6682 870.576 29.4738 867.034 Q31.3025 863.469 31.3025 856.363 Q31.3025 849.233 29.4738 845.692 Q27.6682 842.127 24.034 842.127 M24.034 838.423 Q29.8442 838.423 32.8997 843.03 Q35.9784 847.613 35.9784 856.363 Q35.9784 865.09 32.8997 869.696 Q29.8442 874.279 24.034 874.279 Q18.2238 874.279 15.1452 869.696 Q12.0896 865.09 12.0896 856.363 Q12.0896 847.613 15.1452 843.03 Q18.2238 838.423 24.034 838.423 Z" fill="#000000" fill-rule="evenodd" fill-opacity="1" /><path clip-path="url(#clip120)" d="M 0 0 M51.0477 842.127 Q47.4367 842.127 45.608 845.692 Q43.8024 849.233 43.8024 856.363 Q43.8024 863.469 45.608 867.034 Q47.4367 870.576 51.0477 870.576 Q54.682 870.576 56.4875 867.034 Q58.3162 863.469 58.3162 856.363 Q58.3162 849.233 56.4875 845.692 Q54.682 842.127 51.0477 842.127 M51.0477 838.423 Q56.8579 838.423 59.9134 843.03 Q62.9921 847.613 62.9921 856.363 Q62.9921 865.09 59.9134 869.696 Q56.8579 874.279 51.0477 874.279 Q45.2376 874.279 42.1589 869.696 Q39.1034 865.09 39.1034 856.363 Q39.1034 847.613 42.1589 843.03 Q45.2376 838.423 51.0477 838.423 Z" fill="#000000" fill-rule="evenodd" fill-opacity="1" /><path clip-path="url(#clip120)" d="M 0 0 M-2.88715 649.54 Q-6.22047 649.54 -8.14175 651.322 Q-10.0399 653.104 -10.0399 656.229 Q-10.0399 659.354 -8.14175 661.137 Q-6.22047 662.919 -2.88715 662.919 Q0.446165 662.919 2.36745 661.137 Q4.28874 659.331 4.28874 656.229 Q4.28874 653.104 2.36745 651.322 Q0.469313 649.54 -2.88715 649.54 M-7.56305 647.549 Q-10.5723 646.808 -12.2621 644.748 Q-13.9288 642.688 -13.9288 639.725 Q-13.9288 635.581 -10.989 633.174 Q-8.02601 630.767 -2.88715 630.767 Q2.27486 630.767 5.21466 633.174 Q8.15446 635.581 8.15446 639.725 Q8.15446 642.688 6.46465 644.748 Q4.79799 646.808 1.8119 647.549 Q5.19151 648.336 7.0665 650.628 Q8.96464 652.919 8.96464 656.229 Q8.96464 661.253 5.88595 663.938 Q2.83041 666.623 -2.88715 666.623 Q-8.60471 666.623 -11.6834 663.938 Q-14.7389 661.253 -14.7389 656.229 Q-14.7389 652.919 -12.8408 650.628 Q-10.9427 648.336 -7.56305 647.549 M-9.27601 640.165 Q-9.27601 642.85 -7.60935 644.354 Q-5.91954 645.859 -2.88715 645.859 Q0.122092 645.859 1.8119 644.354 Q3.52485 642.85 3.52485 640.165 Q3.52485 637.48 1.8119 635.975 Q0.122092 634.47 -2.88715 634.47 Q-5.91954 634.47 -7.60935 635.975 Q-9.27601 637.48 -9.27601 640.165 Z" fill="#000000" fill-rule="evenodd" fill-opacity="1" /><path clip-path="url(#clip120)" d="M 0 0 M24.034 634.47 Q20.4229 634.47 18.5942 638.035 Q16.7887 641.577 16.7887 648.706 Q16.7887 655.813 18.5942 659.378 Q20.4229 662.919 24.034 662.919 Q27.6682 662.919 29.4738 659.378 Q31.3025 655.813 31.3025 648.706 Q31.3025 641.577 29.4738 638.035 Q27.6682 634.47 24.034 634.47 M24.034 630.767 Q29.8442 630.767 32.8997 635.373 Q35.9784 639.956 35.9784 648.706 Q35.9784 657.433 32.8997 662.04 Q29.8442 666.623 24.034 666.623 Q18.2238 666.623 15.1452 662.04 Q12.0896 657.433 12.0896 648.706 Q12.0896 639.956 15.1452 635.373 Q18.2238 630.767 24.034 630.767 Z" fill="#000000" fill-rule="evenodd" fill-opacity="1" /><path clip-path="url(#clip120)" d="M 0 0 M51.0477 634.47 Q47.4367 634.47 45.608 638.035 Q43.8024 641.577 43.8024 648.706 Q43.8024 655.813 45.608 659.378 Q47.4367 662.919 51.0477 662.919 Q54.682 662.919 56.4875 659.378 Q58.3162 655.813 58.3162 648.706 Q58.3162 641.577 56.4875 638.035 Q54.682 634.47 51.0477 634.47 M51.0477 630.767 Q56.8579 630.767 59.9134 635.373 Q62.9921 639.956 62.9921 648.706 Q62.9921 657.433 59.9134 662.04 Q56.8579 666.623 51.0477 666.623 Q45.2376 666.623 42.1589 662.04 Q39.1034 657.433 39.1034 648.706 Q39.1034 639.956 42.1589 635.373 Q45.2376 630.767 51.0477 630.767 Z" fill="#000000" fill-rule="evenodd" fill-opacity="1" /><path clip-path="url(#clip120)" d="M 0 0 M-37.9564 454.36 L-30.3176 454.36 L-30.3176 427.994 L-38.6277 429.661 L-38.6277 425.402 L-30.3639 423.735 L-25.688 423.735 L-25.688 454.36 L-18.0491 454.36 L-18.0491 458.295 L-37.9564 458.295 L-37.9564 454.36 Z" fill="#000000" fill-rule="evenodd" fill-opacity="1" /><path clip-path="url(#clip120)" d="M 0 0 M-2.97974 426.814 Q-6.59083 426.814 -8.41953 430.379 Q-10.2251 433.92 -10.2251 441.05 Q-10.2251 448.156 -8.41953 451.721 Q-6.59083 455.263 -2.97974 455.263 Q0.654497 455.263 2.46004 451.721 Q4.28874 448.156 4.28874 441.05 Q4.28874 433.92 2.46004 430.379 Q0.654497 426.814 -2.97974 426.814 M-2.97974 423.11 Q2.83041 423.11 5.88595 427.717 Q8.96464 432.3 8.96464 441.05 Q8.96464 449.777 5.88595 454.383 Q2.83041 458.966 -2.97974 458.966 Q-8.7899 458.966 -11.8686 454.383 Q-14.9241 449.777 -14.9241 441.05 Q-14.9241 432.3 -11.8686 427.717 Q-8.7899 423.11 -2.97974 423.11 Z" fill="#000000" fill-rule="evenodd" fill-opacity="1" /><path clip-path="url(#clip120)" d="M 0 0 M24.034 426.814 Q20.4229 426.814 18.5942 430.379 Q16.7887 433.92 16.7887 441.05 Q16.7887 448.156 18.5942 451.721 Q20.4229 455.263 24.034 455.263 Q27.6682 455.263 29.4738 451.721 Q31.3025 448.156 31.3025 441.05 Q31.3025 433.92 29.4738 430.379 Q27.6682 426.814 24.034 426.814 M24.034 423.11 Q29.8442 423.11 32.8997 427.717 Q35.9784 432.3 35.9784 441.05 Q35.9784 449.777 32.8997 454.383 Q29.8442 458.966 24.034 458.966 Q18.2238 458.966 15.1452 454.383 Q12.0896 449.777 12.0896 441.05 Q12.0896 432.3 15.1452 427.717 Q18.2238 423.11 24.034 423.11 Z" fill="#000000" fill-rule="evenodd" fill-opacity="1" /><path clip-path="url(#clip120)" d="M 0 0 M51.0477 426.814 Q47.4367 426.814 45.608 430.379 Q43.8024 433.92 43.8024 441.05 Q43.8024 448.156 45.608 451.721 Q47.4367 455.263 51.0477 455.263 Q54.682 455.263 56.4875 451.721 Q58.3162 448.156 58.3162 441.05 Q58.3162 433.92 56.4875 430.379 Q54.682 426.814 51.0477 426.814 M51.0477 423.11 Q56.8579 423.11 59.9134 427.717 Q62.9921 432.3 62.9921 441.05 Q62.9921 449.777 59.9134 454.383 Q56.8579 458.966 51.0477 458.966 Q45.2376 458.966 42.1589 454.383 Q39.1034 449.777 39.1034 441.05 Q39.1034 432.3 42.1589 427.717 Q45.2376 423.11 51.0477 423.11 Z" fill="#000000" fill-rule="evenodd" fill-opacity="1" /><path clip-path="url(#clip120)" d="M 0 0 M-36.3592 246.703 L-28.7203 246.703 L-28.7203 220.338 L-37.0305 222.005 L-37.0305 217.745 L-28.7666 216.079 L-24.0907 216.079 L-24.0907 246.703 L-16.4519 246.703 L-16.4519 250.639 L-36.3592 250.639 L-36.3592 246.703 Z" fill="#000000" fill-rule="evenodd" fill-opacity="1" /><path clip-path="url(#clip120)" d="M 0 0 M-7.35472 246.703 L8.96464 246.703 L8.96464 250.639 L-12.9797 250.639 L-12.9797 246.703 Q-10.3177 243.949 -5.73436 239.319 Q-1.1279 234.666 0.0526484 233.324 Q2.29801 230.801 3.17763 229.065 Q4.0804 227.305 4.0804 225.616 Q4.0804 222.861 2.13597 221.125 Q0.214685 219.389 -2.88715 219.389 Q-5.08621 219.389 -7.5399 220.153 Q-9.97045 220.917 -12.7482 222.467 L-12.7482 217.745 Q-9.92415 216.611 -7.47046 216.032 Q-5.01677 215.454 -2.97974 215.454 Q2.3906 215.454 5.58503 218.139 Q8.77945 220.824 8.77945 225.315 Q8.77945 227.444 7.96927 229.366 Q7.18224 231.264 5.07577 233.856 Q4.49707 234.528 1.39523 237.745 Q-1.7066 240.94 -7.35472 246.703 Z" fill="#000000" fill-rule="evenodd" fill-opacity="1" /><path clip-path="url(#clip120)" d="M 0 0 M24.034 219.157 Q20.4229 219.157 18.5942 222.722 Q16.7887 226.264 16.7887 233.393 Q16.7887 240.5 18.5942 244.065 Q20.4229 247.606 24.034 247.606 Q27.6682 247.606 29.4738 244.065 Q31.3025 240.5 31.3025 233.393 Q31.3025 226.264 29.4738 222.722 Q27.6682 219.157 24.034 219.157 M24.034 215.454 Q29.8442 215.454 32.8997 220.06 Q35.9784 224.643 35.9784 233.393 Q35.9784 242.12 32.8997 246.727 Q29.8442 251.31 24.034 251.31 Q18.2238 251.31 15.1452 246.727 Q12.0896 242.12 12.0896 233.393 Q12.0896 224.643 15.1452 220.06 Q18.2238 215.454 24.034 215.454 Z" fill="#000000" fill-rule="evenodd" fill-opacity="1" /><path clip-path="url(#clip120)" d="M 0 0 M51.0477 219.157 Q47.4367 219.157 45.608 222.722 Q43.8024 226.264 43.8024 233.393 Q43.8024 240.5 45.608 244.065 Q47.4367 247.606 51.0477 247.606 Q54.682 247.606 56.4875 244.065 Q58.3162 240.5 58.3162 233.393 Q58.3162 226.264 56.4875 222.722 Q54.682 219.157 51.0477 219.157 M51.0477 215.454 Q56.8579 215.454 59.9134 220.06 Q62.9921 224.643 62.9921 233.393 Q62.9921 242.12 59.9134 246.727 Q56.8579 251.31 51.0477 251.31 Q45.2376 251.31 42.1589 246.727 Q39.1034 242.12 39.1034 233.393 Q39.1034 224.643 42.1589 220.06 Q45.2376 215.454 51.0477 215.454 Z" fill="#000000" fill-rule="evenodd" fill-opacity="1" /><path clip-path="url(#clip122)" d="
M151.118 1466.82 L154.574 1465.94 L158.03 1465.01 L161.487 1464.03 L164.943 1462.99 L168.4 1461.89 L171.856 1460.72 L175.313 1459.49 L178.769 1458.18 L182.226 1456.8 
  L185.682 1455.33 L189.139 1453.78 L192.595 1452.14 L196.051 1450.41 L199.508 1448.58 L202.964 1446.65 L206.421 1444.62 L209.877 1442.48 L213.334 1440.23 L216.79 1437.87 
  L220.247 1435.39 L223.703 1432.8 L227.16 1430.08 L230.616 1427.25 L234.072 1424.3 L237.529 1421.23 L240.985 1418.03 L244.442 1414.73 L247.898 1411.3 L251.355 1407.77 
  L254.811 1404.13 L258.268 1400.38 L261.724 1396.54 L265.181 1392.6 L268.637 1388.58 L272.093 1384.49 L275.55 1380.33 L279.006 1376.11 L282.463 1371.83 L285.919 1367.53 
  L289.376 1363.19 L292.832 1358.83 L296.289 1354.47 L299.745 1350.11 L303.202 1345.76 L306.658 1341.44 L310.114 1337.14 L313.571 1332.9 L317.027 1328.7 L320.484 1324.56 
  L323.94 1320.48 L327.397 1316.48 L330.853 1312.56 L334.31 1308.72 L337.766 1304.96 L341.223 1301.3 L344.679 1297.73 L348.135 1294.26 L351.592 1290.89 L355.048 1287.62 
  L358.505 1284.46 L361.961 1281.41 L365.418 1278.46 L368.874 1275.63 L372.331 1272.91 L375.787 1270.3 L379.244 1267.82 L382.7 1265.45 L386.156 1263.2 L389.613 1261.08 
  L393.069 1259.08 L396.526 1257.21 L399.982 1255.47 L403.439 1253.85 L406.895 1252.35 L410.352 1250.98 L413.808 1249.73 L417.265 1248.61 L420.721 1247.59 L424.177 1246.69 
  L427.634 1245.9 L431.09 1245.2 L434.547 1244.59 L438.003 1244.07 L441.46 1243.61 L444.916 1243.22 L448.373 1242.88 L451.829 1242.57 L455.286 1242.28 L458.742 1242 
  L462.198 1241.72 L465.655 1241.41 L469.111 1241.06 L472.568 1240.65 L476.024 1240.16 L479.481 1239.58 L482.937 1238.89 L486.394 1238.07 L489.85 1237.09 L493.307 1235.95 
  L493.307 1479.3 L489.85 1479.3 L486.394 1479.3 L482.937 1479.3 L479.481 1479.3 L476.024 1479.3 L472.568 1479.3 L469.111 1479.3 L465.655 1479.3 L462.198 1479.3 
  L458.742 1479.3 L455.286 1479.3 L451.829 1479.3 L448.373 1479.3 L444.916 1479.3 L441.46 1479.3 L438.003 1479.3 L434.547 1479.3 L431.09 1479.3 L427.634 1479.3 
  L424.177 1479.3 L420.721 1479.3 L417.265 1479.3 L413.808 1479.3 L410.352 1479.3 L406.895 1479.3 L403.439 1479.3 L399.982 1479.3 L396.526 1479.3 L393.069 1479.3 
  L389.613 1479.3 L386.156 1479.3 L382.7 1479.3 L379.244 1479.3 L375.787 1479.3 L372.331 1479.3 L368.874 1479.3 L365.418 1479.3 L361.961 1479.3 L358.505 1479.3 
  L355.048 1479.3 L351.592 1479.3 L348.135 1479.3 L344.679 1479.3 L341.223 1479.3 L337.766 1479.3 L334.31 1479.3 L330.853 1479.3 L327.397 1479.3 L323.94 1479.3 
  L320.484 1479.3 L317.027 1479.3 L313.571 1479.3 L310.114 1479.3 L306.658 1479.3 L303.202 1479.3 L299.745 1479.3 L296.289 1479.3 L292.832 1479.3 L289.376 1479.3 
  L285.919 1479.3 L282.463 1479.3 L279.006 1479.3 L275.55 1479.3 L272.093 1479.3 L268.637 1479.3 L265.181 1479.3 L261.724 1479.3 L258.268 1479.3 L254.811 1479.3 
  L251.355 1479.3 L247.898 1479.3 L244.442 1479.3 L240.985 1479.3 L237.529 1479.3 L234.072 1479.3 L230.616 1479.3 L227.16 1479.3 L223.703 1479.3 L220.247 1479.3 
  L216.79 1479.3 L213.334 1479.3 L209.877 1479.3 L206.421 1479.3 L202.964 1479.3 L199.508 1479.3 L196.051 1479.3 L192.595 1479.3 L189.139 1479.3 L185.682 1479.3 
  L182.226 1479.3 L178.769 1479.3 L175.313 1479.3 L171.856 1479.3 L168.4 1479.3 L164.943 1479.3 L161.487 1479.3 L158.03 1479.3 L154.574 1479.3 L151.118 1479.3 
   Z
  " fill="#ffa500" fill-rule="evenodd" fill-opacity="0.5"/>
<polyline clip-path="url(#clip122)" style="stroke:#ffa500; stroke-width:4; stroke-opacity:1; fill:none" points="
  151.118,1466.82 154.574,1465.94 158.03,1465.01 161.487,1464.03 164.943,1462.99 168.4,1461.89 171.856,1460.72 175.313,1459.49 178.769,1458.18 182.226,1456.8 
  185.682,1455.33 189.139,1453.78 192.595,1452.14 196.051,1450.41 199.508,1448.58 202.964,1446.65 206.421,1444.62 209.877,1442.48 213.334,1440.23 216.79,1437.87 
  220.247,1435.39 223.703,1432.8 227.16,1430.08 230.616,1427.25 234.072,1424.3 237.529,1421.23 240.985,1418.03 244.442,1414.73 247.898,1411.3 251.355,1407.77 
  254.811,1404.13 258.268,1400.38 261.724,1396.54 265.181,1392.6 268.637,1388.58 272.093,1384.49 275.55,1380.33 279.006,1376.11 282.463,1371.83 285.919,1367.53 
  289.376,1363.19 292.832,1358.83 296.289,1354.47 299.745,1350.11 303.202,1345.76 306.658,1341.44 310.114,1337.14 313.571,1332.9 317.027,1328.7 320.484,1324.56 
  323.94,1320.48 327.397,1316.48 330.853,1312.56 334.31,1308.72 337.766,1304.96 341.223,1301.3 344.679,1297.73 348.135,1294.26 351.592,1290.89 355.048,1287.62 
  358.505,1284.46 361.961,1281.41 365.418,1278.46 368.874,1275.63 372.331,1272.91 375.787,1270.3 379.244,1267.82 382.7,1265.45 386.156,1263.2 389.613,1261.08 
  393.069,1259.08 396.526,1257.21 399.982,1255.47 403.439,1253.85 406.895,1252.35 410.352,1250.98 413.808,1249.73 417.265,1248.61 420.721,1247.59 424.177,1246.69 
  427.634,1245.9 431.09,1245.2 434.547,1244.59 438.003,1244.07 441.46,1243.61 444.916,1243.22 448.373,1242.88 451.829,1242.57 455.286,1242.28 458.742,1242 
  462.198,1241.72 465.655,1241.41 469.111,1241.06 472.568,1240.65 476.024,1240.16 479.481,1239.58 482.937,1238.89 486.394,1238.07 489.85,1237.09 493.307,1235.95 
  
  "/>
<path clip-path="url(#clip122)" d="
M493.307 1235.95 L506.338 1229.85 L519.37 1220.38 L532.402 1207.14 L545.433 1190.31 L558.465 1170.69 L571.497 1149.66 L584.528 1128.99 L597.56 1110.54 L610.592 1095.97 
  L623.623 1086.44 L636.655 1082.49 L649.687 1083.94 L662.718 1089.91 L675.75 1098.9 L688.782 1108.93 L701.813 1117.73 L714.845 1123.09 L727.877 1123.19 L740.908 1117.11 
  L753.94 1105.08 L766.972 1088.57 L780.003 1070.02 L793.035 1052.22 L806.067 1037.61 L819.098 1027.62 L832.13 1022.41 L845.162 1020.98 L858.193 1021.66 L871.225 1022.68 
  L884.257 1022.73 L897.288 1021.09 L910.32 1017.61 L923.352 1012.46 L936.384 1005.76 L949.415 997.455 L962.447 987.244 L975.479 974.679 L988.51 959.288 L1001.54 940.672 
  L1014.57 918.548 L1027.61 892.797 L1040.64 863.538 L1053.67 831.242 L1066.7 796.81 L1079.73 761.532 L1092.76 726.904 L1105.8 694.308 L1118.83 664.677 L1131.86 638.25 
  L1144.89 614.491 L1157.92 592.218 L1170.95 569.88 L1183.99 545.946 L1197.02 519.315 L1210.05 489.649 L1223.08 457.522 L1236.11 424.31 L1249.14 391.789 L1262.18 361.561 
  L1275.21 334.465 L1288.24 310.23 L1301.27 287.515 L1314.3 264.365 L1327.33 238.964 L1340.37 210.431 L1353.4 179.384 L1366.43 148.072 L1379.46 120 L1392.49 99.1366 
  L1405.52 88.9544 L1418.56 91.5994 L1431.59 107.454 L1444.62 135.212 L1457.65 172.393 L1470.68 216.093 L1483.71 263.685 L1496.75 313.276 L1509.78 363.827 L1522.81 414.972 
  L1535.84 466.66 L1548.87 518.779 L1561.9 570.873 L1574.94 622.044 L1587.97 671.033 L1601 716.435 L1614.03 756.985 L1627.06 791.831 L1640.09 820.763 L1653.13 844.367 
  L1666.16 864.074 L1679.19 882.046 L1692.22 900.872 L1705.25 923.071 L1718.28 950.53 L1731.32 984.028 L1744.35 1023.03 L1757.38 1065.85 L1770.41 1110.05 L1783.44 1153.03 
  L1783.44 1479.3 L1770.41 1479.3 L1757.38 1479.3 L1744.35 1479.3 L1731.32 1479.3 L1718.28 1479.3 L1705.25 1479.3 L1692.22 1479.3 L1679.19 1479.3 L1666.16 1479.3 
  L1653.13 1479.3 L1640.09 1479.3 L1627.06 1479.3 L1614.03 1479.3 L1601 1479.3 L1587.97 1479.3 L1574.94 1479.3 L1561.9 1479.3 L1548.87 1479.3 L1535.84 1479.3 
  L1522.81 1479.3 L1509.78 1479.3 L1496.75 1479.3 L1483.71 1479.3 L1470.68 1479.3 L1457.65 1479.3 L1444.62 1479.3 L1431.59 1479.3 L1418.56 1479.3 L1405.52 1479.3 
  L1392.49 1479.3 L1379.46 1479.3 L1366.43 1479.3 L1353.4 1479.3 L1340.37 1479.3 L1327.33 1479.3 L1314.3 1479.3 L1301.27 1479.3 L1288.24 1479.3 L1275.21 1479.3 
  L1262.18 1479.3 L1249.14 1479.3 L1236.11 1479.3 L1223.08 1479.3 L1210.05 1479.3 L1197.02 1479.3 L1183.99 1479.3 L1170.95 1479.3 L1157.92 1479.3 L1144.89 1479.3 
  L1131.86 1479.3 L1118.83 1479.3 L1105.8 1479.3 L1092.76 1479.3 L1079.73 1479.3 L1066.7 1479.3 L1053.67 1479.3 L1040.64 1479.3 L1027.61 1479.3 L1014.57 1479.3 
  L1001.54 1479.3 L988.51 1479.3 L975.479 1479.3 L962.447 1479.3 L949.415 1479.3 L936.384 1479.3 L923.352 1479.3 L910.32 1479.3 L897.288 1479.3 L884.257 1479.3 
  L871.225 1479.3 L858.193 1479.3 L845.162 1479.3 L832.13 1479.3 L819.098 1479.3 L806.067 1479.3 L793.035 1479.3 L780.003 1479.3 L766.972 1479.3 L753.94 1479.3 
  L740.908 1479.3 L727.877 1479.3 L714.845 1479.3 L701.813 1479.3 L688.782 1479.3 L675.75 1479.3 L662.718 1479.3 L649.687 1479.3 L636.655 1479.3 L623.623 1479.3 
  L610.592 1479.3 L597.56 1479.3 L584.528 1479.3 L571.497 1479.3 L558.465 1479.3 L545.433 1479.3 L532.402 1479.3 L519.37 1479.3 L506.338 1479.3 L493.307 1479.3 
   Z
  " fill="#008000" fill-rule="evenodd" fill-opacity="0.5"/>
<polyline clip-path="url(#clip122)" style="stroke:#008000; stroke-width:4; stroke-opacity:1; fill:none" points="
  493.307,1235.95 506.338,1229.85 519.37,1220.38 532.402,1207.14 545.433,1190.31 558.465,1170.69 571.497,1149.66 584.528,1128.99 597.56,1110.54 610.592,1095.97 
  623.623,1086.44 636.655,1082.49 649.687,1083.94 662.718,1089.91 675.75,1098.9 688.782,1108.93 701.813,1117.73 714.845,1123.09 727.877,1123.19 740.908,1117.11 
  753.94,1105.08 766.972,1088.57 780.003,1070.02 793.035,1052.22 806.067,1037.61 819.098,1027.62 832.13,1022.41 845.162,1020.98 858.193,1021.66 871.225,1022.68 
  884.257,1022.73 897.288,1021.09 910.32,1017.61 923.352,1012.46 936.384,1005.76 949.415,997.455 962.447,987.244 975.479,974.679 988.51,959.288 1001.54,940.672 
  1014.57,918.548 1027.61,892.797 1040.64,863.538 1053.67,831.242 1066.7,796.81 1079.73,761.532 1092.76,726.904 1105.8,694.308 1118.83,664.677 1131.86,638.25 
  1144.89,614.491 1157.92,592.218 1170.95,569.88 1183.99,545.946 1197.02,519.315 1210.05,489.649 1223.08,457.522 1236.11,424.31 1249.14,391.789 1262.18,361.561 
  1275.21,334.465 1288.24,310.23 1301.27,287.515 1314.3,264.365 1327.33,238.964 1340.37,210.431 1353.4,179.384 1366.43,148.072 1379.46,120 1392.49,99.1366 
  1405.52,88.9544 1418.56,91.5994 1431.59,107.454 1444.62,135.212 1457.65,172.393 1470.68,216.093 1483.71,263.685 1496.75,313.276 1509.78,363.827 1522.81,414.972 
  1535.84,466.66 1548.87,518.779 1561.9,570.873 1574.94,622.044 1587.97,671.033 1601,716.435 1614.03,756.985 1627.06,791.831 1640.09,820.763 1653.13,844.367 
  1666.16,864.074 1679.19,882.046 1692.22,900.872 1705.25,923.071 1718.28,950.53 1731.32,984.028 1744.35,1023.03 1757.38,1065.85 1770.41,1110.05 1783.44,1153.03 
  
  "/>
<path clip-path="url(#clip122)" d="
M1783.44 1153.03 L1788.55 1169.03 L1793.65 1184.38 L1798.75 1199 L1803.85 1212.83 L1808.96 1225.8 L1814.06 1237.9 L1819.16 1249.11 L1824.27 1259.44 L1829.37 1268.91 
  L1834.47 1277.56 L1839.57 1285.44 L1844.68 1292.6 L1849.78 1299.11 L1854.88 1305.03 L1859.99 1310.45 L1865.09 1315.43 L1870.19 1320.05 L1875.29 1324.37 L1880.4 1328.47 
  L1885.5 1332.41 L1890.6 1336.23 L1895.71 1339.99 L1900.81 1343.73 L1905.91 1347.46 L1911.02 1351.22 L1916.12 1355.02 L1921.22 1358.85 L1926.32 1362.71 L1931.43 1366.59 
  L1936.53 1370.47 L1941.63 1374.34 L1946.74 1378.16 L1951.84 1381.92 L1956.94 1385.59 L1962.04 1389.14 L1967.15 1392.54 L1972.25 1395.79 L1977.35 1398.85 L1982.46 1401.72 
  L1987.56 1404.38 L1992.66 1406.84 L1997.76 1409.08 L2002.87 1411.11 L2007.97 1412.94 L2013.07 1414.56 L2018.18 1416.01 L2023.28 1417.28 L2028.38 1418.4 L2033.49 1419.37 
  L2038.59 1420.22 L2043.69 1420.96 L2048.79 1421.6 L2053.9 1422.16 L2059 1422.64 L2064.1 1423.06 L2069.21 1423.41 L2074.31 1423.7 L2079.41 1423.93 L2084.51 1424.09 
  L2089.62 1424.17 L2094.72 1424.16 L2099.82 1424.07 L2104.93 1423.86 L2110.03 1423.55 L2115.13 1423.12 L2120.23 1422.57 L2125.34 1421.9 L2130.44 1421.11 L2135.54 1420.21 
  L2140.65 1419.23 L2145.75 1418.17 L2150.85 1417.06 L2155.95 1415.92 L2161.06 1414.79 L2166.16 1413.69 L2171.26 1412.65 L2176.37 1411.71 L2181.47 1410.9 L2186.57 1410.23 
  L2191.68 1409.73 L2196.78 1409.42 L2201.88 1409.32 L2206.98 1409.43 L2212.09 1409.75 L2217.19 1410.3 L2222.29 1411.07 L2227.4 1412.05 L2232.5 1413.24 L2237.6 1414.63 
  L2242.7 1416.21 L2247.81 1417.97 L2252.91 1419.89 L2258.01 1421.96 L2263.12 1424.17 L2268.22 1426.51 L2273.32 1428.96 L2278.42 1431.5 L2283.53 1434.12 L2288.63 1436.81 
  L2288.63 1479.3 L2283.53 1479.3 L2278.42 1479.3 L2273.32 1479.3 L2268.22 1479.3 L2263.12 1479.3 L2258.01 1479.3 L2252.91 1479.3 L2247.81 1479.3 L2242.7 1479.3 
  L2237.6 1479.3 L2232.5 1479.3 L2227.4 1479.3 L2222.29 1479.3 L2217.19 1479.3 L2212.09 1479.3 L2206.98 1479.3 L2201.88 1479.3 L2196.78 1479.3 L2191.68 1479.3 
  L2186.57 1479.3 L2181.47 1479.3 L2176.37 1479.3 L2171.26 1479.3 L2166.16 1479.3 L2161.06 1479.3 L2155.95 1479.3 L2150.85 1479.3 L2145.75 1479.3 L2140.65 1479.3 
  L2135.54 1479.3 L2130.44 1479.3 L2125.34 1479.3 L2120.23 1479.3 L2115.13 1479.3 L2110.03 1479.3 L2104.93 1479.3 L2099.82 1479.3 L2094.72 1479.3 L2089.62 1479.3 
  L2084.51 1479.3 L2079.41 1479.3 L2074.31 1479.3 L2069.21 1479.3 L2064.1 1479.3 L2059 1479.3 L2053.9 1479.3 L2048.79 1479.3 L2043.69 1479.3 L2038.59 1479.3 
  L2033.49 1479.3 L2028.38 1479.3 L2023.28 1479.3 L2018.18 1479.3 L2013.07 1479.3 L2007.97 1479.3 L2002.87 1479.3 L1997.76 1479.3 L1992.66 1479.3 L1987.56 1479.3 
  L1982.46 1479.3 L1977.35 1479.3 L1972.25 1479.3 L1967.15 1479.3 L1962.04 1479.3 L1956.94 1479.3 L1951.84 1479.3 L1946.74 1479.3 L1941.63 1479.3 L1936.53 1479.3 
  L1931.43 1479.3 L1926.32 1479.3 L1921.22 1479.3 L1916.12 1479.3 L1911.02 1479.3 L1905.91 1479.3 L1900.81 1479.3 L1895.71 1479.3 L1890.6 1479.3 L1885.5 1479.3 
  L1880.4 1479.3 L1875.29 1479.3 L1870.19 1479.3 L1865.09 1479.3 L1859.99 1479.3 L1854.88 1479.3 L1849.78 1479.3 L1844.68 1479.3 L1839.57 1479.3 L1834.47 1479.3 
  L1829.37 1479.3 L1824.27 1479.3 L1819.16 1479.3 L1814.06 1479.3 L1808.96 1479.3 L1803.85 1479.3 L1798.75 1479.3 L1793.65 1479.3 L1788.55 1479.3 L1783.44 1479.3 
   Z
  " fill="#ffa500" fill-rule="evenodd" fill-opacity="0.5"/>
<polyline clip-path="url(#clip122)" style="stroke:#ffa500; stroke-width:4; stroke-opacity:1; fill:none" points="
  1783.44,1153.03 1788.55,1169.03 1793.65,1184.38 1798.75,1199 1803.85,1212.83 1808.96,1225.8 1814.06,1237.9 1819.16,1249.11 1824.27,1259.44 1829.37,1268.91 
  1834.47,1277.56 1839.57,1285.44 1844.68,1292.6 1849.78,1299.11 1854.88,1305.03 1859.99,1310.45 1865.09,1315.43 1870.19,1320.05 1875.29,1324.37 1880.4,1328.47 
  1885.5,1332.41 1890.6,1336.23 1895.71,1339.99 1900.81,1343.73 1905.91,1347.46 1911.02,1351.22 1916.12,1355.02 1921.22,1358.85 1926.32,1362.71 1931.43,1366.59 
  1936.53,1370.47 1941.63,1374.34 1946.74,1378.16 1951.84,1381.92 1956.94,1385.59 1962.04,1389.14 1967.15,1392.54 1972.25,1395.79 1977.35,1398.85 1982.46,1401.72 
  1987.56,1404.38 1992.66,1406.84 1997.76,1409.08 2002.87,1411.11 2007.97,1412.94 2013.07,1414.56 2018.18,1416.01 2023.28,1417.28 2028.38,1418.4 2033.49,1419.37 
  2038.59,1420.22 2043.69,1420.96 2048.79,1421.6 2053.9,1422.16 2059,1422.64 2064.1,1423.06 2069.21,1423.41 2074.31,1423.7 2079.41,1423.93 2084.51,1424.09 
  2089.62,1424.17 2094.72,1424.16 2099.82,1424.07 2104.93,1423.86 2110.03,1423.55 2115.13,1423.12 2120.23,1422.57 2125.34,1421.9 2130.44,1421.11 2135.54,1420.21 
  2140.65,1419.23 2145.75,1418.17 2150.85,1417.06 2155.95,1415.92 2161.06,1414.79 2166.16,1413.69 2171.26,1412.65 2176.37,1411.71 2181.47,1410.9 2186.57,1410.23 
  2191.68,1409.73 2196.78,1409.42 2201.88,1409.32 2206.98,1409.43 2212.09,1409.75 2217.19,1410.3 2222.29,1411.07 2227.4,1412.05 2232.5,1413.24 2237.6,1414.63 
  2242.7,1416.21 2247.81,1417.97 2252.91,1419.89 2258.01,1421.96 2263.12,1424.17 2268.22,1426.51 2273.32,1428.96 2278.42,1431.5 2283.53,1434.12 2288.63,1436.81 
  
  "/>
<polyline clip-path="url(#clip122)" style="stroke:#0000ff; stroke-width:4; stroke-opacity:1; fill:none" points="
  1239.83,1479.3 1239.83,414.886 
  "/>
<polyline clip-path="url(#clip122)" style="stroke:#000000; stroke-width:4; stroke-opacity:1; fill:none" points="
  1299.9,1479.3 1299.9,289.887 
  "/>
<path clip-path="url(#clip120)" d="
M1494.58 459.25 L2277.23 459.25 L2277.23 96.3696 L1494.58 96.3696  Z
  " fill="#ffffff" fill-rule="evenodd" fill-opacity="1"/>
<polyline clip-path="url(#clip120)" style="stroke:#000000; stroke-width:4; stroke-opacity:1; fill:none" points="
  1494.58,459.25 2277.23,459.25 2277.23,96.3696 1494.58,96.3696 1494.58,459.25 
  "/>
<path clip-path="url(#clip120)" d="
M1519.75 181.042 L1670.81 181.042 L1670.81 132.658 L1519.75 132.658 L1519.75 181.042  Z
  " fill="#ffa500" fill-rule="evenodd" fill-opacity="0.5"/>
<polyline clip-path="url(#clip120)" style="stroke:#ffa500; stroke-width:4; stroke-opacity:1; fill:none" points="
  1519.75,132.658 1670.81,132.658 
  "/>
<path clip-path="url(#clip120)" d="M 0 0 M1700.38 161.19 Q1700.38 165.889 1702.3 168.574 Q1704.24 171.236 1707.62 171.236 Q1711 171.236 1712.95 168.574 Q1714.89 165.889 1714.89 161.19 Q1714.89 156.491 1712.95 153.829 Q1711 151.144 1707.62 151.144 Q1704.24 151.144 1702.3 153.829 Q1700.38 156.491 1700.38 161.19 M1714.89 170.241 Q1713.55 172.555 1711.49 173.69 Q1709.45 174.801 1706.58 174.801 Q1701.88 174.801 1698.92 171.051 Q1695.98 167.301 1695.98 161.19 Q1695.98 155.079 1698.92 151.329 Q1701.88 147.579 1706.58 147.579 Q1709.45 147.579 1711.49 148.713 Q1713.55 149.824 1714.89 152.139 L1714.89 148.204 L1719.15 148.204 L1719.15 183.991 L1714.89 183.991 L1714.89 170.241 Z" fill="#000000" fill-rule="evenodd" fill-opacity="1" /><path clip-path="url(#clip120)" d="M 0 0 M1734.22 142.648 Q1730.61 142.648 1728.78 146.213 Q1726.98 149.755 1726.98 156.884 Q1726.98 163.991 1728.78 167.556 Q1730.61 171.097 1734.22 171.097 Q1737.85 171.097 1739.66 167.556 Q1741.49 163.991 1741.49 156.884 Q1741.49 149.755 1739.66 146.213 Q1737.85 142.648 1734.22 142.648 M1734.22 138.945 Q1740.03 138.945 1743.09 143.551 Q1746.17 148.134 1746.17 156.884 Q1746.17 165.611 1743.09 170.218 Q1740.03 174.801 1734.22 174.801 Q1728.41 174.801 1725.33 170.218 Q1722.28 165.611 1722.28 156.884 Q1722.28 148.134 1725.33 143.551 Q1728.41 138.945 1734.22 138.945 Z" fill="#000000" fill-rule="evenodd" fill-opacity="1" /><path clip-path="url(#clip120)" d="M 0 0 M1751.28 139.57 L1769.64 139.57 L1769.64 143.505 L1755.56 143.505 L1755.56 151.977 Q1756.58 151.63 1757.6 151.468 Q1758.62 151.282 1759.64 151.282 Q1765.42 151.282 1768.8 154.454 Q1772.18 157.625 1772.18 163.042 Q1772.18 168.62 1768.71 171.722 Q1765.24 174.801 1758.92 174.801 Q1756.74 174.801 1754.48 174.43 Q1752.23 174.06 1749.82 173.319 L1749.82 168.62 Q1751.91 169.755 1754.13 170.31 Q1756.35 170.866 1758.83 170.866 Q1762.83 170.866 1765.17 168.759 Q1767.51 166.653 1767.51 163.042 Q1767.51 159.431 1765.17 157.324 Q1762.83 155.218 1758.83 155.218 Q1756.95 155.218 1755.08 155.634 Q1753.23 156.051 1751.28 156.931 L1751.28 139.57 Z" fill="#000000" fill-rule="evenodd" fill-opacity="1" /><path clip-path="url(#clip120)" d="
M1519.75 241.522 L1670.81 241.522 L1670.81 193.138 L1519.75 193.138 L1519.75 241.522  Z
  " fill="#008000" fill-rule="evenodd" fill-opacity="0.5"/>
<polyline clip-path="url(#clip120)" style="stroke:#008000; stroke-width:4; stroke-opacity:1; fill:none" points="
  1519.75,193.138 1670.81,193.138 
  "/>
<path clip-path="url(#clip120)" d="M 0 0 M1698.2 233.892 L1698.2 229.633 Q1699.96 230.466 1701.77 230.906 Q1703.57 231.346 1705.31 231.346 Q1709.94 231.346 1712.37 228.244 Q1714.82 225.119 1715.17 218.776 Q1713.83 220.767 1711.77 221.832 Q1709.71 222.897 1707.21 222.897 Q1702.02 222.897 1698.99 219.772 Q1695.98 216.624 1695.98 211.184 Q1695.98 205.86 1699.13 202.642 Q1702.28 199.425 1707.51 199.425 Q1713.5 199.425 1716.65 204.031 Q1719.82 208.614 1719.82 217.364 Q1719.82 225.536 1715.93 230.42 Q1712.07 235.281 1705.52 235.281 Q1703.76 235.281 1701.95 234.934 Q1700.15 234.586 1698.2 233.892 M1707.51 219.239 Q1710.66 219.239 1712.48 217.086 Q1714.34 214.934 1714.34 211.184 Q1714.34 207.457 1712.48 205.304 Q1710.66 203.128 1707.51 203.128 Q1704.36 203.128 1702.51 205.304 Q1700.68 207.457 1700.68 211.184 Q1700.68 214.934 1702.51 217.086 Q1704.36 219.239 1707.51 219.239 Z" fill="#000000" fill-rule="evenodd" fill-opacity="1" /><path clip-path="url(#clip120)" d="M 0 0 M1734.89 203.128 Q1731.28 203.128 1729.45 206.693 Q1727.65 210.235 1727.65 217.364 Q1727.65 224.471 1729.45 228.036 Q1731.28 231.577 1734.89 231.577 Q1738.53 231.577 1740.33 228.036 Q1742.16 224.471 1742.16 217.364 Q1742.16 210.235 1740.33 206.693 Q1738.53 203.128 1734.89 203.128 M1734.89 199.425 Q1740.7 199.425 1743.76 204.031 Q1746.84 208.614 1746.84 217.364 Q1746.84 226.091 1743.76 230.698 Q1740.7 235.281 1734.89 235.281 Q1729.08 235.281 1726 230.698 Q1722.95 226.091 1722.95 217.364 Q1722.95 208.614 1726 204.031 Q1729.08 199.425 1734.89 199.425 Z" fill="#000000" fill-rule="evenodd" fill-opacity="1" /><path clip-path="url(#clip120)" d="M 0 0 M1781.3 219.401 Q1779.29 219.401 1778.13 221.114 Q1777 222.827 1777 225.883 Q1777 228.892 1778.13 230.628 Q1779.29 232.341 1781.3 232.341 Q1783.27 232.341 1784.41 230.628 Q1785.56 228.892 1785.56 225.883 Q1785.56 222.85 1784.41 221.137 Q1783.27 219.401 1781.3 219.401 M1781.3 216.462 Q1784.96 216.462 1787.11 219.008 Q1789.27 221.554 1789.27 225.883 Q1789.27 230.211 1787.09 232.758 Q1784.94 235.281 1781.3 235.281 Q1777.6 235.281 1775.45 232.758 Q1773.29 230.211 1773.29 225.883 Q1773.29 221.531 1775.45 219.008 Q1777.62 216.462 1781.3 216.462 M1757.42 202.364 Q1755.42 202.364 1754.27 204.1 Q1753.13 205.813 1753.13 208.823 Q1753.13 211.878 1754.27 213.591 Q1755.4 215.304 1757.42 215.304 Q1759.43 215.304 1760.56 213.591 Q1761.72 211.878 1761.72 208.823 Q1761.72 205.837 1760.56 204.1 Q1759.41 202.364 1757.42 202.364 M1778.32 199.425 L1782.02 199.425 L1760.4 235.281 L1756.7 235.281 L1778.32 199.425 M1757.42 199.425 Q1761.07 199.425 1763.25 201.971 Q1765.42 204.494 1765.42 208.823 Q1765.42 213.198 1763.25 215.721 Q1761.1 218.244 1757.42 218.244 Q1753.73 218.244 1751.58 215.721 Q1749.45 213.174 1749.45 208.823 Q1749.45 204.517 1751.6 201.971 Q1753.76 199.425 1757.42 199.425 Z" fill="#000000" fill-rule="evenodd" fill-opacity="1" /><path clip-path="url(#clip120)" d="M 0 0 M1830.35 218.961 L1830.35 234.61 L1826.1 234.61 L1826.1 219.1 Q1826.1 215.42 1824.66 213.591 Q1823.22 211.762 1820.35 211.762 Q1816.91 211.762 1814.91 213.962 Q1812.92 216.161 1812.92 219.957 L1812.92 234.61 L1808.64 234.61 L1808.64 208.684 L1812.92 208.684 L1812.92 212.712 Q1814.45 210.374 1816.51 209.216 Q1818.6 208.059 1821.3 208.059 Q1825.77 208.059 1828.06 210.837 Q1830.35 213.591 1830.35 218.961 Z" fill="#000000" fill-rule="evenodd" fill-opacity="1" /><path clip-path="url(#clip120)" d="M 0 0 M1844.87 211.67 Q1841.44 211.67 1839.45 214.355 Q1837.46 217.017 1837.46 221.67 Q1837.46 226.323 1839.43 229.008 Q1841.42 231.67 1844.87 231.67 Q1848.27 231.67 1850.26 228.985 Q1852.25 226.299 1852.25 221.67 Q1852.25 217.063 1850.26 214.378 Q1848.27 211.67 1844.87 211.67 M1844.87 208.059 Q1850.42 208.059 1853.6 211.67 Q1856.77 215.281 1856.77 221.67 Q1856.77 228.036 1853.6 231.67 Q1850.42 235.281 1844.87 235.281 Q1839.29 235.281 1836.12 231.67 Q1832.97 228.036 1832.97 221.67 Q1832.97 215.281 1836.12 211.67 Q1839.29 208.059 1844.87 208.059 Z" fill="#000000" fill-rule="evenodd" fill-opacity="1" /><path clip-path="url(#clip120)" d="M 0 0 M1882.78 218.961 L1882.78 234.61 L1878.53 234.61 L1878.53 219.1 Q1878.53 215.42 1877.09 213.591 Q1875.66 211.762 1872.78 211.762 Q1869.34 211.762 1867.35 213.962 Q1865.35 216.161 1865.35 219.957 L1865.35 234.61 L1861.07 234.61 L1861.07 208.684 L1865.35 208.684 L1865.35 212.712 Q1866.88 210.374 1868.94 209.216 Q1871.03 208.059 1873.73 208.059 Q1878.2 208.059 1880.49 210.837 Q1882.78 213.591 1882.78 218.961 Z" fill="#000000" fill-rule="evenodd" fill-opacity="1" /><path clip-path="url(#clip120)" d="M 0 0 M1885.1 219.725 L1897.58 219.725 L1897.58 223.522 L1885.1 223.522 L1885.1 219.725 Z" fill="#000000" fill-rule="evenodd" fill-opacity="1" /><path clip-path="url(#clip120)" d="M 0 0 M1917.07 212.665 Q1916.35 212.249 1915.49 212.063 Q1914.66 211.855 1913.64 211.855 Q1910.03 211.855 1908.09 214.216 Q1906.16 216.554 1906.16 220.952 L1906.16 234.61 L1901.88 234.61 L1901.88 208.684 L1906.16 208.684 L1906.16 212.712 Q1907.51 210.35 1909.66 209.216 Q1911.81 208.059 1914.89 208.059 Q1915.33 208.059 1915.86 208.128 Q1916.4 208.175 1917.04 208.29 L1917.07 212.665 Z" fill="#000000" fill-rule="evenodd" fill-opacity="1" /><path clip-path="url(#clip120)" d="M 0 0 M1942.67 220.582 L1942.67 222.665 L1923.09 222.665 Q1923.36 227.063 1925.72 229.378 Q1928.11 231.67 1932.34 231.67 Q1934.8 231.67 1937.09 231.068 Q1939.4 230.466 1941.67 229.262 L1941.67 233.29 Q1939.38 234.262 1936.97 234.772 Q1934.57 235.281 1932.09 235.281 Q1925.89 235.281 1922.25 231.67 Q1918.64 228.059 1918.64 221.901 Q1918.64 215.536 1922.07 211.809 Q1925.52 208.059 1931.35 208.059 Q1936.58 208.059 1939.61 211.438 Q1942.67 214.795 1942.67 220.582 M1938.41 219.332 Q1938.36 215.837 1936.44 213.753 Q1934.54 211.67 1931.4 211.67 Q1927.83 211.67 1925.68 213.684 Q1923.55 215.698 1923.22 219.355 L1938.41 219.332 Z" fill="#000000" fill-rule="evenodd" fill-opacity="1" /><path clip-path="url(#clip120)" d="M 0 0 M1947.14 208.684 L1951.4 208.684 L1951.4 235.073 Q1951.4 240.026 1949.5 242.248 Q1947.62 244.471 1943.43 244.471 L1941.81 244.471 L1941.81 240.86 L1942.95 240.86 Q1945.38 240.86 1946.26 239.725 Q1947.14 238.614 1947.14 235.073 L1947.14 208.684 M1947.14 198.591 L1951.4 198.591 L1951.4 203.985 L1947.14 203.985 L1947.14 198.591 Z" fill="#000000" fill-rule="evenodd" fill-opacity="1" /><path clip-path="url(#clip120)" d="M 0 0 M1978.04 220.582 L1978.04 222.665 L1958.46 222.665 Q1958.73 227.063 1961.09 229.378 Q1963.48 231.67 1967.71 231.67 Q1970.17 231.67 1972.46 231.068 Q1974.78 230.466 1977.04 229.262 L1977.04 233.29 Q1974.75 234.262 1972.34 234.772 Q1969.94 235.281 1967.46 235.281 Q1961.26 235.281 1957.62 231.67 Q1954.01 228.059 1954.01 221.901 Q1954.01 215.536 1957.44 211.809 Q1960.89 208.059 1966.72 208.059 Q1971.95 208.059 1974.98 211.438 Q1978.04 214.795 1978.04 220.582 M1973.78 219.332 Q1973.73 215.837 1971.81 213.753 Q1969.91 211.67 1966.77 211.67 Q1963.2 211.67 1961.05 213.684 Q1958.92 215.698 1958.59 219.355 L1973.78 219.332 Z" fill="#000000" fill-rule="evenodd" fill-opacity="1" /><path clip-path="url(#clip120)" d="M 0 0 M2001.16 209.679 L2001.16 213.661 Q1999.36 212.665 1997.53 212.179 Q1995.72 211.67 1993.87 211.67 Q1989.73 211.67 1987.44 214.309 Q1985.15 216.924 1985.15 221.67 Q1985.15 226.415 1987.44 229.054 Q1989.73 231.67 1993.87 231.67 Q1995.72 231.67 1997.53 231.184 Q1999.36 230.674 2001.16 229.679 L2001.16 233.614 Q1999.38 234.448 1997.46 234.864 Q1995.56 235.281 1993.41 235.281 Q1987.55 235.281 1984.1 231.6 Q1980.65 227.92 1980.65 221.67 Q1980.65 215.327 1984.13 211.693 Q1987.62 208.059 1993.69 208.059 Q1995.65 208.059 1997.53 208.475 Q1999.4 208.869 2001.16 209.679 Z" fill="#000000" fill-rule="evenodd" fill-opacity="1" /><path clip-path="url(#clip120)" d="M 0 0 M2009.84 201.323 L2009.84 208.684 L2018.62 208.684 L2018.62 211.994 L2009.84 211.994 L2009.84 226.068 Q2009.84 229.239 2010.7 230.142 Q2011.58 231.045 2014.24 231.045 L2018.62 231.045 L2018.62 234.61 L2014.24 234.61 Q2009.31 234.61 2007.44 232.781 Q2005.56 230.929 2005.56 226.068 L2005.56 211.994 L2002.44 211.994 L2002.44 208.684 L2005.56 208.684 L2005.56 201.323 L2009.84 201.323 Z" fill="#000000" fill-rule="evenodd" fill-opacity="1" /><path clip-path="url(#clip120)" d="M 0 0 M2023.08 208.684 L2027.34 208.684 L2027.34 234.61 L2023.08 234.61 L2023.08 208.684 M2023.08 198.591 L2027.34 198.591 L2027.34 203.985 L2023.08 203.985 L2023.08 198.591 Z" fill="#000000" fill-rule="evenodd" fill-opacity="1" /><path clip-path="url(#clip120)" d="M 0 0 M2041.86 211.67 Q2038.43 211.67 2036.44 214.355 Q2034.45 217.017 2034.45 221.67 Q2034.45 226.323 2036.42 229.008 Q2038.41 231.67 2041.86 231.67 Q2045.26 231.67 2047.25 228.985 Q2049.24 226.299 2049.24 221.67 Q2049.24 217.063 2047.25 214.378 Q2045.26 211.67 2041.86 211.67 M2041.86 208.059 Q2047.41 208.059 2050.58 211.67 Q2053.76 215.281 2053.76 221.67 Q2053.76 228.036 2050.58 231.67 Q2047.41 235.281 2041.86 235.281 Q2036.28 235.281 2033.11 231.67 Q2029.96 228.036 2029.96 221.67 Q2029.96 215.281 2033.11 211.67 Q2036.28 208.059 2041.86 208.059 Z" fill="#000000" fill-rule="evenodd" fill-opacity="1" /><path clip-path="url(#clip120)" d="M 0 0 M2079.77 218.961 L2079.77 234.61 L2075.52 234.61 L2075.52 219.1 Q2075.52 215.42 2074.08 213.591 Q2072.64 211.762 2069.77 211.762 Q2066.33 211.762 2064.33 213.962 Q2062.34 216.161 2062.34 219.957 L2062.34 234.61 L2058.06 234.61 L2058.06 208.684 L2062.34 208.684 L2062.34 212.712 Q2063.87 210.374 2065.93 209.216 Q2068.02 208.059 2070.72 208.059 Q2075.19 208.059 2077.48 210.837 Q2079.77 213.591 2079.77 218.961 Z" fill="#000000" fill-rule="evenodd" fill-opacity="1" /><path clip-path="url(#clip120)" d="M 0 0 M2114.33 212.665 Q2113.62 212.249 2112.76 212.063 Q2111.93 211.855 2110.91 211.855 Q2107.3 211.855 2105.35 214.216 Q2103.43 216.554 2103.43 220.952 L2103.43 234.61 L2099.15 234.61 L2099.15 208.684 L2103.43 208.684 L2103.43 212.712 Q2104.77 210.35 2106.93 209.216 Q2109.08 208.059 2112.16 208.059 Q2112.6 208.059 2113.13 208.128 Q2113.66 208.175 2114.31 208.29 L2114.33 212.665 Z" fill="#000000" fill-rule="evenodd" fill-opacity="1" /><path clip-path="url(#clip120)" d="M 0 0 M2139.94 220.582 L2139.94 222.665 L2120.35 222.665 Q2120.63 227.063 2122.99 229.378 Q2125.38 231.67 2129.61 231.67 Q2132.07 231.67 2134.36 231.068 Q2136.67 230.466 2138.94 229.262 L2138.94 233.29 Q2136.65 234.262 2134.24 234.772 Q2131.83 235.281 2129.36 235.281 Q2123.15 235.281 2119.52 231.67 Q2115.91 228.059 2115.91 221.901 Q2115.91 215.536 2119.33 211.809 Q2122.78 208.059 2128.62 208.059 Q2133.85 208.059 2136.88 211.438 Q2139.94 214.795 2139.94 220.582 M2135.68 219.332 Q2135.63 215.837 2133.71 213.753 Q2131.81 211.67 2128.66 211.67 Q2125.1 211.67 2122.95 213.684 Q2120.82 215.698 2120.49 219.355 L2135.68 219.332 Z" fill="#000000" fill-rule="evenodd" fill-opacity="1" /><path clip-path="url(#clip120)" d="M 0 0 M2161.46 221.346 Q2161.46 216.716 2159.54 214.17 Q2157.64 211.624 2154.2 211.624 Q2150.77 211.624 2148.85 214.17 Q2146.95 216.716 2146.95 221.346 Q2146.95 225.952 2148.85 228.498 Q2150.77 231.045 2154.2 231.045 Q2157.64 231.045 2159.54 228.498 Q2161.46 225.952 2161.46 221.346 M2165.72 231.392 Q2165.72 238.012 2162.78 241.23 Q2159.84 244.471 2153.78 244.471 Q2151.53 244.471 2149.54 244.123 Q2147.55 243.799 2145.68 243.105 L2145.68 238.961 Q2147.55 239.98 2149.38 240.466 Q2151.21 240.952 2153.11 240.952 Q2157.3 240.952 2159.38 238.753 Q2161.46 236.577 2161.46 232.156 L2161.46 230.049 Q2160.14 232.341 2158.08 233.475 Q2156.02 234.61 2153.15 234.61 Q2148.39 234.61 2145.47 230.975 Q2142.55 227.341 2142.55 221.346 Q2142.55 215.327 2145.47 211.693 Q2148.39 208.059 2153.15 208.059 Q2156.02 208.059 2158.08 209.193 Q2160.14 210.327 2161.46 212.619 L2161.46 208.684 L2165.72 208.684 L2165.72 231.392 Z" fill="#000000" fill-rule="evenodd" fill-opacity="1" /><path clip-path="url(#clip120)" d="M 0 0 M2170.19 208.684 L2174.45 208.684 L2174.45 234.61 L2170.19 234.61 L2170.19 208.684 M2170.19 198.591 L2174.45 198.591 L2174.45 203.985 L2170.19 203.985 L2170.19 198.591 Z" fill="#000000" fill-rule="evenodd" fill-opacity="1" /><path clip-path="url(#clip120)" d="M 0 0 M2188.96 211.67 Q2185.54 211.67 2183.55 214.355 Q2181.56 217.017 2181.56 221.67 Q2181.56 226.323 2183.52 229.008 Q2185.51 231.67 2188.96 231.67 Q2192.37 231.67 2194.36 228.985 Q2196.35 226.299 2196.35 221.67 Q2196.35 217.063 2194.36 214.378 Q2192.37 211.67 2188.96 211.67 M2188.96 208.059 Q2194.52 208.059 2197.69 211.67 Q2200.86 215.281 2200.86 221.67 Q2200.86 228.036 2197.69 231.67 Q2194.52 235.281 2188.96 235.281 Q2183.39 235.281 2180.21 231.67 Q2177.07 228.036 2177.07 221.67 Q2177.07 215.281 2180.21 211.67 Q2183.39 208.059 2188.96 208.059 Z" fill="#000000" fill-rule="evenodd" fill-opacity="1" /><path clip-path="url(#clip120)" d="M 0 0 M2226.88 218.961 L2226.88 234.61 L2222.62 234.61 L2222.62 219.1 Q2222.62 215.42 2221.19 213.591 Q2219.75 211.762 2216.88 211.762 Q2213.43 211.762 2211.44 213.962 Q2209.45 216.161 2209.45 219.957 L2209.45 234.61 L2205.17 234.61 L2205.17 208.684 L2209.45 208.684 L2209.45 212.712 Q2210.98 210.374 2213.04 209.216 Q2215.12 208.059 2217.83 208.059 Q2222.3 208.059 2224.59 210.837 Q2226.88 213.591 2226.88 218.961 Z" fill="#000000" fill-rule="evenodd" fill-opacity="1" /><path clip-path="url(#clip120)" d="
M1519.75 302.002 L1670.81 302.002 L1670.81 253.618 L1519.75 253.618 L1519.75 302.002  Z
  " fill="#ffa500" fill-rule="evenodd" fill-opacity="0.5"/>
<polyline clip-path="url(#clip120)" style="stroke:#ffa500; stroke-width:4; stroke-opacity:1; fill:none" points="
  1519.75,253.618 1670.81,253.618 
  "/>
<path clip-path="url(#clip120)" d="M 0 0 M1700.38 282.15 Q1700.38 286.849 1702.3 289.534 Q1704.24 292.196 1707.62 292.196 Q1711 292.196 1712.95 289.534 Q1714.89 286.849 1714.89 282.15 Q1714.89 277.451 1712.95 274.789 Q1711 272.104 1707.62 272.104 Q1704.24 272.104 1702.3 274.789 Q1700.38 277.451 1700.38 282.15 M1714.89 291.201 Q1713.55 293.515 1711.49 294.65 Q1709.45 295.761 1706.58 295.761 Q1701.88 295.761 1698.92 292.011 Q1695.98 288.261 1695.98 282.15 Q1695.98 276.039 1698.92 272.289 Q1701.88 268.539 1706.58 268.539 Q1709.45 268.539 1711.49 269.673 Q1713.55 270.784 1714.89 273.099 L1714.89 269.164 L1719.15 269.164 L1719.15 304.951 L1714.89 304.951 L1714.89 291.201 Z" fill="#000000" fill-rule="evenodd" fill-opacity="1" /><path clip-path="url(#clip120)" d="M 0 0 M1724.36 294.372 L1724.36 290.113 Q1726.12 290.946 1727.92 291.386 Q1729.73 291.826 1731.47 291.826 Q1736.1 291.826 1738.53 288.724 Q1740.98 285.599 1741.33 279.256 Q1739.98 281.247 1737.92 282.312 Q1735.86 283.377 1733.36 283.377 Q1728.18 283.377 1725.15 280.252 Q1722.14 277.104 1722.14 271.664 Q1722.14 266.34 1725.29 263.122 Q1728.43 259.905 1733.67 259.905 Q1739.66 259.905 1742.81 264.511 Q1745.98 269.094 1745.98 277.844 Q1745.98 286.016 1742.09 290.9 Q1738.23 295.761 1731.67 295.761 Q1729.92 295.761 1728.11 295.414 Q1726.3 295.066 1724.36 294.372 M1733.67 279.719 Q1736.81 279.719 1738.64 277.566 Q1740.49 275.414 1740.49 271.664 Q1740.49 267.937 1738.64 265.784 Q1736.81 263.608 1733.67 263.608 Q1730.52 263.608 1728.67 265.784 Q1726.84 267.937 1726.84 271.664 Q1726.84 275.414 1728.67 277.566 Q1730.52 279.719 1733.67 279.719 Z" fill="#000000" fill-rule="evenodd" fill-opacity="1" /><path clip-path="url(#clip120)" d="M 0 0 M1751.1 260.53 L1769.45 260.53 L1769.45 264.465 L1755.38 264.465 L1755.38 272.937 Q1756.4 272.59 1757.42 272.428 Q1758.43 272.242 1759.45 272.242 Q1765.24 272.242 1768.62 275.414 Q1772 278.585 1772 284.002 Q1772 289.58 1768.53 292.682 Q1765.05 295.761 1758.73 295.761 Q1756.56 295.761 1754.29 295.39 Q1752.04 295.02 1749.64 294.279 L1749.64 289.58 Q1751.72 290.715 1753.94 291.27 Q1756.17 291.826 1758.64 291.826 Q1762.65 291.826 1764.98 289.719 Q1767.32 287.613 1767.32 284.002 Q1767.32 280.391 1764.98 278.284 Q1762.65 276.178 1758.64 276.178 Q1756.77 276.178 1754.89 276.594 Q1753.04 277.011 1751.1 277.891 L1751.1 260.53 Z" fill="#000000" fill-rule="evenodd" fill-opacity="1" /><polyline clip-path="url(#clip120)" style="stroke:#0000ff; stroke-width:4; stroke-opacity:1; fill:none" points="
  1519.75,338.29 1670.81,338.29 
  "/>
<path clip-path="url(#clip120)" d="M 0 0 M1716.33 334.621 Q1717.92 331.75 1720.15 330.385 Q1722.37 329.019 1725.38 329.019 Q1729.43 329.019 1731.63 331.866 Q1733.83 334.69 1733.83 339.921 L1733.83 355.57 L1729.54 355.57 L1729.54 340.06 Q1729.54 336.334 1728.23 334.528 Q1726.91 332.722 1724.2 332.722 Q1720.89 332.722 1718.97 334.922 Q1717.04 337.121 1717.04 340.917 L1717.04 355.57 L1712.76 355.57 L1712.76 340.06 Q1712.76 336.31 1711.44 334.528 Q1710.12 332.722 1707.37 332.722 Q1704.11 332.722 1702.18 334.945 Q1700.26 337.144 1700.26 340.917 L1700.26 355.57 L1695.98 355.57 L1695.98 329.644 L1700.26 329.644 L1700.26 333.672 Q1701.72 331.287 1703.76 330.153 Q1705.79 329.019 1708.6 329.019 Q1711.42 329.019 1713.39 330.454 Q1715.38 331.889 1716.33 334.621 Z" fill="#000000" fill-rule="evenodd" fill-opacity="1" /><path clip-path="url(#clip120)" d="M 0 0 M1760.47 341.542 L1760.47 343.625 L1740.89 343.625 Q1741.17 348.023 1743.53 350.338 Q1745.91 352.63 1750.15 352.63 Q1752.6 352.63 1754.89 352.028 Q1757.21 351.426 1759.48 350.222 L1759.48 354.25 Q1757.18 355.222 1754.78 355.732 Q1752.37 356.241 1749.89 356.241 Q1743.69 356.241 1740.05 352.63 Q1736.44 349.019 1736.44 342.861 Q1736.44 336.496 1739.87 332.769 Q1743.32 329.019 1749.15 329.019 Q1754.38 329.019 1757.42 332.398 Q1760.47 335.755 1760.47 341.542 M1756.21 340.292 Q1756.17 336.797 1754.24 334.713 Q1752.35 332.63 1749.2 332.63 Q1745.63 332.63 1743.48 334.644 Q1741.35 336.658 1741.03 340.315 L1756.21 340.292 Z" fill="#000000" fill-rule="evenodd" fill-opacity="1" /><path clip-path="url(#clip120)" d="M 0 0 M1776.72 342.537 Q1771.56 342.537 1769.57 343.718 Q1767.58 344.898 1767.58 347.746 Q1767.58 350.014 1769.06 351.357 Q1770.56 352.676 1773.13 352.676 Q1776.67 352.676 1778.8 350.176 Q1780.96 347.653 1780.96 343.486 L1780.96 342.537 L1776.72 342.537 M1785.22 340.778 L1785.22 355.57 L1780.96 355.57 L1780.96 351.634 Q1779.5 353.995 1777.32 355.13 Q1775.15 356.241 1772 356.241 Q1768.02 356.241 1765.66 354.019 Q1763.32 351.773 1763.32 348.023 Q1763.32 343.648 1766.23 341.426 Q1769.17 339.204 1774.98 339.204 L1780.96 339.204 L1780.96 338.787 Q1780.96 335.847 1779.01 334.25 Q1777.09 332.63 1773.6 332.63 Q1771.37 332.63 1769.27 333.162 Q1767.16 333.695 1765.22 334.759 L1765.22 330.824 Q1767.55 329.922 1769.75 329.482 Q1771.95 329.019 1774.04 329.019 Q1779.66 329.019 1782.44 331.935 Q1785.22 334.852 1785.22 340.778 Z" fill="#000000" fill-rule="evenodd" fill-opacity="1" /><path clip-path="url(#clip120)" d="M 0 0 M1811.23 339.921 L1811.23 355.57 L1806.97 355.57 L1806.97 340.06 Q1806.97 336.38 1805.54 334.551 Q1804.1 332.722 1801.23 332.722 Q1797.79 332.722 1795.79 334.922 Q1793.8 337.121 1793.8 340.917 L1793.8 355.57 L1789.52 355.57 L1789.52 329.644 L1793.8 329.644 L1793.8 333.672 Q1795.33 331.334 1797.39 330.176 Q1799.48 329.019 1802.18 329.019 Q1806.65 329.019 1808.94 331.797 Q1811.23 334.551 1811.23 339.921 Z" fill="#000000" fill-rule="evenodd" fill-opacity="1" /><polyline clip-path="url(#clip120)" style="stroke:#000000; stroke-width:4; stroke-opacity:1; fill:none" points="
  1519.75,398.77 1670.81,398.77 
  "/>
<path clip-path="url(#clip120)" d="M 0 0 M1716.33 395.101 Q1717.92 392.23 1720.15 390.865 Q1722.37 389.499 1725.38 389.499 Q1729.43 389.499 1731.63 392.346 Q1733.83 395.17 1733.83 400.401 L1733.83 416.05 L1729.54 416.05 L1729.54 400.54 Q1729.54 396.814 1728.23 395.008 Q1726.91 393.202 1724.2 393.202 Q1720.89 393.202 1718.97 395.402 Q1717.04 397.601 1717.04 401.397 L1717.04 416.05 L1712.76 416.05 L1712.76 400.54 Q1712.76 396.79 1711.44 395.008 Q1710.12 393.202 1707.37 393.202 Q1704.11 393.202 1702.18 395.425 Q1700.26 397.624 1700.26 401.397 L1700.26 416.05 L1695.98 416.05 L1695.98 390.124 L1700.26 390.124 L1700.26 394.152 Q1701.72 391.767 1703.76 390.633 Q1705.79 389.499 1708.6 389.499 Q1711.42 389.499 1713.39 390.934 Q1715.38 392.369 1716.33 395.101 Z" fill="#000000" fill-rule="evenodd" fill-opacity="1" /><path clip-path="url(#clip120)" d="M 0 0 M1760.47 402.022 L1760.47 404.105 L1740.89 404.105 Q1741.17 408.503 1743.53 410.818 Q1745.91 413.11 1750.15 413.11 Q1752.6 413.11 1754.89 412.508 Q1757.21 411.906 1759.48 410.702 L1759.48 414.73 Q1757.18 415.702 1754.78 416.212 Q1752.37 416.721 1749.89 416.721 Q1743.69 416.721 1740.05 413.11 Q1736.44 409.499 1736.44 403.341 Q1736.44 396.976 1739.87 393.249 Q1743.32 389.499 1749.15 389.499 Q1754.38 389.499 1757.42 392.878 Q1760.47 396.235 1760.47 402.022 M1756.21 400.772 Q1756.17 397.277 1754.24 395.193 Q1752.35 393.11 1749.2 393.11 Q1745.63 393.11 1743.48 395.124 Q1741.35 397.138 1741.03 400.795 L1756.21 400.772 Z" fill="#000000" fill-rule="evenodd" fill-opacity="1" /><path clip-path="url(#clip120)" d="M 0 0 M1782 394.059 L1782 380.031 L1786.26 380.031 L1786.26 416.05 L1782 416.05 L1782 412.161 Q1780.66 414.475 1778.6 415.61 Q1776.56 416.721 1773.69 416.721 Q1768.99 416.721 1766.03 412.971 Q1763.09 409.221 1763.09 403.11 Q1763.09 396.999 1766.03 393.249 Q1768.99 389.499 1773.69 389.499 Q1776.56 389.499 1778.6 390.633 Q1780.66 391.744 1782 394.059 M1767.48 403.11 Q1767.48 407.809 1769.41 410.494 Q1771.35 413.156 1774.73 413.156 Q1778.11 413.156 1780.05 410.494 Q1782 407.809 1782 403.11 Q1782 398.411 1780.05 395.749 Q1778.11 393.064 1774.73 393.064 Q1771.35 393.064 1769.41 395.749 Q1767.48 398.411 1767.48 403.11 Z" fill="#000000" fill-rule="evenodd" fill-opacity="1" /><path clip-path="url(#clip120)" d="M 0 0 M1790.73 390.124 L1794.98 390.124 L1794.98 416.05 L1790.73 416.05 L1790.73 390.124 M1790.73 380.031 L1794.98 380.031 L1794.98 385.425 L1790.73 385.425 L1790.73 380.031 Z" fill="#000000" fill-rule="evenodd" fill-opacity="1" /><path clip-path="url(#clip120)" d="M 0 0 M1811.23 403.017 Q1806.07 403.017 1804.08 404.198 Q1802.09 405.378 1802.09 408.226 Q1802.09 410.494 1803.57 411.837 Q1805.08 413.156 1807.65 413.156 Q1811.19 413.156 1813.32 410.656 Q1815.47 408.133 1815.47 403.966 L1815.47 403.017 L1811.23 403.017 M1819.73 401.258 L1819.73 416.05 L1815.47 416.05 L1815.47 412.114 Q1814.01 414.475 1811.84 415.61 Q1809.66 416.721 1806.51 416.721 Q1802.53 416.721 1800.17 414.499 Q1797.83 412.253 1797.83 408.503 Q1797.83 404.128 1800.75 401.906 Q1803.69 399.684 1809.5 399.684 L1815.47 399.684 L1815.47 399.267 Q1815.47 396.327 1813.53 394.73 Q1811.6 393.11 1808.11 393.11 Q1805.89 393.11 1803.78 393.642 Q1801.67 394.175 1799.73 395.239 L1799.73 391.304 Q1802.07 390.402 1804.27 389.962 Q1806.47 389.499 1808.55 389.499 Q1814.17 389.499 1816.95 392.415 Q1819.73 395.332 1819.73 401.258 Z" fill="#000000" fill-rule="evenodd" fill-opacity="1" /><path clip-path="url(#clip120)" d="M 0 0 M1845.75 400.401 L1845.75 416.05 L1841.49 416.05 L1841.49 400.54 Q1841.49 396.86 1840.05 395.031 Q1838.62 393.202 1835.75 393.202 Q1832.3 393.202 1830.31 395.402 Q1828.32 397.601 1828.32 401.397 L1828.32 416.05 L1824.04 416.05 L1824.04 390.124 L1828.32 390.124 L1828.32 394.152 Q1829.85 391.814 1831.91 390.656 Q1833.99 389.499 1836.7 389.499 Q1841.16 389.499 1843.46 392.277 Q1845.75 395.031 1845.75 400.401 Z" fill="#000000" fill-rule="evenodd" fill-opacity="1" /></svg>
