<?xml version="1.0" encoding="utf-8"?>
<svg xmlns="http://www.w3.org/2000/svg" xmlns:xlink="http://www.w3.org/1999/xlink" width="600" height="400" viewBox="0 0 2400 1600">
<defs>
  <clipPath id="clip630">
    <rect x="0" y="0" width="2400" height="1600"/>
  </clipPath>
</defs>
<path clip-path="url(#clip630)" d="
M0 1600 L2400 1600 L2400 0 L0 0  Z
  " fill="#ffffff" fill-rule="evenodd" fill-opacity="1"/>
<defs>
  <clipPath id="clip631">
    <rect x="480" y="0" width="1681" height="1600"/>
  </clipPath>
</defs>
<path clip-path="url(#clip630)" d="
M86.9921 1521.01 L2352.76 1521.01 L2352.76 47.2441 L86.9921 47.2441  Z
  " fill="#ffffff" fill-rule="evenodd" fill-opacity="1"/>
<defs>
  <clipPath id="clip632">
    <rect x="86" y="47" width="2267" height="1475"/>
  </clipPath>
</defs>
<polyline clip-path="url(#clip632)" style="stroke:#000000; stroke-width:2; stroke-opacity:0.1; fill:none" points="
  119.269,1521.01 119.269,47.2441 
  "/>
<polyline clip-path="url(#clip632)" style="stroke:#000000; stroke-width:2; stroke-opacity:0.1; fill:none" points="
  607.782,1521.01 607.782,47.2441 
  "/>
<polyline clip-path="url(#clip632)" style="stroke:#000000; stroke-width:2; stroke-opacity:0.1; fill:none" points="
  1096.29,1521.01 1096.29,47.2441 
  "/>
<polyline clip-path="url(#clip632)" style="stroke:#000000; stroke-width:2; stroke-opacity:0.1; fill:none" points="
  1584.81,1521.01 1584.81,47.2441 
  "/>
<polyline clip-path="url(#clip632)" style="stroke:#000000; stroke-width:2; stroke-opacity:0.1; fill:none" points="
  2073.32,1521.01 2073.32,47.2441 
  "/>
<polyline clip-path="url(#clip632)" style="stroke:#000000; stroke-width:2; stroke-opacity:0.1; fill:none" points="
  86.9921,1322.31 2352.76,1322.31 
  "/>
<polyline clip-path="url(#clip632)" style="stroke:#000000; stroke-width:2; stroke-opacity:0.1; fill:none" points="
  86.9921,963.054 2352.76,963.054 
  "/>
<polyline clip-path="url(#clip632)" style="stroke:#000000; stroke-width:2; stroke-opacity:0.1; fill:none" points="
  86.9921,603.798 2352.76,603.798 
  "/>
<polyline clip-path="url(#clip632)" style="stroke:#000000; stroke-width:2; stroke-opacity:0.1; fill:none" points="
  86.9921,244.541 2352.76,244.541 
  "/>
<polyline clip-path="url(#clip630)" style="stroke:#000000; stroke-width:4; stroke-opacity:1; fill:none" points="
  86.9921,1521.01 2352.76,1521.01 
  "/>
<polyline clip-path="url(#clip630)" style="stroke:#000000; stroke-width:4; stroke-opacity:1; fill:none" points="
  86.9921,1521.01 86.9921,47.2441 
  "/>
<polyline clip-path="url(#clip630)" style="stroke:#000000; stroke-width:4; stroke-opacity:1; fill:none" points="
  119.269,1521.01 119.269,1503.32 
  "/>
<polyline clip-path="url(#clip630)" style="stroke:#000000; stroke-width:4; stroke-opacity:1; fill:none" points="
  607.782,1521.01 607.782,1503.32 
  "/>
<polyline clip-path="url(#clip630)" style="stroke:#000000; stroke-width:4; stroke-opacity:1; fill:none" points="
  1096.29,1521.01 1096.29,1503.32 
  "/>
<polyline clip-path="url(#clip630)" style="stroke:#000000; stroke-width:4; stroke-opacity:1; fill:none" points="
  1584.81,1521.01 1584.81,1503.32 
  "/>
<polyline clip-path="url(#clip630)" style="stroke:#000000; stroke-width:4; stroke-opacity:1; fill:none" points="
  2073.32,1521.01 2073.32,1503.32 
  "/>
<polyline clip-path="url(#clip630)" style="stroke:#000000; stroke-width:4; stroke-opacity:1; fill:none" points="
  86.9921,1322.31 114.181,1322.31 
  "/>
<polyline clip-path="url(#clip630)" style="stroke:#000000; stroke-width:4; stroke-opacity:1; fill:none" points="
  86.9921,963.054 114.181,963.054 
  "/>
<polyline clip-path="url(#clip630)" style="stroke:#000000; stroke-width:4; stroke-opacity:1; fill:none" points="
  86.9921,603.798 114.181,603.798 
  "/>
<polyline clip-path="url(#clip630)" style="stroke:#000000; stroke-width:4; stroke-opacity:1; fill:none" points="
  86.9921,244.541 114.181,244.541 
  "/>
<path clip-path="url(#clip630)" d="M 0 0 M100.786 1543 Q97.1746 1543 95.3459 1546.56 Q93.5403 1550.11 93.5403 1557.23 Q93.5403 1564.34 95.3459 1567.91 Q97.1746 1571.45 100.786 1571.45 Q104.42 1571.45 106.225 1567.91 Q108.054 1564.34 108.054 1557.23 Q108.054 1550.11 106.225 1546.56 Q104.42 1543 100.786 1543 M100.786 1539.29 Q106.596 1539.29 109.651 1543.9 Q112.73 1548.48 112.73 1557.23 Q112.73 1565.96 109.651 1570.57 Q106.596 1575.15 100.786 1575.15 Q94.9755 1575.15 91.8968 1570.57 Q88.8413 1565.96 88.8413 1557.23 Q88.8413 1548.48 91.8968 1543.9 Q94.9755 1539.29 100.786 1539.29 Z" fill="#000000" fill-rule="evenodd" fill-opacity="1" /><path clip-path="url(#clip630)" d="M 0 0 M117.799 1568.6 L122.684 1568.6 L122.684 1574.48 L117.799 1574.48 L117.799 1568.6 Z" fill="#000000" fill-rule="evenodd" fill-opacity="1" /><path clip-path="url(#clip630)" d="M 0 0 M137.753 1543 Q134.142 1543 132.313 1546.56 Q130.508 1550.11 130.508 1557.23 Q130.508 1564.34 132.313 1567.91 Q134.142 1571.45 137.753 1571.45 Q141.387 1571.45 143.193 1567.91 Q145.022 1564.34 145.022 1557.23 Q145.022 1550.11 143.193 1546.56 Q141.387 1543 137.753 1543 M137.753 1539.29 Q143.563 1539.29 146.619 1543.9 Q149.697 1548.48 149.697 1557.23 Q149.697 1565.96 146.619 1570.57 Q143.563 1575.15 137.753 1575.15 Q131.943 1575.15 128.864 1570.57 Q125.809 1565.96 125.809 1557.23 Q125.809 1548.48 128.864 1543.9 Q131.943 1539.29 137.753 1539.29 Z" fill="#000000" fill-rule="evenodd" fill-opacity="1" /><path clip-path="url(#clip630)" d="M 0 0 M589.911 1543 Q586.3 1543 584.471 1546.56 Q582.666 1550.11 582.666 1557.23 Q582.666 1564.34 584.471 1567.91 Q586.3 1571.45 589.911 1571.45 Q593.545 1571.45 595.351 1567.91 Q597.18 1564.34 597.18 1557.23 Q597.18 1550.11 595.351 1546.56 Q593.545 1543 589.911 1543 M589.911 1539.29 Q595.721 1539.29 598.777 1543.9 Q601.856 1548.48 601.856 1557.23 Q601.856 1565.96 598.777 1570.57 Q595.721 1575.15 589.911 1575.15 Q584.101 1575.15 581.022 1570.57 Q577.967 1565.96 577.967 1557.23 Q577.967 1548.48 581.022 1543.9 Q584.101 1539.29 589.911 1539.29 Z" fill="#000000" fill-rule="evenodd" fill-opacity="1" /><path clip-path="url(#clip630)" d="M 0 0 M606.925 1568.6 L611.809 1568.6 L611.809 1574.48 L606.925 1574.48 L606.925 1568.6 Z" fill="#000000" fill-rule="evenodd" fill-opacity="1" /><path clip-path="url(#clip630)" d="M 0 0 M617.689 1570.54 L625.328 1570.54 L625.328 1544.18 L617.018 1545.85 L617.018 1541.59 L625.281 1539.92 L629.957 1539.92 L629.957 1570.54 L637.596 1570.54 L637.596 1574.48 L617.689 1574.48 L617.689 1570.54 Z" fill="#000000" fill-rule="evenodd" fill-opacity="1" /><path clip-path="url(#clip630)" d="M 0 0 M1078.61 1543 Q1075 1543 1073.17 1546.56 Q1071.36 1550.11 1071.36 1557.23 Q1071.36 1564.34 1073.17 1567.91 Q1075 1571.45 1078.61 1571.45 Q1082.24 1571.45 1084.05 1567.91 Q1085.88 1564.34 1085.88 1557.23 Q1085.88 1550.11 1084.05 1546.56 Q1082.24 1543 1078.61 1543 M1078.61 1539.29 Q1084.42 1539.29 1087.47 1543.9 Q1090.55 1548.48 1090.55 1557.23 Q1090.55 1565.96 1087.47 1570.57 Q1084.42 1575.15 1078.61 1575.15 Q1072.8 1575.15 1069.72 1570.57 Q1066.66 1565.96 1066.66 1557.23 Q1066.66 1548.48 1069.72 1543.9 Q1072.8 1539.29 1078.61 1539.29 Z" fill="#000000" fill-rule="evenodd" fill-opacity="1" /><path clip-path="url(#clip630)" d="M 0 0 M1095.62 1568.6 L1100.51 1568.6 L1100.51 1574.48 L1095.62 1574.48 L1095.62 1568.6 Z" fill="#000000" fill-rule="evenodd" fill-opacity="1" /><path clip-path="url(#clip630)" d="M 0 0 M1109.6 1570.54 L1125.92 1570.54 L1125.92 1574.48 L1103.98 1574.48 L1103.98 1570.54 Q1106.64 1567.79 1111.22 1563.16 Q1115.83 1558.51 1117.01 1557.17 Q1119.26 1554.64 1120.14 1552.91 Q1121.04 1551.15 1121.04 1549.46 Q1121.04 1546.7 1119.09 1544.97 Q1117.17 1543.23 1114.07 1543.23 Q1111.87 1543.23 1109.42 1543.99 Q1106.99 1544.76 1104.21 1546.31 L1104.21 1541.59 Q1107.03 1540.45 1109.49 1539.87 Q1111.94 1539.29 1113.98 1539.29 Q1119.35 1539.29 1122.54 1541.98 Q1125.74 1544.67 1125.74 1549.16 Q1125.74 1551.29 1124.93 1553.21 Q1124.14 1555.1 1122.03 1557.7 Q1121.46 1558.37 1118.35 1561.59 Q1115.25 1564.78 1109.6 1570.54 Z" fill="#000000" fill-rule="evenodd" fill-opacity="1" /><path clip-path="url(#clip630)" d="M 0 0 M1566.65 1543 Q1563.04 1543 1561.21 1546.56 Q1559.4 1550.11 1559.4 1557.23 Q1559.4 1564.34 1561.21 1567.91 Q1563.04 1571.45 1566.65 1571.45 Q1570.28 1571.45 1572.09 1567.91 Q1573.91 1564.34 1573.91 1557.23 Q1573.91 1550.11 1572.09 1546.56 Q1570.28 1543 1566.65 1543 M1566.65 1539.29 Q1572.46 1539.29 1575.51 1543.9 Q1578.59 1548.48 1578.59 1557.23 Q1578.59 1565.96 1575.51 1570.57 Q1572.46 1575.15 1566.65 1575.15 Q1560.84 1575.15 1557.76 1570.57 Q1554.7 1565.96 1554.7 1557.23 Q1554.7 1548.48 1557.76 1543.9 Q1560.84 1539.29 1566.65 1539.29 Z" fill="#000000" fill-rule="evenodd" fill-opacity="1" /><path clip-path="url(#clip630)" d="M 0 0 M1583.66 1568.6 L1588.54 1568.6 L1588.54 1574.48 L1583.66 1574.48 L1583.66 1568.6 Z" fill="#000000" fill-rule="evenodd" fill-opacity="1" /><path clip-path="url(#clip630)" d="M 0 0 M1607.78 1555.85 Q1611.14 1556.56 1613.01 1558.83 Q1614.91 1561.1 1614.91 1564.43 Q1614.91 1569.55 1611.39 1572.35 Q1607.87 1575.15 1601.39 1575.15 Q1599.22 1575.15 1596.9 1574.71 Q1594.61 1574.29 1592.16 1573.44 L1592.16 1568.92 Q1594.1 1570.06 1596.41 1570.64 Q1598.73 1571.22 1601.25 1571.22 Q1605.65 1571.22 1607.94 1569.48 Q1610.26 1567.74 1610.26 1564.43 Q1610.26 1561.38 1608.1 1559.67 Q1605.97 1557.93 1602.16 1557.93 L1598.13 1557.93 L1598.13 1554.09 L1602.34 1554.09 Q1605.79 1554.09 1607.62 1552.72 Q1609.45 1551.33 1609.45 1548.74 Q1609.45 1546.08 1607.55 1544.67 Q1605.67 1543.23 1602.16 1543.23 Q1600.23 1543.23 1598.03 1543.65 Q1595.84 1544.06 1593.2 1544.94 L1593.2 1540.78 Q1595.86 1540.04 1598.17 1539.67 Q1600.51 1539.29 1602.57 1539.29 Q1607.9 1539.29 1611 1541.73 Q1614.1 1544.13 1614.1 1548.25 Q1614.1 1551.12 1612.46 1553.11 Q1610.81 1555.08 1607.78 1555.85 Z" fill="#000000" fill-rule="evenodd" fill-opacity="1" /><path clip-path="url(#clip630)" d="M 0 0 M2054.59 1543 Q2050.98 1543 2049.15 1546.56 Q2047.35 1550.11 2047.35 1557.23 Q2047.35 1564.34 2049.15 1567.91 Q2050.98 1571.45 2054.59 1571.45 Q2058.23 1571.45 2060.03 1567.91 Q2061.86 1564.34 2061.86 1557.23 Q2061.86 1550.11 2060.03 1546.56 Q2058.23 1543 2054.59 1543 M2054.59 1539.29 Q2060.4 1539.29 2063.46 1543.9 Q2066.54 1548.48 2066.54 1557.23 Q2066.54 1565.96 2063.46 1570.57 Q2060.4 1575.15 2054.59 1575.15 Q2048.78 1575.15 2045.7 1570.57 Q2042.65 1565.96 2042.65 1557.23 Q2042.65 1548.48 2045.7 1543.9 Q2048.78 1539.29 2054.59 1539.29 Z" fill="#000000" fill-rule="evenodd" fill-opacity="1" /><path clip-path="url(#clip630)" d="M 0 0 M2071.61 1568.6 L2076.49 1568.6 L2076.49 1574.48 L2071.61 1574.48 L2071.61 1568.6 Z" fill="#000000" fill-rule="evenodd" fill-opacity="1" /><path clip-path="url(#clip630)" d="M 0 0 M2094.41 1543.99 L2082.6 1562.44 L2094.41 1562.44 L2094.41 1543.99 M2093.18 1539.92 L2099.06 1539.92 L2099.06 1562.44 L2103.99 1562.44 L2103.99 1566.33 L2099.06 1566.33 L2099.06 1574.48 L2094.41 1574.48 L2094.41 1566.33 L2078.8 1566.33 L2078.8 1561.82 L2093.18 1539.92 Z" fill="#000000" fill-rule="evenodd" fill-opacity="1" /><path clip-path="url(#clip630)" d="M 0 0 M15.3072 1308.11 Q11.6961 1308.11 9.86741 1311.67 Q8.06186 1315.22 8.06186 1322.35 Q8.06186 1329.45 9.86741 1333.02 Q11.6961 1336.56 15.3072 1336.56 Q18.9414 1336.56 20.747 1333.02 Q22.5757 1329.45 22.5757 1322.35 Q22.5757 1315.22 20.747 1311.67 Q18.9414 1308.11 15.3072 1308.11 M15.3072 1304.41 Q21.1174 1304.41 24.1729 1309.01 Q27.2516 1313.6 27.2516 1322.35 Q27.2516 1331.07 24.1729 1335.68 Q21.1174 1340.26 15.3072 1340.26 Q9.49704 1340.26 6.41836 1335.68 Q3.36282 1331.07 3.36282 1322.35 Q3.36282 1313.6 6.41836 1309.01 Q9.49704 1304.41 15.3072 1304.41 Z" fill="#000000" fill-rule="evenodd" fill-opacity="1" /><path clip-path="url(#clip630)" d="M 0 0 M32.321 1333.71 L37.2052 1333.71 L37.2052 1339.59 L32.321 1339.59 L32.321 1333.71 Z" fill="#000000" fill-rule="evenodd" fill-opacity="1" /><path clip-path="url(#clip630)" d="M 0 0 M43.0848 1335.66 L50.7237 1335.66 L50.7237 1309.29 L42.4135 1310.96 L42.4135 1306.7 L50.6774 1305.03 L55.3533 1305.03 L55.3533 1335.66 L62.9921 1335.66 L62.9921 1339.59 L43.0848 1339.59 L43.0848 1335.66 Z" fill="#000000" fill-rule="evenodd" fill-opacity="1" /><path clip-path="url(#clip630)" d="M 0 0 M15.6776 948.853 Q12.0665 948.853 10.2378 952.418 Q8.43223 955.959 8.43223 963.089 Q8.43223 970.195 10.2378 973.76 Q12.0665 977.302 15.6776 977.302 Q19.3118 977.302 21.1174 973.76 Q22.946 970.195 22.946 963.089 Q22.946 955.959 21.1174 952.418 Q19.3118 948.853 15.6776 948.853 M15.6776 945.149 Q21.4877 945.149 24.5433 949.756 Q27.6219 954.339 27.6219 963.089 Q27.6219 971.816 24.5433 976.422 Q21.4877 981.005 15.6776 981.005 Q9.86741 981.005 6.78872 976.422 Q3.73318 971.816 3.73318 963.089 Q3.73318 954.339 6.78872 949.756 Q9.86741 945.149 15.6776 945.149 Z" fill="#000000" fill-rule="evenodd" fill-opacity="1" /><path clip-path="url(#clip630)" d="M 0 0 M32.6914 974.454 L37.5756 974.454 L37.5756 980.334 L32.6914 980.334 L32.6914 974.454 Z" fill="#000000" fill-rule="evenodd" fill-opacity="1" /><path clip-path="url(#clip630)" d="M 0 0 M46.6728 976.399 L62.9921 976.399 L62.9921 980.334 L41.0478 980.334 L41.0478 976.399 Q43.7098 973.644 48.2931 969.015 Q52.8996 964.362 54.0801 963.019 Q56.3255 960.496 57.2051 958.76 Q58.1079 957.001 58.1079 955.311 Q58.1079 952.556 56.1635 950.82 Q54.2422 949.084 51.1403 949.084 Q48.9413 949.084 46.4876 949.848 Q44.057 950.612 41.2793 952.163 L41.2793 947.441 Q44.1033 946.306 46.557 945.728 Q49.0107 945.149 51.0477 945.149 Q56.4181 945.149 59.6125 947.834 Q62.8069 950.519 62.8069 955.01 Q62.8069 957.14 61.9968 959.061 Q61.2097 960.959 59.1033 963.552 Q58.5246 964.223 55.4227 967.441 Q52.3209 970.635 46.6728 976.399 Z" fill="#000000" fill-rule="evenodd" fill-opacity="1" /><path clip-path="url(#clip630)" d="M 0 0 M14.7285 589.596 Q11.1174 589.596 9.28871 593.161 Q7.48316 596.703 7.48316 603.832 Q7.48316 610.939 9.28871 614.504 Q11.1174 618.045 14.7285 618.045 Q18.3627 618.045 20.1683 614.504 Q21.997 610.939 21.997 603.832 Q21.997 596.703 20.1683 593.161 Q18.3627 589.596 14.7285 589.596 M14.7285 585.893 Q20.5386 585.893 23.5942 590.499 Q26.6729 595.082 26.6729 603.832 Q26.6729 612.559 23.5942 617.166 Q20.5386 621.749 14.7285 621.749 Q8.91834 621.749 5.83965 617.166 Q2.78412 612.559 2.78412 603.832 Q2.78412 595.082 5.83965 590.499 Q8.91834 585.893 14.7285 585.893 Z" fill="#000000" fill-rule="evenodd" fill-opacity="1" /><path clip-path="url(#clip630)" d="M 0 0 M31.7423 615.198 L36.6265 615.198 L36.6265 621.078 L31.7423 621.078 L31.7423 615.198 Z" fill="#000000" fill-rule="evenodd" fill-opacity="1" /><path clip-path="url(#clip630)" d="M 0 0 M55.8625 602.444 Q59.219 603.161 61.094 605.43 Q62.9921 607.698 62.9921 611.031 Q62.9921 616.147 59.4736 618.948 Q55.9551 621.749 49.4737 621.749 Q47.2978 621.749 44.983 621.309 Q42.6913 620.893 40.2376 620.036 L40.2376 615.522 Q42.1821 616.656 44.4969 617.235 Q46.8117 617.814 49.3348 617.814 Q53.7329 617.814 56.0246 616.078 Q58.3394 614.342 58.3394 611.031 Q58.3394 607.976 56.1866 606.263 Q54.057 604.527 50.2376 604.527 L46.2098 604.527 L46.2098 600.684 L50.4227 600.684 Q53.8718 600.684 55.7005 599.319 Q57.5292 597.93 57.5292 595.337 Q57.5292 592.675 55.6311 591.263 Q53.7561 589.828 50.2376 589.828 Q48.3163 589.828 46.1172 590.245 Q43.9182 590.661 41.2793 591.541 L41.2793 587.374 Q43.9413 586.633 46.2561 586.263 Q48.5941 585.893 50.6542 585.893 Q55.9783 585.893 59.0801 588.323 Q62.1819 590.731 62.1819 594.851 Q62.1819 597.721 60.5384 599.712 Q58.8949 601.68 55.8625 602.444 Z" fill="#000000" fill-rule="evenodd" fill-opacity="1" /><path clip-path="url(#clip630)" d="M 0 0 M13.5942 230.34 Q9.98315 230.34 8.15446 233.905 Q6.34891 237.446 6.34891 244.576 Q6.34891 251.682 8.15446 255.247 Q9.98315 258.789 13.5942 258.789 Q17.2285 258.789 19.034 255.247 Q20.8627 251.682 20.8627 244.576 Q20.8627 237.446 19.034 233.905 Q17.2285 230.34 13.5942 230.34 M13.5942 226.636 Q19.4044 226.636 22.4599 231.243 Q25.5386 235.826 25.5386 244.576 Q25.5386 253.303 22.4599 257.909 Q19.4044 262.493 13.5942 262.493 Q7.78409 262.493 4.7054 257.909 Q1.64986 253.303 1.64986 244.576 Q1.64986 235.826 4.7054 231.243 Q7.78409 226.636 13.5942 226.636 Z" fill="#000000" fill-rule="evenodd" fill-opacity="1" /><path clip-path="url(#clip630)" d="M 0 0 M30.608 255.942 L35.4923 255.942 L35.4923 261.821 L30.608 261.821 L30.608 255.942 Z" fill="#000000" fill-rule="evenodd" fill-opacity="1" /><path clip-path="url(#clip630)" d="M 0 0 M53.4088 231.335 L41.6034 249.784 L53.4088 249.784 L53.4088 231.335 M52.182 227.261 L58.0616 227.261 L58.0616 249.784 L62.9921 249.784 L62.9921 253.673 L58.0616 253.673 L58.0616 261.821 L53.4088 261.821 L53.4088 253.673 L37.8071 253.673 L37.8071 249.159 L52.182 227.261 Z" fill="#000000" fill-rule="evenodd" fill-opacity="1" /><circle clip-path="url(#clip632)" cx="1166.2" cy="892.68" r="14" fill="#009af9" fill-rule="evenodd" fill-opacity="1" stroke="#000000" stroke-opacity="1" stroke-width="3.2"/>
<circle clip-path="url(#clip632)" cx="1714.65" cy="374.095" r="14" fill="#009af9" fill-rule="evenodd" fill-opacity="1" stroke="#000000" stroke-opacity="1" stroke-width="3.2"/>
<circle clip-path="url(#clip632)" cx="983.266" cy="1032.61" r="14" fill="#009af9" fill-rule="evenodd" fill-opacity="1" stroke="#000000" stroke-opacity="1" stroke-width="3.2"/>
<circle clip-path="url(#clip632)" cx="1137.6" cy="852.95" r="14" fill="#009af9" fill-rule="evenodd" fill-opacity="1" stroke="#000000" stroke-opacity="1" stroke-width="3.2"/>
<circle clip-path="url(#clip632)" cx="2052.96" cy="200.998" r="14" fill="#009af9" fill-rule="evenodd" fill-opacity="1" stroke="#000000" stroke-opacity="1" stroke-width="3.2"/>
<circle clip-path="url(#clip632)" cx="1898.9" cy="475.832" r="14" fill="#009af9" fill-rule="evenodd" fill-opacity="1" stroke="#000000" stroke-opacity="1" stroke-width="3.2"/>
<circle clip-path="url(#clip632)" cx="327.235" cy="1479.3" r="14" fill="#009af9" fill-rule="evenodd" fill-opacity="1" stroke="#000000" stroke-opacity="1" stroke-width="3.2"/>
<circle clip-path="url(#clip632)" cx="1532.32" cy="547.988" r="14" fill="#009af9" fill-rule="evenodd" fill-opacity="1" stroke="#000000" stroke-opacity="1" stroke-width="3.2"/>
<circle clip-path="url(#clip632)" cx="733.478" cy="1300.78" r="14" fill="#009af9" fill-rule="evenodd" fill-opacity="1" stroke="#000000" stroke-opacity="1" stroke-width="3.2"/>
<circle clip-path="url(#clip632)" cx="591.057" cy="1348.77" r="14" fill="#009af9" fill-rule="evenodd" fill-opacity="1" stroke="#000000" stroke-opacity="1" stroke-width="3.2"/>
<circle clip-path="url(#clip632)" cx="1779.62" cy="480.448" r="14" fill="#009af9" fill-rule="evenodd" fill-opacity="1" stroke="#000000" stroke-opacity="1" stroke-width="3.2"/>
<circle clip-path="url(#clip632)" cx="810.97" cy="1113.32" r="14" fill="#009af9" fill-rule="evenodd" fill-opacity="1" stroke="#000000" stroke-opacity="1" stroke-width="3.2"/>
<circle clip-path="url(#clip632)" cx="535.808" cy="1340.53" r="14" fill="#009af9" fill-rule="evenodd" fill-opacity="1" stroke="#000000" stroke-opacity="1" stroke-width="3.2"/>
<circle clip-path="url(#clip632)" cx="1557.13" cy="540.129" r="14" fill="#009af9" fill-rule="evenodd" fill-opacity="1" stroke="#000000" stroke-opacity="1" stroke-width="3.2"/>
<circle clip-path="url(#clip632)" cx="2288.63" cy="88.9544" r="14" fill="#009af9" fill-rule="evenodd" fill-opacity="1" stroke="#000000" stroke-opacity="1" stroke-width="3.2"/>
<circle clip-path="url(#clip632)" cx="1322.93" cy="819.613" r="14" fill="#009af9" fill-rule="evenodd" fill-opacity="1" stroke="#000000" stroke-opacity="1" stroke-width="3.2"/>
<circle clip-path="url(#clip632)" cx="2113.03" cy="205.435" r="14" fill="#009af9" fill-rule="evenodd" fill-opacity="1" stroke="#000000" stroke-opacity="1" stroke-width="3.2"/>
<circle clip-path="url(#clip632)" cx="151.118" cy="1476.76" r="14" fill="#009af9" fill-rule="evenodd" fill-opacity="1" stroke="#000000" stroke-opacity="1" stroke-width="3.2"/>
<circle clip-path="url(#clip632)" cx="2158.01" cy="365.7" r="14" fill="#009af9" fill-rule="evenodd" fill-opacity="1" stroke="#000000" stroke-opacity="1" stroke-width="3.2"/>
<circle clip-path="url(#clip632)" cx="2260.02" cy="99.2485" r="14" fill="#009af9" fill-rule="evenodd" fill-opacity="1" stroke="#000000" stroke-opacity="1" stroke-width="3.2"/>
<path clip-path="url(#clip630)" d="
M1974.46 217.33 L2277.23 217.33 L2277.23 96.3696 L1974.46 96.3696  Z
  " fill="#ffffff" fill-rule="evenodd" fill-opacity="1"/>
<polyline clip-path="url(#clip630)" style="stroke:#000000; stroke-width:4; stroke-opacity:1; fill:none" points="
  1974.46,217.33 2277.23,217.33 2277.23,96.3696 1974.46,96.3696 1974.46,217.33 
  "/>
<circle clip-path="url(#clip630)" cx="2075.16" cy="156.85" r="23" fill="#009af9" fill-rule="evenodd" fill-opacity="1" stroke="#000000" stroke-opacity="1" stroke-width="5.12"/>
<circle clip-path="url(#clip630)" cx="2075.16" cy="156.85" r="23" fill="#009af9" fill-rule="evenodd" fill-opacity="1" stroke="#000000" stroke-opacity="1" stroke-width="5.12"/>
<circle clip-path="url(#clip630)" cx="2075.16" cy="156.85" r="23" fill="#009af9" fill-rule="evenodd" fill-opacity="1" stroke="#000000" stroke-opacity="1" stroke-width="5.12"/>
<circle clip-path="url(#clip630)" cx="2075.16" cy="156.85" r="23" fill="#009af9" fill-rule="evenodd" fill-opacity="1" stroke="#000000" stroke-opacity="1" stroke-width="5.12"/>
<circle clip-path="url(#clip630)" cx="2075.16" cy="156.85" r="23" fill="#009af9" fill-rule="evenodd" fill-opacity="1" stroke="#000000" stroke-opacity="1" stroke-width="5.12"/>
<circle clip-path="url(#clip630)" cx="2075.16" cy="156.85" r="23" fill="#009af9" fill-rule="evenodd" fill-opacity="1" stroke="#000000" stroke-opacity="1" stroke-width="5.12"/>
<circle clip-path="url(#clip630)" cx="2075.16" cy="156.85" r="23" fill="#009af9" fill-rule="evenodd" fill-opacity="1" stroke="#000000" stroke-opacity="1" stroke-width="5.12"/>
<circle clip-path="url(#clip630)" cx="2075.16" cy="156.85" r="23" fill="#009af9" fill-rule="evenodd" fill-opacity="1" stroke="#000000" stroke-opacity="1" stroke-width="5.12"/>
<circle clip-path="url(#clip630)" cx="2075.16" cy="156.85" r="23" fill="#009af9" fill-rule="evenodd" fill-opacity="1" stroke="#000000" stroke-opacity="1" stroke-width="5.12"/>
<circle clip-path="url(#clip630)" cx="2075.16" cy="156.85" r="23" fill="#009af9" fill-rule="evenodd" fill-opacity="1" stroke="#000000" stroke-opacity="1" stroke-width="5.12"/>
<circle clip-path="url(#clip630)" cx="2075.16" cy="156.85" r="23" fill="#009af9" fill-rule="evenodd" fill-opacity="1" stroke="#000000" stroke-opacity="1" stroke-width="5.12"/>
<circle clip-path="url(#clip630)" cx="2075.16" cy="156.85" r="23" fill="#009af9" fill-rule="evenodd" fill-opacity="1" stroke="#000000" stroke-opacity="1" stroke-width="5.12"/>
<circle clip-path="url(#clip630)" cx="2075.16" cy="156.85" r="23" fill="#009af9" fill-rule="evenodd" fill-opacity="1" stroke="#000000" stroke-opacity="1" stroke-width="5.12"/>
<circle clip-path="url(#clip630)" cx="2075.16" cy="156.85" r="23" fill="#009af9" fill-rule="evenodd" fill-opacity="1" stroke="#000000" stroke-opacity="1" stroke-width="5.12"/>
<circle clip-path="url(#clip630)" cx="2075.16" cy="156.85" r="23" fill="#009af9" fill-rule="evenodd" fill-opacity="1" stroke="#000000" stroke-opacity="1" stroke-width="5.12"/>
<circle clip-path="url(#clip630)" cx="2075.16" cy="156.85" r="23" fill="#009af9" fill-rule="evenodd" fill-opacity="1" stroke="#000000" stroke-opacity="1" stroke-width="5.12"/>
<circle clip-path="url(#clip630)" cx="2075.16" cy="156.85" r="23" fill="#009af9" fill-rule="evenodd" fill-opacity="1" stroke="#000000" stroke-opacity="1" stroke-width="5.12"/>
<circle clip-path="url(#clip630)" cx="2075.16" cy="156.85" r="23" fill="#009af9" fill-rule="evenodd" fill-opacity="1" stroke="#000000" stroke-opacity="1" stroke-width="5.12"/>
<circle clip-path="url(#clip630)" cx="2075.16" cy="156.85" r="23" fill="#009af9" fill-rule="evenodd" fill-opacity="1" stroke="#000000" stroke-opacity="1" stroke-width="5.12"/>
<circle clip-path="url(#clip630)" cx="2075.16" cy="156.85" r="23" fill="#009af9" fill-rule="evenodd" fill-opacity="1" stroke="#000000" stroke-opacity="1" stroke-width="5.12"/>
<path clip-path="url(#clip630)" d="M 0 0 M2189.7 176.537 Q2187.9 181.167 2186.19 182.579 Q2184.47 183.991 2181.6 183.991 L2178.2 183.991 L2178.2 180.426 L2180.7 180.426 Q2182.46 180.426 2183.43 179.592 Q2184.4 178.759 2185.58 175.657 L2186.35 173.713 L2175.86 148.204 L2180.38 148.204 L2188.48 168.481 L2196.58 148.204 L2201.09 148.204 L2189.7 176.537 Z" fill="#000000" fill-rule="evenodd" fill-opacity="1" /><path clip-path="url(#clip630)" d="M 0 0 M2206.97 170.194 L2214.61 170.194 L2214.61 143.829 L2206.3 145.495 L2206.3 141.236 L2214.57 139.57 L2219.24 139.57 L2219.24 170.194 L2226.88 170.194 L2226.88 174.13 L2206.97 174.13 L2206.97 170.194 Z" fill="#000000" fill-rule="evenodd" fill-opacity="1" /></svg>
