<?xml version="1.0" encoding="utf-8"?>
<svg xmlns="http://www.w3.org/2000/svg" xmlns:xlink="http://www.w3.org/1999/xlink" width="600" height="400" viewBox="0 0 2400 1600">
<defs>
  <clipPath id="clip240">
    <rect x="0" y="0" width="2400" height="1600"/>
  </clipPath>
</defs>
<path clip-path="url(#clip240)" d="
M0 1600 L2400 1600 L2400 0 L0 0  Z
  " fill="#ffffff" fill-rule="evenodd" fill-opacity="1"/>
<defs>
  <clipPath id="clip241">
    <rect x="480" y="0" width="1681" height="1600"/>
  </clipPath>
</defs>
<path clip-path="url(#clip240)" d="
M86.9921 1521.01 L2352.76 1521.01 L2352.76 47.2441 L86.9921 47.2441  Z
  " fill="#ffffff" fill-rule="evenodd" fill-opacity="1"/>
<defs>
  <clipPath id="clip242">
    <rect x="86" y="47" width="2267" height="1475"/>
  </clipPath>
</defs>
<polyline clip-path="url(#clip242)" style="stroke:#000000; stroke-width:2; stroke-opacity:0.1; fill:none" points="
  373,1521.01 373,47.2441 
  "/>
<polyline clip-path="url(#clip242)" style="stroke:#000000; stroke-width:2; stroke-opacity:0.1; fill:none" points="
  789.286,1521.01 789.286,47.2441 
  "/>
<polyline clip-path="url(#clip242)" style="stroke:#000000; stroke-width:2; stroke-opacity:0.1; fill:none" points="
  1205.57,1521.01 1205.57,47.2441 
  "/>
<polyline clip-path="url(#clip242)" style="stroke:#000000; stroke-width:2; stroke-opacity:0.1; fill:none" points="
  1621.86,1521.01 1621.86,47.2441 
  "/>
<polyline clip-path="url(#clip242)" style="stroke:#000000; stroke-width:2; stroke-opacity:0.1; fill:none" points="
  2038.14,1521.01 2038.14,47.2441 
  "/>
<polyline clip-path="url(#clip242)" style="stroke:#000000; stroke-width:2; stroke-opacity:0.1; fill:none" points="
  86.9921,1479.3 2352.76,1479.3 
  "/>
<polyline clip-path="url(#clip242)" style="stroke:#000000; stroke-width:2; stroke-opacity:0.1; fill:none" points="
  86.9921,1202.68 2352.76,1202.68 
  "/>
<polyline clip-path="url(#clip242)" style="stroke:#000000; stroke-width:2; stroke-opacity:0.1; fill:none" points="
  86.9921,926.058 2352.76,926.058 
  "/>
<polyline clip-path="url(#clip242)" style="stroke:#000000; stroke-width:2; stroke-opacity:0.1; fill:none" points="
  86.9921,649.438 2352.76,649.438 
  "/>
<polyline clip-path="url(#clip242)" style="stroke:#000000; stroke-width:2; stroke-opacity:0.1; fill:none" points="
  86.9921,372.819 2352.76,372.819 
  "/>
<polyline clip-path="url(#clip242)" style="stroke:#000000; stroke-width:2; stroke-opacity:0.1; fill:none" points="
  86.9921,96.1989 2352.76,96.1989 
  "/>
<polyline clip-path="url(#clip240)" style="stroke:#000000; stroke-width:4; stroke-opacity:1; fill:none" points="
  86.9921,1521.01 2352.76,1521.01 
  "/>
<polyline clip-path="url(#clip240)" style="stroke:#000000; stroke-width:4; stroke-opacity:1; fill:none" points="
  86.9921,1521.01 86.9921,47.2441 
  "/>
<polyline clip-path="url(#clip240)" style="stroke:#000000; stroke-width:4; stroke-opacity:1; fill:none" points="
  373,1521.01 373,1503.32 
  "/>
<polyline clip-path="url(#clip240)" style="stroke:#000000; stroke-width:4; stroke-opacity:1; fill:none" points="
  789.286,1521.01 789.286,1503.32 
  "/>
<polyline clip-path="url(#clip240)" style="stroke:#000000; stroke-width:4; stroke-opacity:1; fill:none" points="
  1205.57,1521.01 1205.57,1503.32 
  "/>
<polyline clip-path="url(#clip240)" style="stroke:#000000; stroke-width:4; stroke-opacity:1; fill:none" points="
  1621.86,1521.01 1621.86,1503.32 
  "/>
<polyline clip-path="url(#clip240)" style="stroke:#000000; stroke-width:4; stroke-opacity:1; fill:none" points="
  2038.14,1521.01 2038.14,1503.32 
  "/>
<polyline clip-path="url(#clip240)" style="stroke:#000000; stroke-width:4; stroke-opacity:1; fill:none" points="
  86.9921,1479.3 114.181,1479.3 
  "/>
<polyline clip-path="url(#clip240)" style="stroke:#000000; stroke-width:4; stroke-opacity:1; fill:none" points="
  86.9921,1202.68 114.181,1202.68 
  "/>
<polyline clip-path="url(#clip240)" style="stroke:#000000; stroke-width:4; stroke-opacity:1; fill:none" points="
  86.9921,926.058 114.181,926.058 
  "/>
<polyline clip-path="url(#clip240)" style="stroke:#000000; stroke-width:4; stroke-opacity:1; fill:none" points="
  86.9921,649.438 114.181,649.438 
  "/>
<polyline clip-path="url(#clip240)" style="stroke:#000000; stroke-width:4; stroke-opacity:1; fill:none" points="
  86.9921,372.819 114.181,372.819 
  "/>
<polyline clip-path="url(#clip240)" style="stroke:#000000; stroke-width:4; stroke-opacity:1; fill:none" points="
  86.9921,96.1989 114.181,96.1989 
  "/>
<path clip-path="url(#clip240)" d="M 0 0 M295.373 1559.6 L307.85 1559.6 L307.85 1563.39 L295.373 1563.39 L295.373 1559.6 Z" fill="#000000" fill-rule="evenodd" fill-opacity="1" /><path clip-path="url(#clip240)" d="M 0 0 M322.919 1543 Q319.308 1543 317.479 1546.56 Q315.674 1550.11 315.674 1557.23 Q315.674 1564.34 317.479 1567.91 Q319.308 1571.45 322.919 1571.45 Q326.553 1571.45 328.359 1567.91 Q330.188 1564.34 330.188 1557.23 Q330.188 1550.11 328.359 1546.56 Q326.553 1543 322.919 1543 M322.919 1539.29 Q328.729 1539.29 331.785 1543.9 Q334.863 1548.48 334.863 1557.23 Q334.863 1565.96 331.785 1570.57 Q328.729 1575.15 322.919 1575.15 Q317.109 1575.15 314.03 1570.57 Q310.975 1565.96 310.975 1557.23 Q310.975 1548.48 314.03 1543.9 Q317.109 1539.29 322.919 1539.29 Z" fill="#000000" fill-rule="evenodd" fill-opacity="1" /><path clip-path="url(#clip240)" d="M 0 0 M339.933 1568.6 L344.817 1568.6 L344.817 1574.48 L339.933 1574.48 L339.933 1568.6 Z" fill="#000000" fill-rule="evenodd" fill-opacity="1" /><path clip-path="url(#clip240)" d="M 0 0 M359.887 1543 Q356.275 1543 354.447 1546.56 Q352.641 1550.11 352.641 1557.23 Q352.641 1564.34 354.447 1567.91 Q356.275 1571.45 359.887 1571.45 Q363.521 1571.45 365.326 1567.91 Q367.155 1564.34 367.155 1557.23 Q367.155 1550.11 365.326 1546.56 Q363.521 1543 359.887 1543 M359.887 1539.29 Q365.697 1539.29 368.752 1543.9 Q371.831 1548.48 371.831 1557.23 Q371.831 1565.96 368.752 1570.57 Q365.697 1575.15 359.887 1575.15 Q354.076 1575.15 350.998 1570.57 Q347.942 1565.96 347.942 1557.23 Q347.942 1548.48 350.998 1543.9 Q354.076 1539.29 359.887 1539.29 Z" fill="#000000" fill-rule="evenodd" fill-opacity="1" /><path clip-path="url(#clip240)" d="M 0 0 M386.9 1543 Q383.289 1543 381.46 1546.56 Q379.655 1550.11 379.655 1557.23 Q379.655 1564.34 381.46 1567.91 Q383.289 1571.45 386.9 1571.45 Q390.534 1571.45 392.34 1567.91 Q394.169 1564.34 394.169 1557.23 Q394.169 1550.11 392.34 1546.56 Q390.534 1543 386.9 1543 M386.9 1539.29 Q392.71 1539.29 395.766 1543.9 Q398.845 1548.48 398.845 1557.23 Q398.845 1565.96 395.766 1570.57 Q392.71 1575.15 386.9 1575.15 Q381.09 1575.15 378.011 1570.57 Q374.956 1565.96 374.956 1557.23 Q374.956 1548.48 378.011 1543.9 Q381.09 1539.29 386.9 1539.29 Z" fill="#000000" fill-rule="evenodd" fill-opacity="1" /><path clip-path="url(#clip240)" d="M 0 0 M418.081 1555.85 Q421.437 1556.56 423.312 1558.83 Q425.21 1561.1 425.21 1564.43 Q425.21 1569.55 421.692 1572.35 Q418.173 1575.15 411.692 1575.15 Q409.516 1575.15 407.201 1574.71 Q404.909 1574.29 402.456 1573.44 L402.456 1568.92 Q404.4 1570.06 406.715 1570.64 Q409.03 1571.22 411.553 1571.22 Q415.951 1571.22 418.243 1569.48 Q420.557 1567.74 420.557 1564.43 Q420.557 1561.38 418.405 1559.67 Q416.275 1557.93 412.456 1557.93 L408.428 1557.93 L408.428 1554.09 L412.641 1554.09 Q416.09 1554.09 417.919 1552.72 Q419.747 1551.33 419.747 1548.74 Q419.747 1546.08 417.849 1544.67 Q415.974 1543.23 412.456 1543.23 Q410.534 1543.23 408.335 1543.65 Q406.136 1544.06 403.497 1544.94 L403.497 1540.78 Q406.159 1540.04 408.474 1539.67 Q410.812 1539.29 412.872 1539.29 Q418.196 1539.29 421.298 1541.73 Q424.4 1544.13 424.4 1548.25 Q424.4 1551.12 422.757 1553.11 Q421.113 1555.08 418.081 1555.85 Z" fill="#000000" fill-rule="evenodd" fill-opacity="1" /><path clip-path="url(#clip240)" d="M 0 0 M434.307 1570.54 L450.627 1570.54 L450.627 1574.48 L428.682 1574.48 L428.682 1570.54 Q431.344 1567.79 435.928 1563.16 Q440.534 1558.51 441.715 1557.17 Q443.96 1554.64 444.84 1552.91 Q445.743 1551.15 445.743 1549.46 Q445.743 1546.7 443.798 1544.97 Q441.877 1543.23 438.775 1543.23 Q436.576 1543.23 434.122 1543.99 Q431.692 1544.76 428.914 1546.31 L428.914 1541.59 Q431.738 1540.45 434.192 1539.87 Q436.645 1539.29 438.682 1539.29 Q444.053 1539.29 447.247 1541.98 Q450.442 1544.67 450.442 1549.16 Q450.442 1551.29 449.631 1553.21 Q448.844 1555.1 446.738 1557.7 Q446.159 1558.37 443.057 1561.59 Q439.956 1564.78 434.307 1570.54 Z" fill="#000000" fill-rule="evenodd" fill-opacity="1" /><path clip-path="url(#clip240)" d="M 0 0 M711.474 1559.6 L723.951 1559.6 L723.951 1563.39 L711.474 1563.39 L711.474 1559.6 Z" fill="#000000" fill-rule="evenodd" fill-opacity="1" /><path clip-path="url(#clip240)" d="M 0 0 M739.02 1543 Q735.409 1543 733.58 1546.56 Q731.775 1550.11 731.775 1557.23 Q731.775 1564.34 733.58 1567.91 Q735.409 1571.45 739.02 1571.45 Q742.654 1571.45 744.46 1567.91 Q746.288 1564.34 746.288 1557.23 Q746.288 1550.11 744.46 1546.56 Q742.654 1543 739.02 1543 M739.02 1539.29 Q744.83 1539.29 747.886 1543.9 Q750.964 1548.48 750.964 1557.23 Q750.964 1565.96 747.886 1570.57 Q744.83 1575.15 739.02 1575.15 Q733.21 1575.15 730.131 1570.57 Q727.076 1565.96 727.076 1557.23 Q727.076 1548.48 730.131 1543.9 Q733.21 1539.29 739.02 1539.29 Z" fill="#000000" fill-rule="evenodd" fill-opacity="1" /><path clip-path="url(#clip240)" d="M 0 0 M756.034 1568.6 L760.918 1568.6 L760.918 1574.48 L756.034 1574.48 L756.034 1568.6 Z" fill="#000000" fill-rule="evenodd" fill-opacity="1" /><path clip-path="url(#clip240)" d="M 0 0 M775.987 1543 Q772.376 1543 770.548 1546.56 Q768.742 1550.11 768.742 1557.23 Q768.742 1564.34 770.548 1567.91 Q772.376 1571.45 775.987 1571.45 Q779.622 1571.45 781.427 1567.91 Q783.256 1564.34 783.256 1557.23 Q783.256 1550.11 781.427 1546.56 Q779.622 1543 775.987 1543 M775.987 1539.29 Q781.797 1539.29 784.853 1543.9 Q787.932 1548.48 787.932 1557.23 Q787.932 1565.96 784.853 1570.57 Q781.797 1575.15 775.987 1575.15 Q770.177 1575.15 767.098 1570.57 Q764.043 1565.96 764.043 1557.23 Q764.043 1548.48 767.098 1543.9 Q770.177 1539.29 775.987 1539.29 Z" fill="#000000" fill-rule="evenodd" fill-opacity="1" /><path clip-path="url(#clip240)" d="M 0 0 M803.001 1543 Q799.39 1543 797.561 1546.56 Q795.756 1550.11 795.756 1557.23 Q795.756 1564.34 797.561 1567.91 Q799.39 1571.45 803.001 1571.45 Q806.635 1571.45 808.441 1567.91 Q810.27 1564.34 810.27 1557.23 Q810.27 1550.11 808.441 1546.56 Q806.635 1543 803.001 1543 M803.001 1539.29 Q808.811 1539.29 811.867 1543.9 Q814.945 1548.48 814.945 1557.23 Q814.945 1565.96 811.867 1570.57 Q808.811 1575.15 803.001 1575.15 Q797.191 1575.15 794.112 1570.57 Q791.057 1565.96 791.057 1557.23 Q791.057 1548.48 794.112 1543.9 Q797.191 1539.29 803.001 1539.29 Z" fill="#000000" fill-rule="evenodd" fill-opacity="1" /><path clip-path="url(#clip240)" d="M 0 0 M834.181 1555.85 Q837.538 1556.56 839.413 1558.83 Q841.311 1561.1 841.311 1564.43 Q841.311 1569.55 837.793 1572.35 Q834.274 1575.15 827.793 1575.15 Q825.617 1575.15 823.302 1574.71 Q821.01 1574.29 818.557 1573.44 L818.557 1568.92 Q820.501 1570.06 822.816 1570.64 Q825.131 1571.22 827.654 1571.22 Q832.052 1571.22 834.343 1569.48 Q836.658 1567.74 836.658 1564.43 Q836.658 1561.38 834.506 1559.67 Q832.376 1557.93 828.556 1557.93 L824.529 1557.93 L824.529 1554.09 L828.742 1554.09 Q832.191 1554.09 834.019 1552.72 Q835.848 1551.33 835.848 1548.74 Q835.848 1546.08 833.95 1544.67 Q832.075 1543.23 828.556 1543.23 Q826.635 1543.23 824.436 1543.65 Q822.237 1544.06 819.598 1544.94 L819.598 1540.78 Q822.26 1540.04 824.575 1539.67 Q826.913 1539.29 828.973 1539.29 Q834.297 1539.29 837.399 1541.73 Q840.501 1544.13 840.501 1548.25 Q840.501 1551.12 838.857 1553.11 Q837.214 1555.08 834.181 1555.85 Z" fill="#000000" fill-rule="evenodd" fill-opacity="1" /><path clip-path="url(#clip240)" d="M 0 0 M847.191 1570.54 L854.829 1570.54 L854.829 1544.18 L846.519 1545.85 L846.519 1541.59 L854.783 1539.92 L859.459 1539.92 L859.459 1570.54 L867.098 1570.54 L867.098 1574.48 L847.191 1574.48 L847.191 1570.54 Z" fill="#000000" fill-rule="evenodd" fill-opacity="1" /><path clip-path="url(#clip240)" d="M 0 0 M1127.15 1559.6 L1139.62 1559.6 L1139.62 1563.39 L1127.15 1563.39 L1127.15 1559.6 Z" fill="#000000" fill-rule="evenodd" fill-opacity="1" /><path clip-path="url(#clip240)" d="M 0 0 M1154.69 1543 Q1151.08 1543 1149.25 1546.56 Q1147.45 1550.11 1147.45 1557.23 Q1147.45 1564.34 1149.25 1567.91 Q1151.08 1571.45 1154.69 1571.45 Q1158.33 1571.45 1160.13 1567.91 Q1161.96 1564.34 1161.96 1557.23 Q1161.96 1550.11 1160.13 1546.56 Q1158.33 1543 1154.69 1543 M1154.69 1539.29 Q1160.5 1539.29 1163.56 1543.9 Q1166.64 1548.48 1166.64 1557.23 Q1166.64 1565.96 1163.56 1570.57 Q1160.5 1575.15 1154.69 1575.15 Q1148.88 1575.15 1145.8 1570.57 Q1142.75 1565.96 1142.75 1557.23 Q1142.75 1548.48 1145.8 1543.9 Q1148.88 1539.29 1154.69 1539.29 Z" fill="#000000" fill-rule="evenodd" fill-opacity="1" /><path clip-path="url(#clip240)" d="M 0 0 M1171.71 1568.6 L1176.59 1568.6 L1176.59 1574.48 L1171.71 1574.48 L1171.71 1568.6 Z" fill="#000000" fill-rule="evenodd" fill-opacity="1" /><path clip-path="url(#clip240)" d="M 0 0 M1191.66 1543 Q1188.05 1543 1186.22 1546.56 Q1184.41 1550.11 1184.41 1557.23 Q1184.41 1564.34 1186.22 1567.91 Q1188.05 1571.45 1191.66 1571.45 Q1195.29 1571.45 1197.1 1567.91 Q1198.93 1564.34 1198.93 1557.23 Q1198.93 1550.11 1197.1 1546.56 Q1195.29 1543 1191.66 1543 M1191.66 1539.29 Q1197.47 1539.29 1200.53 1543.9 Q1203.6 1548.48 1203.6 1557.23 Q1203.6 1565.96 1200.53 1570.57 Q1197.47 1575.15 1191.66 1575.15 Q1185.85 1575.15 1182.77 1570.57 Q1179.72 1565.96 1179.72 1557.23 Q1179.72 1548.48 1182.77 1543.9 Q1185.85 1539.29 1191.66 1539.29 Z" fill="#000000" fill-rule="evenodd" fill-opacity="1" /><path clip-path="url(#clip240)" d="M 0 0 M1218.67 1543 Q1215.06 1543 1213.23 1546.56 Q1211.43 1550.11 1211.43 1557.23 Q1211.43 1564.34 1213.23 1567.91 Q1215.06 1571.45 1218.67 1571.45 Q1222.31 1571.45 1224.11 1567.91 Q1225.94 1564.34 1225.94 1557.23 Q1225.94 1550.11 1224.11 1546.56 Q1222.31 1543 1218.67 1543 M1218.67 1539.29 Q1224.48 1539.29 1227.54 1543.9 Q1230.62 1548.48 1230.62 1557.23 Q1230.62 1565.96 1227.54 1570.57 Q1224.48 1575.15 1218.67 1575.15 Q1212.86 1575.15 1209.78 1570.57 Q1206.73 1565.96 1206.73 1557.23 Q1206.73 1548.48 1209.78 1543.9 Q1212.86 1539.29 1218.67 1539.29 Z" fill="#000000" fill-rule="evenodd" fill-opacity="1" /><path clip-path="url(#clip240)" d="M 0 0 M1249.85 1555.85 Q1253.21 1556.56 1255.09 1558.83 Q1256.98 1561.1 1256.98 1564.43 Q1256.98 1569.55 1253.47 1572.35 Q1249.95 1575.15 1243.47 1575.15 Q1241.29 1575.15 1238.97 1574.71 Q1236.68 1574.29 1234.23 1573.44 L1234.23 1568.92 Q1236.17 1570.06 1238.49 1570.64 Q1240.8 1571.22 1243.33 1571.22 Q1247.72 1571.22 1250.02 1569.48 Q1252.33 1567.74 1252.33 1564.43 Q1252.33 1561.38 1250.18 1559.67 Q1248.05 1557.93 1244.23 1557.93 L1240.2 1557.93 L1240.2 1554.09 L1244.41 1554.09 Q1247.86 1554.09 1249.69 1552.72 Q1251.52 1551.33 1251.52 1548.74 Q1251.52 1546.08 1249.62 1544.67 Q1247.75 1543.23 1244.23 1543.23 Q1242.31 1543.23 1240.11 1543.65 Q1237.91 1544.06 1235.27 1544.94 L1235.27 1540.78 Q1237.93 1540.04 1240.25 1539.67 Q1242.59 1539.29 1244.65 1539.29 Q1249.97 1539.29 1253.07 1541.73 Q1256.17 1544.13 1256.17 1548.25 Q1256.17 1551.12 1254.53 1553.11 Q1252.89 1555.08 1249.85 1555.85 Z" fill="#000000" fill-rule="evenodd" fill-opacity="1" /><path clip-path="url(#clip240)" d="M 0 0 M1272.05 1543 Q1268.44 1543 1266.61 1546.56 Q1264.81 1550.11 1264.81 1557.23 Q1264.81 1564.34 1266.61 1567.91 Q1268.44 1571.45 1272.05 1571.45 Q1275.69 1571.45 1277.49 1567.91 Q1279.32 1564.34 1279.32 1557.23 Q1279.32 1550.11 1277.49 1546.56 Q1275.69 1543 1272.05 1543 M1272.05 1539.29 Q1277.86 1539.29 1280.92 1543.9 Q1284 1548.48 1284 1557.23 Q1284 1565.96 1280.92 1570.57 Q1277.86 1575.15 1272.05 1575.15 Q1266.24 1575.15 1263.16 1570.57 Q1260.11 1565.96 1260.11 1557.23 Q1260.11 1548.48 1263.16 1543.9 Q1266.24 1539.29 1272.05 1539.29 Z" fill="#000000" fill-rule="evenodd" fill-opacity="1" /><path clip-path="url(#clip240)" d="M 0 0 M1544 1559.6 L1556.48 1559.6 L1556.48 1563.39 L1544 1563.39 L1544 1559.6 Z" fill="#000000" fill-rule="evenodd" fill-opacity="1" /><path clip-path="url(#clip240)" d="M 0 0 M1571.55 1543 Q1567.93 1543 1566.11 1546.56 Q1564.3 1550.11 1564.3 1557.23 Q1564.3 1564.34 1566.11 1567.91 Q1567.93 1571.45 1571.55 1571.45 Q1575.18 1571.45 1576.99 1567.91 Q1578.81 1564.34 1578.81 1557.23 Q1578.81 1550.11 1576.99 1546.56 Q1575.18 1543 1571.55 1543 M1571.55 1539.29 Q1577.36 1539.29 1580.41 1543.9 Q1583.49 1548.48 1583.49 1557.23 Q1583.49 1565.96 1580.41 1570.57 Q1577.36 1575.15 1571.55 1575.15 Q1565.74 1575.15 1562.66 1570.57 Q1559.6 1565.96 1559.6 1557.23 Q1559.6 1548.48 1562.66 1543.9 Q1565.74 1539.29 1571.55 1539.29 Z" fill="#000000" fill-rule="evenodd" fill-opacity="1" /><path clip-path="url(#clip240)" d="M 0 0 M1588.56 1568.6 L1593.44 1568.6 L1593.44 1574.48 L1588.56 1574.48 L1588.56 1568.6 Z" fill="#000000" fill-rule="evenodd" fill-opacity="1" /><path clip-path="url(#clip240)" d="M 0 0 M1608.51 1543 Q1604.9 1543 1603.07 1546.56 Q1601.27 1550.11 1601.27 1557.23 Q1601.27 1564.34 1603.07 1567.91 Q1604.9 1571.45 1608.51 1571.45 Q1612.15 1571.45 1613.95 1567.91 Q1615.78 1564.34 1615.78 1557.23 Q1615.78 1550.11 1613.95 1546.56 Q1612.15 1543 1608.51 1543 M1608.51 1539.29 Q1614.32 1539.29 1617.38 1543.9 Q1620.46 1548.48 1620.46 1557.23 Q1620.46 1565.96 1617.38 1570.57 Q1614.32 1575.15 1608.51 1575.15 Q1602.7 1575.15 1599.62 1570.57 Q1596.57 1565.96 1596.57 1557.23 Q1596.57 1548.48 1599.62 1543.9 Q1602.7 1539.29 1608.51 1539.29 Z" fill="#000000" fill-rule="evenodd" fill-opacity="1" /><path clip-path="url(#clip240)" d="M 0 0 M1635.53 1543 Q1631.92 1543 1630.09 1546.56 Q1628.28 1550.11 1628.28 1557.23 Q1628.28 1564.34 1630.09 1567.91 Q1631.92 1571.45 1635.53 1571.45 Q1639.16 1571.45 1640.97 1567.91 Q1642.8 1564.34 1642.8 1557.23 Q1642.8 1550.11 1640.97 1546.56 Q1639.16 1543 1635.53 1543 M1635.53 1539.29 Q1641.34 1539.29 1644.39 1543.9 Q1647.47 1548.48 1647.47 1557.23 Q1647.47 1565.96 1644.39 1570.57 Q1641.34 1575.15 1635.53 1575.15 Q1629.72 1575.15 1626.64 1570.57 Q1623.58 1565.96 1623.58 1557.23 Q1623.58 1548.48 1626.64 1543.9 Q1629.72 1539.29 1635.53 1539.29 Z" fill="#000000" fill-rule="evenodd" fill-opacity="1" /><path clip-path="url(#clip240)" d="M 0 0 M1656.57 1570.54 L1672.89 1570.54 L1672.89 1574.48 L1650.94 1574.48 L1650.94 1570.54 Q1653.61 1567.79 1658.19 1563.16 Q1662.8 1558.51 1663.98 1557.17 Q1666.22 1554.64 1667.1 1552.91 Q1668 1551.15 1668 1549.46 Q1668 1546.7 1666.06 1544.97 Q1664.14 1543.23 1661.04 1543.23 Q1658.84 1543.23 1656.38 1543.99 Q1653.95 1544.76 1651.17 1546.31 L1651.17 1541.59 Q1654 1540.45 1656.45 1539.87 Q1658.91 1539.29 1660.94 1539.29 Q1666.31 1539.29 1669.51 1541.98 Q1672.7 1544.67 1672.7 1549.16 Q1672.7 1551.29 1671.89 1553.21 Q1671.11 1555.1 1669 1557.7 Q1668.42 1558.37 1665.32 1561.59 Q1662.22 1564.78 1656.57 1570.54 Z" fill="#000000" fill-rule="evenodd" fill-opacity="1" /><path clip-path="url(#clip240)" d="M 0 0 M1678.1 1573.76 L1678.1 1569.5 Q1679.86 1570.34 1681.66 1570.78 Q1683.47 1571.22 1685.2 1571.22 Q1689.83 1571.22 1692.26 1568.11 Q1694.72 1564.99 1695.06 1558.65 Q1693.72 1560.64 1691.66 1561.7 Q1689.6 1562.77 1687.1 1562.77 Q1681.92 1562.77 1678.88 1559.64 Q1675.87 1556.49 1675.87 1551.05 Q1675.87 1545.73 1679.02 1542.51 Q1682.17 1539.29 1687.4 1539.29 Q1693.4 1539.29 1696.54 1543.9 Q1699.72 1548.48 1699.72 1557.23 Q1699.72 1565.41 1695.83 1570.29 Q1691.96 1575.15 1685.41 1575.15 Q1683.65 1575.15 1681.85 1574.8 Q1680.04 1574.46 1678.1 1573.76 M1687.4 1559.11 Q1690.55 1559.11 1692.38 1556.96 Q1694.23 1554.8 1694.23 1551.05 Q1694.23 1547.33 1692.38 1545.17 Q1690.55 1543 1687.4 1543 Q1684.25 1543 1682.4 1545.17 Q1680.57 1547.33 1680.57 1551.05 Q1680.57 1554.8 1682.4 1556.96 Q1684.25 1559.11 1687.4 1559.11 Z" fill="#000000" fill-rule="evenodd" fill-opacity="1" /><path clip-path="url(#clip240)" d="M 0 0 M1960.24 1559.6 L1972.72 1559.6 L1972.72 1563.39 L1960.24 1563.39 L1960.24 1559.6 Z" fill="#000000" fill-rule="evenodd" fill-opacity="1" /><path clip-path="url(#clip240)" d="M 0 0 M1987.79 1543 Q1984.17 1543 1982.35 1546.56 Q1980.54 1550.11 1980.54 1557.23 Q1980.54 1564.34 1982.35 1567.91 Q1984.17 1571.45 1987.79 1571.45 Q1991.42 1571.45 1993.23 1567.91 Q1995.05 1564.34 1995.05 1557.23 Q1995.05 1550.11 1993.23 1546.56 Q1991.42 1543 1987.79 1543 M1987.79 1539.29 Q1993.6 1539.29 1996.65 1543.9 Q1999.73 1548.48 1999.73 1557.23 Q1999.73 1565.96 1996.65 1570.57 Q1993.6 1575.15 1987.79 1575.15 Q1981.98 1575.15 1978.9 1570.57 Q1975.84 1565.96 1975.84 1557.23 Q1975.84 1548.48 1978.9 1543.9 Q1981.98 1539.29 1987.79 1539.29 Z" fill="#000000" fill-rule="evenodd" fill-opacity="1" /><path clip-path="url(#clip240)" d="M 0 0 M2004.8 1568.6 L2009.68 1568.6 L2009.68 1574.48 L2004.8 1574.48 L2004.8 1568.6 Z" fill="#000000" fill-rule="evenodd" fill-opacity="1" /><path clip-path="url(#clip240)" d="M 0 0 M2024.75 1543 Q2021.14 1543 2019.31 1546.56 Q2017.51 1550.11 2017.51 1557.23 Q2017.51 1564.34 2019.31 1567.91 Q2021.14 1571.45 2024.75 1571.45 Q2028.39 1571.45 2030.19 1567.91 Q2032.02 1564.34 2032.02 1557.23 Q2032.02 1550.11 2030.19 1546.56 Q2028.39 1543 2024.75 1543 M2024.75 1539.29 Q2030.56 1539.29 2033.62 1543.9 Q2036.7 1548.48 2036.7 1557.23 Q2036.7 1565.96 2033.62 1570.57 Q2030.56 1575.15 2024.75 1575.15 Q2018.94 1575.15 2015.86 1570.57 Q2012.81 1565.96 2012.81 1557.23 Q2012.81 1548.48 2015.86 1543.9 Q2018.94 1539.29 2024.75 1539.29 Z" fill="#000000" fill-rule="evenodd" fill-opacity="1" /><path clip-path="url(#clip240)" d="M 0 0 M2051.77 1543 Q2048.16 1543 2046.33 1546.56 Q2044.52 1550.11 2044.52 1557.23 Q2044.52 1564.34 2046.33 1567.91 Q2048.16 1571.45 2051.77 1571.45 Q2055.4 1571.45 2057.21 1567.91 Q2059.03 1564.34 2059.03 1557.23 Q2059.03 1550.11 2057.21 1546.56 Q2055.4 1543 2051.77 1543 M2051.77 1539.29 Q2057.58 1539.29 2060.63 1543.9 Q2063.71 1548.48 2063.71 1557.23 Q2063.71 1565.96 2060.63 1570.57 Q2057.58 1575.15 2051.77 1575.15 Q2045.96 1575.15 2042.88 1570.57 Q2039.82 1565.96 2039.82 1557.23 Q2039.82 1548.48 2042.88 1543.9 Q2045.96 1539.29 2051.77 1539.29 Z" fill="#000000" fill-rule="evenodd" fill-opacity="1" /><path clip-path="url(#clip240)" d="M 0 0 M2072.81 1570.54 L2089.13 1570.54 L2089.13 1574.48 L2067.18 1574.48 L2067.18 1570.54 Q2069.84 1567.79 2074.43 1563.16 Q2079.03 1558.51 2080.22 1557.17 Q2082.46 1554.64 2083.34 1552.91 Q2084.24 1551.15 2084.24 1549.46 Q2084.24 1546.7 2082.3 1544.97 Q2080.38 1543.23 2077.28 1543.23 Q2075.08 1543.23 2072.62 1543.99 Q2070.19 1544.76 2067.41 1546.31 L2067.41 1541.59 Q2070.24 1540.45 2072.69 1539.87 Q2075.15 1539.29 2077.18 1539.29 Q2082.55 1539.29 2085.75 1541.98 Q2088.94 1544.67 2088.94 1549.16 Q2088.94 1551.29 2088.13 1553.21 Q2087.34 1555.1 2085.24 1557.7 Q2084.66 1558.37 2081.56 1561.59 Q2078.46 1564.78 2072.81 1570.54 Z" fill="#000000" fill-rule="evenodd" fill-opacity="1" /><path clip-path="url(#clip240)" d="M 0 0 M2104.2 1558.07 Q2100.86 1558.07 2098.94 1559.85 Q2097.04 1561.63 2097.04 1564.76 Q2097.04 1567.88 2098.94 1569.67 Q2100.86 1571.45 2104.2 1571.45 Q2107.53 1571.45 2109.45 1569.67 Q2111.37 1567.86 2111.37 1564.76 Q2111.37 1561.63 2109.45 1559.85 Q2107.55 1558.07 2104.2 1558.07 M2099.52 1556.08 Q2096.51 1555.34 2094.82 1553.28 Q2093.16 1551.22 2093.16 1548.25 Q2093.16 1544.11 2096.09 1541.7 Q2099.06 1539.29 2104.2 1539.29 Q2109.36 1539.29 2112.3 1541.7 Q2115.24 1544.11 2115.24 1548.25 Q2115.24 1551.22 2113.55 1553.28 Q2111.88 1555.34 2108.9 1556.08 Q2112.28 1556.86 2114.15 1559.16 Q2116.05 1561.45 2116.05 1564.76 Q2116.05 1569.78 2112.97 1572.47 Q2109.91 1575.15 2104.2 1575.15 Q2098.48 1575.15 2095.4 1572.47 Q2092.34 1569.78 2092.34 1564.76 Q2092.34 1561.45 2094.24 1559.16 Q2096.14 1556.86 2099.52 1556.08 M2097.81 1548.69 Q2097.81 1551.38 2099.47 1552.88 Q2101.16 1554.39 2104.2 1554.39 Q2107.21 1554.39 2108.9 1552.88 Q2110.61 1551.38 2110.61 1548.69 Q2110.61 1546.01 2108.9 1544.5 Q2107.21 1543 2104.2 1543 Q2101.16 1543 2099.47 1544.5 Q2097.81 1546.01 2097.81 1548.69 Z" fill="#000000" fill-rule="evenodd" fill-opacity="1" /><path clip-path="url(#clip240)" d="M 0 0 M51.0477 1465.1 Q47.4367 1465.1 45.608 1468.66 Q43.8024 1472.2 43.8024 1479.33 Q43.8024 1486.44 45.608 1490 Q47.4367 1493.55 51.0477 1493.55 Q54.682 1493.55 56.4875 1490 Q58.3162 1486.44 58.3162 1479.33 Q58.3162 1472.2 56.4875 1468.66 Q54.682 1465.1 51.0477 1465.1 M51.0477 1461.39 Q56.8579 1461.39 59.9134 1466 Q62.9921 1470.58 62.9921 1479.33 Q62.9921 1488.06 59.9134 1492.67 Q56.8579 1497.25 51.0477 1497.25 Q45.2376 1497.25 42.1589 1492.67 Q39.1034 1488.06 39.1034 1479.33 Q39.1034 1470.58 42.1589 1466 Q45.2376 1461.39 51.0477 1461.39 Z" fill="#000000" fill-rule="evenodd" fill-opacity="1" /><path clip-path="url(#clip240)" d="M 0 0 M-37.9564 1216.02 L-30.3176 1216.02 L-30.3176 1189.66 L-38.6277 1191.32 L-38.6277 1187.06 L-30.3639 1185.4 L-25.688 1185.4 L-25.688 1216.02 L-18.0491 1216.02 L-18.0491 1219.96 L-37.9564 1219.96 L-37.9564 1216.02 Z" fill="#000000" fill-rule="evenodd" fill-opacity="1" /><path clip-path="url(#clip240)" d="M 0 0 M-2.97974 1188.48 Q-6.59083 1188.48 -8.41953 1192.04 Q-10.2251 1195.58 -10.2251 1202.71 Q-10.2251 1209.82 -8.41953 1213.38 Q-6.59083 1216.93 -2.97974 1216.93 Q0.654497 1216.93 2.46004 1213.38 Q4.28874 1209.82 4.28874 1202.71 Q4.28874 1195.58 2.46004 1192.04 Q0.654497 1188.48 -2.97974 1188.48 M-2.97974 1184.77 Q2.83041 1184.77 5.88595 1189.38 Q8.96464 1193.96 8.96464 1202.71 Q8.96464 1211.44 5.88595 1216.05 Q2.83041 1220.63 -2.97974 1220.63 Q-8.7899 1220.63 -11.8686 1216.05 Q-14.9241 1211.44 -14.9241 1202.71 Q-14.9241 1193.96 -11.8686 1189.38 Q-8.7899 1184.77 -2.97974 1184.77 Z" fill="#000000" fill-rule="evenodd" fill-opacity="1" /><path clip-path="url(#clip240)" d="M 0 0 M24.034 1188.48 Q20.4229 1188.48 18.5942 1192.04 Q16.7887 1195.58 16.7887 1202.71 Q16.7887 1209.82 18.5942 1213.38 Q20.4229 1216.93 24.034 1216.93 Q27.6682 1216.93 29.4738 1213.38 Q31.3025 1209.82 31.3025 1202.71 Q31.3025 1195.58 29.4738 1192.04 Q27.6682 1188.48 24.034 1188.48 M24.034 1184.77 Q29.8442 1184.77 32.8997 1189.38 Q35.9784 1193.96 35.9784 1202.71 Q35.9784 1211.44 32.8997 1216.05 Q29.8442 1220.63 24.034 1220.63 Q18.2238 1220.63 15.1452 1216.05 Q12.0896 1211.44 12.0896 1202.71 Q12.0896 1193.96 15.1452 1189.38 Q18.2238 1184.77 24.034 1184.77 Z" fill="#000000" fill-rule="evenodd" fill-opacity="1" /><path clip-path="url(#clip240)" d="M 0 0 M51.0477 1188.48 Q47.4367 1188.48 45.608 1192.04 Q43.8024 1195.58 43.8024 1202.71 Q43.8024 1209.82 45.608 1213.38 Q47.4367 1216.93 51.0477 1216.93 Q54.682 1216.93 56.4875 1213.38 Q58.3162 1209.82 58.3162 1202.71 Q58.3162 1195.58 56.4875 1192.04 Q54.682 1188.48 51.0477 1188.48 M51.0477 1184.77 Q56.8579 1184.77 59.9134 1189.38 Q62.9921 1193.96 62.9921 1202.71 Q62.9921 1211.44 59.9134 1216.05 Q56.8579 1220.63 51.0477 1220.63 Q45.2376 1220.63 42.1589 1216.05 Q39.1034 1211.44 39.1034 1202.71 Q39.1034 1193.96 42.1589 1189.38 Q45.2376 1184.77 51.0477 1184.77 Z" fill="#000000" fill-rule="evenodd" fill-opacity="1" /><path clip-path="url(#clip240)" d="M 0 0 M-34.3685 939.403 L-18.0491 939.403 L-18.0491 943.338 L-39.9934 943.338 L-39.9934 939.403 Q-37.3314 936.648 -32.7481 932.019 Q-28.1416 927.366 -26.9611 926.023 Q-24.7157 923.5 -23.8361 921.764 Q-22.9333 920.005 -22.9333 918.315 Q-22.9333 915.56 -24.8778 913.824 Q-26.7991 912.088 -29.9009 912.088 Q-32.1 912.088 -34.5536 912.852 Q-36.9842 913.616 -39.762 915.167 L-39.762 910.445 Q-36.9379 909.311 -34.4842 908.732 Q-32.0305 908.153 -29.9935 908.153 Q-24.6231 908.153 -21.4287 910.838 Q-18.2343 913.523 -18.2343 918.014 Q-18.2343 920.144 -19.0445 922.065 Q-19.8315 923.963 -21.938 926.556 Q-22.5167 927.227 -25.6185 930.445 Q-28.7203 933.639 -34.3685 939.403 Z" fill="#000000" fill-rule="evenodd" fill-opacity="1" /><path clip-path="url(#clip240)" d="M 0 0 M-2.97974 911.857 Q-6.59083 911.857 -8.41953 915.422 Q-10.2251 918.963 -10.2251 926.093 Q-10.2251 933.199 -8.41953 936.764 Q-6.59083 940.306 -2.97974 940.306 Q0.654497 940.306 2.46004 936.764 Q4.28874 933.199 4.28874 926.093 Q4.28874 918.963 2.46004 915.422 Q0.654497 911.857 -2.97974 911.857 M-2.97974 908.153 Q2.83041 908.153 5.88595 912.76 Q8.96464 917.343 8.96464 926.093 Q8.96464 934.82 5.88595 939.426 Q2.83041 944.009 -2.97974 944.009 Q-8.7899 944.009 -11.8686 939.426 Q-14.9241 934.82 -14.9241 926.093 Q-14.9241 917.343 -11.8686 912.76 Q-8.7899 908.153 -2.97974 908.153 Z" fill="#000000" fill-rule="evenodd" fill-opacity="1" /><path clip-path="url(#clip240)" d="M 0 0 M24.034 911.857 Q20.4229 911.857 18.5942 915.422 Q16.7887 918.963 16.7887 926.093 Q16.7887 933.199 18.5942 936.764 Q20.4229 940.306 24.034 940.306 Q27.6682 940.306 29.4738 936.764 Q31.3025 933.199 31.3025 926.093 Q31.3025 918.963 29.4738 915.422 Q27.6682 911.857 24.034 911.857 M24.034 908.153 Q29.8442 908.153 32.8997 912.76 Q35.9784 917.343 35.9784 926.093 Q35.9784 934.82 32.8997 939.426 Q29.8442 944.009 24.034 944.009 Q18.2238 944.009 15.1452 939.426 Q12.0896 934.82 12.0896 926.093 Q12.0896 917.343 15.1452 912.76 Q18.2238 908.153 24.034 908.153 Z" fill="#000000" fill-rule="evenodd" fill-opacity="1" /><path clip-path="url(#clip240)" d="M 0 0 M51.0477 911.857 Q47.4367 911.857 45.608 915.422 Q43.8024 918.963 43.8024 926.093 Q43.8024 933.199 45.608 936.764 Q47.4367 940.306 51.0477 940.306 Q54.682 940.306 56.4875 936.764 Q58.3162 933.199 58.3162 926.093 Q58.3162 918.963 56.4875 915.422 Q54.682 911.857 51.0477 911.857 M51.0477 908.153 Q56.8579 908.153 59.9134 912.76 Q62.9921 917.343 62.9921 926.093 Q62.9921 934.82 59.9134 939.426 Q56.8579 944.009 51.0477 944.009 Q45.2376 944.009 42.1589 939.426 Q39.1034 934.82 39.1034 926.093 Q39.1034 917.343 42.1589 912.76 Q45.2376 908.153 51.0477 908.153 Z" fill="#000000" fill-rule="evenodd" fill-opacity="1" /><path clip-path="url(#clip240)" d="M 0 0 M-25.1787 648.084 Q-21.8222 648.802 -19.9472 651.07 Q-18.0491 653.339 -18.0491 656.672 Q-18.0491 661.788 -21.5676 664.589 Q-25.0861 667.39 -31.5676 667.39 Q-33.7435 667.39 -36.0583 666.95 Q-38.3499 666.533 -40.8036 665.677 L-40.8036 661.163 Q-38.8592 662.297 -36.5444 662.876 Q-34.2296 663.454 -31.7064 663.454 Q-27.3083 663.454 -25.0167 661.718 Q-22.7019 659.982 -22.7019 656.672 Q-22.7019 653.617 -24.8546 651.904 Q-26.9842 650.168 -30.8037 650.168 L-34.8314 650.168 L-34.8314 646.325 L-30.6185 646.325 Q-27.1694 646.325 -25.3407 644.959 Q-23.512 643.57 -23.512 640.978 Q-23.512 638.316 -25.4102 636.904 Q-27.2852 635.469 -30.8037 635.469 Q-32.725 635.469 -34.924 635.885 Q-37.1231 636.302 -39.762 637.181 L-39.762 633.015 Q-37.0999 632.274 -34.7851 631.904 Q-32.4472 631.533 -30.387 631.533 Q-25.063 631.533 -21.9611 633.964 Q-18.8593 636.371 -18.8593 640.492 Q-18.8593 643.362 -20.5028 645.353 Q-22.1463 647.32 -25.1787 648.084 Z" fill="#000000" fill-rule="evenodd" fill-opacity="1" /><path clip-path="url(#clip240)" d="M 0 0 M-2.97974 635.237 Q-6.59083 635.237 -8.41953 638.802 Q-10.2251 642.343 -10.2251 649.473 Q-10.2251 656.58 -8.41953 660.144 Q-6.59083 663.686 -2.97974 663.686 Q0.654497 663.686 2.46004 660.144 Q4.28874 656.58 4.28874 649.473 Q4.28874 642.343 2.46004 638.802 Q0.654497 635.237 -2.97974 635.237 M-2.97974 631.533 Q2.83041 631.533 5.88595 636.14 Q8.96464 640.723 8.96464 649.473 Q8.96464 658.2 5.88595 662.806 Q2.83041 667.39 -2.97974 667.39 Q-8.7899 667.39 -11.8686 662.806 Q-14.9241 658.2 -14.9241 649.473 Q-14.9241 640.723 -11.8686 636.14 Q-8.7899 631.533 -2.97974 631.533 Z" fill="#000000" fill-rule="evenodd" fill-opacity="1" /><path clip-path="url(#clip240)" d="M 0 0 M24.034 635.237 Q20.4229 635.237 18.5942 638.802 Q16.7887 642.343 16.7887 649.473 Q16.7887 656.58 18.5942 660.144 Q20.4229 663.686 24.034 663.686 Q27.6682 663.686 29.4738 660.144 Q31.3025 656.58 31.3025 649.473 Q31.3025 642.343 29.4738 638.802 Q27.6682 635.237 24.034 635.237 M24.034 631.533 Q29.8442 631.533 32.8997 636.14 Q35.9784 640.723 35.9784 649.473 Q35.9784 658.2 32.8997 662.806 Q29.8442 667.39 24.034 667.39 Q18.2238 667.39 15.1452 662.806 Q12.0896 658.2 12.0896 649.473 Q12.0896 640.723 15.1452 636.14 Q18.2238 631.533 24.034 631.533 Z" fill="#000000" fill-rule="evenodd" fill-opacity="1" /><path clip-path="url(#clip240)" d="M 0 0 M51.0477 635.237 Q47.4367 635.237 45.608 638.802 Q43.8024 642.343 43.8024 649.473 Q43.8024 656.58 45.608 660.144 Q47.4367 663.686 51.0477 663.686 Q54.682 663.686 56.4875 660.144 Q58.3162 656.58 58.3162 649.473 Q58.3162 642.343 56.4875 638.802 Q54.682 635.237 51.0477 635.237 M51.0477 631.533 Q56.8579 631.533 59.9134 636.14 Q62.9921 640.723 62.9921 649.473 Q62.9921 658.2 59.9134 662.806 Q56.8579 667.39 51.0477 667.39 Q45.2376 667.39 42.1589 662.806 Q39.1034 658.2 39.1034 649.473 Q39.1034 640.723 42.1589 636.14 Q45.2376 631.533 51.0477 631.533 Z" fill="#000000" fill-rule="evenodd" fill-opacity="1" /><path clip-path="url(#clip240)" d="M 0 0 M-27.6324 359.613 L-39.4379 378.062 L-27.6324 378.062 L-27.6324 359.613 M-28.8592 355.539 L-22.9796 355.539 L-22.9796 378.062 L-18.0491 378.062 L-18.0491 381.951 L-22.9796 381.951 L-22.9796 390.099 L-27.6324 390.099 L-27.6324 381.951 L-43.2342 381.951 L-43.2342 377.437 L-28.8592 355.539 Z" fill="#000000" fill-rule="evenodd" fill-opacity="1" /><path clip-path="url(#clip240)" d="M 0 0 M-2.97974 358.617 Q-6.59083 358.617 -8.41953 362.182 Q-10.2251 365.724 -10.2251 372.853 Q-10.2251 379.96 -8.41953 383.525 Q-6.59083 387.066 -2.97974 387.066 Q0.654497 387.066 2.46004 383.525 Q4.28874 379.96 4.28874 372.853 Q4.28874 365.724 2.46004 362.182 Q0.654497 358.617 -2.97974 358.617 M-2.97974 354.914 Q2.83041 354.914 5.88595 359.52 Q8.96464 364.103 8.96464 372.853 Q8.96464 381.58 5.88595 386.187 Q2.83041 390.77 -2.97974 390.77 Q-8.7899 390.77 -11.8686 386.187 Q-14.9241 381.58 -14.9241 372.853 Q-14.9241 364.103 -11.8686 359.52 Q-8.7899 354.914 -2.97974 354.914 Z" fill="#000000" fill-rule="evenodd" fill-opacity="1" /><path clip-path="url(#clip240)" d="M 0 0 M24.034 358.617 Q20.4229 358.617 18.5942 362.182 Q16.7887 365.724 16.7887 372.853 Q16.7887 379.96 18.5942 383.525 Q20.4229 387.066 24.034 387.066 Q27.6682 387.066 29.4738 383.525 Q31.3025 379.96 31.3025 372.853 Q31.3025 365.724 29.4738 362.182 Q27.6682 358.617 24.034 358.617 M24.034 354.914 Q29.8442 354.914 32.8997 359.52 Q35.9784 364.103 35.9784 372.853 Q35.9784 381.58 32.8997 386.187 Q29.8442 390.77 24.034 390.77 Q18.2238 390.77 15.1452 386.187 Q12.0896 381.58 12.0896 372.853 Q12.0896 364.103 15.1452 359.52 Q18.2238 354.914 24.034 354.914 Z" fill="#000000" fill-rule="evenodd" fill-opacity="1" /><path clip-path="url(#clip240)" d="M 0 0 M51.0477 358.617 Q47.4367 358.617 45.608 362.182 Q43.8024 365.724 43.8024 372.853 Q43.8024 379.96 45.608 383.525 Q47.4367 387.066 51.0477 387.066 Q54.682 387.066 56.4875 383.525 Q58.3162 379.96 58.3162 372.853 Q58.3162 365.724 56.4875 362.182 Q54.682 358.617 51.0477 358.617 M51.0477 354.914 Q56.8579 354.914 59.9134 359.52 Q62.9921 364.103 62.9921 372.853 Q62.9921 381.58 59.9134 386.187 Q56.8579 390.77 51.0477 390.77 Q45.2376 390.77 42.1589 386.187 Q39.1034 381.58 39.1034 372.853 Q39.1034 364.103 42.1589 359.52 Q45.2376 354.914 51.0477 354.914 Z" fill="#000000" fill-rule="evenodd" fill-opacity="1" /><path clip-path="url(#clip240)" d="M 0 0 M-38.9518 78.9189 L-20.5954 78.9189 L-20.5954 82.8541 L-34.6694 82.8541 L-34.6694 91.3262 Q-33.6509 90.979 -32.6324 90.817 Q-31.6138 90.6318 -30.5953 90.6318 Q-24.8083 90.6318 -21.4287 93.8031 Q-18.0491 96.9744 -18.0491 102.391 Q-18.0491 107.97 -21.5213 111.072 Q-24.9935 114.15 -31.3129 114.15 Q-33.4888 114.15 -35.7573 113.78 Q-38.0027 113.409 -40.4101 112.669 L-40.4101 107.97 Q-38.3268 109.104 -36.1046 109.659 Q-33.8824 110.215 -31.4055 110.215 Q-27.4009 110.215 -25.063 108.109 Q-22.725 106.002 -22.725 102.391 Q-22.725 98.7799 -25.063 96.6734 Q-27.4009 94.567 -31.4055 94.567 Q-33.2805 94.567 -35.1555 94.9836 Q-37.0073 95.4003 -38.9518 96.2799 L-38.9518 78.9189 Z" fill="#000000" fill-rule="evenodd" fill-opacity="1" /><path clip-path="url(#clip240)" d="M 0 0 M-2.97974 81.9976 Q-6.59083 81.9976 -8.41953 85.5624 Q-10.2251 89.104 -10.2251 96.2336 Q-10.2251 103.34 -8.41953 106.905 Q-6.59083 110.447 -2.97974 110.447 Q0.654497 110.447 2.46004 106.905 Q4.28874 103.34 4.28874 96.2336 Q4.28874 89.104 2.46004 85.5624 Q0.654497 81.9976 -2.97974 81.9976 M-2.97974 78.2939 Q2.83041 78.2939 5.88595 82.9004 Q8.96464 87.4837 8.96464 96.2336 Q8.96464 104.96 5.88595 109.567 Q2.83041 114.15 -2.97974 114.15 Q-8.7899 114.15 -11.8686 109.567 Q-14.9241 104.96 -14.9241 96.2336 Q-14.9241 87.4837 -11.8686 82.9004 Q-8.7899 78.2939 -2.97974 78.2939 Z" fill="#000000" fill-rule="evenodd" fill-opacity="1" /><path clip-path="url(#clip240)" d="M 0 0 M24.034 81.9976 Q20.4229 81.9976 18.5942 85.5624 Q16.7887 89.104 16.7887 96.2336 Q16.7887 103.34 18.5942 106.905 Q20.4229 110.447 24.034 110.447 Q27.6682 110.447 29.4738 106.905 Q31.3025 103.34 31.3025 96.2336 Q31.3025 89.104 29.4738 85.5624 Q27.6682 81.9976 24.034 81.9976 M24.034 78.2939 Q29.8442 78.2939 32.8997 82.9004 Q35.9784 87.4837 35.9784 96.2336 Q35.9784 104.96 32.8997 109.567 Q29.8442 114.15 24.034 114.15 Q18.2238 114.15 15.1452 109.567 Q12.0896 104.96 12.0896 96.2336 Q12.0896 87.4837 15.1452 82.9004 Q18.2238 78.2939 24.034 78.2939 Z" fill="#000000" fill-rule="evenodd" fill-opacity="1" /><path clip-path="url(#clip240)" d="M 0 0 M51.0477 81.9976 Q47.4367 81.9976 45.608 85.5624 Q43.8024 89.104 43.8024 96.2336 Q43.8024 103.34 45.608 106.905 Q47.4367 110.447 51.0477 110.447 Q54.682 110.447 56.4875 106.905 Q58.3162 103.34 58.3162 96.2336 Q58.3162 89.104 56.4875 85.5624 Q54.682 81.9976 51.0477 81.9976 M51.0477 78.2939 Q56.8579 78.2939 59.9134 82.9004 Q62.9921 87.4837 62.9921 96.2336 Q62.9921 104.96 59.9134 109.567 Q56.8579 114.15 51.0477 114.15 Q45.2376 114.15 42.1589 109.567 Q39.1034 104.96 39.1034 96.2336 Q39.1034 87.4837 42.1589 82.9004 Q45.2376 78.2939 51.0477 78.2939 Z" fill="#000000" fill-rule="evenodd" fill-opacity="1" /><path clip-path="url(#clip242)" d="
M151.118 1415.81 L153.237 1413.01 L155.356 1410.14 L157.475 1407.2 L159.594 1404.17 L161.713 1401.06 L163.832 1397.88 L165.951 1394.61 L168.071 1391.27 L170.19 1387.84 
  L172.309 1384.34 L174.428 1380.75 L176.547 1377.08 L178.666 1373.34 L180.785 1369.51 L182.904 1365.61 L185.024 1361.63 L187.143 1357.57 L189.262 1353.44 L191.381 1349.24 
  L193.5 1344.97 L195.619 1340.63 L197.738 1336.22 L199.857 1331.75 L201.977 1327.22 L204.096 1322.64 L206.215 1318 L208.334 1313.31 L210.453 1308.58 L212.572 1303.81 
  L214.691 1299 L216.81 1294.16 L218.93 1289.29 L221.049 1284.41 L223.168 1279.5 L225.287 1274.59 L227.406 1269.67 L229.525 1264.76 L231.644 1259.85 L233.763 1254.95 
  L235.882 1250.07 L238.002 1245.21 L240.121 1240.38 L242.24 1235.58 L244.359 1230.82 L246.478 1226.11 L248.597 1221.44 L250.716 1216.83 L252.835 1212.28 L254.955 1207.79 
  L257.074 1203.36 L259.193 1199 L261.312 1194.71 L263.431 1190.5 L265.55 1186.36 L267.669 1182.3 L269.788 1178.33 L271.908 1174.43 L274.027 1170.62 L276.146 1166.89 
  L278.265 1163.25 L280.384 1159.69 L282.503 1156.21 L284.622 1152.81 L286.741 1149.5 L288.861 1146.27 L290.98 1143.11 L293.099 1140.03 L295.218 1137.02 L297.337 1134.09 
  L299.456 1131.22 L301.575 1128.42 L303.694 1125.68 L305.814 1122.99 L307.933 1120.36 L310.052 1117.79 L312.171 1115.25 L314.29 1112.76 L316.409 1110.31 L318.528 1107.89 
  L320.647 1105.5 L322.767 1103.14 L324.886 1100.79 L327.005 1098.46 L329.124 1096.14 L331.243 1093.82 L333.362 1091.5 L335.481 1089.18 L337.6 1086.85 L339.72 1084.5 
  L341.839 1082.13 L343.958 1079.74 L346.077 1077.32 L348.196 1074.87 L350.315 1072.38 L352.434 1069.84 L354.553 1067.26 L356.673 1064.64 L358.792 1061.95 L360.911 1059.21 
  L360.911 1479.3 L358.792 1479.3 L356.673 1479.3 L354.553 1479.3 L352.434 1479.3 L350.315 1479.3 L348.196 1479.3 L346.077 1479.3 L343.958 1479.3 L341.839 1479.3 
  L339.72 1479.3 L337.6 1479.3 L335.481 1479.3 L333.362 1479.3 L331.243 1479.3 L329.124 1479.3 L327.005 1479.3 L324.886 1479.3 L322.767 1479.3 L320.647 1479.3 
  L318.528 1479.3 L316.409 1479.3 L314.29 1479.3 L312.171 1479.3 L310.052 1479.3 L307.933 1479.3 L305.814 1479.3 L303.694 1479.3 L301.575 1479.3 L299.456 1479.3 
  L297.337 1479.3 L295.218 1479.3 L293.099 1479.3 L290.98 1479.3 L288.861 1479.3 L286.741 1479.3 L284.622 1479.3 L282.503 1479.3 L280.384 1479.3 L278.265 1479.3 
  L276.146 1479.3 L274.027 1479.3 L271.908 1479.3 L269.788 1479.3 L267.669 1479.3 L265.55 1479.3 L263.431 1479.3 L261.312 1479.3 L259.193 1479.3 L257.074 1479.3 
  L254.955 1479.3 L252.835 1479.3 L250.716 1479.3 L248.597 1479.3 L246.478 1479.3 L244.359 1479.3 L242.24 1479.3 L240.121 1479.3 L238.002 1479.3 L235.882 1479.3 
  L233.763 1479.3 L231.644 1479.3 L229.525 1479.3 L227.406 1479.3 L225.287 1479.3 L223.168 1479.3 L221.049 1479.3 L218.93 1479.3 L216.81 1479.3 L214.691 1479.3 
  L212.572 1479.3 L210.453 1479.3 L208.334 1479.3 L206.215 1479.3 L204.096 1479.3 L201.977 1479.3 L199.857 1479.3 L197.738 1479.3 L195.619 1479.3 L193.5 1479.3 
  L191.381 1479.3 L189.262 1479.3 L187.143 1479.3 L185.024 1479.3 L182.904 1479.3 L180.785 1479.3 L178.666 1479.3 L176.547 1479.3 L174.428 1479.3 L172.309 1479.3 
  L170.19 1479.3 L168.071 1479.3 L165.951 1479.3 L163.832 1479.3 L161.713 1479.3 L159.594 1479.3 L157.475 1479.3 L155.356 1479.3 L153.237 1479.3 L151.118 1479.3 
   Z
  " fill="#ffa500" fill-rule="evenodd" fill-opacity="0.5"/>
<polyline clip-path="url(#clip242)" style="stroke:#ffa500; stroke-width:4; stroke-opacity:1; fill:none" points="
  151.118,1415.81 153.237,1413.01 155.356,1410.14 157.475,1407.2 159.594,1404.17 161.713,1401.06 163.832,1397.88 165.951,1394.61 168.071,1391.27 170.19,1387.84 
  172.309,1384.34 174.428,1380.75 176.547,1377.08 178.666,1373.34 180.785,1369.51 182.904,1365.61 185.024,1361.63 187.143,1357.57 189.262,1353.44 191.381,1349.24 
  193.5,1344.97 195.619,1340.63 197.738,1336.22 199.857,1331.75 201.977,1327.22 204.096,1322.64 206.215,1318 208.334,1313.31 210.453,1308.58 212.572,1303.81 
  214.691,1299 216.81,1294.16 218.93,1289.29 221.049,1284.41 223.168,1279.5 225.287,1274.59 227.406,1269.67 229.525,1264.76 231.644,1259.85 233.763,1254.95 
  235.882,1250.07 238.002,1245.21 240.121,1240.38 242.24,1235.58 244.359,1230.82 246.478,1226.11 248.597,1221.44 250.716,1216.83 252.835,1212.28 254.955,1207.79 
  257.074,1203.36 259.193,1199 261.312,1194.71 263.431,1190.5 265.55,1186.36 267.669,1182.3 269.788,1178.33 271.908,1174.43 274.027,1170.62 276.146,1166.89 
  278.265,1163.25 280.384,1159.69 282.503,1156.21 284.622,1152.81 286.741,1149.5 288.861,1146.27 290.98,1143.11 293.099,1140.03 295.218,1137.02 297.337,1134.09 
  299.456,1131.22 301.575,1128.42 303.694,1125.68 305.814,1122.99 307.933,1120.36 310.052,1117.79 312.171,1115.25 314.29,1112.76 316.409,1110.31 318.528,1107.89 
  320.647,1105.5 322.767,1103.14 324.886,1100.79 327.005,1098.46 329.124,1096.14 331.243,1093.82 333.362,1091.5 335.481,1089.18 337.6,1086.85 339.72,1084.5 
  341.839,1082.13 343.958,1079.74 346.077,1077.32 348.196,1074.87 350.315,1072.38 352.434,1069.84 354.553,1067.26 356.673,1064.64 358.792,1061.95 360.911,1059.21 
  
  "/>
<path clip-path="url(#clip242)" d="
M360.911 1059.21 L372.873 1042.56 L384.835 1023.68 L396.797 1002.65 L408.759 979.983 L420.721 956.565 L432.682 933.515 L444.644 911.942 L456.606 892.722 L468.568 876.342 
  L480.53 862.843 L492.492 851.862 L504.454 842.745 L516.416 834.678 L528.378 826.796 L540.34 818.285 L552.302 808.463 L564.264 796.879 L576.226 783.429 L588.188 768.459 
  L600.149 752.799 L612.111 737.682 L624.073 724.502 L636.035 714.435 L647.997 708.027 L659.959 704.857 L671.921 703.431 L683.883 701.369 L695.845 695.883 L707.807 684.406 
  L719.769 665.2 L731.731 637.741 L743.693 602.76 L755.655 561.942 L767.617 517.381 L779.578 471.012 L791.54 424.214 L803.502 377.715 L815.464 331.813 L827.426 286.782 
  L839.388 243.271 L851.35 202.495 L863.312 166.121 L875.274 135.877 L887.236 113.053 L899.198 98.0978 L911.16 90.4927 L923.122 88.9544 L935.084 91.8775 L947.046 97.8411 
  L959.007 105.986 L970.969 116.145 L982.931 128.721 L994.893 144.386 L1006.86 163.738 L1018.82 186.995 L1030.78 213.812 L1042.74 243.214 L1054.7 273.666 L1066.66 303.271 
  L1078.63 330.074 L1090.59 352.433 L1102.55 369.374 L1114.51 380.833 L1126.47 387.68 L1138.44 391.504 L1150.4 394.206 L1162.36 397.541 L1174.32 402.773 L1186.28 410.563 
  L1198.25 421.133 L1210.21 434.579 L1222.17 451.159 L1234.13 471.385 L1246.09 495.861 L1258.06 524.94 L1270.02 558.4 L1281.98 595.324 L1293.94 634.289 L1305.9 673.778 
  L1317.87 712.648 L1329.83 750.429 L1341.79 787.323 L1353.75 823.895 L1365.71 860.599 L1377.68 897.326 L1389.64 933.162 L1401.6 966.454 L1413.56 995.16 L1425.52 1017.39 
  L1437.48 1031.98 L1449.45 1038.89 L1461.41 1039.39 L1473.37 1035.92 L1485.33 1031.65 L1497.29 1029.91 L1509.26 1033.53 L1521.22 1044.38 L1533.18 1063.07 L1545.14 1089.02 
  L1545.14 1479.3 L1533.18 1479.3 L1521.22 1479.3 L1509.26 1479.3 L1497.29 1479.3 L1485.33 1479.3 L1473.37 1479.3 L1461.41 1479.3 L1449.45 1479.3 L1437.48 1479.3 
  L1425.52 1479.3 L1413.56 1479.3 L1401.6 1479.3 L1389.64 1479.3 L1377.68 1479.3 L1365.71 1479.3 L1353.75 1479.3 L1341.79 1479.3 L1329.83 1479.3 L1317.87 1479.3 
  L1305.9 1479.3 L1293.94 1479.3 L1281.98 1479.3 L1270.02 1479.3 L1258.06 1479.3 L1246.09 1479.3 L1234.13 1479.3 L1222.17 1479.3 L1210.21 1479.3 L1198.25 1479.3 
  L1186.28 1479.3 L1174.32 1479.3 L1162.36 1479.3 L1150.4 1479.3 L1138.44 1479.3 L1126.47 1479.3 L1114.51 1479.3 L1102.55 1479.3 L1090.59 1479.3 L1078.63 1479.3 
  L1066.66 1479.3 L1054.7 1479.3 L1042.74 1479.3 L1030.78 1479.3 L1018.82 1479.3 L1006.86 1479.3 L994.893 1479.3 L982.931 1479.3 L970.969 1479.3 L959.007 1479.3 
  L947.046 1479.3 L935.084 1479.3 L923.122 1479.3 L911.16 1479.3 L899.198 1479.3 L887.236 1479.3 L875.274 1479.3 L863.312 1479.3 L851.35 1479.3 L839.388 1479.3 
  L827.426 1479.3 L815.464 1479.3 L803.502 1479.3 L791.54 1479.3 L779.578 1479.3 L767.617 1479.3 L755.655 1479.3 L743.693 1479.3 L731.731 1479.3 L719.769 1479.3 
  L707.807 1479.3 L695.845 1479.3 L683.883 1479.3 L671.921 1479.3 L659.959 1479.3 L647.997 1479.3 L636.035 1479.3 L624.073 1479.3 L612.111 1479.3 L600.149 1479.3 
  L588.188 1479.3 L576.226 1479.3 L564.264 1479.3 L552.302 1479.3 L540.34 1479.3 L528.378 1479.3 L516.416 1479.3 L504.454 1479.3 L492.492 1479.3 L480.53 1479.3 
  L468.568 1479.3 L456.606 1479.3 L444.644 1479.3 L432.682 1479.3 L420.721 1479.3 L408.759 1479.3 L396.797 1479.3 L384.835 1479.3 L372.873 1479.3 L360.911 1479.3 
   Z
  " fill="#008000" fill-rule="evenodd" fill-opacity="0.5"/>
<polyline clip-path="url(#clip242)" style="stroke:#008000; stroke-width:4; stroke-opacity:1; fill:none" points="
  360.911,1059.21 372.873,1042.56 384.835,1023.68 396.797,1002.65 408.759,979.983 420.721,956.565 432.682,933.515 444.644,911.942 456.606,892.722 468.568,876.342 
  480.53,862.843 492.492,851.862 504.454,842.745 516.416,834.678 528.378,826.796 540.34,818.285 552.302,808.463 564.264,796.879 576.226,783.429 588.188,768.459 
  600.149,752.799 612.111,737.682 624.073,724.502 636.035,714.435 647.997,708.027 659.959,704.857 671.921,703.431 683.883,701.369 695.845,695.883 707.807,684.406 
  719.769,665.2 731.731,637.741 743.693,602.76 755.655,561.942 767.617,517.381 779.578,471.012 791.54,424.214 803.502,377.715 815.464,331.813 827.426,286.782 
  839.388,243.271 851.35,202.495 863.312,166.121 875.274,135.877 887.236,113.053 899.198,98.0978 911.16,90.4927 923.122,88.9544 935.084,91.8775 947.046,97.8411 
  959.007,105.986 970.969,116.145 982.931,128.721 994.893,144.386 1006.86,163.738 1018.82,186.995 1030.78,213.812 1042.74,243.214 1054.7,273.666 1066.66,303.271 
  1078.63,330.074 1090.59,352.433 1102.55,369.374 1114.51,380.833 1126.47,387.68 1138.44,391.504 1150.4,394.206 1162.36,397.541 1174.32,402.773 1186.28,410.563 
  1198.25,421.133 1210.21,434.579 1222.17,451.159 1234.13,471.385 1246.09,495.861 1258.06,524.94 1270.02,558.4 1281.98,595.324 1293.94,634.289 1305.9,673.778 
  1317.87,712.648 1329.83,750.429 1341.79,787.323 1353.75,823.895 1365.71,860.599 1377.68,897.326 1389.64,933.162 1401.6,966.454 1413.56,995.16 1425.52,1017.39 
  1437.48,1031.98 1449.45,1038.89 1461.41,1039.39 1473.37,1035.92 1485.33,1031.65 1497.29,1029.91 1509.26,1033.53 1521.22,1044.38 1533.18,1063.07 1545.14,1089.02 
  
  "/>
<path clip-path="url(#clip242)" d="
M1545.14 1089.02 L1552.65 1108.35 L1560.16 1129.44 L1567.67 1151.73 L1575.18 1174.67 L1582.69 1197.75 L1590.2 1220.51 L1597.71 1242.55 L1605.22 1263.59 L1612.73 1283.38 
  L1620.24 1301.79 L1627.75 1318.75 L1635.26 1334.24 L1642.77 1348.29 L1650.28 1360.99 L1657.79 1372.43 L1665.3 1382.75 L1672.81 1392.07 L1680.32 1400.54 L1687.83 1408.28 
  L1695.34 1415.4 L1702.85 1421.99 L1710.36 1428.14 L1717.87 1433.89 L1725.38 1439.25 L1732.89 1444.25 L1740.4 1448.87 L1747.91 1453.08 L1755.42 1456.89 L1762.93 1460.25 
  L1770.44 1463.16 L1777.95 1465.63 L1785.46 1467.64 L1792.97 1469.24 L1800.48 1470.44 L1807.99 1471.29 L1815.5 1471.84 L1823.01 1472.14 L1830.52 1472.26 L1838.03 1472.24 
  L1845.54 1472.14 L1853.05 1472.01 L1860.56 1471.89 L1868.07 1471.79 L1875.58 1471.75 L1883.09 1471.77 L1890.6 1471.85 L1898.11 1471.98 L1905.62 1472.14 L1913.13 1472.32 
  L1920.64 1472.48 L1928.15 1472.61 L1935.66 1472.68 L1943.17 1472.67 L1950.68 1472.57 L1958.19 1472.37 L1965.7 1472.06 L1973.21 1471.64 L1980.72 1471.14 L1988.23 1470.55 
  L1995.74 1469.89 L2003.25 1469.16 L2010.76 1468.37 L2018.27 1467.5 L2025.78 1466.51 L2033.29 1465.36 L2040.8 1463.97 L2048.31 1462.26 L2055.82 1460.11 L2063.33 1457.41 
  L2070.84 1454.05 L2078.35 1449.91 L2085.86 1444.93 L2093.37 1439.06 L2100.88 1432.3 L2108.39 1424.7 L2115.9 1416.36 L2123.41 1407.45 L2130.92 1398.16 L2138.43 1388.71 
  L2145.94 1379.34 L2153.45 1370.26 L2160.96 1361.7 L2168.47 1353.81 L2175.98 1346.74 L2183.49 1340.59 L2191 1335.4 L2198.51 1331.22 L2206.02 1328.06 L2213.53 1325.94 
  L2221.04 1324.9 L2228.55 1324.96 L2236.06 1326.18 L2243.57 1328.63 L2251.08 1332.34 L2258.59 1337.34 L2266.1 1343.62 L2273.61 1351.11 L2281.12 1359.7 L2288.63 1369.2 
  L2288.63 1479.3 L2281.12 1479.3 L2273.61 1479.3 L2266.1 1479.3 L2258.59 1479.3 L2251.08 1479.3 L2243.57 1479.3 L2236.06 1479.3 L2228.55 1479.3 L2221.04 1479.3 
  L2213.53 1479.3 L2206.02 1479.3 L2198.51 1479.3 L2191 1479.3 L2183.49 1479.3 L2175.98 1479.3 L2168.47 1479.3 L2160.96 1479.3 L2153.45 1479.3 L2145.94 1479.3 
  L2138.43 1479.3 L2130.92 1479.3 L2123.41 1479.3 L2115.9 1479.3 L2108.39 1479.3 L2100.88 1479.3 L2093.37 1479.3 L2085.86 1479.3 L2078.35 1479.3 L2070.84 1479.3 
  L2063.33 1479.3 L2055.82 1479.3 L2048.31 1479.3 L2040.8 1479.3 L2033.29 1479.3 L2025.78 1479.3 L2018.27 1479.3 L2010.76 1479.3 L2003.25 1479.3 L1995.74 1479.3 
  L1988.23 1479.3 L1980.72 1479.3 L1973.21 1479.3 L1965.7 1479.3 L1958.19 1479.3 L1950.68 1479.3 L1943.17 1479.3 L1935.66 1479.3 L1928.15 1479.3 L1920.64 1479.3 
  L1913.13 1479.3 L1905.62 1479.3 L1898.11 1479.3 L1890.6 1479.3 L1883.09 1479.3 L1875.58 1479.3 L1868.07 1479.3 L1860.56 1479.3 L1853.05 1479.3 L1845.54 1479.3 
  L1838.03 1479.3 L1830.52 1479.3 L1823.01 1479.3 L1815.5 1479.3 L1807.99 1479.3 L1800.48 1479.3 L1792.97 1479.3 L1785.46 1479.3 L1777.95 1479.3 L1770.44 1479.3 
  L1762.93 1479.3 L1755.42 1479.3 L1747.91 1479.3 L1740.4 1479.3 L1732.89 1479.3 L1725.38 1479.3 L1717.87 1479.3 L1710.36 1479.3 L1702.85 1479.3 L1695.34 1479.3 
  L1687.83 1479.3 L1680.32 1479.3 L1672.81 1479.3 L1665.3 1479.3 L1657.79 1479.3 L1650.28 1479.3 L1642.77 1479.3 L1635.26 1479.3 L1627.75 1479.3 L1620.24 1479.3 
  L1612.73 1479.3 L1605.22 1479.3 L1597.71 1479.3 L1590.2 1479.3 L1582.69 1479.3 L1575.18 1479.3 L1567.67 1479.3 L1560.16 1479.3 L1552.65 1479.3 L1545.14 1479.3 
   Z
  " fill="#ffa500" fill-rule="evenodd" fill-opacity="0.5"/>
<polyline clip-path="url(#clip242)" style="stroke:#ffa500; stroke-width:4; stroke-opacity:1; fill:none" points="
  1545.14,1089.02 1552.65,1108.35 1560.16,1129.44 1567.67,1151.73 1575.18,1174.67 1582.69,1197.75 1590.2,1220.51 1597.71,1242.55 1605.22,1263.59 1612.73,1283.38 
  1620.24,1301.79 1627.75,1318.75 1635.26,1334.24 1642.77,1348.29 1650.28,1360.99 1657.79,1372.43 1665.3,1382.75 1672.81,1392.07 1680.32,1400.54 1687.83,1408.28 
  1695.34,1415.4 1702.85,1421.99 1710.36,1428.14 1717.87,1433.89 1725.38,1439.25 1732.89,1444.25 1740.4,1448.87 1747.91,1453.08 1755.42,1456.89 1762.93,1460.25 
  1770.44,1463.16 1777.95,1465.63 1785.46,1467.64 1792.97,1469.24 1800.48,1470.44 1807.99,1471.29 1815.5,1471.84 1823.01,1472.14 1830.52,1472.26 1838.03,1472.24 
  1845.54,1472.14 1853.05,1472.01 1860.56,1471.89 1868.07,1471.79 1875.58,1471.75 1883.09,1471.77 1890.6,1471.85 1898.11,1471.98 1905.62,1472.14 1913.13,1472.32 
  1920.64,1472.48 1928.15,1472.61 1935.66,1472.68 1943.17,1472.67 1950.68,1472.57 1958.19,1472.37 1965.7,1472.06 1973.21,1471.64 1980.72,1471.14 1988.23,1470.55 
  1995.74,1469.89 2003.25,1469.16 2010.76,1468.37 2018.27,1467.5 2025.78,1466.51 2033.29,1465.36 2040.8,1463.97 2048.31,1462.26 2055.82,1460.11 2063.33,1457.41 
  2070.84,1454.05 2078.35,1449.91 2085.86,1444.93 2093.37,1439.06 2100.88,1432.3 2108.39,1424.7 2115.9,1416.36 2123.41,1407.45 2130.92,1398.16 2138.43,1388.71 
  2145.94,1379.34 2153.45,1370.26 2160.96,1361.7 2168.47,1353.81 2175.98,1346.74 2183.49,1340.59 2191,1335.4 2198.51,1331.22 2206.02,1328.06 2213.53,1325.94 
  2221.04,1324.9 2228.55,1324.96 2236.06,1326.18 2243.57,1328.63 2251.08,1332.34 2258.59,1337.34 2266.1,1343.62 2273.61,1351.11 2281.12,1359.7 2288.63,1369.2 
  
  "/>
<polyline clip-path="url(#clip242)" style="stroke:#0000ff; stroke-width:4; stroke-opacity:1; fill:none" points="
  973.487,1479.3 973.487,118.57 
  "/>
<polyline clip-path="url(#clip242)" style="stroke:#000000; stroke-width:4; stroke-opacity:1; fill:none" points="
  962.565,1479.3 962.565,108.788 
  "/>
<path clip-path="url(#clip240)" d="
M1494.58 459.25 L2277.23 459.25 L2277.23 96.3696 L1494.58 96.3696  Z
  " fill="#ffffff" fill-rule="evenodd" fill-opacity="1"/>
<polyline clip-path="url(#clip240)" style="stroke:#000000; stroke-width:4; stroke-opacity:1; fill:none" points="
  1494.58,459.25 2277.23,459.25 2277.23,96.3696 1494.58,96.3696 1494.58,459.25 
  "/>
<path clip-path="url(#clip240)" d="
M1519.75 181.042 L1670.81 181.042 L1670.81 132.658 L1519.75 132.658 L1519.75 181.042  Z
  " fill="#ffa500" fill-rule="evenodd" fill-opacity="0.5"/>
<polyline clip-path="url(#clip240)" style="stroke:#ffa500; stroke-width:4; stroke-opacity:1; fill:none" points="
  1519.75,132.658 1670.81,132.658 
  "/>
<path clip-path="url(#clip240)" d="M 0 0 M1700.38 161.19 Q1700.38 165.889 1702.3 168.574 Q1704.24 171.236 1707.62 171.236 Q1711 171.236 1712.95 168.574 Q1714.89 165.889 1714.89 161.19 Q1714.89 156.491 1712.95 153.829 Q1711 151.144 1707.62 151.144 Q1704.24 151.144 1702.3 153.829 Q1700.38 156.491 1700.38 161.19 M1714.89 170.241 Q1713.55 172.555 1711.49 173.69 Q1709.45 174.801 1706.58 174.801 Q1701.88 174.801 1698.92 171.051 Q1695.98 167.301 1695.98 161.19 Q1695.98 155.079 1698.92 151.329 Q1701.88 147.579 1706.58 147.579 Q1709.45 147.579 1711.49 148.713 Q1713.55 149.824 1714.89 152.139 L1714.89 148.204 L1719.15 148.204 L1719.15 183.991 L1714.89 183.991 L1714.89 170.241 Z" fill="#000000" fill-rule="evenodd" fill-opacity="1" /><path clip-path="url(#clip240)" d="M 0 0 M1734.22 142.648 Q1730.61 142.648 1728.78 146.213 Q1726.98 149.755 1726.98 156.884 Q1726.98 163.991 1728.78 167.556 Q1730.61 171.097 1734.22 171.097 Q1737.85 171.097 1739.66 167.556 Q1741.49 163.991 1741.49 156.884 Q1741.49 149.755 1739.66 146.213 Q1737.85 142.648 1734.22 142.648 M1734.22 138.945 Q1740.03 138.945 1743.09 143.551 Q1746.17 148.134 1746.17 156.884 Q1746.17 165.611 1743.09 170.218 Q1740.03 174.801 1734.22 174.801 Q1728.41 174.801 1725.33 170.218 Q1722.28 165.611 1722.28 156.884 Q1722.28 148.134 1725.33 143.551 Q1728.41 138.945 1734.22 138.945 Z" fill="#000000" fill-rule="evenodd" fill-opacity="1" /><path clip-path="url(#clip240)" d="M 0 0 M1751.28 139.57 L1769.64 139.57 L1769.64 143.505 L1755.56 143.505 L1755.56 151.977 Q1756.58 151.63 1757.6 151.468 Q1758.62 151.282 1759.64 151.282 Q1765.42 151.282 1768.8 154.454 Q1772.18 157.625 1772.18 163.042 Q1772.18 168.62 1768.71 171.722 Q1765.24 174.801 1758.92 174.801 Q1756.74 174.801 1754.48 174.43 Q1752.23 174.06 1749.82 173.319 L1749.82 168.62 Q1751.91 169.755 1754.13 170.31 Q1756.35 170.866 1758.83 170.866 Q1762.83 170.866 1765.17 168.759 Q1767.51 166.653 1767.51 163.042 Q1767.51 159.431 1765.17 157.324 Q1762.83 155.218 1758.83 155.218 Q1756.95 155.218 1755.08 155.634 Q1753.23 156.051 1751.28 156.931 L1751.28 139.57 Z" fill="#000000" fill-rule="evenodd" fill-opacity="1" /><path clip-path="url(#clip240)" d="
M1519.75 241.522 L1670.81 241.522 L1670.81 193.138 L1519.75 193.138 L1519.75 241.522  Z
  " fill="#008000" fill-rule="evenodd" fill-opacity="0.5"/>
<polyline clip-path="url(#clip240)" style="stroke:#008000; stroke-width:4; stroke-opacity:1; fill:none" points="
  1519.75,193.138 1670.81,193.138 
  "/>
<path clip-path="url(#clip240)" d="M 0 0 M1698.2 233.892 L1698.2 229.633 Q1699.96 230.466 1701.77 230.906 Q1703.57 231.346 1705.31 231.346 Q1709.94 231.346 1712.37 228.244 Q1714.82 225.119 1715.17 218.776 Q1713.83 220.767 1711.77 221.832 Q1709.71 222.897 1707.21 222.897 Q1702.02 222.897 1698.99 219.772 Q1695.98 216.624 1695.98 211.184 Q1695.98 205.86 1699.13 202.642 Q1702.28 199.425 1707.51 199.425 Q1713.5 199.425 1716.65 204.031 Q1719.82 208.614 1719.82 217.364 Q1719.82 225.536 1715.93 230.42 Q1712.07 235.281 1705.52 235.281 Q1703.76 235.281 1701.95 234.934 Q1700.15 234.586 1698.2 233.892 M1707.51 219.239 Q1710.66 219.239 1712.48 217.086 Q1714.34 214.934 1714.34 211.184 Q1714.34 207.457 1712.48 205.304 Q1710.66 203.128 1707.51 203.128 Q1704.36 203.128 1702.51 205.304 Q1700.68 207.457 1700.68 211.184 Q1700.68 214.934 1702.51 217.086 Q1704.36 219.239 1707.51 219.239 Z" fill="#000000" fill-rule="evenodd" fill-opacity="1" /><path clip-path="url(#clip240)" d="M 0 0 M1734.89 203.128 Q1731.28 203.128 1729.45 206.693 Q1727.65 210.235 1727.65 217.364 Q1727.65 224.471 1729.45 228.036 Q1731.28 231.577 1734.89 231.577 Q1738.53 231.577 1740.33 228.036 Q1742.16 224.471 1742.16 217.364 Q1742.16 210.235 1740.33 206.693 Q1738.53 203.128 1734.89 203.128 M1734.89 199.425 Q1740.7 199.425 1743.76 204.031 Q1746.84 208.614 1746.84 217.364 Q1746.84 226.091 1743.76 230.698 Q1740.7 235.281 1734.89 235.281 Q1729.08 235.281 1726 230.698 Q1722.95 226.091 1722.95 217.364 Q1722.95 208.614 1726 204.031 Q1729.08 199.425 1734.89 199.425 Z" fill="#000000" fill-rule="evenodd" fill-opacity="1" /><path clip-path="url(#clip240)" d="M 0 0 M1781.3 219.401 Q1779.29 219.401 1778.13 221.114 Q1777 222.827 1777 225.883 Q1777 228.892 1778.13 230.628 Q1779.29 232.341 1781.3 232.341 Q1783.27 232.341 1784.41 230.628 Q1785.56 228.892 1785.56 225.883 Q1785.56 222.85 1784.41 221.137 Q1783.27 219.401 1781.3 219.401 M1781.3 216.462 Q1784.96 216.462 1787.11 219.008 Q1789.27 221.554 1789.27 225.883 Q1789.27 230.211 1787.09 232.758 Q1784.94 235.281 1781.3 235.281 Q1777.6 235.281 1775.45 232.758 Q1773.29 230.211 1773.29 225.883 Q1773.29 221.531 1775.45 219.008 Q1777.62 216.462 1781.3 216.462 M1757.42 202.364 Q1755.42 202.364 1754.27 204.1 Q1753.13 205.813 1753.13 208.823 Q1753.13 211.878 1754.27 213.591 Q1755.4 215.304 1757.42 215.304 Q1759.43 215.304 1760.56 213.591 Q1761.72 211.878 1761.72 208.823 Q1761.72 205.837 1760.56 204.1 Q1759.41 202.364 1757.42 202.364 M1778.32 199.425 L1782.02 199.425 L1760.4 235.281 L1756.7 235.281 L1778.32 199.425 M1757.42 199.425 Q1761.07 199.425 1763.25 201.971 Q1765.42 204.494 1765.42 208.823 Q1765.42 213.198 1763.25 215.721 Q1761.1 218.244 1757.42 218.244 Q1753.73 218.244 1751.58 215.721 Q1749.45 213.174 1749.45 208.823 Q1749.45 204.517 1751.6 201.971 Q1753.76 199.425 1757.42 199.425 Z" fill="#000000" fill-rule="evenodd" fill-opacity="1" /><path clip-path="url(#clip240)" d="M 0 0 M1830.35 218.961 L1830.35 234.61 L1826.1 234.61 L1826.1 219.1 Q1826.1 215.42 1824.66 213.591 Q1823.22 211.762 1820.35 211.762 Q1816.91 211.762 1814.91 213.962 Q1812.92 216.161 1812.92 219.957 L1812.92 234.61 L1808.64 234.61 L1808.64 208.684 L1812.92 208.684 L1812.92 212.712 Q1814.45 210.374 1816.51 209.216 Q1818.6 208.059 1821.3 208.059 Q1825.77 208.059 1828.06 210.837 Q1830.35 213.591 1830.35 218.961 Z" fill="#000000" fill-rule="evenodd" fill-opacity="1" /><path clip-path="url(#clip240)" d="M 0 0 M1844.87 211.67 Q1841.44 211.67 1839.45 214.355 Q1837.46 217.017 1837.46 221.67 Q1837.46 226.323 1839.43 229.008 Q1841.42 231.67 1844.87 231.67 Q1848.27 231.67 1850.26 228.985 Q1852.25 226.299 1852.25 221.67 Q1852.25 217.063 1850.26 214.378 Q1848.27 211.67 1844.87 211.67 M1844.87 208.059 Q1850.42 208.059 1853.6 211.67 Q1856.77 215.281 1856.77 221.67 Q1856.77 228.036 1853.6 231.67 Q1850.42 235.281 1844.87 235.281 Q1839.29 235.281 1836.12 231.67 Q1832.97 228.036 1832.97 221.67 Q1832.97 215.281 1836.12 211.67 Q1839.29 208.059 1844.87 208.059 Z" fill="#000000" fill-rule="evenodd" fill-opacity="1" /><path clip-path="url(#clip240)" d="M 0 0 M1882.78 218.961 L1882.78 234.61 L1878.53 234.61 L1878.53 219.1 Q1878.53 215.42 1877.09 213.591 Q1875.66 211.762 1872.78 211.762 Q1869.34 211.762 1867.35 213.962 Q1865.35 216.161 1865.35 219.957 L1865.35 234.61 L1861.07 234.61 L1861.07 208.684 L1865.35 208.684 L1865.35 212.712 Q1866.88 210.374 1868.94 209.216 Q1871.03 208.059 1873.73 208.059 Q1878.2 208.059 1880.49 210.837 Q1882.78 213.591 1882.78 218.961 Z" fill="#000000" fill-rule="evenodd" fill-opacity="1" /><path clip-path="url(#clip240)" d="M 0 0 M1885.1 219.725 L1897.58 219.725 L1897.58 223.522 L1885.1 223.522 L1885.1 219.725 Z" fill="#000000" fill-rule="evenodd" fill-opacity="1" /><path clip-path="url(#clip240)" d="M 0 0 M1917.07 212.665 Q1916.35 212.249 1915.49 212.063 Q1914.66 211.855 1913.64 211.855 Q1910.03 211.855 1908.09 214.216 Q1906.16 216.554 1906.16 220.952 L1906.16 234.61 L1901.88 234.61 L1901.88 208.684 L1906.16 208.684 L1906.16 212.712 Q1907.51 210.35 1909.66 209.216 Q1911.81 208.059 1914.89 208.059 Q1915.33 208.059 1915.86 208.128 Q1916.4 208.175 1917.04 208.29 L1917.07 212.665 Z" fill="#000000" fill-rule="evenodd" fill-opacity="1" /><path clip-path="url(#clip240)" d="M 0 0 M1942.67 220.582 L1942.67 222.665 L1923.09 222.665 Q1923.36 227.063 1925.72 229.378 Q1928.11 231.67 1932.34 231.67 Q1934.8 231.67 1937.09 231.068 Q1939.4 230.466 1941.67 229.262 L1941.67 233.29 Q1939.38 234.262 1936.97 234.772 Q1934.57 235.281 1932.09 235.281 Q1925.89 235.281 1922.25 231.67 Q1918.64 228.059 1918.64 221.901 Q1918.64 215.536 1922.07 211.809 Q1925.52 208.059 1931.35 208.059 Q1936.58 208.059 1939.61 211.438 Q1942.67 214.795 1942.67 220.582 M1938.41 219.332 Q1938.36 215.837 1936.44 213.753 Q1934.54 211.67 1931.4 211.67 Q1927.83 211.67 1925.68 213.684 Q1923.55 215.698 1923.22 219.355 L1938.41 219.332 Z" fill="#000000" fill-rule="evenodd" fill-opacity="1" /><path clip-path="url(#clip240)" d="M 0 0 M1947.14 208.684 L1951.4 208.684 L1951.4 235.073 Q1951.4 240.026 1949.5 242.248 Q1947.62 244.471 1943.43 244.471 L1941.81 244.471 L1941.81 240.86 L1942.95 240.86 Q1945.38 240.86 1946.26 239.725 Q1947.14 238.614 1947.14 235.073 L1947.14 208.684 M1947.14 198.591 L1951.4 198.591 L1951.4 203.985 L1947.14 203.985 L1947.14 198.591 Z" fill="#000000" fill-rule="evenodd" fill-opacity="1" /><path clip-path="url(#clip240)" d="M 0 0 M1978.04 220.582 L1978.04 222.665 L1958.46 222.665 Q1958.73 227.063 1961.09 229.378 Q1963.48 231.67 1967.71 231.67 Q1970.17 231.67 1972.46 231.068 Q1974.78 230.466 1977.04 229.262 L1977.04 233.29 Q1974.75 234.262 1972.34 234.772 Q1969.94 235.281 1967.46 235.281 Q1961.26 235.281 1957.62 231.67 Q1954.01 228.059 1954.01 221.901 Q1954.01 215.536 1957.44 211.809 Q1960.89 208.059 1966.72 208.059 Q1971.95 208.059 1974.98 211.438 Q1978.04 214.795 1978.04 220.582 M1973.78 219.332 Q1973.73 215.837 1971.81 213.753 Q1969.91 211.67 1966.77 211.67 Q1963.2 211.67 1961.05 213.684 Q1958.92 215.698 1958.59 219.355 L1973.78 219.332 Z" fill="#000000" fill-rule="evenodd" fill-opacity="1" /><path clip-path="url(#clip240)" d="M 0 0 M2001.16 209.679 L2001.16 213.661 Q1999.36 212.665 1997.53 212.179 Q1995.72 211.67 1993.87 211.67 Q1989.73 211.67 1987.44 214.309 Q1985.15 216.924 1985.15 221.67 Q1985.15 226.415 1987.44 229.054 Q1989.73 231.67 1993.87 231.67 Q1995.72 231.67 1997.53 231.184 Q1999.36 230.674 2001.16 229.679 L2001.16 233.614 Q1999.38 234.448 1997.46 234.864 Q1995.56 235.281 1993.41 235.281 Q1987.55 235.281 1984.1 231.6 Q1980.65 227.92 1980.65 221.67 Q1980.65 215.327 1984.13 211.693 Q1987.62 208.059 1993.69 208.059 Q1995.65 208.059 1997.53 208.475 Q1999.4 208.869 2001.16 209.679 Z" fill="#000000" fill-rule="evenodd" fill-opacity="1" /><path clip-path="url(#clip240)" d="M 0 0 M2009.84 201.323 L2009.84 208.684 L2018.62 208.684 L2018.62 211.994 L2009.84 211.994 L2009.84 226.068 Q2009.84 229.239 2010.7 230.142 Q2011.58 231.045 2014.24 231.045 L2018.62 231.045 L2018.62 234.61 L2014.24 234.61 Q2009.31 234.61 2007.44 232.781 Q2005.56 230.929 2005.56 226.068 L2005.56 211.994 L2002.44 211.994 L2002.44 208.684 L2005.56 208.684 L2005.56 201.323 L2009.84 201.323 Z" fill="#000000" fill-rule="evenodd" fill-opacity="1" /><path clip-path="url(#clip240)" d="M 0 0 M2023.08 208.684 L2027.34 208.684 L2027.34 234.61 L2023.08 234.61 L2023.08 208.684 M2023.08 198.591 L2027.34 198.591 L2027.34 203.985 L2023.08 203.985 L2023.08 198.591 Z" fill="#000000" fill-rule="evenodd" fill-opacity="1" /><path clip-path="url(#clip240)" d="M 0 0 M2041.86 211.67 Q2038.43 211.67 2036.44 214.355 Q2034.45 217.017 2034.45 221.67 Q2034.45 226.323 2036.42 229.008 Q2038.41 231.67 2041.86 231.67 Q2045.26 231.67 2047.25 228.985 Q2049.24 226.299 2049.24 221.67 Q2049.24 217.063 2047.25 214.378 Q2045.26 211.67 2041.86 211.67 M2041.86 208.059 Q2047.41 208.059 2050.58 211.67 Q2053.76 215.281 2053.76 221.67 Q2053.76 228.036 2050.58 231.67 Q2047.41 235.281 2041.86 235.281 Q2036.28 235.281 2033.11 231.67 Q2029.96 228.036 2029.96 221.67 Q2029.96 215.281 2033.11 211.67 Q2036.28 208.059 2041.86 208.059 Z" fill="#000000" fill-rule="evenodd" fill-opacity="1" /><path clip-path="url(#clip240)" d="M 0 0 M2079.77 218.961 L2079.77 234.61 L2075.52 234.61 L2075.52 219.1 Q2075.52 215.42 2074.08 213.591 Q2072.64 211.762 2069.77 211.762 Q2066.33 211.762 2064.33 213.962 Q2062.34 216.161 2062.34 219.957 L2062.34 234.61 L2058.06 234.61 L2058.06 208.684 L2062.34 208.684 L2062.34 212.712 Q2063.87 210.374 2065.93 209.216 Q2068.02 208.059 2070.72 208.059 Q2075.19 208.059 2077.48 210.837 Q2079.77 213.591 2079.77 218.961 Z" fill="#000000" fill-rule="evenodd" fill-opacity="1" /><path clip-path="url(#clip240)" d="M 0 0 M2114.33 212.665 Q2113.62 212.249 2112.76 212.063 Q2111.93 211.855 2110.91 211.855 Q2107.3 211.855 2105.35 214.216 Q2103.43 216.554 2103.43 220.952 L2103.43 234.61 L2099.15 234.61 L2099.15 208.684 L2103.43 208.684 L2103.43 212.712 Q2104.77 210.35 2106.93 209.216 Q2109.08 208.059 2112.16 208.059 Q2112.6 208.059 2113.13 208.128 Q2113.66 208.175 2114.31 208.29 L2114.33 212.665 Z" fill="#000000" fill-rule="evenodd" fill-opacity="1" /><path clip-path="url(#clip240)" d="M 0 0 M2139.94 220.582 L2139.94 222.665 L2120.35 222.665 Q2120.63 227.063 2122.99 229.378 Q2125.38 231.67 2129.61 231.67 Q2132.07 231.67 2134.36 231.068 Q2136.67 230.466 2138.94 229.262 L2138.94 233.29 Q2136.65 234.262 2134.24 234.772 Q2131.83 235.281 2129.36 235.281 Q2123.15 235.281 2119.52 231.67 Q2115.91 228.059 2115.91 221.901 Q2115.91 215.536 2119.33 211.809 Q2122.78 208.059 2128.62 208.059 Q2133.85 208.059 2136.88 211.438 Q2139.94 214.795 2139.94 220.582 M2135.68 219.332 Q2135.63 215.837 2133.71 213.753 Q2131.81 211.67 2128.66 211.67 Q2125.1 211.67 2122.95 213.684 Q2120.82 215.698 2120.49 219.355 L2135.68 219.332 Z" fill="#000000" fill-rule="evenodd" fill-opacity="1" /><path clip-path="url(#clip240)" d="M 0 0 M2161.46 221.346 Q2161.46 216.716 2159.54 214.17 Q2157.64 211.624 2154.2 211.624 Q2150.77 211.624 2148.85 214.17 Q2146.95 216.716 2146.95 221.346 Q2146.95 225.952 2148.85 228.498 Q2150.77 231.045 2154.2 231.045 Q2157.64 231.045 2159.54 228.498 Q2161.46 225.952 2161.46 221.346 M2165.72 231.392 Q2165.72 238.012 2162.78 241.23 Q2159.84 244.471 2153.78 244.471 Q2151.53 244.471 2149.54 244.123 Q2147.55 243.799 2145.68 243.105 L2145.68 238.961 Q2147.55 239.98 2149.38 240.466 Q2151.21 240.952 2153.11 240.952 Q2157.3 240.952 2159.38 238.753 Q2161.46 236.577 2161.46 232.156 L2161.46 230.049 Q2160.14 232.341 2158.08 233.475 Q2156.02 234.61 2153.15 234.61 Q2148.39 234.61 2145.47 230.975 Q2142.55 227.341 2142.55 221.346 Q2142.55 215.327 2145.47 211.693 Q2148.39 208.059 2153.15 208.059 Q2156.02 208.059 2158.08 209.193 Q2160.14 210.327 2161.46 212.619 L2161.46 208.684 L2165.72 208.684 L2165.72 231.392 Z" fill="#000000" fill-rule="evenodd" fill-opacity="1" /><path clip-path="url(#clip240)" d="M 0 0 M2170.19 208.684 L2174.45 208.684 L2174.45 234.61 L2170.19 234.61 L2170.19 208.684 M2170.19 198.591 L2174.45 198.591 L2174.45 203.985 L2170.19 203.985 L2170.19 198.591 Z" fill="#000000" fill-rule="evenodd" fill-opacity="1" /><path clip-path="url(#clip240)" d="M 0 0 M2188.96 211.67 Q2185.54 211.67 2183.55 214.355 Q2181.56 217.017 2181.56 221.67 Q2181.56 226.323 2183.52 229.008 Q2185.51 231.67 2188.96 231.67 Q2192.37 231.67 2194.36 228.985 Q2196.35 226.299 2196.35 221.67 Q2196.35 217.063 2194.36 214.378 Q2192.37 211.67 2188.96 211.67 M2188.96 208.059 Q2194.52 208.059 2197.69 211.67 Q2200.86 215.281 2200.86 221.67 Q2200.86 228.036 2197.69 231.67 Q2194.52 235.281 2188.96 235.281 Q2183.39 235.281 2180.21 231.67 Q2177.07 228.036 2177.07 221.67 Q2177.07 215.281 2180.21 211.67 Q2183.39 208.059 2188.96 208.059 Z" fill="#000000" fill-rule="evenodd" fill-opacity="1" /><path clip-path="url(#clip240)" d="M 0 0 M2226.88 218.961 L2226.88 234.61 L2222.62 234.61 L2222.62 219.1 Q2222.62 215.42 2221.19 213.591 Q2219.75 211.762 2216.88 211.762 Q2213.43 211.762 2211.44 213.962 Q2209.45 216.161 2209.45 219.957 L2209.45 234.61 L2205.17 234.61 L2205.17 208.684 L2209.45 208.684 L2209.45 212.712 Q2210.98 210.374 2213.04 209.216 Q2215.12 208.059 2217.83 208.059 Q2222.3 208.059 2224.59 210.837 Q2226.88 213.591 2226.88 218.961 Z" fill="#000000" fill-rule="evenodd" fill-opacity="1" /><path clip-path="url(#clip240)" d="
M1519.75 302.002 L1670.81 302.002 L1670.81 253.618 L1519.75 253.618 L1519.75 302.002  Z
  " fill="#ffa500" fill-rule="evenodd" fill-opacity="0.5"/>
<polyline clip-path="url(#clip240)" style="stroke:#ffa500; stroke-width:4; stroke-opacity:1; fill:none" points="
  1519.75,253.618 1670.81,253.618 
  "/>
<path clip-path="url(#clip240)" d="M 0 0 M1700.38 282.15 Q1700.38 286.849 1702.3 289.534 Q1704.24 292.196 1707.62 292.196 Q1711 292.196 1712.95 289.534 Q1714.89 286.849 1714.89 282.15 Q1714.89 277.451 1712.95 274.789 Q1711 272.104 1707.62 272.104 Q1704.24 272.104 1702.3 274.789 Q1700.38 277.451 1700.38 282.15 M1714.89 291.201 Q1713.55 293.515 1711.49 294.65 Q1709.45 295.761 1706.58 295.761 Q1701.88 295.761 1698.92 292.011 Q1695.98 288.261 1695.98 282.15 Q1695.98 276.039 1698.92 272.289 Q1701.88 268.539 1706.58 268.539 Q1709.45 268.539 1711.49 269.673 Q1713.55 270.784 1714.89 273.099 L1714.89 269.164 L1719.15 269.164 L1719.15 304.951 L1714.89 304.951 L1714.89 291.201 Z" fill="#000000" fill-rule="evenodd" fill-opacity="1" /><path clip-path="url(#clip240)" d="M 0 0 M1724.36 294.372 L1724.36 290.113 Q1726.12 290.946 1727.92 291.386 Q1729.73 291.826 1731.47 291.826 Q1736.1 291.826 1738.53 288.724 Q1740.98 285.599 1741.33 279.256 Q1739.98 281.247 1737.92 282.312 Q1735.86 283.377 1733.36 283.377 Q1728.18 283.377 1725.15 280.252 Q1722.14 277.104 1722.14 271.664 Q1722.14 266.34 1725.29 263.122 Q1728.43 259.905 1733.67 259.905 Q1739.66 259.905 1742.81 264.511 Q1745.98 269.094 1745.98 277.844 Q1745.98 286.016 1742.09 290.9 Q1738.23 295.761 1731.67 295.761 Q1729.92 295.761 1728.11 295.414 Q1726.3 295.066 1724.36 294.372 M1733.67 279.719 Q1736.81 279.719 1738.64 277.566 Q1740.49 275.414 1740.49 271.664 Q1740.49 267.937 1738.64 265.784 Q1736.81 263.608 1733.67 263.608 Q1730.52 263.608 1728.67 265.784 Q1726.84 267.937 1726.84 271.664 Q1726.84 275.414 1728.67 277.566 Q1730.52 279.719 1733.67 279.719 Z" fill="#000000" fill-rule="evenodd" fill-opacity="1" /><path clip-path="url(#clip240)" d="M 0 0 M1751.1 260.53 L1769.45 260.53 L1769.45 264.465 L1755.38 264.465 L1755.38 272.937 Q1756.4 272.59 1757.42 272.428 Q1758.43 272.242 1759.45 272.242 Q1765.24 272.242 1768.62 275.414 Q1772 278.585 1772 284.002 Q1772 289.58 1768.53 292.682 Q1765.05 295.761 1758.73 295.761 Q1756.56 295.761 1754.29 295.39 Q1752.04 295.02 1749.64 294.279 L1749.64 289.58 Q1751.72 290.715 1753.94 291.27 Q1756.17 291.826 1758.64 291.826 Q1762.65 291.826 1764.98 289.719 Q1767.32 287.613 1767.32 284.002 Q1767.32 280.391 1764.98 278.284 Q1762.65 276.178 1758.64 276.178 Q1756.77 276.178 1754.89 276.594 Q1753.04 277.011 1751.1 277.891 L1751.1 260.53 Z" fill="#000000" fill-rule="evenodd" fill-opacity="1" /><polyline clip-path="url(#clip240)" style="stroke:#0000ff; stroke-width:4; stroke-opacity:1; fill:none" points="
  1519.75,338.29 1670.81,338.29 
  "/>
<path clip-path="url(#clip240)" d="M 0 0 M1716.33 334.621 Q1717.92 331.75 1720.15 330.385 Q1722.37 329.019 1725.38 329.019 Q1729.43 329.019 1731.63 331.866 Q1733.83 334.69 1733.83 339.921 L1733.83 355.57 L1729.54 355.57 L1729.54 340.06 Q1729.54 336.334 1728.23 334.528 Q1726.91 332.722 1724.2 332.722 Q1720.89 332.722 1718.97 334.922 Q1717.04 337.121 1717.04 340.917 L1717.04 355.57 L1712.76 355.57 L1712.76 340.06 Q1712.76 336.31 1711.44 334.528 Q1710.12 332.722 1707.37 332.722 Q1704.11 332.722 1702.18 334.945 Q1700.26 337.144 1700.26 340.917 L1700.26 355.57 L1695.98 355.57 L1695.98 329.644 L1700.26 329.644 L1700.26 333.672 Q1701.72 331.287 1703.76 330.153 Q1705.79 329.019 1708.6 329.019 Q1711.42 329.019 1713.39 330.454 Q1715.38 331.889 1716.33 334.621 Z" fill="#000000" fill-rule="evenodd" fill-opacity="1" /><path clip-path="url(#clip240)" d="M 0 0 M1760.47 341.542 L1760.47 343.625 L1740.89 343.625 Q1741.17 348.023 1743.53 350.338 Q1745.91 352.63 1750.15 352.63 Q1752.6 352.63 1754.89 352.028 Q1757.21 351.426 1759.48 350.222 L1759.48 354.25 Q1757.18 355.222 1754.78 355.732 Q1752.37 356.241 1749.89 356.241 Q1743.69 356.241 1740.05 352.63 Q1736.44 349.019 1736.44 342.861 Q1736.44 336.496 1739.87 332.769 Q1743.32 329.019 1749.15 329.019 Q1754.38 329.019 1757.42 332.398 Q1760.47 335.755 1760.47 341.542 M1756.21 340.292 Q1756.17 336.797 1754.24 334.713 Q1752.35 332.63 1749.2 332.63 Q1745.63 332.63 1743.48 334.644 Q1741.35 336.658 1741.03 340.315 L1756.21 340.292 Z" fill="#000000" fill-rule="evenodd" fill-opacity="1" /><path clip-path="url(#clip240)" d="M 0 0 M1776.72 342.537 Q1771.56 342.537 1769.57 343.718 Q1767.58 344.898 1767.58 347.746 Q1767.58 350.014 1769.06 351.357 Q1770.56 352.676 1773.13 352.676 Q1776.67 352.676 1778.8 350.176 Q1780.96 347.653 1780.96 343.486 L1780.96 342.537 L1776.72 342.537 M1785.22 340.778 L1785.22 355.57 L1780.96 355.57 L1780.96 351.634 Q1779.5 353.995 1777.32 355.13 Q1775.15 356.241 1772 356.241 Q1768.02 356.241 1765.66 354.019 Q1763.32 351.773 1763.32 348.023 Q1763.32 343.648 1766.23 341.426 Q1769.17 339.204 1774.98 339.204 L1780.96 339.204 L1780.96 338.787 Q1780.96 335.847 1779.01 334.25 Q1777.09 332.63 1773.6 332.63 Q1771.37 332.63 1769.27 333.162 Q1767.16 333.695 1765.22 334.759 L1765.22 330.824 Q1767.55 329.922 1769.75 329.482 Q1771.95 329.019 1774.04 329.019 Q1779.66 329.019 1782.44 331.935 Q1785.22 334.852 1785.22 340.778 Z" fill="#000000" fill-rule="evenodd" fill-opacity="1" /><path clip-path="url(#clip240)" d="M 0 0 M1811.23 339.921 L1811.23 355.57 L1806.97 355.57 L1806.97 340.06 Q1806.97 336.38 1805.54 334.551 Q1804.1 332.722 1801.23 332.722 Q1797.79 332.722 1795.79 334.922 Q1793.8 337.121 1793.8 340.917 L1793.8 355.57 L1789.52 355.57 L1789.52 329.644 L1793.8 329.644 L1793.8 333.672 Q1795.33 331.334 1797.39 330.176 Q1799.48 329.019 1802.18 329.019 Q1806.65 329.019 1808.94 331.797 Q1811.23 334.551 1811.23 339.921 Z" fill="#000000" fill-rule="evenodd" fill-opacity="1" /><polyline clip-path="url(#clip240)" style="stroke:#000000; stroke-width:4; stroke-opacity:1; fill:none" points="
  1519.75,398.77 1670.81,398.77 
  "/>
<path clip-path="url(#clip240)" d="M 0 0 M1716.33 395.101 Q1717.92 392.23 1720.15 390.865 Q1722.37 389.499 1725.38 389.499 Q1729.43 389.499 1731.63 392.346 Q1733.83 395.17 1733.83 400.401 L1733.83 416.05 L1729.54 416.05 L1729.54 400.54 Q1729.54 396.814 1728.23 395.008 Q1726.91 393.202 1724.2 393.202 Q1720.89 393.202 1718.97 395.402 Q1717.04 397.601 1717.04 401.397 L1717.04 416.05 L1712.76 416.05 L1712.76 400.54 Q1712.76 396.79 1711.44 395.008 Q1710.12 393.202 1707.37 393.202 Q1704.11 393.202 1702.18 395.425 Q1700.26 397.624 1700.26 401.397 L1700.26 416.05 L1695.98 416.05 L1695.98 390.124 L1700.26 390.124 L1700.26 394.152 Q1701.72 391.767 1703.76 390.633 Q1705.79 389.499 1708.6 389.499 Q1711.42 389.499 1713.39 390.934 Q1715.38 392.369 1716.33 395.101 Z" fill="#000000" fill-rule="evenodd" fill-opacity="1" /><path clip-path="url(#clip240)" d="M 0 0 M1760.47 402.022 L1760.47 404.105 L1740.89 404.105 Q1741.17 408.503 1743.53 410.818 Q1745.91 413.11 1750.15 413.11 Q1752.6 413.11 1754.89 412.508 Q1757.21 411.906 1759.48 410.702 L1759.48 414.73 Q1757.18 415.702 1754.78 416.212 Q1752.37 416.721 1749.89 416.721 Q1743.69 416.721 1740.05 413.11 Q1736.44 409.499 1736.44 403.341 Q1736.44 396.976 1739.87 393.249 Q1743.32 389.499 1749.15 389.499 Q1754.38 389.499 1757.42 392.878 Q1760.47 396.235 1760.47 402.022 M1756.21 400.772 Q1756.17 397.277 1754.24 395.193 Q1752.35 393.11 1749.2 393.11 Q1745.63 393.11 1743.48 395.124 Q1741.35 397.138 1741.03 400.795 L1756.21 400.772 Z" fill="#000000" fill-rule="evenodd" fill-opacity="1" /><path clip-path="url(#clip240)" d="M 0 0 M1782 394.059 L1782 380.031 L1786.26 380.031 L1786.26 416.05 L1782 416.05 L1782 412.161 Q1780.66 414.475 1778.6 415.61 Q1776.56 416.721 1773.69 416.721 Q1768.99 416.721 1766.03 412.971 Q1763.09 409.221 1763.09 403.11 Q1763.09 396.999 1766.03 393.249 Q1768.99 389.499 1773.69 389.499 Q1776.56 389.499 1778.6 390.633 Q1780.66 391.744 1782 394.059 M1767.48 403.11 Q1767.48 407.809 1769.41 410.494 Q1771.35 413.156 1774.73 413.156 Q1778.11 413.156 1780.05 410.494 Q1782 407.809 1782 403.11 Q1782 398.411 1780.05 395.749 Q1778.11 393.064 1774.73 393.064 Q1771.35 393.064 1769.41 395.749 Q1767.48 398.411 1767.48 403.11 Z" fill="#000000" fill-rule="evenodd" fill-opacity="1" /><path clip-path="url(#clip240)" d="M 0 0 M1790.73 390.124 L1794.98 390.124 L1794.98 416.05 L1790.73 416.05 L1790.73 390.124 M1790.73 380.031 L1794.98 380.031 L1794.98 385.425 L1790.73 385.425 L1790.73 380.031 Z" fill="#000000" fill-rule="evenodd" fill-opacity="1" /><path clip-path="url(#clip240)" d="M 0 0 M1811.23 403.017 Q1806.07 403.017 1804.08 404.198 Q1802.09 405.378 1802.09 408.226 Q1802.09 410.494 1803.57 411.837 Q1805.08 413.156 1807.65 413.156 Q1811.19 413.156 1813.32 410.656 Q1815.47 408.133 1815.47 403.966 L1815.47 403.017 L1811.23 403.017 M1819.73 401.258 L1819.73 416.05 L1815.47 416.05 L1815.47 412.114 Q1814.01 414.475 1811.84 415.61 Q1809.66 416.721 1806.51 416.721 Q1802.53 416.721 1800.17 414.499 Q1797.83 412.253 1797.83 408.503 Q1797.83 404.128 1800.75 401.906 Q1803.69 399.684 1809.5 399.684 L1815.47 399.684 L1815.47 399.267 Q1815.47 396.327 1813.53 394.73 Q1811.6 393.11 1808.11 393.11 Q1805.89 393.11 1803.78 393.642 Q1801.67 394.175 1799.73 395.239 L1799.73 391.304 Q1802.07 390.402 1804.27 389.962 Q1806.47 389.499 1808.55 389.499 Q1814.17 389.499 1816.95 392.415 Q1819.73 395.332 1819.73 401.258 Z" fill="#000000" fill-rule="evenodd" fill-opacity="1" /><path clip-path="url(#clip240)" d="M 0 0 M1845.75 400.401 L1845.75 416.05 L1841.49 416.05 L1841.49 400.54 Q1841.49 396.86 1840.05 395.031 Q1838.62 393.202 1835.75 393.202 Q1832.3 393.202 1830.31 395.402 Q1828.32 397.601 1828.32 401.397 L1828.32 416.05 L1824.04 416.05 L1824.04 390.124 L1828.32 390.124 L1828.32 394.152 Q1829.85 391.814 1831.91 390.656 Q1833.99 389.499 1836.7 389.499 Q1841.16 389.499 1843.46 392.277 Q1845.75 395.031 1845.75 400.401 Z" fill="#000000" fill-rule="evenodd" fill-opacity="1" /></svg>
