<?xml version="1.0" encoding="utf-8"?>
<svg xmlns="http://www.w3.org/2000/svg" xmlns:xlink="http://www.w3.org/1999/xlink" width="600" height="400" viewBox="0 0 2400 1600">
<defs>
  <clipPath id="clip270">
    <rect x="0" y="0" width="2400" height="1600"/>
  </clipPath>
</defs>
<path clip-path="url(#clip270)" d="
M0 1600 L2400 1600 L2400 0 L0 0  Z
  " fill="#ffffff" fill-rule="evenodd" fill-opacity="1"/>
<defs>
  <clipPath id="clip271">
    <rect x="480" y="0" width="1681" height="1600"/>
  </clipPath>
</defs>
<path clip-path="url(#clip270)" d="
M86.9921 1521.01 L2352.76 1521.01 L2352.76 47.2441 L86.9921 47.2441  Z
  " fill="#ffffff" fill-rule="evenodd" fill-opacity="1"/>
<defs>
  <clipPath id="clip272">
    <rect x="86" y="47" width="2267" height="1475"/>
  </clipPath>
</defs>
<polyline clip-path="url(#clip272)" style="stroke:#000000; stroke-width:2; stroke-opacity:0.1; fill:none" points="
  294.378,1521.01 294.378,47.2441 
  "/>
<polyline clip-path="url(#clip272)" style="stroke:#000000; stroke-width:2; stroke-opacity:0.1; fill:none" points="
  748.244,1521.01 748.244,47.2441 
  "/>
<polyline clip-path="url(#clip272)" style="stroke:#000000; stroke-width:2; stroke-opacity:0.1; fill:none" points="
  1202.11,1521.01 1202.11,47.2441 
  "/>
<polyline clip-path="url(#clip272)" style="stroke:#000000; stroke-width:2; stroke-opacity:0.1; fill:none" points="
  1655.98,1521.01 1655.98,47.2441 
  "/>
<polyline clip-path="url(#clip272)" style="stroke:#000000; stroke-width:2; stroke-opacity:0.1; fill:none" points="
  2109.84,1521.01 2109.84,47.2441 
  "/>
<polyline clip-path="url(#clip272)" style="stroke:#000000; stroke-width:2; stroke-opacity:0.1; fill:none" points="
  86.9921,1479.3 2352.76,1479.3 
  "/>
<polyline clip-path="url(#clip272)" style="stroke:#000000; stroke-width:2; stroke-opacity:0.1; fill:none" points="
  86.9921,1215.83 2352.76,1215.83 
  "/>
<polyline clip-path="url(#clip272)" style="stroke:#000000; stroke-width:2; stroke-opacity:0.1; fill:none" points="
  86.9921,952.352 2352.76,952.352 
  "/>
<polyline clip-path="url(#clip272)" style="stroke:#000000; stroke-width:2; stroke-opacity:0.1; fill:none" points="
  86.9921,688.88 2352.76,688.88 
  "/>
<polyline clip-path="url(#clip272)" style="stroke:#000000; stroke-width:2; stroke-opacity:0.1; fill:none" points="
  86.9921,425.407 2352.76,425.407 
  "/>
<polyline clip-path="url(#clip272)" style="stroke:#000000; stroke-width:2; stroke-opacity:0.1; fill:none" points="
  86.9921,161.935 2352.76,161.935 
  "/>
<polyline clip-path="url(#clip270)" style="stroke:#000000; stroke-width:4; stroke-opacity:1; fill:none" points="
  86.9921,1521.01 2352.76,1521.01 
  "/>
<polyline clip-path="url(#clip270)" style="stroke:#000000; stroke-width:4; stroke-opacity:1; fill:none" points="
  86.9921,1521.01 86.9921,47.2441 
  "/>
<polyline clip-path="url(#clip270)" style="stroke:#000000; stroke-width:4; stroke-opacity:1; fill:none" points="
  294.378,1521.01 294.378,1503.32 
  "/>
<polyline clip-path="url(#clip270)" style="stroke:#000000; stroke-width:4; stroke-opacity:1; fill:none" points="
  748.244,1521.01 748.244,1503.32 
  "/>
<polyline clip-path="url(#clip270)" style="stroke:#000000; stroke-width:4; stroke-opacity:1; fill:none" points="
  1202.11,1521.01 1202.11,1503.32 
  "/>
<polyline clip-path="url(#clip270)" style="stroke:#000000; stroke-width:4; stroke-opacity:1; fill:none" points="
  1655.98,1521.01 1655.98,1503.32 
  "/>
<polyline clip-path="url(#clip270)" style="stroke:#000000; stroke-width:4; stroke-opacity:1; fill:none" points="
  2109.84,1521.01 2109.84,1503.32 
  "/>
<polyline clip-path="url(#clip270)" style="stroke:#000000; stroke-width:4; stroke-opacity:1; fill:none" points="
  86.9921,1479.3 114.181,1479.3 
  "/>
<polyline clip-path="url(#clip270)" style="stroke:#000000; stroke-width:4; stroke-opacity:1; fill:none" points="
  86.9921,1215.83 114.181,1215.83 
  "/>
<polyline clip-path="url(#clip270)" style="stroke:#000000; stroke-width:4; stroke-opacity:1; fill:none" points="
  86.9921,952.352 114.181,952.352 
  "/>
<polyline clip-path="url(#clip270)" style="stroke:#000000; stroke-width:4; stroke-opacity:1; fill:none" points="
  86.9921,688.88 114.181,688.88 
  "/>
<polyline clip-path="url(#clip270)" style="stroke:#000000; stroke-width:4; stroke-opacity:1; fill:none" points="
  86.9921,425.407 114.181,425.407 
  "/>
<polyline clip-path="url(#clip270)" style="stroke:#000000; stroke-width:4; stroke-opacity:1; fill:none" points="
  86.9921,161.935 114.181,161.935 
  "/>
<path clip-path="url(#clip270)" d="M 0 0 M241.16 1555.85 Q244.517 1556.56 246.392 1558.83 Q248.29 1561.1 248.29 1564.43 Q248.29 1569.55 244.772 1572.35 Q241.253 1575.15 234.772 1575.15 Q232.596 1575.15 230.281 1574.71 Q227.989 1574.29 225.536 1573.44 L225.536 1568.92 Q227.48 1570.06 229.795 1570.64 Q232.11 1571.22 234.633 1571.22 Q239.031 1571.22 241.322 1569.48 Q243.637 1567.74 243.637 1564.43 Q243.637 1561.38 241.485 1559.67 Q239.355 1557.93 235.535 1557.93 L231.508 1557.93 L231.508 1554.09 L235.721 1554.09 Q239.17 1554.09 240.998 1552.72 Q242.827 1551.33 242.827 1548.74 Q242.827 1546.08 240.929 1544.67 Q239.054 1543.23 235.535 1543.23 Q233.614 1543.23 231.415 1543.65 Q229.216 1544.06 226.577 1544.94 L226.577 1540.78 Q229.239 1540.04 231.554 1539.67 Q233.892 1539.29 235.952 1539.29 Q241.276 1539.29 244.378 1541.73 Q247.48 1544.13 247.48 1548.25 Q247.48 1551.12 245.836 1553.11 Q244.193 1555.08 241.16 1555.85 Z" fill="#000000" fill-rule="evenodd" fill-opacity="1" /><path clip-path="url(#clip270)" d="M 0 0 M253.359 1568.6 L258.244 1568.6 L258.244 1574.48 L253.359 1574.48 L253.359 1568.6 Z" fill="#000000" fill-rule="evenodd" fill-opacity="1" /><path clip-path="url(#clip270)" d="M 0 0 M263.452 1573.76 L263.452 1569.5 Q265.211 1570.34 267.017 1570.78 Q268.822 1571.22 270.558 1571.22 Q275.188 1571.22 277.619 1568.11 Q280.072 1564.99 280.419 1558.65 Q279.077 1560.64 277.017 1561.7 Q274.957 1562.77 272.457 1562.77 Q267.271 1562.77 264.239 1559.64 Q261.23 1556.49 261.23 1551.05 Q261.23 1545.73 264.378 1542.51 Q267.526 1539.29 272.757 1539.29 Q278.753 1539.29 281.901 1543.9 Q285.072 1548.48 285.072 1557.23 Q285.072 1565.41 281.183 1570.29 Q277.318 1575.15 270.767 1575.15 Q269.008 1575.15 267.202 1574.8 Q265.396 1574.46 263.452 1573.76 M272.757 1559.11 Q275.906 1559.11 277.734 1556.96 Q279.586 1554.8 279.586 1551.05 Q279.586 1547.33 277.734 1545.17 Q275.906 1543 272.757 1543 Q269.609 1543 267.758 1545.17 Q265.929 1547.33 265.929 1551.05 Q265.929 1554.8 267.758 1556.96 Q269.609 1559.11 272.757 1559.11 Z" fill="#000000" fill-rule="evenodd" fill-opacity="1" /><path clip-path="url(#clip270)" d="M 0 0 M290.188 1539.92 L308.544 1539.92 L308.544 1543.86 L294.47 1543.86 L294.47 1552.33 Q295.489 1551.98 296.507 1551.82 Q297.526 1551.63 298.544 1551.63 Q304.331 1551.63 307.711 1554.8 Q311.091 1557.98 311.091 1563.39 Q311.091 1568.97 307.618 1572.07 Q304.146 1575.15 297.827 1575.15 Q295.651 1575.15 293.382 1574.78 Q291.137 1574.41 288.73 1573.67 L288.73 1568.97 Q290.813 1570.1 293.035 1570.66 Q295.257 1571.22 297.734 1571.22 Q301.739 1571.22 304.077 1569.11 Q306.415 1567 306.415 1563.39 Q306.415 1559.78 304.077 1557.67 Q301.739 1555.57 297.734 1555.57 Q295.859 1555.57 293.984 1555.98 Q292.132 1556.4 290.188 1557.28 L290.188 1539.92 Z" fill="#000000" fill-rule="evenodd" fill-opacity="1" /><path clip-path="url(#clip270)" d="M 0 0 M314.979 1539.92 L337.202 1539.92 L337.202 1541.91 L324.655 1574.48 L319.771 1574.48 L331.577 1543.86 L314.979 1543.86 L314.979 1539.92 Z" fill="#000000" fill-rule="evenodd" fill-opacity="1" /><path clip-path="url(#clip270)" d="M 0 0 M342.317 1539.92 L360.674 1539.92 L360.674 1543.86 L346.6 1543.86 L346.6 1552.33 Q347.618 1551.98 348.637 1551.82 Q349.655 1551.63 350.674 1551.63 Q356.461 1551.63 359.84 1554.8 Q363.22 1557.98 363.22 1563.39 Q363.22 1568.97 359.748 1572.07 Q356.276 1575.15 349.956 1575.15 Q347.78 1575.15 345.512 1574.78 Q343.266 1574.41 340.859 1573.67 L340.859 1568.97 Q342.942 1570.1 345.165 1570.66 Q347.387 1571.22 349.864 1571.22 Q353.868 1571.22 356.206 1569.11 Q358.544 1567 358.544 1563.39 Q358.544 1559.78 356.206 1557.67 Q353.868 1555.57 349.864 1555.57 Q347.989 1555.57 346.114 1555.98 Q344.262 1556.4 342.317 1557.28 L342.317 1539.92 Z" fill="#000000" fill-rule="evenodd" fill-opacity="1" /><path clip-path="url(#clip270)" d="M 0 0 M693.499 1555.85 Q696.855 1556.56 698.73 1558.83 Q700.628 1561.1 700.628 1564.43 Q700.628 1569.55 697.11 1572.35 Q693.591 1575.15 687.11 1575.15 Q684.934 1575.15 682.619 1574.71 Q680.327 1574.29 677.874 1573.44 L677.874 1568.92 Q679.818 1570.06 682.133 1570.64 Q684.448 1571.22 686.971 1571.22 Q691.369 1571.22 693.661 1569.48 Q695.975 1567.74 695.975 1564.43 Q695.975 1561.38 693.823 1559.67 Q691.693 1557.93 687.874 1557.93 L683.846 1557.93 L683.846 1554.09 L688.059 1554.09 Q691.508 1554.09 693.337 1552.72 Q695.165 1551.33 695.165 1548.74 Q695.165 1546.08 693.267 1544.67 Q691.392 1543.23 687.874 1543.23 Q685.952 1543.23 683.753 1543.65 Q681.554 1544.06 678.915 1544.94 L678.915 1540.78 Q681.577 1540.04 683.892 1539.67 Q686.23 1539.29 688.29 1539.29 Q693.614 1539.29 696.716 1541.73 Q699.818 1544.13 699.818 1548.25 Q699.818 1551.12 698.174 1553.11 Q696.531 1555.08 693.499 1555.85 Z" fill="#000000" fill-rule="evenodd" fill-opacity="1" /><path clip-path="url(#clip270)" d="M 0 0 M705.698 1568.6 L710.582 1568.6 L710.582 1574.48 L705.698 1574.48 L705.698 1568.6 Z" fill="#000000" fill-rule="evenodd" fill-opacity="1" /><path clip-path="url(#clip270)" d="M 0 0 M715.79 1573.76 L715.79 1569.5 Q717.549 1570.34 719.355 1570.78 Q721.16 1571.22 722.897 1571.22 Q727.526 1571.22 729.957 1568.11 Q732.41 1564.99 732.758 1558.65 Q731.415 1560.64 729.355 1561.7 Q727.295 1562.77 724.795 1562.77 Q719.61 1562.77 716.577 1559.64 Q713.568 1556.49 713.568 1551.05 Q713.568 1545.73 716.716 1542.51 Q719.864 1539.29 725.096 1539.29 Q731.091 1539.29 734.239 1543.9 Q737.41 1548.48 737.41 1557.23 Q737.41 1565.41 733.522 1570.29 Q729.656 1575.15 723.105 1575.15 Q721.346 1575.15 719.54 1574.8 Q717.735 1574.46 715.79 1573.76 M725.096 1559.11 Q728.244 1559.11 730.072 1556.96 Q731.924 1554.8 731.924 1551.05 Q731.924 1547.33 730.072 1545.17 Q728.244 1543 725.096 1543 Q721.948 1543 720.096 1545.17 Q718.267 1547.33 718.267 1551.05 Q718.267 1554.8 720.096 1556.96 Q721.948 1559.11 725.096 1559.11 Z" fill="#000000" fill-rule="evenodd" fill-opacity="1" /><path clip-path="url(#clip270)" d="M 0 0 M753.058 1555.34 Q749.91 1555.34 748.058 1557.49 Q746.23 1559.64 746.23 1563.39 Q746.23 1567.12 748.058 1569.29 Q749.91 1571.45 753.058 1571.45 Q756.207 1571.45 758.035 1569.29 Q759.887 1567.12 759.887 1563.39 Q759.887 1559.64 758.035 1557.49 Q756.207 1555.34 753.058 1555.34 M762.341 1540.68 L762.341 1544.94 Q760.582 1544.11 758.776 1543.67 Q756.994 1543.23 755.234 1543.23 Q750.605 1543.23 748.151 1546.36 Q745.721 1549.48 745.373 1555.8 Q746.739 1553.79 748.799 1552.72 Q750.859 1551.63 753.336 1551.63 Q758.545 1551.63 761.554 1554.8 Q764.586 1557.95 764.586 1563.39 Q764.586 1568.72 761.438 1571.93 Q758.29 1575.15 753.058 1575.15 Q747.063 1575.15 743.892 1570.57 Q740.721 1565.96 740.721 1557.23 Q740.721 1549.04 744.609 1544.18 Q748.498 1539.29 755.049 1539.29 Q756.808 1539.29 758.591 1539.64 Q760.396 1539.99 762.341 1540.68 Z" fill="#000000" fill-rule="evenodd" fill-opacity="1" /><path clip-path="url(#clip270)" d="M 0 0 M779.656 1543 Q776.044 1543 774.216 1546.56 Q772.41 1550.11 772.41 1557.23 Q772.41 1564.34 774.216 1567.91 Q776.044 1571.45 779.656 1571.45 Q783.29 1571.45 785.095 1567.91 Q786.924 1564.34 786.924 1557.23 Q786.924 1550.11 785.095 1546.56 Q783.29 1543 779.656 1543 M779.656 1539.29 Q785.466 1539.29 788.521 1543.9 Q791.6 1548.48 791.6 1557.23 Q791.6 1565.96 788.521 1570.57 Q785.466 1575.15 779.656 1575.15 Q773.845 1575.15 770.767 1570.57 Q767.711 1565.96 767.711 1557.23 Q767.711 1548.48 770.767 1543.9 Q773.845 1539.29 779.656 1539.29 Z" fill="#000000" fill-rule="evenodd" fill-opacity="1" /><path clip-path="url(#clip270)" d="M 0 0 M806.669 1543 Q803.058 1543 801.229 1546.56 Q799.424 1550.11 799.424 1557.23 Q799.424 1564.34 801.229 1567.91 Q803.058 1571.45 806.669 1571.45 Q810.304 1571.45 812.109 1567.91 Q813.938 1564.34 813.938 1557.23 Q813.938 1550.11 812.109 1546.56 Q810.304 1543 806.669 1543 M806.669 1539.29 Q812.479 1539.29 815.535 1543.9 Q818.614 1548.48 818.614 1557.23 Q818.614 1565.96 815.535 1570.57 Q812.479 1575.15 806.669 1575.15 Q800.859 1575.15 797.78 1570.57 Q794.725 1565.96 794.725 1557.23 Q794.725 1548.48 797.78 1543.9 Q800.859 1539.29 806.669 1539.29 Z" fill="#000000" fill-rule="evenodd" fill-opacity="1" /><path clip-path="url(#clip270)" d="M 0 0 M1148.66 1555.85 Q1152.02 1556.56 1153.89 1558.83 Q1155.79 1561.1 1155.79 1564.43 Q1155.79 1569.55 1152.27 1572.35 Q1148.75 1575.15 1142.27 1575.15 Q1140.1 1575.15 1137.78 1574.71 Q1135.49 1574.29 1133.04 1573.44 L1133.04 1568.92 Q1134.98 1570.06 1137.3 1570.64 Q1139.61 1571.22 1142.13 1571.22 Q1146.53 1571.22 1148.82 1569.48 Q1151.14 1567.74 1151.14 1564.43 Q1151.14 1561.38 1148.98 1559.67 Q1146.86 1557.93 1143.04 1557.93 L1139.01 1557.93 L1139.01 1554.09 L1143.22 1554.09 Q1146.67 1554.09 1148.5 1552.72 Q1150.33 1551.33 1150.33 1548.74 Q1150.33 1546.08 1148.43 1544.67 Q1146.55 1543.23 1143.04 1543.23 Q1141.11 1543.23 1138.92 1543.65 Q1136.72 1544.06 1134.08 1544.94 L1134.08 1540.78 Q1136.74 1540.04 1139.05 1539.67 Q1141.39 1539.29 1143.45 1539.29 Q1148.78 1539.29 1151.88 1541.73 Q1154.98 1544.13 1154.98 1548.25 Q1154.98 1551.12 1153.34 1553.11 Q1151.69 1555.08 1148.66 1555.85 Z" fill="#000000" fill-rule="evenodd" fill-opacity="1" /><path clip-path="url(#clip270)" d="M 0 0 M1160.86 1568.6 L1165.74 1568.6 L1165.74 1574.48 L1160.86 1574.48 L1160.86 1568.6 Z" fill="#000000" fill-rule="evenodd" fill-opacity="1" /><path clip-path="url(#clip270)" d="M 0 0 M1170.95 1573.76 L1170.95 1569.5 Q1172.71 1570.34 1174.52 1570.78 Q1176.32 1571.22 1178.06 1571.22 Q1182.69 1571.22 1185.12 1568.11 Q1187.57 1564.99 1187.92 1558.65 Q1186.58 1560.64 1184.52 1561.7 Q1182.46 1562.77 1179.96 1562.77 Q1174.77 1562.77 1171.74 1559.64 Q1168.73 1556.49 1168.73 1551.05 Q1168.73 1545.73 1171.88 1542.51 Q1175.03 1539.29 1180.26 1539.29 Q1186.25 1539.29 1189.4 1543.9 Q1192.57 1548.48 1192.57 1557.23 Q1192.57 1565.41 1188.68 1570.29 Q1184.82 1575.15 1178.27 1575.15 Q1176.51 1575.15 1174.7 1574.8 Q1172.9 1574.46 1170.95 1573.76 M1180.26 1559.11 Q1183.41 1559.11 1185.23 1556.96 Q1187.09 1554.8 1187.09 1551.05 Q1187.09 1547.33 1185.23 1545.17 Q1183.41 1543 1180.26 1543 Q1177.11 1543 1175.26 1545.17 Q1173.43 1547.33 1173.43 1551.05 Q1173.43 1554.8 1175.26 1556.96 Q1177.11 1559.11 1180.26 1559.11 Z" fill="#000000" fill-rule="evenodd" fill-opacity="1" /><path clip-path="url(#clip270)" d="M 0 0 M1208.22 1555.34 Q1205.07 1555.34 1203.22 1557.49 Q1201.39 1559.64 1201.39 1563.39 Q1201.39 1567.12 1203.22 1569.29 Q1205.07 1571.45 1208.22 1571.45 Q1211.37 1571.45 1213.2 1569.29 Q1215.05 1567.12 1215.05 1563.39 Q1215.05 1559.64 1213.2 1557.49 Q1211.37 1555.34 1208.22 1555.34 M1217.5 1540.68 L1217.5 1544.94 Q1215.74 1544.11 1213.94 1543.67 Q1212.16 1543.23 1210.4 1543.23 Q1205.77 1543.23 1203.31 1546.36 Q1200.88 1549.48 1200.54 1555.8 Q1201.9 1553.79 1203.96 1552.72 Q1206.02 1551.63 1208.5 1551.63 Q1213.71 1551.63 1216.72 1554.8 Q1219.75 1557.95 1219.75 1563.39 Q1219.75 1568.72 1216.6 1571.93 Q1213.45 1575.15 1208.22 1575.15 Q1202.23 1575.15 1199.05 1570.57 Q1195.88 1565.96 1195.88 1557.23 Q1195.88 1549.04 1199.77 1544.18 Q1203.66 1539.29 1210.21 1539.29 Q1211.97 1539.29 1213.75 1539.64 Q1215.56 1539.99 1217.5 1540.68 Z" fill="#000000" fill-rule="evenodd" fill-opacity="1" /><path clip-path="url(#clip270)" d="M 0 0 M1228.85 1570.54 L1245.16 1570.54 L1245.16 1574.48 L1223.22 1574.48 L1223.22 1570.54 Q1225.88 1567.79 1230.47 1563.16 Q1235.07 1558.51 1236.25 1557.17 Q1238.5 1554.64 1239.38 1552.91 Q1240.28 1551.15 1240.28 1549.46 Q1240.28 1546.7 1238.34 1544.97 Q1236.41 1543.23 1233.31 1543.23 Q1231.11 1543.23 1228.66 1543.99 Q1226.23 1544.76 1223.45 1546.31 L1223.45 1541.59 Q1226.28 1540.45 1228.73 1539.87 Q1231.18 1539.29 1233.22 1539.29 Q1238.59 1539.29 1241.79 1541.98 Q1244.98 1544.67 1244.98 1549.16 Q1244.98 1551.29 1244.17 1553.21 Q1243.38 1555.1 1241.28 1557.7 Q1240.7 1558.37 1237.6 1561.59 Q1234.49 1564.78 1228.85 1570.54 Z" fill="#000000" fill-rule="evenodd" fill-opacity="1" /><path clip-path="url(#clip270)" d="M 0 0 M1250.28 1539.92 L1268.64 1539.92 L1268.64 1543.86 L1254.56 1543.86 L1254.56 1552.33 Q1255.58 1551.98 1256.6 1551.82 Q1257.62 1551.63 1258.64 1551.63 Q1264.42 1551.63 1267.8 1554.8 Q1271.18 1557.98 1271.18 1563.39 Q1271.18 1568.97 1267.71 1572.07 Q1264.24 1575.15 1257.92 1575.15 Q1255.74 1575.15 1253.48 1574.78 Q1251.23 1574.41 1248.82 1573.67 L1248.82 1568.97 Q1250.91 1570.1 1253.13 1570.66 Q1255.35 1571.22 1257.83 1571.22 Q1261.83 1571.22 1264.17 1569.11 Q1266.51 1567 1266.51 1563.39 Q1266.51 1559.78 1264.17 1557.67 Q1261.83 1555.57 1257.83 1555.57 Q1255.95 1555.57 1254.08 1555.98 Q1252.23 1556.4 1250.28 1557.28 L1250.28 1539.92 Z" fill="#000000" fill-rule="evenodd" fill-opacity="1" /><path clip-path="url(#clip270)" d="M 0 0 M1601.73 1555.85 Q1605.08 1556.56 1606.96 1558.83 Q1608.86 1561.1 1608.86 1564.43 Q1608.86 1569.55 1605.34 1572.35 Q1601.82 1575.15 1595.34 1575.15 Q1593.16 1575.15 1590.85 1574.71 Q1588.56 1574.29 1586.1 1573.44 L1586.1 1568.92 Q1588.05 1570.06 1590.36 1570.64 Q1592.68 1571.22 1595.2 1571.22 Q1599.6 1571.22 1601.89 1569.48 Q1604.2 1567.74 1604.2 1564.43 Q1604.2 1561.38 1602.05 1559.67 Q1599.92 1557.93 1596.1 1557.93 L1592.08 1557.93 L1592.08 1554.09 L1596.29 1554.09 Q1599.74 1554.09 1601.57 1552.72 Q1603.39 1551.33 1603.39 1548.74 Q1603.39 1546.08 1601.5 1544.67 Q1599.62 1543.23 1596.1 1543.23 Q1594.18 1543.23 1591.98 1543.65 Q1589.78 1544.06 1587.14 1544.94 L1587.14 1540.78 Q1589.81 1540.04 1592.12 1539.67 Q1594.46 1539.29 1596.52 1539.29 Q1601.84 1539.29 1604.95 1541.73 Q1608.05 1544.13 1608.05 1548.25 Q1608.05 1551.12 1606.4 1553.11 Q1604.76 1555.08 1601.73 1555.85 Z" fill="#000000" fill-rule="evenodd" fill-opacity="1" /><path clip-path="url(#clip270)" d="M 0 0 M1613.93 1568.6 L1618.81 1568.6 L1618.81 1574.48 L1613.93 1574.48 L1613.93 1568.6 Z" fill="#000000" fill-rule="evenodd" fill-opacity="1" /><path clip-path="url(#clip270)" d="M 0 0 M1624.02 1573.76 L1624.02 1569.5 Q1625.78 1570.34 1627.58 1570.78 Q1629.39 1571.22 1631.13 1571.22 Q1635.76 1571.22 1638.19 1568.11 Q1640.64 1564.99 1640.99 1558.65 Q1639.64 1560.64 1637.58 1561.7 Q1635.52 1562.77 1633.02 1562.77 Q1627.84 1562.77 1624.81 1559.64 Q1621.8 1556.49 1621.8 1551.05 Q1621.8 1545.73 1624.95 1542.51 Q1628.09 1539.29 1633.33 1539.29 Q1639.32 1539.29 1642.47 1543.9 Q1645.64 1548.48 1645.64 1557.23 Q1645.64 1565.41 1641.75 1570.29 Q1637.89 1575.15 1631.33 1575.15 Q1629.58 1575.15 1627.77 1574.8 Q1625.96 1574.46 1624.02 1573.76 M1633.33 1559.11 Q1636.47 1559.11 1638.3 1556.96 Q1640.15 1554.8 1640.15 1551.05 Q1640.15 1547.33 1638.3 1545.17 Q1636.47 1543 1633.33 1543 Q1630.18 1543 1628.33 1545.17 Q1626.5 1547.33 1626.5 1551.05 Q1626.5 1554.8 1628.33 1556.96 Q1630.18 1559.11 1633.33 1559.11 Z" fill="#000000" fill-rule="evenodd" fill-opacity="1" /><path clip-path="url(#clip270)" d="M 0 0 M1661.29 1555.34 Q1658.14 1555.34 1656.29 1557.49 Q1654.46 1559.64 1654.46 1563.39 Q1654.46 1567.12 1656.29 1569.29 Q1658.14 1571.45 1661.29 1571.45 Q1664.44 1571.45 1666.26 1569.29 Q1668.12 1567.12 1668.12 1563.39 Q1668.12 1559.64 1666.26 1557.49 Q1664.44 1555.34 1661.29 1555.34 M1670.57 1540.68 L1670.57 1544.94 Q1668.81 1544.11 1667.01 1543.67 Q1665.22 1543.23 1663.46 1543.23 Q1658.83 1543.23 1656.38 1546.36 Q1653.95 1549.48 1653.6 1555.8 Q1654.97 1553.79 1657.03 1552.72 Q1659.09 1551.63 1661.57 1551.63 Q1666.77 1551.63 1669.78 1554.8 Q1672.82 1557.95 1672.82 1563.39 Q1672.82 1568.72 1669.67 1571.93 Q1666.52 1575.15 1661.29 1575.15 Q1655.29 1575.15 1652.12 1570.57 Q1648.95 1565.96 1648.95 1557.23 Q1648.95 1549.04 1652.84 1544.18 Q1656.73 1539.29 1663.28 1539.29 Q1665.04 1539.29 1666.82 1539.64 Q1668.63 1539.99 1670.57 1540.68 Z" fill="#000000" fill-rule="evenodd" fill-opacity="1" /><path clip-path="url(#clip270)" d="M 0 0 M1677.93 1539.92 L1696.29 1539.92 L1696.29 1543.86 L1682.21 1543.86 L1682.21 1552.33 Q1683.23 1551.98 1684.25 1551.82 Q1685.27 1551.63 1686.29 1551.63 Q1692.07 1551.63 1695.45 1554.8 Q1698.83 1557.98 1698.83 1563.39 Q1698.83 1568.97 1695.36 1572.07 Q1691.89 1575.15 1685.57 1575.15 Q1683.39 1575.15 1681.13 1574.78 Q1678.88 1574.41 1676.47 1573.67 L1676.47 1568.97 Q1678.56 1570.1 1680.78 1570.66 Q1683 1571.22 1685.48 1571.22 Q1689.48 1571.22 1691.82 1569.11 Q1694.16 1567 1694.16 1563.39 Q1694.16 1559.78 1691.82 1557.67 Q1689.48 1555.57 1685.48 1555.57 Q1683.6 1555.57 1681.73 1555.98 Q1679.88 1556.4 1677.93 1557.28 L1677.93 1539.92 Z" fill="#000000" fill-rule="evenodd" fill-opacity="1" /><path clip-path="url(#clip270)" d="M 0 0 M1713.9 1543 Q1710.29 1543 1708.46 1546.56 Q1706.66 1550.11 1706.66 1557.23 Q1706.66 1564.34 1708.46 1567.91 Q1710.29 1571.45 1713.9 1571.45 Q1717.54 1571.45 1719.34 1567.91 Q1721.17 1564.34 1721.17 1557.23 Q1721.17 1550.11 1719.34 1546.56 Q1717.54 1543 1713.9 1543 M1713.9 1539.29 Q1719.71 1539.29 1722.77 1543.9 Q1725.85 1548.48 1725.85 1557.23 Q1725.85 1565.96 1722.77 1570.57 Q1719.71 1575.15 1713.9 1575.15 Q1708.09 1575.15 1705.01 1570.57 Q1701.96 1565.96 1701.96 1557.23 Q1701.96 1548.48 1705.01 1543.9 Q1708.09 1539.29 1713.9 1539.29 Z" fill="#000000" fill-rule="evenodd" fill-opacity="1" /><path clip-path="url(#clip270)" d="M 0 0 M2056.05 1555.85 Q2059.4 1556.56 2061.28 1558.83 Q2063.18 1561.1 2063.18 1564.43 Q2063.18 1569.55 2059.66 1572.35 Q2056.14 1575.15 2049.66 1575.15 Q2047.48 1575.15 2045.17 1574.71 Q2042.87 1574.29 2040.42 1573.44 L2040.42 1568.92 Q2042.36 1570.06 2044.68 1570.64 Q2046.99 1571.22 2049.52 1571.22 Q2053.92 1571.22 2056.21 1569.48 Q2058.52 1567.74 2058.52 1564.43 Q2058.52 1561.38 2056.37 1559.67 Q2054.24 1557.93 2050.42 1557.93 L2046.39 1557.93 L2046.39 1554.09 L2050.61 1554.09 Q2054.05 1554.09 2055.88 1552.72 Q2057.71 1551.33 2057.71 1548.74 Q2057.71 1546.08 2055.81 1544.67 Q2053.94 1543.23 2050.42 1543.23 Q2048.5 1543.23 2046.3 1543.65 Q2044.1 1544.06 2041.46 1544.94 L2041.46 1540.78 Q2044.12 1540.04 2046.44 1539.67 Q2048.78 1539.29 2050.84 1539.29 Q2056.16 1539.29 2059.26 1541.73 Q2062.36 1544.13 2062.36 1548.25 Q2062.36 1551.12 2060.72 1553.11 Q2059.08 1555.08 2056.05 1555.85 Z" fill="#000000" fill-rule="evenodd" fill-opacity="1" /><path clip-path="url(#clip270)" d="M 0 0 M2068.24 1568.6 L2073.13 1568.6 L2073.13 1574.48 L2068.24 1574.48 L2068.24 1568.6 Z" fill="#000000" fill-rule="evenodd" fill-opacity="1" /><path clip-path="url(#clip270)" d="M 0 0 M2078.34 1573.76 L2078.34 1569.5 Q2080.1 1570.34 2081.9 1570.78 Q2083.71 1571.22 2085.44 1571.22 Q2090.07 1571.22 2092.5 1568.11 Q2094.96 1564.99 2095.3 1558.65 Q2093.96 1560.64 2091.9 1561.7 Q2089.84 1562.77 2087.34 1562.77 Q2082.16 1562.77 2079.12 1559.64 Q2076.11 1556.49 2076.11 1551.05 Q2076.11 1545.73 2079.26 1542.51 Q2082.41 1539.29 2087.64 1539.29 Q2093.64 1539.29 2096.79 1543.9 Q2099.96 1548.48 2099.96 1557.23 Q2099.96 1565.41 2096.07 1570.29 Q2092.2 1575.15 2085.65 1575.15 Q2083.89 1575.15 2082.09 1574.8 Q2080.28 1574.46 2078.34 1573.76 M2087.64 1559.11 Q2090.79 1559.11 2092.62 1556.96 Q2094.47 1554.8 2094.47 1551.05 Q2094.47 1547.33 2092.62 1545.17 Q2090.79 1543 2087.64 1543 Q2084.49 1543 2082.64 1545.17 Q2080.81 1547.33 2080.81 1551.05 Q2080.81 1554.8 2082.64 1556.96 Q2084.49 1559.11 2087.64 1559.11 Z" fill="#000000" fill-rule="evenodd" fill-opacity="1" /><path clip-path="url(#clip270)" d="M 0 0 M2115.61 1555.34 Q2112.46 1555.34 2110.61 1557.49 Q2108.78 1559.64 2108.78 1563.39 Q2108.78 1567.12 2110.61 1569.29 Q2112.46 1571.45 2115.61 1571.45 Q2118.75 1571.45 2120.58 1569.29 Q2122.43 1567.12 2122.43 1563.39 Q2122.43 1559.64 2120.58 1557.49 Q2118.75 1555.34 2115.61 1555.34 M2124.89 1540.68 L2124.89 1544.94 Q2123.13 1544.11 2121.32 1543.67 Q2119.54 1543.23 2117.78 1543.23 Q2113.15 1543.23 2110.7 1546.36 Q2108.27 1549.48 2107.92 1555.8 Q2109.29 1553.79 2111.35 1552.72 Q2113.41 1551.63 2115.88 1551.63 Q2121.09 1551.63 2124.1 1554.8 Q2127.13 1557.95 2127.13 1563.39 Q2127.13 1568.72 2123.98 1571.93 Q2120.84 1575.15 2115.61 1575.15 Q2109.61 1575.15 2106.44 1570.57 Q2103.27 1565.96 2103.27 1557.23 Q2103.27 1549.04 2107.16 1544.18 Q2111.05 1539.29 2117.6 1539.29 Q2119.36 1539.29 2121.14 1539.64 Q2122.94 1539.99 2124.89 1540.68 Z" fill="#000000" fill-rule="evenodd" fill-opacity="1" /><path clip-path="url(#clip270)" d="M 0 0 M2131.02 1539.92 L2153.24 1539.92 L2153.24 1541.91 L2140.7 1574.48 L2135.81 1574.48 L2147.62 1543.86 L2131.02 1543.86 L2131.02 1539.92 Z" fill="#000000" fill-rule="evenodd" fill-opacity="1" /><path clip-path="url(#clip270)" d="M 0 0 M2158.36 1539.92 L2176.72 1539.92 L2176.72 1543.86 L2162.64 1543.86 L2162.64 1552.33 Q2163.66 1551.98 2164.68 1551.82 Q2165.7 1551.63 2166.72 1551.63 Q2172.5 1551.63 2175.88 1554.8 Q2179.26 1557.98 2179.26 1563.39 Q2179.26 1568.97 2175.79 1572.07 Q2172.32 1575.15 2166 1575.15 Q2163.82 1575.15 2161.55 1574.78 Q2159.31 1574.41 2156.9 1573.67 L2156.9 1568.97 Q2158.98 1570.1 2161.21 1570.66 Q2163.43 1571.22 2165.91 1571.22 Q2169.91 1571.22 2172.25 1569.11 Q2174.59 1567 2174.59 1563.39 Q2174.59 1559.78 2172.25 1557.67 Q2169.91 1555.57 2165.91 1555.57 Q2164.03 1555.57 2162.16 1555.98 Q2160.3 1556.4 2158.36 1557.28 L2158.36 1539.92 Z" fill="#000000" fill-rule="evenodd" fill-opacity="1" /><path clip-path="url(#clip270)" d="M 0 0 M51.0477 1465.1 Q47.4367 1465.1 45.608 1468.66 Q43.8024 1472.2 43.8024 1479.33 Q43.8024 1486.44 45.608 1490 Q47.4367 1493.55 51.0477 1493.55 Q54.682 1493.55 56.4875 1490 Q58.3162 1486.44 58.3162 1479.33 Q58.3162 1472.2 56.4875 1468.66 Q54.682 1465.1 51.0477 1465.1 M51.0477 1461.39 Q56.8579 1461.39 59.9134 1466 Q62.9921 1470.58 62.9921 1479.33 Q62.9921 1488.06 59.9134 1492.67 Q56.8579 1497.25 51.0477 1497.25 Q45.2376 1497.25 42.1589 1492.67 Q39.1034 1488.06 39.1034 1479.33 Q39.1034 1470.58 42.1589 1466 Q45.2376 1461.39 51.0477 1461.39 Z" fill="#000000" fill-rule="evenodd" fill-opacity="1" /><path clip-path="url(#clip270)" d="M 0 0 M15.0757 1198.55 L33.4321 1198.55 L33.4321 1202.48 L19.3581 1202.48 L19.3581 1210.95 Q20.3766 1210.61 21.3951 1210.44 Q22.4136 1210.26 23.4322 1210.26 Q29.2192 1210.26 32.5988 1213.43 Q35.9784 1216.6 35.9784 1222.02 Q35.9784 1227.6 32.5062 1230.7 Q29.034 1233.78 22.7146 1233.78 Q20.5386 1233.78 18.2701 1233.41 Q16.0248 1233.04 13.6174 1232.29 L13.6174 1227.6 Q15.7007 1228.73 17.9229 1229.29 Q20.1451 1229.84 22.622 1229.84 Q26.6266 1229.84 28.9645 1227.73 Q31.3025 1225.63 31.3025 1222.02 Q31.3025 1218.41 28.9645 1216.3 Q26.6266 1214.19 22.622 1214.19 Q20.747 1214.19 18.872 1214.61 Q17.0202 1215.03 15.0757 1215.91 L15.0757 1198.55 Z" fill="#000000" fill-rule="evenodd" fill-opacity="1" /><path clip-path="url(#clip270)" d="M 0 0 M51.0477 1201.62 Q47.4367 1201.62 45.608 1205.19 Q43.8024 1208.73 43.8024 1215.86 Q43.8024 1222.97 45.608 1226.53 Q47.4367 1230.07 51.0477 1230.07 Q54.682 1230.07 56.4875 1226.53 Q58.3162 1222.97 58.3162 1215.86 Q58.3162 1208.73 56.4875 1205.19 Q54.682 1201.62 51.0477 1201.62 M51.0477 1197.92 Q56.8579 1197.92 59.9134 1202.53 Q62.9921 1207.11 62.9921 1215.86 Q62.9921 1224.59 59.9134 1229.19 Q56.8579 1233.78 51.0477 1233.78 Q45.2376 1233.78 42.1589 1229.19 Q39.1034 1224.59 39.1034 1215.86 Q39.1034 1207.11 42.1589 1202.53 Q45.2376 1197.92 51.0477 1197.92 Z" fill="#000000" fill-rule="evenodd" fill-opacity="1" /><path clip-path="url(#clip270)" d="M 0 0 M-10.9427 965.697 L-3.30382 965.697 L-3.30382 939.332 L-11.614 940.998 L-11.614 936.739 L-3.35011 935.072 L1.32579 935.072 L1.32579 965.697 L8.96464 965.697 L8.96464 969.632 L-10.9427 969.632 L-10.9427 965.697 Z" fill="#000000" fill-rule="evenodd" fill-opacity="1" /><path clip-path="url(#clip270)" d="M 0 0 M24.034 938.151 Q20.4229 938.151 18.5942 941.716 Q16.7887 945.258 16.7887 952.387 Q16.7887 959.494 18.5942 963.058 Q20.4229 966.6 24.034 966.6 Q27.6682 966.6 29.4738 963.058 Q31.3025 959.494 31.3025 952.387 Q31.3025 945.258 29.4738 941.716 Q27.6682 938.151 24.034 938.151 M24.034 934.447 Q29.8442 934.447 32.8997 939.054 Q35.9784 943.637 35.9784 952.387 Q35.9784 961.114 32.8997 965.72 Q29.8442 970.304 24.034 970.304 Q18.2238 970.304 15.1452 965.72 Q12.0896 961.114 12.0896 952.387 Q12.0896 943.637 15.1452 939.054 Q18.2238 934.447 24.034 934.447 Z" fill="#000000" fill-rule="evenodd" fill-opacity="1" /><path clip-path="url(#clip270)" d="M 0 0 M51.0477 938.151 Q47.4367 938.151 45.608 941.716 Q43.8024 945.258 43.8024 952.387 Q43.8024 959.494 45.608 963.058 Q47.4367 966.6 51.0477 966.6 Q54.682 966.6 56.4875 963.058 Q58.3162 959.494 58.3162 952.387 Q58.3162 945.258 56.4875 941.716 Q54.682 938.151 51.0477 938.151 M51.0477 934.447 Q56.8579 934.447 59.9134 939.054 Q62.9921 943.637 62.9921 952.387 Q62.9921 961.114 59.9134 965.72 Q56.8579 970.304 51.0477 970.304 Q45.2376 970.304 42.1589 965.72 Q39.1034 961.114 39.1034 952.387 Q39.1034 943.637 42.1589 939.054 Q45.2376 934.447 51.0477 934.447 Z" fill="#000000" fill-rule="evenodd" fill-opacity="1" /><path clip-path="url(#clip270)" d="M 0 0 M-9.9473 702.225 L-2.30845 702.225 L-2.30845 675.859 L-10.6186 677.526 L-10.6186 673.267 L-2.35475 671.6 L2.32115 671.6 L2.32115 702.225 L9.96 702.225 L9.96 706.16 L-9.9473 706.16 L-9.9473 702.225 Z" fill="#000000" fill-rule="evenodd" fill-opacity="1" /><path clip-path="url(#clip270)" d="M 0 0 M15.0757 671.6 L33.4321 671.6 L33.4321 675.535 L19.3581 675.535 L19.3581 684.007 Q20.3766 683.66 21.3951 683.498 Q22.4136 683.313 23.4322 683.313 Q29.2192 683.313 32.5988 686.484 Q35.9784 689.655 35.9784 695.072 Q35.9784 700.651 32.5062 703.753 Q29.034 706.831 22.7146 706.831 Q20.5386 706.831 18.2701 706.461 Q16.0248 706.091 13.6174 705.35 L13.6174 700.651 Q15.7007 701.785 17.9229 702.341 Q20.1451 702.896 22.622 702.896 Q26.6266 702.896 28.9645 700.79 Q31.3025 698.683 31.3025 695.072 Q31.3025 691.461 28.9645 689.354 Q26.6266 687.248 22.622 687.248 Q20.747 687.248 18.872 687.665 Q17.0202 688.081 15.0757 688.961 L15.0757 671.6 Z" fill="#000000" fill-rule="evenodd" fill-opacity="1" /><path clip-path="url(#clip270)" d="M 0 0 M51.0477 674.679 Q47.4367 674.679 45.608 678.243 Q43.8024 681.785 43.8024 688.915 Q43.8024 696.021 45.608 699.586 Q47.4367 703.128 51.0477 703.128 Q54.682 703.128 56.4875 699.586 Q58.3162 696.021 58.3162 688.915 Q58.3162 681.785 56.4875 678.243 Q54.682 674.679 51.0477 674.679 M51.0477 670.975 Q56.8579 670.975 59.9134 675.581 Q62.9921 680.165 62.9921 688.915 Q62.9921 697.641 59.9134 702.248 Q56.8579 706.831 51.0477 706.831 Q45.2376 706.831 42.1589 702.248 Q39.1034 697.641 39.1034 688.915 Q39.1034 680.165 42.1589 675.581 Q45.2376 670.975 51.0477 670.975 Z" fill="#000000" fill-rule="evenodd" fill-opacity="1" /><path clip-path="url(#clip270)" d="M 0 0 M-7.35472 438.752 L8.96464 438.752 L8.96464 442.687 L-12.9797 442.687 L-12.9797 438.752 Q-10.3177 435.998 -5.73436 431.368 Q-1.1279 426.715 0.0526484 425.373 Q2.29801 422.85 3.17763 421.113 Q4.0804 419.354 4.0804 417.664 Q4.0804 414.91 2.13597 413.174 Q0.214685 411.438 -2.88715 411.438 Q-5.08621 411.438 -7.5399 412.201 Q-9.97045 412.965 -12.7482 414.516 L-12.7482 409.794 Q-9.92415 408.66 -7.47046 408.081 Q-5.01677 407.502 -2.97974 407.502 Q2.3906 407.502 5.58503 410.188 Q8.77945 412.873 8.77945 417.363 Q8.77945 419.493 7.96927 421.414 Q7.18224 423.313 5.07577 425.905 Q4.49707 426.576 1.39523 429.794 Q-1.7066 432.988 -7.35472 438.752 Z" fill="#000000" fill-rule="evenodd" fill-opacity="1" /><path clip-path="url(#clip270)" d="M 0 0 M24.034 411.206 Q20.4229 411.206 18.5942 414.771 Q16.7887 418.313 16.7887 425.442 Q16.7887 432.549 18.5942 436.113 Q20.4229 439.655 24.034 439.655 Q27.6682 439.655 29.4738 436.113 Q31.3025 432.549 31.3025 425.442 Q31.3025 418.313 29.4738 414.771 Q27.6682 411.206 24.034 411.206 M24.034 407.502 Q29.8442 407.502 32.8997 412.109 Q35.9784 416.692 35.9784 425.442 Q35.9784 434.169 32.8997 438.775 Q29.8442 443.359 24.034 443.359 Q18.2238 443.359 15.1452 438.775 Q12.0896 434.169 12.0896 425.442 Q12.0896 416.692 15.1452 412.109 Q18.2238 407.502 24.034 407.502 Z" fill="#000000" fill-rule="evenodd" fill-opacity="1" /><path clip-path="url(#clip270)" d="M 0 0 M51.0477 411.206 Q47.4367 411.206 45.608 414.771 Q43.8024 418.313 43.8024 425.442 Q43.8024 432.549 45.608 436.113 Q47.4367 439.655 51.0477 439.655 Q54.682 439.655 56.4875 436.113 Q58.3162 432.549 58.3162 425.442 Q58.3162 418.313 56.4875 414.771 Q54.682 411.206 51.0477 411.206 M51.0477 407.502 Q56.8579 407.502 59.9134 412.109 Q62.9921 416.692 62.9921 425.442 Q62.9921 434.169 59.9134 438.775 Q56.8579 443.359 51.0477 443.359 Q45.2376 443.359 42.1589 438.775 Q39.1034 434.169 39.1034 425.442 Q39.1034 416.692 42.1589 412.109 Q45.2376 407.502 51.0477 407.502 Z" fill="#000000" fill-rule="evenodd" fill-opacity="1" /><path clip-path="url(#clip270)" d="M 0 0 M-6.35935 175.28 L9.96 175.28 L9.96 179.215 L-11.9843 179.215 L-11.9843 175.28 Q-9.3223 172.525 -4.73899 167.895 Q-0.132536 163.243 1.04801 161.9 Q3.29337 159.377 4.173 157.641 Q5.07577 155.882 5.07577 154.192 Q5.07577 151.437 3.13134 149.701 Q1.21005 147.965 -1.89179 147.965 Q-4.09085 147.965 -6.54454 148.729 Q-8.97508 149.493 -11.7528 151.044 L-11.7528 146.322 Q-8.92878 145.187 -6.47509 144.609 Q-4.0214 144.03 -1.98438 144.03 Q3.38596 144.03 6.58039 146.715 Q9.77482 149.4 9.77482 153.891 Q9.77482 156.021 8.96464 157.942 Q8.1776 159.84 6.07113 162.433 Q5.49243 163.104 2.3906 166.321 Q-0.711236 169.516 -6.35935 175.28 Z" fill="#000000" fill-rule="evenodd" fill-opacity="1" /><path clip-path="url(#clip270)" d="M 0 0 M15.0757 144.655 L33.4321 144.655 L33.4321 148.59 L19.3581 148.59 L19.3581 157.062 Q20.3766 156.715 21.3951 156.553 Q22.4136 156.368 23.4322 156.368 Q29.2192 156.368 32.5988 159.539 Q35.9784 162.71 35.9784 168.127 Q35.9784 173.706 32.5062 176.807 Q29.034 179.886 22.7146 179.886 Q20.5386 179.886 18.2701 179.516 Q16.0248 179.145 13.6174 178.405 L13.6174 173.706 Q15.7007 174.84 17.9229 175.395 Q20.1451 175.951 22.622 175.951 Q26.6266 175.951 28.9645 173.845 Q31.3025 171.738 31.3025 168.127 Q31.3025 164.516 28.9645 162.409 Q26.6266 160.303 22.622 160.303 Q20.747 160.303 18.872 160.72 Q17.0202 161.136 15.0757 162.016 L15.0757 144.655 Z" fill="#000000" fill-rule="evenodd" fill-opacity="1" /><path clip-path="url(#clip270)" d="M 0 0 M51.0477 147.734 Q47.4367 147.734 45.608 151.298 Q43.8024 154.84 43.8024 161.97 Q43.8024 169.076 45.608 172.641 Q47.4367 176.182 51.0477 176.182 Q54.682 176.182 56.4875 172.641 Q58.3162 169.076 58.3162 161.97 Q58.3162 154.84 56.4875 151.298 Q54.682 147.734 51.0477 147.734 M51.0477 144.03 Q56.8579 144.03 59.9134 148.636 Q62.9921 153.22 62.9921 161.97 Q62.9921 170.696 59.9134 175.303 Q56.8579 179.886 51.0477 179.886 Q45.2376 179.886 42.1589 175.303 Q39.1034 170.696 39.1034 161.97 Q39.1034 153.22 42.1589 148.636 Q45.2376 144.03 51.0477 144.03 Z" fill="#000000" fill-rule="evenodd" fill-opacity="1" /><path clip-path="url(#clip272)" d="
M151.118 1461.66 L155.809 1460.57 L160.501 1459.48 L165.192 1458.37 L169.884 1457.24 L174.576 1456.06 L179.267 1454.82 L183.959 1453.5 L188.651 1452.08 L193.342 1450.54 
  L198.034 1448.88 L202.726 1447.06 L207.417 1445.1 L212.109 1442.97 L216.801 1440.69 L221.492 1438.25 L226.184 1435.68 L230.876 1432.99 L235.567 1430.2 L240.259 1427.32 
  L244.951 1424.4 L249.642 1421.46 L254.334 1418.53 L259.025 1415.62 L263.717 1412.77 L268.409 1410 L273.1 1407.33 L277.792 1404.76 L282.484 1402.32 L287.175 1400 
  L291.867 1397.81 L296.559 1395.75 L301.25 1393.82 L305.942 1392.01 L310.634 1390.33 L315.325 1388.75 L320.017 1387.29 L324.709 1385.93 L329.4 1384.66 L334.092 1383.48 
  L338.784 1382.38 L343.475 1381.34 L348.167 1380.36 L352.858 1379.42 L357.55 1378.49 L362.242 1377.56 L366.933 1376.61 L371.625 1375.6 L376.317 1374.51 L381.008 1373.32 
  L385.7 1372 L390.392 1370.53 L395.083 1368.88 L399.775 1367.06 L404.467 1365.04 L409.158 1362.84 L413.85 1360.46 L418.542 1357.92 L423.233 1355.25 L427.925 1352.47 
  L432.617 1349.62 L437.308 1346.76 L442 1343.92 L446.691 1341.15 L451.383 1338.51 L456.075 1336.04 L460.766 1333.78 L465.458 1331.77 L470.15 1330.03 L474.841 1328.59 
  L479.533 1327.46 L484.225 1326.63 L488.916 1326.09 L493.608 1325.82 L498.3 1325.78 L502.991 1325.92 L507.683 1326.2 L512.375 1326.54 L517.066 1326.88 L521.758 1327.15 
  L526.45 1327.28 L531.141 1327.21 L535.833 1326.85 L540.524 1326.16 L545.216 1325.08 L549.908 1323.57 L554.599 1321.6 L559.291 1319.14 L563.983 1316.19 L568.674 1312.75 
  L573.366 1308.84 L578.058 1304.51 L582.749 1299.78 L587.441 1294.73 L592.133 1289.41 L596.824 1283.91 L601.516 1278.32 L606.208 1272.73 L610.899 1267.24 L615.591 1261.96 
  L615.591 1479.3 L610.899 1479.3 L606.208 1479.3 L601.516 1479.3 L596.824 1479.3 L592.133 1479.3 L587.441 1479.3 L582.749 1479.3 L578.058 1479.3 L573.366 1479.3 
  L568.674 1479.3 L563.983 1479.3 L559.291 1479.3 L554.599 1479.3 L549.908 1479.3 L545.216 1479.3 L540.524 1479.3 L535.833 1479.3 L531.141 1479.3 L526.45 1479.3 
  L521.758 1479.3 L517.066 1479.3 L512.375 1479.3 L507.683 1479.3 L502.991 1479.3 L498.3 1479.3 L493.608 1479.3 L488.916 1479.3 L484.225 1479.3 L479.533 1479.3 
  L474.841 1479.3 L470.15 1479.3 L465.458 1479.3 L460.766 1479.3 L456.075 1479.3 L451.383 1479.3 L446.691 1479.3 L442 1479.3 L437.308 1479.3 L432.617 1479.3 
  L427.925 1479.3 L423.233 1479.3 L418.542 1479.3 L413.85 1479.3 L409.158 1479.3 L404.467 1479.3 L399.775 1479.3 L395.083 1479.3 L390.392 1479.3 L385.7 1479.3 
  L381.008 1479.3 L376.317 1479.3 L371.625 1479.3 L366.933 1479.3 L362.242 1479.3 L357.55 1479.3 L352.858 1479.3 L348.167 1479.3 L343.475 1479.3 L338.784 1479.3 
  L334.092 1479.3 L329.4 1479.3 L324.709 1479.3 L320.017 1479.3 L315.325 1479.3 L310.634 1479.3 L305.942 1479.3 L301.25 1479.3 L296.559 1479.3 L291.867 1479.3 
  L287.175 1479.3 L282.484 1479.3 L277.792 1479.3 L273.1 1479.3 L268.409 1479.3 L263.717 1479.3 L259.025 1479.3 L254.334 1479.3 L249.642 1479.3 L244.951 1479.3 
  L240.259 1479.3 L235.567 1479.3 L230.876 1479.3 L226.184 1479.3 L221.492 1479.3 L216.801 1479.3 L212.109 1479.3 L207.417 1479.3 L202.726 1479.3 L198.034 1479.3 
  L193.342 1479.3 L188.651 1479.3 L183.959 1479.3 L179.267 1479.3 L174.576 1479.3 L169.884 1479.3 L165.192 1479.3 L160.501 1479.3 L155.809 1479.3 L151.118 1479.3 
   Z
  " fill="#ffa500" fill-rule="evenodd" fill-opacity="0.5"/>
<polyline clip-path="url(#clip272)" style="stroke:#ffa500; stroke-width:4; stroke-opacity:1; fill:none" points="
  151.118,1461.66 155.809,1460.57 160.501,1459.48 165.192,1458.37 169.884,1457.24 174.576,1456.06 179.267,1454.82 183.959,1453.5 188.651,1452.08 193.342,1450.54 
  198.034,1448.88 202.726,1447.06 207.417,1445.1 212.109,1442.97 216.801,1440.69 221.492,1438.25 226.184,1435.68 230.876,1432.99 235.567,1430.2 240.259,1427.32 
  244.951,1424.4 249.642,1421.46 254.334,1418.53 259.025,1415.62 263.717,1412.77 268.409,1410 273.1,1407.33 277.792,1404.76 282.484,1402.32 287.175,1400 
  291.867,1397.81 296.559,1395.75 301.25,1393.82 305.942,1392.01 310.634,1390.33 315.325,1388.75 320.017,1387.29 324.709,1385.93 329.4,1384.66 334.092,1383.48 
  338.784,1382.38 343.475,1381.34 348.167,1380.36 352.858,1379.42 357.55,1378.49 362.242,1377.56 366.933,1376.61 371.625,1375.6 376.317,1374.51 381.008,1373.32 
  385.7,1372 390.392,1370.53 395.083,1368.88 399.775,1367.06 404.467,1365.04 409.158,1362.84 413.85,1360.46 418.542,1357.92 423.233,1355.25 427.925,1352.47 
  432.617,1349.62 437.308,1346.76 442,1343.92 446.691,1341.15 451.383,1338.51 456.075,1336.04 460.766,1333.78 465.458,1331.77 470.15,1330.03 474.841,1328.59 
  479.533,1327.46 484.225,1326.63 488.916,1326.09 493.608,1325.82 498.3,1325.78 502.991,1325.92 507.683,1326.2 512.375,1326.54 517.066,1326.88 521.758,1327.15 
  526.45,1327.28 531.141,1327.21 535.833,1326.85 540.524,1326.16 545.216,1325.08 549.908,1323.57 554.599,1321.6 559.291,1319.14 563.983,1316.19 568.674,1312.75 
  573.366,1308.84 578.058,1304.51 582.749,1299.78 587.441,1294.73 592.133,1289.41 596.824,1283.91 601.516,1278.32 606.208,1272.73 610.899,1267.24 615.591,1261.96 
  
  "/>
<path clip-path="url(#clip272)" d="
M615.591 1261.96 L629.199 1248.67 L642.806 1240.1 L656.414 1237.72 L670.022 1241.88 L683.63 1251.68 L697.238 1265.05 L710.845 1279.2 L724.453 1291.08 L738.061 1297.95 
  L751.669 1297.71 L765.276 1289.2 L778.884 1272.14 L792.492 1246.93 L806.1 1214.23 L819.708 1174.57 L833.315 1128.16 L846.923 1074.95 L860.531 1015.05 L874.139 949.379 
  L887.746 880.07 L901.354 810.598 L914.962 745.299 L928.57 688.497 L942.178 643.556 L955.785 612.253 L969.393 594.695 L983.001 589.706 L996.609 595.333 L1010.22 609.163 
  L1023.82 628.299 L1037.43 649.192 L1051.04 667.592 L1064.65 678.793 L1078.26 678.178 L1091.86 661.945 L1105.47 627.906 L1119.08 576.175 L1132.69 509.528 L1146.29 433.171 
  L1159.9 353.846 L1173.51 278.482 L1187.12 212.827 L1200.73 160.543 L1214.33 122.991 L1227.94 99.7263 L1241.55 89.4312 L1255.16 90.8881 L1268.76 103.524 L1282.37 127.213 
  L1295.98 161.395 L1309.59 204.054 L1323.2 251.322 L1336.8 298.211 L1350.41 340.267 L1364.02 375.306 L1377.63 404.256 L1391.23 430.645 L1404.84 459.065 L1418.45 493.412 
  L1432.06 535.669 L1445.67 585.545 L1459.27 640.84 L1472.88 698.236 L1486.49 754.244 L1500.1 806.112 L1513.7 852.475 L1527.31 893.545 L1540.92 930.717 L1554.53 965.746 
  L1568.14 999.822 L1581.74 1032.95 L1595.35 1063.83 L1608.96 1090.28 L1622.57 1110 L1636.17 1121.37 L1649.78 1124.06 L1663.39 1119.33 L1677 1109.78 L1690.61 1098.76 
  L1704.21 1089.53 L1717.82 1084.52 L1731.43 1084.9 L1745.04 1090.51 L1758.64 1100.23 L1772.25 1112.66 L1785.86 1126.73 L1799.47 1142.13 L1813.08 1159.32 L1826.68 1179.1 
  L1840.29 1201.93 L1853.9 1227.38 L1867.51 1253.81 L1881.11 1278.61 L1894.72 1298.84 L1908.33 1312.21 L1921.94 1317.89 L1935.55 1316.93 L1949.15 1312.06 L1962.76 1306.74 
  L1962.76 1479.3 L1949.15 1479.3 L1935.55 1479.3 L1921.94 1479.3 L1908.33 1479.3 L1894.72 1479.3 L1881.11 1479.3 L1867.51 1479.3 L1853.9 1479.3 L1840.29 1479.3 
  L1826.68 1479.3 L1813.08 1479.3 L1799.47 1479.3 L1785.86 1479.3 L1772.25 1479.3 L1758.64 1479.3 L1745.04 1479.3 L1731.43 1479.3 L1717.82 1479.3 L1704.21 1479.3 
  L1690.61 1479.3 L1677 1479.3 L1663.39 1479.3 L1649.78 1479.3 L1636.17 1479.3 L1622.57 1479.3 L1608.96 1479.3 L1595.35 1479.3 L1581.74 1479.3 L1568.14 1479.3 
  L1554.53 1479.3 L1540.92 1479.3 L1527.31 1479.3 L1513.7 1479.3 L1500.1 1479.3 L1486.49 1479.3 L1472.88 1479.3 L1459.27 1479.3 L1445.67 1479.3 L1432.06 1479.3 
  L1418.45 1479.3 L1404.84 1479.3 L1391.23 1479.3 L1377.63 1479.3 L1364.02 1479.3 L1350.41 1479.3 L1336.8 1479.3 L1323.2 1479.3 L1309.59 1479.3 L1295.98 1479.3 
  L1282.37 1479.3 L1268.76 1479.3 L1255.16 1479.3 L1241.55 1479.3 L1227.94 1479.3 L1214.33 1479.3 L1200.73 1479.3 L1187.12 1479.3 L1173.51 1479.3 L1159.9 1479.3 
  L1146.29 1479.3 L1132.69 1479.3 L1119.08 1479.3 L1105.47 1479.3 L1091.86 1479.3 L1078.26 1479.3 L1064.65 1479.3 L1051.04 1479.3 L1037.43 1479.3 L1023.82 1479.3 
  L1010.22 1479.3 L996.609 1479.3 L983.001 1479.3 L969.393 1479.3 L955.785 1479.3 L942.178 1479.3 L928.57 1479.3 L914.962 1479.3 L901.354 1479.3 L887.746 1479.3 
  L874.139 1479.3 L860.531 1479.3 L846.923 1479.3 L833.315 1479.3 L819.708 1479.3 L806.1 1479.3 L792.492 1479.3 L778.884 1479.3 L765.276 1479.3 L751.669 1479.3 
  L738.061 1479.3 L724.453 1479.3 L710.845 1479.3 L697.238 1479.3 L683.63 1479.3 L670.022 1479.3 L656.414 1479.3 L642.806 1479.3 L629.199 1479.3 L615.591 1479.3 
   Z
  " fill="#008000" fill-rule="evenodd" fill-opacity="0.5"/>
<polyline clip-path="url(#clip272)" style="stroke:#008000; stroke-width:4; stroke-opacity:1; fill:none" points="
  615.591,1261.96 629.199,1248.67 642.806,1240.1 656.414,1237.72 670.022,1241.88 683.63,1251.68 697.238,1265.05 710.845,1279.2 724.453,1291.08 738.061,1297.95 
  751.669,1297.71 765.276,1289.2 778.884,1272.14 792.492,1246.93 806.1,1214.23 819.708,1174.57 833.315,1128.16 846.923,1074.95 860.531,1015.05 874.139,949.379 
  887.746,880.07 901.354,810.598 914.962,745.299 928.57,688.497 942.178,643.556 955.785,612.253 969.393,594.695 983.001,589.706 996.609,595.333 1010.22,609.163 
  1023.82,628.299 1037.43,649.192 1051.04,667.592 1064.65,678.793 1078.26,678.178 1091.86,661.945 1105.47,627.906 1119.08,576.175 1132.69,509.528 1146.29,433.171 
  1159.9,353.846 1173.51,278.482 1187.12,212.827 1200.73,160.543 1214.33,122.991 1227.94,99.7263 1241.55,89.4312 1255.16,90.8881 1268.76,103.524 1282.37,127.213 
  1295.98,161.395 1309.59,204.054 1323.2,251.322 1336.8,298.211 1350.41,340.267 1364.02,375.306 1377.63,404.256 1391.23,430.645 1404.84,459.065 1418.45,493.412 
  1432.06,535.669 1445.67,585.545 1459.27,640.84 1472.88,698.236 1486.49,754.244 1500.1,806.112 1513.7,852.475 1527.31,893.545 1540.92,930.717 1554.53,965.746 
  1568.14,999.822 1581.74,1032.95 1595.35,1063.83 1608.96,1090.28 1622.57,1110 1636.17,1121.37 1649.78,1124.06 1663.39,1119.33 1677,1109.78 1690.61,1098.76 
  1704.21,1089.53 1717.82,1084.52 1731.43,1084.9 1745.04,1090.51 1758.64,1100.23 1772.25,1112.66 1785.86,1126.73 1799.47,1142.13 1813.08,1159.32 1826.68,1179.1 
  1840.29,1201.93 1853.9,1227.38 1867.51,1253.81 1881.11,1278.61 1894.72,1298.84 1908.33,1312.21 1921.94,1317.89 1935.55,1316.93 1949.15,1312.06 1962.76,1306.74 
  
  "/>
<path clip-path="url(#clip272)" d="
M1962.76 1306.74 L1966.05 1305.76 L1969.34 1304.97 L1972.64 1304.41 L1975.93 1304.1 L1979.22 1304.06 L1982.51 1304.29 L1985.8 1304.8 L1989.09 1305.6 L1992.39 1306.67 
  L1995.68 1307.99 L1998.97 1309.57 L2002.26 1311.36 L2005.55 1313.36 L2008.84 1315.52 L2012.14 1317.82 L2015.43 1320.24 L2018.72 1322.73 L2022.01 1325.26 L2025.3 1327.8 
  L2028.59 1330.33 L2031.88 1332.8 L2035.18 1335.2 L2038.47 1337.5 L2041.76 1339.67 L2045.05 1341.69 L2048.34 1343.54 L2051.63 1345.22 L2054.93 1346.71 L2058.22 1347.99 
  L2061.51 1349.07 L2064.8 1349.94 L2068.09 1350.6 L2071.38 1351.05 L2074.68 1351.3 L2077.97 1351.36 L2081.26 1351.23 L2084.55 1350.92 L2087.84 1350.45 L2091.13 1349.84 
  L2094.43 1349.09 L2097.72 1348.22 L2101.01 1347.25 L2104.3 1346.21 L2107.59 1345.09 L2110.88 1343.94 L2114.18 1342.75 L2117.47 1341.55 L2120.76 1340.35 L2124.05 1339.18 
  L2127.34 1338.03 L2130.63 1336.93 L2133.92 1335.89 L2137.22 1334.9 L2140.51 1333.99 L2143.8 1333.15 L2147.09 1332.39 L2150.38 1331.71 L2153.67 1331.1 L2156.97 1330.57 
  L2160.26 1330.12 L2163.55 1329.73 L2166.84 1329.42 L2170.13 1329.16 L2173.42 1328.96 L2176.72 1328.82 L2180.01 1328.73 L2183.3 1328.69 L2186.59 1328.71 L2189.88 1328.78 
  L2193.17 1328.92 L2196.47 1329.13 L2199.76 1329.41 L2203.05 1329.79 L2206.34 1330.27 L2209.63 1330.86 L2212.92 1331.6 L2216.22 1332.48 L2219.51 1333.53 L2222.8 1334.77 
  L2226.09 1336.22 L2229.38 1337.88 L2232.67 1339.77 L2235.96 1341.9 L2239.26 1344.28 L2242.55 1346.92 L2245.84 1349.82 L2249.13 1352.98 L2252.42 1356.38 L2255.71 1360.02 
  L2259.01 1363.89 L2262.3 1367.98 L2265.59 1372.25 L2268.88 1376.69 L2272.17 1381.27 L2275.46 1385.97 L2278.76 1390.74 L2282.05 1395.58 L2285.34 1400.43 L2288.63 1405.28 
  L2288.63 1479.3 L2285.34 1479.3 L2282.05 1479.3 L2278.76 1479.3 L2275.46 1479.3 L2272.17 1479.3 L2268.88 1479.3 L2265.59 1479.3 L2262.3 1479.3 L2259.01 1479.3 
  L2255.71 1479.3 L2252.42 1479.3 L2249.13 1479.3 L2245.84 1479.3 L2242.55 1479.3 L2239.26 1479.3 L2235.96 1479.3 L2232.67 1479.3 L2229.38 1479.3 L2226.09 1479.3 
  L2222.8 1479.3 L2219.51 1479.3 L2216.22 1479.3 L2212.92 1479.3 L2209.63 1479.3 L2206.34 1479.3 L2203.05 1479.3 L2199.76 1479.3 L2196.47 1479.3 L2193.17 1479.3 
  L2189.88 1479.3 L2186.59 1479.3 L2183.3 1479.3 L2180.01 1479.3 L2176.72 1479.3 L2173.42 1479.3 L2170.13 1479.3 L2166.84 1479.3 L2163.55 1479.3 L2160.26 1479.3 
  L2156.97 1479.3 L2153.67 1479.3 L2150.38 1479.3 L2147.09 1479.3 L2143.8 1479.3 L2140.51 1479.3 L2137.22 1479.3 L2133.92 1479.3 L2130.63 1479.3 L2127.34 1479.3 
  L2124.05 1479.3 L2120.76 1479.3 L2117.47 1479.3 L2114.18 1479.3 L2110.88 1479.3 L2107.59 1479.3 L2104.3 1479.3 L2101.01 1479.3 L2097.72 1479.3 L2094.43 1479.3 
  L2091.13 1479.3 L2087.84 1479.3 L2084.55 1479.3 L2081.26 1479.3 L2077.97 1479.3 L2074.68 1479.3 L2071.38 1479.3 L2068.09 1479.3 L2064.8 1479.3 L2061.51 1479.3 
  L2058.22 1479.3 L2054.93 1479.3 L2051.63 1479.3 L2048.34 1479.3 L2045.05 1479.3 L2041.76 1479.3 L2038.47 1479.3 L2035.18 1479.3 L2031.88 1479.3 L2028.59 1479.3 
  L2025.3 1479.3 L2022.01 1479.3 L2018.72 1479.3 L2015.43 1479.3 L2012.14 1479.3 L2008.84 1479.3 L2005.55 1479.3 L2002.26 1479.3 L1998.97 1479.3 L1995.68 1479.3 
  L1992.39 1479.3 L1989.09 1479.3 L1985.8 1479.3 L1982.51 1479.3 L1979.22 1479.3 L1975.93 1479.3 L1972.64 1479.3 L1969.34 1479.3 L1966.05 1479.3 L1962.76 1479.3 
   Z
  " fill="#ffa500" fill-rule="evenodd" fill-opacity="0.5"/>
<polyline clip-path="url(#clip272)" style="stroke:#ffa500; stroke-width:4; stroke-opacity:1; fill:none" points="
  1962.76,1306.74 1966.05,1305.76 1969.34,1304.97 1972.64,1304.41 1975.93,1304.1 1979.22,1304.06 1982.51,1304.29 1985.8,1304.8 1989.09,1305.6 1992.39,1306.67 
  1995.68,1307.99 1998.97,1309.57 2002.26,1311.36 2005.55,1313.36 2008.84,1315.52 2012.14,1317.82 2015.43,1320.24 2018.72,1322.73 2022.01,1325.26 2025.3,1327.8 
  2028.59,1330.33 2031.88,1332.8 2035.18,1335.2 2038.47,1337.5 2041.76,1339.67 2045.05,1341.69 2048.34,1343.54 2051.63,1345.22 2054.93,1346.71 2058.22,1347.99 
  2061.51,1349.07 2064.8,1349.94 2068.09,1350.6 2071.38,1351.05 2074.68,1351.3 2077.97,1351.36 2081.26,1351.23 2084.55,1350.92 2087.84,1350.45 2091.13,1349.84 
  2094.43,1349.09 2097.72,1348.22 2101.01,1347.25 2104.3,1346.21 2107.59,1345.09 2110.88,1343.94 2114.18,1342.75 2117.47,1341.55 2120.76,1340.35 2124.05,1339.18 
  2127.34,1338.03 2130.63,1336.93 2133.92,1335.89 2137.22,1334.9 2140.51,1333.99 2143.8,1333.15 2147.09,1332.39 2150.38,1331.71 2153.67,1331.1 2156.97,1330.57 
  2160.26,1330.12 2163.55,1329.73 2166.84,1329.42 2170.13,1329.16 2173.42,1328.96 2176.72,1328.82 2180.01,1328.73 2183.3,1328.69 2186.59,1328.71 2189.88,1328.78 
  2193.17,1328.92 2196.47,1329.13 2199.76,1329.41 2203.05,1329.79 2206.34,1330.27 2209.63,1330.86 2212.92,1331.6 2216.22,1332.48 2219.51,1333.53 2222.8,1334.77 
  2226.09,1336.22 2229.38,1337.88 2232.67,1339.77 2235.96,1341.9 2239.26,1344.28 2242.55,1346.92 2245.84,1349.82 2249.13,1352.98 2252.42,1356.38 2255.71,1360.02 
  2259.01,1363.89 2262.3,1367.98 2265.59,1372.25 2268.88,1376.69 2272.17,1381.27 2275.46,1385.97 2278.76,1390.74 2282.05,1395.58 2285.34,1400.43 2288.63,1405.28 
  
  "/>
<polyline clip-path="url(#clip272)" style="stroke:#0000ff; stroke-width:4; stroke-opacity:1; fill:none" points="
  1261.99,1479.3 1261.99,95.844 
  "/>
<polyline clip-path="url(#clip272)" style="stroke:#000000; stroke-width:4; stroke-opacity:1; fill:none" points="
  1249.75,1479.3 1249.75,88.9544 
  "/>
<path clip-path="url(#clip270)" d="
M1494.58 459.25 L2277.23 459.25 L2277.23 96.3696 L1494.58 96.3696  Z
  " fill="#ffffff" fill-rule="evenodd" fill-opacity="1"/>
<polyline clip-path="url(#clip270)" style="stroke:#000000; stroke-width:4; stroke-opacity:1; fill:none" points="
  1494.58,459.25 2277.23,459.25 2277.23,96.3696 1494.58,96.3696 1494.58,459.25 
  "/>
<path clip-path="url(#clip270)" d="
M1519.75 181.042 L1670.81 181.042 L1670.81 132.658 L1519.75 132.658 L1519.75 181.042  Z
  " fill="#ffa500" fill-rule="evenodd" fill-opacity="0.5"/>
<polyline clip-path="url(#clip270)" style="stroke:#ffa500; stroke-width:4; stroke-opacity:1; fill:none" points="
  1519.75,132.658 1670.81,132.658 
  "/>
<path clip-path="url(#clip270)" d="M 0 0 M1700.38 161.19 Q1700.38 165.889 1702.3 168.574 Q1704.24 171.236 1707.62 171.236 Q1711 171.236 1712.95 168.574 Q1714.89 165.889 1714.89 161.19 Q1714.89 156.491 1712.95 153.829 Q1711 151.144 1707.62 151.144 Q1704.24 151.144 1702.3 153.829 Q1700.38 156.491 1700.38 161.19 M1714.89 170.241 Q1713.55 172.555 1711.49 173.69 Q1709.45 174.801 1706.58 174.801 Q1701.88 174.801 1698.92 171.051 Q1695.98 167.301 1695.98 161.19 Q1695.98 155.079 1698.92 151.329 Q1701.88 147.579 1706.58 147.579 Q1709.45 147.579 1711.49 148.713 Q1713.55 149.824 1714.89 152.139 L1714.89 148.204 L1719.15 148.204 L1719.15 183.991 L1714.89 183.991 L1714.89 170.241 Z" fill="#000000" fill-rule="evenodd" fill-opacity="1" /><path clip-path="url(#clip270)" d="M 0 0 M1734.22 142.648 Q1730.61 142.648 1728.78 146.213 Q1726.98 149.755 1726.98 156.884 Q1726.98 163.991 1728.78 167.556 Q1730.61 171.097 1734.22 171.097 Q1737.85 171.097 1739.66 167.556 Q1741.49 163.991 1741.49 156.884 Q1741.49 149.755 1739.66 146.213 Q1737.85 142.648 1734.22 142.648 M1734.22 138.945 Q1740.03 138.945 1743.09 143.551 Q1746.17 148.134 1746.17 156.884 Q1746.17 165.611 1743.09 170.218 Q1740.03 174.801 1734.22 174.801 Q1728.41 174.801 1725.33 170.218 Q1722.28 165.611 1722.28 156.884 Q1722.28 148.134 1725.33 143.551 Q1728.41 138.945 1734.22 138.945 Z" fill="#000000" fill-rule="evenodd" fill-opacity="1" /><path clip-path="url(#clip270)" d="M 0 0 M1751.28 139.57 L1769.64 139.57 L1769.64 143.505 L1755.56 143.505 L1755.56 151.977 Q1756.58 151.63 1757.6 151.468 Q1758.62 151.282 1759.64 151.282 Q1765.42 151.282 1768.8 154.454 Q1772.18 157.625 1772.18 163.042 Q1772.18 168.62 1768.71 171.722 Q1765.24 174.801 1758.92 174.801 Q1756.74 174.801 1754.48 174.43 Q1752.23 174.06 1749.82 173.319 L1749.82 168.62 Q1751.91 169.755 1754.13 170.31 Q1756.35 170.866 1758.83 170.866 Q1762.83 170.866 1765.17 168.759 Q1767.51 166.653 1767.51 163.042 Q1767.51 159.431 1765.17 157.324 Q1762.83 155.218 1758.83 155.218 Q1756.95 155.218 1755.08 155.634 Q1753.23 156.051 1751.28 156.931 L1751.28 139.57 Z" fill="#000000" fill-rule="evenodd" fill-opacity="1" /><path clip-path="url(#clip270)" d="
M1519.75 241.522 L1670.81 241.522 L1670.81 193.138 L1519.75 193.138 L1519.75 241.522  Z
  " fill="#008000" fill-rule="evenodd" fill-opacity="0.5"/>
<polyline clip-path="url(#clip270)" style="stroke:#008000; stroke-width:4; stroke-opacity:1; fill:none" points="
  1519.75,193.138 1670.81,193.138 
  "/>
<path clip-path="url(#clip270)" d="M 0 0 M1698.2 233.892 L1698.2 229.633 Q1699.96 230.466 1701.77 230.906 Q1703.57 231.346 1705.31 231.346 Q1709.94 231.346 1712.37 228.244 Q1714.82 225.119 1715.17 218.776 Q1713.83 220.767 1711.77 221.832 Q1709.71 222.897 1707.21 222.897 Q1702.02 222.897 1698.99 219.772 Q1695.98 216.624 1695.98 211.184 Q1695.98 205.86 1699.13 202.642 Q1702.28 199.425 1707.51 199.425 Q1713.5 199.425 1716.65 204.031 Q1719.82 208.614 1719.82 217.364 Q1719.82 225.536 1715.93 230.42 Q1712.07 235.281 1705.52 235.281 Q1703.76 235.281 1701.95 234.934 Q1700.15 234.586 1698.2 233.892 M1707.51 219.239 Q1710.66 219.239 1712.48 217.086 Q1714.34 214.934 1714.34 211.184 Q1714.34 207.457 1712.48 205.304 Q1710.66 203.128 1707.51 203.128 Q1704.36 203.128 1702.51 205.304 Q1700.68 207.457 1700.68 211.184 Q1700.68 214.934 1702.51 217.086 Q1704.36 219.239 1707.51 219.239 Z" fill="#000000" fill-rule="evenodd" fill-opacity="1" /><path clip-path="url(#clip270)" d="M 0 0 M1734.89 203.128 Q1731.28 203.128 1729.45 206.693 Q1727.65 210.235 1727.65 217.364 Q1727.65 224.471 1729.45 228.036 Q1731.28 231.577 1734.89 231.577 Q1738.53 231.577 1740.33 228.036 Q1742.16 224.471 1742.16 217.364 Q1742.16 210.235 1740.33 206.693 Q1738.53 203.128 1734.89 203.128 M1734.89 199.425 Q1740.7 199.425 1743.76 204.031 Q1746.84 208.614 1746.84 217.364 Q1746.84 226.091 1743.76 230.698 Q1740.7 235.281 1734.89 235.281 Q1729.08 235.281 1726 230.698 Q1722.95 226.091 1722.95 217.364 Q1722.95 208.614 1726 204.031 Q1729.08 199.425 1734.89 199.425 Z" fill="#000000" fill-rule="evenodd" fill-opacity="1" /><path clip-path="url(#clip270)" d="M 0 0 M1781.3 219.401 Q1779.29 219.401 1778.13 221.114 Q1777 222.827 1777 225.883 Q1777 228.892 1778.13 230.628 Q1779.29 232.341 1781.3 232.341 Q1783.27 232.341 1784.41 230.628 Q1785.56 228.892 1785.56 225.883 Q1785.56 222.85 1784.41 221.137 Q1783.27 219.401 1781.3 219.401 M1781.3 216.462 Q1784.96 216.462 1787.11 219.008 Q1789.27 221.554 1789.27 225.883 Q1789.27 230.211 1787.09 232.758 Q1784.94 235.281 1781.3 235.281 Q1777.6 235.281 1775.45 232.758 Q1773.29 230.211 1773.29 225.883 Q1773.29 221.531 1775.45 219.008 Q1777.62 216.462 1781.3 216.462 M1757.42 202.364 Q1755.42 202.364 1754.27 204.1 Q1753.13 205.813 1753.13 208.823 Q1753.13 211.878 1754.27 213.591 Q1755.4 215.304 1757.42 215.304 Q1759.43 215.304 1760.56 213.591 Q1761.72 211.878 1761.72 208.823 Q1761.72 205.837 1760.56 204.1 Q1759.41 202.364 1757.42 202.364 M1778.32 199.425 L1782.02 199.425 L1760.4 235.281 L1756.7 235.281 L1778.32 199.425 M1757.42 199.425 Q1761.07 199.425 1763.25 201.971 Q1765.42 204.494 1765.42 208.823 Q1765.42 213.198 1763.25 215.721 Q1761.1 218.244 1757.42 218.244 Q1753.73 218.244 1751.58 215.721 Q1749.45 213.174 1749.45 208.823 Q1749.45 204.517 1751.6 201.971 Q1753.76 199.425 1757.42 199.425 Z" fill="#000000" fill-rule="evenodd" fill-opacity="1" /><path clip-path="url(#clip270)" d="M 0 0 M1830.35 218.961 L1830.35 234.61 L1826.1 234.61 L1826.1 219.1 Q1826.1 215.42 1824.66 213.591 Q1823.22 211.762 1820.35 211.762 Q1816.91 211.762 1814.91 213.962 Q1812.92 216.161 1812.92 219.957 L1812.92 234.61 L1808.64 234.61 L1808.64 208.684 L1812.92 208.684 L1812.92 212.712 Q1814.45 210.374 1816.51 209.216 Q1818.6 208.059 1821.3 208.059 Q1825.77 208.059 1828.06 210.837 Q1830.35 213.591 1830.35 218.961 Z" fill="#000000" fill-rule="evenodd" fill-opacity="1" /><path clip-path="url(#clip270)" d="M 0 0 M1844.87 211.67 Q1841.44 211.67 1839.45 214.355 Q1837.46 217.017 1837.46 221.67 Q1837.46 226.323 1839.43 229.008 Q1841.42 231.67 1844.87 231.67 Q1848.27 231.67 1850.26 228.985 Q1852.25 226.299 1852.25 221.67 Q1852.25 217.063 1850.26 214.378 Q1848.27 211.67 1844.87 211.67 M1844.87 208.059 Q1850.42 208.059 1853.6 211.67 Q1856.77 215.281 1856.77 221.67 Q1856.77 228.036 1853.6 231.67 Q1850.42 235.281 1844.87 235.281 Q1839.29 235.281 1836.12 231.67 Q1832.97 228.036 1832.97 221.67 Q1832.97 215.281 1836.12 211.67 Q1839.29 208.059 1844.87 208.059 Z" fill="#000000" fill-rule="evenodd" fill-opacity="1" /><path clip-path="url(#clip270)" d="M 0 0 M1882.78 218.961 L1882.78 234.61 L1878.53 234.61 L1878.53 219.1 Q1878.53 215.42 1877.09 213.591 Q1875.66 211.762 1872.78 211.762 Q1869.34 211.762 1867.35 213.962 Q1865.35 216.161 1865.35 219.957 L1865.35 234.61 L1861.07 234.61 L1861.07 208.684 L1865.35 208.684 L1865.35 212.712 Q1866.88 210.374 1868.94 209.216 Q1871.03 208.059 1873.73 208.059 Q1878.2 208.059 1880.49 210.837 Q1882.78 213.591 1882.78 218.961 Z" fill="#000000" fill-rule="evenodd" fill-opacity="1" /><path clip-path="url(#clip270)" d="M 0 0 M1885.1 219.725 L1897.58 219.725 L1897.58 223.522 L1885.1 223.522 L1885.1 219.725 Z" fill="#000000" fill-rule="evenodd" fill-opacity="1" /><path clip-path="url(#clip270)" d="M 0 0 M1917.07 212.665 Q1916.35 212.249 1915.49 212.063 Q1914.66 211.855 1913.64 211.855 Q1910.03 211.855 1908.09 214.216 Q1906.16 216.554 1906.16 220.952 L1906.16 234.61 L1901.88 234.61 L1901.88 208.684 L1906.16 208.684 L1906.16 212.712 Q1907.51 210.35 1909.66 209.216 Q1911.81 208.059 1914.89 208.059 Q1915.33 208.059 1915.86 208.128 Q1916.4 208.175 1917.04 208.29 L1917.07 212.665 Z" fill="#000000" fill-rule="evenodd" fill-opacity="1" /><path clip-path="url(#clip270)" d="M 0 0 M1942.67 220.582 L1942.67 222.665 L1923.09 222.665 Q1923.36 227.063 1925.72 229.378 Q1928.11 231.67 1932.34 231.67 Q1934.8 231.67 1937.09 231.068 Q1939.4 230.466 1941.67 229.262 L1941.67 233.29 Q1939.38 234.262 1936.97 234.772 Q1934.57 235.281 1932.09 235.281 Q1925.89 235.281 1922.25 231.67 Q1918.64 228.059 1918.64 221.901 Q1918.64 215.536 1922.07 211.809 Q1925.52 208.059 1931.35 208.059 Q1936.58 208.059 1939.61 211.438 Q1942.67 214.795 1942.67 220.582 M1938.41 219.332 Q1938.36 215.837 1936.44 213.753 Q1934.54 211.67 1931.4 211.67 Q1927.83 211.67 1925.68 213.684 Q1923.55 215.698 1923.22 219.355 L1938.41 219.332 Z" fill="#000000" fill-rule="evenodd" fill-opacity="1" /><path clip-path="url(#clip270)" d="M 0 0 M1947.14 208.684 L1951.4 208.684 L1951.4 235.073 Q1951.4 240.026 1949.5 242.248 Q1947.62 244.471 1943.43 244.471 L1941.81 244.471 L1941.81 240.86 L1942.95 240.86 Q1945.38 240.86 1946.26 239.725 Q1947.14 238.614 1947.14 235.073 L1947.14 208.684 M1947.14 198.591 L1951.4 198.591 L1951.4 203.985 L1947.14 203.985 L1947.14 198.591 Z" fill="#000000" fill-rule="evenodd" fill-opacity="1" /><path clip-path="url(#clip270)" d="M 0 0 M1978.04 220.582 L1978.04 222.665 L1958.46 222.665 Q1958.73 227.063 1961.09 229.378 Q1963.48 231.67 1967.71 231.67 Q1970.17 231.67 1972.46 231.068 Q1974.78 230.466 1977.04 229.262 L1977.04 233.29 Q1974.75 234.262 1972.34 234.772 Q1969.94 235.281 1967.46 235.281 Q1961.26 235.281 1957.62 231.67 Q1954.01 228.059 1954.01 221.901 Q1954.01 215.536 1957.44 211.809 Q1960.89 208.059 1966.72 208.059 Q1971.95 208.059 1974.98 211.438 Q1978.04 214.795 1978.04 220.582 M1973.78 219.332 Q1973.73 215.837 1971.81 213.753 Q1969.91 211.67 1966.77 211.67 Q1963.2 211.67 1961.05 213.684 Q1958.92 215.698 1958.59 219.355 L1973.78 219.332 Z" fill="#000000" fill-rule="evenodd" fill-opacity="1" /><path clip-path="url(#clip270)" d="M 0 0 M2001.16 209.679 L2001.16 213.661 Q1999.36 212.665 1997.53 212.179 Q1995.72 211.67 1993.87 211.67 Q1989.73 211.67 1987.44 214.309 Q1985.15 216.924 1985.15 221.67 Q1985.15 226.415 1987.44 229.054 Q1989.73 231.67 1993.87 231.67 Q1995.72 231.67 1997.53 231.184 Q1999.36 230.674 2001.16 229.679 L2001.16 233.614 Q1999.38 234.448 1997.46 234.864 Q1995.56 235.281 1993.41 235.281 Q1987.55 235.281 1984.1 231.6 Q1980.65 227.92 1980.65 221.67 Q1980.65 215.327 1984.13 211.693 Q1987.62 208.059 1993.69 208.059 Q1995.65 208.059 1997.53 208.475 Q1999.4 208.869 2001.16 209.679 Z" fill="#000000" fill-rule="evenodd" fill-opacity="1" /><path clip-path="url(#clip270)" d="M 0 0 M2009.84 201.323 L2009.84 208.684 L2018.62 208.684 L2018.62 211.994 L2009.84 211.994 L2009.84 226.068 Q2009.84 229.239 2010.7 230.142 Q2011.58 231.045 2014.24 231.045 L2018.62 231.045 L2018.62 234.61 L2014.24 234.61 Q2009.31 234.61 2007.44 232.781 Q2005.56 230.929 2005.56 226.068 L2005.56 211.994 L2002.44 211.994 L2002.44 208.684 L2005.56 208.684 L2005.56 201.323 L2009.84 201.323 Z" fill="#000000" fill-rule="evenodd" fill-opacity="1" /><path clip-path="url(#clip270)" d="M 0 0 M2023.08 208.684 L2027.34 208.684 L2027.34 234.61 L2023.08 234.61 L2023.08 208.684 M2023.08 198.591 L2027.34 198.591 L2027.34 203.985 L2023.08 203.985 L2023.08 198.591 Z" fill="#000000" fill-rule="evenodd" fill-opacity="1" /><path clip-path="url(#clip270)" d="M 0 0 M2041.86 211.67 Q2038.43 211.67 2036.44 214.355 Q2034.45 217.017 2034.45 221.67 Q2034.45 226.323 2036.42 229.008 Q2038.41 231.67 2041.86 231.67 Q2045.26 231.67 2047.25 228.985 Q2049.24 226.299 2049.24 221.67 Q2049.24 217.063 2047.25 214.378 Q2045.26 211.67 2041.86 211.67 M2041.86 208.059 Q2047.41 208.059 2050.58 211.67 Q2053.76 215.281 2053.76 221.67 Q2053.76 228.036 2050.58 231.67 Q2047.41 235.281 2041.86 235.281 Q2036.28 235.281 2033.11 231.67 Q2029.96 228.036 2029.96 221.67 Q2029.96 215.281 2033.11 211.67 Q2036.28 208.059 2041.86 208.059 Z" fill="#000000" fill-rule="evenodd" fill-opacity="1" /><path clip-path="url(#clip270)" d="M 0 0 M2079.77 218.961 L2079.77 234.61 L2075.52 234.61 L2075.52 219.1 Q2075.52 215.42 2074.08 213.591 Q2072.64 211.762 2069.77 211.762 Q2066.33 211.762 2064.33 213.962 Q2062.34 216.161 2062.34 219.957 L2062.34 234.61 L2058.06 234.61 L2058.06 208.684 L2062.34 208.684 L2062.34 212.712 Q2063.87 210.374 2065.93 209.216 Q2068.02 208.059 2070.72 208.059 Q2075.19 208.059 2077.48 210.837 Q2079.77 213.591 2079.77 218.961 Z" fill="#000000" fill-rule="evenodd" fill-opacity="1" /><path clip-path="url(#clip270)" d="M 0 0 M2114.33 212.665 Q2113.62 212.249 2112.76 212.063 Q2111.93 211.855 2110.91 211.855 Q2107.3 211.855 2105.35 214.216 Q2103.43 216.554 2103.43 220.952 L2103.43 234.61 L2099.15 234.61 L2099.15 208.684 L2103.43 208.684 L2103.43 212.712 Q2104.77 210.35 2106.93 209.216 Q2109.08 208.059 2112.16 208.059 Q2112.6 208.059 2113.13 208.128 Q2113.66 208.175 2114.31 208.29 L2114.33 212.665 Z" fill="#000000" fill-rule="evenodd" fill-opacity="1" /><path clip-path="url(#clip270)" d="M 0 0 M2139.94 220.582 L2139.94 222.665 L2120.35 222.665 Q2120.63 227.063 2122.99 229.378 Q2125.38 231.67 2129.61 231.67 Q2132.07 231.67 2134.36 231.068 Q2136.67 230.466 2138.94 229.262 L2138.94 233.29 Q2136.65 234.262 2134.24 234.772 Q2131.83 235.281 2129.36 235.281 Q2123.15 235.281 2119.52 231.67 Q2115.91 228.059 2115.91 221.901 Q2115.91 215.536 2119.33 211.809 Q2122.78 208.059 2128.62 208.059 Q2133.85 208.059 2136.88 211.438 Q2139.94 214.795 2139.94 220.582 M2135.68 219.332 Q2135.63 215.837 2133.71 213.753 Q2131.81 211.67 2128.66 211.67 Q2125.1 211.67 2122.95 213.684 Q2120.82 215.698 2120.49 219.355 L2135.68 219.332 Z" fill="#000000" fill-rule="evenodd" fill-opacity="1" /><path clip-path="url(#clip270)" d="M 0 0 M2161.46 221.346 Q2161.46 216.716 2159.54 214.17 Q2157.64 211.624 2154.2 211.624 Q2150.77 211.624 2148.85 214.17 Q2146.95 216.716 2146.95 221.346 Q2146.95 225.952 2148.85 228.498 Q2150.77 231.045 2154.2 231.045 Q2157.64 231.045 2159.54 228.498 Q2161.46 225.952 2161.46 221.346 M2165.72 231.392 Q2165.72 238.012 2162.78 241.23 Q2159.84 244.471 2153.78 244.471 Q2151.53 244.471 2149.54 244.123 Q2147.55 243.799 2145.68 243.105 L2145.68 238.961 Q2147.55 239.98 2149.38 240.466 Q2151.21 240.952 2153.11 240.952 Q2157.3 240.952 2159.38 238.753 Q2161.46 236.577 2161.46 232.156 L2161.46 230.049 Q2160.14 232.341 2158.08 233.475 Q2156.02 234.61 2153.15 234.61 Q2148.39 234.61 2145.47 230.975 Q2142.55 227.341 2142.55 221.346 Q2142.55 215.327 2145.47 211.693 Q2148.39 208.059 2153.15 208.059 Q2156.02 208.059 2158.08 209.193 Q2160.14 210.327 2161.46 212.619 L2161.46 208.684 L2165.72 208.684 L2165.72 231.392 Z" fill="#000000" fill-rule="evenodd" fill-opacity="1" /><path clip-path="url(#clip270)" d="M 0 0 M2170.19 208.684 L2174.45 208.684 L2174.45 234.61 L2170.19 234.61 L2170.19 208.684 M2170.19 198.591 L2174.45 198.591 L2174.45 203.985 L2170.19 203.985 L2170.19 198.591 Z" fill="#000000" fill-rule="evenodd" fill-opacity="1" /><path clip-path="url(#clip270)" d="M 0 0 M2188.96 211.67 Q2185.54 211.67 2183.55 214.355 Q2181.56 217.017 2181.56 221.67 Q2181.56 226.323 2183.52 229.008 Q2185.51 231.67 2188.96 231.67 Q2192.37 231.67 2194.36 228.985 Q2196.35 226.299 2196.35 221.67 Q2196.35 217.063 2194.36 214.378 Q2192.37 211.67 2188.96 211.67 M2188.96 208.059 Q2194.52 208.059 2197.69 211.67 Q2200.86 215.281 2200.86 221.67 Q2200.86 228.036 2197.69 231.67 Q2194.52 235.281 2188.96 235.281 Q2183.39 235.281 2180.21 231.67 Q2177.07 228.036 2177.07 221.67 Q2177.07 215.281 2180.21 211.67 Q2183.39 208.059 2188.96 208.059 Z" fill="#000000" fill-rule="evenodd" fill-opacity="1" /><path clip-path="url(#clip270)" d="M 0 0 M2226.88 218.961 L2226.88 234.61 L2222.62 234.61 L2222.62 219.1 Q2222.62 215.42 2221.19 213.591 Q2219.75 211.762 2216.88 211.762 Q2213.43 211.762 2211.44 213.962 Q2209.45 216.161 2209.45 219.957 L2209.45 234.61 L2205.17 234.61 L2205.17 208.684 L2209.45 208.684 L2209.45 212.712 Q2210.98 210.374 2213.04 209.216 Q2215.12 208.059 2217.83 208.059 Q2222.3 208.059 2224.59 210.837 Q2226.88 213.591 2226.88 218.961 Z" fill="#000000" fill-rule="evenodd" fill-opacity="1" /><path clip-path="url(#clip270)" d="
M1519.75 302.002 L1670.81 302.002 L1670.81 253.618 L1519.75 253.618 L1519.75 302.002  Z
  " fill="#ffa500" fill-rule="evenodd" fill-opacity="0.5"/>
<polyline clip-path="url(#clip270)" style="stroke:#ffa500; stroke-width:4; stroke-opacity:1; fill:none" points="
  1519.75,253.618 1670.81,253.618 
  "/>
<path clip-path="url(#clip270)" d="M 0 0 M1700.38 282.15 Q1700.38 286.849 1702.3 289.534 Q1704.24 292.196 1707.62 292.196 Q1711 292.196 1712.95 289.534 Q1714.89 286.849 1714.89 282.15 Q1714.89 277.451 1712.95 274.789 Q1711 272.104 1707.62 272.104 Q1704.24 272.104 1702.3 274.789 Q1700.38 277.451 1700.38 282.15 M1714.89 291.201 Q1713.55 293.515 1711.49 294.65 Q1709.45 295.761 1706.58 295.761 Q1701.88 295.761 1698.92 292.011 Q1695.98 288.261 1695.98 282.15 Q1695.98 276.039 1698.92 272.289 Q1701.88 268.539 1706.58 268.539 Q1709.45 268.539 1711.49 269.673 Q1713.55 270.784 1714.89 273.099 L1714.89 269.164 L1719.15 269.164 L1719.15 304.951 L1714.89 304.951 L1714.89 291.201 Z" fill="#000000" fill-rule="evenodd" fill-opacity="1" /><path clip-path="url(#clip270)" d="M 0 0 M1724.36 294.372 L1724.36 290.113 Q1726.12 290.946 1727.92 291.386 Q1729.73 291.826 1731.47 291.826 Q1736.1 291.826 1738.53 288.724 Q1740.98 285.599 1741.33 279.256 Q1739.98 281.247 1737.92 282.312 Q1735.86 283.377 1733.36 283.377 Q1728.18 283.377 1725.15 280.252 Q1722.14 277.104 1722.14 271.664 Q1722.14 266.34 1725.29 263.122 Q1728.43 259.905 1733.67 259.905 Q1739.66 259.905 1742.81 264.511 Q1745.98 269.094 1745.98 277.844 Q1745.98 286.016 1742.09 290.9 Q1738.23 295.761 1731.67 295.761 Q1729.92 295.761 1728.11 295.414 Q1726.3 295.066 1724.36 294.372 M1733.67 279.719 Q1736.81 279.719 1738.64 277.566 Q1740.49 275.414 1740.49 271.664 Q1740.49 267.937 1738.64 265.784 Q1736.81 263.608 1733.67 263.608 Q1730.52 263.608 1728.67 265.784 Q1726.84 267.937 1726.84 271.664 Q1726.84 275.414 1728.67 277.566 Q1730.52 279.719 1733.67 279.719 Z" fill="#000000" fill-rule="evenodd" fill-opacity="1" /><path clip-path="url(#clip270)" d="M 0 0 M1751.1 260.53 L1769.45 260.53 L1769.45 264.465 L1755.38 264.465 L1755.38 272.937 Q1756.4 272.59 1757.42 272.428 Q1758.43 272.242 1759.45 272.242 Q1765.24 272.242 1768.62 275.414 Q1772 278.585 1772 284.002 Q1772 289.58 1768.53 292.682 Q1765.05 295.761 1758.73 295.761 Q1756.56 295.761 1754.29 295.39 Q1752.04 295.02 1749.64 294.279 L1749.64 289.58 Q1751.72 290.715 1753.94 291.27 Q1756.17 291.826 1758.64 291.826 Q1762.65 291.826 1764.98 289.719 Q1767.32 287.613 1767.32 284.002 Q1767.32 280.391 1764.98 278.284 Q1762.65 276.178 1758.64 276.178 Q1756.77 276.178 1754.89 276.594 Q1753.04 277.011 1751.1 277.891 L1751.1 260.53 Z" fill="#000000" fill-rule="evenodd" fill-opacity="1" /><polyline clip-path="url(#clip270)" style="stroke:#0000ff; stroke-width:4; stroke-opacity:1; fill:none" points="
  1519.75,338.29 1670.81,338.29 
  "/>
<path clip-path="url(#clip270)" d="M 0 0 M1716.33 334.621 Q1717.92 331.75 1720.15 330.385 Q1722.37 329.019 1725.38 329.019 Q1729.43 329.019 1731.63 331.866 Q1733.83 334.69 1733.83 339.921 L1733.83 355.57 L1729.54 355.57 L1729.54 340.06 Q1729.54 336.334 1728.23 334.528 Q1726.91 332.722 1724.2 332.722 Q1720.89 332.722 1718.97 334.922 Q1717.04 337.121 1717.04 340.917 L1717.04 355.57 L1712.76 355.57 L1712.76 340.06 Q1712.76 336.31 1711.44 334.528 Q1710.12 332.722 1707.37 332.722 Q1704.11 332.722 1702.18 334.945 Q1700.26 337.144 1700.26 340.917 L1700.26 355.57 L1695.98 355.57 L1695.98 329.644 L1700.26 329.644 L1700.26 333.672 Q1701.72 331.287 1703.76 330.153 Q1705.79 329.019 1708.6 329.019 Q1711.42 329.019 1713.39 330.454 Q1715.38 331.889 1716.33 334.621 Z" fill="#000000" fill-rule="evenodd" fill-opacity="1" /><path clip-path="url(#clip270)" d="M 0 0 M1760.47 341.542 L1760.47 343.625 L1740.89 343.625 Q1741.17 348.023 1743.53 350.338 Q1745.91 352.63 1750.15 352.63 Q1752.6 352.63 1754.89 352.028 Q1757.21 351.426 1759.48 350.222 L1759.48 354.25 Q1757.18 355.222 1754.78 355.732 Q1752.37 356.241 1749.89 356.241 Q1743.69 356.241 1740.05 352.63 Q1736.44 349.019 1736.44 342.861 Q1736.44 336.496 1739.87 332.769 Q1743.32 329.019 1749.15 329.019 Q1754.38 329.019 1757.42 332.398 Q1760.47 335.755 1760.47 341.542 M1756.21 340.292 Q1756.17 336.797 1754.24 334.713 Q1752.35 332.63 1749.2 332.63 Q1745.63 332.63 1743.48 334.644 Q1741.35 336.658 1741.03 340.315 L1756.21 340.292 Z" fill="#000000" fill-rule="evenodd" fill-opacity="1" /><path clip-path="url(#clip270)" d="M 0 0 M1776.72 342.537 Q1771.56 342.537 1769.57 343.718 Q1767.58 344.898 1767.58 347.746 Q1767.58 350.014 1769.06 351.357 Q1770.56 352.676 1773.13 352.676 Q1776.67 352.676 1778.8 350.176 Q1780.96 347.653 1780.96 343.486 L1780.96 342.537 L1776.72 342.537 M1785.22 340.778 L1785.22 355.57 L1780.96 355.57 L1780.96 351.634 Q1779.5 353.995 1777.32 355.13 Q1775.15 356.241 1772 356.241 Q1768.02 356.241 1765.66 354.019 Q1763.32 351.773 1763.32 348.023 Q1763.32 343.648 1766.23 341.426 Q1769.17 339.204 1774.98 339.204 L1780.96 339.204 L1780.96 338.787 Q1780.96 335.847 1779.01 334.25 Q1777.09 332.63 1773.6 332.63 Q1771.37 332.63 1769.27 333.162 Q1767.16 333.695 1765.22 334.759 L1765.22 330.824 Q1767.55 329.922 1769.75 329.482 Q1771.95 329.019 1774.04 329.019 Q1779.66 329.019 1782.44 331.935 Q1785.22 334.852 1785.22 340.778 Z" fill="#000000" fill-rule="evenodd" fill-opacity="1" /><path clip-path="url(#clip270)" d="M 0 0 M1811.23 339.921 L1811.23 355.57 L1806.97 355.57 L1806.97 340.06 Q1806.97 336.38 1805.54 334.551 Q1804.1 332.722 1801.23 332.722 Q1797.79 332.722 1795.79 334.922 Q1793.8 337.121 1793.8 340.917 L1793.8 355.57 L1789.52 355.57 L1789.52 329.644 L1793.8 329.644 L1793.8 333.672 Q1795.33 331.334 1797.39 330.176 Q1799.48 329.019 1802.18 329.019 Q1806.65 329.019 1808.94 331.797 Q1811.23 334.551 1811.23 339.921 Z" fill="#000000" fill-rule="evenodd" fill-opacity="1" /><polyline clip-path="url(#clip270)" style="stroke:#000000; stroke-width:4; stroke-opacity:1; fill:none" points="
  1519.75,398.77 1670.81,398.77 
  "/>
<path clip-path="url(#clip270)" d="M 0 0 M1716.33 395.101 Q1717.92 392.23 1720.15 390.865 Q1722.37 389.499 1725.38 389.499 Q1729.43 389.499 1731.63 392.346 Q1733.83 395.17 1733.83 400.401 L1733.83 416.05 L1729.54 416.05 L1729.54 400.54 Q1729.54 396.814 1728.23 395.008 Q1726.91 393.202 1724.2 393.202 Q1720.89 393.202 1718.97 395.402 Q1717.04 397.601 1717.04 401.397 L1717.04 416.05 L1712.76 416.05 L1712.76 400.54 Q1712.76 396.79 1711.44 395.008 Q1710.12 393.202 1707.37 393.202 Q1704.11 393.202 1702.18 395.425 Q1700.26 397.624 1700.26 401.397 L1700.26 416.05 L1695.98 416.05 L1695.98 390.124 L1700.26 390.124 L1700.26 394.152 Q1701.72 391.767 1703.76 390.633 Q1705.79 389.499 1708.6 389.499 Q1711.42 389.499 1713.39 390.934 Q1715.38 392.369 1716.33 395.101 Z" fill="#000000" fill-rule="evenodd" fill-opacity="1" /><path clip-path="url(#clip270)" d="M 0 0 M1760.47 402.022 L1760.47 404.105 L1740.89 404.105 Q1741.17 408.503 1743.53 410.818 Q1745.91 413.11 1750.15 413.11 Q1752.6 413.11 1754.89 412.508 Q1757.21 411.906 1759.48 410.702 L1759.48 414.73 Q1757.18 415.702 1754.78 416.212 Q1752.37 416.721 1749.89 416.721 Q1743.69 416.721 1740.05 413.11 Q1736.44 409.499 1736.44 403.341 Q1736.44 396.976 1739.87 393.249 Q1743.32 389.499 1749.15 389.499 Q1754.38 389.499 1757.42 392.878 Q1760.47 396.235 1760.47 402.022 M1756.21 400.772 Q1756.17 397.277 1754.24 395.193 Q1752.35 393.11 1749.2 393.11 Q1745.63 393.11 1743.48 395.124 Q1741.35 397.138 1741.03 400.795 L1756.21 400.772 Z" fill="#000000" fill-rule="evenodd" fill-opacity="1" /><path clip-path="url(#clip270)" d="M 0 0 M1782 394.059 L1782 380.031 L1786.26 380.031 L1786.26 416.05 L1782 416.05 L1782 412.161 Q1780.66 414.475 1778.6 415.61 Q1776.56 416.721 1773.69 416.721 Q1768.99 416.721 1766.03 412.971 Q1763.09 409.221 1763.09 403.11 Q1763.09 396.999 1766.03 393.249 Q1768.99 389.499 1773.69 389.499 Q1776.56 389.499 1778.6 390.633 Q1780.66 391.744 1782 394.059 M1767.48 403.11 Q1767.48 407.809 1769.41 410.494 Q1771.35 413.156 1774.73 413.156 Q1778.11 413.156 1780.05 410.494 Q1782 407.809 1782 403.11 Q1782 398.411 1780.05 395.749 Q1778.11 393.064 1774.73 393.064 Q1771.35 393.064 1769.41 395.749 Q1767.48 398.411 1767.48 403.11 Z" fill="#000000" fill-rule="evenodd" fill-opacity="1" /><path clip-path="url(#clip270)" d="M 0 0 M1790.73 390.124 L1794.98 390.124 L1794.98 416.05 L1790.73 416.05 L1790.73 390.124 M1790.73 380.031 L1794.98 380.031 L1794.98 385.425 L1790.73 385.425 L1790.73 380.031 Z" fill="#000000" fill-rule="evenodd" fill-opacity="1" /><path clip-path="url(#clip270)" d="M 0 0 M1811.23 403.017 Q1806.07 403.017 1804.08 404.198 Q1802.09 405.378 1802.09 408.226 Q1802.09 410.494 1803.57 411.837 Q1805.08 413.156 1807.65 413.156 Q1811.19 413.156 1813.32 410.656 Q1815.47 408.133 1815.47 403.966 L1815.47 403.017 L1811.23 403.017 M1819.73 401.258 L1819.73 416.05 L1815.47 416.05 L1815.47 412.114 Q1814.01 414.475 1811.84 415.61 Q1809.66 416.721 1806.51 416.721 Q1802.53 416.721 1800.17 414.499 Q1797.83 412.253 1797.83 408.503 Q1797.83 404.128 1800.75 401.906 Q1803.69 399.684 1809.5 399.684 L1815.47 399.684 L1815.47 399.267 Q1815.47 396.327 1813.53 394.73 Q1811.6 393.11 1808.11 393.11 Q1805.89 393.11 1803.78 393.642 Q1801.67 394.175 1799.73 395.239 L1799.73 391.304 Q1802.07 390.402 1804.27 389.962 Q1806.47 389.499 1808.55 389.499 Q1814.17 389.499 1816.95 392.415 Q1819.73 395.332 1819.73 401.258 Z" fill="#000000" fill-rule="evenodd" fill-opacity="1" /><path clip-path="url(#clip270)" d="M 0 0 M1845.75 400.401 L1845.75 416.05 L1841.49 416.05 L1841.49 400.54 Q1841.49 396.86 1840.05 395.031 Q1838.62 393.202 1835.75 393.202 Q1832.3 393.202 1830.31 395.402 Q1828.32 397.601 1828.32 401.397 L1828.32 416.05 L1824.04 416.05 L1824.04 390.124 L1828.32 390.124 L1828.32 394.152 Q1829.85 391.814 1831.91 390.656 Q1833.99 389.499 1836.7 389.499 Q1841.16 389.499 1843.46 392.277 Q1845.75 395.031 1845.75 400.401 Z" fill="#000000" fill-rule="evenodd" fill-opacity="1" /></svg>
