<?xml version="1.0" encoding="utf-8"?>
<svg xmlns="http://www.w3.org/2000/svg" xmlns:xlink="http://www.w3.org/1999/xlink" width="600" height="400" viewBox="0 0 2400 1600">
<defs>
  <clipPath id="clip600">
    <rect x="0" y="0" width="2400" height="1600"/>
  </clipPath>
</defs>
<path clip-path="url(#clip600)" d="
M0 1600 L2400 1600 L2400 0 L0 0  Z
  " fill="#ffffff" fill-rule="evenodd" fill-opacity="1"/>
<defs>
  <clipPath id="clip601">
    <rect x="480" y="0" width="1681" height="1600"/>
  </clipPath>
</defs>
<path clip-path="url(#clip600)" d="
M86.9921 1521.01 L2352.76 1521.01 L2352.76 47.2441 L86.9921 47.2441  Z
  " fill="#ffffff" fill-rule="evenodd" fill-opacity="1"/>
<defs>
  <clipPath id="clip602">
    <rect x="86" y="47" width="2267" height="1475"/>
  </clipPath>
</defs>
<polyline clip-path="url(#clip602)" style="stroke:#000000; stroke-width:2; stroke-opacity:0.1; fill:none" points="
  365.541,1521.01 365.541,47.2441 
  "/>
<polyline clip-path="url(#clip602)" style="stroke:#000000; stroke-width:2; stroke-opacity:0.1; fill:none" points="
  665.311,1521.01 665.311,47.2441 
  "/>
<polyline clip-path="url(#clip602)" style="stroke:#000000; stroke-width:2; stroke-opacity:0.1; fill:none" points="
  965.082,1521.01 965.082,47.2441 
  "/>
<polyline clip-path="url(#clip602)" style="stroke:#000000; stroke-width:2; stroke-opacity:0.1; fill:none" points="
  1264.85,1521.01 1264.85,47.2441 
  "/>
<polyline clip-path="url(#clip602)" style="stroke:#000000; stroke-width:2; stroke-opacity:0.1; fill:none" points="
  1564.62,1521.01 1564.62,47.2441 
  "/>
<polyline clip-path="url(#clip602)" style="stroke:#000000; stroke-width:2; stroke-opacity:0.1; fill:none" points="
  1864.39,1521.01 1864.39,47.2441 
  "/>
<polyline clip-path="url(#clip602)" style="stroke:#000000; stroke-width:2; stroke-opacity:0.1; fill:none" points="
  2164.16,1521.01 2164.16,47.2441 
  "/>
<polyline clip-path="url(#clip602)" style="stroke:#000000; stroke-width:2; stroke-opacity:0.1; fill:none" points="
  86.9921,1393.11 2352.76,1393.11 
  "/>
<polyline clip-path="url(#clip602)" style="stroke:#000000; stroke-width:2; stroke-opacity:0.1; fill:none" points="
  86.9921,1097.57 2352.76,1097.57 
  "/>
<polyline clip-path="url(#clip602)" style="stroke:#000000; stroke-width:2; stroke-opacity:0.1; fill:none" points="
  86.9921,802.04 2352.76,802.04 
  "/>
<polyline clip-path="url(#clip602)" style="stroke:#000000; stroke-width:2; stroke-opacity:0.1; fill:none" points="
  86.9921,506.506 2352.76,506.506 
  "/>
<polyline clip-path="url(#clip602)" style="stroke:#000000; stroke-width:2; stroke-opacity:0.1; fill:none" points="
  86.9921,210.971 2352.76,210.971 
  "/>
<polyline clip-path="url(#clip600)" style="stroke:#000000; stroke-width:4; stroke-opacity:1; fill:none" points="
  86.9921,1521.01 2352.76,1521.01 
  "/>
<polyline clip-path="url(#clip600)" style="stroke:#000000; stroke-width:4; stroke-opacity:1; fill:none" points="
  86.9921,1521.01 86.9921,47.2441 
  "/>
<polyline clip-path="url(#clip600)" style="stroke:#000000; stroke-width:4; stroke-opacity:1; fill:none" points="
  365.541,1521.01 365.541,1503.32 
  "/>
<polyline clip-path="url(#clip600)" style="stroke:#000000; stroke-width:4; stroke-opacity:1; fill:none" points="
  665.311,1521.01 665.311,1503.32 
  "/>
<polyline clip-path="url(#clip600)" style="stroke:#000000; stroke-width:4; stroke-opacity:1; fill:none" points="
  965.082,1521.01 965.082,1503.32 
  "/>
<polyline clip-path="url(#clip600)" style="stroke:#000000; stroke-width:4; stroke-opacity:1; fill:none" points="
  1264.85,1521.01 1264.85,1503.32 
  "/>
<polyline clip-path="url(#clip600)" style="stroke:#000000; stroke-width:4; stroke-opacity:1; fill:none" points="
  1564.62,1521.01 1564.62,1503.32 
  "/>
<polyline clip-path="url(#clip600)" style="stroke:#000000; stroke-width:4; stroke-opacity:1; fill:none" points="
  1864.39,1521.01 1864.39,1503.32 
  "/>
<polyline clip-path="url(#clip600)" style="stroke:#000000; stroke-width:4; stroke-opacity:1; fill:none" points="
  2164.16,1521.01 2164.16,1503.32 
  "/>
<polyline clip-path="url(#clip600)" style="stroke:#000000; stroke-width:4; stroke-opacity:1; fill:none" points="
  86.9921,1393.11 114.181,1393.11 
  "/>
<polyline clip-path="url(#clip600)" style="stroke:#000000; stroke-width:4; stroke-opacity:1; fill:none" points="
  86.9921,1097.57 114.181,1097.57 
  "/>
<polyline clip-path="url(#clip600)" style="stroke:#000000; stroke-width:4; stroke-opacity:1; fill:none" points="
  86.9921,802.04 114.181,802.04 
  "/>
<polyline clip-path="url(#clip600)" style="stroke:#000000; stroke-width:4; stroke-opacity:1; fill:none" points="
  86.9921,506.506 114.181,506.506 
  "/>
<polyline clip-path="url(#clip600)" style="stroke:#000000; stroke-width:4; stroke-opacity:1; fill:none" points="
  86.9921,210.971 114.181,210.971 
  "/>
<path clip-path="url(#clip600)" d="M 0 0 M301.247 1559.6 L313.724 1559.6 L313.724 1563.39 L301.247 1563.39 L301.247 1559.6 Z" fill="#000000" fill-rule="evenodd" fill-opacity="1" /><path clip-path="url(#clip600)" d="M 0 0 M328.793 1543 Q325.182 1543 323.353 1546.56 Q321.548 1550.11 321.548 1557.23 Q321.548 1564.34 323.353 1567.91 Q325.182 1571.45 328.793 1571.45 Q332.427 1571.45 334.233 1567.91 Q336.062 1564.34 336.062 1557.23 Q336.062 1550.11 334.233 1546.56 Q332.427 1543 328.793 1543 M328.793 1539.29 Q334.603 1539.29 337.659 1543.9 Q340.737 1548.48 340.737 1557.23 Q340.737 1565.96 337.659 1570.57 Q334.603 1575.15 328.793 1575.15 Q322.983 1575.15 319.904 1570.57 Q316.849 1565.96 316.849 1557.23 Q316.849 1548.48 319.904 1543.9 Q322.983 1539.29 328.793 1539.29 Z" fill="#000000" fill-rule="evenodd" fill-opacity="1" /><path clip-path="url(#clip600)" d="M 0 0 M345.807 1568.6 L350.691 1568.6 L350.691 1574.48 L345.807 1574.48 L345.807 1568.6 Z" fill="#000000" fill-rule="evenodd" fill-opacity="1" /><path clip-path="url(#clip600)" d="M 0 0 M365.761 1543 Q362.149 1543 360.321 1546.56 Q358.515 1550.11 358.515 1557.23 Q358.515 1564.34 360.321 1567.91 Q362.149 1571.45 365.761 1571.45 Q369.395 1571.45 371.2 1567.91 Q373.029 1564.34 373.029 1557.23 Q373.029 1550.11 371.2 1546.56 Q369.395 1543 365.761 1543 M365.761 1539.29 Q371.571 1539.29 374.626 1543.9 Q377.705 1548.48 377.705 1557.23 Q377.705 1565.96 374.626 1570.57 Q371.571 1575.15 365.761 1575.15 Q359.95 1575.15 356.872 1570.57 Q353.816 1565.96 353.816 1557.23 Q353.816 1548.48 356.872 1543.9 Q359.95 1539.29 365.761 1539.29 Z" fill="#000000" fill-rule="evenodd" fill-opacity="1" /><path clip-path="url(#clip600)" d="M 0 0 M381.594 1539.92 L403.816 1539.92 L403.816 1541.91 L391.27 1574.48 L386.385 1574.48 L398.191 1543.86 L381.594 1543.86 L381.594 1539.92 Z" fill="#000000" fill-rule="evenodd" fill-opacity="1" /><path clip-path="url(#clip600)" d="M 0 0 M408.932 1539.92 L427.288 1539.92 L427.288 1543.86 L413.214 1543.86 L413.214 1552.33 Q414.232 1551.98 415.251 1551.82 Q416.269 1551.63 417.288 1551.63 Q423.075 1551.63 426.455 1554.8 Q429.834 1557.98 429.834 1563.39 Q429.834 1568.97 426.362 1572.07 Q422.89 1575.15 416.57 1575.15 Q414.395 1575.15 412.126 1574.78 Q409.881 1574.41 407.473 1573.67 L407.473 1568.97 Q409.557 1570.1 411.779 1570.66 Q414.001 1571.22 416.478 1571.22 Q420.482 1571.22 422.82 1569.11 Q425.158 1567 425.158 1563.39 Q425.158 1559.78 422.82 1557.67 Q420.482 1555.57 416.478 1555.57 Q414.603 1555.57 412.728 1555.98 Q410.876 1556.4 408.932 1557.28 L408.932 1539.92 Z" fill="#000000" fill-rule="evenodd" fill-opacity="1" /><path clip-path="url(#clip600)" d="M 0 0 M600.566 1559.6 L613.043 1559.6 L613.043 1563.39 L600.566 1563.39 L600.566 1559.6 Z" fill="#000000" fill-rule="evenodd" fill-opacity="1" /><path clip-path="url(#clip600)" d="M 0 0 M628.112 1543 Q624.501 1543 622.672 1546.56 Q620.867 1550.11 620.867 1557.23 Q620.867 1564.34 622.672 1567.91 Q624.501 1571.45 628.112 1571.45 Q631.746 1571.45 633.552 1567.91 Q635.381 1564.34 635.381 1557.23 Q635.381 1550.11 633.552 1546.56 Q631.746 1543 628.112 1543 M628.112 1539.29 Q633.922 1539.29 636.978 1543.9 Q640.057 1548.48 640.057 1557.23 Q640.057 1565.96 636.978 1570.57 Q633.922 1575.15 628.112 1575.15 Q622.302 1575.15 619.223 1570.57 Q616.168 1565.96 616.168 1557.23 Q616.168 1548.48 619.223 1543.9 Q622.302 1539.29 628.112 1539.29 Z" fill="#000000" fill-rule="evenodd" fill-opacity="1" /><path clip-path="url(#clip600)" d="M 0 0 M645.126 1568.6 L650.01 1568.6 L650.01 1574.48 L645.126 1574.48 L645.126 1568.6 Z" fill="#000000" fill-rule="evenodd" fill-opacity="1" /><path clip-path="url(#clip600)" d="M 0 0 M665.08 1543 Q661.468 1543 659.64 1546.56 Q657.834 1550.11 657.834 1557.23 Q657.834 1564.34 659.64 1567.91 Q661.468 1571.45 665.08 1571.45 Q668.714 1571.45 670.519 1567.91 Q672.348 1564.34 672.348 1557.23 Q672.348 1550.11 670.519 1546.56 Q668.714 1543 665.08 1543 M665.08 1539.29 Q670.89 1539.29 673.945 1543.9 Q677.024 1548.48 677.024 1557.23 Q677.024 1565.96 673.945 1570.57 Q670.89 1575.15 665.08 1575.15 Q659.269 1575.15 656.191 1570.57 Q653.135 1565.96 653.135 1557.23 Q653.135 1548.48 656.191 1543.9 Q659.269 1539.29 665.08 1539.29 Z" fill="#000000" fill-rule="evenodd" fill-opacity="1" /><path clip-path="url(#clip600)" d="M 0 0 M682.14 1539.92 L700.496 1539.92 L700.496 1543.86 L686.422 1543.86 L686.422 1552.33 Q687.441 1551.98 688.459 1551.82 Q689.478 1551.63 690.496 1551.63 Q696.283 1551.63 699.663 1554.8 Q703.042 1557.98 703.042 1563.39 Q703.042 1568.97 699.57 1572.07 Q696.098 1575.15 689.779 1575.15 Q687.603 1575.15 685.334 1574.78 Q683.089 1574.41 680.681 1573.67 L680.681 1568.97 Q682.765 1570.1 684.987 1570.66 Q687.209 1571.22 689.686 1571.22 Q693.691 1571.22 696.028 1569.11 Q698.366 1567 698.366 1563.39 Q698.366 1559.78 696.028 1557.67 Q693.691 1555.57 689.686 1555.57 Q687.811 1555.57 685.936 1555.98 Q684.084 1556.4 682.14 1557.28 L682.14 1539.92 Z" fill="#000000" fill-rule="evenodd" fill-opacity="1" /><path clip-path="url(#clip600)" d="M 0 0 M718.112 1543 Q714.501 1543 712.672 1546.56 Q710.866 1550.11 710.866 1557.23 Q710.866 1564.34 712.672 1567.91 Q714.501 1571.45 718.112 1571.45 Q721.746 1571.45 723.551 1567.91 Q725.38 1564.34 725.38 1557.23 Q725.38 1550.11 723.551 1546.56 Q721.746 1543 718.112 1543 M718.112 1539.29 Q723.922 1539.29 726.977 1543.9 Q730.056 1548.48 730.056 1557.23 Q730.056 1565.96 726.977 1570.57 Q723.922 1575.15 718.112 1575.15 Q712.302 1575.15 709.223 1570.57 Q706.167 1565.96 706.167 1557.23 Q706.167 1548.48 709.223 1543.9 Q712.302 1539.29 718.112 1539.29 Z" fill="#000000" fill-rule="evenodd" fill-opacity="1" /><path clip-path="url(#clip600)" d="M 0 0 M901.135 1559.6 L913.612 1559.6 L913.612 1563.39 L901.135 1563.39 L901.135 1559.6 Z" fill="#000000" fill-rule="evenodd" fill-opacity="1" /><path clip-path="url(#clip600)" d="M 0 0 M928.681 1543 Q925.07 1543 923.241 1546.56 Q921.436 1550.11 921.436 1557.23 Q921.436 1564.34 923.241 1567.91 Q925.07 1571.45 928.681 1571.45 Q932.315 1571.45 934.121 1567.91 Q935.95 1564.34 935.95 1557.23 Q935.95 1550.11 934.121 1546.56 Q932.315 1543 928.681 1543 M928.681 1539.29 Q934.491 1539.29 937.547 1543.9 Q940.626 1548.48 940.626 1557.23 Q940.626 1565.96 937.547 1570.57 Q934.491 1575.15 928.681 1575.15 Q922.871 1575.15 919.792 1570.57 Q916.737 1565.96 916.737 1557.23 Q916.737 1548.48 919.792 1543.9 Q922.871 1539.29 928.681 1539.29 Z" fill="#000000" fill-rule="evenodd" fill-opacity="1" /><path clip-path="url(#clip600)" d="M 0 0 M945.695 1568.6 L950.579 1568.6 L950.579 1574.48 L945.695 1574.48 L945.695 1568.6 Z" fill="#000000" fill-rule="evenodd" fill-opacity="1" /><path clip-path="url(#clip600)" d="M 0 0 M965.649 1543 Q962.038 1543 960.209 1546.56 Q958.403 1550.11 958.403 1557.23 Q958.403 1564.34 960.209 1567.91 Q962.038 1571.45 965.649 1571.45 Q969.283 1571.45 971.088 1567.91 Q972.917 1564.34 972.917 1557.23 Q972.917 1550.11 971.088 1546.56 Q969.283 1543 965.649 1543 M965.649 1539.29 Q971.459 1539.29 974.514 1543.9 Q977.593 1548.48 977.593 1557.23 Q977.593 1565.96 974.514 1570.57 Q971.459 1575.15 965.649 1575.15 Q959.838 1575.15 956.76 1570.57 Q953.704 1565.96 953.704 1557.23 Q953.704 1548.48 956.76 1543.9 Q959.838 1539.29 965.649 1539.29 Z" fill="#000000" fill-rule="evenodd" fill-opacity="1" /><path clip-path="url(#clip600)" d="M 0 0 M986.69 1570.54 L1003.01 1570.54 L1003.01 1574.48 L981.065 1574.48 L981.065 1570.54 Q983.727 1567.79 988.311 1563.16 Q992.917 1558.51 994.098 1557.17 Q996.343 1554.64 997.223 1552.91 Q998.125 1551.15 998.125 1549.46 Q998.125 1546.7 996.181 1544.97 Q994.26 1543.23 991.158 1543.23 Q988.959 1543.23 986.505 1543.99 Q984.074 1544.76 981.297 1546.31 L981.297 1541.59 Q984.121 1540.45 986.574 1539.87 Q989.028 1539.29 991.065 1539.29 Q996.436 1539.29 999.63 1541.98 Q1002.82 1544.67 1002.82 1549.16 Q1002.82 1551.29 1002.01 1553.21 Q1001.23 1555.1 999.121 1557.7 Q998.542 1558.37 995.44 1561.59 Q992.338 1564.78 986.69 1570.54 Z" fill="#000000" fill-rule="evenodd" fill-opacity="1" /><path clip-path="url(#clip600)" d="M 0 0 M1008.13 1539.92 L1026.48 1539.92 L1026.48 1543.86 L1012.41 1543.86 L1012.41 1552.33 Q1013.43 1551.98 1014.44 1551.82 Q1015.46 1551.63 1016.48 1551.63 Q1022.27 1551.63 1025.65 1554.8 Q1029.03 1557.98 1029.03 1563.39 Q1029.03 1568.97 1025.56 1572.07 Q1022.08 1575.15 1015.76 1575.15 Q1013.59 1575.15 1011.32 1574.78 Q1009.07 1574.41 1006.67 1573.67 L1006.67 1568.97 Q1008.75 1570.1 1010.97 1570.66 Q1013.19 1571.22 1015.67 1571.22 Q1019.68 1571.22 1022.01 1569.11 Q1024.35 1567 1024.35 1563.39 Q1024.35 1559.78 1022.01 1557.67 Q1019.68 1555.57 1015.67 1555.57 Q1013.8 1555.57 1011.92 1555.98 Q1010.07 1556.4 1008.13 1557.28 L1008.13 1539.92 Z" fill="#000000" fill-rule="evenodd" fill-opacity="1" /><path clip-path="url(#clip600)" d="M 0 0 M1219.35 1543 Q1215.74 1543 1213.91 1546.56 Q1212.11 1550.11 1212.11 1557.23 Q1212.11 1564.34 1213.91 1567.91 Q1215.74 1571.45 1219.35 1571.45 Q1222.99 1571.45 1224.79 1567.91 Q1226.62 1564.34 1226.62 1557.23 Q1226.62 1550.11 1224.79 1546.56 Q1222.99 1543 1219.35 1543 M1219.35 1539.29 Q1225.16 1539.29 1228.22 1543.9 Q1231.3 1548.48 1231.3 1557.23 Q1231.3 1565.96 1228.22 1570.57 Q1225.16 1575.15 1219.35 1575.15 Q1213.54 1575.15 1210.47 1570.57 Q1207.41 1565.96 1207.41 1557.23 Q1207.41 1548.48 1210.47 1543.9 Q1213.54 1539.29 1219.35 1539.29 Z" fill="#000000" fill-rule="evenodd" fill-opacity="1" /><path clip-path="url(#clip600)" d="M 0 0 M1236.37 1568.6 L1241.25 1568.6 L1241.25 1574.48 L1236.37 1574.48 L1236.37 1568.6 Z" fill="#000000" fill-rule="evenodd" fill-opacity="1" /><path clip-path="url(#clip600)" d="M 0 0 M1256.32 1543 Q1252.71 1543 1250.88 1546.56 Q1249.08 1550.11 1249.08 1557.23 Q1249.08 1564.34 1250.88 1567.91 Q1252.71 1571.45 1256.32 1571.45 Q1259.96 1571.45 1261.76 1567.91 Q1263.59 1564.34 1263.59 1557.23 Q1263.59 1550.11 1261.76 1546.56 Q1259.96 1543 1256.32 1543 M1256.32 1539.29 Q1262.13 1539.29 1265.19 1543.9 Q1268.27 1548.48 1268.27 1557.23 Q1268.27 1565.96 1265.19 1570.57 Q1262.13 1575.15 1256.32 1575.15 Q1250.51 1575.15 1247.43 1570.57 Q1244.38 1565.96 1244.38 1557.23 Q1244.38 1548.48 1247.43 1543.9 Q1250.51 1539.29 1256.32 1539.29 Z" fill="#000000" fill-rule="evenodd" fill-opacity="1" /><path clip-path="url(#clip600)" d="M 0 0 M1283.34 1543 Q1279.72 1543 1277.9 1546.56 Q1276.09 1550.11 1276.09 1557.23 Q1276.09 1564.34 1277.9 1567.91 Q1279.72 1571.45 1283.34 1571.45 Q1286.97 1571.45 1288.78 1567.91 Q1290.6 1564.34 1290.6 1557.23 Q1290.6 1550.11 1288.78 1546.56 Q1286.97 1543 1283.34 1543 M1283.34 1539.29 Q1289.15 1539.29 1292.2 1543.9 Q1295.28 1548.48 1295.28 1557.23 Q1295.28 1565.96 1292.2 1570.57 Q1289.15 1575.15 1283.34 1575.15 Q1277.53 1575.15 1274.45 1570.57 Q1271.39 1565.96 1271.39 1557.23 Q1271.39 1548.48 1274.45 1543.9 Q1277.53 1539.29 1283.34 1539.29 Z" fill="#000000" fill-rule="evenodd" fill-opacity="1" /><path clip-path="url(#clip600)" d="M 0 0 M1310.35 1543 Q1306.74 1543 1304.91 1546.56 Q1303.1 1550.11 1303.1 1557.23 Q1303.1 1564.34 1304.91 1567.91 Q1306.74 1571.45 1310.35 1571.45 Q1313.98 1571.45 1315.79 1567.91 Q1317.62 1564.34 1317.62 1557.23 Q1317.62 1550.11 1315.79 1546.56 Q1313.98 1543 1310.35 1543 M1310.35 1539.29 Q1316.16 1539.29 1319.22 1543.9 Q1322.29 1548.48 1322.29 1557.23 Q1322.29 1565.96 1319.22 1570.57 Q1316.16 1575.15 1310.35 1575.15 Q1304.54 1575.15 1301.46 1570.57 Q1298.41 1565.96 1298.41 1557.23 Q1298.41 1548.48 1301.46 1543.9 Q1304.54 1539.29 1310.35 1539.29 Z" fill="#000000" fill-rule="evenodd" fill-opacity="1" /><path clip-path="url(#clip600)" d="M 0 0 M1520.42 1543 Q1516.81 1543 1514.98 1546.56 Q1513.18 1550.11 1513.18 1557.23 Q1513.18 1564.34 1514.98 1567.91 Q1516.81 1571.45 1520.42 1571.45 Q1524.06 1571.45 1525.86 1567.91 Q1527.69 1564.34 1527.69 1557.23 Q1527.69 1550.11 1525.86 1546.56 Q1524.06 1543 1520.42 1543 M1520.42 1539.29 Q1526.23 1539.29 1529.29 1543.9 Q1532.37 1548.48 1532.37 1557.23 Q1532.37 1565.96 1529.29 1570.57 Q1526.23 1575.15 1520.42 1575.15 Q1514.61 1575.15 1511.53 1570.57 Q1508.48 1565.96 1508.48 1557.23 Q1508.48 1548.48 1511.53 1543.9 Q1514.61 1539.29 1520.42 1539.29 Z" fill="#000000" fill-rule="evenodd" fill-opacity="1" /><path clip-path="url(#clip600)" d="M 0 0 M1537.44 1568.6 L1542.32 1568.6 L1542.32 1574.48 L1537.44 1574.48 L1537.44 1568.6 Z" fill="#000000" fill-rule="evenodd" fill-opacity="1" /><path clip-path="url(#clip600)" d="M 0 0 M1557.39 1543 Q1553.78 1543 1551.95 1546.56 Q1550.14 1550.11 1550.14 1557.23 Q1550.14 1564.34 1551.95 1567.91 Q1553.78 1571.45 1557.39 1571.45 Q1561.02 1571.45 1562.83 1567.91 Q1564.66 1564.34 1564.66 1557.23 Q1564.66 1550.11 1562.83 1546.56 Q1561.02 1543 1557.39 1543 M1557.39 1539.29 Q1563.2 1539.29 1566.25 1543.9 Q1569.33 1548.48 1569.33 1557.23 Q1569.33 1565.96 1566.25 1570.57 Q1563.2 1575.15 1557.39 1575.15 Q1551.58 1575.15 1548.5 1570.57 Q1545.44 1565.96 1545.44 1557.23 Q1545.44 1548.48 1548.5 1543.9 Q1551.58 1539.29 1557.39 1539.29 Z" fill="#000000" fill-rule="evenodd" fill-opacity="1" /><path clip-path="url(#clip600)" d="M 0 0 M1578.43 1570.54 L1594.75 1570.54 L1594.75 1574.48 L1572.81 1574.48 L1572.81 1570.54 Q1575.47 1567.79 1580.05 1563.16 Q1584.66 1558.51 1585.84 1557.17 Q1588.08 1554.64 1588.96 1552.91 Q1589.87 1551.15 1589.87 1549.46 Q1589.87 1546.7 1587.92 1544.97 Q1586 1543.23 1582.9 1543.23 Q1580.7 1543.23 1578.25 1543.99 Q1575.81 1544.76 1573.04 1546.31 L1573.04 1541.59 Q1575.86 1540.45 1578.31 1539.87 Q1580.77 1539.29 1582.81 1539.29 Q1588.18 1539.29 1591.37 1541.98 Q1594.56 1544.67 1594.56 1549.16 Q1594.56 1551.29 1593.75 1553.21 Q1592.97 1555.1 1590.86 1557.7 Q1590.28 1558.37 1587.18 1561.59 Q1584.08 1564.78 1578.43 1570.54 Z" fill="#000000" fill-rule="evenodd" fill-opacity="1" /><path clip-path="url(#clip600)" d="M 0 0 M1599.87 1539.92 L1618.22 1539.92 L1618.22 1543.86 L1604.15 1543.86 L1604.15 1552.33 Q1605.17 1551.98 1606.18 1551.82 Q1607.2 1551.63 1608.22 1551.63 Q1614.01 1551.63 1617.39 1554.8 Q1620.77 1557.98 1620.77 1563.39 Q1620.77 1568.97 1617.3 1572.07 Q1613.82 1575.15 1607.5 1575.15 Q1605.33 1575.15 1603.06 1574.78 Q1600.81 1574.41 1598.41 1573.67 L1598.41 1568.97 Q1600.49 1570.1 1602.71 1570.66 Q1604.93 1571.22 1607.41 1571.22 Q1611.42 1571.22 1613.75 1569.11 Q1616.09 1567 1616.09 1563.39 Q1616.09 1559.78 1613.75 1557.67 Q1611.42 1555.57 1607.41 1555.57 Q1605.54 1555.57 1603.66 1555.98 Q1601.81 1556.4 1599.87 1557.28 L1599.87 1539.92 Z" fill="#000000" fill-rule="evenodd" fill-opacity="1" /><path clip-path="url(#clip600)" d="M 0 0 M1819.39 1543 Q1815.78 1543 1813.95 1546.56 Q1812.15 1550.11 1812.15 1557.23 Q1812.15 1564.34 1813.95 1567.91 Q1815.78 1571.45 1819.39 1571.45 Q1823.03 1571.45 1824.83 1567.91 Q1826.66 1564.34 1826.66 1557.23 Q1826.66 1550.11 1824.83 1546.56 Q1823.03 1543 1819.39 1543 M1819.39 1539.29 Q1825.2 1539.29 1828.26 1543.9 Q1831.34 1548.48 1831.34 1557.23 Q1831.34 1565.96 1828.26 1570.57 Q1825.2 1575.15 1819.39 1575.15 Q1813.58 1575.15 1810.5 1570.57 Q1807.45 1565.96 1807.45 1557.23 Q1807.45 1548.48 1810.5 1543.9 Q1813.58 1539.29 1819.39 1539.29 Z" fill="#000000" fill-rule="evenodd" fill-opacity="1" /><path clip-path="url(#clip600)" d="M 0 0 M1836.41 1568.6 L1841.29 1568.6 L1841.29 1574.48 L1836.41 1574.48 L1836.41 1568.6 Z" fill="#000000" fill-rule="evenodd" fill-opacity="1" /><path clip-path="url(#clip600)" d="M 0 0 M1856.36 1543 Q1852.75 1543 1850.92 1546.56 Q1849.12 1550.11 1849.12 1557.23 Q1849.12 1564.34 1850.92 1567.91 Q1852.75 1571.45 1856.36 1571.45 Q1859.99 1571.45 1861.8 1567.91 Q1863.63 1564.34 1863.63 1557.23 Q1863.63 1550.11 1861.8 1546.56 Q1859.99 1543 1856.36 1543 M1856.36 1539.29 Q1862.17 1539.29 1865.23 1543.9 Q1868.3 1548.48 1868.3 1557.23 Q1868.3 1565.96 1865.23 1570.57 Q1862.17 1575.15 1856.36 1575.15 Q1850.55 1575.15 1847.47 1570.57 Q1844.42 1565.96 1844.42 1557.23 Q1844.42 1548.48 1847.47 1543.9 Q1850.55 1539.29 1856.36 1539.29 Z" fill="#000000" fill-rule="evenodd" fill-opacity="1" /><path clip-path="url(#clip600)" d="M 0 0 M1873.42 1539.92 L1891.78 1539.92 L1891.78 1543.86 L1877.7 1543.86 L1877.7 1552.33 Q1878.72 1551.98 1879.74 1551.82 Q1880.76 1551.63 1881.78 1551.63 Q1887.56 1551.63 1890.94 1554.8 Q1894.32 1557.98 1894.32 1563.39 Q1894.32 1568.97 1890.85 1572.07 Q1887.38 1575.15 1881.06 1575.15 Q1878.88 1575.15 1876.62 1574.78 Q1874.37 1574.41 1871.96 1573.67 L1871.96 1568.97 Q1874.05 1570.1 1876.27 1570.66 Q1878.49 1571.22 1880.97 1571.22 Q1884.97 1571.22 1887.31 1569.11 Q1889.65 1567 1889.65 1563.39 Q1889.65 1559.78 1887.31 1557.67 Q1884.97 1555.57 1880.97 1555.57 Q1879.09 1555.57 1877.22 1555.98 Q1875.37 1556.4 1873.42 1557.28 L1873.42 1539.92 Z" fill="#000000" fill-rule="evenodd" fill-opacity="1" /><path clip-path="url(#clip600)" d="M 0 0 M1909.39 1543 Q1905.78 1543 1903.95 1546.56 Q1902.15 1550.11 1902.15 1557.23 Q1902.15 1564.34 1903.95 1567.91 Q1905.78 1571.45 1909.39 1571.45 Q1913.03 1571.45 1914.83 1567.91 Q1916.66 1564.34 1916.66 1557.23 Q1916.66 1550.11 1914.83 1546.56 Q1913.03 1543 1909.39 1543 M1909.39 1539.29 Q1915.2 1539.29 1918.26 1543.9 Q1921.34 1548.48 1921.34 1557.23 Q1921.34 1565.96 1918.26 1570.57 Q1915.2 1575.15 1909.39 1575.15 Q1903.58 1575.15 1900.5 1570.57 Q1897.45 1565.96 1897.45 1557.23 Q1897.45 1548.48 1900.5 1543.9 Q1903.58 1539.29 1909.39 1539.29 Z" fill="#000000" fill-rule="evenodd" fill-opacity="1" /><path clip-path="url(#clip600)" d="M 0 0 M2119.62 1543 Q2116 1543 2114.18 1546.56 Q2112.37 1550.11 2112.37 1557.23 Q2112.37 1564.34 2114.18 1567.91 Q2116 1571.45 2119.62 1571.45 Q2123.25 1571.45 2125.05 1567.91 Q2126.88 1564.34 2126.88 1557.23 Q2126.88 1550.11 2125.05 1546.56 Q2123.25 1543 2119.62 1543 M2119.62 1539.29 Q2125.43 1539.29 2128.48 1543.9 Q2131.56 1548.48 2131.56 1557.23 Q2131.56 1565.96 2128.48 1570.57 Q2125.43 1575.15 2119.62 1575.15 Q2113.8 1575.15 2110.73 1570.57 Q2107.67 1565.96 2107.67 1557.23 Q2107.67 1548.48 2110.73 1543.9 Q2113.8 1539.29 2119.62 1539.29 Z" fill="#000000" fill-rule="evenodd" fill-opacity="1" /><path clip-path="url(#clip600)" d="M 0 0 M2136.63 1568.6 L2141.51 1568.6 L2141.51 1574.48 L2136.63 1574.48 L2136.63 1568.6 Z" fill="#000000" fill-rule="evenodd" fill-opacity="1" /><path clip-path="url(#clip600)" d="M 0 0 M2156.58 1543 Q2152.97 1543 2151.14 1546.56 Q2149.34 1550.11 2149.34 1557.23 Q2149.34 1564.34 2151.14 1567.91 Q2152.97 1571.45 2156.58 1571.45 Q2160.22 1571.45 2162.02 1567.91 Q2163.85 1564.34 2163.85 1557.23 Q2163.85 1550.11 2162.02 1546.56 Q2160.22 1543 2156.58 1543 M2156.58 1539.29 Q2162.39 1539.29 2165.45 1543.9 Q2168.53 1548.48 2168.53 1557.23 Q2168.53 1565.96 2165.45 1570.57 Q2162.39 1575.15 2156.58 1575.15 Q2150.77 1575.15 2147.69 1570.57 Q2144.64 1565.96 2144.64 1557.23 Q2144.64 1548.48 2147.69 1543.9 Q2150.77 1539.29 2156.58 1539.29 Z" fill="#000000" fill-rule="evenodd" fill-opacity="1" /><path clip-path="url(#clip600)" d="M 0 0 M2172.42 1539.92 L2194.64 1539.92 L2194.64 1541.91 L2182.09 1574.48 L2177.21 1574.48 L2189.01 1543.86 L2172.42 1543.86 L2172.42 1539.92 Z" fill="#000000" fill-rule="evenodd" fill-opacity="1" /><path clip-path="url(#clip600)" d="M 0 0 M2199.75 1539.92 L2218.11 1539.92 L2218.11 1543.86 L2204.04 1543.86 L2204.04 1552.33 Q2205.05 1551.98 2206.07 1551.82 Q2207.09 1551.63 2208.11 1551.63 Q2213.9 1551.63 2217.28 1554.8 Q2220.66 1557.98 2220.66 1563.39 Q2220.66 1568.97 2217.18 1572.07 Q2213.71 1575.15 2207.39 1575.15 Q2205.22 1575.15 2202.95 1574.78 Q2200.7 1574.41 2198.3 1573.67 L2198.3 1568.97 Q2200.38 1570.1 2202.6 1570.66 Q2204.82 1571.22 2207.3 1571.22 Q2211.3 1571.22 2213.64 1569.11 Q2215.98 1567 2215.98 1563.39 Q2215.98 1559.78 2213.64 1557.67 Q2211.3 1555.57 2207.3 1555.57 Q2205.42 1555.57 2203.55 1555.98 Q2201.7 1556.4 2199.75 1557.28 L2199.75 1539.92 Z" fill="#000000" fill-rule="evenodd" fill-opacity="1" /><path clip-path="url(#clip600)" d="M 0 0 M-40.6416 1395.5 L-28.1648 1395.5 L-28.1648 1399.3 L-40.6416 1399.3 L-40.6416 1395.5 Z" fill="#000000" fill-rule="evenodd" fill-opacity="1" /><path clip-path="url(#clip600)" d="M 0 0 M-13.0954 1378.91 Q-16.7065 1378.91 -18.5352 1382.47 Q-20.3408 1386.01 -20.3408 1393.14 Q-20.3408 1400.25 -18.5352 1403.81 Q-16.7065 1407.36 -13.0954 1407.36 Q-9.46119 1407.36 -7.65564 1403.81 Q-5.82695 1400.25 -5.82695 1393.14 Q-5.82695 1386.01 -7.65564 1382.47 Q-9.46119 1378.91 -13.0954 1378.91 M-13.0954 1375.2 Q-7.28528 1375.2 -4.22974 1379.81 Q-1.15105 1384.39 -1.15105 1393.14 Q-1.15105 1401.87 -4.22974 1406.48 Q-7.28528 1411.06 -13.0954 1411.06 Q-18.9056 1411.06 -21.9843 1406.48 Q-25.0398 1401.87 -25.0398 1393.14 Q-25.0398 1384.39 -21.9843 1379.81 Q-18.9056 1375.2 -13.0954 1375.2 Z" fill="#000000" fill-rule="evenodd" fill-opacity="1" /><path clip-path="url(#clip600)" d="M 0 0 M3.91837 1404.51 L8.8026 1404.51 L8.8026 1410.39 L3.91837 1410.39 L3.91837 1404.51 Z" fill="#000000" fill-rule="evenodd" fill-opacity="1" /><path clip-path="url(#clip600)" d="M 0 0 M23.872 1378.91 Q20.2609 1378.91 18.4322 1382.47 Q16.6266 1386.01 16.6266 1393.14 Q16.6266 1400.25 18.4322 1403.81 Q20.2609 1407.36 23.872 1407.36 Q27.5062 1407.36 29.3118 1403.81 Q31.1404 1400.25 31.1404 1393.14 Q31.1404 1386.01 29.3118 1382.47 Q27.5062 1378.91 23.872 1378.91 M23.872 1375.2 Q29.6821 1375.2 32.7377 1379.81 Q35.8163 1384.39 35.8163 1393.14 Q35.8163 1401.87 32.7377 1406.48 Q29.6821 1411.06 23.872 1411.06 Q18.0618 1411.06 14.9831 1406.48 Q11.9276 1401.87 11.9276 1393.14 Q11.9276 1384.39 14.9831 1379.81 Q18.0618 1375.2 23.872 1375.2 Z" fill="#000000" fill-rule="evenodd" fill-opacity="1" /><path clip-path="url(#clip600)" d="M 0 0 M51.4644 1391.25 Q48.3163 1391.25 46.4644 1393.4 Q44.6357 1395.55 44.6357 1399.3 Q44.6357 1403.03 46.4644 1405.2 Q48.3163 1407.36 51.4644 1407.36 Q54.6125 1407.36 56.4412 1405.2 Q58.2931 1403.03 58.2931 1399.3 Q58.2931 1395.55 56.4412 1393.4 Q54.6125 1391.25 51.4644 1391.25 M60.7468 1376.59 L60.7468 1380.85 Q58.9875 1380.02 57.182 1379.58 Q55.3996 1379.14 53.6403 1379.14 Q49.0107 1379.14 46.557 1382.26 Q44.1265 1385.39 43.7793 1391.71 Q45.145 1389.69 47.2052 1388.63 Q49.2653 1387.54 51.7422 1387.54 Q56.9505 1387.54 59.9597 1390.71 Q62.9921 1393.86 62.9921 1399.3 Q62.9921 1404.63 59.844 1407.84 Q56.6959 1411.06 51.4644 1411.06 Q45.4691 1411.06 42.2978 1406.48 Q39.1265 1401.87 39.1265 1393.14 Q39.1265 1384.95 43.0154 1380.09 Q46.9042 1375.2 53.4551 1375.2 Q55.2144 1375.2 56.9968 1375.55 Q58.8023 1375.9 60.7468 1376.59 Z" fill="#000000" fill-rule="evenodd" fill-opacity="1" /><path clip-path="url(#clip600)" d="M 0 0 M-40.9657 1099.97 L-28.4889 1099.97 L-28.4889 1103.77 L-40.9657 1103.77 L-40.9657 1099.97 Z" fill="#000000" fill-rule="evenodd" fill-opacity="1" /><path clip-path="url(#clip600)" d="M 0 0 M-13.4195 1083.37 Q-17.0306 1083.37 -18.8593 1086.94 Q-20.6648 1090.48 -20.6648 1097.61 Q-20.6648 1104.72 -18.8593 1108.28 Q-17.0306 1111.82 -13.4195 1111.82 Q-9.78526 1111.82 -7.97972 1108.28 Q-6.15102 1104.72 -6.15102 1097.61 Q-6.15102 1090.48 -7.97972 1086.94 Q-9.78526 1083.37 -13.4195 1083.37 M-13.4195 1079.67 Q-7.60935 1079.67 -4.55381 1084.28 Q-1.47512 1088.86 -1.47512 1097.61 Q-1.47512 1106.34 -4.55381 1110.94 Q-7.60935 1115.53 -13.4195 1115.53 Q-19.2297 1115.53 -22.3083 1110.94 Q-25.3639 1106.34 -25.3639 1097.61 Q-25.3639 1088.86 -22.3083 1084.28 Q-19.2297 1079.67 -13.4195 1079.67 Z" fill="#000000" fill-rule="evenodd" fill-opacity="1" /><path clip-path="url(#clip600)" d="M 0 0 M3.5943 1108.97 L8.47853 1108.97 L8.47853 1114.85 L3.5943 1114.85 L3.5943 1108.97 Z" fill="#000000" fill-rule="evenodd" fill-opacity="1" /><path clip-path="url(#clip600)" d="M 0 0 M23.5479 1083.37 Q19.9368 1083.37 18.1081 1086.94 Q16.3026 1090.48 16.3026 1097.61 Q16.3026 1104.72 18.1081 1108.28 Q19.9368 1111.82 23.5479 1111.82 Q27.1821 1111.82 28.9877 1108.28 Q30.8164 1104.72 30.8164 1097.61 Q30.8164 1090.48 28.9877 1086.94 Q27.1821 1083.37 23.5479 1083.37 M23.5479 1079.67 Q29.358 1079.67 32.4136 1084.28 Q35.4923 1088.86 35.4923 1097.61 Q35.4923 1106.34 32.4136 1110.94 Q29.358 1115.53 23.5479 1115.53 Q17.7377 1115.53 14.6591 1110.94 Q11.6035 1106.34 11.6035 1097.61 Q11.6035 1088.86 14.6591 1084.28 Q17.7377 1079.67 23.5479 1079.67 Z" fill="#000000" fill-rule="evenodd" fill-opacity="1" /><path clip-path="url(#clip600)" d="M 0 0 M53.4088 1084.37 L41.6034 1102.82 L53.4088 1102.82 L53.4088 1084.37 M52.182 1080.29 L58.0616 1080.29 L58.0616 1102.82 L62.9921 1102.82 L62.9921 1106.71 L58.0616 1106.71 L58.0616 1114.85 L53.4088 1114.85 L53.4088 1106.71 L37.8071 1106.71 L37.8071 1102.19 L52.182 1080.29 Z" fill="#000000" fill-rule="evenodd" fill-opacity="1" /><path clip-path="url(#clip600)" d="M 0 0 M-38.8823 804.436 L-26.4055 804.436 L-26.4055 808.232 L-38.8823 808.232 L-38.8823 804.436 Z" fill="#000000" fill-rule="evenodd" fill-opacity="1" /><path clip-path="url(#clip600)" d="M 0 0 M-11.3362 787.839 Q-14.9473 787.839 -16.776 791.404 Q-18.5815 794.945 -18.5815 802.075 Q-18.5815 809.181 -16.776 812.746 Q-14.9473 816.288 -11.3362 816.288 Q-7.70194 816.288 -5.89639 812.746 Q-4.0677 809.181 -4.0677 802.075 Q-4.0677 794.945 -5.89639 791.404 Q-7.70194 787.839 -11.3362 787.839 M-11.3362 784.135 Q-5.52603 784.135 -2.47049 788.742 Q0.608201 793.325 0.608201 802.075 Q0.608201 810.802 -2.47049 815.408 Q-5.52603 819.991 -11.3362 819.991 Q-17.1463 819.991 -20.225 815.408 Q-23.2806 810.802 -23.2806 802.075 Q-23.2806 793.325 -20.225 788.742 Q-17.1463 784.135 -11.3362 784.135 Z" fill="#000000" fill-rule="evenodd" fill-opacity="1" /><path clip-path="url(#clip600)" d="M 0 0 M5.67762 813.441 L10.5619 813.441 L10.5619 819.32 L5.67762 819.32 L5.67762 813.441 Z" fill="#000000" fill-rule="evenodd" fill-opacity="1" /><path clip-path="url(#clip600)" d="M 0 0 M25.6312 787.839 Q22.0201 787.839 20.1914 791.404 Q18.3859 794.945 18.3859 802.075 Q18.3859 809.181 20.1914 812.746 Q22.0201 816.288 25.6312 816.288 Q29.2655 816.288 31.071 812.746 Q32.8997 809.181 32.8997 802.075 Q32.8997 794.945 31.071 791.404 Q29.2655 787.839 25.6312 787.839 M25.6312 784.135 Q31.4414 784.135 34.4969 788.742 Q37.5756 793.325 37.5756 802.075 Q37.5756 810.802 34.4969 815.408 Q31.4414 819.991 25.6312 819.991 Q19.8211 819.991 16.7424 815.408 Q13.6868 810.802 13.6868 802.075 Q13.6868 793.325 16.7424 788.742 Q19.8211 784.135 25.6312 784.135 Z" fill="#000000" fill-rule="evenodd" fill-opacity="1" /><path clip-path="url(#clip600)" d="M 0 0 M46.6728 815.385 L62.9921 815.385 L62.9921 819.32 L41.0478 819.32 L41.0478 815.385 Q43.7098 812.63 48.2931 808.001 Q52.8996 803.348 54.0801 802.005 Q56.3255 799.482 57.2051 797.746 Q58.1079 795.987 58.1079 794.297 Q58.1079 791.542 56.1635 789.806 Q54.2422 788.07 51.1403 788.07 Q48.9413 788.07 46.4876 788.834 Q44.057 789.598 41.2793 791.149 L41.2793 786.427 Q44.1033 785.293 46.557 784.714 Q49.0107 784.135 51.0477 784.135 Q56.4181 784.135 59.6125 786.82 Q62.8069 789.505 62.8069 793.996 Q62.8069 796.126 61.9968 798.047 Q61.2097 799.945 59.1033 802.538 Q58.5246 803.209 55.4227 806.427 Q52.3209 809.621 46.6728 815.385 Z" fill="#000000" fill-rule="evenodd" fill-opacity="1" /><path clip-path="url(#clip600)" d="M 0 0 M-12.9334 492.304 Q-16.5445 492.304 -18.3732 495.869 Q-20.1787 499.411 -20.1787 506.54 Q-20.1787 513.647 -18.3732 517.212 Q-16.5445 520.753 -12.9334 520.753 Q-9.29915 520.753 -7.49361 517.212 Q-5.66491 513.647 -5.66491 506.54 Q-5.66491 499.411 -7.49361 495.869 Q-9.29915 492.304 -12.9334 492.304 M-12.9334 488.601 Q-7.12324 488.601 -4.0677 493.207 Q-0.989013 497.79 -0.989013 506.54 Q-0.989013 515.267 -4.0677 519.874 Q-7.12324 524.457 -12.9334 524.457 Q-18.7435 524.457 -21.8222 519.874 Q-24.8778 515.267 -24.8778 506.54 Q-24.8778 497.79 -21.8222 493.207 Q-18.7435 488.601 -12.9334 488.601 Z" fill="#000000" fill-rule="evenodd" fill-opacity="1" /><path clip-path="url(#clip600)" d="M 0 0 M4.0804 517.906 L8.96464 517.906 L8.96464 523.786 L4.0804 523.786 L4.0804 517.906 Z" fill="#000000" fill-rule="evenodd" fill-opacity="1" /><path clip-path="url(#clip600)" d="M 0 0 M24.034 492.304 Q20.4229 492.304 18.5942 495.869 Q16.7887 499.411 16.7887 506.54 Q16.7887 513.647 18.5942 517.212 Q20.4229 520.753 24.034 520.753 Q27.6682 520.753 29.4738 517.212 Q31.3025 513.647 31.3025 506.54 Q31.3025 499.411 29.4738 495.869 Q27.6682 492.304 24.034 492.304 M24.034 488.601 Q29.8442 488.601 32.8997 493.207 Q35.9784 497.79 35.9784 506.54 Q35.9784 515.267 32.8997 519.874 Q29.8442 524.457 24.034 524.457 Q18.2238 524.457 15.1452 519.874 Q12.0896 515.267 12.0896 506.54 Q12.0896 497.79 15.1452 493.207 Q18.2238 488.601 24.034 488.601 Z" fill="#000000" fill-rule="evenodd" fill-opacity="1" /><path clip-path="url(#clip600)" d="M 0 0 M51.0477 492.304 Q47.4367 492.304 45.608 495.869 Q43.8024 499.411 43.8024 506.54 Q43.8024 513.647 45.608 517.212 Q47.4367 520.753 51.0477 520.753 Q54.682 520.753 56.4875 517.212 Q58.3162 513.647 58.3162 506.54 Q58.3162 499.411 56.4875 495.869 Q54.682 492.304 51.0477 492.304 M51.0477 488.601 Q56.8579 488.601 59.9134 493.207 Q62.9921 497.79 62.9921 506.54 Q62.9921 515.267 59.9134 519.874 Q56.8579 524.457 51.0477 524.457 Q45.2376 524.457 42.1589 519.874 Q39.1034 515.267 39.1034 506.54 Q39.1034 497.79 42.1589 493.207 Q45.2376 488.601 51.0477 488.601 Z" fill="#000000" fill-rule="evenodd" fill-opacity="1" /><path clip-path="url(#clip600)" d="M 0 0 M-11.3362 196.77 Q-14.9473 196.77 -16.776 200.335 Q-18.5815 203.876 -18.5815 211.006 Q-18.5815 218.112 -16.776 221.677 Q-14.9473 225.219 -11.3362 225.219 Q-7.70194 225.219 -5.89639 221.677 Q-4.0677 218.112 -4.0677 211.006 Q-4.0677 203.876 -5.89639 200.335 Q-7.70194 196.77 -11.3362 196.77 M-11.3362 193.066 Q-5.52603 193.066 -2.47049 197.673 Q0.608201 202.256 0.608201 211.006 Q0.608201 219.733 -2.47049 224.339 Q-5.52603 228.923 -11.3362 228.923 Q-17.1463 228.923 -20.225 224.339 Q-23.2806 219.733 -23.2806 211.006 Q-23.2806 202.256 -20.225 197.673 Q-17.1463 193.066 -11.3362 193.066 Z" fill="#000000" fill-rule="evenodd" fill-opacity="1" /><path clip-path="url(#clip600)" d="M 0 0 M5.67762 222.372 L10.5619 222.372 L10.5619 228.251 L5.67762 228.251 L5.67762 222.372 Z" fill="#000000" fill-rule="evenodd" fill-opacity="1" /><path clip-path="url(#clip600)" d="M 0 0 M25.6312 196.77 Q22.0201 196.77 20.1914 200.335 Q18.3859 203.876 18.3859 211.006 Q18.3859 218.112 20.1914 221.677 Q22.0201 225.219 25.6312 225.219 Q29.2655 225.219 31.071 221.677 Q32.8997 218.112 32.8997 211.006 Q32.8997 203.876 31.071 200.335 Q29.2655 196.77 25.6312 196.77 M25.6312 193.066 Q31.4414 193.066 34.4969 197.673 Q37.5756 202.256 37.5756 211.006 Q37.5756 219.733 34.4969 224.339 Q31.4414 228.923 25.6312 228.923 Q19.8211 228.923 16.7424 224.339 Q13.6868 219.733 13.6868 211.006 Q13.6868 202.256 16.7424 197.673 Q19.8211 193.066 25.6312 193.066 Z" fill="#000000" fill-rule="evenodd" fill-opacity="1" /><path clip-path="url(#clip600)" d="M 0 0 M46.6728 224.316 L62.9921 224.316 L62.9921 228.251 L41.0478 228.251 L41.0478 224.316 Q43.7098 221.562 48.2931 216.932 Q52.8996 212.279 54.0801 210.937 Q56.3255 208.413 57.2051 206.677 Q58.1079 204.918 58.1079 203.228 Q58.1079 200.474 56.1635 198.738 Q54.2422 197.001 51.1403 197.001 Q48.9413 197.001 46.4876 197.765 Q44.057 198.529 41.2793 200.08 L41.2793 195.358 Q44.1033 194.224 46.557 193.645 Q49.0107 193.066 51.0477 193.066 Q56.4181 193.066 59.6125 195.751 Q62.8069 198.437 62.8069 202.927 Q62.8069 205.057 61.9968 206.978 Q61.2097 208.876 59.1033 211.469 Q58.5246 212.14 55.4227 215.358 Q52.3209 218.552 46.6728 224.316 Z" fill="#000000" fill-rule="evenodd" fill-opacity="1" /><circle clip-path="url(#clip602)" cx="306.205" cy="857.318" r="14" fill="#009af9" fill-rule="evenodd" fill-opacity="1" stroke="#000000" stroke-opacity="1" stroke-width="3.2"/>
<circle clip-path="url(#clip602)" cx="1097.04" cy="497.466" r="14" fill="#009af9" fill-rule="evenodd" fill-opacity="1" stroke="#000000" stroke-opacity="1" stroke-width="3.2"/>
<circle clip-path="url(#clip602)" cx="1743.19" cy="573.815" r="14" fill="#009af9" fill-rule="evenodd" fill-opacity="1" stroke="#000000" stroke-opacity="1" stroke-width="3.2"/>
<circle clip-path="url(#clip602)" cx="414.269" cy="764.395" r="14" fill="#009af9" fill-rule="evenodd" fill-opacity="1" stroke="#000000" stroke-opacity="1" stroke-width="3.2"/>
<circle clip-path="url(#clip602)" cx="151.118" cy="889.51" r="14" fill="#009af9" fill-rule="evenodd" fill-opacity="1" stroke="#000000" stroke-opacity="1" stroke-width="3.2"/>
<circle clip-path="url(#clip602)" cx="1557.6" cy="503.867" r="14" fill="#009af9" fill-rule="evenodd" fill-opacity="1" stroke="#000000" stroke-opacity="1" stroke-width="3.2"/>
<circle clip-path="url(#clip602)" cx="1382.02" cy="348.835" r="14" fill="#009af9" fill-rule="evenodd" fill-opacity="1" stroke="#000000" stroke-opacity="1" stroke-width="3.2"/>
<circle clip-path="url(#clip602)" cx="2288.63" cy="88.9544" r="14" fill="#009af9" fill-rule="evenodd" fill-opacity="1" stroke="#000000" stroke-opacity="1" stroke-width="3.2"/>
<circle clip-path="url(#clip602)" cx="2096.57" cy="1479.3" r="14" fill="#009af9" fill-rule="evenodd" fill-opacity="1" stroke="#000000" stroke-opacity="1" stroke-width="3.2"/>
<circle clip-path="url(#clip602)" cx="421.957" cy="1035.21" r="14" fill="#009af9" fill-rule="evenodd" fill-opacity="1" stroke="#000000" stroke-opacity="1" stroke-width="3.2"/>
<circle clip-path="url(#clip602)" cx="1750.87" cy="104.728" r="14" fill="#009af9" fill-rule="evenodd" fill-opacity="1" stroke="#000000" stroke-opacity="1" stroke-width="3.2"/>
<circle clip-path="url(#clip602)" cx="170.67" cy="821.574" r="14" fill="#009af9" fill-rule="evenodd" fill-opacity="1" stroke="#000000" stroke-opacity="1" stroke-width="3.2"/>
<circle clip-path="url(#clip602)" cx="2065.08" cy="831.697" r="14" fill="#009af9" fill-rule="evenodd" fill-opacity="1" stroke="#000000" stroke-opacity="1" stroke-width="3.2"/>
<circle clip-path="url(#clip602)" cx="1442.6" cy="281.453" r="14" fill="#009af9" fill-rule="evenodd" fill-opacity="1" stroke="#000000" stroke-opacity="1" stroke-width="3.2"/>
<circle clip-path="url(#clip602)" cx="503.55" cy="767.469" r="14" fill="#009af9" fill-rule="evenodd" fill-opacity="1" stroke="#000000" stroke-opacity="1" stroke-width="3.2"/>
<circle clip-path="url(#clip602)" cx="376.717" cy="744.659" r="14" fill="#009af9" fill-rule="evenodd" fill-opacity="1" stroke="#000000" stroke-opacity="1" stroke-width="3.2"/>
<circle clip-path="url(#clip602)" cx="591.174" cy="970.125" r="14" fill="#009af9" fill-rule="evenodd" fill-opacity="1" stroke="#000000" stroke-opacity="1" stroke-width="3.2"/>
<circle clip-path="url(#clip602)" cx="869.173" cy="516.232" r="14" fill="#009af9" fill-rule="evenodd" fill-opacity="1" stroke="#000000" stroke-opacity="1" stroke-width="3.2"/>
<circle clip-path="url(#clip602)" cx="972.213" cy="549.303" r="14" fill="#009af9" fill-rule="evenodd" fill-opacity="1" stroke="#000000" stroke-opacity="1" stroke-width="3.2"/>
<circle clip-path="url(#clip602)" cx="409.628" cy="625.327" r="14" fill="#009af9" fill-rule="evenodd" fill-opacity="1" stroke="#000000" stroke-opacity="1" stroke-width="3.2"/>
<path clip-path="url(#clip600)" d="
M1974.46 217.33 L2277.23 217.33 L2277.23 96.3696 L1974.46 96.3696  Z
  " fill="#ffffff" fill-rule="evenodd" fill-opacity="1"/>
<polyline clip-path="url(#clip600)" style="stroke:#000000; stroke-width:4; stroke-opacity:1; fill:none" points="
  1974.46,217.33 2277.23,217.33 2277.23,96.3696 1974.46,96.3696 1974.46,217.33 
  "/>
<circle clip-path="url(#clip600)" cx="2075.16" cy="156.85" r="23" fill="#009af9" fill-rule="evenodd" fill-opacity="1" stroke="#000000" stroke-opacity="1" stroke-width="5.12"/>
<circle clip-path="url(#clip600)" cx="2075.16" cy="156.85" r="23" fill="#009af9" fill-rule="evenodd" fill-opacity="1" stroke="#000000" stroke-opacity="1" stroke-width="5.12"/>
<circle clip-path="url(#clip600)" cx="2075.16" cy="156.85" r="23" fill="#009af9" fill-rule="evenodd" fill-opacity="1" stroke="#000000" stroke-opacity="1" stroke-width="5.12"/>
<circle clip-path="url(#clip600)" cx="2075.16" cy="156.85" r="23" fill="#009af9" fill-rule="evenodd" fill-opacity="1" stroke="#000000" stroke-opacity="1" stroke-width="5.12"/>
<circle clip-path="url(#clip600)" cx="2075.16" cy="156.85" r="23" fill="#009af9" fill-rule="evenodd" fill-opacity="1" stroke="#000000" stroke-opacity="1" stroke-width="5.12"/>
<circle clip-path="url(#clip600)" cx="2075.16" cy="156.85" r="23" fill="#009af9" fill-rule="evenodd" fill-opacity="1" stroke="#000000" stroke-opacity="1" stroke-width="5.12"/>
<circle clip-path="url(#clip600)" cx="2075.16" cy="156.85" r="23" fill="#009af9" fill-rule="evenodd" fill-opacity="1" stroke="#000000" stroke-opacity="1" stroke-width="5.12"/>
<circle clip-path="url(#clip600)" cx="2075.16" cy="156.85" r="23" fill="#009af9" fill-rule="evenodd" fill-opacity="1" stroke="#000000" stroke-opacity="1" stroke-width="5.12"/>
<circle clip-path="url(#clip600)" cx="2075.16" cy="156.85" r="23" fill="#009af9" fill-rule="evenodd" fill-opacity="1" stroke="#000000" stroke-opacity="1" stroke-width="5.12"/>
<circle clip-path="url(#clip600)" cx="2075.16" cy="156.85" r="23" fill="#009af9" fill-rule="evenodd" fill-opacity="1" stroke="#000000" stroke-opacity="1" stroke-width="5.12"/>
<circle clip-path="url(#clip600)" cx="2075.16" cy="156.85" r="23" fill="#009af9" fill-rule="evenodd" fill-opacity="1" stroke="#000000" stroke-opacity="1" stroke-width="5.12"/>
<circle clip-path="url(#clip600)" cx="2075.16" cy="156.85" r="23" fill="#009af9" fill-rule="evenodd" fill-opacity="1" stroke="#000000" stroke-opacity="1" stroke-width="5.12"/>
<circle clip-path="url(#clip600)" cx="2075.16" cy="156.85" r="23" fill="#009af9" fill-rule="evenodd" fill-opacity="1" stroke="#000000" stroke-opacity="1" stroke-width="5.12"/>
<circle clip-path="url(#clip600)" cx="2075.16" cy="156.85" r="23" fill="#009af9" fill-rule="evenodd" fill-opacity="1" stroke="#000000" stroke-opacity="1" stroke-width="5.12"/>
<circle clip-path="url(#clip600)" cx="2075.16" cy="156.85" r="23" fill="#009af9" fill-rule="evenodd" fill-opacity="1" stroke="#000000" stroke-opacity="1" stroke-width="5.12"/>
<circle clip-path="url(#clip600)" cx="2075.16" cy="156.85" r="23" fill="#009af9" fill-rule="evenodd" fill-opacity="1" stroke="#000000" stroke-opacity="1" stroke-width="5.12"/>
<circle clip-path="url(#clip600)" cx="2075.16" cy="156.85" r="23" fill="#009af9" fill-rule="evenodd" fill-opacity="1" stroke="#000000" stroke-opacity="1" stroke-width="5.12"/>
<circle clip-path="url(#clip600)" cx="2075.16" cy="156.85" r="23" fill="#009af9" fill-rule="evenodd" fill-opacity="1" stroke="#000000" stroke-opacity="1" stroke-width="5.12"/>
<circle clip-path="url(#clip600)" cx="2075.16" cy="156.85" r="23" fill="#009af9" fill-rule="evenodd" fill-opacity="1" stroke="#000000" stroke-opacity="1" stroke-width="5.12"/>
<circle clip-path="url(#clip600)" cx="2075.16" cy="156.85" r="23" fill="#009af9" fill-rule="evenodd" fill-opacity="1" stroke="#000000" stroke-opacity="1" stroke-width="5.12"/>
<path clip-path="url(#clip600)" d="M 0 0 M2189.7 176.537 Q2187.9 181.167 2186.19 182.579 Q2184.47 183.991 2181.6 183.991 L2178.2 183.991 L2178.2 180.426 L2180.7 180.426 Q2182.46 180.426 2183.43 179.592 Q2184.4 178.759 2185.58 175.657 L2186.35 173.713 L2175.86 148.204 L2180.38 148.204 L2188.48 168.481 L2196.58 148.204 L2201.09 148.204 L2189.7 176.537 Z" fill="#000000" fill-rule="evenodd" fill-opacity="1" /><path clip-path="url(#clip600)" d="M 0 0 M2206.97 170.194 L2214.61 170.194 L2214.61 143.829 L2206.3 145.495 L2206.3 141.236 L2214.57 139.57 L2219.24 139.57 L2219.24 170.194 L2226.88 170.194 L2226.88 174.13 L2206.97 174.13 L2206.97 170.194 Z" fill="#000000" fill-rule="evenodd" fill-opacity="1" /></svg>
