<?xml version="1.0" encoding="utf-8"?>
<svg xmlns="http://www.w3.org/2000/svg" xmlns:xlink="http://www.w3.org/1999/xlink" width="600" height="400" viewBox="0 0 2400 1600">
<defs>
  <clipPath id="clip010">
    <rect x="0" y="0" width="2400" height="1600"/>
  </clipPath>
</defs>
<path clip-path="url(#clip010)" d="
M0 1600 L2400 1600 L2400 0 L0 0  Z
  " fill="#ffffff" fill-rule="evenodd" fill-opacity="1"/>
<defs>
  <clipPath id="clip011">
    <rect x="480" y="0" width="1681" height="1600"/>
  </clipPath>
</defs>
<path clip-path="url(#clip010)" d="
M190.95 1486.45 L2352.76 1486.45 L2352.76 47.2441 L190.95 47.2441  Z
  " fill="#ffffff" fill-rule="evenodd" fill-opacity="1"/>
<defs>
  <clipPath id="clip012">
    <rect x="190" y="47" width="2163" height="1440"/>
  </clipPath>
</defs>
<polyline clip-path="url(#clip012)" style="stroke:#000000; stroke-width:2; stroke-opacity:0.1; fill:none" points="
  421.907,1486.45 421.907,47.2441 
  "/>
<polyline clip-path="url(#clip012)" style="stroke:#000000; stroke-width:2; stroke-opacity:0.1; fill:none" points="
  702.173,1486.45 702.173,47.2441 
  "/>
<polyline clip-path="url(#clip012)" style="stroke:#000000; stroke-width:2; stroke-opacity:0.1; fill:none" points="
  982.439,1486.45 982.439,47.2441 
  "/>
<polyline clip-path="url(#clip012)" style="stroke:#000000; stroke-width:2; stroke-opacity:0.1; fill:none" points="
  1262.71,1486.45 1262.71,47.2441 
  "/>
<polyline clip-path="url(#clip012)" style="stroke:#000000; stroke-width:2; stroke-opacity:0.1; fill:none" points="
  1542.97,1486.45 1542.97,47.2441 
  "/>
<polyline clip-path="url(#clip012)" style="stroke:#000000; stroke-width:2; stroke-opacity:0.1; fill:none" points="
  1823.24,1486.45 1823.24,47.2441 
  "/>
<polyline clip-path="url(#clip012)" style="stroke:#000000; stroke-width:2; stroke-opacity:0.1; fill:none" points="
  2103.5,1486.45 2103.5,47.2441 
  "/>
<polyline clip-path="url(#clip012)" style="stroke:#000000; stroke-width:2; stroke-opacity:0.1; fill:none" points="
  190.95,1476.05 2352.76,1476.05 
  "/>
<polyline clip-path="url(#clip012)" style="stroke:#000000; stroke-width:2; stroke-opacity:0.1; fill:none" points="
  190.95,1131.16 2352.76,1131.16 
  "/>
<polyline clip-path="url(#clip012)" style="stroke:#000000; stroke-width:2; stroke-opacity:0.1; fill:none" points="
  190.95,786.279 2352.76,786.279 
  "/>
<polyline clip-path="url(#clip012)" style="stroke:#000000; stroke-width:2; stroke-opacity:0.1; fill:none" points="
  190.95,441.395 2352.76,441.395 
  "/>
<polyline clip-path="url(#clip012)" style="stroke:#000000; stroke-width:2; stroke-opacity:0.1; fill:none" points="
  190.95,96.5107 2352.76,96.5107 
  "/>
<polyline clip-path="url(#clip010)" style="stroke:#000000; stroke-width:4; stroke-opacity:1; fill:none" points="
  190.95,1486.45 2352.76,1486.45 
  "/>
<polyline clip-path="url(#clip010)" style="stroke:#000000; stroke-width:4; stroke-opacity:1; fill:none" points="
  190.95,1486.45 190.95,47.2441 
  "/>
<polyline clip-path="url(#clip010)" style="stroke:#000000; stroke-width:4; stroke-opacity:1; fill:none" points="
  421.907,1486.45 421.907,1469.18 
  "/>
<polyline clip-path="url(#clip010)" style="stroke:#000000; stroke-width:4; stroke-opacity:1; fill:none" points="
  702.173,1486.45 702.173,1469.18 
  "/>
<polyline clip-path="url(#clip010)" style="stroke:#000000; stroke-width:4; stroke-opacity:1; fill:none" points="
  982.439,1486.45 982.439,1469.18 
  "/>
<polyline clip-path="url(#clip010)" style="stroke:#000000; stroke-width:4; stroke-opacity:1; fill:none" points="
  1262.71,1486.45 1262.71,1469.18 
  "/>
<polyline clip-path="url(#clip010)" style="stroke:#000000; stroke-width:4; stroke-opacity:1; fill:none" points="
  1542.97,1486.45 1542.97,1469.18 
  "/>
<polyline clip-path="url(#clip010)" style="stroke:#000000; stroke-width:4; stroke-opacity:1; fill:none" points="
  1823.24,1486.45 1823.24,1469.18 
  "/>
<polyline clip-path="url(#clip010)" style="stroke:#000000; stroke-width:4; stroke-opacity:1; fill:none" points="
  2103.5,1486.45 2103.5,1469.18 
  "/>
<polyline clip-path="url(#clip010)" style="stroke:#000000; stroke-width:4; stroke-opacity:1; fill:none" points="
  190.95,1476.05 216.892,1476.05 
  "/>
<polyline clip-path="url(#clip010)" style="stroke:#000000; stroke-width:4; stroke-opacity:1; fill:none" points="
  190.95,1131.16 216.892,1131.16 
  "/>
<polyline clip-path="url(#clip010)" style="stroke:#000000; stroke-width:4; stroke-opacity:1; fill:none" points="
  190.95,786.279 216.892,786.279 
  "/>
<polyline clip-path="url(#clip010)" style="stroke:#000000; stroke-width:4; stroke-opacity:1; fill:none" points="
  190.95,441.395 216.892,441.395 
  "/>
<polyline clip-path="url(#clip010)" style="stroke:#000000; stroke-width:4; stroke-opacity:1; fill:none" points="
  190.95,96.5107 216.892,96.5107 
  "/>
<path clip-path="url(#clip010)" d="M 0 0 M357.613 1525.04 L370.09 1525.04 L370.09 1528.83 L357.613 1528.83 L357.613 1525.04 Z" fill="#000000" fill-rule="evenodd" fill-opacity="1" /><path clip-path="url(#clip010)" d="M 0 0 M385.159 1508.44 Q381.548 1508.44 379.72 1512 Q377.914 1515.55 377.914 1522.67 Q377.914 1529.78 379.72 1533.35 Q381.548 1536.89 385.159 1536.89 Q388.794 1536.89 390.599 1533.35 Q392.428 1529.78 392.428 1522.67 Q392.428 1515.55 390.599 1512 Q388.794 1508.44 385.159 1508.44 M385.159 1504.73 Q390.969 1504.73 394.025 1509.34 Q397.104 1513.92 397.104 1522.67 Q397.104 1531.4 394.025 1536.01 Q390.969 1540.59 385.159 1540.59 Q379.349 1540.59 376.27 1536.01 Q373.215 1531.4 373.215 1522.67 Q373.215 1513.92 376.27 1509.34 Q379.349 1504.73 385.159 1504.73 Z" fill="#000000" fill-rule="evenodd" fill-opacity="1" /><path clip-path="url(#clip010)" d="M 0 0 M402.173 1534.04 L407.057 1534.04 L407.057 1539.92 L402.173 1539.92 L402.173 1534.04 Z" fill="#000000" fill-rule="evenodd" fill-opacity="1" /><path clip-path="url(#clip010)" d="M 0 0 M422.127 1508.44 Q418.516 1508.44 416.687 1512 Q414.881 1515.55 414.881 1522.67 Q414.881 1529.78 416.687 1533.35 Q418.516 1536.89 422.127 1536.89 Q425.761 1536.89 427.567 1533.35 Q429.395 1529.78 429.395 1522.67 Q429.395 1515.55 427.567 1512 Q425.761 1508.44 422.127 1508.44 M422.127 1504.73 Q427.937 1504.73 430.992 1509.34 Q434.071 1513.92 434.071 1522.67 Q434.071 1531.4 430.992 1536.01 Q427.937 1540.59 422.127 1540.59 Q416.317 1540.59 413.238 1536.01 Q410.182 1531.4 410.182 1522.67 Q410.182 1513.92 413.238 1509.34 Q416.317 1504.73 422.127 1504.73 Z" fill="#000000" fill-rule="evenodd" fill-opacity="1" /><path clip-path="url(#clip010)" d="M 0 0 M437.96 1505.36 L460.182 1505.36 L460.182 1507.35 L447.636 1539.92 L442.752 1539.92 L454.557 1509.3 L437.96 1509.3 L437.96 1505.36 Z" fill="#000000" fill-rule="evenodd" fill-opacity="1" /><path clip-path="url(#clip010)" d="M 0 0 M465.298 1505.36 L483.654 1505.36 L483.654 1509.3 L469.58 1509.3 L469.58 1517.77 Q470.599 1517.42 471.617 1517.26 Q472.636 1517.07 473.654 1517.07 Q479.441 1517.07 482.821 1520.24 Q486.2 1523.42 486.2 1528.83 Q486.2 1534.41 482.728 1537.51 Q479.256 1540.59 472.937 1540.59 Q470.761 1540.59 468.492 1540.22 Q466.247 1539.85 463.839 1539.11 L463.839 1534.41 Q465.923 1535.54 468.145 1536.1 Q470.367 1536.66 472.844 1536.66 Q476.849 1536.66 479.187 1534.55 Q481.525 1532.44 481.525 1528.83 Q481.525 1525.22 479.187 1523.11 Q476.849 1521.01 472.844 1521.01 Q470.969 1521.01 469.094 1521.42 Q467.242 1521.84 465.298 1522.72 L465.298 1505.36 Z" fill="#000000" fill-rule="evenodd" fill-opacity="1" /><path clip-path="url(#clip010)" d="M 0 0 M637.428 1525.04 L649.905 1525.04 L649.905 1528.83 L637.428 1528.83 L637.428 1525.04 Z" fill="#000000" fill-rule="evenodd" fill-opacity="1" /><path clip-path="url(#clip010)" d="M 0 0 M664.974 1508.44 Q661.363 1508.44 659.534 1512 Q657.729 1515.55 657.729 1522.67 Q657.729 1529.78 659.534 1533.35 Q661.363 1536.89 664.974 1536.89 Q668.608 1536.89 670.414 1533.35 Q672.243 1529.78 672.243 1522.67 Q672.243 1515.55 670.414 1512 Q668.608 1508.44 664.974 1508.44 M664.974 1504.73 Q670.784 1504.73 673.84 1509.34 Q676.918 1513.92 676.918 1522.67 Q676.918 1531.4 673.84 1536.01 Q670.784 1540.59 664.974 1540.59 Q659.164 1540.59 656.085 1536.01 Q653.03 1531.4 653.03 1522.67 Q653.03 1513.92 656.085 1509.34 Q659.164 1504.73 664.974 1504.73 Z" fill="#000000" fill-rule="evenodd" fill-opacity="1" /><path clip-path="url(#clip010)" d="M 0 0 M681.988 1534.04 L686.872 1534.04 L686.872 1539.92 L681.988 1539.92 L681.988 1534.04 Z" fill="#000000" fill-rule="evenodd" fill-opacity="1" /><path clip-path="url(#clip010)" d="M 0 0 M701.941 1508.44 Q698.33 1508.44 696.502 1512 Q694.696 1515.55 694.696 1522.67 Q694.696 1529.78 696.502 1533.35 Q698.33 1536.89 701.941 1536.89 Q705.576 1536.89 707.381 1533.35 Q709.21 1529.78 709.21 1522.67 Q709.21 1515.55 707.381 1512 Q705.576 1508.44 701.941 1508.44 M701.941 1504.73 Q707.752 1504.73 710.807 1509.34 Q713.886 1513.92 713.886 1522.67 Q713.886 1531.4 710.807 1536.01 Q707.752 1540.59 701.941 1540.59 Q696.131 1540.59 693.053 1536.01 Q689.997 1531.4 689.997 1522.67 Q689.997 1513.92 693.053 1509.34 Q696.131 1504.73 701.941 1504.73 Z" fill="#000000" fill-rule="evenodd" fill-opacity="1" /><path clip-path="url(#clip010)" d="M 0 0 M719.002 1505.36 L737.358 1505.36 L737.358 1509.3 L723.284 1509.3 L723.284 1517.77 Q724.302 1517.42 725.321 1517.26 Q726.339 1517.07 727.358 1517.07 Q733.145 1517.07 736.525 1520.24 Q739.904 1523.42 739.904 1528.83 Q739.904 1534.41 736.432 1537.51 Q732.96 1540.59 726.64 1540.59 Q724.464 1540.59 722.196 1540.22 Q719.951 1539.85 717.543 1539.11 L717.543 1534.41 Q719.627 1535.54 721.849 1536.1 Q724.071 1536.66 726.548 1536.66 Q730.552 1536.66 732.89 1534.55 Q735.228 1532.44 735.228 1528.83 Q735.228 1525.22 732.89 1523.11 Q730.552 1521.01 726.548 1521.01 Q724.673 1521.01 722.798 1521.42 Q720.946 1521.84 719.002 1522.72 L719.002 1505.36 Z" fill="#000000" fill-rule="evenodd" fill-opacity="1" /><path clip-path="url(#clip010)" d="M 0 0 M754.974 1508.44 Q751.362 1508.44 749.534 1512 Q747.728 1515.55 747.728 1522.67 Q747.728 1529.78 749.534 1533.35 Q751.362 1536.89 754.974 1536.89 Q758.608 1536.89 760.413 1533.35 Q762.242 1529.78 762.242 1522.67 Q762.242 1515.55 760.413 1512 Q758.608 1508.44 754.974 1508.44 M754.974 1504.73 Q760.784 1504.73 763.839 1509.34 Q766.918 1513.92 766.918 1522.67 Q766.918 1531.4 763.839 1536.01 Q760.784 1540.59 754.974 1540.59 Q749.163 1540.59 746.085 1536.01 Q743.029 1531.4 743.029 1522.67 Q743.029 1513.92 746.085 1509.34 Q749.163 1504.73 754.974 1504.73 Z" fill="#000000" fill-rule="evenodd" fill-opacity="1" /><path clip-path="url(#clip010)" d="M 0 0 M918.493 1525.04 L930.969 1525.04 L930.969 1528.83 L918.493 1528.83 L918.493 1525.04 Z" fill="#000000" fill-rule="evenodd" fill-opacity="1" /><path clip-path="url(#clip010)" d="M 0 0 M946.039 1508.44 Q942.428 1508.44 940.599 1512 Q938.793 1515.55 938.793 1522.67 Q938.793 1529.78 940.599 1533.35 Q942.428 1536.89 946.039 1536.89 Q949.673 1536.89 951.479 1533.35 Q953.307 1529.78 953.307 1522.67 Q953.307 1515.55 951.479 1512 Q949.673 1508.44 946.039 1508.44 M946.039 1504.73 Q951.849 1504.73 954.905 1509.34 Q957.983 1513.92 957.983 1522.67 Q957.983 1531.4 954.905 1536.01 Q951.849 1540.59 946.039 1540.59 Q940.229 1540.59 937.15 1536.01 Q934.094 1531.4 934.094 1522.67 Q934.094 1513.92 937.15 1509.34 Q940.229 1504.73 946.039 1504.73 Z" fill="#000000" fill-rule="evenodd" fill-opacity="1" /><path clip-path="url(#clip010)" d="M 0 0 M963.053 1534.04 L967.937 1534.04 L967.937 1539.92 L963.053 1539.92 L963.053 1534.04 Z" fill="#000000" fill-rule="evenodd" fill-opacity="1" /><path clip-path="url(#clip010)" d="M 0 0 M983.006 1508.44 Q979.395 1508.44 977.566 1512 Q975.761 1515.55 975.761 1522.67 Q975.761 1529.78 977.566 1533.35 Q979.395 1536.89 983.006 1536.89 Q986.64 1536.89 988.446 1533.35 Q990.275 1529.78 990.275 1522.67 Q990.275 1515.55 988.446 1512 Q986.64 1508.44 983.006 1508.44 M983.006 1504.73 Q988.816 1504.73 991.872 1509.34 Q994.951 1513.92 994.951 1522.67 Q994.951 1531.4 991.872 1536.01 Q988.816 1540.59 983.006 1540.59 Q977.196 1540.59 974.117 1536.01 Q971.062 1531.4 971.062 1522.67 Q971.062 1513.92 974.117 1509.34 Q977.196 1504.73 983.006 1504.73 Z" fill="#000000" fill-rule="evenodd" fill-opacity="1" /><path clip-path="url(#clip010)" d="M 0 0 M1004.05 1535.98 L1020.37 1535.98 L1020.37 1539.92 L998.423 1539.92 L998.423 1535.98 Q1001.08 1533.23 1005.67 1528.6 Q1010.27 1523.95 1011.46 1522.61 Q1013.7 1520.08 1014.58 1518.35 Q1015.48 1516.59 1015.48 1514.9 Q1015.48 1512.14 1013.54 1510.41 Q1011.62 1508.67 1008.52 1508.67 Q1006.32 1508.67 1003.86 1509.43 Q1001.43 1510.2 998.654 1511.75 L998.654 1507.03 Q1001.48 1505.89 1003.93 1505.31 Q1006.39 1504.73 1008.42 1504.73 Q1013.79 1504.73 1016.99 1507.42 Q1020.18 1510.11 1020.18 1514.6 Q1020.18 1516.73 1019.37 1518.65 Q1018.58 1520.54 1016.48 1523.14 Q1015.9 1523.81 1012.8 1527.03 Q1009.7 1530.22 1004.05 1535.98 Z" fill="#000000" fill-rule="evenodd" fill-opacity="1" /><path clip-path="url(#clip010)" d="M 0 0 M1025.48 1505.36 L1043.84 1505.36 L1043.84 1509.3 L1029.77 1509.3 L1029.77 1517.77 Q1030.78 1517.42 1031.8 1517.26 Q1032.82 1517.07 1033.84 1517.07 Q1039.63 1517.07 1043.01 1520.24 Q1046.39 1523.42 1046.39 1528.83 Q1046.39 1534.41 1042.91 1537.51 Q1039.44 1540.59 1033.12 1540.59 Q1030.95 1540.59 1028.68 1540.22 Q1026.43 1539.85 1024.02 1539.11 L1024.02 1534.41 Q1026.11 1535.54 1028.33 1536.1 Q1030.55 1536.66 1033.03 1536.66 Q1037.03 1536.66 1039.37 1534.55 Q1041.71 1532.44 1041.71 1528.83 Q1041.71 1525.22 1039.37 1523.11 Q1037.03 1521.01 1033.03 1521.01 Q1031.15 1521.01 1029.28 1521.42 Q1027.43 1521.84 1025.48 1522.72 L1025.48 1505.36 Z" fill="#000000" fill-rule="evenodd" fill-opacity="1" /><path clip-path="url(#clip010)" d="M 0 0 M1217.21 1508.44 Q1213.6 1508.44 1211.77 1512 Q1209.96 1515.55 1209.96 1522.67 Q1209.96 1529.78 1211.77 1533.35 Q1213.6 1536.89 1217.21 1536.89 Q1220.84 1536.89 1222.65 1533.35 Q1224.48 1529.78 1224.48 1522.67 Q1224.48 1515.55 1222.65 1512 Q1220.84 1508.44 1217.21 1508.44 M1217.21 1504.73 Q1223.02 1504.73 1226.07 1509.34 Q1229.15 1513.92 1229.15 1522.67 Q1229.15 1531.4 1226.07 1536.01 Q1223.02 1540.59 1217.21 1540.59 Q1211.4 1540.59 1208.32 1536.01 Q1205.26 1531.4 1205.26 1522.67 Q1205.26 1513.92 1208.32 1509.34 Q1211.4 1504.73 1217.21 1504.73 Z" fill="#000000" fill-rule="evenodd" fill-opacity="1" /><path clip-path="url(#clip010)" d="M 0 0 M1234.22 1534.04 L1239.11 1534.04 L1239.11 1539.92 L1234.22 1539.92 L1234.22 1534.04 Z" fill="#000000" fill-rule="evenodd" fill-opacity="1" /><path clip-path="url(#clip010)" d="M 0 0 M1254.18 1508.44 Q1250.56 1508.44 1248.74 1512 Q1246.93 1515.55 1246.93 1522.67 Q1246.93 1529.78 1248.74 1533.35 Q1250.56 1536.89 1254.18 1536.89 Q1257.81 1536.89 1259.61 1533.35 Q1261.44 1529.78 1261.44 1522.67 Q1261.44 1515.55 1259.61 1512 Q1257.81 1508.44 1254.18 1508.44 M1254.18 1504.73 Q1259.99 1504.73 1263.04 1509.34 Q1266.12 1513.92 1266.12 1522.67 Q1266.12 1531.4 1263.04 1536.01 Q1259.99 1540.59 1254.18 1540.59 Q1248.37 1540.59 1245.29 1536.01 Q1242.23 1531.4 1242.23 1522.67 Q1242.23 1513.92 1245.29 1509.34 Q1248.37 1504.73 1254.18 1504.73 Z" fill="#000000" fill-rule="evenodd" fill-opacity="1" /><path clip-path="url(#clip010)" d="M 0 0 M1281.19 1508.44 Q1277.58 1508.44 1275.75 1512 Q1273.94 1515.55 1273.94 1522.67 Q1273.94 1529.78 1275.75 1533.35 Q1277.58 1536.89 1281.19 1536.89 Q1284.82 1536.89 1286.63 1533.35 Q1288.46 1529.78 1288.46 1522.67 Q1288.46 1515.55 1286.63 1512 Q1284.82 1508.44 1281.19 1508.44 M1281.19 1504.73 Q1287 1504.73 1290.05 1509.34 Q1293.13 1513.92 1293.13 1522.67 Q1293.13 1531.4 1290.05 1536.01 Q1287 1540.59 1281.19 1540.59 Q1275.38 1540.59 1272.3 1536.01 Q1269.24 1531.4 1269.24 1522.67 Q1269.24 1513.92 1272.3 1509.34 Q1275.38 1504.73 1281.19 1504.73 Z" fill="#000000" fill-rule="evenodd" fill-opacity="1" /><path clip-path="url(#clip010)" d="M 0 0 M1308.2 1508.44 Q1304.59 1508.44 1302.76 1512 Q1300.96 1515.55 1300.96 1522.67 Q1300.96 1529.78 1302.76 1533.35 Q1304.59 1536.89 1308.2 1536.89 Q1311.84 1536.89 1313.64 1533.35 Q1315.47 1529.78 1315.47 1522.67 Q1315.47 1515.55 1313.64 1512 Q1311.84 1508.44 1308.2 1508.44 M1308.2 1504.73 Q1314.01 1504.73 1317.07 1509.34 Q1320.15 1513.92 1320.15 1522.67 Q1320.15 1531.4 1317.07 1536.01 Q1314.01 1540.59 1308.2 1540.59 Q1302.39 1540.59 1299.31 1536.01 Q1296.26 1531.4 1296.26 1522.67 Q1296.26 1513.92 1299.31 1509.34 Q1302.39 1504.73 1308.2 1504.73 Z" fill="#000000" fill-rule="evenodd" fill-opacity="1" /><path clip-path="url(#clip010)" d="M 0 0 M1498.77 1508.44 Q1495.16 1508.44 1493.33 1512 Q1491.52 1515.55 1491.52 1522.67 Q1491.52 1529.78 1493.33 1533.35 Q1495.16 1536.89 1498.77 1536.89 Q1502.4 1536.89 1504.21 1533.35 Q1506.04 1529.78 1506.04 1522.67 Q1506.04 1515.55 1504.21 1512 Q1502.4 1508.44 1498.77 1508.44 M1498.77 1504.73 Q1504.58 1504.73 1507.64 1509.34 Q1510.71 1513.92 1510.71 1522.67 Q1510.71 1531.4 1507.64 1536.01 Q1504.58 1540.59 1498.77 1540.59 Q1492.96 1540.59 1489.88 1536.01 Q1486.83 1531.4 1486.83 1522.67 Q1486.83 1513.92 1489.88 1509.34 Q1492.96 1504.73 1498.77 1504.73 Z" fill="#000000" fill-rule="evenodd" fill-opacity="1" /><path clip-path="url(#clip010)" d="M 0 0 M1515.78 1534.04 L1520.67 1534.04 L1520.67 1539.92 L1515.78 1539.92 L1515.78 1534.04 Z" fill="#000000" fill-rule="evenodd" fill-opacity="1" /><path clip-path="url(#clip010)" d="M 0 0 M1535.74 1508.44 Q1532.13 1508.44 1530.3 1512 Q1528.49 1515.55 1528.49 1522.67 Q1528.49 1529.78 1530.3 1533.35 Q1532.13 1536.89 1535.74 1536.89 Q1539.37 1536.89 1541.18 1533.35 Q1543.01 1529.78 1543.01 1522.67 Q1543.01 1515.55 1541.18 1512 Q1539.37 1508.44 1535.74 1508.44 M1535.74 1504.73 Q1541.55 1504.73 1544.6 1509.34 Q1547.68 1513.92 1547.68 1522.67 Q1547.68 1531.4 1544.6 1536.01 Q1541.55 1540.59 1535.74 1540.59 Q1529.93 1540.59 1526.85 1536.01 Q1523.79 1531.4 1523.79 1522.67 Q1523.79 1513.92 1526.85 1509.34 Q1529.93 1504.73 1535.74 1504.73 Z" fill="#000000" fill-rule="evenodd" fill-opacity="1" /><path clip-path="url(#clip010)" d="M 0 0 M1556.78 1535.98 L1573.1 1535.98 L1573.1 1539.92 L1551.15 1539.92 L1551.15 1535.98 Q1553.82 1533.23 1558.4 1528.6 Q1563.01 1523.95 1564.19 1522.61 Q1566.43 1520.08 1567.31 1518.35 Q1568.21 1516.59 1568.21 1514.9 Q1568.21 1512.14 1566.27 1510.41 Q1564.35 1508.67 1561.25 1508.67 Q1559.05 1508.67 1556.59 1509.43 Q1554.16 1510.2 1551.39 1511.75 L1551.39 1507.03 Q1554.21 1505.89 1556.66 1505.31 Q1559.12 1504.73 1561.15 1504.73 Q1566.52 1504.73 1569.72 1507.42 Q1572.91 1510.11 1572.91 1514.6 Q1572.91 1516.73 1572.1 1518.65 Q1571.32 1520.54 1569.21 1523.14 Q1568.63 1523.81 1565.53 1527.03 Q1562.43 1530.22 1556.78 1535.98 Z" fill="#000000" fill-rule="evenodd" fill-opacity="1" /><path clip-path="url(#clip010)" d="M 0 0 M1578.21 1505.36 L1596.57 1505.36 L1596.57 1509.3 L1582.5 1509.3 L1582.5 1517.77 Q1583.52 1517.42 1584.53 1517.26 Q1585.55 1517.07 1586.57 1517.07 Q1592.36 1517.07 1595.74 1520.24 Q1599.12 1523.42 1599.12 1528.83 Q1599.12 1534.41 1595.64 1537.51 Q1592.17 1540.59 1585.85 1540.59 Q1583.68 1540.59 1581.41 1540.22 Q1579.16 1539.85 1576.76 1539.11 L1576.76 1534.41 Q1578.84 1535.54 1581.06 1536.1 Q1583.28 1536.66 1585.76 1536.66 Q1589.77 1536.66 1592.1 1534.55 Q1594.44 1532.44 1594.44 1528.83 Q1594.44 1525.22 1592.1 1523.11 Q1589.77 1521.01 1585.76 1521.01 Q1583.89 1521.01 1582.01 1521.42 Q1580.16 1521.84 1578.21 1522.72 L1578.21 1505.36 Z" fill="#000000" fill-rule="evenodd" fill-opacity="1" /><path clip-path="url(#clip010)" d="M 0 0 M1778.24 1508.44 Q1774.63 1508.44 1772.8 1512 Q1770.99 1515.55 1770.99 1522.67 Q1770.99 1529.78 1772.8 1533.35 Q1774.63 1536.89 1778.24 1536.89 Q1781.87 1536.89 1783.68 1533.35 Q1785.51 1529.78 1785.51 1522.67 Q1785.51 1515.55 1783.68 1512 Q1781.87 1508.44 1778.24 1508.44 M1778.24 1504.73 Q1784.05 1504.73 1787.1 1509.34 Q1790.18 1513.92 1790.18 1522.67 Q1790.18 1531.4 1787.1 1536.01 Q1784.05 1540.59 1778.24 1540.59 Q1772.43 1540.59 1769.35 1536.01 Q1766.29 1531.4 1766.29 1522.67 Q1766.29 1513.92 1769.35 1509.34 Q1772.43 1504.73 1778.24 1504.73 Z" fill="#000000" fill-rule="evenodd" fill-opacity="1" /><path clip-path="url(#clip010)" d="M 0 0 M1795.25 1534.04 L1800.14 1534.04 L1800.14 1539.92 L1795.25 1539.92 L1795.25 1534.04 Z" fill="#000000" fill-rule="evenodd" fill-opacity="1" /><path clip-path="url(#clip010)" d="M 0 0 M1815.21 1508.44 Q1811.59 1508.44 1809.77 1512 Q1807.96 1515.55 1807.96 1522.67 Q1807.96 1529.78 1809.77 1533.35 Q1811.59 1536.89 1815.21 1536.89 Q1818.84 1536.89 1820.64 1533.35 Q1822.47 1529.78 1822.47 1522.67 Q1822.47 1515.55 1820.64 1512 Q1818.84 1508.44 1815.21 1508.44 M1815.21 1504.73 Q1821.02 1504.73 1824.07 1509.34 Q1827.15 1513.92 1827.15 1522.67 Q1827.15 1531.4 1824.07 1536.01 Q1821.02 1540.59 1815.21 1540.59 Q1809.39 1540.59 1806.32 1536.01 Q1803.26 1531.4 1803.26 1522.67 Q1803.26 1513.92 1806.32 1509.34 Q1809.39 1504.73 1815.21 1504.73 Z" fill="#000000" fill-rule="evenodd" fill-opacity="1" /><path clip-path="url(#clip010)" d="M 0 0 M1832.27 1505.36 L1850.62 1505.36 L1850.62 1509.3 L1836.55 1509.3 L1836.55 1517.77 Q1837.57 1517.42 1838.58 1517.26 Q1839.6 1517.07 1840.62 1517.07 Q1846.41 1517.07 1849.79 1520.24 Q1853.17 1523.42 1853.17 1528.83 Q1853.17 1534.41 1849.7 1537.51 Q1846.22 1540.59 1839.9 1540.59 Q1837.73 1540.59 1835.46 1540.22 Q1833.21 1539.85 1830.81 1539.11 L1830.81 1534.41 Q1832.89 1535.54 1835.11 1536.1 Q1837.33 1536.66 1839.81 1536.66 Q1843.82 1536.66 1846.15 1534.55 Q1848.49 1532.44 1848.49 1528.83 Q1848.49 1525.22 1846.15 1523.11 Q1843.82 1521.01 1839.81 1521.01 Q1837.94 1521.01 1836.06 1521.42 Q1834.21 1521.84 1832.27 1522.72 L1832.27 1505.36 Z" fill="#000000" fill-rule="evenodd" fill-opacity="1" /><path clip-path="url(#clip010)" d="M 0 0 M1868.24 1508.44 Q1864.63 1508.44 1862.8 1512 Q1860.99 1515.55 1860.99 1522.67 Q1860.99 1529.78 1862.8 1533.35 Q1864.63 1536.89 1868.24 1536.89 Q1871.87 1536.89 1873.68 1533.35 Q1875.51 1529.78 1875.51 1522.67 Q1875.51 1515.55 1873.68 1512 Q1871.87 1508.44 1868.24 1508.44 M1868.24 1504.73 Q1874.05 1504.73 1877.1 1509.34 Q1880.18 1513.92 1880.18 1522.67 Q1880.18 1531.4 1877.1 1536.01 Q1874.05 1540.59 1868.24 1540.59 Q1862.43 1540.59 1859.35 1536.01 Q1856.29 1531.4 1856.29 1522.67 Q1856.29 1513.92 1859.35 1509.34 Q1862.43 1504.73 1868.24 1504.73 Z" fill="#000000" fill-rule="evenodd" fill-opacity="1" /><path clip-path="url(#clip010)" d="M 0 0 M2058.96 1508.44 Q2055.34 1508.44 2053.52 1512 Q2051.71 1515.55 2051.71 1522.67 Q2051.71 1529.78 2053.52 1533.35 Q2055.34 1536.89 2058.96 1536.89 Q2062.59 1536.89 2064.4 1533.35 Q2066.22 1529.78 2066.22 1522.67 Q2066.22 1515.55 2064.4 1512 Q2062.59 1508.44 2058.96 1508.44 M2058.96 1504.73 Q2064.77 1504.73 2067.82 1509.34 Q2070.9 1513.92 2070.9 1522.67 Q2070.9 1531.4 2067.82 1536.01 Q2064.77 1540.59 2058.96 1540.59 Q2053.15 1540.59 2050.07 1536.01 Q2047.01 1531.4 2047.01 1522.67 Q2047.01 1513.92 2050.07 1509.34 Q2053.15 1504.73 2058.96 1504.73 Z" fill="#000000" fill-rule="evenodd" fill-opacity="1" /><path clip-path="url(#clip010)" d="M 0 0 M2075.97 1534.04 L2080.85 1534.04 L2080.85 1539.92 L2075.97 1539.92 L2075.97 1534.04 Z" fill="#000000" fill-rule="evenodd" fill-opacity="1" /><path clip-path="url(#clip010)" d="M 0 0 M2095.92 1508.44 Q2092.31 1508.44 2090.48 1512 Q2088.68 1515.55 2088.68 1522.67 Q2088.68 1529.78 2090.48 1533.35 Q2092.31 1536.89 2095.92 1536.89 Q2099.56 1536.89 2101.36 1533.35 Q2103.19 1529.78 2103.19 1522.67 Q2103.19 1515.55 2101.36 1512 Q2099.56 1508.44 2095.92 1508.44 M2095.92 1504.73 Q2101.73 1504.73 2104.79 1509.34 Q2107.87 1513.92 2107.87 1522.67 Q2107.87 1531.4 2104.79 1536.01 Q2101.73 1540.59 2095.92 1540.59 Q2090.11 1540.59 2087.03 1536.01 Q2083.98 1531.4 2083.98 1522.67 Q2083.98 1513.92 2087.03 1509.34 Q2090.11 1504.73 2095.92 1504.73 Z" fill="#000000" fill-rule="evenodd" fill-opacity="1" /><path clip-path="url(#clip010)" d="M 0 0 M2111.76 1505.36 L2133.98 1505.36 L2133.98 1507.35 L2121.43 1539.92 L2116.55 1539.92 L2128.35 1509.3 L2111.76 1509.3 L2111.76 1505.36 Z" fill="#000000" fill-rule="evenodd" fill-opacity="1" /><path clip-path="url(#clip010)" d="M 0 0 M2139.09 1505.36 L2157.45 1505.36 L2157.45 1509.3 L2143.38 1509.3 L2143.38 1517.77 Q2144.39 1517.42 2145.41 1517.26 Q2146.43 1517.07 2147.45 1517.07 Q2153.24 1517.07 2156.62 1520.24 Q2160 1523.42 2160 1528.83 Q2160 1534.41 2156.52 1537.51 Q2153.05 1540.59 2146.73 1540.59 Q2144.56 1540.59 2142.29 1540.22 Q2140.04 1539.85 2137.64 1539.11 L2137.64 1534.41 Q2139.72 1535.54 2141.94 1536.1 Q2144.16 1536.66 2146.64 1536.66 Q2150.64 1536.66 2152.98 1534.55 Q2155.32 1532.44 2155.32 1528.83 Q2155.32 1525.22 2152.98 1523.11 Q2150.64 1521.01 2146.64 1521.01 Q2144.76 1521.01 2142.89 1521.42 Q2141.04 1521.84 2139.09 1522.72 L2139.09 1505.36 Z" fill="#000000" fill-rule="evenodd" fill-opacity="1" /><path clip-path="url(#clip010)" d="M 0 0 M62.9921 1478.44 L75.4689 1478.44 L75.4689 1482.24 L62.9921 1482.24 L62.9921 1478.44 Z" fill="#000000" fill-rule="evenodd" fill-opacity="1" /><path clip-path="url(#clip010)" d="M 0 0 M90.5383 1461.85 Q86.9272 1461.85 85.0985 1465.41 Q83.2929 1468.95 83.2929 1476.08 Q83.2929 1483.19 85.0985 1486.75 Q86.9272 1490.3 90.5383 1490.3 Q94.1725 1490.3 95.9781 1486.75 Q97.8068 1483.19 97.8068 1476.08 Q97.8068 1468.95 95.9781 1465.41 Q94.1725 1461.85 90.5383 1461.85 M90.5383 1458.14 Q96.3484 1458.14 99.404 1462.75 Q102.483 1467.33 102.483 1476.08 Q102.483 1484.81 99.404 1489.42 Q96.3484 1494 90.5383 1494 Q84.7281 1494 81.6494 1489.42 Q78.5939 1484.81 78.5939 1476.08 Q78.5939 1467.33 81.6494 1462.75 Q84.7281 1458.14 90.5383 1458.14 Z" fill="#000000" fill-rule="evenodd" fill-opacity="1" /><path clip-path="url(#clip010)" d="M 0 0 M107.552 1487.45 L112.436 1487.45 L112.436 1493.33 L107.552 1493.33 L107.552 1487.45 Z" fill="#000000" fill-rule="evenodd" fill-opacity="1" /><path clip-path="url(#clip010)" d="M 0 0 M127.506 1461.85 Q123.895 1461.85 122.066 1465.41 Q120.26 1468.95 120.26 1476.08 Q120.26 1483.19 122.066 1486.75 Q123.895 1490.3 127.506 1490.3 Q131.14 1490.3 132.945 1486.75 Q134.774 1483.19 134.774 1476.08 Q134.774 1468.95 132.945 1465.41 Q131.14 1461.85 127.506 1461.85 M127.506 1458.14 Q133.316 1458.14 136.371 1462.75 Q139.45 1467.33 139.45 1476.08 Q139.45 1484.81 136.371 1489.42 Q133.316 1494 127.506 1494 Q121.696 1494 118.617 1489.42 Q115.561 1484.81 115.561 1476.08 Q115.561 1467.33 118.617 1462.75 Q121.696 1458.14 127.506 1458.14 Z" fill="#000000" fill-rule="evenodd" fill-opacity="1" /><path clip-path="url(#clip010)" d="M 0 0 M157.367 1462.84 L145.561 1481.29 L157.367 1481.29 L157.367 1462.84 M156.14 1458.77 L162.019 1458.77 L162.019 1481.29 L166.95 1481.29 L166.95 1485.18 L162.019 1485.18 L162.019 1493.33 L157.367 1493.33 L157.367 1485.18 L141.765 1485.18 L141.765 1480.67 L156.14 1458.77 Z" fill="#000000" fill-rule="evenodd" fill-opacity="1" /><path clip-path="url(#clip010)" d="M 0 0 M65.0754 1133.56 L77.5522 1133.56 L77.5522 1137.36 L65.0754 1137.36 L65.0754 1133.56 Z" fill="#000000" fill-rule="evenodd" fill-opacity="1" /><path clip-path="url(#clip010)" d="M 0 0 M92.6216 1116.96 Q89.0105 1116.96 87.1818 1120.53 Q85.3763 1124.07 85.3763 1131.2 Q85.3763 1138.3 87.1818 1141.87 Q89.0105 1145.41 92.6216 1145.41 Q96.2558 1145.41 98.0614 1141.87 Q99.8901 1138.3 99.8901 1131.2 Q99.8901 1124.07 98.0614 1120.53 Q96.2558 1116.96 92.6216 1116.96 M92.6216 1113.26 Q98.4318 1113.26 101.487 1117.87 Q104.566 1122.45 104.566 1131.2 Q104.566 1139.93 101.487 1144.53 Q98.4318 1149.12 92.6216 1149.12 Q86.8114 1149.12 83.7328 1144.53 Q80.6772 1139.93 80.6772 1131.2 Q80.6772 1122.45 83.7328 1117.87 Q86.8114 1113.26 92.6216 1113.26 Z" fill="#000000" fill-rule="evenodd" fill-opacity="1" /><path clip-path="url(#clip010)" d="M 0 0 M109.635 1142.56 L114.52 1142.56 L114.52 1148.44 L109.635 1148.44 L109.635 1142.56 Z" fill="#000000" fill-rule="evenodd" fill-opacity="1" /><path clip-path="url(#clip010)" d="M 0 0 M129.589 1116.96 Q125.978 1116.96 124.149 1120.53 Q122.344 1124.07 122.344 1131.2 Q122.344 1138.3 124.149 1141.87 Q125.978 1145.41 129.589 1145.41 Q133.223 1145.41 135.029 1141.87 Q136.857 1138.3 136.857 1131.2 Q136.857 1124.07 135.029 1120.53 Q133.223 1116.96 129.589 1116.96 M129.589 1113.26 Q135.399 1113.26 138.455 1117.87 Q141.533 1122.45 141.533 1131.2 Q141.533 1139.93 138.455 1144.53 Q135.399 1149.12 129.589 1149.12 Q123.779 1149.12 120.7 1144.53 Q117.645 1139.93 117.645 1131.2 Q117.645 1122.45 120.7 1117.87 Q123.779 1113.26 129.589 1113.26 Z" fill="#000000" fill-rule="evenodd" fill-opacity="1" /><path clip-path="url(#clip010)" d="M 0 0 M150.631 1144.51 L166.95 1144.51 L166.95 1148.44 L145.006 1148.44 L145.006 1144.51 Q147.668 1141.75 152.251 1137.12 Q156.857 1132.47 158.038 1131.13 Q160.283 1128.61 161.163 1126.87 Q162.066 1125.11 162.066 1123.42 Q162.066 1120.67 160.121 1118.93 Q158.2 1117.19 155.098 1117.19 Q152.899 1117.19 150.445 1117.96 Q148.015 1118.72 145.237 1120.27 L145.237 1115.55 Q148.061 1114.42 150.515 1113.84 Q152.968 1113.26 155.006 1113.26 Q160.376 1113.26 163.57 1115.94 Q166.765 1118.63 166.765 1123.12 Q166.765 1125.25 165.955 1127.17 Q165.168 1129.07 163.061 1131.66 Q162.482 1132.33 159.38 1135.55 Q156.279 1138.74 150.631 1144.51 Z" fill="#000000" fill-rule="evenodd" fill-opacity="1" /><path clip-path="url(#clip010)" d="M 0 0 M91.0244 772.078 Q87.4133 772.078 85.5846 775.643 Q83.7791 779.184 83.7791 786.314 Q83.7791 793.421 85.5846 796.985 Q87.4133 800.527 91.0244 800.527 Q94.6586 800.527 96.4642 796.985 Q98.2929 793.421 98.2929 786.314 Q98.2929 779.184 96.4642 775.643 Q94.6586 772.078 91.0244 772.078 M91.0244 768.374 Q96.8345 768.374 99.8901 772.981 Q102.969 777.564 102.969 786.314 Q102.969 795.041 99.8901 799.647 Q96.8345 804.231 91.0244 804.231 Q85.2142 804.231 82.1355 799.647 Q79.08 795.041 79.08 786.314 Q79.08 777.564 82.1355 772.981 Q85.2142 768.374 91.0244 768.374 Z" fill="#000000" fill-rule="evenodd" fill-opacity="1" /><path clip-path="url(#clip010)" d="M 0 0 M108.038 797.68 L112.922 797.68 L112.922 803.559 L108.038 803.559 L108.038 797.68 Z" fill="#000000" fill-rule="evenodd" fill-opacity="1" /><path clip-path="url(#clip010)" d="M 0 0 M127.992 772.078 Q124.381 772.078 122.552 775.643 Q120.746 779.184 120.746 786.314 Q120.746 793.421 122.552 796.985 Q124.381 800.527 127.992 800.527 Q131.626 800.527 133.432 796.985 Q135.26 793.421 135.26 786.314 Q135.26 779.184 133.432 775.643 Q131.626 772.078 127.992 772.078 M127.992 768.374 Q133.802 768.374 136.857 772.981 Q139.936 777.564 139.936 786.314 Q139.936 795.041 136.857 799.647 Q133.802 804.231 127.992 804.231 Q122.182 804.231 119.103 799.647 Q116.047 795.041 116.047 786.314 Q116.047 777.564 119.103 772.981 Q122.182 768.374 127.992 768.374 Z" fill="#000000" fill-rule="evenodd" fill-opacity="1" /><path clip-path="url(#clip010)" d="M 0 0 M155.006 772.078 Q151.394 772.078 149.566 775.643 Q147.76 779.184 147.76 786.314 Q147.76 793.421 149.566 796.985 Q151.394 800.527 155.006 800.527 Q158.64 800.527 160.445 796.985 Q162.274 793.421 162.274 786.314 Q162.274 779.184 160.445 775.643 Q158.64 772.078 155.006 772.078 M155.006 768.374 Q160.816 768.374 163.871 772.981 Q166.95 777.564 166.95 786.314 Q166.95 795.041 163.871 799.647 Q160.816 804.231 155.006 804.231 Q149.195 804.231 146.117 799.647 Q143.061 795.041 143.061 786.314 Q143.061 777.564 146.117 772.981 Q149.195 768.374 155.006 768.374 Z" fill="#000000" fill-rule="evenodd" fill-opacity="1" /><path clip-path="url(#clip010)" d="M 0 0 M92.6216 427.194 Q89.0105 427.194 87.1818 430.758 Q85.3763 434.3 85.3763 441.43 Q85.3763 448.536 87.1818 452.101 Q89.0105 455.643 92.6216 455.643 Q96.2558 455.643 98.0614 452.101 Q99.8901 448.536 99.8901 441.43 Q99.8901 434.3 98.0614 430.758 Q96.2558 427.194 92.6216 427.194 M92.6216 423.49 Q98.4318 423.49 101.487 428.096 Q104.566 432.68 104.566 441.43 Q104.566 450.157 101.487 454.763 Q98.4318 459.346 92.6216 459.346 Q86.8114 459.346 83.7328 454.763 Q80.6772 450.157 80.6772 441.43 Q80.6772 432.68 83.7328 428.096 Q86.8114 423.49 92.6216 423.49 Z" fill="#000000" fill-rule="evenodd" fill-opacity="1" /><path clip-path="url(#clip010)" d="M 0 0 M109.635 452.795 L114.52 452.795 L114.52 458.675 L109.635 458.675 L109.635 452.795 Z" fill="#000000" fill-rule="evenodd" fill-opacity="1" /><path clip-path="url(#clip010)" d="M 0 0 M129.589 427.194 Q125.978 427.194 124.149 430.758 Q122.344 434.3 122.344 441.43 Q122.344 448.536 124.149 452.101 Q125.978 455.643 129.589 455.643 Q133.223 455.643 135.029 452.101 Q136.857 448.536 136.857 441.43 Q136.857 434.3 135.029 430.758 Q133.223 427.194 129.589 427.194 M129.589 423.49 Q135.399 423.49 138.455 428.096 Q141.533 432.68 141.533 441.43 Q141.533 450.157 138.455 454.763 Q135.399 459.346 129.589 459.346 Q123.779 459.346 120.7 454.763 Q117.645 450.157 117.645 441.43 Q117.645 432.68 120.7 428.096 Q123.779 423.49 129.589 423.49 Z" fill="#000000" fill-rule="evenodd" fill-opacity="1" /><path clip-path="url(#clip010)" d="M 0 0 M150.631 454.74 L166.95 454.74 L166.95 458.675 L145.006 458.675 L145.006 454.74 Q147.668 451.985 152.251 447.356 Q156.857 442.703 158.038 441.36 Q160.283 438.837 161.163 437.101 Q162.066 435.342 162.066 433.652 Q162.066 430.897 160.121 429.161 Q158.2 427.425 155.098 427.425 Q152.899 427.425 150.445 428.189 Q148.015 428.953 145.237 430.504 L145.237 425.782 Q148.061 424.647 150.515 424.069 Q152.968 423.49 155.006 423.49 Q160.376 423.49 163.57 426.175 Q166.765 428.86 166.765 433.351 Q166.765 435.481 165.955 437.402 Q165.168 439.3 163.061 441.893 Q162.482 442.564 159.38 445.782 Q156.279 448.976 150.631 454.74 Z" fill="#000000" fill-rule="evenodd" fill-opacity="1" /><path clip-path="url(#clip010)" d="M 0 0 M90.5383 82.3093 Q86.9272 82.3093 85.0985 85.8741 Q83.2929 89.4158 83.2929 96.5454 Q83.2929 103.652 85.0985 107.217 Q86.9272 110.758 90.5383 110.758 Q94.1725 110.758 95.9781 107.217 Q97.8068 103.652 97.8068 96.5454 Q97.8068 89.4158 95.9781 85.8741 Q94.1725 82.3093 90.5383 82.3093 M90.5383 78.6057 Q96.3484 78.6057 99.404 83.2121 Q102.483 87.7954 102.483 96.5454 Q102.483 105.272 99.404 109.879 Q96.3484 114.462 90.5383 114.462 Q84.7281 114.462 81.6494 109.879 Q78.5939 105.272 78.5939 96.5454 Q78.5939 87.7954 81.6494 83.2121 Q84.7281 78.6057 90.5383 78.6057 Z" fill="#000000" fill-rule="evenodd" fill-opacity="1" /><path clip-path="url(#clip010)" d="M 0 0 M107.552 107.911 L112.436 107.911 L112.436 113.791 L107.552 113.791 L107.552 107.911 Z" fill="#000000" fill-rule="evenodd" fill-opacity="1" /><path clip-path="url(#clip010)" d="M 0 0 M127.506 82.3093 Q123.895 82.3093 122.066 85.8741 Q120.26 89.4158 120.26 96.5454 Q120.26 103.652 122.066 107.217 Q123.895 110.758 127.506 110.758 Q131.14 110.758 132.945 107.217 Q134.774 103.652 134.774 96.5454 Q134.774 89.4158 132.945 85.8741 Q131.14 82.3093 127.506 82.3093 M127.506 78.6057 Q133.316 78.6057 136.371 83.2121 Q139.45 87.7954 139.45 96.5454 Q139.45 105.272 136.371 109.879 Q133.316 114.462 127.506 114.462 Q121.696 114.462 118.617 109.879 Q115.561 105.272 115.561 96.5454 Q115.561 87.7954 118.617 83.2121 Q121.696 78.6057 127.506 78.6057 Z" fill="#000000" fill-rule="evenodd" fill-opacity="1" /><path clip-path="url(#clip010)" d="M 0 0 M157.367 83.3047 L145.561 101.754 L157.367 101.754 L157.367 83.3047 M156.14 79.2307 L162.019 79.2307 L162.019 101.754 L166.95 101.754 L166.95 105.643 L162.019 105.643 L162.019 113.791 L157.367 113.791 L157.367 105.643 L141.765 105.643 L141.765 101.129 L156.14 79.2307 Z" fill="#000000" fill-rule="evenodd" fill-opacity="1" /><circle clip-path="url(#clip012)" cx="2291.57" cy="730.454" r="14" fill="#009af9" fill-rule="evenodd" fill-opacity="1" stroke="#000000" stroke-opacity="1" stroke-width="3.2"/>
<circle clip-path="url(#clip012)" cx="1015.89" cy="564.05" r="14" fill="#009af9" fill-rule="evenodd" fill-opacity="1" stroke="#000000" stroke-opacity="1" stroke-width="3.2"/>
<circle clip-path="url(#clip012)" cx="1795.44" cy="756.493" r="14" fill="#009af9" fill-rule="evenodd" fill-opacity="1" stroke="#000000" stroke-opacity="1" stroke-width="3.2"/>
<circle clip-path="url(#clip012)" cx="1309.64" cy="1228.94" r="14" fill="#009af9" fill-rule="evenodd" fill-opacity="1" stroke="#000000" stroke-opacity="1" stroke-width="3.2"/>
<circle clip-path="url(#clip012)" cx="735.173" cy="1214.67" r="14" fill="#009af9" fill-rule="evenodd" fill-opacity="1" stroke="#000000" stroke-opacity="1" stroke-width="3.2"/>
<circle clip-path="url(#clip012)" cx="656.801" cy="752.676" r="14" fill="#009af9" fill-rule="evenodd" fill-opacity="1" stroke="#000000" stroke-opacity="1" stroke-width="3.2"/>
<circle clip-path="url(#clip012)" cx="1931.99" cy="297.142" r="14" fill="#009af9" fill-rule="evenodd" fill-opacity="1" stroke="#000000" stroke-opacity="1" stroke-width="3.2"/>
<circle clip-path="url(#clip012)" cx="396.962" cy="776.732" r="14" fill="#009af9" fill-rule="evenodd" fill-opacity="1" stroke="#000000" stroke-opacity="1" stroke-width="3.2"/>
<circle clip-path="url(#clip012)" cx="2210.6" cy="416.42" r="14" fill="#009af9" fill-rule="evenodd" fill-opacity="1" stroke="#000000" stroke-opacity="1" stroke-width="3.2"/>
<circle clip-path="url(#clip012)" cx="580.058" cy="1402.43" r="14" fill="#009af9" fill-rule="evenodd" fill-opacity="1" stroke="#000000" stroke-opacity="1" stroke-width="3.2"/>
<circle clip-path="url(#clip012)" cx="727.583" cy="487.271" r="14" fill="#009af9" fill-rule="evenodd" fill-opacity="1" stroke="#000000" stroke-opacity="1" stroke-width="3.2"/>
<circle clip-path="url(#clip012)" cx="2231.02" cy="87.9763" r="14" fill="#009af9" fill-rule="evenodd" fill-opacity="1" stroke="#000000" stroke-opacity="1" stroke-width="3.2"/>
<circle clip-path="url(#clip012)" cx="1000.54" cy="742.369" r="14" fill="#009af9" fill-rule="evenodd" fill-opacity="1" stroke="#000000" stroke-opacity="1" stroke-width="3.2"/>
<circle clip-path="url(#clip012)" cx="512.772" cy="1445.72" r="14" fill="#009af9" fill-rule="evenodd" fill-opacity="1" stroke="#000000" stroke-opacity="1" stroke-width="3.2"/>
<circle clip-path="url(#clip012)" cx="252.133" cy="1019.24" r="14" fill="#009af9" fill-rule="evenodd" fill-opacity="1" stroke="#000000" stroke-opacity="1" stroke-width="3.2"/>
<circle clip-path="url(#clip012)" cx="1843.59" cy="243.349" r="14" fill="#009af9" fill-rule="evenodd" fill-opacity="1" stroke="#000000" stroke-opacity="1" stroke-width="3.2"/>
<circle clip-path="url(#clip012)" cx="1591.38" cy="645.36" r="14" fill="#009af9" fill-rule="evenodd" fill-opacity="1" stroke="#000000" stroke-opacity="1" stroke-width="3.2"/>
<circle clip-path="url(#clip012)" cx="1696.96" cy="716.493" r="14" fill="#009af9" fill-rule="evenodd" fill-opacity="1" stroke="#000000" stroke-opacity="1" stroke-width="3.2"/>
<circle clip-path="url(#clip012)" cx="597.069" cy="702.256" r="14" fill="#009af9" fill-rule="evenodd" fill-opacity="1" stroke="#000000" stroke-opacity="1" stroke-width="3.2"/>
<circle clip-path="url(#clip012)" cx="872.402" cy="795.726" r="14" fill="#009af9" fill-rule="evenodd" fill-opacity="1" stroke="#000000" stroke-opacity="1" stroke-width="3.2"/>
<path clip-path="url(#clip010)" d="
M1989.48 216.178 L2280.7 216.178 L2280.7 95.2176 L1989.48 95.2176  Z
  " fill="#ffffff" fill-rule="evenodd" fill-opacity="1"/>
<polyline clip-path="url(#clip010)" style="stroke:#000000; stroke-width:4; stroke-opacity:1; fill:none" points="
  1989.48,216.178 2280.7,216.178 2280.7,95.2176 1989.48,95.2176 1989.48,216.178 
  "/>
<circle clip-path="url(#clip010)" cx="2085.56" cy="155.698" r="23" fill="#009af9" fill-rule="evenodd" fill-opacity="1" stroke="#000000" stroke-opacity="1" stroke-width="5.12"/>
<circle clip-path="url(#clip010)" cx="2085.56" cy="155.698" r="23" fill="#009af9" fill-rule="evenodd" fill-opacity="1" stroke="#000000" stroke-opacity="1" stroke-width="5.12"/>
<circle clip-path="url(#clip010)" cx="2085.56" cy="155.698" r="23" fill="#009af9" fill-rule="evenodd" fill-opacity="1" stroke="#000000" stroke-opacity="1" stroke-width="5.12"/>
<circle clip-path="url(#clip010)" cx="2085.56" cy="155.698" r="23" fill="#009af9" fill-rule="evenodd" fill-opacity="1" stroke="#000000" stroke-opacity="1" stroke-width="5.12"/>
<circle clip-path="url(#clip010)" cx="2085.56" cy="155.698" r="23" fill="#009af9" fill-rule="evenodd" fill-opacity="1" stroke="#000000" stroke-opacity="1" stroke-width="5.12"/>
<circle clip-path="url(#clip010)" cx="2085.56" cy="155.698" r="23" fill="#009af9" fill-rule="evenodd" fill-opacity="1" stroke="#000000" stroke-opacity="1" stroke-width="5.12"/>
<circle clip-path="url(#clip010)" cx="2085.56" cy="155.698" r="23" fill="#009af9" fill-rule="evenodd" fill-opacity="1" stroke="#000000" stroke-opacity="1" stroke-width="5.12"/>
<circle clip-path="url(#clip010)" cx="2085.56" cy="155.698" r="23" fill="#009af9" fill-rule="evenodd" fill-opacity="1" stroke="#000000" stroke-opacity="1" stroke-width="5.12"/>
<circle clip-path="url(#clip010)" cx="2085.56" cy="155.698" r="23" fill="#009af9" fill-rule="evenodd" fill-opacity="1" stroke="#000000" stroke-opacity="1" stroke-width="5.12"/>
<circle clip-path="url(#clip010)" cx="2085.56" cy="155.698" r="23" fill="#009af9" fill-rule="evenodd" fill-opacity="1" stroke="#000000" stroke-opacity="1" stroke-width="5.12"/>
<circle clip-path="url(#clip010)" cx="2085.56" cy="155.698" r="23" fill="#009af9" fill-rule="evenodd" fill-opacity="1" stroke="#000000" stroke-opacity="1" stroke-width="5.12"/>
<circle clip-path="url(#clip010)" cx="2085.56" cy="155.698" r="23" fill="#009af9" fill-rule="evenodd" fill-opacity="1" stroke="#000000" stroke-opacity="1" stroke-width="5.12"/>
<circle clip-path="url(#clip010)" cx="2085.56" cy="155.698" r="23" fill="#009af9" fill-rule="evenodd" fill-opacity="1" stroke="#000000" stroke-opacity="1" stroke-width="5.12"/>
<circle clip-path="url(#clip010)" cx="2085.56" cy="155.698" r="23" fill="#009af9" fill-rule="evenodd" fill-opacity="1" stroke="#000000" stroke-opacity="1" stroke-width="5.12"/>
<circle clip-path="url(#clip010)" cx="2085.56" cy="155.698" r="23" fill="#009af9" fill-rule="evenodd" fill-opacity="1" stroke="#000000" stroke-opacity="1" stroke-width="5.12"/>
<circle clip-path="url(#clip010)" cx="2085.56" cy="155.698" r="23" fill="#009af9" fill-rule="evenodd" fill-opacity="1" stroke="#000000" stroke-opacity="1" stroke-width="5.12"/>
<circle clip-path="url(#clip010)" cx="2085.56" cy="155.698" r="23" fill="#009af9" fill-rule="evenodd" fill-opacity="1" stroke="#000000" stroke-opacity="1" stroke-width="5.12"/>
<circle clip-path="url(#clip010)" cx="2085.56" cy="155.698" r="23" fill="#009af9" fill-rule="evenodd" fill-opacity="1" stroke="#000000" stroke-opacity="1" stroke-width="5.12"/>
<circle clip-path="url(#clip010)" cx="2085.56" cy="155.698" r="23" fill="#009af9" fill-rule="evenodd" fill-opacity="1" stroke="#000000" stroke-opacity="1" stroke-width="5.12"/>
<circle clip-path="url(#clip010)" cx="2085.56" cy="155.698" r="23" fill="#009af9" fill-rule="evenodd" fill-opacity="1" stroke="#000000" stroke-opacity="1" stroke-width="5.12"/>
<path clip-path="url(#clip010)" d="M 0 0 M2195.48 175.385 Q2193.67 180.015 2191.96 181.427 Q2190.25 182.839 2187.38 182.839 L2183.98 182.839 L2183.98 179.274 L2186.48 179.274 Q2188.23 179.274 2189.21 178.44 Q2190.18 177.607 2191.36 174.505 L2192.12 172.561 L2181.64 147.052 L2186.15 147.052 L2194.25 167.329 L2202.35 147.052 L2206.87 147.052 L2195.48 175.385 Z" fill="#000000" fill-rule="evenodd" fill-opacity="1" /><path clip-path="url(#clip010)" d="M 0 0 M2212.75 169.042 L2220.39 169.042 L2220.39 142.677 L2212.08 144.343 L2212.08 140.084 L2220.34 138.418 L2225.02 138.418 L2225.02 169.042 L2232.66 169.042 L2232.66 172.978 L2212.75 172.978 L2212.75 169.042 Z" fill="#000000" fill-rule="evenodd" fill-opacity="1" /></svg>
