<?xml version="1.0" encoding="utf-8"?>
<svg xmlns="http://www.w3.org/2000/svg" xmlns:xlink="http://www.w3.org/1999/xlink" width="600" height="400" viewBox="0 0 2400 1600">
<defs>
  <clipPath id="clip210">
    <rect x="0" y="0" width="2400" height="1600"/>
  </clipPath>
</defs>
<path clip-path="url(#clip210)" d="
M0 1600 L2400 1600 L2400 0 L0 0  Z
  " fill="#ffffff" fill-rule="evenodd" fill-opacity="1"/>
<defs>
  <clipPath id="clip211">
    <rect x="480" y="0" width="1681" height="1600"/>
  </clipPath>
</defs>
<path clip-path="url(#clip210)" d="
M86.9921 1521.01 L2352.76 1521.01 L2352.76 47.2441 L86.9921 47.2441  Z
  " fill="#ffffff" fill-rule="evenodd" fill-opacity="1"/>
<defs>
  <clipPath id="clip212">
    <rect x="86" y="47" width="2267" height="1475"/>
  </clipPath>
</defs>
<polyline clip-path="url(#clip212)" style="stroke:#000000; stroke-width:2; stroke-opacity:0.1; fill:none" points="
  422.701,1521.01 422.701,47.2441 
  "/>
<polyline clip-path="url(#clip212)" style="stroke:#000000; stroke-width:2; stroke-opacity:0.1; fill:none" points="
  790.098,1521.01 790.098,47.2441 
  "/>
<polyline clip-path="url(#clip212)" style="stroke:#000000; stroke-width:2; stroke-opacity:0.1; fill:none" points="
  1157.5,1521.01 1157.5,47.2441 
  "/>
<polyline clip-path="url(#clip212)" style="stroke:#000000; stroke-width:2; stroke-opacity:0.1; fill:none" points="
  1524.89,1521.01 1524.89,47.2441 
  "/>
<polyline clip-path="url(#clip212)" style="stroke:#000000; stroke-width:2; stroke-opacity:0.1; fill:none" points="
  1892.29,1521.01 1892.29,47.2441 
  "/>
<polyline clip-path="url(#clip212)" style="stroke:#000000; stroke-width:2; stroke-opacity:0.1; fill:none" points="
  2259.69,1521.01 2259.69,47.2441 
  "/>
<polyline clip-path="url(#clip212)" style="stroke:#000000; stroke-width:2; stroke-opacity:0.1; fill:none" points="
  86.9921,1479.3 2352.76,1479.3 
  "/>
<polyline clip-path="url(#clip212)" style="stroke:#000000; stroke-width:2; stroke-opacity:0.1; fill:none" points="
  86.9921,1245.26 2352.76,1245.26 
  "/>
<polyline clip-path="url(#clip212)" style="stroke:#000000; stroke-width:2; stroke-opacity:0.1; fill:none" points="
  86.9921,1011.22 2352.76,1011.22 
  "/>
<polyline clip-path="url(#clip212)" style="stroke:#000000; stroke-width:2; stroke-opacity:0.1; fill:none" points="
  86.9921,777.178 2352.76,777.178 
  "/>
<polyline clip-path="url(#clip212)" style="stroke:#000000; stroke-width:2; stroke-opacity:0.1; fill:none" points="
  86.9921,543.139 2352.76,543.139 
  "/>
<polyline clip-path="url(#clip212)" style="stroke:#000000; stroke-width:2; stroke-opacity:0.1; fill:none" points="
  86.9921,309.099 2352.76,309.099 
  "/>
<polyline clip-path="url(#clip212)" style="stroke:#000000; stroke-width:2; stroke-opacity:0.1; fill:none" points="
  86.9921,75.0592 2352.76,75.0592 
  "/>
<polyline clip-path="url(#clip210)" style="stroke:#000000; stroke-width:4; stroke-opacity:1; fill:none" points="
  86.9921,1521.01 2352.76,1521.01 
  "/>
<polyline clip-path="url(#clip210)" style="stroke:#000000; stroke-width:4; stroke-opacity:1; fill:none" points="
  86.9921,1521.01 86.9921,47.2441 
  "/>
<polyline clip-path="url(#clip210)" style="stroke:#000000; stroke-width:4; stroke-opacity:1; fill:none" points="
  422.701,1521.01 422.701,1503.32 
  "/>
<polyline clip-path="url(#clip210)" style="stroke:#000000; stroke-width:4; stroke-opacity:1; fill:none" points="
  790.098,1521.01 790.098,1503.32 
  "/>
<polyline clip-path="url(#clip210)" style="stroke:#000000; stroke-width:4; stroke-opacity:1; fill:none" points="
  1157.5,1521.01 1157.5,1503.32 
  "/>
<polyline clip-path="url(#clip210)" style="stroke:#000000; stroke-width:4; stroke-opacity:1; fill:none" points="
  1524.89,1521.01 1524.89,1503.32 
  "/>
<polyline clip-path="url(#clip210)" style="stroke:#000000; stroke-width:4; stroke-opacity:1; fill:none" points="
  1892.29,1521.01 1892.29,1503.32 
  "/>
<polyline clip-path="url(#clip210)" style="stroke:#000000; stroke-width:4; stroke-opacity:1; fill:none" points="
  2259.69,1521.01 2259.69,1503.32 
  "/>
<polyline clip-path="url(#clip210)" style="stroke:#000000; stroke-width:4; stroke-opacity:1; fill:none" points="
  86.9921,1479.3 114.181,1479.3 
  "/>
<polyline clip-path="url(#clip210)" style="stroke:#000000; stroke-width:4; stroke-opacity:1; fill:none" points="
  86.9921,1245.26 114.181,1245.26 
  "/>
<polyline clip-path="url(#clip210)" style="stroke:#000000; stroke-width:4; stroke-opacity:1; fill:none" points="
  86.9921,1011.22 114.181,1011.22 
  "/>
<polyline clip-path="url(#clip210)" style="stroke:#000000; stroke-width:4; stroke-opacity:1; fill:none" points="
  86.9921,777.178 114.181,777.178 
  "/>
<polyline clip-path="url(#clip210)" style="stroke:#000000; stroke-width:4; stroke-opacity:1; fill:none" points="
  86.9921,543.139 114.181,543.139 
  "/>
<polyline clip-path="url(#clip210)" style="stroke:#000000; stroke-width:4; stroke-opacity:1; fill:none" points="
  86.9921,309.099 114.181,309.099 
  "/>
<polyline clip-path="url(#clip210)" style="stroke:#000000; stroke-width:4; stroke-opacity:1; fill:none" points="
  86.9921,75.0592 114.181,75.0592 
  "/>
<path clip-path="url(#clip210)" d="M 0 0 M344.773 1559.6 L357.25 1559.6 L357.25 1563.39 L344.773 1563.39 L344.773 1559.6 Z" fill="#000000" fill-rule="evenodd" fill-opacity="1" /><path clip-path="url(#clip210)" d="M 0 0 M372.319 1543 Q368.708 1543 366.879 1546.56 Q365.074 1550.11 365.074 1557.23 Q365.074 1564.34 366.879 1567.91 Q368.708 1571.45 372.319 1571.45 Q375.953 1571.45 377.759 1567.91 Q379.588 1564.34 379.588 1557.23 Q379.588 1550.11 377.759 1546.56 Q375.953 1543 372.319 1543 M372.319 1539.29 Q378.129 1539.29 381.185 1543.9 Q384.264 1548.48 384.264 1557.23 Q384.264 1565.96 381.185 1570.57 Q378.129 1575.15 372.319 1575.15 Q366.509 1575.15 363.43 1570.57 Q360.375 1565.96 360.375 1557.23 Q360.375 1548.48 363.43 1543.9 Q366.509 1539.29 372.319 1539.29 Z" fill="#000000" fill-rule="evenodd" fill-opacity="1" /><path clip-path="url(#clip210)" d="M 0 0 M389.333 1568.6 L394.217 1568.6 L394.217 1574.48 L389.333 1574.48 L389.333 1568.6 Z" fill="#000000" fill-rule="evenodd" fill-opacity="1" /><path clip-path="url(#clip210)" d="M 0 0 M398.106 1539.92 L420.328 1539.92 L420.328 1541.91 L407.782 1574.48 L402.898 1574.48 L414.703 1543.86 L398.106 1543.86 L398.106 1539.92 Z" fill="#000000" fill-rule="evenodd" fill-opacity="1" /><path clip-path="url(#clip210)" d="M 0 0 M426.208 1570.54 L433.847 1570.54 L433.847 1544.18 L425.537 1545.85 L425.537 1541.59 L433.8 1539.92 L438.476 1539.92 L438.476 1570.54 L446.115 1570.54 L446.115 1574.48 L426.208 1574.48 L426.208 1570.54 Z" fill="#000000" fill-rule="evenodd" fill-opacity="1" /><path clip-path="url(#clip210)" d="M 0 0 M464.032 1543.99 L452.226 1562.44 L464.032 1562.44 L464.032 1543.99 M462.805 1539.92 L468.684 1539.92 L468.684 1562.44 L473.615 1562.44 L473.615 1566.33 L468.684 1566.33 L468.684 1574.48 L464.032 1574.48 L464.032 1566.33 L448.43 1566.33 L448.43 1561.82 L462.805 1539.92 Z" fill="#000000" fill-rule="evenodd" fill-opacity="1" /><path clip-path="url(#clip210)" d="M 0 0 M488.684 1543 Q485.073 1543 483.245 1546.56 Q481.439 1550.11 481.439 1557.23 Q481.439 1564.34 483.245 1567.91 Q485.073 1571.45 488.684 1571.45 Q492.319 1571.45 494.124 1567.91 Q495.953 1564.34 495.953 1557.23 Q495.953 1550.11 494.124 1546.56 Q492.319 1543 488.684 1543 M488.684 1539.29 Q494.495 1539.29 497.55 1543.9 Q500.629 1548.48 500.629 1557.23 Q500.629 1565.96 497.55 1570.57 Q494.495 1575.15 488.684 1575.15 Q482.874 1575.15 479.796 1570.57 Q476.74 1565.96 476.74 1557.23 Q476.74 1548.48 479.796 1543.9 Q482.874 1539.29 488.684 1539.29 Z" fill="#000000" fill-rule="evenodd" fill-opacity="1" /><path clip-path="url(#clip210)" d="M 0 0 M713.235 1559.6 L725.712 1559.6 L725.712 1563.39 L713.235 1563.39 L713.235 1559.6 Z" fill="#000000" fill-rule="evenodd" fill-opacity="1" /><path clip-path="url(#clip210)" d="M 0 0 M740.781 1543 Q737.17 1543 735.341 1546.56 Q733.536 1550.11 733.536 1557.23 Q733.536 1564.34 735.341 1567.91 Q737.17 1571.45 740.781 1571.45 Q744.415 1571.45 746.221 1567.91 Q748.05 1564.34 748.05 1557.23 Q748.05 1550.11 746.221 1546.56 Q744.415 1543 740.781 1543 M740.781 1539.29 Q746.591 1539.29 749.647 1543.9 Q752.726 1548.48 752.726 1557.23 Q752.726 1565.96 749.647 1570.57 Q746.591 1575.15 740.781 1575.15 Q734.971 1575.15 731.892 1570.57 Q728.837 1565.96 728.837 1557.23 Q728.837 1548.48 731.892 1543.9 Q734.971 1539.29 740.781 1539.29 Z" fill="#000000" fill-rule="evenodd" fill-opacity="1" /><path clip-path="url(#clip210)" d="M 0 0 M757.795 1568.6 L762.679 1568.6 L762.679 1574.48 L757.795 1574.48 L757.795 1568.6 Z" fill="#000000" fill-rule="evenodd" fill-opacity="1" /><path clip-path="url(#clip210)" d="M 0 0 M766.568 1539.92 L788.79 1539.92 L788.79 1541.91 L776.244 1574.48 L771.36 1574.48 L783.165 1543.86 L766.568 1543.86 L766.568 1539.92 Z" fill="#000000" fill-rule="evenodd" fill-opacity="1" /><path clip-path="url(#clip210)" d="M 0 0 M794.67 1570.54 L802.309 1570.54 L802.309 1544.18 L793.998 1545.85 L793.998 1541.59 L802.262 1539.92 L806.938 1539.92 L806.938 1570.54 L814.577 1570.54 L814.577 1574.48 L794.67 1574.48 L794.67 1570.54 Z" fill="#000000" fill-rule="evenodd" fill-opacity="1" /><path clip-path="url(#clip210)" d="M 0 0 M833.813 1555.85 Q837.169 1556.56 839.044 1558.83 Q840.943 1561.1 840.943 1564.43 Q840.943 1569.55 837.424 1572.35 Q833.906 1575.15 827.424 1575.15 Q825.248 1575.15 822.933 1574.71 Q820.642 1574.29 818.188 1573.44 L818.188 1568.92 Q820.133 1570.06 822.447 1570.64 Q824.762 1571.22 827.285 1571.22 Q831.683 1571.22 833.975 1569.48 Q836.29 1567.74 836.29 1564.43 Q836.29 1561.38 834.137 1559.67 Q832.007 1557.93 828.188 1557.93 L824.16 1557.93 L824.16 1554.09 L828.373 1554.09 Q831.822 1554.09 833.651 1552.72 Q835.48 1551.33 835.48 1548.74 Q835.48 1546.08 833.582 1544.67 Q831.707 1543.23 828.188 1543.23 Q826.267 1543.23 824.068 1543.65 Q821.869 1544.06 819.23 1544.94 L819.23 1540.78 Q821.892 1540.04 824.207 1539.67 Q826.545 1539.29 828.605 1539.29 Q833.929 1539.29 837.031 1541.73 Q840.132 1544.13 840.132 1548.25 Q840.132 1551.12 838.489 1553.11 Q836.845 1555.08 833.813 1555.85 Z" fill="#000000" fill-rule="evenodd" fill-opacity="1" /><path clip-path="url(#clip210)" d="M 0 0 M846.058 1539.92 L864.415 1539.92 L864.415 1543.86 L850.341 1543.86 L850.341 1552.33 Q851.359 1551.98 852.378 1551.82 Q853.396 1551.63 854.415 1551.63 Q860.202 1551.63 863.581 1554.8 Q866.961 1557.98 866.961 1563.39 Q866.961 1568.97 863.489 1572.07 Q860.017 1575.15 853.697 1575.15 Q851.521 1575.15 849.253 1574.78 Q847.007 1574.41 844.6 1573.67 L844.6 1568.97 Q846.683 1570.1 848.906 1570.66 Q851.128 1571.22 853.605 1571.22 Q857.609 1571.22 859.947 1569.11 Q862.285 1567 862.285 1563.39 Q862.285 1559.78 859.947 1557.67 Q857.609 1555.57 853.605 1555.57 Q851.73 1555.57 849.855 1555.98 Q848.003 1556.4 846.058 1557.28 L846.058 1539.92 Z" fill="#000000" fill-rule="evenodd" fill-opacity="1" /><path clip-path="url(#clip210)" d="M 0 0 M1080.13 1559.6 L1092.61 1559.6 L1092.61 1563.39 L1080.13 1563.39 L1080.13 1559.6 Z" fill="#000000" fill-rule="evenodd" fill-opacity="1" /><path clip-path="url(#clip210)" d="M 0 0 M1107.68 1543 Q1104.07 1543 1102.24 1546.56 Q1100.44 1550.11 1100.44 1557.23 Q1100.44 1564.34 1102.24 1567.91 Q1104.07 1571.45 1107.68 1571.45 Q1111.31 1571.45 1113.12 1567.91 Q1114.95 1564.34 1114.95 1557.23 Q1114.95 1550.11 1113.12 1546.56 Q1111.31 1543 1107.68 1543 M1107.68 1539.29 Q1113.49 1539.29 1116.55 1543.9 Q1119.62 1548.48 1119.62 1557.23 Q1119.62 1565.96 1116.55 1570.57 Q1113.49 1575.15 1107.68 1575.15 Q1101.87 1575.15 1098.79 1570.57 Q1095.74 1565.96 1095.74 1557.23 Q1095.74 1548.48 1098.79 1543.9 Q1101.87 1539.29 1107.68 1539.29 Z" fill="#000000" fill-rule="evenodd" fill-opacity="1" /><path clip-path="url(#clip210)" d="M 0 0 M1124.69 1568.6 L1129.58 1568.6 L1129.58 1574.48 L1124.69 1574.48 L1124.69 1568.6 Z" fill="#000000" fill-rule="evenodd" fill-opacity="1" /><path clip-path="url(#clip210)" d="M 0 0 M1133.47 1539.92 L1155.69 1539.92 L1155.69 1541.91 L1143.14 1574.48 L1138.26 1574.48 L1150.06 1543.86 L1133.47 1543.86 L1133.47 1539.92 Z" fill="#000000" fill-rule="evenodd" fill-opacity="1" /><path clip-path="url(#clip210)" d="M 0 0 M1161.57 1570.54 L1169.21 1570.54 L1169.21 1544.18 L1160.9 1545.85 L1160.9 1541.59 L1169.16 1539.92 L1173.84 1539.92 L1173.84 1570.54 L1181.48 1570.54 L1181.48 1574.48 L1161.57 1574.48 L1161.57 1570.54 Z" fill="#000000" fill-rule="evenodd" fill-opacity="1" /><path clip-path="url(#clip210)" d="M 0 0 M1200.71 1555.85 Q1204.07 1556.56 1205.94 1558.83 Q1207.84 1561.1 1207.84 1564.43 Q1207.84 1569.55 1204.32 1572.35 Q1200.8 1575.15 1194.32 1575.15 Q1192.15 1575.15 1189.83 1574.71 Q1187.54 1574.29 1185.09 1573.44 L1185.09 1568.92 Q1187.03 1570.06 1189.35 1570.64 Q1191.66 1571.22 1194.18 1571.22 Q1198.58 1571.22 1200.87 1569.48 Q1203.19 1567.74 1203.19 1564.43 Q1203.19 1561.38 1201.04 1559.67 Q1198.91 1557.93 1195.09 1557.93 L1191.06 1557.93 L1191.06 1554.09 L1195.27 1554.09 Q1198.72 1554.09 1200.55 1552.72 Q1202.38 1551.33 1202.38 1548.74 Q1202.38 1546.08 1200.48 1544.67 Q1198.61 1543.23 1195.09 1543.23 Q1193.17 1543.23 1190.97 1543.65 Q1188.77 1544.06 1186.13 1544.94 L1186.13 1540.78 Q1188.79 1540.04 1191.11 1539.67 Q1193.44 1539.29 1195.5 1539.29 Q1200.83 1539.29 1203.93 1541.73 Q1207.03 1544.13 1207.03 1548.25 Q1207.03 1551.12 1205.39 1553.11 Q1203.74 1555.08 1200.71 1555.85 Z" fill="#000000" fill-rule="evenodd" fill-opacity="1" /><path clip-path="url(#clip210)" d="M 0 0 M1222.91 1543 Q1219.3 1543 1217.47 1546.56 Q1215.67 1550.11 1215.67 1557.23 Q1215.67 1564.34 1217.47 1567.91 Q1219.3 1571.45 1222.91 1571.45 Q1226.55 1571.45 1228.35 1567.91 Q1230.18 1564.34 1230.18 1557.23 Q1230.18 1550.11 1228.35 1546.56 Q1226.55 1543 1222.91 1543 M1222.91 1539.29 Q1228.72 1539.29 1231.78 1543.9 Q1234.86 1548.48 1234.86 1557.23 Q1234.86 1565.96 1231.78 1570.57 Q1228.72 1575.15 1222.91 1575.15 Q1217.1 1575.15 1214.02 1570.57 Q1210.97 1565.96 1210.97 1557.23 Q1210.97 1548.48 1214.02 1543.9 Q1217.1 1539.29 1222.91 1539.29 Z" fill="#000000" fill-rule="evenodd" fill-opacity="1" /><path clip-path="url(#clip210)" d="M 0 0 M1448.5 1559.6 L1460.98 1559.6 L1460.98 1563.39 L1448.5 1563.39 L1448.5 1559.6 Z" fill="#000000" fill-rule="evenodd" fill-opacity="1" /><path clip-path="url(#clip210)" d="M 0 0 M1476.05 1543 Q1472.44 1543 1470.61 1546.56 Q1468.8 1550.11 1468.8 1557.23 Q1468.8 1564.34 1470.61 1567.91 Q1472.44 1571.45 1476.05 1571.45 Q1479.68 1571.45 1481.49 1567.91 Q1483.32 1564.34 1483.32 1557.23 Q1483.32 1550.11 1481.49 1546.56 Q1479.68 1543 1476.05 1543 M1476.05 1539.29 Q1481.86 1539.29 1484.92 1543.9 Q1487.99 1548.48 1487.99 1557.23 Q1487.99 1565.96 1484.92 1570.57 Q1481.86 1575.15 1476.05 1575.15 Q1470.24 1575.15 1467.16 1570.57 Q1464.11 1565.96 1464.11 1557.23 Q1464.11 1548.48 1467.16 1543.9 Q1470.24 1539.29 1476.05 1539.29 Z" fill="#000000" fill-rule="evenodd" fill-opacity="1" /><path clip-path="url(#clip210)" d="M 0 0 M1493.06 1568.6 L1497.95 1568.6 L1497.95 1574.48 L1493.06 1574.48 L1493.06 1568.6 Z" fill="#000000" fill-rule="evenodd" fill-opacity="1" /><path clip-path="url(#clip210)" d="M 0 0 M1501.84 1539.92 L1524.06 1539.92 L1524.06 1541.91 L1511.51 1574.48 L1506.63 1574.48 L1518.43 1543.86 L1501.84 1543.86 L1501.84 1539.92 Z" fill="#000000" fill-rule="evenodd" fill-opacity="1" /><path clip-path="url(#clip210)" d="M 0 0 M1529.94 1570.54 L1537.58 1570.54 L1537.58 1544.18 L1529.27 1545.85 L1529.27 1541.59 L1537.53 1539.92 L1542.21 1539.92 L1542.21 1570.54 L1549.85 1570.54 L1549.85 1574.48 L1529.94 1574.48 L1529.94 1570.54 Z" fill="#000000" fill-rule="evenodd" fill-opacity="1" /><path clip-path="url(#clip210)" d="M 0 0 M1558.94 1570.54 L1575.26 1570.54 L1575.26 1574.48 L1553.32 1574.48 L1553.32 1570.54 Q1555.98 1567.79 1560.56 1563.16 Q1565.17 1558.51 1566.35 1557.17 Q1568.6 1554.64 1569.48 1552.91 Q1570.38 1551.15 1570.38 1549.46 Q1570.38 1546.7 1568.43 1544.97 Q1566.51 1543.23 1563.41 1543.23 Q1561.21 1543.23 1558.76 1543.99 Q1556.33 1544.76 1553.55 1546.31 L1553.55 1541.59 Q1556.37 1540.45 1558.83 1539.87 Q1561.28 1539.29 1563.32 1539.29 Q1568.69 1539.29 1571.88 1541.98 Q1575.08 1544.67 1575.08 1549.16 Q1575.08 1551.29 1574.27 1553.21 Q1573.48 1555.1 1571.37 1557.7 Q1570.79 1558.37 1567.69 1561.59 Q1564.59 1564.78 1558.94 1570.54 Z" fill="#000000" fill-rule="evenodd" fill-opacity="1" /><path clip-path="url(#clip210)" d="M 0 0 M1580.38 1539.92 L1598.73 1539.92 L1598.73 1543.86 L1584.66 1543.86 L1584.66 1552.33 Q1585.68 1551.98 1586.7 1551.82 Q1587.72 1551.63 1588.73 1551.63 Q1594.52 1551.63 1597.9 1554.8 Q1601.28 1557.98 1601.28 1563.39 Q1601.28 1568.97 1597.81 1572.07 Q1594.34 1575.15 1588.02 1575.15 Q1585.84 1575.15 1583.57 1574.78 Q1581.33 1574.41 1578.92 1573.67 L1578.92 1568.97 Q1581 1570.1 1583.23 1570.66 Q1585.45 1571.22 1587.92 1571.22 Q1591.93 1571.22 1594.27 1569.11 Q1596.6 1567 1596.6 1563.39 Q1596.6 1559.78 1594.27 1557.67 Q1591.93 1555.57 1587.92 1555.57 Q1586.05 1555.57 1584.17 1555.98 Q1582.32 1556.4 1580.38 1557.28 L1580.38 1539.92 Z" fill="#000000" fill-rule="evenodd" fill-opacity="1" /><path clip-path="url(#clip210)" d="M 0 0 M1815.4 1559.6 L1827.88 1559.6 L1827.88 1563.39 L1815.4 1563.39 L1815.4 1559.6 Z" fill="#000000" fill-rule="evenodd" fill-opacity="1" /><path clip-path="url(#clip210)" d="M 0 0 M1842.95 1543 Q1839.34 1543 1837.51 1546.56 Q1835.7 1550.11 1835.7 1557.23 Q1835.7 1564.34 1837.51 1567.91 Q1839.34 1571.45 1842.95 1571.45 Q1846.58 1571.45 1848.39 1567.91 Q1850.22 1564.34 1850.22 1557.23 Q1850.22 1550.11 1848.39 1546.56 Q1846.58 1543 1842.95 1543 M1842.95 1539.29 Q1848.76 1539.29 1851.81 1543.9 Q1854.89 1548.48 1854.89 1557.23 Q1854.89 1565.96 1851.81 1570.57 Q1848.76 1575.15 1842.95 1575.15 Q1837.14 1575.15 1834.06 1570.57 Q1831 1565.96 1831 1557.23 Q1831 1548.48 1834.06 1543.9 Q1837.14 1539.29 1842.95 1539.29 Z" fill="#000000" fill-rule="evenodd" fill-opacity="1" /><path clip-path="url(#clip210)" d="M 0 0 M1859.96 1568.6 L1864.85 1568.6 L1864.85 1574.48 L1859.96 1574.48 L1859.96 1568.6 Z" fill="#000000" fill-rule="evenodd" fill-opacity="1" /><path clip-path="url(#clip210)" d="M 0 0 M1868.74 1539.92 L1890.96 1539.92 L1890.96 1541.91 L1878.41 1574.48 L1873.53 1574.48 L1885.33 1543.86 L1868.74 1543.86 L1868.74 1539.92 Z" fill="#000000" fill-rule="evenodd" fill-opacity="1" /><path clip-path="url(#clip210)" d="M 0 0 M1896.84 1570.54 L1904.48 1570.54 L1904.48 1544.18 L1896.17 1545.85 L1896.17 1541.59 L1904.43 1539.92 L1909.11 1539.92 L1909.11 1570.54 L1916.75 1570.54 L1916.75 1574.48 L1896.84 1574.48 L1896.84 1570.54 Z" fill="#000000" fill-rule="evenodd" fill-opacity="1" /><path clip-path="url(#clip210)" d="M 0 0 M1925.84 1570.54 L1942.16 1570.54 L1942.16 1574.48 L1920.22 1574.48 L1920.22 1570.54 Q1922.88 1567.79 1927.46 1563.16 Q1932.07 1558.51 1933.25 1557.17 Q1935.49 1554.64 1936.37 1552.91 Q1937.28 1551.15 1937.28 1549.46 Q1937.28 1546.7 1935.33 1544.97 Q1933.41 1543.23 1930.31 1543.23 Q1928.11 1543.23 1925.66 1543.99 Q1923.23 1544.76 1920.45 1546.31 L1920.45 1541.59 Q1923.27 1540.45 1925.73 1539.87 Q1928.18 1539.29 1930.22 1539.29 Q1935.59 1539.29 1938.78 1541.98 Q1941.98 1544.67 1941.98 1549.16 Q1941.98 1551.29 1941.17 1553.21 Q1940.38 1555.1 1938.27 1557.7 Q1937.69 1558.37 1934.59 1561.59 Q1931.49 1564.78 1925.84 1570.54 Z" fill="#000000" fill-rule="evenodd" fill-opacity="1" /><path clip-path="url(#clip210)" d="M 0 0 M1957.23 1543 Q1953.62 1543 1951.79 1546.56 Q1949.99 1550.11 1949.99 1557.23 Q1949.99 1564.34 1951.79 1567.91 Q1953.62 1571.45 1957.23 1571.45 Q1960.87 1571.45 1962.67 1567.91 Q1964.5 1564.34 1964.5 1557.23 Q1964.5 1550.11 1962.67 1546.56 Q1960.87 1543 1957.23 1543 M1957.23 1539.29 Q1963.04 1539.29 1966.1 1543.9 Q1969.18 1548.48 1969.18 1557.23 Q1969.18 1565.96 1966.1 1570.57 Q1963.04 1575.15 1957.23 1575.15 Q1951.42 1575.15 1948.34 1570.57 Q1945.29 1565.96 1945.29 1557.23 Q1945.29 1548.48 1948.34 1543.9 Q1951.42 1539.29 1957.23 1539.29 Z" fill="#000000" fill-rule="evenodd" fill-opacity="1" /><path clip-path="url(#clip210)" d="M 0 0 M2183.11 1559.6 L2195.59 1559.6 L2195.59 1563.39 L2183.11 1563.39 L2183.11 1559.6 Z" fill="#000000" fill-rule="evenodd" fill-opacity="1" /><path clip-path="url(#clip210)" d="M 0 0 M2210.66 1543 Q2207.05 1543 2205.22 1546.56 Q2203.41 1550.11 2203.41 1557.23 Q2203.41 1564.34 2205.22 1567.91 Q2207.05 1571.45 2210.66 1571.45 Q2214.29 1571.45 2216.1 1567.91 Q2217.93 1564.34 2217.93 1557.23 Q2217.93 1550.11 2216.1 1546.56 Q2214.29 1543 2210.66 1543 M2210.66 1539.29 Q2216.47 1539.29 2219.52 1543.9 Q2222.6 1548.48 2222.6 1557.23 Q2222.6 1565.96 2219.52 1570.57 Q2216.47 1575.15 2210.66 1575.15 Q2204.85 1575.15 2201.77 1570.57 Q2198.71 1565.96 2198.71 1557.23 Q2198.71 1548.48 2201.77 1543.9 Q2204.85 1539.29 2210.66 1539.29 Z" fill="#000000" fill-rule="evenodd" fill-opacity="1" /><path clip-path="url(#clip210)" d="M 0 0 M2227.67 1568.6 L2232.56 1568.6 L2232.56 1574.48 L2227.67 1574.48 L2227.67 1568.6 Z" fill="#000000" fill-rule="evenodd" fill-opacity="1" /><path clip-path="url(#clip210)" d="M 0 0 M2236.45 1539.92 L2258.67 1539.92 L2258.67 1541.91 L2246.12 1574.48 L2241.24 1574.48 L2253.04 1543.86 L2236.45 1543.86 L2236.45 1539.92 Z" fill="#000000" fill-rule="evenodd" fill-opacity="1" /><path clip-path="url(#clip210)" d="M 0 0 M2264.55 1570.54 L2272.19 1570.54 L2272.19 1544.18 L2263.88 1545.85 L2263.88 1541.59 L2272.14 1539.92 L2276.82 1539.92 L2276.82 1570.54 L2284.45 1570.54 L2284.45 1574.48 L2264.55 1574.48 L2264.55 1570.54 Z" fill="#000000" fill-rule="evenodd" fill-opacity="1" /><path clip-path="url(#clip210)" d="M 0 0 M2290.33 1570.54 L2297.97 1570.54 L2297.97 1544.18 L2289.66 1545.85 L2289.66 1541.59 L2297.93 1539.92 L2302.6 1539.92 L2302.6 1570.54 L2310.24 1570.54 L2310.24 1574.48 L2290.33 1574.48 L2290.33 1570.54 Z" fill="#000000" fill-rule="evenodd" fill-opacity="1" /><path clip-path="url(#clip210)" d="M 0 0 M2315.36 1539.92 L2333.71 1539.92 L2333.71 1543.86 L2319.64 1543.86 L2319.64 1552.33 Q2320.66 1551.98 2321.68 1551.82 Q2322.7 1551.63 2323.71 1551.63 Q2329.5 1551.63 2332.88 1554.8 Q2336.26 1557.98 2336.26 1563.39 Q2336.26 1568.97 2332.79 1572.07 Q2329.32 1575.15 2323 1575.15 Q2320.82 1575.15 2318.55 1574.78 Q2316.31 1574.41 2313.9 1573.67 L2313.9 1568.97 Q2315.98 1570.1 2318.2 1570.66 Q2320.43 1571.22 2322.9 1571.22 Q2326.91 1571.22 2329.25 1569.11 Q2331.58 1567 2331.58 1563.39 Q2331.58 1559.78 2329.25 1557.67 Q2326.91 1555.57 2322.9 1555.57 Q2321.03 1555.57 2319.15 1555.98 Q2317.3 1556.4 2315.36 1557.28 L2315.36 1539.92 Z" fill="#000000" fill-rule="evenodd" fill-opacity="1" /><path clip-path="url(#clip210)" d="M 0 0 M51.0477 1465.1 Q47.4367 1465.1 45.608 1468.66 Q43.8024 1472.2 43.8024 1479.33 Q43.8024 1486.44 45.608 1490 Q47.4367 1493.55 51.0477 1493.55 Q54.682 1493.55 56.4875 1490 Q58.3162 1486.44 58.3162 1479.33 Q58.3162 1472.2 56.4875 1468.66 Q54.682 1465.1 51.0477 1465.1 M51.0477 1461.39 Q56.8579 1461.39 59.9134 1466 Q62.9921 1470.58 62.9921 1479.33 Q62.9921 1488.06 59.9134 1492.67 Q56.8579 1497.25 51.0477 1497.25 Q45.2376 1497.25 42.1589 1492.67 Q39.1034 1488.06 39.1034 1479.33 Q39.1034 1470.58 42.1589 1466 Q45.2376 1461.39 51.0477 1461.39 Z" fill="#000000" fill-rule="evenodd" fill-opacity="1" /><path clip-path="url(#clip210)" d="M 0 0 M-10.9427 1258.6 L-3.30382 1258.6 L-3.30382 1232.24 L-11.614 1233.9 L-11.614 1229.64 L-3.35011 1227.98 L1.32579 1227.98 L1.32579 1258.6 L8.96464 1258.6 L8.96464 1262.54 L-10.9427 1262.54 L-10.9427 1258.6 Z" fill="#000000" fill-rule="evenodd" fill-opacity="1" /><path clip-path="url(#clip210)" d="M 0 0 M24.034 1231.06 Q20.4229 1231.06 18.5942 1234.62 Q16.7887 1238.16 16.7887 1245.29 Q16.7887 1252.4 18.5942 1255.96 Q20.4229 1259.51 24.034 1259.51 Q27.6682 1259.51 29.4738 1255.96 Q31.3025 1252.4 31.3025 1245.29 Q31.3025 1238.16 29.4738 1234.62 Q27.6682 1231.06 24.034 1231.06 M24.034 1227.35 Q29.8442 1227.35 32.8997 1231.96 Q35.9784 1236.54 35.9784 1245.29 Q35.9784 1254.02 32.8997 1258.63 Q29.8442 1263.21 24.034 1263.21 Q18.2238 1263.21 15.1452 1258.63 Q12.0896 1254.02 12.0896 1245.29 Q12.0896 1236.54 15.1452 1231.96 Q18.2238 1227.35 24.034 1227.35 Z" fill="#000000" fill-rule="evenodd" fill-opacity="1" /><path clip-path="url(#clip210)" d="M 0 0 M51.0477 1231.06 Q47.4367 1231.06 45.608 1234.62 Q43.8024 1238.16 43.8024 1245.29 Q43.8024 1252.4 45.608 1255.96 Q47.4367 1259.51 51.0477 1259.51 Q54.682 1259.51 56.4875 1255.96 Q58.3162 1252.4 58.3162 1245.29 Q58.3162 1238.16 56.4875 1234.62 Q54.682 1231.06 51.0477 1231.06 M51.0477 1227.35 Q56.8579 1227.35 59.9134 1231.96 Q62.9921 1236.54 62.9921 1245.29 Q62.9921 1254.02 59.9134 1258.63 Q56.8579 1263.21 51.0477 1263.21 Q45.2376 1263.21 42.1589 1258.63 Q39.1034 1254.02 39.1034 1245.29 Q39.1034 1236.54 42.1589 1231.96 Q45.2376 1227.35 51.0477 1227.35 Z" fill="#000000" fill-rule="evenodd" fill-opacity="1" /><path clip-path="url(#clip210)" d="M 0 0 M-7.35472 1024.56 L8.96464 1024.56 L8.96464 1028.5 L-12.9797 1028.5 L-12.9797 1024.56 Q-10.3177 1021.81 -5.73436 1017.18 Q-1.1279 1012.53 0.0526484 1011.18 Q2.29801 1008.66 3.17763 1006.92 Q4.0804 1005.16 4.0804 1003.48 Q4.0804 1000.72 2.13597 998.984 Q0.214685 997.248 -2.88715 997.248 Q-5.08621 997.248 -7.5399 998.012 Q-9.97045 998.776 -12.7482 1000.33 L-12.7482 995.605 Q-9.92415 994.471 -7.47046 993.892 Q-5.01677 993.313 -2.97974 993.313 Q2.3906 993.313 5.58503 995.998 Q8.77945 998.683 8.77945 1003.17 Q8.77945 1005.3 7.96927 1007.23 Q7.18224 1009.12 5.07577 1011.72 Q4.49707 1012.39 1.39523 1015.6 Q-1.7066 1018.8 -7.35472 1024.56 Z" fill="#000000" fill-rule="evenodd" fill-opacity="1" /><path clip-path="url(#clip210)" d="M 0 0 M24.034 997.017 Q20.4229 997.017 18.5942 1000.58 Q16.7887 1004.12 16.7887 1011.25 Q16.7887 1018.36 18.5942 1021.92 Q20.4229 1025.47 24.034 1025.47 Q27.6682 1025.47 29.4738 1021.92 Q31.3025 1018.36 31.3025 1011.25 Q31.3025 1004.12 29.4738 1000.58 Q27.6682 997.017 24.034 997.017 M24.034 993.313 Q29.8442 993.313 32.8997 997.92 Q35.9784 1002.5 35.9784 1011.25 Q35.9784 1019.98 32.8997 1024.59 Q29.8442 1029.17 24.034 1029.17 Q18.2238 1029.17 15.1452 1024.59 Q12.0896 1019.98 12.0896 1011.25 Q12.0896 1002.5 15.1452 997.92 Q18.2238 993.313 24.034 993.313 Z" fill="#000000" fill-rule="evenodd" fill-opacity="1" /><path clip-path="url(#clip210)" d="M 0 0 M51.0477 997.017 Q47.4367 997.017 45.608 1000.58 Q43.8024 1004.12 43.8024 1011.25 Q43.8024 1018.36 45.608 1021.92 Q47.4367 1025.47 51.0477 1025.47 Q54.682 1025.47 56.4875 1021.92 Q58.3162 1018.36 58.3162 1011.25 Q58.3162 1004.12 56.4875 1000.58 Q54.682 997.017 51.0477 997.017 M51.0477 993.313 Q56.8579 993.313 59.9134 997.92 Q62.9921 1002.5 62.9921 1011.25 Q62.9921 1019.98 59.9134 1024.59 Q56.8579 1029.17 51.0477 1029.17 Q45.2376 1029.17 42.1589 1024.59 Q39.1034 1019.98 39.1034 1011.25 Q39.1034 1002.5 42.1589 997.92 Q45.2376 993.313 51.0477 993.313 Z" fill="#000000" fill-rule="evenodd" fill-opacity="1" /><path clip-path="url(#clip210)" d="M 0 0 M1.83505 775.824 Q5.19151 776.542 7.0665 778.81 Q8.96464 781.079 8.96464 784.412 Q8.96464 789.528 5.44614 792.329 Q1.92764 795.13 -4.55381 795.13 Q-6.72972 795.13 -9.04453 794.69 Q-11.3362 794.273 -13.7899 793.417 L-13.7899 788.903 Q-11.8454 790.037 -9.53063 790.616 Q-7.21583 791.195 -4.6927 791.195 Q-0.294572 791.195 1.99708 789.458 Q4.31188 787.722 4.31188 784.412 Q4.31188 781.357 2.15912 779.644 Q0.0295004 777.908 -3.78992 777.908 L-7.81768 777.908 L-7.81768 774.065 L-3.60474 774.065 Q-0.155684 774.065 1.67301 772.699 Q3.5017 771.31 3.5017 768.718 Q3.5017 766.056 1.60357 764.644 Q-0.271424 763.209 -3.78992 763.209 Q-5.71121 763.209 -7.91027 763.625 Q-10.1093 764.042 -12.7482 764.922 L-12.7482 760.755 Q-10.0862 760.014 -7.77138 759.644 Q-5.43343 759.273 -3.37326 759.273 Q1.95079 759.273 5.05262 761.704 Q8.15446 764.111 8.15446 768.232 Q8.15446 771.102 6.51095 773.093 Q4.86744 775.06 1.83505 775.824 Z" fill="#000000" fill-rule="evenodd" fill-opacity="1" /><path clip-path="url(#clip210)" d="M 0 0 M24.034 762.977 Q20.4229 762.977 18.5942 766.542 Q16.7887 770.084 16.7887 777.213 Q16.7887 784.32 18.5942 787.884 Q20.4229 791.426 24.034 791.426 Q27.6682 791.426 29.4738 787.884 Q31.3025 784.32 31.3025 777.213 Q31.3025 770.084 29.4738 766.542 Q27.6682 762.977 24.034 762.977 M24.034 759.273 Q29.8442 759.273 32.8997 763.88 Q35.9784 768.463 35.9784 777.213 Q35.9784 785.94 32.8997 790.546 Q29.8442 795.13 24.034 795.13 Q18.2238 795.13 15.1452 790.546 Q12.0896 785.94 12.0896 777.213 Q12.0896 768.463 15.1452 763.88 Q18.2238 759.273 24.034 759.273 Z" fill="#000000" fill-rule="evenodd" fill-opacity="1" /><path clip-path="url(#clip210)" d="M 0 0 M51.0477 762.977 Q47.4367 762.977 45.608 766.542 Q43.8024 770.084 43.8024 777.213 Q43.8024 784.32 45.608 787.884 Q47.4367 791.426 51.0477 791.426 Q54.682 791.426 56.4875 787.884 Q58.3162 784.32 58.3162 777.213 Q58.3162 770.084 56.4875 766.542 Q54.682 762.977 51.0477 762.977 M51.0477 759.273 Q56.8579 759.273 59.9134 763.88 Q62.9921 768.463 62.9921 777.213 Q62.9921 785.94 59.9134 790.546 Q56.8579 795.13 51.0477 795.13 Q45.2376 795.13 42.1589 790.546 Q39.1034 785.94 39.1034 777.213 Q39.1034 768.463 42.1589 763.88 Q45.2376 759.273 51.0477 759.273 Z" fill="#000000" fill-rule="evenodd" fill-opacity="1" /><path clip-path="url(#clip210)" d="M 0 0 M-0.618644 529.933 L-12.4241 548.382 L-0.618644 548.382 L-0.618644 529.933 M-1.84549 525.859 L4.03411 525.859 L4.03411 548.382 L8.96464 548.382 L8.96464 552.271 L4.03411 552.271 L4.03411 560.419 L-0.618644 560.419 L-0.618644 552.271 L-16.2204 552.271 L-16.2204 547.757 L-1.84549 525.859 Z" fill="#000000" fill-rule="evenodd" fill-opacity="1" /><path clip-path="url(#clip210)" d="M 0 0 M24.034 528.937 Q20.4229 528.937 18.5942 532.502 Q16.7887 536.044 16.7887 543.173 Q16.7887 550.28 18.5942 553.845 Q20.4229 557.386 24.034 557.386 Q27.6682 557.386 29.4738 553.845 Q31.3025 550.28 31.3025 543.173 Q31.3025 536.044 29.4738 532.502 Q27.6682 528.937 24.034 528.937 M24.034 525.234 Q29.8442 525.234 32.8997 529.84 Q35.9784 534.423 35.9784 543.173 Q35.9784 551.9 32.8997 556.507 Q29.8442 561.09 24.034 561.09 Q18.2238 561.09 15.1452 556.507 Q12.0896 551.9 12.0896 543.173 Q12.0896 534.423 15.1452 529.84 Q18.2238 525.234 24.034 525.234 Z" fill="#000000" fill-rule="evenodd" fill-opacity="1" /><path clip-path="url(#clip210)" d="M 0 0 M51.0477 528.937 Q47.4367 528.937 45.608 532.502 Q43.8024 536.044 43.8024 543.173 Q43.8024 550.28 45.608 553.845 Q47.4367 557.386 51.0477 557.386 Q54.682 557.386 56.4875 553.845 Q58.3162 550.28 58.3162 543.173 Q58.3162 536.044 56.4875 532.502 Q54.682 528.937 51.0477 528.937 M51.0477 525.234 Q56.8579 525.234 59.9134 529.84 Q62.9921 534.423 62.9921 543.173 Q62.9921 551.9 59.9134 556.507 Q56.8579 561.09 51.0477 561.09 Q45.2376 561.09 42.1589 556.507 Q39.1034 551.9 39.1034 543.173 Q39.1034 534.423 42.1589 529.84 Q45.2376 525.234 51.0477 525.234 Z" fill="#000000" fill-rule="evenodd" fill-opacity="1" /><path clip-path="url(#clip210)" d="M 0 0 M-11.938 291.819 L6.41836 291.819 L6.41836 295.754 L-7.65564 295.754 L-7.65564 304.226 Q-6.63713 303.879 -5.61862 303.717 Q-4.6001 303.532 -3.58159 303.532 Q2.20541 303.532 5.58503 306.703 Q8.96464 309.874 8.96464 315.291 Q8.96464 320.87 5.49243 323.972 Q2.02023 327.05 -4.29918 327.05 Q-6.47509 327.05 -8.7436 326.68 Q-10.989 326.31 -13.3964 325.569 L-13.3964 320.87 Q-11.313 322.004 -9.09082 322.56 Q-6.86861 323.115 -4.39177 323.115 Q-0.387164 323.115 1.95079 321.009 Q4.28874 318.902 4.28874 315.291 Q4.28874 311.68 1.95079 309.573 Q-0.387164 307.467 -4.39177 307.467 Q-6.26676 307.467 -8.14175 307.884 Q-9.99359 308.3 -11.938 309.18 L-11.938 291.819 Z" fill="#000000" fill-rule="evenodd" fill-opacity="1" /><path clip-path="url(#clip210)" d="M 0 0 M24.034 294.898 Q20.4229 294.898 18.5942 298.462 Q16.7887 302.004 16.7887 309.134 Q16.7887 316.24 18.5942 319.805 Q20.4229 323.347 24.034 323.347 Q27.6682 323.347 29.4738 319.805 Q31.3025 316.24 31.3025 309.134 Q31.3025 302.004 29.4738 298.462 Q27.6682 294.898 24.034 294.898 M24.034 291.194 Q29.8442 291.194 32.8997 295.8 Q35.9784 300.384 35.9784 309.134 Q35.9784 317.86 32.8997 322.467 Q29.8442 327.05 24.034 327.05 Q18.2238 327.05 15.1452 322.467 Q12.0896 317.86 12.0896 309.134 Q12.0896 300.384 15.1452 295.8 Q18.2238 291.194 24.034 291.194 Z" fill="#000000" fill-rule="evenodd" fill-opacity="1" /><path clip-path="url(#clip210)" d="M 0 0 M51.0477 294.898 Q47.4367 294.898 45.608 298.462 Q43.8024 302.004 43.8024 309.134 Q43.8024 316.24 45.608 319.805 Q47.4367 323.347 51.0477 323.347 Q54.682 323.347 56.4875 319.805 Q58.3162 316.24 58.3162 309.134 Q58.3162 302.004 56.4875 298.462 Q54.682 294.898 51.0477 294.898 M51.0477 291.194 Q56.8579 291.194 59.9134 295.8 Q62.9921 300.384 62.9921 309.134 Q62.9921 317.86 59.9134 322.467 Q56.8579 327.05 51.0477 327.05 Q45.2376 327.05 42.1589 322.467 Q39.1034 317.86 39.1034 309.134 Q39.1034 300.384 42.1589 295.8 Q45.2376 291.194 51.0477 291.194 Z" fill="#000000" fill-rule="evenodd" fill-opacity="1" /><path clip-path="url(#clip210)" d="M 0 0 M-2.56308 73.1958 Q-5.71121 73.1958 -7.56305 75.3486 Q-9.39175 77.5013 -9.39175 81.2513 Q-9.39175 84.9782 -7.56305 87.1541 Q-5.71121 89.3068 -2.56308 89.3068 Q0.585053 89.3068 2.41375 87.1541 Q4.26559 84.9782 4.26559 81.2513 Q4.26559 77.5013 2.41375 75.3486 Q0.585053 73.1958 -2.56308 73.1958 M6.71928 58.5431 L6.71928 62.8023 Q4.96003 61.969 3.15448 61.5292 Q1.37209 61.0894 -0.387164 61.0894 Q-5.01677 61.0894 -7.47046 64.2144 Q-9.901 67.3394 -10.2482 73.6588 Q-8.88249 71.6449 -6.82231 70.5801 Q-4.76214 69.4921 -2.2853 69.4921 Q2.923 69.4921 5.93225 72.6634 Q8.96464 75.8115 8.96464 81.2513 Q8.96464 86.5754 5.81651 89.7929 Q2.66838 93.0105 -2.56308 93.0105 Q-8.55842 93.0105 -11.7297 88.4272 Q-14.901 83.8208 -14.901 75.0939 Q-14.901 66.8995 -11.0121 62.0385 Q-7.12324 57.1542 -0.572348 57.1542 Q1.1869 57.1542 2.9693 57.5015 Q4.77485 57.8487 6.71928 58.5431 Z" fill="#000000" fill-rule="evenodd" fill-opacity="1" /><path clip-path="url(#clip210)" d="M 0 0 M24.034 60.8579 Q20.4229 60.8579 18.5942 64.4227 Q16.7887 67.9644 16.7887 75.0939 Q16.7887 82.2004 18.5942 85.7652 Q20.4229 89.3068 24.034 89.3068 Q27.6682 89.3068 29.4738 85.7652 Q31.3025 82.2004 31.3025 75.0939 Q31.3025 67.9644 29.4738 64.4227 Q27.6682 60.8579 24.034 60.8579 M24.034 57.1542 Q29.8442 57.1542 32.8997 61.7607 Q35.9784 66.344 35.9784 75.0939 Q35.9784 83.8208 32.8997 88.4272 Q29.8442 93.0105 24.034 93.0105 Q18.2238 93.0105 15.1452 88.4272 Q12.0896 83.8208 12.0896 75.0939 Q12.0896 66.344 15.1452 61.7607 Q18.2238 57.1542 24.034 57.1542 Z" fill="#000000" fill-rule="evenodd" fill-opacity="1" /><path clip-path="url(#clip210)" d="M 0 0 M51.0477 60.8579 Q47.4367 60.8579 45.608 64.4227 Q43.8024 67.9644 43.8024 75.0939 Q43.8024 82.2004 45.608 85.7652 Q47.4367 89.3068 51.0477 89.3068 Q54.682 89.3068 56.4875 85.7652 Q58.3162 82.2004 58.3162 75.0939 Q58.3162 67.9644 56.4875 64.4227 Q54.682 60.8579 51.0477 60.8579 M51.0477 57.1542 Q56.8579 57.1542 59.9134 61.7607 Q62.9921 66.344 62.9921 75.0939 Q62.9921 83.8208 59.9134 88.4272 Q56.8579 93.0105 51.0477 93.0105 Q45.2376 93.0105 42.1589 88.4272 Q39.1034 83.8208 39.1034 75.0939 Q39.1034 66.344 42.1589 61.7607 Q45.2376 57.1542 51.0477 57.1542 Z" fill="#000000" fill-rule="evenodd" fill-opacity="1" /><path clip-path="url(#clip212)" d="
M151.118 1420.5 L154.338 1418.23 L157.559 1415.96 L160.779 1413.71 L164 1411.48 L167.22 1409.28 L170.441 1407.11 L173.661 1404.98 L176.882 1402.88 L180.103 1400.83 
  L183.323 1398.82 L186.544 1396.86 L189.764 1394.96 L192.985 1393.1 L196.205 1391.29 L199.426 1389.54 L202.646 1387.83 L205.867 1386.17 L209.088 1384.55 L212.308 1382.97 
  L215.529 1381.43 L218.749 1379.91 L221.97 1378.41 L225.19 1376.93 L228.411 1375.45 L231.632 1373.97 L234.852 1372.47 L238.073 1370.95 L241.293 1369.39 L244.514 1367.79 
  L247.734 1366.13 L250.955 1364.4 L254.175 1362.58 L257.396 1360.67 L260.617 1358.65 L263.837 1356.51 L267.058 1354.24 L270.278 1351.81 L273.499 1349.23 L276.719 1346.47 
  L279.94 1343.53 L283.16 1340.39 L286.381 1337.04 L289.602 1333.47 L292.822 1329.68 L296.043 1325.65 L299.263 1321.37 L302.484 1316.84 L305.704 1312.04 L308.925 1306.98 
  L312.145 1301.64 L315.366 1296.03 L318.587 1290.14 L321.807 1283.96 L325.028 1277.5 L328.248 1270.75 L331.469 1263.72 L334.689 1256.41 L337.91 1248.82 L341.131 1240.96 
  L344.351 1232.83 L347.572 1224.43 L350.792 1215.79 L354.013 1206.9 L357.233 1197.77 L360.454 1188.42 L363.674 1178.87 L366.895 1169.11 L370.116 1159.17 L373.336 1149.07 
  L376.557 1138.82 L379.777 1128.43 L382.998 1117.93 L386.218 1107.34 L389.439 1096.66 L392.659 1085.93 L395.88 1075.17 L399.101 1064.39 L402.321 1053.62 L405.542 1042.87 
  L408.762 1032.17 L411.983 1021.53 L415.203 1010.99 L418.424 1000.56 L421.645 990.248 L424.865 980.087 L428.086 970.091 L431.306 960.276 L434.527 950.658 L437.747 941.252 
  L440.968 932.071 L444.188 923.128 L447.409 914.433 L450.63 905.996 L453.85 897.824 L457.071 889.923 L460.291 882.298 L463.512 874.952 L466.732 867.886 L469.953 861.1 
  L469.953 1479.3 L466.732 1479.3 L463.512 1479.3 L460.291 1479.3 L457.071 1479.3 L453.85 1479.3 L450.63 1479.3 L447.409 1479.3 L444.188 1479.3 L440.968 1479.3 
  L437.747 1479.3 L434.527 1479.3 L431.306 1479.3 L428.086 1479.3 L424.865 1479.3 L421.645 1479.3 L418.424 1479.3 L415.203 1479.3 L411.983 1479.3 L408.762 1479.3 
  L405.542 1479.3 L402.321 1479.3 L399.101 1479.3 L395.88 1479.3 L392.659 1479.3 L389.439 1479.3 L386.218 1479.3 L382.998 1479.3 L379.777 1479.3 L376.557 1479.3 
  L373.336 1479.3 L370.116 1479.3 L366.895 1479.3 L363.674 1479.3 L360.454 1479.3 L357.233 1479.3 L354.013 1479.3 L350.792 1479.3 L347.572 1479.3 L344.351 1479.3 
  L341.131 1479.3 L337.91 1479.3 L334.689 1479.3 L331.469 1479.3 L328.248 1479.3 L325.028 1479.3 L321.807 1479.3 L318.587 1479.3 L315.366 1479.3 L312.145 1479.3 
  L308.925 1479.3 L305.704 1479.3 L302.484 1479.3 L299.263 1479.3 L296.043 1479.3 L292.822 1479.3 L289.602 1479.3 L286.381 1479.3 L283.16 1479.3 L279.94 1479.3 
  L276.719 1479.3 L273.499 1479.3 L270.278 1479.3 L267.058 1479.3 L263.837 1479.3 L260.617 1479.3 L257.396 1479.3 L254.175 1479.3 L250.955 1479.3 L247.734 1479.3 
  L244.514 1479.3 L241.293 1479.3 L238.073 1479.3 L234.852 1479.3 L231.632 1479.3 L228.411 1479.3 L225.19 1479.3 L221.97 1479.3 L218.749 1479.3 L215.529 1479.3 
  L212.308 1479.3 L209.088 1479.3 L205.867 1479.3 L202.646 1479.3 L199.426 1479.3 L196.205 1479.3 L192.985 1479.3 L189.764 1479.3 L186.544 1479.3 L183.323 1479.3 
  L180.103 1479.3 L176.882 1479.3 L173.661 1479.3 L170.441 1479.3 L167.22 1479.3 L164 1479.3 L160.779 1479.3 L157.559 1479.3 L154.338 1479.3 L151.118 1479.3 
   Z
  " fill="#ffa500" fill-rule="evenodd" fill-opacity="0.5"/>
<polyline clip-path="url(#clip212)" style="stroke:#ffa500; stroke-width:4; stroke-opacity:1; fill:none" points="
  151.118,1420.5 154.338,1418.23 157.559,1415.96 160.779,1413.71 164,1411.48 167.22,1409.28 170.441,1407.11 173.661,1404.98 176.882,1402.88 180.103,1400.83 
  183.323,1398.82 186.544,1396.86 189.764,1394.96 192.985,1393.1 196.205,1391.29 199.426,1389.54 202.646,1387.83 205.867,1386.17 209.088,1384.55 212.308,1382.97 
  215.529,1381.43 218.749,1379.91 221.97,1378.41 225.19,1376.93 228.411,1375.45 231.632,1373.97 234.852,1372.47 238.073,1370.95 241.293,1369.39 244.514,1367.79 
  247.734,1366.13 250.955,1364.4 254.175,1362.58 257.396,1360.67 260.617,1358.65 263.837,1356.51 267.058,1354.24 270.278,1351.81 273.499,1349.23 276.719,1346.47 
  279.94,1343.53 283.16,1340.39 286.381,1337.04 289.602,1333.47 292.822,1329.68 296.043,1325.65 299.263,1321.37 302.484,1316.84 305.704,1312.04 308.925,1306.98 
  312.145,1301.64 315.366,1296.03 318.587,1290.14 321.807,1283.96 325.028,1277.5 328.248,1270.75 331.469,1263.72 334.689,1256.41 337.91,1248.82 341.131,1240.96 
  344.351,1232.83 347.572,1224.43 350.792,1215.79 354.013,1206.9 357.233,1197.77 360.454,1188.42 363.674,1178.87 366.895,1169.11 370.116,1159.17 373.336,1149.07 
  376.557,1138.82 379.777,1128.43 382.998,1117.93 386.218,1107.34 389.439,1096.66 392.659,1085.93 395.88,1075.17 399.101,1064.39 402.321,1053.62 405.542,1042.87 
  408.762,1032.17 411.983,1021.53 415.203,1010.99 418.424,1000.56 421.645,990.248 424.865,980.087 428.086,970.091 431.306,960.276 434.527,950.658 437.747,941.252 
  440.968,932.071 444.188,923.128 447.409,914.433 450.63,905.996 453.85,897.824 457.071,889.923 460.291,882.298 463.512,874.952 466.732,867.886 469.953,861.1 
  
  "/>
<path clip-path="url(#clip212)" d="
M469.953 861.1 L485.759 831.732 L501.565 808.236 L517.371 789.163 L533.176 772.628 L548.982 756.622 L564.788 739.294 L580.594 719.184 L596.4 695.39 L612.206 667.691 
  L628.012 636.594 L643.818 603.314 L659.624 569.643 L675.43 537.717 L691.235 509.686 L707.041 487.338 L722.847 471.747 L738.653 463.019 L754.459 460.182 L770.265 461.276 
  L786.071 463.631 L801.877 464.302 L817.683 460.603 L833.488 450.608 L849.294 433.538 L865.1 409.877 L880.906 381.201 L896.712 349.722 L912.518 317.684 L928.324 286.788 
  L944.13 257.853 L959.936 230.817 L975.741 205.075 L991.547 180.021 L1007.35 155.579 L1023.16 132.509 L1038.97 112.382 L1054.77 97.2233 L1070.58 88.974 L1086.38 88.9544 
  L1102.19 97.5128 L1117.99 113.948 L1133.8 136.699 L1149.61 163.702 L1165.41 192.799 L1181.22 222.069 L1197.02 250.036 L1212.83 275.723 L1228.64 298.615 L1244.44 318.566 
  L1260.25 335.712 L1276.05 350.422 L1291.86 363.294 L1307.67 375.159 L1323.47 387.07 L1339.28 400.244 L1355.08 415.94 L1370.89 435.292 L1386.69 459.141 L1402.5 487.891 
  L1418.31 521.429 L1434.11 559.114 L1449.92 599.823 L1465.72 642.053 L1481.53 684.07 L1497.34 724.094 L1513.14 760.502 L1528.95 792.044 L1544.75 818.009 L1560.56 838.295 
  L1576.37 853.372 L1592.17 864.103 L1607.98 871.48 L1623.78 876.327 L1639.59 879.062 L1655.39 879.567 L1671.2 877.209 L1687.01 870.997 L1702.81 859.804 L1718.62 842.614 
  L1734.42 818.719 L1750.23 787.84 L1766.04 750.176 L1781.84 706.396 L1797.65 657.589 L1813.45 605.22 L1829.26 551.066 L1845.07 497.176 L1860.87 445.825 L1876.68 399.462 
  L1892.48 360.632 L1908.29 331.858 L1924.1 315.453 L1939.9 313.293 L1955.71 326.553 L1971.51 355.486 L1987.32 399.284 L2003.12 456.086 L2018.93 523.139 L2034.74 597.109 
  L2034.74 1479.3 L2018.93 1479.3 L2003.12 1479.3 L1987.32 1479.3 L1971.51 1479.3 L1955.71 1479.3 L1939.9 1479.3 L1924.1 1479.3 L1908.29 1479.3 L1892.48 1479.3 
  L1876.68 1479.3 L1860.87 1479.3 L1845.07 1479.3 L1829.26 1479.3 L1813.45 1479.3 L1797.65 1479.3 L1781.84 1479.3 L1766.04 1479.3 L1750.23 1479.3 L1734.42 1479.3 
  L1718.62 1479.3 L1702.81 1479.3 L1687.01 1479.3 L1671.2 1479.3 L1655.39 1479.3 L1639.59 1479.3 L1623.78 1479.3 L1607.98 1479.3 L1592.17 1479.3 L1576.37 1479.3 
  L1560.56 1479.3 L1544.75 1479.3 L1528.95 1479.3 L1513.14 1479.3 L1497.34 1479.3 L1481.53 1479.3 L1465.72 1479.3 L1449.92 1479.3 L1434.11 1479.3 L1418.31 1479.3 
  L1402.5 1479.3 L1386.69 1479.3 L1370.89 1479.3 L1355.08 1479.3 L1339.28 1479.3 L1323.47 1479.3 L1307.67 1479.3 L1291.86 1479.3 L1276.05 1479.3 L1260.25 1479.3 
  L1244.44 1479.3 L1228.64 1479.3 L1212.83 1479.3 L1197.02 1479.3 L1181.22 1479.3 L1165.41 1479.3 L1149.61 1479.3 L1133.8 1479.3 L1117.99 1479.3 L1102.19 1479.3 
  L1086.38 1479.3 L1070.58 1479.3 L1054.77 1479.3 L1038.97 1479.3 L1023.16 1479.3 L1007.35 1479.3 L991.547 1479.3 L975.741 1479.3 L959.936 1479.3 L944.13 1479.3 
  L928.324 1479.3 L912.518 1479.3 L896.712 1479.3 L880.906 1479.3 L865.1 1479.3 L849.294 1479.3 L833.488 1479.3 L817.683 1479.3 L801.877 1479.3 L786.071 1479.3 
  L770.265 1479.3 L754.459 1479.3 L738.653 1479.3 L722.847 1479.3 L707.041 1479.3 L691.235 1479.3 L675.43 1479.3 L659.624 1479.3 L643.818 1479.3 L628.012 1479.3 
  L612.206 1479.3 L596.4 1479.3 L580.594 1479.3 L564.788 1479.3 L548.982 1479.3 L533.176 1479.3 L517.371 1479.3 L501.565 1479.3 L485.759 1479.3 L469.953 1479.3 
   Z
  " fill="#008000" fill-rule="evenodd" fill-opacity="0.5"/>
<polyline clip-path="url(#clip212)" style="stroke:#008000; stroke-width:4; stroke-opacity:1; fill:none" points="
  469.953,861.1 485.759,831.732 501.565,808.236 517.371,789.163 533.176,772.628 548.982,756.622 564.788,739.294 580.594,719.184 596.4,695.39 612.206,667.691 
  628.012,636.594 643.818,603.314 659.624,569.643 675.43,537.717 691.235,509.686 707.041,487.338 722.847,471.747 738.653,463.019 754.459,460.182 770.265,461.276 
  786.071,463.631 801.877,464.302 817.683,460.603 833.488,450.608 849.294,433.538 865.1,409.877 880.906,381.201 896.712,349.722 912.518,317.684 928.324,286.788 
  944.13,257.853 959.936,230.817 975.741,205.075 991.547,180.021 1007.35,155.579 1023.16,132.509 1038.97,112.382 1054.77,97.2233 1070.58,88.974 1086.38,88.9544 
  1102.19,97.5128 1117.99,113.948 1133.8,136.699 1149.61,163.702 1165.41,192.799 1181.22,222.069 1197.02,250.036 1212.83,275.723 1228.64,298.615 1244.44,318.566 
  1260.25,335.712 1276.05,350.422 1291.86,363.294 1307.67,375.159 1323.47,387.07 1339.28,400.244 1355.08,415.94 1370.89,435.292 1386.69,459.141 1402.5,487.891 
  1418.31,521.429 1434.11,559.114 1449.92,599.823 1465.72,642.053 1481.53,684.07 1497.34,724.094 1513.14,760.502 1528.95,792.044 1544.75,818.009 1560.56,838.295 
  1576.37,853.372 1592.17,864.103 1607.98,871.48 1623.78,876.327 1639.59,879.062 1655.39,879.567 1671.2,877.209 1687.01,870.997 1702.81,859.804 1718.62,842.614 
  1734.42,818.719 1750.23,787.84 1766.04,750.176 1781.84,706.396 1797.65,657.589 1813.45,605.22 1829.26,551.066 1845.07,497.176 1860.87,445.825 1876.68,399.462 
  1892.48,360.632 1908.29,331.858 1924.1,315.453 1939.9,313.293 1955.71,326.553 1971.51,355.486 1987.32,399.284 2003.12,456.086 2018.93,523.139 2034.74,597.109 
  
  "/>
<path clip-path="url(#clip212)" d="
M2034.74 597.109 L2037.3 609.523 L2039.87 622.011 L2042.43 634.559 L2044.99 647.151 L2047.56 659.774 L2050.12 672.414 L2052.69 685.057 L2055.25 697.691 L2057.82 710.303 
  L2060.38 722.881 L2062.95 735.412 L2065.51 747.887 L2068.08 760.294 L2070.64 772.624 L2073.21 784.867 L2075.77 797.014 L2078.33 809.057 L2080.9 820.989 L2083.46 832.802 
  L2086.03 844.491 L2088.59 856.049 L2091.16 867.471 L2093.72 878.754 L2096.29 889.892 L2098.85 900.883 L2101.42 911.725 L2103.98 922.414 L2106.54 932.949 L2109.11 943.33 
  L2111.67 953.555 L2114.24 963.625 L2116.8 973.539 L2119.37 983.299 L2121.93 992.906 L2124.5 1002.36 L2127.06 1011.67 L2129.63 1020.82 L2132.19 1029.83 L2134.76 1038.7 
  L2137.32 1047.43 L2139.88 1056.02 L2142.45 1064.47 L2145.01 1072.8 L2147.58 1081 L2150.14 1089.07 L2152.71 1097.02 L2155.27 1104.86 L2157.84 1112.58 L2160.4 1120.19 
  L2162.97 1127.69 L2165.53 1135.08 L2168.09 1142.38 L2170.66 1149.58 L2173.22 1156.68 L2175.79 1163.69 L2178.35 1170.6 L2180.92 1177.43 L2183.48 1184.17 L2186.05 1190.83 
  L2188.61 1197.41 L2191.18 1203.9 L2193.74 1210.32 L2196.31 1216.65 L2198.87 1222.91 L2201.43 1229.09 L2204 1235.2 L2206.56 1241.23 L2209.13 1247.19 L2211.69 1253.07 
  L2214.26 1258.87 L2216.82 1264.6 L2219.39 1270.26 L2221.95 1275.84 L2224.52 1281.34 L2227.08 1286.77 L2229.64 1292.12 L2232.21 1297.4 L2234.77 1302.6 L2237.34 1307.71 
  L2239.9 1312.75 L2242.47 1317.71 L2245.03 1322.59 L2247.6 1327.39 L2250.16 1332.1 L2252.73 1336.74 L2255.29 1341.28 L2257.86 1345.75 L2260.42 1350.13 L2262.98 1354.43 
  L2265.55 1358.64 L2268.11 1362.76 L2270.68 1366.8 L2273.24 1370.75 L2275.81 1374.62 L2278.37 1378.4 L2280.94 1382.09 L2283.5 1385.69 L2286.07 1389.21 L2288.63 1392.65 
  L2288.63 1479.3 L2286.07 1479.3 L2283.5 1479.3 L2280.94 1479.3 L2278.37 1479.3 L2275.81 1479.3 L2273.24 1479.3 L2270.68 1479.3 L2268.11 1479.3 L2265.55 1479.3 
  L2262.98 1479.3 L2260.42 1479.3 L2257.86 1479.3 L2255.29 1479.3 L2252.73 1479.3 L2250.16 1479.3 L2247.6 1479.3 L2245.03 1479.3 L2242.47 1479.3 L2239.9 1479.3 
  L2237.34 1479.3 L2234.77 1479.3 L2232.21 1479.3 L2229.64 1479.3 L2227.08 1479.3 L2224.52 1479.3 L2221.95 1479.3 L2219.39 1479.3 L2216.82 1479.3 L2214.26 1479.3 
  L2211.69 1479.3 L2209.13 1479.3 L2206.56 1479.3 L2204 1479.3 L2201.43 1479.3 L2198.87 1479.3 L2196.31 1479.3 L2193.74 1479.3 L2191.18 1479.3 L2188.61 1479.3 
  L2186.05 1479.3 L2183.48 1479.3 L2180.92 1479.3 L2178.35 1479.3 L2175.79 1479.3 L2173.22 1479.3 L2170.66 1479.3 L2168.09 1479.3 L2165.53 1479.3 L2162.97 1479.3 
  L2160.4 1479.3 L2157.84 1479.3 L2155.27 1479.3 L2152.71 1479.3 L2150.14 1479.3 L2147.58 1479.3 L2145.01 1479.3 L2142.45 1479.3 L2139.88 1479.3 L2137.32 1479.3 
  L2134.76 1479.3 L2132.19 1479.3 L2129.63 1479.3 L2127.06 1479.3 L2124.5 1479.3 L2121.93 1479.3 L2119.37 1479.3 L2116.8 1479.3 L2114.24 1479.3 L2111.67 1479.3 
  L2109.11 1479.3 L2106.54 1479.3 L2103.98 1479.3 L2101.42 1479.3 L2098.85 1479.3 L2096.29 1479.3 L2093.72 1479.3 L2091.16 1479.3 L2088.59 1479.3 L2086.03 1479.3 
  L2083.46 1479.3 L2080.9 1479.3 L2078.33 1479.3 L2075.77 1479.3 L2073.21 1479.3 L2070.64 1479.3 L2068.08 1479.3 L2065.51 1479.3 L2062.95 1479.3 L2060.38 1479.3 
  L2057.82 1479.3 L2055.25 1479.3 L2052.69 1479.3 L2050.12 1479.3 L2047.56 1479.3 L2044.99 1479.3 L2042.43 1479.3 L2039.87 1479.3 L2037.3 1479.3 L2034.74 1479.3 
   Z
  " fill="#ffa500" fill-rule="evenodd" fill-opacity="0.5"/>
<polyline clip-path="url(#clip212)" style="stroke:#ffa500; stroke-width:4; stroke-opacity:1; fill:none" points="
  2034.74,597.109 2037.3,609.523 2039.87,622.011 2042.43,634.559 2044.99,647.151 2047.56,659.774 2050.12,672.414 2052.69,685.057 2055.25,697.691 2057.82,710.303 
  2060.38,722.881 2062.95,735.412 2065.51,747.887 2068.08,760.294 2070.64,772.624 2073.21,784.867 2075.77,797.014 2078.33,809.057 2080.9,820.989 2083.46,832.802 
  2086.03,844.491 2088.59,856.049 2091.16,867.471 2093.72,878.754 2096.29,889.892 2098.85,900.883 2101.42,911.725 2103.98,922.414 2106.54,932.949 2109.11,943.33 
  2111.67,953.555 2114.24,963.625 2116.8,973.539 2119.37,983.299 2121.93,992.906 2124.5,1002.36 2127.06,1011.67 2129.63,1020.82 2132.19,1029.83 2134.76,1038.7 
  2137.32,1047.43 2139.88,1056.02 2142.45,1064.47 2145.01,1072.8 2147.58,1081 2150.14,1089.07 2152.71,1097.02 2155.27,1104.86 2157.84,1112.58 2160.4,1120.19 
  2162.97,1127.69 2165.53,1135.08 2168.09,1142.38 2170.66,1149.58 2173.22,1156.68 2175.79,1163.69 2178.35,1170.6 2180.92,1177.43 2183.48,1184.17 2186.05,1190.83 
  2188.61,1197.41 2191.18,1203.9 2193.74,1210.32 2196.31,1216.65 2198.87,1222.91 2201.43,1229.09 2204,1235.2 2206.56,1241.23 2209.13,1247.19 2211.69,1253.07 
  2214.26,1258.87 2216.82,1264.6 2219.39,1270.26 2221.95,1275.84 2224.52,1281.34 2227.08,1286.77 2229.64,1292.12 2232.21,1297.4 2234.77,1302.6 2237.34,1307.71 
  2239.9,1312.75 2242.47,1317.71 2245.03,1322.59 2247.6,1327.39 2250.16,1332.1 2252.73,1336.74 2255.29,1341.28 2257.86,1345.75 2260.42,1350.13 2262.98,1354.43 
  2265.55,1358.64 2268.11,1362.76 2270.68,1366.8 2273.24,1370.75 2275.81,1374.62 2278.37,1378.4 2280.94,1382.09 2283.5,1385.69 2286.07,1389.21 2288.63,1392.65 
  
  "/>
<polyline clip-path="url(#clip212)" style="stroke:#0000ff; stroke-width:4; stroke-opacity:1; fill:none" points="
  1251.67,1479.3 1251.67,326.74 
  "/>
<polyline clip-path="url(#clip212)" style="stroke:#000000; stroke-width:4; stroke-opacity:1; fill:none" points="
  1197.94,1479.3 1197.94,251.589 
  "/>
<path clip-path="url(#clip210)" d="
M1494.58 459.25 L2277.23 459.25 L2277.23 96.3696 L1494.58 96.3696  Z
  " fill="#ffffff" fill-rule="evenodd" fill-opacity="1"/>
<polyline clip-path="url(#clip210)" style="stroke:#000000; stroke-width:4; stroke-opacity:1; fill:none" points="
  1494.58,459.25 2277.23,459.25 2277.23,96.3696 1494.58,96.3696 1494.58,459.25 
  "/>
<path clip-path="url(#clip210)" d="
M1519.75 181.042 L1670.81 181.042 L1670.81 132.658 L1519.75 132.658 L1519.75 181.042  Z
  " fill="#ffa500" fill-rule="evenodd" fill-opacity="0.5"/>
<polyline clip-path="url(#clip210)" style="stroke:#ffa500; stroke-width:4; stroke-opacity:1; fill:none" points="
  1519.75,132.658 1670.81,132.658 
  "/>
<path clip-path="url(#clip210)" d="M 0 0 M1700.38 161.19 Q1700.38 165.889 1702.3 168.574 Q1704.24 171.236 1707.62 171.236 Q1711 171.236 1712.95 168.574 Q1714.89 165.889 1714.89 161.19 Q1714.89 156.491 1712.95 153.829 Q1711 151.144 1707.62 151.144 Q1704.24 151.144 1702.3 153.829 Q1700.38 156.491 1700.38 161.19 M1714.89 170.241 Q1713.55 172.555 1711.49 173.69 Q1709.45 174.801 1706.58 174.801 Q1701.88 174.801 1698.92 171.051 Q1695.98 167.301 1695.98 161.19 Q1695.98 155.079 1698.92 151.329 Q1701.88 147.579 1706.58 147.579 Q1709.45 147.579 1711.49 148.713 Q1713.55 149.824 1714.89 152.139 L1714.89 148.204 L1719.15 148.204 L1719.15 183.991 L1714.89 183.991 L1714.89 170.241 Z" fill="#000000" fill-rule="evenodd" fill-opacity="1" /><path clip-path="url(#clip210)" d="M 0 0 M1734.22 142.648 Q1730.61 142.648 1728.78 146.213 Q1726.98 149.755 1726.98 156.884 Q1726.98 163.991 1728.78 167.556 Q1730.61 171.097 1734.22 171.097 Q1737.85 171.097 1739.66 167.556 Q1741.49 163.991 1741.49 156.884 Q1741.49 149.755 1739.66 146.213 Q1737.85 142.648 1734.22 142.648 M1734.22 138.945 Q1740.03 138.945 1743.09 143.551 Q1746.17 148.134 1746.17 156.884 Q1746.17 165.611 1743.09 170.218 Q1740.03 174.801 1734.22 174.801 Q1728.41 174.801 1725.33 170.218 Q1722.28 165.611 1722.28 156.884 Q1722.28 148.134 1725.33 143.551 Q1728.41 138.945 1734.22 138.945 Z" fill="#000000" fill-rule="evenodd" fill-opacity="1" /><path clip-path="url(#clip210)" d="M 0 0 M1751.28 139.57 L1769.64 139.57 L1769.64 143.505 L1755.56 143.505 L1755.56 151.977 Q1756.58 151.63 1757.6 151.468 Q1758.62 151.282 1759.64 151.282 Q1765.42 151.282 1768.8 154.454 Q1772.18 157.625 1772.18 163.042 Q1772.18 168.62 1768.71 171.722 Q1765.24 174.801 1758.92 174.801 Q1756.74 174.801 1754.48 174.43 Q1752.23 174.06 1749.82 173.319 L1749.82 168.62 Q1751.91 169.755 1754.13 170.31 Q1756.35 170.866 1758.83 170.866 Q1762.83 170.866 1765.17 168.759 Q1767.51 166.653 1767.51 163.042 Q1767.51 159.431 1765.17 157.324 Q1762.83 155.218 1758.83 155.218 Q1756.95 155.218 1755.08 155.634 Q1753.23 156.051 1751.28 156.931 L1751.28 139.57 Z" fill="#000000" fill-rule="evenodd" fill-opacity="1" /><path clip-path="url(#clip210)" d="
M1519.75 241.522 L1670.81 241.522 L1670.81 193.138 L1519.75 193.138 L1519.75 241.522  Z
  " fill="#008000" fill-rule="evenodd" fill-opacity="0.5"/>
<polyline clip-path="url(#clip210)" style="stroke:#008000; stroke-width:4; stroke-opacity:1; fill:none" points="
  1519.75,193.138 1670.81,193.138 
  "/>
<path clip-path="url(#clip210)" d="M 0 0 M1698.2 233.892 L1698.2 229.633 Q1699.96 230.466 1701.77 230.906 Q1703.57 231.346 1705.31 231.346 Q1709.94 231.346 1712.37 228.244 Q1714.82 225.119 1715.17 218.776 Q1713.83 220.767 1711.77 221.832 Q1709.71 222.897 1707.21 222.897 Q1702.02 222.897 1698.99 219.772 Q1695.98 216.624 1695.98 211.184 Q1695.98 205.86 1699.13 202.642 Q1702.28 199.425 1707.51 199.425 Q1713.5 199.425 1716.65 204.031 Q1719.82 208.614 1719.82 217.364 Q1719.82 225.536 1715.93 230.42 Q1712.07 235.281 1705.52 235.281 Q1703.76 235.281 1701.95 234.934 Q1700.15 234.586 1698.2 233.892 M1707.51 219.239 Q1710.66 219.239 1712.48 217.086 Q1714.34 214.934 1714.34 211.184 Q1714.34 207.457 1712.48 205.304 Q1710.66 203.128 1707.51 203.128 Q1704.36 203.128 1702.51 205.304 Q1700.68 207.457 1700.68 211.184 Q1700.68 214.934 1702.51 217.086 Q1704.36 219.239 1707.51 219.239 Z" fill="#000000" fill-rule="evenodd" fill-opacity="1" /><path clip-path="url(#clip210)" d="M 0 0 M1734.89 203.128 Q1731.28 203.128 1729.45 206.693 Q1727.65 210.235 1727.65 217.364 Q1727.65 224.471 1729.45 228.036 Q1731.28 231.577 1734.89 231.577 Q1738.53 231.577 1740.33 228.036 Q1742.16 224.471 1742.16 217.364 Q1742.16 210.235 1740.33 206.693 Q1738.53 203.128 1734.89 203.128 M1734.89 199.425 Q1740.7 199.425 1743.76 204.031 Q1746.84 208.614 1746.84 217.364 Q1746.84 226.091 1743.76 230.698 Q1740.7 235.281 1734.89 235.281 Q1729.08 235.281 1726 230.698 Q1722.95 226.091 1722.95 217.364 Q1722.95 208.614 1726 204.031 Q1729.08 199.425 1734.89 199.425 Z" fill="#000000" fill-rule="evenodd" fill-opacity="1" /><path clip-path="url(#clip210)" d="M 0 0 M1781.3 219.401 Q1779.29 219.401 1778.13 221.114 Q1777 222.827 1777 225.883 Q1777 228.892 1778.13 230.628 Q1779.29 232.341 1781.3 232.341 Q1783.27 232.341 1784.41 230.628 Q1785.56 228.892 1785.56 225.883 Q1785.56 222.85 1784.41 221.137 Q1783.27 219.401 1781.3 219.401 M1781.3 216.462 Q1784.96 216.462 1787.11 219.008 Q1789.27 221.554 1789.27 225.883 Q1789.27 230.211 1787.09 232.758 Q1784.94 235.281 1781.3 235.281 Q1777.6 235.281 1775.45 232.758 Q1773.29 230.211 1773.29 225.883 Q1773.29 221.531 1775.45 219.008 Q1777.62 216.462 1781.3 216.462 M1757.42 202.364 Q1755.42 202.364 1754.27 204.1 Q1753.13 205.813 1753.13 208.823 Q1753.13 211.878 1754.27 213.591 Q1755.4 215.304 1757.42 215.304 Q1759.43 215.304 1760.56 213.591 Q1761.72 211.878 1761.72 208.823 Q1761.72 205.837 1760.56 204.1 Q1759.41 202.364 1757.42 202.364 M1778.32 199.425 L1782.02 199.425 L1760.4 235.281 L1756.7 235.281 L1778.32 199.425 M1757.42 199.425 Q1761.07 199.425 1763.25 201.971 Q1765.42 204.494 1765.42 208.823 Q1765.42 213.198 1763.25 215.721 Q1761.1 218.244 1757.42 218.244 Q1753.73 218.244 1751.58 215.721 Q1749.45 213.174 1749.45 208.823 Q1749.45 204.517 1751.6 201.971 Q1753.76 199.425 1757.42 199.425 Z" fill="#000000" fill-rule="evenodd" fill-opacity="1" /><path clip-path="url(#clip210)" d="M 0 0 M1830.35 218.961 L1830.35 234.61 L1826.1 234.61 L1826.1 219.1 Q1826.1 215.42 1824.66 213.591 Q1823.22 211.762 1820.35 211.762 Q1816.91 211.762 1814.91 213.962 Q1812.92 216.161 1812.92 219.957 L1812.92 234.61 L1808.64 234.61 L1808.64 208.684 L1812.92 208.684 L1812.92 212.712 Q1814.45 210.374 1816.51 209.216 Q1818.6 208.059 1821.3 208.059 Q1825.77 208.059 1828.06 210.837 Q1830.35 213.591 1830.35 218.961 Z" fill="#000000" fill-rule="evenodd" fill-opacity="1" /><path clip-path="url(#clip210)" d="M 0 0 M1844.87 211.67 Q1841.44 211.67 1839.45 214.355 Q1837.46 217.017 1837.46 221.67 Q1837.46 226.323 1839.43 229.008 Q1841.42 231.67 1844.87 231.67 Q1848.27 231.67 1850.26 228.985 Q1852.25 226.299 1852.25 221.67 Q1852.25 217.063 1850.26 214.378 Q1848.27 211.67 1844.87 211.67 M1844.87 208.059 Q1850.42 208.059 1853.6 211.67 Q1856.77 215.281 1856.77 221.67 Q1856.77 228.036 1853.6 231.67 Q1850.42 235.281 1844.87 235.281 Q1839.29 235.281 1836.12 231.67 Q1832.97 228.036 1832.97 221.67 Q1832.97 215.281 1836.12 211.67 Q1839.29 208.059 1844.87 208.059 Z" fill="#000000" fill-rule="evenodd" fill-opacity="1" /><path clip-path="url(#clip210)" d="M 0 0 M1882.78 218.961 L1882.78 234.61 L1878.53 234.61 L1878.53 219.1 Q1878.53 215.42 1877.09 213.591 Q1875.66 211.762 1872.78 211.762 Q1869.34 211.762 1867.35 213.962 Q1865.35 216.161 1865.35 219.957 L1865.35 234.61 L1861.07 234.61 L1861.07 208.684 L1865.35 208.684 L1865.35 212.712 Q1866.88 210.374 1868.94 209.216 Q1871.03 208.059 1873.73 208.059 Q1878.2 208.059 1880.49 210.837 Q1882.78 213.591 1882.78 218.961 Z" fill="#000000" fill-rule="evenodd" fill-opacity="1" /><path clip-path="url(#clip210)" d="M 0 0 M1885.1 219.725 L1897.58 219.725 L1897.58 223.522 L1885.1 223.522 L1885.1 219.725 Z" fill="#000000" fill-rule="evenodd" fill-opacity="1" /><path clip-path="url(#clip210)" d="M 0 0 M1917.07 212.665 Q1916.35 212.249 1915.49 212.063 Q1914.66 211.855 1913.64 211.855 Q1910.03 211.855 1908.09 214.216 Q1906.16 216.554 1906.16 220.952 L1906.16 234.61 L1901.88 234.61 L1901.88 208.684 L1906.16 208.684 L1906.16 212.712 Q1907.51 210.35 1909.66 209.216 Q1911.81 208.059 1914.89 208.059 Q1915.33 208.059 1915.86 208.128 Q1916.4 208.175 1917.04 208.29 L1917.07 212.665 Z" fill="#000000" fill-rule="evenodd" fill-opacity="1" /><path clip-path="url(#clip210)" d="M 0 0 M1942.67 220.582 L1942.67 222.665 L1923.09 222.665 Q1923.36 227.063 1925.72 229.378 Q1928.11 231.67 1932.34 231.67 Q1934.8 231.67 1937.09 231.068 Q1939.4 230.466 1941.67 229.262 L1941.67 233.29 Q1939.38 234.262 1936.97 234.772 Q1934.57 235.281 1932.09 235.281 Q1925.89 235.281 1922.25 231.67 Q1918.64 228.059 1918.64 221.901 Q1918.64 215.536 1922.07 211.809 Q1925.52 208.059 1931.35 208.059 Q1936.58 208.059 1939.61 211.438 Q1942.67 214.795 1942.67 220.582 M1938.41 219.332 Q1938.36 215.837 1936.44 213.753 Q1934.54 211.67 1931.4 211.67 Q1927.83 211.67 1925.68 213.684 Q1923.55 215.698 1923.22 219.355 L1938.41 219.332 Z" fill="#000000" fill-rule="evenodd" fill-opacity="1" /><path clip-path="url(#clip210)" d="M 0 0 M1947.14 208.684 L1951.4 208.684 L1951.4 235.073 Q1951.4 240.026 1949.5 242.248 Q1947.62 244.471 1943.43 244.471 L1941.81 244.471 L1941.81 240.86 L1942.95 240.86 Q1945.38 240.86 1946.26 239.725 Q1947.14 238.614 1947.14 235.073 L1947.14 208.684 M1947.14 198.591 L1951.4 198.591 L1951.4 203.985 L1947.14 203.985 L1947.14 198.591 Z" fill="#000000" fill-rule="evenodd" fill-opacity="1" /><path clip-path="url(#clip210)" d="M 0 0 M1978.04 220.582 L1978.04 222.665 L1958.46 222.665 Q1958.73 227.063 1961.09 229.378 Q1963.48 231.67 1967.71 231.67 Q1970.17 231.67 1972.46 231.068 Q1974.78 230.466 1977.04 229.262 L1977.04 233.29 Q1974.75 234.262 1972.34 234.772 Q1969.94 235.281 1967.46 235.281 Q1961.26 235.281 1957.62 231.67 Q1954.01 228.059 1954.01 221.901 Q1954.01 215.536 1957.44 211.809 Q1960.89 208.059 1966.72 208.059 Q1971.95 208.059 1974.98 211.438 Q1978.04 214.795 1978.04 220.582 M1973.78 219.332 Q1973.73 215.837 1971.81 213.753 Q1969.91 211.67 1966.77 211.67 Q1963.2 211.67 1961.05 213.684 Q1958.92 215.698 1958.59 219.355 L1973.78 219.332 Z" fill="#000000" fill-rule="evenodd" fill-opacity="1" /><path clip-path="url(#clip210)" d="M 0 0 M2001.16 209.679 L2001.16 213.661 Q1999.36 212.665 1997.53 212.179 Q1995.72 211.67 1993.87 211.67 Q1989.73 211.67 1987.44 214.309 Q1985.15 216.924 1985.15 221.67 Q1985.15 226.415 1987.44 229.054 Q1989.73 231.67 1993.87 231.67 Q1995.72 231.67 1997.53 231.184 Q1999.36 230.674 2001.16 229.679 L2001.16 233.614 Q1999.38 234.448 1997.46 234.864 Q1995.56 235.281 1993.41 235.281 Q1987.55 235.281 1984.1 231.6 Q1980.65 227.92 1980.65 221.67 Q1980.65 215.327 1984.13 211.693 Q1987.62 208.059 1993.69 208.059 Q1995.65 208.059 1997.53 208.475 Q1999.4 208.869 2001.16 209.679 Z" fill="#000000" fill-rule="evenodd" fill-opacity="1" /><path clip-path="url(#clip210)" d="M 0 0 M2009.84 201.323 L2009.84 208.684 L2018.62 208.684 L2018.62 211.994 L2009.84 211.994 L2009.84 226.068 Q2009.84 229.239 2010.7 230.142 Q2011.58 231.045 2014.24 231.045 L2018.62 231.045 L2018.62 234.61 L2014.24 234.61 Q2009.31 234.61 2007.44 232.781 Q2005.56 230.929 2005.56 226.068 L2005.56 211.994 L2002.44 211.994 L2002.44 208.684 L2005.56 208.684 L2005.56 201.323 L2009.84 201.323 Z" fill="#000000" fill-rule="evenodd" fill-opacity="1" /><path clip-path="url(#clip210)" d="M 0 0 M2023.08 208.684 L2027.34 208.684 L2027.34 234.61 L2023.08 234.61 L2023.08 208.684 M2023.08 198.591 L2027.34 198.591 L2027.34 203.985 L2023.08 203.985 L2023.08 198.591 Z" fill="#000000" fill-rule="evenodd" fill-opacity="1" /><path clip-path="url(#clip210)" d="M 0 0 M2041.86 211.67 Q2038.43 211.67 2036.44 214.355 Q2034.45 217.017 2034.45 221.67 Q2034.45 226.323 2036.42 229.008 Q2038.41 231.67 2041.86 231.67 Q2045.26 231.67 2047.25 228.985 Q2049.24 226.299 2049.24 221.67 Q2049.24 217.063 2047.25 214.378 Q2045.26 211.67 2041.86 211.67 M2041.86 208.059 Q2047.41 208.059 2050.58 211.67 Q2053.76 215.281 2053.76 221.67 Q2053.76 228.036 2050.58 231.67 Q2047.41 235.281 2041.86 235.281 Q2036.28 235.281 2033.11 231.67 Q2029.96 228.036 2029.96 221.67 Q2029.96 215.281 2033.11 211.67 Q2036.28 208.059 2041.86 208.059 Z" fill="#000000" fill-rule="evenodd" fill-opacity="1" /><path clip-path="url(#clip210)" d="M 0 0 M2079.77 218.961 L2079.77 234.61 L2075.52 234.61 L2075.52 219.1 Q2075.52 215.42 2074.08 213.591 Q2072.64 211.762 2069.77 211.762 Q2066.33 211.762 2064.33 213.962 Q2062.34 216.161 2062.34 219.957 L2062.34 234.61 L2058.06 234.61 L2058.06 208.684 L2062.34 208.684 L2062.34 212.712 Q2063.87 210.374 2065.93 209.216 Q2068.02 208.059 2070.72 208.059 Q2075.19 208.059 2077.48 210.837 Q2079.77 213.591 2079.77 218.961 Z" fill="#000000" fill-rule="evenodd" fill-opacity="1" /><path clip-path="url(#clip210)" d="M 0 0 M2114.33 212.665 Q2113.62 212.249 2112.76 212.063 Q2111.93 211.855 2110.91 211.855 Q2107.3 211.855 2105.35 214.216 Q2103.43 216.554 2103.43 220.952 L2103.43 234.61 L2099.15 234.61 L2099.15 208.684 L2103.43 208.684 L2103.43 212.712 Q2104.77 210.35 2106.93 209.216 Q2109.08 208.059 2112.16 208.059 Q2112.6 208.059 2113.13 208.128 Q2113.66 208.175 2114.31 208.29 L2114.33 212.665 Z" fill="#000000" fill-rule="evenodd" fill-opacity="1" /><path clip-path="url(#clip210)" d="M 0 0 M2139.94 220.582 L2139.94 222.665 L2120.35 222.665 Q2120.63 227.063 2122.99 229.378 Q2125.38 231.67 2129.61 231.67 Q2132.07 231.67 2134.36 231.068 Q2136.67 230.466 2138.94 229.262 L2138.94 233.29 Q2136.65 234.262 2134.24 234.772 Q2131.83 235.281 2129.36 235.281 Q2123.15 235.281 2119.52 231.67 Q2115.91 228.059 2115.91 221.901 Q2115.91 215.536 2119.33 211.809 Q2122.78 208.059 2128.62 208.059 Q2133.85 208.059 2136.88 211.438 Q2139.94 214.795 2139.94 220.582 M2135.68 219.332 Q2135.63 215.837 2133.71 213.753 Q2131.81 211.67 2128.66 211.67 Q2125.1 211.67 2122.95 213.684 Q2120.82 215.698 2120.49 219.355 L2135.68 219.332 Z" fill="#000000" fill-rule="evenodd" fill-opacity="1" /><path clip-path="url(#clip210)" d="M 0 0 M2161.46 221.346 Q2161.46 216.716 2159.54 214.17 Q2157.64 211.624 2154.2 211.624 Q2150.77 211.624 2148.85 214.17 Q2146.95 216.716 2146.95 221.346 Q2146.95 225.952 2148.85 228.498 Q2150.77 231.045 2154.2 231.045 Q2157.64 231.045 2159.54 228.498 Q2161.46 225.952 2161.46 221.346 M2165.72 231.392 Q2165.72 238.012 2162.78 241.23 Q2159.84 244.471 2153.78 244.471 Q2151.53 244.471 2149.54 244.123 Q2147.55 243.799 2145.68 243.105 L2145.68 238.961 Q2147.55 239.98 2149.38 240.466 Q2151.21 240.952 2153.11 240.952 Q2157.3 240.952 2159.38 238.753 Q2161.46 236.577 2161.46 232.156 L2161.46 230.049 Q2160.14 232.341 2158.08 233.475 Q2156.02 234.61 2153.15 234.61 Q2148.39 234.61 2145.47 230.975 Q2142.55 227.341 2142.55 221.346 Q2142.55 215.327 2145.47 211.693 Q2148.39 208.059 2153.15 208.059 Q2156.02 208.059 2158.08 209.193 Q2160.14 210.327 2161.46 212.619 L2161.46 208.684 L2165.72 208.684 L2165.72 231.392 Z" fill="#000000" fill-rule="evenodd" fill-opacity="1" /><path clip-path="url(#clip210)" d="M 0 0 M2170.19 208.684 L2174.45 208.684 L2174.45 234.61 L2170.19 234.61 L2170.19 208.684 M2170.19 198.591 L2174.45 198.591 L2174.45 203.985 L2170.19 203.985 L2170.19 198.591 Z" fill="#000000" fill-rule="evenodd" fill-opacity="1" /><path clip-path="url(#clip210)" d="M 0 0 M2188.96 211.67 Q2185.54 211.67 2183.55 214.355 Q2181.56 217.017 2181.56 221.67 Q2181.56 226.323 2183.52 229.008 Q2185.51 231.67 2188.96 231.67 Q2192.37 231.67 2194.36 228.985 Q2196.35 226.299 2196.35 221.67 Q2196.35 217.063 2194.36 214.378 Q2192.37 211.67 2188.96 211.67 M2188.96 208.059 Q2194.52 208.059 2197.69 211.67 Q2200.86 215.281 2200.86 221.67 Q2200.86 228.036 2197.69 231.67 Q2194.52 235.281 2188.96 235.281 Q2183.39 235.281 2180.21 231.67 Q2177.07 228.036 2177.07 221.67 Q2177.07 215.281 2180.21 211.67 Q2183.39 208.059 2188.96 208.059 Z" fill="#000000" fill-rule="evenodd" fill-opacity="1" /><path clip-path="url(#clip210)" d="M 0 0 M2226.88 218.961 L2226.88 234.61 L2222.62 234.61 L2222.62 219.1 Q2222.62 215.42 2221.19 213.591 Q2219.75 211.762 2216.88 211.762 Q2213.43 211.762 2211.44 213.962 Q2209.45 216.161 2209.45 219.957 L2209.45 234.61 L2205.17 234.61 L2205.17 208.684 L2209.45 208.684 L2209.45 212.712 Q2210.98 210.374 2213.04 209.216 Q2215.12 208.059 2217.83 208.059 Q2222.3 208.059 2224.59 210.837 Q2226.88 213.591 2226.88 218.961 Z" fill="#000000" fill-rule="evenodd" fill-opacity="1" /><path clip-path="url(#clip210)" d="
M1519.75 302.002 L1670.81 302.002 L1670.81 253.618 L1519.75 253.618 L1519.75 302.002  Z
  " fill="#ffa500" fill-rule="evenodd" fill-opacity="0.5"/>
<polyline clip-path="url(#clip210)" style="stroke:#ffa500; stroke-width:4; stroke-opacity:1; fill:none" points="
  1519.75,253.618 1670.81,253.618 
  "/>
<path clip-path="url(#clip210)" d="M 0 0 M1700.38 282.15 Q1700.38 286.849 1702.3 289.534 Q1704.24 292.196 1707.62 292.196 Q1711 292.196 1712.95 289.534 Q1714.89 286.849 1714.89 282.15 Q1714.89 277.451 1712.95 274.789 Q1711 272.104 1707.62 272.104 Q1704.24 272.104 1702.3 274.789 Q1700.38 277.451 1700.38 282.15 M1714.89 291.201 Q1713.55 293.515 1711.49 294.65 Q1709.45 295.761 1706.58 295.761 Q1701.88 295.761 1698.92 292.011 Q1695.98 288.261 1695.98 282.15 Q1695.98 276.039 1698.92 272.289 Q1701.88 268.539 1706.58 268.539 Q1709.45 268.539 1711.49 269.673 Q1713.55 270.784 1714.89 273.099 L1714.89 269.164 L1719.15 269.164 L1719.15 304.951 L1714.89 304.951 L1714.89 291.201 Z" fill="#000000" fill-rule="evenodd" fill-opacity="1" /><path clip-path="url(#clip210)" d="M 0 0 M1724.36 294.372 L1724.36 290.113 Q1726.12 290.946 1727.92 291.386 Q1729.73 291.826 1731.47 291.826 Q1736.1 291.826 1738.53 288.724 Q1740.98 285.599 1741.33 279.256 Q1739.98 281.247 1737.92 282.312 Q1735.86 283.377 1733.36 283.377 Q1728.18 283.377 1725.15 280.252 Q1722.14 277.104 1722.14 271.664 Q1722.14 266.34 1725.29 263.122 Q1728.43 259.905 1733.67 259.905 Q1739.66 259.905 1742.81 264.511 Q1745.98 269.094 1745.98 277.844 Q1745.98 286.016 1742.09 290.9 Q1738.23 295.761 1731.67 295.761 Q1729.92 295.761 1728.11 295.414 Q1726.3 295.066 1724.36 294.372 M1733.67 279.719 Q1736.81 279.719 1738.64 277.566 Q1740.49 275.414 1740.49 271.664 Q1740.49 267.937 1738.64 265.784 Q1736.81 263.608 1733.67 263.608 Q1730.52 263.608 1728.67 265.784 Q1726.84 267.937 1726.84 271.664 Q1726.84 275.414 1728.67 277.566 Q1730.52 279.719 1733.67 279.719 Z" fill="#000000" fill-rule="evenodd" fill-opacity="1" /><path clip-path="url(#clip210)" d="M 0 0 M1751.1 260.53 L1769.45 260.53 L1769.45 264.465 L1755.38 264.465 L1755.38 272.937 Q1756.4 272.59 1757.42 272.428 Q1758.43 272.242 1759.45 272.242 Q1765.24 272.242 1768.62 275.414 Q1772 278.585 1772 284.002 Q1772 289.58 1768.53 292.682 Q1765.05 295.761 1758.73 295.761 Q1756.56 295.761 1754.29 295.39 Q1752.04 295.02 1749.64 294.279 L1749.64 289.58 Q1751.72 290.715 1753.94 291.27 Q1756.17 291.826 1758.64 291.826 Q1762.65 291.826 1764.98 289.719 Q1767.32 287.613 1767.32 284.002 Q1767.32 280.391 1764.98 278.284 Q1762.65 276.178 1758.64 276.178 Q1756.77 276.178 1754.89 276.594 Q1753.04 277.011 1751.1 277.891 L1751.1 260.53 Z" fill="#000000" fill-rule="evenodd" fill-opacity="1" /><polyline clip-path="url(#clip210)" style="stroke:#0000ff; stroke-width:4; stroke-opacity:1; fill:none" points="
  1519.75,338.29 1670.81,338.29 
  "/>
<path clip-path="url(#clip210)" d="M 0 0 M1716.33 334.621 Q1717.92 331.75 1720.15 330.385 Q1722.37 329.019 1725.38 329.019 Q1729.43 329.019 1731.63 331.866 Q1733.83 334.69 1733.83 339.921 L1733.83 355.57 L1729.54 355.57 L1729.54 340.06 Q1729.54 336.334 1728.23 334.528 Q1726.91 332.722 1724.2 332.722 Q1720.89 332.722 1718.97 334.922 Q1717.04 337.121 1717.04 340.917 L1717.04 355.57 L1712.76 355.57 L1712.76 340.06 Q1712.76 336.31 1711.44 334.528 Q1710.12 332.722 1707.37 332.722 Q1704.11 332.722 1702.18 334.945 Q1700.26 337.144 1700.26 340.917 L1700.26 355.57 L1695.98 355.57 L1695.98 329.644 L1700.26 329.644 L1700.26 333.672 Q1701.72 331.287 1703.76 330.153 Q1705.79 329.019 1708.6 329.019 Q1711.42 329.019 1713.39 330.454 Q1715.38 331.889 1716.33 334.621 Z" fill="#000000" fill-rule="evenodd" fill-opacity="1" /><path clip-path="url(#clip210)" d="M 0 0 M1760.47 341.542 L1760.47 343.625 L1740.89 343.625 Q1741.17 348.023 1743.53 350.338 Q1745.91 352.63 1750.15 352.63 Q1752.6 352.63 1754.89 352.028 Q1757.21 351.426 1759.48 350.222 L1759.48 354.25 Q1757.18 355.222 1754.78 355.732 Q1752.37 356.241 1749.89 356.241 Q1743.69 356.241 1740.05 352.63 Q1736.44 349.019 1736.44 342.861 Q1736.44 336.496 1739.87 332.769 Q1743.32 329.019 1749.15 329.019 Q1754.38 329.019 1757.42 332.398 Q1760.47 335.755 1760.47 341.542 M1756.21 340.292 Q1756.17 336.797 1754.24 334.713 Q1752.35 332.63 1749.2 332.63 Q1745.63 332.63 1743.48 334.644 Q1741.35 336.658 1741.03 340.315 L1756.21 340.292 Z" fill="#000000" fill-rule="evenodd" fill-opacity="1" /><path clip-path="url(#clip210)" d="M 0 0 M1776.72 342.537 Q1771.56 342.537 1769.57 343.718 Q1767.58 344.898 1767.58 347.746 Q1767.58 350.014 1769.06 351.357 Q1770.56 352.676 1773.13 352.676 Q1776.67 352.676 1778.8 350.176 Q1780.96 347.653 1780.96 343.486 L1780.96 342.537 L1776.72 342.537 M1785.22 340.778 L1785.22 355.57 L1780.96 355.57 L1780.96 351.634 Q1779.5 353.995 1777.32 355.13 Q1775.15 356.241 1772 356.241 Q1768.02 356.241 1765.66 354.019 Q1763.32 351.773 1763.32 348.023 Q1763.32 343.648 1766.23 341.426 Q1769.17 339.204 1774.98 339.204 L1780.96 339.204 L1780.96 338.787 Q1780.96 335.847 1779.01 334.25 Q1777.09 332.63 1773.6 332.63 Q1771.37 332.63 1769.27 333.162 Q1767.16 333.695 1765.22 334.759 L1765.22 330.824 Q1767.55 329.922 1769.75 329.482 Q1771.95 329.019 1774.04 329.019 Q1779.66 329.019 1782.44 331.935 Q1785.22 334.852 1785.22 340.778 Z" fill="#000000" fill-rule="evenodd" fill-opacity="1" /><path clip-path="url(#clip210)" d="M 0 0 M1811.23 339.921 L1811.23 355.57 L1806.97 355.57 L1806.97 340.06 Q1806.97 336.38 1805.54 334.551 Q1804.1 332.722 1801.23 332.722 Q1797.79 332.722 1795.79 334.922 Q1793.8 337.121 1793.8 340.917 L1793.8 355.57 L1789.52 355.57 L1789.52 329.644 L1793.8 329.644 L1793.8 333.672 Q1795.33 331.334 1797.39 330.176 Q1799.48 329.019 1802.18 329.019 Q1806.65 329.019 1808.94 331.797 Q1811.23 334.551 1811.23 339.921 Z" fill="#000000" fill-rule="evenodd" fill-opacity="1" /><polyline clip-path="url(#clip210)" style="stroke:#000000; stroke-width:4; stroke-opacity:1; fill:none" points="
  1519.75,398.77 1670.81,398.77 
  "/>
<path clip-path="url(#clip210)" d="M 0 0 M1716.33 395.101 Q1717.92 392.23 1720.15 390.865 Q1722.37 389.499 1725.38 389.499 Q1729.43 389.499 1731.63 392.346 Q1733.83 395.17 1733.83 400.401 L1733.83 416.05 L1729.54 416.05 L1729.54 400.54 Q1729.54 396.814 1728.23 395.008 Q1726.91 393.202 1724.2 393.202 Q1720.89 393.202 1718.97 395.402 Q1717.04 397.601 1717.04 401.397 L1717.04 416.05 L1712.76 416.05 L1712.76 400.54 Q1712.76 396.79 1711.44 395.008 Q1710.12 393.202 1707.37 393.202 Q1704.11 393.202 1702.18 395.425 Q1700.26 397.624 1700.26 401.397 L1700.26 416.05 L1695.98 416.05 L1695.98 390.124 L1700.26 390.124 L1700.26 394.152 Q1701.72 391.767 1703.76 390.633 Q1705.79 389.499 1708.6 389.499 Q1711.42 389.499 1713.39 390.934 Q1715.38 392.369 1716.33 395.101 Z" fill="#000000" fill-rule="evenodd" fill-opacity="1" /><path clip-path="url(#clip210)" d="M 0 0 M1760.47 402.022 L1760.47 404.105 L1740.89 404.105 Q1741.17 408.503 1743.53 410.818 Q1745.91 413.11 1750.15 413.11 Q1752.6 413.11 1754.89 412.508 Q1757.21 411.906 1759.48 410.702 L1759.48 414.73 Q1757.18 415.702 1754.78 416.212 Q1752.37 416.721 1749.89 416.721 Q1743.69 416.721 1740.05 413.11 Q1736.44 409.499 1736.44 403.341 Q1736.44 396.976 1739.87 393.249 Q1743.32 389.499 1749.15 389.499 Q1754.38 389.499 1757.42 392.878 Q1760.47 396.235 1760.47 402.022 M1756.21 400.772 Q1756.17 397.277 1754.24 395.193 Q1752.35 393.11 1749.2 393.11 Q1745.63 393.11 1743.48 395.124 Q1741.35 397.138 1741.03 400.795 L1756.21 400.772 Z" fill="#000000" fill-rule="evenodd" fill-opacity="1" /><path clip-path="url(#clip210)" d="M 0 0 M1782 394.059 L1782 380.031 L1786.26 380.031 L1786.26 416.05 L1782 416.05 L1782 412.161 Q1780.66 414.475 1778.6 415.61 Q1776.56 416.721 1773.69 416.721 Q1768.99 416.721 1766.03 412.971 Q1763.09 409.221 1763.09 403.11 Q1763.09 396.999 1766.03 393.249 Q1768.99 389.499 1773.69 389.499 Q1776.56 389.499 1778.6 390.633 Q1780.66 391.744 1782 394.059 M1767.48 403.11 Q1767.48 407.809 1769.41 410.494 Q1771.35 413.156 1774.73 413.156 Q1778.11 413.156 1780.05 410.494 Q1782 407.809 1782 403.11 Q1782 398.411 1780.05 395.749 Q1778.11 393.064 1774.73 393.064 Q1771.35 393.064 1769.41 395.749 Q1767.48 398.411 1767.48 403.11 Z" fill="#000000" fill-rule="evenodd" fill-opacity="1" /><path clip-path="url(#clip210)" d="M 0 0 M1790.73 390.124 L1794.98 390.124 L1794.98 416.05 L1790.73 416.05 L1790.73 390.124 M1790.73 380.031 L1794.98 380.031 L1794.98 385.425 L1790.73 385.425 L1790.73 380.031 Z" fill="#000000" fill-rule="evenodd" fill-opacity="1" /><path clip-path="url(#clip210)" d="M 0 0 M1811.23 403.017 Q1806.07 403.017 1804.08 404.198 Q1802.09 405.378 1802.09 408.226 Q1802.09 410.494 1803.57 411.837 Q1805.08 413.156 1807.65 413.156 Q1811.19 413.156 1813.32 410.656 Q1815.47 408.133 1815.47 403.966 L1815.47 403.017 L1811.23 403.017 M1819.73 401.258 L1819.73 416.05 L1815.47 416.05 L1815.47 412.114 Q1814.01 414.475 1811.84 415.61 Q1809.66 416.721 1806.51 416.721 Q1802.53 416.721 1800.17 414.499 Q1797.83 412.253 1797.83 408.503 Q1797.83 404.128 1800.75 401.906 Q1803.69 399.684 1809.5 399.684 L1815.47 399.684 L1815.47 399.267 Q1815.47 396.327 1813.53 394.73 Q1811.6 393.11 1808.11 393.11 Q1805.89 393.11 1803.78 393.642 Q1801.67 394.175 1799.73 395.239 L1799.73 391.304 Q1802.07 390.402 1804.27 389.962 Q1806.47 389.499 1808.55 389.499 Q1814.17 389.499 1816.95 392.415 Q1819.73 395.332 1819.73 401.258 Z" fill="#000000" fill-rule="evenodd" fill-opacity="1" /><path clip-path="url(#clip210)" d="M 0 0 M1845.75 400.401 L1845.75 416.05 L1841.49 416.05 L1841.49 400.54 Q1841.49 396.86 1840.05 395.031 Q1838.62 393.202 1835.75 393.202 Q1832.3 393.202 1830.31 395.402 Q1828.32 397.601 1828.32 401.397 L1828.32 416.05 L1824.04 416.05 L1824.04 390.124 L1828.32 390.124 L1828.32 394.152 Q1829.85 391.814 1831.91 390.656 Q1833.99 389.499 1836.7 389.499 Q1841.16 389.499 1843.46 392.277 Q1845.75 395.031 1845.75 400.401 Z" fill="#000000" fill-rule="evenodd" fill-opacity="1" /></svg>
