<?xml version="1.0" encoding="utf-8"?>
<svg xmlns="http://www.w3.org/2000/svg" xmlns:xlink="http://www.w3.org/1999/xlink" width="600" height="400" viewBox="0 0 2400 1600">
<defs>
  <clipPath id="clip130">
    <rect x="0" y="0" width="2400" height="1600"/>
  </clipPath>
</defs>
<path clip-path="url(#clip130)" d="
M0 1600 L2400 1600 L2400 0 L0 0  Z
  " fill="#ffffff" fill-rule="evenodd" fill-opacity="1"/>
<defs>
  <clipPath id="clip131">
    <rect x="480" y="0" width="1681" height="1600"/>
  </clipPath>
</defs>
<path clip-path="url(#clip130)" d="
M163.936 1486.45 L2352.76 1486.45 L2352.76 47.2441 L163.936 47.2441  Z
  " fill="#ffffff" fill-rule="evenodd" fill-opacity="1"/>
<defs>
  <clipPath id="clip132">
    <rect x="163" y="47" width="2190" height="1440"/>
  </clipPath>
</defs>
<polyline clip-path="url(#clip132)" style="stroke:#000000; stroke-width:2; stroke-opacity:0.1; fill:none" points="
  194.442,1486.45 194.442,47.2441 
  "/>
<polyline clip-path="url(#clip132)" style="stroke:#000000; stroke-width:2; stroke-opacity:0.1; fill:none" points="
  718.965,1486.45 718.965,47.2441 
  "/>
<polyline clip-path="url(#clip132)" style="stroke:#000000; stroke-width:2; stroke-opacity:0.1; fill:none" points="
  1243.49,1486.45 1243.49,47.2441 
  "/>
<polyline clip-path="url(#clip132)" style="stroke:#000000; stroke-width:2; stroke-opacity:0.1; fill:none" points="
  1768.01,1486.45 1768.01,47.2441 
  "/>
<polyline clip-path="url(#clip132)" style="stroke:#000000; stroke-width:2; stroke-opacity:0.1; fill:none" points="
  2292.53,1486.45 2292.53,47.2441 
  "/>
<polyline clip-path="url(#clip132)" style="stroke:#000000; stroke-width:2; stroke-opacity:0.1; fill:none" points="
  163.936,1269.36 2352.76,1269.36 
  "/>
<polyline clip-path="url(#clip132)" style="stroke:#000000; stroke-width:2; stroke-opacity:0.1; fill:none" points="
  163.936,937.206 2352.76,937.206 
  "/>
<polyline clip-path="url(#clip132)" style="stroke:#000000; stroke-width:2; stroke-opacity:0.1; fill:none" points="
  163.936,605.052 2352.76,605.052 
  "/>
<polyline clip-path="url(#clip132)" style="stroke:#000000; stroke-width:2; stroke-opacity:0.1; fill:none" points="
  163.936,272.898 2352.76,272.898 
  "/>
<polyline clip-path="url(#clip130)" style="stroke:#000000; stroke-width:4; stroke-opacity:1; fill:none" points="
  163.936,1486.45 2352.76,1486.45 
  "/>
<polyline clip-path="url(#clip130)" style="stroke:#000000; stroke-width:4; stroke-opacity:1; fill:none" points="
  163.936,1486.45 163.936,47.2441 
  "/>
<polyline clip-path="url(#clip130)" style="stroke:#000000; stroke-width:4; stroke-opacity:1; fill:none" points="
  194.442,1486.45 194.442,1469.18 
  "/>
<polyline clip-path="url(#clip130)" style="stroke:#000000; stroke-width:4; stroke-opacity:1; fill:none" points="
  718.965,1486.45 718.965,1469.18 
  "/>
<polyline clip-path="url(#clip130)" style="stroke:#000000; stroke-width:4; stroke-opacity:1; fill:none" points="
  1243.49,1486.45 1243.49,1469.18 
  "/>
<polyline clip-path="url(#clip130)" style="stroke:#000000; stroke-width:4; stroke-opacity:1; fill:none" points="
  1768.01,1486.45 1768.01,1469.18 
  "/>
<polyline clip-path="url(#clip130)" style="stroke:#000000; stroke-width:4; stroke-opacity:1; fill:none" points="
  2292.53,1486.45 2292.53,1469.18 
  "/>
<polyline clip-path="url(#clip130)" style="stroke:#000000; stroke-width:4; stroke-opacity:1; fill:none" points="
  163.936,1269.36 190.202,1269.36 
  "/>
<polyline clip-path="url(#clip130)" style="stroke:#000000; stroke-width:4; stroke-opacity:1; fill:none" points="
  163.936,937.206 190.202,937.206 
  "/>
<polyline clip-path="url(#clip130)" style="stroke:#000000; stroke-width:4; stroke-opacity:1; fill:none" points="
  163.936,605.052 190.202,605.052 
  "/>
<polyline clip-path="url(#clip130)" style="stroke:#000000; stroke-width:4; stroke-opacity:1; fill:none" points="
  163.936,272.898 190.202,272.898 
  "/>
<path clip-path="url(#clip130)" d="M 0 0 M143.319 1525.04 L155.796 1525.04 L155.796 1528.83 L143.319 1528.83 L143.319 1525.04 Z" fill="#000000" fill-rule="evenodd" fill-opacity="1" /><path clip-path="url(#clip130)" d="M 0 0 M161.676 1535.98 L169.314 1535.98 L169.314 1509.62 L161.004 1511.29 L161.004 1507.03 L169.268 1505.36 L173.944 1505.36 L173.944 1535.98 L181.583 1535.98 L181.583 1539.92 L161.676 1539.92 L161.676 1535.98 Z" fill="#000000" fill-rule="evenodd" fill-opacity="1" /><path clip-path="url(#clip130)" d="M 0 0 M186.652 1534.04 L191.536 1534.04 L191.536 1539.92 L186.652 1539.92 L186.652 1534.04 Z" fill="#000000" fill-rule="evenodd" fill-opacity="1" /><path clip-path="url(#clip130)" d="M 0 0 M206.606 1508.44 Q202.995 1508.44 201.166 1512 Q199.361 1515.55 199.361 1522.67 Q199.361 1529.78 201.166 1533.35 Q202.995 1536.89 206.606 1536.89 Q210.24 1536.89 212.046 1533.35 Q213.874 1529.78 213.874 1522.67 Q213.874 1515.55 212.046 1512 Q210.24 1508.44 206.606 1508.44 M206.606 1504.73 Q212.416 1504.73 215.472 1509.34 Q218.55 1513.92 218.55 1522.67 Q218.55 1531.4 215.472 1536.01 Q212.416 1540.59 206.606 1540.59 Q200.796 1540.59 197.717 1536.01 Q194.661 1531.4 194.661 1522.67 Q194.661 1513.92 197.717 1509.34 Q200.796 1504.73 206.606 1504.73 Z" fill="#000000" fill-rule="evenodd" fill-opacity="1" /><path clip-path="url(#clip130)" d="M 0 0 M233.62 1508.44 Q230.009 1508.44 228.18 1512 Q226.374 1515.55 226.374 1522.67 Q226.374 1529.78 228.18 1533.35 Q230.009 1536.89 233.62 1536.89 Q237.254 1536.89 239.059 1533.35 Q240.888 1529.78 240.888 1522.67 Q240.888 1515.55 239.059 1512 Q237.254 1508.44 233.62 1508.44 M233.62 1504.73 Q239.43 1504.73 242.485 1509.34 Q245.564 1513.92 245.564 1522.67 Q245.564 1531.4 242.485 1536.01 Q239.43 1540.59 233.62 1540.59 Q227.809 1540.59 224.731 1536.01 Q221.675 1531.4 221.675 1522.67 Q221.675 1513.92 224.731 1509.34 Q227.809 1504.73 233.62 1504.73 Z" fill="#000000" fill-rule="evenodd" fill-opacity="1" /><path clip-path="url(#clip130)" d="M 0 0 M668.178 1525.04 L680.655 1525.04 L680.655 1528.83 L668.178 1528.83 L668.178 1525.04 Z" fill="#000000" fill-rule="evenodd" fill-opacity="1" /><path clip-path="url(#clip130)" d="M 0 0 M695.724 1508.44 Q692.113 1508.44 690.284 1512 Q688.479 1515.55 688.479 1522.67 Q688.479 1529.78 690.284 1533.35 Q692.113 1536.89 695.724 1536.89 Q699.358 1536.89 701.164 1533.35 Q702.993 1529.78 702.993 1522.67 Q702.993 1515.55 701.164 1512 Q699.358 1508.44 695.724 1508.44 M695.724 1504.73 Q701.534 1504.73 704.59 1509.34 Q707.668 1513.92 707.668 1522.67 Q707.668 1531.4 704.59 1536.01 Q701.534 1540.59 695.724 1540.59 Q689.914 1540.59 686.835 1536.01 Q683.78 1531.4 683.78 1522.67 Q683.78 1513.92 686.835 1509.34 Q689.914 1504.73 695.724 1504.73 Z" fill="#000000" fill-rule="evenodd" fill-opacity="1" /><path clip-path="url(#clip130)" d="M 0 0 M712.738 1534.04 L717.622 1534.04 L717.622 1539.92 L712.738 1539.92 L712.738 1534.04 Z" fill="#000000" fill-rule="evenodd" fill-opacity="1" /><path clip-path="url(#clip130)" d="M 0 0 M721.511 1505.36 L743.733 1505.36 L743.733 1507.35 L731.187 1539.92 L726.303 1539.92 L738.108 1509.3 L721.511 1509.3 L721.511 1505.36 Z" fill="#000000" fill-rule="evenodd" fill-opacity="1" /><path clip-path="url(#clip130)" d="M 0 0 M748.849 1505.36 L767.205 1505.36 L767.205 1509.3 L753.131 1509.3 L753.131 1517.77 Q754.15 1517.42 755.168 1517.26 Q756.187 1517.07 757.205 1517.07 Q762.992 1517.07 766.372 1520.24 Q769.751 1523.42 769.751 1528.83 Q769.751 1534.41 766.279 1537.51 Q762.807 1540.59 756.488 1540.59 Q754.312 1540.59 752.043 1540.22 Q749.798 1539.85 747.39 1539.11 L747.39 1534.41 Q749.474 1535.54 751.696 1536.1 Q753.918 1536.66 756.395 1536.66 Q760.4 1536.66 762.738 1534.55 Q765.076 1532.44 765.076 1528.83 Q765.076 1525.22 762.738 1523.11 Q760.4 1521.01 756.395 1521.01 Q754.52 1521.01 752.645 1521.42 Q750.793 1521.84 748.849 1522.72 L748.849 1505.36 Z" fill="#000000" fill-rule="evenodd" fill-opacity="1" /><path clip-path="url(#clip130)" d="M 0 0 M1192.25 1525.04 L1204.73 1525.04 L1204.73 1528.83 L1192.25 1528.83 L1192.25 1525.04 Z" fill="#000000" fill-rule="evenodd" fill-opacity="1" /><path clip-path="url(#clip130)" d="M 0 0 M1219.8 1508.44 Q1216.18 1508.44 1214.36 1512 Q1212.55 1515.55 1212.55 1522.67 Q1212.55 1529.78 1214.36 1533.35 Q1216.18 1536.89 1219.8 1536.89 Q1223.43 1536.89 1225.24 1533.35 Q1227.06 1529.78 1227.06 1522.67 Q1227.06 1515.55 1225.24 1512 Q1223.43 1508.44 1219.8 1508.44 M1219.8 1504.73 Q1225.61 1504.73 1228.66 1509.34 Q1231.74 1513.92 1231.74 1522.67 Q1231.74 1531.4 1228.66 1536.01 Q1225.61 1540.59 1219.8 1540.59 Q1213.99 1540.59 1210.91 1536.01 Q1207.85 1531.4 1207.85 1522.67 Q1207.85 1513.92 1210.91 1509.34 Q1213.99 1504.73 1219.8 1504.73 Z" fill="#000000" fill-rule="evenodd" fill-opacity="1" /><path clip-path="url(#clip130)" d="M 0 0 M1236.81 1534.04 L1241.69 1534.04 L1241.69 1539.92 L1236.81 1539.92 L1236.81 1534.04 Z" fill="#000000" fill-rule="evenodd" fill-opacity="1" /><path clip-path="url(#clip130)" d="M 0 0 M1246.81 1505.36 L1265.17 1505.36 L1265.17 1509.3 L1251.09 1509.3 L1251.09 1517.77 Q1252.11 1517.42 1253.13 1517.26 Q1254.15 1517.07 1255.17 1517.07 Q1260.95 1517.07 1264.33 1520.24 Q1267.71 1523.42 1267.71 1528.83 Q1267.71 1534.41 1264.24 1537.51 Q1260.77 1540.59 1254.45 1540.59 Q1252.27 1540.59 1250 1540.22 Q1247.76 1539.85 1245.35 1539.11 L1245.35 1534.41 Q1247.43 1535.54 1249.66 1536.1 Q1251.88 1536.66 1254.36 1536.66 Q1258.36 1536.66 1260.7 1534.55 Q1263.04 1532.44 1263.04 1528.83 Q1263.04 1525.22 1260.7 1523.11 Q1258.36 1521.01 1254.36 1521.01 Q1252.48 1521.01 1250.61 1521.42 Q1248.75 1521.84 1246.81 1522.72 L1246.81 1505.36 Z" fill="#000000" fill-rule="evenodd" fill-opacity="1" /><path clip-path="url(#clip130)" d="M 0 0 M1282.78 1508.44 Q1279.17 1508.44 1277.34 1512 Q1275.54 1515.55 1275.54 1522.67 Q1275.54 1529.78 1277.34 1533.35 Q1279.17 1536.89 1282.78 1536.89 Q1286.42 1536.89 1288.22 1533.35 Q1290.05 1529.78 1290.05 1522.67 Q1290.05 1515.55 1288.22 1512 Q1286.42 1508.44 1282.78 1508.44 M1282.78 1504.73 Q1288.59 1504.73 1291.65 1509.34 Q1294.73 1513.92 1294.73 1522.67 Q1294.73 1531.4 1291.65 1536.01 Q1288.59 1540.59 1282.78 1540.59 Q1276.97 1540.59 1273.89 1536.01 Q1270.84 1531.4 1270.84 1522.67 Q1270.84 1513.92 1273.89 1509.34 Q1276.97 1504.73 1282.78 1504.73 Z" fill="#000000" fill-rule="evenodd" fill-opacity="1" /><path clip-path="url(#clip130)" d="M 0 0 M1717.57 1525.04 L1730.05 1525.04 L1730.05 1528.83 L1717.57 1528.83 L1717.57 1525.04 Z" fill="#000000" fill-rule="evenodd" fill-opacity="1" /><path clip-path="url(#clip130)" d="M 0 0 M1745.12 1508.44 Q1741.51 1508.44 1739.68 1512 Q1737.87 1515.55 1737.87 1522.67 Q1737.87 1529.78 1739.68 1533.35 Q1741.51 1536.89 1745.12 1536.89 Q1748.75 1536.89 1750.56 1533.35 Q1752.39 1529.78 1752.39 1522.67 Q1752.39 1515.55 1750.56 1512 Q1748.75 1508.44 1745.12 1508.44 M1745.12 1504.73 Q1750.93 1504.73 1753.98 1509.34 Q1757.06 1513.92 1757.06 1522.67 Q1757.06 1531.4 1753.98 1536.01 Q1750.93 1540.59 1745.12 1540.59 Q1739.31 1540.59 1736.23 1536.01 Q1733.17 1531.4 1733.17 1522.67 Q1733.17 1513.92 1736.23 1509.34 Q1739.31 1504.73 1745.12 1504.73 Z" fill="#000000" fill-rule="evenodd" fill-opacity="1" /><path clip-path="url(#clip130)" d="M 0 0 M1762.13 1534.04 L1767.02 1534.04 L1767.02 1539.92 L1762.13 1539.92 L1762.13 1534.04 Z" fill="#000000" fill-rule="evenodd" fill-opacity="1" /><path clip-path="url(#clip130)" d="M 0 0 M1776.11 1535.98 L1792.43 1535.98 L1792.43 1539.92 L1770.49 1539.92 L1770.49 1535.98 Q1773.15 1533.23 1777.73 1528.6 Q1782.34 1523.95 1783.52 1522.61 Q1785.77 1520.08 1786.65 1518.35 Q1787.55 1516.59 1787.55 1514.9 Q1787.55 1512.14 1785.6 1510.41 Q1783.68 1508.67 1780.58 1508.67 Q1778.38 1508.67 1775.93 1509.43 Q1773.5 1510.2 1770.72 1511.75 L1770.72 1507.03 Q1773.54 1505.89 1776 1505.31 Q1778.45 1504.73 1780.49 1504.73 Q1785.86 1504.73 1789.05 1507.42 Q1792.25 1510.11 1792.25 1514.6 Q1792.25 1516.73 1791.44 1518.65 Q1790.65 1520.54 1788.54 1523.14 Q1787.96 1523.81 1784.86 1527.03 Q1781.76 1530.22 1776.11 1535.98 Z" fill="#000000" fill-rule="evenodd" fill-opacity="1" /><path clip-path="url(#clip130)" d="M 0 0 M1797.55 1505.36 L1815.9 1505.36 L1815.9 1509.3 L1801.83 1509.3 L1801.83 1517.77 Q1802.85 1517.42 1803.87 1517.26 Q1804.89 1517.07 1805.9 1517.07 Q1811.69 1517.07 1815.07 1520.24 Q1818.45 1523.42 1818.45 1528.83 Q1818.45 1534.41 1814.98 1537.51 Q1811.51 1540.59 1805.19 1540.59 Q1803.01 1540.59 1800.74 1540.22 Q1798.5 1539.85 1796.09 1539.11 L1796.09 1534.41 Q1798.17 1535.54 1800.39 1536.1 Q1802.62 1536.66 1805.09 1536.66 Q1809.1 1536.66 1811.44 1534.55 Q1813.77 1532.44 1813.77 1528.83 Q1813.77 1525.22 1811.44 1523.11 Q1809.1 1521.01 1805.09 1521.01 Q1803.22 1521.01 1801.34 1521.42 Q1799.49 1521.84 1797.55 1522.72 L1797.55 1505.36 Z" fill="#000000" fill-rule="evenodd" fill-opacity="1" /><path clip-path="url(#clip130)" d="M 0 0 M2260.54 1508.44 Q2256.93 1508.44 2255.1 1512 Q2253.3 1515.55 2253.3 1522.67 Q2253.3 1529.78 2255.1 1533.35 Q2256.93 1536.89 2260.54 1536.89 Q2264.18 1536.89 2265.98 1533.35 Q2267.81 1529.78 2267.81 1522.67 Q2267.81 1515.55 2265.98 1512 Q2264.18 1508.44 2260.54 1508.44 M2260.54 1504.73 Q2266.35 1504.73 2269.41 1509.34 Q2272.49 1513.92 2272.49 1522.67 Q2272.49 1531.4 2269.41 1536.01 Q2266.35 1540.59 2260.54 1540.59 Q2254.73 1540.59 2251.65 1536.01 Q2248.6 1531.4 2248.6 1522.67 Q2248.6 1513.92 2251.65 1509.34 Q2254.73 1504.73 2260.54 1504.73 Z" fill="#000000" fill-rule="evenodd" fill-opacity="1" /><path clip-path="url(#clip130)" d="M 0 0 M2277.56 1534.04 L2282.44 1534.04 L2282.44 1539.92 L2277.56 1539.92 L2277.56 1534.04 Z" fill="#000000" fill-rule="evenodd" fill-opacity="1" /><path clip-path="url(#clip130)" d="M 0 0 M2297.51 1508.44 Q2293.9 1508.44 2292.07 1512 Q2290.27 1515.55 2290.27 1522.67 Q2290.27 1529.78 2292.07 1533.35 Q2293.9 1536.89 2297.51 1536.89 Q2301.15 1536.89 2302.95 1533.35 Q2304.78 1529.78 2304.78 1522.67 Q2304.78 1515.55 2302.95 1512 Q2301.15 1508.44 2297.51 1508.44 M2297.51 1504.73 Q2303.32 1504.73 2306.38 1509.34 Q2309.46 1513.92 2309.46 1522.67 Q2309.46 1531.4 2306.38 1536.01 Q2303.32 1540.59 2297.51 1540.59 Q2291.7 1540.59 2288.62 1536.01 Q2285.57 1531.4 2285.57 1522.67 Q2285.57 1513.92 2288.62 1509.34 Q2291.7 1504.73 2297.51 1504.73 Z" fill="#000000" fill-rule="evenodd" fill-opacity="1" /><path clip-path="url(#clip130)" d="M 0 0 M2324.52 1508.44 Q2320.91 1508.44 2319.08 1512 Q2317.28 1515.55 2317.28 1522.67 Q2317.28 1529.78 2319.08 1533.35 Q2320.91 1536.89 2324.52 1536.89 Q2328.16 1536.89 2329.96 1533.35 Q2331.79 1529.78 2331.79 1522.67 Q2331.79 1515.55 2329.96 1512 Q2328.16 1508.44 2324.52 1508.44 M2324.52 1504.73 Q2330.33 1504.73 2333.39 1509.34 Q2336.47 1513.92 2336.47 1522.67 Q2336.47 1531.4 2333.39 1536.01 Q2330.33 1540.59 2324.52 1540.59 Q2318.71 1540.59 2315.64 1536.01 Q2312.58 1531.4 2312.58 1522.67 Q2312.58 1513.92 2315.64 1509.34 Q2318.71 1504.73 2324.52 1504.73 Z" fill="#000000" fill-rule="evenodd" fill-opacity="1" /><path clip-path="url(#clip130)" d="M 0 0 M63.5708 1271.76 L76.0476 1271.76 L76.0476 1275.55 L63.5708 1275.55 L63.5708 1271.76 Z" fill="#000000" fill-rule="evenodd" fill-opacity="1" /><path clip-path="url(#clip130)" d="M 0 0 M91.117 1255.16 Q87.5059 1255.16 85.6772 1258.72 Q83.8716 1262.27 83.8716 1269.4 Q83.8716 1276.5 85.6772 1280.07 Q87.5059 1283.61 91.117 1283.61 Q94.7512 1283.61 96.5568 1280.07 Q98.3855 1276.5 98.3855 1269.4 Q98.3855 1262.27 96.5568 1258.72 Q94.7512 1255.16 91.117 1255.16 M91.117 1251.46 Q96.9271 1251.46 99.9827 1256.06 Q103.061 1260.65 103.061 1269.4 Q103.061 1278.12 99.9827 1282.73 Q96.9271 1287.31 91.117 1287.31 Q85.3068 1287.31 82.2281 1282.73 Q79.1726 1278.12 79.1726 1269.4 Q79.1726 1260.65 82.2281 1256.06 Q85.3068 1251.46 91.117 1251.46 Z" fill="#000000" fill-rule="evenodd" fill-opacity="1" /><path clip-path="url(#clip130)" d="M 0 0 M108.131 1280.76 L113.015 1280.76 L113.015 1286.64 L108.131 1286.64 L108.131 1280.76 Z" fill="#000000" fill-rule="evenodd" fill-opacity="1" /><path clip-path="url(#clip130)" d="M 0 0 M128.084 1270.23 Q124.751 1270.23 122.83 1272.01 Q120.932 1273.79 120.932 1276.92 Q120.932 1280.04 122.83 1281.83 Q124.751 1283.61 128.084 1283.61 Q131.418 1283.61 133.339 1281.83 Q135.26 1280.02 135.26 1276.92 Q135.26 1273.79 133.339 1272.01 Q131.441 1270.23 128.084 1270.23 M123.408 1268.24 Q120.399 1267.5 118.709 1265.44 Q117.043 1263.38 117.043 1260.41 Q117.043 1256.27 119.983 1253.86 Q122.946 1251.46 128.084 1251.46 Q133.246 1251.46 136.186 1253.86 Q139.126 1256.27 139.126 1260.41 Q139.126 1263.38 137.436 1265.44 Q135.77 1267.5 132.783 1268.24 Q136.163 1269.02 138.038 1271.32 Q139.936 1273.61 139.936 1276.92 Q139.936 1281.94 136.857 1284.63 Q133.802 1287.31 128.084 1287.31 Q122.367 1287.31 119.288 1284.63 Q116.233 1281.94 116.233 1276.92 Q116.233 1273.61 118.131 1271.32 Q120.029 1269.02 123.408 1268.24 M121.696 1260.85 Q121.696 1263.54 123.362 1265.04 Q125.052 1266.55 128.084 1266.55 Q131.094 1266.55 132.783 1265.04 Q134.496 1263.54 134.496 1260.85 Q134.496 1258.17 132.783 1256.66 Q131.094 1255.16 128.084 1255.16 Q125.052 1255.16 123.362 1256.66 Q121.696 1258.17 121.696 1260.85 Z" fill="#000000" fill-rule="evenodd" fill-opacity="1" /><path clip-path="url(#clip130)" d="M 0 0 M63.3162 939.602 L75.793 939.602 L75.793 943.398 L63.3162 943.398 L63.3162 939.602 Z" fill="#000000" fill-rule="evenodd" fill-opacity="1" /><path clip-path="url(#clip130)" d="M 0 0 M90.8623 923.005 Q87.2513 923.005 85.4226 926.57 Q83.617 930.111 83.617 937.241 Q83.617 944.347 85.4226 947.912 Q87.2513 951.454 90.8623 951.454 Q94.4966 951.454 96.3021 947.912 Q98.1308 944.347 98.1308 937.241 Q98.1308 930.111 96.3021 926.57 Q94.4966 923.005 90.8623 923.005 M90.8623 919.301 Q96.6725 919.301 99.728 923.908 Q102.807 928.491 102.807 937.241 Q102.807 945.968 99.728 950.574 Q96.6725 955.158 90.8623 955.158 Q85.0522 955.158 81.9735 950.574 Q78.918 945.968 78.918 937.241 Q78.918 928.491 81.9735 923.908 Q85.0522 919.301 90.8623 919.301 Z" fill="#000000" fill-rule="evenodd" fill-opacity="1" /><path clip-path="url(#clip130)" d="M 0 0 M107.876 948.607 L112.76 948.607 L112.76 954.486 L107.876 954.486 L107.876 948.607 Z" fill="#000000" fill-rule="evenodd" fill-opacity="1" /><path clip-path="url(#clip130)" d="M 0 0 M128.408 935.343 Q125.26 935.343 123.408 937.496 Q121.58 939.648 121.58 943.398 Q121.58 947.125 123.408 949.301 Q125.26 951.454 128.408 951.454 Q131.557 951.454 133.385 949.301 Q135.237 947.125 135.237 943.398 Q135.237 939.648 133.385 937.496 Q131.557 935.343 128.408 935.343 M137.691 920.69 L137.691 924.949 Q135.932 924.116 134.126 923.676 Q132.344 923.236 130.584 923.236 Q125.955 923.236 123.501 926.361 Q121.071 929.486 120.723 935.806 Q122.089 933.792 124.149 932.727 Q126.209 931.639 128.686 931.639 Q133.895 931.639 136.904 934.81 Q139.936 937.959 139.936 943.398 Q139.936 948.722 136.788 951.94 Q133.64 955.158 128.408 955.158 Q122.413 955.158 119.242 950.574 Q116.071 945.968 116.071 937.241 Q116.071 929.047 119.959 924.186 Q123.848 919.301 130.399 919.301 Q132.158 919.301 133.941 919.649 Q135.746 919.996 137.691 920.69 Z" fill="#000000" fill-rule="evenodd" fill-opacity="1" /><path clip-path="url(#clip130)" d="M 0 0 M62.9921 607.448 L75.4689 607.448 L75.4689 611.244 L62.9921 611.244 L62.9921 607.448 Z" fill="#000000" fill-rule="evenodd" fill-opacity="1" /><path clip-path="url(#clip130)" d="M 0 0 M90.5383 590.851 Q86.9272 590.851 85.0985 594.416 Q83.2929 597.957 83.2929 605.087 Q83.2929 612.193 85.0985 615.758 Q86.9272 619.3 90.5383 619.3 Q94.1725 619.3 95.9781 615.758 Q97.8068 612.193 97.8068 605.087 Q97.8068 597.957 95.9781 594.416 Q94.1725 590.851 90.5383 590.851 M90.5383 587.147 Q96.3484 587.147 99.404 591.753 Q102.483 596.337 102.483 605.087 Q102.483 613.814 99.404 618.42 Q96.3484 623.003 90.5383 623.003 Q84.7281 623.003 81.6494 618.42 Q78.5939 613.814 78.5939 605.087 Q78.5939 596.337 81.6494 591.753 Q84.7281 587.147 90.5383 587.147 Z" fill="#000000" fill-rule="evenodd" fill-opacity="1" /><path clip-path="url(#clip130)" d="M 0 0 M107.552 616.452 L112.436 616.452 L112.436 622.332 L107.552 622.332 L107.552 616.452 Z" fill="#000000" fill-rule="evenodd" fill-opacity="1" /><path clip-path="url(#clip130)" d="M 0 0 M130.353 591.846 L118.547 610.295 L130.353 610.295 L130.353 591.846 M129.126 587.772 L135.006 587.772 L135.006 610.295 L139.936 610.295 L139.936 614.184 L135.006 614.184 L135.006 622.332 L130.353 622.332 L130.353 614.184 L114.751 614.184 L114.751 609.67 L129.126 587.772 Z" fill="#000000" fill-rule="evenodd" fill-opacity="1" /><path clip-path="url(#clip130)" d="M 0 0 M65.0754 275.294 L77.5522 275.294 L77.5522 279.09 L65.0754 279.09 L65.0754 275.294 Z" fill="#000000" fill-rule="evenodd" fill-opacity="1" /><path clip-path="url(#clip130)" d="M 0 0 M92.6216 258.696 Q89.0105 258.696 87.1818 262.261 Q85.3763 265.803 85.3763 272.932 Q85.3763 280.039 87.1818 283.604 Q89.0105 287.145 92.6216 287.145 Q96.2558 287.145 98.0614 283.604 Q99.8901 280.039 99.8901 272.932 Q99.8901 265.803 98.0614 262.261 Q96.2558 258.696 92.6216 258.696 M92.6216 254.993 Q98.4318 254.993 101.487 259.599 Q104.566 264.183 104.566 272.932 Q104.566 281.659 101.487 286.266 Q98.4318 290.849 92.6216 290.849 Q86.8114 290.849 83.7328 286.266 Q80.6772 281.659 80.6772 272.932 Q80.6772 264.183 83.7328 259.599 Q86.8114 254.993 92.6216 254.993 Z" fill="#000000" fill-rule="evenodd" fill-opacity="1" /><path clip-path="url(#clip130)" d="M 0 0 M109.635 284.298 L114.52 284.298 L114.52 290.178 L109.635 290.178 L109.635 284.298 Z" fill="#000000" fill-rule="evenodd" fill-opacity="1" /><path clip-path="url(#clip130)" d="M 0 0 M123.617 286.243 L139.936 286.243 L139.936 290.178 L117.992 290.178 L117.992 286.243 Q120.654 283.488 125.237 278.858 Q129.844 274.206 131.024 272.863 Q133.27 270.34 134.149 268.604 Q135.052 266.845 135.052 265.155 Q135.052 262.4 133.107 260.664 Q131.186 258.928 128.084 258.928 Q125.885 258.928 123.432 259.692 Q121.001 260.456 118.223 262.007 L118.223 257.284 Q121.047 256.15 123.501 255.571 Q125.955 254.993 127.992 254.993 Q133.362 254.993 136.557 257.678 Q139.751 260.363 139.751 264.854 Q139.751 266.983 138.941 268.905 Q138.154 270.803 136.047 273.395 Q135.469 274.067 132.367 277.284 Q129.265 280.479 123.617 286.243 Z" fill="#000000" fill-rule="evenodd" fill-opacity="1" /><circle clip-path="url(#clip132)" cx="789.45" cy="961.532" r="14" fill="#009af9" fill-rule="evenodd" fill-opacity="1" stroke="#000000" stroke-opacity="1" stroke-width="3.2"/>
<circle clip-path="url(#clip132)" cx="1694.08" cy="823.946" r="14" fill="#009af9" fill-rule="evenodd" fill-opacity="1" stroke="#000000" stroke-opacity="1" stroke-width="3.2"/>
<circle clip-path="url(#clip132)" cx="1578.84" cy="600.738" r="14" fill="#009af9" fill-rule="evenodd" fill-opacity="1" stroke="#000000" stroke-opacity="1" stroke-width="3.2"/>
<circle clip-path="url(#clip132)" cx="1871.47" cy="312.447" r="14" fill="#009af9" fill-rule="evenodd" fill-opacity="1" stroke="#000000" stroke-opacity="1" stroke-width="3.2"/>
<circle clip-path="url(#clip132)" cx="1565.51" cy="437.736" r="14" fill="#009af9" fill-rule="evenodd" fill-opacity="1" stroke="#000000" stroke-opacity="1" stroke-width="3.2"/>
<circle clip-path="url(#clip132)" cx="518.532" cy="1261.25" r="14" fill="#009af9" fill-rule="evenodd" fill-opacity="1" stroke="#000000" stroke-opacity="1" stroke-width="3.2"/>
<circle clip-path="url(#clip132)" cx="2290.81" cy="359.71" r="14" fill="#009af9" fill-rule="evenodd" fill-opacity="1" stroke="#000000" stroke-opacity="1" stroke-width="3.2"/>
<circle clip-path="url(#clip132)" cx="486.675" cy="904.075" r="14" fill="#009af9" fill-rule="evenodd" fill-opacity="1" stroke="#000000" stroke-opacity="1" stroke-width="3.2"/>
<circle clip-path="url(#clip132)" cx="1965.06" cy="255.181" r="14" fill="#009af9" fill-rule="evenodd" fill-opacity="1" stroke="#000000" stroke-opacity="1" stroke-width="3.2"/>
<circle clip-path="url(#clip132)" cx="225.884" cy="1445.72" r="14" fill="#009af9" fill-rule="evenodd" fill-opacity="1" stroke="#000000" stroke-opacity="1" stroke-width="3.2"/>
<circle clip-path="url(#clip132)" cx="2235.27" cy="220.49" r="14" fill="#009af9" fill-rule="evenodd" fill-opacity="1" stroke="#000000" stroke-opacity="1" stroke-width="3.2"/>
<circle clip-path="url(#clip132)" cx="2123.92" cy="87.9763" r="14" fill="#009af9" fill-rule="evenodd" fill-opacity="1" stroke="#000000" stroke-opacity="1" stroke-width="3.2"/>
<circle clip-path="url(#clip132)" cx="607.188" cy="998.749" r="14" fill="#009af9" fill-rule="evenodd" fill-opacity="1" stroke="#000000" stroke-opacity="1" stroke-width="3.2"/>
<circle clip-path="url(#clip132)" cx="1510.94" cy="602.707" r="14" fill="#009af9" fill-rule="evenodd" fill-opacity="1" stroke="#000000" stroke-opacity="1" stroke-width="3.2"/>
<circle clip-path="url(#clip132)" cx="1714.12" cy="391.569" r="14" fill="#009af9" fill-rule="evenodd" fill-opacity="1" stroke="#000000" stroke-opacity="1" stroke-width="3.2"/>
<circle clip-path="url(#clip132)" cx="635.442" cy="1217.26" r="14" fill="#009af9" fill-rule="evenodd" fill-opacity="1" stroke="#000000" stroke-opacity="1" stroke-width="3.2"/>
<circle clip-path="url(#clip132)" cx="2116.96" cy="239.389" r="14" fill="#009af9" fill-rule="evenodd" fill-opacity="1" stroke="#000000" stroke-opacity="1" stroke-width="3.2"/>
<circle clip-path="url(#clip132)" cx="338.182" cy="1271.47" r="14" fill="#009af9" fill-rule="evenodd" fill-opacity="1" stroke="#000000" stroke-opacity="1" stroke-width="3.2"/>
<circle clip-path="url(#clip132)" cx="736.786" cy="896.33" r="14" fill="#009af9" fill-rule="evenodd" fill-opacity="1" stroke="#000000" stroke-opacity="1" stroke-width="3.2"/>
<circle clip-path="url(#clip132)" cx="1325.89" cy="666.299" r="14" fill="#009af9" fill-rule="evenodd" fill-opacity="1" stroke="#000000" stroke-opacity="1" stroke-width="3.2"/>
<path clip-path="url(#clip130)" d="
M1985.57 216.178 L2279.8 216.178 L2279.8 95.2176 L1985.57 95.2176  Z
  " fill="#ffffff" fill-rule="evenodd" fill-opacity="1"/>
<polyline clip-path="url(#clip130)" style="stroke:#000000; stroke-width:4; stroke-opacity:1; fill:none" points="
  1985.57,216.178 2279.8,216.178 2279.8,95.2176 1985.57,95.2176 1985.57,216.178 
  "/>
<circle clip-path="url(#clip130)" cx="2082.86" cy="155.698" r="23" fill="#009af9" fill-rule="evenodd" fill-opacity="1" stroke="#000000" stroke-opacity="1" stroke-width="5.12"/>
<circle clip-path="url(#clip130)" cx="2082.86" cy="155.698" r="23" fill="#009af9" fill-rule="evenodd" fill-opacity="1" stroke="#000000" stroke-opacity="1" stroke-width="5.12"/>
<circle clip-path="url(#clip130)" cx="2082.86" cy="155.698" r="23" fill="#009af9" fill-rule="evenodd" fill-opacity="1" stroke="#000000" stroke-opacity="1" stroke-width="5.12"/>
<circle clip-path="url(#clip130)" cx="2082.86" cy="155.698" r="23" fill="#009af9" fill-rule="evenodd" fill-opacity="1" stroke="#000000" stroke-opacity="1" stroke-width="5.12"/>
<circle clip-path="url(#clip130)" cx="2082.86" cy="155.698" r="23" fill="#009af9" fill-rule="evenodd" fill-opacity="1" stroke="#000000" stroke-opacity="1" stroke-width="5.12"/>
<circle clip-path="url(#clip130)" cx="2082.86" cy="155.698" r="23" fill="#009af9" fill-rule="evenodd" fill-opacity="1" stroke="#000000" stroke-opacity="1" stroke-width="5.12"/>
<circle clip-path="url(#clip130)" cx="2082.86" cy="155.698" r="23" fill="#009af9" fill-rule="evenodd" fill-opacity="1" stroke="#000000" stroke-opacity="1" stroke-width="5.12"/>
<circle clip-path="url(#clip130)" cx="2082.86" cy="155.698" r="23" fill="#009af9" fill-rule="evenodd" fill-opacity="1" stroke="#000000" stroke-opacity="1" stroke-width="5.12"/>
<circle clip-path="url(#clip130)" cx="2082.86" cy="155.698" r="23" fill="#009af9" fill-rule="evenodd" fill-opacity="1" stroke="#000000" stroke-opacity="1" stroke-width="5.12"/>
<circle clip-path="url(#clip130)" cx="2082.86" cy="155.698" r="23" fill="#009af9" fill-rule="evenodd" fill-opacity="1" stroke="#000000" stroke-opacity="1" stroke-width="5.12"/>
<circle clip-path="url(#clip130)" cx="2082.86" cy="155.698" r="23" fill="#009af9" fill-rule="evenodd" fill-opacity="1" stroke="#000000" stroke-opacity="1" stroke-width="5.12"/>
<circle clip-path="url(#clip130)" cx="2082.86" cy="155.698" r="23" fill="#009af9" fill-rule="evenodd" fill-opacity="1" stroke="#000000" stroke-opacity="1" stroke-width="5.12"/>
<circle clip-path="url(#clip130)" cx="2082.86" cy="155.698" r="23" fill="#009af9" fill-rule="evenodd" fill-opacity="1" stroke="#000000" stroke-opacity="1" stroke-width="5.12"/>
<circle clip-path="url(#clip130)" cx="2082.86" cy="155.698" r="23" fill="#009af9" fill-rule="evenodd" fill-opacity="1" stroke="#000000" stroke-opacity="1" stroke-width="5.12"/>
<circle clip-path="url(#clip130)" cx="2082.86" cy="155.698" r="23" fill="#009af9" fill-rule="evenodd" fill-opacity="1" stroke="#000000" stroke-opacity="1" stroke-width="5.12"/>
<circle clip-path="url(#clip130)" cx="2082.86" cy="155.698" r="23" fill="#009af9" fill-rule="evenodd" fill-opacity="1" stroke="#000000" stroke-opacity="1" stroke-width="5.12"/>
<circle clip-path="url(#clip130)" cx="2082.86" cy="155.698" r="23" fill="#009af9" fill-rule="evenodd" fill-opacity="1" stroke="#000000" stroke-opacity="1" stroke-width="5.12"/>
<circle clip-path="url(#clip130)" cx="2082.86" cy="155.698" r="23" fill="#009af9" fill-rule="evenodd" fill-opacity="1" stroke="#000000" stroke-opacity="1" stroke-width="5.12"/>
<circle clip-path="url(#clip130)" cx="2082.86" cy="155.698" r="23" fill="#009af9" fill-rule="evenodd" fill-opacity="1" stroke="#000000" stroke-opacity="1" stroke-width="5.12"/>
<circle clip-path="url(#clip130)" cx="2082.86" cy="155.698" r="23" fill="#009af9" fill-rule="evenodd" fill-opacity="1" stroke="#000000" stroke-opacity="1" stroke-width="5.12"/>
<path clip-path="url(#clip130)" d="M 0 0 M2193.98 175.385 Q2192.17 180.015 2190.46 181.427 Q2188.75 182.839 2185.88 182.839 L2182.47 182.839 L2182.47 179.274 L2184.97 179.274 Q2186.73 179.274 2187.71 178.44 Q2188.68 177.607 2189.86 174.505 L2190.62 172.561 L2180.14 147.052 L2184.65 147.052 L2192.75 167.329 L2200.85 147.052 L2205.37 147.052 L2193.98 175.385 Z" fill="#000000" fill-rule="evenodd" fill-opacity="1" /><path clip-path="url(#clip130)" d="M 0 0 M2211.25 169.042 L2218.89 169.042 L2218.89 142.677 L2210.58 144.343 L2210.58 140.084 L2218.84 138.418 L2223.52 138.418 L2223.52 169.042 L2231.15 169.042 L2231.15 172.978 L2211.25 172.978 L2211.25 169.042 Z" fill="#000000" fill-rule="evenodd" fill-opacity="1" /></svg>
