<?xml version="1.0" encoding="utf-8"?>
<svg xmlns="http://www.w3.org/2000/svg" xmlns:xlink="http://www.w3.org/1999/xlink" width="600" height="400" viewBox="0 0 2400 1600">
<defs>
  <clipPath id="clip180">
    <rect x="0" y="0" width="2400" height="1600"/>
  </clipPath>
</defs>
<path clip-path="url(#clip180)" d="
M0 1600 L2400 1600 L2400 0 L0 0  Z
  " fill="#ffffff" fill-rule="evenodd" fill-opacity="1"/>
<defs>
  <clipPath id="clip181">
    <rect x="480" y="0" width="1681" height="1600"/>
  </clipPath>
</defs>
<path clip-path="url(#clip180)" d="
M86.9921 1521.01 L2352.76 1521.01 L2352.76 47.2441 L86.9921 47.2441  Z
  " fill="#ffffff" fill-rule="evenodd" fill-opacity="1"/>
<defs>
  <clipPath id="clip182">
    <rect x="86" y="47" width="2267" height="1475"/>
  </clipPath>
</defs>
<polyline clip-path="url(#clip182)" style="stroke:#000000; stroke-width:2; stroke-opacity:0.1; fill:none" points="
  141.27,1521.01 141.27,47.2441 
  "/>
<polyline clip-path="url(#clip182)" style="stroke:#000000; stroke-width:2; stroke-opacity:0.1; fill:none" points="
  586.386,1521.01 586.386,47.2441 
  "/>
<polyline clip-path="url(#clip182)" style="stroke:#000000; stroke-width:2; stroke-opacity:0.1; fill:none" points="
  1031.5,1521.01 1031.5,47.2441 
  "/>
<polyline clip-path="url(#clip182)" style="stroke:#000000; stroke-width:2; stroke-opacity:0.1; fill:none" points="
  1476.62,1521.01 1476.62,47.2441 
  "/>
<polyline clip-path="url(#clip182)" style="stroke:#000000; stroke-width:2; stroke-opacity:0.1; fill:none" points="
  1921.73,1521.01 1921.73,47.2441 
  "/>
<polyline clip-path="url(#clip182)" style="stroke:#000000; stroke-width:2; stroke-opacity:0.1; fill:none" points="
  86.9921,1479.3 2352.76,1479.3 
  "/>
<polyline clip-path="url(#clip182)" style="stroke:#000000; stroke-width:2; stroke-opacity:0.1; fill:none" points="
  86.9921,1101.8 2352.76,1101.8 
  "/>
<polyline clip-path="url(#clip182)" style="stroke:#000000; stroke-width:2; stroke-opacity:0.1; fill:none" points="
  86.9921,724.308 2352.76,724.308 
  "/>
<polyline clip-path="url(#clip182)" style="stroke:#000000; stroke-width:2; stroke-opacity:0.1; fill:none" points="
  86.9921,346.813 2352.76,346.813 
  "/>
<polyline clip-path="url(#clip180)" style="stroke:#000000; stroke-width:4; stroke-opacity:1; fill:none" points="
  86.9921,1521.01 2352.76,1521.01 
  "/>
<polyline clip-path="url(#clip180)" style="stroke:#000000; stroke-width:4; stroke-opacity:1; fill:none" points="
  86.9921,1521.01 86.9921,47.2441 
  "/>
<polyline clip-path="url(#clip180)" style="stroke:#000000; stroke-width:4; stroke-opacity:1; fill:none" points="
  141.27,1521.01 141.27,1503.32 
  "/>
<polyline clip-path="url(#clip180)" style="stroke:#000000; stroke-width:4; stroke-opacity:1; fill:none" points="
  586.386,1521.01 586.386,1503.32 
  "/>
<polyline clip-path="url(#clip180)" style="stroke:#000000; stroke-width:4; stroke-opacity:1; fill:none" points="
  1031.5,1521.01 1031.5,1503.32 
  "/>
<polyline clip-path="url(#clip180)" style="stroke:#000000; stroke-width:4; stroke-opacity:1; fill:none" points="
  1476.62,1521.01 1476.62,1503.32 
  "/>
<polyline clip-path="url(#clip180)" style="stroke:#000000; stroke-width:4; stroke-opacity:1; fill:none" points="
  1921.73,1521.01 1921.73,1503.32 
  "/>
<polyline clip-path="url(#clip180)" style="stroke:#000000; stroke-width:4; stroke-opacity:1; fill:none" points="
  86.9921,1479.3 114.181,1479.3 
  "/>
<polyline clip-path="url(#clip180)" style="stroke:#000000; stroke-width:4; stroke-opacity:1; fill:none" points="
  86.9921,1101.8 114.181,1101.8 
  "/>
<polyline clip-path="url(#clip180)" style="stroke:#000000; stroke-width:4; stroke-opacity:1; fill:none" points="
  86.9921,724.308 114.181,724.308 
  "/>
<polyline clip-path="url(#clip180)" style="stroke:#000000; stroke-width:4; stroke-opacity:1; fill:none" points="
  86.9921,346.813 114.181,346.813 
  "/>
<path clip-path="url(#clip180)" d="M 0 0 M69.9163 1543 Q66.3052 1543 64.4766 1546.56 Q62.671 1550.11 62.671 1557.23 Q62.671 1564.34 64.4766 1567.91 Q66.3052 1571.45 69.9163 1571.45 Q73.5506 1571.45 75.3561 1567.91 Q77.1848 1564.34 77.1848 1557.23 Q77.1848 1550.11 75.3561 1546.56 Q73.5506 1543 69.9163 1543 M69.9163 1539.29 Q75.7265 1539.29 78.782 1543.9 Q81.8607 1548.48 81.8607 1557.23 Q81.8607 1565.96 78.782 1570.57 Q75.7265 1575.15 69.9163 1575.15 Q64.1062 1575.15 61.0275 1570.57 Q57.972 1565.96 57.972 1557.23 Q57.972 1548.48 61.0275 1543.9 Q64.1062 1539.29 69.9163 1539.29 Z" fill="#000000" fill-rule="evenodd" fill-opacity="1" /><path clip-path="url(#clip180)" d="M 0 0 M86.9301 1568.6 L91.8144 1568.6 L91.8144 1574.48 L86.9301 1574.48 L86.9301 1568.6 Z" fill="#000000" fill-rule="evenodd" fill-opacity="1" /><path clip-path="url(#clip180)" d="M 0 0 M95.7032 1539.92 L117.925 1539.92 L117.925 1541.91 L105.379 1574.48 L100.495 1574.48 L112.3 1543.86 L95.7032 1543.86 L95.7032 1539.92 Z" fill="#000000" fill-rule="evenodd" fill-opacity="1" /><path clip-path="url(#clip180)" d="M 0 0 M135.842 1543.99 L124.036 1562.44 L135.842 1562.44 L135.842 1543.99 M134.615 1539.92 L140.495 1539.92 L140.495 1562.44 L145.425 1562.44 L145.425 1566.33 L140.495 1566.33 L140.495 1574.48 L135.842 1574.48 L135.842 1566.33 L120.24 1566.33 L120.24 1561.82 L134.615 1539.92 Z" fill="#000000" fill-rule="evenodd" fill-opacity="1" /><path clip-path="url(#clip180)" d="M 0 0 M160.495 1543 Q156.883 1543 155.055 1546.56 Q153.249 1550.11 153.249 1557.23 Q153.249 1564.34 155.055 1567.91 Q156.883 1571.45 160.495 1571.45 Q164.129 1571.45 165.934 1567.91 Q167.763 1564.34 167.763 1557.23 Q167.763 1550.11 165.934 1546.56 Q164.129 1543 160.495 1543 M160.495 1539.29 Q166.305 1539.29 169.36 1543.9 Q172.439 1548.48 172.439 1557.23 Q172.439 1565.96 169.36 1570.57 Q166.305 1575.15 160.495 1575.15 Q154.684 1575.15 151.606 1570.57 Q148.55 1565.96 148.55 1557.23 Q148.55 1548.48 151.606 1543.9 Q154.684 1539.29 160.495 1539.29 Z" fill="#000000" fill-rule="evenodd" fill-opacity="1" /><path clip-path="url(#clip180)" d="M 0 0 M176.328 1539.92 L198.55 1539.92 L198.55 1541.91 L186.004 1574.48 L181.119 1574.48 L192.925 1543.86 L176.328 1543.86 L176.328 1539.92 Z" fill="#000000" fill-rule="evenodd" fill-opacity="1" /><path clip-path="url(#clip180)" d="M 0 0 M203.666 1539.92 L222.022 1539.92 L222.022 1543.86 L207.948 1543.86 L207.948 1552.33 Q208.967 1551.98 209.985 1551.82 Q211.004 1551.63 212.022 1551.63 Q217.809 1551.63 221.189 1554.8 Q224.568 1557.98 224.568 1563.39 Q224.568 1568.97 221.096 1572.07 Q217.624 1575.15 211.304 1575.15 Q209.129 1575.15 206.86 1574.78 Q204.615 1574.41 202.207 1573.67 L202.207 1568.97 Q204.291 1570.1 206.513 1570.66 Q208.735 1571.22 211.212 1571.22 Q215.216 1571.22 217.554 1569.11 Q219.892 1567 219.892 1563.39 Q219.892 1559.78 217.554 1557.67 Q215.216 1555.57 211.212 1555.57 Q209.337 1555.57 207.462 1555.98 Q205.61 1556.4 203.666 1557.28 L203.666 1539.92 Z" fill="#000000" fill-rule="evenodd" fill-opacity="1" /><path clip-path="url(#clip180)" d="M 0 0 M514.697 1543 Q511.086 1543 509.257 1546.56 Q507.451 1550.11 507.451 1557.23 Q507.451 1564.34 509.257 1567.91 Q511.086 1571.45 514.697 1571.45 Q518.331 1571.45 520.136 1567.91 Q521.965 1564.34 521.965 1557.23 Q521.965 1550.11 520.136 1546.56 Q518.331 1543 514.697 1543 M514.697 1539.29 Q520.507 1539.29 523.562 1543.9 Q526.641 1548.48 526.641 1557.23 Q526.641 1565.96 523.562 1570.57 Q520.507 1575.15 514.697 1575.15 Q508.887 1575.15 505.808 1570.57 Q502.752 1565.96 502.752 1557.23 Q502.752 1548.48 505.808 1543.9 Q508.887 1539.29 514.697 1539.29 Z" fill="#000000" fill-rule="evenodd" fill-opacity="1" /><path clip-path="url(#clip180)" d="M 0 0 M531.711 1568.6 L536.595 1568.6 L536.595 1574.48 L531.711 1574.48 L531.711 1568.6 Z" fill="#000000" fill-rule="evenodd" fill-opacity="1" /><path clip-path="url(#clip180)" d="M 0 0 M540.484 1539.92 L562.706 1539.92 L562.706 1541.91 L550.159 1574.48 L545.275 1574.48 L557.081 1543.86 L540.484 1543.86 L540.484 1539.92 Z" fill="#000000" fill-rule="evenodd" fill-opacity="1" /><path clip-path="url(#clip180)" d="M 0 0 M580.622 1543.99 L568.817 1562.44 L580.622 1562.44 L580.622 1543.99 M579.395 1539.92 L585.275 1539.92 L585.275 1562.44 L590.206 1562.44 L590.206 1566.33 L585.275 1566.33 L585.275 1574.48 L580.622 1574.48 L580.622 1566.33 L565.021 1566.33 L565.021 1561.82 L579.395 1539.92 Z" fill="#000000" fill-rule="evenodd" fill-opacity="1" /><path clip-path="url(#clip180)" d="M 0 0 M596.085 1570.54 L603.724 1570.54 L603.724 1544.18 L595.414 1545.85 L595.414 1541.59 L603.678 1539.92 L608.354 1539.92 L608.354 1570.54 L615.992 1570.54 L615.992 1574.48 L596.085 1574.48 L596.085 1570.54 Z" fill="#000000" fill-rule="evenodd" fill-opacity="1" /><path clip-path="url(#clip180)" d="M 0 0 M631.062 1543 Q627.451 1543 625.622 1546.56 Q623.816 1550.11 623.816 1557.23 Q623.816 1564.34 625.622 1567.91 Q627.451 1571.45 631.062 1571.45 Q634.696 1571.45 636.502 1567.91 Q638.33 1564.34 638.33 1557.23 Q638.33 1550.11 636.502 1546.56 Q634.696 1543 631.062 1543 M631.062 1539.29 Q636.872 1539.29 639.928 1543.9 Q643.006 1548.48 643.006 1557.23 Q643.006 1565.96 639.928 1570.57 Q636.872 1575.15 631.062 1575.15 Q625.252 1575.15 622.173 1570.57 Q619.117 1565.96 619.117 1557.23 Q619.117 1548.48 622.173 1543.9 Q625.252 1539.29 631.062 1539.29 Z" fill="#000000" fill-rule="evenodd" fill-opacity="1" /><path clip-path="url(#clip180)" d="M 0 0 M658.076 1543 Q654.464 1543 652.636 1546.56 Q650.83 1550.11 650.83 1557.23 Q650.83 1564.34 652.636 1567.91 Q654.464 1571.45 658.076 1571.45 Q661.71 1571.45 663.515 1567.91 Q665.344 1564.34 665.344 1557.23 Q665.344 1550.11 663.515 1546.56 Q661.71 1543 658.076 1543 M658.076 1539.29 Q663.886 1539.29 666.941 1543.9 Q670.02 1548.48 670.02 1557.23 Q670.02 1565.96 666.941 1570.57 Q663.886 1575.15 658.076 1575.15 Q652.265 1575.15 649.187 1570.57 Q646.131 1565.96 646.131 1557.23 Q646.131 1548.48 649.187 1543.9 Q652.265 1539.29 658.076 1539.29 Z" fill="#000000" fill-rule="evenodd" fill-opacity="1" /><path clip-path="url(#clip180)" d="M 0 0 M961.109 1543 Q957.498 1543 955.669 1546.56 Q953.864 1550.11 953.864 1557.23 Q953.864 1564.34 955.669 1567.91 Q957.498 1571.45 961.109 1571.45 Q964.743 1571.45 966.549 1567.91 Q968.377 1564.34 968.377 1557.23 Q968.377 1550.11 966.549 1546.56 Q964.743 1543 961.109 1543 M961.109 1539.29 Q966.919 1539.29 969.975 1543.9 Q973.053 1548.48 973.053 1557.23 Q973.053 1565.96 969.975 1570.57 Q966.919 1575.15 961.109 1575.15 Q955.299 1575.15 952.22 1570.57 Q949.165 1565.96 949.165 1557.23 Q949.165 1548.48 952.22 1543.9 Q955.299 1539.29 961.109 1539.29 Z" fill="#000000" fill-rule="evenodd" fill-opacity="1" /><path clip-path="url(#clip180)" d="M 0 0 M978.123 1568.6 L983.007 1568.6 L983.007 1574.48 L978.123 1574.48 L978.123 1568.6 Z" fill="#000000" fill-rule="evenodd" fill-opacity="1" /><path clip-path="url(#clip180)" d="M 0 0 M986.896 1539.92 L1009.12 1539.92 L1009.12 1541.91 L996.572 1574.48 L991.688 1574.48 L1003.49 1543.86 L986.896 1543.86 L986.896 1539.92 Z" fill="#000000" fill-rule="evenodd" fill-opacity="1" /><path clip-path="url(#clip180)" d="M 0 0 M1027.03 1543.99 L1015.23 1562.44 L1027.03 1562.44 L1027.03 1543.99 M1025.81 1539.92 L1031.69 1539.92 L1031.69 1562.44 L1036.62 1562.44 L1036.62 1566.33 L1031.69 1566.33 L1031.69 1574.48 L1027.03 1574.48 L1027.03 1566.33 L1011.43 1566.33 L1011.43 1561.82 L1025.81 1539.92 Z" fill="#000000" fill-rule="evenodd" fill-opacity="1" /><path clip-path="url(#clip180)" d="M 0 0 M1042.5 1570.54 L1050.14 1570.54 L1050.14 1544.18 L1041.83 1545.85 L1041.83 1541.59 L1050.09 1539.92 L1054.77 1539.92 L1054.77 1570.54 L1062.4 1570.54 L1062.4 1574.48 L1042.5 1574.48 L1042.5 1570.54 Z" fill="#000000" fill-rule="evenodd" fill-opacity="1" /><path clip-path="url(#clip180)" d="M 0 0 M1071.5 1570.54 L1087.82 1570.54 L1087.82 1574.48 L1065.88 1574.48 L1065.88 1570.54 Q1068.54 1567.79 1073.12 1563.16 Q1077.73 1558.51 1078.91 1557.17 Q1081.15 1554.64 1082.03 1552.91 Q1082.94 1551.15 1082.94 1549.46 Q1082.94 1546.7 1080.99 1544.97 Q1079.07 1543.23 1075.97 1543.23 Q1073.77 1543.23 1071.32 1543.99 Q1068.89 1544.76 1066.11 1546.31 L1066.11 1541.59 Q1068.93 1540.45 1071.39 1539.87 Q1073.84 1539.29 1075.88 1539.29 Q1081.25 1539.29 1084.44 1541.98 Q1087.64 1544.67 1087.64 1549.16 Q1087.64 1551.29 1086.83 1553.21 Q1086.04 1555.1 1083.93 1557.7 Q1083.35 1558.37 1080.25 1561.59 Q1077.15 1564.78 1071.5 1570.54 Z" fill="#000000" fill-rule="evenodd" fill-opacity="1" /><path clip-path="url(#clip180)" d="M 0 0 M1092.94 1539.92 L1111.29 1539.92 L1111.29 1543.86 L1097.22 1543.86 L1097.22 1552.33 Q1098.24 1551.98 1099.26 1551.82 Q1100.27 1551.63 1101.29 1551.63 Q1107.08 1551.63 1110.46 1554.8 Q1113.84 1557.98 1113.84 1563.39 Q1113.84 1568.97 1110.37 1572.07 Q1106.9 1575.15 1100.58 1575.15 Q1098.4 1575.15 1096.13 1574.78 Q1093.89 1574.41 1091.48 1573.67 L1091.48 1568.97 Q1093.56 1570.1 1095.78 1570.66 Q1098.01 1571.22 1100.48 1571.22 Q1104.49 1571.22 1106.83 1569.11 Q1109.16 1567 1109.16 1563.39 Q1109.16 1559.78 1106.83 1557.67 Q1104.49 1555.57 1100.48 1555.57 Q1098.61 1555.57 1096.73 1555.98 Q1094.88 1556.4 1092.94 1557.28 L1092.94 1539.92 Z" fill="#000000" fill-rule="evenodd" fill-opacity="1" /><path clip-path="url(#clip180)" d="M 0 0 M1405.43 1543 Q1401.82 1543 1399.99 1546.56 Q1398.18 1550.11 1398.18 1557.23 Q1398.18 1564.34 1399.99 1567.91 Q1401.82 1571.45 1405.43 1571.45 Q1409.06 1571.45 1410.87 1567.91 Q1412.69 1564.34 1412.69 1557.23 Q1412.69 1550.11 1410.87 1546.56 Q1409.06 1543 1405.43 1543 M1405.43 1539.29 Q1411.24 1539.29 1414.29 1543.9 Q1417.37 1548.48 1417.37 1557.23 Q1417.37 1565.96 1414.29 1570.57 Q1411.24 1575.15 1405.43 1575.15 Q1399.62 1575.15 1396.54 1570.57 Q1393.48 1565.96 1393.48 1557.23 Q1393.48 1548.48 1396.54 1543.9 Q1399.62 1539.29 1405.43 1539.29 Z" fill="#000000" fill-rule="evenodd" fill-opacity="1" /><path clip-path="url(#clip180)" d="M 0 0 M1422.44 1568.6 L1427.32 1568.6 L1427.32 1574.48 L1422.44 1574.48 L1422.44 1568.6 Z" fill="#000000" fill-rule="evenodd" fill-opacity="1" /><path clip-path="url(#clip180)" d="M 0 0 M1431.21 1539.92 L1453.44 1539.92 L1453.44 1541.91 L1440.89 1574.48 L1436 1574.48 L1447.81 1543.86 L1431.21 1543.86 L1431.21 1539.92 Z" fill="#000000" fill-rule="evenodd" fill-opacity="1" /><path clip-path="url(#clip180)" d="M 0 0 M1471.35 1543.99 L1459.55 1562.44 L1471.35 1562.44 L1471.35 1543.99 M1470.13 1539.92 L1476 1539.92 L1476 1562.44 L1480.94 1562.44 L1480.94 1566.33 L1476 1566.33 L1476 1574.48 L1471.35 1574.48 L1471.35 1566.33 L1455.75 1566.33 L1455.75 1561.82 L1470.13 1539.92 Z" fill="#000000" fill-rule="evenodd" fill-opacity="1" /><path clip-path="url(#clip180)" d="M 0 0 M1486.81 1570.54 L1494.45 1570.54 L1494.45 1544.18 L1486.14 1545.85 L1486.14 1541.59 L1494.41 1539.92 L1499.08 1539.92 L1499.08 1570.54 L1506.72 1570.54 L1506.72 1574.48 L1486.81 1574.48 L1486.81 1570.54 Z" fill="#000000" fill-rule="evenodd" fill-opacity="1" /><path clip-path="url(#clip180)" d="M 0 0 M1511.84 1539.92 L1530.19 1539.92 L1530.19 1543.86 L1516.12 1543.86 L1516.12 1552.33 Q1517.14 1551.98 1518.16 1551.82 Q1519.18 1551.63 1520.19 1551.63 Q1525.98 1551.63 1529.36 1554.8 Q1532.74 1557.98 1532.74 1563.39 Q1532.74 1568.97 1529.27 1572.07 Q1525.8 1575.15 1519.48 1575.15 Q1517.3 1575.15 1515.03 1574.78 Q1512.79 1574.41 1510.38 1573.67 L1510.38 1568.97 Q1512.46 1570.1 1514.69 1570.66 Q1516.91 1571.22 1519.38 1571.22 Q1523.39 1571.22 1525.73 1569.11 Q1528.06 1567 1528.06 1563.39 Q1528.06 1559.78 1525.73 1557.67 Q1523.39 1555.57 1519.38 1555.57 Q1517.51 1555.57 1515.63 1555.98 Q1513.78 1556.4 1511.84 1557.28 L1511.84 1539.92 Z" fill="#000000" fill-rule="evenodd" fill-opacity="1" /><path clip-path="url(#clip180)" d="M 0 0 M1547.81 1543 Q1544.2 1543 1542.37 1546.56 Q1540.56 1550.11 1540.56 1557.23 Q1540.56 1564.34 1542.37 1567.91 Q1544.2 1571.45 1547.81 1571.45 Q1551.44 1571.45 1553.25 1567.91 Q1555.08 1564.34 1555.08 1557.23 Q1555.08 1550.11 1553.25 1546.56 Q1551.44 1543 1547.81 1543 M1547.81 1539.29 Q1553.62 1539.29 1556.68 1543.9 Q1559.75 1548.48 1559.75 1557.23 Q1559.75 1565.96 1556.68 1570.57 Q1553.62 1575.15 1547.81 1575.15 Q1542 1575.15 1538.92 1570.57 Q1535.87 1565.96 1535.87 1557.23 Q1535.87 1548.48 1538.92 1543.9 Q1542 1539.29 1547.81 1539.29 Z" fill="#000000" fill-rule="evenodd" fill-opacity="1" /><path clip-path="url(#clip180)" d="M 0 0 M1850.99 1543 Q1847.38 1543 1845.55 1546.56 Q1843.75 1550.11 1843.75 1557.23 Q1843.75 1564.34 1845.55 1567.91 Q1847.38 1571.45 1850.99 1571.45 Q1854.63 1571.45 1856.43 1567.91 Q1858.26 1564.34 1858.26 1557.23 Q1858.26 1550.11 1856.43 1546.56 Q1854.63 1543 1850.99 1543 M1850.99 1539.29 Q1856.8 1539.29 1859.86 1543.9 Q1862.94 1548.48 1862.94 1557.23 Q1862.94 1565.96 1859.86 1570.57 Q1856.8 1575.15 1850.99 1575.15 Q1845.18 1575.15 1842.1 1570.57 Q1839.05 1565.96 1839.05 1557.23 Q1839.05 1548.48 1842.1 1543.9 Q1845.18 1539.29 1850.99 1539.29 Z" fill="#000000" fill-rule="evenodd" fill-opacity="1" /><path clip-path="url(#clip180)" d="M 0 0 M1868.01 1568.6 L1872.89 1568.6 L1872.89 1574.48 L1868.01 1574.48 L1868.01 1568.6 Z" fill="#000000" fill-rule="evenodd" fill-opacity="1" /><path clip-path="url(#clip180)" d="M 0 0 M1876.78 1539.92 L1899 1539.92 L1899 1541.91 L1886.46 1574.48 L1881.57 1574.48 L1893.38 1543.86 L1876.78 1543.86 L1876.78 1539.92 Z" fill="#000000" fill-rule="evenodd" fill-opacity="1" /><path clip-path="url(#clip180)" d="M 0 0 M1916.92 1543.99 L1905.11 1562.44 L1916.92 1562.44 L1916.92 1543.99 M1915.69 1539.92 L1921.57 1539.92 L1921.57 1562.44 L1926.5 1562.44 L1926.5 1566.33 L1921.57 1566.33 L1921.57 1574.48 L1916.92 1574.48 L1916.92 1566.33 L1901.32 1566.33 L1901.32 1561.82 L1915.69 1539.92 Z" fill="#000000" fill-rule="evenodd" fill-opacity="1" /><path clip-path="url(#clip180)" d="M 0 0 M1932.38 1570.54 L1940.02 1570.54 L1940.02 1544.18 L1931.71 1545.85 L1931.71 1541.59 L1939.97 1539.92 L1944.65 1539.92 L1944.65 1570.54 L1952.29 1570.54 L1952.29 1574.48 L1932.38 1574.48 L1932.38 1570.54 Z" fill="#000000" fill-rule="evenodd" fill-opacity="1" /><path clip-path="url(#clip180)" d="M 0 0 M1956.18 1539.92 L1978.4 1539.92 L1978.4 1541.91 L1965.85 1574.48 L1960.97 1574.48 L1972.78 1543.86 L1956.18 1543.86 L1956.18 1539.92 Z" fill="#000000" fill-rule="evenodd" fill-opacity="1" /><path clip-path="url(#clip180)" d="M 0 0 M1983.52 1539.92 L2001.87 1539.92 L2001.87 1543.86 L1987.8 1543.86 L1987.8 1552.33 Q1988.82 1551.98 1989.84 1551.82 Q1990.85 1551.63 1991.87 1551.63 Q1997.66 1551.63 2001.04 1554.8 Q2004.42 1557.98 2004.42 1563.39 Q2004.42 1568.97 2000.95 1572.07 Q1997.47 1575.15 1991.16 1575.15 Q1988.98 1575.15 1986.71 1574.78 Q1984.47 1574.41 1982.06 1573.67 L1982.06 1568.97 Q1984.14 1570.1 1986.36 1570.66 Q1988.59 1571.22 1991.06 1571.22 Q1995.07 1571.22 1997.41 1569.11 Q1999.74 1567 1999.74 1563.39 Q1999.74 1559.78 1997.41 1557.67 Q1995.07 1555.57 1991.06 1555.57 Q1989.19 1555.57 1987.31 1555.98 Q1985.46 1556.4 1983.52 1557.28 L1983.52 1539.92 Z" fill="#000000" fill-rule="evenodd" fill-opacity="1" /><path clip-path="url(#clip180)" d="M 0 0 M51.0477 1465.1 Q47.4367 1465.1 45.608 1468.66 Q43.8024 1472.2 43.8024 1479.33 Q43.8024 1486.44 45.608 1490 Q47.4367 1493.55 51.0477 1493.55 Q54.682 1493.55 56.4875 1490 Q58.3162 1486.44 58.3162 1479.33 Q58.3162 1472.2 56.4875 1468.66 Q54.682 1465.1 51.0477 1465.1 M51.0477 1461.39 Q56.8579 1461.39 59.9134 1466 Q62.9921 1470.58 62.9921 1479.33 Q62.9921 1488.06 59.9134 1492.67 Q56.8579 1497.25 51.0477 1497.25 Q45.2376 1497.25 42.1589 1492.67 Q39.1034 1488.06 39.1034 1479.33 Q39.1034 1470.58 42.1589 1466 Q45.2376 1461.39 51.0477 1461.39 Z" fill="#000000" fill-rule="evenodd" fill-opacity="1" /><path clip-path="url(#clip180)" d="M 0 0 M-11.938 1084.52 L6.41836 1084.52 L6.41836 1088.46 L-7.65564 1088.46 L-7.65564 1096.93 Q-6.63713 1096.58 -5.61862 1096.42 Q-4.6001 1096.24 -3.58159 1096.24 Q2.20541 1096.24 5.58503 1099.41 Q8.96464 1102.58 8.96464 1107.99 Q8.96464 1113.57 5.49243 1116.68 Q2.02023 1119.75 -4.29918 1119.75 Q-6.47509 1119.75 -8.7436 1119.38 Q-10.989 1119.01 -13.3964 1118.27 L-13.3964 1113.57 Q-11.313 1114.71 -9.09082 1115.26 Q-6.86861 1115.82 -4.39177 1115.82 Q-0.387164 1115.82 1.95079 1113.71 Q4.28874 1111.61 4.28874 1107.99 Q4.28874 1104.38 1.95079 1102.28 Q-0.387164 1100.17 -4.39177 1100.17 Q-6.26676 1100.17 -8.14175 1100.59 Q-9.99359 1101 -11.938 1101.88 L-11.938 1084.52 Z" fill="#000000" fill-rule="evenodd" fill-opacity="1" /><path clip-path="url(#clip180)" d="M 0 0 M24.034 1087.6 Q20.4229 1087.6 18.5942 1091.17 Q16.7887 1094.71 16.7887 1101.84 Q16.7887 1108.94 18.5942 1112.51 Q20.4229 1116.05 24.034 1116.05 Q27.6682 1116.05 29.4738 1112.51 Q31.3025 1108.94 31.3025 1101.84 Q31.3025 1094.71 29.4738 1091.17 Q27.6682 1087.6 24.034 1087.6 M24.034 1083.9 Q29.8442 1083.9 32.8997 1088.5 Q35.9784 1093.09 35.9784 1101.84 Q35.9784 1110.56 32.8997 1115.17 Q29.8442 1119.75 24.034 1119.75 Q18.2238 1119.75 15.1452 1115.17 Q12.0896 1110.56 12.0896 1101.84 Q12.0896 1093.09 15.1452 1088.5 Q18.2238 1083.9 24.034 1083.9 Z" fill="#000000" fill-rule="evenodd" fill-opacity="1" /><path clip-path="url(#clip180)" d="M 0 0 M51.0477 1087.6 Q47.4367 1087.6 45.608 1091.17 Q43.8024 1094.71 43.8024 1101.84 Q43.8024 1108.94 45.608 1112.51 Q47.4367 1116.05 51.0477 1116.05 Q54.682 1116.05 56.4875 1112.51 Q58.3162 1108.94 58.3162 1101.84 Q58.3162 1094.71 56.4875 1091.17 Q54.682 1087.6 51.0477 1087.6 M51.0477 1083.9 Q56.8579 1083.9 59.9134 1088.5 Q62.9921 1093.09 62.9921 1101.84 Q62.9921 1110.56 59.9134 1115.17 Q56.8579 1119.75 51.0477 1119.75 Q45.2376 1119.75 42.1589 1115.17 Q39.1034 1110.56 39.1034 1101.84 Q39.1034 1093.09 42.1589 1088.5 Q45.2376 1083.9 51.0477 1083.9 Z" fill="#000000" fill-rule="evenodd" fill-opacity="1" /><path clip-path="url(#clip180)" d="M 0 0 M-37.9564 737.653 L-30.3176 737.653 L-30.3176 711.287 L-38.6277 712.954 L-38.6277 708.695 L-30.3639 707.028 L-25.688 707.028 L-25.688 737.653 L-18.0491 737.653 L-18.0491 741.588 L-37.9564 741.588 L-37.9564 737.653 Z" fill="#000000" fill-rule="evenodd" fill-opacity="1" /><path clip-path="url(#clip180)" d="M 0 0 M-2.97974 710.107 Q-6.59083 710.107 -8.41953 713.672 Q-10.2251 717.213 -10.2251 724.343 Q-10.2251 731.449 -8.41953 735.014 Q-6.59083 738.556 -2.97974 738.556 Q0.654497 738.556 2.46004 735.014 Q4.28874 731.449 4.28874 724.343 Q4.28874 717.213 2.46004 713.672 Q0.654497 710.107 -2.97974 710.107 M-2.97974 706.403 Q2.83041 706.403 5.88595 711.01 Q8.96464 715.593 8.96464 724.343 Q8.96464 733.07 5.88595 737.676 Q2.83041 742.259 -2.97974 742.259 Q-8.7899 742.259 -11.8686 737.676 Q-14.9241 733.07 -14.9241 724.343 Q-14.9241 715.593 -11.8686 711.01 Q-8.7899 706.403 -2.97974 706.403 Z" fill="#000000" fill-rule="evenodd" fill-opacity="1" /><path clip-path="url(#clip180)" d="M 0 0 M24.034 710.107 Q20.4229 710.107 18.5942 713.672 Q16.7887 717.213 16.7887 724.343 Q16.7887 731.449 18.5942 735.014 Q20.4229 738.556 24.034 738.556 Q27.6682 738.556 29.4738 735.014 Q31.3025 731.449 31.3025 724.343 Q31.3025 717.213 29.4738 713.672 Q27.6682 710.107 24.034 710.107 M24.034 706.403 Q29.8442 706.403 32.8997 711.01 Q35.9784 715.593 35.9784 724.343 Q35.9784 733.07 32.8997 737.676 Q29.8442 742.259 24.034 742.259 Q18.2238 742.259 15.1452 737.676 Q12.0896 733.07 12.0896 724.343 Q12.0896 715.593 15.1452 711.01 Q18.2238 706.403 24.034 706.403 Z" fill="#000000" fill-rule="evenodd" fill-opacity="1" /><path clip-path="url(#clip180)" d="M 0 0 M51.0477 710.107 Q47.4367 710.107 45.608 713.672 Q43.8024 717.213 43.8024 724.343 Q43.8024 731.449 45.608 735.014 Q47.4367 738.556 51.0477 738.556 Q54.682 738.556 56.4875 735.014 Q58.3162 731.449 58.3162 724.343 Q58.3162 717.213 56.4875 713.672 Q54.682 710.107 51.0477 710.107 M51.0477 706.403 Q56.8579 706.403 59.9134 711.01 Q62.9921 715.593 62.9921 724.343 Q62.9921 733.07 59.9134 737.676 Q56.8579 742.259 51.0477 742.259 Q45.2376 742.259 42.1589 737.676 Q39.1034 733.07 39.1034 724.343 Q39.1034 715.593 42.1589 711.01 Q45.2376 706.403 51.0477 706.403 Z" fill="#000000" fill-rule="evenodd" fill-opacity="1" /><path clip-path="url(#clip180)" d="M 0 0 M-36.961 360.158 L-29.3222 360.158 L-29.3222 333.793 L-37.6323 335.459 L-37.6323 331.2 L-29.3685 329.533 L-24.6926 329.533 L-24.6926 360.158 L-17.0537 360.158 L-17.0537 364.093 L-36.961 364.093 L-36.961 360.158 Z" fill="#000000" fill-rule="evenodd" fill-opacity="1" /><path clip-path="url(#clip180)" d="M 0 0 M-11.938 329.533 L6.41836 329.533 L6.41836 333.468 L-7.65564 333.468 L-7.65564 341.941 Q-6.63713 341.593 -5.61862 341.431 Q-4.6001 341.246 -3.58159 341.246 Q2.20541 341.246 5.58503 344.418 Q8.96464 347.589 8.96464 353.005 Q8.96464 358.584 5.49243 361.686 Q2.02023 364.765 -4.29918 364.765 Q-6.47509 364.765 -8.7436 364.394 Q-10.989 364.024 -13.3964 363.283 L-13.3964 358.584 Q-11.313 359.718 -9.09082 360.274 Q-6.86861 360.829 -4.39177 360.829 Q-0.387164 360.829 1.95079 358.723 Q4.28874 356.617 4.28874 353.005 Q4.28874 349.394 1.95079 347.288 Q-0.387164 345.181 -4.39177 345.181 Q-6.26676 345.181 -8.14175 345.598 Q-9.99359 346.015 -11.938 346.894 L-11.938 329.533 Z" fill="#000000" fill-rule="evenodd" fill-opacity="1" /><path clip-path="url(#clip180)" d="M 0 0 M24.034 332.612 Q20.4229 332.612 18.5942 336.177 Q16.7887 339.718 16.7887 346.848 Q16.7887 353.954 18.5942 357.519 Q20.4229 361.061 24.034 361.061 Q27.6682 361.061 29.4738 357.519 Q31.3025 353.954 31.3025 346.848 Q31.3025 339.718 29.4738 336.177 Q27.6682 332.612 24.034 332.612 M24.034 328.908 Q29.8442 328.908 32.8997 333.515 Q35.9784 338.098 35.9784 346.848 Q35.9784 355.575 32.8997 360.181 Q29.8442 364.765 24.034 364.765 Q18.2238 364.765 15.1452 360.181 Q12.0896 355.575 12.0896 346.848 Q12.0896 338.098 15.1452 333.515 Q18.2238 328.908 24.034 328.908 Z" fill="#000000" fill-rule="evenodd" fill-opacity="1" /><path clip-path="url(#clip180)" d="M 0 0 M51.0477 332.612 Q47.4367 332.612 45.608 336.177 Q43.8024 339.718 43.8024 346.848 Q43.8024 353.954 45.608 357.519 Q47.4367 361.061 51.0477 361.061 Q54.682 361.061 56.4875 357.519 Q58.3162 353.954 58.3162 346.848 Q58.3162 339.718 56.4875 336.177 Q54.682 332.612 51.0477 332.612 M51.0477 328.908 Q56.8579 328.908 59.9134 333.515 Q62.9921 338.098 62.9921 346.848 Q62.9921 355.575 59.9134 360.181 Q56.8579 364.765 51.0477 364.765 Q45.2376 364.765 42.1589 360.181 Q39.1034 355.575 39.1034 346.848 Q39.1034 338.098 42.1589 333.515 Q45.2376 328.908 51.0477 328.908 Z" fill="#000000" fill-rule="evenodd" fill-opacity="1" /><path clip-path="url(#clip182)" d="
M151.118 1431.68 L155.433 1428.25 L159.748 1424.77 L164.063 1421.27 L168.379 1417.76 L172.694 1414.27 L177.009 1410.81 L181.325 1407.4 L185.64 1404.06 L189.955 1400.81 
  L194.271 1397.67 L198.586 1394.64 L202.901 1391.74 L207.217 1388.99 L211.532 1386.39 L215.847 1383.94 L220.163 1381.67 L224.478 1379.56 L228.793 1377.62 L233.108 1375.86 
  L237.424 1374.27 L241.739 1372.85 L246.054 1371.59 L250.37 1370.49 L254.685 1369.53 L259 1368.73 L263.316 1368.05 L267.631 1367.5 L271.946 1367.06 L276.262 1366.71 
  L280.577 1366.46 L284.892 1366.27 L289.208 1366.14 L293.523 1366.05 L297.838 1365.99 L302.154 1365.94 L306.469 1365.88 L310.784 1365.81 L315.099 1365.69 L319.415 1365.51 
  L323.73 1365.27 L328.045 1364.93 L332.361 1364.5 L336.676 1363.94 L340.991 1363.26 L345.307 1362.43 L349.622 1361.45 L353.937 1360.3 L358.253 1358.97 L362.568 1357.47 
  L366.883 1355.78 L371.199 1353.9 L375.514 1351.83 L379.829 1349.56 L384.144 1347.11 L388.46 1344.47 L392.775 1341.64 L397.09 1338.64 L401.406 1335.47 L405.721 1332.13 
  L410.036 1328.64 L414.352 1325.01 L418.667 1321.24 L422.982 1317.35 L427.298 1313.35 L431.613 1309.25 L435.928 1305.05 L440.244 1300.79 L444.559 1296.45 L448.874 1292.07 
  L453.19 1287.64 L457.505 1283.18 L461.82 1278.71 L466.135 1274.24 L470.451 1269.77 L474.766 1265.33 L479.081 1260.92 L483.397 1256.56 L487.712 1252.27 L492.027 1248.05 
  L496.343 1243.92 L500.658 1239.89 L504.973 1235.99 L509.289 1232.22 L513.604 1228.61 L517.919 1225.15 L522.235 1221.87 L526.55 1218.78 L530.865 1215.89 L535.18 1213.2 
  L539.496 1210.73 L543.811 1208.47 L548.126 1206.44 L552.442 1204.62 L556.757 1203.01 L561.072 1201.6 L565.388 1200.38 L569.703 1199.33 L574.018 1198.43 L578.334 1197.65 
  L578.334 1479.3 L574.018 1479.3 L569.703 1479.3 L565.388 1479.3 L561.072 1479.3 L556.757 1479.3 L552.442 1479.3 L548.126 1479.3 L543.811 1479.3 L539.496 1479.3 
  L535.18 1479.3 L530.865 1479.3 L526.55 1479.3 L522.235 1479.3 L517.919 1479.3 L513.604 1479.3 L509.289 1479.3 L504.973 1479.3 L500.658 1479.3 L496.343 1479.3 
  L492.027 1479.3 L487.712 1479.3 L483.397 1479.3 L479.081 1479.3 L474.766 1479.3 L470.451 1479.3 L466.135 1479.3 L461.82 1479.3 L457.505 1479.3 L453.19 1479.3 
  L448.874 1479.3 L444.559 1479.3 L440.244 1479.3 L435.928 1479.3 L431.613 1479.3 L427.298 1479.3 L422.982 1479.3 L418.667 1479.3 L414.352 1479.3 L410.036 1479.3 
  L405.721 1479.3 L401.406 1479.3 L397.09 1479.3 L392.775 1479.3 L388.46 1479.3 L384.144 1479.3 L379.829 1479.3 L375.514 1479.3 L371.199 1479.3 L366.883 1479.3 
  L362.568 1479.3 L358.253 1479.3 L353.937 1479.3 L349.622 1479.3 L345.307 1479.3 L340.991 1479.3 L336.676 1479.3 L332.361 1479.3 L328.045 1479.3 L323.73 1479.3 
  L319.415 1479.3 L315.099 1479.3 L310.784 1479.3 L306.469 1479.3 L302.154 1479.3 L297.838 1479.3 L293.523 1479.3 L289.208 1479.3 L284.892 1479.3 L280.577 1479.3 
  L276.262 1479.3 L271.946 1479.3 L267.631 1479.3 L263.316 1479.3 L259 1479.3 L254.685 1479.3 L250.37 1479.3 L246.054 1479.3 L241.739 1479.3 L237.424 1479.3 
  L233.108 1479.3 L228.793 1479.3 L224.478 1479.3 L220.163 1479.3 L215.847 1479.3 L211.532 1479.3 L207.217 1479.3 L202.901 1479.3 L198.586 1479.3 L194.271 1479.3 
  L189.955 1479.3 L185.64 1479.3 L181.325 1479.3 L177.009 1479.3 L172.694 1479.3 L168.379 1479.3 L164.063 1479.3 L159.748 1479.3 L155.433 1479.3 L151.118 1479.3 
   Z
  " fill="#ffa500" fill-rule="evenodd" fill-opacity="0.5"/>
<polyline clip-path="url(#clip182)" style="stroke:#ffa500; stroke-width:4; stroke-opacity:1; fill:none" points="
  151.118,1431.68 155.433,1428.25 159.748,1424.77 164.063,1421.27 168.379,1417.76 172.694,1414.27 177.009,1410.81 181.325,1407.4 185.64,1404.06 189.955,1400.81 
  194.271,1397.67 198.586,1394.64 202.901,1391.74 207.217,1388.99 211.532,1386.39 215.847,1383.94 220.163,1381.67 224.478,1379.56 228.793,1377.62 233.108,1375.86 
  237.424,1374.27 241.739,1372.85 246.054,1371.59 250.37,1370.49 254.685,1369.53 259,1368.73 263.316,1368.05 267.631,1367.5 271.946,1367.06 276.262,1366.71 
  280.577,1366.46 284.892,1366.27 289.208,1366.14 293.523,1366.05 297.838,1365.99 302.154,1365.94 306.469,1365.88 310.784,1365.81 315.099,1365.69 319.415,1365.51 
  323.73,1365.27 328.045,1364.93 332.361,1364.5 336.676,1363.94 340.991,1363.26 345.307,1362.43 349.622,1361.45 353.937,1360.3 358.253,1358.97 362.568,1357.47 
  366.883,1355.78 371.199,1353.9 375.514,1351.83 379.829,1349.56 384.144,1347.11 388.46,1344.47 392.775,1341.64 397.09,1338.64 401.406,1335.47 405.721,1332.13 
  410.036,1328.64 414.352,1325.01 418.667,1321.24 422.982,1317.35 427.298,1313.35 431.613,1309.25 435.928,1305.05 440.244,1300.79 444.559,1296.45 448.874,1292.07 
  453.19,1287.64 457.505,1283.18 461.82,1278.71 466.135,1274.24 470.451,1269.77 474.766,1265.33 479.081,1260.92 483.397,1256.56 487.712,1252.27 492.027,1248.05 
  496.343,1243.92 500.658,1239.89 504.973,1235.99 509.289,1232.22 513.604,1228.61 517.919,1225.15 522.235,1221.87 526.55,1218.78 530.865,1215.89 535.18,1213.2 
  539.496,1210.73 543.811,1208.47 548.126,1206.44 552.442,1204.62 556.757,1203.01 561.072,1201.6 565.388,1200.38 569.703,1199.33 574.018,1198.43 578.334,1197.65 
  
  "/>
<path clip-path="url(#clip182)" d="
M578.334 1197.65 L592.322 1195.56 L606.311 1193.11 L620.3 1188.71 L634.289 1180.78 L648.278 1167.98 L662.267 1149.56 L676.255 1125.49 L690.244 1096.47 L704.233 1063.69 
  L718.222 1028.43 L732.211 991.722 L746.2 954.154 L760.189 915.907 L774.177 877.024 L788.166 837.758 L802.155 798.847 L816.144 761.58 L830.133 727.621 L844.122 698.624 
  L858.11 675.785 L872.099 659.44 L886.088 648.87 L900.077 642.34 L914.066 637.39 L928.055 631.266 L942.043 621.38 L956.032 605.681 L970.021 582.888 L984.01 552.582 
  L997.999 515.209 L1011.99 472.053 L1025.98 425.162 L1039.97 377.209 L1053.95 331.21 L1067.94 290.121 L1081.93 256.357 L1095.92 231.371 L1109.91 215.415 L1123.9 207.539 
  L1137.89 205.812 L1151.88 207.688 L1165.86 210.409 L1179.85 211.402 L1193.84 208.61 L1207.83 200.768 L1221.82 187.576 L1235.81 169.766 L1249.8 149.021 L1263.79 127.76 
  L1277.78 108.813 L1291.76 95.042 L1305.75 88.9544 L1319.74 92.3544 L1333.73 106.058 L1347.72 129.689 L1361.71 161.595 L1375.7 198.934 L1389.69 237.999 L1403.68 274.784 
  L1417.66 305.733 L1431.65 328.475 L1445.64 342.315 L1459.63 348.28 L1473.62 348.678 L1487.61 346.32 L1501.6 343.682 L1515.59 342.323 L1529.57 342.75 L1543.56 344.731 
  L1557.55 347.896 L1571.54 352.371 L1585.53 359.193 L1599.52 370.371 L1613.51 388.557 L1627.5 416.409 L1641.49 455.81 L1655.47 507.164 L1669.46 568.972 L1683.45 637.857 
  L1697.44 709.059 L1711.43 777.317 L1725.42 837.906 L1739.41 887.55 L1753.4 924.985 L1767.38 951.021 L1781.37 968.159 L1795.36 979.881 L1809.35 989.856 L1823.34 1001.23 
  L1837.33 1016.15 L1851.32 1035.54 L1865.31 1059.13 L1879.3 1085.61 L1893.28 1113.01 L1907.27 1139.05 L1921.26 1161.67 L1935.25 1179.38 L1949.24 1191.6 L1963.23 1198.74 
  L1963.23 1479.3 L1949.24 1479.3 L1935.25 1479.3 L1921.26 1479.3 L1907.27 1479.3 L1893.28 1479.3 L1879.3 1479.3 L1865.31 1479.3 L1851.32 1479.3 L1837.33 1479.3 
  L1823.34 1479.3 L1809.35 1479.3 L1795.36 1479.3 L1781.37 1479.3 L1767.38 1479.3 L1753.4 1479.3 L1739.41 1479.3 L1725.42 1479.3 L1711.43 1479.3 L1697.44 1479.3 
  L1683.45 1479.3 L1669.46 1479.3 L1655.47 1479.3 L1641.49 1479.3 L1627.5 1479.3 L1613.51 1479.3 L1599.52 1479.3 L1585.53 1479.3 L1571.54 1479.3 L1557.55 1479.3 
  L1543.56 1479.3 L1529.57 1479.3 L1515.59 1479.3 L1501.6 1479.3 L1487.61 1479.3 L1473.62 1479.3 L1459.63 1479.3 L1445.64 1479.3 L1431.65 1479.3 L1417.66 1479.3 
  L1403.68 1479.3 L1389.69 1479.3 L1375.7 1479.3 L1361.71 1479.3 L1347.72 1479.3 L1333.73 1479.3 L1319.74 1479.3 L1305.75 1479.3 L1291.76 1479.3 L1277.78 1479.3 
  L1263.79 1479.3 L1249.8 1479.3 L1235.81 1479.3 L1221.82 1479.3 L1207.83 1479.3 L1193.84 1479.3 L1179.85 1479.3 L1165.86 1479.3 L1151.88 1479.3 L1137.89 1479.3 
  L1123.9 1479.3 L1109.91 1479.3 L1095.92 1479.3 L1081.93 1479.3 L1067.94 1479.3 L1053.95 1479.3 L1039.97 1479.3 L1025.98 1479.3 L1011.99 1479.3 L997.999 1479.3 
  L984.01 1479.3 L970.021 1479.3 L956.032 1479.3 L942.043 1479.3 L928.055 1479.3 L914.066 1479.3 L900.077 1479.3 L886.088 1479.3 L872.099 1479.3 L858.11 1479.3 
  L844.122 1479.3 L830.133 1479.3 L816.144 1479.3 L802.155 1479.3 L788.166 1479.3 L774.177 1479.3 L760.189 1479.3 L746.2 1479.3 L732.211 1479.3 L718.222 1479.3 
  L704.233 1479.3 L690.244 1479.3 L676.255 1479.3 L662.267 1479.3 L648.278 1479.3 L634.289 1479.3 L620.3 1479.3 L606.311 1479.3 L592.322 1479.3 L578.334 1479.3 
   Z
  " fill="#008000" fill-rule="evenodd" fill-opacity="0.5"/>
<polyline clip-path="url(#clip182)" style="stroke:#008000; stroke-width:4; stroke-opacity:1; fill:none" points="
  578.334,1197.65 592.322,1195.56 606.311,1193.11 620.3,1188.71 634.289,1180.78 648.278,1167.98 662.267,1149.56 676.255,1125.49 690.244,1096.47 704.233,1063.69 
  718.222,1028.43 732.211,991.722 746.2,954.154 760.189,915.907 774.177,877.024 788.166,837.758 802.155,798.847 816.144,761.58 830.133,727.621 844.122,698.624 
  858.11,675.785 872.099,659.44 886.088,648.87 900.077,642.34 914.066,637.39 928.055,631.266 942.043,621.38 956.032,605.681 970.021,582.888 984.01,552.582 
  997.999,515.209 1011.99,472.053 1025.98,425.162 1039.97,377.209 1053.95,331.21 1067.94,290.121 1081.93,256.357 1095.92,231.371 1109.91,215.415 1123.9,207.539 
  1137.89,205.812 1151.88,207.688 1165.86,210.409 1179.85,211.402 1193.84,208.61 1207.83,200.768 1221.82,187.576 1235.81,169.766 1249.8,149.021 1263.79,127.76 
  1277.78,108.813 1291.76,95.042 1305.75,88.9544 1319.74,92.3544 1333.73,106.058 1347.72,129.689 1361.71,161.595 1375.7,198.934 1389.69,237.999 1403.68,274.784 
  1417.66,305.733 1431.65,328.475 1445.64,342.315 1459.63,348.28 1473.62,348.678 1487.61,346.32 1501.6,343.682 1515.59,342.323 1529.57,342.75 1543.56,344.731 
  1557.55,347.896 1571.54,352.371 1585.53,359.193 1599.52,370.371 1613.51,388.557 1627.5,416.409 1641.49,455.81 1655.47,507.164 1669.46,568.972 1683.45,637.857 
  1697.44,709.059 1711.43,777.317 1725.42,837.906 1739.41,887.55 1753.4,924.985 1767.38,951.021 1781.37,968.159 1795.36,979.881 1809.35,989.856 1823.34,1001.23 
  1837.33,1016.15 1851.32,1035.54 1865.31,1059.13 1879.3,1085.61 1893.28,1113.01 1907.27,1139.05 1921.26,1161.67 1935.25,1179.38 1949.24,1191.6 1963.23,1198.74 
  
  "/>
<path clip-path="url(#clip182)" d="
M1963.23 1198.74 L1966.52 1199.81 L1969.8 1200.68 L1973.09 1201.39 L1976.38 1201.94 L1979.66 1202.37 L1982.95 1202.7 L1986.24 1202.95 L1989.52 1203.14 L1992.81 1203.29 
  L1996.1 1203.42 L1999.38 1203.55 L2002.67 1203.69 L2005.96 1203.86 L2009.24 1204.07 L2012.53 1204.32 L2015.82 1204.62 L2019.11 1204.98 L2022.39 1205.4 L2025.68 1205.88 
  L2028.97 1206.42 L2032.25 1207.02 L2035.54 1207.67 L2038.83 1208.37 L2042.11 1209.11 L2045.4 1209.9 L2048.69 1210.72 L2051.97 1211.58 L2055.26 1212.46 L2058.55 1213.36 
  L2061.84 1214.3 L2065.12 1215.25 L2068.41 1216.24 L2071.7 1217.25 L2074.98 1218.3 L2078.27 1219.38 L2081.56 1220.52 L2084.84 1221.71 L2088.13 1222.97 L2091.42 1224.32 
  L2094.7 1225.75 L2097.99 1227.28 L2101.28 1228.94 L2104.56 1230.72 L2107.85 1232.64 L2111.14 1234.72 L2114.43 1236.96 L2117.71 1239.38 L2121 1241.97 L2124.29 1244.75 
  L2127.57 1247.72 L2130.86 1250.88 L2134.15 1254.23 L2137.43 1257.77 L2140.72 1261.5 L2144.01 1265.41 L2147.29 1269.48 L2150.58 1273.72 L2153.87 1278.1 L2157.15 1282.62 
  L2160.44 1287.26 L2163.73 1292 L2167.02 1296.83 L2170.3 1301.74 L2173.59 1306.69 L2176.88 1311.68 L2180.16 1316.69 L2183.45 1321.71 L2186.74 1326.71 L2190.02 1331.68 
  L2193.31 1336.61 L2196.6 1341.48 L2199.88 1346.29 L2203.17 1351.02 L2206.46 1355.67 L2209.75 1360.22 L2213.03 1364.67 L2216.32 1369.02 L2219.61 1373.26 L2222.89 1377.39 
  L2226.18 1381.4 L2229.47 1385.3 L2232.75 1389.09 L2236.04 1392.77 L2239.33 1396.33 L2242.61 1399.79 L2245.9 1403.15 L2249.19 1406.4 L2252.47 1409.55 L2255.76 1412.61 
  L2259.05 1415.57 L2262.34 1418.45 L2265.62 1421.24 L2268.91 1423.95 L2272.2 1426.57 L2275.48 1429.12 L2278.77 1431.6 L2282.06 1434 L2285.34 1436.32 L2288.63 1438.58 
  L2288.63 1479.3 L2285.34 1479.3 L2282.06 1479.3 L2278.77 1479.3 L2275.48 1479.3 L2272.2 1479.3 L2268.91 1479.3 L2265.62 1479.3 L2262.34 1479.3 L2259.05 1479.3 
  L2255.76 1479.3 L2252.47 1479.3 L2249.19 1479.3 L2245.9 1479.3 L2242.61 1479.3 L2239.33 1479.3 L2236.04 1479.3 L2232.75 1479.3 L2229.47 1479.3 L2226.18 1479.3 
  L2222.89 1479.3 L2219.61 1479.3 L2216.32 1479.3 L2213.03 1479.3 L2209.75 1479.3 L2206.46 1479.3 L2203.17 1479.3 L2199.88 1479.3 L2196.6 1479.3 L2193.31 1479.3 
  L2190.02 1479.3 L2186.74 1479.3 L2183.45 1479.3 L2180.16 1479.3 L2176.88 1479.3 L2173.59 1479.3 L2170.3 1479.3 L2167.02 1479.3 L2163.73 1479.3 L2160.44 1479.3 
  L2157.15 1479.3 L2153.87 1479.3 L2150.58 1479.3 L2147.29 1479.3 L2144.01 1479.3 L2140.72 1479.3 L2137.43 1479.3 L2134.15 1479.3 L2130.86 1479.3 L2127.57 1479.3 
  L2124.29 1479.3 L2121 1479.3 L2117.71 1479.3 L2114.43 1479.3 L2111.14 1479.3 L2107.85 1479.3 L2104.56 1479.3 L2101.28 1479.3 L2097.99 1479.3 L2094.7 1479.3 
  L2091.42 1479.3 L2088.13 1479.3 L2084.84 1479.3 L2081.56 1479.3 L2078.27 1479.3 L2074.98 1479.3 L2071.7 1479.3 L2068.41 1479.3 L2065.12 1479.3 L2061.84 1479.3 
  L2058.55 1479.3 L2055.26 1479.3 L2051.97 1479.3 L2048.69 1479.3 L2045.4 1479.3 L2042.11 1479.3 L2038.83 1479.3 L2035.54 1479.3 L2032.25 1479.3 L2028.97 1479.3 
  L2025.68 1479.3 L2022.39 1479.3 L2019.11 1479.3 L2015.82 1479.3 L2012.53 1479.3 L2009.24 1479.3 L2005.96 1479.3 L2002.67 1479.3 L1999.38 1479.3 L1996.1 1479.3 
  L1992.81 1479.3 L1989.52 1479.3 L1986.24 1479.3 L1982.95 1479.3 L1979.66 1479.3 L1976.38 1479.3 L1973.09 1479.3 L1969.8 1479.3 L1966.52 1479.3 L1963.23 1479.3 
   Z
  " fill="#ffa500" fill-rule="evenodd" fill-opacity="0.5"/>
<polyline clip-path="url(#clip182)" style="stroke:#ffa500; stroke-width:4; stroke-opacity:1; fill:none" points="
  1963.23,1198.74 1966.52,1199.81 1969.8,1200.68 1973.09,1201.39 1976.38,1201.94 1979.66,1202.37 1982.95,1202.7 1986.24,1202.95 1989.52,1203.14 1992.81,1203.29 
  1996.1,1203.42 1999.38,1203.55 2002.67,1203.69 2005.96,1203.86 2009.24,1204.07 2012.53,1204.32 2015.82,1204.62 2019.11,1204.98 2022.39,1205.4 2025.68,1205.88 
  2028.97,1206.42 2032.25,1207.02 2035.54,1207.67 2038.83,1208.37 2042.11,1209.11 2045.4,1209.9 2048.69,1210.72 2051.97,1211.58 2055.26,1212.46 2058.55,1213.36 
  2061.84,1214.3 2065.12,1215.25 2068.41,1216.24 2071.7,1217.25 2074.98,1218.3 2078.27,1219.38 2081.56,1220.52 2084.84,1221.71 2088.13,1222.97 2091.42,1224.32 
  2094.7,1225.75 2097.99,1227.28 2101.28,1228.94 2104.56,1230.72 2107.85,1232.64 2111.14,1234.72 2114.43,1236.96 2117.71,1239.38 2121,1241.97 2124.29,1244.75 
  2127.57,1247.72 2130.86,1250.88 2134.15,1254.23 2137.43,1257.77 2140.72,1261.5 2144.01,1265.41 2147.29,1269.48 2150.58,1273.72 2153.87,1278.1 2157.15,1282.62 
  2160.44,1287.26 2163.73,1292 2167.02,1296.83 2170.3,1301.74 2173.59,1306.69 2176.88,1311.68 2180.16,1316.69 2183.45,1321.71 2186.74,1326.71 2190.02,1331.68 
  2193.31,1336.61 2196.6,1341.48 2199.88,1346.29 2203.17,1351.02 2206.46,1355.67 2209.75,1360.22 2213.03,1364.67 2216.32,1369.02 2219.61,1373.26 2222.89,1377.39 
  2226.18,1381.4 2229.47,1385.3 2232.75,1389.09 2236.04,1392.77 2239.33,1396.33 2242.61,1399.79 2245.9,1403.15 2249.19,1406.4 2252.47,1409.55 2255.76,1412.61 
  2259.05,1415.57 2262.34,1418.45 2265.62,1421.24 2268.91,1423.95 2272.2,1426.57 2275.48,1429.12 2278.77,1431.6 2282.06,1434 2285.34,1436.32 2288.63,1438.58 
  
  "/>
<polyline clip-path="url(#clip182)" style="stroke:#0000ff; stroke-width:4; stroke-opacity:1; fill:none" points="
  1274.96,1479.3 1274.96,112.295 
  "/>
<polyline clip-path="url(#clip182)" style="stroke:#000000; stroke-width:4; stroke-opacity:1; fill:none" points="
  1282.9,1479.3 1282.9,103.021 
  "/>
<path clip-path="url(#clip180)" d="
M1494.58 459.25 L2277.23 459.25 L2277.23 96.3696 L1494.58 96.3696  Z
  " fill="#ffffff" fill-rule="evenodd" fill-opacity="1"/>
<polyline clip-path="url(#clip180)" style="stroke:#000000; stroke-width:4; stroke-opacity:1; fill:none" points="
  1494.58,459.25 2277.23,459.25 2277.23,96.3696 1494.58,96.3696 1494.58,459.25 
  "/>
<path clip-path="url(#clip180)" d="
M1519.75 181.042 L1670.81 181.042 L1670.81 132.658 L1519.75 132.658 L1519.75 181.042  Z
  " fill="#ffa500" fill-rule="evenodd" fill-opacity="0.5"/>
<polyline clip-path="url(#clip180)" style="stroke:#ffa500; stroke-width:4; stroke-opacity:1; fill:none" points="
  1519.75,132.658 1670.81,132.658 
  "/>
<path clip-path="url(#clip180)" d="M 0 0 M1700.38 161.19 Q1700.38 165.889 1702.3 168.574 Q1704.24 171.236 1707.62 171.236 Q1711 171.236 1712.95 168.574 Q1714.89 165.889 1714.89 161.19 Q1714.89 156.491 1712.95 153.829 Q1711 151.144 1707.62 151.144 Q1704.24 151.144 1702.3 153.829 Q1700.38 156.491 1700.38 161.19 M1714.89 170.241 Q1713.55 172.555 1711.49 173.69 Q1709.45 174.801 1706.58 174.801 Q1701.88 174.801 1698.92 171.051 Q1695.98 167.301 1695.98 161.19 Q1695.98 155.079 1698.92 151.329 Q1701.88 147.579 1706.58 147.579 Q1709.45 147.579 1711.49 148.713 Q1713.55 149.824 1714.89 152.139 L1714.89 148.204 L1719.15 148.204 L1719.15 183.991 L1714.89 183.991 L1714.89 170.241 Z" fill="#000000" fill-rule="evenodd" fill-opacity="1" /><path clip-path="url(#clip180)" d="M 0 0 M1734.22 142.648 Q1730.61 142.648 1728.78 146.213 Q1726.98 149.755 1726.98 156.884 Q1726.98 163.991 1728.78 167.556 Q1730.61 171.097 1734.22 171.097 Q1737.85 171.097 1739.66 167.556 Q1741.49 163.991 1741.49 156.884 Q1741.49 149.755 1739.66 146.213 Q1737.85 142.648 1734.22 142.648 M1734.22 138.945 Q1740.03 138.945 1743.09 143.551 Q1746.17 148.134 1746.17 156.884 Q1746.17 165.611 1743.09 170.218 Q1740.03 174.801 1734.22 174.801 Q1728.41 174.801 1725.33 170.218 Q1722.28 165.611 1722.28 156.884 Q1722.28 148.134 1725.33 143.551 Q1728.41 138.945 1734.22 138.945 Z" fill="#000000" fill-rule="evenodd" fill-opacity="1" /><path clip-path="url(#clip180)" d="M 0 0 M1751.28 139.57 L1769.64 139.57 L1769.64 143.505 L1755.56 143.505 L1755.56 151.977 Q1756.58 151.63 1757.6 151.468 Q1758.62 151.282 1759.64 151.282 Q1765.42 151.282 1768.8 154.454 Q1772.18 157.625 1772.18 163.042 Q1772.18 168.62 1768.71 171.722 Q1765.24 174.801 1758.92 174.801 Q1756.74 174.801 1754.48 174.43 Q1752.23 174.06 1749.82 173.319 L1749.82 168.62 Q1751.91 169.755 1754.13 170.31 Q1756.35 170.866 1758.83 170.866 Q1762.83 170.866 1765.17 168.759 Q1767.51 166.653 1767.51 163.042 Q1767.51 159.431 1765.17 157.324 Q1762.83 155.218 1758.83 155.218 Q1756.95 155.218 1755.08 155.634 Q1753.23 156.051 1751.28 156.931 L1751.28 139.57 Z" fill="#000000" fill-rule="evenodd" fill-opacity="1" /><path clip-path="url(#clip180)" d="
M1519.75 241.522 L1670.81 241.522 L1670.81 193.138 L1519.75 193.138 L1519.75 241.522  Z
  " fill="#008000" fill-rule="evenodd" fill-opacity="0.5"/>
<polyline clip-path="url(#clip180)" style="stroke:#008000; stroke-width:4; stroke-opacity:1; fill:none" points="
  1519.75,193.138 1670.81,193.138 
  "/>
<path clip-path="url(#clip180)" d="M 0 0 M1698.2 233.892 L1698.2 229.633 Q1699.96 230.466 1701.77 230.906 Q1703.57 231.346 1705.31 231.346 Q1709.94 231.346 1712.37 228.244 Q1714.82 225.119 1715.17 218.776 Q1713.83 220.767 1711.77 221.832 Q1709.71 222.897 1707.21 222.897 Q1702.02 222.897 1698.99 219.772 Q1695.98 216.624 1695.98 211.184 Q1695.98 205.86 1699.13 202.642 Q1702.28 199.425 1707.51 199.425 Q1713.5 199.425 1716.65 204.031 Q1719.82 208.614 1719.82 217.364 Q1719.82 225.536 1715.93 230.42 Q1712.07 235.281 1705.52 235.281 Q1703.76 235.281 1701.95 234.934 Q1700.15 234.586 1698.2 233.892 M1707.51 219.239 Q1710.66 219.239 1712.48 217.086 Q1714.34 214.934 1714.34 211.184 Q1714.34 207.457 1712.48 205.304 Q1710.66 203.128 1707.51 203.128 Q1704.36 203.128 1702.51 205.304 Q1700.68 207.457 1700.68 211.184 Q1700.68 214.934 1702.51 217.086 Q1704.36 219.239 1707.51 219.239 Z" fill="#000000" fill-rule="evenodd" fill-opacity="1" /><path clip-path="url(#clip180)" d="M 0 0 M1734.89 203.128 Q1731.28 203.128 1729.45 206.693 Q1727.65 210.235 1727.65 217.364 Q1727.65 224.471 1729.45 228.036 Q1731.28 231.577 1734.89 231.577 Q1738.53 231.577 1740.33 228.036 Q1742.16 224.471 1742.16 217.364 Q1742.16 210.235 1740.33 206.693 Q1738.53 203.128 1734.89 203.128 M1734.89 199.425 Q1740.7 199.425 1743.76 204.031 Q1746.84 208.614 1746.84 217.364 Q1746.84 226.091 1743.76 230.698 Q1740.7 235.281 1734.89 235.281 Q1729.08 235.281 1726 230.698 Q1722.95 226.091 1722.95 217.364 Q1722.95 208.614 1726 204.031 Q1729.08 199.425 1734.89 199.425 Z" fill="#000000" fill-rule="evenodd" fill-opacity="1" /><path clip-path="url(#clip180)" d="M 0 0 M1781.3 219.401 Q1779.29 219.401 1778.13 221.114 Q1777 222.827 1777 225.883 Q1777 228.892 1778.13 230.628 Q1779.29 232.341 1781.3 232.341 Q1783.27 232.341 1784.41 230.628 Q1785.56 228.892 1785.56 225.883 Q1785.56 222.85 1784.41 221.137 Q1783.27 219.401 1781.3 219.401 M1781.3 216.462 Q1784.96 216.462 1787.11 219.008 Q1789.27 221.554 1789.27 225.883 Q1789.27 230.211 1787.09 232.758 Q1784.94 235.281 1781.3 235.281 Q1777.6 235.281 1775.45 232.758 Q1773.29 230.211 1773.29 225.883 Q1773.29 221.531 1775.45 219.008 Q1777.62 216.462 1781.3 216.462 M1757.42 202.364 Q1755.42 202.364 1754.27 204.1 Q1753.13 205.813 1753.13 208.823 Q1753.13 211.878 1754.27 213.591 Q1755.4 215.304 1757.42 215.304 Q1759.43 215.304 1760.56 213.591 Q1761.72 211.878 1761.72 208.823 Q1761.72 205.837 1760.56 204.1 Q1759.41 202.364 1757.42 202.364 M1778.32 199.425 L1782.02 199.425 L1760.4 235.281 L1756.7 235.281 L1778.32 199.425 M1757.42 199.425 Q1761.07 199.425 1763.25 201.971 Q1765.42 204.494 1765.42 208.823 Q1765.42 213.198 1763.25 215.721 Q1761.1 218.244 1757.42 218.244 Q1753.73 218.244 1751.58 215.721 Q1749.45 213.174 1749.45 208.823 Q1749.45 204.517 1751.6 201.971 Q1753.76 199.425 1757.42 199.425 Z" fill="#000000" fill-rule="evenodd" fill-opacity="1" /><path clip-path="url(#clip180)" d="M 0 0 M1830.35 218.961 L1830.35 234.61 L1826.1 234.61 L1826.1 219.1 Q1826.1 215.42 1824.66 213.591 Q1823.22 211.762 1820.35 211.762 Q1816.91 211.762 1814.91 213.962 Q1812.92 216.161 1812.92 219.957 L1812.92 234.61 L1808.64 234.61 L1808.64 208.684 L1812.92 208.684 L1812.92 212.712 Q1814.45 210.374 1816.51 209.216 Q1818.6 208.059 1821.3 208.059 Q1825.77 208.059 1828.06 210.837 Q1830.35 213.591 1830.35 218.961 Z" fill="#000000" fill-rule="evenodd" fill-opacity="1" /><path clip-path="url(#clip180)" d="M 0 0 M1844.87 211.67 Q1841.44 211.67 1839.45 214.355 Q1837.46 217.017 1837.46 221.67 Q1837.46 226.323 1839.43 229.008 Q1841.42 231.67 1844.87 231.67 Q1848.27 231.67 1850.26 228.985 Q1852.25 226.299 1852.25 221.67 Q1852.25 217.063 1850.26 214.378 Q1848.27 211.67 1844.87 211.67 M1844.87 208.059 Q1850.42 208.059 1853.6 211.67 Q1856.77 215.281 1856.77 221.67 Q1856.77 228.036 1853.6 231.67 Q1850.42 235.281 1844.87 235.281 Q1839.29 235.281 1836.12 231.67 Q1832.97 228.036 1832.97 221.67 Q1832.97 215.281 1836.12 211.67 Q1839.29 208.059 1844.87 208.059 Z" fill="#000000" fill-rule="evenodd" fill-opacity="1" /><path clip-path="url(#clip180)" d="M 0 0 M1882.78 218.961 L1882.78 234.61 L1878.53 234.61 L1878.53 219.1 Q1878.53 215.42 1877.09 213.591 Q1875.66 211.762 1872.78 211.762 Q1869.34 211.762 1867.35 213.962 Q1865.35 216.161 1865.35 219.957 L1865.35 234.61 L1861.07 234.61 L1861.07 208.684 L1865.35 208.684 L1865.35 212.712 Q1866.88 210.374 1868.94 209.216 Q1871.03 208.059 1873.73 208.059 Q1878.2 208.059 1880.49 210.837 Q1882.78 213.591 1882.78 218.961 Z" fill="#000000" fill-rule="evenodd" fill-opacity="1" /><path clip-path="url(#clip180)" d="M 0 0 M1885.1 219.725 L1897.58 219.725 L1897.58 223.522 L1885.1 223.522 L1885.1 219.725 Z" fill="#000000" fill-rule="evenodd" fill-opacity="1" /><path clip-path="url(#clip180)" d="M 0 0 M1917.07 212.665 Q1916.35 212.249 1915.49 212.063 Q1914.66 211.855 1913.64 211.855 Q1910.03 211.855 1908.09 214.216 Q1906.16 216.554 1906.16 220.952 L1906.16 234.61 L1901.88 234.61 L1901.88 208.684 L1906.16 208.684 L1906.16 212.712 Q1907.51 210.35 1909.66 209.216 Q1911.81 208.059 1914.89 208.059 Q1915.33 208.059 1915.86 208.128 Q1916.4 208.175 1917.04 208.29 L1917.07 212.665 Z" fill="#000000" fill-rule="evenodd" fill-opacity="1" /><path clip-path="url(#clip180)" d="M 0 0 M1942.67 220.582 L1942.67 222.665 L1923.09 222.665 Q1923.36 227.063 1925.72 229.378 Q1928.11 231.67 1932.34 231.67 Q1934.8 231.67 1937.09 231.068 Q1939.4 230.466 1941.67 229.262 L1941.67 233.29 Q1939.38 234.262 1936.97 234.772 Q1934.57 235.281 1932.09 235.281 Q1925.89 235.281 1922.25 231.67 Q1918.64 228.059 1918.64 221.901 Q1918.64 215.536 1922.07 211.809 Q1925.52 208.059 1931.35 208.059 Q1936.58 208.059 1939.61 211.438 Q1942.67 214.795 1942.67 220.582 M1938.41 219.332 Q1938.36 215.837 1936.44 213.753 Q1934.54 211.67 1931.4 211.67 Q1927.83 211.67 1925.68 213.684 Q1923.55 215.698 1923.22 219.355 L1938.41 219.332 Z" fill="#000000" fill-rule="evenodd" fill-opacity="1" /><path clip-path="url(#clip180)" d="M 0 0 M1947.14 208.684 L1951.4 208.684 L1951.4 235.073 Q1951.4 240.026 1949.5 242.248 Q1947.62 244.471 1943.43 244.471 L1941.81 244.471 L1941.81 240.86 L1942.95 240.86 Q1945.38 240.86 1946.26 239.725 Q1947.14 238.614 1947.14 235.073 L1947.14 208.684 M1947.14 198.591 L1951.4 198.591 L1951.4 203.985 L1947.14 203.985 L1947.14 198.591 Z" fill="#000000" fill-rule="evenodd" fill-opacity="1" /><path clip-path="url(#clip180)" d="M 0 0 M1978.04 220.582 L1978.04 222.665 L1958.46 222.665 Q1958.73 227.063 1961.09 229.378 Q1963.48 231.67 1967.71 231.67 Q1970.17 231.67 1972.46 231.068 Q1974.78 230.466 1977.04 229.262 L1977.04 233.29 Q1974.75 234.262 1972.34 234.772 Q1969.94 235.281 1967.46 235.281 Q1961.26 235.281 1957.62 231.67 Q1954.01 228.059 1954.01 221.901 Q1954.01 215.536 1957.44 211.809 Q1960.89 208.059 1966.72 208.059 Q1971.95 208.059 1974.98 211.438 Q1978.04 214.795 1978.04 220.582 M1973.78 219.332 Q1973.73 215.837 1971.81 213.753 Q1969.91 211.67 1966.77 211.67 Q1963.2 211.67 1961.05 213.684 Q1958.92 215.698 1958.59 219.355 L1973.78 219.332 Z" fill="#000000" fill-rule="evenodd" fill-opacity="1" /><path clip-path="url(#clip180)" d="M 0 0 M2001.16 209.679 L2001.16 213.661 Q1999.36 212.665 1997.53 212.179 Q1995.72 211.67 1993.87 211.67 Q1989.73 211.67 1987.44 214.309 Q1985.15 216.924 1985.15 221.67 Q1985.15 226.415 1987.44 229.054 Q1989.73 231.67 1993.87 231.67 Q1995.72 231.67 1997.53 231.184 Q1999.36 230.674 2001.16 229.679 L2001.16 233.614 Q1999.38 234.448 1997.46 234.864 Q1995.56 235.281 1993.41 235.281 Q1987.55 235.281 1984.1 231.6 Q1980.65 227.92 1980.65 221.67 Q1980.65 215.327 1984.13 211.693 Q1987.62 208.059 1993.69 208.059 Q1995.65 208.059 1997.53 208.475 Q1999.4 208.869 2001.16 209.679 Z" fill="#000000" fill-rule="evenodd" fill-opacity="1" /><path clip-path="url(#clip180)" d="M 0 0 M2009.84 201.323 L2009.84 208.684 L2018.62 208.684 L2018.62 211.994 L2009.84 211.994 L2009.84 226.068 Q2009.84 229.239 2010.7 230.142 Q2011.58 231.045 2014.24 231.045 L2018.62 231.045 L2018.62 234.61 L2014.24 234.61 Q2009.31 234.61 2007.44 232.781 Q2005.56 230.929 2005.56 226.068 L2005.56 211.994 L2002.44 211.994 L2002.44 208.684 L2005.56 208.684 L2005.56 201.323 L2009.84 201.323 Z" fill="#000000" fill-rule="evenodd" fill-opacity="1" /><path clip-path="url(#clip180)" d="M 0 0 M2023.08 208.684 L2027.34 208.684 L2027.34 234.61 L2023.08 234.61 L2023.08 208.684 M2023.08 198.591 L2027.34 198.591 L2027.34 203.985 L2023.08 203.985 L2023.08 198.591 Z" fill="#000000" fill-rule="evenodd" fill-opacity="1" /><path clip-path="url(#clip180)" d="M 0 0 M2041.86 211.67 Q2038.43 211.67 2036.44 214.355 Q2034.45 217.017 2034.45 221.67 Q2034.45 226.323 2036.42 229.008 Q2038.41 231.67 2041.86 231.67 Q2045.26 231.67 2047.25 228.985 Q2049.24 226.299 2049.24 221.67 Q2049.24 217.063 2047.25 214.378 Q2045.26 211.67 2041.86 211.67 M2041.86 208.059 Q2047.41 208.059 2050.58 211.67 Q2053.76 215.281 2053.76 221.67 Q2053.76 228.036 2050.58 231.67 Q2047.41 235.281 2041.86 235.281 Q2036.28 235.281 2033.11 231.67 Q2029.96 228.036 2029.96 221.67 Q2029.96 215.281 2033.11 211.67 Q2036.28 208.059 2041.86 208.059 Z" fill="#000000" fill-rule="evenodd" fill-opacity="1" /><path clip-path="url(#clip180)" d="M 0 0 M2079.77 218.961 L2079.77 234.61 L2075.52 234.61 L2075.52 219.1 Q2075.52 215.42 2074.08 213.591 Q2072.64 211.762 2069.77 211.762 Q2066.33 211.762 2064.33 213.962 Q2062.34 216.161 2062.34 219.957 L2062.34 234.61 L2058.06 234.61 L2058.06 208.684 L2062.34 208.684 L2062.34 212.712 Q2063.87 210.374 2065.93 209.216 Q2068.02 208.059 2070.72 208.059 Q2075.19 208.059 2077.48 210.837 Q2079.77 213.591 2079.77 218.961 Z" fill="#000000" fill-rule="evenodd" fill-opacity="1" /><path clip-path="url(#clip180)" d="M 0 0 M2114.33 212.665 Q2113.62 212.249 2112.76 212.063 Q2111.93 211.855 2110.91 211.855 Q2107.3 211.855 2105.35 214.216 Q2103.43 216.554 2103.43 220.952 L2103.43 234.61 L2099.15 234.61 L2099.15 208.684 L2103.43 208.684 L2103.43 212.712 Q2104.77 210.35 2106.93 209.216 Q2109.08 208.059 2112.16 208.059 Q2112.6 208.059 2113.13 208.128 Q2113.66 208.175 2114.31 208.29 L2114.33 212.665 Z" fill="#000000" fill-rule="evenodd" fill-opacity="1" /><path clip-path="url(#clip180)" d="M 0 0 M2139.94 220.582 L2139.94 222.665 L2120.35 222.665 Q2120.63 227.063 2122.99 229.378 Q2125.38 231.67 2129.61 231.67 Q2132.07 231.67 2134.36 231.068 Q2136.67 230.466 2138.94 229.262 L2138.94 233.29 Q2136.65 234.262 2134.24 234.772 Q2131.83 235.281 2129.36 235.281 Q2123.15 235.281 2119.52 231.67 Q2115.91 228.059 2115.91 221.901 Q2115.91 215.536 2119.33 211.809 Q2122.78 208.059 2128.62 208.059 Q2133.85 208.059 2136.88 211.438 Q2139.94 214.795 2139.94 220.582 M2135.68 219.332 Q2135.63 215.837 2133.71 213.753 Q2131.81 211.67 2128.66 211.67 Q2125.1 211.67 2122.95 213.684 Q2120.82 215.698 2120.49 219.355 L2135.68 219.332 Z" fill="#000000" fill-rule="evenodd" fill-opacity="1" /><path clip-path="url(#clip180)" d="M 0 0 M2161.46 221.346 Q2161.46 216.716 2159.54 214.17 Q2157.64 211.624 2154.2 211.624 Q2150.77 211.624 2148.85 214.17 Q2146.95 216.716 2146.95 221.346 Q2146.95 225.952 2148.85 228.498 Q2150.77 231.045 2154.2 231.045 Q2157.64 231.045 2159.54 228.498 Q2161.46 225.952 2161.46 221.346 M2165.72 231.392 Q2165.72 238.012 2162.78 241.23 Q2159.84 244.471 2153.78 244.471 Q2151.53 244.471 2149.54 244.123 Q2147.55 243.799 2145.68 243.105 L2145.68 238.961 Q2147.55 239.98 2149.38 240.466 Q2151.21 240.952 2153.11 240.952 Q2157.3 240.952 2159.38 238.753 Q2161.46 236.577 2161.46 232.156 L2161.46 230.049 Q2160.14 232.341 2158.08 233.475 Q2156.02 234.61 2153.15 234.61 Q2148.39 234.61 2145.47 230.975 Q2142.55 227.341 2142.55 221.346 Q2142.55 215.327 2145.47 211.693 Q2148.39 208.059 2153.15 208.059 Q2156.02 208.059 2158.08 209.193 Q2160.14 210.327 2161.46 212.619 L2161.46 208.684 L2165.72 208.684 L2165.72 231.392 Z" fill="#000000" fill-rule="evenodd" fill-opacity="1" /><path clip-path="url(#clip180)" d="M 0 0 M2170.19 208.684 L2174.45 208.684 L2174.45 234.61 L2170.19 234.61 L2170.19 208.684 M2170.19 198.591 L2174.45 198.591 L2174.45 203.985 L2170.19 203.985 L2170.19 198.591 Z" fill="#000000" fill-rule="evenodd" fill-opacity="1" /><path clip-path="url(#clip180)" d="M 0 0 M2188.96 211.67 Q2185.54 211.67 2183.55 214.355 Q2181.56 217.017 2181.56 221.67 Q2181.56 226.323 2183.52 229.008 Q2185.51 231.67 2188.96 231.67 Q2192.37 231.67 2194.36 228.985 Q2196.35 226.299 2196.35 221.67 Q2196.35 217.063 2194.36 214.378 Q2192.37 211.67 2188.96 211.67 M2188.96 208.059 Q2194.52 208.059 2197.69 211.67 Q2200.86 215.281 2200.86 221.67 Q2200.86 228.036 2197.69 231.67 Q2194.52 235.281 2188.96 235.281 Q2183.39 235.281 2180.21 231.67 Q2177.07 228.036 2177.07 221.67 Q2177.07 215.281 2180.21 211.67 Q2183.39 208.059 2188.96 208.059 Z" fill="#000000" fill-rule="evenodd" fill-opacity="1" /><path clip-path="url(#clip180)" d="M 0 0 M2226.88 218.961 L2226.88 234.61 L2222.62 234.61 L2222.62 219.1 Q2222.62 215.42 2221.19 213.591 Q2219.75 211.762 2216.88 211.762 Q2213.43 211.762 2211.44 213.962 Q2209.45 216.161 2209.45 219.957 L2209.45 234.61 L2205.17 234.61 L2205.17 208.684 L2209.45 208.684 L2209.45 212.712 Q2210.98 210.374 2213.04 209.216 Q2215.12 208.059 2217.83 208.059 Q2222.3 208.059 2224.59 210.837 Q2226.88 213.591 2226.88 218.961 Z" fill="#000000" fill-rule="evenodd" fill-opacity="1" /><path clip-path="url(#clip180)" d="
M1519.75 302.002 L1670.81 302.002 L1670.81 253.618 L1519.75 253.618 L1519.75 302.002  Z
  " fill="#ffa500" fill-rule="evenodd" fill-opacity="0.5"/>
<polyline clip-path="url(#clip180)" style="stroke:#ffa500; stroke-width:4; stroke-opacity:1; fill:none" points="
  1519.75,253.618 1670.81,253.618 
  "/>
<path clip-path="url(#clip180)" d="M 0 0 M1700.38 282.15 Q1700.38 286.849 1702.3 289.534 Q1704.24 292.196 1707.62 292.196 Q1711 292.196 1712.95 289.534 Q1714.89 286.849 1714.89 282.15 Q1714.89 277.451 1712.95 274.789 Q1711 272.104 1707.62 272.104 Q1704.24 272.104 1702.3 274.789 Q1700.38 277.451 1700.38 282.15 M1714.89 291.201 Q1713.55 293.515 1711.49 294.65 Q1709.45 295.761 1706.58 295.761 Q1701.88 295.761 1698.92 292.011 Q1695.98 288.261 1695.98 282.15 Q1695.98 276.039 1698.92 272.289 Q1701.88 268.539 1706.58 268.539 Q1709.45 268.539 1711.49 269.673 Q1713.55 270.784 1714.89 273.099 L1714.89 269.164 L1719.15 269.164 L1719.15 304.951 L1714.89 304.951 L1714.89 291.201 Z" fill="#000000" fill-rule="evenodd" fill-opacity="1" /><path clip-path="url(#clip180)" d="M 0 0 M1724.36 294.372 L1724.36 290.113 Q1726.12 290.946 1727.92 291.386 Q1729.73 291.826 1731.47 291.826 Q1736.1 291.826 1738.53 288.724 Q1740.98 285.599 1741.33 279.256 Q1739.98 281.247 1737.92 282.312 Q1735.86 283.377 1733.36 283.377 Q1728.18 283.377 1725.15 280.252 Q1722.14 277.104 1722.14 271.664 Q1722.14 266.34 1725.29 263.122 Q1728.43 259.905 1733.67 259.905 Q1739.66 259.905 1742.81 264.511 Q1745.98 269.094 1745.98 277.844 Q1745.98 286.016 1742.09 290.9 Q1738.23 295.761 1731.67 295.761 Q1729.92 295.761 1728.11 295.414 Q1726.3 295.066 1724.36 294.372 M1733.67 279.719 Q1736.81 279.719 1738.64 277.566 Q1740.49 275.414 1740.49 271.664 Q1740.49 267.937 1738.64 265.784 Q1736.81 263.608 1733.67 263.608 Q1730.52 263.608 1728.67 265.784 Q1726.84 267.937 1726.84 271.664 Q1726.84 275.414 1728.67 277.566 Q1730.52 279.719 1733.67 279.719 Z" fill="#000000" fill-rule="evenodd" fill-opacity="1" /><path clip-path="url(#clip180)" d="M 0 0 M1751.1 260.53 L1769.45 260.53 L1769.45 264.465 L1755.38 264.465 L1755.38 272.937 Q1756.4 272.59 1757.42 272.428 Q1758.43 272.242 1759.45 272.242 Q1765.24 272.242 1768.62 275.414 Q1772 278.585 1772 284.002 Q1772 289.58 1768.53 292.682 Q1765.05 295.761 1758.73 295.761 Q1756.56 295.761 1754.29 295.39 Q1752.04 295.02 1749.64 294.279 L1749.64 289.58 Q1751.72 290.715 1753.94 291.27 Q1756.17 291.826 1758.64 291.826 Q1762.65 291.826 1764.98 289.719 Q1767.32 287.613 1767.32 284.002 Q1767.32 280.391 1764.98 278.284 Q1762.65 276.178 1758.64 276.178 Q1756.77 276.178 1754.89 276.594 Q1753.04 277.011 1751.1 277.891 L1751.1 260.53 Z" fill="#000000" fill-rule="evenodd" fill-opacity="1" /><polyline clip-path="url(#clip180)" style="stroke:#0000ff; stroke-width:4; stroke-opacity:1; fill:none" points="
  1519.75,338.29 1670.81,338.29 
  "/>
<path clip-path="url(#clip180)" d="M 0 0 M1716.33 334.621 Q1717.92 331.75 1720.15 330.385 Q1722.37 329.019 1725.38 329.019 Q1729.43 329.019 1731.63 331.866 Q1733.83 334.69 1733.83 339.921 L1733.83 355.57 L1729.54 355.57 L1729.54 340.06 Q1729.54 336.334 1728.23 334.528 Q1726.91 332.722 1724.2 332.722 Q1720.89 332.722 1718.97 334.922 Q1717.04 337.121 1717.04 340.917 L1717.04 355.57 L1712.76 355.57 L1712.76 340.06 Q1712.76 336.31 1711.44 334.528 Q1710.12 332.722 1707.37 332.722 Q1704.11 332.722 1702.18 334.945 Q1700.26 337.144 1700.26 340.917 L1700.26 355.57 L1695.98 355.57 L1695.98 329.644 L1700.26 329.644 L1700.26 333.672 Q1701.72 331.287 1703.76 330.153 Q1705.79 329.019 1708.6 329.019 Q1711.42 329.019 1713.39 330.454 Q1715.38 331.889 1716.33 334.621 Z" fill="#000000" fill-rule="evenodd" fill-opacity="1" /><path clip-path="url(#clip180)" d="M 0 0 M1760.47 341.542 L1760.47 343.625 L1740.89 343.625 Q1741.17 348.023 1743.53 350.338 Q1745.91 352.63 1750.15 352.63 Q1752.6 352.63 1754.89 352.028 Q1757.21 351.426 1759.48 350.222 L1759.48 354.25 Q1757.18 355.222 1754.78 355.732 Q1752.37 356.241 1749.89 356.241 Q1743.69 356.241 1740.05 352.63 Q1736.44 349.019 1736.44 342.861 Q1736.44 336.496 1739.87 332.769 Q1743.32 329.019 1749.15 329.019 Q1754.38 329.019 1757.42 332.398 Q1760.47 335.755 1760.47 341.542 M1756.21 340.292 Q1756.17 336.797 1754.24 334.713 Q1752.35 332.63 1749.2 332.63 Q1745.63 332.63 1743.48 334.644 Q1741.35 336.658 1741.03 340.315 L1756.21 340.292 Z" fill="#000000" fill-rule="evenodd" fill-opacity="1" /><path clip-path="url(#clip180)" d="M 0 0 M1776.72 342.537 Q1771.56 342.537 1769.57 343.718 Q1767.58 344.898 1767.58 347.746 Q1767.58 350.014 1769.06 351.357 Q1770.56 352.676 1773.13 352.676 Q1776.67 352.676 1778.8 350.176 Q1780.96 347.653 1780.96 343.486 L1780.96 342.537 L1776.72 342.537 M1785.22 340.778 L1785.22 355.57 L1780.96 355.57 L1780.96 351.634 Q1779.5 353.995 1777.32 355.13 Q1775.15 356.241 1772 356.241 Q1768.02 356.241 1765.66 354.019 Q1763.32 351.773 1763.32 348.023 Q1763.32 343.648 1766.23 341.426 Q1769.17 339.204 1774.98 339.204 L1780.96 339.204 L1780.96 338.787 Q1780.96 335.847 1779.01 334.25 Q1777.09 332.63 1773.6 332.63 Q1771.37 332.63 1769.27 333.162 Q1767.16 333.695 1765.22 334.759 L1765.22 330.824 Q1767.55 329.922 1769.75 329.482 Q1771.95 329.019 1774.04 329.019 Q1779.66 329.019 1782.44 331.935 Q1785.22 334.852 1785.22 340.778 Z" fill="#000000" fill-rule="evenodd" fill-opacity="1" /><path clip-path="url(#clip180)" d="M 0 0 M1811.23 339.921 L1811.23 355.57 L1806.97 355.57 L1806.97 340.06 Q1806.97 336.38 1805.54 334.551 Q1804.1 332.722 1801.23 332.722 Q1797.79 332.722 1795.79 334.922 Q1793.8 337.121 1793.8 340.917 L1793.8 355.57 L1789.52 355.57 L1789.52 329.644 L1793.8 329.644 L1793.8 333.672 Q1795.33 331.334 1797.39 330.176 Q1799.48 329.019 1802.18 329.019 Q1806.65 329.019 1808.94 331.797 Q1811.23 334.551 1811.23 339.921 Z" fill="#000000" fill-rule="evenodd" fill-opacity="1" /><polyline clip-path="url(#clip180)" style="stroke:#000000; stroke-width:4; stroke-opacity:1; fill:none" points="
  1519.75,398.77 1670.81,398.77 
  "/>
<path clip-path="url(#clip180)" d="M 0 0 M1716.33 395.101 Q1717.92 392.23 1720.15 390.865 Q1722.37 389.499 1725.38 389.499 Q1729.43 389.499 1731.63 392.346 Q1733.83 395.17 1733.83 400.401 L1733.83 416.05 L1729.54 416.05 L1729.54 400.54 Q1729.54 396.814 1728.23 395.008 Q1726.91 393.202 1724.2 393.202 Q1720.89 393.202 1718.97 395.402 Q1717.04 397.601 1717.04 401.397 L1717.04 416.05 L1712.76 416.05 L1712.76 400.54 Q1712.76 396.79 1711.44 395.008 Q1710.12 393.202 1707.37 393.202 Q1704.11 393.202 1702.18 395.425 Q1700.26 397.624 1700.26 401.397 L1700.26 416.05 L1695.98 416.05 L1695.98 390.124 L1700.26 390.124 L1700.26 394.152 Q1701.72 391.767 1703.76 390.633 Q1705.79 389.499 1708.6 389.499 Q1711.42 389.499 1713.39 390.934 Q1715.38 392.369 1716.33 395.101 Z" fill="#000000" fill-rule="evenodd" fill-opacity="1" /><path clip-path="url(#clip180)" d="M 0 0 M1760.47 402.022 L1760.47 404.105 L1740.89 404.105 Q1741.17 408.503 1743.53 410.818 Q1745.91 413.11 1750.15 413.11 Q1752.6 413.11 1754.89 412.508 Q1757.21 411.906 1759.48 410.702 L1759.48 414.73 Q1757.18 415.702 1754.78 416.212 Q1752.37 416.721 1749.89 416.721 Q1743.69 416.721 1740.05 413.11 Q1736.44 409.499 1736.44 403.341 Q1736.44 396.976 1739.87 393.249 Q1743.32 389.499 1749.15 389.499 Q1754.38 389.499 1757.42 392.878 Q1760.47 396.235 1760.47 402.022 M1756.21 400.772 Q1756.17 397.277 1754.24 395.193 Q1752.35 393.11 1749.2 393.11 Q1745.63 393.11 1743.48 395.124 Q1741.35 397.138 1741.03 400.795 L1756.21 400.772 Z" fill="#000000" fill-rule="evenodd" fill-opacity="1" /><path clip-path="url(#clip180)" d="M 0 0 M1782 394.059 L1782 380.031 L1786.26 380.031 L1786.26 416.05 L1782 416.05 L1782 412.161 Q1780.66 414.475 1778.6 415.61 Q1776.56 416.721 1773.69 416.721 Q1768.99 416.721 1766.03 412.971 Q1763.09 409.221 1763.09 403.11 Q1763.09 396.999 1766.03 393.249 Q1768.99 389.499 1773.69 389.499 Q1776.56 389.499 1778.6 390.633 Q1780.66 391.744 1782 394.059 M1767.48 403.11 Q1767.48 407.809 1769.41 410.494 Q1771.35 413.156 1774.73 413.156 Q1778.11 413.156 1780.05 410.494 Q1782 407.809 1782 403.11 Q1782 398.411 1780.05 395.749 Q1778.11 393.064 1774.73 393.064 Q1771.35 393.064 1769.41 395.749 Q1767.48 398.411 1767.48 403.11 Z" fill="#000000" fill-rule="evenodd" fill-opacity="1" /><path clip-path="url(#clip180)" d="M 0 0 M1790.73 390.124 L1794.98 390.124 L1794.98 416.05 L1790.73 416.05 L1790.73 390.124 M1790.73 380.031 L1794.98 380.031 L1794.98 385.425 L1790.73 385.425 L1790.73 380.031 Z" fill="#000000" fill-rule="evenodd" fill-opacity="1" /><path clip-path="url(#clip180)" d="M 0 0 M1811.23 403.017 Q1806.07 403.017 1804.08 404.198 Q1802.09 405.378 1802.09 408.226 Q1802.09 410.494 1803.57 411.837 Q1805.08 413.156 1807.65 413.156 Q1811.19 413.156 1813.32 410.656 Q1815.47 408.133 1815.47 403.966 L1815.47 403.017 L1811.23 403.017 M1819.73 401.258 L1819.73 416.05 L1815.47 416.05 L1815.47 412.114 Q1814.01 414.475 1811.84 415.61 Q1809.66 416.721 1806.51 416.721 Q1802.53 416.721 1800.17 414.499 Q1797.83 412.253 1797.83 408.503 Q1797.83 404.128 1800.75 401.906 Q1803.69 399.684 1809.5 399.684 L1815.47 399.684 L1815.47 399.267 Q1815.47 396.327 1813.53 394.73 Q1811.6 393.11 1808.11 393.11 Q1805.89 393.11 1803.78 393.642 Q1801.67 394.175 1799.73 395.239 L1799.73 391.304 Q1802.07 390.402 1804.27 389.962 Q1806.47 389.499 1808.55 389.499 Q1814.17 389.499 1816.95 392.415 Q1819.73 395.332 1819.73 401.258 Z" fill="#000000" fill-rule="evenodd" fill-opacity="1" /><path clip-path="url(#clip180)" d="M 0 0 M1845.75 400.401 L1845.75 416.05 L1841.49 416.05 L1841.49 400.54 Q1841.49 396.86 1840.05 395.031 Q1838.62 393.202 1835.75 393.202 Q1832.3 393.202 1830.31 395.402 Q1828.32 397.601 1828.32 401.397 L1828.32 416.05 L1824.04 416.05 L1824.04 390.124 L1828.32 390.124 L1828.32 394.152 Q1829.85 391.814 1831.91 390.656 Q1833.99 389.499 1836.7 389.499 Q1841.16 389.499 1843.46 392.277 Q1845.75 395.031 1845.75 400.401 Z" fill="#000000" fill-rule="evenodd" fill-opacity="1" /></svg>
