<?xml version="1.0" encoding="utf-8"?>
<svg xmlns="http://www.w3.org/2000/svg" xmlns:xlink="http://www.w3.org/1999/xlink" width="600" height="400" viewBox="0 0 2400 1600">
<defs>
  <clipPath id="clip700">
    <rect x="0" y="0" width="2400" height="1600"/>
  </clipPath>
</defs>
<path clip-path="url(#clip700)" d="
M0 1600 L2400 1600 L2400 0 L0 0  Z
  " fill="#ffffff" fill-rule="evenodd" fill-opacity="1"/>
<defs>
  <clipPath id="clip701">
    <rect x="480" y="0" width="1681" height="1600"/>
  </clipPath>
</defs>
<path clip-path="url(#clip700)" d="
M86.9921 1521.01 L2352.76 1521.01 L2352.76 47.2441 L86.9921 47.2441  Z
  " fill="#ffffff" fill-rule="evenodd" fill-opacity="1"/>
<defs>
  <clipPath id="clip702">
    <rect x="86" y="47" width="2267" height="1475"/>
  </clipPath>
</defs>
<polyline clip-path="url(#clip702)" style="stroke:#000000; stroke-width:2; stroke-opacity:0.1; fill:none" points="
  270.615,1521.01 270.615,47.2441 
  "/>
<polyline clip-path="url(#clip702)" style="stroke:#000000; stroke-width:2; stroke-opacity:0.1; fill:none" points="
  620.502,1521.01 620.502,47.2441 
  "/>
<polyline clip-path="url(#clip702)" style="stroke:#000000; stroke-width:2; stroke-opacity:0.1; fill:none" points="
  970.39,1521.01 970.39,47.2441 
  "/>
<polyline clip-path="url(#clip702)" style="stroke:#000000; stroke-width:2; stroke-opacity:0.1; fill:none" points="
  1320.28,1521.01 1320.28,47.2441 
  "/>
<polyline clip-path="url(#clip702)" style="stroke:#000000; stroke-width:2; stroke-opacity:0.1; fill:none" points="
  1670.17,1521.01 1670.17,47.2441 
  "/>
<polyline clip-path="url(#clip702)" style="stroke:#000000; stroke-width:2; stroke-opacity:0.1; fill:none" points="
  2020.05,1521.01 2020.05,47.2441 
  "/>
<polyline clip-path="url(#clip702)" style="stroke:#000000; stroke-width:2; stroke-opacity:0.1; fill:none" points="
  86.9921,1479.3 2352.76,1479.3 
  "/>
<polyline clip-path="url(#clip702)" style="stroke:#000000; stroke-width:2; stroke-opacity:0.1; fill:none" points="
  86.9921,1168.48 2352.76,1168.48 
  "/>
<polyline clip-path="url(#clip702)" style="stroke:#000000; stroke-width:2; stroke-opacity:0.1; fill:none" points="
  86.9921,857.656 2352.76,857.656 
  "/>
<polyline clip-path="url(#clip702)" style="stroke:#000000; stroke-width:2; stroke-opacity:0.1; fill:none" points="
  86.9921,546.835 2352.76,546.835 
  "/>
<polyline clip-path="url(#clip702)" style="stroke:#000000; stroke-width:2; stroke-opacity:0.1; fill:none" points="
  86.9921,236.014 2352.76,236.014 
  "/>
<polyline clip-path="url(#clip700)" style="stroke:#000000; stroke-width:4; stroke-opacity:1; fill:none" points="
  86.9921,1521.01 2352.76,1521.01 
  "/>
<polyline clip-path="url(#clip700)" style="stroke:#000000; stroke-width:4; stroke-opacity:1; fill:none" points="
  86.9921,1521.01 86.9921,47.2441 
  "/>
<polyline clip-path="url(#clip700)" style="stroke:#000000; stroke-width:4; stroke-opacity:1; fill:none" points="
  270.615,1521.01 270.615,1503.32 
  "/>
<polyline clip-path="url(#clip700)" style="stroke:#000000; stroke-width:4; stroke-opacity:1; fill:none" points="
  620.502,1521.01 620.502,1503.32 
  "/>
<polyline clip-path="url(#clip700)" style="stroke:#000000; stroke-width:4; stroke-opacity:1; fill:none" points="
  970.39,1521.01 970.39,1503.32 
  "/>
<polyline clip-path="url(#clip700)" style="stroke:#000000; stroke-width:4; stroke-opacity:1; fill:none" points="
  1320.28,1521.01 1320.28,1503.32 
  "/>
<polyline clip-path="url(#clip700)" style="stroke:#000000; stroke-width:4; stroke-opacity:1; fill:none" points="
  1670.17,1521.01 1670.17,1503.32 
  "/>
<polyline clip-path="url(#clip700)" style="stroke:#000000; stroke-width:4; stroke-opacity:1; fill:none" points="
  2020.05,1521.01 2020.05,1503.32 
  "/>
<polyline clip-path="url(#clip700)" style="stroke:#000000; stroke-width:4; stroke-opacity:1; fill:none" points="
  86.9921,1479.3 114.181,1479.3 
  "/>
<polyline clip-path="url(#clip700)" style="stroke:#000000; stroke-width:4; stroke-opacity:1; fill:none" points="
  86.9921,1168.48 114.181,1168.48 
  "/>
<polyline clip-path="url(#clip700)" style="stroke:#000000; stroke-width:4; stroke-opacity:1; fill:none" points="
  86.9921,857.656 114.181,857.656 
  "/>
<polyline clip-path="url(#clip700)" style="stroke:#000000; stroke-width:4; stroke-opacity:1; fill:none" points="
  86.9921,546.835 114.181,546.835 
  "/>
<polyline clip-path="url(#clip700)" style="stroke:#000000; stroke-width:4; stroke-opacity:1; fill:none" points="
  86.9921,236.014 114.181,236.014 
  "/>
<path clip-path="url(#clip700)" d="M 0 0 M239.157 1543 Q235.545 1543 233.717 1546.56 Q231.911 1550.11 231.911 1557.23 Q231.911 1564.34 233.717 1567.91 Q235.545 1571.45 239.157 1571.45 Q242.791 1571.45 244.596 1567.91 Q246.425 1564.34 246.425 1557.23 Q246.425 1550.11 244.596 1546.56 Q242.791 1543 239.157 1543 M239.157 1539.29 Q244.967 1539.29 248.022 1543.9 Q251.101 1548.48 251.101 1557.23 Q251.101 1565.96 248.022 1570.57 Q244.967 1575.15 239.157 1575.15 Q233.346 1575.15 230.268 1570.57 Q227.212 1565.96 227.212 1557.23 Q227.212 1548.48 230.268 1543.9 Q233.346 1539.29 239.157 1539.29 Z" fill="#000000" fill-rule="evenodd" fill-opacity="1" /><path clip-path="url(#clip700)" d="M 0 0 M256.17 1568.6 L261.055 1568.6 L261.055 1574.48 L256.17 1574.48 L256.17 1568.6 Z" fill="#000000" fill-rule="evenodd" fill-opacity="1" /><path clip-path="url(#clip700)" d="M 0 0 M266.934 1570.54 L274.573 1570.54 L274.573 1544.18 L266.263 1545.85 L266.263 1541.59 L274.527 1539.92 L279.203 1539.92 L279.203 1570.54 L286.841 1570.54 L286.841 1574.48 L266.934 1574.48 L266.934 1570.54 Z" fill="#000000" fill-rule="evenodd" fill-opacity="1" /><path clip-path="url(#clip700)" d="M 0 0 M302.49 1555.34 Q299.341 1555.34 297.49 1557.49 Q295.661 1559.64 295.661 1563.39 Q295.661 1567.12 297.49 1569.29 Q299.341 1571.45 302.49 1571.45 Q305.638 1571.45 307.466 1569.29 Q309.318 1567.12 309.318 1563.39 Q309.318 1559.64 307.466 1557.49 Q305.638 1555.34 302.49 1555.34 M311.772 1540.68 L311.772 1544.94 Q310.013 1544.11 308.207 1543.67 Q306.425 1543.23 304.665 1543.23 Q300.036 1543.23 297.582 1546.36 Q295.152 1549.48 294.804 1555.8 Q296.17 1553.79 298.23 1552.72 Q300.29 1551.63 302.767 1551.63 Q307.976 1551.63 310.985 1554.8 Q314.017 1557.95 314.017 1563.39 Q314.017 1568.72 310.869 1571.93 Q307.721 1575.15 302.49 1575.15 Q296.494 1575.15 293.323 1570.57 Q290.152 1565.96 290.152 1557.23 Q290.152 1549.04 294.04 1544.18 Q297.929 1539.29 304.48 1539.29 Q306.239 1539.29 308.022 1539.64 Q309.827 1539.99 311.772 1540.68 Z" fill="#000000" fill-rule="evenodd" fill-opacity="1" /><path clip-path="url(#clip700)" d="M 0 0 M589.172 1543 Q585.56 1543 583.732 1546.56 Q581.926 1550.11 581.926 1557.23 Q581.926 1564.34 583.732 1567.91 Q585.56 1571.45 589.172 1571.45 Q592.806 1571.45 594.611 1567.91 Q596.44 1564.34 596.44 1557.23 Q596.44 1550.11 594.611 1546.56 Q592.806 1543 589.172 1543 M589.172 1539.29 Q594.982 1539.29 598.037 1543.9 Q601.116 1548.48 601.116 1557.23 Q601.116 1565.96 598.037 1570.57 Q594.982 1575.15 589.172 1575.15 Q583.361 1575.15 580.283 1570.57 Q577.227 1565.96 577.227 1557.23 Q577.227 1548.48 580.283 1543.9 Q583.361 1539.29 589.172 1539.29 Z" fill="#000000" fill-rule="evenodd" fill-opacity="1" /><path clip-path="url(#clip700)" d="M 0 0 M606.185 1568.6 L611.07 1568.6 L611.07 1574.48 L606.185 1574.48 L606.185 1568.6 Z" fill="#000000" fill-rule="evenodd" fill-opacity="1" /><path clip-path="url(#clip700)" d="M 0 0 M616.949 1570.54 L624.588 1570.54 L624.588 1544.18 L616.278 1545.85 L616.278 1541.59 L624.542 1539.92 L629.218 1539.92 L629.218 1570.54 L636.856 1570.54 L636.856 1574.48 L616.949 1574.48 L616.949 1570.54 Z" fill="#000000" fill-rule="evenodd" fill-opacity="1" /><path clip-path="url(#clip700)" d="M 0 0 M651.926 1558.07 Q648.592 1558.07 646.671 1559.85 Q644.773 1561.63 644.773 1564.76 Q644.773 1567.88 646.671 1569.67 Q648.592 1571.45 651.926 1571.45 Q655.259 1571.45 657.18 1569.67 Q659.102 1567.86 659.102 1564.76 Q659.102 1561.63 657.18 1559.85 Q655.282 1558.07 651.926 1558.07 M647.25 1556.08 Q644.241 1555.34 642.551 1553.28 Q640.884 1551.22 640.884 1548.25 Q640.884 1544.11 643.824 1541.7 Q646.787 1539.29 651.926 1539.29 Q657.088 1539.29 660.028 1541.7 Q662.967 1544.11 662.967 1548.25 Q662.967 1551.22 661.278 1553.28 Q659.611 1555.34 656.625 1556.08 Q660.004 1556.86 661.879 1559.16 Q663.778 1561.45 663.778 1564.76 Q663.778 1569.78 660.699 1572.47 Q657.643 1575.15 651.926 1575.15 Q646.208 1575.15 643.13 1572.47 Q640.074 1569.78 640.074 1564.76 Q640.074 1561.45 641.972 1559.16 Q643.87 1556.86 647.25 1556.08 M645.537 1548.69 Q645.537 1551.38 647.204 1552.88 Q648.893 1554.39 651.926 1554.39 Q654.935 1554.39 656.625 1552.88 Q658.338 1551.38 658.338 1548.69 Q658.338 1546.01 656.625 1544.5 Q654.935 1543 651.926 1543 Q648.893 1543 647.204 1544.5 Q645.537 1546.01 645.537 1548.69 Z" fill="#000000" fill-rule="evenodd" fill-opacity="1" /><path clip-path="url(#clip700)" d="M 0 0 M939.198 1543 Q935.587 1543 933.758 1546.56 Q931.953 1550.11 931.953 1557.23 Q931.953 1564.34 933.758 1567.91 Q935.587 1571.45 939.198 1571.45 Q942.832 1571.45 944.638 1567.91 Q946.467 1564.34 946.467 1557.23 Q946.467 1550.11 944.638 1546.56 Q942.832 1543 939.198 1543 M939.198 1539.29 Q945.008 1539.29 948.064 1543.9 Q951.142 1548.48 951.142 1557.23 Q951.142 1565.96 948.064 1570.57 Q945.008 1575.15 939.198 1575.15 Q933.388 1575.15 930.309 1570.57 Q927.254 1565.96 927.254 1557.23 Q927.254 1548.48 930.309 1543.9 Q933.388 1539.29 939.198 1539.29 Z" fill="#000000" fill-rule="evenodd" fill-opacity="1" /><path clip-path="url(#clip700)" d="M 0 0 M956.212 1568.6 L961.096 1568.6 L961.096 1574.48 L956.212 1574.48 L956.212 1568.6 Z" fill="#000000" fill-rule="evenodd" fill-opacity="1" /><path clip-path="url(#clip700)" d="M 0 0 M970.193 1570.54 L986.513 1570.54 L986.513 1574.48 L964.568 1574.48 L964.568 1570.54 Q967.23 1567.79 971.814 1563.16 Q976.42 1558.51 977.601 1557.17 Q979.846 1554.64 980.726 1552.91 Q981.628 1551.15 981.628 1549.46 Q981.628 1546.7 979.684 1544.97 Q977.763 1543.23 974.661 1543.23 Q972.462 1543.23 970.008 1543.99 Q967.578 1544.76 964.8 1546.31 L964.8 1541.59 Q967.624 1540.45 970.078 1539.87 Q972.531 1539.29 974.568 1539.29 Q979.939 1539.29 983.133 1541.98 Q986.327 1544.67 986.327 1549.16 Q986.327 1551.29 985.517 1553.21 Q984.73 1555.1 982.624 1557.7 Q982.045 1558.37 978.943 1561.59 Q975.841 1564.78 970.193 1570.54 Z" fill="#000000" fill-rule="evenodd" fill-opacity="1" /><path clip-path="url(#clip700)" d="M 0 0 M1001.58 1543 Q997.971 1543 996.142 1546.56 Q994.337 1550.11 994.337 1557.23 Q994.337 1564.34 996.142 1567.91 Q997.971 1571.45 1001.58 1571.45 Q1005.22 1571.45 1007.02 1567.91 Q1008.85 1564.34 1008.85 1557.23 Q1008.85 1550.11 1007.02 1546.56 Q1005.22 1543 1001.58 1543 M1001.58 1539.29 Q1007.39 1539.29 1010.45 1543.9 Q1013.53 1548.48 1013.53 1557.23 Q1013.53 1565.96 1010.45 1570.57 Q1007.39 1575.15 1001.58 1575.15 Q995.772 1575.15 992.693 1570.57 Q989.638 1565.96 989.638 1557.23 Q989.638 1548.48 992.693 1543.9 Q995.772 1539.29 1001.58 1539.29 Z" fill="#000000" fill-rule="evenodd" fill-opacity="1" /><path clip-path="url(#clip700)" d="M 0 0 M1289.88 1543 Q1286.27 1543 1284.44 1546.56 Q1282.64 1550.11 1282.64 1557.23 Q1282.64 1564.34 1284.44 1567.91 Q1286.27 1571.45 1289.88 1571.45 Q1293.52 1571.45 1295.32 1567.91 Q1297.15 1564.34 1297.15 1557.23 Q1297.15 1550.11 1295.32 1546.56 Q1293.52 1543 1289.88 1543 M1289.88 1539.29 Q1295.69 1539.29 1298.75 1543.9 Q1301.83 1548.48 1301.83 1557.23 Q1301.83 1565.96 1298.75 1570.57 Q1295.69 1575.15 1289.88 1575.15 Q1284.07 1575.15 1281 1570.57 Q1277.94 1565.96 1277.94 1557.23 Q1277.94 1548.48 1281 1543.9 Q1284.07 1539.29 1289.88 1539.29 Z" fill="#000000" fill-rule="evenodd" fill-opacity="1" /><path clip-path="url(#clip700)" d="M 0 0 M1306.9 1568.6 L1311.78 1568.6 L1311.78 1574.48 L1306.9 1574.48 L1306.9 1568.6 Z" fill="#000000" fill-rule="evenodd" fill-opacity="1" /><path clip-path="url(#clip700)" d="M 0 0 M1320.88 1570.54 L1337.2 1570.54 L1337.2 1574.48 L1315.25 1574.48 L1315.25 1570.54 Q1317.92 1567.79 1322.5 1563.16 Q1327.11 1558.51 1328.29 1557.17 Q1330.53 1554.64 1331.41 1552.91 Q1332.31 1551.15 1332.31 1549.46 Q1332.31 1546.7 1330.37 1544.97 Q1328.45 1543.23 1325.35 1543.23 Q1323.15 1543.23 1320.69 1543.99 Q1318.26 1544.76 1315.49 1546.31 L1315.49 1541.59 Q1318.31 1540.45 1320.76 1539.87 Q1323.22 1539.29 1325.25 1539.29 Q1330.62 1539.29 1333.82 1541.98 Q1337.01 1544.67 1337.01 1549.16 Q1337.01 1551.29 1336.2 1553.21 Q1335.42 1555.1 1333.31 1557.7 Q1332.73 1558.37 1329.63 1561.59 Q1326.53 1564.78 1320.88 1570.54 Z" fill="#000000" fill-rule="evenodd" fill-opacity="1" /><path clip-path="url(#clip700)" d="M 0 0 M1346.3 1570.54 L1362.62 1570.54 L1362.62 1574.48 L1340.67 1574.48 L1340.67 1570.54 Q1343.33 1567.79 1347.92 1563.16 Q1352.52 1558.51 1353.7 1557.17 Q1355.95 1554.64 1356.83 1552.91 Q1357.73 1551.15 1357.73 1549.46 Q1357.73 1546.7 1355.79 1544.97 Q1353.87 1543.23 1350.76 1543.23 Q1348.56 1543.23 1346.11 1543.99 Q1343.68 1544.76 1340.9 1546.31 L1340.9 1541.59 Q1343.73 1540.45 1346.18 1539.87 Q1348.63 1539.29 1350.67 1539.29 Q1356.04 1539.29 1359.24 1541.98 Q1362.43 1544.67 1362.43 1549.16 Q1362.43 1551.29 1361.62 1553.21 Q1360.83 1555.1 1358.73 1557.7 Q1358.15 1558.37 1355.05 1561.59 Q1351.94 1564.78 1346.3 1570.54 Z" fill="#000000" fill-rule="evenodd" fill-opacity="1" /><path clip-path="url(#clip700)" d="M 0 0 M1638.73 1543 Q1635.12 1543 1633.29 1546.56 Q1631.49 1550.11 1631.49 1557.23 Q1631.49 1564.34 1633.29 1567.91 Q1635.12 1571.45 1638.73 1571.45 Q1642.36 1571.45 1644.17 1567.91 Q1646 1564.34 1646 1557.23 Q1646 1550.11 1644.17 1546.56 Q1642.36 1543 1638.73 1543 M1638.73 1539.29 Q1644.54 1539.29 1647.6 1543.9 Q1650.67 1548.48 1650.67 1557.23 Q1650.67 1565.96 1647.6 1570.57 Q1644.54 1575.15 1638.73 1575.15 Q1632.92 1575.15 1629.84 1570.57 Q1626.79 1565.96 1626.79 1557.23 Q1626.79 1548.48 1629.84 1543.9 Q1632.92 1539.29 1638.73 1539.29 Z" fill="#000000" fill-rule="evenodd" fill-opacity="1" /><path clip-path="url(#clip700)" d="M 0 0 M1655.74 1568.6 L1660.63 1568.6 L1660.63 1574.48 L1655.74 1574.48 L1655.74 1568.6 Z" fill="#000000" fill-rule="evenodd" fill-opacity="1" /><path clip-path="url(#clip700)" d="M 0 0 M1669.73 1570.54 L1686.04 1570.54 L1686.04 1574.48 L1664.1 1574.48 L1664.1 1570.54 Q1666.76 1567.79 1671.35 1563.16 Q1675.95 1558.51 1677.13 1557.17 Q1679.38 1554.64 1680.26 1552.91 Q1681.16 1551.15 1681.16 1549.46 Q1681.16 1546.7 1679.22 1544.97 Q1677.29 1543.23 1674.19 1543.23 Q1671.99 1543.23 1669.54 1543.99 Q1667.11 1544.76 1664.33 1546.31 L1664.33 1541.59 Q1667.16 1540.45 1669.61 1539.87 Q1672.06 1539.29 1674.1 1539.29 Q1679.47 1539.29 1682.67 1541.98 Q1685.86 1544.67 1685.86 1549.16 Q1685.86 1551.29 1685.05 1553.21 Q1684.26 1555.1 1682.16 1557.7 Q1681.58 1558.37 1678.48 1561.59 Q1675.37 1564.78 1669.73 1570.54 Z" fill="#000000" fill-rule="evenodd" fill-opacity="1" /><path clip-path="url(#clip700)" d="M 0 0 M1703.96 1543.99 L1692.16 1562.44 L1703.96 1562.44 L1703.96 1543.99 M1702.73 1539.92 L1708.61 1539.92 L1708.61 1562.44 L1713.54 1562.44 L1713.54 1566.33 L1708.61 1566.33 L1708.61 1574.48 L1703.96 1574.48 L1703.96 1566.33 L1688.36 1566.33 L1688.36 1561.82 L1702.73 1539.92 Z" fill="#000000" fill-rule="evenodd" fill-opacity="1" /><path clip-path="url(#clip700)" d="M 0 0 M1988.78 1543 Q1985.17 1543 1983.34 1546.56 Q1981.53 1550.11 1981.53 1557.23 Q1981.53 1564.34 1983.34 1567.91 Q1985.17 1571.45 1988.78 1571.45 Q1992.41 1571.45 1994.22 1567.91 Q1996.05 1564.34 1996.05 1557.23 Q1996.05 1550.11 1994.22 1546.56 Q1992.41 1543 1988.78 1543 M1988.78 1539.29 Q1994.59 1539.29 1997.65 1543.9 Q2000.72 1548.48 2000.72 1557.23 Q2000.72 1565.96 1997.65 1570.57 Q1994.59 1575.15 1988.78 1575.15 Q1982.97 1575.15 1979.89 1570.57 Q1976.84 1565.96 1976.84 1557.23 Q1976.84 1548.48 1979.89 1543.9 Q1982.97 1539.29 1988.78 1539.29 Z" fill="#000000" fill-rule="evenodd" fill-opacity="1" /><path clip-path="url(#clip700)" d="M 0 0 M2005.79 1568.6 L2010.68 1568.6 L2010.68 1574.48 L2005.79 1574.48 L2005.79 1568.6 Z" fill="#000000" fill-rule="evenodd" fill-opacity="1" /><path clip-path="url(#clip700)" d="M 0 0 M2019.78 1570.54 L2036.09 1570.54 L2036.09 1574.48 L2014.15 1574.48 L2014.15 1570.54 Q2016.81 1567.79 2021.4 1563.16 Q2026 1558.51 2027.18 1557.17 Q2029.43 1554.64 2030.31 1552.91 Q2031.21 1551.15 2031.21 1549.46 Q2031.21 1546.7 2029.27 1544.97 Q2027.34 1543.23 2024.24 1543.23 Q2022.04 1543.23 2019.59 1543.99 Q2017.16 1544.76 2014.38 1546.31 L2014.38 1541.59 Q2017.21 1540.45 2019.66 1539.87 Q2022.11 1539.29 2024.15 1539.29 Q2029.52 1539.29 2032.72 1541.98 Q2035.91 1544.67 2035.91 1549.16 Q2035.91 1551.29 2035.1 1553.21 Q2034.31 1555.1 2032.21 1557.7 Q2031.63 1558.37 2028.53 1561.59 Q2025.42 1564.78 2019.78 1570.54 Z" fill="#000000" fill-rule="evenodd" fill-opacity="1" /><path clip-path="url(#clip700)" d="M 0 0 M2051.74 1555.34 Q2048.59 1555.34 2046.74 1557.49 Q2044.91 1559.64 2044.91 1563.39 Q2044.91 1567.12 2046.74 1569.29 Q2048.59 1571.45 2051.74 1571.45 Q2054.89 1571.45 2056.72 1569.29 Q2058.57 1567.12 2058.57 1563.39 Q2058.57 1559.64 2056.72 1557.49 Q2054.89 1555.34 2051.74 1555.34 M2061.03 1540.68 L2061.03 1544.94 Q2059.27 1544.11 2057.46 1543.67 Q2055.68 1543.23 2053.92 1543.23 Q2049.29 1543.23 2046.84 1546.36 Q2044.4 1549.48 2044.06 1555.8 Q2045.42 1553.79 2047.48 1552.72 Q2049.54 1551.63 2052.02 1551.63 Q2057.23 1551.63 2060.24 1554.8 Q2063.27 1557.95 2063.27 1563.39 Q2063.27 1568.72 2060.12 1571.93 Q2056.97 1575.15 2051.74 1575.15 Q2045.75 1575.15 2042.58 1570.57 Q2039.4 1565.96 2039.4 1557.23 Q2039.4 1549.04 2043.29 1544.18 Q2047.18 1539.29 2053.73 1539.29 Q2055.49 1539.29 2057.28 1539.64 Q2059.08 1539.99 2061.03 1540.68 Z" fill="#000000" fill-rule="evenodd" fill-opacity="1" /><path clip-path="url(#clip700)" d="M 0 0 M51.0477 1465.1 Q47.4367 1465.1 45.608 1468.66 Q43.8024 1472.2 43.8024 1479.33 Q43.8024 1486.44 45.608 1490 Q47.4367 1493.55 51.0477 1493.55 Q54.682 1493.55 56.4875 1490 Q58.3162 1486.44 58.3162 1479.33 Q58.3162 1472.2 56.4875 1468.66 Q54.682 1465.1 51.0477 1465.1 M51.0477 1461.39 Q56.8579 1461.39 59.9134 1466 Q62.9921 1470.58 62.9921 1479.33 Q62.9921 1488.06 59.9134 1492.67 Q56.8579 1497.25 51.0477 1497.25 Q45.2376 1497.25 42.1589 1492.67 Q39.1034 1488.06 39.1034 1479.33 Q39.1034 1470.58 42.1589 1466 Q45.2376 1461.39 51.0477 1461.39 Z" fill="#000000" fill-rule="evenodd" fill-opacity="1" /><path clip-path="url(#clip700)" d="M 0 0 M42.0895 1151.2 L60.4458 1151.2 L60.4458 1155.13 L46.3718 1155.13 L46.3718 1163.6 Q47.3904 1163.26 48.4089 1163.09 Q49.4274 1162.91 50.4459 1162.91 Q56.2329 1162.91 59.6125 1166.08 Q62.9921 1169.25 62.9921 1174.67 Q62.9921 1180.25 59.5199 1183.35 Q56.0477 1186.43 49.7283 1186.43 Q47.5524 1186.43 45.2839 1186.06 Q43.0385 1185.69 40.6311 1184.95 L40.6311 1180.25 Q42.7145 1181.38 44.9367 1181.94 Q47.1589 1182.49 49.6357 1182.49 Q53.6403 1182.49 55.9783 1180.39 Q58.3162 1178.28 58.3162 1174.67 Q58.3162 1171.06 55.9783 1168.95 Q53.6403 1166.84 49.6357 1166.84 Q47.7607 1166.84 45.8857 1167.26 Q44.0339 1167.68 42.0895 1168.56 L42.0895 1151.2 Z" fill="#000000" fill-rule="evenodd" fill-opacity="1" /><path clip-path="url(#clip700)" d="M 0 0 M16.0711 871.001 L23.7099 871.001 L23.7099 844.635 L15.3998 846.302 L15.3998 842.042 L23.6636 840.376 L28.3395 840.376 L28.3395 871.001 L35.9784 871.001 L35.9784 874.936 L16.0711 874.936 L16.0711 871.001 Z" fill="#000000" fill-rule="evenodd" fill-opacity="1" /><path clip-path="url(#clip700)" d="M 0 0 M51.0477 843.455 Q47.4367 843.455 45.608 847.019 Q43.8024 850.561 43.8024 857.691 Q43.8024 864.797 45.608 868.362 Q47.4367 871.903 51.0477 871.903 Q54.682 871.903 56.4875 868.362 Q58.3162 864.797 58.3162 857.691 Q58.3162 850.561 56.4875 847.019 Q54.682 843.455 51.0477 843.455 M51.0477 839.751 Q56.8579 839.751 59.9134 844.357 Q62.9921 848.941 62.9921 857.691 Q62.9921 866.417 59.9134 871.024 Q56.8579 875.607 51.0477 875.607 Q45.2376 875.607 42.1589 871.024 Q39.1034 866.417 39.1034 857.691 Q39.1034 848.941 42.1589 844.357 Q45.2376 839.751 51.0477 839.751 Z" fill="#000000" fill-rule="evenodd" fill-opacity="1" /><path clip-path="url(#clip700)" d="M 0 0 M17.0664 560.18 L24.7053 560.18 L24.7053 533.814 L16.3952 535.481 L16.3952 531.222 L24.659 529.555 L29.3349 529.555 L29.3349 560.18 L36.9737 560.18 L36.9737 564.115 L17.0664 564.115 L17.0664 560.18 Z" fill="#000000" fill-rule="evenodd" fill-opacity="1" /><path clip-path="url(#clip700)" d="M 0 0 M42.0895 529.555 L60.4458 529.555 L60.4458 533.49 L46.3718 533.49 L46.3718 541.962 Q47.3904 541.615 48.4089 541.453 Q49.4274 541.268 50.4459 541.268 Q56.2329 541.268 59.6125 544.439 Q62.9921 547.61 62.9921 553.027 Q62.9921 558.606 59.5199 561.708 Q56.0477 564.786 49.7283 564.786 Q47.5524 564.786 45.2839 564.416 Q43.0385 564.046 40.6311 563.305 L40.6311 558.606 Q42.7145 559.74 44.9367 560.296 Q47.1589 560.851 49.6357 560.851 Q53.6403 560.851 55.9783 558.745 Q58.3162 556.638 58.3162 553.027 Q58.3162 549.416 55.9783 547.309 Q53.6403 545.203 49.6357 545.203 Q47.7607 545.203 45.8857 545.62 Q44.0339 546.036 42.0895 546.916 L42.0895 529.555 Z" fill="#000000" fill-rule="evenodd" fill-opacity="1" /><path clip-path="url(#clip700)" d="M 0 0 M19.659 249.359 L35.9784 249.359 L35.9784 253.294 L14.0341 253.294 L14.0341 249.359 Q16.6961 246.604 21.2794 241.975 Q25.8858 237.322 27.0664 235.979 Q29.3118 233.456 30.1914 231.72 Q31.0941 229.961 31.0941 228.271 Q31.0941 225.516 29.1497 223.78 Q27.2284 222.044 24.1266 222.044 Q21.9275 222.044 19.4738 222.808 Q17.0433 223.572 14.2655 225.123 L14.2655 220.401 Q17.0896 219.266 19.5433 218.688 Q21.997 218.109 24.034 218.109 Q29.4043 218.109 32.5988 220.794 Q35.7932 223.479 35.7932 227.97 Q35.7932 230.1 34.983 232.021 Q34.196 233.919 32.0895 236.512 Q31.5108 237.183 28.409 240.401 Q25.3071 243.595 19.659 249.359 Z" fill="#000000" fill-rule="evenodd" fill-opacity="1" /><path clip-path="url(#clip700)" d="M 0 0 M51.0477 221.813 Q47.4367 221.813 45.608 225.378 Q43.8024 228.919 43.8024 236.049 Q43.8024 243.155 45.608 246.72 Q47.4367 250.262 51.0477 250.262 Q54.682 250.262 56.4875 246.72 Q58.3162 243.155 58.3162 236.049 Q58.3162 228.919 56.4875 225.378 Q54.682 221.813 51.0477 221.813 M51.0477 218.109 Q56.8579 218.109 59.9134 222.716 Q62.9921 227.299 62.9921 236.049 Q62.9921 244.776 59.9134 249.382 Q56.8579 253.965 51.0477 253.965 Q45.2376 253.965 42.1589 249.382 Q39.1034 244.776 39.1034 236.049 Q39.1034 227.299 42.1589 222.716 Q45.2376 218.109 51.0477 218.109 Z" fill="#000000" fill-rule="evenodd" fill-opacity="1" /><path clip-path="url(#clip702)" d="
M151.118 1473.6 L154.512 1473.24 L157.906 1472.86 L161.3 1472.46 L164.695 1472.04 L168.089 1471.59 L171.483 1471.12 L174.877 1470.62 L178.272 1470.08 L181.666 1469.51 
  L185.06 1468.9 L188.454 1468.24 L191.849 1467.54 L195.243 1466.79 L198.637 1465.99 L202.032 1465.12 L205.426 1464.19 L208.82 1463.2 L212.214 1462.13 L215.609 1460.98 
  L219.003 1459.76 L222.397 1458.45 L225.791 1457.05 L229.186 1455.55 L232.58 1453.95 L235.974 1452.25 L239.369 1450.44 L242.763 1448.52 L246.157 1446.48 L249.551 1444.32 
  L252.946 1442.03 L256.34 1439.61 L259.734 1437.06 L263.128 1434.36 L266.523 1431.52 L269.917 1428.53 L273.311 1425.38 L276.705 1422.07 L280.1 1418.6 L283.494 1414.95 
  L286.888 1411.13 L290.283 1407.12 L293.677 1402.93 L297.071 1398.55 L300.465 1393.97 L303.86 1389.2 L307.254 1384.23 L310.648 1379.05 L314.042 1373.67 L317.437 1368.09 
  L320.831 1362.3 L324.225 1356.32 L327.62 1350.15 L331.014 1343.78 L334.408 1337.24 L337.802 1330.52 L341.197 1323.65 L344.591 1316.62 L347.985 1309.45 L351.379 1302.17 
  L354.774 1294.77 L358.168 1287.28 L361.562 1279.72 L364.956 1272.1 L368.351 1264.44 L371.745 1256.75 L375.139 1249.07 L378.534 1241.39 L381.928 1233.75 L385.322 1226.16 
  L388.716 1218.63 L392.111 1211.18 L395.505 1203.83 L398.899 1196.59 L402.293 1189.48 L405.688 1182.5 L409.082 1175.68 L412.476 1169.02 L415.871 1162.53 L419.265 1156.22 
  L422.659 1150.1 L426.053 1144.17 L429.448 1138.44 L432.842 1132.91 L436.236 1127.58 L439.63 1122.45 L443.025 1117.51 L446.419 1112.76 L449.813 1108.2 L453.207 1103.8 
  L456.602 1099.55 L459.996 1095.45 L463.39 1091.47 L466.785 1087.59 L470.179 1083.78 L473.573 1080.04 L476.967 1076.33 L480.362 1072.62 L483.756 1068.89 L487.15 1065.12 
  L487.15 1479.3 L483.756 1479.3 L480.362 1479.3 L476.967 1479.3 L473.573 1479.3 L470.179 1479.3 L466.785 1479.3 L463.39 1479.3 L459.996 1479.3 L456.602 1479.3 
  L453.207 1479.3 L449.813 1479.3 L446.419 1479.3 L443.025 1479.3 L439.63 1479.3 L436.236 1479.3 L432.842 1479.3 L429.448 1479.3 L426.053 1479.3 L422.659 1479.3 
  L419.265 1479.3 L415.871 1479.3 L412.476 1479.3 L409.082 1479.3 L405.688 1479.3 L402.293 1479.3 L398.899 1479.3 L395.505 1479.3 L392.111 1479.3 L388.716 1479.3 
  L385.322 1479.3 L381.928 1479.3 L378.534 1479.3 L375.139 1479.3 L371.745 1479.3 L368.351 1479.3 L364.956 1479.3 L361.562 1479.3 L358.168 1479.3 L354.774 1479.3 
  L351.379 1479.3 L347.985 1479.3 L344.591 1479.3 L341.197 1479.3 L337.802 1479.3 L334.408 1479.3 L331.014 1479.3 L327.62 1479.3 L324.225 1479.3 L320.831 1479.3 
  L317.437 1479.3 L314.042 1479.3 L310.648 1479.3 L307.254 1479.3 L303.86 1479.3 L300.465 1479.3 L297.071 1479.3 L293.677 1479.3 L290.283 1479.3 L286.888 1479.3 
  L283.494 1479.3 L280.1 1479.3 L276.705 1479.3 L273.311 1479.3 L269.917 1479.3 L266.523 1479.3 L263.128 1479.3 L259.734 1479.3 L256.34 1479.3 L252.946 1479.3 
  L249.551 1479.3 L246.157 1479.3 L242.763 1479.3 L239.369 1479.3 L235.974 1479.3 L232.58 1479.3 L229.186 1479.3 L225.791 1479.3 L222.397 1479.3 L219.003 1479.3 
  L215.609 1479.3 L212.214 1479.3 L208.82 1479.3 L205.426 1479.3 L202.032 1479.3 L198.637 1479.3 L195.243 1479.3 L191.849 1479.3 L188.454 1479.3 L185.06 1479.3 
  L181.666 1479.3 L178.272 1479.3 L174.877 1479.3 L171.483 1479.3 L168.089 1479.3 L164.695 1479.3 L161.3 1479.3 L157.906 1479.3 L154.512 1479.3 L151.118 1479.3 
   Z
  " fill="#ffa500" fill-rule="evenodd" fill-opacity="0.5"/>
<polyline clip-path="url(#clip702)" style="stroke:#ffa500; stroke-width:4; stroke-opacity:1; fill:none" points="
  151.118,1473.6 154.512,1473.24 157.906,1472.86 161.3,1472.46 164.695,1472.04 168.089,1471.59 171.483,1471.12 174.877,1470.62 178.272,1470.08 181.666,1469.51 
  185.06,1468.9 188.454,1468.24 191.849,1467.54 195.243,1466.79 198.637,1465.99 202.032,1465.12 205.426,1464.19 208.82,1463.2 212.214,1462.13 215.609,1460.98 
  219.003,1459.76 222.397,1458.45 225.791,1457.05 229.186,1455.55 232.58,1453.95 235.974,1452.25 239.369,1450.44 242.763,1448.52 246.157,1446.48 249.551,1444.32 
  252.946,1442.03 256.34,1439.61 259.734,1437.06 263.128,1434.36 266.523,1431.52 269.917,1428.53 273.311,1425.38 276.705,1422.07 280.1,1418.6 283.494,1414.95 
  286.888,1411.13 290.283,1407.12 293.677,1402.93 297.071,1398.55 300.465,1393.97 303.86,1389.2 307.254,1384.23 310.648,1379.05 314.042,1373.67 317.437,1368.09 
  320.831,1362.3 324.225,1356.32 327.62,1350.15 331.014,1343.78 334.408,1337.24 337.802,1330.52 341.197,1323.65 344.591,1316.62 347.985,1309.45 351.379,1302.17 
  354.774,1294.77 358.168,1287.28 361.562,1279.72 364.956,1272.1 368.351,1264.44 371.745,1256.75 375.139,1249.07 378.534,1241.39 381.928,1233.75 385.322,1226.16 
  388.716,1218.63 392.111,1211.18 395.505,1203.83 398.899,1196.59 402.293,1189.48 405.688,1182.5 409.082,1175.68 412.476,1169.02 415.871,1162.53 419.265,1156.22 
  422.659,1150.1 426.053,1144.17 429.448,1138.44 432.842,1132.91 436.236,1127.58 439.63,1122.45 443.025,1117.51 446.419,1112.76 449.813,1108.2 453.207,1103.8 
  456.602,1099.55 459.996,1095.45 463.39,1091.47 466.785,1087.59 470.179,1083.78 473.573,1080.04 476.967,1076.33 480.362,1072.62 483.756,1068.89 487.15,1065.12 
  
  "/>
<path clip-path="url(#clip702)" d="
M487.15 1065.12 L500.158 1049.88 L513.166 1032.67 L526.173 1013.26 L539.181 992.382 L552.189 971.687 L565.197 953.218 L578.204 938.724 L591.212 928.975 L604.22 923.394 
  L617.228 920.151 L630.236 916.692 L643.243 910.513 L656.251 899.89 L669.259 884.337 L682.267 864.667 L695.274 842.67 L708.282 820.54 L721.29 800.2 L734.298 782.76 
  L747.305 768.269 L760.313 755.838 L773.321 744.069 L786.329 731.556 L799.336 717.225 L812.344 700.377 L825.352 680.468 L838.36 656.864 L851.367 628.769 L864.375 595.443 
  L877.383 556.589 L890.391 512.694 L903.398 465.095 L916.406 415.722 L929.414 366.628 L942.422 319.544 L955.429 275.634 L968.437 235.528 L981.445 199.533 L994.453 167.891 
  L1007.46 140.946 L1020.47 119.173 L1033.48 103.067 L1046.48 92.9769 L1059.49 88.9544 L1072.5 90.6824 L1085.51 97.5012 L1098.51 108.518 L1111.52 122.776 L1124.53 139.463 
  L1137.54 158.151 L1150.55 178.984 L1163.55 202.711 L1176.56 230.434 L1189.57 263.079 L1202.58 300.752 L1215.58 342.283 L1228.59 385.251 L1241.6 426.571 L1254.61 463.473 
  L1267.62 494.459 L1280.62 519.843 L1293.63 541.623 L1306.64 562.734 L1319.65 586.009 L1332.65 613.268 L1345.66 644.866 L1358.67 679.83 L1371.68 716.442 L1384.69 752.962 
  L1397.69 788.184 L1410.7 821.674 L1423.71 853.673 L1436.72 884.813 L1449.72 915.815 L1462.73 947.271 L1475.74 979.53 L1488.75 1012.64 L1501.76 1046.32 L1514.76 1079.93 
  L1527.77 1112.53 L1540.78 1142.91 L1553.79 1169.82 L1566.79 1192.16 L1579.8 1209.15 L1592.81 1220.43 L1605.82 1226.07 L1618.83 1226.47 L1631.83 1222.35 L1644.84 1214.65 
  L1657.85 1204.54 L1670.86 1193.41 L1683.86 1182.77 L1696.87 1174.04 L1709.88 1168.38 L1722.89 1166.43 L1735.89 1168.28 L1748.9 1173.6 L1761.91 1181.84 L1774.92 1192.55 
  L1774.92 1479.3 L1761.91 1479.3 L1748.9 1479.3 L1735.89 1479.3 L1722.89 1479.3 L1709.88 1479.3 L1696.87 1479.3 L1683.86 1479.3 L1670.86 1479.3 L1657.85 1479.3 
  L1644.84 1479.3 L1631.83 1479.3 L1618.83 1479.3 L1605.82 1479.3 L1592.81 1479.3 L1579.8 1479.3 L1566.79 1479.3 L1553.79 1479.3 L1540.78 1479.3 L1527.77 1479.3 
  L1514.76 1479.3 L1501.76 1479.3 L1488.75 1479.3 L1475.74 1479.3 L1462.73 1479.3 L1449.72 1479.3 L1436.72 1479.3 L1423.71 1479.3 L1410.7 1479.3 L1397.69 1479.3 
  L1384.69 1479.3 L1371.68 1479.3 L1358.67 1479.3 L1345.66 1479.3 L1332.65 1479.3 L1319.65 1479.3 L1306.64 1479.3 L1293.63 1479.3 L1280.62 1479.3 L1267.62 1479.3 
  L1254.61 1479.3 L1241.6 1479.3 L1228.59 1479.3 L1215.58 1479.3 L1202.58 1479.3 L1189.57 1479.3 L1176.56 1479.3 L1163.55 1479.3 L1150.55 1479.3 L1137.54 1479.3 
  L1124.53 1479.3 L1111.52 1479.3 L1098.51 1479.3 L1085.51 1479.3 L1072.5 1479.3 L1059.49 1479.3 L1046.48 1479.3 L1033.48 1479.3 L1020.47 1479.3 L1007.46 1479.3 
  L994.453 1479.3 L981.445 1479.3 L968.437 1479.3 L955.429 1479.3 L942.422 1479.3 L929.414 1479.3 L916.406 1479.3 L903.398 1479.3 L890.391 1479.3 L877.383 1479.3 
  L864.375 1479.3 L851.367 1479.3 L838.36 1479.3 L825.352 1479.3 L812.344 1479.3 L799.336 1479.3 L786.329 1479.3 L773.321 1479.3 L760.313 1479.3 L747.305 1479.3 
  L734.298 1479.3 L721.29 1479.3 L708.282 1479.3 L695.274 1479.3 L682.267 1479.3 L669.259 1479.3 L656.251 1479.3 L643.243 1479.3 L630.236 1479.3 L617.228 1479.3 
  L604.22 1479.3 L591.212 1479.3 L578.204 1479.3 L565.197 1479.3 L552.189 1479.3 L539.181 1479.3 L526.173 1479.3 L513.166 1479.3 L500.158 1479.3 L487.15 1479.3 
   Z
  " fill="#008000" fill-rule="evenodd" fill-opacity="0.5"/>
<polyline clip-path="url(#clip702)" style="stroke:#008000; stroke-width:4; stroke-opacity:1; fill:none" points="
  487.15,1065.12 500.158,1049.88 513.166,1032.67 526.173,1013.26 539.181,992.382 552.189,971.687 565.197,953.218 578.204,938.724 591.212,928.975 604.22,923.394 
  617.228,920.151 630.236,916.692 643.243,910.513 656.251,899.89 669.259,884.337 682.267,864.667 695.274,842.67 708.282,820.54 721.29,800.2 734.298,782.76 
  747.305,768.269 760.313,755.838 773.321,744.069 786.329,731.556 799.336,717.225 812.344,700.377 825.352,680.468 838.36,656.864 851.367,628.769 864.375,595.443 
  877.383,556.589 890.391,512.694 903.398,465.095 916.406,415.722 929.414,366.628 942.422,319.544 955.429,275.634 968.437,235.528 981.445,199.533 994.453,167.891 
  1007.46,140.946 1020.47,119.173 1033.48,103.067 1046.48,92.9769 1059.49,88.9544 1072.5,90.6824 1085.51,97.5012 1098.51,108.518 1111.52,122.776 1124.53,139.463 
  1137.54,158.151 1150.55,178.984 1163.55,202.711 1176.56,230.434 1189.57,263.079 1202.58,300.752 1215.58,342.283 1228.59,385.251 1241.6,426.571 1254.61,463.473 
  1267.62,494.459 1280.62,519.843 1293.63,541.623 1306.64,562.734 1319.65,586.009 1332.65,613.268 1345.66,644.866 1358.67,679.83 1371.68,716.442 1384.69,752.962 
  1397.69,788.184 1410.7,821.674 1423.71,853.673 1436.72,884.813 1449.72,915.815 1462.73,947.271 1475.74,979.53 1488.75,1012.64 1501.76,1046.32 1514.76,1079.93 
  1527.77,1112.53 1540.78,1142.91 1553.79,1169.82 1566.79,1192.16 1579.8,1209.15 1592.81,1220.43 1605.82,1226.07 1618.83,1226.47 1631.83,1222.35 1644.84,1214.65 
  1657.85,1204.54 1670.86,1193.41 1683.86,1182.77 1696.87,1174.04 1709.88,1168.38 1722.89,1166.43 1735.89,1168.28 1748.9,1173.6 1761.91,1181.84 1774.92,1192.55 
  
  "/>
<path clip-path="url(#clip702)" d="
M1774.92 1192.55 L1780.11 1197.45 L1785.3 1202.68 L1790.49 1208.25 L1795.67 1214.14 L1800.86 1220.34 L1806.05 1226.83 L1811.24 1233.59 L1816.43 1240.58 L1821.62 1247.75 
  L1826.81 1255.05 L1832 1262.41 L1837.19 1269.75 L1842.38 1276.98 L1847.56 1284.04 L1852.75 1290.82 L1857.94 1297.25 L1863.13 1303.26 L1868.32 1308.77 L1873.51 1313.73 
  L1878.7 1318.1 L1883.89 1321.84 L1889.08 1324.96 L1894.27 1327.44 L1899.45 1329.32 L1904.64 1330.62 L1909.83 1331.41 L1915.02 1331.73 L1920.21 1331.69 L1925.4 1331.36 
  L1930.59 1330.86 L1935.78 1330.28 L1940.97 1329.75 L1946.16 1329.38 L1951.34 1329.28 L1956.53 1329.54 L1961.72 1330.27 L1966.91 1331.52 L1972.1 1333.35 L1977.29 1335.8 
  L1982.48 1338.86 L1987.67 1342.52 L1992.86 1346.73 L1998.05 1351.42 L2003.23 1356.52 L2008.42 1361.92 L2013.61 1367.53 L2018.8 1373.23 L2023.99 1378.93 L2029.18 1384.52 
  L2034.37 1389.93 L2039.56 1395.08 L2044.75 1399.93 L2049.94 1404.45 L2055.12 1408.62 L2060.31 1412.45 L2065.5 1415.95 L2070.69 1419.16 L2075.88 1422.11 L2081.07 1424.84 
  L2086.26 1427.39 L2091.45 1429.81 L2096.64 1432.12 L2101.83 1434.37 L2107.02 1436.55 L2112.2 1438.7 L2117.39 1440.8 L2122.58 1442.87 L2127.77 1444.89 L2132.96 1446.84 
  L2138.15 1448.71 L2143.34 1450.48 L2148.53 1452.13 L2153.72 1453.65 L2158.91 1455.01 L2164.09 1456.22 L2169.28 1457.26 L2174.47 1458.13 L2179.66 1458.84 L2184.85 1459.4 
  L2190.04 1459.81 L2195.23 1460.1 L2200.42 1460.28 L2205.61 1460.38 L2210.8 1460.43 L2215.98 1460.44 L2221.17 1460.45 L2226.36 1460.47 L2231.55 1460.54 L2236.74 1460.65 
  L2241.93 1460.85 L2247.12 1461.12 L2252.31 1461.49 L2257.5 1461.96 L2262.69 1462.52 L2267.87 1463.18 L2273.06 1463.92 L2278.25 1464.74 L2283.44 1465.62 L2288.63 1466.55 
  L2288.63 1479.3 L2283.44 1479.3 L2278.25 1479.3 L2273.06 1479.3 L2267.87 1479.3 L2262.69 1479.3 L2257.5 1479.3 L2252.31 1479.3 L2247.12 1479.3 L2241.93 1479.3 
  L2236.74 1479.3 L2231.55 1479.3 L2226.36 1479.3 L2221.17 1479.3 L2215.98 1479.3 L2210.8 1479.3 L2205.61 1479.3 L2200.42 1479.3 L2195.23 1479.3 L2190.04 1479.3 
  L2184.85 1479.3 L2179.66 1479.3 L2174.47 1479.3 L2169.28 1479.3 L2164.09 1479.3 L2158.91 1479.3 L2153.72 1479.3 L2148.53 1479.3 L2143.34 1479.3 L2138.15 1479.3 
  L2132.96 1479.3 L2127.77 1479.3 L2122.58 1479.3 L2117.39 1479.3 L2112.2 1479.3 L2107.02 1479.3 L2101.83 1479.3 L2096.64 1479.3 L2091.45 1479.3 L2086.26 1479.3 
  L2081.07 1479.3 L2075.88 1479.3 L2070.69 1479.3 L2065.5 1479.3 L2060.31 1479.3 L2055.12 1479.3 L2049.94 1479.3 L2044.75 1479.3 L2039.56 1479.3 L2034.37 1479.3 
  L2029.18 1479.3 L2023.99 1479.3 L2018.8 1479.3 L2013.61 1479.3 L2008.42 1479.3 L2003.23 1479.3 L1998.05 1479.3 L1992.86 1479.3 L1987.67 1479.3 L1982.48 1479.3 
  L1977.29 1479.3 L1972.1 1479.3 L1966.91 1479.3 L1961.72 1479.3 L1956.53 1479.3 L1951.34 1479.3 L1946.16 1479.3 L1940.97 1479.3 L1935.78 1479.3 L1930.59 1479.3 
  L1925.4 1479.3 L1920.21 1479.3 L1915.02 1479.3 L1909.83 1479.3 L1904.64 1479.3 L1899.45 1479.3 L1894.27 1479.3 L1889.08 1479.3 L1883.89 1479.3 L1878.7 1479.3 
  L1873.51 1479.3 L1868.32 1479.3 L1863.13 1479.3 L1857.94 1479.3 L1852.75 1479.3 L1847.56 1479.3 L1842.38 1479.3 L1837.19 1479.3 L1832 1479.3 L1826.81 1479.3 
  L1821.62 1479.3 L1816.43 1479.3 L1811.24 1479.3 L1806.05 1479.3 L1800.86 1479.3 L1795.67 1479.3 L1790.49 1479.3 L1785.3 1479.3 L1780.11 1479.3 L1774.92 1479.3 
   Z
  " fill="#ffa500" fill-rule="evenodd" fill-opacity="0.5"/>
<polyline clip-path="url(#clip702)" style="stroke:#ffa500; stroke-width:4; stroke-opacity:1; fill:none" points="
  1774.92,1192.55 1780.11,1197.45 1785.3,1202.68 1790.49,1208.25 1795.67,1214.14 1800.86,1220.34 1806.05,1226.83 1811.24,1233.59 1816.43,1240.58 1821.62,1247.75 
  1826.81,1255.05 1832,1262.41 1837.19,1269.75 1842.38,1276.98 1847.56,1284.04 1852.75,1290.82 1857.94,1297.25 1863.13,1303.26 1868.32,1308.77 1873.51,1313.73 
  1878.7,1318.1 1883.89,1321.84 1889.08,1324.96 1894.27,1327.44 1899.45,1329.32 1904.64,1330.62 1909.83,1331.41 1915.02,1331.73 1920.21,1331.69 1925.4,1331.36 
  1930.59,1330.86 1935.78,1330.28 1940.97,1329.75 1946.16,1329.38 1951.34,1329.28 1956.53,1329.54 1961.72,1330.27 1966.91,1331.52 1972.1,1333.35 1977.29,1335.8 
  1982.48,1338.86 1987.67,1342.52 1992.86,1346.73 1998.05,1351.42 2003.23,1356.52 2008.42,1361.92 2013.61,1367.53 2018.8,1373.23 2023.99,1378.93 2029.18,1384.52 
  2034.37,1389.93 2039.56,1395.08 2044.75,1399.93 2049.94,1404.45 2055.12,1408.62 2060.31,1412.45 2065.5,1415.95 2070.69,1419.16 2075.88,1422.11 2081.07,1424.84 
  2086.26,1427.39 2091.45,1429.81 2096.64,1432.12 2101.83,1434.37 2107.02,1436.55 2112.2,1438.7 2117.39,1440.8 2122.58,1442.87 2127.77,1444.89 2132.96,1446.84 
  2138.15,1448.71 2143.34,1450.48 2148.53,1452.13 2153.72,1453.65 2158.91,1455.01 2164.09,1456.22 2169.28,1457.26 2174.47,1458.13 2179.66,1458.84 2184.85,1459.4 
  2190.04,1459.81 2195.23,1460.1 2200.42,1460.28 2205.61,1460.38 2210.8,1460.43 2215.98,1460.44 2221.17,1460.45 2226.36,1460.47 2231.55,1460.54 2236.74,1460.65 
  2241.93,1460.85 2247.12,1461.12 2252.31,1461.49 2257.5,1461.96 2262.69,1462.52 2267.87,1463.18 2273.06,1463.92 2278.25,1464.74 2283.44,1465.62 2288.63,1466.55 
  
  "/>
<polyline clip-path="url(#clip702)" style="stroke:#0000ff; stroke-width:4; stroke-opacity:1; fill:none" points="
  1086.64,1479.3 1086.64,98.3112 
  "/>
<polyline clip-path="url(#clip702)" style="stroke:#000000; stroke-width:4; stroke-opacity:1; fill:none" points="
  1072.21,1479.3 1072.21,90.5862 
  "/>
<path clip-path="url(#clip700)" d="
M1494.58 459.25 L2277.23 459.25 L2277.23 96.3696 L1494.58 96.3696  Z
  " fill="#ffffff" fill-rule="evenodd" fill-opacity="1"/>
<polyline clip-path="url(#clip700)" style="stroke:#000000; stroke-width:4; stroke-opacity:1; fill:none" points="
  1494.58,459.25 2277.23,459.25 2277.23,96.3696 1494.58,96.3696 1494.58,459.25 
  "/>
<path clip-path="url(#clip700)" d="
M1519.75 181.042 L1670.81 181.042 L1670.81 132.658 L1519.75 132.658 L1519.75 181.042  Z
  " fill="#ffa500" fill-rule="evenodd" fill-opacity="0.5"/>
<polyline clip-path="url(#clip700)" style="stroke:#ffa500; stroke-width:4; stroke-opacity:1; fill:none" points="
  1519.75,132.658 1670.81,132.658 
  "/>
<path clip-path="url(#clip700)" d="M 0 0 M1700.38 161.19 Q1700.38 165.889 1702.3 168.574 Q1704.24 171.236 1707.62 171.236 Q1711 171.236 1712.95 168.574 Q1714.89 165.889 1714.89 161.19 Q1714.89 156.491 1712.95 153.829 Q1711 151.144 1707.62 151.144 Q1704.24 151.144 1702.3 153.829 Q1700.38 156.491 1700.38 161.19 M1714.89 170.241 Q1713.55 172.555 1711.49 173.69 Q1709.45 174.801 1706.58 174.801 Q1701.88 174.801 1698.92 171.051 Q1695.98 167.301 1695.98 161.19 Q1695.98 155.079 1698.92 151.329 Q1701.88 147.579 1706.58 147.579 Q1709.45 147.579 1711.49 148.713 Q1713.55 149.824 1714.89 152.139 L1714.89 148.204 L1719.15 148.204 L1719.15 183.991 L1714.89 183.991 L1714.89 170.241 Z" fill="#000000" fill-rule="evenodd" fill-opacity="1" /><path clip-path="url(#clip700)" d="M 0 0 M1734.22 142.648 Q1730.61 142.648 1728.78 146.213 Q1726.98 149.755 1726.98 156.884 Q1726.98 163.991 1728.78 167.556 Q1730.61 171.097 1734.22 171.097 Q1737.85 171.097 1739.66 167.556 Q1741.49 163.991 1741.49 156.884 Q1741.49 149.755 1739.66 146.213 Q1737.85 142.648 1734.22 142.648 M1734.22 138.945 Q1740.03 138.945 1743.09 143.551 Q1746.17 148.134 1746.17 156.884 Q1746.17 165.611 1743.09 170.218 Q1740.03 174.801 1734.22 174.801 Q1728.41 174.801 1725.33 170.218 Q1722.28 165.611 1722.28 156.884 Q1722.28 148.134 1725.33 143.551 Q1728.41 138.945 1734.22 138.945 Z" fill="#000000" fill-rule="evenodd" fill-opacity="1" /><path clip-path="url(#clip700)" d="M 0 0 M1751.28 139.57 L1769.64 139.57 L1769.64 143.505 L1755.56 143.505 L1755.56 151.977 Q1756.58 151.63 1757.6 151.468 Q1758.62 151.282 1759.64 151.282 Q1765.42 151.282 1768.8 154.454 Q1772.18 157.625 1772.18 163.042 Q1772.18 168.62 1768.71 171.722 Q1765.24 174.801 1758.92 174.801 Q1756.74 174.801 1754.48 174.43 Q1752.23 174.06 1749.82 173.319 L1749.82 168.62 Q1751.91 169.755 1754.13 170.31 Q1756.35 170.866 1758.83 170.866 Q1762.83 170.866 1765.17 168.759 Q1767.51 166.653 1767.51 163.042 Q1767.51 159.431 1765.17 157.324 Q1762.83 155.218 1758.83 155.218 Q1756.95 155.218 1755.08 155.634 Q1753.23 156.051 1751.28 156.931 L1751.28 139.57 Z" fill="#000000" fill-rule="evenodd" fill-opacity="1" /><path clip-path="url(#clip700)" d="
M1519.75 241.522 L1670.81 241.522 L1670.81 193.138 L1519.75 193.138 L1519.75 241.522  Z
  " fill="#008000" fill-rule="evenodd" fill-opacity="0.5"/>
<polyline clip-path="url(#clip700)" style="stroke:#008000; stroke-width:4; stroke-opacity:1; fill:none" points="
  1519.75,193.138 1670.81,193.138 
  "/>
<path clip-path="url(#clip700)" d="M 0 0 M1698.2 233.892 L1698.2 229.633 Q1699.96 230.466 1701.77 230.906 Q1703.57 231.346 1705.31 231.346 Q1709.94 231.346 1712.37 228.244 Q1714.82 225.119 1715.17 218.776 Q1713.83 220.767 1711.77 221.832 Q1709.71 222.897 1707.21 222.897 Q1702.02 222.897 1698.99 219.772 Q1695.98 216.624 1695.98 211.184 Q1695.98 205.86 1699.13 202.642 Q1702.28 199.425 1707.51 199.425 Q1713.5 199.425 1716.65 204.031 Q1719.82 208.614 1719.82 217.364 Q1719.82 225.536 1715.93 230.42 Q1712.07 235.281 1705.52 235.281 Q1703.76 235.281 1701.95 234.934 Q1700.15 234.586 1698.2 233.892 M1707.51 219.239 Q1710.66 219.239 1712.48 217.086 Q1714.34 214.934 1714.34 211.184 Q1714.34 207.457 1712.48 205.304 Q1710.66 203.128 1707.51 203.128 Q1704.36 203.128 1702.51 205.304 Q1700.68 207.457 1700.68 211.184 Q1700.68 214.934 1702.51 217.086 Q1704.36 219.239 1707.51 219.239 Z" fill="#000000" fill-rule="evenodd" fill-opacity="1" /><path clip-path="url(#clip700)" d="M 0 0 M1734.89 203.128 Q1731.28 203.128 1729.45 206.693 Q1727.65 210.235 1727.65 217.364 Q1727.65 224.471 1729.45 228.036 Q1731.28 231.577 1734.89 231.577 Q1738.53 231.577 1740.33 228.036 Q1742.16 224.471 1742.16 217.364 Q1742.16 210.235 1740.33 206.693 Q1738.53 203.128 1734.89 203.128 M1734.89 199.425 Q1740.7 199.425 1743.76 204.031 Q1746.84 208.614 1746.84 217.364 Q1746.84 226.091 1743.76 230.698 Q1740.7 235.281 1734.89 235.281 Q1729.08 235.281 1726 230.698 Q1722.95 226.091 1722.95 217.364 Q1722.95 208.614 1726 204.031 Q1729.08 199.425 1734.89 199.425 Z" fill="#000000" fill-rule="evenodd" fill-opacity="1" /><path clip-path="url(#clip700)" d="M 0 0 M1781.3 219.401 Q1779.29 219.401 1778.13 221.114 Q1777 222.827 1777 225.883 Q1777 228.892 1778.13 230.628 Q1779.29 232.341 1781.3 232.341 Q1783.27 232.341 1784.41 230.628 Q1785.56 228.892 1785.56 225.883 Q1785.56 222.85 1784.41 221.137 Q1783.27 219.401 1781.3 219.401 M1781.3 216.462 Q1784.96 216.462 1787.11 219.008 Q1789.27 221.554 1789.27 225.883 Q1789.27 230.211 1787.09 232.758 Q1784.94 235.281 1781.3 235.281 Q1777.6 235.281 1775.45 232.758 Q1773.29 230.211 1773.29 225.883 Q1773.29 221.531 1775.45 219.008 Q1777.62 216.462 1781.3 216.462 M1757.42 202.364 Q1755.42 202.364 1754.27 204.1 Q1753.13 205.813 1753.13 208.823 Q1753.13 211.878 1754.27 213.591 Q1755.4 215.304 1757.42 215.304 Q1759.43 215.304 1760.56 213.591 Q1761.72 211.878 1761.72 208.823 Q1761.72 205.837 1760.56 204.1 Q1759.41 202.364 1757.42 202.364 M1778.32 199.425 L1782.02 199.425 L1760.4 235.281 L1756.7 235.281 L1778.32 199.425 M1757.42 199.425 Q1761.07 199.425 1763.25 201.971 Q1765.42 204.494 1765.42 208.823 Q1765.42 213.198 1763.25 215.721 Q1761.1 218.244 1757.42 218.244 Q1753.73 218.244 1751.58 215.721 Q1749.45 213.174 1749.45 208.823 Q1749.45 204.517 1751.6 201.971 Q1753.76 199.425 1757.42 199.425 Z" fill="#000000" fill-rule="evenodd" fill-opacity="1" /><path clip-path="url(#clip700)" d="M 0 0 M1830.35 218.961 L1830.35 234.61 L1826.1 234.61 L1826.1 219.1 Q1826.1 215.42 1824.66 213.591 Q1823.22 211.762 1820.35 211.762 Q1816.91 211.762 1814.91 213.962 Q1812.92 216.161 1812.92 219.957 L1812.92 234.61 L1808.64 234.61 L1808.64 208.684 L1812.92 208.684 L1812.92 212.712 Q1814.45 210.374 1816.51 209.216 Q1818.6 208.059 1821.3 208.059 Q1825.77 208.059 1828.06 210.837 Q1830.35 213.591 1830.35 218.961 Z" fill="#000000" fill-rule="evenodd" fill-opacity="1" /><path clip-path="url(#clip700)" d="M 0 0 M1844.87 211.67 Q1841.44 211.67 1839.45 214.355 Q1837.46 217.017 1837.46 221.67 Q1837.46 226.323 1839.43 229.008 Q1841.42 231.67 1844.87 231.67 Q1848.27 231.67 1850.26 228.985 Q1852.25 226.299 1852.25 221.67 Q1852.25 217.063 1850.26 214.378 Q1848.27 211.67 1844.87 211.67 M1844.87 208.059 Q1850.42 208.059 1853.6 211.67 Q1856.77 215.281 1856.77 221.67 Q1856.77 228.036 1853.6 231.67 Q1850.42 235.281 1844.87 235.281 Q1839.29 235.281 1836.12 231.67 Q1832.97 228.036 1832.97 221.67 Q1832.97 215.281 1836.12 211.67 Q1839.29 208.059 1844.87 208.059 Z" fill="#000000" fill-rule="evenodd" fill-opacity="1" /><path clip-path="url(#clip700)" d="M 0 0 M1882.78 218.961 L1882.78 234.61 L1878.53 234.61 L1878.53 219.1 Q1878.53 215.42 1877.09 213.591 Q1875.66 211.762 1872.78 211.762 Q1869.34 211.762 1867.35 213.962 Q1865.35 216.161 1865.35 219.957 L1865.35 234.61 L1861.07 234.61 L1861.07 208.684 L1865.35 208.684 L1865.35 212.712 Q1866.88 210.374 1868.94 209.216 Q1871.03 208.059 1873.73 208.059 Q1878.2 208.059 1880.49 210.837 Q1882.78 213.591 1882.78 218.961 Z" fill="#000000" fill-rule="evenodd" fill-opacity="1" /><path clip-path="url(#clip700)" d="M 0 0 M1885.1 219.725 L1897.58 219.725 L1897.58 223.522 L1885.1 223.522 L1885.1 219.725 Z" fill="#000000" fill-rule="evenodd" fill-opacity="1" /><path clip-path="url(#clip700)" d="M 0 0 M1917.07 212.665 Q1916.35 212.249 1915.49 212.063 Q1914.66 211.855 1913.64 211.855 Q1910.03 211.855 1908.09 214.216 Q1906.16 216.554 1906.16 220.952 L1906.16 234.61 L1901.88 234.61 L1901.88 208.684 L1906.16 208.684 L1906.16 212.712 Q1907.51 210.35 1909.66 209.216 Q1911.81 208.059 1914.89 208.059 Q1915.33 208.059 1915.86 208.128 Q1916.4 208.175 1917.04 208.29 L1917.07 212.665 Z" fill="#000000" fill-rule="evenodd" fill-opacity="1" /><path clip-path="url(#clip700)" d="M 0 0 M1942.67 220.582 L1942.67 222.665 L1923.09 222.665 Q1923.36 227.063 1925.72 229.378 Q1928.11 231.67 1932.34 231.67 Q1934.8 231.67 1937.09 231.068 Q1939.4 230.466 1941.67 229.262 L1941.67 233.29 Q1939.38 234.262 1936.97 234.772 Q1934.57 235.281 1932.09 235.281 Q1925.89 235.281 1922.25 231.67 Q1918.64 228.059 1918.64 221.901 Q1918.64 215.536 1922.07 211.809 Q1925.52 208.059 1931.35 208.059 Q1936.58 208.059 1939.61 211.438 Q1942.67 214.795 1942.67 220.582 M1938.41 219.332 Q1938.36 215.837 1936.44 213.753 Q1934.54 211.67 1931.4 211.67 Q1927.83 211.67 1925.68 213.684 Q1923.55 215.698 1923.22 219.355 L1938.41 219.332 Z" fill="#000000" fill-rule="evenodd" fill-opacity="1" /><path clip-path="url(#clip700)" d="M 0 0 M1947.14 208.684 L1951.4 208.684 L1951.4 235.073 Q1951.4 240.026 1949.5 242.248 Q1947.62 244.471 1943.43 244.471 L1941.81 244.471 L1941.81 240.86 L1942.95 240.86 Q1945.38 240.86 1946.26 239.725 Q1947.14 238.614 1947.14 235.073 L1947.14 208.684 M1947.14 198.591 L1951.4 198.591 L1951.4 203.985 L1947.14 203.985 L1947.14 198.591 Z" fill="#000000" fill-rule="evenodd" fill-opacity="1" /><path clip-path="url(#clip700)" d="M 0 0 M1978.04 220.582 L1978.04 222.665 L1958.46 222.665 Q1958.73 227.063 1961.09 229.378 Q1963.48 231.67 1967.71 231.67 Q1970.17 231.67 1972.46 231.068 Q1974.78 230.466 1977.04 229.262 L1977.04 233.29 Q1974.75 234.262 1972.34 234.772 Q1969.94 235.281 1967.46 235.281 Q1961.26 235.281 1957.62 231.67 Q1954.01 228.059 1954.01 221.901 Q1954.01 215.536 1957.44 211.809 Q1960.89 208.059 1966.72 208.059 Q1971.95 208.059 1974.98 211.438 Q1978.04 214.795 1978.04 220.582 M1973.78 219.332 Q1973.73 215.837 1971.81 213.753 Q1969.91 211.67 1966.77 211.67 Q1963.2 211.67 1961.05 213.684 Q1958.92 215.698 1958.59 219.355 L1973.78 219.332 Z" fill="#000000" fill-rule="evenodd" fill-opacity="1" /><path clip-path="url(#clip700)" d="M 0 0 M2001.16 209.679 L2001.16 213.661 Q1999.36 212.665 1997.53 212.179 Q1995.72 211.67 1993.87 211.67 Q1989.73 211.67 1987.44 214.309 Q1985.15 216.924 1985.15 221.67 Q1985.15 226.415 1987.44 229.054 Q1989.73 231.67 1993.87 231.67 Q1995.72 231.67 1997.53 231.184 Q1999.36 230.674 2001.16 229.679 L2001.16 233.614 Q1999.38 234.448 1997.46 234.864 Q1995.56 235.281 1993.41 235.281 Q1987.55 235.281 1984.1 231.6 Q1980.65 227.92 1980.65 221.67 Q1980.65 215.327 1984.13 211.693 Q1987.62 208.059 1993.69 208.059 Q1995.65 208.059 1997.53 208.475 Q1999.4 208.869 2001.16 209.679 Z" fill="#000000" fill-rule="evenodd" fill-opacity="1" /><path clip-path="url(#clip700)" d="M 0 0 M2009.84 201.323 L2009.84 208.684 L2018.62 208.684 L2018.62 211.994 L2009.84 211.994 L2009.84 226.068 Q2009.84 229.239 2010.7 230.142 Q2011.58 231.045 2014.24 231.045 L2018.62 231.045 L2018.62 234.61 L2014.24 234.61 Q2009.31 234.61 2007.44 232.781 Q2005.56 230.929 2005.56 226.068 L2005.56 211.994 L2002.44 211.994 L2002.44 208.684 L2005.56 208.684 L2005.56 201.323 L2009.84 201.323 Z" fill="#000000" fill-rule="evenodd" fill-opacity="1" /><path clip-path="url(#clip700)" d="M 0 0 M2023.08 208.684 L2027.34 208.684 L2027.34 234.61 L2023.08 234.61 L2023.08 208.684 M2023.08 198.591 L2027.34 198.591 L2027.34 203.985 L2023.08 203.985 L2023.08 198.591 Z" fill="#000000" fill-rule="evenodd" fill-opacity="1" /><path clip-path="url(#clip700)" d="M 0 0 M2041.86 211.67 Q2038.43 211.67 2036.44 214.355 Q2034.45 217.017 2034.45 221.67 Q2034.45 226.323 2036.42 229.008 Q2038.41 231.67 2041.86 231.67 Q2045.26 231.67 2047.25 228.985 Q2049.24 226.299 2049.24 221.67 Q2049.24 217.063 2047.25 214.378 Q2045.26 211.67 2041.86 211.67 M2041.86 208.059 Q2047.41 208.059 2050.58 211.67 Q2053.76 215.281 2053.76 221.67 Q2053.76 228.036 2050.58 231.67 Q2047.41 235.281 2041.86 235.281 Q2036.28 235.281 2033.11 231.67 Q2029.96 228.036 2029.96 221.67 Q2029.96 215.281 2033.11 211.67 Q2036.28 208.059 2041.86 208.059 Z" fill="#000000" fill-rule="evenodd" fill-opacity="1" /><path clip-path="url(#clip700)" d="M 0 0 M2079.77 218.961 L2079.77 234.61 L2075.52 234.61 L2075.52 219.1 Q2075.52 215.42 2074.08 213.591 Q2072.64 211.762 2069.77 211.762 Q2066.33 211.762 2064.33 213.962 Q2062.34 216.161 2062.34 219.957 L2062.34 234.61 L2058.06 234.61 L2058.06 208.684 L2062.34 208.684 L2062.34 212.712 Q2063.87 210.374 2065.93 209.216 Q2068.02 208.059 2070.72 208.059 Q2075.19 208.059 2077.48 210.837 Q2079.77 213.591 2079.77 218.961 Z" fill="#000000" fill-rule="evenodd" fill-opacity="1" /><path clip-path="url(#clip700)" d="M 0 0 M2114.33 212.665 Q2113.62 212.249 2112.76 212.063 Q2111.93 211.855 2110.91 211.855 Q2107.3 211.855 2105.35 214.216 Q2103.43 216.554 2103.43 220.952 L2103.43 234.61 L2099.15 234.61 L2099.15 208.684 L2103.43 208.684 L2103.43 212.712 Q2104.77 210.35 2106.93 209.216 Q2109.08 208.059 2112.16 208.059 Q2112.6 208.059 2113.13 208.128 Q2113.66 208.175 2114.31 208.29 L2114.33 212.665 Z" fill="#000000" fill-rule="evenodd" fill-opacity="1" /><path clip-path="url(#clip700)" d="M 0 0 M2139.94 220.582 L2139.94 222.665 L2120.35 222.665 Q2120.63 227.063 2122.99 229.378 Q2125.38 231.67 2129.61 231.67 Q2132.07 231.67 2134.36 231.068 Q2136.67 230.466 2138.94 229.262 L2138.94 233.29 Q2136.65 234.262 2134.24 234.772 Q2131.83 235.281 2129.36 235.281 Q2123.15 235.281 2119.52 231.67 Q2115.91 228.059 2115.91 221.901 Q2115.91 215.536 2119.33 211.809 Q2122.78 208.059 2128.62 208.059 Q2133.85 208.059 2136.88 211.438 Q2139.94 214.795 2139.94 220.582 M2135.68 219.332 Q2135.63 215.837 2133.71 213.753 Q2131.81 211.67 2128.66 211.67 Q2125.1 211.67 2122.95 213.684 Q2120.82 215.698 2120.49 219.355 L2135.68 219.332 Z" fill="#000000" fill-rule="evenodd" fill-opacity="1" /><path clip-path="url(#clip700)" d="M 0 0 M2161.46 221.346 Q2161.46 216.716 2159.54 214.17 Q2157.64 211.624 2154.2 211.624 Q2150.77 211.624 2148.85 214.17 Q2146.95 216.716 2146.95 221.346 Q2146.95 225.952 2148.85 228.498 Q2150.77 231.045 2154.2 231.045 Q2157.64 231.045 2159.54 228.498 Q2161.46 225.952 2161.46 221.346 M2165.72 231.392 Q2165.72 238.012 2162.78 241.23 Q2159.84 244.471 2153.78 244.471 Q2151.53 244.471 2149.54 244.123 Q2147.55 243.799 2145.68 243.105 L2145.68 238.961 Q2147.55 239.98 2149.38 240.466 Q2151.21 240.952 2153.11 240.952 Q2157.3 240.952 2159.38 238.753 Q2161.46 236.577 2161.46 232.156 L2161.46 230.049 Q2160.14 232.341 2158.08 233.475 Q2156.02 234.61 2153.15 234.61 Q2148.39 234.61 2145.47 230.975 Q2142.55 227.341 2142.55 221.346 Q2142.55 215.327 2145.47 211.693 Q2148.39 208.059 2153.15 208.059 Q2156.02 208.059 2158.08 209.193 Q2160.14 210.327 2161.46 212.619 L2161.46 208.684 L2165.72 208.684 L2165.72 231.392 Z" fill="#000000" fill-rule="evenodd" fill-opacity="1" /><path clip-path="url(#clip700)" d="M 0 0 M2170.19 208.684 L2174.45 208.684 L2174.45 234.61 L2170.19 234.61 L2170.19 208.684 M2170.19 198.591 L2174.45 198.591 L2174.45 203.985 L2170.19 203.985 L2170.19 198.591 Z" fill="#000000" fill-rule="evenodd" fill-opacity="1" /><path clip-path="url(#clip700)" d="M 0 0 M2188.96 211.67 Q2185.54 211.67 2183.55 214.355 Q2181.56 217.017 2181.56 221.67 Q2181.56 226.323 2183.52 229.008 Q2185.51 231.67 2188.96 231.67 Q2192.37 231.67 2194.36 228.985 Q2196.35 226.299 2196.35 221.67 Q2196.35 217.063 2194.36 214.378 Q2192.37 211.67 2188.96 211.67 M2188.96 208.059 Q2194.52 208.059 2197.69 211.67 Q2200.86 215.281 2200.86 221.67 Q2200.86 228.036 2197.69 231.67 Q2194.52 235.281 2188.96 235.281 Q2183.39 235.281 2180.21 231.67 Q2177.07 228.036 2177.07 221.67 Q2177.07 215.281 2180.21 211.67 Q2183.39 208.059 2188.96 208.059 Z" fill="#000000" fill-rule="evenodd" fill-opacity="1" /><path clip-path="url(#clip700)" d="M 0 0 M2226.88 218.961 L2226.88 234.61 L2222.62 234.61 L2222.62 219.1 Q2222.62 215.42 2221.19 213.591 Q2219.75 211.762 2216.88 211.762 Q2213.43 211.762 2211.44 213.962 Q2209.45 216.161 2209.45 219.957 L2209.45 234.61 L2205.17 234.61 L2205.17 208.684 L2209.45 208.684 L2209.45 212.712 Q2210.98 210.374 2213.04 209.216 Q2215.12 208.059 2217.83 208.059 Q2222.3 208.059 2224.59 210.837 Q2226.88 213.591 2226.88 218.961 Z" fill="#000000" fill-rule="evenodd" fill-opacity="1" /><path clip-path="url(#clip700)" d="
M1519.75 302.002 L1670.81 302.002 L1670.81 253.618 L1519.75 253.618 L1519.75 302.002  Z
  " fill="#ffa500" fill-rule="evenodd" fill-opacity="0.5"/>
<polyline clip-path="url(#clip700)" style="stroke:#ffa500; stroke-width:4; stroke-opacity:1; fill:none" points="
  1519.75,253.618 1670.81,253.618 
  "/>
<path clip-path="url(#clip700)" d="M 0 0 M1700.38 282.15 Q1700.38 286.849 1702.3 289.534 Q1704.24 292.196 1707.62 292.196 Q1711 292.196 1712.95 289.534 Q1714.89 286.849 1714.89 282.15 Q1714.89 277.451 1712.95 274.789 Q1711 272.104 1707.62 272.104 Q1704.24 272.104 1702.3 274.789 Q1700.38 277.451 1700.38 282.15 M1714.89 291.201 Q1713.55 293.515 1711.49 294.65 Q1709.45 295.761 1706.58 295.761 Q1701.88 295.761 1698.92 292.011 Q1695.98 288.261 1695.98 282.15 Q1695.98 276.039 1698.92 272.289 Q1701.88 268.539 1706.58 268.539 Q1709.45 268.539 1711.49 269.673 Q1713.55 270.784 1714.89 273.099 L1714.89 269.164 L1719.15 269.164 L1719.15 304.951 L1714.89 304.951 L1714.89 291.201 Z" fill="#000000" fill-rule="evenodd" fill-opacity="1" /><path clip-path="url(#clip700)" d="M 0 0 M1724.36 294.372 L1724.36 290.113 Q1726.12 290.946 1727.92 291.386 Q1729.73 291.826 1731.47 291.826 Q1736.1 291.826 1738.53 288.724 Q1740.98 285.599 1741.33 279.256 Q1739.98 281.247 1737.92 282.312 Q1735.86 283.377 1733.36 283.377 Q1728.18 283.377 1725.15 280.252 Q1722.14 277.104 1722.14 271.664 Q1722.14 266.34 1725.29 263.122 Q1728.43 259.905 1733.67 259.905 Q1739.66 259.905 1742.81 264.511 Q1745.98 269.094 1745.98 277.844 Q1745.98 286.016 1742.09 290.9 Q1738.23 295.761 1731.67 295.761 Q1729.92 295.761 1728.11 295.414 Q1726.3 295.066 1724.36 294.372 M1733.67 279.719 Q1736.81 279.719 1738.64 277.566 Q1740.49 275.414 1740.49 271.664 Q1740.49 267.937 1738.64 265.784 Q1736.81 263.608 1733.67 263.608 Q1730.52 263.608 1728.67 265.784 Q1726.84 267.937 1726.84 271.664 Q1726.84 275.414 1728.67 277.566 Q1730.52 279.719 1733.67 279.719 Z" fill="#000000" fill-rule="evenodd" fill-opacity="1" /><path clip-path="url(#clip700)" d="M 0 0 M1751.1 260.53 L1769.45 260.53 L1769.45 264.465 L1755.38 264.465 L1755.38 272.937 Q1756.4 272.59 1757.42 272.428 Q1758.43 272.242 1759.45 272.242 Q1765.24 272.242 1768.62 275.414 Q1772 278.585 1772 284.002 Q1772 289.58 1768.53 292.682 Q1765.05 295.761 1758.73 295.761 Q1756.56 295.761 1754.29 295.39 Q1752.04 295.02 1749.64 294.279 L1749.64 289.58 Q1751.72 290.715 1753.94 291.27 Q1756.17 291.826 1758.64 291.826 Q1762.65 291.826 1764.98 289.719 Q1767.32 287.613 1767.32 284.002 Q1767.32 280.391 1764.98 278.284 Q1762.65 276.178 1758.64 276.178 Q1756.77 276.178 1754.89 276.594 Q1753.04 277.011 1751.1 277.891 L1751.1 260.53 Z" fill="#000000" fill-rule="evenodd" fill-opacity="1" /><polyline clip-path="url(#clip700)" style="stroke:#0000ff; stroke-width:4; stroke-opacity:1; fill:none" points="
  1519.75,338.29 1670.81,338.29 
  "/>
<path clip-path="url(#clip700)" d="M 0 0 M1716.33 334.621 Q1717.92 331.75 1720.15 330.385 Q1722.37 329.019 1725.38 329.019 Q1729.43 329.019 1731.63 331.866 Q1733.83 334.69 1733.83 339.921 L1733.83 355.57 L1729.54 355.57 L1729.54 340.06 Q1729.54 336.334 1728.23 334.528 Q1726.91 332.722 1724.2 332.722 Q1720.89 332.722 1718.97 334.922 Q1717.04 337.121 1717.04 340.917 L1717.04 355.57 L1712.76 355.57 L1712.76 340.06 Q1712.76 336.31 1711.44 334.528 Q1710.12 332.722 1707.37 332.722 Q1704.11 332.722 1702.18 334.945 Q1700.26 337.144 1700.26 340.917 L1700.26 355.57 L1695.98 355.57 L1695.98 329.644 L1700.26 329.644 L1700.26 333.672 Q1701.72 331.287 1703.76 330.153 Q1705.79 329.019 1708.6 329.019 Q1711.42 329.019 1713.39 330.454 Q1715.38 331.889 1716.33 334.621 Z" fill="#000000" fill-rule="evenodd" fill-opacity="1" /><path clip-path="url(#clip700)" d="M 0 0 M1760.47 341.542 L1760.47 343.625 L1740.89 343.625 Q1741.17 348.023 1743.53 350.338 Q1745.91 352.63 1750.15 352.63 Q1752.6 352.63 1754.89 352.028 Q1757.21 351.426 1759.48 350.222 L1759.48 354.25 Q1757.18 355.222 1754.78 355.732 Q1752.37 356.241 1749.89 356.241 Q1743.69 356.241 1740.05 352.63 Q1736.44 349.019 1736.44 342.861 Q1736.44 336.496 1739.87 332.769 Q1743.32 329.019 1749.15 329.019 Q1754.38 329.019 1757.42 332.398 Q1760.47 335.755 1760.47 341.542 M1756.21 340.292 Q1756.17 336.797 1754.24 334.713 Q1752.35 332.63 1749.2 332.63 Q1745.63 332.63 1743.48 334.644 Q1741.35 336.658 1741.03 340.315 L1756.21 340.292 Z" fill="#000000" fill-rule="evenodd" fill-opacity="1" /><path clip-path="url(#clip700)" d="M 0 0 M1776.72 342.537 Q1771.56 342.537 1769.57 343.718 Q1767.58 344.898 1767.58 347.746 Q1767.58 350.014 1769.06 351.357 Q1770.56 352.676 1773.13 352.676 Q1776.67 352.676 1778.8 350.176 Q1780.96 347.653 1780.96 343.486 L1780.96 342.537 L1776.72 342.537 M1785.22 340.778 L1785.22 355.57 L1780.96 355.57 L1780.96 351.634 Q1779.5 353.995 1777.32 355.13 Q1775.15 356.241 1772 356.241 Q1768.02 356.241 1765.66 354.019 Q1763.32 351.773 1763.32 348.023 Q1763.32 343.648 1766.23 341.426 Q1769.17 339.204 1774.98 339.204 L1780.96 339.204 L1780.96 338.787 Q1780.96 335.847 1779.01 334.25 Q1777.09 332.63 1773.6 332.63 Q1771.37 332.63 1769.27 333.162 Q1767.16 333.695 1765.22 334.759 L1765.22 330.824 Q1767.55 329.922 1769.75 329.482 Q1771.95 329.019 1774.04 329.019 Q1779.66 329.019 1782.44 331.935 Q1785.22 334.852 1785.22 340.778 Z" fill="#000000" fill-rule="evenodd" fill-opacity="1" /><path clip-path="url(#clip700)" d="M 0 0 M1811.23 339.921 L1811.23 355.57 L1806.97 355.57 L1806.97 340.06 Q1806.97 336.38 1805.54 334.551 Q1804.1 332.722 1801.23 332.722 Q1797.79 332.722 1795.79 334.922 Q1793.8 337.121 1793.8 340.917 L1793.8 355.57 L1789.52 355.57 L1789.52 329.644 L1793.8 329.644 L1793.8 333.672 Q1795.33 331.334 1797.39 330.176 Q1799.48 329.019 1802.18 329.019 Q1806.65 329.019 1808.94 331.797 Q1811.23 334.551 1811.23 339.921 Z" fill="#000000" fill-rule="evenodd" fill-opacity="1" /><polyline clip-path="url(#clip700)" style="stroke:#000000; stroke-width:4; stroke-opacity:1; fill:none" points="
  1519.75,398.77 1670.81,398.77 
  "/>
<path clip-path="url(#clip700)" d="M 0 0 M1716.33 395.101 Q1717.92 392.23 1720.15 390.865 Q1722.37 389.499 1725.38 389.499 Q1729.43 389.499 1731.63 392.346 Q1733.83 395.17 1733.83 400.401 L1733.83 416.05 L1729.54 416.05 L1729.54 400.54 Q1729.54 396.814 1728.23 395.008 Q1726.91 393.202 1724.2 393.202 Q1720.89 393.202 1718.97 395.402 Q1717.04 397.601 1717.04 401.397 L1717.04 416.05 L1712.76 416.05 L1712.76 400.54 Q1712.76 396.79 1711.44 395.008 Q1710.12 393.202 1707.37 393.202 Q1704.11 393.202 1702.18 395.425 Q1700.26 397.624 1700.26 401.397 L1700.26 416.05 L1695.98 416.05 L1695.98 390.124 L1700.26 390.124 L1700.26 394.152 Q1701.72 391.767 1703.76 390.633 Q1705.79 389.499 1708.6 389.499 Q1711.42 389.499 1713.39 390.934 Q1715.38 392.369 1716.33 395.101 Z" fill="#000000" fill-rule="evenodd" fill-opacity="1" /><path clip-path="url(#clip700)" d="M 0 0 M1760.47 402.022 L1760.47 404.105 L1740.89 404.105 Q1741.17 408.503 1743.53 410.818 Q1745.91 413.11 1750.15 413.11 Q1752.6 413.11 1754.89 412.508 Q1757.21 411.906 1759.48 410.702 L1759.48 414.73 Q1757.18 415.702 1754.78 416.212 Q1752.37 416.721 1749.89 416.721 Q1743.69 416.721 1740.05 413.11 Q1736.44 409.499 1736.44 403.341 Q1736.44 396.976 1739.87 393.249 Q1743.32 389.499 1749.15 389.499 Q1754.38 389.499 1757.42 392.878 Q1760.47 396.235 1760.47 402.022 M1756.21 400.772 Q1756.17 397.277 1754.24 395.193 Q1752.35 393.11 1749.2 393.11 Q1745.63 393.11 1743.48 395.124 Q1741.35 397.138 1741.03 400.795 L1756.21 400.772 Z" fill="#000000" fill-rule="evenodd" fill-opacity="1" /><path clip-path="url(#clip700)" d="M 0 0 M1782 394.059 L1782 380.031 L1786.26 380.031 L1786.26 416.05 L1782 416.05 L1782 412.161 Q1780.66 414.475 1778.6 415.61 Q1776.56 416.721 1773.69 416.721 Q1768.99 416.721 1766.03 412.971 Q1763.09 409.221 1763.09 403.11 Q1763.09 396.999 1766.03 393.249 Q1768.99 389.499 1773.69 389.499 Q1776.56 389.499 1778.6 390.633 Q1780.66 391.744 1782 394.059 M1767.48 403.11 Q1767.48 407.809 1769.41 410.494 Q1771.35 413.156 1774.73 413.156 Q1778.11 413.156 1780.05 410.494 Q1782 407.809 1782 403.11 Q1782 398.411 1780.05 395.749 Q1778.11 393.064 1774.73 393.064 Q1771.35 393.064 1769.41 395.749 Q1767.48 398.411 1767.48 403.11 Z" fill="#000000" fill-rule="evenodd" fill-opacity="1" /><path clip-path="url(#clip700)" d="M 0 0 M1790.73 390.124 L1794.98 390.124 L1794.98 416.05 L1790.73 416.05 L1790.73 390.124 M1790.73 380.031 L1794.98 380.031 L1794.98 385.425 L1790.73 385.425 L1790.73 380.031 Z" fill="#000000" fill-rule="evenodd" fill-opacity="1" /><path clip-path="url(#clip700)" d="M 0 0 M1811.23 403.017 Q1806.07 403.017 1804.08 404.198 Q1802.09 405.378 1802.09 408.226 Q1802.09 410.494 1803.57 411.837 Q1805.08 413.156 1807.65 413.156 Q1811.19 413.156 1813.32 410.656 Q1815.47 408.133 1815.47 403.966 L1815.47 403.017 L1811.23 403.017 M1819.73 401.258 L1819.73 416.05 L1815.47 416.05 L1815.47 412.114 Q1814.01 414.475 1811.84 415.61 Q1809.66 416.721 1806.51 416.721 Q1802.53 416.721 1800.17 414.499 Q1797.83 412.253 1797.83 408.503 Q1797.83 404.128 1800.75 401.906 Q1803.69 399.684 1809.5 399.684 L1815.47 399.684 L1815.47 399.267 Q1815.47 396.327 1813.53 394.73 Q1811.6 393.11 1808.11 393.11 Q1805.89 393.11 1803.78 393.642 Q1801.67 394.175 1799.73 395.239 L1799.73 391.304 Q1802.07 390.402 1804.27 389.962 Q1806.47 389.499 1808.55 389.499 Q1814.17 389.499 1816.95 392.415 Q1819.73 395.332 1819.73 401.258 Z" fill="#000000" fill-rule="evenodd" fill-opacity="1" /><path clip-path="url(#clip700)" d="M 0 0 M1845.75 400.401 L1845.75 416.05 L1841.49 416.05 L1841.49 400.54 Q1841.49 396.86 1840.05 395.031 Q1838.62 393.202 1835.75 393.202 Q1832.3 393.202 1830.31 395.402 Q1828.32 397.601 1828.32 401.397 L1828.32 416.05 L1824.04 416.05 L1824.04 390.124 L1828.32 390.124 L1828.32 394.152 Q1829.85 391.814 1831.91 390.656 Q1833.99 389.499 1836.7 389.499 Q1841.16 389.499 1843.46 392.277 Q1845.75 395.031 1845.75 400.401 Z" fill="#000000" fill-rule="evenodd" fill-opacity="1" /></svg>
