<?xml version="1.0" encoding="utf-8"?>
<svg xmlns="http://www.w3.org/2000/svg" xmlns:xlink="http://www.w3.org/1999/xlink" width="600" height="400" viewBox="0 0 2400 1600">
<defs>
  <clipPath id="clip670">
    <rect x="0" y="0" width="2400" height="1600"/>
  </clipPath>
</defs>
<path clip-path="url(#clip670)" d="
M0 1600 L2400 1600 L2400 0 L0 0  Z
  " fill="#ffffff" fill-rule="evenodd" fill-opacity="1"/>
<defs>
  <clipPath id="clip671">
    <rect x="480" y="0" width="1681" height="1600"/>
  </clipPath>
</defs>
<path clip-path="url(#clip670)" d="
M86.9921 1521.01 L2352.76 1521.01 L2352.76 47.2441 L86.9921 47.2441  Z
  " fill="#ffffff" fill-rule="evenodd" fill-opacity="1"/>
<defs>
  <clipPath id="clip672">
    <rect x="86" y="47" width="2267" height="1475"/>
  </clipPath>
</defs>
<polyline clip-path="url(#clip672)" style="stroke:#000000; stroke-width:2; stroke-opacity:0.1; fill:none" points="
  147.454,1521.01 147.454,47.2441 
  "/>
<polyline clip-path="url(#clip672)" style="stroke:#000000; stroke-width:2; stroke-opacity:0.1; fill:none" points="
  716.401,1521.01 716.401,47.2441 
  "/>
<polyline clip-path="url(#clip672)" style="stroke:#000000; stroke-width:2; stroke-opacity:0.1; fill:none" points="
  1285.35,1521.01 1285.35,47.2441 
  "/>
<polyline clip-path="url(#clip672)" style="stroke:#000000; stroke-width:2; stroke-opacity:0.1; fill:none" points="
  1854.3,1521.01 1854.3,47.2441 
  "/>
<polyline clip-path="url(#clip672)" style="stroke:#000000; stroke-width:2; stroke-opacity:0.1; fill:none" points="
  86.9921,1479.3 2352.76,1479.3 
  "/>
<polyline clip-path="url(#clip672)" style="stroke:#000000; stroke-width:2; stroke-opacity:0.1; fill:none" points="
  86.9921,1188.59 2352.76,1188.59 
  "/>
<polyline clip-path="url(#clip672)" style="stroke:#000000; stroke-width:2; stroke-opacity:0.1; fill:none" points="
  86.9921,897.889 2352.76,897.889 
  "/>
<polyline clip-path="url(#clip672)" style="stroke:#000000; stroke-width:2; stroke-opacity:0.1; fill:none" points="
  86.9921,607.184 2352.76,607.184 
  "/>
<polyline clip-path="url(#clip672)" style="stroke:#000000; stroke-width:2; stroke-opacity:0.1; fill:none" points="
  86.9921,316.48 2352.76,316.48 
  "/>
<polyline clip-path="url(#clip670)" style="stroke:#000000; stroke-width:4; stroke-opacity:1; fill:none" points="
  86.9921,1521.01 2352.76,1521.01 
  "/>
<polyline clip-path="url(#clip670)" style="stroke:#000000; stroke-width:4; stroke-opacity:1; fill:none" points="
  86.9921,1521.01 86.9921,47.2441 
  "/>
<polyline clip-path="url(#clip670)" style="stroke:#000000; stroke-width:4; stroke-opacity:1; fill:none" points="
  147.454,1521.01 147.454,1503.32 
  "/>
<polyline clip-path="url(#clip670)" style="stroke:#000000; stroke-width:4; stroke-opacity:1; fill:none" points="
  716.401,1521.01 716.401,1503.32 
  "/>
<polyline clip-path="url(#clip670)" style="stroke:#000000; stroke-width:4; stroke-opacity:1; fill:none" points="
  1285.35,1521.01 1285.35,1503.32 
  "/>
<polyline clip-path="url(#clip670)" style="stroke:#000000; stroke-width:4; stroke-opacity:1; fill:none" points="
  1854.3,1521.01 1854.3,1503.32 
  "/>
<polyline clip-path="url(#clip670)" style="stroke:#000000; stroke-width:4; stroke-opacity:1; fill:none" points="
  86.9921,1479.3 114.181,1479.3 
  "/>
<polyline clip-path="url(#clip670)" style="stroke:#000000; stroke-width:4; stroke-opacity:1; fill:none" points="
  86.9921,1188.59 114.181,1188.59 
  "/>
<polyline clip-path="url(#clip670)" style="stroke:#000000; stroke-width:4; stroke-opacity:1; fill:none" points="
  86.9921,897.889 114.181,897.889 
  "/>
<polyline clip-path="url(#clip670)" style="stroke:#000000; stroke-width:4; stroke-opacity:1; fill:none" points="
  86.9921,607.184 114.181,607.184 
  "/>
<polyline clip-path="url(#clip670)" style="stroke:#000000; stroke-width:4; stroke-opacity:1; fill:none" points="
  86.9921,316.48 114.181,316.48 
  "/>
<path clip-path="url(#clip670)" d="M 0 0 M96.3318 1559.6 L108.809 1559.6 L108.809 1563.39 L96.3318 1563.39 L96.3318 1559.6 Z" fill="#000000" fill-rule="evenodd" fill-opacity="1" /><path clip-path="url(#clip670)" d="M 0 0 M123.878 1543 Q120.267 1543 118.438 1546.56 Q116.633 1550.11 116.633 1557.23 Q116.633 1564.34 118.438 1567.91 Q120.267 1571.45 123.878 1571.45 Q127.512 1571.45 129.318 1567.91 Q131.146 1564.34 131.146 1557.23 Q131.146 1550.11 129.318 1546.56 Q127.512 1543 123.878 1543 M123.878 1539.29 Q129.688 1539.29 132.744 1543.9 Q135.822 1548.48 135.822 1557.23 Q135.822 1565.96 132.744 1570.57 Q129.688 1575.15 123.878 1575.15 Q118.068 1575.15 114.989 1570.57 Q111.934 1565.96 111.934 1557.23 Q111.934 1548.48 114.989 1543.9 Q118.068 1539.29 123.878 1539.29 Z" fill="#000000" fill-rule="evenodd" fill-opacity="1" /><path clip-path="url(#clip670)" d="M 0 0 M140.892 1568.6 L145.776 1568.6 L145.776 1574.48 L140.892 1574.48 L140.892 1568.6 Z" fill="#000000" fill-rule="evenodd" fill-opacity="1" /><path clip-path="url(#clip670)" d="M 0 0 M151.656 1570.54 L159.294 1570.54 L159.294 1544.18 L150.984 1545.85 L150.984 1541.59 L159.248 1539.92 L163.924 1539.92 L163.924 1570.54 L171.563 1570.54 L171.563 1574.48 L151.656 1574.48 L151.656 1570.54 Z" fill="#000000" fill-rule="evenodd" fill-opacity="1" /><path clip-path="url(#clip670)" d="M 0 0 M186.632 1543 Q183.021 1543 181.192 1546.56 Q179.387 1550.11 179.387 1557.23 Q179.387 1564.34 181.192 1567.91 Q183.021 1571.45 186.632 1571.45 Q190.266 1571.45 192.072 1567.91 Q193.901 1564.34 193.901 1557.23 Q193.901 1550.11 192.072 1546.56 Q190.266 1543 186.632 1543 M186.632 1539.29 Q192.442 1539.29 195.498 1543.9 Q198.577 1548.48 198.577 1557.23 Q198.577 1565.96 195.498 1570.57 Q192.442 1575.15 186.632 1575.15 Q180.822 1575.15 177.743 1570.57 Q174.688 1565.96 174.688 1557.23 Q174.688 1548.48 177.743 1543.9 Q180.822 1539.29 186.632 1539.29 Z" fill="#000000" fill-rule="evenodd" fill-opacity="1" /><path clip-path="url(#clip670)" d="M 0 0 M665.163 1559.6 L677.64 1559.6 L677.64 1563.39 L665.163 1563.39 L665.163 1559.6 Z" fill="#000000" fill-rule="evenodd" fill-opacity="1" /><path clip-path="url(#clip670)" d="M 0 0 M692.709 1543 Q689.098 1543 687.27 1546.56 Q685.464 1550.11 685.464 1557.23 Q685.464 1564.34 687.27 1567.91 Q689.098 1571.45 692.709 1571.45 Q696.344 1571.45 698.149 1567.91 Q699.978 1564.34 699.978 1557.23 Q699.978 1550.11 698.149 1546.56 Q696.344 1543 692.709 1543 M692.709 1539.29 Q698.52 1539.29 701.575 1543.9 Q704.654 1548.48 704.654 1557.23 Q704.654 1565.96 701.575 1570.57 Q698.52 1575.15 692.709 1575.15 Q686.899 1575.15 683.821 1570.57 Q680.765 1565.96 680.765 1557.23 Q680.765 1548.48 683.821 1543.9 Q686.899 1539.29 692.709 1539.29 Z" fill="#000000" fill-rule="evenodd" fill-opacity="1" /><path clip-path="url(#clip670)" d="M 0 0 M709.723 1568.6 L714.607 1568.6 L714.607 1574.48 L709.723 1574.48 L709.723 1568.6 Z" fill="#000000" fill-rule="evenodd" fill-opacity="1" /><path clip-path="url(#clip670)" d="M 0 0 M729.677 1543 Q726.066 1543 724.237 1546.56 Q722.432 1550.11 722.432 1557.23 Q722.432 1564.34 724.237 1567.91 Q726.066 1571.45 729.677 1571.45 Q733.311 1571.45 735.117 1567.91 Q736.945 1564.34 736.945 1557.23 Q736.945 1550.11 735.117 1546.56 Q733.311 1543 729.677 1543 M729.677 1539.29 Q735.487 1539.29 738.543 1543.9 Q741.621 1548.48 741.621 1557.23 Q741.621 1565.96 738.543 1570.57 Q735.487 1575.15 729.677 1575.15 Q723.867 1575.15 720.788 1570.57 Q717.732 1565.96 717.732 1557.23 Q717.732 1548.48 720.788 1543.9 Q723.867 1539.29 729.677 1539.29 Z" fill="#000000" fill-rule="evenodd" fill-opacity="1" /><path clip-path="url(#clip670)" d="M 0 0 M746.737 1539.92 L765.093 1539.92 L765.093 1543.86 L751.019 1543.86 L751.019 1552.33 Q752.038 1551.98 753.056 1551.82 Q754.075 1551.63 755.093 1551.63 Q760.88 1551.63 764.26 1554.8 Q767.64 1557.98 767.64 1563.39 Q767.64 1568.97 764.167 1572.07 Q760.695 1575.15 754.376 1575.15 Q752.2 1575.15 749.931 1574.78 Q747.686 1574.41 745.279 1573.67 L745.279 1568.97 Q747.362 1570.1 749.584 1570.66 Q751.806 1571.22 754.283 1571.22 Q758.288 1571.22 760.626 1569.11 Q762.964 1567 762.964 1563.39 Q762.964 1559.78 760.626 1557.67 Q758.288 1555.57 754.283 1555.57 Q752.408 1555.57 750.533 1555.98 Q748.681 1556.4 746.737 1557.28 L746.737 1539.92 Z" fill="#000000" fill-rule="evenodd" fill-opacity="1" /><path clip-path="url(#clip670)" d="M 0 0 M1253.36 1543 Q1249.75 1543 1247.92 1546.56 Q1246.11 1550.11 1246.11 1557.23 Q1246.11 1564.34 1247.92 1567.91 Q1249.75 1571.45 1253.36 1571.45 Q1256.99 1571.45 1258.8 1567.91 Q1260.63 1564.34 1260.63 1557.23 Q1260.63 1550.11 1258.8 1546.56 Q1256.99 1543 1253.36 1543 M1253.36 1539.29 Q1259.17 1539.29 1262.22 1543.9 Q1265.3 1548.48 1265.3 1557.23 Q1265.3 1565.96 1262.22 1570.57 Q1259.17 1575.15 1253.36 1575.15 Q1247.55 1575.15 1244.47 1570.57 Q1241.41 1565.96 1241.41 1557.23 Q1241.41 1548.48 1244.47 1543.9 Q1247.55 1539.29 1253.36 1539.29 Z" fill="#000000" fill-rule="evenodd" fill-opacity="1" /><path clip-path="url(#clip670)" d="M 0 0 M1270.37 1568.6 L1275.26 1568.6 L1275.26 1574.48 L1270.37 1574.48 L1270.37 1568.6 Z" fill="#000000" fill-rule="evenodd" fill-opacity="1" /><path clip-path="url(#clip670)" d="M 0 0 M1290.33 1543 Q1286.71 1543 1284.89 1546.56 Q1283.08 1550.11 1283.08 1557.23 Q1283.08 1564.34 1284.89 1567.91 Q1286.71 1571.45 1290.33 1571.45 Q1293.96 1571.45 1295.77 1567.91 Q1297.59 1564.34 1297.59 1557.23 Q1297.59 1550.11 1295.77 1546.56 Q1293.96 1543 1290.33 1543 M1290.33 1539.29 Q1296.14 1539.29 1299.19 1543.9 Q1302.27 1548.48 1302.27 1557.23 Q1302.27 1565.96 1299.19 1570.57 Q1296.14 1575.15 1290.33 1575.15 Q1284.52 1575.15 1281.44 1570.57 Q1278.38 1565.96 1278.38 1557.23 Q1278.38 1548.48 1281.44 1543.9 Q1284.52 1539.29 1290.33 1539.29 Z" fill="#000000" fill-rule="evenodd" fill-opacity="1" /><path clip-path="url(#clip670)" d="M 0 0 M1317.34 1543 Q1313.73 1543 1311.9 1546.56 Q1310.09 1550.11 1310.09 1557.23 Q1310.09 1564.34 1311.9 1567.91 Q1313.73 1571.45 1317.34 1571.45 Q1320.97 1571.45 1322.78 1567.91 Q1324.61 1564.34 1324.61 1557.23 Q1324.61 1550.11 1322.78 1546.56 Q1320.97 1543 1317.34 1543 M1317.34 1539.29 Q1323.15 1539.29 1326.2 1543.9 Q1329.28 1548.48 1329.28 1557.23 Q1329.28 1565.96 1326.2 1570.57 Q1323.15 1575.15 1317.34 1575.15 Q1311.53 1575.15 1308.45 1570.57 Q1305.39 1565.96 1305.39 1557.23 Q1305.39 1548.48 1308.45 1543.9 Q1311.53 1539.29 1317.34 1539.29 Z" fill="#000000" fill-rule="evenodd" fill-opacity="1" /><path clip-path="url(#clip670)" d="M 0 0 M1822.8 1543 Q1819.19 1543 1817.36 1546.56 Q1815.56 1550.11 1815.56 1557.23 Q1815.56 1564.34 1817.36 1567.91 Q1819.19 1571.45 1822.8 1571.45 Q1826.44 1571.45 1828.24 1567.91 Q1830.07 1564.34 1830.07 1557.23 Q1830.07 1550.11 1828.24 1546.56 Q1826.44 1543 1822.8 1543 M1822.8 1539.29 Q1828.61 1539.29 1831.67 1543.9 Q1834.75 1548.48 1834.75 1557.23 Q1834.75 1565.96 1831.67 1570.57 Q1828.61 1575.15 1822.8 1575.15 Q1816.99 1575.15 1813.91 1570.57 Q1810.86 1565.96 1810.86 1557.23 Q1810.86 1548.48 1813.91 1543.9 Q1816.99 1539.29 1822.8 1539.29 Z" fill="#000000" fill-rule="evenodd" fill-opacity="1" /><path clip-path="url(#clip670)" d="M 0 0 M1839.82 1568.6 L1844.7 1568.6 L1844.7 1574.48 L1839.82 1574.48 L1839.82 1568.6 Z" fill="#000000" fill-rule="evenodd" fill-opacity="1" /><path clip-path="url(#clip670)" d="M 0 0 M1859.77 1543 Q1856.16 1543 1854.33 1546.56 Q1852.53 1550.11 1852.53 1557.23 Q1852.53 1564.34 1854.33 1567.91 Q1856.16 1571.45 1859.77 1571.45 Q1863.4 1571.45 1865.21 1567.91 Q1867.04 1564.34 1867.04 1557.23 Q1867.04 1550.11 1865.21 1546.56 Q1863.4 1543 1859.77 1543 M1859.77 1539.29 Q1865.58 1539.29 1868.64 1543.9 Q1871.71 1548.48 1871.71 1557.23 Q1871.71 1565.96 1868.64 1570.57 Q1865.58 1575.15 1859.77 1575.15 Q1853.96 1575.15 1850.88 1570.57 Q1847.83 1565.96 1847.83 1557.23 Q1847.83 1548.48 1850.88 1543.9 Q1853.96 1539.29 1859.77 1539.29 Z" fill="#000000" fill-rule="evenodd" fill-opacity="1" /><path clip-path="url(#clip670)" d="M 0 0 M1876.83 1539.92 L1895.19 1539.92 L1895.19 1543.86 L1881.11 1543.86 L1881.11 1552.33 Q1882.13 1551.98 1883.15 1551.82 Q1884.17 1551.63 1885.19 1551.63 Q1890.97 1551.63 1894.35 1554.8 Q1897.73 1557.98 1897.73 1563.39 Q1897.73 1568.97 1894.26 1572.07 Q1890.79 1575.15 1884.47 1575.15 Q1882.29 1575.15 1880.03 1574.78 Q1877.78 1574.41 1875.37 1573.67 L1875.37 1568.97 Q1877.46 1570.1 1879.68 1570.66 Q1881.9 1571.22 1884.38 1571.22 Q1888.38 1571.22 1890.72 1569.11 Q1893.06 1567 1893.06 1563.39 Q1893.06 1559.78 1890.72 1557.67 Q1888.38 1555.57 1884.38 1555.57 Q1882.5 1555.57 1880.63 1555.98 Q1878.78 1556.4 1876.83 1557.28 L1876.83 1539.92 Z" fill="#000000" fill-rule="evenodd" fill-opacity="1" /><path clip-path="url(#clip670)" d="M 0 0 M51.0477 1465.1 Q47.4367 1465.1 45.608 1468.66 Q43.8024 1472.2 43.8024 1479.33 Q43.8024 1486.44 45.608 1490 Q47.4367 1493.55 51.0477 1493.55 Q54.682 1493.55 56.4875 1490 Q58.3162 1486.44 58.3162 1479.33 Q58.3162 1472.2 56.4875 1468.66 Q54.682 1465.1 51.0477 1465.1 M51.0477 1461.39 Q56.8579 1461.39 59.9134 1466 Q62.9921 1470.58 62.9921 1479.33 Q62.9921 1488.06 59.9134 1492.67 Q56.8579 1497.25 51.0477 1497.25 Q45.2376 1497.25 42.1589 1492.67 Q39.1034 1488.06 39.1034 1479.33 Q39.1034 1470.58 42.1589 1466 Q45.2376 1461.39 51.0477 1461.39 Z" fill="#000000" fill-rule="evenodd" fill-opacity="1" /><path clip-path="url(#clip670)" d="M 0 0 M55.8625 1187.24 Q59.219 1187.96 61.094 1190.23 Q62.9921 1192.49 62.9921 1195.83 Q62.9921 1200.94 59.4736 1203.74 Q55.9551 1206.54 49.4737 1206.54 Q47.2978 1206.54 44.983 1206.1 Q42.6913 1205.69 40.2376 1204.83 L40.2376 1200.32 Q42.1821 1201.45 44.4969 1202.03 Q46.8117 1202.61 49.3348 1202.61 Q53.7329 1202.61 56.0246 1200.87 Q58.3394 1199.14 58.3394 1195.83 Q58.3394 1192.77 56.1866 1191.06 Q54.057 1189.32 50.2376 1189.32 L46.2098 1189.32 L46.2098 1185.48 L50.4227 1185.48 Q53.8718 1185.48 55.7005 1184.11 Q57.5292 1182.73 57.5292 1180.13 Q57.5292 1177.47 55.6311 1176.06 Q53.7561 1174.62 50.2376 1174.62 Q48.3163 1174.62 46.1172 1175.04 Q43.9182 1175.46 41.2793 1176.34 L41.2793 1172.17 Q43.9413 1171.43 46.2561 1171.06 Q48.5941 1170.69 50.6542 1170.69 Q55.9783 1170.69 59.0801 1173.12 Q62.1819 1175.53 62.1819 1179.65 Q62.1819 1182.52 60.5384 1184.51 Q58.8949 1186.48 55.8625 1187.24 Z" fill="#000000" fill-rule="evenodd" fill-opacity="1" /><path clip-path="url(#clip670)" d="M 0 0 M51.4644 896.025 Q48.3163 896.025 46.4644 898.178 Q44.6357 900.331 44.6357 904.081 Q44.6357 907.808 46.4644 909.984 Q48.3163 912.136 51.4644 912.136 Q54.6125 912.136 56.4412 909.984 Q58.2931 907.808 58.2931 904.081 Q58.2931 900.331 56.4412 898.178 Q54.6125 896.025 51.4644 896.025 M60.7468 881.373 L60.7468 885.632 Q58.9875 884.799 57.182 884.359 Q55.3996 883.919 53.6403 883.919 Q49.0107 883.919 46.557 887.044 Q44.1265 890.169 43.7793 896.488 Q45.145 894.475 47.2052 893.41 Q49.2653 892.322 51.7422 892.322 Q56.9505 892.322 59.9597 895.493 Q62.9921 898.641 62.9921 904.081 Q62.9921 909.405 59.844 912.623 Q56.6959 915.84 51.4644 915.84 Q45.4691 915.84 42.2978 911.257 Q39.1265 906.65 39.1265 897.924 Q39.1265 889.729 43.0154 884.868 Q46.9042 879.984 53.4551 879.984 Q55.2144 879.984 56.9968 880.331 Q58.8023 880.678 60.7468 881.373 Z" fill="#000000" fill-rule="evenodd" fill-opacity="1" /><path clip-path="url(#clip670)" d="M 0 0 M41.3719 623.747 L41.3719 619.488 Q43.1311 620.321 44.9367 620.761 Q46.7422 621.201 48.4783 621.201 Q53.1079 621.201 55.5385 618.099 Q57.9922 614.974 58.3394 608.631 Q56.9968 610.622 54.9366 611.687 Q52.8764 612.752 50.3765 612.752 Q45.1913 612.752 42.1589 609.627 Q39.1497 606.478 39.1497 601.039 Q39.1497 595.715 42.2978 592.497 Q45.4459 589.279 50.6774 589.279 Q56.6727 589.279 59.8208 593.886 Q62.9921 598.469 62.9921 607.219 Q62.9921 615.39 59.1033 620.275 Q55.2375 625.136 48.6866 625.136 Q46.9274 625.136 45.1219 624.789 Q43.3163 624.441 41.3719 623.747 M50.6774 609.094 Q53.8255 609.094 55.6542 606.941 Q57.506 604.789 57.506 601.039 Q57.506 597.312 55.6542 595.159 Q53.8255 592.983 50.6774 592.983 Q47.5292 592.983 45.6774 595.159 Q43.8487 597.312 43.8487 601.039 Q43.8487 604.789 45.6774 606.941 Q47.5292 609.094 50.6774 609.094 Z" fill="#000000" fill-rule="evenodd" fill-opacity="1" /><path clip-path="url(#clip670)" d="M 0 0 M17.6683 329.825 L25.3071 329.825 L25.3071 303.459 L16.997 305.126 L16.997 300.867 L25.2608 299.2 L29.9367 299.2 L29.9367 329.825 L37.5756 329.825 L37.5756 333.76 L17.6683 333.76 L17.6683 329.825 Z" fill="#000000" fill-rule="evenodd" fill-opacity="1" /><path clip-path="url(#clip670)" d="M 0 0 M46.6728 329.825 L62.9921 329.825 L62.9921 333.76 L41.0478 333.76 L41.0478 329.825 Q43.7098 327.07 48.2931 322.441 Q52.8996 317.788 54.0801 316.445 Q56.3255 313.922 57.2051 312.186 Q58.1079 310.427 58.1079 308.737 Q58.1079 305.982 56.1635 304.246 Q54.2422 302.51 51.1403 302.51 Q48.9413 302.51 46.4876 303.274 Q44.057 304.038 41.2793 305.589 L41.2793 300.867 Q44.1033 299.733 46.557 299.154 Q49.0107 298.575 51.0477 298.575 Q56.4181 298.575 59.6125 301.26 Q62.8069 303.945 62.8069 308.436 Q62.8069 310.566 61.9968 312.487 Q61.2097 314.385 59.1033 316.978 Q58.5246 317.649 55.4227 320.867 Q52.3209 324.061 46.6728 329.825 Z" fill="#000000" fill-rule="evenodd" fill-opacity="1" /><path clip-path="url(#clip672)" d="
M151.118 1408.62 L154.681 1404.59 L158.245 1400.56 L161.809 1396.55 L165.373 1392.58 L168.937 1388.67 L172.501 1384.83 L176.064 1381.07 L179.628 1377.42 L183.192 1373.89 
  L186.756 1370.48 L190.32 1367.22 L193.884 1364.1 L197.447 1361.14 L201.011 1358.35 L204.575 1355.72 L208.139 1353.27 L211.703 1351 L215.267 1348.9 L218.83 1346.99 
  L222.394 1345.25 L225.958 1343.68 L229.522 1342.28 L233.086 1341.04 L236.65 1339.97 L240.213 1339.04 L243.777 1338.25 L247.341 1337.59 L250.905 1337.06 L254.469 1336.63 
  L258.033 1336.3 L261.596 1336.06 L265.16 1335.89 L268.724 1335.77 L272.288 1335.7 L275.852 1335.66 L279.416 1335.64 L282.979 1335.61 L286.543 1335.58 L290.107 1335.52 
  L293.671 1335.42 L297.235 1335.27 L300.799 1335.07 L304.362 1334.79 L307.926 1334.44 L311.49 1334 L315.054 1333.48 L318.618 1332.85 L322.182 1332.14 L325.745 1331.33 
  L329.309 1330.42 L332.873 1329.42 L336.437 1328.33 L340.001 1327.17 L343.565 1325.93 L347.128 1324.63 L350.692 1323.27 L354.256 1321.87 L357.82 1320.44 L361.384 1319 
  L364.948 1317.54 L368.512 1316.1 L372.075 1314.67 L375.639 1313.26 L379.203 1311.9 L382.767 1310.58 L386.331 1309.32 L389.895 1308.12 L393.458 1306.99 L397.022 1305.92 
  L400.586 1304.93 L404.15 1304 L407.714 1303.14 L411.278 1302.33 L414.841 1301.58 L418.405 1300.87 L421.969 1300.2 L425.533 1299.54 L429.097 1298.89 L432.661 1298.22 
  L436.224 1297.53 L439.788 1296.79 L443.352 1295.98 L446.916 1295.09 L450.48 1294.08 L454.044 1292.96 L457.607 1291.68 L461.171 1290.24 L464.735 1288.62 L468.299 1286.79 
  L471.863 1284.76 L475.427 1282.5 L478.99 1280 L482.554 1277.25 L486.118 1274.26 L489.682 1271.02 L493.246 1267.54 L496.81 1263.81 L500.373 1259.85 L503.937 1255.67 
  L503.937 1479.3 L500.373 1479.3 L496.81 1479.3 L493.246 1479.3 L489.682 1479.3 L486.118 1479.3 L482.554 1479.3 L478.99 1479.3 L475.427 1479.3 L471.863 1479.3 
  L468.299 1479.3 L464.735 1479.3 L461.171 1479.3 L457.607 1479.3 L454.044 1479.3 L450.48 1479.3 L446.916 1479.3 L443.352 1479.3 L439.788 1479.3 L436.224 1479.3 
  L432.661 1479.3 L429.097 1479.3 L425.533 1479.3 L421.969 1479.3 L418.405 1479.3 L414.841 1479.3 L411.278 1479.3 L407.714 1479.3 L404.15 1479.3 L400.586 1479.3 
  L397.022 1479.3 L393.458 1479.3 L389.895 1479.3 L386.331 1479.3 L382.767 1479.3 L379.203 1479.3 L375.639 1479.3 L372.075 1479.3 L368.512 1479.3 L364.948 1479.3 
  L361.384 1479.3 L357.82 1479.3 L354.256 1479.3 L350.692 1479.3 L347.128 1479.3 L343.565 1479.3 L340.001 1479.3 L336.437 1479.3 L332.873 1479.3 L329.309 1479.3 
  L325.745 1479.3 L322.182 1479.3 L318.618 1479.3 L315.054 1479.3 L311.49 1479.3 L307.926 1479.3 L304.362 1479.3 L300.799 1479.3 L297.235 1479.3 L293.671 1479.3 
  L290.107 1479.3 L286.543 1479.3 L282.979 1479.3 L279.416 1479.3 L275.852 1479.3 L272.288 1479.3 L268.724 1479.3 L265.16 1479.3 L261.596 1479.3 L258.033 1479.3 
  L254.469 1479.3 L250.905 1479.3 L247.341 1479.3 L243.777 1479.3 L240.213 1479.3 L236.65 1479.3 L233.086 1479.3 L229.522 1479.3 L225.958 1479.3 L222.394 1479.3 
  L218.83 1479.3 L215.267 1479.3 L211.703 1479.3 L208.139 1479.3 L204.575 1479.3 L201.011 1479.3 L197.447 1479.3 L193.884 1479.3 L190.32 1479.3 L186.756 1479.3 
  L183.192 1479.3 L179.628 1479.3 L176.064 1479.3 L172.501 1479.3 L168.937 1479.3 L165.373 1479.3 L161.809 1479.3 L158.245 1479.3 L154.681 1479.3 L151.118 1479.3 
   Z
  " fill="#ffa500" fill-rule="evenodd" fill-opacity="0.5"/>
<polyline clip-path="url(#clip672)" style="stroke:#ffa500; stroke-width:4; stroke-opacity:1; fill:none" points="
  151.118,1408.62 154.681,1404.59 158.245,1400.56 161.809,1396.55 165.373,1392.58 168.937,1388.67 172.501,1384.83 176.064,1381.07 179.628,1377.42 183.192,1373.89 
  186.756,1370.48 190.32,1367.22 193.884,1364.1 197.447,1361.14 201.011,1358.35 204.575,1355.72 208.139,1353.27 211.703,1351 215.267,1348.9 218.83,1346.99 
  222.394,1345.25 225.958,1343.68 229.522,1342.28 233.086,1341.04 236.65,1339.97 240.213,1339.04 243.777,1338.25 247.341,1337.59 250.905,1337.06 254.469,1336.63 
  258.033,1336.3 261.596,1336.06 265.16,1335.89 268.724,1335.77 272.288,1335.7 275.852,1335.66 279.416,1335.64 282.979,1335.61 286.543,1335.58 290.107,1335.52 
  293.671,1335.42 297.235,1335.27 300.799,1335.07 304.362,1334.79 307.926,1334.44 311.49,1334 315.054,1333.48 318.618,1332.85 322.182,1332.14 325.745,1331.33 
  329.309,1330.42 332.873,1329.42 336.437,1328.33 340.001,1327.17 343.565,1325.93 347.128,1324.63 350.692,1323.27 354.256,1321.87 357.82,1320.44 361.384,1319 
  364.948,1317.54 368.512,1316.1 372.075,1314.67 375.639,1313.26 379.203,1311.9 382.767,1310.58 386.331,1309.32 389.895,1308.12 393.458,1306.99 397.022,1305.92 
  400.586,1304.93 404.15,1304 407.714,1303.14 411.278,1302.33 414.841,1301.58 418.405,1300.87 421.969,1300.2 425.533,1299.54 429.097,1298.89 432.661,1298.22 
  436.224,1297.53 439.788,1296.79 443.352,1295.98 446.916,1295.09 450.48,1294.08 454.044,1292.96 457.607,1291.68 461.171,1290.24 464.735,1288.62 468.299,1286.79 
  471.863,1284.76 475.427,1282.5 478.99,1280 482.554,1277.25 486.118,1274.26 489.682,1271.02 493.246,1267.54 496.81,1263.81 500.373,1259.85 503.937,1255.67 
  
  "/>
<path clip-path="url(#clip672)" d="
M503.937 1255.67 L516.589 1239.33 L529.24 1221.51 L541.892 1203.63 L554.543 1187.23 L567.195 1173.66 L579.846 1163.75 L592.498 1157.63 L605.149 1154.62 L617.801 1153.41 
  L630.452 1152.34 L643.103 1149.76 L655.755 1144.43 L668.406 1135.73 L681.058 1123.83 L693.709 1109.65 L706.361 1094.62 L719.012 1080.35 L731.664 1068.25 L744.315 1059.07 
  L756.967 1052.83 L769.618 1048.79 L782.27 1045.79 L794.921 1042.62 L807.573 1038.38 L820.224 1032.6 L832.876 1025.22 L845.527 1016.29 L858.179 1005.76 L870.83 993.354 
  L883.482 978.619 L896.133 961.091 L908.784 940.542 L921.436 917.127 L934.087 891.394 L946.739 864.158 L959.39 836.295 L972.042 808.527 L984.693 781.282 L997.345 754.61 
  L1010 728.174 L1022.65 701.293 L1035.3 673.069 L1047.95 642.596 L1060.6 609.238 L1073.25 572.896 L1085.91 534.136 L1098.56 494.102 L1111.21 454.211 L1123.86 415.745 
  L1136.51 379.502 L1149.16 345.65 L1161.81 313.819 L1174.47 283.365 L1187.12 253.692 L1199.77 224.492 L1212.42 195.878 L1225.07 168.4 L1237.72 142.999 L1250.37 120.93 
  L1263.03 103.638 L1275.68 92.5818 L1288.33 88.9544 L1300.98 93.3697 L1313.63 105.582 L1326.28 124.373 L1338.93 147.68 L1351.59 172.979 L1364.24 197.8 L1376.89 220.242 
  L1389.54 239.319 L1402.19 255.055 L1414.84 268.338 L1427.49 280.594 L1440.15 293.405 L1452.8 308.161 L1465.45 325.821 L1478.1 346.823 L1490.75 371.14 L1503.4 398.434 
  L1516.06 428.241 L1528.71 460.112 L1541.36 493.64 L1554.01 528.383 L1566.66 563.738 L1579.31 598.891 L1591.96 632.93 L1604.62 665.117 L1617.27 695.208 L1629.92 723.655 
  L1642.57 751.526 L1655.22 780.152 L1667.87 810.62 L1680.52 843.338 L1693.18 877.891 L1705.83 913.255 L1718.48 948.251 L1731.13 982.063 L1743.78 1014.56 L1756.43 1046.3 
  L1756.43 1479.3 L1743.78 1479.3 L1731.13 1479.3 L1718.48 1479.3 L1705.83 1479.3 L1693.18 1479.3 L1680.52 1479.3 L1667.87 1479.3 L1655.22 1479.3 L1642.57 1479.3 
  L1629.92 1479.3 L1617.27 1479.3 L1604.62 1479.3 L1591.96 1479.3 L1579.31 1479.3 L1566.66 1479.3 L1554.01 1479.3 L1541.36 1479.3 L1528.71 1479.3 L1516.06 1479.3 
  L1503.4 1479.3 L1490.75 1479.3 L1478.1 1479.3 L1465.45 1479.3 L1452.8 1479.3 L1440.15 1479.3 L1427.49 1479.3 L1414.84 1479.3 L1402.19 1479.3 L1389.54 1479.3 
  L1376.89 1479.3 L1364.24 1479.3 L1351.59 1479.3 L1338.93 1479.3 L1326.28 1479.3 L1313.63 1479.3 L1300.98 1479.3 L1288.33 1479.3 L1275.68 1479.3 L1263.03 1479.3 
  L1250.37 1479.3 L1237.72 1479.3 L1225.07 1479.3 L1212.42 1479.3 L1199.77 1479.3 L1187.12 1479.3 L1174.47 1479.3 L1161.81 1479.3 L1149.16 1479.3 L1136.51 1479.3 
  L1123.86 1479.3 L1111.21 1479.3 L1098.56 1479.3 L1085.91 1479.3 L1073.25 1479.3 L1060.6 1479.3 L1047.95 1479.3 L1035.3 1479.3 L1022.65 1479.3 L1010 1479.3 
  L997.345 1479.3 L984.693 1479.3 L972.042 1479.3 L959.39 1479.3 L946.739 1479.3 L934.087 1479.3 L921.436 1479.3 L908.784 1479.3 L896.133 1479.3 L883.482 1479.3 
  L870.83 1479.3 L858.179 1479.3 L845.527 1479.3 L832.876 1479.3 L820.224 1479.3 L807.573 1479.3 L794.921 1479.3 L782.27 1479.3 L769.618 1479.3 L756.967 1479.3 
  L744.315 1479.3 L731.664 1479.3 L719.012 1479.3 L706.361 1479.3 L693.709 1479.3 L681.058 1479.3 L668.406 1479.3 L655.755 1479.3 L643.103 1479.3 L630.452 1479.3 
  L617.801 1479.3 L605.149 1479.3 L592.498 1479.3 L579.846 1479.3 L567.195 1479.3 L554.543 1479.3 L541.892 1479.3 L529.24 1479.3 L516.589 1479.3 L503.937 1479.3 
   Z
  " fill="#008000" fill-rule="evenodd" fill-opacity="0.5"/>
<polyline clip-path="url(#clip672)" style="stroke:#008000; stroke-width:4; stroke-opacity:1; fill:none" points="
  503.937,1255.67 516.589,1239.33 529.24,1221.51 541.892,1203.63 554.543,1187.23 567.195,1173.66 579.846,1163.75 592.498,1157.63 605.149,1154.62 617.801,1153.41 
  630.452,1152.34 643.103,1149.76 655.755,1144.43 668.406,1135.73 681.058,1123.83 693.709,1109.65 706.361,1094.62 719.012,1080.35 731.664,1068.25 744.315,1059.07 
  756.967,1052.83 769.618,1048.79 782.27,1045.79 794.921,1042.62 807.573,1038.38 820.224,1032.6 832.876,1025.22 845.527,1016.29 858.179,1005.76 870.83,993.354 
  883.482,978.619 896.133,961.091 908.784,940.542 921.436,917.127 934.087,891.394 946.739,864.158 959.39,836.295 972.042,808.527 984.693,781.282 997.345,754.61 
  1010,728.174 1022.65,701.293 1035.3,673.069 1047.95,642.596 1060.6,609.238 1073.25,572.896 1085.91,534.136 1098.56,494.102 1111.21,454.211 1123.86,415.745 
  1136.51,379.502 1149.16,345.65 1161.81,313.819 1174.47,283.365 1187.12,253.692 1199.77,224.492 1212.42,195.878 1225.07,168.4 1237.72,142.999 1250.37,120.93 
  1263.03,103.638 1275.68,92.5818 1288.33,88.9544 1300.98,93.3697 1313.63,105.582 1326.28,124.373 1338.93,147.68 1351.59,172.979 1364.24,197.8 1376.89,220.242 
  1389.54,239.319 1402.19,255.055 1414.84,268.338 1427.49,280.594 1440.15,293.405 1452.8,308.161 1465.45,325.821 1478.1,346.823 1490.75,371.14 1503.4,398.434 
  1516.06,428.241 1528.71,460.112 1541.36,493.64 1554.01,528.383 1566.66,563.738 1579.31,598.891 1591.96,632.93 1604.62,665.117 1617.27,695.208 1629.92,723.655 
  1642.57,751.526 1655.22,780.152 1667.87,810.62 1680.52,843.338 1693.18,877.891 1705.83,913.255 1718.48,948.251 1731.13,982.063 1743.78,1014.56 1756.43,1046.3 
  
  "/>
<path clip-path="url(#clip672)" d="
M1756.43 1046.3 L1761.81 1059.8 L1767.18 1073.42 L1772.56 1087.24 L1777.94 1101.33 L1783.31 1115.71 L1788.69 1130.42 L1794.06 1145.45 L1799.44 1160.78 L1804.81 1176.34 
  L1810.19 1192.07 L1815.57 1207.88 L1820.94 1223.64 L1826.32 1239.24 L1831.69 1254.57 L1837.07 1269.48 L1842.44 1283.86 L1847.82 1297.59 L1853.2 1310.56 L1858.57 1322.69 
  L1863.95 1333.89 L1869.32 1344.11 L1874.7 1353.3 L1880.08 1361.44 L1885.45 1368.52 L1890.83 1374.55 L1896.2 1379.55 L1901.58 1383.58 L1906.95 1386.69 L1912.33 1388.94 
  L1917.71 1390.43 L1923.08 1391.25 L1928.46 1391.51 L1933.83 1391.3 L1939.21 1390.75 L1944.58 1389.97 L1949.96 1389.08 L1955.34 1388.17 L1960.71 1387.34 L1966.09 1386.69 
  L1971.46 1386.28 L1976.84 1386.17 L1982.21 1386.39 L1987.59 1386.97 L1992.97 1387.89 L1998.34 1389.17 L2003.72 1390.75 L2009.09 1392.62 L2014.47 1394.71 L2019.84 1396.98 
  L2025.22 1399.38 L2030.6 1401.84 L2035.97 1404.33 L2041.35 1406.78 L2046.72 1409.17 L2052.1 1411.46 L2057.47 1413.62 L2062.85 1415.64 L2068.23 1417.51 L2073.6 1419.24 
  L2078.98 1420.83 L2084.35 1422.28 L2089.73 1423.63 L2095.1 1424.9 L2100.48 1426.1 L2105.86 1427.26 L2111.23 1428.42 L2116.61 1429.59 L2121.98 1430.79 L2127.36 1432.04 
  L2132.73 1433.35 L2138.11 1434.73 L2143.49 1436.17 L2148.86 1437.68 L2154.24 1439.24 L2159.61 1440.82 L2164.99 1442.43 L2170.36 1444.03 L2175.74 1445.6 L2181.12 1447.12 
  L2186.49 1448.57 L2191.87 1449.94 L2197.24 1451.22 L2202.62 1452.39 L2207.99 1453.47 L2213.37 1454.44 L2218.75 1455.33 L2224.12 1456.14 L2229.5 1456.88 L2234.87 1457.58 
  L2240.25 1458.25 L2245.62 1458.91 L2251 1459.59 L2256.38 1460.29 L2261.75 1461.02 L2267.13 1461.8 L2272.5 1462.63 L2277.88 1463.51 L2283.25 1464.43 L2288.63 1465.4 
  L2288.63 1479.3 L2283.25 1479.3 L2277.88 1479.3 L2272.5 1479.3 L2267.13 1479.3 L2261.75 1479.3 L2256.38 1479.3 L2251 1479.3 L2245.62 1479.3 L2240.25 1479.3 
  L2234.87 1479.3 L2229.5 1479.3 L2224.12 1479.3 L2218.75 1479.3 L2213.37 1479.3 L2207.99 1479.3 L2202.62 1479.3 L2197.24 1479.3 L2191.87 1479.3 L2186.49 1479.3 
  L2181.12 1479.3 L2175.74 1479.3 L2170.36 1479.3 L2164.99 1479.3 L2159.61 1479.3 L2154.24 1479.3 L2148.86 1479.3 L2143.49 1479.3 L2138.11 1479.3 L2132.73 1479.3 
  L2127.36 1479.3 L2121.98 1479.3 L2116.61 1479.3 L2111.23 1479.3 L2105.86 1479.3 L2100.48 1479.3 L2095.1 1479.3 L2089.73 1479.3 L2084.35 1479.3 L2078.98 1479.3 
  L2073.6 1479.3 L2068.23 1479.3 L2062.85 1479.3 L2057.47 1479.3 L2052.1 1479.3 L2046.72 1479.3 L2041.35 1479.3 L2035.97 1479.3 L2030.6 1479.3 L2025.22 1479.3 
  L2019.84 1479.3 L2014.47 1479.3 L2009.09 1479.3 L2003.72 1479.3 L1998.34 1479.3 L1992.97 1479.3 L1987.59 1479.3 L1982.21 1479.3 L1976.84 1479.3 L1971.46 1479.3 
  L1966.09 1479.3 L1960.71 1479.3 L1955.34 1479.3 L1949.96 1479.3 L1944.58 1479.3 L1939.21 1479.3 L1933.83 1479.3 L1928.46 1479.3 L1923.08 1479.3 L1917.71 1479.3 
  L1912.33 1479.3 L1906.95 1479.3 L1901.58 1479.3 L1896.2 1479.3 L1890.83 1479.3 L1885.45 1479.3 L1880.08 1479.3 L1874.7 1479.3 L1869.32 1479.3 L1863.95 1479.3 
  L1858.57 1479.3 L1853.2 1479.3 L1847.82 1479.3 L1842.44 1479.3 L1837.07 1479.3 L1831.69 1479.3 L1826.32 1479.3 L1820.94 1479.3 L1815.57 1479.3 L1810.19 1479.3 
  L1804.81 1479.3 L1799.44 1479.3 L1794.06 1479.3 L1788.69 1479.3 L1783.31 1479.3 L1777.94 1479.3 L1772.56 1479.3 L1767.18 1479.3 L1761.81 1479.3 L1756.43 1479.3 
   Z
  " fill="#ffa500" fill-rule="evenodd" fill-opacity="0.5"/>
<polyline clip-path="url(#clip672)" style="stroke:#ffa500; stroke-width:4; stroke-opacity:1; fill:none" points="
  1756.43,1046.3 1761.81,1059.8 1767.18,1073.42 1772.56,1087.24 1777.94,1101.33 1783.31,1115.71 1788.69,1130.42 1794.06,1145.45 1799.44,1160.78 1804.81,1176.34 
  1810.19,1192.07 1815.57,1207.88 1820.94,1223.64 1826.32,1239.24 1831.69,1254.57 1837.07,1269.48 1842.44,1283.86 1847.82,1297.59 1853.2,1310.56 1858.57,1322.69 
  1863.95,1333.89 1869.32,1344.11 1874.7,1353.3 1880.08,1361.44 1885.45,1368.52 1890.83,1374.55 1896.2,1379.55 1901.58,1383.58 1906.95,1386.69 1912.33,1388.94 
  1917.71,1390.43 1923.08,1391.25 1928.46,1391.51 1933.83,1391.3 1939.21,1390.75 1944.58,1389.97 1949.96,1389.08 1955.34,1388.17 1960.71,1387.34 1966.09,1386.69 
  1971.46,1386.28 1976.84,1386.17 1982.21,1386.39 1987.59,1386.97 1992.97,1387.89 1998.34,1389.17 2003.72,1390.75 2009.09,1392.62 2014.47,1394.71 2019.84,1396.98 
  2025.22,1399.38 2030.6,1401.84 2035.97,1404.33 2041.35,1406.78 2046.72,1409.17 2052.1,1411.46 2057.47,1413.62 2062.85,1415.64 2068.23,1417.51 2073.6,1419.24 
  2078.98,1420.83 2084.35,1422.28 2089.73,1423.63 2095.1,1424.9 2100.48,1426.1 2105.86,1427.26 2111.23,1428.42 2116.61,1429.59 2121.98,1430.79 2127.36,1432.04 
  2132.73,1433.35 2138.11,1434.73 2143.49,1436.17 2148.86,1437.68 2154.24,1439.24 2159.61,1440.82 2164.99,1442.43 2170.36,1444.03 2175.74,1445.6 2181.12,1447.12 
  2186.49,1448.57 2191.87,1449.94 2197.24,1451.22 2202.62,1452.39 2207.99,1453.47 2213.37,1454.44 2218.75,1455.33 2224.12,1456.14 2229.5,1456.88 2234.87,1457.58 
  2240.25,1458.25 2245.62,1458.91 2251,1459.59 2256.38,1460.29 2261.75,1461.02 2267.13,1461.8 2272.5,1462.63 2277.88,1463.51 2283.25,1464.43 2288.63,1465.4 
  
  "/>
<polyline clip-path="url(#clip672)" style="stroke:#0000ff; stroke-width:4; stroke-opacity:1; fill:none" points="
  1220.21,1479.3 1220.21,178.764 
  "/>
<polyline clip-path="url(#clip672)" style="stroke:#000000; stroke-width:4; stroke-opacity:1; fill:none" points="
  1266.03,1479.3 1266.03,100.395 
  "/>
<path clip-path="url(#clip670)" d="
M1494.58 459.25 L2277.23 459.25 L2277.23 96.3696 L1494.58 96.3696  Z
  " fill="#ffffff" fill-rule="evenodd" fill-opacity="1"/>
<polyline clip-path="url(#clip670)" style="stroke:#000000; stroke-width:4; stroke-opacity:1; fill:none" points="
  1494.58,459.25 2277.23,459.25 2277.23,96.3696 1494.58,96.3696 1494.58,459.25 
  "/>
<path clip-path="url(#clip670)" d="
M1519.75 181.042 L1670.81 181.042 L1670.81 132.658 L1519.75 132.658 L1519.75 181.042  Z
  " fill="#ffa500" fill-rule="evenodd" fill-opacity="0.5"/>
<polyline clip-path="url(#clip670)" style="stroke:#ffa500; stroke-width:4; stroke-opacity:1; fill:none" points="
  1519.75,132.658 1670.81,132.658 
  "/>
<path clip-path="url(#clip670)" d="M 0 0 M1700.38 161.19 Q1700.38 165.889 1702.3 168.574 Q1704.24 171.236 1707.62 171.236 Q1711 171.236 1712.95 168.574 Q1714.89 165.889 1714.89 161.19 Q1714.89 156.491 1712.95 153.829 Q1711 151.144 1707.62 151.144 Q1704.24 151.144 1702.3 153.829 Q1700.38 156.491 1700.38 161.19 M1714.89 170.241 Q1713.55 172.555 1711.49 173.69 Q1709.45 174.801 1706.58 174.801 Q1701.88 174.801 1698.92 171.051 Q1695.98 167.301 1695.98 161.19 Q1695.98 155.079 1698.92 151.329 Q1701.88 147.579 1706.58 147.579 Q1709.45 147.579 1711.49 148.713 Q1713.55 149.824 1714.89 152.139 L1714.89 148.204 L1719.15 148.204 L1719.15 183.991 L1714.89 183.991 L1714.89 170.241 Z" fill="#000000" fill-rule="evenodd" fill-opacity="1" /><path clip-path="url(#clip670)" d="M 0 0 M1734.22 142.648 Q1730.61 142.648 1728.78 146.213 Q1726.98 149.755 1726.98 156.884 Q1726.98 163.991 1728.78 167.556 Q1730.61 171.097 1734.22 171.097 Q1737.85 171.097 1739.66 167.556 Q1741.49 163.991 1741.49 156.884 Q1741.49 149.755 1739.66 146.213 Q1737.85 142.648 1734.22 142.648 M1734.22 138.945 Q1740.03 138.945 1743.09 143.551 Q1746.17 148.134 1746.17 156.884 Q1746.17 165.611 1743.09 170.218 Q1740.03 174.801 1734.22 174.801 Q1728.41 174.801 1725.33 170.218 Q1722.28 165.611 1722.28 156.884 Q1722.28 148.134 1725.33 143.551 Q1728.41 138.945 1734.22 138.945 Z" fill="#000000" fill-rule="evenodd" fill-opacity="1" /><path clip-path="url(#clip670)" d="M 0 0 M1751.28 139.57 L1769.64 139.57 L1769.64 143.505 L1755.56 143.505 L1755.56 151.977 Q1756.58 151.63 1757.6 151.468 Q1758.62 151.282 1759.64 151.282 Q1765.42 151.282 1768.8 154.454 Q1772.18 157.625 1772.18 163.042 Q1772.18 168.62 1768.71 171.722 Q1765.24 174.801 1758.92 174.801 Q1756.74 174.801 1754.48 174.43 Q1752.23 174.06 1749.82 173.319 L1749.82 168.62 Q1751.91 169.755 1754.13 170.31 Q1756.35 170.866 1758.83 170.866 Q1762.83 170.866 1765.17 168.759 Q1767.51 166.653 1767.51 163.042 Q1767.51 159.431 1765.17 157.324 Q1762.83 155.218 1758.83 155.218 Q1756.95 155.218 1755.08 155.634 Q1753.23 156.051 1751.28 156.931 L1751.28 139.57 Z" fill="#000000" fill-rule="evenodd" fill-opacity="1" /><path clip-path="url(#clip670)" d="
M1519.75 241.522 L1670.81 241.522 L1670.81 193.138 L1519.75 193.138 L1519.75 241.522  Z
  " fill="#008000" fill-rule="evenodd" fill-opacity="0.5"/>
<polyline clip-path="url(#clip670)" style="stroke:#008000; stroke-width:4; stroke-opacity:1; fill:none" points="
  1519.75,193.138 1670.81,193.138 
  "/>
<path clip-path="url(#clip670)" d="M 0 0 M1698.2 233.892 L1698.2 229.633 Q1699.96 230.466 1701.77 230.906 Q1703.57 231.346 1705.31 231.346 Q1709.94 231.346 1712.37 228.244 Q1714.82 225.119 1715.17 218.776 Q1713.83 220.767 1711.77 221.832 Q1709.71 222.897 1707.21 222.897 Q1702.02 222.897 1698.99 219.772 Q1695.98 216.624 1695.98 211.184 Q1695.98 205.86 1699.13 202.642 Q1702.28 199.425 1707.51 199.425 Q1713.5 199.425 1716.65 204.031 Q1719.82 208.614 1719.82 217.364 Q1719.82 225.536 1715.93 230.42 Q1712.07 235.281 1705.52 235.281 Q1703.76 235.281 1701.95 234.934 Q1700.15 234.586 1698.2 233.892 M1707.51 219.239 Q1710.66 219.239 1712.48 217.086 Q1714.34 214.934 1714.34 211.184 Q1714.34 207.457 1712.48 205.304 Q1710.66 203.128 1707.51 203.128 Q1704.36 203.128 1702.51 205.304 Q1700.68 207.457 1700.68 211.184 Q1700.68 214.934 1702.51 217.086 Q1704.36 219.239 1707.51 219.239 Z" fill="#000000" fill-rule="evenodd" fill-opacity="1" /><path clip-path="url(#clip670)" d="M 0 0 M1734.89 203.128 Q1731.28 203.128 1729.45 206.693 Q1727.65 210.235 1727.65 217.364 Q1727.65 224.471 1729.45 228.036 Q1731.28 231.577 1734.89 231.577 Q1738.53 231.577 1740.33 228.036 Q1742.16 224.471 1742.16 217.364 Q1742.16 210.235 1740.33 206.693 Q1738.53 203.128 1734.89 203.128 M1734.89 199.425 Q1740.7 199.425 1743.76 204.031 Q1746.84 208.614 1746.84 217.364 Q1746.84 226.091 1743.76 230.698 Q1740.7 235.281 1734.89 235.281 Q1729.08 235.281 1726 230.698 Q1722.95 226.091 1722.95 217.364 Q1722.95 208.614 1726 204.031 Q1729.08 199.425 1734.89 199.425 Z" fill="#000000" fill-rule="evenodd" fill-opacity="1" /><path clip-path="url(#clip670)" d="M 0 0 M1781.3 219.401 Q1779.29 219.401 1778.13 221.114 Q1777 222.827 1777 225.883 Q1777 228.892 1778.13 230.628 Q1779.29 232.341 1781.3 232.341 Q1783.27 232.341 1784.41 230.628 Q1785.56 228.892 1785.56 225.883 Q1785.56 222.85 1784.41 221.137 Q1783.27 219.401 1781.3 219.401 M1781.3 216.462 Q1784.96 216.462 1787.11 219.008 Q1789.27 221.554 1789.27 225.883 Q1789.27 230.211 1787.09 232.758 Q1784.94 235.281 1781.3 235.281 Q1777.6 235.281 1775.45 232.758 Q1773.29 230.211 1773.29 225.883 Q1773.29 221.531 1775.45 219.008 Q1777.62 216.462 1781.3 216.462 M1757.42 202.364 Q1755.42 202.364 1754.27 204.1 Q1753.13 205.813 1753.13 208.823 Q1753.13 211.878 1754.27 213.591 Q1755.4 215.304 1757.42 215.304 Q1759.43 215.304 1760.56 213.591 Q1761.72 211.878 1761.72 208.823 Q1761.72 205.837 1760.56 204.1 Q1759.41 202.364 1757.42 202.364 M1778.32 199.425 L1782.02 199.425 L1760.4 235.281 L1756.7 235.281 L1778.32 199.425 M1757.42 199.425 Q1761.07 199.425 1763.25 201.971 Q1765.42 204.494 1765.42 208.823 Q1765.42 213.198 1763.25 215.721 Q1761.1 218.244 1757.42 218.244 Q1753.73 218.244 1751.58 215.721 Q1749.45 213.174 1749.45 208.823 Q1749.45 204.517 1751.6 201.971 Q1753.76 199.425 1757.42 199.425 Z" fill="#000000" fill-rule="evenodd" fill-opacity="1" /><path clip-path="url(#clip670)" d="M 0 0 M1830.35 218.961 L1830.35 234.61 L1826.1 234.61 L1826.1 219.1 Q1826.1 215.42 1824.66 213.591 Q1823.22 211.762 1820.35 211.762 Q1816.91 211.762 1814.91 213.962 Q1812.92 216.161 1812.92 219.957 L1812.92 234.61 L1808.64 234.61 L1808.64 208.684 L1812.92 208.684 L1812.92 212.712 Q1814.45 210.374 1816.51 209.216 Q1818.6 208.059 1821.3 208.059 Q1825.77 208.059 1828.06 210.837 Q1830.35 213.591 1830.35 218.961 Z" fill="#000000" fill-rule="evenodd" fill-opacity="1" /><path clip-path="url(#clip670)" d="M 0 0 M1844.87 211.67 Q1841.44 211.67 1839.45 214.355 Q1837.46 217.017 1837.46 221.67 Q1837.46 226.323 1839.43 229.008 Q1841.42 231.67 1844.87 231.67 Q1848.27 231.67 1850.26 228.985 Q1852.25 226.299 1852.25 221.67 Q1852.25 217.063 1850.26 214.378 Q1848.27 211.67 1844.87 211.67 M1844.87 208.059 Q1850.42 208.059 1853.6 211.67 Q1856.77 215.281 1856.77 221.67 Q1856.77 228.036 1853.6 231.67 Q1850.42 235.281 1844.87 235.281 Q1839.29 235.281 1836.12 231.67 Q1832.97 228.036 1832.97 221.67 Q1832.97 215.281 1836.12 211.67 Q1839.29 208.059 1844.87 208.059 Z" fill="#000000" fill-rule="evenodd" fill-opacity="1" /><path clip-path="url(#clip670)" d="M 0 0 M1882.78 218.961 L1882.78 234.61 L1878.53 234.61 L1878.53 219.1 Q1878.53 215.42 1877.09 213.591 Q1875.66 211.762 1872.78 211.762 Q1869.34 211.762 1867.35 213.962 Q1865.35 216.161 1865.35 219.957 L1865.35 234.61 L1861.07 234.61 L1861.07 208.684 L1865.35 208.684 L1865.35 212.712 Q1866.88 210.374 1868.94 209.216 Q1871.03 208.059 1873.73 208.059 Q1878.2 208.059 1880.49 210.837 Q1882.78 213.591 1882.78 218.961 Z" fill="#000000" fill-rule="evenodd" fill-opacity="1" /><path clip-path="url(#clip670)" d="M 0 0 M1885.1 219.725 L1897.58 219.725 L1897.58 223.522 L1885.1 223.522 L1885.1 219.725 Z" fill="#000000" fill-rule="evenodd" fill-opacity="1" /><path clip-path="url(#clip670)" d="M 0 0 M1917.07 212.665 Q1916.35 212.249 1915.49 212.063 Q1914.66 211.855 1913.64 211.855 Q1910.03 211.855 1908.09 214.216 Q1906.16 216.554 1906.16 220.952 L1906.16 234.61 L1901.88 234.61 L1901.88 208.684 L1906.16 208.684 L1906.16 212.712 Q1907.51 210.35 1909.66 209.216 Q1911.81 208.059 1914.89 208.059 Q1915.33 208.059 1915.86 208.128 Q1916.4 208.175 1917.04 208.29 L1917.07 212.665 Z" fill="#000000" fill-rule="evenodd" fill-opacity="1" /><path clip-path="url(#clip670)" d="M 0 0 M1942.67 220.582 L1942.67 222.665 L1923.09 222.665 Q1923.36 227.063 1925.72 229.378 Q1928.11 231.67 1932.34 231.67 Q1934.8 231.67 1937.09 231.068 Q1939.4 230.466 1941.67 229.262 L1941.67 233.29 Q1939.38 234.262 1936.97 234.772 Q1934.57 235.281 1932.09 235.281 Q1925.89 235.281 1922.25 231.67 Q1918.64 228.059 1918.64 221.901 Q1918.64 215.536 1922.07 211.809 Q1925.52 208.059 1931.35 208.059 Q1936.58 208.059 1939.61 211.438 Q1942.67 214.795 1942.67 220.582 M1938.41 219.332 Q1938.36 215.837 1936.44 213.753 Q1934.54 211.67 1931.4 211.67 Q1927.83 211.67 1925.68 213.684 Q1923.55 215.698 1923.22 219.355 L1938.41 219.332 Z" fill="#000000" fill-rule="evenodd" fill-opacity="1" /><path clip-path="url(#clip670)" d="M 0 0 M1947.14 208.684 L1951.4 208.684 L1951.4 235.073 Q1951.4 240.026 1949.5 242.248 Q1947.62 244.471 1943.43 244.471 L1941.81 244.471 L1941.81 240.86 L1942.95 240.86 Q1945.38 240.86 1946.26 239.725 Q1947.14 238.614 1947.14 235.073 L1947.14 208.684 M1947.14 198.591 L1951.4 198.591 L1951.4 203.985 L1947.14 203.985 L1947.14 198.591 Z" fill="#000000" fill-rule="evenodd" fill-opacity="1" /><path clip-path="url(#clip670)" d="M 0 0 M1978.04 220.582 L1978.04 222.665 L1958.46 222.665 Q1958.73 227.063 1961.09 229.378 Q1963.48 231.67 1967.71 231.67 Q1970.17 231.67 1972.46 231.068 Q1974.78 230.466 1977.04 229.262 L1977.04 233.29 Q1974.75 234.262 1972.34 234.772 Q1969.94 235.281 1967.46 235.281 Q1961.26 235.281 1957.62 231.67 Q1954.01 228.059 1954.01 221.901 Q1954.01 215.536 1957.44 211.809 Q1960.89 208.059 1966.72 208.059 Q1971.95 208.059 1974.98 211.438 Q1978.04 214.795 1978.04 220.582 M1973.78 219.332 Q1973.73 215.837 1971.81 213.753 Q1969.91 211.67 1966.77 211.67 Q1963.2 211.67 1961.05 213.684 Q1958.92 215.698 1958.59 219.355 L1973.78 219.332 Z" fill="#000000" fill-rule="evenodd" fill-opacity="1" /><path clip-path="url(#clip670)" d="M 0 0 M2001.16 209.679 L2001.16 213.661 Q1999.36 212.665 1997.53 212.179 Q1995.72 211.67 1993.87 211.67 Q1989.73 211.67 1987.44 214.309 Q1985.15 216.924 1985.15 221.67 Q1985.15 226.415 1987.44 229.054 Q1989.73 231.67 1993.87 231.67 Q1995.72 231.67 1997.53 231.184 Q1999.36 230.674 2001.16 229.679 L2001.16 233.614 Q1999.38 234.448 1997.46 234.864 Q1995.56 235.281 1993.41 235.281 Q1987.55 235.281 1984.1 231.6 Q1980.65 227.92 1980.65 221.67 Q1980.65 215.327 1984.13 211.693 Q1987.62 208.059 1993.69 208.059 Q1995.65 208.059 1997.53 208.475 Q1999.4 208.869 2001.16 209.679 Z" fill="#000000" fill-rule="evenodd" fill-opacity="1" /><path clip-path="url(#clip670)" d="M 0 0 M2009.84 201.323 L2009.84 208.684 L2018.62 208.684 L2018.62 211.994 L2009.84 211.994 L2009.84 226.068 Q2009.84 229.239 2010.7 230.142 Q2011.58 231.045 2014.24 231.045 L2018.62 231.045 L2018.62 234.61 L2014.24 234.61 Q2009.31 234.61 2007.44 232.781 Q2005.56 230.929 2005.56 226.068 L2005.56 211.994 L2002.44 211.994 L2002.44 208.684 L2005.56 208.684 L2005.56 201.323 L2009.84 201.323 Z" fill="#000000" fill-rule="evenodd" fill-opacity="1" /><path clip-path="url(#clip670)" d="M 0 0 M2023.08 208.684 L2027.34 208.684 L2027.34 234.61 L2023.08 234.61 L2023.08 208.684 M2023.08 198.591 L2027.34 198.591 L2027.34 203.985 L2023.08 203.985 L2023.08 198.591 Z" fill="#000000" fill-rule="evenodd" fill-opacity="1" /><path clip-path="url(#clip670)" d="M 0 0 M2041.86 211.67 Q2038.43 211.67 2036.44 214.355 Q2034.45 217.017 2034.45 221.67 Q2034.45 226.323 2036.42 229.008 Q2038.41 231.67 2041.86 231.67 Q2045.26 231.67 2047.25 228.985 Q2049.24 226.299 2049.24 221.67 Q2049.24 217.063 2047.25 214.378 Q2045.26 211.67 2041.86 211.67 M2041.86 208.059 Q2047.41 208.059 2050.58 211.67 Q2053.76 215.281 2053.76 221.67 Q2053.76 228.036 2050.58 231.67 Q2047.41 235.281 2041.86 235.281 Q2036.28 235.281 2033.11 231.67 Q2029.96 228.036 2029.96 221.67 Q2029.96 215.281 2033.11 211.67 Q2036.28 208.059 2041.86 208.059 Z" fill="#000000" fill-rule="evenodd" fill-opacity="1" /><path clip-path="url(#clip670)" d="M 0 0 M2079.77 218.961 L2079.77 234.61 L2075.52 234.61 L2075.52 219.1 Q2075.52 215.42 2074.08 213.591 Q2072.64 211.762 2069.77 211.762 Q2066.33 211.762 2064.33 213.962 Q2062.34 216.161 2062.34 219.957 L2062.34 234.61 L2058.06 234.61 L2058.06 208.684 L2062.34 208.684 L2062.34 212.712 Q2063.87 210.374 2065.93 209.216 Q2068.02 208.059 2070.72 208.059 Q2075.19 208.059 2077.48 210.837 Q2079.77 213.591 2079.77 218.961 Z" fill="#000000" fill-rule="evenodd" fill-opacity="1" /><path clip-path="url(#clip670)" d="M 0 0 M2114.33 212.665 Q2113.62 212.249 2112.76 212.063 Q2111.93 211.855 2110.91 211.855 Q2107.3 211.855 2105.35 214.216 Q2103.43 216.554 2103.43 220.952 L2103.43 234.61 L2099.15 234.61 L2099.15 208.684 L2103.43 208.684 L2103.43 212.712 Q2104.77 210.35 2106.93 209.216 Q2109.08 208.059 2112.16 208.059 Q2112.6 208.059 2113.13 208.128 Q2113.66 208.175 2114.31 208.29 L2114.33 212.665 Z" fill="#000000" fill-rule="evenodd" fill-opacity="1" /><path clip-path="url(#clip670)" d="M 0 0 M2139.94 220.582 L2139.94 222.665 L2120.35 222.665 Q2120.63 227.063 2122.99 229.378 Q2125.38 231.67 2129.61 231.67 Q2132.07 231.67 2134.36 231.068 Q2136.67 230.466 2138.94 229.262 L2138.94 233.29 Q2136.65 234.262 2134.24 234.772 Q2131.83 235.281 2129.36 235.281 Q2123.15 235.281 2119.52 231.67 Q2115.91 228.059 2115.91 221.901 Q2115.91 215.536 2119.33 211.809 Q2122.78 208.059 2128.62 208.059 Q2133.85 208.059 2136.88 211.438 Q2139.94 214.795 2139.94 220.582 M2135.68 219.332 Q2135.63 215.837 2133.71 213.753 Q2131.81 211.67 2128.66 211.67 Q2125.1 211.67 2122.95 213.684 Q2120.82 215.698 2120.49 219.355 L2135.68 219.332 Z" fill="#000000" fill-rule="evenodd" fill-opacity="1" /><path clip-path="url(#clip670)" d="M 0 0 M2161.46 221.346 Q2161.46 216.716 2159.54 214.17 Q2157.64 211.624 2154.2 211.624 Q2150.77 211.624 2148.85 214.17 Q2146.95 216.716 2146.95 221.346 Q2146.95 225.952 2148.85 228.498 Q2150.77 231.045 2154.2 231.045 Q2157.64 231.045 2159.54 228.498 Q2161.46 225.952 2161.46 221.346 M2165.72 231.392 Q2165.72 238.012 2162.78 241.23 Q2159.84 244.471 2153.78 244.471 Q2151.53 244.471 2149.54 244.123 Q2147.55 243.799 2145.68 243.105 L2145.68 238.961 Q2147.55 239.98 2149.38 240.466 Q2151.21 240.952 2153.11 240.952 Q2157.3 240.952 2159.38 238.753 Q2161.46 236.577 2161.46 232.156 L2161.46 230.049 Q2160.14 232.341 2158.08 233.475 Q2156.02 234.61 2153.15 234.61 Q2148.39 234.61 2145.47 230.975 Q2142.55 227.341 2142.55 221.346 Q2142.55 215.327 2145.47 211.693 Q2148.39 208.059 2153.15 208.059 Q2156.02 208.059 2158.08 209.193 Q2160.14 210.327 2161.46 212.619 L2161.46 208.684 L2165.72 208.684 L2165.72 231.392 Z" fill="#000000" fill-rule="evenodd" fill-opacity="1" /><path clip-path="url(#clip670)" d="M 0 0 M2170.19 208.684 L2174.45 208.684 L2174.45 234.61 L2170.19 234.61 L2170.19 208.684 M2170.19 198.591 L2174.45 198.591 L2174.45 203.985 L2170.19 203.985 L2170.19 198.591 Z" fill="#000000" fill-rule="evenodd" fill-opacity="1" /><path clip-path="url(#clip670)" d="M 0 0 M2188.96 211.67 Q2185.54 211.67 2183.55 214.355 Q2181.56 217.017 2181.56 221.67 Q2181.56 226.323 2183.52 229.008 Q2185.51 231.67 2188.96 231.67 Q2192.37 231.67 2194.36 228.985 Q2196.35 226.299 2196.35 221.67 Q2196.35 217.063 2194.36 214.378 Q2192.37 211.67 2188.96 211.67 M2188.96 208.059 Q2194.52 208.059 2197.69 211.67 Q2200.86 215.281 2200.86 221.67 Q2200.86 228.036 2197.69 231.67 Q2194.52 235.281 2188.96 235.281 Q2183.39 235.281 2180.21 231.67 Q2177.07 228.036 2177.07 221.67 Q2177.07 215.281 2180.21 211.67 Q2183.39 208.059 2188.96 208.059 Z" fill="#000000" fill-rule="evenodd" fill-opacity="1" /><path clip-path="url(#clip670)" d="M 0 0 M2226.88 218.961 L2226.88 234.61 L2222.62 234.61 L2222.62 219.1 Q2222.62 215.42 2221.19 213.591 Q2219.75 211.762 2216.88 211.762 Q2213.43 211.762 2211.44 213.962 Q2209.45 216.161 2209.45 219.957 L2209.45 234.61 L2205.17 234.61 L2205.17 208.684 L2209.45 208.684 L2209.45 212.712 Q2210.98 210.374 2213.04 209.216 Q2215.12 208.059 2217.83 208.059 Q2222.3 208.059 2224.59 210.837 Q2226.88 213.591 2226.88 218.961 Z" fill="#000000" fill-rule="evenodd" fill-opacity="1" /><path clip-path="url(#clip670)" d="
M1519.75 302.002 L1670.81 302.002 L1670.81 253.618 L1519.75 253.618 L1519.75 302.002  Z
  " fill="#ffa500" fill-rule="evenodd" fill-opacity="0.5"/>
<polyline clip-path="url(#clip670)" style="stroke:#ffa500; stroke-width:4; stroke-opacity:1; fill:none" points="
  1519.75,253.618 1670.81,253.618 
  "/>
<path clip-path="url(#clip670)" d="M 0 0 M1700.38 282.15 Q1700.38 286.849 1702.3 289.534 Q1704.24 292.196 1707.62 292.196 Q1711 292.196 1712.95 289.534 Q1714.89 286.849 1714.89 282.15 Q1714.89 277.451 1712.95 274.789 Q1711 272.104 1707.62 272.104 Q1704.24 272.104 1702.3 274.789 Q1700.38 277.451 1700.38 282.15 M1714.89 291.201 Q1713.55 293.515 1711.49 294.65 Q1709.45 295.761 1706.58 295.761 Q1701.88 295.761 1698.92 292.011 Q1695.98 288.261 1695.98 282.15 Q1695.98 276.039 1698.92 272.289 Q1701.88 268.539 1706.58 268.539 Q1709.45 268.539 1711.49 269.673 Q1713.55 270.784 1714.89 273.099 L1714.89 269.164 L1719.15 269.164 L1719.15 304.951 L1714.89 304.951 L1714.89 291.201 Z" fill="#000000" fill-rule="evenodd" fill-opacity="1" /><path clip-path="url(#clip670)" d="M 0 0 M1724.36 294.372 L1724.36 290.113 Q1726.12 290.946 1727.92 291.386 Q1729.73 291.826 1731.47 291.826 Q1736.1 291.826 1738.53 288.724 Q1740.98 285.599 1741.33 279.256 Q1739.98 281.247 1737.92 282.312 Q1735.86 283.377 1733.36 283.377 Q1728.18 283.377 1725.15 280.252 Q1722.14 277.104 1722.14 271.664 Q1722.14 266.34 1725.29 263.122 Q1728.43 259.905 1733.67 259.905 Q1739.66 259.905 1742.81 264.511 Q1745.98 269.094 1745.98 277.844 Q1745.98 286.016 1742.09 290.9 Q1738.23 295.761 1731.67 295.761 Q1729.92 295.761 1728.11 295.414 Q1726.3 295.066 1724.36 294.372 M1733.67 279.719 Q1736.81 279.719 1738.64 277.566 Q1740.49 275.414 1740.49 271.664 Q1740.49 267.937 1738.64 265.784 Q1736.81 263.608 1733.67 263.608 Q1730.52 263.608 1728.67 265.784 Q1726.84 267.937 1726.84 271.664 Q1726.84 275.414 1728.67 277.566 Q1730.52 279.719 1733.67 279.719 Z" fill="#000000" fill-rule="evenodd" fill-opacity="1" /><path clip-path="url(#clip670)" d="M 0 0 M1751.1 260.53 L1769.45 260.53 L1769.45 264.465 L1755.38 264.465 L1755.38 272.937 Q1756.4 272.59 1757.42 272.428 Q1758.43 272.242 1759.45 272.242 Q1765.24 272.242 1768.62 275.414 Q1772 278.585 1772 284.002 Q1772 289.58 1768.53 292.682 Q1765.05 295.761 1758.73 295.761 Q1756.56 295.761 1754.29 295.39 Q1752.04 295.02 1749.64 294.279 L1749.64 289.58 Q1751.72 290.715 1753.94 291.27 Q1756.17 291.826 1758.64 291.826 Q1762.65 291.826 1764.98 289.719 Q1767.32 287.613 1767.32 284.002 Q1767.32 280.391 1764.98 278.284 Q1762.65 276.178 1758.64 276.178 Q1756.77 276.178 1754.89 276.594 Q1753.04 277.011 1751.1 277.891 L1751.1 260.53 Z" fill="#000000" fill-rule="evenodd" fill-opacity="1" /><polyline clip-path="url(#clip670)" style="stroke:#0000ff; stroke-width:4; stroke-opacity:1; fill:none" points="
  1519.75,338.29 1670.81,338.29 
  "/>
<path clip-path="url(#clip670)" d="M 0 0 M1716.33 334.621 Q1717.92 331.75 1720.15 330.385 Q1722.37 329.019 1725.38 329.019 Q1729.43 329.019 1731.63 331.866 Q1733.83 334.69 1733.83 339.921 L1733.83 355.57 L1729.54 355.57 L1729.54 340.06 Q1729.54 336.334 1728.23 334.528 Q1726.91 332.722 1724.2 332.722 Q1720.89 332.722 1718.97 334.922 Q1717.04 337.121 1717.04 340.917 L1717.04 355.57 L1712.76 355.57 L1712.76 340.06 Q1712.76 336.31 1711.44 334.528 Q1710.12 332.722 1707.37 332.722 Q1704.11 332.722 1702.18 334.945 Q1700.26 337.144 1700.26 340.917 L1700.26 355.57 L1695.98 355.57 L1695.98 329.644 L1700.26 329.644 L1700.26 333.672 Q1701.72 331.287 1703.76 330.153 Q1705.79 329.019 1708.6 329.019 Q1711.42 329.019 1713.39 330.454 Q1715.38 331.889 1716.33 334.621 Z" fill="#000000" fill-rule="evenodd" fill-opacity="1" /><path clip-path="url(#clip670)" d="M 0 0 M1760.47 341.542 L1760.47 343.625 L1740.89 343.625 Q1741.17 348.023 1743.53 350.338 Q1745.91 352.63 1750.15 352.63 Q1752.6 352.63 1754.89 352.028 Q1757.21 351.426 1759.48 350.222 L1759.48 354.25 Q1757.18 355.222 1754.78 355.732 Q1752.37 356.241 1749.89 356.241 Q1743.69 356.241 1740.05 352.63 Q1736.44 349.019 1736.44 342.861 Q1736.44 336.496 1739.87 332.769 Q1743.32 329.019 1749.15 329.019 Q1754.38 329.019 1757.42 332.398 Q1760.47 335.755 1760.47 341.542 M1756.21 340.292 Q1756.17 336.797 1754.24 334.713 Q1752.35 332.63 1749.2 332.63 Q1745.63 332.63 1743.48 334.644 Q1741.35 336.658 1741.03 340.315 L1756.21 340.292 Z" fill="#000000" fill-rule="evenodd" fill-opacity="1" /><path clip-path="url(#clip670)" d="M 0 0 M1776.72 342.537 Q1771.56 342.537 1769.57 343.718 Q1767.58 344.898 1767.58 347.746 Q1767.58 350.014 1769.06 351.357 Q1770.56 352.676 1773.13 352.676 Q1776.67 352.676 1778.8 350.176 Q1780.96 347.653 1780.96 343.486 L1780.96 342.537 L1776.72 342.537 M1785.22 340.778 L1785.22 355.57 L1780.96 355.57 L1780.96 351.634 Q1779.5 353.995 1777.32 355.13 Q1775.15 356.241 1772 356.241 Q1768.02 356.241 1765.66 354.019 Q1763.32 351.773 1763.32 348.023 Q1763.32 343.648 1766.23 341.426 Q1769.17 339.204 1774.98 339.204 L1780.96 339.204 L1780.96 338.787 Q1780.96 335.847 1779.01 334.25 Q1777.09 332.63 1773.6 332.63 Q1771.37 332.63 1769.27 333.162 Q1767.16 333.695 1765.22 334.759 L1765.22 330.824 Q1767.55 329.922 1769.75 329.482 Q1771.95 329.019 1774.04 329.019 Q1779.66 329.019 1782.44 331.935 Q1785.22 334.852 1785.22 340.778 Z" fill="#000000" fill-rule="evenodd" fill-opacity="1" /><path clip-path="url(#clip670)" d="M 0 0 M1811.23 339.921 L1811.23 355.57 L1806.97 355.57 L1806.97 340.06 Q1806.97 336.38 1805.54 334.551 Q1804.1 332.722 1801.23 332.722 Q1797.79 332.722 1795.79 334.922 Q1793.8 337.121 1793.8 340.917 L1793.8 355.57 L1789.52 355.57 L1789.52 329.644 L1793.8 329.644 L1793.8 333.672 Q1795.33 331.334 1797.39 330.176 Q1799.48 329.019 1802.18 329.019 Q1806.65 329.019 1808.94 331.797 Q1811.23 334.551 1811.23 339.921 Z" fill="#000000" fill-rule="evenodd" fill-opacity="1" /><polyline clip-path="url(#clip670)" style="stroke:#000000; stroke-width:4; stroke-opacity:1; fill:none" points="
  1519.75,398.77 1670.81,398.77 
  "/>
<path clip-path="url(#clip670)" d="M 0 0 M1716.33 395.101 Q1717.92 392.23 1720.15 390.865 Q1722.37 389.499 1725.38 389.499 Q1729.43 389.499 1731.63 392.346 Q1733.83 395.17 1733.83 400.401 L1733.83 416.05 L1729.54 416.05 L1729.54 400.54 Q1729.54 396.814 1728.23 395.008 Q1726.91 393.202 1724.2 393.202 Q1720.89 393.202 1718.97 395.402 Q1717.04 397.601 1717.04 401.397 L1717.04 416.05 L1712.76 416.05 L1712.76 400.54 Q1712.76 396.79 1711.44 395.008 Q1710.12 393.202 1707.37 393.202 Q1704.11 393.202 1702.18 395.425 Q1700.26 397.624 1700.26 401.397 L1700.26 416.05 L1695.98 416.05 L1695.98 390.124 L1700.26 390.124 L1700.26 394.152 Q1701.72 391.767 1703.76 390.633 Q1705.79 389.499 1708.6 389.499 Q1711.42 389.499 1713.39 390.934 Q1715.38 392.369 1716.33 395.101 Z" fill="#000000" fill-rule="evenodd" fill-opacity="1" /><path clip-path="url(#clip670)" d="M 0 0 M1760.47 402.022 L1760.47 404.105 L1740.89 404.105 Q1741.17 408.503 1743.53 410.818 Q1745.91 413.11 1750.15 413.11 Q1752.6 413.11 1754.89 412.508 Q1757.21 411.906 1759.48 410.702 L1759.48 414.73 Q1757.18 415.702 1754.78 416.212 Q1752.37 416.721 1749.89 416.721 Q1743.69 416.721 1740.05 413.11 Q1736.44 409.499 1736.44 403.341 Q1736.44 396.976 1739.87 393.249 Q1743.32 389.499 1749.15 389.499 Q1754.38 389.499 1757.42 392.878 Q1760.47 396.235 1760.47 402.022 M1756.21 400.772 Q1756.17 397.277 1754.24 395.193 Q1752.35 393.11 1749.2 393.11 Q1745.63 393.11 1743.48 395.124 Q1741.35 397.138 1741.03 400.795 L1756.21 400.772 Z" fill="#000000" fill-rule="evenodd" fill-opacity="1" /><path clip-path="url(#clip670)" d="M 0 0 M1782 394.059 L1782 380.031 L1786.26 380.031 L1786.26 416.05 L1782 416.05 L1782 412.161 Q1780.66 414.475 1778.6 415.61 Q1776.56 416.721 1773.69 416.721 Q1768.99 416.721 1766.03 412.971 Q1763.09 409.221 1763.09 403.11 Q1763.09 396.999 1766.03 393.249 Q1768.99 389.499 1773.69 389.499 Q1776.56 389.499 1778.6 390.633 Q1780.66 391.744 1782 394.059 M1767.48 403.11 Q1767.48 407.809 1769.41 410.494 Q1771.35 413.156 1774.73 413.156 Q1778.11 413.156 1780.05 410.494 Q1782 407.809 1782 403.11 Q1782 398.411 1780.05 395.749 Q1778.11 393.064 1774.73 393.064 Q1771.35 393.064 1769.41 395.749 Q1767.48 398.411 1767.48 403.11 Z" fill="#000000" fill-rule="evenodd" fill-opacity="1" /><path clip-path="url(#clip670)" d="M 0 0 M1790.73 390.124 L1794.98 390.124 L1794.98 416.05 L1790.73 416.05 L1790.73 390.124 M1790.73 380.031 L1794.98 380.031 L1794.98 385.425 L1790.73 385.425 L1790.73 380.031 Z" fill="#000000" fill-rule="evenodd" fill-opacity="1" /><path clip-path="url(#clip670)" d="M 0 0 M1811.23 403.017 Q1806.07 403.017 1804.08 404.198 Q1802.09 405.378 1802.09 408.226 Q1802.09 410.494 1803.57 411.837 Q1805.08 413.156 1807.65 413.156 Q1811.19 413.156 1813.32 410.656 Q1815.47 408.133 1815.47 403.966 L1815.47 403.017 L1811.23 403.017 M1819.73 401.258 L1819.73 416.05 L1815.47 416.05 L1815.47 412.114 Q1814.01 414.475 1811.84 415.61 Q1809.66 416.721 1806.51 416.721 Q1802.53 416.721 1800.17 414.499 Q1797.83 412.253 1797.83 408.503 Q1797.83 404.128 1800.75 401.906 Q1803.69 399.684 1809.5 399.684 L1815.47 399.684 L1815.47 399.267 Q1815.47 396.327 1813.53 394.73 Q1811.6 393.11 1808.11 393.11 Q1805.89 393.11 1803.78 393.642 Q1801.67 394.175 1799.73 395.239 L1799.73 391.304 Q1802.07 390.402 1804.27 389.962 Q1806.47 389.499 1808.55 389.499 Q1814.17 389.499 1816.95 392.415 Q1819.73 395.332 1819.73 401.258 Z" fill="#000000" fill-rule="evenodd" fill-opacity="1" /><path clip-path="url(#clip670)" d="M 0 0 M1845.75 400.401 L1845.75 416.05 L1841.49 416.05 L1841.49 400.54 Q1841.49 396.86 1840.05 395.031 Q1838.62 393.202 1835.75 393.202 Q1832.3 393.202 1830.31 395.402 Q1828.32 397.601 1828.32 401.397 L1828.32 416.05 L1824.04 416.05 L1824.04 390.124 L1828.32 390.124 L1828.32 394.152 Q1829.85 391.814 1831.91 390.656 Q1833.99 389.499 1836.7 389.499 Q1841.16 389.499 1843.46 392.277 Q1845.75 395.031 1845.75 400.401 Z" fill="#000000" fill-rule="evenodd" fill-opacity="1" /></svg>
