<?xml version="1.0" encoding="utf-8"?>
<svg xmlns="http://www.w3.org/2000/svg" xmlns:xlink="http://www.w3.org/1999/xlink" width="600" height="400" viewBox="0 0 2400 1600">
<defs>
  <clipPath id="clip760">
    <rect x="0" y="0" width="2400" height="1600"/>
  </clipPath>
</defs>
<path clip-path="url(#clip760)" d="
M0 1600 L2400 1600 L2400 0 L0 0  Z
  " fill="#ffffff" fill-rule="evenodd" fill-opacity="1"/>
<defs>
  <clipPath id="clip761">
    <rect x="480" y="0" width="1681" height="1600"/>
  </clipPath>
</defs>
<path clip-path="url(#clip760)" d="
M86.9921 1521.01 L2352.76 1521.01 L2352.76 47.2441 L86.9921 47.2441  Z
  " fill="#ffffff" fill-rule="evenodd" fill-opacity="1"/>
<defs>
  <clipPath id="clip762">
    <rect x="86" y="47" width="2267" height="1475"/>
  </clipPath>
</defs>
<polyline clip-path="url(#clip762)" style="stroke:#000000; stroke-width:2; stroke-opacity:0.1; fill:none" points="
  539.799,1521.01 539.799,47.2441 
  "/>
<polyline clip-path="url(#clip762)" style="stroke:#000000; stroke-width:2; stroke-opacity:0.1; fill:none" points="
  1014.59,1521.01 1014.59,47.2441 
  "/>
<polyline clip-path="url(#clip762)" style="stroke:#000000; stroke-width:2; stroke-opacity:0.1; fill:none" points="
  1489.38,1521.01 1489.38,47.2441 
  "/>
<polyline clip-path="url(#clip762)" style="stroke:#000000; stroke-width:2; stroke-opacity:0.1; fill:none" points="
  1964.17,1521.01 1964.17,47.2441 
  "/>
<polyline clip-path="url(#clip762)" style="stroke:#000000; stroke-width:2; stroke-opacity:0.1; fill:none" points="
  86.9921,1479.3 2352.76,1479.3 
  "/>
<polyline clip-path="url(#clip762)" style="stroke:#000000; stroke-width:2; stroke-opacity:0.1; fill:none" points="
  86.9921,1066.37 2352.76,1066.37 
  "/>
<polyline clip-path="url(#clip762)" style="stroke:#000000; stroke-width:2; stroke-opacity:0.1; fill:none" points="
  86.9921,653.44 2352.76,653.44 
  "/>
<polyline clip-path="url(#clip762)" style="stroke:#000000; stroke-width:2; stroke-opacity:0.1; fill:none" points="
  86.9921,240.511 2352.76,240.511 
  "/>
<polyline clip-path="url(#clip760)" style="stroke:#000000; stroke-width:4; stroke-opacity:1; fill:none" points="
  86.9921,1521.01 2352.76,1521.01 
  "/>
<polyline clip-path="url(#clip760)" style="stroke:#000000; stroke-width:4; stroke-opacity:1; fill:none" points="
  86.9921,1521.01 86.9921,47.2441 
  "/>
<polyline clip-path="url(#clip760)" style="stroke:#000000; stroke-width:4; stroke-opacity:1; fill:none" points="
  539.799,1521.01 539.799,1503.32 
  "/>
<polyline clip-path="url(#clip760)" style="stroke:#000000; stroke-width:4; stroke-opacity:1; fill:none" points="
  1014.59,1521.01 1014.59,1503.32 
  "/>
<polyline clip-path="url(#clip760)" style="stroke:#000000; stroke-width:4; stroke-opacity:1; fill:none" points="
  1489.38,1521.01 1489.38,1503.32 
  "/>
<polyline clip-path="url(#clip760)" style="stroke:#000000; stroke-width:4; stroke-opacity:1; fill:none" points="
  1964.17,1521.01 1964.17,1503.32 
  "/>
<polyline clip-path="url(#clip760)" style="stroke:#000000; stroke-width:4; stroke-opacity:1; fill:none" points="
  86.9921,1479.3 114.181,1479.3 
  "/>
<polyline clip-path="url(#clip760)" style="stroke:#000000; stroke-width:4; stroke-opacity:1; fill:none" points="
  86.9921,1066.37 114.181,1066.37 
  "/>
<polyline clip-path="url(#clip760)" style="stroke:#000000; stroke-width:4; stroke-opacity:1; fill:none" points="
  86.9921,653.44 114.181,653.44 
  "/>
<polyline clip-path="url(#clip760)" style="stroke:#000000; stroke-width:4; stroke-opacity:1; fill:none" points="
  86.9921,240.511 114.181,240.511 
  "/>
<path clip-path="url(#clip760)" d="M 0 0 M507.728 1543 Q504.117 1543 502.288 1546.56 Q500.483 1550.11 500.483 1557.23 Q500.483 1564.34 502.288 1567.91 Q504.117 1571.45 507.728 1571.45 Q511.362 1571.45 513.168 1567.91 Q514.996 1564.34 514.996 1557.23 Q514.996 1550.11 513.168 1546.56 Q511.362 1543 507.728 1543 M507.728 1539.29 Q513.538 1539.29 516.594 1543.9 Q519.672 1548.48 519.672 1557.23 Q519.672 1565.96 516.594 1570.57 Q513.538 1575.15 507.728 1575.15 Q501.918 1575.15 498.839 1570.57 Q495.783 1565.96 495.783 1557.23 Q495.783 1548.48 498.839 1543.9 Q501.918 1539.29 507.728 1539.29 Z" fill="#000000" fill-rule="evenodd" fill-opacity="1" /><path clip-path="url(#clip760)" d="M 0 0 M524.742 1568.6 L529.626 1568.6 L529.626 1574.48 L524.742 1574.48 L524.742 1568.6 Z" fill="#000000" fill-rule="evenodd" fill-opacity="1" /><path clip-path="url(#clip760)" d="M 0 0 M545.274 1555.34 Q542.126 1555.34 540.274 1557.49 Q538.445 1559.64 538.445 1563.39 Q538.445 1567.12 540.274 1569.29 Q542.126 1571.45 545.274 1571.45 Q548.422 1571.45 550.251 1569.29 Q552.103 1567.12 552.103 1563.39 Q552.103 1559.64 550.251 1557.49 Q548.422 1555.34 545.274 1555.34 M554.556 1540.68 L554.556 1544.94 Q552.797 1544.11 550.991 1543.67 Q549.209 1543.23 547.45 1543.23 Q542.82 1543.23 540.367 1546.36 Q537.936 1549.48 537.589 1555.8 Q538.955 1553.79 541.015 1552.72 Q543.075 1551.63 545.552 1551.63 Q550.76 1551.63 553.769 1554.8 Q556.802 1557.95 556.802 1563.39 Q556.802 1568.72 553.654 1571.93 Q550.505 1575.15 545.274 1575.15 Q539.279 1575.15 536.107 1570.57 Q532.936 1565.96 532.936 1557.23 Q532.936 1549.04 536.825 1544.18 Q540.714 1539.29 547.265 1539.29 Q549.024 1539.29 550.806 1539.64 Q552.612 1539.99 554.556 1540.68 Z" fill="#000000" fill-rule="evenodd" fill-opacity="1" /><path clip-path="url(#clip760)" d="M 0 0 M571.871 1543 Q568.26 1543 566.431 1546.56 Q564.626 1550.11 564.626 1557.23 Q564.626 1564.34 566.431 1567.91 Q568.26 1571.45 571.871 1571.45 Q575.505 1571.45 577.311 1567.91 Q579.139 1564.34 579.139 1557.23 Q579.139 1550.11 577.311 1546.56 Q575.505 1543 571.871 1543 M571.871 1539.29 Q577.681 1539.29 580.737 1543.9 Q583.815 1548.48 583.815 1557.23 Q583.815 1565.96 580.737 1570.57 Q577.681 1575.15 571.871 1575.15 Q566.061 1575.15 562.982 1570.57 Q559.927 1565.96 559.927 1557.23 Q559.927 1548.48 562.982 1543.9 Q566.061 1539.29 571.871 1539.29 Z" fill="#000000" fill-rule="evenodd" fill-opacity="1" /><path clip-path="url(#clip760)" d="M 0 0 M982.843 1543 Q979.232 1543 977.403 1546.56 Q975.598 1550.11 975.598 1557.23 Q975.598 1564.34 977.403 1567.91 Q979.232 1571.45 982.843 1571.45 Q986.477 1571.45 988.283 1567.91 Q990.112 1564.34 990.112 1557.23 Q990.112 1550.11 988.283 1546.56 Q986.477 1543 982.843 1543 M982.843 1539.29 Q988.653 1539.29 991.709 1543.9 Q994.788 1548.48 994.788 1557.23 Q994.788 1565.96 991.709 1570.57 Q988.653 1575.15 982.843 1575.15 Q977.033 1575.15 973.954 1570.57 Q970.899 1565.96 970.899 1557.23 Q970.899 1548.48 973.954 1543.9 Q977.033 1539.29 982.843 1539.29 Z" fill="#000000" fill-rule="evenodd" fill-opacity="1" /><path clip-path="url(#clip760)" d="M 0 0 M999.857 1568.6 L1004.74 1568.6 L1004.74 1574.48 L999.857 1574.48 L999.857 1568.6 Z" fill="#000000" fill-rule="evenodd" fill-opacity="1" /><path clip-path="url(#clip760)" d="M 0 0 M1020.39 1555.34 Q1017.24 1555.34 1015.39 1557.49 Q1013.56 1559.64 1013.56 1563.39 Q1013.56 1567.12 1015.39 1569.29 Q1017.24 1571.45 1020.39 1571.45 Q1023.54 1571.45 1025.37 1569.29 Q1027.22 1567.12 1027.22 1563.39 Q1027.22 1559.64 1025.37 1557.49 Q1023.54 1555.34 1020.39 1555.34 M1029.67 1540.68 L1029.67 1544.94 Q1027.91 1544.11 1026.11 1543.67 Q1024.32 1543.23 1022.57 1543.23 Q1017.94 1543.23 1015.48 1546.36 Q1013.05 1549.48 1012.7 1555.8 Q1014.07 1553.79 1016.13 1552.72 Q1018.19 1551.63 1020.67 1551.63 Q1025.88 1551.63 1028.88 1554.8 Q1031.92 1557.95 1031.92 1563.39 Q1031.92 1568.72 1028.77 1571.93 Q1025.62 1575.15 1020.39 1575.15 Q1014.39 1575.15 1011.22 1570.57 Q1008.05 1565.96 1008.05 1557.23 Q1008.05 1549.04 1011.94 1544.18 Q1015.83 1539.29 1022.38 1539.29 Q1024.14 1539.29 1025.92 1539.64 Q1027.73 1539.99 1029.67 1540.68 Z" fill="#000000" fill-rule="evenodd" fill-opacity="1" /><path clip-path="url(#clip760)" d="M 0 0 M1051.15 1555.85 Q1054.51 1556.56 1056.38 1558.83 Q1058.28 1561.1 1058.28 1564.43 Q1058.28 1569.55 1054.76 1572.35 Q1051.25 1575.15 1044.76 1575.15 Q1042.59 1575.15 1040.27 1574.71 Q1037.98 1574.29 1035.53 1573.44 L1035.53 1568.92 Q1037.47 1570.06 1039.79 1570.64 Q1042.1 1571.22 1044.63 1571.22 Q1049.02 1571.22 1051.32 1569.48 Q1053.63 1567.74 1053.63 1564.43 Q1053.63 1561.38 1051.48 1559.67 Q1049.35 1557.93 1045.53 1557.93 L1041.5 1557.93 L1041.5 1554.09 L1045.71 1554.09 Q1049.16 1554.09 1050.99 1552.72 Q1052.82 1551.33 1052.82 1548.74 Q1052.82 1546.08 1050.92 1544.67 Q1049.05 1543.23 1045.53 1543.23 Q1043.61 1543.23 1041.41 1543.65 Q1039.21 1544.06 1036.57 1544.94 L1036.57 1540.78 Q1039.23 1540.04 1041.55 1539.67 Q1043.88 1539.29 1045.94 1539.29 Q1051.27 1539.29 1054.37 1541.73 Q1057.47 1544.13 1057.47 1548.25 Q1057.47 1551.12 1055.83 1553.11 Q1054.19 1555.08 1051.15 1555.85 Z" fill="#000000" fill-rule="evenodd" fill-opacity="1" /><path clip-path="url(#clip760)" d="M 0 0 M1457.23 1543 Q1453.62 1543 1451.79 1546.56 Q1449.98 1550.11 1449.98 1557.23 Q1449.98 1564.34 1451.79 1567.91 Q1453.62 1571.45 1457.23 1571.45 Q1460.86 1571.45 1462.67 1567.91 Q1464.5 1564.34 1464.5 1557.23 Q1464.5 1550.11 1462.67 1546.56 Q1460.86 1543 1457.23 1543 M1457.23 1539.29 Q1463.04 1539.29 1466.1 1543.9 Q1469.17 1548.48 1469.17 1557.23 Q1469.17 1565.96 1466.1 1570.57 Q1463.04 1575.15 1457.23 1575.15 Q1451.42 1575.15 1448.34 1570.57 Q1445.28 1565.96 1445.28 1557.23 Q1445.28 1548.48 1448.34 1543.9 Q1451.42 1539.29 1457.23 1539.29 Z" fill="#000000" fill-rule="evenodd" fill-opacity="1" /><path clip-path="url(#clip760)" d="M 0 0 M1474.24 1568.6 L1479.13 1568.6 L1479.13 1574.48 L1474.24 1574.48 L1474.24 1568.6 Z" fill="#000000" fill-rule="evenodd" fill-opacity="1" /><path clip-path="url(#clip760)" d="M 0 0 M1494.78 1555.34 Q1491.63 1555.34 1489.78 1557.49 Q1487.95 1559.64 1487.95 1563.39 Q1487.95 1567.12 1489.78 1569.29 Q1491.63 1571.45 1494.78 1571.45 Q1497.92 1571.45 1499.75 1569.29 Q1501.6 1567.12 1501.6 1563.39 Q1501.6 1559.64 1499.75 1557.49 Q1497.92 1555.34 1494.78 1555.34 M1504.06 1540.68 L1504.06 1544.94 Q1502.3 1544.11 1500.49 1543.67 Q1498.71 1543.23 1496.95 1543.23 Q1492.32 1543.23 1489.87 1546.36 Q1487.44 1549.48 1487.09 1555.8 Q1488.46 1553.79 1490.52 1552.72 Q1492.58 1551.63 1495.05 1551.63 Q1500.26 1551.63 1503.27 1554.8 Q1506.3 1557.95 1506.3 1563.39 Q1506.3 1568.72 1503.16 1571.93 Q1500.01 1575.15 1494.78 1575.15 Q1488.78 1575.15 1485.61 1570.57 Q1482.44 1565.96 1482.44 1557.23 Q1482.44 1549.04 1486.33 1544.18 Q1490.22 1539.29 1496.77 1539.29 Q1498.53 1539.29 1500.31 1539.64 Q1502.11 1539.99 1504.06 1540.68 Z" fill="#000000" fill-rule="evenodd" fill-opacity="1" /><path clip-path="url(#clip760)" d="M 0 0 M1521.95 1555.34 Q1518.8 1555.34 1516.95 1557.49 Q1515.12 1559.64 1515.12 1563.39 Q1515.12 1567.12 1516.95 1569.29 Q1518.8 1571.45 1521.95 1571.45 Q1525.1 1571.45 1526.93 1569.29 Q1528.78 1567.12 1528.78 1563.39 Q1528.78 1559.64 1526.93 1557.49 Q1525.1 1555.34 1521.95 1555.34 M1531.23 1540.68 L1531.23 1544.94 Q1529.47 1544.11 1527.67 1543.67 Q1525.89 1543.23 1524.13 1543.23 Q1519.5 1543.23 1517.04 1546.36 Q1514.61 1549.48 1514.27 1555.8 Q1515.63 1553.79 1517.69 1552.72 Q1519.75 1551.63 1522.23 1551.63 Q1527.44 1551.63 1530.45 1554.8 Q1533.48 1557.95 1533.48 1563.39 Q1533.48 1568.72 1530.33 1571.93 Q1527.18 1575.15 1521.95 1575.15 Q1515.96 1575.15 1512.78 1570.57 Q1509.61 1565.96 1509.61 1557.23 Q1509.61 1549.04 1513.5 1544.18 Q1517.39 1539.29 1523.94 1539.29 Q1525.7 1539.29 1527.48 1539.64 Q1529.29 1539.99 1531.23 1540.68 Z" fill="#000000" fill-rule="evenodd" fill-opacity="1" /><path clip-path="url(#clip760)" d="M 0 0 M1932.19 1543 Q1928.58 1543 1926.75 1546.56 Q1924.95 1550.11 1924.95 1557.23 Q1924.95 1564.34 1926.75 1567.91 Q1928.58 1571.45 1932.19 1571.45 Q1935.83 1571.45 1937.63 1567.91 Q1939.46 1564.34 1939.46 1557.23 Q1939.46 1550.11 1937.63 1546.56 Q1935.83 1543 1932.19 1543 M1932.19 1539.29 Q1938 1539.29 1941.06 1543.9 Q1944.14 1548.48 1944.14 1557.23 Q1944.14 1565.96 1941.06 1570.57 Q1938 1575.15 1932.19 1575.15 Q1926.38 1575.15 1923.31 1570.57 Q1920.25 1565.96 1920.25 1557.23 Q1920.25 1548.48 1923.31 1543.9 Q1926.38 1539.29 1932.19 1539.29 Z" fill="#000000" fill-rule="evenodd" fill-opacity="1" /><path clip-path="url(#clip760)" d="M 0 0 M1949.21 1568.6 L1954.09 1568.6 L1954.09 1574.48 L1949.21 1574.48 L1949.21 1568.6 Z" fill="#000000" fill-rule="evenodd" fill-opacity="1" /><path clip-path="url(#clip760)" d="M 0 0 M1969.74 1555.34 Q1966.59 1555.34 1964.74 1557.49 Q1962.91 1559.64 1962.91 1563.39 Q1962.91 1567.12 1964.74 1569.29 Q1966.59 1571.45 1969.74 1571.45 Q1972.89 1571.45 1974.72 1569.29 Q1976.57 1567.12 1976.57 1563.39 Q1976.57 1559.64 1974.72 1557.49 Q1972.89 1555.34 1969.74 1555.34 M1979.02 1540.68 L1979.02 1544.94 Q1977.26 1544.11 1975.46 1543.67 Q1973.68 1543.23 1971.92 1543.23 Q1967.29 1543.23 1964.83 1546.36 Q1962.4 1549.48 1962.06 1555.8 Q1963.42 1553.79 1965.48 1552.72 Q1967.54 1551.63 1970.02 1551.63 Q1975.23 1551.63 1978.24 1554.8 Q1981.27 1557.95 1981.27 1563.39 Q1981.27 1568.72 1978.12 1571.93 Q1974.97 1575.15 1969.74 1575.15 Q1963.75 1575.15 1960.57 1570.57 Q1957.4 1565.96 1957.4 1557.23 Q1957.4 1549.04 1961.29 1544.18 Q1965.18 1539.29 1971.73 1539.29 Q1973.49 1539.29 1975.27 1539.64 Q1977.08 1539.99 1979.02 1540.68 Z" fill="#000000" fill-rule="evenodd" fill-opacity="1" /><path clip-path="url(#clip760)" d="M 0 0 M1986.48 1573.76 L1986.48 1569.5 Q1988.24 1570.34 1990.04 1570.78 Q1991.85 1571.22 1993.58 1571.22 Q1998.21 1571.22 2000.64 1568.11 Q2003.1 1564.99 2003.44 1558.65 Q2002.1 1560.64 2000.04 1561.7 Q1997.98 1562.77 1995.48 1562.77 Q1990.3 1562.77 1987.26 1559.64 Q1984.25 1556.49 1984.25 1551.05 Q1984.25 1545.73 1987.4 1542.51 Q1990.55 1539.29 1995.78 1539.29 Q2001.78 1539.29 2004.93 1543.9 Q2008.1 1548.48 2008.1 1557.23 Q2008.1 1565.41 2004.21 1570.29 Q2000.34 1575.15 1993.79 1575.15 Q1992.03 1575.15 1990.23 1574.8 Q1988.42 1574.46 1986.48 1573.76 M1995.78 1559.11 Q1998.93 1559.11 2000.76 1556.96 Q2002.61 1554.8 2002.61 1551.05 Q2002.61 1547.33 2000.76 1545.17 Q1998.93 1543 1995.78 1543 Q1992.63 1543 1990.78 1545.17 Q1988.95 1547.33 1988.95 1551.05 Q1988.95 1554.8 1990.78 1556.96 Q1992.63 1559.11 1995.78 1559.11 Z" fill="#000000" fill-rule="evenodd" fill-opacity="1" /><path clip-path="url(#clip760)" d="M 0 0 M51.0477 1465.1 Q47.4367 1465.1 45.608 1468.66 Q43.8024 1472.2 43.8024 1479.33 Q43.8024 1486.44 45.608 1490 Q47.4367 1493.55 51.0477 1493.55 Q54.682 1493.55 56.4875 1490 Q58.3162 1486.44 58.3162 1479.33 Q58.3162 1472.2 56.4875 1468.66 Q54.682 1465.1 51.0477 1465.1 M51.0477 1461.39 Q56.8579 1461.39 59.9134 1466 Q62.9921 1470.58 62.9921 1479.33 Q62.9921 1488.06 59.9134 1492.67 Q56.8579 1497.25 51.0477 1497.25 Q45.2376 1497.25 42.1589 1492.67 Q39.1034 1488.06 39.1034 1479.33 Q39.1034 1470.58 42.1589 1466 Q45.2376 1461.39 51.0477 1461.39 Z" fill="#000000" fill-rule="evenodd" fill-opacity="1" /><path clip-path="url(#clip760)" d="M 0 0 M42.0895 1049.09 L60.4458 1049.09 L60.4458 1053.02 L46.3718 1053.02 L46.3718 1061.5 Q47.3904 1061.15 48.4089 1060.99 Q49.4274 1060.8 50.4459 1060.8 Q56.2329 1060.8 59.6125 1063.97 Q62.9921 1067.14 62.9921 1072.56 Q62.9921 1078.14 59.5199 1081.24 Q56.0477 1084.32 49.7283 1084.32 Q47.5524 1084.32 45.2839 1083.95 Q43.0385 1083.58 40.6311 1082.84 L40.6311 1078.14 Q42.7145 1079.27 44.9367 1079.83 Q47.1589 1080.38 49.6357 1080.38 Q53.6403 1080.38 55.9783 1078.28 Q58.3162 1076.17 58.3162 1072.56 Q58.3162 1068.95 55.9783 1066.84 Q53.6403 1064.74 49.6357 1064.74 Q47.7607 1064.74 45.8857 1065.15 Q44.0339 1065.57 42.0895 1066.45 L42.0895 1049.09 Z" fill="#000000" fill-rule="evenodd" fill-opacity="1" /><path clip-path="url(#clip760)" d="M 0 0 M16.0711 666.785 L23.7099 666.785 L23.7099 640.419 L15.3998 642.086 L15.3998 637.826 L23.6636 636.16 L28.3395 636.16 L28.3395 666.785 L35.9784 666.785 L35.9784 670.72 L16.0711 670.72 L16.0711 666.785 Z" fill="#000000" fill-rule="evenodd" fill-opacity="1" /><path clip-path="url(#clip760)" d="M 0 0 M51.0477 639.238 Q47.4367 639.238 45.608 642.803 Q43.8024 646.345 43.8024 653.474 Q43.8024 660.581 45.608 664.146 Q47.4367 667.687 51.0477 667.687 Q54.682 667.687 56.4875 664.146 Q58.3162 660.581 58.3162 653.474 Q58.3162 646.345 56.4875 642.803 Q54.682 639.238 51.0477 639.238 M51.0477 635.535 Q56.8579 635.535 59.9134 640.141 Q62.9921 644.724 62.9921 653.474 Q62.9921 662.201 59.9134 666.808 Q56.8579 671.391 51.0477 671.391 Q45.2376 671.391 42.1589 666.808 Q39.1034 662.201 39.1034 653.474 Q39.1034 644.724 42.1589 640.141 Q45.2376 635.535 51.0477 635.535 Z" fill="#000000" fill-rule="evenodd" fill-opacity="1" /><path clip-path="url(#clip760)" d="M 0 0 M17.0664 253.856 L24.7053 253.856 L24.7053 227.49 L16.3952 229.157 L16.3952 224.897 L24.659 223.231 L29.3349 223.231 L29.3349 253.856 L36.9737 253.856 L36.9737 257.791 L17.0664 257.791 L17.0664 253.856 Z" fill="#000000" fill-rule="evenodd" fill-opacity="1" /><path clip-path="url(#clip760)" d="M 0 0 M42.0895 223.231 L60.4458 223.231 L60.4458 227.166 L46.3718 227.166 L46.3718 235.638 Q47.3904 235.291 48.4089 235.129 Q49.4274 234.944 50.4459 234.944 Q56.2329 234.944 59.6125 238.115 Q62.9921 241.286 62.9921 246.703 Q62.9921 252.282 59.5199 255.383 Q56.0477 258.462 49.7283 258.462 Q47.5524 258.462 45.2839 258.092 Q43.0385 257.721 40.6311 256.981 L40.6311 252.282 Q42.7145 253.416 44.9367 253.971 Q47.1589 254.527 49.6357 254.527 Q53.6403 254.527 55.9783 252.42 Q58.3162 250.314 58.3162 246.703 Q58.3162 243.092 55.9783 240.985 Q53.6403 238.879 49.6357 238.879 Q47.7607 238.879 45.8857 239.296 Q44.0339 239.712 42.0895 240.592 L42.0895 223.231 Z" fill="#000000" fill-rule="evenodd" fill-opacity="1" /><path clip-path="url(#clip762)" d="
M151.118 1477.55 L155.65 1477.41 L160.183 1477.26 L164.716 1477.09 L169.248 1476.9 L173.781 1476.68 L178.314 1476.44 L182.846 1476.17 L187.379 1475.86 L191.912 1475.5 
  L196.445 1475.11 L200.977 1474.67 L205.51 1474.17 L210.043 1473.62 L214.575 1473 L219.108 1472.33 L223.641 1471.58 L228.174 1470.76 L232.706 1469.87 L237.239 1468.91 
  L241.772 1467.86 L246.304 1466.74 L250.837 1465.54 L255.37 1464.25 L259.902 1462.88 L264.435 1461.42 L268.968 1459.88 L273.501 1458.25 L278.033 1456.52 L282.566 1454.7 
  L287.099 1452.77 L291.631 1450.74 L296.164 1448.6 L300.697 1446.33 L305.23 1443.94 L309.762 1441.41 L314.295 1438.72 L318.828 1435.88 L323.36 1432.86 L327.893 1429.66 
  L332.426 1426.25 L336.959 1422.63 L341.491 1418.77 L346.024 1414.68 L350.557 1410.32 L355.089 1405.69 L359.622 1400.78 L364.155 1395.58 L368.687 1390.07 L373.22 1384.25 
  L377.753 1378.12 L382.286 1371.67 L386.818 1364.92 L391.351 1357.85 L395.884 1350.49 L400.416 1342.85 L404.949 1334.95 L409.482 1326.8 L414.015 1318.44 L418.547 1309.9 
  L423.08 1301.21 L427.613 1292.4 L432.145 1283.52 L436.678 1274.61 L441.211 1265.71 L445.744 1256.87 L450.276 1248.12 L454.809 1239.52 L459.342 1231.1 L463.874 1222.9 
  L468.407 1214.95 L472.94 1207.3 L477.472 1199.97 L482.005 1192.98 L486.538 1186.35 L491.071 1180.1 L495.603 1174.25 L500.136 1168.79 L504.669 1163.72 L509.201 1159.05 
  L513.734 1154.77 L518.267 1150.85 L522.8 1147.28 L527.332 1144.04 L531.865 1141.08 L536.398 1138.38 L540.93 1135.9 L545.463 1133.58 L549.996 1131.37 L554.528 1129.23 
  L559.061 1127.08 L563.594 1124.86 L568.127 1122.52 L572.659 1119.97 L577.192 1117.17 L581.725 1114.03 L586.257 1110.5 L590.79 1106.52 L595.323 1102.03 L599.856 1097 
  L599.856 1479.3 L595.323 1479.3 L590.79 1479.3 L586.257 1479.3 L581.725 1479.3 L577.192 1479.3 L572.659 1479.3 L568.127 1479.3 L563.594 1479.3 L559.061 1479.3 
  L554.528 1479.3 L549.996 1479.3 L545.463 1479.3 L540.93 1479.3 L536.398 1479.3 L531.865 1479.3 L527.332 1479.3 L522.8 1479.3 L518.267 1479.3 L513.734 1479.3 
  L509.201 1479.3 L504.669 1479.3 L500.136 1479.3 L495.603 1479.3 L491.071 1479.3 L486.538 1479.3 L482.005 1479.3 L477.472 1479.3 L472.94 1479.3 L468.407 1479.3 
  L463.874 1479.3 L459.342 1479.3 L454.809 1479.3 L450.276 1479.3 L445.744 1479.3 L441.211 1479.3 L436.678 1479.3 L432.145 1479.3 L427.613 1479.3 L423.08 1479.3 
  L418.547 1479.3 L414.015 1479.3 L409.482 1479.3 L404.949 1479.3 L400.416 1479.3 L395.884 1479.3 L391.351 1479.3 L386.818 1479.3 L382.286 1479.3 L377.753 1479.3 
  L373.22 1479.3 L368.687 1479.3 L364.155 1479.3 L359.622 1479.3 L355.089 1479.3 L350.557 1479.3 L346.024 1479.3 L341.491 1479.3 L336.959 1479.3 L332.426 1479.3 
  L327.893 1479.3 L323.36 1479.3 L318.828 1479.3 L314.295 1479.3 L309.762 1479.3 L305.23 1479.3 L300.697 1479.3 L296.164 1479.3 L291.631 1479.3 L287.099 1479.3 
  L282.566 1479.3 L278.033 1479.3 L273.501 1479.3 L268.968 1479.3 L264.435 1479.3 L259.902 1479.3 L255.37 1479.3 L250.837 1479.3 L246.304 1479.3 L241.772 1479.3 
  L237.239 1479.3 L232.706 1479.3 L228.174 1479.3 L223.641 1479.3 L219.108 1479.3 L214.575 1479.3 L210.043 1479.3 L205.51 1479.3 L200.977 1479.3 L196.445 1479.3 
  L191.912 1479.3 L187.379 1479.3 L182.846 1479.3 L178.314 1479.3 L173.781 1479.3 L169.248 1479.3 L164.716 1479.3 L160.183 1479.3 L155.65 1479.3 L151.118 1479.3 
   Z
  " fill="#ffa500" fill-rule="evenodd" fill-opacity="0.5"/>
<polyline clip-path="url(#clip762)" style="stroke:#ffa500; stroke-width:4; stroke-opacity:1; fill:none" points="
  151.118,1477.55 155.65,1477.41 160.183,1477.26 164.716,1477.09 169.248,1476.9 173.781,1476.68 178.314,1476.44 182.846,1476.17 187.379,1475.86 191.912,1475.5 
  196.445,1475.11 200.977,1474.67 205.51,1474.17 210.043,1473.62 214.575,1473 219.108,1472.33 223.641,1471.58 228.174,1470.76 232.706,1469.87 237.239,1468.91 
  241.772,1467.86 246.304,1466.74 250.837,1465.54 255.37,1464.25 259.902,1462.88 264.435,1461.42 268.968,1459.88 273.501,1458.25 278.033,1456.52 282.566,1454.7 
  287.099,1452.77 291.631,1450.74 296.164,1448.6 300.697,1446.33 305.23,1443.94 309.762,1441.41 314.295,1438.72 318.828,1435.88 323.36,1432.86 327.893,1429.66 
  332.426,1426.25 336.959,1422.63 341.491,1418.77 346.024,1414.68 350.557,1410.32 355.089,1405.69 359.622,1400.78 364.155,1395.58 368.687,1390.07 373.22,1384.25 
  377.753,1378.12 382.286,1371.67 386.818,1364.92 391.351,1357.85 395.884,1350.49 400.416,1342.85 404.949,1334.95 409.482,1326.8 414.015,1318.44 418.547,1309.9 
  423.08,1301.21 427.613,1292.4 432.145,1283.52 436.678,1274.61 441.211,1265.71 445.744,1256.87 450.276,1248.12 454.809,1239.52 459.342,1231.1 463.874,1222.9 
  468.407,1214.95 472.94,1207.3 477.472,1199.97 482.005,1192.98 486.538,1186.35 491.071,1180.1 495.603,1174.25 500.136,1168.79 504.669,1163.72 509.201,1159.05 
  513.734,1154.77 518.267,1150.85 522.8,1147.28 527.332,1144.04 531.865,1141.08 536.398,1138.38 540.93,1135.9 545.463,1133.58 549.996,1131.37 554.528,1129.23 
  559.061,1127.08 563.594,1124.86 568.127,1122.52 572.659,1119.97 577.192,1117.17 581.725,1114.03 586.257,1110.5 590.79,1106.52 595.323,1102.03 599.856,1097 
  
  "/>
<path clip-path="url(#clip762)" d="
M599.856 1097 L612.743 1079.34 L625.629 1056.47 L638.516 1028.57 L651.403 996.483 L664.29 961.454 L677.177 924.877 L690.064 887.967 L702.951 851.519 L715.838 815.795 
  L728.725 780.55 L741.612 745.176 L754.499 708.945 L767.386 671.287 L780.273 632.063 L793.16 591.753 L806.047 551.499 L818.934 512.969 L831.821 478.041 L844.708 448.412 
  L857.595 425.216 L870.482 408.793 L883.369 398.645 L896.256 393.558 L909.143 391.827 L922.029 391.481 L934.916 390.458 L947.803 386.755 L960.69 378.586 L973.577 364.594 
  L986.464 344.108 L999.351 317.373 L1012.24 285.63 L1025.13 250.967 L1038.01 215.948 L1050.9 183.108 L1063.79 154.47 L1076.67 131.236 L1089.56 113.735 L1102.45 101.589 
  L1115.33 94.0089 L1128.22 90.083 L1141.11 88.9544 L1153.99 89.866 L1166.88 92.1113 L1179.77 94.9763 L1192.66 97.7574 L1205.54 99.8914 L1218.43 101.168 L1231.32 101.934 
  L1244.2 103.187 L1257.09 106.461 L1269.98 113.51 L1282.86 125.855 L1295.75 144.342 L1308.64 168.856 L1321.53 198.312 L1334.41 230.913 L1347.3 264.62 L1360.19 297.639 
  L1373.07 328.794 L1385.96 357.66 L1398.85 384.45 L1411.73 409.723 L1424.62 434.053 L1437.51 457.768 L1450.39 480.86 L1463.28 503.076 L1476.17 524.13 L1489.06 543.962 
  L1501.94 562.917 L1514.83 581.779 L1527.72 601.639 L1540.6 623.634 L1553.49 648.663 L1566.38 677.176 L1579.26 709.091 L1592.15 743.862 L1605.04 780.63 L1617.93 818.39 
  L1630.81 856.131 L1643.7 892.907 L1656.59 927.876 L1669.47 960.308 L1682.36 989.601 L1695.25 1015.29 L1708.13 1037.04 L1721.02 1054.68 L1733.91 1068.2 L1746.79 1077.78 
  L1759.68 1083.86 L1772.57 1087.17 L1785.46 1088.67 L1798.34 1089.51 L1811.23 1090.91 L1824.12 1093.93 L1837 1099.4 L1849.89 1107.72 L1862.78 1118.84 L1875.66 1132.27 
  L1875.66 1479.3 L1862.78 1479.3 L1849.89 1479.3 L1837 1479.3 L1824.12 1479.3 L1811.23 1479.3 L1798.34 1479.3 L1785.46 1479.3 L1772.57 1479.3 L1759.68 1479.3 
  L1746.79 1479.3 L1733.91 1479.3 L1721.02 1479.3 L1708.13 1479.3 L1695.25 1479.3 L1682.36 1479.3 L1669.47 1479.3 L1656.59 1479.3 L1643.7 1479.3 L1630.81 1479.3 
  L1617.93 1479.3 L1605.04 1479.3 L1592.15 1479.3 L1579.26 1479.3 L1566.38 1479.3 L1553.49 1479.3 L1540.6 1479.3 L1527.72 1479.3 L1514.83 1479.3 L1501.94 1479.3 
  L1489.06 1479.3 L1476.17 1479.3 L1463.28 1479.3 L1450.39 1479.3 L1437.51 1479.3 L1424.62 1479.3 L1411.73 1479.3 L1398.85 1479.3 L1385.96 1479.3 L1373.07 1479.3 
  L1360.19 1479.3 L1347.3 1479.3 L1334.41 1479.3 L1321.53 1479.3 L1308.64 1479.3 L1295.75 1479.3 L1282.86 1479.3 L1269.98 1479.3 L1257.09 1479.3 L1244.2 1479.3 
  L1231.32 1479.3 L1218.43 1479.3 L1205.54 1479.3 L1192.66 1479.3 L1179.77 1479.3 L1166.88 1479.3 L1153.99 1479.3 L1141.11 1479.3 L1128.22 1479.3 L1115.33 1479.3 
  L1102.45 1479.3 L1089.56 1479.3 L1076.67 1479.3 L1063.79 1479.3 L1050.9 1479.3 L1038.01 1479.3 L1025.13 1479.3 L1012.24 1479.3 L999.351 1479.3 L986.464 1479.3 
  L973.577 1479.3 L960.69 1479.3 L947.803 1479.3 L934.916 1479.3 L922.029 1479.3 L909.143 1479.3 L896.256 1479.3 L883.369 1479.3 L870.482 1479.3 L857.595 1479.3 
  L844.708 1479.3 L831.821 1479.3 L818.934 1479.3 L806.047 1479.3 L793.16 1479.3 L780.273 1479.3 L767.386 1479.3 L754.499 1479.3 L741.612 1479.3 L728.725 1479.3 
  L715.838 1479.3 L702.951 1479.3 L690.064 1479.3 L677.177 1479.3 L664.29 1479.3 L651.403 1479.3 L638.516 1479.3 L625.629 1479.3 L612.743 1479.3 L599.856 1479.3 
   Z
  " fill="#008000" fill-rule="evenodd" fill-opacity="0.5"/>
<polyline clip-path="url(#clip762)" style="stroke:#008000; stroke-width:4; stroke-opacity:1; fill:none" points="
  599.856,1097 612.743,1079.34 625.629,1056.47 638.516,1028.57 651.403,996.483 664.29,961.454 677.177,924.877 690.064,887.967 702.951,851.519 715.838,815.795 
  728.725,780.55 741.612,745.176 754.499,708.945 767.386,671.287 780.273,632.063 793.16,591.753 806.047,551.499 818.934,512.969 831.821,478.041 844.708,448.412 
  857.595,425.216 870.482,408.793 883.369,398.645 896.256,393.558 909.143,391.827 922.029,391.481 934.916,390.458 947.803,386.755 960.69,378.586 973.577,364.594 
  986.464,344.108 999.351,317.373 1012.24,285.63 1025.13,250.967 1038.01,215.948 1050.9,183.108 1063.79,154.47 1076.67,131.236 1089.56,113.735 1102.45,101.589 
  1115.33,94.0089 1128.22,90.083 1141.11,88.9544 1153.99,89.866 1166.88,92.1113 1179.77,94.9763 1192.66,97.7574 1205.54,99.8914 1218.43,101.168 1231.32,101.934 
  1244.2,103.187 1257.09,106.461 1269.98,113.51 1282.86,125.855 1295.75,144.342 1308.64,168.856 1321.53,198.312 1334.41,230.913 1347.3,264.62 1360.19,297.639 
  1373.07,328.794 1385.96,357.66 1398.85,384.45 1411.73,409.723 1424.62,434.053 1437.51,457.768 1450.39,480.86 1463.28,503.076 1476.17,524.13 1489.06,543.962 
  1501.94,562.917 1514.83,581.779 1527.72,601.639 1540.6,623.634 1553.49,648.663 1566.38,677.176 1579.26,709.091 1592.15,743.862 1605.04,780.63 1617.93,818.39 
  1630.81,856.131 1643.7,892.907 1656.59,927.876 1669.47,960.308 1682.36,989.601 1695.25,1015.29 1708.13,1037.04 1721.02,1054.68 1733.91,1068.2 1746.79,1077.78 
  1759.68,1083.86 1772.57,1087.17 1785.46,1088.67 1798.34,1089.51 1811.23,1090.91 1824.12,1093.93 1837,1099.4 1849.89,1107.72 1862.78,1118.84 1875.66,1132.27 
  
  "/>
<path clip-path="url(#clip762)" d="
M1875.66 1132.27 L1879.84 1136.98 L1884.01 1141.81 L1888.18 1146.72 L1892.35 1151.68 L1896.52 1156.66 L1900.69 1161.61 L1904.86 1166.51 L1909.04 1171.31 L1913.21 1176 
  L1917.38 1180.54 L1921.55 1184.9 L1925.72 1189.07 L1929.89 1193.04 L1934.06 1196.78 L1938.23 1200.3 L1942.41 1203.57 L1946.58 1206.62 L1950.75 1209.43 L1954.92 1212.02 
  L1959.09 1214.4 L1963.26 1216.58 L1967.43 1218.58 L1971.61 1220.42 L1975.78 1222.14 L1979.95 1223.74 L1984.12 1225.28 L1988.29 1226.77 L1992.46 1228.24 L1996.63 1229.74 
  L2000.81 1231.3 L2004.98 1232.94 L2009.15 1234.71 L2013.32 1236.63 L2017.49 1238.73 L2021.66 1241.05 L2025.83 1243.59 L2030.01 1246.39 L2034.18 1249.47 L2038.35 1252.82 
  L2042.52 1256.46 L2046.69 1260.39 L2050.86 1264.61 L2055.03 1269.12 L2059.2 1273.89 L2063.38 1278.92 L2067.55 1284.19 L2071.72 1289.67 L2075.89 1295.34 L2080.06 1301.17 
  L2084.23 1307.12 L2088.4 1313.18 L2092.58 1319.31 L2096.75 1325.47 L2100.92 1331.64 L2105.09 1337.78 L2109.26 1343.87 L2113.43 1349.89 L2117.6 1355.8 L2121.78 1361.58 
  L2125.95 1367.22 L2130.12 1372.69 L2134.29 1377.99 L2138.46 1383.1 L2142.63 1388.01 L2146.8 1392.72 L2150.98 1397.22 L2155.15 1401.51 L2159.32 1405.59 L2163.49 1409.47 
  L2167.66 1413.14 L2171.83 1416.61 L2176 1419.9 L2180.17 1423 L2184.35 1425.93 L2188.52 1428.69 L2192.69 1431.3 L2196.86 1433.76 L2201.03 1436.09 L2205.2 1438.29 
  L2209.37 1440.38 L2213.55 1442.37 L2217.72 1444.25 L2221.89 1446.05 L2226.06 1447.77 L2230.23 1449.41 L2234.4 1450.99 L2238.57 1452.5 L2242.75 1453.96 L2246.92 1455.37 
  L2251.09 1456.72 L2255.26 1458.03 L2259.43 1459.3 L2263.6 1460.52 L2267.77 1461.7 L2271.95 1462.85 L2276.12 1463.95 L2280.29 1465.01 L2284.46 1466.03 L2288.63 1467 
  L2288.63 1479.3 L2284.46 1479.3 L2280.29 1479.3 L2276.12 1479.3 L2271.95 1479.3 L2267.77 1479.3 L2263.6 1479.3 L2259.43 1479.3 L2255.26 1479.3 L2251.09 1479.3 
  L2246.92 1479.3 L2242.75 1479.3 L2238.57 1479.3 L2234.4 1479.3 L2230.23 1479.3 L2226.06 1479.3 L2221.89 1479.3 L2217.72 1479.3 L2213.55 1479.3 L2209.37 1479.3 
  L2205.2 1479.3 L2201.03 1479.3 L2196.86 1479.3 L2192.69 1479.3 L2188.52 1479.3 L2184.35 1479.3 L2180.17 1479.3 L2176 1479.3 L2171.83 1479.3 L2167.66 1479.3 
  L2163.49 1479.3 L2159.32 1479.3 L2155.15 1479.3 L2150.98 1479.3 L2146.8 1479.3 L2142.63 1479.3 L2138.46 1479.3 L2134.29 1479.3 L2130.12 1479.3 L2125.95 1479.3 
  L2121.78 1479.3 L2117.6 1479.3 L2113.43 1479.3 L2109.26 1479.3 L2105.09 1479.3 L2100.92 1479.3 L2096.75 1479.3 L2092.58 1479.3 L2088.4 1479.3 L2084.23 1479.3 
  L2080.06 1479.3 L2075.89 1479.3 L2071.72 1479.3 L2067.55 1479.3 L2063.38 1479.3 L2059.2 1479.3 L2055.03 1479.3 L2050.86 1479.3 L2046.69 1479.3 L2042.52 1479.3 
  L2038.35 1479.3 L2034.18 1479.3 L2030.01 1479.3 L2025.83 1479.3 L2021.66 1479.3 L2017.49 1479.3 L2013.32 1479.3 L2009.15 1479.3 L2004.98 1479.3 L2000.81 1479.3 
  L1996.63 1479.3 L1992.46 1479.3 L1988.29 1479.3 L1984.12 1479.3 L1979.95 1479.3 L1975.78 1479.3 L1971.61 1479.3 L1967.43 1479.3 L1963.26 1479.3 L1959.09 1479.3 
  L1954.92 1479.3 L1950.75 1479.3 L1946.58 1479.3 L1942.41 1479.3 L1938.23 1479.3 L1934.06 1479.3 L1929.89 1479.3 L1925.72 1479.3 L1921.55 1479.3 L1917.38 1479.3 
  L1913.21 1479.3 L1909.04 1479.3 L1904.86 1479.3 L1900.69 1479.3 L1896.52 1479.3 L1892.35 1479.3 L1888.18 1479.3 L1884.01 1479.3 L1879.84 1479.3 L1875.66 1479.3 
   Z
  " fill="#ffa500" fill-rule="evenodd" fill-opacity="0.5"/>
<polyline clip-path="url(#clip762)" style="stroke:#ffa500; stroke-width:4; stroke-opacity:1; fill:none" points="
  1875.66,1132.27 1879.84,1136.98 1884.01,1141.81 1888.18,1146.72 1892.35,1151.68 1896.52,1156.66 1900.69,1161.61 1904.86,1166.51 1909.04,1171.31 1913.21,1176 
  1917.38,1180.54 1921.55,1184.9 1925.72,1189.07 1929.89,1193.04 1934.06,1196.78 1938.23,1200.3 1942.41,1203.57 1946.58,1206.62 1950.75,1209.43 1954.92,1212.02 
  1959.09,1214.4 1963.26,1216.58 1967.43,1218.58 1971.61,1220.42 1975.78,1222.14 1979.95,1223.74 1984.12,1225.28 1988.29,1226.77 1992.46,1228.24 1996.63,1229.74 
  2000.81,1231.3 2004.98,1232.94 2009.15,1234.71 2013.32,1236.63 2017.49,1238.73 2021.66,1241.05 2025.83,1243.59 2030.01,1246.39 2034.18,1249.47 2038.35,1252.82 
  2042.52,1256.46 2046.69,1260.39 2050.86,1264.61 2055.03,1269.12 2059.2,1273.89 2063.38,1278.92 2067.55,1284.19 2071.72,1289.67 2075.89,1295.34 2080.06,1301.17 
  2084.23,1307.12 2088.4,1313.18 2092.58,1319.31 2096.75,1325.47 2100.92,1331.64 2105.09,1337.78 2109.26,1343.87 2113.43,1349.89 2117.6,1355.8 2121.78,1361.58 
  2125.95,1367.22 2130.12,1372.69 2134.29,1377.99 2138.46,1383.1 2142.63,1388.01 2146.8,1392.72 2150.98,1397.22 2155.15,1401.51 2159.32,1405.59 2163.49,1409.47 
  2167.66,1413.14 2171.83,1416.61 2176,1419.9 2180.17,1423 2184.35,1425.93 2188.52,1428.69 2192.69,1431.3 2196.86,1433.76 2201.03,1436.09 2205.2,1438.29 
  2209.37,1440.38 2213.55,1442.37 2217.72,1444.25 2221.89,1446.05 2226.06,1447.77 2230.23,1449.41 2234.4,1450.99 2238.57,1452.5 2242.75,1453.96 2246.92,1455.37 
  2251.09,1456.72 2255.26,1458.03 2259.43,1459.3 2263.6,1460.52 2267.77,1461.7 2271.95,1462.85 2276.12,1463.95 2280.29,1465.01 2284.46,1466.03 2288.63,1467 
  
  "/>
<polyline clip-path="url(#clip762)" style="stroke:#0000ff; stroke-width:4; stroke-opacity:1; fill:none" points="
  1201.9,1479.3 1201.9,99.3745 
  "/>
<polyline clip-path="url(#clip762)" style="stroke:#000000; stroke-width:4; stroke-opacity:1; fill:none" points="
  1185.97,1479.3 1185.97,96.3659 
  "/>
<path clip-path="url(#clip760)" d="
M1494.58 459.25 L2277.23 459.25 L2277.23 96.3696 L1494.58 96.3696  Z
  " fill="#ffffff" fill-rule="evenodd" fill-opacity="1"/>
<polyline clip-path="url(#clip760)" style="stroke:#000000; stroke-width:4; stroke-opacity:1; fill:none" points="
  1494.58,459.25 2277.23,459.25 2277.23,96.3696 1494.58,96.3696 1494.58,459.25 
  "/>
<path clip-path="url(#clip760)" d="
M1519.75 181.042 L1670.81 181.042 L1670.81 132.658 L1519.75 132.658 L1519.75 181.042  Z
  " fill="#ffa500" fill-rule="evenodd" fill-opacity="0.5"/>
<polyline clip-path="url(#clip760)" style="stroke:#ffa500; stroke-width:4; stroke-opacity:1; fill:none" points="
  1519.75,132.658 1670.81,132.658 
  "/>
<path clip-path="url(#clip760)" d="M 0 0 M1700.38 161.19 Q1700.38 165.889 1702.3 168.574 Q1704.24 171.236 1707.62 171.236 Q1711 171.236 1712.95 168.574 Q1714.89 165.889 1714.89 161.19 Q1714.89 156.491 1712.95 153.829 Q1711 151.144 1707.62 151.144 Q1704.24 151.144 1702.3 153.829 Q1700.38 156.491 1700.38 161.19 M1714.89 170.241 Q1713.55 172.555 1711.49 173.69 Q1709.45 174.801 1706.58 174.801 Q1701.88 174.801 1698.92 171.051 Q1695.98 167.301 1695.98 161.19 Q1695.98 155.079 1698.92 151.329 Q1701.88 147.579 1706.58 147.579 Q1709.45 147.579 1711.49 148.713 Q1713.55 149.824 1714.89 152.139 L1714.89 148.204 L1719.15 148.204 L1719.15 183.991 L1714.89 183.991 L1714.89 170.241 Z" fill="#000000" fill-rule="evenodd" fill-opacity="1" /><path clip-path="url(#clip760)" d="M 0 0 M1734.22 142.648 Q1730.61 142.648 1728.78 146.213 Q1726.98 149.755 1726.98 156.884 Q1726.98 163.991 1728.78 167.556 Q1730.61 171.097 1734.22 171.097 Q1737.85 171.097 1739.66 167.556 Q1741.49 163.991 1741.49 156.884 Q1741.49 149.755 1739.66 146.213 Q1737.85 142.648 1734.22 142.648 M1734.22 138.945 Q1740.03 138.945 1743.09 143.551 Q1746.17 148.134 1746.17 156.884 Q1746.17 165.611 1743.09 170.218 Q1740.03 174.801 1734.22 174.801 Q1728.41 174.801 1725.33 170.218 Q1722.28 165.611 1722.28 156.884 Q1722.28 148.134 1725.33 143.551 Q1728.41 138.945 1734.22 138.945 Z" fill="#000000" fill-rule="evenodd" fill-opacity="1" /><path clip-path="url(#clip760)" d="M 0 0 M1751.28 139.57 L1769.64 139.57 L1769.64 143.505 L1755.56 143.505 L1755.56 151.977 Q1756.58 151.63 1757.6 151.468 Q1758.62 151.282 1759.64 151.282 Q1765.42 151.282 1768.8 154.454 Q1772.18 157.625 1772.18 163.042 Q1772.18 168.62 1768.71 171.722 Q1765.24 174.801 1758.92 174.801 Q1756.74 174.801 1754.48 174.43 Q1752.23 174.06 1749.82 173.319 L1749.82 168.62 Q1751.91 169.755 1754.13 170.31 Q1756.35 170.866 1758.83 170.866 Q1762.83 170.866 1765.17 168.759 Q1767.51 166.653 1767.51 163.042 Q1767.51 159.431 1765.17 157.324 Q1762.83 155.218 1758.83 155.218 Q1756.95 155.218 1755.08 155.634 Q1753.23 156.051 1751.28 156.931 L1751.28 139.57 Z" fill="#000000" fill-rule="evenodd" fill-opacity="1" /><path clip-path="url(#clip760)" d="
M1519.75 241.522 L1670.81 241.522 L1670.81 193.138 L1519.75 193.138 L1519.75 241.522  Z
  " fill="#008000" fill-rule="evenodd" fill-opacity="0.5"/>
<polyline clip-path="url(#clip760)" style="stroke:#008000; stroke-width:4; stroke-opacity:1; fill:none" points="
  1519.75,193.138 1670.81,193.138 
  "/>
<path clip-path="url(#clip760)" d="M 0 0 M1698.2 233.892 L1698.2 229.633 Q1699.96 230.466 1701.77 230.906 Q1703.57 231.346 1705.31 231.346 Q1709.94 231.346 1712.37 228.244 Q1714.82 225.119 1715.17 218.776 Q1713.83 220.767 1711.77 221.832 Q1709.71 222.897 1707.21 222.897 Q1702.02 222.897 1698.99 219.772 Q1695.98 216.624 1695.98 211.184 Q1695.98 205.86 1699.13 202.642 Q1702.28 199.425 1707.51 199.425 Q1713.5 199.425 1716.65 204.031 Q1719.82 208.614 1719.82 217.364 Q1719.82 225.536 1715.93 230.42 Q1712.07 235.281 1705.52 235.281 Q1703.76 235.281 1701.95 234.934 Q1700.15 234.586 1698.2 233.892 M1707.51 219.239 Q1710.66 219.239 1712.48 217.086 Q1714.34 214.934 1714.34 211.184 Q1714.34 207.457 1712.48 205.304 Q1710.66 203.128 1707.51 203.128 Q1704.36 203.128 1702.51 205.304 Q1700.68 207.457 1700.68 211.184 Q1700.68 214.934 1702.51 217.086 Q1704.36 219.239 1707.51 219.239 Z" fill="#000000" fill-rule="evenodd" fill-opacity="1" /><path clip-path="url(#clip760)" d="M 0 0 M1734.89 203.128 Q1731.28 203.128 1729.45 206.693 Q1727.65 210.235 1727.65 217.364 Q1727.65 224.471 1729.45 228.036 Q1731.28 231.577 1734.89 231.577 Q1738.53 231.577 1740.33 228.036 Q1742.16 224.471 1742.16 217.364 Q1742.16 210.235 1740.33 206.693 Q1738.53 203.128 1734.89 203.128 M1734.89 199.425 Q1740.7 199.425 1743.76 204.031 Q1746.84 208.614 1746.84 217.364 Q1746.84 226.091 1743.76 230.698 Q1740.7 235.281 1734.89 235.281 Q1729.08 235.281 1726 230.698 Q1722.95 226.091 1722.95 217.364 Q1722.95 208.614 1726 204.031 Q1729.08 199.425 1734.89 199.425 Z" fill="#000000" fill-rule="evenodd" fill-opacity="1" /><path clip-path="url(#clip760)" d="M 0 0 M1781.3 219.401 Q1779.29 219.401 1778.13 221.114 Q1777 222.827 1777 225.883 Q1777 228.892 1778.13 230.628 Q1779.29 232.341 1781.3 232.341 Q1783.27 232.341 1784.41 230.628 Q1785.56 228.892 1785.56 225.883 Q1785.56 222.85 1784.41 221.137 Q1783.27 219.401 1781.3 219.401 M1781.3 216.462 Q1784.96 216.462 1787.11 219.008 Q1789.27 221.554 1789.27 225.883 Q1789.27 230.211 1787.09 232.758 Q1784.94 235.281 1781.3 235.281 Q1777.6 235.281 1775.45 232.758 Q1773.29 230.211 1773.29 225.883 Q1773.29 221.531 1775.45 219.008 Q1777.62 216.462 1781.3 216.462 M1757.42 202.364 Q1755.42 202.364 1754.27 204.1 Q1753.13 205.813 1753.13 208.823 Q1753.13 211.878 1754.27 213.591 Q1755.4 215.304 1757.42 215.304 Q1759.43 215.304 1760.56 213.591 Q1761.72 211.878 1761.72 208.823 Q1761.72 205.837 1760.56 204.1 Q1759.41 202.364 1757.42 202.364 M1778.32 199.425 L1782.02 199.425 L1760.4 235.281 L1756.7 235.281 L1778.32 199.425 M1757.42 199.425 Q1761.07 199.425 1763.25 201.971 Q1765.42 204.494 1765.42 208.823 Q1765.42 213.198 1763.25 215.721 Q1761.1 218.244 1757.42 218.244 Q1753.73 218.244 1751.58 215.721 Q1749.45 213.174 1749.45 208.823 Q1749.45 204.517 1751.6 201.971 Q1753.76 199.425 1757.42 199.425 Z" fill="#000000" fill-rule="evenodd" fill-opacity="1" /><path clip-path="url(#clip760)" d="M 0 0 M1830.35 218.961 L1830.35 234.61 L1826.1 234.61 L1826.1 219.1 Q1826.1 215.42 1824.66 213.591 Q1823.22 211.762 1820.35 211.762 Q1816.91 211.762 1814.91 213.962 Q1812.92 216.161 1812.92 219.957 L1812.92 234.61 L1808.64 234.61 L1808.64 208.684 L1812.92 208.684 L1812.92 212.712 Q1814.45 210.374 1816.51 209.216 Q1818.6 208.059 1821.3 208.059 Q1825.77 208.059 1828.06 210.837 Q1830.35 213.591 1830.35 218.961 Z" fill="#000000" fill-rule="evenodd" fill-opacity="1" /><path clip-path="url(#clip760)" d="M 0 0 M1844.87 211.67 Q1841.44 211.67 1839.45 214.355 Q1837.46 217.017 1837.46 221.67 Q1837.46 226.323 1839.43 229.008 Q1841.42 231.67 1844.87 231.67 Q1848.27 231.67 1850.26 228.985 Q1852.25 226.299 1852.25 221.67 Q1852.25 217.063 1850.26 214.378 Q1848.27 211.67 1844.87 211.67 M1844.87 208.059 Q1850.42 208.059 1853.6 211.67 Q1856.77 215.281 1856.77 221.67 Q1856.77 228.036 1853.6 231.67 Q1850.42 235.281 1844.87 235.281 Q1839.29 235.281 1836.12 231.67 Q1832.97 228.036 1832.97 221.67 Q1832.97 215.281 1836.12 211.67 Q1839.29 208.059 1844.87 208.059 Z" fill="#000000" fill-rule="evenodd" fill-opacity="1" /><path clip-path="url(#clip760)" d="M 0 0 M1882.78 218.961 L1882.78 234.61 L1878.53 234.61 L1878.53 219.1 Q1878.53 215.42 1877.09 213.591 Q1875.66 211.762 1872.78 211.762 Q1869.34 211.762 1867.35 213.962 Q1865.35 216.161 1865.35 219.957 L1865.35 234.61 L1861.07 234.61 L1861.07 208.684 L1865.35 208.684 L1865.35 212.712 Q1866.88 210.374 1868.94 209.216 Q1871.03 208.059 1873.73 208.059 Q1878.2 208.059 1880.49 210.837 Q1882.78 213.591 1882.78 218.961 Z" fill="#000000" fill-rule="evenodd" fill-opacity="1" /><path clip-path="url(#clip760)" d="M 0 0 M1885.1 219.725 L1897.58 219.725 L1897.58 223.522 L1885.1 223.522 L1885.1 219.725 Z" fill="#000000" fill-rule="evenodd" fill-opacity="1" /><path clip-path="url(#clip760)" d="M 0 0 M1917.07 212.665 Q1916.35 212.249 1915.49 212.063 Q1914.66 211.855 1913.64 211.855 Q1910.03 211.855 1908.09 214.216 Q1906.16 216.554 1906.16 220.952 L1906.16 234.61 L1901.88 234.61 L1901.88 208.684 L1906.16 208.684 L1906.16 212.712 Q1907.51 210.35 1909.66 209.216 Q1911.81 208.059 1914.89 208.059 Q1915.33 208.059 1915.86 208.128 Q1916.4 208.175 1917.04 208.29 L1917.07 212.665 Z" fill="#000000" fill-rule="evenodd" fill-opacity="1" /><path clip-path="url(#clip760)" d="M 0 0 M1942.67 220.582 L1942.67 222.665 L1923.09 222.665 Q1923.36 227.063 1925.72 229.378 Q1928.11 231.67 1932.34 231.67 Q1934.8 231.67 1937.09 231.068 Q1939.4 230.466 1941.67 229.262 L1941.67 233.29 Q1939.38 234.262 1936.97 234.772 Q1934.57 235.281 1932.09 235.281 Q1925.89 235.281 1922.25 231.67 Q1918.64 228.059 1918.64 221.901 Q1918.64 215.536 1922.07 211.809 Q1925.52 208.059 1931.35 208.059 Q1936.58 208.059 1939.61 211.438 Q1942.67 214.795 1942.67 220.582 M1938.41 219.332 Q1938.36 215.837 1936.44 213.753 Q1934.54 211.67 1931.4 211.67 Q1927.83 211.67 1925.68 213.684 Q1923.55 215.698 1923.22 219.355 L1938.41 219.332 Z" fill="#000000" fill-rule="evenodd" fill-opacity="1" /><path clip-path="url(#clip760)" d="M 0 0 M1947.14 208.684 L1951.4 208.684 L1951.4 235.073 Q1951.4 240.026 1949.5 242.248 Q1947.62 244.471 1943.43 244.471 L1941.81 244.471 L1941.81 240.86 L1942.95 240.86 Q1945.38 240.86 1946.26 239.725 Q1947.14 238.614 1947.14 235.073 L1947.14 208.684 M1947.14 198.591 L1951.4 198.591 L1951.4 203.985 L1947.14 203.985 L1947.14 198.591 Z" fill="#000000" fill-rule="evenodd" fill-opacity="1" /><path clip-path="url(#clip760)" d="M 0 0 M1978.04 220.582 L1978.04 222.665 L1958.46 222.665 Q1958.73 227.063 1961.09 229.378 Q1963.48 231.67 1967.71 231.67 Q1970.17 231.67 1972.46 231.068 Q1974.78 230.466 1977.04 229.262 L1977.04 233.29 Q1974.75 234.262 1972.34 234.772 Q1969.94 235.281 1967.46 235.281 Q1961.26 235.281 1957.62 231.67 Q1954.01 228.059 1954.01 221.901 Q1954.01 215.536 1957.44 211.809 Q1960.89 208.059 1966.72 208.059 Q1971.95 208.059 1974.98 211.438 Q1978.04 214.795 1978.04 220.582 M1973.78 219.332 Q1973.73 215.837 1971.81 213.753 Q1969.91 211.67 1966.77 211.67 Q1963.2 211.67 1961.05 213.684 Q1958.92 215.698 1958.59 219.355 L1973.78 219.332 Z" fill="#000000" fill-rule="evenodd" fill-opacity="1" /><path clip-path="url(#clip760)" d="M 0 0 M2001.16 209.679 L2001.16 213.661 Q1999.36 212.665 1997.53 212.179 Q1995.72 211.67 1993.87 211.67 Q1989.73 211.67 1987.44 214.309 Q1985.15 216.924 1985.15 221.67 Q1985.15 226.415 1987.44 229.054 Q1989.73 231.67 1993.87 231.67 Q1995.72 231.67 1997.53 231.184 Q1999.36 230.674 2001.16 229.679 L2001.16 233.614 Q1999.38 234.448 1997.46 234.864 Q1995.56 235.281 1993.41 235.281 Q1987.55 235.281 1984.1 231.6 Q1980.65 227.92 1980.65 221.67 Q1980.65 215.327 1984.13 211.693 Q1987.62 208.059 1993.69 208.059 Q1995.65 208.059 1997.53 208.475 Q1999.4 208.869 2001.16 209.679 Z" fill="#000000" fill-rule="evenodd" fill-opacity="1" /><path clip-path="url(#clip760)" d="M 0 0 M2009.84 201.323 L2009.84 208.684 L2018.62 208.684 L2018.62 211.994 L2009.84 211.994 L2009.84 226.068 Q2009.84 229.239 2010.7 230.142 Q2011.58 231.045 2014.24 231.045 L2018.62 231.045 L2018.62 234.61 L2014.24 234.61 Q2009.31 234.61 2007.44 232.781 Q2005.56 230.929 2005.56 226.068 L2005.56 211.994 L2002.44 211.994 L2002.44 208.684 L2005.56 208.684 L2005.56 201.323 L2009.84 201.323 Z" fill="#000000" fill-rule="evenodd" fill-opacity="1" /><path clip-path="url(#clip760)" d="M 0 0 M2023.08 208.684 L2027.34 208.684 L2027.34 234.61 L2023.08 234.61 L2023.08 208.684 M2023.08 198.591 L2027.34 198.591 L2027.34 203.985 L2023.08 203.985 L2023.08 198.591 Z" fill="#000000" fill-rule="evenodd" fill-opacity="1" /><path clip-path="url(#clip760)" d="M 0 0 M2041.86 211.67 Q2038.43 211.67 2036.44 214.355 Q2034.45 217.017 2034.45 221.67 Q2034.45 226.323 2036.42 229.008 Q2038.41 231.67 2041.86 231.67 Q2045.26 231.67 2047.25 228.985 Q2049.24 226.299 2049.24 221.67 Q2049.24 217.063 2047.25 214.378 Q2045.26 211.67 2041.86 211.67 M2041.86 208.059 Q2047.41 208.059 2050.58 211.67 Q2053.76 215.281 2053.76 221.67 Q2053.76 228.036 2050.58 231.67 Q2047.41 235.281 2041.86 235.281 Q2036.28 235.281 2033.11 231.67 Q2029.96 228.036 2029.96 221.67 Q2029.96 215.281 2033.11 211.67 Q2036.28 208.059 2041.86 208.059 Z" fill="#000000" fill-rule="evenodd" fill-opacity="1" /><path clip-path="url(#clip760)" d="M 0 0 M2079.77 218.961 L2079.77 234.61 L2075.52 234.61 L2075.52 219.1 Q2075.52 215.42 2074.08 213.591 Q2072.64 211.762 2069.77 211.762 Q2066.33 211.762 2064.33 213.962 Q2062.34 216.161 2062.34 219.957 L2062.34 234.61 L2058.06 234.61 L2058.06 208.684 L2062.34 208.684 L2062.34 212.712 Q2063.87 210.374 2065.93 209.216 Q2068.02 208.059 2070.72 208.059 Q2075.19 208.059 2077.48 210.837 Q2079.77 213.591 2079.77 218.961 Z" fill="#000000" fill-rule="evenodd" fill-opacity="1" /><path clip-path="url(#clip760)" d="M 0 0 M2114.33 212.665 Q2113.62 212.249 2112.76 212.063 Q2111.93 211.855 2110.91 211.855 Q2107.3 211.855 2105.35 214.216 Q2103.43 216.554 2103.43 220.952 L2103.43 234.61 L2099.15 234.61 L2099.15 208.684 L2103.43 208.684 L2103.43 212.712 Q2104.77 210.35 2106.93 209.216 Q2109.08 208.059 2112.16 208.059 Q2112.6 208.059 2113.13 208.128 Q2113.66 208.175 2114.31 208.29 L2114.33 212.665 Z" fill="#000000" fill-rule="evenodd" fill-opacity="1" /><path clip-path="url(#clip760)" d="M 0 0 M2139.94 220.582 L2139.94 222.665 L2120.35 222.665 Q2120.63 227.063 2122.99 229.378 Q2125.38 231.67 2129.61 231.67 Q2132.07 231.67 2134.36 231.068 Q2136.67 230.466 2138.94 229.262 L2138.94 233.29 Q2136.65 234.262 2134.24 234.772 Q2131.83 235.281 2129.36 235.281 Q2123.15 235.281 2119.52 231.67 Q2115.91 228.059 2115.91 221.901 Q2115.91 215.536 2119.33 211.809 Q2122.78 208.059 2128.62 208.059 Q2133.85 208.059 2136.88 211.438 Q2139.94 214.795 2139.94 220.582 M2135.68 219.332 Q2135.63 215.837 2133.71 213.753 Q2131.81 211.67 2128.66 211.67 Q2125.1 211.67 2122.95 213.684 Q2120.82 215.698 2120.49 219.355 L2135.68 219.332 Z" fill="#000000" fill-rule="evenodd" fill-opacity="1" /><path clip-path="url(#clip760)" d="M 0 0 M2161.46 221.346 Q2161.46 216.716 2159.54 214.17 Q2157.64 211.624 2154.2 211.624 Q2150.77 211.624 2148.85 214.17 Q2146.95 216.716 2146.95 221.346 Q2146.95 225.952 2148.85 228.498 Q2150.77 231.045 2154.2 231.045 Q2157.64 231.045 2159.54 228.498 Q2161.46 225.952 2161.46 221.346 M2165.72 231.392 Q2165.72 238.012 2162.78 241.23 Q2159.84 244.471 2153.78 244.471 Q2151.53 244.471 2149.54 244.123 Q2147.55 243.799 2145.68 243.105 L2145.68 238.961 Q2147.55 239.98 2149.38 240.466 Q2151.21 240.952 2153.11 240.952 Q2157.3 240.952 2159.38 238.753 Q2161.46 236.577 2161.46 232.156 L2161.46 230.049 Q2160.14 232.341 2158.08 233.475 Q2156.02 234.61 2153.15 234.61 Q2148.39 234.61 2145.47 230.975 Q2142.55 227.341 2142.55 221.346 Q2142.55 215.327 2145.47 211.693 Q2148.39 208.059 2153.15 208.059 Q2156.02 208.059 2158.08 209.193 Q2160.14 210.327 2161.46 212.619 L2161.46 208.684 L2165.72 208.684 L2165.72 231.392 Z" fill="#000000" fill-rule="evenodd" fill-opacity="1" /><path clip-path="url(#clip760)" d="M 0 0 M2170.19 208.684 L2174.45 208.684 L2174.45 234.61 L2170.19 234.61 L2170.19 208.684 M2170.19 198.591 L2174.45 198.591 L2174.45 203.985 L2170.19 203.985 L2170.19 198.591 Z" fill="#000000" fill-rule="evenodd" fill-opacity="1" /><path clip-path="url(#clip760)" d="M 0 0 M2188.96 211.67 Q2185.54 211.67 2183.55 214.355 Q2181.56 217.017 2181.56 221.67 Q2181.56 226.323 2183.52 229.008 Q2185.51 231.67 2188.96 231.67 Q2192.37 231.67 2194.36 228.985 Q2196.35 226.299 2196.35 221.67 Q2196.35 217.063 2194.36 214.378 Q2192.37 211.67 2188.96 211.67 M2188.96 208.059 Q2194.52 208.059 2197.69 211.67 Q2200.86 215.281 2200.86 221.67 Q2200.86 228.036 2197.69 231.67 Q2194.52 235.281 2188.96 235.281 Q2183.39 235.281 2180.21 231.67 Q2177.07 228.036 2177.07 221.67 Q2177.07 215.281 2180.21 211.67 Q2183.39 208.059 2188.96 208.059 Z" fill="#000000" fill-rule="evenodd" fill-opacity="1" /><path clip-path="url(#clip760)" d="M 0 0 M2226.88 218.961 L2226.88 234.61 L2222.62 234.61 L2222.62 219.1 Q2222.62 215.42 2221.19 213.591 Q2219.75 211.762 2216.88 211.762 Q2213.43 211.762 2211.44 213.962 Q2209.45 216.161 2209.45 219.957 L2209.45 234.61 L2205.17 234.61 L2205.17 208.684 L2209.45 208.684 L2209.45 212.712 Q2210.98 210.374 2213.04 209.216 Q2215.12 208.059 2217.83 208.059 Q2222.3 208.059 2224.59 210.837 Q2226.88 213.591 2226.88 218.961 Z" fill="#000000" fill-rule="evenodd" fill-opacity="1" /><path clip-path="url(#clip760)" d="
M1519.75 302.002 L1670.81 302.002 L1670.81 253.618 L1519.75 253.618 L1519.75 302.002  Z
  " fill="#ffa500" fill-rule="evenodd" fill-opacity="0.5"/>
<polyline clip-path="url(#clip760)" style="stroke:#ffa500; stroke-width:4; stroke-opacity:1; fill:none" points="
  1519.75,253.618 1670.81,253.618 
  "/>
<path clip-path="url(#clip760)" d="M 0 0 M1700.38 282.15 Q1700.38 286.849 1702.3 289.534 Q1704.24 292.196 1707.62 292.196 Q1711 292.196 1712.95 289.534 Q1714.89 286.849 1714.89 282.15 Q1714.89 277.451 1712.95 274.789 Q1711 272.104 1707.62 272.104 Q1704.24 272.104 1702.3 274.789 Q1700.38 277.451 1700.38 282.15 M1714.89 291.201 Q1713.55 293.515 1711.49 294.65 Q1709.45 295.761 1706.58 295.761 Q1701.88 295.761 1698.92 292.011 Q1695.98 288.261 1695.98 282.15 Q1695.98 276.039 1698.92 272.289 Q1701.88 268.539 1706.58 268.539 Q1709.45 268.539 1711.49 269.673 Q1713.55 270.784 1714.89 273.099 L1714.89 269.164 L1719.15 269.164 L1719.15 304.951 L1714.89 304.951 L1714.89 291.201 Z" fill="#000000" fill-rule="evenodd" fill-opacity="1" /><path clip-path="url(#clip760)" d="M 0 0 M1724.36 294.372 L1724.36 290.113 Q1726.12 290.946 1727.92 291.386 Q1729.73 291.826 1731.47 291.826 Q1736.1 291.826 1738.53 288.724 Q1740.98 285.599 1741.33 279.256 Q1739.98 281.247 1737.92 282.312 Q1735.86 283.377 1733.36 283.377 Q1728.18 283.377 1725.15 280.252 Q1722.14 277.104 1722.14 271.664 Q1722.14 266.34 1725.29 263.122 Q1728.43 259.905 1733.67 259.905 Q1739.66 259.905 1742.81 264.511 Q1745.98 269.094 1745.98 277.844 Q1745.98 286.016 1742.09 290.9 Q1738.23 295.761 1731.67 295.761 Q1729.92 295.761 1728.11 295.414 Q1726.3 295.066 1724.36 294.372 M1733.67 279.719 Q1736.81 279.719 1738.64 277.566 Q1740.49 275.414 1740.49 271.664 Q1740.49 267.937 1738.64 265.784 Q1736.81 263.608 1733.67 263.608 Q1730.52 263.608 1728.67 265.784 Q1726.84 267.937 1726.84 271.664 Q1726.84 275.414 1728.67 277.566 Q1730.52 279.719 1733.67 279.719 Z" fill="#000000" fill-rule="evenodd" fill-opacity="1" /><path clip-path="url(#clip760)" d="M 0 0 M1751.1 260.53 L1769.45 260.53 L1769.45 264.465 L1755.38 264.465 L1755.38 272.937 Q1756.4 272.59 1757.42 272.428 Q1758.43 272.242 1759.45 272.242 Q1765.24 272.242 1768.62 275.414 Q1772 278.585 1772 284.002 Q1772 289.58 1768.53 292.682 Q1765.05 295.761 1758.73 295.761 Q1756.56 295.761 1754.29 295.39 Q1752.04 295.02 1749.64 294.279 L1749.64 289.58 Q1751.72 290.715 1753.94 291.27 Q1756.17 291.826 1758.64 291.826 Q1762.65 291.826 1764.98 289.719 Q1767.32 287.613 1767.32 284.002 Q1767.32 280.391 1764.98 278.284 Q1762.65 276.178 1758.64 276.178 Q1756.77 276.178 1754.89 276.594 Q1753.04 277.011 1751.1 277.891 L1751.1 260.53 Z" fill="#000000" fill-rule="evenodd" fill-opacity="1" /><polyline clip-path="url(#clip760)" style="stroke:#0000ff; stroke-width:4; stroke-opacity:1; fill:none" points="
  1519.75,338.29 1670.81,338.29 
  "/>
<path clip-path="url(#clip760)" d="M 0 0 M1716.33 334.621 Q1717.92 331.75 1720.15 330.385 Q1722.37 329.019 1725.38 329.019 Q1729.43 329.019 1731.63 331.866 Q1733.83 334.69 1733.83 339.921 L1733.83 355.57 L1729.54 355.57 L1729.54 340.06 Q1729.54 336.334 1728.23 334.528 Q1726.91 332.722 1724.2 332.722 Q1720.89 332.722 1718.97 334.922 Q1717.04 337.121 1717.04 340.917 L1717.04 355.57 L1712.76 355.57 L1712.76 340.06 Q1712.76 336.31 1711.44 334.528 Q1710.12 332.722 1707.37 332.722 Q1704.11 332.722 1702.18 334.945 Q1700.26 337.144 1700.26 340.917 L1700.26 355.57 L1695.98 355.57 L1695.98 329.644 L1700.26 329.644 L1700.26 333.672 Q1701.72 331.287 1703.76 330.153 Q1705.79 329.019 1708.6 329.019 Q1711.42 329.019 1713.39 330.454 Q1715.38 331.889 1716.33 334.621 Z" fill="#000000" fill-rule="evenodd" fill-opacity="1" /><path clip-path="url(#clip760)" d="M 0 0 M1760.47 341.542 L1760.47 343.625 L1740.89 343.625 Q1741.17 348.023 1743.53 350.338 Q1745.91 352.63 1750.15 352.63 Q1752.6 352.63 1754.89 352.028 Q1757.21 351.426 1759.48 350.222 L1759.48 354.25 Q1757.18 355.222 1754.78 355.732 Q1752.37 356.241 1749.89 356.241 Q1743.69 356.241 1740.05 352.63 Q1736.44 349.019 1736.44 342.861 Q1736.44 336.496 1739.87 332.769 Q1743.32 329.019 1749.15 329.019 Q1754.38 329.019 1757.42 332.398 Q1760.47 335.755 1760.47 341.542 M1756.21 340.292 Q1756.17 336.797 1754.24 334.713 Q1752.35 332.63 1749.2 332.63 Q1745.63 332.63 1743.48 334.644 Q1741.35 336.658 1741.03 340.315 L1756.21 340.292 Z" fill="#000000" fill-rule="evenodd" fill-opacity="1" /><path clip-path="url(#clip760)" d="M 0 0 M1776.72 342.537 Q1771.56 342.537 1769.57 343.718 Q1767.58 344.898 1767.58 347.746 Q1767.58 350.014 1769.06 351.357 Q1770.56 352.676 1773.13 352.676 Q1776.67 352.676 1778.8 350.176 Q1780.96 347.653 1780.96 343.486 L1780.96 342.537 L1776.72 342.537 M1785.22 340.778 L1785.22 355.57 L1780.96 355.57 L1780.96 351.634 Q1779.5 353.995 1777.32 355.13 Q1775.15 356.241 1772 356.241 Q1768.02 356.241 1765.66 354.019 Q1763.32 351.773 1763.32 348.023 Q1763.32 343.648 1766.23 341.426 Q1769.17 339.204 1774.98 339.204 L1780.96 339.204 L1780.96 338.787 Q1780.96 335.847 1779.01 334.25 Q1777.09 332.63 1773.6 332.63 Q1771.37 332.63 1769.27 333.162 Q1767.16 333.695 1765.22 334.759 L1765.22 330.824 Q1767.55 329.922 1769.75 329.482 Q1771.95 329.019 1774.04 329.019 Q1779.66 329.019 1782.44 331.935 Q1785.22 334.852 1785.22 340.778 Z" fill="#000000" fill-rule="evenodd" fill-opacity="1" /><path clip-path="url(#clip760)" d="M 0 0 M1811.23 339.921 L1811.23 355.57 L1806.97 355.57 L1806.97 340.06 Q1806.97 336.38 1805.54 334.551 Q1804.1 332.722 1801.23 332.722 Q1797.79 332.722 1795.79 334.922 Q1793.8 337.121 1793.8 340.917 L1793.8 355.57 L1789.52 355.57 L1789.52 329.644 L1793.8 329.644 L1793.8 333.672 Q1795.33 331.334 1797.39 330.176 Q1799.48 329.019 1802.18 329.019 Q1806.65 329.019 1808.94 331.797 Q1811.23 334.551 1811.23 339.921 Z" fill="#000000" fill-rule="evenodd" fill-opacity="1" /><polyline clip-path="url(#clip760)" style="stroke:#000000; stroke-width:4; stroke-opacity:1; fill:none" points="
  1519.75,398.77 1670.81,398.77 
  "/>
<path clip-path="url(#clip760)" d="M 0 0 M1716.33 395.101 Q1717.92 392.23 1720.15 390.865 Q1722.37 389.499 1725.38 389.499 Q1729.43 389.499 1731.63 392.346 Q1733.83 395.17 1733.83 400.401 L1733.83 416.05 L1729.54 416.05 L1729.54 400.54 Q1729.54 396.814 1728.23 395.008 Q1726.91 393.202 1724.2 393.202 Q1720.89 393.202 1718.97 395.402 Q1717.04 397.601 1717.04 401.397 L1717.04 416.05 L1712.76 416.05 L1712.76 400.54 Q1712.76 396.79 1711.44 395.008 Q1710.12 393.202 1707.37 393.202 Q1704.11 393.202 1702.18 395.425 Q1700.26 397.624 1700.26 401.397 L1700.26 416.05 L1695.98 416.05 L1695.98 390.124 L1700.26 390.124 L1700.26 394.152 Q1701.72 391.767 1703.76 390.633 Q1705.79 389.499 1708.6 389.499 Q1711.42 389.499 1713.39 390.934 Q1715.38 392.369 1716.33 395.101 Z" fill="#000000" fill-rule="evenodd" fill-opacity="1" /><path clip-path="url(#clip760)" d="M 0 0 M1760.47 402.022 L1760.47 404.105 L1740.89 404.105 Q1741.17 408.503 1743.53 410.818 Q1745.91 413.11 1750.15 413.11 Q1752.6 413.11 1754.89 412.508 Q1757.21 411.906 1759.48 410.702 L1759.48 414.73 Q1757.18 415.702 1754.78 416.212 Q1752.37 416.721 1749.89 416.721 Q1743.69 416.721 1740.05 413.11 Q1736.44 409.499 1736.44 403.341 Q1736.44 396.976 1739.87 393.249 Q1743.32 389.499 1749.15 389.499 Q1754.38 389.499 1757.42 392.878 Q1760.47 396.235 1760.47 402.022 M1756.21 400.772 Q1756.17 397.277 1754.24 395.193 Q1752.35 393.11 1749.2 393.11 Q1745.63 393.11 1743.48 395.124 Q1741.35 397.138 1741.03 400.795 L1756.21 400.772 Z" fill="#000000" fill-rule="evenodd" fill-opacity="1" /><path clip-path="url(#clip760)" d="M 0 0 M1782 394.059 L1782 380.031 L1786.26 380.031 L1786.26 416.05 L1782 416.05 L1782 412.161 Q1780.66 414.475 1778.6 415.61 Q1776.56 416.721 1773.69 416.721 Q1768.99 416.721 1766.03 412.971 Q1763.09 409.221 1763.09 403.11 Q1763.09 396.999 1766.03 393.249 Q1768.99 389.499 1773.69 389.499 Q1776.56 389.499 1778.6 390.633 Q1780.66 391.744 1782 394.059 M1767.48 403.11 Q1767.48 407.809 1769.41 410.494 Q1771.35 413.156 1774.73 413.156 Q1778.11 413.156 1780.05 410.494 Q1782 407.809 1782 403.11 Q1782 398.411 1780.05 395.749 Q1778.11 393.064 1774.73 393.064 Q1771.35 393.064 1769.41 395.749 Q1767.48 398.411 1767.48 403.11 Z" fill="#000000" fill-rule="evenodd" fill-opacity="1" /><path clip-path="url(#clip760)" d="M 0 0 M1790.73 390.124 L1794.98 390.124 L1794.98 416.05 L1790.73 416.05 L1790.73 390.124 M1790.73 380.031 L1794.98 380.031 L1794.98 385.425 L1790.73 385.425 L1790.73 380.031 Z" fill="#000000" fill-rule="evenodd" fill-opacity="1" /><path clip-path="url(#clip760)" d="M 0 0 M1811.23 403.017 Q1806.07 403.017 1804.08 404.198 Q1802.09 405.378 1802.09 408.226 Q1802.09 410.494 1803.57 411.837 Q1805.08 413.156 1807.65 413.156 Q1811.19 413.156 1813.32 410.656 Q1815.47 408.133 1815.47 403.966 L1815.47 403.017 L1811.23 403.017 M1819.73 401.258 L1819.73 416.05 L1815.47 416.05 L1815.47 412.114 Q1814.01 414.475 1811.84 415.61 Q1809.66 416.721 1806.51 416.721 Q1802.53 416.721 1800.17 414.499 Q1797.83 412.253 1797.83 408.503 Q1797.83 404.128 1800.75 401.906 Q1803.69 399.684 1809.5 399.684 L1815.47 399.684 L1815.47 399.267 Q1815.47 396.327 1813.53 394.73 Q1811.6 393.11 1808.11 393.11 Q1805.89 393.11 1803.78 393.642 Q1801.67 394.175 1799.73 395.239 L1799.73 391.304 Q1802.07 390.402 1804.27 389.962 Q1806.47 389.499 1808.55 389.499 Q1814.17 389.499 1816.95 392.415 Q1819.73 395.332 1819.73 401.258 Z" fill="#000000" fill-rule="evenodd" fill-opacity="1" /><path clip-path="url(#clip760)" d="M 0 0 M1845.75 400.401 L1845.75 416.05 L1841.49 416.05 L1841.49 400.54 Q1841.49 396.86 1840.05 395.031 Q1838.62 393.202 1835.75 393.202 Q1832.3 393.202 1830.31 395.402 Q1828.32 397.601 1828.32 401.397 L1828.32 416.05 L1824.04 416.05 L1824.04 390.124 L1828.32 390.124 L1828.32 394.152 Q1829.85 391.814 1831.91 390.656 Q1833.99 389.499 1836.7 389.499 Q1841.16 389.499 1843.46 392.277 Q1845.75 395.031 1845.75 400.401 Z" fill="#000000" fill-rule="evenodd" fill-opacity="1" /></svg>
