<?xml version="1.0" encoding="utf-8"?>
<svg xmlns="http://www.w3.org/2000/svg" xmlns:xlink="http://www.w3.org/1999/xlink" width="600" height="400" viewBox="0 0 2400 1600">
<defs>
  <clipPath id="clip390">
    <rect x="0" y="0" width="2400" height="1600"/>
  </clipPath>
</defs>
<path clip-path="url(#clip390)" d="
M0 1600 L2400 1600 L2400 0 L0 0  Z
  " fill="#ffffff" fill-rule="evenodd" fill-opacity="1"/>
<defs>
  <clipPath id="clip391">
    <rect x="480" y="0" width="1681" height="1600"/>
  </clipPath>
</defs>
<path clip-path="url(#clip390)" d="
M163.936 1486.45 L2352.76 1486.45 L2352.76 47.2441 L163.936 47.2441  Z
  " fill="#ffffff" fill-rule="evenodd" fill-opacity="1"/>
<defs>
  <clipPath id="clip392">
    <rect x="163" y="47" width="2190" height="1440"/>
  </clipPath>
</defs>
<polyline clip-path="url(#clip392)" style="stroke:#000000; stroke-width:2; stroke-opacity:0.1; fill:none" points="
  547.305,1486.45 547.305,47.2441 
  "/>
<polyline clip-path="url(#clip392)" style="stroke:#000000; stroke-width:2; stroke-opacity:0.1; fill:none" points="
  1049.22,1486.45 1049.22,47.2441 
  "/>
<polyline clip-path="url(#clip392)" style="stroke:#000000; stroke-width:2; stroke-opacity:0.1; fill:none" points="
  1551.13,1486.45 1551.13,47.2441 
  "/>
<polyline clip-path="url(#clip392)" style="stroke:#000000; stroke-width:2; stroke-opacity:0.1; fill:none" points="
  2053.04,1486.45 2053.04,47.2441 
  "/>
<polyline clip-path="url(#clip392)" style="stroke:#000000; stroke-width:2; stroke-opacity:0.1; fill:none" points="
  163.936,1462.24 2352.76,1462.24 
  "/>
<polyline clip-path="url(#clip392)" style="stroke:#000000; stroke-width:2; stroke-opacity:0.1; fill:none" points="
  163.936,1246.57 2352.76,1246.57 
  "/>
<polyline clip-path="url(#clip392)" style="stroke:#000000; stroke-width:2; stroke-opacity:0.1; fill:none" points="
  163.936,1030.9 2352.76,1030.9 
  "/>
<polyline clip-path="url(#clip392)" style="stroke:#000000; stroke-width:2; stroke-opacity:0.1; fill:none" points="
  163.936,815.24 2352.76,815.24 
  "/>
<polyline clip-path="url(#clip392)" style="stroke:#000000; stroke-width:2; stroke-opacity:0.1; fill:none" points="
  163.936,599.574 2352.76,599.574 
  "/>
<polyline clip-path="url(#clip392)" style="stroke:#000000; stroke-width:2; stroke-opacity:0.1; fill:none" points="
  163.936,383.909 2352.76,383.909 
  "/>
<polyline clip-path="url(#clip392)" style="stroke:#000000; stroke-width:2; stroke-opacity:0.1; fill:none" points="
  163.936,168.244 2352.76,168.244 
  "/>
<polyline clip-path="url(#clip390)" style="stroke:#000000; stroke-width:4; stroke-opacity:1; fill:none" points="
  163.936,1486.45 2352.76,1486.45 
  "/>
<polyline clip-path="url(#clip390)" style="stroke:#000000; stroke-width:4; stroke-opacity:1; fill:none" points="
  163.936,1486.45 163.936,47.2441 
  "/>
<polyline clip-path="url(#clip390)" style="stroke:#000000; stroke-width:4; stroke-opacity:1; fill:none" points="
  547.305,1486.45 547.305,1469.18 
  "/>
<polyline clip-path="url(#clip390)" style="stroke:#000000; stroke-width:4; stroke-opacity:1; fill:none" points="
  1049.22,1486.45 1049.22,1469.18 
  "/>
<polyline clip-path="url(#clip390)" style="stroke:#000000; stroke-width:4; stroke-opacity:1; fill:none" points="
  1551.13,1486.45 1551.13,1469.18 
  "/>
<polyline clip-path="url(#clip390)" style="stroke:#000000; stroke-width:4; stroke-opacity:1; fill:none" points="
  2053.04,1486.45 2053.04,1469.18 
  "/>
<polyline clip-path="url(#clip390)" style="stroke:#000000; stroke-width:4; stroke-opacity:1; fill:none" points="
  163.936,1462.24 190.202,1462.24 
  "/>
<polyline clip-path="url(#clip390)" style="stroke:#000000; stroke-width:4; stroke-opacity:1; fill:none" points="
  163.936,1246.57 190.202,1246.57 
  "/>
<polyline clip-path="url(#clip390)" style="stroke:#000000; stroke-width:4; stroke-opacity:1; fill:none" points="
  163.936,1030.9 190.202,1030.9 
  "/>
<polyline clip-path="url(#clip390)" style="stroke:#000000; stroke-width:4; stroke-opacity:1; fill:none" points="
  163.936,815.24 190.202,815.24 
  "/>
<polyline clip-path="url(#clip390)" style="stroke:#000000; stroke-width:4; stroke-opacity:1; fill:none" points="
  163.936,599.574 190.202,599.574 
  "/>
<polyline clip-path="url(#clip390)" style="stroke:#000000; stroke-width:4; stroke-opacity:1; fill:none" points="
  163.936,383.909 190.202,383.909 
  "/>
<polyline clip-path="url(#clip390)" style="stroke:#000000; stroke-width:4; stroke-opacity:1; fill:none" points="
  163.936,168.244 190.202,168.244 
  "/>
<path clip-path="url(#clip390)" d="M 0 0 M509.122 1525.04 L521.599 1525.04 L521.599 1528.83 L509.122 1528.83 L509.122 1525.04 Z" fill="#000000" fill-rule="evenodd" fill-opacity="1" /><path clip-path="url(#clip390)" d="M 0 0 M536.668 1508.44 Q533.057 1508.44 531.228 1512 Q529.423 1515.55 529.423 1522.67 Q529.423 1529.78 531.228 1533.35 Q533.057 1536.89 536.668 1536.89 Q540.302 1536.89 542.108 1533.35 Q543.936 1529.78 543.936 1522.67 Q543.936 1515.55 542.108 1512 Q540.302 1508.44 536.668 1508.44 M536.668 1504.73 Q542.478 1504.73 545.534 1509.34 Q548.612 1513.92 548.612 1522.67 Q548.612 1531.4 545.534 1536.01 Q542.478 1540.59 536.668 1540.59 Q530.858 1540.59 527.779 1536.01 Q524.724 1531.4 524.724 1522.67 Q524.724 1513.92 527.779 1509.34 Q530.858 1504.73 536.668 1504.73 Z" fill="#000000" fill-rule="evenodd" fill-opacity="1" /><path clip-path="url(#clip390)" d="M 0 0 M553.682 1534.04 L558.566 1534.04 L558.566 1539.92 L553.682 1539.92 L553.682 1534.04 Z" fill="#000000" fill-rule="evenodd" fill-opacity="1" /><path clip-path="url(#clip390)" d="M 0 0 M573.635 1523.51 Q570.302 1523.51 568.381 1525.29 Q566.483 1527.07 566.483 1530.2 Q566.483 1533.32 568.381 1535.11 Q570.302 1536.89 573.635 1536.89 Q576.969 1536.89 578.89 1535.11 Q580.811 1533.3 580.811 1530.2 Q580.811 1527.07 578.89 1525.29 Q576.992 1523.51 573.635 1523.51 M568.959 1521.52 Q565.95 1520.78 564.26 1518.72 Q562.594 1516.66 562.594 1513.69 Q562.594 1509.55 565.534 1507.14 Q568.497 1504.73 573.635 1504.73 Q578.797 1504.73 581.737 1507.14 Q584.677 1509.55 584.677 1513.69 Q584.677 1516.66 582.987 1518.72 Q581.321 1520.78 578.334 1521.52 Q581.714 1522.3 583.589 1524.6 Q585.487 1526.89 585.487 1530.2 Q585.487 1535.22 582.408 1537.91 Q579.353 1540.59 573.635 1540.59 Q567.918 1540.59 564.839 1537.91 Q561.784 1535.22 561.784 1530.2 Q561.784 1526.89 563.682 1524.6 Q565.58 1522.3 568.959 1521.52 M567.247 1514.13 Q567.247 1516.82 568.913 1518.32 Q570.603 1519.83 573.635 1519.83 Q576.645 1519.83 578.334 1518.32 Q580.047 1516.82 580.047 1514.13 Q580.047 1511.45 578.334 1509.94 Q576.645 1508.44 573.635 1508.44 Q570.603 1508.44 568.913 1509.94 Q567.247 1511.45 567.247 1514.13 Z" fill="#000000" fill-rule="evenodd" fill-opacity="1" /><path clip-path="url(#clip390)" d="M 0 0 M1010.91 1525.04 L1023.38 1525.04 L1023.38 1528.83 L1010.91 1528.83 L1010.91 1525.04 Z" fill="#000000" fill-rule="evenodd" fill-opacity="1" /><path clip-path="url(#clip390)" d="M 0 0 M1038.45 1508.44 Q1034.84 1508.44 1033.01 1512 Q1031.21 1515.55 1031.21 1522.67 Q1031.21 1529.78 1033.01 1533.35 Q1034.84 1536.89 1038.45 1536.89 Q1042.09 1536.89 1043.89 1533.35 Q1045.72 1529.78 1045.72 1522.67 Q1045.72 1515.55 1043.89 1512 Q1042.09 1508.44 1038.45 1508.44 M1038.45 1504.73 Q1044.26 1504.73 1047.32 1509.34 Q1050.4 1513.92 1050.4 1522.67 Q1050.4 1531.4 1047.32 1536.01 Q1044.26 1540.59 1038.45 1540.59 Q1032.64 1540.59 1029.56 1536.01 Q1026.51 1531.4 1026.51 1522.67 Q1026.51 1513.92 1029.56 1509.34 Q1032.64 1504.73 1038.45 1504.73 Z" fill="#000000" fill-rule="evenodd" fill-opacity="1" /><path clip-path="url(#clip390)" d="M 0 0 M1055.47 1534.04 L1060.35 1534.04 L1060.35 1539.92 L1055.47 1539.92 L1055.47 1534.04 Z" fill="#000000" fill-rule="evenodd" fill-opacity="1" /><path clip-path="url(#clip390)" d="M 0 0 M1076 1520.78 Q1072.85 1520.78 1071 1522.93 Q1069.17 1525.08 1069.17 1528.83 Q1069.17 1532.56 1071 1534.73 Q1072.85 1536.89 1076 1536.89 Q1079.15 1536.89 1080.97 1534.73 Q1082.83 1532.56 1082.83 1528.83 Q1082.83 1525.08 1080.97 1522.93 Q1079.15 1520.78 1076 1520.78 M1085.28 1506.12 L1085.28 1510.38 Q1083.52 1509.55 1081.72 1509.11 Q1079.93 1508.67 1078.17 1508.67 Q1073.54 1508.67 1071.09 1511.8 Q1068.66 1514.92 1068.31 1521.24 Q1069.68 1519.23 1071.74 1518.16 Q1073.8 1517.07 1076.28 1517.07 Q1081.48 1517.07 1084.49 1520.24 Q1087.53 1523.39 1087.53 1528.83 Q1087.53 1534.16 1084.38 1537.37 Q1081.23 1540.59 1076 1540.59 Q1070 1540.59 1066.83 1536.01 Q1063.66 1531.4 1063.66 1522.67 Q1063.66 1514.48 1067.55 1509.62 Q1071.44 1504.73 1077.99 1504.73 Q1079.75 1504.73 1081.53 1505.08 Q1083.34 1505.43 1085.28 1506.12 Z" fill="#000000" fill-rule="evenodd" fill-opacity="1" /><path clip-path="url(#clip390)" d="M 0 0 M1512.65 1525.04 L1525.13 1525.04 L1525.13 1528.83 L1512.65 1528.83 L1512.65 1525.04 Z" fill="#000000" fill-rule="evenodd" fill-opacity="1" /><path clip-path="url(#clip390)" d="M 0 0 M1540.2 1508.44 Q1536.59 1508.44 1534.76 1512 Q1532.95 1515.55 1532.95 1522.67 Q1532.95 1529.78 1534.76 1533.35 Q1536.59 1536.89 1540.2 1536.89 Q1543.83 1536.89 1545.64 1533.35 Q1547.47 1529.78 1547.47 1522.67 Q1547.47 1515.55 1545.64 1512 Q1543.83 1508.44 1540.2 1508.44 M1540.2 1504.73 Q1546.01 1504.73 1549.07 1509.34 Q1552.14 1513.92 1552.14 1522.67 Q1552.14 1531.4 1549.07 1536.01 Q1546.01 1540.59 1540.2 1540.59 Q1534.39 1540.59 1531.31 1536.01 Q1528.26 1531.4 1528.26 1522.67 Q1528.26 1513.92 1531.31 1509.34 Q1534.39 1504.73 1540.2 1504.73 Z" fill="#000000" fill-rule="evenodd" fill-opacity="1" /><path clip-path="url(#clip390)" d="M 0 0 M1557.21 1534.04 L1562.1 1534.04 L1562.1 1539.92 L1557.21 1539.92 L1557.21 1534.04 Z" fill="#000000" fill-rule="evenodd" fill-opacity="1" /><path clip-path="url(#clip390)" d="M 0 0 M1580.01 1509.43 L1568.21 1527.88 L1580.01 1527.88 L1580.01 1509.43 M1578.79 1505.36 L1584.67 1505.36 L1584.67 1527.88 L1589.6 1527.88 L1589.6 1531.77 L1584.67 1531.77 L1584.67 1539.92 L1580.01 1539.92 L1580.01 1531.77 L1564.41 1531.77 L1564.41 1527.26 L1578.79 1505.36 Z" fill="#000000" fill-rule="evenodd" fill-opacity="1" /><path clip-path="url(#clip390)" d="M 0 0 M2015.61 1525.04 L2028.08 1525.04 L2028.08 1528.83 L2015.61 1528.83 L2015.61 1525.04 Z" fill="#000000" fill-rule="evenodd" fill-opacity="1" /><path clip-path="url(#clip390)" d="M 0 0 M2043.15 1508.44 Q2039.54 1508.44 2037.71 1512 Q2035.91 1515.55 2035.91 1522.67 Q2035.91 1529.78 2037.71 1533.35 Q2039.54 1536.89 2043.15 1536.89 Q2046.79 1536.89 2048.59 1533.35 Q2050.42 1529.78 2050.42 1522.67 Q2050.42 1515.55 2048.59 1512 Q2046.79 1508.44 2043.15 1508.44 M2043.15 1504.73 Q2048.96 1504.73 2052.02 1509.34 Q2055.1 1513.92 2055.1 1522.67 Q2055.1 1531.4 2052.02 1536.01 Q2048.96 1540.59 2043.15 1540.59 Q2037.34 1540.59 2034.26 1536.01 Q2031.21 1531.4 2031.21 1522.67 Q2031.21 1513.92 2034.26 1509.34 Q2037.34 1504.73 2043.15 1504.73 Z" fill="#000000" fill-rule="evenodd" fill-opacity="1" /><path clip-path="url(#clip390)" d="M 0 0 M2060.17 1534.04 L2065.05 1534.04 L2065.05 1539.92 L2060.17 1539.92 L2060.17 1534.04 Z" fill="#000000" fill-rule="evenodd" fill-opacity="1" /><path clip-path="url(#clip390)" d="M 0 0 M2074.15 1535.98 L2090.47 1535.98 L2090.47 1539.92 L2068.52 1539.92 L2068.52 1535.98 Q2071.19 1533.23 2075.77 1528.6 Q2080.37 1523.95 2081.56 1522.61 Q2083.8 1520.08 2084.68 1518.35 Q2085.58 1516.59 2085.58 1514.9 Q2085.58 1512.14 2083.64 1510.41 Q2081.72 1508.67 2078.62 1508.67 Q2076.42 1508.67 2073.96 1509.43 Q2071.53 1510.2 2068.75 1511.75 L2068.75 1507.03 Q2071.58 1505.89 2074.03 1505.31 Q2076.49 1504.73 2078.52 1504.73 Q2083.89 1504.73 2087.09 1507.42 Q2090.28 1510.11 2090.28 1514.6 Q2090.28 1516.73 2089.47 1518.65 Q2088.68 1520.54 2086.58 1523.14 Q2086 1523.81 2082.9 1527.03 Q2079.8 1530.22 2074.15 1535.98 Z" fill="#000000" fill-rule="evenodd" fill-opacity="1" /><path clip-path="url(#clip390)" d="M 0 0 M63.5708 1464.63 L76.0476 1464.63 L76.0476 1468.43 L63.5708 1468.43 L63.5708 1464.63 Z" fill="#000000" fill-rule="evenodd" fill-opacity="1" /><path clip-path="url(#clip390)" d="M 0 0 M91.117 1448.03 Q87.5059 1448.03 85.6772 1451.6 Q83.8716 1455.14 83.8716 1462.27 Q83.8716 1469.38 85.6772 1472.94 Q87.5059 1476.48 91.117 1476.48 Q94.7512 1476.48 96.5568 1472.94 Q98.3855 1469.38 98.3855 1462.27 Q98.3855 1455.14 96.5568 1451.6 Q94.7512 1448.03 91.117 1448.03 M91.117 1444.33 Q96.9271 1444.33 99.9827 1448.94 Q103.061 1453.52 103.061 1462.27 Q103.061 1471 99.9827 1475.6 Q96.9271 1480.19 91.117 1480.19 Q85.3068 1480.19 82.2281 1475.6 Q79.1726 1471 79.1726 1462.27 Q79.1726 1453.52 82.2281 1448.94 Q85.3068 1444.33 91.117 1444.33 Z" fill="#000000" fill-rule="evenodd" fill-opacity="1" /><path clip-path="url(#clip390)" d="M 0 0 M108.131 1473.64 L113.015 1473.64 L113.015 1479.52 L108.131 1479.52 L108.131 1473.64 Z" fill="#000000" fill-rule="evenodd" fill-opacity="1" /><path clip-path="url(#clip390)" d="M 0 0 M128.084 1463.1 Q124.751 1463.1 122.83 1464.89 Q120.932 1466.67 120.932 1469.79 Q120.932 1472.92 122.83 1474.7 Q124.751 1476.48 128.084 1476.48 Q131.418 1476.48 133.339 1474.7 Q135.26 1472.89 135.26 1469.79 Q135.26 1466.67 133.339 1464.89 Q131.441 1463.1 128.084 1463.1 M123.408 1461.11 Q120.399 1460.37 118.709 1458.31 Q117.043 1456.25 117.043 1453.29 Q117.043 1449.14 119.983 1446.74 Q122.946 1444.33 128.084 1444.33 Q133.246 1444.33 136.186 1446.74 Q139.126 1449.14 139.126 1453.29 Q139.126 1456.25 137.436 1458.31 Q135.77 1460.37 132.783 1461.11 Q136.163 1461.9 138.038 1464.19 Q139.936 1466.48 139.936 1469.79 Q139.936 1474.82 136.857 1477.5 Q133.802 1480.19 128.084 1480.19 Q122.367 1480.19 119.288 1477.5 Q116.233 1474.82 116.233 1469.79 Q116.233 1466.48 118.131 1464.19 Q120.029 1461.9 123.408 1461.11 M121.696 1453.73 Q121.696 1456.41 123.362 1457.92 Q125.052 1459.42 128.084 1459.42 Q131.094 1459.42 132.783 1457.92 Q134.496 1456.41 134.496 1453.73 Q134.496 1451.04 132.783 1449.54 Q131.094 1448.03 128.084 1448.03 Q125.052 1448.03 123.362 1449.54 Q121.696 1451.04 121.696 1453.73 Z" fill="#000000" fill-rule="evenodd" fill-opacity="1" /><path clip-path="url(#clip390)" d="M 0 0 M64.381 1248.97 L76.8578 1248.97 L76.8578 1252.76 L64.381 1252.76 L64.381 1248.97 Z" fill="#000000" fill-rule="evenodd" fill-opacity="1" /><path clip-path="url(#clip390)" d="M 0 0 M91.9272 1232.37 Q88.3161 1232.37 86.4874 1235.93 Q84.6818 1239.48 84.6818 1246.6 Q84.6818 1253.71 86.4874 1257.28 Q88.3161 1260.82 91.9272 1260.82 Q95.5614 1260.82 97.3669 1257.28 Q99.1956 1253.71 99.1956 1246.6 Q99.1956 1239.48 97.3669 1235.93 Q95.5614 1232.37 91.9272 1232.37 M91.9272 1228.66 Q97.7373 1228.66 100.793 1233.27 Q103.872 1237.85 103.872 1246.6 Q103.872 1255.33 100.793 1259.94 Q97.7373 1264.52 91.9272 1264.52 Q86.117 1264.52 83.0383 1259.94 Q79.9828 1255.33 79.9828 1246.6 Q79.9828 1237.85 83.0383 1233.27 Q86.117 1228.66 91.9272 1228.66 Z" fill="#000000" fill-rule="evenodd" fill-opacity="1" /><path clip-path="url(#clip390)" d="M 0 0 M108.941 1257.97 L113.825 1257.97 L113.825 1263.85 L108.941 1263.85 L108.941 1257.97 Z" fill="#000000" fill-rule="evenodd" fill-opacity="1" /><path clip-path="url(#clip390)" d="M 0 0 M117.714 1229.29 L139.936 1229.29 L139.936 1231.28 L127.39 1263.85 L122.506 1263.85 L134.311 1233.23 L117.714 1233.23 L117.714 1229.29 Z" fill="#000000" fill-rule="evenodd" fill-opacity="1" /><path clip-path="url(#clip390)" d="M 0 0 M63.3162 1033.3 L75.793 1033.3 L75.793 1037.1 L63.3162 1037.1 L63.3162 1033.3 Z" fill="#000000" fill-rule="evenodd" fill-opacity="1" /><path clip-path="url(#clip390)" d="M 0 0 M90.8623 1016.7 Q87.2513 1016.7 85.4226 1020.27 Q83.617 1023.81 83.617 1030.94 Q83.617 1038.05 85.4226 1041.61 Q87.2513 1045.15 90.8623 1045.15 Q94.4966 1045.15 96.3021 1041.61 Q98.1308 1038.05 98.1308 1030.94 Q98.1308 1023.81 96.3021 1020.27 Q94.4966 1016.7 90.8623 1016.7 M90.8623 1013 Q96.6725 1013 99.728 1017.61 Q102.807 1022.19 102.807 1030.94 Q102.807 1039.67 99.728 1044.27 Q96.6725 1048.86 90.8623 1048.86 Q85.0522 1048.86 81.9735 1044.27 Q78.918 1039.67 78.918 1030.94 Q78.918 1022.19 81.9735 1017.61 Q85.0522 1013 90.8623 1013 Z" fill="#000000" fill-rule="evenodd" fill-opacity="1" /><path clip-path="url(#clip390)" d="M 0 0 M107.876 1042.31 L112.76 1042.31 L112.76 1048.18 L107.876 1048.18 L107.876 1042.31 Z" fill="#000000" fill-rule="evenodd" fill-opacity="1" /><path clip-path="url(#clip390)" d="M 0 0 M128.408 1029.04 Q125.26 1029.04 123.408 1031.19 Q121.58 1033.35 121.58 1037.1 Q121.58 1040.82 123.408 1043 Q125.26 1045.15 128.408 1045.15 Q131.557 1045.15 133.385 1043 Q135.237 1040.82 135.237 1037.1 Q135.237 1033.35 133.385 1031.19 Q131.557 1029.04 128.408 1029.04 M137.691 1014.39 L137.691 1018.65 Q135.932 1017.81 134.126 1017.37 Q132.344 1016.93 130.584 1016.93 Q125.955 1016.93 123.501 1020.06 Q121.071 1023.18 120.723 1029.5 Q122.089 1027.49 124.149 1026.43 Q126.209 1025.34 128.686 1025.34 Q133.895 1025.34 136.904 1028.51 Q139.936 1031.66 139.936 1037.1 Q139.936 1042.42 136.788 1045.64 Q133.64 1048.86 128.408 1048.86 Q122.413 1048.86 119.242 1044.27 Q116.071 1039.67 116.071 1030.94 Q116.071 1022.75 119.959 1017.88 Q123.848 1013 130.399 1013 Q132.158 1013 133.941 1013.35 Q135.746 1013.69 137.691 1014.39 Z" fill="#000000" fill-rule="evenodd" fill-opacity="1" /><path clip-path="url(#clip390)" d="M 0 0 M64.4736 817.635 L76.9504 817.635 L76.9504 821.432 L64.4736 821.432 L64.4736 817.635 Z" fill="#000000" fill-rule="evenodd" fill-opacity="1" /><path clip-path="url(#clip390)" d="M 0 0 M92.0197 801.038 Q88.4087 801.038 86.58 804.603 Q84.7744 808.145 84.7744 815.274 Q84.7744 822.381 86.58 825.946 Q88.4087 829.487 92.0197 829.487 Q95.654 829.487 97.4595 825.946 Q99.2882 822.381 99.2882 815.274 Q99.2882 808.145 97.4595 804.603 Q95.654 801.038 92.0197 801.038 M92.0197 797.335 Q97.8299 797.335 100.885 801.941 Q103.964 806.524 103.964 815.274 Q103.964 824.001 100.885 828.608 Q97.8299 833.191 92.0197 833.191 Q86.2096 833.191 83.1309 828.608 Q80.0754 824.001 80.0754 815.274 Q80.0754 806.524 83.1309 801.941 Q86.2096 797.335 92.0197 797.335 Z" fill="#000000" fill-rule="evenodd" fill-opacity="1" /><path clip-path="url(#clip390)" d="M 0 0 M109.034 826.64 L113.918 826.64 L113.918 832.52 L109.034 832.52 L109.034 826.64 Z" fill="#000000" fill-rule="evenodd" fill-opacity="1" /><path clip-path="url(#clip390)" d="M 0 0 M119.033 797.96 L137.39 797.96 L137.39 801.895 L123.316 801.895 L123.316 810.367 Q124.334 810.02 125.353 809.858 Q126.371 809.672 127.39 809.672 Q133.177 809.672 136.557 812.844 Q139.936 816.015 139.936 821.432 Q139.936 827.01 136.464 830.112 Q132.992 833.191 126.672 833.191 Q124.496 833.191 122.228 832.82 Q119.983 832.45 117.575 831.709 L117.575 827.01 Q119.658 828.145 121.881 828.7 Q124.103 829.256 126.58 829.256 Q130.584 829.256 132.922 827.149 Q135.26 825.043 135.26 821.432 Q135.26 817.821 132.922 815.714 Q130.584 813.608 126.58 813.608 Q124.705 813.608 122.83 814.024 Q120.978 814.441 119.033 815.321 L119.033 797.96 Z" fill="#000000" fill-rule="evenodd" fill-opacity="1" /><path clip-path="url(#clip390)" d="M 0 0 M62.9921 601.97 L75.4689 601.97 L75.4689 605.766 L62.9921 605.766 L62.9921 601.97 Z" fill="#000000" fill-rule="evenodd" fill-opacity="1" /><path clip-path="url(#clip390)" d="M 0 0 M90.5383 585.373 Q86.9272 585.373 85.0985 588.938 Q83.2929 592.48 83.2929 599.609 Q83.2929 606.716 85.0985 610.28 Q86.9272 613.822 90.5383 613.822 Q94.1725 613.822 95.9781 610.28 Q97.8068 606.716 97.8068 599.609 Q97.8068 592.48 95.9781 588.938 Q94.1725 585.373 90.5383 585.373 M90.5383 581.669 Q96.3484 581.669 99.404 586.276 Q102.483 590.859 102.483 599.609 Q102.483 608.336 99.404 612.942 Q96.3484 617.526 90.5383 617.526 Q84.7281 617.526 81.6494 612.942 Q78.5939 608.336 78.5939 599.609 Q78.5939 590.859 81.6494 586.276 Q84.7281 581.669 90.5383 581.669 Z" fill="#000000" fill-rule="evenodd" fill-opacity="1" /><path clip-path="url(#clip390)" d="M 0 0 M107.552 610.975 L112.436 610.975 L112.436 616.854 L107.552 616.854 L107.552 610.975 Z" fill="#000000" fill-rule="evenodd" fill-opacity="1" /><path clip-path="url(#clip390)" d="M 0 0 M130.353 586.368 L118.547 604.817 L130.353 604.817 L130.353 586.368 M129.126 582.294 L135.006 582.294 L135.006 604.817 L139.936 604.817 L139.936 608.706 L135.006 608.706 L135.006 616.854 L130.353 616.854 L130.353 608.706 L114.751 608.706 L114.751 604.192 L129.126 582.294 Z" fill="#000000" fill-rule="evenodd" fill-opacity="1" /><path clip-path="url(#clip390)" d="M 0 0 M64.1264 386.305 L76.6032 386.305 L76.6032 390.101 L64.1264 390.101 L64.1264 386.305 Z" fill="#000000" fill-rule="evenodd" fill-opacity="1" /><path clip-path="url(#clip390)" d="M 0 0 M91.6725 369.708 Q88.0614 369.708 86.2327 373.273 Q84.4272 376.814 84.4272 383.944 Q84.4272 391.05 86.2327 394.615 Q88.0614 398.157 91.6725 398.157 Q95.3068 398.157 97.1123 394.615 Q98.941 391.05 98.941 383.944 Q98.941 376.814 97.1123 373.273 Q95.3068 369.708 91.6725 369.708 M91.6725 366.004 Q97.4827 366.004 100.538 370.611 Q103.617 375.194 103.617 383.944 Q103.617 392.671 100.538 397.277 Q97.4827 401.86 91.6725 401.86 Q85.8624 401.86 82.7837 397.277 Q79.7281 392.671 79.7281 383.944 Q79.7281 375.194 82.7837 370.611 Q85.8624 366.004 91.6725 366.004 Z" fill="#000000" fill-rule="evenodd" fill-opacity="1" /><path clip-path="url(#clip390)" d="M 0 0 M108.686 395.31 L113.571 395.31 L113.571 401.189 L108.686 401.189 L108.686 395.31 Z" fill="#000000" fill-rule="evenodd" fill-opacity="1" /><path clip-path="url(#clip390)" d="M 0 0 M132.807 382.555 Q136.163 383.273 138.038 385.541 Q139.936 387.81 139.936 391.143 Q139.936 396.259 136.418 399.06 Q132.899 401.86 126.418 401.86 Q124.242 401.86 121.927 401.421 Q119.635 401.004 117.182 400.148 L117.182 395.634 Q119.126 396.768 121.441 397.347 Q123.756 397.925 126.279 397.925 Q130.677 397.925 132.969 396.189 Q135.283 394.453 135.283 391.143 Q135.283 388.087 133.131 386.374 Q131.001 384.638 127.182 384.638 L123.154 384.638 L123.154 380.796 L127.367 380.796 Q130.816 380.796 132.645 379.43 Q134.473 378.041 134.473 375.449 Q134.473 372.787 132.575 371.375 Q130.7 369.939 127.182 369.939 Q125.26 369.939 123.061 370.356 Q120.862 370.773 118.223 371.652 L118.223 367.486 Q120.885 366.745 123.2 366.375 Q125.538 366.004 127.598 366.004 Q132.922 366.004 136.024 368.435 Q139.126 370.842 139.126 374.962 Q139.126 377.833 137.482 379.824 Q135.839 381.791 132.807 382.555 Z" fill="#000000" fill-rule="evenodd" fill-opacity="1" /><path clip-path="url(#clip390)" d="M 0 0 M65.0754 170.64 L77.5522 170.64 L77.5522 174.436 L65.0754 174.436 L65.0754 170.64 Z" fill="#000000" fill-rule="evenodd" fill-opacity="1" /><path clip-path="url(#clip390)" d="M 0 0 M92.6216 154.043 Q89.0105 154.043 87.1818 157.608 Q85.3763 161.149 85.3763 168.279 Q85.3763 175.385 87.1818 178.95 Q89.0105 182.492 92.6216 182.492 Q96.2558 182.492 98.0614 178.95 Q99.8901 175.385 99.8901 168.279 Q99.8901 161.149 98.0614 157.608 Q96.2558 154.043 92.6216 154.043 M92.6216 150.339 Q98.4318 150.339 101.487 154.945 Q104.566 159.529 104.566 168.279 Q104.566 177.006 101.487 181.612 Q98.4318 186.195 92.6216 186.195 Q86.8114 186.195 83.7328 181.612 Q80.6772 177.006 80.6772 168.279 Q80.6772 159.529 83.7328 154.945 Q86.8114 150.339 92.6216 150.339 Z" fill="#000000" fill-rule="evenodd" fill-opacity="1" /><path clip-path="url(#clip390)" d="M 0 0 M109.635 179.644 L114.52 179.644 L114.52 185.524 L109.635 185.524 L109.635 179.644 Z" fill="#000000" fill-rule="evenodd" fill-opacity="1" /><path clip-path="url(#clip390)" d="M 0 0 M123.617 181.589 L139.936 181.589 L139.936 185.524 L117.992 185.524 L117.992 181.589 Q120.654 178.834 125.237 174.205 Q129.844 169.552 131.024 168.209 Q133.27 165.686 134.149 163.95 Q135.052 162.191 135.052 160.501 Q135.052 157.746 133.107 156.01 Q131.186 154.274 128.084 154.274 Q125.885 154.274 123.432 155.038 Q121.001 155.802 118.223 157.353 L118.223 152.631 Q121.047 151.496 123.501 150.918 Q125.955 150.339 127.992 150.339 Q133.362 150.339 136.557 153.024 Q139.751 155.709 139.751 160.2 Q139.751 162.33 138.941 164.251 Q138.154 166.149 136.047 168.742 Q135.469 169.413 132.367 172.631 Q129.265 175.825 123.617 181.589 Z" fill="#000000" fill-rule="evenodd" fill-opacity="1" /><circle clip-path="url(#clip392)" cx="774.08" cy="1364.13" r="14" fill="#009af9" fill-rule="evenodd" fill-opacity="1" stroke="#000000" stroke-opacity="1" stroke-width="3.2"/>
<circle clip-path="url(#clip392)" cx="1234.15" cy="832.109" r="14" fill="#009af9" fill-rule="evenodd" fill-opacity="1" stroke="#000000" stroke-opacity="1" stroke-width="3.2"/>
<circle clip-path="url(#clip392)" cx="548.684" cy="1445.72" r="14" fill="#009af9" fill-rule="evenodd" fill-opacity="1" stroke="#000000" stroke-opacity="1" stroke-width="3.2"/>
<circle clip-path="url(#clip392)" cx="1216.01" cy="970.548" r="14" fill="#009af9" fill-rule="evenodd" fill-opacity="1" stroke="#000000" stroke-opacity="1" stroke-width="3.2"/>
<circle clip-path="url(#clip392)" cx="838.331" cy="1226.19" r="14" fill="#009af9" fill-rule="evenodd" fill-opacity="1" stroke="#000000" stroke-opacity="1" stroke-width="3.2"/>
<circle clip-path="url(#clip392)" cx="1031.62" cy="835.516" r="14" fill="#009af9" fill-rule="evenodd" fill-opacity="1" stroke="#000000" stroke-opacity="1" stroke-width="3.2"/>
<circle clip-path="url(#clip392)" cx="225.884" cy="1109.01" r="14" fill="#009af9" fill-rule="evenodd" fill-opacity="1" stroke="#000000" stroke-opacity="1" stroke-width="3.2"/>
<circle clip-path="url(#clip392)" cx="606.105" cy="1137.1" r="14" fill="#009af9" fill-rule="evenodd" fill-opacity="1" stroke="#000000" stroke-opacity="1" stroke-width="3.2"/>
<circle clip-path="url(#clip392)" cx="1907.95" cy="451.043" r="14" fill="#009af9" fill-rule="evenodd" fill-opacity="1" stroke="#000000" stroke-opacity="1" stroke-width="3.2"/>
<circle clip-path="url(#clip392)" cx="229.235" cy="858.3" r="14" fill="#009af9" fill-rule="evenodd" fill-opacity="1" stroke="#000000" stroke-opacity="1" stroke-width="3.2"/>
<circle clip-path="url(#clip392)" cx="2290.81" cy="356.189" r="14" fill="#009af9" fill-rule="evenodd" fill-opacity="1" stroke="#000000" stroke-opacity="1" stroke-width="3.2"/>
<circle clip-path="url(#clip392)" cx="1374.87" cy="833.718" r="14" fill="#009af9" fill-rule="evenodd" fill-opacity="1" stroke="#000000" stroke-opacity="1" stroke-width="3.2"/>
<circle clip-path="url(#clip392)" cx="745.846" cy="1285.39" r="14" fill="#009af9" fill-rule="evenodd" fill-opacity="1" stroke="#000000" stroke-opacity="1" stroke-width="3.2"/>
<circle clip-path="url(#clip392)" cx="1531.36" cy="514.301" r="14" fill="#009af9" fill-rule="evenodd" fill-opacity="1" stroke="#000000" stroke-opacity="1" stroke-width="3.2"/>
<circle clip-path="url(#clip392)" cx="2262.61" cy="87.9763" r="14" fill="#009af9" fill-rule="evenodd" fill-opacity="1" stroke="#000000" stroke-opacity="1" stroke-width="3.2"/>
<circle clip-path="url(#clip392)" cx="2206.98" cy="322.541" r="14" fill="#009af9" fill-rule="evenodd" fill-opacity="1" stroke="#000000" stroke-opacity="1" stroke-width="3.2"/>
<circle clip-path="url(#clip392)" cx="292.434" cy="989.863" r="14" fill="#009af9" fill-rule="evenodd" fill-opacity="1" stroke="#000000" stroke-opacity="1" stroke-width="3.2"/>
<circle clip-path="url(#clip392)" cx="2089.74" cy="688.768" r="14" fill="#009af9" fill-rule="evenodd" fill-opacity="1" stroke="#000000" stroke-opacity="1" stroke-width="3.2"/>
<circle clip-path="url(#clip392)" cx="1084.32" cy="789.925" r="14" fill="#009af9" fill-rule="evenodd" fill-opacity="1" stroke="#000000" stroke-opacity="1" stroke-width="3.2"/>
<circle clip-path="url(#clip392)" cx="1745.87" cy="420.006" r="14" fill="#009af9" fill-rule="evenodd" fill-opacity="1" stroke="#000000" stroke-opacity="1" stroke-width="3.2"/>
<path clip-path="url(#clip390)" d="
M1985.57 216.178 L2279.8 216.178 L2279.8 95.2176 L1985.57 95.2176  Z
  " fill="#ffffff" fill-rule="evenodd" fill-opacity="1"/>
<polyline clip-path="url(#clip390)" style="stroke:#000000; stroke-width:4; stroke-opacity:1; fill:none" points="
  1985.57,216.178 2279.8,216.178 2279.8,95.2176 1985.57,95.2176 1985.57,216.178 
  "/>
<circle clip-path="url(#clip390)" cx="2082.86" cy="155.698" r="23" fill="#009af9" fill-rule="evenodd" fill-opacity="1" stroke="#000000" stroke-opacity="1" stroke-width="5.12"/>
<circle clip-path="url(#clip390)" cx="2082.86" cy="155.698" r="23" fill="#009af9" fill-rule="evenodd" fill-opacity="1" stroke="#000000" stroke-opacity="1" stroke-width="5.12"/>
<circle clip-path="url(#clip390)" cx="2082.86" cy="155.698" r="23" fill="#009af9" fill-rule="evenodd" fill-opacity="1" stroke="#000000" stroke-opacity="1" stroke-width="5.12"/>
<circle clip-path="url(#clip390)" cx="2082.86" cy="155.698" r="23" fill="#009af9" fill-rule="evenodd" fill-opacity="1" stroke="#000000" stroke-opacity="1" stroke-width="5.12"/>
<circle clip-path="url(#clip390)" cx="2082.86" cy="155.698" r="23" fill="#009af9" fill-rule="evenodd" fill-opacity="1" stroke="#000000" stroke-opacity="1" stroke-width="5.12"/>
<circle clip-path="url(#clip390)" cx="2082.86" cy="155.698" r="23" fill="#009af9" fill-rule="evenodd" fill-opacity="1" stroke="#000000" stroke-opacity="1" stroke-width="5.12"/>
<circle clip-path="url(#clip390)" cx="2082.86" cy="155.698" r="23" fill="#009af9" fill-rule="evenodd" fill-opacity="1" stroke="#000000" stroke-opacity="1" stroke-width="5.12"/>
<circle clip-path="url(#clip390)" cx="2082.86" cy="155.698" r="23" fill="#009af9" fill-rule="evenodd" fill-opacity="1" stroke="#000000" stroke-opacity="1" stroke-width="5.12"/>
<circle clip-path="url(#clip390)" cx="2082.86" cy="155.698" r="23" fill="#009af9" fill-rule="evenodd" fill-opacity="1" stroke="#000000" stroke-opacity="1" stroke-width="5.12"/>
<circle clip-path="url(#clip390)" cx="2082.86" cy="155.698" r="23" fill="#009af9" fill-rule="evenodd" fill-opacity="1" stroke="#000000" stroke-opacity="1" stroke-width="5.12"/>
<circle clip-path="url(#clip390)" cx="2082.86" cy="155.698" r="23" fill="#009af9" fill-rule="evenodd" fill-opacity="1" stroke="#000000" stroke-opacity="1" stroke-width="5.12"/>
<circle clip-path="url(#clip390)" cx="2082.86" cy="155.698" r="23" fill="#009af9" fill-rule="evenodd" fill-opacity="1" stroke="#000000" stroke-opacity="1" stroke-width="5.12"/>
<circle clip-path="url(#clip390)" cx="2082.86" cy="155.698" r="23" fill="#009af9" fill-rule="evenodd" fill-opacity="1" stroke="#000000" stroke-opacity="1" stroke-width="5.12"/>
<circle clip-path="url(#clip390)" cx="2082.86" cy="155.698" r="23" fill="#009af9" fill-rule="evenodd" fill-opacity="1" stroke="#000000" stroke-opacity="1" stroke-width="5.12"/>
<circle clip-path="url(#clip390)" cx="2082.86" cy="155.698" r="23" fill="#009af9" fill-rule="evenodd" fill-opacity="1" stroke="#000000" stroke-opacity="1" stroke-width="5.12"/>
<circle clip-path="url(#clip390)" cx="2082.86" cy="155.698" r="23" fill="#009af9" fill-rule="evenodd" fill-opacity="1" stroke="#000000" stroke-opacity="1" stroke-width="5.12"/>
<circle clip-path="url(#clip390)" cx="2082.86" cy="155.698" r="23" fill="#009af9" fill-rule="evenodd" fill-opacity="1" stroke="#000000" stroke-opacity="1" stroke-width="5.12"/>
<circle clip-path="url(#clip390)" cx="2082.86" cy="155.698" r="23" fill="#009af9" fill-rule="evenodd" fill-opacity="1" stroke="#000000" stroke-opacity="1" stroke-width="5.12"/>
<circle clip-path="url(#clip390)" cx="2082.86" cy="155.698" r="23" fill="#009af9" fill-rule="evenodd" fill-opacity="1" stroke="#000000" stroke-opacity="1" stroke-width="5.12"/>
<circle clip-path="url(#clip390)" cx="2082.86" cy="155.698" r="23" fill="#009af9" fill-rule="evenodd" fill-opacity="1" stroke="#000000" stroke-opacity="1" stroke-width="5.12"/>
<path clip-path="url(#clip390)" d="M 0 0 M2193.98 175.385 Q2192.17 180.015 2190.46 181.427 Q2188.75 182.839 2185.88 182.839 L2182.47 182.839 L2182.47 179.274 L2184.97 179.274 Q2186.73 179.274 2187.71 178.44 Q2188.68 177.607 2189.86 174.505 L2190.62 172.561 L2180.14 147.052 L2184.65 147.052 L2192.75 167.329 L2200.85 147.052 L2205.37 147.052 L2193.98 175.385 Z" fill="#000000" fill-rule="evenodd" fill-opacity="1" /><path clip-path="url(#clip390)" d="M 0 0 M2211.25 169.042 L2218.89 169.042 L2218.89 142.677 L2210.58 144.343 L2210.58 140.084 L2218.84 138.418 L2223.52 138.418 L2223.52 169.042 L2231.15 169.042 L2231.15 172.978 L2211.25 172.978 L2211.25 169.042 Z" fill="#000000" fill-rule="evenodd" fill-opacity="1" /></svg>
