<?xml version="1.0" encoding="utf-8"?>
<svg xmlns="http://www.w3.org/2000/svg" xmlns:xlink="http://www.w3.org/1999/xlink" width="600" height="400" viewBox="0 0 2400 1600">
<defs>
  <clipPath id="clip360">
    <rect x="0" y="0" width="2400" height="1600"/>
  </clipPath>
</defs>
<path clip-path="url(#clip360)" d="
M0 1600 L2400 1600 L2400 0 L0 0  Z
  " fill="#ffffff" fill-rule="evenodd" fill-opacity="1"/>
<defs>
  <clipPath id="clip361">
    <rect x="480" y="0" width="1681" height="1600"/>
  </clipPath>
</defs>
<path clip-path="url(#clip360)" d="
M147.848 1486.45 L2352.76 1486.45 L2352.76 47.2441 L147.848 47.2441  Z
  " fill="#ffffff" fill-rule="evenodd" fill-opacity="1"/>
<defs>
  <clipPath id="clip362">
    <rect x="147" y="47" width="2206" height="1440"/>
  </clipPath>
</defs>
<polyline clip-path="url(#clip362)" style="stroke:#000000; stroke-width:2; stroke-opacity:0.1; fill:none" points="
  174.185,1486.45 174.185,47.2441 
  "/>
<polyline clip-path="url(#clip362)" style="stroke:#000000; stroke-width:2; stroke-opacity:0.1; fill:none" points="
  574.991,1486.45 574.991,47.2441 
  "/>
<polyline clip-path="url(#clip362)" style="stroke:#000000; stroke-width:2; stroke-opacity:0.1; fill:none" points="
  975.797,1486.45 975.797,47.2441 
  "/>
<polyline clip-path="url(#clip362)" style="stroke:#000000; stroke-width:2; stroke-opacity:0.1; fill:none" points="
  1376.6,1486.45 1376.6,47.2441 
  "/>
<polyline clip-path="url(#clip362)" style="stroke:#000000; stroke-width:2; stroke-opacity:0.1; fill:none" points="
  1777.41,1486.45 1777.41,47.2441 
  "/>
<polyline clip-path="url(#clip362)" style="stroke:#000000; stroke-width:2; stroke-opacity:0.1; fill:none" points="
  2178.21,1486.45 2178.21,47.2441 
  "/>
<polyline clip-path="url(#clip362)" style="stroke:#000000; stroke-width:2; stroke-opacity:0.1; fill:none" points="
  147.848,1478.5 2352.76,1478.5 
  "/>
<polyline clip-path="url(#clip362)" style="stroke:#000000; stroke-width:2; stroke-opacity:0.1; fill:none" points="
  147.848,1210.83 2352.76,1210.83 
  "/>
<polyline clip-path="url(#clip362)" style="stroke:#000000; stroke-width:2; stroke-opacity:0.1; fill:none" points="
  147.848,943.158 2352.76,943.158 
  "/>
<polyline clip-path="url(#clip362)" style="stroke:#000000; stroke-width:2; stroke-opacity:0.1; fill:none" points="
  147.848,675.488 2352.76,675.488 
  "/>
<polyline clip-path="url(#clip362)" style="stroke:#000000; stroke-width:2; stroke-opacity:0.1; fill:none" points="
  147.848,407.818 2352.76,407.818 
  "/>
<polyline clip-path="url(#clip362)" style="stroke:#000000; stroke-width:2; stroke-opacity:0.1; fill:none" points="
  147.848,140.148 2352.76,140.148 
  "/>
<polyline clip-path="url(#clip360)" style="stroke:#000000; stroke-width:4; stroke-opacity:1; fill:none" points="
  147.848,1486.45 2352.76,1486.45 
  "/>
<polyline clip-path="url(#clip360)" style="stroke:#000000; stroke-width:4; stroke-opacity:1; fill:none" points="
  147.848,1486.45 147.848,47.2441 
  "/>
<polyline clip-path="url(#clip360)" style="stroke:#000000; stroke-width:4; stroke-opacity:1; fill:none" points="
  174.185,1486.45 174.185,1469.18 
  "/>
<polyline clip-path="url(#clip360)" style="stroke:#000000; stroke-width:4; stroke-opacity:1; fill:none" points="
  574.991,1486.45 574.991,1469.18 
  "/>
<polyline clip-path="url(#clip360)" style="stroke:#000000; stroke-width:4; stroke-opacity:1; fill:none" points="
  975.797,1486.45 975.797,1469.18 
  "/>
<polyline clip-path="url(#clip360)" style="stroke:#000000; stroke-width:4; stroke-opacity:1; fill:none" points="
  1376.6,1486.45 1376.6,1469.18 
  "/>
<polyline clip-path="url(#clip360)" style="stroke:#000000; stroke-width:4; stroke-opacity:1; fill:none" points="
  1777.41,1486.45 1777.41,1469.18 
  "/>
<polyline clip-path="url(#clip360)" style="stroke:#000000; stroke-width:4; stroke-opacity:1; fill:none" points="
  2178.21,1486.45 2178.21,1469.18 
  "/>
<polyline clip-path="url(#clip360)" style="stroke:#000000; stroke-width:4; stroke-opacity:1; fill:none" points="
  147.848,1478.5 174.307,1478.5 
  "/>
<polyline clip-path="url(#clip360)" style="stroke:#000000; stroke-width:4; stroke-opacity:1; fill:none" points="
  147.848,1210.83 174.307,1210.83 
  "/>
<polyline clip-path="url(#clip360)" style="stroke:#000000; stroke-width:4; stroke-opacity:1; fill:none" points="
  147.848,943.158 174.307,943.158 
  "/>
<polyline clip-path="url(#clip360)" style="stroke:#000000; stroke-width:4; stroke-opacity:1; fill:none" points="
  147.848,675.488 174.307,675.488 
  "/>
<polyline clip-path="url(#clip360)" style="stroke:#000000; stroke-width:4; stroke-opacity:1; fill:none" points="
  147.848,407.818 174.307,407.818 
  "/>
<polyline clip-path="url(#clip360)" style="stroke:#000000; stroke-width:4; stroke-opacity:1; fill:none" points="
  147.848,140.148 174.307,140.148 
  "/>
<path clip-path="url(#clip360)" d="M 0 0 M155.701 1508.44 Q152.09 1508.44 150.261 1512 Q148.456 1515.55 148.456 1522.67 Q148.456 1529.78 150.261 1533.35 Q152.09 1536.89 155.701 1536.89 Q159.335 1536.89 161.141 1533.35 Q162.97 1529.78 162.97 1522.67 Q162.97 1515.55 161.141 1512 Q159.335 1508.44 155.701 1508.44 M155.701 1504.73 Q161.511 1504.73 164.567 1509.34 Q167.646 1513.92 167.646 1522.67 Q167.646 1531.4 164.567 1536.01 Q161.511 1540.59 155.701 1540.59 Q149.891 1540.59 146.812 1536.01 Q143.757 1531.4 143.757 1522.67 Q143.757 1513.92 146.812 1509.34 Q149.891 1504.73 155.701 1504.73 Z" fill="#000000" fill-rule="evenodd" fill-opacity="1" /><path clip-path="url(#clip360)" d="M 0 0 M172.715 1534.04 L177.599 1534.04 L177.599 1539.92 L172.715 1539.92 L172.715 1534.04 Z" fill="#000000" fill-rule="evenodd" fill-opacity="1" /><path clip-path="url(#clip360)" d="M 0 0 M192.669 1508.44 Q189.058 1508.44 187.229 1512 Q185.423 1515.55 185.423 1522.67 Q185.423 1529.78 187.229 1533.35 Q189.058 1536.89 192.669 1536.89 Q196.303 1536.89 198.108 1533.35 Q199.937 1529.78 199.937 1522.67 Q199.937 1515.55 198.108 1512 Q196.303 1508.44 192.669 1508.44 M192.669 1504.73 Q198.479 1504.73 201.534 1509.34 Q204.613 1513.92 204.613 1522.67 Q204.613 1531.4 201.534 1536.01 Q198.479 1540.59 192.669 1540.59 Q186.858 1540.59 183.78 1536.01 Q180.724 1531.4 180.724 1522.67 Q180.724 1513.92 183.78 1509.34 Q186.858 1504.73 192.669 1504.73 Z" fill="#000000" fill-rule="evenodd" fill-opacity="1" /><path clip-path="url(#clip360)" d="M 0 0 M557.005 1508.44 Q553.394 1508.44 551.565 1512 Q549.76 1515.55 549.76 1522.67 Q549.76 1529.78 551.565 1533.35 Q553.394 1536.89 557.005 1536.89 Q560.639 1536.89 562.445 1533.35 Q564.273 1529.78 564.273 1522.67 Q564.273 1515.55 562.445 1512 Q560.639 1508.44 557.005 1508.44 M557.005 1504.73 Q562.815 1504.73 565.871 1509.34 Q568.949 1513.92 568.949 1522.67 Q568.949 1531.4 565.871 1536.01 Q562.815 1540.59 557.005 1540.59 Q551.195 1540.59 548.116 1536.01 Q545.06 1531.4 545.06 1522.67 Q545.06 1513.92 548.116 1509.34 Q551.195 1504.73 557.005 1504.73 Z" fill="#000000" fill-rule="evenodd" fill-opacity="1" /><path clip-path="url(#clip360)" d="M 0 0 M574.019 1534.04 L578.903 1534.04 L578.903 1539.92 L574.019 1539.92 L574.019 1534.04 Z" fill="#000000" fill-rule="evenodd" fill-opacity="1" /><path clip-path="url(#clip360)" d="M 0 0 M584.019 1505.36 L602.375 1505.36 L602.375 1509.3 L588.301 1509.3 L588.301 1517.77 Q589.319 1517.42 590.338 1517.26 Q591.357 1517.07 592.375 1517.07 Q598.162 1517.07 601.542 1520.24 Q604.921 1523.42 604.921 1528.83 Q604.921 1534.41 601.449 1537.51 Q597.977 1540.59 591.657 1540.59 Q589.482 1540.59 587.213 1540.22 Q584.968 1539.85 582.56 1539.11 L582.56 1534.41 Q584.644 1535.54 586.866 1536.1 Q589.088 1536.66 591.565 1536.66 Q595.569 1536.66 597.907 1534.55 Q600.245 1532.44 600.245 1528.83 Q600.245 1525.22 597.907 1523.11 Q595.569 1521.01 591.565 1521.01 Q589.69 1521.01 587.815 1521.42 Q585.963 1521.84 584.019 1522.72 L584.019 1505.36 Z" fill="#000000" fill-rule="evenodd" fill-opacity="1" /><path clip-path="url(#clip360)" d="M 0 0 M947.695 1535.98 L955.334 1535.98 L955.334 1509.62 L947.024 1511.29 L947.024 1507.03 L955.288 1505.36 L959.964 1505.36 L959.964 1535.98 L967.602 1535.98 L967.602 1539.92 L947.695 1539.92 L947.695 1535.98 Z" fill="#000000" fill-rule="evenodd" fill-opacity="1" /><path clip-path="url(#clip360)" d="M 0 0 M972.672 1534.04 L977.556 1534.04 L977.556 1539.92 L972.672 1539.92 L972.672 1534.04 Z" fill="#000000" fill-rule="evenodd" fill-opacity="1" /><path clip-path="url(#clip360)" d="M 0 0 M992.625 1508.44 Q989.014 1508.44 987.186 1512 Q985.38 1515.55 985.38 1522.67 Q985.38 1529.78 987.186 1533.35 Q989.014 1536.89 992.625 1536.89 Q996.26 1536.89 998.065 1533.35 Q999.894 1529.78 999.894 1522.67 Q999.894 1515.55 998.065 1512 Q996.26 1508.44 992.625 1508.44 M992.625 1504.73 Q998.436 1504.73 1001.49 1509.34 Q1004.57 1513.92 1004.57 1522.67 Q1004.57 1531.4 1001.49 1536.01 Q998.436 1540.59 992.625 1540.59 Q986.815 1540.59 983.737 1536.01 Q980.681 1531.4 980.681 1522.67 Q980.681 1513.92 983.737 1509.34 Q986.815 1504.73 992.625 1504.73 Z" fill="#000000" fill-rule="evenodd" fill-opacity="1" /><path clip-path="url(#clip360)" d="M 0 0 M1349 1535.98 L1356.64 1535.98 L1356.64 1509.62 L1348.33 1511.29 L1348.33 1507.03 L1356.59 1505.36 L1361.27 1505.36 L1361.27 1535.98 L1368.91 1535.98 L1368.91 1539.92 L1349 1539.92 L1349 1535.98 Z" fill="#000000" fill-rule="evenodd" fill-opacity="1" /><path clip-path="url(#clip360)" d="M 0 0 M1373.98 1534.04 L1378.86 1534.04 L1378.86 1539.92 L1373.98 1539.92 L1373.98 1534.04 Z" fill="#000000" fill-rule="evenodd" fill-opacity="1" /><path clip-path="url(#clip360)" d="M 0 0 M1383.98 1505.36 L1402.33 1505.36 L1402.33 1509.3 L1388.26 1509.3 L1388.26 1517.77 Q1389.28 1517.42 1390.29 1517.26 Q1391.31 1517.07 1392.33 1517.07 Q1398.12 1517.07 1401.5 1520.24 Q1404.88 1523.42 1404.88 1528.83 Q1404.88 1534.41 1401.41 1537.51 Q1397.93 1540.59 1391.61 1540.59 Q1389.44 1540.59 1387.17 1540.22 Q1384.92 1539.85 1382.52 1539.11 L1382.52 1534.41 Q1384.6 1535.54 1386.82 1536.1 Q1389.04 1536.66 1391.52 1536.66 Q1395.53 1536.66 1397.86 1534.55 Q1400.2 1532.44 1400.2 1528.83 Q1400.2 1525.22 1397.86 1523.11 Q1395.53 1521.01 1391.52 1521.01 Q1389.65 1521.01 1387.77 1521.42 Q1385.92 1521.84 1383.98 1522.72 L1383.98 1505.36 Z" fill="#000000" fill-rule="evenodd" fill-opacity="1" /><path clip-path="url(#clip360)" d="M 0 0 M1753.58 1535.98 L1769.9 1535.98 L1769.9 1539.92 L1747.95 1539.92 L1747.95 1535.98 Q1750.61 1533.23 1755.2 1528.6 Q1759.8 1523.95 1760.99 1522.61 Q1763.23 1520.08 1764.11 1518.35 Q1765.01 1516.59 1765.01 1514.9 Q1765.01 1512.14 1763.07 1510.41 Q1761.15 1508.67 1758.05 1508.67 Q1755.85 1508.67 1753.39 1509.43 Q1750.96 1510.2 1748.18 1511.75 L1748.18 1507.03 Q1751.01 1505.89 1753.46 1505.31 Q1755.92 1504.73 1757.95 1504.73 Q1763.32 1504.73 1766.52 1507.42 Q1769.71 1510.11 1769.71 1514.6 Q1769.71 1516.73 1768.9 1518.65 Q1768.11 1520.54 1766.01 1523.14 Q1765.43 1523.81 1762.33 1527.03 Q1759.23 1530.22 1753.58 1535.98 Z" fill="#000000" fill-rule="evenodd" fill-opacity="1" /><path clip-path="url(#clip360)" d="M 0 0 M1774.97 1534.04 L1779.85 1534.04 L1779.85 1539.92 L1774.97 1539.92 L1774.97 1534.04 Z" fill="#000000" fill-rule="evenodd" fill-opacity="1" /><path clip-path="url(#clip360)" d="M 0 0 M1794.92 1508.44 Q1791.31 1508.44 1789.48 1512 Q1787.67 1515.55 1787.67 1522.67 Q1787.67 1529.78 1789.48 1533.35 Q1791.31 1536.89 1794.92 1536.89 Q1798.55 1536.89 1800.36 1533.35 Q1802.19 1529.78 1802.19 1522.67 Q1802.19 1515.55 1800.36 1512 Q1798.55 1508.44 1794.92 1508.44 M1794.92 1504.73 Q1800.73 1504.73 1803.79 1509.34 Q1806.86 1513.92 1806.86 1522.67 Q1806.86 1531.4 1803.79 1536.01 Q1800.73 1540.59 1794.92 1540.59 Q1789.11 1540.59 1786.03 1536.01 Q1782.98 1531.4 1782.98 1522.67 Q1782.98 1513.92 1786.03 1509.34 Q1789.11 1504.73 1794.92 1504.73 Z" fill="#000000" fill-rule="evenodd" fill-opacity="1" /><path clip-path="url(#clip360)" d="M 0 0 M2154.88 1535.98 L2171.2 1535.98 L2171.2 1539.92 L2149.26 1539.92 L2149.26 1535.98 Q2151.92 1533.23 2156.5 1528.6 Q2161.11 1523.95 2162.29 1522.61 Q2164.53 1520.08 2165.41 1518.35 Q2166.32 1516.59 2166.32 1514.9 Q2166.32 1512.14 2164.37 1510.41 Q2162.45 1508.67 2159.35 1508.67 Q2157.15 1508.67 2154.7 1509.43 Q2152.27 1510.2 2149.49 1511.75 L2149.49 1507.03 Q2152.31 1505.89 2154.77 1505.31 Q2157.22 1504.73 2159.26 1504.73 Q2164.63 1504.73 2167.82 1507.42 Q2171.02 1510.11 2171.02 1514.6 Q2171.02 1516.73 2170.21 1518.65 Q2169.42 1520.54 2167.31 1523.14 Q2166.73 1523.81 2163.63 1527.03 Q2160.53 1530.22 2154.88 1535.98 Z" fill="#000000" fill-rule="evenodd" fill-opacity="1" /><path clip-path="url(#clip360)" d="M 0 0 M2176.27 1534.04 L2181.15 1534.04 L2181.15 1539.92 L2176.27 1539.92 L2176.27 1534.04 Z" fill="#000000" fill-rule="evenodd" fill-opacity="1" /><path clip-path="url(#clip360)" d="M 0 0 M2186.27 1505.36 L2204.63 1505.36 L2204.63 1509.3 L2190.55 1509.3 L2190.55 1517.77 Q2191.57 1517.42 2192.59 1517.26 Q2193.61 1517.07 2194.63 1517.07 Q2200.41 1517.07 2203.79 1520.24 Q2207.17 1523.42 2207.17 1528.83 Q2207.17 1534.41 2203.7 1537.51 Q2200.23 1540.59 2193.91 1540.59 Q2191.73 1540.59 2189.46 1540.22 Q2187.22 1539.85 2184.81 1539.11 L2184.81 1534.41 Q2186.9 1535.54 2189.12 1536.1 Q2191.34 1536.66 2193.82 1536.66 Q2197.82 1536.66 2200.16 1534.55 Q2202.5 1532.44 2202.5 1528.83 Q2202.5 1525.22 2200.16 1523.11 Q2197.82 1521.01 2193.82 1521.01 Q2191.94 1521.01 2190.07 1521.42 Q2188.21 1521.84 2186.27 1522.72 L2186.27 1505.36 Z" fill="#000000" fill-rule="evenodd" fill-opacity="1" /><path clip-path="url(#clip360)" d="M 0 0 M74.9365 1464.3 Q71.3254 1464.3 69.4967 1467.86 Q67.6912 1471.4 67.6912 1478.53 Q67.6912 1485.64 69.4967 1489.2 Q71.3254 1492.75 74.9365 1492.75 Q78.5707 1492.75 80.3763 1489.2 Q82.205 1485.64 82.205 1478.53 Q82.205 1471.4 80.3763 1467.86 Q78.5707 1464.3 74.9365 1464.3 M74.9365 1460.59 Q80.7467 1460.59 83.8022 1465.2 Q86.8809 1469.78 86.8809 1478.53 Q86.8809 1487.26 83.8022 1491.87 Q80.7467 1496.45 74.9365 1496.45 Q69.1264 1496.45 66.0477 1491.87 Q62.9921 1487.26 62.9921 1478.53 Q62.9921 1469.78 66.0477 1465.2 Q69.1264 1460.59 74.9365 1460.59 Z" fill="#000000" fill-rule="evenodd" fill-opacity="1" /><path clip-path="url(#clip360)" d="M 0 0 M91.9503 1489.9 L96.8345 1489.9 L96.8345 1495.78 L91.9503 1495.78 L91.9503 1489.9 Z" fill="#000000" fill-rule="evenodd" fill-opacity="1" /><path clip-path="url(#clip360)" d="M 0 0 M111.904 1464.3 Q108.293 1464.3 106.464 1467.86 Q104.659 1471.4 104.659 1478.53 Q104.659 1485.64 106.464 1489.2 Q108.293 1492.75 111.904 1492.75 Q115.538 1492.75 117.344 1489.2 Q119.172 1485.64 119.172 1478.53 Q119.172 1471.4 117.344 1467.86 Q115.538 1464.3 111.904 1464.3 M111.904 1460.59 Q117.714 1460.59 120.77 1465.2 Q123.848 1469.78 123.848 1478.53 Q123.848 1487.26 120.77 1491.87 Q117.714 1496.45 111.904 1496.45 Q106.094 1496.45 103.015 1491.87 Q99.9595 1487.26 99.9595 1478.53 Q99.9595 1469.78 103.015 1465.2 Q106.094 1460.59 111.904 1460.59 Z" fill="#000000" fill-rule="evenodd" fill-opacity="1" /><path clip-path="url(#clip360)" d="M 0 0 M75.9319 1196.63 Q72.3208 1196.63 70.4921 1200.19 Q68.6865 1203.73 68.6865 1210.86 Q68.6865 1217.97 70.4921 1221.53 Q72.3208 1225.08 75.9319 1225.08 Q79.5661 1225.08 81.3717 1221.53 Q83.2004 1217.97 83.2004 1210.86 Q83.2004 1203.73 81.3717 1200.19 Q79.5661 1196.63 75.9319 1196.63 M75.9319 1192.92 Q81.742 1192.92 84.7976 1197.53 Q87.8763 1202.11 87.8763 1210.86 Q87.8763 1219.59 84.7976 1224.2 Q81.742 1228.78 75.9319 1228.78 Q70.1217 1228.78 67.043 1224.2 Q63.9875 1219.59 63.9875 1210.86 Q63.9875 1202.11 67.043 1197.53 Q70.1217 1192.92 75.9319 1192.92 Z" fill="#000000" fill-rule="evenodd" fill-opacity="1" /><path clip-path="url(#clip360)" d="M 0 0 M92.9457 1222.23 L97.8299 1222.23 L97.8299 1228.11 L92.9457 1228.11 L92.9457 1222.23 Z" fill="#000000" fill-rule="evenodd" fill-opacity="1" /><path clip-path="url(#clip360)" d="M 0 0 M102.946 1193.55 L121.302 1193.55 L121.302 1197.48 L107.228 1197.48 L107.228 1205.95 Q108.247 1205.61 109.265 1205.45 Q110.284 1205.26 111.302 1205.26 Q117.089 1205.26 120.469 1208.43 Q123.848 1211.6 123.848 1217.02 Q123.848 1222.6 120.376 1225.7 Q116.904 1228.78 110.584 1228.78 Q108.409 1228.78 106.14 1228.41 Q103.895 1228.04 101.487 1227.3 L101.487 1222.6 Q103.571 1223.73 105.793 1224.29 Q108.015 1224.84 110.492 1224.84 Q114.496 1224.84 116.834 1222.74 Q119.172 1220.63 119.172 1217.02 Q119.172 1213.41 116.834 1211.3 Q114.496 1209.2 110.492 1209.2 Q108.617 1209.2 106.742 1209.61 Q104.89 1210.03 102.946 1210.91 L102.946 1193.55 Z" fill="#000000" fill-rule="evenodd" fill-opacity="1" /><path clip-path="url(#clip360)" d="M 0 0 M66.9736 956.503 L74.6124 956.503 L74.6124 930.137 L66.3023 931.804 L66.3023 927.544 L74.5661 925.878 L79.242 925.878 L79.242 956.503 L86.8809 956.503 L86.8809 960.438 L66.9736 960.438 L66.9736 956.503 Z" fill="#000000" fill-rule="evenodd" fill-opacity="1" /><path clip-path="url(#clip360)" d="M 0 0 M91.9503 954.558 L96.8345 954.558 L96.8345 960.438 L91.9503 960.438 L91.9503 954.558 Z" fill="#000000" fill-rule="evenodd" fill-opacity="1" /><path clip-path="url(#clip360)" d="M 0 0 M111.904 928.956 Q108.293 928.956 106.464 932.521 Q104.659 936.063 104.659 943.192 Q104.659 950.299 106.464 953.864 Q108.293 957.405 111.904 957.405 Q115.538 957.405 117.344 953.864 Q119.172 950.299 119.172 943.192 Q119.172 936.063 117.344 932.521 Q115.538 928.956 111.904 928.956 M111.904 925.253 Q117.714 925.253 120.77 929.859 Q123.848 934.443 123.848 943.192 Q123.848 951.919 120.77 956.526 Q117.714 961.109 111.904 961.109 Q106.094 961.109 103.015 956.526 Q99.9595 951.919 99.9595 943.192 Q99.9595 934.443 103.015 929.859 Q106.094 925.253 111.904 925.253 Z" fill="#000000" fill-rule="evenodd" fill-opacity="1" /><path clip-path="url(#clip360)" d="M 0 0 M67.969 688.833 L75.6078 688.833 L75.6078 662.467 L67.2977 664.134 L67.2977 659.875 L75.5615 658.208 L80.2374 658.208 L80.2374 688.833 L87.8763 688.833 L87.8763 692.768 L67.969 692.768 L67.969 688.833 Z" fill="#000000" fill-rule="evenodd" fill-opacity="1" /><path clip-path="url(#clip360)" d="M 0 0 M92.9457 686.888 L97.8299 686.888 L97.8299 692.768 L92.9457 692.768 L92.9457 686.888 Z" fill="#000000" fill-rule="evenodd" fill-opacity="1" /><path clip-path="url(#clip360)" d="M 0 0 M102.946 658.208 L121.302 658.208 L121.302 662.143 L107.228 662.143 L107.228 670.615 Q108.247 670.268 109.265 670.106 Q110.284 669.921 111.302 669.921 Q117.089 669.921 120.469 673.092 Q123.848 676.263 123.848 681.68 Q123.848 687.259 120.376 690.361 Q116.904 693.439 110.584 693.439 Q108.409 693.439 106.14 693.069 Q103.895 692.698 101.487 691.958 L101.487 687.259 Q103.571 688.393 105.793 688.948 Q108.015 689.504 110.492 689.504 Q114.496 689.504 116.834 687.398 Q119.172 685.291 119.172 681.68 Q119.172 678.069 116.834 675.962 Q114.496 673.856 110.492 673.856 Q108.617 673.856 106.742 674.273 Q104.89 674.689 102.946 675.569 L102.946 658.208 Z" fill="#000000" fill-rule="evenodd" fill-opacity="1" /><path clip-path="url(#clip360)" d="M 0 0 M70.5615 421.163 L86.8809 421.163 L86.8809 425.098 L64.9366 425.098 L64.9366 421.163 Q67.5986 418.408 72.1819 413.779 Q76.7883 409.126 77.9689 407.783 Q80.2143 405.26 81.0939 403.524 Q81.9967 401.765 81.9967 400.075 Q81.9967 397.32 80.0522 395.584 Q78.1309 393.848 75.0291 393.848 Q72.83 393.848 70.3763 394.612 Q67.9458 395.376 65.168 396.927 L65.168 392.205 Q67.9921 391.07 70.4458 390.492 Q72.8995 389.913 74.9365 389.913 Q80.3068 389.913 83.5013 392.598 Q86.6957 395.283 86.6957 399.774 Q86.6957 401.904 85.8855 403.825 Q85.0985 405.723 82.992 408.316 Q82.4133 408.987 79.3115 412.205 Q76.2096 415.399 70.5615 421.163 Z" fill="#000000" fill-rule="evenodd" fill-opacity="1" /><path clip-path="url(#clip360)" d="M 0 0 M91.9503 419.218 L96.8345 419.218 L96.8345 425.098 L91.9503 425.098 L91.9503 419.218 Z" fill="#000000" fill-rule="evenodd" fill-opacity="1" /><path clip-path="url(#clip360)" d="M 0 0 M111.904 393.617 Q108.293 393.617 106.464 397.182 Q104.659 400.723 104.659 407.853 Q104.659 414.959 106.464 418.524 Q108.293 422.066 111.904 422.066 Q115.538 422.066 117.344 418.524 Q119.172 414.959 119.172 407.853 Q119.172 400.723 117.344 397.182 Q115.538 393.617 111.904 393.617 M111.904 389.913 Q117.714 389.913 120.77 394.52 Q123.848 399.103 123.848 407.853 Q123.848 416.58 120.77 421.186 Q117.714 425.769 111.904 425.769 Q106.094 425.769 103.015 421.186 Q99.9595 416.58 99.9595 407.853 Q99.9595 399.103 103.015 394.52 Q106.094 389.913 111.904 389.913 Z" fill="#000000" fill-rule="evenodd" fill-opacity="1" /><path clip-path="url(#clip360)" d="M 0 0 M71.5569 153.493 L87.8763 153.493 L87.8763 157.428 L65.9319 157.428 L65.9319 153.493 Q68.5939 150.738 73.1773 146.109 Q77.7837 141.456 78.9643 140.113 Q81.2096 137.59 82.0892 135.854 Q82.992 134.095 82.992 132.405 Q82.992 129.651 81.0476 127.914 Q79.1263 126.178 76.0245 126.178 Q73.8254 126.178 71.3717 126.942 Q68.9412 127.706 66.1634 129.257 L66.1634 124.535 Q68.9875 123.401 71.4412 122.822 Q73.8948 122.243 75.9319 122.243 Q81.3022 122.243 84.4966 124.928 Q87.6911 127.614 87.6911 132.104 Q87.6911 134.234 86.8809 136.155 Q86.0939 138.053 83.9874 140.646 Q83.4087 141.317 80.3068 144.535 Q77.205 147.729 71.5569 153.493 Z" fill="#000000" fill-rule="evenodd" fill-opacity="1" /><path clip-path="url(#clip360)" d="M 0 0 M92.9457 151.549 L97.8299 151.549 L97.8299 157.428 L92.9457 157.428 L92.9457 151.549 Z" fill="#000000" fill-rule="evenodd" fill-opacity="1" /><path clip-path="url(#clip360)" d="M 0 0 M102.946 122.868 L121.302 122.868 L121.302 126.803 L107.228 126.803 L107.228 135.276 Q108.247 134.928 109.265 134.766 Q110.284 134.581 111.302 134.581 Q117.089 134.581 120.469 137.752 Q123.848 140.924 123.848 146.34 Q123.848 151.919 120.376 155.021 Q116.904 158.099 110.584 158.099 Q108.409 158.099 106.14 157.729 Q103.895 157.359 101.487 156.618 L101.487 151.919 Q103.571 153.053 105.793 153.609 Q108.015 154.164 110.492 154.164 Q114.496 154.164 116.834 152.058 Q119.172 149.951 119.172 146.34 Q119.172 142.729 116.834 140.623 Q114.496 138.516 110.492 138.516 Q108.617 138.516 106.742 138.933 Q104.89 139.35 102.946 140.229 L102.946 122.868 Z" fill="#000000" fill-rule="evenodd" fill-opacity="1" /><circle clip-path="url(#clip362)" cx="581.085" cy="1211.46" r="14" fill="#009af9" fill-rule="evenodd" fill-opacity="1" stroke="#000000" stroke-opacity="1" stroke-width="3.2"/>
<circle clip-path="url(#clip362)" cx="960.611" cy="944.258" r="14" fill="#009af9" fill-rule="evenodd" fill-opacity="1" stroke="#000000" stroke-opacity="1" stroke-width="3.2"/>
<circle clip-path="url(#clip362)" cx="314.596" cy="1382.01" r="14" fill="#009af9" fill-rule="evenodd" fill-opacity="1" stroke="#000000" stroke-opacity="1" stroke-width="3.2"/>
<circle clip-path="url(#clip362)" cx="1963.01" cy="285.826" r="14" fill="#009af9" fill-rule="evenodd" fill-opacity="1" stroke="#000000" stroke-opacity="1" stroke-width="3.2"/>
<circle clip-path="url(#clip362)" cx="1893.89" cy="320.29" r="14" fill="#009af9" fill-rule="evenodd" fill-opacity="1" stroke="#000000" stroke-opacity="1" stroke-width="3.2"/>
<circle clip-path="url(#clip362)" cx="832.7" cy="1026.39" r="14" fill="#009af9" fill-rule="evenodd" fill-opacity="1" stroke="#000000" stroke-opacity="1" stroke-width="3.2"/>
<circle clip-path="url(#clip362)" cx="1088.99" cy="853.512" r="14" fill="#009af9" fill-rule="evenodd" fill-opacity="1" stroke="#000000" stroke-opacity="1" stroke-width="3.2"/>
<circle clip-path="url(#clip362)" cx="1859.84" cy="340.951" r="14" fill="#009af9" fill-rule="evenodd" fill-opacity="1" stroke="#000000" stroke-opacity="1" stroke-width="3.2"/>
<circle clip-path="url(#clip362)" cx="2264.89" cy="96.9957" r="14" fill="#009af9" fill-rule="evenodd" fill-opacity="1" stroke="#000000" stroke-opacity="1" stroke-width="3.2"/>
<circle clip-path="url(#clip362)" cx="2095.06" cy="205.011" r="14" fill="#009af9" fill-rule="evenodd" fill-opacity="1" stroke="#000000" stroke-opacity="1" stroke-width="3.2"/>
<circle clip-path="url(#clip362)" cx="2062.45" cy="192.275" r="14" fill="#009af9" fill-rule="evenodd" fill-opacity="1" stroke="#000000" stroke-opacity="1" stroke-width="3.2"/>
<circle clip-path="url(#clip362)" cx="933.56" cy="971.325" r="14" fill="#009af9" fill-rule="evenodd" fill-opacity="1" stroke="#000000" stroke-opacity="1" stroke-width="3.2"/>
<circle clip-path="url(#clip362)" cx="1470.58" cy="615.717" r="14" fill="#009af9" fill-rule="evenodd" fill-opacity="1" stroke="#000000" stroke-opacity="1" stroke-width="3.2"/>
<circle clip-path="url(#clip362)" cx="229.175" cy="1445.72" r="14" fill="#009af9" fill-rule="evenodd" fill-opacity="1" stroke="#000000" stroke-opacity="1" stroke-width="3.2"/>
<circle clip-path="url(#clip362)" cx="1105.41" cy="861.177" r="14" fill="#009af9" fill-rule="evenodd" fill-opacity="1" stroke="#000000" stroke-opacity="1" stroke-width="3.2"/>
<circle clip-path="url(#clip362)" cx="361.162" cy="1353.28" r="14" fill="#009af9" fill-rule="evenodd" fill-opacity="1" stroke="#000000" stroke-opacity="1" stroke-width="3.2"/>
<circle clip-path="url(#clip362)" cx="1832.88" cy="297.906" r="14" fill="#009af9" fill-rule="evenodd" fill-opacity="1" stroke="#000000" stroke-opacity="1" stroke-width="3.2"/>
<circle clip-path="url(#clip362)" cx="2290.35" cy="87.9763" r="14" fill="#009af9" fill-rule="evenodd" fill-opacity="1" stroke="#000000" stroke-opacity="1" stroke-width="3.2"/>
<circle clip-path="url(#clip362)" cx="1464.13" cy="631.259" r="14" fill="#009af9" fill-rule="evenodd" fill-opacity="1" stroke="#000000" stroke-opacity="1" stroke-width="3.2"/>
<circle clip-path="url(#clip362)" cx="210.251" cy="1414.29" r="14" fill="#009af9" fill-rule="evenodd" fill-opacity="1" stroke="#000000" stroke-opacity="1" stroke-width="3.2"/>
<path clip-path="url(#clip360)" d="
M1983.25 216.178 L2279.26 216.178 L2279.26 95.2176 L1983.25 95.2176  Z
  " fill="#ffffff" fill-rule="evenodd" fill-opacity="1"/>
<polyline clip-path="url(#clip360)" style="stroke:#000000; stroke-width:4; stroke-opacity:1; fill:none" points="
  1983.25,216.178 2279.26,216.178 2279.26,95.2176 1983.25,95.2176 1983.25,216.178 
  "/>
<circle clip-path="url(#clip360)" cx="2081.25" cy="155.698" r="23" fill="#009af9" fill-rule="evenodd" fill-opacity="1" stroke="#000000" stroke-opacity="1" stroke-width="5.12"/>
<circle clip-path="url(#clip360)" cx="2081.25" cy="155.698" r="23" fill="#009af9" fill-rule="evenodd" fill-opacity="1" stroke="#000000" stroke-opacity="1" stroke-width="5.12"/>
<circle clip-path="url(#clip360)" cx="2081.25" cy="155.698" r="23" fill="#009af9" fill-rule="evenodd" fill-opacity="1" stroke="#000000" stroke-opacity="1" stroke-width="5.12"/>
<circle clip-path="url(#clip360)" cx="2081.25" cy="155.698" r="23" fill="#009af9" fill-rule="evenodd" fill-opacity="1" stroke="#000000" stroke-opacity="1" stroke-width="5.12"/>
<circle clip-path="url(#clip360)" cx="2081.25" cy="155.698" r="23" fill="#009af9" fill-rule="evenodd" fill-opacity="1" stroke="#000000" stroke-opacity="1" stroke-width="5.12"/>
<circle clip-path="url(#clip360)" cx="2081.25" cy="155.698" r="23" fill="#009af9" fill-rule="evenodd" fill-opacity="1" stroke="#000000" stroke-opacity="1" stroke-width="5.12"/>
<circle clip-path="url(#clip360)" cx="2081.25" cy="155.698" r="23" fill="#009af9" fill-rule="evenodd" fill-opacity="1" stroke="#000000" stroke-opacity="1" stroke-width="5.12"/>
<circle clip-path="url(#clip360)" cx="2081.25" cy="155.698" r="23" fill="#009af9" fill-rule="evenodd" fill-opacity="1" stroke="#000000" stroke-opacity="1" stroke-width="5.12"/>
<circle clip-path="url(#clip360)" cx="2081.25" cy="155.698" r="23" fill="#009af9" fill-rule="evenodd" fill-opacity="1" stroke="#000000" stroke-opacity="1" stroke-width="5.12"/>
<circle clip-path="url(#clip360)" cx="2081.25" cy="155.698" r="23" fill="#009af9" fill-rule="evenodd" fill-opacity="1" stroke="#000000" stroke-opacity="1" stroke-width="5.12"/>
<circle clip-path="url(#clip360)" cx="2081.25" cy="155.698" r="23" fill="#009af9" fill-rule="evenodd" fill-opacity="1" stroke="#000000" stroke-opacity="1" stroke-width="5.12"/>
<circle clip-path="url(#clip360)" cx="2081.25" cy="155.698" r="23" fill="#009af9" fill-rule="evenodd" fill-opacity="1" stroke="#000000" stroke-opacity="1" stroke-width="5.12"/>
<circle clip-path="url(#clip360)" cx="2081.25" cy="155.698" r="23" fill="#009af9" fill-rule="evenodd" fill-opacity="1" stroke="#000000" stroke-opacity="1" stroke-width="5.12"/>
<circle clip-path="url(#clip360)" cx="2081.25" cy="155.698" r="23" fill="#009af9" fill-rule="evenodd" fill-opacity="1" stroke="#000000" stroke-opacity="1" stroke-width="5.12"/>
<circle clip-path="url(#clip360)" cx="2081.25" cy="155.698" r="23" fill="#009af9" fill-rule="evenodd" fill-opacity="1" stroke="#000000" stroke-opacity="1" stroke-width="5.12"/>
<circle clip-path="url(#clip360)" cx="2081.25" cy="155.698" r="23" fill="#009af9" fill-rule="evenodd" fill-opacity="1" stroke="#000000" stroke-opacity="1" stroke-width="5.12"/>
<circle clip-path="url(#clip360)" cx="2081.25" cy="155.698" r="23" fill="#009af9" fill-rule="evenodd" fill-opacity="1" stroke="#000000" stroke-opacity="1" stroke-width="5.12"/>
<circle clip-path="url(#clip360)" cx="2081.25" cy="155.698" r="23" fill="#009af9" fill-rule="evenodd" fill-opacity="1" stroke="#000000" stroke-opacity="1" stroke-width="5.12"/>
<circle clip-path="url(#clip360)" cx="2081.25" cy="155.698" r="23" fill="#009af9" fill-rule="evenodd" fill-opacity="1" stroke="#000000" stroke-opacity="1" stroke-width="5.12"/>
<circle clip-path="url(#clip360)" cx="2081.25" cy="155.698" r="23" fill="#009af9" fill-rule="evenodd" fill-opacity="1" stroke="#000000" stroke-opacity="1" stroke-width="5.12"/>
<path clip-path="url(#clip360)" d="M 0 0 M2193.09 175.385 Q2191.28 180.015 2189.57 181.427 Q2187.85 182.839 2184.98 182.839 L2181.58 182.839 L2181.58 179.274 L2184.08 179.274 Q2185.84 179.274 2186.81 178.44 Q2187.78 177.607 2188.96 174.505 L2189.73 172.561 L2179.24 147.052 L2183.76 147.052 L2191.86 167.329 L2199.96 147.052 L2204.47 147.052 L2193.09 175.385 Z" fill="#000000" fill-rule="evenodd" fill-opacity="1" /><path clip-path="url(#clip360)" d="M 0 0 M2210.35 169.042 L2217.99 169.042 L2217.99 142.677 L2209.68 144.343 L2209.68 140.084 L2217.95 138.418 L2222.62 138.418 L2222.62 169.042 L2230.26 169.042 L2230.26 172.978 L2210.35 172.978 L2210.35 169.042 Z" fill="#000000" fill-rule="evenodd" fill-opacity="1" /></svg>
