<?xml version="1.0" encoding="utf-8"?>
<svg xmlns="http://www.w3.org/2000/svg" xmlns:xlink="http://www.w3.org/1999/xlink" width="600" height="400" viewBox="0 0 2400 1600">
<defs>
  <clipPath id="clip230">
    <rect x="0" y="0" width="2400" height="1600"/>
  </clipPath>
</defs>
<path clip-path="url(#clip230)" d="
M0 1600 L2400 1600 L2400 0 L0 0  Z
  " fill="#ffffff" fill-rule="evenodd" fill-opacity="1"/>
<defs>
  <clipPath id="clip231">
    <rect x="480" y="0" width="1681" height="1600"/>
  </clipPath>
</defs>
<path clip-path="url(#clip230)" d="
M86.9921 1521.01 L2352.76 1521.01 L2352.76 47.2441 L86.9921 47.2441  Z
  " fill="#ffffff" fill-rule="evenodd" fill-opacity="1"/>
<defs>
  <clipPath id="clip232">
    <rect x="86" y="47" width="2267" height="1475"/>
  </clipPath>
</defs>
<polyline clip-path="url(#clip232)" style="stroke:#000000; stroke-width:2; stroke-opacity:0.1; fill:none" points="
  303.387,1521.01 303.387,47.2441 
  "/>
<polyline clip-path="url(#clip232)" style="stroke:#000000; stroke-width:2; stroke-opacity:0.1; fill:none" points="
  717.835,1521.01 717.835,47.2441 
  "/>
<polyline clip-path="url(#clip232)" style="stroke:#000000; stroke-width:2; stroke-opacity:0.1; fill:none" points="
  1132.28,1521.01 1132.28,47.2441 
  "/>
<polyline clip-path="url(#clip232)" style="stroke:#000000; stroke-width:2; stroke-opacity:0.1; fill:none" points="
  1546.73,1521.01 1546.73,47.2441 
  "/>
<polyline clip-path="url(#clip232)" style="stroke:#000000; stroke-width:2; stroke-opacity:0.1; fill:none" points="
  1961.18,1521.01 1961.18,47.2441 
  "/>
<polyline clip-path="url(#clip232)" style="stroke:#000000; stroke-width:2; stroke-opacity:0.1; fill:none" points="
  86.9921,1479.3 2352.76,1479.3 
  "/>
<polyline clip-path="url(#clip232)" style="stroke:#000000; stroke-width:2; stroke-opacity:0.1; fill:none" points="
  86.9921,1186.79 2352.76,1186.79 
  "/>
<polyline clip-path="url(#clip232)" style="stroke:#000000; stroke-width:2; stroke-opacity:0.1; fill:none" points="
  86.9921,894.276 2352.76,894.276 
  "/>
<polyline clip-path="url(#clip232)" style="stroke:#000000; stroke-width:2; stroke-opacity:0.1; fill:none" points="
  86.9921,601.765 2352.76,601.765 
  "/>
<polyline clip-path="url(#clip232)" style="stroke:#000000; stroke-width:2; stroke-opacity:0.1; fill:none" points="
  86.9921,309.255 2352.76,309.255 
  "/>
<polyline clip-path="url(#clip230)" style="stroke:#000000; stroke-width:4; stroke-opacity:1; fill:none" points="
  86.9921,1521.01 2352.76,1521.01 
  "/>
<polyline clip-path="url(#clip230)" style="stroke:#000000; stroke-width:4; stroke-opacity:1; fill:none" points="
  86.9921,1521.01 86.9921,47.2441 
  "/>
<polyline clip-path="url(#clip230)" style="stroke:#000000; stroke-width:4; stroke-opacity:1; fill:none" points="
  303.387,1521.01 303.387,1503.32 
  "/>
<polyline clip-path="url(#clip230)" style="stroke:#000000; stroke-width:4; stroke-opacity:1; fill:none" points="
  717.835,1521.01 717.835,1503.32 
  "/>
<polyline clip-path="url(#clip230)" style="stroke:#000000; stroke-width:4; stroke-opacity:1; fill:none" points="
  1132.28,1521.01 1132.28,1503.32 
  "/>
<polyline clip-path="url(#clip230)" style="stroke:#000000; stroke-width:4; stroke-opacity:1; fill:none" points="
  1546.73,1521.01 1546.73,1503.32 
  "/>
<polyline clip-path="url(#clip230)" style="stroke:#000000; stroke-width:4; stroke-opacity:1; fill:none" points="
  1961.18,1521.01 1961.18,1503.32 
  "/>
<polyline clip-path="url(#clip230)" style="stroke:#000000; stroke-width:4; stroke-opacity:1; fill:none" points="
  86.9921,1479.3 114.181,1479.3 
  "/>
<polyline clip-path="url(#clip230)" style="stroke:#000000; stroke-width:4; stroke-opacity:1; fill:none" points="
  86.9921,1186.79 114.181,1186.79 
  "/>
<polyline clip-path="url(#clip230)" style="stroke:#000000; stroke-width:4; stroke-opacity:1; fill:none" points="
  86.9921,894.276 114.181,894.276 
  "/>
<polyline clip-path="url(#clip230)" style="stroke:#000000; stroke-width:4; stroke-opacity:1; fill:none" points="
  86.9921,601.765 114.181,601.765 
  "/>
<polyline clip-path="url(#clip230)" style="stroke:#000000; stroke-width:4; stroke-opacity:1; fill:none" points="
  86.9921,309.255 114.181,309.255 
  "/>
<path clip-path="url(#clip230)" d="M 0 0 M265.817 1559.6 L278.294 1559.6 L278.294 1563.39 L265.817 1563.39 L265.817 1559.6 Z" fill="#000000" fill-rule="evenodd" fill-opacity="1" /><path clip-path="url(#clip230)" d="M 0 0 M284.174 1570.54 L291.812 1570.54 L291.812 1544.18 L283.502 1545.85 L283.502 1541.59 L291.766 1539.92 L296.442 1539.92 L296.442 1570.54 L304.081 1570.54 L304.081 1574.48 L284.174 1574.48 L284.174 1570.54 Z" fill="#000000" fill-rule="evenodd" fill-opacity="1" /><path clip-path="url(#clip230)" d="M 0 0 M309.15 1568.6 L314.035 1568.6 L314.035 1574.48 L309.15 1574.48 L309.15 1568.6 Z" fill="#000000" fill-rule="evenodd" fill-opacity="1" /><path clip-path="url(#clip230)" d="M 0 0 M329.104 1558.07 Q325.771 1558.07 323.849 1559.85 Q321.951 1561.63 321.951 1564.76 Q321.951 1567.88 323.849 1569.67 Q325.771 1571.45 329.104 1571.45 Q332.437 1571.45 334.359 1569.67 Q336.28 1567.86 336.28 1564.76 Q336.28 1561.63 334.359 1559.85 Q332.46 1558.07 329.104 1558.07 M324.428 1556.08 Q321.419 1555.34 319.729 1553.28 Q318.062 1551.22 318.062 1548.25 Q318.062 1544.11 321.002 1541.7 Q323.965 1539.29 329.104 1539.29 Q334.266 1539.29 337.206 1541.7 Q340.146 1544.11 340.146 1548.25 Q340.146 1551.22 338.456 1553.28 Q336.789 1555.34 333.803 1556.08 Q337.183 1556.86 339.058 1559.16 Q340.956 1561.45 340.956 1564.76 Q340.956 1569.78 337.877 1572.47 Q334.822 1575.15 329.104 1575.15 Q323.386 1575.15 320.308 1572.47 Q317.252 1569.78 317.252 1564.76 Q317.252 1561.45 319.15 1559.16 Q321.048 1556.86 324.428 1556.08 M322.715 1548.69 Q322.715 1551.38 324.382 1552.88 Q326.072 1554.39 329.104 1554.39 Q332.113 1554.39 333.803 1552.88 Q335.516 1551.38 335.516 1548.69 Q335.516 1546.01 333.803 1544.5 Q332.113 1543 329.104 1543 Q326.072 1543 324.382 1544.5 Q322.715 1546.01 322.715 1548.69 Z" fill="#000000" fill-rule="evenodd" fill-opacity="1" /><path clip-path="url(#clip230)" d="M 0 0 M680.139 1559.6 L692.615 1559.6 L692.615 1563.39 L680.139 1563.39 L680.139 1559.6 Z" fill="#000000" fill-rule="evenodd" fill-opacity="1" /><path clip-path="url(#clip230)" d="M 0 0 M698.495 1570.54 L706.134 1570.54 L706.134 1544.18 L697.824 1545.85 L697.824 1541.59 L706.088 1539.92 L710.764 1539.92 L710.764 1570.54 L718.402 1570.54 L718.402 1574.48 L698.495 1574.48 L698.495 1570.54 Z" fill="#000000" fill-rule="evenodd" fill-opacity="1" /><path clip-path="url(#clip230)" d="M 0 0 M723.472 1568.6 L728.356 1568.6 L728.356 1574.48 L723.472 1574.48 L723.472 1568.6 Z" fill="#000000" fill-rule="evenodd" fill-opacity="1" /><path clip-path="url(#clip230)" d="M 0 0 M744.004 1555.34 Q740.856 1555.34 739.004 1557.49 Q737.175 1559.64 737.175 1563.39 Q737.175 1567.12 739.004 1569.29 Q740.856 1571.45 744.004 1571.45 Q747.152 1571.45 748.981 1569.29 Q750.833 1567.12 750.833 1563.39 Q750.833 1559.64 748.981 1557.49 Q747.152 1555.34 744.004 1555.34 M753.286 1540.68 L753.286 1544.94 Q751.527 1544.11 749.722 1543.67 Q747.939 1543.23 746.18 1543.23 Q741.55 1543.23 739.097 1546.36 Q736.666 1549.48 736.319 1555.8 Q737.685 1553.79 739.745 1552.72 Q741.805 1551.63 744.282 1551.63 Q749.49 1551.63 752.499 1554.8 Q755.532 1557.95 755.532 1563.39 Q755.532 1568.72 752.384 1571.93 Q749.236 1575.15 744.004 1575.15 Q738.009 1575.15 734.837 1570.57 Q731.666 1565.96 731.666 1557.23 Q731.666 1549.04 735.555 1544.18 Q739.444 1539.29 745.995 1539.29 Q747.754 1539.29 749.536 1539.64 Q751.342 1539.99 753.286 1540.68 Z" fill="#000000" fill-rule="evenodd" fill-opacity="1" /><path clip-path="url(#clip230)" d="M 0 0 M1094.43 1559.6 L1106.9 1559.6 L1106.9 1563.39 L1094.43 1563.39 L1094.43 1559.6 Z" fill="#000000" fill-rule="evenodd" fill-opacity="1" /><path clip-path="url(#clip230)" d="M 0 0 M1112.78 1570.54 L1120.42 1570.54 L1120.42 1544.18 L1112.11 1545.85 L1112.11 1541.59 L1120.37 1539.92 L1125.05 1539.92 L1125.05 1570.54 L1132.69 1570.54 L1132.69 1574.48 L1112.78 1574.48 L1112.78 1570.54 Z" fill="#000000" fill-rule="evenodd" fill-opacity="1" /><path clip-path="url(#clip230)" d="M 0 0 M1137.76 1568.6 L1142.64 1568.6 L1142.64 1574.48 L1137.76 1574.48 L1137.76 1568.6 Z" fill="#000000" fill-rule="evenodd" fill-opacity="1" /><path clip-path="url(#clip230)" d="M 0 0 M1160.56 1543.99 L1148.75 1562.44 L1160.56 1562.44 L1160.56 1543.99 M1159.33 1539.92 L1165.21 1539.92 L1165.21 1562.44 L1170.14 1562.44 L1170.14 1566.33 L1165.21 1566.33 L1165.21 1574.48 L1160.56 1574.48 L1160.56 1566.33 L1144.96 1566.33 L1144.96 1561.82 L1159.33 1539.92 Z" fill="#000000" fill-rule="evenodd" fill-opacity="1" /><path clip-path="url(#clip230)" d="M 0 0 M1509.92 1559.6 L1522.39 1559.6 L1522.39 1563.39 L1509.92 1563.39 L1509.92 1559.6 Z" fill="#000000" fill-rule="evenodd" fill-opacity="1" /><path clip-path="url(#clip230)" d="M 0 0 M1528.27 1570.54 L1535.91 1570.54 L1535.91 1544.18 L1527.6 1545.85 L1527.6 1541.59 L1535.86 1539.92 L1540.54 1539.92 L1540.54 1570.54 L1548.18 1570.54 L1548.18 1574.48 L1528.27 1574.48 L1528.27 1570.54 Z" fill="#000000" fill-rule="evenodd" fill-opacity="1" /><path clip-path="url(#clip230)" d="M 0 0 M1553.25 1568.6 L1558.13 1568.6 L1558.13 1574.48 L1553.25 1574.48 L1553.25 1568.6 Z" fill="#000000" fill-rule="evenodd" fill-opacity="1" /><path clip-path="url(#clip230)" d="M 0 0 M1567.23 1570.54 L1583.55 1570.54 L1583.55 1574.48 L1561.61 1574.48 L1561.61 1570.54 Q1564.27 1567.79 1568.85 1563.16 Q1573.46 1558.51 1574.64 1557.17 Q1576.88 1554.64 1577.76 1552.91 Q1578.67 1551.15 1578.67 1549.46 Q1578.67 1546.7 1576.72 1544.97 Q1574.8 1543.23 1571.7 1543.23 Q1569.5 1543.23 1567.05 1543.99 Q1564.61 1544.76 1561.84 1546.31 L1561.84 1541.59 Q1564.66 1540.45 1567.11 1539.87 Q1569.57 1539.29 1571.61 1539.29 Q1576.98 1539.29 1580.17 1541.98 Q1583.36 1544.67 1583.36 1549.16 Q1583.36 1551.29 1582.55 1553.21 Q1581.77 1555.1 1579.66 1557.7 Q1579.08 1558.37 1575.98 1561.59 Q1572.88 1564.78 1567.23 1570.54 Z" fill="#000000" fill-rule="evenodd" fill-opacity="1" /><path clip-path="url(#clip230)" d="M 0 0 M1923.57 1559.6 L1936.04 1559.6 L1936.04 1563.39 L1923.57 1563.39 L1923.57 1559.6 Z" fill="#000000" fill-rule="evenodd" fill-opacity="1" /><path clip-path="url(#clip230)" d="M 0 0 M1941.92 1570.54 L1949.56 1570.54 L1949.56 1544.18 L1941.25 1545.85 L1941.25 1541.59 L1949.51 1539.92 L1954.19 1539.92 L1954.19 1570.54 L1961.83 1570.54 L1961.83 1574.48 L1941.92 1574.48 L1941.92 1570.54 Z" fill="#000000" fill-rule="evenodd" fill-opacity="1" /><path clip-path="url(#clip230)" d="M 0 0 M1966.9 1568.6 L1971.78 1568.6 L1971.78 1574.48 L1966.9 1574.48 L1966.9 1568.6 Z" fill="#000000" fill-rule="evenodd" fill-opacity="1" /><path clip-path="url(#clip230)" d="M 0 0 M1986.85 1543 Q1983.24 1543 1981.41 1546.56 Q1979.61 1550.11 1979.61 1557.23 Q1979.61 1564.34 1981.41 1567.91 Q1983.24 1571.45 1986.85 1571.45 Q1990.49 1571.45 1992.29 1567.91 Q1994.12 1564.34 1994.12 1557.23 Q1994.12 1550.11 1992.29 1546.56 Q1990.49 1543 1986.85 1543 M1986.85 1539.29 Q1992.66 1539.29 1995.72 1543.9 Q1998.8 1548.48 1998.8 1557.23 Q1998.8 1565.96 1995.72 1570.57 Q1992.66 1575.15 1986.85 1575.15 Q1981.04 1575.15 1977.96 1570.57 Q1974.91 1565.96 1974.91 1557.23 Q1974.91 1548.48 1977.96 1543.9 Q1981.04 1539.29 1986.85 1539.29 Z" fill="#000000" fill-rule="evenodd" fill-opacity="1" /><path clip-path="url(#clip230)" d="M 0 0 M14.0804 1465.1 Q10.4693 1465.1 8.64057 1468.66 Q6.83502 1472.2 6.83502 1479.33 Q6.83502 1486.44 8.64057 1490 Q10.4693 1493.55 14.0804 1493.55 Q17.7146 1493.55 19.5201 1490 Q21.3488 1486.44 21.3488 1479.33 Q21.3488 1472.2 19.5201 1468.66 Q17.7146 1465.1 14.0804 1465.1 M14.0804 1461.39 Q19.8905 1461.39 22.946 1466 Q26.0247 1470.58 26.0247 1479.33 Q26.0247 1488.06 22.946 1492.67 Q19.8905 1497.25 14.0804 1497.25 Q8.2702 1497.25 5.19151 1492.67 Q2.13597 1488.06 2.13597 1479.33 Q2.13597 1470.58 5.19151 1466 Q8.2702 1461.39 14.0804 1461.39 Z" fill="#000000" fill-rule="evenodd" fill-opacity="1" /><path clip-path="url(#clip230)" d="M 0 0 M31.0941 1490.7 L35.9784 1490.7 L35.9784 1496.58 L31.0941 1496.58 L31.0941 1490.7 Z" fill="#000000" fill-rule="evenodd" fill-opacity="1" /><path clip-path="url(#clip230)" d="M 0 0 M51.0477 1465.1 Q47.4367 1465.1 45.608 1468.66 Q43.8024 1472.2 43.8024 1479.33 Q43.8024 1486.44 45.608 1490 Q47.4367 1493.55 51.0477 1493.55 Q54.682 1493.55 56.4875 1490 Q58.3162 1486.44 58.3162 1479.33 Q58.3162 1472.2 56.4875 1468.66 Q54.682 1465.1 51.0477 1465.1 M51.0477 1461.39 Q56.8579 1461.39 59.9134 1466 Q62.9921 1470.58 62.9921 1479.33 Q62.9921 1488.06 59.9134 1492.67 Q56.8579 1497.25 51.0477 1497.25 Q45.2376 1497.25 42.1589 1492.67 Q39.1034 1488.06 39.1034 1479.33 Q39.1034 1470.58 42.1589 1466 Q45.2376 1461.39 51.0477 1461.39 Z" fill="#000000" fill-rule="evenodd" fill-opacity="1" /><path clip-path="url(#clip230)" d="M 0 0 M15.0757 1172.59 Q11.4646 1172.59 9.63593 1176.15 Q7.83038 1179.69 7.83038 1186.82 Q7.83038 1193.93 9.63593 1197.49 Q11.4646 1201.03 15.0757 1201.03 Q18.71 1201.03 20.5155 1197.49 Q22.3442 1193.93 22.3442 1186.82 Q22.3442 1179.69 20.5155 1176.15 Q18.71 1172.59 15.0757 1172.59 M15.0757 1168.88 Q20.8859 1168.88 23.9414 1173.49 Q27.0201 1178.07 27.0201 1186.82 Q27.0201 1195.55 23.9414 1200.15 Q20.8859 1204.74 15.0757 1204.74 Q9.26556 1204.74 6.18687 1200.15 Q3.13134 1195.55 3.13134 1186.82 Q3.13134 1178.07 6.18687 1173.49 Q9.26556 1168.88 15.0757 1168.88 Z" fill="#000000" fill-rule="evenodd" fill-opacity="1" /><path clip-path="url(#clip230)" d="M 0 0 M32.0895 1198.19 L36.9737 1198.19 L36.9737 1204.07 L32.0895 1204.07 L32.0895 1198.19 Z" fill="#000000" fill-rule="evenodd" fill-opacity="1" /><path clip-path="url(#clip230)" d="M 0 0 M42.0895 1169.51 L60.4458 1169.51 L60.4458 1173.44 L46.3718 1173.44 L46.3718 1181.91 Q47.3904 1181.57 48.4089 1181.4 Q49.4274 1181.22 50.4459 1181.22 Q56.2329 1181.22 59.6125 1184.39 Q62.9921 1187.56 62.9921 1192.98 Q62.9921 1198.56 59.5199 1201.66 Q56.0477 1204.74 49.7283 1204.74 Q47.5524 1204.74 45.2839 1204.37 Q43.0385 1204 40.6311 1203.26 L40.6311 1198.56 Q42.7145 1199.69 44.9367 1200.25 Q47.1589 1200.8 49.6357 1200.8 Q53.6403 1200.8 55.9783 1198.7 Q58.3162 1196.59 58.3162 1192.98 Q58.3162 1189.37 55.9783 1187.26 Q53.6403 1185.15 49.6357 1185.15 Q47.7607 1185.15 45.8857 1185.57 Q44.0339 1185.99 42.0895 1186.87 L42.0895 1169.51 Z" fill="#000000" fill-rule="evenodd" fill-opacity="1" /><path clip-path="url(#clip230)" d="M 0 0 M6.11743 907.621 L13.7563 907.621 L13.7563 881.255 L5.44614 882.922 L5.44614 878.663 L13.71 876.996 L18.3859 876.996 L18.3859 907.621 L26.0247 907.621 L26.0247 911.556 L6.11743 911.556 L6.11743 907.621 Z" fill="#000000" fill-rule="evenodd" fill-opacity="1" /><path clip-path="url(#clip230)" d="M 0 0 M31.0941 905.676 L35.9784 905.676 L35.9784 911.556 L31.0941 911.556 L31.0941 905.676 Z" fill="#000000" fill-rule="evenodd" fill-opacity="1" /><path clip-path="url(#clip230)" d="M 0 0 M51.0477 880.075 Q47.4367 880.075 45.608 883.64 Q43.8024 887.181 43.8024 894.311 Q43.8024 901.417 45.608 904.982 Q47.4367 908.524 51.0477 908.524 Q54.682 908.524 56.4875 904.982 Q58.3162 901.417 58.3162 894.311 Q58.3162 887.181 56.4875 883.64 Q54.682 880.075 51.0477 880.075 M51.0477 876.371 Q56.8579 876.371 59.9134 880.978 Q62.9921 885.561 62.9921 894.311 Q62.9921 903.038 59.9134 907.644 Q56.8579 912.227 51.0477 912.227 Q45.2376 912.227 42.1589 907.644 Q39.1034 903.038 39.1034 894.311 Q39.1034 885.561 42.1589 880.978 Q45.2376 876.371 51.0477 876.371 Z" fill="#000000" fill-rule="evenodd" fill-opacity="1" /><path clip-path="url(#clip230)" d="M 0 0 M7.1128 615.11 L14.7516 615.11 L14.7516 588.745 L6.4415 590.411 L6.4415 586.152 L14.7053 584.485 L19.3812 584.485 L19.3812 615.11 L27.0201 615.11 L27.0201 619.045 L7.1128 619.045 L7.1128 615.11 Z" fill="#000000" fill-rule="evenodd" fill-opacity="1" /><path clip-path="url(#clip230)" d="M 0 0 M32.0895 613.166 L36.9737 613.166 L36.9737 619.045 L32.0895 619.045 L32.0895 613.166 Z" fill="#000000" fill-rule="evenodd" fill-opacity="1" /><path clip-path="url(#clip230)" d="M 0 0 M42.0895 584.485 L60.4458 584.485 L60.4458 588.421 L46.3718 588.421 L46.3718 596.893 Q47.3904 596.545 48.4089 596.383 Q49.4274 596.198 50.4459 596.198 Q56.2329 596.198 59.6125 599.37 Q62.9921 602.541 62.9921 607.957 Q62.9921 613.536 59.5199 616.638 Q56.0477 619.717 49.7283 619.717 Q47.5524 619.717 45.2839 619.346 Q43.0385 618.976 40.6311 618.235 L40.6311 613.536 Q42.7145 614.67 44.9367 615.226 Q47.1589 615.781 49.6357 615.781 Q53.6403 615.781 55.9783 613.675 Q58.3162 611.569 58.3162 607.957 Q58.3162 604.346 55.9783 602.24 Q53.6403 600.133 49.6357 600.133 Q47.7607 600.133 45.8857 600.55 Q44.0339 600.967 42.0895 601.846 L42.0895 584.485 Z" fill="#000000" fill-rule="evenodd" fill-opacity="1" /><path clip-path="url(#clip230)" d="M 0 0 M9.70537 322.599 L26.0247 322.599 L26.0247 326.535 L4.0804 326.535 L4.0804 322.599 Q6.74243 319.845 11.3257 315.215 Q15.9322 310.562 17.1127 309.22 Q19.3581 306.697 20.2377 304.961 Q21.1405 303.201 21.1405 301.512 Q21.1405 298.757 19.1961 297.021 Q17.2748 295.285 14.1729 295.285 Q11.9739 295.285 9.52019 296.049 Q7.08965 296.813 4.31188 298.363 L4.31188 293.641 Q7.13594 292.507 9.58963 291.928 Q12.0433 291.35 14.0804 291.35 Q19.4507 291.35 22.6451 294.035 Q25.8395 296.72 25.8395 301.211 Q25.8395 303.34 25.0294 305.262 Q24.2423 307.16 22.1359 309.752 Q21.5572 310.424 18.4553 313.641 Q15.3535 316.836 9.70537 322.599 Z" fill="#000000" fill-rule="evenodd" fill-opacity="1" /><path clip-path="url(#clip230)" d="M 0 0 M31.0941 320.655 L35.9784 320.655 L35.9784 326.535 L31.0941 326.535 L31.0941 320.655 Z" fill="#000000" fill-rule="evenodd" fill-opacity="1" /><path clip-path="url(#clip230)" d="M 0 0 M51.0477 295.053 Q47.4367 295.053 45.608 298.618 Q43.8024 302.16 43.8024 309.289 Q43.8024 316.396 45.608 319.961 Q47.4367 323.502 51.0477 323.502 Q54.682 323.502 56.4875 319.961 Q58.3162 316.396 58.3162 309.289 Q58.3162 302.16 56.4875 298.618 Q54.682 295.053 51.0477 295.053 M51.0477 291.35 Q56.8579 291.35 59.9134 295.956 Q62.9921 300.539 62.9921 309.289 Q62.9921 318.016 59.9134 322.623 Q56.8579 327.206 51.0477 327.206 Q45.2376 327.206 42.1589 322.623 Q39.1034 318.016 39.1034 309.289 Q39.1034 300.539 42.1589 295.956 Q45.2376 291.35 51.0477 291.35 Z" fill="#000000" fill-rule="evenodd" fill-opacity="1" /><path clip-path="url(#clip232)" d="
M151.118 1453.58 L156.48 1451.78 L161.842 1449.99 L167.205 1448.21 L172.567 1446.45 L177.929 1444.73 L183.292 1443.04 L188.654 1441.41 L194.017 1439.84 L199.379 1438.35 
  L204.741 1436.95 L210.104 1435.64 L215.466 1434.44 L220.828 1433.36 L226.191 1432.38 L231.553 1431.52 L236.916 1430.75 L242.278 1430.06 L247.64 1429.44 L253.003 1428.84 
  L258.365 1428.24 L263.728 1427.59 L269.09 1426.87 L274.452 1426.02 L279.815 1425.03 L285.177 1423.85 L290.539 1422.45 L295.902 1420.83 L301.264 1418.97 L306.627 1416.88 
  L311.989 1414.54 L317.351 1412 L322.714 1409.25 L328.076 1406.34 L333.438 1403.28 L338.801 1400.12 L344.163 1396.88 L349.526 1393.59 L354.888 1390.29 L360.25 1386.99 
  L365.613 1383.71 L370.975 1380.47 L376.338 1377.28 L381.7 1374.14 L387.062 1371.06 L392.425 1368.04 L397.787 1365.08 L403.149 1362.18 L408.512 1359.36 L413.874 1356.62 
  L419.237 1353.97 L424.599 1351.45 L429.961 1349.06 L435.324 1346.85 L440.686 1344.84 L446.048 1343.07 L451.411 1341.57 L456.773 1340.36 L462.136 1339.46 L467.498 1338.88 
  L472.86 1338.63 L478.223 1338.68 L483.585 1339.01 L488.948 1339.58 L494.31 1340.32 L499.672 1341.18 L505.035 1342.08 L510.397 1342.94 L515.759 1343.68 L521.122 1344.23 
  L526.484 1344.51 L531.847 1344.46 L537.209 1344.03 L542.571 1343.18 L547.934 1341.9 L553.296 1340.18 L558.659 1338.03 L564.021 1335.48 L569.383 1332.55 L574.746 1329.29 
  L580.108 1325.75 L585.47 1322 L590.833 1318.07 L596.195 1314.02 L601.558 1309.9 L606.92 1305.76 L612.282 1301.62 L617.645 1297.52 L623.007 1293.47 L628.369 1289.49 
  L633.732 1285.58 L639.094 1281.73 L644.457 1277.94 L649.819 1274.19 L655.181 1270.47 L660.544 1266.74 L665.906 1262.99 L671.269 1259.18 L676.631 1255.28 L681.993 1251.27 
  L681.993 1479.3 L676.631 1479.3 L671.269 1479.3 L665.906 1479.3 L660.544 1479.3 L655.181 1479.3 L649.819 1479.3 L644.457 1479.3 L639.094 1479.3 L633.732 1479.3 
  L628.369 1479.3 L623.007 1479.3 L617.645 1479.3 L612.282 1479.3 L606.92 1479.3 L601.558 1479.3 L596.195 1479.3 L590.833 1479.3 L585.47 1479.3 L580.108 1479.3 
  L574.746 1479.3 L569.383 1479.3 L564.021 1479.3 L558.659 1479.3 L553.296 1479.3 L547.934 1479.3 L542.571 1479.3 L537.209 1479.3 L531.847 1479.3 L526.484 1479.3 
  L521.122 1479.3 L515.759 1479.3 L510.397 1479.3 L505.035 1479.3 L499.672 1479.3 L494.31 1479.3 L488.948 1479.3 L483.585 1479.3 L478.223 1479.3 L472.86 1479.3 
  L467.498 1479.3 L462.136 1479.3 L456.773 1479.3 L451.411 1479.3 L446.048 1479.3 L440.686 1479.3 L435.324 1479.3 L429.961 1479.3 L424.599 1479.3 L419.237 1479.3 
  L413.874 1479.3 L408.512 1479.3 L403.149 1479.3 L397.787 1479.3 L392.425 1479.3 L387.062 1479.3 L381.7 1479.3 L376.338 1479.3 L370.975 1479.3 L365.613 1479.3 
  L360.25 1479.3 L354.888 1479.3 L349.526 1479.3 L344.163 1479.3 L338.801 1479.3 L333.438 1479.3 L328.076 1479.3 L322.714 1479.3 L317.351 1479.3 L311.989 1479.3 
  L306.627 1479.3 L301.264 1479.3 L295.902 1479.3 L290.539 1479.3 L285.177 1479.3 L279.815 1479.3 L274.452 1479.3 L269.09 1479.3 L263.728 1479.3 L258.365 1479.3 
  L253.003 1479.3 L247.64 1479.3 L242.278 1479.3 L236.916 1479.3 L231.553 1479.3 L226.191 1479.3 L220.828 1479.3 L215.466 1479.3 L210.104 1479.3 L204.741 1479.3 
  L199.379 1479.3 L194.017 1479.3 L188.654 1479.3 L183.292 1479.3 L177.929 1479.3 L172.567 1479.3 L167.205 1479.3 L161.842 1479.3 L156.48 1479.3 L151.118 1479.3 
   Z
  " fill="#ffa500" fill-rule="evenodd" fill-opacity="0.5"/>
<polyline clip-path="url(#clip232)" style="stroke:#ffa500; stroke-width:4; stroke-opacity:1; fill:none" points="
  151.118,1453.58 156.48,1451.78 161.842,1449.99 167.205,1448.21 172.567,1446.45 177.929,1444.73 183.292,1443.04 188.654,1441.41 194.017,1439.84 199.379,1438.35 
  204.741,1436.95 210.104,1435.64 215.466,1434.44 220.828,1433.36 226.191,1432.38 231.553,1431.52 236.916,1430.75 242.278,1430.06 247.64,1429.44 253.003,1428.84 
  258.365,1428.24 263.728,1427.59 269.09,1426.87 274.452,1426.02 279.815,1425.03 285.177,1423.85 290.539,1422.45 295.902,1420.83 301.264,1418.97 306.627,1416.88 
  311.989,1414.54 317.351,1412 322.714,1409.25 328.076,1406.34 333.438,1403.28 338.801,1400.12 344.163,1396.88 349.526,1393.59 354.888,1390.29 360.25,1386.99 
  365.613,1383.71 370.975,1380.47 376.338,1377.28 381.7,1374.14 387.062,1371.06 392.425,1368.04 397.787,1365.08 403.149,1362.18 408.512,1359.36 413.874,1356.62 
  419.237,1353.97 424.599,1351.45 429.961,1349.06 435.324,1346.85 440.686,1344.84 446.048,1343.07 451.411,1341.57 456.773,1340.36 462.136,1339.46 467.498,1338.88 
  472.86,1338.63 478.223,1338.68 483.585,1339.01 488.948,1339.58 494.31,1340.32 499.672,1341.18 505.035,1342.08 510.397,1342.94 515.759,1343.68 521.122,1344.23 
  526.484,1344.51 531.847,1344.46 537.209,1344.03 542.571,1343.18 547.934,1341.9 553.296,1340.18 558.659,1338.03 564.021,1335.48 569.383,1332.55 574.746,1329.29 
  580.108,1325.75 585.47,1322 590.833,1318.07 596.195,1314.02 601.558,1309.9 606.92,1305.76 612.282,1301.62 617.645,1297.52 623.007,1293.47 628.369,1289.49 
  633.732,1285.58 639.094,1281.73 644.457,1277.94 649.819,1274.19 655.181,1270.47 660.544,1266.74 665.906,1262.99 671.269,1259.18 676.631,1255.28 681.993,1251.27 
  
  "/>
<path clip-path="url(#clip232)" d="
M681.993 1251.27 L694.175 1241.53 L706.357 1230.58 L718.539 1218.02 L730.721 1203.5 L742.902 1186.81 L755.084 1167.93 L767.266 1147.1 L779.448 1124.82 L791.63 1101.8 
  L803.811 1078.85 L815.993 1056.72 L828.175 1035.95 L840.357 1016.74 L852.539 998.909 L864.72 981.897 L876.902 964.866 L889.084 946.826 L901.266 926.815 L913.448 904.084 
  L925.629 878.305 L937.811 849.722 L949.993 819.224 L962.175 788.244 L974.357 758.509 L986.538 731.655 L998.72 708.838 L1010.9 690.444 L1023.08 676.015 L1035.27 664.405 
  L1047.45 654.104 L1059.63 643.636 L1071.81 631.887 L1083.99 618.285 L1096.17 602.79 L1108.36 585.738 L1120.54 567.608 L1132.72 548.802 L1144.9 529.525 L1157.08 509.779 
  L1169.27 489.463 L1181.45 468.517 L1193.63 447.049 L1205.81 425.382 L1217.99 404.009 L1230.17 383.477 L1242.36 364.231 L1254.54 346.473 L1266.72 330.081 L1278.9 314.62 
  L1291.08 299.434 L1303.27 283.81 L1315.45 267.157 L1327.63 249.156 L1339.81 229.824 L1351.99 209.501 L1364.17 188.76 L1376.36 168.3 L1388.54 148.842 L1400.72 131.087 
  L1412.9 115.691 L1425.08 103.274 L1437.27 94.4061 L1449.45 89.5485 L1461.63 88.9544 L1473.81 92.5423 L1485.99 99.8023 L1498.17 109.801 L1510.36 121.338 L1522.54 133.246 
  L1534.72 144.755 L1546.9 155.803 L1559.08 167.135 L1571.27 180.144 L1583.45 196.464 L1595.63 217.461 L1607.81 243.79 L1619.99 275.171 L1632.17 310.45 L1644.36 347.907 
  L1656.54 385.7 L1668.72 422.291 L1680.9 456.752 L1693.08 488.869 L1705.26 519.059 L1717.45 548.137 L1729.63 577.013 L1741.81 606.391 L1753.99 636.563 L1766.17 667.33 
  L1778.36 698.075 L1790.54 727.972 L1802.72 756.282 L1814.9 782.647 L1827.08 807.317 L1839.26 831.217 L1851.45 855.813 L1863.63 882.789 L1875.81 913.61 L1887.99 949.078 
  L1887.99 1479.3 L1875.81 1479.3 L1863.63 1479.3 L1851.45 1479.3 L1839.26 1479.3 L1827.08 1479.3 L1814.9 1479.3 L1802.72 1479.3 L1790.54 1479.3 L1778.36 1479.3 
  L1766.17 1479.3 L1753.99 1479.3 L1741.81 1479.3 L1729.63 1479.3 L1717.45 1479.3 L1705.26 1479.3 L1693.08 1479.3 L1680.9 1479.3 L1668.72 1479.3 L1656.54 1479.3 
  L1644.36 1479.3 L1632.17 1479.3 L1619.99 1479.3 L1607.81 1479.3 L1595.63 1479.3 L1583.45 1479.3 L1571.27 1479.3 L1559.08 1479.3 L1546.9 1479.3 L1534.72 1479.3 
  L1522.54 1479.3 L1510.36 1479.3 L1498.17 1479.3 L1485.99 1479.3 L1473.81 1479.3 L1461.63 1479.3 L1449.45 1479.3 L1437.27 1479.3 L1425.08 1479.3 L1412.9 1479.3 
  L1400.72 1479.3 L1388.54 1479.3 L1376.36 1479.3 L1364.17 1479.3 L1351.99 1479.3 L1339.81 1479.3 L1327.63 1479.3 L1315.45 1479.3 L1303.27 1479.3 L1291.08 1479.3 
  L1278.9 1479.3 L1266.72 1479.3 L1254.54 1479.3 L1242.36 1479.3 L1230.17 1479.3 L1217.99 1479.3 L1205.81 1479.3 L1193.63 1479.3 L1181.45 1479.3 L1169.27 1479.3 
  L1157.08 1479.3 L1144.9 1479.3 L1132.72 1479.3 L1120.54 1479.3 L1108.36 1479.3 L1096.17 1479.3 L1083.99 1479.3 L1071.81 1479.3 L1059.63 1479.3 L1047.45 1479.3 
  L1035.27 1479.3 L1023.08 1479.3 L1010.9 1479.3 L998.72 1479.3 L986.538 1479.3 L974.357 1479.3 L962.175 1479.3 L949.993 1479.3 L937.811 1479.3 L925.629 1479.3 
  L913.448 1479.3 L901.266 1479.3 L889.084 1479.3 L876.902 1479.3 L864.72 1479.3 L852.539 1479.3 L840.357 1479.3 L828.175 1479.3 L815.993 1479.3 L803.811 1479.3 
  L791.63 1479.3 L779.448 1479.3 L767.266 1479.3 L755.084 1479.3 L742.902 1479.3 L730.721 1479.3 L718.539 1479.3 L706.357 1479.3 L694.175 1479.3 L681.993 1479.3 
   Z
  " fill="#008000" fill-rule="evenodd" fill-opacity="0.5"/>
<polyline clip-path="url(#clip232)" style="stroke:#008000; stroke-width:4; stroke-opacity:1; fill:none" points="
  681.993,1251.27 694.175,1241.53 706.357,1230.58 718.539,1218.02 730.721,1203.5 742.902,1186.81 755.084,1167.93 767.266,1147.1 779.448,1124.82 791.63,1101.8 
  803.811,1078.85 815.993,1056.72 828.175,1035.95 840.357,1016.74 852.539,998.909 864.72,981.897 876.902,964.866 889.084,946.826 901.266,926.815 913.448,904.084 
  925.629,878.305 937.811,849.722 949.993,819.224 962.175,788.244 974.357,758.509 986.538,731.655 998.72,708.838 1010.9,690.444 1023.08,676.015 1035.27,664.405 
  1047.45,654.104 1059.63,643.636 1071.81,631.887 1083.99,618.285 1096.17,602.79 1108.36,585.738 1120.54,567.608 1132.72,548.802 1144.9,529.525 1157.08,509.779 
  1169.27,489.463 1181.45,468.517 1193.63,447.049 1205.81,425.382 1217.99,404.009 1230.17,383.477 1242.36,364.231 1254.54,346.473 1266.72,330.081 1278.9,314.62 
  1291.08,299.434 1303.27,283.81 1315.45,267.157 1327.63,249.156 1339.81,229.824 1351.99,209.501 1364.17,188.76 1376.36,168.3 1388.54,148.842 1400.72,131.087 
  1412.9,115.691 1425.08,103.274 1437.27,94.4061 1449.45,89.5485 1461.63,88.9544 1473.81,92.5423 1485.99,99.8023 1498.17,109.801 1510.36,121.338 1522.54,133.246 
  1534.72,144.755 1546.9,155.803 1559.08,167.135 1571.27,180.144 1583.45,196.464 1595.63,217.461 1607.81,243.79 1619.99,275.171 1632.17,310.45 1644.36,347.907 
  1656.54,385.7 1668.72,422.291 1680.9,456.752 1693.08,488.869 1705.26,519.059 1717.45,548.137 1729.63,577.013 1741.81,606.391 1753.99,636.563 1766.17,667.33 
  1778.36,698.075 1790.54,727.972 1802.72,756.282 1814.9,782.647 1827.08,807.317 1839.26,831.217 1851.45,855.813 1863.63,882.789 1875.81,913.61 1887.99,949.078 
  
  "/>
<path clip-path="url(#clip232)" d="
M1887.99 949.078 L1892.04 961.893 L1896.09 975.182 L1900.13 988.903 L1904.18 1003 L1908.23 1017.41 L1912.27 1032.06 L1916.32 1046.87 L1920.37 1061.77 L1924.41 1076.65 
  L1928.46 1091.44 L1932.51 1106.04 L1936.55 1120.39 L1940.6 1134.39 L1944.65 1147.99 L1948.69 1161.1 L1952.74 1173.69 L1956.79 1185.69 L1960.84 1197.08 L1964.88 1207.82 
  L1968.93 1217.9 L1972.98 1227.3 L1977.02 1236.02 L1981.07 1244.06 L1985.12 1251.45 L1989.16 1258.19 L1993.21 1264.32 L1997.26 1269.86 L2001.3 1274.85 L2005.35 1279.33 
  L2009.4 1283.34 L2013.44 1286.93 L2017.49 1290.14 L2021.54 1293.03 L2025.58 1295.66 L2029.63 1298.06 L2033.68 1300.31 L2037.73 1302.44 L2041.77 1304.51 L2045.82 1306.58 
  L2049.87 1308.69 L2053.91 1310.88 L2057.96 1313.2 L2062.01 1315.68 L2066.05 1318.36 L2070.1 1321.27 L2074.15 1324.41 L2078.19 1327.81 L2082.24 1331.48 L2086.29 1335.41 
  L2090.33 1339.6 L2094.38 1344.05 L2098.43 1348.73 L2102.48 1353.62 L2106.52 1358.7 L2110.57 1363.94 L2114.62 1369.31 L2118.66 1374.77 L2122.71 1380.29 L2126.76 1385.83 
  L2130.8 1391.36 L2134.85 1396.85 L2138.9 1402.25 L2142.94 1407.55 L2146.99 1412.71 L2151.04 1417.71 L2155.08 1422.52 L2159.13 1427.13 L2163.18 1431.53 L2167.22 1435.69 
  L2171.27 1439.62 L2175.32 1443.31 L2179.37 1446.75 L2183.41 1449.95 L2187.46 1452.9 L2191.51 1455.61 L2195.55 1458.1 L2199.6 1460.36 L2203.65 1462.4 L2207.69 1464.24 
  L2211.74 1465.89 L2215.79 1467.36 L2219.83 1468.65 L2223.88 1469.79 L2227.93 1470.79 L2231.97 1471.65 L2236.02 1472.39 L2240.07 1473.03 L2244.12 1473.57 L2248.16 1474.03 
  L2252.21 1474.41 L2256.26 1474.73 L2260.3 1475 L2264.35 1475.22 L2268.4 1475.41 L2272.44 1475.57 L2276.49 1475.7 L2280.54 1475.82 L2284.58 1475.93 L2288.63 1476.04 
  L2288.63 1479.3 L2284.58 1479.3 L2280.54 1479.3 L2276.49 1479.3 L2272.44 1479.3 L2268.4 1479.3 L2264.35 1479.3 L2260.3 1479.3 L2256.26 1479.3 L2252.21 1479.3 
  L2248.16 1479.3 L2244.12 1479.3 L2240.07 1479.3 L2236.02 1479.3 L2231.97 1479.3 L2227.93 1479.3 L2223.88 1479.3 L2219.83 1479.3 L2215.79 1479.3 L2211.74 1479.3 
  L2207.69 1479.3 L2203.65 1479.3 L2199.6 1479.3 L2195.55 1479.3 L2191.51 1479.3 L2187.46 1479.3 L2183.41 1479.3 L2179.37 1479.3 L2175.32 1479.3 L2171.27 1479.3 
  L2167.22 1479.3 L2163.18 1479.3 L2159.13 1479.3 L2155.08 1479.3 L2151.04 1479.3 L2146.99 1479.3 L2142.94 1479.3 L2138.9 1479.3 L2134.85 1479.3 L2130.8 1479.3 
  L2126.76 1479.3 L2122.71 1479.3 L2118.66 1479.3 L2114.62 1479.3 L2110.57 1479.3 L2106.52 1479.3 L2102.48 1479.3 L2098.43 1479.3 L2094.38 1479.3 L2090.33 1479.3 
  L2086.29 1479.3 L2082.24 1479.3 L2078.19 1479.3 L2074.15 1479.3 L2070.1 1479.3 L2066.05 1479.3 L2062.01 1479.3 L2057.96 1479.3 L2053.91 1479.3 L2049.87 1479.3 
  L2045.82 1479.3 L2041.77 1479.3 L2037.73 1479.3 L2033.68 1479.3 L2029.63 1479.3 L2025.58 1479.3 L2021.54 1479.3 L2017.49 1479.3 L2013.44 1479.3 L2009.4 1479.3 
  L2005.35 1479.3 L2001.3 1479.3 L1997.26 1479.3 L1993.21 1479.3 L1989.16 1479.3 L1985.12 1479.3 L1981.07 1479.3 L1977.02 1479.3 L1972.98 1479.3 L1968.93 1479.3 
  L1964.88 1479.3 L1960.84 1479.3 L1956.79 1479.3 L1952.74 1479.3 L1948.69 1479.3 L1944.65 1479.3 L1940.6 1479.3 L1936.55 1479.3 L1932.51 1479.3 L1928.46 1479.3 
  L1924.41 1479.3 L1920.37 1479.3 L1916.32 1479.3 L1912.27 1479.3 L1908.23 1479.3 L1904.18 1479.3 L1900.13 1479.3 L1896.09 1479.3 L1892.04 1479.3 L1887.99 1479.3 
   Z
  " fill="#ffa500" fill-rule="evenodd" fill-opacity="0.5"/>
<polyline clip-path="url(#clip232)" style="stroke:#ffa500; stroke-width:4; stroke-opacity:1; fill:none" points="
  1887.99,949.078 1892.04,961.893 1896.09,975.182 1900.13,988.903 1904.18,1003 1908.23,1017.41 1912.27,1032.06 1916.32,1046.87 1920.37,1061.77 1924.41,1076.65 
  1928.46,1091.44 1932.51,1106.04 1936.55,1120.39 1940.6,1134.39 1944.65,1147.99 1948.69,1161.1 1952.74,1173.69 1956.79,1185.69 1960.84,1197.08 1964.88,1207.82 
  1968.93,1217.9 1972.98,1227.3 1977.02,1236.02 1981.07,1244.06 1985.12,1251.45 1989.16,1258.19 1993.21,1264.32 1997.26,1269.86 2001.3,1274.85 2005.35,1279.33 
  2009.4,1283.34 2013.44,1286.93 2017.49,1290.14 2021.54,1293.03 2025.58,1295.66 2029.63,1298.06 2033.68,1300.31 2037.73,1302.44 2041.77,1304.51 2045.82,1306.58 
  2049.87,1308.69 2053.91,1310.88 2057.96,1313.2 2062.01,1315.68 2066.05,1318.36 2070.1,1321.27 2074.15,1324.41 2078.19,1327.81 2082.24,1331.48 2086.29,1335.41 
  2090.33,1339.6 2094.38,1344.05 2098.43,1348.73 2102.48,1353.62 2106.52,1358.7 2110.57,1363.94 2114.62,1369.31 2118.66,1374.77 2122.71,1380.29 2126.76,1385.83 
  2130.8,1391.36 2134.85,1396.85 2138.9,1402.25 2142.94,1407.55 2146.99,1412.71 2151.04,1417.71 2155.08,1422.52 2159.13,1427.13 2163.18,1431.53 2167.22,1435.69 
  2171.27,1439.62 2175.32,1443.31 2179.37,1446.75 2183.41,1449.95 2187.46,1452.9 2191.51,1455.61 2195.55,1458.1 2199.6,1460.36 2203.65,1462.4 2207.69,1464.24 
  2211.74,1465.89 2215.79,1467.36 2219.83,1468.65 2223.88,1469.79 2227.93,1470.79 2231.97,1471.65 2236.02,1472.39 2240.07,1473.03 2244.12,1473.57 2248.16,1474.03 
  2252.21,1474.41 2256.26,1474.73 2260.3,1475 2264.35,1475.22 2268.4,1475.41 2272.44,1475.57 2276.49,1475.7 2280.54,1475.82 2284.58,1475.93 2288.63,1476.04 
  
  "/>
<polyline clip-path="url(#clip232)" style="stroke:#0000ff; stroke-width:4; stroke-opacity:1; fill:none" points="
  1347.37,1479.3 1347.37,217.3 
  "/>
<polyline clip-path="url(#clip232)" style="stroke:#000000; stroke-width:4; stroke-opacity:1; fill:none" points="
  1386.33,1479.3 1386.33,152.26 
  "/>
<path clip-path="url(#clip230)" d="
M1494.58 459.25 L2277.23 459.25 L2277.23 96.3696 L1494.58 96.3696  Z
  " fill="#ffffff" fill-rule="evenodd" fill-opacity="1"/>
<polyline clip-path="url(#clip230)" style="stroke:#000000; stroke-width:4; stroke-opacity:1; fill:none" points="
  1494.58,459.25 2277.23,459.25 2277.23,96.3696 1494.58,96.3696 1494.58,459.25 
  "/>
<path clip-path="url(#clip230)" d="
M1519.75 181.042 L1670.81 181.042 L1670.81 132.658 L1519.75 132.658 L1519.75 181.042  Z
  " fill="#ffa500" fill-rule="evenodd" fill-opacity="0.5"/>
<polyline clip-path="url(#clip230)" style="stroke:#ffa500; stroke-width:4; stroke-opacity:1; fill:none" points="
  1519.75,132.658 1670.81,132.658 
  "/>
<path clip-path="url(#clip230)" d="M 0 0 M1700.38 161.19 Q1700.38 165.889 1702.3 168.574 Q1704.24 171.236 1707.62 171.236 Q1711 171.236 1712.95 168.574 Q1714.89 165.889 1714.89 161.19 Q1714.89 156.491 1712.95 153.829 Q1711 151.144 1707.62 151.144 Q1704.24 151.144 1702.3 153.829 Q1700.38 156.491 1700.38 161.19 M1714.89 170.241 Q1713.55 172.555 1711.49 173.69 Q1709.45 174.801 1706.58 174.801 Q1701.88 174.801 1698.92 171.051 Q1695.98 167.301 1695.98 161.19 Q1695.98 155.079 1698.92 151.329 Q1701.88 147.579 1706.58 147.579 Q1709.45 147.579 1711.49 148.713 Q1713.55 149.824 1714.89 152.139 L1714.89 148.204 L1719.15 148.204 L1719.15 183.991 L1714.89 183.991 L1714.89 170.241 Z" fill="#000000" fill-rule="evenodd" fill-opacity="1" /><path clip-path="url(#clip230)" d="M 0 0 M1734.22 142.648 Q1730.61 142.648 1728.78 146.213 Q1726.98 149.755 1726.98 156.884 Q1726.98 163.991 1728.78 167.556 Q1730.61 171.097 1734.22 171.097 Q1737.85 171.097 1739.66 167.556 Q1741.49 163.991 1741.49 156.884 Q1741.49 149.755 1739.66 146.213 Q1737.85 142.648 1734.22 142.648 M1734.22 138.945 Q1740.03 138.945 1743.09 143.551 Q1746.17 148.134 1746.17 156.884 Q1746.17 165.611 1743.09 170.218 Q1740.03 174.801 1734.22 174.801 Q1728.41 174.801 1725.33 170.218 Q1722.28 165.611 1722.28 156.884 Q1722.28 148.134 1725.33 143.551 Q1728.41 138.945 1734.22 138.945 Z" fill="#000000" fill-rule="evenodd" fill-opacity="1" /><path clip-path="url(#clip230)" d="M 0 0 M1751.28 139.57 L1769.64 139.57 L1769.64 143.505 L1755.56 143.505 L1755.56 151.977 Q1756.58 151.63 1757.6 151.468 Q1758.62 151.282 1759.64 151.282 Q1765.42 151.282 1768.8 154.454 Q1772.18 157.625 1772.18 163.042 Q1772.18 168.62 1768.71 171.722 Q1765.24 174.801 1758.92 174.801 Q1756.74 174.801 1754.48 174.43 Q1752.23 174.06 1749.82 173.319 L1749.82 168.62 Q1751.91 169.755 1754.13 170.31 Q1756.35 170.866 1758.83 170.866 Q1762.83 170.866 1765.17 168.759 Q1767.51 166.653 1767.51 163.042 Q1767.51 159.431 1765.17 157.324 Q1762.83 155.218 1758.83 155.218 Q1756.95 155.218 1755.08 155.634 Q1753.23 156.051 1751.28 156.931 L1751.28 139.57 Z" fill="#000000" fill-rule="evenodd" fill-opacity="1" /><path clip-path="url(#clip230)" d="
M1519.75 241.522 L1670.81 241.522 L1670.81 193.138 L1519.75 193.138 L1519.75 241.522  Z
  " fill="#008000" fill-rule="evenodd" fill-opacity="0.5"/>
<polyline clip-path="url(#clip230)" style="stroke:#008000; stroke-width:4; stroke-opacity:1; fill:none" points="
  1519.75,193.138 1670.81,193.138 
  "/>
<path clip-path="url(#clip230)" d="M 0 0 M1698.2 233.892 L1698.2 229.633 Q1699.96 230.466 1701.77 230.906 Q1703.57 231.346 1705.31 231.346 Q1709.94 231.346 1712.37 228.244 Q1714.82 225.119 1715.17 218.776 Q1713.83 220.767 1711.77 221.832 Q1709.71 222.897 1707.21 222.897 Q1702.02 222.897 1698.99 219.772 Q1695.98 216.624 1695.98 211.184 Q1695.98 205.86 1699.13 202.642 Q1702.28 199.425 1707.51 199.425 Q1713.5 199.425 1716.65 204.031 Q1719.82 208.614 1719.82 217.364 Q1719.82 225.536 1715.93 230.42 Q1712.07 235.281 1705.52 235.281 Q1703.76 235.281 1701.95 234.934 Q1700.15 234.586 1698.2 233.892 M1707.51 219.239 Q1710.66 219.239 1712.48 217.086 Q1714.34 214.934 1714.34 211.184 Q1714.34 207.457 1712.48 205.304 Q1710.66 203.128 1707.51 203.128 Q1704.36 203.128 1702.51 205.304 Q1700.68 207.457 1700.68 211.184 Q1700.68 214.934 1702.51 217.086 Q1704.36 219.239 1707.51 219.239 Z" fill="#000000" fill-rule="evenodd" fill-opacity="1" /><path clip-path="url(#clip230)" d="M 0 0 M1734.89 203.128 Q1731.28 203.128 1729.45 206.693 Q1727.65 210.235 1727.65 217.364 Q1727.65 224.471 1729.45 228.036 Q1731.28 231.577 1734.89 231.577 Q1738.53 231.577 1740.33 228.036 Q1742.16 224.471 1742.16 217.364 Q1742.16 210.235 1740.33 206.693 Q1738.53 203.128 1734.89 203.128 M1734.89 199.425 Q1740.7 199.425 1743.76 204.031 Q1746.84 208.614 1746.84 217.364 Q1746.84 226.091 1743.76 230.698 Q1740.7 235.281 1734.89 235.281 Q1729.08 235.281 1726 230.698 Q1722.95 226.091 1722.95 217.364 Q1722.95 208.614 1726 204.031 Q1729.08 199.425 1734.89 199.425 Z" fill="#000000" fill-rule="evenodd" fill-opacity="1" /><path clip-path="url(#clip230)" d="M 0 0 M1781.3 219.401 Q1779.29 219.401 1778.13 221.114 Q1777 222.827 1777 225.883 Q1777 228.892 1778.13 230.628 Q1779.29 232.341 1781.3 232.341 Q1783.27 232.341 1784.41 230.628 Q1785.56 228.892 1785.56 225.883 Q1785.56 222.85 1784.41 221.137 Q1783.27 219.401 1781.3 219.401 M1781.3 216.462 Q1784.96 216.462 1787.11 219.008 Q1789.27 221.554 1789.27 225.883 Q1789.27 230.211 1787.09 232.758 Q1784.94 235.281 1781.3 235.281 Q1777.6 235.281 1775.45 232.758 Q1773.29 230.211 1773.29 225.883 Q1773.29 221.531 1775.45 219.008 Q1777.62 216.462 1781.3 216.462 M1757.42 202.364 Q1755.42 202.364 1754.27 204.1 Q1753.13 205.813 1753.13 208.823 Q1753.13 211.878 1754.27 213.591 Q1755.4 215.304 1757.42 215.304 Q1759.43 215.304 1760.56 213.591 Q1761.72 211.878 1761.72 208.823 Q1761.72 205.837 1760.56 204.1 Q1759.41 202.364 1757.42 202.364 M1778.32 199.425 L1782.02 199.425 L1760.4 235.281 L1756.7 235.281 L1778.32 199.425 M1757.42 199.425 Q1761.07 199.425 1763.25 201.971 Q1765.42 204.494 1765.42 208.823 Q1765.42 213.198 1763.25 215.721 Q1761.1 218.244 1757.42 218.244 Q1753.73 218.244 1751.58 215.721 Q1749.45 213.174 1749.45 208.823 Q1749.45 204.517 1751.6 201.971 Q1753.76 199.425 1757.42 199.425 Z" fill="#000000" fill-rule="evenodd" fill-opacity="1" /><path clip-path="url(#clip230)" d="M 0 0 M1830.35 218.961 L1830.35 234.61 L1826.1 234.61 L1826.1 219.1 Q1826.1 215.42 1824.66 213.591 Q1823.22 211.762 1820.35 211.762 Q1816.91 211.762 1814.91 213.962 Q1812.92 216.161 1812.92 219.957 L1812.92 234.61 L1808.64 234.61 L1808.64 208.684 L1812.92 208.684 L1812.92 212.712 Q1814.45 210.374 1816.51 209.216 Q1818.6 208.059 1821.3 208.059 Q1825.77 208.059 1828.06 210.837 Q1830.35 213.591 1830.35 218.961 Z" fill="#000000" fill-rule="evenodd" fill-opacity="1" /><path clip-path="url(#clip230)" d="M 0 0 M1844.87 211.67 Q1841.44 211.67 1839.45 214.355 Q1837.46 217.017 1837.46 221.67 Q1837.46 226.323 1839.43 229.008 Q1841.42 231.67 1844.87 231.67 Q1848.27 231.67 1850.26 228.985 Q1852.25 226.299 1852.25 221.67 Q1852.25 217.063 1850.26 214.378 Q1848.27 211.67 1844.87 211.67 M1844.87 208.059 Q1850.42 208.059 1853.6 211.67 Q1856.77 215.281 1856.77 221.67 Q1856.77 228.036 1853.6 231.67 Q1850.42 235.281 1844.87 235.281 Q1839.29 235.281 1836.12 231.67 Q1832.97 228.036 1832.97 221.67 Q1832.97 215.281 1836.12 211.67 Q1839.29 208.059 1844.87 208.059 Z" fill="#000000" fill-rule="evenodd" fill-opacity="1" /><path clip-path="url(#clip230)" d="M 0 0 M1882.78 218.961 L1882.78 234.61 L1878.53 234.61 L1878.53 219.1 Q1878.53 215.42 1877.09 213.591 Q1875.66 211.762 1872.78 211.762 Q1869.34 211.762 1867.35 213.962 Q1865.35 216.161 1865.35 219.957 L1865.35 234.61 L1861.07 234.61 L1861.07 208.684 L1865.35 208.684 L1865.35 212.712 Q1866.88 210.374 1868.94 209.216 Q1871.03 208.059 1873.73 208.059 Q1878.2 208.059 1880.49 210.837 Q1882.78 213.591 1882.78 218.961 Z" fill="#000000" fill-rule="evenodd" fill-opacity="1" /><path clip-path="url(#clip230)" d="M 0 0 M1885.1 219.725 L1897.58 219.725 L1897.58 223.522 L1885.1 223.522 L1885.1 219.725 Z" fill="#000000" fill-rule="evenodd" fill-opacity="1" /><path clip-path="url(#clip230)" d="M 0 0 M1917.07 212.665 Q1916.35 212.249 1915.49 212.063 Q1914.66 211.855 1913.64 211.855 Q1910.03 211.855 1908.09 214.216 Q1906.16 216.554 1906.16 220.952 L1906.16 234.61 L1901.88 234.61 L1901.88 208.684 L1906.16 208.684 L1906.16 212.712 Q1907.51 210.35 1909.66 209.216 Q1911.81 208.059 1914.89 208.059 Q1915.33 208.059 1915.86 208.128 Q1916.4 208.175 1917.04 208.29 L1917.07 212.665 Z" fill="#000000" fill-rule="evenodd" fill-opacity="1" /><path clip-path="url(#clip230)" d="M 0 0 M1942.67 220.582 L1942.67 222.665 L1923.09 222.665 Q1923.36 227.063 1925.72 229.378 Q1928.11 231.67 1932.34 231.67 Q1934.8 231.67 1937.09 231.068 Q1939.4 230.466 1941.67 229.262 L1941.67 233.29 Q1939.38 234.262 1936.97 234.772 Q1934.57 235.281 1932.09 235.281 Q1925.89 235.281 1922.25 231.67 Q1918.64 228.059 1918.64 221.901 Q1918.64 215.536 1922.07 211.809 Q1925.52 208.059 1931.35 208.059 Q1936.58 208.059 1939.61 211.438 Q1942.67 214.795 1942.67 220.582 M1938.41 219.332 Q1938.36 215.837 1936.44 213.753 Q1934.54 211.67 1931.4 211.67 Q1927.83 211.67 1925.68 213.684 Q1923.55 215.698 1923.22 219.355 L1938.41 219.332 Z" fill="#000000" fill-rule="evenodd" fill-opacity="1" /><path clip-path="url(#clip230)" d="M 0 0 M1947.14 208.684 L1951.4 208.684 L1951.4 235.073 Q1951.4 240.026 1949.5 242.248 Q1947.62 244.471 1943.43 244.471 L1941.81 244.471 L1941.81 240.86 L1942.95 240.86 Q1945.38 240.86 1946.26 239.725 Q1947.14 238.614 1947.14 235.073 L1947.14 208.684 M1947.14 198.591 L1951.4 198.591 L1951.4 203.985 L1947.14 203.985 L1947.14 198.591 Z" fill="#000000" fill-rule="evenodd" fill-opacity="1" /><path clip-path="url(#clip230)" d="M 0 0 M1978.04 220.582 L1978.04 222.665 L1958.46 222.665 Q1958.73 227.063 1961.09 229.378 Q1963.48 231.67 1967.71 231.67 Q1970.17 231.67 1972.46 231.068 Q1974.78 230.466 1977.04 229.262 L1977.04 233.29 Q1974.75 234.262 1972.34 234.772 Q1969.94 235.281 1967.46 235.281 Q1961.26 235.281 1957.62 231.67 Q1954.01 228.059 1954.01 221.901 Q1954.01 215.536 1957.44 211.809 Q1960.89 208.059 1966.72 208.059 Q1971.95 208.059 1974.98 211.438 Q1978.04 214.795 1978.04 220.582 M1973.78 219.332 Q1973.73 215.837 1971.81 213.753 Q1969.91 211.67 1966.77 211.67 Q1963.2 211.67 1961.05 213.684 Q1958.92 215.698 1958.59 219.355 L1973.78 219.332 Z" fill="#000000" fill-rule="evenodd" fill-opacity="1" /><path clip-path="url(#clip230)" d="M 0 0 M2001.16 209.679 L2001.16 213.661 Q1999.36 212.665 1997.53 212.179 Q1995.72 211.67 1993.87 211.67 Q1989.73 211.67 1987.44 214.309 Q1985.15 216.924 1985.15 221.67 Q1985.15 226.415 1987.44 229.054 Q1989.73 231.67 1993.87 231.67 Q1995.72 231.67 1997.53 231.184 Q1999.36 230.674 2001.16 229.679 L2001.16 233.614 Q1999.38 234.448 1997.46 234.864 Q1995.56 235.281 1993.41 235.281 Q1987.55 235.281 1984.1 231.6 Q1980.65 227.92 1980.65 221.67 Q1980.65 215.327 1984.13 211.693 Q1987.62 208.059 1993.69 208.059 Q1995.65 208.059 1997.53 208.475 Q1999.4 208.869 2001.16 209.679 Z" fill="#000000" fill-rule="evenodd" fill-opacity="1" /><path clip-path="url(#clip230)" d="M 0 0 M2009.84 201.323 L2009.84 208.684 L2018.62 208.684 L2018.62 211.994 L2009.84 211.994 L2009.84 226.068 Q2009.84 229.239 2010.7 230.142 Q2011.58 231.045 2014.24 231.045 L2018.62 231.045 L2018.62 234.61 L2014.24 234.61 Q2009.31 234.61 2007.44 232.781 Q2005.56 230.929 2005.56 226.068 L2005.56 211.994 L2002.44 211.994 L2002.44 208.684 L2005.56 208.684 L2005.56 201.323 L2009.84 201.323 Z" fill="#000000" fill-rule="evenodd" fill-opacity="1" /><path clip-path="url(#clip230)" d="M 0 0 M2023.08 208.684 L2027.34 208.684 L2027.34 234.61 L2023.08 234.61 L2023.08 208.684 M2023.08 198.591 L2027.34 198.591 L2027.34 203.985 L2023.08 203.985 L2023.08 198.591 Z" fill="#000000" fill-rule="evenodd" fill-opacity="1" /><path clip-path="url(#clip230)" d="M 0 0 M2041.86 211.67 Q2038.43 211.67 2036.44 214.355 Q2034.45 217.017 2034.45 221.67 Q2034.45 226.323 2036.42 229.008 Q2038.41 231.67 2041.86 231.67 Q2045.26 231.67 2047.25 228.985 Q2049.24 226.299 2049.24 221.67 Q2049.24 217.063 2047.25 214.378 Q2045.26 211.67 2041.86 211.67 M2041.86 208.059 Q2047.41 208.059 2050.58 211.67 Q2053.76 215.281 2053.76 221.67 Q2053.76 228.036 2050.58 231.67 Q2047.41 235.281 2041.86 235.281 Q2036.28 235.281 2033.11 231.67 Q2029.96 228.036 2029.96 221.67 Q2029.96 215.281 2033.11 211.67 Q2036.28 208.059 2041.86 208.059 Z" fill="#000000" fill-rule="evenodd" fill-opacity="1" /><path clip-path="url(#clip230)" d="M 0 0 M2079.77 218.961 L2079.77 234.61 L2075.52 234.61 L2075.52 219.1 Q2075.52 215.42 2074.08 213.591 Q2072.64 211.762 2069.77 211.762 Q2066.33 211.762 2064.33 213.962 Q2062.34 216.161 2062.34 219.957 L2062.34 234.61 L2058.06 234.61 L2058.06 208.684 L2062.34 208.684 L2062.34 212.712 Q2063.87 210.374 2065.93 209.216 Q2068.02 208.059 2070.72 208.059 Q2075.19 208.059 2077.48 210.837 Q2079.77 213.591 2079.77 218.961 Z" fill="#000000" fill-rule="evenodd" fill-opacity="1" /><path clip-path="url(#clip230)" d="M 0 0 M2114.33 212.665 Q2113.62 212.249 2112.76 212.063 Q2111.93 211.855 2110.91 211.855 Q2107.3 211.855 2105.35 214.216 Q2103.43 216.554 2103.43 220.952 L2103.43 234.61 L2099.15 234.61 L2099.15 208.684 L2103.43 208.684 L2103.43 212.712 Q2104.77 210.35 2106.93 209.216 Q2109.08 208.059 2112.16 208.059 Q2112.6 208.059 2113.13 208.128 Q2113.66 208.175 2114.31 208.29 L2114.33 212.665 Z" fill="#000000" fill-rule="evenodd" fill-opacity="1" /><path clip-path="url(#clip230)" d="M 0 0 M2139.94 220.582 L2139.94 222.665 L2120.35 222.665 Q2120.63 227.063 2122.99 229.378 Q2125.38 231.67 2129.61 231.67 Q2132.07 231.67 2134.36 231.068 Q2136.67 230.466 2138.94 229.262 L2138.94 233.29 Q2136.65 234.262 2134.24 234.772 Q2131.83 235.281 2129.36 235.281 Q2123.15 235.281 2119.52 231.67 Q2115.91 228.059 2115.91 221.901 Q2115.91 215.536 2119.33 211.809 Q2122.78 208.059 2128.62 208.059 Q2133.85 208.059 2136.88 211.438 Q2139.94 214.795 2139.94 220.582 M2135.68 219.332 Q2135.63 215.837 2133.71 213.753 Q2131.81 211.67 2128.66 211.67 Q2125.1 211.67 2122.95 213.684 Q2120.82 215.698 2120.49 219.355 L2135.68 219.332 Z" fill="#000000" fill-rule="evenodd" fill-opacity="1" /><path clip-path="url(#clip230)" d="M 0 0 M2161.46 221.346 Q2161.46 216.716 2159.54 214.17 Q2157.64 211.624 2154.2 211.624 Q2150.77 211.624 2148.85 214.17 Q2146.95 216.716 2146.95 221.346 Q2146.95 225.952 2148.85 228.498 Q2150.77 231.045 2154.2 231.045 Q2157.64 231.045 2159.54 228.498 Q2161.46 225.952 2161.46 221.346 M2165.72 231.392 Q2165.72 238.012 2162.78 241.23 Q2159.84 244.471 2153.78 244.471 Q2151.53 244.471 2149.54 244.123 Q2147.55 243.799 2145.68 243.105 L2145.68 238.961 Q2147.55 239.98 2149.38 240.466 Q2151.21 240.952 2153.11 240.952 Q2157.3 240.952 2159.38 238.753 Q2161.46 236.577 2161.46 232.156 L2161.46 230.049 Q2160.14 232.341 2158.08 233.475 Q2156.02 234.61 2153.15 234.61 Q2148.39 234.61 2145.47 230.975 Q2142.55 227.341 2142.55 221.346 Q2142.55 215.327 2145.47 211.693 Q2148.39 208.059 2153.15 208.059 Q2156.02 208.059 2158.08 209.193 Q2160.14 210.327 2161.46 212.619 L2161.46 208.684 L2165.72 208.684 L2165.72 231.392 Z" fill="#000000" fill-rule="evenodd" fill-opacity="1" /><path clip-path="url(#clip230)" d="M 0 0 M2170.19 208.684 L2174.45 208.684 L2174.45 234.61 L2170.19 234.61 L2170.19 208.684 M2170.19 198.591 L2174.45 198.591 L2174.45 203.985 L2170.19 203.985 L2170.19 198.591 Z" fill="#000000" fill-rule="evenodd" fill-opacity="1" /><path clip-path="url(#clip230)" d="M 0 0 M2188.96 211.67 Q2185.54 211.67 2183.55 214.355 Q2181.56 217.017 2181.56 221.67 Q2181.56 226.323 2183.52 229.008 Q2185.51 231.67 2188.96 231.67 Q2192.37 231.67 2194.36 228.985 Q2196.35 226.299 2196.35 221.67 Q2196.35 217.063 2194.36 214.378 Q2192.37 211.67 2188.96 211.67 M2188.96 208.059 Q2194.52 208.059 2197.69 211.67 Q2200.86 215.281 2200.86 221.67 Q2200.86 228.036 2197.69 231.67 Q2194.52 235.281 2188.96 235.281 Q2183.39 235.281 2180.21 231.67 Q2177.07 228.036 2177.07 221.67 Q2177.07 215.281 2180.21 211.67 Q2183.39 208.059 2188.96 208.059 Z" fill="#000000" fill-rule="evenodd" fill-opacity="1" /><path clip-path="url(#clip230)" d="M 0 0 M2226.88 218.961 L2226.88 234.61 L2222.62 234.61 L2222.62 219.1 Q2222.62 215.42 2221.19 213.591 Q2219.75 211.762 2216.88 211.762 Q2213.43 211.762 2211.44 213.962 Q2209.45 216.161 2209.45 219.957 L2209.45 234.61 L2205.17 234.61 L2205.17 208.684 L2209.45 208.684 L2209.45 212.712 Q2210.98 210.374 2213.04 209.216 Q2215.12 208.059 2217.83 208.059 Q2222.3 208.059 2224.59 210.837 Q2226.88 213.591 2226.88 218.961 Z" fill="#000000" fill-rule="evenodd" fill-opacity="1" /><path clip-path="url(#clip230)" d="
M1519.75 302.002 L1670.81 302.002 L1670.81 253.618 L1519.75 253.618 L1519.75 302.002  Z
  " fill="#ffa500" fill-rule="evenodd" fill-opacity="0.5"/>
<polyline clip-path="url(#clip230)" style="stroke:#ffa500; stroke-width:4; stroke-opacity:1; fill:none" points="
  1519.75,253.618 1670.81,253.618 
  "/>
<path clip-path="url(#clip230)" d="M 0 0 M1700.38 282.15 Q1700.38 286.849 1702.3 289.534 Q1704.24 292.196 1707.62 292.196 Q1711 292.196 1712.95 289.534 Q1714.89 286.849 1714.89 282.15 Q1714.89 277.451 1712.95 274.789 Q1711 272.104 1707.62 272.104 Q1704.24 272.104 1702.3 274.789 Q1700.38 277.451 1700.38 282.15 M1714.89 291.201 Q1713.55 293.515 1711.49 294.65 Q1709.45 295.761 1706.58 295.761 Q1701.88 295.761 1698.92 292.011 Q1695.98 288.261 1695.98 282.15 Q1695.98 276.039 1698.92 272.289 Q1701.88 268.539 1706.58 268.539 Q1709.45 268.539 1711.49 269.673 Q1713.55 270.784 1714.89 273.099 L1714.89 269.164 L1719.15 269.164 L1719.15 304.951 L1714.89 304.951 L1714.89 291.201 Z" fill="#000000" fill-rule="evenodd" fill-opacity="1" /><path clip-path="url(#clip230)" d="M 0 0 M1724.36 294.372 L1724.36 290.113 Q1726.12 290.946 1727.92 291.386 Q1729.73 291.826 1731.47 291.826 Q1736.1 291.826 1738.53 288.724 Q1740.98 285.599 1741.33 279.256 Q1739.98 281.247 1737.92 282.312 Q1735.86 283.377 1733.36 283.377 Q1728.18 283.377 1725.15 280.252 Q1722.14 277.104 1722.14 271.664 Q1722.14 266.34 1725.29 263.122 Q1728.43 259.905 1733.67 259.905 Q1739.66 259.905 1742.81 264.511 Q1745.98 269.094 1745.98 277.844 Q1745.98 286.016 1742.09 290.9 Q1738.23 295.761 1731.67 295.761 Q1729.92 295.761 1728.11 295.414 Q1726.3 295.066 1724.36 294.372 M1733.67 279.719 Q1736.81 279.719 1738.64 277.566 Q1740.49 275.414 1740.49 271.664 Q1740.49 267.937 1738.64 265.784 Q1736.81 263.608 1733.67 263.608 Q1730.52 263.608 1728.67 265.784 Q1726.84 267.937 1726.84 271.664 Q1726.84 275.414 1728.67 277.566 Q1730.52 279.719 1733.67 279.719 Z" fill="#000000" fill-rule="evenodd" fill-opacity="1" /><path clip-path="url(#clip230)" d="M 0 0 M1751.1 260.53 L1769.45 260.53 L1769.45 264.465 L1755.38 264.465 L1755.38 272.937 Q1756.4 272.59 1757.42 272.428 Q1758.43 272.242 1759.45 272.242 Q1765.24 272.242 1768.62 275.414 Q1772 278.585 1772 284.002 Q1772 289.58 1768.53 292.682 Q1765.05 295.761 1758.73 295.761 Q1756.56 295.761 1754.29 295.39 Q1752.04 295.02 1749.64 294.279 L1749.64 289.58 Q1751.72 290.715 1753.94 291.27 Q1756.17 291.826 1758.64 291.826 Q1762.65 291.826 1764.98 289.719 Q1767.32 287.613 1767.32 284.002 Q1767.32 280.391 1764.98 278.284 Q1762.65 276.178 1758.64 276.178 Q1756.77 276.178 1754.89 276.594 Q1753.04 277.011 1751.1 277.891 L1751.1 260.53 Z" fill="#000000" fill-rule="evenodd" fill-opacity="1" /><polyline clip-path="url(#clip230)" style="stroke:#0000ff; stroke-width:4; stroke-opacity:1; fill:none" points="
  1519.75,338.29 1670.81,338.29 
  "/>
<path clip-path="url(#clip230)" d="M 0 0 M1716.33 334.621 Q1717.92 331.75 1720.15 330.385 Q1722.37 329.019 1725.38 329.019 Q1729.43 329.019 1731.63 331.866 Q1733.83 334.69 1733.83 339.921 L1733.83 355.57 L1729.54 355.57 L1729.54 340.06 Q1729.54 336.334 1728.23 334.528 Q1726.91 332.722 1724.2 332.722 Q1720.89 332.722 1718.97 334.922 Q1717.04 337.121 1717.04 340.917 L1717.04 355.57 L1712.76 355.57 L1712.76 340.06 Q1712.76 336.31 1711.44 334.528 Q1710.12 332.722 1707.37 332.722 Q1704.11 332.722 1702.18 334.945 Q1700.26 337.144 1700.26 340.917 L1700.26 355.57 L1695.98 355.57 L1695.98 329.644 L1700.26 329.644 L1700.26 333.672 Q1701.72 331.287 1703.76 330.153 Q1705.79 329.019 1708.6 329.019 Q1711.42 329.019 1713.39 330.454 Q1715.38 331.889 1716.33 334.621 Z" fill="#000000" fill-rule="evenodd" fill-opacity="1" /><path clip-path="url(#clip230)" d="M 0 0 M1760.47 341.542 L1760.47 343.625 L1740.89 343.625 Q1741.17 348.023 1743.53 350.338 Q1745.91 352.63 1750.15 352.63 Q1752.6 352.63 1754.89 352.028 Q1757.21 351.426 1759.48 350.222 L1759.48 354.25 Q1757.18 355.222 1754.78 355.732 Q1752.37 356.241 1749.89 356.241 Q1743.69 356.241 1740.05 352.63 Q1736.44 349.019 1736.44 342.861 Q1736.44 336.496 1739.87 332.769 Q1743.32 329.019 1749.15 329.019 Q1754.38 329.019 1757.42 332.398 Q1760.47 335.755 1760.47 341.542 M1756.21 340.292 Q1756.17 336.797 1754.24 334.713 Q1752.35 332.63 1749.2 332.63 Q1745.63 332.63 1743.48 334.644 Q1741.35 336.658 1741.03 340.315 L1756.21 340.292 Z" fill="#000000" fill-rule="evenodd" fill-opacity="1" /><path clip-path="url(#clip230)" d="M 0 0 M1776.72 342.537 Q1771.56 342.537 1769.57 343.718 Q1767.58 344.898 1767.58 347.746 Q1767.58 350.014 1769.06 351.357 Q1770.56 352.676 1773.13 352.676 Q1776.67 352.676 1778.8 350.176 Q1780.96 347.653 1780.96 343.486 L1780.96 342.537 L1776.72 342.537 M1785.22 340.778 L1785.22 355.57 L1780.96 355.57 L1780.96 351.634 Q1779.5 353.995 1777.32 355.13 Q1775.15 356.241 1772 356.241 Q1768.02 356.241 1765.66 354.019 Q1763.32 351.773 1763.32 348.023 Q1763.32 343.648 1766.23 341.426 Q1769.17 339.204 1774.98 339.204 L1780.96 339.204 L1780.96 338.787 Q1780.96 335.847 1779.01 334.25 Q1777.09 332.63 1773.6 332.63 Q1771.37 332.63 1769.27 333.162 Q1767.16 333.695 1765.22 334.759 L1765.22 330.824 Q1767.55 329.922 1769.75 329.482 Q1771.95 329.019 1774.04 329.019 Q1779.66 329.019 1782.44 331.935 Q1785.22 334.852 1785.22 340.778 Z" fill="#000000" fill-rule="evenodd" fill-opacity="1" /><path clip-path="url(#clip230)" d="M 0 0 M1811.23 339.921 L1811.23 355.57 L1806.97 355.57 L1806.97 340.06 Q1806.97 336.38 1805.54 334.551 Q1804.1 332.722 1801.23 332.722 Q1797.79 332.722 1795.79 334.922 Q1793.8 337.121 1793.8 340.917 L1793.8 355.57 L1789.52 355.57 L1789.52 329.644 L1793.8 329.644 L1793.8 333.672 Q1795.33 331.334 1797.39 330.176 Q1799.48 329.019 1802.18 329.019 Q1806.65 329.019 1808.94 331.797 Q1811.23 334.551 1811.23 339.921 Z" fill="#000000" fill-rule="evenodd" fill-opacity="1" /><polyline clip-path="url(#clip230)" style="stroke:#000000; stroke-width:4; stroke-opacity:1; fill:none" points="
  1519.75,398.77 1670.81,398.77 
  "/>
<path clip-path="url(#clip230)" d="M 0 0 M1716.33 395.101 Q1717.92 392.23 1720.15 390.865 Q1722.37 389.499 1725.38 389.499 Q1729.43 389.499 1731.63 392.346 Q1733.83 395.17 1733.83 400.401 L1733.83 416.05 L1729.54 416.05 L1729.54 400.54 Q1729.54 396.814 1728.23 395.008 Q1726.91 393.202 1724.2 393.202 Q1720.89 393.202 1718.97 395.402 Q1717.04 397.601 1717.04 401.397 L1717.04 416.05 L1712.76 416.05 L1712.76 400.54 Q1712.76 396.79 1711.44 395.008 Q1710.12 393.202 1707.37 393.202 Q1704.11 393.202 1702.18 395.425 Q1700.26 397.624 1700.26 401.397 L1700.26 416.05 L1695.98 416.05 L1695.98 390.124 L1700.26 390.124 L1700.26 394.152 Q1701.72 391.767 1703.76 390.633 Q1705.79 389.499 1708.6 389.499 Q1711.42 389.499 1713.39 390.934 Q1715.38 392.369 1716.33 395.101 Z" fill="#000000" fill-rule="evenodd" fill-opacity="1" /><path clip-path="url(#clip230)" d="M 0 0 M1760.47 402.022 L1760.47 404.105 L1740.89 404.105 Q1741.17 408.503 1743.53 410.818 Q1745.91 413.11 1750.15 413.11 Q1752.6 413.11 1754.89 412.508 Q1757.21 411.906 1759.48 410.702 L1759.48 414.73 Q1757.18 415.702 1754.78 416.212 Q1752.37 416.721 1749.89 416.721 Q1743.69 416.721 1740.05 413.11 Q1736.44 409.499 1736.44 403.341 Q1736.44 396.976 1739.87 393.249 Q1743.32 389.499 1749.15 389.499 Q1754.38 389.499 1757.42 392.878 Q1760.47 396.235 1760.47 402.022 M1756.21 400.772 Q1756.17 397.277 1754.24 395.193 Q1752.35 393.11 1749.2 393.11 Q1745.63 393.11 1743.48 395.124 Q1741.35 397.138 1741.03 400.795 L1756.21 400.772 Z" fill="#000000" fill-rule="evenodd" fill-opacity="1" /><path clip-path="url(#clip230)" d="M 0 0 M1782 394.059 L1782 380.031 L1786.26 380.031 L1786.26 416.05 L1782 416.05 L1782 412.161 Q1780.66 414.475 1778.6 415.61 Q1776.56 416.721 1773.69 416.721 Q1768.99 416.721 1766.03 412.971 Q1763.09 409.221 1763.09 403.11 Q1763.09 396.999 1766.03 393.249 Q1768.99 389.499 1773.69 389.499 Q1776.56 389.499 1778.6 390.633 Q1780.66 391.744 1782 394.059 M1767.48 403.11 Q1767.48 407.809 1769.41 410.494 Q1771.35 413.156 1774.73 413.156 Q1778.11 413.156 1780.05 410.494 Q1782 407.809 1782 403.11 Q1782 398.411 1780.05 395.749 Q1778.11 393.064 1774.73 393.064 Q1771.35 393.064 1769.41 395.749 Q1767.48 398.411 1767.48 403.11 Z" fill="#000000" fill-rule="evenodd" fill-opacity="1" /><path clip-path="url(#clip230)" d="M 0 0 M1790.73 390.124 L1794.98 390.124 L1794.98 416.05 L1790.73 416.05 L1790.73 390.124 M1790.73 380.031 L1794.98 380.031 L1794.98 385.425 L1790.73 385.425 L1790.73 380.031 Z" fill="#000000" fill-rule="evenodd" fill-opacity="1" /><path clip-path="url(#clip230)" d="M 0 0 M1811.23 403.017 Q1806.07 403.017 1804.08 404.198 Q1802.09 405.378 1802.09 408.226 Q1802.09 410.494 1803.57 411.837 Q1805.08 413.156 1807.65 413.156 Q1811.19 413.156 1813.32 410.656 Q1815.47 408.133 1815.47 403.966 L1815.47 403.017 L1811.23 403.017 M1819.73 401.258 L1819.73 416.05 L1815.47 416.05 L1815.47 412.114 Q1814.01 414.475 1811.84 415.61 Q1809.66 416.721 1806.51 416.721 Q1802.53 416.721 1800.17 414.499 Q1797.83 412.253 1797.83 408.503 Q1797.83 404.128 1800.75 401.906 Q1803.69 399.684 1809.5 399.684 L1815.47 399.684 L1815.47 399.267 Q1815.47 396.327 1813.53 394.73 Q1811.6 393.11 1808.11 393.11 Q1805.89 393.11 1803.78 393.642 Q1801.67 394.175 1799.73 395.239 L1799.73 391.304 Q1802.07 390.402 1804.27 389.962 Q1806.47 389.499 1808.55 389.499 Q1814.17 389.499 1816.95 392.415 Q1819.73 395.332 1819.73 401.258 Z" fill="#000000" fill-rule="evenodd" fill-opacity="1" /><path clip-path="url(#clip230)" d="M 0 0 M1845.75 400.401 L1845.75 416.05 L1841.49 416.05 L1841.49 400.54 Q1841.49 396.86 1840.05 395.031 Q1838.62 393.202 1835.75 393.202 Q1832.3 393.202 1830.31 395.402 Q1828.32 397.601 1828.32 401.397 L1828.32 416.05 L1824.04 416.05 L1824.04 390.124 L1828.32 390.124 L1828.32 394.152 Q1829.85 391.814 1831.91 390.656 Q1833.99 389.499 1836.7 389.499 Q1841.16 389.499 1843.46 392.277 Q1845.75 395.031 1845.75 400.401 Z" fill="#000000" fill-rule="evenodd" fill-opacity="1" /></svg>
