<?xml version="1.0" encoding="utf-8"?>
<svg xmlns="http://www.w3.org/2000/svg" xmlns:xlink="http://www.w3.org/1999/xlink" width="600" height="400" viewBox="0 0 2400 1600">
<defs>
  <clipPath id="clip350">
    <rect x="0" y="0" width="2400" height="1600"/>
  </clipPath>
</defs>
<path clip-path="url(#clip350)" d="
M0 1600 L2400 1600 L2400 0 L0 0  Z
  " fill="#ffffff" fill-rule="evenodd" fill-opacity="1"/>
<defs>
  <clipPath id="clip351">
    <rect x="480" y="0" width="1681" height="1600"/>
  </clipPath>
</defs>
<path clip-path="url(#clip350)" d="
M86.9921 1521.01 L2352.76 1521.01 L2352.76 47.2441 L86.9921 47.2441  Z
  " fill="#ffffff" fill-rule="evenodd" fill-opacity="1"/>
<defs>
  <clipPath id="clip352">
    <rect x="86" y="47" width="2267" height="1475"/>
  </clipPath>
</defs>
<polyline clip-path="url(#clip352)" style="stroke:#000000; stroke-width:2; stroke-opacity:0.1; fill:none" points="
  150.883,1521.01 150.883,47.2441 
  "/>
<polyline clip-path="url(#clip352)" style="stroke:#000000; stroke-width:2; stroke-opacity:0.1; fill:none" points="
  729.308,1521.01 729.308,47.2441 
  "/>
<polyline clip-path="url(#clip352)" style="stroke:#000000; stroke-width:2; stroke-opacity:0.1; fill:none" points="
  1307.73,1521.01 1307.73,47.2441 
  "/>
<polyline clip-path="url(#clip352)" style="stroke:#000000; stroke-width:2; stroke-opacity:0.1; fill:none" points="
  1886.16,1521.01 1886.16,47.2441 
  "/>
<polyline clip-path="url(#clip352)" style="stroke:#000000; stroke-width:2; stroke-opacity:0.1; fill:none" points="
  86.9921,1479.3 2352.76,1479.3 
  "/>
<polyline clip-path="url(#clip352)" style="stroke:#000000; stroke-width:2; stroke-opacity:0.1; fill:none" points="
  86.9921,1033.16 2352.76,1033.16 
  "/>
<polyline clip-path="url(#clip352)" style="stroke:#000000; stroke-width:2; stroke-opacity:0.1; fill:none" points="
  86.9921,587.016 2352.76,587.016 
  "/>
<polyline clip-path="url(#clip352)" style="stroke:#000000; stroke-width:2; stroke-opacity:0.1; fill:none" points="
  86.9921,140.875 2352.76,140.875 
  "/>
<polyline clip-path="url(#clip350)" style="stroke:#000000; stroke-width:4; stroke-opacity:1; fill:none" points="
  86.9921,1521.01 2352.76,1521.01 
  "/>
<polyline clip-path="url(#clip350)" style="stroke:#000000; stroke-width:4; stroke-opacity:1; fill:none" points="
  86.9921,1521.01 86.9921,47.2441 
  "/>
<polyline clip-path="url(#clip350)" style="stroke:#000000; stroke-width:4; stroke-opacity:1; fill:none" points="
  150.883,1521.01 150.883,1503.32 
  "/>
<polyline clip-path="url(#clip350)" style="stroke:#000000; stroke-width:4; stroke-opacity:1; fill:none" points="
  729.308,1521.01 729.308,1503.32 
  "/>
<polyline clip-path="url(#clip350)" style="stroke:#000000; stroke-width:4; stroke-opacity:1; fill:none" points="
  1307.73,1521.01 1307.73,1503.32 
  "/>
<polyline clip-path="url(#clip350)" style="stroke:#000000; stroke-width:4; stroke-opacity:1; fill:none" points="
  1886.16,1521.01 1886.16,1503.32 
  "/>
<polyline clip-path="url(#clip350)" style="stroke:#000000; stroke-width:4; stroke-opacity:1; fill:none" points="
  86.9921,1479.3 114.181,1479.3 
  "/>
<polyline clip-path="url(#clip350)" style="stroke:#000000; stroke-width:4; stroke-opacity:1; fill:none" points="
  86.9921,1033.16 114.181,1033.16 
  "/>
<polyline clip-path="url(#clip350)" style="stroke:#000000; stroke-width:4; stroke-opacity:1; fill:none" points="
  86.9921,587.016 114.181,587.016 
  "/>
<polyline clip-path="url(#clip350)" style="stroke:#000000; stroke-width:4; stroke-opacity:1; fill:none" points="
  86.9921,140.875 114.181,140.875 
  "/>
<path clip-path="url(#clip350)" d="M 0 0 M136.647 1555.85 Q140.004 1556.56 141.879 1558.83 Q143.777 1561.1 143.777 1564.43 Q143.777 1569.55 140.258 1572.35 Q136.74 1575.15 130.259 1575.15 Q128.083 1575.15 125.768 1574.71 Q123.476 1574.29 121.022 1573.44 L121.022 1568.92 Q122.967 1570.06 125.282 1570.64 Q127.597 1571.22 130.12 1571.22 Q134.518 1571.22 136.809 1569.48 Q139.124 1567.74 139.124 1564.43 Q139.124 1561.38 136.971 1559.67 Q134.842 1557.93 131.022 1557.93 L126.995 1557.93 L126.995 1554.09 L131.208 1554.09 Q134.657 1554.09 136.485 1552.72 Q138.314 1551.33 138.314 1548.74 Q138.314 1546.08 136.416 1544.67 Q134.541 1543.23 131.022 1543.23 Q129.101 1543.23 126.902 1543.65 Q124.703 1544.06 122.064 1544.94 L122.064 1540.78 Q124.726 1540.04 127.041 1539.67 Q129.379 1539.29 131.439 1539.29 Q136.763 1539.29 139.865 1541.73 Q142.967 1544.13 142.967 1548.25 Q142.967 1551.12 141.323 1553.11 Q139.68 1555.08 136.647 1555.85 Z" fill="#000000" fill-rule="evenodd" fill-opacity="1" /><path clip-path="url(#clip350)" d="M 0 0 M148.846 1568.6 L153.731 1568.6 L153.731 1574.48 L148.846 1574.48 L148.846 1568.6 Z" fill="#000000" fill-rule="evenodd" fill-opacity="1" /><path clip-path="url(#clip350)" d="M 0 0 M168.8 1543 Q165.189 1543 163.36 1546.56 Q161.555 1550.11 161.555 1557.23 Q161.555 1564.34 163.36 1567.91 Q165.189 1571.45 168.8 1571.45 Q172.434 1571.45 174.24 1567.91 Q176.068 1564.34 176.068 1557.23 Q176.068 1550.11 174.24 1546.56 Q172.434 1543 168.8 1543 M168.8 1539.29 Q174.61 1539.29 177.666 1543.9 Q180.744 1548.48 180.744 1557.23 Q180.744 1565.96 177.666 1570.57 Q174.61 1575.15 168.8 1575.15 Q162.99 1575.15 159.911 1570.57 Q156.856 1565.96 156.856 1557.23 Q156.856 1548.48 159.911 1543.9 Q162.99 1539.29 168.8 1539.29 Z" fill="#000000" fill-rule="evenodd" fill-opacity="1" /><path clip-path="url(#clip350)" d="M 0 0 M715.87 1555.85 Q719.227 1556.56 721.102 1558.83 Q723 1561.1 723 1564.43 Q723 1569.55 719.481 1572.35 Q715.963 1575.15 709.481 1575.15 Q707.305 1575.15 704.991 1574.71 Q702.699 1574.29 700.245 1573.44 L700.245 1568.92 Q702.19 1570.06 704.504 1570.64 Q706.819 1571.22 709.342 1571.22 Q713.741 1571.22 716.032 1569.48 Q718.347 1567.74 718.347 1564.43 Q718.347 1561.38 716.194 1559.67 Q714.065 1557.93 710.245 1557.93 L706.217 1557.93 L706.217 1554.09 L710.43 1554.09 Q713.879 1554.09 715.708 1552.72 Q717.537 1551.33 717.537 1548.74 Q717.537 1546.08 715.639 1544.67 Q713.764 1543.23 710.245 1543.23 Q708.324 1543.23 706.125 1543.65 Q703.926 1544.06 701.287 1544.94 L701.287 1540.78 Q703.949 1540.04 706.264 1539.67 Q708.602 1539.29 710.662 1539.29 Q715.986 1539.29 719.088 1541.73 Q722.19 1544.13 722.19 1548.25 Q722.19 1551.12 720.546 1553.11 Q718.903 1555.08 715.87 1555.85 Z" fill="#000000" fill-rule="evenodd" fill-opacity="1" /><path clip-path="url(#clip350)" d="M 0 0 M728.069 1568.6 L732.953 1568.6 L732.953 1574.48 L728.069 1574.48 L728.069 1568.6 Z" fill="#000000" fill-rule="evenodd" fill-opacity="1" /><path clip-path="url(#clip350)" d="M 0 0 M742.051 1570.54 L758.37 1570.54 L758.37 1574.48 L736.426 1574.48 L736.426 1570.54 Q739.088 1567.79 743.671 1563.16 Q748.277 1558.51 749.458 1557.17 Q751.703 1554.64 752.583 1552.91 Q753.486 1551.15 753.486 1549.46 Q753.486 1546.7 751.541 1544.97 Q749.62 1543.23 746.518 1543.23 Q744.319 1543.23 741.865 1543.99 Q739.435 1544.76 736.657 1546.31 L736.657 1541.59 Q739.481 1540.45 741.935 1539.87 Q744.388 1539.29 746.426 1539.29 Q751.796 1539.29 754.99 1541.98 Q758.185 1544.67 758.185 1549.16 Q758.185 1551.29 757.375 1553.21 Q756.587 1555.1 754.481 1557.7 Q753.902 1558.37 750.8 1561.59 Q747.699 1564.78 742.051 1570.54 Z" fill="#000000" fill-rule="evenodd" fill-opacity="1" /><path clip-path="url(#clip350)" d="M 0 0 M1293.25 1555.85 Q1296.61 1556.56 1298.48 1558.83 Q1300.38 1561.1 1300.38 1564.43 Q1300.38 1569.55 1296.86 1572.35 Q1293.35 1575.15 1286.86 1575.15 Q1284.69 1575.15 1282.37 1574.71 Q1280.08 1574.29 1277.63 1573.44 L1277.63 1568.92 Q1279.57 1570.06 1281.89 1570.64 Q1284.2 1571.22 1286.72 1571.22 Q1291.12 1571.22 1293.41 1569.48 Q1295.73 1567.74 1295.73 1564.43 Q1295.73 1561.38 1293.58 1559.67 Q1291.45 1557.93 1287.63 1557.93 L1283.6 1557.93 L1283.6 1554.09 L1287.81 1554.09 Q1291.26 1554.09 1293.09 1552.72 Q1294.92 1551.33 1294.92 1548.74 Q1294.92 1546.08 1293.02 1544.67 Q1291.15 1543.23 1287.63 1543.23 Q1285.71 1543.23 1283.51 1543.65 Q1281.31 1544.06 1278.67 1544.94 L1278.67 1540.78 Q1281.33 1540.04 1283.65 1539.67 Q1285.98 1539.29 1288.04 1539.29 Q1293.37 1539.29 1296.47 1541.73 Q1299.57 1544.13 1299.57 1548.25 Q1299.57 1551.12 1297.93 1553.11 Q1296.28 1555.08 1293.25 1555.85 Z" fill="#000000" fill-rule="evenodd" fill-opacity="1" /><path clip-path="url(#clip350)" d="M 0 0 M1305.45 1568.6 L1310.34 1568.6 L1310.34 1574.48 L1305.45 1574.48 L1305.45 1568.6 Z" fill="#000000" fill-rule="evenodd" fill-opacity="1" /><path clip-path="url(#clip350)" d="M 0 0 M1328.25 1543.99 L1316.45 1562.44 L1328.25 1562.44 L1328.25 1543.99 M1327.03 1539.92 L1332.91 1539.92 L1332.91 1562.44 L1337.84 1562.44 L1337.84 1566.33 L1332.91 1566.33 L1332.91 1574.48 L1328.25 1574.48 L1328.25 1566.33 L1312.65 1566.33 L1312.65 1561.82 L1327.03 1539.92 Z" fill="#000000" fill-rule="evenodd" fill-opacity="1" /><path clip-path="url(#clip350)" d="M 0 0 M1871.84 1555.85 Q1875.2 1556.56 1877.07 1558.83 Q1878.97 1561.1 1878.97 1564.43 Q1878.97 1569.55 1875.45 1572.35 Q1871.93 1575.15 1865.45 1575.15 Q1863.27 1575.15 1860.96 1574.71 Q1858.67 1574.29 1856.21 1573.44 L1856.21 1568.92 Q1858.16 1570.06 1860.47 1570.64 Q1862.79 1571.22 1865.31 1571.22 Q1869.71 1571.22 1872 1569.48 Q1874.32 1567.74 1874.32 1564.43 Q1874.32 1561.38 1872.16 1559.67 Q1870.03 1557.93 1866.21 1557.93 L1862.19 1557.93 L1862.19 1554.09 L1866.4 1554.09 Q1869.85 1554.09 1871.68 1552.72 Q1873.51 1551.33 1873.51 1548.74 Q1873.51 1546.08 1871.61 1544.67 Q1869.73 1543.23 1866.21 1543.23 Q1864.29 1543.23 1862.09 1543.65 Q1859.89 1544.06 1857.26 1544.94 L1857.26 1540.78 Q1859.92 1540.04 1862.23 1539.67 Q1864.57 1539.29 1866.63 1539.29 Q1871.95 1539.29 1875.06 1541.73 Q1878.16 1544.13 1878.16 1548.25 Q1878.16 1551.12 1876.51 1553.11 Q1874.87 1555.08 1871.84 1555.85 Z" fill="#000000" fill-rule="evenodd" fill-opacity="1" /><path clip-path="url(#clip350)" d="M 0 0 M1884.04 1568.6 L1888.92 1568.6 L1888.92 1574.48 L1884.04 1574.48 L1884.04 1568.6 Z" fill="#000000" fill-rule="evenodd" fill-opacity="1" /><path clip-path="url(#clip350)" d="M 0 0 M1904.57 1555.34 Q1901.42 1555.34 1899.57 1557.49 Q1897.74 1559.64 1897.74 1563.39 Q1897.74 1567.12 1899.57 1569.29 Q1901.42 1571.45 1904.57 1571.45 Q1907.72 1571.45 1909.55 1569.29 Q1911.4 1567.12 1911.4 1563.39 Q1911.4 1559.64 1909.55 1557.49 Q1907.72 1555.34 1904.57 1555.34 M1913.85 1540.68 L1913.85 1544.94 Q1912.09 1544.11 1910.29 1543.67 Q1908.51 1543.23 1906.75 1543.23 Q1902.12 1543.23 1899.66 1546.36 Q1897.23 1549.48 1896.88 1555.8 Q1898.25 1553.79 1900.31 1552.72 Q1902.37 1551.63 1904.85 1551.63 Q1910.06 1551.63 1913.07 1554.8 Q1916.1 1557.95 1916.1 1563.39 Q1916.1 1568.72 1912.95 1571.93 Q1909.8 1575.15 1904.57 1575.15 Q1898.57 1575.15 1895.4 1570.57 Q1892.23 1565.96 1892.23 1557.23 Q1892.23 1549.04 1896.12 1544.18 Q1900.01 1539.29 1906.56 1539.29 Q1908.32 1539.29 1910.1 1539.64 Q1911.91 1539.99 1913.85 1540.68 Z" fill="#000000" fill-rule="evenodd" fill-opacity="1" /><path clip-path="url(#clip350)" d="M 0 0 M51.0477 1465.1 Q47.4367 1465.1 45.608 1468.66 Q43.8024 1472.2 43.8024 1479.33 Q43.8024 1486.44 45.608 1490 Q47.4367 1493.55 51.0477 1493.55 Q54.682 1493.55 56.4875 1490 Q58.3162 1486.44 58.3162 1479.33 Q58.3162 1472.2 56.4875 1468.66 Q54.682 1465.1 51.0477 1465.1 M51.0477 1461.39 Q56.8579 1461.39 59.9134 1466 Q62.9921 1470.58 62.9921 1479.33 Q62.9921 1488.06 59.9134 1492.67 Q56.8579 1497.25 51.0477 1497.25 Q45.2376 1497.25 42.1589 1492.67 Q39.1034 1488.06 39.1034 1479.33 Q39.1034 1470.58 42.1589 1466 Q45.2376 1461.39 51.0477 1461.39 Z" fill="#000000" fill-rule="evenodd" fill-opacity="1" /><path clip-path="url(#clip350)" d="M 0 0 M43.0848 1046.5 L50.7237 1046.5 L50.7237 1020.14 L42.4135 1021.8 L42.4135 1017.54 L50.6774 1015.88 L55.3533 1015.88 L55.3533 1046.5 L62.9921 1046.5 L62.9921 1050.44 L43.0848 1050.44 L43.0848 1046.5 Z" fill="#000000" fill-rule="evenodd" fill-opacity="1" /><path clip-path="url(#clip350)" d="M 0 0 M46.6728 600.36 L62.9921 600.36 L62.9921 604.296 L41.0478 604.296 L41.0478 600.36 Q43.7098 597.606 48.2931 592.976 Q52.8996 588.323 54.0801 586.981 Q56.3255 584.458 57.2051 582.722 Q58.1079 580.962 58.1079 579.273 Q58.1079 576.518 56.1635 574.782 Q54.2422 573.046 51.1403 573.046 Q48.9413 573.046 46.4876 573.81 Q44.057 574.574 41.2793 576.124 L41.2793 571.402 Q44.1033 570.268 46.557 569.689 Q49.0107 569.111 51.0477 569.111 Q56.4181 569.111 59.6125 571.796 Q62.8069 574.481 62.8069 578.972 Q62.8069 581.101 61.9968 583.023 Q61.2097 584.921 59.1033 587.513 Q58.5246 588.185 55.4227 591.402 Q52.3209 594.597 46.6728 600.36 Z" fill="#000000" fill-rule="evenodd" fill-opacity="1" /><path clip-path="url(#clip350)" d="M 0 0 M55.8625 139.52 Q59.219 140.238 61.094 142.507 Q62.9921 144.775 62.9921 148.108 Q62.9921 153.224 59.4736 156.025 Q55.9551 158.826 49.4737 158.826 Q47.2978 158.826 44.983 158.386 Q42.6913 157.969 40.2376 157.113 L40.2376 152.599 Q42.1821 153.733 44.4969 154.312 Q46.8117 154.891 49.3348 154.891 Q53.7329 154.891 56.0246 153.155 Q58.3394 151.419 58.3394 148.108 Q58.3394 145.053 56.1866 143.34 Q54.057 141.604 50.2376 141.604 L46.2098 141.604 L46.2098 137.761 L50.4227 137.761 Q53.8718 137.761 55.7005 136.395 Q57.5292 135.007 57.5292 132.414 Q57.5292 129.752 55.6311 128.34 Q53.7561 126.905 50.2376 126.905 Q48.3163 126.905 46.1172 127.321 Q43.9182 127.738 41.2793 128.618 L41.2793 124.451 Q43.9413 123.71 46.2561 123.34 Q48.5941 122.97 50.6542 122.97 Q55.9783 122.97 59.0801 125.4 Q62.1819 127.808 62.1819 131.928 Q62.1819 134.798 60.5384 136.789 Q58.8949 138.757 55.8625 139.52 Z" fill="#000000" fill-rule="evenodd" fill-opacity="1" /><path clip-path="url(#clip352)" d="
M151.118 671.198 L151.515 667.503 L151.912 663.812 L152.31 660.124 L152.707 656.441 L153.104 652.763 L153.502 649.088 L153.899 645.418 L154.296 641.753 L154.694 638.093 
  L155.091 634.438 L155.488 630.789 L155.886 627.144 L156.283 623.506 L156.68 619.873 L157.078 616.246 L157.475 612.625 L157.872 609.01 L158.27 605.402 L158.667 601.8 
  L159.064 598.205 L159.462 594.616 L159.859 591.035 L160.256 587.461 L160.654 583.894 L161.051 580.335 L161.448 576.783 L161.846 573.239 L162.243 569.703 L162.641 566.175 
  L163.038 562.655 L163.435 559.144 L163.833 555.641 L164.23 552.146 L164.627 548.661 L165.025 545.184 L165.422 541.717 L165.819 538.259 L166.217 534.81 L166.614 531.371 
  L167.011 527.941 L167.409 524.521 L167.806 521.111 L168.203 517.711 L168.601 514.322 L168.998 510.942 L169.395 507.574 L169.793 504.215 L170.19 500.868 L170.587 497.531 
  L170.985 494.206 L171.382 490.891 L171.779 487.588 L172.177 484.296 L172.574 481.015 L172.972 477.747 L173.369 474.49 L173.766 471.244 L174.164 468.011 L174.561 464.79 
  L174.958 461.581 L175.356 458.384 L175.753 455.2 L176.15 452.029 L176.548 448.87 L176.945 445.724 L177.342 442.59 L177.74 439.47 L178.137 436.363 L178.534 433.269 
  L178.932 430.188 L179.329 427.12 L179.726 424.067 L180.124 421.026 L180.521 418 L180.918 414.987 L181.316 411.988 L181.713 409.003 L182.11 406.032 L182.508 403.075 
  L182.905 400.133 L183.302 397.204 L183.7 394.29 L184.097 391.391 L184.495 388.506 L184.892 385.636 L185.289 382.781 L185.687 379.94 L186.084 377.114 L186.481 374.303 
  L186.879 371.507 L187.276 368.726 L187.673 365.961 L188.071 363.21 L188.468 360.475 L188.865 357.755 L189.263 355.051 L189.66 352.362 L190.057 349.689 L190.455 347.031 
  L190.455 1479.3 L190.057 1479.3 L189.66 1479.3 L189.263 1479.3 L188.865 1479.3 L188.468 1479.3 L188.071 1479.3 L187.673 1479.3 L187.276 1479.3 L186.879 1479.3 
  L186.481 1479.3 L186.084 1479.3 L185.687 1479.3 L185.289 1479.3 L184.892 1479.3 L184.495 1479.3 L184.097 1479.3 L183.7 1479.3 L183.302 1479.3 L182.905 1479.3 
  L182.508 1479.3 L182.11 1479.3 L181.713 1479.3 L181.316 1479.3 L180.918 1479.3 L180.521 1479.3 L180.124 1479.3 L179.726 1479.3 L179.329 1479.3 L178.932 1479.3 
  L178.534 1479.3 L178.137 1479.3 L177.74 1479.3 L177.342 1479.3 L176.945 1479.3 L176.548 1479.3 L176.15 1479.3 L175.753 1479.3 L175.356 1479.3 L174.958 1479.3 
  L174.561 1479.3 L174.164 1479.3 L173.766 1479.3 L173.369 1479.3 L172.972 1479.3 L172.574 1479.3 L172.177 1479.3 L171.779 1479.3 L171.382 1479.3 L170.985 1479.3 
  L170.587 1479.3 L170.19 1479.3 L169.793 1479.3 L169.395 1479.3 L168.998 1479.3 L168.601 1479.3 L168.203 1479.3 L167.806 1479.3 L167.409 1479.3 L167.011 1479.3 
  L166.614 1479.3 L166.217 1479.3 L165.819 1479.3 L165.422 1479.3 L165.025 1479.3 L164.627 1479.3 L164.23 1479.3 L163.833 1479.3 L163.435 1479.3 L163.038 1479.3 
  L162.641 1479.3 L162.243 1479.3 L161.846 1479.3 L161.448 1479.3 L161.051 1479.3 L160.654 1479.3 L160.256 1479.3 L159.859 1479.3 L159.462 1479.3 L159.064 1479.3 
  L158.667 1479.3 L158.27 1479.3 L157.872 1479.3 L157.475 1479.3 L157.078 1479.3 L156.68 1479.3 L156.283 1479.3 L155.886 1479.3 L155.488 1479.3 L155.091 1479.3 
  L154.694 1479.3 L154.296 1479.3 L153.899 1479.3 L153.502 1479.3 L153.104 1479.3 L152.707 1479.3 L152.31 1479.3 L151.912 1479.3 L151.515 1479.3 L151.118 1479.3 
   Z
  " fill="#ffa500" fill-rule="evenodd" fill-opacity="0.5"/>
<polyline clip-path="url(#clip352)" style="stroke:#ffa500; stroke-width:4; stroke-opacity:1; fill:none" points="
  151.118,671.198 151.515,667.503 151.912,663.812 152.31,660.124 152.707,656.441 153.104,652.763 153.502,649.088 153.899,645.418 154.296,641.753 154.694,638.093 
  155.091,634.438 155.488,630.789 155.886,627.144 156.283,623.506 156.68,619.873 157.078,616.246 157.475,612.625 157.872,609.01 158.27,605.402 158.667,601.8 
  159.064,598.205 159.462,594.616 159.859,591.035 160.256,587.461 160.654,583.894 161.051,580.335 161.448,576.783 161.846,573.239 162.243,569.703 162.641,566.175 
  163.038,562.655 163.435,559.144 163.833,555.641 164.23,552.146 164.627,548.661 165.025,545.184 165.422,541.717 165.819,538.259 166.217,534.81 166.614,531.371 
  167.011,527.941 167.409,524.521 167.806,521.111 168.203,517.711 168.601,514.322 168.998,510.942 169.395,507.574 169.793,504.215 170.19,500.868 170.587,497.531 
  170.985,494.206 171.382,490.891 171.779,487.588 172.177,484.296 172.574,481.015 172.972,477.747 173.369,474.49 173.766,471.244 174.164,468.011 174.561,464.79 
  174.958,461.581 175.356,458.384 175.753,455.2 176.15,452.029 176.548,448.87 176.945,445.724 177.342,442.59 177.74,439.47 178.137,436.363 178.534,433.269 
  178.932,430.188 179.329,427.12 179.726,424.067 180.124,421.026 180.521,418 180.918,414.987 181.316,411.988 181.713,409.003 182.11,406.032 182.508,403.075 
  182.905,400.133 183.302,397.204 183.7,394.29 184.097,391.391 184.495,388.506 184.892,385.636 185.289,382.781 185.687,379.94 186.084,377.114 186.481,374.303 
  186.879,371.507 187.276,368.726 187.673,365.961 188.071,363.21 188.468,360.475 188.865,357.755 189.263,355.051 189.66,352.362 190.057,349.689 190.455,347.031 
  
  "/>
<path clip-path="url(#clip352)" d="
M190.455 347.031 L205.091 260.33 L219.728 195.721 L234.364 151.537 L249.001 124.041 L263.637 108.493 L278.274 100.259 L292.91 95.6836 L307.547 92.5582 L322.183 90.1644 
  L336.82 88.9544 L351.456 90.0184 L366.093 94.4974 L380.729 103.087 L395.366 115.739 L410.002 131.601 L424.639 149.2 L439.275 166.782 L453.912 182.732 L468.548 195.962 
  L483.185 206.171 L497.821 213.927 L512.458 220.557 L527.095 227.869 L541.731 237.766 L556.368 251.837 L571.004 271.016 L585.641 295.387 L600.277 324.157 L614.914 355.822 
  L629.55 388.441 L644.187 419.973 L658.823 448.582 L673.46 472.867 L688.096 492.005 L702.733 505.804 L717.369 514.705 L732.006 519.734 L746.642 522.418 L761.279 524.635 
  L775.915 528.408 L790.552 535.634 L805.188 547.797 L819.825 565.721 L834.461 589.433 L849.098 618.173 L863.734 650.554 L878.371 684.835 L893.007 719.218 L907.644 752.111 
  L922.28 782.293 L936.917 808.983 L951.553 831.831 L966.19 850.879 L980.826 866.512 L995.463 879.404 L1010.1 890.444 L1024.74 900.611 L1039.37 910.803 L1054.01 921.659 
  L1068.65 933.401 L1083.28 945.781 L1097.92 958.148 L1112.56 969.642 L1127.19 979.449 L1141.83 987.049 L1156.46 992.388 L1171.1 995.893 L1185.74 998.362 L1200.37 1000.74 
  L1215.01 1003.85 L1229.65 1008.23 L1244.28 1013.93 L1258.92 1020.63 L1273.56 1027.67 L1288.19 1034.3 L1302.83 1039.88 L1317.47 1044.06 L1332.1 1046.87 L1346.74 1048.84 
  L1361.38 1050.87 L1376.01 1054.14 L1390.65 1059.92 L1405.29 1069.36 L1419.92 1083.26 L1434.56 1101.88 L1449.19 1124.82 L1463.83 1151.04 L1478.47 1178.98 L1493.1 1206.74 
  L1507.74 1232.49 L1522.38 1254.71 L1537.01 1272.45 L1551.65 1285.46 L1566.29 1294.11 L1580.92 1299.22 L1595.56 1301.78 L1610.2 1302.77 L1624.83 1302.94 L1639.47 1302.79 
  L1639.47 1479.3 L1624.83 1479.3 L1610.2 1479.3 L1595.56 1479.3 L1580.92 1479.3 L1566.29 1479.3 L1551.65 1479.3 L1537.01 1479.3 L1522.38 1479.3 L1507.74 1479.3 
  L1493.1 1479.3 L1478.47 1479.3 L1463.83 1479.3 L1449.19 1479.3 L1434.56 1479.3 L1419.92 1479.3 L1405.29 1479.3 L1390.65 1479.3 L1376.01 1479.3 L1361.38 1479.3 
  L1346.74 1479.3 L1332.1 1479.3 L1317.47 1479.3 L1302.83 1479.3 L1288.19 1479.3 L1273.56 1479.3 L1258.92 1479.3 L1244.28 1479.3 L1229.65 1479.3 L1215.01 1479.3 
  L1200.37 1479.3 L1185.74 1479.3 L1171.1 1479.3 L1156.46 1479.3 L1141.83 1479.3 L1127.19 1479.3 L1112.56 1479.3 L1097.92 1479.3 L1083.28 1479.3 L1068.65 1479.3 
  L1054.01 1479.3 L1039.37 1479.3 L1024.74 1479.3 L1010.1 1479.3 L995.463 1479.3 L980.826 1479.3 L966.19 1479.3 L951.553 1479.3 L936.917 1479.3 L922.28 1479.3 
  L907.644 1479.3 L893.007 1479.3 L878.371 1479.3 L863.734 1479.3 L849.098 1479.3 L834.461 1479.3 L819.825 1479.3 L805.188 1479.3 L790.552 1479.3 L775.915 1479.3 
  L761.279 1479.3 L746.642 1479.3 L732.006 1479.3 L717.369 1479.3 L702.733 1479.3 L688.096 1479.3 L673.46 1479.3 L658.823 1479.3 L644.187 1479.3 L629.55 1479.3 
  L614.914 1479.3 L600.277 1479.3 L585.641 1479.3 L571.004 1479.3 L556.368 1479.3 L541.731 1479.3 L527.095 1479.3 L512.458 1479.3 L497.821 1479.3 L483.185 1479.3 
  L468.548 1479.3 L453.912 1479.3 L439.275 1479.3 L424.639 1479.3 L410.002 1479.3 L395.366 1479.3 L380.729 1479.3 L366.093 1479.3 L351.456 1479.3 L336.82 1479.3 
  L322.183 1479.3 L307.547 1479.3 L292.91 1479.3 L278.274 1479.3 L263.637 1479.3 L249.001 1479.3 L234.364 1479.3 L219.728 1479.3 L205.091 1479.3 L190.455 1479.3 
   Z
  " fill="#008000" fill-rule="evenodd" fill-opacity="0.5"/>
<polyline clip-path="url(#clip352)" style="stroke:#008000; stroke-width:4; stroke-opacity:1; fill:none" points="
  190.455,347.031 205.091,260.33 219.728,195.721 234.364,151.537 249.001,124.041 263.637,108.493 278.274,100.259 292.91,95.6836 307.547,92.5582 322.183,90.1644 
  336.82,88.9544 351.456,90.0184 366.093,94.4974 380.729,103.087 395.366,115.739 410.002,131.601 424.639,149.2 439.275,166.782 453.912,182.732 468.548,195.962 
  483.185,206.171 497.821,213.927 512.458,220.557 527.095,227.869 541.731,237.766 556.368,251.837 571.004,271.016 585.641,295.387 600.277,324.157 614.914,355.822 
  629.55,388.441 644.187,419.973 658.823,448.582 673.46,472.867 688.096,492.005 702.733,505.804 717.369,514.705 732.006,519.734 746.642,522.418 761.279,524.635 
  775.915,528.408 790.552,535.634 805.188,547.797 819.825,565.721 834.461,589.433 849.098,618.173 863.734,650.554 878.371,684.835 893.007,719.218 907.644,752.111 
  922.28,782.293 936.917,808.983 951.553,831.831 966.19,850.879 980.826,866.512 995.463,879.404 1010.1,890.444 1024.74,900.611 1039.37,910.803 1054.01,921.659 
  1068.65,933.401 1083.28,945.781 1097.92,958.148 1112.56,969.642 1127.19,979.449 1141.83,987.049 1156.46,992.388 1171.1,995.893 1185.74,998.362 1200.37,1000.74 
  1215.01,1003.85 1229.65,1008.23 1244.28,1013.93 1258.92,1020.63 1273.56,1027.67 1288.19,1034.3 1302.83,1039.88 1317.47,1044.06 1332.1,1046.87 1346.74,1048.84 
  1361.38,1050.87 1376.01,1054.14 1390.65,1059.92 1405.29,1069.36 1419.92,1083.26 1434.56,1101.88 1449.19,1124.82 1463.83,1151.04 1478.47,1178.98 1493.1,1206.74 
  1507.74,1232.49 1522.38,1254.71 1537.01,1272.45 1551.65,1285.46 1566.29,1294.11 1580.92,1299.22 1595.56,1301.78 1610.2,1302.77 1624.83,1302.94 1639.47,1302.79 
  
  "/>
<path clip-path="url(#clip352)" d="
M1639.47 1302.79 L1646.03 1302.71 L1652.58 1302.66 L1659.14 1302.66 L1665.7 1302.73 L1672.26 1302.89 L1678.81 1303.16 L1685.37 1303.58 L1691.93 1304.17 L1698.48 1304.97 
  L1705.04 1306 L1711.6 1307.29 L1718.16 1308.85 L1724.71 1310.72 L1731.27 1312.89 L1737.83 1315.36 L1744.38 1318.13 L1750.94 1321.17 L1757.5 1324.46 L1764.06 1327.95 
  L1770.61 1331.61 L1777.17 1335.39 L1783.73 1339.23 L1790.28 1343.09 L1796.84 1346.92 L1803.4 1350.66 L1809.96 1354.28 L1816.51 1357.75 L1823.07 1361.02 L1829.63 1364.09 
  L1836.18 1366.95 L1842.74 1369.58 L1849.3 1372 L1855.86 1374.21 L1862.41 1376.24 L1868.97 1378.09 L1875.53 1379.79 L1882.09 1381.36 L1888.64 1382.83 L1895.2 1384.2 
  L1901.76 1385.5 L1908.31 1386.73 L1914.87 1387.91 L1921.43 1389.02 L1927.99 1390.07 L1934.54 1391.04 L1941.1 1391.93 L1947.66 1392.73 L1954.21 1393.41 L1960.77 1393.97 
  L1967.33 1394.4 L1973.89 1394.7 L1980.44 1394.85 L1987 1394.87 L1993.56 1394.75 L2000.11 1394.52 L2006.67 1394.2 L2013.23 1393.81 L2019.79 1393.38 L2026.34 1392.94 
  L2032.9 1392.53 L2039.46 1392.18 L2046.01 1391.93 L2052.57 1391.82 L2059.13 1391.88 L2065.69 1392.13 L2072.24 1392.61 L2078.8 1393.33 L2085.36 1394.3 L2091.92 1395.53 
  L2098.47 1397.02 L2105.03 1398.75 L2111.59 1400.72 L2118.14 1402.89 L2124.7 1405.24 L2131.26 1407.74 L2137.82 1410.35 L2144.37 1413.03 L2150.93 1415.75 L2157.49 1418.47 
  L2164.04 1421.15 L2170.6 1423.77 L2177.16 1426.31 L2183.72 1428.75 L2190.27 1431.07 L2196.83 1433.28 L2203.39 1435.37 L2209.94 1437.36 L2216.5 1439.25 L2223.06 1441.07 
  L2229.62 1442.82 L2236.17 1444.52 L2242.73 1446.2 L2249.29 1447.86 L2255.84 1449.53 L2262.4 1451.2 L2268.96 1452.88 L2275.52 1454.58 L2282.07 1456.28 L2288.63 1457.99 
  L2288.63 1479.3 L2282.07 1479.3 L2275.52 1479.3 L2268.96 1479.3 L2262.4 1479.3 L2255.84 1479.3 L2249.29 1479.3 L2242.73 1479.3 L2236.17 1479.3 L2229.62 1479.3 
  L2223.06 1479.3 L2216.5 1479.3 L2209.94 1479.3 L2203.39 1479.3 L2196.83 1479.3 L2190.27 1479.3 L2183.72 1479.3 L2177.16 1479.3 L2170.6 1479.3 L2164.04 1479.3 
  L2157.49 1479.3 L2150.93 1479.3 L2144.37 1479.3 L2137.82 1479.3 L2131.26 1479.3 L2124.7 1479.3 L2118.14 1479.3 L2111.59 1479.3 L2105.03 1479.3 L2098.47 1479.3 
  L2091.92 1479.3 L2085.36 1479.3 L2078.8 1479.3 L2072.24 1479.3 L2065.69 1479.3 L2059.13 1479.3 L2052.57 1479.3 L2046.01 1479.3 L2039.46 1479.3 L2032.9 1479.3 
  L2026.34 1479.3 L2019.79 1479.3 L2013.23 1479.3 L2006.67 1479.3 L2000.11 1479.3 L1993.56 1479.3 L1987 1479.3 L1980.44 1479.3 L1973.89 1479.3 L1967.33 1479.3 
  L1960.77 1479.3 L1954.21 1479.3 L1947.66 1479.3 L1941.1 1479.3 L1934.54 1479.3 L1927.99 1479.3 L1921.43 1479.3 L1914.87 1479.3 L1908.31 1479.3 L1901.76 1479.3 
  L1895.2 1479.3 L1888.64 1479.3 L1882.09 1479.3 L1875.53 1479.3 L1868.97 1479.3 L1862.41 1479.3 L1855.86 1479.3 L1849.3 1479.3 L1842.74 1479.3 L1836.18 1479.3 
  L1829.63 1479.3 L1823.07 1479.3 L1816.51 1479.3 L1809.96 1479.3 L1803.4 1479.3 L1796.84 1479.3 L1790.28 1479.3 L1783.73 1479.3 L1777.17 1479.3 L1770.61 1479.3 
  L1764.06 1479.3 L1757.5 1479.3 L1750.94 1479.3 L1744.38 1479.3 L1737.83 1479.3 L1731.27 1479.3 L1724.71 1479.3 L1718.16 1479.3 L1711.6 1479.3 L1705.04 1479.3 
  L1698.48 1479.3 L1691.93 1479.3 L1685.37 1479.3 L1678.81 1479.3 L1672.26 1479.3 L1665.7 1479.3 L1659.14 1479.3 L1652.58 1479.3 L1646.03 1479.3 L1639.47 1479.3 
   Z
  " fill="#ffa500" fill-rule="evenodd" fill-opacity="0.5"/>
<polyline clip-path="url(#clip352)" style="stroke:#ffa500; stroke-width:4; stroke-opacity:1; fill:none" points="
  1639.47,1302.79 1646.03,1302.71 1652.58,1302.66 1659.14,1302.66 1665.7,1302.73 1672.26,1302.89 1678.81,1303.16 1685.37,1303.58 1691.93,1304.17 1698.48,1304.97 
  1705.04,1306 1711.6,1307.29 1718.16,1308.85 1724.71,1310.72 1731.27,1312.89 1737.83,1315.36 1744.38,1318.13 1750.94,1321.17 1757.5,1324.46 1764.06,1327.95 
  1770.61,1331.61 1777.17,1335.39 1783.73,1339.23 1790.28,1343.09 1796.84,1346.92 1803.4,1350.66 1809.96,1354.28 1816.51,1357.75 1823.07,1361.02 1829.63,1364.09 
  1836.18,1366.95 1842.74,1369.58 1849.3,1372 1855.86,1374.21 1862.41,1376.24 1868.97,1378.09 1875.53,1379.79 1882.09,1381.36 1888.64,1382.83 1895.2,1384.2 
  1901.76,1385.5 1908.31,1386.73 1914.87,1387.91 1921.43,1389.02 1927.99,1390.07 1934.54,1391.04 1941.1,1391.93 1947.66,1392.73 1954.21,1393.41 1960.77,1393.97 
  1967.33,1394.4 1973.89,1394.7 1980.44,1394.85 1987,1394.87 1993.56,1394.75 2000.11,1394.52 2006.67,1394.2 2013.23,1393.81 2019.79,1393.38 2026.34,1392.94 
  2032.9,1392.53 2039.46,1392.18 2046.01,1391.93 2052.57,1391.82 2059.13,1391.88 2065.69,1392.13 2072.24,1392.61 2078.8,1393.33 2085.36,1394.3 2091.92,1395.53 
  2098.47,1397.02 2105.03,1398.75 2111.59,1400.72 2118.14,1402.89 2124.7,1405.24 2131.26,1407.74 2137.82,1410.35 2144.37,1413.03 2150.93,1415.75 2157.49,1418.47 
  2164.04,1421.15 2170.6,1423.77 2177.16,1426.31 2183.72,1428.75 2190.27,1431.07 2196.83,1433.28 2203.39,1435.37 2209.94,1437.36 2216.5,1439.25 2223.06,1441.07 
  2229.62,1442.82 2236.17,1444.52 2242.73,1446.2 2249.29,1447.86 2255.84,1449.53 2262.4,1451.2 2268.96,1452.88 2275.52,1454.58 2282.07,1456.28 2288.63,1457.99 
  
  "/>
<polyline clip-path="url(#clip352)" style="stroke:#0000ff; stroke-width:4; stroke-opacity:1; fill:none" points="
  730.446,1479.3 730.446,519.34 
  "/>
<polyline clip-path="url(#clip352)" style="stroke:#000000; stroke-width:4; stroke-opacity:1; fill:none" points="
  619.319,1479.3 619.319,365.633 
  "/>
<path clip-path="url(#clip350)" d="
M1494.58 459.25 L2277.23 459.25 L2277.23 96.3696 L1494.58 96.3696  Z
  " fill="#ffffff" fill-rule="evenodd" fill-opacity="1"/>
<polyline clip-path="url(#clip350)" style="stroke:#000000; stroke-width:4; stroke-opacity:1; fill:none" points="
  1494.58,459.25 2277.23,459.25 2277.23,96.3696 1494.58,96.3696 1494.58,459.25 
  "/>
<path clip-path="url(#clip350)" d="
M1519.75 181.042 L1670.81 181.042 L1670.81 132.658 L1519.75 132.658 L1519.75 181.042  Z
  " fill="#ffa500" fill-rule="evenodd" fill-opacity="0.5"/>
<polyline clip-path="url(#clip350)" style="stroke:#ffa500; stroke-width:4; stroke-opacity:1; fill:none" points="
  1519.75,132.658 1670.81,132.658 
  "/>
<path clip-path="url(#clip350)" d="M 0 0 M1700.38 161.19 Q1700.38 165.889 1702.3 168.574 Q1704.24 171.236 1707.62 171.236 Q1711 171.236 1712.95 168.574 Q1714.89 165.889 1714.89 161.19 Q1714.89 156.491 1712.95 153.829 Q1711 151.144 1707.62 151.144 Q1704.24 151.144 1702.3 153.829 Q1700.38 156.491 1700.38 161.19 M1714.89 170.241 Q1713.55 172.555 1711.49 173.69 Q1709.45 174.801 1706.58 174.801 Q1701.88 174.801 1698.92 171.051 Q1695.98 167.301 1695.98 161.19 Q1695.98 155.079 1698.92 151.329 Q1701.88 147.579 1706.58 147.579 Q1709.45 147.579 1711.49 148.713 Q1713.55 149.824 1714.89 152.139 L1714.89 148.204 L1719.15 148.204 L1719.15 183.991 L1714.89 183.991 L1714.89 170.241 Z" fill="#000000" fill-rule="evenodd" fill-opacity="1" /><path clip-path="url(#clip350)" d="M 0 0 M1734.22 142.648 Q1730.61 142.648 1728.78 146.213 Q1726.98 149.755 1726.98 156.884 Q1726.98 163.991 1728.78 167.556 Q1730.61 171.097 1734.22 171.097 Q1737.85 171.097 1739.66 167.556 Q1741.49 163.991 1741.49 156.884 Q1741.49 149.755 1739.66 146.213 Q1737.85 142.648 1734.22 142.648 M1734.22 138.945 Q1740.03 138.945 1743.09 143.551 Q1746.17 148.134 1746.17 156.884 Q1746.17 165.611 1743.09 170.218 Q1740.03 174.801 1734.22 174.801 Q1728.41 174.801 1725.33 170.218 Q1722.28 165.611 1722.28 156.884 Q1722.28 148.134 1725.33 143.551 Q1728.41 138.945 1734.22 138.945 Z" fill="#000000" fill-rule="evenodd" fill-opacity="1" /><path clip-path="url(#clip350)" d="M 0 0 M1751.28 139.57 L1769.64 139.57 L1769.64 143.505 L1755.56 143.505 L1755.56 151.977 Q1756.58 151.63 1757.6 151.468 Q1758.62 151.282 1759.64 151.282 Q1765.42 151.282 1768.8 154.454 Q1772.18 157.625 1772.18 163.042 Q1772.18 168.62 1768.71 171.722 Q1765.24 174.801 1758.92 174.801 Q1756.74 174.801 1754.48 174.43 Q1752.23 174.06 1749.82 173.319 L1749.82 168.62 Q1751.91 169.755 1754.13 170.31 Q1756.35 170.866 1758.83 170.866 Q1762.83 170.866 1765.17 168.759 Q1767.51 166.653 1767.51 163.042 Q1767.51 159.431 1765.17 157.324 Q1762.83 155.218 1758.83 155.218 Q1756.95 155.218 1755.08 155.634 Q1753.23 156.051 1751.28 156.931 L1751.28 139.57 Z" fill="#000000" fill-rule="evenodd" fill-opacity="1" /><path clip-path="url(#clip350)" d="
M1519.75 241.522 L1670.81 241.522 L1670.81 193.138 L1519.75 193.138 L1519.75 241.522  Z
  " fill="#008000" fill-rule="evenodd" fill-opacity="0.5"/>
<polyline clip-path="url(#clip350)" style="stroke:#008000; stroke-width:4; stroke-opacity:1; fill:none" points="
  1519.75,193.138 1670.81,193.138 
  "/>
<path clip-path="url(#clip350)" d="M 0 0 M1698.2 233.892 L1698.2 229.633 Q1699.96 230.466 1701.77 230.906 Q1703.57 231.346 1705.31 231.346 Q1709.94 231.346 1712.37 228.244 Q1714.82 225.119 1715.17 218.776 Q1713.83 220.767 1711.77 221.832 Q1709.71 222.897 1707.21 222.897 Q1702.02 222.897 1698.99 219.772 Q1695.98 216.624 1695.98 211.184 Q1695.98 205.86 1699.13 202.642 Q1702.28 199.425 1707.51 199.425 Q1713.5 199.425 1716.65 204.031 Q1719.82 208.614 1719.82 217.364 Q1719.82 225.536 1715.93 230.42 Q1712.07 235.281 1705.52 235.281 Q1703.76 235.281 1701.95 234.934 Q1700.15 234.586 1698.2 233.892 M1707.51 219.239 Q1710.66 219.239 1712.48 217.086 Q1714.34 214.934 1714.34 211.184 Q1714.34 207.457 1712.48 205.304 Q1710.66 203.128 1707.51 203.128 Q1704.36 203.128 1702.51 205.304 Q1700.68 207.457 1700.68 211.184 Q1700.68 214.934 1702.51 217.086 Q1704.36 219.239 1707.51 219.239 Z" fill="#000000" fill-rule="evenodd" fill-opacity="1" /><path clip-path="url(#clip350)" d="M 0 0 M1734.89 203.128 Q1731.28 203.128 1729.45 206.693 Q1727.65 210.235 1727.65 217.364 Q1727.65 224.471 1729.45 228.036 Q1731.28 231.577 1734.89 231.577 Q1738.53 231.577 1740.33 228.036 Q1742.16 224.471 1742.16 217.364 Q1742.16 210.235 1740.33 206.693 Q1738.53 203.128 1734.89 203.128 M1734.89 199.425 Q1740.7 199.425 1743.76 204.031 Q1746.84 208.614 1746.84 217.364 Q1746.84 226.091 1743.76 230.698 Q1740.7 235.281 1734.89 235.281 Q1729.08 235.281 1726 230.698 Q1722.95 226.091 1722.95 217.364 Q1722.95 208.614 1726 204.031 Q1729.08 199.425 1734.89 199.425 Z" fill="#000000" fill-rule="evenodd" fill-opacity="1" /><path clip-path="url(#clip350)" d="M 0 0 M1781.3 219.401 Q1779.29 219.401 1778.13 221.114 Q1777 222.827 1777 225.883 Q1777 228.892 1778.13 230.628 Q1779.29 232.341 1781.3 232.341 Q1783.27 232.341 1784.41 230.628 Q1785.56 228.892 1785.56 225.883 Q1785.56 222.85 1784.41 221.137 Q1783.27 219.401 1781.3 219.401 M1781.3 216.462 Q1784.96 216.462 1787.11 219.008 Q1789.27 221.554 1789.27 225.883 Q1789.27 230.211 1787.09 232.758 Q1784.94 235.281 1781.3 235.281 Q1777.6 235.281 1775.45 232.758 Q1773.29 230.211 1773.29 225.883 Q1773.29 221.531 1775.45 219.008 Q1777.62 216.462 1781.3 216.462 M1757.42 202.364 Q1755.42 202.364 1754.27 204.1 Q1753.13 205.813 1753.13 208.823 Q1753.13 211.878 1754.27 213.591 Q1755.4 215.304 1757.42 215.304 Q1759.43 215.304 1760.56 213.591 Q1761.72 211.878 1761.72 208.823 Q1761.72 205.837 1760.56 204.1 Q1759.41 202.364 1757.42 202.364 M1778.32 199.425 L1782.02 199.425 L1760.4 235.281 L1756.7 235.281 L1778.32 199.425 M1757.42 199.425 Q1761.07 199.425 1763.25 201.971 Q1765.42 204.494 1765.42 208.823 Q1765.42 213.198 1763.25 215.721 Q1761.1 218.244 1757.42 218.244 Q1753.73 218.244 1751.58 215.721 Q1749.45 213.174 1749.45 208.823 Q1749.45 204.517 1751.6 201.971 Q1753.76 199.425 1757.42 199.425 Z" fill="#000000" fill-rule="evenodd" fill-opacity="1" /><path clip-path="url(#clip350)" d="M 0 0 M1830.35 218.961 L1830.35 234.61 L1826.1 234.61 L1826.1 219.1 Q1826.1 215.42 1824.66 213.591 Q1823.22 211.762 1820.35 211.762 Q1816.91 211.762 1814.91 213.962 Q1812.92 216.161 1812.92 219.957 L1812.92 234.61 L1808.64 234.61 L1808.64 208.684 L1812.92 208.684 L1812.92 212.712 Q1814.45 210.374 1816.51 209.216 Q1818.6 208.059 1821.3 208.059 Q1825.77 208.059 1828.06 210.837 Q1830.35 213.591 1830.35 218.961 Z" fill="#000000" fill-rule="evenodd" fill-opacity="1" /><path clip-path="url(#clip350)" d="M 0 0 M1844.87 211.67 Q1841.44 211.67 1839.45 214.355 Q1837.46 217.017 1837.46 221.67 Q1837.46 226.323 1839.43 229.008 Q1841.42 231.67 1844.87 231.67 Q1848.27 231.67 1850.26 228.985 Q1852.25 226.299 1852.25 221.67 Q1852.25 217.063 1850.26 214.378 Q1848.27 211.67 1844.87 211.67 M1844.87 208.059 Q1850.42 208.059 1853.6 211.67 Q1856.77 215.281 1856.77 221.67 Q1856.77 228.036 1853.6 231.67 Q1850.42 235.281 1844.87 235.281 Q1839.29 235.281 1836.12 231.67 Q1832.97 228.036 1832.97 221.67 Q1832.97 215.281 1836.12 211.67 Q1839.29 208.059 1844.87 208.059 Z" fill="#000000" fill-rule="evenodd" fill-opacity="1" /><path clip-path="url(#clip350)" d="M 0 0 M1882.78 218.961 L1882.78 234.61 L1878.53 234.61 L1878.53 219.1 Q1878.53 215.42 1877.09 213.591 Q1875.66 211.762 1872.78 211.762 Q1869.34 211.762 1867.35 213.962 Q1865.35 216.161 1865.35 219.957 L1865.35 234.61 L1861.07 234.61 L1861.07 208.684 L1865.35 208.684 L1865.35 212.712 Q1866.88 210.374 1868.94 209.216 Q1871.03 208.059 1873.73 208.059 Q1878.2 208.059 1880.49 210.837 Q1882.78 213.591 1882.78 218.961 Z" fill="#000000" fill-rule="evenodd" fill-opacity="1" /><path clip-path="url(#clip350)" d="M 0 0 M1885.1 219.725 L1897.58 219.725 L1897.58 223.522 L1885.1 223.522 L1885.1 219.725 Z" fill="#000000" fill-rule="evenodd" fill-opacity="1" /><path clip-path="url(#clip350)" d="M 0 0 M1917.07 212.665 Q1916.35 212.249 1915.49 212.063 Q1914.66 211.855 1913.64 211.855 Q1910.03 211.855 1908.09 214.216 Q1906.16 216.554 1906.16 220.952 L1906.16 234.61 L1901.88 234.61 L1901.88 208.684 L1906.16 208.684 L1906.16 212.712 Q1907.51 210.35 1909.66 209.216 Q1911.81 208.059 1914.89 208.059 Q1915.33 208.059 1915.86 208.128 Q1916.4 208.175 1917.04 208.29 L1917.07 212.665 Z" fill="#000000" fill-rule="evenodd" fill-opacity="1" /><path clip-path="url(#clip350)" d="M 0 0 M1942.67 220.582 L1942.67 222.665 L1923.09 222.665 Q1923.36 227.063 1925.72 229.378 Q1928.11 231.67 1932.34 231.67 Q1934.8 231.67 1937.09 231.068 Q1939.4 230.466 1941.67 229.262 L1941.67 233.29 Q1939.38 234.262 1936.97 234.772 Q1934.57 235.281 1932.09 235.281 Q1925.89 235.281 1922.25 231.67 Q1918.64 228.059 1918.64 221.901 Q1918.64 215.536 1922.07 211.809 Q1925.52 208.059 1931.35 208.059 Q1936.58 208.059 1939.61 211.438 Q1942.67 214.795 1942.67 220.582 M1938.41 219.332 Q1938.36 215.837 1936.44 213.753 Q1934.54 211.67 1931.4 211.67 Q1927.83 211.67 1925.68 213.684 Q1923.55 215.698 1923.22 219.355 L1938.41 219.332 Z" fill="#000000" fill-rule="evenodd" fill-opacity="1" /><path clip-path="url(#clip350)" d="M 0 0 M1947.14 208.684 L1951.4 208.684 L1951.4 235.073 Q1951.4 240.026 1949.5 242.248 Q1947.62 244.471 1943.43 244.471 L1941.81 244.471 L1941.81 240.86 L1942.95 240.86 Q1945.38 240.86 1946.26 239.725 Q1947.14 238.614 1947.14 235.073 L1947.14 208.684 M1947.14 198.591 L1951.4 198.591 L1951.4 203.985 L1947.14 203.985 L1947.14 198.591 Z" fill="#000000" fill-rule="evenodd" fill-opacity="1" /><path clip-path="url(#clip350)" d="M 0 0 M1978.04 220.582 L1978.04 222.665 L1958.46 222.665 Q1958.73 227.063 1961.09 229.378 Q1963.48 231.67 1967.71 231.67 Q1970.17 231.67 1972.46 231.068 Q1974.78 230.466 1977.04 229.262 L1977.04 233.29 Q1974.75 234.262 1972.34 234.772 Q1969.94 235.281 1967.46 235.281 Q1961.26 235.281 1957.62 231.67 Q1954.01 228.059 1954.01 221.901 Q1954.01 215.536 1957.44 211.809 Q1960.89 208.059 1966.72 208.059 Q1971.95 208.059 1974.98 211.438 Q1978.04 214.795 1978.04 220.582 M1973.78 219.332 Q1973.73 215.837 1971.81 213.753 Q1969.91 211.67 1966.77 211.67 Q1963.2 211.67 1961.05 213.684 Q1958.92 215.698 1958.59 219.355 L1973.78 219.332 Z" fill="#000000" fill-rule="evenodd" fill-opacity="1" /><path clip-path="url(#clip350)" d="M 0 0 M2001.16 209.679 L2001.16 213.661 Q1999.36 212.665 1997.53 212.179 Q1995.72 211.67 1993.87 211.67 Q1989.73 211.67 1987.44 214.309 Q1985.15 216.924 1985.15 221.67 Q1985.15 226.415 1987.44 229.054 Q1989.73 231.67 1993.87 231.67 Q1995.72 231.67 1997.53 231.184 Q1999.36 230.674 2001.16 229.679 L2001.16 233.614 Q1999.38 234.448 1997.46 234.864 Q1995.56 235.281 1993.41 235.281 Q1987.55 235.281 1984.1 231.6 Q1980.65 227.92 1980.65 221.67 Q1980.65 215.327 1984.13 211.693 Q1987.62 208.059 1993.69 208.059 Q1995.65 208.059 1997.53 208.475 Q1999.4 208.869 2001.16 209.679 Z" fill="#000000" fill-rule="evenodd" fill-opacity="1" /><path clip-path="url(#clip350)" d="M 0 0 M2009.84 201.323 L2009.84 208.684 L2018.62 208.684 L2018.62 211.994 L2009.84 211.994 L2009.84 226.068 Q2009.84 229.239 2010.7 230.142 Q2011.58 231.045 2014.24 231.045 L2018.62 231.045 L2018.62 234.61 L2014.24 234.61 Q2009.31 234.61 2007.44 232.781 Q2005.56 230.929 2005.56 226.068 L2005.56 211.994 L2002.44 211.994 L2002.44 208.684 L2005.56 208.684 L2005.56 201.323 L2009.84 201.323 Z" fill="#000000" fill-rule="evenodd" fill-opacity="1" /><path clip-path="url(#clip350)" d="M 0 0 M2023.08 208.684 L2027.34 208.684 L2027.34 234.61 L2023.08 234.61 L2023.08 208.684 M2023.08 198.591 L2027.34 198.591 L2027.34 203.985 L2023.08 203.985 L2023.08 198.591 Z" fill="#000000" fill-rule="evenodd" fill-opacity="1" /><path clip-path="url(#clip350)" d="M 0 0 M2041.86 211.67 Q2038.43 211.67 2036.44 214.355 Q2034.45 217.017 2034.45 221.67 Q2034.45 226.323 2036.42 229.008 Q2038.41 231.67 2041.86 231.67 Q2045.26 231.67 2047.25 228.985 Q2049.24 226.299 2049.24 221.67 Q2049.24 217.063 2047.25 214.378 Q2045.26 211.67 2041.86 211.67 M2041.86 208.059 Q2047.41 208.059 2050.58 211.67 Q2053.76 215.281 2053.76 221.67 Q2053.76 228.036 2050.58 231.67 Q2047.41 235.281 2041.86 235.281 Q2036.28 235.281 2033.11 231.67 Q2029.96 228.036 2029.96 221.67 Q2029.96 215.281 2033.11 211.67 Q2036.28 208.059 2041.86 208.059 Z" fill="#000000" fill-rule="evenodd" fill-opacity="1" /><path clip-path="url(#clip350)" d="M 0 0 M2079.77 218.961 L2079.77 234.61 L2075.52 234.61 L2075.52 219.1 Q2075.52 215.42 2074.08 213.591 Q2072.64 211.762 2069.77 211.762 Q2066.33 211.762 2064.33 213.962 Q2062.34 216.161 2062.34 219.957 L2062.34 234.61 L2058.06 234.61 L2058.06 208.684 L2062.34 208.684 L2062.34 212.712 Q2063.87 210.374 2065.93 209.216 Q2068.02 208.059 2070.72 208.059 Q2075.19 208.059 2077.48 210.837 Q2079.77 213.591 2079.77 218.961 Z" fill="#000000" fill-rule="evenodd" fill-opacity="1" /><path clip-path="url(#clip350)" d="M 0 0 M2114.33 212.665 Q2113.62 212.249 2112.76 212.063 Q2111.93 211.855 2110.91 211.855 Q2107.3 211.855 2105.35 214.216 Q2103.43 216.554 2103.43 220.952 L2103.43 234.61 L2099.15 234.61 L2099.15 208.684 L2103.43 208.684 L2103.43 212.712 Q2104.77 210.35 2106.93 209.216 Q2109.08 208.059 2112.16 208.059 Q2112.6 208.059 2113.13 208.128 Q2113.66 208.175 2114.31 208.29 L2114.33 212.665 Z" fill="#000000" fill-rule="evenodd" fill-opacity="1" /><path clip-path="url(#clip350)" d="M 0 0 M2139.94 220.582 L2139.94 222.665 L2120.35 222.665 Q2120.63 227.063 2122.99 229.378 Q2125.38 231.67 2129.61 231.67 Q2132.07 231.67 2134.36 231.068 Q2136.67 230.466 2138.94 229.262 L2138.94 233.29 Q2136.65 234.262 2134.24 234.772 Q2131.83 235.281 2129.36 235.281 Q2123.15 235.281 2119.52 231.67 Q2115.91 228.059 2115.91 221.901 Q2115.91 215.536 2119.33 211.809 Q2122.78 208.059 2128.62 208.059 Q2133.85 208.059 2136.88 211.438 Q2139.94 214.795 2139.94 220.582 M2135.68 219.332 Q2135.63 215.837 2133.71 213.753 Q2131.81 211.67 2128.66 211.67 Q2125.1 211.67 2122.95 213.684 Q2120.82 215.698 2120.49 219.355 L2135.68 219.332 Z" fill="#000000" fill-rule="evenodd" fill-opacity="1" /><path clip-path="url(#clip350)" d="M 0 0 M2161.46 221.346 Q2161.46 216.716 2159.54 214.17 Q2157.64 211.624 2154.2 211.624 Q2150.77 211.624 2148.85 214.17 Q2146.95 216.716 2146.95 221.346 Q2146.95 225.952 2148.85 228.498 Q2150.77 231.045 2154.2 231.045 Q2157.64 231.045 2159.54 228.498 Q2161.46 225.952 2161.46 221.346 M2165.72 231.392 Q2165.72 238.012 2162.78 241.23 Q2159.84 244.471 2153.78 244.471 Q2151.53 244.471 2149.54 244.123 Q2147.55 243.799 2145.68 243.105 L2145.68 238.961 Q2147.55 239.98 2149.38 240.466 Q2151.21 240.952 2153.11 240.952 Q2157.3 240.952 2159.38 238.753 Q2161.46 236.577 2161.46 232.156 L2161.46 230.049 Q2160.14 232.341 2158.08 233.475 Q2156.02 234.61 2153.15 234.61 Q2148.39 234.61 2145.47 230.975 Q2142.55 227.341 2142.55 221.346 Q2142.55 215.327 2145.47 211.693 Q2148.39 208.059 2153.15 208.059 Q2156.02 208.059 2158.08 209.193 Q2160.14 210.327 2161.46 212.619 L2161.46 208.684 L2165.72 208.684 L2165.72 231.392 Z" fill="#000000" fill-rule="evenodd" fill-opacity="1" /><path clip-path="url(#clip350)" d="M 0 0 M2170.19 208.684 L2174.45 208.684 L2174.45 234.61 L2170.19 234.61 L2170.19 208.684 M2170.19 198.591 L2174.45 198.591 L2174.45 203.985 L2170.19 203.985 L2170.19 198.591 Z" fill="#000000" fill-rule="evenodd" fill-opacity="1" /><path clip-path="url(#clip350)" d="M 0 0 M2188.96 211.67 Q2185.54 211.67 2183.55 214.355 Q2181.56 217.017 2181.56 221.67 Q2181.56 226.323 2183.52 229.008 Q2185.51 231.67 2188.96 231.67 Q2192.37 231.67 2194.36 228.985 Q2196.35 226.299 2196.35 221.67 Q2196.35 217.063 2194.36 214.378 Q2192.37 211.67 2188.96 211.67 M2188.96 208.059 Q2194.52 208.059 2197.69 211.67 Q2200.86 215.281 2200.86 221.67 Q2200.86 228.036 2197.69 231.67 Q2194.52 235.281 2188.96 235.281 Q2183.39 235.281 2180.21 231.67 Q2177.07 228.036 2177.07 221.67 Q2177.07 215.281 2180.21 211.67 Q2183.39 208.059 2188.96 208.059 Z" fill="#000000" fill-rule="evenodd" fill-opacity="1" /><path clip-path="url(#clip350)" d="M 0 0 M2226.88 218.961 L2226.88 234.61 L2222.62 234.61 L2222.62 219.1 Q2222.62 215.42 2221.19 213.591 Q2219.75 211.762 2216.88 211.762 Q2213.43 211.762 2211.44 213.962 Q2209.45 216.161 2209.45 219.957 L2209.45 234.61 L2205.17 234.61 L2205.17 208.684 L2209.45 208.684 L2209.45 212.712 Q2210.98 210.374 2213.04 209.216 Q2215.12 208.059 2217.83 208.059 Q2222.3 208.059 2224.59 210.837 Q2226.88 213.591 2226.88 218.961 Z" fill="#000000" fill-rule="evenodd" fill-opacity="1" /><path clip-path="url(#clip350)" d="
M1519.75 302.002 L1670.81 302.002 L1670.81 253.618 L1519.75 253.618 L1519.75 302.002  Z
  " fill="#ffa500" fill-rule="evenodd" fill-opacity="0.5"/>
<polyline clip-path="url(#clip350)" style="stroke:#ffa500; stroke-width:4; stroke-opacity:1; fill:none" points="
  1519.75,253.618 1670.81,253.618 
  "/>
<path clip-path="url(#clip350)" d="M 0 0 M1700.38 282.15 Q1700.38 286.849 1702.3 289.534 Q1704.24 292.196 1707.62 292.196 Q1711 292.196 1712.95 289.534 Q1714.89 286.849 1714.89 282.15 Q1714.89 277.451 1712.95 274.789 Q1711 272.104 1707.62 272.104 Q1704.24 272.104 1702.3 274.789 Q1700.38 277.451 1700.38 282.15 M1714.89 291.201 Q1713.55 293.515 1711.49 294.65 Q1709.45 295.761 1706.58 295.761 Q1701.88 295.761 1698.92 292.011 Q1695.98 288.261 1695.98 282.15 Q1695.98 276.039 1698.92 272.289 Q1701.88 268.539 1706.58 268.539 Q1709.45 268.539 1711.49 269.673 Q1713.55 270.784 1714.89 273.099 L1714.89 269.164 L1719.15 269.164 L1719.15 304.951 L1714.89 304.951 L1714.89 291.201 Z" fill="#000000" fill-rule="evenodd" fill-opacity="1" /><path clip-path="url(#clip350)" d="M 0 0 M1724.36 294.372 L1724.36 290.113 Q1726.12 290.946 1727.92 291.386 Q1729.73 291.826 1731.47 291.826 Q1736.1 291.826 1738.53 288.724 Q1740.98 285.599 1741.33 279.256 Q1739.98 281.247 1737.92 282.312 Q1735.86 283.377 1733.36 283.377 Q1728.18 283.377 1725.15 280.252 Q1722.14 277.104 1722.14 271.664 Q1722.14 266.34 1725.29 263.122 Q1728.43 259.905 1733.67 259.905 Q1739.66 259.905 1742.81 264.511 Q1745.98 269.094 1745.98 277.844 Q1745.98 286.016 1742.09 290.9 Q1738.23 295.761 1731.67 295.761 Q1729.92 295.761 1728.11 295.414 Q1726.3 295.066 1724.36 294.372 M1733.67 279.719 Q1736.81 279.719 1738.64 277.566 Q1740.49 275.414 1740.49 271.664 Q1740.49 267.937 1738.64 265.784 Q1736.81 263.608 1733.67 263.608 Q1730.52 263.608 1728.67 265.784 Q1726.84 267.937 1726.84 271.664 Q1726.84 275.414 1728.67 277.566 Q1730.52 279.719 1733.67 279.719 Z" fill="#000000" fill-rule="evenodd" fill-opacity="1" /><path clip-path="url(#clip350)" d="M 0 0 M1751.1 260.53 L1769.45 260.53 L1769.45 264.465 L1755.38 264.465 L1755.38 272.937 Q1756.4 272.59 1757.42 272.428 Q1758.43 272.242 1759.45 272.242 Q1765.24 272.242 1768.62 275.414 Q1772 278.585 1772 284.002 Q1772 289.58 1768.53 292.682 Q1765.05 295.761 1758.73 295.761 Q1756.56 295.761 1754.29 295.39 Q1752.04 295.02 1749.64 294.279 L1749.64 289.58 Q1751.72 290.715 1753.94 291.27 Q1756.17 291.826 1758.64 291.826 Q1762.65 291.826 1764.98 289.719 Q1767.32 287.613 1767.32 284.002 Q1767.32 280.391 1764.98 278.284 Q1762.65 276.178 1758.64 276.178 Q1756.77 276.178 1754.89 276.594 Q1753.04 277.011 1751.1 277.891 L1751.1 260.53 Z" fill="#000000" fill-rule="evenodd" fill-opacity="1" /><polyline clip-path="url(#clip350)" style="stroke:#0000ff; stroke-width:4; stroke-opacity:1; fill:none" points="
  1519.75,338.29 1670.81,338.29 
  "/>
<path clip-path="url(#clip350)" d="M 0 0 M1716.33 334.621 Q1717.92 331.75 1720.15 330.385 Q1722.37 329.019 1725.38 329.019 Q1729.43 329.019 1731.63 331.866 Q1733.83 334.69 1733.83 339.921 L1733.83 355.57 L1729.54 355.57 L1729.54 340.06 Q1729.54 336.334 1728.23 334.528 Q1726.91 332.722 1724.2 332.722 Q1720.89 332.722 1718.97 334.922 Q1717.04 337.121 1717.04 340.917 L1717.04 355.57 L1712.76 355.57 L1712.76 340.06 Q1712.76 336.31 1711.44 334.528 Q1710.12 332.722 1707.37 332.722 Q1704.11 332.722 1702.18 334.945 Q1700.26 337.144 1700.26 340.917 L1700.26 355.57 L1695.98 355.57 L1695.98 329.644 L1700.26 329.644 L1700.26 333.672 Q1701.72 331.287 1703.76 330.153 Q1705.79 329.019 1708.6 329.019 Q1711.42 329.019 1713.39 330.454 Q1715.38 331.889 1716.33 334.621 Z" fill="#000000" fill-rule="evenodd" fill-opacity="1" /><path clip-path="url(#clip350)" d="M 0 0 M1760.47 341.542 L1760.47 343.625 L1740.89 343.625 Q1741.17 348.023 1743.53 350.338 Q1745.91 352.63 1750.15 352.63 Q1752.6 352.63 1754.89 352.028 Q1757.21 351.426 1759.48 350.222 L1759.48 354.25 Q1757.18 355.222 1754.78 355.732 Q1752.37 356.241 1749.89 356.241 Q1743.69 356.241 1740.05 352.63 Q1736.44 349.019 1736.44 342.861 Q1736.44 336.496 1739.87 332.769 Q1743.32 329.019 1749.15 329.019 Q1754.38 329.019 1757.42 332.398 Q1760.47 335.755 1760.47 341.542 M1756.21 340.292 Q1756.17 336.797 1754.24 334.713 Q1752.35 332.63 1749.2 332.63 Q1745.63 332.63 1743.48 334.644 Q1741.35 336.658 1741.03 340.315 L1756.21 340.292 Z" fill="#000000" fill-rule="evenodd" fill-opacity="1" /><path clip-path="url(#clip350)" d="M 0 0 M1776.72 342.537 Q1771.56 342.537 1769.57 343.718 Q1767.58 344.898 1767.58 347.746 Q1767.58 350.014 1769.06 351.357 Q1770.56 352.676 1773.13 352.676 Q1776.67 352.676 1778.8 350.176 Q1780.96 347.653 1780.96 343.486 L1780.96 342.537 L1776.72 342.537 M1785.22 340.778 L1785.22 355.57 L1780.96 355.57 L1780.96 351.634 Q1779.5 353.995 1777.32 355.13 Q1775.15 356.241 1772 356.241 Q1768.02 356.241 1765.66 354.019 Q1763.32 351.773 1763.32 348.023 Q1763.32 343.648 1766.23 341.426 Q1769.17 339.204 1774.98 339.204 L1780.96 339.204 L1780.96 338.787 Q1780.96 335.847 1779.01 334.25 Q1777.09 332.63 1773.6 332.63 Q1771.37 332.63 1769.27 333.162 Q1767.16 333.695 1765.22 334.759 L1765.22 330.824 Q1767.55 329.922 1769.75 329.482 Q1771.95 329.019 1774.04 329.019 Q1779.66 329.019 1782.44 331.935 Q1785.22 334.852 1785.22 340.778 Z" fill="#000000" fill-rule="evenodd" fill-opacity="1" /><path clip-path="url(#clip350)" d="M 0 0 M1811.23 339.921 L1811.23 355.57 L1806.97 355.57 L1806.97 340.06 Q1806.97 336.38 1805.54 334.551 Q1804.1 332.722 1801.23 332.722 Q1797.79 332.722 1795.79 334.922 Q1793.8 337.121 1793.8 340.917 L1793.8 355.57 L1789.52 355.57 L1789.52 329.644 L1793.8 329.644 L1793.8 333.672 Q1795.33 331.334 1797.39 330.176 Q1799.48 329.019 1802.18 329.019 Q1806.65 329.019 1808.94 331.797 Q1811.23 334.551 1811.23 339.921 Z" fill="#000000" fill-rule="evenodd" fill-opacity="1" /><polyline clip-path="url(#clip350)" style="stroke:#000000; stroke-width:4; stroke-opacity:1; fill:none" points="
  1519.75,398.77 1670.81,398.77 
  "/>
<path clip-path="url(#clip350)" d="M 0 0 M1716.33 395.101 Q1717.92 392.23 1720.15 390.865 Q1722.37 389.499 1725.38 389.499 Q1729.43 389.499 1731.63 392.346 Q1733.83 395.17 1733.83 400.401 L1733.83 416.05 L1729.54 416.05 L1729.54 400.54 Q1729.54 396.814 1728.23 395.008 Q1726.91 393.202 1724.2 393.202 Q1720.89 393.202 1718.97 395.402 Q1717.04 397.601 1717.04 401.397 L1717.04 416.05 L1712.76 416.05 L1712.76 400.54 Q1712.76 396.79 1711.44 395.008 Q1710.12 393.202 1707.37 393.202 Q1704.11 393.202 1702.18 395.425 Q1700.26 397.624 1700.26 401.397 L1700.26 416.05 L1695.98 416.05 L1695.98 390.124 L1700.26 390.124 L1700.26 394.152 Q1701.72 391.767 1703.76 390.633 Q1705.79 389.499 1708.6 389.499 Q1711.42 389.499 1713.39 390.934 Q1715.38 392.369 1716.33 395.101 Z" fill="#000000" fill-rule="evenodd" fill-opacity="1" /><path clip-path="url(#clip350)" d="M 0 0 M1760.47 402.022 L1760.47 404.105 L1740.89 404.105 Q1741.17 408.503 1743.53 410.818 Q1745.91 413.11 1750.15 413.11 Q1752.6 413.11 1754.89 412.508 Q1757.21 411.906 1759.48 410.702 L1759.48 414.73 Q1757.18 415.702 1754.78 416.212 Q1752.37 416.721 1749.89 416.721 Q1743.69 416.721 1740.05 413.11 Q1736.44 409.499 1736.44 403.341 Q1736.44 396.976 1739.87 393.249 Q1743.32 389.499 1749.15 389.499 Q1754.38 389.499 1757.42 392.878 Q1760.47 396.235 1760.47 402.022 M1756.21 400.772 Q1756.17 397.277 1754.24 395.193 Q1752.35 393.11 1749.2 393.11 Q1745.63 393.11 1743.48 395.124 Q1741.35 397.138 1741.03 400.795 L1756.21 400.772 Z" fill="#000000" fill-rule="evenodd" fill-opacity="1" /><path clip-path="url(#clip350)" d="M 0 0 M1782 394.059 L1782 380.031 L1786.26 380.031 L1786.26 416.05 L1782 416.05 L1782 412.161 Q1780.66 414.475 1778.6 415.61 Q1776.56 416.721 1773.69 416.721 Q1768.99 416.721 1766.03 412.971 Q1763.09 409.221 1763.09 403.11 Q1763.09 396.999 1766.03 393.249 Q1768.99 389.499 1773.69 389.499 Q1776.56 389.499 1778.6 390.633 Q1780.66 391.744 1782 394.059 M1767.48 403.11 Q1767.48 407.809 1769.41 410.494 Q1771.35 413.156 1774.73 413.156 Q1778.11 413.156 1780.05 410.494 Q1782 407.809 1782 403.11 Q1782 398.411 1780.05 395.749 Q1778.11 393.064 1774.73 393.064 Q1771.35 393.064 1769.41 395.749 Q1767.48 398.411 1767.48 403.11 Z" fill="#000000" fill-rule="evenodd" fill-opacity="1" /><path clip-path="url(#clip350)" d="M 0 0 M1790.73 390.124 L1794.98 390.124 L1794.98 416.05 L1790.73 416.05 L1790.73 390.124 M1790.73 380.031 L1794.98 380.031 L1794.98 385.425 L1790.73 385.425 L1790.73 380.031 Z" fill="#000000" fill-rule="evenodd" fill-opacity="1" /><path clip-path="url(#clip350)" d="M 0 0 M1811.23 403.017 Q1806.07 403.017 1804.08 404.198 Q1802.09 405.378 1802.09 408.226 Q1802.09 410.494 1803.57 411.837 Q1805.08 413.156 1807.65 413.156 Q1811.19 413.156 1813.32 410.656 Q1815.47 408.133 1815.47 403.966 L1815.47 403.017 L1811.23 403.017 M1819.73 401.258 L1819.73 416.05 L1815.47 416.05 L1815.47 412.114 Q1814.01 414.475 1811.84 415.61 Q1809.66 416.721 1806.51 416.721 Q1802.53 416.721 1800.17 414.499 Q1797.83 412.253 1797.83 408.503 Q1797.83 404.128 1800.75 401.906 Q1803.69 399.684 1809.5 399.684 L1815.47 399.684 L1815.47 399.267 Q1815.47 396.327 1813.53 394.73 Q1811.6 393.11 1808.11 393.11 Q1805.89 393.11 1803.78 393.642 Q1801.67 394.175 1799.73 395.239 L1799.73 391.304 Q1802.07 390.402 1804.27 389.962 Q1806.47 389.499 1808.55 389.499 Q1814.17 389.499 1816.95 392.415 Q1819.73 395.332 1819.73 401.258 Z" fill="#000000" fill-rule="evenodd" fill-opacity="1" /><path clip-path="url(#clip350)" d="M 0 0 M1845.75 400.401 L1845.75 416.05 L1841.49 416.05 L1841.49 400.54 Q1841.49 396.86 1840.05 395.031 Q1838.62 393.202 1835.75 393.202 Q1832.3 393.202 1830.31 395.402 Q1828.32 397.601 1828.32 401.397 L1828.32 416.05 L1824.04 416.05 L1824.04 390.124 L1828.32 390.124 L1828.32 394.152 Q1829.85 391.814 1831.91 390.656 Q1833.99 389.499 1836.7 389.499 Q1841.16 389.499 1843.46 392.277 Q1845.75 395.031 1845.75 400.401 Z" fill="#000000" fill-rule="evenodd" fill-opacity="1" /></svg>
