<?xml version="1.0" encoding="utf-8"?>
<svg xmlns="http://www.w3.org/2000/svg" xmlns:xlink="http://www.w3.org/1999/xlink" width="600" height="400" viewBox="0 0 2400 1600">
<defs>
  <clipPath id="clip170">
    <rect x="0" y="0" width="2400" height="1600"/>
  </clipPath>
</defs>
<path clip-path="url(#clip170)" d="
M0 1600 L2400 1600 L2400 0 L0 0  Z
  " fill="#ffffff" fill-rule="evenodd" fill-opacity="1"/>
<defs>
  <clipPath id="clip171">
    <rect x="480" y="0" width="1681" height="1600"/>
  </clipPath>
</defs>
<path clip-path="url(#clip170)" d="
M86.9921 1521.01 L2352.76 1521.01 L2352.76 47.2441 L86.9921 47.2441  Z
  " fill="#ffffff" fill-rule="evenodd" fill-opacity="1"/>
<defs>
  <clipPath id="clip172">
    <rect x="86" y="47" width="2267" height="1475"/>
  </clipPath>
</defs>
<polyline clip-path="url(#clip172)" style="stroke:#000000; stroke-width:2; stroke-opacity:0.1; fill:none" points="
  148.993,1521.01 148.993,47.2441 
  "/>
<polyline clip-path="url(#clip172)" style="stroke:#000000; stroke-width:2; stroke-opacity:0.1; fill:none" points="
  668.151,1521.01 668.151,47.2441 
  "/>
<polyline clip-path="url(#clip172)" style="stroke:#000000; stroke-width:2; stroke-opacity:0.1; fill:none" points="
  1187.31,1521.01 1187.31,47.2441 
  "/>
<polyline clip-path="url(#clip172)" style="stroke:#000000; stroke-width:2; stroke-opacity:0.1; fill:none" points="
  1706.47,1521.01 1706.47,47.2441 
  "/>
<polyline clip-path="url(#clip172)" style="stroke:#000000; stroke-width:2; stroke-opacity:0.1; fill:none" points="
  2225.62,1521.01 2225.62,47.2441 
  "/>
<polyline clip-path="url(#clip172)" style="stroke:#000000; stroke-width:2; stroke-opacity:0.1; fill:none" points="
  86.9921,1479.3 2352.76,1479.3 
  "/>
<polyline clip-path="url(#clip172)" style="stroke:#000000; stroke-width:2; stroke-opacity:0.1; fill:none" points="
  86.9921,1220.6 2352.76,1220.6 
  "/>
<polyline clip-path="url(#clip172)" style="stroke:#000000; stroke-width:2; stroke-opacity:0.1; fill:none" points="
  86.9921,961.905 2352.76,961.905 
  "/>
<polyline clip-path="url(#clip172)" style="stroke:#000000; stroke-width:2; stroke-opacity:0.1; fill:none" points="
  86.9921,703.209 2352.76,703.209 
  "/>
<polyline clip-path="url(#clip172)" style="stroke:#000000; stroke-width:2; stroke-opacity:0.1; fill:none" points="
  86.9921,444.513 2352.76,444.513 
  "/>
<polyline clip-path="url(#clip172)" style="stroke:#000000; stroke-width:2; stroke-opacity:0.1; fill:none" points="
  86.9921,185.816 2352.76,185.816 
  "/>
<polyline clip-path="url(#clip170)" style="stroke:#000000; stroke-width:4; stroke-opacity:1; fill:none" points="
  86.9921,1521.01 2352.76,1521.01 
  "/>
<polyline clip-path="url(#clip170)" style="stroke:#000000; stroke-width:4; stroke-opacity:1; fill:none" points="
  86.9921,1521.01 86.9921,47.2441 
  "/>
<polyline clip-path="url(#clip170)" style="stroke:#000000; stroke-width:4; stroke-opacity:1; fill:none" points="
  148.993,1521.01 148.993,1503.32 
  "/>
<polyline clip-path="url(#clip170)" style="stroke:#000000; stroke-width:4; stroke-opacity:1; fill:none" points="
  668.151,1521.01 668.151,1503.32 
  "/>
<polyline clip-path="url(#clip170)" style="stroke:#000000; stroke-width:4; stroke-opacity:1; fill:none" points="
  1187.31,1521.01 1187.31,1503.32 
  "/>
<polyline clip-path="url(#clip170)" style="stroke:#000000; stroke-width:4; stroke-opacity:1; fill:none" points="
  1706.47,1521.01 1706.47,1503.32 
  "/>
<polyline clip-path="url(#clip170)" style="stroke:#000000; stroke-width:4; stroke-opacity:1; fill:none" points="
  2225.62,1521.01 2225.62,1503.32 
  "/>
<polyline clip-path="url(#clip170)" style="stroke:#000000; stroke-width:4; stroke-opacity:1; fill:none" points="
  86.9921,1479.3 114.181,1479.3 
  "/>
<polyline clip-path="url(#clip170)" style="stroke:#000000; stroke-width:4; stroke-opacity:1; fill:none" points="
  86.9921,1220.6 114.181,1220.6 
  "/>
<polyline clip-path="url(#clip170)" style="stroke:#000000; stroke-width:4; stroke-opacity:1; fill:none" points="
  86.9921,961.905 114.181,961.905 
  "/>
<polyline clip-path="url(#clip170)" style="stroke:#000000; stroke-width:4; stroke-opacity:1; fill:none" points="
  86.9921,703.209 114.181,703.209 
  "/>
<polyline clip-path="url(#clip170)" style="stroke:#000000; stroke-width:4; stroke-opacity:1; fill:none" points="
  86.9921,444.513 114.181,444.513 
  "/>
<polyline clip-path="url(#clip170)" style="stroke:#000000; stroke-width:4; stroke-opacity:1; fill:none" points="
  86.9921,185.816 114.181,185.816 
  "/>
<path clip-path="url(#clip170)" d="M 0 0 M97.8711 1559.6 L110.348 1559.6 L110.348 1563.39 L97.8711 1563.39 L97.8711 1559.6 Z" fill="#000000" fill-rule="evenodd" fill-opacity="1" /><path clip-path="url(#clip170)" d="M 0 0 M125.417 1543 Q121.806 1543 119.977 1546.56 Q118.172 1550.11 118.172 1557.23 Q118.172 1564.34 119.977 1567.91 Q121.806 1571.45 125.417 1571.45 Q129.051 1571.45 130.857 1567.91 Q132.686 1564.34 132.686 1557.23 Q132.686 1550.11 130.857 1546.56 Q129.051 1543 125.417 1543 M125.417 1539.29 Q131.227 1539.29 134.283 1543.9 Q137.362 1548.48 137.362 1557.23 Q137.362 1565.96 134.283 1570.57 Q131.227 1575.15 125.417 1575.15 Q119.607 1575.15 116.528 1570.57 Q113.473 1565.96 113.473 1557.23 Q113.473 1548.48 116.528 1543.9 Q119.607 1539.29 125.417 1539.29 Z" fill="#000000" fill-rule="evenodd" fill-opacity="1" /><path clip-path="url(#clip170)" d="M 0 0 M142.431 1568.6 L147.315 1568.6 L147.315 1574.48 L142.431 1574.48 L142.431 1568.6 Z" fill="#000000" fill-rule="evenodd" fill-opacity="1" /><path clip-path="url(#clip170)" d="M 0 0 M153.195 1570.54 L160.834 1570.54 L160.834 1544.18 L152.524 1545.85 L152.524 1541.59 L160.787 1539.92 L165.463 1539.92 L165.463 1570.54 L173.102 1570.54 L173.102 1574.48 L153.195 1574.48 L153.195 1570.54 Z" fill="#000000" fill-rule="evenodd" fill-opacity="1" /><path clip-path="url(#clip170)" d="M 0 0 M188.172 1543 Q184.56 1543 182.732 1546.56 Q180.926 1550.11 180.926 1557.23 Q180.926 1564.34 182.732 1567.91 Q184.56 1571.45 188.172 1571.45 Q191.806 1571.45 193.611 1567.91 Q195.44 1564.34 195.44 1557.23 Q195.44 1550.11 193.611 1546.56 Q191.806 1543 188.172 1543 M188.172 1539.29 Q193.982 1539.29 197.037 1543.9 Q200.116 1548.48 200.116 1557.23 Q200.116 1565.96 197.037 1570.57 Q193.982 1575.15 188.172 1575.15 Q182.361 1575.15 179.283 1570.57 Q176.227 1565.96 176.227 1557.23 Q176.227 1548.48 179.283 1543.9 Q182.361 1539.29 188.172 1539.29 Z" fill="#000000" fill-rule="evenodd" fill-opacity="1" /><path clip-path="url(#clip170)" d="M 0 0 M616.462 1559.6 L628.938 1559.6 L628.938 1563.39 L616.462 1563.39 L616.462 1559.6 Z" fill="#000000" fill-rule="evenodd" fill-opacity="1" /><path clip-path="url(#clip170)" d="M 0 0 M644.008 1543 Q640.397 1543 638.568 1546.56 Q636.762 1550.11 636.762 1557.23 Q636.762 1564.34 638.568 1567.91 Q640.397 1571.45 644.008 1571.45 Q647.642 1571.45 649.447 1567.91 Q651.276 1564.34 651.276 1557.23 Q651.276 1550.11 649.447 1546.56 Q647.642 1543 644.008 1543 M644.008 1539.29 Q649.818 1539.29 652.873 1543.9 Q655.952 1548.48 655.952 1557.23 Q655.952 1565.96 652.873 1570.57 Q649.818 1575.15 644.008 1575.15 Q638.198 1575.15 635.119 1570.57 Q632.063 1565.96 632.063 1557.23 Q632.063 1548.48 635.119 1543.9 Q638.198 1539.29 644.008 1539.29 Z" fill="#000000" fill-rule="evenodd" fill-opacity="1" /><path clip-path="url(#clip170)" d="M 0 0 M661.022 1568.6 L665.906 1568.6 L665.906 1574.48 L661.022 1574.48 L661.022 1568.6 Z" fill="#000000" fill-rule="evenodd" fill-opacity="1" /><path clip-path="url(#clip170)" d="M 0 0 M680.975 1543 Q677.364 1543 675.535 1546.56 Q673.73 1550.11 673.73 1557.23 Q673.73 1564.34 675.535 1567.91 Q677.364 1571.45 680.975 1571.45 Q684.609 1571.45 686.415 1567.91 Q688.244 1564.34 688.244 1557.23 Q688.244 1550.11 686.415 1546.56 Q684.609 1543 680.975 1543 M680.975 1539.29 Q686.785 1539.29 689.841 1543.9 Q692.919 1548.48 692.919 1557.23 Q692.919 1565.96 689.841 1570.57 Q686.785 1575.15 680.975 1575.15 Q675.165 1575.15 672.086 1570.57 Q669.031 1565.96 669.031 1557.23 Q669.031 1548.48 672.086 1543.9 Q675.165 1539.29 680.975 1539.29 Z" fill="#000000" fill-rule="evenodd" fill-opacity="1" /><path clip-path="url(#clip170)" d="M 0 0 M707.989 1558.07 Q704.656 1558.07 702.734 1559.85 Q700.836 1561.63 700.836 1564.76 Q700.836 1567.88 702.734 1569.67 Q704.656 1571.45 707.989 1571.45 Q711.322 1571.45 713.243 1569.67 Q715.165 1567.86 715.165 1564.76 Q715.165 1561.63 713.243 1559.85 Q711.345 1558.07 707.989 1558.07 M703.313 1556.08 Q700.304 1555.34 698.614 1553.28 Q696.947 1551.22 696.947 1548.25 Q696.947 1544.11 699.887 1541.7 Q702.85 1539.29 707.989 1539.29 Q713.151 1539.29 716.091 1541.7 Q719.03 1544.11 719.03 1548.25 Q719.03 1551.22 717.341 1553.28 Q715.674 1555.34 712.688 1556.08 Q716.068 1556.86 717.942 1559.16 Q719.841 1561.45 719.841 1564.76 Q719.841 1569.78 716.762 1572.47 Q713.706 1575.15 707.989 1575.15 Q702.271 1575.15 699.193 1572.47 Q696.137 1569.78 696.137 1564.76 Q696.137 1561.45 698.035 1559.16 Q699.933 1556.86 703.313 1556.08 M701.6 1548.69 Q701.6 1551.38 703.267 1552.88 Q704.956 1554.39 707.989 1554.39 Q710.998 1554.39 712.688 1552.88 Q714.401 1551.38 714.401 1548.69 Q714.401 1546.01 712.688 1544.5 Q710.998 1543 707.989 1543 Q704.956 1543 703.267 1544.5 Q701.6 1546.01 701.6 1548.69 Z" fill="#000000" fill-rule="evenodd" fill-opacity="1" /><path clip-path="url(#clip170)" d="M 0 0 M1135.49 1559.6 L1147.97 1559.6 L1147.97 1563.39 L1135.49 1563.39 L1135.49 1559.6 Z" fill="#000000" fill-rule="evenodd" fill-opacity="1" /><path clip-path="url(#clip170)" d="M 0 0 M1163.04 1543 Q1159.43 1543 1157.6 1546.56 Q1155.79 1550.11 1155.79 1557.23 Q1155.79 1564.34 1157.6 1567.91 Q1159.43 1571.45 1163.04 1571.45 Q1166.67 1571.45 1168.48 1567.91 Q1170.31 1564.34 1170.31 1557.23 Q1170.31 1550.11 1168.48 1546.56 Q1166.67 1543 1163.04 1543 M1163.04 1539.29 Q1168.85 1539.29 1171.9 1543.9 Q1174.98 1548.48 1174.98 1557.23 Q1174.98 1565.96 1171.9 1570.57 Q1168.85 1575.15 1163.04 1575.15 Q1157.23 1575.15 1154.15 1570.57 Q1151.09 1565.96 1151.09 1557.23 Q1151.09 1548.48 1154.15 1543.9 Q1157.23 1539.29 1163.04 1539.29 Z" fill="#000000" fill-rule="evenodd" fill-opacity="1" /><path clip-path="url(#clip170)" d="M 0 0 M1180.05 1568.6 L1184.94 1568.6 L1184.94 1574.48 L1180.05 1574.48 L1180.05 1568.6 Z" fill="#000000" fill-rule="evenodd" fill-opacity="1" /><path clip-path="url(#clip170)" d="M 0 0 M1200.01 1543 Q1196.39 1543 1194.57 1546.56 Q1192.76 1550.11 1192.76 1557.23 Q1192.76 1564.34 1194.57 1567.91 Q1196.39 1571.45 1200.01 1571.45 Q1203.64 1571.45 1205.45 1567.91 Q1207.27 1564.34 1207.27 1557.23 Q1207.27 1550.11 1205.45 1546.56 Q1203.64 1543 1200.01 1543 M1200.01 1539.29 Q1205.82 1539.29 1208.87 1543.9 Q1211.95 1548.48 1211.95 1557.23 Q1211.95 1565.96 1208.87 1570.57 Q1205.82 1575.15 1200.01 1575.15 Q1194.2 1575.15 1191.12 1570.57 Q1188.06 1565.96 1188.06 1557.23 Q1188.06 1548.48 1191.12 1543.9 Q1194.2 1539.29 1200.01 1539.29 Z" fill="#000000" fill-rule="evenodd" fill-opacity="1" /><path clip-path="url(#clip170)" d="M 0 0 M1227.6 1555.34 Q1224.45 1555.34 1222.6 1557.49 Q1220.77 1559.64 1220.77 1563.39 Q1220.77 1567.12 1222.6 1569.29 Q1224.45 1571.45 1227.6 1571.45 Q1230.75 1571.45 1232.57 1569.29 Q1234.43 1567.12 1234.43 1563.39 Q1234.43 1559.64 1232.57 1557.49 Q1230.75 1555.34 1227.6 1555.34 M1236.88 1540.68 L1236.88 1544.94 Q1235.12 1544.11 1233.32 1543.67 Q1231.53 1543.23 1229.77 1543.23 Q1225.14 1543.23 1222.69 1546.36 Q1220.26 1549.48 1219.91 1555.8 Q1221.28 1553.79 1223.34 1552.72 Q1225.4 1551.63 1227.88 1551.63 Q1233.08 1551.63 1236.09 1554.8 Q1239.13 1557.95 1239.13 1563.39 Q1239.13 1568.72 1235.98 1571.93 Q1232.83 1575.15 1227.6 1575.15 Q1221.6 1575.15 1218.43 1570.57 Q1215.26 1565.96 1215.26 1557.23 Q1215.26 1549.04 1219.15 1544.18 Q1223.04 1539.29 1229.59 1539.29 Q1231.35 1539.29 1233.13 1539.64 Q1234.94 1539.99 1236.88 1540.68 Z" fill="#000000" fill-rule="evenodd" fill-opacity="1" /><path clip-path="url(#clip170)" d="M 0 0 M1654.49 1559.6 L1666.96 1559.6 L1666.96 1563.39 L1654.49 1563.39 L1654.49 1559.6 Z" fill="#000000" fill-rule="evenodd" fill-opacity="1" /><path clip-path="url(#clip170)" d="M 0 0 M1682.03 1543 Q1678.42 1543 1676.59 1546.56 Q1674.79 1550.11 1674.79 1557.23 Q1674.79 1564.34 1676.59 1567.91 Q1678.42 1571.45 1682.03 1571.45 Q1685.67 1571.45 1687.47 1567.91 Q1689.3 1564.34 1689.3 1557.23 Q1689.3 1550.11 1687.47 1546.56 Q1685.67 1543 1682.03 1543 M1682.03 1539.29 Q1687.84 1539.29 1690.9 1543.9 Q1693.98 1548.48 1693.98 1557.23 Q1693.98 1565.96 1690.9 1570.57 Q1687.84 1575.15 1682.03 1575.15 Q1676.22 1575.15 1673.14 1570.57 Q1670.09 1565.96 1670.09 1557.23 Q1670.09 1548.48 1673.14 1543.9 Q1676.22 1539.29 1682.03 1539.29 Z" fill="#000000" fill-rule="evenodd" fill-opacity="1" /><path clip-path="url(#clip170)" d="M 0 0 M1699.05 1568.6 L1703.93 1568.6 L1703.93 1574.48 L1699.05 1574.48 L1699.05 1568.6 Z" fill="#000000" fill-rule="evenodd" fill-opacity="1" /><path clip-path="url(#clip170)" d="M 0 0 M1719 1543 Q1715.39 1543 1713.56 1546.56 Q1711.76 1550.11 1711.76 1557.23 Q1711.76 1564.34 1713.56 1567.91 Q1715.39 1571.45 1719 1571.45 Q1722.64 1571.45 1724.44 1567.91 Q1726.27 1564.34 1726.27 1557.23 Q1726.27 1550.11 1724.44 1546.56 Q1722.64 1543 1719 1543 M1719 1539.29 Q1724.81 1539.29 1727.87 1543.9 Q1730.95 1548.48 1730.95 1557.23 Q1730.95 1565.96 1727.87 1570.57 Q1724.81 1575.15 1719 1575.15 Q1713.19 1575.15 1710.11 1570.57 Q1707.06 1565.96 1707.06 1557.23 Q1707.06 1548.48 1710.11 1543.9 Q1713.19 1539.29 1719 1539.29 Z" fill="#000000" fill-rule="evenodd" fill-opacity="1" /><path clip-path="url(#clip170)" d="M 0 0 M1748.86 1543.99 L1737.06 1562.44 L1748.86 1562.44 L1748.86 1543.99 M1747.64 1539.92 L1753.51 1539.92 L1753.51 1562.44 L1758.45 1562.44 L1758.45 1566.33 L1753.51 1566.33 L1753.51 1574.48 L1748.86 1574.48 L1748.86 1566.33 L1733.26 1566.33 L1733.26 1561.82 L1747.64 1539.92 Z" fill="#000000" fill-rule="evenodd" fill-opacity="1" /><path clip-path="url(#clip170)" d="M 0 0 M2174.69 1559.6 L2187.16 1559.6 L2187.16 1563.39 L2174.69 1563.39 L2174.69 1559.6 Z" fill="#000000" fill-rule="evenodd" fill-opacity="1" /><path clip-path="url(#clip170)" d="M 0 0 M2202.23 1543 Q2198.62 1543 2196.79 1546.56 Q2194.99 1550.11 2194.99 1557.23 Q2194.99 1564.34 2196.79 1567.91 Q2198.62 1571.45 2202.23 1571.45 Q2205.87 1571.45 2207.67 1567.91 Q2209.5 1564.34 2209.5 1557.23 Q2209.5 1550.11 2207.67 1546.56 Q2205.87 1543 2202.23 1543 M2202.23 1539.29 Q2208.04 1539.29 2211.1 1543.9 Q2214.18 1548.48 2214.18 1557.23 Q2214.18 1565.96 2211.1 1570.57 Q2208.04 1575.15 2202.23 1575.15 Q2196.42 1575.15 2193.34 1570.57 Q2190.29 1565.96 2190.29 1557.23 Q2190.29 1548.48 2193.34 1543.9 Q2196.42 1539.29 2202.23 1539.29 Z" fill="#000000" fill-rule="evenodd" fill-opacity="1" /><path clip-path="url(#clip170)" d="M 0 0 M2219.25 1568.6 L2224.13 1568.6 L2224.13 1574.48 L2219.25 1574.48 L2219.25 1568.6 Z" fill="#000000" fill-rule="evenodd" fill-opacity="1" /><path clip-path="url(#clip170)" d="M 0 0 M2239.2 1543 Q2235.59 1543 2233.76 1546.56 Q2231.95 1550.11 2231.95 1557.23 Q2231.95 1564.34 2233.76 1567.91 Q2235.59 1571.45 2239.2 1571.45 Q2242.83 1571.45 2244.64 1567.91 Q2246.47 1564.34 2246.47 1557.23 Q2246.47 1550.11 2244.64 1546.56 Q2242.83 1543 2239.2 1543 M2239.2 1539.29 Q2245.01 1539.29 2248.07 1543.9 Q2251.14 1548.48 2251.14 1557.23 Q2251.14 1565.96 2248.07 1570.57 Q2245.01 1575.15 2239.2 1575.15 Q2233.39 1575.15 2230.31 1570.57 Q2227.26 1565.96 2227.26 1557.23 Q2227.26 1548.48 2230.31 1543.9 Q2233.39 1539.29 2239.2 1539.29 Z" fill="#000000" fill-rule="evenodd" fill-opacity="1" /><path clip-path="url(#clip170)" d="M 0 0 M2260.24 1570.54 L2276.56 1570.54 L2276.56 1574.48 L2254.62 1574.48 L2254.62 1570.54 Q2257.28 1567.79 2261.86 1563.16 Q2266.47 1558.51 2267.65 1557.17 Q2269.89 1554.64 2270.77 1552.91 Q2271.68 1551.15 2271.68 1549.46 Q2271.68 1546.7 2269.73 1544.97 Q2267.81 1543.23 2264.71 1543.23 Q2262.51 1543.23 2260.06 1543.99 Q2257.63 1544.76 2254.85 1546.31 L2254.85 1541.59 Q2257.67 1540.45 2260.13 1539.87 Q2262.58 1539.29 2264.62 1539.29 Q2269.99 1539.29 2273.18 1541.98 Q2276.38 1544.67 2276.38 1549.16 Q2276.38 1551.29 2275.57 1553.21 Q2274.78 1555.1 2272.67 1557.7 Q2272.09 1558.37 2268.99 1561.59 Q2265.89 1564.78 2260.24 1570.54 Z" fill="#000000" fill-rule="evenodd" fill-opacity="1" /><path clip-path="url(#clip170)" d="M 0 0 M51.0477 1465.1 Q47.4367 1465.1 45.608 1468.66 Q43.8024 1472.2 43.8024 1479.33 Q43.8024 1486.44 45.608 1490 Q47.4367 1493.55 51.0477 1493.55 Q54.682 1493.55 56.4875 1490 Q58.3162 1486.44 58.3162 1479.33 Q58.3162 1472.2 56.4875 1468.66 Q54.682 1465.1 51.0477 1465.1 M51.0477 1461.39 Q56.8579 1461.39 59.9134 1466 Q62.9921 1470.58 62.9921 1479.33 Q62.9921 1488.06 59.9134 1492.67 Q56.8579 1497.25 51.0477 1497.25 Q45.2376 1497.25 42.1589 1492.67 Q39.1034 1488.06 39.1034 1479.33 Q39.1034 1470.58 42.1589 1466 Q45.2376 1461.39 51.0477 1461.39 Z" fill="#000000" fill-rule="evenodd" fill-opacity="1" /><path clip-path="url(#clip170)" d="M 0 0 M42.0895 1203.32 L60.4458 1203.32 L60.4458 1207.26 L46.3718 1207.26 L46.3718 1215.73 Q47.3904 1215.38 48.4089 1215.22 Q49.4274 1215.03 50.4459 1215.03 Q56.2329 1215.03 59.6125 1218.21 Q62.9921 1221.38 62.9921 1226.79 Q62.9921 1232.37 59.5199 1235.47 Q56.0477 1238.55 49.7283 1238.55 Q47.5524 1238.55 45.2839 1238.18 Q43.0385 1237.81 40.6311 1237.07 L40.6311 1232.37 Q42.7145 1233.51 44.9367 1234.06 Q47.1589 1234.62 49.6357 1234.62 Q53.6403 1234.62 55.9783 1232.51 Q58.3162 1230.4 58.3162 1226.79 Q58.3162 1223.18 55.9783 1221.08 Q53.6403 1218.97 49.6357 1218.97 Q47.7607 1218.97 45.8857 1219.39 Q44.0339 1219.8 42.0895 1220.68 L42.0895 1203.32 Z" fill="#000000" fill-rule="evenodd" fill-opacity="1" /><path clip-path="url(#clip170)" d="M 0 0 M16.0711 975.25 L23.7099 975.25 L23.7099 948.884 L15.3998 950.551 L15.3998 946.292 L23.6636 944.625 L28.3395 944.625 L28.3395 975.25 L35.9784 975.25 L35.9784 979.185 L16.0711 979.185 L16.0711 975.25 Z" fill="#000000" fill-rule="evenodd" fill-opacity="1" /><path clip-path="url(#clip170)" d="M 0 0 M51.0477 947.704 Q47.4367 947.704 45.608 951.269 Q43.8024 954.81 43.8024 961.94 Q43.8024 969.046 45.608 972.611 Q47.4367 976.153 51.0477 976.153 Q54.682 976.153 56.4875 972.611 Q58.3162 969.046 58.3162 961.94 Q58.3162 954.81 56.4875 951.269 Q54.682 947.704 51.0477 947.704 M51.0477 944 Q56.8579 944 59.9134 948.607 Q62.9921 953.19 62.9921 961.94 Q62.9921 970.667 59.9134 975.273 Q56.8579 979.856 51.0477 979.856 Q45.2376 979.856 42.1589 975.273 Q39.1034 970.667 39.1034 961.94 Q39.1034 953.19 42.1589 948.607 Q45.2376 944 51.0477 944 Z" fill="#000000" fill-rule="evenodd" fill-opacity="1" /><path clip-path="url(#clip170)" d="M 0 0 M17.0664 716.554 L24.7053 716.554 L24.7053 690.188 L16.3952 691.855 L16.3952 687.595 L24.659 685.929 L29.3349 685.929 L29.3349 716.554 L36.9737 716.554 L36.9737 720.489 L17.0664 720.489 L17.0664 716.554 Z" fill="#000000" fill-rule="evenodd" fill-opacity="1" /><path clip-path="url(#clip170)" d="M 0 0 M42.0895 685.929 L60.4458 685.929 L60.4458 689.864 L46.3718 689.864 L46.3718 698.336 Q47.3904 697.989 48.4089 697.827 Q49.4274 697.642 50.4459 697.642 Q56.2329 697.642 59.6125 700.813 Q62.9921 703.984 62.9921 709.401 Q62.9921 714.98 59.5199 718.081 Q56.0477 721.16 49.7283 721.16 Q47.5524 721.16 45.2839 720.79 Q43.0385 720.419 40.6311 719.679 L40.6311 714.98 Q42.7145 716.114 44.9367 716.669 Q47.1589 717.225 49.6357 717.225 Q53.6403 717.225 55.9783 715.118 Q58.3162 713.012 58.3162 709.401 Q58.3162 705.79 55.9783 703.683 Q53.6403 701.577 49.6357 701.577 Q47.7607 701.577 45.8857 701.994 Q44.0339 702.41 42.0895 703.29 L42.0895 685.929 Z" fill="#000000" fill-rule="evenodd" fill-opacity="1" /><path clip-path="url(#clip170)" d="M 0 0 M19.659 457.857 L35.9784 457.857 L35.9784 461.793 L14.0341 461.793 L14.0341 457.857 Q16.6961 455.103 21.2794 450.473 Q25.8858 445.82 27.0664 444.478 Q29.3118 441.955 30.1914 440.219 Q31.0941 438.459 31.0941 436.77 Q31.0941 434.015 29.1497 432.279 Q27.2284 430.543 24.1266 430.543 Q21.9275 430.543 19.4738 431.307 Q17.0433 432.071 14.2655 433.621 L14.2655 428.899 Q17.0896 427.765 19.5433 427.186 Q21.997 426.608 24.034 426.608 Q29.4043 426.608 32.5988 429.293 Q35.7932 431.978 35.7932 436.469 Q35.7932 438.598 34.983 440.52 Q34.196 442.418 32.0895 445.01 Q31.5108 445.682 28.409 448.899 Q25.3071 452.094 19.659 457.857 Z" fill="#000000" fill-rule="evenodd" fill-opacity="1" /><path clip-path="url(#clip170)" d="M 0 0 M51.0477 430.311 Q47.4367 430.311 45.608 433.876 Q43.8024 437.418 43.8024 444.547 Q43.8024 451.654 45.608 455.219 Q47.4367 458.76 51.0477 458.76 Q54.682 458.76 56.4875 455.219 Q58.3162 451.654 58.3162 444.547 Q58.3162 437.418 56.4875 433.876 Q54.682 430.311 51.0477 430.311 M51.0477 426.608 Q56.8579 426.608 59.9134 431.214 Q62.9921 435.797 62.9921 444.547 Q62.9921 453.274 59.9134 457.881 Q56.8579 462.464 51.0477 462.464 Q45.2376 462.464 42.1589 457.881 Q39.1034 453.274 39.1034 444.547 Q39.1034 435.797 42.1589 431.214 Q45.2376 426.608 51.0477 426.608 Z" fill="#000000" fill-rule="evenodd" fill-opacity="1" /><path clip-path="url(#clip170)" d="M 0 0 M20.6544 199.161 L36.9737 199.161 L36.9737 203.096 L15.0294 203.096 L15.0294 199.161 Q17.6914 196.407 22.2748 191.777 Q26.8812 187.124 28.0618 185.782 Q30.3071 183.258 31.1867 181.522 Q32.0895 179.763 32.0895 178.073 Q32.0895 175.319 30.1451 173.583 Q28.2238 171.846 25.122 171.846 Q22.9229 171.846 20.4692 172.61 Q18.0387 173.374 15.2609 174.925 L15.2609 170.203 Q18.085 169.069 20.5386 168.49 Q22.9923 167.911 25.0294 167.911 Q30.3997 167.911 33.5941 170.596 Q36.7886 173.282 36.7886 177.772 Q36.7886 179.902 35.9784 181.823 Q35.1913 183.721 33.0849 186.314 Q32.5062 186.985 29.4043 190.203 Q26.3025 193.397 20.6544 199.161 Z" fill="#000000" fill-rule="evenodd" fill-opacity="1" /><path clip-path="url(#clip170)" d="M 0 0 M42.0895 168.536 L60.4458 168.536 L60.4458 172.471 L46.3718 172.471 L46.3718 180.944 Q47.3904 180.596 48.4089 180.434 Q49.4274 180.249 50.4459 180.249 Q56.2329 180.249 59.6125 183.42 Q62.9921 186.592 62.9921 192.008 Q62.9921 197.587 59.5199 200.689 Q56.0477 203.768 49.7283 203.768 Q47.5524 203.768 45.2839 203.397 Q43.0385 203.027 40.6311 202.286 L40.6311 197.587 Q42.7145 198.721 44.9367 199.277 Q47.1589 199.832 49.6357 199.832 Q53.6403 199.832 55.9783 197.726 Q58.3162 195.62 58.3162 192.008 Q58.3162 188.397 55.9783 186.291 Q53.6403 184.184 49.6357 184.184 Q47.7607 184.184 45.8857 184.601 Q44.0339 185.018 42.0895 185.897 L42.0895 168.536 Z" fill="#000000" fill-rule="evenodd" fill-opacity="1" /><path clip-path="url(#clip172)" d="
M151.118 919.451 L151.687 915.012 L152.257 910.571 L152.827 906.129 L153.397 901.686 L153.967 897.243 L154.537 892.799 L155.107 888.355 L155.677 883.912 L156.247 879.47 
  L156.816 875.029 L157.386 870.589 L157.956 866.151 L158.526 861.716 L159.096 857.283 L159.666 852.852 L160.236 848.425 L160.806 844.001 L161.376 839.582 L161.946 835.166 
  L162.515 830.755 L163.085 826.349 L163.655 821.947 L164.225 817.551 L164.795 813.161 L165.365 808.777 L165.935 804.399 L166.505 800.028 L167.075 795.663 L167.645 791.306 
  L168.214 786.956 L168.784 782.614 L169.354 778.28 L169.924 773.954 L170.494 769.637 L171.064 765.329 L171.634 761.029 L172.204 756.739 L172.774 752.459 L173.344 748.188 
  L173.913 743.927 L174.483 739.677 L175.053 735.437 L175.623 731.208 L176.193 726.99 L176.763 722.783 L177.333 718.587 L177.903 714.403 L178.473 710.231 L179.042 706.071 
  L179.612 701.923 L180.182 697.788 L180.752 693.665 L181.322 689.555 L181.892 685.457 L182.462 681.373 L183.032 677.302 L183.602 673.245 L184.172 669.201 L184.741 665.171 
  L185.311 661.155 L185.881 657.153 L186.451 653.165 L187.021 649.191 L187.591 645.232 L188.161 641.287 L188.731 637.357 L189.301 633.442 L189.871 629.542 L190.44 625.657 
  L191.01 621.786 L191.58 617.931 L192.15 614.092 L192.72 610.268 L193.29 606.459 L193.86 602.666 L194.43 598.888 L195 595.126 L195.57 591.38 L196.139 587.65 
  L196.709 583.936 L197.279 580.237 L197.849 576.555 L198.419 572.888 L198.989 569.238 L199.559 565.604 L200.129 561.986 L200.699 558.384 L201.268 554.798 L201.838 551.229 
  L202.408 547.676 L202.978 544.139 L203.548 540.618 L204.118 537.114 L204.688 533.626 L205.258 530.154 L205.828 526.699 L206.398 523.26 L206.967 519.837 L207.537 516.431 
  L207.537 1479.3 L206.967 1479.3 L206.398 1479.3 L205.828 1479.3 L205.258 1479.3 L204.688 1479.3 L204.118 1479.3 L203.548 1479.3 L202.978 1479.3 L202.408 1479.3 
  L201.838 1479.3 L201.268 1479.3 L200.699 1479.3 L200.129 1479.3 L199.559 1479.3 L198.989 1479.3 L198.419 1479.3 L197.849 1479.3 L197.279 1479.3 L196.709 1479.3 
  L196.139 1479.3 L195.57 1479.3 L195 1479.3 L194.43 1479.3 L193.86 1479.3 L193.29 1479.3 L192.72 1479.3 L192.15 1479.3 L191.58 1479.3 L191.01 1479.3 
  L190.44 1479.3 L189.871 1479.3 L189.301 1479.3 L188.731 1479.3 L188.161 1479.3 L187.591 1479.3 L187.021 1479.3 L186.451 1479.3 L185.881 1479.3 L185.311 1479.3 
  L184.741 1479.3 L184.172 1479.3 L183.602 1479.3 L183.032 1479.3 L182.462 1479.3 L181.892 1479.3 L181.322 1479.3 L180.752 1479.3 L180.182 1479.3 L179.612 1479.3 
  L179.042 1479.3 L178.473 1479.3 L177.903 1479.3 L177.333 1479.3 L176.763 1479.3 L176.193 1479.3 L175.623 1479.3 L175.053 1479.3 L174.483 1479.3 L173.913 1479.3 
  L173.344 1479.3 L172.774 1479.3 L172.204 1479.3 L171.634 1479.3 L171.064 1479.3 L170.494 1479.3 L169.924 1479.3 L169.354 1479.3 L168.784 1479.3 L168.214 1479.3 
  L167.645 1479.3 L167.075 1479.3 L166.505 1479.3 L165.935 1479.3 L165.365 1479.3 L164.795 1479.3 L164.225 1479.3 L163.655 1479.3 L163.085 1479.3 L162.515 1479.3 
  L161.946 1479.3 L161.376 1479.3 L160.806 1479.3 L160.236 1479.3 L159.666 1479.3 L159.096 1479.3 L158.526 1479.3 L157.956 1479.3 L157.386 1479.3 L156.816 1479.3 
  L156.247 1479.3 L155.677 1479.3 L155.107 1479.3 L154.537 1479.3 L153.967 1479.3 L153.397 1479.3 L152.827 1479.3 L152.257 1479.3 L151.687 1479.3 L151.118 1479.3 
   Z
  " fill="#ffa500" fill-rule="evenodd" fill-opacity="0.5"/>
<polyline clip-path="url(#clip172)" style="stroke:#ffa500; stroke-width:4; stroke-opacity:1; fill:none" points="
  151.118,919.451 151.687,915.012 152.257,910.571 152.827,906.129 153.397,901.686 153.967,897.243 154.537,892.799 155.107,888.355 155.677,883.912 156.247,879.47 
  156.816,875.029 157.386,870.589 157.956,866.151 158.526,861.716 159.096,857.283 159.666,852.852 160.236,848.425 160.806,844.001 161.376,839.582 161.946,835.166 
  162.515,830.755 163.085,826.349 163.655,821.947 164.225,817.551 164.795,813.161 165.365,808.777 165.935,804.399 166.505,800.028 167.075,795.663 167.645,791.306 
  168.214,786.956 168.784,782.614 169.354,778.28 169.924,773.954 170.494,769.637 171.064,765.329 171.634,761.029 172.204,756.739 172.774,752.459 173.344,748.188 
  173.913,743.927 174.483,739.677 175.053,735.437 175.623,731.208 176.193,726.99 176.763,722.783 177.333,718.587 177.903,714.403 178.473,710.231 179.042,706.071 
  179.612,701.923 180.182,697.788 180.752,693.665 181.322,689.555 181.892,685.457 182.462,681.373 183.032,677.302 183.602,673.245 184.172,669.201 184.741,665.171 
  185.311,661.155 185.881,657.153 186.451,653.165 187.021,649.191 187.591,645.232 188.161,641.287 188.731,637.357 189.301,633.442 189.871,629.542 190.44,625.657 
  191.01,621.786 191.58,617.931 192.15,614.092 192.72,610.268 193.29,606.459 193.86,602.666 194.43,598.888 195,595.126 195.57,591.38 196.139,587.65 
  196.709,583.936 197.279,580.237 197.849,576.555 198.419,572.888 198.989,569.238 199.559,565.604 200.129,561.986 200.699,558.384 201.268,554.798 201.838,551.229 
  202.408,547.676 202.978,544.139 203.548,540.618 204.118,537.114 204.688,533.626 205.258,530.154 205.828,526.699 206.398,523.26 206.967,519.837 207.537,516.431 
  
  "/>
<path clip-path="url(#clip172)" d="
M207.537 516.431 L220.85 441.435 L234.164 374.834 L247.477 315.9 L260.79 264.004 L274.103 218.819 L287.416 180.309 L300.729 148.585 L314.042 123.736 L327.355 105.701 
  L340.668 94.2355 L353.982 88.9544 L367.295 89.3964 L380.608 95.068 L393.921 105.427 L407.234 119.81 L420.547 137.327 L433.86 156.795 L447.173 176.719 L460.486 195.389 
  L473.8 211.055 L487.113 222.185 L500.426 227.75 L513.739 227.481 L527.052 222.03 L540.365 212.949 L553.678 202.449 L566.991 192.955 L580.305 186.549 L593.618 184.461 
  L606.931 186.752 L620.244 192.314 L633.557 199.186 L646.87 205.09 L660.183 208.045 L673.496 206.892 L686.809 201.623 L700.123 193.44 L713.436 184.57 L726.749 177.893 
  L740.062 176.445 L753.375 182.92 L766.688 199.225 L780.001 226.167 L793.314 263.324 L806.627 309.104 L819.941 360.983 L833.254 415.881 L846.567 470.589 L859.88 522.163 
  L873.193 568.211 L886.506 607.041 L899.819 637.671 L913.132 659.764 L926.445 673.545 L939.759 679.745 L953.072 679.548 L966.385 674.539 L979.698 666.584 L993.011 657.655 
  L1006.32 649.622 L1019.64 644.076 L1032.95 642.221 L1046.26 644.848 L1059.58 652.379 L1072.89 664.91 L1086.2 682.248 L1099.52 703.916 L1112.83 729.162 L1126.14 757.001 
  L1139.46 786.311 L1152.77 815.971 L1166.08 845.022 L1179.39 872.811 L1192.71 899.044 L1206.02 923.769 L1219.33 947.241 L1232.65 969.753 L1245.96 991.462 L1259.27 1012.29 
  L1272.59 1031.96 L1285.9 1050.04 L1299.21 1066.2 L1312.53 1080.28 L1325.84 1092.47 L1339.15 1103.26 L1352.47 1113.38 L1365.78 1123.7 L1379.09 1134.95 L1392.4 1147.63 
  L1405.72 1161.75 L1419.03 1176.84 L1432.34 1191.91 L1445.66 1205.7 L1458.97 1216.97 L1472.28 1224.78 L1485.6 1228.8 L1498.91 1229.42 L1512.22 1227.66 L1525.54 1224.99 
  L1525.54 1479.3 L1512.22 1479.3 L1498.91 1479.3 L1485.6 1479.3 L1472.28 1479.3 L1458.97 1479.3 L1445.66 1479.3 L1432.34 1479.3 L1419.03 1479.3 L1405.72 1479.3 
  L1392.4 1479.3 L1379.09 1479.3 L1365.78 1479.3 L1352.47 1479.3 L1339.15 1479.3 L1325.84 1479.3 L1312.53 1479.3 L1299.21 1479.3 L1285.9 1479.3 L1272.59 1479.3 
  L1259.27 1479.3 L1245.96 1479.3 L1232.65 1479.3 L1219.33 1479.3 L1206.02 1479.3 L1192.71 1479.3 L1179.39 1479.3 L1166.08 1479.3 L1152.77 1479.3 L1139.46 1479.3 
  L1126.14 1479.3 L1112.83 1479.3 L1099.52 1479.3 L1086.2 1479.3 L1072.89 1479.3 L1059.58 1479.3 L1046.26 1479.3 L1032.95 1479.3 L1019.64 1479.3 L1006.32 1479.3 
  L993.011 1479.3 L979.698 1479.3 L966.385 1479.3 L953.072 1479.3 L939.759 1479.3 L926.445 1479.3 L913.132 1479.3 L899.819 1479.3 L886.506 1479.3 L873.193 1479.3 
  L859.88 1479.3 L846.567 1479.3 L833.254 1479.3 L819.941 1479.3 L806.627 1479.3 L793.314 1479.3 L780.001 1479.3 L766.688 1479.3 L753.375 1479.3 L740.062 1479.3 
  L726.749 1479.3 L713.436 1479.3 L700.123 1479.3 L686.809 1479.3 L673.496 1479.3 L660.183 1479.3 L646.87 1479.3 L633.557 1479.3 L620.244 1479.3 L606.931 1479.3 
  L593.618 1479.3 L580.305 1479.3 L566.991 1479.3 L553.678 1479.3 L540.365 1479.3 L527.052 1479.3 L513.739 1479.3 L500.426 1479.3 L487.113 1479.3 L473.8 1479.3 
  L460.486 1479.3 L447.173 1479.3 L433.86 1479.3 L420.547 1479.3 L407.234 1479.3 L393.921 1479.3 L380.608 1479.3 L367.295 1479.3 L353.982 1479.3 L340.668 1479.3 
  L327.355 1479.3 L314.042 1479.3 L300.729 1479.3 L287.416 1479.3 L274.103 1479.3 L260.79 1479.3 L247.477 1479.3 L234.164 1479.3 L220.85 1479.3 L207.537 1479.3 
   Z
  " fill="#008000" fill-rule="evenodd" fill-opacity="0.5"/>
<polyline clip-path="url(#clip172)" style="stroke:#008000; stroke-width:4; stroke-opacity:1; fill:none" points="
  207.537,516.431 220.85,441.435 234.164,374.834 247.477,315.9 260.79,264.004 274.103,218.819 287.416,180.309 300.729,148.585 314.042,123.736 327.355,105.701 
  340.668,94.2355 353.982,88.9544 367.295,89.3964 380.608,95.068 393.921,105.427 407.234,119.81 420.547,137.327 433.86,156.795 447.173,176.719 460.486,195.389 
  473.8,211.055 487.113,222.185 500.426,227.75 513.739,227.481 527.052,222.03 540.365,212.949 553.678,202.449 566.991,192.955 580.305,186.549 593.618,184.461 
  606.931,186.752 620.244,192.314 633.557,199.186 646.87,205.09 660.183,208.045 673.496,206.892 686.809,201.623 700.123,193.44 713.436,184.57 726.749,177.893 
  740.062,176.445 753.375,182.92 766.688,199.225 780.001,226.167 793.314,263.324 806.627,309.104 819.941,360.983 833.254,415.881 846.567,470.589 859.88,522.163 
  873.193,568.211 886.506,607.041 899.819,637.671 913.132,659.764 926.445,673.545 939.759,679.745 953.072,679.548 966.385,674.539 979.698,666.584 993.011,657.655 
  1006.32,649.622 1019.64,644.076 1032.95,642.221 1046.26,644.848 1059.58,652.379 1072.89,664.91 1086.2,682.248 1099.52,703.916 1112.83,729.162 1126.14,757.001 
  1139.46,786.311 1152.77,815.971 1166.08,845.022 1179.39,872.811 1192.71,899.044 1206.02,923.769 1219.33,947.241 1232.65,969.753 1245.96,991.462 1259.27,1012.29 
  1272.59,1031.96 1285.9,1050.04 1299.21,1066.2 1312.53,1080.28 1325.84,1092.47 1339.15,1103.26 1352.47,1113.38 1365.78,1123.7 1379.09,1134.95 1392.4,1147.63 
  1405.72,1161.75 1419.03,1176.84 1432.34,1191.91 1445.66,1205.7 1458.97,1216.97 1472.28,1224.78 1485.6,1228.8 1498.91,1229.42 1512.22,1227.66 1525.54,1224.99 
  
  "/>
<path clip-path="url(#clip172)" d="
M1525.54 1224.99 L1533.24 1223.66 L1540.95 1222.83 L1548.66 1222.74 L1556.37 1223.59 L1564.08 1225.48 L1571.78 1228.48 L1579.49 1232.57 L1587.2 1237.69 L1594.91 1243.72 
  L1602.62 1250.49 L1610.32 1257.85 L1618.03 1265.58 L1625.74 1273.5 L1633.45 1281.42 L1641.16 1289.19 L1648.86 1296.67 L1656.57 1303.77 L1664.28 1310.44 L1671.99 1316.66 
  L1679.7 1322.45 L1687.4 1327.88 L1695.11 1333.01 L1702.82 1337.94 L1710.53 1342.77 L1718.24 1347.57 L1725.94 1352.44 L1733.65 1357.42 L1741.36 1362.55 L1749.07 1367.84 
  L1756.78 1373.27 L1764.48 1378.82 L1772.19 1384.43 L1779.9 1390.04 L1787.61 1395.6 L1795.32 1401.03 L1803.02 1406.29 L1810.73 1411.3 L1818.44 1416.01 L1826.15 1420.38 
  L1833.86 1424.36 L1841.56 1427.91 L1849.27 1430.99 L1856.98 1433.59 L1864.69 1435.68 L1872.4 1437.26 L1880.1 1438.33 L1887.81 1438.92 L1895.52 1439.06 L1903.23 1438.82 
  L1910.94 1438.27 L1918.65 1437.49 L1926.35 1436.6 L1934.06 1435.68 L1941.77 1434.84 L1949.48 1434.16 L1957.19 1433.72 L1964.89 1433.56 L1972.6 1433.71 L1980.31 1434.16 
  L1988.02 1434.89 L1995.73 1435.84 L2003.43 1436.94 L2011.14 1438.1 L2018.85 1439.26 L2026.56 1440.33 L2034.27 1441.24 L2041.97 1441.96 L2049.68 1442.45 L2057.39 1442.74 
  L2065.1 1442.86 L2072.81 1442.85 L2080.51 1442.79 L2088.22 1442.76 L2095.93 1442.86 L2103.64 1443.15 L2111.35 1443.71 L2119.05 1444.58 L2126.76 1445.78 L2134.47 1447.32 
  L2142.18 1449.17 L2149.89 1451.29 L2157.59 1453.61 L2165.3 1456.07 L2173.01 1458.58 L2180.72 1461.09 L2188.43 1463.5 L2196.13 1465.78 L2203.84 1467.88 L2211.55 1469.75 
  L2219.26 1471.4 L2226.97 1472.82 L2234.67 1474 L2242.38 1474.98 L2250.09 1475.77 L2257.8 1476.39 L2265.51 1476.88 L2273.21 1477.26 L2280.92 1477.55 L2288.63 1477.78 
  L2288.63 1479.3 L2280.92 1479.3 L2273.21 1479.3 L2265.51 1479.3 L2257.8 1479.3 L2250.09 1479.3 L2242.38 1479.3 L2234.67 1479.3 L2226.97 1479.3 L2219.26 1479.3 
  L2211.55 1479.3 L2203.84 1479.3 L2196.13 1479.3 L2188.43 1479.3 L2180.72 1479.3 L2173.01 1479.3 L2165.3 1479.3 L2157.59 1479.3 L2149.89 1479.3 L2142.18 1479.3 
  L2134.47 1479.3 L2126.76 1479.3 L2119.05 1479.3 L2111.35 1479.3 L2103.64 1479.3 L2095.93 1479.3 L2088.22 1479.3 L2080.51 1479.3 L2072.81 1479.3 L2065.1 1479.3 
  L2057.39 1479.3 L2049.68 1479.3 L2041.97 1479.3 L2034.27 1479.3 L2026.56 1479.3 L2018.85 1479.3 L2011.14 1479.3 L2003.43 1479.3 L1995.73 1479.3 L1988.02 1479.3 
  L1980.31 1479.3 L1972.6 1479.3 L1964.89 1479.3 L1957.19 1479.3 L1949.48 1479.3 L1941.77 1479.3 L1934.06 1479.3 L1926.35 1479.3 L1918.65 1479.3 L1910.94 1479.3 
  L1903.23 1479.3 L1895.52 1479.3 L1887.81 1479.3 L1880.1 1479.3 L1872.4 1479.3 L1864.69 1479.3 L1856.98 1479.3 L1849.27 1479.3 L1841.56 1479.3 L1833.86 1479.3 
  L1826.15 1479.3 L1818.44 1479.3 L1810.73 1479.3 L1803.02 1479.3 L1795.32 1479.3 L1787.61 1479.3 L1779.9 1479.3 L1772.19 1479.3 L1764.48 1479.3 L1756.78 1479.3 
  L1749.07 1479.3 L1741.36 1479.3 L1733.65 1479.3 L1725.94 1479.3 L1718.24 1479.3 L1710.53 1479.3 L1702.82 1479.3 L1695.11 1479.3 L1687.4 1479.3 L1679.7 1479.3 
  L1671.99 1479.3 L1664.28 1479.3 L1656.57 1479.3 L1648.86 1479.3 L1641.16 1479.3 L1633.45 1479.3 L1625.74 1479.3 L1618.03 1479.3 L1610.32 1479.3 L1602.62 1479.3 
  L1594.91 1479.3 L1587.2 1479.3 L1579.49 1479.3 L1571.78 1479.3 L1564.08 1479.3 L1556.37 1479.3 L1548.66 1479.3 L1540.95 1479.3 L1533.24 1479.3 L1525.54 1479.3 
   Z
  " fill="#ffa500" fill-rule="evenodd" fill-opacity="0.5"/>
<polyline clip-path="url(#clip172)" style="stroke:#ffa500; stroke-width:4; stroke-opacity:1; fill:none" points="
  1525.54,1224.99 1533.24,1223.66 1540.95,1222.83 1548.66,1222.74 1556.37,1223.59 1564.08,1225.48 1571.78,1228.48 1579.49,1232.57 1587.2,1237.69 1594.91,1243.72 
  1602.62,1250.49 1610.32,1257.85 1618.03,1265.58 1625.74,1273.5 1633.45,1281.42 1641.16,1289.19 1648.86,1296.67 1656.57,1303.77 1664.28,1310.44 1671.99,1316.66 
  1679.7,1322.45 1687.4,1327.88 1695.11,1333.01 1702.82,1337.94 1710.53,1342.77 1718.24,1347.57 1725.94,1352.44 1733.65,1357.42 1741.36,1362.55 1749.07,1367.84 
  1756.78,1373.27 1764.48,1378.82 1772.19,1384.43 1779.9,1390.04 1787.61,1395.6 1795.32,1401.03 1803.02,1406.29 1810.73,1411.3 1818.44,1416.01 1826.15,1420.38 
  1833.86,1424.36 1841.56,1427.91 1849.27,1430.99 1856.98,1433.59 1864.69,1435.68 1872.4,1437.26 1880.1,1438.33 1887.81,1438.92 1895.52,1439.06 1903.23,1438.82 
  1910.94,1438.27 1918.65,1437.49 1926.35,1436.6 1934.06,1435.68 1941.77,1434.84 1949.48,1434.16 1957.19,1433.72 1964.89,1433.56 1972.6,1433.71 1980.31,1434.16 
  1988.02,1434.89 1995.73,1435.84 2003.43,1436.94 2011.14,1438.1 2018.85,1439.26 2026.56,1440.33 2034.27,1441.24 2041.97,1441.96 2049.68,1442.45 2057.39,1442.74 
  2065.1,1442.86 2072.81,1442.85 2080.51,1442.79 2088.22,1442.76 2095.93,1442.86 2103.64,1443.15 2111.35,1443.71 2119.05,1444.58 2126.76,1445.78 2134.47,1447.32 
  2142.18,1449.17 2149.89,1451.29 2157.59,1453.61 2165.3,1456.07 2173.01,1458.58 2180.72,1461.09 2188.43,1463.5 2196.13,1465.78 2203.84,1467.88 2211.55,1469.75 
  2219.26,1471.4 2226.97,1472.82 2234.67,1474 2242.38,1474.98 2250.09,1475.77 2257.8,1476.39 2265.51,1476.88 2273.21,1477.26 2280.92,1477.55 2288.63,1477.78 
  
  "/>
<polyline clip-path="url(#clip172)" style="stroke:#0000ff; stroke-width:4; stroke-opacity:1; fill:none" points="
  737.399,1479.3 737.399,176.178 
  "/>
<polyline clip-path="url(#clip172)" style="stroke:#000000; stroke-width:4; stroke-opacity:1; fill:none" points="
  675.618,1479.3 675.618,206.311 
  "/>
<path clip-path="url(#clip170)" d="
M1494.58 459.25 L2277.23 459.25 L2277.23 96.3696 L1494.58 96.3696  Z
  " fill="#ffffff" fill-rule="evenodd" fill-opacity="1"/>
<polyline clip-path="url(#clip170)" style="stroke:#000000; stroke-width:4; stroke-opacity:1; fill:none" points="
  1494.58,459.25 2277.23,459.25 2277.23,96.3696 1494.58,96.3696 1494.58,459.25 
  "/>
<path clip-path="url(#clip170)" d="
M1519.75 181.042 L1670.81 181.042 L1670.81 132.658 L1519.75 132.658 L1519.75 181.042  Z
  " fill="#ffa500" fill-rule="evenodd" fill-opacity="0.5"/>
<polyline clip-path="url(#clip170)" style="stroke:#ffa500; stroke-width:4; stroke-opacity:1; fill:none" points="
  1519.75,132.658 1670.81,132.658 
  "/>
<path clip-path="url(#clip170)" d="M 0 0 M1700.38 161.19 Q1700.38 165.889 1702.3 168.574 Q1704.24 171.236 1707.62 171.236 Q1711 171.236 1712.95 168.574 Q1714.89 165.889 1714.89 161.19 Q1714.89 156.491 1712.95 153.829 Q1711 151.144 1707.62 151.144 Q1704.24 151.144 1702.3 153.829 Q1700.38 156.491 1700.38 161.19 M1714.89 170.241 Q1713.55 172.555 1711.49 173.69 Q1709.45 174.801 1706.58 174.801 Q1701.88 174.801 1698.92 171.051 Q1695.98 167.301 1695.98 161.19 Q1695.98 155.079 1698.92 151.329 Q1701.88 147.579 1706.58 147.579 Q1709.45 147.579 1711.49 148.713 Q1713.55 149.824 1714.89 152.139 L1714.89 148.204 L1719.15 148.204 L1719.15 183.991 L1714.89 183.991 L1714.89 170.241 Z" fill="#000000" fill-rule="evenodd" fill-opacity="1" /><path clip-path="url(#clip170)" d="M 0 0 M1734.22 142.648 Q1730.61 142.648 1728.78 146.213 Q1726.98 149.755 1726.98 156.884 Q1726.98 163.991 1728.78 167.556 Q1730.61 171.097 1734.22 171.097 Q1737.85 171.097 1739.66 167.556 Q1741.49 163.991 1741.49 156.884 Q1741.49 149.755 1739.66 146.213 Q1737.85 142.648 1734.22 142.648 M1734.22 138.945 Q1740.03 138.945 1743.09 143.551 Q1746.17 148.134 1746.17 156.884 Q1746.17 165.611 1743.09 170.218 Q1740.03 174.801 1734.22 174.801 Q1728.41 174.801 1725.33 170.218 Q1722.28 165.611 1722.28 156.884 Q1722.28 148.134 1725.33 143.551 Q1728.41 138.945 1734.22 138.945 Z" fill="#000000" fill-rule="evenodd" fill-opacity="1" /><path clip-path="url(#clip170)" d="M 0 0 M1751.28 139.57 L1769.64 139.57 L1769.64 143.505 L1755.56 143.505 L1755.56 151.977 Q1756.58 151.63 1757.6 151.468 Q1758.62 151.282 1759.64 151.282 Q1765.42 151.282 1768.8 154.454 Q1772.18 157.625 1772.18 163.042 Q1772.18 168.62 1768.71 171.722 Q1765.24 174.801 1758.92 174.801 Q1756.74 174.801 1754.48 174.43 Q1752.23 174.06 1749.82 173.319 L1749.82 168.62 Q1751.91 169.755 1754.13 170.31 Q1756.35 170.866 1758.83 170.866 Q1762.83 170.866 1765.17 168.759 Q1767.51 166.653 1767.51 163.042 Q1767.51 159.431 1765.17 157.324 Q1762.83 155.218 1758.83 155.218 Q1756.95 155.218 1755.08 155.634 Q1753.23 156.051 1751.28 156.931 L1751.28 139.57 Z" fill="#000000" fill-rule="evenodd" fill-opacity="1" /><path clip-path="url(#clip170)" d="
M1519.75 241.522 L1670.81 241.522 L1670.81 193.138 L1519.75 193.138 L1519.75 241.522  Z
  " fill="#008000" fill-rule="evenodd" fill-opacity="0.5"/>
<polyline clip-path="url(#clip170)" style="stroke:#008000; stroke-width:4; stroke-opacity:1; fill:none" points="
  1519.75,193.138 1670.81,193.138 
  "/>
<path clip-path="url(#clip170)" d="M 0 0 M1698.2 233.892 L1698.2 229.633 Q1699.96 230.466 1701.77 230.906 Q1703.57 231.346 1705.31 231.346 Q1709.94 231.346 1712.37 228.244 Q1714.82 225.119 1715.17 218.776 Q1713.83 220.767 1711.77 221.832 Q1709.71 222.897 1707.21 222.897 Q1702.02 222.897 1698.99 219.772 Q1695.98 216.624 1695.98 211.184 Q1695.98 205.86 1699.13 202.642 Q1702.28 199.425 1707.51 199.425 Q1713.5 199.425 1716.65 204.031 Q1719.82 208.614 1719.82 217.364 Q1719.82 225.536 1715.93 230.42 Q1712.07 235.281 1705.52 235.281 Q1703.76 235.281 1701.95 234.934 Q1700.15 234.586 1698.2 233.892 M1707.51 219.239 Q1710.66 219.239 1712.48 217.086 Q1714.34 214.934 1714.34 211.184 Q1714.34 207.457 1712.48 205.304 Q1710.66 203.128 1707.51 203.128 Q1704.36 203.128 1702.51 205.304 Q1700.68 207.457 1700.68 211.184 Q1700.68 214.934 1702.51 217.086 Q1704.36 219.239 1707.51 219.239 Z" fill="#000000" fill-rule="evenodd" fill-opacity="1" /><path clip-path="url(#clip170)" d="M 0 0 M1734.89 203.128 Q1731.28 203.128 1729.45 206.693 Q1727.65 210.235 1727.65 217.364 Q1727.65 224.471 1729.45 228.036 Q1731.28 231.577 1734.89 231.577 Q1738.53 231.577 1740.33 228.036 Q1742.16 224.471 1742.16 217.364 Q1742.16 210.235 1740.33 206.693 Q1738.53 203.128 1734.89 203.128 M1734.89 199.425 Q1740.7 199.425 1743.76 204.031 Q1746.84 208.614 1746.84 217.364 Q1746.84 226.091 1743.76 230.698 Q1740.7 235.281 1734.89 235.281 Q1729.08 235.281 1726 230.698 Q1722.95 226.091 1722.95 217.364 Q1722.95 208.614 1726 204.031 Q1729.08 199.425 1734.89 199.425 Z" fill="#000000" fill-rule="evenodd" fill-opacity="1" /><path clip-path="url(#clip170)" d="M 0 0 M1781.3 219.401 Q1779.29 219.401 1778.13 221.114 Q1777 222.827 1777 225.883 Q1777 228.892 1778.13 230.628 Q1779.29 232.341 1781.3 232.341 Q1783.27 232.341 1784.41 230.628 Q1785.56 228.892 1785.56 225.883 Q1785.56 222.85 1784.41 221.137 Q1783.27 219.401 1781.3 219.401 M1781.3 216.462 Q1784.96 216.462 1787.11 219.008 Q1789.27 221.554 1789.27 225.883 Q1789.27 230.211 1787.09 232.758 Q1784.94 235.281 1781.3 235.281 Q1777.6 235.281 1775.45 232.758 Q1773.29 230.211 1773.29 225.883 Q1773.29 221.531 1775.45 219.008 Q1777.62 216.462 1781.3 216.462 M1757.42 202.364 Q1755.42 202.364 1754.27 204.1 Q1753.13 205.813 1753.13 208.823 Q1753.13 211.878 1754.27 213.591 Q1755.4 215.304 1757.42 215.304 Q1759.43 215.304 1760.56 213.591 Q1761.72 211.878 1761.72 208.823 Q1761.72 205.837 1760.56 204.1 Q1759.41 202.364 1757.42 202.364 M1778.32 199.425 L1782.02 199.425 L1760.4 235.281 L1756.7 235.281 L1778.32 199.425 M1757.42 199.425 Q1761.07 199.425 1763.25 201.971 Q1765.42 204.494 1765.42 208.823 Q1765.42 213.198 1763.25 215.721 Q1761.1 218.244 1757.42 218.244 Q1753.73 218.244 1751.58 215.721 Q1749.45 213.174 1749.45 208.823 Q1749.45 204.517 1751.6 201.971 Q1753.76 199.425 1757.42 199.425 Z" fill="#000000" fill-rule="evenodd" fill-opacity="1" /><path clip-path="url(#clip170)" d="M 0 0 M1830.35 218.961 L1830.35 234.61 L1826.1 234.61 L1826.1 219.1 Q1826.1 215.42 1824.66 213.591 Q1823.22 211.762 1820.35 211.762 Q1816.91 211.762 1814.91 213.962 Q1812.92 216.161 1812.92 219.957 L1812.92 234.61 L1808.64 234.61 L1808.64 208.684 L1812.92 208.684 L1812.92 212.712 Q1814.45 210.374 1816.51 209.216 Q1818.6 208.059 1821.3 208.059 Q1825.77 208.059 1828.06 210.837 Q1830.35 213.591 1830.35 218.961 Z" fill="#000000" fill-rule="evenodd" fill-opacity="1" /><path clip-path="url(#clip170)" d="M 0 0 M1844.87 211.67 Q1841.44 211.67 1839.45 214.355 Q1837.46 217.017 1837.46 221.67 Q1837.46 226.323 1839.43 229.008 Q1841.42 231.67 1844.87 231.67 Q1848.27 231.67 1850.26 228.985 Q1852.25 226.299 1852.25 221.67 Q1852.25 217.063 1850.26 214.378 Q1848.27 211.67 1844.87 211.67 M1844.87 208.059 Q1850.42 208.059 1853.6 211.67 Q1856.77 215.281 1856.77 221.67 Q1856.77 228.036 1853.6 231.67 Q1850.42 235.281 1844.87 235.281 Q1839.29 235.281 1836.12 231.67 Q1832.97 228.036 1832.97 221.67 Q1832.97 215.281 1836.12 211.67 Q1839.29 208.059 1844.87 208.059 Z" fill="#000000" fill-rule="evenodd" fill-opacity="1" /><path clip-path="url(#clip170)" d="M 0 0 M1882.78 218.961 L1882.78 234.61 L1878.53 234.61 L1878.53 219.1 Q1878.53 215.42 1877.09 213.591 Q1875.66 211.762 1872.78 211.762 Q1869.34 211.762 1867.35 213.962 Q1865.35 216.161 1865.35 219.957 L1865.35 234.61 L1861.07 234.61 L1861.07 208.684 L1865.35 208.684 L1865.35 212.712 Q1866.88 210.374 1868.94 209.216 Q1871.03 208.059 1873.73 208.059 Q1878.2 208.059 1880.49 210.837 Q1882.78 213.591 1882.78 218.961 Z" fill="#000000" fill-rule="evenodd" fill-opacity="1" /><path clip-path="url(#clip170)" d="M 0 0 M1885.1 219.725 L1897.58 219.725 L1897.58 223.522 L1885.1 223.522 L1885.1 219.725 Z" fill="#000000" fill-rule="evenodd" fill-opacity="1" /><path clip-path="url(#clip170)" d="M 0 0 M1917.07 212.665 Q1916.35 212.249 1915.49 212.063 Q1914.66 211.855 1913.64 211.855 Q1910.03 211.855 1908.09 214.216 Q1906.16 216.554 1906.16 220.952 L1906.16 234.61 L1901.88 234.61 L1901.88 208.684 L1906.16 208.684 L1906.16 212.712 Q1907.51 210.35 1909.66 209.216 Q1911.81 208.059 1914.89 208.059 Q1915.33 208.059 1915.86 208.128 Q1916.4 208.175 1917.04 208.29 L1917.07 212.665 Z" fill="#000000" fill-rule="evenodd" fill-opacity="1" /><path clip-path="url(#clip170)" d="M 0 0 M1942.67 220.582 L1942.67 222.665 L1923.09 222.665 Q1923.36 227.063 1925.72 229.378 Q1928.11 231.67 1932.34 231.67 Q1934.8 231.67 1937.09 231.068 Q1939.4 230.466 1941.67 229.262 L1941.67 233.29 Q1939.38 234.262 1936.97 234.772 Q1934.57 235.281 1932.09 235.281 Q1925.89 235.281 1922.25 231.67 Q1918.64 228.059 1918.64 221.901 Q1918.64 215.536 1922.07 211.809 Q1925.52 208.059 1931.35 208.059 Q1936.58 208.059 1939.61 211.438 Q1942.67 214.795 1942.67 220.582 M1938.41 219.332 Q1938.36 215.837 1936.44 213.753 Q1934.54 211.67 1931.4 211.67 Q1927.83 211.67 1925.68 213.684 Q1923.55 215.698 1923.22 219.355 L1938.41 219.332 Z" fill="#000000" fill-rule="evenodd" fill-opacity="1" /><path clip-path="url(#clip170)" d="M 0 0 M1947.14 208.684 L1951.4 208.684 L1951.4 235.073 Q1951.4 240.026 1949.5 242.248 Q1947.62 244.471 1943.43 244.471 L1941.81 244.471 L1941.81 240.86 L1942.95 240.86 Q1945.38 240.86 1946.26 239.725 Q1947.14 238.614 1947.14 235.073 L1947.14 208.684 M1947.14 198.591 L1951.4 198.591 L1951.4 203.985 L1947.14 203.985 L1947.14 198.591 Z" fill="#000000" fill-rule="evenodd" fill-opacity="1" /><path clip-path="url(#clip170)" d="M 0 0 M1978.04 220.582 L1978.04 222.665 L1958.46 222.665 Q1958.73 227.063 1961.09 229.378 Q1963.48 231.67 1967.71 231.67 Q1970.17 231.67 1972.46 231.068 Q1974.78 230.466 1977.04 229.262 L1977.04 233.29 Q1974.75 234.262 1972.34 234.772 Q1969.94 235.281 1967.46 235.281 Q1961.26 235.281 1957.62 231.67 Q1954.01 228.059 1954.01 221.901 Q1954.01 215.536 1957.44 211.809 Q1960.89 208.059 1966.72 208.059 Q1971.95 208.059 1974.98 211.438 Q1978.04 214.795 1978.04 220.582 M1973.78 219.332 Q1973.73 215.837 1971.81 213.753 Q1969.91 211.67 1966.77 211.67 Q1963.2 211.67 1961.05 213.684 Q1958.92 215.698 1958.59 219.355 L1973.78 219.332 Z" fill="#000000" fill-rule="evenodd" fill-opacity="1" /><path clip-path="url(#clip170)" d="M 0 0 M2001.16 209.679 L2001.16 213.661 Q1999.36 212.665 1997.53 212.179 Q1995.72 211.67 1993.87 211.67 Q1989.73 211.67 1987.44 214.309 Q1985.15 216.924 1985.15 221.67 Q1985.15 226.415 1987.44 229.054 Q1989.73 231.67 1993.87 231.67 Q1995.72 231.67 1997.53 231.184 Q1999.36 230.674 2001.16 229.679 L2001.16 233.614 Q1999.38 234.448 1997.46 234.864 Q1995.56 235.281 1993.41 235.281 Q1987.55 235.281 1984.1 231.6 Q1980.65 227.92 1980.65 221.67 Q1980.65 215.327 1984.13 211.693 Q1987.62 208.059 1993.69 208.059 Q1995.65 208.059 1997.53 208.475 Q1999.4 208.869 2001.16 209.679 Z" fill="#000000" fill-rule="evenodd" fill-opacity="1" /><path clip-path="url(#clip170)" d="M 0 0 M2009.84 201.323 L2009.84 208.684 L2018.62 208.684 L2018.62 211.994 L2009.84 211.994 L2009.84 226.068 Q2009.84 229.239 2010.7 230.142 Q2011.58 231.045 2014.24 231.045 L2018.62 231.045 L2018.62 234.61 L2014.24 234.61 Q2009.31 234.61 2007.44 232.781 Q2005.56 230.929 2005.56 226.068 L2005.56 211.994 L2002.44 211.994 L2002.44 208.684 L2005.56 208.684 L2005.56 201.323 L2009.84 201.323 Z" fill="#000000" fill-rule="evenodd" fill-opacity="1" /><path clip-path="url(#clip170)" d="M 0 0 M2023.08 208.684 L2027.34 208.684 L2027.34 234.61 L2023.08 234.61 L2023.08 208.684 M2023.08 198.591 L2027.34 198.591 L2027.34 203.985 L2023.08 203.985 L2023.08 198.591 Z" fill="#000000" fill-rule="evenodd" fill-opacity="1" /><path clip-path="url(#clip170)" d="M 0 0 M2041.86 211.67 Q2038.43 211.67 2036.44 214.355 Q2034.45 217.017 2034.45 221.67 Q2034.45 226.323 2036.42 229.008 Q2038.41 231.67 2041.86 231.67 Q2045.26 231.67 2047.25 228.985 Q2049.24 226.299 2049.24 221.67 Q2049.24 217.063 2047.25 214.378 Q2045.26 211.67 2041.86 211.67 M2041.86 208.059 Q2047.41 208.059 2050.58 211.67 Q2053.76 215.281 2053.76 221.67 Q2053.76 228.036 2050.58 231.67 Q2047.41 235.281 2041.86 235.281 Q2036.28 235.281 2033.11 231.67 Q2029.96 228.036 2029.96 221.67 Q2029.96 215.281 2033.11 211.67 Q2036.28 208.059 2041.86 208.059 Z" fill="#000000" fill-rule="evenodd" fill-opacity="1" /><path clip-path="url(#clip170)" d="M 0 0 M2079.77 218.961 L2079.77 234.61 L2075.52 234.61 L2075.52 219.1 Q2075.52 215.42 2074.08 213.591 Q2072.64 211.762 2069.77 211.762 Q2066.33 211.762 2064.33 213.962 Q2062.34 216.161 2062.34 219.957 L2062.34 234.61 L2058.06 234.61 L2058.06 208.684 L2062.34 208.684 L2062.34 212.712 Q2063.87 210.374 2065.93 209.216 Q2068.02 208.059 2070.72 208.059 Q2075.19 208.059 2077.48 210.837 Q2079.77 213.591 2079.77 218.961 Z" fill="#000000" fill-rule="evenodd" fill-opacity="1" /><path clip-path="url(#clip170)" d="M 0 0 M2114.33 212.665 Q2113.62 212.249 2112.76 212.063 Q2111.93 211.855 2110.91 211.855 Q2107.3 211.855 2105.35 214.216 Q2103.43 216.554 2103.43 220.952 L2103.43 234.61 L2099.15 234.61 L2099.15 208.684 L2103.43 208.684 L2103.43 212.712 Q2104.77 210.35 2106.93 209.216 Q2109.08 208.059 2112.16 208.059 Q2112.6 208.059 2113.13 208.128 Q2113.66 208.175 2114.31 208.29 L2114.33 212.665 Z" fill="#000000" fill-rule="evenodd" fill-opacity="1" /><path clip-path="url(#clip170)" d="M 0 0 M2139.94 220.582 L2139.94 222.665 L2120.35 222.665 Q2120.63 227.063 2122.99 229.378 Q2125.38 231.67 2129.61 231.67 Q2132.07 231.67 2134.36 231.068 Q2136.67 230.466 2138.94 229.262 L2138.94 233.29 Q2136.65 234.262 2134.24 234.772 Q2131.83 235.281 2129.36 235.281 Q2123.15 235.281 2119.52 231.67 Q2115.91 228.059 2115.91 221.901 Q2115.91 215.536 2119.33 211.809 Q2122.78 208.059 2128.62 208.059 Q2133.85 208.059 2136.88 211.438 Q2139.94 214.795 2139.94 220.582 M2135.68 219.332 Q2135.63 215.837 2133.71 213.753 Q2131.81 211.67 2128.66 211.67 Q2125.1 211.67 2122.95 213.684 Q2120.82 215.698 2120.49 219.355 L2135.68 219.332 Z" fill="#000000" fill-rule="evenodd" fill-opacity="1" /><path clip-path="url(#clip170)" d="M 0 0 M2161.46 221.346 Q2161.46 216.716 2159.54 214.17 Q2157.64 211.624 2154.2 211.624 Q2150.77 211.624 2148.85 214.17 Q2146.95 216.716 2146.95 221.346 Q2146.95 225.952 2148.85 228.498 Q2150.77 231.045 2154.2 231.045 Q2157.64 231.045 2159.54 228.498 Q2161.46 225.952 2161.46 221.346 M2165.72 231.392 Q2165.72 238.012 2162.78 241.23 Q2159.84 244.471 2153.78 244.471 Q2151.53 244.471 2149.54 244.123 Q2147.55 243.799 2145.68 243.105 L2145.68 238.961 Q2147.55 239.98 2149.38 240.466 Q2151.21 240.952 2153.11 240.952 Q2157.3 240.952 2159.38 238.753 Q2161.46 236.577 2161.46 232.156 L2161.46 230.049 Q2160.14 232.341 2158.08 233.475 Q2156.02 234.61 2153.15 234.61 Q2148.39 234.61 2145.47 230.975 Q2142.55 227.341 2142.55 221.346 Q2142.55 215.327 2145.47 211.693 Q2148.39 208.059 2153.15 208.059 Q2156.02 208.059 2158.08 209.193 Q2160.14 210.327 2161.46 212.619 L2161.46 208.684 L2165.72 208.684 L2165.72 231.392 Z" fill="#000000" fill-rule="evenodd" fill-opacity="1" /><path clip-path="url(#clip170)" d="M 0 0 M2170.19 208.684 L2174.45 208.684 L2174.45 234.61 L2170.19 234.61 L2170.19 208.684 M2170.19 198.591 L2174.45 198.591 L2174.45 203.985 L2170.19 203.985 L2170.19 198.591 Z" fill="#000000" fill-rule="evenodd" fill-opacity="1" /><path clip-path="url(#clip170)" d="M 0 0 M2188.96 211.67 Q2185.54 211.67 2183.55 214.355 Q2181.56 217.017 2181.56 221.67 Q2181.56 226.323 2183.52 229.008 Q2185.51 231.67 2188.96 231.67 Q2192.37 231.67 2194.36 228.985 Q2196.35 226.299 2196.35 221.67 Q2196.35 217.063 2194.36 214.378 Q2192.37 211.67 2188.96 211.67 M2188.96 208.059 Q2194.52 208.059 2197.69 211.67 Q2200.86 215.281 2200.86 221.67 Q2200.86 228.036 2197.69 231.67 Q2194.52 235.281 2188.96 235.281 Q2183.39 235.281 2180.21 231.67 Q2177.07 228.036 2177.07 221.67 Q2177.07 215.281 2180.21 211.67 Q2183.39 208.059 2188.96 208.059 Z" fill="#000000" fill-rule="evenodd" fill-opacity="1" /><path clip-path="url(#clip170)" d="M 0 0 M2226.88 218.961 L2226.88 234.61 L2222.62 234.61 L2222.62 219.1 Q2222.62 215.42 2221.19 213.591 Q2219.75 211.762 2216.88 211.762 Q2213.43 211.762 2211.44 213.962 Q2209.45 216.161 2209.45 219.957 L2209.45 234.61 L2205.17 234.61 L2205.17 208.684 L2209.45 208.684 L2209.45 212.712 Q2210.98 210.374 2213.04 209.216 Q2215.12 208.059 2217.83 208.059 Q2222.3 208.059 2224.59 210.837 Q2226.88 213.591 2226.88 218.961 Z" fill="#000000" fill-rule="evenodd" fill-opacity="1" /><path clip-path="url(#clip170)" d="
M1519.75 302.002 L1670.81 302.002 L1670.81 253.618 L1519.75 253.618 L1519.75 302.002  Z
  " fill="#ffa500" fill-rule="evenodd" fill-opacity="0.5"/>
<polyline clip-path="url(#clip170)" style="stroke:#ffa500; stroke-width:4; stroke-opacity:1; fill:none" points="
  1519.75,253.618 1670.81,253.618 
  "/>
<path clip-path="url(#clip170)" d="M 0 0 M1700.38 282.15 Q1700.38 286.849 1702.3 289.534 Q1704.24 292.196 1707.62 292.196 Q1711 292.196 1712.95 289.534 Q1714.89 286.849 1714.89 282.15 Q1714.89 277.451 1712.95 274.789 Q1711 272.104 1707.62 272.104 Q1704.24 272.104 1702.3 274.789 Q1700.38 277.451 1700.38 282.15 M1714.89 291.201 Q1713.55 293.515 1711.49 294.65 Q1709.45 295.761 1706.58 295.761 Q1701.88 295.761 1698.92 292.011 Q1695.98 288.261 1695.98 282.15 Q1695.98 276.039 1698.92 272.289 Q1701.88 268.539 1706.58 268.539 Q1709.45 268.539 1711.49 269.673 Q1713.55 270.784 1714.89 273.099 L1714.89 269.164 L1719.15 269.164 L1719.15 304.951 L1714.89 304.951 L1714.89 291.201 Z" fill="#000000" fill-rule="evenodd" fill-opacity="1" /><path clip-path="url(#clip170)" d="M 0 0 M1724.36 294.372 L1724.36 290.113 Q1726.12 290.946 1727.92 291.386 Q1729.73 291.826 1731.47 291.826 Q1736.1 291.826 1738.53 288.724 Q1740.98 285.599 1741.33 279.256 Q1739.98 281.247 1737.92 282.312 Q1735.86 283.377 1733.36 283.377 Q1728.18 283.377 1725.15 280.252 Q1722.14 277.104 1722.14 271.664 Q1722.14 266.34 1725.29 263.122 Q1728.43 259.905 1733.67 259.905 Q1739.66 259.905 1742.81 264.511 Q1745.98 269.094 1745.98 277.844 Q1745.98 286.016 1742.09 290.9 Q1738.23 295.761 1731.67 295.761 Q1729.92 295.761 1728.11 295.414 Q1726.3 295.066 1724.36 294.372 M1733.67 279.719 Q1736.81 279.719 1738.64 277.566 Q1740.49 275.414 1740.49 271.664 Q1740.49 267.937 1738.64 265.784 Q1736.81 263.608 1733.67 263.608 Q1730.52 263.608 1728.67 265.784 Q1726.84 267.937 1726.84 271.664 Q1726.84 275.414 1728.67 277.566 Q1730.52 279.719 1733.67 279.719 Z" fill="#000000" fill-rule="evenodd" fill-opacity="1" /><path clip-path="url(#clip170)" d="M 0 0 M1751.1 260.53 L1769.45 260.53 L1769.45 264.465 L1755.38 264.465 L1755.38 272.937 Q1756.4 272.59 1757.42 272.428 Q1758.43 272.242 1759.45 272.242 Q1765.24 272.242 1768.62 275.414 Q1772 278.585 1772 284.002 Q1772 289.58 1768.53 292.682 Q1765.05 295.761 1758.73 295.761 Q1756.56 295.761 1754.29 295.39 Q1752.04 295.02 1749.64 294.279 L1749.64 289.58 Q1751.72 290.715 1753.94 291.27 Q1756.17 291.826 1758.64 291.826 Q1762.65 291.826 1764.98 289.719 Q1767.32 287.613 1767.32 284.002 Q1767.32 280.391 1764.98 278.284 Q1762.65 276.178 1758.64 276.178 Q1756.77 276.178 1754.89 276.594 Q1753.04 277.011 1751.1 277.891 L1751.1 260.53 Z" fill="#000000" fill-rule="evenodd" fill-opacity="1" /><polyline clip-path="url(#clip170)" style="stroke:#0000ff; stroke-width:4; stroke-opacity:1; fill:none" points="
  1519.75,338.29 1670.81,338.29 
  "/>
<path clip-path="url(#clip170)" d="M 0 0 M1716.33 334.621 Q1717.92 331.75 1720.15 330.385 Q1722.37 329.019 1725.38 329.019 Q1729.43 329.019 1731.63 331.866 Q1733.83 334.69 1733.83 339.921 L1733.83 355.57 L1729.54 355.57 L1729.54 340.06 Q1729.54 336.334 1728.23 334.528 Q1726.91 332.722 1724.2 332.722 Q1720.89 332.722 1718.97 334.922 Q1717.04 337.121 1717.04 340.917 L1717.04 355.57 L1712.76 355.57 L1712.76 340.06 Q1712.76 336.31 1711.44 334.528 Q1710.12 332.722 1707.37 332.722 Q1704.11 332.722 1702.18 334.945 Q1700.26 337.144 1700.26 340.917 L1700.26 355.57 L1695.98 355.57 L1695.98 329.644 L1700.26 329.644 L1700.26 333.672 Q1701.72 331.287 1703.76 330.153 Q1705.79 329.019 1708.6 329.019 Q1711.42 329.019 1713.39 330.454 Q1715.38 331.889 1716.33 334.621 Z" fill="#000000" fill-rule="evenodd" fill-opacity="1" /><path clip-path="url(#clip170)" d="M 0 0 M1760.47 341.542 L1760.47 343.625 L1740.89 343.625 Q1741.17 348.023 1743.53 350.338 Q1745.91 352.63 1750.15 352.63 Q1752.6 352.63 1754.89 352.028 Q1757.21 351.426 1759.48 350.222 L1759.48 354.25 Q1757.18 355.222 1754.78 355.732 Q1752.37 356.241 1749.89 356.241 Q1743.69 356.241 1740.05 352.63 Q1736.44 349.019 1736.44 342.861 Q1736.44 336.496 1739.87 332.769 Q1743.32 329.019 1749.15 329.019 Q1754.38 329.019 1757.42 332.398 Q1760.47 335.755 1760.47 341.542 M1756.21 340.292 Q1756.17 336.797 1754.24 334.713 Q1752.35 332.63 1749.2 332.63 Q1745.63 332.63 1743.48 334.644 Q1741.35 336.658 1741.03 340.315 L1756.21 340.292 Z" fill="#000000" fill-rule="evenodd" fill-opacity="1" /><path clip-path="url(#clip170)" d="M 0 0 M1776.72 342.537 Q1771.56 342.537 1769.57 343.718 Q1767.58 344.898 1767.58 347.746 Q1767.58 350.014 1769.06 351.357 Q1770.56 352.676 1773.13 352.676 Q1776.67 352.676 1778.8 350.176 Q1780.96 347.653 1780.96 343.486 L1780.96 342.537 L1776.72 342.537 M1785.22 340.778 L1785.22 355.57 L1780.96 355.57 L1780.96 351.634 Q1779.5 353.995 1777.32 355.13 Q1775.15 356.241 1772 356.241 Q1768.02 356.241 1765.66 354.019 Q1763.32 351.773 1763.32 348.023 Q1763.32 343.648 1766.23 341.426 Q1769.17 339.204 1774.98 339.204 L1780.96 339.204 L1780.96 338.787 Q1780.96 335.847 1779.01 334.25 Q1777.09 332.63 1773.6 332.63 Q1771.37 332.63 1769.27 333.162 Q1767.16 333.695 1765.22 334.759 L1765.22 330.824 Q1767.55 329.922 1769.75 329.482 Q1771.95 329.019 1774.04 329.019 Q1779.66 329.019 1782.44 331.935 Q1785.22 334.852 1785.22 340.778 Z" fill="#000000" fill-rule="evenodd" fill-opacity="1" /><path clip-path="url(#clip170)" d="M 0 0 M1811.23 339.921 L1811.23 355.57 L1806.97 355.57 L1806.97 340.06 Q1806.97 336.38 1805.54 334.551 Q1804.1 332.722 1801.23 332.722 Q1797.79 332.722 1795.79 334.922 Q1793.8 337.121 1793.8 340.917 L1793.8 355.57 L1789.52 355.57 L1789.52 329.644 L1793.8 329.644 L1793.8 333.672 Q1795.33 331.334 1797.39 330.176 Q1799.48 329.019 1802.18 329.019 Q1806.65 329.019 1808.94 331.797 Q1811.23 334.551 1811.23 339.921 Z" fill="#000000" fill-rule="evenodd" fill-opacity="1" /><polyline clip-path="url(#clip170)" style="stroke:#000000; stroke-width:4; stroke-opacity:1; fill:none" points="
  1519.75,398.77 1670.81,398.77 
  "/>
<path clip-path="url(#clip170)" d="M 0 0 M1716.33 395.101 Q1717.92 392.23 1720.15 390.865 Q1722.37 389.499 1725.38 389.499 Q1729.43 389.499 1731.63 392.346 Q1733.83 395.17 1733.83 400.401 L1733.83 416.05 L1729.54 416.05 L1729.54 400.54 Q1729.54 396.814 1728.23 395.008 Q1726.91 393.202 1724.2 393.202 Q1720.89 393.202 1718.97 395.402 Q1717.04 397.601 1717.04 401.397 L1717.04 416.05 L1712.76 416.05 L1712.76 400.54 Q1712.76 396.79 1711.44 395.008 Q1710.12 393.202 1707.37 393.202 Q1704.11 393.202 1702.18 395.425 Q1700.26 397.624 1700.26 401.397 L1700.26 416.05 L1695.98 416.05 L1695.98 390.124 L1700.26 390.124 L1700.26 394.152 Q1701.72 391.767 1703.76 390.633 Q1705.79 389.499 1708.6 389.499 Q1711.42 389.499 1713.39 390.934 Q1715.38 392.369 1716.33 395.101 Z" fill="#000000" fill-rule="evenodd" fill-opacity="1" /><path clip-path="url(#clip170)" d="M 0 0 M1760.47 402.022 L1760.47 404.105 L1740.89 404.105 Q1741.17 408.503 1743.53 410.818 Q1745.91 413.11 1750.15 413.11 Q1752.6 413.11 1754.89 412.508 Q1757.21 411.906 1759.48 410.702 L1759.48 414.73 Q1757.18 415.702 1754.78 416.212 Q1752.37 416.721 1749.89 416.721 Q1743.69 416.721 1740.05 413.11 Q1736.44 409.499 1736.44 403.341 Q1736.44 396.976 1739.87 393.249 Q1743.32 389.499 1749.15 389.499 Q1754.38 389.499 1757.42 392.878 Q1760.47 396.235 1760.47 402.022 M1756.21 400.772 Q1756.17 397.277 1754.24 395.193 Q1752.35 393.11 1749.2 393.11 Q1745.63 393.11 1743.48 395.124 Q1741.35 397.138 1741.03 400.795 L1756.21 400.772 Z" fill="#000000" fill-rule="evenodd" fill-opacity="1" /><path clip-path="url(#clip170)" d="M 0 0 M1782 394.059 L1782 380.031 L1786.26 380.031 L1786.26 416.05 L1782 416.05 L1782 412.161 Q1780.66 414.475 1778.6 415.61 Q1776.56 416.721 1773.69 416.721 Q1768.99 416.721 1766.03 412.971 Q1763.09 409.221 1763.09 403.11 Q1763.09 396.999 1766.03 393.249 Q1768.99 389.499 1773.69 389.499 Q1776.56 389.499 1778.6 390.633 Q1780.66 391.744 1782 394.059 M1767.48 403.11 Q1767.48 407.809 1769.41 410.494 Q1771.35 413.156 1774.73 413.156 Q1778.11 413.156 1780.05 410.494 Q1782 407.809 1782 403.11 Q1782 398.411 1780.05 395.749 Q1778.11 393.064 1774.73 393.064 Q1771.35 393.064 1769.41 395.749 Q1767.48 398.411 1767.48 403.11 Z" fill="#000000" fill-rule="evenodd" fill-opacity="1" /><path clip-path="url(#clip170)" d="M 0 0 M1790.73 390.124 L1794.98 390.124 L1794.98 416.05 L1790.73 416.05 L1790.73 390.124 M1790.73 380.031 L1794.98 380.031 L1794.98 385.425 L1790.73 385.425 L1790.73 380.031 Z" fill="#000000" fill-rule="evenodd" fill-opacity="1" /><path clip-path="url(#clip170)" d="M 0 0 M1811.23 403.017 Q1806.07 403.017 1804.08 404.198 Q1802.09 405.378 1802.09 408.226 Q1802.09 410.494 1803.57 411.837 Q1805.08 413.156 1807.65 413.156 Q1811.19 413.156 1813.32 410.656 Q1815.47 408.133 1815.47 403.966 L1815.47 403.017 L1811.23 403.017 M1819.73 401.258 L1819.73 416.05 L1815.47 416.05 L1815.47 412.114 Q1814.01 414.475 1811.84 415.61 Q1809.66 416.721 1806.51 416.721 Q1802.53 416.721 1800.17 414.499 Q1797.83 412.253 1797.83 408.503 Q1797.83 404.128 1800.75 401.906 Q1803.69 399.684 1809.5 399.684 L1815.47 399.684 L1815.47 399.267 Q1815.47 396.327 1813.53 394.73 Q1811.6 393.11 1808.11 393.11 Q1805.89 393.11 1803.78 393.642 Q1801.67 394.175 1799.73 395.239 L1799.73 391.304 Q1802.07 390.402 1804.27 389.962 Q1806.47 389.499 1808.55 389.499 Q1814.17 389.499 1816.95 392.415 Q1819.73 395.332 1819.73 401.258 Z" fill="#000000" fill-rule="evenodd" fill-opacity="1" /><path clip-path="url(#clip170)" d="M 0 0 M1845.75 400.401 L1845.75 416.05 L1841.49 416.05 L1841.49 400.54 Q1841.49 396.86 1840.05 395.031 Q1838.62 393.202 1835.75 393.202 Q1832.3 393.202 1830.31 395.402 Q1828.32 397.601 1828.32 401.397 L1828.32 416.05 L1824.04 416.05 L1824.04 390.124 L1828.32 390.124 L1828.32 394.152 Q1829.85 391.814 1831.91 390.656 Q1833.99 389.499 1836.7 389.499 Q1841.16 389.499 1843.46 392.277 Q1845.75 395.031 1845.75 400.401 Z" fill="#000000" fill-rule="evenodd" fill-opacity="1" /></svg>
