<?xml version="1.0" encoding="utf-8"?>
<svg xmlns="http://www.w3.org/2000/svg" xmlns:xlink="http://www.w3.org/1999/xlink" width="600" height="400" viewBox="0 0 2400 1600">
<defs>
  <clipPath id="clip290">
    <rect x="0" y="0" width="2400" height="1600"/>
  </clipPath>
</defs>
<path clip-path="url(#clip290)" d="
M0 1600 L2400 1600 L2400 0 L0 0  Z
  " fill="#ffffff" fill-rule="evenodd" fill-opacity="1"/>
<defs>
  <clipPath id="clip291">
    <rect x="480" y="0" width="1681" height="1600"/>
  </clipPath>
</defs>
<path clip-path="url(#clip290)" d="
M86.9921 1521.01 L2352.76 1521.01 L2352.76 47.2441 L86.9921 47.2441  Z
  " fill="#ffffff" fill-rule="evenodd" fill-opacity="1"/>
<defs>
  <clipPath id="clip292">
    <rect x="86" y="47" width="2267" height="1475"/>
  </clipPath>
</defs>
<polyline clip-path="url(#clip292)" style="stroke:#000000; stroke-width:2; stroke-opacity:0.1; fill:none" points="
  256.913,1521.01 256.913,47.2441 
  "/>
<polyline clip-path="url(#clip292)" style="stroke:#000000; stroke-width:2; stroke-opacity:0.1; fill:none" points="
  588.344,1521.01 588.344,47.2441 
  "/>
<polyline clip-path="url(#clip292)" style="stroke:#000000; stroke-width:2; stroke-opacity:0.1; fill:none" points="
  919.774,1521.01 919.774,47.2441 
  "/>
<polyline clip-path="url(#clip292)" style="stroke:#000000; stroke-width:2; stroke-opacity:0.1; fill:none" points="
  1251.21,1521.01 1251.21,47.2441 
  "/>
<polyline clip-path="url(#clip292)" style="stroke:#000000; stroke-width:2; stroke-opacity:0.1; fill:none" points="
  1582.64,1521.01 1582.64,47.2441 
  "/>
<polyline clip-path="url(#clip292)" style="stroke:#000000; stroke-width:2; stroke-opacity:0.1; fill:none" points="
  1914.07,1521.01 1914.07,47.2441 
  "/>
<polyline clip-path="url(#clip292)" style="stroke:#000000; stroke-width:2; stroke-opacity:0.1; fill:none" points="
  2245.5,1521.01 2245.5,47.2441 
  "/>
<polyline clip-path="url(#clip292)" style="stroke:#000000; stroke-width:2; stroke-opacity:0.1; fill:none" points="
  86.9921,1479.3 2352.76,1479.3 
  "/>
<polyline clip-path="url(#clip292)" style="stroke:#000000; stroke-width:2; stroke-opacity:0.1; fill:none" points="
  86.9921,1163.14 2352.76,1163.14 
  "/>
<polyline clip-path="url(#clip292)" style="stroke:#000000; stroke-width:2; stroke-opacity:0.1; fill:none" points="
  86.9921,846.992 2352.76,846.992 
  "/>
<polyline clip-path="url(#clip292)" style="stroke:#000000; stroke-width:2; stroke-opacity:0.1; fill:none" points="
  86.9921,530.839 2352.76,530.839 
  "/>
<polyline clip-path="url(#clip292)" style="stroke:#000000; stroke-width:2; stroke-opacity:0.1; fill:none" points="
  86.9921,214.686 2352.76,214.686 
  "/>
<polyline clip-path="url(#clip290)" style="stroke:#000000; stroke-width:4; stroke-opacity:1; fill:none" points="
  86.9921,1521.01 2352.76,1521.01 
  "/>
<polyline clip-path="url(#clip290)" style="stroke:#000000; stroke-width:4; stroke-opacity:1; fill:none" points="
  86.9921,1521.01 86.9921,47.2441 
  "/>
<polyline clip-path="url(#clip290)" style="stroke:#000000; stroke-width:4; stroke-opacity:1; fill:none" points="
  256.913,1521.01 256.913,1503.32 
  "/>
<polyline clip-path="url(#clip290)" style="stroke:#000000; stroke-width:4; stroke-opacity:1; fill:none" points="
  588.344,1521.01 588.344,1503.32 
  "/>
<polyline clip-path="url(#clip290)" style="stroke:#000000; stroke-width:4; stroke-opacity:1; fill:none" points="
  919.774,1521.01 919.774,1503.32 
  "/>
<polyline clip-path="url(#clip290)" style="stroke:#000000; stroke-width:4; stroke-opacity:1; fill:none" points="
  1251.21,1521.01 1251.21,1503.32 
  "/>
<polyline clip-path="url(#clip290)" style="stroke:#000000; stroke-width:4; stroke-opacity:1; fill:none" points="
  1582.64,1521.01 1582.64,1503.32 
  "/>
<polyline clip-path="url(#clip290)" style="stroke:#000000; stroke-width:4; stroke-opacity:1; fill:none" points="
  1914.07,1521.01 1914.07,1503.32 
  "/>
<polyline clip-path="url(#clip290)" style="stroke:#000000; stroke-width:4; stroke-opacity:1; fill:none" points="
  2245.5,1521.01 2245.5,1503.32 
  "/>
<polyline clip-path="url(#clip290)" style="stroke:#000000; stroke-width:4; stroke-opacity:1; fill:none" points="
  86.9921,1479.3 114.181,1479.3 
  "/>
<polyline clip-path="url(#clip290)" style="stroke:#000000; stroke-width:4; stroke-opacity:1; fill:none" points="
  86.9921,1163.14 114.181,1163.14 
  "/>
<polyline clip-path="url(#clip290)" style="stroke:#000000; stroke-width:4; stroke-opacity:1; fill:none" points="
  86.9921,846.992 114.181,846.992 
  "/>
<polyline clip-path="url(#clip290)" style="stroke:#000000; stroke-width:4; stroke-opacity:1; fill:none" points="
  86.9921,530.839 114.181,530.839 
  "/>
<polyline clip-path="url(#clip290)" style="stroke:#000000; stroke-width:4; stroke-opacity:1; fill:none" points="
  86.9921,214.686 114.181,214.686 
  "/>
<path clip-path="url(#clip290)" d="M 0 0 M218.73 1559.6 L231.207 1559.6 L231.207 1563.39 L218.73 1563.39 L218.73 1559.6 Z" fill="#000000" fill-rule="evenodd" fill-opacity="1" /><path clip-path="url(#clip290)" d="M 0 0 M246.276 1543 Q242.665 1543 240.836 1546.56 Q239.031 1550.11 239.031 1557.23 Q239.031 1564.34 240.836 1567.91 Q242.665 1571.45 246.276 1571.45 Q249.91 1571.45 251.716 1567.91 Q253.545 1564.34 253.545 1557.23 Q253.545 1550.11 251.716 1546.56 Q249.91 1543 246.276 1543 M246.276 1539.29 Q252.086 1539.29 255.142 1543.9 Q258.221 1548.48 258.221 1557.23 Q258.221 1565.96 255.142 1570.57 Q252.086 1575.15 246.276 1575.15 Q240.466 1575.15 237.387 1570.57 Q234.332 1565.96 234.332 1557.23 Q234.332 1548.48 237.387 1543.9 Q240.466 1539.29 246.276 1539.29 Z" fill="#000000" fill-rule="evenodd" fill-opacity="1" /><path clip-path="url(#clip290)" d="M 0 0 M263.29 1568.6 L268.174 1568.6 L268.174 1574.48 L263.29 1574.48 L263.29 1568.6 Z" fill="#000000" fill-rule="evenodd" fill-opacity="1" /><path clip-path="url(#clip290)" d="M 0 0 M283.244 1558.07 Q279.91 1558.07 277.989 1559.85 Q276.091 1561.63 276.091 1564.76 Q276.091 1567.88 277.989 1569.67 Q279.91 1571.45 283.244 1571.45 Q286.577 1571.45 288.498 1569.67 Q290.42 1567.86 290.42 1564.76 Q290.42 1561.63 288.498 1559.85 Q286.6 1558.07 283.244 1558.07 M278.568 1556.08 Q275.558 1555.34 273.869 1553.28 Q272.202 1551.22 272.202 1548.25 Q272.202 1544.11 275.142 1541.7 Q278.105 1539.29 283.244 1539.29 Q288.406 1539.29 291.345 1541.7 Q294.285 1544.11 294.285 1548.25 Q294.285 1551.22 292.595 1553.28 Q290.929 1555.34 287.943 1556.08 Q291.322 1556.86 293.197 1559.16 Q295.095 1561.45 295.095 1564.76 Q295.095 1569.78 292.017 1572.47 Q288.961 1575.15 283.244 1575.15 Q277.526 1575.15 274.447 1572.47 Q271.392 1569.78 271.392 1564.76 Q271.392 1561.45 273.29 1559.16 Q275.188 1556.86 278.568 1556.08 M276.855 1548.69 Q276.855 1551.38 278.521 1552.88 Q280.211 1554.39 283.244 1554.39 Q286.253 1554.39 287.943 1552.88 Q289.656 1551.38 289.656 1548.69 Q289.656 1546.01 287.943 1544.5 Q286.253 1543 283.244 1543 Q280.211 1543 278.521 1544.5 Q276.855 1546.01 276.855 1548.69 Z" fill="#000000" fill-rule="evenodd" fill-opacity="1" /><path clip-path="url(#clip290)" d="M 0 0 M550.566 1559.6 L563.043 1559.6 L563.043 1563.39 L550.566 1563.39 L550.566 1559.6 Z" fill="#000000" fill-rule="evenodd" fill-opacity="1" /><path clip-path="url(#clip290)" d="M 0 0 M578.112 1543 Q574.501 1543 572.672 1546.56 Q570.867 1550.11 570.867 1557.23 Q570.867 1564.34 572.672 1567.91 Q574.501 1571.45 578.112 1571.45 Q581.746 1571.45 583.552 1567.91 Q585.381 1564.34 585.381 1557.23 Q585.381 1550.11 583.552 1546.56 Q581.746 1543 578.112 1543 M578.112 1539.29 Q583.922 1539.29 586.978 1543.9 Q590.057 1548.48 590.057 1557.23 Q590.057 1565.96 586.978 1570.57 Q583.922 1575.15 578.112 1575.15 Q572.302 1575.15 569.223 1570.57 Q566.168 1565.96 566.168 1557.23 Q566.168 1548.48 569.223 1543.9 Q572.302 1539.29 578.112 1539.29 Z" fill="#000000" fill-rule="evenodd" fill-opacity="1" /><path clip-path="url(#clip290)" d="M 0 0 M595.126 1568.6 L600.01 1568.6 L600.01 1574.48 L595.126 1574.48 L595.126 1568.6 Z" fill="#000000" fill-rule="evenodd" fill-opacity="1" /><path clip-path="url(#clip290)" d="M 0 0 M603.899 1539.92 L626.121 1539.92 L626.121 1541.91 L613.575 1574.48 L608.691 1574.48 L620.496 1543.86 L603.899 1543.86 L603.899 1539.92 Z" fill="#000000" fill-rule="evenodd" fill-opacity="1" /><path clip-path="url(#clip290)" d="M 0 0 M881.464 1559.6 L893.941 1559.6 L893.941 1563.39 L881.464 1563.39 L881.464 1559.6 Z" fill="#000000" fill-rule="evenodd" fill-opacity="1" /><path clip-path="url(#clip290)" d="M 0 0 M909.011 1543 Q905.399 1543 903.571 1546.56 Q901.765 1550.11 901.765 1557.23 Q901.765 1564.34 903.571 1567.91 Q905.399 1571.45 909.011 1571.45 Q912.645 1571.45 914.45 1567.91 Q916.279 1564.34 916.279 1557.23 Q916.279 1550.11 914.45 1546.56 Q912.645 1543 909.011 1543 M909.011 1539.29 Q914.821 1539.29 917.876 1543.9 Q920.955 1548.48 920.955 1557.23 Q920.955 1565.96 917.876 1570.57 Q914.821 1575.15 909.011 1575.15 Q903.2 1575.15 900.122 1570.57 Q897.066 1565.96 897.066 1557.23 Q897.066 1548.48 900.122 1543.9 Q903.2 1539.29 909.011 1539.29 Z" fill="#000000" fill-rule="evenodd" fill-opacity="1" /><path clip-path="url(#clip290)" d="M 0 0 M926.024 1568.6 L930.909 1568.6 L930.909 1574.48 L926.024 1574.48 L926.024 1568.6 Z" fill="#000000" fill-rule="evenodd" fill-opacity="1" /><path clip-path="url(#clip290)" d="M 0 0 M946.557 1555.34 Q943.409 1555.34 941.557 1557.49 Q939.728 1559.64 939.728 1563.39 Q939.728 1567.12 941.557 1569.29 Q943.409 1571.45 946.557 1571.45 Q949.705 1571.45 951.533 1569.29 Q953.385 1567.12 953.385 1563.39 Q953.385 1559.64 951.533 1557.49 Q949.705 1555.34 946.557 1555.34 M955.839 1540.68 L955.839 1544.94 Q954.08 1544.11 952.274 1543.67 Q950.492 1543.23 948.733 1543.23 Q944.103 1543.23 941.649 1546.36 Q939.219 1549.48 938.871 1555.8 Q940.237 1553.79 942.297 1552.72 Q944.358 1551.63 946.834 1551.63 Q952.043 1551.63 955.052 1554.8 Q958.084 1557.95 958.084 1563.39 Q958.084 1568.72 954.936 1571.93 Q951.788 1575.15 946.557 1575.15 Q940.561 1575.15 937.39 1570.57 Q934.219 1565.96 934.219 1557.23 Q934.219 1549.04 938.108 1544.18 Q941.996 1539.29 948.547 1539.29 Q950.307 1539.29 952.089 1539.64 Q953.895 1539.99 955.839 1540.68 Z" fill="#000000" fill-rule="evenodd" fill-opacity="1" /><path clip-path="url(#clip290)" d="M 0 0 M1213.47 1559.6 L1225.95 1559.6 L1225.95 1563.39 L1213.47 1563.39 L1213.47 1559.6 Z" fill="#000000" fill-rule="evenodd" fill-opacity="1" /><path clip-path="url(#clip290)" d="M 0 0 M1241.02 1543 Q1237.41 1543 1235.58 1546.56 Q1233.77 1550.11 1233.77 1557.23 Q1233.77 1564.34 1235.58 1567.91 Q1237.41 1571.45 1241.02 1571.45 Q1244.65 1571.45 1246.46 1567.91 Q1248.29 1564.34 1248.29 1557.23 Q1248.29 1550.11 1246.46 1546.56 Q1244.65 1543 1241.02 1543 M1241.02 1539.29 Q1246.83 1539.29 1249.89 1543.9 Q1252.96 1548.48 1252.96 1557.23 Q1252.96 1565.96 1249.89 1570.57 Q1246.83 1575.15 1241.02 1575.15 Q1235.21 1575.15 1232.13 1570.57 Q1229.08 1565.96 1229.08 1557.23 Q1229.08 1548.48 1232.13 1543.9 Q1235.21 1539.29 1241.02 1539.29 Z" fill="#000000" fill-rule="evenodd" fill-opacity="1" /><path clip-path="url(#clip290)" d="M 0 0 M1258.03 1568.6 L1262.92 1568.6 L1262.92 1574.48 L1258.03 1574.48 L1258.03 1568.6 Z" fill="#000000" fill-rule="evenodd" fill-opacity="1" /><path clip-path="url(#clip290)" d="M 0 0 M1268.03 1539.92 L1286.39 1539.92 L1286.39 1543.86 L1272.32 1543.86 L1272.32 1552.33 Q1273.33 1551.98 1274.35 1551.82 Q1275.37 1551.63 1276.39 1551.63 Q1282.18 1551.63 1285.56 1554.8 Q1288.94 1557.98 1288.94 1563.39 Q1288.94 1568.97 1285.46 1572.07 Q1281.99 1575.15 1275.67 1575.15 Q1273.5 1575.15 1271.23 1574.78 Q1268.98 1574.41 1266.58 1573.67 L1266.58 1568.97 Q1268.66 1570.1 1270.88 1570.66 Q1273.1 1571.22 1275.58 1571.22 Q1279.58 1571.22 1281.92 1569.11 Q1284.26 1567 1284.26 1563.39 Q1284.26 1559.78 1281.92 1557.67 Q1279.58 1555.57 1275.58 1555.57 Q1273.71 1555.57 1271.83 1555.98 Q1269.98 1556.4 1268.03 1557.28 L1268.03 1539.92 Z" fill="#000000" fill-rule="evenodd" fill-opacity="1" /><path clip-path="url(#clip290)" d="M 0 0 M1544.16 1559.6 L1556.64 1559.6 L1556.64 1563.39 L1544.16 1563.39 L1544.16 1559.6 Z" fill="#000000" fill-rule="evenodd" fill-opacity="1" /><path clip-path="url(#clip290)" d="M 0 0 M1571.71 1543 Q1568.1 1543 1566.27 1546.56 Q1564.46 1550.11 1564.46 1557.23 Q1564.46 1564.34 1566.27 1567.91 Q1568.1 1571.45 1571.71 1571.45 Q1575.34 1571.45 1577.15 1567.91 Q1578.98 1564.34 1578.98 1557.23 Q1578.98 1550.11 1577.15 1546.56 Q1575.34 1543 1571.71 1543 M1571.71 1539.29 Q1577.52 1539.29 1580.58 1543.9 Q1583.65 1548.48 1583.65 1557.23 Q1583.65 1565.96 1580.58 1570.57 Q1577.52 1575.15 1571.71 1575.15 Q1565.9 1575.15 1562.82 1570.57 Q1559.77 1565.96 1559.77 1557.23 Q1559.77 1548.48 1562.82 1543.9 Q1565.9 1539.29 1571.71 1539.29 Z" fill="#000000" fill-rule="evenodd" fill-opacity="1" /><path clip-path="url(#clip290)" d="M 0 0 M1588.72 1568.6 L1593.61 1568.6 L1593.61 1574.48 L1588.72 1574.48 L1588.72 1568.6 Z" fill="#000000" fill-rule="evenodd" fill-opacity="1" /><path clip-path="url(#clip290)" d="M 0 0 M1611.52 1543.99 L1599.72 1562.44 L1611.52 1562.44 L1611.52 1543.99 M1610.3 1539.92 L1616.18 1539.92 L1616.18 1562.44 L1621.11 1562.44 L1621.11 1566.33 L1616.18 1566.33 L1616.18 1574.48 L1611.52 1574.48 L1611.52 1566.33 L1595.92 1566.33 L1595.92 1561.82 L1610.3 1539.92 Z" fill="#000000" fill-rule="evenodd" fill-opacity="1" /><path clip-path="url(#clip290)" d="M 0 0 M1876.16 1559.6 L1888.64 1559.6 L1888.64 1563.39 L1876.16 1563.39 L1876.16 1559.6 Z" fill="#000000" fill-rule="evenodd" fill-opacity="1" /><path clip-path="url(#clip290)" d="M 0 0 M1903.71 1543 Q1900.1 1543 1898.27 1546.56 Q1896.46 1550.11 1896.46 1557.23 Q1896.46 1564.34 1898.27 1567.91 Q1900.1 1571.45 1903.71 1571.45 Q1907.34 1571.45 1909.15 1567.91 Q1910.98 1564.34 1910.98 1557.23 Q1910.98 1550.11 1909.15 1546.56 Q1907.34 1543 1903.71 1543 M1903.71 1539.29 Q1909.52 1539.29 1912.57 1543.9 Q1915.65 1548.48 1915.65 1557.23 Q1915.65 1565.96 1912.57 1570.57 Q1909.52 1575.15 1903.71 1575.15 Q1897.9 1575.15 1894.82 1570.57 Q1891.76 1565.96 1891.76 1557.23 Q1891.76 1548.48 1894.82 1543.9 Q1897.9 1539.29 1903.71 1539.29 Z" fill="#000000" fill-rule="evenodd" fill-opacity="1" /><path clip-path="url(#clip290)" d="M 0 0 M1920.72 1568.6 L1925.61 1568.6 L1925.61 1574.48 L1920.72 1574.48 L1920.72 1568.6 Z" fill="#000000" fill-rule="evenodd" fill-opacity="1" /><path clip-path="url(#clip290)" d="M 0 0 M1944.84 1555.85 Q1948.2 1556.56 1950.07 1558.83 Q1951.97 1561.1 1951.97 1564.43 Q1951.97 1569.55 1948.45 1572.35 Q1944.93 1575.15 1938.45 1575.15 Q1936.28 1575.15 1933.96 1574.71 Q1931.67 1574.29 1929.22 1573.44 L1929.22 1568.92 Q1931.16 1570.06 1933.48 1570.64 Q1935.79 1571.22 1938.31 1571.22 Q1942.71 1571.22 1945 1569.48 Q1947.32 1567.74 1947.32 1564.43 Q1947.32 1561.38 1945.17 1559.67 Q1943.04 1557.93 1939.22 1557.93 L1935.19 1557.93 L1935.19 1554.09 L1939.4 1554.09 Q1942.85 1554.09 1944.68 1552.72 Q1946.51 1551.33 1946.51 1548.74 Q1946.51 1546.08 1944.61 1544.67 Q1942.74 1543.23 1939.22 1543.23 Q1937.3 1543.23 1935.1 1543.65 Q1932.9 1544.06 1930.26 1544.94 L1930.26 1540.78 Q1932.92 1540.04 1935.24 1539.67 Q1937.57 1539.29 1939.63 1539.29 Q1944.96 1539.29 1948.06 1541.73 Q1951.16 1544.13 1951.16 1548.25 Q1951.16 1551.12 1949.52 1553.11 Q1947.87 1555.08 1944.84 1555.85 Z" fill="#000000" fill-rule="evenodd" fill-opacity="1" /><path clip-path="url(#clip290)" d="M 0 0 M2208.07 1559.6 L2220.54 1559.6 L2220.54 1563.39 L2208.07 1563.39 L2208.07 1559.6 Z" fill="#000000" fill-rule="evenodd" fill-opacity="1" /><path clip-path="url(#clip290)" d="M 0 0 M2235.61 1543 Q2232 1543 2230.17 1546.56 Q2228.37 1550.11 2228.37 1557.23 Q2228.37 1564.34 2230.17 1567.91 Q2232 1571.45 2235.61 1571.45 Q2239.25 1571.45 2241.05 1567.91 Q2242.88 1564.34 2242.88 1557.23 Q2242.88 1550.11 2241.05 1546.56 Q2239.25 1543 2235.61 1543 M2235.61 1539.29 Q2241.42 1539.29 2244.48 1543.9 Q2247.56 1548.48 2247.56 1557.23 Q2247.56 1565.96 2244.48 1570.57 Q2241.42 1575.15 2235.61 1575.15 Q2229.8 1575.15 2226.72 1570.57 Q2223.67 1565.96 2223.67 1557.23 Q2223.67 1548.48 2226.72 1543.9 Q2229.8 1539.29 2235.61 1539.29 Z" fill="#000000" fill-rule="evenodd" fill-opacity="1" /><path clip-path="url(#clip290)" d="M 0 0 M2252.63 1568.6 L2257.51 1568.6 L2257.51 1574.48 L2252.63 1574.48 L2252.63 1568.6 Z" fill="#000000" fill-rule="evenodd" fill-opacity="1" /><path clip-path="url(#clip290)" d="M 0 0 M2266.61 1570.54 L2282.93 1570.54 L2282.93 1574.48 L2260.98 1574.48 L2260.98 1570.54 Q2263.65 1567.79 2268.23 1563.16 Q2272.84 1558.51 2274.02 1557.17 Q2276.26 1554.64 2277.14 1552.91 Q2278.04 1551.15 2278.04 1549.46 Q2278.04 1546.7 2276.1 1544.97 Q2274.18 1543.23 2271.08 1543.23 Q2268.88 1543.23 2266.42 1543.99 Q2263.99 1544.76 2261.22 1546.31 L2261.22 1541.59 Q2264.04 1540.45 2266.49 1539.87 Q2268.95 1539.29 2270.98 1539.29 Q2276.35 1539.29 2279.55 1541.98 Q2282.74 1544.67 2282.74 1549.16 Q2282.74 1551.29 2281.93 1553.21 Q2281.15 1555.1 2279.04 1557.7 Q2278.46 1558.37 2275.36 1561.59 Q2272.26 1564.78 2266.61 1570.54 Z" fill="#000000" fill-rule="evenodd" fill-opacity="1" /><path clip-path="url(#clip290)" d="M 0 0 M51.0477 1465.1 Q47.4367 1465.1 45.608 1468.66 Q43.8024 1472.2 43.8024 1479.33 Q43.8024 1486.44 45.608 1490 Q47.4367 1493.55 51.0477 1493.55 Q54.682 1493.55 56.4875 1490 Q58.3162 1486.44 58.3162 1479.33 Q58.3162 1472.2 56.4875 1468.66 Q54.682 1465.1 51.0477 1465.1 M51.0477 1461.39 Q56.8579 1461.39 59.9134 1466 Q62.9921 1470.58 62.9921 1479.33 Q62.9921 1488.06 59.9134 1492.67 Q56.8579 1497.25 51.0477 1497.25 Q45.2376 1497.25 42.1589 1492.67 Q39.1034 1488.06 39.1034 1479.33 Q39.1034 1470.58 42.1589 1466 Q45.2376 1461.39 51.0477 1461.39 Z" fill="#000000" fill-rule="evenodd" fill-opacity="1" /><path clip-path="url(#clip290)" d="M 0 0 M43.0848 1176.49 L50.7237 1176.49 L50.7237 1150.12 L42.4135 1151.79 L42.4135 1147.53 L50.6774 1145.86 L55.3533 1145.86 L55.3533 1176.49 L62.9921 1176.49 L62.9921 1180.42 L43.0848 1180.42 L43.0848 1176.49 Z" fill="#000000" fill-rule="evenodd" fill-opacity="1" /><path clip-path="url(#clip290)" d="M 0 0 M46.6728 860.336 L62.9921 860.336 L62.9921 864.272 L41.0478 864.272 L41.0478 860.336 Q43.7098 857.582 48.2931 852.952 Q52.8996 848.299 54.0801 846.957 Q56.3255 844.434 57.2051 842.698 Q58.1079 840.938 58.1079 839.249 Q58.1079 836.494 56.1635 834.758 Q54.2422 833.022 51.1403 833.022 Q48.9413 833.022 46.4876 833.786 Q44.057 834.549 41.2793 836.1 L41.2793 831.378 Q44.1033 830.244 46.557 829.665 Q49.0107 829.087 51.0477 829.087 Q56.4181 829.087 59.6125 831.772 Q62.8069 834.457 62.8069 838.948 Q62.8069 841.077 61.9968 842.999 Q61.2097 844.897 59.1033 847.489 Q58.5246 848.161 55.4227 851.378 Q52.3209 854.573 46.6728 860.336 Z" fill="#000000" fill-rule="evenodd" fill-opacity="1" /><path clip-path="url(#clip290)" d="M 0 0 M55.8625 529.484 Q59.219 530.202 61.094 532.47 Q62.9921 534.739 62.9921 538.072 Q62.9921 543.188 59.4736 545.989 Q55.9551 548.79 49.4737 548.79 Q47.2978 548.79 44.983 548.35 Q42.6913 547.933 40.2376 547.077 L40.2376 542.563 Q42.1821 543.697 44.4969 544.276 Q46.8117 544.855 49.3348 544.855 Q53.7329 544.855 56.0246 543.119 Q58.3394 541.382 58.3394 538.072 Q58.3394 535.017 56.1866 533.304 Q54.057 531.568 50.2376 531.568 L46.2098 531.568 L46.2098 527.725 L50.4227 527.725 Q53.8718 527.725 55.7005 526.359 Q57.5292 524.971 57.5292 522.378 Q57.5292 519.716 55.6311 518.304 Q53.7561 516.869 50.2376 516.869 Q48.3163 516.869 46.1172 517.285 Q43.9182 517.702 41.2793 518.582 L41.2793 514.415 Q43.9413 513.674 46.2561 513.304 Q48.5941 512.934 50.6542 512.934 Q55.9783 512.934 59.0801 515.364 Q62.1819 517.771 62.1819 521.892 Q62.1819 524.762 60.5384 526.753 Q58.8949 528.72 55.8625 529.484 Z" fill="#000000" fill-rule="evenodd" fill-opacity="1" /><path clip-path="url(#clip290)" d="M 0 0 M53.4088 201.48 L41.6034 219.929 L53.4088 219.929 L53.4088 201.48 M52.182 197.406 L58.0616 197.406 L58.0616 219.929 L62.9921 219.929 L62.9921 223.817 L58.0616 223.817 L58.0616 231.966 L53.4088 231.966 L53.4088 223.817 L37.8071 223.817 L37.8071 219.304 L52.182 197.406 Z" fill="#000000" fill-rule="evenodd" fill-opacity="1" /><path clip-path="url(#clip292)" d="
M151.118 1478.36 L157.533 1478.37 L163.948 1478.4 L170.363 1478.44 L176.779 1478.5 L183.194 1478.57 L189.609 1478.65 L196.025 1478.73 L202.44 1478.81 L208.855 1478.89 
  L215.27 1478.96 L221.686 1479.02 L228.101 1479.07 L234.516 1479.11 L240.932 1479.14 L247.347 1479.15 L253.762 1479.15 L260.178 1479.13 L266.593 1479.08 L273.008 1479.01 
  L279.423 1478.9 L285.839 1478.76 L292.254 1478.57 L298.669 1478.33 L305.085 1478.03 L311.5 1477.67 L317.915 1477.25 L324.331 1476.76 L330.746 1476.22 L337.161 1475.63 
  L343.576 1475 L349.992 1474.35 L356.407 1473.68 L362.822 1473.01 L369.238 1472.35 L375.653 1471.7 L382.068 1471.06 L388.484 1470.4 L394.899 1469.71 L401.314 1468.96 
  L407.729 1468.1 L414.145 1467.08 L420.56 1465.86 L426.975 1464.39 L433.391 1462.6 L439.806 1460.45 L446.221 1457.88 L452.636 1454.85 L459.052 1451.31 L465.467 1447.25 
  L471.882 1442.63 L478.298 1437.46 L484.713 1431.75 L491.128 1425.56 L497.544 1418.96 L503.959 1412.05 L510.374 1404.98 L516.789 1397.9 L523.205 1390.99 L529.62 1384.44 
  L536.035 1378.42 L542.451 1373.09 L548.866 1368.55 L555.281 1364.88 L561.697 1362.08 L568.112 1360.09 L574.527 1358.8 L580.942 1358.04 L587.358 1357.6 L593.773 1357.22 
  L600.188 1356.66 L606.604 1355.67 L613.019 1354 L619.434 1351.48 L625.85 1347.95 L632.265 1343.33 L638.68 1337.59 L645.095 1330.76 L651.511 1322.93 L657.926 1314.25 
  L664.341 1304.86 L670.757 1294.96 L677.172 1284.73 L683.587 1274.32 L690.002 1263.83 L696.418 1253.34 L702.833 1242.83 L709.248 1232.24 L715.664 1221.47 L722.079 1210.38 
  L728.494 1198.81 L734.91 1186.63 L741.325 1173.74 L747.74 1160.1 L754.155 1145.74 L760.571 1130.76 L766.986 1115.32 L773.401 1099.64 L779.817 1083.94 L786.232 1068.45 
  L786.232 1479.3 L779.817 1479.3 L773.401 1479.3 L766.986 1479.3 L760.571 1479.3 L754.155 1479.3 L747.74 1479.3 L741.325 1479.3 L734.91 1479.3 L728.494 1479.3 
  L722.079 1479.3 L715.664 1479.3 L709.248 1479.3 L702.833 1479.3 L696.418 1479.3 L690.002 1479.3 L683.587 1479.3 L677.172 1479.3 L670.757 1479.3 L664.341 1479.3 
  L657.926 1479.3 L651.511 1479.3 L645.095 1479.3 L638.68 1479.3 L632.265 1479.3 L625.85 1479.3 L619.434 1479.3 L613.019 1479.3 L606.604 1479.3 L600.188 1479.3 
  L593.773 1479.3 L587.358 1479.3 L580.942 1479.3 L574.527 1479.3 L568.112 1479.3 L561.697 1479.3 L555.281 1479.3 L548.866 1479.3 L542.451 1479.3 L536.035 1479.3 
  L529.62 1479.3 L523.205 1479.3 L516.789 1479.3 L510.374 1479.3 L503.959 1479.3 L497.544 1479.3 L491.128 1479.3 L484.713 1479.3 L478.298 1479.3 L471.882 1479.3 
  L465.467 1479.3 L459.052 1479.3 L452.636 1479.3 L446.221 1479.3 L439.806 1479.3 L433.391 1479.3 L426.975 1479.3 L420.56 1479.3 L414.145 1479.3 L407.729 1479.3 
  L401.314 1479.3 L394.899 1479.3 L388.484 1479.3 L382.068 1479.3 L375.653 1479.3 L369.238 1479.3 L362.822 1479.3 L356.407 1479.3 L349.992 1479.3 L343.576 1479.3 
  L337.161 1479.3 L330.746 1479.3 L324.331 1479.3 L317.915 1479.3 L311.5 1479.3 L305.085 1479.3 L298.669 1479.3 L292.254 1479.3 L285.839 1479.3 L279.423 1479.3 
  L273.008 1479.3 L266.593 1479.3 L260.178 1479.3 L253.762 1479.3 L247.347 1479.3 L240.932 1479.3 L234.516 1479.3 L228.101 1479.3 L221.686 1479.3 L215.27 1479.3 
  L208.855 1479.3 L202.44 1479.3 L196.025 1479.3 L189.609 1479.3 L183.194 1479.3 L176.779 1479.3 L170.363 1479.3 L163.948 1479.3 L157.533 1479.3 L151.118 1479.3 
   Z
  " fill="#ffa500" fill-rule="evenodd" fill-opacity="0.5"/>
<polyline clip-path="url(#clip292)" style="stroke:#ffa500; stroke-width:4; stroke-opacity:1; fill:none" points="
  151.118,1478.36 157.533,1478.37 163.948,1478.4 170.363,1478.44 176.779,1478.5 183.194,1478.57 189.609,1478.65 196.025,1478.73 202.44,1478.81 208.855,1478.89 
  215.27,1478.96 221.686,1479.02 228.101,1479.07 234.516,1479.11 240.932,1479.14 247.347,1479.15 253.762,1479.15 260.178,1479.13 266.593,1479.08 273.008,1479.01 
  279.423,1478.9 285.839,1478.76 292.254,1478.57 298.669,1478.33 305.085,1478.03 311.5,1477.67 317.915,1477.25 324.331,1476.76 330.746,1476.22 337.161,1475.63 
  343.576,1475 349.992,1474.35 356.407,1473.68 362.822,1473.01 369.238,1472.35 375.653,1471.7 382.068,1471.06 388.484,1470.4 394.899,1469.71 401.314,1468.96 
  407.729,1468.1 414.145,1467.08 420.56,1465.86 426.975,1464.39 433.391,1462.6 439.806,1460.45 446.221,1457.88 452.636,1454.85 459.052,1451.31 465.467,1447.25 
  471.882,1442.63 478.298,1437.46 484.713,1431.75 491.128,1425.56 497.544,1418.96 503.959,1412.05 510.374,1404.98 516.789,1397.9 523.205,1390.99 529.62,1384.44 
  536.035,1378.42 542.451,1373.09 548.866,1368.55 555.281,1364.88 561.697,1362.08 568.112,1360.09 574.527,1358.8 580.942,1358.04 587.358,1357.6 593.773,1357.22 
  600.188,1356.66 606.604,1355.67 613.019,1354 619.434,1351.48 625.85,1347.95 632.265,1343.33 638.68,1337.59 645.095,1330.76 651.511,1322.93 657.926,1314.25 
  664.341,1304.86 670.757,1294.96 677.172,1284.73 683.587,1274.32 690.002,1263.83 696.418,1253.34 702.833,1242.83 709.248,1232.24 715.664,1221.47 722.079,1210.38 
  728.494,1198.81 734.91,1186.63 741.325,1173.74 747.74,1160.1 754.155,1145.74 760.571,1130.76 766.986,1115.32 773.401,1099.64 779.817,1083.94 786.232,1068.45 
  
  "/>
<path clip-path="url(#clip292)" d="
M786.232 1068.45 L796.497 1044.52 L806.762 1022.04 L817.027 1000.98 L827.291 980.898 L837.556 961.08 L847.821 940.751 L858.086 919.282 L868.351 896.328 L878.616 871.874 
  L888.881 846.209 L899.146 819.849 L909.411 793.421 L919.675 767.543 L929.94 742.713 L940.205 719.245 L950.47 697.267 L960.735 676.778 L971 657.747 L981.265 640.188 
  L991.53 624.165 L1001.79 609.701 L1012.06 596.614 L1022.32 584.348 L1032.59 571.874 L1042.85 557.74 L1053.12 540.282 L1063.38 517.981 L1073.65 489.868 L1083.91 455.884 
  L1094.18 417.056 L1104.44 375.432 L1114.71 333.752 L1124.97 294.93 L1135.24 261.477 L1145.5 235.019 L1155.77 216.058 L1166.03 204.01 L1176.3 197.494 L1186.56 194.769 
  L1196.83 194.154 L1207.09 194.306 L1217.36 194.305 L1227.62 193.548 L1237.89 191.558 L1248.15 187.809 L1258.42 181.697 L1268.68 172.664 L1278.95 160.462 L1289.21 145.441 
  L1299.48 128.743 L1309.74 112.293 L1320.01 98.5497 L1330.27 90.063 L1340.54 88.9544 L1350.8 96.484 L1361.07 112.827 L1371.33 137.112 L1381.6 167.675 L1391.86 202.419 
  L1402.12 239.157 L1412.39 275.862 L1422.65 310.828 L1432.92 342.757 L1443.18 370.846 L1453.45 394.85 L1463.71 415.127 L1473.98 432.59 L1484.24 448.567 L1494.51 464.538 
  L1504.77 481.837 L1515.04 501.351 L1525.3 523.322 L1535.57 547.302 L1545.83 572.281 L1556.1 596.978 L1566.36 620.201 L1576.63 641.186 L1586.89 659.81 L1597.16 676.614 
  L1607.42 692.643 L1617.69 709.155 L1627.95 727.307 L1638.22 747.902 L1648.48 771.262 L1658.75 797.233 L1669.01 825.295 L1679.28 854.712 L1689.54 884.661 L1699.81 914.311 
  L1710.07 942.862 L1720.34 969.559 L1730.6 993.749 L1740.87 1015 L1751.13 1033.24 L1761.4 1048.92 L1771.66 1063.07 L1781.93 1077.12 L1792.19 1092.68 L1802.46 1111.06 
  L1802.46 1479.3 L1792.19 1479.3 L1781.93 1479.3 L1771.66 1479.3 L1761.4 1479.3 L1751.13 1479.3 L1740.87 1479.3 L1730.6 1479.3 L1720.34 1479.3 L1710.07 1479.3 
  L1699.81 1479.3 L1689.54 1479.3 L1679.28 1479.3 L1669.01 1479.3 L1658.75 1479.3 L1648.48 1479.3 L1638.22 1479.3 L1627.95 1479.3 L1617.69 1479.3 L1607.42 1479.3 
  L1597.16 1479.3 L1586.89 1479.3 L1576.63 1479.3 L1566.36 1479.3 L1556.1 1479.3 L1545.83 1479.3 L1535.57 1479.3 L1525.3 1479.3 L1515.04 1479.3 L1504.77 1479.3 
  L1494.51 1479.3 L1484.24 1479.3 L1473.98 1479.3 L1463.71 1479.3 L1453.45 1479.3 L1443.18 1479.3 L1432.92 1479.3 L1422.65 1479.3 L1412.39 1479.3 L1402.12 1479.3 
  L1391.86 1479.3 L1381.6 1479.3 L1371.33 1479.3 L1361.07 1479.3 L1350.8 1479.3 L1340.54 1479.3 L1330.27 1479.3 L1320.01 1479.3 L1309.74 1479.3 L1299.48 1479.3 
  L1289.21 1479.3 L1278.95 1479.3 L1268.68 1479.3 L1258.42 1479.3 L1248.15 1479.3 L1237.89 1479.3 L1227.62 1479.3 L1217.36 1479.3 L1207.09 1479.3 L1196.83 1479.3 
  L1186.56 1479.3 L1176.3 1479.3 L1166.03 1479.3 L1155.77 1479.3 L1145.5 1479.3 L1135.24 1479.3 L1124.97 1479.3 L1114.71 1479.3 L1104.44 1479.3 L1094.18 1479.3 
  L1083.91 1479.3 L1073.65 1479.3 L1063.38 1479.3 L1053.12 1479.3 L1042.85 1479.3 L1032.59 1479.3 L1022.32 1479.3 L1012.06 1479.3 L1001.79 1479.3 L991.53 1479.3 
  L981.265 1479.3 L971 1479.3 L960.735 1479.3 L950.47 1479.3 L940.205 1479.3 L929.94 1479.3 L919.675 1479.3 L909.411 1479.3 L899.146 1479.3 L888.881 1479.3 
  L878.616 1479.3 L868.351 1479.3 L858.086 1479.3 L847.821 1479.3 L837.556 1479.3 L827.291 1479.3 L817.027 1479.3 L806.762 1479.3 L796.497 1479.3 L786.232 1479.3 
   Z
  " fill="#008000" fill-rule="evenodd" fill-opacity="0.5"/>
<polyline clip-path="url(#clip292)" style="stroke:#008000; stroke-width:4; stroke-opacity:1; fill:none" points="
  786.232,1068.45 796.497,1044.52 806.762,1022.04 817.027,1000.98 827.291,980.898 837.556,961.08 847.821,940.751 858.086,919.282 868.351,896.328 878.616,871.874 
  888.881,846.209 899.146,819.849 909.411,793.421 919.675,767.543 929.94,742.713 940.205,719.245 950.47,697.267 960.735,676.778 971,657.747 981.265,640.188 
  991.53,624.165 1001.79,609.701 1012.06,596.614 1022.32,584.348 1032.59,571.874 1042.85,557.74 1053.12,540.282 1063.38,517.981 1073.65,489.868 1083.91,455.884 
  1094.18,417.056 1104.44,375.432 1114.71,333.752 1124.97,294.93 1135.24,261.477 1145.5,235.019 1155.77,216.058 1166.03,204.01 1176.3,197.494 1186.56,194.769 
  1196.83,194.154 1207.09,194.306 1217.36,194.305 1227.62,193.548 1237.89,191.558 1248.15,187.809 1258.42,181.697 1268.68,172.664 1278.95,160.462 1289.21,145.441 
  1299.48,128.743 1309.74,112.293 1320.01,98.5497 1330.27,90.063 1340.54,88.9544 1350.8,96.484 1361.07,112.827 1371.33,137.112 1381.6,167.675 1391.86,202.419 
  1402.12,239.157 1412.39,275.862 1422.65,310.828 1432.92,342.757 1443.18,370.846 1453.45,394.85 1463.71,415.127 1473.98,432.59 1484.24,448.567 1494.51,464.538 
  1504.77,481.837 1515.04,501.351 1525.3,523.322 1535.57,547.302 1545.83,572.281 1556.1,596.978 1566.36,620.201 1576.63,641.186 1586.89,659.81 1597.16,676.614 
  1607.42,692.643 1617.69,709.155 1627.95,727.307 1638.22,747.902 1648.48,771.262 1658.75,797.233 1669.01,825.295 1679.28,854.712 1689.54,884.661 1699.81,914.311 
  1710.07,942.862 1720.34,969.559 1730.6,993.749 1740.87,1015 1751.13,1033.24 1761.4,1048.92 1771.66,1063.07 1781.93,1077.12 1792.19,1092.68 1802.46,1111.06 
  
  "/>
<path clip-path="url(#clip292)" d="
M1802.46 1111.06 L1807.37 1121.1 L1812.28 1131.96 L1817.19 1143.6 L1822.1 1155.94 L1827.01 1168.83 L1831.92 1182.12 L1836.83 1195.59 L1841.74 1209.05 L1846.65 1222.26 
  L1851.56 1235.02 L1856.47 1247.14 L1861.39 1258.45 L1866.3 1268.82 L1871.21 1278.16 L1876.12 1286.43 L1881.03 1293.6 L1885.94 1299.71 L1890.85 1304.83 L1895.76 1309.04 
  L1900.67 1312.48 L1905.58 1315.26 L1910.49 1317.53 L1915.4 1319.44 L1920.32 1321.13 L1925.23 1322.72 L1930.14 1324.33 L1935.05 1326.07 L1939.96 1328.02 L1944.87 1330.22 
  L1949.78 1332.74 L1954.69 1335.59 L1959.6 1338.78 L1964.51 1342.3 L1969.42 1346.13 L1974.34 1350.25 L1979.25 1354.6 L1984.16 1359.16 L1989.07 1363.86 L1993.98 1368.68 
  L1998.89 1373.56 L2003.8 1378.46 L2008.71 1383.34 L2013.62 1388.15 L2018.53 1392.86 L2023.44 1397.45 L2028.35 1401.88 L2033.27 1406.13 L2038.18 1410.19 L2043.09 1414.05 
  L2048 1417.69 L2052.91 1421.12 L2057.82 1424.34 L2062.73 1427.36 L2067.64 1430.18 L2072.55 1432.81 L2077.46 1435.26 L2082.37 1437.54 L2087.29 1439.67 L2092.2 1441.63 
  L2097.11 1443.43 L2102.02 1445.06 L2106.93 1446.52 L2111.84 1447.79 L2116.75 1448.86 L2121.66 1449.7 L2126.57 1450.31 L2131.48 1450.65 L2136.39 1450.73 L2141.3 1450.53 
  L2146.22 1450.06 L2151.13 1449.31 L2156.04 1448.31 L2160.95 1447.09 L2165.86 1445.67 L2170.77 1444.11 L2175.68 1442.45 L2180.59 1440.75 L2185.5 1439.08 L2190.41 1437.49 
  L2195.32 1436.05 L2200.23 1434.82 L2205.15 1433.85 L2210.06 1433.17 L2214.97 1432.82 L2219.88 1432.82 L2224.79 1433.18 L2229.7 1433.89 L2234.61 1434.93 L2239.52 1436.28 
  L2244.43 1437.9 L2249.34 1439.74 L2254.25 1441.77 L2259.17 1443.94 L2264.08 1446.2 L2268.99 1448.51 L2273.9 1450.83 L2278.81 1453.13 L2283.72 1455.38 L2288.63 1457.55 
  L2288.63 1479.3 L2283.72 1479.3 L2278.81 1479.3 L2273.9 1479.3 L2268.99 1479.3 L2264.08 1479.3 L2259.17 1479.3 L2254.25 1479.3 L2249.34 1479.3 L2244.43 1479.3 
  L2239.52 1479.3 L2234.61 1479.3 L2229.7 1479.3 L2224.79 1479.3 L2219.88 1479.3 L2214.97 1479.3 L2210.06 1479.3 L2205.15 1479.3 L2200.23 1479.3 L2195.32 1479.3 
  L2190.41 1479.3 L2185.5 1479.3 L2180.59 1479.3 L2175.68 1479.3 L2170.77 1479.3 L2165.86 1479.3 L2160.95 1479.3 L2156.04 1479.3 L2151.13 1479.3 L2146.22 1479.3 
  L2141.3 1479.3 L2136.39 1479.3 L2131.48 1479.3 L2126.57 1479.3 L2121.66 1479.3 L2116.75 1479.3 L2111.84 1479.3 L2106.93 1479.3 L2102.02 1479.3 L2097.11 1479.3 
  L2092.2 1479.3 L2087.29 1479.3 L2082.37 1479.3 L2077.46 1479.3 L2072.55 1479.3 L2067.64 1479.3 L2062.73 1479.3 L2057.82 1479.3 L2052.91 1479.3 L2048 1479.3 
  L2043.09 1479.3 L2038.18 1479.3 L2033.27 1479.3 L2028.35 1479.3 L2023.44 1479.3 L2018.53 1479.3 L2013.62 1479.3 L2008.71 1479.3 L2003.8 1479.3 L1998.89 1479.3 
  L1993.98 1479.3 L1989.07 1479.3 L1984.16 1479.3 L1979.25 1479.3 L1974.34 1479.3 L1969.42 1479.3 L1964.51 1479.3 L1959.6 1479.3 L1954.69 1479.3 L1949.78 1479.3 
  L1944.87 1479.3 L1939.96 1479.3 L1935.05 1479.3 L1930.14 1479.3 L1925.23 1479.3 L1920.32 1479.3 L1915.4 1479.3 L1910.49 1479.3 L1905.58 1479.3 L1900.67 1479.3 
  L1895.76 1479.3 L1890.85 1479.3 L1885.94 1479.3 L1881.03 1479.3 L1876.12 1479.3 L1871.21 1479.3 L1866.3 1479.3 L1861.39 1479.3 L1856.47 1479.3 L1851.56 1479.3 
  L1846.65 1479.3 L1841.74 1479.3 L1836.83 1479.3 L1831.92 1479.3 L1827.01 1479.3 L1822.1 1479.3 L1817.19 1479.3 L1812.28 1479.3 L1807.37 1479.3 L1802.46 1479.3 
   Z
  " fill="#ffa500" fill-rule="evenodd" fill-opacity="0.5"/>
<polyline clip-path="url(#clip292)" style="stroke:#ffa500; stroke-width:4; stroke-opacity:1; fill:none" points="
  1802.46,1111.06 1807.37,1121.1 1812.28,1131.96 1817.19,1143.6 1822.1,1155.94 1827.01,1168.83 1831.92,1182.12 1836.83,1195.59 1841.74,1209.05 1846.65,1222.26 
  1851.56,1235.02 1856.47,1247.14 1861.39,1258.45 1866.3,1268.82 1871.21,1278.16 1876.12,1286.43 1881.03,1293.6 1885.94,1299.71 1890.85,1304.83 1895.76,1309.04 
  1900.67,1312.48 1905.58,1315.26 1910.49,1317.53 1915.4,1319.44 1920.32,1321.13 1925.23,1322.72 1930.14,1324.33 1935.05,1326.07 1939.96,1328.02 1944.87,1330.22 
  1949.78,1332.74 1954.69,1335.59 1959.6,1338.78 1964.51,1342.3 1969.42,1346.13 1974.34,1350.25 1979.25,1354.6 1984.16,1359.16 1989.07,1363.86 1993.98,1368.68 
  1998.89,1373.56 2003.8,1378.46 2008.71,1383.34 2013.62,1388.15 2018.53,1392.86 2023.44,1397.45 2028.35,1401.88 2033.27,1406.13 2038.18,1410.19 2043.09,1414.05 
  2048,1417.69 2052.91,1421.12 2057.82,1424.34 2062.73,1427.36 2067.64,1430.18 2072.55,1432.81 2077.46,1435.26 2082.37,1437.54 2087.29,1439.67 2092.2,1441.63 
  2097.11,1443.43 2102.02,1445.06 2106.93,1446.52 2111.84,1447.79 2116.75,1448.86 2121.66,1449.7 2126.57,1450.31 2131.48,1450.65 2136.39,1450.73 2141.3,1450.53 
  2146.22,1450.06 2151.13,1449.31 2156.04,1448.31 2160.95,1447.09 2165.86,1445.67 2170.77,1444.11 2175.68,1442.45 2180.59,1440.75 2185.5,1439.08 2190.41,1437.49 
  2195.32,1436.05 2200.23,1434.82 2205.15,1433.85 2210.06,1433.17 2214.97,1432.82 2219.88,1432.82 2224.79,1433.18 2229.7,1433.89 2234.61,1434.93 2239.52,1436.28 
  2244.43,1437.9 2249.34,1439.74 2254.25,1441.77 2259.17,1443.94 2264.08,1446.2 2268.99,1448.51 2273.9,1450.83 2278.81,1453.13 2283.72,1455.38 2288.63,1457.55 
  
  "/>
<polyline clip-path="url(#clip292)" style="stroke:#0000ff; stroke-width:4; stroke-opacity:1; fill:none" points="
  1286.43,1479.3 1286.43,149.738 
  "/>
<polyline clip-path="url(#clip292)" style="stroke:#000000; stroke-width:4; stroke-opacity:1; fill:none" points="
  1285.96,1479.3 1285.96,150.451 
  "/>
<path clip-path="url(#clip290)" d="
M1494.58 459.25 L2277.23 459.25 L2277.23 96.3696 L1494.58 96.3696  Z
  " fill="#ffffff" fill-rule="evenodd" fill-opacity="1"/>
<polyline clip-path="url(#clip290)" style="stroke:#000000; stroke-width:4; stroke-opacity:1; fill:none" points="
  1494.58,459.25 2277.23,459.25 2277.23,96.3696 1494.58,96.3696 1494.58,459.25 
  "/>
<path clip-path="url(#clip290)" d="
M1519.75 181.042 L1670.81 181.042 L1670.81 132.658 L1519.75 132.658 L1519.75 181.042  Z
  " fill="#ffa500" fill-rule="evenodd" fill-opacity="0.5"/>
<polyline clip-path="url(#clip290)" style="stroke:#ffa500; stroke-width:4; stroke-opacity:1; fill:none" points="
  1519.75,132.658 1670.81,132.658 
  "/>
<path clip-path="url(#clip290)" d="M 0 0 M1700.38 161.19 Q1700.38 165.889 1702.3 168.574 Q1704.24 171.236 1707.62 171.236 Q1711 171.236 1712.95 168.574 Q1714.89 165.889 1714.89 161.19 Q1714.89 156.491 1712.95 153.829 Q1711 151.144 1707.62 151.144 Q1704.24 151.144 1702.3 153.829 Q1700.38 156.491 1700.38 161.19 M1714.89 170.241 Q1713.55 172.555 1711.49 173.69 Q1709.45 174.801 1706.58 174.801 Q1701.88 174.801 1698.92 171.051 Q1695.98 167.301 1695.98 161.19 Q1695.98 155.079 1698.92 151.329 Q1701.88 147.579 1706.58 147.579 Q1709.45 147.579 1711.49 148.713 Q1713.55 149.824 1714.89 152.139 L1714.89 148.204 L1719.15 148.204 L1719.15 183.991 L1714.89 183.991 L1714.89 170.241 Z" fill="#000000" fill-rule="evenodd" fill-opacity="1" /><path clip-path="url(#clip290)" d="M 0 0 M1734.22 142.648 Q1730.61 142.648 1728.78 146.213 Q1726.98 149.755 1726.98 156.884 Q1726.98 163.991 1728.78 167.556 Q1730.61 171.097 1734.22 171.097 Q1737.85 171.097 1739.66 167.556 Q1741.49 163.991 1741.49 156.884 Q1741.49 149.755 1739.66 146.213 Q1737.85 142.648 1734.22 142.648 M1734.22 138.945 Q1740.03 138.945 1743.09 143.551 Q1746.17 148.134 1746.17 156.884 Q1746.17 165.611 1743.09 170.218 Q1740.03 174.801 1734.22 174.801 Q1728.41 174.801 1725.33 170.218 Q1722.28 165.611 1722.28 156.884 Q1722.28 148.134 1725.33 143.551 Q1728.41 138.945 1734.22 138.945 Z" fill="#000000" fill-rule="evenodd" fill-opacity="1" /><path clip-path="url(#clip290)" d="M 0 0 M1751.28 139.57 L1769.64 139.57 L1769.64 143.505 L1755.56 143.505 L1755.56 151.977 Q1756.58 151.63 1757.6 151.468 Q1758.62 151.282 1759.64 151.282 Q1765.42 151.282 1768.8 154.454 Q1772.18 157.625 1772.18 163.042 Q1772.18 168.62 1768.71 171.722 Q1765.24 174.801 1758.92 174.801 Q1756.74 174.801 1754.48 174.43 Q1752.23 174.06 1749.82 173.319 L1749.82 168.62 Q1751.91 169.755 1754.13 170.31 Q1756.35 170.866 1758.83 170.866 Q1762.83 170.866 1765.17 168.759 Q1767.51 166.653 1767.51 163.042 Q1767.51 159.431 1765.17 157.324 Q1762.83 155.218 1758.83 155.218 Q1756.95 155.218 1755.08 155.634 Q1753.23 156.051 1751.28 156.931 L1751.28 139.57 Z" fill="#000000" fill-rule="evenodd" fill-opacity="1" /><path clip-path="url(#clip290)" d="
M1519.75 241.522 L1670.81 241.522 L1670.81 193.138 L1519.75 193.138 L1519.75 241.522  Z
  " fill="#008000" fill-rule="evenodd" fill-opacity="0.5"/>
<polyline clip-path="url(#clip290)" style="stroke:#008000; stroke-width:4; stroke-opacity:1; fill:none" points="
  1519.75,193.138 1670.81,193.138 
  "/>
<path clip-path="url(#clip290)" d="M 0 0 M1698.2 233.892 L1698.2 229.633 Q1699.96 230.466 1701.77 230.906 Q1703.57 231.346 1705.31 231.346 Q1709.94 231.346 1712.37 228.244 Q1714.82 225.119 1715.17 218.776 Q1713.83 220.767 1711.77 221.832 Q1709.71 222.897 1707.21 222.897 Q1702.02 222.897 1698.99 219.772 Q1695.98 216.624 1695.98 211.184 Q1695.98 205.86 1699.13 202.642 Q1702.28 199.425 1707.51 199.425 Q1713.5 199.425 1716.65 204.031 Q1719.82 208.614 1719.82 217.364 Q1719.82 225.536 1715.93 230.42 Q1712.07 235.281 1705.52 235.281 Q1703.76 235.281 1701.95 234.934 Q1700.15 234.586 1698.2 233.892 M1707.51 219.239 Q1710.66 219.239 1712.48 217.086 Q1714.34 214.934 1714.34 211.184 Q1714.34 207.457 1712.48 205.304 Q1710.66 203.128 1707.51 203.128 Q1704.36 203.128 1702.51 205.304 Q1700.68 207.457 1700.68 211.184 Q1700.68 214.934 1702.51 217.086 Q1704.36 219.239 1707.51 219.239 Z" fill="#000000" fill-rule="evenodd" fill-opacity="1" /><path clip-path="url(#clip290)" d="M 0 0 M1734.89 203.128 Q1731.28 203.128 1729.45 206.693 Q1727.65 210.235 1727.65 217.364 Q1727.65 224.471 1729.45 228.036 Q1731.28 231.577 1734.89 231.577 Q1738.53 231.577 1740.33 228.036 Q1742.16 224.471 1742.16 217.364 Q1742.16 210.235 1740.33 206.693 Q1738.53 203.128 1734.89 203.128 M1734.89 199.425 Q1740.7 199.425 1743.76 204.031 Q1746.84 208.614 1746.84 217.364 Q1746.84 226.091 1743.76 230.698 Q1740.7 235.281 1734.89 235.281 Q1729.08 235.281 1726 230.698 Q1722.95 226.091 1722.95 217.364 Q1722.95 208.614 1726 204.031 Q1729.08 199.425 1734.89 199.425 Z" fill="#000000" fill-rule="evenodd" fill-opacity="1" /><path clip-path="url(#clip290)" d="M 0 0 M1781.3 219.401 Q1779.29 219.401 1778.13 221.114 Q1777 222.827 1777 225.883 Q1777 228.892 1778.13 230.628 Q1779.29 232.341 1781.3 232.341 Q1783.27 232.341 1784.41 230.628 Q1785.56 228.892 1785.56 225.883 Q1785.56 222.85 1784.41 221.137 Q1783.27 219.401 1781.3 219.401 M1781.3 216.462 Q1784.96 216.462 1787.11 219.008 Q1789.27 221.554 1789.27 225.883 Q1789.27 230.211 1787.09 232.758 Q1784.94 235.281 1781.3 235.281 Q1777.6 235.281 1775.45 232.758 Q1773.29 230.211 1773.29 225.883 Q1773.29 221.531 1775.45 219.008 Q1777.62 216.462 1781.3 216.462 M1757.42 202.364 Q1755.42 202.364 1754.27 204.1 Q1753.13 205.813 1753.13 208.823 Q1753.13 211.878 1754.27 213.591 Q1755.4 215.304 1757.42 215.304 Q1759.43 215.304 1760.56 213.591 Q1761.72 211.878 1761.72 208.823 Q1761.72 205.837 1760.56 204.1 Q1759.41 202.364 1757.42 202.364 M1778.32 199.425 L1782.02 199.425 L1760.4 235.281 L1756.7 235.281 L1778.32 199.425 M1757.42 199.425 Q1761.07 199.425 1763.25 201.971 Q1765.42 204.494 1765.42 208.823 Q1765.42 213.198 1763.25 215.721 Q1761.1 218.244 1757.42 218.244 Q1753.73 218.244 1751.58 215.721 Q1749.45 213.174 1749.45 208.823 Q1749.45 204.517 1751.6 201.971 Q1753.76 199.425 1757.42 199.425 Z" fill="#000000" fill-rule="evenodd" fill-opacity="1" /><path clip-path="url(#clip290)" d="M 0 0 M1830.35 218.961 L1830.35 234.61 L1826.1 234.61 L1826.1 219.1 Q1826.1 215.42 1824.66 213.591 Q1823.22 211.762 1820.35 211.762 Q1816.91 211.762 1814.91 213.962 Q1812.92 216.161 1812.92 219.957 L1812.92 234.61 L1808.64 234.61 L1808.64 208.684 L1812.92 208.684 L1812.92 212.712 Q1814.45 210.374 1816.51 209.216 Q1818.6 208.059 1821.3 208.059 Q1825.77 208.059 1828.06 210.837 Q1830.35 213.591 1830.35 218.961 Z" fill="#000000" fill-rule="evenodd" fill-opacity="1" /><path clip-path="url(#clip290)" d="M 0 0 M1844.87 211.67 Q1841.44 211.67 1839.45 214.355 Q1837.46 217.017 1837.46 221.67 Q1837.46 226.323 1839.43 229.008 Q1841.42 231.67 1844.87 231.67 Q1848.27 231.67 1850.26 228.985 Q1852.25 226.299 1852.25 221.67 Q1852.25 217.063 1850.26 214.378 Q1848.27 211.67 1844.87 211.67 M1844.87 208.059 Q1850.42 208.059 1853.6 211.67 Q1856.77 215.281 1856.77 221.67 Q1856.77 228.036 1853.6 231.67 Q1850.42 235.281 1844.87 235.281 Q1839.29 235.281 1836.12 231.67 Q1832.97 228.036 1832.97 221.67 Q1832.97 215.281 1836.12 211.67 Q1839.29 208.059 1844.87 208.059 Z" fill="#000000" fill-rule="evenodd" fill-opacity="1" /><path clip-path="url(#clip290)" d="M 0 0 M1882.78 218.961 L1882.78 234.61 L1878.53 234.61 L1878.53 219.1 Q1878.53 215.42 1877.09 213.591 Q1875.66 211.762 1872.78 211.762 Q1869.34 211.762 1867.35 213.962 Q1865.35 216.161 1865.35 219.957 L1865.35 234.61 L1861.07 234.61 L1861.07 208.684 L1865.35 208.684 L1865.35 212.712 Q1866.88 210.374 1868.94 209.216 Q1871.03 208.059 1873.73 208.059 Q1878.2 208.059 1880.49 210.837 Q1882.78 213.591 1882.78 218.961 Z" fill="#000000" fill-rule="evenodd" fill-opacity="1" /><path clip-path="url(#clip290)" d="M 0 0 M1885.1 219.725 L1897.58 219.725 L1897.58 223.522 L1885.1 223.522 L1885.1 219.725 Z" fill="#000000" fill-rule="evenodd" fill-opacity="1" /><path clip-path="url(#clip290)" d="M 0 0 M1917.07 212.665 Q1916.35 212.249 1915.49 212.063 Q1914.66 211.855 1913.64 211.855 Q1910.03 211.855 1908.09 214.216 Q1906.16 216.554 1906.16 220.952 L1906.16 234.61 L1901.88 234.61 L1901.88 208.684 L1906.16 208.684 L1906.16 212.712 Q1907.51 210.35 1909.66 209.216 Q1911.81 208.059 1914.89 208.059 Q1915.33 208.059 1915.86 208.128 Q1916.4 208.175 1917.04 208.29 L1917.07 212.665 Z" fill="#000000" fill-rule="evenodd" fill-opacity="1" /><path clip-path="url(#clip290)" d="M 0 0 M1942.67 220.582 L1942.67 222.665 L1923.09 222.665 Q1923.36 227.063 1925.72 229.378 Q1928.11 231.67 1932.34 231.67 Q1934.8 231.67 1937.09 231.068 Q1939.4 230.466 1941.67 229.262 L1941.67 233.29 Q1939.38 234.262 1936.97 234.772 Q1934.57 235.281 1932.09 235.281 Q1925.89 235.281 1922.25 231.67 Q1918.64 228.059 1918.64 221.901 Q1918.64 215.536 1922.07 211.809 Q1925.52 208.059 1931.35 208.059 Q1936.58 208.059 1939.61 211.438 Q1942.67 214.795 1942.67 220.582 M1938.41 219.332 Q1938.36 215.837 1936.44 213.753 Q1934.54 211.67 1931.4 211.67 Q1927.83 211.67 1925.68 213.684 Q1923.55 215.698 1923.22 219.355 L1938.41 219.332 Z" fill="#000000" fill-rule="evenodd" fill-opacity="1" /><path clip-path="url(#clip290)" d="M 0 0 M1947.14 208.684 L1951.4 208.684 L1951.4 235.073 Q1951.4 240.026 1949.5 242.248 Q1947.62 244.471 1943.43 244.471 L1941.81 244.471 L1941.81 240.86 L1942.95 240.86 Q1945.38 240.86 1946.26 239.725 Q1947.14 238.614 1947.14 235.073 L1947.14 208.684 M1947.14 198.591 L1951.4 198.591 L1951.4 203.985 L1947.14 203.985 L1947.14 198.591 Z" fill="#000000" fill-rule="evenodd" fill-opacity="1" /><path clip-path="url(#clip290)" d="M 0 0 M1978.04 220.582 L1978.04 222.665 L1958.46 222.665 Q1958.73 227.063 1961.09 229.378 Q1963.48 231.67 1967.71 231.67 Q1970.17 231.67 1972.46 231.068 Q1974.78 230.466 1977.04 229.262 L1977.04 233.29 Q1974.75 234.262 1972.34 234.772 Q1969.94 235.281 1967.46 235.281 Q1961.26 235.281 1957.62 231.67 Q1954.01 228.059 1954.01 221.901 Q1954.01 215.536 1957.44 211.809 Q1960.89 208.059 1966.72 208.059 Q1971.95 208.059 1974.98 211.438 Q1978.04 214.795 1978.04 220.582 M1973.78 219.332 Q1973.73 215.837 1971.81 213.753 Q1969.91 211.67 1966.77 211.67 Q1963.2 211.67 1961.05 213.684 Q1958.92 215.698 1958.59 219.355 L1973.78 219.332 Z" fill="#000000" fill-rule="evenodd" fill-opacity="1" /><path clip-path="url(#clip290)" d="M 0 0 M2001.16 209.679 L2001.16 213.661 Q1999.36 212.665 1997.53 212.179 Q1995.72 211.67 1993.87 211.67 Q1989.73 211.67 1987.44 214.309 Q1985.15 216.924 1985.15 221.67 Q1985.15 226.415 1987.44 229.054 Q1989.73 231.67 1993.87 231.67 Q1995.72 231.67 1997.53 231.184 Q1999.36 230.674 2001.16 229.679 L2001.16 233.614 Q1999.38 234.448 1997.46 234.864 Q1995.56 235.281 1993.41 235.281 Q1987.55 235.281 1984.1 231.6 Q1980.65 227.92 1980.65 221.67 Q1980.65 215.327 1984.13 211.693 Q1987.62 208.059 1993.69 208.059 Q1995.65 208.059 1997.53 208.475 Q1999.4 208.869 2001.16 209.679 Z" fill="#000000" fill-rule="evenodd" fill-opacity="1" /><path clip-path="url(#clip290)" d="M 0 0 M2009.84 201.323 L2009.84 208.684 L2018.62 208.684 L2018.62 211.994 L2009.84 211.994 L2009.84 226.068 Q2009.84 229.239 2010.7 230.142 Q2011.58 231.045 2014.24 231.045 L2018.62 231.045 L2018.62 234.61 L2014.24 234.61 Q2009.31 234.61 2007.44 232.781 Q2005.56 230.929 2005.56 226.068 L2005.56 211.994 L2002.44 211.994 L2002.44 208.684 L2005.56 208.684 L2005.56 201.323 L2009.84 201.323 Z" fill="#000000" fill-rule="evenodd" fill-opacity="1" /><path clip-path="url(#clip290)" d="M 0 0 M2023.08 208.684 L2027.34 208.684 L2027.34 234.61 L2023.08 234.61 L2023.08 208.684 M2023.08 198.591 L2027.34 198.591 L2027.34 203.985 L2023.08 203.985 L2023.08 198.591 Z" fill="#000000" fill-rule="evenodd" fill-opacity="1" /><path clip-path="url(#clip290)" d="M 0 0 M2041.86 211.67 Q2038.43 211.67 2036.44 214.355 Q2034.45 217.017 2034.45 221.67 Q2034.45 226.323 2036.42 229.008 Q2038.41 231.67 2041.86 231.67 Q2045.26 231.67 2047.25 228.985 Q2049.24 226.299 2049.24 221.67 Q2049.24 217.063 2047.25 214.378 Q2045.26 211.67 2041.86 211.67 M2041.86 208.059 Q2047.41 208.059 2050.58 211.67 Q2053.76 215.281 2053.76 221.67 Q2053.76 228.036 2050.58 231.67 Q2047.41 235.281 2041.86 235.281 Q2036.28 235.281 2033.11 231.67 Q2029.96 228.036 2029.96 221.67 Q2029.96 215.281 2033.11 211.67 Q2036.28 208.059 2041.86 208.059 Z" fill="#000000" fill-rule="evenodd" fill-opacity="1" /><path clip-path="url(#clip290)" d="M 0 0 M2079.77 218.961 L2079.77 234.61 L2075.52 234.61 L2075.52 219.1 Q2075.52 215.42 2074.08 213.591 Q2072.64 211.762 2069.77 211.762 Q2066.33 211.762 2064.33 213.962 Q2062.34 216.161 2062.34 219.957 L2062.34 234.61 L2058.06 234.61 L2058.06 208.684 L2062.34 208.684 L2062.34 212.712 Q2063.87 210.374 2065.93 209.216 Q2068.02 208.059 2070.72 208.059 Q2075.19 208.059 2077.48 210.837 Q2079.77 213.591 2079.77 218.961 Z" fill="#000000" fill-rule="evenodd" fill-opacity="1" /><path clip-path="url(#clip290)" d="M 0 0 M2114.33 212.665 Q2113.62 212.249 2112.76 212.063 Q2111.93 211.855 2110.91 211.855 Q2107.3 211.855 2105.35 214.216 Q2103.43 216.554 2103.43 220.952 L2103.43 234.61 L2099.15 234.61 L2099.15 208.684 L2103.43 208.684 L2103.43 212.712 Q2104.77 210.35 2106.93 209.216 Q2109.08 208.059 2112.16 208.059 Q2112.6 208.059 2113.13 208.128 Q2113.66 208.175 2114.31 208.29 L2114.33 212.665 Z" fill="#000000" fill-rule="evenodd" fill-opacity="1" /><path clip-path="url(#clip290)" d="M 0 0 M2139.94 220.582 L2139.94 222.665 L2120.35 222.665 Q2120.63 227.063 2122.99 229.378 Q2125.38 231.67 2129.61 231.67 Q2132.07 231.67 2134.36 231.068 Q2136.67 230.466 2138.94 229.262 L2138.94 233.29 Q2136.65 234.262 2134.24 234.772 Q2131.83 235.281 2129.36 235.281 Q2123.15 235.281 2119.52 231.67 Q2115.91 228.059 2115.91 221.901 Q2115.91 215.536 2119.33 211.809 Q2122.78 208.059 2128.62 208.059 Q2133.85 208.059 2136.88 211.438 Q2139.94 214.795 2139.94 220.582 M2135.68 219.332 Q2135.63 215.837 2133.71 213.753 Q2131.81 211.67 2128.66 211.67 Q2125.1 211.67 2122.95 213.684 Q2120.82 215.698 2120.49 219.355 L2135.68 219.332 Z" fill="#000000" fill-rule="evenodd" fill-opacity="1" /><path clip-path="url(#clip290)" d="M 0 0 M2161.46 221.346 Q2161.46 216.716 2159.54 214.17 Q2157.64 211.624 2154.2 211.624 Q2150.77 211.624 2148.85 214.17 Q2146.95 216.716 2146.95 221.346 Q2146.95 225.952 2148.85 228.498 Q2150.77 231.045 2154.2 231.045 Q2157.64 231.045 2159.54 228.498 Q2161.46 225.952 2161.46 221.346 M2165.72 231.392 Q2165.72 238.012 2162.78 241.23 Q2159.84 244.471 2153.78 244.471 Q2151.53 244.471 2149.54 244.123 Q2147.55 243.799 2145.68 243.105 L2145.68 238.961 Q2147.55 239.98 2149.38 240.466 Q2151.21 240.952 2153.11 240.952 Q2157.3 240.952 2159.38 238.753 Q2161.46 236.577 2161.46 232.156 L2161.46 230.049 Q2160.14 232.341 2158.08 233.475 Q2156.02 234.61 2153.15 234.61 Q2148.39 234.61 2145.47 230.975 Q2142.55 227.341 2142.55 221.346 Q2142.55 215.327 2145.47 211.693 Q2148.39 208.059 2153.15 208.059 Q2156.02 208.059 2158.08 209.193 Q2160.14 210.327 2161.46 212.619 L2161.46 208.684 L2165.72 208.684 L2165.72 231.392 Z" fill="#000000" fill-rule="evenodd" fill-opacity="1" /><path clip-path="url(#clip290)" d="M 0 0 M2170.19 208.684 L2174.45 208.684 L2174.45 234.61 L2170.19 234.61 L2170.19 208.684 M2170.19 198.591 L2174.45 198.591 L2174.45 203.985 L2170.19 203.985 L2170.19 198.591 Z" fill="#000000" fill-rule="evenodd" fill-opacity="1" /><path clip-path="url(#clip290)" d="M 0 0 M2188.96 211.67 Q2185.54 211.67 2183.55 214.355 Q2181.56 217.017 2181.56 221.67 Q2181.56 226.323 2183.52 229.008 Q2185.51 231.67 2188.96 231.67 Q2192.37 231.67 2194.36 228.985 Q2196.35 226.299 2196.35 221.67 Q2196.35 217.063 2194.36 214.378 Q2192.37 211.67 2188.96 211.67 M2188.96 208.059 Q2194.52 208.059 2197.69 211.67 Q2200.86 215.281 2200.86 221.67 Q2200.86 228.036 2197.69 231.67 Q2194.52 235.281 2188.96 235.281 Q2183.39 235.281 2180.21 231.67 Q2177.07 228.036 2177.07 221.67 Q2177.07 215.281 2180.21 211.67 Q2183.39 208.059 2188.96 208.059 Z" fill="#000000" fill-rule="evenodd" fill-opacity="1" /><path clip-path="url(#clip290)" d="M 0 0 M2226.88 218.961 L2226.88 234.61 L2222.62 234.61 L2222.62 219.1 Q2222.62 215.42 2221.19 213.591 Q2219.75 211.762 2216.88 211.762 Q2213.43 211.762 2211.44 213.962 Q2209.45 216.161 2209.45 219.957 L2209.45 234.61 L2205.17 234.61 L2205.17 208.684 L2209.45 208.684 L2209.45 212.712 Q2210.98 210.374 2213.04 209.216 Q2215.12 208.059 2217.83 208.059 Q2222.3 208.059 2224.59 210.837 Q2226.88 213.591 2226.88 218.961 Z" fill="#000000" fill-rule="evenodd" fill-opacity="1" /><path clip-path="url(#clip290)" d="
M1519.75 302.002 L1670.81 302.002 L1670.81 253.618 L1519.75 253.618 L1519.75 302.002  Z
  " fill="#ffa500" fill-rule="evenodd" fill-opacity="0.5"/>
<polyline clip-path="url(#clip290)" style="stroke:#ffa500; stroke-width:4; stroke-opacity:1; fill:none" points="
  1519.75,253.618 1670.81,253.618 
  "/>
<path clip-path="url(#clip290)" d="M 0 0 M1700.38 282.15 Q1700.38 286.849 1702.3 289.534 Q1704.24 292.196 1707.62 292.196 Q1711 292.196 1712.95 289.534 Q1714.89 286.849 1714.89 282.15 Q1714.89 277.451 1712.95 274.789 Q1711 272.104 1707.62 272.104 Q1704.24 272.104 1702.3 274.789 Q1700.38 277.451 1700.38 282.15 M1714.89 291.201 Q1713.55 293.515 1711.49 294.65 Q1709.45 295.761 1706.58 295.761 Q1701.88 295.761 1698.92 292.011 Q1695.98 288.261 1695.98 282.15 Q1695.98 276.039 1698.92 272.289 Q1701.88 268.539 1706.58 268.539 Q1709.45 268.539 1711.49 269.673 Q1713.55 270.784 1714.89 273.099 L1714.89 269.164 L1719.15 269.164 L1719.15 304.951 L1714.89 304.951 L1714.89 291.201 Z" fill="#000000" fill-rule="evenodd" fill-opacity="1" /><path clip-path="url(#clip290)" d="M 0 0 M1724.36 294.372 L1724.36 290.113 Q1726.12 290.946 1727.92 291.386 Q1729.73 291.826 1731.47 291.826 Q1736.1 291.826 1738.53 288.724 Q1740.98 285.599 1741.33 279.256 Q1739.98 281.247 1737.92 282.312 Q1735.86 283.377 1733.36 283.377 Q1728.18 283.377 1725.15 280.252 Q1722.14 277.104 1722.14 271.664 Q1722.14 266.34 1725.29 263.122 Q1728.43 259.905 1733.67 259.905 Q1739.66 259.905 1742.81 264.511 Q1745.98 269.094 1745.98 277.844 Q1745.98 286.016 1742.09 290.9 Q1738.23 295.761 1731.67 295.761 Q1729.92 295.761 1728.11 295.414 Q1726.3 295.066 1724.36 294.372 M1733.67 279.719 Q1736.81 279.719 1738.64 277.566 Q1740.49 275.414 1740.49 271.664 Q1740.49 267.937 1738.64 265.784 Q1736.81 263.608 1733.67 263.608 Q1730.52 263.608 1728.67 265.784 Q1726.84 267.937 1726.84 271.664 Q1726.84 275.414 1728.67 277.566 Q1730.52 279.719 1733.67 279.719 Z" fill="#000000" fill-rule="evenodd" fill-opacity="1" /><path clip-path="url(#clip290)" d="M 0 0 M1751.1 260.53 L1769.45 260.53 L1769.45 264.465 L1755.38 264.465 L1755.38 272.937 Q1756.4 272.59 1757.42 272.428 Q1758.43 272.242 1759.45 272.242 Q1765.24 272.242 1768.62 275.414 Q1772 278.585 1772 284.002 Q1772 289.58 1768.53 292.682 Q1765.05 295.761 1758.73 295.761 Q1756.56 295.761 1754.29 295.39 Q1752.04 295.02 1749.64 294.279 L1749.64 289.58 Q1751.72 290.715 1753.94 291.27 Q1756.17 291.826 1758.64 291.826 Q1762.65 291.826 1764.98 289.719 Q1767.32 287.613 1767.32 284.002 Q1767.32 280.391 1764.98 278.284 Q1762.65 276.178 1758.64 276.178 Q1756.77 276.178 1754.89 276.594 Q1753.04 277.011 1751.1 277.891 L1751.1 260.53 Z" fill="#000000" fill-rule="evenodd" fill-opacity="1" /><polyline clip-path="url(#clip290)" style="stroke:#0000ff; stroke-width:4; stroke-opacity:1; fill:none" points="
  1519.75,338.29 1670.81,338.29 
  "/>
<path clip-path="url(#clip290)" d="M 0 0 M1716.33 334.621 Q1717.92 331.75 1720.15 330.385 Q1722.37 329.019 1725.38 329.019 Q1729.43 329.019 1731.63 331.866 Q1733.83 334.69 1733.83 339.921 L1733.83 355.57 L1729.54 355.57 L1729.54 340.06 Q1729.54 336.334 1728.23 334.528 Q1726.91 332.722 1724.2 332.722 Q1720.89 332.722 1718.97 334.922 Q1717.04 337.121 1717.04 340.917 L1717.04 355.57 L1712.76 355.57 L1712.76 340.06 Q1712.76 336.31 1711.44 334.528 Q1710.12 332.722 1707.37 332.722 Q1704.11 332.722 1702.18 334.945 Q1700.26 337.144 1700.26 340.917 L1700.26 355.57 L1695.98 355.57 L1695.98 329.644 L1700.26 329.644 L1700.26 333.672 Q1701.72 331.287 1703.76 330.153 Q1705.79 329.019 1708.6 329.019 Q1711.42 329.019 1713.39 330.454 Q1715.38 331.889 1716.33 334.621 Z" fill="#000000" fill-rule="evenodd" fill-opacity="1" /><path clip-path="url(#clip290)" d="M 0 0 M1760.47 341.542 L1760.47 343.625 L1740.89 343.625 Q1741.17 348.023 1743.53 350.338 Q1745.91 352.63 1750.15 352.63 Q1752.6 352.63 1754.89 352.028 Q1757.21 351.426 1759.48 350.222 L1759.48 354.25 Q1757.18 355.222 1754.78 355.732 Q1752.37 356.241 1749.89 356.241 Q1743.69 356.241 1740.05 352.63 Q1736.44 349.019 1736.44 342.861 Q1736.44 336.496 1739.87 332.769 Q1743.32 329.019 1749.15 329.019 Q1754.38 329.019 1757.42 332.398 Q1760.47 335.755 1760.47 341.542 M1756.21 340.292 Q1756.17 336.797 1754.24 334.713 Q1752.35 332.63 1749.2 332.63 Q1745.63 332.63 1743.48 334.644 Q1741.35 336.658 1741.03 340.315 L1756.21 340.292 Z" fill="#000000" fill-rule="evenodd" fill-opacity="1" /><path clip-path="url(#clip290)" d="M 0 0 M1776.72 342.537 Q1771.56 342.537 1769.57 343.718 Q1767.58 344.898 1767.58 347.746 Q1767.58 350.014 1769.06 351.357 Q1770.56 352.676 1773.13 352.676 Q1776.67 352.676 1778.8 350.176 Q1780.96 347.653 1780.96 343.486 L1780.96 342.537 L1776.72 342.537 M1785.22 340.778 L1785.22 355.57 L1780.96 355.57 L1780.96 351.634 Q1779.5 353.995 1777.32 355.13 Q1775.15 356.241 1772 356.241 Q1768.02 356.241 1765.66 354.019 Q1763.32 351.773 1763.32 348.023 Q1763.32 343.648 1766.23 341.426 Q1769.17 339.204 1774.98 339.204 L1780.96 339.204 L1780.96 338.787 Q1780.96 335.847 1779.01 334.25 Q1777.09 332.63 1773.6 332.63 Q1771.37 332.63 1769.27 333.162 Q1767.16 333.695 1765.22 334.759 L1765.22 330.824 Q1767.55 329.922 1769.75 329.482 Q1771.95 329.019 1774.04 329.019 Q1779.66 329.019 1782.44 331.935 Q1785.22 334.852 1785.22 340.778 Z" fill="#000000" fill-rule="evenodd" fill-opacity="1" /><path clip-path="url(#clip290)" d="M 0 0 M1811.23 339.921 L1811.23 355.57 L1806.97 355.57 L1806.97 340.06 Q1806.97 336.38 1805.54 334.551 Q1804.1 332.722 1801.23 332.722 Q1797.79 332.722 1795.79 334.922 Q1793.8 337.121 1793.8 340.917 L1793.8 355.57 L1789.52 355.57 L1789.52 329.644 L1793.8 329.644 L1793.8 333.672 Q1795.33 331.334 1797.39 330.176 Q1799.48 329.019 1802.18 329.019 Q1806.65 329.019 1808.94 331.797 Q1811.23 334.551 1811.23 339.921 Z" fill="#000000" fill-rule="evenodd" fill-opacity="1" /><polyline clip-path="url(#clip290)" style="stroke:#000000; stroke-width:4; stroke-opacity:1; fill:none" points="
  1519.75,398.77 1670.81,398.77 
  "/>
<path clip-path="url(#clip290)" d="M 0 0 M1716.33 395.101 Q1717.92 392.23 1720.15 390.865 Q1722.37 389.499 1725.38 389.499 Q1729.43 389.499 1731.63 392.346 Q1733.83 395.17 1733.83 400.401 L1733.83 416.05 L1729.54 416.05 L1729.54 400.54 Q1729.54 396.814 1728.23 395.008 Q1726.91 393.202 1724.2 393.202 Q1720.89 393.202 1718.97 395.402 Q1717.04 397.601 1717.04 401.397 L1717.04 416.05 L1712.76 416.05 L1712.76 400.54 Q1712.76 396.79 1711.44 395.008 Q1710.12 393.202 1707.37 393.202 Q1704.11 393.202 1702.18 395.425 Q1700.26 397.624 1700.26 401.397 L1700.26 416.05 L1695.98 416.05 L1695.98 390.124 L1700.26 390.124 L1700.26 394.152 Q1701.72 391.767 1703.76 390.633 Q1705.79 389.499 1708.6 389.499 Q1711.42 389.499 1713.39 390.934 Q1715.38 392.369 1716.33 395.101 Z" fill="#000000" fill-rule="evenodd" fill-opacity="1" /><path clip-path="url(#clip290)" d="M 0 0 M1760.47 402.022 L1760.47 404.105 L1740.89 404.105 Q1741.17 408.503 1743.53 410.818 Q1745.91 413.11 1750.15 413.11 Q1752.6 413.11 1754.89 412.508 Q1757.21 411.906 1759.48 410.702 L1759.48 414.73 Q1757.18 415.702 1754.78 416.212 Q1752.37 416.721 1749.89 416.721 Q1743.69 416.721 1740.05 413.11 Q1736.44 409.499 1736.44 403.341 Q1736.44 396.976 1739.87 393.249 Q1743.32 389.499 1749.15 389.499 Q1754.38 389.499 1757.42 392.878 Q1760.47 396.235 1760.47 402.022 M1756.21 400.772 Q1756.17 397.277 1754.24 395.193 Q1752.35 393.11 1749.2 393.11 Q1745.63 393.11 1743.48 395.124 Q1741.35 397.138 1741.03 400.795 L1756.21 400.772 Z" fill="#000000" fill-rule="evenodd" fill-opacity="1" /><path clip-path="url(#clip290)" d="M 0 0 M1782 394.059 L1782 380.031 L1786.26 380.031 L1786.26 416.05 L1782 416.05 L1782 412.161 Q1780.66 414.475 1778.6 415.61 Q1776.56 416.721 1773.69 416.721 Q1768.99 416.721 1766.03 412.971 Q1763.09 409.221 1763.09 403.11 Q1763.09 396.999 1766.03 393.249 Q1768.99 389.499 1773.69 389.499 Q1776.56 389.499 1778.6 390.633 Q1780.66 391.744 1782 394.059 M1767.48 403.11 Q1767.48 407.809 1769.41 410.494 Q1771.35 413.156 1774.73 413.156 Q1778.11 413.156 1780.05 410.494 Q1782 407.809 1782 403.11 Q1782 398.411 1780.05 395.749 Q1778.11 393.064 1774.73 393.064 Q1771.35 393.064 1769.41 395.749 Q1767.48 398.411 1767.48 403.11 Z" fill="#000000" fill-rule="evenodd" fill-opacity="1" /><path clip-path="url(#clip290)" d="M 0 0 M1790.73 390.124 L1794.98 390.124 L1794.98 416.05 L1790.73 416.05 L1790.73 390.124 M1790.73 380.031 L1794.98 380.031 L1794.98 385.425 L1790.73 385.425 L1790.73 380.031 Z" fill="#000000" fill-rule="evenodd" fill-opacity="1" /><path clip-path="url(#clip290)" d="M 0 0 M1811.23 403.017 Q1806.07 403.017 1804.08 404.198 Q1802.09 405.378 1802.09 408.226 Q1802.09 410.494 1803.57 411.837 Q1805.08 413.156 1807.65 413.156 Q1811.19 413.156 1813.32 410.656 Q1815.47 408.133 1815.47 403.966 L1815.47 403.017 L1811.23 403.017 M1819.73 401.258 L1819.73 416.05 L1815.47 416.05 L1815.47 412.114 Q1814.01 414.475 1811.84 415.61 Q1809.66 416.721 1806.51 416.721 Q1802.53 416.721 1800.17 414.499 Q1797.83 412.253 1797.83 408.503 Q1797.83 404.128 1800.75 401.906 Q1803.69 399.684 1809.5 399.684 L1815.47 399.684 L1815.47 399.267 Q1815.47 396.327 1813.53 394.73 Q1811.6 393.11 1808.11 393.11 Q1805.89 393.11 1803.78 393.642 Q1801.67 394.175 1799.73 395.239 L1799.73 391.304 Q1802.07 390.402 1804.27 389.962 Q1806.47 389.499 1808.55 389.499 Q1814.17 389.499 1816.95 392.415 Q1819.73 395.332 1819.73 401.258 Z" fill="#000000" fill-rule="evenodd" fill-opacity="1" /><path clip-path="url(#clip290)" d="M 0 0 M1845.75 400.401 L1845.75 416.05 L1841.49 416.05 L1841.49 400.54 Q1841.49 396.86 1840.05 395.031 Q1838.62 393.202 1835.75 393.202 Q1832.3 393.202 1830.31 395.402 Q1828.32 397.601 1828.32 401.397 L1828.32 416.05 L1824.04 416.05 L1824.04 390.124 L1828.32 390.124 L1828.32 394.152 Q1829.85 391.814 1831.91 390.656 Q1833.99 389.499 1836.7 389.499 Q1841.16 389.499 1843.46 392.277 Q1845.75 395.031 1845.75 400.401 Z" fill="#000000" fill-rule="evenodd" fill-opacity="1" /></svg>
