<?xml version="1.0" encoding="utf-8"?>
<svg xmlns="http://www.w3.org/2000/svg" xmlns:xlink="http://www.w3.org/1999/xlink" width="600" height="400" viewBox="0 0 2400 1600">
<defs>
  <clipPath id="clip380">
    <rect x="0" y="0" width="2400" height="1600"/>
  </clipPath>
</defs>
<path clip-path="url(#clip380)" d="
M0 1600 L2400 1600 L2400 0 L0 0  Z
  " fill="#ffffff" fill-rule="evenodd" fill-opacity="1"/>
<defs>
  <clipPath id="clip381">
    <rect x="480" y="0" width="1681" height="1600"/>
  </clipPath>
</defs>
<path clip-path="url(#clip380)" d="
M86.9921 1521.01 L2352.76 1521.01 L2352.76 47.2441 L86.9921 47.2441  Z
  " fill="#ffffff" fill-rule="evenodd" fill-opacity="1"/>
<defs>
  <clipPath id="clip382">
    <rect x="86" y="47" width="2267" height="1475"/>
  </clipPath>
</defs>
<polyline clip-path="url(#clip382)" style="stroke:#000000; stroke-width:2; stroke-opacity:0.1; fill:none" points="
  463.894,1521.01 463.894,47.2441 
  "/>
<polyline clip-path="url(#clip382)" style="stroke:#000000; stroke-width:2; stroke-opacity:0.1; fill:none" points="
  851.367,1521.01 851.367,47.2441 
  "/>
<polyline clip-path="url(#clip382)" style="stroke:#000000; stroke-width:2; stroke-opacity:0.1; fill:none" points="
  1238.84,1521.01 1238.84,47.2441 
  "/>
<polyline clip-path="url(#clip382)" style="stroke:#000000; stroke-width:2; stroke-opacity:0.1; fill:none" points="
  1626.31,1521.01 1626.31,47.2441 
  "/>
<polyline clip-path="url(#clip382)" style="stroke:#000000; stroke-width:2; stroke-opacity:0.1; fill:none" points="
  2013.79,1521.01 2013.79,47.2441 
  "/>
<polyline clip-path="url(#clip382)" style="stroke:#000000; stroke-width:2; stroke-opacity:0.1; fill:none" points="
  86.9921,1479.3 2352.76,1479.3 
  "/>
<polyline clip-path="url(#clip382)" style="stroke:#000000; stroke-width:2; stroke-opacity:0.1; fill:none" points="
  86.9921,1254.18 2352.76,1254.18 
  "/>
<polyline clip-path="url(#clip382)" style="stroke:#000000; stroke-width:2; stroke-opacity:0.1; fill:none" points="
  86.9921,1029.07 2352.76,1029.07 
  "/>
<polyline clip-path="url(#clip382)" style="stroke:#000000; stroke-width:2; stroke-opacity:0.1; fill:none" points="
  86.9921,803.954 2352.76,803.954 
  "/>
<polyline clip-path="url(#clip382)" style="stroke:#000000; stroke-width:2; stroke-opacity:0.1; fill:none" points="
  86.9921,578.84 2352.76,578.84 
  "/>
<polyline clip-path="url(#clip382)" style="stroke:#000000; stroke-width:2; stroke-opacity:0.1; fill:none" points="
  86.9921,353.725 2352.76,353.725 
  "/>
<polyline clip-path="url(#clip382)" style="stroke:#000000; stroke-width:2; stroke-opacity:0.1; fill:none" points="
  86.9921,128.611 2352.76,128.611 
  "/>
<polyline clip-path="url(#clip380)" style="stroke:#000000; stroke-width:4; stroke-opacity:1; fill:none" points="
  86.9921,1521.01 2352.76,1521.01 
  "/>
<polyline clip-path="url(#clip380)" style="stroke:#000000; stroke-width:4; stroke-opacity:1; fill:none" points="
  86.9921,1521.01 86.9921,47.2441 
  "/>
<polyline clip-path="url(#clip380)" style="stroke:#000000; stroke-width:4; stroke-opacity:1; fill:none" points="
  463.894,1521.01 463.894,1503.32 
  "/>
<polyline clip-path="url(#clip380)" style="stroke:#000000; stroke-width:4; stroke-opacity:1; fill:none" points="
  851.367,1521.01 851.367,1503.32 
  "/>
<polyline clip-path="url(#clip380)" style="stroke:#000000; stroke-width:4; stroke-opacity:1; fill:none" points="
  1238.84,1521.01 1238.84,1503.32 
  "/>
<polyline clip-path="url(#clip380)" style="stroke:#000000; stroke-width:4; stroke-opacity:1; fill:none" points="
  1626.31,1521.01 1626.31,1503.32 
  "/>
<polyline clip-path="url(#clip380)" style="stroke:#000000; stroke-width:4; stroke-opacity:1; fill:none" points="
  2013.79,1521.01 2013.79,1503.32 
  "/>
<polyline clip-path="url(#clip380)" style="stroke:#000000; stroke-width:4; stroke-opacity:1; fill:none" points="
  86.9921,1479.3 114.181,1479.3 
  "/>
<polyline clip-path="url(#clip380)" style="stroke:#000000; stroke-width:4; stroke-opacity:1; fill:none" points="
  86.9921,1254.18 114.181,1254.18 
  "/>
<polyline clip-path="url(#clip380)" style="stroke:#000000; stroke-width:4; stroke-opacity:1; fill:none" points="
  86.9921,1029.07 114.181,1029.07 
  "/>
<polyline clip-path="url(#clip380)" style="stroke:#000000; stroke-width:4; stroke-opacity:1; fill:none" points="
  86.9921,803.954 114.181,803.954 
  "/>
<polyline clip-path="url(#clip380)" style="stroke:#000000; stroke-width:4; stroke-opacity:1; fill:none" points="
  86.9921,578.84 114.181,578.84 
  "/>
<polyline clip-path="url(#clip380)" style="stroke:#000000; stroke-width:4; stroke-opacity:1; fill:none" points="
  86.9921,353.725 114.181,353.725 
  "/>
<polyline clip-path="url(#clip380)" style="stroke:#000000; stroke-width:4; stroke-opacity:1; fill:none" points="
  86.9921,128.611 114.181,128.611 
  "/>
<path clip-path="url(#clip380)" d="M 0 0 M398.57 1559.6 L411.047 1559.6 L411.047 1563.39 L398.57 1563.39 L398.57 1559.6 Z" fill="#000000" fill-rule="evenodd" fill-opacity="1" /><path clip-path="url(#clip380)" d="M 0 0 M426.117 1543 Q422.506 1543 420.677 1546.56 Q418.871 1550.11 418.871 1557.23 Q418.871 1564.34 420.677 1567.91 Q422.506 1571.45 426.117 1571.45 Q429.751 1571.45 431.556 1567.91 Q433.385 1564.34 433.385 1557.23 Q433.385 1550.11 431.556 1546.56 Q429.751 1543 426.117 1543 M426.117 1539.29 Q431.927 1539.29 434.982 1543.9 Q438.061 1548.48 438.061 1557.23 Q438.061 1565.96 434.982 1570.57 Q431.927 1575.15 426.117 1575.15 Q420.306 1575.15 417.228 1570.57 Q414.172 1565.96 414.172 1557.23 Q414.172 1548.48 417.228 1543.9 Q420.306 1539.29 426.117 1539.29 Z" fill="#000000" fill-rule="evenodd" fill-opacity="1" /><path clip-path="url(#clip380)" d="M 0 0 M443.13 1568.6 L448.015 1568.6 L448.015 1574.48 L443.13 1574.48 L443.13 1568.6 Z" fill="#000000" fill-rule="evenodd" fill-opacity="1" /><path clip-path="url(#clip380)" d="M 0 0 M463.084 1543 Q459.473 1543 457.644 1546.56 Q455.839 1550.11 455.839 1557.23 Q455.839 1564.34 457.644 1567.91 Q459.473 1571.45 463.084 1571.45 Q466.718 1571.45 468.524 1567.91 Q470.352 1564.34 470.352 1557.23 Q470.352 1550.11 468.524 1546.56 Q466.718 1543 463.084 1543 M463.084 1539.29 Q468.894 1539.29 471.95 1543.9 Q475.028 1548.48 475.028 1557.23 Q475.028 1565.96 471.95 1570.57 Q468.894 1575.15 463.084 1575.15 Q457.274 1575.15 454.195 1570.57 Q451.14 1565.96 451.14 1557.23 Q451.14 1548.48 454.195 1543.9 Q457.274 1539.29 463.084 1539.29 Z" fill="#000000" fill-rule="evenodd" fill-opacity="1" /><path clip-path="url(#clip380)" d="M 0 0 M490.098 1543 Q486.487 1543 484.658 1546.56 Q482.852 1550.11 482.852 1557.23 Q482.852 1564.34 484.658 1567.91 Q486.487 1571.45 490.098 1571.45 Q493.732 1571.45 495.538 1567.91 Q497.366 1564.34 497.366 1557.23 Q497.366 1550.11 495.538 1546.56 Q493.732 1543 490.098 1543 M490.098 1539.29 Q495.908 1539.29 498.963 1543.9 Q502.042 1548.48 502.042 1557.23 Q502.042 1565.96 498.963 1570.57 Q495.908 1575.15 490.098 1575.15 Q484.288 1575.15 481.209 1570.57 Q478.153 1565.96 478.153 1557.23 Q478.153 1548.48 481.209 1543.9 Q484.288 1539.29 490.098 1539.29 Z" fill="#000000" fill-rule="evenodd" fill-opacity="1" /><path clip-path="url(#clip380)" d="M 0 0 M517.69 1555.34 Q514.542 1555.34 512.69 1557.49 Q510.862 1559.64 510.862 1563.39 Q510.862 1567.12 512.69 1569.29 Q514.542 1571.45 517.69 1571.45 Q520.838 1571.45 522.667 1569.29 Q524.519 1567.12 524.519 1563.39 Q524.519 1559.64 522.667 1557.49 Q520.838 1555.34 517.69 1555.34 M526.973 1540.68 L526.973 1544.94 Q525.213 1544.11 523.408 1543.67 Q521.625 1543.23 519.866 1543.23 Q515.236 1543.23 512.783 1546.36 Q510.352 1549.48 510.005 1555.8 Q511.371 1553.79 513.431 1552.72 Q515.491 1551.63 517.968 1551.63 Q523.176 1551.63 526.186 1554.8 Q529.218 1557.95 529.218 1563.39 Q529.218 1568.72 526.07 1571.93 Q522.922 1575.15 517.69 1575.15 Q511.695 1575.15 508.524 1570.57 Q505.352 1565.96 505.352 1557.23 Q505.352 1549.04 509.241 1544.18 Q513.13 1539.29 519.681 1539.29 Q521.44 1539.29 523.223 1539.64 Q525.028 1539.99 526.973 1540.68 Z" fill="#000000" fill-rule="evenodd" fill-opacity="1" /><path clip-path="url(#clip380)" d="M 0 0 M786.448 1559.6 L798.925 1559.6 L798.925 1563.39 L786.448 1563.39 L786.448 1559.6 Z" fill="#000000" fill-rule="evenodd" fill-opacity="1" /><path clip-path="url(#clip380)" d="M 0 0 M813.994 1543 Q810.383 1543 808.555 1546.56 Q806.749 1550.11 806.749 1557.23 Q806.749 1564.34 808.555 1567.91 Q810.383 1571.45 813.994 1571.45 Q817.629 1571.45 819.434 1567.91 Q821.263 1564.34 821.263 1557.23 Q821.263 1550.11 819.434 1546.56 Q817.629 1543 813.994 1543 M813.994 1539.29 Q819.805 1539.29 822.86 1543.9 Q825.939 1548.48 825.939 1557.23 Q825.939 1565.96 822.86 1570.57 Q819.805 1575.15 813.994 1575.15 Q808.184 1575.15 805.106 1570.57 Q802.05 1565.96 802.05 1557.23 Q802.05 1548.48 805.106 1543.9 Q808.184 1539.29 813.994 1539.29 Z" fill="#000000" fill-rule="evenodd" fill-opacity="1" /><path clip-path="url(#clip380)" d="M 0 0 M831.008 1568.6 L835.892 1568.6 L835.892 1574.48 L831.008 1574.48 L831.008 1568.6 Z" fill="#000000" fill-rule="evenodd" fill-opacity="1" /><path clip-path="url(#clip380)" d="M 0 0 M850.962 1543 Q847.351 1543 845.522 1546.56 Q843.717 1550.11 843.717 1557.23 Q843.717 1564.34 845.522 1567.91 Q847.351 1571.45 850.962 1571.45 Q854.596 1571.45 856.402 1567.91 Q858.23 1564.34 858.23 1557.23 Q858.23 1550.11 856.402 1546.56 Q854.596 1543 850.962 1543 M850.962 1539.29 Q856.772 1539.29 859.828 1543.9 Q862.906 1548.48 862.906 1557.23 Q862.906 1565.96 859.828 1570.57 Q856.772 1575.15 850.962 1575.15 Q845.152 1575.15 842.073 1570.57 Q839.017 1565.96 839.017 1557.23 Q839.017 1548.48 842.073 1543.9 Q845.152 1539.29 850.962 1539.29 Z" fill="#000000" fill-rule="evenodd" fill-opacity="1" /><path clip-path="url(#clip380)" d="M 0 0 M877.976 1543 Q874.365 1543 872.536 1546.56 Q870.73 1550.11 870.73 1557.23 Q870.73 1564.34 872.536 1567.91 Q874.365 1571.45 877.976 1571.45 Q881.61 1571.45 883.415 1567.91 Q885.244 1564.34 885.244 1557.23 Q885.244 1550.11 883.415 1546.56 Q881.61 1543 877.976 1543 M877.976 1539.29 Q883.786 1539.29 886.841 1543.9 Q889.92 1548.48 889.92 1557.23 Q889.92 1565.96 886.841 1570.57 Q883.786 1575.15 877.976 1575.15 Q872.165 1575.15 869.087 1570.57 Q866.031 1565.96 866.031 1557.23 Q866.031 1548.48 869.087 1543.9 Q872.165 1539.29 877.976 1539.29 Z" fill="#000000" fill-rule="evenodd" fill-opacity="1" /><path clip-path="url(#clip380)" d="M 0 0 M909.156 1555.85 Q912.512 1556.56 914.387 1558.83 Q916.286 1561.1 916.286 1564.43 Q916.286 1569.55 912.767 1572.35 Q909.249 1575.15 902.767 1575.15 Q900.591 1575.15 898.276 1574.71 Q895.985 1574.29 893.531 1573.44 L893.531 1568.92 Q895.476 1570.06 897.79 1570.64 Q900.105 1571.22 902.628 1571.22 Q907.026 1571.22 909.318 1569.48 Q911.633 1567.74 911.633 1564.43 Q911.633 1561.38 909.48 1559.67 Q907.35 1557.93 903.531 1557.93 L899.503 1557.93 L899.503 1554.09 L903.716 1554.09 Q907.165 1554.09 908.994 1552.72 Q910.823 1551.33 910.823 1548.74 Q910.823 1546.08 908.925 1544.67 Q907.05 1543.23 903.531 1543.23 Q901.61 1543.23 899.411 1543.65 Q897.212 1544.06 894.573 1544.94 L894.573 1540.78 Q897.235 1540.04 899.55 1539.67 Q901.888 1539.29 903.948 1539.29 Q909.272 1539.29 912.374 1541.73 Q915.475 1544.13 915.475 1548.25 Q915.475 1551.12 913.832 1553.11 Q912.188 1555.08 909.156 1555.85 Z" fill="#000000" fill-rule="evenodd" fill-opacity="1" /><path clip-path="url(#clip380)" d="M 0 0 M1193.34 1543 Q1189.73 1543 1187.9 1546.56 Q1186.1 1550.11 1186.1 1557.23 Q1186.1 1564.34 1187.9 1567.91 Q1189.73 1571.45 1193.34 1571.45 Q1196.98 1571.45 1198.78 1567.91 Q1200.61 1564.34 1200.61 1557.23 Q1200.61 1550.11 1198.78 1546.56 Q1196.98 1543 1193.34 1543 M1193.34 1539.29 Q1199.15 1539.29 1202.21 1543.9 Q1205.29 1548.48 1205.29 1557.23 Q1205.29 1565.96 1202.21 1570.57 Q1199.15 1575.15 1193.34 1575.15 Q1187.53 1575.15 1184.45 1570.57 Q1181.4 1565.96 1181.4 1557.23 Q1181.4 1548.48 1184.45 1543.9 Q1187.53 1539.29 1193.34 1539.29 Z" fill="#000000" fill-rule="evenodd" fill-opacity="1" /><path clip-path="url(#clip380)" d="M 0 0 M1210.36 1568.6 L1215.24 1568.6 L1215.24 1574.48 L1210.36 1574.48 L1210.36 1568.6 Z" fill="#000000" fill-rule="evenodd" fill-opacity="1" /><path clip-path="url(#clip380)" d="M 0 0 M1230.31 1543 Q1226.7 1543 1224.87 1546.56 Q1223.06 1550.11 1223.06 1557.23 Q1223.06 1564.34 1224.87 1567.91 Q1226.7 1571.45 1230.31 1571.45 Q1233.94 1571.45 1235.75 1567.91 Q1237.58 1564.34 1237.58 1557.23 Q1237.58 1550.11 1235.75 1546.56 Q1233.94 1543 1230.31 1543 M1230.31 1539.29 Q1236.12 1539.29 1239.18 1543.9 Q1242.25 1548.48 1242.25 1557.23 Q1242.25 1565.96 1239.18 1570.57 Q1236.12 1575.15 1230.31 1575.15 Q1224.5 1575.15 1221.42 1570.57 Q1218.37 1565.96 1218.37 1557.23 Q1218.37 1548.48 1221.42 1543.9 Q1224.5 1539.29 1230.31 1539.29 Z" fill="#000000" fill-rule="evenodd" fill-opacity="1" /><path clip-path="url(#clip380)" d="M 0 0 M1257.32 1543 Q1253.71 1543 1251.88 1546.56 Q1250.08 1550.11 1250.08 1557.23 Q1250.08 1564.34 1251.88 1567.91 Q1253.71 1571.45 1257.32 1571.45 Q1260.96 1571.45 1262.76 1567.91 Q1264.59 1564.34 1264.59 1557.23 Q1264.59 1550.11 1262.76 1546.56 Q1260.96 1543 1257.32 1543 M1257.32 1539.29 Q1263.13 1539.29 1266.19 1543.9 Q1269.27 1548.48 1269.27 1557.23 Q1269.27 1565.96 1266.19 1570.57 Q1263.13 1575.15 1257.32 1575.15 Q1251.51 1575.15 1248.43 1570.57 Q1245.38 1565.96 1245.38 1557.23 Q1245.38 1548.48 1248.43 1543.9 Q1251.51 1539.29 1257.32 1539.29 Z" fill="#000000" fill-rule="evenodd" fill-opacity="1" /><path clip-path="url(#clip380)" d="M 0 0 M1284.34 1543 Q1280.73 1543 1278.9 1546.56 Q1277.09 1550.11 1277.09 1557.23 Q1277.09 1564.34 1278.9 1567.91 Q1280.73 1571.45 1284.34 1571.45 Q1287.97 1571.45 1289.78 1567.91 Q1291.61 1564.34 1291.61 1557.23 Q1291.61 1550.11 1289.78 1546.56 Q1287.97 1543 1284.34 1543 M1284.34 1539.29 Q1290.15 1539.29 1293.2 1543.9 Q1296.28 1548.48 1296.28 1557.23 Q1296.28 1565.96 1293.2 1570.57 Q1290.15 1575.15 1284.34 1575.15 Q1278.53 1575.15 1275.45 1570.57 Q1272.39 1565.96 1272.39 1557.23 Q1272.39 1548.48 1275.45 1543.9 Q1278.53 1539.29 1284.34 1539.29 Z" fill="#000000" fill-rule="evenodd" fill-opacity="1" /><path clip-path="url(#clip380)" d="M 0 0 M1581.14 1543 Q1577.53 1543 1575.7 1546.56 Q1573.89 1550.11 1573.89 1557.23 Q1573.89 1564.34 1575.7 1567.91 Q1577.53 1571.45 1581.14 1571.45 Q1584.77 1571.45 1586.58 1567.91 Q1588.41 1564.34 1588.41 1557.23 Q1588.41 1550.11 1586.58 1546.56 Q1584.77 1543 1581.14 1543 M1581.14 1539.29 Q1586.95 1539.29 1590 1543.9 Q1593.08 1548.48 1593.08 1557.23 Q1593.08 1565.96 1590 1570.57 Q1586.95 1575.15 1581.14 1575.15 Q1575.33 1575.15 1572.25 1570.57 Q1569.19 1565.96 1569.19 1557.23 Q1569.19 1548.48 1572.25 1543.9 Q1575.33 1539.29 1581.14 1539.29 Z" fill="#000000" fill-rule="evenodd" fill-opacity="1" /><path clip-path="url(#clip380)" d="M 0 0 M1598.15 1568.6 L1603.04 1568.6 L1603.04 1574.48 L1598.15 1574.48 L1598.15 1568.6 Z" fill="#000000" fill-rule="evenodd" fill-opacity="1" /><path clip-path="url(#clip380)" d="M 0 0 M1618.11 1543 Q1614.5 1543 1612.67 1546.56 Q1610.86 1550.11 1610.86 1557.23 Q1610.86 1564.34 1612.67 1567.91 Q1614.5 1571.45 1618.11 1571.45 Q1621.74 1571.45 1623.55 1567.91 Q1625.38 1564.34 1625.38 1557.23 Q1625.38 1550.11 1623.55 1546.56 Q1621.74 1543 1618.11 1543 M1618.11 1539.29 Q1623.92 1539.29 1626.97 1543.9 Q1630.05 1548.48 1630.05 1557.23 Q1630.05 1565.96 1626.97 1570.57 Q1623.92 1575.15 1618.11 1575.15 Q1612.3 1575.15 1609.22 1570.57 Q1606.16 1565.96 1606.16 1557.23 Q1606.16 1548.48 1609.22 1543.9 Q1612.3 1539.29 1618.11 1539.29 Z" fill="#000000" fill-rule="evenodd" fill-opacity="1" /><path clip-path="url(#clip380)" d="M 0 0 M1645.12 1543 Q1641.51 1543 1639.68 1546.56 Q1637.87 1550.11 1637.87 1557.23 Q1637.87 1564.34 1639.68 1567.91 Q1641.51 1571.45 1645.12 1571.45 Q1648.75 1571.45 1650.56 1567.91 Q1652.39 1564.34 1652.39 1557.23 Q1652.39 1550.11 1650.56 1546.56 Q1648.75 1543 1645.12 1543 M1645.12 1539.29 Q1650.93 1539.29 1653.99 1543.9 Q1657.06 1548.48 1657.06 1557.23 Q1657.06 1565.96 1653.99 1570.57 Q1650.93 1575.15 1645.12 1575.15 Q1639.31 1575.15 1636.23 1570.57 Q1633.18 1565.96 1633.18 1557.23 Q1633.18 1548.48 1636.23 1543.9 Q1639.31 1539.29 1645.12 1539.29 Z" fill="#000000" fill-rule="evenodd" fill-opacity="1" /><path clip-path="url(#clip380)" d="M 0 0 M1676.3 1555.85 Q1679.66 1556.56 1681.53 1558.83 Q1683.43 1561.1 1683.43 1564.43 Q1683.43 1569.55 1679.91 1572.35 Q1676.39 1575.15 1669.91 1575.15 Q1667.74 1575.15 1665.42 1574.71 Q1663.13 1574.29 1660.68 1573.44 L1660.68 1568.92 Q1662.62 1570.06 1664.93 1570.64 Q1667.25 1571.22 1669.77 1571.22 Q1674.17 1571.22 1676.46 1569.48 Q1678.78 1567.74 1678.78 1564.43 Q1678.78 1561.38 1676.62 1559.67 Q1674.5 1557.93 1670.68 1557.93 L1666.65 1557.93 L1666.65 1554.09 L1670.86 1554.09 Q1674.31 1554.09 1676.14 1552.72 Q1677.97 1551.33 1677.97 1548.74 Q1677.97 1546.08 1676.07 1544.67 Q1674.19 1543.23 1670.68 1543.23 Q1668.75 1543.23 1666.56 1543.65 Q1664.36 1544.06 1661.72 1544.94 L1661.72 1540.78 Q1664.38 1540.04 1666.69 1539.67 Q1669.03 1539.29 1671.09 1539.29 Q1676.42 1539.29 1679.52 1541.73 Q1682.62 1544.13 1682.62 1548.25 Q1682.62 1551.12 1680.98 1553.11 Q1679.33 1555.08 1676.3 1555.85 Z" fill="#000000" fill-rule="evenodd" fill-opacity="1" /><path clip-path="url(#clip380)" d="M 0 0 M1968.21 1543 Q1964.6 1543 1962.77 1546.56 Q1960.96 1550.11 1960.96 1557.23 Q1960.96 1564.34 1962.77 1567.91 Q1964.6 1571.45 1968.21 1571.45 Q1971.84 1571.45 1973.65 1567.91 Q1975.48 1564.34 1975.48 1557.23 Q1975.48 1550.11 1973.65 1546.56 Q1971.84 1543 1968.21 1543 M1968.21 1539.29 Q1974.02 1539.29 1977.07 1543.9 Q1980.15 1548.48 1980.15 1557.23 Q1980.15 1565.96 1977.07 1570.57 Q1974.02 1575.15 1968.21 1575.15 Q1962.4 1575.15 1959.32 1570.57 Q1956.26 1565.96 1956.26 1557.23 Q1956.26 1548.48 1959.32 1543.9 Q1962.4 1539.29 1968.21 1539.29 Z" fill="#000000" fill-rule="evenodd" fill-opacity="1" /><path clip-path="url(#clip380)" d="M 0 0 M1985.22 1568.6 L1990.1 1568.6 L1990.1 1574.48 L1985.22 1574.48 L1985.22 1568.6 Z" fill="#000000" fill-rule="evenodd" fill-opacity="1" /><path clip-path="url(#clip380)" d="M 0 0 M2005.17 1543 Q2001.56 1543 1999.73 1546.56 Q1997.93 1550.11 1997.93 1557.23 Q1997.93 1564.34 1999.73 1567.91 Q2001.56 1571.45 2005.17 1571.45 Q2008.81 1571.45 2010.61 1567.91 Q2012.44 1564.34 2012.44 1557.23 Q2012.44 1550.11 2010.61 1546.56 Q2008.81 1543 2005.17 1543 M2005.17 1539.29 Q2010.98 1539.29 2014.04 1543.9 Q2017.12 1548.48 2017.12 1557.23 Q2017.12 1565.96 2014.04 1570.57 Q2010.98 1575.15 2005.17 1575.15 Q1999.36 1575.15 1996.29 1570.57 Q1993.23 1565.96 1993.23 1557.23 Q1993.23 1548.48 1996.29 1543.9 Q1999.36 1539.29 2005.17 1539.29 Z" fill="#000000" fill-rule="evenodd" fill-opacity="1" /><path clip-path="url(#clip380)" d="M 0 0 M2032.19 1543 Q2028.58 1543 2026.75 1546.56 Q2024.94 1550.11 2024.94 1557.23 Q2024.94 1564.34 2026.75 1567.91 Q2028.58 1571.45 2032.19 1571.45 Q2035.82 1571.45 2037.63 1567.91 Q2039.46 1564.34 2039.46 1557.23 Q2039.46 1550.11 2037.63 1546.56 Q2035.82 1543 2032.19 1543 M2032.19 1539.29 Q2038 1539.29 2041.05 1543.9 Q2044.13 1548.48 2044.13 1557.23 Q2044.13 1565.96 2041.05 1570.57 Q2038 1575.15 2032.19 1575.15 Q2026.38 1575.15 2023.3 1570.57 Q2020.24 1565.96 2020.24 1557.23 Q2020.24 1548.48 2023.3 1543.9 Q2026.38 1539.29 2032.19 1539.29 Z" fill="#000000" fill-rule="evenodd" fill-opacity="1" /><path clip-path="url(#clip380)" d="M 0 0 M2059.78 1555.34 Q2056.63 1555.34 2054.78 1557.49 Q2052.95 1559.64 2052.95 1563.39 Q2052.95 1567.12 2054.78 1569.29 Q2056.63 1571.45 2059.78 1571.45 Q2062.93 1571.45 2064.76 1569.29 Q2066.61 1567.12 2066.61 1563.39 Q2066.61 1559.64 2064.76 1557.49 Q2062.93 1555.34 2059.78 1555.34 M2069.06 1540.68 L2069.06 1544.94 Q2067.3 1544.11 2065.5 1543.67 Q2063.72 1543.23 2061.96 1543.23 Q2057.33 1543.23 2054.87 1546.36 Q2052.44 1549.48 2052.1 1555.8 Q2053.46 1553.79 2055.52 1552.72 Q2057.58 1551.63 2060.06 1551.63 Q2065.27 1551.63 2068.28 1554.8 Q2071.31 1557.95 2071.31 1563.39 Q2071.31 1568.72 2068.16 1571.93 Q2065.01 1575.15 2059.78 1575.15 Q2053.79 1575.15 2050.61 1570.57 Q2047.44 1565.96 2047.44 1557.23 Q2047.44 1549.04 2051.33 1544.18 Q2055.22 1539.29 2061.77 1539.29 Q2063.53 1539.29 2065.31 1539.64 Q2067.12 1539.99 2069.06 1540.68 Z" fill="#000000" fill-rule="evenodd" fill-opacity="1" /><path clip-path="url(#clip380)" d="M 0 0 M51.0477 1465.1 Q47.4367 1465.1 45.608 1468.66 Q43.8024 1472.2 43.8024 1479.33 Q43.8024 1486.44 45.608 1490 Q47.4367 1493.55 51.0477 1493.55 Q54.682 1493.55 56.4875 1490 Q58.3162 1486.44 58.3162 1479.33 Q58.3162 1472.2 56.4875 1468.66 Q54.682 1465.1 51.0477 1465.1 M51.0477 1461.39 Q56.8579 1461.39 59.9134 1466 Q62.9921 1470.58 62.9921 1479.33 Q62.9921 1488.06 59.9134 1492.67 Q56.8579 1497.25 51.0477 1497.25 Q45.2376 1497.25 42.1589 1492.67 Q39.1034 1488.06 39.1034 1479.33 Q39.1034 1470.58 42.1589 1466 Q45.2376 1461.39 51.0477 1461.39 Z" fill="#000000" fill-rule="evenodd" fill-opacity="1" /><path clip-path="url(#clip380)" d="M 0 0 M19.659 1267.53 L35.9784 1267.53 L35.9784 1271.46 L14.0341 1271.46 L14.0341 1267.53 Q16.6961 1264.77 21.2794 1260.14 Q25.8858 1255.49 27.0664 1254.15 Q29.3118 1251.63 30.1914 1249.89 Q31.0941 1248.13 31.0941 1246.44 Q31.0941 1243.69 29.1497 1241.95 Q27.2284 1240.21 24.1266 1240.21 Q21.9275 1240.21 19.4738 1240.98 Q17.0433 1241.74 14.2655 1243.29 L14.2655 1238.57 Q17.0896 1237.44 19.5433 1236.86 Q21.997 1236.28 24.034 1236.28 Q29.4043 1236.28 32.5988 1238.96 Q35.7932 1241.65 35.7932 1246.14 Q35.7932 1248.27 34.983 1250.19 Q34.196 1252.09 32.0895 1254.68 Q31.5108 1255.35 28.409 1258.57 Q25.3071 1261.76 19.659 1267.53 Z" fill="#000000" fill-rule="evenodd" fill-opacity="1" /><path clip-path="url(#clip380)" d="M 0 0 M51.0477 1239.98 Q47.4367 1239.98 45.608 1243.55 Q43.8024 1247.09 43.8024 1254.22 Q43.8024 1261.32 45.608 1264.89 Q47.4367 1268.43 51.0477 1268.43 Q54.682 1268.43 56.4875 1264.89 Q58.3162 1261.32 58.3162 1254.22 Q58.3162 1247.09 56.4875 1243.55 Q54.682 1239.98 51.0477 1239.98 M51.0477 1236.28 Q56.8579 1236.28 59.9134 1240.88 Q62.9921 1245.47 62.9921 1254.22 Q62.9921 1262.94 59.9134 1267.55 Q56.8579 1272.13 51.0477 1272.13 Q45.2376 1272.13 42.1589 1267.55 Q39.1034 1262.94 39.1034 1254.22 Q39.1034 1245.47 42.1589 1240.88 Q45.2376 1236.28 51.0477 1236.28 Z" fill="#000000" fill-rule="evenodd" fill-opacity="1" /><path clip-path="url(#clip380)" d="M 0 0 M26.3951 1015.86 L14.5896 1034.31 L26.3951 1034.31 L26.3951 1015.86 M25.1683 1011.79 L31.0479 1011.79 L31.0479 1034.31 L35.9784 1034.31 L35.9784 1038.2 L31.0479 1038.2 L31.0479 1046.35 L26.3951 1046.35 L26.3951 1038.2 L10.7933 1038.2 L10.7933 1033.69 L25.1683 1011.79 Z" fill="#000000" fill-rule="evenodd" fill-opacity="1" /><path clip-path="url(#clip380)" d="M 0 0 M51.0477 1014.87 Q47.4367 1014.87 45.608 1018.43 Q43.8024 1021.97 43.8024 1029.1 Q43.8024 1036.21 45.608 1039.77 Q47.4367 1043.32 51.0477 1043.32 Q54.682 1043.32 56.4875 1039.77 Q58.3162 1036.21 58.3162 1029.1 Q58.3162 1021.97 56.4875 1018.43 Q54.682 1014.87 51.0477 1014.87 M51.0477 1011.16 Q56.8579 1011.16 59.9134 1015.77 Q62.9921 1020.35 62.9921 1029.1 Q62.9921 1037.83 59.9134 1042.44 Q56.8579 1047.02 51.0477 1047.02 Q45.2376 1047.02 42.1589 1042.44 Q39.1034 1037.83 39.1034 1029.1 Q39.1034 1020.35 42.1589 1015.77 Q45.2376 1011.16 51.0477 1011.16 Z" fill="#000000" fill-rule="evenodd" fill-opacity="1" /><path clip-path="url(#clip380)" d="M 0 0 M24.4507 802.091 Q21.3025 802.091 19.4507 804.243 Q17.622 806.396 17.622 810.146 Q17.622 813.873 19.4507 816.049 Q21.3025 818.202 24.4507 818.202 Q27.5988 818.202 29.4275 816.049 Q31.2793 813.873 31.2793 810.146 Q31.2793 806.396 29.4275 804.243 Q27.5988 802.091 24.4507 802.091 M33.733 787.438 L33.733 791.697 Q31.9738 790.864 30.1682 790.424 Q28.3858 789.984 26.6266 789.984 Q21.997 789.984 19.5433 793.109 Q17.1127 796.234 16.7655 802.554 Q18.1313 800.54 20.1914 799.475 Q22.2516 798.387 24.7284 798.387 Q29.9367 798.387 32.946 801.558 Q35.9784 804.706 35.9784 810.146 Q35.9784 815.47 32.8303 818.688 Q29.6821 821.905 24.4507 821.905 Q18.4553 821.905 15.284 817.322 Q12.1128 812.716 12.1128 803.989 Q12.1128 795.794 16.0016 790.933 Q19.8905 786.049 26.4414 786.049 Q28.2006 786.049 29.983 786.396 Q31.7886 786.744 33.733 787.438 Z" fill="#000000" fill-rule="evenodd" fill-opacity="1" /><path clip-path="url(#clip380)" d="M 0 0 M51.0477 789.753 Q47.4367 789.753 45.608 793.318 Q43.8024 796.859 43.8024 803.989 Q43.8024 811.095 45.608 814.66 Q47.4367 818.202 51.0477 818.202 Q54.682 818.202 56.4875 814.66 Q58.3162 811.095 58.3162 803.989 Q58.3162 796.859 56.4875 793.318 Q54.682 789.753 51.0477 789.753 M51.0477 786.049 Q56.8579 786.049 59.9134 790.656 Q62.9921 795.239 62.9921 803.989 Q62.9921 812.716 59.9134 817.322 Q56.8579 821.905 51.0477 821.905 Q45.2376 821.905 42.1589 817.322 Q39.1034 812.716 39.1034 803.989 Q39.1034 795.239 42.1589 790.656 Q45.2376 786.049 51.0477 786.049 Z" fill="#000000" fill-rule="evenodd" fill-opacity="1" /><path clip-path="url(#clip380)" d="M 0 0 M24.1266 579.708 Q20.7933 579.708 18.872 581.49 Q16.9739 583.272 16.9739 586.397 Q16.9739 589.522 18.872 591.305 Q20.7933 593.087 24.1266 593.087 Q27.4599 593.087 29.3812 591.305 Q31.3025 589.499 31.3025 586.397 Q31.3025 583.272 29.3812 581.49 Q27.4831 579.708 24.1266 579.708 M19.4507 577.717 Q16.4414 576.976 14.7516 574.916 Q13.085 572.856 13.085 569.893 Q13.085 565.749 16.0248 563.342 Q18.9877 560.935 24.1266 560.935 Q29.2886 560.935 32.2284 563.342 Q35.1682 565.749 35.1682 569.893 Q35.1682 572.856 33.4784 574.916 Q31.8117 576.976 28.8256 577.717 Q32.2053 578.504 34.0802 580.796 Q35.9784 583.087 35.9784 586.397 Q35.9784 591.421 32.8997 594.106 Q29.8442 596.791 24.1266 596.791 Q18.409 596.791 15.3303 594.106 Q12.2748 591.421 12.2748 586.397 Q12.2748 583.087 14.1729 580.796 Q16.0711 578.504 19.4507 577.717 M17.7377 570.333 Q17.7377 573.018 19.4044 574.522 Q21.0942 576.027 24.1266 576.027 Q27.1358 576.027 28.8256 574.522 Q30.5386 573.018 30.5386 570.333 Q30.5386 567.648 28.8256 566.143 Q27.1358 564.638 24.1266 564.638 Q21.0942 564.638 19.4044 566.143 Q17.7377 567.648 17.7377 570.333 Z" fill="#000000" fill-rule="evenodd" fill-opacity="1" /><path clip-path="url(#clip380)" d="M 0 0 M51.0477 564.638 Q47.4367 564.638 45.608 568.203 Q43.8024 571.745 43.8024 578.874 Q43.8024 585.981 45.608 589.546 Q47.4367 593.087 51.0477 593.087 Q54.682 593.087 56.4875 589.546 Q58.3162 585.981 58.3162 578.874 Q58.3162 571.745 56.4875 568.203 Q54.682 564.638 51.0477 564.638 M51.0477 560.935 Q56.8579 560.935 59.9134 565.541 Q62.9921 570.124 62.9921 578.874 Q62.9921 587.601 59.9134 592.208 Q56.8579 596.791 51.0477 596.791 Q45.2376 596.791 42.1589 592.208 Q39.1034 587.601 39.1034 578.874 Q39.1034 570.124 42.1589 565.541 Q45.2376 560.935 51.0477 560.935 Z" fill="#000000" fill-rule="evenodd" fill-opacity="1" /><path clip-path="url(#clip380)" d="M 0 0 M-10.9427 367.07 L-3.30382 367.07 L-3.30382 340.704 L-11.614 342.371 L-11.614 338.112 L-3.35011 336.445 L1.32579 336.445 L1.32579 367.07 L8.96464 367.07 L8.96464 371.005 L-10.9427 371.005 L-10.9427 367.07 Z" fill="#000000" fill-rule="evenodd" fill-opacity="1" /><path clip-path="url(#clip380)" d="M 0 0 M24.034 339.524 Q20.4229 339.524 18.5942 343.089 Q16.7887 346.63 16.7887 353.76 Q16.7887 360.866 18.5942 364.431 Q20.4229 367.973 24.034 367.973 Q27.6682 367.973 29.4738 364.431 Q31.3025 360.866 31.3025 353.76 Q31.3025 346.63 29.4738 343.089 Q27.6682 339.524 24.034 339.524 M24.034 335.82 Q29.8442 335.82 32.8997 340.427 Q35.9784 345.01 35.9784 353.76 Q35.9784 362.487 32.8997 367.093 Q29.8442 371.676 24.034 371.676 Q18.2238 371.676 15.1452 367.093 Q12.0896 362.487 12.0896 353.76 Q12.0896 345.01 15.1452 340.427 Q18.2238 335.82 24.034 335.82 Z" fill="#000000" fill-rule="evenodd" fill-opacity="1" /><path clip-path="url(#clip380)" d="M 0 0 M51.0477 339.524 Q47.4367 339.524 45.608 343.089 Q43.8024 346.63 43.8024 353.76 Q43.8024 360.866 45.608 364.431 Q47.4367 367.973 51.0477 367.973 Q54.682 367.973 56.4875 364.431 Q58.3162 360.866 58.3162 353.76 Q58.3162 346.63 56.4875 343.089 Q54.682 339.524 51.0477 339.524 M51.0477 335.82 Q56.8579 335.82 59.9134 340.427 Q62.9921 345.01 62.9921 353.76 Q62.9921 362.487 59.9134 367.093 Q56.8579 371.676 51.0477 371.676 Q45.2376 371.676 42.1589 367.093 Q39.1034 362.487 39.1034 353.76 Q39.1034 345.01 42.1589 340.427 Q45.2376 335.82 51.0477 335.82 Z" fill="#000000" fill-rule="evenodd" fill-opacity="1" /><path clip-path="url(#clip380)" d="M 0 0 M-9.34545 141.955 L-1.7066 141.955 L-1.7066 115.59 L-10.0167 117.257 L-10.0167 112.997 L-1.7529 111.331 L2.923 111.331 L2.923 141.955 L10.5619 141.955 L10.5619 145.891 L-9.34545 145.891 L-9.34545 141.955 Z" fill="#000000" fill-rule="evenodd" fill-opacity="1" /><path clip-path="url(#clip380)" d="M 0 0 M19.659 141.955 L35.9784 141.955 L35.9784 145.891 L14.0341 145.891 L14.0341 141.955 Q16.6961 139.201 21.2794 134.571 Q25.8858 129.918 27.0664 128.576 Q29.3118 126.053 30.1914 124.317 Q31.0941 122.557 31.0941 120.868 Q31.0941 118.113 29.1497 116.377 Q27.2284 114.641 24.1266 114.641 Q21.9275 114.641 19.4738 115.405 Q17.0433 116.169 14.2655 117.719 L14.2655 112.997 Q17.0896 111.863 19.5433 111.284 Q21.997 110.706 24.034 110.706 Q29.4043 110.706 32.5988 113.391 Q35.7932 116.076 35.7932 120.567 Q35.7932 122.696 34.983 124.618 Q34.196 126.516 32.0895 129.108 Q31.5108 129.78 28.409 132.997 Q25.3071 136.192 19.659 141.955 Z" fill="#000000" fill-rule="evenodd" fill-opacity="1" /><path clip-path="url(#clip380)" d="M 0 0 M51.0477 114.409 Q47.4367 114.409 45.608 117.974 Q43.8024 121.516 43.8024 128.645 Q43.8024 135.752 45.608 139.317 Q47.4367 142.858 51.0477 142.858 Q54.682 142.858 56.4875 139.317 Q58.3162 135.752 58.3162 128.645 Q58.3162 121.516 56.4875 117.974 Q54.682 114.409 51.0477 114.409 M51.0477 110.706 Q56.8579 110.706 59.9134 115.312 Q62.9921 119.895 62.9921 128.645 Q62.9921 137.372 59.9134 141.979 Q56.8579 146.562 51.0477 146.562 Q45.2376 146.562 42.1589 141.979 Q39.1034 137.372 39.1034 128.645 Q39.1034 119.895 42.1589 115.312 Q45.2376 110.706 51.0477 110.706 Z" fill="#000000" fill-rule="evenodd" fill-opacity="1" /><path clip-path="url(#clip382)" d="
M151.118 1475.18 L155.829 1475.07 L160.54 1474.97 L165.25 1474.88 L169.961 1474.8 L174.672 1474.72 L179.383 1474.65 L184.094 1474.58 L188.805 1474.5 L193.516 1474.41 
  L198.227 1474.3 L202.938 1474.16 L207.649 1473.98 L212.36 1473.77 L217.071 1473.49 L221.782 1473.15 L226.493 1472.72 L231.204 1472.2 L235.915 1471.57 L240.626 1470.82 
  L245.337 1469.92 L250.048 1468.86 L254.759 1467.63 L259.47 1466.21 L264.181 1464.58 L268.892 1462.73 L273.603 1460.64 L278.314 1458.3 L283.025 1455.71 L287.736 1452.86 
  L292.447 1449.75 L297.158 1446.37 L301.869 1442.75 L306.58 1438.88 L311.291 1434.79 L316.002 1430.49 L320.713 1426.01 L325.424 1421.39 L330.135 1416.65 L334.846 1411.84 
  L339.557 1406.99 L344.268 1402.14 L348.979 1397.33 L353.69 1392.6 L358.401 1388 L363.112 1383.54 L367.823 1379.26 L372.534 1375.18 L377.245 1371.31 L381.956 1367.65 
  L386.667 1364.21 L391.378 1360.96 L396.089 1357.89 L400.8 1354.96 L405.511 1352.13 L410.222 1349.35 L414.933 1346.56 L419.644 1343.7 L424.355 1340.7 L429.066 1337.5 
  L433.777 1334.01 L438.488 1330.17 L443.199 1325.92 L447.91 1321.18 L452.621 1315.92 L457.332 1310.07 L462.043 1303.6 L466.754 1296.48 L471.465 1288.7 L476.176 1280.25 
  L480.887 1271.15 L485.598 1261.39 L490.309 1251.02 L495.02 1240.07 L499.731 1228.58 L504.442 1216.6 L509.153 1204.19 L513.864 1191.4 L518.575 1178.28 L523.286 1164.89 
  L527.997 1151.29 L532.708 1137.52 L537.419 1123.64 L542.13 1109.67 L546.841 1095.66 L551.552 1081.64 L556.263 1067.64 L560.974 1053.66 L565.685 1039.73 L570.396 1025.86 
  L575.107 1012.06 L579.818 998.324 L584.529 984.666 L589.24 971.083 L593.951 957.572 L598.662 944.129 L603.373 930.749 L608.084 917.422 L612.795 904.139 L617.506 890.887 
  L617.506 1479.3 L612.795 1479.3 L608.084 1479.3 L603.373 1479.3 L598.662 1479.3 L593.951 1479.3 L589.24 1479.3 L584.529 1479.3 L579.818 1479.3 L575.107 1479.3 
  L570.396 1479.3 L565.685 1479.3 L560.974 1479.3 L556.263 1479.3 L551.552 1479.3 L546.841 1479.3 L542.13 1479.3 L537.419 1479.3 L532.708 1479.3 L527.997 1479.3 
  L523.286 1479.3 L518.575 1479.3 L513.864 1479.3 L509.153 1479.3 L504.442 1479.3 L499.731 1479.3 L495.02 1479.3 L490.309 1479.3 L485.598 1479.3 L480.887 1479.3 
  L476.176 1479.3 L471.465 1479.3 L466.754 1479.3 L462.043 1479.3 L457.332 1479.3 L452.621 1479.3 L447.91 1479.3 L443.199 1479.3 L438.488 1479.3 L433.777 1479.3 
  L429.066 1479.3 L424.355 1479.3 L419.644 1479.3 L414.933 1479.3 L410.222 1479.3 L405.511 1479.3 L400.8 1479.3 L396.089 1479.3 L391.378 1479.3 L386.667 1479.3 
  L381.956 1479.3 L377.245 1479.3 L372.534 1479.3 L367.823 1479.3 L363.112 1479.3 L358.401 1479.3 L353.69 1479.3 L348.979 1479.3 L344.268 1479.3 L339.557 1479.3 
  L334.846 1479.3 L330.135 1479.3 L325.424 1479.3 L320.713 1479.3 L316.002 1479.3 L311.291 1479.3 L306.58 1479.3 L301.869 1479.3 L297.158 1479.3 L292.447 1479.3 
  L287.736 1479.3 L283.025 1479.3 L278.314 1479.3 L273.603 1479.3 L268.892 1479.3 L264.181 1479.3 L259.47 1479.3 L254.759 1479.3 L250.048 1479.3 L245.337 1479.3 
  L240.626 1479.3 L235.915 1479.3 L231.204 1479.3 L226.493 1479.3 L221.782 1479.3 L217.071 1479.3 L212.36 1479.3 L207.649 1479.3 L202.938 1479.3 L198.227 1479.3 
  L193.516 1479.3 L188.805 1479.3 L184.094 1479.3 L179.383 1479.3 L174.672 1479.3 L169.961 1479.3 L165.25 1479.3 L160.54 1479.3 L155.829 1479.3 L151.118 1479.3 
   Z
  " fill="#ffa500" fill-rule="evenodd" fill-opacity="0.5"/>
<polyline clip-path="url(#clip382)" style="stroke:#ffa500; stroke-width:4; stroke-opacity:1; fill:none" points="
  151.118,1475.18 155.829,1475.07 160.54,1474.97 165.25,1474.88 169.961,1474.8 174.672,1474.72 179.383,1474.65 184.094,1474.58 188.805,1474.5 193.516,1474.41 
  198.227,1474.3 202.938,1474.16 207.649,1473.98 212.36,1473.77 217.071,1473.49 221.782,1473.15 226.493,1472.72 231.204,1472.2 235.915,1471.57 240.626,1470.82 
  245.337,1469.92 250.048,1468.86 254.759,1467.63 259.47,1466.21 264.181,1464.58 268.892,1462.73 273.603,1460.64 278.314,1458.3 283.025,1455.71 287.736,1452.86 
  292.447,1449.75 297.158,1446.37 301.869,1442.75 306.58,1438.88 311.291,1434.79 316.002,1430.49 320.713,1426.01 325.424,1421.39 330.135,1416.65 334.846,1411.84 
  339.557,1406.99 344.268,1402.14 348.979,1397.33 353.69,1392.6 358.401,1388 363.112,1383.54 367.823,1379.26 372.534,1375.18 377.245,1371.31 381.956,1367.65 
  386.667,1364.21 391.378,1360.96 396.089,1357.89 400.8,1354.96 405.511,1352.13 410.222,1349.35 414.933,1346.56 419.644,1343.7 424.355,1340.7 429.066,1337.5 
  433.777,1334.01 438.488,1330.17 443.199,1325.92 447.91,1321.18 452.621,1315.92 457.332,1310.07 462.043,1303.6 466.754,1296.48 471.465,1288.7 476.176,1280.25 
  480.887,1271.15 485.598,1261.39 490.309,1251.02 495.02,1240.07 499.731,1228.58 504.442,1216.6 509.153,1204.19 513.864,1191.4 518.575,1178.28 523.286,1164.89 
  527.997,1151.29 532.708,1137.52 537.419,1123.64 542.13,1109.67 546.841,1095.66 551.552,1081.64 556.263,1067.64 560.974,1053.66 565.685,1039.73 570.396,1025.86 
  575.107,1012.06 579.818,998.324 584.529,984.666 589.24,971.083 593.951,957.572 598.662,944.129 603.373,930.749 608.084,917.422 612.795,904.139 617.506,890.887 
  
  "/>
<path clip-path="url(#clip382)" d="
M617.506 890.887 L629.936 855.952 L642.366 820.779 L654.796 784.97 L667.226 748.158 L679.656 710.119 L692.086 670.875 L704.516 630.753 L716.946 590.372 L729.376 550.578 
  L741.806 512.317 L754.236 476.494 L766.666 443.818 L779.096 414.692 L791.526 389.147 L803.956 366.86 L816.386 347.248 L828.816 329.632 L841.246 313.423 L853.676 298.27 
  L866.106 284.124 L878.536 271.183 L890.966 259.731 L903.396 249.925 L915.826 241.612 L928.257 234.248 L940.687 226.958 L953.117 218.731 L965.547 208.681 L977.977 196.294 
  L990.407 181.585 L1002.84 165.118 L1015.27 147.887 L1027.7 131.119 L1040.13 116.048 L1052.56 103.724 L1064.99 94.8902 L1077.42 89.9455 L1089.85 88.9544 L1102.28 91.6929 
  L1114.71 97.6925 L1127.14 106.276 L1139.57 116.6 L1152 127.717 L1164.43 138.7 L1176.86 148.811 L1189.29 157.681 L1201.72 165.444 L1214.15 172.762 L1226.58 180.702 
  L1239.01 190.482 L1251.44 203.16 L1263.87 219.362 L1276.3 239.136 L1288.73 261.978 L1301.16 287.013 L1313.59 313.243 L1326.02 339.773 L1338.45 365.911 L1350.88 391.134 
  L1363.31 414.947 L1375.74 436.73 L1388.17 455.685 L1400.6 470.914 L1413.03 481.632 L1425.46 487.417 L1437.89 488.395 L1450.32 485.268 L1462.75 479.184 L1475.18 471.478 
  L1487.61 463.396 L1500.04 455.889 L1512.47 449.538 L1524.9 444.614 L1537.33 441.224 L1549.76 439.483 L1562.19 439.649 L1574.62 442.169 L1587.05 447.649 L1599.48 456.733 
  L1611.91 469.966 L1624.34 487.637 L1636.77 509.685 L1649.2 535.668 L1661.63 564.822 L1674.06 596.193 L1686.49 628.789 L1698.92 661.721 L1711.35 694.263 L1723.78 725.835 
  L1736.21 755.939 L1748.64 784.09 L1761.07 809.824 L1773.5 832.8 L1785.93 852.965 L1798.36 870.733 L1810.79 887.057 L1823.22 903.355 L1835.65 921.27 L1848.08 942.316 
  L1848.08 1479.3 L1835.65 1479.3 L1823.22 1479.3 L1810.79 1479.3 L1798.36 1479.3 L1785.93 1479.3 L1773.5 1479.3 L1761.07 1479.3 L1748.64 1479.3 L1736.21 1479.3 
  L1723.78 1479.3 L1711.35 1479.3 L1698.92 1479.3 L1686.49 1479.3 L1674.06 1479.3 L1661.63 1479.3 L1649.2 1479.3 L1636.77 1479.3 L1624.34 1479.3 L1611.91 1479.3 
  L1599.48 1479.3 L1587.05 1479.3 L1574.62 1479.3 L1562.19 1479.3 L1549.76 1479.3 L1537.33 1479.3 L1524.9 1479.3 L1512.47 1479.3 L1500.04 1479.3 L1487.61 1479.3 
  L1475.18 1479.3 L1462.75 1479.3 L1450.32 1479.3 L1437.89 1479.3 L1425.46 1479.3 L1413.03 1479.3 L1400.6 1479.3 L1388.17 1479.3 L1375.74 1479.3 L1363.31 1479.3 
  L1350.88 1479.3 L1338.45 1479.3 L1326.02 1479.3 L1313.59 1479.3 L1301.16 1479.3 L1288.73 1479.3 L1276.3 1479.3 L1263.87 1479.3 L1251.44 1479.3 L1239.01 1479.3 
  L1226.58 1479.3 L1214.15 1479.3 L1201.72 1479.3 L1189.29 1479.3 L1176.86 1479.3 L1164.43 1479.3 L1152 1479.3 L1139.57 1479.3 L1127.14 1479.3 L1114.71 1479.3 
  L1102.28 1479.3 L1089.85 1479.3 L1077.42 1479.3 L1064.99 1479.3 L1052.56 1479.3 L1040.13 1479.3 L1027.7 1479.3 L1015.27 1479.3 L1002.84 1479.3 L990.407 1479.3 
  L977.977 1479.3 L965.547 1479.3 L953.117 1479.3 L940.687 1479.3 L928.257 1479.3 L915.826 1479.3 L903.396 1479.3 L890.966 1479.3 L878.536 1479.3 L866.106 1479.3 
  L853.676 1479.3 L841.246 1479.3 L828.816 1479.3 L816.386 1479.3 L803.956 1479.3 L791.526 1479.3 L779.096 1479.3 L766.666 1479.3 L754.236 1479.3 L741.806 1479.3 
  L729.376 1479.3 L716.946 1479.3 L704.516 1479.3 L692.086 1479.3 L679.656 1479.3 L667.226 1479.3 L654.796 1479.3 L642.366 1479.3 L629.936 1479.3 L617.506 1479.3 
   Z
  " fill="#008000" fill-rule="evenodd" fill-opacity="0.5"/>
<polyline clip-path="url(#clip382)" style="stroke:#008000; stroke-width:4; stroke-opacity:1; fill:none" points="
  617.506,890.887 629.936,855.952 642.366,820.779 654.796,784.97 667.226,748.158 679.656,710.119 692.086,670.875 704.516,630.753 716.946,590.372 729.376,550.578 
  741.806,512.317 754.236,476.494 766.666,443.818 779.096,414.692 791.526,389.147 803.956,366.86 816.386,347.248 828.816,329.632 841.246,313.423 853.676,298.27 
  866.106,284.124 878.536,271.183 890.966,259.731 903.396,249.925 915.826,241.612 928.257,234.248 940.687,226.958 953.117,218.731 965.547,208.681 977.977,196.294 
  990.407,181.585 1002.84,165.118 1015.27,147.887 1027.7,131.119 1040.13,116.048 1052.56,103.724 1064.99,94.8902 1077.42,89.9455 1089.85,88.9544 1102.28,91.6929 
  1114.71,97.6925 1127.14,106.276 1139.57,116.6 1152,127.717 1164.43,138.7 1176.86,148.811 1189.29,157.681 1201.72,165.444 1214.15,172.762 1226.58,180.702 
  1239.01,190.482 1251.44,203.16 1263.87,219.362 1276.3,239.136 1288.73,261.978 1301.16,287.013 1313.59,313.243 1326.02,339.773 1338.45,365.911 1350.88,391.134 
  1363.31,414.947 1375.74,436.73 1388.17,455.685 1400.6,470.914 1413.03,481.632 1425.46,487.417 1437.89,488.395 1450.32,485.268 1462.75,479.184 1475.18,471.478 
  1487.61,463.396 1500.04,455.889 1512.47,449.538 1524.9,444.614 1537.33,441.224 1549.76,439.483 1562.19,439.649 1574.62,442.169 1587.05,447.649 1599.48,456.733 
  1611.91,469.966 1624.34,487.637 1636.77,509.685 1649.2,535.668 1661.63,564.822 1674.06,596.193 1686.49,628.789 1698.92,661.721 1711.35,694.263 1723.78,725.835 
  1736.21,755.939 1748.64,784.09 1761.07,809.824 1773.5,832.8 1785.93,852.965 1798.36,870.733 1810.79,887.057 1823.22,903.355 1835.65,921.27 1848.08,942.316 
  
  "/>
<path clip-path="url(#clip382)" d="
M1848.08 942.316 L1852.53 950.831 L1856.98 959.914 L1861.43 969.578 L1865.88 979.824 L1870.33 990.638 L1874.78 1001.99 L1879.23 1013.85 L1883.68 1026.16 L1888.13 1038.87 
  L1892.58 1051.91 L1897.03 1065.2 L1901.48 1078.68 L1905.93 1092.27 L1910.38 1105.88 L1914.83 1119.44 L1919.28 1132.89 L1923.73 1146.15 L1928.18 1159.16 L1932.63 1171.88 
  L1937.08 1184.24 L1941.53 1196.21 L1945.98 1207.76 L1950.43 1218.87 L1954.88 1229.51 L1959.33 1239.68 L1963.78 1249.37 L1968.23 1258.58 L1972.68 1267.32 L1977.13 1275.6 
  L1981.58 1283.43 L1986.03 1290.82 L1990.48 1297.8 L1994.93 1304.37 L1999.38 1310.56 L2003.83 1316.38 L2008.28 1321.85 L2012.73 1326.98 L2017.18 1331.79 L2021.63 1336.29 
  L2026.08 1340.48 L2030.53 1344.38 L2034.98 1348 L2039.43 1351.34 L2043.88 1354.39 L2048.33 1357.18 L2052.78 1359.71 L2057.23 1361.98 L2061.68 1363.99 L2066.13 1365.78 
  L2070.58 1367.33 L2075.03 1368.68 L2079.48 1369.85 L2083.93 1370.85 L2088.38 1371.72 L2092.83 1372.48 L2097.28 1373.18 L2101.73 1373.85 L2106.18 1374.53 L2110.63 1375.26 
  L2115.08 1376.08 L2119.53 1377.03 L2123.98 1378.15 L2128.43 1379.46 L2132.88 1381 L2137.33 1382.79 L2141.78 1384.85 L2146.23 1387.19 L2150.68 1389.81 L2155.13 1392.7 
  L2159.58 1395.86 L2164.03 1399.26 L2168.48 1402.89 L2172.93 1406.7 L2177.38 1410.67 L2181.83 1414.75 L2186.28 1418.91 L2190.73 1423.1 L2195.18 1427.28 L2199.63 1431.42 
  L2204.08 1435.47 L2208.53 1439.39 L2212.98 1443.16 L2217.43 1446.76 L2221.88 1450.15 L2226.33 1453.33 L2230.78 1456.28 L2235.23 1459 L2239.68 1461.48 L2244.13 1463.73 
  L2248.58 1465.75 L2253.03 1467.55 L2257.48 1469.15 L2261.93 1470.55 L2266.38 1471.78 L2270.83 1472.84 L2275.28 1473.75 L2279.73 1474.53 L2284.18 1475.2 L2288.63 1475.77 
  L2288.63 1479.3 L2284.18 1479.3 L2279.73 1479.3 L2275.28 1479.3 L2270.83 1479.3 L2266.38 1479.3 L2261.93 1479.3 L2257.48 1479.3 L2253.03 1479.3 L2248.58 1479.3 
  L2244.13 1479.3 L2239.68 1479.3 L2235.23 1479.3 L2230.78 1479.3 L2226.33 1479.3 L2221.88 1479.3 L2217.43 1479.3 L2212.98 1479.3 L2208.53 1479.3 L2204.08 1479.3 
  L2199.63 1479.3 L2195.18 1479.3 L2190.73 1479.3 L2186.28 1479.3 L2181.83 1479.3 L2177.38 1479.3 L2172.93 1479.3 L2168.48 1479.3 L2164.03 1479.3 L2159.58 1479.3 
  L2155.13 1479.3 L2150.68 1479.3 L2146.23 1479.3 L2141.78 1479.3 L2137.33 1479.3 L2132.88 1479.3 L2128.43 1479.3 L2123.98 1479.3 L2119.53 1479.3 L2115.08 1479.3 
  L2110.63 1479.3 L2106.18 1479.3 L2101.73 1479.3 L2097.28 1479.3 L2092.83 1479.3 L2088.38 1479.3 L2083.93 1479.3 L2079.48 1479.3 L2075.03 1479.3 L2070.58 1479.3 
  L2066.13 1479.3 L2061.68 1479.3 L2057.23 1479.3 L2052.78 1479.3 L2048.33 1479.3 L2043.88 1479.3 L2039.43 1479.3 L2034.98 1479.3 L2030.53 1479.3 L2026.08 1479.3 
  L2021.63 1479.3 L2017.18 1479.3 L2012.73 1479.3 L2008.28 1479.3 L2003.83 1479.3 L1999.38 1479.3 L1994.93 1479.3 L1990.48 1479.3 L1986.03 1479.3 L1981.58 1479.3 
  L1977.13 1479.3 L1972.68 1479.3 L1968.23 1479.3 L1963.78 1479.3 L1959.33 1479.3 L1954.88 1479.3 L1950.43 1479.3 L1945.98 1479.3 L1941.53 1479.3 L1937.08 1479.3 
  L1932.63 1479.3 L1928.18 1479.3 L1923.73 1479.3 L1919.28 1479.3 L1914.83 1479.3 L1910.38 1479.3 L1905.93 1479.3 L1901.48 1479.3 L1897.03 1479.3 L1892.58 1479.3 
  L1888.13 1479.3 L1883.68 1479.3 L1879.23 1479.3 L1874.78 1479.3 L1870.33 1479.3 L1865.88 1479.3 L1861.43 1479.3 L1856.98 1479.3 L1852.53 1479.3 L1848.08 1479.3 
   Z
  " fill="#ffa500" fill-rule="evenodd" fill-opacity="0.5"/>
<polyline clip-path="url(#clip382)" style="stroke:#ffa500; stroke-width:4; stroke-opacity:1; fill:none" points="
  1848.08,942.316 1852.53,950.831 1856.98,959.914 1861.43,969.578 1865.88,979.824 1870.33,990.638 1874.78,1001.99 1879.23,1013.85 1883.68,1026.16 1888.13,1038.87 
  1892.58,1051.91 1897.03,1065.2 1901.48,1078.68 1905.93,1092.27 1910.38,1105.88 1914.83,1119.44 1919.28,1132.89 1923.73,1146.15 1928.18,1159.16 1932.63,1171.88 
  1937.08,1184.24 1941.53,1196.21 1945.98,1207.76 1950.43,1218.87 1954.88,1229.51 1959.33,1239.68 1963.78,1249.37 1968.23,1258.58 1972.68,1267.32 1977.13,1275.6 
  1981.58,1283.43 1986.03,1290.82 1990.48,1297.8 1994.93,1304.37 1999.38,1310.56 2003.83,1316.38 2008.28,1321.85 2012.73,1326.98 2017.18,1331.79 2021.63,1336.29 
  2026.08,1340.48 2030.53,1344.38 2034.98,1348 2039.43,1351.34 2043.88,1354.39 2048.33,1357.18 2052.78,1359.71 2057.23,1361.98 2061.68,1363.99 2066.13,1365.78 
  2070.58,1367.33 2075.03,1368.68 2079.48,1369.85 2083.93,1370.85 2088.38,1371.72 2092.83,1372.48 2097.28,1373.18 2101.73,1373.85 2106.18,1374.53 2110.63,1375.26 
  2115.08,1376.08 2119.53,1377.03 2123.98,1378.15 2128.43,1379.46 2132.88,1381 2137.33,1382.79 2141.78,1384.85 2146.23,1387.19 2150.68,1389.81 2155.13,1392.7 
  2159.58,1395.86 2164.03,1399.26 2168.48,1402.89 2172.93,1406.7 2177.38,1410.67 2181.83,1414.75 2186.28,1418.91 2190.73,1423.1 2195.18,1427.28 2199.63,1431.42 
  2204.08,1435.47 2208.53,1439.39 2212.98,1443.16 2217.43,1446.76 2221.88,1450.15 2226.33,1453.33 2230.78,1456.28 2235.23,1459 2239.68,1461.48 2244.13,1463.73 
  2248.58,1465.75 2253.03,1467.55 2257.48,1469.15 2261.93,1470.55 2266.38,1471.78 2270.83,1472.84 2275.28,1473.75 2279.73,1474.53 2284.18,1475.2 2288.63,1475.77 
  
  "/>
<polyline clip-path="url(#clip382)" style="stroke:#0000ff; stroke-width:4; stroke-opacity:1; fill:none" points="
  1207.38,1479.3 1207.38,168.774 
  "/>
<polyline clip-path="url(#clip382)" style="stroke:#000000; stroke-width:4; stroke-opacity:1; fill:none" points="
  1181.22,1479.3 1181.22,152.071 
  "/>
<path clip-path="url(#clip380)" d="
M1494.58 459.25 L2277.23 459.25 L2277.23 96.3696 L1494.58 96.3696  Z
  " fill="#ffffff" fill-rule="evenodd" fill-opacity="1"/>
<polyline clip-path="url(#clip380)" style="stroke:#000000; stroke-width:4; stroke-opacity:1; fill:none" points="
  1494.58,459.25 2277.23,459.25 2277.23,96.3696 1494.58,96.3696 1494.58,459.25 
  "/>
<path clip-path="url(#clip380)" d="
M1519.75 181.042 L1670.81 181.042 L1670.81 132.658 L1519.75 132.658 L1519.75 181.042  Z
  " fill="#ffa500" fill-rule="evenodd" fill-opacity="0.5"/>
<polyline clip-path="url(#clip380)" style="stroke:#ffa500; stroke-width:4; stroke-opacity:1; fill:none" points="
  1519.75,132.658 1670.81,132.658 
  "/>
<path clip-path="url(#clip380)" d="M 0 0 M1700.38 161.19 Q1700.38 165.889 1702.3 168.574 Q1704.24 171.236 1707.62 171.236 Q1711 171.236 1712.95 168.574 Q1714.89 165.889 1714.89 161.19 Q1714.89 156.491 1712.95 153.829 Q1711 151.144 1707.62 151.144 Q1704.24 151.144 1702.3 153.829 Q1700.38 156.491 1700.38 161.19 M1714.89 170.241 Q1713.55 172.555 1711.49 173.69 Q1709.45 174.801 1706.58 174.801 Q1701.88 174.801 1698.92 171.051 Q1695.98 167.301 1695.98 161.19 Q1695.98 155.079 1698.92 151.329 Q1701.88 147.579 1706.58 147.579 Q1709.45 147.579 1711.49 148.713 Q1713.55 149.824 1714.89 152.139 L1714.89 148.204 L1719.15 148.204 L1719.15 183.991 L1714.89 183.991 L1714.89 170.241 Z" fill="#000000" fill-rule="evenodd" fill-opacity="1" /><path clip-path="url(#clip380)" d="M 0 0 M1734.22 142.648 Q1730.61 142.648 1728.78 146.213 Q1726.98 149.755 1726.98 156.884 Q1726.98 163.991 1728.78 167.556 Q1730.61 171.097 1734.22 171.097 Q1737.85 171.097 1739.66 167.556 Q1741.49 163.991 1741.49 156.884 Q1741.49 149.755 1739.66 146.213 Q1737.85 142.648 1734.22 142.648 M1734.22 138.945 Q1740.03 138.945 1743.09 143.551 Q1746.17 148.134 1746.17 156.884 Q1746.17 165.611 1743.09 170.218 Q1740.03 174.801 1734.22 174.801 Q1728.41 174.801 1725.33 170.218 Q1722.28 165.611 1722.28 156.884 Q1722.28 148.134 1725.33 143.551 Q1728.41 138.945 1734.22 138.945 Z" fill="#000000" fill-rule="evenodd" fill-opacity="1" /><path clip-path="url(#clip380)" d="M 0 0 M1751.28 139.57 L1769.64 139.57 L1769.64 143.505 L1755.56 143.505 L1755.56 151.977 Q1756.58 151.63 1757.6 151.468 Q1758.62 151.282 1759.64 151.282 Q1765.42 151.282 1768.8 154.454 Q1772.18 157.625 1772.18 163.042 Q1772.18 168.62 1768.71 171.722 Q1765.24 174.801 1758.92 174.801 Q1756.74 174.801 1754.48 174.43 Q1752.23 174.06 1749.82 173.319 L1749.82 168.62 Q1751.91 169.755 1754.13 170.31 Q1756.35 170.866 1758.83 170.866 Q1762.83 170.866 1765.17 168.759 Q1767.51 166.653 1767.51 163.042 Q1767.51 159.431 1765.17 157.324 Q1762.83 155.218 1758.83 155.218 Q1756.95 155.218 1755.08 155.634 Q1753.23 156.051 1751.28 156.931 L1751.28 139.57 Z" fill="#000000" fill-rule="evenodd" fill-opacity="1" /><path clip-path="url(#clip380)" d="
M1519.75 241.522 L1670.81 241.522 L1670.81 193.138 L1519.75 193.138 L1519.75 241.522  Z
  " fill="#008000" fill-rule="evenodd" fill-opacity="0.5"/>
<polyline clip-path="url(#clip380)" style="stroke:#008000; stroke-width:4; stroke-opacity:1; fill:none" points="
  1519.75,193.138 1670.81,193.138 
  "/>
<path clip-path="url(#clip380)" d="M 0 0 M1698.2 233.892 L1698.2 229.633 Q1699.96 230.466 1701.77 230.906 Q1703.57 231.346 1705.31 231.346 Q1709.94 231.346 1712.37 228.244 Q1714.82 225.119 1715.17 218.776 Q1713.83 220.767 1711.77 221.832 Q1709.71 222.897 1707.21 222.897 Q1702.02 222.897 1698.99 219.772 Q1695.98 216.624 1695.98 211.184 Q1695.98 205.86 1699.13 202.642 Q1702.28 199.425 1707.51 199.425 Q1713.5 199.425 1716.65 204.031 Q1719.82 208.614 1719.82 217.364 Q1719.82 225.536 1715.93 230.42 Q1712.07 235.281 1705.52 235.281 Q1703.76 235.281 1701.95 234.934 Q1700.15 234.586 1698.2 233.892 M1707.51 219.239 Q1710.66 219.239 1712.48 217.086 Q1714.34 214.934 1714.34 211.184 Q1714.34 207.457 1712.48 205.304 Q1710.66 203.128 1707.51 203.128 Q1704.36 203.128 1702.51 205.304 Q1700.68 207.457 1700.68 211.184 Q1700.68 214.934 1702.51 217.086 Q1704.36 219.239 1707.51 219.239 Z" fill="#000000" fill-rule="evenodd" fill-opacity="1" /><path clip-path="url(#clip380)" d="M 0 0 M1734.89 203.128 Q1731.28 203.128 1729.45 206.693 Q1727.65 210.235 1727.65 217.364 Q1727.65 224.471 1729.45 228.036 Q1731.28 231.577 1734.89 231.577 Q1738.53 231.577 1740.33 228.036 Q1742.16 224.471 1742.16 217.364 Q1742.16 210.235 1740.33 206.693 Q1738.53 203.128 1734.89 203.128 M1734.89 199.425 Q1740.7 199.425 1743.76 204.031 Q1746.84 208.614 1746.84 217.364 Q1746.84 226.091 1743.76 230.698 Q1740.7 235.281 1734.89 235.281 Q1729.08 235.281 1726 230.698 Q1722.95 226.091 1722.95 217.364 Q1722.95 208.614 1726 204.031 Q1729.08 199.425 1734.89 199.425 Z" fill="#000000" fill-rule="evenodd" fill-opacity="1" /><path clip-path="url(#clip380)" d="M 0 0 M1781.3 219.401 Q1779.29 219.401 1778.13 221.114 Q1777 222.827 1777 225.883 Q1777 228.892 1778.13 230.628 Q1779.29 232.341 1781.3 232.341 Q1783.27 232.341 1784.41 230.628 Q1785.56 228.892 1785.56 225.883 Q1785.56 222.85 1784.41 221.137 Q1783.27 219.401 1781.3 219.401 M1781.3 216.462 Q1784.96 216.462 1787.11 219.008 Q1789.27 221.554 1789.27 225.883 Q1789.27 230.211 1787.09 232.758 Q1784.94 235.281 1781.3 235.281 Q1777.6 235.281 1775.45 232.758 Q1773.29 230.211 1773.29 225.883 Q1773.29 221.531 1775.45 219.008 Q1777.62 216.462 1781.3 216.462 M1757.42 202.364 Q1755.42 202.364 1754.27 204.1 Q1753.13 205.813 1753.13 208.823 Q1753.13 211.878 1754.27 213.591 Q1755.4 215.304 1757.42 215.304 Q1759.43 215.304 1760.56 213.591 Q1761.72 211.878 1761.72 208.823 Q1761.72 205.837 1760.56 204.1 Q1759.41 202.364 1757.42 202.364 M1778.32 199.425 L1782.02 199.425 L1760.4 235.281 L1756.7 235.281 L1778.32 199.425 M1757.42 199.425 Q1761.07 199.425 1763.25 201.971 Q1765.42 204.494 1765.42 208.823 Q1765.42 213.198 1763.25 215.721 Q1761.1 218.244 1757.42 218.244 Q1753.73 218.244 1751.58 215.721 Q1749.45 213.174 1749.45 208.823 Q1749.45 204.517 1751.6 201.971 Q1753.76 199.425 1757.42 199.425 Z" fill="#000000" fill-rule="evenodd" fill-opacity="1" /><path clip-path="url(#clip380)" d="M 0 0 M1830.35 218.961 L1830.35 234.61 L1826.1 234.61 L1826.1 219.1 Q1826.1 215.42 1824.66 213.591 Q1823.22 211.762 1820.35 211.762 Q1816.91 211.762 1814.91 213.962 Q1812.92 216.161 1812.92 219.957 L1812.92 234.61 L1808.64 234.61 L1808.64 208.684 L1812.92 208.684 L1812.92 212.712 Q1814.45 210.374 1816.51 209.216 Q1818.6 208.059 1821.3 208.059 Q1825.77 208.059 1828.06 210.837 Q1830.35 213.591 1830.35 218.961 Z" fill="#000000" fill-rule="evenodd" fill-opacity="1" /><path clip-path="url(#clip380)" d="M 0 0 M1844.87 211.67 Q1841.44 211.67 1839.45 214.355 Q1837.46 217.017 1837.46 221.67 Q1837.46 226.323 1839.43 229.008 Q1841.42 231.67 1844.87 231.67 Q1848.27 231.67 1850.26 228.985 Q1852.25 226.299 1852.25 221.67 Q1852.25 217.063 1850.26 214.378 Q1848.27 211.67 1844.87 211.67 M1844.87 208.059 Q1850.42 208.059 1853.6 211.67 Q1856.77 215.281 1856.77 221.67 Q1856.77 228.036 1853.6 231.67 Q1850.42 235.281 1844.87 235.281 Q1839.29 235.281 1836.12 231.67 Q1832.97 228.036 1832.97 221.67 Q1832.97 215.281 1836.12 211.67 Q1839.29 208.059 1844.87 208.059 Z" fill="#000000" fill-rule="evenodd" fill-opacity="1" /><path clip-path="url(#clip380)" d="M 0 0 M1882.78 218.961 L1882.78 234.61 L1878.53 234.61 L1878.53 219.1 Q1878.53 215.42 1877.09 213.591 Q1875.66 211.762 1872.78 211.762 Q1869.34 211.762 1867.35 213.962 Q1865.35 216.161 1865.35 219.957 L1865.35 234.61 L1861.07 234.61 L1861.07 208.684 L1865.35 208.684 L1865.35 212.712 Q1866.88 210.374 1868.94 209.216 Q1871.03 208.059 1873.73 208.059 Q1878.2 208.059 1880.49 210.837 Q1882.78 213.591 1882.78 218.961 Z" fill="#000000" fill-rule="evenodd" fill-opacity="1" /><path clip-path="url(#clip380)" d="M 0 0 M1885.1 219.725 L1897.58 219.725 L1897.58 223.522 L1885.1 223.522 L1885.1 219.725 Z" fill="#000000" fill-rule="evenodd" fill-opacity="1" /><path clip-path="url(#clip380)" d="M 0 0 M1917.07 212.665 Q1916.35 212.249 1915.49 212.063 Q1914.66 211.855 1913.64 211.855 Q1910.03 211.855 1908.09 214.216 Q1906.16 216.554 1906.16 220.952 L1906.16 234.61 L1901.88 234.61 L1901.88 208.684 L1906.16 208.684 L1906.16 212.712 Q1907.51 210.35 1909.66 209.216 Q1911.81 208.059 1914.89 208.059 Q1915.33 208.059 1915.86 208.128 Q1916.4 208.175 1917.04 208.29 L1917.07 212.665 Z" fill="#000000" fill-rule="evenodd" fill-opacity="1" /><path clip-path="url(#clip380)" d="M 0 0 M1942.67 220.582 L1942.67 222.665 L1923.09 222.665 Q1923.36 227.063 1925.72 229.378 Q1928.11 231.67 1932.34 231.67 Q1934.8 231.67 1937.09 231.068 Q1939.4 230.466 1941.67 229.262 L1941.67 233.29 Q1939.38 234.262 1936.97 234.772 Q1934.57 235.281 1932.09 235.281 Q1925.89 235.281 1922.25 231.67 Q1918.64 228.059 1918.64 221.901 Q1918.64 215.536 1922.07 211.809 Q1925.52 208.059 1931.35 208.059 Q1936.58 208.059 1939.61 211.438 Q1942.67 214.795 1942.67 220.582 M1938.41 219.332 Q1938.36 215.837 1936.44 213.753 Q1934.54 211.67 1931.4 211.67 Q1927.83 211.67 1925.68 213.684 Q1923.55 215.698 1923.22 219.355 L1938.41 219.332 Z" fill="#000000" fill-rule="evenodd" fill-opacity="1" /><path clip-path="url(#clip380)" d="M 0 0 M1947.14 208.684 L1951.4 208.684 L1951.4 235.073 Q1951.4 240.026 1949.5 242.248 Q1947.62 244.471 1943.43 244.471 L1941.81 244.471 L1941.81 240.86 L1942.95 240.86 Q1945.38 240.86 1946.26 239.725 Q1947.14 238.614 1947.14 235.073 L1947.14 208.684 M1947.14 198.591 L1951.4 198.591 L1951.4 203.985 L1947.14 203.985 L1947.14 198.591 Z" fill="#000000" fill-rule="evenodd" fill-opacity="1" /><path clip-path="url(#clip380)" d="M 0 0 M1978.04 220.582 L1978.04 222.665 L1958.46 222.665 Q1958.73 227.063 1961.09 229.378 Q1963.48 231.67 1967.71 231.67 Q1970.17 231.67 1972.46 231.068 Q1974.78 230.466 1977.04 229.262 L1977.04 233.29 Q1974.75 234.262 1972.34 234.772 Q1969.94 235.281 1967.46 235.281 Q1961.26 235.281 1957.62 231.67 Q1954.01 228.059 1954.01 221.901 Q1954.01 215.536 1957.44 211.809 Q1960.89 208.059 1966.72 208.059 Q1971.95 208.059 1974.98 211.438 Q1978.04 214.795 1978.04 220.582 M1973.78 219.332 Q1973.73 215.837 1971.81 213.753 Q1969.91 211.67 1966.77 211.67 Q1963.2 211.67 1961.05 213.684 Q1958.92 215.698 1958.59 219.355 L1973.78 219.332 Z" fill="#000000" fill-rule="evenodd" fill-opacity="1" /><path clip-path="url(#clip380)" d="M 0 0 M2001.16 209.679 L2001.16 213.661 Q1999.36 212.665 1997.53 212.179 Q1995.72 211.67 1993.87 211.67 Q1989.73 211.67 1987.44 214.309 Q1985.15 216.924 1985.15 221.67 Q1985.15 226.415 1987.44 229.054 Q1989.73 231.67 1993.87 231.67 Q1995.72 231.67 1997.53 231.184 Q1999.36 230.674 2001.16 229.679 L2001.16 233.614 Q1999.38 234.448 1997.46 234.864 Q1995.56 235.281 1993.41 235.281 Q1987.55 235.281 1984.1 231.6 Q1980.65 227.92 1980.65 221.67 Q1980.65 215.327 1984.13 211.693 Q1987.62 208.059 1993.69 208.059 Q1995.65 208.059 1997.53 208.475 Q1999.4 208.869 2001.16 209.679 Z" fill="#000000" fill-rule="evenodd" fill-opacity="1" /><path clip-path="url(#clip380)" d="M 0 0 M2009.84 201.323 L2009.84 208.684 L2018.62 208.684 L2018.62 211.994 L2009.84 211.994 L2009.84 226.068 Q2009.84 229.239 2010.7 230.142 Q2011.58 231.045 2014.24 231.045 L2018.62 231.045 L2018.62 234.61 L2014.24 234.61 Q2009.31 234.61 2007.44 232.781 Q2005.56 230.929 2005.56 226.068 L2005.56 211.994 L2002.44 211.994 L2002.44 208.684 L2005.56 208.684 L2005.56 201.323 L2009.84 201.323 Z" fill="#000000" fill-rule="evenodd" fill-opacity="1" /><path clip-path="url(#clip380)" d="M 0 0 M2023.08 208.684 L2027.34 208.684 L2027.34 234.61 L2023.08 234.61 L2023.08 208.684 M2023.08 198.591 L2027.34 198.591 L2027.34 203.985 L2023.08 203.985 L2023.08 198.591 Z" fill="#000000" fill-rule="evenodd" fill-opacity="1" /><path clip-path="url(#clip380)" d="M 0 0 M2041.86 211.67 Q2038.43 211.67 2036.44 214.355 Q2034.45 217.017 2034.45 221.67 Q2034.45 226.323 2036.42 229.008 Q2038.41 231.67 2041.86 231.67 Q2045.26 231.67 2047.25 228.985 Q2049.24 226.299 2049.24 221.67 Q2049.24 217.063 2047.25 214.378 Q2045.26 211.67 2041.86 211.67 M2041.86 208.059 Q2047.41 208.059 2050.58 211.67 Q2053.76 215.281 2053.76 221.67 Q2053.76 228.036 2050.58 231.67 Q2047.41 235.281 2041.86 235.281 Q2036.28 235.281 2033.11 231.67 Q2029.96 228.036 2029.96 221.67 Q2029.96 215.281 2033.11 211.67 Q2036.28 208.059 2041.86 208.059 Z" fill="#000000" fill-rule="evenodd" fill-opacity="1" /><path clip-path="url(#clip380)" d="M 0 0 M2079.77 218.961 L2079.77 234.61 L2075.52 234.61 L2075.52 219.1 Q2075.52 215.42 2074.08 213.591 Q2072.64 211.762 2069.77 211.762 Q2066.33 211.762 2064.33 213.962 Q2062.34 216.161 2062.34 219.957 L2062.34 234.61 L2058.06 234.61 L2058.06 208.684 L2062.34 208.684 L2062.34 212.712 Q2063.87 210.374 2065.93 209.216 Q2068.02 208.059 2070.72 208.059 Q2075.19 208.059 2077.48 210.837 Q2079.77 213.591 2079.77 218.961 Z" fill="#000000" fill-rule="evenodd" fill-opacity="1" /><path clip-path="url(#clip380)" d="M 0 0 M2114.33 212.665 Q2113.62 212.249 2112.76 212.063 Q2111.93 211.855 2110.91 211.855 Q2107.3 211.855 2105.35 214.216 Q2103.43 216.554 2103.43 220.952 L2103.43 234.61 L2099.15 234.61 L2099.15 208.684 L2103.43 208.684 L2103.43 212.712 Q2104.77 210.35 2106.93 209.216 Q2109.08 208.059 2112.16 208.059 Q2112.6 208.059 2113.13 208.128 Q2113.66 208.175 2114.31 208.29 L2114.33 212.665 Z" fill="#000000" fill-rule="evenodd" fill-opacity="1" /><path clip-path="url(#clip380)" d="M 0 0 M2139.94 220.582 L2139.94 222.665 L2120.35 222.665 Q2120.63 227.063 2122.99 229.378 Q2125.38 231.67 2129.61 231.67 Q2132.07 231.67 2134.36 231.068 Q2136.67 230.466 2138.94 229.262 L2138.94 233.29 Q2136.65 234.262 2134.24 234.772 Q2131.83 235.281 2129.36 235.281 Q2123.15 235.281 2119.52 231.67 Q2115.91 228.059 2115.91 221.901 Q2115.91 215.536 2119.33 211.809 Q2122.78 208.059 2128.62 208.059 Q2133.85 208.059 2136.88 211.438 Q2139.94 214.795 2139.94 220.582 M2135.68 219.332 Q2135.63 215.837 2133.71 213.753 Q2131.81 211.67 2128.66 211.67 Q2125.1 211.67 2122.95 213.684 Q2120.82 215.698 2120.49 219.355 L2135.68 219.332 Z" fill="#000000" fill-rule="evenodd" fill-opacity="1" /><path clip-path="url(#clip380)" d="M 0 0 M2161.46 221.346 Q2161.46 216.716 2159.54 214.17 Q2157.64 211.624 2154.2 211.624 Q2150.77 211.624 2148.85 214.17 Q2146.95 216.716 2146.95 221.346 Q2146.95 225.952 2148.85 228.498 Q2150.77 231.045 2154.2 231.045 Q2157.64 231.045 2159.54 228.498 Q2161.46 225.952 2161.46 221.346 M2165.72 231.392 Q2165.72 238.012 2162.78 241.23 Q2159.84 244.471 2153.78 244.471 Q2151.53 244.471 2149.54 244.123 Q2147.55 243.799 2145.68 243.105 L2145.68 238.961 Q2147.55 239.98 2149.38 240.466 Q2151.21 240.952 2153.11 240.952 Q2157.3 240.952 2159.38 238.753 Q2161.46 236.577 2161.46 232.156 L2161.46 230.049 Q2160.14 232.341 2158.08 233.475 Q2156.02 234.61 2153.15 234.61 Q2148.39 234.61 2145.47 230.975 Q2142.55 227.341 2142.55 221.346 Q2142.55 215.327 2145.47 211.693 Q2148.39 208.059 2153.15 208.059 Q2156.02 208.059 2158.08 209.193 Q2160.14 210.327 2161.46 212.619 L2161.46 208.684 L2165.72 208.684 L2165.72 231.392 Z" fill="#000000" fill-rule="evenodd" fill-opacity="1" /><path clip-path="url(#clip380)" d="M 0 0 M2170.19 208.684 L2174.45 208.684 L2174.45 234.61 L2170.19 234.61 L2170.19 208.684 M2170.19 198.591 L2174.45 198.591 L2174.45 203.985 L2170.19 203.985 L2170.19 198.591 Z" fill="#000000" fill-rule="evenodd" fill-opacity="1" /><path clip-path="url(#clip380)" d="M 0 0 M2188.96 211.67 Q2185.54 211.67 2183.55 214.355 Q2181.56 217.017 2181.56 221.67 Q2181.56 226.323 2183.52 229.008 Q2185.51 231.67 2188.96 231.67 Q2192.37 231.67 2194.36 228.985 Q2196.35 226.299 2196.35 221.67 Q2196.35 217.063 2194.36 214.378 Q2192.37 211.67 2188.96 211.67 M2188.96 208.059 Q2194.52 208.059 2197.69 211.67 Q2200.86 215.281 2200.86 221.67 Q2200.86 228.036 2197.69 231.67 Q2194.52 235.281 2188.96 235.281 Q2183.39 235.281 2180.21 231.67 Q2177.07 228.036 2177.07 221.67 Q2177.07 215.281 2180.21 211.67 Q2183.39 208.059 2188.96 208.059 Z" fill="#000000" fill-rule="evenodd" fill-opacity="1" /><path clip-path="url(#clip380)" d="M 0 0 M2226.88 218.961 L2226.88 234.61 L2222.62 234.61 L2222.62 219.1 Q2222.62 215.42 2221.19 213.591 Q2219.75 211.762 2216.88 211.762 Q2213.43 211.762 2211.44 213.962 Q2209.45 216.161 2209.45 219.957 L2209.45 234.61 L2205.17 234.61 L2205.17 208.684 L2209.45 208.684 L2209.45 212.712 Q2210.98 210.374 2213.04 209.216 Q2215.12 208.059 2217.83 208.059 Q2222.3 208.059 2224.59 210.837 Q2226.88 213.591 2226.88 218.961 Z" fill="#000000" fill-rule="evenodd" fill-opacity="1" /><path clip-path="url(#clip380)" d="
M1519.75 302.002 L1670.81 302.002 L1670.81 253.618 L1519.75 253.618 L1519.75 302.002  Z
  " fill="#ffa500" fill-rule="evenodd" fill-opacity="0.5"/>
<polyline clip-path="url(#clip380)" style="stroke:#ffa500; stroke-width:4; stroke-opacity:1; fill:none" points="
  1519.75,253.618 1670.81,253.618 
  "/>
<path clip-path="url(#clip380)" d="M 0 0 M1700.38 282.15 Q1700.38 286.849 1702.3 289.534 Q1704.24 292.196 1707.62 292.196 Q1711 292.196 1712.95 289.534 Q1714.89 286.849 1714.89 282.15 Q1714.89 277.451 1712.95 274.789 Q1711 272.104 1707.62 272.104 Q1704.24 272.104 1702.3 274.789 Q1700.38 277.451 1700.38 282.15 M1714.89 291.201 Q1713.55 293.515 1711.49 294.65 Q1709.45 295.761 1706.58 295.761 Q1701.88 295.761 1698.92 292.011 Q1695.98 288.261 1695.98 282.15 Q1695.98 276.039 1698.92 272.289 Q1701.88 268.539 1706.58 268.539 Q1709.45 268.539 1711.49 269.673 Q1713.55 270.784 1714.89 273.099 L1714.89 269.164 L1719.15 269.164 L1719.15 304.951 L1714.89 304.951 L1714.89 291.201 Z" fill="#000000" fill-rule="evenodd" fill-opacity="1" /><path clip-path="url(#clip380)" d="M 0 0 M1724.36 294.372 L1724.36 290.113 Q1726.12 290.946 1727.92 291.386 Q1729.73 291.826 1731.47 291.826 Q1736.1 291.826 1738.53 288.724 Q1740.98 285.599 1741.33 279.256 Q1739.98 281.247 1737.92 282.312 Q1735.86 283.377 1733.36 283.377 Q1728.18 283.377 1725.15 280.252 Q1722.14 277.104 1722.14 271.664 Q1722.14 266.34 1725.29 263.122 Q1728.43 259.905 1733.67 259.905 Q1739.66 259.905 1742.81 264.511 Q1745.98 269.094 1745.98 277.844 Q1745.98 286.016 1742.09 290.9 Q1738.23 295.761 1731.67 295.761 Q1729.92 295.761 1728.11 295.414 Q1726.3 295.066 1724.36 294.372 M1733.67 279.719 Q1736.81 279.719 1738.64 277.566 Q1740.49 275.414 1740.49 271.664 Q1740.49 267.937 1738.64 265.784 Q1736.81 263.608 1733.67 263.608 Q1730.52 263.608 1728.67 265.784 Q1726.84 267.937 1726.84 271.664 Q1726.84 275.414 1728.67 277.566 Q1730.52 279.719 1733.67 279.719 Z" fill="#000000" fill-rule="evenodd" fill-opacity="1" /><path clip-path="url(#clip380)" d="M 0 0 M1751.1 260.53 L1769.45 260.53 L1769.45 264.465 L1755.38 264.465 L1755.38 272.937 Q1756.4 272.59 1757.42 272.428 Q1758.43 272.242 1759.45 272.242 Q1765.24 272.242 1768.62 275.414 Q1772 278.585 1772 284.002 Q1772 289.58 1768.53 292.682 Q1765.05 295.761 1758.73 295.761 Q1756.56 295.761 1754.29 295.39 Q1752.04 295.02 1749.64 294.279 L1749.64 289.58 Q1751.72 290.715 1753.94 291.27 Q1756.17 291.826 1758.64 291.826 Q1762.65 291.826 1764.98 289.719 Q1767.32 287.613 1767.32 284.002 Q1767.32 280.391 1764.98 278.284 Q1762.65 276.178 1758.64 276.178 Q1756.77 276.178 1754.89 276.594 Q1753.04 277.011 1751.1 277.891 L1751.1 260.53 Z" fill="#000000" fill-rule="evenodd" fill-opacity="1" /><polyline clip-path="url(#clip380)" style="stroke:#0000ff; stroke-width:4; stroke-opacity:1; fill:none" points="
  1519.75,338.29 1670.81,338.29 
  "/>
<path clip-path="url(#clip380)" d="M 0 0 M1716.33 334.621 Q1717.92 331.75 1720.15 330.385 Q1722.37 329.019 1725.38 329.019 Q1729.43 329.019 1731.63 331.866 Q1733.83 334.69 1733.83 339.921 L1733.83 355.57 L1729.54 355.57 L1729.54 340.06 Q1729.54 336.334 1728.23 334.528 Q1726.91 332.722 1724.2 332.722 Q1720.89 332.722 1718.97 334.922 Q1717.04 337.121 1717.04 340.917 L1717.04 355.57 L1712.76 355.57 L1712.76 340.06 Q1712.76 336.31 1711.44 334.528 Q1710.12 332.722 1707.37 332.722 Q1704.11 332.722 1702.18 334.945 Q1700.26 337.144 1700.26 340.917 L1700.26 355.57 L1695.98 355.57 L1695.98 329.644 L1700.26 329.644 L1700.26 333.672 Q1701.72 331.287 1703.76 330.153 Q1705.79 329.019 1708.6 329.019 Q1711.42 329.019 1713.39 330.454 Q1715.38 331.889 1716.33 334.621 Z" fill="#000000" fill-rule="evenodd" fill-opacity="1" /><path clip-path="url(#clip380)" d="M 0 0 M1760.47 341.542 L1760.47 343.625 L1740.89 343.625 Q1741.17 348.023 1743.53 350.338 Q1745.91 352.63 1750.15 352.63 Q1752.6 352.63 1754.89 352.028 Q1757.21 351.426 1759.48 350.222 L1759.48 354.25 Q1757.18 355.222 1754.78 355.732 Q1752.37 356.241 1749.89 356.241 Q1743.69 356.241 1740.05 352.63 Q1736.44 349.019 1736.44 342.861 Q1736.44 336.496 1739.87 332.769 Q1743.32 329.019 1749.15 329.019 Q1754.38 329.019 1757.42 332.398 Q1760.47 335.755 1760.47 341.542 M1756.21 340.292 Q1756.17 336.797 1754.24 334.713 Q1752.35 332.63 1749.2 332.63 Q1745.63 332.63 1743.48 334.644 Q1741.35 336.658 1741.03 340.315 L1756.21 340.292 Z" fill="#000000" fill-rule="evenodd" fill-opacity="1" /><path clip-path="url(#clip380)" d="M 0 0 M1776.72 342.537 Q1771.56 342.537 1769.57 343.718 Q1767.58 344.898 1767.58 347.746 Q1767.58 350.014 1769.06 351.357 Q1770.56 352.676 1773.13 352.676 Q1776.67 352.676 1778.8 350.176 Q1780.96 347.653 1780.96 343.486 L1780.96 342.537 L1776.72 342.537 M1785.22 340.778 L1785.22 355.57 L1780.96 355.57 L1780.96 351.634 Q1779.5 353.995 1777.32 355.13 Q1775.15 356.241 1772 356.241 Q1768.02 356.241 1765.66 354.019 Q1763.32 351.773 1763.32 348.023 Q1763.32 343.648 1766.23 341.426 Q1769.17 339.204 1774.98 339.204 L1780.96 339.204 L1780.96 338.787 Q1780.96 335.847 1779.01 334.25 Q1777.09 332.63 1773.6 332.63 Q1771.37 332.63 1769.27 333.162 Q1767.16 333.695 1765.22 334.759 L1765.22 330.824 Q1767.55 329.922 1769.75 329.482 Q1771.95 329.019 1774.04 329.019 Q1779.66 329.019 1782.44 331.935 Q1785.22 334.852 1785.22 340.778 Z" fill="#000000" fill-rule="evenodd" fill-opacity="1" /><path clip-path="url(#clip380)" d="M 0 0 M1811.23 339.921 L1811.23 355.57 L1806.97 355.57 L1806.97 340.06 Q1806.97 336.38 1805.54 334.551 Q1804.1 332.722 1801.23 332.722 Q1797.79 332.722 1795.79 334.922 Q1793.8 337.121 1793.8 340.917 L1793.8 355.57 L1789.52 355.57 L1789.52 329.644 L1793.8 329.644 L1793.8 333.672 Q1795.33 331.334 1797.39 330.176 Q1799.48 329.019 1802.18 329.019 Q1806.65 329.019 1808.94 331.797 Q1811.23 334.551 1811.23 339.921 Z" fill="#000000" fill-rule="evenodd" fill-opacity="1" /><polyline clip-path="url(#clip380)" style="stroke:#000000; stroke-width:4; stroke-opacity:1; fill:none" points="
  1519.75,398.77 1670.81,398.77 
  "/>
<path clip-path="url(#clip380)" d="M 0 0 M1716.33 395.101 Q1717.92 392.23 1720.15 390.865 Q1722.37 389.499 1725.38 389.499 Q1729.43 389.499 1731.63 392.346 Q1733.83 395.17 1733.83 400.401 L1733.83 416.05 L1729.54 416.05 L1729.54 400.54 Q1729.54 396.814 1728.23 395.008 Q1726.91 393.202 1724.2 393.202 Q1720.89 393.202 1718.97 395.402 Q1717.04 397.601 1717.04 401.397 L1717.04 416.05 L1712.76 416.05 L1712.76 400.54 Q1712.76 396.79 1711.44 395.008 Q1710.12 393.202 1707.37 393.202 Q1704.11 393.202 1702.18 395.425 Q1700.26 397.624 1700.26 401.397 L1700.26 416.05 L1695.98 416.05 L1695.98 390.124 L1700.26 390.124 L1700.26 394.152 Q1701.72 391.767 1703.76 390.633 Q1705.79 389.499 1708.6 389.499 Q1711.42 389.499 1713.39 390.934 Q1715.38 392.369 1716.33 395.101 Z" fill="#000000" fill-rule="evenodd" fill-opacity="1" /><path clip-path="url(#clip380)" d="M 0 0 M1760.47 402.022 L1760.47 404.105 L1740.89 404.105 Q1741.17 408.503 1743.53 410.818 Q1745.91 413.11 1750.15 413.11 Q1752.6 413.11 1754.89 412.508 Q1757.21 411.906 1759.48 410.702 L1759.48 414.73 Q1757.18 415.702 1754.78 416.212 Q1752.37 416.721 1749.89 416.721 Q1743.69 416.721 1740.05 413.11 Q1736.44 409.499 1736.44 403.341 Q1736.44 396.976 1739.87 393.249 Q1743.32 389.499 1749.15 389.499 Q1754.38 389.499 1757.42 392.878 Q1760.47 396.235 1760.47 402.022 M1756.21 400.772 Q1756.17 397.277 1754.24 395.193 Q1752.35 393.11 1749.2 393.11 Q1745.63 393.11 1743.48 395.124 Q1741.35 397.138 1741.03 400.795 L1756.21 400.772 Z" fill="#000000" fill-rule="evenodd" fill-opacity="1" /><path clip-path="url(#clip380)" d="M 0 0 M1782 394.059 L1782 380.031 L1786.26 380.031 L1786.26 416.05 L1782 416.05 L1782 412.161 Q1780.66 414.475 1778.6 415.61 Q1776.56 416.721 1773.69 416.721 Q1768.99 416.721 1766.03 412.971 Q1763.09 409.221 1763.09 403.11 Q1763.09 396.999 1766.03 393.249 Q1768.99 389.499 1773.69 389.499 Q1776.56 389.499 1778.6 390.633 Q1780.66 391.744 1782 394.059 M1767.48 403.11 Q1767.48 407.809 1769.41 410.494 Q1771.35 413.156 1774.73 413.156 Q1778.11 413.156 1780.05 410.494 Q1782 407.809 1782 403.11 Q1782 398.411 1780.05 395.749 Q1778.11 393.064 1774.73 393.064 Q1771.35 393.064 1769.41 395.749 Q1767.48 398.411 1767.48 403.11 Z" fill="#000000" fill-rule="evenodd" fill-opacity="1" /><path clip-path="url(#clip380)" d="M 0 0 M1790.73 390.124 L1794.98 390.124 L1794.98 416.05 L1790.73 416.05 L1790.73 390.124 M1790.73 380.031 L1794.98 380.031 L1794.98 385.425 L1790.73 385.425 L1790.73 380.031 Z" fill="#000000" fill-rule="evenodd" fill-opacity="1" /><path clip-path="url(#clip380)" d="M 0 0 M1811.23 403.017 Q1806.07 403.017 1804.08 404.198 Q1802.09 405.378 1802.09 408.226 Q1802.09 410.494 1803.57 411.837 Q1805.08 413.156 1807.65 413.156 Q1811.19 413.156 1813.32 410.656 Q1815.47 408.133 1815.47 403.966 L1815.47 403.017 L1811.23 403.017 M1819.73 401.258 L1819.73 416.05 L1815.47 416.05 L1815.47 412.114 Q1814.01 414.475 1811.84 415.61 Q1809.66 416.721 1806.51 416.721 Q1802.53 416.721 1800.17 414.499 Q1797.83 412.253 1797.83 408.503 Q1797.83 404.128 1800.75 401.906 Q1803.69 399.684 1809.5 399.684 L1815.47 399.684 L1815.47 399.267 Q1815.47 396.327 1813.53 394.73 Q1811.6 393.11 1808.11 393.11 Q1805.89 393.11 1803.78 393.642 Q1801.67 394.175 1799.73 395.239 L1799.73 391.304 Q1802.07 390.402 1804.27 389.962 Q1806.47 389.499 1808.55 389.499 Q1814.17 389.499 1816.95 392.415 Q1819.73 395.332 1819.73 401.258 Z" fill="#000000" fill-rule="evenodd" fill-opacity="1" /><path clip-path="url(#clip380)" d="M 0 0 M1845.75 400.401 L1845.75 416.05 L1841.49 416.05 L1841.49 400.54 Q1841.49 396.86 1840.05 395.031 Q1838.62 393.202 1835.75 393.202 Q1832.3 393.202 1830.31 395.402 Q1828.32 397.601 1828.32 401.397 L1828.32 416.05 L1824.04 416.05 L1824.04 390.124 L1828.32 390.124 L1828.32 394.152 Q1829.85 391.814 1831.91 390.656 Q1833.99 389.499 1836.7 389.499 Q1841.16 389.499 1843.46 392.277 Q1845.75 395.031 1845.75 400.401 Z" fill="#000000" fill-rule="evenodd" fill-opacity="1" /></svg>
