<?xml version="1.0" encoding="utf-8"?>
<svg xmlns="http://www.w3.org/2000/svg" xmlns:xlink="http://www.w3.org/1999/xlink" width="600" height="400" viewBox="0 0 2400 1600">
<defs>
  <clipPath id="clip160">
    <rect x="0" y="0" width="2400" height="1600"/>
  </clipPath>
</defs>
<path clip-path="url(#clip160)" d="
M0 1600 L2400 1600 L2400 0 L0 0  Z
  " fill="#ffffff" fill-rule="evenodd" fill-opacity="1"/>
<defs>
  <clipPath id="clip161">
    <rect x="480" y="0" width="1681" height="1600"/>
  </clipPath>
</defs>
<path clip-path="url(#clip160)" d="
M189.237 1486.45 L2352.76 1486.45 L2352.76 47.2441 L189.237 47.2441  Z
  " fill="#ffffff" fill-rule="evenodd" fill-opacity="1"/>
<defs>
  <clipPath id="clip162">
    <rect x="189" y="47" width="2165" height="1440"/>
  </clipPath>
</defs>
<polyline clip-path="url(#clip162)" style="stroke:#000000; stroke-width:2; stroke-opacity:0.1; fill:none" points="
  216.149,1486.45 216.149,47.2441 
  "/>
<polyline clip-path="url(#clip162)" style="stroke:#000000; stroke-width:2; stroke-opacity:0.1; fill:none" points="
  824.466,1486.45 824.466,47.2441 
  "/>
<polyline clip-path="url(#clip162)" style="stroke:#000000; stroke-width:2; stroke-opacity:0.1; fill:none" points="
  1432.78,1486.45 1432.78,47.2441 
  "/>
<polyline clip-path="url(#clip162)" style="stroke:#000000; stroke-width:2; stroke-opacity:0.1; fill:none" points="
  2041.1,1486.45 2041.1,47.2441 
  "/>
<polyline clip-path="url(#clip162)" style="stroke:#000000; stroke-width:2; stroke-opacity:0.1; fill:none" points="
  189.237,1313.85 2352.76,1313.85 
  "/>
<polyline clip-path="url(#clip162)" style="stroke:#000000; stroke-width:2; stroke-opacity:0.1; fill:none" points="
  189.237,1100.2 2352.76,1100.2 
  "/>
<polyline clip-path="url(#clip162)" style="stroke:#000000; stroke-width:2; stroke-opacity:0.1; fill:none" points="
  189.237,886.553 2352.76,886.553 
  "/>
<polyline clip-path="url(#clip162)" style="stroke:#000000; stroke-width:2; stroke-opacity:0.1; fill:none" points="
  189.237,672.905 2352.76,672.905 
  "/>
<polyline clip-path="url(#clip162)" style="stroke:#000000; stroke-width:2; stroke-opacity:0.1; fill:none" points="
  189.237,459.257 2352.76,459.257 
  "/>
<polyline clip-path="url(#clip162)" style="stroke:#000000; stroke-width:2; stroke-opacity:0.1; fill:none" points="
  189.237,245.609 2352.76,245.609 
  "/>
<polyline clip-path="url(#clip160)" style="stroke:#000000; stroke-width:4; stroke-opacity:1; fill:none" points="
  189.237,1486.45 2352.76,1486.45 
  "/>
<polyline clip-path="url(#clip160)" style="stroke:#000000; stroke-width:4; stroke-opacity:1; fill:none" points="
  189.237,1486.45 189.237,47.2441 
  "/>
<polyline clip-path="url(#clip160)" style="stroke:#000000; stroke-width:4; stroke-opacity:1; fill:none" points="
  216.149,1486.45 216.149,1469.18 
  "/>
<polyline clip-path="url(#clip160)" style="stroke:#000000; stroke-width:4; stroke-opacity:1; fill:none" points="
  824.466,1486.45 824.466,1469.18 
  "/>
<polyline clip-path="url(#clip160)" style="stroke:#000000; stroke-width:4; stroke-opacity:1; fill:none" points="
  1432.78,1486.45 1432.78,1469.18 
  "/>
<polyline clip-path="url(#clip160)" style="stroke:#000000; stroke-width:4; stroke-opacity:1; fill:none" points="
  2041.1,1486.45 2041.1,1469.18 
  "/>
<polyline clip-path="url(#clip160)" style="stroke:#000000; stroke-width:4; stroke-opacity:1; fill:none" points="
  189.237,1313.85 215.199,1313.85 
  "/>
<polyline clip-path="url(#clip160)" style="stroke:#000000; stroke-width:4; stroke-opacity:1; fill:none" points="
  189.237,1100.2 215.199,1100.2 
  "/>
<polyline clip-path="url(#clip160)" style="stroke:#000000; stroke-width:4; stroke-opacity:1; fill:none" points="
  189.237,886.553 215.199,886.553 
  "/>
<polyline clip-path="url(#clip160)" style="stroke:#000000; stroke-width:4; stroke-opacity:1; fill:none" points="
  189.237,672.905 215.199,672.905 
  "/>
<polyline clip-path="url(#clip160)" style="stroke:#000000; stroke-width:4; stroke-opacity:1; fill:none" points="
  189.237,459.257 215.199,459.257 
  "/>
<polyline clip-path="url(#clip160)" style="stroke:#000000; stroke-width:4; stroke-opacity:1; fill:none" points="
  189.237,245.609 215.199,245.609 
  "/>
<path clip-path="url(#clip160)" d="M 0 0 M165.211 1525.04 L177.688 1525.04 L177.688 1528.83 L165.211 1528.83 L165.211 1525.04 Z" fill="#000000" fill-rule="evenodd" fill-opacity="1" /><path clip-path="url(#clip160)" d="M 0 0 M192.758 1508.44 Q189.146 1508.44 187.318 1512 Q185.512 1515.55 185.512 1522.67 Q185.512 1529.78 187.318 1533.35 Q189.146 1536.89 192.758 1536.89 Q196.392 1536.89 198.197 1533.35 Q200.026 1529.78 200.026 1522.67 Q200.026 1515.55 198.197 1512 Q196.392 1508.44 192.758 1508.44 M192.758 1504.73 Q198.568 1504.73 201.623 1509.34 Q204.702 1513.92 204.702 1522.67 Q204.702 1531.4 201.623 1536.01 Q198.568 1540.59 192.758 1540.59 Q186.947 1540.59 183.869 1536.01 Q180.813 1531.4 180.813 1522.67 Q180.813 1513.92 183.869 1509.34 Q186.947 1504.73 192.758 1504.73 Z" fill="#000000" fill-rule="evenodd" fill-opacity="1" /><path clip-path="url(#clip160)" d="M 0 0 M209.771 1534.04 L214.656 1534.04 L214.656 1539.92 L209.771 1539.92 L209.771 1534.04 Z" fill="#000000" fill-rule="evenodd" fill-opacity="1" /><path clip-path="url(#clip160)" d="M 0 0 M229.725 1508.44 Q226.114 1508.44 224.285 1512 Q222.48 1515.55 222.48 1522.67 Q222.48 1529.78 224.285 1533.35 Q226.114 1536.89 229.725 1536.89 Q233.359 1536.89 235.165 1533.35 Q236.993 1529.78 236.993 1522.67 Q236.993 1515.55 235.165 1512 Q233.359 1508.44 229.725 1508.44 M229.725 1504.73 Q235.535 1504.73 238.591 1509.34 Q241.669 1513.92 241.669 1522.67 Q241.669 1531.4 238.591 1536.01 Q235.535 1540.59 229.725 1540.59 Q223.915 1540.59 220.836 1536.01 Q217.781 1531.4 217.781 1522.67 Q217.781 1513.92 220.836 1509.34 Q223.915 1504.73 229.725 1504.73 Z" fill="#000000" fill-rule="evenodd" fill-opacity="1" /><path clip-path="url(#clip160)" d="M 0 0 M250.767 1535.98 L267.086 1535.98 L267.086 1539.92 L245.142 1539.92 L245.142 1535.98 Q247.804 1533.23 252.387 1528.6 Q256.993 1523.95 258.174 1522.61 Q260.419 1520.08 261.299 1518.35 Q262.202 1516.59 262.202 1514.9 Q262.202 1512.14 260.257 1510.41 Q258.336 1508.67 255.234 1508.67 Q253.035 1508.67 250.581 1509.43 Q248.151 1510.2 245.373 1511.75 L245.373 1507.03 Q248.197 1505.89 250.651 1505.31 Q253.104 1504.73 255.142 1504.73 Q260.512 1504.73 263.706 1507.42 Q266.901 1510.11 266.901 1514.6 Q266.901 1516.73 266.091 1518.65 Q265.303 1520.54 263.197 1523.14 Q262.618 1523.81 259.516 1527.03 Q256.415 1530.22 250.767 1535.98 Z" fill="#000000" fill-rule="evenodd" fill-opacity="1" /><path clip-path="url(#clip160)" d="M 0 0 M792.475 1508.44 Q788.864 1508.44 787.035 1512 Q785.23 1515.55 785.23 1522.67 Q785.23 1529.78 787.035 1533.35 Q788.864 1536.89 792.475 1536.89 Q796.109 1536.89 797.915 1533.35 Q799.743 1529.78 799.743 1522.67 Q799.743 1515.55 797.915 1512 Q796.109 1508.44 792.475 1508.44 M792.475 1504.73 Q798.285 1504.73 801.341 1509.34 Q804.419 1513.92 804.419 1522.67 Q804.419 1531.4 801.341 1536.01 Q798.285 1540.59 792.475 1540.59 Q786.665 1540.59 783.586 1536.01 Q780.531 1531.4 780.531 1522.67 Q780.531 1513.92 783.586 1509.34 Q786.665 1504.73 792.475 1504.73 Z" fill="#000000" fill-rule="evenodd" fill-opacity="1" /><path clip-path="url(#clip160)" d="M 0 0 M809.489 1534.04 L814.373 1534.04 L814.373 1539.92 L809.489 1539.92 L809.489 1534.04 Z" fill="#000000" fill-rule="evenodd" fill-opacity="1" /><path clip-path="url(#clip160)" d="M 0 0 M829.442 1508.44 Q825.831 1508.44 824.003 1512 Q822.197 1515.55 822.197 1522.67 Q822.197 1529.78 824.003 1533.35 Q825.831 1536.89 829.442 1536.89 Q833.077 1536.89 834.882 1533.35 Q836.711 1529.78 836.711 1522.67 Q836.711 1515.55 834.882 1512 Q833.077 1508.44 829.442 1508.44 M829.442 1504.73 Q835.253 1504.73 838.308 1509.34 Q841.387 1513.92 841.387 1522.67 Q841.387 1531.4 838.308 1536.01 Q835.253 1540.59 829.442 1540.59 Q823.632 1540.59 820.554 1536.01 Q817.498 1531.4 817.498 1522.67 Q817.498 1513.92 820.554 1509.34 Q823.632 1504.73 829.442 1504.73 Z" fill="#000000" fill-rule="evenodd" fill-opacity="1" /><path clip-path="url(#clip160)" d="M 0 0 M856.456 1508.44 Q852.845 1508.44 851.016 1512 Q849.211 1515.55 849.211 1522.67 Q849.211 1529.78 851.016 1533.35 Q852.845 1536.89 856.456 1536.89 Q860.09 1536.89 861.896 1533.35 Q863.725 1529.78 863.725 1522.67 Q863.725 1515.55 861.896 1512 Q860.09 1508.44 856.456 1508.44 M856.456 1504.73 Q862.266 1504.73 865.322 1509.34 Q868.401 1513.92 868.401 1522.67 Q868.401 1531.4 865.322 1536.01 Q862.266 1540.59 856.456 1540.59 Q850.646 1540.59 847.567 1536.01 Q844.512 1531.4 844.512 1522.67 Q844.512 1513.92 847.567 1509.34 Q850.646 1504.73 856.456 1504.73 Z" fill="#000000" fill-rule="evenodd" fill-opacity="1" /><path clip-path="url(#clip160)" d="M 0 0 M1401.59 1508.44 Q1397.98 1508.44 1396.15 1512 Q1394.35 1515.55 1394.35 1522.67 Q1394.35 1529.78 1396.15 1533.35 Q1397.98 1536.89 1401.59 1536.89 Q1405.22 1536.89 1407.03 1533.35 Q1408.86 1529.78 1408.86 1522.67 Q1408.86 1515.55 1407.03 1512 Q1405.22 1508.44 1401.59 1508.44 M1401.59 1504.73 Q1407.4 1504.73 1410.46 1509.34 Q1413.53 1513.92 1413.53 1522.67 Q1413.53 1531.4 1410.46 1536.01 Q1407.4 1540.59 1401.59 1540.59 Q1395.78 1540.59 1392.7 1536.01 Q1389.65 1531.4 1389.65 1522.67 Q1389.65 1513.92 1392.7 1509.34 Q1395.78 1504.73 1401.59 1504.73 Z" fill="#000000" fill-rule="evenodd" fill-opacity="1" /><path clip-path="url(#clip160)" d="M 0 0 M1418.6 1534.04 L1423.49 1534.04 L1423.49 1539.92 L1418.6 1539.92 L1418.6 1534.04 Z" fill="#000000" fill-rule="evenodd" fill-opacity="1" /><path clip-path="url(#clip160)" d="M 0 0 M1438.56 1508.44 Q1434.95 1508.44 1433.12 1512 Q1431.31 1515.55 1431.31 1522.67 Q1431.31 1529.78 1433.12 1533.35 Q1434.95 1536.89 1438.56 1536.89 Q1442.19 1536.89 1444 1533.35 Q1445.83 1529.78 1445.83 1522.67 Q1445.83 1515.55 1444 1512 Q1442.19 1508.44 1438.56 1508.44 M1438.56 1504.73 Q1444.37 1504.73 1447.42 1509.34 Q1450.5 1513.92 1450.5 1522.67 Q1450.5 1531.4 1447.42 1536.01 Q1444.37 1540.59 1438.56 1540.59 Q1432.75 1540.59 1429.67 1536.01 Q1426.61 1531.4 1426.61 1522.67 Q1426.61 1513.92 1429.67 1509.34 Q1432.75 1504.73 1438.56 1504.73 Z" fill="#000000" fill-rule="evenodd" fill-opacity="1" /><path clip-path="url(#clip160)" d="M 0 0 M1459.6 1535.98 L1475.92 1535.98 L1475.92 1539.92 L1453.97 1539.92 L1453.97 1535.98 Q1456.64 1533.23 1461.22 1528.6 Q1465.83 1523.95 1467.01 1522.61 Q1469.25 1520.08 1470.13 1518.35 Q1471.03 1516.59 1471.03 1514.9 Q1471.03 1512.14 1469.09 1510.41 Q1467.17 1508.67 1464.07 1508.67 Q1461.87 1508.67 1459.41 1509.43 Q1456.98 1510.2 1454.21 1511.75 L1454.21 1507.03 Q1457.03 1505.89 1459.48 1505.31 Q1461.94 1504.73 1463.97 1504.73 Q1469.34 1504.73 1472.54 1507.42 Q1475.73 1510.11 1475.73 1514.6 Q1475.73 1516.73 1474.92 1518.65 Q1474.14 1520.54 1472.03 1523.14 Q1471.45 1523.81 1468.35 1527.03 Q1465.25 1530.22 1459.6 1535.98 Z" fill="#000000" fill-rule="evenodd" fill-opacity="1" /><path clip-path="url(#clip160)" d="M 0 0 M2008.87 1508.44 Q2005.25 1508.44 2003.43 1512 Q2001.62 1515.55 2001.62 1522.67 Q2001.62 1529.78 2003.43 1533.35 Q2005.25 1536.89 2008.87 1536.89 Q2012.5 1536.89 2014.31 1533.35 Q2016.13 1529.78 2016.13 1522.67 Q2016.13 1515.55 2014.31 1512 Q2012.5 1508.44 2008.87 1508.44 M2008.87 1504.73 Q2014.68 1504.73 2017.73 1509.34 Q2020.81 1513.92 2020.81 1522.67 Q2020.81 1531.4 2017.73 1536.01 Q2014.68 1540.59 2008.87 1540.59 Q2003.06 1540.59 1999.98 1536.01 Q1996.92 1531.4 1996.92 1522.67 Q1996.92 1513.92 1999.98 1509.34 Q2003.06 1504.73 2008.87 1504.73 Z" fill="#000000" fill-rule="evenodd" fill-opacity="1" /><path clip-path="url(#clip160)" d="M 0 0 M2025.88 1534.04 L2030.76 1534.04 L2030.76 1539.92 L2025.88 1539.92 L2025.88 1534.04 Z" fill="#000000" fill-rule="evenodd" fill-opacity="1" /><path clip-path="url(#clip160)" d="M 0 0 M2045.83 1508.44 Q2042.22 1508.44 2040.39 1512 Q2038.59 1515.55 2038.59 1522.67 Q2038.59 1529.78 2040.39 1533.35 Q2042.22 1536.89 2045.83 1536.89 Q2049.47 1536.89 2051.27 1533.35 Q2053.1 1529.78 2053.1 1522.67 Q2053.1 1515.55 2051.27 1512 Q2049.47 1508.44 2045.83 1508.44 M2045.83 1504.73 Q2051.64 1504.73 2054.7 1509.34 Q2057.78 1513.92 2057.78 1522.67 Q2057.78 1531.4 2054.7 1536.01 Q2051.64 1540.59 2045.83 1540.59 Q2040.02 1540.59 2036.94 1536.01 Q2033.89 1531.4 2033.89 1522.67 Q2033.89 1513.92 2036.94 1509.34 Q2040.02 1504.73 2045.83 1504.73 Z" fill="#000000" fill-rule="evenodd" fill-opacity="1" /><path clip-path="url(#clip160)" d="M 0 0 M2075.69 1509.43 L2063.89 1527.88 L2075.69 1527.88 L2075.69 1509.43 M2074.47 1505.36 L2080.35 1505.36 L2080.35 1527.88 L2085.28 1527.88 L2085.28 1531.77 L2080.35 1531.77 L2080.35 1539.92 L2075.69 1539.92 L2075.69 1531.77 L2060.09 1531.77 L2060.09 1527.26 L2074.47 1505.36 Z" fill="#000000" fill-rule="evenodd" fill-opacity="1" /><path clip-path="url(#clip160)" d="M 0 0 M62.9921 1316.24 L75.4689 1316.24 L75.4689 1320.04 L62.9921 1320.04 L62.9921 1316.24 Z" fill="#000000" fill-rule="evenodd" fill-opacity="1" /><path clip-path="url(#clip160)" d="M 0 0 M90.5383 1299.65 Q86.9272 1299.65 85.0985 1303.21 Q83.2929 1306.75 83.2929 1313.88 Q83.2929 1320.99 85.0985 1324.55 Q86.9272 1328.1 90.5383 1328.1 Q94.1725 1328.1 95.9781 1324.55 Q97.8068 1320.99 97.8068 1313.88 Q97.8068 1306.75 95.9781 1303.21 Q94.1725 1299.65 90.5383 1299.65 M90.5383 1295.94 Q96.3484 1295.94 99.404 1300.55 Q102.483 1305.13 102.483 1313.88 Q102.483 1322.61 99.404 1327.22 Q96.3484 1331.8 90.5383 1331.8 Q84.7281 1331.8 81.6494 1327.22 Q78.5939 1322.61 78.5939 1313.88 Q78.5939 1305.13 81.6494 1300.55 Q84.7281 1295.94 90.5383 1295.94 Z" fill="#000000" fill-rule="evenodd" fill-opacity="1" /><path clip-path="url(#clip160)" d="M 0 0 M107.552 1325.25 L112.436 1325.25 L112.436 1331.13 L107.552 1331.13 L107.552 1325.25 Z" fill="#000000" fill-rule="evenodd" fill-opacity="1" /><path clip-path="url(#clip160)" d="M 0 0 M127.506 1299.65 Q123.895 1299.65 122.066 1303.21 Q120.26 1306.75 120.26 1313.88 Q120.26 1320.99 122.066 1324.55 Q123.895 1328.1 127.506 1328.1 Q131.14 1328.1 132.945 1324.55 Q134.774 1320.99 134.774 1313.88 Q134.774 1306.75 132.945 1303.21 Q131.14 1299.65 127.506 1299.65 M127.506 1295.94 Q133.316 1295.94 136.371 1300.55 Q139.45 1305.13 139.45 1313.88 Q139.45 1322.61 136.371 1327.22 Q133.316 1331.8 127.506 1331.8 Q121.696 1331.8 118.617 1327.22 Q115.561 1322.61 115.561 1313.88 Q115.561 1305.13 118.617 1300.55 Q121.696 1295.94 127.506 1295.94 Z" fill="#000000" fill-rule="evenodd" fill-opacity="1" /><path clip-path="url(#clip160)" d="M 0 0 M145.33 1327.19 L152.968 1327.19 L152.968 1300.83 L144.658 1302.49 L144.658 1298.24 L152.922 1296.57 L157.598 1296.57 L157.598 1327.19 L165.237 1327.19 L165.237 1331.13 L145.33 1331.13 L145.33 1327.19 Z" fill="#000000" fill-rule="evenodd" fill-opacity="1" /><path clip-path="url(#clip160)" d="M 0 0 M89.3114 1086 Q85.7003 1086 83.8716 1089.56 Q82.0661 1093.11 82.0661 1100.24 Q82.0661 1107.34 83.8716 1110.91 Q85.7003 1114.45 89.3114 1114.45 Q92.9457 1114.45 94.7512 1110.91 Q96.5799 1107.34 96.5799 1100.24 Q96.5799 1093.11 94.7512 1089.56 Q92.9457 1086 89.3114 1086 M89.3114 1082.3 Q95.1216 1082.3 98.1771 1086.9 Q101.256 1091.49 101.256 1100.24 Q101.256 1108.96 98.1771 1113.57 Q95.1216 1118.15 89.3114 1118.15 Q83.5013 1118.15 80.4226 1113.57 Q77.367 1108.96 77.367 1100.24 Q77.367 1091.49 80.4226 1086.9 Q83.5013 1082.3 89.3114 1082.3 Z" fill="#000000" fill-rule="evenodd" fill-opacity="1" /><path clip-path="url(#clip160)" d="M 0 0 M106.325 1111.6 L111.209 1111.6 L111.209 1117.48 L106.325 1117.48 L106.325 1111.6 Z" fill="#000000" fill-rule="evenodd" fill-opacity="1" /><path clip-path="url(#clip160)" d="M 0 0 M126.279 1086 Q122.668 1086 120.839 1089.56 Q119.033 1093.11 119.033 1100.24 Q119.033 1107.34 120.839 1110.91 Q122.668 1114.45 126.279 1114.45 Q129.913 1114.45 131.719 1110.91 Q133.547 1107.34 133.547 1100.24 Q133.547 1093.11 131.719 1089.56 Q129.913 1086 126.279 1086 M126.279 1082.3 Q132.089 1082.3 135.145 1086.9 Q138.223 1091.49 138.223 1100.24 Q138.223 1108.96 135.145 1113.57 Q132.089 1118.15 126.279 1118.15 Q120.469 1118.15 117.39 1113.57 Q114.334 1108.96 114.334 1100.24 Q114.334 1091.49 117.39 1086.9 Q120.469 1082.3 126.279 1082.3 Z" fill="#000000" fill-rule="evenodd" fill-opacity="1" /><path clip-path="url(#clip160)" d="M 0 0 M153.293 1086 Q149.681 1086 147.853 1089.56 Q146.047 1093.11 146.047 1100.24 Q146.047 1107.34 147.853 1110.91 Q149.681 1114.45 153.293 1114.45 Q156.927 1114.45 158.732 1110.91 Q160.561 1107.34 160.561 1100.24 Q160.561 1093.11 158.732 1089.56 Q156.927 1086 153.293 1086 M153.293 1082.3 Q159.103 1082.3 162.158 1086.9 Q165.237 1091.49 165.237 1100.24 Q165.237 1108.96 162.158 1113.57 Q159.103 1118.15 153.293 1118.15 Q147.482 1118.15 144.404 1113.57 Q141.348 1108.96 141.348 1100.24 Q141.348 1091.49 144.404 1086.9 Q147.482 1082.3 153.293 1082.3 Z" fill="#000000" fill-rule="evenodd" fill-opacity="1" /><path clip-path="url(#clip160)" d="M 0 0 M90.5383 872.352 Q86.9272 872.352 85.0985 875.916 Q83.2929 879.458 83.2929 886.588 Q83.2929 893.694 85.0985 897.259 Q86.9272 900.801 90.5383 900.801 Q94.1725 900.801 95.9781 897.259 Q97.8068 893.694 97.8068 886.588 Q97.8068 879.458 95.9781 875.916 Q94.1725 872.352 90.5383 872.352 M90.5383 868.648 Q96.3484 868.648 99.404 873.254 Q102.483 877.838 102.483 886.588 Q102.483 895.314 99.404 899.921 Q96.3484 904.504 90.5383 904.504 Q84.7281 904.504 81.6494 899.921 Q78.5939 895.314 78.5939 886.588 Q78.5939 877.838 81.6494 873.254 Q84.7281 868.648 90.5383 868.648 Z" fill="#000000" fill-rule="evenodd" fill-opacity="1" /><path clip-path="url(#clip160)" d="M 0 0 M107.552 897.953 L112.436 897.953 L112.436 903.833 L107.552 903.833 L107.552 897.953 Z" fill="#000000" fill-rule="evenodd" fill-opacity="1" /><path clip-path="url(#clip160)" d="M 0 0 M127.506 872.352 Q123.895 872.352 122.066 875.916 Q120.26 879.458 120.26 886.588 Q120.26 893.694 122.066 897.259 Q123.895 900.801 127.506 900.801 Q131.14 900.801 132.945 897.259 Q134.774 893.694 134.774 886.588 Q134.774 879.458 132.945 875.916 Q131.14 872.352 127.506 872.352 M127.506 868.648 Q133.316 868.648 136.371 873.254 Q139.45 877.838 139.45 886.588 Q139.45 895.314 136.371 899.921 Q133.316 904.504 127.506 904.504 Q121.696 904.504 118.617 899.921 Q115.561 895.314 115.561 886.588 Q115.561 877.838 118.617 873.254 Q121.696 868.648 127.506 868.648 Z" fill="#000000" fill-rule="evenodd" fill-opacity="1" /><path clip-path="url(#clip160)" d="M 0 0 M145.33 899.898 L152.968 899.898 L152.968 873.532 L144.658 875.199 L144.658 870.94 L152.922 869.273 L157.598 869.273 L157.598 899.898 L165.237 899.898 L165.237 903.833 L145.33 903.833 L145.33 899.898 Z" fill="#000000" fill-rule="evenodd" fill-opacity="1" /><path clip-path="url(#clip160)" d="M 0 0 M90.9086 658.704 Q87.2976 658.704 85.4689 662.268 Q83.6633 665.81 83.6633 672.94 Q83.6633 680.046 85.4689 683.611 Q87.2976 687.153 90.9086 687.153 Q94.5429 687.153 96.3484 683.611 Q98.1771 680.046 98.1771 672.94 Q98.1771 665.81 96.3484 662.268 Q94.5429 658.704 90.9086 658.704 M90.9086 655 Q96.7188 655 99.7743 659.606 Q102.853 664.19 102.853 672.94 Q102.853 681.667 99.7743 686.273 Q96.7188 690.856 90.9086 690.856 Q85.0985 690.856 82.0198 686.273 Q78.9643 681.667 78.9643 672.94 Q78.9643 664.19 82.0198 659.606 Q85.0985 655 90.9086 655 Z" fill="#000000" fill-rule="evenodd" fill-opacity="1" /><path clip-path="url(#clip160)" d="M 0 0 M107.922 684.305 L112.807 684.305 L112.807 690.185 L107.922 690.185 L107.922 684.305 Z" fill="#000000" fill-rule="evenodd" fill-opacity="1" /><path clip-path="url(#clip160)" d="M 0 0 M127.876 658.704 Q124.265 658.704 122.436 662.268 Q120.631 665.81 120.631 672.94 Q120.631 680.046 122.436 683.611 Q124.265 687.153 127.876 687.153 Q131.51 687.153 133.316 683.611 Q135.145 680.046 135.145 672.94 Q135.145 665.81 133.316 662.268 Q131.51 658.704 127.876 658.704 M127.876 655 Q133.686 655 136.742 659.606 Q139.82 664.19 139.82 672.94 Q139.82 681.667 136.742 686.273 Q133.686 690.856 127.876 690.856 Q122.066 690.856 118.987 686.273 Q115.932 681.667 115.932 672.94 Q115.932 664.19 118.987 659.606 Q122.066 655 127.876 655 Z" fill="#000000" fill-rule="evenodd" fill-opacity="1" /><path clip-path="url(#clip160)" d="M 0 0 M148.918 686.25 L165.237 686.25 L165.237 690.185 L143.293 690.185 L143.293 686.25 Q145.955 683.495 150.538 678.866 Q155.144 674.213 156.325 672.87 Q158.57 670.347 159.45 668.611 Q160.353 666.852 160.353 665.162 Q160.353 662.407 158.408 660.671 Q156.487 658.935 153.385 658.935 Q151.186 658.935 148.732 659.699 Q146.302 660.463 143.524 662.014 L143.524 657.292 Q146.348 656.157 148.802 655.579 Q151.256 655 153.293 655 Q158.663 655 161.857 657.685 Q165.052 660.37 165.052 664.861 Q165.052 666.991 164.242 668.912 Q163.455 670.81 161.348 673.403 Q160.769 674.074 157.668 677.292 Q154.566 680.486 148.918 686.25 Z" fill="#000000" fill-rule="evenodd" fill-opacity="1" /><path clip-path="url(#clip160)" d="M 0 0 M89.9596 445.056 Q86.3485 445.056 84.5198 448.621 Q82.7142 452.162 82.7142 459.292 Q82.7142 466.398 84.5198 469.963 Q86.3485 473.505 89.9596 473.505 Q93.5938 473.505 95.3994 469.963 Q97.2281 466.398 97.2281 459.292 Q97.2281 452.162 95.3994 448.621 Q93.5938 445.056 89.9596 445.056 M89.9596 441.352 Q95.7697 441.352 98.8253 445.958 Q101.904 450.542 101.904 459.292 Q101.904 468.019 98.8253 472.625 Q95.7697 477.208 89.9596 477.208 Q84.1494 477.208 81.0707 472.625 Q78.0152 468.019 78.0152 459.292 Q78.0152 450.542 81.0707 445.958 Q84.1494 441.352 89.9596 441.352 Z" fill="#000000" fill-rule="evenodd" fill-opacity="1" /><path clip-path="url(#clip160)" d="M 0 0 M106.973 470.657 L111.858 470.657 L111.858 476.537 L106.973 476.537 L106.973 470.657 Z" fill="#000000" fill-rule="evenodd" fill-opacity="1" /><path clip-path="url(#clip160)" d="M 0 0 M126.927 445.056 Q123.316 445.056 121.487 448.621 Q119.682 452.162 119.682 459.292 Q119.682 466.398 121.487 469.963 Q123.316 473.505 126.927 473.505 Q130.561 473.505 132.367 469.963 Q134.195 466.398 134.195 459.292 Q134.195 452.162 132.367 448.621 Q130.561 445.056 126.927 445.056 M126.927 441.352 Q132.737 441.352 135.793 445.958 Q138.871 450.542 138.871 459.292 Q138.871 468.019 135.793 472.625 Q132.737 477.208 126.927 477.208 Q121.117 477.208 118.038 472.625 Q114.983 468.019 114.983 459.292 Q114.983 450.542 118.038 445.958 Q121.117 441.352 126.927 441.352 Z" fill="#000000" fill-rule="evenodd" fill-opacity="1" /><path clip-path="url(#clip160)" d="M 0 0 M158.107 457.903 Q161.464 458.62 163.339 460.889 Q165.237 463.157 165.237 466.491 Q165.237 471.607 161.718 474.407 Q158.2 477.208 151.719 477.208 Q149.543 477.208 147.228 476.769 Q144.936 476.352 142.482 475.495 L142.482 470.982 Q144.427 472.116 146.742 472.694 Q149.056 473.273 151.58 473.273 Q155.978 473.273 158.269 471.537 Q160.584 469.801 160.584 466.491 Q160.584 463.435 158.431 461.722 Q156.302 459.986 152.482 459.986 L148.455 459.986 L148.455 456.144 L152.668 456.144 Q156.117 456.144 157.945 454.778 Q159.774 453.389 159.774 450.796 Q159.774 448.134 157.876 446.722 Q156.001 445.287 152.482 445.287 Q150.561 445.287 148.362 445.704 Q146.163 446.121 143.524 447 L143.524 442.834 Q146.186 442.093 148.501 441.722 Q150.839 441.352 152.899 441.352 Q158.223 441.352 161.325 443.783 Q164.427 446.19 164.427 450.31 Q164.427 453.181 162.783 455.171 Q161.14 457.139 158.107 457.903 Z" fill="#000000" fill-rule="evenodd" fill-opacity="1" /><path clip-path="url(#clip160)" d="M 0 0 M88.8253 231.408 Q85.2142 231.408 83.3855 234.973 Q81.58 238.514 81.58 245.644 Q81.58 252.75 83.3855 256.315 Q85.2142 259.857 88.8253 259.857 Q92.4596 259.857 94.2651 256.315 Q96.0938 252.75 96.0938 245.644 Q96.0938 238.514 94.2651 234.973 Q92.4596 231.408 88.8253 231.408 M88.8253 227.704 Q94.6355 227.704 97.691 232.311 Q100.77 236.894 100.77 245.644 Q100.77 254.371 97.691 258.977 Q94.6355 263.56 88.8253 263.56 Q83.0152 263.56 79.9365 258.977 Q76.8809 254.371 76.8809 245.644 Q76.8809 236.894 79.9365 232.311 Q83.0152 227.704 88.8253 227.704 Z" fill="#000000" fill-rule="evenodd" fill-opacity="1" /><path clip-path="url(#clip160)" d="M 0 0 M105.839 257.009 L110.723 257.009 L110.723 262.889 L105.839 262.889 L105.839 257.009 Z" fill="#000000" fill-rule="evenodd" fill-opacity="1" /><path clip-path="url(#clip160)" d="M 0 0 M125.793 231.408 Q122.182 231.408 120.353 234.973 Q118.547 238.514 118.547 245.644 Q118.547 252.75 120.353 256.315 Q122.182 259.857 125.793 259.857 Q129.427 259.857 131.233 256.315 Q133.061 252.75 133.061 245.644 Q133.061 238.514 131.233 234.973 Q129.427 231.408 125.793 231.408 M125.793 227.704 Q131.603 227.704 134.658 232.311 Q137.737 236.894 137.737 245.644 Q137.737 254.371 134.658 258.977 Q131.603 263.56 125.793 263.56 Q119.983 263.56 116.904 258.977 Q113.848 254.371 113.848 245.644 Q113.848 236.894 116.904 232.311 Q119.983 227.704 125.793 227.704 Z" fill="#000000" fill-rule="evenodd" fill-opacity="1" /><path clip-path="url(#clip160)" d="M 0 0 M155.654 232.403 L143.848 250.852 L155.654 250.852 L155.654 232.403 M154.427 228.329 L160.306 228.329 L160.306 250.852 L165.237 250.852 L165.237 254.741 L160.306 254.741 L160.306 262.889 L155.654 262.889 L155.654 254.741 L140.052 254.741 L140.052 250.227 L154.427 228.329 Z" fill="#000000" fill-rule="evenodd" fill-opacity="1" /><circle clip-path="url(#clip162)" cx="1964.82" cy="686.203" r="14" fill="#009af9" fill-rule="evenodd" fill-opacity="1" stroke="#000000" stroke-opacity="1" stroke-width="3.2"/>
<circle clip-path="url(#clip162)" cx="501.042" cy="870.334" r="14" fill="#009af9" fill-rule="evenodd" fill-opacity="1" stroke="#000000" stroke-opacity="1" stroke-width="3.2"/>
<circle clip-path="url(#clip162)" cx="1044.41" cy="814.297" r="14" fill="#009af9" fill-rule="evenodd" fill-opacity="1" stroke="#000000" stroke-opacity="1" stroke-width="3.2"/>
<circle clip-path="url(#clip162)" cx="1117.07" cy="785.709" r="14" fill="#009af9" fill-rule="evenodd" fill-opacity="1" stroke="#000000" stroke-opacity="1" stroke-width="3.2"/>
<circle clip-path="url(#clip162)" cx="2018.94" cy="381.696" r="14" fill="#009af9" fill-rule="evenodd" fill-opacity="1" stroke="#000000" stroke-opacity="1" stroke-width="3.2"/>
<circle clip-path="url(#clip162)" cx="1870.25" cy="758.853" r="14" fill="#009af9" fill-rule="evenodd" fill-opacity="1" stroke="#000000" stroke-opacity="1" stroke-width="3.2"/>
<circle clip-path="url(#clip162)" cx="281.964" cy="1445.72" r="14" fill="#009af9" fill-rule="evenodd" fill-opacity="1" stroke="#000000" stroke-opacity="1" stroke-width="3.2"/>
<circle clip-path="url(#clip162)" cx="1946.05" cy="836.51" r="14" fill="#009af9" fill-rule="evenodd" fill-opacity="1" stroke="#000000" stroke-opacity="1" stroke-width="3.2"/>
<circle clip-path="url(#clip162)" cx="2151.78" cy="612.931" r="14" fill="#009af9" fill-rule="evenodd" fill-opacity="1" stroke="#000000" stroke-opacity="1" stroke-width="3.2"/>
<circle clip-path="url(#clip162)" cx="250.469" cy="1411.39" r="14" fill="#009af9" fill-rule="evenodd" fill-opacity="1" stroke="#000000" stroke-opacity="1" stroke-width="3.2"/>
<circle clip-path="url(#clip162)" cx="2269.31" cy="413.653" r="14" fill="#009af9" fill-rule="evenodd" fill-opacity="1" stroke="#000000" stroke-opacity="1" stroke-width="3.2"/>
<circle clip-path="url(#clip162)" cx="1643.06" cy="667.975" r="14" fill="#009af9" fill-rule="evenodd" fill-opacity="1" stroke="#000000" stroke-opacity="1" stroke-width="3.2"/>
<circle clip-path="url(#clip162)" cx="2225.85" cy="674.796" r="14" fill="#009af9" fill-rule="evenodd" fill-opacity="1" stroke="#000000" stroke-opacity="1" stroke-width="3.2"/>
<circle clip-path="url(#clip162)" cx="588.55" cy="1079.16" r="14" fill="#009af9" fill-rule="evenodd" fill-opacity="1" stroke="#000000" stroke-opacity="1" stroke-width="3.2"/>
<circle clip-path="url(#clip162)" cx="2291.52" cy="87.9763" r="14" fill="#009af9" fill-rule="evenodd" fill-opacity="1" stroke="#000000" stroke-opacity="1" stroke-width="3.2"/>
<circle clip-path="url(#clip162)" cx="1154.47" cy="792.968" r="14" fill="#009af9" fill-rule="evenodd" fill-opacity="1" stroke="#000000" stroke-opacity="1" stroke-width="3.2"/>
<circle clip-path="url(#clip162)" cx="373.711" cy="1038.89" r="14" fill="#009af9" fill-rule="evenodd" fill-opacity="1" stroke="#000000" stroke-opacity="1" stroke-width="3.2"/>
<circle clip-path="url(#clip162)" cx="756.341" cy="1194.6" r="14" fill="#009af9" fill-rule="evenodd" fill-opacity="1" stroke="#000000" stroke-opacity="1" stroke-width="3.2"/>
<circle clip-path="url(#clip162)" cx="497.063" cy="721.076" r="14" fill="#009af9" fill-rule="evenodd" fill-opacity="1" stroke="#000000" stroke-opacity="1" stroke-width="3.2"/>
<circle clip-path="url(#clip162)" cx="2016.7" cy="232.824" r="14" fill="#009af9" fill-rule="evenodd" fill-opacity="1" stroke="#000000" stroke-opacity="1" stroke-width="3.2"/>
<path clip-path="url(#clip160)" d="
M1989.23 216.178 L2280.64 216.178 L2280.64 95.2176 L1989.23 95.2176  Z
  " fill="#ffffff" fill-rule="evenodd" fill-opacity="1"/>
<polyline clip-path="url(#clip160)" style="stroke:#000000; stroke-width:4; stroke-opacity:1; fill:none" points="
  1989.23,216.178 2280.64,216.178 2280.64,95.2176 1989.23,95.2176 1989.23,216.178 
  "/>
<circle clip-path="url(#clip160)" cx="2085.39" cy="155.698" r="23" fill="#009af9" fill-rule="evenodd" fill-opacity="1" stroke="#000000" stroke-opacity="1" stroke-width="5.12"/>
<circle clip-path="url(#clip160)" cx="2085.39" cy="155.698" r="23" fill="#009af9" fill-rule="evenodd" fill-opacity="1" stroke="#000000" stroke-opacity="1" stroke-width="5.12"/>
<circle clip-path="url(#clip160)" cx="2085.39" cy="155.698" r="23" fill="#009af9" fill-rule="evenodd" fill-opacity="1" stroke="#000000" stroke-opacity="1" stroke-width="5.12"/>
<circle clip-path="url(#clip160)" cx="2085.39" cy="155.698" r="23" fill="#009af9" fill-rule="evenodd" fill-opacity="1" stroke="#000000" stroke-opacity="1" stroke-width="5.12"/>
<circle clip-path="url(#clip160)" cx="2085.39" cy="155.698" r="23" fill="#009af9" fill-rule="evenodd" fill-opacity="1" stroke="#000000" stroke-opacity="1" stroke-width="5.12"/>
<circle clip-path="url(#clip160)" cx="2085.39" cy="155.698" r="23" fill="#009af9" fill-rule="evenodd" fill-opacity="1" stroke="#000000" stroke-opacity="1" stroke-width="5.12"/>
<circle clip-path="url(#clip160)" cx="2085.39" cy="155.698" r="23" fill="#009af9" fill-rule="evenodd" fill-opacity="1" stroke="#000000" stroke-opacity="1" stroke-width="5.12"/>
<circle clip-path="url(#clip160)" cx="2085.39" cy="155.698" r="23" fill="#009af9" fill-rule="evenodd" fill-opacity="1" stroke="#000000" stroke-opacity="1" stroke-width="5.12"/>
<circle clip-path="url(#clip160)" cx="2085.39" cy="155.698" r="23" fill="#009af9" fill-rule="evenodd" fill-opacity="1" stroke="#000000" stroke-opacity="1" stroke-width="5.12"/>
<circle clip-path="url(#clip160)" cx="2085.39" cy="155.698" r="23" fill="#009af9" fill-rule="evenodd" fill-opacity="1" stroke="#000000" stroke-opacity="1" stroke-width="5.12"/>
<circle clip-path="url(#clip160)" cx="2085.39" cy="155.698" r="23" fill="#009af9" fill-rule="evenodd" fill-opacity="1" stroke="#000000" stroke-opacity="1" stroke-width="5.12"/>
<circle clip-path="url(#clip160)" cx="2085.39" cy="155.698" r="23" fill="#009af9" fill-rule="evenodd" fill-opacity="1" stroke="#000000" stroke-opacity="1" stroke-width="5.12"/>
<circle clip-path="url(#clip160)" cx="2085.39" cy="155.698" r="23" fill="#009af9" fill-rule="evenodd" fill-opacity="1" stroke="#000000" stroke-opacity="1" stroke-width="5.12"/>
<circle clip-path="url(#clip160)" cx="2085.39" cy="155.698" r="23" fill="#009af9" fill-rule="evenodd" fill-opacity="1" stroke="#000000" stroke-opacity="1" stroke-width="5.12"/>
<circle clip-path="url(#clip160)" cx="2085.39" cy="155.698" r="23" fill="#009af9" fill-rule="evenodd" fill-opacity="1" stroke="#000000" stroke-opacity="1" stroke-width="5.12"/>
<circle clip-path="url(#clip160)" cx="2085.39" cy="155.698" r="23" fill="#009af9" fill-rule="evenodd" fill-opacity="1" stroke="#000000" stroke-opacity="1" stroke-width="5.12"/>
<circle clip-path="url(#clip160)" cx="2085.39" cy="155.698" r="23" fill="#009af9" fill-rule="evenodd" fill-opacity="1" stroke="#000000" stroke-opacity="1" stroke-width="5.12"/>
<circle clip-path="url(#clip160)" cx="2085.39" cy="155.698" r="23" fill="#009af9" fill-rule="evenodd" fill-opacity="1" stroke="#000000" stroke-opacity="1" stroke-width="5.12"/>
<circle clip-path="url(#clip160)" cx="2085.39" cy="155.698" r="23" fill="#009af9" fill-rule="evenodd" fill-opacity="1" stroke="#000000" stroke-opacity="1" stroke-width="5.12"/>
<circle clip-path="url(#clip160)" cx="2085.39" cy="155.698" r="23" fill="#009af9" fill-rule="evenodd" fill-opacity="1" stroke="#000000" stroke-opacity="1" stroke-width="5.12"/>
<path clip-path="url(#clip160)" d="M 0 0 M2195.38 175.385 Q2193.58 180.015 2191.87 181.427 Q2190.15 182.839 2187.28 182.839 L2183.88 182.839 L2183.88 179.274 L2186.38 179.274 Q2188.14 179.274 2189.11 178.44 Q2190.08 177.607 2191.26 174.505 L2192.03 172.561 L2181.54 147.052 L2186.06 147.052 L2194.16 167.329 L2202.26 147.052 L2206.77 147.052 L2195.38 175.385 Z" fill="#000000" fill-rule="evenodd" fill-opacity="1" /><path clip-path="url(#clip160)" d="M 0 0 M2212.65 169.042 L2220.29 169.042 L2220.29 142.677 L2211.98 144.343 L2211.98 140.084 L2220.25 138.418 L2224.92 138.418 L2224.92 169.042 L2232.56 169.042 L2232.56 172.978 L2212.65 172.978 L2212.65 169.042 Z" fill="#000000" fill-rule="evenodd" fill-opacity="1" /></svg>
