<?xml version="1.0" encoding="utf-8"?>
<svg xmlns="http://www.w3.org/2000/svg" xmlns:xlink="http://www.w3.org/1999/xlink" width="600" height="400" viewBox="0 0 2400 1600">
<defs>
  <clipPath id="clip580">
    <rect x="0" y="0" width="2400" height="1600"/>
  </clipPath>
</defs>
<path clip-path="url(#clip580)" d="
M0 1600 L2400 1600 L2400 0 L0 0  Z
  " fill="#ffffff" fill-rule="evenodd" fill-opacity="1"/>
<defs>
  <clipPath id="clip581">
    <rect x="480" y="0" width="1681" height="1600"/>
  </clipPath>
</defs>
<path clip-path="url(#clip580)" d="
M86.9921 1521.01 L2352.76 1521.01 L2352.76 47.2441 L86.9921 47.2441  Z
  " fill="#ffffff" fill-rule="evenodd" fill-opacity="1"/>
<defs>
  <clipPath id="clip582">
    <rect x="86" y="47" width="2267" height="1475"/>
  </clipPath>
</defs>
<polyline clip-path="url(#clip582)" style="stroke:#000000; stroke-width:2; stroke-opacity:0.1; fill:none" points="
  368.372,1521.01 368.372,47.2441 
  "/>
<polyline clip-path="url(#clip582)" style="stroke:#000000; stroke-width:2; stroke-opacity:0.1; fill:none" points="
  657.444,1521.01 657.444,47.2441 
  "/>
<polyline clip-path="url(#clip582)" style="stroke:#000000; stroke-width:2; stroke-opacity:0.1; fill:none" points="
  946.516,1521.01 946.516,47.2441 
  "/>
<polyline clip-path="url(#clip582)" style="stroke:#000000; stroke-width:2; stroke-opacity:0.1; fill:none" points="
  1235.59,1521.01 1235.59,47.2441 
  "/>
<polyline clip-path="url(#clip582)" style="stroke:#000000; stroke-width:2; stroke-opacity:0.1; fill:none" points="
  1524.66,1521.01 1524.66,47.2441 
  "/>
<polyline clip-path="url(#clip582)" style="stroke:#000000; stroke-width:2; stroke-opacity:0.1; fill:none" points="
  1813.73,1521.01 1813.73,47.2441 
  "/>
<polyline clip-path="url(#clip582)" style="stroke:#000000; stroke-width:2; stroke-opacity:0.1; fill:none" points="
  2102.81,1521.01 2102.81,47.2441 
  "/>
<polyline clip-path="url(#clip582)" style="stroke:#000000; stroke-width:2; stroke-opacity:0.1; fill:none" points="
  86.9921,1479.3 2352.76,1479.3 
  "/>
<polyline clip-path="url(#clip582)" style="stroke:#000000; stroke-width:2; stroke-opacity:0.1; fill:none" points="
  86.9921,1131.06 2352.76,1131.06 
  "/>
<polyline clip-path="url(#clip582)" style="stroke:#000000; stroke-width:2; stroke-opacity:0.1; fill:none" points="
  86.9921,782.824 2352.76,782.824 
  "/>
<polyline clip-path="url(#clip582)" style="stroke:#000000; stroke-width:2; stroke-opacity:0.1; fill:none" points="
  86.9921,434.588 2352.76,434.588 
  "/>
<polyline clip-path="url(#clip582)" style="stroke:#000000; stroke-width:2; stroke-opacity:0.1; fill:none" points="
  86.9921,86.3512 2352.76,86.3512 
  "/>
<polyline clip-path="url(#clip580)" style="stroke:#000000; stroke-width:4; stroke-opacity:1; fill:none" points="
  86.9921,1521.01 2352.76,1521.01 
  "/>
<polyline clip-path="url(#clip580)" style="stroke:#000000; stroke-width:4; stroke-opacity:1; fill:none" points="
  86.9921,1521.01 86.9921,47.2441 
  "/>
<polyline clip-path="url(#clip580)" style="stroke:#000000; stroke-width:4; stroke-opacity:1; fill:none" points="
  368.372,1521.01 368.372,1503.32 
  "/>
<polyline clip-path="url(#clip580)" style="stroke:#000000; stroke-width:4; stroke-opacity:1; fill:none" points="
  657.444,1521.01 657.444,1503.32 
  "/>
<polyline clip-path="url(#clip580)" style="stroke:#000000; stroke-width:4; stroke-opacity:1; fill:none" points="
  946.516,1521.01 946.516,1503.32 
  "/>
<polyline clip-path="url(#clip580)" style="stroke:#000000; stroke-width:4; stroke-opacity:1; fill:none" points="
  1235.59,1521.01 1235.59,1503.32 
  "/>
<polyline clip-path="url(#clip580)" style="stroke:#000000; stroke-width:4; stroke-opacity:1; fill:none" points="
  1524.66,1521.01 1524.66,1503.32 
  "/>
<polyline clip-path="url(#clip580)" style="stroke:#000000; stroke-width:4; stroke-opacity:1; fill:none" points="
  1813.73,1521.01 1813.73,1503.32 
  "/>
<polyline clip-path="url(#clip580)" style="stroke:#000000; stroke-width:4; stroke-opacity:1; fill:none" points="
  2102.81,1521.01 2102.81,1503.32 
  "/>
<polyline clip-path="url(#clip580)" style="stroke:#000000; stroke-width:4; stroke-opacity:1; fill:none" points="
  86.9921,1479.3 114.181,1479.3 
  "/>
<polyline clip-path="url(#clip580)" style="stroke:#000000; stroke-width:4; stroke-opacity:1; fill:none" points="
  86.9921,1131.06 114.181,1131.06 
  "/>
<polyline clip-path="url(#clip580)" style="stroke:#000000; stroke-width:4; stroke-opacity:1; fill:none" points="
  86.9921,782.824 114.181,782.824 
  "/>
<polyline clip-path="url(#clip580)" style="stroke:#000000; stroke-width:4; stroke-opacity:1; fill:none" points="
  86.9921,434.588 114.181,434.588 
  "/>
<polyline clip-path="url(#clip580)" style="stroke:#000000; stroke-width:4; stroke-opacity:1; fill:none" points="
  86.9921,86.3512 114.181,86.3512 
  "/>
<path clip-path="url(#clip580)" d="M 0 0 M349.888 1543 Q346.277 1543 344.448 1546.56 Q342.643 1550.11 342.643 1557.23 Q342.643 1564.34 344.448 1567.91 Q346.277 1571.45 349.888 1571.45 Q353.522 1571.45 355.328 1567.91 Q357.156 1564.34 357.156 1557.23 Q357.156 1550.11 355.328 1546.56 Q353.522 1543 349.888 1543 M349.888 1539.29 Q355.698 1539.29 358.754 1543.9 Q361.832 1548.48 361.832 1557.23 Q361.832 1565.96 358.754 1570.57 Q355.698 1575.15 349.888 1575.15 Q344.078 1575.15 340.999 1570.57 Q337.943 1565.96 337.943 1557.23 Q337.943 1548.48 340.999 1543.9 Q344.078 1539.29 349.888 1539.29 Z" fill="#000000" fill-rule="evenodd" fill-opacity="1" /><path clip-path="url(#clip580)" d="M 0 0 M366.902 1568.6 L371.786 1568.6 L371.786 1574.48 L366.902 1574.48 L366.902 1568.6 Z" fill="#000000" fill-rule="evenodd" fill-opacity="1" /><path clip-path="url(#clip580)" d="M 0 0 M386.855 1543 Q383.244 1543 381.415 1546.56 Q379.61 1550.11 379.61 1557.23 Q379.61 1564.34 381.415 1567.91 Q383.244 1571.45 386.855 1571.45 Q390.49 1571.45 392.295 1567.91 Q394.124 1564.34 394.124 1557.23 Q394.124 1550.11 392.295 1546.56 Q390.49 1543 386.855 1543 M386.855 1539.29 Q392.665 1539.29 395.721 1543.9 Q398.8 1548.48 398.8 1557.23 Q398.8 1565.96 395.721 1570.57 Q392.665 1575.15 386.855 1575.15 Q381.045 1575.15 377.966 1570.57 Q374.911 1565.96 374.911 1557.23 Q374.911 1548.48 377.966 1543.9 Q381.045 1539.29 386.855 1539.29 Z" fill="#000000" fill-rule="evenodd" fill-opacity="1" /><path clip-path="url(#clip580)" d="M 0 0 M639.574 1543 Q635.963 1543 634.134 1546.56 Q632.328 1550.11 632.328 1557.23 Q632.328 1564.34 634.134 1567.91 Q635.963 1571.45 639.574 1571.45 Q643.208 1571.45 645.013 1567.91 Q646.842 1564.34 646.842 1557.23 Q646.842 1550.11 645.013 1546.56 Q643.208 1543 639.574 1543 M639.574 1539.29 Q645.384 1539.29 648.439 1543.9 Q651.518 1548.48 651.518 1557.23 Q651.518 1565.96 648.439 1570.57 Q645.384 1575.15 639.574 1575.15 Q633.764 1575.15 630.685 1570.57 Q627.629 1565.96 627.629 1557.23 Q627.629 1548.48 630.685 1543.9 Q633.764 1539.29 639.574 1539.29 Z" fill="#000000" fill-rule="evenodd" fill-opacity="1" /><path clip-path="url(#clip580)" d="M 0 0 M656.587 1568.6 L661.472 1568.6 L661.472 1574.48 L656.587 1574.48 L656.587 1568.6 Z" fill="#000000" fill-rule="evenodd" fill-opacity="1" /><path clip-path="url(#clip580)" d="M 0 0 M667.351 1570.54 L674.99 1570.54 L674.99 1544.18 L666.68 1545.85 L666.68 1541.59 L674.944 1539.92 L679.62 1539.92 L679.62 1570.54 L687.259 1570.54 L687.259 1574.48 L667.351 1574.48 L667.351 1570.54 Z" fill="#000000" fill-rule="evenodd" fill-opacity="1" /><path clip-path="url(#clip580)" d="M 0 0 M928.831 1543 Q925.22 1543 923.391 1546.56 Q921.586 1550.11 921.586 1557.23 Q921.586 1564.34 923.391 1567.91 Q925.22 1571.45 928.831 1571.45 Q932.465 1571.45 934.271 1567.91 Q936.1 1564.34 936.1 1557.23 Q936.1 1550.11 934.271 1546.56 Q932.465 1543 928.831 1543 M928.831 1539.29 Q934.641 1539.29 937.697 1543.9 Q940.776 1548.48 940.776 1557.23 Q940.776 1565.96 937.697 1570.57 Q934.641 1575.15 928.831 1575.15 Q923.021 1575.15 919.942 1570.57 Q916.887 1565.96 916.887 1557.23 Q916.887 1548.48 919.942 1543.9 Q923.021 1539.29 928.831 1539.29 Z" fill="#000000" fill-rule="evenodd" fill-opacity="1" /><path clip-path="url(#clip580)" d="M 0 0 M945.845 1568.6 L950.729 1568.6 L950.729 1574.48 L945.845 1574.48 L945.845 1568.6 Z" fill="#000000" fill-rule="evenodd" fill-opacity="1" /><path clip-path="url(#clip580)" d="M 0 0 M959.826 1570.54 L976.146 1570.54 L976.146 1574.48 L954.201 1574.48 L954.201 1570.54 Q956.863 1567.79 961.447 1563.16 Q966.053 1558.51 967.234 1557.17 Q969.479 1554.64 970.359 1552.91 Q971.262 1551.15 971.262 1549.46 Q971.262 1546.7 969.317 1544.97 Q967.396 1543.23 964.294 1543.23 Q962.095 1543.23 959.641 1543.99 Q957.211 1544.76 954.433 1546.31 L954.433 1541.59 Q957.257 1540.45 959.711 1539.87 Q962.164 1539.29 964.201 1539.29 Q969.572 1539.29 972.766 1541.98 Q975.961 1544.67 975.961 1549.16 Q975.961 1551.29 975.15 1553.21 Q974.363 1555.1 972.257 1557.7 Q971.678 1558.37 968.576 1561.59 Q965.475 1564.78 959.826 1570.54 Z" fill="#000000" fill-rule="evenodd" fill-opacity="1" /><path clip-path="url(#clip580)" d="M 0 0 M1217.43 1543 Q1213.82 1543 1211.99 1546.56 Q1210.18 1550.11 1210.18 1557.23 Q1210.18 1564.34 1211.99 1567.91 Q1213.82 1571.45 1217.43 1571.45 Q1221.06 1571.45 1222.87 1567.91 Q1224.7 1564.34 1224.7 1557.23 Q1224.7 1550.11 1222.87 1546.56 Q1221.06 1543 1217.43 1543 M1217.43 1539.29 Q1223.24 1539.29 1226.29 1543.9 Q1229.37 1548.48 1229.37 1557.23 Q1229.37 1565.96 1226.29 1570.57 Q1223.24 1575.15 1217.43 1575.15 Q1211.62 1575.15 1208.54 1570.57 Q1205.48 1565.96 1205.48 1557.23 Q1205.48 1548.48 1208.54 1543.9 Q1211.62 1539.29 1217.43 1539.29 Z" fill="#000000" fill-rule="evenodd" fill-opacity="1" /><path clip-path="url(#clip580)" d="M 0 0 M1234.44 1568.6 L1239.33 1568.6 L1239.33 1574.48 L1234.44 1574.48 L1234.44 1568.6 Z" fill="#000000" fill-rule="evenodd" fill-opacity="1" /><path clip-path="url(#clip580)" d="M 0 0 M1258.56 1555.85 Q1261.92 1556.56 1263.79 1558.83 Q1265.69 1561.1 1265.69 1564.43 Q1265.69 1569.55 1262.17 1572.35 Q1258.66 1575.15 1252.17 1575.15 Q1250 1575.15 1247.68 1574.71 Q1245.39 1574.29 1242.94 1573.44 L1242.94 1568.92 Q1244.88 1570.06 1247.2 1570.64 Q1249.51 1571.22 1252.04 1571.22 Q1256.43 1571.22 1258.73 1569.48 Q1261.04 1567.74 1261.04 1564.43 Q1261.04 1561.38 1258.89 1559.67 Q1256.76 1557.93 1252.94 1557.93 L1248.91 1557.93 L1248.91 1554.09 L1253.12 1554.09 Q1256.57 1554.09 1258.4 1552.72 Q1260.23 1551.33 1260.23 1548.74 Q1260.23 1546.08 1258.33 1544.67 Q1256.46 1543.23 1252.94 1543.23 Q1251.02 1543.23 1248.82 1543.65 Q1246.62 1544.06 1243.98 1544.94 L1243.98 1540.78 Q1246.64 1540.04 1248.96 1539.67 Q1251.29 1539.29 1253.35 1539.29 Q1258.68 1539.29 1261.78 1541.73 Q1264.88 1544.13 1264.88 1548.25 Q1264.88 1551.12 1263.24 1553.11 Q1261.6 1555.08 1258.56 1555.85 Z" fill="#000000" fill-rule="evenodd" fill-opacity="1" /><path clip-path="url(#clip580)" d="M 0 0 M1505.93 1543 Q1502.32 1543 1500.49 1546.56 Q1498.69 1550.11 1498.69 1557.23 Q1498.69 1564.34 1500.49 1567.91 Q1502.32 1571.45 1505.93 1571.45 Q1509.57 1571.45 1511.37 1567.91 Q1513.2 1564.34 1513.2 1557.23 Q1513.2 1550.11 1511.37 1546.56 Q1509.57 1543 1505.93 1543 M1505.93 1539.29 Q1511.74 1539.29 1514.8 1543.9 Q1517.88 1548.48 1517.88 1557.23 Q1517.88 1565.96 1514.8 1570.57 Q1511.74 1575.15 1505.93 1575.15 Q1500.12 1575.15 1497.05 1570.57 Q1493.99 1565.96 1493.99 1557.23 Q1493.99 1548.48 1497.05 1543.9 Q1500.12 1539.29 1505.93 1539.29 Z" fill="#000000" fill-rule="evenodd" fill-opacity="1" /><path clip-path="url(#clip580)" d="M 0 0 M1522.95 1568.6 L1527.83 1568.6 L1527.83 1574.48 L1522.95 1574.48 L1522.95 1568.6 Z" fill="#000000" fill-rule="evenodd" fill-opacity="1" /><path clip-path="url(#clip580)" d="M 0 0 M1545.75 1543.99 L1533.94 1562.44 L1545.75 1562.44 L1545.75 1543.99 M1544.52 1539.92 L1550.4 1539.92 L1550.4 1562.44 L1555.33 1562.44 L1555.33 1566.33 L1550.4 1566.33 L1550.4 1574.48 L1545.75 1574.48 L1545.75 1566.33 L1530.15 1566.33 L1530.15 1561.82 L1544.52 1539.92 Z" fill="#000000" fill-rule="evenodd" fill-opacity="1" /><path clip-path="url(#clip580)" d="M 0 0 M1795.75 1543 Q1792.14 1543 1790.31 1546.56 Q1788.5 1550.11 1788.5 1557.23 Q1788.5 1564.34 1790.31 1567.91 Q1792.14 1571.45 1795.75 1571.45 Q1799.38 1571.45 1801.19 1567.91 Q1803.02 1564.34 1803.02 1557.23 Q1803.02 1550.11 1801.19 1546.56 Q1799.38 1543 1795.75 1543 M1795.75 1539.29 Q1801.56 1539.29 1804.61 1543.9 Q1807.69 1548.48 1807.69 1557.23 Q1807.69 1565.96 1804.61 1570.57 Q1801.56 1575.15 1795.75 1575.15 Q1789.94 1575.15 1786.86 1570.57 Q1783.8 1565.96 1783.8 1557.23 Q1783.8 1548.48 1786.86 1543.9 Q1789.94 1539.29 1795.75 1539.29 Z" fill="#000000" fill-rule="evenodd" fill-opacity="1" /><path clip-path="url(#clip580)" d="M 0 0 M1812.76 1568.6 L1817.65 1568.6 L1817.65 1574.48 L1812.76 1574.48 L1812.76 1568.6 Z" fill="#000000" fill-rule="evenodd" fill-opacity="1" /><path clip-path="url(#clip580)" d="M 0 0 M1822.76 1539.92 L1841.12 1539.92 L1841.12 1543.86 L1827.04 1543.86 L1827.04 1552.33 Q1828.06 1551.98 1829.08 1551.82 Q1830.1 1551.63 1831.12 1551.63 Q1836.9 1551.63 1840.28 1554.8 Q1843.66 1557.98 1843.66 1563.39 Q1843.66 1568.97 1840.19 1572.07 Q1836.72 1575.15 1830.4 1575.15 Q1828.22 1575.15 1825.96 1574.78 Q1823.71 1574.41 1821.3 1573.67 L1821.3 1568.97 Q1823.39 1570.1 1825.61 1570.66 Q1827.83 1571.22 1830.31 1571.22 Q1834.31 1571.22 1836.65 1569.11 Q1838.99 1567 1838.99 1563.39 Q1838.99 1559.78 1836.65 1557.67 Q1834.31 1555.57 1830.31 1555.57 Q1828.43 1555.57 1826.56 1555.98 Q1824.71 1556.4 1822.76 1557.28 L1822.76 1539.92 Z" fill="#000000" fill-rule="evenodd" fill-opacity="1" /><path clip-path="url(#clip580)" d="M 0 0 M2084.24 1543 Q2080.63 1543 2078.8 1546.56 Q2077 1550.11 2077 1557.23 Q2077 1564.34 2078.8 1567.91 Q2080.63 1571.45 2084.24 1571.45 Q2087.88 1571.45 2089.68 1567.91 Q2091.51 1564.34 2091.51 1557.23 Q2091.51 1550.11 2089.68 1546.56 Q2087.88 1543 2084.24 1543 M2084.24 1539.29 Q2090.05 1539.29 2093.11 1543.9 Q2096.19 1548.48 2096.19 1557.23 Q2096.19 1565.96 2093.11 1570.57 Q2090.05 1575.15 2084.24 1575.15 Q2078.43 1575.15 2075.35 1570.57 Q2072.3 1565.96 2072.3 1557.23 Q2072.3 1548.48 2075.35 1543.9 Q2078.43 1539.29 2084.24 1539.29 Z" fill="#000000" fill-rule="evenodd" fill-opacity="1" /><path clip-path="url(#clip580)" d="M 0 0 M2101.25 1568.6 L2106.14 1568.6 L2106.14 1574.48 L2101.25 1574.48 L2101.25 1568.6 Z" fill="#000000" fill-rule="evenodd" fill-opacity="1" /><path clip-path="url(#clip580)" d="M 0 0 M2121.79 1555.34 Q2118.64 1555.34 2116.79 1557.49 Q2114.96 1559.64 2114.96 1563.39 Q2114.96 1567.12 2116.79 1569.29 Q2118.64 1571.45 2121.79 1571.45 Q2124.94 1571.45 2126.76 1569.29 Q2128.62 1567.12 2128.62 1563.39 Q2128.62 1559.64 2126.76 1557.49 Q2124.94 1555.34 2121.79 1555.34 M2131.07 1540.68 L2131.07 1544.94 Q2129.31 1544.11 2127.5 1543.67 Q2125.72 1543.23 2123.96 1543.23 Q2119.33 1543.23 2116.88 1546.36 Q2114.45 1549.48 2114.1 1555.8 Q2115.47 1553.79 2117.53 1552.72 Q2119.59 1551.63 2122.06 1551.63 Q2127.27 1551.63 2130.28 1554.8 Q2133.31 1557.95 2133.31 1563.39 Q2133.31 1568.72 2130.17 1571.93 Q2127.02 1575.15 2121.79 1575.15 Q2115.79 1575.15 2112.62 1570.57 Q2109.45 1565.96 2109.45 1557.23 Q2109.45 1549.04 2113.34 1544.18 Q2117.23 1539.29 2123.78 1539.29 Q2125.54 1539.29 2127.32 1539.64 Q2129.13 1539.99 2131.07 1540.68 Z" fill="#000000" fill-rule="evenodd" fill-opacity="1" /><path clip-path="url(#clip580)" d="M 0 0 M51.0477 1465.1 Q47.4367 1465.1 45.608 1468.66 Q43.8024 1472.2 43.8024 1479.33 Q43.8024 1486.44 45.608 1490 Q47.4367 1493.55 51.0477 1493.55 Q54.682 1493.55 56.4875 1490 Q58.3162 1486.44 58.3162 1479.33 Q58.3162 1472.2 56.4875 1468.66 Q54.682 1465.1 51.0477 1465.1 M51.0477 1461.39 Q56.8579 1461.39 59.9134 1466 Q62.9921 1470.58 62.9921 1479.33 Q62.9921 1488.06 59.9134 1492.67 Q56.8579 1497.25 51.0477 1497.25 Q45.2376 1497.25 42.1589 1492.67 Q39.1034 1488.06 39.1034 1479.33 Q39.1034 1470.58 42.1589 1466 Q45.2376 1461.39 51.0477 1461.39 Z" fill="#000000" fill-rule="evenodd" fill-opacity="1" /><path clip-path="url(#clip580)" d="M 0 0 M43.0848 1144.41 L50.7237 1144.41 L50.7237 1118.04 L42.4135 1119.71 L42.4135 1115.45 L50.6774 1113.78 L55.3533 1113.78 L55.3533 1144.41 L62.9921 1144.41 L62.9921 1148.34 L43.0848 1148.34 L43.0848 1144.41 Z" fill="#000000" fill-rule="evenodd" fill-opacity="1" /><path clip-path="url(#clip580)" d="M 0 0 M46.6728 796.169 L62.9921 796.169 L62.9921 800.104 L41.0478 800.104 L41.0478 796.169 Q43.7098 793.415 48.2931 788.785 Q52.8996 784.132 54.0801 782.79 Q56.3255 780.267 57.2051 778.53 Q58.1079 776.771 58.1079 775.081 Q58.1079 772.327 56.1635 770.591 Q54.2422 768.855 51.1403 768.855 Q48.9413 768.855 46.4876 769.618 Q44.057 770.382 41.2793 771.933 L41.2793 767.211 Q44.1033 766.077 46.557 765.498 Q49.0107 764.919 51.0477 764.919 Q56.4181 764.919 59.6125 767.605 Q62.8069 770.29 62.8069 774.78 Q62.8069 776.91 61.9968 778.831 Q61.2097 780.729 59.1033 783.322 Q58.5246 783.993 55.4227 787.211 Q52.3209 790.405 46.6728 796.169 Z" fill="#000000" fill-rule="evenodd" fill-opacity="1" /><path clip-path="url(#clip580)" d="M 0 0 M55.8625 433.234 Q59.219 433.951 61.094 436.22 Q62.9921 438.488 62.9921 441.822 Q62.9921 446.937 59.4736 449.738 Q55.9551 452.539 49.4737 452.539 Q47.2978 452.539 44.983 452.099 Q42.6913 451.683 40.2376 450.826 L40.2376 446.312 Q42.1821 447.447 44.4969 448.025 Q46.8117 448.604 49.3348 448.604 Q53.7329 448.604 56.0246 446.868 Q58.3394 445.132 58.3394 441.822 Q58.3394 438.766 56.1866 437.053 Q54.057 435.317 50.2376 435.317 L46.2098 435.317 L46.2098 431.474 L50.4227 431.474 Q53.8718 431.474 55.7005 430.109 Q57.5292 428.72 57.5292 426.127 Q57.5292 423.465 55.6311 422.053 Q53.7561 420.618 50.2376 420.618 Q48.3163 420.618 46.1172 421.035 Q43.9182 421.451 41.2793 422.331 L41.2793 418.164 Q43.9413 417.424 46.2561 417.053 Q48.5941 416.683 50.6542 416.683 Q55.9783 416.683 59.0801 419.113 Q62.1819 421.521 62.1819 425.641 Q62.1819 428.511 60.5384 430.502 Q58.8949 432.47 55.8625 433.234 Z" fill="#000000" fill-rule="evenodd" fill-opacity="1" /><path clip-path="url(#clip580)" d="M 0 0 M53.4088 73.1453 L41.6034 91.5942 L53.4088 91.5942 L53.4088 73.1453 M52.182 69.0712 L58.0616 69.0712 L58.0616 91.5942 L62.9921 91.5942 L62.9921 95.4831 L58.0616 95.4831 L58.0616 103.631 L53.4088 103.631 L53.4088 95.4831 L37.8071 95.4831 L37.8071 90.9692 L52.182 69.0712 Z" fill="#000000" fill-rule="evenodd" fill-opacity="1" /><path clip-path="url(#clip582)" d="
M151.118 1466.29 L156.408 1464.92 L161.699 1463.51 L166.989 1462.08 L172.28 1460.63 L177.571 1459.17 L182.861 1457.72 L188.152 1456.28 L193.443 1454.85 L198.733 1453.44 
  L204.024 1452.06 L209.315 1450.71 L214.605 1449.39 L219.896 1448.11 L225.187 1446.87 L230.477 1445.68 L235.768 1444.54 L241.059 1443.46 L246.349 1442.45 L251.64 1441.53 
  L256.931 1440.7 L262.221 1439.97 L267.512 1439.34 L272.803 1438.82 L278.093 1438.41 L283.384 1438.1 L288.675 1437.87 L293.965 1437.71 L299.256 1437.6 L304.547 1437.52 
  L309.837 1437.44 L315.128 1437.33 L320.419 1437.17 L325.709 1436.94 L331 1436.62 L336.291 1436.21 L341.581 1435.7 L346.872 1435.1 L352.162 1434.41 L357.453 1433.65 
  L362.744 1432.85 L368.034 1432 L373.325 1431.15 L378.616 1430.29 L383.906 1429.45 L389.197 1428.63 L394.488 1427.84 L399.778 1427.09 L405.069 1426.36 L410.36 1425.66 
  L415.65 1424.99 L420.941 1424.32 L426.232 1423.67 L431.522 1423.01 L436.813 1422.34 L442.104 1421.65 L447.394 1420.94 L452.685 1420.18 L457.976 1419.36 L463.266 1418.47 
  L468.557 1417.47 L473.848 1416.33 L479.138 1415.02 L484.429 1413.47 L489.72 1411.65 L495.01 1409.49 L500.301 1406.92 L505.592 1403.89 L510.882 1400.32 L516.173 1396.14 
  L521.464 1391.31 L526.754 1385.78 L532.045 1379.49 L537.336 1372.44 L542.626 1364.6 L547.917 1355.99 L553.207 1346.64 L558.498 1336.57 L563.789 1325.86 L569.079 1314.56 
  L574.37 1302.76 L579.661 1290.55 L584.951 1278 L590.242 1265.23 L595.533 1252.3 L600.823 1239.29 L606.114 1226.29 L611.405 1213.34 L616.695 1200.5 L621.986 1187.8 
  L627.277 1175.28 L632.567 1162.96 L637.858 1150.84 L643.149 1138.94 L648.439 1127.25 L653.73 1115.78 L659.021 1104.52 L664.311 1093.46 L669.602 1082.58 L674.893 1071.86 
  L674.893 1479.3 L669.602 1479.3 L664.311 1479.3 L659.021 1479.3 L653.73 1479.3 L648.439 1479.3 L643.149 1479.3 L637.858 1479.3 L632.567 1479.3 L627.277 1479.3 
  L621.986 1479.3 L616.695 1479.3 L611.405 1479.3 L606.114 1479.3 L600.823 1479.3 L595.533 1479.3 L590.242 1479.3 L584.951 1479.3 L579.661 1479.3 L574.37 1479.3 
  L569.079 1479.3 L563.789 1479.3 L558.498 1479.3 L553.207 1479.3 L547.917 1479.3 L542.626 1479.3 L537.336 1479.3 L532.045 1479.3 L526.754 1479.3 L521.464 1479.3 
  L516.173 1479.3 L510.882 1479.3 L505.592 1479.3 L500.301 1479.3 L495.01 1479.3 L489.72 1479.3 L484.429 1479.3 L479.138 1479.3 L473.848 1479.3 L468.557 1479.3 
  L463.266 1479.3 L457.976 1479.3 L452.685 1479.3 L447.394 1479.3 L442.104 1479.3 L436.813 1479.3 L431.522 1479.3 L426.232 1479.3 L420.941 1479.3 L415.65 1479.3 
  L410.36 1479.3 L405.069 1479.3 L399.778 1479.3 L394.488 1479.3 L389.197 1479.3 L383.906 1479.3 L378.616 1479.3 L373.325 1479.3 L368.034 1479.3 L362.744 1479.3 
  L357.453 1479.3 L352.162 1479.3 L346.872 1479.3 L341.581 1479.3 L336.291 1479.3 L331 1479.3 L325.709 1479.3 L320.419 1479.3 L315.128 1479.3 L309.837 1479.3 
  L304.547 1479.3 L299.256 1479.3 L293.965 1479.3 L288.675 1479.3 L283.384 1479.3 L278.093 1479.3 L272.803 1479.3 L267.512 1479.3 L262.221 1479.3 L256.931 1479.3 
  L251.64 1479.3 L246.349 1479.3 L241.059 1479.3 L235.768 1479.3 L230.477 1479.3 L225.187 1479.3 L219.896 1479.3 L214.605 1479.3 L209.315 1479.3 L204.024 1479.3 
  L198.733 1479.3 L193.443 1479.3 L188.152 1479.3 L182.861 1479.3 L177.571 1479.3 L172.28 1479.3 L166.989 1479.3 L161.699 1479.3 L156.408 1479.3 L151.118 1479.3 
   Z
  " fill="#ffa500" fill-rule="evenodd" fill-opacity="0.5"/>
<polyline clip-path="url(#clip582)" style="stroke:#ffa500; stroke-width:4; stroke-opacity:1; fill:none" points="
  151.118,1466.29 156.408,1464.92 161.699,1463.51 166.989,1462.08 172.28,1460.63 177.571,1459.17 182.861,1457.72 188.152,1456.28 193.443,1454.85 198.733,1453.44 
  204.024,1452.06 209.315,1450.71 214.605,1449.39 219.896,1448.11 225.187,1446.87 230.477,1445.68 235.768,1444.54 241.059,1443.46 246.349,1442.45 251.64,1441.53 
  256.931,1440.7 262.221,1439.97 267.512,1439.34 272.803,1438.82 278.093,1438.41 283.384,1438.1 288.675,1437.87 293.965,1437.71 299.256,1437.6 304.547,1437.52 
  309.837,1437.44 315.128,1437.33 320.419,1437.17 325.709,1436.94 331,1436.62 336.291,1436.21 341.581,1435.7 346.872,1435.1 352.162,1434.41 357.453,1433.65 
  362.744,1432.85 368.034,1432 373.325,1431.15 378.616,1430.29 383.906,1429.45 389.197,1428.63 394.488,1427.84 399.778,1427.09 405.069,1426.36 410.36,1425.66 
  415.65,1424.99 420.941,1424.32 426.232,1423.67 431.522,1423.01 436.813,1422.34 442.104,1421.65 447.394,1420.94 452.685,1420.18 457.976,1419.36 463.266,1418.47 
  468.557,1417.47 473.848,1416.33 479.138,1415.02 484.429,1413.47 489.72,1411.65 495.01,1409.49 500.301,1406.92 505.592,1403.89 510.882,1400.32 516.173,1396.14 
  521.464,1391.31 526.754,1385.78 532.045,1379.49 537.336,1372.44 542.626,1364.6 547.917,1355.99 553.207,1346.64 558.498,1336.57 563.789,1325.86 569.079,1314.56 
  574.37,1302.76 579.661,1290.55 584.951,1278 590.242,1265.23 595.533,1252.3 600.823,1239.29 606.114,1226.29 611.405,1213.34 616.695,1200.5 621.986,1187.8 
  627.277,1175.28 632.567,1162.96 637.858,1150.84 643.149,1138.94 648.439,1127.25 653.73,1115.78 659.021,1104.52 664.311,1093.46 669.602,1082.58 674.893,1071.86 
  
  "/>
<path clip-path="url(#clip582)" d="
M674.893 1071.86 L685.686 1050.36 L696.479 1029.08 L707.272 1007.56 L718.065 985.25 L728.858 961.616 L739.652 936.188 L750.445 908.615 L761.238 878.646 L772.031 846.073 
  L782.824 810.673 L793.617 772.233 L804.411 730.669 L815.204 686.239 L825.997 639.743 L836.79 592.61 L847.583 546.788 L858.376 504.439 L869.17 467.516 L879.963 437.378 
  L890.756 414.523 L901.549 398.513 L912.342 388.047 L923.135 381.136 L933.929 375.314 L944.722 367.896 L955.515 356.307 L966.308 338.493 L977.101 313.389 L987.894 281.298 
  L998.688 244.041 L1009.48 204.721 L1020.27 167.107 L1031.07 134.796 L1041.86 110.421 L1052.65 95.1996 L1063.45 88.9544 L1074.24 90.559 L1085.03 98.5529 L1095.83 111.638 
  L1106.62 128.853 L1117.41 149.428 L1128.21 172.461 L1139 196.678 L1149.79 220.424 L1160.59 241.949 L1171.38 259.869 L1182.17 273.621 L1192.96 283.717 L1203.76 291.702 
  L1214.55 299.801 L1225.34 310.364 L1236.14 325.277 L1246.93 345.52 L1257.72 371.001 L1268.52 400.702 L1279.31 433.072 L1290.1 466.504 L1300.9 499.741 L1311.69 532.073 
  L1322.48 563.302 L1333.28 593.529 L1344.07 622.895 L1354.86 651.392 L1365.66 678.804 L1376.45 704.808 L1387.24 729.125 L1398.03 751.665 L1408.83 772.561 L1419.62 792.085 
  L1430.41 810.49 L1441.21 827.86 L1452 844.05 L1462.79 858.759 L1473.59 871.682 L1484.38 882.688 L1495.17 891.92 L1505.97 899.789 L1516.76 906.876 L1527.55 913.81 
  L1538.35 921.18 L1549.14 929.509 L1559.93 939.287 L1570.73 950.99 L1581.52 965.061 L1592.31 981.826 L1603.1 1001.37 L1613.9 1023.41 L1624.69 1047.24 L1635.48 1071.78 
  L1646.28 1095.7 L1657.07 1117.64 L1667.86 1136.5 L1678.66 1151.58 L1689.45 1162.8 L1700.24 1170.62 L1711.04 1175.94 L1721.83 1179.94 L1732.62 1183.81 L1743.42 1188.61 
  L1743.42 1479.3 L1732.62 1479.3 L1721.83 1479.3 L1711.04 1479.3 L1700.24 1479.3 L1689.45 1479.3 L1678.66 1479.3 L1667.86 1479.3 L1657.07 1479.3 L1646.28 1479.3 
  L1635.48 1479.3 L1624.69 1479.3 L1613.9 1479.3 L1603.1 1479.3 L1592.31 1479.3 L1581.52 1479.3 L1570.73 1479.3 L1559.93 1479.3 L1549.14 1479.3 L1538.35 1479.3 
  L1527.55 1479.3 L1516.76 1479.3 L1505.97 1479.3 L1495.17 1479.3 L1484.38 1479.3 L1473.59 1479.3 L1462.79 1479.3 L1452 1479.3 L1441.21 1479.3 L1430.41 1479.3 
  L1419.62 1479.3 L1408.83 1479.3 L1398.03 1479.3 L1387.24 1479.3 L1376.45 1479.3 L1365.66 1479.3 L1354.86 1479.3 L1344.07 1479.3 L1333.28 1479.3 L1322.48 1479.3 
  L1311.69 1479.3 L1300.9 1479.3 L1290.1 1479.3 L1279.31 1479.3 L1268.52 1479.3 L1257.72 1479.3 L1246.93 1479.3 L1236.14 1479.3 L1225.34 1479.3 L1214.55 1479.3 
  L1203.76 1479.3 L1192.96 1479.3 L1182.17 1479.3 L1171.38 1479.3 L1160.59 1479.3 L1149.79 1479.3 L1139 1479.3 L1128.21 1479.3 L1117.41 1479.3 L1106.62 1479.3 
  L1095.83 1479.3 L1085.03 1479.3 L1074.24 1479.3 L1063.45 1479.3 L1052.65 1479.3 L1041.86 1479.3 L1031.07 1479.3 L1020.27 1479.3 L1009.48 1479.3 L998.688 1479.3 
  L987.894 1479.3 L977.101 1479.3 L966.308 1479.3 L955.515 1479.3 L944.722 1479.3 L933.929 1479.3 L923.135 1479.3 L912.342 1479.3 L901.549 1479.3 L890.756 1479.3 
  L879.963 1479.3 L869.17 1479.3 L858.376 1479.3 L847.583 1479.3 L836.79 1479.3 L825.997 1479.3 L815.204 1479.3 L804.411 1479.3 L793.617 1479.3 L782.824 1479.3 
  L772.031 1479.3 L761.238 1479.3 L750.445 1479.3 L739.652 1479.3 L728.858 1479.3 L718.065 1479.3 L707.272 1479.3 L696.479 1479.3 L685.686 1479.3 L674.893 1479.3 
   Z
  " fill="#008000" fill-rule="evenodd" fill-opacity="0.5"/>
<polyline clip-path="url(#clip582)" style="stroke:#008000; stroke-width:4; stroke-opacity:1; fill:none" points="
  674.893,1071.86 685.686,1050.36 696.479,1029.08 707.272,1007.56 718.065,985.25 728.858,961.616 739.652,936.188 750.445,908.615 761.238,878.646 772.031,846.073 
  782.824,810.673 793.617,772.233 804.411,730.669 815.204,686.239 825.997,639.743 836.79,592.61 847.583,546.788 858.376,504.439 869.17,467.516 879.963,437.378 
  890.756,414.523 901.549,398.513 912.342,388.047 923.135,381.136 933.929,375.314 944.722,367.896 955.515,356.307 966.308,338.493 977.101,313.389 987.894,281.298 
  998.688,244.041 1009.48,204.721 1020.27,167.107 1031.07,134.796 1041.86,110.421 1052.65,95.1996 1063.45,88.9544 1074.24,90.559 1085.03,98.5529 1095.83,111.638 
  1106.62,128.853 1117.41,149.428 1128.21,172.461 1139,196.678 1149.79,220.424 1160.59,241.949 1171.38,259.869 1182.17,273.621 1192.96,283.717 1203.76,291.702 
  1214.55,299.801 1225.34,310.364 1236.14,325.277 1246.93,345.52 1257.72,371.001 1268.52,400.702 1279.31,433.072 1290.1,466.504 1300.9,499.741 1311.69,532.073 
  1322.48,563.302 1333.28,593.529 1344.07,622.895 1354.86,651.392 1365.66,678.804 1376.45,704.808 1387.24,729.125 1398.03,751.665 1408.83,772.561 1419.62,792.085 
  1430.41,810.49 1441.21,827.86 1452,844.05 1462.79,858.759 1473.59,871.682 1484.38,882.688 1495.17,891.92 1505.97,899.789 1516.76,906.876 1527.55,913.81 
  1538.35,921.18 1549.14,929.509 1559.93,939.287 1570.73,950.99 1581.52,965.061 1592.31,981.826 1603.1,1001.37 1613.9,1023.41 1624.69,1047.24 1635.48,1071.78 
  1646.28,1095.7 1657.07,1117.64 1667.86,1136.5 1678.66,1151.58 1689.45,1162.8 1700.24,1170.62 1711.04,1175.94 1721.83,1179.94 1732.62,1183.81 1743.42,1188.61 
  
  "/>
<path clip-path="url(#clip582)" d="
M1743.42 1188.61 L1748.92 1191.7 L1754.43 1195.34 L1759.94 1199.59 L1765.44 1204.49 L1770.95 1210.07 L1776.46 1216.33 L1781.97 1223.26 L1787.47 1230.83 L1792.98 1238.98 
  L1798.49 1247.65 L1804 1256.75 L1809.5 1266.19 L1815.01 1275.86 L1820.52 1285.66 L1826.02 1295.48 L1831.53 1305.2 L1837.04 1314.74 L1842.55 1323.99 L1848.05 1332.86 
  L1853.56 1341.29 L1859.07 1349.2 L1864.57 1356.53 L1870.08 1363.21 L1875.59 1369.2 L1881.1 1374.44 L1886.6 1378.87 L1892.11 1382.47 L1897.62 1385.19 L1903.13 1387.02 
  L1908.63 1387.95 L1914.14 1387.99 L1919.65 1387.19 L1925.15 1385.61 L1930.66 1383.37 L1936.17 1380.57 L1941.68 1377.38 L1947.18 1373.96 L1952.69 1370.49 L1958.2 1367.17 
  L1963.7 1364.18 L1969.21 1361.69 L1974.72 1359.85 L1980.23 1358.78 L1985.73 1358.57 L1991.24 1359.26 L1996.75 1360.86 L2002.26 1363.36 L2007.76 1366.69 L2013.27 1370.76 
  L2018.78 1375.47 L2024.28 1380.69 L2029.79 1386.3 L2035.3 1392.15 L2040.81 1398.15 L2046.31 1404.16 L2051.82 1410.1 L2057.33 1415.89 L2062.83 1421.47 L2068.34 1426.8 
  L2073.85 1431.85 L2079.36 1436.59 L2084.86 1441.03 L2090.37 1445.16 L2095.88 1449 L2101.39 1452.54 L2106.89 1455.79 L2112.4 1458.77 L2117.91 1461.48 L2123.41 1463.93 
  L2128.92 1466.12 L2134.43 1468.06 L2139.94 1469.76 L2145.44 1471.22 L2150.95 1472.44 L2156.46 1473.43 L2161.96 1474.2 L2167.47 1474.75 L2172.98 1475.08 L2178.49 1475.21 
  L2183.99 1475.13 L2189.5 1474.85 L2195.01 1474.38 L2200.52 1473.72 L2206.02 1472.91 L2211.53 1471.94 L2217.04 1470.85 L2222.54 1469.67 L2228.05 1468.43 L2233.56 1467.17 
  L2239.07 1465.94 L2244.57 1464.78 L2250.08 1463.75 L2255.59 1462.87 L2261.09 1462.2 L2266.6 1461.76 L2272.11 1461.57 L2277.62 1461.63 L2283.12 1461.96 L2288.63 1462.53 
  L2288.63 1479.3 L2283.12 1479.3 L2277.62 1479.3 L2272.11 1479.3 L2266.6 1479.3 L2261.09 1479.3 L2255.59 1479.3 L2250.08 1479.3 L2244.57 1479.3 L2239.07 1479.3 
  L2233.56 1479.3 L2228.05 1479.3 L2222.54 1479.3 L2217.04 1479.3 L2211.53 1479.3 L2206.02 1479.3 L2200.52 1479.3 L2195.01 1479.3 L2189.5 1479.3 L2183.99 1479.3 
  L2178.49 1479.3 L2172.98 1479.3 L2167.47 1479.3 L2161.96 1479.3 L2156.46 1479.3 L2150.95 1479.3 L2145.44 1479.3 L2139.94 1479.3 L2134.43 1479.3 L2128.92 1479.3 
  L2123.41 1479.3 L2117.91 1479.3 L2112.4 1479.3 L2106.89 1479.3 L2101.39 1479.3 L2095.88 1479.3 L2090.37 1479.3 L2084.86 1479.3 L2079.36 1479.3 L2073.85 1479.3 
  L2068.34 1479.3 L2062.83 1479.3 L2057.33 1479.3 L2051.82 1479.3 L2046.31 1479.3 L2040.81 1479.3 L2035.3 1479.3 L2029.79 1479.3 L2024.28 1479.3 L2018.78 1479.3 
  L2013.27 1479.3 L2007.76 1479.3 L2002.26 1479.3 L1996.75 1479.3 L1991.24 1479.3 L1985.73 1479.3 L1980.23 1479.3 L1974.72 1479.3 L1969.21 1479.3 L1963.7 1479.3 
  L1958.2 1479.3 L1952.69 1479.3 L1947.18 1479.3 L1941.68 1479.3 L1936.17 1479.3 L1930.66 1479.3 L1925.15 1479.3 L1919.65 1479.3 L1914.14 1479.3 L1908.63 1479.3 
  L1903.13 1479.3 L1897.62 1479.3 L1892.11 1479.3 L1886.6 1479.3 L1881.1 1479.3 L1875.59 1479.3 L1870.08 1479.3 L1864.57 1479.3 L1859.07 1479.3 L1853.56 1479.3 
  L1848.05 1479.3 L1842.55 1479.3 L1837.04 1479.3 L1831.53 1479.3 L1826.02 1479.3 L1820.52 1479.3 L1815.01 1479.3 L1809.5 1479.3 L1804 1479.3 L1798.49 1479.3 
  L1792.98 1479.3 L1787.47 1479.3 L1781.97 1479.3 L1776.46 1479.3 L1770.95 1479.3 L1765.44 1479.3 L1759.94 1479.3 L1754.43 1479.3 L1748.92 1479.3 L1743.42 1479.3 
   Z
  " fill="#ffa500" fill-rule="evenodd" fill-opacity="0.5"/>
<polyline clip-path="url(#clip582)" style="stroke:#ffa500; stroke-width:4; stroke-opacity:1; fill:none" points="
  1743.42,1188.61 1748.92,1191.7 1754.43,1195.34 1759.94,1199.59 1765.44,1204.49 1770.95,1210.07 1776.46,1216.33 1781.97,1223.26 1787.47,1230.83 1792.98,1238.98 
  1798.49,1247.65 1804,1256.75 1809.5,1266.19 1815.01,1275.86 1820.52,1285.66 1826.02,1295.48 1831.53,1305.2 1837.04,1314.74 1842.55,1323.99 1848.05,1332.86 
  1853.56,1341.29 1859.07,1349.2 1864.57,1356.53 1870.08,1363.21 1875.59,1369.2 1881.1,1374.44 1886.6,1378.87 1892.11,1382.47 1897.62,1385.19 1903.13,1387.02 
  1908.63,1387.95 1914.14,1387.99 1919.65,1387.19 1925.15,1385.61 1930.66,1383.37 1936.17,1380.57 1941.68,1377.38 1947.18,1373.96 1952.69,1370.49 1958.2,1367.17 
  1963.7,1364.18 1969.21,1361.69 1974.72,1359.85 1980.23,1358.78 1985.73,1358.57 1991.24,1359.26 1996.75,1360.86 2002.26,1363.36 2007.76,1366.69 2013.27,1370.76 
  2018.78,1375.47 2024.28,1380.69 2029.79,1386.3 2035.3,1392.15 2040.81,1398.15 2046.31,1404.16 2051.82,1410.1 2057.33,1415.89 2062.83,1421.47 2068.34,1426.8 
  2073.85,1431.85 2079.36,1436.59 2084.86,1441.03 2090.37,1445.16 2095.88,1449 2101.39,1452.54 2106.89,1455.79 2112.4,1458.77 2117.91,1461.48 2123.41,1463.93 
  2128.92,1466.12 2134.43,1468.06 2139.94,1469.76 2145.44,1471.22 2150.95,1472.44 2156.46,1473.43 2161.96,1474.2 2167.47,1474.75 2172.98,1475.08 2178.49,1475.21 
  2183.99,1475.13 2189.5,1474.85 2195.01,1474.38 2200.52,1473.72 2206.02,1472.91 2211.53,1471.94 2217.04,1470.85 2222.54,1469.67 2228.05,1468.43 2233.56,1467.17 
  2239.07,1465.94 2244.57,1464.78 2250.08,1463.75 2255.59,1462.87 2261.09,1462.2 2266.6,1461.76 2272.11,1461.57 2277.62,1461.63 2283.12,1461.96 2288.63,1462.53 
  
  "/>
<polyline clip-path="url(#clip582)" style="stroke:#0000ff; stroke-width:4; stroke-opacity:1; fill:none" points="
  1158.11,1479.3 1158.11,237.3 
  "/>
<polyline clip-path="url(#clip582)" style="stroke:#000000; stroke-width:4; stroke-opacity:1; fill:none" points="
  1128.32,1479.3 1128.32,172.71 
  "/>
<path clip-path="url(#clip580)" d="
M1494.58 459.25 L2277.23 459.25 L2277.23 96.3696 L1494.58 96.3696  Z
  " fill="#ffffff" fill-rule="evenodd" fill-opacity="1"/>
<polyline clip-path="url(#clip580)" style="stroke:#000000; stroke-width:4; stroke-opacity:1; fill:none" points="
  1494.58,459.25 2277.23,459.25 2277.23,96.3696 1494.58,96.3696 1494.58,459.25 
  "/>
<path clip-path="url(#clip580)" d="
M1519.75 181.042 L1670.81 181.042 L1670.81 132.658 L1519.75 132.658 L1519.75 181.042  Z
  " fill="#ffa500" fill-rule="evenodd" fill-opacity="0.5"/>
<polyline clip-path="url(#clip580)" style="stroke:#ffa500; stroke-width:4; stroke-opacity:1; fill:none" points="
  1519.75,132.658 1670.81,132.658 
  "/>
<path clip-path="url(#clip580)" d="M 0 0 M1700.38 161.19 Q1700.38 165.889 1702.3 168.574 Q1704.24 171.236 1707.62 171.236 Q1711 171.236 1712.95 168.574 Q1714.89 165.889 1714.89 161.19 Q1714.89 156.491 1712.95 153.829 Q1711 151.144 1707.62 151.144 Q1704.24 151.144 1702.3 153.829 Q1700.38 156.491 1700.38 161.19 M1714.89 170.241 Q1713.55 172.555 1711.49 173.69 Q1709.45 174.801 1706.58 174.801 Q1701.88 174.801 1698.92 171.051 Q1695.98 167.301 1695.98 161.19 Q1695.98 155.079 1698.92 151.329 Q1701.88 147.579 1706.58 147.579 Q1709.45 147.579 1711.49 148.713 Q1713.55 149.824 1714.89 152.139 L1714.89 148.204 L1719.15 148.204 L1719.15 183.991 L1714.89 183.991 L1714.89 170.241 Z" fill="#000000" fill-rule="evenodd" fill-opacity="1" /><path clip-path="url(#clip580)" d="M 0 0 M1734.22 142.648 Q1730.61 142.648 1728.78 146.213 Q1726.98 149.755 1726.98 156.884 Q1726.98 163.991 1728.78 167.556 Q1730.61 171.097 1734.22 171.097 Q1737.85 171.097 1739.66 167.556 Q1741.49 163.991 1741.49 156.884 Q1741.49 149.755 1739.66 146.213 Q1737.85 142.648 1734.22 142.648 M1734.22 138.945 Q1740.03 138.945 1743.09 143.551 Q1746.17 148.134 1746.17 156.884 Q1746.17 165.611 1743.09 170.218 Q1740.03 174.801 1734.22 174.801 Q1728.41 174.801 1725.33 170.218 Q1722.28 165.611 1722.28 156.884 Q1722.28 148.134 1725.33 143.551 Q1728.41 138.945 1734.22 138.945 Z" fill="#000000" fill-rule="evenodd" fill-opacity="1" /><path clip-path="url(#clip580)" d="M 0 0 M1751.28 139.57 L1769.64 139.57 L1769.64 143.505 L1755.56 143.505 L1755.56 151.977 Q1756.58 151.63 1757.6 151.468 Q1758.62 151.282 1759.64 151.282 Q1765.42 151.282 1768.8 154.454 Q1772.18 157.625 1772.18 163.042 Q1772.18 168.62 1768.71 171.722 Q1765.24 174.801 1758.92 174.801 Q1756.74 174.801 1754.48 174.43 Q1752.23 174.06 1749.82 173.319 L1749.82 168.62 Q1751.91 169.755 1754.13 170.31 Q1756.35 170.866 1758.83 170.866 Q1762.83 170.866 1765.17 168.759 Q1767.51 166.653 1767.51 163.042 Q1767.51 159.431 1765.17 157.324 Q1762.83 155.218 1758.83 155.218 Q1756.95 155.218 1755.08 155.634 Q1753.23 156.051 1751.28 156.931 L1751.28 139.57 Z" fill="#000000" fill-rule="evenodd" fill-opacity="1" /><path clip-path="url(#clip580)" d="
M1519.75 241.522 L1670.81 241.522 L1670.81 193.138 L1519.75 193.138 L1519.75 241.522  Z
  " fill="#008000" fill-rule="evenodd" fill-opacity="0.5"/>
<polyline clip-path="url(#clip580)" style="stroke:#008000; stroke-width:4; stroke-opacity:1; fill:none" points="
  1519.75,193.138 1670.81,193.138 
  "/>
<path clip-path="url(#clip580)" d="M 0 0 M1698.2 233.892 L1698.2 229.633 Q1699.96 230.466 1701.77 230.906 Q1703.57 231.346 1705.31 231.346 Q1709.94 231.346 1712.37 228.244 Q1714.82 225.119 1715.17 218.776 Q1713.83 220.767 1711.77 221.832 Q1709.71 222.897 1707.21 222.897 Q1702.02 222.897 1698.99 219.772 Q1695.98 216.624 1695.98 211.184 Q1695.98 205.86 1699.13 202.642 Q1702.28 199.425 1707.51 199.425 Q1713.5 199.425 1716.65 204.031 Q1719.82 208.614 1719.82 217.364 Q1719.82 225.536 1715.93 230.42 Q1712.07 235.281 1705.52 235.281 Q1703.76 235.281 1701.95 234.934 Q1700.15 234.586 1698.2 233.892 M1707.51 219.239 Q1710.66 219.239 1712.48 217.086 Q1714.34 214.934 1714.34 211.184 Q1714.34 207.457 1712.48 205.304 Q1710.66 203.128 1707.51 203.128 Q1704.36 203.128 1702.51 205.304 Q1700.68 207.457 1700.68 211.184 Q1700.68 214.934 1702.51 217.086 Q1704.36 219.239 1707.51 219.239 Z" fill="#000000" fill-rule="evenodd" fill-opacity="1" /><path clip-path="url(#clip580)" d="M 0 0 M1734.89 203.128 Q1731.28 203.128 1729.45 206.693 Q1727.65 210.235 1727.65 217.364 Q1727.65 224.471 1729.45 228.036 Q1731.28 231.577 1734.89 231.577 Q1738.53 231.577 1740.33 228.036 Q1742.16 224.471 1742.16 217.364 Q1742.16 210.235 1740.33 206.693 Q1738.53 203.128 1734.89 203.128 M1734.89 199.425 Q1740.7 199.425 1743.76 204.031 Q1746.84 208.614 1746.84 217.364 Q1746.84 226.091 1743.76 230.698 Q1740.7 235.281 1734.89 235.281 Q1729.08 235.281 1726 230.698 Q1722.95 226.091 1722.95 217.364 Q1722.95 208.614 1726 204.031 Q1729.08 199.425 1734.89 199.425 Z" fill="#000000" fill-rule="evenodd" fill-opacity="1" /><path clip-path="url(#clip580)" d="M 0 0 M1781.3 219.401 Q1779.29 219.401 1778.13 221.114 Q1777 222.827 1777 225.883 Q1777 228.892 1778.13 230.628 Q1779.29 232.341 1781.3 232.341 Q1783.27 232.341 1784.41 230.628 Q1785.56 228.892 1785.56 225.883 Q1785.56 222.85 1784.41 221.137 Q1783.27 219.401 1781.3 219.401 M1781.3 216.462 Q1784.96 216.462 1787.11 219.008 Q1789.27 221.554 1789.27 225.883 Q1789.27 230.211 1787.09 232.758 Q1784.94 235.281 1781.3 235.281 Q1777.6 235.281 1775.45 232.758 Q1773.29 230.211 1773.29 225.883 Q1773.29 221.531 1775.45 219.008 Q1777.62 216.462 1781.3 216.462 M1757.42 202.364 Q1755.42 202.364 1754.27 204.1 Q1753.13 205.813 1753.13 208.823 Q1753.13 211.878 1754.27 213.591 Q1755.4 215.304 1757.42 215.304 Q1759.43 215.304 1760.56 213.591 Q1761.72 211.878 1761.72 208.823 Q1761.72 205.837 1760.56 204.1 Q1759.41 202.364 1757.42 202.364 M1778.32 199.425 L1782.02 199.425 L1760.4 235.281 L1756.7 235.281 L1778.32 199.425 M1757.42 199.425 Q1761.07 199.425 1763.25 201.971 Q1765.42 204.494 1765.42 208.823 Q1765.42 213.198 1763.25 215.721 Q1761.1 218.244 1757.42 218.244 Q1753.73 218.244 1751.58 215.721 Q1749.45 213.174 1749.45 208.823 Q1749.45 204.517 1751.6 201.971 Q1753.76 199.425 1757.42 199.425 Z" fill="#000000" fill-rule="evenodd" fill-opacity="1" /><path clip-path="url(#clip580)" d="M 0 0 M1830.35 218.961 L1830.35 234.61 L1826.1 234.61 L1826.1 219.1 Q1826.1 215.42 1824.66 213.591 Q1823.22 211.762 1820.35 211.762 Q1816.91 211.762 1814.91 213.962 Q1812.92 216.161 1812.92 219.957 L1812.92 234.61 L1808.64 234.61 L1808.64 208.684 L1812.92 208.684 L1812.92 212.712 Q1814.45 210.374 1816.51 209.216 Q1818.6 208.059 1821.3 208.059 Q1825.77 208.059 1828.06 210.837 Q1830.35 213.591 1830.35 218.961 Z" fill="#000000" fill-rule="evenodd" fill-opacity="1" /><path clip-path="url(#clip580)" d="M 0 0 M1844.87 211.67 Q1841.44 211.67 1839.45 214.355 Q1837.46 217.017 1837.46 221.67 Q1837.46 226.323 1839.43 229.008 Q1841.42 231.67 1844.87 231.67 Q1848.27 231.67 1850.26 228.985 Q1852.25 226.299 1852.25 221.67 Q1852.25 217.063 1850.26 214.378 Q1848.27 211.67 1844.87 211.67 M1844.87 208.059 Q1850.42 208.059 1853.6 211.67 Q1856.77 215.281 1856.77 221.67 Q1856.77 228.036 1853.6 231.67 Q1850.42 235.281 1844.87 235.281 Q1839.29 235.281 1836.12 231.67 Q1832.97 228.036 1832.97 221.67 Q1832.97 215.281 1836.12 211.67 Q1839.29 208.059 1844.87 208.059 Z" fill="#000000" fill-rule="evenodd" fill-opacity="1" /><path clip-path="url(#clip580)" d="M 0 0 M1882.78 218.961 L1882.78 234.61 L1878.53 234.61 L1878.53 219.1 Q1878.53 215.42 1877.09 213.591 Q1875.66 211.762 1872.78 211.762 Q1869.34 211.762 1867.35 213.962 Q1865.35 216.161 1865.35 219.957 L1865.35 234.61 L1861.07 234.61 L1861.07 208.684 L1865.35 208.684 L1865.35 212.712 Q1866.88 210.374 1868.94 209.216 Q1871.03 208.059 1873.73 208.059 Q1878.2 208.059 1880.49 210.837 Q1882.78 213.591 1882.78 218.961 Z" fill="#000000" fill-rule="evenodd" fill-opacity="1" /><path clip-path="url(#clip580)" d="M 0 0 M1885.1 219.725 L1897.58 219.725 L1897.58 223.522 L1885.1 223.522 L1885.1 219.725 Z" fill="#000000" fill-rule="evenodd" fill-opacity="1" /><path clip-path="url(#clip580)" d="M 0 0 M1917.07 212.665 Q1916.35 212.249 1915.49 212.063 Q1914.66 211.855 1913.64 211.855 Q1910.03 211.855 1908.09 214.216 Q1906.16 216.554 1906.16 220.952 L1906.16 234.61 L1901.88 234.61 L1901.88 208.684 L1906.16 208.684 L1906.16 212.712 Q1907.51 210.35 1909.66 209.216 Q1911.81 208.059 1914.89 208.059 Q1915.33 208.059 1915.86 208.128 Q1916.4 208.175 1917.04 208.29 L1917.07 212.665 Z" fill="#000000" fill-rule="evenodd" fill-opacity="1" /><path clip-path="url(#clip580)" d="M 0 0 M1942.67 220.582 L1942.67 222.665 L1923.09 222.665 Q1923.36 227.063 1925.72 229.378 Q1928.11 231.67 1932.34 231.67 Q1934.8 231.67 1937.09 231.068 Q1939.4 230.466 1941.67 229.262 L1941.67 233.29 Q1939.38 234.262 1936.97 234.772 Q1934.57 235.281 1932.09 235.281 Q1925.89 235.281 1922.25 231.67 Q1918.64 228.059 1918.64 221.901 Q1918.64 215.536 1922.07 211.809 Q1925.52 208.059 1931.35 208.059 Q1936.58 208.059 1939.61 211.438 Q1942.67 214.795 1942.67 220.582 M1938.41 219.332 Q1938.36 215.837 1936.44 213.753 Q1934.54 211.67 1931.4 211.67 Q1927.83 211.67 1925.68 213.684 Q1923.55 215.698 1923.22 219.355 L1938.41 219.332 Z" fill="#000000" fill-rule="evenodd" fill-opacity="1" /><path clip-path="url(#clip580)" d="M 0 0 M1947.14 208.684 L1951.4 208.684 L1951.4 235.073 Q1951.4 240.026 1949.5 242.248 Q1947.62 244.471 1943.43 244.471 L1941.81 244.471 L1941.81 240.86 L1942.95 240.86 Q1945.38 240.86 1946.26 239.725 Q1947.14 238.614 1947.14 235.073 L1947.14 208.684 M1947.14 198.591 L1951.4 198.591 L1951.4 203.985 L1947.14 203.985 L1947.14 198.591 Z" fill="#000000" fill-rule="evenodd" fill-opacity="1" /><path clip-path="url(#clip580)" d="M 0 0 M1978.04 220.582 L1978.04 222.665 L1958.46 222.665 Q1958.73 227.063 1961.09 229.378 Q1963.48 231.67 1967.71 231.67 Q1970.17 231.67 1972.46 231.068 Q1974.78 230.466 1977.04 229.262 L1977.04 233.29 Q1974.75 234.262 1972.34 234.772 Q1969.94 235.281 1967.46 235.281 Q1961.26 235.281 1957.62 231.67 Q1954.01 228.059 1954.01 221.901 Q1954.01 215.536 1957.44 211.809 Q1960.89 208.059 1966.72 208.059 Q1971.95 208.059 1974.98 211.438 Q1978.04 214.795 1978.04 220.582 M1973.78 219.332 Q1973.73 215.837 1971.81 213.753 Q1969.91 211.67 1966.77 211.67 Q1963.2 211.67 1961.05 213.684 Q1958.92 215.698 1958.59 219.355 L1973.78 219.332 Z" fill="#000000" fill-rule="evenodd" fill-opacity="1" /><path clip-path="url(#clip580)" d="M 0 0 M2001.16 209.679 L2001.16 213.661 Q1999.36 212.665 1997.53 212.179 Q1995.72 211.67 1993.87 211.67 Q1989.73 211.67 1987.44 214.309 Q1985.15 216.924 1985.15 221.67 Q1985.15 226.415 1987.44 229.054 Q1989.73 231.67 1993.87 231.67 Q1995.72 231.67 1997.53 231.184 Q1999.36 230.674 2001.16 229.679 L2001.16 233.614 Q1999.38 234.448 1997.46 234.864 Q1995.56 235.281 1993.41 235.281 Q1987.55 235.281 1984.1 231.6 Q1980.65 227.92 1980.65 221.67 Q1980.65 215.327 1984.13 211.693 Q1987.62 208.059 1993.69 208.059 Q1995.65 208.059 1997.53 208.475 Q1999.4 208.869 2001.16 209.679 Z" fill="#000000" fill-rule="evenodd" fill-opacity="1" /><path clip-path="url(#clip580)" d="M 0 0 M2009.84 201.323 L2009.84 208.684 L2018.62 208.684 L2018.62 211.994 L2009.84 211.994 L2009.84 226.068 Q2009.84 229.239 2010.7 230.142 Q2011.58 231.045 2014.24 231.045 L2018.62 231.045 L2018.62 234.61 L2014.24 234.61 Q2009.31 234.61 2007.44 232.781 Q2005.56 230.929 2005.56 226.068 L2005.56 211.994 L2002.44 211.994 L2002.44 208.684 L2005.56 208.684 L2005.56 201.323 L2009.84 201.323 Z" fill="#000000" fill-rule="evenodd" fill-opacity="1" /><path clip-path="url(#clip580)" d="M 0 0 M2023.08 208.684 L2027.34 208.684 L2027.34 234.61 L2023.08 234.61 L2023.08 208.684 M2023.08 198.591 L2027.34 198.591 L2027.34 203.985 L2023.08 203.985 L2023.08 198.591 Z" fill="#000000" fill-rule="evenodd" fill-opacity="1" /><path clip-path="url(#clip580)" d="M 0 0 M2041.86 211.67 Q2038.43 211.67 2036.44 214.355 Q2034.45 217.017 2034.45 221.67 Q2034.45 226.323 2036.42 229.008 Q2038.41 231.67 2041.86 231.67 Q2045.26 231.67 2047.25 228.985 Q2049.24 226.299 2049.24 221.67 Q2049.24 217.063 2047.25 214.378 Q2045.26 211.67 2041.86 211.67 M2041.86 208.059 Q2047.41 208.059 2050.58 211.67 Q2053.76 215.281 2053.76 221.67 Q2053.76 228.036 2050.58 231.67 Q2047.41 235.281 2041.86 235.281 Q2036.28 235.281 2033.11 231.67 Q2029.96 228.036 2029.96 221.67 Q2029.96 215.281 2033.11 211.67 Q2036.28 208.059 2041.86 208.059 Z" fill="#000000" fill-rule="evenodd" fill-opacity="1" /><path clip-path="url(#clip580)" d="M 0 0 M2079.77 218.961 L2079.77 234.61 L2075.52 234.61 L2075.52 219.1 Q2075.52 215.42 2074.08 213.591 Q2072.64 211.762 2069.77 211.762 Q2066.33 211.762 2064.33 213.962 Q2062.34 216.161 2062.34 219.957 L2062.34 234.61 L2058.06 234.61 L2058.06 208.684 L2062.34 208.684 L2062.34 212.712 Q2063.87 210.374 2065.93 209.216 Q2068.02 208.059 2070.72 208.059 Q2075.19 208.059 2077.48 210.837 Q2079.77 213.591 2079.77 218.961 Z" fill="#000000" fill-rule="evenodd" fill-opacity="1" /><path clip-path="url(#clip580)" d="M 0 0 M2114.33 212.665 Q2113.62 212.249 2112.76 212.063 Q2111.93 211.855 2110.91 211.855 Q2107.3 211.855 2105.35 214.216 Q2103.43 216.554 2103.43 220.952 L2103.43 234.61 L2099.15 234.61 L2099.15 208.684 L2103.43 208.684 L2103.43 212.712 Q2104.77 210.35 2106.93 209.216 Q2109.08 208.059 2112.16 208.059 Q2112.6 208.059 2113.13 208.128 Q2113.66 208.175 2114.31 208.29 L2114.33 212.665 Z" fill="#000000" fill-rule="evenodd" fill-opacity="1" /><path clip-path="url(#clip580)" d="M 0 0 M2139.94 220.582 L2139.94 222.665 L2120.35 222.665 Q2120.63 227.063 2122.99 229.378 Q2125.38 231.67 2129.61 231.67 Q2132.07 231.67 2134.36 231.068 Q2136.67 230.466 2138.94 229.262 L2138.94 233.29 Q2136.65 234.262 2134.24 234.772 Q2131.83 235.281 2129.36 235.281 Q2123.15 235.281 2119.52 231.67 Q2115.91 228.059 2115.91 221.901 Q2115.91 215.536 2119.33 211.809 Q2122.78 208.059 2128.62 208.059 Q2133.85 208.059 2136.88 211.438 Q2139.94 214.795 2139.94 220.582 M2135.68 219.332 Q2135.63 215.837 2133.71 213.753 Q2131.81 211.67 2128.66 211.67 Q2125.1 211.67 2122.95 213.684 Q2120.82 215.698 2120.49 219.355 L2135.68 219.332 Z" fill="#000000" fill-rule="evenodd" fill-opacity="1" /><path clip-path="url(#clip580)" d="M 0 0 M2161.46 221.346 Q2161.46 216.716 2159.54 214.17 Q2157.64 211.624 2154.2 211.624 Q2150.77 211.624 2148.85 214.17 Q2146.95 216.716 2146.95 221.346 Q2146.95 225.952 2148.85 228.498 Q2150.77 231.045 2154.2 231.045 Q2157.64 231.045 2159.54 228.498 Q2161.46 225.952 2161.46 221.346 M2165.72 231.392 Q2165.72 238.012 2162.78 241.23 Q2159.84 244.471 2153.78 244.471 Q2151.53 244.471 2149.54 244.123 Q2147.55 243.799 2145.68 243.105 L2145.68 238.961 Q2147.55 239.98 2149.38 240.466 Q2151.21 240.952 2153.11 240.952 Q2157.3 240.952 2159.38 238.753 Q2161.46 236.577 2161.46 232.156 L2161.46 230.049 Q2160.14 232.341 2158.08 233.475 Q2156.02 234.61 2153.15 234.61 Q2148.39 234.61 2145.47 230.975 Q2142.55 227.341 2142.55 221.346 Q2142.55 215.327 2145.47 211.693 Q2148.39 208.059 2153.15 208.059 Q2156.02 208.059 2158.08 209.193 Q2160.14 210.327 2161.46 212.619 L2161.46 208.684 L2165.72 208.684 L2165.72 231.392 Z" fill="#000000" fill-rule="evenodd" fill-opacity="1" /><path clip-path="url(#clip580)" d="M 0 0 M2170.19 208.684 L2174.45 208.684 L2174.45 234.61 L2170.19 234.61 L2170.19 208.684 M2170.19 198.591 L2174.45 198.591 L2174.45 203.985 L2170.19 203.985 L2170.19 198.591 Z" fill="#000000" fill-rule="evenodd" fill-opacity="1" /><path clip-path="url(#clip580)" d="M 0 0 M2188.96 211.67 Q2185.54 211.67 2183.55 214.355 Q2181.56 217.017 2181.56 221.67 Q2181.56 226.323 2183.52 229.008 Q2185.51 231.67 2188.96 231.67 Q2192.37 231.67 2194.36 228.985 Q2196.35 226.299 2196.35 221.67 Q2196.35 217.063 2194.36 214.378 Q2192.37 211.67 2188.96 211.67 M2188.96 208.059 Q2194.52 208.059 2197.69 211.67 Q2200.86 215.281 2200.86 221.67 Q2200.86 228.036 2197.69 231.67 Q2194.52 235.281 2188.96 235.281 Q2183.39 235.281 2180.21 231.67 Q2177.07 228.036 2177.07 221.67 Q2177.07 215.281 2180.21 211.67 Q2183.39 208.059 2188.96 208.059 Z" fill="#000000" fill-rule="evenodd" fill-opacity="1" /><path clip-path="url(#clip580)" d="M 0 0 M2226.88 218.961 L2226.88 234.61 L2222.62 234.61 L2222.62 219.1 Q2222.62 215.42 2221.19 213.591 Q2219.75 211.762 2216.88 211.762 Q2213.43 211.762 2211.44 213.962 Q2209.45 216.161 2209.45 219.957 L2209.45 234.61 L2205.17 234.61 L2205.17 208.684 L2209.45 208.684 L2209.45 212.712 Q2210.98 210.374 2213.04 209.216 Q2215.12 208.059 2217.83 208.059 Q2222.3 208.059 2224.59 210.837 Q2226.88 213.591 2226.88 218.961 Z" fill="#000000" fill-rule="evenodd" fill-opacity="1" /><path clip-path="url(#clip580)" d="
M1519.75 302.002 L1670.81 302.002 L1670.81 253.618 L1519.75 253.618 L1519.75 302.002  Z
  " fill="#ffa500" fill-rule="evenodd" fill-opacity="0.5"/>
<polyline clip-path="url(#clip580)" style="stroke:#ffa500; stroke-width:4; stroke-opacity:1; fill:none" points="
  1519.75,253.618 1670.81,253.618 
  "/>
<path clip-path="url(#clip580)" d="M 0 0 M1700.38 282.15 Q1700.38 286.849 1702.3 289.534 Q1704.24 292.196 1707.62 292.196 Q1711 292.196 1712.95 289.534 Q1714.89 286.849 1714.89 282.15 Q1714.89 277.451 1712.95 274.789 Q1711 272.104 1707.62 272.104 Q1704.24 272.104 1702.3 274.789 Q1700.38 277.451 1700.38 282.15 M1714.89 291.201 Q1713.55 293.515 1711.49 294.65 Q1709.45 295.761 1706.58 295.761 Q1701.88 295.761 1698.92 292.011 Q1695.98 288.261 1695.98 282.15 Q1695.98 276.039 1698.92 272.289 Q1701.88 268.539 1706.58 268.539 Q1709.45 268.539 1711.49 269.673 Q1713.55 270.784 1714.89 273.099 L1714.89 269.164 L1719.15 269.164 L1719.15 304.951 L1714.89 304.951 L1714.89 291.201 Z" fill="#000000" fill-rule="evenodd" fill-opacity="1" /><path clip-path="url(#clip580)" d="M 0 0 M1724.36 294.372 L1724.36 290.113 Q1726.12 290.946 1727.92 291.386 Q1729.73 291.826 1731.47 291.826 Q1736.1 291.826 1738.53 288.724 Q1740.98 285.599 1741.33 279.256 Q1739.98 281.247 1737.92 282.312 Q1735.86 283.377 1733.36 283.377 Q1728.18 283.377 1725.15 280.252 Q1722.14 277.104 1722.14 271.664 Q1722.14 266.34 1725.29 263.122 Q1728.43 259.905 1733.67 259.905 Q1739.66 259.905 1742.81 264.511 Q1745.98 269.094 1745.98 277.844 Q1745.98 286.016 1742.09 290.9 Q1738.23 295.761 1731.67 295.761 Q1729.92 295.761 1728.11 295.414 Q1726.3 295.066 1724.36 294.372 M1733.67 279.719 Q1736.81 279.719 1738.64 277.566 Q1740.49 275.414 1740.49 271.664 Q1740.49 267.937 1738.64 265.784 Q1736.81 263.608 1733.67 263.608 Q1730.52 263.608 1728.67 265.784 Q1726.84 267.937 1726.84 271.664 Q1726.84 275.414 1728.67 277.566 Q1730.52 279.719 1733.67 279.719 Z" fill="#000000" fill-rule="evenodd" fill-opacity="1" /><path clip-path="url(#clip580)" d="M 0 0 M1751.1 260.53 L1769.45 260.53 L1769.45 264.465 L1755.38 264.465 L1755.38 272.937 Q1756.4 272.59 1757.42 272.428 Q1758.43 272.242 1759.45 272.242 Q1765.24 272.242 1768.62 275.414 Q1772 278.585 1772 284.002 Q1772 289.58 1768.53 292.682 Q1765.05 295.761 1758.73 295.761 Q1756.56 295.761 1754.29 295.39 Q1752.04 295.02 1749.64 294.279 L1749.64 289.58 Q1751.72 290.715 1753.94 291.27 Q1756.17 291.826 1758.64 291.826 Q1762.65 291.826 1764.98 289.719 Q1767.32 287.613 1767.32 284.002 Q1767.32 280.391 1764.98 278.284 Q1762.65 276.178 1758.64 276.178 Q1756.77 276.178 1754.89 276.594 Q1753.04 277.011 1751.1 277.891 L1751.1 260.53 Z" fill="#000000" fill-rule="evenodd" fill-opacity="1" /><polyline clip-path="url(#clip580)" style="stroke:#0000ff; stroke-width:4; stroke-opacity:1; fill:none" points="
  1519.75,338.29 1670.81,338.29 
  "/>
<path clip-path="url(#clip580)" d="M 0 0 M1716.33 334.621 Q1717.92 331.75 1720.15 330.385 Q1722.37 329.019 1725.38 329.019 Q1729.43 329.019 1731.63 331.866 Q1733.83 334.69 1733.83 339.921 L1733.83 355.57 L1729.54 355.57 L1729.54 340.06 Q1729.54 336.334 1728.23 334.528 Q1726.91 332.722 1724.2 332.722 Q1720.89 332.722 1718.97 334.922 Q1717.04 337.121 1717.04 340.917 L1717.04 355.57 L1712.76 355.57 L1712.76 340.06 Q1712.76 336.31 1711.44 334.528 Q1710.12 332.722 1707.37 332.722 Q1704.11 332.722 1702.18 334.945 Q1700.26 337.144 1700.26 340.917 L1700.26 355.57 L1695.98 355.57 L1695.98 329.644 L1700.26 329.644 L1700.26 333.672 Q1701.72 331.287 1703.76 330.153 Q1705.79 329.019 1708.6 329.019 Q1711.42 329.019 1713.39 330.454 Q1715.38 331.889 1716.33 334.621 Z" fill="#000000" fill-rule="evenodd" fill-opacity="1" /><path clip-path="url(#clip580)" d="M 0 0 M1760.47 341.542 L1760.47 343.625 L1740.89 343.625 Q1741.17 348.023 1743.53 350.338 Q1745.91 352.63 1750.15 352.63 Q1752.6 352.63 1754.89 352.028 Q1757.21 351.426 1759.48 350.222 L1759.48 354.25 Q1757.18 355.222 1754.78 355.732 Q1752.37 356.241 1749.89 356.241 Q1743.69 356.241 1740.05 352.63 Q1736.44 349.019 1736.44 342.861 Q1736.44 336.496 1739.87 332.769 Q1743.32 329.019 1749.15 329.019 Q1754.38 329.019 1757.42 332.398 Q1760.47 335.755 1760.47 341.542 M1756.21 340.292 Q1756.17 336.797 1754.24 334.713 Q1752.35 332.63 1749.2 332.63 Q1745.63 332.63 1743.48 334.644 Q1741.35 336.658 1741.03 340.315 L1756.21 340.292 Z" fill="#000000" fill-rule="evenodd" fill-opacity="1" /><path clip-path="url(#clip580)" d="M 0 0 M1776.72 342.537 Q1771.56 342.537 1769.57 343.718 Q1767.58 344.898 1767.58 347.746 Q1767.58 350.014 1769.06 351.357 Q1770.56 352.676 1773.13 352.676 Q1776.67 352.676 1778.8 350.176 Q1780.96 347.653 1780.96 343.486 L1780.96 342.537 L1776.72 342.537 M1785.22 340.778 L1785.22 355.57 L1780.96 355.57 L1780.96 351.634 Q1779.5 353.995 1777.32 355.13 Q1775.15 356.241 1772 356.241 Q1768.02 356.241 1765.66 354.019 Q1763.32 351.773 1763.32 348.023 Q1763.32 343.648 1766.23 341.426 Q1769.17 339.204 1774.98 339.204 L1780.96 339.204 L1780.96 338.787 Q1780.96 335.847 1779.01 334.25 Q1777.09 332.63 1773.6 332.63 Q1771.37 332.63 1769.27 333.162 Q1767.16 333.695 1765.22 334.759 L1765.22 330.824 Q1767.55 329.922 1769.75 329.482 Q1771.95 329.019 1774.04 329.019 Q1779.66 329.019 1782.44 331.935 Q1785.22 334.852 1785.22 340.778 Z" fill="#000000" fill-rule="evenodd" fill-opacity="1" /><path clip-path="url(#clip580)" d="M 0 0 M1811.23 339.921 L1811.23 355.57 L1806.97 355.57 L1806.97 340.06 Q1806.97 336.38 1805.54 334.551 Q1804.1 332.722 1801.23 332.722 Q1797.79 332.722 1795.79 334.922 Q1793.8 337.121 1793.8 340.917 L1793.8 355.57 L1789.52 355.57 L1789.52 329.644 L1793.8 329.644 L1793.8 333.672 Q1795.33 331.334 1797.39 330.176 Q1799.48 329.019 1802.18 329.019 Q1806.65 329.019 1808.94 331.797 Q1811.23 334.551 1811.23 339.921 Z" fill="#000000" fill-rule="evenodd" fill-opacity="1" /><polyline clip-path="url(#clip580)" style="stroke:#000000; stroke-width:4; stroke-opacity:1; fill:none" points="
  1519.75,398.77 1670.81,398.77 
  "/>
<path clip-path="url(#clip580)" d="M 0 0 M1716.33 395.101 Q1717.92 392.23 1720.15 390.865 Q1722.37 389.499 1725.38 389.499 Q1729.43 389.499 1731.63 392.346 Q1733.83 395.17 1733.83 400.401 L1733.83 416.05 L1729.54 416.05 L1729.54 400.54 Q1729.54 396.814 1728.23 395.008 Q1726.91 393.202 1724.2 393.202 Q1720.89 393.202 1718.97 395.402 Q1717.04 397.601 1717.04 401.397 L1717.04 416.05 L1712.76 416.05 L1712.76 400.54 Q1712.76 396.79 1711.44 395.008 Q1710.12 393.202 1707.37 393.202 Q1704.11 393.202 1702.18 395.425 Q1700.26 397.624 1700.26 401.397 L1700.26 416.05 L1695.98 416.05 L1695.98 390.124 L1700.26 390.124 L1700.26 394.152 Q1701.72 391.767 1703.76 390.633 Q1705.79 389.499 1708.6 389.499 Q1711.42 389.499 1713.39 390.934 Q1715.38 392.369 1716.33 395.101 Z" fill="#000000" fill-rule="evenodd" fill-opacity="1" /><path clip-path="url(#clip580)" d="M 0 0 M1760.47 402.022 L1760.47 404.105 L1740.89 404.105 Q1741.17 408.503 1743.53 410.818 Q1745.91 413.11 1750.15 413.11 Q1752.6 413.11 1754.89 412.508 Q1757.21 411.906 1759.48 410.702 L1759.48 414.73 Q1757.18 415.702 1754.78 416.212 Q1752.37 416.721 1749.89 416.721 Q1743.69 416.721 1740.05 413.11 Q1736.44 409.499 1736.44 403.341 Q1736.44 396.976 1739.87 393.249 Q1743.32 389.499 1749.15 389.499 Q1754.38 389.499 1757.42 392.878 Q1760.47 396.235 1760.47 402.022 M1756.21 400.772 Q1756.17 397.277 1754.24 395.193 Q1752.35 393.11 1749.2 393.11 Q1745.63 393.11 1743.48 395.124 Q1741.35 397.138 1741.03 400.795 L1756.21 400.772 Z" fill="#000000" fill-rule="evenodd" fill-opacity="1" /><path clip-path="url(#clip580)" d="M 0 0 M1782 394.059 L1782 380.031 L1786.26 380.031 L1786.26 416.05 L1782 416.05 L1782 412.161 Q1780.66 414.475 1778.6 415.61 Q1776.56 416.721 1773.69 416.721 Q1768.99 416.721 1766.03 412.971 Q1763.09 409.221 1763.09 403.11 Q1763.09 396.999 1766.03 393.249 Q1768.99 389.499 1773.69 389.499 Q1776.56 389.499 1778.6 390.633 Q1780.66 391.744 1782 394.059 M1767.48 403.11 Q1767.48 407.809 1769.41 410.494 Q1771.35 413.156 1774.73 413.156 Q1778.11 413.156 1780.05 410.494 Q1782 407.809 1782 403.11 Q1782 398.411 1780.05 395.749 Q1778.11 393.064 1774.73 393.064 Q1771.35 393.064 1769.41 395.749 Q1767.48 398.411 1767.48 403.11 Z" fill="#000000" fill-rule="evenodd" fill-opacity="1" /><path clip-path="url(#clip580)" d="M 0 0 M1790.73 390.124 L1794.98 390.124 L1794.98 416.05 L1790.73 416.05 L1790.73 390.124 M1790.73 380.031 L1794.98 380.031 L1794.98 385.425 L1790.73 385.425 L1790.73 380.031 Z" fill="#000000" fill-rule="evenodd" fill-opacity="1" /><path clip-path="url(#clip580)" d="M 0 0 M1811.23 403.017 Q1806.07 403.017 1804.08 404.198 Q1802.09 405.378 1802.09 408.226 Q1802.09 410.494 1803.57 411.837 Q1805.08 413.156 1807.65 413.156 Q1811.19 413.156 1813.32 410.656 Q1815.47 408.133 1815.47 403.966 L1815.47 403.017 L1811.23 403.017 M1819.73 401.258 L1819.73 416.05 L1815.47 416.05 L1815.47 412.114 Q1814.01 414.475 1811.84 415.61 Q1809.66 416.721 1806.51 416.721 Q1802.53 416.721 1800.17 414.499 Q1797.83 412.253 1797.83 408.503 Q1797.83 404.128 1800.75 401.906 Q1803.69 399.684 1809.5 399.684 L1815.47 399.684 L1815.47 399.267 Q1815.47 396.327 1813.53 394.73 Q1811.6 393.11 1808.11 393.11 Q1805.89 393.11 1803.78 393.642 Q1801.67 394.175 1799.73 395.239 L1799.73 391.304 Q1802.07 390.402 1804.27 389.962 Q1806.47 389.499 1808.55 389.499 Q1814.17 389.499 1816.95 392.415 Q1819.73 395.332 1819.73 401.258 Z" fill="#000000" fill-rule="evenodd" fill-opacity="1" /><path clip-path="url(#clip580)" d="M 0 0 M1845.75 400.401 L1845.75 416.05 L1841.49 416.05 L1841.49 400.54 Q1841.49 396.86 1840.05 395.031 Q1838.62 393.202 1835.75 393.202 Q1832.3 393.202 1830.31 395.402 Q1828.32 397.601 1828.32 401.397 L1828.32 416.05 L1824.04 416.05 L1824.04 390.124 L1828.32 390.124 L1828.32 394.152 Q1829.85 391.814 1831.91 390.656 Q1833.99 389.499 1836.7 389.499 Q1841.16 389.499 1843.46 392.277 Q1845.75 395.031 1845.75 400.401 Z" fill="#000000" fill-rule="evenodd" fill-opacity="1" /></svg>
