<?xml version="1.0" encoding="utf-8"?>
<svg xmlns="http://www.w3.org/2000/svg" xmlns:xlink="http://www.w3.org/1999/xlink" width="600" height="400" viewBox="0 0 2400 1600">
<defs>
  <clipPath id="clip550">
    <rect x="0" y="0" width="2400" height="1600"/>
  </clipPath>
</defs>
<path clip-path="url(#clip550)" d="
M0 1600 L2400 1600 L2400 0 L0 0  Z
  " fill="#ffffff" fill-rule="evenodd" fill-opacity="1"/>
<defs>
  <clipPath id="clip551">
    <rect x="480" y="0" width="1681" height="1600"/>
  </clipPath>
</defs>
<path clip-path="url(#clip550)" d="
M86.9921 1521.01 L2352.76 1521.01 L2352.76 47.2441 L86.9921 47.2441  Z
  " fill="#ffffff" fill-rule="evenodd" fill-opacity="1"/>
<defs>
  <clipPath id="clip552">
    <rect x="86" y="47" width="2267" height="1475"/>
  </clipPath>
</defs>
<polyline clip-path="url(#clip552)" style="stroke:#000000; stroke-width:2; stroke-opacity:0.1; fill:none" points="
  450.326,1521.01 450.326,47.2441 
  "/>
<polyline clip-path="url(#clip552)" style="stroke:#000000; stroke-width:2; stroke-opacity:0.1; fill:none" points="
  945.322,1521.01 945.322,47.2441 
  "/>
<polyline clip-path="url(#clip552)" style="stroke:#000000; stroke-width:2; stroke-opacity:0.1; fill:none" points="
  1440.32,1521.01 1440.32,47.2441 
  "/>
<polyline clip-path="url(#clip552)" style="stroke:#000000; stroke-width:2; stroke-opacity:0.1; fill:none" points="
  1935.31,1521.01 1935.31,47.2441 
  "/>
<polyline clip-path="url(#clip552)" style="stroke:#000000; stroke-width:2; stroke-opacity:0.1; fill:none" points="
  86.9921,1479.3 2352.76,1479.3 
  "/>
<polyline clip-path="url(#clip552)" style="stroke:#000000; stroke-width:2; stroke-opacity:0.1; fill:none" points="
  86.9921,1115.03 2352.76,1115.03 
  "/>
<polyline clip-path="url(#clip552)" style="stroke:#000000; stroke-width:2; stroke-opacity:0.1; fill:none" points="
  86.9921,750.76 2352.76,750.76 
  "/>
<polyline clip-path="url(#clip552)" style="stroke:#000000; stroke-width:2; stroke-opacity:0.1; fill:none" points="
  86.9921,386.492 2352.76,386.492 
  "/>
<polyline clip-path="url(#clip550)" style="stroke:#000000; stroke-width:4; stroke-opacity:1; fill:none" points="
  86.9921,1521.01 2352.76,1521.01 
  "/>
<polyline clip-path="url(#clip550)" style="stroke:#000000; stroke-width:4; stroke-opacity:1; fill:none" points="
  86.9921,1521.01 86.9921,47.2441 
  "/>
<polyline clip-path="url(#clip550)" style="stroke:#000000; stroke-width:4; stroke-opacity:1; fill:none" points="
  450.326,1521.01 450.326,1503.32 
  "/>
<polyline clip-path="url(#clip550)" style="stroke:#000000; stroke-width:4; stroke-opacity:1; fill:none" points="
  945.322,1521.01 945.322,1503.32 
  "/>
<polyline clip-path="url(#clip550)" style="stroke:#000000; stroke-width:4; stroke-opacity:1; fill:none" points="
  1440.32,1521.01 1440.32,1503.32 
  "/>
<polyline clip-path="url(#clip550)" style="stroke:#000000; stroke-width:4; stroke-opacity:1; fill:none" points="
  1935.31,1521.01 1935.31,1503.32 
  "/>
<polyline clip-path="url(#clip550)" style="stroke:#000000; stroke-width:4; stroke-opacity:1; fill:none" points="
  86.9921,1479.3 114.181,1479.3 
  "/>
<polyline clip-path="url(#clip550)" style="stroke:#000000; stroke-width:4; stroke-opacity:1; fill:none" points="
  86.9921,1115.03 114.181,1115.03 
  "/>
<polyline clip-path="url(#clip550)" style="stroke:#000000; stroke-width:4; stroke-opacity:1; fill:none" points="
  86.9921,750.76 114.181,750.76 
  "/>
<polyline clip-path="url(#clip550)" style="stroke:#000000; stroke-width:4; stroke-opacity:1; fill:none" points="
  86.9921,386.492 114.181,386.492 
  "/>
<path clip-path="url(#clip550)" d="M 0 0 M419.446 1543 Q415.835 1543 414.006 1546.56 Q412.201 1550.11 412.201 1557.23 Q412.201 1564.34 414.006 1567.91 Q415.835 1571.45 419.446 1571.45 Q423.08 1571.45 424.886 1567.91 Q426.715 1564.34 426.715 1557.23 Q426.715 1550.11 424.886 1546.56 Q423.08 1543 419.446 1543 M419.446 1539.29 Q425.256 1539.29 428.312 1543.9 Q431.39 1548.48 431.39 1557.23 Q431.39 1565.96 428.312 1570.57 Q425.256 1575.15 419.446 1575.15 Q413.636 1575.15 410.557 1570.57 Q407.502 1565.96 407.502 1557.23 Q407.502 1548.48 410.557 1543.9 Q413.636 1539.29 419.446 1539.29 Z" fill="#000000" fill-rule="evenodd" fill-opacity="1" /><path clip-path="url(#clip550)" d="M 0 0 M436.46 1568.6 L441.344 1568.6 L441.344 1574.48 L436.46 1574.48 L436.46 1568.6 Z" fill="#000000" fill-rule="evenodd" fill-opacity="1" /><path clip-path="url(#clip550)" d="M 0 0 M447.224 1570.54 L454.863 1570.54 L454.863 1544.18 L446.552 1545.85 L446.552 1541.59 L454.816 1539.92 L459.492 1539.92 L459.492 1570.54 L467.131 1570.54 L467.131 1574.48 L447.224 1574.48 L447.224 1570.54 Z" fill="#000000" fill-rule="evenodd" fill-opacity="1" /><path clip-path="url(#clip550)" d="M 0 0 M472.247 1539.92 L490.603 1539.92 L490.603 1543.86 L476.529 1543.86 L476.529 1552.33 Q477.548 1551.98 478.566 1551.82 Q479.585 1551.63 480.603 1551.63 Q486.39 1551.63 489.77 1554.8 Q493.149 1557.98 493.149 1563.39 Q493.149 1568.97 489.677 1572.07 Q486.205 1575.15 479.886 1575.15 Q477.71 1575.15 475.441 1574.78 Q473.196 1574.41 470.788 1573.67 L470.788 1568.97 Q472.872 1570.1 475.094 1570.66 Q477.316 1571.22 479.793 1571.22 Q483.798 1571.22 486.136 1569.11 Q488.473 1567 488.473 1563.39 Q488.473 1559.78 486.136 1557.67 Q483.798 1555.57 479.793 1555.57 Q477.918 1555.57 476.043 1555.98 Q474.191 1556.4 472.247 1557.28 L472.247 1539.92 Z" fill="#000000" fill-rule="evenodd" fill-opacity="1" /><path clip-path="url(#clip550)" d="M 0 0 M913.991 1543 Q910.38 1543 908.551 1546.56 Q906.746 1550.11 906.746 1557.23 Q906.746 1564.34 908.551 1567.91 Q910.38 1571.45 913.991 1571.45 Q917.625 1571.45 919.431 1567.91 Q921.259 1564.34 921.259 1557.23 Q921.259 1550.11 919.431 1546.56 Q917.625 1543 913.991 1543 M913.991 1539.29 Q919.801 1539.29 922.857 1543.9 Q925.935 1548.48 925.935 1557.23 Q925.935 1565.96 922.857 1570.57 Q919.801 1575.15 913.991 1575.15 Q908.181 1575.15 905.102 1570.57 Q902.047 1565.96 902.047 1557.23 Q902.047 1548.48 905.102 1543.9 Q908.181 1539.29 913.991 1539.29 Z" fill="#000000" fill-rule="evenodd" fill-opacity="1" /><path clip-path="url(#clip550)" d="M 0 0 M931.005 1568.6 L935.889 1568.6 L935.889 1574.48 L931.005 1574.48 L931.005 1568.6 Z" fill="#000000" fill-rule="evenodd" fill-opacity="1" /><path clip-path="url(#clip550)" d="M 0 0 M941.769 1570.54 L949.407 1570.54 L949.407 1544.18 L941.097 1545.85 L941.097 1541.59 L949.361 1539.92 L954.037 1539.92 L954.037 1570.54 L961.676 1570.54 L961.676 1574.48 L941.769 1574.48 L941.769 1570.54 Z" fill="#000000" fill-rule="evenodd" fill-opacity="1" /><path clip-path="url(#clip550)" d="M 0 0 M976.745 1558.07 Q973.412 1558.07 971.491 1559.85 Q969.592 1561.63 969.592 1564.76 Q969.592 1567.88 971.491 1569.67 Q973.412 1571.45 976.745 1571.45 Q980.079 1571.45 982 1569.67 Q983.921 1567.86 983.921 1564.76 Q983.921 1561.63 982 1559.85 Q980.102 1558.07 976.745 1558.07 M972.069 1556.08 Q969.06 1555.34 967.37 1553.28 Q965.704 1551.22 965.704 1548.25 Q965.704 1544.11 968.643 1541.7 Q971.606 1539.29 976.745 1539.29 Q981.907 1539.29 984.847 1541.7 Q987.787 1544.11 987.787 1548.25 Q987.787 1551.22 986.097 1553.28 Q984.43 1555.34 981.444 1556.08 Q984.824 1556.86 986.699 1559.16 Q988.597 1561.45 988.597 1564.76 Q988.597 1569.78 985.518 1572.47 Q982.463 1575.15 976.745 1575.15 Q971.028 1575.15 967.949 1572.47 Q964.893 1569.78 964.893 1564.76 Q964.893 1561.45 966.792 1559.16 Q968.69 1556.86 972.069 1556.08 M970.356 1548.69 Q970.356 1551.38 972.023 1552.88 Q973.713 1554.39 976.745 1554.39 Q979.754 1554.39 981.444 1552.88 Q983.157 1551.38 983.157 1548.69 Q983.157 1546.01 981.444 1544.5 Q979.754 1543 976.745 1543 Q973.713 1543 972.023 1544.5 Q970.356 1546.01 970.356 1548.69 Z" fill="#000000" fill-rule="evenodd" fill-opacity="1" /><path clip-path="url(#clip550)" d="M 0 0 M1409.74 1543 Q1406.13 1543 1404.3 1546.56 Q1402.49 1550.11 1402.49 1557.23 Q1402.49 1564.34 1404.3 1567.91 Q1406.13 1571.45 1409.74 1571.45 Q1413.37 1571.45 1415.18 1567.91 Q1417.01 1564.34 1417.01 1557.23 Q1417.01 1550.11 1415.18 1546.56 Q1413.37 1543 1409.74 1543 M1409.74 1539.29 Q1415.55 1539.29 1418.61 1543.9 Q1421.68 1548.48 1421.68 1557.23 Q1421.68 1565.96 1418.61 1570.57 Q1415.55 1575.15 1409.74 1575.15 Q1403.93 1575.15 1400.85 1570.57 Q1397.8 1565.96 1397.8 1557.23 Q1397.8 1548.48 1400.85 1543.9 Q1403.93 1539.29 1409.74 1539.29 Z" fill="#000000" fill-rule="evenodd" fill-opacity="1" /><path clip-path="url(#clip550)" d="M 0 0 M1426.75 1568.6 L1431.64 1568.6 L1431.64 1574.48 L1426.75 1574.48 L1426.75 1568.6 Z" fill="#000000" fill-rule="evenodd" fill-opacity="1" /><path clip-path="url(#clip550)" d="M 0 0 M1440.73 1570.54 L1457.05 1570.54 L1457.05 1574.48 L1435.11 1574.48 L1435.11 1570.54 Q1437.77 1567.79 1442.36 1563.16 Q1446.96 1558.51 1448.14 1557.17 Q1450.39 1554.64 1451.27 1552.91 Q1452.17 1551.15 1452.17 1549.46 Q1452.17 1546.7 1450.23 1544.97 Q1448.3 1543.23 1445.2 1543.23 Q1443 1543.23 1440.55 1543.99 Q1438.12 1544.76 1435.34 1546.31 L1435.34 1541.59 Q1438.17 1540.45 1440.62 1539.87 Q1443.07 1539.29 1445.11 1539.29 Q1450.48 1539.29 1453.67 1541.98 Q1456.87 1544.67 1456.87 1549.16 Q1456.87 1551.29 1456.06 1553.21 Q1455.27 1555.1 1453.17 1557.7 Q1452.59 1558.37 1449.48 1561.59 Q1446.38 1564.78 1440.73 1570.54 Z" fill="#000000" fill-rule="evenodd" fill-opacity="1" /><path clip-path="url(#clip550)" d="M 0 0 M1462.93 1570.54 L1470.57 1570.54 L1470.57 1544.18 L1462.26 1545.85 L1462.26 1541.59 L1470.53 1539.92 L1475.2 1539.92 L1475.2 1570.54 L1482.84 1570.54 L1482.84 1574.48 L1462.93 1574.48 L1462.93 1570.54 Z" fill="#000000" fill-rule="evenodd" fill-opacity="1" /><path clip-path="url(#clip550)" d="M 0 0 M1903.88 1543 Q1900.27 1543 1898.44 1546.56 Q1896.63 1550.11 1896.63 1557.23 Q1896.63 1564.34 1898.44 1567.91 Q1900.27 1571.45 1903.88 1571.45 Q1907.51 1571.45 1909.32 1567.91 Q1911.15 1564.34 1911.15 1557.23 Q1911.15 1550.11 1909.32 1546.56 Q1907.51 1543 1903.88 1543 M1903.88 1539.29 Q1909.69 1539.29 1912.74 1543.9 Q1915.82 1548.48 1915.82 1557.23 Q1915.82 1565.96 1912.74 1570.57 Q1909.69 1575.15 1903.88 1575.15 Q1898.07 1575.15 1894.99 1570.57 Q1891.93 1565.96 1891.93 1557.23 Q1891.93 1548.48 1894.99 1543.9 Q1898.07 1539.29 1903.88 1539.29 Z" fill="#000000" fill-rule="evenodd" fill-opacity="1" /><path clip-path="url(#clip550)" d="M 0 0 M1920.89 1568.6 L1925.78 1568.6 L1925.78 1574.48 L1920.89 1574.48 L1920.89 1568.6 Z" fill="#000000" fill-rule="evenodd" fill-opacity="1" /><path clip-path="url(#clip550)" d="M 0 0 M1934.87 1570.54 L1951.19 1570.54 L1951.19 1574.48 L1929.25 1574.48 L1929.25 1570.54 Q1931.91 1567.79 1936.49 1563.16 Q1941.1 1558.51 1942.28 1557.17 Q1944.53 1554.64 1945.41 1552.91 Q1946.31 1551.15 1946.31 1549.46 Q1946.31 1546.7 1944.37 1544.97 Q1942.44 1543.23 1939.34 1543.23 Q1937.14 1543.23 1934.69 1543.99 Q1932.26 1544.76 1929.48 1546.31 L1929.48 1541.59 Q1932.3 1540.45 1934.76 1539.87 Q1937.21 1539.29 1939.25 1539.29 Q1944.62 1539.29 1947.81 1541.98 Q1951.01 1544.67 1951.01 1549.16 Q1951.01 1551.29 1950.2 1553.21 Q1949.41 1555.1 1947.3 1557.7 Q1946.73 1558.37 1943.62 1561.59 Q1940.52 1564.78 1934.87 1570.54 Z" fill="#000000" fill-rule="evenodd" fill-opacity="1" /><path clip-path="url(#clip550)" d="M 0 0 M1969.11 1543.99 L1957.3 1562.44 L1969.11 1562.44 L1969.11 1543.99 M1967.88 1539.92 L1973.76 1539.92 L1973.76 1562.44 L1978.69 1562.44 L1978.69 1566.33 L1973.76 1566.33 L1973.76 1574.48 L1969.11 1574.48 L1969.11 1566.33 L1953.51 1566.33 L1953.51 1561.82 L1967.88 1539.92 Z" fill="#000000" fill-rule="evenodd" fill-opacity="1" /><path clip-path="url(#clip550)" d="M 0 0 M51.0477 1465.1 Q47.4367 1465.1 45.608 1468.66 Q43.8024 1472.2 43.8024 1479.33 Q43.8024 1486.44 45.608 1490 Q47.4367 1493.55 51.0477 1493.55 Q54.682 1493.55 56.4875 1490 Q58.3162 1486.44 58.3162 1479.33 Q58.3162 1472.2 56.4875 1468.66 Q54.682 1465.1 51.0477 1465.1 M51.0477 1461.39 Q56.8579 1461.39 59.9134 1466 Q62.9921 1470.58 62.9921 1479.33 Q62.9921 1488.06 59.9134 1492.67 Q56.8579 1497.25 51.0477 1497.25 Q45.2376 1497.25 42.1589 1492.67 Q39.1034 1488.06 39.1034 1479.33 Q39.1034 1470.58 42.1589 1466 Q45.2376 1461.39 51.0477 1461.39 Z" fill="#000000" fill-rule="evenodd" fill-opacity="1" /><path clip-path="url(#clip550)" d="M 0 0 M42.0895 1097.75 L60.4458 1097.75 L60.4458 1101.68 L46.3718 1101.68 L46.3718 1110.16 Q47.3904 1109.81 48.4089 1109.65 Q49.4274 1109.46 50.4459 1109.46 Q56.2329 1109.46 59.6125 1112.63 Q62.9921 1115.8 62.9921 1121.22 Q62.9921 1126.8 59.5199 1129.9 Q56.0477 1132.98 49.7283 1132.98 Q47.5524 1132.98 45.2839 1132.61 Q43.0385 1132.24 40.6311 1131.5 L40.6311 1126.8 Q42.7145 1127.93 44.9367 1128.49 Q47.1589 1129.05 49.6357 1129.05 Q53.6403 1129.05 55.9783 1126.94 Q58.3162 1124.83 58.3162 1121.22 Q58.3162 1117.61 55.9783 1115.5 Q53.6403 1113.4 49.6357 1113.4 Q47.7607 1113.4 45.8857 1113.81 Q44.0339 1114.23 42.0895 1115.11 L42.0895 1097.75 Z" fill="#000000" fill-rule="evenodd" fill-opacity="1" /><path clip-path="url(#clip550)" d="M 0 0 M16.0711 764.105 L23.7099 764.105 L23.7099 737.74 L15.3998 739.406 L15.3998 735.147 L23.6636 733.48 L28.3395 733.48 L28.3395 764.105 L35.9784 764.105 L35.9784 768.04 L16.0711 768.04 L16.0711 764.105 Z" fill="#000000" fill-rule="evenodd" fill-opacity="1" /><path clip-path="url(#clip550)" d="M 0 0 M51.0477 736.559 Q47.4367 736.559 45.608 740.124 Q43.8024 743.666 43.8024 750.795 Q43.8024 757.902 45.608 761.466 Q47.4367 765.008 51.0477 765.008 Q54.682 765.008 56.4875 761.466 Q58.3162 757.902 58.3162 750.795 Q58.3162 743.666 56.4875 740.124 Q54.682 736.559 51.0477 736.559 M51.0477 732.855 Q56.8579 732.855 59.9134 737.462 Q62.9921 742.045 62.9921 750.795 Q62.9921 759.522 59.9134 764.128 Q56.8579 768.712 51.0477 768.712 Q45.2376 768.712 42.1589 764.128 Q39.1034 759.522 39.1034 750.795 Q39.1034 742.045 42.1589 737.462 Q45.2376 732.855 51.0477 732.855 Z" fill="#000000" fill-rule="evenodd" fill-opacity="1" /><path clip-path="url(#clip550)" d="M 0 0 M17.0664 399.837 L24.7053 399.837 L24.7053 373.471 L16.3952 375.138 L16.3952 370.879 L24.659 369.212 L29.3349 369.212 L29.3349 399.837 L36.9737 399.837 L36.9737 403.772 L17.0664 403.772 L17.0664 399.837 Z" fill="#000000" fill-rule="evenodd" fill-opacity="1" /><path clip-path="url(#clip550)" d="M 0 0 M42.0895 369.212 L60.4458 369.212 L60.4458 373.147 L46.3718 373.147 L46.3718 381.619 Q47.3904 381.272 48.4089 381.11 Q49.4274 380.925 50.4459 380.925 Q56.2329 380.925 59.6125 384.096 Q62.9921 387.267 62.9921 392.684 Q62.9921 398.263 59.5199 401.364 Q56.0477 404.443 49.7283 404.443 Q47.5524 404.443 45.2839 404.073 Q43.0385 403.702 40.6311 402.962 L40.6311 398.263 Q42.7145 399.397 44.9367 399.952 Q47.1589 400.508 49.6357 400.508 Q53.6403 400.508 55.9783 398.402 Q58.3162 396.295 58.3162 392.684 Q58.3162 389.073 55.9783 386.966 Q53.6403 384.86 49.6357 384.86 Q47.7607 384.86 45.8857 385.277 Q44.0339 385.693 42.0895 386.573 L42.0895 369.212 Z" fill="#000000" fill-rule="evenodd" fill-opacity="1" /><path clip-path="url(#clip552)" d="
M151.118 1458.51 L155.169 1458.05 L159.22 1457.66 L163.271 1457.33 L167.322 1457.05 L171.373 1456.82 L175.424 1456.62 L179.475 1456.44 L183.526 1456.28 L187.577 1456.1 
  L191.628 1455.89 L195.679 1455.65 L199.73 1455.33 L203.781 1454.94 L207.832 1454.44 L211.883 1453.83 L215.934 1453.08 L219.985 1452.18 L224.036 1451.12 L228.087 1449.89 
  L232.138 1448.48 L236.189 1446.88 L240.24 1445.1 L244.291 1443.13 L248.342 1440.98 L252.393 1438.65 L256.444 1436.17 L260.495 1433.53 L264.546 1430.75 L268.597 1427.86 
  L272.648 1424.87 L276.699 1421.8 L280.75 1418.67 L284.801 1415.51 L288.852 1412.33 L292.903 1409.17 L296.955 1406.03 L301.006 1402.94 L305.057 1399.91 L309.108 1396.95 
  L313.159 1394.08 L317.21 1391.3 L321.261 1388.61 L325.312 1386.02 L329.363 1383.51 L333.414 1381.09 L337.465 1378.73 L341.516 1376.42 L345.567 1374.14 L349.618 1371.88 
  L353.669 1369.59 L357.72 1367.25 L361.771 1364.84 L365.822 1362.32 L369.873 1359.66 L373.924 1356.82 L377.975 1353.78 L382.026 1350.49 L386.077 1346.92 L390.128 1343.05 
  L394.179 1338.85 L398.23 1334.29 L402.281 1329.35 L406.332 1324.01 L410.383 1318.26 L414.434 1312.1 L418.485 1305.51 L422.536 1298.5 L426.587 1291.08 L430.638 1283.27 
  L434.689 1275.1 L438.74 1266.59 L442.792 1257.77 L446.843 1248.7 L450.894 1239.41 L454.945 1229.97 L458.996 1220.43 L463.047 1210.85 L467.098 1201.3 L471.149 1191.84 
  L475.2 1182.52 L479.251 1173.43 L483.302 1164.6 L487.353 1156.1 L491.404 1147.98 L495.455 1140.28 L499.506 1133.03 L503.557 1126.27 L507.608 1120.02 L511.659 1114.27 
  L515.71 1109.05 L519.761 1104.34 L523.812 1100.13 L527.863 1096.4 L531.914 1093.13 L535.965 1090.27 L540.016 1087.8 L544.067 1085.67 L548.118 1083.83 L552.169 1082.25 
  L552.169 1479.3 L548.118 1479.3 L544.067 1479.3 L540.016 1479.3 L535.965 1479.3 L531.914 1479.3 L527.863 1479.3 L523.812 1479.3 L519.761 1479.3 L515.71 1479.3 
  L511.659 1479.3 L507.608 1479.3 L503.557 1479.3 L499.506 1479.3 L495.455 1479.3 L491.404 1479.3 L487.353 1479.3 L483.302 1479.3 L479.251 1479.3 L475.2 1479.3 
  L471.149 1479.3 L467.098 1479.3 L463.047 1479.3 L458.996 1479.3 L454.945 1479.3 L450.894 1479.3 L446.843 1479.3 L442.792 1479.3 L438.74 1479.3 L434.689 1479.3 
  L430.638 1479.3 L426.587 1479.3 L422.536 1479.3 L418.485 1479.3 L414.434 1479.3 L410.383 1479.3 L406.332 1479.3 L402.281 1479.3 L398.23 1479.3 L394.179 1479.3 
  L390.128 1479.3 L386.077 1479.3 L382.026 1479.3 L377.975 1479.3 L373.924 1479.3 L369.873 1479.3 L365.822 1479.3 L361.771 1479.3 L357.72 1479.3 L353.669 1479.3 
  L349.618 1479.3 L345.567 1479.3 L341.516 1479.3 L337.465 1479.3 L333.414 1479.3 L329.363 1479.3 L325.312 1479.3 L321.261 1479.3 L317.21 1479.3 L313.159 1479.3 
  L309.108 1479.3 L305.057 1479.3 L301.006 1479.3 L296.955 1479.3 L292.903 1479.3 L288.852 1479.3 L284.801 1479.3 L280.75 1479.3 L276.699 1479.3 L272.648 1479.3 
  L268.597 1479.3 L264.546 1479.3 L260.495 1479.3 L256.444 1479.3 L252.393 1479.3 L248.342 1479.3 L244.291 1479.3 L240.24 1479.3 L236.189 1479.3 L232.138 1479.3 
  L228.087 1479.3 L224.036 1479.3 L219.985 1479.3 L215.934 1479.3 L211.883 1479.3 L207.832 1479.3 L203.781 1479.3 L199.73 1479.3 L195.679 1479.3 L191.628 1479.3 
  L187.577 1479.3 L183.526 1479.3 L179.475 1479.3 L175.424 1479.3 L171.373 1479.3 L167.322 1479.3 L163.271 1479.3 L159.22 1479.3 L155.169 1479.3 L151.118 1479.3 
   Z
  " fill="#ffa500" fill-rule="evenodd" fill-opacity="0.5"/>
<polyline clip-path="url(#clip552)" style="stroke:#ffa500; stroke-width:4; stroke-opacity:1; fill:none" points="
  151.118,1458.51 155.169,1458.05 159.22,1457.66 163.271,1457.33 167.322,1457.05 171.373,1456.82 175.424,1456.62 179.475,1456.44 183.526,1456.28 187.577,1456.1 
  191.628,1455.89 195.679,1455.65 199.73,1455.33 203.781,1454.94 207.832,1454.44 211.883,1453.83 215.934,1453.08 219.985,1452.18 224.036,1451.12 228.087,1449.89 
  232.138,1448.48 236.189,1446.88 240.24,1445.1 244.291,1443.13 248.342,1440.98 252.393,1438.65 256.444,1436.17 260.495,1433.53 264.546,1430.75 268.597,1427.86 
  272.648,1424.87 276.699,1421.8 280.75,1418.67 284.801,1415.51 288.852,1412.33 292.903,1409.17 296.955,1406.03 301.006,1402.94 305.057,1399.91 309.108,1396.95 
  313.159,1394.08 317.21,1391.3 321.261,1388.61 325.312,1386.02 329.363,1383.51 333.414,1381.09 337.465,1378.73 341.516,1376.42 345.567,1374.14 349.618,1371.88 
  353.669,1369.59 357.72,1367.25 361.771,1364.84 365.822,1362.32 369.873,1359.66 373.924,1356.82 377.975,1353.78 382.026,1350.49 386.077,1346.92 390.128,1343.05 
  394.179,1338.85 398.23,1334.29 402.281,1329.35 406.332,1324.01 410.383,1318.26 414.434,1312.1 418.485,1305.51 422.536,1298.5 426.587,1291.08 430.638,1283.27 
  434.689,1275.1 438.74,1266.59 442.792,1257.77 446.843,1248.7 450.894,1239.41 454.945,1229.97 458.996,1220.43 463.047,1210.85 467.098,1201.3 471.149,1191.84 
  475.2,1182.52 479.251,1173.43 483.302,1164.6 487.353,1156.1 491.404,1147.98 495.455,1140.28 499.506,1133.03 503.557,1126.27 507.608,1120.02 511.659,1114.27 
  515.71,1109.05 519.761,1104.34 523.812,1100.13 527.863,1096.4 531.914,1093.13 535.965,1090.27 540.016,1087.8 544.067,1085.67 548.118,1083.83 552.169,1082.25 
  
  "/>
<path clip-path="url(#clip552)" d="
M552.169 1082.25 L564.202 1078.52 L576.235 1075.3 L588.267 1071.39 L600.3 1065.86 L612.333 1057.98 L624.365 1047.34 L636.398 1033.73 L648.431 1017.16 L660.463 997.757 
  L672.496 975.776 L684.529 951.589 L696.561 925.737 L708.594 898.953 L720.627 872.146 L732.66 846.302 L744.692 822.347 L756.725 800.987 L768.758 782.608 L780.79 767.239 
  L792.823 754.59 L804.856 744.115 L816.888 735.073 L828.921 726.55 L840.954 717.482 L852.986 706.71 L865.019 693.102 L877.052 675.759 L889.084 654.247 L901.117 628.779 
  L913.15 600.264 L925.182 570.187 L937.215 540.329 L949.248 512.403 L961.281 487.715 L973.313 466.937 L985.346 450.047 L997.379 436.429 L1009.41 425.097 L1021.44 414.96 
  L1033.48 405.065 L1045.51 394.757 L1057.54 383.735 L1069.57 372.008 L1081.61 359.78 L1093.64 347.299 L1105.67 334.729 L1117.71 322.065 L1129.74 309.13 L1141.77 295.639 
  L1153.8 281.3 L1165.84 265.916 L1177.87 249.45 L1189.9 232.033 L1201.93 213.918 L1213.97 195.415 L1226 176.827 L1238.03 158.456 L1250.06 140.652 L1262.1 123.935 
  L1274.13 109.103 L1286.16 97.3146 L1298.2 90.0486 L1310.23 88.9544 L1322.26 95.5896 L1334.29 111.111 L1346.33 135.997 L1358.36 169.872 L1370.39 211.482 L1382.42 258.825 
  L1394.46 309.4 L1406.49 360.515 L1418.52 409.596 L1430.56 454.456 L1442.59 493.491 L1454.62 525.812 L1466.65 551.31 L1478.69 570.646 L1490.72 585.161 L1502.75 596.688 
  L1514.78 607.282 L1526.82 618.901 L1538.85 633.087 L1550.88 650.727 L1562.91 671.929 L1574.95 696.041 L1586.98 721.787 L1599.01 747.504 L1611.05 771.439 L1623.08 792.097 
  L1635.11 808.576 L1647.14 820.851 L1659.18 829.923 L1671.21 837.742 L1683.24 846.898 L1695.27 860.099 L1707.31 879.575 L1719.34 906.568 L1731.37 941.057 L1743.4 981.806 
  L1743.4 1479.3 L1731.37 1479.3 L1719.34 1479.3 L1707.31 1479.3 L1695.27 1479.3 L1683.24 1479.3 L1671.21 1479.3 L1659.18 1479.3 L1647.14 1479.3 L1635.11 1479.3 
  L1623.08 1479.3 L1611.05 1479.3 L1599.01 1479.3 L1586.98 1479.3 L1574.95 1479.3 L1562.91 1479.3 L1550.88 1479.3 L1538.85 1479.3 L1526.82 1479.3 L1514.78 1479.3 
  L1502.75 1479.3 L1490.72 1479.3 L1478.69 1479.3 L1466.65 1479.3 L1454.62 1479.3 L1442.59 1479.3 L1430.56 1479.3 L1418.52 1479.3 L1406.49 1479.3 L1394.46 1479.3 
  L1382.42 1479.3 L1370.39 1479.3 L1358.36 1479.3 L1346.33 1479.3 L1334.29 1479.3 L1322.26 1479.3 L1310.23 1479.3 L1298.2 1479.3 L1286.16 1479.3 L1274.13 1479.3 
  L1262.1 1479.3 L1250.06 1479.3 L1238.03 1479.3 L1226 1479.3 L1213.97 1479.3 L1201.93 1479.3 L1189.9 1479.3 L1177.87 1479.3 L1165.84 1479.3 L1153.8 1479.3 
  L1141.77 1479.3 L1129.74 1479.3 L1117.71 1479.3 L1105.67 1479.3 L1093.64 1479.3 L1081.61 1479.3 L1069.57 1479.3 L1057.54 1479.3 L1045.51 1479.3 L1033.48 1479.3 
  L1021.44 1479.3 L1009.41 1479.3 L997.379 1479.3 L985.346 1479.3 L973.313 1479.3 L961.281 1479.3 L949.248 1479.3 L937.215 1479.3 L925.182 1479.3 L913.15 1479.3 
  L901.117 1479.3 L889.084 1479.3 L877.052 1479.3 L865.019 1479.3 L852.986 1479.3 L840.954 1479.3 L828.921 1479.3 L816.888 1479.3 L804.856 1479.3 L792.823 1479.3 
  L780.79 1479.3 L768.758 1479.3 L756.725 1479.3 L744.692 1479.3 L732.66 1479.3 L720.627 1479.3 L708.594 1479.3 L696.561 1479.3 L684.529 1479.3 L672.496 1479.3 
  L660.463 1479.3 L648.431 1479.3 L636.398 1479.3 L624.365 1479.3 L612.333 1479.3 L600.3 1479.3 L588.267 1479.3 L576.235 1479.3 L564.202 1479.3 L552.169 1479.3 
   Z
  " fill="#008000" fill-rule="evenodd" fill-opacity="0.5"/>
<polyline clip-path="url(#clip552)" style="stroke:#008000; stroke-width:4; stroke-opacity:1; fill:none" points="
  552.169,1082.25 564.202,1078.52 576.235,1075.3 588.267,1071.39 600.3,1065.86 612.333,1057.98 624.365,1047.34 636.398,1033.73 648.431,1017.16 660.463,997.757 
  672.496,975.776 684.529,951.589 696.561,925.737 708.594,898.953 720.627,872.146 732.66,846.302 744.692,822.347 756.725,800.987 768.758,782.608 780.79,767.239 
  792.823,754.59 804.856,744.115 816.888,735.073 828.921,726.55 840.954,717.482 852.986,706.71 865.019,693.102 877.052,675.759 889.084,654.247 901.117,628.779 
  913.15,600.264 925.182,570.187 937.215,540.329 949.248,512.403 961.281,487.715 973.313,466.937 985.346,450.047 997.379,436.429 1009.41,425.097 1021.44,414.96 
  1033.48,405.065 1045.51,394.757 1057.54,383.735 1069.57,372.008 1081.61,359.78 1093.64,347.299 1105.67,334.729 1117.71,322.065 1129.74,309.13 1141.77,295.639 
  1153.8,281.3 1165.84,265.916 1177.87,249.45 1189.9,232.033 1201.93,213.918 1213.97,195.415 1226,176.827 1238.03,158.456 1250.06,140.652 1262.1,123.935 
  1274.13,109.103 1286.16,97.3146 1298.2,90.0486 1310.23,88.9544 1322.26,95.5896 1334.29,111.111 1346.33,135.997 1358.36,169.872 1370.39,211.482 1382.42,258.825 
  1394.46,309.4 1406.49,360.515 1418.52,409.596 1430.56,454.456 1442.59,493.491 1454.62,525.812 1466.65,551.31 1478.69,570.646 1490.72,585.161 1502.75,596.688 
  1514.78,607.282 1526.82,618.901 1538.85,633.087 1550.88,650.727 1562.91,671.929 1574.95,696.041 1586.98,721.787 1599.01,747.504 1611.05,771.439 1623.08,792.097 
  1635.11,808.576 1647.14,820.851 1659.18,829.923 1671.21,837.742 1683.24,846.898 1695.27,860.099 1707.31,879.575 1719.34,906.568 1731.37,941.057 1743.4,981.806 
  
  "/>
<path clip-path="url(#clip552)" d="
M1743.4 981.806 L1748.91 1001.98 L1754.42 1022.8 L1759.93 1043.99 L1765.43 1065.34 L1770.94 1086.61 L1776.45 1107.6 L1781.96 1128.13 L1787.46 1148.06 L1792.97 1167.28 
  L1798.48 1185.71 L1803.99 1203.28 L1809.49 1219.97 L1815 1235.77 L1820.51 1250.68 L1826.01 1264.71 L1831.52 1277.89 L1837.03 1290.22 L1842.54 1301.73 L1848.04 1312.44 
  L1853.55 1322.34 L1859.06 1331.45 L1864.57 1339.76 L1870.07 1347.27 L1875.58 1353.99 L1881.09 1359.9 L1886.6 1365.02 L1892.1 1369.34 L1897.61 1372.88 L1903.12 1375.66 
  L1908.62 1377.69 L1914.13 1379.01 L1919.64 1379.66 L1925.15 1379.69 L1930.65 1379.15 L1936.16 1378.11 L1941.67 1376.62 L1947.18 1374.76 L1952.68 1372.61 L1958.19 1370.25 
  L1963.7 1367.77 L1969.21 1365.24 L1974.71 1362.75 L1980.22 1360.39 L1985.73 1358.23 L1991.23 1356.35 L1996.74 1354.8 L2002.25 1353.65 L2007.76 1352.95 L2013.26 1352.73 
  L2018.77 1353 L2024.28 1353.8 L2029.79 1355.11 L2035.29 1356.92 L2040.8 1359.21 L2046.31 1361.97 L2051.82 1365.13 L2057.32 1368.68 L2062.83 1372.55 L2068.34 1376.7 
  L2073.84 1381.08 L2079.35 1385.63 L2084.86 1390.31 L2090.37 1395.05 L2095.87 1399.82 L2101.38 1404.56 L2106.89 1409.23 L2112.4 1413.78 L2117.9 1418.18 L2123.41 1422.39 
  L2128.92 1426.38 L2134.43 1430.12 L2139.93 1433.59 L2145.44 1436.77 L2150.95 1439.64 L2156.45 1442.21 L2161.96 1444.46 L2167.47 1446.4 L2172.98 1448.03 L2178.48 1449.36 
  L2183.99 1450.41 L2189.5 1451.19 L2195.01 1451.71 L2200.51 1452 L2206.02 1452.08 L2211.53 1451.97 L2217.04 1451.71 L2222.54 1451.31 L2228.05 1450.82 L2233.56 1450.27 
  L2239.06 1449.69 L2244.57 1449.11 L2250.08 1448.59 L2255.59 1448.15 L2261.09 1447.82 L2266.6 1447.65 L2272.11 1447.66 L2277.62 1447.87 L2283.12 1448.3 L2288.63 1448.96 
  L2288.63 1479.3 L2283.12 1479.3 L2277.62 1479.3 L2272.11 1479.3 L2266.6 1479.3 L2261.09 1479.3 L2255.59 1479.3 L2250.08 1479.3 L2244.57 1479.3 L2239.06 1479.3 
  L2233.56 1479.3 L2228.05 1479.3 L2222.54 1479.3 L2217.04 1479.3 L2211.53 1479.3 L2206.02 1479.3 L2200.51 1479.3 L2195.01 1479.3 L2189.5 1479.3 L2183.99 1479.3 
  L2178.48 1479.3 L2172.98 1479.3 L2167.47 1479.3 L2161.96 1479.3 L2156.45 1479.3 L2150.95 1479.3 L2145.44 1479.3 L2139.93 1479.3 L2134.43 1479.3 L2128.92 1479.3 
  L2123.41 1479.3 L2117.9 1479.3 L2112.4 1479.3 L2106.89 1479.3 L2101.38 1479.3 L2095.87 1479.3 L2090.37 1479.3 L2084.86 1479.3 L2079.35 1479.3 L2073.84 1479.3 
  L2068.34 1479.3 L2062.83 1479.3 L2057.32 1479.3 L2051.82 1479.3 L2046.31 1479.3 L2040.8 1479.3 L2035.29 1479.3 L2029.79 1479.3 L2024.28 1479.3 L2018.77 1479.3 
  L2013.26 1479.3 L2007.76 1479.3 L2002.25 1479.3 L1996.74 1479.3 L1991.23 1479.3 L1985.73 1479.3 L1980.22 1479.3 L1974.71 1479.3 L1969.21 1479.3 L1963.7 1479.3 
  L1958.19 1479.3 L1952.68 1479.3 L1947.18 1479.3 L1941.67 1479.3 L1936.16 1479.3 L1930.65 1479.3 L1925.15 1479.3 L1919.64 1479.3 L1914.13 1479.3 L1908.62 1479.3 
  L1903.12 1479.3 L1897.61 1479.3 L1892.1 1479.3 L1886.6 1479.3 L1881.09 1479.3 L1875.58 1479.3 L1870.07 1479.3 L1864.57 1479.3 L1859.06 1479.3 L1853.55 1479.3 
  L1848.04 1479.3 L1842.54 1479.3 L1837.03 1479.3 L1831.52 1479.3 L1826.01 1479.3 L1820.51 1479.3 L1815 1479.3 L1809.49 1479.3 L1803.99 1479.3 L1798.48 1479.3 
  L1792.97 1479.3 L1787.46 1479.3 L1781.96 1479.3 L1776.45 1479.3 L1770.94 1479.3 L1765.43 1479.3 L1759.93 1479.3 L1754.42 1479.3 L1748.91 1479.3 L1743.4 1479.3 
   Z
  " fill="#ffa500" fill-rule="evenodd" fill-opacity="0.5"/>
<polyline clip-path="url(#clip552)" style="stroke:#ffa500; stroke-width:4; stroke-opacity:1; fill:none" points="
  1743.4,981.806 1748.91,1001.98 1754.42,1022.8 1759.93,1043.99 1765.43,1065.34 1770.94,1086.61 1776.45,1107.6 1781.96,1128.13 1787.46,1148.06 1792.97,1167.28 
  1798.48,1185.71 1803.99,1203.28 1809.49,1219.97 1815,1235.77 1820.51,1250.68 1826.01,1264.71 1831.52,1277.89 1837.03,1290.22 1842.54,1301.73 1848.04,1312.44 
  1853.55,1322.34 1859.06,1331.45 1864.57,1339.76 1870.07,1347.27 1875.58,1353.99 1881.09,1359.9 1886.6,1365.02 1892.1,1369.34 1897.61,1372.88 1903.12,1375.66 
  1908.62,1377.69 1914.13,1379.01 1919.64,1379.66 1925.15,1379.69 1930.65,1379.15 1936.16,1378.11 1941.67,1376.62 1947.18,1374.76 1952.68,1372.61 1958.19,1370.25 
  1963.7,1367.77 1969.21,1365.24 1974.71,1362.75 1980.22,1360.39 1985.73,1358.23 1991.23,1356.35 1996.74,1354.8 2002.25,1353.65 2007.76,1352.95 2013.26,1352.73 
  2018.77,1353 2024.28,1353.8 2029.79,1355.11 2035.29,1356.92 2040.8,1359.21 2046.31,1361.97 2051.82,1365.13 2057.32,1368.68 2062.83,1372.55 2068.34,1376.7 
  2073.84,1381.08 2079.35,1385.63 2084.86,1390.31 2090.37,1395.05 2095.87,1399.82 2101.38,1404.56 2106.89,1409.23 2112.4,1413.78 2117.9,1418.18 2123.41,1422.39 
  2128.92,1426.38 2134.43,1430.12 2139.93,1433.59 2145.44,1436.77 2150.95,1439.64 2156.45,1442.21 2161.96,1444.46 2167.47,1446.4 2172.98,1448.03 2178.48,1449.36 
  2183.99,1450.41 2189.5,1451.19 2195.01,1451.71 2200.51,1452 2206.02,1452.08 2211.53,1451.97 2217.04,1451.71 2222.54,1451.31 2228.05,1450.82 2233.56,1450.27 
  2239.06,1449.69 2244.57,1449.11 2250.08,1448.59 2255.59,1448.15 2261.09,1447.82 2266.6,1447.65 2272.11,1447.66 2277.62,1447.87 2283.12,1448.3 2288.63,1448.96 
  
  "/>
<polyline clip-path="url(#clip552)" style="stroke:#0000ff; stroke-width:4; stroke-opacity:1; fill:none" points="
  1187.09,1479.3 1187.09,236.18 
  "/>
<polyline clip-path="url(#clip552)" style="stroke:#000000; stroke-width:4; stroke-opacity:1; fill:none" points="
  1206.22,1479.3 1206.22,207.352 
  "/>
<path clip-path="url(#clip550)" d="
M1494.58 459.25 L2277.23 459.25 L2277.23 96.3696 L1494.58 96.3696  Z
  " fill="#ffffff" fill-rule="evenodd" fill-opacity="1"/>
<polyline clip-path="url(#clip550)" style="stroke:#000000; stroke-width:4; stroke-opacity:1; fill:none" points="
  1494.58,459.25 2277.23,459.25 2277.23,96.3696 1494.58,96.3696 1494.58,459.25 
  "/>
<path clip-path="url(#clip550)" d="
M1519.75 181.042 L1670.81 181.042 L1670.81 132.658 L1519.75 132.658 L1519.75 181.042  Z
  " fill="#ffa500" fill-rule="evenodd" fill-opacity="0.5"/>
<polyline clip-path="url(#clip550)" style="stroke:#ffa500; stroke-width:4; stroke-opacity:1; fill:none" points="
  1519.75,132.658 1670.81,132.658 
  "/>
<path clip-path="url(#clip550)" d="M 0 0 M1700.38 161.19 Q1700.38 165.889 1702.3 168.574 Q1704.24 171.236 1707.62 171.236 Q1711 171.236 1712.95 168.574 Q1714.89 165.889 1714.89 161.19 Q1714.89 156.491 1712.95 153.829 Q1711 151.144 1707.62 151.144 Q1704.24 151.144 1702.3 153.829 Q1700.38 156.491 1700.38 161.19 M1714.89 170.241 Q1713.55 172.555 1711.49 173.69 Q1709.45 174.801 1706.58 174.801 Q1701.88 174.801 1698.92 171.051 Q1695.98 167.301 1695.98 161.19 Q1695.98 155.079 1698.92 151.329 Q1701.88 147.579 1706.58 147.579 Q1709.45 147.579 1711.49 148.713 Q1713.55 149.824 1714.89 152.139 L1714.89 148.204 L1719.15 148.204 L1719.15 183.991 L1714.89 183.991 L1714.89 170.241 Z" fill="#000000" fill-rule="evenodd" fill-opacity="1" /><path clip-path="url(#clip550)" d="M 0 0 M1734.22 142.648 Q1730.61 142.648 1728.78 146.213 Q1726.98 149.755 1726.98 156.884 Q1726.98 163.991 1728.78 167.556 Q1730.61 171.097 1734.22 171.097 Q1737.85 171.097 1739.66 167.556 Q1741.49 163.991 1741.49 156.884 Q1741.49 149.755 1739.66 146.213 Q1737.85 142.648 1734.22 142.648 M1734.22 138.945 Q1740.03 138.945 1743.09 143.551 Q1746.17 148.134 1746.17 156.884 Q1746.17 165.611 1743.09 170.218 Q1740.03 174.801 1734.22 174.801 Q1728.41 174.801 1725.33 170.218 Q1722.28 165.611 1722.28 156.884 Q1722.28 148.134 1725.33 143.551 Q1728.41 138.945 1734.22 138.945 Z" fill="#000000" fill-rule="evenodd" fill-opacity="1" /><path clip-path="url(#clip550)" d="M 0 0 M1751.28 139.57 L1769.64 139.57 L1769.64 143.505 L1755.56 143.505 L1755.56 151.977 Q1756.58 151.63 1757.6 151.468 Q1758.62 151.282 1759.64 151.282 Q1765.42 151.282 1768.8 154.454 Q1772.18 157.625 1772.18 163.042 Q1772.18 168.62 1768.71 171.722 Q1765.24 174.801 1758.92 174.801 Q1756.74 174.801 1754.48 174.43 Q1752.23 174.06 1749.82 173.319 L1749.82 168.62 Q1751.91 169.755 1754.13 170.31 Q1756.35 170.866 1758.83 170.866 Q1762.83 170.866 1765.17 168.759 Q1767.51 166.653 1767.51 163.042 Q1767.51 159.431 1765.17 157.324 Q1762.83 155.218 1758.83 155.218 Q1756.95 155.218 1755.08 155.634 Q1753.23 156.051 1751.28 156.931 L1751.28 139.57 Z" fill="#000000" fill-rule="evenodd" fill-opacity="1" /><path clip-path="url(#clip550)" d="
M1519.75 241.522 L1670.81 241.522 L1670.81 193.138 L1519.75 193.138 L1519.75 241.522  Z
  " fill="#008000" fill-rule="evenodd" fill-opacity="0.5"/>
<polyline clip-path="url(#clip550)" style="stroke:#008000; stroke-width:4; stroke-opacity:1; fill:none" points="
  1519.75,193.138 1670.81,193.138 
  "/>
<path clip-path="url(#clip550)" d="M 0 0 M1698.2 233.892 L1698.2 229.633 Q1699.96 230.466 1701.77 230.906 Q1703.57 231.346 1705.31 231.346 Q1709.94 231.346 1712.37 228.244 Q1714.82 225.119 1715.17 218.776 Q1713.83 220.767 1711.77 221.832 Q1709.71 222.897 1707.21 222.897 Q1702.02 222.897 1698.99 219.772 Q1695.98 216.624 1695.98 211.184 Q1695.98 205.86 1699.13 202.642 Q1702.28 199.425 1707.51 199.425 Q1713.5 199.425 1716.65 204.031 Q1719.82 208.614 1719.82 217.364 Q1719.82 225.536 1715.93 230.42 Q1712.07 235.281 1705.52 235.281 Q1703.76 235.281 1701.95 234.934 Q1700.15 234.586 1698.2 233.892 M1707.51 219.239 Q1710.66 219.239 1712.48 217.086 Q1714.34 214.934 1714.34 211.184 Q1714.34 207.457 1712.48 205.304 Q1710.66 203.128 1707.51 203.128 Q1704.36 203.128 1702.51 205.304 Q1700.68 207.457 1700.68 211.184 Q1700.68 214.934 1702.51 217.086 Q1704.36 219.239 1707.51 219.239 Z" fill="#000000" fill-rule="evenodd" fill-opacity="1" /><path clip-path="url(#clip550)" d="M 0 0 M1734.89 203.128 Q1731.28 203.128 1729.45 206.693 Q1727.65 210.235 1727.65 217.364 Q1727.65 224.471 1729.45 228.036 Q1731.28 231.577 1734.89 231.577 Q1738.53 231.577 1740.33 228.036 Q1742.16 224.471 1742.16 217.364 Q1742.16 210.235 1740.33 206.693 Q1738.53 203.128 1734.89 203.128 M1734.89 199.425 Q1740.7 199.425 1743.76 204.031 Q1746.84 208.614 1746.84 217.364 Q1746.84 226.091 1743.76 230.698 Q1740.7 235.281 1734.89 235.281 Q1729.08 235.281 1726 230.698 Q1722.95 226.091 1722.95 217.364 Q1722.95 208.614 1726 204.031 Q1729.08 199.425 1734.89 199.425 Z" fill="#000000" fill-rule="evenodd" fill-opacity="1" /><path clip-path="url(#clip550)" d="M 0 0 M1781.3 219.401 Q1779.29 219.401 1778.13 221.114 Q1777 222.827 1777 225.883 Q1777 228.892 1778.13 230.628 Q1779.29 232.341 1781.3 232.341 Q1783.27 232.341 1784.41 230.628 Q1785.56 228.892 1785.56 225.883 Q1785.56 222.85 1784.41 221.137 Q1783.27 219.401 1781.3 219.401 M1781.3 216.462 Q1784.96 216.462 1787.11 219.008 Q1789.27 221.554 1789.27 225.883 Q1789.27 230.211 1787.09 232.758 Q1784.94 235.281 1781.3 235.281 Q1777.6 235.281 1775.45 232.758 Q1773.29 230.211 1773.29 225.883 Q1773.29 221.531 1775.45 219.008 Q1777.62 216.462 1781.3 216.462 M1757.42 202.364 Q1755.42 202.364 1754.27 204.1 Q1753.13 205.813 1753.13 208.823 Q1753.13 211.878 1754.27 213.591 Q1755.4 215.304 1757.42 215.304 Q1759.43 215.304 1760.56 213.591 Q1761.72 211.878 1761.72 208.823 Q1761.72 205.837 1760.56 204.1 Q1759.41 202.364 1757.42 202.364 M1778.32 199.425 L1782.02 199.425 L1760.4 235.281 L1756.7 235.281 L1778.32 199.425 M1757.42 199.425 Q1761.07 199.425 1763.25 201.971 Q1765.42 204.494 1765.42 208.823 Q1765.42 213.198 1763.25 215.721 Q1761.1 218.244 1757.42 218.244 Q1753.73 218.244 1751.58 215.721 Q1749.45 213.174 1749.45 208.823 Q1749.45 204.517 1751.6 201.971 Q1753.76 199.425 1757.42 199.425 Z" fill="#000000" fill-rule="evenodd" fill-opacity="1" /><path clip-path="url(#clip550)" d="M 0 0 M1830.35 218.961 L1830.35 234.61 L1826.1 234.61 L1826.1 219.1 Q1826.1 215.42 1824.66 213.591 Q1823.22 211.762 1820.35 211.762 Q1816.91 211.762 1814.91 213.962 Q1812.92 216.161 1812.92 219.957 L1812.92 234.61 L1808.64 234.61 L1808.64 208.684 L1812.92 208.684 L1812.92 212.712 Q1814.45 210.374 1816.51 209.216 Q1818.6 208.059 1821.3 208.059 Q1825.77 208.059 1828.06 210.837 Q1830.35 213.591 1830.35 218.961 Z" fill="#000000" fill-rule="evenodd" fill-opacity="1" /><path clip-path="url(#clip550)" d="M 0 0 M1844.87 211.67 Q1841.44 211.67 1839.45 214.355 Q1837.46 217.017 1837.46 221.67 Q1837.46 226.323 1839.43 229.008 Q1841.42 231.67 1844.87 231.67 Q1848.27 231.67 1850.26 228.985 Q1852.25 226.299 1852.25 221.67 Q1852.25 217.063 1850.26 214.378 Q1848.27 211.67 1844.87 211.67 M1844.87 208.059 Q1850.42 208.059 1853.6 211.67 Q1856.77 215.281 1856.77 221.67 Q1856.77 228.036 1853.6 231.67 Q1850.42 235.281 1844.87 235.281 Q1839.29 235.281 1836.12 231.67 Q1832.97 228.036 1832.97 221.67 Q1832.97 215.281 1836.12 211.67 Q1839.29 208.059 1844.87 208.059 Z" fill="#000000" fill-rule="evenodd" fill-opacity="1" /><path clip-path="url(#clip550)" d="M 0 0 M1882.78 218.961 L1882.78 234.61 L1878.53 234.61 L1878.53 219.1 Q1878.53 215.42 1877.09 213.591 Q1875.66 211.762 1872.78 211.762 Q1869.34 211.762 1867.35 213.962 Q1865.35 216.161 1865.35 219.957 L1865.35 234.61 L1861.07 234.61 L1861.07 208.684 L1865.35 208.684 L1865.35 212.712 Q1866.88 210.374 1868.94 209.216 Q1871.03 208.059 1873.73 208.059 Q1878.2 208.059 1880.49 210.837 Q1882.78 213.591 1882.78 218.961 Z" fill="#000000" fill-rule="evenodd" fill-opacity="1" /><path clip-path="url(#clip550)" d="M 0 0 M1885.1 219.725 L1897.58 219.725 L1897.58 223.522 L1885.1 223.522 L1885.1 219.725 Z" fill="#000000" fill-rule="evenodd" fill-opacity="1" /><path clip-path="url(#clip550)" d="M 0 0 M1917.07 212.665 Q1916.35 212.249 1915.49 212.063 Q1914.66 211.855 1913.64 211.855 Q1910.03 211.855 1908.09 214.216 Q1906.16 216.554 1906.16 220.952 L1906.16 234.61 L1901.88 234.61 L1901.88 208.684 L1906.16 208.684 L1906.16 212.712 Q1907.51 210.35 1909.66 209.216 Q1911.81 208.059 1914.89 208.059 Q1915.33 208.059 1915.86 208.128 Q1916.4 208.175 1917.04 208.29 L1917.07 212.665 Z" fill="#000000" fill-rule="evenodd" fill-opacity="1" /><path clip-path="url(#clip550)" d="M 0 0 M1942.67 220.582 L1942.67 222.665 L1923.09 222.665 Q1923.36 227.063 1925.72 229.378 Q1928.11 231.67 1932.34 231.67 Q1934.8 231.67 1937.09 231.068 Q1939.4 230.466 1941.67 229.262 L1941.67 233.29 Q1939.38 234.262 1936.97 234.772 Q1934.57 235.281 1932.09 235.281 Q1925.89 235.281 1922.25 231.67 Q1918.64 228.059 1918.64 221.901 Q1918.64 215.536 1922.07 211.809 Q1925.52 208.059 1931.35 208.059 Q1936.58 208.059 1939.61 211.438 Q1942.67 214.795 1942.67 220.582 M1938.41 219.332 Q1938.36 215.837 1936.44 213.753 Q1934.54 211.67 1931.4 211.67 Q1927.83 211.67 1925.68 213.684 Q1923.55 215.698 1923.22 219.355 L1938.41 219.332 Z" fill="#000000" fill-rule="evenodd" fill-opacity="1" /><path clip-path="url(#clip550)" d="M 0 0 M1947.14 208.684 L1951.4 208.684 L1951.4 235.073 Q1951.4 240.026 1949.5 242.248 Q1947.62 244.471 1943.43 244.471 L1941.81 244.471 L1941.81 240.86 L1942.95 240.86 Q1945.38 240.86 1946.26 239.725 Q1947.14 238.614 1947.14 235.073 L1947.14 208.684 M1947.14 198.591 L1951.4 198.591 L1951.4 203.985 L1947.14 203.985 L1947.14 198.591 Z" fill="#000000" fill-rule="evenodd" fill-opacity="1" /><path clip-path="url(#clip550)" d="M 0 0 M1978.04 220.582 L1978.04 222.665 L1958.46 222.665 Q1958.73 227.063 1961.09 229.378 Q1963.48 231.67 1967.71 231.67 Q1970.17 231.67 1972.46 231.068 Q1974.78 230.466 1977.04 229.262 L1977.04 233.29 Q1974.75 234.262 1972.34 234.772 Q1969.94 235.281 1967.46 235.281 Q1961.26 235.281 1957.62 231.67 Q1954.01 228.059 1954.01 221.901 Q1954.01 215.536 1957.44 211.809 Q1960.89 208.059 1966.72 208.059 Q1971.95 208.059 1974.98 211.438 Q1978.04 214.795 1978.04 220.582 M1973.78 219.332 Q1973.73 215.837 1971.81 213.753 Q1969.91 211.67 1966.77 211.67 Q1963.2 211.67 1961.05 213.684 Q1958.92 215.698 1958.59 219.355 L1973.78 219.332 Z" fill="#000000" fill-rule="evenodd" fill-opacity="1" /><path clip-path="url(#clip550)" d="M 0 0 M2001.16 209.679 L2001.16 213.661 Q1999.36 212.665 1997.53 212.179 Q1995.72 211.67 1993.87 211.67 Q1989.73 211.67 1987.44 214.309 Q1985.15 216.924 1985.15 221.67 Q1985.15 226.415 1987.44 229.054 Q1989.73 231.67 1993.87 231.67 Q1995.72 231.67 1997.53 231.184 Q1999.36 230.674 2001.16 229.679 L2001.16 233.614 Q1999.38 234.448 1997.46 234.864 Q1995.56 235.281 1993.41 235.281 Q1987.55 235.281 1984.1 231.6 Q1980.65 227.92 1980.65 221.67 Q1980.65 215.327 1984.13 211.693 Q1987.62 208.059 1993.69 208.059 Q1995.65 208.059 1997.53 208.475 Q1999.4 208.869 2001.16 209.679 Z" fill="#000000" fill-rule="evenodd" fill-opacity="1" /><path clip-path="url(#clip550)" d="M 0 0 M2009.84 201.323 L2009.84 208.684 L2018.62 208.684 L2018.62 211.994 L2009.84 211.994 L2009.84 226.068 Q2009.84 229.239 2010.7 230.142 Q2011.58 231.045 2014.24 231.045 L2018.62 231.045 L2018.62 234.61 L2014.24 234.61 Q2009.31 234.61 2007.44 232.781 Q2005.56 230.929 2005.56 226.068 L2005.56 211.994 L2002.44 211.994 L2002.44 208.684 L2005.56 208.684 L2005.56 201.323 L2009.84 201.323 Z" fill="#000000" fill-rule="evenodd" fill-opacity="1" /><path clip-path="url(#clip550)" d="M 0 0 M2023.08 208.684 L2027.34 208.684 L2027.34 234.61 L2023.08 234.61 L2023.08 208.684 M2023.08 198.591 L2027.34 198.591 L2027.34 203.985 L2023.08 203.985 L2023.08 198.591 Z" fill="#000000" fill-rule="evenodd" fill-opacity="1" /><path clip-path="url(#clip550)" d="M 0 0 M2041.86 211.67 Q2038.43 211.67 2036.44 214.355 Q2034.45 217.017 2034.45 221.67 Q2034.45 226.323 2036.42 229.008 Q2038.41 231.67 2041.86 231.67 Q2045.26 231.67 2047.25 228.985 Q2049.24 226.299 2049.24 221.67 Q2049.24 217.063 2047.25 214.378 Q2045.26 211.67 2041.86 211.67 M2041.86 208.059 Q2047.41 208.059 2050.58 211.67 Q2053.76 215.281 2053.76 221.67 Q2053.76 228.036 2050.58 231.67 Q2047.41 235.281 2041.86 235.281 Q2036.28 235.281 2033.11 231.67 Q2029.96 228.036 2029.96 221.67 Q2029.96 215.281 2033.11 211.67 Q2036.28 208.059 2041.86 208.059 Z" fill="#000000" fill-rule="evenodd" fill-opacity="1" /><path clip-path="url(#clip550)" d="M 0 0 M2079.77 218.961 L2079.77 234.61 L2075.52 234.61 L2075.52 219.1 Q2075.52 215.42 2074.08 213.591 Q2072.64 211.762 2069.77 211.762 Q2066.33 211.762 2064.33 213.962 Q2062.34 216.161 2062.34 219.957 L2062.34 234.61 L2058.06 234.61 L2058.06 208.684 L2062.34 208.684 L2062.34 212.712 Q2063.87 210.374 2065.93 209.216 Q2068.02 208.059 2070.72 208.059 Q2075.19 208.059 2077.48 210.837 Q2079.77 213.591 2079.77 218.961 Z" fill="#000000" fill-rule="evenodd" fill-opacity="1" /><path clip-path="url(#clip550)" d="M 0 0 M2114.33 212.665 Q2113.62 212.249 2112.76 212.063 Q2111.93 211.855 2110.91 211.855 Q2107.3 211.855 2105.35 214.216 Q2103.43 216.554 2103.43 220.952 L2103.43 234.61 L2099.15 234.61 L2099.15 208.684 L2103.43 208.684 L2103.43 212.712 Q2104.77 210.35 2106.93 209.216 Q2109.08 208.059 2112.16 208.059 Q2112.6 208.059 2113.13 208.128 Q2113.66 208.175 2114.31 208.29 L2114.33 212.665 Z" fill="#000000" fill-rule="evenodd" fill-opacity="1" /><path clip-path="url(#clip550)" d="M 0 0 M2139.94 220.582 L2139.94 222.665 L2120.35 222.665 Q2120.63 227.063 2122.99 229.378 Q2125.38 231.67 2129.61 231.67 Q2132.07 231.67 2134.36 231.068 Q2136.67 230.466 2138.94 229.262 L2138.94 233.29 Q2136.65 234.262 2134.24 234.772 Q2131.83 235.281 2129.36 235.281 Q2123.15 235.281 2119.52 231.67 Q2115.91 228.059 2115.91 221.901 Q2115.91 215.536 2119.33 211.809 Q2122.78 208.059 2128.62 208.059 Q2133.85 208.059 2136.88 211.438 Q2139.94 214.795 2139.94 220.582 M2135.68 219.332 Q2135.63 215.837 2133.71 213.753 Q2131.81 211.67 2128.66 211.67 Q2125.1 211.67 2122.95 213.684 Q2120.82 215.698 2120.49 219.355 L2135.68 219.332 Z" fill="#000000" fill-rule="evenodd" fill-opacity="1" /><path clip-path="url(#clip550)" d="M 0 0 M2161.46 221.346 Q2161.46 216.716 2159.54 214.17 Q2157.64 211.624 2154.2 211.624 Q2150.77 211.624 2148.85 214.17 Q2146.95 216.716 2146.95 221.346 Q2146.95 225.952 2148.85 228.498 Q2150.77 231.045 2154.2 231.045 Q2157.64 231.045 2159.54 228.498 Q2161.46 225.952 2161.46 221.346 M2165.72 231.392 Q2165.72 238.012 2162.78 241.23 Q2159.84 244.471 2153.78 244.471 Q2151.53 244.471 2149.54 244.123 Q2147.55 243.799 2145.68 243.105 L2145.68 238.961 Q2147.55 239.98 2149.38 240.466 Q2151.21 240.952 2153.11 240.952 Q2157.3 240.952 2159.38 238.753 Q2161.46 236.577 2161.46 232.156 L2161.46 230.049 Q2160.14 232.341 2158.08 233.475 Q2156.02 234.61 2153.15 234.61 Q2148.39 234.61 2145.47 230.975 Q2142.55 227.341 2142.55 221.346 Q2142.55 215.327 2145.47 211.693 Q2148.39 208.059 2153.15 208.059 Q2156.02 208.059 2158.08 209.193 Q2160.14 210.327 2161.46 212.619 L2161.46 208.684 L2165.72 208.684 L2165.72 231.392 Z" fill="#000000" fill-rule="evenodd" fill-opacity="1" /><path clip-path="url(#clip550)" d="M 0 0 M2170.19 208.684 L2174.45 208.684 L2174.45 234.61 L2170.19 234.61 L2170.19 208.684 M2170.19 198.591 L2174.45 198.591 L2174.45 203.985 L2170.19 203.985 L2170.19 198.591 Z" fill="#000000" fill-rule="evenodd" fill-opacity="1" /><path clip-path="url(#clip550)" d="M 0 0 M2188.96 211.67 Q2185.54 211.67 2183.55 214.355 Q2181.56 217.017 2181.56 221.67 Q2181.56 226.323 2183.52 229.008 Q2185.51 231.67 2188.96 231.67 Q2192.37 231.67 2194.36 228.985 Q2196.35 226.299 2196.35 221.67 Q2196.35 217.063 2194.36 214.378 Q2192.37 211.67 2188.96 211.67 M2188.96 208.059 Q2194.52 208.059 2197.69 211.67 Q2200.86 215.281 2200.86 221.67 Q2200.86 228.036 2197.69 231.67 Q2194.52 235.281 2188.96 235.281 Q2183.39 235.281 2180.21 231.67 Q2177.07 228.036 2177.07 221.67 Q2177.07 215.281 2180.21 211.67 Q2183.39 208.059 2188.96 208.059 Z" fill="#000000" fill-rule="evenodd" fill-opacity="1" /><path clip-path="url(#clip550)" d="M 0 0 M2226.88 218.961 L2226.88 234.61 L2222.62 234.61 L2222.62 219.1 Q2222.62 215.42 2221.19 213.591 Q2219.75 211.762 2216.88 211.762 Q2213.43 211.762 2211.44 213.962 Q2209.45 216.161 2209.45 219.957 L2209.45 234.61 L2205.17 234.61 L2205.17 208.684 L2209.45 208.684 L2209.45 212.712 Q2210.98 210.374 2213.04 209.216 Q2215.12 208.059 2217.83 208.059 Q2222.3 208.059 2224.59 210.837 Q2226.88 213.591 2226.88 218.961 Z" fill="#000000" fill-rule="evenodd" fill-opacity="1" /><path clip-path="url(#clip550)" d="
M1519.75 302.002 L1670.81 302.002 L1670.81 253.618 L1519.75 253.618 L1519.75 302.002  Z
  " fill="#ffa500" fill-rule="evenodd" fill-opacity="0.5"/>
<polyline clip-path="url(#clip550)" style="stroke:#ffa500; stroke-width:4; stroke-opacity:1; fill:none" points="
  1519.75,253.618 1670.81,253.618 
  "/>
<path clip-path="url(#clip550)" d="M 0 0 M1700.38 282.15 Q1700.38 286.849 1702.3 289.534 Q1704.24 292.196 1707.62 292.196 Q1711 292.196 1712.95 289.534 Q1714.89 286.849 1714.89 282.15 Q1714.89 277.451 1712.95 274.789 Q1711 272.104 1707.62 272.104 Q1704.24 272.104 1702.3 274.789 Q1700.38 277.451 1700.38 282.15 M1714.89 291.201 Q1713.55 293.515 1711.49 294.65 Q1709.45 295.761 1706.58 295.761 Q1701.88 295.761 1698.92 292.011 Q1695.98 288.261 1695.98 282.15 Q1695.98 276.039 1698.92 272.289 Q1701.88 268.539 1706.58 268.539 Q1709.45 268.539 1711.49 269.673 Q1713.55 270.784 1714.89 273.099 L1714.89 269.164 L1719.15 269.164 L1719.15 304.951 L1714.89 304.951 L1714.89 291.201 Z" fill="#000000" fill-rule="evenodd" fill-opacity="1" /><path clip-path="url(#clip550)" d="M 0 0 M1724.36 294.372 L1724.36 290.113 Q1726.12 290.946 1727.92 291.386 Q1729.73 291.826 1731.47 291.826 Q1736.1 291.826 1738.53 288.724 Q1740.98 285.599 1741.33 279.256 Q1739.98 281.247 1737.92 282.312 Q1735.86 283.377 1733.36 283.377 Q1728.18 283.377 1725.15 280.252 Q1722.14 277.104 1722.14 271.664 Q1722.14 266.34 1725.29 263.122 Q1728.43 259.905 1733.67 259.905 Q1739.66 259.905 1742.81 264.511 Q1745.98 269.094 1745.98 277.844 Q1745.98 286.016 1742.09 290.9 Q1738.23 295.761 1731.67 295.761 Q1729.92 295.761 1728.11 295.414 Q1726.3 295.066 1724.36 294.372 M1733.67 279.719 Q1736.81 279.719 1738.64 277.566 Q1740.49 275.414 1740.49 271.664 Q1740.49 267.937 1738.64 265.784 Q1736.81 263.608 1733.67 263.608 Q1730.52 263.608 1728.67 265.784 Q1726.84 267.937 1726.84 271.664 Q1726.84 275.414 1728.67 277.566 Q1730.52 279.719 1733.67 279.719 Z" fill="#000000" fill-rule="evenodd" fill-opacity="1" /><path clip-path="url(#clip550)" d="M 0 0 M1751.1 260.53 L1769.45 260.53 L1769.45 264.465 L1755.38 264.465 L1755.38 272.937 Q1756.4 272.59 1757.42 272.428 Q1758.43 272.242 1759.45 272.242 Q1765.24 272.242 1768.62 275.414 Q1772 278.585 1772 284.002 Q1772 289.58 1768.53 292.682 Q1765.05 295.761 1758.73 295.761 Q1756.56 295.761 1754.29 295.39 Q1752.04 295.02 1749.64 294.279 L1749.64 289.58 Q1751.72 290.715 1753.94 291.27 Q1756.17 291.826 1758.64 291.826 Q1762.65 291.826 1764.98 289.719 Q1767.32 287.613 1767.32 284.002 Q1767.32 280.391 1764.98 278.284 Q1762.65 276.178 1758.64 276.178 Q1756.77 276.178 1754.89 276.594 Q1753.04 277.011 1751.1 277.891 L1751.1 260.53 Z" fill="#000000" fill-rule="evenodd" fill-opacity="1" /><polyline clip-path="url(#clip550)" style="stroke:#0000ff; stroke-width:4; stroke-opacity:1; fill:none" points="
  1519.75,338.29 1670.81,338.29 
  "/>
<path clip-path="url(#clip550)" d="M 0 0 M1716.33 334.621 Q1717.92 331.75 1720.15 330.385 Q1722.37 329.019 1725.38 329.019 Q1729.43 329.019 1731.63 331.866 Q1733.83 334.69 1733.83 339.921 L1733.83 355.57 L1729.54 355.57 L1729.54 340.06 Q1729.54 336.334 1728.23 334.528 Q1726.91 332.722 1724.2 332.722 Q1720.89 332.722 1718.97 334.922 Q1717.04 337.121 1717.04 340.917 L1717.04 355.57 L1712.76 355.57 L1712.76 340.06 Q1712.76 336.31 1711.44 334.528 Q1710.12 332.722 1707.37 332.722 Q1704.11 332.722 1702.18 334.945 Q1700.26 337.144 1700.26 340.917 L1700.26 355.57 L1695.98 355.57 L1695.98 329.644 L1700.26 329.644 L1700.26 333.672 Q1701.72 331.287 1703.76 330.153 Q1705.79 329.019 1708.6 329.019 Q1711.42 329.019 1713.39 330.454 Q1715.38 331.889 1716.33 334.621 Z" fill="#000000" fill-rule="evenodd" fill-opacity="1" /><path clip-path="url(#clip550)" d="M 0 0 M1760.47 341.542 L1760.47 343.625 L1740.89 343.625 Q1741.17 348.023 1743.53 350.338 Q1745.91 352.63 1750.15 352.63 Q1752.6 352.63 1754.89 352.028 Q1757.21 351.426 1759.48 350.222 L1759.48 354.25 Q1757.18 355.222 1754.78 355.732 Q1752.37 356.241 1749.89 356.241 Q1743.69 356.241 1740.05 352.63 Q1736.44 349.019 1736.44 342.861 Q1736.44 336.496 1739.87 332.769 Q1743.32 329.019 1749.15 329.019 Q1754.38 329.019 1757.42 332.398 Q1760.47 335.755 1760.47 341.542 M1756.21 340.292 Q1756.17 336.797 1754.24 334.713 Q1752.35 332.63 1749.2 332.63 Q1745.63 332.63 1743.48 334.644 Q1741.35 336.658 1741.03 340.315 L1756.21 340.292 Z" fill="#000000" fill-rule="evenodd" fill-opacity="1" /><path clip-path="url(#clip550)" d="M 0 0 M1776.72 342.537 Q1771.56 342.537 1769.57 343.718 Q1767.58 344.898 1767.58 347.746 Q1767.58 350.014 1769.06 351.357 Q1770.56 352.676 1773.13 352.676 Q1776.67 352.676 1778.8 350.176 Q1780.96 347.653 1780.96 343.486 L1780.96 342.537 L1776.72 342.537 M1785.22 340.778 L1785.22 355.57 L1780.96 355.57 L1780.96 351.634 Q1779.5 353.995 1777.32 355.13 Q1775.15 356.241 1772 356.241 Q1768.02 356.241 1765.66 354.019 Q1763.32 351.773 1763.32 348.023 Q1763.32 343.648 1766.23 341.426 Q1769.17 339.204 1774.98 339.204 L1780.96 339.204 L1780.96 338.787 Q1780.96 335.847 1779.01 334.25 Q1777.09 332.63 1773.6 332.63 Q1771.37 332.63 1769.27 333.162 Q1767.16 333.695 1765.22 334.759 L1765.22 330.824 Q1767.55 329.922 1769.75 329.482 Q1771.95 329.019 1774.04 329.019 Q1779.66 329.019 1782.44 331.935 Q1785.22 334.852 1785.22 340.778 Z" fill="#000000" fill-rule="evenodd" fill-opacity="1" /><path clip-path="url(#clip550)" d="M 0 0 M1811.23 339.921 L1811.23 355.57 L1806.97 355.57 L1806.97 340.06 Q1806.97 336.38 1805.54 334.551 Q1804.1 332.722 1801.23 332.722 Q1797.79 332.722 1795.79 334.922 Q1793.8 337.121 1793.8 340.917 L1793.8 355.57 L1789.52 355.57 L1789.52 329.644 L1793.8 329.644 L1793.8 333.672 Q1795.33 331.334 1797.39 330.176 Q1799.48 329.019 1802.18 329.019 Q1806.65 329.019 1808.94 331.797 Q1811.23 334.551 1811.23 339.921 Z" fill="#000000" fill-rule="evenodd" fill-opacity="1" /><polyline clip-path="url(#clip550)" style="stroke:#000000; stroke-width:4; stroke-opacity:1; fill:none" points="
  1519.75,398.77 1670.81,398.77 
  "/>
<path clip-path="url(#clip550)" d="M 0 0 M1716.33 395.101 Q1717.92 392.23 1720.15 390.865 Q1722.37 389.499 1725.38 389.499 Q1729.43 389.499 1731.63 392.346 Q1733.83 395.17 1733.83 400.401 L1733.83 416.05 L1729.54 416.05 L1729.54 400.54 Q1729.54 396.814 1728.23 395.008 Q1726.91 393.202 1724.2 393.202 Q1720.89 393.202 1718.97 395.402 Q1717.04 397.601 1717.04 401.397 L1717.04 416.05 L1712.76 416.05 L1712.76 400.54 Q1712.76 396.79 1711.44 395.008 Q1710.12 393.202 1707.37 393.202 Q1704.11 393.202 1702.18 395.425 Q1700.26 397.624 1700.26 401.397 L1700.26 416.05 L1695.98 416.05 L1695.98 390.124 L1700.26 390.124 L1700.26 394.152 Q1701.72 391.767 1703.76 390.633 Q1705.79 389.499 1708.6 389.499 Q1711.42 389.499 1713.39 390.934 Q1715.38 392.369 1716.33 395.101 Z" fill="#000000" fill-rule="evenodd" fill-opacity="1" /><path clip-path="url(#clip550)" d="M 0 0 M1760.47 402.022 L1760.47 404.105 L1740.89 404.105 Q1741.17 408.503 1743.53 410.818 Q1745.91 413.11 1750.15 413.11 Q1752.6 413.11 1754.89 412.508 Q1757.21 411.906 1759.48 410.702 L1759.48 414.73 Q1757.18 415.702 1754.78 416.212 Q1752.37 416.721 1749.89 416.721 Q1743.69 416.721 1740.05 413.11 Q1736.44 409.499 1736.44 403.341 Q1736.44 396.976 1739.87 393.249 Q1743.32 389.499 1749.15 389.499 Q1754.38 389.499 1757.42 392.878 Q1760.47 396.235 1760.47 402.022 M1756.21 400.772 Q1756.17 397.277 1754.24 395.193 Q1752.35 393.11 1749.2 393.11 Q1745.63 393.11 1743.48 395.124 Q1741.35 397.138 1741.03 400.795 L1756.21 400.772 Z" fill="#000000" fill-rule="evenodd" fill-opacity="1" /><path clip-path="url(#clip550)" d="M 0 0 M1782 394.059 L1782 380.031 L1786.26 380.031 L1786.26 416.05 L1782 416.05 L1782 412.161 Q1780.66 414.475 1778.6 415.61 Q1776.56 416.721 1773.69 416.721 Q1768.99 416.721 1766.03 412.971 Q1763.09 409.221 1763.09 403.11 Q1763.09 396.999 1766.03 393.249 Q1768.99 389.499 1773.69 389.499 Q1776.56 389.499 1778.6 390.633 Q1780.66 391.744 1782 394.059 M1767.48 403.11 Q1767.48 407.809 1769.41 410.494 Q1771.35 413.156 1774.73 413.156 Q1778.11 413.156 1780.05 410.494 Q1782 407.809 1782 403.11 Q1782 398.411 1780.05 395.749 Q1778.11 393.064 1774.73 393.064 Q1771.35 393.064 1769.41 395.749 Q1767.48 398.411 1767.48 403.11 Z" fill="#000000" fill-rule="evenodd" fill-opacity="1" /><path clip-path="url(#clip550)" d="M 0 0 M1790.73 390.124 L1794.98 390.124 L1794.98 416.05 L1790.73 416.05 L1790.73 390.124 M1790.73 380.031 L1794.98 380.031 L1794.98 385.425 L1790.73 385.425 L1790.73 380.031 Z" fill="#000000" fill-rule="evenodd" fill-opacity="1" /><path clip-path="url(#clip550)" d="M 0 0 M1811.23 403.017 Q1806.07 403.017 1804.08 404.198 Q1802.09 405.378 1802.09 408.226 Q1802.09 410.494 1803.57 411.837 Q1805.08 413.156 1807.65 413.156 Q1811.19 413.156 1813.32 410.656 Q1815.47 408.133 1815.47 403.966 L1815.47 403.017 L1811.23 403.017 M1819.73 401.258 L1819.73 416.05 L1815.47 416.05 L1815.47 412.114 Q1814.01 414.475 1811.84 415.61 Q1809.66 416.721 1806.51 416.721 Q1802.53 416.721 1800.17 414.499 Q1797.83 412.253 1797.83 408.503 Q1797.83 404.128 1800.75 401.906 Q1803.69 399.684 1809.5 399.684 L1815.47 399.684 L1815.47 399.267 Q1815.47 396.327 1813.53 394.73 Q1811.6 393.11 1808.11 393.11 Q1805.89 393.11 1803.78 393.642 Q1801.67 394.175 1799.73 395.239 L1799.73 391.304 Q1802.07 390.402 1804.27 389.962 Q1806.47 389.499 1808.55 389.499 Q1814.17 389.499 1816.95 392.415 Q1819.73 395.332 1819.73 401.258 Z" fill="#000000" fill-rule="evenodd" fill-opacity="1" /><path clip-path="url(#clip550)" d="M 0 0 M1845.75 400.401 L1845.75 416.05 L1841.49 416.05 L1841.49 400.54 Q1841.49 396.86 1840.05 395.031 Q1838.62 393.202 1835.75 393.202 Q1832.3 393.202 1830.31 395.402 Q1828.32 397.601 1828.32 401.397 L1828.32 416.05 L1824.04 416.05 L1824.04 390.124 L1828.32 390.124 L1828.32 394.152 Q1829.85 391.814 1831.91 390.656 Q1833.99 389.499 1836.7 389.499 Q1841.16 389.499 1843.46 392.277 Q1845.75 395.031 1845.75 400.401 Z" fill="#000000" fill-rule="evenodd" fill-opacity="1" /></svg>
