<?xml version="1.0" encoding="utf-8"?>
<svg xmlns="http://www.w3.org/2000/svg" xmlns:xlink="http://www.w3.org/1999/xlink" width="600" height="400" viewBox="0 0 2400 1600">
<defs>
  <clipPath id="clip700">
    <rect x="0" y="0" width="2400" height="1600"/>
  </clipPath>
</defs>
<path clip-path="url(#clip700)" d="
M0 1600 L2400 1600 L2400 0 L0 0  Z
  " fill="#ffffff" fill-rule="evenodd" fill-opacity="1"/>
<defs>
  <clipPath id="clip701">
    <rect x="480" y="0" width="1681" height="1600"/>
  </clipPath>
</defs>
<path clip-path="url(#clip700)" d="
M86.9921 1521.01 L2352.76 1521.01 L2352.76 47.2441 L86.9921 47.2441  Z
  " fill="#ffffff" fill-rule="evenodd" fill-opacity="1"/>
<defs>
  <clipPath id="clip702">
    <rect x="86" y="47" width="2267" height="1475"/>
  </clipPath>
</defs>
<polyline clip-path="url(#clip702)" style="stroke:#000000; stroke-width:2; stroke-opacity:0.1; fill:none" points="
  150.744,1521.01 150.744,47.2441 
  "/>
<polyline clip-path="url(#clip702)" style="stroke:#000000; stroke-width:2; stroke-opacity:0.1; fill:none" points="
  863.673,1521.01 863.673,47.2441 
  "/>
<polyline clip-path="url(#clip702)" style="stroke:#000000; stroke-width:2; stroke-opacity:0.1; fill:none" points="
  1576.6,1521.01 1576.6,47.2441 
  "/>
<polyline clip-path="url(#clip702)" style="stroke:#000000; stroke-width:2; stroke-opacity:0.1; fill:none" points="
  2289.53,1521.01 2289.53,47.2441 
  "/>
<polyline clip-path="url(#clip702)" style="stroke:#000000; stroke-width:2; stroke-opacity:0.1; fill:none" points="
  86.9921,1479.3 2352.76,1479.3 
  "/>
<polyline clip-path="url(#clip702)" style="stroke:#000000; stroke-width:2; stroke-opacity:0.1; fill:none" points="
  86.9921,1096.42 2352.76,1096.42 
  "/>
<polyline clip-path="url(#clip702)" style="stroke:#000000; stroke-width:2; stroke-opacity:0.1; fill:none" points="
  86.9921,713.551 2352.76,713.551 
  "/>
<polyline clip-path="url(#clip702)" style="stroke:#000000; stroke-width:2; stroke-opacity:0.1; fill:none" points="
  86.9921,330.677 2352.76,330.677 
  "/>
<polyline clip-path="url(#clip700)" style="stroke:#000000; stroke-width:4; stroke-opacity:1; fill:none" points="
  86.9921,1521.01 2352.76,1521.01 
  "/>
<polyline clip-path="url(#clip700)" style="stroke:#000000; stroke-width:4; stroke-opacity:1; fill:none" points="
  86.9921,1521.01 86.9921,47.2441 
  "/>
<polyline clip-path="url(#clip700)" style="stroke:#000000; stroke-width:4; stroke-opacity:1; fill:none" points="
  150.744,1521.01 150.744,1503.32 
  "/>
<polyline clip-path="url(#clip700)" style="stroke:#000000; stroke-width:4; stroke-opacity:1; fill:none" points="
  863.673,1521.01 863.673,1503.32 
  "/>
<polyline clip-path="url(#clip700)" style="stroke:#000000; stroke-width:4; stroke-opacity:1; fill:none" points="
  1576.6,1521.01 1576.6,1503.32 
  "/>
<polyline clip-path="url(#clip700)" style="stroke:#000000; stroke-width:4; stroke-opacity:1; fill:none" points="
  2289.53,1521.01 2289.53,1503.32 
  "/>
<polyline clip-path="url(#clip700)" style="stroke:#000000; stroke-width:4; stroke-opacity:1; fill:none" points="
  86.9921,1479.3 114.181,1479.3 
  "/>
<polyline clip-path="url(#clip700)" style="stroke:#000000; stroke-width:4; stroke-opacity:1; fill:none" points="
  86.9921,1096.42 114.181,1096.42 
  "/>
<polyline clip-path="url(#clip700)" style="stroke:#000000; stroke-width:4; stroke-opacity:1; fill:none" points="
  86.9921,713.551 114.181,713.551 
  "/>
<polyline clip-path="url(#clip700)" style="stroke:#000000; stroke-width:4; stroke-opacity:1; fill:none" points="
  86.9921,330.677 114.181,330.677 
  "/>
<path clip-path="url(#clip700)" d="M 0 0 M154.992 1555.85 Q158.348 1556.56 160.223 1558.83 Q162.122 1561.1 162.122 1564.43 Q162.122 1569.55 158.603 1572.35 Q155.085 1575.15 148.603 1575.15 Q146.427 1575.15 144.112 1574.71 Q141.821 1574.29 139.367 1573.44 L139.367 1568.92 Q141.312 1570.06 143.626 1570.64 Q145.941 1571.22 148.464 1571.22 Q152.862 1571.22 155.154 1569.48 Q157.469 1567.74 157.469 1564.43 Q157.469 1561.38 155.316 1559.67 Q153.186 1557.93 149.367 1557.93 L145.339 1557.93 L145.339 1554.09 L149.552 1554.09 Q153.001 1554.09 154.83 1552.72 Q156.659 1551.33 156.659 1548.74 Q156.659 1546.08 154.761 1544.67 Q152.886 1543.23 149.367 1543.23 Q147.446 1543.23 145.247 1543.65 Q143.048 1544.06 140.409 1544.94 L140.409 1540.78 Q143.071 1540.04 145.386 1539.67 Q147.724 1539.29 149.784 1539.29 Q155.108 1539.29 158.21 1541.73 Q161.311 1544.13 161.311 1548.25 Q161.311 1551.12 159.668 1553.11 Q158.024 1555.08 154.992 1555.85 Z" fill="#000000" fill-rule="evenodd" fill-opacity="1" /><path clip-path="url(#clip700)" d="M 0 0 M866.682 1543.99 L854.877 1562.44 L866.682 1562.44 L866.682 1543.99 M865.456 1539.92 L871.335 1539.92 L871.335 1562.44 L876.266 1562.44 L876.266 1566.33 L871.335 1566.33 L871.335 1574.48 L866.682 1574.48 L866.682 1566.33 L851.081 1566.33 L851.081 1561.82 L865.456 1539.92 Z" fill="#000000" fill-rule="evenodd" fill-opacity="1" /><path clip-path="url(#clip700)" d="M 0 0 M1566.88 1539.92 L1585.24 1539.92 L1585.24 1543.86 L1571.16 1543.86 L1571.16 1552.33 Q1572.18 1551.98 1573.2 1551.82 Q1574.22 1551.63 1575.24 1551.63 Q1581.02 1551.63 1584.4 1554.8 Q1587.78 1557.98 1587.78 1563.39 Q1587.78 1568.97 1584.31 1572.07 Q1580.84 1575.15 1574.52 1575.15 Q1572.34 1575.15 1570.07 1574.78 Q1567.83 1574.41 1565.42 1573.67 L1565.42 1568.97 Q1567.5 1570.1 1569.73 1570.66 Q1571.95 1571.22 1574.43 1571.22 Q1578.43 1571.22 1580.77 1569.11 Q1583.11 1567 1583.11 1563.39 Q1583.11 1559.78 1580.77 1557.67 Q1578.43 1555.57 1574.43 1555.57 Q1572.55 1555.57 1570.68 1555.98 Q1568.82 1556.4 1566.88 1557.28 L1566.88 1539.92 Z" fill="#000000" fill-rule="evenodd" fill-opacity="1" /><path clip-path="url(#clip700)" d="M 0 0 M2289.94 1555.34 Q2286.79 1555.34 2284.94 1557.49 Q2283.11 1559.64 2283.11 1563.39 Q2283.11 1567.12 2284.94 1569.29 Q2286.79 1571.45 2289.94 1571.45 Q2293.08 1571.45 2294.91 1569.29 Q2296.76 1567.12 2296.76 1563.39 Q2296.76 1559.64 2294.91 1557.49 Q2293.08 1555.34 2289.94 1555.34 M2299.22 1540.68 L2299.22 1544.94 Q2297.46 1544.11 2295.65 1543.67 Q2293.87 1543.23 2292.11 1543.23 Q2287.48 1543.23 2285.03 1546.36 Q2282.6 1549.48 2282.25 1555.8 Q2283.62 1553.79 2285.68 1552.72 Q2287.74 1551.63 2290.21 1551.63 Q2295.42 1551.63 2298.43 1554.8 Q2301.46 1557.95 2301.46 1563.39 Q2301.46 1568.72 2298.32 1571.93 Q2295.17 1575.15 2289.94 1575.15 Q2283.94 1575.15 2280.77 1570.57 Q2277.6 1565.96 2277.6 1557.23 Q2277.6 1549.04 2281.49 1544.18 Q2285.38 1539.29 2291.93 1539.29 Q2293.69 1539.29 2295.47 1539.64 Q2297.27 1539.99 2299.22 1540.68 Z" fill="#000000" fill-rule="evenodd" fill-opacity="1" /><path clip-path="url(#clip700)" d="M 0 0 M14.0804 1465.1 Q10.4693 1465.1 8.64057 1468.66 Q6.83502 1472.2 6.83502 1479.33 Q6.83502 1486.44 8.64057 1490 Q10.4693 1493.55 14.0804 1493.55 Q17.7146 1493.55 19.5201 1490 Q21.3488 1486.44 21.3488 1479.33 Q21.3488 1472.2 19.5201 1468.66 Q17.7146 1465.1 14.0804 1465.1 M14.0804 1461.39 Q19.8905 1461.39 22.946 1466 Q26.0247 1470.58 26.0247 1479.33 Q26.0247 1488.06 22.946 1492.67 Q19.8905 1497.25 14.0804 1497.25 Q8.2702 1497.25 5.19151 1492.67 Q2.13597 1488.06 2.13597 1479.33 Q2.13597 1470.58 5.19151 1466 Q8.2702 1461.39 14.0804 1461.39 Z" fill="#000000" fill-rule="evenodd" fill-opacity="1" /><path clip-path="url(#clip700)" d="M 0 0 M31.0941 1490.7 L35.9784 1490.7 L35.9784 1496.58 L31.0941 1496.58 L31.0941 1490.7 Z" fill="#000000" fill-rule="evenodd" fill-opacity="1" /><path clip-path="url(#clip700)" d="M 0 0 M51.0477 1465.1 Q47.4367 1465.1 45.608 1468.66 Q43.8024 1472.2 43.8024 1479.33 Q43.8024 1486.44 45.608 1490 Q47.4367 1493.55 51.0477 1493.55 Q54.682 1493.55 56.4875 1490 Q58.3162 1486.44 58.3162 1479.33 Q58.3162 1472.2 56.4875 1468.66 Q54.682 1465.1 51.0477 1465.1 M51.0477 1461.39 Q56.8579 1461.39 59.9134 1466 Q62.9921 1470.58 62.9921 1479.33 Q62.9921 1488.06 59.9134 1492.67 Q56.8579 1497.25 51.0477 1497.25 Q45.2376 1497.25 42.1589 1492.67 Q39.1034 1488.06 39.1034 1479.33 Q39.1034 1470.58 42.1589 1466 Q45.2376 1461.39 51.0477 1461.39 Z" fill="#000000" fill-rule="evenodd" fill-opacity="1" /><path clip-path="url(#clip700)" d="M 0 0 M15.6776 1082.22 Q12.0665 1082.22 10.2378 1085.79 Q8.43223 1089.33 8.43223 1096.46 Q8.43223 1103.57 10.2378 1107.13 Q12.0665 1110.67 15.6776 1110.67 Q19.3118 1110.67 21.1174 1107.13 Q22.946 1103.57 22.946 1096.46 Q22.946 1089.33 21.1174 1085.79 Q19.3118 1082.22 15.6776 1082.22 M15.6776 1078.52 Q21.4877 1078.52 24.5433 1083.13 Q27.6219 1087.71 27.6219 1096.46 Q27.6219 1105.19 24.5433 1109.79 Q21.4877 1114.38 15.6776 1114.38 Q9.86741 1114.38 6.78872 1109.79 Q3.73318 1105.19 3.73318 1096.46 Q3.73318 1087.71 6.78872 1083.13 Q9.86741 1078.52 15.6776 1078.52 Z" fill="#000000" fill-rule="evenodd" fill-opacity="1" /><path clip-path="url(#clip700)" d="M 0 0 M32.6914 1107.82 L37.5756 1107.82 L37.5756 1113.7 L32.6914 1113.7 L32.6914 1107.82 Z" fill="#000000" fill-rule="evenodd" fill-opacity="1" /><path clip-path="url(#clip700)" d="M 0 0 M46.6728 1109.77 L62.9921 1109.77 L62.9921 1113.7 L41.0478 1113.7 L41.0478 1109.77 Q43.7098 1107.01 48.2931 1102.38 Q52.8996 1097.73 54.0801 1096.39 Q56.3255 1093.87 57.2051 1092.13 Q58.1079 1090.37 58.1079 1088.68 Q58.1079 1085.93 56.1635 1084.19 Q54.2422 1082.45 51.1403 1082.45 Q48.9413 1082.45 46.4876 1083.22 Q44.057 1083.98 41.2793 1085.53 L41.2793 1080.81 Q44.1033 1079.68 46.557 1079.1 Q49.0107 1078.52 51.0477 1078.52 Q56.4181 1078.52 59.6125 1081.2 Q62.8069 1083.89 62.8069 1088.38 Q62.8069 1090.51 61.9968 1092.43 Q61.2097 1094.33 59.1033 1096.92 Q58.5246 1097.59 55.4227 1100.81 Q52.3209 1104.01 46.6728 1109.77 Z" fill="#000000" fill-rule="evenodd" fill-opacity="1" /><path clip-path="url(#clip700)" d="M 0 0 M13.5942 699.349 Q9.98315 699.349 8.15446 702.914 Q6.34891 706.456 6.34891 713.585 Q6.34891 720.692 8.15446 724.256 Q9.98315 727.798 13.5942 727.798 Q17.2285 727.798 19.034 724.256 Q20.8627 720.692 20.8627 713.585 Q20.8627 706.456 19.034 702.914 Q17.2285 699.349 13.5942 699.349 M13.5942 695.646 Q19.4044 695.646 22.4599 700.252 Q25.5386 704.835 25.5386 713.585 Q25.5386 722.312 22.4599 726.919 Q19.4044 731.502 13.5942 731.502 Q7.78409 731.502 4.7054 726.919 Q1.64986 722.312 1.64986 713.585 Q1.64986 704.835 4.7054 700.252 Q7.78409 695.646 13.5942 695.646 Z" fill="#000000" fill-rule="evenodd" fill-opacity="1" /><path clip-path="url(#clip700)" d="M 0 0 M30.608 724.951 L35.4923 724.951 L35.4923 730.831 L30.608 730.831 L30.608 724.951 Z" fill="#000000" fill-rule="evenodd" fill-opacity="1" /><path clip-path="url(#clip700)" d="M 0 0 M53.4088 700.345 L41.6034 718.794 L53.4088 718.794 L53.4088 700.345 M52.182 696.271 L58.0616 696.271 L58.0616 718.794 L62.9921 718.794 L62.9921 722.682 L58.0616 722.682 L58.0616 730.831 L53.4088 730.831 L53.4088 722.682 L37.8071 722.682 L37.8071 718.169 L52.182 696.271 Z" fill="#000000" fill-rule="evenodd" fill-opacity="1" /><path clip-path="url(#clip700)" d="M 0 0 M13.9183 316.476 Q10.3072 316.476 8.47853 320.04 Q6.67298 323.582 6.67298 330.712 Q6.67298 337.818 8.47853 341.383 Q10.3072 344.925 13.9183 344.925 Q17.5526 344.925 19.3581 341.383 Q21.1868 337.818 21.1868 330.712 Q21.1868 323.582 19.3581 320.04 Q17.5526 316.476 13.9183 316.476 M13.9183 312.772 Q19.7285 312.772 22.784 317.378 Q25.8627 321.962 25.8627 330.712 Q25.8627 339.439 22.784 344.045 Q19.7285 348.628 13.9183 348.628 Q8.10816 348.628 5.02947 344.045 Q1.97393 339.439 1.97393 330.712 Q1.97393 321.962 5.02947 317.378 Q8.10816 312.772 13.9183 312.772 Z" fill="#000000" fill-rule="evenodd" fill-opacity="1" /><path clip-path="url(#clip700)" d="M 0 0 M30.9321 342.077 L35.8163 342.077 L35.8163 347.957 L30.9321 347.957 L30.9321 342.077 Z" fill="#000000" fill-rule="evenodd" fill-opacity="1" /><path clip-path="url(#clip700)" d="M 0 0 M51.4644 328.814 Q48.3163 328.814 46.4644 330.966 Q44.6357 333.119 44.6357 336.869 Q44.6357 340.596 46.4644 342.772 Q48.3163 344.925 51.4644 344.925 Q54.6125 344.925 56.4412 342.772 Q58.2931 340.596 58.2931 336.869 Q58.2931 333.119 56.4412 330.966 Q54.6125 328.814 51.4644 328.814 M60.7468 314.161 L60.7468 318.42 Q58.9875 317.587 57.182 317.147 Q55.3996 316.707 53.6403 316.707 Q49.0107 316.707 46.557 319.832 Q44.1265 322.957 43.7793 329.277 Q45.145 327.263 47.2052 326.198 Q49.2653 325.11 51.7422 325.11 Q56.9505 325.11 59.9597 328.281 Q62.9921 331.429 62.9921 336.869 Q62.9921 342.193 59.844 345.411 Q56.6959 348.628 51.4644 348.628 Q45.4691 348.628 42.2978 344.045 Q39.1265 339.439 39.1265 330.712 Q39.1265 322.517 43.0154 317.656 Q46.9042 312.772 53.4551 312.772 Q55.2144 312.772 56.9968 313.119 Q58.8023 313.466 60.7468 314.161 Z" fill="#000000" fill-rule="evenodd" fill-opacity="1" /><path clip-path="url(#clip702)" d="
M151.118 703.321 L151.512 700.428 L151.907 697.536 L152.301 694.645 L152.696 691.756 L153.09 688.867 L153.485 685.98 L153.88 683.093 L154.274 680.209 L154.669 677.325 
  L155.063 674.443 L155.458 671.563 L155.852 668.685 L156.247 665.808 L156.642 662.932 L157.036 660.059 L157.431 657.188 L157.825 654.318 L158.22 651.451 L158.615 648.586 
  L159.009 645.723 L159.404 642.862 L159.798 640.004 L160.193 637.148 L160.587 634.294 L160.982 631.443 L161.377 628.595 L161.771 625.75 L162.166 622.907 L162.56 620.067 
  L162.955 617.23 L163.35 614.396 L163.744 611.565 L164.139 608.737 L164.533 605.912 L164.928 603.091 L165.322 600.273 L165.717 597.458 L166.112 594.647 L166.506 591.84 
  L166.901 589.035 L167.295 586.235 L167.69 583.439 L168.085 580.646 L168.479 577.857 L168.874 575.072 L169.268 572.291 L169.663 569.514 L170.057 566.741 L170.452 563.973 
  L170.847 561.208 L171.241 558.448 L171.636 555.693 L172.03 552.942 L172.425 550.195 L172.82 547.453 L173.214 544.716 L173.609 541.984 L174.003 539.256 L174.398 536.533 
  L174.792 533.815 L175.187 531.102 L175.582 528.394 L175.976 525.692 L176.371 522.994 L176.765 520.302 L177.16 517.615 L177.554 514.933 L177.949 512.257 L178.344 509.586 
  L178.738 506.921 L179.133 504.261 L179.527 501.607 L179.922 498.959 L180.317 496.316 L180.711 493.68 L181.106 491.049 L181.5 488.424 L181.895 485.805 L182.289 483.193 
  L182.684 480.586 L183.079 477.986 L183.473 475.392 L183.868 472.804 L184.262 470.222 L184.657 467.647 L185.052 465.079 L185.446 462.517 L185.841 459.961 L186.235 457.412 
  L186.63 454.87 L187.024 452.334 L187.419 449.806 L187.814 447.284 L188.208 444.769 L188.603 442.261 L188.997 439.76 L189.392 437.266 L189.787 434.779 L190.181 432.299 
  L190.181 1479.3 L189.787 1479.3 L189.392 1479.3 L188.997 1479.3 L188.603 1479.3 L188.208 1479.3 L187.814 1479.3 L187.419 1479.3 L187.024 1479.3 L186.63 1479.3 
  L186.235 1479.3 L185.841 1479.3 L185.446 1479.3 L185.052 1479.3 L184.657 1479.3 L184.262 1479.3 L183.868 1479.3 L183.473 1479.3 L183.079 1479.3 L182.684 1479.3 
  L182.289 1479.3 L181.895 1479.3 L181.5 1479.3 L181.106 1479.3 L180.711 1479.3 L180.317 1479.3 L179.922 1479.3 L179.527 1479.3 L179.133 1479.3 L178.738 1479.3 
  L178.344 1479.3 L177.949 1479.3 L177.554 1479.3 L177.16 1479.3 L176.765 1479.3 L176.371 1479.3 L175.976 1479.3 L175.582 1479.3 L175.187 1479.3 L174.792 1479.3 
  L174.398 1479.3 L174.003 1479.3 L173.609 1479.3 L173.214 1479.3 L172.82 1479.3 L172.425 1479.3 L172.03 1479.3 L171.636 1479.3 L171.241 1479.3 L170.847 1479.3 
  L170.452 1479.3 L170.057 1479.3 L169.663 1479.3 L169.268 1479.3 L168.874 1479.3 L168.479 1479.3 L168.085 1479.3 L167.69 1479.3 L167.295 1479.3 L166.901 1479.3 
  L166.506 1479.3 L166.112 1479.3 L165.717 1479.3 L165.322 1479.3 L164.928 1479.3 L164.533 1479.3 L164.139 1479.3 L163.744 1479.3 L163.35 1479.3 L162.955 1479.3 
  L162.56 1479.3 L162.166 1479.3 L161.771 1479.3 L161.377 1479.3 L160.982 1479.3 L160.587 1479.3 L160.193 1479.3 L159.798 1479.3 L159.404 1479.3 L159.009 1479.3 
  L158.615 1479.3 L158.22 1479.3 L157.825 1479.3 L157.431 1479.3 L157.036 1479.3 L156.642 1479.3 L156.247 1479.3 L155.852 1479.3 L155.458 1479.3 L155.063 1479.3 
  L154.669 1479.3 L154.274 1479.3 L153.88 1479.3 L153.485 1479.3 L153.09 1479.3 L152.696 1479.3 L152.301 1479.3 L151.907 1479.3 L151.512 1479.3 L151.118 1479.3 
   Z
  " fill="#ffa500" fill-rule="evenodd" fill-opacity="0.5"/>
<polyline clip-path="url(#clip702)" style="stroke:#ffa500; stroke-width:4; stroke-opacity:1; fill:none" points="
  151.118,703.321 151.512,700.428 151.907,697.536 152.301,694.645 152.696,691.756 153.09,688.867 153.485,685.98 153.88,683.093 154.274,680.209 154.669,677.325 
  155.063,674.443 155.458,671.563 155.852,668.685 156.247,665.808 156.642,662.932 157.036,660.059 157.431,657.188 157.825,654.318 158.22,651.451 158.615,648.586 
  159.009,645.723 159.404,642.862 159.798,640.004 160.193,637.148 160.587,634.294 160.982,631.443 161.377,628.595 161.771,625.75 162.166,622.907 162.56,620.067 
  162.955,617.23 163.35,614.396 163.744,611.565 164.139,608.737 164.533,605.912 164.928,603.091 165.322,600.273 165.717,597.458 166.112,594.647 166.506,591.84 
  166.901,589.035 167.295,586.235 167.69,583.439 168.085,580.646 168.479,577.857 168.874,575.072 169.268,572.291 169.663,569.514 170.057,566.741 170.452,563.973 
  170.847,561.208 171.241,558.448 171.636,555.693 172.03,552.942 172.425,550.195 172.82,547.453 173.214,544.716 173.609,541.984 174.003,539.256 174.398,536.533 
  174.792,533.815 175.187,531.102 175.582,528.394 175.976,525.692 176.371,522.994 176.765,520.302 177.16,517.615 177.554,514.933 177.949,512.257 178.344,509.586 
  178.738,506.921 179.133,504.261 179.527,501.607 179.922,498.959 180.317,496.316 180.711,493.68 181.106,491.049 181.5,488.424 181.895,485.805 182.289,483.193 
  182.684,480.586 183.079,477.986 183.473,475.392 183.868,472.804 184.262,470.222 184.657,467.647 185.052,465.079 185.446,462.517 185.841,459.961 186.235,457.412 
  186.63,454.87 187.024,452.334 187.419,449.806 187.814,447.284 188.208,444.769 188.603,442.261 188.997,439.76 189.392,437.266 189.787,434.779 190.181,432.299 
  
  "/>
<path clip-path="url(#clip702)" d="
M190.181 432.299 L208.273 327.028 L226.364 240.439 L244.456 174.217 L262.547 128.147 L280.639 100.566 L298.73 88.9544 L316.822 90.5156 L334.914 102.589 L353.005 122.858 
  L371.097 149.373 L389.188 180.441 L407.28 214.495 L425.371 250.004 L443.463 285.477 L461.555 319.558 L479.646 351.167 L497.738 379.637 L515.829 404.788 L533.921 426.898 
  L552.012 446.589 L570.104 464.651 L588.195 481.884 L606.287 498.981 L624.379 516.508 L642.47 534.939 L660.562 554.721 L678.653 576.3 L696.745 600.078 L714.836 626.295 
  L732.928 654.888 L751.019 685.376 L769.111 716.853 L787.203 748.1 L805.294 777.808 L823.386 804.84 L841.477 828.445 L859.569 848.371 L877.66 864.84 L895.752 878.401 
  L913.843 889.736 L931.935 899.479 L950.027 908.102 L968.118 915.889 L986.21 922.987 L1004.3 929.504 L1022.39 935.588 L1040.48 941.489 L1058.58 947.556 L1076.67 954.191 
  L1094.76 961.768 L1112.85 970.549 L1130.94 980.609 L1149.03 991.806 L1167.13 1003.79 L1185.22 1016.06 L1203.31 1028.05 L1221.4 1039.23 L1239.49 1049.15 L1257.58 1057.55 
  L1275.67 1064.31 L1293.77 1069.53 L1311.86 1073.44 L1329.95 1076.36 L1348.04 1078.7 L1366.13 1080.79 L1384.22 1082.9 L1402.32 1085.08 L1420.41 1087.2 L1438.5 1088.91 
  L1456.59 1089.7 L1474.68 1089.03 L1492.77 1086.41 L1510.86 1081.52 L1528.96 1074.26 L1547.05 1064.86 L1565.14 1053.85 L1583.23 1042.07 L1601.32 1030.65 L1619.41 1020.93 
  L1637.51 1014.28 L1655.6 1011.96 L1673.69 1014.84 L1691.78 1023.21 L1709.87 1036.63 L1727.96 1053.95 L1746.06 1073.46 L1764.15 1093.16 L1782.24 1111.17 L1800.33 1126.02 
  L1818.42 1136.96 L1836.51 1144.03 L1854.6 1148.03 L1872.7 1150.28 L1890.79 1152.3 L1908.88 1155.51 L1926.97 1160.95 L1945.06 1169.06 L1963.15 1179.71 L1981.25 1192.18 
  L1981.25 1479.3 L1963.15 1479.3 L1945.06 1479.3 L1926.97 1479.3 L1908.88 1479.3 L1890.79 1479.3 L1872.7 1479.3 L1854.6 1479.3 L1836.51 1479.3 L1818.42 1479.3 
  L1800.33 1479.3 L1782.24 1479.3 L1764.15 1479.3 L1746.06 1479.3 L1727.96 1479.3 L1709.87 1479.3 L1691.78 1479.3 L1673.69 1479.3 L1655.6 1479.3 L1637.51 1479.3 
  L1619.41 1479.3 L1601.32 1479.3 L1583.23 1479.3 L1565.14 1479.3 L1547.05 1479.3 L1528.96 1479.3 L1510.86 1479.3 L1492.77 1479.3 L1474.68 1479.3 L1456.59 1479.3 
  L1438.5 1479.3 L1420.41 1479.3 L1402.32 1479.3 L1384.22 1479.3 L1366.13 1479.3 L1348.04 1479.3 L1329.95 1479.3 L1311.86 1479.3 L1293.77 1479.3 L1275.67 1479.3 
  L1257.58 1479.3 L1239.49 1479.3 L1221.4 1479.3 L1203.31 1479.3 L1185.22 1479.3 L1167.13 1479.3 L1149.03 1479.3 L1130.94 1479.3 L1112.85 1479.3 L1094.76 1479.3 
  L1076.67 1479.3 L1058.58 1479.3 L1040.48 1479.3 L1022.39 1479.3 L1004.3 1479.3 L986.21 1479.3 L968.118 1479.3 L950.027 1479.3 L931.935 1479.3 L913.843 1479.3 
  L895.752 1479.3 L877.66 1479.3 L859.569 1479.3 L841.477 1479.3 L823.386 1479.3 L805.294 1479.3 L787.203 1479.3 L769.111 1479.3 L751.019 1479.3 L732.928 1479.3 
  L714.836 1479.3 L696.745 1479.3 L678.653 1479.3 L660.562 1479.3 L642.47 1479.3 L624.379 1479.3 L606.287 1479.3 L588.195 1479.3 L570.104 1479.3 L552.012 1479.3 
  L533.921 1479.3 L515.829 1479.3 L497.738 1479.3 L479.646 1479.3 L461.555 1479.3 L443.463 1479.3 L425.371 1479.3 L407.28 1479.3 L389.188 1479.3 L371.097 1479.3 
  L353.005 1479.3 L334.914 1479.3 L316.822 1479.3 L298.73 1479.3 L280.639 1479.3 L262.547 1479.3 L244.456 1479.3 L226.364 1479.3 L208.273 1479.3 L190.181 1479.3 
   Z
  " fill="#008000" fill-rule="evenodd" fill-opacity="0.5"/>
<polyline clip-path="url(#clip702)" style="stroke:#008000; stroke-width:4; stroke-opacity:1; fill:none" points="
  190.181,432.299 208.273,327.028 226.364,240.439 244.456,174.217 262.547,128.147 280.639,100.566 298.73,88.9544 316.822,90.5156 334.914,102.589 353.005,122.858 
  371.097,149.373 389.188,180.441 407.28,214.495 425.371,250.004 443.463,285.477 461.555,319.558 479.646,351.167 497.738,379.637 515.829,404.788 533.921,426.898 
  552.012,446.589 570.104,464.651 588.195,481.884 606.287,498.981 624.379,516.508 642.47,534.939 660.562,554.721 678.653,576.3 696.745,600.078 714.836,626.295 
  732.928,654.888 751.019,685.376 769.111,716.853 787.203,748.1 805.294,777.808 823.386,804.84 841.477,828.445 859.569,848.371 877.66,864.84 895.752,878.401 
  913.843,889.736 931.935,899.479 950.027,908.102 968.118,915.889 986.21,922.987 1004.3,929.504 1022.39,935.588 1040.48,941.489 1058.58,947.556 1076.67,954.191 
  1094.76,961.768 1112.85,970.549 1130.94,980.609 1149.03,991.806 1167.13,1003.79 1185.22,1016.06 1203.31,1028.05 1221.4,1039.23 1239.49,1049.15 1257.58,1057.55 
  1275.67,1064.31 1293.77,1069.53 1311.86,1073.44 1329.95,1076.36 1348.04,1078.7 1366.13,1080.79 1384.22,1082.9 1402.32,1085.08 1420.41,1087.2 1438.5,1088.91 
  1456.59,1089.7 1474.68,1089.03 1492.77,1086.41 1510.86,1081.52 1528.96,1074.26 1547.05,1064.86 1565.14,1053.85 1583.23,1042.07 1601.32,1030.65 1619.41,1020.93 
  1637.51,1014.28 1655.6,1011.96 1673.69,1014.84 1691.78,1023.21 1709.87,1036.63 1727.96,1053.95 1746.06,1073.46 1764.15,1093.16 1782.24,1111.17 1800.33,1126.02 
  1818.42,1136.96 1836.51,1144.03 1854.6,1148.03 1872.7,1150.28 1890.79,1152.3 1908.88,1155.51 1926.97,1160.95 1945.06,1169.06 1963.15,1179.71 1981.25,1192.18 
  
  "/>
<path clip-path="url(#clip702)" d="
M1981.25 1192.18 L1984.35 1194.43 L1987.46 1196.7 L1990.56 1198.98 L1993.67 1201.26 L1996.77 1203.55 L1999.87 1205.82 L2002.98 1208.08 L2006.08 1210.32 L2009.19 1212.54 
  L2012.29 1214.72 L2015.4 1216.87 L2018.5 1218.97 L2021.61 1221.03 L2024.71 1223.04 L2027.82 1224.99 L2030.92 1226.88 L2034.03 1228.7 L2037.13 1230.46 L2040.24 1232.15 
  L2043.34 1233.77 L2046.45 1235.31 L2049.55 1236.78 L2052.66 1238.17 L2055.76 1239.48 L2058.87 1240.71 L2061.97 1241.86 L2065.08 1242.94 L2068.18 1243.94 L2071.29 1244.86 
  L2074.39 1245.72 L2077.5 1246.5 L2080.6 1247.21 L2083.71 1247.86 L2086.81 1248.44 L2089.92 1248.97 L2093.02 1249.44 L2096.13 1249.87 L2099.23 1250.25 L2102.34 1250.59 
  L2105.44 1250.9 L2108.55 1251.18 L2111.65 1251.44 L2114.76 1251.67 L2117.86 1251.9 L2120.97 1252.12 L2124.07 1252.35 L2127.18 1252.58 L2130.28 1252.82 L2133.39 1253.09 
  L2136.49 1253.37 L2139.6 1253.69 L2142.7 1254.05 L2145.81 1254.45 L2148.91 1254.9 L2152.01 1255.4 L2155.12 1255.96 L2158.22 1256.59 L2161.33 1257.29 L2164.43 1258.05 
  L2167.54 1258.9 L2170.64 1259.83 L2173.75 1260.84 L2176.85 1261.95 L2179.96 1263.14 L2183.06 1264.43 L2186.17 1265.81 L2189.27 1267.3 L2192.38 1268.88 L2195.48 1270.56 
  L2198.59 1272.35 L2201.69 1274.23 L2204.8 1276.22 L2207.9 1278.31 L2211.01 1280.5 L2214.11 1282.79 L2217.22 1285.17 L2220.32 1287.66 L2223.43 1290.24 L2226.53 1292.9 
  L2229.64 1295.66 L2232.74 1298.5 L2235.85 1301.43 L2238.95 1304.43 L2242.06 1307.51 L2245.16 1310.66 L2248.27 1313.88 L2251.37 1317.15 L2254.48 1320.49 L2257.58 1323.87 
  L2260.69 1327.31 L2263.79 1330.78 L2266.9 1334.29 L2270 1337.84 L2273.11 1341.41 L2276.21 1345 L2279.32 1348.6 L2282.42 1352.22 L2285.53 1355.84 L2288.63 1359.46 
  L2288.63 1479.3 L2285.53 1479.3 L2282.42 1479.3 L2279.32 1479.3 L2276.21 1479.3 L2273.11 1479.3 L2270 1479.3 L2266.9 1479.3 L2263.79 1479.3 L2260.69 1479.3 
  L2257.58 1479.3 L2254.48 1479.3 L2251.37 1479.3 L2248.27 1479.3 L2245.16 1479.3 L2242.06 1479.3 L2238.95 1479.3 L2235.85 1479.3 L2232.74 1479.3 L2229.64 1479.3 
  L2226.53 1479.3 L2223.43 1479.3 L2220.32 1479.3 L2217.22 1479.3 L2214.11 1479.3 L2211.01 1479.3 L2207.9 1479.3 L2204.8 1479.3 L2201.69 1479.3 L2198.59 1479.3 
  L2195.48 1479.3 L2192.38 1479.3 L2189.27 1479.3 L2186.17 1479.3 L2183.06 1479.3 L2179.96 1479.3 L2176.85 1479.3 L2173.75 1479.3 L2170.64 1479.3 L2167.54 1479.3 
  L2164.43 1479.3 L2161.33 1479.3 L2158.22 1479.3 L2155.12 1479.3 L2152.01 1479.3 L2148.91 1479.3 L2145.81 1479.3 L2142.7 1479.3 L2139.6 1479.3 L2136.49 1479.3 
  L2133.39 1479.3 L2130.28 1479.3 L2127.18 1479.3 L2124.07 1479.3 L2120.97 1479.3 L2117.86 1479.3 L2114.76 1479.3 L2111.65 1479.3 L2108.55 1479.3 L2105.44 1479.3 
  L2102.34 1479.3 L2099.23 1479.3 L2096.13 1479.3 L2093.02 1479.3 L2089.92 1479.3 L2086.81 1479.3 L2083.71 1479.3 L2080.6 1479.3 L2077.5 1479.3 L2074.39 1479.3 
  L2071.29 1479.3 L2068.18 1479.3 L2065.08 1479.3 L2061.97 1479.3 L2058.87 1479.3 L2055.76 1479.3 L2052.66 1479.3 L2049.55 1479.3 L2046.45 1479.3 L2043.34 1479.3 
  L2040.24 1479.3 L2037.13 1479.3 L2034.03 1479.3 L2030.92 1479.3 L2027.82 1479.3 L2024.71 1479.3 L2021.61 1479.3 L2018.5 1479.3 L2015.4 1479.3 L2012.29 1479.3 
  L2009.19 1479.3 L2006.08 1479.3 L2002.98 1479.3 L1999.87 1479.3 L1996.77 1479.3 L1993.67 1479.3 L1990.56 1479.3 L1987.46 1479.3 L1984.35 1479.3 L1981.25 1479.3 
   Z
  " fill="#ffa500" fill-rule="evenodd" fill-opacity="0.5"/>
<polyline clip-path="url(#clip702)" style="stroke:#ffa500; stroke-width:4; stroke-opacity:1; fill:none" points="
  1981.25,1192.18 1984.35,1194.43 1987.46,1196.7 1990.56,1198.98 1993.67,1201.26 1996.77,1203.55 1999.87,1205.82 2002.98,1208.08 2006.08,1210.32 2009.19,1212.54 
  2012.29,1214.72 2015.4,1216.87 2018.5,1218.97 2021.61,1221.03 2024.71,1223.04 2027.82,1224.99 2030.92,1226.88 2034.03,1228.7 2037.13,1230.46 2040.24,1232.15 
  2043.34,1233.77 2046.45,1235.31 2049.55,1236.78 2052.66,1238.17 2055.76,1239.48 2058.87,1240.71 2061.97,1241.86 2065.08,1242.94 2068.18,1243.94 2071.29,1244.86 
  2074.39,1245.72 2077.5,1246.5 2080.6,1247.21 2083.71,1247.86 2086.81,1248.44 2089.92,1248.97 2093.02,1249.44 2096.13,1249.87 2099.23,1250.25 2102.34,1250.59 
  2105.44,1250.9 2108.55,1251.18 2111.65,1251.44 2114.76,1251.67 2117.86,1251.9 2120.97,1252.12 2124.07,1252.35 2127.18,1252.58 2130.28,1252.82 2133.39,1253.09 
  2136.49,1253.37 2139.6,1253.69 2142.7,1254.05 2145.81,1254.45 2148.91,1254.9 2152.01,1255.4 2155.12,1255.96 2158.22,1256.59 2161.33,1257.29 2164.43,1258.05 
  2167.54,1258.9 2170.64,1259.83 2173.75,1260.84 2176.85,1261.95 2179.96,1263.14 2183.06,1264.43 2186.17,1265.81 2189.27,1267.3 2192.38,1268.88 2195.48,1270.56 
  2198.59,1272.35 2201.69,1274.23 2204.8,1276.22 2207.9,1278.31 2211.01,1280.5 2214.11,1282.79 2217.22,1285.17 2220.32,1287.66 2223.43,1290.24 2226.53,1292.9 
  2229.64,1295.66 2232.74,1298.5 2235.85,1301.43 2238.95,1304.43 2242.06,1307.51 2245.16,1310.66 2248.27,1313.88 2251.37,1317.15 2254.48,1320.49 2257.58,1323.87 
  2260.69,1327.31 2263.79,1330.78 2266.9,1334.29 2270,1337.84 2273.11,1341.41 2276.21,1345 2279.32,1348.6 2282.42,1352.22 2285.53,1355.84 2288.63,1359.46 
  
  "/>
<polyline clip-path="url(#clip702)" style="stroke:#0000ff; stroke-width:4; stroke-opacity:1; fill:none" points="
  872.469,1479.3 872.469,860.441 
  "/>
<polyline clip-path="url(#clip702)" style="stroke:#000000; stroke-width:4; stroke-opacity:1; fill:none" points="
  700.753,1479.3 700.753,605.672 
  "/>
<path clip-path="url(#clip700)" d="
M1494.58 459.25 L2277.23 459.25 L2277.23 96.3696 L1494.58 96.3696  Z
  " fill="#ffffff" fill-rule="evenodd" fill-opacity="1"/>
<polyline clip-path="url(#clip700)" style="stroke:#000000; stroke-width:4; stroke-opacity:1; fill:none" points="
  1494.58,459.25 2277.23,459.25 2277.23,96.3696 1494.58,96.3696 1494.58,459.25 
  "/>
<path clip-path="url(#clip700)" d="
M1519.75 181.042 L1670.81 181.042 L1670.81 132.658 L1519.75 132.658 L1519.75 181.042  Z
  " fill="#ffa500" fill-rule="evenodd" fill-opacity="0.5"/>
<polyline clip-path="url(#clip700)" style="stroke:#ffa500; stroke-width:4; stroke-opacity:1; fill:none" points="
  1519.75,132.658 1670.81,132.658 
  "/>
<path clip-path="url(#clip700)" d="M 0 0 M1700.38 161.19 Q1700.38 165.889 1702.3 168.574 Q1704.24 171.236 1707.62 171.236 Q1711 171.236 1712.95 168.574 Q1714.89 165.889 1714.89 161.19 Q1714.89 156.491 1712.95 153.829 Q1711 151.144 1707.62 151.144 Q1704.24 151.144 1702.3 153.829 Q1700.38 156.491 1700.38 161.19 M1714.89 170.241 Q1713.55 172.555 1711.49 173.69 Q1709.45 174.801 1706.58 174.801 Q1701.88 174.801 1698.92 171.051 Q1695.98 167.301 1695.98 161.19 Q1695.98 155.079 1698.92 151.329 Q1701.88 147.579 1706.58 147.579 Q1709.45 147.579 1711.49 148.713 Q1713.55 149.824 1714.89 152.139 L1714.89 148.204 L1719.15 148.204 L1719.15 183.991 L1714.89 183.991 L1714.89 170.241 Z" fill="#000000" fill-rule="evenodd" fill-opacity="1" /><path clip-path="url(#clip700)" d="M 0 0 M1734.22 142.648 Q1730.61 142.648 1728.78 146.213 Q1726.98 149.755 1726.98 156.884 Q1726.98 163.991 1728.78 167.556 Q1730.61 171.097 1734.22 171.097 Q1737.85 171.097 1739.66 167.556 Q1741.49 163.991 1741.49 156.884 Q1741.49 149.755 1739.66 146.213 Q1737.85 142.648 1734.22 142.648 M1734.22 138.945 Q1740.03 138.945 1743.09 143.551 Q1746.17 148.134 1746.17 156.884 Q1746.17 165.611 1743.09 170.218 Q1740.03 174.801 1734.22 174.801 Q1728.41 174.801 1725.33 170.218 Q1722.28 165.611 1722.28 156.884 Q1722.28 148.134 1725.33 143.551 Q1728.41 138.945 1734.22 138.945 Z" fill="#000000" fill-rule="evenodd" fill-opacity="1" /><path clip-path="url(#clip700)" d="M 0 0 M1751.28 139.57 L1769.64 139.57 L1769.64 143.505 L1755.56 143.505 L1755.56 151.977 Q1756.58 151.63 1757.6 151.468 Q1758.62 151.282 1759.64 151.282 Q1765.42 151.282 1768.8 154.454 Q1772.18 157.625 1772.18 163.042 Q1772.18 168.62 1768.71 171.722 Q1765.24 174.801 1758.92 174.801 Q1756.74 174.801 1754.48 174.43 Q1752.23 174.06 1749.82 173.319 L1749.82 168.62 Q1751.91 169.755 1754.13 170.31 Q1756.35 170.866 1758.83 170.866 Q1762.83 170.866 1765.17 168.759 Q1767.51 166.653 1767.51 163.042 Q1767.51 159.431 1765.17 157.324 Q1762.83 155.218 1758.83 155.218 Q1756.95 155.218 1755.08 155.634 Q1753.23 156.051 1751.28 156.931 L1751.28 139.57 Z" fill="#000000" fill-rule="evenodd" fill-opacity="1" /><path clip-path="url(#clip700)" d="
M1519.75 241.522 L1670.81 241.522 L1670.81 193.138 L1519.75 193.138 L1519.75 241.522  Z
  " fill="#008000" fill-rule="evenodd" fill-opacity="0.5"/>
<polyline clip-path="url(#clip700)" style="stroke:#008000; stroke-width:4; stroke-opacity:1; fill:none" points="
  1519.75,193.138 1670.81,193.138 
  "/>
<path clip-path="url(#clip700)" d="M 0 0 M1698.2 233.892 L1698.2 229.633 Q1699.96 230.466 1701.77 230.906 Q1703.57 231.346 1705.31 231.346 Q1709.94 231.346 1712.37 228.244 Q1714.82 225.119 1715.17 218.776 Q1713.83 220.767 1711.77 221.832 Q1709.71 222.897 1707.21 222.897 Q1702.02 222.897 1698.99 219.772 Q1695.98 216.624 1695.98 211.184 Q1695.98 205.86 1699.13 202.642 Q1702.28 199.425 1707.51 199.425 Q1713.5 199.425 1716.65 204.031 Q1719.82 208.614 1719.82 217.364 Q1719.82 225.536 1715.93 230.42 Q1712.07 235.281 1705.52 235.281 Q1703.76 235.281 1701.95 234.934 Q1700.15 234.586 1698.2 233.892 M1707.51 219.239 Q1710.66 219.239 1712.48 217.086 Q1714.34 214.934 1714.34 211.184 Q1714.34 207.457 1712.48 205.304 Q1710.66 203.128 1707.51 203.128 Q1704.36 203.128 1702.51 205.304 Q1700.68 207.457 1700.68 211.184 Q1700.68 214.934 1702.51 217.086 Q1704.36 219.239 1707.51 219.239 Z" fill="#000000" fill-rule="evenodd" fill-opacity="1" /><path clip-path="url(#clip700)" d="M 0 0 M1734.89 203.128 Q1731.28 203.128 1729.45 206.693 Q1727.65 210.235 1727.65 217.364 Q1727.65 224.471 1729.45 228.036 Q1731.28 231.577 1734.89 231.577 Q1738.53 231.577 1740.33 228.036 Q1742.16 224.471 1742.16 217.364 Q1742.16 210.235 1740.33 206.693 Q1738.53 203.128 1734.89 203.128 M1734.89 199.425 Q1740.7 199.425 1743.76 204.031 Q1746.84 208.614 1746.84 217.364 Q1746.84 226.091 1743.76 230.698 Q1740.7 235.281 1734.89 235.281 Q1729.08 235.281 1726 230.698 Q1722.95 226.091 1722.95 217.364 Q1722.95 208.614 1726 204.031 Q1729.08 199.425 1734.89 199.425 Z" fill="#000000" fill-rule="evenodd" fill-opacity="1" /><path clip-path="url(#clip700)" d="M 0 0 M1781.3 219.401 Q1779.29 219.401 1778.13 221.114 Q1777 222.827 1777 225.883 Q1777 228.892 1778.13 230.628 Q1779.29 232.341 1781.3 232.341 Q1783.27 232.341 1784.41 230.628 Q1785.56 228.892 1785.56 225.883 Q1785.56 222.85 1784.41 221.137 Q1783.27 219.401 1781.3 219.401 M1781.3 216.462 Q1784.96 216.462 1787.11 219.008 Q1789.27 221.554 1789.27 225.883 Q1789.27 230.211 1787.09 232.758 Q1784.94 235.281 1781.3 235.281 Q1777.6 235.281 1775.45 232.758 Q1773.29 230.211 1773.29 225.883 Q1773.29 221.531 1775.45 219.008 Q1777.62 216.462 1781.3 216.462 M1757.42 202.364 Q1755.42 202.364 1754.27 204.1 Q1753.13 205.813 1753.13 208.823 Q1753.13 211.878 1754.27 213.591 Q1755.4 215.304 1757.42 215.304 Q1759.43 215.304 1760.56 213.591 Q1761.72 211.878 1761.72 208.823 Q1761.72 205.837 1760.56 204.1 Q1759.41 202.364 1757.42 202.364 M1778.32 199.425 L1782.02 199.425 L1760.4 235.281 L1756.7 235.281 L1778.32 199.425 M1757.42 199.425 Q1761.07 199.425 1763.25 201.971 Q1765.42 204.494 1765.42 208.823 Q1765.42 213.198 1763.25 215.721 Q1761.1 218.244 1757.42 218.244 Q1753.73 218.244 1751.58 215.721 Q1749.45 213.174 1749.45 208.823 Q1749.45 204.517 1751.6 201.971 Q1753.76 199.425 1757.42 199.425 Z" fill="#000000" fill-rule="evenodd" fill-opacity="1" /><path clip-path="url(#clip700)" d="M 0 0 M1830.35 218.961 L1830.35 234.61 L1826.1 234.61 L1826.1 219.1 Q1826.1 215.42 1824.66 213.591 Q1823.22 211.762 1820.35 211.762 Q1816.91 211.762 1814.91 213.962 Q1812.92 216.161 1812.92 219.957 L1812.92 234.61 L1808.64 234.61 L1808.64 208.684 L1812.92 208.684 L1812.92 212.712 Q1814.45 210.374 1816.51 209.216 Q1818.6 208.059 1821.3 208.059 Q1825.77 208.059 1828.06 210.837 Q1830.35 213.591 1830.35 218.961 Z" fill="#000000" fill-rule="evenodd" fill-opacity="1" /><path clip-path="url(#clip700)" d="M 0 0 M1844.87 211.67 Q1841.44 211.67 1839.45 214.355 Q1837.46 217.017 1837.46 221.67 Q1837.46 226.323 1839.43 229.008 Q1841.42 231.67 1844.87 231.67 Q1848.27 231.67 1850.26 228.985 Q1852.25 226.299 1852.25 221.67 Q1852.25 217.063 1850.26 214.378 Q1848.27 211.67 1844.87 211.67 M1844.87 208.059 Q1850.42 208.059 1853.6 211.67 Q1856.77 215.281 1856.77 221.67 Q1856.77 228.036 1853.6 231.67 Q1850.42 235.281 1844.87 235.281 Q1839.29 235.281 1836.12 231.67 Q1832.97 228.036 1832.97 221.67 Q1832.97 215.281 1836.12 211.67 Q1839.29 208.059 1844.87 208.059 Z" fill="#000000" fill-rule="evenodd" fill-opacity="1" /><path clip-path="url(#clip700)" d="M 0 0 M1882.78 218.961 L1882.78 234.61 L1878.53 234.61 L1878.53 219.1 Q1878.53 215.42 1877.09 213.591 Q1875.66 211.762 1872.78 211.762 Q1869.34 211.762 1867.35 213.962 Q1865.35 216.161 1865.35 219.957 L1865.35 234.61 L1861.07 234.61 L1861.07 208.684 L1865.35 208.684 L1865.35 212.712 Q1866.88 210.374 1868.94 209.216 Q1871.03 208.059 1873.73 208.059 Q1878.2 208.059 1880.49 210.837 Q1882.78 213.591 1882.78 218.961 Z" fill="#000000" fill-rule="evenodd" fill-opacity="1" /><path clip-path="url(#clip700)" d="M 0 0 M1885.1 219.725 L1897.58 219.725 L1897.58 223.522 L1885.1 223.522 L1885.1 219.725 Z" fill="#000000" fill-rule="evenodd" fill-opacity="1" /><path clip-path="url(#clip700)" d="M 0 0 M1917.07 212.665 Q1916.35 212.249 1915.49 212.063 Q1914.66 211.855 1913.64 211.855 Q1910.03 211.855 1908.09 214.216 Q1906.16 216.554 1906.16 220.952 L1906.16 234.61 L1901.88 234.61 L1901.88 208.684 L1906.16 208.684 L1906.16 212.712 Q1907.51 210.35 1909.66 209.216 Q1911.81 208.059 1914.89 208.059 Q1915.33 208.059 1915.86 208.128 Q1916.4 208.175 1917.04 208.29 L1917.07 212.665 Z" fill="#000000" fill-rule="evenodd" fill-opacity="1" /><path clip-path="url(#clip700)" d="M 0 0 M1942.67 220.582 L1942.67 222.665 L1923.09 222.665 Q1923.36 227.063 1925.72 229.378 Q1928.11 231.67 1932.34 231.67 Q1934.8 231.67 1937.09 231.068 Q1939.4 230.466 1941.67 229.262 L1941.67 233.29 Q1939.38 234.262 1936.97 234.772 Q1934.57 235.281 1932.09 235.281 Q1925.89 235.281 1922.25 231.67 Q1918.64 228.059 1918.64 221.901 Q1918.64 215.536 1922.07 211.809 Q1925.52 208.059 1931.35 208.059 Q1936.58 208.059 1939.61 211.438 Q1942.67 214.795 1942.67 220.582 M1938.41 219.332 Q1938.36 215.837 1936.44 213.753 Q1934.54 211.67 1931.4 211.67 Q1927.83 211.67 1925.68 213.684 Q1923.55 215.698 1923.22 219.355 L1938.41 219.332 Z" fill="#000000" fill-rule="evenodd" fill-opacity="1" /><path clip-path="url(#clip700)" d="M 0 0 M1947.14 208.684 L1951.4 208.684 L1951.4 235.073 Q1951.4 240.026 1949.5 242.248 Q1947.62 244.471 1943.43 244.471 L1941.81 244.471 L1941.81 240.86 L1942.95 240.86 Q1945.38 240.86 1946.26 239.725 Q1947.14 238.614 1947.14 235.073 L1947.14 208.684 M1947.14 198.591 L1951.4 198.591 L1951.4 203.985 L1947.14 203.985 L1947.14 198.591 Z" fill="#000000" fill-rule="evenodd" fill-opacity="1" /><path clip-path="url(#clip700)" d="M 0 0 M1978.04 220.582 L1978.04 222.665 L1958.46 222.665 Q1958.73 227.063 1961.09 229.378 Q1963.48 231.67 1967.71 231.67 Q1970.17 231.67 1972.46 231.068 Q1974.78 230.466 1977.04 229.262 L1977.04 233.29 Q1974.75 234.262 1972.34 234.772 Q1969.94 235.281 1967.46 235.281 Q1961.26 235.281 1957.62 231.67 Q1954.01 228.059 1954.01 221.901 Q1954.01 215.536 1957.44 211.809 Q1960.89 208.059 1966.72 208.059 Q1971.95 208.059 1974.98 211.438 Q1978.04 214.795 1978.04 220.582 M1973.78 219.332 Q1973.73 215.837 1971.81 213.753 Q1969.91 211.67 1966.77 211.67 Q1963.2 211.67 1961.05 213.684 Q1958.92 215.698 1958.59 219.355 L1973.78 219.332 Z" fill="#000000" fill-rule="evenodd" fill-opacity="1" /><path clip-path="url(#clip700)" d="M 0 0 M2001.16 209.679 L2001.16 213.661 Q1999.36 212.665 1997.53 212.179 Q1995.72 211.67 1993.87 211.67 Q1989.73 211.67 1987.44 214.309 Q1985.15 216.924 1985.15 221.67 Q1985.15 226.415 1987.44 229.054 Q1989.73 231.67 1993.87 231.67 Q1995.72 231.67 1997.53 231.184 Q1999.36 230.674 2001.16 229.679 L2001.16 233.614 Q1999.38 234.448 1997.46 234.864 Q1995.56 235.281 1993.41 235.281 Q1987.55 235.281 1984.1 231.6 Q1980.65 227.92 1980.65 221.67 Q1980.65 215.327 1984.13 211.693 Q1987.62 208.059 1993.69 208.059 Q1995.65 208.059 1997.53 208.475 Q1999.4 208.869 2001.16 209.679 Z" fill="#000000" fill-rule="evenodd" fill-opacity="1" /><path clip-path="url(#clip700)" d="M 0 0 M2009.84 201.323 L2009.84 208.684 L2018.62 208.684 L2018.62 211.994 L2009.84 211.994 L2009.84 226.068 Q2009.84 229.239 2010.7 230.142 Q2011.58 231.045 2014.24 231.045 L2018.62 231.045 L2018.62 234.61 L2014.24 234.61 Q2009.31 234.61 2007.44 232.781 Q2005.56 230.929 2005.56 226.068 L2005.56 211.994 L2002.44 211.994 L2002.44 208.684 L2005.56 208.684 L2005.56 201.323 L2009.84 201.323 Z" fill="#000000" fill-rule="evenodd" fill-opacity="1" /><path clip-path="url(#clip700)" d="M 0 0 M2023.08 208.684 L2027.34 208.684 L2027.34 234.61 L2023.08 234.61 L2023.08 208.684 M2023.08 198.591 L2027.34 198.591 L2027.34 203.985 L2023.08 203.985 L2023.08 198.591 Z" fill="#000000" fill-rule="evenodd" fill-opacity="1" /><path clip-path="url(#clip700)" d="M 0 0 M2041.86 211.67 Q2038.43 211.67 2036.44 214.355 Q2034.45 217.017 2034.45 221.67 Q2034.45 226.323 2036.42 229.008 Q2038.41 231.67 2041.86 231.67 Q2045.26 231.67 2047.25 228.985 Q2049.24 226.299 2049.24 221.67 Q2049.24 217.063 2047.25 214.378 Q2045.26 211.67 2041.86 211.67 M2041.86 208.059 Q2047.41 208.059 2050.58 211.67 Q2053.76 215.281 2053.76 221.67 Q2053.76 228.036 2050.58 231.67 Q2047.41 235.281 2041.86 235.281 Q2036.28 235.281 2033.11 231.67 Q2029.96 228.036 2029.96 221.67 Q2029.96 215.281 2033.11 211.67 Q2036.28 208.059 2041.86 208.059 Z" fill="#000000" fill-rule="evenodd" fill-opacity="1" /><path clip-path="url(#clip700)" d="M 0 0 M2079.77 218.961 L2079.77 234.61 L2075.52 234.61 L2075.52 219.1 Q2075.52 215.42 2074.08 213.591 Q2072.64 211.762 2069.77 211.762 Q2066.33 211.762 2064.33 213.962 Q2062.34 216.161 2062.34 219.957 L2062.34 234.61 L2058.06 234.61 L2058.06 208.684 L2062.34 208.684 L2062.34 212.712 Q2063.87 210.374 2065.93 209.216 Q2068.02 208.059 2070.72 208.059 Q2075.19 208.059 2077.48 210.837 Q2079.77 213.591 2079.77 218.961 Z" fill="#000000" fill-rule="evenodd" fill-opacity="1" /><path clip-path="url(#clip700)" d="M 0 0 M2114.33 212.665 Q2113.62 212.249 2112.76 212.063 Q2111.93 211.855 2110.91 211.855 Q2107.3 211.855 2105.35 214.216 Q2103.43 216.554 2103.43 220.952 L2103.43 234.61 L2099.15 234.61 L2099.15 208.684 L2103.43 208.684 L2103.43 212.712 Q2104.77 210.35 2106.93 209.216 Q2109.08 208.059 2112.16 208.059 Q2112.6 208.059 2113.13 208.128 Q2113.66 208.175 2114.31 208.29 L2114.33 212.665 Z" fill="#000000" fill-rule="evenodd" fill-opacity="1" /><path clip-path="url(#clip700)" d="M 0 0 M2139.94 220.582 L2139.94 222.665 L2120.35 222.665 Q2120.63 227.063 2122.99 229.378 Q2125.38 231.67 2129.61 231.67 Q2132.07 231.67 2134.36 231.068 Q2136.67 230.466 2138.94 229.262 L2138.94 233.29 Q2136.65 234.262 2134.24 234.772 Q2131.83 235.281 2129.36 235.281 Q2123.15 235.281 2119.52 231.67 Q2115.91 228.059 2115.91 221.901 Q2115.91 215.536 2119.33 211.809 Q2122.78 208.059 2128.62 208.059 Q2133.85 208.059 2136.88 211.438 Q2139.94 214.795 2139.94 220.582 M2135.68 219.332 Q2135.63 215.837 2133.71 213.753 Q2131.81 211.67 2128.66 211.67 Q2125.1 211.67 2122.95 213.684 Q2120.82 215.698 2120.49 219.355 L2135.68 219.332 Z" fill="#000000" fill-rule="evenodd" fill-opacity="1" /><path clip-path="url(#clip700)" d="M 0 0 M2161.46 221.346 Q2161.46 216.716 2159.54 214.17 Q2157.64 211.624 2154.2 211.624 Q2150.77 211.624 2148.85 214.17 Q2146.95 216.716 2146.95 221.346 Q2146.95 225.952 2148.85 228.498 Q2150.77 231.045 2154.2 231.045 Q2157.64 231.045 2159.54 228.498 Q2161.46 225.952 2161.46 221.346 M2165.72 231.392 Q2165.72 238.012 2162.78 241.23 Q2159.84 244.471 2153.78 244.471 Q2151.53 244.471 2149.54 244.123 Q2147.55 243.799 2145.68 243.105 L2145.68 238.961 Q2147.55 239.98 2149.38 240.466 Q2151.21 240.952 2153.11 240.952 Q2157.3 240.952 2159.38 238.753 Q2161.46 236.577 2161.46 232.156 L2161.46 230.049 Q2160.14 232.341 2158.08 233.475 Q2156.02 234.61 2153.15 234.61 Q2148.39 234.61 2145.47 230.975 Q2142.55 227.341 2142.55 221.346 Q2142.55 215.327 2145.47 211.693 Q2148.39 208.059 2153.15 208.059 Q2156.02 208.059 2158.08 209.193 Q2160.14 210.327 2161.46 212.619 L2161.46 208.684 L2165.72 208.684 L2165.72 231.392 Z" fill="#000000" fill-rule="evenodd" fill-opacity="1" /><path clip-path="url(#clip700)" d="M 0 0 M2170.19 208.684 L2174.45 208.684 L2174.45 234.61 L2170.19 234.61 L2170.19 208.684 M2170.19 198.591 L2174.45 198.591 L2174.45 203.985 L2170.19 203.985 L2170.19 198.591 Z" fill="#000000" fill-rule="evenodd" fill-opacity="1" /><path clip-path="url(#clip700)" d="M 0 0 M2188.96 211.67 Q2185.54 211.67 2183.55 214.355 Q2181.56 217.017 2181.56 221.67 Q2181.56 226.323 2183.52 229.008 Q2185.51 231.67 2188.96 231.67 Q2192.37 231.67 2194.36 228.985 Q2196.35 226.299 2196.35 221.67 Q2196.35 217.063 2194.36 214.378 Q2192.37 211.67 2188.96 211.67 M2188.96 208.059 Q2194.52 208.059 2197.69 211.67 Q2200.86 215.281 2200.86 221.67 Q2200.86 228.036 2197.69 231.67 Q2194.52 235.281 2188.96 235.281 Q2183.39 235.281 2180.21 231.67 Q2177.07 228.036 2177.07 221.67 Q2177.07 215.281 2180.21 211.67 Q2183.39 208.059 2188.96 208.059 Z" fill="#000000" fill-rule="evenodd" fill-opacity="1" /><path clip-path="url(#clip700)" d="M 0 0 M2226.88 218.961 L2226.88 234.61 L2222.62 234.61 L2222.62 219.1 Q2222.62 215.42 2221.19 213.591 Q2219.75 211.762 2216.88 211.762 Q2213.43 211.762 2211.44 213.962 Q2209.45 216.161 2209.45 219.957 L2209.45 234.61 L2205.17 234.61 L2205.17 208.684 L2209.45 208.684 L2209.45 212.712 Q2210.98 210.374 2213.04 209.216 Q2215.12 208.059 2217.83 208.059 Q2222.3 208.059 2224.59 210.837 Q2226.88 213.591 2226.88 218.961 Z" fill="#000000" fill-rule="evenodd" fill-opacity="1" /><path clip-path="url(#clip700)" d="
M1519.75 302.002 L1670.81 302.002 L1670.81 253.618 L1519.75 253.618 L1519.75 302.002  Z
  " fill="#ffa500" fill-rule="evenodd" fill-opacity="0.5"/>
<polyline clip-path="url(#clip700)" style="stroke:#ffa500; stroke-width:4; stroke-opacity:1; fill:none" points="
  1519.75,253.618 1670.81,253.618 
  "/>
<path clip-path="url(#clip700)" d="M 0 0 M1700.38 282.15 Q1700.38 286.849 1702.3 289.534 Q1704.24 292.196 1707.62 292.196 Q1711 292.196 1712.95 289.534 Q1714.89 286.849 1714.89 282.15 Q1714.89 277.451 1712.95 274.789 Q1711 272.104 1707.62 272.104 Q1704.24 272.104 1702.3 274.789 Q1700.38 277.451 1700.38 282.15 M1714.89 291.201 Q1713.55 293.515 1711.49 294.65 Q1709.45 295.761 1706.58 295.761 Q1701.88 295.761 1698.92 292.011 Q1695.98 288.261 1695.98 282.15 Q1695.98 276.039 1698.92 272.289 Q1701.88 268.539 1706.58 268.539 Q1709.45 268.539 1711.49 269.673 Q1713.55 270.784 1714.89 273.099 L1714.89 269.164 L1719.15 269.164 L1719.15 304.951 L1714.89 304.951 L1714.89 291.201 Z" fill="#000000" fill-rule="evenodd" fill-opacity="1" /><path clip-path="url(#clip700)" d="M 0 0 M1724.36 294.372 L1724.36 290.113 Q1726.12 290.946 1727.92 291.386 Q1729.73 291.826 1731.47 291.826 Q1736.1 291.826 1738.53 288.724 Q1740.98 285.599 1741.33 279.256 Q1739.98 281.247 1737.92 282.312 Q1735.86 283.377 1733.36 283.377 Q1728.18 283.377 1725.15 280.252 Q1722.14 277.104 1722.14 271.664 Q1722.14 266.34 1725.29 263.122 Q1728.43 259.905 1733.67 259.905 Q1739.66 259.905 1742.81 264.511 Q1745.98 269.094 1745.98 277.844 Q1745.98 286.016 1742.09 290.9 Q1738.23 295.761 1731.67 295.761 Q1729.92 295.761 1728.11 295.414 Q1726.3 295.066 1724.36 294.372 M1733.67 279.719 Q1736.81 279.719 1738.64 277.566 Q1740.49 275.414 1740.49 271.664 Q1740.49 267.937 1738.64 265.784 Q1736.81 263.608 1733.67 263.608 Q1730.52 263.608 1728.67 265.784 Q1726.84 267.937 1726.84 271.664 Q1726.84 275.414 1728.67 277.566 Q1730.52 279.719 1733.67 279.719 Z" fill="#000000" fill-rule="evenodd" fill-opacity="1" /><path clip-path="url(#clip700)" d="M 0 0 M1751.1 260.53 L1769.45 260.53 L1769.45 264.465 L1755.38 264.465 L1755.38 272.937 Q1756.4 272.59 1757.42 272.428 Q1758.43 272.242 1759.45 272.242 Q1765.24 272.242 1768.62 275.414 Q1772 278.585 1772 284.002 Q1772 289.58 1768.53 292.682 Q1765.05 295.761 1758.73 295.761 Q1756.56 295.761 1754.29 295.39 Q1752.04 295.02 1749.64 294.279 L1749.64 289.58 Q1751.72 290.715 1753.94 291.27 Q1756.17 291.826 1758.64 291.826 Q1762.65 291.826 1764.98 289.719 Q1767.32 287.613 1767.32 284.002 Q1767.32 280.391 1764.98 278.284 Q1762.65 276.178 1758.64 276.178 Q1756.77 276.178 1754.89 276.594 Q1753.04 277.011 1751.1 277.891 L1751.1 260.53 Z" fill="#000000" fill-rule="evenodd" fill-opacity="1" /><polyline clip-path="url(#clip700)" style="stroke:#0000ff; stroke-width:4; stroke-opacity:1; fill:none" points="
  1519.75,338.29 1670.81,338.29 
  "/>
<path clip-path="url(#clip700)" d="M 0 0 M1716.33 334.621 Q1717.92 331.75 1720.15 330.385 Q1722.37 329.019 1725.38 329.019 Q1729.43 329.019 1731.63 331.866 Q1733.83 334.69 1733.83 339.921 L1733.83 355.57 L1729.54 355.57 L1729.54 340.06 Q1729.54 336.334 1728.23 334.528 Q1726.91 332.722 1724.2 332.722 Q1720.89 332.722 1718.97 334.922 Q1717.04 337.121 1717.04 340.917 L1717.04 355.57 L1712.76 355.57 L1712.76 340.06 Q1712.76 336.31 1711.44 334.528 Q1710.12 332.722 1707.37 332.722 Q1704.11 332.722 1702.18 334.945 Q1700.26 337.144 1700.26 340.917 L1700.26 355.57 L1695.98 355.57 L1695.98 329.644 L1700.26 329.644 L1700.26 333.672 Q1701.72 331.287 1703.76 330.153 Q1705.79 329.019 1708.6 329.019 Q1711.42 329.019 1713.39 330.454 Q1715.38 331.889 1716.33 334.621 Z" fill="#000000" fill-rule="evenodd" fill-opacity="1" /><path clip-path="url(#clip700)" d="M 0 0 M1760.47 341.542 L1760.47 343.625 L1740.89 343.625 Q1741.17 348.023 1743.53 350.338 Q1745.91 352.63 1750.15 352.63 Q1752.6 352.63 1754.89 352.028 Q1757.21 351.426 1759.48 350.222 L1759.48 354.25 Q1757.18 355.222 1754.78 355.732 Q1752.37 356.241 1749.89 356.241 Q1743.69 356.241 1740.05 352.63 Q1736.44 349.019 1736.44 342.861 Q1736.44 336.496 1739.87 332.769 Q1743.32 329.019 1749.15 329.019 Q1754.38 329.019 1757.42 332.398 Q1760.47 335.755 1760.47 341.542 M1756.21 340.292 Q1756.17 336.797 1754.24 334.713 Q1752.35 332.63 1749.2 332.63 Q1745.63 332.63 1743.48 334.644 Q1741.35 336.658 1741.03 340.315 L1756.21 340.292 Z" fill="#000000" fill-rule="evenodd" fill-opacity="1" /><path clip-path="url(#clip700)" d="M 0 0 M1776.72 342.537 Q1771.56 342.537 1769.57 343.718 Q1767.58 344.898 1767.58 347.746 Q1767.58 350.014 1769.06 351.357 Q1770.56 352.676 1773.13 352.676 Q1776.67 352.676 1778.8 350.176 Q1780.96 347.653 1780.96 343.486 L1780.96 342.537 L1776.72 342.537 M1785.22 340.778 L1785.22 355.57 L1780.96 355.57 L1780.96 351.634 Q1779.5 353.995 1777.32 355.13 Q1775.15 356.241 1772 356.241 Q1768.02 356.241 1765.66 354.019 Q1763.32 351.773 1763.32 348.023 Q1763.32 343.648 1766.23 341.426 Q1769.17 339.204 1774.98 339.204 L1780.96 339.204 L1780.96 338.787 Q1780.96 335.847 1779.01 334.25 Q1777.09 332.63 1773.6 332.63 Q1771.37 332.63 1769.27 333.162 Q1767.16 333.695 1765.22 334.759 L1765.22 330.824 Q1767.55 329.922 1769.75 329.482 Q1771.95 329.019 1774.04 329.019 Q1779.66 329.019 1782.44 331.935 Q1785.22 334.852 1785.22 340.778 Z" fill="#000000" fill-rule="evenodd" fill-opacity="1" /><path clip-path="url(#clip700)" d="M 0 0 M1811.23 339.921 L1811.23 355.57 L1806.97 355.57 L1806.97 340.06 Q1806.97 336.38 1805.54 334.551 Q1804.1 332.722 1801.23 332.722 Q1797.79 332.722 1795.79 334.922 Q1793.8 337.121 1793.8 340.917 L1793.8 355.57 L1789.52 355.57 L1789.52 329.644 L1793.8 329.644 L1793.8 333.672 Q1795.33 331.334 1797.39 330.176 Q1799.48 329.019 1802.18 329.019 Q1806.65 329.019 1808.94 331.797 Q1811.23 334.551 1811.23 339.921 Z" fill="#000000" fill-rule="evenodd" fill-opacity="1" /><polyline clip-path="url(#clip700)" style="stroke:#000000; stroke-width:4; stroke-opacity:1; fill:none" points="
  1519.75,398.77 1670.81,398.77 
  "/>
<path clip-path="url(#clip700)" d="M 0 0 M1716.33 395.101 Q1717.92 392.23 1720.15 390.865 Q1722.37 389.499 1725.38 389.499 Q1729.43 389.499 1731.63 392.346 Q1733.83 395.17 1733.83 400.401 L1733.83 416.05 L1729.54 416.05 L1729.54 400.54 Q1729.54 396.814 1728.23 395.008 Q1726.91 393.202 1724.2 393.202 Q1720.89 393.202 1718.97 395.402 Q1717.04 397.601 1717.04 401.397 L1717.04 416.05 L1712.76 416.05 L1712.76 400.54 Q1712.76 396.79 1711.44 395.008 Q1710.12 393.202 1707.37 393.202 Q1704.11 393.202 1702.18 395.425 Q1700.26 397.624 1700.26 401.397 L1700.26 416.05 L1695.98 416.05 L1695.98 390.124 L1700.26 390.124 L1700.26 394.152 Q1701.72 391.767 1703.76 390.633 Q1705.79 389.499 1708.6 389.499 Q1711.42 389.499 1713.39 390.934 Q1715.38 392.369 1716.33 395.101 Z" fill="#000000" fill-rule="evenodd" fill-opacity="1" /><path clip-path="url(#clip700)" d="M 0 0 M1760.47 402.022 L1760.47 404.105 L1740.89 404.105 Q1741.17 408.503 1743.53 410.818 Q1745.91 413.11 1750.15 413.11 Q1752.6 413.11 1754.89 412.508 Q1757.21 411.906 1759.48 410.702 L1759.48 414.73 Q1757.18 415.702 1754.78 416.212 Q1752.37 416.721 1749.89 416.721 Q1743.69 416.721 1740.05 413.11 Q1736.44 409.499 1736.44 403.341 Q1736.44 396.976 1739.87 393.249 Q1743.32 389.499 1749.15 389.499 Q1754.38 389.499 1757.42 392.878 Q1760.47 396.235 1760.47 402.022 M1756.21 400.772 Q1756.17 397.277 1754.24 395.193 Q1752.35 393.11 1749.2 393.11 Q1745.63 393.11 1743.48 395.124 Q1741.35 397.138 1741.03 400.795 L1756.21 400.772 Z" fill="#000000" fill-rule="evenodd" fill-opacity="1" /><path clip-path="url(#clip700)" d="M 0 0 M1782 394.059 L1782 380.031 L1786.26 380.031 L1786.26 416.05 L1782 416.05 L1782 412.161 Q1780.66 414.475 1778.6 415.61 Q1776.56 416.721 1773.69 416.721 Q1768.99 416.721 1766.03 412.971 Q1763.09 409.221 1763.09 403.11 Q1763.09 396.999 1766.03 393.249 Q1768.99 389.499 1773.69 389.499 Q1776.56 389.499 1778.6 390.633 Q1780.66 391.744 1782 394.059 M1767.48 403.11 Q1767.48 407.809 1769.41 410.494 Q1771.35 413.156 1774.73 413.156 Q1778.11 413.156 1780.05 410.494 Q1782 407.809 1782 403.11 Q1782 398.411 1780.05 395.749 Q1778.11 393.064 1774.73 393.064 Q1771.35 393.064 1769.41 395.749 Q1767.48 398.411 1767.48 403.11 Z" fill="#000000" fill-rule="evenodd" fill-opacity="1" /><path clip-path="url(#clip700)" d="M 0 0 M1790.73 390.124 L1794.98 390.124 L1794.98 416.05 L1790.73 416.05 L1790.73 390.124 M1790.73 380.031 L1794.98 380.031 L1794.98 385.425 L1790.73 385.425 L1790.73 380.031 Z" fill="#000000" fill-rule="evenodd" fill-opacity="1" /><path clip-path="url(#clip700)" d="M 0 0 M1811.23 403.017 Q1806.07 403.017 1804.08 404.198 Q1802.09 405.378 1802.09 408.226 Q1802.09 410.494 1803.57 411.837 Q1805.08 413.156 1807.65 413.156 Q1811.19 413.156 1813.32 410.656 Q1815.47 408.133 1815.47 403.966 L1815.47 403.017 L1811.23 403.017 M1819.73 401.258 L1819.73 416.05 L1815.47 416.05 L1815.47 412.114 Q1814.01 414.475 1811.84 415.61 Q1809.66 416.721 1806.51 416.721 Q1802.53 416.721 1800.17 414.499 Q1797.83 412.253 1797.83 408.503 Q1797.83 404.128 1800.75 401.906 Q1803.69 399.684 1809.5 399.684 L1815.47 399.684 L1815.47 399.267 Q1815.47 396.327 1813.53 394.73 Q1811.6 393.11 1808.11 393.11 Q1805.89 393.11 1803.78 393.642 Q1801.67 394.175 1799.73 395.239 L1799.73 391.304 Q1802.07 390.402 1804.27 389.962 Q1806.47 389.499 1808.55 389.499 Q1814.17 389.499 1816.95 392.415 Q1819.73 395.332 1819.73 401.258 Z" fill="#000000" fill-rule="evenodd" fill-opacity="1" /><path clip-path="url(#clip700)" d="M 0 0 M1845.75 400.401 L1845.75 416.05 L1841.49 416.05 L1841.49 400.54 Q1841.49 396.86 1840.05 395.031 Q1838.62 393.202 1835.75 393.202 Q1832.3 393.202 1830.31 395.402 Q1828.32 397.601 1828.32 401.397 L1828.32 416.05 L1824.04 416.05 L1824.04 390.124 L1828.32 390.124 L1828.32 394.152 Q1829.85 391.814 1831.91 390.656 Q1833.99 389.499 1836.7 389.499 Q1841.16 389.499 1843.46 392.277 Q1845.75 395.031 1845.75 400.401 Z" fill="#000000" fill-rule="evenodd" fill-opacity="1" /></svg>
