<?xml version="1.0" encoding="utf-8"?>
<svg xmlns="http://www.w3.org/2000/svg" xmlns:xlink="http://www.w3.org/1999/xlink" width="600" height="400" viewBox="0 0 2400 1600">
<defs>
  <clipPath id="clip520">
    <rect x="0" y="0" width="2400" height="1600"/>
  </clipPath>
</defs>
<path clip-path="url(#clip520)" d="
M0 1600 L2400 1600 L2400 0 L0 0  Z
  " fill="#ffffff" fill-rule="evenodd" fill-opacity="1"/>
<defs>
  <clipPath id="clip521">
    <rect x="480" y="0" width="1681" height="1600"/>
  </clipPath>
</defs>
<path clip-path="url(#clip520)" d="
M86.9921 1521.01 L2352.76 1521.01 L2352.76 47.2441 L86.9921 47.2441  Z
  " fill="#ffffff" fill-rule="evenodd" fill-opacity="1"/>
<defs>
  <clipPath id="clip522">
    <rect x="86" y="47" width="2267" height="1475"/>
  </clipPath>
</defs>
<polyline clip-path="url(#clip522)" style="stroke:#000000; stroke-width:2; stroke-opacity:0.1; fill:none" points="
  470.537,1521.01 470.537,47.2441 
  "/>
<polyline clip-path="url(#clip522)" style="stroke:#000000; stroke-width:2; stroke-opacity:0.1; fill:none" points="
  1077.26,1521.01 1077.26,47.2441 
  "/>
<polyline clip-path="url(#clip522)" style="stroke:#000000; stroke-width:2; stroke-opacity:0.1; fill:none" points="
  1683.98,1521.01 1683.98,47.2441 
  "/>
<polyline clip-path="url(#clip522)" style="stroke:#000000; stroke-width:2; stroke-opacity:0.1; fill:none" points="
  2290.7,1521.01 2290.7,47.2441 
  "/>
<polyline clip-path="url(#clip522)" style="stroke:#000000; stroke-width:2; stroke-opacity:0.1; fill:none" points="
  86.9921,1479.3 2352.76,1479.3 
  "/>
<polyline clip-path="url(#clip522)" style="stroke:#000000; stroke-width:2; stroke-opacity:0.1; fill:none" points="
  86.9921,1186.28 2352.76,1186.28 
  "/>
<polyline clip-path="url(#clip522)" style="stroke:#000000; stroke-width:2; stroke-opacity:0.1; fill:none" points="
  86.9921,893.259 2352.76,893.259 
  "/>
<polyline clip-path="url(#clip522)" style="stroke:#000000; stroke-width:2; stroke-opacity:0.1; fill:none" points="
  86.9921,600.239 2352.76,600.239 
  "/>
<polyline clip-path="url(#clip522)" style="stroke:#000000; stroke-width:2; stroke-opacity:0.1; fill:none" points="
  86.9921,307.22 2352.76,307.22 
  "/>
<polyline clip-path="url(#clip520)" style="stroke:#000000; stroke-width:4; stroke-opacity:1; fill:none" points="
  86.9921,1521.01 2352.76,1521.01 
  "/>
<polyline clip-path="url(#clip520)" style="stroke:#000000; stroke-width:4; stroke-opacity:1; fill:none" points="
  86.9921,1521.01 86.9921,47.2441 
  "/>
<polyline clip-path="url(#clip520)" style="stroke:#000000; stroke-width:4; stroke-opacity:1; fill:none" points="
  470.537,1521.01 470.537,1503.32 
  "/>
<polyline clip-path="url(#clip520)" style="stroke:#000000; stroke-width:4; stroke-opacity:1; fill:none" points="
  1077.26,1521.01 1077.26,1503.32 
  "/>
<polyline clip-path="url(#clip520)" style="stroke:#000000; stroke-width:4; stroke-opacity:1; fill:none" points="
  1683.98,1521.01 1683.98,1503.32 
  "/>
<polyline clip-path="url(#clip520)" style="stroke:#000000; stroke-width:4; stroke-opacity:1; fill:none" points="
  2290.7,1521.01 2290.7,1503.32 
  "/>
<polyline clip-path="url(#clip520)" style="stroke:#000000; stroke-width:4; stroke-opacity:1; fill:none" points="
  86.9921,1479.3 114.181,1479.3 
  "/>
<polyline clip-path="url(#clip520)" style="stroke:#000000; stroke-width:4; stroke-opacity:1; fill:none" points="
  86.9921,1186.28 114.181,1186.28 
  "/>
<polyline clip-path="url(#clip520)" style="stroke:#000000; stroke-width:4; stroke-opacity:1; fill:none" points="
  86.9921,893.259 114.181,893.259 
  "/>
<polyline clip-path="url(#clip520)" style="stroke:#000000; stroke-width:4; stroke-opacity:1; fill:none" points="
  86.9921,600.239 114.181,600.239 
  "/>
<polyline clip-path="url(#clip520)" style="stroke:#000000; stroke-width:4; stroke-opacity:1; fill:none" points="
  86.9921,307.22 114.181,307.22 
  "/>
<path clip-path="url(#clip520)" d="M 0 0 M419.299 1559.6 L431.776 1559.6 L431.776 1563.39 L419.299 1563.39 L419.299 1559.6 Z" fill="#000000" fill-rule="evenodd" fill-opacity="1" /><path clip-path="url(#clip520)" d="M 0 0 M446.845 1543 Q443.234 1543 441.405 1546.56 Q439.6 1550.11 439.6 1557.23 Q439.6 1564.34 441.405 1567.91 Q443.234 1571.45 446.845 1571.45 Q450.479 1571.45 452.285 1567.91 Q454.113 1564.34 454.113 1557.23 Q454.113 1550.11 452.285 1546.56 Q450.479 1543 446.845 1543 M446.845 1539.29 Q452.655 1539.29 455.711 1543.9 Q458.789 1548.48 458.789 1557.23 Q458.789 1565.96 455.711 1570.57 Q452.655 1575.15 446.845 1575.15 Q441.035 1575.15 437.956 1570.57 Q434.901 1565.96 434.901 1557.23 Q434.901 1548.48 437.956 1543.9 Q441.035 1539.29 446.845 1539.29 Z" fill="#000000" fill-rule="evenodd" fill-opacity="1" /><path clip-path="url(#clip520)" d="M 0 0 M463.859 1568.6 L468.743 1568.6 L468.743 1574.48 L463.859 1574.48 L463.859 1568.6 Z" fill="#000000" fill-rule="evenodd" fill-opacity="1" /><path clip-path="url(#clip520)" d="M 0 0 M483.812 1543 Q480.201 1543 478.373 1546.56 Q476.567 1550.11 476.567 1557.23 Q476.567 1564.34 478.373 1567.91 Q480.201 1571.45 483.812 1571.45 Q487.447 1571.45 489.252 1567.91 Q491.081 1564.34 491.081 1557.23 Q491.081 1550.11 489.252 1546.56 Q487.447 1543 483.812 1543 M483.812 1539.29 Q489.623 1539.29 492.678 1543.9 Q495.757 1548.48 495.757 1557.23 Q495.757 1565.96 492.678 1570.57 Q489.623 1575.15 483.812 1575.15 Q478.002 1575.15 474.924 1570.57 Q471.868 1565.96 471.868 1557.23 Q471.868 1548.48 474.924 1543.9 Q478.002 1539.29 483.812 1539.29 Z" fill="#000000" fill-rule="evenodd" fill-opacity="1" /><path clip-path="url(#clip520)" d="M 0 0 M500.872 1539.92 L519.229 1539.92 L519.229 1543.86 L505.155 1543.86 L505.155 1552.33 Q506.173 1551.98 507.192 1551.82 Q508.21 1551.63 509.229 1551.63 Q515.016 1551.63 518.396 1554.8 Q521.775 1557.98 521.775 1563.39 Q521.775 1568.97 518.303 1572.07 Q514.831 1575.15 508.511 1575.15 Q506.335 1575.15 504.067 1574.78 Q501.822 1574.41 499.414 1573.67 L499.414 1568.97 Q501.497 1570.1 503.72 1570.66 Q505.942 1571.22 508.419 1571.22 Q512.423 1571.22 514.761 1569.11 Q517.099 1567 517.099 1563.39 Q517.099 1559.78 514.761 1557.67 Q512.423 1555.57 508.419 1555.57 Q506.544 1555.57 504.669 1555.98 Q502.817 1556.4 500.872 1557.28 L500.872 1539.92 Z" fill="#000000" fill-rule="evenodd" fill-opacity="1" /><path clip-path="url(#clip520)" d="M 0 0 M1045.27 1543 Q1041.66 1543 1039.83 1546.56 Q1038.02 1550.11 1038.02 1557.23 Q1038.02 1564.34 1039.83 1567.91 Q1041.66 1571.45 1045.27 1571.45 Q1048.9 1571.45 1050.71 1567.91 Q1052.54 1564.34 1052.54 1557.23 Q1052.54 1550.11 1050.71 1546.56 Q1048.9 1543 1045.27 1543 M1045.27 1539.29 Q1051.08 1539.29 1054.13 1543.9 Q1057.21 1548.48 1057.21 1557.23 Q1057.21 1565.96 1054.13 1570.57 Q1051.08 1575.15 1045.27 1575.15 Q1039.46 1575.15 1036.38 1570.57 Q1033.32 1565.96 1033.32 1557.23 Q1033.32 1548.48 1036.38 1543.9 Q1039.46 1539.29 1045.27 1539.29 Z" fill="#000000" fill-rule="evenodd" fill-opacity="1" /><path clip-path="url(#clip520)" d="M 0 0 M1062.28 1568.6 L1067.17 1568.6 L1067.17 1574.48 L1062.28 1574.48 L1062.28 1568.6 Z" fill="#000000" fill-rule="evenodd" fill-opacity="1" /><path clip-path="url(#clip520)" d="M 0 0 M1082.23 1543 Q1078.62 1543 1076.79 1546.56 Q1074.99 1550.11 1074.99 1557.23 Q1074.99 1564.34 1076.79 1567.91 Q1078.62 1571.45 1082.23 1571.45 Q1085.87 1571.45 1087.67 1567.91 Q1089.5 1564.34 1089.5 1557.23 Q1089.5 1550.11 1087.67 1546.56 Q1085.87 1543 1082.23 1543 M1082.23 1539.29 Q1088.04 1539.29 1091.1 1543.9 Q1094.18 1548.48 1094.18 1557.23 Q1094.18 1565.96 1091.1 1570.57 Q1088.04 1575.15 1082.23 1575.15 Q1076.42 1575.15 1073.35 1570.57 Q1070.29 1565.96 1070.29 1557.23 Q1070.29 1548.48 1073.35 1543.9 Q1076.42 1539.29 1082.23 1539.29 Z" fill="#000000" fill-rule="evenodd" fill-opacity="1" /><path clip-path="url(#clip520)" d="M 0 0 M1109.25 1543 Q1105.64 1543 1103.81 1546.56 Q1102 1550.11 1102 1557.23 Q1102 1564.34 1103.81 1567.91 Q1105.64 1571.45 1109.25 1571.45 Q1112.88 1571.45 1114.69 1567.91 Q1116.52 1564.34 1116.52 1557.23 Q1116.52 1550.11 1114.69 1546.56 Q1112.88 1543 1109.25 1543 M1109.25 1539.29 Q1115.06 1539.29 1118.11 1543.9 Q1121.19 1548.48 1121.19 1557.23 Q1121.19 1565.96 1118.11 1570.57 Q1115.06 1575.15 1109.25 1575.15 Q1103.44 1575.15 1100.36 1570.57 Q1097.3 1565.96 1097.3 1557.23 Q1097.3 1548.48 1100.36 1543.9 Q1103.44 1539.29 1109.25 1539.29 Z" fill="#000000" fill-rule="evenodd" fill-opacity="1" /><path clip-path="url(#clip520)" d="M 0 0 M1652.49 1543 Q1648.87 1543 1647.05 1546.56 Q1645.24 1550.11 1645.24 1557.23 Q1645.24 1564.34 1647.05 1567.91 Q1648.87 1571.45 1652.49 1571.45 Q1656.12 1571.45 1657.93 1567.91 Q1659.75 1564.34 1659.75 1557.23 Q1659.75 1550.11 1657.93 1546.56 Q1656.12 1543 1652.49 1543 M1652.49 1539.29 Q1658.3 1539.29 1661.35 1543.9 Q1664.43 1548.48 1664.43 1557.23 Q1664.43 1565.96 1661.35 1570.57 Q1658.3 1575.15 1652.49 1575.15 Q1646.68 1575.15 1643.6 1570.57 Q1640.54 1565.96 1640.54 1557.23 Q1640.54 1548.48 1643.6 1543.9 Q1646.68 1539.29 1652.49 1539.29 Z" fill="#000000" fill-rule="evenodd" fill-opacity="1" /><path clip-path="url(#clip520)" d="M 0 0 M1669.5 1568.6 L1674.38 1568.6 L1674.38 1574.48 L1669.5 1574.48 L1669.5 1568.6 Z" fill="#000000" fill-rule="evenodd" fill-opacity="1" /><path clip-path="url(#clip520)" d="M 0 0 M1689.45 1543 Q1685.84 1543 1684.01 1546.56 Q1682.21 1550.11 1682.21 1557.23 Q1682.21 1564.34 1684.01 1567.91 Q1685.84 1571.45 1689.45 1571.45 Q1693.09 1571.45 1694.89 1567.91 Q1696.72 1564.34 1696.72 1557.23 Q1696.72 1550.11 1694.89 1546.56 Q1693.09 1543 1689.45 1543 M1689.45 1539.29 Q1695.26 1539.29 1698.32 1543.9 Q1701.4 1548.48 1701.4 1557.23 Q1701.4 1565.96 1698.32 1570.57 Q1695.26 1575.15 1689.45 1575.15 Q1683.64 1575.15 1680.56 1570.57 Q1677.51 1565.96 1677.51 1557.23 Q1677.51 1548.48 1680.56 1543.9 Q1683.64 1539.29 1689.45 1539.29 Z" fill="#000000" fill-rule="evenodd" fill-opacity="1" /><path clip-path="url(#clip520)" d="M 0 0 M1706.51 1539.92 L1724.87 1539.92 L1724.87 1543.86 L1710.8 1543.86 L1710.8 1552.33 Q1711.81 1551.98 1712.83 1551.82 Q1713.85 1551.63 1714.87 1551.63 Q1720.66 1551.63 1724.04 1554.8 Q1727.42 1557.98 1727.42 1563.39 Q1727.42 1568.97 1723.94 1572.07 Q1720.47 1575.15 1714.15 1575.15 Q1711.98 1575.15 1709.71 1574.78 Q1707.46 1574.41 1705.05 1573.67 L1705.05 1568.97 Q1707.14 1570.1 1709.36 1570.66 Q1711.58 1571.22 1714.06 1571.22 Q1718.06 1571.22 1720.4 1569.11 Q1722.74 1567 1722.74 1563.39 Q1722.74 1559.78 1720.4 1557.67 Q1718.06 1555.57 1714.06 1555.57 Q1712.18 1555.57 1710.31 1555.98 Q1708.46 1556.4 1706.51 1557.28 L1706.51 1539.92 Z" fill="#000000" fill-rule="evenodd" fill-opacity="1" /><path clip-path="url(#clip520)" d="M 0 0 M2259.32 1543 Q2255.71 1543 2253.88 1546.56 Q2252.08 1550.11 2252.08 1557.23 Q2252.08 1564.34 2253.88 1567.91 Q2255.71 1571.45 2259.32 1571.45 Q2262.96 1571.45 2264.76 1567.91 Q2266.59 1564.34 2266.59 1557.23 Q2266.59 1550.11 2264.76 1546.56 Q2262.96 1543 2259.32 1543 M2259.32 1539.29 Q2265.13 1539.29 2268.19 1543.9 Q2271.27 1548.48 2271.27 1557.23 Q2271.27 1565.96 2268.19 1570.57 Q2265.13 1575.15 2259.32 1575.15 Q2253.51 1575.15 2250.43 1570.57 Q2247.38 1565.96 2247.38 1557.23 Q2247.38 1548.48 2250.43 1543.9 Q2253.51 1539.29 2259.32 1539.29 Z" fill="#000000" fill-rule="evenodd" fill-opacity="1" /><path clip-path="url(#clip520)" d="M 0 0 M2276.34 1568.6 L2281.22 1568.6 L2281.22 1574.48 L2276.34 1574.48 L2276.34 1568.6 Z" fill="#000000" fill-rule="evenodd" fill-opacity="1" /><path clip-path="url(#clip520)" d="M 0 0 M2287.1 1570.54 L2294.74 1570.54 L2294.74 1544.18 L2286.43 1545.85 L2286.43 1541.59 L2294.69 1539.92 L2299.37 1539.92 L2299.37 1570.54 L2307.01 1570.54 L2307.01 1574.48 L2287.1 1574.48 L2287.1 1570.54 Z" fill="#000000" fill-rule="evenodd" fill-opacity="1" /><path clip-path="url(#clip520)" d="M 0 0 M2322.08 1543 Q2318.47 1543 2316.64 1546.56 Q2314.83 1550.11 2314.83 1557.23 Q2314.83 1564.34 2316.64 1567.91 Q2318.47 1571.45 2322.08 1571.45 Q2325.71 1571.45 2327.52 1567.91 Q2329.35 1564.34 2329.35 1557.23 Q2329.35 1550.11 2327.52 1546.56 Q2325.71 1543 2322.08 1543 M2322.08 1539.29 Q2327.89 1539.29 2330.94 1543.9 Q2334.02 1548.48 2334.02 1557.23 Q2334.02 1565.96 2330.94 1570.57 Q2327.89 1575.15 2322.08 1575.15 Q2316.27 1575.15 2313.19 1570.57 Q2310.13 1565.96 2310.13 1557.23 Q2310.13 1548.48 2313.19 1543.9 Q2316.27 1539.29 2322.08 1539.29 Z" fill="#000000" fill-rule="evenodd" fill-opacity="1" /><path clip-path="url(#clip520)" d="M 0 0 M51.0477 1465.1 Q47.4367 1465.1 45.608 1468.66 Q43.8024 1472.2 43.8024 1479.33 Q43.8024 1486.44 45.608 1490 Q47.4367 1493.55 51.0477 1493.55 Q54.682 1493.55 56.4875 1490 Q58.3162 1486.44 58.3162 1479.33 Q58.3162 1472.2 56.4875 1468.66 Q54.682 1465.1 51.0477 1465.1 M51.0477 1461.39 Q56.8579 1461.39 59.9134 1466 Q62.9921 1470.58 62.9921 1479.33 Q62.9921 1488.06 59.9134 1492.67 Q56.8579 1497.25 51.0477 1497.25 Q45.2376 1497.25 42.1589 1492.67 Q39.1034 1488.06 39.1034 1479.33 Q39.1034 1470.58 42.1589 1466 Q45.2376 1461.39 51.0477 1461.39 Z" fill="#000000" fill-rule="evenodd" fill-opacity="1" /><path clip-path="url(#clip520)" d="M 0 0 M55.8625 1184.92 Q59.219 1185.64 61.094 1187.91 Q62.9921 1190.18 62.9921 1193.51 Q62.9921 1198.63 59.4736 1201.43 Q55.9551 1204.23 49.4737 1204.23 Q47.2978 1204.23 44.983 1203.79 Q42.6913 1203.37 40.2376 1202.52 L40.2376 1198 Q42.1821 1199.14 44.4969 1199.72 Q46.8117 1200.29 49.3348 1200.29 Q53.7329 1200.29 56.0246 1198.56 Q58.3394 1196.82 58.3394 1193.51 Q58.3394 1190.46 56.1866 1188.74 Q54.057 1187.01 50.2376 1187.01 L46.2098 1187.01 L46.2098 1183.16 L50.4227 1183.16 Q53.8718 1183.16 55.7005 1181.8 Q57.5292 1180.41 57.5292 1177.82 Q57.5292 1175.16 55.6311 1173.74 Q53.7561 1172.31 50.2376 1172.31 Q48.3163 1172.31 46.1172 1172.73 Q43.9182 1173.14 41.2793 1174.02 L41.2793 1169.85 Q43.9413 1169.11 46.2561 1168.74 Q48.5941 1168.37 50.6542 1168.37 Q55.9783 1168.37 59.0801 1170.8 Q62.1819 1173.21 62.1819 1177.33 Q62.1819 1180.2 60.5384 1182.19 Q58.8949 1184.16 55.8625 1184.92 Z" fill="#000000" fill-rule="evenodd" fill-opacity="1" /><path clip-path="url(#clip520)" d="M 0 0 M51.4644 891.395 Q48.3163 891.395 46.4644 893.548 Q44.6357 895.701 44.6357 899.451 Q44.6357 903.178 46.4644 905.354 Q48.3163 907.506 51.4644 907.506 Q54.6125 907.506 56.4412 905.354 Q58.2931 903.178 58.2931 899.451 Q58.2931 895.701 56.4412 893.548 Q54.6125 891.395 51.4644 891.395 M60.7468 876.743 L60.7468 881.002 Q58.9875 880.169 57.182 879.729 Q55.3996 879.289 53.6403 879.289 Q49.0107 879.289 46.557 882.414 Q44.1265 885.539 43.7793 891.858 Q45.145 889.844 47.2052 888.78 Q49.2653 887.692 51.7422 887.692 Q56.9505 887.692 59.9597 890.863 Q62.9921 894.011 62.9921 899.451 Q62.9921 904.775 59.844 907.993 Q56.6959 911.21 51.4644 911.21 Q45.4691 911.21 42.2978 906.627 Q39.1265 902.02 39.1265 893.294 Q39.1265 885.099 43.0154 880.238 Q46.9042 875.354 53.4551 875.354 Q55.2144 875.354 56.9968 875.701 Q58.8023 876.048 60.7468 876.743 Z" fill="#000000" fill-rule="evenodd" fill-opacity="1" /><path clip-path="url(#clip520)" d="M 0 0 M41.3719 616.802 L41.3719 612.543 Q43.1311 613.376 44.9367 613.816 Q46.7422 614.256 48.4783 614.256 Q53.1079 614.256 55.5385 611.154 Q57.9922 608.029 58.3394 601.686 Q56.9968 603.677 54.9366 604.742 Q52.8764 605.806 50.3765 605.806 Q45.1913 605.806 42.1589 602.682 Q39.1497 599.533 39.1497 594.094 Q39.1497 588.77 42.2978 585.552 Q45.4459 582.334 50.6774 582.334 Q56.6727 582.334 59.8208 586.941 Q62.9921 591.524 62.9921 600.274 Q62.9921 608.445 59.1033 613.33 Q55.2375 618.191 48.6866 618.191 Q46.9274 618.191 45.1219 617.843 Q43.3163 617.496 41.3719 616.802 M50.6774 602.149 Q53.8255 602.149 55.6542 599.996 Q57.506 597.844 57.506 594.094 Q57.506 590.367 55.6542 588.214 Q53.8255 586.038 50.6774 586.038 Q47.5292 586.038 45.6774 588.214 Q43.8487 590.367 43.8487 594.094 Q43.8487 597.844 45.6774 599.996 Q47.5292 602.149 50.6774 602.149 Z" fill="#000000" fill-rule="evenodd" fill-opacity="1" /><path clip-path="url(#clip520)" d="M 0 0 M17.6683 320.565 L25.3071 320.565 L25.3071 294.199 L16.997 295.866 L16.997 291.607 L25.2608 289.94 L29.9367 289.94 L29.9367 320.565 L37.5756 320.565 L37.5756 324.5 L17.6683 324.5 L17.6683 320.565 Z" fill="#000000" fill-rule="evenodd" fill-opacity="1" /><path clip-path="url(#clip520)" d="M 0 0 M46.6728 320.565 L62.9921 320.565 L62.9921 324.5 L41.0478 324.5 L41.0478 320.565 Q43.7098 317.81 48.2931 313.181 Q52.8996 308.528 54.0801 307.185 Q56.3255 304.662 57.2051 302.926 Q58.1079 301.167 58.1079 299.477 Q58.1079 296.722 56.1635 294.986 Q54.2422 293.25 51.1403 293.25 Q48.9413 293.25 46.4876 294.014 Q44.057 294.778 41.2793 296.329 L41.2793 291.607 Q44.1033 290.472 46.557 289.894 Q49.0107 289.315 51.0477 289.315 Q56.4181 289.315 59.6125 292 Q62.8069 294.685 62.8069 299.176 Q62.8069 301.306 61.9968 303.227 Q61.2097 305.125 59.1033 307.718 Q58.5246 308.389 55.4227 311.607 Q52.3209 314.801 46.6728 320.565 Z" fill="#000000" fill-rule="evenodd" fill-opacity="1" /><path clip-path="url(#clip522)" d="
M151.118 1468.16 L159.563 1468.28 L168.009 1468.68 L176.454 1469.31 L184.9 1470.11 L193.346 1471.01 L201.791 1471.93 L210.237 1472.78 L218.682 1473.51 L227.128 1474.06 
  L235.574 1474.37 L244.019 1474.43 L252.465 1474.23 L260.91 1473.78 L269.356 1473.09 L277.802 1472.21 L286.247 1471.17 L294.693 1470.02 L303.138 1468.83 L311.584 1467.63 
  L320.03 1466.48 L328.475 1465.42 L336.921 1464.5 L345.366 1463.74 L353.812 1463.16 L362.258 1462.77 L370.703 1462.57 L379.149 1462.55 L387.594 1462.68 L396.04 1462.93 
  L404.486 1463.24 L412.931 1463.57 L421.377 1463.84 L429.822 1463.98 L438.268 1463.92 L446.714 1463.58 L455.159 1462.92 L463.605 1461.91 L472.05 1460.54 L480.496 1458.82 
  L488.942 1456.81 L497.387 1454.54 L505.833 1452.08 L514.278 1449.49 L522.724 1446.82 L531.17 1444.1 L539.615 1441.38 L548.061 1438.67 L556.506 1436.02 L564.952 1433.45 
  L573.398 1431.01 L581.843 1428.78 L590.289 1426.83 L598.734 1425.23 L607.18 1424.04 L615.626 1423.32 L624.071 1423.07 L632.517 1423.24 L640.962 1423.76 L649.408 1424.49 
  L657.854 1425.28 L666.299 1425.95 L674.745 1426.31 L683.19 1426.2 L691.636 1425.48 L700.082 1424.05 L708.527 1421.86 L716.973 1418.91 L725.418 1415.22 L733.864 1410.85 
  L742.31 1405.85 L750.755 1400.28 L759.201 1394.16 L767.646 1387.51 L776.092 1380.3 L784.538 1372.49 L792.983 1364.05 L801.429 1354.97 L809.874 1345.28 L818.32 1335.09 
  L826.766 1324.6 L835.211 1314.07 L843.657 1303.84 L852.102 1294.24 L860.548 1285.61 L868.994 1278.19 L877.439 1272.09 L885.885 1267.26 L894.33 1263.49 L902.776 1260.41 
  L911.222 1257.55 L919.667 1254.36 L928.113 1250.34 L936.558 1245.08 L945.004 1238.3 L953.45 1229.91 L961.895 1220.03 L970.341 1208.91 L978.786 1196.95 L987.232 1184.59 
  L987.232 1479.3 L978.786 1479.3 L970.341 1479.3 L961.895 1479.3 L953.45 1479.3 L945.004 1479.3 L936.558 1479.3 L928.113 1479.3 L919.667 1479.3 L911.222 1479.3 
  L902.776 1479.3 L894.33 1479.3 L885.885 1479.3 L877.439 1479.3 L868.994 1479.3 L860.548 1479.3 L852.102 1479.3 L843.657 1479.3 L835.211 1479.3 L826.766 1479.3 
  L818.32 1479.3 L809.874 1479.3 L801.429 1479.3 L792.983 1479.3 L784.538 1479.3 L776.092 1479.3 L767.646 1479.3 L759.201 1479.3 L750.755 1479.3 L742.31 1479.3 
  L733.864 1479.3 L725.418 1479.3 L716.973 1479.3 L708.527 1479.3 L700.082 1479.3 L691.636 1479.3 L683.19 1479.3 L674.745 1479.3 L666.299 1479.3 L657.854 1479.3 
  L649.408 1479.3 L640.962 1479.3 L632.517 1479.3 L624.071 1479.3 L615.626 1479.3 L607.18 1479.3 L598.734 1479.3 L590.289 1479.3 L581.843 1479.3 L573.398 1479.3 
  L564.952 1479.3 L556.506 1479.3 L548.061 1479.3 L539.615 1479.3 L531.17 1479.3 L522.724 1479.3 L514.278 1479.3 L505.833 1479.3 L497.387 1479.3 L488.942 1479.3 
  L480.496 1479.3 L472.05 1479.3 L463.605 1479.3 L455.159 1479.3 L446.714 1479.3 L438.268 1479.3 L429.822 1479.3 L421.377 1479.3 L412.931 1479.3 L404.486 1479.3 
  L396.04 1479.3 L387.594 1479.3 L379.149 1479.3 L370.703 1479.3 L362.258 1479.3 L353.812 1479.3 L345.366 1479.3 L336.921 1479.3 L328.475 1479.3 L320.03 1479.3 
  L311.584 1479.3 L303.138 1479.3 L294.693 1479.3 L286.247 1479.3 L277.802 1479.3 L269.356 1479.3 L260.91 1479.3 L252.465 1479.3 L244.019 1479.3 L235.574 1479.3 
  L227.128 1479.3 L218.682 1479.3 L210.237 1479.3 L201.791 1479.3 L193.346 1479.3 L184.9 1479.3 L176.454 1479.3 L168.009 1479.3 L159.563 1479.3 L151.118 1479.3 
   Z
  " fill="#ffa500" fill-rule="evenodd" fill-opacity="0.5"/>
<polyline clip-path="url(#clip522)" style="stroke:#ffa500; stroke-width:4; stroke-opacity:1; fill:none" points="
  151.118,1468.16 159.563,1468.28 168.009,1468.68 176.454,1469.31 184.9,1470.11 193.346,1471.01 201.791,1471.93 210.237,1472.78 218.682,1473.51 227.128,1474.06 
  235.574,1474.37 244.019,1474.43 252.465,1474.23 260.91,1473.78 269.356,1473.09 277.802,1472.21 286.247,1471.17 294.693,1470.02 303.138,1468.83 311.584,1467.63 
  320.03,1466.48 328.475,1465.42 336.921,1464.5 345.366,1463.74 353.812,1463.16 362.258,1462.77 370.703,1462.57 379.149,1462.55 387.594,1462.68 396.04,1462.93 
  404.486,1463.24 412.931,1463.57 421.377,1463.84 429.822,1463.98 438.268,1463.92 446.714,1463.58 455.159,1462.92 463.605,1461.91 472.05,1460.54 480.496,1458.82 
  488.942,1456.81 497.387,1454.54 505.833,1452.08 514.278,1449.49 522.724,1446.82 531.17,1444.1 539.615,1441.38 548.061,1438.67 556.506,1436.02 564.952,1433.45 
  573.398,1431.01 581.843,1428.78 590.289,1426.83 598.734,1425.23 607.18,1424.04 615.626,1423.32 624.071,1423.07 632.517,1423.24 640.962,1423.76 649.408,1424.49 
  657.854,1425.28 666.299,1425.95 674.745,1426.31 683.19,1426.2 691.636,1425.48 700.082,1424.05 708.527,1421.86 716.973,1418.91 725.418,1415.22 733.864,1410.85 
  742.31,1405.85 750.755,1400.28 759.201,1394.16 767.646,1387.51 776.092,1380.3 784.538,1372.49 792.983,1364.05 801.429,1354.97 809.874,1345.28 818.32,1335.09 
  826.766,1324.6 835.211,1314.07 843.657,1303.84 852.102,1294.24 860.548,1285.61 868.994,1278.19 877.439,1272.09 885.885,1267.26 894.33,1263.49 902.776,1260.41 
  911.222,1257.55 919.667,1254.36 928.113,1250.34 936.558,1245.08 945.004,1238.3 953.45,1229.91 961.895,1220.03 970.341,1208.91 978.786,1196.95 987.232,1184.59 
  
  "/>
<path clip-path="url(#clip522)" d="
M987.232 1184.59 L999.193 1167.18 L1011.15 1150.65 L1023.12 1135.25 L1035.08 1120.52 L1047.04 1105.43 L1059 1088.67 L1070.96 1069.04 L1082.92 1045.87 L1094.88 1019.24 
  L1106.84 990.003 L1118.8 959.568 L1130.77 929.509 L1142.73 901.114 L1154.69 875.055 L1166.65 851.267 L1178.61 829.074 L1190.57 807.467 L1202.53 785.44 L1214.49 762.247 
  L1226.45 737.538 L1238.42 711.384 L1250.38 684.242 L1262.34 656.922 L1274.3 630.562 L1286.26 606.561 L1298.22 586.436 L1310.18 571.561 L1322.14 562.817 L1334.1 560.263 
  L1346.07 562.928 L1358.03 568.831 L1369.99 575.245 L1381.95 579.146 L1393.91 577.759 L1405.87 569.039 L1417.83 552.02 L1429.79 526.958 L1441.75 495.27 L1453.72 459.284 
  L1465.68 421.865 L1477.64 385.966 L1489.6 354.173 L1501.56 328.324 L1513.52 309.238 L1525.48 296.606 L1537.44 289.048 L1549.4 284.34 L1561.37 279.788 L1573.33 272.704 
  L1585.29 260.926 L1597.25 243.281 L1609.21 219.902 L1621.17 192.283 L1633.13 163.038 L1645.09 135.382 L1657.05 112.446 L1669.02 96.5952 L1680.98 88.9544 L1692.94 89.2539 
  L1704.9 96.0474 L1716.86 107.217 L1728.82 120.605 L1740.78 134.579 L1752.74 148.374 L1764.7 162.146 L1776.67 176.752 L1788.63 193.373 L1800.59 213.114 L1812.55 236.701 
  L1824.51 264.331 L1836.47 295.676 L1848.43 329.993 L1860.39 366.286 L1872.35 403.466 L1884.32 440.513 L1896.28 476.603 L1908.24 511.218 L1920.2 544.2 L1932.16 575.761 
  L1944.12 606.409 L1956.08 636.808 L1968.04 667.584 L1980 699.109 L1991.97 731.316 L2003.93 763.616 L2015.89 794.938 L2027.85 823.903 L2039.81 849.101 L2051.77 869.379 
  L2063.73 884.083 L2075.69 893.187 L2087.65 897.289 L2099.62 897.512 L2111.58 895.342 L2123.54 892.45 L2135.5 890.53 L2147.46 891.167 L2159.42 895.736 L2171.38 905.321 
  L2171.38 1479.3 L2159.42 1479.3 L2147.46 1479.3 L2135.5 1479.3 L2123.54 1479.3 L2111.58 1479.3 L2099.62 1479.3 L2087.65 1479.3 L2075.69 1479.3 L2063.73 1479.3 
  L2051.77 1479.3 L2039.81 1479.3 L2027.85 1479.3 L2015.89 1479.3 L2003.93 1479.3 L1991.97 1479.3 L1980 1479.3 L1968.04 1479.3 L1956.08 1479.3 L1944.12 1479.3 
  L1932.16 1479.3 L1920.2 1479.3 L1908.24 1479.3 L1896.28 1479.3 L1884.32 1479.3 L1872.35 1479.3 L1860.39 1479.3 L1848.43 1479.3 L1836.47 1479.3 L1824.51 1479.3 
  L1812.55 1479.3 L1800.59 1479.3 L1788.63 1479.3 L1776.67 1479.3 L1764.7 1479.3 L1752.74 1479.3 L1740.78 1479.3 L1728.82 1479.3 L1716.86 1479.3 L1704.9 1479.3 
  L1692.94 1479.3 L1680.98 1479.3 L1669.02 1479.3 L1657.05 1479.3 L1645.09 1479.3 L1633.13 1479.3 L1621.17 1479.3 L1609.21 1479.3 L1597.25 1479.3 L1585.29 1479.3 
  L1573.33 1479.3 L1561.37 1479.3 L1549.4 1479.3 L1537.44 1479.3 L1525.48 1479.3 L1513.52 1479.3 L1501.56 1479.3 L1489.6 1479.3 L1477.64 1479.3 L1465.68 1479.3 
  L1453.72 1479.3 L1441.75 1479.3 L1429.79 1479.3 L1417.83 1479.3 L1405.87 1479.3 L1393.91 1479.3 L1381.95 1479.3 L1369.99 1479.3 L1358.03 1479.3 L1346.07 1479.3 
  L1334.1 1479.3 L1322.14 1479.3 L1310.18 1479.3 L1298.22 1479.3 L1286.26 1479.3 L1274.3 1479.3 L1262.34 1479.3 L1250.38 1479.3 L1238.42 1479.3 L1226.45 1479.3 
  L1214.49 1479.3 L1202.53 1479.3 L1190.57 1479.3 L1178.61 1479.3 L1166.65 1479.3 L1154.69 1479.3 L1142.73 1479.3 L1130.77 1479.3 L1118.8 1479.3 L1106.84 1479.3 
  L1094.88 1479.3 L1082.92 1479.3 L1070.96 1479.3 L1059 1479.3 L1047.04 1479.3 L1035.08 1479.3 L1023.12 1479.3 L1011.15 1479.3 L999.193 1479.3 L987.232 1479.3 
   Z
  " fill="#008000" fill-rule="evenodd" fill-opacity="0.5"/>
<polyline clip-path="url(#clip522)" style="stroke:#008000; stroke-width:4; stroke-opacity:1; fill:none" points="
  987.232,1184.59 999.193,1167.18 1011.15,1150.65 1023.12,1135.25 1035.08,1120.52 1047.04,1105.43 1059,1088.67 1070.96,1069.04 1082.92,1045.87 1094.88,1019.24 
  1106.84,990.003 1118.8,959.568 1130.77,929.509 1142.73,901.114 1154.69,875.055 1166.65,851.267 1178.61,829.074 1190.57,807.467 1202.53,785.44 1214.49,762.247 
  1226.45,737.538 1238.42,711.384 1250.38,684.242 1262.34,656.922 1274.3,630.562 1286.26,606.561 1298.22,586.436 1310.18,571.561 1322.14,562.817 1334.1,560.263 
  1346.07,562.928 1358.03,568.831 1369.99,575.245 1381.95,579.146 1393.91,577.759 1405.87,569.039 1417.83,552.02 1429.79,526.958 1441.75,495.27 1453.72,459.284 
  1465.68,421.865 1477.64,385.966 1489.6,354.173 1501.56,328.324 1513.52,309.238 1525.48,296.606 1537.44,289.048 1549.4,284.34 1561.37,279.788 1573.33,272.704 
  1585.29,260.926 1597.25,243.281 1609.21,219.902 1621.17,192.283 1633.13,163.038 1645.09,135.382 1657.05,112.446 1669.02,96.5952 1680.98,88.9544 1692.94,89.2539 
  1704.9,96.0474 1716.86,107.217 1728.82,120.605 1740.78,134.579 1752.74,148.374 1764.7,162.146 1776.67,176.752 1788.63,193.373 1800.59,213.114 1812.55,236.701 
  1824.51,264.331 1836.47,295.676 1848.43,329.993 1860.39,366.286 1872.35,403.466 1884.32,440.513 1896.28,476.603 1908.24,511.218 1920.2,544.2 1932.16,575.761 
  1944.12,606.409 1956.08,636.808 1968.04,667.584 1980,699.109 1991.97,731.316 2003.93,763.616 2015.89,794.938 2027.85,823.903 2039.81,849.101 2051.77,869.379 
  2063.73,884.083 2075.69,893.187 2087.65,897.289 2099.62,897.512 2111.58,895.342 2123.54,892.45 2135.5,890.53 2147.46,891.167 2159.42,895.736 2171.38,905.321 
  
  "/>
<path clip-path="url(#clip522)" d="
M2171.38 905.321 L2172.57 906.574 L2173.75 907.884 L2174.93 909.251 L2176.12 910.677 L2177.3 912.161 L2178.49 913.704 L2179.67 915.306 L2180.86 916.968 L2182.04 918.688 
  L2183.23 920.469 L2184.41 922.31 L2185.59 924.211 L2186.78 926.172 L2187.96 928.193 L2189.15 930.274 L2190.33 932.415 L2191.52 934.617 L2192.7 936.878 L2193.88 939.2 
  L2195.07 941.581 L2196.25 944.021 L2197.44 946.521 L2198.62 949.079 L2199.81 951.696 L2200.99 954.371 L2202.17 957.104 L2203.36 959.895 L2204.54 962.742 L2205.73 965.646 
  L2206.91 968.605 L2208.1 971.62 L2209.28 974.69 L2210.46 977.814 L2211.65 980.992 L2212.83 984.222 L2214.02 987.505 L2215.2 990.839 L2216.39 994.223 L2217.57 997.658 
  L2218.76 1001.14 L2219.94 1004.67 L2221.12 1008.25 L2222.31 1011.88 L2223.49 1015.55 L2224.68 1019.27 L2225.86 1023.03 L2227.05 1026.83 L2228.23 1030.68 L2229.41 1034.57 
  L2230.6 1038.49 L2231.78 1042.46 L2232.97 1046.46 L2234.15 1050.5 L2235.34 1054.58 L2236.52 1058.69 L2237.7 1062.83 L2238.89 1067.01 L2240.07 1071.22 L2241.26 1075.46 
  L2242.44 1079.73 L2243.63 1084.02 L2244.81 1088.35 L2245.99 1092.7 L2247.18 1097.07 L2248.36 1101.46 L2249.55 1105.88 L2250.73 1110.32 L2251.92 1114.78 L2253.1 1119.26 
  L2254.28 1123.75 L2255.47 1128.26 L2256.65 1132.78 L2257.84 1137.32 L2259.02 1141.86 L2260.21 1146.42 L2261.39 1150.99 L2262.58 1155.57 L2263.76 1160.15 L2264.94 1164.73 
  L2266.13 1169.32 L2267.31 1173.92 L2268.5 1178.51 L2269.68 1183.1 L2270.87 1187.7 L2272.05 1192.28 L2273.23 1196.87 L2274.42 1201.45 L2275.6 1206.02 L2276.79 1210.58 
  L2277.97 1215.13 L2279.16 1219.67 L2280.34 1224.2 L2281.52 1228.71 L2282.71 1233.21 L2283.89 1237.69 L2285.08 1242.15 L2286.26 1246.6 L2287.45 1251.02 L2288.63 1255.42 
  L2288.63 1479.3 L2287.45 1479.3 L2286.26 1479.3 L2285.08 1479.3 L2283.89 1479.3 L2282.71 1479.3 L2281.52 1479.3 L2280.34 1479.3 L2279.16 1479.3 L2277.97 1479.3 
  L2276.79 1479.3 L2275.6 1479.3 L2274.42 1479.3 L2273.23 1479.3 L2272.05 1479.3 L2270.87 1479.3 L2269.68 1479.3 L2268.5 1479.3 L2267.31 1479.3 L2266.13 1479.3 
  L2264.94 1479.3 L2263.76 1479.3 L2262.58 1479.3 L2261.39 1479.3 L2260.21 1479.3 L2259.02 1479.3 L2257.84 1479.3 L2256.65 1479.3 L2255.47 1479.3 L2254.28 1479.3 
  L2253.1 1479.3 L2251.92 1479.3 L2250.73 1479.3 L2249.55 1479.3 L2248.36 1479.3 L2247.18 1479.3 L2245.99 1479.3 L2244.81 1479.3 L2243.63 1479.3 L2242.44 1479.3 
  L2241.26 1479.3 L2240.07 1479.3 L2238.89 1479.3 L2237.7 1479.3 L2236.52 1479.3 L2235.34 1479.3 L2234.15 1479.3 L2232.97 1479.3 L2231.78 1479.3 L2230.6 1479.3 
  L2229.41 1479.3 L2228.23 1479.3 L2227.05 1479.3 L2225.86 1479.3 L2224.68 1479.3 L2223.49 1479.3 L2222.31 1479.3 L2221.12 1479.3 L2219.94 1479.3 L2218.76 1479.3 
  L2217.57 1479.3 L2216.39 1479.3 L2215.2 1479.3 L2214.02 1479.3 L2212.83 1479.3 L2211.65 1479.3 L2210.46 1479.3 L2209.28 1479.3 L2208.1 1479.3 L2206.91 1479.3 
  L2205.73 1479.3 L2204.54 1479.3 L2203.36 1479.3 L2202.17 1479.3 L2200.99 1479.3 L2199.81 1479.3 L2198.62 1479.3 L2197.44 1479.3 L2196.25 1479.3 L2195.07 1479.3 
  L2193.88 1479.3 L2192.7 1479.3 L2191.52 1479.3 L2190.33 1479.3 L2189.15 1479.3 L2187.96 1479.3 L2186.78 1479.3 L2185.59 1479.3 L2184.41 1479.3 L2183.23 1479.3 
  L2182.04 1479.3 L2180.86 1479.3 L2179.67 1479.3 L2178.49 1479.3 L2177.3 1479.3 L2176.12 1479.3 L2174.93 1479.3 L2173.75 1479.3 L2172.57 1479.3 L2171.38 1479.3 
   Z
  " fill="#ffa500" fill-rule="evenodd" fill-opacity="0.5"/>
<polyline clip-path="url(#clip522)" style="stroke:#ffa500; stroke-width:4; stroke-opacity:1; fill:none" points="
  2171.38,905.321 2172.57,906.574 2173.75,907.884 2174.93,909.251 2176.12,910.677 2177.3,912.161 2178.49,913.704 2179.67,915.306 2180.86,916.968 2182.04,918.688 
  2183.23,920.469 2184.41,922.31 2185.59,924.211 2186.78,926.172 2187.96,928.193 2189.15,930.274 2190.33,932.415 2191.52,934.617 2192.7,936.878 2193.88,939.2 
  2195.07,941.581 2196.25,944.021 2197.44,946.521 2198.62,949.079 2199.81,951.696 2200.99,954.371 2202.17,957.104 2203.36,959.895 2204.54,962.742 2205.73,965.646 
  2206.91,968.605 2208.1,971.62 2209.28,974.69 2210.46,977.814 2211.65,980.992 2212.83,984.222 2214.02,987.505 2215.2,990.839 2216.39,994.223 2217.57,997.658 
  2218.76,1001.14 2219.94,1004.67 2221.12,1008.25 2222.31,1011.88 2223.49,1015.55 2224.68,1019.27 2225.86,1023.03 2227.05,1026.83 2228.23,1030.68 2229.41,1034.57 
  2230.6,1038.49 2231.78,1042.46 2232.97,1046.46 2234.15,1050.5 2235.34,1054.58 2236.52,1058.69 2237.7,1062.83 2238.89,1067.01 2240.07,1071.22 2241.26,1075.46 
  2242.44,1079.73 2243.63,1084.02 2244.81,1088.35 2245.99,1092.7 2247.18,1097.07 2248.36,1101.46 2249.55,1105.88 2250.73,1110.32 2251.92,1114.78 2253.1,1119.26 
  2254.28,1123.75 2255.47,1128.26 2256.65,1132.78 2257.84,1137.32 2259.02,1141.86 2260.21,1146.42 2261.39,1150.99 2262.58,1155.57 2263.76,1160.15 2264.94,1164.73 
  2266.13,1169.32 2267.31,1173.92 2268.5,1178.51 2269.68,1183.1 2270.87,1187.7 2272.05,1192.28 2273.23,1196.87 2274.42,1201.45 2275.6,1206.02 2276.79,1210.58 
  2277.97,1215.13 2279.16,1219.67 2280.34,1224.2 2281.52,1228.71 2282.71,1233.21 2283.89,1237.69 2285.08,1242.15 2286.26,1246.6 2287.45,1251.02 2288.63,1255.42 
  
  "/>
<polyline clip-path="url(#clip522)" style="stroke:#0000ff; stroke-width:4; stroke-opacity:1; fill:none" points="
  1601.68,1479.3 1601.68,235.229 
  "/>
<polyline clip-path="url(#clip522)" style="stroke:#000000; stroke-width:4; stroke-opacity:1; fill:none" points="
  1635.44,1479.3 1635.44,157.468 
  "/>
<path clip-path="url(#clip520)" d="
M1494.58 459.25 L2277.23 459.25 L2277.23 96.3696 L1494.58 96.3696  Z
  " fill="#ffffff" fill-rule="evenodd" fill-opacity="1"/>
<polyline clip-path="url(#clip520)" style="stroke:#000000; stroke-width:4; stroke-opacity:1; fill:none" points="
  1494.58,459.25 2277.23,459.25 2277.23,96.3696 1494.58,96.3696 1494.58,459.25 
  "/>
<path clip-path="url(#clip520)" d="
M1519.75 181.042 L1670.81 181.042 L1670.81 132.658 L1519.75 132.658 L1519.75 181.042  Z
  " fill="#ffa500" fill-rule="evenodd" fill-opacity="0.5"/>
<polyline clip-path="url(#clip520)" style="stroke:#ffa500; stroke-width:4; stroke-opacity:1; fill:none" points="
  1519.75,132.658 1670.81,132.658 
  "/>
<path clip-path="url(#clip520)" d="M 0 0 M1700.38 161.19 Q1700.38 165.889 1702.3 168.574 Q1704.24 171.236 1707.62 171.236 Q1711 171.236 1712.95 168.574 Q1714.89 165.889 1714.89 161.19 Q1714.89 156.491 1712.95 153.829 Q1711 151.144 1707.62 151.144 Q1704.24 151.144 1702.3 153.829 Q1700.38 156.491 1700.38 161.19 M1714.89 170.241 Q1713.55 172.555 1711.49 173.69 Q1709.45 174.801 1706.58 174.801 Q1701.88 174.801 1698.92 171.051 Q1695.98 167.301 1695.98 161.19 Q1695.98 155.079 1698.92 151.329 Q1701.88 147.579 1706.58 147.579 Q1709.45 147.579 1711.49 148.713 Q1713.55 149.824 1714.89 152.139 L1714.89 148.204 L1719.15 148.204 L1719.15 183.991 L1714.89 183.991 L1714.89 170.241 Z" fill="#000000" fill-rule="evenodd" fill-opacity="1" /><path clip-path="url(#clip520)" d="M 0 0 M1734.22 142.648 Q1730.61 142.648 1728.78 146.213 Q1726.98 149.755 1726.98 156.884 Q1726.98 163.991 1728.78 167.556 Q1730.61 171.097 1734.22 171.097 Q1737.85 171.097 1739.66 167.556 Q1741.49 163.991 1741.49 156.884 Q1741.49 149.755 1739.66 146.213 Q1737.85 142.648 1734.22 142.648 M1734.22 138.945 Q1740.03 138.945 1743.09 143.551 Q1746.17 148.134 1746.17 156.884 Q1746.17 165.611 1743.09 170.218 Q1740.03 174.801 1734.22 174.801 Q1728.41 174.801 1725.33 170.218 Q1722.28 165.611 1722.28 156.884 Q1722.28 148.134 1725.33 143.551 Q1728.41 138.945 1734.22 138.945 Z" fill="#000000" fill-rule="evenodd" fill-opacity="1" /><path clip-path="url(#clip520)" d="M 0 0 M1751.28 139.57 L1769.64 139.57 L1769.64 143.505 L1755.56 143.505 L1755.56 151.977 Q1756.58 151.63 1757.6 151.468 Q1758.62 151.282 1759.64 151.282 Q1765.42 151.282 1768.8 154.454 Q1772.18 157.625 1772.18 163.042 Q1772.18 168.62 1768.71 171.722 Q1765.24 174.801 1758.92 174.801 Q1756.74 174.801 1754.48 174.43 Q1752.23 174.06 1749.82 173.319 L1749.82 168.62 Q1751.91 169.755 1754.13 170.31 Q1756.35 170.866 1758.83 170.866 Q1762.83 170.866 1765.17 168.759 Q1767.51 166.653 1767.51 163.042 Q1767.51 159.431 1765.17 157.324 Q1762.83 155.218 1758.83 155.218 Q1756.95 155.218 1755.08 155.634 Q1753.23 156.051 1751.28 156.931 L1751.28 139.57 Z" fill="#000000" fill-rule="evenodd" fill-opacity="1" /><path clip-path="url(#clip520)" d="
M1519.75 241.522 L1670.81 241.522 L1670.81 193.138 L1519.75 193.138 L1519.75 241.522  Z
  " fill="#008000" fill-rule="evenodd" fill-opacity="0.5"/>
<polyline clip-path="url(#clip520)" style="stroke:#008000; stroke-width:4; stroke-opacity:1; fill:none" points="
  1519.75,193.138 1670.81,193.138 
  "/>
<path clip-path="url(#clip520)" d="M 0 0 M1698.2 233.892 L1698.2 229.633 Q1699.96 230.466 1701.77 230.906 Q1703.57 231.346 1705.31 231.346 Q1709.94 231.346 1712.37 228.244 Q1714.82 225.119 1715.17 218.776 Q1713.83 220.767 1711.77 221.832 Q1709.71 222.897 1707.21 222.897 Q1702.02 222.897 1698.99 219.772 Q1695.98 216.624 1695.98 211.184 Q1695.98 205.86 1699.13 202.642 Q1702.28 199.425 1707.51 199.425 Q1713.5 199.425 1716.65 204.031 Q1719.82 208.614 1719.82 217.364 Q1719.82 225.536 1715.93 230.42 Q1712.07 235.281 1705.52 235.281 Q1703.76 235.281 1701.95 234.934 Q1700.15 234.586 1698.2 233.892 M1707.51 219.239 Q1710.66 219.239 1712.48 217.086 Q1714.34 214.934 1714.34 211.184 Q1714.34 207.457 1712.48 205.304 Q1710.66 203.128 1707.51 203.128 Q1704.36 203.128 1702.51 205.304 Q1700.68 207.457 1700.68 211.184 Q1700.68 214.934 1702.51 217.086 Q1704.36 219.239 1707.51 219.239 Z" fill="#000000" fill-rule="evenodd" fill-opacity="1" /><path clip-path="url(#clip520)" d="M 0 0 M1734.89 203.128 Q1731.28 203.128 1729.45 206.693 Q1727.65 210.235 1727.65 217.364 Q1727.65 224.471 1729.45 228.036 Q1731.28 231.577 1734.89 231.577 Q1738.53 231.577 1740.33 228.036 Q1742.16 224.471 1742.16 217.364 Q1742.16 210.235 1740.33 206.693 Q1738.53 203.128 1734.89 203.128 M1734.89 199.425 Q1740.7 199.425 1743.76 204.031 Q1746.84 208.614 1746.84 217.364 Q1746.84 226.091 1743.76 230.698 Q1740.7 235.281 1734.89 235.281 Q1729.08 235.281 1726 230.698 Q1722.95 226.091 1722.95 217.364 Q1722.95 208.614 1726 204.031 Q1729.08 199.425 1734.89 199.425 Z" fill="#000000" fill-rule="evenodd" fill-opacity="1" /><path clip-path="url(#clip520)" d="M 0 0 M1781.3 219.401 Q1779.29 219.401 1778.13 221.114 Q1777 222.827 1777 225.883 Q1777 228.892 1778.13 230.628 Q1779.29 232.341 1781.3 232.341 Q1783.27 232.341 1784.41 230.628 Q1785.56 228.892 1785.56 225.883 Q1785.56 222.85 1784.41 221.137 Q1783.27 219.401 1781.3 219.401 M1781.3 216.462 Q1784.96 216.462 1787.11 219.008 Q1789.27 221.554 1789.27 225.883 Q1789.27 230.211 1787.09 232.758 Q1784.94 235.281 1781.3 235.281 Q1777.6 235.281 1775.45 232.758 Q1773.29 230.211 1773.29 225.883 Q1773.29 221.531 1775.45 219.008 Q1777.62 216.462 1781.3 216.462 M1757.42 202.364 Q1755.42 202.364 1754.27 204.1 Q1753.13 205.813 1753.13 208.823 Q1753.13 211.878 1754.27 213.591 Q1755.4 215.304 1757.42 215.304 Q1759.43 215.304 1760.56 213.591 Q1761.72 211.878 1761.72 208.823 Q1761.72 205.837 1760.56 204.1 Q1759.41 202.364 1757.42 202.364 M1778.32 199.425 L1782.02 199.425 L1760.4 235.281 L1756.7 235.281 L1778.32 199.425 M1757.42 199.425 Q1761.07 199.425 1763.25 201.971 Q1765.42 204.494 1765.42 208.823 Q1765.42 213.198 1763.25 215.721 Q1761.1 218.244 1757.42 218.244 Q1753.73 218.244 1751.58 215.721 Q1749.45 213.174 1749.45 208.823 Q1749.45 204.517 1751.6 201.971 Q1753.76 199.425 1757.42 199.425 Z" fill="#000000" fill-rule="evenodd" fill-opacity="1" /><path clip-path="url(#clip520)" d="M 0 0 M1830.35 218.961 L1830.35 234.61 L1826.1 234.61 L1826.1 219.1 Q1826.1 215.42 1824.66 213.591 Q1823.22 211.762 1820.35 211.762 Q1816.91 211.762 1814.91 213.962 Q1812.92 216.161 1812.92 219.957 L1812.92 234.61 L1808.64 234.61 L1808.64 208.684 L1812.92 208.684 L1812.92 212.712 Q1814.45 210.374 1816.51 209.216 Q1818.6 208.059 1821.3 208.059 Q1825.77 208.059 1828.06 210.837 Q1830.35 213.591 1830.35 218.961 Z" fill="#000000" fill-rule="evenodd" fill-opacity="1" /><path clip-path="url(#clip520)" d="M 0 0 M1844.87 211.67 Q1841.44 211.67 1839.45 214.355 Q1837.46 217.017 1837.46 221.67 Q1837.46 226.323 1839.43 229.008 Q1841.42 231.67 1844.87 231.67 Q1848.27 231.67 1850.26 228.985 Q1852.25 226.299 1852.25 221.67 Q1852.25 217.063 1850.26 214.378 Q1848.27 211.67 1844.87 211.67 M1844.87 208.059 Q1850.42 208.059 1853.6 211.67 Q1856.77 215.281 1856.77 221.67 Q1856.77 228.036 1853.6 231.67 Q1850.42 235.281 1844.87 235.281 Q1839.29 235.281 1836.12 231.67 Q1832.97 228.036 1832.97 221.67 Q1832.97 215.281 1836.12 211.67 Q1839.29 208.059 1844.87 208.059 Z" fill="#000000" fill-rule="evenodd" fill-opacity="1" /><path clip-path="url(#clip520)" d="M 0 0 M1882.78 218.961 L1882.78 234.61 L1878.53 234.61 L1878.53 219.1 Q1878.53 215.42 1877.09 213.591 Q1875.66 211.762 1872.78 211.762 Q1869.34 211.762 1867.35 213.962 Q1865.35 216.161 1865.35 219.957 L1865.35 234.61 L1861.07 234.61 L1861.07 208.684 L1865.35 208.684 L1865.35 212.712 Q1866.88 210.374 1868.94 209.216 Q1871.03 208.059 1873.73 208.059 Q1878.2 208.059 1880.49 210.837 Q1882.78 213.591 1882.78 218.961 Z" fill="#000000" fill-rule="evenodd" fill-opacity="1" /><path clip-path="url(#clip520)" d="M 0 0 M1885.1 219.725 L1897.58 219.725 L1897.58 223.522 L1885.1 223.522 L1885.1 219.725 Z" fill="#000000" fill-rule="evenodd" fill-opacity="1" /><path clip-path="url(#clip520)" d="M 0 0 M1917.07 212.665 Q1916.35 212.249 1915.49 212.063 Q1914.66 211.855 1913.64 211.855 Q1910.03 211.855 1908.09 214.216 Q1906.16 216.554 1906.16 220.952 L1906.16 234.61 L1901.88 234.61 L1901.88 208.684 L1906.16 208.684 L1906.16 212.712 Q1907.51 210.35 1909.66 209.216 Q1911.81 208.059 1914.89 208.059 Q1915.33 208.059 1915.86 208.128 Q1916.4 208.175 1917.04 208.29 L1917.07 212.665 Z" fill="#000000" fill-rule="evenodd" fill-opacity="1" /><path clip-path="url(#clip520)" d="M 0 0 M1942.67 220.582 L1942.67 222.665 L1923.09 222.665 Q1923.36 227.063 1925.72 229.378 Q1928.11 231.67 1932.34 231.67 Q1934.8 231.67 1937.09 231.068 Q1939.4 230.466 1941.67 229.262 L1941.67 233.29 Q1939.38 234.262 1936.97 234.772 Q1934.57 235.281 1932.09 235.281 Q1925.89 235.281 1922.25 231.67 Q1918.64 228.059 1918.64 221.901 Q1918.64 215.536 1922.07 211.809 Q1925.52 208.059 1931.35 208.059 Q1936.58 208.059 1939.61 211.438 Q1942.67 214.795 1942.67 220.582 M1938.41 219.332 Q1938.36 215.837 1936.44 213.753 Q1934.54 211.67 1931.4 211.67 Q1927.83 211.67 1925.68 213.684 Q1923.55 215.698 1923.22 219.355 L1938.41 219.332 Z" fill="#000000" fill-rule="evenodd" fill-opacity="1" /><path clip-path="url(#clip520)" d="M 0 0 M1947.14 208.684 L1951.4 208.684 L1951.4 235.073 Q1951.4 240.026 1949.5 242.248 Q1947.62 244.471 1943.43 244.471 L1941.81 244.471 L1941.81 240.86 L1942.95 240.86 Q1945.38 240.86 1946.26 239.725 Q1947.14 238.614 1947.14 235.073 L1947.14 208.684 M1947.14 198.591 L1951.4 198.591 L1951.4 203.985 L1947.14 203.985 L1947.14 198.591 Z" fill="#000000" fill-rule="evenodd" fill-opacity="1" /><path clip-path="url(#clip520)" d="M 0 0 M1978.04 220.582 L1978.04 222.665 L1958.46 222.665 Q1958.73 227.063 1961.09 229.378 Q1963.48 231.67 1967.71 231.67 Q1970.17 231.67 1972.46 231.068 Q1974.78 230.466 1977.04 229.262 L1977.04 233.29 Q1974.75 234.262 1972.34 234.772 Q1969.94 235.281 1967.46 235.281 Q1961.26 235.281 1957.62 231.67 Q1954.01 228.059 1954.01 221.901 Q1954.01 215.536 1957.44 211.809 Q1960.89 208.059 1966.72 208.059 Q1971.95 208.059 1974.98 211.438 Q1978.04 214.795 1978.04 220.582 M1973.78 219.332 Q1973.73 215.837 1971.81 213.753 Q1969.91 211.67 1966.77 211.67 Q1963.2 211.67 1961.05 213.684 Q1958.92 215.698 1958.59 219.355 L1973.78 219.332 Z" fill="#000000" fill-rule="evenodd" fill-opacity="1" /><path clip-path="url(#clip520)" d="M 0 0 M2001.16 209.679 L2001.16 213.661 Q1999.36 212.665 1997.53 212.179 Q1995.72 211.67 1993.87 211.67 Q1989.73 211.67 1987.44 214.309 Q1985.15 216.924 1985.15 221.67 Q1985.15 226.415 1987.44 229.054 Q1989.73 231.67 1993.87 231.67 Q1995.72 231.67 1997.53 231.184 Q1999.36 230.674 2001.16 229.679 L2001.16 233.614 Q1999.38 234.448 1997.46 234.864 Q1995.56 235.281 1993.41 235.281 Q1987.55 235.281 1984.1 231.6 Q1980.65 227.92 1980.65 221.67 Q1980.65 215.327 1984.13 211.693 Q1987.62 208.059 1993.69 208.059 Q1995.65 208.059 1997.53 208.475 Q1999.4 208.869 2001.16 209.679 Z" fill="#000000" fill-rule="evenodd" fill-opacity="1" /><path clip-path="url(#clip520)" d="M 0 0 M2009.84 201.323 L2009.84 208.684 L2018.62 208.684 L2018.62 211.994 L2009.84 211.994 L2009.84 226.068 Q2009.84 229.239 2010.7 230.142 Q2011.58 231.045 2014.24 231.045 L2018.62 231.045 L2018.62 234.61 L2014.24 234.61 Q2009.31 234.61 2007.44 232.781 Q2005.56 230.929 2005.56 226.068 L2005.56 211.994 L2002.44 211.994 L2002.44 208.684 L2005.56 208.684 L2005.56 201.323 L2009.84 201.323 Z" fill="#000000" fill-rule="evenodd" fill-opacity="1" /><path clip-path="url(#clip520)" d="M 0 0 M2023.08 208.684 L2027.34 208.684 L2027.34 234.61 L2023.08 234.61 L2023.08 208.684 M2023.08 198.591 L2027.34 198.591 L2027.34 203.985 L2023.08 203.985 L2023.08 198.591 Z" fill="#000000" fill-rule="evenodd" fill-opacity="1" /><path clip-path="url(#clip520)" d="M 0 0 M2041.86 211.67 Q2038.43 211.67 2036.44 214.355 Q2034.45 217.017 2034.45 221.67 Q2034.45 226.323 2036.42 229.008 Q2038.41 231.67 2041.86 231.67 Q2045.26 231.67 2047.25 228.985 Q2049.24 226.299 2049.24 221.67 Q2049.24 217.063 2047.25 214.378 Q2045.26 211.67 2041.86 211.67 M2041.86 208.059 Q2047.41 208.059 2050.58 211.67 Q2053.76 215.281 2053.76 221.67 Q2053.76 228.036 2050.58 231.67 Q2047.41 235.281 2041.86 235.281 Q2036.28 235.281 2033.11 231.67 Q2029.96 228.036 2029.96 221.67 Q2029.96 215.281 2033.11 211.67 Q2036.28 208.059 2041.86 208.059 Z" fill="#000000" fill-rule="evenodd" fill-opacity="1" /><path clip-path="url(#clip520)" d="M 0 0 M2079.77 218.961 L2079.77 234.61 L2075.52 234.61 L2075.52 219.1 Q2075.52 215.42 2074.08 213.591 Q2072.64 211.762 2069.77 211.762 Q2066.33 211.762 2064.33 213.962 Q2062.34 216.161 2062.34 219.957 L2062.34 234.61 L2058.06 234.61 L2058.06 208.684 L2062.34 208.684 L2062.34 212.712 Q2063.87 210.374 2065.93 209.216 Q2068.02 208.059 2070.72 208.059 Q2075.19 208.059 2077.48 210.837 Q2079.77 213.591 2079.77 218.961 Z" fill="#000000" fill-rule="evenodd" fill-opacity="1" /><path clip-path="url(#clip520)" d="M 0 0 M2114.33 212.665 Q2113.62 212.249 2112.76 212.063 Q2111.93 211.855 2110.91 211.855 Q2107.3 211.855 2105.35 214.216 Q2103.43 216.554 2103.43 220.952 L2103.43 234.61 L2099.15 234.61 L2099.15 208.684 L2103.43 208.684 L2103.43 212.712 Q2104.77 210.35 2106.93 209.216 Q2109.08 208.059 2112.16 208.059 Q2112.6 208.059 2113.13 208.128 Q2113.66 208.175 2114.31 208.29 L2114.33 212.665 Z" fill="#000000" fill-rule="evenodd" fill-opacity="1" /><path clip-path="url(#clip520)" d="M 0 0 M2139.94 220.582 L2139.94 222.665 L2120.35 222.665 Q2120.63 227.063 2122.99 229.378 Q2125.38 231.67 2129.61 231.67 Q2132.07 231.67 2134.36 231.068 Q2136.67 230.466 2138.94 229.262 L2138.94 233.29 Q2136.65 234.262 2134.24 234.772 Q2131.83 235.281 2129.36 235.281 Q2123.15 235.281 2119.52 231.67 Q2115.91 228.059 2115.91 221.901 Q2115.91 215.536 2119.33 211.809 Q2122.78 208.059 2128.62 208.059 Q2133.85 208.059 2136.88 211.438 Q2139.94 214.795 2139.94 220.582 M2135.68 219.332 Q2135.63 215.837 2133.71 213.753 Q2131.81 211.67 2128.66 211.67 Q2125.1 211.67 2122.95 213.684 Q2120.82 215.698 2120.49 219.355 L2135.68 219.332 Z" fill="#000000" fill-rule="evenodd" fill-opacity="1" /><path clip-path="url(#clip520)" d="M 0 0 M2161.46 221.346 Q2161.46 216.716 2159.54 214.17 Q2157.64 211.624 2154.2 211.624 Q2150.77 211.624 2148.85 214.17 Q2146.95 216.716 2146.95 221.346 Q2146.95 225.952 2148.85 228.498 Q2150.77 231.045 2154.2 231.045 Q2157.64 231.045 2159.54 228.498 Q2161.46 225.952 2161.46 221.346 M2165.72 231.392 Q2165.72 238.012 2162.78 241.23 Q2159.84 244.471 2153.78 244.471 Q2151.53 244.471 2149.54 244.123 Q2147.55 243.799 2145.68 243.105 L2145.68 238.961 Q2147.55 239.98 2149.38 240.466 Q2151.21 240.952 2153.11 240.952 Q2157.3 240.952 2159.38 238.753 Q2161.46 236.577 2161.46 232.156 L2161.46 230.049 Q2160.14 232.341 2158.08 233.475 Q2156.02 234.61 2153.15 234.61 Q2148.39 234.61 2145.47 230.975 Q2142.55 227.341 2142.55 221.346 Q2142.55 215.327 2145.47 211.693 Q2148.39 208.059 2153.15 208.059 Q2156.02 208.059 2158.08 209.193 Q2160.14 210.327 2161.46 212.619 L2161.46 208.684 L2165.72 208.684 L2165.72 231.392 Z" fill="#000000" fill-rule="evenodd" fill-opacity="1" /><path clip-path="url(#clip520)" d="M 0 0 M2170.19 208.684 L2174.45 208.684 L2174.45 234.61 L2170.19 234.61 L2170.19 208.684 M2170.19 198.591 L2174.45 198.591 L2174.45 203.985 L2170.19 203.985 L2170.19 198.591 Z" fill="#000000" fill-rule="evenodd" fill-opacity="1" /><path clip-path="url(#clip520)" d="M 0 0 M2188.96 211.67 Q2185.54 211.67 2183.55 214.355 Q2181.56 217.017 2181.56 221.67 Q2181.56 226.323 2183.52 229.008 Q2185.51 231.67 2188.96 231.67 Q2192.37 231.67 2194.36 228.985 Q2196.35 226.299 2196.35 221.67 Q2196.35 217.063 2194.36 214.378 Q2192.37 211.67 2188.96 211.67 M2188.96 208.059 Q2194.52 208.059 2197.69 211.67 Q2200.86 215.281 2200.86 221.67 Q2200.86 228.036 2197.69 231.67 Q2194.52 235.281 2188.96 235.281 Q2183.39 235.281 2180.21 231.67 Q2177.07 228.036 2177.07 221.67 Q2177.07 215.281 2180.21 211.67 Q2183.39 208.059 2188.96 208.059 Z" fill="#000000" fill-rule="evenodd" fill-opacity="1" /><path clip-path="url(#clip520)" d="M 0 0 M2226.88 218.961 L2226.88 234.61 L2222.62 234.61 L2222.62 219.1 Q2222.62 215.42 2221.19 213.591 Q2219.75 211.762 2216.88 211.762 Q2213.43 211.762 2211.44 213.962 Q2209.45 216.161 2209.45 219.957 L2209.45 234.61 L2205.17 234.61 L2205.17 208.684 L2209.45 208.684 L2209.45 212.712 Q2210.98 210.374 2213.04 209.216 Q2215.12 208.059 2217.83 208.059 Q2222.3 208.059 2224.59 210.837 Q2226.88 213.591 2226.88 218.961 Z" fill="#000000" fill-rule="evenodd" fill-opacity="1" /><path clip-path="url(#clip520)" d="
M1519.75 302.002 L1670.81 302.002 L1670.81 253.618 L1519.75 253.618 L1519.75 302.002  Z
  " fill="#ffa500" fill-rule="evenodd" fill-opacity="0.5"/>
<polyline clip-path="url(#clip520)" style="stroke:#ffa500; stroke-width:4; stroke-opacity:1; fill:none" points="
  1519.75,253.618 1670.81,253.618 
  "/>
<path clip-path="url(#clip520)" d="M 0 0 M1700.38 282.15 Q1700.38 286.849 1702.3 289.534 Q1704.24 292.196 1707.62 292.196 Q1711 292.196 1712.95 289.534 Q1714.89 286.849 1714.89 282.15 Q1714.89 277.451 1712.95 274.789 Q1711 272.104 1707.62 272.104 Q1704.24 272.104 1702.3 274.789 Q1700.38 277.451 1700.38 282.15 M1714.89 291.201 Q1713.55 293.515 1711.49 294.65 Q1709.45 295.761 1706.58 295.761 Q1701.88 295.761 1698.92 292.011 Q1695.98 288.261 1695.98 282.15 Q1695.98 276.039 1698.92 272.289 Q1701.88 268.539 1706.58 268.539 Q1709.45 268.539 1711.49 269.673 Q1713.55 270.784 1714.89 273.099 L1714.89 269.164 L1719.15 269.164 L1719.15 304.951 L1714.89 304.951 L1714.89 291.201 Z" fill="#000000" fill-rule="evenodd" fill-opacity="1" /><path clip-path="url(#clip520)" d="M 0 0 M1724.36 294.372 L1724.36 290.113 Q1726.12 290.946 1727.92 291.386 Q1729.73 291.826 1731.47 291.826 Q1736.1 291.826 1738.53 288.724 Q1740.98 285.599 1741.33 279.256 Q1739.98 281.247 1737.92 282.312 Q1735.86 283.377 1733.36 283.377 Q1728.18 283.377 1725.15 280.252 Q1722.14 277.104 1722.14 271.664 Q1722.14 266.34 1725.29 263.122 Q1728.43 259.905 1733.67 259.905 Q1739.66 259.905 1742.81 264.511 Q1745.98 269.094 1745.98 277.844 Q1745.98 286.016 1742.09 290.9 Q1738.23 295.761 1731.67 295.761 Q1729.92 295.761 1728.11 295.414 Q1726.3 295.066 1724.36 294.372 M1733.67 279.719 Q1736.81 279.719 1738.64 277.566 Q1740.49 275.414 1740.49 271.664 Q1740.49 267.937 1738.64 265.784 Q1736.81 263.608 1733.67 263.608 Q1730.52 263.608 1728.67 265.784 Q1726.84 267.937 1726.84 271.664 Q1726.84 275.414 1728.67 277.566 Q1730.52 279.719 1733.67 279.719 Z" fill="#000000" fill-rule="evenodd" fill-opacity="1" /><path clip-path="url(#clip520)" d="M 0 0 M1751.1 260.53 L1769.45 260.53 L1769.45 264.465 L1755.38 264.465 L1755.38 272.937 Q1756.4 272.59 1757.42 272.428 Q1758.43 272.242 1759.45 272.242 Q1765.24 272.242 1768.62 275.414 Q1772 278.585 1772 284.002 Q1772 289.58 1768.53 292.682 Q1765.05 295.761 1758.73 295.761 Q1756.56 295.761 1754.29 295.39 Q1752.04 295.02 1749.64 294.279 L1749.64 289.58 Q1751.72 290.715 1753.94 291.27 Q1756.17 291.826 1758.64 291.826 Q1762.65 291.826 1764.98 289.719 Q1767.32 287.613 1767.32 284.002 Q1767.32 280.391 1764.98 278.284 Q1762.65 276.178 1758.64 276.178 Q1756.77 276.178 1754.89 276.594 Q1753.04 277.011 1751.1 277.891 L1751.1 260.53 Z" fill="#000000" fill-rule="evenodd" fill-opacity="1" /><polyline clip-path="url(#clip520)" style="stroke:#0000ff; stroke-width:4; stroke-opacity:1; fill:none" points="
  1519.75,338.29 1670.81,338.29 
  "/>
<path clip-path="url(#clip520)" d="M 0 0 M1716.33 334.621 Q1717.92 331.75 1720.15 330.385 Q1722.37 329.019 1725.38 329.019 Q1729.43 329.019 1731.63 331.866 Q1733.83 334.69 1733.83 339.921 L1733.83 355.57 L1729.54 355.57 L1729.54 340.06 Q1729.54 336.334 1728.23 334.528 Q1726.91 332.722 1724.2 332.722 Q1720.89 332.722 1718.97 334.922 Q1717.04 337.121 1717.04 340.917 L1717.04 355.57 L1712.76 355.57 L1712.76 340.06 Q1712.76 336.31 1711.44 334.528 Q1710.12 332.722 1707.37 332.722 Q1704.11 332.722 1702.18 334.945 Q1700.26 337.144 1700.26 340.917 L1700.26 355.57 L1695.98 355.57 L1695.98 329.644 L1700.26 329.644 L1700.26 333.672 Q1701.72 331.287 1703.76 330.153 Q1705.79 329.019 1708.6 329.019 Q1711.42 329.019 1713.39 330.454 Q1715.38 331.889 1716.33 334.621 Z" fill="#000000" fill-rule="evenodd" fill-opacity="1" /><path clip-path="url(#clip520)" d="M 0 0 M1760.47 341.542 L1760.47 343.625 L1740.89 343.625 Q1741.17 348.023 1743.53 350.338 Q1745.91 352.63 1750.15 352.63 Q1752.6 352.63 1754.89 352.028 Q1757.21 351.426 1759.48 350.222 L1759.48 354.25 Q1757.18 355.222 1754.78 355.732 Q1752.37 356.241 1749.89 356.241 Q1743.69 356.241 1740.05 352.63 Q1736.44 349.019 1736.44 342.861 Q1736.44 336.496 1739.87 332.769 Q1743.32 329.019 1749.15 329.019 Q1754.38 329.019 1757.42 332.398 Q1760.47 335.755 1760.47 341.542 M1756.21 340.292 Q1756.17 336.797 1754.24 334.713 Q1752.35 332.63 1749.2 332.63 Q1745.63 332.63 1743.48 334.644 Q1741.35 336.658 1741.03 340.315 L1756.21 340.292 Z" fill="#000000" fill-rule="evenodd" fill-opacity="1" /><path clip-path="url(#clip520)" d="M 0 0 M1776.72 342.537 Q1771.56 342.537 1769.57 343.718 Q1767.58 344.898 1767.58 347.746 Q1767.58 350.014 1769.06 351.357 Q1770.56 352.676 1773.13 352.676 Q1776.67 352.676 1778.8 350.176 Q1780.96 347.653 1780.96 343.486 L1780.96 342.537 L1776.72 342.537 M1785.22 340.778 L1785.22 355.57 L1780.96 355.57 L1780.96 351.634 Q1779.5 353.995 1777.32 355.13 Q1775.15 356.241 1772 356.241 Q1768.02 356.241 1765.66 354.019 Q1763.32 351.773 1763.32 348.023 Q1763.32 343.648 1766.23 341.426 Q1769.17 339.204 1774.98 339.204 L1780.96 339.204 L1780.96 338.787 Q1780.96 335.847 1779.01 334.25 Q1777.09 332.63 1773.6 332.63 Q1771.37 332.63 1769.27 333.162 Q1767.16 333.695 1765.22 334.759 L1765.22 330.824 Q1767.55 329.922 1769.75 329.482 Q1771.95 329.019 1774.04 329.019 Q1779.66 329.019 1782.44 331.935 Q1785.22 334.852 1785.22 340.778 Z" fill="#000000" fill-rule="evenodd" fill-opacity="1" /><path clip-path="url(#clip520)" d="M 0 0 M1811.23 339.921 L1811.23 355.57 L1806.97 355.57 L1806.97 340.06 Q1806.97 336.38 1805.54 334.551 Q1804.1 332.722 1801.23 332.722 Q1797.79 332.722 1795.79 334.922 Q1793.8 337.121 1793.8 340.917 L1793.8 355.57 L1789.52 355.57 L1789.52 329.644 L1793.8 329.644 L1793.8 333.672 Q1795.33 331.334 1797.39 330.176 Q1799.48 329.019 1802.18 329.019 Q1806.65 329.019 1808.94 331.797 Q1811.23 334.551 1811.23 339.921 Z" fill="#000000" fill-rule="evenodd" fill-opacity="1" /><polyline clip-path="url(#clip520)" style="stroke:#000000; stroke-width:4; stroke-opacity:1; fill:none" points="
  1519.75,398.77 1670.81,398.77 
  "/>
<path clip-path="url(#clip520)" d="M 0 0 M1716.33 395.101 Q1717.92 392.23 1720.15 390.865 Q1722.37 389.499 1725.38 389.499 Q1729.43 389.499 1731.63 392.346 Q1733.83 395.17 1733.83 400.401 L1733.83 416.05 L1729.54 416.05 L1729.54 400.54 Q1729.54 396.814 1728.23 395.008 Q1726.91 393.202 1724.2 393.202 Q1720.89 393.202 1718.97 395.402 Q1717.04 397.601 1717.04 401.397 L1717.04 416.05 L1712.76 416.05 L1712.76 400.54 Q1712.76 396.79 1711.44 395.008 Q1710.12 393.202 1707.37 393.202 Q1704.11 393.202 1702.18 395.425 Q1700.26 397.624 1700.26 401.397 L1700.26 416.05 L1695.98 416.05 L1695.98 390.124 L1700.26 390.124 L1700.26 394.152 Q1701.72 391.767 1703.76 390.633 Q1705.79 389.499 1708.6 389.499 Q1711.42 389.499 1713.39 390.934 Q1715.38 392.369 1716.33 395.101 Z" fill="#000000" fill-rule="evenodd" fill-opacity="1" /><path clip-path="url(#clip520)" d="M 0 0 M1760.47 402.022 L1760.47 404.105 L1740.89 404.105 Q1741.17 408.503 1743.53 410.818 Q1745.91 413.11 1750.15 413.11 Q1752.6 413.11 1754.89 412.508 Q1757.21 411.906 1759.48 410.702 L1759.48 414.73 Q1757.18 415.702 1754.78 416.212 Q1752.37 416.721 1749.89 416.721 Q1743.69 416.721 1740.05 413.11 Q1736.44 409.499 1736.44 403.341 Q1736.44 396.976 1739.87 393.249 Q1743.32 389.499 1749.15 389.499 Q1754.38 389.499 1757.42 392.878 Q1760.47 396.235 1760.47 402.022 M1756.21 400.772 Q1756.17 397.277 1754.24 395.193 Q1752.35 393.11 1749.2 393.11 Q1745.63 393.11 1743.48 395.124 Q1741.35 397.138 1741.03 400.795 L1756.21 400.772 Z" fill="#000000" fill-rule="evenodd" fill-opacity="1" /><path clip-path="url(#clip520)" d="M 0 0 M1782 394.059 L1782 380.031 L1786.26 380.031 L1786.26 416.05 L1782 416.05 L1782 412.161 Q1780.66 414.475 1778.6 415.61 Q1776.56 416.721 1773.69 416.721 Q1768.99 416.721 1766.03 412.971 Q1763.09 409.221 1763.09 403.11 Q1763.09 396.999 1766.03 393.249 Q1768.99 389.499 1773.69 389.499 Q1776.56 389.499 1778.6 390.633 Q1780.66 391.744 1782 394.059 M1767.48 403.11 Q1767.48 407.809 1769.41 410.494 Q1771.35 413.156 1774.73 413.156 Q1778.11 413.156 1780.05 410.494 Q1782 407.809 1782 403.11 Q1782 398.411 1780.05 395.749 Q1778.11 393.064 1774.73 393.064 Q1771.35 393.064 1769.41 395.749 Q1767.48 398.411 1767.48 403.11 Z" fill="#000000" fill-rule="evenodd" fill-opacity="1" /><path clip-path="url(#clip520)" d="M 0 0 M1790.73 390.124 L1794.98 390.124 L1794.98 416.05 L1790.73 416.05 L1790.73 390.124 M1790.73 380.031 L1794.98 380.031 L1794.98 385.425 L1790.73 385.425 L1790.73 380.031 Z" fill="#000000" fill-rule="evenodd" fill-opacity="1" /><path clip-path="url(#clip520)" d="M 0 0 M1811.23 403.017 Q1806.07 403.017 1804.08 404.198 Q1802.09 405.378 1802.09 408.226 Q1802.09 410.494 1803.57 411.837 Q1805.08 413.156 1807.65 413.156 Q1811.19 413.156 1813.32 410.656 Q1815.47 408.133 1815.47 403.966 L1815.47 403.017 L1811.23 403.017 M1819.73 401.258 L1819.73 416.05 L1815.47 416.05 L1815.47 412.114 Q1814.01 414.475 1811.84 415.61 Q1809.66 416.721 1806.51 416.721 Q1802.53 416.721 1800.17 414.499 Q1797.83 412.253 1797.83 408.503 Q1797.83 404.128 1800.75 401.906 Q1803.69 399.684 1809.5 399.684 L1815.47 399.684 L1815.47 399.267 Q1815.47 396.327 1813.53 394.73 Q1811.6 393.11 1808.11 393.11 Q1805.89 393.11 1803.78 393.642 Q1801.67 394.175 1799.73 395.239 L1799.73 391.304 Q1802.07 390.402 1804.27 389.962 Q1806.47 389.499 1808.55 389.499 Q1814.17 389.499 1816.95 392.415 Q1819.73 395.332 1819.73 401.258 Z" fill="#000000" fill-rule="evenodd" fill-opacity="1" /><path clip-path="url(#clip520)" d="M 0 0 M1845.75 400.401 L1845.75 416.05 L1841.49 416.05 L1841.49 400.54 Q1841.49 396.86 1840.05 395.031 Q1838.62 393.202 1835.75 393.202 Q1832.3 393.202 1830.31 395.402 Q1828.32 397.601 1828.32 401.397 L1828.32 416.05 L1824.04 416.05 L1824.04 390.124 L1828.32 390.124 L1828.32 394.152 Q1829.85 391.814 1831.91 390.656 Q1833.99 389.499 1836.7 389.499 Q1841.16 389.499 1843.46 392.277 Q1845.75 395.031 1845.75 400.401 Z" fill="#000000" fill-rule="evenodd" fill-opacity="1" /></svg>
