<?xml version="1.0" encoding="utf-8"?>
<svg xmlns="http://www.w3.org/2000/svg" xmlns:xlink="http://www.w3.org/1999/xlink" width="600" height="400" viewBox="0 0 2400 1600">
<defs>
  <clipPath id="clip640">
    <rect x="0" y="0" width="2400" height="1600"/>
  </clipPath>
</defs>
<path clip-path="url(#clip640)" d="
M0 1600 L2400 1600 L2400 0 L0 0  Z
  " fill="#ffffff" fill-rule="evenodd" fill-opacity="1"/>
<defs>
  <clipPath id="clip641">
    <rect x="480" y="0" width="1681" height="1600"/>
  </clipPath>
</defs>
<path clip-path="url(#clip640)" d="
M86.9921 1521.01 L2352.76 1521.01 L2352.76 47.2441 L86.9921 47.2441  Z
  " fill="#ffffff" fill-rule="evenodd" fill-opacity="1"/>
<defs>
  <clipPath id="clip642">
    <rect x="86" y="47" width="2267" height="1475"/>
  </clipPath>
</defs>
<polyline clip-path="url(#clip642)" style="stroke:#000000; stroke-width:2; stroke-opacity:0.1; fill:none" points="
  135.679,1521.01 135.679,47.2441 
  "/>
<polyline clip-path="url(#clip642)" style="stroke:#000000; stroke-width:2; stroke-opacity:0.1; fill:none" points="
  855.83,1521.01 855.83,47.2441 
  "/>
<polyline clip-path="url(#clip642)" style="stroke:#000000; stroke-width:2; stroke-opacity:0.1; fill:none" points="
  1575.98,1521.01 1575.98,47.2441 
  "/>
<polyline clip-path="url(#clip642)" style="stroke:#000000; stroke-width:2; stroke-opacity:0.1; fill:none" points="
  2296.13,1521.01 2296.13,47.2441 
  "/>
<polyline clip-path="url(#clip642)" style="stroke:#000000; stroke-width:2; stroke-opacity:0.1; fill:none" points="
  86.9921,1479.3 2352.76,1479.3 
  "/>
<polyline clip-path="url(#clip642)" style="stroke:#000000; stroke-width:2; stroke-opacity:0.1; fill:none" points="
  86.9921,1106.59 2352.76,1106.59 
  "/>
<polyline clip-path="url(#clip642)" style="stroke:#000000; stroke-width:2; stroke-opacity:0.1; fill:none" points="
  86.9921,733.874 2352.76,733.874 
  "/>
<polyline clip-path="url(#clip642)" style="stroke:#000000; stroke-width:2; stroke-opacity:0.1; fill:none" points="
  86.9921,361.162 2352.76,361.162 
  "/>
<polyline clip-path="url(#clip640)" style="stroke:#000000; stroke-width:4; stroke-opacity:1; fill:none" points="
  86.9921,1521.01 2352.76,1521.01 
  "/>
<polyline clip-path="url(#clip640)" style="stroke:#000000; stroke-width:4; stroke-opacity:1; fill:none" points="
  86.9921,1521.01 86.9921,47.2441 
  "/>
<polyline clip-path="url(#clip640)" style="stroke:#000000; stroke-width:4; stroke-opacity:1; fill:none" points="
  135.679,1521.01 135.679,1503.32 
  "/>
<polyline clip-path="url(#clip640)" style="stroke:#000000; stroke-width:4; stroke-opacity:1; fill:none" points="
  855.83,1521.01 855.83,1503.32 
  "/>
<polyline clip-path="url(#clip640)" style="stroke:#000000; stroke-width:4; stroke-opacity:1; fill:none" points="
  1575.98,1521.01 1575.98,1503.32 
  "/>
<polyline clip-path="url(#clip640)" style="stroke:#000000; stroke-width:4; stroke-opacity:1; fill:none" points="
  2296.13,1521.01 2296.13,1503.32 
  "/>
<polyline clip-path="url(#clip640)" style="stroke:#000000; stroke-width:4; stroke-opacity:1; fill:none" points="
  86.9921,1479.3 114.181,1479.3 
  "/>
<polyline clip-path="url(#clip640)" style="stroke:#000000; stroke-width:4; stroke-opacity:1; fill:none" points="
  86.9921,1106.59 114.181,1106.59 
  "/>
<polyline clip-path="url(#clip640)" style="stroke:#000000; stroke-width:4; stroke-opacity:1; fill:none" points="
  86.9921,733.874 114.181,733.874 
  "/>
<polyline clip-path="url(#clip640)" style="stroke:#000000; stroke-width:4; stroke-opacity:1; fill:none" points="
  86.9921,361.162 114.181,361.162 
  "/>
<path clip-path="url(#clip640)" d="M 0 0 M97.4962 1559.6 L109.973 1559.6 L109.973 1563.39 L97.4962 1563.39 L97.4962 1559.6 Z" fill="#000000" fill-rule="evenodd" fill-opacity="1" /><path clip-path="url(#clip640)" d="M 0 0 M125.042 1543 Q121.431 1543 119.603 1546.56 Q117.797 1550.11 117.797 1557.23 Q117.797 1564.34 119.603 1567.91 Q121.431 1571.45 125.042 1571.45 Q128.677 1571.45 130.482 1567.91 Q132.311 1564.34 132.311 1557.23 Q132.311 1550.11 130.482 1546.56 Q128.677 1543 125.042 1543 M125.042 1539.29 Q130.853 1539.29 133.908 1543.9 Q136.987 1548.48 136.987 1557.23 Q136.987 1565.96 133.908 1570.57 Q130.853 1575.15 125.042 1575.15 Q119.232 1575.15 116.154 1570.57 Q113.098 1565.96 113.098 1557.23 Q113.098 1548.48 116.154 1543.9 Q119.232 1539.29 125.042 1539.29 Z" fill="#000000" fill-rule="evenodd" fill-opacity="1" /><path clip-path="url(#clip640)" d="M 0 0 M142.056 1568.6 L146.94 1568.6 L146.94 1574.48 L142.056 1574.48 L142.056 1568.6 Z" fill="#000000" fill-rule="evenodd" fill-opacity="1" /><path clip-path="url(#clip640)" d="M 0 0 M162.01 1558.07 Q158.676 1558.07 156.755 1559.85 Q154.857 1561.63 154.857 1564.76 Q154.857 1567.88 156.755 1569.67 Q158.676 1571.45 162.01 1571.45 Q165.343 1571.45 167.264 1569.67 Q169.186 1567.86 169.186 1564.76 Q169.186 1561.63 167.264 1559.85 Q165.366 1558.07 162.01 1558.07 M157.334 1556.08 Q154.325 1555.34 152.635 1553.28 Q150.968 1551.22 150.968 1548.25 Q150.968 1544.11 153.908 1541.7 Q156.871 1539.29 162.01 1539.29 Q167.172 1539.29 170.112 1541.7 Q173.051 1544.11 173.051 1548.25 Q173.051 1551.22 171.362 1553.28 Q169.695 1555.34 166.709 1556.08 Q170.088 1556.86 171.963 1559.16 Q173.862 1561.45 173.862 1564.76 Q173.862 1569.78 170.783 1572.47 Q167.727 1575.15 162.01 1575.15 Q156.292 1575.15 153.214 1572.47 Q150.158 1569.78 150.158 1564.76 Q150.158 1561.45 152.056 1559.16 Q153.954 1556.86 157.334 1556.08 M155.621 1548.69 Q155.621 1551.38 157.288 1552.88 Q158.977 1554.39 162.01 1554.39 Q165.019 1554.39 166.709 1552.88 Q168.422 1551.38 168.422 1548.69 Q168.422 1546.01 166.709 1544.5 Q165.019 1543 162.01 1543 Q158.977 1543 157.288 1544.5 Q155.621 1546.01 155.621 1548.69 Z" fill="#000000" fill-rule="evenodd" fill-opacity="1" /><path clip-path="url(#clip640)" d="M 0 0 M818.052 1559.6 L830.529 1559.6 L830.529 1563.39 L818.052 1563.39 L818.052 1559.6 Z" fill="#000000" fill-rule="evenodd" fill-opacity="1" /><path clip-path="url(#clip640)" d="M 0 0 M845.598 1543 Q841.987 1543 840.159 1546.56 Q838.353 1550.11 838.353 1557.23 Q838.353 1564.34 840.159 1567.91 Q841.987 1571.45 845.598 1571.45 Q849.233 1571.45 851.038 1567.91 Q852.867 1564.34 852.867 1557.23 Q852.867 1550.11 851.038 1546.56 Q849.233 1543 845.598 1543 M845.598 1539.29 Q851.409 1539.29 854.464 1543.9 Q857.543 1548.48 857.543 1557.23 Q857.543 1565.96 854.464 1570.57 Q851.409 1575.15 845.598 1575.15 Q839.788 1575.15 836.71 1570.57 Q833.654 1565.96 833.654 1557.23 Q833.654 1548.48 836.71 1543.9 Q839.788 1539.29 845.598 1539.29 Z" fill="#000000" fill-rule="evenodd" fill-opacity="1" /><path clip-path="url(#clip640)" d="M 0 0 M862.612 1568.6 L867.497 1568.6 L867.497 1574.48 L862.612 1574.48 L862.612 1568.6 Z" fill="#000000" fill-rule="evenodd" fill-opacity="1" /><path clip-path="url(#clip640)" d="M 0 0 M871.385 1539.92 L893.607 1539.92 L893.607 1541.91 L881.061 1574.48 L876.177 1574.48 L887.983 1543.86 L871.385 1543.86 L871.385 1539.92 Z" fill="#000000" fill-rule="evenodd" fill-opacity="1" /><path clip-path="url(#clip640)" d="M 0 0 M1537.67 1559.6 L1550.15 1559.6 L1550.15 1563.39 L1537.67 1563.39 L1537.67 1559.6 Z" fill="#000000" fill-rule="evenodd" fill-opacity="1" /><path clip-path="url(#clip640)" d="M 0 0 M1565.22 1543 Q1561.61 1543 1559.78 1546.56 Q1557.97 1550.11 1557.97 1557.23 Q1557.97 1564.34 1559.78 1567.91 Q1561.61 1571.45 1565.22 1571.45 Q1568.85 1571.45 1570.66 1567.91 Q1572.49 1564.34 1572.49 1557.23 Q1572.49 1550.11 1570.66 1546.56 Q1568.85 1543 1565.22 1543 M1565.22 1539.29 Q1571.03 1539.29 1574.08 1543.9 Q1577.16 1548.48 1577.16 1557.23 Q1577.16 1565.96 1574.08 1570.57 Q1571.03 1575.15 1565.22 1575.15 Q1559.41 1575.15 1556.33 1570.57 Q1553.27 1565.96 1553.27 1557.23 Q1553.27 1548.48 1556.33 1543.9 Q1559.41 1539.29 1565.22 1539.29 Z" fill="#000000" fill-rule="evenodd" fill-opacity="1" /><path clip-path="url(#clip640)" d="M 0 0 M1582.23 1568.6 L1587.12 1568.6 L1587.12 1574.48 L1582.23 1574.48 L1582.23 1568.6 Z" fill="#000000" fill-rule="evenodd" fill-opacity="1" /><path clip-path="url(#clip640)" d="M 0 0 M1602.76 1555.34 Q1599.62 1555.34 1597.76 1557.49 Q1595.93 1559.64 1595.93 1563.39 Q1595.93 1567.12 1597.76 1569.29 Q1599.62 1571.45 1602.76 1571.45 Q1605.91 1571.45 1607.74 1569.29 Q1609.59 1567.12 1609.59 1563.39 Q1609.59 1559.64 1607.74 1557.49 Q1605.91 1555.34 1602.76 1555.34 M1612.05 1540.68 L1612.05 1544.94 Q1610.29 1544.11 1608.48 1543.67 Q1606.7 1543.23 1604.94 1543.23 Q1600.31 1543.23 1597.86 1546.36 Q1595.43 1549.48 1595.08 1555.8 Q1596.44 1553.79 1598.5 1552.72 Q1600.56 1551.63 1603.04 1551.63 Q1608.25 1551.63 1611.26 1554.8 Q1614.29 1557.95 1614.29 1563.39 Q1614.29 1568.72 1611.14 1571.93 Q1607.99 1575.15 1602.76 1575.15 Q1596.77 1575.15 1593.6 1570.57 Q1590.43 1565.96 1590.43 1557.23 Q1590.43 1549.04 1594.31 1544.18 Q1598.2 1539.29 1604.75 1539.29 Q1606.51 1539.29 1608.3 1539.64 Q1610.1 1539.99 1612.05 1540.68 Z" fill="#000000" fill-rule="evenodd" fill-opacity="1" /><path clip-path="url(#clip640)" d="M 0 0 M2258.4 1559.6 L2270.88 1559.6 L2270.88 1563.39 L2258.4 1563.39 L2258.4 1559.6 Z" fill="#000000" fill-rule="evenodd" fill-opacity="1" /><path clip-path="url(#clip640)" d="M 0 0 M2285.95 1543 Q2282.34 1543 2280.51 1546.56 Q2278.7 1550.11 2278.7 1557.23 Q2278.7 1564.34 2280.51 1567.91 Q2282.34 1571.45 2285.95 1571.45 Q2289.58 1571.45 2291.39 1567.91 Q2293.22 1564.34 2293.22 1557.23 Q2293.22 1550.11 2291.39 1546.56 Q2289.58 1543 2285.95 1543 M2285.95 1539.29 Q2291.76 1539.29 2294.81 1543.9 Q2297.89 1548.48 2297.89 1557.23 Q2297.89 1565.96 2294.81 1570.57 Q2291.76 1575.15 2285.95 1575.15 Q2280.14 1575.15 2277.06 1570.57 Q2274 1565.96 2274 1557.23 Q2274 1548.48 2277.06 1543.9 Q2280.14 1539.29 2285.95 1539.29 Z" fill="#000000" fill-rule="evenodd" fill-opacity="1" /><path clip-path="url(#clip640)" d="M 0 0 M2302.96 1568.6 L2307.84 1568.6 L2307.84 1574.48 L2302.96 1574.48 L2302.96 1568.6 Z" fill="#000000" fill-rule="evenodd" fill-opacity="1" /><path clip-path="url(#clip640)" d="M 0 0 M2312.96 1539.92 L2331.32 1539.92 L2331.32 1543.86 L2317.24 1543.86 L2317.24 1552.33 Q2318.26 1551.98 2319.28 1551.82 Q2320.3 1551.63 2321.32 1551.63 Q2327.1 1551.63 2330.48 1554.8 Q2333.86 1557.98 2333.86 1563.39 Q2333.86 1568.97 2330.39 1572.07 Q2326.92 1575.15 2320.6 1575.15 Q2318.42 1575.15 2316.15 1574.78 Q2313.91 1574.41 2311.5 1573.67 L2311.5 1568.97 Q2313.59 1570.1 2315.81 1570.66 Q2318.03 1571.22 2320.51 1571.22 Q2324.51 1571.22 2326.85 1569.11 Q2329.19 1567 2329.19 1563.39 Q2329.19 1559.78 2326.85 1557.67 Q2324.51 1555.57 2320.51 1555.57 Q2318.63 1555.57 2316.76 1555.98 Q2314.91 1556.4 2312.96 1557.28 L2312.96 1539.92 Z" fill="#000000" fill-rule="evenodd" fill-opacity="1" /><path clip-path="url(#clip640)" d="M 0 0 M51.0477 1465.1 Q47.4367 1465.1 45.608 1468.66 Q43.8024 1472.2 43.8024 1479.33 Q43.8024 1486.44 45.608 1490 Q47.4367 1493.55 51.0477 1493.55 Q54.682 1493.55 56.4875 1490 Q58.3162 1486.44 58.3162 1479.33 Q58.3162 1472.2 56.4875 1468.66 Q54.682 1465.1 51.0477 1465.1 M51.0477 1461.39 Q56.8579 1461.39 59.9134 1466 Q62.9921 1470.58 62.9921 1479.33 Q62.9921 1488.06 59.9134 1492.67 Q56.8579 1497.25 51.0477 1497.25 Q45.2376 1497.25 42.1589 1492.67 Q39.1034 1488.06 39.1034 1479.33 Q39.1034 1470.58 42.1589 1466 Q45.2376 1461.39 51.0477 1461.39 Z" fill="#000000" fill-rule="evenodd" fill-opacity="1" /><path clip-path="url(#clip640)" d="M 0 0 M46.6728 1119.93 L62.9921 1119.93 L62.9921 1123.87 L41.0478 1123.87 L41.0478 1119.93 Q43.7098 1117.18 48.2931 1112.55 Q52.8996 1107.89 54.0801 1106.55 Q56.3255 1104.03 57.2051 1102.29 Q58.1079 1100.53 58.1079 1098.84 Q58.1079 1096.09 56.1635 1094.35 Q54.2422 1092.62 51.1403 1092.62 Q48.9413 1092.62 46.4876 1093.38 Q44.057 1094.14 41.2793 1095.69 L41.2793 1090.97 Q44.1033 1089.84 46.557 1089.26 Q49.0107 1088.68 51.0477 1088.68 Q56.4181 1088.68 59.6125 1091.37 Q62.8069 1094.05 62.8069 1098.54 Q62.8069 1100.67 61.9968 1102.59 Q61.2097 1104.49 59.1033 1107.08 Q58.5246 1107.75 55.4227 1110.97 Q52.3209 1114.17 46.6728 1119.93 Z" fill="#000000" fill-rule="evenodd" fill-opacity="1" /><path clip-path="url(#clip640)" d="M 0 0 M53.4088 720.668 L41.6034 739.117 L53.4088 739.117 L53.4088 720.668 M52.182 716.594 L58.0616 716.594 L58.0616 739.117 L62.9921 739.117 L62.9921 743.006 L58.0616 743.006 L58.0616 751.154 L53.4088 751.154 L53.4088 743.006 L37.8071 743.006 L37.8071 738.492 L52.182 716.594 Z" fill="#000000" fill-rule="evenodd" fill-opacity="1" /><path clip-path="url(#clip640)" d="M 0 0 M51.4644 359.299 Q48.3163 359.299 46.4644 361.452 Q44.6357 363.604 44.6357 367.354 Q44.6357 371.081 46.4644 373.257 Q48.3163 375.41 51.4644 375.41 Q54.6125 375.41 56.4412 373.257 Q58.2931 371.081 58.2931 367.354 Q58.2931 363.604 56.4412 361.452 Q54.6125 359.299 51.4644 359.299 M60.7468 344.646 L60.7468 348.905 Q58.9875 348.072 57.182 347.632 Q55.3996 347.192 53.6403 347.192 Q49.0107 347.192 46.557 350.317 Q44.1265 353.442 43.7793 359.762 Q45.145 357.748 47.2052 356.683 Q49.2653 355.595 51.7422 355.595 Q56.9505 355.595 59.9597 358.766 Q62.9921 361.915 62.9921 367.354 Q62.9921 372.678 59.844 375.896 Q56.6959 379.114 51.4644 379.114 Q45.4691 379.114 42.2978 374.53 Q39.1265 369.924 39.1265 361.197 Q39.1265 353.003 43.0154 348.142 Q46.9042 343.257 53.4551 343.257 Q55.2144 343.257 56.9968 343.605 Q58.8023 343.952 60.7468 344.646 Z" fill="#000000" fill-rule="evenodd" fill-opacity="1" /><path clip-path="url(#clip642)" d="
M151.118 1472.95 L156.254 1472.95 L161.39 1473 L166.526 1473.11 L171.662 1473.26 L176.798 1473.45 L181.934 1473.67 L187.07 1473.91 L192.207 1474.17 L197.343 1474.43 
  L202.479 1474.68 L207.615 1474.92 L212.751 1475.14 L217.887 1475.34 L223.023 1475.5 L228.159 1475.62 L233.296 1475.7 L238.432 1475.74 L243.568 1475.73 L248.704 1475.68 
  L253.84 1475.57 L258.976 1475.42 L264.112 1475.21 L269.248 1474.94 L274.385 1474.61 L279.521 1474.21 L284.657 1473.74 L289.793 1473.18 L294.929 1472.53 L300.065 1471.78 
  L305.201 1470.9 L310.337 1469.9 L315.474 1468.75 L320.61 1467.45 L325.746 1465.97 L330.882 1464.32 L336.018 1462.46 L341.154 1460.41 L346.29 1458.14 L351.426 1455.66 
  L356.563 1452.97 L361.699 1450.06 L366.835 1446.94 L371.971 1443.62 L377.107 1440.11 L382.243 1436.42 L387.379 1432.56 L392.515 1428.56 L397.652 1424.42 L402.788 1420.16 
  L407.924 1415.78 L413.06 1411.28 L418.196 1406.67 L423.332 1401.93 L428.468 1397.05 L433.604 1392 L438.741 1386.75 L443.877 1381.27 L449.013 1375.52 L454.149 1369.45 
  L459.285 1363.03 L464.421 1356.22 L469.557 1348.98 L474.693 1341.3 L479.83 1333.17 L484.966 1324.58 L490.102 1315.56 L495.238 1306.13 L500.374 1296.35 L505.51 1286.28 
  L510.646 1275.99 L515.782 1265.54 L520.919 1255.04 L526.055 1244.55 L531.191 1234.16 L536.327 1223.94 L541.463 1213.94 L546.599 1204.21 L551.735 1194.79 L556.872 1185.69 
  L562.008 1176.92 L567.144 1168.46 L572.28 1160.3 L577.416 1152.42 L582.552 1144.78 L587.688 1137.36 L592.824 1130.14 L597.961 1123.1 L603.097 1116.22 L608.233 1109.53 
  L613.369 1103.02 L618.505 1096.72 L623.641 1090.66 L628.777 1084.88 L633.913 1079.41 L639.05 1074.29 L644.186 1069.55 L649.322 1065.22 L654.458 1061.33 L659.594 1057.88 
  L659.594 1479.3 L654.458 1479.3 L649.322 1479.3 L644.186 1479.3 L639.05 1479.3 L633.913 1479.3 L628.777 1479.3 L623.641 1479.3 L618.505 1479.3 L613.369 1479.3 
  L608.233 1479.3 L603.097 1479.3 L597.961 1479.3 L592.824 1479.3 L587.688 1479.3 L582.552 1479.3 L577.416 1479.3 L572.28 1479.3 L567.144 1479.3 L562.008 1479.3 
  L556.872 1479.3 L551.735 1479.3 L546.599 1479.3 L541.463 1479.3 L536.327 1479.3 L531.191 1479.3 L526.055 1479.3 L520.919 1479.3 L515.782 1479.3 L510.646 1479.3 
  L505.51 1479.3 L500.374 1479.3 L495.238 1479.3 L490.102 1479.3 L484.966 1479.3 L479.83 1479.3 L474.693 1479.3 L469.557 1479.3 L464.421 1479.3 L459.285 1479.3 
  L454.149 1479.3 L449.013 1479.3 L443.877 1479.3 L438.741 1479.3 L433.604 1479.3 L428.468 1479.3 L423.332 1479.3 L418.196 1479.3 L413.06 1479.3 L407.924 1479.3 
  L402.788 1479.3 L397.652 1479.3 L392.515 1479.3 L387.379 1479.3 L382.243 1479.3 L377.107 1479.3 L371.971 1479.3 L366.835 1479.3 L361.699 1479.3 L356.563 1479.3 
  L351.426 1479.3 L346.29 1479.3 L341.154 1479.3 L336.018 1479.3 L330.882 1479.3 L325.746 1479.3 L320.61 1479.3 L315.474 1479.3 L310.337 1479.3 L305.201 1479.3 
  L300.065 1479.3 L294.929 1479.3 L289.793 1479.3 L284.657 1479.3 L279.521 1479.3 L274.385 1479.3 L269.248 1479.3 L264.112 1479.3 L258.976 1479.3 L253.84 1479.3 
  L248.704 1479.3 L243.568 1479.3 L238.432 1479.3 L233.296 1479.3 L228.159 1479.3 L223.023 1479.3 L217.887 1479.3 L212.751 1479.3 L207.615 1479.3 L202.479 1479.3 
  L197.343 1479.3 L192.207 1479.3 L187.07 1479.3 L181.934 1479.3 L176.798 1479.3 L171.662 1479.3 L166.526 1479.3 L161.39 1479.3 L156.254 1479.3 L151.118 1479.3 
   Z
  " fill="#ffa500" fill-rule="evenodd" fill-opacity="0.5"/>
<polyline clip-path="url(#clip642)" style="stroke:#ffa500; stroke-width:4; stroke-opacity:1; fill:none" points="
  151.118,1472.95 156.254,1472.95 161.39,1473 166.526,1473.11 171.662,1473.26 176.798,1473.45 181.934,1473.67 187.07,1473.91 192.207,1474.17 197.343,1474.43 
  202.479,1474.68 207.615,1474.92 212.751,1475.14 217.887,1475.34 223.023,1475.5 228.159,1475.62 233.296,1475.7 238.432,1475.74 243.568,1475.73 248.704,1475.68 
  253.84,1475.57 258.976,1475.42 264.112,1475.21 269.248,1474.94 274.385,1474.61 279.521,1474.21 284.657,1473.74 289.793,1473.18 294.929,1472.53 300.065,1471.78 
  305.201,1470.9 310.337,1469.9 315.474,1468.75 320.61,1467.45 325.746,1465.97 330.882,1464.32 336.018,1462.46 341.154,1460.41 346.29,1458.14 351.426,1455.66 
  356.563,1452.97 361.699,1450.06 366.835,1446.94 371.971,1443.62 377.107,1440.11 382.243,1436.42 387.379,1432.56 392.515,1428.56 397.652,1424.42 402.788,1420.16 
  407.924,1415.78 413.06,1411.28 418.196,1406.67 423.332,1401.93 428.468,1397.05 433.604,1392 438.741,1386.75 443.877,1381.27 449.013,1375.52 454.149,1369.45 
  459.285,1363.03 464.421,1356.22 469.557,1348.98 474.693,1341.3 479.83,1333.17 484.966,1324.58 490.102,1315.56 495.238,1306.13 500.374,1296.35 505.51,1286.28 
  510.646,1275.99 515.782,1265.54 520.919,1255.04 526.055,1244.55 531.191,1234.16 536.327,1223.94 541.463,1213.94 546.599,1204.21 551.735,1194.79 556.872,1185.69 
  562.008,1176.92 567.144,1168.46 572.28,1160.3 577.416,1152.42 582.552,1144.78 587.688,1137.36 592.824,1130.14 597.961,1123.1 603.097,1116.22 608.233,1109.53 
  613.369,1103.02 618.505,1096.72 623.641,1090.66 628.777,1084.88 633.913,1079.41 639.05,1074.29 644.186,1069.55 649.322,1065.22 654.458,1061.33 659.594,1057.88 
  
  "/>
<path clip-path="url(#clip642)" d="
M659.594 1057.88 L671.819 1051.45 L684.044 1047.32 L696.269 1045.04 L708.493 1043.93 L720.718 1043.14 L732.943 1041.66 L745.168 1038.31 L757.393 1031.77 L769.618 1020.73 
  L781.843 1004.09 L794.068 981.184 L806.292 952.005 L818.517 917.216 L830.742 878.062 L842.967 836.128 L855.192 793.024 L867.417 750.088 L879.642 708.204 L891.866 667.766 
  L904.091 628.812 L916.316 591.255 L928.541 555.135 L940.766 520.796 L952.991 488.932 L965.216 460.479 L977.44 436.359 L989.665 417.165 L1001.89 402.839 L1014.12 392.474 
  L1026.34 384.339 L1038.56 376.14 L1050.79 365.501 L1063.01 350.489 L1075.24 330.023 L1087.46 304.034 L1099.69 273.364 L1111.91 239.511 L1124.14 204.383 L1136.36 170.152 
  L1148.59 139.18 L1160.81 113.917 L1173.04 96.6308 L1185.26 88.9544 L1197.49 91.381 L1209.71 102.922 L1221.94 121.133 L1234.16 142.554 L1246.39 163.466 L1258.61 180.683 
  L1270.84 192.148 L1283.06 197.155 L1295.29 196.211 L1307.51 190.642 L1319.74 182.131 L1331.96 172.333 L1344.19 162.627 L1356.41 154.027 L1368.64 147.194 L1380.86 142.51 
  L1393.09 140.157 L1405.31 140.184 L1417.54 142.519 L1429.76 146.974 L1441.99 153.237 L1454.21 160.933 L1466.43 169.751 L1478.66 179.637 L1490.88 190.949 L1503.11 204.489 
  L1515.33 221.321 L1527.56 242.401 L1539.78 268.145 L1552.01 298.119 L1564.23 331.002 L1576.46 364.872 L1588.68 397.709 L1600.91 427.939 L1613.13 454.811 L1625.36 478.514 
  L1637.58 500.004 L1649.81 520.657 L1662.03 541.845 L1674.26 564.542 L1686.48 589.032 L1698.71 614.781 L1710.93 640.517 L1723.16 664.531 L1735.38 685.184 L1747.61 701.476 
  L1759.83 713.512 L1772.06 722.652 L1784.28 731.267 L1796.51 742.125 L1808.73 757.634 L1820.96 779.216 L1833.18 807.027 L1845.41 840.118 L1857.63 876.924 L1869.86 915.848 
  L1869.86 1479.3 L1857.63 1479.3 L1845.41 1479.3 L1833.18 1479.3 L1820.96 1479.3 L1808.73 1479.3 L1796.51 1479.3 L1784.28 1479.3 L1772.06 1479.3 L1759.83 1479.3 
  L1747.61 1479.3 L1735.38 1479.3 L1723.16 1479.3 L1710.93 1479.3 L1698.71 1479.3 L1686.48 1479.3 L1674.26 1479.3 L1662.03 1479.3 L1649.81 1479.3 L1637.58 1479.3 
  L1625.36 1479.3 L1613.13 1479.3 L1600.91 1479.3 L1588.68 1479.3 L1576.46 1479.3 L1564.23 1479.3 L1552.01 1479.3 L1539.78 1479.3 L1527.56 1479.3 L1515.33 1479.3 
  L1503.11 1479.3 L1490.88 1479.3 L1478.66 1479.3 L1466.43 1479.3 L1454.21 1479.3 L1441.99 1479.3 L1429.76 1479.3 L1417.54 1479.3 L1405.31 1479.3 L1393.09 1479.3 
  L1380.86 1479.3 L1368.64 1479.3 L1356.41 1479.3 L1344.19 1479.3 L1331.96 1479.3 L1319.74 1479.3 L1307.51 1479.3 L1295.29 1479.3 L1283.06 1479.3 L1270.84 1479.3 
  L1258.61 1479.3 L1246.39 1479.3 L1234.16 1479.3 L1221.94 1479.3 L1209.71 1479.3 L1197.49 1479.3 L1185.26 1479.3 L1173.04 1479.3 L1160.81 1479.3 L1148.59 1479.3 
  L1136.36 1479.3 L1124.14 1479.3 L1111.91 1479.3 L1099.69 1479.3 L1087.46 1479.3 L1075.24 1479.3 L1063.01 1479.3 L1050.79 1479.3 L1038.56 1479.3 L1026.34 1479.3 
  L1014.12 1479.3 L1001.89 1479.3 L989.665 1479.3 L977.44 1479.3 L965.216 1479.3 L952.991 1479.3 L940.766 1479.3 L928.541 1479.3 L916.316 1479.3 L904.091 1479.3 
  L891.866 1479.3 L879.642 1479.3 L867.417 1479.3 L855.192 1479.3 L842.967 1479.3 L830.742 1479.3 L818.517 1479.3 L806.292 1479.3 L794.068 1479.3 L781.843 1479.3 
  L769.618 1479.3 L757.393 1479.3 L745.168 1479.3 L732.943 1479.3 L720.718 1479.3 L708.493 1479.3 L696.269 1479.3 L684.044 1479.3 L671.819 1479.3 L659.594 1479.3 
   Z
  " fill="#008000" fill-rule="evenodd" fill-opacity="0.5"/>
<polyline clip-path="url(#clip642)" style="stroke:#008000; stroke-width:4; stroke-opacity:1; fill:none" points="
  659.594,1057.88 671.819,1051.45 684.044,1047.32 696.269,1045.04 708.493,1043.93 720.718,1043.14 732.943,1041.66 745.168,1038.31 757.393,1031.77 769.618,1020.73 
  781.843,1004.09 794.068,981.184 806.292,952.005 818.517,917.216 830.742,878.062 842.967,836.128 855.192,793.024 867.417,750.088 879.642,708.204 891.866,667.766 
  904.091,628.812 916.316,591.255 928.541,555.135 940.766,520.796 952.991,488.932 965.216,460.479 977.44,436.359 989.665,417.165 1001.89,402.839 1014.12,392.474 
  1026.34,384.339 1038.56,376.14 1050.79,365.501 1063.01,350.489 1075.24,330.023 1087.46,304.034 1099.69,273.364 1111.91,239.511 1124.14,204.383 1136.36,170.152 
  1148.59,139.18 1160.81,113.917 1173.04,96.6308 1185.26,88.9544 1197.49,91.381 1209.71,102.922 1221.94,121.133 1234.16,142.554 1246.39,163.466 1258.61,180.683 
  1270.84,192.148 1283.06,197.155 1295.29,196.211 1307.51,190.642 1319.74,182.131 1331.96,172.333 1344.19,162.627 1356.41,154.027 1368.64,147.194 1380.86,142.51 
  1393.09,140.157 1405.31,140.184 1417.54,142.519 1429.76,146.974 1441.99,153.237 1454.21,160.933 1466.43,169.751 1478.66,179.637 1490.88,190.949 1503.11,204.489 
  1515.33,221.321 1527.56,242.401 1539.78,268.145 1552.01,298.119 1564.23,331.002 1576.46,364.872 1588.68,397.709 1600.91,427.939 1613.13,454.811 1625.36,478.514 
  1637.58,500.004 1649.81,520.657 1662.03,541.845 1674.26,564.542 1686.48,589.032 1698.71,614.781 1710.93,640.517 1723.16,664.531 1735.38,685.184 1747.61,701.476 
  1759.83,713.512 1772.06,722.652 1784.28,731.267 1796.51,742.125 1808.73,757.634 1820.96,779.216 1833.18,807.027 1845.41,840.118 1857.63,876.924 1869.86,915.848 
  
  "/>
<path clip-path="url(#clip642)" d="
M1869.86 915.848 L1874.09 929.577 L1878.32 943.378 L1882.55 957.227 L1886.78 971.107 L1891.01 985.005 L1895.24 998.915 L1899.47 1012.83 L1903.7 1026.75 L1907.93 1040.67 
  L1912.16 1054.58 L1916.39 1068.48 L1920.62 1082.33 L1924.85 1096.13 L1929.08 1109.85 L1933.31 1123.45 L1937.54 1136.89 L1941.77 1150.13 L1946 1163.12 L1950.23 1175.81 
  L1954.46 1188.15 L1958.69 1200.09 L1962.92 1211.57 L1967.15 1222.56 L1971.38 1233.02 L1975.61 1242.9 L1979.84 1252.19 L1984.07 1260.86 L1988.3 1268.91 L1992.53 1276.34 
  L1996.76 1283.16 L2000.99 1289.39 L2005.22 1295.05 L2009.45 1300.18 L2013.68 1304.83 L2017.91 1309.04 L2022.14 1312.88 L2026.37 1316.39 L2030.6 1319.64 L2034.83 1322.69 
  L2039.06 1325.6 L2043.29 1328.43 L2047.52 1331.23 L2051.75 1334.04 L2055.98 1336.92 L2060.21 1339.89 L2064.44 1342.98 L2068.67 1346.22 L2072.9 1349.62 L2077.13 1353.18 
  L2081.36 1356.89 L2085.59 1360.75 L2089.82 1364.74 L2094.05 1368.84 L2098.28 1373.02 L2102.51 1377.25 L2106.74 1381.5 L2110.97 1385.73 L2115.2 1389.92 L2119.43 1394.05 
  L2123.66 1398.07 L2127.89 1401.96 L2132.12 1405.72 L2136.35 1409.31 L2140.58 1412.73 L2144.81 1415.98 L2149.04 1419.05 L2153.27 1421.95 L2157.5 1424.67 L2161.73 1427.24 
  L2165.96 1429.64 L2170.19 1431.91 L2174.42 1434.06 L2178.65 1436.08 L2182.88 1438.01 L2187.11 1439.84 L2191.34 1441.59 L2195.57 1443.28 L2199.8 1444.89 L2204.03 1446.45 
  L2208.26 1447.95 L2212.49 1449.39 L2216.72 1450.78 L2220.95 1452.11 L2225.18 1453.39 L2229.41 1454.62 L2233.64 1455.78 L2237.87 1456.89 L2242.1 1457.94 L2246.33 1458.93 
  L2250.56 1459.86 L2254.79 1460.74 L2259.02 1461.57 L2263.25 1462.35 L2267.48 1463.1 L2271.71 1463.8 L2275.94 1464.48 L2280.17 1465.14 L2284.4 1465.77 L2288.63 1466.39 
  L2288.63 1479.3 L2284.4 1479.3 L2280.17 1479.3 L2275.94 1479.3 L2271.71 1479.3 L2267.48 1479.3 L2263.25 1479.3 L2259.02 1479.3 L2254.79 1479.3 L2250.56 1479.3 
  L2246.33 1479.3 L2242.1 1479.3 L2237.87 1479.3 L2233.64 1479.3 L2229.41 1479.3 L2225.18 1479.3 L2220.95 1479.3 L2216.72 1479.3 L2212.49 1479.3 L2208.26 1479.3 
  L2204.03 1479.3 L2199.8 1479.3 L2195.57 1479.3 L2191.34 1479.3 L2187.11 1479.3 L2182.88 1479.3 L2178.65 1479.3 L2174.42 1479.3 L2170.19 1479.3 L2165.96 1479.3 
  L2161.73 1479.3 L2157.5 1479.3 L2153.27 1479.3 L2149.04 1479.3 L2144.81 1479.3 L2140.58 1479.3 L2136.35 1479.3 L2132.12 1479.3 L2127.89 1479.3 L2123.66 1479.3 
  L2119.43 1479.3 L2115.2 1479.3 L2110.97 1479.3 L2106.74 1479.3 L2102.51 1479.3 L2098.28 1479.3 L2094.05 1479.3 L2089.82 1479.3 L2085.59 1479.3 L2081.36 1479.3 
  L2077.13 1479.3 L2072.9 1479.3 L2068.67 1479.3 L2064.44 1479.3 L2060.21 1479.3 L2055.98 1479.3 L2051.75 1479.3 L2047.52 1479.3 L2043.29 1479.3 L2039.06 1479.3 
  L2034.83 1479.3 L2030.6 1479.3 L2026.37 1479.3 L2022.14 1479.3 L2017.91 1479.3 L2013.68 1479.3 L2009.45 1479.3 L2005.22 1479.3 L2000.99 1479.3 L1996.76 1479.3 
  L1992.53 1479.3 L1988.3 1479.3 L1984.07 1479.3 L1979.84 1479.3 L1975.61 1479.3 L1971.38 1479.3 L1967.15 1479.3 L1962.92 1479.3 L1958.69 1479.3 L1954.46 1479.3 
  L1950.23 1479.3 L1946 1479.3 L1941.77 1479.3 L1937.54 1479.3 L1933.31 1479.3 L1929.08 1479.3 L1924.85 1479.3 L1920.62 1479.3 L1916.39 1479.3 L1912.16 1479.3 
  L1907.93 1479.3 L1903.7 1479.3 L1899.47 1479.3 L1895.24 1479.3 L1891.01 1479.3 L1886.78 1479.3 L1882.55 1479.3 L1878.32 1479.3 L1874.09 1479.3 L1869.86 1479.3 
   Z
  " fill="#ffa500" fill-rule="evenodd" fill-opacity="0.5"/>
<polyline clip-path="url(#clip642)" style="stroke:#ffa500; stroke-width:4; stroke-opacity:1; fill:none" points="
  1869.86,915.848 1874.09,929.577 1878.32,943.378 1882.55,957.227 1886.78,971.107 1891.01,985.005 1895.24,998.915 1899.47,1012.83 1903.7,1026.75 1907.93,1040.67 
  1912.16,1054.58 1916.39,1068.48 1920.62,1082.33 1924.85,1096.13 1929.08,1109.85 1933.31,1123.45 1937.54,1136.89 1941.77,1150.13 1946,1163.12 1950.23,1175.81 
  1954.46,1188.15 1958.69,1200.09 1962.92,1211.57 1967.15,1222.56 1971.38,1233.02 1975.61,1242.9 1979.84,1252.19 1984.07,1260.86 1988.3,1268.91 1992.53,1276.34 
  1996.76,1283.16 2000.99,1289.39 2005.22,1295.05 2009.45,1300.18 2013.68,1304.83 2017.91,1309.04 2022.14,1312.88 2026.37,1316.39 2030.6,1319.64 2034.83,1322.69 
  2039.06,1325.6 2043.29,1328.43 2047.52,1331.23 2051.75,1334.04 2055.98,1336.92 2060.21,1339.89 2064.44,1342.98 2068.67,1346.22 2072.9,1349.62 2077.13,1353.18 
  2081.36,1356.89 2085.59,1360.75 2089.82,1364.74 2094.05,1368.84 2098.28,1373.02 2102.51,1377.25 2106.74,1381.5 2110.97,1385.73 2115.2,1389.92 2119.43,1394.05 
  2123.66,1398.07 2127.89,1401.96 2132.12,1405.72 2136.35,1409.31 2140.58,1412.73 2144.81,1415.98 2149.04,1419.05 2153.27,1421.95 2157.5,1424.67 2161.73,1427.24 
  2165.96,1429.64 2170.19,1431.91 2174.42,1434.06 2178.65,1436.08 2182.88,1438.01 2187.11,1439.84 2191.34,1441.59 2195.57,1443.28 2199.8,1444.89 2204.03,1446.45 
  2208.26,1447.95 2212.49,1449.39 2216.72,1450.78 2220.95,1452.11 2225.18,1453.39 2229.41,1454.62 2233.64,1455.78 2237.87,1456.89 2242.1,1457.94 2246.33,1458.93 
  2250.56,1459.86 2254.79,1460.74 2259.02,1461.57 2263.25,1462.35 2267.48,1463.1 2271.71,1463.8 2275.94,1464.48 2280.17,1465.14 2284.4,1465.77 2288.63,1466.39 
  
  "/>
<polyline clip-path="url(#clip642)" style="stroke:#0000ff; stroke-width:4; stroke-opacity:1; fill:none" points="
  1295.18,1479.3 1295.18,196.243 
  "/>
<polyline clip-path="url(#clip642)" style="stroke:#000000; stroke-width:4; stroke-opacity:1; fill:none" points="
  1297.82,1479.3 1297.82,195.383 
  "/>
<path clip-path="url(#clip640)" d="
M1494.58 459.25 L2277.23 459.25 L2277.23 96.3696 L1494.58 96.3696  Z
  " fill="#ffffff" fill-rule="evenodd" fill-opacity="1"/>
<polyline clip-path="url(#clip640)" style="stroke:#000000; stroke-width:4; stroke-opacity:1; fill:none" points="
  1494.58,459.25 2277.23,459.25 2277.23,96.3696 1494.58,96.3696 1494.58,459.25 
  "/>
<path clip-path="url(#clip640)" d="
M1519.75 181.042 L1670.81 181.042 L1670.81 132.658 L1519.75 132.658 L1519.75 181.042  Z
  " fill="#ffa500" fill-rule="evenodd" fill-opacity="0.5"/>
<polyline clip-path="url(#clip640)" style="stroke:#ffa500; stroke-width:4; stroke-opacity:1; fill:none" points="
  1519.75,132.658 1670.81,132.658 
  "/>
<path clip-path="url(#clip640)" d="M 0 0 M1700.38 161.19 Q1700.38 165.889 1702.3 168.574 Q1704.24 171.236 1707.62 171.236 Q1711 171.236 1712.95 168.574 Q1714.89 165.889 1714.89 161.19 Q1714.89 156.491 1712.95 153.829 Q1711 151.144 1707.62 151.144 Q1704.24 151.144 1702.3 153.829 Q1700.38 156.491 1700.38 161.19 M1714.89 170.241 Q1713.55 172.555 1711.49 173.69 Q1709.45 174.801 1706.58 174.801 Q1701.88 174.801 1698.92 171.051 Q1695.98 167.301 1695.98 161.19 Q1695.98 155.079 1698.92 151.329 Q1701.88 147.579 1706.58 147.579 Q1709.45 147.579 1711.49 148.713 Q1713.55 149.824 1714.89 152.139 L1714.89 148.204 L1719.15 148.204 L1719.15 183.991 L1714.89 183.991 L1714.89 170.241 Z" fill="#000000" fill-rule="evenodd" fill-opacity="1" /><path clip-path="url(#clip640)" d="M 0 0 M1734.22 142.648 Q1730.61 142.648 1728.78 146.213 Q1726.98 149.755 1726.98 156.884 Q1726.98 163.991 1728.78 167.556 Q1730.61 171.097 1734.22 171.097 Q1737.85 171.097 1739.66 167.556 Q1741.49 163.991 1741.49 156.884 Q1741.49 149.755 1739.66 146.213 Q1737.85 142.648 1734.22 142.648 M1734.22 138.945 Q1740.03 138.945 1743.09 143.551 Q1746.17 148.134 1746.17 156.884 Q1746.17 165.611 1743.09 170.218 Q1740.03 174.801 1734.22 174.801 Q1728.41 174.801 1725.33 170.218 Q1722.28 165.611 1722.28 156.884 Q1722.28 148.134 1725.33 143.551 Q1728.41 138.945 1734.22 138.945 Z" fill="#000000" fill-rule="evenodd" fill-opacity="1" /><path clip-path="url(#clip640)" d="M 0 0 M1751.28 139.57 L1769.64 139.57 L1769.64 143.505 L1755.56 143.505 L1755.56 151.977 Q1756.58 151.63 1757.6 151.468 Q1758.62 151.282 1759.64 151.282 Q1765.42 151.282 1768.8 154.454 Q1772.18 157.625 1772.18 163.042 Q1772.18 168.62 1768.71 171.722 Q1765.24 174.801 1758.92 174.801 Q1756.74 174.801 1754.48 174.43 Q1752.23 174.06 1749.82 173.319 L1749.82 168.62 Q1751.91 169.755 1754.13 170.31 Q1756.35 170.866 1758.83 170.866 Q1762.83 170.866 1765.17 168.759 Q1767.51 166.653 1767.51 163.042 Q1767.51 159.431 1765.17 157.324 Q1762.83 155.218 1758.83 155.218 Q1756.95 155.218 1755.08 155.634 Q1753.23 156.051 1751.28 156.931 L1751.28 139.57 Z" fill="#000000" fill-rule="evenodd" fill-opacity="1" /><path clip-path="url(#clip640)" d="
M1519.75 241.522 L1670.81 241.522 L1670.81 193.138 L1519.75 193.138 L1519.75 241.522  Z
  " fill="#008000" fill-rule="evenodd" fill-opacity="0.5"/>
<polyline clip-path="url(#clip640)" style="stroke:#008000; stroke-width:4; stroke-opacity:1; fill:none" points="
  1519.75,193.138 1670.81,193.138 
  "/>
<path clip-path="url(#clip640)" d="M 0 0 M1698.2 233.892 L1698.2 229.633 Q1699.96 230.466 1701.77 230.906 Q1703.57 231.346 1705.31 231.346 Q1709.94 231.346 1712.37 228.244 Q1714.82 225.119 1715.17 218.776 Q1713.83 220.767 1711.77 221.832 Q1709.71 222.897 1707.21 222.897 Q1702.02 222.897 1698.99 219.772 Q1695.98 216.624 1695.98 211.184 Q1695.98 205.86 1699.13 202.642 Q1702.28 199.425 1707.51 199.425 Q1713.5 199.425 1716.65 204.031 Q1719.82 208.614 1719.82 217.364 Q1719.82 225.536 1715.93 230.42 Q1712.07 235.281 1705.52 235.281 Q1703.76 235.281 1701.95 234.934 Q1700.15 234.586 1698.2 233.892 M1707.51 219.239 Q1710.66 219.239 1712.48 217.086 Q1714.34 214.934 1714.34 211.184 Q1714.34 207.457 1712.48 205.304 Q1710.66 203.128 1707.51 203.128 Q1704.36 203.128 1702.51 205.304 Q1700.68 207.457 1700.68 211.184 Q1700.68 214.934 1702.51 217.086 Q1704.36 219.239 1707.51 219.239 Z" fill="#000000" fill-rule="evenodd" fill-opacity="1" /><path clip-path="url(#clip640)" d="M 0 0 M1734.89 203.128 Q1731.28 203.128 1729.45 206.693 Q1727.65 210.235 1727.65 217.364 Q1727.65 224.471 1729.45 228.036 Q1731.28 231.577 1734.89 231.577 Q1738.53 231.577 1740.33 228.036 Q1742.16 224.471 1742.16 217.364 Q1742.16 210.235 1740.33 206.693 Q1738.53 203.128 1734.89 203.128 M1734.89 199.425 Q1740.7 199.425 1743.76 204.031 Q1746.84 208.614 1746.84 217.364 Q1746.84 226.091 1743.76 230.698 Q1740.7 235.281 1734.89 235.281 Q1729.08 235.281 1726 230.698 Q1722.95 226.091 1722.95 217.364 Q1722.95 208.614 1726 204.031 Q1729.08 199.425 1734.89 199.425 Z" fill="#000000" fill-rule="evenodd" fill-opacity="1" /><path clip-path="url(#clip640)" d="M 0 0 M1781.3 219.401 Q1779.29 219.401 1778.13 221.114 Q1777 222.827 1777 225.883 Q1777 228.892 1778.13 230.628 Q1779.29 232.341 1781.3 232.341 Q1783.27 232.341 1784.41 230.628 Q1785.56 228.892 1785.56 225.883 Q1785.56 222.85 1784.41 221.137 Q1783.27 219.401 1781.3 219.401 M1781.3 216.462 Q1784.96 216.462 1787.11 219.008 Q1789.27 221.554 1789.27 225.883 Q1789.27 230.211 1787.09 232.758 Q1784.94 235.281 1781.3 235.281 Q1777.6 235.281 1775.45 232.758 Q1773.29 230.211 1773.29 225.883 Q1773.29 221.531 1775.45 219.008 Q1777.62 216.462 1781.3 216.462 M1757.42 202.364 Q1755.42 202.364 1754.27 204.1 Q1753.13 205.813 1753.13 208.823 Q1753.13 211.878 1754.27 213.591 Q1755.4 215.304 1757.42 215.304 Q1759.43 215.304 1760.56 213.591 Q1761.72 211.878 1761.72 208.823 Q1761.72 205.837 1760.56 204.1 Q1759.41 202.364 1757.42 202.364 M1778.32 199.425 L1782.02 199.425 L1760.4 235.281 L1756.7 235.281 L1778.32 199.425 M1757.42 199.425 Q1761.07 199.425 1763.25 201.971 Q1765.42 204.494 1765.42 208.823 Q1765.42 213.198 1763.25 215.721 Q1761.1 218.244 1757.42 218.244 Q1753.73 218.244 1751.58 215.721 Q1749.45 213.174 1749.45 208.823 Q1749.45 204.517 1751.6 201.971 Q1753.76 199.425 1757.42 199.425 Z" fill="#000000" fill-rule="evenodd" fill-opacity="1" /><path clip-path="url(#clip640)" d="M 0 0 M1830.35 218.961 L1830.35 234.61 L1826.1 234.61 L1826.1 219.1 Q1826.1 215.42 1824.66 213.591 Q1823.22 211.762 1820.35 211.762 Q1816.91 211.762 1814.91 213.962 Q1812.92 216.161 1812.92 219.957 L1812.92 234.61 L1808.64 234.61 L1808.64 208.684 L1812.92 208.684 L1812.92 212.712 Q1814.45 210.374 1816.51 209.216 Q1818.6 208.059 1821.3 208.059 Q1825.77 208.059 1828.06 210.837 Q1830.35 213.591 1830.35 218.961 Z" fill="#000000" fill-rule="evenodd" fill-opacity="1" /><path clip-path="url(#clip640)" d="M 0 0 M1844.87 211.67 Q1841.44 211.67 1839.45 214.355 Q1837.46 217.017 1837.46 221.67 Q1837.46 226.323 1839.43 229.008 Q1841.42 231.67 1844.87 231.67 Q1848.27 231.67 1850.26 228.985 Q1852.25 226.299 1852.25 221.67 Q1852.25 217.063 1850.26 214.378 Q1848.27 211.67 1844.87 211.67 M1844.87 208.059 Q1850.42 208.059 1853.6 211.67 Q1856.77 215.281 1856.77 221.67 Q1856.77 228.036 1853.6 231.67 Q1850.42 235.281 1844.87 235.281 Q1839.29 235.281 1836.12 231.67 Q1832.97 228.036 1832.97 221.67 Q1832.97 215.281 1836.12 211.67 Q1839.29 208.059 1844.87 208.059 Z" fill="#000000" fill-rule="evenodd" fill-opacity="1" /><path clip-path="url(#clip640)" d="M 0 0 M1882.78 218.961 L1882.78 234.61 L1878.53 234.61 L1878.53 219.1 Q1878.53 215.42 1877.09 213.591 Q1875.66 211.762 1872.78 211.762 Q1869.34 211.762 1867.35 213.962 Q1865.35 216.161 1865.35 219.957 L1865.35 234.61 L1861.07 234.61 L1861.07 208.684 L1865.35 208.684 L1865.35 212.712 Q1866.88 210.374 1868.94 209.216 Q1871.03 208.059 1873.73 208.059 Q1878.2 208.059 1880.49 210.837 Q1882.78 213.591 1882.78 218.961 Z" fill="#000000" fill-rule="evenodd" fill-opacity="1" /><path clip-path="url(#clip640)" d="M 0 0 M1885.1 219.725 L1897.58 219.725 L1897.58 223.522 L1885.1 223.522 L1885.1 219.725 Z" fill="#000000" fill-rule="evenodd" fill-opacity="1" /><path clip-path="url(#clip640)" d="M 0 0 M1917.07 212.665 Q1916.35 212.249 1915.49 212.063 Q1914.66 211.855 1913.64 211.855 Q1910.03 211.855 1908.09 214.216 Q1906.16 216.554 1906.16 220.952 L1906.16 234.61 L1901.88 234.61 L1901.88 208.684 L1906.16 208.684 L1906.16 212.712 Q1907.51 210.35 1909.66 209.216 Q1911.81 208.059 1914.89 208.059 Q1915.33 208.059 1915.86 208.128 Q1916.4 208.175 1917.04 208.29 L1917.07 212.665 Z" fill="#000000" fill-rule="evenodd" fill-opacity="1" /><path clip-path="url(#clip640)" d="M 0 0 M1942.67 220.582 L1942.67 222.665 L1923.09 222.665 Q1923.36 227.063 1925.72 229.378 Q1928.11 231.67 1932.34 231.67 Q1934.8 231.67 1937.09 231.068 Q1939.4 230.466 1941.67 229.262 L1941.67 233.29 Q1939.38 234.262 1936.97 234.772 Q1934.57 235.281 1932.09 235.281 Q1925.89 235.281 1922.25 231.67 Q1918.64 228.059 1918.64 221.901 Q1918.64 215.536 1922.07 211.809 Q1925.52 208.059 1931.35 208.059 Q1936.58 208.059 1939.61 211.438 Q1942.67 214.795 1942.67 220.582 M1938.41 219.332 Q1938.36 215.837 1936.44 213.753 Q1934.54 211.67 1931.4 211.67 Q1927.83 211.67 1925.68 213.684 Q1923.55 215.698 1923.22 219.355 L1938.41 219.332 Z" fill="#000000" fill-rule="evenodd" fill-opacity="1" /><path clip-path="url(#clip640)" d="M 0 0 M1947.14 208.684 L1951.4 208.684 L1951.4 235.073 Q1951.4 240.026 1949.5 242.248 Q1947.62 244.471 1943.43 244.471 L1941.81 244.471 L1941.81 240.86 L1942.95 240.86 Q1945.38 240.86 1946.26 239.725 Q1947.14 238.614 1947.14 235.073 L1947.14 208.684 M1947.14 198.591 L1951.4 198.591 L1951.4 203.985 L1947.14 203.985 L1947.14 198.591 Z" fill="#000000" fill-rule="evenodd" fill-opacity="1" /><path clip-path="url(#clip640)" d="M 0 0 M1978.04 220.582 L1978.04 222.665 L1958.46 222.665 Q1958.73 227.063 1961.09 229.378 Q1963.48 231.67 1967.71 231.67 Q1970.17 231.67 1972.46 231.068 Q1974.78 230.466 1977.04 229.262 L1977.04 233.29 Q1974.75 234.262 1972.34 234.772 Q1969.94 235.281 1967.46 235.281 Q1961.26 235.281 1957.62 231.67 Q1954.01 228.059 1954.01 221.901 Q1954.01 215.536 1957.44 211.809 Q1960.89 208.059 1966.72 208.059 Q1971.95 208.059 1974.98 211.438 Q1978.04 214.795 1978.04 220.582 M1973.78 219.332 Q1973.73 215.837 1971.81 213.753 Q1969.91 211.67 1966.77 211.67 Q1963.2 211.67 1961.05 213.684 Q1958.92 215.698 1958.59 219.355 L1973.78 219.332 Z" fill="#000000" fill-rule="evenodd" fill-opacity="1" /><path clip-path="url(#clip640)" d="M 0 0 M2001.16 209.679 L2001.16 213.661 Q1999.36 212.665 1997.53 212.179 Q1995.72 211.67 1993.87 211.67 Q1989.73 211.67 1987.44 214.309 Q1985.15 216.924 1985.15 221.67 Q1985.15 226.415 1987.44 229.054 Q1989.73 231.67 1993.87 231.67 Q1995.72 231.67 1997.53 231.184 Q1999.36 230.674 2001.16 229.679 L2001.16 233.614 Q1999.38 234.448 1997.46 234.864 Q1995.56 235.281 1993.41 235.281 Q1987.55 235.281 1984.1 231.6 Q1980.65 227.92 1980.65 221.67 Q1980.65 215.327 1984.13 211.693 Q1987.62 208.059 1993.69 208.059 Q1995.65 208.059 1997.53 208.475 Q1999.4 208.869 2001.16 209.679 Z" fill="#000000" fill-rule="evenodd" fill-opacity="1" /><path clip-path="url(#clip640)" d="M 0 0 M2009.84 201.323 L2009.84 208.684 L2018.62 208.684 L2018.62 211.994 L2009.84 211.994 L2009.84 226.068 Q2009.84 229.239 2010.7 230.142 Q2011.58 231.045 2014.24 231.045 L2018.62 231.045 L2018.62 234.61 L2014.24 234.61 Q2009.31 234.61 2007.44 232.781 Q2005.56 230.929 2005.56 226.068 L2005.56 211.994 L2002.44 211.994 L2002.44 208.684 L2005.56 208.684 L2005.56 201.323 L2009.84 201.323 Z" fill="#000000" fill-rule="evenodd" fill-opacity="1" /><path clip-path="url(#clip640)" d="M 0 0 M2023.08 208.684 L2027.34 208.684 L2027.34 234.61 L2023.08 234.61 L2023.08 208.684 M2023.08 198.591 L2027.34 198.591 L2027.34 203.985 L2023.08 203.985 L2023.08 198.591 Z" fill="#000000" fill-rule="evenodd" fill-opacity="1" /><path clip-path="url(#clip640)" d="M 0 0 M2041.86 211.67 Q2038.43 211.67 2036.44 214.355 Q2034.45 217.017 2034.45 221.67 Q2034.45 226.323 2036.42 229.008 Q2038.41 231.67 2041.86 231.67 Q2045.26 231.67 2047.25 228.985 Q2049.24 226.299 2049.24 221.67 Q2049.24 217.063 2047.25 214.378 Q2045.26 211.67 2041.86 211.67 M2041.86 208.059 Q2047.41 208.059 2050.58 211.67 Q2053.76 215.281 2053.76 221.67 Q2053.76 228.036 2050.58 231.67 Q2047.41 235.281 2041.86 235.281 Q2036.28 235.281 2033.11 231.67 Q2029.96 228.036 2029.96 221.67 Q2029.96 215.281 2033.11 211.67 Q2036.28 208.059 2041.86 208.059 Z" fill="#000000" fill-rule="evenodd" fill-opacity="1" /><path clip-path="url(#clip640)" d="M 0 0 M2079.77 218.961 L2079.77 234.61 L2075.52 234.61 L2075.52 219.1 Q2075.52 215.42 2074.08 213.591 Q2072.64 211.762 2069.77 211.762 Q2066.33 211.762 2064.33 213.962 Q2062.34 216.161 2062.34 219.957 L2062.34 234.61 L2058.06 234.61 L2058.06 208.684 L2062.34 208.684 L2062.34 212.712 Q2063.87 210.374 2065.93 209.216 Q2068.02 208.059 2070.72 208.059 Q2075.19 208.059 2077.48 210.837 Q2079.77 213.591 2079.77 218.961 Z" fill="#000000" fill-rule="evenodd" fill-opacity="1" /><path clip-path="url(#clip640)" d="M 0 0 M2114.33 212.665 Q2113.62 212.249 2112.76 212.063 Q2111.93 211.855 2110.91 211.855 Q2107.3 211.855 2105.35 214.216 Q2103.43 216.554 2103.43 220.952 L2103.43 234.61 L2099.15 234.61 L2099.15 208.684 L2103.43 208.684 L2103.43 212.712 Q2104.77 210.35 2106.93 209.216 Q2109.08 208.059 2112.16 208.059 Q2112.6 208.059 2113.13 208.128 Q2113.66 208.175 2114.31 208.29 L2114.33 212.665 Z" fill="#000000" fill-rule="evenodd" fill-opacity="1" /><path clip-path="url(#clip640)" d="M 0 0 M2139.94 220.582 L2139.94 222.665 L2120.35 222.665 Q2120.63 227.063 2122.99 229.378 Q2125.38 231.67 2129.61 231.67 Q2132.07 231.67 2134.36 231.068 Q2136.67 230.466 2138.94 229.262 L2138.94 233.29 Q2136.65 234.262 2134.24 234.772 Q2131.83 235.281 2129.36 235.281 Q2123.15 235.281 2119.52 231.67 Q2115.91 228.059 2115.91 221.901 Q2115.91 215.536 2119.33 211.809 Q2122.78 208.059 2128.62 208.059 Q2133.85 208.059 2136.88 211.438 Q2139.94 214.795 2139.94 220.582 M2135.68 219.332 Q2135.63 215.837 2133.71 213.753 Q2131.81 211.67 2128.66 211.67 Q2125.1 211.67 2122.95 213.684 Q2120.82 215.698 2120.49 219.355 L2135.68 219.332 Z" fill="#000000" fill-rule="evenodd" fill-opacity="1" /><path clip-path="url(#clip640)" d="M 0 0 M2161.46 221.346 Q2161.46 216.716 2159.54 214.17 Q2157.64 211.624 2154.2 211.624 Q2150.77 211.624 2148.85 214.17 Q2146.95 216.716 2146.95 221.346 Q2146.95 225.952 2148.85 228.498 Q2150.77 231.045 2154.2 231.045 Q2157.64 231.045 2159.54 228.498 Q2161.46 225.952 2161.46 221.346 M2165.72 231.392 Q2165.72 238.012 2162.78 241.23 Q2159.84 244.471 2153.78 244.471 Q2151.53 244.471 2149.54 244.123 Q2147.55 243.799 2145.68 243.105 L2145.68 238.961 Q2147.55 239.98 2149.38 240.466 Q2151.21 240.952 2153.11 240.952 Q2157.3 240.952 2159.38 238.753 Q2161.46 236.577 2161.46 232.156 L2161.46 230.049 Q2160.14 232.341 2158.08 233.475 Q2156.02 234.61 2153.15 234.61 Q2148.39 234.61 2145.47 230.975 Q2142.55 227.341 2142.55 221.346 Q2142.55 215.327 2145.47 211.693 Q2148.39 208.059 2153.15 208.059 Q2156.02 208.059 2158.08 209.193 Q2160.14 210.327 2161.46 212.619 L2161.46 208.684 L2165.72 208.684 L2165.72 231.392 Z" fill="#000000" fill-rule="evenodd" fill-opacity="1" /><path clip-path="url(#clip640)" d="M 0 0 M2170.19 208.684 L2174.45 208.684 L2174.45 234.61 L2170.19 234.61 L2170.19 208.684 M2170.19 198.591 L2174.45 198.591 L2174.45 203.985 L2170.19 203.985 L2170.19 198.591 Z" fill="#000000" fill-rule="evenodd" fill-opacity="1" /><path clip-path="url(#clip640)" d="M 0 0 M2188.96 211.67 Q2185.54 211.67 2183.55 214.355 Q2181.56 217.017 2181.56 221.67 Q2181.56 226.323 2183.52 229.008 Q2185.51 231.67 2188.96 231.67 Q2192.37 231.67 2194.36 228.985 Q2196.35 226.299 2196.35 221.67 Q2196.35 217.063 2194.36 214.378 Q2192.37 211.67 2188.96 211.67 M2188.96 208.059 Q2194.52 208.059 2197.69 211.67 Q2200.86 215.281 2200.86 221.67 Q2200.86 228.036 2197.69 231.67 Q2194.52 235.281 2188.96 235.281 Q2183.39 235.281 2180.21 231.67 Q2177.07 228.036 2177.07 221.67 Q2177.07 215.281 2180.21 211.67 Q2183.39 208.059 2188.96 208.059 Z" fill="#000000" fill-rule="evenodd" fill-opacity="1" /><path clip-path="url(#clip640)" d="M 0 0 M2226.88 218.961 L2226.88 234.61 L2222.62 234.61 L2222.62 219.1 Q2222.62 215.42 2221.19 213.591 Q2219.75 211.762 2216.88 211.762 Q2213.43 211.762 2211.44 213.962 Q2209.45 216.161 2209.45 219.957 L2209.45 234.61 L2205.17 234.61 L2205.17 208.684 L2209.45 208.684 L2209.45 212.712 Q2210.98 210.374 2213.04 209.216 Q2215.12 208.059 2217.83 208.059 Q2222.3 208.059 2224.59 210.837 Q2226.88 213.591 2226.88 218.961 Z" fill="#000000" fill-rule="evenodd" fill-opacity="1" /><path clip-path="url(#clip640)" d="
M1519.75 302.002 L1670.81 302.002 L1670.81 253.618 L1519.75 253.618 L1519.75 302.002  Z
  " fill="#ffa500" fill-rule="evenodd" fill-opacity="0.5"/>
<polyline clip-path="url(#clip640)" style="stroke:#ffa500; stroke-width:4; stroke-opacity:1; fill:none" points="
  1519.75,253.618 1670.81,253.618 
  "/>
<path clip-path="url(#clip640)" d="M 0 0 M1700.38 282.15 Q1700.38 286.849 1702.3 289.534 Q1704.24 292.196 1707.62 292.196 Q1711 292.196 1712.95 289.534 Q1714.89 286.849 1714.89 282.15 Q1714.89 277.451 1712.95 274.789 Q1711 272.104 1707.62 272.104 Q1704.24 272.104 1702.3 274.789 Q1700.38 277.451 1700.38 282.15 M1714.89 291.201 Q1713.55 293.515 1711.49 294.65 Q1709.45 295.761 1706.58 295.761 Q1701.88 295.761 1698.92 292.011 Q1695.98 288.261 1695.98 282.15 Q1695.98 276.039 1698.92 272.289 Q1701.88 268.539 1706.58 268.539 Q1709.45 268.539 1711.49 269.673 Q1713.55 270.784 1714.89 273.099 L1714.89 269.164 L1719.15 269.164 L1719.15 304.951 L1714.89 304.951 L1714.89 291.201 Z" fill="#000000" fill-rule="evenodd" fill-opacity="1" /><path clip-path="url(#clip640)" d="M 0 0 M1724.36 294.372 L1724.36 290.113 Q1726.12 290.946 1727.92 291.386 Q1729.73 291.826 1731.47 291.826 Q1736.1 291.826 1738.53 288.724 Q1740.98 285.599 1741.33 279.256 Q1739.98 281.247 1737.92 282.312 Q1735.86 283.377 1733.36 283.377 Q1728.18 283.377 1725.15 280.252 Q1722.14 277.104 1722.14 271.664 Q1722.14 266.34 1725.29 263.122 Q1728.43 259.905 1733.67 259.905 Q1739.66 259.905 1742.81 264.511 Q1745.98 269.094 1745.98 277.844 Q1745.98 286.016 1742.09 290.9 Q1738.23 295.761 1731.67 295.761 Q1729.92 295.761 1728.11 295.414 Q1726.3 295.066 1724.36 294.372 M1733.67 279.719 Q1736.81 279.719 1738.64 277.566 Q1740.49 275.414 1740.49 271.664 Q1740.49 267.937 1738.64 265.784 Q1736.81 263.608 1733.67 263.608 Q1730.52 263.608 1728.67 265.784 Q1726.84 267.937 1726.84 271.664 Q1726.84 275.414 1728.67 277.566 Q1730.52 279.719 1733.67 279.719 Z" fill="#000000" fill-rule="evenodd" fill-opacity="1" /><path clip-path="url(#clip640)" d="M 0 0 M1751.1 260.53 L1769.45 260.53 L1769.45 264.465 L1755.38 264.465 L1755.38 272.937 Q1756.4 272.59 1757.42 272.428 Q1758.43 272.242 1759.45 272.242 Q1765.24 272.242 1768.62 275.414 Q1772 278.585 1772 284.002 Q1772 289.58 1768.53 292.682 Q1765.05 295.761 1758.73 295.761 Q1756.56 295.761 1754.29 295.39 Q1752.04 295.02 1749.64 294.279 L1749.64 289.58 Q1751.72 290.715 1753.94 291.27 Q1756.17 291.826 1758.64 291.826 Q1762.65 291.826 1764.98 289.719 Q1767.32 287.613 1767.32 284.002 Q1767.32 280.391 1764.98 278.284 Q1762.65 276.178 1758.64 276.178 Q1756.77 276.178 1754.89 276.594 Q1753.04 277.011 1751.1 277.891 L1751.1 260.53 Z" fill="#000000" fill-rule="evenodd" fill-opacity="1" /><polyline clip-path="url(#clip640)" style="stroke:#0000ff; stroke-width:4; stroke-opacity:1; fill:none" points="
  1519.75,338.29 1670.81,338.29 
  "/>
<path clip-path="url(#clip640)" d="M 0 0 M1716.33 334.621 Q1717.92 331.75 1720.15 330.385 Q1722.37 329.019 1725.38 329.019 Q1729.43 329.019 1731.63 331.866 Q1733.83 334.69 1733.83 339.921 L1733.83 355.57 L1729.54 355.57 L1729.54 340.06 Q1729.54 336.334 1728.23 334.528 Q1726.91 332.722 1724.2 332.722 Q1720.89 332.722 1718.97 334.922 Q1717.04 337.121 1717.04 340.917 L1717.04 355.57 L1712.76 355.57 L1712.76 340.06 Q1712.76 336.31 1711.44 334.528 Q1710.12 332.722 1707.37 332.722 Q1704.11 332.722 1702.18 334.945 Q1700.26 337.144 1700.26 340.917 L1700.26 355.57 L1695.98 355.57 L1695.98 329.644 L1700.26 329.644 L1700.26 333.672 Q1701.72 331.287 1703.76 330.153 Q1705.79 329.019 1708.6 329.019 Q1711.42 329.019 1713.39 330.454 Q1715.38 331.889 1716.33 334.621 Z" fill="#000000" fill-rule="evenodd" fill-opacity="1" /><path clip-path="url(#clip640)" d="M 0 0 M1760.47 341.542 L1760.47 343.625 L1740.89 343.625 Q1741.17 348.023 1743.53 350.338 Q1745.91 352.63 1750.15 352.63 Q1752.6 352.63 1754.89 352.028 Q1757.21 351.426 1759.48 350.222 L1759.48 354.25 Q1757.18 355.222 1754.78 355.732 Q1752.37 356.241 1749.89 356.241 Q1743.69 356.241 1740.05 352.63 Q1736.44 349.019 1736.44 342.861 Q1736.44 336.496 1739.87 332.769 Q1743.32 329.019 1749.15 329.019 Q1754.38 329.019 1757.42 332.398 Q1760.47 335.755 1760.47 341.542 M1756.21 340.292 Q1756.17 336.797 1754.24 334.713 Q1752.35 332.63 1749.2 332.63 Q1745.63 332.63 1743.48 334.644 Q1741.35 336.658 1741.03 340.315 L1756.21 340.292 Z" fill="#000000" fill-rule="evenodd" fill-opacity="1" /><path clip-path="url(#clip640)" d="M 0 0 M1776.72 342.537 Q1771.56 342.537 1769.57 343.718 Q1767.58 344.898 1767.58 347.746 Q1767.58 350.014 1769.06 351.357 Q1770.56 352.676 1773.13 352.676 Q1776.67 352.676 1778.8 350.176 Q1780.96 347.653 1780.96 343.486 L1780.96 342.537 L1776.72 342.537 M1785.22 340.778 L1785.22 355.57 L1780.96 355.57 L1780.96 351.634 Q1779.5 353.995 1777.32 355.13 Q1775.15 356.241 1772 356.241 Q1768.02 356.241 1765.66 354.019 Q1763.32 351.773 1763.32 348.023 Q1763.32 343.648 1766.23 341.426 Q1769.17 339.204 1774.98 339.204 L1780.96 339.204 L1780.96 338.787 Q1780.96 335.847 1779.01 334.25 Q1777.09 332.63 1773.6 332.63 Q1771.37 332.63 1769.27 333.162 Q1767.16 333.695 1765.22 334.759 L1765.22 330.824 Q1767.55 329.922 1769.75 329.482 Q1771.95 329.019 1774.04 329.019 Q1779.66 329.019 1782.44 331.935 Q1785.22 334.852 1785.22 340.778 Z" fill="#000000" fill-rule="evenodd" fill-opacity="1" /><path clip-path="url(#clip640)" d="M 0 0 M1811.23 339.921 L1811.23 355.57 L1806.97 355.57 L1806.97 340.06 Q1806.97 336.38 1805.54 334.551 Q1804.1 332.722 1801.23 332.722 Q1797.79 332.722 1795.79 334.922 Q1793.8 337.121 1793.8 340.917 L1793.8 355.57 L1789.52 355.57 L1789.52 329.644 L1793.8 329.644 L1793.8 333.672 Q1795.33 331.334 1797.39 330.176 Q1799.48 329.019 1802.18 329.019 Q1806.65 329.019 1808.94 331.797 Q1811.23 334.551 1811.23 339.921 Z" fill="#000000" fill-rule="evenodd" fill-opacity="1" /><polyline clip-path="url(#clip640)" style="stroke:#000000; stroke-width:4; stroke-opacity:1; fill:none" points="
  1519.75,398.77 1670.81,398.77 
  "/>
<path clip-path="url(#clip640)" d="M 0 0 M1716.33 395.101 Q1717.92 392.23 1720.15 390.865 Q1722.37 389.499 1725.38 389.499 Q1729.43 389.499 1731.63 392.346 Q1733.83 395.17 1733.83 400.401 L1733.83 416.05 L1729.54 416.05 L1729.54 400.54 Q1729.54 396.814 1728.23 395.008 Q1726.91 393.202 1724.2 393.202 Q1720.89 393.202 1718.97 395.402 Q1717.04 397.601 1717.04 401.397 L1717.04 416.05 L1712.76 416.05 L1712.76 400.54 Q1712.76 396.79 1711.44 395.008 Q1710.12 393.202 1707.37 393.202 Q1704.11 393.202 1702.18 395.425 Q1700.26 397.624 1700.26 401.397 L1700.26 416.05 L1695.98 416.05 L1695.98 390.124 L1700.26 390.124 L1700.26 394.152 Q1701.72 391.767 1703.76 390.633 Q1705.79 389.499 1708.6 389.499 Q1711.42 389.499 1713.39 390.934 Q1715.38 392.369 1716.33 395.101 Z" fill="#000000" fill-rule="evenodd" fill-opacity="1" /><path clip-path="url(#clip640)" d="M 0 0 M1760.47 402.022 L1760.47 404.105 L1740.89 404.105 Q1741.17 408.503 1743.53 410.818 Q1745.91 413.11 1750.15 413.11 Q1752.6 413.11 1754.89 412.508 Q1757.21 411.906 1759.48 410.702 L1759.48 414.73 Q1757.18 415.702 1754.78 416.212 Q1752.37 416.721 1749.89 416.721 Q1743.69 416.721 1740.05 413.11 Q1736.44 409.499 1736.44 403.341 Q1736.44 396.976 1739.87 393.249 Q1743.32 389.499 1749.15 389.499 Q1754.38 389.499 1757.42 392.878 Q1760.47 396.235 1760.47 402.022 M1756.21 400.772 Q1756.17 397.277 1754.24 395.193 Q1752.35 393.11 1749.2 393.11 Q1745.63 393.11 1743.48 395.124 Q1741.35 397.138 1741.03 400.795 L1756.21 400.772 Z" fill="#000000" fill-rule="evenodd" fill-opacity="1" /><path clip-path="url(#clip640)" d="M 0 0 M1782 394.059 L1782 380.031 L1786.26 380.031 L1786.26 416.05 L1782 416.05 L1782 412.161 Q1780.66 414.475 1778.6 415.61 Q1776.56 416.721 1773.69 416.721 Q1768.99 416.721 1766.03 412.971 Q1763.09 409.221 1763.09 403.11 Q1763.09 396.999 1766.03 393.249 Q1768.99 389.499 1773.69 389.499 Q1776.56 389.499 1778.6 390.633 Q1780.66 391.744 1782 394.059 M1767.48 403.11 Q1767.48 407.809 1769.41 410.494 Q1771.35 413.156 1774.73 413.156 Q1778.11 413.156 1780.05 410.494 Q1782 407.809 1782 403.11 Q1782 398.411 1780.05 395.749 Q1778.11 393.064 1774.73 393.064 Q1771.35 393.064 1769.41 395.749 Q1767.48 398.411 1767.48 403.11 Z" fill="#000000" fill-rule="evenodd" fill-opacity="1" /><path clip-path="url(#clip640)" d="M 0 0 M1790.73 390.124 L1794.98 390.124 L1794.98 416.05 L1790.73 416.05 L1790.73 390.124 M1790.73 380.031 L1794.98 380.031 L1794.98 385.425 L1790.73 385.425 L1790.73 380.031 Z" fill="#000000" fill-rule="evenodd" fill-opacity="1" /><path clip-path="url(#clip640)" d="M 0 0 M1811.23 403.017 Q1806.07 403.017 1804.08 404.198 Q1802.09 405.378 1802.09 408.226 Q1802.09 410.494 1803.57 411.837 Q1805.08 413.156 1807.65 413.156 Q1811.19 413.156 1813.32 410.656 Q1815.47 408.133 1815.47 403.966 L1815.47 403.017 L1811.23 403.017 M1819.73 401.258 L1819.73 416.05 L1815.47 416.05 L1815.47 412.114 Q1814.01 414.475 1811.84 415.61 Q1809.66 416.721 1806.51 416.721 Q1802.53 416.721 1800.17 414.499 Q1797.83 412.253 1797.83 408.503 Q1797.83 404.128 1800.75 401.906 Q1803.69 399.684 1809.5 399.684 L1815.47 399.684 L1815.47 399.267 Q1815.47 396.327 1813.53 394.73 Q1811.6 393.11 1808.11 393.11 Q1805.89 393.11 1803.78 393.642 Q1801.67 394.175 1799.73 395.239 L1799.73 391.304 Q1802.07 390.402 1804.27 389.962 Q1806.47 389.499 1808.55 389.499 Q1814.17 389.499 1816.95 392.415 Q1819.73 395.332 1819.73 401.258 Z" fill="#000000" fill-rule="evenodd" fill-opacity="1" /><path clip-path="url(#clip640)" d="M 0 0 M1845.75 400.401 L1845.75 416.05 L1841.49 416.05 L1841.49 400.54 Q1841.49 396.86 1840.05 395.031 Q1838.62 393.202 1835.75 393.202 Q1832.3 393.202 1830.31 395.402 Q1828.32 397.601 1828.32 401.397 L1828.32 416.05 L1824.04 416.05 L1824.04 390.124 L1828.32 390.124 L1828.32 394.152 Q1829.85 391.814 1831.91 390.656 Q1833.99 389.499 1836.7 389.499 Q1841.16 389.499 1843.46 392.277 Q1845.75 395.031 1845.75 400.401 Z" fill="#000000" fill-rule="evenodd" fill-opacity="1" /></svg>
