<?xml version="1.0" encoding="utf-8"?>
<svg xmlns="http://www.w3.org/2000/svg" xmlns:xlink="http://www.w3.org/1999/xlink" width="600" height="400" viewBox="0 0 2400 1600">
<defs>
  <clipPath id="clip610">
    <rect x="0" y="0" width="2400" height="1600"/>
  </clipPath>
</defs>
<path clip-path="url(#clip610)" d="
M0 1600 L2400 1600 L2400 0 L0 0  Z
  " fill="#ffffff" fill-rule="evenodd" fill-opacity="1"/>
<defs>
  <clipPath id="clip611">
    <rect x="480" y="0" width="1681" height="1600"/>
  </clipPath>
</defs>
<path clip-path="url(#clip610)" d="
M86.9921 1521.01 L2352.76 1521.01 L2352.76 47.2441 L86.9921 47.2441  Z
  " fill="#ffffff" fill-rule="evenodd" fill-opacity="1"/>
<defs>
  <clipPath id="clip612">
    <rect x="86" y="47" width="2267" height="1475"/>
  </clipPath>
</defs>
<polyline clip-path="url(#clip612)" style="stroke:#000000; stroke-width:2; stroke-opacity:0.1; fill:none" points="
  93.2286,1521.01 93.2286,47.2441 
  "/>
<polyline clip-path="url(#clip612)" style="stroke:#000000; stroke-width:2; stroke-opacity:0.1; fill:none" points="
  523.919,1521.01 523.919,47.2441 
  "/>
<polyline clip-path="url(#clip612)" style="stroke:#000000; stroke-width:2; stroke-opacity:0.1; fill:none" points="
  954.61,1521.01 954.61,47.2441 
  "/>
<polyline clip-path="url(#clip612)" style="stroke:#000000; stroke-width:2; stroke-opacity:0.1; fill:none" points="
  1385.3,1521.01 1385.3,47.2441 
  "/>
<polyline clip-path="url(#clip612)" style="stroke:#000000; stroke-width:2; stroke-opacity:0.1; fill:none" points="
  1815.99,1521.01 1815.99,47.2441 
  "/>
<polyline clip-path="url(#clip612)" style="stroke:#000000; stroke-width:2; stroke-opacity:0.1; fill:none" points="
  2246.68,1521.01 2246.68,47.2441 
  "/>
<polyline clip-path="url(#clip612)" style="stroke:#000000; stroke-width:2; stroke-opacity:0.1; fill:none" points="
  86.9921,1479.3 2352.76,1479.3 
  "/>
<polyline clip-path="url(#clip612)" style="stroke:#000000; stroke-width:2; stroke-opacity:0.1; fill:none" points="
  86.9921,1154.29 2352.76,1154.29 
  "/>
<polyline clip-path="url(#clip612)" style="stroke:#000000; stroke-width:2; stroke-opacity:0.1; fill:none" points="
  86.9921,829.278 2352.76,829.278 
  "/>
<polyline clip-path="url(#clip612)" style="stroke:#000000; stroke-width:2; stroke-opacity:0.1; fill:none" points="
  86.9921,504.268 2352.76,504.268 
  "/>
<polyline clip-path="url(#clip612)" style="stroke:#000000; stroke-width:2; stroke-opacity:0.1; fill:none" points="
  86.9921,179.258 2352.76,179.258 
  "/>
<polyline clip-path="url(#clip610)" style="stroke:#000000; stroke-width:4; stroke-opacity:1; fill:none" points="
  86.9921,1521.01 2352.76,1521.01 
  "/>
<polyline clip-path="url(#clip610)" style="stroke:#000000; stroke-width:4; stroke-opacity:1; fill:none" points="
  86.9921,1521.01 86.9921,47.2441 
  "/>
<polyline clip-path="url(#clip610)" style="stroke:#000000; stroke-width:4; stroke-opacity:1; fill:none" points="
  93.2286,1521.01 93.2286,1503.32 
  "/>
<polyline clip-path="url(#clip610)" style="stroke:#000000; stroke-width:4; stroke-opacity:1; fill:none" points="
  523.919,1521.01 523.919,1503.32 
  "/>
<polyline clip-path="url(#clip610)" style="stroke:#000000; stroke-width:4; stroke-opacity:1; fill:none" points="
  954.61,1521.01 954.61,1503.32 
  "/>
<polyline clip-path="url(#clip610)" style="stroke:#000000; stroke-width:4; stroke-opacity:1; fill:none" points="
  1385.3,1521.01 1385.3,1503.32 
  "/>
<polyline clip-path="url(#clip610)" style="stroke:#000000; stroke-width:4; stroke-opacity:1; fill:none" points="
  1815.99,1521.01 1815.99,1503.32 
  "/>
<polyline clip-path="url(#clip610)" style="stroke:#000000; stroke-width:4; stroke-opacity:1; fill:none" points="
  2246.68,1521.01 2246.68,1503.32 
  "/>
<polyline clip-path="url(#clip610)" style="stroke:#000000; stroke-width:4; stroke-opacity:1; fill:none" points="
  86.9921,1479.3 114.181,1479.3 
  "/>
<polyline clip-path="url(#clip610)" style="stroke:#000000; stroke-width:4; stroke-opacity:1; fill:none" points="
  86.9921,1154.29 114.181,1154.29 
  "/>
<polyline clip-path="url(#clip610)" style="stroke:#000000; stroke-width:4; stroke-opacity:1; fill:none" points="
  86.9921,829.278 114.181,829.278 
  "/>
<polyline clip-path="url(#clip610)" style="stroke:#000000; stroke-width:4; stroke-opacity:1; fill:none" points="
  86.9921,504.268 114.181,504.268 
  "/>
<polyline clip-path="url(#clip610)" style="stroke:#000000; stroke-width:4; stroke-opacity:1; fill:none" points="
  86.9921,179.258 114.181,179.258 
  "/>
<path clip-path="url(#clip610)" d="M 0 0 M61.157 1543 Q57.546 1543 55.7173 1546.56 Q53.9117 1550.11 53.9117 1557.23 Q53.9117 1564.34 55.7173 1567.91 Q57.546 1571.45 61.157 1571.45 Q64.7913 1571.45 66.5968 1567.91 Q68.4255 1564.34 68.4255 1557.23 Q68.4255 1550.11 66.5968 1546.56 Q64.7913 1543 61.157 1543 M61.157 1539.29 Q66.9672 1539.29 70.0227 1543.9 Q73.1014 1548.48 73.1014 1557.23 Q73.1014 1565.96 70.0227 1570.57 Q66.9672 1575.15 61.157 1575.15 Q55.3469 1575.15 52.2682 1570.57 Q49.2127 1565.96 49.2127 1557.23 Q49.2127 1548.48 52.2682 1543.9 Q55.3469 1539.29 61.157 1539.29 Z" fill="#000000" fill-rule="evenodd" fill-opacity="1" /><path clip-path="url(#clip610)" d="M 0 0 M78.1708 1568.6 L83.0551 1568.6 L83.0551 1574.48 L78.1708 1574.48 L78.1708 1568.6 Z" fill="#000000" fill-rule="evenodd" fill-opacity="1" /><path clip-path="url(#clip610)" d="M 0 0 M98.7031 1555.34 Q95.555 1555.34 93.7032 1557.49 Q91.8745 1559.64 91.8745 1563.39 Q91.8745 1567.12 93.7032 1569.29 Q95.555 1571.45 98.7031 1571.45 Q101.851 1571.45 103.68 1569.29 Q105.532 1567.12 105.532 1563.39 Q105.532 1559.64 103.68 1557.49 Q101.851 1555.34 98.7031 1555.34 M107.986 1540.68 L107.986 1544.94 Q106.226 1544.11 104.421 1543.67 Q102.638 1543.23 100.879 1543.23 Q96.2495 1543.23 93.7958 1546.36 Q91.3652 1549.48 91.018 1555.8 Q92.3837 1553.79 94.4439 1552.72 Q96.5041 1551.63 98.9809 1551.63 Q104.189 1551.63 107.198 1554.8 Q110.231 1557.95 110.231 1563.39 Q110.231 1568.72 107.083 1571.93 Q103.935 1575.15 98.7031 1575.15 Q92.7078 1575.15 89.5365 1570.57 Q86.3652 1565.96 86.3652 1557.23 Q86.3652 1549.04 90.2541 1544.18 Q94.143 1539.29 100.694 1539.29 Q102.453 1539.29 104.236 1539.64 Q106.041 1539.99 107.986 1540.68 Z" fill="#000000" fill-rule="evenodd" fill-opacity="1" /><path clip-path="url(#clip610)" d="M 0 0 M125.3 1543 Q121.689 1543 119.86 1546.56 Q118.055 1550.11 118.055 1557.23 Q118.055 1564.34 119.86 1567.91 Q121.689 1571.45 125.3 1571.45 Q128.934 1571.45 130.74 1567.91 Q132.569 1564.34 132.569 1557.23 Q132.569 1550.11 130.74 1546.56 Q128.934 1543 125.3 1543 M125.3 1539.29 Q131.11 1539.29 134.166 1543.9 Q137.245 1548.48 137.245 1557.23 Q137.245 1565.96 134.166 1570.57 Q131.11 1575.15 125.3 1575.15 Q119.49 1575.15 116.411 1570.57 Q113.356 1565.96 113.356 1557.23 Q113.356 1548.48 116.411 1543.9 Q119.49 1539.29 125.3 1539.29 Z" fill="#000000" fill-rule="evenodd" fill-opacity="1" /><path clip-path="url(#clip610)" d="M 0 0 M492.345 1543 Q488.734 1543 486.906 1546.56 Q485.1 1550.11 485.1 1557.23 Q485.1 1564.34 486.906 1567.91 Q488.734 1571.45 492.345 1571.45 Q495.98 1571.45 497.785 1567.91 Q499.614 1564.34 499.614 1557.23 Q499.614 1550.11 497.785 1546.56 Q495.98 1543 492.345 1543 M492.345 1539.29 Q498.155 1539.29 501.211 1543.9 Q504.29 1548.48 504.29 1557.23 Q504.29 1565.96 501.211 1570.57 Q498.155 1575.15 492.345 1575.15 Q486.535 1575.15 483.456 1570.57 Q480.401 1565.96 480.401 1557.23 Q480.401 1548.48 483.456 1543.9 Q486.535 1539.29 492.345 1539.29 Z" fill="#000000" fill-rule="evenodd" fill-opacity="1" /><path clip-path="url(#clip610)" d="M 0 0 M509.359 1568.6 L514.243 1568.6 L514.243 1574.48 L509.359 1574.48 L509.359 1568.6 Z" fill="#000000" fill-rule="evenodd" fill-opacity="1" /><path clip-path="url(#clip610)" d="M 0 0 M529.891 1555.34 Q526.743 1555.34 524.891 1557.49 Q523.063 1559.64 523.063 1563.39 Q523.063 1567.12 524.891 1569.29 Q526.743 1571.45 529.891 1571.45 Q533.04 1571.45 534.868 1569.29 Q536.72 1567.12 536.72 1563.39 Q536.72 1559.64 534.868 1557.49 Q533.04 1555.34 529.891 1555.34 M539.174 1540.68 L539.174 1544.94 Q537.415 1544.11 535.609 1543.67 Q533.827 1543.23 532.067 1543.23 Q527.438 1543.23 524.984 1546.36 Q522.554 1549.48 522.206 1555.8 Q523.572 1553.79 525.632 1552.72 Q527.692 1551.63 530.169 1551.63 Q535.378 1551.63 538.387 1554.8 Q541.419 1557.95 541.419 1563.39 Q541.419 1568.72 538.271 1571.93 Q535.123 1575.15 529.891 1575.15 Q523.896 1575.15 520.725 1570.57 Q517.554 1565.96 517.554 1557.23 Q517.554 1549.04 521.442 1544.18 Q525.331 1539.29 531.882 1539.29 Q533.641 1539.29 535.424 1539.64 Q537.229 1539.99 539.174 1540.68 Z" fill="#000000" fill-rule="evenodd" fill-opacity="1" /><path clip-path="url(#clip610)" d="M 0 0 M546.535 1539.92 L564.891 1539.92 L564.891 1543.86 L550.817 1543.86 L550.817 1552.33 Q551.836 1551.98 552.854 1551.82 Q553.873 1551.63 554.891 1551.63 Q560.678 1551.63 564.058 1554.8 Q567.438 1557.98 567.438 1563.39 Q567.438 1568.97 563.965 1572.07 Q560.493 1575.15 554.174 1575.15 Q551.998 1575.15 549.729 1574.78 Q547.484 1574.41 545.077 1573.67 L545.077 1568.97 Q547.16 1570.1 549.382 1570.66 Q551.604 1571.22 554.081 1571.22 Q558.086 1571.22 560.424 1569.11 Q562.762 1567 562.762 1563.39 Q562.762 1559.78 560.424 1557.67 Q558.086 1555.57 554.081 1555.57 Q552.206 1555.57 550.331 1555.98 Q548.479 1556.4 546.535 1557.28 L546.535 1539.92 Z" fill="#000000" fill-rule="evenodd" fill-opacity="1" /><path clip-path="url(#clip610)" d="M 0 0 M923.071 1543 Q919.46 1543 917.631 1546.56 Q915.825 1550.11 915.825 1557.23 Q915.825 1564.34 917.631 1567.91 Q919.46 1571.45 923.071 1571.45 Q926.705 1571.45 928.51 1567.91 Q930.339 1564.34 930.339 1557.23 Q930.339 1550.11 928.51 1546.56 Q926.705 1543 923.071 1543 M923.071 1539.29 Q928.881 1539.29 931.936 1543.9 Q935.015 1548.48 935.015 1557.23 Q935.015 1565.96 931.936 1570.57 Q928.881 1575.15 923.071 1575.15 Q917.261 1575.15 914.182 1570.57 Q911.126 1565.96 911.126 1557.23 Q911.126 1548.48 914.182 1543.9 Q917.261 1539.29 923.071 1539.29 Z" fill="#000000" fill-rule="evenodd" fill-opacity="1" /><path clip-path="url(#clip610)" d="M 0 0 M940.084 1568.6 L944.969 1568.6 L944.969 1574.48 L940.084 1574.48 L940.084 1568.6 Z" fill="#000000" fill-rule="evenodd" fill-opacity="1" /><path clip-path="url(#clip610)" d="M 0 0 M948.858 1539.92 L971.08 1539.92 L971.08 1541.91 L958.533 1574.48 L953.649 1574.48 L965.455 1543.86 L948.858 1543.86 L948.858 1539.92 Z" fill="#000000" fill-rule="evenodd" fill-opacity="1" /><path clip-path="url(#clip610)" d="M 0 0 M986.149 1543 Q982.538 1543 980.709 1546.56 Q978.904 1550.11 978.904 1557.23 Q978.904 1564.34 980.709 1567.91 Q982.538 1571.45 986.149 1571.45 Q989.783 1571.45 991.589 1567.91 Q993.418 1564.34 993.418 1557.23 Q993.418 1550.11 991.589 1546.56 Q989.783 1543 986.149 1543 M986.149 1539.29 Q991.959 1539.29 995.015 1543.9 Q998.093 1548.48 998.093 1557.23 Q998.093 1565.96 995.015 1570.57 Q991.959 1575.15 986.149 1575.15 Q980.339 1575.15 977.26 1570.57 Q974.205 1565.96 974.205 1557.23 Q974.205 1548.48 977.26 1543.9 Q980.339 1539.29 986.149 1539.29 Z" fill="#000000" fill-rule="evenodd" fill-opacity="1" /><path clip-path="url(#clip610)" d="M 0 0 M1354.26 1543 Q1350.65 1543 1348.82 1546.56 Q1347.01 1550.11 1347.01 1557.23 Q1347.01 1564.34 1348.82 1567.91 Q1350.65 1571.45 1354.26 1571.45 Q1357.89 1571.45 1359.7 1567.91 Q1361.53 1564.34 1361.53 1557.23 Q1361.53 1550.11 1359.7 1546.56 Q1357.89 1543 1354.26 1543 M1354.26 1539.29 Q1360.07 1539.29 1363.12 1543.9 Q1366.2 1548.48 1366.2 1557.23 Q1366.2 1565.96 1363.12 1570.57 Q1360.07 1575.15 1354.26 1575.15 Q1348.45 1575.15 1345.37 1570.57 Q1342.31 1565.96 1342.31 1557.23 Q1342.31 1548.48 1345.37 1543.9 Q1348.45 1539.29 1354.26 1539.29 Z" fill="#000000" fill-rule="evenodd" fill-opacity="1" /><path clip-path="url(#clip610)" d="M 0 0 M1371.27 1568.6 L1376.16 1568.6 L1376.16 1574.48 L1371.27 1574.48 L1371.27 1568.6 Z" fill="#000000" fill-rule="evenodd" fill-opacity="1" /><path clip-path="url(#clip610)" d="M 0 0 M1380.05 1539.92 L1402.27 1539.92 L1402.27 1541.91 L1389.72 1574.48 L1384.84 1574.48 L1396.64 1543.86 L1380.05 1543.86 L1380.05 1539.92 Z" fill="#000000" fill-rule="evenodd" fill-opacity="1" /><path clip-path="url(#clip610)" d="M 0 0 M1407.38 1539.92 L1425.74 1539.92 L1425.74 1543.86 L1411.67 1543.86 L1411.67 1552.33 Q1412.68 1551.98 1413.7 1551.82 Q1414.72 1551.63 1415.74 1551.63 Q1421.53 1551.63 1424.91 1554.8 Q1428.29 1557.98 1428.29 1563.39 Q1428.29 1568.97 1424.81 1572.07 Q1421.34 1575.15 1415.02 1575.15 Q1412.85 1575.15 1410.58 1574.78 Q1408.33 1574.41 1405.93 1573.67 L1405.93 1568.97 Q1408.01 1570.1 1410.23 1570.66 Q1412.45 1571.22 1414.93 1571.22 Q1418.93 1571.22 1421.27 1569.11 Q1423.61 1567 1423.61 1563.39 Q1423.61 1559.78 1421.27 1557.67 Q1418.93 1555.57 1414.93 1555.57 Q1413.05 1555.57 1411.18 1555.98 Q1409.33 1556.4 1407.38 1557.28 L1407.38 1539.92 Z" fill="#000000" fill-rule="evenodd" fill-opacity="1" /><path clip-path="url(#clip610)" d="M 0 0 M1784.05 1543 Q1780.44 1543 1778.61 1546.56 Q1776.8 1550.11 1776.8 1557.23 Q1776.8 1564.34 1778.61 1567.91 Q1780.44 1571.45 1784.05 1571.45 Q1787.68 1571.45 1789.49 1567.91 Q1791.32 1564.34 1791.32 1557.23 Q1791.32 1550.11 1789.49 1546.56 Q1787.68 1543 1784.05 1543 M1784.05 1539.29 Q1789.86 1539.29 1792.91 1543.9 Q1795.99 1548.48 1795.99 1557.23 Q1795.99 1565.96 1792.91 1570.57 Q1789.86 1575.15 1784.05 1575.15 Q1778.24 1575.15 1775.16 1570.57 Q1772.1 1565.96 1772.1 1557.23 Q1772.1 1548.48 1775.16 1543.9 Q1778.24 1539.29 1784.05 1539.29 Z" fill="#000000" fill-rule="evenodd" fill-opacity="1" /><path clip-path="url(#clip610)" d="M 0 0 M1801.06 1568.6 L1805.94 1568.6 L1805.94 1574.48 L1801.06 1574.48 L1801.06 1568.6 Z" fill="#000000" fill-rule="evenodd" fill-opacity="1" /><path clip-path="url(#clip610)" d="M 0 0 M1821.01 1558.07 Q1817.68 1558.07 1815.76 1559.85 Q1813.86 1561.63 1813.86 1564.76 Q1813.86 1567.88 1815.76 1569.67 Q1817.68 1571.45 1821.01 1571.45 Q1824.35 1571.45 1826.27 1569.67 Q1828.19 1567.86 1828.19 1564.76 Q1828.19 1561.63 1826.27 1559.85 Q1824.37 1558.07 1821.01 1558.07 M1816.34 1556.08 Q1813.33 1555.34 1811.64 1553.28 Q1809.97 1551.22 1809.97 1548.25 Q1809.97 1544.11 1812.91 1541.7 Q1815.88 1539.29 1821.01 1539.29 Q1826.18 1539.29 1829.12 1541.7 Q1832.06 1544.11 1832.06 1548.25 Q1832.06 1551.22 1830.37 1553.28 Q1828.7 1555.34 1825.71 1556.08 Q1829.09 1556.86 1830.97 1559.16 Q1832.87 1561.45 1832.87 1564.76 Q1832.87 1569.78 1829.79 1572.47 Q1826.73 1575.15 1821.01 1575.15 Q1815.3 1575.15 1812.22 1572.47 Q1809.16 1569.78 1809.16 1564.76 Q1809.16 1561.45 1811.06 1559.16 Q1812.96 1556.86 1816.34 1556.08 M1814.63 1548.69 Q1814.63 1551.38 1816.29 1552.88 Q1817.98 1554.39 1821.01 1554.39 Q1824.02 1554.39 1825.71 1552.88 Q1827.43 1551.38 1827.43 1548.69 Q1827.43 1546.01 1825.71 1544.5 Q1824.02 1543 1821.01 1543 Q1817.98 1543 1816.29 1544.5 Q1814.63 1546.01 1814.63 1548.69 Z" fill="#000000" fill-rule="evenodd" fill-opacity="1" /><path clip-path="url(#clip610)" d="M 0 0 M1847.94 1543 Q1844.32 1543 1842.5 1546.56 Q1840.69 1550.11 1840.69 1557.23 Q1840.69 1564.34 1842.5 1567.91 Q1844.32 1571.45 1847.94 1571.45 Q1851.57 1571.45 1853.38 1567.91 Q1855.2 1564.34 1855.2 1557.23 Q1855.2 1550.11 1853.38 1546.56 Q1851.57 1543 1847.94 1543 M1847.94 1539.29 Q1853.75 1539.29 1856.8 1543.9 Q1859.88 1548.48 1859.88 1557.23 Q1859.88 1565.96 1856.8 1570.57 Q1853.75 1575.15 1847.94 1575.15 Q1842.13 1575.15 1839.05 1570.57 Q1835.99 1565.96 1835.99 1557.23 Q1835.99 1548.48 1839.05 1543.9 Q1842.13 1539.29 1847.94 1539.29 Z" fill="#000000" fill-rule="evenodd" fill-opacity="1" /><path clip-path="url(#clip610)" d="M 0 0 M2215.24 1543 Q2211.62 1543 2209.8 1546.56 Q2207.99 1550.11 2207.99 1557.23 Q2207.99 1564.34 2209.8 1567.91 Q2211.62 1571.45 2215.24 1571.45 Q2218.87 1571.45 2220.67 1567.91 Q2222.5 1564.34 2222.5 1557.23 Q2222.5 1550.11 2220.67 1546.56 Q2218.87 1543 2215.24 1543 M2215.24 1539.29 Q2221.05 1539.29 2224.1 1543.9 Q2227.18 1548.48 2227.18 1557.23 Q2227.18 1565.96 2224.1 1570.57 Q2221.05 1575.15 2215.24 1575.15 Q2209.42 1575.15 2206.35 1570.57 Q2203.29 1565.96 2203.29 1557.23 Q2203.29 1548.48 2206.35 1543.9 Q2209.42 1539.29 2215.24 1539.29 Z" fill="#000000" fill-rule="evenodd" fill-opacity="1" /><path clip-path="url(#clip610)" d="M 0 0 M2232.25 1568.6 L2237.13 1568.6 L2237.13 1574.48 L2232.25 1574.48 L2232.25 1568.6 Z" fill="#000000" fill-rule="evenodd" fill-opacity="1" /><path clip-path="url(#clip610)" d="M 0 0 M2252.2 1558.07 Q2248.87 1558.07 2246.95 1559.85 Q2245.05 1561.63 2245.05 1564.76 Q2245.05 1567.88 2246.95 1569.67 Q2248.87 1571.45 2252.2 1571.45 Q2255.54 1571.45 2257.46 1569.67 Q2259.38 1567.86 2259.38 1564.76 Q2259.38 1561.63 2257.46 1559.85 Q2255.56 1558.07 2252.2 1558.07 M2247.53 1556.08 Q2244.52 1555.34 2242.83 1553.28 Q2241.16 1551.22 2241.16 1548.25 Q2241.16 1544.11 2244.1 1541.7 Q2247.06 1539.29 2252.2 1539.29 Q2257.36 1539.29 2260.3 1541.7 Q2263.24 1544.11 2263.24 1548.25 Q2263.24 1551.22 2261.55 1553.28 Q2259.89 1555.34 2256.9 1556.08 Q2260.28 1556.86 2262.16 1559.16 Q2264.05 1561.45 2264.05 1564.76 Q2264.05 1569.78 2260.98 1572.47 Q2257.92 1575.15 2252.2 1575.15 Q2246.48 1575.15 2243.41 1572.47 Q2240.35 1569.78 2240.35 1564.76 Q2240.35 1561.45 2242.25 1559.16 Q2244.15 1556.86 2247.53 1556.08 M2245.81 1548.69 Q2245.81 1551.38 2247.48 1552.88 Q2249.17 1554.39 2252.2 1554.39 Q2255.21 1554.39 2256.9 1552.88 Q2258.61 1551.38 2258.61 1548.69 Q2258.61 1546.01 2256.9 1544.5 Q2255.21 1543 2252.2 1543 Q2249.17 1543 2247.48 1544.5 Q2245.81 1546.01 2245.81 1548.69 Z" fill="#000000" fill-rule="evenodd" fill-opacity="1" /><path clip-path="url(#clip610)" d="M 0 0 M2269.17 1539.92 L2287.53 1539.92 L2287.53 1543.86 L2273.45 1543.86 L2273.45 1552.33 Q2274.47 1551.98 2275.49 1551.82 Q2276.51 1551.63 2277.53 1551.63 Q2283.31 1551.63 2286.69 1554.8 Q2290.07 1557.98 2290.07 1563.39 Q2290.07 1568.97 2286.6 1572.07 Q2283.13 1575.15 2276.81 1575.15 Q2274.63 1575.15 2272.36 1574.78 Q2270.12 1574.41 2267.71 1573.67 L2267.71 1568.97 Q2269.79 1570.1 2272.02 1570.66 Q2274.24 1571.22 2276.72 1571.22 Q2280.72 1571.22 2283.06 1569.11 Q2285.4 1567 2285.4 1563.39 Q2285.4 1559.78 2283.06 1557.67 Q2280.72 1555.57 2276.72 1555.57 Q2274.84 1555.57 2272.97 1555.98 Q2271.11 1556.4 2269.17 1557.28 L2269.17 1539.92 Z" fill="#000000" fill-rule="evenodd" fill-opacity="1" /><path clip-path="url(#clip610)" d="M 0 0 M14.0804 1465.1 Q10.4693 1465.1 8.64057 1468.66 Q6.83502 1472.2 6.83502 1479.33 Q6.83502 1486.44 8.64057 1490 Q10.4693 1493.55 14.0804 1493.55 Q17.7146 1493.55 19.5201 1490 Q21.3488 1486.44 21.3488 1479.33 Q21.3488 1472.2 19.5201 1468.66 Q17.7146 1465.1 14.0804 1465.1 M14.0804 1461.39 Q19.8905 1461.39 22.946 1466 Q26.0247 1470.58 26.0247 1479.33 Q26.0247 1488.06 22.946 1492.67 Q19.8905 1497.25 14.0804 1497.25 Q8.2702 1497.25 5.19151 1492.67 Q2.13597 1488.06 2.13597 1479.33 Q2.13597 1470.58 5.19151 1466 Q8.2702 1461.39 14.0804 1461.39 Z" fill="#000000" fill-rule="evenodd" fill-opacity="1" /><path clip-path="url(#clip610)" d="M 0 0 M31.0941 1490.7 L35.9784 1490.7 L35.9784 1496.58 L31.0941 1496.58 L31.0941 1490.7 Z" fill="#000000" fill-rule="evenodd" fill-opacity="1" /><path clip-path="url(#clip610)" d="M 0 0 M51.0477 1465.1 Q47.4367 1465.1 45.608 1468.66 Q43.8024 1472.2 43.8024 1479.33 Q43.8024 1486.44 45.608 1490 Q47.4367 1493.55 51.0477 1493.55 Q54.682 1493.55 56.4875 1490 Q58.3162 1486.44 58.3162 1479.33 Q58.3162 1472.2 56.4875 1468.66 Q54.682 1465.1 51.0477 1465.1 M51.0477 1461.39 Q56.8579 1461.39 59.9134 1466 Q62.9921 1470.58 62.9921 1479.33 Q62.9921 1488.06 59.9134 1492.67 Q56.8579 1497.25 51.0477 1497.25 Q45.2376 1497.25 42.1589 1492.67 Q39.1034 1488.06 39.1034 1479.33 Q39.1034 1470.58 42.1589 1466 Q45.2376 1461.39 51.0477 1461.39 Z" fill="#000000" fill-rule="evenodd" fill-opacity="1" /><path clip-path="url(#clip610)" d="M 0 0 M10.7007 1167.63 L27.0201 1167.63 L27.0201 1171.57 L5.07577 1171.57 L5.07577 1167.63 Q7.73779 1164.88 12.3211 1160.25 Q16.9276 1155.6 18.1081 1154.25 Q20.3535 1151.73 21.2331 1149.99 Q22.1359 1148.23 22.1359 1146.54 Q22.1359 1143.79 20.1914 1142.05 Q18.2701 1140.32 15.1683 1140.32 Q12.9692 1140.32 10.5156 1141.08 Q8.08501 1141.85 5.30725 1143.4 L5.30725 1138.67 Q8.13131 1137.54 10.585 1136.96 Q13.0387 1136.38 15.0757 1136.38 Q20.4461 1136.38 23.6405 1139.07 Q26.8349 1141.75 26.8349 1146.24 Q26.8349 1148.37 26.0247 1150.29 Q25.2377 1152.19 23.1312 1154.79 Q22.5525 1155.46 19.4507 1158.67 Q16.3489 1161.87 10.7007 1167.63 Z" fill="#000000" fill-rule="evenodd" fill-opacity="1" /><path clip-path="url(#clip610)" d="M 0 0 M32.0895 1165.69 L36.9737 1165.69 L36.9737 1171.57 L32.0895 1171.57 L32.0895 1165.69 Z" fill="#000000" fill-rule="evenodd" fill-opacity="1" /><path clip-path="url(#clip610)" d="M 0 0 M42.0895 1137.01 L60.4458 1137.01 L60.4458 1140.94 L46.3718 1140.94 L46.3718 1149.41 Q47.3904 1149.07 48.4089 1148.91 Q49.4274 1148.72 50.4459 1148.72 Q56.2329 1148.72 59.6125 1151.89 Q62.9921 1155.06 62.9921 1160.48 Q62.9921 1166.06 59.5199 1169.16 Q56.0477 1172.24 49.7283 1172.24 Q47.5524 1172.24 45.2839 1171.87 Q43.0385 1171.5 40.6311 1170.76 L40.6311 1166.06 Q42.7145 1167.19 44.9367 1167.75 Q47.1589 1168.3 49.6357 1168.3 Q53.6403 1168.3 55.9783 1166.2 Q58.3162 1164.09 58.3162 1160.48 Q58.3162 1156.87 55.9783 1154.76 Q53.6403 1152.66 49.6357 1152.66 Q47.7607 1152.66 45.8857 1153.07 Q44.0339 1153.49 42.0895 1154.37 L42.0895 1137.01 Z" fill="#000000" fill-rule="evenodd" fill-opacity="1" /><path clip-path="url(#clip610)" d="M 0 0 M5.12207 811.998 L23.4784 811.998 L23.4784 815.933 L9.40445 815.933 L9.40445 824.405 Q10.423 824.058 11.4415 823.896 Q12.46 823.71 13.4785 823.71 Q19.2655 823.71 22.6451 826.882 Q26.0247 830.053 26.0247 835.47 Q26.0247 841.048 22.5525 844.15 Q19.0803 847.229 12.7609 847.229 Q10.585 847.229 8.31649 846.859 Q6.07113 846.488 3.66374 845.747 L3.66374 841.048 Q5.74706 842.183 7.96927 842.738 Q10.1915 843.294 12.6683 843.294 Q16.6729 843.294 19.0109 841.187 Q21.3488 839.081 21.3488 835.47 Q21.3488 831.859 19.0109 829.752 Q16.6729 827.646 12.6683 827.646 Q10.7933 827.646 8.91834 828.062 Q7.0665 828.479 5.12207 829.359 L5.12207 811.998 Z" fill="#000000" fill-rule="evenodd" fill-opacity="1" /><path clip-path="url(#clip610)" d="M 0 0 M31.0941 840.678 L35.9784 840.678 L35.9784 846.558 L31.0941 846.558 L31.0941 840.678 Z" fill="#000000" fill-rule="evenodd" fill-opacity="1" /><path clip-path="url(#clip610)" d="M 0 0 M51.0477 815.076 Q47.4367 815.076 45.608 818.641 Q43.8024 822.183 43.8024 829.312 Q43.8024 836.419 45.608 839.984 Q47.4367 843.525 51.0477 843.525 Q54.682 843.525 56.4875 839.984 Q58.3162 836.419 58.3162 829.312 Q58.3162 822.183 56.4875 818.641 Q54.682 815.076 51.0477 815.076 M51.0477 811.373 Q56.8579 811.373 59.9134 815.979 Q62.9921 820.562 62.9921 829.312 Q62.9921 838.039 59.9134 842.646 Q56.8579 847.229 51.0477 847.229 Q45.2376 847.229 42.1589 842.646 Q39.1034 838.039 39.1034 829.312 Q39.1034 820.562 42.1589 815.979 Q45.2376 811.373 51.0477 811.373 Z" fill="#000000" fill-rule="evenodd" fill-opacity="1" /><path clip-path="url(#clip610)" d="M 0 0 M4.79799 486.988 L27.0201 486.988 L27.0201 488.978 L14.4739 521.548 L9.58963 521.548 L21.3951 490.923 L4.79799 490.923 L4.79799 486.988 Z" fill="#000000" fill-rule="evenodd" fill-opacity="1" /><path clip-path="url(#clip610)" d="M 0 0 M32.0895 515.668 L36.9737 515.668 L36.9737 521.548 L32.0895 521.548 L32.0895 515.668 Z" fill="#000000" fill-rule="evenodd" fill-opacity="1" /><path clip-path="url(#clip610)" d="M 0 0 M42.0895 486.988 L60.4458 486.988 L60.4458 490.923 L46.3718 490.923 L46.3718 499.395 Q47.3904 499.048 48.4089 498.886 Q49.4274 498.7 50.4459 498.7 Q56.2329 498.7 59.6125 501.872 Q62.9921 505.043 62.9921 510.46 Q62.9921 516.038 59.5199 519.14 Q56.0477 522.219 49.7283 522.219 Q47.5524 522.219 45.2839 521.849 Q43.0385 521.478 40.6311 520.737 L40.6311 516.038 Q42.7145 517.173 44.9367 517.728 Q47.1589 518.284 49.6357 518.284 Q53.6403 518.284 55.9783 516.177 Q58.3162 514.071 58.3162 510.46 Q58.3162 506.849 55.9783 504.742 Q53.6403 502.636 49.6357 502.636 Q47.7607 502.636 45.8857 503.052 Q44.0339 503.469 42.0895 504.349 L42.0895 486.988 Z" fill="#000000" fill-rule="evenodd" fill-opacity="1" /><path clip-path="url(#clip610)" d="M 0 0 M-20.8963 192.602 L-13.2575 192.602 L-13.2575 166.237 L-21.5676 167.903 L-21.5676 163.644 L-13.3038 161.978 L-8.62786 161.978 L-8.62786 192.602 L-0.989013 192.602 L-0.989013 196.538 L-20.8963 196.538 L-20.8963 192.602 Z" fill="#000000" fill-rule="evenodd" fill-opacity="1" /><path clip-path="url(#clip610)" d="M 0 0 M14.0804 165.056 Q10.4693 165.056 8.64057 168.621 Q6.83502 172.163 6.83502 179.292 Q6.83502 186.399 8.64057 189.964 Q10.4693 193.505 14.0804 193.505 Q17.7146 193.505 19.5201 189.964 Q21.3488 186.399 21.3488 179.292 Q21.3488 172.163 19.5201 168.621 Q17.7146 165.056 14.0804 165.056 M14.0804 161.353 Q19.8905 161.353 22.946 165.959 Q26.0247 170.542 26.0247 179.292 Q26.0247 188.019 22.946 192.626 Q19.8905 197.209 14.0804 197.209 Q8.2702 197.209 5.19151 192.626 Q2.13597 188.019 2.13597 179.292 Q2.13597 170.542 5.19151 165.959 Q8.2702 161.353 14.0804 161.353 Z" fill="#000000" fill-rule="evenodd" fill-opacity="1" /><path clip-path="url(#clip610)" d="M 0 0 M31.0941 190.658 L35.9784 190.658 L35.9784 196.538 L31.0941 196.538 L31.0941 190.658 Z" fill="#000000" fill-rule="evenodd" fill-opacity="1" /><path clip-path="url(#clip610)" d="M 0 0 M51.0477 165.056 Q47.4367 165.056 45.608 168.621 Q43.8024 172.163 43.8024 179.292 Q43.8024 186.399 45.608 189.964 Q47.4367 193.505 51.0477 193.505 Q54.682 193.505 56.4875 189.964 Q58.3162 186.399 58.3162 179.292 Q58.3162 172.163 56.4875 168.621 Q54.682 165.056 51.0477 165.056 M51.0477 161.353 Q56.8579 161.353 59.9134 165.959 Q62.9921 170.542 62.9921 179.292 Q62.9921 188.019 59.9134 192.626 Q56.8579 197.209 51.0477 197.209 Q45.2376 197.209 42.1589 192.626 Q39.1034 188.019 39.1034 179.292 Q39.1034 170.542 42.1589 165.959 Q45.2376 161.353 51.0477 161.353 Z" fill="#000000" fill-rule="evenodd" fill-opacity="1" /><path clip-path="url(#clip612)" d="
M151.118 1463.67 L155.539 1462.82 L159.961 1461.99 L164.383 1461.19 L168.805 1460.43 L173.226 1459.7 L177.648 1459.01 L182.07 1458.35 L186.492 1457.72 L190.913 1457.11 
  L195.335 1456.53 L199.757 1455.95 L204.179 1455.37 L208.601 1454.77 L213.022 1454.14 L217.444 1453.46 L221.866 1452.71 L226.288 1451.88 L230.709 1450.94 L235.131 1449.88 
  L239.553 1448.68 L243.975 1447.32 L248.397 1445.79 L252.818 1444.09 L257.24 1442.2 L261.662 1440.14 L266.084 1437.89 L270.505 1435.48 L274.927 1432.92 L279.349 1430.23 
  L283.771 1427.43 L288.192 1424.54 L292.614 1421.61 L297.036 1418.65 L301.458 1415.71 L305.88 1412.8 L310.301 1409.96 L314.723 1407.2 L319.145 1404.54 L323.567 1402 
  L327.988 1399.56 L332.41 1397.22 L336.832 1394.96 L341.254 1392.76 L345.676 1390.59 L350.097 1388.39 L354.519 1386.14 L358.941 1383.78 L363.363 1381.27 L367.784 1378.55 
  L372.206 1375.59 L376.628 1372.34 L381.05 1368.78 L385.471 1364.88 L389.893 1360.64 L394.315 1356.06 L398.737 1351.16 L403.159 1345.95 L407.58 1340.47 L412.002 1334.78 
  L416.424 1328.92 L420.846 1322.95 L425.267 1316.94 L429.689 1310.94 L434.111 1305.02 L438.533 1299.23 L442.955 1293.62 L447.376 1288.23 L451.798 1283.1 L456.22 1278.24 
  L460.642 1273.66 L465.063 1269.35 L469.485 1265.32 L473.907 1261.52 L478.329 1257.92 L482.75 1254.48 L487.172 1251.16 L491.594 1247.89 L496.016 1244.61 L500.438 1241.28 
  L504.859 1237.83 L509.281 1234.21 L513.703 1230.37 L518.125 1226.25 L522.546 1221.84 L526.968 1217.08 L531.39 1211.96 L535.812 1206.47 L540.234 1200.59 L544.655 1194.34 
  L549.077 1187.72 L553.499 1180.74 L557.921 1173.43 L562.342 1165.83 L566.764 1157.95 L571.186 1149.84 L575.608 1141.54 L580.029 1133.07 L584.451 1124.48 L588.873 1115.8 
  L588.873 1479.3 L584.451 1479.3 L580.029 1479.3 L575.608 1479.3 L571.186 1479.3 L566.764 1479.3 L562.342 1479.3 L557.921 1479.3 L553.499 1479.3 L549.077 1479.3 
  L544.655 1479.3 L540.234 1479.3 L535.812 1479.3 L531.39 1479.3 L526.968 1479.3 L522.546 1479.3 L518.125 1479.3 L513.703 1479.3 L509.281 1479.3 L504.859 1479.3 
  L500.438 1479.3 L496.016 1479.3 L491.594 1479.3 L487.172 1479.3 L482.75 1479.3 L478.329 1479.3 L473.907 1479.3 L469.485 1479.3 L465.063 1479.3 L460.642 1479.3 
  L456.22 1479.3 L451.798 1479.3 L447.376 1479.3 L442.955 1479.3 L438.533 1479.3 L434.111 1479.3 L429.689 1479.3 L425.267 1479.3 L420.846 1479.3 L416.424 1479.3 
  L412.002 1479.3 L407.58 1479.3 L403.159 1479.3 L398.737 1479.3 L394.315 1479.3 L389.893 1479.3 L385.471 1479.3 L381.05 1479.3 L376.628 1479.3 L372.206 1479.3 
  L367.784 1479.3 L363.363 1479.3 L358.941 1479.3 L354.519 1479.3 L350.097 1479.3 L345.676 1479.3 L341.254 1479.3 L336.832 1479.3 L332.41 1479.3 L327.988 1479.3 
  L323.567 1479.3 L319.145 1479.3 L314.723 1479.3 L310.301 1479.3 L305.88 1479.3 L301.458 1479.3 L297.036 1479.3 L292.614 1479.3 L288.192 1479.3 L283.771 1479.3 
  L279.349 1479.3 L274.927 1479.3 L270.505 1479.3 L266.084 1479.3 L261.662 1479.3 L257.24 1479.3 L252.818 1479.3 L248.397 1479.3 L243.975 1479.3 L239.553 1479.3 
  L235.131 1479.3 L230.709 1479.3 L226.288 1479.3 L221.866 1479.3 L217.444 1479.3 L213.022 1479.3 L208.601 1479.3 L204.179 1479.3 L199.757 1479.3 L195.335 1479.3 
  L190.913 1479.3 L186.492 1479.3 L182.07 1479.3 L177.648 1479.3 L173.226 1479.3 L168.805 1479.3 L164.383 1479.3 L159.961 1479.3 L155.539 1479.3 L151.118 1479.3 
   Z
  " fill="#ffa500" fill-rule="evenodd" fill-opacity="0.5"/>
<polyline clip-path="url(#clip612)" style="stroke:#ffa500; stroke-width:4; stroke-opacity:1; fill:none" points="
  151.118,1463.67 155.539,1462.82 159.961,1461.99 164.383,1461.19 168.805,1460.43 173.226,1459.7 177.648,1459.01 182.07,1458.35 186.492,1457.72 190.913,1457.11 
  195.335,1456.53 199.757,1455.95 204.179,1455.37 208.601,1454.77 213.022,1454.14 217.444,1453.46 221.866,1452.71 226.288,1451.88 230.709,1450.94 235.131,1449.88 
  239.553,1448.68 243.975,1447.32 248.397,1445.79 252.818,1444.09 257.24,1442.2 261.662,1440.14 266.084,1437.89 270.505,1435.48 274.927,1432.92 279.349,1430.23 
  283.771,1427.43 288.192,1424.54 292.614,1421.61 297.036,1418.65 301.458,1415.71 305.88,1412.8 310.301,1409.96 314.723,1407.2 319.145,1404.54 323.567,1402 
  327.988,1399.56 332.41,1397.22 336.832,1394.96 341.254,1392.76 345.676,1390.59 350.097,1388.39 354.519,1386.14 358.941,1383.78 363.363,1381.27 367.784,1378.55 
  372.206,1375.59 376.628,1372.34 381.05,1368.78 385.471,1364.88 389.893,1360.64 394.315,1356.06 398.737,1351.16 403.159,1345.95 407.58,1340.47 412.002,1334.78 
  416.424,1328.92 420.846,1322.95 425.267,1316.94 429.689,1310.94 434.111,1305.02 438.533,1299.23 442.955,1293.62 447.376,1288.23 451.798,1283.1 456.22,1278.24 
  460.642,1273.66 465.063,1269.35 469.485,1265.32 473.907,1261.52 478.329,1257.92 482.75,1254.48 487.172,1251.16 491.594,1247.89 496.016,1244.61 500.438,1241.28 
  504.859,1237.83 509.281,1234.21 513.703,1230.37 518.125,1226.25 522.546,1221.84 526.968,1217.08 531.39,1211.96 535.812,1206.47 540.234,1200.59 544.655,1194.34 
  549.077,1187.72 553.499,1180.74 557.921,1173.43 562.342,1165.83 566.764,1157.95 571.186,1149.84 575.608,1141.54 580.029,1133.07 584.451,1124.48 588.873,1115.8 
  
  "/>
<path clip-path="url(#clip612)" d="
M588.873 1115.8 L599.912 1093.93 L610.951 1072.01 L621.99 1050.16 L633.029 1028.27 L644.067 1006 L655.106 982.84 L666.145 958.182 L677.184 931.397 L688.223 901.941 
  L699.262 869.486 L710.301 834.059 L721.34 796.144 L732.379 756.719 L743.417 717.162 L754.456 679.05 L765.495 643.867 L776.534 612.712 L787.573 586.076 L798.612 563.755 
  L809.651 544.927 L820.69 528.359 L831.729 512.702 L842.767 496.803 L853.806 479.94 L864.845 461.929 L875.884 443.046 L886.923 423.797 L897.962 404.593 L909.001 385.473 
  L920.04 365.968 L931.079 345.193 L942.117 322.121 L953.156 295.957 L964.195 266.481 L975.234 234.256 L986.273 200.654 L997.312 167.706 L1008.35 137.825 L1019.39 113.457 
  L1030.43 96.6988 L1041.47 88.9544 L1052.51 90.6694 L1063.55 101.22 L1074.58 119.003 L1085.62 141.731 L1096.66 166.877 L1107.7 192.148 L1118.74 215.853 L1129.78 237.053 
  L1140.82 255.478 L1151.86 271.262 L1162.9 284.629 L1173.93 295.659 L1184.97 304.214 L1196.01 310.043 L1207.05 312.987 L1218.09 313.2 L1229.13 311.282 L1240.17 308.278 
  L1251.21 305.549 L1262.25 304.581 L1273.28 306.777 L1284.32 313.293 L1295.36 324.942 L1306.4 342.143 L1317.44 364.904 L1328.48 392.832 L1339.52 425.15 L1350.56 460.751 
  L1361.6 498.265 L1372.63 536.163 L1383.67 572.875 L1394.71 606.931 L1405.75 637.119 L1416.79 662.65 L1427.83 683.296 L1438.87 699.478 L1449.91 712.25 L1460.95 723.162 
  L1471.98 733.992 L1483.02 746.411 L1494.06 761.65 L1505.1 780.249 L1516.14 801.968 L1527.18 825.896 L1538.22 850.714 L1549.26 875.059 L1560.3 897.889 L1571.33 918.734 
  L1582.37 937.8 L1593.41 955.864 L1604.45 974.036 L1615.49 993.428 L1626.53 1014.84 L1637.57 1038.52 L1648.61 1064.1 L1659.65 1090.64 L1670.68 1116.83 L1681.72 1141.27 
  L1681.72 1479.3 L1670.68 1479.3 L1659.65 1479.3 L1648.61 1479.3 L1637.57 1479.3 L1626.53 1479.3 L1615.49 1479.3 L1604.45 1479.3 L1593.41 1479.3 L1582.37 1479.3 
  L1571.33 1479.3 L1560.3 1479.3 L1549.26 1479.3 L1538.22 1479.3 L1527.18 1479.3 L1516.14 1479.3 L1505.1 1479.3 L1494.06 1479.3 L1483.02 1479.3 L1471.98 1479.3 
  L1460.95 1479.3 L1449.91 1479.3 L1438.87 1479.3 L1427.83 1479.3 L1416.79 1479.3 L1405.75 1479.3 L1394.71 1479.3 L1383.67 1479.3 L1372.63 1479.3 L1361.6 1479.3 
  L1350.56 1479.3 L1339.52 1479.3 L1328.48 1479.3 L1317.44 1479.3 L1306.4 1479.3 L1295.36 1479.3 L1284.32 1479.3 L1273.28 1479.3 L1262.25 1479.3 L1251.21 1479.3 
  L1240.17 1479.3 L1229.13 1479.3 L1218.09 1479.3 L1207.05 1479.3 L1196.01 1479.3 L1184.97 1479.3 L1173.93 1479.3 L1162.9 1479.3 L1151.86 1479.3 L1140.82 1479.3 
  L1129.78 1479.3 L1118.74 1479.3 L1107.7 1479.3 L1096.66 1479.3 L1085.62 1479.3 L1074.58 1479.3 L1063.55 1479.3 L1052.51 1479.3 L1041.47 1479.3 L1030.43 1479.3 
  L1019.39 1479.3 L1008.35 1479.3 L997.312 1479.3 L986.273 1479.3 L975.234 1479.3 L964.195 1479.3 L953.156 1479.3 L942.117 1479.3 L931.079 1479.3 L920.04 1479.3 
  L909.001 1479.3 L897.962 1479.3 L886.923 1479.3 L875.884 1479.3 L864.845 1479.3 L853.806 1479.3 L842.767 1479.3 L831.729 1479.3 L820.69 1479.3 L809.651 1479.3 
  L798.612 1479.3 L787.573 1479.3 L776.534 1479.3 L765.495 1479.3 L754.456 1479.3 L743.417 1479.3 L732.379 1479.3 L721.34 1479.3 L710.301 1479.3 L699.262 1479.3 
  L688.223 1479.3 L677.184 1479.3 L666.145 1479.3 L655.106 1479.3 L644.067 1479.3 L633.029 1479.3 L621.99 1479.3 L610.951 1479.3 L599.912 1479.3 L588.873 1479.3 
   Z
  " fill="#008000" fill-rule="evenodd" fill-opacity="0.5"/>
<polyline clip-path="url(#clip612)" style="stroke:#008000; stroke-width:4; stroke-opacity:1; fill:none" points="
  588.873,1115.8 599.912,1093.93 610.951,1072.01 621.99,1050.16 633.029,1028.27 644.067,1006 655.106,982.84 666.145,958.182 677.184,931.397 688.223,901.941 
  699.262,869.486 710.301,834.059 721.34,796.144 732.379,756.719 743.417,717.162 754.456,679.05 765.495,643.867 776.534,612.712 787.573,586.076 798.612,563.755 
  809.651,544.927 820.69,528.359 831.729,512.702 842.767,496.803 853.806,479.94 864.845,461.929 875.884,443.046 886.923,423.797 897.962,404.593 909.001,385.473 
  920.04,365.968 931.079,345.193 942.117,322.121 953.156,295.957 964.195,266.481 975.234,234.256 986.273,200.654 997.312,167.706 1008.35,137.825 1019.39,113.457 
  1030.43,96.6988 1041.47,88.9544 1052.51,90.6694 1063.55,101.22 1074.58,119.003 1085.62,141.731 1096.66,166.877 1107.7,192.148 1118.74,215.853 1129.78,237.053 
  1140.82,255.478 1151.86,271.262 1162.9,284.629 1173.93,295.659 1184.97,304.214 1196.01,310.043 1207.05,312.987 1218.09,313.2 1229.13,311.282 1240.17,308.278 
  1251.21,305.549 1262.25,304.581 1273.28,306.777 1284.32,313.293 1295.36,324.942 1306.4,342.143 1317.44,364.904 1328.48,392.832 1339.52,425.15 1350.56,460.751 
  1361.6,498.265 1372.63,536.163 1383.67,572.875 1394.71,606.931 1405.75,637.119 1416.79,662.65 1427.83,683.296 1438.87,699.478 1449.91,712.25 1460.95,723.162 
  1471.98,733.992 1483.02,746.411 1494.06,761.65 1505.1,780.249 1516.14,801.968 1527.18,825.896 1538.22,850.714 1549.26,875.059 1560.3,897.889 1571.33,918.734 
  1582.37,937.8 1593.41,955.864 1604.45,974.036 1615.49,993.428 1626.53,1014.84 1637.57,1038.52 1648.61,1064.1 1659.65,1090.64 1670.68,1116.83 1681.72,1141.27 
  
  "/>
<path clip-path="url(#clip612)" d="
M1681.72 1141.27 L1687.85 1153.64 L1693.98 1164.94 L1700.11 1175.07 L1706.24 1184.01 L1712.37 1191.77 L1718.51 1198.42 L1724.64 1204.1 L1730.77 1208.96 L1736.9 1213.2 
  L1743.03 1217.02 L1749.16 1220.62 L1755.29 1224.19 L1761.42 1227.88 L1767.55 1231.84 L1773.68 1236.16 L1779.81 1240.9 L1785.94 1246.11 L1792.07 1251.78 L1798.2 1257.9 
  L1804.33 1264.45 L1810.46 1271.38 L1816.59 1278.66 L1822.72 1286.23 L1828.85 1294.05 L1834.98 1302.08 L1841.11 1310.25 L1847.24 1318.52 L1853.37 1326.83 L1859.5 1335.1 
  L1865.63 1343.25 L1871.76 1351.2 L1877.89 1358.86 L1884.03 1366.13 L1890.16 1372.92 L1896.29 1379.16 L1902.42 1384.76 L1908.55 1389.68 L1914.68 1393.88 L1920.81 1397.36 
  L1926.94 1400.12 L1933.07 1402.22 L1939.2 1403.72 L1945.33 1404.71 L1951.46 1405.3 L1957.59 1405.6 L1963.72 1405.74 L1969.85 1405.84 L1975.98 1406.02 L1982.11 1406.38 
  L1988.24 1407.01 L1994.37 1407.97 L2000.5 1409.31 L2006.63 1411.03 L2012.76 1413.15 L2018.89 1415.63 L2025.02 1418.42 L2031.15 1421.49 L2037.28 1424.75 L2043.42 1428.14 
  L2049.55 1431.59 L2055.68 1435.04 L2061.81 1438.42 L2067.94 1441.69 L2074.07 1444.8 L2080.2 1447.72 L2086.33 1450.44 L2092.46 1452.92 L2098.59 1455.18 L2104.72 1457.21 
  L2110.85 1459.02 L2116.98 1460.63 L2123.11 1462.04 L2129.24 1463.29 L2135.37 1464.39 L2141.5 1465.37 L2147.63 1466.23 L2153.76 1467.01 L2159.89 1467.73 L2166.02 1468.38 
  L2172.15 1468.98 L2178.28 1469.54 L2184.41 1470.07 L2190.54 1470.56 L2196.67 1471.01 L2202.81 1471.42 L2208.94 1471.79 L2215.07 1472.13 L2221.2 1472.43 L2227.33 1472.71 
  L2233.46 1472.96 L2239.59 1473.2 L2245.72 1473.43 L2251.85 1473.67 L2257.98 1473.91 L2264.11 1474.17 L2270.24 1474.45 L2276.37 1474.75 L2282.5 1475.06 L2288.63 1475.4 
  L2288.63 1479.3 L2282.5 1479.3 L2276.37 1479.3 L2270.24 1479.3 L2264.11 1479.3 L2257.98 1479.3 L2251.85 1479.3 L2245.72 1479.3 L2239.59 1479.3 L2233.46 1479.3 
  L2227.33 1479.3 L2221.2 1479.3 L2215.07 1479.3 L2208.94 1479.3 L2202.81 1479.3 L2196.67 1479.3 L2190.54 1479.3 L2184.41 1479.3 L2178.28 1479.3 L2172.15 1479.3 
  L2166.02 1479.3 L2159.89 1479.3 L2153.76 1479.3 L2147.63 1479.3 L2141.5 1479.3 L2135.37 1479.3 L2129.24 1479.3 L2123.11 1479.3 L2116.98 1479.3 L2110.85 1479.3 
  L2104.72 1479.3 L2098.59 1479.3 L2092.46 1479.3 L2086.33 1479.3 L2080.2 1479.3 L2074.07 1479.3 L2067.94 1479.3 L2061.81 1479.3 L2055.68 1479.3 L2049.55 1479.3 
  L2043.42 1479.3 L2037.28 1479.3 L2031.15 1479.3 L2025.02 1479.3 L2018.89 1479.3 L2012.76 1479.3 L2006.63 1479.3 L2000.5 1479.3 L1994.37 1479.3 L1988.24 1479.3 
  L1982.11 1479.3 L1975.98 1479.3 L1969.85 1479.3 L1963.72 1479.3 L1957.59 1479.3 L1951.46 1479.3 L1945.33 1479.3 L1939.2 1479.3 L1933.07 1479.3 L1926.94 1479.3 
  L1920.81 1479.3 L1914.68 1479.3 L1908.55 1479.3 L1902.42 1479.3 L1896.29 1479.3 L1890.16 1479.3 L1884.03 1479.3 L1877.89 1479.3 L1871.76 1479.3 L1865.63 1479.3 
  L1859.5 1479.3 L1853.37 1479.3 L1847.24 1479.3 L1841.11 1479.3 L1834.98 1479.3 L1828.85 1479.3 L1822.72 1479.3 L1816.59 1479.3 L1810.46 1479.3 L1804.33 1479.3 
  L1798.2 1479.3 L1792.07 1479.3 L1785.94 1479.3 L1779.81 1479.3 L1773.68 1479.3 L1767.55 1479.3 L1761.42 1479.3 L1755.29 1479.3 L1749.16 1479.3 L1743.03 1479.3 
  L1736.9 1479.3 L1730.77 1479.3 L1724.64 1479.3 L1718.51 1479.3 L1712.37 1479.3 L1706.24 1479.3 L1700.11 1479.3 L1693.98 1479.3 L1687.85 1479.3 L1681.72 1479.3 
   Z
  " fill="#ffa500" fill-rule="evenodd" fill-opacity="0.5"/>
<polyline clip-path="url(#clip612)" style="stroke:#ffa500; stroke-width:4; stroke-opacity:1; fill:none" points="
  1681.72,1141.27 1687.85,1153.64 1693.98,1164.94 1700.11,1175.07 1706.24,1184.01 1712.37,1191.77 1718.51,1198.42 1724.64,1204.1 1730.77,1208.96 1736.9,1213.2 
  1743.03,1217.02 1749.16,1220.62 1755.29,1224.19 1761.42,1227.88 1767.55,1231.84 1773.68,1236.16 1779.81,1240.9 1785.94,1246.11 1792.07,1251.78 1798.2,1257.9 
  1804.33,1264.45 1810.46,1271.38 1816.59,1278.66 1822.72,1286.23 1828.85,1294.05 1834.98,1302.08 1841.11,1310.25 1847.24,1318.52 1853.37,1326.83 1859.5,1335.1 
  1865.63,1343.25 1871.76,1351.2 1877.89,1358.86 1884.03,1366.13 1890.16,1372.92 1896.29,1379.16 1902.42,1384.76 1908.55,1389.68 1914.68,1393.88 1920.81,1397.36 
  1926.94,1400.12 1933.07,1402.22 1939.2,1403.72 1945.33,1404.71 1951.46,1405.3 1957.59,1405.6 1963.72,1405.74 1969.85,1405.84 1975.98,1406.02 1982.11,1406.38 
  1988.24,1407.01 1994.37,1407.97 2000.5,1409.31 2006.63,1411.03 2012.76,1413.15 2018.89,1415.63 2025.02,1418.42 2031.15,1421.49 2037.28,1424.75 2043.42,1428.14 
  2049.55,1431.59 2055.68,1435.04 2061.81,1438.42 2067.94,1441.69 2074.07,1444.8 2080.2,1447.72 2086.33,1450.44 2092.46,1452.92 2098.59,1455.18 2104.72,1457.21 
  2110.85,1459.02 2116.98,1460.63 2123.11,1462.04 2129.24,1463.29 2135.37,1464.39 2141.5,1465.37 2147.63,1466.23 2153.76,1467.01 2159.89,1467.73 2166.02,1468.38 
  2172.15,1468.98 2178.28,1469.54 2184.41,1470.07 2190.54,1470.56 2196.67,1471.01 2202.81,1471.42 2208.94,1471.79 2215.07,1472.13 2221.2,1472.43 2227.33,1472.71 
  2233.46,1472.96 2239.59,1473.2 2245.72,1473.43 2251.85,1473.67 2257.98,1473.91 2264.11,1474.17 2270.24,1474.45 2276.37,1474.75 2282.5,1475.06 2288.63,1475.4 
  
  "/>
<polyline clip-path="url(#clip612)" style="stroke:#0000ff; stroke-width:4; stroke-opacity:1; fill:none" points="
  1125.47,1479.3 1125.47,229.098 
  "/>
<polyline clip-path="url(#clip612)" style="stroke:#000000; stroke-width:4; stroke-opacity:1; fill:none" points="
  1111.12,1479.3 1111.12,199.708 
  "/>
<path clip-path="url(#clip610)" d="
M1494.58 459.25 L2277.23 459.25 L2277.23 96.3696 L1494.58 96.3696  Z
  " fill="#ffffff" fill-rule="evenodd" fill-opacity="1"/>
<polyline clip-path="url(#clip610)" style="stroke:#000000; stroke-width:4; stroke-opacity:1; fill:none" points="
  1494.58,459.25 2277.23,459.25 2277.23,96.3696 1494.58,96.3696 1494.58,459.25 
  "/>
<path clip-path="url(#clip610)" d="
M1519.75 181.042 L1670.81 181.042 L1670.81 132.658 L1519.75 132.658 L1519.75 181.042  Z
  " fill="#ffa500" fill-rule="evenodd" fill-opacity="0.5"/>
<polyline clip-path="url(#clip610)" style="stroke:#ffa500; stroke-width:4; stroke-opacity:1; fill:none" points="
  1519.75,132.658 1670.81,132.658 
  "/>
<path clip-path="url(#clip610)" d="M 0 0 M1700.38 161.19 Q1700.38 165.889 1702.3 168.574 Q1704.24 171.236 1707.62 171.236 Q1711 171.236 1712.95 168.574 Q1714.89 165.889 1714.89 161.19 Q1714.89 156.491 1712.95 153.829 Q1711 151.144 1707.62 151.144 Q1704.24 151.144 1702.3 153.829 Q1700.38 156.491 1700.38 161.19 M1714.89 170.241 Q1713.55 172.555 1711.49 173.69 Q1709.45 174.801 1706.58 174.801 Q1701.88 174.801 1698.92 171.051 Q1695.98 167.301 1695.98 161.19 Q1695.98 155.079 1698.92 151.329 Q1701.88 147.579 1706.58 147.579 Q1709.45 147.579 1711.49 148.713 Q1713.55 149.824 1714.89 152.139 L1714.89 148.204 L1719.15 148.204 L1719.15 183.991 L1714.89 183.991 L1714.89 170.241 Z" fill="#000000" fill-rule="evenodd" fill-opacity="1" /><path clip-path="url(#clip610)" d="M 0 0 M1734.22 142.648 Q1730.61 142.648 1728.78 146.213 Q1726.98 149.755 1726.98 156.884 Q1726.98 163.991 1728.78 167.556 Q1730.61 171.097 1734.22 171.097 Q1737.85 171.097 1739.66 167.556 Q1741.49 163.991 1741.49 156.884 Q1741.49 149.755 1739.66 146.213 Q1737.85 142.648 1734.22 142.648 M1734.22 138.945 Q1740.03 138.945 1743.09 143.551 Q1746.17 148.134 1746.17 156.884 Q1746.17 165.611 1743.09 170.218 Q1740.03 174.801 1734.22 174.801 Q1728.41 174.801 1725.33 170.218 Q1722.28 165.611 1722.28 156.884 Q1722.28 148.134 1725.33 143.551 Q1728.41 138.945 1734.22 138.945 Z" fill="#000000" fill-rule="evenodd" fill-opacity="1" /><path clip-path="url(#clip610)" d="M 0 0 M1751.28 139.57 L1769.64 139.57 L1769.64 143.505 L1755.56 143.505 L1755.56 151.977 Q1756.58 151.63 1757.6 151.468 Q1758.62 151.282 1759.64 151.282 Q1765.42 151.282 1768.8 154.454 Q1772.18 157.625 1772.18 163.042 Q1772.18 168.62 1768.71 171.722 Q1765.24 174.801 1758.92 174.801 Q1756.74 174.801 1754.48 174.43 Q1752.23 174.06 1749.82 173.319 L1749.82 168.62 Q1751.91 169.755 1754.13 170.31 Q1756.35 170.866 1758.83 170.866 Q1762.83 170.866 1765.17 168.759 Q1767.51 166.653 1767.51 163.042 Q1767.51 159.431 1765.17 157.324 Q1762.83 155.218 1758.83 155.218 Q1756.95 155.218 1755.08 155.634 Q1753.23 156.051 1751.28 156.931 L1751.28 139.57 Z" fill="#000000" fill-rule="evenodd" fill-opacity="1" /><path clip-path="url(#clip610)" d="
M1519.75 241.522 L1670.81 241.522 L1670.81 193.138 L1519.75 193.138 L1519.75 241.522  Z
  " fill="#008000" fill-rule="evenodd" fill-opacity="0.5"/>
<polyline clip-path="url(#clip610)" style="stroke:#008000; stroke-width:4; stroke-opacity:1; fill:none" points="
  1519.75,193.138 1670.81,193.138 
  "/>
<path clip-path="url(#clip610)" d="M 0 0 M1698.2 233.892 L1698.2 229.633 Q1699.96 230.466 1701.77 230.906 Q1703.57 231.346 1705.31 231.346 Q1709.94 231.346 1712.37 228.244 Q1714.82 225.119 1715.17 218.776 Q1713.83 220.767 1711.77 221.832 Q1709.71 222.897 1707.21 222.897 Q1702.02 222.897 1698.99 219.772 Q1695.98 216.624 1695.98 211.184 Q1695.98 205.86 1699.13 202.642 Q1702.28 199.425 1707.51 199.425 Q1713.5 199.425 1716.65 204.031 Q1719.82 208.614 1719.82 217.364 Q1719.82 225.536 1715.93 230.42 Q1712.07 235.281 1705.52 235.281 Q1703.76 235.281 1701.95 234.934 Q1700.15 234.586 1698.2 233.892 M1707.51 219.239 Q1710.66 219.239 1712.48 217.086 Q1714.34 214.934 1714.34 211.184 Q1714.34 207.457 1712.48 205.304 Q1710.66 203.128 1707.51 203.128 Q1704.36 203.128 1702.51 205.304 Q1700.68 207.457 1700.68 211.184 Q1700.68 214.934 1702.51 217.086 Q1704.36 219.239 1707.51 219.239 Z" fill="#000000" fill-rule="evenodd" fill-opacity="1" /><path clip-path="url(#clip610)" d="M 0 0 M1734.89 203.128 Q1731.28 203.128 1729.45 206.693 Q1727.65 210.235 1727.65 217.364 Q1727.65 224.471 1729.45 228.036 Q1731.28 231.577 1734.89 231.577 Q1738.53 231.577 1740.33 228.036 Q1742.16 224.471 1742.16 217.364 Q1742.16 210.235 1740.33 206.693 Q1738.53 203.128 1734.89 203.128 M1734.89 199.425 Q1740.7 199.425 1743.76 204.031 Q1746.84 208.614 1746.84 217.364 Q1746.84 226.091 1743.76 230.698 Q1740.7 235.281 1734.89 235.281 Q1729.08 235.281 1726 230.698 Q1722.95 226.091 1722.95 217.364 Q1722.95 208.614 1726 204.031 Q1729.08 199.425 1734.89 199.425 Z" fill="#000000" fill-rule="evenodd" fill-opacity="1" /><path clip-path="url(#clip610)" d="M 0 0 M1781.3 219.401 Q1779.29 219.401 1778.13 221.114 Q1777 222.827 1777 225.883 Q1777 228.892 1778.13 230.628 Q1779.29 232.341 1781.3 232.341 Q1783.27 232.341 1784.41 230.628 Q1785.56 228.892 1785.56 225.883 Q1785.56 222.85 1784.41 221.137 Q1783.27 219.401 1781.3 219.401 M1781.3 216.462 Q1784.96 216.462 1787.11 219.008 Q1789.27 221.554 1789.27 225.883 Q1789.27 230.211 1787.09 232.758 Q1784.94 235.281 1781.3 235.281 Q1777.6 235.281 1775.45 232.758 Q1773.29 230.211 1773.29 225.883 Q1773.29 221.531 1775.45 219.008 Q1777.62 216.462 1781.3 216.462 M1757.42 202.364 Q1755.42 202.364 1754.27 204.1 Q1753.13 205.813 1753.13 208.823 Q1753.13 211.878 1754.27 213.591 Q1755.4 215.304 1757.42 215.304 Q1759.43 215.304 1760.56 213.591 Q1761.72 211.878 1761.72 208.823 Q1761.72 205.837 1760.56 204.1 Q1759.41 202.364 1757.42 202.364 M1778.32 199.425 L1782.02 199.425 L1760.4 235.281 L1756.7 235.281 L1778.32 199.425 M1757.42 199.425 Q1761.07 199.425 1763.25 201.971 Q1765.42 204.494 1765.42 208.823 Q1765.42 213.198 1763.25 215.721 Q1761.1 218.244 1757.42 218.244 Q1753.73 218.244 1751.58 215.721 Q1749.45 213.174 1749.45 208.823 Q1749.45 204.517 1751.6 201.971 Q1753.76 199.425 1757.42 199.425 Z" fill="#000000" fill-rule="evenodd" fill-opacity="1" /><path clip-path="url(#clip610)" d="M 0 0 M1830.35 218.961 L1830.35 234.61 L1826.1 234.61 L1826.1 219.1 Q1826.1 215.42 1824.66 213.591 Q1823.22 211.762 1820.35 211.762 Q1816.91 211.762 1814.91 213.962 Q1812.92 216.161 1812.92 219.957 L1812.92 234.61 L1808.64 234.61 L1808.64 208.684 L1812.92 208.684 L1812.92 212.712 Q1814.45 210.374 1816.51 209.216 Q1818.6 208.059 1821.3 208.059 Q1825.77 208.059 1828.06 210.837 Q1830.35 213.591 1830.35 218.961 Z" fill="#000000" fill-rule="evenodd" fill-opacity="1" /><path clip-path="url(#clip610)" d="M 0 0 M1844.87 211.67 Q1841.44 211.67 1839.45 214.355 Q1837.46 217.017 1837.46 221.67 Q1837.46 226.323 1839.43 229.008 Q1841.42 231.67 1844.87 231.67 Q1848.27 231.67 1850.26 228.985 Q1852.25 226.299 1852.25 221.67 Q1852.25 217.063 1850.26 214.378 Q1848.27 211.67 1844.87 211.67 M1844.87 208.059 Q1850.42 208.059 1853.6 211.67 Q1856.77 215.281 1856.77 221.67 Q1856.77 228.036 1853.6 231.67 Q1850.42 235.281 1844.87 235.281 Q1839.29 235.281 1836.12 231.67 Q1832.97 228.036 1832.97 221.67 Q1832.97 215.281 1836.12 211.67 Q1839.29 208.059 1844.87 208.059 Z" fill="#000000" fill-rule="evenodd" fill-opacity="1" /><path clip-path="url(#clip610)" d="M 0 0 M1882.78 218.961 L1882.78 234.61 L1878.53 234.61 L1878.53 219.1 Q1878.53 215.42 1877.09 213.591 Q1875.66 211.762 1872.78 211.762 Q1869.34 211.762 1867.35 213.962 Q1865.35 216.161 1865.35 219.957 L1865.35 234.61 L1861.07 234.61 L1861.07 208.684 L1865.35 208.684 L1865.35 212.712 Q1866.88 210.374 1868.94 209.216 Q1871.03 208.059 1873.73 208.059 Q1878.2 208.059 1880.49 210.837 Q1882.78 213.591 1882.78 218.961 Z" fill="#000000" fill-rule="evenodd" fill-opacity="1" /><path clip-path="url(#clip610)" d="M 0 0 M1885.1 219.725 L1897.58 219.725 L1897.58 223.522 L1885.1 223.522 L1885.1 219.725 Z" fill="#000000" fill-rule="evenodd" fill-opacity="1" /><path clip-path="url(#clip610)" d="M 0 0 M1917.07 212.665 Q1916.35 212.249 1915.49 212.063 Q1914.66 211.855 1913.64 211.855 Q1910.03 211.855 1908.09 214.216 Q1906.16 216.554 1906.16 220.952 L1906.16 234.61 L1901.88 234.61 L1901.88 208.684 L1906.16 208.684 L1906.16 212.712 Q1907.51 210.35 1909.66 209.216 Q1911.81 208.059 1914.89 208.059 Q1915.33 208.059 1915.86 208.128 Q1916.4 208.175 1917.04 208.29 L1917.07 212.665 Z" fill="#000000" fill-rule="evenodd" fill-opacity="1" /><path clip-path="url(#clip610)" d="M 0 0 M1942.67 220.582 L1942.67 222.665 L1923.09 222.665 Q1923.36 227.063 1925.72 229.378 Q1928.11 231.67 1932.34 231.67 Q1934.8 231.67 1937.09 231.068 Q1939.4 230.466 1941.67 229.262 L1941.67 233.29 Q1939.38 234.262 1936.97 234.772 Q1934.57 235.281 1932.09 235.281 Q1925.89 235.281 1922.25 231.67 Q1918.64 228.059 1918.64 221.901 Q1918.64 215.536 1922.07 211.809 Q1925.52 208.059 1931.35 208.059 Q1936.58 208.059 1939.61 211.438 Q1942.67 214.795 1942.67 220.582 M1938.41 219.332 Q1938.36 215.837 1936.44 213.753 Q1934.54 211.67 1931.4 211.67 Q1927.83 211.67 1925.68 213.684 Q1923.55 215.698 1923.22 219.355 L1938.41 219.332 Z" fill="#000000" fill-rule="evenodd" fill-opacity="1" /><path clip-path="url(#clip610)" d="M 0 0 M1947.14 208.684 L1951.4 208.684 L1951.4 235.073 Q1951.4 240.026 1949.5 242.248 Q1947.62 244.471 1943.43 244.471 L1941.81 244.471 L1941.81 240.86 L1942.95 240.86 Q1945.38 240.86 1946.26 239.725 Q1947.14 238.614 1947.14 235.073 L1947.14 208.684 M1947.14 198.591 L1951.4 198.591 L1951.4 203.985 L1947.14 203.985 L1947.14 198.591 Z" fill="#000000" fill-rule="evenodd" fill-opacity="1" /><path clip-path="url(#clip610)" d="M 0 0 M1978.04 220.582 L1978.04 222.665 L1958.46 222.665 Q1958.73 227.063 1961.09 229.378 Q1963.48 231.67 1967.71 231.67 Q1970.17 231.67 1972.46 231.068 Q1974.78 230.466 1977.04 229.262 L1977.04 233.29 Q1974.75 234.262 1972.34 234.772 Q1969.94 235.281 1967.46 235.281 Q1961.26 235.281 1957.62 231.67 Q1954.01 228.059 1954.01 221.901 Q1954.01 215.536 1957.44 211.809 Q1960.89 208.059 1966.72 208.059 Q1971.95 208.059 1974.98 211.438 Q1978.04 214.795 1978.04 220.582 M1973.78 219.332 Q1973.73 215.837 1971.81 213.753 Q1969.91 211.67 1966.77 211.67 Q1963.2 211.67 1961.05 213.684 Q1958.92 215.698 1958.59 219.355 L1973.78 219.332 Z" fill="#000000" fill-rule="evenodd" fill-opacity="1" /><path clip-path="url(#clip610)" d="M 0 0 M2001.16 209.679 L2001.16 213.661 Q1999.36 212.665 1997.53 212.179 Q1995.72 211.67 1993.87 211.67 Q1989.73 211.67 1987.44 214.309 Q1985.15 216.924 1985.15 221.67 Q1985.15 226.415 1987.44 229.054 Q1989.73 231.67 1993.87 231.67 Q1995.72 231.67 1997.53 231.184 Q1999.36 230.674 2001.16 229.679 L2001.16 233.614 Q1999.38 234.448 1997.46 234.864 Q1995.56 235.281 1993.41 235.281 Q1987.55 235.281 1984.1 231.6 Q1980.65 227.92 1980.65 221.67 Q1980.65 215.327 1984.13 211.693 Q1987.62 208.059 1993.69 208.059 Q1995.65 208.059 1997.53 208.475 Q1999.4 208.869 2001.16 209.679 Z" fill="#000000" fill-rule="evenodd" fill-opacity="1" /><path clip-path="url(#clip610)" d="M 0 0 M2009.84 201.323 L2009.84 208.684 L2018.62 208.684 L2018.62 211.994 L2009.84 211.994 L2009.84 226.068 Q2009.84 229.239 2010.7 230.142 Q2011.58 231.045 2014.24 231.045 L2018.62 231.045 L2018.62 234.61 L2014.24 234.61 Q2009.31 234.61 2007.44 232.781 Q2005.56 230.929 2005.56 226.068 L2005.56 211.994 L2002.44 211.994 L2002.44 208.684 L2005.56 208.684 L2005.56 201.323 L2009.84 201.323 Z" fill="#000000" fill-rule="evenodd" fill-opacity="1" /><path clip-path="url(#clip610)" d="M 0 0 M2023.08 208.684 L2027.34 208.684 L2027.34 234.61 L2023.08 234.61 L2023.08 208.684 M2023.08 198.591 L2027.34 198.591 L2027.34 203.985 L2023.08 203.985 L2023.08 198.591 Z" fill="#000000" fill-rule="evenodd" fill-opacity="1" /><path clip-path="url(#clip610)" d="M 0 0 M2041.86 211.67 Q2038.43 211.67 2036.44 214.355 Q2034.45 217.017 2034.45 221.67 Q2034.45 226.323 2036.42 229.008 Q2038.41 231.67 2041.86 231.67 Q2045.26 231.67 2047.25 228.985 Q2049.24 226.299 2049.24 221.67 Q2049.24 217.063 2047.25 214.378 Q2045.26 211.67 2041.86 211.67 M2041.86 208.059 Q2047.41 208.059 2050.58 211.67 Q2053.76 215.281 2053.76 221.67 Q2053.76 228.036 2050.58 231.67 Q2047.41 235.281 2041.86 235.281 Q2036.28 235.281 2033.11 231.67 Q2029.96 228.036 2029.96 221.67 Q2029.96 215.281 2033.11 211.67 Q2036.28 208.059 2041.86 208.059 Z" fill="#000000" fill-rule="evenodd" fill-opacity="1" /><path clip-path="url(#clip610)" d="M 0 0 M2079.77 218.961 L2079.77 234.61 L2075.52 234.61 L2075.52 219.1 Q2075.52 215.42 2074.08 213.591 Q2072.64 211.762 2069.77 211.762 Q2066.33 211.762 2064.33 213.962 Q2062.34 216.161 2062.34 219.957 L2062.34 234.61 L2058.06 234.61 L2058.06 208.684 L2062.34 208.684 L2062.34 212.712 Q2063.87 210.374 2065.93 209.216 Q2068.02 208.059 2070.72 208.059 Q2075.19 208.059 2077.48 210.837 Q2079.77 213.591 2079.77 218.961 Z" fill="#000000" fill-rule="evenodd" fill-opacity="1" /><path clip-path="url(#clip610)" d="M 0 0 M2114.33 212.665 Q2113.62 212.249 2112.76 212.063 Q2111.93 211.855 2110.91 211.855 Q2107.3 211.855 2105.35 214.216 Q2103.43 216.554 2103.43 220.952 L2103.43 234.61 L2099.15 234.61 L2099.15 208.684 L2103.43 208.684 L2103.43 212.712 Q2104.77 210.35 2106.93 209.216 Q2109.08 208.059 2112.16 208.059 Q2112.6 208.059 2113.13 208.128 Q2113.66 208.175 2114.31 208.29 L2114.33 212.665 Z" fill="#000000" fill-rule="evenodd" fill-opacity="1" /><path clip-path="url(#clip610)" d="M 0 0 M2139.94 220.582 L2139.94 222.665 L2120.35 222.665 Q2120.63 227.063 2122.99 229.378 Q2125.38 231.67 2129.61 231.67 Q2132.07 231.67 2134.36 231.068 Q2136.67 230.466 2138.94 229.262 L2138.94 233.29 Q2136.65 234.262 2134.24 234.772 Q2131.83 235.281 2129.36 235.281 Q2123.15 235.281 2119.52 231.67 Q2115.91 228.059 2115.91 221.901 Q2115.91 215.536 2119.33 211.809 Q2122.78 208.059 2128.62 208.059 Q2133.85 208.059 2136.88 211.438 Q2139.94 214.795 2139.94 220.582 M2135.68 219.332 Q2135.63 215.837 2133.71 213.753 Q2131.81 211.67 2128.66 211.67 Q2125.1 211.67 2122.95 213.684 Q2120.82 215.698 2120.49 219.355 L2135.68 219.332 Z" fill="#000000" fill-rule="evenodd" fill-opacity="1" /><path clip-path="url(#clip610)" d="M 0 0 M2161.46 221.346 Q2161.46 216.716 2159.54 214.17 Q2157.64 211.624 2154.2 211.624 Q2150.77 211.624 2148.85 214.17 Q2146.95 216.716 2146.95 221.346 Q2146.95 225.952 2148.85 228.498 Q2150.77 231.045 2154.2 231.045 Q2157.64 231.045 2159.54 228.498 Q2161.46 225.952 2161.46 221.346 M2165.72 231.392 Q2165.72 238.012 2162.78 241.23 Q2159.84 244.471 2153.78 244.471 Q2151.53 244.471 2149.54 244.123 Q2147.55 243.799 2145.68 243.105 L2145.68 238.961 Q2147.55 239.98 2149.38 240.466 Q2151.21 240.952 2153.11 240.952 Q2157.3 240.952 2159.38 238.753 Q2161.46 236.577 2161.46 232.156 L2161.46 230.049 Q2160.14 232.341 2158.08 233.475 Q2156.02 234.61 2153.15 234.61 Q2148.39 234.61 2145.47 230.975 Q2142.55 227.341 2142.55 221.346 Q2142.55 215.327 2145.47 211.693 Q2148.39 208.059 2153.15 208.059 Q2156.02 208.059 2158.08 209.193 Q2160.14 210.327 2161.46 212.619 L2161.46 208.684 L2165.72 208.684 L2165.72 231.392 Z" fill="#000000" fill-rule="evenodd" fill-opacity="1" /><path clip-path="url(#clip610)" d="M 0 0 M2170.19 208.684 L2174.45 208.684 L2174.45 234.61 L2170.19 234.61 L2170.19 208.684 M2170.19 198.591 L2174.45 198.591 L2174.45 203.985 L2170.19 203.985 L2170.19 198.591 Z" fill="#000000" fill-rule="evenodd" fill-opacity="1" /><path clip-path="url(#clip610)" d="M 0 0 M2188.96 211.67 Q2185.54 211.67 2183.55 214.355 Q2181.56 217.017 2181.56 221.67 Q2181.56 226.323 2183.52 229.008 Q2185.51 231.67 2188.96 231.67 Q2192.37 231.67 2194.36 228.985 Q2196.35 226.299 2196.35 221.67 Q2196.35 217.063 2194.36 214.378 Q2192.37 211.67 2188.96 211.67 M2188.96 208.059 Q2194.52 208.059 2197.69 211.67 Q2200.86 215.281 2200.86 221.67 Q2200.86 228.036 2197.69 231.67 Q2194.52 235.281 2188.96 235.281 Q2183.39 235.281 2180.21 231.67 Q2177.07 228.036 2177.07 221.67 Q2177.07 215.281 2180.21 211.67 Q2183.39 208.059 2188.96 208.059 Z" fill="#000000" fill-rule="evenodd" fill-opacity="1" /><path clip-path="url(#clip610)" d="M 0 0 M2226.88 218.961 L2226.88 234.61 L2222.62 234.61 L2222.62 219.1 Q2222.62 215.42 2221.19 213.591 Q2219.75 211.762 2216.88 211.762 Q2213.43 211.762 2211.44 213.962 Q2209.45 216.161 2209.45 219.957 L2209.45 234.61 L2205.17 234.61 L2205.17 208.684 L2209.45 208.684 L2209.45 212.712 Q2210.98 210.374 2213.04 209.216 Q2215.12 208.059 2217.83 208.059 Q2222.3 208.059 2224.59 210.837 Q2226.88 213.591 2226.88 218.961 Z" fill="#000000" fill-rule="evenodd" fill-opacity="1" /><path clip-path="url(#clip610)" d="
M1519.75 302.002 L1670.81 302.002 L1670.81 253.618 L1519.75 253.618 L1519.75 302.002  Z
  " fill="#ffa500" fill-rule="evenodd" fill-opacity="0.5"/>
<polyline clip-path="url(#clip610)" style="stroke:#ffa500; stroke-width:4; stroke-opacity:1; fill:none" points="
  1519.75,253.618 1670.81,253.618 
  "/>
<path clip-path="url(#clip610)" d="M 0 0 M1700.38 282.15 Q1700.38 286.849 1702.3 289.534 Q1704.24 292.196 1707.62 292.196 Q1711 292.196 1712.95 289.534 Q1714.89 286.849 1714.89 282.15 Q1714.89 277.451 1712.95 274.789 Q1711 272.104 1707.62 272.104 Q1704.24 272.104 1702.3 274.789 Q1700.38 277.451 1700.38 282.15 M1714.89 291.201 Q1713.55 293.515 1711.49 294.65 Q1709.45 295.761 1706.58 295.761 Q1701.88 295.761 1698.92 292.011 Q1695.98 288.261 1695.98 282.15 Q1695.98 276.039 1698.92 272.289 Q1701.88 268.539 1706.58 268.539 Q1709.45 268.539 1711.49 269.673 Q1713.55 270.784 1714.89 273.099 L1714.89 269.164 L1719.15 269.164 L1719.15 304.951 L1714.89 304.951 L1714.89 291.201 Z" fill="#000000" fill-rule="evenodd" fill-opacity="1" /><path clip-path="url(#clip610)" d="M 0 0 M1724.36 294.372 L1724.36 290.113 Q1726.12 290.946 1727.92 291.386 Q1729.73 291.826 1731.47 291.826 Q1736.1 291.826 1738.53 288.724 Q1740.98 285.599 1741.33 279.256 Q1739.98 281.247 1737.92 282.312 Q1735.86 283.377 1733.36 283.377 Q1728.18 283.377 1725.15 280.252 Q1722.14 277.104 1722.14 271.664 Q1722.14 266.34 1725.29 263.122 Q1728.43 259.905 1733.67 259.905 Q1739.66 259.905 1742.81 264.511 Q1745.98 269.094 1745.98 277.844 Q1745.98 286.016 1742.09 290.9 Q1738.23 295.761 1731.67 295.761 Q1729.92 295.761 1728.11 295.414 Q1726.3 295.066 1724.36 294.372 M1733.67 279.719 Q1736.81 279.719 1738.64 277.566 Q1740.49 275.414 1740.49 271.664 Q1740.49 267.937 1738.64 265.784 Q1736.81 263.608 1733.67 263.608 Q1730.52 263.608 1728.67 265.784 Q1726.84 267.937 1726.84 271.664 Q1726.84 275.414 1728.67 277.566 Q1730.52 279.719 1733.67 279.719 Z" fill="#000000" fill-rule="evenodd" fill-opacity="1" /><path clip-path="url(#clip610)" d="M 0 0 M1751.1 260.53 L1769.45 260.53 L1769.45 264.465 L1755.38 264.465 L1755.38 272.937 Q1756.4 272.59 1757.42 272.428 Q1758.43 272.242 1759.45 272.242 Q1765.24 272.242 1768.62 275.414 Q1772 278.585 1772 284.002 Q1772 289.58 1768.53 292.682 Q1765.05 295.761 1758.73 295.761 Q1756.56 295.761 1754.29 295.39 Q1752.04 295.02 1749.64 294.279 L1749.64 289.58 Q1751.72 290.715 1753.94 291.27 Q1756.17 291.826 1758.64 291.826 Q1762.65 291.826 1764.98 289.719 Q1767.32 287.613 1767.32 284.002 Q1767.32 280.391 1764.98 278.284 Q1762.65 276.178 1758.64 276.178 Q1756.77 276.178 1754.89 276.594 Q1753.04 277.011 1751.1 277.891 L1751.1 260.53 Z" fill="#000000" fill-rule="evenodd" fill-opacity="1" /><polyline clip-path="url(#clip610)" style="stroke:#0000ff; stroke-width:4; stroke-opacity:1; fill:none" points="
  1519.75,338.29 1670.81,338.29 
  "/>
<path clip-path="url(#clip610)" d="M 0 0 M1716.33 334.621 Q1717.92 331.75 1720.15 330.385 Q1722.37 329.019 1725.38 329.019 Q1729.43 329.019 1731.63 331.866 Q1733.83 334.69 1733.83 339.921 L1733.83 355.57 L1729.54 355.57 L1729.54 340.06 Q1729.54 336.334 1728.23 334.528 Q1726.91 332.722 1724.2 332.722 Q1720.89 332.722 1718.97 334.922 Q1717.04 337.121 1717.04 340.917 L1717.04 355.57 L1712.76 355.57 L1712.76 340.06 Q1712.76 336.31 1711.44 334.528 Q1710.12 332.722 1707.37 332.722 Q1704.11 332.722 1702.18 334.945 Q1700.26 337.144 1700.26 340.917 L1700.26 355.57 L1695.98 355.57 L1695.98 329.644 L1700.26 329.644 L1700.26 333.672 Q1701.72 331.287 1703.76 330.153 Q1705.79 329.019 1708.6 329.019 Q1711.42 329.019 1713.39 330.454 Q1715.38 331.889 1716.33 334.621 Z" fill="#000000" fill-rule="evenodd" fill-opacity="1" /><path clip-path="url(#clip610)" d="M 0 0 M1760.47 341.542 L1760.47 343.625 L1740.89 343.625 Q1741.17 348.023 1743.53 350.338 Q1745.91 352.63 1750.15 352.63 Q1752.6 352.63 1754.89 352.028 Q1757.21 351.426 1759.48 350.222 L1759.48 354.25 Q1757.18 355.222 1754.78 355.732 Q1752.37 356.241 1749.89 356.241 Q1743.69 356.241 1740.05 352.63 Q1736.44 349.019 1736.44 342.861 Q1736.44 336.496 1739.87 332.769 Q1743.32 329.019 1749.15 329.019 Q1754.38 329.019 1757.42 332.398 Q1760.47 335.755 1760.47 341.542 M1756.21 340.292 Q1756.17 336.797 1754.24 334.713 Q1752.35 332.63 1749.2 332.63 Q1745.63 332.63 1743.48 334.644 Q1741.35 336.658 1741.03 340.315 L1756.21 340.292 Z" fill="#000000" fill-rule="evenodd" fill-opacity="1" /><path clip-path="url(#clip610)" d="M 0 0 M1776.72 342.537 Q1771.56 342.537 1769.57 343.718 Q1767.58 344.898 1767.58 347.746 Q1767.58 350.014 1769.06 351.357 Q1770.56 352.676 1773.13 352.676 Q1776.67 352.676 1778.8 350.176 Q1780.96 347.653 1780.96 343.486 L1780.96 342.537 L1776.72 342.537 M1785.22 340.778 L1785.22 355.57 L1780.96 355.57 L1780.96 351.634 Q1779.5 353.995 1777.32 355.13 Q1775.15 356.241 1772 356.241 Q1768.02 356.241 1765.66 354.019 Q1763.32 351.773 1763.32 348.023 Q1763.32 343.648 1766.23 341.426 Q1769.17 339.204 1774.98 339.204 L1780.96 339.204 L1780.96 338.787 Q1780.96 335.847 1779.01 334.25 Q1777.09 332.63 1773.6 332.63 Q1771.37 332.63 1769.27 333.162 Q1767.16 333.695 1765.22 334.759 L1765.22 330.824 Q1767.55 329.922 1769.75 329.482 Q1771.95 329.019 1774.04 329.019 Q1779.66 329.019 1782.44 331.935 Q1785.22 334.852 1785.22 340.778 Z" fill="#000000" fill-rule="evenodd" fill-opacity="1" /><path clip-path="url(#clip610)" d="M 0 0 M1811.23 339.921 L1811.23 355.57 L1806.97 355.57 L1806.97 340.06 Q1806.97 336.38 1805.54 334.551 Q1804.1 332.722 1801.23 332.722 Q1797.79 332.722 1795.79 334.922 Q1793.8 337.121 1793.8 340.917 L1793.8 355.57 L1789.52 355.57 L1789.52 329.644 L1793.8 329.644 L1793.8 333.672 Q1795.33 331.334 1797.39 330.176 Q1799.48 329.019 1802.18 329.019 Q1806.65 329.019 1808.94 331.797 Q1811.23 334.551 1811.23 339.921 Z" fill="#000000" fill-rule="evenodd" fill-opacity="1" /><polyline clip-path="url(#clip610)" style="stroke:#000000; stroke-width:4; stroke-opacity:1; fill:none" points="
  1519.75,398.77 1670.81,398.77 
  "/>
<path clip-path="url(#clip610)" d="M 0 0 M1716.33 395.101 Q1717.92 392.23 1720.15 390.865 Q1722.37 389.499 1725.38 389.499 Q1729.43 389.499 1731.63 392.346 Q1733.83 395.17 1733.83 400.401 L1733.83 416.05 L1729.54 416.05 L1729.54 400.54 Q1729.54 396.814 1728.23 395.008 Q1726.91 393.202 1724.2 393.202 Q1720.89 393.202 1718.97 395.402 Q1717.04 397.601 1717.04 401.397 L1717.04 416.05 L1712.76 416.05 L1712.76 400.54 Q1712.76 396.79 1711.44 395.008 Q1710.12 393.202 1707.37 393.202 Q1704.11 393.202 1702.18 395.425 Q1700.26 397.624 1700.26 401.397 L1700.26 416.05 L1695.98 416.05 L1695.98 390.124 L1700.26 390.124 L1700.26 394.152 Q1701.72 391.767 1703.76 390.633 Q1705.79 389.499 1708.6 389.499 Q1711.42 389.499 1713.39 390.934 Q1715.38 392.369 1716.33 395.101 Z" fill="#000000" fill-rule="evenodd" fill-opacity="1" /><path clip-path="url(#clip610)" d="M 0 0 M1760.47 402.022 L1760.47 404.105 L1740.89 404.105 Q1741.17 408.503 1743.53 410.818 Q1745.91 413.11 1750.15 413.11 Q1752.6 413.11 1754.89 412.508 Q1757.21 411.906 1759.48 410.702 L1759.48 414.73 Q1757.18 415.702 1754.78 416.212 Q1752.37 416.721 1749.89 416.721 Q1743.69 416.721 1740.05 413.11 Q1736.44 409.499 1736.44 403.341 Q1736.44 396.976 1739.87 393.249 Q1743.32 389.499 1749.15 389.499 Q1754.38 389.499 1757.42 392.878 Q1760.47 396.235 1760.47 402.022 M1756.21 400.772 Q1756.17 397.277 1754.24 395.193 Q1752.35 393.11 1749.2 393.11 Q1745.63 393.11 1743.48 395.124 Q1741.35 397.138 1741.03 400.795 L1756.21 400.772 Z" fill="#000000" fill-rule="evenodd" fill-opacity="1" /><path clip-path="url(#clip610)" d="M 0 0 M1782 394.059 L1782 380.031 L1786.26 380.031 L1786.26 416.05 L1782 416.05 L1782 412.161 Q1780.66 414.475 1778.6 415.61 Q1776.56 416.721 1773.69 416.721 Q1768.99 416.721 1766.03 412.971 Q1763.09 409.221 1763.09 403.11 Q1763.09 396.999 1766.03 393.249 Q1768.99 389.499 1773.69 389.499 Q1776.56 389.499 1778.6 390.633 Q1780.66 391.744 1782 394.059 M1767.48 403.11 Q1767.48 407.809 1769.41 410.494 Q1771.35 413.156 1774.73 413.156 Q1778.11 413.156 1780.05 410.494 Q1782 407.809 1782 403.11 Q1782 398.411 1780.05 395.749 Q1778.11 393.064 1774.73 393.064 Q1771.35 393.064 1769.41 395.749 Q1767.48 398.411 1767.48 403.11 Z" fill="#000000" fill-rule="evenodd" fill-opacity="1" /><path clip-path="url(#clip610)" d="M 0 0 M1790.73 390.124 L1794.98 390.124 L1794.98 416.05 L1790.73 416.05 L1790.73 390.124 M1790.73 380.031 L1794.98 380.031 L1794.98 385.425 L1790.73 385.425 L1790.73 380.031 Z" fill="#000000" fill-rule="evenodd" fill-opacity="1" /><path clip-path="url(#clip610)" d="M 0 0 M1811.23 403.017 Q1806.07 403.017 1804.08 404.198 Q1802.09 405.378 1802.09 408.226 Q1802.09 410.494 1803.57 411.837 Q1805.08 413.156 1807.65 413.156 Q1811.19 413.156 1813.32 410.656 Q1815.47 408.133 1815.47 403.966 L1815.47 403.017 L1811.23 403.017 M1819.73 401.258 L1819.73 416.05 L1815.47 416.05 L1815.47 412.114 Q1814.01 414.475 1811.84 415.61 Q1809.66 416.721 1806.51 416.721 Q1802.53 416.721 1800.17 414.499 Q1797.83 412.253 1797.83 408.503 Q1797.83 404.128 1800.75 401.906 Q1803.69 399.684 1809.5 399.684 L1815.47 399.684 L1815.47 399.267 Q1815.47 396.327 1813.53 394.73 Q1811.6 393.11 1808.11 393.11 Q1805.89 393.11 1803.78 393.642 Q1801.67 394.175 1799.73 395.239 L1799.73 391.304 Q1802.07 390.402 1804.27 389.962 Q1806.47 389.499 1808.55 389.499 Q1814.17 389.499 1816.95 392.415 Q1819.73 395.332 1819.73 401.258 Z" fill="#000000" fill-rule="evenodd" fill-opacity="1" /><path clip-path="url(#clip610)" d="M 0 0 M1845.75 400.401 L1845.75 416.05 L1841.49 416.05 L1841.49 400.54 Q1841.49 396.86 1840.05 395.031 Q1838.62 393.202 1835.75 393.202 Q1832.3 393.202 1830.31 395.402 Q1828.32 397.601 1828.32 401.397 L1828.32 416.05 L1824.04 416.05 L1824.04 390.124 L1828.32 390.124 L1828.32 394.152 Q1829.85 391.814 1831.91 390.656 Q1833.99 389.499 1836.7 389.499 Q1841.16 389.499 1843.46 392.277 Q1845.75 395.031 1845.75 400.401 Z" fill="#000000" fill-rule="evenodd" fill-opacity="1" /></svg>
