<?xml version="1.0" encoding="utf-8"?>
<svg xmlns="http://www.w3.org/2000/svg" xmlns:xlink="http://www.w3.org/1999/xlink" width="600" height="400" viewBox="0 0 2400 1600">
<defs>
  <clipPath id="clip730">
    <rect x="0" y="0" width="2400" height="1600"/>
  </clipPath>
</defs>
<path clip-path="url(#clip730)" d="
M0 1600 L2400 1600 L2400 0 L0 0  Z
  " fill="#ffffff" fill-rule="evenodd" fill-opacity="1"/>
<defs>
  <clipPath id="clip731">
    <rect x="480" y="0" width="1681" height="1600"/>
  </clipPath>
</defs>
<path clip-path="url(#clip730)" d="
M86.9921 1521.01 L2352.76 1521.01 L2352.76 47.2441 L86.9921 47.2441  Z
  " fill="#ffffff" fill-rule="evenodd" fill-opacity="1"/>
<defs>
  <clipPath id="clip732">
    <rect x="86" y="47" width="2267" height="1475"/>
  </clipPath>
</defs>
<polyline clip-path="url(#clip732)" style="stroke:#000000; stroke-width:2; stroke-opacity:0.1; fill:none" points="
  151.024,1521.01 151.024,47.2441 
  "/>
<polyline clip-path="url(#clip732)" style="stroke:#000000; stroke-width:2; stroke-opacity:0.1; fill:none" points="
  712.095,1521.01 712.095,47.2441 
  "/>
<polyline clip-path="url(#clip732)" style="stroke:#000000; stroke-width:2; stroke-opacity:0.1; fill:none" points="
  1273.17,1521.01 1273.17,47.2441 
  "/>
<polyline clip-path="url(#clip732)" style="stroke:#000000; stroke-width:2; stroke-opacity:0.1; fill:none" points="
  1834.24,1521.01 1834.24,47.2441 
  "/>
<polyline clip-path="url(#clip732)" style="stroke:#000000; stroke-width:2; stroke-opacity:0.1; fill:none" points="
  86.9921,1479.3 2352.76,1479.3 
  "/>
<polyline clip-path="url(#clip732)" style="stroke:#000000; stroke-width:2; stroke-opacity:0.1; fill:none" points="
  86.9921,1168.32 2352.76,1168.32 
  "/>
<polyline clip-path="url(#clip732)" style="stroke:#000000; stroke-width:2; stroke-opacity:0.1; fill:none" points="
  86.9921,857.351 2352.76,857.351 
  "/>
<polyline clip-path="url(#clip732)" style="stroke:#000000; stroke-width:2; stroke-opacity:0.1; fill:none" points="
  86.9921,546.378 2352.76,546.378 
  "/>
<polyline clip-path="url(#clip732)" style="stroke:#000000; stroke-width:2; stroke-opacity:0.1; fill:none" points="
  86.9921,235.405 2352.76,235.405 
  "/>
<polyline clip-path="url(#clip730)" style="stroke:#000000; stroke-width:4; stroke-opacity:1; fill:none" points="
  86.9921,1521.01 2352.76,1521.01 
  "/>
<polyline clip-path="url(#clip730)" style="stroke:#000000; stroke-width:4; stroke-opacity:1; fill:none" points="
  86.9921,1521.01 86.9921,47.2441 
  "/>
<polyline clip-path="url(#clip730)" style="stroke:#000000; stroke-width:4; stroke-opacity:1; fill:none" points="
  151.024,1521.01 151.024,1503.32 
  "/>
<polyline clip-path="url(#clip730)" style="stroke:#000000; stroke-width:4; stroke-opacity:1; fill:none" points="
  712.095,1521.01 712.095,1503.32 
  "/>
<polyline clip-path="url(#clip730)" style="stroke:#000000; stroke-width:4; stroke-opacity:1; fill:none" points="
  1273.17,1521.01 1273.17,1503.32 
  "/>
<polyline clip-path="url(#clip730)" style="stroke:#000000; stroke-width:4; stroke-opacity:1; fill:none" points="
  1834.24,1521.01 1834.24,1503.32 
  "/>
<polyline clip-path="url(#clip730)" style="stroke:#000000; stroke-width:4; stroke-opacity:1; fill:none" points="
  86.9921,1479.3 114.181,1479.3 
  "/>
<polyline clip-path="url(#clip730)" style="stroke:#000000; stroke-width:4; stroke-opacity:1; fill:none" points="
  86.9921,1168.32 114.181,1168.32 
  "/>
<polyline clip-path="url(#clip730)" style="stroke:#000000; stroke-width:4; stroke-opacity:1; fill:none" points="
  86.9921,857.351 114.181,857.351 
  "/>
<polyline clip-path="url(#clip730)" style="stroke:#000000; stroke-width:4; stroke-opacity:1; fill:none" points="
  86.9921,546.378 114.181,546.378 
  "/>
<polyline clip-path="url(#clip730)" style="stroke:#000000; stroke-width:4; stroke-opacity:1; fill:none" points="
  86.9921,235.405 114.181,235.405 
  "/>
<path clip-path="url(#clip730)" d="M 0 0 M105.526 1543 Q101.915 1543 100.086 1546.56 Q98.2808 1550.11 98.2808 1557.23 Q98.2808 1564.34 100.086 1567.91 Q101.915 1571.45 105.526 1571.45 Q109.16 1571.45 110.966 1567.91 Q112.795 1564.34 112.795 1557.23 Q112.795 1550.11 110.966 1546.56 Q109.16 1543 105.526 1543 M105.526 1539.29 Q111.336 1539.29 114.392 1543.9 Q117.47 1548.48 117.47 1557.23 Q117.47 1565.96 114.392 1570.57 Q111.336 1575.15 105.526 1575.15 Q99.7159 1575.15 96.6372 1570.57 Q93.5817 1565.96 93.5817 1557.23 Q93.5817 1548.48 96.6372 1543.9 Q99.7159 1539.29 105.526 1539.29 Z" fill="#000000" fill-rule="evenodd" fill-opacity="1" /><path clip-path="url(#clip730)" d="M 0 0 M122.54 1568.6 L127.424 1568.6 L127.424 1574.48 L122.54 1574.48 L122.54 1568.6 Z" fill="#000000" fill-rule="evenodd" fill-opacity="1" /><path clip-path="url(#clip730)" d="M 0 0 M142.493 1543 Q138.882 1543 137.054 1546.56 Q135.248 1550.11 135.248 1557.23 Q135.248 1564.34 137.054 1567.91 Q138.882 1571.45 142.493 1571.45 Q146.128 1571.45 147.933 1567.91 Q149.762 1564.34 149.762 1557.23 Q149.762 1550.11 147.933 1546.56 Q146.128 1543 142.493 1543 M142.493 1539.29 Q148.304 1539.29 151.359 1543.9 Q154.438 1548.48 154.438 1557.23 Q154.438 1565.96 151.359 1570.57 Q148.304 1575.15 142.493 1575.15 Q136.683 1575.15 133.605 1570.57 Q130.549 1565.96 130.549 1557.23 Q130.549 1548.48 133.605 1543.9 Q136.683 1539.29 142.493 1539.29 Z" fill="#000000" fill-rule="evenodd" fill-opacity="1" /><path clip-path="url(#clip730)" d="M 0 0 M169.507 1543 Q165.896 1543 164.067 1546.56 Q162.262 1550.11 162.262 1557.23 Q162.262 1564.34 164.067 1567.91 Q165.896 1571.45 169.507 1571.45 Q173.141 1571.45 174.947 1567.91 Q176.776 1564.34 176.776 1557.23 Q176.776 1550.11 174.947 1546.56 Q173.141 1543 169.507 1543 M169.507 1539.29 Q175.317 1539.29 178.373 1543.9 Q181.452 1548.48 181.452 1557.23 Q181.452 1565.96 178.373 1570.57 Q175.317 1575.15 169.507 1575.15 Q163.697 1575.15 160.618 1570.57 Q157.563 1565.96 157.563 1557.23 Q157.563 1548.48 160.618 1543.9 Q163.697 1539.29 169.507 1539.29 Z" fill="#000000" fill-rule="evenodd" fill-opacity="1" /><path clip-path="url(#clip730)" d="M 0 0 M196.521 1543 Q192.91 1543 191.081 1546.56 Q189.276 1550.11 189.276 1557.23 Q189.276 1564.34 191.081 1567.91 Q192.91 1571.45 196.521 1571.45 Q200.155 1571.45 201.961 1567.91 Q203.789 1564.34 203.789 1557.23 Q203.789 1550.11 201.961 1546.56 Q200.155 1543 196.521 1543 M196.521 1539.29 Q202.331 1539.29 205.387 1543.9 Q208.465 1548.48 208.465 1557.23 Q208.465 1565.96 205.387 1570.57 Q202.331 1575.15 196.521 1575.15 Q190.711 1575.15 187.632 1570.57 Q184.577 1565.96 184.577 1557.23 Q184.577 1548.48 187.632 1543.9 Q190.711 1539.29 196.521 1539.29 Z" fill="#000000" fill-rule="evenodd" fill-opacity="1" /><path clip-path="url(#clip730)" d="M 0 0 M667.095 1543 Q663.484 1543 661.655 1546.56 Q659.849 1550.11 659.849 1557.23 Q659.849 1564.34 661.655 1567.91 Q663.484 1571.45 667.095 1571.45 Q670.729 1571.45 672.535 1567.91 Q674.363 1564.34 674.363 1557.23 Q674.363 1550.11 672.535 1546.56 Q670.729 1543 667.095 1543 M667.095 1539.29 Q672.905 1539.29 675.96 1543.9 Q679.039 1548.48 679.039 1557.23 Q679.039 1565.96 675.96 1570.57 Q672.905 1575.15 667.095 1575.15 Q661.285 1575.15 658.206 1570.57 Q655.15 1565.96 655.15 1557.23 Q655.15 1548.48 658.206 1543.9 Q661.285 1539.29 667.095 1539.29 Z" fill="#000000" fill-rule="evenodd" fill-opacity="1" /><path clip-path="url(#clip730)" d="M 0 0 M684.109 1568.6 L688.993 1568.6 L688.993 1574.48 L684.109 1574.48 L684.109 1568.6 Z" fill="#000000" fill-rule="evenodd" fill-opacity="1" /><path clip-path="url(#clip730)" d="M 0 0 M704.062 1543 Q700.451 1543 698.622 1546.56 Q696.817 1550.11 696.817 1557.23 Q696.817 1564.34 698.622 1567.91 Q700.451 1571.45 704.062 1571.45 Q707.696 1571.45 709.502 1567.91 Q711.331 1564.34 711.331 1557.23 Q711.331 1550.11 709.502 1546.56 Q707.696 1543 704.062 1543 M704.062 1539.29 Q709.872 1539.29 712.928 1543.9 Q716.007 1548.48 716.007 1557.23 Q716.007 1565.96 712.928 1570.57 Q709.872 1575.15 704.062 1575.15 Q698.252 1575.15 695.173 1570.57 Q692.118 1565.96 692.118 1557.23 Q692.118 1548.48 695.173 1543.9 Q698.252 1539.29 704.062 1539.29 Z" fill="#000000" fill-rule="evenodd" fill-opacity="1" /><path clip-path="url(#clip730)" d="M 0 0 M731.076 1543 Q727.465 1543 725.636 1546.56 Q723.831 1550.11 723.831 1557.23 Q723.831 1564.34 725.636 1567.91 Q727.465 1571.45 731.076 1571.45 Q734.71 1571.45 736.516 1567.91 Q738.344 1564.34 738.344 1557.23 Q738.344 1550.11 736.516 1546.56 Q734.71 1543 731.076 1543 M731.076 1539.29 Q736.886 1539.29 739.942 1543.9 Q743.02 1548.48 743.02 1557.23 Q743.02 1565.96 739.942 1570.57 Q736.886 1575.15 731.076 1575.15 Q725.266 1575.15 722.187 1570.57 Q719.132 1565.96 719.132 1557.23 Q719.132 1548.48 722.187 1543.9 Q725.266 1539.29 731.076 1539.29 Z" fill="#000000" fill-rule="evenodd" fill-opacity="1" /><path clip-path="url(#clip730)" d="M 0 0 M748.136 1539.92 L766.492 1539.92 L766.492 1543.86 L752.418 1543.86 L752.418 1552.33 Q753.437 1551.98 754.455 1551.82 Q755.474 1551.63 756.492 1551.63 Q762.279 1551.63 765.659 1554.8 Q769.039 1557.98 769.039 1563.39 Q769.039 1568.97 765.566 1572.07 Q762.094 1575.15 755.775 1575.15 Q753.599 1575.15 751.33 1574.78 Q749.085 1574.41 746.678 1573.67 L746.678 1568.97 Q748.761 1570.1 750.983 1570.66 Q753.205 1571.22 755.682 1571.22 Q759.687 1571.22 762.025 1569.11 Q764.363 1567 764.363 1563.39 Q764.363 1559.78 762.025 1557.67 Q759.687 1555.57 755.682 1555.57 Q753.807 1555.57 751.932 1555.98 Q750.08 1556.4 748.136 1557.28 L748.136 1539.92 Z" fill="#000000" fill-rule="evenodd" fill-opacity="1" /><path clip-path="url(#clip730)" d="M 0 0 M1228.28 1543 Q1224.67 1543 1222.84 1546.56 Q1221.04 1550.11 1221.04 1557.23 Q1221.04 1564.34 1222.84 1567.91 Q1224.67 1571.45 1228.28 1571.45 Q1231.92 1571.45 1233.72 1567.91 Q1235.55 1564.34 1235.55 1557.23 Q1235.55 1550.11 1233.72 1546.56 Q1231.92 1543 1228.28 1543 M1228.28 1539.29 Q1234.09 1539.29 1237.15 1543.9 Q1240.23 1548.48 1240.23 1557.23 Q1240.23 1565.96 1237.15 1570.57 Q1234.09 1575.15 1228.28 1575.15 Q1222.47 1575.15 1219.39 1570.57 Q1216.34 1565.96 1216.34 1557.23 Q1216.34 1548.48 1219.39 1543.9 Q1222.47 1539.29 1228.28 1539.29 Z" fill="#000000" fill-rule="evenodd" fill-opacity="1" /><path clip-path="url(#clip730)" d="M 0 0 M1245.3 1568.6 L1250.18 1568.6 L1250.18 1574.48 L1245.3 1574.48 L1245.3 1568.6 Z" fill="#000000" fill-rule="evenodd" fill-opacity="1" /><path clip-path="url(#clip730)" d="M 0 0 M1265.25 1543 Q1261.64 1543 1259.81 1546.56 Q1258 1550.11 1258 1557.23 Q1258 1564.34 1259.81 1567.91 Q1261.64 1571.45 1265.25 1571.45 Q1268.88 1571.45 1270.69 1567.91 Q1272.52 1564.34 1272.52 1557.23 Q1272.52 1550.11 1270.69 1546.56 Q1268.88 1543 1265.25 1543 M1265.25 1539.29 Q1271.06 1539.29 1274.11 1543.9 Q1277.19 1548.48 1277.19 1557.23 Q1277.19 1565.96 1274.11 1570.57 Q1271.06 1575.15 1265.25 1575.15 Q1259.44 1575.15 1256.36 1570.57 Q1253.3 1565.96 1253.3 1557.23 Q1253.3 1548.48 1256.36 1543.9 Q1259.44 1539.29 1265.25 1539.29 Z" fill="#000000" fill-rule="evenodd" fill-opacity="1" /><path clip-path="url(#clip730)" d="M 0 0 M1283.07 1570.54 L1290.71 1570.54 L1290.71 1544.18 L1282.4 1545.85 L1282.4 1541.59 L1290.67 1539.92 L1295.34 1539.92 L1295.34 1570.54 L1302.98 1570.54 L1302.98 1574.48 L1283.07 1574.48 L1283.07 1570.54 Z" fill="#000000" fill-rule="evenodd" fill-opacity="1" /><path clip-path="url(#clip730)" d="M 0 0 M1318.05 1543 Q1314.44 1543 1312.61 1546.56 Q1310.8 1550.11 1310.8 1557.23 Q1310.8 1564.34 1312.61 1567.91 Q1314.44 1571.45 1318.05 1571.45 Q1321.68 1571.45 1323.49 1567.91 Q1325.32 1564.34 1325.32 1557.23 Q1325.32 1550.11 1323.49 1546.56 Q1321.68 1543 1318.05 1543 M1318.05 1539.29 Q1323.86 1539.29 1326.92 1543.9 Q1329.99 1548.48 1329.99 1557.23 Q1329.99 1565.96 1326.92 1570.57 Q1323.86 1575.15 1318.05 1575.15 Q1312.24 1575.15 1309.16 1570.57 Q1306.11 1565.96 1306.11 1557.23 Q1306.11 1548.48 1309.16 1543.9 Q1312.24 1539.29 1318.05 1539.29 Z" fill="#000000" fill-rule="evenodd" fill-opacity="1" /><path clip-path="url(#clip730)" d="M 0 0 M1789.85 1543 Q1786.24 1543 1784.41 1546.56 Q1782.6 1550.11 1782.6 1557.23 Q1782.6 1564.34 1784.41 1567.91 Q1786.24 1571.45 1789.85 1571.45 Q1793.48 1571.45 1795.29 1567.91 Q1797.12 1564.34 1797.12 1557.23 Q1797.12 1550.11 1795.29 1546.56 Q1793.48 1543 1789.85 1543 M1789.85 1539.29 Q1795.66 1539.29 1798.72 1543.9 Q1801.79 1548.48 1801.79 1557.23 Q1801.79 1565.96 1798.72 1570.57 Q1795.66 1575.15 1789.85 1575.15 Q1784.04 1575.15 1780.96 1570.57 Q1777.91 1565.96 1777.91 1557.23 Q1777.91 1548.48 1780.96 1543.9 Q1784.04 1539.29 1789.85 1539.29 Z" fill="#000000" fill-rule="evenodd" fill-opacity="1" /><path clip-path="url(#clip730)" d="M 0 0 M1806.86 1568.6 L1811.75 1568.6 L1811.75 1574.48 L1806.86 1574.48 L1806.86 1568.6 Z" fill="#000000" fill-rule="evenodd" fill-opacity="1" /><path clip-path="url(#clip730)" d="M 0 0 M1826.82 1543 Q1823.21 1543 1821.38 1546.56 Q1819.57 1550.11 1819.57 1557.23 Q1819.57 1564.34 1821.38 1567.91 Q1823.21 1571.45 1826.82 1571.45 Q1830.45 1571.45 1832.26 1567.91 Q1834.09 1564.34 1834.09 1557.23 Q1834.09 1550.11 1832.26 1546.56 Q1830.45 1543 1826.82 1543 M1826.82 1539.29 Q1832.63 1539.29 1835.68 1543.9 Q1838.76 1548.48 1838.76 1557.23 Q1838.76 1565.96 1835.68 1570.57 Q1832.63 1575.15 1826.82 1575.15 Q1821.01 1575.15 1817.93 1570.57 Q1814.87 1565.96 1814.87 1557.23 Q1814.87 1548.48 1817.93 1543.9 Q1821.01 1539.29 1826.82 1539.29 Z" fill="#000000" fill-rule="evenodd" fill-opacity="1" /><path clip-path="url(#clip730)" d="M 0 0 M1844.64 1570.54 L1852.28 1570.54 L1852.28 1544.18 L1843.97 1545.85 L1843.97 1541.59 L1852.23 1539.92 L1856.91 1539.92 L1856.91 1570.54 L1864.55 1570.54 L1864.55 1574.48 L1844.64 1574.48 L1844.64 1570.54 Z" fill="#000000" fill-rule="evenodd" fill-opacity="1" /><path clip-path="url(#clip730)" d="M 0 0 M1869.66 1539.92 L1888.02 1539.92 L1888.02 1543.86 L1873.95 1543.86 L1873.95 1552.33 Q1874.97 1551.98 1875.98 1551.82 Q1877 1551.63 1878.02 1551.63 Q1883.81 1551.63 1887.19 1554.8 Q1890.57 1557.98 1890.57 1563.39 Q1890.57 1568.97 1887.1 1572.07 Q1883.62 1575.15 1877.3 1575.15 Q1875.13 1575.15 1872.86 1574.78 Q1870.61 1574.41 1868.21 1573.67 L1868.21 1568.97 Q1870.29 1570.1 1872.51 1570.66 Q1874.73 1571.22 1877.21 1571.22 Q1881.22 1571.22 1883.55 1569.11 Q1885.89 1567 1885.89 1563.39 Q1885.89 1559.78 1883.55 1557.67 Q1881.22 1555.57 1877.21 1555.57 Q1875.34 1555.57 1873.46 1555.98 Q1871.61 1556.4 1869.66 1557.28 L1869.66 1539.92 Z" fill="#000000" fill-rule="evenodd" fill-opacity="1" /><path clip-path="url(#clip730)" d="M 0 0 M51.0477 1465.1 Q47.4367 1465.1 45.608 1468.66 Q43.8024 1472.2 43.8024 1479.33 Q43.8024 1486.44 45.608 1490 Q47.4367 1493.55 51.0477 1493.55 Q54.682 1493.55 56.4875 1490 Q58.3162 1486.44 58.3162 1479.33 Q58.3162 1472.2 56.4875 1468.66 Q54.682 1465.1 51.0477 1465.1 M51.0477 1461.39 Q56.8579 1461.39 59.9134 1466 Q62.9921 1470.58 62.9921 1479.33 Q62.9921 1488.06 59.9134 1492.67 Q56.8579 1497.25 51.0477 1497.25 Q45.2376 1497.25 42.1589 1492.67 Q39.1034 1488.06 39.1034 1479.33 Q39.1034 1470.58 42.1589 1466 Q45.2376 1461.39 51.0477 1461.39 Z" fill="#000000" fill-rule="evenodd" fill-opacity="1" /><path clip-path="url(#clip730)" d="M 0 0 M20.6544 1181.67 L36.9737 1181.67 L36.9737 1185.6 L15.0294 1185.6 L15.0294 1181.67 Q17.6914 1178.91 22.2748 1174.29 Q26.8812 1169.63 28.0618 1168.29 Q30.3071 1165.77 31.1867 1164.03 Q32.0895 1162.27 32.0895 1160.58 Q32.0895 1157.83 30.1451 1156.09 Q28.2238 1154.35 25.122 1154.35 Q22.9229 1154.35 20.4692 1155.12 Q18.0387 1155.88 15.2609 1157.43 L15.2609 1152.71 Q18.085 1151.58 20.5386 1151 Q22.9923 1150.42 25.0294 1150.42 Q30.3997 1150.42 33.5941 1153.1 Q36.7886 1155.79 36.7886 1160.28 Q36.7886 1162.41 35.9784 1164.33 Q35.1913 1166.23 33.0849 1168.82 Q32.5062 1169.49 29.4043 1172.71 Q26.3025 1175.91 20.6544 1181.67 Z" fill="#000000" fill-rule="evenodd" fill-opacity="1" /><path clip-path="url(#clip730)" d="M 0 0 M42.0895 1151.04 L60.4458 1151.04 L60.4458 1154.98 L46.3718 1154.98 L46.3718 1163.45 Q47.3904 1163.1 48.4089 1162.94 Q49.4274 1162.76 50.4459 1162.76 Q56.2329 1162.76 59.6125 1165.93 Q62.9921 1169.1 62.9921 1174.52 Q62.9921 1180.1 59.5199 1183.2 Q56.0477 1186.28 49.7283 1186.28 Q47.5524 1186.28 45.2839 1185.91 Q43.0385 1185.53 40.6311 1184.79 L40.6311 1180.1 Q42.7145 1181.23 44.9367 1181.78 Q47.1589 1182.34 49.6357 1182.34 Q53.6403 1182.34 55.9783 1180.23 Q58.3162 1178.13 58.3162 1174.52 Q58.3162 1170.91 55.9783 1168.8 Q53.6403 1166.69 49.6357 1166.69 Q47.7607 1166.69 45.8857 1167.11 Q44.0339 1167.53 42.0895 1168.41 L42.0895 1151.04 Z" fill="#000000" fill-rule="evenodd" fill-opacity="1" /><path clip-path="url(#clip730)" d="M 0 0 M15.0757 840.071 L33.4321 840.071 L33.4321 844.006 L19.3581 844.006 L19.3581 852.479 Q20.3766 852.131 21.3951 851.969 Q22.4136 851.784 23.4322 851.784 Q29.2192 851.784 32.5988 854.955 Q35.9784 858.127 35.9784 863.543 Q35.9784 869.122 32.5062 872.224 Q29.034 875.303 22.7146 875.303 Q20.5386 875.303 18.2701 874.932 Q16.0248 874.562 13.6174 873.821 L13.6174 869.122 Q15.7007 870.256 17.9229 870.812 Q20.1451 871.367 22.622 871.367 Q26.6266 871.367 28.9645 869.261 Q31.3025 867.154 31.3025 863.543 Q31.3025 859.932 28.9645 857.826 Q26.6266 855.719 22.622 855.719 Q20.747 855.719 18.872 856.136 Q17.0202 856.553 15.0757 857.432 L15.0757 840.071 Z" fill="#000000" fill-rule="evenodd" fill-opacity="1" /><path clip-path="url(#clip730)" d="M 0 0 M51.0477 843.15 Q47.4367 843.15 45.608 846.715 Q43.8024 850.256 43.8024 857.386 Q43.8024 864.492 45.608 868.057 Q47.4367 871.599 51.0477 871.599 Q54.682 871.599 56.4875 868.057 Q58.3162 864.492 58.3162 857.386 Q58.3162 850.256 56.4875 846.715 Q54.682 843.15 51.0477 843.15 M51.0477 839.446 Q56.8579 839.446 59.9134 844.053 Q62.9921 848.636 62.9921 857.386 Q62.9921 866.113 59.9134 870.719 Q56.8579 875.303 51.0477 875.303 Q45.2376 875.303 42.1589 870.719 Q39.1034 866.113 39.1034 857.386 Q39.1034 848.636 42.1589 844.053 Q45.2376 839.446 51.0477 839.446 Z" fill="#000000" fill-rule="evenodd" fill-opacity="1" /><path clip-path="url(#clip730)" d="M 0 0 M14.7516 529.098 L36.9737 529.098 L36.9737 531.089 L24.4275 563.658 L19.5433 563.658 L31.3488 533.033 L14.7516 533.033 L14.7516 529.098 Z" fill="#000000" fill-rule="evenodd" fill-opacity="1" /><path clip-path="url(#clip730)" d="M 0 0 M42.0895 529.098 L60.4458 529.098 L60.4458 533.033 L46.3718 533.033 L46.3718 541.505 Q47.3904 541.158 48.4089 540.996 Q49.4274 540.811 50.4459 540.811 Q56.2329 540.811 59.6125 543.982 Q62.9921 547.154 62.9921 552.57 Q62.9921 558.149 59.5199 561.251 Q56.0477 564.329 49.7283 564.329 Q47.5524 564.329 45.2839 563.959 Q43.0385 563.589 40.6311 562.848 L40.6311 558.149 Q42.7145 559.283 44.9367 559.839 Q47.1589 560.394 49.6357 560.394 Q53.6403 560.394 55.9783 558.288 Q58.3162 556.181 58.3162 552.57 Q58.3162 548.959 55.9783 546.853 Q53.6403 544.746 49.6357 544.746 Q47.7607 544.746 45.8857 545.163 Q44.0339 545.579 42.0895 546.459 L42.0895 529.098 Z" fill="#000000" fill-rule="evenodd" fill-opacity="1" /><path clip-path="url(#clip730)" d="M 0 0 M-10.9427 248.75 L-3.30382 248.75 L-3.30382 222.384 L-11.614 224.051 L-11.614 219.792 L-3.35011 218.125 L1.32579 218.125 L1.32579 248.75 L8.96464 248.75 L8.96464 252.685 L-10.9427 252.685 L-10.9427 248.75 Z" fill="#000000" fill-rule="evenodd" fill-opacity="1" /><path clip-path="url(#clip730)" d="M 0 0 M24.034 221.204 Q20.4229 221.204 18.5942 224.768 Q16.7887 228.31 16.7887 235.44 Q16.7887 242.546 18.5942 246.111 Q20.4229 249.652 24.034 249.652 Q27.6682 249.652 29.4738 246.111 Q31.3025 242.546 31.3025 235.44 Q31.3025 228.31 29.4738 224.768 Q27.6682 221.204 24.034 221.204 M24.034 217.5 Q29.8442 217.5 32.8997 222.106 Q35.9784 226.69 35.9784 235.44 Q35.9784 244.166 32.8997 248.773 Q29.8442 253.356 24.034 253.356 Q18.2238 253.356 15.1452 248.773 Q12.0896 244.166 12.0896 235.44 Q12.0896 226.69 15.1452 222.106 Q18.2238 217.5 24.034 217.5 Z" fill="#000000" fill-rule="evenodd" fill-opacity="1" /><path clip-path="url(#clip730)" d="M 0 0 M51.0477 221.204 Q47.4367 221.204 45.608 224.768 Q43.8024 228.31 43.8024 235.44 Q43.8024 242.546 45.608 246.111 Q47.4367 249.652 51.0477 249.652 Q54.682 249.652 56.4875 246.111 Q58.3162 242.546 58.3162 235.44 Q58.3162 228.31 56.4875 224.768 Q54.682 221.204 51.0477 221.204 M51.0477 217.5 Q56.8579 217.5 59.9134 222.106 Q62.9921 226.69 62.9921 235.44 Q62.9921 244.166 59.9134 248.773 Q56.8579 253.356 51.0477 253.356 Q45.2376 253.356 42.1589 248.773 Q39.1034 244.166 39.1034 235.44 Q39.1034 226.69 42.1589 222.106 Q45.2376 217.5 51.0477 217.5 Z" fill="#000000" fill-rule="evenodd" fill-opacity="1" /><path clip-path="url(#clip732)" d="
M151.118 788.761 L151.55 784.688 L151.982 780.623 L152.415 776.565 L152.847 772.516 L153.279 768.475 L153.712 764.443 L154.144 760.42 L154.577 756.407 L155.009 752.403 
  L155.441 748.41 L155.874 744.428 L156.306 740.456 L156.739 736.495 L157.171 732.546 L157.603 728.609 L158.036 724.684 L158.468 720.771 L158.9 716.871 L159.333 712.985 
  L159.765 709.112 L160.198 705.252 L160.63 701.406 L161.062 697.576 L161.495 693.759 L161.927 689.958 L162.36 686.172 L162.792 682.401 L163.224 678.646 L163.657 674.908 
  L164.089 671.186 L164.522 667.48 L164.954 663.792 L165.386 660.121 L165.819 656.467 L166.251 652.832 L166.683 649.214 L167.116 645.615 L167.548 642.035 L167.981 638.474 
  L168.413 634.932 L168.845 631.409 L169.278 627.906 L169.71 624.423 L170.143 620.96 L170.575 617.517 L171.007 614.095 L171.44 610.694 L171.872 607.315 L172.305 603.956 
  L172.737 600.62 L173.169 597.305 L173.602 594.012 L174.034 590.741 L174.466 587.493 L174.899 584.267 L175.331 581.064 L175.764 577.884 L176.196 574.728 L176.628 571.595 
  L177.061 568.485 L177.493 565.4 L177.926 562.338 L178.358 559.3 L178.79 556.287 L179.223 553.298 L179.655 550.334 L180.088 547.394 L180.52 544.48 L180.952 541.59 
  L181.385 538.726 L181.817 535.886 L182.249 533.073 L182.682 530.285 L183.114 527.522 L183.547 524.786 L183.979 522.075 L184.411 519.39 L184.844 516.732 L185.276 514.099 
  L185.709 511.493 L186.141 508.913 L186.573 506.36 L187.006 503.833 L187.438 501.333 L187.87 498.86 L188.303 496.413 L188.735 493.994 L189.168 491.601 L189.6 489.235 
  L190.032 486.896 L190.465 484.584 L190.897 482.299 L191.33 480.041 L191.762 477.81 L192.194 475.606 L192.627 473.429 L193.059 471.28 L193.492 469.157 L193.924 467.062 
  L193.924 1479.3 L193.492 1479.3 L193.059 1479.3 L192.627 1479.3 L192.194 1479.3 L191.762 1479.3 L191.33 1479.3 L190.897 1479.3 L190.465 1479.3 L190.032 1479.3 
  L189.6 1479.3 L189.168 1479.3 L188.735 1479.3 L188.303 1479.3 L187.87 1479.3 L187.438 1479.3 L187.006 1479.3 L186.573 1479.3 L186.141 1479.3 L185.709 1479.3 
  L185.276 1479.3 L184.844 1479.3 L184.411 1479.3 L183.979 1479.3 L183.547 1479.3 L183.114 1479.3 L182.682 1479.3 L182.249 1479.3 L181.817 1479.3 L181.385 1479.3 
  L180.952 1479.3 L180.52 1479.3 L180.088 1479.3 L179.655 1479.3 L179.223 1479.3 L178.79 1479.3 L178.358 1479.3 L177.926 1479.3 L177.493 1479.3 L177.061 1479.3 
  L176.628 1479.3 L176.196 1479.3 L175.764 1479.3 L175.331 1479.3 L174.899 1479.3 L174.466 1479.3 L174.034 1479.3 L173.602 1479.3 L173.169 1479.3 L172.737 1479.3 
  L172.305 1479.3 L171.872 1479.3 L171.44 1479.3 L171.007 1479.3 L170.575 1479.3 L170.143 1479.3 L169.71 1479.3 L169.278 1479.3 L168.845 1479.3 L168.413 1479.3 
  L167.981 1479.3 L167.548 1479.3 L167.116 1479.3 L166.683 1479.3 L166.251 1479.3 L165.819 1479.3 L165.386 1479.3 L164.954 1479.3 L164.522 1479.3 L164.089 1479.3 
  L163.657 1479.3 L163.224 1479.3 L162.792 1479.3 L162.36 1479.3 L161.927 1479.3 L161.495 1479.3 L161.062 1479.3 L160.63 1479.3 L160.198 1479.3 L159.765 1479.3 
  L159.333 1479.3 L158.9 1479.3 L158.468 1479.3 L158.036 1479.3 L157.603 1479.3 L157.171 1479.3 L156.739 1479.3 L156.306 1479.3 L155.874 1479.3 L155.441 1479.3 
  L155.009 1479.3 L154.577 1479.3 L154.144 1479.3 L153.712 1479.3 L153.279 1479.3 L152.847 1479.3 L152.415 1479.3 L151.982 1479.3 L151.55 1479.3 L151.118 1479.3 
   Z
  " fill="#ffa500" fill-rule="evenodd" fill-opacity="0.5"/>
<polyline clip-path="url(#clip732)" style="stroke:#ffa500; stroke-width:4; stroke-opacity:1; fill:none" points="
  151.118,788.761 151.55,784.688 151.982,780.623 152.415,776.565 152.847,772.516 153.279,768.475 153.712,764.443 154.144,760.42 154.577,756.407 155.009,752.403 
  155.441,748.41 155.874,744.428 156.306,740.456 156.739,736.495 157.171,732.546 157.603,728.609 158.036,724.684 158.468,720.771 158.9,716.871 159.333,712.985 
  159.765,709.112 160.198,705.252 160.63,701.406 161.062,697.576 161.495,693.759 161.927,689.958 162.36,686.172 162.792,682.401 163.224,678.646 163.657,674.908 
  164.089,671.186 164.522,667.48 164.954,663.792 165.386,660.121 165.819,656.467 166.251,652.832 166.683,649.214 167.116,645.615 167.548,642.035 167.981,638.474 
  168.413,634.932 168.845,631.409 169.278,627.906 169.71,624.423 170.143,620.96 170.575,617.517 171.007,614.095 171.44,610.694 171.872,607.315 172.305,603.956 
  172.737,600.62 173.169,597.305 173.602,594.012 174.034,590.741 174.466,587.493 174.899,584.267 175.331,581.064 175.764,577.884 176.196,574.728 176.628,571.595 
  177.061,568.485 177.493,565.4 177.926,562.338 178.358,559.3 178.79,556.287 179.223,553.298 179.655,550.334 180.088,547.394 180.52,544.48 180.952,541.59 
  181.385,538.726 181.817,535.886 182.249,533.073 182.682,530.285 183.114,527.522 183.547,524.786 183.979,522.075 184.411,519.39 184.844,516.732 185.276,514.099 
  185.709,511.493 186.141,508.913 186.573,506.36 187.006,503.833 187.438,501.333 187.87,498.86 188.303,496.413 188.735,493.994 189.168,491.601 189.6,489.235 
  190.032,486.896 190.465,484.584 190.897,482.299 191.33,480.041 191.762,477.81 192.194,475.606 192.627,473.429 193.059,471.28 193.492,469.157 193.924,467.062 
  
  "/>
<path clip-path="url(#clip732)" d="
M193.924 467.062 L206.179 418.838 L218.434 390.797 L230.689 379.388 L242.945 379.898 L255.2 387.476 L267.455 397.926 L279.71 408.118 L291.965 416.029 L304.22 420.568 
  L316.476 421.326 L328.731 418.362 L340.986 412.069 L353.241 403.081 L365.496 392.164 L377.751 380.07 L390.007 367.368 L402.262 354.296 L414.517 340.707 L426.772 326.114 
  L439.027 309.864 L451.282 291.367 L463.538 270.321 L475.793 246.865 L488.048 221.62 L500.303 195.608 L512.558 170.096 L524.813 146.407 L537.069 125.762 L549.324 109.16 
  L561.579 97.3135 L573.834 90.5885 L586.089 88.9544 L598.344 91.9374 L610.6 98.6136 L622.855 107.685 L635.11 117.659 L647.365 127.128 L659.62 135.064 L671.875 141.067 
  L684.131 145.459 L696.386 149.179 L708.641 153.515 L720.896 159.717 L733.151 168.623 L745.407 180.394 L757.662 194.439 L769.917 209.539 L782.172 224.145 L794.427 236.755 
  L806.682 246.269 L818.938 252.245 L831.193 254.975 L843.448 255.411 L855.703 254.956 L867.958 255.21 L880.213 257.719 L892.469 263.776 L904.724 274.285 L916.979 289.683 
  L929.234 309.904 L941.489 334.396 L953.744 362.192 L966 392.041 L978.255 422.596 L990.51 452.61 L1002.77 481.109 L1015.02 507.48 L1027.28 531.455 L1039.53 553.013 
  L1051.79 572.237 L1064.04 589.199 L1076.3 603.905 L1088.55 616.344 L1100.81 626.593 L1113.06 634.954 L1125.32 642.053 L1137.57 648.878 L1149.83 656.72 L1162.08 667.025 
  L1174.34 681.177 L1186.59 700.25 L1198.85 724.777 L1211.1 754.602 L1223.36 788.857 L1235.61 826.091 L1247.87 864.523 L1260.12 902.34 L1272.38 937.968 L1284.63 970.224 
  L1296.89 998.347 L1309.14 1021.93 L1321.4 1040.83 L1333.65 1055.12 L1345.91 1065.1 L1358.16 1071.39 L1370.42 1075.01 L1382.68 1077.38 L1394.93 1080.18 L1407.19 1085.17 
  L1407.19 1479.3 L1394.93 1479.3 L1382.68 1479.3 L1370.42 1479.3 L1358.16 1479.3 L1345.91 1479.3 L1333.65 1479.3 L1321.4 1479.3 L1309.14 1479.3 L1296.89 1479.3 
  L1284.63 1479.3 L1272.38 1479.3 L1260.12 1479.3 L1247.87 1479.3 L1235.61 1479.3 L1223.36 1479.3 L1211.1 1479.3 L1198.85 1479.3 L1186.59 1479.3 L1174.34 1479.3 
  L1162.08 1479.3 L1149.83 1479.3 L1137.57 1479.3 L1125.32 1479.3 L1113.06 1479.3 L1100.81 1479.3 L1088.55 1479.3 L1076.3 1479.3 L1064.04 1479.3 L1051.79 1479.3 
  L1039.53 1479.3 L1027.28 1479.3 L1015.02 1479.3 L1002.77 1479.3 L990.51 1479.3 L978.255 1479.3 L966 1479.3 L953.744 1479.3 L941.489 1479.3 L929.234 1479.3 
  L916.979 1479.3 L904.724 1479.3 L892.469 1479.3 L880.213 1479.3 L867.958 1479.3 L855.703 1479.3 L843.448 1479.3 L831.193 1479.3 L818.938 1479.3 L806.682 1479.3 
  L794.427 1479.3 L782.172 1479.3 L769.917 1479.3 L757.662 1479.3 L745.407 1479.3 L733.151 1479.3 L720.896 1479.3 L708.641 1479.3 L696.386 1479.3 L684.131 1479.3 
  L671.875 1479.3 L659.62 1479.3 L647.365 1479.3 L635.11 1479.3 L622.855 1479.3 L610.6 1479.3 L598.344 1479.3 L586.089 1479.3 L573.834 1479.3 L561.579 1479.3 
  L549.324 1479.3 L537.069 1479.3 L524.813 1479.3 L512.558 1479.3 L500.303 1479.3 L488.048 1479.3 L475.793 1479.3 L463.538 1479.3 L451.282 1479.3 L439.027 1479.3 
  L426.772 1479.3 L414.517 1479.3 L402.262 1479.3 L390.007 1479.3 L377.751 1479.3 L365.496 1479.3 L353.241 1479.3 L340.986 1479.3 L328.731 1479.3 L316.476 1479.3 
  L304.22 1479.3 L291.965 1479.3 L279.71 1479.3 L267.455 1479.3 L255.2 1479.3 L242.945 1479.3 L230.689 1479.3 L218.434 1479.3 L206.179 1479.3 L193.924 1479.3 
   Z
  " fill="#008000" fill-rule="evenodd" fill-opacity="0.5"/>
<polyline clip-path="url(#clip732)" style="stroke:#008000; stroke-width:4; stroke-opacity:1; fill:none" points="
  193.924,467.062 206.179,418.838 218.434,390.797 230.689,379.388 242.945,379.898 255.2,387.476 267.455,397.926 279.71,408.118 291.965,416.029 304.22,420.568 
  316.476,421.326 328.731,418.362 340.986,412.069 353.241,403.081 365.496,392.164 377.751,380.07 390.007,367.368 402.262,354.296 414.517,340.707 426.772,326.114 
  439.027,309.864 451.282,291.367 463.538,270.321 475.793,246.865 488.048,221.62 500.303,195.608 512.558,170.096 524.813,146.407 537.069,125.762 549.324,109.16 
  561.579,97.3135 573.834,90.5885 586.089,88.9544 598.344,91.9374 610.6,98.6136 622.855,107.685 635.11,117.659 647.365,127.128 659.62,135.064 671.875,141.067 
  684.131,145.459 696.386,149.179 708.641,153.515 720.896,159.717 733.151,168.623 745.407,180.394 757.662,194.439 769.917,209.539 782.172,224.145 794.427,236.755 
  806.682,246.269 818.938,252.245 831.193,254.975 843.448,255.411 855.703,254.956 867.958,255.21 880.213,257.719 892.469,263.776 904.724,274.285 916.979,289.683 
  929.234,309.904 941.489,334.396 953.744,362.192 966,392.041 978.255,422.596 990.51,452.61 1002.77,481.109 1015.02,507.48 1027.28,531.455 1039.53,553.013 
  1051.79,572.237 1064.04,589.199 1076.3,603.905 1088.55,616.344 1100.81,626.593 1113.06,634.954 1125.32,642.053 1137.57,648.878 1149.83,656.72 1162.08,667.025 
  1174.34,681.177 1186.59,700.25 1198.85,724.777 1211.1,754.602 1223.36,788.857 1235.61,826.091 1247.87,864.523 1260.12,902.34 1272.38,937.968 1284.63,970.224 
  1296.89,998.347 1309.14,1021.93 1321.4,1040.83 1333.65,1055.12 1345.91,1065.1 1358.16,1071.39 1370.42,1075.01 1382.68,1077.38 1394.93,1080.18 1407.19,1085.17 
  
  "/>
<path clip-path="url(#clip732)" d="
M1407.19 1085.17 L1416.09 1091.04 L1424.99 1099.27 L1433.9 1110.06 L1442.8 1123.39 L1451.7 1138.98 L1460.61 1156.38 L1469.51 1174.98 L1478.41 1194.08 L1487.32 1213.01 
  L1496.22 1231.17 L1505.12 1248.13 L1514.03 1263.62 L1522.93 1277.6 L1531.83 1290.17 L1540.74 1301.58 L1549.64 1312.14 L1558.54 1322.15 L1567.45 1331.88 L1576.35 1341.48 
  L1585.26 1351 L1594.16 1360.39 L1603.06 1369.5 L1611.97 1378.13 L1620.87 1386.08 L1629.77 1393.17 L1638.68 1399.26 L1647.58 1404.3 L1656.48 1408.33 L1665.39 1411.44 
  L1674.29 1413.81 L1683.19 1415.64 L1692.1 1417.14 L1701 1418.53 L1709.9 1419.96 L1718.81 1421.54 L1727.71 1423.32 L1736.61 1425.28 L1745.52 1427.36 L1754.42 1429.44 
  L1763.32 1431.39 L1772.23 1433.09 L1781.13 1434.44 L1790.04 1435.38 L1798.94 1435.9 L1807.84 1436.05 L1816.75 1435.92 L1825.65 1435.65 L1834.55 1435.39 L1843.46 1435.29 
  L1852.36 1435.49 L1861.26 1436.09 L1870.17 1437.12 L1879.07 1438.59 L1887.97 1440.44 L1896.88 1442.57 L1905.78 1444.88 L1914.68 1447.25 L1923.59 1449.56 L1932.49 1451.74 
  L1941.39 1453.74 L1950.3 1455.55 L1959.2 1457.17 L1968.11 1458.64 L1977.01 1460 L1985.91 1461.26 L1994.82 1462.45 L2003.72 1463.56 L2012.62 1464.56 L2021.53 1465.38 
  L2030.43 1465.96 L2039.33 1466.21 L2048.24 1466.07 L2057.14 1465.48 L2066.04 1464.43 L2074.95 1462.92 L2083.85 1461.03 L2092.75 1458.85 L2101.66 1456.52 L2110.56 1454.22 
  L2119.46 1452.12 L2128.37 1450.39 L2137.27 1449.18 L2146.17 1448.58 L2155.08 1448.63 L2163.98 1449.34 L2172.89 1450.63 L2181.79 1452.38 L2190.69 1454.46 L2199.6 1456.71 
  L2208.5 1458.99 L2217.4 1461.18 L2226.31 1463.18 L2235.21 1464.96 L2244.11 1466.48 L2253.02 1467.78 L2261.92 1468.89 L2270.82 1469.86 L2279.73 1470.74 L2288.63 1471.56 
  L2288.63 1479.3 L2279.73 1479.3 L2270.82 1479.3 L2261.92 1479.3 L2253.02 1479.3 L2244.11 1479.3 L2235.21 1479.3 L2226.31 1479.3 L2217.4 1479.3 L2208.5 1479.3 
  L2199.6 1479.3 L2190.69 1479.3 L2181.79 1479.3 L2172.89 1479.3 L2163.98 1479.3 L2155.08 1479.3 L2146.17 1479.3 L2137.27 1479.3 L2128.37 1479.3 L2119.46 1479.3 
  L2110.56 1479.3 L2101.66 1479.3 L2092.75 1479.3 L2083.85 1479.3 L2074.95 1479.3 L2066.04 1479.3 L2057.14 1479.3 L2048.24 1479.3 L2039.33 1479.3 L2030.43 1479.3 
  L2021.53 1479.3 L2012.62 1479.3 L2003.72 1479.3 L1994.82 1479.3 L1985.91 1479.3 L1977.01 1479.3 L1968.11 1479.3 L1959.2 1479.3 L1950.3 1479.3 L1941.39 1479.3 
  L1932.49 1479.3 L1923.59 1479.3 L1914.68 1479.3 L1905.78 1479.3 L1896.88 1479.3 L1887.97 1479.3 L1879.07 1479.3 L1870.17 1479.3 L1861.26 1479.3 L1852.36 1479.3 
  L1843.46 1479.3 L1834.55 1479.3 L1825.65 1479.3 L1816.75 1479.3 L1807.84 1479.3 L1798.94 1479.3 L1790.04 1479.3 L1781.13 1479.3 L1772.23 1479.3 L1763.32 1479.3 
  L1754.42 1479.3 L1745.52 1479.3 L1736.61 1479.3 L1727.71 1479.3 L1718.81 1479.3 L1709.9 1479.3 L1701 1479.3 L1692.1 1479.3 L1683.19 1479.3 L1674.29 1479.3 
  L1665.39 1479.3 L1656.48 1479.3 L1647.58 1479.3 L1638.68 1479.3 L1629.77 1479.3 L1620.87 1479.3 L1611.97 1479.3 L1603.06 1479.3 L1594.16 1479.3 L1585.26 1479.3 
  L1576.35 1479.3 L1567.45 1479.3 L1558.54 1479.3 L1549.64 1479.3 L1540.74 1479.3 L1531.83 1479.3 L1522.93 1479.3 L1514.03 1479.3 L1505.12 1479.3 L1496.22 1479.3 
  L1487.32 1479.3 L1478.41 1479.3 L1469.51 1479.3 L1460.61 1479.3 L1451.7 1479.3 L1442.8 1479.3 L1433.9 1479.3 L1424.99 1479.3 L1416.09 1479.3 L1407.19 1479.3 
   Z
  " fill="#ffa500" fill-rule="evenodd" fill-opacity="0.5"/>
<polyline clip-path="url(#clip732)" style="stroke:#ffa500; stroke-width:4; stroke-opacity:1; fill:none" points="
  1407.19,1085.17 1416.09,1091.04 1424.99,1099.27 1433.9,1110.06 1442.8,1123.39 1451.7,1138.98 1460.61,1156.38 1469.51,1174.98 1478.41,1194.08 1487.32,1213.01 
  1496.22,1231.17 1505.12,1248.13 1514.03,1263.62 1522.93,1277.6 1531.83,1290.17 1540.74,1301.58 1549.64,1312.14 1558.54,1322.15 1567.45,1331.88 1576.35,1341.48 
  1585.26,1351 1594.16,1360.39 1603.06,1369.5 1611.97,1378.13 1620.87,1386.08 1629.77,1393.17 1638.68,1399.26 1647.58,1404.3 1656.48,1408.33 1665.39,1411.44 
  1674.29,1413.81 1683.19,1415.64 1692.1,1417.14 1701,1418.53 1709.9,1419.96 1718.81,1421.54 1727.71,1423.32 1736.61,1425.28 1745.52,1427.36 1754.42,1429.44 
  1763.32,1431.39 1772.23,1433.09 1781.13,1434.44 1790.04,1435.38 1798.94,1435.9 1807.84,1436.05 1816.75,1435.92 1825.65,1435.65 1834.55,1435.39 1843.46,1435.29 
  1852.36,1435.49 1861.26,1436.09 1870.17,1437.12 1879.07,1438.59 1887.97,1440.44 1896.88,1442.57 1905.78,1444.88 1914.68,1447.25 1923.59,1449.56 1932.49,1451.74 
  1941.39,1453.74 1950.3,1455.55 1959.2,1457.17 1968.11,1458.64 1977.01,1460 1985.91,1461.26 1994.82,1462.45 2003.72,1463.56 2012.62,1464.56 2021.53,1465.38 
  2030.43,1465.96 2039.33,1466.21 2048.24,1466.07 2057.14,1465.48 2066.04,1464.43 2074.95,1462.92 2083.85,1461.03 2092.75,1458.85 2101.66,1456.52 2110.56,1454.22 
  2119.46,1452.12 2128.37,1450.39 2137.27,1449.18 2146.17,1448.58 2155.08,1448.63 2163.98,1449.34 2172.89,1450.63 2181.79,1452.38 2190.69,1454.46 2199.6,1456.71 
  2208.5,1458.99 2217.4,1461.18 2226.31,1463.18 2235.21,1464.96 2244.11,1466.48 2253.02,1467.78 2261.92,1468.89 2270.82,1469.86 2279.73,1470.74 2288.63,1471.56 
  
  "/>
<polyline clip-path="url(#clip732)" style="stroke:#0000ff; stroke-width:4; stroke-opacity:1; fill:none" points="
  747.786,1479.3 747.786,182.974 
  "/>
<polyline clip-path="url(#clip732)" style="stroke:#000000; stroke-width:4; stroke-opacity:1; fill:none" points="
  713.035,1479.3 713.035,155.469 
  "/>
<path clip-path="url(#clip730)" d="
M1494.58 459.25 L2277.23 459.25 L2277.23 96.3696 L1494.58 96.3696  Z
  " fill="#ffffff" fill-rule="evenodd" fill-opacity="1"/>
<polyline clip-path="url(#clip730)" style="stroke:#000000; stroke-width:4; stroke-opacity:1; fill:none" points="
  1494.58,459.25 2277.23,459.25 2277.23,96.3696 1494.58,96.3696 1494.58,459.25 
  "/>
<path clip-path="url(#clip730)" d="
M1519.75 181.042 L1670.81 181.042 L1670.81 132.658 L1519.75 132.658 L1519.75 181.042  Z
  " fill="#ffa500" fill-rule="evenodd" fill-opacity="0.5"/>
<polyline clip-path="url(#clip730)" style="stroke:#ffa500; stroke-width:4; stroke-opacity:1; fill:none" points="
  1519.75,132.658 1670.81,132.658 
  "/>
<path clip-path="url(#clip730)" d="M 0 0 M1700.38 161.19 Q1700.38 165.889 1702.3 168.574 Q1704.24 171.236 1707.62 171.236 Q1711 171.236 1712.95 168.574 Q1714.89 165.889 1714.89 161.19 Q1714.89 156.491 1712.95 153.829 Q1711 151.144 1707.62 151.144 Q1704.24 151.144 1702.3 153.829 Q1700.38 156.491 1700.38 161.19 M1714.89 170.241 Q1713.55 172.555 1711.49 173.69 Q1709.45 174.801 1706.58 174.801 Q1701.88 174.801 1698.92 171.051 Q1695.98 167.301 1695.98 161.19 Q1695.98 155.079 1698.92 151.329 Q1701.88 147.579 1706.58 147.579 Q1709.45 147.579 1711.49 148.713 Q1713.55 149.824 1714.89 152.139 L1714.89 148.204 L1719.15 148.204 L1719.15 183.991 L1714.89 183.991 L1714.89 170.241 Z" fill="#000000" fill-rule="evenodd" fill-opacity="1" /><path clip-path="url(#clip730)" d="M 0 0 M1734.22 142.648 Q1730.61 142.648 1728.78 146.213 Q1726.98 149.755 1726.98 156.884 Q1726.98 163.991 1728.78 167.556 Q1730.61 171.097 1734.22 171.097 Q1737.85 171.097 1739.66 167.556 Q1741.49 163.991 1741.49 156.884 Q1741.49 149.755 1739.66 146.213 Q1737.85 142.648 1734.22 142.648 M1734.22 138.945 Q1740.03 138.945 1743.09 143.551 Q1746.17 148.134 1746.17 156.884 Q1746.17 165.611 1743.09 170.218 Q1740.03 174.801 1734.22 174.801 Q1728.41 174.801 1725.33 170.218 Q1722.28 165.611 1722.28 156.884 Q1722.28 148.134 1725.33 143.551 Q1728.41 138.945 1734.22 138.945 Z" fill="#000000" fill-rule="evenodd" fill-opacity="1" /><path clip-path="url(#clip730)" d="M 0 0 M1751.28 139.57 L1769.64 139.57 L1769.64 143.505 L1755.56 143.505 L1755.56 151.977 Q1756.58 151.63 1757.6 151.468 Q1758.62 151.282 1759.64 151.282 Q1765.42 151.282 1768.8 154.454 Q1772.18 157.625 1772.18 163.042 Q1772.18 168.62 1768.71 171.722 Q1765.24 174.801 1758.92 174.801 Q1756.74 174.801 1754.48 174.43 Q1752.23 174.06 1749.82 173.319 L1749.82 168.62 Q1751.91 169.755 1754.13 170.31 Q1756.35 170.866 1758.83 170.866 Q1762.83 170.866 1765.17 168.759 Q1767.51 166.653 1767.51 163.042 Q1767.51 159.431 1765.17 157.324 Q1762.83 155.218 1758.83 155.218 Q1756.95 155.218 1755.08 155.634 Q1753.23 156.051 1751.28 156.931 L1751.28 139.57 Z" fill="#000000" fill-rule="evenodd" fill-opacity="1" /><path clip-path="url(#clip730)" d="
M1519.75 241.522 L1670.81 241.522 L1670.81 193.138 L1519.75 193.138 L1519.75 241.522  Z
  " fill="#008000" fill-rule="evenodd" fill-opacity="0.5"/>
<polyline clip-path="url(#clip730)" style="stroke:#008000; stroke-width:4; stroke-opacity:1; fill:none" points="
  1519.75,193.138 1670.81,193.138 
  "/>
<path clip-path="url(#clip730)" d="M 0 0 M1698.2 233.892 L1698.2 229.633 Q1699.96 230.466 1701.77 230.906 Q1703.57 231.346 1705.31 231.346 Q1709.94 231.346 1712.37 228.244 Q1714.82 225.119 1715.17 218.776 Q1713.83 220.767 1711.77 221.832 Q1709.71 222.897 1707.21 222.897 Q1702.02 222.897 1698.99 219.772 Q1695.98 216.624 1695.98 211.184 Q1695.98 205.86 1699.13 202.642 Q1702.28 199.425 1707.51 199.425 Q1713.5 199.425 1716.65 204.031 Q1719.82 208.614 1719.82 217.364 Q1719.82 225.536 1715.93 230.42 Q1712.07 235.281 1705.52 235.281 Q1703.76 235.281 1701.95 234.934 Q1700.15 234.586 1698.2 233.892 M1707.51 219.239 Q1710.66 219.239 1712.48 217.086 Q1714.34 214.934 1714.34 211.184 Q1714.34 207.457 1712.48 205.304 Q1710.66 203.128 1707.51 203.128 Q1704.36 203.128 1702.51 205.304 Q1700.68 207.457 1700.68 211.184 Q1700.68 214.934 1702.51 217.086 Q1704.36 219.239 1707.51 219.239 Z" fill="#000000" fill-rule="evenodd" fill-opacity="1" /><path clip-path="url(#clip730)" d="M 0 0 M1734.89 203.128 Q1731.28 203.128 1729.45 206.693 Q1727.65 210.235 1727.65 217.364 Q1727.65 224.471 1729.45 228.036 Q1731.28 231.577 1734.89 231.577 Q1738.53 231.577 1740.33 228.036 Q1742.16 224.471 1742.16 217.364 Q1742.16 210.235 1740.33 206.693 Q1738.53 203.128 1734.89 203.128 M1734.89 199.425 Q1740.7 199.425 1743.76 204.031 Q1746.84 208.614 1746.84 217.364 Q1746.84 226.091 1743.76 230.698 Q1740.7 235.281 1734.89 235.281 Q1729.08 235.281 1726 230.698 Q1722.95 226.091 1722.95 217.364 Q1722.95 208.614 1726 204.031 Q1729.08 199.425 1734.89 199.425 Z" fill="#000000" fill-rule="evenodd" fill-opacity="1" /><path clip-path="url(#clip730)" d="M 0 0 M1781.3 219.401 Q1779.29 219.401 1778.13 221.114 Q1777 222.827 1777 225.883 Q1777 228.892 1778.13 230.628 Q1779.29 232.341 1781.3 232.341 Q1783.27 232.341 1784.41 230.628 Q1785.56 228.892 1785.56 225.883 Q1785.56 222.85 1784.41 221.137 Q1783.27 219.401 1781.3 219.401 M1781.3 216.462 Q1784.96 216.462 1787.11 219.008 Q1789.27 221.554 1789.27 225.883 Q1789.27 230.211 1787.09 232.758 Q1784.94 235.281 1781.3 235.281 Q1777.6 235.281 1775.45 232.758 Q1773.29 230.211 1773.29 225.883 Q1773.29 221.531 1775.45 219.008 Q1777.62 216.462 1781.3 216.462 M1757.42 202.364 Q1755.42 202.364 1754.27 204.1 Q1753.13 205.813 1753.13 208.823 Q1753.13 211.878 1754.27 213.591 Q1755.4 215.304 1757.42 215.304 Q1759.43 215.304 1760.56 213.591 Q1761.72 211.878 1761.72 208.823 Q1761.72 205.837 1760.56 204.1 Q1759.41 202.364 1757.42 202.364 M1778.32 199.425 L1782.02 199.425 L1760.4 235.281 L1756.7 235.281 L1778.32 199.425 M1757.42 199.425 Q1761.07 199.425 1763.25 201.971 Q1765.42 204.494 1765.42 208.823 Q1765.42 213.198 1763.25 215.721 Q1761.1 218.244 1757.42 218.244 Q1753.73 218.244 1751.58 215.721 Q1749.45 213.174 1749.45 208.823 Q1749.45 204.517 1751.6 201.971 Q1753.76 199.425 1757.42 199.425 Z" fill="#000000" fill-rule="evenodd" fill-opacity="1" /><path clip-path="url(#clip730)" d="M 0 0 M1830.35 218.961 L1830.35 234.61 L1826.1 234.61 L1826.1 219.1 Q1826.1 215.42 1824.66 213.591 Q1823.22 211.762 1820.35 211.762 Q1816.91 211.762 1814.91 213.962 Q1812.92 216.161 1812.92 219.957 L1812.92 234.61 L1808.64 234.61 L1808.64 208.684 L1812.92 208.684 L1812.92 212.712 Q1814.45 210.374 1816.51 209.216 Q1818.6 208.059 1821.3 208.059 Q1825.77 208.059 1828.06 210.837 Q1830.35 213.591 1830.35 218.961 Z" fill="#000000" fill-rule="evenodd" fill-opacity="1" /><path clip-path="url(#clip730)" d="M 0 0 M1844.87 211.67 Q1841.44 211.67 1839.45 214.355 Q1837.46 217.017 1837.46 221.67 Q1837.46 226.323 1839.43 229.008 Q1841.42 231.67 1844.87 231.67 Q1848.27 231.67 1850.26 228.985 Q1852.25 226.299 1852.25 221.67 Q1852.25 217.063 1850.26 214.378 Q1848.27 211.67 1844.87 211.67 M1844.87 208.059 Q1850.42 208.059 1853.6 211.67 Q1856.77 215.281 1856.77 221.67 Q1856.77 228.036 1853.6 231.67 Q1850.42 235.281 1844.87 235.281 Q1839.29 235.281 1836.12 231.67 Q1832.97 228.036 1832.97 221.67 Q1832.97 215.281 1836.12 211.67 Q1839.29 208.059 1844.87 208.059 Z" fill="#000000" fill-rule="evenodd" fill-opacity="1" /><path clip-path="url(#clip730)" d="M 0 0 M1882.78 218.961 L1882.78 234.61 L1878.53 234.61 L1878.53 219.1 Q1878.53 215.42 1877.09 213.591 Q1875.66 211.762 1872.78 211.762 Q1869.34 211.762 1867.35 213.962 Q1865.35 216.161 1865.35 219.957 L1865.35 234.61 L1861.07 234.61 L1861.07 208.684 L1865.35 208.684 L1865.35 212.712 Q1866.88 210.374 1868.94 209.216 Q1871.03 208.059 1873.73 208.059 Q1878.2 208.059 1880.49 210.837 Q1882.78 213.591 1882.78 218.961 Z" fill="#000000" fill-rule="evenodd" fill-opacity="1" /><path clip-path="url(#clip730)" d="M 0 0 M1885.1 219.725 L1897.58 219.725 L1897.58 223.522 L1885.1 223.522 L1885.1 219.725 Z" fill="#000000" fill-rule="evenodd" fill-opacity="1" /><path clip-path="url(#clip730)" d="M 0 0 M1917.07 212.665 Q1916.35 212.249 1915.49 212.063 Q1914.66 211.855 1913.64 211.855 Q1910.03 211.855 1908.09 214.216 Q1906.16 216.554 1906.16 220.952 L1906.16 234.61 L1901.88 234.61 L1901.88 208.684 L1906.16 208.684 L1906.16 212.712 Q1907.51 210.35 1909.66 209.216 Q1911.81 208.059 1914.89 208.059 Q1915.33 208.059 1915.86 208.128 Q1916.4 208.175 1917.04 208.29 L1917.07 212.665 Z" fill="#000000" fill-rule="evenodd" fill-opacity="1" /><path clip-path="url(#clip730)" d="M 0 0 M1942.67 220.582 L1942.67 222.665 L1923.09 222.665 Q1923.36 227.063 1925.72 229.378 Q1928.11 231.67 1932.34 231.67 Q1934.8 231.67 1937.09 231.068 Q1939.4 230.466 1941.67 229.262 L1941.67 233.29 Q1939.38 234.262 1936.97 234.772 Q1934.57 235.281 1932.09 235.281 Q1925.89 235.281 1922.25 231.67 Q1918.64 228.059 1918.64 221.901 Q1918.64 215.536 1922.07 211.809 Q1925.52 208.059 1931.35 208.059 Q1936.58 208.059 1939.61 211.438 Q1942.67 214.795 1942.67 220.582 M1938.41 219.332 Q1938.36 215.837 1936.44 213.753 Q1934.54 211.67 1931.4 211.67 Q1927.83 211.67 1925.68 213.684 Q1923.55 215.698 1923.22 219.355 L1938.41 219.332 Z" fill="#000000" fill-rule="evenodd" fill-opacity="1" /><path clip-path="url(#clip730)" d="M 0 0 M1947.14 208.684 L1951.4 208.684 L1951.4 235.073 Q1951.4 240.026 1949.5 242.248 Q1947.62 244.471 1943.43 244.471 L1941.81 244.471 L1941.81 240.86 L1942.95 240.86 Q1945.38 240.86 1946.26 239.725 Q1947.14 238.614 1947.14 235.073 L1947.14 208.684 M1947.14 198.591 L1951.4 198.591 L1951.4 203.985 L1947.14 203.985 L1947.14 198.591 Z" fill="#000000" fill-rule="evenodd" fill-opacity="1" /><path clip-path="url(#clip730)" d="M 0 0 M1978.04 220.582 L1978.04 222.665 L1958.46 222.665 Q1958.73 227.063 1961.09 229.378 Q1963.48 231.67 1967.71 231.67 Q1970.17 231.67 1972.46 231.068 Q1974.78 230.466 1977.04 229.262 L1977.04 233.29 Q1974.75 234.262 1972.34 234.772 Q1969.94 235.281 1967.46 235.281 Q1961.26 235.281 1957.62 231.67 Q1954.01 228.059 1954.01 221.901 Q1954.01 215.536 1957.44 211.809 Q1960.89 208.059 1966.72 208.059 Q1971.95 208.059 1974.98 211.438 Q1978.04 214.795 1978.04 220.582 M1973.78 219.332 Q1973.73 215.837 1971.81 213.753 Q1969.91 211.67 1966.77 211.67 Q1963.2 211.67 1961.05 213.684 Q1958.92 215.698 1958.59 219.355 L1973.78 219.332 Z" fill="#000000" fill-rule="evenodd" fill-opacity="1" /><path clip-path="url(#clip730)" d="M 0 0 M2001.16 209.679 L2001.16 213.661 Q1999.36 212.665 1997.53 212.179 Q1995.72 211.67 1993.87 211.67 Q1989.73 211.67 1987.44 214.309 Q1985.15 216.924 1985.15 221.67 Q1985.15 226.415 1987.44 229.054 Q1989.73 231.67 1993.87 231.67 Q1995.72 231.67 1997.53 231.184 Q1999.36 230.674 2001.16 229.679 L2001.16 233.614 Q1999.38 234.448 1997.46 234.864 Q1995.56 235.281 1993.41 235.281 Q1987.55 235.281 1984.1 231.6 Q1980.65 227.92 1980.65 221.67 Q1980.65 215.327 1984.13 211.693 Q1987.62 208.059 1993.69 208.059 Q1995.65 208.059 1997.53 208.475 Q1999.4 208.869 2001.16 209.679 Z" fill="#000000" fill-rule="evenodd" fill-opacity="1" /><path clip-path="url(#clip730)" d="M 0 0 M2009.84 201.323 L2009.84 208.684 L2018.62 208.684 L2018.62 211.994 L2009.84 211.994 L2009.84 226.068 Q2009.84 229.239 2010.7 230.142 Q2011.58 231.045 2014.24 231.045 L2018.62 231.045 L2018.62 234.61 L2014.24 234.61 Q2009.31 234.61 2007.44 232.781 Q2005.56 230.929 2005.56 226.068 L2005.56 211.994 L2002.44 211.994 L2002.44 208.684 L2005.56 208.684 L2005.56 201.323 L2009.84 201.323 Z" fill="#000000" fill-rule="evenodd" fill-opacity="1" /><path clip-path="url(#clip730)" d="M 0 0 M2023.08 208.684 L2027.34 208.684 L2027.34 234.61 L2023.08 234.61 L2023.08 208.684 M2023.08 198.591 L2027.34 198.591 L2027.34 203.985 L2023.08 203.985 L2023.08 198.591 Z" fill="#000000" fill-rule="evenodd" fill-opacity="1" /><path clip-path="url(#clip730)" d="M 0 0 M2041.86 211.67 Q2038.43 211.67 2036.44 214.355 Q2034.45 217.017 2034.45 221.67 Q2034.45 226.323 2036.42 229.008 Q2038.41 231.67 2041.86 231.67 Q2045.26 231.67 2047.25 228.985 Q2049.24 226.299 2049.24 221.67 Q2049.24 217.063 2047.25 214.378 Q2045.26 211.67 2041.86 211.67 M2041.86 208.059 Q2047.41 208.059 2050.58 211.67 Q2053.76 215.281 2053.76 221.67 Q2053.76 228.036 2050.58 231.67 Q2047.41 235.281 2041.86 235.281 Q2036.28 235.281 2033.11 231.67 Q2029.96 228.036 2029.96 221.67 Q2029.96 215.281 2033.11 211.67 Q2036.28 208.059 2041.86 208.059 Z" fill="#000000" fill-rule="evenodd" fill-opacity="1" /><path clip-path="url(#clip730)" d="M 0 0 M2079.77 218.961 L2079.77 234.61 L2075.52 234.61 L2075.52 219.1 Q2075.52 215.42 2074.08 213.591 Q2072.64 211.762 2069.77 211.762 Q2066.33 211.762 2064.33 213.962 Q2062.34 216.161 2062.34 219.957 L2062.34 234.61 L2058.06 234.61 L2058.06 208.684 L2062.34 208.684 L2062.34 212.712 Q2063.87 210.374 2065.93 209.216 Q2068.02 208.059 2070.72 208.059 Q2075.19 208.059 2077.48 210.837 Q2079.77 213.591 2079.77 218.961 Z" fill="#000000" fill-rule="evenodd" fill-opacity="1" /><path clip-path="url(#clip730)" d="M 0 0 M2114.33 212.665 Q2113.62 212.249 2112.76 212.063 Q2111.93 211.855 2110.91 211.855 Q2107.3 211.855 2105.35 214.216 Q2103.43 216.554 2103.43 220.952 L2103.43 234.61 L2099.15 234.61 L2099.15 208.684 L2103.43 208.684 L2103.43 212.712 Q2104.77 210.35 2106.93 209.216 Q2109.08 208.059 2112.16 208.059 Q2112.6 208.059 2113.13 208.128 Q2113.66 208.175 2114.31 208.29 L2114.33 212.665 Z" fill="#000000" fill-rule="evenodd" fill-opacity="1" /><path clip-path="url(#clip730)" d="M 0 0 M2139.94 220.582 L2139.94 222.665 L2120.35 222.665 Q2120.63 227.063 2122.99 229.378 Q2125.38 231.67 2129.61 231.67 Q2132.07 231.67 2134.36 231.068 Q2136.67 230.466 2138.94 229.262 L2138.94 233.29 Q2136.65 234.262 2134.24 234.772 Q2131.83 235.281 2129.36 235.281 Q2123.15 235.281 2119.52 231.67 Q2115.91 228.059 2115.91 221.901 Q2115.91 215.536 2119.33 211.809 Q2122.78 208.059 2128.62 208.059 Q2133.85 208.059 2136.88 211.438 Q2139.94 214.795 2139.94 220.582 M2135.68 219.332 Q2135.63 215.837 2133.71 213.753 Q2131.81 211.67 2128.66 211.67 Q2125.1 211.67 2122.95 213.684 Q2120.82 215.698 2120.49 219.355 L2135.68 219.332 Z" fill="#000000" fill-rule="evenodd" fill-opacity="1" /><path clip-path="url(#clip730)" d="M 0 0 M2161.46 221.346 Q2161.46 216.716 2159.54 214.17 Q2157.64 211.624 2154.2 211.624 Q2150.77 211.624 2148.85 214.17 Q2146.95 216.716 2146.95 221.346 Q2146.95 225.952 2148.85 228.498 Q2150.77 231.045 2154.2 231.045 Q2157.64 231.045 2159.54 228.498 Q2161.46 225.952 2161.46 221.346 M2165.72 231.392 Q2165.72 238.012 2162.78 241.23 Q2159.84 244.471 2153.78 244.471 Q2151.53 244.471 2149.54 244.123 Q2147.55 243.799 2145.68 243.105 L2145.68 238.961 Q2147.55 239.98 2149.38 240.466 Q2151.21 240.952 2153.11 240.952 Q2157.3 240.952 2159.38 238.753 Q2161.46 236.577 2161.46 232.156 L2161.46 230.049 Q2160.14 232.341 2158.08 233.475 Q2156.02 234.61 2153.15 234.61 Q2148.39 234.61 2145.47 230.975 Q2142.55 227.341 2142.55 221.346 Q2142.55 215.327 2145.47 211.693 Q2148.39 208.059 2153.15 208.059 Q2156.02 208.059 2158.08 209.193 Q2160.14 210.327 2161.46 212.619 L2161.46 208.684 L2165.72 208.684 L2165.72 231.392 Z" fill="#000000" fill-rule="evenodd" fill-opacity="1" /><path clip-path="url(#clip730)" d="M 0 0 M2170.19 208.684 L2174.45 208.684 L2174.45 234.61 L2170.19 234.61 L2170.19 208.684 M2170.19 198.591 L2174.45 198.591 L2174.45 203.985 L2170.19 203.985 L2170.19 198.591 Z" fill="#000000" fill-rule="evenodd" fill-opacity="1" /><path clip-path="url(#clip730)" d="M 0 0 M2188.96 211.67 Q2185.54 211.67 2183.55 214.355 Q2181.56 217.017 2181.56 221.67 Q2181.56 226.323 2183.52 229.008 Q2185.51 231.67 2188.96 231.67 Q2192.37 231.67 2194.36 228.985 Q2196.35 226.299 2196.35 221.67 Q2196.35 217.063 2194.36 214.378 Q2192.37 211.67 2188.96 211.67 M2188.96 208.059 Q2194.52 208.059 2197.69 211.67 Q2200.86 215.281 2200.86 221.67 Q2200.86 228.036 2197.69 231.67 Q2194.52 235.281 2188.96 235.281 Q2183.39 235.281 2180.21 231.67 Q2177.07 228.036 2177.07 221.67 Q2177.07 215.281 2180.21 211.67 Q2183.39 208.059 2188.96 208.059 Z" fill="#000000" fill-rule="evenodd" fill-opacity="1" /><path clip-path="url(#clip730)" d="M 0 0 M2226.88 218.961 L2226.88 234.61 L2222.62 234.61 L2222.62 219.1 Q2222.62 215.42 2221.19 213.591 Q2219.75 211.762 2216.88 211.762 Q2213.43 211.762 2211.44 213.962 Q2209.45 216.161 2209.45 219.957 L2209.45 234.61 L2205.17 234.61 L2205.17 208.684 L2209.45 208.684 L2209.45 212.712 Q2210.98 210.374 2213.04 209.216 Q2215.12 208.059 2217.83 208.059 Q2222.3 208.059 2224.59 210.837 Q2226.88 213.591 2226.88 218.961 Z" fill="#000000" fill-rule="evenodd" fill-opacity="1" /><path clip-path="url(#clip730)" d="
M1519.75 302.002 L1670.81 302.002 L1670.81 253.618 L1519.75 253.618 L1519.75 302.002  Z
  " fill="#ffa500" fill-rule="evenodd" fill-opacity="0.5"/>
<polyline clip-path="url(#clip730)" style="stroke:#ffa500; stroke-width:4; stroke-opacity:1; fill:none" points="
  1519.75,253.618 1670.81,253.618 
  "/>
<path clip-path="url(#clip730)" d="M 0 0 M1700.38 282.15 Q1700.38 286.849 1702.3 289.534 Q1704.24 292.196 1707.62 292.196 Q1711 292.196 1712.95 289.534 Q1714.89 286.849 1714.89 282.15 Q1714.89 277.451 1712.95 274.789 Q1711 272.104 1707.62 272.104 Q1704.24 272.104 1702.3 274.789 Q1700.38 277.451 1700.38 282.15 M1714.89 291.201 Q1713.55 293.515 1711.49 294.65 Q1709.45 295.761 1706.58 295.761 Q1701.88 295.761 1698.92 292.011 Q1695.98 288.261 1695.98 282.15 Q1695.98 276.039 1698.92 272.289 Q1701.88 268.539 1706.58 268.539 Q1709.45 268.539 1711.49 269.673 Q1713.55 270.784 1714.89 273.099 L1714.89 269.164 L1719.15 269.164 L1719.15 304.951 L1714.89 304.951 L1714.89 291.201 Z" fill="#000000" fill-rule="evenodd" fill-opacity="1" /><path clip-path="url(#clip730)" d="M 0 0 M1724.36 294.372 L1724.36 290.113 Q1726.12 290.946 1727.92 291.386 Q1729.73 291.826 1731.47 291.826 Q1736.1 291.826 1738.53 288.724 Q1740.98 285.599 1741.33 279.256 Q1739.98 281.247 1737.92 282.312 Q1735.86 283.377 1733.36 283.377 Q1728.18 283.377 1725.15 280.252 Q1722.14 277.104 1722.14 271.664 Q1722.14 266.34 1725.29 263.122 Q1728.43 259.905 1733.67 259.905 Q1739.66 259.905 1742.81 264.511 Q1745.98 269.094 1745.98 277.844 Q1745.98 286.016 1742.09 290.9 Q1738.23 295.761 1731.67 295.761 Q1729.92 295.761 1728.11 295.414 Q1726.3 295.066 1724.36 294.372 M1733.67 279.719 Q1736.81 279.719 1738.64 277.566 Q1740.49 275.414 1740.49 271.664 Q1740.49 267.937 1738.64 265.784 Q1736.81 263.608 1733.67 263.608 Q1730.52 263.608 1728.67 265.784 Q1726.84 267.937 1726.84 271.664 Q1726.84 275.414 1728.67 277.566 Q1730.52 279.719 1733.67 279.719 Z" fill="#000000" fill-rule="evenodd" fill-opacity="1" /><path clip-path="url(#clip730)" d="M 0 0 M1751.1 260.53 L1769.45 260.53 L1769.45 264.465 L1755.38 264.465 L1755.38 272.937 Q1756.4 272.59 1757.42 272.428 Q1758.43 272.242 1759.45 272.242 Q1765.24 272.242 1768.62 275.414 Q1772 278.585 1772 284.002 Q1772 289.58 1768.53 292.682 Q1765.05 295.761 1758.73 295.761 Q1756.56 295.761 1754.29 295.39 Q1752.04 295.02 1749.64 294.279 L1749.64 289.58 Q1751.72 290.715 1753.94 291.27 Q1756.17 291.826 1758.64 291.826 Q1762.65 291.826 1764.98 289.719 Q1767.32 287.613 1767.32 284.002 Q1767.32 280.391 1764.98 278.284 Q1762.65 276.178 1758.64 276.178 Q1756.77 276.178 1754.89 276.594 Q1753.04 277.011 1751.1 277.891 L1751.1 260.53 Z" fill="#000000" fill-rule="evenodd" fill-opacity="1" /><polyline clip-path="url(#clip730)" style="stroke:#0000ff; stroke-width:4; stroke-opacity:1; fill:none" points="
  1519.75,338.29 1670.81,338.29 
  "/>
<path clip-path="url(#clip730)" d="M 0 0 M1716.33 334.621 Q1717.92 331.75 1720.15 330.385 Q1722.37 329.019 1725.38 329.019 Q1729.43 329.019 1731.63 331.866 Q1733.83 334.69 1733.83 339.921 L1733.83 355.57 L1729.54 355.57 L1729.54 340.06 Q1729.54 336.334 1728.23 334.528 Q1726.91 332.722 1724.2 332.722 Q1720.89 332.722 1718.97 334.922 Q1717.04 337.121 1717.04 340.917 L1717.04 355.57 L1712.76 355.57 L1712.76 340.06 Q1712.76 336.31 1711.44 334.528 Q1710.12 332.722 1707.37 332.722 Q1704.11 332.722 1702.18 334.945 Q1700.26 337.144 1700.26 340.917 L1700.26 355.57 L1695.98 355.57 L1695.98 329.644 L1700.26 329.644 L1700.26 333.672 Q1701.72 331.287 1703.76 330.153 Q1705.79 329.019 1708.6 329.019 Q1711.42 329.019 1713.39 330.454 Q1715.38 331.889 1716.33 334.621 Z" fill="#000000" fill-rule="evenodd" fill-opacity="1" /><path clip-path="url(#clip730)" d="M 0 0 M1760.47 341.542 L1760.47 343.625 L1740.89 343.625 Q1741.17 348.023 1743.53 350.338 Q1745.91 352.63 1750.15 352.63 Q1752.6 352.63 1754.89 352.028 Q1757.21 351.426 1759.48 350.222 L1759.48 354.25 Q1757.18 355.222 1754.78 355.732 Q1752.37 356.241 1749.89 356.241 Q1743.69 356.241 1740.05 352.63 Q1736.44 349.019 1736.44 342.861 Q1736.44 336.496 1739.87 332.769 Q1743.32 329.019 1749.15 329.019 Q1754.38 329.019 1757.42 332.398 Q1760.47 335.755 1760.47 341.542 M1756.21 340.292 Q1756.17 336.797 1754.24 334.713 Q1752.35 332.63 1749.2 332.63 Q1745.63 332.63 1743.48 334.644 Q1741.35 336.658 1741.03 340.315 L1756.21 340.292 Z" fill="#000000" fill-rule="evenodd" fill-opacity="1" /><path clip-path="url(#clip730)" d="M 0 0 M1776.72 342.537 Q1771.56 342.537 1769.57 343.718 Q1767.58 344.898 1767.58 347.746 Q1767.58 350.014 1769.06 351.357 Q1770.56 352.676 1773.13 352.676 Q1776.67 352.676 1778.8 350.176 Q1780.96 347.653 1780.96 343.486 L1780.96 342.537 L1776.72 342.537 M1785.22 340.778 L1785.22 355.57 L1780.96 355.57 L1780.96 351.634 Q1779.5 353.995 1777.32 355.13 Q1775.15 356.241 1772 356.241 Q1768.02 356.241 1765.66 354.019 Q1763.32 351.773 1763.32 348.023 Q1763.32 343.648 1766.23 341.426 Q1769.17 339.204 1774.98 339.204 L1780.96 339.204 L1780.96 338.787 Q1780.96 335.847 1779.01 334.25 Q1777.09 332.63 1773.6 332.63 Q1771.37 332.63 1769.27 333.162 Q1767.16 333.695 1765.22 334.759 L1765.22 330.824 Q1767.55 329.922 1769.75 329.482 Q1771.95 329.019 1774.04 329.019 Q1779.66 329.019 1782.44 331.935 Q1785.22 334.852 1785.22 340.778 Z" fill="#000000" fill-rule="evenodd" fill-opacity="1" /><path clip-path="url(#clip730)" d="M 0 0 M1811.23 339.921 L1811.23 355.57 L1806.97 355.57 L1806.97 340.06 Q1806.97 336.38 1805.54 334.551 Q1804.1 332.722 1801.23 332.722 Q1797.79 332.722 1795.79 334.922 Q1793.8 337.121 1793.8 340.917 L1793.8 355.57 L1789.52 355.57 L1789.52 329.644 L1793.8 329.644 L1793.8 333.672 Q1795.33 331.334 1797.39 330.176 Q1799.48 329.019 1802.18 329.019 Q1806.65 329.019 1808.94 331.797 Q1811.23 334.551 1811.23 339.921 Z" fill="#000000" fill-rule="evenodd" fill-opacity="1" /><polyline clip-path="url(#clip730)" style="stroke:#000000; stroke-width:4; stroke-opacity:1; fill:none" points="
  1519.75,398.77 1670.81,398.77 
  "/>
<path clip-path="url(#clip730)" d="M 0 0 M1716.33 395.101 Q1717.92 392.23 1720.15 390.865 Q1722.37 389.499 1725.38 389.499 Q1729.43 389.499 1731.63 392.346 Q1733.83 395.17 1733.83 400.401 L1733.83 416.05 L1729.54 416.05 L1729.54 400.54 Q1729.54 396.814 1728.23 395.008 Q1726.91 393.202 1724.2 393.202 Q1720.89 393.202 1718.97 395.402 Q1717.04 397.601 1717.04 401.397 L1717.04 416.05 L1712.76 416.05 L1712.76 400.54 Q1712.76 396.79 1711.44 395.008 Q1710.12 393.202 1707.37 393.202 Q1704.11 393.202 1702.18 395.425 Q1700.26 397.624 1700.26 401.397 L1700.26 416.05 L1695.98 416.05 L1695.98 390.124 L1700.26 390.124 L1700.26 394.152 Q1701.72 391.767 1703.76 390.633 Q1705.79 389.499 1708.6 389.499 Q1711.42 389.499 1713.39 390.934 Q1715.38 392.369 1716.33 395.101 Z" fill="#000000" fill-rule="evenodd" fill-opacity="1" /><path clip-path="url(#clip730)" d="M 0 0 M1760.47 402.022 L1760.47 404.105 L1740.89 404.105 Q1741.17 408.503 1743.53 410.818 Q1745.91 413.11 1750.15 413.11 Q1752.6 413.11 1754.89 412.508 Q1757.21 411.906 1759.48 410.702 L1759.48 414.73 Q1757.18 415.702 1754.78 416.212 Q1752.37 416.721 1749.89 416.721 Q1743.69 416.721 1740.05 413.11 Q1736.44 409.499 1736.44 403.341 Q1736.44 396.976 1739.87 393.249 Q1743.32 389.499 1749.15 389.499 Q1754.38 389.499 1757.42 392.878 Q1760.47 396.235 1760.47 402.022 M1756.21 400.772 Q1756.17 397.277 1754.24 395.193 Q1752.35 393.11 1749.2 393.11 Q1745.63 393.11 1743.48 395.124 Q1741.35 397.138 1741.03 400.795 L1756.21 400.772 Z" fill="#000000" fill-rule="evenodd" fill-opacity="1" /><path clip-path="url(#clip730)" d="M 0 0 M1782 394.059 L1782 380.031 L1786.26 380.031 L1786.26 416.05 L1782 416.05 L1782 412.161 Q1780.66 414.475 1778.6 415.61 Q1776.56 416.721 1773.69 416.721 Q1768.99 416.721 1766.03 412.971 Q1763.09 409.221 1763.09 403.11 Q1763.09 396.999 1766.03 393.249 Q1768.99 389.499 1773.69 389.499 Q1776.56 389.499 1778.6 390.633 Q1780.66 391.744 1782 394.059 M1767.48 403.11 Q1767.48 407.809 1769.41 410.494 Q1771.35 413.156 1774.73 413.156 Q1778.11 413.156 1780.05 410.494 Q1782 407.809 1782 403.11 Q1782 398.411 1780.05 395.749 Q1778.11 393.064 1774.73 393.064 Q1771.35 393.064 1769.41 395.749 Q1767.48 398.411 1767.48 403.11 Z" fill="#000000" fill-rule="evenodd" fill-opacity="1" /><path clip-path="url(#clip730)" d="M 0 0 M1790.73 390.124 L1794.98 390.124 L1794.98 416.05 L1790.73 416.05 L1790.73 390.124 M1790.73 380.031 L1794.98 380.031 L1794.98 385.425 L1790.73 385.425 L1790.73 380.031 Z" fill="#000000" fill-rule="evenodd" fill-opacity="1" /><path clip-path="url(#clip730)" d="M 0 0 M1811.23 403.017 Q1806.07 403.017 1804.08 404.198 Q1802.09 405.378 1802.09 408.226 Q1802.09 410.494 1803.57 411.837 Q1805.08 413.156 1807.65 413.156 Q1811.19 413.156 1813.32 410.656 Q1815.47 408.133 1815.47 403.966 L1815.47 403.017 L1811.23 403.017 M1819.73 401.258 L1819.73 416.05 L1815.47 416.05 L1815.47 412.114 Q1814.01 414.475 1811.84 415.61 Q1809.66 416.721 1806.51 416.721 Q1802.53 416.721 1800.17 414.499 Q1797.83 412.253 1797.83 408.503 Q1797.83 404.128 1800.75 401.906 Q1803.69 399.684 1809.5 399.684 L1815.47 399.684 L1815.47 399.267 Q1815.47 396.327 1813.53 394.73 Q1811.6 393.11 1808.11 393.11 Q1805.89 393.11 1803.78 393.642 Q1801.67 394.175 1799.73 395.239 L1799.73 391.304 Q1802.07 390.402 1804.27 389.962 Q1806.47 389.499 1808.55 389.499 Q1814.17 389.499 1816.95 392.415 Q1819.73 395.332 1819.73 401.258 Z" fill="#000000" fill-rule="evenodd" fill-opacity="1" /><path clip-path="url(#clip730)" d="M 0 0 M1845.75 400.401 L1845.75 416.05 L1841.49 416.05 L1841.49 400.54 Q1841.49 396.86 1840.05 395.031 Q1838.62 393.202 1835.75 393.202 Q1832.3 393.202 1830.31 395.402 Q1828.32 397.601 1828.32 401.397 L1828.32 416.05 L1824.04 416.05 L1824.04 390.124 L1828.32 390.124 L1828.32 394.152 Q1829.85 391.814 1831.91 390.656 Q1833.99 389.499 1836.7 389.499 Q1841.16 389.499 1843.46 392.277 Q1845.75 395.031 1845.75 400.401 Z" fill="#000000" fill-rule="evenodd" fill-opacity="1" /></svg>
