<?xml version="1.0" encoding="utf-8"?>
<svg xmlns="http://www.w3.org/2000/svg" xmlns:xlink="http://www.w3.org/1999/xlink" width="600" height="400" viewBox="0 0 2400 1600">
<defs>
  <clipPath id="clip720">
    <rect x="0" y="0" width="2400" height="1600"/>
  </clipPath>
</defs>
<path clip-path="url(#clip720)" d="
M0 1600 L2400 1600 L2400 0 L0 0  Z
  " fill="#ffffff" fill-rule="evenodd" fill-opacity="1"/>
<defs>
  <clipPath id="clip721">
    <rect x="480" y="0" width="1681" height="1600"/>
  </clipPath>
</defs>
<path clip-path="url(#clip720)" d="
M86.9921 1521.01 L2352.76 1521.01 L2352.76 47.2441 L86.9921 47.2441  Z
  " fill="#ffffff" fill-rule="evenodd" fill-opacity="1"/>
<defs>
  <clipPath id="clip722">
    <rect x="86" y="47" width="2267" height="1475"/>
  </clipPath>
</defs>
<polyline clip-path="url(#clip722)" style="stroke:#000000; stroke-width:2; stroke-opacity:0.1; fill:none" points="
  175.108,1521.01 175.108,47.2441 
  "/>
<polyline clip-path="url(#clip722)" style="stroke:#000000; stroke-width:2; stroke-opacity:0.1; fill:none" points="
  513.747,1521.01 513.747,47.2441 
  "/>
<polyline clip-path="url(#clip722)" style="stroke:#000000; stroke-width:2; stroke-opacity:0.1; fill:none" points="
  852.385,1521.01 852.385,47.2441 
  "/>
<polyline clip-path="url(#clip722)" style="stroke:#000000; stroke-width:2; stroke-opacity:0.1; fill:none" points="
  1191.02,1521.01 1191.02,47.2441 
  "/>
<polyline clip-path="url(#clip722)" style="stroke:#000000; stroke-width:2; stroke-opacity:0.1; fill:none" points="
  1529.66,1521.01 1529.66,47.2441 
  "/>
<polyline clip-path="url(#clip722)" style="stroke:#000000; stroke-width:2; stroke-opacity:0.1; fill:none" points="
  1868.3,1521.01 1868.3,47.2441 
  "/>
<polyline clip-path="url(#clip722)" style="stroke:#000000; stroke-width:2; stroke-opacity:0.1; fill:none" points="
  2206.94,1521.01 2206.94,47.2441 
  "/>
<polyline clip-path="url(#clip722)" style="stroke:#000000; stroke-width:2; stroke-opacity:0.1; fill:none" points="
  86.9921,1479.3 2352.76,1479.3 
  "/>
<polyline clip-path="url(#clip722)" style="stroke:#000000; stroke-width:2; stroke-opacity:0.1; fill:none" points="
  86.9921,1144.28 2352.76,1144.28 
  "/>
<polyline clip-path="url(#clip722)" style="stroke:#000000; stroke-width:2; stroke-opacity:0.1; fill:none" points="
  86.9921,809.265 2352.76,809.265 
  "/>
<polyline clip-path="url(#clip722)" style="stroke:#000000; stroke-width:2; stroke-opacity:0.1; fill:none" points="
  86.9921,474.249 2352.76,474.249 
  "/>
<polyline clip-path="url(#clip722)" style="stroke:#000000; stroke-width:2; stroke-opacity:0.1; fill:none" points="
  86.9921,139.233 2352.76,139.233 
  "/>
<polyline clip-path="url(#clip720)" style="stroke:#000000; stroke-width:4; stroke-opacity:1; fill:none" points="
  86.9921,1521.01 2352.76,1521.01 
  "/>
<polyline clip-path="url(#clip720)" style="stroke:#000000; stroke-width:4; stroke-opacity:1; fill:none" points="
  86.9921,1521.01 86.9921,47.2441 
  "/>
<polyline clip-path="url(#clip720)" style="stroke:#000000; stroke-width:4; stroke-opacity:1; fill:none" points="
  175.108,1521.01 175.108,1503.32 
  "/>
<polyline clip-path="url(#clip720)" style="stroke:#000000; stroke-width:4; stroke-opacity:1; fill:none" points="
  513.747,1521.01 513.747,1503.32 
  "/>
<polyline clip-path="url(#clip720)" style="stroke:#000000; stroke-width:4; stroke-opacity:1; fill:none" points="
  852.385,1521.01 852.385,1503.32 
  "/>
<polyline clip-path="url(#clip720)" style="stroke:#000000; stroke-width:4; stroke-opacity:1; fill:none" points="
  1191.02,1521.01 1191.02,1503.32 
  "/>
<polyline clip-path="url(#clip720)" style="stroke:#000000; stroke-width:4; stroke-opacity:1; fill:none" points="
  1529.66,1521.01 1529.66,1503.32 
  "/>
<polyline clip-path="url(#clip720)" style="stroke:#000000; stroke-width:4; stroke-opacity:1; fill:none" points="
  1868.3,1521.01 1868.3,1503.32 
  "/>
<polyline clip-path="url(#clip720)" style="stroke:#000000; stroke-width:4; stroke-opacity:1; fill:none" points="
  2206.94,1521.01 2206.94,1503.32 
  "/>
<polyline clip-path="url(#clip720)" style="stroke:#000000; stroke-width:4; stroke-opacity:1; fill:none" points="
  86.9921,1479.3 114.181,1479.3 
  "/>
<polyline clip-path="url(#clip720)" style="stroke:#000000; stroke-width:4; stroke-opacity:1; fill:none" points="
  86.9921,1144.28 114.181,1144.28 
  "/>
<polyline clip-path="url(#clip720)" style="stroke:#000000; stroke-width:4; stroke-opacity:1; fill:none" points="
  86.9921,809.265 114.181,809.265 
  "/>
<polyline clip-path="url(#clip720)" style="stroke:#000000; stroke-width:4; stroke-opacity:1; fill:none" points="
  86.9921,474.249 114.181,474.249 
  "/>
<polyline clip-path="url(#clip720)" style="stroke:#000000; stroke-width:4; stroke-opacity:1; fill:none" points="
  86.9921,139.233 114.181,139.233 
  "/>
<path clip-path="url(#clip720)" d="M 0 0 M156.625 1543 Q153.013 1543 151.185 1546.56 Q149.379 1550.11 149.379 1557.23 Q149.379 1564.34 151.185 1567.91 Q153.013 1571.45 156.625 1571.45 Q160.259 1571.45 162.064 1567.91 Q163.893 1564.34 163.893 1557.23 Q163.893 1550.11 162.064 1546.56 Q160.259 1543 156.625 1543 M156.625 1539.29 Q162.435 1539.29 165.49 1543.9 Q168.569 1548.48 168.569 1557.23 Q168.569 1565.96 165.49 1570.57 Q162.435 1575.15 156.625 1575.15 Q150.814 1575.15 147.736 1570.57 Q144.68 1565.96 144.68 1557.23 Q144.68 1548.48 147.736 1543.9 Q150.814 1539.29 156.625 1539.29 Z" fill="#000000" fill-rule="evenodd" fill-opacity="1" /><path clip-path="url(#clip720)" d="M 0 0 M173.638 1568.6 L178.523 1568.6 L178.523 1574.48 L173.638 1574.48 L173.638 1568.6 Z" fill="#000000" fill-rule="evenodd" fill-opacity="1" /><path clip-path="url(#clip720)" d="M 0 0 M193.592 1543 Q189.981 1543 188.152 1546.56 Q186.347 1550.11 186.347 1557.23 Q186.347 1564.34 188.152 1567.91 Q189.981 1571.45 193.592 1571.45 Q197.226 1571.45 199.032 1567.91 Q200.86 1564.34 200.86 1557.23 Q200.86 1550.11 199.032 1546.56 Q197.226 1543 193.592 1543 M193.592 1539.29 Q199.402 1539.29 202.458 1543.9 Q205.536 1548.48 205.536 1557.23 Q205.536 1565.96 202.458 1570.57 Q199.402 1575.15 193.592 1575.15 Q187.782 1575.15 184.703 1570.57 Q181.648 1565.96 181.648 1557.23 Q181.648 1548.48 184.703 1543.9 Q187.782 1539.29 193.592 1539.29 Z" fill="#000000" fill-rule="evenodd" fill-opacity="1" /><path clip-path="url(#clip720)" d="M 0 0 M495.876 1543 Q492.265 1543 490.437 1546.56 Q488.631 1550.11 488.631 1557.23 Q488.631 1564.34 490.437 1567.91 Q492.265 1571.45 495.876 1571.45 Q499.511 1571.45 501.316 1567.91 Q503.145 1564.34 503.145 1557.23 Q503.145 1550.11 501.316 1546.56 Q499.511 1543 495.876 1543 M495.876 1539.29 Q501.686 1539.29 504.742 1543.9 Q507.821 1548.48 507.821 1557.23 Q507.821 1565.96 504.742 1570.57 Q501.686 1575.15 495.876 1575.15 Q490.066 1575.15 486.987 1570.57 Q483.932 1565.96 483.932 1557.23 Q483.932 1548.48 486.987 1543.9 Q490.066 1539.29 495.876 1539.29 Z" fill="#000000" fill-rule="evenodd" fill-opacity="1" /><path clip-path="url(#clip720)" d="M 0 0 M512.89 1568.6 L517.774 1568.6 L517.774 1574.48 L512.89 1574.48 L512.89 1568.6 Z" fill="#000000" fill-rule="evenodd" fill-opacity="1" /><path clip-path="url(#clip720)" d="M 0 0 M523.654 1570.54 L531.293 1570.54 L531.293 1544.18 L522.983 1545.85 L522.983 1541.59 L531.247 1539.92 L535.922 1539.92 L535.922 1570.54 L543.561 1570.54 L543.561 1574.48 L523.654 1574.48 L523.654 1570.54 Z" fill="#000000" fill-rule="evenodd" fill-opacity="1" /><path clip-path="url(#clip720)" d="M 0 0 M834.7 1543 Q831.089 1543 829.26 1546.56 Q827.455 1550.11 827.455 1557.23 Q827.455 1564.34 829.26 1567.91 Q831.089 1571.45 834.7 1571.45 Q838.334 1571.45 840.14 1567.91 Q841.968 1564.34 841.968 1557.23 Q841.968 1550.11 840.14 1546.56 Q838.334 1543 834.7 1543 M834.7 1539.29 Q840.51 1539.29 843.566 1543.9 Q846.644 1548.48 846.644 1557.23 Q846.644 1565.96 843.566 1570.57 Q840.51 1575.15 834.7 1575.15 Q828.89 1575.15 825.811 1570.57 Q822.756 1565.96 822.756 1557.23 Q822.756 1548.48 825.811 1543.9 Q828.89 1539.29 834.7 1539.29 Z" fill="#000000" fill-rule="evenodd" fill-opacity="1" /><path clip-path="url(#clip720)" d="M 0 0 M851.714 1568.6 L856.598 1568.6 L856.598 1574.48 L851.714 1574.48 L851.714 1568.6 Z" fill="#000000" fill-rule="evenodd" fill-opacity="1" /><path clip-path="url(#clip720)" d="M 0 0 M865.695 1570.54 L882.014 1570.54 L882.014 1574.48 L860.07 1574.48 L860.07 1570.54 Q862.732 1567.79 867.315 1563.16 Q871.922 1558.51 873.102 1557.17 Q875.348 1554.64 876.227 1552.91 Q877.13 1551.15 877.13 1549.46 Q877.13 1546.7 875.186 1544.97 Q873.265 1543.23 870.163 1543.23 Q867.964 1543.23 865.51 1543.99 Q863.079 1544.76 860.302 1546.31 L860.302 1541.59 Q863.126 1540.45 865.579 1539.87 Q868.033 1539.29 870.07 1539.29 Q875.44 1539.29 878.635 1541.98 Q881.829 1544.67 881.829 1549.16 Q881.829 1551.29 881.019 1553.21 Q880.232 1555.1 878.126 1557.7 Q877.547 1558.37 874.445 1561.59 Q871.343 1564.78 865.695 1570.54 Z" fill="#000000" fill-rule="evenodd" fill-opacity="1" /><path clip-path="url(#clip720)" d="M 0 0 M1172.86 1543 Q1169.25 1543 1167.42 1546.56 Q1165.62 1550.11 1165.62 1557.23 Q1165.62 1564.34 1167.42 1567.91 Q1169.25 1571.45 1172.86 1571.45 Q1176.5 1571.45 1178.3 1567.91 Q1180.13 1564.34 1180.13 1557.23 Q1180.13 1550.11 1178.3 1546.56 Q1176.5 1543 1172.86 1543 M1172.86 1539.29 Q1178.67 1539.29 1181.73 1543.9 Q1184.81 1548.48 1184.81 1557.23 Q1184.81 1565.96 1181.73 1570.57 Q1178.67 1575.15 1172.86 1575.15 Q1167.05 1575.15 1163.97 1570.57 Q1160.92 1565.96 1160.92 1557.23 Q1160.92 1548.48 1163.97 1543.9 Q1167.05 1539.29 1172.86 1539.29 Z" fill="#000000" fill-rule="evenodd" fill-opacity="1" /><path clip-path="url(#clip720)" d="M 0 0 M1189.88 1568.6 L1194.76 1568.6 L1194.76 1574.48 L1189.88 1574.48 L1189.88 1568.6 Z" fill="#000000" fill-rule="evenodd" fill-opacity="1" /><path clip-path="url(#clip720)" d="M 0 0 M1214 1555.85 Q1217.35 1556.56 1219.23 1558.83 Q1221.13 1561.1 1221.13 1564.43 Q1221.13 1569.55 1217.61 1572.35 Q1214.09 1575.15 1207.61 1575.15 Q1205.43 1575.15 1203.12 1574.71 Q1200.83 1574.29 1198.37 1573.44 L1198.37 1568.92 Q1200.32 1570.06 1202.63 1570.64 Q1204.95 1571.22 1207.47 1571.22 Q1211.87 1571.22 1214.16 1569.48 Q1216.47 1567.74 1216.47 1564.43 Q1216.47 1561.38 1214.32 1559.67 Q1212.19 1557.93 1208.37 1557.93 L1204.35 1557.93 L1204.35 1554.09 L1208.56 1554.09 Q1212.01 1554.09 1213.84 1552.72 Q1215.66 1551.33 1215.66 1548.74 Q1215.66 1546.08 1213.77 1544.67 Q1211.89 1543.23 1208.37 1543.23 Q1206.45 1543.23 1204.25 1543.65 Q1202.05 1544.06 1199.41 1544.94 L1199.41 1540.78 Q1202.08 1540.04 1204.39 1539.67 Q1206.73 1539.29 1208.79 1539.29 Q1214.11 1539.29 1217.22 1541.73 Q1220.32 1544.13 1220.32 1548.25 Q1220.32 1551.12 1218.67 1553.11 Q1217.03 1555.08 1214 1555.85 Z" fill="#000000" fill-rule="evenodd" fill-opacity="1" /><path clip-path="url(#clip720)" d="M 0 0 M1510.94 1543 Q1507.32 1543 1505.5 1546.56 Q1503.69 1550.11 1503.69 1557.23 Q1503.69 1564.34 1505.5 1567.91 Q1507.32 1571.45 1510.94 1571.45 Q1514.57 1571.45 1516.37 1567.91 Q1518.2 1564.34 1518.2 1557.23 Q1518.2 1550.11 1516.37 1546.56 Q1514.57 1543 1510.94 1543 M1510.94 1539.29 Q1516.75 1539.29 1519.8 1543.9 Q1522.88 1548.48 1522.88 1557.23 Q1522.88 1565.96 1519.8 1570.57 Q1516.75 1575.15 1510.94 1575.15 Q1505.12 1575.15 1502.05 1570.57 Q1498.99 1565.96 1498.99 1557.23 Q1498.99 1548.48 1502.05 1543.9 Q1505.12 1539.29 1510.94 1539.29 Z" fill="#000000" fill-rule="evenodd" fill-opacity="1" /><path clip-path="url(#clip720)" d="M 0 0 M1527.95 1568.6 L1532.83 1568.6 L1532.83 1574.48 L1527.95 1574.48 L1527.95 1568.6 Z" fill="#000000" fill-rule="evenodd" fill-opacity="1" /><path clip-path="url(#clip720)" d="M 0 0 M1550.75 1543.99 L1538.94 1562.44 L1550.75 1562.44 L1550.75 1543.99 M1549.52 1539.92 L1555.4 1539.92 L1555.4 1562.44 L1560.33 1562.44 L1560.33 1566.33 L1555.4 1566.33 L1555.4 1574.48 L1550.75 1574.48 L1550.75 1566.33 L1535.15 1566.33 L1535.15 1561.82 L1549.52 1539.92 Z" fill="#000000" fill-rule="evenodd" fill-opacity="1" /><path clip-path="url(#clip720)" d="M 0 0 M1850.31 1543 Q1846.7 1543 1844.87 1546.56 Q1843.07 1550.11 1843.07 1557.23 Q1843.07 1564.34 1844.87 1567.91 Q1846.7 1571.45 1850.31 1571.45 Q1853.95 1571.45 1855.75 1567.91 Q1857.58 1564.34 1857.58 1557.23 Q1857.58 1550.11 1855.75 1546.56 Q1853.95 1543 1850.31 1543 M1850.31 1539.29 Q1856.12 1539.29 1859.18 1543.9 Q1862.26 1548.48 1862.26 1557.23 Q1862.26 1565.96 1859.18 1570.57 Q1856.12 1575.15 1850.31 1575.15 Q1844.5 1575.15 1841.43 1570.57 Q1838.37 1565.96 1838.37 1557.23 Q1838.37 1548.48 1841.43 1543.9 Q1844.5 1539.29 1850.31 1539.29 Z" fill="#000000" fill-rule="evenodd" fill-opacity="1" /><path clip-path="url(#clip720)" d="M 0 0 M1867.33 1568.6 L1872.21 1568.6 L1872.21 1574.48 L1867.33 1574.48 L1867.33 1568.6 Z" fill="#000000" fill-rule="evenodd" fill-opacity="1" /><path clip-path="url(#clip720)" d="M 0 0 M1877.33 1539.92 L1895.68 1539.92 L1895.68 1543.86 L1881.61 1543.86 L1881.61 1552.33 Q1882.63 1551.98 1883.65 1551.82 Q1884.67 1551.63 1885.68 1551.63 Q1891.47 1551.63 1894.85 1554.8 Q1898.23 1557.98 1898.23 1563.39 Q1898.23 1568.97 1894.76 1572.07 Q1891.29 1575.15 1884.97 1575.15 Q1882.79 1575.15 1880.52 1574.78 Q1878.28 1574.41 1875.87 1573.67 L1875.87 1568.97 Q1877.95 1570.1 1880.18 1570.66 Q1882.4 1571.22 1884.87 1571.22 Q1888.88 1571.22 1891.22 1569.11 Q1893.55 1567 1893.55 1563.39 Q1893.55 1559.78 1891.22 1557.67 Q1888.88 1555.57 1884.87 1555.57 Q1883 1555.57 1881.12 1555.98 Q1879.27 1556.4 1877.33 1557.28 L1877.33 1539.92 Z" fill="#000000" fill-rule="evenodd" fill-opacity="1" /><path clip-path="url(#clip720)" d="M 0 0 M2188.37 1543 Q2184.76 1543 2182.93 1546.56 Q2181.13 1550.11 2181.13 1557.23 Q2181.13 1564.34 2182.93 1567.91 Q2184.76 1571.45 2188.37 1571.45 Q2192.01 1571.45 2193.81 1567.91 Q2195.64 1564.34 2195.64 1557.23 Q2195.64 1550.11 2193.81 1546.56 Q2192.01 1543 2188.37 1543 M2188.37 1539.29 Q2194.18 1539.29 2197.24 1543.9 Q2200.32 1548.48 2200.32 1557.23 Q2200.32 1565.96 2197.24 1570.57 Q2194.18 1575.15 2188.37 1575.15 Q2182.56 1575.15 2179.48 1570.57 Q2176.43 1565.96 2176.43 1557.23 Q2176.43 1548.48 2179.48 1543.9 Q2182.56 1539.29 2188.37 1539.29 Z" fill="#000000" fill-rule="evenodd" fill-opacity="1" /><path clip-path="url(#clip720)" d="M 0 0 M2205.39 1568.6 L2210.27 1568.6 L2210.27 1574.48 L2205.39 1574.48 L2205.39 1568.6 Z" fill="#000000" fill-rule="evenodd" fill-opacity="1" /><path clip-path="url(#clip720)" d="M 0 0 M2225.92 1555.34 Q2222.77 1555.34 2220.92 1557.49 Q2219.09 1559.64 2219.09 1563.39 Q2219.09 1567.12 2220.92 1569.29 Q2222.77 1571.45 2225.92 1571.45 Q2229.07 1571.45 2230.9 1569.29 Q2232.75 1567.12 2232.75 1563.39 Q2232.75 1559.64 2230.9 1557.49 Q2229.07 1555.34 2225.92 1555.34 M2235.2 1540.68 L2235.2 1544.94 Q2233.44 1544.11 2231.64 1543.67 Q2229.86 1543.23 2228.1 1543.23 Q2223.47 1543.23 2221.01 1546.36 Q2218.58 1549.48 2218.23 1555.8 Q2219.6 1553.79 2221.66 1552.72 Q2223.72 1551.63 2226.2 1551.63 Q2231.41 1551.63 2234.42 1554.8 Q2237.45 1557.95 2237.45 1563.39 Q2237.45 1568.72 2234.3 1571.93 Q2231.15 1575.15 2225.92 1575.15 Q2219.92 1575.15 2216.75 1570.57 Q2213.58 1565.96 2213.58 1557.23 Q2213.58 1549.04 2217.47 1544.18 Q2221.36 1539.29 2227.91 1539.29 Q2229.67 1539.29 2231.45 1539.64 Q2233.26 1539.99 2235.2 1540.68 Z" fill="#000000" fill-rule="evenodd" fill-opacity="1" /><path clip-path="url(#clip720)" d="M 0 0 M51.0477 1465.1 Q47.4367 1465.1 45.608 1468.66 Q43.8024 1472.2 43.8024 1479.33 Q43.8024 1486.44 45.608 1490 Q47.4367 1493.55 51.0477 1493.55 Q54.682 1493.55 56.4875 1490 Q58.3162 1486.44 58.3162 1479.33 Q58.3162 1472.2 56.4875 1468.66 Q54.682 1465.1 51.0477 1465.1 M51.0477 1461.39 Q56.8579 1461.39 59.9134 1466 Q62.9921 1470.58 62.9921 1479.33 Q62.9921 1488.06 59.9134 1492.67 Q56.8579 1497.25 51.0477 1497.25 Q45.2376 1497.25 42.1589 1492.67 Q39.1034 1488.06 39.1034 1479.33 Q39.1034 1470.58 42.1589 1466 Q45.2376 1461.39 51.0477 1461.39 Z" fill="#000000" fill-rule="evenodd" fill-opacity="1" /><path clip-path="url(#clip720)" d="M 0 0 M43.0848 1157.63 L50.7237 1157.63 L50.7237 1131.26 L42.4135 1132.93 L42.4135 1128.67 L50.6774 1127 L55.3533 1127 L55.3533 1157.63 L62.9921 1157.63 L62.9921 1161.56 L43.0848 1161.56 L43.0848 1157.63 Z" fill="#000000" fill-rule="evenodd" fill-opacity="1" /><path clip-path="url(#clip720)" d="M 0 0 M46.6728 822.61 L62.9921 822.61 L62.9921 826.545 L41.0478 826.545 L41.0478 822.61 Q43.7098 819.855 48.2931 815.226 Q52.8996 810.573 54.0801 809.231 Q56.3255 806.707 57.2051 804.971 Q58.1079 803.212 58.1079 801.522 Q58.1079 798.768 56.1635 797.032 Q54.2422 795.295 51.1403 795.295 Q48.9413 795.295 46.4876 796.059 Q44.057 796.823 41.2793 798.374 L41.2793 793.652 Q44.1033 792.518 46.557 791.939 Q49.0107 791.36 51.0477 791.36 Q56.4181 791.36 59.6125 794.045 Q62.8069 796.731 62.8069 801.221 Q62.8069 803.351 61.9968 805.272 Q61.2097 807.17 59.1033 809.763 Q58.5246 810.434 55.4227 813.652 Q52.3209 816.846 46.6728 822.61 Z" fill="#000000" fill-rule="evenodd" fill-opacity="1" /><path clip-path="url(#clip720)" d="M 0 0 M55.8625 472.895 Q59.219 473.613 61.094 475.881 Q62.9921 478.15 62.9921 481.483 Q62.9921 486.599 59.4736 489.399 Q55.9551 492.2 49.4737 492.2 Q47.2978 492.2 44.983 491.761 Q42.6913 491.344 40.2376 490.487 L40.2376 485.974 Q42.1821 487.108 44.4969 487.687 Q46.8117 488.265 49.3348 488.265 Q53.7329 488.265 56.0246 486.529 Q58.3394 484.793 58.3394 481.483 Q58.3394 478.427 56.1866 476.714 Q54.057 474.978 50.2376 474.978 L46.2098 474.978 L46.2098 471.136 L50.4227 471.136 Q53.8718 471.136 55.7005 469.77 Q57.5292 468.381 57.5292 465.788 Q57.5292 463.126 55.6311 461.714 Q53.7561 460.279 50.2376 460.279 Q48.3163 460.279 46.1172 460.696 Q43.9182 461.113 41.2793 461.992 L41.2793 457.826 Q43.9413 457.085 46.2561 456.714 Q48.5941 456.344 50.6542 456.344 Q55.9783 456.344 59.0801 458.775 Q62.1819 461.182 62.1819 465.302 Q62.1819 468.173 60.5384 470.163 Q58.8949 472.131 55.8625 472.895 Z" fill="#000000" fill-rule="evenodd" fill-opacity="1" /><path clip-path="url(#clip720)" d="M 0 0 M53.4088 126.027 L41.6034 144.476 L53.4088 144.476 L53.4088 126.027 M52.182 121.953 L58.0616 121.953 L58.0616 144.476 L62.9921 144.476 L62.9921 148.365 L58.0616 148.365 L58.0616 156.513 L53.4088 156.513 L53.4088 148.365 L37.8071 148.365 L37.8071 143.851 L52.182 121.953 Z" fill="#000000" fill-rule="evenodd" fill-opacity="1" /><path clip-path="url(#clip722)" d="
M151.118 1452.38 L155.766 1451.34 L160.414 1450.44 L165.062 1449.66 L169.71 1449.03 L174.358 1448.53 L179.007 1448.17 L183.655 1447.93 L188.303 1447.81 L192.951 1447.79 
  L197.599 1447.86 L202.247 1448 L206.896 1448.19 L211.544 1448.41 L216.192 1448.63 L220.84 1448.85 L225.488 1449.02 L230.136 1449.14 L234.785 1449.18 L239.433 1449.12 
  L244.081 1448.95 L248.729 1448.65 L253.377 1448.22 L258.025 1447.63 L262.674 1446.89 L267.322 1445.99 L271.97 1444.94 L276.618 1443.73 L281.266 1442.37 L285.914 1440.87 
  L290.563 1439.25 L295.211 1437.51 L299.859 1435.66 L304.507 1433.73 L309.155 1431.72 L313.803 1429.64 L318.452 1427.52 L323.1 1425.36 L327.748 1423.16 L332.396 1420.93 
  L337.044 1418.68 L341.692 1416.39 L346.341 1414.08 L350.989 1411.72 L355.637 1409.3 L360.285 1406.83 L364.933 1404.28 L369.581 1401.64 L374.23 1398.9 L378.878 1396.04 
  L383.526 1393.05 L388.174 1389.93 L392.822 1386.66 L397.47 1383.24 L402.119 1379.67 L406.767 1375.95 L411.415 1372.08 L416.063 1368.06 L420.711 1363.91 L425.359 1359.62 
  L430.008 1355.2 L434.656 1350.66 L439.304 1346.01 L443.952 1341.24 L448.6 1336.37 L453.248 1331.38 L457.897 1326.29 L462.545 1321.08 L467.193 1315.75 L471.841 1310.31 
  L476.489 1304.75 L481.137 1299.06 L485.786 1293.25 L490.434 1287.33 L495.082 1281.29 L499.73 1275.15 L504.378 1268.93 L509.027 1262.64 L513.675 1256.31 L518.323 1249.97 
  L522.971 1243.64 L527.619 1237.36 L532.267 1231.15 L536.916 1225.06 L541.564 1219.1 L546.212 1213.31 L550.86 1207.72 L555.508 1202.33 L560.156 1197.18 L564.805 1192.27 
  L569.453 1187.61 L574.101 1183.2 L578.749 1179.03 L583.397 1175.1 L588.045 1171.38 L592.694 1167.88 L597.342 1164.55 L601.99 1161.38 L606.638 1158.34 L611.286 1155.38 
  L611.286 1479.3 L606.638 1479.3 L601.99 1479.3 L597.342 1479.3 L592.694 1479.3 L588.045 1479.3 L583.397 1479.3 L578.749 1479.3 L574.101 1479.3 L569.453 1479.3 
  L564.805 1479.3 L560.156 1479.3 L555.508 1479.3 L550.86 1479.3 L546.212 1479.3 L541.564 1479.3 L536.916 1479.3 L532.267 1479.3 L527.619 1479.3 L522.971 1479.3 
  L518.323 1479.3 L513.675 1479.3 L509.027 1479.3 L504.378 1479.3 L499.73 1479.3 L495.082 1479.3 L490.434 1479.3 L485.786 1479.3 L481.137 1479.3 L476.489 1479.3 
  L471.841 1479.3 L467.193 1479.3 L462.545 1479.3 L457.897 1479.3 L453.248 1479.3 L448.6 1479.3 L443.952 1479.3 L439.304 1479.3 L434.656 1479.3 L430.008 1479.3 
  L425.359 1479.3 L420.711 1479.3 L416.063 1479.3 L411.415 1479.3 L406.767 1479.3 L402.119 1479.3 L397.47 1479.3 L392.822 1479.3 L388.174 1479.3 L383.526 1479.3 
  L378.878 1479.3 L374.23 1479.3 L369.581 1479.3 L364.933 1479.3 L360.285 1479.3 L355.637 1479.3 L350.989 1479.3 L346.341 1479.3 L341.692 1479.3 L337.044 1479.3 
  L332.396 1479.3 L327.748 1479.3 L323.1 1479.3 L318.452 1479.3 L313.803 1479.3 L309.155 1479.3 L304.507 1479.3 L299.859 1479.3 L295.211 1479.3 L290.563 1479.3 
  L285.914 1479.3 L281.266 1479.3 L276.618 1479.3 L271.97 1479.3 L267.322 1479.3 L262.674 1479.3 L258.025 1479.3 L253.377 1479.3 L248.729 1479.3 L244.081 1479.3 
  L239.433 1479.3 L234.785 1479.3 L230.136 1479.3 L225.488 1479.3 L220.84 1479.3 L216.192 1479.3 L211.544 1479.3 L206.896 1479.3 L202.247 1479.3 L197.599 1479.3 
  L192.951 1479.3 L188.303 1479.3 L183.655 1479.3 L179.007 1479.3 L174.358 1479.3 L169.71 1479.3 L165.062 1479.3 L160.414 1479.3 L155.766 1479.3 L151.118 1479.3 
   Z
  " fill="#ffa500" fill-rule="evenodd" fill-opacity="0.5"/>
<polyline clip-path="url(#clip722)" style="stroke:#ffa500; stroke-width:4; stroke-opacity:1; fill:none" points="
  151.118,1452.38 155.766,1451.34 160.414,1450.44 165.062,1449.66 169.71,1449.03 174.358,1448.53 179.007,1448.17 183.655,1447.93 188.303,1447.81 192.951,1447.79 
  197.599,1447.86 202.247,1448 206.896,1448.19 211.544,1448.41 216.192,1448.63 220.84,1448.85 225.488,1449.02 230.136,1449.14 234.785,1449.18 239.433,1449.12 
  244.081,1448.95 248.729,1448.65 253.377,1448.22 258.025,1447.63 262.674,1446.89 267.322,1445.99 271.97,1444.94 276.618,1443.73 281.266,1442.37 285.914,1440.87 
  290.563,1439.25 295.211,1437.51 299.859,1435.66 304.507,1433.73 309.155,1431.72 313.803,1429.64 318.452,1427.52 323.1,1425.36 327.748,1423.16 332.396,1420.93 
  337.044,1418.68 341.692,1416.39 346.341,1414.08 350.989,1411.72 355.637,1409.3 360.285,1406.83 364.933,1404.28 369.581,1401.64 374.23,1398.9 378.878,1396.04 
  383.526,1393.05 388.174,1389.93 392.822,1386.66 397.47,1383.24 402.119,1379.67 406.767,1375.95 411.415,1372.08 416.063,1368.06 420.711,1363.91 425.359,1359.62 
  430.008,1355.2 434.656,1350.66 439.304,1346.01 443.952,1341.24 448.6,1336.37 453.248,1331.38 457.897,1326.29 462.545,1321.08 467.193,1315.75 471.841,1310.31 
  476.489,1304.75 481.137,1299.06 485.786,1293.25 490.434,1287.33 495.082,1281.29 499.73,1275.15 504.378,1268.93 509.027,1262.64 513.675,1256.31 518.323,1249.97 
  522.971,1243.64 527.619,1237.36 532.267,1231.15 536.916,1225.06 541.564,1219.1 546.212,1213.31 550.86,1207.72 555.508,1202.33 560.156,1197.18 564.805,1192.27 
  569.453,1187.61 574.101,1183.2 578.749,1179.03 583.397,1175.1 588.045,1171.38 592.694,1167.88 597.342,1164.55 601.99,1161.38 606.638,1158.34 611.286,1155.38 
  
  "/>
<path clip-path="url(#clip722)" d="
M611.286 1155.38 L623.016 1148.07 L634.745 1140.47 L646.475 1131.98 L658.205 1122.11 L669.934 1110.63 L681.664 1097.61 L693.393 1083.31 L705.123 1068.04 L716.853 1051.93 
  L728.582 1034.75 L740.312 1015.87 L752.041 994.352 L763.771 969.187 L775.501 939.5 L787.23 904.768 L798.96 864.944 L810.69 820.503 L822.419 772.434 L834.149 722.162 
  L845.878 671.428 L857.608 622.1 L869.338 575.946 L881.067 534.386 L892.797 498.278 L904.526 467.783 L916.256 442.324 L927.986 420.697 L939.715 401.289 L951.445 382.409 
  L963.174 362.64 L974.904 341.145 L986.634 317.818 L998.363 293.242 L1010.09 268.475 L1021.82 244.726 L1033.55 223.028 L1045.28 204.013 L1057.01 187.809 L1068.74 174.074 
  L1080.47 162.116 L1092.2 151.084 L1103.93 140.189 L1115.66 128.945 L1127.39 117.381 L1139.12 106.162 L1150.85 96.5593 L1162.58 90.2454 L1174.31 88.9544 L1186.04 94.1096 
  L1197.77 106.522 L1209.5 126.23 L1221.23 152.497 L1232.96 183.928 L1244.68 218.648 L1256.41 254.524 L1268.14 289.387 L1279.87 321.272 L1291.6 348.645 L1303.33 370.582 
  L1315.06 386.864 L1326.79 397.954 L1338.52 404.863 L1350.25 408.939 L1361.98 411.649 L1373.71 414.403 L1385.44 418.469 L1397.17 424.956 L1408.9 434.83 L1420.63 448.925 
  L1432.36 467.877 L1444.09 492.009 L1455.82 521.164 L1467.55 554.587 L1479.28 590.902 L1491.01 628.245 L1502.74 664.569 L1514.47 698.033 L1526.2 727.398 L1537.93 752.283 
  L1549.65 773.214 L1561.38 791.44 L1573.11 808.58 L1584.84 826.198 L1596.57 845.443 L1608.3 866.822 L1620.03 890.138 L1631.76 914.604 L1643.49 939.058 L1655.22 962.263 
  L1666.95 983.193 L1678.68 1001.27 L1690.41 1016.47 L1702.14 1029.3 L1713.87 1040.67 L1725.6 1051.65 L1737.33 1063.24 L1749.06 1076.26 L1760.79 1091.2 L1772.52 1108.24 
  L1772.52 1479.3 L1760.79 1479.3 L1749.06 1479.3 L1737.33 1479.3 L1725.6 1479.3 L1713.87 1479.3 L1702.14 1479.3 L1690.41 1479.3 L1678.68 1479.3 L1666.95 1479.3 
  L1655.22 1479.3 L1643.49 1479.3 L1631.76 1479.3 L1620.03 1479.3 L1608.3 1479.3 L1596.57 1479.3 L1584.84 1479.3 L1573.11 1479.3 L1561.38 1479.3 L1549.65 1479.3 
  L1537.93 1479.3 L1526.2 1479.3 L1514.47 1479.3 L1502.74 1479.3 L1491.01 1479.3 L1479.28 1479.3 L1467.55 1479.3 L1455.82 1479.3 L1444.09 1479.3 L1432.36 1479.3 
  L1420.63 1479.3 L1408.9 1479.3 L1397.17 1479.3 L1385.44 1479.3 L1373.71 1479.3 L1361.98 1479.3 L1350.25 1479.3 L1338.52 1479.3 L1326.79 1479.3 L1315.06 1479.3 
  L1303.33 1479.3 L1291.6 1479.3 L1279.87 1479.3 L1268.14 1479.3 L1256.41 1479.3 L1244.68 1479.3 L1232.96 1479.3 L1221.23 1479.3 L1209.5 1479.3 L1197.77 1479.3 
  L1186.04 1479.3 L1174.31 1479.3 L1162.58 1479.3 L1150.85 1479.3 L1139.12 1479.3 L1127.39 1479.3 L1115.66 1479.3 L1103.93 1479.3 L1092.2 1479.3 L1080.47 1479.3 
  L1068.74 1479.3 L1057.01 1479.3 L1045.28 1479.3 L1033.55 1479.3 L1021.82 1479.3 L1010.09 1479.3 L998.363 1479.3 L986.634 1479.3 L974.904 1479.3 L963.174 1479.3 
  L951.445 1479.3 L939.715 1479.3 L927.986 1479.3 L916.256 1479.3 L904.526 1479.3 L892.797 1479.3 L881.067 1479.3 L869.338 1479.3 L857.608 1479.3 L845.878 1479.3 
  L834.149 1479.3 L822.419 1479.3 L810.69 1479.3 L798.96 1479.3 L787.23 1479.3 L775.501 1479.3 L763.771 1479.3 L752.041 1479.3 L740.312 1479.3 L728.582 1479.3 
  L716.853 1479.3 L705.123 1479.3 L693.393 1479.3 L681.664 1479.3 L669.934 1479.3 L658.205 1479.3 L646.475 1479.3 L634.745 1479.3 L623.016 1479.3 L611.286 1479.3 
   Z
  " fill="#008000" fill-rule="evenodd" fill-opacity="0.5"/>
<polyline clip-path="url(#clip722)" style="stroke:#008000; stroke-width:4; stroke-opacity:1; fill:none" points="
  611.286,1155.38 623.016,1148.07 634.745,1140.47 646.475,1131.98 658.205,1122.11 669.934,1110.63 681.664,1097.61 693.393,1083.31 705.123,1068.04 716.853,1051.93 
  728.582,1034.75 740.312,1015.87 752.041,994.352 763.771,969.187 775.501,939.5 787.23,904.768 798.96,864.944 810.69,820.503 822.419,772.434 834.149,722.162 
  845.878,671.428 857.608,622.1 869.338,575.946 881.067,534.386 892.797,498.278 904.526,467.783 916.256,442.324 927.986,420.697 939.715,401.289 951.445,382.409 
  963.174,362.64 974.904,341.145 986.634,317.818 998.363,293.242 1010.09,268.475 1021.82,244.726 1033.55,223.028 1045.28,204.013 1057.01,187.809 1068.74,174.074 
  1080.47,162.116 1092.2,151.084 1103.93,140.189 1115.66,128.945 1127.39,117.381 1139.12,106.162 1150.85,96.5593 1162.58,90.2454 1174.31,88.9544 1186.04,94.1096 
  1197.77,106.522 1209.5,126.23 1221.23,152.497 1232.96,183.928 1244.68,218.648 1256.41,254.524 1268.14,289.387 1279.87,321.272 1291.6,348.645 1303.33,370.582 
  1315.06,386.864 1326.79,397.954 1338.52,404.863 1350.25,408.939 1361.98,411.649 1373.71,414.403 1385.44,418.469 1397.17,424.956 1408.9,434.83 1420.63,448.925 
  1432.36,467.877 1444.09,492.009 1455.82,521.164 1467.55,554.587 1479.28,590.902 1491.01,628.245 1502.74,664.569 1514.47,698.033 1526.2,727.398 1537.93,752.283 
  1549.65,773.214 1561.38,791.44 1573.11,808.58 1584.84,826.198 1596.57,845.443 1608.3,866.822 1620.03,890.138 1631.76,914.604 1643.49,939.058 1655.22,962.263 
  1666.95,983.193 1678.68,1001.27 1690.41,1016.47 1702.14,1029.3 1713.87,1040.67 1725.6,1051.65 1737.33,1063.24 1749.06,1076.26 1760.79,1091.2 1772.52,1108.24 
  
  "/>
<path clip-path="url(#clip722)" d="
M1772.52 1108.24 L1777.73 1116.44 L1782.94 1125 L1788.16 1133.87 L1793.37 1142.98 L1798.58 1152.28 L1803.8 1161.69 L1809.01 1171.15 L1814.22 1180.58 L1819.44 1189.91 
  L1824.65 1199.07 L1829.86 1208 L1835.08 1216.64 L1840.29 1224.96 L1845.5 1232.92 L1850.72 1240.52 L1855.93 1247.73 L1861.14 1254.59 L1866.36 1261.09 L1871.57 1267.27 
  L1876.78 1273.17 L1882 1278.82 L1887.21 1284.27 L1892.42 1289.55 L1897.64 1294.72 L1902.85 1299.82 L1908.06 1304.88 L1913.28 1309.93 L1918.49 1315.01 L1923.7 1320.13 
  L1928.92 1325.32 L1934.13 1330.58 L1939.34 1335.9 L1944.55 1341.29 L1949.77 1346.72 L1954.98 1352.17 L1960.19 1357.61 L1965.41 1363.01 L1970.62 1368.33 L1975.83 1373.54 
  L1981.05 1378.59 L1986.26 1383.46 L1991.47 1388.11 L1996.69 1392.53 L2001.9 1396.7 L2007.11 1400.61 L2012.33 1404.28 L2017.54 1407.7 L2022.75 1410.91 L2027.97 1413.92 
  L2033.18 1416.77 L2038.39 1419.48 L2043.61 1422.08 L2048.82 1424.61 L2054.03 1427.09 L2059.25 1429.54 L2064.46 1431.98 L2069.67 1434.4 L2074.89 1436.81 L2080.1 1439.21 
  L2085.31 1441.57 L2090.53 1443.89 L2095.74 1446.13 L2100.95 1448.28 L2106.17 1450.3 L2111.38 1452.19 L2116.59 1453.91 L2121.81 1455.45 L2127.02 1456.79 L2132.23 1457.94 
  L2137.45 1458.88 L2142.66 1459.63 L2147.87 1460.19 L2153.09 1460.58 L2158.3 1460.82 L2163.51 1460.93 L2168.73 1460.95 L2173.94 1460.9 L2179.15 1460.8 L2184.37 1460.69 
  L2189.58 1460.58 L2194.79 1460.5 L2200 1460.47 L2205.22 1460.49 L2210.43 1460.57 L2215.64 1460.72 L2220.86 1460.94 L2226.07 1461.23 L2231.28 1461.57 L2236.5 1461.96 
  L2241.71 1462.4 L2246.92 1462.87 L2252.14 1463.37 L2257.35 1463.9 L2262.56 1464.44 L2267.78 1465.01 L2272.99 1465.59 L2278.2 1466.18 L2283.42 1466.79 L2288.63 1467.42 
  L2288.63 1479.3 L2283.42 1479.3 L2278.2 1479.3 L2272.99 1479.3 L2267.78 1479.3 L2262.56 1479.3 L2257.35 1479.3 L2252.14 1479.3 L2246.92 1479.3 L2241.71 1479.3 
  L2236.5 1479.3 L2231.28 1479.3 L2226.07 1479.3 L2220.86 1479.3 L2215.64 1479.3 L2210.43 1479.3 L2205.22 1479.3 L2200 1479.3 L2194.79 1479.3 L2189.58 1479.3 
  L2184.37 1479.3 L2179.15 1479.3 L2173.94 1479.3 L2168.73 1479.3 L2163.51 1479.3 L2158.3 1479.3 L2153.09 1479.3 L2147.87 1479.3 L2142.66 1479.3 L2137.45 1479.3 
  L2132.23 1479.3 L2127.02 1479.3 L2121.81 1479.3 L2116.59 1479.3 L2111.38 1479.3 L2106.17 1479.3 L2100.95 1479.3 L2095.74 1479.3 L2090.53 1479.3 L2085.31 1479.3 
  L2080.1 1479.3 L2074.89 1479.3 L2069.67 1479.3 L2064.46 1479.3 L2059.25 1479.3 L2054.03 1479.3 L2048.82 1479.3 L2043.61 1479.3 L2038.39 1479.3 L2033.18 1479.3 
  L2027.97 1479.3 L2022.75 1479.3 L2017.54 1479.3 L2012.33 1479.3 L2007.11 1479.3 L2001.9 1479.3 L1996.69 1479.3 L1991.47 1479.3 L1986.26 1479.3 L1981.05 1479.3 
  L1975.83 1479.3 L1970.62 1479.3 L1965.41 1479.3 L1960.19 1479.3 L1954.98 1479.3 L1949.77 1479.3 L1944.55 1479.3 L1939.34 1479.3 L1934.13 1479.3 L1928.92 1479.3 
  L1923.7 1479.3 L1918.49 1479.3 L1913.28 1479.3 L1908.06 1479.3 L1902.85 1479.3 L1897.64 1479.3 L1892.42 1479.3 L1887.21 1479.3 L1882 1479.3 L1876.78 1479.3 
  L1871.57 1479.3 L1866.36 1479.3 L1861.14 1479.3 L1855.93 1479.3 L1850.72 1479.3 L1845.5 1479.3 L1840.29 1479.3 L1835.08 1479.3 L1829.86 1479.3 L1824.65 1479.3 
  L1819.44 1479.3 L1814.22 1479.3 L1809.01 1479.3 L1803.8 1479.3 L1798.58 1479.3 L1793.37 1479.3 L1788.16 1479.3 L1782.94 1479.3 L1777.73 1479.3 L1772.52 1479.3 
   Z
  " fill="#ffa500" fill-rule="evenodd" fill-opacity="0.5"/>
<polyline clip-path="url(#clip722)" style="stroke:#ffa500; stroke-width:4; stroke-opacity:1; fill:none" points="
  1772.52,1108.24 1777.73,1116.44 1782.94,1125 1788.16,1133.87 1793.37,1142.98 1798.58,1152.28 1803.8,1161.69 1809.01,1171.15 1814.22,1180.58 1819.44,1189.91 
  1824.65,1199.07 1829.86,1208 1835.08,1216.64 1840.29,1224.96 1845.5,1232.92 1850.72,1240.52 1855.93,1247.73 1861.14,1254.59 1866.36,1261.09 1871.57,1267.27 
  1876.78,1273.17 1882,1278.82 1887.21,1284.27 1892.42,1289.55 1897.64,1294.72 1902.85,1299.82 1908.06,1304.88 1913.28,1309.93 1918.49,1315.01 1923.7,1320.13 
  1928.92,1325.32 1934.13,1330.58 1939.34,1335.9 1944.55,1341.29 1949.77,1346.72 1954.98,1352.17 1960.19,1357.61 1965.41,1363.01 1970.62,1368.33 1975.83,1373.54 
  1981.05,1378.59 1986.26,1383.46 1991.47,1388.11 1996.69,1392.53 2001.9,1396.7 2007.11,1400.61 2012.33,1404.28 2017.54,1407.7 2022.75,1410.91 2027.97,1413.92 
  2033.18,1416.77 2038.39,1419.48 2043.61,1422.08 2048.82,1424.61 2054.03,1427.09 2059.25,1429.54 2064.46,1431.98 2069.67,1434.4 2074.89,1436.81 2080.1,1439.21 
  2085.31,1441.57 2090.53,1443.89 2095.74,1446.13 2100.95,1448.28 2106.17,1450.3 2111.38,1452.19 2116.59,1453.91 2121.81,1455.45 2127.02,1456.79 2132.23,1457.94 
  2137.45,1458.88 2142.66,1459.63 2147.87,1460.19 2153.09,1460.58 2158.3,1460.82 2163.51,1460.93 2168.73,1460.95 2173.94,1460.9 2179.15,1460.8 2184.37,1460.69 
  2189.58,1460.58 2194.79,1460.5 2200,1460.47 2205.22,1460.49 2210.43,1460.57 2215.64,1460.72 2220.86,1460.94 2226.07,1461.23 2231.28,1461.57 2236.5,1461.96 
  2241.71,1462.4 2246.92,1462.87 2252.14,1463.37 2257.35,1463.9 2262.56,1464.44 2267.78,1465.01 2272.99,1465.59 2278.2,1466.18 2283.42,1466.79 2288.63,1467.42 
  
  "/>
<polyline clip-path="url(#clip722)" style="stroke:#0000ff; stroke-width:4; stroke-opacity:1; fill:none" points="
  1189.3,1479.3 1189.3,96.8161 
  "/>
<polyline clip-path="url(#clip722)" style="stroke:#000000; stroke-width:4; stroke-opacity:1; fill:none" points="
  1177.1,1479.3 1177.1,89.5563 
  "/>
<path clip-path="url(#clip720)" d="
M1494.58 459.25 L2277.23 459.25 L2277.23 96.3696 L1494.58 96.3696  Z
  " fill="#ffffff" fill-rule="evenodd" fill-opacity="1"/>
<polyline clip-path="url(#clip720)" style="stroke:#000000; stroke-width:4; stroke-opacity:1; fill:none" points="
  1494.58,459.25 2277.23,459.25 2277.23,96.3696 1494.58,96.3696 1494.58,459.25 
  "/>
<path clip-path="url(#clip720)" d="
M1519.75 181.042 L1670.81 181.042 L1670.81 132.658 L1519.75 132.658 L1519.75 181.042  Z
  " fill="#ffa500" fill-rule="evenodd" fill-opacity="0.5"/>
<polyline clip-path="url(#clip720)" style="stroke:#ffa500; stroke-width:4; stroke-opacity:1; fill:none" points="
  1519.75,132.658 1670.81,132.658 
  "/>
<path clip-path="url(#clip720)" d="M 0 0 M1700.38 161.19 Q1700.38 165.889 1702.3 168.574 Q1704.24 171.236 1707.62 171.236 Q1711 171.236 1712.95 168.574 Q1714.89 165.889 1714.89 161.19 Q1714.89 156.491 1712.95 153.829 Q1711 151.144 1707.62 151.144 Q1704.24 151.144 1702.3 153.829 Q1700.38 156.491 1700.38 161.19 M1714.89 170.241 Q1713.55 172.555 1711.49 173.69 Q1709.45 174.801 1706.58 174.801 Q1701.88 174.801 1698.92 171.051 Q1695.98 167.301 1695.98 161.19 Q1695.98 155.079 1698.92 151.329 Q1701.88 147.579 1706.58 147.579 Q1709.45 147.579 1711.49 148.713 Q1713.55 149.824 1714.89 152.139 L1714.89 148.204 L1719.15 148.204 L1719.15 183.991 L1714.89 183.991 L1714.89 170.241 Z" fill="#000000" fill-rule="evenodd" fill-opacity="1" /><path clip-path="url(#clip720)" d="M 0 0 M1734.22 142.648 Q1730.61 142.648 1728.78 146.213 Q1726.98 149.755 1726.98 156.884 Q1726.98 163.991 1728.78 167.556 Q1730.61 171.097 1734.22 171.097 Q1737.85 171.097 1739.66 167.556 Q1741.49 163.991 1741.49 156.884 Q1741.49 149.755 1739.66 146.213 Q1737.85 142.648 1734.22 142.648 M1734.22 138.945 Q1740.03 138.945 1743.09 143.551 Q1746.17 148.134 1746.17 156.884 Q1746.17 165.611 1743.09 170.218 Q1740.03 174.801 1734.22 174.801 Q1728.41 174.801 1725.33 170.218 Q1722.28 165.611 1722.28 156.884 Q1722.28 148.134 1725.33 143.551 Q1728.41 138.945 1734.22 138.945 Z" fill="#000000" fill-rule="evenodd" fill-opacity="1" /><path clip-path="url(#clip720)" d="M 0 0 M1751.28 139.57 L1769.64 139.57 L1769.64 143.505 L1755.56 143.505 L1755.56 151.977 Q1756.58 151.63 1757.6 151.468 Q1758.62 151.282 1759.64 151.282 Q1765.42 151.282 1768.8 154.454 Q1772.18 157.625 1772.18 163.042 Q1772.18 168.62 1768.71 171.722 Q1765.24 174.801 1758.92 174.801 Q1756.74 174.801 1754.48 174.43 Q1752.23 174.06 1749.82 173.319 L1749.82 168.62 Q1751.91 169.755 1754.13 170.31 Q1756.35 170.866 1758.83 170.866 Q1762.83 170.866 1765.17 168.759 Q1767.51 166.653 1767.51 163.042 Q1767.51 159.431 1765.17 157.324 Q1762.83 155.218 1758.83 155.218 Q1756.95 155.218 1755.08 155.634 Q1753.23 156.051 1751.28 156.931 L1751.28 139.57 Z" fill="#000000" fill-rule="evenodd" fill-opacity="1" /><path clip-path="url(#clip720)" d="
M1519.75 241.522 L1670.81 241.522 L1670.81 193.138 L1519.75 193.138 L1519.75 241.522  Z
  " fill="#008000" fill-rule="evenodd" fill-opacity="0.5"/>
<polyline clip-path="url(#clip720)" style="stroke:#008000; stroke-width:4; stroke-opacity:1; fill:none" points="
  1519.75,193.138 1670.81,193.138 
  "/>
<path clip-path="url(#clip720)" d="M 0 0 M1698.2 233.892 L1698.2 229.633 Q1699.96 230.466 1701.77 230.906 Q1703.57 231.346 1705.31 231.346 Q1709.94 231.346 1712.37 228.244 Q1714.82 225.119 1715.17 218.776 Q1713.83 220.767 1711.77 221.832 Q1709.71 222.897 1707.21 222.897 Q1702.02 222.897 1698.99 219.772 Q1695.98 216.624 1695.98 211.184 Q1695.98 205.86 1699.13 202.642 Q1702.28 199.425 1707.51 199.425 Q1713.5 199.425 1716.65 204.031 Q1719.82 208.614 1719.82 217.364 Q1719.82 225.536 1715.93 230.42 Q1712.07 235.281 1705.52 235.281 Q1703.76 235.281 1701.95 234.934 Q1700.15 234.586 1698.2 233.892 M1707.51 219.239 Q1710.66 219.239 1712.48 217.086 Q1714.34 214.934 1714.34 211.184 Q1714.34 207.457 1712.48 205.304 Q1710.66 203.128 1707.51 203.128 Q1704.36 203.128 1702.51 205.304 Q1700.68 207.457 1700.68 211.184 Q1700.68 214.934 1702.51 217.086 Q1704.36 219.239 1707.51 219.239 Z" fill="#000000" fill-rule="evenodd" fill-opacity="1" /><path clip-path="url(#clip720)" d="M 0 0 M1734.89 203.128 Q1731.28 203.128 1729.45 206.693 Q1727.65 210.235 1727.65 217.364 Q1727.65 224.471 1729.45 228.036 Q1731.28 231.577 1734.89 231.577 Q1738.53 231.577 1740.33 228.036 Q1742.16 224.471 1742.16 217.364 Q1742.16 210.235 1740.33 206.693 Q1738.53 203.128 1734.89 203.128 M1734.89 199.425 Q1740.7 199.425 1743.76 204.031 Q1746.84 208.614 1746.84 217.364 Q1746.84 226.091 1743.76 230.698 Q1740.7 235.281 1734.89 235.281 Q1729.08 235.281 1726 230.698 Q1722.95 226.091 1722.95 217.364 Q1722.95 208.614 1726 204.031 Q1729.08 199.425 1734.89 199.425 Z" fill="#000000" fill-rule="evenodd" fill-opacity="1" /><path clip-path="url(#clip720)" d="M 0 0 M1781.3 219.401 Q1779.29 219.401 1778.13 221.114 Q1777 222.827 1777 225.883 Q1777 228.892 1778.13 230.628 Q1779.29 232.341 1781.3 232.341 Q1783.27 232.341 1784.41 230.628 Q1785.56 228.892 1785.56 225.883 Q1785.56 222.85 1784.41 221.137 Q1783.27 219.401 1781.3 219.401 M1781.3 216.462 Q1784.96 216.462 1787.11 219.008 Q1789.27 221.554 1789.27 225.883 Q1789.27 230.211 1787.09 232.758 Q1784.94 235.281 1781.3 235.281 Q1777.6 235.281 1775.45 232.758 Q1773.29 230.211 1773.29 225.883 Q1773.29 221.531 1775.45 219.008 Q1777.62 216.462 1781.3 216.462 M1757.42 202.364 Q1755.42 202.364 1754.27 204.1 Q1753.13 205.813 1753.13 208.823 Q1753.13 211.878 1754.27 213.591 Q1755.4 215.304 1757.42 215.304 Q1759.43 215.304 1760.56 213.591 Q1761.72 211.878 1761.72 208.823 Q1761.72 205.837 1760.56 204.1 Q1759.41 202.364 1757.42 202.364 M1778.32 199.425 L1782.02 199.425 L1760.4 235.281 L1756.7 235.281 L1778.32 199.425 M1757.42 199.425 Q1761.07 199.425 1763.25 201.971 Q1765.42 204.494 1765.42 208.823 Q1765.42 213.198 1763.25 215.721 Q1761.1 218.244 1757.42 218.244 Q1753.73 218.244 1751.58 215.721 Q1749.45 213.174 1749.45 208.823 Q1749.45 204.517 1751.6 201.971 Q1753.76 199.425 1757.42 199.425 Z" fill="#000000" fill-rule="evenodd" fill-opacity="1" /><path clip-path="url(#clip720)" d="M 0 0 M1830.35 218.961 L1830.35 234.61 L1826.1 234.61 L1826.1 219.1 Q1826.1 215.42 1824.66 213.591 Q1823.22 211.762 1820.35 211.762 Q1816.91 211.762 1814.91 213.962 Q1812.92 216.161 1812.92 219.957 L1812.92 234.61 L1808.64 234.61 L1808.64 208.684 L1812.92 208.684 L1812.92 212.712 Q1814.45 210.374 1816.51 209.216 Q1818.6 208.059 1821.3 208.059 Q1825.77 208.059 1828.06 210.837 Q1830.35 213.591 1830.35 218.961 Z" fill="#000000" fill-rule="evenodd" fill-opacity="1" /><path clip-path="url(#clip720)" d="M 0 0 M1844.87 211.67 Q1841.44 211.67 1839.45 214.355 Q1837.46 217.017 1837.46 221.67 Q1837.46 226.323 1839.43 229.008 Q1841.42 231.67 1844.87 231.67 Q1848.27 231.67 1850.26 228.985 Q1852.25 226.299 1852.25 221.67 Q1852.25 217.063 1850.26 214.378 Q1848.27 211.67 1844.87 211.67 M1844.87 208.059 Q1850.42 208.059 1853.6 211.67 Q1856.77 215.281 1856.77 221.67 Q1856.77 228.036 1853.6 231.67 Q1850.42 235.281 1844.87 235.281 Q1839.29 235.281 1836.12 231.67 Q1832.97 228.036 1832.97 221.67 Q1832.97 215.281 1836.12 211.67 Q1839.29 208.059 1844.87 208.059 Z" fill="#000000" fill-rule="evenodd" fill-opacity="1" /><path clip-path="url(#clip720)" d="M 0 0 M1882.78 218.961 L1882.78 234.61 L1878.53 234.61 L1878.53 219.1 Q1878.53 215.42 1877.09 213.591 Q1875.66 211.762 1872.78 211.762 Q1869.34 211.762 1867.35 213.962 Q1865.35 216.161 1865.35 219.957 L1865.35 234.61 L1861.07 234.61 L1861.07 208.684 L1865.35 208.684 L1865.35 212.712 Q1866.88 210.374 1868.94 209.216 Q1871.03 208.059 1873.73 208.059 Q1878.2 208.059 1880.49 210.837 Q1882.78 213.591 1882.78 218.961 Z" fill="#000000" fill-rule="evenodd" fill-opacity="1" /><path clip-path="url(#clip720)" d="M 0 0 M1885.1 219.725 L1897.58 219.725 L1897.58 223.522 L1885.1 223.522 L1885.1 219.725 Z" fill="#000000" fill-rule="evenodd" fill-opacity="1" /><path clip-path="url(#clip720)" d="M 0 0 M1917.07 212.665 Q1916.35 212.249 1915.49 212.063 Q1914.66 211.855 1913.64 211.855 Q1910.03 211.855 1908.09 214.216 Q1906.16 216.554 1906.16 220.952 L1906.16 234.61 L1901.88 234.61 L1901.88 208.684 L1906.16 208.684 L1906.16 212.712 Q1907.51 210.35 1909.66 209.216 Q1911.81 208.059 1914.89 208.059 Q1915.33 208.059 1915.86 208.128 Q1916.4 208.175 1917.04 208.29 L1917.07 212.665 Z" fill="#000000" fill-rule="evenodd" fill-opacity="1" /><path clip-path="url(#clip720)" d="M 0 0 M1942.67 220.582 L1942.67 222.665 L1923.09 222.665 Q1923.36 227.063 1925.72 229.378 Q1928.11 231.67 1932.34 231.67 Q1934.8 231.67 1937.09 231.068 Q1939.4 230.466 1941.67 229.262 L1941.67 233.29 Q1939.38 234.262 1936.97 234.772 Q1934.57 235.281 1932.09 235.281 Q1925.89 235.281 1922.25 231.67 Q1918.64 228.059 1918.64 221.901 Q1918.64 215.536 1922.07 211.809 Q1925.52 208.059 1931.35 208.059 Q1936.58 208.059 1939.61 211.438 Q1942.67 214.795 1942.67 220.582 M1938.41 219.332 Q1938.36 215.837 1936.44 213.753 Q1934.54 211.67 1931.4 211.67 Q1927.83 211.67 1925.68 213.684 Q1923.55 215.698 1923.22 219.355 L1938.41 219.332 Z" fill="#000000" fill-rule="evenodd" fill-opacity="1" /><path clip-path="url(#clip720)" d="M 0 0 M1947.14 208.684 L1951.4 208.684 L1951.4 235.073 Q1951.4 240.026 1949.5 242.248 Q1947.62 244.471 1943.43 244.471 L1941.81 244.471 L1941.81 240.86 L1942.95 240.86 Q1945.38 240.86 1946.26 239.725 Q1947.14 238.614 1947.14 235.073 L1947.14 208.684 M1947.14 198.591 L1951.4 198.591 L1951.4 203.985 L1947.14 203.985 L1947.14 198.591 Z" fill="#000000" fill-rule="evenodd" fill-opacity="1" /><path clip-path="url(#clip720)" d="M 0 0 M1978.04 220.582 L1978.04 222.665 L1958.46 222.665 Q1958.73 227.063 1961.09 229.378 Q1963.48 231.67 1967.71 231.67 Q1970.17 231.67 1972.46 231.068 Q1974.78 230.466 1977.04 229.262 L1977.04 233.29 Q1974.75 234.262 1972.34 234.772 Q1969.94 235.281 1967.46 235.281 Q1961.26 235.281 1957.62 231.67 Q1954.01 228.059 1954.01 221.901 Q1954.01 215.536 1957.44 211.809 Q1960.89 208.059 1966.72 208.059 Q1971.95 208.059 1974.98 211.438 Q1978.04 214.795 1978.04 220.582 M1973.78 219.332 Q1973.73 215.837 1971.81 213.753 Q1969.91 211.67 1966.77 211.67 Q1963.2 211.67 1961.05 213.684 Q1958.92 215.698 1958.59 219.355 L1973.78 219.332 Z" fill="#000000" fill-rule="evenodd" fill-opacity="1" /><path clip-path="url(#clip720)" d="M 0 0 M2001.16 209.679 L2001.16 213.661 Q1999.36 212.665 1997.53 212.179 Q1995.72 211.67 1993.87 211.67 Q1989.73 211.67 1987.44 214.309 Q1985.15 216.924 1985.15 221.67 Q1985.15 226.415 1987.44 229.054 Q1989.73 231.67 1993.87 231.67 Q1995.72 231.67 1997.53 231.184 Q1999.36 230.674 2001.16 229.679 L2001.16 233.614 Q1999.38 234.448 1997.46 234.864 Q1995.56 235.281 1993.41 235.281 Q1987.55 235.281 1984.1 231.6 Q1980.65 227.92 1980.65 221.67 Q1980.65 215.327 1984.13 211.693 Q1987.62 208.059 1993.69 208.059 Q1995.65 208.059 1997.53 208.475 Q1999.4 208.869 2001.16 209.679 Z" fill="#000000" fill-rule="evenodd" fill-opacity="1" /><path clip-path="url(#clip720)" d="M 0 0 M2009.84 201.323 L2009.84 208.684 L2018.62 208.684 L2018.62 211.994 L2009.84 211.994 L2009.84 226.068 Q2009.84 229.239 2010.7 230.142 Q2011.58 231.045 2014.24 231.045 L2018.62 231.045 L2018.62 234.61 L2014.24 234.61 Q2009.31 234.61 2007.44 232.781 Q2005.56 230.929 2005.56 226.068 L2005.56 211.994 L2002.44 211.994 L2002.44 208.684 L2005.56 208.684 L2005.56 201.323 L2009.84 201.323 Z" fill="#000000" fill-rule="evenodd" fill-opacity="1" /><path clip-path="url(#clip720)" d="M 0 0 M2023.08 208.684 L2027.34 208.684 L2027.34 234.61 L2023.08 234.61 L2023.08 208.684 M2023.08 198.591 L2027.34 198.591 L2027.34 203.985 L2023.08 203.985 L2023.08 198.591 Z" fill="#000000" fill-rule="evenodd" fill-opacity="1" /><path clip-path="url(#clip720)" d="M 0 0 M2041.86 211.67 Q2038.43 211.67 2036.44 214.355 Q2034.45 217.017 2034.45 221.67 Q2034.45 226.323 2036.42 229.008 Q2038.41 231.67 2041.86 231.67 Q2045.26 231.67 2047.25 228.985 Q2049.24 226.299 2049.24 221.67 Q2049.24 217.063 2047.25 214.378 Q2045.26 211.67 2041.86 211.67 M2041.86 208.059 Q2047.41 208.059 2050.58 211.67 Q2053.76 215.281 2053.76 221.67 Q2053.76 228.036 2050.58 231.67 Q2047.41 235.281 2041.86 235.281 Q2036.28 235.281 2033.11 231.67 Q2029.96 228.036 2029.96 221.67 Q2029.96 215.281 2033.11 211.67 Q2036.28 208.059 2041.86 208.059 Z" fill="#000000" fill-rule="evenodd" fill-opacity="1" /><path clip-path="url(#clip720)" d="M 0 0 M2079.77 218.961 L2079.77 234.61 L2075.52 234.61 L2075.52 219.1 Q2075.52 215.42 2074.08 213.591 Q2072.64 211.762 2069.77 211.762 Q2066.33 211.762 2064.33 213.962 Q2062.34 216.161 2062.34 219.957 L2062.34 234.61 L2058.06 234.61 L2058.06 208.684 L2062.34 208.684 L2062.34 212.712 Q2063.87 210.374 2065.93 209.216 Q2068.02 208.059 2070.72 208.059 Q2075.19 208.059 2077.48 210.837 Q2079.77 213.591 2079.77 218.961 Z" fill="#000000" fill-rule="evenodd" fill-opacity="1" /><path clip-path="url(#clip720)" d="M 0 0 M2114.33 212.665 Q2113.62 212.249 2112.76 212.063 Q2111.93 211.855 2110.91 211.855 Q2107.3 211.855 2105.35 214.216 Q2103.43 216.554 2103.43 220.952 L2103.43 234.61 L2099.15 234.61 L2099.15 208.684 L2103.43 208.684 L2103.43 212.712 Q2104.77 210.35 2106.93 209.216 Q2109.08 208.059 2112.16 208.059 Q2112.6 208.059 2113.13 208.128 Q2113.66 208.175 2114.31 208.29 L2114.33 212.665 Z" fill="#000000" fill-rule="evenodd" fill-opacity="1" /><path clip-path="url(#clip720)" d="M 0 0 M2139.94 220.582 L2139.94 222.665 L2120.35 222.665 Q2120.63 227.063 2122.99 229.378 Q2125.38 231.67 2129.61 231.67 Q2132.07 231.67 2134.36 231.068 Q2136.67 230.466 2138.94 229.262 L2138.94 233.29 Q2136.65 234.262 2134.24 234.772 Q2131.83 235.281 2129.36 235.281 Q2123.15 235.281 2119.52 231.67 Q2115.91 228.059 2115.91 221.901 Q2115.91 215.536 2119.33 211.809 Q2122.78 208.059 2128.62 208.059 Q2133.85 208.059 2136.88 211.438 Q2139.94 214.795 2139.94 220.582 M2135.68 219.332 Q2135.63 215.837 2133.71 213.753 Q2131.81 211.67 2128.66 211.67 Q2125.1 211.67 2122.95 213.684 Q2120.82 215.698 2120.49 219.355 L2135.68 219.332 Z" fill="#000000" fill-rule="evenodd" fill-opacity="1" /><path clip-path="url(#clip720)" d="M 0 0 M2161.46 221.346 Q2161.46 216.716 2159.54 214.17 Q2157.64 211.624 2154.2 211.624 Q2150.77 211.624 2148.85 214.17 Q2146.95 216.716 2146.95 221.346 Q2146.95 225.952 2148.85 228.498 Q2150.77 231.045 2154.2 231.045 Q2157.64 231.045 2159.54 228.498 Q2161.46 225.952 2161.46 221.346 M2165.72 231.392 Q2165.72 238.012 2162.78 241.23 Q2159.84 244.471 2153.78 244.471 Q2151.53 244.471 2149.54 244.123 Q2147.55 243.799 2145.68 243.105 L2145.68 238.961 Q2147.55 239.98 2149.38 240.466 Q2151.21 240.952 2153.11 240.952 Q2157.3 240.952 2159.38 238.753 Q2161.46 236.577 2161.46 232.156 L2161.46 230.049 Q2160.14 232.341 2158.08 233.475 Q2156.02 234.61 2153.15 234.61 Q2148.39 234.61 2145.47 230.975 Q2142.55 227.341 2142.55 221.346 Q2142.55 215.327 2145.47 211.693 Q2148.39 208.059 2153.15 208.059 Q2156.02 208.059 2158.08 209.193 Q2160.14 210.327 2161.46 212.619 L2161.46 208.684 L2165.72 208.684 L2165.72 231.392 Z" fill="#000000" fill-rule="evenodd" fill-opacity="1" /><path clip-path="url(#clip720)" d="M 0 0 M2170.19 208.684 L2174.45 208.684 L2174.45 234.61 L2170.19 234.61 L2170.19 208.684 M2170.19 198.591 L2174.45 198.591 L2174.45 203.985 L2170.19 203.985 L2170.19 198.591 Z" fill="#000000" fill-rule="evenodd" fill-opacity="1" /><path clip-path="url(#clip720)" d="M 0 0 M2188.96 211.67 Q2185.54 211.67 2183.55 214.355 Q2181.56 217.017 2181.56 221.67 Q2181.56 226.323 2183.52 229.008 Q2185.51 231.67 2188.96 231.67 Q2192.37 231.67 2194.36 228.985 Q2196.35 226.299 2196.35 221.67 Q2196.35 217.063 2194.36 214.378 Q2192.37 211.67 2188.96 211.67 M2188.96 208.059 Q2194.52 208.059 2197.69 211.67 Q2200.86 215.281 2200.86 221.67 Q2200.86 228.036 2197.69 231.67 Q2194.52 235.281 2188.96 235.281 Q2183.39 235.281 2180.21 231.67 Q2177.07 228.036 2177.07 221.67 Q2177.07 215.281 2180.21 211.67 Q2183.39 208.059 2188.96 208.059 Z" fill="#000000" fill-rule="evenodd" fill-opacity="1" /><path clip-path="url(#clip720)" d="M 0 0 M2226.88 218.961 L2226.88 234.61 L2222.62 234.61 L2222.62 219.1 Q2222.62 215.42 2221.19 213.591 Q2219.75 211.762 2216.88 211.762 Q2213.43 211.762 2211.44 213.962 Q2209.45 216.161 2209.45 219.957 L2209.45 234.61 L2205.17 234.61 L2205.17 208.684 L2209.45 208.684 L2209.45 212.712 Q2210.98 210.374 2213.04 209.216 Q2215.12 208.059 2217.83 208.059 Q2222.3 208.059 2224.59 210.837 Q2226.88 213.591 2226.88 218.961 Z" fill="#000000" fill-rule="evenodd" fill-opacity="1" /><path clip-path="url(#clip720)" d="
M1519.75 302.002 L1670.81 302.002 L1670.81 253.618 L1519.75 253.618 L1519.75 302.002  Z
  " fill="#ffa500" fill-rule="evenodd" fill-opacity="0.5"/>
<polyline clip-path="url(#clip720)" style="stroke:#ffa500; stroke-width:4; stroke-opacity:1; fill:none" points="
  1519.75,253.618 1670.81,253.618 
  "/>
<path clip-path="url(#clip720)" d="M 0 0 M1700.38 282.15 Q1700.38 286.849 1702.3 289.534 Q1704.24 292.196 1707.62 292.196 Q1711 292.196 1712.95 289.534 Q1714.89 286.849 1714.89 282.15 Q1714.89 277.451 1712.95 274.789 Q1711 272.104 1707.62 272.104 Q1704.24 272.104 1702.3 274.789 Q1700.38 277.451 1700.38 282.15 M1714.89 291.201 Q1713.55 293.515 1711.49 294.65 Q1709.45 295.761 1706.58 295.761 Q1701.88 295.761 1698.92 292.011 Q1695.98 288.261 1695.98 282.15 Q1695.98 276.039 1698.92 272.289 Q1701.88 268.539 1706.58 268.539 Q1709.45 268.539 1711.49 269.673 Q1713.55 270.784 1714.89 273.099 L1714.89 269.164 L1719.15 269.164 L1719.15 304.951 L1714.89 304.951 L1714.89 291.201 Z" fill="#000000" fill-rule="evenodd" fill-opacity="1" /><path clip-path="url(#clip720)" d="M 0 0 M1724.36 294.372 L1724.36 290.113 Q1726.12 290.946 1727.92 291.386 Q1729.73 291.826 1731.47 291.826 Q1736.1 291.826 1738.53 288.724 Q1740.98 285.599 1741.33 279.256 Q1739.98 281.247 1737.92 282.312 Q1735.86 283.377 1733.36 283.377 Q1728.18 283.377 1725.15 280.252 Q1722.14 277.104 1722.14 271.664 Q1722.14 266.34 1725.29 263.122 Q1728.43 259.905 1733.67 259.905 Q1739.66 259.905 1742.81 264.511 Q1745.98 269.094 1745.98 277.844 Q1745.98 286.016 1742.09 290.9 Q1738.23 295.761 1731.67 295.761 Q1729.92 295.761 1728.11 295.414 Q1726.3 295.066 1724.36 294.372 M1733.67 279.719 Q1736.81 279.719 1738.64 277.566 Q1740.49 275.414 1740.49 271.664 Q1740.49 267.937 1738.64 265.784 Q1736.81 263.608 1733.67 263.608 Q1730.52 263.608 1728.67 265.784 Q1726.84 267.937 1726.84 271.664 Q1726.84 275.414 1728.67 277.566 Q1730.52 279.719 1733.67 279.719 Z" fill="#000000" fill-rule="evenodd" fill-opacity="1" /><path clip-path="url(#clip720)" d="M 0 0 M1751.1 260.53 L1769.45 260.53 L1769.45 264.465 L1755.38 264.465 L1755.38 272.937 Q1756.4 272.59 1757.42 272.428 Q1758.43 272.242 1759.45 272.242 Q1765.24 272.242 1768.62 275.414 Q1772 278.585 1772 284.002 Q1772 289.58 1768.53 292.682 Q1765.05 295.761 1758.73 295.761 Q1756.56 295.761 1754.29 295.39 Q1752.04 295.02 1749.64 294.279 L1749.64 289.58 Q1751.72 290.715 1753.94 291.27 Q1756.17 291.826 1758.64 291.826 Q1762.65 291.826 1764.98 289.719 Q1767.32 287.613 1767.32 284.002 Q1767.32 280.391 1764.98 278.284 Q1762.65 276.178 1758.64 276.178 Q1756.77 276.178 1754.89 276.594 Q1753.04 277.011 1751.1 277.891 L1751.1 260.53 Z" fill="#000000" fill-rule="evenodd" fill-opacity="1" /><polyline clip-path="url(#clip720)" style="stroke:#0000ff; stroke-width:4; stroke-opacity:1; fill:none" points="
  1519.75,338.29 1670.81,338.29 
  "/>
<path clip-path="url(#clip720)" d="M 0 0 M1716.33 334.621 Q1717.92 331.75 1720.15 330.385 Q1722.37 329.019 1725.38 329.019 Q1729.43 329.019 1731.63 331.866 Q1733.83 334.69 1733.83 339.921 L1733.83 355.57 L1729.54 355.57 L1729.54 340.06 Q1729.54 336.334 1728.23 334.528 Q1726.91 332.722 1724.2 332.722 Q1720.89 332.722 1718.97 334.922 Q1717.04 337.121 1717.04 340.917 L1717.04 355.57 L1712.76 355.57 L1712.76 340.06 Q1712.76 336.31 1711.44 334.528 Q1710.12 332.722 1707.37 332.722 Q1704.11 332.722 1702.18 334.945 Q1700.26 337.144 1700.26 340.917 L1700.26 355.57 L1695.98 355.57 L1695.98 329.644 L1700.26 329.644 L1700.26 333.672 Q1701.72 331.287 1703.76 330.153 Q1705.79 329.019 1708.6 329.019 Q1711.42 329.019 1713.39 330.454 Q1715.38 331.889 1716.33 334.621 Z" fill="#000000" fill-rule="evenodd" fill-opacity="1" /><path clip-path="url(#clip720)" d="M 0 0 M1760.47 341.542 L1760.47 343.625 L1740.89 343.625 Q1741.17 348.023 1743.53 350.338 Q1745.91 352.63 1750.15 352.63 Q1752.6 352.63 1754.89 352.028 Q1757.21 351.426 1759.48 350.222 L1759.48 354.25 Q1757.18 355.222 1754.78 355.732 Q1752.37 356.241 1749.89 356.241 Q1743.69 356.241 1740.05 352.63 Q1736.44 349.019 1736.44 342.861 Q1736.44 336.496 1739.87 332.769 Q1743.32 329.019 1749.15 329.019 Q1754.38 329.019 1757.42 332.398 Q1760.47 335.755 1760.47 341.542 M1756.21 340.292 Q1756.17 336.797 1754.24 334.713 Q1752.35 332.63 1749.2 332.63 Q1745.63 332.63 1743.48 334.644 Q1741.35 336.658 1741.03 340.315 L1756.21 340.292 Z" fill="#000000" fill-rule="evenodd" fill-opacity="1" /><path clip-path="url(#clip720)" d="M 0 0 M1776.72 342.537 Q1771.56 342.537 1769.57 343.718 Q1767.58 344.898 1767.58 347.746 Q1767.58 350.014 1769.06 351.357 Q1770.56 352.676 1773.13 352.676 Q1776.67 352.676 1778.8 350.176 Q1780.96 347.653 1780.96 343.486 L1780.96 342.537 L1776.72 342.537 M1785.22 340.778 L1785.22 355.57 L1780.96 355.57 L1780.96 351.634 Q1779.5 353.995 1777.32 355.13 Q1775.15 356.241 1772 356.241 Q1768.02 356.241 1765.66 354.019 Q1763.32 351.773 1763.32 348.023 Q1763.32 343.648 1766.23 341.426 Q1769.17 339.204 1774.98 339.204 L1780.96 339.204 L1780.96 338.787 Q1780.96 335.847 1779.01 334.25 Q1777.09 332.63 1773.6 332.63 Q1771.37 332.63 1769.27 333.162 Q1767.16 333.695 1765.22 334.759 L1765.22 330.824 Q1767.55 329.922 1769.75 329.482 Q1771.95 329.019 1774.04 329.019 Q1779.66 329.019 1782.44 331.935 Q1785.22 334.852 1785.22 340.778 Z" fill="#000000" fill-rule="evenodd" fill-opacity="1" /><path clip-path="url(#clip720)" d="M 0 0 M1811.23 339.921 L1811.23 355.57 L1806.97 355.57 L1806.97 340.06 Q1806.97 336.38 1805.54 334.551 Q1804.1 332.722 1801.23 332.722 Q1797.79 332.722 1795.79 334.922 Q1793.8 337.121 1793.8 340.917 L1793.8 355.57 L1789.52 355.57 L1789.52 329.644 L1793.8 329.644 L1793.8 333.672 Q1795.33 331.334 1797.39 330.176 Q1799.48 329.019 1802.18 329.019 Q1806.65 329.019 1808.94 331.797 Q1811.23 334.551 1811.23 339.921 Z" fill="#000000" fill-rule="evenodd" fill-opacity="1" /><polyline clip-path="url(#clip720)" style="stroke:#000000; stroke-width:4; stroke-opacity:1; fill:none" points="
  1519.75,398.77 1670.81,398.77 
  "/>
<path clip-path="url(#clip720)" d="M 0 0 M1716.33 395.101 Q1717.92 392.23 1720.15 390.865 Q1722.37 389.499 1725.38 389.499 Q1729.43 389.499 1731.63 392.346 Q1733.83 395.17 1733.83 400.401 L1733.83 416.05 L1729.54 416.05 L1729.54 400.54 Q1729.54 396.814 1728.23 395.008 Q1726.91 393.202 1724.2 393.202 Q1720.89 393.202 1718.97 395.402 Q1717.04 397.601 1717.04 401.397 L1717.04 416.05 L1712.76 416.05 L1712.76 400.54 Q1712.76 396.79 1711.44 395.008 Q1710.12 393.202 1707.37 393.202 Q1704.11 393.202 1702.18 395.425 Q1700.26 397.624 1700.26 401.397 L1700.26 416.05 L1695.98 416.05 L1695.98 390.124 L1700.26 390.124 L1700.26 394.152 Q1701.72 391.767 1703.76 390.633 Q1705.79 389.499 1708.6 389.499 Q1711.42 389.499 1713.39 390.934 Q1715.38 392.369 1716.33 395.101 Z" fill="#000000" fill-rule="evenodd" fill-opacity="1" /><path clip-path="url(#clip720)" d="M 0 0 M1760.47 402.022 L1760.47 404.105 L1740.89 404.105 Q1741.17 408.503 1743.53 410.818 Q1745.91 413.11 1750.15 413.11 Q1752.6 413.11 1754.89 412.508 Q1757.21 411.906 1759.48 410.702 L1759.48 414.73 Q1757.18 415.702 1754.78 416.212 Q1752.37 416.721 1749.89 416.721 Q1743.69 416.721 1740.05 413.11 Q1736.44 409.499 1736.44 403.341 Q1736.44 396.976 1739.87 393.249 Q1743.32 389.499 1749.15 389.499 Q1754.38 389.499 1757.42 392.878 Q1760.47 396.235 1760.47 402.022 M1756.21 400.772 Q1756.17 397.277 1754.24 395.193 Q1752.35 393.11 1749.2 393.11 Q1745.63 393.11 1743.48 395.124 Q1741.35 397.138 1741.03 400.795 L1756.21 400.772 Z" fill="#000000" fill-rule="evenodd" fill-opacity="1" /><path clip-path="url(#clip720)" d="M 0 0 M1782 394.059 L1782 380.031 L1786.26 380.031 L1786.26 416.05 L1782 416.05 L1782 412.161 Q1780.66 414.475 1778.6 415.61 Q1776.56 416.721 1773.69 416.721 Q1768.99 416.721 1766.03 412.971 Q1763.09 409.221 1763.09 403.11 Q1763.09 396.999 1766.03 393.249 Q1768.99 389.499 1773.69 389.499 Q1776.56 389.499 1778.6 390.633 Q1780.66 391.744 1782 394.059 M1767.48 403.11 Q1767.48 407.809 1769.41 410.494 Q1771.35 413.156 1774.73 413.156 Q1778.11 413.156 1780.05 410.494 Q1782 407.809 1782 403.11 Q1782 398.411 1780.05 395.749 Q1778.11 393.064 1774.73 393.064 Q1771.35 393.064 1769.41 395.749 Q1767.48 398.411 1767.48 403.11 Z" fill="#000000" fill-rule="evenodd" fill-opacity="1" /><path clip-path="url(#clip720)" d="M 0 0 M1790.73 390.124 L1794.98 390.124 L1794.98 416.05 L1790.73 416.05 L1790.73 390.124 M1790.73 380.031 L1794.98 380.031 L1794.98 385.425 L1790.73 385.425 L1790.73 380.031 Z" fill="#000000" fill-rule="evenodd" fill-opacity="1" /><path clip-path="url(#clip720)" d="M 0 0 M1811.23 403.017 Q1806.07 403.017 1804.08 404.198 Q1802.09 405.378 1802.09 408.226 Q1802.09 410.494 1803.57 411.837 Q1805.08 413.156 1807.65 413.156 Q1811.19 413.156 1813.32 410.656 Q1815.47 408.133 1815.47 403.966 L1815.47 403.017 L1811.23 403.017 M1819.73 401.258 L1819.73 416.05 L1815.47 416.05 L1815.47 412.114 Q1814.01 414.475 1811.84 415.61 Q1809.66 416.721 1806.51 416.721 Q1802.53 416.721 1800.17 414.499 Q1797.83 412.253 1797.83 408.503 Q1797.83 404.128 1800.75 401.906 Q1803.69 399.684 1809.5 399.684 L1815.47 399.684 L1815.47 399.267 Q1815.47 396.327 1813.53 394.73 Q1811.6 393.11 1808.11 393.11 Q1805.89 393.11 1803.78 393.642 Q1801.67 394.175 1799.73 395.239 L1799.73 391.304 Q1802.07 390.402 1804.27 389.962 Q1806.47 389.499 1808.55 389.499 Q1814.17 389.499 1816.95 392.415 Q1819.73 395.332 1819.73 401.258 Z" fill="#000000" fill-rule="evenodd" fill-opacity="1" /><path clip-path="url(#clip720)" d="M 0 0 M1845.75 400.401 L1845.75 416.05 L1841.49 416.05 L1841.49 400.54 Q1841.49 396.86 1840.05 395.031 Q1838.62 393.202 1835.75 393.202 Q1832.3 393.202 1830.31 395.402 Q1828.32 397.601 1828.32 401.397 L1828.32 416.05 L1824.04 416.05 L1824.04 390.124 L1828.32 390.124 L1828.32 394.152 Q1829.85 391.814 1831.91 390.656 Q1833.99 389.499 1836.7 389.499 Q1841.16 389.499 1843.46 392.277 Q1845.75 395.031 1845.75 400.401 Z" fill="#000000" fill-rule="evenodd" fill-opacity="1" /></svg>
