<?xml version="1.0" encoding="utf-8"?>
<svg xmlns="http://www.w3.org/2000/svg" xmlns:xlink="http://www.w3.org/1999/xlink" width="600" height="400" viewBox="0 0 2400 1600">
<defs>
  <clipPath id="clip320">
    <rect x="0" y="0" width="2400" height="1600"/>
  </clipPath>
</defs>
<path clip-path="url(#clip320)" d="
M0 1600 L2400 1600 L2400 0 L0 0  Z
  " fill="#ffffff" fill-rule="evenodd" fill-opacity="1"/>
<defs>
  <clipPath id="clip321">
    <rect x="480" y="0" width="1681" height="1600"/>
  </clipPath>
</defs>
<path clip-path="url(#clip320)" d="
M86.9921 1521.01 L2352.76 1521.01 L2352.76 47.2441 L86.9921 47.2441  Z
  " fill="#ffffff" fill-rule="evenodd" fill-opacity="1"/>
<defs>
  <clipPath id="clip322">
    <rect x="86" y="47" width="2267" height="1475"/>
  </clipPath>
</defs>
<polyline clip-path="url(#clip322)" style="stroke:#000000; stroke-width:2; stroke-opacity:0.1; fill:none" points="
  150.648,1521.01 150.648,47.2441 
  "/>
<polyline clip-path="url(#clip322)" style="stroke:#000000; stroke-width:2; stroke-opacity:0.1; fill:none" points="
  573.689,1521.01 573.689,47.2441 
  "/>
<polyline clip-path="url(#clip322)" style="stroke:#000000; stroke-width:2; stroke-opacity:0.1; fill:none" points="
  996.73,1521.01 996.73,47.2441 
  "/>
<polyline clip-path="url(#clip322)" style="stroke:#000000; stroke-width:2; stroke-opacity:0.1; fill:none" points="
  1419.77,1521.01 1419.77,47.2441 
  "/>
<polyline clip-path="url(#clip322)" style="stroke:#000000; stroke-width:2; stroke-opacity:0.1; fill:none" points="
  1842.81,1521.01 1842.81,47.2441 
  "/>
<polyline clip-path="url(#clip322)" style="stroke:#000000; stroke-width:2; stroke-opacity:0.1; fill:none" points="
  2265.85,1521.01 2265.85,47.2441 
  "/>
<polyline clip-path="url(#clip322)" style="stroke:#000000; stroke-width:2; stroke-opacity:0.1; fill:none" points="
  86.9921,1479.3 2352.76,1479.3 
  "/>
<polyline clip-path="url(#clip322)" style="stroke:#000000; stroke-width:2; stroke-opacity:0.1; fill:none" points="
  86.9921,1221.14 2352.76,1221.14 
  "/>
<polyline clip-path="url(#clip322)" style="stroke:#000000; stroke-width:2; stroke-opacity:0.1; fill:none" points="
  86.9921,962.99 2352.76,962.99 
  "/>
<polyline clip-path="url(#clip322)" style="stroke:#000000; stroke-width:2; stroke-opacity:0.1; fill:none" points="
  86.9921,704.836 2352.76,704.836 
  "/>
<polyline clip-path="url(#clip322)" style="stroke:#000000; stroke-width:2; stroke-opacity:0.1; fill:none" points="
  86.9921,446.682 2352.76,446.682 
  "/>
<polyline clip-path="url(#clip322)" style="stroke:#000000; stroke-width:2; stroke-opacity:0.1; fill:none" points="
  86.9921,188.528 2352.76,188.528 
  "/>
<polyline clip-path="url(#clip320)" style="stroke:#000000; stroke-width:4; stroke-opacity:1; fill:none" points="
  86.9921,1521.01 2352.76,1521.01 
  "/>
<polyline clip-path="url(#clip320)" style="stroke:#000000; stroke-width:4; stroke-opacity:1; fill:none" points="
  86.9921,1521.01 86.9921,47.2441 
  "/>
<polyline clip-path="url(#clip320)" style="stroke:#000000; stroke-width:4; stroke-opacity:1; fill:none" points="
  150.648,1521.01 150.648,1503.32 
  "/>
<polyline clip-path="url(#clip320)" style="stroke:#000000; stroke-width:4; stroke-opacity:1; fill:none" points="
  573.689,1521.01 573.689,1503.32 
  "/>
<polyline clip-path="url(#clip320)" style="stroke:#000000; stroke-width:4; stroke-opacity:1; fill:none" points="
  996.73,1521.01 996.73,1503.32 
  "/>
<polyline clip-path="url(#clip320)" style="stroke:#000000; stroke-width:4; stroke-opacity:1; fill:none" points="
  1419.77,1521.01 1419.77,1503.32 
  "/>
<polyline clip-path="url(#clip320)" style="stroke:#000000; stroke-width:4; stroke-opacity:1; fill:none" points="
  1842.81,1521.01 1842.81,1503.32 
  "/>
<polyline clip-path="url(#clip320)" style="stroke:#000000; stroke-width:4; stroke-opacity:1; fill:none" points="
  2265.85,1521.01 2265.85,1503.32 
  "/>
<polyline clip-path="url(#clip320)" style="stroke:#000000; stroke-width:4; stroke-opacity:1; fill:none" points="
  86.9921,1479.3 114.181,1479.3 
  "/>
<polyline clip-path="url(#clip320)" style="stroke:#000000; stroke-width:4; stroke-opacity:1; fill:none" points="
  86.9921,1221.14 114.181,1221.14 
  "/>
<polyline clip-path="url(#clip320)" style="stroke:#000000; stroke-width:4; stroke-opacity:1; fill:none" points="
  86.9921,962.99 114.181,962.99 
  "/>
<polyline clip-path="url(#clip320)" style="stroke:#000000; stroke-width:4; stroke-opacity:1; fill:none" points="
  86.9921,704.836 114.181,704.836 
  "/>
<polyline clip-path="url(#clip320)" style="stroke:#000000; stroke-width:4; stroke-opacity:1; fill:none" points="
  86.9921,446.682 114.181,446.682 
  "/>
<polyline clip-path="url(#clip320)" style="stroke:#000000; stroke-width:4; stroke-opacity:1; fill:none" points="
  86.9921,188.528 114.181,188.528 
  "/>
<path clip-path="url(#clip320)" d="M 0 0 M99.711 1559.6 L112.188 1559.6 L112.188 1563.39 L99.711 1563.39 L99.711 1559.6 Z" fill="#000000" fill-rule="evenodd" fill-opacity="1" /><path clip-path="url(#clip320)" d="M 0 0 M127.257 1543 Q123.646 1543 121.817 1546.56 Q120.012 1550.11 120.012 1557.23 Q120.012 1564.34 121.817 1567.91 Q123.646 1571.45 127.257 1571.45 Q130.891 1571.45 132.697 1567.91 Q134.526 1564.34 134.526 1557.23 Q134.526 1550.11 132.697 1546.56 Q130.891 1543 127.257 1543 M127.257 1539.29 Q133.067 1539.29 136.123 1543.9 Q139.201 1548.48 139.201 1557.23 Q139.201 1565.96 136.123 1570.57 Q133.067 1575.15 127.257 1575.15 Q121.447 1575.15 118.368 1570.57 Q115.313 1565.96 115.313 1557.23 Q115.313 1548.48 118.368 1543.9 Q121.447 1539.29 127.257 1539.29 Z" fill="#000000" fill-rule="evenodd" fill-opacity="1" /><path clip-path="url(#clip320)" d="M 0 0 M144.271 1568.6 L149.155 1568.6 L149.155 1574.48 L144.271 1574.48 L144.271 1568.6 Z" fill="#000000" fill-rule="evenodd" fill-opacity="1" /><path clip-path="url(#clip320)" d="M 0 0 M164.224 1543 Q160.613 1543 158.785 1546.56 Q156.979 1550.11 156.979 1557.23 Q156.979 1564.34 158.785 1567.91 Q160.613 1571.45 164.224 1571.45 Q167.859 1571.45 169.664 1567.91 Q171.493 1564.34 171.493 1557.23 Q171.493 1550.11 169.664 1546.56 Q167.859 1543 164.224 1543 M164.224 1539.29 Q170.035 1539.29 173.09 1543.9 Q176.169 1548.48 176.169 1557.23 Q176.169 1565.96 173.09 1570.57 Q170.035 1575.15 164.224 1575.15 Q158.414 1575.15 155.336 1570.57 Q152.28 1565.96 152.28 1557.23 Q152.28 1548.48 155.336 1543.9 Q158.414 1539.29 164.224 1539.29 Z" fill="#000000" fill-rule="evenodd" fill-opacity="1" /><path clip-path="url(#clip320)" d="M 0 0 M185.266 1570.54 L201.585 1570.54 L201.585 1574.48 L179.641 1574.48 L179.641 1570.54 Q182.303 1567.79 186.886 1563.16 Q191.493 1558.51 192.673 1557.17 Q194.919 1554.64 195.798 1552.91 Q196.701 1551.15 196.701 1549.46 Q196.701 1546.7 194.757 1544.97 Q192.835 1543.23 189.734 1543.23 Q187.535 1543.23 185.081 1543.99 Q182.65 1544.76 179.873 1546.31 L179.873 1541.59 Q182.697 1540.45 185.15 1539.87 Q187.604 1539.29 189.641 1539.29 Q195.011 1539.29 198.206 1541.98 Q201.4 1544.67 201.4 1549.16 Q201.4 1551.29 200.59 1553.21 Q199.803 1555.1 197.697 1557.7 Q197.118 1558.37 194.016 1561.59 Q190.914 1564.78 185.266 1570.54 Z" fill="#000000" fill-rule="evenodd" fill-opacity="1" /><path clip-path="url(#clip320)" d="M 0 0 M522.567 1559.6 L535.043 1559.6 L535.043 1563.39 L522.567 1563.39 L522.567 1559.6 Z" fill="#000000" fill-rule="evenodd" fill-opacity="1" /><path clip-path="url(#clip320)" d="M 0 0 M550.113 1543 Q546.502 1543 544.673 1546.56 Q542.867 1550.11 542.867 1557.23 Q542.867 1564.34 544.673 1567.91 Q546.502 1571.45 550.113 1571.45 Q553.747 1571.45 555.552 1567.91 Q557.381 1564.34 557.381 1557.23 Q557.381 1550.11 555.552 1546.56 Q553.747 1543 550.113 1543 M550.113 1539.29 Q555.923 1539.29 558.978 1543.9 Q562.057 1548.48 562.057 1557.23 Q562.057 1565.96 558.978 1570.57 Q555.923 1575.15 550.113 1575.15 Q544.303 1575.15 541.224 1570.57 Q538.168 1565.96 538.168 1557.23 Q538.168 1548.48 541.224 1543.9 Q544.303 1539.29 550.113 1539.29 Z" fill="#000000" fill-rule="evenodd" fill-opacity="1" /><path clip-path="url(#clip320)" d="M 0 0 M567.126 1568.6 L572.011 1568.6 L572.011 1574.48 L567.126 1574.48 L567.126 1568.6 Z" fill="#000000" fill-rule="evenodd" fill-opacity="1" /><path clip-path="url(#clip320)" d="M 0 0 M587.08 1543 Q583.469 1543 581.64 1546.56 Q579.835 1550.11 579.835 1557.23 Q579.835 1564.34 581.64 1567.91 Q583.469 1571.45 587.08 1571.45 Q590.714 1571.45 592.52 1567.91 Q594.349 1564.34 594.349 1557.23 Q594.349 1550.11 592.52 1546.56 Q590.714 1543 587.08 1543 M587.08 1539.29 Q592.89 1539.29 595.946 1543.9 Q599.024 1548.48 599.024 1557.23 Q599.024 1565.96 595.946 1570.57 Q592.89 1575.15 587.08 1575.15 Q581.27 1575.15 578.191 1570.57 Q575.136 1565.96 575.136 1557.23 Q575.136 1548.48 578.191 1543.9 Q581.27 1539.29 587.08 1539.29 Z" fill="#000000" fill-rule="evenodd" fill-opacity="1" /><path clip-path="url(#clip320)" d="M 0 0 M604.904 1570.54 L612.543 1570.54 L612.543 1544.18 L604.233 1545.85 L604.233 1541.59 L612.497 1539.92 L617.172 1539.92 L617.172 1570.54 L624.811 1570.54 L624.811 1574.48 L604.904 1574.48 L604.904 1570.54 Z" fill="#000000" fill-rule="evenodd" fill-opacity="1" /><path clip-path="url(#clip320)" d="M 0 0 M964.739 1543 Q961.128 1543 959.299 1546.56 Q957.494 1550.11 957.494 1557.23 Q957.494 1564.34 959.299 1567.91 Q961.128 1571.45 964.739 1571.45 Q968.373 1571.45 970.179 1567.91 Q972.008 1564.34 972.008 1557.23 Q972.008 1550.11 970.179 1546.56 Q968.373 1543 964.739 1543 M964.739 1539.29 Q970.549 1539.29 973.605 1543.9 Q976.683 1548.48 976.683 1557.23 Q976.683 1565.96 973.605 1570.57 Q970.549 1575.15 964.739 1575.15 Q958.929 1575.15 955.85 1570.57 Q952.795 1565.96 952.795 1557.23 Q952.795 1548.48 955.85 1543.9 Q958.929 1539.29 964.739 1539.29 Z" fill="#000000" fill-rule="evenodd" fill-opacity="1" /><path clip-path="url(#clip320)" d="M 0 0 M981.753 1568.6 L986.637 1568.6 L986.637 1574.48 L981.753 1574.48 L981.753 1568.6 Z" fill="#000000" fill-rule="evenodd" fill-opacity="1" /><path clip-path="url(#clip320)" d="M 0 0 M1001.71 1543 Q998.095 1543 996.267 1546.56 Q994.461 1550.11 994.461 1557.23 Q994.461 1564.34 996.267 1567.91 Q998.095 1571.45 1001.71 1571.45 Q1005.34 1571.45 1007.15 1567.91 Q1008.97 1564.34 1008.97 1557.23 Q1008.97 1550.11 1007.15 1546.56 Q1005.34 1543 1001.71 1543 M1001.71 1539.29 Q1007.52 1539.29 1010.57 1543.9 Q1013.65 1548.48 1013.65 1557.23 Q1013.65 1565.96 1010.57 1570.57 Q1007.52 1575.15 1001.71 1575.15 Q995.896 1575.15 992.818 1570.57 Q989.762 1565.96 989.762 1557.23 Q989.762 1548.48 992.818 1543.9 Q995.896 1539.29 1001.71 1539.29 Z" fill="#000000" fill-rule="evenodd" fill-opacity="1" /><path clip-path="url(#clip320)" d="M 0 0 M1028.72 1543 Q1025.11 1543 1023.28 1546.56 Q1021.47 1550.11 1021.47 1557.23 Q1021.47 1564.34 1023.28 1567.91 Q1025.11 1571.45 1028.72 1571.45 Q1032.35 1571.45 1034.16 1567.91 Q1035.99 1564.34 1035.99 1557.23 Q1035.99 1550.11 1034.16 1546.56 Q1032.35 1543 1028.72 1543 M1028.72 1539.29 Q1034.53 1539.29 1037.59 1543.9 Q1040.66 1548.48 1040.66 1557.23 Q1040.66 1565.96 1037.59 1570.57 Q1034.53 1575.15 1028.72 1575.15 Q1022.91 1575.15 1019.83 1570.57 Q1016.78 1565.96 1016.78 1557.23 Q1016.78 1548.48 1019.83 1543.9 Q1022.91 1539.29 1028.72 1539.29 Z" fill="#000000" fill-rule="evenodd" fill-opacity="1" /><path clip-path="url(#clip320)" d="M 0 0 M1388.39 1543 Q1384.78 1543 1382.95 1546.56 Q1381.15 1550.11 1381.15 1557.23 Q1381.15 1564.34 1382.95 1567.91 Q1384.78 1571.45 1388.39 1571.45 Q1392.03 1571.45 1393.83 1567.91 Q1395.66 1564.34 1395.66 1557.23 Q1395.66 1550.11 1393.83 1546.56 Q1392.03 1543 1388.39 1543 M1388.39 1539.29 Q1394.2 1539.29 1397.26 1543.9 Q1400.34 1548.48 1400.34 1557.23 Q1400.34 1565.96 1397.26 1570.57 Q1394.2 1575.15 1388.39 1575.15 Q1382.58 1575.15 1379.5 1570.57 Q1376.45 1565.96 1376.45 1557.23 Q1376.45 1548.48 1379.5 1543.9 Q1382.58 1539.29 1388.39 1539.29 Z" fill="#000000" fill-rule="evenodd" fill-opacity="1" /><path clip-path="url(#clip320)" d="M 0 0 M1405.41 1568.6 L1410.29 1568.6 L1410.29 1574.48 L1405.41 1574.48 L1405.41 1568.6 Z" fill="#000000" fill-rule="evenodd" fill-opacity="1" /><path clip-path="url(#clip320)" d="M 0 0 M1425.36 1543 Q1421.75 1543 1419.92 1546.56 Q1418.12 1550.11 1418.12 1557.23 Q1418.12 1564.34 1419.92 1567.91 Q1421.75 1571.45 1425.36 1571.45 Q1428.99 1571.45 1430.8 1567.91 Q1432.63 1564.34 1432.63 1557.23 Q1432.63 1550.11 1430.8 1546.56 Q1428.99 1543 1425.36 1543 M1425.36 1539.29 Q1431.17 1539.29 1434.23 1543.9 Q1437.31 1548.48 1437.31 1557.23 Q1437.31 1565.96 1434.23 1570.57 Q1431.17 1575.15 1425.36 1575.15 Q1419.55 1575.15 1416.47 1570.57 Q1413.42 1565.96 1413.42 1557.23 Q1413.42 1548.48 1416.47 1543.9 Q1419.55 1539.29 1425.36 1539.29 Z" fill="#000000" fill-rule="evenodd" fill-opacity="1" /><path clip-path="url(#clip320)" d="M 0 0 M1443.18 1570.54 L1450.82 1570.54 L1450.82 1544.18 L1442.51 1545.85 L1442.51 1541.59 L1450.78 1539.92 L1455.45 1539.92 L1455.45 1570.54 L1463.09 1570.54 L1463.09 1574.48 L1443.18 1574.48 L1443.18 1570.54 Z" fill="#000000" fill-rule="evenodd" fill-opacity="1" /><path clip-path="url(#clip320)" d="M 0 0 M1811.62 1543 Q1808.01 1543 1806.18 1546.56 Q1804.37 1550.11 1804.37 1557.23 Q1804.37 1564.34 1806.18 1567.91 Q1808.01 1571.45 1811.62 1571.45 Q1815.25 1571.45 1817.06 1567.91 Q1818.89 1564.34 1818.89 1557.23 Q1818.89 1550.11 1817.06 1546.56 Q1815.25 1543 1811.62 1543 M1811.62 1539.29 Q1817.43 1539.29 1820.48 1543.9 Q1823.56 1548.48 1823.56 1557.23 Q1823.56 1565.96 1820.48 1570.57 Q1817.43 1575.15 1811.62 1575.15 Q1805.81 1575.15 1802.73 1570.57 Q1799.67 1565.96 1799.67 1557.23 Q1799.67 1548.48 1802.73 1543.9 Q1805.81 1539.29 1811.62 1539.29 Z" fill="#000000" fill-rule="evenodd" fill-opacity="1" /><path clip-path="url(#clip320)" d="M 0 0 M1828.63 1568.6 L1833.52 1568.6 L1833.52 1574.48 L1828.63 1574.48 L1828.63 1568.6 Z" fill="#000000" fill-rule="evenodd" fill-opacity="1" /><path clip-path="url(#clip320)" d="M 0 0 M1848.59 1543 Q1844.98 1543 1843.15 1546.56 Q1841.34 1550.11 1841.34 1557.23 Q1841.34 1564.34 1843.15 1567.91 Q1844.98 1571.45 1848.59 1571.45 Q1852.22 1571.45 1854.03 1567.91 Q1855.86 1564.34 1855.86 1557.23 Q1855.86 1550.11 1854.03 1546.56 Q1852.22 1543 1848.59 1543 M1848.59 1539.29 Q1854.4 1539.29 1857.45 1543.9 Q1860.53 1548.48 1860.53 1557.23 Q1860.53 1565.96 1857.45 1570.57 Q1854.4 1575.15 1848.59 1575.15 Q1842.78 1575.15 1839.7 1570.57 Q1836.64 1565.96 1836.64 1557.23 Q1836.64 1548.48 1839.7 1543.9 Q1842.78 1539.29 1848.59 1539.29 Z" fill="#000000" fill-rule="evenodd" fill-opacity="1" /><path clip-path="url(#clip320)" d="M 0 0 M1869.63 1570.54 L1885.95 1570.54 L1885.95 1574.48 L1864 1574.48 L1864 1570.54 Q1866.67 1567.79 1871.25 1563.16 Q1875.85 1558.51 1877.04 1557.17 Q1879.28 1554.64 1880.16 1552.91 Q1881.06 1551.15 1881.06 1549.46 Q1881.06 1546.7 1879.12 1544.97 Q1877.2 1543.23 1874.1 1543.23 Q1871.9 1543.23 1869.44 1543.99 Q1867.01 1544.76 1864.23 1546.31 L1864.23 1541.59 Q1867.06 1540.45 1869.51 1539.87 Q1871.97 1539.29 1874 1539.29 Q1879.37 1539.29 1882.57 1541.98 Q1885.76 1544.67 1885.76 1549.16 Q1885.76 1551.29 1884.95 1553.21 Q1884.17 1555.1 1882.06 1557.7 Q1881.48 1558.37 1878.38 1561.59 Q1875.28 1564.78 1869.63 1570.54 Z" fill="#000000" fill-rule="evenodd" fill-opacity="1" /><path clip-path="url(#clip320)" d="M 0 0 M2234.19 1543 Q2230.57 1543 2228.75 1546.56 Q2226.94 1550.11 2226.94 1557.23 Q2226.94 1564.34 2228.75 1567.91 Q2230.57 1571.45 2234.19 1571.45 Q2237.82 1571.45 2239.63 1567.91 Q2241.45 1564.34 2241.45 1557.23 Q2241.45 1550.11 2239.63 1546.56 Q2237.82 1543 2234.19 1543 M2234.19 1539.29 Q2240 1539.29 2243.05 1543.9 Q2246.13 1548.48 2246.13 1557.23 Q2246.13 1565.96 2243.05 1570.57 Q2240 1575.15 2234.19 1575.15 Q2228.38 1575.15 2225.3 1570.57 Q2222.24 1565.96 2222.24 1557.23 Q2222.24 1548.48 2225.3 1543.9 Q2228.38 1539.29 2234.19 1539.29 Z" fill="#000000" fill-rule="evenodd" fill-opacity="1" /><path clip-path="url(#clip320)" d="M 0 0 M2251.2 1568.6 L2256.08 1568.6 L2256.08 1574.48 L2251.2 1574.48 L2251.2 1568.6 Z" fill="#000000" fill-rule="evenodd" fill-opacity="1" /><path clip-path="url(#clip320)" d="M 0 0 M2271.15 1543 Q2267.54 1543 2265.71 1546.56 Q2263.91 1550.11 2263.91 1557.23 Q2263.91 1564.34 2265.71 1567.91 Q2267.54 1571.45 2271.15 1571.45 Q2274.79 1571.45 2276.59 1567.91 Q2278.42 1564.34 2278.42 1557.23 Q2278.42 1550.11 2276.59 1546.56 Q2274.79 1543 2271.15 1543 M2271.15 1539.29 Q2276.96 1539.29 2280.02 1543.9 Q2283.1 1548.48 2283.1 1557.23 Q2283.1 1565.96 2280.02 1570.57 Q2276.96 1575.15 2271.15 1575.15 Q2265.34 1575.15 2262.26 1570.57 Q2259.21 1565.96 2259.21 1557.23 Q2259.21 1548.48 2262.26 1543.9 Q2265.34 1539.29 2271.15 1539.29 Z" fill="#000000" fill-rule="evenodd" fill-opacity="1" /><path clip-path="url(#clip320)" d="M 0 0 M2302.33 1555.85 Q2305.69 1556.56 2307.56 1558.83 Q2309.46 1561.1 2309.46 1564.43 Q2309.46 1569.55 2305.94 1572.35 Q2302.43 1575.15 2295.94 1575.15 Q2293.77 1575.15 2291.45 1574.71 Q2289.16 1574.29 2286.71 1573.44 L2286.71 1568.92 Q2288.65 1570.06 2290.97 1570.64 Q2293.28 1571.22 2295.81 1571.22 Q2300.2 1571.22 2302.5 1569.48 Q2304.81 1567.74 2304.81 1564.43 Q2304.81 1561.38 2302.66 1559.67 Q2300.53 1557.93 2296.71 1557.93 L2292.68 1557.93 L2292.68 1554.09 L2296.89 1554.09 Q2300.34 1554.09 2302.17 1552.72 Q2304 1551.33 2304 1548.74 Q2304 1546.08 2302.1 1544.67 Q2300.23 1543.23 2296.71 1543.23 Q2294.79 1543.23 2292.59 1543.65 Q2290.39 1544.06 2287.75 1544.94 L2287.75 1540.78 Q2290.41 1540.04 2292.73 1539.67 Q2295.06 1539.29 2297.12 1539.29 Q2302.45 1539.29 2305.55 1541.73 Q2308.65 1544.13 2308.65 1548.25 Q2308.65 1551.12 2307.01 1553.11 Q2305.37 1555.08 2302.33 1555.85 Z" fill="#000000" fill-rule="evenodd" fill-opacity="1" /><path clip-path="url(#clip320)" d="M 0 0 M51.0477 1465.1 Q47.4367 1465.1 45.608 1468.66 Q43.8024 1472.2 43.8024 1479.33 Q43.8024 1486.44 45.608 1490 Q47.4367 1493.55 51.0477 1493.55 Q54.682 1493.55 56.4875 1490 Q58.3162 1486.44 58.3162 1479.33 Q58.3162 1472.2 56.4875 1468.66 Q54.682 1465.1 51.0477 1465.1 M51.0477 1461.39 Q56.8579 1461.39 59.9134 1466 Q62.9921 1470.58 62.9921 1479.33 Q62.9921 1488.06 59.9134 1492.67 Q56.8579 1497.25 51.0477 1497.25 Q45.2376 1497.25 42.1589 1492.67 Q39.1034 1488.06 39.1034 1479.33 Q39.1034 1470.58 42.1589 1466 Q45.2376 1461.39 51.0477 1461.39 Z" fill="#000000" fill-rule="evenodd" fill-opacity="1" /><path clip-path="url(#clip320)" d="M 0 0 M16.0711 1234.49 L23.7099 1234.49 L23.7099 1208.12 L15.3998 1209.79 L15.3998 1205.53 L23.6636 1203.86 L28.3395 1203.86 L28.3395 1234.49 L35.9784 1234.49 L35.9784 1238.42 L16.0711 1238.42 L16.0711 1234.49 Z" fill="#000000" fill-rule="evenodd" fill-opacity="1" /><path clip-path="url(#clip320)" d="M 0 0 M51.0477 1206.94 Q47.4367 1206.94 45.608 1210.51 Q43.8024 1214.05 43.8024 1221.18 Q43.8024 1228.28 45.608 1231.85 Q47.4367 1235.39 51.0477 1235.39 Q54.682 1235.39 56.4875 1231.85 Q58.3162 1228.28 58.3162 1221.18 Q58.3162 1214.05 56.4875 1210.51 Q54.682 1206.94 51.0477 1206.94 M51.0477 1203.24 Q56.8579 1203.24 59.9134 1207.85 Q62.9921 1212.43 62.9921 1221.18 Q62.9921 1229.91 59.9134 1234.51 Q56.8579 1239.1 51.0477 1239.1 Q45.2376 1239.1 42.1589 1234.51 Q39.1034 1229.91 39.1034 1221.18 Q39.1034 1212.43 42.1589 1207.85 Q45.2376 1203.24 51.0477 1203.24 Z" fill="#000000" fill-rule="evenodd" fill-opacity="1" /><path clip-path="url(#clip320)" d="M 0 0 M19.659 976.335 L35.9784 976.335 L35.9784 980.27 L14.0341 980.27 L14.0341 976.335 Q16.6961 973.58 21.2794 968.95 Q25.8858 964.298 27.0664 962.955 Q29.3118 960.432 30.1914 958.696 Q31.0941 956.937 31.0941 955.247 Q31.0941 952.492 29.1497 950.756 Q27.2284 949.02 24.1266 949.02 Q21.9275 949.02 19.4738 949.784 Q17.0433 950.548 14.2655 952.099 L14.2655 947.377 Q17.0896 946.242 19.5433 945.664 Q21.997 945.085 24.034 945.085 Q29.4043 945.085 32.5988 947.77 Q35.7932 950.455 35.7932 954.946 Q35.7932 957.076 34.983 958.997 Q34.196 960.895 32.0895 963.488 Q31.5108 964.159 28.409 967.376 Q25.3071 970.571 19.659 976.335 Z" fill="#000000" fill-rule="evenodd" fill-opacity="1" /><path clip-path="url(#clip320)" d="M 0 0 M51.0477 948.789 Q47.4367 948.789 45.608 952.353 Q43.8024 955.895 43.8024 963.025 Q43.8024 970.131 45.608 973.696 Q47.4367 977.237 51.0477 977.237 Q54.682 977.237 56.4875 973.696 Q58.3162 970.131 58.3162 963.025 Q58.3162 955.895 56.4875 952.353 Q54.682 948.789 51.0477 948.789 M51.0477 945.085 Q56.8579 945.085 59.9134 949.691 Q62.9921 954.275 62.9921 963.025 Q62.9921 971.751 59.9134 976.358 Q56.8579 980.941 51.0477 980.941 Q45.2376 980.941 42.1589 976.358 Q39.1034 971.751 39.1034 963.025 Q39.1034 954.275 42.1589 949.691 Q45.2376 945.085 51.0477 945.085 Z" fill="#000000" fill-rule="evenodd" fill-opacity="1" /><path clip-path="url(#clip320)" d="M 0 0 M28.8488 703.482 Q32.2053 704.199 34.0802 706.468 Q35.9784 708.736 35.9784 712.07 Q35.9784 717.185 32.4599 719.986 Q28.9414 722.787 22.4599 722.787 Q20.284 722.787 17.9692 722.347 Q15.6776 721.931 13.2239 721.074 L13.2239 716.56 Q15.1683 717.695 17.4831 718.273 Q19.7979 718.852 22.321 718.852 Q26.7192 718.852 29.0108 717.116 Q31.3256 715.38 31.3256 712.07 Q31.3256 709.014 29.1729 707.301 Q27.0432 705.565 23.2238 705.565 L19.1961 705.565 L19.1961 701.723 L23.409 701.723 Q26.8581 701.723 28.6868 700.357 Q30.5154 698.968 30.5154 696.375 Q30.5154 693.713 28.6173 692.301 Q26.7423 690.866 23.2238 690.866 Q21.3025 690.866 19.1035 691.283 Q16.9044 691.699 14.2655 692.579 L14.2655 688.412 Q16.9276 687.672 19.2424 687.301 Q21.5803 686.931 23.6405 686.931 Q28.9645 686.931 32.0664 689.362 Q35.1682 691.769 35.1682 695.889 Q35.1682 698.76 33.5247 700.75 Q31.8812 702.718 28.8488 703.482 Z" fill="#000000" fill-rule="evenodd" fill-opacity="1" /><path clip-path="url(#clip320)" d="M 0 0 M51.0477 690.635 Q47.4367 690.635 45.608 694.199 Q43.8024 697.741 43.8024 704.871 Q43.8024 711.977 45.608 715.542 Q47.4367 719.084 51.0477 719.084 Q54.682 719.084 56.4875 715.542 Q58.3162 711.977 58.3162 704.871 Q58.3162 697.741 56.4875 694.199 Q54.682 690.635 51.0477 690.635 M51.0477 686.931 Q56.8579 686.931 59.9134 691.537 Q62.9921 696.121 62.9921 704.871 Q62.9921 713.598 59.9134 718.204 Q56.8579 722.787 51.0477 722.787 Q45.2376 722.787 42.1589 718.204 Q39.1034 713.598 39.1034 704.871 Q39.1034 696.121 42.1589 691.537 Q45.2376 686.931 51.0477 686.931 Z" fill="#000000" fill-rule="evenodd" fill-opacity="1" /><path clip-path="url(#clip320)" d="M 0 0 M26.3951 433.476 L14.5896 451.925 L26.3951 451.925 L26.3951 433.476 M25.1683 429.402 L31.0479 429.402 L31.0479 451.925 L35.9784 451.925 L35.9784 455.814 L31.0479 455.814 L31.0479 463.962 L26.3951 463.962 L26.3951 455.814 L10.7933 455.814 L10.7933 451.3 L25.1683 429.402 Z" fill="#000000" fill-rule="evenodd" fill-opacity="1" /><path clip-path="url(#clip320)" d="M 0 0 M51.0477 432.481 Q47.4367 432.481 45.608 436.046 Q43.8024 439.587 43.8024 446.717 Q43.8024 453.823 45.608 457.388 Q47.4367 460.93 51.0477 460.93 Q54.682 460.93 56.4875 457.388 Q58.3162 453.823 58.3162 446.717 Q58.3162 439.587 56.4875 436.046 Q54.682 432.481 51.0477 432.481 M51.0477 428.777 Q56.8579 428.777 59.9134 433.384 Q62.9921 437.967 62.9921 446.717 Q62.9921 455.444 59.9134 460.05 Q56.8579 464.633 51.0477 464.633 Q45.2376 464.633 42.1589 460.05 Q39.1034 455.444 39.1034 446.717 Q39.1034 437.967 42.1589 433.384 Q45.2376 428.777 51.0477 428.777 Z" fill="#000000" fill-rule="evenodd" fill-opacity="1" /><path clip-path="url(#clip320)" d="M 0 0 M15.0757 171.248 L33.4321 171.248 L33.4321 175.183 L19.3581 175.183 L19.3581 183.656 Q20.3766 183.308 21.3951 183.146 Q22.4136 182.961 23.4322 182.961 Q29.2192 182.961 32.5988 186.132 Q35.9784 189.304 35.9784 194.72 Q35.9784 200.299 32.5062 203.401 Q29.034 206.48 22.7146 206.48 Q20.5386 206.48 18.2701 206.109 Q16.0248 205.739 13.6174 204.998 L13.6174 200.299 Q15.7007 201.433 17.9229 201.989 Q20.1451 202.544 22.622 202.544 Q26.6266 202.544 28.9645 200.438 Q31.3025 198.331 31.3025 194.72 Q31.3025 191.109 28.9645 189.003 Q26.6266 186.896 22.622 186.896 Q20.747 186.896 18.872 187.313 Q17.0202 187.73 15.0757 188.609 L15.0757 171.248 Z" fill="#000000" fill-rule="evenodd" fill-opacity="1" /><path clip-path="url(#clip320)" d="M 0 0 M51.0477 174.327 Q47.4367 174.327 45.608 177.892 Q43.8024 181.433 43.8024 188.563 Q43.8024 195.669 45.608 199.234 Q47.4367 202.776 51.0477 202.776 Q54.682 202.776 56.4875 199.234 Q58.3162 195.669 58.3162 188.563 Q58.3162 181.433 56.4875 177.892 Q54.682 174.327 51.0477 174.327 M51.0477 170.623 Q56.8579 170.623 59.9134 175.23 Q62.9921 179.813 62.9921 188.563 Q62.9921 197.29 59.9134 201.896 Q56.8579 206.48 51.0477 206.48 Q45.2376 206.48 42.1589 201.896 Q39.1034 197.29 39.1034 188.563 Q39.1034 179.813 42.1589 175.23 Q45.2376 170.623 51.0477 170.623 Z" fill="#000000" fill-rule="evenodd" fill-opacity="1" /><path clip-path="url(#clip322)" d="
M151.118 1413.92 L154.507 1409.56 L157.897 1405.13 L161.286 1400.65 L164.676 1396.13 L168.065 1391.59 L171.455 1387.05 L174.845 1382.54 L178.234 1378.07 L181.624 1373.66 
  L185.013 1369.34 L188.403 1365.11 L191.792 1360.99 L195.182 1357.01 L198.572 1353.17 L201.961 1349.49 L205.351 1345.98 L208.74 1342.65 L212.13 1339.51 L215.52 1336.56 
  L218.909 1333.8 L222.299 1331.25 L225.688 1328.89 L229.078 1326.73 L232.467 1324.77 L235.857 1322.99 L239.247 1321.4 L242.636 1319.98 L246.026 1318.73 L249.415 1317.63 
  L252.805 1316.68 L256.195 1315.86 L259.584 1315.17 L262.974 1314.59 L266.363 1314.11 L269.753 1313.73 L273.142 1313.42 L276.532 1313.18 L279.922 1313.01 L283.311 1312.89 
  L286.701 1312.81 L290.09 1312.78 L293.48 1312.77 L296.87 1312.8 L300.259 1312.85 L303.649 1312.93 L307.038 1313.02 L310.428 1313.13 L313.817 1313.25 L317.207 1313.39 
  L320.597 1313.54 L323.986 1313.69 L327.376 1313.85 L330.765 1314.01 L334.155 1314.18 L337.545 1314.34 L340.934 1314.49 L344.324 1314.62 L347.713 1314.74 L351.103 1314.84 
  L354.492 1314.91 L357.882 1314.95 L361.272 1314.95 L364.661 1314.91 L368.051 1314.82 L371.44 1314.68 L374.83 1314.48 L378.219 1314.23 L381.609 1313.92 L384.999 1313.55 
  L388.388 1313.11 L391.778 1312.62 L395.167 1312.07 L398.557 1311.46 L401.947 1310.8 L405.336 1310.08 L408.726 1309.33 L412.115 1308.52 L415.505 1307.68 L418.894 1306.8 
  L422.284 1305.89 L425.674 1304.96 L429.063 1303.99 L432.453 1303 L435.842 1301.99 L439.232 1300.96 L442.622 1299.92 L446.011 1298.85 L449.401 1297.76 L452.79 1296.65 
  L456.18 1295.52 L459.569 1294.37 L462.959 1293.19 L466.349 1291.99 L469.738 1290.77 L473.128 1289.52 L476.517 1288.25 L479.907 1286.96 L483.297 1285.64 L486.686 1284.31 
  L486.686 1479.3 L483.297 1479.3 L479.907 1479.3 L476.517 1479.3 L473.128 1479.3 L469.738 1479.3 L466.349 1479.3 L462.959 1479.3 L459.569 1479.3 L456.18 1479.3 
  L452.79 1479.3 L449.401 1479.3 L446.011 1479.3 L442.622 1479.3 L439.232 1479.3 L435.842 1479.3 L432.453 1479.3 L429.063 1479.3 L425.674 1479.3 L422.284 1479.3 
  L418.894 1479.3 L415.505 1479.3 L412.115 1479.3 L408.726 1479.3 L405.336 1479.3 L401.947 1479.3 L398.557 1479.3 L395.167 1479.3 L391.778 1479.3 L388.388 1479.3 
  L384.999 1479.3 L381.609 1479.3 L378.219 1479.3 L374.83 1479.3 L371.44 1479.3 L368.051 1479.3 L364.661 1479.3 L361.272 1479.3 L357.882 1479.3 L354.492 1479.3 
  L351.103 1479.3 L347.713 1479.3 L344.324 1479.3 L340.934 1479.3 L337.545 1479.3 L334.155 1479.3 L330.765 1479.3 L327.376 1479.3 L323.986 1479.3 L320.597 1479.3 
  L317.207 1479.3 L313.817 1479.3 L310.428 1479.3 L307.038 1479.3 L303.649 1479.3 L300.259 1479.3 L296.87 1479.3 L293.48 1479.3 L290.09 1479.3 L286.701 1479.3 
  L283.311 1479.3 L279.922 1479.3 L276.532 1479.3 L273.142 1479.3 L269.753 1479.3 L266.363 1479.3 L262.974 1479.3 L259.584 1479.3 L256.195 1479.3 L252.805 1479.3 
  L249.415 1479.3 L246.026 1479.3 L242.636 1479.3 L239.247 1479.3 L235.857 1479.3 L232.467 1479.3 L229.078 1479.3 L225.688 1479.3 L222.299 1479.3 L218.909 1479.3 
  L215.52 1479.3 L212.13 1479.3 L208.74 1479.3 L205.351 1479.3 L201.961 1479.3 L198.572 1479.3 L195.182 1479.3 L191.792 1479.3 L188.403 1479.3 L185.013 1479.3 
  L181.624 1479.3 L178.234 1479.3 L174.845 1479.3 L171.455 1479.3 L168.065 1479.3 L164.676 1479.3 L161.286 1479.3 L157.897 1479.3 L154.507 1479.3 L151.118 1479.3 
   Z
  " fill="#ffa500" fill-rule="evenodd" fill-opacity="0.5"/>
<polyline clip-path="url(#clip322)" style="stroke:#ffa500; stroke-width:4; stroke-opacity:1; fill:none" points="
  151.118,1413.92 154.507,1409.56 157.897,1405.13 161.286,1400.65 164.676,1396.13 168.065,1391.59 171.455,1387.05 174.845,1382.54 178.234,1378.07 181.624,1373.66 
  185.013,1369.34 188.403,1365.11 191.792,1360.99 195.182,1357.01 198.572,1353.17 201.961,1349.49 205.351,1345.98 208.74,1342.65 212.13,1339.51 215.52,1336.56 
  218.909,1333.8 222.299,1331.25 225.688,1328.89 229.078,1326.73 232.467,1324.77 235.857,1322.99 239.247,1321.4 242.636,1319.98 246.026,1318.73 249.415,1317.63 
  252.805,1316.68 256.195,1315.86 259.584,1315.17 262.974,1314.59 266.363,1314.11 269.753,1313.73 273.142,1313.42 276.532,1313.18 279.922,1313.01 283.311,1312.89 
  286.701,1312.81 290.09,1312.78 293.48,1312.77 296.87,1312.8 300.259,1312.85 303.649,1312.93 307.038,1313.02 310.428,1313.13 313.817,1313.25 317.207,1313.39 
  320.597,1313.54 323.986,1313.69 327.376,1313.85 330.765,1314.01 334.155,1314.18 337.545,1314.34 340.934,1314.49 344.324,1314.62 347.713,1314.74 351.103,1314.84 
  354.492,1314.91 357.882,1314.95 361.272,1314.95 364.661,1314.91 368.051,1314.82 371.44,1314.68 374.83,1314.48 378.219,1314.23 381.609,1313.92 384.999,1313.55 
  388.388,1313.11 391.778,1312.62 395.167,1312.07 398.557,1311.46 401.947,1310.8 405.336,1310.08 408.726,1309.33 412.115,1308.52 415.505,1307.68 418.894,1306.8 
  422.284,1305.89 425.674,1304.96 429.063,1303.99 432.453,1303 435.842,1301.99 439.232,1300.96 442.622,1299.92 446.011,1298.85 449.401,1297.76 452.79,1296.65 
  456.18,1295.52 459.569,1294.37 462.959,1293.19 466.349,1291.99 469.738,1290.77 473.128,1289.52 476.517,1288.25 479.907,1286.96 483.297,1285.64 486.686,1284.31 
  
  "/>
<path clip-path="url(#clip322)" d="
M486.686 1284.31 L500.632 1278.76 L514.578 1273.46 L528.523 1269.08 L542.469 1266.33 L556.415 1265.7 L570.361 1267.17 L584.306 1270.12 L598.252 1273.35 L612.198 1275.51 
  L626.144 1275.5 L640.089 1272.92 L654.035 1268.12 L667.981 1262.08 L681.927 1256.02 L695.873 1250.97 L709.818 1247.53 L723.764 1245.71 L737.71 1245.06 L751.656 1244.9 
  L765.601 1244.67 L779.547 1244.12 L793.493 1243.44 L807.439 1243.1 L821.384 1243.63 L835.33 1245.32 L849.276 1248.07 L863.222 1251.36 L877.167 1254.25 L891.113 1255.41 
  L905.059 1253 L919.005 1244.66 L932.95 1227.69 L946.896 1199.56 L960.842 1158.72 L974.788 1105.43 L988.734 1042.18 L1002.68 973.37 L1016.63 904.275 L1030.57 839.6 
  L1044.52 782.235 L1058.46 732.67 L1072.41 689.23 L1086.35 648.943 L1100.3 608.611 L1114.25 565.707 L1128.19 518.879 L1142.14 468.058 L1156.08 414.262 L1170.03 359.217 
  L1183.97 304.948 L1197.92 253.417 L1211.87 206.34 L1225.81 165.224 L1239.76 131.533 L1253.7 106.784 L1267.65 92.355 L1281.59 88.9544 L1295.54 95.9705 L1309.49 111.091 
  L1323.43 130.548 L1337.38 150.062 L1351.32 166.207 L1365.27 177.633 L1379.21 185.559 L1393.16 193.234 L1407.11 204.559 L1421.05 222.497 L1435 248.05 L1448.94 280.218 
  L1462.89 316.813 L1476.84 355.51 L1490.78 394.48 L1504.73 432.35 L1518.67 467.74 L1532.62 498.888 L1546.56 523.787 L1560.51 540.801 L1574.46 549.448 L1588.4 550.857 
  L1602.35 547.622 L1616.29 543.126 L1630.24 540.621 L1644.18 542.502 L1658.13 549.995 L1672.08 563.308 L1686.02 582.059 L1699.97 605.716 L1713.91 633.865 L1727.86 666.223 
  L1741.8 702.483 L1755.75 742.131 L1769.7 784.339 L1783.64 828.008 L1797.59 871.922 L1811.53 914.973 L1825.48 956.337 L1839.43 995.534 L1853.37 1032.32 L1867.32 1066.46 
  L1867.32 1479.3 L1853.37 1479.3 L1839.43 1479.3 L1825.48 1479.3 L1811.53 1479.3 L1797.59 1479.3 L1783.64 1479.3 L1769.7 1479.3 L1755.75 1479.3 L1741.8 1479.3 
  L1727.86 1479.3 L1713.91 1479.3 L1699.97 1479.3 L1686.02 1479.3 L1672.08 1479.3 L1658.13 1479.3 L1644.18 1479.3 L1630.24 1479.3 L1616.29 1479.3 L1602.35 1479.3 
  L1588.4 1479.3 L1574.46 1479.3 L1560.51 1479.3 L1546.56 1479.3 L1532.62 1479.3 L1518.67 1479.3 L1504.73 1479.3 L1490.78 1479.3 L1476.84 1479.3 L1462.89 1479.3 
  L1448.94 1479.3 L1435 1479.3 L1421.05 1479.3 L1407.11 1479.3 L1393.16 1479.3 L1379.21 1479.3 L1365.27 1479.3 L1351.32 1479.3 L1337.38 1479.3 L1323.43 1479.3 
  L1309.49 1479.3 L1295.54 1479.3 L1281.59 1479.3 L1267.65 1479.3 L1253.7 1479.3 L1239.76 1479.3 L1225.81 1479.3 L1211.87 1479.3 L1197.92 1479.3 L1183.97 1479.3 
  L1170.03 1479.3 L1156.08 1479.3 L1142.14 1479.3 L1128.19 1479.3 L1114.25 1479.3 L1100.3 1479.3 L1086.35 1479.3 L1072.41 1479.3 L1058.46 1479.3 L1044.52 1479.3 
  L1030.57 1479.3 L1016.63 1479.3 L1002.68 1479.3 L988.734 1479.3 L974.788 1479.3 L960.842 1479.3 L946.896 1479.3 L932.95 1479.3 L919.005 1479.3 L905.059 1479.3 
  L891.113 1479.3 L877.167 1479.3 L863.222 1479.3 L849.276 1479.3 L835.33 1479.3 L821.384 1479.3 L807.439 1479.3 L793.493 1479.3 L779.547 1479.3 L765.601 1479.3 
  L751.656 1479.3 L737.71 1479.3 L723.764 1479.3 L709.818 1479.3 L695.873 1479.3 L681.927 1479.3 L667.981 1479.3 L654.035 1479.3 L640.089 1479.3 L626.144 1479.3 
  L612.198 1479.3 L598.252 1479.3 L584.306 1479.3 L570.361 1479.3 L556.415 1479.3 L542.469 1479.3 L528.523 1479.3 L514.578 1479.3 L500.632 1479.3 L486.686 1479.3 
   Z
  " fill="#008000" fill-rule="evenodd" fill-opacity="0.5"/>
<polyline clip-path="url(#clip322)" style="stroke:#008000; stroke-width:4; stroke-opacity:1; fill:none" points="
  486.686,1284.31 500.632,1278.76 514.578,1273.46 528.523,1269.08 542.469,1266.33 556.415,1265.7 570.361,1267.17 584.306,1270.12 598.252,1273.35 612.198,1275.51 
  626.144,1275.5 640.089,1272.92 654.035,1268.12 667.981,1262.08 681.927,1256.02 695.873,1250.97 709.818,1247.53 723.764,1245.71 737.71,1245.06 751.656,1244.9 
  765.601,1244.67 779.547,1244.12 793.493,1243.44 807.439,1243.1 821.384,1243.63 835.33,1245.32 849.276,1248.07 863.222,1251.36 877.167,1254.25 891.113,1255.41 
  905.059,1253 919.005,1244.66 932.95,1227.69 946.896,1199.56 960.842,1158.72 974.788,1105.43 988.734,1042.18 1002.68,973.37 1016.63,904.275 1030.57,839.6 
  1044.52,782.235 1058.46,732.67 1072.41,689.23 1086.35,648.943 1100.3,608.611 1114.25,565.707 1128.19,518.879 1142.14,468.058 1156.08,414.262 1170.03,359.217 
  1183.97,304.948 1197.92,253.417 1211.87,206.34 1225.81,165.224 1239.76,131.533 1253.7,106.784 1267.65,92.355 1281.59,88.9544 1295.54,95.9705 1309.49,111.091 
  1323.43,130.548 1337.38,150.062 1351.32,166.207 1365.27,177.633 1379.21,185.559 1393.16,193.234 1407.11,204.559 1421.05,222.497 1435,248.05 1448.94,280.218 
  1462.89,316.813 1476.84,355.51 1490.78,394.48 1504.73,432.35 1518.67,467.74 1532.62,498.888 1546.56,523.787 1560.51,540.801 1574.46,549.448 1588.4,550.857 
  1602.35,547.622 1616.29,543.126 1630.24,540.621 1644.18,542.502 1658.13,549.995 1672.08,563.308 1686.02,582.059 1699.97,605.716 1713.91,633.865 1727.86,666.223 
  1741.8,702.483 1755.75,742.131 1769.7,784.339 1783.64,828.008 1797.59,871.922 1811.53,914.973 1825.48,956.337 1839.43,995.534 1853.37,1032.32 1867.32,1066.46 
  
  "/>
<path clip-path="url(#clip322)" d="
M1867.32 1066.46 L1871.57 1076.3 L1875.83 1085.85 L1880.08 1095.1 L1884.34 1104.04 L1888.6 1112.65 L1892.85 1120.94 L1897.11 1128.89 L1901.36 1136.51 L1905.62 1143.8 
  L1909.87 1150.78 L1914.13 1157.48 L1918.38 1163.9 L1922.64 1170.1 L1926.9 1176.1 L1931.15 1181.96 L1935.41 1187.71 L1939.66 1193.4 L1943.92 1199.08 L1948.17 1204.8 
  L1952.43 1210.6 L1956.69 1216.52 L1960.94 1222.59 L1965.2 1228.82 L1969.45 1235.25 L1973.71 1241.87 L1977.96 1248.68 L1982.22 1255.68 L1986.48 1262.84 L1990.73 1270.14 
  L1994.99 1277.55 L1999.24 1285.03 L2003.5 1292.55 L2007.75 1300.06 L2012.01 1307.51 L2016.27 1314.87 L2020.52 1322.1 L2024.78 1329.17 L2029.03 1336.03 L2033.29 1342.67 
  L2037.54 1349.05 L2041.8 1355.18 L2046.06 1361.03 L2050.31 1366.6 L2054.57 1371.88 L2058.82 1376.9 L2063.08 1381.64 L2067.33 1386.13 L2071.59 1390.37 L2075.85 1394.39 
  L2080.1 1398.19 L2084.36 1401.8 L2088.61 1405.24 L2092.87 1408.5 L2097.12 1411.62 L2101.38 1414.6 L2105.64 1417.45 L2109.89 1420.18 L2114.15 1422.81 L2118.4 1425.32 
  L2122.66 1427.74 L2126.91 1430.06 L2131.17 1432.28 L2135.43 1434.41 L2139.68 1436.45 L2143.94 1438.4 L2148.19 1440.27 L2152.45 1442.06 L2156.7 1443.77 L2160.96 1445.41 
  L2165.22 1446.97 L2169.47 1448.47 L2173.73 1449.91 L2177.98 1451.29 L2182.24 1452.62 L2186.49 1453.9 L2190.75 1455.13 L2195.01 1456.32 L2199.26 1457.47 L2203.52 1458.58 
  L2207.77 1459.66 L2212.03 1460.7 L2216.28 1461.7 L2220.54 1462.66 L2224.8 1463.59 L2229.05 1464.49 L2233.31 1465.35 L2237.56 1466.18 L2241.82 1466.97 L2246.07 1467.73 
  L2250.33 1468.45 L2254.58 1469.14 L2258.84 1469.81 L2263.1 1470.44 L2267.35 1471.04 L2271.61 1471.62 L2275.86 1472.17 L2280.12 1472.7 L2284.37 1473.2 L2288.63 1473.68 
  L2288.63 1479.3 L2284.37 1479.3 L2280.12 1479.3 L2275.86 1479.3 L2271.61 1479.3 L2267.35 1479.3 L2263.1 1479.3 L2258.84 1479.3 L2254.58 1479.3 L2250.33 1479.3 
  L2246.07 1479.3 L2241.82 1479.3 L2237.56 1479.3 L2233.31 1479.3 L2229.05 1479.3 L2224.8 1479.3 L2220.54 1479.3 L2216.28 1479.3 L2212.03 1479.3 L2207.77 1479.3 
  L2203.52 1479.3 L2199.26 1479.3 L2195.01 1479.3 L2190.75 1479.3 L2186.49 1479.3 L2182.24 1479.3 L2177.98 1479.3 L2173.73 1479.3 L2169.47 1479.3 L2165.22 1479.3 
  L2160.96 1479.3 L2156.7 1479.3 L2152.45 1479.3 L2148.19 1479.3 L2143.94 1479.3 L2139.68 1479.3 L2135.43 1479.3 L2131.17 1479.3 L2126.91 1479.3 L2122.66 1479.3 
  L2118.4 1479.3 L2114.15 1479.3 L2109.89 1479.3 L2105.64 1479.3 L2101.38 1479.3 L2097.12 1479.3 L2092.87 1479.3 L2088.61 1479.3 L2084.36 1479.3 L2080.1 1479.3 
  L2075.85 1479.3 L2071.59 1479.3 L2067.33 1479.3 L2063.08 1479.3 L2058.82 1479.3 L2054.57 1479.3 L2050.31 1479.3 L2046.06 1479.3 L2041.8 1479.3 L2037.54 1479.3 
  L2033.29 1479.3 L2029.03 1479.3 L2024.78 1479.3 L2020.52 1479.3 L2016.27 1479.3 L2012.01 1479.3 L2007.75 1479.3 L2003.5 1479.3 L1999.24 1479.3 L1994.99 1479.3 
  L1990.73 1479.3 L1986.48 1479.3 L1982.22 1479.3 L1977.96 1479.3 L1973.71 1479.3 L1969.45 1479.3 L1965.2 1479.3 L1960.94 1479.3 L1956.69 1479.3 L1952.43 1479.3 
  L1948.17 1479.3 L1943.92 1479.3 L1939.66 1479.3 L1935.41 1479.3 L1931.15 1479.3 L1926.9 1479.3 L1922.64 1479.3 L1918.38 1479.3 L1914.13 1479.3 L1909.87 1479.3 
  L1905.62 1479.3 L1901.36 1479.3 L1897.11 1479.3 L1892.85 1479.3 L1888.6 1479.3 L1884.34 1479.3 L1880.08 1479.3 L1875.83 1479.3 L1871.57 1479.3 L1867.32 1479.3 
   Z
  " fill="#ffa500" fill-rule="evenodd" fill-opacity="0.5"/>
<polyline clip-path="url(#clip322)" style="stroke:#ffa500; stroke-width:4; stroke-opacity:1; fill:none" points="
  1867.32,1066.46 1871.57,1076.3 1875.83,1085.85 1880.08,1095.1 1884.34,1104.04 1888.6,1112.65 1892.85,1120.94 1897.11,1128.89 1901.36,1136.51 1905.62,1143.8 
  1909.87,1150.78 1914.13,1157.48 1918.38,1163.9 1922.64,1170.1 1926.9,1176.1 1931.15,1181.96 1935.41,1187.71 1939.66,1193.4 1943.92,1199.08 1948.17,1204.8 
  1952.43,1210.6 1956.69,1216.52 1960.94,1222.59 1965.2,1228.82 1969.45,1235.25 1973.71,1241.87 1977.96,1248.68 1982.22,1255.68 1986.48,1262.84 1990.73,1270.14 
  1994.99,1277.55 1999.24,1285.03 2003.5,1292.55 2007.75,1300.06 2012.01,1307.51 2016.27,1314.87 2020.52,1322.1 2024.78,1329.17 2029.03,1336.03 2033.29,1342.67 
  2037.54,1349.05 2041.8,1355.18 2046.06,1361.03 2050.31,1366.6 2054.57,1371.88 2058.82,1376.9 2063.08,1381.64 2067.33,1386.13 2071.59,1390.37 2075.85,1394.39 
  2080.1,1398.19 2084.36,1401.8 2088.61,1405.24 2092.87,1408.5 2097.12,1411.62 2101.38,1414.6 2105.64,1417.45 2109.89,1420.18 2114.15,1422.81 2118.4,1425.32 
  2122.66,1427.74 2126.91,1430.06 2131.17,1432.28 2135.43,1434.41 2139.68,1436.45 2143.94,1438.4 2148.19,1440.27 2152.45,1442.06 2156.7,1443.77 2160.96,1445.41 
  2165.22,1446.97 2169.47,1448.47 2173.73,1449.91 2177.98,1451.29 2182.24,1452.62 2186.49,1453.9 2190.75,1455.13 2195.01,1456.32 2199.26,1457.47 2203.52,1458.58 
  2207.77,1459.66 2212.03,1460.7 2216.28,1461.7 2220.54,1462.66 2224.8,1463.59 2229.05,1464.49 2233.31,1465.35 2237.56,1466.18 2241.82,1466.97 2246.07,1467.73 
  2250.33,1468.45 2254.58,1469.14 2258.84,1469.81 2263.1,1470.44 2267.35,1471.04 2271.61,1471.62 2275.86,1472.17 2280.12,1472.7 2284.37,1473.2 2288.63,1473.68 
  
  "/>
<polyline clip-path="url(#clip322)" style="stroke:#0000ff; stroke-width:4; stroke-opacity:1; fill:none" points="
  1310.48,1479.3 1310.48,112.383 
  "/>
<polyline clip-path="url(#clip322)" style="stroke:#000000; stroke-width:4; stroke-opacity:1; fill:none" points="
  1340.96,1479.3 1340.96,154.628 
  "/>
<path clip-path="url(#clip320)" d="
M1494.58 459.25 L2277.23 459.25 L2277.23 96.3696 L1494.58 96.3696  Z
  " fill="#ffffff" fill-rule="evenodd" fill-opacity="1"/>
<polyline clip-path="url(#clip320)" style="stroke:#000000; stroke-width:4; stroke-opacity:1; fill:none" points="
  1494.58,459.25 2277.23,459.25 2277.23,96.3696 1494.58,96.3696 1494.58,459.25 
  "/>
<path clip-path="url(#clip320)" d="
M1519.75 181.042 L1670.81 181.042 L1670.81 132.658 L1519.75 132.658 L1519.75 181.042  Z
  " fill="#ffa500" fill-rule="evenodd" fill-opacity="0.5"/>
<polyline clip-path="url(#clip320)" style="stroke:#ffa500; stroke-width:4; stroke-opacity:1; fill:none" points="
  1519.75,132.658 1670.81,132.658 
  "/>
<path clip-path="url(#clip320)" d="M 0 0 M1700.38 161.19 Q1700.38 165.889 1702.3 168.574 Q1704.24 171.236 1707.62 171.236 Q1711 171.236 1712.95 168.574 Q1714.89 165.889 1714.89 161.19 Q1714.89 156.491 1712.95 153.829 Q1711 151.144 1707.62 151.144 Q1704.24 151.144 1702.3 153.829 Q1700.38 156.491 1700.38 161.19 M1714.89 170.241 Q1713.55 172.555 1711.49 173.69 Q1709.45 174.801 1706.58 174.801 Q1701.88 174.801 1698.92 171.051 Q1695.98 167.301 1695.98 161.19 Q1695.98 155.079 1698.92 151.329 Q1701.88 147.579 1706.58 147.579 Q1709.45 147.579 1711.49 148.713 Q1713.55 149.824 1714.89 152.139 L1714.89 148.204 L1719.15 148.204 L1719.15 183.991 L1714.89 183.991 L1714.89 170.241 Z" fill="#000000" fill-rule="evenodd" fill-opacity="1" /><path clip-path="url(#clip320)" d="M 0 0 M1734.22 142.648 Q1730.61 142.648 1728.78 146.213 Q1726.98 149.755 1726.98 156.884 Q1726.98 163.991 1728.78 167.556 Q1730.61 171.097 1734.22 171.097 Q1737.85 171.097 1739.66 167.556 Q1741.49 163.991 1741.49 156.884 Q1741.49 149.755 1739.66 146.213 Q1737.85 142.648 1734.22 142.648 M1734.22 138.945 Q1740.03 138.945 1743.09 143.551 Q1746.17 148.134 1746.17 156.884 Q1746.17 165.611 1743.09 170.218 Q1740.03 174.801 1734.22 174.801 Q1728.41 174.801 1725.33 170.218 Q1722.28 165.611 1722.28 156.884 Q1722.28 148.134 1725.33 143.551 Q1728.41 138.945 1734.22 138.945 Z" fill="#000000" fill-rule="evenodd" fill-opacity="1" /><path clip-path="url(#clip320)" d="M 0 0 M1751.28 139.57 L1769.64 139.57 L1769.64 143.505 L1755.56 143.505 L1755.56 151.977 Q1756.58 151.63 1757.6 151.468 Q1758.62 151.282 1759.64 151.282 Q1765.42 151.282 1768.8 154.454 Q1772.18 157.625 1772.18 163.042 Q1772.18 168.62 1768.71 171.722 Q1765.24 174.801 1758.92 174.801 Q1756.74 174.801 1754.48 174.43 Q1752.23 174.06 1749.82 173.319 L1749.82 168.62 Q1751.91 169.755 1754.13 170.31 Q1756.35 170.866 1758.83 170.866 Q1762.83 170.866 1765.17 168.759 Q1767.51 166.653 1767.51 163.042 Q1767.51 159.431 1765.17 157.324 Q1762.83 155.218 1758.83 155.218 Q1756.95 155.218 1755.08 155.634 Q1753.23 156.051 1751.28 156.931 L1751.28 139.57 Z" fill="#000000" fill-rule="evenodd" fill-opacity="1" /><path clip-path="url(#clip320)" d="
M1519.75 241.522 L1670.81 241.522 L1670.81 193.138 L1519.75 193.138 L1519.75 241.522  Z
  " fill="#008000" fill-rule="evenodd" fill-opacity="0.5"/>
<polyline clip-path="url(#clip320)" style="stroke:#008000; stroke-width:4; stroke-opacity:1; fill:none" points="
  1519.75,193.138 1670.81,193.138 
  "/>
<path clip-path="url(#clip320)" d="M 0 0 M1698.2 233.892 L1698.2 229.633 Q1699.96 230.466 1701.77 230.906 Q1703.57 231.346 1705.31 231.346 Q1709.94 231.346 1712.37 228.244 Q1714.82 225.119 1715.17 218.776 Q1713.83 220.767 1711.77 221.832 Q1709.71 222.897 1707.21 222.897 Q1702.02 222.897 1698.99 219.772 Q1695.98 216.624 1695.98 211.184 Q1695.98 205.86 1699.13 202.642 Q1702.28 199.425 1707.51 199.425 Q1713.5 199.425 1716.65 204.031 Q1719.82 208.614 1719.82 217.364 Q1719.82 225.536 1715.93 230.42 Q1712.07 235.281 1705.52 235.281 Q1703.76 235.281 1701.95 234.934 Q1700.15 234.586 1698.2 233.892 M1707.51 219.239 Q1710.66 219.239 1712.48 217.086 Q1714.34 214.934 1714.34 211.184 Q1714.34 207.457 1712.48 205.304 Q1710.66 203.128 1707.51 203.128 Q1704.36 203.128 1702.51 205.304 Q1700.68 207.457 1700.68 211.184 Q1700.68 214.934 1702.51 217.086 Q1704.36 219.239 1707.51 219.239 Z" fill="#000000" fill-rule="evenodd" fill-opacity="1" /><path clip-path="url(#clip320)" d="M 0 0 M1734.89 203.128 Q1731.28 203.128 1729.45 206.693 Q1727.65 210.235 1727.65 217.364 Q1727.65 224.471 1729.45 228.036 Q1731.28 231.577 1734.89 231.577 Q1738.53 231.577 1740.33 228.036 Q1742.16 224.471 1742.16 217.364 Q1742.16 210.235 1740.33 206.693 Q1738.53 203.128 1734.89 203.128 M1734.89 199.425 Q1740.7 199.425 1743.76 204.031 Q1746.84 208.614 1746.84 217.364 Q1746.84 226.091 1743.76 230.698 Q1740.7 235.281 1734.89 235.281 Q1729.08 235.281 1726 230.698 Q1722.95 226.091 1722.95 217.364 Q1722.95 208.614 1726 204.031 Q1729.08 199.425 1734.89 199.425 Z" fill="#000000" fill-rule="evenodd" fill-opacity="1" /><path clip-path="url(#clip320)" d="M 0 0 M1781.3 219.401 Q1779.29 219.401 1778.13 221.114 Q1777 222.827 1777 225.883 Q1777 228.892 1778.13 230.628 Q1779.29 232.341 1781.3 232.341 Q1783.27 232.341 1784.41 230.628 Q1785.56 228.892 1785.56 225.883 Q1785.56 222.85 1784.41 221.137 Q1783.27 219.401 1781.3 219.401 M1781.3 216.462 Q1784.96 216.462 1787.11 219.008 Q1789.27 221.554 1789.27 225.883 Q1789.27 230.211 1787.09 232.758 Q1784.94 235.281 1781.3 235.281 Q1777.6 235.281 1775.45 232.758 Q1773.29 230.211 1773.29 225.883 Q1773.29 221.531 1775.45 219.008 Q1777.62 216.462 1781.3 216.462 M1757.42 202.364 Q1755.42 202.364 1754.27 204.1 Q1753.13 205.813 1753.13 208.823 Q1753.13 211.878 1754.27 213.591 Q1755.4 215.304 1757.42 215.304 Q1759.43 215.304 1760.56 213.591 Q1761.72 211.878 1761.72 208.823 Q1761.72 205.837 1760.56 204.1 Q1759.41 202.364 1757.42 202.364 M1778.32 199.425 L1782.02 199.425 L1760.4 235.281 L1756.7 235.281 L1778.32 199.425 M1757.42 199.425 Q1761.07 199.425 1763.25 201.971 Q1765.42 204.494 1765.42 208.823 Q1765.42 213.198 1763.25 215.721 Q1761.1 218.244 1757.42 218.244 Q1753.73 218.244 1751.58 215.721 Q1749.45 213.174 1749.45 208.823 Q1749.45 204.517 1751.6 201.971 Q1753.76 199.425 1757.42 199.425 Z" fill="#000000" fill-rule="evenodd" fill-opacity="1" /><path clip-path="url(#clip320)" d="M 0 0 M1830.35 218.961 L1830.35 234.61 L1826.1 234.61 L1826.1 219.1 Q1826.1 215.42 1824.66 213.591 Q1823.22 211.762 1820.35 211.762 Q1816.91 211.762 1814.91 213.962 Q1812.92 216.161 1812.92 219.957 L1812.92 234.61 L1808.64 234.61 L1808.64 208.684 L1812.92 208.684 L1812.92 212.712 Q1814.45 210.374 1816.51 209.216 Q1818.6 208.059 1821.3 208.059 Q1825.77 208.059 1828.06 210.837 Q1830.35 213.591 1830.35 218.961 Z" fill="#000000" fill-rule="evenodd" fill-opacity="1" /><path clip-path="url(#clip320)" d="M 0 0 M1844.87 211.67 Q1841.44 211.67 1839.45 214.355 Q1837.46 217.017 1837.46 221.67 Q1837.46 226.323 1839.43 229.008 Q1841.42 231.67 1844.87 231.67 Q1848.27 231.67 1850.26 228.985 Q1852.25 226.299 1852.25 221.67 Q1852.25 217.063 1850.26 214.378 Q1848.27 211.67 1844.87 211.67 M1844.87 208.059 Q1850.42 208.059 1853.6 211.67 Q1856.77 215.281 1856.77 221.67 Q1856.77 228.036 1853.6 231.67 Q1850.42 235.281 1844.87 235.281 Q1839.29 235.281 1836.12 231.67 Q1832.97 228.036 1832.97 221.67 Q1832.97 215.281 1836.12 211.67 Q1839.29 208.059 1844.87 208.059 Z" fill="#000000" fill-rule="evenodd" fill-opacity="1" /><path clip-path="url(#clip320)" d="M 0 0 M1882.78 218.961 L1882.78 234.61 L1878.53 234.61 L1878.53 219.1 Q1878.53 215.42 1877.09 213.591 Q1875.66 211.762 1872.78 211.762 Q1869.34 211.762 1867.35 213.962 Q1865.35 216.161 1865.35 219.957 L1865.35 234.61 L1861.07 234.61 L1861.07 208.684 L1865.35 208.684 L1865.35 212.712 Q1866.88 210.374 1868.94 209.216 Q1871.03 208.059 1873.73 208.059 Q1878.2 208.059 1880.49 210.837 Q1882.78 213.591 1882.78 218.961 Z" fill="#000000" fill-rule="evenodd" fill-opacity="1" /><path clip-path="url(#clip320)" d="M 0 0 M1885.1 219.725 L1897.58 219.725 L1897.58 223.522 L1885.1 223.522 L1885.1 219.725 Z" fill="#000000" fill-rule="evenodd" fill-opacity="1" /><path clip-path="url(#clip320)" d="M 0 0 M1917.07 212.665 Q1916.35 212.249 1915.49 212.063 Q1914.66 211.855 1913.64 211.855 Q1910.03 211.855 1908.09 214.216 Q1906.16 216.554 1906.16 220.952 L1906.16 234.61 L1901.88 234.61 L1901.88 208.684 L1906.16 208.684 L1906.16 212.712 Q1907.51 210.35 1909.66 209.216 Q1911.81 208.059 1914.89 208.059 Q1915.33 208.059 1915.86 208.128 Q1916.4 208.175 1917.04 208.29 L1917.07 212.665 Z" fill="#000000" fill-rule="evenodd" fill-opacity="1" /><path clip-path="url(#clip320)" d="M 0 0 M1942.67 220.582 L1942.67 222.665 L1923.09 222.665 Q1923.36 227.063 1925.72 229.378 Q1928.11 231.67 1932.34 231.67 Q1934.8 231.67 1937.09 231.068 Q1939.4 230.466 1941.67 229.262 L1941.67 233.29 Q1939.38 234.262 1936.97 234.772 Q1934.57 235.281 1932.09 235.281 Q1925.89 235.281 1922.25 231.67 Q1918.64 228.059 1918.64 221.901 Q1918.64 215.536 1922.07 211.809 Q1925.52 208.059 1931.35 208.059 Q1936.58 208.059 1939.61 211.438 Q1942.67 214.795 1942.67 220.582 M1938.41 219.332 Q1938.36 215.837 1936.44 213.753 Q1934.54 211.67 1931.4 211.67 Q1927.83 211.67 1925.68 213.684 Q1923.55 215.698 1923.22 219.355 L1938.41 219.332 Z" fill="#000000" fill-rule="evenodd" fill-opacity="1" /><path clip-path="url(#clip320)" d="M 0 0 M1947.14 208.684 L1951.4 208.684 L1951.4 235.073 Q1951.4 240.026 1949.5 242.248 Q1947.62 244.471 1943.43 244.471 L1941.81 244.471 L1941.81 240.86 L1942.95 240.86 Q1945.38 240.86 1946.26 239.725 Q1947.14 238.614 1947.14 235.073 L1947.14 208.684 M1947.14 198.591 L1951.4 198.591 L1951.4 203.985 L1947.14 203.985 L1947.14 198.591 Z" fill="#000000" fill-rule="evenodd" fill-opacity="1" /><path clip-path="url(#clip320)" d="M 0 0 M1978.04 220.582 L1978.04 222.665 L1958.46 222.665 Q1958.73 227.063 1961.09 229.378 Q1963.48 231.67 1967.71 231.67 Q1970.17 231.67 1972.46 231.068 Q1974.78 230.466 1977.04 229.262 L1977.04 233.29 Q1974.75 234.262 1972.34 234.772 Q1969.94 235.281 1967.46 235.281 Q1961.26 235.281 1957.62 231.67 Q1954.01 228.059 1954.01 221.901 Q1954.01 215.536 1957.44 211.809 Q1960.89 208.059 1966.72 208.059 Q1971.95 208.059 1974.98 211.438 Q1978.04 214.795 1978.04 220.582 M1973.78 219.332 Q1973.73 215.837 1971.81 213.753 Q1969.91 211.67 1966.77 211.67 Q1963.2 211.67 1961.05 213.684 Q1958.92 215.698 1958.59 219.355 L1973.78 219.332 Z" fill="#000000" fill-rule="evenodd" fill-opacity="1" /><path clip-path="url(#clip320)" d="M 0 0 M2001.16 209.679 L2001.16 213.661 Q1999.36 212.665 1997.53 212.179 Q1995.72 211.67 1993.87 211.67 Q1989.73 211.67 1987.44 214.309 Q1985.15 216.924 1985.15 221.67 Q1985.15 226.415 1987.44 229.054 Q1989.73 231.67 1993.87 231.67 Q1995.72 231.67 1997.53 231.184 Q1999.36 230.674 2001.16 229.679 L2001.16 233.614 Q1999.38 234.448 1997.46 234.864 Q1995.56 235.281 1993.41 235.281 Q1987.55 235.281 1984.1 231.6 Q1980.65 227.92 1980.65 221.67 Q1980.65 215.327 1984.13 211.693 Q1987.62 208.059 1993.69 208.059 Q1995.65 208.059 1997.53 208.475 Q1999.4 208.869 2001.16 209.679 Z" fill="#000000" fill-rule="evenodd" fill-opacity="1" /><path clip-path="url(#clip320)" d="M 0 0 M2009.84 201.323 L2009.84 208.684 L2018.62 208.684 L2018.62 211.994 L2009.84 211.994 L2009.84 226.068 Q2009.84 229.239 2010.7 230.142 Q2011.58 231.045 2014.24 231.045 L2018.62 231.045 L2018.62 234.61 L2014.24 234.61 Q2009.31 234.61 2007.44 232.781 Q2005.56 230.929 2005.56 226.068 L2005.56 211.994 L2002.44 211.994 L2002.44 208.684 L2005.56 208.684 L2005.56 201.323 L2009.84 201.323 Z" fill="#000000" fill-rule="evenodd" fill-opacity="1" /><path clip-path="url(#clip320)" d="M 0 0 M2023.08 208.684 L2027.34 208.684 L2027.34 234.61 L2023.08 234.61 L2023.08 208.684 M2023.08 198.591 L2027.34 198.591 L2027.34 203.985 L2023.08 203.985 L2023.08 198.591 Z" fill="#000000" fill-rule="evenodd" fill-opacity="1" /><path clip-path="url(#clip320)" d="M 0 0 M2041.86 211.67 Q2038.43 211.67 2036.44 214.355 Q2034.45 217.017 2034.45 221.67 Q2034.45 226.323 2036.42 229.008 Q2038.41 231.67 2041.86 231.67 Q2045.26 231.67 2047.25 228.985 Q2049.24 226.299 2049.24 221.67 Q2049.24 217.063 2047.25 214.378 Q2045.26 211.67 2041.86 211.67 M2041.86 208.059 Q2047.41 208.059 2050.58 211.67 Q2053.76 215.281 2053.76 221.67 Q2053.76 228.036 2050.58 231.67 Q2047.41 235.281 2041.86 235.281 Q2036.28 235.281 2033.11 231.67 Q2029.96 228.036 2029.96 221.67 Q2029.96 215.281 2033.11 211.67 Q2036.28 208.059 2041.86 208.059 Z" fill="#000000" fill-rule="evenodd" fill-opacity="1" /><path clip-path="url(#clip320)" d="M 0 0 M2079.77 218.961 L2079.77 234.61 L2075.52 234.61 L2075.52 219.1 Q2075.52 215.42 2074.08 213.591 Q2072.64 211.762 2069.77 211.762 Q2066.33 211.762 2064.33 213.962 Q2062.34 216.161 2062.34 219.957 L2062.34 234.61 L2058.06 234.61 L2058.06 208.684 L2062.34 208.684 L2062.34 212.712 Q2063.87 210.374 2065.93 209.216 Q2068.02 208.059 2070.72 208.059 Q2075.19 208.059 2077.48 210.837 Q2079.77 213.591 2079.77 218.961 Z" fill="#000000" fill-rule="evenodd" fill-opacity="1" /><path clip-path="url(#clip320)" d="M 0 0 M2114.33 212.665 Q2113.62 212.249 2112.76 212.063 Q2111.93 211.855 2110.91 211.855 Q2107.3 211.855 2105.35 214.216 Q2103.43 216.554 2103.43 220.952 L2103.43 234.61 L2099.15 234.61 L2099.15 208.684 L2103.43 208.684 L2103.43 212.712 Q2104.77 210.35 2106.93 209.216 Q2109.08 208.059 2112.16 208.059 Q2112.6 208.059 2113.13 208.128 Q2113.66 208.175 2114.31 208.29 L2114.33 212.665 Z" fill="#000000" fill-rule="evenodd" fill-opacity="1" /><path clip-path="url(#clip320)" d="M 0 0 M2139.94 220.582 L2139.94 222.665 L2120.35 222.665 Q2120.63 227.063 2122.99 229.378 Q2125.38 231.67 2129.61 231.67 Q2132.07 231.67 2134.36 231.068 Q2136.67 230.466 2138.94 229.262 L2138.94 233.29 Q2136.65 234.262 2134.24 234.772 Q2131.83 235.281 2129.36 235.281 Q2123.15 235.281 2119.52 231.67 Q2115.91 228.059 2115.91 221.901 Q2115.91 215.536 2119.33 211.809 Q2122.78 208.059 2128.62 208.059 Q2133.85 208.059 2136.88 211.438 Q2139.94 214.795 2139.94 220.582 M2135.68 219.332 Q2135.63 215.837 2133.71 213.753 Q2131.81 211.67 2128.66 211.67 Q2125.1 211.67 2122.95 213.684 Q2120.82 215.698 2120.49 219.355 L2135.68 219.332 Z" fill="#000000" fill-rule="evenodd" fill-opacity="1" /><path clip-path="url(#clip320)" d="M 0 0 M2161.46 221.346 Q2161.46 216.716 2159.54 214.17 Q2157.64 211.624 2154.2 211.624 Q2150.77 211.624 2148.85 214.17 Q2146.95 216.716 2146.95 221.346 Q2146.95 225.952 2148.85 228.498 Q2150.77 231.045 2154.2 231.045 Q2157.64 231.045 2159.54 228.498 Q2161.46 225.952 2161.46 221.346 M2165.72 231.392 Q2165.72 238.012 2162.78 241.23 Q2159.84 244.471 2153.78 244.471 Q2151.53 244.471 2149.54 244.123 Q2147.55 243.799 2145.68 243.105 L2145.68 238.961 Q2147.55 239.98 2149.38 240.466 Q2151.21 240.952 2153.11 240.952 Q2157.3 240.952 2159.38 238.753 Q2161.46 236.577 2161.46 232.156 L2161.46 230.049 Q2160.14 232.341 2158.08 233.475 Q2156.02 234.61 2153.15 234.61 Q2148.39 234.61 2145.47 230.975 Q2142.55 227.341 2142.55 221.346 Q2142.55 215.327 2145.47 211.693 Q2148.39 208.059 2153.15 208.059 Q2156.02 208.059 2158.08 209.193 Q2160.14 210.327 2161.46 212.619 L2161.46 208.684 L2165.72 208.684 L2165.72 231.392 Z" fill="#000000" fill-rule="evenodd" fill-opacity="1" /><path clip-path="url(#clip320)" d="M 0 0 M2170.19 208.684 L2174.45 208.684 L2174.45 234.61 L2170.19 234.61 L2170.19 208.684 M2170.19 198.591 L2174.45 198.591 L2174.45 203.985 L2170.19 203.985 L2170.19 198.591 Z" fill="#000000" fill-rule="evenodd" fill-opacity="1" /><path clip-path="url(#clip320)" d="M 0 0 M2188.96 211.67 Q2185.54 211.67 2183.55 214.355 Q2181.56 217.017 2181.56 221.67 Q2181.56 226.323 2183.52 229.008 Q2185.51 231.67 2188.96 231.67 Q2192.37 231.67 2194.36 228.985 Q2196.35 226.299 2196.35 221.67 Q2196.35 217.063 2194.36 214.378 Q2192.37 211.67 2188.96 211.67 M2188.96 208.059 Q2194.52 208.059 2197.69 211.67 Q2200.86 215.281 2200.86 221.67 Q2200.86 228.036 2197.69 231.67 Q2194.52 235.281 2188.96 235.281 Q2183.39 235.281 2180.21 231.67 Q2177.07 228.036 2177.07 221.67 Q2177.07 215.281 2180.21 211.67 Q2183.39 208.059 2188.96 208.059 Z" fill="#000000" fill-rule="evenodd" fill-opacity="1" /><path clip-path="url(#clip320)" d="M 0 0 M2226.88 218.961 L2226.88 234.61 L2222.62 234.61 L2222.62 219.1 Q2222.62 215.42 2221.19 213.591 Q2219.75 211.762 2216.88 211.762 Q2213.43 211.762 2211.44 213.962 Q2209.45 216.161 2209.45 219.957 L2209.45 234.61 L2205.17 234.61 L2205.17 208.684 L2209.45 208.684 L2209.45 212.712 Q2210.98 210.374 2213.04 209.216 Q2215.12 208.059 2217.83 208.059 Q2222.3 208.059 2224.59 210.837 Q2226.88 213.591 2226.88 218.961 Z" fill="#000000" fill-rule="evenodd" fill-opacity="1" /><path clip-path="url(#clip320)" d="
M1519.75 302.002 L1670.81 302.002 L1670.81 253.618 L1519.75 253.618 L1519.75 302.002  Z
  " fill="#ffa500" fill-rule="evenodd" fill-opacity="0.5"/>
<polyline clip-path="url(#clip320)" style="stroke:#ffa500; stroke-width:4; stroke-opacity:1; fill:none" points="
  1519.75,253.618 1670.81,253.618 
  "/>
<path clip-path="url(#clip320)" d="M 0 0 M1700.38 282.15 Q1700.38 286.849 1702.3 289.534 Q1704.24 292.196 1707.62 292.196 Q1711 292.196 1712.95 289.534 Q1714.89 286.849 1714.89 282.15 Q1714.89 277.451 1712.95 274.789 Q1711 272.104 1707.62 272.104 Q1704.24 272.104 1702.3 274.789 Q1700.38 277.451 1700.38 282.15 M1714.89 291.201 Q1713.55 293.515 1711.49 294.65 Q1709.45 295.761 1706.58 295.761 Q1701.88 295.761 1698.92 292.011 Q1695.98 288.261 1695.98 282.15 Q1695.98 276.039 1698.92 272.289 Q1701.88 268.539 1706.58 268.539 Q1709.45 268.539 1711.49 269.673 Q1713.55 270.784 1714.89 273.099 L1714.89 269.164 L1719.15 269.164 L1719.15 304.951 L1714.89 304.951 L1714.89 291.201 Z" fill="#000000" fill-rule="evenodd" fill-opacity="1" /><path clip-path="url(#clip320)" d="M 0 0 M1724.36 294.372 L1724.36 290.113 Q1726.12 290.946 1727.92 291.386 Q1729.73 291.826 1731.47 291.826 Q1736.1 291.826 1738.53 288.724 Q1740.98 285.599 1741.33 279.256 Q1739.98 281.247 1737.92 282.312 Q1735.86 283.377 1733.36 283.377 Q1728.18 283.377 1725.15 280.252 Q1722.14 277.104 1722.14 271.664 Q1722.14 266.34 1725.29 263.122 Q1728.43 259.905 1733.67 259.905 Q1739.66 259.905 1742.81 264.511 Q1745.98 269.094 1745.98 277.844 Q1745.98 286.016 1742.09 290.9 Q1738.23 295.761 1731.67 295.761 Q1729.92 295.761 1728.11 295.414 Q1726.3 295.066 1724.36 294.372 M1733.67 279.719 Q1736.81 279.719 1738.64 277.566 Q1740.49 275.414 1740.49 271.664 Q1740.49 267.937 1738.64 265.784 Q1736.81 263.608 1733.67 263.608 Q1730.52 263.608 1728.67 265.784 Q1726.84 267.937 1726.84 271.664 Q1726.84 275.414 1728.67 277.566 Q1730.52 279.719 1733.67 279.719 Z" fill="#000000" fill-rule="evenodd" fill-opacity="1" /><path clip-path="url(#clip320)" d="M 0 0 M1751.1 260.53 L1769.45 260.53 L1769.45 264.465 L1755.38 264.465 L1755.38 272.937 Q1756.4 272.59 1757.42 272.428 Q1758.43 272.242 1759.45 272.242 Q1765.24 272.242 1768.62 275.414 Q1772 278.585 1772 284.002 Q1772 289.58 1768.53 292.682 Q1765.05 295.761 1758.73 295.761 Q1756.56 295.761 1754.29 295.39 Q1752.04 295.02 1749.64 294.279 L1749.64 289.58 Q1751.72 290.715 1753.94 291.27 Q1756.17 291.826 1758.64 291.826 Q1762.65 291.826 1764.98 289.719 Q1767.32 287.613 1767.32 284.002 Q1767.32 280.391 1764.98 278.284 Q1762.65 276.178 1758.64 276.178 Q1756.77 276.178 1754.89 276.594 Q1753.04 277.011 1751.1 277.891 L1751.1 260.53 Z" fill="#000000" fill-rule="evenodd" fill-opacity="1" /><polyline clip-path="url(#clip320)" style="stroke:#0000ff; stroke-width:4; stroke-opacity:1; fill:none" points="
  1519.75,338.29 1670.81,338.29 
  "/>
<path clip-path="url(#clip320)" d="M 0 0 M1716.33 334.621 Q1717.92 331.75 1720.15 330.385 Q1722.37 329.019 1725.38 329.019 Q1729.43 329.019 1731.63 331.866 Q1733.83 334.69 1733.83 339.921 L1733.83 355.57 L1729.54 355.57 L1729.54 340.06 Q1729.54 336.334 1728.23 334.528 Q1726.91 332.722 1724.2 332.722 Q1720.89 332.722 1718.97 334.922 Q1717.04 337.121 1717.04 340.917 L1717.04 355.57 L1712.76 355.57 L1712.76 340.06 Q1712.76 336.31 1711.44 334.528 Q1710.12 332.722 1707.37 332.722 Q1704.11 332.722 1702.18 334.945 Q1700.26 337.144 1700.26 340.917 L1700.26 355.57 L1695.98 355.57 L1695.98 329.644 L1700.26 329.644 L1700.26 333.672 Q1701.72 331.287 1703.76 330.153 Q1705.79 329.019 1708.6 329.019 Q1711.42 329.019 1713.39 330.454 Q1715.38 331.889 1716.33 334.621 Z" fill="#000000" fill-rule="evenodd" fill-opacity="1" /><path clip-path="url(#clip320)" d="M 0 0 M1760.47 341.542 L1760.47 343.625 L1740.89 343.625 Q1741.17 348.023 1743.53 350.338 Q1745.91 352.63 1750.15 352.63 Q1752.6 352.63 1754.89 352.028 Q1757.21 351.426 1759.48 350.222 L1759.48 354.25 Q1757.18 355.222 1754.78 355.732 Q1752.37 356.241 1749.89 356.241 Q1743.69 356.241 1740.05 352.63 Q1736.44 349.019 1736.44 342.861 Q1736.44 336.496 1739.87 332.769 Q1743.32 329.019 1749.15 329.019 Q1754.38 329.019 1757.42 332.398 Q1760.47 335.755 1760.47 341.542 M1756.21 340.292 Q1756.17 336.797 1754.24 334.713 Q1752.35 332.63 1749.2 332.63 Q1745.63 332.63 1743.48 334.644 Q1741.35 336.658 1741.03 340.315 L1756.21 340.292 Z" fill="#000000" fill-rule="evenodd" fill-opacity="1" /><path clip-path="url(#clip320)" d="M 0 0 M1776.72 342.537 Q1771.56 342.537 1769.57 343.718 Q1767.58 344.898 1767.58 347.746 Q1767.58 350.014 1769.06 351.357 Q1770.56 352.676 1773.13 352.676 Q1776.67 352.676 1778.8 350.176 Q1780.96 347.653 1780.96 343.486 L1780.96 342.537 L1776.72 342.537 M1785.22 340.778 L1785.22 355.57 L1780.96 355.57 L1780.96 351.634 Q1779.5 353.995 1777.32 355.13 Q1775.15 356.241 1772 356.241 Q1768.02 356.241 1765.66 354.019 Q1763.32 351.773 1763.32 348.023 Q1763.32 343.648 1766.23 341.426 Q1769.17 339.204 1774.98 339.204 L1780.96 339.204 L1780.96 338.787 Q1780.96 335.847 1779.01 334.25 Q1777.09 332.63 1773.6 332.63 Q1771.37 332.63 1769.27 333.162 Q1767.16 333.695 1765.22 334.759 L1765.22 330.824 Q1767.55 329.922 1769.75 329.482 Q1771.95 329.019 1774.04 329.019 Q1779.66 329.019 1782.44 331.935 Q1785.22 334.852 1785.22 340.778 Z" fill="#000000" fill-rule="evenodd" fill-opacity="1" /><path clip-path="url(#clip320)" d="M 0 0 M1811.23 339.921 L1811.23 355.57 L1806.97 355.57 L1806.97 340.06 Q1806.97 336.38 1805.54 334.551 Q1804.1 332.722 1801.23 332.722 Q1797.79 332.722 1795.79 334.922 Q1793.8 337.121 1793.8 340.917 L1793.8 355.57 L1789.52 355.57 L1789.52 329.644 L1793.8 329.644 L1793.8 333.672 Q1795.33 331.334 1797.39 330.176 Q1799.48 329.019 1802.18 329.019 Q1806.65 329.019 1808.94 331.797 Q1811.23 334.551 1811.23 339.921 Z" fill="#000000" fill-rule="evenodd" fill-opacity="1" /><polyline clip-path="url(#clip320)" style="stroke:#000000; stroke-width:4; stroke-opacity:1; fill:none" points="
  1519.75,398.77 1670.81,398.77 
  "/>
<path clip-path="url(#clip320)" d="M 0 0 M1716.33 395.101 Q1717.92 392.23 1720.15 390.865 Q1722.37 389.499 1725.38 389.499 Q1729.43 389.499 1731.63 392.346 Q1733.83 395.17 1733.83 400.401 L1733.83 416.05 L1729.54 416.05 L1729.54 400.54 Q1729.54 396.814 1728.23 395.008 Q1726.91 393.202 1724.2 393.202 Q1720.89 393.202 1718.97 395.402 Q1717.04 397.601 1717.04 401.397 L1717.04 416.05 L1712.76 416.05 L1712.76 400.54 Q1712.76 396.79 1711.44 395.008 Q1710.12 393.202 1707.37 393.202 Q1704.11 393.202 1702.18 395.425 Q1700.26 397.624 1700.26 401.397 L1700.26 416.05 L1695.98 416.05 L1695.98 390.124 L1700.26 390.124 L1700.26 394.152 Q1701.72 391.767 1703.76 390.633 Q1705.79 389.499 1708.6 389.499 Q1711.42 389.499 1713.39 390.934 Q1715.38 392.369 1716.33 395.101 Z" fill="#000000" fill-rule="evenodd" fill-opacity="1" /><path clip-path="url(#clip320)" d="M 0 0 M1760.47 402.022 L1760.47 404.105 L1740.89 404.105 Q1741.17 408.503 1743.53 410.818 Q1745.91 413.11 1750.15 413.11 Q1752.6 413.11 1754.89 412.508 Q1757.21 411.906 1759.48 410.702 L1759.48 414.73 Q1757.18 415.702 1754.78 416.212 Q1752.37 416.721 1749.89 416.721 Q1743.69 416.721 1740.05 413.11 Q1736.44 409.499 1736.44 403.341 Q1736.44 396.976 1739.87 393.249 Q1743.32 389.499 1749.15 389.499 Q1754.38 389.499 1757.42 392.878 Q1760.47 396.235 1760.47 402.022 M1756.21 400.772 Q1756.17 397.277 1754.24 395.193 Q1752.35 393.11 1749.2 393.11 Q1745.63 393.11 1743.48 395.124 Q1741.35 397.138 1741.03 400.795 L1756.21 400.772 Z" fill="#000000" fill-rule="evenodd" fill-opacity="1" /><path clip-path="url(#clip320)" d="M 0 0 M1782 394.059 L1782 380.031 L1786.26 380.031 L1786.26 416.05 L1782 416.05 L1782 412.161 Q1780.66 414.475 1778.6 415.61 Q1776.56 416.721 1773.69 416.721 Q1768.99 416.721 1766.03 412.971 Q1763.09 409.221 1763.09 403.11 Q1763.09 396.999 1766.03 393.249 Q1768.99 389.499 1773.69 389.499 Q1776.56 389.499 1778.6 390.633 Q1780.66 391.744 1782 394.059 M1767.48 403.11 Q1767.48 407.809 1769.41 410.494 Q1771.35 413.156 1774.73 413.156 Q1778.11 413.156 1780.05 410.494 Q1782 407.809 1782 403.11 Q1782 398.411 1780.05 395.749 Q1778.11 393.064 1774.73 393.064 Q1771.35 393.064 1769.41 395.749 Q1767.48 398.411 1767.48 403.11 Z" fill="#000000" fill-rule="evenodd" fill-opacity="1" /><path clip-path="url(#clip320)" d="M 0 0 M1790.73 390.124 L1794.98 390.124 L1794.98 416.05 L1790.73 416.05 L1790.73 390.124 M1790.73 380.031 L1794.98 380.031 L1794.98 385.425 L1790.73 385.425 L1790.73 380.031 Z" fill="#000000" fill-rule="evenodd" fill-opacity="1" /><path clip-path="url(#clip320)" d="M 0 0 M1811.23 403.017 Q1806.07 403.017 1804.08 404.198 Q1802.09 405.378 1802.09 408.226 Q1802.09 410.494 1803.57 411.837 Q1805.08 413.156 1807.65 413.156 Q1811.19 413.156 1813.32 410.656 Q1815.47 408.133 1815.47 403.966 L1815.47 403.017 L1811.23 403.017 M1819.73 401.258 L1819.73 416.05 L1815.47 416.05 L1815.47 412.114 Q1814.01 414.475 1811.84 415.61 Q1809.66 416.721 1806.51 416.721 Q1802.53 416.721 1800.17 414.499 Q1797.83 412.253 1797.83 408.503 Q1797.83 404.128 1800.75 401.906 Q1803.69 399.684 1809.5 399.684 L1815.47 399.684 L1815.47 399.267 Q1815.47 396.327 1813.53 394.73 Q1811.6 393.11 1808.11 393.11 Q1805.89 393.11 1803.78 393.642 Q1801.67 394.175 1799.73 395.239 L1799.73 391.304 Q1802.07 390.402 1804.27 389.962 Q1806.47 389.499 1808.55 389.499 Q1814.17 389.499 1816.95 392.415 Q1819.73 395.332 1819.73 401.258 Z" fill="#000000" fill-rule="evenodd" fill-opacity="1" /><path clip-path="url(#clip320)" d="M 0 0 M1845.75 400.401 L1845.75 416.05 L1841.49 416.05 L1841.49 400.54 Q1841.49 396.86 1840.05 395.031 Q1838.62 393.202 1835.75 393.202 Q1832.3 393.202 1830.31 395.402 Q1828.32 397.601 1828.32 401.397 L1828.32 416.05 L1824.04 416.05 L1824.04 390.124 L1828.32 390.124 L1828.32 394.152 Q1829.85 391.814 1831.91 390.656 Q1833.99 389.499 1836.7 389.499 Q1841.16 389.499 1843.46 392.277 Q1845.75 395.031 1845.75 400.401 Z" fill="#000000" fill-rule="evenodd" fill-opacity="1" /></svg>
