<?xml version="1.0" encoding="utf-8"?>
<svg xmlns="http://www.w3.org/2000/svg" xmlns:xlink="http://www.w3.org/1999/xlink" width="600" height="400" viewBox="0 0 2400 1600">
<defs>
  <clipPath id="clip290">
    <rect x="0" y="0" width="2400" height="1600"/>
  </clipPath>
</defs>
<path clip-path="url(#clip290)" d="
M0 1600 L2400 1600 L2400 0 L0 0  Z
  " fill="#ffffff" fill-rule="evenodd" fill-opacity="1"/>
<defs>
  <clipPath id="clip291">
    <rect x="480" y="0" width="1681" height="1600"/>
  </clipPath>
</defs>
<path clip-path="url(#clip290)" d="
M86.9921 1521.01 L2352.76 1521.01 L2352.76 47.2441 L86.9921 47.2441  Z
  " fill="#ffffff" fill-rule="evenodd" fill-opacity="1"/>
<defs>
  <clipPath id="clip292">
    <rect x="86" y="47" width="2267" height="1475"/>
  </clipPath>
</defs>
<polyline clip-path="url(#clip292)" style="stroke:#000000; stroke-width:2; stroke-opacity:0.1; fill:none" points="
  195.591,1521.01 195.591,47.2441 
  "/>
<polyline clip-path="url(#clip292)" style="stroke:#000000; stroke-width:2; stroke-opacity:0.1; fill:none" points="
  621.364,1521.01 621.364,47.2441 
  "/>
<polyline clip-path="url(#clip292)" style="stroke:#000000; stroke-width:2; stroke-opacity:0.1; fill:none" points="
  1047.14,1521.01 1047.14,47.2441 
  "/>
<polyline clip-path="url(#clip292)" style="stroke:#000000; stroke-width:2; stroke-opacity:0.1; fill:none" points="
  1472.91,1521.01 1472.91,47.2441 
  "/>
<polyline clip-path="url(#clip292)" style="stroke:#000000; stroke-width:2; stroke-opacity:0.1; fill:none" points="
  1898.68,1521.01 1898.68,47.2441 
  "/>
<polyline clip-path="url(#clip292)" style="stroke:#000000; stroke-width:2; stroke-opacity:0.1; fill:none" points="
  2324.45,1521.01 2324.45,47.2441 
  "/>
<polyline clip-path="url(#clip292)" style="stroke:#000000; stroke-width:2; stroke-opacity:0.1; fill:none" points="
  86.9921,1479.3 2352.76,1479.3 
  "/>
<polyline clip-path="url(#clip292)" style="stroke:#000000; stroke-width:2; stroke-opacity:0.1; fill:none" points="
  86.9921,1150.09 2352.76,1150.09 
  "/>
<polyline clip-path="url(#clip292)" style="stroke:#000000; stroke-width:2; stroke-opacity:0.1; fill:none" points="
  86.9921,820.884 2352.76,820.884 
  "/>
<polyline clip-path="url(#clip292)" style="stroke:#000000; stroke-width:2; stroke-opacity:0.1; fill:none" points="
  86.9921,491.678 2352.76,491.678 
  "/>
<polyline clip-path="url(#clip292)" style="stroke:#000000; stroke-width:2; stroke-opacity:0.1; fill:none" points="
  86.9921,162.471 2352.76,162.471 
  "/>
<polyline clip-path="url(#clip290)" style="stroke:#000000; stroke-width:4; stroke-opacity:1; fill:none" points="
  86.9921,1521.01 2352.76,1521.01 
  "/>
<polyline clip-path="url(#clip290)" style="stroke:#000000; stroke-width:4; stroke-opacity:1; fill:none" points="
  86.9921,1521.01 86.9921,47.2441 
  "/>
<polyline clip-path="url(#clip290)" style="stroke:#000000; stroke-width:4; stroke-opacity:1; fill:none" points="
  195.591,1521.01 195.591,1503.32 
  "/>
<polyline clip-path="url(#clip290)" style="stroke:#000000; stroke-width:4; stroke-opacity:1; fill:none" points="
  621.364,1521.01 621.364,1503.32 
  "/>
<polyline clip-path="url(#clip290)" style="stroke:#000000; stroke-width:4; stroke-opacity:1; fill:none" points="
  1047.14,1521.01 1047.14,1503.32 
  "/>
<polyline clip-path="url(#clip290)" style="stroke:#000000; stroke-width:4; stroke-opacity:1; fill:none" points="
  1472.91,1521.01 1472.91,1503.32 
  "/>
<polyline clip-path="url(#clip290)" style="stroke:#000000; stroke-width:4; stroke-opacity:1; fill:none" points="
  1898.68,1521.01 1898.68,1503.32 
  "/>
<polyline clip-path="url(#clip290)" style="stroke:#000000; stroke-width:4; stroke-opacity:1; fill:none" points="
  2324.45,1521.01 2324.45,1503.32 
  "/>
<polyline clip-path="url(#clip290)" style="stroke:#000000; stroke-width:4; stroke-opacity:1; fill:none" points="
  86.9921,1479.3 114.181,1479.3 
  "/>
<polyline clip-path="url(#clip290)" style="stroke:#000000; stroke-width:4; stroke-opacity:1; fill:none" points="
  86.9921,1150.09 114.181,1150.09 
  "/>
<polyline clip-path="url(#clip290)" style="stroke:#000000; stroke-width:4; stroke-opacity:1; fill:none" points="
  86.9921,820.884 114.181,820.884 
  "/>
<polyline clip-path="url(#clip290)" style="stroke:#000000; stroke-width:4; stroke-opacity:1; fill:none" points="
  86.9921,491.678 114.181,491.678 
  "/>
<polyline clip-path="url(#clip290)" style="stroke:#000000; stroke-width:4; stroke-opacity:1; fill:none" points="
  86.9921,162.471 114.181,162.471 
  "/>
<path clip-path="url(#clip290)" d="M 0 0 M144.399 1559.6 L156.876 1559.6 L156.876 1563.39 L144.399 1563.39 L144.399 1559.6 Z" fill="#000000" fill-rule="evenodd" fill-opacity="1" /><path clip-path="url(#clip290)" d="M 0 0 M171.945 1543 Q168.334 1543 166.505 1546.56 Q164.7 1550.11 164.7 1557.23 Q164.7 1564.34 166.505 1567.91 Q168.334 1571.45 171.945 1571.45 Q175.58 1571.45 177.385 1567.91 Q179.214 1564.34 179.214 1557.23 Q179.214 1550.11 177.385 1546.56 Q175.58 1543 171.945 1543 M171.945 1539.29 Q177.755 1539.29 180.811 1543.9 Q183.89 1548.48 183.89 1557.23 Q183.89 1565.96 180.811 1570.57 Q177.755 1575.15 171.945 1575.15 Q166.135 1575.15 163.056 1570.57 Q160.001 1565.96 160.001 1557.23 Q160.001 1548.48 163.056 1543.9 Q166.135 1539.29 171.945 1539.29 Z" fill="#000000" fill-rule="evenodd" fill-opacity="1" /><path clip-path="url(#clip290)" d="M 0 0 M188.959 1568.6 L193.843 1568.6 L193.843 1574.48 L188.959 1574.48 L188.959 1568.6 Z" fill="#000000" fill-rule="evenodd" fill-opacity="1" /><path clip-path="url(#clip290)" d="M 0 0 M208.913 1558.07 Q205.579 1558.07 203.658 1559.85 Q201.76 1561.63 201.76 1564.76 Q201.76 1567.88 203.658 1569.67 Q205.579 1571.45 208.913 1571.45 Q212.246 1571.45 214.167 1569.67 Q216.089 1567.86 216.089 1564.76 Q216.089 1561.63 214.167 1559.85 Q212.269 1558.07 208.913 1558.07 M204.237 1556.08 Q201.228 1555.34 199.538 1553.28 Q197.871 1551.22 197.871 1548.25 Q197.871 1544.11 200.811 1541.7 Q203.774 1539.29 208.913 1539.29 Q214.075 1539.29 217.014 1541.7 Q219.954 1544.11 219.954 1548.25 Q219.954 1551.22 218.264 1553.28 Q216.598 1555.34 213.612 1556.08 Q216.991 1556.86 218.866 1559.16 Q220.764 1561.45 220.764 1564.76 Q220.764 1569.78 217.686 1572.47 Q214.63 1575.15 208.913 1575.15 Q203.195 1575.15 200.116 1572.47 Q197.061 1569.78 197.061 1564.76 Q197.061 1561.45 198.959 1559.16 Q200.857 1556.86 204.237 1556.08 M202.524 1548.69 Q202.524 1551.38 204.19 1552.88 Q205.88 1554.39 208.913 1554.39 Q211.922 1554.39 213.612 1552.88 Q215.325 1551.38 215.325 1548.69 Q215.325 1546.01 213.612 1544.5 Q211.922 1543 208.913 1543 Q205.88 1543 204.19 1544.5 Q202.524 1546.01 202.524 1548.69 Z" fill="#000000" fill-rule="evenodd" fill-opacity="1" /><path clip-path="url(#clip290)" d="M 0 0 M225.88 1539.92 L244.237 1539.92 L244.237 1543.86 L230.163 1543.86 L230.163 1552.33 Q231.181 1551.98 232.2 1551.82 Q233.218 1551.63 234.237 1551.63 Q240.024 1551.63 243.403 1554.8 Q246.783 1557.98 246.783 1563.39 Q246.783 1568.97 243.311 1572.07 Q239.838 1575.15 233.519 1575.15 Q231.343 1575.15 229.075 1574.78 Q226.829 1574.41 224.422 1573.67 L224.422 1568.97 Q226.505 1570.1 228.727 1570.66 Q230.95 1571.22 233.426 1571.22 Q237.431 1571.22 239.769 1569.11 Q242.107 1567 242.107 1563.39 Q242.107 1559.78 239.769 1557.67 Q237.431 1555.57 233.426 1555.57 Q231.551 1555.57 229.676 1555.98 Q227.825 1556.4 225.88 1557.28 L225.88 1539.92 Z" fill="#000000" fill-rule="evenodd" fill-opacity="1" /><path clip-path="url(#clip290)" d="M 0 0 M569.674 1559.6 L582.151 1559.6 L582.151 1563.39 L569.674 1563.39 L569.674 1559.6 Z" fill="#000000" fill-rule="evenodd" fill-opacity="1" /><path clip-path="url(#clip290)" d="M 0 0 M597.22 1543 Q593.609 1543 591.78 1546.56 Q589.975 1550.11 589.975 1557.23 Q589.975 1564.34 591.78 1567.91 Q593.609 1571.45 597.22 1571.45 Q600.854 1571.45 602.66 1567.91 Q604.489 1564.34 604.489 1557.23 Q604.489 1550.11 602.66 1546.56 Q600.854 1543 597.22 1543 M597.22 1539.29 Q603.03 1539.29 606.086 1543.9 Q609.165 1548.48 609.165 1557.23 Q609.165 1565.96 606.086 1570.57 Q603.03 1575.15 597.22 1575.15 Q591.41 1575.15 588.331 1570.57 Q585.276 1565.96 585.276 1557.23 Q585.276 1548.48 588.331 1543.9 Q591.41 1539.29 597.22 1539.29 Z" fill="#000000" fill-rule="evenodd" fill-opacity="1" /><path clip-path="url(#clip290)" d="M 0 0 M614.234 1568.6 L619.118 1568.6 L619.118 1574.48 L614.234 1574.48 L614.234 1568.6 Z" fill="#000000" fill-rule="evenodd" fill-opacity="1" /><path clip-path="url(#clip290)" d="M 0 0 M634.188 1558.07 Q630.854 1558.07 628.933 1559.85 Q627.035 1561.63 627.035 1564.76 Q627.035 1567.88 628.933 1569.67 Q630.854 1571.45 634.188 1571.45 Q637.521 1571.45 639.442 1569.67 Q641.363 1567.86 641.363 1564.76 Q641.363 1561.63 639.442 1559.85 Q637.544 1558.07 634.188 1558.07 M629.512 1556.08 Q626.502 1555.34 624.813 1553.28 Q623.146 1551.22 623.146 1548.25 Q623.146 1544.11 626.086 1541.7 Q629.049 1539.29 634.188 1539.29 Q639.35 1539.29 642.289 1541.7 Q645.229 1544.11 645.229 1548.25 Q645.229 1551.22 643.539 1553.28 Q641.873 1555.34 638.887 1556.08 Q642.266 1556.86 644.141 1559.16 Q646.039 1561.45 646.039 1564.76 Q646.039 1569.78 642.961 1572.47 Q639.905 1575.15 634.188 1575.15 Q628.47 1575.15 625.391 1572.47 Q622.336 1569.78 622.336 1564.76 Q622.336 1561.45 624.234 1559.16 Q626.132 1556.86 629.512 1556.08 M627.799 1548.69 Q627.799 1551.38 629.465 1552.88 Q631.155 1554.39 634.188 1554.39 Q637.197 1554.39 638.887 1552.88 Q640.6 1551.38 640.6 1548.69 Q640.6 1546.01 638.887 1544.5 Q637.197 1543 634.188 1543 Q631.155 1543 629.465 1544.5 Q627.799 1546.01 627.799 1548.69 Z" fill="#000000" fill-rule="evenodd" fill-opacity="1" /><path clip-path="url(#clip290)" d="M 0 0 M661.109 1543 Q657.498 1543 655.669 1546.56 Q653.863 1550.11 653.863 1557.23 Q653.863 1564.34 655.669 1567.91 Q657.498 1571.45 661.109 1571.45 Q664.743 1571.45 666.549 1567.91 Q668.377 1564.34 668.377 1557.23 Q668.377 1550.11 666.549 1546.56 Q664.743 1543 661.109 1543 M661.109 1539.29 Q666.919 1539.29 669.974 1543.9 Q673.053 1548.48 673.053 1557.23 Q673.053 1565.96 669.974 1570.57 Q666.919 1575.15 661.109 1575.15 Q655.299 1575.15 652.22 1570.57 Q649.164 1565.96 649.164 1557.23 Q649.164 1548.48 652.22 1543.9 Q655.299 1539.29 661.109 1539.29 Z" fill="#000000" fill-rule="evenodd" fill-opacity="1" /><path clip-path="url(#clip290)" d="M 0 0 M996.349 1559.6 L1008.83 1559.6 L1008.83 1563.39 L996.349 1563.39 L996.349 1559.6 Z" fill="#000000" fill-rule="evenodd" fill-opacity="1" /><path clip-path="url(#clip290)" d="M 0 0 M1023.9 1543 Q1020.28 1543 1018.46 1546.56 Q1016.65 1550.11 1016.65 1557.23 Q1016.65 1564.34 1018.46 1567.91 Q1020.28 1571.45 1023.9 1571.45 Q1027.53 1571.45 1029.34 1567.91 Q1031.16 1564.34 1031.16 1557.23 Q1031.16 1550.11 1029.34 1546.56 Q1027.53 1543 1023.9 1543 M1023.9 1539.29 Q1029.71 1539.29 1032.76 1543.9 Q1035.84 1548.48 1035.84 1557.23 Q1035.84 1565.96 1032.76 1570.57 Q1029.71 1575.15 1023.9 1575.15 Q1018.09 1575.15 1015.01 1570.57 Q1011.95 1565.96 1011.95 1557.23 Q1011.95 1548.48 1015.01 1543.9 Q1018.09 1539.29 1023.9 1539.29 Z" fill="#000000" fill-rule="evenodd" fill-opacity="1" /><path clip-path="url(#clip290)" d="M 0 0 M1040.91 1568.6 L1045.79 1568.6 L1045.79 1574.48 L1040.91 1574.48 L1040.91 1568.6 Z" fill="#000000" fill-rule="evenodd" fill-opacity="1" /><path clip-path="url(#clip290)" d="M 0 0 M1049.68 1539.92 L1071.9 1539.92 L1071.9 1541.91 L1059.36 1574.48 L1054.47 1574.48 L1066.28 1543.86 L1049.68 1543.86 L1049.68 1539.92 Z" fill="#000000" fill-rule="evenodd" fill-opacity="1" /><path clip-path="url(#clip290)" d="M 0 0 M1077.02 1539.92 L1095.38 1539.92 L1095.38 1543.86 L1081.3 1543.86 L1081.3 1552.33 Q1082.32 1551.98 1083.34 1551.82 Q1084.36 1551.63 1085.38 1551.63 Q1091.16 1551.63 1094.54 1554.8 Q1097.92 1557.98 1097.92 1563.39 Q1097.92 1568.97 1094.45 1572.07 Q1090.98 1575.15 1084.66 1575.15 Q1082.48 1575.15 1080.21 1574.78 Q1077.97 1574.41 1075.56 1573.67 L1075.56 1568.97 Q1077.65 1570.1 1079.87 1570.66 Q1082.09 1571.22 1084.57 1571.22 Q1088.57 1571.22 1090.91 1569.11 Q1093.25 1567 1093.25 1563.39 Q1093.25 1559.78 1090.91 1557.67 Q1088.57 1555.57 1084.57 1555.57 Q1082.69 1555.57 1080.82 1555.98 Q1078.96 1556.4 1077.02 1557.28 L1077.02 1539.92 Z" fill="#000000" fill-rule="evenodd" fill-opacity="1" /><path clip-path="url(#clip290)" d="M 0 0 M1421.62 1559.6 L1434.1 1559.6 L1434.1 1563.39 L1421.62 1563.39 L1421.62 1559.6 Z" fill="#000000" fill-rule="evenodd" fill-opacity="1" /><path clip-path="url(#clip290)" d="M 0 0 M1449.17 1543 Q1445.56 1543 1443.73 1546.56 Q1441.93 1550.11 1441.93 1557.23 Q1441.93 1564.34 1443.73 1567.91 Q1445.56 1571.45 1449.17 1571.45 Q1452.8 1571.45 1454.61 1567.91 Q1456.44 1564.34 1456.44 1557.23 Q1456.44 1550.11 1454.61 1546.56 Q1452.8 1543 1449.17 1543 M1449.17 1539.29 Q1454.98 1539.29 1458.04 1543.9 Q1461.11 1548.48 1461.11 1557.23 Q1461.11 1565.96 1458.04 1570.57 Q1454.98 1575.15 1449.17 1575.15 Q1443.36 1575.15 1440.28 1570.57 Q1437.23 1565.96 1437.23 1557.23 Q1437.23 1548.48 1440.28 1543.9 Q1443.36 1539.29 1449.17 1539.29 Z" fill="#000000" fill-rule="evenodd" fill-opacity="1" /><path clip-path="url(#clip290)" d="M 0 0 M1466.18 1568.6 L1471.07 1568.6 L1471.07 1574.48 L1466.18 1574.48 L1466.18 1568.6 Z" fill="#000000" fill-rule="evenodd" fill-opacity="1" /><path clip-path="url(#clip290)" d="M 0 0 M1474.96 1539.92 L1497.18 1539.92 L1497.18 1541.91 L1484.63 1574.48 L1479.75 1574.48 L1491.55 1543.86 L1474.96 1543.86 L1474.96 1539.92 Z" fill="#000000" fill-rule="evenodd" fill-opacity="1" /><path clip-path="url(#clip290)" d="M 0 0 M1512.25 1543 Q1508.64 1543 1506.81 1546.56 Q1505 1550.11 1505 1557.23 Q1505 1564.34 1506.81 1567.91 Q1508.64 1571.45 1512.25 1571.45 Q1515.88 1571.45 1517.69 1567.91 Q1519.52 1564.34 1519.52 1557.23 Q1519.52 1550.11 1517.69 1546.56 Q1515.88 1543 1512.25 1543 M1512.25 1539.29 Q1518.06 1539.29 1521.11 1543.9 Q1524.19 1548.48 1524.19 1557.23 Q1524.19 1565.96 1521.11 1570.57 Q1518.06 1575.15 1512.25 1575.15 Q1506.44 1575.15 1503.36 1570.57 Q1500.3 1565.96 1500.3 1557.23 Q1500.3 1548.48 1503.36 1543.9 Q1506.44 1539.29 1512.25 1539.29 Z" fill="#000000" fill-rule="evenodd" fill-opacity="1" /><path clip-path="url(#clip290)" d="M 0 0 M1847.36 1559.6 L1859.84 1559.6 L1859.84 1563.39 L1847.36 1563.39 L1847.36 1559.6 Z" fill="#000000" fill-rule="evenodd" fill-opacity="1" /><path clip-path="url(#clip290)" d="M 0 0 M1874.91 1543 Q1871.3 1543 1869.47 1546.56 Q1867.66 1550.11 1867.66 1557.23 Q1867.66 1564.34 1869.47 1567.91 Q1871.3 1571.45 1874.91 1571.45 Q1878.54 1571.45 1880.35 1567.91 Q1882.18 1564.34 1882.18 1557.23 Q1882.18 1550.11 1880.35 1546.56 Q1878.54 1543 1874.91 1543 M1874.91 1539.29 Q1880.72 1539.29 1883.77 1543.9 Q1886.85 1548.48 1886.85 1557.23 Q1886.85 1565.96 1883.77 1570.57 Q1880.72 1575.15 1874.91 1575.15 Q1869.1 1575.15 1866.02 1570.57 Q1862.96 1565.96 1862.96 1557.23 Q1862.96 1548.48 1866.02 1543.9 Q1869.1 1539.29 1874.91 1539.29 Z" fill="#000000" fill-rule="evenodd" fill-opacity="1" /><path clip-path="url(#clip290)" d="M 0 0 M1891.92 1568.6 L1896.81 1568.6 L1896.81 1574.48 L1891.92 1574.48 L1891.92 1568.6 Z" fill="#000000" fill-rule="evenodd" fill-opacity="1" /><path clip-path="url(#clip290)" d="M 0 0 M1912.45 1555.34 Q1909.31 1555.34 1907.45 1557.49 Q1905.63 1559.64 1905.63 1563.39 Q1905.63 1567.12 1907.45 1569.29 Q1909.31 1571.45 1912.45 1571.45 Q1915.6 1571.45 1917.43 1569.29 Q1919.28 1567.12 1919.28 1563.39 Q1919.28 1559.64 1917.43 1557.49 Q1915.6 1555.34 1912.45 1555.34 M1921.74 1540.68 L1921.74 1544.94 Q1919.98 1544.11 1918.17 1543.67 Q1916.39 1543.23 1914.63 1543.23 Q1910 1543.23 1907.55 1546.36 Q1905.12 1549.48 1904.77 1555.8 Q1906.14 1553.79 1908.2 1552.72 Q1910.26 1551.63 1912.73 1551.63 Q1917.94 1551.63 1920.95 1554.8 Q1923.98 1557.95 1923.98 1563.39 Q1923.98 1568.72 1920.83 1571.93 Q1917.69 1575.15 1912.45 1575.15 Q1906.46 1575.15 1903.29 1570.57 Q1900.12 1565.96 1900.12 1557.23 Q1900.12 1549.04 1904.01 1544.18 Q1907.89 1539.29 1914.45 1539.29 Q1916.2 1539.29 1917.99 1539.64 Q1919.79 1539.99 1921.74 1540.68 Z" fill="#000000" fill-rule="evenodd" fill-opacity="1" /><path clip-path="url(#clip290)" d="M 0 0 M1929.1 1539.92 L1947.45 1539.92 L1947.45 1543.86 L1933.38 1543.86 L1933.38 1552.33 Q1934.4 1551.98 1935.42 1551.82 Q1936.44 1551.63 1937.45 1551.63 Q1943.24 1551.63 1946.62 1554.8 Q1950 1557.98 1950 1563.39 Q1950 1568.97 1946.53 1572.07 Q1943.06 1575.15 1936.74 1575.15 Q1934.56 1575.15 1932.29 1574.78 Q1930.05 1574.41 1927.64 1573.67 L1927.64 1568.97 Q1929.72 1570.1 1931.95 1570.66 Q1934.17 1571.22 1936.64 1571.22 Q1940.65 1571.22 1942.99 1569.11 Q1945.32 1567 1945.32 1563.39 Q1945.32 1559.78 1942.99 1557.67 Q1940.65 1555.57 1936.64 1555.57 Q1934.77 1555.57 1932.89 1555.98 Q1931.04 1556.4 1929.1 1557.28 L1929.1 1539.92 Z" fill="#000000" fill-rule="evenodd" fill-opacity="1" /><path clip-path="url(#clip290)" d="M 0 0 M2272.64 1559.6 L2285.11 1559.6 L2285.11 1563.39 L2272.64 1563.39 L2272.64 1559.6 Z" fill="#000000" fill-rule="evenodd" fill-opacity="1" /><path clip-path="url(#clip290)" d="M 0 0 M2300.18 1543 Q2296.57 1543 2294.74 1546.56 Q2292.94 1550.11 2292.94 1557.23 Q2292.94 1564.34 2294.74 1567.91 Q2296.57 1571.45 2300.18 1571.45 Q2303.82 1571.45 2305.62 1567.91 Q2307.45 1564.34 2307.45 1557.23 Q2307.45 1550.11 2305.62 1546.56 Q2303.82 1543 2300.18 1543 M2300.18 1539.29 Q2305.99 1539.29 2309.05 1543.9 Q2312.13 1548.48 2312.13 1557.23 Q2312.13 1565.96 2309.05 1570.57 Q2305.99 1575.15 2300.18 1575.15 Q2294.37 1575.15 2291.29 1570.57 Q2288.24 1565.96 2288.24 1557.23 Q2288.24 1548.48 2291.29 1543.9 Q2294.37 1539.29 2300.18 1539.29 Z" fill="#000000" fill-rule="evenodd" fill-opacity="1" /><path clip-path="url(#clip290)" d="M 0 0 M2317.2 1568.6 L2322.08 1568.6 L2322.08 1574.48 L2317.2 1574.48 L2317.2 1568.6 Z" fill="#000000" fill-rule="evenodd" fill-opacity="1" /><path clip-path="url(#clip290)" d="M 0 0 M2337.73 1555.34 Q2334.58 1555.34 2332.73 1557.49 Q2330.9 1559.64 2330.9 1563.39 Q2330.9 1567.12 2332.73 1569.29 Q2334.58 1571.45 2337.73 1571.45 Q2340.88 1571.45 2342.71 1569.29 Q2344.56 1567.12 2344.56 1563.39 Q2344.56 1559.64 2342.71 1557.49 Q2340.88 1555.34 2337.73 1555.34 M2347.01 1540.68 L2347.01 1544.94 Q2345.25 1544.11 2343.45 1543.67 Q2341.66 1543.23 2339.91 1543.23 Q2335.28 1543.23 2332.82 1546.36 Q2330.39 1549.48 2330.04 1555.8 Q2331.41 1553.79 2333.47 1552.72 Q2335.53 1551.63 2338.01 1551.63 Q2343.22 1551.63 2346.22 1554.8 Q2349.26 1557.95 2349.26 1563.39 Q2349.26 1568.72 2346.11 1571.93 Q2342.96 1575.15 2337.73 1575.15 Q2331.73 1575.15 2328.56 1570.57 Q2325.39 1565.96 2325.39 1557.23 Q2325.39 1549.04 2329.28 1544.18 Q2333.17 1539.29 2339.72 1539.29 Q2341.48 1539.29 2343.26 1539.64 Q2345.07 1539.99 2347.01 1540.68 Z" fill="#000000" fill-rule="evenodd" fill-opacity="1" /><path clip-path="url(#clip290)" d="M 0 0 M2364.33 1543 Q2360.72 1543 2358.89 1546.56 Q2357.08 1550.11 2357.08 1557.23 Q2357.08 1564.34 2358.89 1567.91 Q2360.72 1571.45 2364.33 1571.45 Q2367.96 1571.45 2369.77 1567.91 Q2371.59 1564.34 2371.59 1557.23 Q2371.59 1550.11 2369.77 1546.56 Q2367.96 1543 2364.33 1543 M2364.33 1539.29 Q2370.14 1539.29 2373.19 1543.9 Q2376.27 1548.48 2376.27 1557.23 Q2376.27 1565.96 2373.19 1570.57 Q2370.14 1575.15 2364.33 1575.15 Q2358.52 1575.15 2355.44 1570.57 Q2352.38 1565.96 2352.38 1557.23 Q2352.38 1548.48 2355.44 1543.9 Q2358.52 1539.29 2364.33 1539.29 Z" fill="#000000" fill-rule="evenodd" fill-opacity="1" /><path clip-path="url(#clip290)" d="M 0 0 M14.0804 1465.1 Q10.4693 1465.1 8.64057 1468.66 Q6.83502 1472.2 6.83502 1479.33 Q6.83502 1486.44 8.64057 1490 Q10.4693 1493.55 14.0804 1493.55 Q17.7146 1493.55 19.5201 1490 Q21.3488 1486.44 21.3488 1479.33 Q21.3488 1472.2 19.5201 1468.66 Q17.7146 1465.1 14.0804 1465.1 M14.0804 1461.39 Q19.8905 1461.39 22.946 1466 Q26.0247 1470.58 26.0247 1479.33 Q26.0247 1488.06 22.946 1492.67 Q19.8905 1497.25 14.0804 1497.25 Q8.2702 1497.25 5.19151 1492.67 Q2.13597 1488.06 2.13597 1479.33 Q2.13597 1470.58 5.19151 1466 Q8.2702 1461.39 14.0804 1461.39 Z" fill="#000000" fill-rule="evenodd" fill-opacity="1" /><path clip-path="url(#clip290)" d="M 0 0 M31.0941 1490.7 L35.9784 1490.7 L35.9784 1496.58 L31.0941 1496.58 L31.0941 1490.7 Z" fill="#000000" fill-rule="evenodd" fill-opacity="1" /><path clip-path="url(#clip290)" d="M 0 0 M51.0477 1465.1 Q47.4367 1465.1 45.608 1468.66 Q43.8024 1472.2 43.8024 1479.33 Q43.8024 1486.44 45.608 1490 Q47.4367 1493.55 51.0477 1493.55 Q54.682 1493.55 56.4875 1490 Q58.3162 1486.44 58.3162 1479.33 Q58.3162 1472.2 56.4875 1468.66 Q54.682 1465.1 51.0477 1465.1 M51.0477 1461.39 Q56.8579 1461.39 59.9134 1466 Q62.9921 1470.58 62.9921 1479.33 Q62.9921 1488.06 59.9134 1492.67 Q56.8579 1497.25 51.0477 1497.25 Q45.2376 1497.25 42.1589 1492.67 Q39.1034 1488.06 39.1034 1479.33 Q39.1034 1470.58 42.1589 1466 Q45.2376 1461.39 51.0477 1461.39 Z" fill="#000000" fill-rule="evenodd" fill-opacity="1" /><path clip-path="url(#clip290)" d="M 0 0 M10.7007 1163.44 L27.0201 1163.44 L27.0201 1167.37 L5.07577 1167.37 L5.07577 1163.44 Q7.73779 1160.68 12.3211 1156.05 Q16.9276 1151.4 18.1081 1150.06 Q20.3535 1147.53 21.2331 1145.8 Q22.1359 1144.04 22.1359 1142.35 Q22.1359 1139.59 20.1914 1137.86 Q18.2701 1136.12 15.1683 1136.12 Q12.9692 1136.12 10.5156 1136.88 Q8.08501 1137.65 5.30725 1139.2 L5.30725 1134.48 Q8.13131 1133.34 10.585 1132.76 Q13.0387 1132.19 15.0757 1132.19 Q20.4461 1132.19 23.6405 1134.87 Q26.8349 1137.56 26.8349 1142.05 Q26.8349 1144.18 26.0247 1146.1 Q25.2377 1148 23.1312 1150.59 Q22.5525 1151.26 19.4507 1154.48 Q16.3489 1157.67 10.7007 1163.44 Z" fill="#000000" fill-rule="evenodd" fill-opacity="1" /><path clip-path="url(#clip290)" d="M 0 0 M32.0895 1161.49 L36.9737 1161.49 L36.9737 1167.37 L32.0895 1167.37 L32.0895 1161.49 Z" fill="#000000" fill-rule="evenodd" fill-opacity="1" /><path clip-path="url(#clip290)" d="M 0 0 M42.0895 1132.81 L60.4458 1132.81 L60.4458 1136.75 L46.3718 1136.75 L46.3718 1145.22 Q47.3904 1144.87 48.4089 1144.71 Q49.4274 1144.52 50.4459 1144.52 Q56.2329 1144.52 59.6125 1147.7 Q62.9921 1150.87 62.9921 1156.28 Q62.9921 1161.86 59.5199 1164.96 Q56.0477 1168.04 49.7283 1168.04 Q47.5524 1168.04 45.2839 1167.67 Q43.0385 1167.3 40.6311 1166.56 L40.6311 1161.86 Q42.7145 1163 44.9367 1163.55 Q47.1589 1164.11 49.6357 1164.11 Q53.6403 1164.11 55.9783 1162 Q58.3162 1159.89 58.3162 1156.28 Q58.3162 1152.67 55.9783 1150.57 Q53.6403 1148.46 49.6357 1148.46 Q47.7607 1148.46 45.8857 1148.88 Q44.0339 1149.29 42.0895 1150.17 L42.0895 1132.81 Z" fill="#000000" fill-rule="evenodd" fill-opacity="1" /><path clip-path="url(#clip290)" d="M 0 0 M5.12207 803.604 L23.4784 803.604 L23.4784 807.539 L9.40445 807.539 L9.40445 816.012 Q10.423 815.664 11.4415 815.502 Q12.46 815.317 13.4785 815.317 Q19.2655 815.317 22.6451 818.488 Q26.0247 821.66 26.0247 827.076 Q26.0247 832.655 22.5525 835.757 Q19.0803 838.836 12.7609 838.836 Q10.585 838.836 8.31649 838.465 Q6.07113 838.095 3.66374 837.354 L3.66374 832.655 Q5.74706 833.789 7.96927 834.345 Q10.1915 834.9 12.6683 834.9 Q16.6729 834.9 19.0109 832.794 Q21.3488 830.687 21.3488 827.076 Q21.3488 823.465 19.0109 821.359 Q16.6729 819.252 12.6683 819.252 Q10.7933 819.252 8.91834 819.669 Q7.0665 820.086 5.12207 820.965 L5.12207 803.604 Z" fill="#000000" fill-rule="evenodd" fill-opacity="1" /><path clip-path="url(#clip290)" d="M 0 0 M31.0941 832.285 L35.9784 832.285 L35.9784 838.164 L31.0941 838.164 L31.0941 832.285 Z" fill="#000000" fill-rule="evenodd" fill-opacity="1" /><path clip-path="url(#clip290)" d="M 0 0 M51.0477 806.683 Q47.4367 806.683 45.608 810.248 Q43.8024 813.789 43.8024 820.919 Q43.8024 828.025 45.608 831.59 Q47.4367 835.132 51.0477 835.132 Q54.682 835.132 56.4875 831.59 Q58.3162 828.025 58.3162 820.919 Q58.3162 813.789 56.4875 810.248 Q54.682 806.683 51.0477 806.683 M51.0477 802.979 Q56.8579 802.979 59.9134 807.586 Q62.9921 812.169 62.9921 820.919 Q62.9921 829.646 59.9134 834.252 Q56.8579 838.836 51.0477 838.836 Q45.2376 838.836 42.1589 834.252 Q39.1034 829.646 39.1034 820.919 Q39.1034 812.169 42.1589 807.586 Q45.2376 802.979 51.0477 802.979 Z" fill="#000000" fill-rule="evenodd" fill-opacity="1" /><path clip-path="url(#clip290)" d="M 0 0 M4.79799 474.398 L27.0201 474.398 L27.0201 476.388 L14.4739 508.958 L9.58963 508.958 L21.3951 478.333 L4.79799 478.333 L4.79799 474.398 Z" fill="#000000" fill-rule="evenodd" fill-opacity="1" /><path clip-path="url(#clip290)" d="M 0 0 M32.0895 503.078 L36.9737 503.078 L36.9737 508.958 L32.0895 508.958 L32.0895 503.078 Z" fill="#000000" fill-rule="evenodd" fill-opacity="1" /><path clip-path="url(#clip290)" d="M 0 0 M42.0895 474.398 L60.4458 474.398 L60.4458 478.333 L46.3718 478.333 L46.3718 486.805 Q47.3904 486.458 48.4089 486.296 Q49.4274 486.11 50.4459 486.11 Q56.2329 486.11 59.6125 489.282 Q62.9921 492.453 62.9921 497.87 Q62.9921 503.448 59.5199 506.55 Q56.0477 509.629 49.7283 509.629 Q47.5524 509.629 45.2839 509.258 Q43.0385 508.888 40.6311 508.147 L40.6311 503.448 Q42.7145 504.583 44.9367 505.138 Q47.1589 505.694 49.6357 505.694 Q53.6403 505.694 55.9783 503.587 Q58.3162 501.481 58.3162 497.87 Q58.3162 494.259 55.9783 492.152 Q53.6403 490.046 49.6357 490.046 Q47.7607 490.046 45.8857 490.462 Q44.0339 490.879 42.0895 491.759 L42.0895 474.398 Z" fill="#000000" fill-rule="evenodd" fill-opacity="1" /><path clip-path="url(#clip290)" d="M 0 0 M-20.8963 175.816 L-13.2575 175.816 L-13.2575 149.45 L-21.5676 151.117 L-21.5676 146.857 L-13.3038 145.191 L-8.62786 145.191 L-8.62786 175.816 L-0.989013 175.816 L-0.989013 179.751 L-20.8963 179.751 L-20.8963 175.816 Z" fill="#000000" fill-rule="evenodd" fill-opacity="1" /><path clip-path="url(#clip290)" d="M 0 0 M14.0804 148.27 Q10.4693 148.27 8.64057 151.834 Q6.83502 155.376 6.83502 162.506 Q6.83502 169.612 8.64057 173.177 Q10.4693 176.718 14.0804 176.718 Q17.7146 176.718 19.5201 173.177 Q21.3488 169.612 21.3488 162.506 Q21.3488 155.376 19.5201 151.834 Q17.7146 148.27 14.0804 148.27 M14.0804 144.566 Q19.8905 144.566 22.946 149.172 Q26.0247 153.756 26.0247 162.506 Q26.0247 171.232 22.946 175.839 Q19.8905 180.422 14.0804 180.422 Q8.2702 180.422 5.19151 175.839 Q2.13597 171.232 2.13597 162.506 Q2.13597 153.756 5.19151 149.172 Q8.2702 144.566 14.0804 144.566 Z" fill="#000000" fill-rule="evenodd" fill-opacity="1" /><path clip-path="url(#clip290)" d="M 0 0 M31.0941 173.871 L35.9784 173.871 L35.9784 179.751 L31.0941 179.751 L31.0941 173.871 Z" fill="#000000" fill-rule="evenodd" fill-opacity="1" /><path clip-path="url(#clip290)" d="M 0 0 M51.0477 148.27 Q47.4367 148.27 45.608 151.834 Q43.8024 155.376 43.8024 162.506 Q43.8024 169.612 45.608 173.177 Q47.4367 176.718 51.0477 176.718 Q54.682 176.718 56.4875 173.177 Q58.3162 169.612 58.3162 162.506 Q58.3162 155.376 56.4875 151.834 Q54.682 148.27 51.0477 148.27 M51.0477 144.566 Q56.8579 144.566 59.9134 149.172 Q62.9921 153.756 62.9921 162.506 Q62.9921 171.232 59.9134 175.839 Q56.8579 180.422 51.0477 180.422 Q45.2376 180.422 42.1589 175.839 Q39.1034 171.232 39.1034 162.506 Q39.1034 153.756 42.1589 149.172 Q45.2376 144.566 51.0477 144.566 Z" fill="#000000" fill-rule="evenodd" fill-opacity="1" /><path clip-path="url(#clip292)" d="
M151.118 1474.02 L157.029 1473.4 L162.941 1472.76 L168.853 1472.11 L174.764 1471.46 L180.676 1470.82 L186.588 1470.2 L192.499 1469.61 L198.411 1469.05 L204.323 1468.54 
  L210.234 1468.07 L216.146 1467.64 L222.058 1467.26 L227.969 1466.92 L233.881 1466.61 L239.793 1466.33 L245.704 1466.05 L251.616 1465.77 L257.528 1465.47 L263.44 1465.15 
  L269.351 1464.78 L275.263 1464.36 L281.175 1463.88 L287.086 1463.34 L292.998 1462.74 L298.91 1462.07 L304.821 1461.35 L310.733 1460.57 L316.645 1459.73 L322.556 1458.85 
  L328.468 1457.93 L334.38 1456.96 L340.291 1455.95 L346.203 1454.9 L352.115 1453.79 L358.027 1452.61 L363.938 1451.36 L369.85 1450.01 L375.762 1448.55 L381.673 1446.97 
  L387.585 1445.25 L393.497 1443.37 L399.408 1441.33 L405.32 1439.11 L411.232 1436.72 L417.143 1434.16 L423.055 1431.44 L428.967 1428.57 L434.878 1425.57 L440.79 1422.45 
  L446.702 1419.23 L452.613 1415.94 L458.525 1412.59 L464.437 1409.19 L470.349 1405.76 L476.26 1402.3 L482.172 1398.8 L488.084 1395.27 L493.995 1391.69 L499.907 1388.04 
  L505.819 1384.31 L511.73 1380.48 L517.642 1376.52 L523.554 1372.41 L529.465 1368.12 L535.377 1363.64 L541.289 1358.95 L547.2 1354.02 L553.112 1348.86 L559.024 1343.46 
  L564.935 1337.82 L570.847 1331.94 L576.759 1325.84 L582.671 1319.54 L588.582 1313.06 L594.494 1306.42 L600.406 1299.67 L606.317 1292.86 L612.229 1286.02 L618.141 1279.24 
  L624.052 1272.56 L629.964 1266.07 L635.876 1259.85 L641.787 1253.96 L647.699 1248.48 L653.611 1243.47 L659.522 1238.98 L665.434 1235.01 L671.346 1231.58 L677.258 1228.63 
  L683.169 1226.12 L689.081 1223.96 L694.993 1222.02 L700.904 1220.18 L706.816 1218.3 L712.728 1216.25 L718.639 1213.9 L724.551 1211.15 L730.463 1207.91 L736.374 1204.16 
  L736.374 1479.3 L730.463 1479.3 L724.551 1479.3 L718.639 1479.3 L712.728 1479.3 L706.816 1479.3 L700.904 1479.3 L694.993 1479.3 L689.081 1479.3 L683.169 1479.3 
  L677.258 1479.3 L671.346 1479.3 L665.434 1479.3 L659.522 1479.3 L653.611 1479.3 L647.699 1479.3 L641.787 1479.3 L635.876 1479.3 L629.964 1479.3 L624.052 1479.3 
  L618.141 1479.3 L612.229 1479.3 L606.317 1479.3 L600.406 1479.3 L594.494 1479.3 L588.582 1479.3 L582.671 1479.3 L576.759 1479.3 L570.847 1479.3 L564.935 1479.3 
  L559.024 1479.3 L553.112 1479.3 L547.2 1479.3 L541.289 1479.3 L535.377 1479.3 L529.465 1479.3 L523.554 1479.3 L517.642 1479.3 L511.73 1479.3 L505.819 1479.3 
  L499.907 1479.3 L493.995 1479.3 L488.084 1479.3 L482.172 1479.3 L476.26 1479.3 L470.349 1479.3 L464.437 1479.3 L458.525 1479.3 L452.613 1479.3 L446.702 1479.3 
  L440.79 1479.3 L434.878 1479.3 L428.967 1479.3 L423.055 1479.3 L417.143 1479.3 L411.232 1479.3 L405.32 1479.3 L399.408 1479.3 L393.497 1479.3 L387.585 1479.3 
  L381.673 1479.3 L375.762 1479.3 L369.85 1479.3 L363.938 1479.3 L358.027 1479.3 L352.115 1479.3 L346.203 1479.3 L340.291 1479.3 L334.38 1479.3 L328.468 1479.3 
  L322.556 1479.3 L316.645 1479.3 L310.733 1479.3 L304.821 1479.3 L298.91 1479.3 L292.998 1479.3 L287.086 1479.3 L281.175 1479.3 L275.263 1479.3 L269.351 1479.3 
  L263.44 1479.3 L257.528 1479.3 L251.616 1479.3 L245.704 1479.3 L239.793 1479.3 L233.881 1479.3 L227.969 1479.3 L222.058 1479.3 L216.146 1479.3 L210.234 1479.3 
  L204.323 1479.3 L198.411 1479.3 L192.499 1479.3 L186.588 1479.3 L180.676 1479.3 L174.764 1479.3 L168.853 1479.3 L162.941 1479.3 L157.029 1479.3 L151.118 1479.3 
   Z
  " fill="#ffa500" fill-rule="evenodd" fill-opacity="0.5"/>
<polyline clip-path="url(#clip292)" style="stroke:#ffa500; stroke-width:4; stroke-opacity:1; fill:none" points="
  151.118,1474.02 157.029,1473.4 162.941,1472.76 168.853,1472.11 174.764,1471.46 180.676,1470.82 186.588,1470.2 192.499,1469.61 198.411,1469.05 204.323,1468.54 
  210.234,1468.07 216.146,1467.64 222.058,1467.26 227.969,1466.92 233.881,1466.61 239.793,1466.33 245.704,1466.05 251.616,1465.77 257.528,1465.47 263.44,1465.15 
  269.351,1464.78 275.263,1464.36 281.175,1463.88 287.086,1463.34 292.998,1462.74 298.91,1462.07 304.821,1461.35 310.733,1460.57 316.645,1459.73 322.556,1458.85 
  328.468,1457.93 334.38,1456.96 340.291,1455.95 346.203,1454.9 352.115,1453.79 358.027,1452.61 363.938,1451.36 369.85,1450.01 375.762,1448.55 381.673,1446.97 
  387.585,1445.25 393.497,1443.37 399.408,1441.33 405.32,1439.11 411.232,1436.72 417.143,1434.16 423.055,1431.44 428.967,1428.57 434.878,1425.57 440.79,1422.45 
  446.702,1419.23 452.613,1415.94 458.525,1412.59 464.437,1409.19 470.349,1405.76 476.26,1402.3 482.172,1398.8 488.084,1395.27 493.995,1391.69 499.907,1388.04 
  505.819,1384.31 511.73,1380.48 517.642,1376.52 523.554,1372.41 529.465,1368.12 535.377,1363.64 541.289,1358.95 547.2,1354.02 553.112,1348.86 559.024,1343.46 
  564.935,1337.82 570.847,1331.94 576.759,1325.84 582.671,1319.54 588.582,1313.06 594.494,1306.42 600.406,1299.67 606.317,1292.86 612.229,1286.02 618.141,1279.24 
  624.052,1272.56 629.964,1266.07 635.876,1259.85 641.787,1253.96 647.699,1248.48 653.611,1243.47 659.522,1238.98 665.434,1235.01 671.346,1231.58 677.258,1228.63 
  683.169,1226.12 689.081,1223.96 694.993,1222.02 700.904,1220.18 706.816,1218.3 712.728,1216.25 718.639,1213.9 724.551,1211.15 730.463,1207.91 736.374,1204.16 
  
  "/>
<path clip-path="url(#clip292)" d="
M736.374 1204.16 L748.085 1195.18 L759.795 1184.45 L771.505 1172.63 L783.215 1160.44 L794.926 1148.41 L806.636 1136.71 L818.346 1125.07 L830.056 1112.86 L841.767 1099.25 
  L853.477 1083.33 L865.187 1064.26 L876.897 1041.35 L888.607 1014.16 L900.318 982.567 L912.028 946.834 L923.738 907.738 L935.448 866.631 L947.159 825.422 L958.869 786.403 
  L970.579 751.892 L982.289 723.756 L994 702.932 L1005.71 689.108 L1017.42 680.716 L1029.13 675.24 L1040.84 669.761 L1052.55 661.554 L1064.26 648.548 L1075.97 629.551 
  L1087.68 604.224 L1099.39 572.933 L1111.1 536.552 L1122.81 496.325 L1134.52 453.774 L1146.23 410.614 L1157.94 368.635 L1169.65 329.53 L1181.36 294.713 L1193.07 265.178 
  L1204.78 241.418 L1216.49 223.425 L1228.2 210.741 L1239.91 202.519 L1251.62 197.601 L1263.34 194.6 L1275.05 192.027 L1286.76 188.462 L1298.47 182.759 L1310.18 174.241 
  L1321.89 162.83 L1333.6 149.071 L1345.31 134.035 L1357.02 119.119 L1368.73 105.828 L1380.44 95.5839 L1392.15 89.6201 L1403.86 88.9544 L1415.57 94.3982 L1427.28 106.539 
  L1438.99 125.658 L1450.7 151.576 L1462.41 183.511 L1474.12 220.004 L1485.83 259.007 L1497.54 298.154 L1509.25 335.166 L1520.96 368.307 L1532.67 396.753 L1544.38 420.779 
  L1556.09 441.682 L1567.8 461.472 L1579.51 482.376 L1591.22 506.312 L1602.93 534.449 L1614.64 566.979 L1626.35 603.14 L1638.06 641.467 L1649.77 680.17 L1661.48 717.526 
  L1673.19 752.163 L1684.9 783.183 L1696.61 810.123 L1708.32 832.833 L1720.03 851.336 L1731.74 865.747 L1743.45 876.283 L1755.17 883.335 L1766.88 887.571 L1778.59 889.996 
  L1790.3 891.939 L1802.01 894.948 L1813.72 900.595 L1825.43 910.243 L1837.14 924.813 L1848.85 944.626 L1860.56 969.34 L1872.27 998.027 L1883.98 1029.34 L1895.69 1061.74 
  L1895.69 1479.3 L1883.98 1479.3 L1872.27 1479.3 L1860.56 1479.3 L1848.85 1479.3 L1837.14 1479.3 L1825.43 1479.3 L1813.72 1479.3 L1802.01 1479.3 L1790.3 1479.3 
  L1778.59 1479.3 L1766.88 1479.3 L1755.17 1479.3 L1743.45 1479.3 L1731.74 1479.3 L1720.03 1479.3 L1708.32 1479.3 L1696.61 1479.3 L1684.9 1479.3 L1673.19 1479.3 
  L1661.48 1479.3 L1649.77 1479.3 L1638.06 1479.3 L1626.35 1479.3 L1614.64 1479.3 L1602.93 1479.3 L1591.22 1479.3 L1579.51 1479.3 L1567.8 1479.3 L1556.09 1479.3 
  L1544.38 1479.3 L1532.67 1479.3 L1520.96 1479.3 L1509.25 1479.3 L1497.54 1479.3 L1485.83 1479.3 L1474.12 1479.3 L1462.41 1479.3 L1450.7 1479.3 L1438.99 1479.3 
  L1427.28 1479.3 L1415.57 1479.3 L1403.86 1479.3 L1392.15 1479.3 L1380.44 1479.3 L1368.73 1479.3 L1357.02 1479.3 L1345.31 1479.3 L1333.6 1479.3 L1321.89 1479.3 
  L1310.18 1479.3 L1298.47 1479.3 L1286.76 1479.3 L1275.05 1479.3 L1263.34 1479.3 L1251.62 1479.3 L1239.91 1479.3 L1228.2 1479.3 L1216.49 1479.3 L1204.78 1479.3 
  L1193.07 1479.3 L1181.36 1479.3 L1169.65 1479.3 L1157.94 1479.3 L1146.23 1479.3 L1134.52 1479.3 L1122.81 1479.3 L1111.1 1479.3 L1099.39 1479.3 L1087.68 1479.3 
  L1075.97 1479.3 L1064.26 1479.3 L1052.55 1479.3 L1040.84 1479.3 L1029.13 1479.3 L1017.42 1479.3 L1005.71 1479.3 L994 1479.3 L982.289 1479.3 L970.579 1479.3 
  L958.869 1479.3 L947.159 1479.3 L935.448 1479.3 L923.738 1479.3 L912.028 1479.3 L900.318 1479.3 L888.607 1479.3 L876.897 1479.3 L865.187 1479.3 L853.477 1479.3 
  L841.767 1479.3 L830.056 1479.3 L818.346 1479.3 L806.636 1479.3 L794.926 1479.3 L783.215 1479.3 L771.505 1479.3 L759.795 1479.3 L748.085 1479.3 L736.374 1479.3 
   Z
  " fill="#008000" fill-rule="evenodd" fill-opacity="0.5"/>
<polyline clip-path="url(#clip292)" style="stroke:#008000; stroke-width:4; stroke-opacity:1; fill:none" points="
  736.374,1204.16 748.085,1195.18 759.795,1184.45 771.505,1172.63 783.215,1160.44 794.926,1148.41 806.636,1136.71 818.346,1125.07 830.056,1112.86 841.767,1099.25 
  853.477,1083.33 865.187,1064.26 876.897,1041.35 888.607,1014.16 900.318,982.567 912.028,946.834 923.738,907.738 935.448,866.631 947.159,825.422 958.869,786.403 
  970.579,751.892 982.289,723.756 994,702.932 1005.71,689.108 1017.42,680.716 1029.13,675.24 1040.84,669.761 1052.55,661.554 1064.26,648.548 1075.97,629.551 
  1087.68,604.224 1099.39,572.933 1111.1,536.552 1122.81,496.325 1134.52,453.774 1146.23,410.614 1157.94,368.635 1169.65,329.53 1181.36,294.713 1193.07,265.178 
  1204.78,241.418 1216.49,223.425 1228.2,210.741 1239.91,202.519 1251.62,197.601 1263.34,194.6 1275.05,192.027 1286.76,188.462 1298.47,182.759 1310.18,174.241 
  1321.89,162.83 1333.6,149.071 1345.31,134.035 1357.02,119.119 1368.73,105.828 1380.44,95.5839 1392.15,89.6201 1403.86,88.9544 1415.57,94.3982 1427.28,106.539 
  1438.99,125.658 1450.7,151.576 1462.41,183.511 1474.12,220.004 1485.83,259.007 1497.54,298.154 1509.25,335.166 1520.96,368.307 1532.67,396.753 1544.38,420.779 
  1556.09,441.682 1567.8,461.472 1579.51,482.376 1591.22,506.312 1602.93,534.449 1614.64,566.979 1626.35,603.14 1638.06,641.467 1649.77,680.17 1661.48,717.526 
  1673.19,752.163 1684.9,783.183 1696.61,810.123 1708.32,832.833 1720.03,851.336 1731.74,865.747 1743.45,876.283 1755.17,883.335 1766.88,887.571 1778.59,889.996 
  1790.3,891.939 1802.01,894.948 1813.72,900.595 1825.43,910.243 1837.14,924.813 1848.85,944.626 1860.56,969.34 1872.27,998.027 1883.98,1029.34 1895.69,1061.74 
  
  "/>
<path clip-path="url(#clip292)" d="
M1895.69 1061.74 L1899.66 1072.7 L1903.63 1083.55 L1907.6 1094.26 L1911.56 1104.76 L1915.53 1115.03 L1919.5 1125.01 L1923.47 1134.69 L1927.44 1144.03 L1931.41 1153.02 
  L1935.38 1161.65 L1939.35 1169.89 L1943.32 1177.75 L1947.29 1185.23 L1951.26 1192.34 L1955.22 1199.09 L1959.19 1205.48 L1963.16 1211.55 L1967.13 1217.31 L1971.1 1222.78 
  L1975.07 1227.99 L1979.04 1232.96 L1983.01 1237.73 L1986.98 1242.3 L1990.95 1246.71 L1994.92 1250.98 L1998.88 1255.13 L2002.85 1259.17 L2006.82 1263.12 L2010.79 1267 
  L2014.76 1270.8 L2018.73 1274.55 L2022.7 1278.24 L2026.67 1281.88 L2030.64 1285.49 L2034.61 1289.06 L2038.58 1292.6 L2042.55 1296.12 L2046.51 1299.63 L2050.48 1303.12 
  L2054.45 1306.63 L2058.42 1310.14 L2062.39 1313.68 L2066.36 1317.25 L2070.33 1320.86 L2074.3 1324.53 L2078.27 1328.26 L2082.24 1332.05 L2086.21 1335.9 L2090.17 1339.83 
  L2094.14 1343.82 L2098.11 1347.87 L2102.08 1351.97 L2106.05 1356.11 L2110.02 1360.29 L2113.99 1364.48 L2117.96 1368.67 L2121.93 1372.86 L2125.9 1377.01 L2129.87 1381.12 
  L2133.83 1385.18 L2137.8 1389.16 L2141.77 1393.07 L2145.74 1396.88 L2149.71 1400.6 L2153.68 1404.21 L2157.65 1407.72 L2161.62 1411.11 L2165.59 1414.4 L2169.56 1417.57 
  L2173.53 1420.62 L2177.5 1423.57 L2181.46 1426.4 L2185.43 1429.13 L2189.4 1431.75 L2193.37 1434.26 L2197.34 1436.68 L2201.31 1438.99 L2205.28 1441.2 L2209.25 1443.32 
  L2213.22 1445.34 L2217.19 1447.27 L2221.16 1449.11 L2225.12 1450.87 L2229.09 1452.54 L2233.06 1454.13 L2237.03 1455.64 L2241 1457.07 L2244.97 1458.44 L2248.94 1459.74 
  L2252.91 1460.97 L2256.88 1462.15 L2260.85 1463.26 L2264.82 1464.33 L2268.78 1465.35 L2272.75 1466.32 L2276.72 1467.25 L2280.69 1468.13 L2284.66 1468.98 L2288.63 1469.78 
  L2288.63 1479.3 L2284.66 1479.3 L2280.69 1479.3 L2276.72 1479.3 L2272.75 1479.3 L2268.78 1479.3 L2264.82 1479.3 L2260.85 1479.3 L2256.88 1479.3 L2252.91 1479.3 
  L2248.94 1479.3 L2244.97 1479.3 L2241 1479.3 L2237.03 1479.3 L2233.06 1479.3 L2229.09 1479.3 L2225.12 1479.3 L2221.16 1479.3 L2217.19 1479.3 L2213.22 1479.3 
  L2209.25 1479.3 L2205.28 1479.3 L2201.31 1479.3 L2197.34 1479.3 L2193.37 1479.3 L2189.4 1479.3 L2185.43 1479.3 L2181.46 1479.3 L2177.5 1479.3 L2173.53 1479.3 
  L2169.56 1479.3 L2165.59 1479.3 L2161.62 1479.3 L2157.65 1479.3 L2153.68 1479.3 L2149.71 1479.3 L2145.74 1479.3 L2141.77 1479.3 L2137.8 1479.3 L2133.83 1479.3 
  L2129.87 1479.3 L2125.9 1479.3 L2121.93 1479.3 L2117.96 1479.3 L2113.99 1479.3 L2110.02 1479.3 L2106.05 1479.3 L2102.08 1479.3 L2098.11 1479.3 L2094.14 1479.3 
  L2090.17 1479.3 L2086.21 1479.3 L2082.24 1479.3 L2078.27 1479.3 L2074.3 1479.3 L2070.33 1479.3 L2066.36 1479.3 L2062.39 1479.3 L2058.42 1479.3 L2054.45 1479.3 
  L2050.48 1479.3 L2046.51 1479.3 L2042.55 1479.3 L2038.58 1479.3 L2034.61 1479.3 L2030.64 1479.3 L2026.67 1479.3 L2022.7 1479.3 L2018.73 1479.3 L2014.76 1479.3 
  L2010.79 1479.3 L2006.82 1479.3 L2002.85 1479.3 L1998.88 1479.3 L1994.92 1479.3 L1990.95 1479.3 L1986.98 1479.3 L1983.01 1479.3 L1979.04 1479.3 L1975.07 1479.3 
  L1971.1 1479.3 L1967.13 1479.3 L1963.16 1479.3 L1959.19 1479.3 L1955.22 1479.3 L1951.26 1479.3 L1947.29 1479.3 L1943.32 1479.3 L1939.35 1479.3 L1935.38 1479.3 
  L1931.41 1479.3 L1927.44 1479.3 L1923.47 1479.3 L1919.5 1479.3 L1915.53 1479.3 L1911.56 1479.3 L1907.6 1479.3 L1903.63 1479.3 L1899.66 1479.3 L1895.69 1479.3 
   Z
  " fill="#ffa500" fill-rule="evenodd" fill-opacity="0.5"/>
<polyline clip-path="url(#clip292)" style="stroke:#ffa500; stroke-width:4; stroke-opacity:1; fill:none" points="
  1895.69,1061.74 1899.66,1072.7 1903.63,1083.55 1907.6,1094.26 1911.56,1104.76 1915.53,1115.03 1919.5,1125.01 1923.47,1134.69 1927.44,1144.03 1931.41,1153.02 
  1935.38,1161.65 1939.35,1169.89 1943.32,1177.75 1947.29,1185.23 1951.26,1192.34 1955.22,1199.09 1959.19,1205.48 1963.16,1211.55 1967.13,1217.31 1971.1,1222.78 
  1975.07,1227.99 1979.04,1232.96 1983.01,1237.73 1986.98,1242.3 1990.95,1246.71 1994.92,1250.98 1998.88,1255.13 2002.85,1259.17 2006.82,1263.12 2010.79,1267 
  2014.76,1270.8 2018.73,1274.55 2022.7,1278.24 2026.67,1281.88 2030.64,1285.49 2034.61,1289.06 2038.58,1292.6 2042.55,1296.12 2046.51,1299.63 2050.48,1303.12 
  2054.45,1306.63 2058.42,1310.14 2062.39,1313.68 2066.36,1317.25 2070.33,1320.86 2074.3,1324.53 2078.27,1328.26 2082.24,1332.05 2086.21,1335.9 2090.17,1339.83 
  2094.14,1343.82 2098.11,1347.87 2102.08,1351.97 2106.05,1356.11 2110.02,1360.29 2113.99,1364.48 2117.96,1368.67 2121.93,1372.86 2125.9,1377.01 2129.87,1381.12 
  2133.83,1385.18 2137.8,1389.16 2141.77,1393.07 2145.74,1396.88 2149.71,1400.6 2153.68,1404.21 2157.65,1407.72 2161.62,1411.11 2165.59,1414.4 2169.56,1417.57 
  2173.53,1420.62 2177.5,1423.57 2181.46,1426.4 2185.43,1429.13 2189.4,1431.75 2193.37,1434.26 2197.34,1436.68 2201.31,1438.99 2205.28,1441.2 2209.25,1443.32 
  2213.22,1445.34 2217.19,1447.27 2221.16,1449.11 2225.12,1450.87 2229.09,1452.54 2233.06,1454.13 2237.03,1455.64 2241,1457.07 2244.97,1458.44 2248.94,1459.74 
  2252.91,1460.97 2256.88,1462.15 2260.85,1463.26 2264.82,1464.33 2268.78,1465.35 2272.75,1466.32 2276.72,1467.25 2280.69,1468.13 2284.66,1468.98 2288.63,1469.78 
  
  "/>
<polyline clip-path="url(#clip292)" style="stroke:#0000ff; stroke-width:4; stroke-opacity:1; fill:none" points="
  1339.15,1479.3 1339.15,142.016 
  "/>
<polyline clip-path="url(#clip292)" style="stroke:#000000; stroke-width:4; stroke-opacity:1; fill:none" points="
  1349.41,1479.3 1349.41,128.716 
  "/>
<path clip-path="url(#clip290)" d="
M1494.58 459.25 L2277.23 459.25 L2277.23 96.3696 L1494.58 96.3696  Z
  " fill="#ffffff" fill-rule="evenodd" fill-opacity="1"/>
<polyline clip-path="url(#clip290)" style="stroke:#000000; stroke-width:4; stroke-opacity:1; fill:none" points="
  1494.58,459.25 2277.23,459.25 2277.23,96.3696 1494.58,96.3696 1494.58,459.25 
  "/>
<path clip-path="url(#clip290)" d="
M1519.75 181.042 L1670.81 181.042 L1670.81 132.658 L1519.75 132.658 L1519.75 181.042  Z
  " fill="#ffa500" fill-rule="evenodd" fill-opacity="0.5"/>
<polyline clip-path="url(#clip290)" style="stroke:#ffa500; stroke-width:4; stroke-opacity:1; fill:none" points="
  1519.75,132.658 1670.81,132.658 
  "/>
<path clip-path="url(#clip290)" d="M 0 0 M1700.38 161.19 Q1700.38 165.889 1702.3 168.574 Q1704.24 171.236 1707.62 171.236 Q1711 171.236 1712.95 168.574 Q1714.89 165.889 1714.89 161.19 Q1714.89 156.491 1712.95 153.829 Q1711 151.144 1707.62 151.144 Q1704.24 151.144 1702.3 153.829 Q1700.38 156.491 1700.38 161.19 M1714.89 170.241 Q1713.55 172.555 1711.49 173.69 Q1709.45 174.801 1706.58 174.801 Q1701.88 174.801 1698.92 171.051 Q1695.98 167.301 1695.98 161.19 Q1695.98 155.079 1698.92 151.329 Q1701.88 147.579 1706.58 147.579 Q1709.45 147.579 1711.49 148.713 Q1713.55 149.824 1714.89 152.139 L1714.89 148.204 L1719.15 148.204 L1719.15 183.991 L1714.89 183.991 L1714.89 170.241 Z" fill="#000000" fill-rule="evenodd" fill-opacity="1" /><path clip-path="url(#clip290)" d="M 0 0 M1734.22 142.648 Q1730.61 142.648 1728.78 146.213 Q1726.98 149.755 1726.98 156.884 Q1726.98 163.991 1728.78 167.556 Q1730.61 171.097 1734.22 171.097 Q1737.85 171.097 1739.66 167.556 Q1741.49 163.991 1741.49 156.884 Q1741.49 149.755 1739.66 146.213 Q1737.85 142.648 1734.22 142.648 M1734.22 138.945 Q1740.03 138.945 1743.09 143.551 Q1746.17 148.134 1746.17 156.884 Q1746.17 165.611 1743.09 170.218 Q1740.03 174.801 1734.22 174.801 Q1728.41 174.801 1725.33 170.218 Q1722.28 165.611 1722.28 156.884 Q1722.28 148.134 1725.33 143.551 Q1728.41 138.945 1734.22 138.945 Z" fill="#000000" fill-rule="evenodd" fill-opacity="1" /><path clip-path="url(#clip290)" d="M 0 0 M1751.28 139.57 L1769.64 139.57 L1769.64 143.505 L1755.56 143.505 L1755.56 151.977 Q1756.58 151.63 1757.6 151.468 Q1758.62 151.282 1759.64 151.282 Q1765.42 151.282 1768.8 154.454 Q1772.18 157.625 1772.18 163.042 Q1772.18 168.62 1768.71 171.722 Q1765.24 174.801 1758.92 174.801 Q1756.74 174.801 1754.48 174.43 Q1752.23 174.06 1749.82 173.319 L1749.82 168.62 Q1751.91 169.755 1754.13 170.31 Q1756.35 170.866 1758.83 170.866 Q1762.83 170.866 1765.17 168.759 Q1767.51 166.653 1767.51 163.042 Q1767.51 159.431 1765.17 157.324 Q1762.83 155.218 1758.83 155.218 Q1756.95 155.218 1755.08 155.634 Q1753.23 156.051 1751.28 156.931 L1751.28 139.57 Z" fill="#000000" fill-rule="evenodd" fill-opacity="1" /><path clip-path="url(#clip290)" d="
M1519.75 241.522 L1670.81 241.522 L1670.81 193.138 L1519.75 193.138 L1519.75 241.522  Z
  " fill="#008000" fill-rule="evenodd" fill-opacity="0.5"/>
<polyline clip-path="url(#clip290)" style="stroke:#008000; stroke-width:4; stroke-opacity:1; fill:none" points="
  1519.75,193.138 1670.81,193.138 
  "/>
<path clip-path="url(#clip290)" d="M 0 0 M1698.2 233.892 L1698.2 229.633 Q1699.96 230.466 1701.77 230.906 Q1703.57 231.346 1705.31 231.346 Q1709.94 231.346 1712.37 228.244 Q1714.82 225.119 1715.17 218.776 Q1713.83 220.767 1711.77 221.832 Q1709.71 222.897 1707.21 222.897 Q1702.02 222.897 1698.99 219.772 Q1695.98 216.624 1695.98 211.184 Q1695.98 205.86 1699.13 202.642 Q1702.28 199.425 1707.51 199.425 Q1713.5 199.425 1716.65 204.031 Q1719.82 208.614 1719.82 217.364 Q1719.82 225.536 1715.93 230.42 Q1712.07 235.281 1705.52 235.281 Q1703.76 235.281 1701.95 234.934 Q1700.15 234.586 1698.2 233.892 M1707.51 219.239 Q1710.66 219.239 1712.48 217.086 Q1714.34 214.934 1714.34 211.184 Q1714.34 207.457 1712.48 205.304 Q1710.66 203.128 1707.51 203.128 Q1704.36 203.128 1702.51 205.304 Q1700.68 207.457 1700.68 211.184 Q1700.68 214.934 1702.51 217.086 Q1704.36 219.239 1707.51 219.239 Z" fill="#000000" fill-rule="evenodd" fill-opacity="1" /><path clip-path="url(#clip290)" d="M 0 0 M1734.89 203.128 Q1731.28 203.128 1729.45 206.693 Q1727.65 210.235 1727.65 217.364 Q1727.65 224.471 1729.45 228.036 Q1731.28 231.577 1734.89 231.577 Q1738.53 231.577 1740.33 228.036 Q1742.16 224.471 1742.16 217.364 Q1742.16 210.235 1740.33 206.693 Q1738.53 203.128 1734.89 203.128 M1734.89 199.425 Q1740.7 199.425 1743.76 204.031 Q1746.84 208.614 1746.84 217.364 Q1746.84 226.091 1743.76 230.698 Q1740.7 235.281 1734.89 235.281 Q1729.08 235.281 1726 230.698 Q1722.95 226.091 1722.95 217.364 Q1722.95 208.614 1726 204.031 Q1729.08 199.425 1734.89 199.425 Z" fill="#000000" fill-rule="evenodd" fill-opacity="1" /><path clip-path="url(#clip290)" d="M 0 0 M1781.3 219.401 Q1779.29 219.401 1778.13 221.114 Q1777 222.827 1777 225.883 Q1777 228.892 1778.13 230.628 Q1779.29 232.341 1781.3 232.341 Q1783.27 232.341 1784.41 230.628 Q1785.56 228.892 1785.56 225.883 Q1785.56 222.85 1784.41 221.137 Q1783.27 219.401 1781.3 219.401 M1781.3 216.462 Q1784.96 216.462 1787.11 219.008 Q1789.27 221.554 1789.27 225.883 Q1789.27 230.211 1787.09 232.758 Q1784.94 235.281 1781.3 235.281 Q1777.6 235.281 1775.45 232.758 Q1773.29 230.211 1773.29 225.883 Q1773.29 221.531 1775.45 219.008 Q1777.62 216.462 1781.3 216.462 M1757.42 202.364 Q1755.42 202.364 1754.27 204.1 Q1753.13 205.813 1753.13 208.823 Q1753.13 211.878 1754.27 213.591 Q1755.4 215.304 1757.42 215.304 Q1759.43 215.304 1760.56 213.591 Q1761.72 211.878 1761.72 208.823 Q1761.72 205.837 1760.56 204.1 Q1759.41 202.364 1757.42 202.364 M1778.32 199.425 L1782.02 199.425 L1760.4 235.281 L1756.7 235.281 L1778.32 199.425 M1757.42 199.425 Q1761.07 199.425 1763.25 201.971 Q1765.42 204.494 1765.42 208.823 Q1765.42 213.198 1763.25 215.721 Q1761.1 218.244 1757.42 218.244 Q1753.73 218.244 1751.58 215.721 Q1749.45 213.174 1749.45 208.823 Q1749.45 204.517 1751.6 201.971 Q1753.76 199.425 1757.42 199.425 Z" fill="#000000" fill-rule="evenodd" fill-opacity="1" /><path clip-path="url(#clip290)" d="M 0 0 M1830.35 218.961 L1830.35 234.61 L1826.1 234.61 L1826.1 219.1 Q1826.1 215.42 1824.66 213.591 Q1823.22 211.762 1820.35 211.762 Q1816.91 211.762 1814.91 213.962 Q1812.92 216.161 1812.92 219.957 L1812.92 234.61 L1808.64 234.61 L1808.64 208.684 L1812.92 208.684 L1812.92 212.712 Q1814.45 210.374 1816.51 209.216 Q1818.6 208.059 1821.3 208.059 Q1825.77 208.059 1828.06 210.837 Q1830.35 213.591 1830.35 218.961 Z" fill="#000000" fill-rule="evenodd" fill-opacity="1" /><path clip-path="url(#clip290)" d="M 0 0 M1844.87 211.67 Q1841.44 211.67 1839.45 214.355 Q1837.46 217.017 1837.46 221.67 Q1837.46 226.323 1839.43 229.008 Q1841.42 231.67 1844.87 231.67 Q1848.27 231.67 1850.26 228.985 Q1852.25 226.299 1852.25 221.67 Q1852.25 217.063 1850.26 214.378 Q1848.27 211.67 1844.87 211.67 M1844.87 208.059 Q1850.42 208.059 1853.6 211.67 Q1856.77 215.281 1856.77 221.67 Q1856.77 228.036 1853.6 231.67 Q1850.42 235.281 1844.87 235.281 Q1839.29 235.281 1836.12 231.67 Q1832.97 228.036 1832.97 221.67 Q1832.97 215.281 1836.12 211.67 Q1839.29 208.059 1844.87 208.059 Z" fill="#000000" fill-rule="evenodd" fill-opacity="1" /><path clip-path="url(#clip290)" d="M 0 0 M1882.78 218.961 L1882.78 234.61 L1878.53 234.61 L1878.53 219.1 Q1878.53 215.42 1877.09 213.591 Q1875.66 211.762 1872.78 211.762 Q1869.34 211.762 1867.35 213.962 Q1865.35 216.161 1865.35 219.957 L1865.35 234.61 L1861.07 234.61 L1861.07 208.684 L1865.35 208.684 L1865.35 212.712 Q1866.88 210.374 1868.94 209.216 Q1871.03 208.059 1873.73 208.059 Q1878.2 208.059 1880.49 210.837 Q1882.78 213.591 1882.78 218.961 Z" fill="#000000" fill-rule="evenodd" fill-opacity="1" /><path clip-path="url(#clip290)" d="M 0 0 M1885.1 219.725 L1897.58 219.725 L1897.58 223.522 L1885.1 223.522 L1885.1 219.725 Z" fill="#000000" fill-rule="evenodd" fill-opacity="1" /><path clip-path="url(#clip290)" d="M 0 0 M1917.07 212.665 Q1916.35 212.249 1915.49 212.063 Q1914.66 211.855 1913.64 211.855 Q1910.03 211.855 1908.09 214.216 Q1906.16 216.554 1906.16 220.952 L1906.16 234.61 L1901.88 234.61 L1901.88 208.684 L1906.16 208.684 L1906.16 212.712 Q1907.51 210.35 1909.66 209.216 Q1911.81 208.059 1914.89 208.059 Q1915.33 208.059 1915.86 208.128 Q1916.4 208.175 1917.04 208.29 L1917.07 212.665 Z" fill="#000000" fill-rule="evenodd" fill-opacity="1" /><path clip-path="url(#clip290)" d="M 0 0 M1942.67 220.582 L1942.67 222.665 L1923.09 222.665 Q1923.36 227.063 1925.72 229.378 Q1928.11 231.67 1932.34 231.67 Q1934.8 231.67 1937.09 231.068 Q1939.4 230.466 1941.67 229.262 L1941.67 233.29 Q1939.38 234.262 1936.97 234.772 Q1934.57 235.281 1932.09 235.281 Q1925.89 235.281 1922.25 231.67 Q1918.64 228.059 1918.64 221.901 Q1918.64 215.536 1922.07 211.809 Q1925.52 208.059 1931.35 208.059 Q1936.58 208.059 1939.61 211.438 Q1942.67 214.795 1942.67 220.582 M1938.41 219.332 Q1938.36 215.837 1936.44 213.753 Q1934.54 211.67 1931.4 211.67 Q1927.83 211.67 1925.68 213.684 Q1923.55 215.698 1923.22 219.355 L1938.41 219.332 Z" fill="#000000" fill-rule="evenodd" fill-opacity="1" /><path clip-path="url(#clip290)" d="M 0 0 M1947.14 208.684 L1951.4 208.684 L1951.4 235.073 Q1951.4 240.026 1949.5 242.248 Q1947.62 244.471 1943.43 244.471 L1941.81 244.471 L1941.81 240.86 L1942.95 240.86 Q1945.38 240.86 1946.26 239.725 Q1947.14 238.614 1947.14 235.073 L1947.14 208.684 M1947.14 198.591 L1951.4 198.591 L1951.4 203.985 L1947.14 203.985 L1947.14 198.591 Z" fill="#000000" fill-rule="evenodd" fill-opacity="1" /><path clip-path="url(#clip290)" d="M 0 0 M1978.04 220.582 L1978.04 222.665 L1958.46 222.665 Q1958.73 227.063 1961.09 229.378 Q1963.48 231.67 1967.71 231.67 Q1970.17 231.67 1972.46 231.068 Q1974.78 230.466 1977.04 229.262 L1977.04 233.29 Q1974.75 234.262 1972.34 234.772 Q1969.94 235.281 1967.46 235.281 Q1961.26 235.281 1957.62 231.67 Q1954.01 228.059 1954.01 221.901 Q1954.01 215.536 1957.44 211.809 Q1960.89 208.059 1966.72 208.059 Q1971.95 208.059 1974.98 211.438 Q1978.04 214.795 1978.04 220.582 M1973.78 219.332 Q1973.73 215.837 1971.81 213.753 Q1969.91 211.67 1966.77 211.67 Q1963.2 211.67 1961.05 213.684 Q1958.92 215.698 1958.59 219.355 L1973.78 219.332 Z" fill="#000000" fill-rule="evenodd" fill-opacity="1" /><path clip-path="url(#clip290)" d="M 0 0 M2001.16 209.679 L2001.16 213.661 Q1999.36 212.665 1997.53 212.179 Q1995.72 211.67 1993.87 211.67 Q1989.73 211.67 1987.44 214.309 Q1985.15 216.924 1985.15 221.67 Q1985.15 226.415 1987.44 229.054 Q1989.73 231.67 1993.87 231.67 Q1995.72 231.67 1997.53 231.184 Q1999.36 230.674 2001.16 229.679 L2001.16 233.614 Q1999.38 234.448 1997.46 234.864 Q1995.56 235.281 1993.41 235.281 Q1987.55 235.281 1984.1 231.6 Q1980.65 227.92 1980.65 221.67 Q1980.65 215.327 1984.13 211.693 Q1987.62 208.059 1993.69 208.059 Q1995.65 208.059 1997.53 208.475 Q1999.4 208.869 2001.16 209.679 Z" fill="#000000" fill-rule="evenodd" fill-opacity="1" /><path clip-path="url(#clip290)" d="M 0 0 M2009.84 201.323 L2009.84 208.684 L2018.62 208.684 L2018.62 211.994 L2009.84 211.994 L2009.84 226.068 Q2009.84 229.239 2010.7 230.142 Q2011.58 231.045 2014.24 231.045 L2018.62 231.045 L2018.62 234.61 L2014.24 234.61 Q2009.31 234.61 2007.44 232.781 Q2005.56 230.929 2005.56 226.068 L2005.56 211.994 L2002.44 211.994 L2002.44 208.684 L2005.56 208.684 L2005.56 201.323 L2009.84 201.323 Z" fill="#000000" fill-rule="evenodd" fill-opacity="1" /><path clip-path="url(#clip290)" d="M 0 0 M2023.08 208.684 L2027.34 208.684 L2027.34 234.61 L2023.08 234.61 L2023.08 208.684 M2023.08 198.591 L2027.34 198.591 L2027.34 203.985 L2023.08 203.985 L2023.08 198.591 Z" fill="#000000" fill-rule="evenodd" fill-opacity="1" /><path clip-path="url(#clip290)" d="M 0 0 M2041.86 211.67 Q2038.43 211.67 2036.44 214.355 Q2034.45 217.017 2034.45 221.67 Q2034.45 226.323 2036.42 229.008 Q2038.41 231.67 2041.86 231.67 Q2045.26 231.67 2047.25 228.985 Q2049.24 226.299 2049.24 221.67 Q2049.24 217.063 2047.25 214.378 Q2045.26 211.67 2041.86 211.67 M2041.86 208.059 Q2047.41 208.059 2050.58 211.67 Q2053.76 215.281 2053.76 221.67 Q2053.76 228.036 2050.58 231.67 Q2047.41 235.281 2041.86 235.281 Q2036.28 235.281 2033.11 231.67 Q2029.96 228.036 2029.96 221.67 Q2029.96 215.281 2033.11 211.67 Q2036.28 208.059 2041.86 208.059 Z" fill="#000000" fill-rule="evenodd" fill-opacity="1" /><path clip-path="url(#clip290)" d="M 0 0 M2079.77 218.961 L2079.77 234.61 L2075.52 234.61 L2075.52 219.1 Q2075.52 215.42 2074.08 213.591 Q2072.64 211.762 2069.77 211.762 Q2066.33 211.762 2064.33 213.962 Q2062.34 216.161 2062.34 219.957 L2062.34 234.61 L2058.06 234.61 L2058.06 208.684 L2062.34 208.684 L2062.34 212.712 Q2063.87 210.374 2065.93 209.216 Q2068.02 208.059 2070.72 208.059 Q2075.19 208.059 2077.48 210.837 Q2079.77 213.591 2079.77 218.961 Z" fill="#000000" fill-rule="evenodd" fill-opacity="1" /><path clip-path="url(#clip290)" d="M 0 0 M2114.33 212.665 Q2113.62 212.249 2112.76 212.063 Q2111.93 211.855 2110.91 211.855 Q2107.3 211.855 2105.35 214.216 Q2103.43 216.554 2103.43 220.952 L2103.43 234.61 L2099.15 234.61 L2099.15 208.684 L2103.43 208.684 L2103.43 212.712 Q2104.77 210.35 2106.93 209.216 Q2109.08 208.059 2112.16 208.059 Q2112.6 208.059 2113.13 208.128 Q2113.66 208.175 2114.31 208.29 L2114.33 212.665 Z" fill="#000000" fill-rule="evenodd" fill-opacity="1" /><path clip-path="url(#clip290)" d="M 0 0 M2139.94 220.582 L2139.94 222.665 L2120.35 222.665 Q2120.63 227.063 2122.99 229.378 Q2125.38 231.67 2129.61 231.67 Q2132.07 231.67 2134.36 231.068 Q2136.67 230.466 2138.94 229.262 L2138.94 233.29 Q2136.65 234.262 2134.24 234.772 Q2131.83 235.281 2129.36 235.281 Q2123.15 235.281 2119.52 231.67 Q2115.91 228.059 2115.91 221.901 Q2115.91 215.536 2119.33 211.809 Q2122.78 208.059 2128.62 208.059 Q2133.85 208.059 2136.88 211.438 Q2139.94 214.795 2139.94 220.582 M2135.68 219.332 Q2135.63 215.837 2133.71 213.753 Q2131.81 211.67 2128.66 211.67 Q2125.1 211.67 2122.95 213.684 Q2120.82 215.698 2120.49 219.355 L2135.68 219.332 Z" fill="#000000" fill-rule="evenodd" fill-opacity="1" /><path clip-path="url(#clip290)" d="M 0 0 M2161.46 221.346 Q2161.46 216.716 2159.54 214.17 Q2157.64 211.624 2154.2 211.624 Q2150.77 211.624 2148.85 214.17 Q2146.95 216.716 2146.95 221.346 Q2146.95 225.952 2148.85 228.498 Q2150.77 231.045 2154.2 231.045 Q2157.64 231.045 2159.54 228.498 Q2161.46 225.952 2161.46 221.346 M2165.72 231.392 Q2165.72 238.012 2162.78 241.23 Q2159.84 244.471 2153.78 244.471 Q2151.53 244.471 2149.54 244.123 Q2147.55 243.799 2145.68 243.105 L2145.68 238.961 Q2147.55 239.98 2149.38 240.466 Q2151.21 240.952 2153.11 240.952 Q2157.3 240.952 2159.38 238.753 Q2161.46 236.577 2161.46 232.156 L2161.46 230.049 Q2160.14 232.341 2158.08 233.475 Q2156.02 234.61 2153.15 234.61 Q2148.39 234.61 2145.47 230.975 Q2142.55 227.341 2142.55 221.346 Q2142.55 215.327 2145.47 211.693 Q2148.39 208.059 2153.15 208.059 Q2156.02 208.059 2158.08 209.193 Q2160.14 210.327 2161.46 212.619 L2161.46 208.684 L2165.72 208.684 L2165.72 231.392 Z" fill="#000000" fill-rule="evenodd" fill-opacity="1" /><path clip-path="url(#clip290)" d="M 0 0 M2170.19 208.684 L2174.45 208.684 L2174.45 234.61 L2170.19 234.61 L2170.19 208.684 M2170.19 198.591 L2174.45 198.591 L2174.45 203.985 L2170.19 203.985 L2170.19 198.591 Z" fill="#000000" fill-rule="evenodd" fill-opacity="1" /><path clip-path="url(#clip290)" d="M 0 0 M2188.96 211.67 Q2185.54 211.67 2183.55 214.355 Q2181.56 217.017 2181.56 221.67 Q2181.56 226.323 2183.52 229.008 Q2185.51 231.67 2188.96 231.67 Q2192.37 231.67 2194.36 228.985 Q2196.35 226.299 2196.35 221.67 Q2196.35 217.063 2194.36 214.378 Q2192.37 211.67 2188.96 211.67 M2188.96 208.059 Q2194.52 208.059 2197.69 211.67 Q2200.86 215.281 2200.86 221.67 Q2200.86 228.036 2197.69 231.67 Q2194.52 235.281 2188.96 235.281 Q2183.39 235.281 2180.21 231.67 Q2177.07 228.036 2177.07 221.67 Q2177.07 215.281 2180.21 211.67 Q2183.39 208.059 2188.96 208.059 Z" fill="#000000" fill-rule="evenodd" fill-opacity="1" /><path clip-path="url(#clip290)" d="M 0 0 M2226.88 218.961 L2226.88 234.61 L2222.62 234.61 L2222.62 219.1 Q2222.62 215.42 2221.19 213.591 Q2219.75 211.762 2216.88 211.762 Q2213.43 211.762 2211.44 213.962 Q2209.45 216.161 2209.45 219.957 L2209.45 234.61 L2205.17 234.61 L2205.17 208.684 L2209.45 208.684 L2209.45 212.712 Q2210.98 210.374 2213.04 209.216 Q2215.12 208.059 2217.83 208.059 Q2222.3 208.059 2224.59 210.837 Q2226.88 213.591 2226.88 218.961 Z" fill="#000000" fill-rule="evenodd" fill-opacity="1" /><path clip-path="url(#clip290)" d="
M1519.75 302.002 L1670.81 302.002 L1670.81 253.618 L1519.75 253.618 L1519.75 302.002  Z
  " fill="#ffa500" fill-rule="evenodd" fill-opacity="0.5"/>
<polyline clip-path="url(#clip290)" style="stroke:#ffa500; stroke-width:4; stroke-opacity:1; fill:none" points="
  1519.75,253.618 1670.81,253.618 
  "/>
<path clip-path="url(#clip290)" d="M 0 0 M1700.38 282.15 Q1700.38 286.849 1702.3 289.534 Q1704.24 292.196 1707.62 292.196 Q1711 292.196 1712.95 289.534 Q1714.89 286.849 1714.89 282.15 Q1714.89 277.451 1712.95 274.789 Q1711 272.104 1707.62 272.104 Q1704.24 272.104 1702.3 274.789 Q1700.38 277.451 1700.38 282.15 M1714.89 291.201 Q1713.55 293.515 1711.49 294.65 Q1709.45 295.761 1706.58 295.761 Q1701.88 295.761 1698.92 292.011 Q1695.98 288.261 1695.98 282.15 Q1695.98 276.039 1698.92 272.289 Q1701.88 268.539 1706.58 268.539 Q1709.45 268.539 1711.49 269.673 Q1713.55 270.784 1714.89 273.099 L1714.89 269.164 L1719.15 269.164 L1719.15 304.951 L1714.89 304.951 L1714.89 291.201 Z" fill="#000000" fill-rule="evenodd" fill-opacity="1" /><path clip-path="url(#clip290)" d="M 0 0 M1724.36 294.372 L1724.36 290.113 Q1726.12 290.946 1727.92 291.386 Q1729.73 291.826 1731.47 291.826 Q1736.1 291.826 1738.53 288.724 Q1740.98 285.599 1741.33 279.256 Q1739.98 281.247 1737.92 282.312 Q1735.86 283.377 1733.36 283.377 Q1728.18 283.377 1725.15 280.252 Q1722.14 277.104 1722.14 271.664 Q1722.14 266.34 1725.29 263.122 Q1728.43 259.905 1733.67 259.905 Q1739.66 259.905 1742.81 264.511 Q1745.98 269.094 1745.98 277.844 Q1745.98 286.016 1742.09 290.9 Q1738.23 295.761 1731.67 295.761 Q1729.92 295.761 1728.11 295.414 Q1726.3 295.066 1724.36 294.372 M1733.67 279.719 Q1736.81 279.719 1738.64 277.566 Q1740.49 275.414 1740.49 271.664 Q1740.49 267.937 1738.64 265.784 Q1736.81 263.608 1733.67 263.608 Q1730.52 263.608 1728.67 265.784 Q1726.84 267.937 1726.84 271.664 Q1726.84 275.414 1728.67 277.566 Q1730.52 279.719 1733.67 279.719 Z" fill="#000000" fill-rule="evenodd" fill-opacity="1" /><path clip-path="url(#clip290)" d="M 0 0 M1751.1 260.53 L1769.45 260.53 L1769.45 264.465 L1755.38 264.465 L1755.38 272.937 Q1756.4 272.59 1757.42 272.428 Q1758.43 272.242 1759.45 272.242 Q1765.24 272.242 1768.62 275.414 Q1772 278.585 1772 284.002 Q1772 289.58 1768.53 292.682 Q1765.05 295.761 1758.73 295.761 Q1756.56 295.761 1754.29 295.39 Q1752.04 295.02 1749.64 294.279 L1749.64 289.58 Q1751.72 290.715 1753.94 291.27 Q1756.17 291.826 1758.64 291.826 Q1762.65 291.826 1764.98 289.719 Q1767.32 287.613 1767.32 284.002 Q1767.32 280.391 1764.98 278.284 Q1762.65 276.178 1758.64 276.178 Q1756.77 276.178 1754.89 276.594 Q1753.04 277.011 1751.1 277.891 L1751.1 260.53 Z" fill="#000000" fill-rule="evenodd" fill-opacity="1" /><polyline clip-path="url(#clip290)" style="stroke:#0000ff; stroke-width:4; stroke-opacity:1; fill:none" points="
  1519.75,338.29 1670.81,338.29 
  "/>
<path clip-path="url(#clip290)" d="M 0 0 M1716.33 334.621 Q1717.92 331.75 1720.15 330.385 Q1722.37 329.019 1725.38 329.019 Q1729.43 329.019 1731.63 331.866 Q1733.83 334.69 1733.83 339.921 L1733.83 355.57 L1729.54 355.57 L1729.54 340.06 Q1729.54 336.334 1728.23 334.528 Q1726.91 332.722 1724.2 332.722 Q1720.89 332.722 1718.97 334.922 Q1717.04 337.121 1717.04 340.917 L1717.04 355.57 L1712.76 355.57 L1712.76 340.06 Q1712.76 336.31 1711.44 334.528 Q1710.12 332.722 1707.37 332.722 Q1704.11 332.722 1702.18 334.945 Q1700.26 337.144 1700.26 340.917 L1700.26 355.57 L1695.98 355.57 L1695.98 329.644 L1700.26 329.644 L1700.26 333.672 Q1701.72 331.287 1703.76 330.153 Q1705.79 329.019 1708.6 329.019 Q1711.42 329.019 1713.39 330.454 Q1715.38 331.889 1716.33 334.621 Z" fill="#000000" fill-rule="evenodd" fill-opacity="1" /><path clip-path="url(#clip290)" d="M 0 0 M1760.47 341.542 L1760.47 343.625 L1740.89 343.625 Q1741.17 348.023 1743.53 350.338 Q1745.91 352.63 1750.15 352.63 Q1752.6 352.63 1754.89 352.028 Q1757.21 351.426 1759.48 350.222 L1759.48 354.25 Q1757.18 355.222 1754.78 355.732 Q1752.37 356.241 1749.89 356.241 Q1743.69 356.241 1740.05 352.63 Q1736.44 349.019 1736.44 342.861 Q1736.44 336.496 1739.87 332.769 Q1743.32 329.019 1749.15 329.019 Q1754.38 329.019 1757.42 332.398 Q1760.47 335.755 1760.47 341.542 M1756.21 340.292 Q1756.17 336.797 1754.24 334.713 Q1752.35 332.63 1749.2 332.63 Q1745.63 332.63 1743.48 334.644 Q1741.35 336.658 1741.03 340.315 L1756.21 340.292 Z" fill="#000000" fill-rule="evenodd" fill-opacity="1" /><path clip-path="url(#clip290)" d="M 0 0 M1776.72 342.537 Q1771.56 342.537 1769.57 343.718 Q1767.58 344.898 1767.58 347.746 Q1767.58 350.014 1769.06 351.357 Q1770.56 352.676 1773.13 352.676 Q1776.67 352.676 1778.8 350.176 Q1780.96 347.653 1780.96 343.486 L1780.96 342.537 L1776.72 342.537 M1785.22 340.778 L1785.22 355.57 L1780.96 355.57 L1780.96 351.634 Q1779.5 353.995 1777.32 355.13 Q1775.15 356.241 1772 356.241 Q1768.02 356.241 1765.66 354.019 Q1763.32 351.773 1763.32 348.023 Q1763.32 343.648 1766.23 341.426 Q1769.17 339.204 1774.98 339.204 L1780.96 339.204 L1780.96 338.787 Q1780.96 335.847 1779.01 334.25 Q1777.09 332.63 1773.6 332.63 Q1771.37 332.63 1769.27 333.162 Q1767.16 333.695 1765.22 334.759 L1765.22 330.824 Q1767.55 329.922 1769.75 329.482 Q1771.95 329.019 1774.04 329.019 Q1779.66 329.019 1782.44 331.935 Q1785.22 334.852 1785.22 340.778 Z" fill="#000000" fill-rule="evenodd" fill-opacity="1" /><path clip-path="url(#clip290)" d="M 0 0 M1811.23 339.921 L1811.23 355.57 L1806.97 355.57 L1806.97 340.06 Q1806.97 336.38 1805.54 334.551 Q1804.1 332.722 1801.23 332.722 Q1797.79 332.722 1795.79 334.922 Q1793.8 337.121 1793.8 340.917 L1793.8 355.57 L1789.52 355.57 L1789.52 329.644 L1793.8 329.644 L1793.8 333.672 Q1795.33 331.334 1797.39 330.176 Q1799.48 329.019 1802.18 329.019 Q1806.65 329.019 1808.94 331.797 Q1811.23 334.551 1811.23 339.921 Z" fill="#000000" fill-rule="evenodd" fill-opacity="1" /><polyline clip-path="url(#clip290)" style="stroke:#000000; stroke-width:4; stroke-opacity:1; fill:none" points="
  1519.75,398.77 1670.81,398.77 
  "/>
<path clip-path="url(#clip290)" d="M 0 0 M1716.33 395.101 Q1717.92 392.23 1720.15 390.865 Q1722.37 389.499 1725.38 389.499 Q1729.43 389.499 1731.63 392.346 Q1733.83 395.17 1733.83 400.401 L1733.83 416.05 L1729.54 416.05 L1729.54 400.54 Q1729.54 396.814 1728.23 395.008 Q1726.91 393.202 1724.2 393.202 Q1720.89 393.202 1718.97 395.402 Q1717.04 397.601 1717.04 401.397 L1717.04 416.05 L1712.76 416.05 L1712.76 400.54 Q1712.76 396.79 1711.44 395.008 Q1710.12 393.202 1707.37 393.202 Q1704.11 393.202 1702.18 395.425 Q1700.26 397.624 1700.26 401.397 L1700.26 416.05 L1695.98 416.05 L1695.98 390.124 L1700.26 390.124 L1700.26 394.152 Q1701.72 391.767 1703.76 390.633 Q1705.79 389.499 1708.6 389.499 Q1711.42 389.499 1713.39 390.934 Q1715.38 392.369 1716.33 395.101 Z" fill="#000000" fill-rule="evenodd" fill-opacity="1" /><path clip-path="url(#clip290)" d="M 0 0 M1760.47 402.022 L1760.47 404.105 L1740.89 404.105 Q1741.17 408.503 1743.53 410.818 Q1745.91 413.11 1750.15 413.11 Q1752.6 413.11 1754.89 412.508 Q1757.21 411.906 1759.48 410.702 L1759.48 414.73 Q1757.18 415.702 1754.78 416.212 Q1752.37 416.721 1749.89 416.721 Q1743.69 416.721 1740.05 413.11 Q1736.44 409.499 1736.44 403.341 Q1736.44 396.976 1739.87 393.249 Q1743.32 389.499 1749.15 389.499 Q1754.38 389.499 1757.42 392.878 Q1760.47 396.235 1760.47 402.022 M1756.21 400.772 Q1756.17 397.277 1754.24 395.193 Q1752.35 393.11 1749.2 393.11 Q1745.63 393.11 1743.48 395.124 Q1741.35 397.138 1741.03 400.795 L1756.21 400.772 Z" fill="#000000" fill-rule="evenodd" fill-opacity="1" /><path clip-path="url(#clip290)" d="M 0 0 M1782 394.059 L1782 380.031 L1786.26 380.031 L1786.26 416.05 L1782 416.05 L1782 412.161 Q1780.66 414.475 1778.6 415.61 Q1776.56 416.721 1773.69 416.721 Q1768.99 416.721 1766.03 412.971 Q1763.09 409.221 1763.09 403.11 Q1763.09 396.999 1766.03 393.249 Q1768.99 389.499 1773.69 389.499 Q1776.56 389.499 1778.6 390.633 Q1780.66 391.744 1782 394.059 M1767.48 403.11 Q1767.48 407.809 1769.41 410.494 Q1771.35 413.156 1774.73 413.156 Q1778.11 413.156 1780.05 410.494 Q1782 407.809 1782 403.11 Q1782 398.411 1780.05 395.749 Q1778.11 393.064 1774.73 393.064 Q1771.35 393.064 1769.41 395.749 Q1767.48 398.411 1767.48 403.11 Z" fill="#000000" fill-rule="evenodd" fill-opacity="1" /><path clip-path="url(#clip290)" d="M 0 0 M1790.73 390.124 L1794.98 390.124 L1794.98 416.05 L1790.73 416.05 L1790.73 390.124 M1790.73 380.031 L1794.98 380.031 L1794.98 385.425 L1790.73 385.425 L1790.73 380.031 Z" fill="#000000" fill-rule="evenodd" fill-opacity="1" /><path clip-path="url(#clip290)" d="M 0 0 M1811.23 403.017 Q1806.07 403.017 1804.08 404.198 Q1802.09 405.378 1802.09 408.226 Q1802.09 410.494 1803.57 411.837 Q1805.08 413.156 1807.65 413.156 Q1811.19 413.156 1813.32 410.656 Q1815.47 408.133 1815.47 403.966 L1815.47 403.017 L1811.23 403.017 M1819.73 401.258 L1819.73 416.05 L1815.47 416.05 L1815.47 412.114 Q1814.01 414.475 1811.84 415.61 Q1809.66 416.721 1806.51 416.721 Q1802.53 416.721 1800.17 414.499 Q1797.83 412.253 1797.83 408.503 Q1797.83 404.128 1800.75 401.906 Q1803.69 399.684 1809.5 399.684 L1815.47 399.684 L1815.47 399.267 Q1815.47 396.327 1813.53 394.73 Q1811.6 393.11 1808.11 393.11 Q1805.89 393.11 1803.78 393.642 Q1801.67 394.175 1799.73 395.239 L1799.73 391.304 Q1802.07 390.402 1804.27 389.962 Q1806.47 389.499 1808.55 389.499 Q1814.17 389.499 1816.95 392.415 Q1819.73 395.332 1819.73 401.258 Z" fill="#000000" fill-rule="evenodd" fill-opacity="1" /><path clip-path="url(#clip290)" d="M 0 0 M1845.75 400.401 L1845.75 416.05 L1841.49 416.05 L1841.49 400.54 Q1841.49 396.86 1840.05 395.031 Q1838.62 393.202 1835.75 393.202 Q1832.3 393.202 1830.31 395.402 Q1828.32 397.601 1828.32 401.397 L1828.32 416.05 L1824.04 416.05 L1824.04 390.124 L1828.32 390.124 L1828.32 394.152 Q1829.85 391.814 1831.91 390.656 Q1833.99 389.499 1836.7 389.499 Q1841.16 389.499 1843.46 392.277 Q1845.75 395.031 1845.75 400.401 Z" fill="#000000" fill-rule="evenodd" fill-opacity="1" /></svg>
