<?xml version="1.0" encoding="utf-8"?>
<svg xmlns="http://www.w3.org/2000/svg" xmlns:xlink="http://www.w3.org/1999/xlink" width="600" height="400" viewBox="0 0 2400 1600">
<defs>
  <clipPath id="clip780">
    <rect x="0" y="0" width="2400" height="1600"/>
  </clipPath>
</defs>
<path clip-path="url(#clip780)" d="
M0 1600 L2400 1600 L2400 0 L0 0  Z
  " fill="#ffffff" fill-rule="evenodd" fill-opacity="1"/>
<defs>
  <clipPath id="clip781">
    <rect x="480" y="0" width="1681" height="1600"/>
  </clipPath>
</defs>
<path clip-path="url(#clip780)" d="
M86.9921 1521.01 L2352.76 1521.01 L2352.76 47.2441 L86.9921 47.2441  Z
  " fill="#ffffff" fill-rule="evenodd" fill-opacity="1"/>
<defs>
  <clipPath id="clip782">
    <rect x="86" y="47" width="2267" height="1475"/>
  </clipPath>
</defs>
<polyline clip-path="url(#clip782)" style="stroke:#000000; stroke-width:2; stroke-opacity:0.1; fill:none" points="
  177.956,1521.01 177.956,47.2441 
  "/>
<polyline clip-path="url(#clip782)" style="stroke:#000000; stroke-width:2; stroke-opacity:0.1; fill:none" points="
  824.981,1521.01 824.981,47.2441 
  "/>
<polyline clip-path="url(#clip782)" style="stroke:#000000; stroke-width:2; stroke-opacity:0.1; fill:none" points="
  1472.01,1521.01 1472.01,47.2441 
  "/>
<polyline clip-path="url(#clip782)" style="stroke:#000000; stroke-width:2; stroke-opacity:0.1; fill:none" points="
  2119.03,1521.01 2119.03,47.2441 
  "/>
<polyline clip-path="url(#clip782)" style="stroke:#000000; stroke-width:2; stroke-opacity:0.1; fill:none" points="
  86.9921,1479.3 2352.76,1479.3 
  "/>
<polyline clip-path="url(#clip782)" style="stroke:#000000; stroke-width:2; stroke-opacity:0.1; fill:none" points="
  86.9921,1092.23 2352.76,1092.23 
  "/>
<polyline clip-path="url(#clip782)" style="stroke:#000000; stroke-width:2; stroke-opacity:0.1; fill:none" points="
  86.9921,705.163 2352.76,705.163 
  "/>
<polyline clip-path="url(#clip782)" style="stroke:#000000; stroke-width:2; stroke-opacity:0.1; fill:none" points="
  86.9921,318.096 2352.76,318.096 
  "/>
<polyline clip-path="url(#clip780)" style="stroke:#000000; stroke-width:4; stroke-opacity:1; fill:none" points="
  86.9921,1521.01 2352.76,1521.01 
  "/>
<polyline clip-path="url(#clip780)" style="stroke:#000000; stroke-width:4; stroke-opacity:1; fill:none" points="
  86.9921,1521.01 86.9921,47.2441 
  "/>
<polyline clip-path="url(#clip780)" style="stroke:#000000; stroke-width:4; stroke-opacity:1; fill:none" points="
  177.956,1521.01 177.956,1503.32 
  "/>
<polyline clip-path="url(#clip780)" style="stroke:#000000; stroke-width:4; stroke-opacity:1; fill:none" points="
  824.981,1521.01 824.981,1503.32 
  "/>
<polyline clip-path="url(#clip780)" style="stroke:#000000; stroke-width:4; stroke-opacity:1; fill:none" points="
  1472.01,1521.01 1472.01,1503.32 
  "/>
<polyline clip-path="url(#clip780)" style="stroke:#000000; stroke-width:4; stroke-opacity:1; fill:none" points="
  2119.03,1521.01 2119.03,1503.32 
  "/>
<polyline clip-path="url(#clip780)" style="stroke:#000000; stroke-width:4; stroke-opacity:1; fill:none" points="
  86.9921,1479.3 114.181,1479.3 
  "/>
<polyline clip-path="url(#clip780)" style="stroke:#000000; stroke-width:4; stroke-opacity:1; fill:none" points="
  86.9921,1092.23 114.181,1092.23 
  "/>
<polyline clip-path="url(#clip780)" style="stroke:#000000; stroke-width:4; stroke-opacity:1; fill:none" points="
  86.9921,705.163 114.181,705.163 
  "/>
<polyline clip-path="url(#clip780)" style="stroke:#000000; stroke-width:4; stroke-opacity:1; fill:none" points="
  86.9921,318.096 114.181,318.096 
  "/>
<path clip-path="url(#clip780)" d="M 0 0 M139.773 1559.6 L152.25 1559.6 L152.25 1563.39 L139.773 1563.39 L139.773 1559.6 Z" fill="#000000" fill-rule="evenodd" fill-opacity="1" /><path clip-path="url(#clip780)" d="M 0 0 M167.319 1543 Q163.708 1543 161.879 1546.56 Q160.074 1550.11 160.074 1557.23 Q160.074 1564.34 161.879 1567.91 Q163.708 1571.45 167.319 1571.45 Q170.953 1571.45 172.759 1567.91 Q174.588 1564.34 174.588 1557.23 Q174.588 1550.11 172.759 1546.56 Q170.953 1543 167.319 1543 M167.319 1539.29 Q173.129 1539.29 176.185 1543.9 Q179.263 1548.48 179.263 1557.23 Q179.263 1565.96 176.185 1570.57 Q173.129 1575.15 167.319 1575.15 Q161.509 1575.15 158.43 1570.57 Q155.375 1565.96 155.375 1557.23 Q155.375 1548.48 158.43 1543.9 Q161.509 1539.29 167.319 1539.29 Z" fill="#000000" fill-rule="evenodd" fill-opacity="1" /><path clip-path="url(#clip780)" d="M 0 0 M184.333 1568.6 L189.217 1568.6 L189.217 1574.48 L184.333 1574.48 L184.333 1568.6 Z" fill="#000000" fill-rule="evenodd" fill-opacity="1" /><path clip-path="url(#clip780)" d="M 0 0 M204.287 1558.07 Q200.953 1558.07 199.032 1559.85 Q197.134 1561.63 197.134 1564.76 Q197.134 1567.88 199.032 1569.67 Q200.953 1571.45 204.287 1571.45 Q207.62 1571.45 209.541 1569.67 Q211.462 1567.86 211.462 1564.76 Q211.462 1561.63 209.541 1559.85 Q207.643 1558.07 204.287 1558.07 M199.611 1556.08 Q196.601 1555.34 194.912 1553.28 Q193.245 1551.22 193.245 1548.25 Q193.245 1544.11 196.185 1541.7 Q199.148 1539.29 204.287 1539.29 Q209.449 1539.29 212.388 1541.7 Q215.328 1544.11 215.328 1548.25 Q215.328 1551.22 213.638 1553.28 Q211.972 1555.34 208.986 1556.08 Q212.365 1556.86 214.24 1559.16 Q216.138 1561.45 216.138 1564.76 Q216.138 1569.78 213.06 1572.47 Q210.004 1575.15 204.287 1575.15 Q198.569 1575.15 195.49 1572.47 Q192.435 1569.78 192.435 1564.76 Q192.435 1561.45 194.333 1559.16 Q196.231 1556.86 199.611 1556.08 M197.898 1548.69 Q197.898 1551.38 199.564 1552.88 Q201.254 1554.39 204.287 1554.39 Q207.296 1554.39 208.986 1552.88 Q210.699 1551.38 210.699 1548.69 Q210.699 1546.01 208.986 1544.5 Q207.296 1543 204.287 1543 Q201.254 1543 199.564 1544.5 Q197.898 1546.01 197.898 1548.69 Z" fill="#000000" fill-rule="evenodd" fill-opacity="1" /><path clip-path="url(#clip780)" d="M 0 0 M787.204 1559.6 L799.68 1559.6 L799.68 1563.39 L787.204 1563.39 L787.204 1559.6 Z" fill="#000000" fill-rule="evenodd" fill-opacity="1" /><path clip-path="url(#clip780)" d="M 0 0 M814.75 1543 Q811.139 1543 809.31 1546.56 Q807.504 1550.11 807.504 1557.23 Q807.504 1564.34 809.31 1567.91 Q811.139 1571.45 814.75 1571.45 Q818.384 1571.45 820.189 1567.91 Q822.018 1564.34 822.018 1557.23 Q822.018 1550.11 820.189 1546.56 Q818.384 1543 814.75 1543 M814.75 1539.29 Q820.56 1539.29 823.615 1543.9 Q826.694 1548.48 826.694 1557.23 Q826.694 1565.96 823.615 1570.57 Q820.56 1575.15 814.75 1575.15 Q808.94 1575.15 805.861 1570.57 Q802.805 1565.96 802.805 1557.23 Q802.805 1548.48 805.861 1543.9 Q808.94 1539.29 814.75 1539.29 Z" fill="#000000" fill-rule="evenodd" fill-opacity="1" /><path clip-path="url(#clip780)" d="M 0 0 M831.763 1568.6 L836.648 1568.6 L836.648 1574.48 L831.763 1574.48 L831.763 1568.6 Z" fill="#000000" fill-rule="evenodd" fill-opacity="1" /><path clip-path="url(#clip780)" d="M 0 0 M840.537 1539.92 L862.759 1539.92 L862.759 1541.91 L850.212 1574.48 L845.328 1574.48 L857.134 1543.86 L840.537 1543.86 L840.537 1539.92 Z" fill="#000000" fill-rule="evenodd" fill-opacity="1" /><path clip-path="url(#clip780)" d="M 0 0 M1433.7 1559.6 L1446.17 1559.6 L1446.17 1563.39 L1433.7 1563.39 L1433.7 1559.6 Z" fill="#000000" fill-rule="evenodd" fill-opacity="1" /><path clip-path="url(#clip780)" d="M 0 0 M1461.24 1543 Q1457.63 1543 1455.8 1546.56 Q1454 1550.11 1454 1557.23 Q1454 1564.34 1455.8 1567.91 Q1457.63 1571.45 1461.24 1571.45 Q1464.88 1571.45 1466.68 1567.91 Q1468.51 1564.34 1468.51 1557.23 Q1468.51 1550.11 1466.68 1546.56 Q1464.88 1543 1461.24 1543 M1461.24 1539.29 Q1467.05 1539.29 1470.11 1543.9 Q1473.19 1548.48 1473.19 1557.23 Q1473.19 1565.96 1470.11 1570.57 Q1467.05 1575.15 1461.24 1575.15 Q1455.43 1575.15 1452.35 1570.57 Q1449.3 1565.96 1449.3 1557.23 Q1449.3 1548.48 1452.35 1543.9 Q1455.43 1539.29 1461.24 1539.29 Z" fill="#000000" fill-rule="evenodd" fill-opacity="1" /><path clip-path="url(#clip780)" d="M 0 0 M1478.26 1568.6 L1483.14 1568.6 L1483.14 1574.48 L1478.26 1574.48 L1478.26 1568.6 Z" fill="#000000" fill-rule="evenodd" fill-opacity="1" /><path clip-path="url(#clip780)" d="M 0 0 M1498.79 1555.34 Q1495.64 1555.34 1493.79 1557.49 Q1491.96 1559.64 1491.96 1563.39 Q1491.96 1567.12 1493.79 1569.29 Q1495.64 1571.45 1498.79 1571.45 Q1501.94 1571.45 1503.77 1569.29 Q1505.62 1567.12 1505.62 1563.39 Q1505.62 1559.64 1503.77 1557.49 Q1501.94 1555.34 1498.79 1555.34 M1508.07 1540.68 L1508.07 1544.94 Q1506.31 1544.11 1504.51 1543.67 Q1502.72 1543.23 1500.96 1543.23 Q1496.34 1543.23 1493.88 1546.36 Q1491.45 1549.48 1491.1 1555.8 Q1492.47 1553.79 1494.53 1552.72 Q1496.59 1551.63 1499.07 1551.63 Q1504.27 1551.63 1507.28 1554.8 Q1510.32 1557.95 1510.32 1563.39 Q1510.32 1568.72 1507.17 1571.93 Q1504.02 1575.15 1498.79 1575.15 Q1492.79 1575.15 1489.62 1570.57 Q1486.45 1565.96 1486.45 1557.23 Q1486.45 1549.04 1490.34 1544.18 Q1494.23 1539.29 1500.78 1539.29 Q1502.54 1539.29 1504.32 1539.64 Q1506.13 1539.99 1508.07 1540.68 Z" fill="#000000" fill-rule="evenodd" fill-opacity="1" /><path clip-path="url(#clip780)" d="M 0 0 M2081.3 1559.6 L2093.78 1559.6 L2093.78 1563.39 L2081.3 1563.39 L2081.3 1559.6 Z" fill="#000000" fill-rule="evenodd" fill-opacity="1" /><path clip-path="url(#clip780)" d="M 0 0 M2108.85 1543 Q2105.24 1543 2103.41 1546.56 Q2101.6 1550.11 2101.6 1557.23 Q2101.6 1564.34 2103.41 1567.91 Q2105.24 1571.45 2108.85 1571.45 Q2112.48 1571.45 2114.29 1567.91 Q2116.12 1564.34 2116.12 1557.23 Q2116.12 1550.11 2114.29 1546.56 Q2112.48 1543 2108.85 1543 M2108.85 1539.29 Q2114.66 1539.29 2117.71 1543.9 Q2120.79 1548.48 2120.79 1557.23 Q2120.79 1565.96 2117.71 1570.57 Q2114.66 1575.15 2108.85 1575.15 Q2103.04 1575.15 2099.96 1570.57 Q2096.9 1565.96 2096.9 1557.23 Q2096.9 1548.48 2099.96 1543.9 Q2103.04 1539.29 2108.85 1539.29 Z" fill="#000000" fill-rule="evenodd" fill-opacity="1" /><path clip-path="url(#clip780)" d="M 0 0 M2125.86 1568.6 L2130.74 1568.6 L2130.74 1574.48 L2125.86 1574.48 L2125.86 1568.6 Z" fill="#000000" fill-rule="evenodd" fill-opacity="1" /><path clip-path="url(#clip780)" d="M 0 0 M2135.86 1539.92 L2154.22 1539.92 L2154.22 1543.86 L2140.14 1543.86 L2140.14 1552.33 Q2141.16 1551.98 2142.18 1551.82 Q2143.2 1551.63 2144.22 1551.63 Q2150 1551.63 2153.38 1554.8 Q2156.76 1557.98 2156.76 1563.39 Q2156.76 1568.97 2153.29 1572.07 Q2149.82 1575.15 2143.5 1575.15 Q2141.32 1575.15 2139.06 1574.78 Q2136.81 1574.41 2134.4 1573.67 L2134.4 1568.97 Q2136.49 1570.1 2138.71 1570.66 Q2140.93 1571.22 2143.41 1571.22 Q2147.41 1571.22 2149.75 1569.11 Q2152.09 1567 2152.09 1563.39 Q2152.09 1559.78 2149.75 1557.67 Q2147.41 1555.57 2143.41 1555.57 Q2141.53 1555.57 2139.66 1555.98 Q2137.81 1556.4 2135.86 1557.28 L2135.86 1539.92 Z" fill="#000000" fill-rule="evenodd" fill-opacity="1" /><path clip-path="url(#clip780)" d="M 0 0 M51.0477 1465.1 Q47.4367 1465.1 45.608 1468.66 Q43.8024 1472.2 43.8024 1479.33 Q43.8024 1486.44 45.608 1490 Q47.4367 1493.55 51.0477 1493.55 Q54.682 1493.55 56.4875 1490 Q58.3162 1486.44 58.3162 1479.33 Q58.3162 1472.2 56.4875 1468.66 Q54.682 1465.1 51.0477 1465.1 M51.0477 1461.39 Q56.8579 1461.39 59.9134 1466 Q62.9921 1470.58 62.9921 1479.33 Q62.9921 1488.06 59.9134 1492.67 Q56.8579 1497.25 51.0477 1497.25 Q45.2376 1497.25 42.1589 1492.67 Q39.1034 1488.06 39.1034 1479.33 Q39.1034 1470.58 42.1589 1466 Q45.2376 1461.39 51.0477 1461.39 Z" fill="#000000" fill-rule="evenodd" fill-opacity="1" /><path clip-path="url(#clip780)" d="M 0 0 M46.6728 1105.58 L62.9921 1105.58 L62.9921 1109.51 L41.0478 1109.51 L41.0478 1105.58 Q43.7098 1102.82 48.2931 1098.19 Q52.8996 1093.54 54.0801 1092.2 Q56.3255 1089.67 57.2051 1087.94 Q58.1079 1086.18 58.1079 1084.49 Q58.1079 1081.73 56.1635 1080 Q54.2422 1078.26 51.1403 1078.26 Q48.9413 1078.26 46.4876 1079.02 Q44.057 1079.79 41.2793 1081.34 L41.2793 1076.62 Q44.1033 1075.48 46.557 1074.9 Q49.0107 1074.33 51.0477 1074.33 Q56.4181 1074.33 59.6125 1077.01 Q62.8069 1079.7 62.8069 1084.19 Q62.8069 1086.32 61.9968 1088.24 Q61.2097 1090.14 59.1033 1092.73 Q58.5246 1093.4 55.4227 1096.62 Q52.3209 1099.81 46.6728 1105.58 Z" fill="#000000" fill-rule="evenodd" fill-opacity="1" /><path clip-path="url(#clip780)" d="M 0 0 M53.4088 691.957 L41.6034 710.406 L53.4088 710.406 L53.4088 691.957 M52.182 687.883 L58.0616 687.883 L58.0616 710.406 L62.9921 710.406 L62.9921 714.295 L58.0616 714.295 L58.0616 722.443 L53.4088 722.443 L53.4088 714.295 L37.8071 714.295 L37.8071 709.781 L52.182 687.883 Z" fill="#000000" fill-rule="evenodd" fill-opacity="1" /><path clip-path="url(#clip780)" d="M 0 0 M51.4644 316.232 Q48.3163 316.232 46.4644 318.385 Q44.6357 320.538 44.6357 324.288 Q44.6357 328.015 46.4644 330.191 Q48.3163 332.343 51.4644 332.343 Q54.6125 332.343 56.4412 330.191 Q58.2931 328.015 58.2931 324.288 Q58.2931 320.538 56.4412 318.385 Q54.6125 316.232 51.4644 316.232 M60.7468 301.58 L60.7468 305.839 Q58.9875 305.005 57.182 304.566 Q55.3996 304.126 53.6403 304.126 Q49.0107 304.126 46.557 307.251 Q44.1265 310.376 43.7793 316.695 Q45.145 314.681 47.2052 313.617 Q49.2653 312.529 51.7422 312.529 Q56.9505 312.529 59.9597 315.7 Q62.9921 318.848 62.9921 324.288 Q62.9921 329.612 59.844 332.829 Q56.6959 336.047 51.4644 336.047 Q45.4691 336.047 42.2978 331.464 Q39.1265 326.857 39.1265 318.13 Q39.1265 309.936 43.0154 305.075 Q46.9042 300.191 53.4551 300.191 Q55.2144 300.191 56.9968 300.538 Q58.8023 300.885 60.7468 301.58 Z" fill="#000000" fill-rule="evenodd" fill-opacity="1" /><path clip-path="url(#clip782)" d="
M151.118 1472.82 L156.329 1472.5 L161.541 1472.2 L166.752 1471.92 L171.964 1471.65 L177.176 1471.38 L182.387 1471.09 L187.599 1470.79 L192.81 1470.43 L198.022 1470.02 
  L203.234 1469.53 L208.445 1468.94 L213.657 1468.23 L218.869 1467.38 L224.08 1466.37 L229.292 1465.19 L234.503 1463.82 L239.715 1462.25 L244.927 1460.49 L250.138 1458.53 
  L255.35 1456.39 L260.562 1454.07 L265.773 1451.6 L270.985 1449.01 L276.196 1446.33 L281.408 1443.6 L286.62 1440.85 L291.831 1438.14 L297.043 1435.49 L302.255 1432.95 
  L307.466 1430.56 L312.678 1428.33 L317.889 1426.3 L323.101 1424.47 L328.313 1422.86 L333.524 1421.44 L338.736 1420.21 L343.948 1419.14 L349.159 1418.2 L354.371 1417.35 
  L359.582 1416.55 L364.794 1415.76 L370.006 1414.92 L375.217 1414.01 L380.429 1412.97 L385.641 1411.76 L390.852 1410.36 L396.064 1408.74 L401.275 1406.86 L406.487 1404.72 
  L411.699 1402.29 L416.91 1399.57 L422.122 1396.54 L427.334 1393.21 L432.545 1389.55 L437.757 1385.58 L442.968 1381.28 L448.18 1376.67 L453.392 1371.73 L458.603 1366.48 
  L463.815 1360.92 L469.027 1355.06 L474.238 1348.93 L479.45 1342.53 L484.661 1335.89 L489.873 1329.05 L495.085 1322.04 L500.296 1314.9 L505.508 1307.66 L510.719 1300.37 
  L515.931 1293.08 L521.143 1285.82 L526.354 1278.62 L531.566 1271.51 L536.778 1264.51 L541.989 1257.64 L547.201 1250.87 L552.412 1244.21 L557.624 1237.63 L562.836 1231.09 
  L568.047 1224.54 L573.259 1217.94 L578.471 1211.21 L583.682 1204.3 L588.894 1197.14 L594.105 1189.66 L599.317 1181.78 L604.529 1173.46 L609.74 1164.62 L614.952 1155.22 
  L620.164 1145.22 L625.375 1134.58 L630.587 1123.29 L635.798 1111.33 L641.01 1098.71 L646.222 1085.45 L651.433 1071.58 L656.645 1057.16 L661.857 1042.25 L667.068 1026.94 
  L667.068 1479.3 L661.857 1479.3 L656.645 1479.3 L651.433 1479.3 L646.222 1479.3 L641.01 1479.3 L635.798 1479.3 L630.587 1479.3 L625.375 1479.3 L620.164 1479.3 
  L614.952 1479.3 L609.74 1479.3 L604.529 1479.3 L599.317 1479.3 L594.105 1479.3 L588.894 1479.3 L583.682 1479.3 L578.471 1479.3 L573.259 1479.3 L568.047 1479.3 
  L562.836 1479.3 L557.624 1479.3 L552.412 1479.3 L547.201 1479.3 L541.989 1479.3 L536.778 1479.3 L531.566 1479.3 L526.354 1479.3 L521.143 1479.3 L515.931 1479.3 
  L510.719 1479.3 L505.508 1479.3 L500.296 1479.3 L495.085 1479.3 L489.873 1479.3 L484.661 1479.3 L479.45 1479.3 L474.238 1479.3 L469.027 1479.3 L463.815 1479.3 
  L458.603 1479.3 L453.392 1479.3 L448.18 1479.3 L442.968 1479.3 L437.757 1479.3 L432.545 1479.3 L427.334 1479.3 L422.122 1479.3 L416.91 1479.3 L411.699 1479.3 
  L406.487 1479.3 L401.275 1479.3 L396.064 1479.3 L390.852 1479.3 L385.641 1479.3 L380.429 1479.3 L375.217 1479.3 L370.006 1479.3 L364.794 1479.3 L359.582 1479.3 
  L354.371 1479.3 L349.159 1479.3 L343.948 1479.3 L338.736 1479.3 L333.524 1479.3 L328.313 1479.3 L323.101 1479.3 L317.889 1479.3 L312.678 1479.3 L307.466 1479.3 
  L302.255 1479.3 L297.043 1479.3 L291.831 1479.3 L286.62 1479.3 L281.408 1479.3 L276.196 1479.3 L270.985 1479.3 L265.773 1479.3 L260.562 1479.3 L255.35 1479.3 
  L250.138 1479.3 L244.927 1479.3 L239.715 1479.3 L234.503 1479.3 L229.292 1479.3 L224.08 1479.3 L218.869 1479.3 L213.657 1479.3 L208.445 1479.3 L203.234 1479.3 
  L198.022 1479.3 L192.81 1479.3 L187.599 1479.3 L182.387 1479.3 L177.176 1479.3 L171.964 1479.3 L166.752 1479.3 L161.541 1479.3 L156.329 1479.3 L151.118 1479.3 
   Z
  " fill="#ffa500" fill-rule="evenodd" fill-opacity="0.5"/>
<polyline clip-path="url(#clip782)" style="stroke:#ffa500; stroke-width:4; stroke-opacity:1; fill:none" points="
  151.118,1472.82 156.329,1472.5 161.541,1472.2 166.752,1471.92 171.964,1471.65 177.176,1471.38 182.387,1471.09 187.599,1470.79 192.81,1470.43 198.022,1470.02 
  203.234,1469.53 208.445,1468.94 213.657,1468.23 218.869,1467.38 224.08,1466.37 229.292,1465.19 234.503,1463.82 239.715,1462.25 244.927,1460.49 250.138,1458.53 
  255.35,1456.39 260.562,1454.07 265.773,1451.6 270.985,1449.01 276.196,1446.33 281.408,1443.6 286.62,1440.85 291.831,1438.14 297.043,1435.49 302.255,1432.95 
  307.466,1430.56 312.678,1428.33 317.889,1426.3 323.101,1424.47 328.313,1422.86 333.524,1421.44 338.736,1420.21 343.948,1419.14 349.159,1418.2 354.371,1417.35 
  359.582,1416.55 364.794,1415.76 370.006,1414.92 375.217,1414.01 380.429,1412.97 385.641,1411.76 390.852,1410.36 396.064,1408.74 401.275,1406.86 406.487,1404.72 
  411.699,1402.29 416.91,1399.57 422.122,1396.54 427.334,1393.21 432.545,1389.55 437.757,1385.58 442.968,1381.28 448.18,1376.67 453.392,1371.73 458.603,1366.48 
  463.815,1360.92 469.027,1355.06 474.238,1348.93 479.45,1342.53 484.661,1335.89 489.873,1329.05 495.085,1322.04 500.296,1314.9 505.508,1307.66 510.719,1300.37 
  515.931,1293.08 521.143,1285.82 526.354,1278.62 531.566,1271.51 536.778,1264.51 541.989,1257.64 547.201,1250.87 552.412,1244.21 557.624,1237.63 562.836,1231.09 
  568.047,1224.54 573.259,1217.94 578.471,1211.21 583.682,1204.3 588.894,1197.14 594.105,1189.66 599.317,1181.78 604.529,1173.46 609.74,1164.62 614.952,1155.22 
  620.164,1145.22 625.375,1134.58 630.587,1123.29 635.798,1111.33 641.01,1098.71 646.222,1085.45 651.433,1071.58 656.645,1057.16 661.857,1042.25 667.068,1026.94 
  
  "/>
<path clip-path="url(#clip782)" d="
M667.068 1026.94 L678.542 992.286 L690.016 957.356 L701.49 923.492 L712.964 891.977 L724.438 863.829 L735.912 839.622 L747.386 819.391 L758.861 802.645 L770.335 788.459 
  L781.809 775.63 L793.283 762.844 L804.757 748.822 L816.231 732.434 L827.705 712.793 L839.179 689.326 L850.653 661.849 L862.127 630.61 L873.601 596.295 L885.075 559.955 
  L896.549 522.87 L908.023 486.352 L919.497 451.532 L930.971 419.185 L942.445 389.632 L953.919 362.75 L965.393 338.088 L976.867 315.061 L988.341 293.169 L999.815 272.167 
  L1011.29 252.147 L1022.76 233.486 L1034.24 216.686 L1045.71 202.157 L1057.19 190.035 L1068.66 180.08 L1080.13 171.719 L1091.61 164.193 L1103.08 156.767 L1114.56 148.919 
  L1126.03 140.451 L1137.5 131.489 L1148.98 122.4 L1160.45 113.657 L1171.93 105.723 L1183.4 98.9772 L1194.87 93.7257 L1206.35 90.2606 L1217.82 88.9544 L1229.3 90.3295 
  L1240.77 95.0605 L1252.24 103.877 L1263.72 117.371 L1275.19 135.759 L1286.67 158.669 L1298.14 185.046 L1309.61 213.233 L1321.09 241.22 L1332.56 267.019 L1344.04 289.065 
  L1355.51 306.532 L1366.98 319.503 L1378.46 328.929 L1389.93 336.408 L1401.41 343.818 L1412.88 352.901 L1424.35 364.891 L1435.83 380.291 L1447.3 398.854 L1458.78 419.77 
  L1470.25 441.974 L1481.73 464.48 L1493.2 486.612 L1504.67 508.068 L1516.15 528.831 L1527.62 548.991 L1539.1 568.591 L1550.57 587.56 L1562.04 605.773 L1573.52 623.185 
  L1584.99 639.968 L1596.47 656.565 L1607.94 673.621 L1619.41 691.824 L1630.89 711.698 L1642.36 733.431 L1653.84 756.806 L1665.31 781.239 L1676.78 805.926 L1688.26 830.033 
  L1699.73 852.901 L1711.21 874.194 L1722.68 893.978 L1734.15 912.706 L1745.63 931.121 L1757.1 950.101 L1768.58 970.467 L1780.05 992.806 L1791.52 1017.33 L1803 1043.85 
  L1803 1479.3 L1791.52 1479.3 L1780.05 1479.3 L1768.58 1479.3 L1757.1 1479.3 L1745.63 1479.3 L1734.15 1479.3 L1722.68 1479.3 L1711.21 1479.3 L1699.73 1479.3 
  L1688.26 1479.3 L1676.78 1479.3 L1665.31 1479.3 L1653.84 1479.3 L1642.36 1479.3 L1630.89 1479.3 L1619.41 1479.3 L1607.94 1479.3 L1596.47 1479.3 L1584.99 1479.3 
  L1573.52 1479.3 L1562.04 1479.3 L1550.57 1479.3 L1539.1 1479.3 L1527.62 1479.3 L1516.15 1479.3 L1504.67 1479.3 L1493.2 1479.3 L1481.73 1479.3 L1470.25 1479.3 
  L1458.78 1479.3 L1447.3 1479.3 L1435.83 1479.3 L1424.35 1479.3 L1412.88 1479.3 L1401.41 1479.3 L1389.93 1479.3 L1378.46 1479.3 L1366.98 1479.3 L1355.51 1479.3 
  L1344.04 1479.3 L1332.56 1479.3 L1321.09 1479.3 L1309.61 1479.3 L1298.14 1479.3 L1286.67 1479.3 L1275.19 1479.3 L1263.72 1479.3 L1252.24 1479.3 L1240.77 1479.3 
  L1229.3 1479.3 L1217.82 1479.3 L1206.35 1479.3 L1194.87 1479.3 L1183.4 1479.3 L1171.93 1479.3 L1160.45 1479.3 L1148.98 1479.3 L1137.5 1479.3 L1126.03 1479.3 
  L1114.56 1479.3 L1103.08 1479.3 L1091.61 1479.3 L1080.13 1479.3 L1068.66 1479.3 L1057.19 1479.3 L1045.71 1479.3 L1034.24 1479.3 L1022.76 1479.3 L1011.29 1479.3 
  L999.815 1479.3 L988.341 1479.3 L976.867 1479.3 L965.393 1479.3 L953.919 1479.3 L942.445 1479.3 L930.971 1479.3 L919.497 1479.3 L908.023 1479.3 L896.549 1479.3 
  L885.075 1479.3 L873.601 1479.3 L862.127 1479.3 L850.653 1479.3 L839.179 1479.3 L827.705 1479.3 L816.231 1479.3 L804.757 1479.3 L793.283 1479.3 L781.809 1479.3 
  L770.335 1479.3 L758.861 1479.3 L747.386 1479.3 L735.912 1479.3 L724.438 1479.3 L712.964 1479.3 L701.49 1479.3 L690.016 1479.3 L678.542 1479.3 L667.068 1479.3 
   Z
  " fill="#008000" fill-rule="evenodd" fill-opacity="0.5"/>
<polyline clip-path="url(#clip782)" style="stroke:#008000; stroke-width:4; stroke-opacity:1; fill:none" points="
  667.068,1026.94 678.542,992.286 690.016,957.356 701.49,923.492 712.964,891.977 724.438,863.829 735.912,839.622 747.386,819.391 758.861,802.645 770.335,788.459 
  781.809,775.63 793.283,762.844 804.757,748.822 816.231,732.434 827.705,712.793 839.179,689.326 850.653,661.849 862.127,630.61 873.601,596.295 885.075,559.955 
  896.549,522.87 908.023,486.352 919.497,451.532 930.971,419.185 942.445,389.632 953.919,362.75 965.393,338.088 976.867,315.061 988.341,293.169 999.815,272.167 
  1011.29,252.147 1022.76,233.486 1034.24,216.686 1045.71,202.157 1057.19,190.035 1068.66,180.08 1080.13,171.719 1091.61,164.193 1103.08,156.767 1114.56,148.919 
  1126.03,140.451 1137.5,131.489 1148.98,122.4 1160.45,113.657 1171.93,105.723 1183.4,98.9772 1194.87,93.7257 1206.35,90.2606 1217.82,88.9544 1229.3,90.3295 
  1240.77,95.0605 1252.24,103.877 1263.72,117.371 1275.19,135.759 1286.67,158.669 1298.14,185.046 1309.61,213.233 1321.09,241.22 1332.56,267.019 1344.04,289.065 
  1355.51,306.532 1366.98,319.503 1378.46,328.929 1389.93,336.408 1401.41,343.818 1412.88,352.901 1424.35,364.891 1435.83,380.291 1447.3,398.854 1458.78,419.77 
  1470.25,441.974 1481.73,464.48 1493.2,486.612 1504.67,508.068 1516.15,528.831 1527.62,548.991 1539.1,568.591 1550.57,587.56 1562.04,605.773 1573.52,623.185 
  1584.99,639.968 1596.47,656.565 1607.94,673.621 1619.41,691.824 1630.89,711.698 1642.36,733.431 1653.84,756.806 1665.31,781.239 1676.78,805.926 1688.26,830.033 
  1699.73,852.901 1711.21,874.194 1722.68,893.978 1734.15,912.706 1745.63,931.121 1757.1,950.101 1768.58,970.467 1780.05,992.806 1791.52,1017.33 1803,1043.85 
  
  "/>
<path clip-path="url(#clip782)" d="
M1803 1043.85 L1807.9 1055.65 L1812.81 1067.63 L1817.71 1079.74 L1822.62 1091.87 L1827.53 1103.96 L1832.43 1115.92 L1837.34 1127.67 L1842.24 1139.14 L1847.15 1150.27 
  L1852.05 1160.99 L1856.96 1171.27 L1861.86 1181.06 L1866.77 1190.34 L1871.67 1199.11 L1876.58 1207.35 L1881.48 1215.09 L1886.39 1222.32 L1891.3 1229.07 L1896.2 1235.37 
  L1901.11 1241.26 L1906.01 1246.76 L1910.92 1251.91 L1915.82 1256.75 L1920.73 1261.31 L1925.63 1265.65 L1930.54 1269.79 L1935.44 1273.78 L1940.35 1277.67 L1945.25 1281.48 
  L1950.16 1285.27 L1955.06 1289.06 L1959.97 1292.9 L1964.88 1296.81 L1969.78 1300.83 L1974.69 1304.97 L1979.59 1309.25 L1984.5 1313.69 L1989.4 1318.28 L1994.31 1323.01 
  L1999.21 1327.88 L2004.12 1332.87 L2009.02 1337.94 L2013.93 1343.07 L2018.83 1348.22 L2023.74 1353.36 L2028.65 1358.46 L2033.55 1363.47 L2038.46 1368.37 L2043.36 1373.12 
  L2048.27 1377.7 L2053.17 1382.09 L2058.08 1386.28 L2062.98 1390.26 L2067.89 1394.03 L2072.79 1397.59 L2077.7 1400.96 L2082.6 1404.14 L2087.51 1407.16 L2092.42 1410.05 
  L2097.32 1412.81 L2102.23 1415.48 L2107.13 1418.09 L2112.04 1420.64 L2116.94 1423.17 L2121.85 1425.69 L2126.75 1428.21 L2131.66 1430.73 L2136.56 1433.25 L2141.47 1435.78 
  L2146.37 1438.3 L2151.28 1440.81 L2156.19 1443.27 L2161.09 1445.69 L2166 1448.03 L2170.9 1450.28 L2175.81 1452.42 L2180.71 1454.44 L2185.62 1456.31 L2190.52 1458.03 
  L2195.43 1459.6 L2200.33 1461.02 L2205.24 1462.27 L2210.14 1463.39 L2215.05 1464.36 L2219.96 1465.21 L2224.86 1465.96 L2229.77 1466.61 L2234.67 1467.19 L2239.58 1467.72 
  L2244.48 1468.2 L2249.39 1468.66 L2254.29 1469.11 L2259.2 1469.55 L2264.1 1470.01 L2269.01 1470.47 L2273.91 1470.94 L2278.82 1471.43 L2283.73 1471.94 L2288.63 1472.45 
  L2288.63 1479.3 L2283.73 1479.3 L2278.82 1479.3 L2273.91 1479.3 L2269.01 1479.3 L2264.1 1479.3 L2259.2 1479.3 L2254.29 1479.3 L2249.39 1479.3 L2244.48 1479.3 
  L2239.58 1479.3 L2234.67 1479.3 L2229.77 1479.3 L2224.86 1479.3 L2219.96 1479.3 L2215.05 1479.3 L2210.14 1479.3 L2205.24 1479.3 L2200.33 1479.3 L2195.43 1479.3 
  L2190.52 1479.3 L2185.62 1479.3 L2180.71 1479.3 L2175.81 1479.3 L2170.9 1479.3 L2166 1479.3 L2161.09 1479.3 L2156.19 1479.3 L2151.28 1479.3 L2146.37 1479.3 
  L2141.47 1479.3 L2136.56 1479.3 L2131.66 1479.3 L2126.75 1479.3 L2121.85 1479.3 L2116.94 1479.3 L2112.04 1479.3 L2107.13 1479.3 L2102.23 1479.3 L2097.32 1479.3 
  L2092.42 1479.3 L2087.51 1479.3 L2082.6 1479.3 L2077.7 1479.3 L2072.79 1479.3 L2067.89 1479.3 L2062.98 1479.3 L2058.08 1479.3 L2053.17 1479.3 L2048.27 1479.3 
  L2043.36 1479.3 L2038.46 1479.3 L2033.55 1479.3 L2028.65 1479.3 L2023.74 1479.3 L2018.83 1479.3 L2013.93 1479.3 L2009.02 1479.3 L2004.12 1479.3 L1999.21 1479.3 
  L1994.31 1479.3 L1989.4 1479.3 L1984.5 1479.3 L1979.59 1479.3 L1974.69 1479.3 L1969.78 1479.3 L1964.88 1479.3 L1959.97 1479.3 L1955.06 1479.3 L1950.16 1479.3 
  L1945.25 1479.3 L1940.35 1479.3 L1935.44 1479.3 L1930.54 1479.3 L1925.63 1479.3 L1920.73 1479.3 L1915.82 1479.3 L1910.92 1479.3 L1906.01 1479.3 L1901.11 1479.3 
  L1896.2 1479.3 L1891.3 1479.3 L1886.39 1479.3 L1881.48 1479.3 L1876.58 1479.3 L1871.67 1479.3 L1866.77 1479.3 L1861.86 1479.3 L1856.96 1479.3 L1852.05 1479.3 
  L1847.15 1479.3 L1842.24 1479.3 L1837.34 1479.3 L1832.43 1479.3 L1827.53 1479.3 L1822.62 1479.3 L1817.71 1479.3 L1812.81 1479.3 L1807.9 1479.3 L1803 1479.3 
   Z
  " fill="#ffa500" fill-rule="evenodd" fill-opacity="0.5"/>
<polyline clip-path="url(#clip782)" style="stroke:#ffa500; stroke-width:4; stroke-opacity:1; fill:none" points="
  1803,1043.85 1807.9,1055.65 1812.81,1067.63 1817.71,1079.74 1822.62,1091.87 1827.53,1103.96 1832.43,1115.92 1837.34,1127.67 1842.24,1139.14 1847.15,1150.27 
  1852.05,1160.99 1856.96,1171.27 1861.86,1181.06 1866.77,1190.34 1871.67,1199.11 1876.58,1207.35 1881.48,1215.09 1886.39,1222.32 1891.3,1229.07 1896.2,1235.37 
  1901.11,1241.26 1906.01,1246.76 1910.92,1251.91 1915.82,1256.75 1920.73,1261.31 1925.63,1265.65 1930.54,1269.79 1935.44,1273.78 1940.35,1277.67 1945.25,1281.48 
  1950.16,1285.27 1955.06,1289.06 1959.97,1292.9 1964.88,1296.81 1969.78,1300.83 1974.69,1304.97 1979.59,1309.25 1984.5,1313.69 1989.4,1318.28 1994.31,1323.01 
  1999.21,1327.88 2004.12,1332.87 2009.02,1337.94 2013.93,1343.07 2018.83,1348.22 2023.74,1353.36 2028.65,1358.46 2033.55,1363.47 2038.46,1368.37 2043.36,1373.12 
  2048.27,1377.7 2053.17,1382.09 2058.08,1386.28 2062.98,1390.26 2067.89,1394.03 2072.79,1397.59 2077.7,1400.96 2082.6,1404.14 2087.51,1407.16 2092.42,1410.05 
  2097.32,1412.81 2102.23,1415.48 2107.13,1418.09 2112.04,1420.64 2116.94,1423.17 2121.85,1425.69 2126.75,1428.21 2131.66,1430.73 2136.56,1433.25 2141.47,1435.78 
  2146.37,1438.3 2151.28,1440.81 2156.19,1443.27 2161.09,1445.69 2166,1448.03 2170.9,1450.28 2175.81,1452.42 2180.71,1454.44 2185.62,1456.31 2190.52,1458.03 
  2195.43,1459.6 2200.33,1461.02 2205.24,1462.27 2210.14,1463.39 2215.05,1464.36 2219.96,1465.21 2224.86,1465.96 2229.77,1466.61 2234.67,1467.19 2239.58,1467.72 
  2244.48,1468.2 2249.39,1468.66 2254.29,1469.11 2259.2,1469.55 2264.1,1470.01 2269.01,1470.47 2273.91,1470.94 2278.82,1471.43 2283.73,1471.94 2288.63,1472.45 
  
  "/>
<polyline clip-path="url(#clip782)" style="stroke:#0000ff; stroke-width:4; stroke-opacity:1; fill:none" points="
  1223.37,1479.3 1223.37,89.2463 
  "/>
<polyline clip-path="url(#clip782)" style="stroke:#000000; stroke-width:4; stroke-opacity:1; fill:none" points="
  1212.55,1479.3 1212.55,89.2573 
  "/>
<path clip-path="url(#clip780)" d="
M1494.58 459.25 L2277.23 459.25 L2277.23 96.3696 L1494.58 96.3696  Z
  " fill="#ffffff" fill-rule="evenodd" fill-opacity="1"/>
<polyline clip-path="url(#clip780)" style="stroke:#000000; stroke-width:4; stroke-opacity:1; fill:none" points="
  1494.58,459.25 2277.23,459.25 2277.23,96.3696 1494.58,96.3696 1494.58,459.25 
  "/>
<path clip-path="url(#clip780)" d="
M1519.75 181.042 L1670.81 181.042 L1670.81 132.658 L1519.75 132.658 L1519.75 181.042  Z
  " fill="#ffa500" fill-rule="evenodd" fill-opacity="0.5"/>
<polyline clip-path="url(#clip780)" style="stroke:#ffa500; stroke-width:4; stroke-opacity:1; fill:none" points="
  1519.75,132.658 1670.81,132.658 
  "/>
<path clip-path="url(#clip780)" d="M 0 0 M1700.38 161.19 Q1700.38 165.889 1702.3 168.574 Q1704.24 171.236 1707.62 171.236 Q1711 171.236 1712.95 168.574 Q1714.89 165.889 1714.89 161.19 Q1714.89 156.491 1712.95 153.829 Q1711 151.144 1707.62 151.144 Q1704.24 151.144 1702.3 153.829 Q1700.38 156.491 1700.38 161.19 M1714.89 170.241 Q1713.55 172.555 1711.49 173.69 Q1709.45 174.801 1706.58 174.801 Q1701.88 174.801 1698.92 171.051 Q1695.98 167.301 1695.98 161.19 Q1695.98 155.079 1698.92 151.329 Q1701.88 147.579 1706.58 147.579 Q1709.45 147.579 1711.49 148.713 Q1713.55 149.824 1714.89 152.139 L1714.89 148.204 L1719.15 148.204 L1719.15 183.991 L1714.89 183.991 L1714.89 170.241 Z" fill="#000000" fill-rule="evenodd" fill-opacity="1" /><path clip-path="url(#clip780)" d="M 0 0 M1734.22 142.648 Q1730.61 142.648 1728.78 146.213 Q1726.98 149.755 1726.98 156.884 Q1726.98 163.991 1728.78 167.556 Q1730.61 171.097 1734.22 171.097 Q1737.85 171.097 1739.66 167.556 Q1741.49 163.991 1741.49 156.884 Q1741.49 149.755 1739.66 146.213 Q1737.85 142.648 1734.22 142.648 M1734.22 138.945 Q1740.03 138.945 1743.09 143.551 Q1746.17 148.134 1746.17 156.884 Q1746.17 165.611 1743.09 170.218 Q1740.03 174.801 1734.22 174.801 Q1728.41 174.801 1725.33 170.218 Q1722.28 165.611 1722.28 156.884 Q1722.28 148.134 1725.33 143.551 Q1728.41 138.945 1734.22 138.945 Z" fill="#000000" fill-rule="evenodd" fill-opacity="1" /><path clip-path="url(#clip780)" d="M 0 0 M1751.28 139.57 L1769.64 139.57 L1769.64 143.505 L1755.56 143.505 L1755.56 151.977 Q1756.58 151.63 1757.6 151.468 Q1758.62 151.282 1759.64 151.282 Q1765.42 151.282 1768.8 154.454 Q1772.18 157.625 1772.18 163.042 Q1772.18 168.62 1768.71 171.722 Q1765.24 174.801 1758.92 174.801 Q1756.74 174.801 1754.48 174.43 Q1752.23 174.06 1749.82 173.319 L1749.82 168.62 Q1751.91 169.755 1754.13 170.31 Q1756.35 170.866 1758.83 170.866 Q1762.83 170.866 1765.17 168.759 Q1767.51 166.653 1767.51 163.042 Q1767.51 159.431 1765.17 157.324 Q1762.83 155.218 1758.83 155.218 Q1756.95 155.218 1755.08 155.634 Q1753.23 156.051 1751.28 156.931 L1751.28 139.57 Z" fill="#000000" fill-rule="evenodd" fill-opacity="1" /><path clip-path="url(#clip780)" d="
M1519.75 241.522 L1670.81 241.522 L1670.81 193.138 L1519.75 193.138 L1519.75 241.522  Z
  " fill="#008000" fill-rule="evenodd" fill-opacity="0.5"/>
<polyline clip-path="url(#clip780)" style="stroke:#008000; stroke-width:4; stroke-opacity:1; fill:none" points="
  1519.75,193.138 1670.81,193.138 
  "/>
<path clip-path="url(#clip780)" d="M 0 0 M1698.2 233.892 L1698.2 229.633 Q1699.96 230.466 1701.77 230.906 Q1703.57 231.346 1705.31 231.346 Q1709.94 231.346 1712.37 228.244 Q1714.82 225.119 1715.17 218.776 Q1713.83 220.767 1711.77 221.832 Q1709.71 222.897 1707.21 222.897 Q1702.02 222.897 1698.99 219.772 Q1695.98 216.624 1695.98 211.184 Q1695.98 205.86 1699.13 202.642 Q1702.28 199.425 1707.51 199.425 Q1713.5 199.425 1716.65 204.031 Q1719.82 208.614 1719.82 217.364 Q1719.82 225.536 1715.93 230.42 Q1712.07 235.281 1705.52 235.281 Q1703.76 235.281 1701.95 234.934 Q1700.15 234.586 1698.2 233.892 M1707.51 219.239 Q1710.66 219.239 1712.48 217.086 Q1714.34 214.934 1714.34 211.184 Q1714.34 207.457 1712.48 205.304 Q1710.66 203.128 1707.51 203.128 Q1704.36 203.128 1702.51 205.304 Q1700.68 207.457 1700.68 211.184 Q1700.68 214.934 1702.51 217.086 Q1704.36 219.239 1707.51 219.239 Z" fill="#000000" fill-rule="evenodd" fill-opacity="1" /><path clip-path="url(#clip780)" d="M 0 0 M1734.89 203.128 Q1731.28 203.128 1729.45 206.693 Q1727.65 210.235 1727.65 217.364 Q1727.65 224.471 1729.45 228.036 Q1731.28 231.577 1734.89 231.577 Q1738.53 231.577 1740.33 228.036 Q1742.16 224.471 1742.16 217.364 Q1742.16 210.235 1740.33 206.693 Q1738.53 203.128 1734.89 203.128 M1734.89 199.425 Q1740.7 199.425 1743.76 204.031 Q1746.84 208.614 1746.84 217.364 Q1746.84 226.091 1743.76 230.698 Q1740.7 235.281 1734.89 235.281 Q1729.08 235.281 1726 230.698 Q1722.95 226.091 1722.95 217.364 Q1722.95 208.614 1726 204.031 Q1729.08 199.425 1734.89 199.425 Z" fill="#000000" fill-rule="evenodd" fill-opacity="1" /><path clip-path="url(#clip780)" d="M 0 0 M1781.3 219.401 Q1779.29 219.401 1778.13 221.114 Q1777 222.827 1777 225.883 Q1777 228.892 1778.13 230.628 Q1779.29 232.341 1781.3 232.341 Q1783.27 232.341 1784.41 230.628 Q1785.56 228.892 1785.56 225.883 Q1785.56 222.85 1784.41 221.137 Q1783.27 219.401 1781.3 219.401 M1781.3 216.462 Q1784.96 216.462 1787.11 219.008 Q1789.27 221.554 1789.27 225.883 Q1789.27 230.211 1787.09 232.758 Q1784.94 235.281 1781.3 235.281 Q1777.6 235.281 1775.45 232.758 Q1773.29 230.211 1773.29 225.883 Q1773.29 221.531 1775.45 219.008 Q1777.62 216.462 1781.3 216.462 M1757.42 202.364 Q1755.42 202.364 1754.27 204.1 Q1753.13 205.813 1753.13 208.823 Q1753.13 211.878 1754.27 213.591 Q1755.4 215.304 1757.42 215.304 Q1759.43 215.304 1760.56 213.591 Q1761.72 211.878 1761.72 208.823 Q1761.72 205.837 1760.56 204.1 Q1759.41 202.364 1757.42 202.364 M1778.32 199.425 L1782.02 199.425 L1760.4 235.281 L1756.7 235.281 L1778.32 199.425 M1757.42 199.425 Q1761.07 199.425 1763.25 201.971 Q1765.42 204.494 1765.42 208.823 Q1765.42 213.198 1763.25 215.721 Q1761.1 218.244 1757.42 218.244 Q1753.73 218.244 1751.58 215.721 Q1749.45 213.174 1749.45 208.823 Q1749.45 204.517 1751.6 201.971 Q1753.76 199.425 1757.42 199.425 Z" fill="#000000" fill-rule="evenodd" fill-opacity="1" /><path clip-path="url(#clip780)" d="M 0 0 M1830.35 218.961 L1830.35 234.61 L1826.1 234.61 L1826.1 219.1 Q1826.1 215.42 1824.66 213.591 Q1823.22 211.762 1820.35 211.762 Q1816.91 211.762 1814.91 213.962 Q1812.92 216.161 1812.92 219.957 L1812.92 234.61 L1808.64 234.61 L1808.64 208.684 L1812.92 208.684 L1812.92 212.712 Q1814.45 210.374 1816.51 209.216 Q1818.6 208.059 1821.3 208.059 Q1825.77 208.059 1828.06 210.837 Q1830.35 213.591 1830.35 218.961 Z" fill="#000000" fill-rule="evenodd" fill-opacity="1" /><path clip-path="url(#clip780)" d="M 0 0 M1844.87 211.67 Q1841.44 211.67 1839.45 214.355 Q1837.46 217.017 1837.46 221.67 Q1837.46 226.323 1839.43 229.008 Q1841.42 231.67 1844.87 231.67 Q1848.27 231.67 1850.26 228.985 Q1852.25 226.299 1852.25 221.67 Q1852.25 217.063 1850.26 214.378 Q1848.27 211.67 1844.87 211.67 M1844.87 208.059 Q1850.42 208.059 1853.6 211.67 Q1856.77 215.281 1856.77 221.67 Q1856.77 228.036 1853.6 231.67 Q1850.42 235.281 1844.87 235.281 Q1839.29 235.281 1836.12 231.67 Q1832.97 228.036 1832.97 221.67 Q1832.97 215.281 1836.12 211.67 Q1839.29 208.059 1844.87 208.059 Z" fill="#000000" fill-rule="evenodd" fill-opacity="1" /><path clip-path="url(#clip780)" d="M 0 0 M1882.78 218.961 L1882.78 234.61 L1878.53 234.61 L1878.53 219.1 Q1878.53 215.42 1877.09 213.591 Q1875.66 211.762 1872.78 211.762 Q1869.34 211.762 1867.35 213.962 Q1865.35 216.161 1865.35 219.957 L1865.35 234.61 L1861.07 234.61 L1861.07 208.684 L1865.35 208.684 L1865.35 212.712 Q1866.88 210.374 1868.94 209.216 Q1871.03 208.059 1873.73 208.059 Q1878.2 208.059 1880.49 210.837 Q1882.78 213.591 1882.78 218.961 Z" fill="#000000" fill-rule="evenodd" fill-opacity="1" /><path clip-path="url(#clip780)" d="M 0 0 M1885.1 219.725 L1897.58 219.725 L1897.58 223.522 L1885.1 223.522 L1885.1 219.725 Z" fill="#000000" fill-rule="evenodd" fill-opacity="1" /><path clip-path="url(#clip780)" d="M 0 0 M1917.07 212.665 Q1916.35 212.249 1915.49 212.063 Q1914.66 211.855 1913.64 211.855 Q1910.03 211.855 1908.09 214.216 Q1906.16 216.554 1906.16 220.952 L1906.16 234.61 L1901.88 234.61 L1901.88 208.684 L1906.16 208.684 L1906.16 212.712 Q1907.51 210.35 1909.66 209.216 Q1911.81 208.059 1914.89 208.059 Q1915.33 208.059 1915.86 208.128 Q1916.4 208.175 1917.04 208.29 L1917.07 212.665 Z" fill="#000000" fill-rule="evenodd" fill-opacity="1" /><path clip-path="url(#clip780)" d="M 0 0 M1942.67 220.582 L1942.67 222.665 L1923.09 222.665 Q1923.36 227.063 1925.72 229.378 Q1928.11 231.67 1932.34 231.67 Q1934.8 231.67 1937.09 231.068 Q1939.4 230.466 1941.67 229.262 L1941.67 233.29 Q1939.38 234.262 1936.97 234.772 Q1934.57 235.281 1932.09 235.281 Q1925.89 235.281 1922.25 231.67 Q1918.64 228.059 1918.64 221.901 Q1918.64 215.536 1922.07 211.809 Q1925.52 208.059 1931.35 208.059 Q1936.58 208.059 1939.61 211.438 Q1942.67 214.795 1942.67 220.582 M1938.41 219.332 Q1938.36 215.837 1936.44 213.753 Q1934.54 211.67 1931.4 211.67 Q1927.83 211.67 1925.68 213.684 Q1923.55 215.698 1923.22 219.355 L1938.41 219.332 Z" fill="#000000" fill-rule="evenodd" fill-opacity="1" /><path clip-path="url(#clip780)" d="M 0 0 M1947.14 208.684 L1951.4 208.684 L1951.4 235.073 Q1951.4 240.026 1949.5 242.248 Q1947.62 244.471 1943.43 244.471 L1941.81 244.471 L1941.81 240.86 L1942.95 240.86 Q1945.38 240.86 1946.26 239.725 Q1947.14 238.614 1947.14 235.073 L1947.14 208.684 M1947.14 198.591 L1951.4 198.591 L1951.4 203.985 L1947.14 203.985 L1947.14 198.591 Z" fill="#000000" fill-rule="evenodd" fill-opacity="1" /><path clip-path="url(#clip780)" d="M 0 0 M1978.04 220.582 L1978.04 222.665 L1958.46 222.665 Q1958.73 227.063 1961.09 229.378 Q1963.48 231.67 1967.71 231.67 Q1970.17 231.67 1972.46 231.068 Q1974.78 230.466 1977.04 229.262 L1977.04 233.29 Q1974.75 234.262 1972.34 234.772 Q1969.94 235.281 1967.46 235.281 Q1961.26 235.281 1957.62 231.67 Q1954.01 228.059 1954.01 221.901 Q1954.01 215.536 1957.44 211.809 Q1960.89 208.059 1966.72 208.059 Q1971.95 208.059 1974.98 211.438 Q1978.04 214.795 1978.04 220.582 M1973.78 219.332 Q1973.73 215.837 1971.81 213.753 Q1969.91 211.67 1966.77 211.67 Q1963.2 211.67 1961.05 213.684 Q1958.92 215.698 1958.59 219.355 L1973.78 219.332 Z" fill="#000000" fill-rule="evenodd" fill-opacity="1" /><path clip-path="url(#clip780)" d="M 0 0 M2001.16 209.679 L2001.16 213.661 Q1999.36 212.665 1997.53 212.179 Q1995.72 211.67 1993.87 211.67 Q1989.73 211.67 1987.44 214.309 Q1985.15 216.924 1985.15 221.67 Q1985.15 226.415 1987.44 229.054 Q1989.73 231.67 1993.87 231.67 Q1995.72 231.67 1997.53 231.184 Q1999.36 230.674 2001.16 229.679 L2001.16 233.614 Q1999.38 234.448 1997.46 234.864 Q1995.56 235.281 1993.41 235.281 Q1987.55 235.281 1984.1 231.6 Q1980.65 227.92 1980.65 221.67 Q1980.65 215.327 1984.13 211.693 Q1987.62 208.059 1993.69 208.059 Q1995.65 208.059 1997.53 208.475 Q1999.4 208.869 2001.16 209.679 Z" fill="#000000" fill-rule="evenodd" fill-opacity="1" /><path clip-path="url(#clip780)" d="M 0 0 M2009.84 201.323 L2009.84 208.684 L2018.62 208.684 L2018.62 211.994 L2009.84 211.994 L2009.84 226.068 Q2009.84 229.239 2010.7 230.142 Q2011.58 231.045 2014.24 231.045 L2018.62 231.045 L2018.62 234.61 L2014.24 234.61 Q2009.31 234.61 2007.44 232.781 Q2005.56 230.929 2005.56 226.068 L2005.56 211.994 L2002.44 211.994 L2002.44 208.684 L2005.56 208.684 L2005.56 201.323 L2009.84 201.323 Z" fill="#000000" fill-rule="evenodd" fill-opacity="1" /><path clip-path="url(#clip780)" d="M 0 0 M2023.08 208.684 L2027.34 208.684 L2027.34 234.61 L2023.08 234.61 L2023.08 208.684 M2023.08 198.591 L2027.34 198.591 L2027.34 203.985 L2023.08 203.985 L2023.08 198.591 Z" fill="#000000" fill-rule="evenodd" fill-opacity="1" /><path clip-path="url(#clip780)" d="M 0 0 M2041.86 211.67 Q2038.43 211.67 2036.44 214.355 Q2034.45 217.017 2034.45 221.67 Q2034.45 226.323 2036.42 229.008 Q2038.41 231.67 2041.86 231.67 Q2045.26 231.67 2047.25 228.985 Q2049.24 226.299 2049.24 221.67 Q2049.24 217.063 2047.25 214.378 Q2045.26 211.67 2041.86 211.67 M2041.86 208.059 Q2047.41 208.059 2050.58 211.67 Q2053.76 215.281 2053.76 221.67 Q2053.76 228.036 2050.58 231.67 Q2047.41 235.281 2041.86 235.281 Q2036.28 235.281 2033.11 231.67 Q2029.96 228.036 2029.96 221.67 Q2029.96 215.281 2033.11 211.67 Q2036.28 208.059 2041.86 208.059 Z" fill="#000000" fill-rule="evenodd" fill-opacity="1" /><path clip-path="url(#clip780)" d="M 0 0 M2079.77 218.961 L2079.77 234.61 L2075.52 234.61 L2075.52 219.1 Q2075.52 215.42 2074.08 213.591 Q2072.64 211.762 2069.77 211.762 Q2066.33 211.762 2064.33 213.962 Q2062.34 216.161 2062.34 219.957 L2062.34 234.61 L2058.06 234.61 L2058.06 208.684 L2062.34 208.684 L2062.34 212.712 Q2063.87 210.374 2065.93 209.216 Q2068.02 208.059 2070.72 208.059 Q2075.19 208.059 2077.48 210.837 Q2079.77 213.591 2079.77 218.961 Z" fill="#000000" fill-rule="evenodd" fill-opacity="1" /><path clip-path="url(#clip780)" d="M 0 0 M2114.33 212.665 Q2113.62 212.249 2112.76 212.063 Q2111.93 211.855 2110.91 211.855 Q2107.3 211.855 2105.35 214.216 Q2103.43 216.554 2103.43 220.952 L2103.43 234.61 L2099.15 234.61 L2099.15 208.684 L2103.43 208.684 L2103.43 212.712 Q2104.77 210.35 2106.93 209.216 Q2109.08 208.059 2112.16 208.059 Q2112.6 208.059 2113.13 208.128 Q2113.66 208.175 2114.31 208.29 L2114.33 212.665 Z" fill="#000000" fill-rule="evenodd" fill-opacity="1" /><path clip-path="url(#clip780)" d="M 0 0 M2139.94 220.582 L2139.94 222.665 L2120.35 222.665 Q2120.63 227.063 2122.99 229.378 Q2125.38 231.67 2129.61 231.67 Q2132.07 231.67 2134.36 231.068 Q2136.67 230.466 2138.94 229.262 L2138.94 233.29 Q2136.65 234.262 2134.24 234.772 Q2131.83 235.281 2129.36 235.281 Q2123.15 235.281 2119.52 231.67 Q2115.91 228.059 2115.91 221.901 Q2115.91 215.536 2119.33 211.809 Q2122.78 208.059 2128.62 208.059 Q2133.85 208.059 2136.88 211.438 Q2139.94 214.795 2139.94 220.582 M2135.68 219.332 Q2135.63 215.837 2133.71 213.753 Q2131.81 211.67 2128.66 211.67 Q2125.1 211.67 2122.95 213.684 Q2120.82 215.698 2120.49 219.355 L2135.68 219.332 Z" fill="#000000" fill-rule="evenodd" fill-opacity="1" /><path clip-path="url(#clip780)" d="M 0 0 M2161.46 221.346 Q2161.46 216.716 2159.54 214.17 Q2157.64 211.624 2154.2 211.624 Q2150.77 211.624 2148.85 214.17 Q2146.95 216.716 2146.95 221.346 Q2146.95 225.952 2148.85 228.498 Q2150.77 231.045 2154.2 231.045 Q2157.64 231.045 2159.54 228.498 Q2161.46 225.952 2161.46 221.346 M2165.72 231.392 Q2165.72 238.012 2162.78 241.23 Q2159.84 244.471 2153.78 244.471 Q2151.53 244.471 2149.54 244.123 Q2147.55 243.799 2145.68 243.105 L2145.68 238.961 Q2147.55 239.98 2149.38 240.466 Q2151.21 240.952 2153.11 240.952 Q2157.3 240.952 2159.38 238.753 Q2161.46 236.577 2161.46 232.156 L2161.46 230.049 Q2160.14 232.341 2158.08 233.475 Q2156.02 234.61 2153.15 234.61 Q2148.39 234.61 2145.47 230.975 Q2142.55 227.341 2142.55 221.346 Q2142.55 215.327 2145.47 211.693 Q2148.39 208.059 2153.15 208.059 Q2156.02 208.059 2158.08 209.193 Q2160.14 210.327 2161.46 212.619 L2161.46 208.684 L2165.72 208.684 L2165.72 231.392 Z" fill="#000000" fill-rule="evenodd" fill-opacity="1" /><path clip-path="url(#clip780)" d="M 0 0 M2170.19 208.684 L2174.45 208.684 L2174.45 234.61 L2170.19 234.61 L2170.19 208.684 M2170.19 198.591 L2174.45 198.591 L2174.45 203.985 L2170.19 203.985 L2170.19 198.591 Z" fill="#000000" fill-rule="evenodd" fill-opacity="1" /><path clip-path="url(#clip780)" d="M 0 0 M2188.96 211.67 Q2185.54 211.67 2183.55 214.355 Q2181.56 217.017 2181.56 221.67 Q2181.56 226.323 2183.52 229.008 Q2185.51 231.67 2188.96 231.67 Q2192.37 231.67 2194.36 228.985 Q2196.35 226.299 2196.35 221.67 Q2196.35 217.063 2194.36 214.378 Q2192.37 211.67 2188.96 211.67 M2188.96 208.059 Q2194.52 208.059 2197.69 211.67 Q2200.86 215.281 2200.86 221.67 Q2200.86 228.036 2197.69 231.67 Q2194.52 235.281 2188.96 235.281 Q2183.39 235.281 2180.21 231.67 Q2177.07 228.036 2177.07 221.67 Q2177.07 215.281 2180.21 211.67 Q2183.39 208.059 2188.96 208.059 Z" fill="#000000" fill-rule="evenodd" fill-opacity="1" /><path clip-path="url(#clip780)" d="M 0 0 M2226.88 218.961 L2226.88 234.61 L2222.62 234.61 L2222.62 219.1 Q2222.62 215.42 2221.19 213.591 Q2219.75 211.762 2216.88 211.762 Q2213.43 211.762 2211.44 213.962 Q2209.45 216.161 2209.45 219.957 L2209.45 234.61 L2205.17 234.61 L2205.17 208.684 L2209.45 208.684 L2209.45 212.712 Q2210.98 210.374 2213.04 209.216 Q2215.12 208.059 2217.83 208.059 Q2222.3 208.059 2224.59 210.837 Q2226.88 213.591 2226.88 218.961 Z" fill="#000000" fill-rule="evenodd" fill-opacity="1" /><path clip-path="url(#clip780)" d="
M1519.75 302.002 L1670.81 302.002 L1670.81 253.618 L1519.75 253.618 L1519.75 302.002  Z
  " fill="#ffa500" fill-rule="evenodd" fill-opacity="0.5"/>
<polyline clip-path="url(#clip780)" style="stroke:#ffa500; stroke-width:4; stroke-opacity:1; fill:none" points="
  1519.75,253.618 1670.81,253.618 
  "/>
<path clip-path="url(#clip780)" d="M 0 0 M1700.38 282.15 Q1700.38 286.849 1702.3 289.534 Q1704.24 292.196 1707.62 292.196 Q1711 292.196 1712.95 289.534 Q1714.89 286.849 1714.89 282.15 Q1714.89 277.451 1712.95 274.789 Q1711 272.104 1707.62 272.104 Q1704.24 272.104 1702.3 274.789 Q1700.38 277.451 1700.38 282.15 M1714.89 291.201 Q1713.55 293.515 1711.49 294.65 Q1709.45 295.761 1706.58 295.761 Q1701.88 295.761 1698.92 292.011 Q1695.98 288.261 1695.98 282.15 Q1695.98 276.039 1698.92 272.289 Q1701.88 268.539 1706.58 268.539 Q1709.45 268.539 1711.49 269.673 Q1713.55 270.784 1714.89 273.099 L1714.89 269.164 L1719.15 269.164 L1719.15 304.951 L1714.89 304.951 L1714.89 291.201 Z" fill="#000000" fill-rule="evenodd" fill-opacity="1" /><path clip-path="url(#clip780)" d="M 0 0 M1724.36 294.372 L1724.36 290.113 Q1726.12 290.946 1727.92 291.386 Q1729.73 291.826 1731.47 291.826 Q1736.1 291.826 1738.53 288.724 Q1740.98 285.599 1741.33 279.256 Q1739.98 281.247 1737.92 282.312 Q1735.86 283.377 1733.36 283.377 Q1728.18 283.377 1725.15 280.252 Q1722.14 277.104 1722.14 271.664 Q1722.14 266.34 1725.29 263.122 Q1728.43 259.905 1733.67 259.905 Q1739.66 259.905 1742.81 264.511 Q1745.98 269.094 1745.98 277.844 Q1745.98 286.016 1742.09 290.9 Q1738.23 295.761 1731.67 295.761 Q1729.92 295.761 1728.11 295.414 Q1726.3 295.066 1724.36 294.372 M1733.67 279.719 Q1736.81 279.719 1738.64 277.566 Q1740.49 275.414 1740.49 271.664 Q1740.49 267.937 1738.64 265.784 Q1736.81 263.608 1733.67 263.608 Q1730.52 263.608 1728.67 265.784 Q1726.84 267.937 1726.84 271.664 Q1726.84 275.414 1728.67 277.566 Q1730.52 279.719 1733.67 279.719 Z" fill="#000000" fill-rule="evenodd" fill-opacity="1" /><path clip-path="url(#clip780)" d="M 0 0 M1751.1 260.53 L1769.45 260.53 L1769.45 264.465 L1755.38 264.465 L1755.38 272.937 Q1756.4 272.59 1757.42 272.428 Q1758.43 272.242 1759.45 272.242 Q1765.24 272.242 1768.62 275.414 Q1772 278.585 1772 284.002 Q1772 289.58 1768.53 292.682 Q1765.05 295.761 1758.73 295.761 Q1756.56 295.761 1754.29 295.39 Q1752.04 295.02 1749.64 294.279 L1749.64 289.58 Q1751.72 290.715 1753.94 291.27 Q1756.17 291.826 1758.64 291.826 Q1762.65 291.826 1764.98 289.719 Q1767.32 287.613 1767.32 284.002 Q1767.32 280.391 1764.98 278.284 Q1762.65 276.178 1758.64 276.178 Q1756.77 276.178 1754.89 276.594 Q1753.04 277.011 1751.1 277.891 L1751.1 260.53 Z" fill="#000000" fill-rule="evenodd" fill-opacity="1" /><polyline clip-path="url(#clip780)" style="stroke:#0000ff; stroke-width:4; stroke-opacity:1; fill:none" points="
  1519.75,338.29 1670.81,338.29 
  "/>
<path clip-path="url(#clip780)" d="M 0 0 M1716.33 334.621 Q1717.92 331.75 1720.15 330.385 Q1722.37 329.019 1725.38 329.019 Q1729.43 329.019 1731.63 331.866 Q1733.83 334.69 1733.83 339.921 L1733.83 355.57 L1729.54 355.57 L1729.54 340.06 Q1729.54 336.334 1728.23 334.528 Q1726.91 332.722 1724.2 332.722 Q1720.89 332.722 1718.97 334.922 Q1717.04 337.121 1717.04 340.917 L1717.04 355.57 L1712.76 355.57 L1712.76 340.06 Q1712.76 336.31 1711.44 334.528 Q1710.12 332.722 1707.37 332.722 Q1704.11 332.722 1702.18 334.945 Q1700.26 337.144 1700.26 340.917 L1700.26 355.57 L1695.98 355.57 L1695.98 329.644 L1700.26 329.644 L1700.26 333.672 Q1701.72 331.287 1703.76 330.153 Q1705.79 329.019 1708.6 329.019 Q1711.42 329.019 1713.39 330.454 Q1715.38 331.889 1716.33 334.621 Z" fill="#000000" fill-rule="evenodd" fill-opacity="1" /><path clip-path="url(#clip780)" d="M 0 0 M1760.47 341.542 L1760.47 343.625 L1740.89 343.625 Q1741.17 348.023 1743.53 350.338 Q1745.91 352.63 1750.15 352.63 Q1752.6 352.63 1754.89 352.028 Q1757.21 351.426 1759.48 350.222 L1759.48 354.25 Q1757.18 355.222 1754.78 355.732 Q1752.37 356.241 1749.89 356.241 Q1743.69 356.241 1740.05 352.63 Q1736.44 349.019 1736.44 342.861 Q1736.44 336.496 1739.87 332.769 Q1743.32 329.019 1749.15 329.019 Q1754.38 329.019 1757.42 332.398 Q1760.47 335.755 1760.47 341.542 M1756.21 340.292 Q1756.17 336.797 1754.24 334.713 Q1752.35 332.63 1749.2 332.63 Q1745.63 332.63 1743.48 334.644 Q1741.35 336.658 1741.03 340.315 L1756.21 340.292 Z" fill="#000000" fill-rule="evenodd" fill-opacity="1" /><path clip-path="url(#clip780)" d="M 0 0 M1776.72 342.537 Q1771.56 342.537 1769.57 343.718 Q1767.58 344.898 1767.58 347.746 Q1767.58 350.014 1769.06 351.357 Q1770.56 352.676 1773.13 352.676 Q1776.67 352.676 1778.8 350.176 Q1780.96 347.653 1780.96 343.486 L1780.96 342.537 L1776.72 342.537 M1785.22 340.778 L1785.22 355.57 L1780.96 355.57 L1780.96 351.634 Q1779.5 353.995 1777.32 355.13 Q1775.15 356.241 1772 356.241 Q1768.02 356.241 1765.66 354.019 Q1763.32 351.773 1763.32 348.023 Q1763.32 343.648 1766.23 341.426 Q1769.17 339.204 1774.98 339.204 L1780.96 339.204 L1780.96 338.787 Q1780.96 335.847 1779.01 334.25 Q1777.09 332.63 1773.6 332.63 Q1771.37 332.63 1769.27 333.162 Q1767.16 333.695 1765.22 334.759 L1765.22 330.824 Q1767.55 329.922 1769.75 329.482 Q1771.95 329.019 1774.04 329.019 Q1779.66 329.019 1782.44 331.935 Q1785.22 334.852 1785.22 340.778 Z" fill="#000000" fill-rule="evenodd" fill-opacity="1" /><path clip-path="url(#clip780)" d="M 0 0 M1811.23 339.921 L1811.23 355.57 L1806.97 355.57 L1806.97 340.06 Q1806.97 336.38 1805.54 334.551 Q1804.1 332.722 1801.23 332.722 Q1797.79 332.722 1795.79 334.922 Q1793.8 337.121 1793.8 340.917 L1793.8 355.57 L1789.52 355.57 L1789.52 329.644 L1793.8 329.644 L1793.8 333.672 Q1795.33 331.334 1797.39 330.176 Q1799.48 329.019 1802.18 329.019 Q1806.65 329.019 1808.94 331.797 Q1811.23 334.551 1811.23 339.921 Z" fill="#000000" fill-rule="evenodd" fill-opacity="1" /><polyline clip-path="url(#clip780)" style="stroke:#000000; stroke-width:4; stroke-opacity:1; fill:none" points="
  1519.75,398.77 1670.81,398.77 
  "/>
<path clip-path="url(#clip780)" d="M 0 0 M1716.33 395.101 Q1717.92 392.23 1720.15 390.865 Q1722.37 389.499 1725.38 389.499 Q1729.43 389.499 1731.63 392.346 Q1733.83 395.17 1733.83 400.401 L1733.83 416.05 L1729.54 416.05 L1729.54 400.54 Q1729.54 396.814 1728.23 395.008 Q1726.91 393.202 1724.2 393.202 Q1720.89 393.202 1718.97 395.402 Q1717.04 397.601 1717.04 401.397 L1717.04 416.05 L1712.76 416.05 L1712.76 400.54 Q1712.76 396.79 1711.44 395.008 Q1710.12 393.202 1707.37 393.202 Q1704.11 393.202 1702.18 395.425 Q1700.26 397.624 1700.26 401.397 L1700.26 416.05 L1695.98 416.05 L1695.98 390.124 L1700.26 390.124 L1700.26 394.152 Q1701.72 391.767 1703.76 390.633 Q1705.79 389.499 1708.6 389.499 Q1711.42 389.499 1713.39 390.934 Q1715.38 392.369 1716.33 395.101 Z" fill="#000000" fill-rule="evenodd" fill-opacity="1" /><path clip-path="url(#clip780)" d="M 0 0 M1760.47 402.022 L1760.47 404.105 L1740.89 404.105 Q1741.17 408.503 1743.53 410.818 Q1745.91 413.11 1750.15 413.11 Q1752.6 413.11 1754.89 412.508 Q1757.21 411.906 1759.48 410.702 L1759.48 414.73 Q1757.18 415.702 1754.78 416.212 Q1752.37 416.721 1749.89 416.721 Q1743.69 416.721 1740.05 413.11 Q1736.44 409.499 1736.44 403.341 Q1736.44 396.976 1739.87 393.249 Q1743.32 389.499 1749.15 389.499 Q1754.38 389.499 1757.42 392.878 Q1760.47 396.235 1760.47 402.022 M1756.21 400.772 Q1756.17 397.277 1754.24 395.193 Q1752.35 393.11 1749.2 393.11 Q1745.63 393.11 1743.48 395.124 Q1741.35 397.138 1741.03 400.795 L1756.21 400.772 Z" fill="#000000" fill-rule="evenodd" fill-opacity="1" /><path clip-path="url(#clip780)" d="M 0 0 M1782 394.059 L1782 380.031 L1786.26 380.031 L1786.26 416.05 L1782 416.05 L1782 412.161 Q1780.66 414.475 1778.6 415.61 Q1776.56 416.721 1773.69 416.721 Q1768.99 416.721 1766.03 412.971 Q1763.09 409.221 1763.09 403.11 Q1763.09 396.999 1766.03 393.249 Q1768.99 389.499 1773.69 389.499 Q1776.56 389.499 1778.6 390.633 Q1780.66 391.744 1782 394.059 M1767.48 403.11 Q1767.48 407.809 1769.41 410.494 Q1771.35 413.156 1774.73 413.156 Q1778.11 413.156 1780.05 410.494 Q1782 407.809 1782 403.11 Q1782 398.411 1780.05 395.749 Q1778.11 393.064 1774.73 393.064 Q1771.35 393.064 1769.41 395.749 Q1767.48 398.411 1767.48 403.11 Z" fill="#000000" fill-rule="evenodd" fill-opacity="1" /><path clip-path="url(#clip780)" d="M 0 0 M1790.73 390.124 L1794.98 390.124 L1794.98 416.05 L1790.73 416.05 L1790.73 390.124 M1790.73 380.031 L1794.98 380.031 L1794.98 385.425 L1790.73 385.425 L1790.73 380.031 Z" fill="#000000" fill-rule="evenodd" fill-opacity="1" /><path clip-path="url(#clip780)" d="M 0 0 M1811.23 403.017 Q1806.07 403.017 1804.08 404.198 Q1802.09 405.378 1802.09 408.226 Q1802.09 410.494 1803.57 411.837 Q1805.08 413.156 1807.65 413.156 Q1811.19 413.156 1813.32 410.656 Q1815.47 408.133 1815.47 403.966 L1815.47 403.017 L1811.23 403.017 M1819.73 401.258 L1819.73 416.05 L1815.47 416.05 L1815.47 412.114 Q1814.01 414.475 1811.84 415.61 Q1809.66 416.721 1806.51 416.721 Q1802.53 416.721 1800.17 414.499 Q1797.83 412.253 1797.83 408.503 Q1797.83 404.128 1800.75 401.906 Q1803.69 399.684 1809.5 399.684 L1815.47 399.684 L1815.47 399.267 Q1815.47 396.327 1813.53 394.73 Q1811.6 393.11 1808.11 393.11 Q1805.89 393.11 1803.78 393.642 Q1801.67 394.175 1799.73 395.239 L1799.73 391.304 Q1802.07 390.402 1804.27 389.962 Q1806.47 389.499 1808.55 389.499 Q1814.17 389.499 1816.95 392.415 Q1819.73 395.332 1819.73 401.258 Z" fill="#000000" fill-rule="evenodd" fill-opacity="1" /><path clip-path="url(#clip780)" d="M 0 0 M1845.75 400.401 L1845.75 416.05 L1841.49 416.05 L1841.49 400.54 Q1841.49 396.86 1840.05 395.031 Q1838.62 393.202 1835.75 393.202 Q1832.3 393.202 1830.31 395.402 Q1828.32 397.601 1828.32 401.397 L1828.32 416.05 L1824.04 416.05 L1824.04 390.124 L1828.32 390.124 L1828.32 394.152 Q1829.85 391.814 1831.91 390.656 Q1833.99 389.499 1836.7 389.499 Q1841.16 389.499 1843.46 392.277 Q1845.75 395.031 1845.75 400.401 Z" fill="#000000" fill-rule="evenodd" fill-opacity="1" /></svg>
