<?xml version="1.0" encoding="utf-8"?>
<svg xmlns="http://www.w3.org/2000/svg" xmlns:xlink="http://www.w3.org/1999/xlink" width="600" height="400" viewBox="0 0 2400 1600">
<defs>
  <clipPath id="clip260">
    <rect x="0" y="0" width="2400" height="1600"/>
  </clipPath>
</defs>
<path clip-path="url(#clip260)" d="
M0 1600 L2400 1600 L2400 0 L0 0  Z
  " fill="#ffffff" fill-rule="evenodd" fill-opacity="1"/>
<defs>
  <clipPath id="clip261">
    <rect x="480" y="0" width="1681" height="1600"/>
  </clipPath>
</defs>
<path clip-path="url(#clip260)" d="
M86.9921 1521.01 L2352.76 1521.01 L2352.76 47.2441 L86.9921 47.2441  Z
  " fill="#ffffff" fill-rule="evenodd" fill-opacity="1"/>
<defs>
  <clipPath id="clip262">
    <rect x="86" y="47" width="2267" height="1475"/>
  </clipPath>
</defs>
<polyline clip-path="url(#clip262)" style="stroke:#000000; stroke-width:2; stroke-opacity:0.1; fill:none" points="
  280.015,1521.01 280.015,47.2441 
  "/>
<polyline clip-path="url(#clip262)" style="stroke:#000000; stroke-width:2; stroke-opacity:0.1; fill:none" points="
  711.439,1521.01 711.439,47.2441 
  "/>
<polyline clip-path="url(#clip262)" style="stroke:#000000; stroke-width:2; stroke-opacity:0.1; fill:none" points="
  1142.86,1521.01 1142.86,47.2441 
  "/>
<polyline clip-path="url(#clip262)" style="stroke:#000000; stroke-width:2; stroke-opacity:0.1; fill:none" points="
  1574.29,1521.01 1574.29,47.2441 
  "/>
<polyline clip-path="url(#clip262)" style="stroke:#000000; stroke-width:2; stroke-opacity:0.1; fill:none" points="
  2005.71,1521.01 2005.71,47.2441 
  "/>
<polyline clip-path="url(#clip262)" style="stroke:#000000; stroke-width:2; stroke-opacity:0.1; fill:none" points="
  86.9921,1479.3 2352.76,1479.3 
  "/>
<polyline clip-path="url(#clip262)" style="stroke:#000000; stroke-width:2; stroke-opacity:0.1; fill:none" points="
  86.9921,1090.85 2352.76,1090.85 
  "/>
<polyline clip-path="url(#clip262)" style="stroke:#000000; stroke-width:2; stroke-opacity:0.1; fill:none" points="
  86.9921,702.399 2352.76,702.399 
  "/>
<polyline clip-path="url(#clip262)" style="stroke:#000000; stroke-width:2; stroke-opacity:0.1; fill:none" points="
  86.9921,313.949 2352.76,313.949 
  "/>
<polyline clip-path="url(#clip260)" style="stroke:#000000; stroke-width:4; stroke-opacity:1; fill:none" points="
  86.9921,1521.01 2352.76,1521.01 
  "/>
<polyline clip-path="url(#clip260)" style="stroke:#000000; stroke-width:4; stroke-opacity:1; fill:none" points="
  86.9921,1521.01 86.9921,47.2441 
  "/>
<polyline clip-path="url(#clip260)" style="stroke:#000000; stroke-width:4; stroke-opacity:1; fill:none" points="
  280.015,1521.01 280.015,1503.32 
  "/>
<polyline clip-path="url(#clip260)" style="stroke:#000000; stroke-width:4; stroke-opacity:1; fill:none" points="
  711.439,1521.01 711.439,1503.32 
  "/>
<polyline clip-path="url(#clip260)" style="stroke:#000000; stroke-width:4; stroke-opacity:1; fill:none" points="
  1142.86,1521.01 1142.86,1503.32 
  "/>
<polyline clip-path="url(#clip260)" style="stroke:#000000; stroke-width:4; stroke-opacity:1; fill:none" points="
  1574.29,1521.01 1574.29,1503.32 
  "/>
<polyline clip-path="url(#clip260)" style="stroke:#000000; stroke-width:4; stroke-opacity:1; fill:none" points="
  2005.71,1521.01 2005.71,1503.32 
  "/>
<polyline clip-path="url(#clip260)" style="stroke:#000000; stroke-width:4; stroke-opacity:1; fill:none" points="
  86.9921,1479.3 114.181,1479.3 
  "/>
<polyline clip-path="url(#clip260)" style="stroke:#000000; stroke-width:4; stroke-opacity:1; fill:none" points="
  86.9921,1090.85 114.181,1090.85 
  "/>
<polyline clip-path="url(#clip260)" style="stroke:#000000; stroke-width:4; stroke-opacity:1; fill:none" points="
  86.9921,702.399 114.181,702.399 
  "/>
<polyline clip-path="url(#clip260)" style="stroke:#000000; stroke-width:4; stroke-opacity:1; fill:none" points="
  86.9921,313.949 114.181,313.949 
  "/>
<path clip-path="url(#clip260)" d="M 0 0 M248.268 1543 Q244.657 1543 242.828 1546.56 Q241.022 1550.11 241.022 1557.23 Q241.022 1564.34 242.828 1567.91 Q244.657 1571.45 248.268 1571.45 Q251.902 1571.45 253.707 1567.91 Q255.536 1564.34 255.536 1557.23 Q255.536 1550.11 253.707 1546.56 Q251.902 1543 248.268 1543 M248.268 1539.29 Q254.078 1539.29 257.133 1543.9 Q260.212 1548.48 260.212 1557.23 Q260.212 1565.96 257.133 1570.57 Q254.078 1575.15 248.268 1575.15 Q242.457 1575.15 239.379 1570.57 Q236.323 1565.96 236.323 1557.23 Q236.323 1548.48 239.379 1543.9 Q242.457 1539.29 248.268 1539.29 Z" fill="#000000" fill-rule="evenodd" fill-opacity="1" /><path clip-path="url(#clip260)" d="M 0 0 M265.281 1568.6 L270.166 1568.6 L270.166 1574.48 L265.281 1574.48 L265.281 1568.6 Z" fill="#000000" fill-rule="evenodd" fill-opacity="1" /><path clip-path="url(#clip260)" d="M 0 0 M285.814 1555.34 Q282.666 1555.34 280.814 1557.49 Q278.985 1559.64 278.985 1563.39 Q278.985 1567.12 280.814 1569.29 Q282.666 1571.45 285.814 1571.45 Q288.962 1571.45 290.791 1569.29 Q292.642 1567.12 292.642 1563.39 Q292.642 1559.64 290.791 1557.49 Q288.962 1555.34 285.814 1555.34 M295.096 1540.68 L295.096 1544.94 Q293.337 1544.11 291.531 1543.67 Q289.749 1543.23 287.99 1543.23 Q283.36 1543.23 280.906 1546.36 Q278.476 1549.48 278.129 1555.8 Q279.494 1553.79 281.554 1552.72 Q283.615 1551.63 286.092 1551.63 Q291.3 1551.63 294.309 1554.8 Q297.341 1557.95 297.341 1563.39 Q297.341 1568.72 294.193 1571.93 Q291.045 1575.15 285.814 1575.15 Q279.818 1575.15 276.647 1570.57 Q273.476 1565.96 273.476 1557.23 Q273.476 1549.04 277.365 1544.18 Q281.254 1539.29 287.804 1539.29 Q289.564 1539.29 291.346 1539.64 Q293.152 1539.99 295.096 1540.68 Z" fill="#000000" fill-rule="evenodd" fill-opacity="1" /><path clip-path="url(#clip260)" d="M 0 0 M316.577 1555.85 Q319.934 1556.56 321.809 1558.83 Q323.707 1561.1 323.707 1564.43 Q323.707 1569.55 320.189 1572.35 Q316.67 1575.15 310.189 1575.15 Q308.013 1575.15 305.698 1574.71 Q303.406 1574.29 300.953 1573.44 L300.953 1568.92 Q302.897 1570.06 305.212 1570.64 Q307.527 1571.22 310.05 1571.22 Q314.448 1571.22 316.739 1569.48 Q319.054 1567.74 319.054 1564.43 Q319.054 1561.38 316.902 1559.67 Q314.772 1557.93 310.952 1557.93 L306.925 1557.93 L306.925 1554.09 L311.138 1554.09 Q314.587 1554.09 316.415 1552.72 Q318.244 1551.33 318.244 1548.74 Q318.244 1546.08 316.346 1544.67 Q314.471 1543.23 310.952 1543.23 Q309.031 1543.23 306.832 1543.65 Q304.633 1544.06 301.994 1544.94 L301.994 1540.78 Q304.656 1540.04 306.971 1539.67 Q309.309 1539.29 311.369 1539.29 Q316.693 1539.29 319.795 1541.73 Q322.897 1544.13 322.897 1548.25 Q322.897 1551.12 321.253 1553.11 Q319.61 1555.08 316.577 1555.85 Z" fill="#000000" fill-rule="evenodd" fill-opacity="1" /><path clip-path="url(#clip260)" d="M 0 0 M679.287 1543 Q675.676 1543 673.847 1546.56 Q672.042 1550.11 672.042 1557.23 Q672.042 1564.34 673.847 1567.91 Q675.676 1571.45 679.287 1571.45 Q682.921 1571.45 684.727 1567.91 Q686.555 1564.34 686.555 1557.23 Q686.555 1550.11 684.727 1546.56 Q682.921 1543 679.287 1543 M679.287 1539.29 Q685.097 1539.29 688.153 1543.9 Q691.231 1548.48 691.231 1557.23 Q691.231 1565.96 688.153 1570.57 Q685.097 1575.15 679.287 1575.15 Q673.477 1575.15 670.398 1570.57 Q667.343 1565.96 667.343 1557.23 Q667.343 1548.48 670.398 1543.9 Q673.477 1539.29 679.287 1539.29 Z" fill="#000000" fill-rule="evenodd" fill-opacity="1" /><path clip-path="url(#clip260)" d="M 0 0 M696.301 1568.6 L701.185 1568.6 L701.185 1574.48 L696.301 1574.48 L696.301 1568.6 Z" fill="#000000" fill-rule="evenodd" fill-opacity="1" /><path clip-path="url(#clip260)" d="M 0 0 M716.833 1555.34 Q713.685 1555.34 711.833 1557.49 Q710.004 1559.64 710.004 1563.39 Q710.004 1567.12 711.833 1569.29 Q713.685 1571.45 716.833 1571.45 Q719.981 1571.45 721.81 1569.29 Q723.662 1567.12 723.662 1563.39 Q723.662 1559.64 721.81 1557.49 Q719.981 1555.34 716.833 1555.34 M726.115 1540.68 L726.115 1544.94 Q724.356 1544.11 722.551 1543.67 Q720.768 1543.23 719.009 1543.23 Q714.379 1543.23 711.926 1546.36 Q709.495 1549.48 709.148 1555.8 Q710.514 1553.79 712.574 1552.72 Q714.634 1551.63 717.111 1551.63 Q722.319 1551.63 725.328 1554.8 Q728.361 1557.95 728.361 1563.39 Q728.361 1568.72 725.213 1571.93 Q722.064 1575.15 716.833 1575.15 Q710.838 1575.15 707.666 1570.57 Q704.495 1565.96 704.495 1557.23 Q704.495 1549.04 708.384 1544.18 Q712.273 1539.29 718.824 1539.29 Q720.583 1539.29 722.365 1539.64 Q724.171 1539.99 726.115 1540.68 Z" fill="#000000" fill-rule="evenodd" fill-opacity="1" /><path clip-path="url(#clip260)" d="M 0 0 M744.009 1555.34 Q740.861 1555.34 739.009 1557.49 Q737.18 1559.64 737.18 1563.39 Q737.18 1567.12 739.009 1569.29 Q740.861 1571.45 744.009 1571.45 Q747.157 1571.45 748.986 1569.29 Q750.837 1567.12 750.837 1563.39 Q750.837 1559.64 748.986 1557.49 Q747.157 1555.34 744.009 1555.34 M753.291 1540.68 L753.291 1544.94 Q751.532 1544.11 749.726 1543.67 Q747.944 1543.23 746.185 1543.23 Q741.555 1543.23 739.101 1546.36 Q736.671 1549.48 736.324 1555.8 Q737.689 1553.79 739.75 1552.72 Q741.81 1551.63 744.287 1551.63 Q749.495 1551.63 752.504 1554.8 Q755.536 1557.95 755.536 1563.39 Q755.536 1568.72 752.388 1571.93 Q749.24 1575.15 744.009 1575.15 Q738.013 1575.15 734.842 1570.57 Q731.671 1565.96 731.671 1557.23 Q731.671 1549.04 735.56 1544.18 Q739.449 1539.29 745.999 1539.29 Q747.759 1539.29 749.541 1539.64 Q751.347 1539.99 753.291 1540.68 Z" fill="#000000" fill-rule="evenodd" fill-opacity="1" /><path clip-path="url(#clip260)" d="M 0 0 M1110.88 1543 Q1107.27 1543 1105.45 1546.56 Q1103.64 1550.11 1103.64 1557.23 Q1103.64 1564.34 1105.45 1567.91 Q1107.27 1571.45 1110.88 1571.45 Q1114.52 1571.45 1116.32 1567.91 Q1118.15 1564.34 1118.15 1557.23 Q1118.15 1550.11 1116.32 1546.56 Q1114.52 1543 1110.88 1543 M1110.88 1539.29 Q1116.69 1539.29 1119.75 1543.9 Q1122.83 1548.48 1122.83 1557.23 Q1122.83 1565.96 1119.75 1570.57 Q1116.69 1575.15 1110.88 1575.15 Q1105.07 1575.15 1102 1570.57 Q1098.94 1565.96 1098.94 1557.23 Q1098.94 1548.48 1102 1543.9 Q1105.07 1539.29 1110.88 1539.29 Z" fill="#000000" fill-rule="evenodd" fill-opacity="1" /><path clip-path="url(#clip260)" d="M 0 0 M1127.9 1568.6 L1132.78 1568.6 L1132.78 1574.48 L1127.9 1574.48 L1127.9 1568.6 Z" fill="#000000" fill-rule="evenodd" fill-opacity="1" /><path clip-path="url(#clip260)" d="M 0 0 M1148.43 1555.34 Q1145.28 1555.34 1143.43 1557.49 Q1141.6 1559.64 1141.6 1563.39 Q1141.6 1567.12 1143.43 1569.29 Q1145.28 1571.45 1148.43 1571.45 Q1151.58 1571.45 1153.41 1569.29 Q1155.26 1567.12 1155.26 1563.39 Q1155.26 1559.64 1153.41 1557.49 Q1151.58 1555.34 1148.43 1555.34 M1157.71 1540.68 L1157.71 1544.94 Q1155.95 1544.11 1154.15 1543.67 Q1152.37 1543.23 1150.61 1543.23 Q1145.98 1543.23 1143.52 1546.36 Q1141.09 1549.48 1140.75 1555.8 Q1142.11 1553.79 1144.17 1552.72 Q1146.23 1551.63 1148.71 1551.63 Q1153.92 1551.63 1156.93 1554.8 Q1159.96 1557.95 1159.96 1563.39 Q1159.96 1568.72 1156.81 1571.93 Q1153.66 1575.15 1148.43 1575.15 Q1142.44 1575.15 1139.26 1570.57 Q1136.09 1565.96 1136.09 1557.23 Q1136.09 1549.04 1139.98 1544.18 Q1143.87 1539.29 1150.42 1539.29 Q1152.18 1539.29 1153.96 1539.64 Q1155.77 1539.99 1157.71 1540.68 Z" fill="#000000" fill-rule="evenodd" fill-opacity="1" /><path clip-path="url(#clip260)" d="M 0 0 M1165.17 1573.76 L1165.17 1569.5 Q1166.93 1570.34 1168.73 1570.78 Q1170.54 1571.22 1172.27 1571.22 Q1176.9 1571.22 1179.33 1568.11 Q1181.79 1564.99 1182.13 1558.65 Q1180.79 1560.64 1178.73 1561.7 Q1176.67 1562.77 1174.17 1562.77 Q1168.99 1562.77 1165.95 1559.64 Q1162.94 1556.49 1162.94 1551.05 Q1162.94 1545.73 1166.09 1542.51 Q1169.24 1539.29 1174.47 1539.29 Q1180.47 1539.29 1183.62 1543.9 Q1186.79 1548.48 1186.79 1557.23 Q1186.79 1565.41 1182.9 1570.29 Q1179.03 1575.15 1172.48 1575.15 Q1170.72 1575.15 1168.92 1574.8 Q1167.11 1574.46 1165.17 1573.76 M1174.47 1559.11 Q1177.62 1559.11 1179.45 1556.96 Q1181.3 1554.8 1181.3 1551.05 Q1181.3 1547.33 1179.45 1545.17 Q1177.62 1543 1174.47 1543 Q1171.32 1543 1169.47 1545.17 Q1167.64 1547.33 1167.64 1551.05 Q1167.64 1554.8 1169.47 1556.96 Q1171.32 1559.11 1174.47 1559.11 Z" fill="#000000" fill-rule="evenodd" fill-opacity="1" /><path clip-path="url(#clip260)" d="M 0 0 M1543.55 1543 Q1539.94 1543 1538.11 1546.56 Q1536.3 1550.11 1536.3 1557.23 Q1536.3 1564.34 1538.11 1567.91 Q1539.94 1571.45 1543.55 1571.45 Q1547.18 1571.45 1548.99 1567.91 Q1550.82 1564.34 1550.82 1557.23 Q1550.82 1550.11 1548.99 1546.56 Q1547.18 1543 1543.55 1543 M1543.55 1539.29 Q1549.36 1539.29 1552.41 1543.9 Q1555.49 1548.48 1555.49 1557.23 Q1555.49 1565.96 1552.41 1570.57 Q1549.36 1575.15 1543.55 1575.15 Q1537.74 1575.15 1534.66 1570.57 Q1531.6 1565.96 1531.6 1557.23 Q1531.6 1548.48 1534.66 1543.9 Q1537.74 1539.29 1543.55 1539.29 Z" fill="#000000" fill-rule="evenodd" fill-opacity="1" /><path clip-path="url(#clip260)" d="M 0 0 M1560.56 1568.6 L1565.45 1568.6 L1565.45 1574.48 L1560.56 1574.48 L1560.56 1568.6 Z" fill="#000000" fill-rule="evenodd" fill-opacity="1" /><path clip-path="url(#clip260)" d="M 0 0 M1569.33 1539.92 L1591.56 1539.92 L1591.56 1541.91 L1579.01 1574.48 L1574.13 1574.48 L1585.93 1543.86 L1569.33 1543.86 L1569.33 1539.92 Z" fill="#000000" fill-rule="evenodd" fill-opacity="1" /><path clip-path="url(#clip260)" d="M 0 0 M1600.65 1570.54 L1616.97 1570.54 L1616.97 1574.48 L1595.03 1574.48 L1595.03 1570.54 Q1597.69 1567.79 1602.27 1563.16 Q1606.88 1558.51 1608.06 1557.17 Q1610.31 1554.64 1611.19 1552.91 Q1612.09 1551.15 1612.09 1549.46 Q1612.09 1546.7 1610.14 1544.97 Q1608.22 1543.23 1605.12 1543.23 Q1602.92 1543.23 1600.47 1543.99 Q1598.04 1544.76 1595.26 1546.31 L1595.26 1541.59 Q1598.08 1540.45 1600.54 1539.87 Q1602.99 1539.29 1605.03 1539.29 Q1610.4 1539.29 1613.59 1541.98 Q1616.79 1544.67 1616.79 1549.16 Q1616.79 1551.29 1615.98 1553.21 Q1615.19 1555.1 1613.08 1557.7 Q1612.51 1558.37 1609.4 1561.59 Q1606.3 1564.78 1600.65 1570.54 Z" fill="#000000" fill-rule="evenodd" fill-opacity="1" /><path clip-path="url(#clip260)" d="M 0 0 M1974.67 1543 Q1971.06 1543 1969.23 1546.56 Q1967.43 1550.11 1967.43 1557.23 Q1967.43 1564.34 1969.23 1567.91 Q1971.06 1571.45 1974.67 1571.45 Q1978.31 1571.45 1980.11 1567.91 Q1981.94 1564.34 1981.94 1557.23 Q1981.94 1550.11 1980.11 1546.56 Q1978.31 1543 1974.67 1543 M1974.67 1539.29 Q1980.48 1539.29 1983.54 1543.9 Q1986.62 1548.48 1986.62 1557.23 Q1986.62 1565.96 1983.54 1570.57 Q1980.48 1575.15 1974.67 1575.15 Q1968.86 1575.15 1965.78 1570.57 Q1962.73 1565.96 1962.73 1557.23 Q1962.73 1548.48 1965.78 1543.9 Q1968.86 1539.29 1974.67 1539.29 Z" fill="#000000" fill-rule="evenodd" fill-opacity="1" /><path clip-path="url(#clip260)" d="M 0 0 M1991.68 1568.6 L1996.57 1568.6 L1996.57 1574.48 L1991.68 1574.48 L1991.68 1568.6 Z" fill="#000000" fill-rule="evenodd" fill-opacity="1" /><path clip-path="url(#clip260)" d="M 0 0 M2000.46 1539.92 L2022.68 1539.92 L2022.68 1541.91 L2010.13 1574.48 L2005.25 1574.48 L2017.06 1543.86 L2000.46 1543.86 L2000.46 1539.92 Z" fill="#000000" fill-rule="evenodd" fill-opacity="1" /><path clip-path="url(#clip260)" d="M 0 0 M2027.8 1539.92 L2046.15 1539.92 L2046.15 1543.86 L2032.08 1543.86 L2032.08 1552.33 Q2033.1 1551.98 2034.12 1551.82 Q2035.13 1551.63 2036.15 1551.63 Q2041.94 1551.63 2045.32 1554.8 Q2048.7 1557.98 2048.7 1563.39 Q2048.7 1568.97 2045.23 1572.07 Q2041.75 1575.15 2035.43 1575.15 Q2033.26 1575.15 2030.99 1574.78 Q2028.74 1574.41 2026.34 1573.67 L2026.34 1568.97 Q2028.42 1570.1 2030.64 1570.66 Q2032.87 1571.22 2035.34 1571.22 Q2039.35 1571.22 2041.68 1569.11 Q2044.02 1567 2044.02 1563.39 Q2044.02 1559.78 2041.68 1557.67 Q2039.35 1555.57 2035.34 1555.57 Q2033.47 1555.57 2031.59 1555.98 Q2029.74 1556.4 2027.8 1557.28 L2027.8 1539.92 Z" fill="#000000" fill-rule="evenodd" fill-opacity="1" /><path clip-path="url(#clip260)" d="M 0 0 M51.0477 1465.1 Q47.4367 1465.1 45.608 1468.66 Q43.8024 1472.2 43.8024 1479.33 Q43.8024 1486.44 45.608 1490 Q47.4367 1493.55 51.0477 1493.55 Q54.682 1493.55 56.4875 1490 Q58.3162 1486.44 58.3162 1479.33 Q58.3162 1472.2 56.4875 1468.66 Q54.682 1465.1 51.0477 1465.1 M51.0477 1461.39 Q56.8579 1461.39 59.9134 1466 Q62.9921 1470.58 62.9921 1479.33 Q62.9921 1488.06 59.9134 1492.67 Q56.8579 1497.25 51.0477 1497.25 Q45.2376 1497.25 42.1589 1492.67 Q39.1034 1488.06 39.1034 1479.33 Q39.1034 1470.58 42.1589 1466 Q45.2376 1461.39 51.0477 1461.39 Z" fill="#000000" fill-rule="evenodd" fill-opacity="1" /><path clip-path="url(#clip260)" d="M 0 0 M42.0895 1073.57 L60.4458 1073.57 L60.4458 1077.5 L46.3718 1077.5 L46.3718 1085.98 Q47.3904 1085.63 48.4089 1085.47 Q49.4274 1085.28 50.4459 1085.28 Q56.2329 1085.28 59.6125 1088.45 Q62.9921 1091.62 62.9921 1097.04 Q62.9921 1102.62 59.5199 1105.72 Q56.0477 1108.8 49.7283 1108.8 Q47.5524 1108.8 45.2839 1108.43 Q43.0385 1108.06 40.6311 1107.32 L40.6311 1102.62 Q42.7145 1103.75 44.9367 1104.31 Q47.1589 1104.86 49.6357 1104.86 Q53.6403 1104.86 55.9783 1102.76 Q58.3162 1100.65 58.3162 1097.04 Q58.3162 1093.43 55.9783 1091.32 Q53.6403 1089.22 49.6357 1089.22 Q47.7607 1089.22 45.8857 1089.63 Q44.0339 1090.05 42.0895 1090.93 L42.0895 1073.57 Z" fill="#000000" fill-rule="evenodd" fill-opacity="1" /><path clip-path="url(#clip260)" d="M 0 0 M16.0711 715.744 L23.7099 715.744 L23.7099 689.378 L15.3998 691.045 L15.3998 686.785 L23.6636 685.119 L28.3395 685.119 L28.3395 715.744 L35.9784 715.744 L35.9784 719.679 L16.0711 719.679 L16.0711 715.744 Z" fill="#000000" fill-rule="evenodd" fill-opacity="1" /><path clip-path="url(#clip260)" d="M 0 0 M51.0477 688.197 Q47.4367 688.197 45.608 691.762 Q43.8024 695.304 43.8024 702.433 Q43.8024 709.54 45.608 713.105 Q47.4367 716.646 51.0477 716.646 Q54.682 716.646 56.4875 713.105 Q58.3162 709.54 58.3162 702.433 Q58.3162 695.304 56.4875 691.762 Q54.682 688.197 51.0477 688.197 M51.0477 684.494 Q56.8579 684.494 59.9134 689.1 Q62.9921 693.683 62.9921 702.433 Q62.9921 711.16 59.9134 715.767 Q56.8579 720.35 51.0477 720.35 Q45.2376 720.35 42.1589 715.767 Q39.1034 711.16 39.1034 702.433 Q39.1034 693.683 42.1589 689.1 Q45.2376 684.494 51.0477 684.494 Z" fill="#000000" fill-rule="evenodd" fill-opacity="1" /><path clip-path="url(#clip260)" d="M 0 0 M17.0664 327.294 L24.7053 327.294 L24.7053 300.928 L16.3952 302.595 L16.3952 298.336 L24.659 296.669 L29.3349 296.669 L29.3349 327.294 L36.9737 327.294 L36.9737 331.229 L17.0664 331.229 L17.0664 327.294 Z" fill="#000000" fill-rule="evenodd" fill-opacity="1" /><path clip-path="url(#clip260)" d="M 0 0 M42.0895 296.669 L60.4458 296.669 L60.4458 300.604 L46.3718 300.604 L46.3718 309.077 Q47.3904 308.729 48.4089 308.567 Q49.4274 308.382 50.4459 308.382 Q56.2329 308.382 59.6125 311.553 Q62.9921 314.725 62.9921 320.141 Q62.9921 325.72 59.5199 328.822 Q56.0477 331.901 49.7283 331.901 Q47.5524 331.901 45.2839 331.53 Q43.0385 331.16 40.6311 330.419 L40.6311 325.72 Q42.7145 326.854 44.9367 327.41 Q47.1589 327.965 49.6357 327.965 Q53.6403 327.965 55.9783 325.859 Q58.3162 323.752 58.3162 320.141 Q58.3162 316.53 55.9783 314.424 Q53.6403 312.317 49.6357 312.317 Q47.7607 312.317 45.8857 312.734 Q44.0339 313.151 42.0895 314.03 L42.0895 296.669 Z" fill="#000000" fill-rule="evenodd" fill-opacity="1" /><path clip-path="url(#clip262)" d="
M151.118 1474.36 L155.176 1473.88 L159.235 1473.37 L163.294 1472.82 L167.353 1472.23 L171.412 1471.59 L175.471 1470.9 L179.529 1470.16 L183.588 1469.37 L187.647 1468.52 
  L191.706 1467.61 L195.765 1466.64 L199.824 1465.61 L203.882 1464.51 L207.941 1463.35 L212 1462.12 L216.059 1460.82 L220.118 1459.46 L224.177 1458.03 L228.235 1456.53 
  L232.294 1454.95 L236.353 1453.31 L240.412 1451.6 L244.471 1449.81 L248.53 1447.95 L252.588 1446.01 L256.647 1444 L260.706 1441.9 L264.765 1439.72 L268.824 1437.46 
  L272.883 1435.11 L276.941 1432.67 L281 1430.14 L285.059 1427.53 L289.118 1424.83 L293.177 1422.04 L297.236 1419.17 L301.294 1416.21 L305.353 1413.18 L309.412 1410.07 
  L313.471 1406.88 L317.53 1403.63 L321.589 1400.31 L325.647 1396.92 L329.706 1393.47 L333.765 1389.95 L337.824 1386.36 L341.883 1382.7 L345.942 1378.97 L350 1375.14 
  L354.059 1371.22 L358.118 1367.2 L362.177 1363.06 L366.236 1358.8 L370.295 1354.41 L374.353 1349.87 L378.412 1345.17 L382.471 1340.32 L386.53 1335.3 L390.589 1330.1 
  L394.648 1324.74 L398.706 1319.21 L402.765 1313.51 L406.824 1307.65 L410.883 1301.64 L414.942 1295.48 L419.001 1289.19 L423.059 1282.77 L427.118 1276.23 L431.177 1269.59 
  L435.236 1262.84 L439.295 1256.01 L443.354 1249.08 L447.412 1242.07 L451.471 1234.97 L455.53 1227.79 L459.589 1220.52 L463.648 1213.15 L467.707 1205.68 L471.765 1198.11 
  L475.824 1190.43 L479.883 1182.63 L483.942 1174.72 L488.001 1166.68 L492.06 1158.52 L496.118 1150.24 L500.177 1141.86 L504.236 1133.38 L508.295 1124.81 L512.354 1116.19 
  L516.413 1107.53 L520.471 1098.87 L524.53 1090.24 L528.589 1081.67 L532.648 1073.2 L536.707 1064.87 L540.766 1056.71 L544.824 1048.77 L548.883 1041.08 L552.942 1033.67 
  L552.942 1479.3 L548.883 1479.3 L544.824 1479.3 L540.766 1479.3 L536.707 1479.3 L532.648 1479.3 L528.589 1479.3 L524.53 1479.3 L520.471 1479.3 L516.413 1479.3 
  L512.354 1479.3 L508.295 1479.3 L504.236 1479.3 L500.177 1479.3 L496.118 1479.3 L492.06 1479.3 L488.001 1479.3 L483.942 1479.3 L479.883 1479.3 L475.824 1479.3 
  L471.765 1479.3 L467.707 1479.3 L463.648 1479.3 L459.589 1479.3 L455.53 1479.3 L451.471 1479.3 L447.412 1479.3 L443.354 1479.3 L439.295 1479.3 L435.236 1479.3 
  L431.177 1479.3 L427.118 1479.3 L423.059 1479.3 L419.001 1479.3 L414.942 1479.3 L410.883 1479.3 L406.824 1479.3 L402.765 1479.3 L398.706 1479.3 L394.648 1479.3 
  L390.589 1479.3 L386.53 1479.3 L382.471 1479.3 L378.412 1479.3 L374.353 1479.3 L370.295 1479.3 L366.236 1479.3 L362.177 1479.3 L358.118 1479.3 L354.059 1479.3 
  L350 1479.3 L345.942 1479.3 L341.883 1479.3 L337.824 1479.3 L333.765 1479.3 L329.706 1479.3 L325.647 1479.3 L321.589 1479.3 L317.53 1479.3 L313.471 1479.3 
  L309.412 1479.3 L305.353 1479.3 L301.294 1479.3 L297.236 1479.3 L293.177 1479.3 L289.118 1479.3 L285.059 1479.3 L281 1479.3 L276.941 1479.3 L272.883 1479.3 
  L268.824 1479.3 L264.765 1479.3 L260.706 1479.3 L256.647 1479.3 L252.588 1479.3 L248.53 1479.3 L244.471 1479.3 L240.412 1479.3 L236.353 1479.3 L232.294 1479.3 
  L228.235 1479.3 L224.177 1479.3 L220.118 1479.3 L216.059 1479.3 L212 1479.3 L207.941 1479.3 L203.882 1479.3 L199.824 1479.3 L195.765 1479.3 L191.706 1479.3 
  L187.647 1479.3 L183.588 1479.3 L179.529 1479.3 L175.471 1479.3 L171.412 1479.3 L167.353 1479.3 L163.294 1479.3 L159.235 1479.3 L155.176 1479.3 L151.118 1479.3 
   Z
  " fill="#ffa500" fill-rule="evenodd" fill-opacity="0.5"/>
<polyline clip-path="url(#clip262)" style="stroke:#ffa500; stroke-width:4; stroke-opacity:1; fill:none" points="
  151.118,1474.36 155.176,1473.88 159.235,1473.37 163.294,1472.82 167.353,1472.23 171.412,1471.59 175.471,1470.9 179.529,1470.16 183.588,1469.37 187.647,1468.52 
  191.706,1467.61 195.765,1466.64 199.824,1465.61 203.882,1464.51 207.941,1463.35 212,1462.12 216.059,1460.82 220.118,1459.46 224.177,1458.03 228.235,1456.53 
  232.294,1454.95 236.353,1453.31 240.412,1451.6 244.471,1449.81 248.53,1447.95 252.588,1446.01 256.647,1444 260.706,1441.9 264.765,1439.72 268.824,1437.46 
  272.883,1435.11 276.941,1432.67 281,1430.14 285.059,1427.53 289.118,1424.83 293.177,1422.04 297.236,1419.17 301.294,1416.21 305.353,1413.18 309.412,1410.07 
  313.471,1406.88 317.53,1403.63 321.589,1400.31 325.647,1396.92 329.706,1393.47 333.765,1389.95 337.824,1386.36 341.883,1382.7 345.942,1378.97 350,1375.14 
  354.059,1371.22 358.118,1367.2 362.177,1363.06 366.236,1358.8 370.295,1354.41 374.353,1349.87 378.412,1345.17 382.471,1340.32 386.53,1335.3 390.589,1330.1 
  394.648,1324.74 398.706,1319.21 402.765,1313.51 406.824,1307.65 410.883,1301.64 414.942,1295.48 419.001,1289.19 423.059,1282.77 427.118,1276.23 431.177,1269.59 
  435.236,1262.84 439.295,1256.01 443.354,1249.08 447.412,1242.07 451.471,1234.97 455.53,1227.79 459.589,1220.52 463.648,1213.15 467.707,1205.68 471.765,1198.11 
  475.824,1190.43 479.883,1182.63 483.942,1174.72 488.001,1166.68 492.06,1158.52 496.118,1150.24 500.177,1141.86 504.236,1133.38 508.295,1124.81 512.354,1116.19 
  516.413,1107.53 520.471,1098.87 524.53,1090.24 528.589,1081.67 532.648,1073.2 536.707,1064.87 540.766,1056.71 544.824,1048.77 548.883,1041.08 552.942,1033.67 
  
  "/>
<path clip-path="url(#clip262)" d="
M552.942 1033.67 L564.118 1014.85 L575.293 998.462 L586.469 984.197 L597.644 971.24 L608.82 958.413 L619.995 944.395 L631.171 927.967 L642.347 908.224 L653.522 884.706 
  L664.698 857.445 L675.873 826.923 L687.049 793.968 L698.224 759.611 L709.4 724.911 L720.576 690.797 L731.751 657.938 L742.927 626.673 L754.102 597.006 L765.278 568.674 
  L776.454 541.27 L787.629 514.386 L798.805 487.731 L809.98 461.203 L821.156 434.883 L832.331 408.963 L843.507 383.634 L854.683 358.982 L865.858 334.931 L877.034 311.255 
  L888.209 287.66 L899.385 263.898 L910.56 239.893 L921.736 215.817 L932.912 192.106 L944.087 169.398 L955.263 148.428 L966.438 129.91 L977.614 114.433 L988.789 102.42 
  L999.965 94.1196 L1011.14 89.6358 L1022.32 88.9544 L1033.49 91.9456 L1044.67 98.3355 L1055.84 107.659 L1067.02 119.231 L1078.19 132.164 L1089.37 145.476 L1100.55 158.256 
  L1111.72 169.88 L1122.9 180.187 L1134.07 189.562 L1145.25 198.888 L1156.42 209.346 L1167.6 222.13 L1178.77 238.14 L1189.95 257.738 L1201.13 280.641 L1212.3 305.979 
  L1223.48 332.482 L1234.65 358.766 L1245.83 383.617 L1257 406.232 L1268.18 426.362 L1279.35 444.351 L1290.53 461.045 L1301.71 477.62 L1312.88 495.317 L1324.06 515.167 
  L1335.23 537.747 L1346.41 563.051 L1357.58 590.508 L1368.76 619.144 L1379.93 647.853 L1391.11 675.675 L1402.29 702.018 L1413.46 726.769 L1424.64 750.289 L1435.81 773.31 
  L1446.99 796.762 L1458.16 821.579 L1469.34 848.49 L1480.51 877.854 L1491.69 909.545 L1502.87 942.937 L1514.04 976.989 L1525.22 1010.42 L1536.39 1041.91 L1547.57 1070.31 
  L1558.74 1094.8 L1569.92 1114.95 L1581.09 1130.75 L1592.27 1142.6 L1603.45 1151.21 L1614.62 1157.55 L1625.8 1162.78 L1636.97 1168.09 L1648.15 1174.61 L1659.32 1183.22 
  L1659.32 1479.3 L1648.15 1479.3 L1636.97 1479.3 L1625.8 1479.3 L1614.62 1479.3 L1603.45 1479.3 L1592.27 1479.3 L1581.09 1479.3 L1569.92 1479.3 L1558.74 1479.3 
  L1547.57 1479.3 L1536.39 1479.3 L1525.22 1479.3 L1514.04 1479.3 L1502.87 1479.3 L1491.69 1479.3 L1480.51 1479.3 L1469.34 1479.3 L1458.16 1479.3 L1446.99 1479.3 
  L1435.81 1479.3 L1424.64 1479.3 L1413.46 1479.3 L1402.29 1479.3 L1391.11 1479.3 L1379.93 1479.3 L1368.76 1479.3 L1357.58 1479.3 L1346.41 1479.3 L1335.23 1479.3 
  L1324.06 1479.3 L1312.88 1479.3 L1301.71 1479.3 L1290.53 1479.3 L1279.35 1479.3 L1268.18 1479.3 L1257 1479.3 L1245.83 1479.3 L1234.65 1479.3 L1223.48 1479.3 
  L1212.3 1479.3 L1201.13 1479.3 L1189.95 1479.3 L1178.77 1479.3 L1167.6 1479.3 L1156.42 1479.3 L1145.25 1479.3 L1134.07 1479.3 L1122.9 1479.3 L1111.72 1479.3 
  L1100.55 1479.3 L1089.37 1479.3 L1078.19 1479.3 L1067.02 1479.3 L1055.84 1479.3 L1044.67 1479.3 L1033.49 1479.3 L1022.32 1479.3 L1011.14 1479.3 L999.965 1479.3 
  L988.789 1479.3 L977.614 1479.3 L966.438 1479.3 L955.263 1479.3 L944.087 1479.3 L932.912 1479.3 L921.736 1479.3 L910.56 1479.3 L899.385 1479.3 L888.209 1479.3 
  L877.034 1479.3 L865.858 1479.3 L854.683 1479.3 L843.507 1479.3 L832.331 1479.3 L821.156 1479.3 L809.98 1479.3 L798.805 1479.3 L787.629 1479.3 L776.454 1479.3 
  L765.278 1479.3 L754.102 1479.3 L742.927 1479.3 L731.751 1479.3 L720.576 1479.3 L709.4 1479.3 L698.224 1479.3 L687.049 1479.3 L675.873 1479.3 L664.698 1479.3 
  L653.522 1479.3 L642.347 1479.3 L631.171 1479.3 L619.995 1479.3 L608.82 1479.3 L597.644 1479.3 L586.469 1479.3 L575.293 1479.3 L564.118 1479.3 L552.942 1479.3 
   Z
  " fill="#008000" fill-rule="evenodd" fill-opacity="0.5"/>
<polyline clip-path="url(#clip262)" style="stroke:#008000; stroke-width:4; stroke-opacity:1; fill:none" points="
  552.942,1033.67 564.118,1014.85 575.293,998.462 586.469,984.197 597.644,971.24 608.82,958.413 619.995,944.395 631.171,927.967 642.347,908.224 653.522,884.706 
  664.698,857.445 675.873,826.923 687.049,793.968 698.224,759.611 709.4,724.911 720.576,690.797 731.751,657.938 742.927,626.673 754.102,597.006 765.278,568.674 
  776.454,541.27 787.629,514.386 798.805,487.731 809.98,461.203 821.156,434.883 832.331,408.963 843.507,383.634 854.683,358.982 865.858,334.931 877.034,311.255 
  888.209,287.66 899.385,263.898 910.56,239.893 921.736,215.817 932.912,192.106 944.087,169.398 955.263,148.428 966.438,129.91 977.614,114.433 988.789,102.42 
  999.965,94.1196 1011.14,89.6358 1022.32,88.9544 1033.49,91.9456 1044.67,98.3355 1055.84,107.659 1067.02,119.231 1078.19,132.164 1089.37,145.476 1100.55,158.256 
  1111.72,169.88 1122.9,180.187 1134.07,189.562 1145.25,198.888 1156.42,209.346 1167.6,222.13 1178.77,238.14 1189.95,257.738 1201.13,280.641 1212.3,305.979 
  1223.48,332.482 1234.65,358.766 1245.83,383.617 1257,406.232 1268.18,426.362 1279.35,444.351 1290.53,461.045 1301.71,477.62 1312.88,495.317 1324.06,515.167 
  1335.23,537.747 1346.41,563.051 1357.58,590.508 1368.76,619.144 1379.93,647.853 1391.11,675.675 1402.29,702.018 1413.46,726.769 1424.64,750.289 1435.81,773.31 
  1446.99,796.762 1458.16,821.579 1469.34,848.49 1480.51,877.854 1491.69,909.545 1502.87,942.937 1514.04,976.989 1525.22,1010.42 1536.39,1041.91 1547.57,1070.31 
  1558.74,1094.8 1569.92,1114.95 1581.09,1130.75 1592.27,1142.6 1603.45,1151.21 1614.62,1157.55 1625.8,1162.78 1636.97,1168.09 1648.15,1174.61 1659.32,1183.22 
  
  "/>
<path clip-path="url(#clip262)" d="
M1659.32 1183.22 L1665.68 1189.26 L1672.04 1196.2 L1678.39 1204 L1684.75 1212.6 L1691.11 1221.89 L1697.46 1231.74 L1703.82 1241.98 L1710.18 1252.43 L1716.53 1262.93 
  L1722.89 1273.31 L1729.25 1283.43 L1735.6 1293.19 L1741.96 1302.5 L1748.32 1311.31 L1754.67 1319.6 L1761.03 1327.36 L1767.39 1334.59 L1773.74 1341.32 L1780.1 1347.54 
  L1786.46 1353.28 L1792.81 1358.53 L1799.17 1363.27 L1805.53 1367.5 L1811.88 1371.17 L1818.24 1374.25 L1824.6 1376.7 L1830.95 1378.46 L1837.31 1379.5 L1843.67 1379.78 
  L1850.02 1379.29 L1856.38 1378.02 L1862.74 1376.01 L1869.09 1373.33 L1875.45 1370.08 L1881.81 1366.41 L1888.16 1362.52 L1894.52 1358.63 L1900.88 1354.98 L1907.23 1351.84 
  L1913.59 1349.45 L1919.95 1348.06 L1926.3 1347.83 L1932.66 1348.92 L1939.02 1351.37 L1945.37 1355.18 L1951.73 1360.26 L1958.09 1366.45 L1964.44 1373.56 L1970.8 1381.32 
  L1977.16 1389.48 L1983.51 1397.77 L1989.87 1405.94 L1996.23 1413.77 L2002.58 1421.08 L2008.94 1427.75 L2015.3 1433.72 L2021.65 1438.94 L2028.01 1443.45 L2034.37 1447.29 
  L2040.72 1450.53 L2047.08 1453.27 L2053.44 1455.59 L2059.79 1457.58 L2066.15 1459.31 L2072.5 1460.86 L2078.86 1462.26 L2085.22 1463.56 L2091.57 1464.78 L2097.93 1465.92 
  L2104.29 1466.99 L2110.64 1467.98 L2117 1468.89 L2123.36 1469.71 L2129.71 1470.42 L2136.07 1471.03 L2142.43 1471.51 L2148.78 1471.87 L2155.14 1472.1 L2161.5 1472.2 
  L2167.85 1472.16 L2174.21 1471.99 L2180.57 1471.69 L2186.92 1471.28 L2193.28 1470.76 L2199.64 1470.16 L2205.99 1469.5 L2212.35 1468.82 L2218.71 1468.15 L2225.06 1467.53 
  L2231.42 1466.99 L2237.78 1466.56 L2244.13 1466.28 L2250.49 1466.17 L2256.85 1466.25 L2263.2 1466.51 L2269.56 1466.95 L2275.92 1467.56 L2282.27 1468.32 L2288.63 1469.18 
  L2288.63 1479.3 L2282.27 1479.3 L2275.92 1479.3 L2269.56 1479.3 L2263.2 1479.3 L2256.85 1479.3 L2250.49 1479.3 L2244.13 1479.3 L2237.78 1479.3 L2231.42 1479.3 
  L2225.06 1479.3 L2218.71 1479.3 L2212.35 1479.3 L2205.99 1479.3 L2199.64 1479.3 L2193.28 1479.3 L2186.92 1479.3 L2180.57 1479.3 L2174.21 1479.3 L2167.85 1479.3 
  L2161.5 1479.3 L2155.14 1479.3 L2148.78 1479.3 L2142.43 1479.3 L2136.07 1479.3 L2129.71 1479.3 L2123.36 1479.3 L2117 1479.3 L2110.64 1479.3 L2104.29 1479.3 
  L2097.93 1479.3 L2091.57 1479.3 L2085.22 1479.3 L2078.86 1479.3 L2072.5 1479.3 L2066.15 1479.3 L2059.79 1479.3 L2053.44 1479.3 L2047.08 1479.3 L2040.72 1479.3 
  L2034.37 1479.3 L2028.01 1479.3 L2021.65 1479.3 L2015.3 1479.3 L2008.94 1479.3 L2002.58 1479.3 L1996.23 1479.3 L1989.87 1479.3 L1983.51 1479.3 L1977.16 1479.3 
  L1970.8 1479.3 L1964.44 1479.3 L1958.09 1479.3 L1951.73 1479.3 L1945.37 1479.3 L1939.02 1479.3 L1932.66 1479.3 L1926.3 1479.3 L1919.95 1479.3 L1913.59 1479.3 
  L1907.23 1479.3 L1900.88 1479.3 L1894.52 1479.3 L1888.16 1479.3 L1881.81 1479.3 L1875.45 1479.3 L1869.09 1479.3 L1862.74 1479.3 L1856.38 1479.3 L1850.02 1479.3 
  L1843.67 1479.3 L1837.31 1479.3 L1830.95 1479.3 L1824.6 1479.3 L1818.24 1479.3 L1811.88 1479.3 L1805.53 1479.3 L1799.17 1479.3 L1792.81 1479.3 L1786.46 1479.3 
  L1780.1 1479.3 L1773.74 1479.3 L1767.39 1479.3 L1761.03 1479.3 L1754.67 1479.3 L1748.32 1479.3 L1741.96 1479.3 L1735.6 1479.3 L1729.25 1479.3 L1722.89 1479.3 
  L1716.53 1479.3 L1710.18 1479.3 L1703.82 1479.3 L1697.46 1479.3 L1691.11 1479.3 L1684.75 1479.3 L1678.39 1479.3 L1672.04 1479.3 L1665.68 1479.3 L1659.32 1479.3 
   Z
  " fill="#ffa500" fill-rule="evenodd" fill-opacity="0.5"/>
<polyline clip-path="url(#clip262)" style="stroke:#ffa500; stroke-width:4; stroke-opacity:1; fill:none" points="
  1659.32,1183.22 1665.68,1189.26 1672.04,1196.2 1678.39,1204 1684.75,1212.6 1691.11,1221.89 1697.46,1231.74 1703.82,1241.98 1710.18,1252.43 1716.53,1262.93 
  1722.89,1273.31 1729.25,1283.43 1735.6,1293.19 1741.96,1302.5 1748.32,1311.31 1754.67,1319.6 1761.03,1327.36 1767.39,1334.59 1773.74,1341.32 1780.1,1347.54 
  1786.46,1353.28 1792.81,1358.53 1799.17,1363.27 1805.53,1367.5 1811.88,1371.17 1818.24,1374.25 1824.6,1376.7 1830.95,1378.46 1837.31,1379.5 1843.67,1379.78 
  1850.02,1379.29 1856.38,1378.02 1862.74,1376.01 1869.09,1373.33 1875.45,1370.08 1881.81,1366.41 1888.16,1362.52 1894.52,1358.63 1900.88,1354.98 1907.23,1351.84 
  1913.59,1349.45 1919.95,1348.06 1926.3,1347.83 1932.66,1348.92 1939.02,1351.37 1945.37,1355.18 1951.73,1360.26 1958.09,1366.45 1964.44,1373.56 1970.8,1381.32 
  1977.16,1389.48 1983.51,1397.77 1989.87,1405.94 1996.23,1413.77 2002.58,1421.08 2008.94,1427.75 2015.3,1433.72 2021.65,1438.94 2028.01,1443.45 2034.37,1447.29 
  2040.72,1450.53 2047.08,1453.27 2053.44,1455.59 2059.79,1457.58 2066.15,1459.31 2072.5,1460.86 2078.86,1462.26 2085.22,1463.56 2091.57,1464.78 2097.93,1465.92 
  2104.29,1466.99 2110.64,1467.98 2117,1468.89 2123.36,1469.71 2129.71,1470.42 2136.07,1471.03 2142.43,1471.51 2148.78,1471.87 2155.14,1472.1 2161.5,1472.2 
  2167.85,1472.16 2174.21,1471.99 2180.57,1471.69 2186.92,1471.28 2193.28,1470.76 2199.64,1470.16 2205.99,1469.5 2212.35,1468.82 2218.71,1468.15 2225.06,1467.53 
  2231.42,1466.99 2237.78,1466.56 2244.13,1466.28 2250.49,1466.17 2256.85,1466.25 2263.2,1466.51 2269.56,1466.95 2275.92,1467.56 2282.27,1468.32 2288.63,1469.18 
  
  "/>
<polyline clip-path="url(#clip262)" style="stroke:#0000ff; stroke-width:4; stroke-opacity:1; fill:none" points="
  1077.57,1479.3 1077.57,131.419 
  "/>
<polyline clip-path="url(#clip262)" style="stroke:#000000; stroke-width:4; stroke-opacity:1; fill:none" points="
  1062.1,1479.3 1062.1,113.915 
  "/>
<path clip-path="url(#clip260)" d="
M1494.58 459.25 L2277.23 459.25 L2277.23 96.3696 L1494.58 96.3696  Z
  " fill="#ffffff" fill-rule="evenodd" fill-opacity="1"/>
<polyline clip-path="url(#clip260)" style="stroke:#000000; stroke-width:4; stroke-opacity:1; fill:none" points="
  1494.58,459.25 2277.23,459.25 2277.23,96.3696 1494.58,96.3696 1494.58,459.25 
  "/>
<path clip-path="url(#clip260)" d="
M1519.75 181.042 L1670.81 181.042 L1670.81 132.658 L1519.75 132.658 L1519.75 181.042  Z
  " fill="#ffa500" fill-rule="evenodd" fill-opacity="0.5"/>
<polyline clip-path="url(#clip260)" style="stroke:#ffa500; stroke-width:4; stroke-opacity:1; fill:none" points="
  1519.75,132.658 1670.81,132.658 
  "/>
<path clip-path="url(#clip260)" d="M 0 0 M1700.38 161.19 Q1700.38 165.889 1702.3 168.574 Q1704.24 171.236 1707.62 171.236 Q1711 171.236 1712.95 168.574 Q1714.89 165.889 1714.89 161.19 Q1714.89 156.491 1712.95 153.829 Q1711 151.144 1707.62 151.144 Q1704.24 151.144 1702.3 153.829 Q1700.38 156.491 1700.38 161.19 M1714.89 170.241 Q1713.55 172.555 1711.49 173.69 Q1709.45 174.801 1706.58 174.801 Q1701.88 174.801 1698.92 171.051 Q1695.98 167.301 1695.98 161.19 Q1695.98 155.079 1698.92 151.329 Q1701.88 147.579 1706.58 147.579 Q1709.45 147.579 1711.49 148.713 Q1713.55 149.824 1714.89 152.139 L1714.89 148.204 L1719.15 148.204 L1719.15 183.991 L1714.89 183.991 L1714.89 170.241 Z" fill="#000000" fill-rule="evenodd" fill-opacity="1" /><path clip-path="url(#clip260)" d="M 0 0 M1734.22 142.648 Q1730.61 142.648 1728.78 146.213 Q1726.98 149.755 1726.98 156.884 Q1726.98 163.991 1728.78 167.556 Q1730.61 171.097 1734.22 171.097 Q1737.85 171.097 1739.66 167.556 Q1741.49 163.991 1741.49 156.884 Q1741.49 149.755 1739.66 146.213 Q1737.85 142.648 1734.22 142.648 M1734.22 138.945 Q1740.03 138.945 1743.09 143.551 Q1746.17 148.134 1746.17 156.884 Q1746.17 165.611 1743.09 170.218 Q1740.03 174.801 1734.22 174.801 Q1728.41 174.801 1725.33 170.218 Q1722.28 165.611 1722.28 156.884 Q1722.28 148.134 1725.33 143.551 Q1728.41 138.945 1734.22 138.945 Z" fill="#000000" fill-rule="evenodd" fill-opacity="1" /><path clip-path="url(#clip260)" d="M 0 0 M1751.28 139.57 L1769.64 139.57 L1769.64 143.505 L1755.56 143.505 L1755.56 151.977 Q1756.58 151.63 1757.6 151.468 Q1758.62 151.282 1759.64 151.282 Q1765.42 151.282 1768.8 154.454 Q1772.18 157.625 1772.18 163.042 Q1772.18 168.62 1768.71 171.722 Q1765.24 174.801 1758.92 174.801 Q1756.74 174.801 1754.48 174.43 Q1752.23 174.06 1749.82 173.319 L1749.82 168.62 Q1751.91 169.755 1754.13 170.31 Q1756.35 170.866 1758.83 170.866 Q1762.83 170.866 1765.17 168.759 Q1767.51 166.653 1767.51 163.042 Q1767.51 159.431 1765.17 157.324 Q1762.83 155.218 1758.83 155.218 Q1756.95 155.218 1755.08 155.634 Q1753.23 156.051 1751.28 156.931 L1751.28 139.57 Z" fill="#000000" fill-rule="evenodd" fill-opacity="1" /><path clip-path="url(#clip260)" d="
M1519.75 241.522 L1670.81 241.522 L1670.81 193.138 L1519.75 193.138 L1519.75 241.522  Z
  " fill="#008000" fill-rule="evenodd" fill-opacity="0.5"/>
<polyline clip-path="url(#clip260)" style="stroke:#008000; stroke-width:4; stroke-opacity:1; fill:none" points="
  1519.75,193.138 1670.81,193.138 
  "/>
<path clip-path="url(#clip260)" d="M 0 0 M1698.2 233.892 L1698.2 229.633 Q1699.96 230.466 1701.77 230.906 Q1703.57 231.346 1705.31 231.346 Q1709.94 231.346 1712.37 228.244 Q1714.82 225.119 1715.17 218.776 Q1713.83 220.767 1711.77 221.832 Q1709.71 222.897 1707.21 222.897 Q1702.02 222.897 1698.99 219.772 Q1695.98 216.624 1695.98 211.184 Q1695.98 205.86 1699.13 202.642 Q1702.28 199.425 1707.51 199.425 Q1713.5 199.425 1716.65 204.031 Q1719.82 208.614 1719.82 217.364 Q1719.82 225.536 1715.93 230.42 Q1712.07 235.281 1705.52 235.281 Q1703.76 235.281 1701.95 234.934 Q1700.15 234.586 1698.2 233.892 M1707.51 219.239 Q1710.66 219.239 1712.48 217.086 Q1714.34 214.934 1714.34 211.184 Q1714.34 207.457 1712.48 205.304 Q1710.66 203.128 1707.51 203.128 Q1704.36 203.128 1702.51 205.304 Q1700.68 207.457 1700.68 211.184 Q1700.68 214.934 1702.51 217.086 Q1704.36 219.239 1707.51 219.239 Z" fill="#000000" fill-rule="evenodd" fill-opacity="1" /><path clip-path="url(#clip260)" d="M 0 0 M1734.89 203.128 Q1731.28 203.128 1729.45 206.693 Q1727.65 210.235 1727.65 217.364 Q1727.65 224.471 1729.45 228.036 Q1731.28 231.577 1734.89 231.577 Q1738.53 231.577 1740.33 228.036 Q1742.16 224.471 1742.16 217.364 Q1742.16 210.235 1740.33 206.693 Q1738.53 203.128 1734.89 203.128 M1734.89 199.425 Q1740.7 199.425 1743.76 204.031 Q1746.84 208.614 1746.84 217.364 Q1746.84 226.091 1743.76 230.698 Q1740.7 235.281 1734.89 235.281 Q1729.08 235.281 1726 230.698 Q1722.95 226.091 1722.95 217.364 Q1722.95 208.614 1726 204.031 Q1729.08 199.425 1734.89 199.425 Z" fill="#000000" fill-rule="evenodd" fill-opacity="1" /><path clip-path="url(#clip260)" d="M 0 0 M1781.3 219.401 Q1779.29 219.401 1778.13 221.114 Q1777 222.827 1777 225.883 Q1777 228.892 1778.13 230.628 Q1779.29 232.341 1781.3 232.341 Q1783.27 232.341 1784.41 230.628 Q1785.56 228.892 1785.56 225.883 Q1785.56 222.85 1784.41 221.137 Q1783.27 219.401 1781.3 219.401 M1781.3 216.462 Q1784.96 216.462 1787.11 219.008 Q1789.27 221.554 1789.27 225.883 Q1789.27 230.211 1787.09 232.758 Q1784.94 235.281 1781.3 235.281 Q1777.6 235.281 1775.45 232.758 Q1773.29 230.211 1773.29 225.883 Q1773.29 221.531 1775.45 219.008 Q1777.62 216.462 1781.3 216.462 M1757.42 202.364 Q1755.42 202.364 1754.27 204.1 Q1753.13 205.813 1753.13 208.823 Q1753.13 211.878 1754.27 213.591 Q1755.4 215.304 1757.42 215.304 Q1759.43 215.304 1760.56 213.591 Q1761.72 211.878 1761.72 208.823 Q1761.72 205.837 1760.56 204.1 Q1759.41 202.364 1757.42 202.364 M1778.32 199.425 L1782.02 199.425 L1760.4 235.281 L1756.7 235.281 L1778.32 199.425 M1757.42 199.425 Q1761.07 199.425 1763.25 201.971 Q1765.42 204.494 1765.42 208.823 Q1765.42 213.198 1763.25 215.721 Q1761.1 218.244 1757.42 218.244 Q1753.73 218.244 1751.58 215.721 Q1749.45 213.174 1749.45 208.823 Q1749.45 204.517 1751.6 201.971 Q1753.76 199.425 1757.42 199.425 Z" fill="#000000" fill-rule="evenodd" fill-opacity="1" /><path clip-path="url(#clip260)" d="M 0 0 M1830.35 218.961 L1830.35 234.61 L1826.1 234.61 L1826.1 219.1 Q1826.1 215.42 1824.66 213.591 Q1823.22 211.762 1820.35 211.762 Q1816.91 211.762 1814.91 213.962 Q1812.92 216.161 1812.92 219.957 L1812.92 234.61 L1808.64 234.61 L1808.64 208.684 L1812.92 208.684 L1812.92 212.712 Q1814.45 210.374 1816.51 209.216 Q1818.6 208.059 1821.3 208.059 Q1825.77 208.059 1828.06 210.837 Q1830.35 213.591 1830.35 218.961 Z" fill="#000000" fill-rule="evenodd" fill-opacity="1" /><path clip-path="url(#clip260)" d="M 0 0 M1844.87 211.67 Q1841.44 211.67 1839.45 214.355 Q1837.46 217.017 1837.46 221.67 Q1837.46 226.323 1839.43 229.008 Q1841.42 231.67 1844.87 231.67 Q1848.27 231.67 1850.26 228.985 Q1852.25 226.299 1852.25 221.67 Q1852.25 217.063 1850.26 214.378 Q1848.27 211.67 1844.87 211.67 M1844.87 208.059 Q1850.42 208.059 1853.6 211.67 Q1856.77 215.281 1856.77 221.67 Q1856.77 228.036 1853.6 231.67 Q1850.42 235.281 1844.87 235.281 Q1839.29 235.281 1836.12 231.67 Q1832.97 228.036 1832.97 221.67 Q1832.97 215.281 1836.12 211.67 Q1839.29 208.059 1844.87 208.059 Z" fill="#000000" fill-rule="evenodd" fill-opacity="1" /><path clip-path="url(#clip260)" d="M 0 0 M1882.78 218.961 L1882.78 234.61 L1878.53 234.61 L1878.53 219.1 Q1878.53 215.42 1877.09 213.591 Q1875.66 211.762 1872.78 211.762 Q1869.34 211.762 1867.35 213.962 Q1865.35 216.161 1865.35 219.957 L1865.35 234.61 L1861.07 234.61 L1861.07 208.684 L1865.35 208.684 L1865.35 212.712 Q1866.88 210.374 1868.94 209.216 Q1871.03 208.059 1873.73 208.059 Q1878.2 208.059 1880.49 210.837 Q1882.78 213.591 1882.78 218.961 Z" fill="#000000" fill-rule="evenodd" fill-opacity="1" /><path clip-path="url(#clip260)" d="M 0 0 M1885.1 219.725 L1897.58 219.725 L1897.58 223.522 L1885.1 223.522 L1885.1 219.725 Z" fill="#000000" fill-rule="evenodd" fill-opacity="1" /><path clip-path="url(#clip260)" d="M 0 0 M1917.07 212.665 Q1916.35 212.249 1915.49 212.063 Q1914.66 211.855 1913.64 211.855 Q1910.03 211.855 1908.09 214.216 Q1906.16 216.554 1906.16 220.952 L1906.16 234.61 L1901.88 234.61 L1901.88 208.684 L1906.16 208.684 L1906.16 212.712 Q1907.51 210.35 1909.66 209.216 Q1911.81 208.059 1914.89 208.059 Q1915.33 208.059 1915.86 208.128 Q1916.4 208.175 1917.04 208.29 L1917.07 212.665 Z" fill="#000000" fill-rule="evenodd" fill-opacity="1" /><path clip-path="url(#clip260)" d="M 0 0 M1942.67 220.582 L1942.67 222.665 L1923.09 222.665 Q1923.36 227.063 1925.72 229.378 Q1928.11 231.67 1932.34 231.67 Q1934.8 231.67 1937.09 231.068 Q1939.4 230.466 1941.67 229.262 L1941.67 233.29 Q1939.38 234.262 1936.97 234.772 Q1934.57 235.281 1932.09 235.281 Q1925.89 235.281 1922.25 231.67 Q1918.64 228.059 1918.64 221.901 Q1918.64 215.536 1922.07 211.809 Q1925.52 208.059 1931.35 208.059 Q1936.58 208.059 1939.61 211.438 Q1942.67 214.795 1942.67 220.582 M1938.41 219.332 Q1938.36 215.837 1936.44 213.753 Q1934.54 211.67 1931.4 211.67 Q1927.83 211.67 1925.68 213.684 Q1923.55 215.698 1923.22 219.355 L1938.41 219.332 Z" fill="#000000" fill-rule="evenodd" fill-opacity="1" /><path clip-path="url(#clip260)" d="M 0 0 M1947.14 208.684 L1951.4 208.684 L1951.4 235.073 Q1951.4 240.026 1949.5 242.248 Q1947.62 244.471 1943.43 244.471 L1941.81 244.471 L1941.81 240.86 L1942.95 240.86 Q1945.38 240.86 1946.26 239.725 Q1947.14 238.614 1947.14 235.073 L1947.14 208.684 M1947.14 198.591 L1951.4 198.591 L1951.4 203.985 L1947.14 203.985 L1947.14 198.591 Z" fill="#000000" fill-rule="evenodd" fill-opacity="1" /><path clip-path="url(#clip260)" d="M 0 0 M1978.04 220.582 L1978.04 222.665 L1958.46 222.665 Q1958.73 227.063 1961.09 229.378 Q1963.48 231.67 1967.71 231.67 Q1970.17 231.67 1972.46 231.068 Q1974.78 230.466 1977.04 229.262 L1977.04 233.29 Q1974.75 234.262 1972.34 234.772 Q1969.94 235.281 1967.46 235.281 Q1961.26 235.281 1957.62 231.67 Q1954.01 228.059 1954.01 221.901 Q1954.01 215.536 1957.44 211.809 Q1960.89 208.059 1966.72 208.059 Q1971.95 208.059 1974.98 211.438 Q1978.04 214.795 1978.04 220.582 M1973.78 219.332 Q1973.73 215.837 1971.81 213.753 Q1969.91 211.67 1966.77 211.67 Q1963.2 211.67 1961.05 213.684 Q1958.92 215.698 1958.59 219.355 L1973.78 219.332 Z" fill="#000000" fill-rule="evenodd" fill-opacity="1" /><path clip-path="url(#clip260)" d="M 0 0 M2001.16 209.679 L2001.16 213.661 Q1999.36 212.665 1997.53 212.179 Q1995.72 211.67 1993.87 211.67 Q1989.73 211.67 1987.44 214.309 Q1985.15 216.924 1985.15 221.67 Q1985.15 226.415 1987.44 229.054 Q1989.73 231.67 1993.87 231.67 Q1995.72 231.67 1997.53 231.184 Q1999.36 230.674 2001.16 229.679 L2001.16 233.614 Q1999.38 234.448 1997.46 234.864 Q1995.56 235.281 1993.41 235.281 Q1987.55 235.281 1984.1 231.6 Q1980.65 227.92 1980.65 221.67 Q1980.65 215.327 1984.13 211.693 Q1987.62 208.059 1993.69 208.059 Q1995.65 208.059 1997.53 208.475 Q1999.4 208.869 2001.16 209.679 Z" fill="#000000" fill-rule="evenodd" fill-opacity="1" /><path clip-path="url(#clip260)" d="M 0 0 M2009.84 201.323 L2009.84 208.684 L2018.62 208.684 L2018.62 211.994 L2009.84 211.994 L2009.84 226.068 Q2009.84 229.239 2010.7 230.142 Q2011.58 231.045 2014.24 231.045 L2018.62 231.045 L2018.62 234.61 L2014.24 234.61 Q2009.31 234.61 2007.44 232.781 Q2005.56 230.929 2005.56 226.068 L2005.56 211.994 L2002.44 211.994 L2002.44 208.684 L2005.56 208.684 L2005.56 201.323 L2009.84 201.323 Z" fill="#000000" fill-rule="evenodd" fill-opacity="1" /><path clip-path="url(#clip260)" d="M 0 0 M2023.08 208.684 L2027.34 208.684 L2027.34 234.61 L2023.08 234.61 L2023.08 208.684 M2023.08 198.591 L2027.34 198.591 L2027.34 203.985 L2023.08 203.985 L2023.08 198.591 Z" fill="#000000" fill-rule="evenodd" fill-opacity="1" /><path clip-path="url(#clip260)" d="M 0 0 M2041.86 211.67 Q2038.43 211.67 2036.44 214.355 Q2034.45 217.017 2034.45 221.67 Q2034.45 226.323 2036.42 229.008 Q2038.41 231.67 2041.86 231.67 Q2045.26 231.67 2047.25 228.985 Q2049.24 226.299 2049.24 221.67 Q2049.24 217.063 2047.25 214.378 Q2045.26 211.67 2041.86 211.67 M2041.86 208.059 Q2047.41 208.059 2050.58 211.67 Q2053.76 215.281 2053.76 221.67 Q2053.76 228.036 2050.58 231.67 Q2047.41 235.281 2041.86 235.281 Q2036.28 235.281 2033.11 231.67 Q2029.96 228.036 2029.96 221.67 Q2029.96 215.281 2033.11 211.67 Q2036.28 208.059 2041.86 208.059 Z" fill="#000000" fill-rule="evenodd" fill-opacity="1" /><path clip-path="url(#clip260)" d="M 0 0 M2079.77 218.961 L2079.77 234.61 L2075.52 234.61 L2075.52 219.1 Q2075.52 215.42 2074.08 213.591 Q2072.64 211.762 2069.77 211.762 Q2066.33 211.762 2064.33 213.962 Q2062.34 216.161 2062.34 219.957 L2062.34 234.61 L2058.06 234.61 L2058.06 208.684 L2062.34 208.684 L2062.34 212.712 Q2063.87 210.374 2065.93 209.216 Q2068.02 208.059 2070.72 208.059 Q2075.19 208.059 2077.48 210.837 Q2079.77 213.591 2079.77 218.961 Z" fill="#000000" fill-rule="evenodd" fill-opacity="1" /><path clip-path="url(#clip260)" d="M 0 0 M2114.33 212.665 Q2113.62 212.249 2112.76 212.063 Q2111.93 211.855 2110.91 211.855 Q2107.3 211.855 2105.35 214.216 Q2103.43 216.554 2103.43 220.952 L2103.43 234.61 L2099.15 234.61 L2099.15 208.684 L2103.43 208.684 L2103.43 212.712 Q2104.77 210.35 2106.93 209.216 Q2109.08 208.059 2112.16 208.059 Q2112.6 208.059 2113.13 208.128 Q2113.66 208.175 2114.31 208.29 L2114.33 212.665 Z" fill="#000000" fill-rule="evenodd" fill-opacity="1" /><path clip-path="url(#clip260)" d="M 0 0 M2139.94 220.582 L2139.94 222.665 L2120.35 222.665 Q2120.63 227.063 2122.99 229.378 Q2125.38 231.67 2129.61 231.67 Q2132.07 231.67 2134.36 231.068 Q2136.67 230.466 2138.94 229.262 L2138.94 233.29 Q2136.65 234.262 2134.24 234.772 Q2131.83 235.281 2129.36 235.281 Q2123.15 235.281 2119.52 231.67 Q2115.91 228.059 2115.91 221.901 Q2115.91 215.536 2119.33 211.809 Q2122.78 208.059 2128.62 208.059 Q2133.85 208.059 2136.88 211.438 Q2139.94 214.795 2139.94 220.582 M2135.68 219.332 Q2135.63 215.837 2133.71 213.753 Q2131.81 211.67 2128.66 211.67 Q2125.1 211.67 2122.95 213.684 Q2120.82 215.698 2120.49 219.355 L2135.68 219.332 Z" fill="#000000" fill-rule="evenodd" fill-opacity="1" /><path clip-path="url(#clip260)" d="M 0 0 M2161.46 221.346 Q2161.46 216.716 2159.54 214.17 Q2157.64 211.624 2154.2 211.624 Q2150.77 211.624 2148.85 214.17 Q2146.95 216.716 2146.95 221.346 Q2146.95 225.952 2148.85 228.498 Q2150.77 231.045 2154.2 231.045 Q2157.64 231.045 2159.54 228.498 Q2161.46 225.952 2161.46 221.346 M2165.72 231.392 Q2165.72 238.012 2162.78 241.23 Q2159.84 244.471 2153.78 244.471 Q2151.53 244.471 2149.54 244.123 Q2147.55 243.799 2145.68 243.105 L2145.68 238.961 Q2147.55 239.98 2149.38 240.466 Q2151.21 240.952 2153.11 240.952 Q2157.3 240.952 2159.38 238.753 Q2161.46 236.577 2161.46 232.156 L2161.46 230.049 Q2160.14 232.341 2158.08 233.475 Q2156.02 234.61 2153.15 234.61 Q2148.39 234.61 2145.47 230.975 Q2142.55 227.341 2142.55 221.346 Q2142.55 215.327 2145.47 211.693 Q2148.39 208.059 2153.15 208.059 Q2156.02 208.059 2158.08 209.193 Q2160.14 210.327 2161.46 212.619 L2161.46 208.684 L2165.72 208.684 L2165.72 231.392 Z" fill="#000000" fill-rule="evenodd" fill-opacity="1" /><path clip-path="url(#clip260)" d="M 0 0 M2170.19 208.684 L2174.45 208.684 L2174.45 234.61 L2170.19 234.61 L2170.19 208.684 M2170.19 198.591 L2174.45 198.591 L2174.45 203.985 L2170.19 203.985 L2170.19 198.591 Z" fill="#000000" fill-rule="evenodd" fill-opacity="1" /><path clip-path="url(#clip260)" d="M 0 0 M2188.96 211.67 Q2185.54 211.67 2183.55 214.355 Q2181.56 217.017 2181.56 221.67 Q2181.56 226.323 2183.52 229.008 Q2185.51 231.67 2188.96 231.67 Q2192.37 231.67 2194.36 228.985 Q2196.35 226.299 2196.35 221.67 Q2196.35 217.063 2194.36 214.378 Q2192.37 211.67 2188.96 211.67 M2188.96 208.059 Q2194.52 208.059 2197.69 211.67 Q2200.86 215.281 2200.86 221.67 Q2200.86 228.036 2197.69 231.67 Q2194.52 235.281 2188.96 235.281 Q2183.39 235.281 2180.21 231.67 Q2177.07 228.036 2177.07 221.67 Q2177.07 215.281 2180.21 211.67 Q2183.39 208.059 2188.96 208.059 Z" fill="#000000" fill-rule="evenodd" fill-opacity="1" /><path clip-path="url(#clip260)" d="M 0 0 M2226.88 218.961 L2226.88 234.61 L2222.62 234.61 L2222.62 219.1 Q2222.62 215.42 2221.19 213.591 Q2219.75 211.762 2216.88 211.762 Q2213.43 211.762 2211.44 213.962 Q2209.45 216.161 2209.45 219.957 L2209.45 234.61 L2205.17 234.61 L2205.17 208.684 L2209.45 208.684 L2209.45 212.712 Q2210.98 210.374 2213.04 209.216 Q2215.12 208.059 2217.83 208.059 Q2222.3 208.059 2224.59 210.837 Q2226.88 213.591 2226.88 218.961 Z" fill="#000000" fill-rule="evenodd" fill-opacity="1" /><path clip-path="url(#clip260)" d="
M1519.75 302.002 L1670.81 302.002 L1670.81 253.618 L1519.75 253.618 L1519.75 302.002  Z
  " fill="#ffa500" fill-rule="evenodd" fill-opacity="0.5"/>
<polyline clip-path="url(#clip260)" style="stroke:#ffa500; stroke-width:4; stroke-opacity:1; fill:none" points="
  1519.75,253.618 1670.81,253.618 
  "/>
<path clip-path="url(#clip260)" d="M 0 0 M1700.38 282.15 Q1700.38 286.849 1702.3 289.534 Q1704.24 292.196 1707.62 292.196 Q1711 292.196 1712.95 289.534 Q1714.89 286.849 1714.89 282.15 Q1714.89 277.451 1712.95 274.789 Q1711 272.104 1707.62 272.104 Q1704.24 272.104 1702.3 274.789 Q1700.38 277.451 1700.38 282.15 M1714.89 291.201 Q1713.55 293.515 1711.49 294.65 Q1709.45 295.761 1706.58 295.761 Q1701.88 295.761 1698.92 292.011 Q1695.98 288.261 1695.98 282.15 Q1695.98 276.039 1698.92 272.289 Q1701.88 268.539 1706.58 268.539 Q1709.45 268.539 1711.49 269.673 Q1713.55 270.784 1714.89 273.099 L1714.89 269.164 L1719.15 269.164 L1719.15 304.951 L1714.89 304.951 L1714.89 291.201 Z" fill="#000000" fill-rule="evenodd" fill-opacity="1" /><path clip-path="url(#clip260)" d="M 0 0 M1724.36 294.372 L1724.36 290.113 Q1726.12 290.946 1727.92 291.386 Q1729.73 291.826 1731.47 291.826 Q1736.1 291.826 1738.53 288.724 Q1740.98 285.599 1741.33 279.256 Q1739.98 281.247 1737.92 282.312 Q1735.86 283.377 1733.36 283.377 Q1728.18 283.377 1725.15 280.252 Q1722.14 277.104 1722.14 271.664 Q1722.14 266.34 1725.29 263.122 Q1728.43 259.905 1733.67 259.905 Q1739.66 259.905 1742.81 264.511 Q1745.98 269.094 1745.98 277.844 Q1745.98 286.016 1742.09 290.9 Q1738.23 295.761 1731.67 295.761 Q1729.92 295.761 1728.11 295.414 Q1726.3 295.066 1724.36 294.372 M1733.67 279.719 Q1736.81 279.719 1738.64 277.566 Q1740.49 275.414 1740.49 271.664 Q1740.49 267.937 1738.64 265.784 Q1736.81 263.608 1733.67 263.608 Q1730.52 263.608 1728.67 265.784 Q1726.84 267.937 1726.84 271.664 Q1726.84 275.414 1728.67 277.566 Q1730.52 279.719 1733.67 279.719 Z" fill="#000000" fill-rule="evenodd" fill-opacity="1" /><path clip-path="url(#clip260)" d="M 0 0 M1751.1 260.53 L1769.45 260.53 L1769.45 264.465 L1755.38 264.465 L1755.38 272.937 Q1756.4 272.59 1757.42 272.428 Q1758.43 272.242 1759.45 272.242 Q1765.24 272.242 1768.62 275.414 Q1772 278.585 1772 284.002 Q1772 289.58 1768.53 292.682 Q1765.05 295.761 1758.73 295.761 Q1756.56 295.761 1754.29 295.39 Q1752.04 295.02 1749.64 294.279 L1749.64 289.58 Q1751.72 290.715 1753.94 291.27 Q1756.17 291.826 1758.64 291.826 Q1762.65 291.826 1764.98 289.719 Q1767.32 287.613 1767.32 284.002 Q1767.32 280.391 1764.98 278.284 Q1762.65 276.178 1758.64 276.178 Q1756.77 276.178 1754.89 276.594 Q1753.04 277.011 1751.1 277.891 L1751.1 260.53 Z" fill="#000000" fill-rule="evenodd" fill-opacity="1" /><polyline clip-path="url(#clip260)" style="stroke:#0000ff; stroke-width:4; stroke-opacity:1; fill:none" points="
  1519.75,338.29 1670.81,338.29 
  "/>
<path clip-path="url(#clip260)" d="M 0 0 M1716.33 334.621 Q1717.92 331.75 1720.15 330.385 Q1722.37 329.019 1725.38 329.019 Q1729.43 329.019 1731.63 331.866 Q1733.83 334.69 1733.83 339.921 L1733.83 355.57 L1729.54 355.57 L1729.54 340.06 Q1729.54 336.334 1728.23 334.528 Q1726.91 332.722 1724.2 332.722 Q1720.89 332.722 1718.97 334.922 Q1717.04 337.121 1717.04 340.917 L1717.04 355.57 L1712.76 355.57 L1712.76 340.06 Q1712.76 336.31 1711.44 334.528 Q1710.12 332.722 1707.37 332.722 Q1704.11 332.722 1702.18 334.945 Q1700.26 337.144 1700.26 340.917 L1700.26 355.57 L1695.98 355.57 L1695.98 329.644 L1700.26 329.644 L1700.26 333.672 Q1701.72 331.287 1703.76 330.153 Q1705.79 329.019 1708.6 329.019 Q1711.42 329.019 1713.39 330.454 Q1715.38 331.889 1716.33 334.621 Z" fill="#000000" fill-rule="evenodd" fill-opacity="1" /><path clip-path="url(#clip260)" d="M 0 0 M1760.47 341.542 L1760.47 343.625 L1740.89 343.625 Q1741.17 348.023 1743.53 350.338 Q1745.91 352.63 1750.15 352.63 Q1752.6 352.63 1754.89 352.028 Q1757.21 351.426 1759.48 350.222 L1759.48 354.25 Q1757.18 355.222 1754.78 355.732 Q1752.37 356.241 1749.89 356.241 Q1743.69 356.241 1740.05 352.63 Q1736.44 349.019 1736.44 342.861 Q1736.44 336.496 1739.87 332.769 Q1743.32 329.019 1749.15 329.019 Q1754.38 329.019 1757.42 332.398 Q1760.47 335.755 1760.47 341.542 M1756.21 340.292 Q1756.17 336.797 1754.24 334.713 Q1752.35 332.63 1749.2 332.63 Q1745.63 332.63 1743.48 334.644 Q1741.35 336.658 1741.03 340.315 L1756.21 340.292 Z" fill="#000000" fill-rule="evenodd" fill-opacity="1" /><path clip-path="url(#clip260)" d="M 0 0 M1776.72 342.537 Q1771.56 342.537 1769.57 343.718 Q1767.58 344.898 1767.58 347.746 Q1767.58 350.014 1769.06 351.357 Q1770.56 352.676 1773.13 352.676 Q1776.67 352.676 1778.8 350.176 Q1780.96 347.653 1780.96 343.486 L1780.96 342.537 L1776.72 342.537 M1785.22 340.778 L1785.22 355.57 L1780.96 355.57 L1780.96 351.634 Q1779.5 353.995 1777.32 355.13 Q1775.15 356.241 1772 356.241 Q1768.02 356.241 1765.66 354.019 Q1763.32 351.773 1763.32 348.023 Q1763.32 343.648 1766.23 341.426 Q1769.17 339.204 1774.98 339.204 L1780.96 339.204 L1780.96 338.787 Q1780.96 335.847 1779.01 334.25 Q1777.09 332.63 1773.6 332.63 Q1771.37 332.63 1769.27 333.162 Q1767.16 333.695 1765.22 334.759 L1765.22 330.824 Q1767.55 329.922 1769.75 329.482 Q1771.95 329.019 1774.04 329.019 Q1779.66 329.019 1782.44 331.935 Q1785.22 334.852 1785.22 340.778 Z" fill="#000000" fill-rule="evenodd" fill-opacity="1" /><path clip-path="url(#clip260)" d="M 0 0 M1811.23 339.921 L1811.23 355.57 L1806.97 355.57 L1806.97 340.06 Q1806.97 336.38 1805.54 334.551 Q1804.1 332.722 1801.23 332.722 Q1797.79 332.722 1795.79 334.922 Q1793.8 337.121 1793.8 340.917 L1793.8 355.57 L1789.52 355.57 L1789.52 329.644 L1793.8 329.644 L1793.8 333.672 Q1795.33 331.334 1797.39 330.176 Q1799.48 329.019 1802.18 329.019 Q1806.65 329.019 1808.94 331.797 Q1811.23 334.551 1811.23 339.921 Z" fill="#000000" fill-rule="evenodd" fill-opacity="1" /><polyline clip-path="url(#clip260)" style="stroke:#000000; stroke-width:4; stroke-opacity:1; fill:none" points="
  1519.75,398.77 1670.81,398.77 
  "/>
<path clip-path="url(#clip260)" d="M 0 0 M1716.33 395.101 Q1717.92 392.23 1720.15 390.865 Q1722.37 389.499 1725.38 389.499 Q1729.43 389.499 1731.63 392.346 Q1733.83 395.17 1733.83 400.401 L1733.83 416.05 L1729.54 416.05 L1729.54 400.54 Q1729.54 396.814 1728.23 395.008 Q1726.91 393.202 1724.2 393.202 Q1720.89 393.202 1718.97 395.402 Q1717.04 397.601 1717.04 401.397 L1717.04 416.05 L1712.76 416.05 L1712.76 400.54 Q1712.76 396.79 1711.44 395.008 Q1710.12 393.202 1707.37 393.202 Q1704.11 393.202 1702.18 395.425 Q1700.26 397.624 1700.26 401.397 L1700.26 416.05 L1695.98 416.05 L1695.98 390.124 L1700.26 390.124 L1700.26 394.152 Q1701.72 391.767 1703.76 390.633 Q1705.79 389.499 1708.6 389.499 Q1711.42 389.499 1713.39 390.934 Q1715.38 392.369 1716.33 395.101 Z" fill="#000000" fill-rule="evenodd" fill-opacity="1" /><path clip-path="url(#clip260)" d="M 0 0 M1760.47 402.022 L1760.47 404.105 L1740.89 404.105 Q1741.17 408.503 1743.53 410.818 Q1745.91 413.11 1750.15 413.11 Q1752.6 413.11 1754.89 412.508 Q1757.21 411.906 1759.48 410.702 L1759.48 414.73 Q1757.18 415.702 1754.78 416.212 Q1752.37 416.721 1749.89 416.721 Q1743.69 416.721 1740.05 413.11 Q1736.44 409.499 1736.44 403.341 Q1736.44 396.976 1739.87 393.249 Q1743.32 389.499 1749.15 389.499 Q1754.38 389.499 1757.42 392.878 Q1760.47 396.235 1760.47 402.022 M1756.21 400.772 Q1756.17 397.277 1754.24 395.193 Q1752.35 393.11 1749.2 393.11 Q1745.63 393.11 1743.48 395.124 Q1741.35 397.138 1741.03 400.795 L1756.21 400.772 Z" fill="#000000" fill-rule="evenodd" fill-opacity="1" /><path clip-path="url(#clip260)" d="M 0 0 M1782 394.059 L1782 380.031 L1786.26 380.031 L1786.26 416.05 L1782 416.05 L1782 412.161 Q1780.66 414.475 1778.6 415.61 Q1776.56 416.721 1773.69 416.721 Q1768.99 416.721 1766.03 412.971 Q1763.09 409.221 1763.09 403.11 Q1763.09 396.999 1766.03 393.249 Q1768.99 389.499 1773.69 389.499 Q1776.56 389.499 1778.6 390.633 Q1780.66 391.744 1782 394.059 M1767.48 403.11 Q1767.48 407.809 1769.41 410.494 Q1771.35 413.156 1774.73 413.156 Q1778.11 413.156 1780.05 410.494 Q1782 407.809 1782 403.11 Q1782 398.411 1780.05 395.749 Q1778.11 393.064 1774.73 393.064 Q1771.35 393.064 1769.41 395.749 Q1767.48 398.411 1767.48 403.11 Z" fill="#000000" fill-rule="evenodd" fill-opacity="1" /><path clip-path="url(#clip260)" d="M 0 0 M1790.73 390.124 L1794.98 390.124 L1794.98 416.05 L1790.73 416.05 L1790.73 390.124 M1790.73 380.031 L1794.98 380.031 L1794.98 385.425 L1790.73 385.425 L1790.73 380.031 Z" fill="#000000" fill-rule="evenodd" fill-opacity="1" /><path clip-path="url(#clip260)" d="M 0 0 M1811.23 403.017 Q1806.07 403.017 1804.08 404.198 Q1802.09 405.378 1802.09 408.226 Q1802.09 410.494 1803.57 411.837 Q1805.08 413.156 1807.65 413.156 Q1811.19 413.156 1813.32 410.656 Q1815.47 408.133 1815.47 403.966 L1815.47 403.017 L1811.23 403.017 M1819.73 401.258 L1819.73 416.05 L1815.47 416.05 L1815.47 412.114 Q1814.01 414.475 1811.84 415.61 Q1809.66 416.721 1806.51 416.721 Q1802.53 416.721 1800.17 414.499 Q1797.83 412.253 1797.83 408.503 Q1797.83 404.128 1800.75 401.906 Q1803.69 399.684 1809.5 399.684 L1815.47 399.684 L1815.47 399.267 Q1815.47 396.327 1813.53 394.73 Q1811.6 393.11 1808.11 393.11 Q1805.89 393.11 1803.78 393.642 Q1801.67 394.175 1799.73 395.239 L1799.73 391.304 Q1802.07 390.402 1804.27 389.962 Q1806.47 389.499 1808.55 389.499 Q1814.17 389.499 1816.95 392.415 Q1819.73 395.332 1819.73 401.258 Z" fill="#000000" fill-rule="evenodd" fill-opacity="1" /><path clip-path="url(#clip260)" d="M 0 0 M1845.75 400.401 L1845.75 416.05 L1841.49 416.05 L1841.49 400.54 Q1841.49 396.86 1840.05 395.031 Q1838.62 393.202 1835.75 393.202 Q1832.3 393.202 1830.31 395.402 Q1828.32 397.601 1828.32 401.397 L1828.32 416.05 L1824.04 416.05 L1824.04 390.124 L1828.32 390.124 L1828.32 394.152 Q1829.85 391.814 1831.91 390.656 Q1833.99 389.499 1836.7 389.499 Q1841.16 389.499 1843.46 392.277 Q1845.75 395.031 1845.75 400.401 Z" fill="#000000" fill-rule="evenodd" fill-opacity="1" /></svg>
