<?xml version="1.0" encoding="utf-8"?>
<svg xmlns="http://www.w3.org/2000/svg" xmlns:xlink="http://www.w3.org/1999/xlink" width="600" height="400" viewBox="0 0 2400 1600">
<defs>
  <clipPath id="clip870">
    <rect x="0" y="0" width="2400" height="1600"/>
  </clipPath>
</defs>
<path clip-path="url(#clip870)" d="
M0 1600 L2400 1600 L2400 0 L0 0  Z
  " fill="#ffffff" fill-rule="evenodd" fill-opacity="1"/>
<defs>
  <clipPath id="clip871">
    <rect x="480" y="0" width="1681" height="1600"/>
  </clipPath>
</defs>
<path clip-path="url(#clip870)" d="
M86.9921 1521.01 L2352.76 1521.01 L2352.76 47.2441 L86.9921 47.2441  Z
  " fill="#ffffff" fill-rule="evenodd" fill-opacity="1"/>
<defs>
  <clipPath id="clip872">
    <rect x="86" y="47" width="2267" height="1475"/>
  </clipPath>
</defs>
<polyline clip-path="url(#clip872)" style="stroke:#000000; stroke-width:2; stroke-opacity:0.1; fill:none" points="
  387.377,1521.01 387.377,47.2441 
  "/>
<polyline clip-path="url(#clip872)" style="stroke:#000000; stroke-width:2; stroke-opacity:0.1; fill:none" points="
  699.107,1521.01 699.107,47.2441 
  "/>
<polyline clip-path="url(#clip872)" style="stroke:#000000; stroke-width:2; stroke-opacity:0.1; fill:none" points="
  1010.84,1521.01 1010.84,47.2441 
  "/>
<polyline clip-path="url(#clip872)" style="stroke:#000000; stroke-width:2; stroke-opacity:0.1; fill:none" points="
  1322.57,1521.01 1322.57,47.2441 
  "/>
<polyline clip-path="url(#clip872)" style="stroke:#000000; stroke-width:2; stroke-opacity:0.1; fill:none" points="
  1634.3,1521.01 1634.3,47.2441 
  "/>
<polyline clip-path="url(#clip872)" style="stroke:#000000; stroke-width:2; stroke-opacity:0.1; fill:none" points="
  1946.03,1521.01 1946.03,47.2441 
  "/>
<polyline clip-path="url(#clip872)" style="stroke:#000000; stroke-width:2; stroke-opacity:0.1; fill:none" points="
  2257.76,1521.01 2257.76,47.2441 
  "/>
<polyline clip-path="url(#clip872)" style="stroke:#000000; stroke-width:2; stroke-opacity:0.1; fill:none" points="
  86.9921,1479.3 2352.76,1479.3 
  "/>
<polyline clip-path="url(#clip872)" style="stroke:#000000; stroke-width:2; stroke-opacity:0.1; fill:none" points="
  86.9921,1195.86 2352.76,1195.86 
  "/>
<polyline clip-path="url(#clip872)" style="stroke:#000000; stroke-width:2; stroke-opacity:0.1; fill:none" points="
  86.9921,912.426 2352.76,912.426 
  "/>
<polyline clip-path="url(#clip872)" style="stroke:#000000; stroke-width:2; stroke-opacity:0.1; fill:none" points="
  86.9921,628.991 2352.76,628.991 
  "/>
<polyline clip-path="url(#clip872)" style="stroke:#000000; stroke-width:2; stroke-opacity:0.1; fill:none" points="
  86.9921,345.555 2352.76,345.555 
  "/>
<polyline clip-path="url(#clip872)" style="stroke:#000000; stroke-width:2; stroke-opacity:0.1; fill:none" points="
  86.9921,62.1195 2352.76,62.1195 
  "/>
<polyline clip-path="url(#clip870)" style="stroke:#000000; stroke-width:4; stroke-opacity:1; fill:none" points="
  86.9921,1521.01 2352.76,1521.01 
  "/>
<polyline clip-path="url(#clip870)" style="stroke:#000000; stroke-width:4; stroke-opacity:1; fill:none" points="
  86.9921,1521.01 86.9921,47.2441 
  "/>
<polyline clip-path="url(#clip870)" style="stroke:#000000; stroke-width:4; stroke-opacity:1; fill:none" points="
  387.377,1521.01 387.377,1503.32 
  "/>
<polyline clip-path="url(#clip870)" style="stroke:#000000; stroke-width:4; stroke-opacity:1; fill:none" points="
  699.107,1521.01 699.107,1503.32 
  "/>
<polyline clip-path="url(#clip870)" style="stroke:#000000; stroke-width:4; stroke-opacity:1; fill:none" points="
  1010.84,1521.01 1010.84,1503.32 
  "/>
<polyline clip-path="url(#clip870)" style="stroke:#000000; stroke-width:4; stroke-opacity:1; fill:none" points="
  1322.57,1521.01 1322.57,1503.32 
  "/>
<polyline clip-path="url(#clip870)" style="stroke:#000000; stroke-width:4; stroke-opacity:1; fill:none" points="
  1634.3,1521.01 1634.3,1503.32 
  "/>
<polyline clip-path="url(#clip870)" style="stroke:#000000; stroke-width:4; stroke-opacity:1; fill:none" points="
  1946.03,1521.01 1946.03,1503.32 
  "/>
<polyline clip-path="url(#clip870)" style="stroke:#000000; stroke-width:4; stroke-opacity:1; fill:none" points="
  2257.76,1521.01 2257.76,1503.32 
  "/>
<polyline clip-path="url(#clip870)" style="stroke:#000000; stroke-width:4; stroke-opacity:1; fill:none" points="
  86.9921,1479.3 114.181,1479.3 
  "/>
<polyline clip-path="url(#clip870)" style="stroke:#000000; stroke-width:4; stroke-opacity:1; fill:none" points="
  86.9921,1195.86 114.181,1195.86 
  "/>
<polyline clip-path="url(#clip870)" style="stroke:#000000; stroke-width:4; stroke-opacity:1; fill:none" points="
  86.9921,912.426 114.181,912.426 
  "/>
<polyline clip-path="url(#clip870)" style="stroke:#000000; stroke-width:4; stroke-opacity:1; fill:none" points="
  86.9921,628.991 114.181,628.991 
  "/>
<polyline clip-path="url(#clip870)" style="stroke:#000000; stroke-width:4; stroke-opacity:1; fill:none" points="
  86.9921,345.555 114.181,345.555 
  "/>
<polyline clip-path="url(#clip870)" style="stroke:#000000; stroke-width:4; stroke-opacity:1; fill:none" points="
  86.9921,62.1195 114.181,62.1195 
  "/>
<path clip-path="url(#clip870)" d="M 0 0 M323.245 1559.6 L335.722 1559.6 L335.722 1563.39 L323.245 1563.39 L323.245 1559.6 Z" fill="#000000" fill-rule="evenodd" fill-opacity="1" /><path clip-path="url(#clip870)" d="M 0 0 M350.791 1543 Q347.18 1543 345.351 1546.56 Q343.546 1550.11 343.546 1557.23 Q343.546 1564.34 345.351 1567.91 Q347.18 1571.45 350.791 1571.45 Q354.425 1571.45 356.231 1567.91 Q358.06 1564.34 358.06 1557.23 Q358.06 1550.11 356.231 1546.56 Q354.425 1543 350.791 1543 M350.791 1539.29 Q356.601 1539.29 359.657 1543.9 Q362.735 1548.48 362.735 1557.23 Q362.735 1565.96 359.657 1570.57 Q356.601 1575.15 350.791 1575.15 Q344.981 1575.15 341.902 1570.57 Q338.847 1565.96 338.847 1557.23 Q338.847 1548.48 341.902 1543.9 Q344.981 1539.29 350.791 1539.29 Z" fill="#000000" fill-rule="evenodd" fill-opacity="1" /><path clip-path="url(#clip870)" d="M 0 0 M367.805 1568.6 L372.689 1568.6 L372.689 1574.48 L367.805 1574.48 L367.805 1568.6 Z" fill="#000000" fill-rule="evenodd" fill-opacity="1" /><path clip-path="url(#clip870)" d="M 0 0 M387.758 1543 Q384.147 1543 382.319 1546.56 Q380.513 1550.11 380.513 1557.23 Q380.513 1564.34 382.319 1567.91 Q384.147 1571.45 387.758 1571.45 Q391.393 1571.45 393.198 1567.91 Q395.027 1564.34 395.027 1557.23 Q395.027 1550.11 393.198 1546.56 Q391.393 1543 387.758 1543 M387.758 1539.29 Q393.569 1539.29 396.624 1543.9 Q399.703 1548.48 399.703 1557.23 Q399.703 1565.96 396.624 1570.57 Q393.569 1575.15 387.758 1575.15 Q381.948 1575.15 378.87 1570.57 Q375.814 1565.96 375.814 1557.23 Q375.814 1548.48 378.87 1543.9 Q381.948 1539.29 387.758 1539.29 Z" fill="#000000" fill-rule="evenodd" fill-opacity="1" /><path clip-path="url(#clip870)" d="M 0 0 M405.582 1570.54 L413.221 1570.54 L413.221 1544.18 L404.911 1545.85 L404.911 1541.59 L413.175 1539.92 L417.851 1539.92 L417.851 1570.54 L425.49 1570.54 L425.49 1574.48 L405.582 1574.48 L405.582 1570.54 Z" fill="#000000" fill-rule="evenodd" fill-opacity="1" /><path clip-path="url(#clip870)" d="M 0 0 M430.605 1539.92 L448.962 1539.92 L448.962 1543.86 L434.888 1543.86 L434.888 1552.33 Q435.906 1551.98 436.925 1551.82 Q437.943 1551.63 438.962 1551.63 Q444.749 1551.63 448.129 1554.8 Q451.508 1557.98 451.508 1563.39 Q451.508 1568.97 448.036 1572.07 Q444.564 1575.15 438.244 1575.15 Q436.068 1575.15 433.8 1574.78 Q431.555 1574.41 429.147 1573.67 L429.147 1568.97 Q431.23 1570.1 433.453 1570.66 Q435.675 1571.22 438.152 1571.22 Q442.156 1571.22 444.494 1569.11 Q446.832 1567 446.832 1563.39 Q446.832 1559.78 444.494 1557.67 Q442.156 1555.57 438.152 1555.57 Q436.277 1555.57 434.402 1555.98 Q432.55 1556.4 430.605 1557.28 L430.605 1539.92 Z" fill="#000000" fill-rule="evenodd" fill-opacity="1" /><path clip-path="url(#clip870)" d="M 0 0 M634.478 1559.6 L646.955 1559.6 L646.955 1563.39 L634.478 1563.39 L634.478 1559.6 Z" fill="#000000" fill-rule="evenodd" fill-opacity="1" /><path clip-path="url(#clip870)" d="M 0 0 M662.024 1543 Q658.413 1543 656.584 1546.56 Q654.779 1550.11 654.779 1557.23 Q654.779 1564.34 656.584 1567.91 Q658.413 1571.45 662.024 1571.45 Q665.658 1571.45 667.464 1567.91 Q669.293 1564.34 669.293 1557.23 Q669.293 1550.11 667.464 1546.56 Q665.658 1543 662.024 1543 M662.024 1539.29 Q667.834 1539.29 670.89 1543.9 Q673.969 1548.48 673.969 1557.23 Q673.969 1565.96 670.89 1570.57 Q667.834 1575.15 662.024 1575.15 Q656.214 1575.15 653.135 1570.57 Q650.08 1565.96 650.08 1557.23 Q650.08 1548.48 653.135 1543.9 Q656.214 1539.29 662.024 1539.29 Z" fill="#000000" fill-rule="evenodd" fill-opacity="1" /><path clip-path="url(#clip870)" d="M 0 0 M679.038 1568.6 L683.922 1568.6 L683.922 1574.48 L679.038 1574.48 L679.038 1568.6 Z" fill="#000000" fill-rule="evenodd" fill-opacity="1" /><path clip-path="url(#clip870)" d="M 0 0 M698.992 1543 Q695.381 1543 693.552 1546.56 Q691.746 1550.11 691.746 1557.23 Q691.746 1564.34 693.552 1567.91 Q695.381 1571.45 698.992 1571.45 Q702.626 1571.45 704.431 1567.91 Q706.26 1564.34 706.26 1557.23 Q706.26 1550.11 704.431 1546.56 Q702.626 1543 698.992 1543 M698.992 1539.29 Q704.802 1539.29 707.857 1543.9 Q710.936 1548.48 710.936 1557.23 Q710.936 1565.96 707.857 1570.57 Q704.802 1575.15 698.992 1575.15 Q693.181 1575.15 690.103 1570.57 Q687.047 1565.96 687.047 1557.23 Q687.047 1548.48 690.103 1543.9 Q693.181 1539.29 698.992 1539.29 Z" fill="#000000" fill-rule="evenodd" fill-opacity="1" /><path clip-path="url(#clip870)" d="M 0 0 M716.816 1570.54 L724.454 1570.54 L724.454 1544.18 L716.144 1545.85 L716.144 1541.59 L724.408 1539.92 L729.084 1539.92 L729.084 1570.54 L736.723 1570.54 L736.723 1574.48 L716.816 1574.48 L716.816 1570.54 Z" fill="#000000" fill-rule="evenodd" fill-opacity="1" /><path clip-path="url(#clip870)" d="M 0 0 M751.792 1543 Q748.181 1543 746.352 1546.56 Q744.547 1550.11 744.547 1557.23 Q744.547 1564.34 746.352 1567.91 Q748.181 1571.45 751.792 1571.45 Q755.426 1571.45 757.232 1567.91 Q759.061 1564.34 759.061 1557.23 Q759.061 1550.11 757.232 1546.56 Q755.426 1543 751.792 1543 M751.792 1539.29 Q757.602 1539.29 760.658 1543.9 Q763.737 1548.48 763.737 1557.23 Q763.737 1565.96 760.658 1570.57 Q757.602 1575.15 751.792 1575.15 Q745.982 1575.15 742.903 1570.57 Q739.848 1565.96 739.848 1557.23 Q739.848 1548.48 742.903 1543.9 Q745.982 1539.29 751.792 1539.29 Z" fill="#000000" fill-rule="evenodd" fill-opacity="1" /><path clip-path="url(#clip870)" d="M 0 0 M946.093 1559.6 L958.57 1559.6 L958.57 1563.39 L946.093 1563.39 L946.093 1559.6 Z" fill="#000000" fill-rule="evenodd" fill-opacity="1" /><path clip-path="url(#clip870)" d="M 0 0 M973.639 1543 Q970.028 1543 968.199 1546.56 Q966.394 1550.11 966.394 1557.23 Q966.394 1564.34 968.199 1567.91 Q970.028 1571.45 973.639 1571.45 Q977.274 1571.45 979.079 1567.91 Q980.908 1564.34 980.908 1557.23 Q980.908 1550.11 979.079 1546.56 Q977.274 1543 973.639 1543 M973.639 1539.29 Q979.449 1539.29 982.505 1543.9 Q985.584 1548.48 985.584 1557.23 Q985.584 1565.96 982.505 1570.57 Q979.449 1575.15 973.639 1575.15 Q967.829 1575.15 964.75 1570.57 Q961.695 1565.96 961.695 1557.23 Q961.695 1548.48 964.75 1543.9 Q967.829 1539.29 973.639 1539.29 Z" fill="#000000" fill-rule="evenodd" fill-opacity="1" /><path clip-path="url(#clip870)" d="M 0 0 M990.653 1568.6 L995.537 1568.6 L995.537 1574.48 L990.653 1574.48 L990.653 1568.6 Z" fill="#000000" fill-rule="evenodd" fill-opacity="1" /><path clip-path="url(#clip870)" d="M 0 0 M1010.61 1543 Q1007 1543 1005.17 1546.56 Q1003.36 1550.11 1003.36 1557.23 Q1003.36 1564.34 1005.17 1567.91 Q1007 1571.45 1010.61 1571.45 Q1014.24 1571.45 1016.05 1567.91 Q1017.88 1564.34 1017.88 1557.23 Q1017.88 1550.11 1016.05 1546.56 Q1014.24 1543 1010.61 1543 M1010.61 1539.29 Q1016.42 1539.29 1019.47 1543.9 Q1022.55 1548.48 1022.55 1557.23 Q1022.55 1565.96 1019.47 1570.57 Q1016.42 1575.15 1010.61 1575.15 Q1004.8 1575.15 1001.72 1570.57 Q998.662 1565.96 998.662 1557.23 Q998.662 1548.48 1001.72 1543.9 Q1004.8 1539.29 1010.61 1539.29 Z" fill="#000000" fill-rule="evenodd" fill-opacity="1" /><path clip-path="url(#clip870)" d="M 0 0 M1037.62 1543 Q1034.01 1543 1032.18 1546.56 Q1030.38 1550.11 1030.38 1557.23 Q1030.38 1564.34 1032.18 1567.91 Q1034.01 1571.45 1037.62 1571.45 Q1041.25 1571.45 1043.06 1567.91 Q1044.89 1564.34 1044.89 1557.23 Q1044.89 1550.11 1043.06 1546.56 Q1041.25 1543 1037.62 1543 M1037.62 1539.29 Q1043.43 1539.29 1046.49 1543.9 Q1049.56 1548.48 1049.56 1557.23 Q1049.56 1565.96 1046.49 1570.57 Q1043.43 1575.15 1037.62 1575.15 Q1031.81 1575.15 1028.73 1570.57 Q1025.68 1565.96 1025.68 1557.23 Q1025.68 1548.48 1028.73 1543.9 Q1031.81 1539.29 1037.62 1539.29 Z" fill="#000000" fill-rule="evenodd" fill-opacity="1" /><path clip-path="url(#clip870)" d="M 0 0 M1054.68 1539.92 L1073.04 1539.92 L1073.04 1543.86 L1058.96 1543.86 L1058.96 1552.33 Q1059.98 1551.98 1061 1551.82 Q1062.02 1551.63 1063.04 1551.63 Q1068.82 1551.63 1072.2 1554.8 Q1075.58 1557.98 1075.58 1563.39 Q1075.58 1568.97 1072.11 1572.07 Q1068.64 1575.15 1062.32 1575.15 Q1060.14 1575.15 1057.87 1574.78 Q1055.63 1574.41 1053.22 1573.67 L1053.22 1568.97 Q1055.31 1570.1 1057.53 1570.66 Q1059.75 1571.22 1062.23 1571.22 Q1066.23 1571.22 1068.57 1569.11 Q1070.91 1567 1070.91 1563.39 Q1070.91 1559.78 1068.57 1557.67 Q1066.23 1555.57 1062.23 1555.57 Q1060.35 1555.57 1058.48 1555.98 Q1056.62 1556.4 1054.68 1557.28 L1054.68 1539.92 Z" fill="#000000" fill-rule="evenodd" fill-opacity="1" /><path clip-path="url(#clip870)" d="M 0 0 M1277.07 1543 Q1273.46 1543 1271.63 1546.56 Q1269.83 1550.11 1269.83 1557.23 Q1269.83 1564.34 1271.63 1567.91 Q1273.46 1571.45 1277.07 1571.45 Q1280.71 1571.45 1282.51 1567.91 Q1284.34 1564.34 1284.34 1557.23 Q1284.34 1550.11 1282.51 1546.56 Q1280.71 1543 1277.07 1543 M1277.07 1539.29 Q1282.88 1539.29 1285.94 1543.9 Q1289.02 1548.48 1289.02 1557.23 Q1289.02 1565.96 1285.94 1570.57 Q1282.88 1575.15 1277.07 1575.15 Q1271.26 1575.15 1268.18 1570.57 Q1265.13 1565.96 1265.13 1557.23 Q1265.13 1548.48 1268.18 1543.9 Q1271.26 1539.29 1277.07 1539.29 Z" fill="#000000" fill-rule="evenodd" fill-opacity="1" /><path clip-path="url(#clip870)" d="M 0 0 M1294.09 1568.6 L1298.97 1568.6 L1298.97 1574.48 L1294.09 1574.48 L1294.09 1568.6 Z" fill="#000000" fill-rule="evenodd" fill-opacity="1" /><path clip-path="url(#clip870)" d="M 0 0 M1314.04 1543 Q1310.43 1543 1308.6 1546.56 Q1306.79 1550.11 1306.79 1557.23 Q1306.79 1564.34 1308.6 1567.91 Q1310.43 1571.45 1314.04 1571.45 Q1317.67 1571.45 1319.48 1567.91 Q1321.31 1564.34 1321.31 1557.23 Q1321.31 1550.11 1319.48 1546.56 Q1317.67 1543 1314.04 1543 M1314.04 1539.29 Q1319.85 1539.29 1322.9 1543.9 Q1325.98 1548.48 1325.98 1557.23 Q1325.98 1565.96 1322.9 1570.57 Q1319.85 1575.15 1314.04 1575.15 Q1308.23 1575.15 1305.15 1570.57 Q1302.09 1565.96 1302.09 1557.23 Q1302.09 1548.48 1305.15 1543.9 Q1308.23 1539.29 1314.04 1539.29 Z" fill="#000000" fill-rule="evenodd" fill-opacity="1" /><path clip-path="url(#clip870)" d="M 0 0 M1341.05 1543 Q1337.44 1543 1335.61 1546.56 Q1333.81 1550.11 1333.81 1557.23 Q1333.81 1564.34 1335.61 1567.91 Q1337.44 1571.45 1341.05 1571.45 Q1344.69 1571.45 1346.49 1567.91 Q1348.32 1564.34 1348.32 1557.23 Q1348.32 1550.11 1346.49 1546.56 Q1344.69 1543 1341.05 1543 M1341.05 1539.29 Q1346.86 1539.29 1349.92 1543.9 Q1353 1548.48 1353 1557.23 Q1353 1565.96 1349.92 1570.57 Q1346.86 1575.15 1341.05 1575.15 Q1335.24 1575.15 1332.16 1570.57 Q1329.11 1565.96 1329.11 1557.23 Q1329.11 1548.48 1332.16 1543.9 Q1335.24 1539.29 1341.05 1539.29 Z" fill="#000000" fill-rule="evenodd" fill-opacity="1" /><path clip-path="url(#clip870)" d="M 0 0 M1368.07 1543 Q1364.46 1543 1362.63 1546.56 Q1360.82 1550.11 1360.82 1557.23 Q1360.82 1564.34 1362.63 1567.91 Q1364.46 1571.45 1368.07 1571.45 Q1371.7 1571.45 1373.51 1567.91 Q1375.33 1564.34 1375.33 1557.23 Q1375.33 1550.11 1373.51 1546.56 Q1371.7 1543 1368.07 1543 M1368.07 1539.29 Q1373.88 1539.29 1376.93 1543.9 Q1380.01 1548.48 1380.01 1557.23 Q1380.01 1565.96 1376.93 1570.57 Q1373.88 1575.15 1368.07 1575.15 Q1362.26 1575.15 1359.18 1570.57 Q1356.12 1565.96 1356.12 1557.23 Q1356.12 1548.48 1359.18 1543.9 Q1362.26 1539.29 1368.07 1539.29 Z" fill="#000000" fill-rule="evenodd" fill-opacity="1" /><path clip-path="url(#clip870)" d="M 0 0 M1589.3 1543 Q1585.69 1543 1583.86 1546.56 Q1582.05 1550.11 1582.05 1557.23 Q1582.05 1564.34 1583.86 1567.91 Q1585.69 1571.45 1589.3 1571.45 Q1592.93 1571.45 1594.74 1567.91 Q1596.57 1564.34 1596.57 1557.23 Q1596.57 1550.11 1594.74 1546.56 Q1592.93 1543 1589.3 1543 M1589.3 1539.29 Q1595.11 1539.29 1598.17 1543.9 Q1601.24 1548.48 1601.24 1557.23 Q1601.24 1565.96 1598.17 1570.57 Q1595.11 1575.15 1589.3 1575.15 Q1583.49 1575.15 1580.41 1570.57 Q1577.36 1565.96 1577.36 1557.23 Q1577.36 1548.48 1580.41 1543.9 Q1583.49 1539.29 1589.3 1539.29 Z" fill="#000000" fill-rule="evenodd" fill-opacity="1" /><path clip-path="url(#clip870)" d="M 0 0 M1606.31 1568.6 L1611.2 1568.6 L1611.2 1574.48 L1606.31 1574.48 L1606.31 1568.6 Z" fill="#000000" fill-rule="evenodd" fill-opacity="1" /><path clip-path="url(#clip870)" d="M 0 0 M1626.27 1543 Q1622.66 1543 1620.83 1546.56 Q1619.02 1550.11 1619.02 1557.23 Q1619.02 1564.34 1620.83 1567.91 Q1622.66 1571.45 1626.27 1571.45 Q1629.9 1571.45 1631.71 1567.91 Q1633.54 1564.34 1633.54 1557.23 Q1633.54 1550.11 1631.71 1546.56 Q1629.9 1543 1626.27 1543 M1626.27 1539.29 Q1632.08 1539.29 1635.13 1543.9 Q1638.21 1548.48 1638.21 1557.23 Q1638.21 1565.96 1635.13 1570.57 Q1632.08 1575.15 1626.27 1575.15 Q1620.46 1575.15 1617.38 1570.57 Q1614.32 1565.96 1614.32 1557.23 Q1614.32 1548.48 1617.38 1543.9 Q1620.46 1539.29 1626.27 1539.29 Z" fill="#000000" fill-rule="evenodd" fill-opacity="1" /><path clip-path="url(#clip870)" d="M 0 0 M1653.28 1543 Q1649.67 1543 1647.84 1546.56 Q1646.04 1550.11 1646.04 1557.23 Q1646.04 1564.34 1647.84 1567.91 Q1649.67 1571.45 1653.28 1571.45 Q1656.92 1571.45 1658.72 1567.91 Q1660.55 1564.34 1660.55 1557.23 Q1660.55 1550.11 1658.72 1546.56 Q1656.92 1543 1653.28 1543 M1653.28 1539.29 Q1659.09 1539.29 1662.15 1543.9 Q1665.23 1548.48 1665.23 1557.23 Q1665.23 1565.96 1662.15 1570.57 Q1659.09 1575.15 1653.28 1575.15 Q1647.47 1575.15 1644.39 1570.57 Q1641.34 1565.96 1641.34 1557.23 Q1641.34 1548.48 1644.39 1543.9 Q1647.47 1539.29 1653.28 1539.29 Z" fill="#000000" fill-rule="evenodd" fill-opacity="1" /><path clip-path="url(#clip870)" d="M 0 0 M1670.34 1539.92 L1688.7 1539.92 L1688.7 1543.86 L1674.62 1543.86 L1674.62 1552.33 Q1675.64 1551.98 1676.66 1551.82 Q1677.68 1551.63 1678.7 1551.63 Q1684.48 1551.63 1687.86 1554.8 Q1691.24 1557.98 1691.24 1563.39 Q1691.24 1568.97 1687.77 1572.07 Q1684.3 1575.15 1677.98 1575.15 Q1675.8 1575.15 1673.54 1574.78 Q1671.29 1574.41 1668.88 1573.67 L1668.88 1568.97 Q1670.97 1570.1 1673.19 1570.66 Q1675.41 1571.22 1677.89 1571.22 Q1681.89 1571.22 1684.23 1569.11 Q1686.57 1567 1686.57 1563.39 Q1686.57 1559.78 1684.23 1557.67 Q1681.89 1555.57 1677.89 1555.57 Q1676.01 1555.57 1674.14 1555.98 Q1672.29 1556.4 1670.34 1557.28 L1670.34 1539.92 Z" fill="#000000" fill-rule="evenodd" fill-opacity="1" /><path clip-path="url(#clip870)" d="M 0 0 M1901.15 1543 Q1897.54 1543 1895.71 1546.56 Q1893.9 1550.11 1893.9 1557.23 Q1893.9 1564.34 1895.71 1567.91 Q1897.54 1571.45 1901.15 1571.45 Q1904.78 1571.45 1906.59 1567.91 Q1908.42 1564.34 1908.42 1557.23 Q1908.42 1550.11 1906.59 1546.56 Q1904.78 1543 1901.15 1543 M1901.15 1539.29 Q1906.96 1539.29 1910.01 1543.9 Q1913.09 1548.48 1913.09 1557.23 Q1913.09 1565.96 1910.01 1570.57 Q1906.96 1575.15 1901.15 1575.15 Q1895.34 1575.15 1892.26 1570.57 Q1889.2 1565.96 1889.2 1557.23 Q1889.2 1548.48 1892.26 1543.9 Q1895.34 1539.29 1901.15 1539.29 Z" fill="#000000" fill-rule="evenodd" fill-opacity="1" /><path clip-path="url(#clip870)" d="M 0 0 M1918.16 1568.6 L1923.04 1568.6 L1923.04 1574.48 L1918.16 1574.48 L1918.16 1568.6 Z" fill="#000000" fill-rule="evenodd" fill-opacity="1" /><path clip-path="url(#clip870)" d="M 0 0 M1938.11 1543 Q1934.5 1543 1932.67 1546.56 Q1930.87 1550.11 1930.87 1557.23 Q1930.87 1564.34 1932.67 1567.91 Q1934.5 1571.45 1938.11 1571.45 Q1941.75 1571.45 1943.55 1567.91 Q1945.38 1564.34 1945.38 1557.23 Q1945.38 1550.11 1943.55 1546.56 Q1941.75 1543 1938.11 1543 M1938.11 1539.29 Q1943.92 1539.29 1946.98 1543.9 Q1950.06 1548.48 1950.06 1557.23 Q1950.06 1565.96 1946.98 1570.57 Q1943.92 1575.15 1938.11 1575.15 Q1932.3 1575.15 1929.23 1570.57 Q1926.17 1565.96 1926.17 1557.23 Q1926.17 1548.48 1929.23 1543.9 Q1932.3 1539.29 1938.11 1539.29 Z" fill="#000000" fill-rule="evenodd" fill-opacity="1" /><path clip-path="url(#clip870)" d="M 0 0 M1955.94 1570.54 L1963.58 1570.54 L1963.58 1544.18 L1955.27 1545.85 L1955.27 1541.59 L1963.53 1539.92 L1968.21 1539.92 L1968.21 1570.54 L1975.85 1570.54 L1975.85 1574.48 L1955.94 1574.48 L1955.94 1570.54 Z" fill="#000000" fill-rule="evenodd" fill-opacity="1" /><path clip-path="url(#clip870)" d="M 0 0 M1990.91 1543 Q1987.3 1543 1985.47 1546.56 Q1983.67 1550.11 1983.67 1557.23 Q1983.67 1564.34 1985.47 1567.91 Q1987.3 1571.45 1990.91 1571.45 Q1994.55 1571.45 1996.35 1567.91 Q1998.18 1564.34 1998.18 1557.23 Q1998.18 1550.11 1996.35 1546.56 Q1994.55 1543 1990.91 1543 M1990.91 1539.29 Q1996.72 1539.29 1999.78 1543.9 Q2002.86 1548.48 2002.86 1557.23 Q2002.86 1565.96 1999.78 1570.57 Q1996.72 1575.15 1990.91 1575.15 Q1985.1 1575.15 1982.03 1570.57 Q1978.97 1565.96 1978.97 1557.23 Q1978.97 1548.48 1982.03 1543.9 Q1985.1 1539.29 1990.91 1539.29 Z" fill="#000000" fill-rule="evenodd" fill-opacity="1" /><path clip-path="url(#clip870)" d="M 0 0 M2213.38 1543 Q2209.76 1543 2207.94 1546.56 Q2206.13 1550.11 2206.13 1557.23 Q2206.13 1564.34 2207.94 1567.91 Q2209.76 1571.45 2213.38 1571.45 Q2217.01 1571.45 2218.81 1567.91 Q2220.64 1564.34 2220.64 1557.23 Q2220.64 1550.11 2218.81 1546.56 Q2217.01 1543 2213.38 1543 M2213.38 1539.29 Q2219.19 1539.29 2222.24 1543.9 Q2225.32 1548.48 2225.32 1557.23 Q2225.32 1565.96 2222.24 1570.57 Q2219.19 1575.15 2213.38 1575.15 Q2207.56 1575.15 2204.49 1570.57 Q2201.43 1565.96 2201.43 1557.23 Q2201.43 1548.48 2204.49 1543.9 Q2207.56 1539.29 2213.38 1539.29 Z" fill="#000000" fill-rule="evenodd" fill-opacity="1" /><path clip-path="url(#clip870)" d="M 0 0 M2230.39 1568.6 L2235.27 1568.6 L2235.27 1574.48 L2230.39 1574.48 L2230.39 1568.6 Z" fill="#000000" fill-rule="evenodd" fill-opacity="1" /><path clip-path="url(#clip870)" d="M 0 0 M2250.34 1543 Q2246.73 1543 2244.9 1546.56 Q2243.1 1550.11 2243.1 1557.23 Q2243.1 1564.34 2244.9 1567.91 Q2246.73 1571.45 2250.34 1571.45 Q2253.98 1571.45 2255.78 1567.91 Q2257.61 1564.34 2257.61 1557.23 Q2257.61 1550.11 2255.78 1546.56 Q2253.98 1543 2250.34 1543 M2250.34 1539.29 Q2256.15 1539.29 2259.21 1543.9 Q2262.29 1548.48 2262.29 1557.23 Q2262.29 1565.96 2259.21 1570.57 Q2256.15 1575.15 2250.34 1575.15 Q2244.53 1575.15 2241.45 1570.57 Q2238.4 1565.96 2238.4 1557.23 Q2238.4 1548.48 2241.45 1543.9 Q2244.53 1539.29 2250.34 1539.29 Z" fill="#000000" fill-rule="evenodd" fill-opacity="1" /><path clip-path="url(#clip870)" d="M 0 0 M2268.17 1570.54 L2275.81 1570.54 L2275.81 1544.18 L2267.5 1545.85 L2267.5 1541.59 L2275.76 1539.92 L2280.43 1539.92 L2280.43 1570.54 L2288.07 1570.54 L2288.07 1574.48 L2268.17 1574.48 L2268.17 1570.54 Z" fill="#000000" fill-rule="evenodd" fill-opacity="1" /><path clip-path="url(#clip870)" d="M 0 0 M2293.19 1539.92 L2311.55 1539.92 L2311.55 1543.86 L2297.47 1543.86 L2297.47 1552.33 Q2298.49 1551.98 2299.51 1551.82 Q2300.53 1551.63 2301.55 1551.63 Q2307.33 1551.63 2310.71 1554.8 Q2314.09 1557.98 2314.09 1563.39 Q2314.09 1568.97 2310.62 1572.07 Q2307.15 1575.15 2300.83 1575.15 Q2298.65 1575.15 2296.38 1574.78 Q2294.14 1574.41 2291.73 1573.67 L2291.73 1568.97 Q2293.81 1570.1 2296.04 1570.66 Q2298.26 1571.22 2300.74 1571.22 Q2304.74 1571.22 2307.08 1569.11 Q2309.42 1567 2309.42 1563.39 Q2309.42 1559.78 2307.08 1557.67 Q2304.74 1555.57 2300.74 1555.57 Q2298.86 1555.57 2296.99 1555.98 Q2295.13 1556.4 2293.19 1557.28 L2293.19 1539.92 Z" fill="#000000" fill-rule="evenodd" fill-opacity="1" /><path clip-path="url(#clip870)" d="M 0 0 M51.0477 1465.1 Q47.4367 1465.1 45.608 1468.66 Q43.8024 1472.2 43.8024 1479.33 Q43.8024 1486.44 45.608 1490 Q47.4367 1493.55 51.0477 1493.55 Q54.682 1493.55 56.4875 1490 Q58.3162 1486.44 58.3162 1479.33 Q58.3162 1472.2 56.4875 1468.66 Q54.682 1465.1 51.0477 1465.1 M51.0477 1461.39 Q56.8579 1461.39 59.9134 1466 Q62.9921 1470.58 62.9921 1479.33 Q62.9921 1488.06 59.9134 1492.67 Q56.8579 1497.25 51.0477 1497.25 Q45.2376 1497.25 42.1589 1492.67 Q39.1034 1488.06 39.1034 1479.33 Q39.1034 1470.58 42.1589 1466 Q45.2376 1461.39 51.0477 1461.39 Z" fill="#000000" fill-rule="evenodd" fill-opacity="1" /><path clip-path="url(#clip870)" d="M 0 0 M16.0711 1209.21 L23.7099 1209.21 L23.7099 1182.84 L15.3998 1184.51 L15.3998 1180.25 L23.6636 1178.58 L28.3395 1178.58 L28.3395 1209.21 L35.9784 1209.21 L35.9784 1213.14 L16.0711 1213.14 L16.0711 1209.21 Z" fill="#000000" fill-rule="evenodd" fill-opacity="1" /><path clip-path="url(#clip870)" d="M 0 0 M51.0477 1181.66 Q47.4367 1181.66 45.608 1185.23 Q43.8024 1188.77 43.8024 1195.9 Q43.8024 1203 45.608 1206.57 Q47.4367 1210.11 51.0477 1210.11 Q54.682 1210.11 56.4875 1206.57 Q58.3162 1203 58.3162 1195.9 Q58.3162 1188.77 56.4875 1185.23 Q54.682 1181.66 51.0477 1181.66 M51.0477 1177.96 Q56.8579 1177.96 59.9134 1182.56 Q62.9921 1187.15 62.9921 1195.9 Q62.9921 1204.62 59.9134 1209.23 Q56.8579 1213.81 51.0477 1213.81 Q45.2376 1213.81 42.1589 1209.23 Q39.1034 1204.62 39.1034 1195.9 Q39.1034 1187.15 42.1589 1182.56 Q45.2376 1177.96 51.0477 1177.96 Z" fill="#000000" fill-rule="evenodd" fill-opacity="1" /><path clip-path="url(#clip870)" d="M 0 0 M19.659 925.771 L35.9784 925.771 L35.9784 929.706 L14.0341 929.706 L14.0341 925.771 Q16.6961 923.017 21.2794 918.387 Q25.8858 913.734 27.0664 912.392 Q29.3118 909.868 30.1914 908.132 Q31.0941 906.373 31.0941 904.683 Q31.0941 901.929 29.1497 900.193 Q27.2284 898.457 24.1266 898.457 Q21.9275 898.457 19.4738 899.22 Q17.0433 899.984 14.2655 901.535 L14.2655 896.813 Q17.0896 895.679 19.5433 895.1 Q21.997 894.521 24.034 894.521 Q29.4043 894.521 32.5988 897.207 Q35.7932 899.892 35.7932 904.382 Q35.7932 906.512 34.983 908.433 Q34.196 910.331 32.0895 912.924 Q31.5108 913.595 28.409 916.813 Q25.3071 920.007 19.659 925.771 Z" fill="#000000" fill-rule="evenodd" fill-opacity="1" /><path clip-path="url(#clip870)" d="M 0 0 M51.0477 898.225 Q47.4367 898.225 45.608 901.79 Q43.8024 905.331 43.8024 912.461 Q43.8024 919.568 45.608 923.132 Q47.4367 926.674 51.0477 926.674 Q54.682 926.674 56.4875 923.132 Q58.3162 919.568 58.3162 912.461 Q58.3162 905.331 56.4875 901.79 Q54.682 898.225 51.0477 898.225 M51.0477 894.521 Q56.8579 894.521 59.9134 899.128 Q62.9921 903.711 62.9921 912.461 Q62.9921 921.188 59.9134 925.794 Q56.8579 930.378 51.0477 930.378 Q45.2376 930.378 42.1589 925.794 Q39.1034 921.188 39.1034 912.461 Q39.1034 903.711 42.1589 899.128 Q45.2376 894.521 51.0477 894.521 Z" fill="#000000" fill-rule="evenodd" fill-opacity="1" /><path clip-path="url(#clip870)" d="M 0 0 M28.8488 627.637 Q32.2053 628.354 34.0802 630.623 Q35.9784 632.891 35.9784 636.224 Q35.9784 641.34 32.4599 644.141 Q28.9414 646.942 22.4599 646.942 Q20.284 646.942 17.9692 646.502 Q15.6776 646.086 13.2239 645.229 L13.2239 640.715 Q15.1683 641.849 17.4831 642.428 Q19.7979 643.007 22.321 643.007 Q26.7192 643.007 29.0108 641.271 Q31.3256 639.535 31.3256 636.224 Q31.3256 633.169 29.1729 631.456 Q27.0432 629.72 23.2238 629.72 L19.1961 629.72 L19.1961 625.877 L23.409 625.877 Q26.8581 625.877 28.6868 624.512 Q30.5154 623.123 30.5154 620.53 Q30.5154 617.868 28.6173 616.456 Q26.7423 615.021 23.2238 615.021 Q21.3025 615.021 19.1035 615.438 Q16.9044 615.854 14.2655 616.734 L14.2655 612.567 Q16.9276 611.826 19.2424 611.456 Q21.5803 611.086 23.6405 611.086 Q28.9645 611.086 32.0664 613.516 Q35.1682 615.924 35.1682 620.044 Q35.1682 622.914 33.5247 624.905 Q31.8812 626.873 28.8488 627.637 Z" fill="#000000" fill-rule="evenodd" fill-opacity="1" /><path clip-path="url(#clip870)" d="M 0 0 M51.0477 614.789 Q47.4367 614.789 45.608 618.354 Q43.8024 621.896 43.8024 629.025 Q43.8024 636.132 45.608 639.697 Q47.4367 643.238 51.0477 643.238 Q54.682 643.238 56.4875 639.697 Q58.3162 636.132 58.3162 629.025 Q58.3162 621.896 56.4875 618.354 Q54.682 614.789 51.0477 614.789 M51.0477 611.086 Q56.8579 611.086 59.9134 615.692 Q62.9921 620.276 62.9921 629.025 Q62.9921 637.752 59.9134 642.359 Q56.8579 646.942 51.0477 646.942 Q45.2376 646.942 42.1589 642.359 Q39.1034 637.752 39.1034 629.025 Q39.1034 620.276 42.1589 615.692 Q45.2376 611.086 51.0477 611.086 Z" fill="#000000" fill-rule="evenodd" fill-opacity="1" /><path clip-path="url(#clip870)" d="M 0 0 M26.3951 332.349 L14.5896 350.798 L26.3951 350.798 L26.3951 332.349 M25.1683 328.275 L31.0479 328.275 L31.0479 350.798 L35.9784 350.798 L35.9784 354.687 L31.0479 354.687 L31.0479 362.835 L26.3951 362.835 L26.3951 354.687 L10.7933 354.687 L10.7933 350.173 L25.1683 328.275 Z" fill="#000000" fill-rule="evenodd" fill-opacity="1" /><path clip-path="url(#clip870)" d="M 0 0 M51.0477 331.354 Q47.4367 331.354 45.608 334.919 Q43.8024 338.46 43.8024 345.59 Q43.8024 352.696 45.608 356.261 Q47.4367 359.803 51.0477 359.803 Q54.682 359.803 56.4875 356.261 Q58.3162 352.696 58.3162 345.59 Q58.3162 338.46 56.4875 334.919 Q54.682 331.354 51.0477 331.354 M51.0477 327.65 Q56.8579 327.65 59.9134 332.257 Q62.9921 336.84 62.9921 345.59 Q62.9921 354.317 59.9134 358.923 Q56.8579 363.506 51.0477 363.506 Q45.2376 363.506 42.1589 358.923 Q39.1034 354.317 39.1034 345.59 Q39.1034 336.84 42.1589 332.257 Q45.2376 327.65 51.0477 327.65 Z" fill="#000000" fill-rule="evenodd" fill-opacity="1" /><path clip-path="url(#clip870)" d="M 0 0 M15.0757 44.8395 L33.4321 44.8395 L33.4321 48.7747 L19.3581 48.7747 L19.3581 57.2469 Q20.3766 56.8996 21.3951 56.7376 Q22.4136 56.5524 23.4322 56.5524 Q29.2192 56.5524 32.5988 59.7237 Q35.9784 62.895 35.9784 68.3116 Q35.9784 73.8903 32.5062 76.9921 Q29.034 80.0708 22.7146 80.0708 Q20.5386 80.0708 18.2701 79.7004 Q16.0248 79.3301 13.6174 78.5893 L13.6174 73.8903 Q15.7007 75.0245 17.9229 75.5801 Q20.1451 76.1356 22.622 76.1356 Q26.6266 76.1356 28.9645 74.0292 Q31.3025 71.9227 31.3025 68.3116 Q31.3025 64.7005 28.9645 62.594 Q26.6266 60.4876 22.622 60.4876 Q20.747 60.4876 18.872 60.9042 Q17.0202 61.3209 15.0757 62.2005 L15.0757 44.8395 Z" fill="#000000" fill-rule="evenodd" fill-opacity="1" /><path clip-path="url(#clip870)" d="M 0 0 M51.0477 47.9182 Q47.4367 47.9182 45.608 51.483 Q43.8024 55.0246 43.8024 62.1542 Q43.8024 69.2607 45.608 72.8255 Q47.4367 76.3671 51.0477 76.3671 Q54.682 76.3671 56.4875 72.8255 Q58.3162 69.2607 58.3162 62.1542 Q58.3162 55.0246 56.4875 51.483 Q54.682 47.9182 51.0477 47.9182 M51.0477 44.2145 Q56.8579 44.2145 59.9134 48.821 Q62.9921 53.4043 62.9921 62.1542 Q62.9921 70.881 59.9134 75.4875 Q56.8579 80.0708 51.0477 80.0708 Q45.2376 80.0708 42.1589 75.4875 Q39.1034 70.881 39.1034 62.1542 Q39.1034 53.4043 42.1589 48.821 Q45.2376 44.2145 51.0477 44.2145 Z" fill="#000000" fill-rule="evenodd" fill-opacity="1" /><path clip-path="url(#clip872)" d="
M151.118 1474.36 L155.963 1474.09 L160.809 1473.81 L165.655 1473.51 L170.501 1473.19 L175.346 1472.85 L180.192 1472.47 L185.038 1472.06 L189.884 1471.6 L194.729 1471.09 
  L199.575 1470.52 L204.421 1469.87 L209.267 1469.15 L214.112 1468.34 L218.958 1467.42 L223.804 1466.4 L228.65 1465.26 L233.496 1463.98 L238.341 1462.57 L243.187 1461.01 
  L248.033 1459.29 L252.879 1457.41 L257.724 1455.35 L262.57 1453.12 L267.416 1450.71 L272.262 1448.12 L277.107 1445.35 L281.953 1442.41 L286.799 1439.3 L291.645 1436.03 
  L296.491 1432.61 L301.336 1429.06 L306.182 1425.38 L311.028 1421.6 L315.874 1417.74 L320.719 1413.8 L325.565 1409.82 L330.411 1405.8 L335.257 1401.76 L340.102 1397.71 
  L344.948 1393.67 L349.794 1389.64 L354.64 1385.63 L359.486 1381.62 L364.331 1377.63 L369.177 1373.64 L374.023 1369.63 L378.869 1365.6 L383.714 1361.51 L388.56 1357.34 
  L393.406 1353.07 L398.252 1348.67 L403.097 1344.1 L407.943 1339.34 L412.789 1334.35 L417.635 1329.11 L422.48 1323.57 L427.326 1317.72 L432.172 1311.51 L437.018 1304.94 
  L441.864 1297.98 L446.709 1290.6 L451.555 1282.8 L456.401 1274.55 L461.247 1265.85 L466.092 1256.69 L470.938 1247.07 L475.784 1236.99 L480.63 1226.46 L485.475 1215.48 
  L490.321 1204.07 L495.167 1192.24 L500.013 1180.02 L504.859 1167.43 L509.704 1154.49 L514.55 1141.23 L519.396 1127.68 L524.242 1113.87 L529.087 1099.85 L533.933 1085.64 
  L538.779 1071.27 L543.625 1056.8 L548.47 1042.25 L553.316 1027.66 L558.162 1013.06 L563.008 998.507 L567.854 984.023 L572.699 969.649 L577.545 955.422 L582.391 941.377 
  L587.237 927.552 L592.082 913.981 L596.928 900.698 L601.774 887.735 L606.62 875.125 L611.465 862.893 L616.311 851.066 L621.157 839.664 L626.003 828.704 L630.848 818.197 
  L630.848 1479.3 L626.003 1479.3 L621.157 1479.3 L616.311 1479.3 L611.465 1479.3 L606.62 1479.3 L601.774 1479.3 L596.928 1479.3 L592.082 1479.3 L587.237 1479.3 
  L582.391 1479.3 L577.545 1479.3 L572.699 1479.3 L567.854 1479.3 L563.008 1479.3 L558.162 1479.3 L553.316 1479.3 L548.47 1479.3 L543.625 1479.3 L538.779 1479.3 
  L533.933 1479.3 L529.087 1479.3 L524.242 1479.3 L519.396 1479.3 L514.55 1479.3 L509.704 1479.3 L504.859 1479.3 L500.013 1479.3 L495.167 1479.3 L490.321 1479.3 
  L485.475 1479.3 L480.63 1479.3 L475.784 1479.3 L470.938 1479.3 L466.092 1479.3 L461.247 1479.3 L456.401 1479.3 L451.555 1479.3 L446.709 1479.3 L441.864 1479.3 
  L437.018 1479.3 L432.172 1479.3 L427.326 1479.3 L422.48 1479.3 L417.635 1479.3 L412.789 1479.3 L407.943 1479.3 L403.097 1479.3 L398.252 1479.3 L393.406 1479.3 
  L388.56 1479.3 L383.714 1479.3 L378.869 1479.3 L374.023 1479.3 L369.177 1479.3 L364.331 1479.3 L359.486 1479.3 L354.64 1479.3 L349.794 1479.3 L344.948 1479.3 
  L340.102 1479.3 L335.257 1479.3 L330.411 1479.3 L325.565 1479.3 L320.719 1479.3 L315.874 1479.3 L311.028 1479.3 L306.182 1479.3 L301.336 1479.3 L296.491 1479.3 
  L291.645 1479.3 L286.799 1479.3 L281.953 1479.3 L277.107 1479.3 L272.262 1479.3 L267.416 1479.3 L262.57 1479.3 L257.724 1479.3 L252.879 1479.3 L248.033 1479.3 
  L243.187 1479.3 L238.341 1479.3 L233.496 1479.3 L228.65 1479.3 L223.804 1479.3 L218.958 1479.3 L214.112 1479.3 L209.267 1479.3 L204.421 1479.3 L199.575 1479.3 
  L194.729 1479.3 L189.884 1479.3 L185.038 1479.3 L180.192 1479.3 L175.346 1479.3 L170.501 1479.3 L165.655 1479.3 L160.809 1479.3 L155.963 1479.3 L151.118 1479.3 
   Z
  " fill="#ffa500" fill-rule="evenodd" fill-opacity="0.5"/>
<polyline clip-path="url(#clip872)" style="stroke:#ffa500; stroke-width:4; stroke-opacity:1; fill:none" points="
  151.118,1474.36 155.963,1474.09 160.809,1473.81 165.655,1473.51 170.501,1473.19 175.346,1472.85 180.192,1472.47 185.038,1472.06 189.884,1471.6 194.729,1471.09 
  199.575,1470.52 204.421,1469.87 209.267,1469.15 214.112,1468.34 218.958,1467.42 223.804,1466.4 228.65,1465.26 233.496,1463.98 238.341,1462.57 243.187,1461.01 
  248.033,1459.29 252.879,1457.41 257.724,1455.35 262.57,1453.12 267.416,1450.71 272.262,1448.12 277.107,1445.35 281.953,1442.41 286.799,1439.3 291.645,1436.03 
  296.491,1432.61 301.336,1429.06 306.182,1425.38 311.028,1421.6 315.874,1417.74 320.719,1413.8 325.565,1409.82 330.411,1405.8 335.257,1401.76 340.102,1397.71 
  344.948,1393.67 349.794,1389.64 354.64,1385.63 359.486,1381.62 364.331,1377.63 369.177,1373.64 374.023,1369.63 378.869,1365.6 383.714,1361.51 388.56,1357.34 
  393.406,1353.07 398.252,1348.67 403.097,1344.1 407.943,1339.34 412.789,1334.35 417.635,1329.11 422.48,1323.57 427.326,1317.72 432.172,1311.51 437.018,1304.94 
  441.864,1297.98 446.709,1290.6 451.555,1282.8 456.401,1274.55 461.247,1265.85 466.092,1256.69 470.938,1247.07 475.784,1236.99 480.63,1226.46 485.475,1215.48 
  490.321,1204.07 495.167,1192.24 500.013,1180.02 504.859,1167.43 509.704,1154.49 514.55,1141.23 519.396,1127.68 524.242,1113.87 529.087,1099.85 533.933,1085.64 
  538.779,1071.27 543.625,1056.8 548.47,1042.25 553.316,1027.66 558.162,1013.06 563.008,998.507 567.854,984.023 572.699,969.649 577.545,955.422 582.391,941.377 
  587.237,927.552 592.082,913.981 596.928,900.698 601.774,887.735 606.62,875.125 611.465,862.893 616.311,851.066 621.157,839.664 626.003,828.704 630.848,818.197 
  
  "/>
<path clip-path="url(#clip872)" d="
M630.848 818.197 L644.287 791.455 L657.725 768.092 L671.163 747.627 L684.602 729.305 L698.04 712.243 L711.478 695.601 L724.917 678.727 L738.355 661.227 L751.793 642.961 
  L765.232 623.967 L778.67 604.374 L792.108 584.307 L805.547 563.825 L818.985 542.874 L832.423 521.256 L845.862 498.615 L859.3 474.455 L872.738 448.198 L886.176 419.318 
  L899.615 387.52 L913.053 352.943 L926.491 316.322 L939.93 279.039 L953.368 243.044 L966.806 210.617 L980.245 184.012 L993.683 165.047 L1007.12 154.741 L1020.56 153.072 
  L1034 158.931 L1047.44 170.285 L1060.87 184.522 L1074.31 198.884 L1087.75 210.889 L1101.19 218.654 L1114.63 221.064 L1128.07 217.793 L1141.5 209.22 L1154.94 196.293 
  L1168.38 180.4 L1181.82 163.233 L1195.26 146.65 L1208.7 132.471 L1222.13 122.237 L1235.57 116.924 L1249.01 116.725 L1262.45 120.959 L1275.89 128.185 L1289.33 136.516 
  L1302.76 144.05 L1316.2 149.307 L1329.64 151.52 L1343.08 150.716 L1356.52 147.548 L1369.96 142.976 L1383.39 137.906 L1396.83 132.929 L1410.27 128.224 L1423.71 123.655 
  L1437.15 118.966 L1450.59 113.994 L1464.02 108.787 L1477.46 103.601 L1490.9 98.7938 L1504.34 94.7059 L1517.78 91.584 L1531.22 89.6021 L1544.65 88.9544 L1558.09 89.9556 
  L1571.53 93.0714 L1584.97 98.8325 L1598.41 107.644 L1611.85 119.558 L1625.28 134.122 L1638.72 150.378 L1652.16 167.059 L1665.6 182.919 L1679.04 197.102 L1692.48 209.387 
  L1705.91 220.235 L1719.35 230.596 L1732.79 241.566 L1746.23 254.002 L1759.67 268.244 L1773.11 284.049 L1786.54 300.732 L1799.98 317.478 L1813.42 333.695 L1826.86 349.303 
  L1840.3 364.855 L1853.74 381.463 L1867.17 400.566 L1880.61 423.625 L1894.05 451.839 L1907.49 485.971 L1920.93 526.294 L1934.37 572.641 L1947.8 624.479 L1961.24 680.972 
  L1961.24 1479.3 L1947.8 1479.3 L1934.37 1479.3 L1920.93 1479.3 L1907.49 1479.3 L1894.05 1479.3 L1880.61 1479.3 L1867.17 1479.3 L1853.74 1479.3 L1840.3 1479.3 
  L1826.86 1479.3 L1813.42 1479.3 L1799.98 1479.3 L1786.54 1479.3 L1773.11 1479.3 L1759.67 1479.3 L1746.23 1479.3 L1732.79 1479.3 L1719.35 1479.3 L1705.91 1479.3 
  L1692.48 1479.3 L1679.04 1479.3 L1665.6 1479.3 L1652.16 1479.3 L1638.72 1479.3 L1625.28 1479.3 L1611.85 1479.3 L1598.41 1479.3 L1584.97 1479.3 L1571.53 1479.3 
  L1558.09 1479.3 L1544.65 1479.3 L1531.22 1479.3 L1517.78 1479.3 L1504.34 1479.3 L1490.9 1479.3 L1477.46 1479.3 L1464.02 1479.3 L1450.59 1479.3 L1437.15 1479.3 
  L1423.71 1479.3 L1410.27 1479.3 L1396.83 1479.3 L1383.39 1479.3 L1369.96 1479.3 L1356.52 1479.3 L1343.08 1479.3 L1329.64 1479.3 L1316.2 1479.3 L1302.76 1479.3 
  L1289.33 1479.3 L1275.89 1479.3 L1262.45 1479.3 L1249.01 1479.3 L1235.57 1479.3 L1222.13 1479.3 L1208.7 1479.3 L1195.26 1479.3 L1181.82 1479.3 L1168.38 1479.3 
  L1154.94 1479.3 L1141.5 1479.3 L1128.07 1479.3 L1114.63 1479.3 L1101.19 1479.3 L1087.75 1479.3 L1074.31 1479.3 L1060.87 1479.3 L1047.44 1479.3 L1034 1479.3 
  L1020.56 1479.3 L1007.12 1479.3 L993.683 1479.3 L980.245 1479.3 L966.806 1479.3 L953.368 1479.3 L939.93 1479.3 L926.491 1479.3 L913.053 1479.3 L899.615 1479.3 
  L886.176 1479.3 L872.738 1479.3 L859.3 1479.3 L845.862 1479.3 L832.423 1479.3 L818.985 1479.3 L805.547 1479.3 L792.108 1479.3 L778.67 1479.3 L765.232 1479.3 
  L751.793 1479.3 L738.355 1479.3 L724.917 1479.3 L711.478 1479.3 L698.04 1479.3 L684.602 1479.3 L671.163 1479.3 L657.725 1479.3 L644.287 1479.3 L630.848 1479.3 
   Z
  " fill="#008000" fill-rule="evenodd" fill-opacity="0.5"/>
<polyline clip-path="url(#clip872)" style="stroke:#008000; stroke-width:4; stroke-opacity:1; fill:none" points="
  630.848,818.197 644.287,791.455 657.725,768.092 671.163,747.627 684.602,729.305 698.04,712.243 711.478,695.601 724.917,678.727 738.355,661.227 751.793,642.961 
  765.232,623.967 778.67,604.374 792.108,584.307 805.547,563.825 818.985,542.874 832.423,521.256 845.862,498.615 859.3,474.455 872.738,448.198 886.176,419.318 
  899.615,387.52 913.053,352.943 926.491,316.322 939.93,279.039 953.368,243.044 966.806,210.617 980.245,184.012 993.683,165.047 1007.12,154.741 1020.56,153.072 
  1034,158.931 1047.44,170.285 1060.87,184.522 1074.31,198.884 1087.75,210.889 1101.19,218.654 1114.63,221.064 1128.07,217.793 1141.5,209.22 1154.94,196.293 
  1168.38,180.4 1181.82,163.233 1195.26,146.65 1208.7,132.471 1222.13,122.237 1235.57,116.924 1249.01,116.725 1262.45,120.959 1275.89,128.185 1289.33,136.516 
  1302.76,144.05 1316.2,149.307 1329.64,151.52 1343.08,150.716 1356.52,147.548 1369.96,142.976 1383.39,137.906 1396.83,132.929 1410.27,128.224 1423.71,123.655 
  1437.15,118.966 1450.59,113.994 1464.02,108.787 1477.46,103.601 1490.9,98.7938 1504.34,94.7059 1517.78,91.584 1531.22,89.6021 1544.65,88.9544 1558.09,89.9556 
  1571.53,93.0714 1584.97,98.8325 1598.41,107.644 1611.85,119.558 1625.28,134.122 1638.72,150.378 1652.16,167.059 1665.6,182.919 1679.04,197.102 1692.48,209.387 
  1705.91,220.235 1719.35,230.596 1732.79,241.566 1746.23,254.002 1759.67,268.244 1773.11,284.049 1786.54,300.732 1799.98,317.478 1813.42,333.695 1826.86,349.303 
  1840.3,364.855 1853.74,381.463 1867.17,400.566 1880.61,423.625 1894.05,451.839 1907.49,485.971 1920.93,526.294 1934.37,572.641 1947.8,624.479 1961.24,680.972 
  
  "/>
<path clip-path="url(#clip872)" d="
M1961.24 680.972 L1964.55 695.464 L1967.86 710.152 L1971.16 725.013 L1974.47 740.027 L1977.78 755.171 L1981.08 770.42 L1984.39 785.749 L1987.7 801.133 L1991 816.546 
  L1994.31 831.959 L1997.62 847.345 L2000.93 862.676 L2004.23 877.924 L2007.54 893.062 L2010.85 908.061 L2014.15 922.895 L2017.46 937.538 L2020.77 951.964 L2024.07 966.15 
  L2027.38 980.075 L2030.69 993.717 L2033.99 1007.06 L2037.3 1020.08 L2040.61 1032.78 L2043.92 1045.13 L2047.22 1057.13 L2050.53 1068.78 L2053.84 1080.06 L2057.14 1090.98 
  L2060.45 1101.54 L2063.76 1111.75 L2067.06 1121.6 L2070.37 1131.11 L2073.68 1140.28 L2076.99 1149.14 L2080.29 1157.68 L2083.6 1165.94 L2086.91 1173.91 L2090.21 1181.62 
  L2093.52 1189.09 L2096.83 1196.33 L2100.13 1203.36 L2103.44 1210.19 L2106.75 1216.85 L2110.05 1223.35 L2113.36 1229.7 L2116.67 1235.92 L2119.98 1242.03 L2123.28 1248.03 
  L2126.59 1253.94 L2129.9 1259.77 L2133.2 1265.52 L2136.51 1271.2 L2139.82 1276.83 L2143.12 1282.39 L2146.43 1287.91 L2149.74 1293.38 L2153.05 1298.8 L2156.35 1304.17 
  L2159.66 1309.5 L2162.97 1314.78 L2166.27 1320.01 L2169.58 1325.19 L2172.89 1330.32 L2176.19 1335.38 L2179.5 1340.39 L2182.81 1345.33 L2186.11 1350.21 L2189.42 1355.01 
  L2192.73 1359.74 L2196.04 1364.39 L2199.34 1368.96 L2202.65 1373.44 L2205.96 1377.83 L2209.26 1382.14 L2212.57 1386.34 L2215.88 1390.46 L2219.18 1394.47 L2222.49 1398.38 
  L2225.8 1402.19 L2229.11 1405.89 L2232.41 1409.49 L2235.72 1412.98 L2239.03 1416.37 L2242.33 1419.64 L2245.64 1422.81 L2248.95 1425.88 L2252.25 1428.83 L2255.56 1431.68 
  L2258.87 1434.41 L2262.17 1437.05 L2265.48 1439.57 L2268.79 1442 L2272.1 1444.31 L2275.4 1446.53 L2278.71 1448.65 L2282.02 1450.67 L2285.32 1452.59 L2288.63 1454.42 
  L2288.63 1479.3 L2285.32 1479.3 L2282.02 1479.3 L2278.71 1479.3 L2275.4 1479.3 L2272.1 1479.3 L2268.79 1479.3 L2265.48 1479.3 L2262.17 1479.3 L2258.87 1479.3 
  L2255.56 1479.3 L2252.25 1479.3 L2248.95 1479.3 L2245.64 1479.3 L2242.33 1479.3 L2239.03 1479.3 L2235.72 1479.3 L2232.41 1479.3 L2229.11 1479.3 L2225.8 1479.3 
  L2222.49 1479.3 L2219.18 1479.3 L2215.88 1479.3 L2212.57 1479.3 L2209.26 1479.3 L2205.96 1479.3 L2202.65 1479.3 L2199.34 1479.3 L2196.04 1479.3 L2192.73 1479.3 
  L2189.42 1479.3 L2186.11 1479.3 L2182.81 1479.3 L2179.5 1479.3 L2176.19 1479.3 L2172.89 1479.3 L2169.58 1479.3 L2166.27 1479.3 L2162.97 1479.3 L2159.66 1479.3 
  L2156.35 1479.3 L2153.05 1479.3 L2149.74 1479.3 L2146.43 1479.3 L2143.12 1479.3 L2139.82 1479.3 L2136.51 1479.3 L2133.2 1479.3 L2129.9 1479.3 L2126.59 1479.3 
  L2123.28 1479.3 L2119.98 1479.3 L2116.67 1479.3 L2113.36 1479.3 L2110.05 1479.3 L2106.75 1479.3 L2103.44 1479.3 L2100.13 1479.3 L2096.83 1479.3 L2093.52 1479.3 
  L2090.21 1479.3 L2086.91 1479.3 L2083.6 1479.3 L2080.29 1479.3 L2076.99 1479.3 L2073.68 1479.3 L2070.37 1479.3 L2067.06 1479.3 L2063.76 1479.3 L2060.45 1479.3 
  L2057.14 1479.3 L2053.84 1479.3 L2050.53 1479.3 L2047.22 1479.3 L2043.92 1479.3 L2040.61 1479.3 L2037.3 1479.3 L2033.99 1479.3 L2030.69 1479.3 L2027.38 1479.3 
  L2024.07 1479.3 L2020.77 1479.3 L2017.46 1479.3 L2014.15 1479.3 L2010.85 1479.3 L2007.54 1479.3 L2004.23 1479.3 L2000.93 1479.3 L1997.62 1479.3 L1994.31 1479.3 
  L1991 1479.3 L1987.7 1479.3 L1984.39 1479.3 L1981.08 1479.3 L1977.78 1479.3 L1974.47 1479.3 L1971.16 1479.3 L1967.86 1479.3 L1964.55 1479.3 L1961.24 1479.3 
   Z
  " fill="#ffa500" fill-rule="evenodd" fill-opacity="0.5"/>
<polyline clip-path="url(#clip872)" style="stroke:#ffa500; stroke-width:4; stroke-opacity:1; fill:none" points="
  1961.24,680.972 1964.55,695.464 1967.86,710.152 1971.16,725.013 1974.47,740.027 1977.78,755.171 1981.08,770.42 1984.39,785.749 1987.7,801.133 1991,816.546 
  1994.31,831.959 1997.62,847.345 2000.93,862.676 2004.23,877.924 2007.54,893.062 2010.85,908.061 2014.15,922.895 2017.46,937.538 2020.77,951.964 2024.07,966.15 
  2027.38,980.075 2030.69,993.717 2033.99,1007.06 2037.3,1020.08 2040.61,1032.78 2043.92,1045.13 2047.22,1057.13 2050.53,1068.78 2053.84,1080.06 2057.14,1090.98 
  2060.45,1101.54 2063.76,1111.75 2067.06,1121.6 2070.37,1131.11 2073.68,1140.28 2076.99,1149.14 2080.29,1157.68 2083.6,1165.94 2086.91,1173.91 2090.21,1181.62 
  2093.52,1189.09 2096.83,1196.33 2100.13,1203.36 2103.44,1210.19 2106.75,1216.85 2110.05,1223.35 2113.36,1229.7 2116.67,1235.92 2119.98,1242.03 2123.28,1248.03 
  2126.59,1253.94 2129.9,1259.77 2133.2,1265.52 2136.51,1271.2 2139.82,1276.83 2143.12,1282.39 2146.43,1287.91 2149.74,1293.38 2153.05,1298.8 2156.35,1304.17 
  2159.66,1309.5 2162.97,1314.78 2166.27,1320.01 2169.58,1325.19 2172.89,1330.32 2176.19,1335.38 2179.5,1340.39 2182.81,1345.33 2186.11,1350.21 2189.42,1355.01 
  2192.73,1359.74 2196.04,1364.39 2199.34,1368.96 2202.65,1373.44 2205.96,1377.83 2209.26,1382.14 2212.57,1386.34 2215.88,1390.46 2219.18,1394.47 2222.49,1398.38 
  2225.8,1402.19 2229.11,1405.89 2232.41,1409.49 2235.72,1412.98 2239.03,1416.37 2242.33,1419.64 2245.64,1422.81 2248.95,1425.88 2252.25,1428.83 2255.56,1431.68 
  2258.87,1434.41 2262.17,1437.05 2265.48,1439.57 2268.79,1442 2272.1,1444.31 2275.4,1446.53 2278.71,1448.65 2282.02,1450.67 2285.32,1452.59 2288.63,1454.42 
  
  "/>
<polyline clip-path="url(#clip872)" style="stroke:#0000ff; stroke-width:4; stroke-opacity:1; fill:none" points="
  1318.39,1479.3 1318.39,149.883 
  "/>
<polyline clip-path="url(#clip872)" style="stroke:#000000; stroke-width:4; stroke-opacity:1; fill:none" points="
  1331.15,1479.3 1331.15,151.573 
  "/>
<path clip-path="url(#clip870)" d="
M1494.58 459.25 L2277.23 459.25 L2277.23 96.3696 L1494.58 96.3696  Z
  " fill="#ffffff" fill-rule="evenodd" fill-opacity="1"/>
<polyline clip-path="url(#clip870)" style="stroke:#000000; stroke-width:4; stroke-opacity:1; fill:none" points="
  1494.58,459.25 2277.23,459.25 2277.23,96.3696 1494.58,96.3696 1494.58,459.25 
  "/>
<path clip-path="url(#clip870)" d="
M1519.75 181.042 L1670.81 181.042 L1670.81 132.658 L1519.75 132.658 L1519.75 181.042  Z
  " fill="#ffa500" fill-rule="evenodd" fill-opacity="0.5"/>
<polyline clip-path="url(#clip870)" style="stroke:#ffa500; stroke-width:4; stroke-opacity:1; fill:none" points="
  1519.75,132.658 1670.81,132.658 
  "/>
<path clip-path="url(#clip870)" d="M 0 0 M1700.38 161.19 Q1700.38 165.889 1702.3 168.574 Q1704.24 171.236 1707.62 171.236 Q1711 171.236 1712.95 168.574 Q1714.89 165.889 1714.89 161.19 Q1714.89 156.491 1712.95 153.829 Q1711 151.144 1707.62 151.144 Q1704.24 151.144 1702.3 153.829 Q1700.38 156.491 1700.38 161.19 M1714.89 170.241 Q1713.55 172.555 1711.49 173.69 Q1709.45 174.801 1706.58 174.801 Q1701.88 174.801 1698.92 171.051 Q1695.98 167.301 1695.98 161.19 Q1695.98 155.079 1698.92 151.329 Q1701.88 147.579 1706.58 147.579 Q1709.45 147.579 1711.49 148.713 Q1713.55 149.824 1714.89 152.139 L1714.89 148.204 L1719.15 148.204 L1719.15 183.991 L1714.89 183.991 L1714.89 170.241 Z" fill="#000000" fill-rule="evenodd" fill-opacity="1" /><path clip-path="url(#clip870)" d="M 0 0 M1734.22 142.648 Q1730.61 142.648 1728.78 146.213 Q1726.98 149.755 1726.98 156.884 Q1726.98 163.991 1728.78 167.556 Q1730.61 171.097 1734.22 171.097 Q1737.85 171.097 1739.66 167.556 Q1741.49 163.991 1741.49 156.884 Q1741.49 149.755 1739.66 146.213 Q1737.85 142.648 1734.22 142.648 M1734.22 138.945 Q1740.03 138.945 1743.09 143.551 Q1746.17 148.134 1746.17 156.884 Q1746.17 165.611 1743.09 170.218 Q1740.03 174.801 1734.22 174.801 Q1728.41 174.801 1725.33 170.218 Q1722.28 165.611 1722.28 156.884 Q1722.28 148.134 1725.33 143.551 Q1728.41 138.945 1734.22 138.945 Z" fill="#000000" fill-rule="evenodd" fill-opacity="1" /><path clip-path="url(#clip870)" d="M 0 0 M1751.28 139.57 L1769.64 139.57 L1769.64 143.505 L1755.56 143.505 L1755.56 151.977 Q1756.58 151.63 1757.6 151.468 Q1758.62 151.282 1759.64 151.282 Q1765.42 151.282 1768.8 154.454 Q1772.18 157.625 1772.18 163.042 Q1772.18 168.62 1768.71 171.722 Q1765.24 174.801 1758.92 174.801 Q1756.74 174.801 1754.48 174.43 Q1752.23 174.06 1749.82 173.319 L1749.82 168.62 Q1751.91 169.755 1754.13 170.31 Q1756.35 170.866 1758.83 170.866 Q1762.83 170.866 1765.17 168.759 Q1767.51 166.653 1767.51 163.042 Q1767.51 159.431 1765.17 157.324 Q1762.83 155.218 1758.83 155.218 Q1756.95 155.218 1755.08 155.634 Q1753.23 156.051 1751.28 156.931 L1751.28 139.57 Z" fill="#000000" fill-rule="evenodd" fill-opacity="1" /><path clip-path="url(#clip870)" d="
M1519.75 241.522 L1670.81 241.522 L1670.81 193.138 L1519.75 193.138 L1519.75 241.522  Z
  " fill="#008000" fill-rule="evenodd" fill-opacity="0.5"/>
<polyline clip-path="url(#clip870)" style="stroke:#008000; stroke-width:4; stroke-opacity:1; fill:none" points="
  1519.75,193.138 1670.81,193.138 
  "/>
<path clip-path="url(#clip870)" d="M 0 0 M1698.2 233.892 L1698.2 229.633 Q1699.96 230.466 1701.77 230.906 Q1703.57 231.346 1705.31 231.346 Q1709.94 231.346 1712.37 228.244 Q1714.82 225.119 1715.17 218.776 Q1713.83 220.767 1711.77 221.832 Q1709.71 222.897 1707.21 222.897 Q1702.02 222.897 1698.99 219.772 Q1695.98 216.624 1695.98 211.184 Q1695.98 205.86 1699.13 202.642 Q1702.28 199.425 1707.51 199.425 Q1713.5 199.425 1716.65 204.031 Q1719.82 208.614 1719.82 217.364 Q1719.82 225.536 1715.93 230.42 Q1712.07 235.281 1705.52 235.281 Q1703.76 235.281 1701.95 234.934 Q1700.15 234.586 1698.2 233.892 M1707.51 219.239 Q1710.66 219.239 1712.48 217.086 Q1714.34 214.934 1714.34 211.184 Q1714.34 207.457 1712.48 205.304 Q1710.66 203.128 1707.51 203.128 Q1704.36 203.128 1702.51 205.304 Q1700.68 207.457 1700.68 211.184 Q1700.68 214.934 1702.51 217.086 Q1704.36 219.239 1707.51 219.239 Z" fill="#000000" fill-rule="evenodd" fill-opacity="1" /><path clip-path="url(#clip870)" d="M 0 0 M1734.89 203.128 Q1731.28 203.128 1729.45 206.693 Q1727.65 210.235 1727.65 217.364 Q1727.65 224.471 1729.45 228.036 Q1731.28 231.577 1734.89 231.577 Q1738.53 231.577 1740.33 228.036 Q1742.16 224.471 1742.16 217.364 Q1742.16 210.235 1740.33 206.693 Q1738.53 203.128 1734.89 203.128 M1734.89 199.425 Q1740.7 199.425 1743.76 204.031 Q1746.84 208.614 1746.84 217.364 Q1746.84 226.091 1743.76 230.698 Q1740.7 235.281 1734.89 235.281 Q1729.08 235.281 1726 230.698 Q1722.95 226.091 1722.95 217.364 Q1722.95 208.614 1726 204.031 Q1729.08 199.425 1734.89 199.425 Z" fill="#000000" fill-rule="evenodd" fill-opacity="1" /><path clip-path="url(#clip870)" d="M 0 0 M1781.3 219.401 Q1779.29 219.401 1778.13 221.114 Q1777 222.827 1777 225.883 Q1777 228.892 1778.13 230.628 Q1779.29 232.341 1781.3 232.341 Q1783.27 232.341 1784.41 230.628 Q1785.56 228.892 1785.56 225.883 Q1785.56 222.85 1784.41 221.137 Q1783.27 219.401 1781.3 219.401 M1781.3 216.462 Q1784.96 216.462 1787.11 219.008 Q1789.27 221.554 1789.27 225.883 Q1789.27 230.211 1787.09 232.758 Q1784.94 235.281 1781.3 235.281 Q1777.6 235.281 1775.45 232.758 Q1773.29 230.211 1773.29 225.883 Q1773.29 221.531 1775.45 219.008 Q1777.62 216.462 1781.3 216.462 M1757.42 202.364 Q1755.42 202.364 1754.27 204.1 Q1753.13 205.813 1753.13 208.823 Q1753.13 211.878 1754.27 213.591 Q1755.4 215.304 1757.42 215.304 Q1759.43 215.304 1760.56 213.591 Q1761.72 211.878 1761.72 208.823 Q1761.72 205.837 1760.56 204.1 Q1759.41 202.364 1757.42 202.364 M1778.32 199.425 L1782.02 199.425 L1760.4 235.281 L1756.7 235.281 L1778.32 199.425 M1757.42 199.425 Q1761.07 199.425 1763.25 201.971 Q1765.42 204.494 1765.42 208.823 Q1765.42 213.198 1763.25 215.721 Q1761.1 218.244 1757.42 218.244 Q1753.73 218.244 1751.58 215.721 Q1749.45 213.174 1749.45 208.823 Q1749.45 204.517 1751.6 201.971 Q1753.76 199.425 1757.42 199.425 Z" fill="#000000" fill-rule="evenodd" fill-opacity="1" /><path clip-path="url(#clip870)" d="M 0 0 M1830.35 218.961 L1830.35 234.61 L1826.1 234.61 L1826.1 219.1 Q1826.1 215.42 1824.66 213.591 Q1823.22 211.762 1820.35 211.762 Q1816.91 211.762 1814.91 213.962 Q1812.92 216.161 1812.92 219.957 L1812.92 234.61 L1808.64 234.61 L1808.64 208.684 L1812.92 208.684 L1812.92 212.712 Q1814.45 210.374 1816.51 209.216 Q1818.6 208.059 1821.3 208.059 Q1825.77 208.059 1828.06 210.837 Q1830.35 213.591 1830.35 218.961 Z" fill="#000000" fill-rule="evenodd" fill-opacity="1" /><path clip-path="url(#clip870)" d="M 0 0 M1844.87 211.67 Q1841.44 211.67 1839.45 214.355 Q1837.46 217.017 1837.46 221.67 Q1837.46 226.323 1839.43 229.008 Q1841.42 231.67 1844.87 231.67 Q1848.27 231.67 1850.26 228.985 Q1852.25 226.299 1852.25 221.67 Q1852.25 217.063 1850.26 214.378 Q1848.27 211.67 1844.87 211.67 M1844.87 208.059 Q1850.42 208.059 1853.6 211.67 Q1856.77 215.281 1856.77 221.67 Q1856.77 228.036 1853.6 231.67 Q1850.42 235.281 1844.87 235.281 Q1839.29 235.281 1836.12 231.67 Q1832.97 228.036 1832.97 221.67 Q1832.97 215.281 1836.12 211.67 Q1839.29 208.059 1844.87 208.059 Z" fill="#000000" fill-rule="evenodd" fill-opacity="1" /><path clip-path="url(#clip870)" d="M 0 0 M1882.78 218.961 L1882.78 234.61 L1878.53 234.61 L1878.53 219.1 Q1878.53 215.42 1877.09 213.591 Q1875.66 211.762 1872.78 211.762 Q1869.34 211.762 1867.35 213.962 Q1865.35 216.161 1865.35 219.957 L1865.35 234.61 L1861.07 234.61 L1861.07 208.684 L1865.35 208.684 L1865.35 212.712 Q1866.88 210.374 1868.94 209.216 Q1871.03 208.059 1873.73 208.059 Q1878.2 208.059 1880.49 210.837 Q1882.78 213.591 1882.78 218.961 Z" fill="#000000" fill-rule="evenodd" fill-opacity="1" /><path clip-path="url(#clip870)" d="M 0 0 M1885.1 219.725 L1897.58 219.725 L1897.58 223.522 L1885.1 223.522 L1885.1 219.725 Z" fill="#000000" fill-rule="evenodd" fill-opacity="1" /><path clip-path="url(#clip870)" d="M 0 0 M1917.07 212.665 Q1916.35 212.249 1915.49 212.063 Q1914.66 211.855 1913.64 211.855 Q1910.03 211.855 1908.09 214.216 Q1906.16 216.554 1906.16 220.952 L1906.16 234.61 L1901.88 234.61 L1901.88 208.684 L1906.16 208.684 L1906.16 212.712 Q1907.51 210.35 1909.66 209.216 Q1911.81 208.059 1914.89 208.059 Q1915.33 208.059 1915.86 208.128 Q1916.4 208.175 1917.04 208.29 L1917.07 212.665 Z" fill="#000000" fill-rule="evenodd" fill-opacity="1" /><path clip-path="url(#clip870)" d="M 0 0 M1942.67 220.582 L1942.67 222.665 L1923.09 222.665 Q1923.36 227.063 1925.72 229.378 Q1928.11 231.67 1932.34 231.67 Q1934.8 231.67 1937.09 231.068 Q1939.4 230.466 1941.67 229.262 L1941.67 233.29 Q1939.38 234.262 1936.97 234.772 Q1934.57 235.281 1932.09 235.281 Q1925.89 235.281 1922.25 231.67 Q1918.64 228.059 1918.64 221.901 Q1918.64 215.536 1922.07 211.809 Q1925.52 208.059 1931.35 208.059 Q1936.58 208.059 1939.61 211.438 Q1942.67 214.795 1942.67 220.582 M1938.41 219.332 Q1938.36 215.837 1936.44 213.753 Q1934.54 211.67 1931.4 211.67 Q1927.83 211.67 1925.68 213.684 Q1923.55 215.698 1923.22 219.355 L1938.41 219.332 Z" fill="#000000" fill-rule="evenodd" fill-opacity="1" /><path clip-path="url(#clip870)" d="M 0 0 M1947.14 208.684 L1951.4 208.684 L1951.4 235.073 Q1951.4 240.026 1949.5 242.248 Q1947.62 244.471 1943.43 244.471 L1941.81 244.471 L1941.81 240.86 L1942.95 240.86 Q1945.38 240.86 1946.26 239.725 Q1947.14 238.614 1947.14 235.073 L1947.14 208.684 M1947.14 198.591 L1951.4 198.591 L1951.4 203.985 L1947.14 203.985 L1947.14 198.591 Z" fill="#000000" fill-rule="evenodd" fill-opacity="1" /><path clip-path="url(#clip870)" d="M 0 0 M1978.04 220.582 L1978.04 222.665 L1958.46 222.665 Q1958.73 227.063 1961.09 229.378 Q1963.48 231.67 1967.71 231.67 Q1970.17 231.67 1972.46 231.068 Q1974.78 230.466 1977.04 229.262 L1977.04 233.29 Q1974.75 234.262 1972.34 234.772 Q1969.94 235.281 1967.46 235.281 Q1961.26 235.281 1957.62 231.67 Q1954.01 228.059 1954.01 221.901 Q1954.01 215.536 1957.44 211.809 Q1960.89 208.059 1966.72 208.059 Q1971.95 208.059 1974.98 211.438 Q1978.04 214.795 1978.04 220.582 M1973.78 219.332 Q1973.73 215.837 1971.81 213.753 Q1969.91 211.67 1966.77 211.67 Q1963.2 211.67 1961.05 213.684 Q1958.92 215.698 1958.59 219.355 L1973.78 219.332 Z" fill="#000000" fill-rule="evenodd" fill-opacity="1" /><path clip-path="url(#clip870)" d="M 0 0 M2001.16 209.679 L2001.16 213.661 Q1999.36 212.665 1997.53 212.179 Q1995.72 211.67 1993.87 211.67 Q1989.73 211.67 1987.44 214.309 Q1985.15 216.924 1985.15 221.67 Q1985.15 226.415 1987.44 229.054 Q1989.73 231.67 1993.87 231.67 Q1995.72 231.67 1997.53 231.184 Q1999.36 230.674 2001.16 229.679 L2001.16 233.614 Q1999.38 234.448 1997.46 234.864 Q1995.56 235.281 1993.41 235.281 Q1987.55 235.281 1984.1 231.6 Q1980.65 227.92 1980.65 221.67 Q1980.65 215.327 1984.13 211.693 Q1987.62 208.059 1993.69 208.059 Q1995.65 208.059 1997.53 208.475 Q1999.4 208.869 2001.16 209.679 Z" fill="#000000" fill-rule="evenodd" fill-opacity="1" /><path clip-path="url(#clip870)" d="M 0 0 M2009.84 201.323 L2009.84 208.684 L2018.62 208.684 L2018.62 211.994 L2009.84 211.994 L2009.84 226.068 Q2009.84 229.239 2010.7 230.142 Q2011.58 231.045 2014.24 231.045 L2018.62 231.045 L2018.62 234.61 L2014.24 234.61 Q2009.31 234.61 2007.44 232.781 Q2005.56 230.929 2005.56 226.068 L2005.56 211.994 L2002.44 211.994 L2002.44 208.684 L2005.56 208.684 L2005.56 201.323 L2009.84 201.323 Z" fill="#000000" fill-rule="evenodd" fill-opacity="1" /><path clip-path="url(#clip870)" d="M 0 0 M2023.08 208.684 L2027.34 208.684 L2027.34 234.61 L2023.08 234.61 L2023.08 208.684 M2023.08 198.591 L2027.34 198.591 L2027.34 203.985 L2023.08 203.985 L2023.08 198.591 Z" fill="#000000" fill-rule="evenodd" fill-opacity="1" /><path clip-path="url(#clip870)" d="M 0 0 M2041.86 211.67 Q2038.43 211.67 2036.44 214.355 Q2034.45 217.017 2034.45 221.67 Q2034.45 226.323 2036.42 229.008 Q2038.41 231.67 2041.86 231.67 Q2045.26 231.67 2047.25 228.985 Q2049.24 226.299 2049.24 221.67 Q2049.24 217.063 2047.25 214.378 Q2045.26 211.67 2041.86 211.67 M2041.86 208.059 Q2047.41 208.059 2050.58 211.67 Q2053.76 215.281 2053.76 221.67 Q2053.76 228.036 2050.58 231.67 Q2047.41 235.281 2041.86 235.281 Q2036.28 235.281 2033.11 231.67 Q2029.96 228.036 2029.96 221.67 Q2029.96 215.281 2033.11 211.67 Q2036.28 208.059 2041.86 208.059 Z" fill="#000000" fill-rule="evenodd" fill-opacity="1" /><path clip-path="url(#clip870)" d="M 0 0 M2079.77 218.961 L2079.77 234.61 L2075.52 234.61 L2075.52 219.1 Q2075.52 215.42 2074.08 213.591 Q2072.64 211.762 2069.77 211.762 Q2066.33 211.762 2064.33 213.962 Q2062.34 216.161 2062.34 219.957 L2062.34 234.61 L2058.06 234.61 L2058.06 208.684 L2062.34 208.684 L2062.34 212.712 Q2063.87 210.374 2065.93 209.216 Q2068.02 208.059 2070.72 208.059 Q2075.19 208.059 2077.48 210.837 Q2079.77 213.591 2079.77 218.961 Z" fill="#000000" fill-rule="evenodd" fill-opacity="1" /><path clip-path="url(#clip870)" d="M 0 0 M2114.33 212.665 Q2113.62 212.249 2112.76 212.063 Q2111.93 211.855 2110.91 211.855 Q2107.3 211.855 2105.35 214.216 Q2103.43 216.554 2103.43 220.952 L2103.43 234.61 L2099.15 234.61 L2099.15 208.684 L2103.43 208.684 L2103.43 212.712 Q2104.77 210.35 2106.93 209.216 Q2109.08 208.059 2112.16 208.059 Q2112.6 208.059 2113.13 208.128 Q2113.66 208.175 2114.31 208.29 L2114.33 212.665 Z" fill="#000000" fill-rule="evenodd" fill-opacity="1" /><path clip-path="url(#clip870)" d="M 0 0 M2139.94 220.582 L2139.94 222.665 L2120.35 222.665 Q2120.63 227.063 2122.99 229.378 Q2125.38 231.67 2129.61 231.67 Q2132.07 231.67 2134.36 231.068 Q2136.67 230.466 2138.94 229.262 L2138.94 233.29 Q2136.65 234.262 2134.24 234.772 Q2131.83 235.281 2129.36 235.281 Q2123.15 235.281 2119.52 231.67 Q2115.91 228.059 2115.91 221.901 Q2115.91 215.536 2119.33 211.809 Q2122.78 208.059 2128.62 208.059 Q2133.85 208.059 2136.88 211.438 Q2139.94 214.795 2139.94 220.582 M2135.68 219.332 Q2135.63 215.837 2133.71 213.753 Q2131.81 211.67 2128.66 211.67 Q2125.1 211.67 2122.95 213.684 Q2120.82 215.698 2120.49 219.355 L2135.68 219.332 Z" fill="#000000" fill-rule="evenodd" fill-opacity="1" /><path clip-path="url(#clip870)" d="M 0 0 M2161.46 221.346 Q2161.46 216.716 2159.54 214.17 Q2157.64 211.624 2154.2 211.624 Q2150.77 211.624 2148.85 214.17 Q2146.95 216.716 2146.95 221.346 Q2146.95 225.952 2148.85 228.498 Q2150.77 231.045 2154.2 231.045 Q2157.64 231.045 2159.54 228.498 Q2161.46 225.952 2161.46 221.346 M2165.72 231.392 Q2165.72 238.012 2162.78 241.23 Q2159.84 244.471 2153.78 244.471 Q2151.53 244.471 2149.54 244.123 Q2147.55 243.799 2145.68 243.105 L2145.68 238.961 Q2147.55 239.98 2149.38 240.466 Q2151.21 240.952 2153.11 240.952 Q2157.3 240.952 2159.38 238.753 Q2161.46 236.577 2161.46 232.156 L2161.46 230.049 Q2160.14 232.341 2158.08 233.475 Q2156.02 234.61 2153.15 234.61 Q2148.39 234.61 2145.47 230.975 Q2142.55 227.341 2142.55 221.346 Q2142.55 215.327 2145.47 211.693 Q2148.39 208.059 2153.15 208.059 Q2156.02 208.059 2158.08 209.193 Q2160.14 210.327 2161.46 212.619 L2161.46 208.684 L2165.72 208.684 L2165.72 231.392 Z" fill="#000000" fill-rule="evenodd" fill-opacity="1" /><path clip-path="url(#clip870)" d="M 0 0 M2170.19 208.684 L2174.45 208.684 L2174.45 234.61 L2170.19 234.61 L2170.19 208.684 M2170.19 198.591 L2174.45 198.591 L2174.45 203.985 L2170.19 203.985 L2170.19 198.591 Z" fill="#000000" fill-rule="evenodd" fill-opacity="1" /><path clip-path="url(#clip870)" d="M 0 0 M2188.96 211.67 Q2185.54 211.67 2183.55 214.355 Q2181.56 217.017 2181.56 221.67 Q2181.56 226.323 2183.52 229.008 Q2185.51 231.67 2188.96 231.67 Q2192.37 231.67 2194.36 228.985 Q2196.35 226.299 2196.35 221.67 Q2196.35 217.063 2194.36 214.378 Q2192.37 211.67 2188.96 211.67 M2188.96 208.059 Q2194.52 208.059 2197.69 211.67 Q2200.86 215.281 2200.86 221.67 Q2200.86 228.036 2197.69 231.67 Q2194.52 235.281 2188.96 235.281 Q2183.39 235.281 2180.21 231.67 Q2177.07 228.036 2177.07 221.67 Q2177.07 215.281 2180.21 211.67 Q2183.39 208.059 2188.96 208.059 Z" fill="#000000" fill-rule="evenodd" fill-opacity="1" /><path clip-path="url(#clip870)" d="M 0 0 M2226.88 218.961 L2226.88 234.61 L2222.62 234.61 L2222.62 219.1 Q2222.62 215.42 2221.19 213.591 Q2219.75 211.762 2216.88 211.762 Q2213.43 211.762 2211.44 213.962 Q2209.45 216.161 2209.45 219.957 L2209.45 234.61 L2205.17 234.61 L2205.17 208.684 L2209.45 208.684 L2209.45 212.712 Q2210.98 210.374 2213.04 209.216 Q2215.12 208.059 2217.83 208.059 Q2222.3 208.059 2224.59 210.837 Q2226.88 213.591 2226.88 218.961 Z" fill="#000000" fill-rule="evenodd" fill-opacity="1" /><path clip-path="url(#clip870)" d="
M1519.75 302.002 L1670.81 302.002 L1670.81 253.618 L1519.75 253.618 L1519.75 302.002  Z
  " fill="#ffa500" fill-rule="evenodd" fill-opacity="0.5"/>
<polyline clip-path="url(#clip870)" style="stroke:#ffa500; stroke-width:4; stroke-opacity:1; fill:none" points="
  1519.75,253.618 1670.81,253.618 
  "/>
<path clip-path="url(#clip870)" d="M 0 0 M1700.38 282.15 Q1700.38 286.849 1702.3 289.534 Q1704.24 292.196 1707.62 292.196 Q1711 292.196 1712.95 289.534 Q1714.89 286.849 1714.89 282.15 Q1714.89 277.451 1712.95 274.789 Q1711 272.104 1707.62 272.104 Q1704.24 272.104 1702.3 274.789 Q1700.38 277.451 1700.38 282.15 M1714.89 291.201 Q1713.55 293.515 1711.49 294.65 Q1709.45 295.761 1706.58 295.761 Q1701.88 295.761 1698.92 292.011 Q1695.98 288.261 1695.98 282.15 Q1695.98 276.039 1698.92 272.289 Q1701.88 268.539 1706.58 268.539 Q1709.45 268.539 1711.49 269.673 Q1713.55 270.784 1714.89 273.099 L1714.89 269.164 L1719.15 269.164 L1719.15 304.951 L1714.89 304.951 L1714.89 291.201 Z" fill="#000000" fill-rule="evenodd" fill-opacity="1" /><path clip-path="url(#clip870)" d="M 0 0 M1724.36 294.372 L1724.36 290.113 Q1726.12 290.946 1727.92 291.386 Q1729.73 291.826 1731.47 291.826 Q1736.1 291.826 1738.53 288.724 Q1740.98 285.599 1741.33 279.256 Q1739.98 281.247 1737.92 282.312 Q1735.86 283.377 1733.36 283.377 Q1728.18 283.377 1725.15 280.252 Q1722.14 277.104 1722.14 271.664 Q1722.14 266.34 1725.29 263.122 Q1728.43 259.905 1733.67 259.905 Q1739.66 259.905 1742.81 264.511 Q1745.98 269.094 1745.98 277.844 Q1745.98 286.016 1742.09 290.9 Q1738.23 295.761 1731.67 295.761 Q1729.92 295.761 1728.11 295.414 Q1726.3 295.066 1724.36 294.372 M1733.67 279.719 Q1736.81 279.719 1738.64 277.566 Q1740.49 275.414 1740.49 271.664 Q1740.49 267.937 1738.64 265.784 Q1736.81 263.608 1733.67 263.608 Q1730.52 263.608 1728.67 265.784 Q1726.84 267.937 1726.84 271.664 Q1726.84 275.414 1728.67 277.566 Q1730.52 279.719 1733.67 279.719 Z" fill="#000000" fill-rule="evenodd" fill-opacity="1" /><path clip-path="url(#clip870)" d="M 0 0 M1751.1 260.53 L1769.45 260.53 L1769.45 264.465 L1755.38 264.465 L1755.38 272.937 Q1756.4 272.59 1757.42 272.428 Q1758.43 272.242 1759.45 272.242 Q1765.24 272.242 1768.62 275.414 Q1772 278.585 1772 284.002 Q1772 289.58 1768.53 292.682 Q1765.05 295.761 1758.73 295.761 Q1756.56 295.761 1754.29 295.39 Q1752.04 295.02 1749.64 294.279 L1749.64 289.58 Q1751.72 290.715 1753.94 291.27 Q1756.17 291.826 1758.64 291.826 Q1762.65 291.826 1764.98 289.719 Q1767.32 287.613 1767.32 284.002 Q1767.32 280.391 1764.98 278.284 Q1762.65 276.178 1758.64 276.178 Q1756.77 276.178 1754.89 276.594 Q1753.04 277.011 1751.1 277.891 L1751.1 260.53 Z" fill="#000000" fill-rule="evenodd" fill-opacity="1" /><polyline clip-path="url(#clip870)" style="stroke:#0000ff; stroke-width:4; stroke-opacity:1; fill:none" points="
  1519.75,338.29 1670.81,338.29 
  "/>
<path clip-path="url(#clip870)" d="M 0 0 M1716.33 334.621 Q1717.92 331.75 1720.15 330.385 Q1722.37 329.019 1725.38 329.019 Q1729.43 329.019 1731.63 331.866 Q1733.83 334.69 1733.83 339.921 L1733.83 355.57 L1729.54 355.57 L1729.54 340.06 Q1729.54 336.334 1728.23 334.528 Q1726.91 332.722 1724.2 332.722 Q1720.89 332.722 1718.97 334.922 Q1717.04 337.121 1717.04 340.917 L1717.04 355.57 L1712.76 355.57 L1712.76 340.06 Q1712.76 336.31 1711.44 334.528 Q1710.12 332.722 1707.37 332.722 Q1704.11 332.722 1702.18 334.945 Q1700.26 337.144 1700.26 340.917 L1700.26 355.57 L1695.98 355.57 L1695.98 329.644 L1700.26 329.644 L1700.26 333.672 Q1701.72 331.287 1703.76 330.153 Q1705.79 329.019 1708.6 329.019 Q1711.42 329.019 1713.39 330.454 Q1715.38 331.889 1716.33 334.621 Z" fill="#000000" fill-rule="evenodd" fill-opacity="1" /><path clip-path="url(#clip870)" d="M 0 0 M1760.47 341.542 L1760.47 343.625 L1740.89 343.625 Q1741.17 348.023 1743.53 350.338 Q1745.91 352.63 1750.15 352.63 Q1752.6 352.63 1754.89 352.028 Q1757.21 351.426 1759.48 350.222 L1759.48 354.25 Q1757.18 355.222 1754.78 355.732 Q1752.37 356.241 1749.89 356.241 Q1743.69 356.241 1740.05 352.63 Q1736.44 349.019 1736.44 342.861 Q1736.44 336.496 1739.87 332.769 Q1743.32 329.019 1749.15 329.019 Q1754.38 329.019 1757.42 332.398 Q1760.47 335.755 1760.47 341.542 M1756.21 340.292 Q1756.17 336.797 1754.24 334.713 Q1752.35 332.63 1749.2 332.63 Q1745.63 332.63 1743.48 334.644 Q1741.35 336.658 1741.03 340.315 L1756.21 340.292 Z" fill="#000000" fill-rule="evenodd" fill-opacity="1" /><path clip-path="url(#clip870)" d="M 0 0 M1776.72 342.537 Q1771.56 342.537 1769.57 343.718 Q1767.58 344.898 1767.58 347.746 Q1767.58 350.014 1769.06 351.357 Q1770.56 352.676 1773.13 352.676 Q1776.67 352.676 1778.8 350.176 Q1780.96 347.653 1780.96 343.486 L1780.96 342.537 L1776.72 342.537 M1785.22 340.778 L1785.22 355.57 L1780.96 355.57 L1780.96 351.634 Q1779.5 353.995 1777.32 355.13 Q1775.15 356.241 1772 356.241 Q1768.02 356.241 1765.66 354.019 Q1763.32 351.773 1763.32 348.023 Q1763.32 343.648 1766.23 341.426 Q1769.17 339.204 1774.98 339.204 L1780.96 339.204 L1780.96 338.787 Q1780.96 335.847 1779.01 334.25 Q1777.09 332.63 1773.6 332.63 Q1771.37 332.63 1769.27 333.162 Q1767.16 333.695 1765.22 334.759 L1765.22 330.824 Q1767.55 329.922 1769.75 329.482 Q1771.95 329.019 1774.04 329.019 Q1779.66 329.019 1782.44 331.935 Q1785.22 334.852 1785.22 340.778 Z" fill="#000000" fill-rule="evenodd" fill-opacity="1" /><path clip-path="url(#clip870)" d="M 0 0 M1811.23 339.921 L1811.23 355.57 L1806.97 355.57 L1806.97 340.06 Q1806.97 336.38 1805.54 334.551 Q1804.1 332.722 1801.23 332.722 Q1797.79 332.722 1795.79 334.922 Q1793.8 337.121 1793.8 340.917 L1793.8 355.57 L1789.52 355.57 L1789.52 329.644 L1793.8 329.644 L1793.8 333.672 Q1795.33 331.334 1797.39 330.176 Q1799.48 329.019 1802.18 329.019 Q1806.65 329.019 1808.94 331.797 Q1811.23 334.551 1811.23 339.921 Z" fill="#000000" fill-rule="evenodd" fill-opacity="1" /><polyline clip-path="url(#clip870)" style="stroke:#000000; stroke-width:4; stroke-opacity:1; fill:none" points="
  1519.75,398.77 1670.81,398.77 
  "/>
<path clip-path="url(#clip870)" d="M 0 0 M1716.33 395.101 Q1717.92 392.23 1720.15 390.865 Q1722.37 389.499 1725.38 389.499 Q1729.43 389.499 1731.63 392.346 Q1733.83 395.17 1733.83 400.401 L1733.83 416.05 L1729.54 416.05 L1729.54 400.54 Q1729.54 396.814 1728.23 395.008 Q1726.91 393.202 1724.2 393.202 Q1720.89 393.202 1718.97 395.402 Q1717.04 397.601 1717.04 401.397 L1717.04 416.05 L1712.76 416.05 L1712.76 400.54 Q1712.76 396.79 1711.44 395.008 Q1710.12 393.202 1707.37 393.202 Q1704.11 393.202 1702.18 395.425 Q1700.26 397.624 1700.26 401.397 L1700.26 416.05 L1695.98 416.05 L1695.98 390.124 L1700.26 390.124 L1700.26 394.152 Q1701.72 391.767 1703.76 390.633 Q1705.79 389.499 1708.6 389.499 Q1711.42 389.499 1713.39 390.934 Q1715.38 392.369 1716.33 395.101 Z" fill="#000000" fill-rule="evenodd" fill-opacity="1" /><path clip-path="url(#clip870)" d="M 0 0 M1760.47 402.022 L1760.47 404.105 L1740.89 404.105 Q1741.17 408.503 1743.53 410.818 Q1745.91 413.11 1750.15 413.11 Q1752.6 413.11 1754.89 412.508 Q1757.21 411.906 1759.48 410.702 L1759.48 414.73 Q1757.18 415.702 1754.78 416.212 Q1752.37 416.721 1749.89 416.721 Q1743.69 416.721 1740.05 413.11 Q1736.44 409.499 1736.44 403.341 Q1736.44 396.976 1739.87 393.249 Q1743.32 389.499 1749.15 389.499 Q1754.38 389.499 1757.42 392.878 Q1760.47 396.235 1760.47 402.022 M1756.21 400.772 Q1756.17 397.277 1754.24 395.193 Q1752.35 393.11 1749.2 393.11 Q1745.63 393.11 1743.48 395.124 Q1741.35 397.138 1741.03 400.795 L1756.21 400.772 Z" fill="#000000" fill-rule="evenodd" fill-opacity="1" /><path clip-path="url(#clip870)" d="M 0 0 M1782 394.059 L1782 380.031 L1786.26 380.031 L1786.26 416.05 L1782 416.05 L1782 412.161 Q1780.66 414.475 1778.6 415.61 Q1776.56 416.721 1773.69 416.721 Q1768.99 416.721 1766.03 412.971 Q1763.09 409.221 1763.09 403.11 Q1763.09 396.999 1766.03 393.249 Q1768.99 389.499 1773.69 389.499 Q1776.56 389.499 1778.6 390.633 Q1780.66 391.744 1782 394.059 M1767.48 403.11 Q1767.48 407.809 1769.41 410.494 Q1771.35 413.156 1774.73 413.156 Q1778.11 413.156 1780.05 410.494 Q1782 407.809 1782 403.11 Q1782 398.411 1780.05 395.749 Q1778.11 393.064 1774.73 393.064 Q1771.35 393.064 1769.41 395.749 Q1767.48 398.411 1767.48 403.11 Z" fill="#000000" fill-rule="evenodd" fill-opacity="1" /><path clip-path="url(#clip870)" d="M 0 0 M1790.73 390.124 L1794.98 390.124 L1794.98 416.05 L1790.73 416.05 L1790.73 390.124 M1790.73 380.031 L1794.98 380.031 L1794.98 385.425 L1790.73 385.425 L1790.73 380.031 Z" fill="#000000" fill-rule="evenodd" fill-opacity="1" /><path clip-path="url(#clip870)" d="M 0 0 M1811.23 403.017 Q1806.07 403.017 1804.08 404.198 Q1802.09 405.378 1802.09 408.226 Q1802.09 410.494 1803.57 411.837 Q1805.08 413.156 1807.65 413.156 Q1811.19 413.156 1813.32 410.656 Q1815.47 408.133 1815.47 403.966 L1815.47 403.017 L1811.23 403.017 M1819.73 401.258 L1819.73 416.05 L1815.47 416.05 L1815.47 412.114 Q1814.01 414.475 1811.84 415.61 Q1809.66 416.721 1806.51 416.721 Q1802.53 416.721 1800.17 414.499 Q1797.83 412.253 1797.83 408.503 Q1797.83 404.128 1800.75 401.906 Q1803.69 399.684 1809.5 399.684 L1815.47 399.684 L1815.47 399.267 Q1815.47 396.327 1813.53 394.73 Q1811.6 393.11 1808.11 393.11 Q1805.89 393.11 1803.78 393.642 Q1801.67 394.175 1799.73 395.239 L1799.73 391.304 Q1802.07 390.402 1804.27 389.962 Q1806.47 389.499 1808.55 389.499 Q1814.17 389.499 1816.95 392.415 Q1819.73 395.332 1819.73 401.258 Z" fill="#000000" fill-rule="evenodd" fill-opacity="1" /><path clip-path="url(#clip870)" d="M 0 0 M1845.75 400.401 L1845.75 416.05 L1841.49 416.05 L1841.49 400.54 Q1841.49 396.86 1840.05 395.031 Q1838.62 393.202 1835.75 393.202 Q1832.3 393.202 1830.31 395.402 Q1828.32 397.601 1828.32 401.397 L1828.32 416.05 L1824.04 416.05 L1824.04 390.124 L1828.32 390.124 L1828.32 394.152 Q1829.85 391.814 1831.91 390.656 Q1833.99 389.499 1836.7 389.499 Q1841.16 389.499 1843.46 392.277 Q1845.75 395.031 1845.75 400.401 Z" fill="#000000" fill-rule="evenodd" fill-opacity="1" /></svg>
