<?xml version="1.0" encoding="utf-8"?>
<svg xmlns="http://www.w3.org/2000/svg" xmlns:xlink="http://www.w3.org/1999/xlink" width="600" height="400" viewBox="0 0 2400 1600">
<defs>
  <clipPath id="clip850">
    <rect x="0" y="0" width="2400" height="1600"/>
  </clipPath>
</defs>
<path clip-path="url(#clip850)" d="
M0 1600 L2400 1600 L2400 0 L0 0  Z
  " fill="#ffffff" fill-rule="evenodd" fill-opacity="1"/>
<defs>
  <clipPath id="clip851">
    <rect x="480" y="0" width="1681" height="1600"/>
  </clipPath>
</defs>
<path clip-path="url(#clip850)" d="
M86.9921 1521.01 L2352.76 1521.01 L2352.76 47.2441 L86.9921 47.2441  Z
  " fill="#ffffff" fill-rule="evenodd" fill-opacity="1"/>
<defs>
  <clipPath id="clip852">
    <rect x="86" y="47" width="2267" height="1475"/>
  </clipPath>
</defs>
<polyline clip-path="url(#clip852)" style="stroke:#000000; stroke-width:2; stroke-opacity:0.1; fill:none" points="
  149.212,1521.01 149.212,47.2441 
  "/>
<polyline clip-path="url(#clip852)" style="stroke:#000000; stroke-width:2; stroke-opacity:0.1; fill:none" points="
  863.209,1521.01 863.209,47.2441 
  "/>
<polyline clip-path="url(#clip852)" style="stroke:#000000; stroke-width:2; stroke-opacity:0.1; fill:none" points="
  1577.21,1521.01 1577.21,47.2441 
  "/>
<polyline clip-path="url(#clip852)" style="stroke:#000000; stroke-width:2; stroke-opacity:0.1; fill:none" points="
  2291.2,1521.01 2291.2,47.2441 
  "/>
<polyline clip-path="url(#clip852)" style="stroke:#000000; stroke-width:2; stroke-opacity:0.1; fill:none" points="
  86.9921,1479.3 2352.76,1479.3 
  "/>
<polyline clip-path="url(#clip852)" style="stroke:#000000; stroke-width:2; stroke-opacity:0.1; fill:none" points="
  86.9921,1200.95 2352.76,1200.95 
  "/>
<polyline clip-path="url(#clip852)" style="stroke:#000000; stroke-width:2; stroke-opacity:0.1; fill:none" points="
  86.9921,922.601 2352.76,922.601 
  "/>
<polyline clip-path="url(#clip852)" style="stroke:#000000; stroke-width:2; stroke-opacity:0.1; fill:none" points="
  86.9921,644.253 2352.76,644.253 
  "/>
<polyline clip-path="url(#clip852)" style="stroke:#000000; stroke-width:2; stroke-opacity:0.1; fill:none" points="
  86.9921,365.905 2352.76,365.905 
  "/>
<polyline clip-path="url(#clip852)" style="stroke:#000000; stroke-width:2; stroke-opacity:0.1; fill:none" points="
  86.9921,87.5567 2352.76,87.5567 
  "/>
<polyline clip-path="url(#clip850)" style="stroke:#000000; stroke-width:4; stroke-opacity:1; fill:none" points="
  86.9921,1521.01 2352.76,1521.01 
  "/>
<polyline clip-path="url(#clip850)" style="stroke:#000000; stroke-width:4; stroke-opacity:1; fill:none" points="
  86.9921,1521.01 86.9921,47.2441 
  "/>
<polyline clip-path="url(#clip850)" style="stroke:#000000; stroke-width:4; stroke-opacity:1; fill:none" points="
  149.212,1521.01 149.212,1503.32 
  "/>
<polyline clip-path="url(#clip850)" style="stroke:#000000; stroke-width:4; stroke-opacity:1; fill:none" points="
  863.209,1521.01 863.209,1503.32 
  "/>
<polyline clip-path="url(#clip850)" style="stroke:#000000; stroke-width:4; stroke-opacity:1; fill:none" points="
  1577.21,1521.01 1577.21,1503.32 
  "/>
<polyline clip-path="url(#clip850)" style="stroke:#000000; stroke-width:4; stroke-opacity:1; fill:none" points="
  2291.2,1521.01 2291.2,1503.32 
  "/>
<polyline clip-path="url(#clip850)" style="stroke:#000000; stroke-width:4; stroke-opacity:1; fill:none" points="
  86.9921,1479.3 114.181,1479.3 
  "/>
<polyline clip-path="url(#clip850)" style="stroke:#000000; stroke-width:4; stroke-opacity:1; fill:none" points="
  86.9921,1200.95 114.181,1200.95 
  "/>
<polyline clip-path="url(#clip850)" style="stroke:#000000; stroke-width:4; stroke-opacity:1; fill:none" points="
  86.9921,922.601 114.181,922.601 
  "/>
<polyline clip-path="url(#clip850)" style="stroke:#000000; stroke-width:4; stroke-opacity:1; fill:none" points="
  86.9921,644.253 114.181,644.253 
  "/>
<polyline clip-path="url(#clip850)" style="stroke:#000000; stroke-width:4; stroke-opacity:1; fill:none" points="
  86.9921,365.905 114.181,365.905 
  "/>
<polyline clip-path="url(#clip850)" style="stroke:#000000; stroke-width:4; stroke-opacity:1; fill:none" points="
  86.9921,87.5567 114.181,87.5567 
  "/>
<path clip-path="url(#clip850)" d="M 0 0 M153.46 1555.85 Q156.817 1556.56 158.692 1558.83 Q160.59 1561.1 160.59 1564.43 Q160.59 1569.55 157.071 1572.35 Q153.553 1575.15 147.071 1575.15 Q144.895 1575.15 142.581 1574.71 Q140.289 1574.29 137.835 1573.44 L137.835 1568.92 Q139.78 1570.06 142.094 1570.64 Q144.409 1571.22 146.932 1571.22 Q151.33 1571.22 153.622 1569.48 Q155.937 1567.74 155.937 1564.43 Q155.937 1561.38 153.784 1559.67 Q151.655 1557.93 147.835 1557.93 L143.807 1557.93 L143.807 1554.09 L148.02 1554.09 Q151.469 1554.09 153.298 1552.72 Q155.127 1551.33 155.127 1548.74 Q155.127 1546.08 153.229 1544.67 Q151.354 1543.23 147.835 1543.23 Q145.914 1543.23 143.715 1543.65 Q141.516 1544.06 138.877 1544.94 L138.877 1540.78 Q141.539 1540.04 143.854 1539.67 Q146.192 1539.29 148.252 1539.29 Q153.576 1539.29 156.678 1541.73 Q159.78 1544.13 159.78 1548.25 Q159.78 1551.12 158.136 1553.11 Q156.492 1555.08 153.46 1555.85 Z" fill="#000000" fill-rule="evenodd" fill-opacity="1" /><path clip-path="url(#clip850)" d="M 0 0 M866.218 1543.99 L854.413 1562.44 L866.218 1562.44 L866.218 1543.99 M864.991 1539.92 L870.871 1539.92 L870.871 1562.44 L875.802 1562.44 L875.802 1566.33 L870.871 1566.33 L870.871 1574.48 L866.218 1574.48 L866.218 1566.33 L850.616 1566.33 L850.616 1561.82 L864.991 1539.92 Z" fill="#000000" fill-rule="evenodd" fill-opacity="1" /><path clip-path="url(#clip850)" d="M 0 0 M1567.48 1539.92 L1585.84 1539.92 L1585.84 1543.86 L1571.77 1543.86 L1571.77 1552.33 Q1572.78 1551.98 1573.8 1551.82 Q1574.82 1551.63 1575.84 1551.63 Q1581.63 1551.63 1585.01 1554.8 Q1588.39 1557.98 1588.39 1563.39 Q1588.39 1568.97 1584.91 1572.07 Q1581.44 1575.15 1575.12 1575.15 Q1572.95 1575.15 1570.68 1574.78 Q1568.43 1574.41 1566.03 1573.67 L1566.03 1568.97 Q1568.11 1570.1 1570.33 1570.66 Q1572.55 1571.22 1575.03 1571.22 Q1579.03 1571.22 1581.37 1569.11 Q1583.71 1567 1583.71 1563.39 Q1583.71 1559.78 1581.37 1557.67 Q1579.03 1555.57 1575.03 1555.57 Q1573.15 1555.57 1571.28 1555.98 Q1569.43 1556.4 1567.48 1557.28 L1567.48 1539.92 Z" fill="#000000" fill-rule="evenodd" fill-opacity="1" /><path clip-path="url(#clip850)" d="M 0 0 M2291.61 1555.34 Q2288.46 1555.34 2286.61 1557.49 Q2284.78 1559.64 2284.78 1563.39 Q2284.78 1567.12 2286.61 1569.29 Q2288.46 1571.45 2291.61 1571.45 Q2294.76 1571.45 2296.58 1569.29 Q2298.44 1567.12 2298.44 1563.39 Q2298.44 1559.64 2296.58 1557.49 Q2294.76 1555.34 2291.61 1555.34 M2300.89 1540.68 L2300.89 1544.94 Q2299.13 1544.11 2297.32 1543.67 Q2295.54 1543.23 2293.78 1543.23 Q2289.15 1543.23 2286.7 1546.36 Q2284.27 1549.48 2283.92 1555.8 Q2285.29 1553.79 2287.35 1552.72 Q2289.41 1551.63 2291.88 1551.63 Q2297.09 1551.63 2300.1 1554.8 Q2303.13 1557.95 2303.13 1563.39 Q2303.13 1568.72 2299.99 1571.93 Q2296.84 1575.15 2291.61 1575.15 Q2285.61 1575.15 2282.44 1570.57 Q2279.27 1565.96 2279.27 1557.23 Q2279.27 1549.04 2283.16 1544.18 Q2287.05 1539.29 2293.6 1539.29 Q2295.36 1539.29 2297.14 1539.64 Q2298.95 1539.99 2300.89 1540.68 Z" fill="#000000" fill-rule="evenodd" fill-opacity="1" /><path clip-path="url(#clip850)" d="M 0 0 M14.0804 1465.1 Q10.4693 1465.1 8.64057 1468.66 Q6.83502 1472.2 6.83502 1479.33 Q6.83502 1486.44 8.64057 1490 Q10.4693 1493.55 14.0804 1493.55 Q17.7146 1493.55 19.5201 1490 Q21.3488 1486.44 21.3488 1479.33 Q21.3488 1472.2 19.5201 1468.66 Q17.7146 1465.1 14.0804 1465.1 M14.0804 1461.39 Q19.8905 1461.39 22.946 1466 Q26.0247 1470.58 26.0247 1479.33 Q26.0247 1488.06 22.946 1492.67 Q19.8905 1497.25 14.0804 1497.25 Q8.2702 1497.25 5.19151 1492.67 Q2.13597 1488.06 2.13597 1479.33 Q2.13597 1470.58 5.19151 1466 Q8.2702 1461.39 14.0804 1461.39 Z" fill="#000000" fill-rule="evenodd" fill-opacity="1" /><path clip-path="url(#clip850)" d="M 0 0 M31.0941 1490.7 L35.9784 1490.7 L35.9784 1496.58 L31.0941 1496.58 L31.0941 1490.7 Z" fill="#000000" fill-rule="evenodd" fill-opacity="1" /><path clip-path="url(#clip850)" d="M 0 0 M51.0477 1465.1 Q47.4367 1465.1 45.608 1468.66 Q43.8024 1472.2 43.8024 1479.33 Q43.8024 1486.44 45.608 1490 Q47.4367 1493.55 51.0477 1493.55 Q54.682 1493.55 56.4875 1490 Q58.3162 1486.44 58.3162 1479.33 Q58.3162 1472.2 56.4875 1468.66 Q54.682 1465.1 51.0477 1465.1 M51.0477 1461.39 Q56.8579 1461.39 59.9134 1466 Q62.9921 1470.58 62.9921 1479.33 Q62.9921 1488.06 59.9134 1492.67 Q56.8579 1497.25 51.0477 1497.25 Q45.2376 1497.25 42.1589 1492.67 Q39.1034 1488.06 39.1034 1479.33 Q39.1034 1470.58 42.1589 1466 Q45.2376 1461.39 51.0477 1461.39 Z" fill="#000000" fill-rule="evenodd" fill-opacity="1" /><path clip-path="url(#clip850)" d="M 0 0 M15.3072 1186.75 Q11.6961 1186.75 9.86741 1190.31 Q8.06186 1193.85 8.06186 1200.98 Q8.06186 1208.09 9.86741 1211.66 Q11.6961 1215.2 15.3072 1215.2 Q18.9414 1215.2 20.747 1211.66 Q22.5757 1208.09 22.5757 1200.98 Q22.5757 1193.85 20.747 1190.31 Q18.9414 1186.75 15.3072 1186.75 M15.3072 1183.04 Q21.1174 1183.04 24.1729 1187.65 Q27.2516 1192.23 27.2516 1200.98 Q27.2516 1209.71 24.1729 1214.32 Q21.1174 1218.9 15.3072 1218.9 Q9.49704 1218.9 6.41836 1214.32 Q3.36282 1209.71 3.36282 1200.98 Q3.36282 1192.23 6.41836 1187.65 Q9.49704 1183.04 15.3072 1183.04 Z" fill="#000000" fill-rule="evenodd" fill-opacity="1" /><path clip-path="url(#clip850)" d="M 0 0 M32.321 1212.35 L37.2052 1212.35 L37.2052 1218.23 L32.321 1218.23 L32.321 1212.35 Z" fill="#000000" fill-rule="evenodd" fill-opacity="1" /><path clip-path="url(#clip850)" d="M 0 0 M43.0848 1214.29 L50.7237 1214.29 L50.7237 1187.93 L42.4135 1189.6 L42.4135 1185.34 L50.6774 1183.67 L55.3533 1183.67 L55.3533 1214.29 L62.9921 1214.29 L62.9921 1218.23 L43.0848 1218.23 L43.0848 1214.29 Z" fill="#000000" fill-rule="evenodd" fill-opacity="1" /><path clip-path="url(#clip850)" d="M 0 0 M15.6776 908.4 Q12.0665 908.4 10.2378 911.965 Q8.43223 915.506 8.43223 922.636 Q8.43223 929.742 10.2378 933.307 Q12.0665 936.849 15.6776 936.849 Q19.3118 936.849 21.1174 933.307 Q22.946 929.742 22.946 922.636 Q22.946 915.506 21.1174 911.965 Q19.3118 908.4 15.6776 908.4 M15.6776 904.696 Q21.4877 904.696 24.5433 909.303 Q27.6219 913.886 27.6219 922.636 Q27.6219 931.363 24.5433 935.969 Q21.4877 940.553 15.6776 940.553 Q9.86741 940.553 6.78872 935.969 Q3.73318 931.363 3.73318 922.636 Q3.73318 913.886 6.78872 909.303 Q9.86741 904.696 15.6776 904.696 Z" fill="#000000" fill-rule="evenodd" fill-opacity="1" /><path clip-path="url(#clip850)" d="M 0 0 M32.6914 934.002 L37.5756 934.002 L37.5756 939.881 L32.6914 939.881 L32.6914 934.002 Z" fill="#000000" fill-rule="evenodd" fill-opacity="1" /><path clip-path="url(#clip850)" d="M 0 0 M46.6728 935.946 L62.9921 935.946 L62.9921 939.881 L41.0478 939.881 L41.0478 935.946 Q43.7098 933.191 48.2931 928.562 Q52.8996 923.909 54.0801 922.567 Q56.3255 920.043 57.2051 918.307 Q58.1079 916.548 58.1079 914.858 Q58.1079 912.104 56.1635 910.367 Q54.2422 908.631 51.1403 908.631 Q48.9413 908.631 46.4876 909.395 Q44.057 910.159 41.2793 911.71 L41.2793 906.988 Q44.1033 905.854 46.557 905.275 Q49.0107 904.696 51.0477 904.696 Q56.4181 904.696 59.6125 907.381 Q62.8069 910.067 62.8069 914.557 Q62.8069 916.687 61.9968 918.608 Q61.2097 920.506 59.1033 923.099 Q58.5246 923.77 55.4227 926.988 Q52.3209 930.182 46.6728 935.946 Z" fill="#000000" fill-rule="evenodd" fill-opacity="1" /><path clip-path="url(#clip850)" d="M 0 0 M14.7285 630.052 Q11.1174 630.052 9.28871 633.617 Q7.48316 637.158 7.48316 644.288 Q7.48316 651.394 9.28871 654.959 Q11.1174 658.501 14.7285 658.501 Q18.3627 658.501 20.1683 654.959 Q21.997 651.394 21.997 644.288 Q21.997 637.158 20.1683 633.617 Q18.3627 630.052 14.7285 630.052 M14.7285 626.348 Q20.5386 626.348 23.5942 630.955 Q26.6729 635.538 26.6729 644.288 Q26.6729 653.015 23.5942 657.621 Q20.5386 662.204 14.7285 662.204 Q8.91834 662.204 5.83965 657.621 Q2.78412 653.015 2.78412 644.288 Q2.78412 635.538 5.83965 630.955 Q8.91834 626.348 14.7285 626.348 Z" fill="#000000" fill-rule="evenodd" fill-opacity="1" /><path clip-path="url(#clip850)" d="M 0 0 M31.7423 655.653 L36.6265 655.653 L36.6265 661.533 L31.7423 661.533 L31.7423 655.653 Z" fill="#000000" fill-rule="evenodd" fill-opacity="1" /><path clip-path="url(#clip850)" d="M 0 0 M55.8625 642.899 Q59.219 643.616 61.094 645.885 Q62.9921 648.153 62.9921 651.487 Q62.9921 656.603 59.4736 659.403 Q55.9551 662.204 49.4737 662.204 Q47.2978 662.204 44.983 661.765 Q42.6913 661.348 40.2376 660.491 L40.2376 655.978 Q42.1821 657.112 44.4969 657.69 Q46.8117 658.269 49.3348 658.269 Q53.7329 658.269 56.0246 656.533 Q58.3394 654.797 58.3394 651.487 Q58.3394 648.431 56.1866 646.718 Q54.057 644.982 50.2376 644.982 L46.2098 644.982 L46.2098 641.14 L50.4227 641.14 Q53.8718 641.14 55.7005 639.774 Q57.5292 638.385 57.5292 635.792 Q57.5292 633.13 55.6311 631.718 Q53.7561 630.283 50.2376 630.283 Q48.3163 630.283 46.1172 630.7 Q43.9182 631.117 41.2793 631.996 L41.2793 627.83 Q43.9413 627.089 46.2561 626.718 Q48.5941 626.348 50.6542 626.348 Q55.9783 626.348 59.0801 628.779 Q62.1819 631.186 62.1819 635.306 Q62.1819 638.177 60.5384 640.167 Q58.8949 642.135 55.8625 642.899 Z" fill="#000000" fill-rule="evenodd" fill-opacity="1" /><path clip-path="url(#clip850)" d="M 0 0 M13.5942 351.704 Q9.98315 351.704 8.15446 355.268 Q6.34891 358.81 6.34891 365.94 Q6.34891 373.046 8.15446 376.611 Q9.98315 380.152 13.5942 380.152 Q17.2285 380.152 19.034 376.611 Q20.8627 373.046 20.8627 365.94 Q20.8627 358.81 19.034 355.268 Q17.2285 351.704 13.5942 351.704 M13.5942 348 Q19.4044 348 22.4599 352.606 Q25.5386 357.19 25.5386 365.94 Q25.5386 374.666 22.4599 379.273 Q19.4044 383.856 13.5942 383.856 Q7.78409 383.856 4.7054 379.273 Q1.64986 374.666 1.64986 365.94 Q1.64986 357.19 4.7054 352.606 Q7.78409 348 13.5942 348 Z" fill="#000000" fill-rule="evenodd" fill-opacity="1" /><path clip-path="url(#clip850)" d="M 0 0 M30.608 377.305 L35.4923 377.305 L35.4923 383.185 L30.608 383.185 L30.608 377.305 Z" fill="#000000" fill-rule="evenodd" fill-opacity="1" /><path clip-path="url(#clip850)" d="M 0 0 M53.4088 352.699 L41.6034 371.148 L53.4088 371.148 L53.4088 352.699 M52.182 348.625 L58.0616 348.625 L58.0616 371.148 L62.9921 371.148 L62.9921 375.037 L58.0616 375.037 L58.0616 383.185 L53.4088 383.185 L53.4088 375.037 L37.8071 375.037 L37.8071 370.523 L52.182 348.625 Z" fill="#000000" fill-rule="evenodd" fill-opacity="1" /><path clip-path="url(#clip850)" d="M 0 0 M15.0757 73.3554 Q11.4646 73.3554 9.63593 76.9202 Q7.83038 80.4618 7.83038 87.5914 Q7.83038 94.6979 9.63593 98.2627 Q11.4646 101.804 15.0757 101.804 Q18.71 101.804 20.5155 98.2627 Q22.3442 94.6979 22.3442 87.5914 Q22.3442 80.4618 20.5155 76.9202 Q18.71 73.3554 15.0757 73.3554 M15.0757 69.6517 Q20.8859 69.6517 23.9414 74.2582 Q27.0201 78.8415 27.0201 87.5914 Q27.0201 96.3182 23.9414 100.925 Q20.8859 105.508 15.0757 105.508 Q9.26556 105.508 6.18687 100.925 Q3.13134 96.3182 3.13134 87.5914 Q3.13134 78.8415 6.18687 74.2582 Q9.26556 69.6517 15.0757 69.6517 Z" fill="#000000" fill-rule="evenodd" fill-opacity="1" /><path clip-path="url(#clip850)" d="M 0 0 M32.0895 98.9571 L36.9737 98.9571 L36.9737 104.837 L32.0895 104.837 L32.0895 98.9571 Z" fill="#000000" fill-rule="evenodd" fill-opacity="1" /><path clip-path="url(#clip850)" d="M 0 0 M42.0895 70.2767 L60.4458 70.2767 L60.4458 74.2119 L46.3718 74.2119 L46.3718 82.684 Q47.3904 82.3368 48.4089 82.1748 Q49.4274 81.9896 50.4459 81.9896 Q56.2329 81.9896 59.6125 85.1609 Q62.9921 88.3322 62.9921 93.7488 Q62.9921 99.3275 59.5199 102.429 Q56.0477 105.508 49.7283 105.508 Q47.5524 105.508 45.2839 105.138 Q43.0385 104.767 40.6311 104.027 L40.6311 99.3275 Q42.7145 100.462 44.9367 101.017 Q47.1589 101.573 49.6357 101.573 Q53.6403 101.573 55.9783 99.4664 Q58.3162 97.3599 58.3162 93.7488 Q58.3162 90.1377 55.9783 88.0312 Q53.6403 85.9248 49.6357 85.9248 Q47.7607 85.9248 45.8857 86.3414 Q44.0339 86.7581 42.0895 87.6377 L42.0895 70.2767 Z" fill="#000000" fill-rule="evenodd" fill-opacity="1" /><path clip-path="url(#clip852)" d="
M151.118 1254.68 L153.11 1249.34 L155.103 1243.96 L157.096 1238.56 L159.089 1233.13 L161.081 1227.68 L163.074 1222.21 L165.067 1216.73 L167.06 1211.23 L169.053 1205.72 
  L171.045 1200.21 L173.038 1194.69 L175.031 1189.17 L177.024 1183.66 L179.017 1178.14 L181.009 1172.63 L183.002 1167.14 L184.995 1161.65 L186.988 1156.18 L188.98 1150.73 
  L190.973 1145.29 L192.966 1139.88 L194.959 1134.49 L196.952 1129.13 L198.944 1123.8 L200.937 1118.5 L202.93 1113.24 L204.923 1108 L206.916 1102.81 L208.908 1097.66 
  L210.901 1092.54 L212.894 1087.47 L214.887 1082.44 L216.879 1077.46 L218.872 1072.52 L220.865 1067.64 L222.858 1062.8 L224.851 1058.01 L226.843 1053.27 L228.836 1048.59 
  L230.829 1043.96 L232.822 1039.38 L234.815 1034.85 L236.807 1030.38 L238.8 1025.97 L240.793 1021.61 L242.786 1017.3 L244.778 1013.05 L246.771 1008.85 L248.764 1004.7 
  L250.757 1000.61 L252.75 996.579 L254.742 992.595 L256.735 988.664 L258.728 984.785 L260.721 980.956 L262.714 977.177 L264.706 973.447 L266.699 969.764 L268.692 966.128 
  L270.685 962.537 L272.677 958.99 L274.67 955.485 L276.663 952.022 L278.656 948.598 L280.649 945.213 L282.641 941.863 L284.634 938.549 L286.627 935.268 L288.62 932.018 
  L290.613 928.798 L292.605 925.606 L294.598 922.441 L296.591 919.299 L298.584 916.18 L300.576 913.082 L302.569 910.003 L304.562 906.941 L306.555 903.895 L308.548 900.862 
  L310.54 897.841 L312.533 894.83 L314.526 891.828 L316.519 888.833 L318.512 885.843 L320.504 882.857 L322.497 879.873 L324.49 876.89 L326.483 873.907 L328.475 870.921 
  L330.468 867.932 L332.461 864.939 L334.454 861.94 L336.447 858.935 L338.439 855.922 L340.432 852.9 L342.425 849.869 L344.418 846.828 L346.411 843.777 L348.403 840.713 
  L348.403 1479.3 L346.411 1479.3 L344.418 1479.3 L342.425 1479.3 L340.432 1479.3 L338.439 1479.3 L336.447 1479.3 L334.454 1479.3 L332.461 1479.3 L330.468 1479.3 
  L328.475 1479.3 L326.483 1479.3 L324.49 1479.3 L322.497 1479.3 L320.504 1479.3 L318.512 1479.3 L316.519 1479.3 L314.526 1479.3 L312.533 1479.3 L310.54 1479.3 
  L308.548 1479.3 L306.555 1479.3 L304.562 1479.3 L302.569 1479.3 L300.576 1479.3 L298.584 1479.3 L296.591 1479.3 L294.598 1479.3 L292.605 1479.3 L290.613 1479.3 
  L288.62 1479.3 L286.627 1479.3 L284.634 1479.3 L282.641 1479.3 L280.649 1479.3 L278.656 1479.3 L276.663 1479.3 L274.67 1479.3 L272.677 1479.3 L270.685 1479.3 
  L268.692 1479.3 L266.699 1479.3 L264.706 1479.3 L262.714 1479.3 L260.721 1479.3 L258.728 1479.3 L256.735 1479.3 L254.742 1479.3 L252.75 1479.3 L250.757 1479.3 
  L248.764 1479.3 L246.771 1479.3 L244.778 1479.3 L242.786 1479.3 L240.793 1479.3 L238.8 1479.3 L236.807 1479.3 L234.815 1479.3 L232.822 1479.3 L230.829 1479.3 
  L228.836 1479.3 L226.843 1479.3 L224.851 1479.3 L222.858 1479.3 L220.865 1479.3 L218.872 1479.3 L216.879 1479.3 L214.887 1479.3 L212.894 1479.3 L210.901 1479.3 
  L208.908 1479.3 L206.916 1479.3 L204.923 1479.3 L202.93 1479.3 L200.937 1479.3 L198.944 1479.3 L196.952 1479.3 L194.959 1479.3 L192.966 1479.3 L190.973 1479.3 
  L188.98 1479.3 L186.988 1479.3 L184.995 1479.3 L183.002 1479.3 L181.009 1479.3 L179.017 1479.3 L177.024 1479.3 L175.031 1479.3 L173.038 1479.3 L171.045 1479.3 
  L169.053 1479.3 L167.06 1479.3 L165.067 1479.3 L163.074 1479.3 L161.081 1479.3 L159.089 1479.3 L157.096 1479.3 L155.103 1479.3 L153.11 1479.3 L151.118 1479.3 
   Z
  " fill="#ffa500" fill-rule="evenodd" fill-opacity="0.5"/>
<polyline clip-path="url(#clip852)" style="stroke:#ffa500; stroke-width:4; stroke-opacity:1; fill:none" points="
  151.118,1254.68 153.11,1249.34 155.103,1243.96 157.096,1238.56 159.089,1233.13 161.081,1227.68 163.074,1222.21 165.067,1216.73 167.06,1211.23 169.053,1205.72 
  171.045,1200.21 173.038,1194.69 175.031,1189.17 177.024,1183.66 179.017,1178.14 181.009,1172.63 183.002,1167.14 184.995,1161.65 186.988,1156.18 188.98,1150.73 
  190.973,1145.29 192.966,1139.88 194.959,1134.49 196.952,1129.13 198.944,1123.8 200.937,1118.5 202.93,1113.24 204.923,1108 206.916,1102.81 208.908,1097.66 
  210.901,1092.54 212.894,1087.47 214.887,1082.44 216.879,1077.46 218.872,1072.52 220.865,1067.64 222.858,1062.8 224.851,1058.01 226.843,1053.27 228.836,1048.59 
  230.829,1043.96 232.822,1039.38 234.815,1034.85 236.807,1030.38 238.8,1025.97 240.793,1021.61 242.786,1017.3 244.778,1013.05 246.771,1008.85 248.764,1004.7 
  250.757,1000.61 252.75,996.579 254.742,992.595 256.735,988.664 258.728,984.785 260.721,980.956 262.714,977.177 264.706,973.447 266.699,969.764 268.692,966.128 
  270.685,962.537 272.677,958.99 274.67,955.485 276.663,952.022 278.656,948.598 280.649,945.213 282.641,941.863 284.634,938.549 286.627,935.268 288.62,932.018 
  290.613,928.798 292.605,925.606 294.598,922.441 296.591,919.299 298.584,916.18 300.576,913.082 302.569,910.003 304.562,906.941 306.555,903.895 308.548,900.862 
  310.54,897.841 312.533,894.83 314.526,891.828 316.519,888.833 318.512,885.843 320.504,882.857 322.497,879.873 324.49,876.89 326.483,873.907 328.475,870.921 
  330.468,867.932 332.461,864.939 334.454,861.94 336.447,858.935 338.439,855.922 340.432,852.9 342.425,849.869 344.418,846.828 346.411,843.777 348.403,840.713 
  
  "/>
<path clip-path="url(#clip852)" d="
M348.403 840.713 L365.963 813.168 L383.522 784.619 L401.082 755.347 L418.641 725.874 L436.201 696.775 L453.76 668.507 L471.32 641.287 L488.879 615.047 L506.439 589.449 
  L523.998 563.962 L541.558 537.974 L559.117 510.93 L576.677 482.463 L594.236 452.496 L611.796 421.258 L629.355 389.231 L646.915 357.012 L664.474 325.162 L682.034 294.115 
  L699.593 264.185 L717.153 235.67 L734.712 208.996 L752.272 184.801 L769.831 163.886 L787.391 147.013 L804.95 134.632 L822.51 126.624 L840.069 122.201 L857.629 120.002 
  L875.188 118.405 L892.748 115.945 L910.307 111.726 L927.867 105.711 L945.426 98.7798 L962.986 92.5442 L980.545 88.9544 L998.105 89.7991 L1015.66 96.2367 L1033.22 108.49 
  L1050.78 125.794 L1068.34 146.607 L1085.9 169.012 L1103.46 191.17 L1121.02 211.679 L1138.58 229.72 L1156.14 244.979 L1173.7 257.399 L1191.26 266.896 L1208.82 273.168 
  L1226.38 275.707 L1243.94 274.007 L1261.5 267.917 L1279.06 257.992 L1296.62 245.684 L1314.18 233.284 L1331.74 223.552 L1349.29 219.167 L1366.85 222.129 L1384.41 233.33 
  L1401.97 252.432 L1419.53 278.053 L1437.09 308.194 L1454.65 340.72 L1472.21 373.736 L1489.77 405.787 L1507.33 435.872 L1524.89 463.363 L1542.45 487.894 L1560.01 509.31 
  L1577.57 527.647 L1595.13 543.139 L1612.69 556.211 L1630.25 567.453 L1647.81 577.584 L1665.37 587.429 L1682.92 597.905 L1700.48 609.988 L1718.04 624.62 L1735.6 642.555 
  L1753.16 664.156 L1770.72 689.226 L1788.28 716.948 L1805.84 746.001 L1823.4 774.816 L1840.96 801.915 L1858.52 826.213 L1876.08 847.189 L1893.64 864.905 L1911.2 879.869 
  L1928.76 892.838 L1946.32 904.613 L1963.88 915.873 L1981.44 927.08 L1999 938.44 L2016.56 949.915 L2034.11 961.281 L2051.67 972.223 L2069.23 982.453 L2086.79 991.821 
  L2086.79 1479.3 L2069.23 1479.3 L2051.67 1479.3 L2034.11 1479.3 L2016.56 1479.3 L1999 1479.3 L1981.44 1479.3 L1963.88 1479.3 L1946.32 1479.3 L1928.76 1479.3 
  L1911.2 1479.3 L1893.64 1479.3 L1876.08 1479.3 L1858.52 1479.3 L1840.96 1479.3 L1823.4 1479.3 L1805.84 1479.3 L1788.28 1479.3 L1770.72 1479.3 L1753.16 1479.3 
  L1735.6 1479.3 L1718.04 1479.3 L1700.48 1479.3 L1682.92 1479.3 L1665.37 1479.3 L1647.81 1479.3 L1630.25 1479.3 L1612.69 1479.3 L1595.13 1479.3 L1577.57 1479.3 
  L1560.01 1479.3 L1542.45 1479.3 L1524.89 1479.3 L1507.33 1479.3 L1489.77 1479.3 L1472.21 1479.3 L1454.65 1479.3 L1437.09 1479.3 L1419.53 1479.3 L1401.97 1479.3 
  L1384.41 1479.3 L1366.85 1479.3 L1349.29 1479.3 L1331.74 1479.3 L1314.18 1479.3 L1296.62 1479.3 L1279.06 1479.3 L1261.5 1479.3 L1243.94 1479.3 L1226.38 1479.3 
  L1208.82 1479.3 L1191.26 1479.3 L1173.7 1479.3 L1156.14 1479.3 L1138.58 1479.3 L1121.02 1479.3 L1103.46 1479.3 L1085.9 1479.3 L1068.34 1479.3 L1050.78 1479.3 
  L1033.22 1479.3 L1015.66 1479.3 L998.105 1479.3 L980.545 1479.3 L962.986 1479.3 L945.426 1479.3 L927.867 1479.3 L910.307 1479.3 L892.748 1479.3 L875.188 1479.3 
  L857.629 1479.3 L840.069 1479.3 L822.51 1479.3 L804.95 1479.3 L787.391 1479.3 L769.831 1479.3 L752.272 1479.3 L734.712 1479.3 L717.153 1479.3 L699.593 1479.3 
  L682.034 1479.3 L664.474 1479.3 L646.915 1479.3 L629.355 1479.3 L611.796 1479.3 L594.236 1479.3 L576.677 1479.3 L559.117 1479.3 L541.558 1479.3 L523.998 1479.3 
  L506.439 1479.3 L488.879 1479.3 L471.32 1479.3 L453.76 1479.3 L436.201 1479.3 L418.641 1479.3 L401.082 1479.3 L383.522 1479.3 L365.963 1479.3 L348.403 1479.3 
   Z
  " fill="#008000" fill-rule="evenodd" fill-opacity="0.5"/>
<polyline clip-path="url(#clip852)" style="stroke:#008000; stroke-width:4; stroke-opacity:1; fill:none" points="
  348.403,840.713 365.963,813.168 383.522,784.619 401.082,755.347 418.641,725.874 436.201,696.775 453.76,668.507 471.32,641.287 488.879,615.047 506.439,589.449 
  523.998,563.962 541.558,537.974 559.117,510.93 576.677,482.463 594.236,452.496 611.796,421.258 629.355,389.231 646.915,357.012 664.474,325.162 682.034,294.115 
  699.593,264.185 717.153,235.67 734.712,208.996 752.272,184.801 769.831,163.886 787.391,147.013 804.95,134.632 822.51,126.624 840.069,122.201 857.629,120.002 
  875.188,118.405 892.748,115.945 910.307,111.726 927.867,105.711 945.426,98.7798 962.986,92.5442 980.545,88.9544 998.105,89.7991 1015.66,96.2367 1033.22,108.49 
  1050.78,125.794 1068.34,146.607 1085.9,169.012 1103.46,191.17 1121.02,211.679 1138.58,229.72 1156.14,244.979 1173.7,257.399 1191.26,266.896 1208.82,273.168 
  1226.38,275.707 1243.94,274.007 1261.5,267.917 1279.06,257.992 1296.62,245.684 1314.18,233.284 1331.74,223.552 1349.29,219.167 1366.85,222.129 1384.41,233.33 
  1401.97,252.432 1419.53,278.053 1437.09,308.194 1454.65,340.72 1472.21,373.736 1489.77,405.787 1507.33,435.872 1524.89,463.363 1542.45,487.894 1560.01,509.31 
  1577.57,527.647 1595.13,543.139 1612.69,556.211 1630.25,567.453 1647.81,577.584 1665.37,587.429 1682.92,597.905 1700.48,609.988 1718.04,624.62 1735.6,642.555 
  1753.16,664.156 1770.72,689.226 1788.28,716.948 1805.84,746.001 1823.4,774.816 1840.96,801.915 1858.52,826.213 1876.08,847.189 1893.64,864.905 1911.2,879.869 
  1928.76,892.838 1946.32,904.613 1963.88,915.873 1981.44,927.08 1999,938.44 2016.56,949.915 2034.11,961.281 2051.67,972.223 2069.23,982.453 2086.79,991.821 
  
  "/>
<path clip-path="url(#clip852)" d="
M2086.79 991.821 L2088.83 992.854 L2090.87 993.876 L2092.91 994.889 L2094.95 995.891 L2096.99 996.885 L2099.03 997.87 L2101.06 998.847 L2103.1 999.817 L2105.14 1000.78 
  L2107.18 1001.74 L2109.22 1002.69 L2111.26 1003.64 L2113.3 1004.59 L2115.34 1005.53 L2117.37 1006.47 L2119.41 1007.41 L2121.45 1008.36 L2123.49 1009.3 L2125.53 1010.25 
  L2127.57 1011.21 L2129.61 1012.17 L2131.65 1013.14 L2133.68 1014.11 L2135.72 1015.1 L2137.76 1016.1 L2139.8 1017.11 L2141.84 1018.14 L2143.88 1019.18 L2145.92 1020.25 
  L2147.96 1021.33 L2149.99 1022.43 L2152.03 1023.56 L2154.07 1024.71 L2156.11 1025.89 L2158.15 1027.09 L2160.19 1028.33 L2162.23 1029.6 L2164.27 1030.9 L2166.3 1032.24 
  L2168.34 1033.61 L2170.38 1035.03 L2172.42 1036.48 L2174.46 1037.98 L2176.5 1039.53 L2178.54 1041.12 L2180.58 1042.76 L2182.62 1044.45 L2184.65 1046.19 L2186.69 1047.98 
  L2188.73 1049.83 L2190.77 1051.74 L2192.81 1053.71 L2194.85 1055.73 L2196.89 1057.82 L2198.93 1059.97 L2200.96 1062.19 L2203 1064.47 L2205.04 1066.82 L2207.08 1069.24 
  L2209.12 1071.73 L2211.16 1074.29 L2213.2 1076.92 L2215.24 1079.63 L2217.27 1082.41 L2219.31 1085.26 L2221.35 1088.19 L2223.39 1091.19 L2225.43 1094.27 L2227.47 1097.43 
  L2229.51 1100.66 L2231.55 1103.97 L2233.58 1107.36 L2235.62 1110.82 L2237.66 1114.36 L2239.7 1117.97 L2241.74 1121.66 L2243.78 1125.42 L2245.82 1129.25 L2247.86 1133.16 
  L2249.89 1137.14 L2251.93 1141.18 L2253.97 1145.3 L2256.01 1149.48 L2258.05 1153.72 L2260.09 1158.03 L2262.13 1162.4 L2264.17 1166.83 L2266.2 1171.31 L2268.24 1175.85 
  L2270.28 1180.44 L2272.32 1185.08 L2274.36 1189.76 L2276.4 1194.49 L2278.44 1199.25 L2280.48 1204.06 L2282.51 1208.89 L2284.55 1213.76 L2286.59 1218.66 L2288.63 1223.58 
  L2288.63 1479.3 L2286.59 1479.3 L2284.55 1479.3 L2282.51 1479.3 L2280.48 1479.3 L2278.44 1479.3 L2276.4 1479.3 L2274.36 1479.3 L2272.32 1479.3 L2270.28 1479.3 
  L2268.24 1479.3 L2266.2 1479.3 L2264.17 1479.3 L2262.13 1479.3 L2260.09 1479.3 L2258.05 1479.3 L2256.01 1479.3 L2253.97 1479.3 L2251.93 1479.3 L2249.89 1479.3 
  L2247.86 1479.3 L2245.82 1479.3 L2243.78 1479.3 L2241.74 1479.3 L2239.7 1479.3 L2237.66 1479.3 L2235.62 1479.3 L2233.58 1479.3 L2231.55 1479.3 L2229.51 1479.3 
  L2227.47 1479.3 L2225.43 1479.3 L2223.39 1479.3 L2221.35 1479.3 L2219.31 1479.3 L2217.27 1479.3 L2215.24 1479.3 L2213.2 1479.3 L2211.16 1479.3 L2209.12 1479.3 
  L2207.08 1479.3 L2205.04 1479.3 L2203 1479.3 L2200.96 1479.3 L2198.93 1479.3 L2196.89 1479.3 L2194.85 1479.3 L2192.81 1479.3 L2190.77 1479.3 L2188.73 1479.3 
  L2186.69 1479.3 L2184.65 1479.3 L2182.62 1479.3 L2180.58 1479.3 L2178.54 1479.3 L2176.5 1479.3 L2174.46 1479.3 L2172.42 1479.3 L2170.38 1479.3 L2168.34 1479.3 
  L2166.3 1479.3 L2164.27 1479.3 L2162.23 1479.3 L2160.19 1479.3 L2158.15 1479.3 L2156.11 1479.3 L2154.07 1479.3 L2152.03 1479.3 L2149.99 1479.3 L2147.96 1479.3 
  L2145.92 1479.3 L2143.88 1479.3 L2141.84 1479.3 L2139.8 1479.3 L2137.76 1479.3 L2135.72 1479.3 L2133.68 1479.3 L2131.65 1479.3 L2129.61 1479.3 L2127.57 1479.3 
  L2125.53 1479.3 L2123.49 1479.3 L2121.45 1479.3 L2119.41 1479.3 L2117.37 1479.3 L2115.34 1479.3 L2113.3 1479.3 L2111.26 1479.3 L2109.22 1479.3 L2107.18 1479.3 
  L2105.14 1479.3 L2103.1 1479.3 L2101.06 1479.3 L2099.03 1479.3 L2096.99 1479.3 L2094.95 1479.3 L2092.91 1479.3 L2090.87 1479.3 L2088.83 1479.3 L2086.79 1479.3 
   Z
  " fill="#ffa500" fill-rule="evenodd" fill-opacity="0.5"/>
<polyline clip-path="url(#clip852)" style="stroke:#ffa500; stroke-width:4; stroke-opacity:1; fill:none" points="
  2086.79,991.821 2088.83,992.854 2090.87,993.876 2092.91,994.889 2094.95,995.891 2096.99,996.885 2099.03,997.87 2101.06,998.847 2103.1,999.817 2105.14,1000.78 
  2107.18,1001.74 2109.22,1002.69 2111.26,1003.64 2113.3,1004.59 2115.34,1005.53 2117.37,1006.47 2119.41,1007.41 2121.45,1008.36 2123.49,1009.3 2125.53,1010.25 
  2127.57,1011.21 2129.61,1012.17 2131.65,1013.14 2133.68,1014.11 2135.72,1015.1 2137.76,1016.1 2139.8,1017.11 2141.84,1018.14 2143.88,1019.18 2145.92,1020.25 
  2147.96,1021.33 2149.99,1022.43 2152.03,1023.56 2154.07,1024.71 2156.11,1025.89 2158.15,1027.09 2160.19,1028.33 2162.23,1029.6 2164.27,1030.9 2166.3,1032.24 
  2168.34,1033.61 2170.38,1035.03 2172.42,1036.48 2174.46,1037.98 2176.5,1039.53 2178.54,1041.12 2180.58,1042.76 2182.62,1044.45 2184.65,1046.19 2186.69,1047.98 
  2188.73,1049.83 2190.77,1051.74 2192.81,1053.71 2194.85,1055.73 2196.89,1057.82 2198.93,1059.97 2200.96,1062.19 2203,1064.47 2205.04,1066.82 2207.08,1069.24 
  2209.12,1071.73 2211.16,1074.29 2213.2,1076.92 2215.24,1079.63 2217.27,1082.41 2219.31,1085.26 2221.35,1088.19 2223.39,1091.19 2225.43,1094.27 2227.47,1097.43 
  2229.51,1100.66 2231.55,1103.97 2233.58,1107.36 2235.62,1110.82 2237.66,1114.36 2239.7,1117.97 2241.74,1121.66 2243.78,1125.42 2245.82,1129.25 2247.86,1133.16 
  2249.89,1137.14 2251.93,1141.18 2253.97,1145.3 2256.01,1149.48 2258.05,1153.72 2260.09,1158.03 2262.13,1162.4 2264.17,1166.83 2266.2,1171.31 2268.24,1175.85 
  2270.28,1180.44 2272.32,1185.08 2274.36,1189.76 2276.4,1194.49 2278.44,1199.25 2280.48,1204.06 2282.51,1208.89 2284.55,1213.76 2286.59,1218.66 2288.63,1223.58 
  
  "/>
<polyline clip-path="url(#clip852)" style="stroke:#0000ff; stroke-width:4; stroke-opacity:1; fill:none" points="
  1158.72,1479.3 1158.72,246.985 
  "/>
<polyline clip-path="url(#clip852)" style="stroke:#000000; stroke-width:4; stroke-opacity:1; fill:none" points="
  1122.82,1479.3 1122.82,213.647 
  "/>
<path clip-path="url(#clip850)" d="
M1494.58 459.25 L2277.23 459.25 L2277.23 96.3696 L1494.58 96.3696  Z
  " fill="#ffffff" fill-rule="evenodd" fill-opacity="1"/>
<polyline clip-path="url(#clip850)" style="stroke:#000000; stroke-width:4; stroke-opacity:1; fill:none" points="
  1494.58,459.25 2277.23,459.25 2277.23,96.3696 1494.58,96.3696 1494.58,459.25 
  "/>
<path clip-path="url(#clip850)" d="
M1519.75 181.042 L1670.81 181.042 L1670.81 132.658 L1519.75 132.658 L1519.75 181.042  Z
  " fill="#ffa500" fill-rule="evenodd" fill-opacity="0.5"/>
<polyline clip-path="url(#clip850)" style="stroke:#ffa500; stroke-width:4; stroke-opacity:1; fill:none" points="
  1519.75,132.658 1670.81,132.658 
  "/>
<path clip-path="url(#clip850)" d="M 0 0 M1700.38 161.19 Q1700.38 165.889 1702.3 168.574 Q1704.24 171.236 1707.62 171.236 Q1711 171.236 1712.95 168.574 Q1714.89 165.889 1714.89 161.19 Q1714.89 156.491 1712.95 153.829 Q1711 151.144 1707.62 151.144 Q1704.24 151.144 1702.3 153.829 Q1700.38 156.491 1700.38 161.19 M1714.89 170.241 Q1713.55 172.555 1711.49 173.69 Q1709.45 174.801 1706.58 174.801 Q1701.88 174.801 1698.92 171.051 Q1695.98 167.301 1695.98 161.19 Q1695.98 155.079 1698.92 151.329 Q1701.88 147.579 1706.58 147.579 Q1709.45 147.579 1711.49 148.713 Q1713.55 149.824 1714.89 152.139 L1714.89 148.204 L1719.15 148.204 L1719.15 183.991 L1714.89 183.991 L1714.89 170.241 Z" fill="#000000" fill-rule="evenodd" fill-opacity="1" /><path clip-path="url(#clip850)" d="M 0 0 M1734.22 142.648 Q1730.61 142.648 1728.78 146.213 Q1726.98 149.755 1726.98 156.884 Q1726.98 163.991 1728.78 167.556 Q1730.61 171.097 1734.22 171.097 Q1737.85 171.097 1739.66 167.556 Q1741.49 163.991 1741.49 156.884 Q1741.49 149.755 1739.66 146.213 Q1737.85 142.648 1734.22 142.648 M1734.22 138.945 Q1740.03 138.945 1743.09 143.551 Q1746.17 148.134 1746.17 156.884 Q1746.17 165.611 1743.09 170.218 Q1740.03 174.801 1734.22 174.801 Q1728.41 174.801 1725.33 170.218 Q1722.28 165.611 1722.28 156.884 Q1722.28 148.134 1725.33 143.551 Q1728.41 138.945 1734.22 138.945 Z" fill="#000000" fill-rule="evenodd" fill-opacity="1" /><path clip-path="url(#clip850)" d="M 0 0 M1751.28 139.57 L1769.64 139.57 L1769.64 143.505 L1755.56 143.505 L1755.56 151.977 Q1756.58 151.63 1757.6 151.468 Q1758.62 151.282 1759.64 151.282 Q1765.42 151.282 1768.8 154.454 Q1772.18 157.625 1772.18 163.042 Q1772.18 168.62 1768.71 171.722 Q1765.24 174.801 1758.92 174.801 Q1756.74 174.801 1754.48 174.43 Q1752.23 174.06 1749.82 173.319 L1749.82 168.62 Q1751.91 169.755 1754.13 170.31 Q1756.35 170.866 1758.83 170.866 Q1762.83 170.866 1765.17 168.759 Q1767.51 166.653 1767.51 163.042 Q1767.51 159.431 1765.17 157.324 Q1762.83 155.218 1758.83 155.218 Q1756.95 155.218 1755.08 155.634 Q1753.23 156.051 1751.28 156.931 L1751.28 139.57 Z" fill="#000000" fill-rule="evenodd" fill-opacity="1" /><path clip-path="url(#clip850)" d="
M1519.75 241.522 L1670.81 241.522 L1670.81 193.138 L1519.75 193.138 L1519.75 241.522  Z
  " fill="#008000" fill-rule="evenodd" fill-opacity="0.5"/>
<polyline clip-path="url(#clip850)" style="stroke:#008000; stroke-width:4; stroke-opacity:1; fill:none" points="
  1519.75,193.138 1670.81,193.138 
  "/>
<path clip-path="url(#clip850)" d="M 0 0 M1698.2 233.892 L1698.2 229.633 Q1699.96 230.466 1701.77 230.906 Q1703.57 231.346 1705.31 231.346 Q1709.94 231.346 1712.37 228.244 Q1714.82 225.119 1715.17 218.776 Q1713.83 220.767 1711.77 221.832 Q1709.71 222.897 1707.21 222.897 Q1702.02 222.897 1698.99 219.772 Q1695.98 216.624 1695.98 211.184 Q1695.98 205.86 1699.13 202.642 Q1702.28 199.425 1707.51 199.425 Q1713.5 199.425 1716.65 204.031 Q1719.82 208.614 1719.82 217.364 Q1719.82 225.536 1715.93 230.42 Q1712.07 235.281 1705.52 235.281 Q1703.76 235.281 1701.95 234.934 Q1700.15 234.586 1698.2 233.892 M1707.51 219.239 Q1710.66 219.239 1712.48 217.086 Q1714.34 214.934 1714.34 211.184 Q1714.34 207.457 1712.48 205.304 Q1710.66 203.128 1707.51 203.128 Q1704.36 203.128 1702.51 205.304 Q1700.68 207.457 1700.68 211.184 Q1700.68 214.934 1702.51 217.086 Q1704.36 219.239 1707.51 219.239 Z" fill="#000000" fill-rule="evenodd" fill-opacity="1" /><path clip-path="url(#clip850)" d="M 0 0 M1734.89 203.128 Q1731.28 203.128 1729.45 206.693 Q1727.65 210.235 1727.65 217.364 Q1727.65 224.471 1729.45 228.036 Q1731.28 231.577 1734.89 231.577 Q1738.53 231.577 1740.33 228.036 Q1742.16 224.471 1742.16 217.364 Q1742.16 210.235 1740.33 206.693 Q1738.53 203.128 1734.89 203.128 M1734.89 199.425 Q1740.7 199.425 1743.76 204.031 Q1746.84 208.614 1746.84 217.364 Q1746.84 226.091 1743.76 230.698 Q1740.7 235.281 1734.89 235.281 Q1729.08 235.281 1726 230.698 Q1722.95 226.091 1722.95 217.364 Q1722.95 208.614 1726 204.031 Q1729.08 199.425 1734.89 199.425 Z" fill="#000000" fill-rule="evenodd" fill-opacity="1" /><path clip-path="url(#clip850)" d="M 0 0 M1781.3 219.401 Q1779.29 219.401 1778.13 221.114 Q1777 222.827 1777 225.883 Q1777 228.892 1778.13 230.628 Q1779.29 232.341 1781.3 232.341 Q1783.27 232.341 1784.41 230.628 Q1785.56 228.892 1785.56 225.883 Q1785.56 222.85 1784.41 221.137 Q1783.27 219.401 1781.3 219.401 M1781.3 216.462 Q1784.96 216.462 1787.11 219.008 Q1789.27 221.554 1789.27 225.883 Q1789.27 230.211 1787.09 232.758 Q1784.94 235.281 1781.3 235.281 Q1777.6 235.281 1775.45 232.758 Q1773.29 230.211 1773.29 225.883 Q1773.29 221.531 1775.45 219.008 Q1777.62 216.462 1781.3 216.462 M1757.42 202.364 Q1755.42 202.364 1754.27 204.1 Q1753.13 205.813 1753.13 208.823 Q1753.13 211.878 1754.27 213.591 Q1755.4 215.304 1757.42 215.304 Q1759.43 215.304 1760.56 213.591 Q1761.72 211.878 1761.72 208.823 Q1761.72 205.837 1760.56 204.1 Q1759.41 202.364 1757.42 202.364 M1778.32 199.425 L1782.02 199.425 L1760.4 235.281 L1756.7 235.281 L1778.32 199.425 M1757.42 199.425 Q1761.07 199.425 1763.25 201.971 Q1765.42 204.494 1765.42 208.823 Q1765.42 213.198 1763.25 215.721 Q1761.1 218.244 1757.42 218.244 Q1753.73 218.244 1751.58 215.721 Q1749.45 213.174 1749.45 208.823 Q1749.45 204.517 1751.6 201.971 Q1753.76 199.425 1757.42 199.425 Z" fill="#000000" fill-rule="evenodd" fill-opacity="1" /><path clip-path="url(#clip850)" d="M 0 0 M1830.35 218.961 L1830.35 234.61 L1826.1 234.61 L1826.1 219.1 Q1826.1 215.42 1824.66 213.591 Q1823.22 211.762 1820.35 211.762 Q1816.91 211.762 1814.91 213.962 Q1812.92 216.161 1812.92 219.957 L1812.92 234.61 L1808.64 234.61 L1808.64 208.684 L1812.92 208.684 L1812.92 212.712 Q1814.45 210.374 1816.51 209.216 Q1818.6 208.059 1821.3 208.059 Q1825.77 208.059 1828.06 210.837 Q1830.35 213.591 1830.35 218.961 Z" fill="#000000" fill-rule="evenodd" fill-opacity="1" /><path clip-path="url(#clip850)" d="M 0 0 M1844.87 211.67 Q1841.44 211.67 1839.45 214.355 Q1837.46 217.017 1837.46 221.67 Q1837.46 226.323 1839.43 229.008 Q1841.42 231.67 1844.87 231.67 Q1848.27 231.67 1850.26 228.985 Q1852.25 226.299 1852.25 221.67 Q1852.25 217.063 1850.26 214.378 Q1848.27 211.67 1844.87 211.67 M1844.87 208.059 Q1850.42 208.059 1853.6 211.67 Q1856.77 215.281 1856.77 221.67 Q1856.77 228.036 1853.6 231.67 Q1850.42 235.281 1844.87 235.281 Q1839.29 235.281 1836.12 231.67 Q1832.97 228.036 1832.97 221.67 Q1832.97 215.281 1836.12 211.67 Q1839.29 208.059 1844.87 208.059 Z" fill="#000000" fill-rule="evenodd" fill-opacity="1" /><path clip-path="url(#clip850)" d="M 0 0 M1882.78 218.961 L1882.78 234.61 L1878.53 234.61 L1878.53 219.1 Q1878.53 215.42 1877.09 213.591 Q1875.66 211.762 1872.78 211.762 Q1869.34 211.762 1867.35 213.962 Q1865.35 216.161 1865.35 219.957 L1865.35 234.61 L1861.07 234.61 L1861.07 208.684 L1865.35 208.684 L1865.35 212.712 Q1866.88 210.374 1868.94 209.216 Q1871.03 208.059 1873.73 208.059 Q1878.2 208.059 1880.49 210.837 Q1882.78 213.591 1882.78 218.961 Z" fill="#000000" fill-rule="evenodd" fill-opacity="1" /><path clip-path="url(#clip850)" d="M 0 0 M1885.1 219.725 L1897.58 219.725 L1897.58 223.522 L1885.1 223.522 L1885.1 219.725 Z" fill="#000000" fill-rule="evenodd" fill-opacity="1" /><path clip-path="url(#clip850)" d="M 0 0 M1917.07 212.665 Q1916.35 212.249 1915.49 212.063 Q1914.66 211.855 1913.64 211.855 Q1910.03 211.855 1908.09 214.216 Q1906.16 216.554 1906.16 220.952 L1906.16 234.61 L1901.88 234.61 L1901.88 208.684 L1906.16 208.684 L1906.16 212.712 Q1907.51 210.35 1909.66 209.216 Q1911.81 208.059 1914.89 208.059 Q1915.33 208.059 1915.86 208.128 Q1916.4 208.175 1917.04 208.29 L1917.07 212.665 Z" fill="#000000" fill-rule="evenodd" fill-opacity="1" /><path clip-path="url(#clip850)" d="M 0 0 M1942.67 220.582 L1942.67 222.665 L1923.09 222.665 Q1923.36 227.063 1925.72 229.378 Q1928.11 231.67 1932.34 231.67 Q1934.8 231.67 1937.09 231.068 Q1939.4 230.466 1941.67 229.262 L1941.67 233.29 Q1939.38 234.262 1936.97 234.772 Q1934.57 235.281 1932.09 235.281 Q1925.89 235.281 1922.25 231.67 Q1918.64 228.059 1918.64 221.901 Q1918.64 215.536 1922.07 211.809 Q1925.52 208.059 1931.35 208.059 Q1936.58 208.059 1939.61 211.438 Q1942.67 214.795 1942.67 220.582 M1938.41 219.332 Q1938.36 215.837 1936.44 213.753 Q1934.54 211.67 1931.4 211.67 Q1927.83 211.67 1925.68 213.684 Q1923.55 215.698 1923.22 219.355 L1938.41 219.332 Z" fill="#000000" fill-rule="evenodd" fill-opacity="1" /><path clip-path="url(#clip850)" d="M 0 0 M1947.14 208.684 L1951.4 208.684 L1951.4 235.073 Q1951.4 240.026 1949.5 242.248 Q1947.62 244.471 1943.43 244.471 L1941.81 244.471 L1941.81 240.86 L1942.95 240.86 Q1945.38 240.86 1946.26 239.725 Q1947.14 238.614 1947.14 235.073 L1947.14 208.684 M1947.14 198.591 L1951.4 198.591 L1951.4 203.985 L1947.14 203.985 L1947.14 198.591 Z" fill="#000000" fill-rule="evenodd" fill-opacity="1" /><path clip-path="url(#clip850)" d="M 0 0 M1978.04 220.582 L1978.04 222.665 L1958.46 222.665 Q1958.73 227.063 1961.09 229.378 Q1963.48 231.67 1967.71 231.67 Q1970.17 231.67 1972.46 231.068 Q1974.78 230.466 1977.04 229.262 L1977.04 233.29 Q1974.75 234.262 1972.34 234.772 Q1969.94 235.281 1967.46 235.281 Q1961.26 235.281 1957.62 231.67 Q1954.01 228.059 1954.01 221.901 Q1954.01 215.536 1957.44 211.809 Q1960.89 208.059 1966.72 208.059 Q1971.95 208.059 1974.98 211.438 Q1978.04 214.795 1978.04 220.582 M1973.78 219.332 Q1973.73 215.837 1971.81 213.753 Q1969.91 211.67 1966.77 211.67 Q1963.2 211.67 1961.05 213.684 Q1958.92 215.698 1958.59 219.355 L1973.78 219.332 Z" fill="#000000" fill-rule="evenodd" fill-opacity="1" /><path clip-path="url(#clip850)" d="M 0 0 M2001.16 209.679 L2001.16 213.661 Q1999.36 212.665 1997.53 212.179 Q1995.72 211.67 1993.87 211.67 Q1989.73 211.67 1987.44 214.309 Q1985.15 216.924 1985.15 221.67 Q1985.15 226.415 1987.44 229.054 Q1989.73 231.67 1993.87 231.67 Q1995.72 231.67 1997.53 231.184 Q1999.36 230.674 2001.16 229.679 L2001.16 233.614 Q1999.38 234.448 1997.46 234.864 Q1995.56 235.281 1993.41 235.281 Q1987.55 235.281 1984.1 231.6 Q1980.65 227.92 1980.65 221.67 Q1980.65 215.327 1984.13 211.693 Q1987.62 208.059 1993.69 208.059 Q1995.65 208.059 1997.53 208.475 Q1999.4 208.869 2001.16 209.679 Z" fill="#000000" fill-rule="evenodd" fill-opacity="1" /><path clip-path="url(#clip850)" d="M 0 0 M2009.84 201.323 L2009.84 208.684 L2018.62 208.684 L2018.62 211.994 L2009.84 211.994 L2009.84 226.068 Q2009.84 229.239 2010.7 230.142 Q2011.58 231.045 2014.24 231.045 L2018.62 231.045 L2018.62 234.61 L2014.24 234.61 Q2009.31 234.61 2007.44 232.781 Q2005.56 230.929 2005.56 226.068 L2005.56 211.994 L2002.44 211.994 L2002.44 208.684 L2005.56 208.684 L2005.56 201.323 L2009.84 201.323 Z" fill="#000000" fill-rule="evenodd" fill-opacity="1" /><path clip-path="url(#clip850)" d="M 0 0 M2023.08 208.684 L2027.34 208.684 L2027.34 234.61 L2023.08 234.61 L2023.08 208.684 M2023.08 198.591 L2027.34 198.591 L2027.34 203.985 L2023.08 203.985 L2023.08 198.591 Z" fill="#000000" fill-rule="evenodd" fill-opacity="1" /><path clip-path="url(#clip850)" d="M 0 0 M2041.86 211.67 Q2038.43 211.67 2036.44 214.355 Q2034.45 217.017 2034.45 221.67 Q2034.45 226.323 2036.42 229.008 Q2038.41 231.67 2041.86 231.67 Q2045.26 231.67 2047.25 228.985 Q2049.24 226.299 2049.24 221.67 Q2049.24 217.063 2047.25 214.378 Q2045.26 211.67 2041.86 211.67 M2041.86 208.059 Q2047.41 208.059 2050.58 211.67 Q2053.76 215.281 2053.76 221.67 Q2053.76 228.036 2050.58 231.67 Q2047.41 235.281 2041.86 235.281 Q2036.28 235.281 2033.11 231.67 Q2029.96 228.036 2029.96 221.67 Q2029.96 215.281 2033.11 211.67 Q2036.28 208.059 2041.86 208.059 Z" fill="#000000" fill-rule="evenodd" fill-opacity="1" /><path clip-path="url(#clip850)" d="M 0 0 M2079.77 218.961 L2079.77 234.61 L2075.52 234.61 L2075.52 219.1 Q2075.52 215.42 2074.08 213.591 Q2072.64 211.762 2069.77 211.762 Q2066.33 211.762 2064.33 213.962 Q2062.34 216.161 2062.34 219.957 L2062.34 234.61 L2058.06 234.61 L2058.06 208.684 L2062.34 208.684 L2062.34 212.712 Q2063.87 210.374 2065.93 209.216 Q2068.02 208.059 2070.72 208.059 Q2075.19 208.059 2077.48 210.837 Q2079.77 213.591 2079.77 218.961 Z" fill="#000000" fill-rule="evenodd" fill-opacity="1" /><path clip-path="url(#clip850)" d="M 0 0 M2114.33 212.665 Q2113.62 212.249 2112.76 212.063 Q2111.93 211.855 2110.91 211.855 Q2107.3 211.855 2105.35 214.216 Q2103.43 216.554 2103.43 220.952 L2103.43 234.61 L2099.15 234.61 L2099.15 208.684 L2103.43 208.684 L2103.43 212.712 Q2104.77 210.35 2106.93 209.216 Q2109.08 208.059 2112.16 208.059 Q2112.6 208.059 2113.13 208.128 Q2113.66 208.175 2114.31 208.29 L2114.33 212.665 Z" fill="#000000" fill-rule="evenodd" fill-opacity="1" /><path clip-path="url(#clip850)" d="M 0 0 M2139.94 220.582 L2139.94 222.665 L2120.35 222.665 Q2120.63 227.063 2122.99 229.378 Q2125.38 231.67 2129.61 231.67 Q2132.07 231.67 2134.36 231.068 Q2136.67 230.466 2138.94 229.262 L2138.94 233.29 Q2136.65 234.262 2134.24 234.772 Q2131.83 235.281 2129.36 235.281 Q2123.15 235.281 2119.52 231.67 Q2115.91 228.059 2115.91 221.901 Q2115.91 215.536 2119.33 211.809 Q2122.78 208.059 2128.62 208.059 Q2133.85 208.059 2136.88 211.438 Q2139.94 214.795 2139.94 220.582 M2135.68 219.332 Q2135.63 215.837 2133.71 213.753 Q2131.81 211.67 2128.66 211.67 Q2125.1 211.67 2122.95 213.684 Q2120.82 215.698 2120.49 219.355 L2135.68 219.332 Z" fill="#000000" fill-rule="evenodd" fill-opacity="1" /><path clip-path="url(#clip850)" d="M 0 0 M2161.46 221.346 Q2161.46 216.716 2159.54 214.17 Q2157.64 211.624 2154.2 211.624 Q2150.77 211.624 2148.85 214.17 Q2146.95 216.716 2146.95 221.346 Q2146.95 225.952 2148.85 228.498 Q2150.77 231.045 2154.2 231.045 Q2157.64 231.045 2159.54 228.498 Q2161.46 225.952 2161.46 221.346 M2165.72 231.392 Q2165.72 238.012 2162.78 241.23 Q2159.84 244.471 2153.78 244.471 Q2151.53 244.471 2149.54 244.123 Q2147.55 243.799 2145.68 243.105 L2145.68 238.961 Q2147.55 239.98 2149.38 240.466 Q2151.21 240.952 2153.11 240.952 Q2157.3 240.952 2159.38 238.753 Q2161.46 236.577 2161.46 232.156 L2161.46 230.049 Q2160.14 232.341 2158.08 233.475 Q2156.02 234.61 2153.15 234.61 Q2148.39 234.61 2145.47 230.975 Q2142.55 227.341 2142.55 221.346 Q2142.55 215.327 2145.47 211.693 Q2148.39 208.059 2153.15 208.059 Q2156.02 208.059 2158.08 209.193 Q2160.14 210.327 2161.46 212.619 L2161.46 208.684 L2165.72 208.684 L2165.72 231.392 Z" fill="#000000" fill-rule="evenodd" fill-opacity="1" /><path clip-path="url(#clip850)" d="M 0 0 M2170.19 208.684 L2174.45 208.684 L2174.45 234.61 L2170.19 234.61 L2170.19 208.684 M2170.19 198.591 L2174.45 198.591 L2174.45 203.985 L2170.19 203.985 L2170.19 198.591 Z" fill="#000000" fill-rule="evenodd" fill-opacity="1" /><path clip-path="url(#clip850)" d="M 0 0 M2188.96 211.67 Q2185.54 211.67 2183.55 214.355 Q2181.56 217.017 2181.56 221.67 Q2181.56 226.323 2183.52 229.008 Q2185.51 231.67 2188.96 231.67 Q2192.37 231.67 2194.36 228.985 Q2196.35 226.299 2196.35 221.67 Q2196.35 217.063 2194.36 214.378 Q2192.37 211.67 2188.96 211.67 M2188.96 208.059 Q2194.52 208.059 2197.69 211.67 Q2200.86 215.281 2200.86 221.67 Q2200.86 228.036 2197.69 231.67 Q2194.52 235.281 2188.96 235.281 Q2183.39 235.281 2180.21 231.67 Q2177.07 228.036 2177.07 221.67 Q2177.07 215.281 2180.21 211.67 Q2183.39 208.059 2188.96 208.059 Z" fill="#000000" fill-rule="evenodd" fill-opacity="1" /><path clip-path="url(#clip850)" d="M 0 0 M2226.88 218.961 L2226.88 234.61 L2222.62 234.61 L2222.62 219.1 Q2222.62 215.42 2221.19 213.591 Q2219.75 211.762 2216.88 211.762 Q2213.43 211.762 2211.44 213.962 Q2209.45 216.161 2209.45 219.957 L2209.45 234.61 L2205.17 234.61 L2205.17 208.684 L2209.45 208.684 L2209.45 212.712 Q2210.98 210.374 2213.04 209.216 Q2215.12 208.059 2217.83 208.059 Q2222.3 208.059 2224.59 210.837 Q2226.88 213.591 2226.88 218.961 Z" fill="#000000" fill-rule="evenodd" fill-opacity="1" /><path clip-path="url(#clip850)" d="
M1519.75 302.002 L1670.81 302.002 L1670.81 253.618 L1519.75 253.618 L1519.75 302.002  Z
  " fill="#ffa500" fill-rule="evenodd" fill-opacity="0.5"/>
<polyline clip-path="url(#clip850)" style="stroke:#ffa500; stroke-width:4; stroke-opacity:1; fill:none" points="
  1519.75,253.618 1670.81,253.618 
  "/>
<path clip-path="url(#clip850)" d="M 0 0 M1700.38 282.15 Q1700.38 286.849 1702.3 289.534 Q1704.24 292.196 1707.62 292.196 Q1711 292.196 1712.95 289.534 Q1714.89 286.849 1714.89 282.15 Q1714.89 277.451 1712.95 274.789 Q1711 272.104 1707.62 272.104 Q1704.24 272.104 1702.3 274.789 Q1700.38 277.451 1700.38 282.15 M1714.89 291.201 Q1713.55 293.515 1711.49 294.65 Q1709.45 295.761 1706.58 295.761 Q1701.88 295.761 1698.92 292.011 Q1695.98 288.261 1695.98 282.15 Q1695.98 276.039 1698.92 272.289 Q1701.88 268.539 1706.58 268.539 Q1709.45 268.539 1711.49 269.673 Q1713.55 270.784 1714.89 273.099 L1714.89 269.164 L1719.15 269.164 L1719.15 304.951 L1714.89 304.951 L1714.89 291.201 Z" fill="#000000" fill-rule="evenodd" fill-opacity="1" /><path clip-path="url(#clip850)" d="M 0 0 M1724.36 294.372 L1724.36 290.113 Q1726.12 290.946 1727.92 291.386 Q1729.73 291.826 1731.47 291.826 Q1736.1 291.826 1738.53 288.724 Q1740.98 285.599 1741.33 279.256 Q1739.98 281.247 1737.92 282.312 Q1735.86 283.377 1733.36 283.377 Q1728.18 283.377 1725.15 280.252 Q1722.14 277.104 1722.14 271.664 Q1722.14 266.34 1725.29 263.122 Q1728.43 259.905 1733.67 259.905 Q1739.66 259.905 1742.81 264.511 Q1745.98 269.094 1745.98 277.844 Q1745.98 286.016 1742.09 290.9 Q1738.23 295.761 1731.67 295.761 Q1729.92 295.761 1728.11 295.414 Q1726.3 295.066 1724.36 294.372 M1733.67 279.719 Q1736.81 279.719 1738.64 277.566 Q1740.49 275.414 1740.49 271.664 Q1740.49 267.937 1738.64 265.784 Q1736.81 263.608 1733.67 263.608 Q1730.52 263.608 1728.67 265.784 Q1726.84 267.937 1726.84 271.664 Q1726.84 275.414 1728.67 277.566 Q1730.52 279.719 1733.67 279.719 Z" fill="#000000" fill-rule="evenodd" fill-opacity="1" /><path clip-path="url(#clip850)" d="M 0 0 M1751.1 260.53 L1769.45 260.53 L1769.45 264.465 L1755.38 264.465 L1755.38 272.937 Q1756.4 272.59 1757.42 272.428 Q1758.43 272.242 1759.45 272.242 Q1765.24 272.242 1768.62 275.414 Q1772 278.585 1772 284.002 Q1772 289.58 1768.53 292.682 Q1765.05 295.761 1758.73 295.761 Q1756.56 295.761 1754.29 295.39 Q1752.04 295.02 1749.64 294.279 L1749.64 289.58 Q1751.72 290.715 1753.94 291.27 Q1756.17 291.826 1758.64 291.826 Q1762.65 291.826 1764.98 289.719 Q1767.32 287.613 1767.32 284.002 Q1767.32 280.391 1764.98 278.284 Q1762.65 276.178 1758.64 276.178 Q1756.77 276.178 1754.89 276.594 Q1753.04 277.011 1751.1 277.891 L1751.1 260.53 Z" fill="#000000" fill-rule="evenodd" fill-opacity="1" /><polyline clip-path="url(#clip850)" style="stroke:#0000ff; stroke-width:4; stroke-opacity:1; fill:none" points="
  1519.75,338.29 1670.81,338.29 
  "/>
<path clip-path="url(#clip850)" d="M 0 0 M1716.33 334.621 Q1717.92 331.75 1720.15 330.385 Q1722.37 329.019 1725.38 329.019 Q1729.43 329.019 1731.63 331.866 Q1733.83 334.69 1733.83 339.921 L1733.83 355.57 L1729.54 355.57 L1729.54 340.06 Q1729.54 336.334 1728.23 334.528 Q1726.91 332.722 1724.2 332.722 Q1720.89 332.722 1718.97 334.922 Q1717.04 337.121 1717.04 340.917 L1717.04 355.57 L1712.76 355.57 L1712.76 340.06 Q1712.76 336.31 1711.44 334.528 Q1710.12 332.722 1707.37 332.722 Q1704.11 332.722 1702.18 334.945 Q1700.26 337.144 1700.26 340.917 L1700.26 355.57 L1695.98 355.57 L1695.98 329.644 L1700.26 329.644 L1700.26 333.672 Q1701.72 331.287 1703.76 330.153 Q1705.79 329.019 1708.6 329.019 Q1711.42 329.019 1713.39 330.454 Q1715.38 331.889 1716.33 334.621 Z" fill="#000000" fill-rule="evenodd" fill-opacity="1" /><path clip-path="url(#clip850)" d="M 0 0 M1760.47 341.542 L1760.47 343.625 L1740.89 343.625 Q1741.17 348.023 1743.53 350.338 Q1745.91 352.63 1750.15 352.63 Q1752.6 352.63 1754.89 352.028 Q1757.21 351.426 1759.48 350.222 L1759.48 354.25 Q1757.18 355.222 1754.78 355.732 Q1752.37 356.241 1749.89 356.241 Q1743.69 356.241 1740.05 352.63 Q1736.44 349.019 1736.44 342.861 Q1736.44 336.496 1739.87 332.769 Q1743.32 329.019 1749.15 329.019 Q1754.38 329.019 1757.42 332.398 Q1760.47 335.755 1760.47 341.542 M1756.21 340.292 Q1756.17 336.797 1754.24 334.713 Q1752.35 332.63 1749.2 332.63 Q1745.63 332.63 1743.48 334.644 Q1741.35 336.658 1741.03 340.315 L1756.21 340.292 Z" fill="#000000" fill-rule="evenodd" fill-opacity="1" /><path clip-path="url(#clip850)" d="M 0 0 M1776.72 342.537 Q1771.56 342.537 1769.57 343.718 Q1767.58 344.898 1767.58 347.746 Q1767.58 350.014 1769.06 351.357 Q1770.56 352.676 1773.13 352.676 Q1776.67 352.676 1778.8 350.176 Q1780.96 347.653 1780.96 343.486 L1780.96 342.537 L1776.72 342.537 M1785.22 340.778 L1785.22 355.57 L1780.96 355.57 L1780.96 351.634 Q1779.5 353.995 1777.32 355.13 Q1775.15 356.241 1772 356.241 Q1768.02 356.241 1765.66 354.019 Q1763.32 351.773 1763.32 348.023 Q1763.32 343.648 1766.23 341.426 Q1769.17 339.204 1774.98 339.204 L1780.96 339.204 L1780.96 338.787 Q1780.96 335.847 1779.01 334.25 Q1777.09 332.63 1773.6 332.63 Q1771.37 332.63 1769.27 333.162 Q1767.16 333.695 1765.22 334.759 L1765.22 330.824 Q1767.55 329.922 1769.75 329.482 Q1771.95 329.019 1774.04 329.019 Q1779.66 329.019 1782.44 331.935 Q1785.22 334.852 1785.22 340.778 Z" fill="#000000" fill-rule="evenodd" fill-opacity="1" /><path clip-path="url(#clip850)" d="M 0 0 M1811.23 339.921 L1811.23 355.57 L1806.97 355.57 L1806.97 340.06 Q1806.97 336.38 1805.54 334.551 Q1804.1 332.722 1801.23 332.722 Q1797.79 332.722 1795.79 334.922 Q1793.8 337.121 1793.8 340.917 L1793.8 355.57 L1789.52 355.57 L1789.52 329.644 L1793.8 329.644 L1793.8 333.672 Q1795.33 331.334 1797.39 330.176 Q1799.48 329.019 1802.18 329.019 Q1806.65 329.019 1808.94 331.797 Q1811.23 334.551 1811.23 339.921 Z" fill="#000000" fill-rule="evenodd" fill-opacity="1" /><polyline clip-path="url(#clip850)" style="stroke:#000000; stroke-width:4; stroke-opacity:1; fill:none" points="
  1519.75,398.77 1670.81,398.77 
  "/>
<path clip-path="url(#clip850)" d="M 0 0 M1716.33 395.101 Q1717.92 392.23 1720.15 390.865 Q1722.37 389.499 1725.38 389.499 Q1729.43 389.499 1731.63 392.346 Q1733.83 395.17 1733.83 400.401 L1733.83 416.05 L1729.54 416.05 L1729.54 400.54 Q1729.54 396.814 1728.23 395.008 Q1726.91 393.202 1724.2 393.202 Q1720.89 393.202 1718.97 395.402 Q1717.04 397.601 1717.04 401.397 L1717.04 416.05 L1712.76 416.05 L1712.76 400.54 Q1712.76 396.79 1711.44 395.008 Q1710.12 393.202 1707.37 393.202 Q1704.11 393.202 1702.18 395.425 Q1700.26 397.624 1700.26 401.397 L1700.26 416.05 L1695.98 416.05 L1695.98 390.124 L1700.26 390.124 L1700.26 394.152 Q1701.72 391.767 1703.76 390.633 Q1705.79 389.499 1708.6 389.499 Q1711.42 389.499 1713.39 390.934 Q1715.38 392.369 1716.33 395.101 Z" fill="#000000" fill-rule="evenodd" fill-opacity="1" /><path clip-path="url(#clip850)" d="M 0 0 M1760.47 402.022 L1760.47 404.105 L1740.89 404.105 Q1741.17 408.503 1743.53 410.818 Q1745.91 413.11 1750.15 413.11 Q1752.6 413.11 1754.89 412.508 Q1757.21 411.906 1759.48 410.702 L1759.48 414.73 Q1757.18 415.702 1754.78 416.212 Q1752.37 416.721 1749.89 416.721 Q1743.69 416.721 1740.05 413.11 Q1736.44 409.499 1736.44 403.341 Q1736.44 396.976 1739.87 393.249 Q1743.32 389.499 1749.15 389.499 Q1754.38 389.499 1757.42 392.878 Q1760.47 396.235 1760.47 402.022 M1756.21 400.772 Q1756.17 397.277 1754.24 395.193 Q1752.35 393.11 1749.2 393.11 Q1745.63 393.11 1743.48 395.124 Q1741.35 397.138 1741.03 400.795 L1756.21 400.772 Z" fill="#000000" fill-rule="evenodd" fill-opacity="1" /><path clip-path="url(#clip850)" d="M 0 0 M1782 394.059 L1782 380.031 L1786.26 380.031 L1786.26 416.05 L1782 416.05 L1782 412.161 Q1780.66 414.475 1778.6 415.61 Q1776.56 416.721 1773.69 416.721 Q1768.99 416.721 1766.03 412.971 Q1763.09 409.221 1763.09 403.11 Q1763.09 396.999 1766.03 393.249 Q1768.99 389.499 1773.69 389.499 Q1776.56 389.499 1778.6 390.633 Q1780.66 391.744 1782 394.059 M1767.48 403.11 Q1767.48 407.809 1769.41 410.494 Q1771.35 413.156 1774.73 413.156 Q1778.11 413.156 1780.05 410.494 Q1782 407.809 1782 403.11 Q1782 398.411 1780.05 395.749 Q1778.11 393.064 1774.73 393.064 Q1771.35 393.064 1769.41 395.749 Q1767.48 398.411 1767.48 403.11 Z" fill="#000000" fill-rule="evenodd" fill-opacity="1" /><path clip-path="url(#clip850)" d="M 0 0 M1790.73 390.124 L1794.98 390.124 L1794.98 416.05 L1790.73 416.05 L1790.73 390.124 M1790.73 380.031 L1794.98 380.031 L1794.98 385.425 L1790.73 385.425 L1790.73 380.031 Z" fill="#000000" fill-rule="evenodd" fill-opacity="1" /><path clip-path="url(#clip850)" d="M 0 0 M1811.23 403.017 Q1806.07 403.017 1804.08 404.198 Q1802.09 405.378 1802.09 408.226 Q1802.09 410.494 1803.57 411.837 Q1805.08 413.156 1807.65 413.156 Q1811.19 413.156 1813.32 410.656 Q1815.47 408.133 1815.47 403.966 L1815.47 403.017 L1811.23 403.017 M1819.73 401.258 L1819.73 416.05 L1815.47 416.05 L1815.47 412.114 Q1814.01 414.475 1811.84 415.61 Q1809.66 416.721 1806.51 416.721 Q1802.53 416.721 1800.17 414.499 Q1797.83 412.253 1797.83 408.503 Q1797.83 404.128 1800.75 401.906 Q1803.69 399.684 1809.5 399.684 L1815.47 399.684 L1815.47 399.267 Q1815.47 396.327 1813.53 394.73 Q1811.6 393.11 1808.11 393.11 Q1805.89 393.11 1803.78 393.642 Q1801.67 394.175 1799.73 395.239 L1799.73 391.304 Q1802.07 390.402 1804.27 389.962 Q1806.47 389.499 1808.55 389.499 Q1814.17 389.499 1816.95 392.415 Q1819.73 395.332 1819.73 401.258 Z" fill="#000000" fill-rule="evenodd" fill-opacity="1" /><path clip-path="url(#clip850)" d="M 0 0 M1845.75 400.401 L1845.75 416.05 L1841.49 416.05 L1841.49 400.54 Q1841.49 396.86 1840.05 395.031 Q1838.62 393.202 1835.75 393.202 Q1832.3 393.202 1830.31 395.402 Q1828.32 397.601 1828.32 401.397 L1828.32 416.05 L1824.04 416.05 L1824.04 390.124 L1828.32 390.124 L1828.32 394.152 Q1829.85 391.814 1831.91 390.656 Q1833.99 389.499 1836.7 389.499 Q1841.16 389.499 1843.46 392.277 Q1845.75 395.031 1845.75 400.401 Z" fill="#000000" fill-rule="evenodd" fill-opacity="1" /></svg>
