<?xml version="1.0" encoding="utf-8"?>
<svg xmlns="http://www.w3.org/2000/svg" xmlns:xlink="http://www.w3.org/1999/xlink" width="600" height="400" viewBox="0 0 2400 1600">
<defs>
  <clipPath id="clip820">
    <rect x="0" y="0" width="2400" height="1600"/>
  </clipPath>
</defs>
<path clip-path="url(#clip820)" d="
M0 1600 L2400 1600 L2400 0 L0 0  Z
  " fill="#ffffff" fill-rule="evenodd" fill-opacity="1"/>
<defs>
  <clipPath id="clip821">
    <rect x="480" y="0" width="1681" height="1600"/>
  </clipPath>
</defs>
<path clip-path="url(#clip820)" d="
M86.9921 1521.01 L2352.76 1521.01 L2352.76 47.2441 L86.9921 47.2441  Z
  " fill="#ffffff" fill-rule="evenodd" fill-opacity="1"/>
<defs>
  <clipPath id="clip822">
    <rect x="86" y="47" width="2267" height="1475"/>
  </clipPath>
</defs>
<polyline clip-path="url(#clip822)" style="stroke:#000000; stroke-width:2; stroke-opacity:0.1; fill:none" points="
  149.894,1521.01 149.894,47.2441 
  "/>
<polyline clip-path="url(#clip822)" style="stroke:#000000; stroke-width:2; stroke-opacity:0.1; fill:none" points="
  739.406,1521.01 739.406,47.2441 
  "/>
<polyline clip-path="url(#clip822)" style="stroke:#000000; stroke-width:2; stroke-opacity:0.1; fill:none" points="
  1328.92,1521.01 1328.92,47.2441 
  "/>
<polyline clip-path="url(#clip822)" style="stroke:#000000; stroke-width:2; stroke-opacity:0.1; fill:none" points="
  1918.43,1521.01 1918.43,47.2441 
  "/>
<polyline clip-path="url(#clip822)" style="stroke:#000000; stroke-width:2; stroke-opacity:0.1; fill:none" points="
  86.9921,1479.3 2352.76,1479.3 
  "/>
<polyline clip-path="url(#clip822)" style="stroke:#000000; stroke-width:2; stroke-opacity:0.1; fill:none" points="
  86.9921,1107.23 2352.76,1107.23 
  "/>
<polyline clip-path="url(#clip822)" style="stroke:#000000; stroke-width:2; stroke-opacity:0.1; fill:none" points="
  86.9921,735.157 2352.76,735.157 
  "/>
<polyline clip-path="url(#clip822)" style="stroke:#000000; stroke-width:2; stroke-opacity:0.1; fill:none" points="
  86.9921,363.087 2352.76,363.087 
  "/>
<polyline clip-path="url(#clip820)" style="stroke:#000000; stroke-width:4; stroke-opacity:1; fill:none" points="
  86.9921,1521.01 2352.76,1521.01 
  "/>
<polyline clip-path="url(#clip820)" style="stroke:#000000; stroke-width:4; stroke-opacity:1; fill:none" points="
  86.9921,1521.01 86.9921,47.2441 
  "/>
<polyline clip-path="url(#clip820)" style="stroke:#000000; stroke-width:4; stroke-opacity:1; fill:none" points="
  149.894,1521.01 149.894,1503.32 
  "/>
<polyline clip-path="url(#clip820)" style="stroke:#000000; stroke-width:4; stroke-opacity:1; fill:none" points="
  739.406,1521.01 739.406,1503.32 
  "/>
<polyline clip-path="url(#clip820)" style="stroke:#000000; stroke-width:4; stroke-opacity:1; fill:none" points="
  1328.92,1521.01 1328.92,1503.32 
  "/>
<polyline clip-path="url(#clip820)" style="stroke:#000000; stroke-width:4; stroke-opacity:1; fill:none" points="
  1918.43,1521.01 1918.43,1503.32 
  "/>
<polyline clip-path="url(#clip820)" style="stroke:#000000; stroke-width:4; stroke-opacity:1; fill:none" points="
  86.9921,1479.3 114.181,1479.3 
  "/>
<polyline clip-path="url(#clip820)" style="stroke:#000000; stroke-width:4; stroke-opacity:1; fill:none" points="
  86.9921,1107.23 114.181,1107.23 
  "/>
<polyline clip-path="url(#clip820)" style="stroke:#000000; stroke-width:4; stroke-opacity:1; fill:none" points="
  86.9921,735.157 114.181,735.157 
  "/>
<polyline clip-path="url(#clip820)" style="stroke:#000000; stroke-width:4; stroke-opacity:1; fill:none" points="
  86.9921,363.087 114.181,363.087 
  "/>
<path clip-path="url(#clip820)" d="M 0 0 M98.9566 1559.6 L111.433 1559.6 L111.433 1563.39 L98.9566 1563.39 L98.9566 1559.6 Z" fill="#000000" fill-rule="evenodd" fill-opacity="1" /><path clip-path="url(#clip820)" d="M 0 0 M126.503 1543 Q122.892 1543 121.063 1546.56 Q119.257 1550.11 119.257 1557.23 Q119.257 1564.34 121.063 1567.91 Q122.892 1571.45 126.503 1571.45 Q130.137 1571.45 131.943 1567.91 Q133.771 1564.34 133.771 1557.23 Q133.771 1550.11 131.943 1546.56 Q130.137 1543 126.503 1543 M126.503 1539.29 Q132.313 1539.29 135.368 1543.9 Q138.447 1548.48 138.447 1557.23 Q138.447 1565.96 135.368 1570.57 Q132.313 1575.15 126.503 1575.15 Q120.693 1575.15 117.614 1570.57 Q114.558 1565.96 114.558 1557.23 Q114.558 1548.48 117.614 1543.9 Q120.693 1539.29 126.503 1539.29 Z" fill="#000000" fill-rule="evenodd" fill-opacity="1" /><path clip-path="url(#clip820)" d="M 0 0 M143.517 1568.6 L148.401 1568.6 L148.401 1574.48 L143.517 1574.48 L143.517 1568.6 Z" fill="#000000" fill-rule="evenodd" fill-opacity="1" /><path clip-path="url(#clip820)" d="M 0 0 M163.47 1543 Q159.859 1543 158.03 1546.56 Q156.225 1550.11 156.225 1557.23 Q156.225 1564.34 158.03 1567.91 Q159.859 1571.45 163.47 1571.45 Q167.104 1571.45 168.91 1567.91 Q170.739 1564.34 170.739 1557.23 Q170.739 1550.11 168.91 1546.56 Q167.104 1543 163.47 1543 M163.47 1539.29 Q169.28 1539.29 172.336 1543.9 Q175.415 1548.48 175.415 1557.23 Q175.415 1565.96 172.336 1570.57 Q169.28 1575.15 163.47 1575.15 Q157.66 1575.15 154.581 1570.57 Q151.526 1565.96 151.526 1557.23 Q151.526 1548.48 154.581 1543.9 Q157.66 1539.29 163.47 1539.29 Z" fill="#000000" fill-rule="evenodd" fill-opacity="1" /><path clip-path="url(#clip820)" d="M 0 0 M184.512 1570.54 L200.831 1570.54 L200.831 1574.48 L178.887 1574.48 L178.887 1570.54 Q181.549 1567.79 186.132 1563.16 Q190.739 1558.51 191.919 1557.17 Q194.164 1554.64 195.044 1552.91 Q195.947 1551.15 195.947 1549.46 Q195.947 1546.7 194.002 1544.97 Q192.081 1543.23 188.979 1543.23 Q186.78 1543.23 184.327 1543.99 Q181.896 1544.76 179.118 1546.31 L179.118 1541.59 Q181.942 1540.45 184.396 1539.87 Q186.85 1539.29 188.887 1539.29 Q194.257 1539.29 197.451 1541.98 Q200.646 1544.67 200.646 1549.16 Q200.646 1551.29 199.836 1553.21 Q199.049 1555.1 196.942 1557.7 Q196.363 1558.37 193.262 1561.59 Q190.16 1564.78 184.512 1570.54 Z" fill="#000000" fill-rule="evenodd" fill-opacity="1" /><path clip-path="url(#clip820)" d="M 0 0 M688.284 1559.6 L700.761 1559.6 L700.761 1563.39 L688.284 1563.39 L688.284 1559.6 Z" fill="#000000" fill-rule="evenodd" fill-opacity="1" /><path clip-path="url(#clip820)" d="M 0 0 M715.83 1543 Q712.219 1543 710.39 1546.56 Q708.585 1550.11 708.585 1557.23 Q708.585 1564.34 710.39 1567.91 Q712.219 1571.45 715.83 1571.45 Q719.464 1571.45 721.27 1567.91 Q723.099 1564.34 723.099 1557.23 Q723.099 1550.11 721.27 1546.56 Q719.464 1543 715.83 1543 M715.83 1539.29 Q721.64 1539.29 724.696 1543.9 Q727.775 1548.48 727.775 1557.23 Q727.775 1565.96 724.696 1570.57 Q721.64 1575.15 715.83 1575.15 Q710.02 1575.15 706.941 1570.57 Q703.886 1565.96 703.886 1557.23 Q703.886 1548.48 706.941 1543.9 Q710.02 1539.29 715.83 1539.29 Z" fill="#000000" fill-rule="evenodd" fill-opacity="1" /><path clip-path="url(#clip820)" d="M 0 0 M732.844 1568.6 L737.728 1568.6 L737.728 1574.48 L732.844 1574.48 L732.844 1568.6 Z" fill="#000000" fill-rule="evenodd" fill-opacity="1" /><path clip-path="url(#clip820)" d="M 0 0 M752.798 1543 Q749.186 1543 747.358 1546.56 Q745.552 1550.11 745.552 1557.23 Q745.552 1564.34 747.358 1567.91 Q749.186 1571.45 752.798 1571.45 Q756.432 1571.45 758.237 1567.91 Q760.066 1564.34 760.066 1557.23 Q760.066 1550.11 758.237 1546.56 Q756.432 1543 752.798 1543 M752.798 1539.29 Q758.608 1539.29 761.663 1543.9 Q764.742 1548.48 764.742 1557.23 Q764.742 1565.96 761.663 1570.57 Q758.608 1575.15 752.798 1575.15 Q746.987 1575.15 743.909 1570.57 Q740.853 1565.96 740.853 1557.23 Q740.853 1548.48 743.909 1543.9 Q746.987 1539.29 752.798 1539.29 Z" fill="#000000" fill-rule="evenodd" fill-opacity="1" /><path clip-path="url(#clip820)" d="M 0 0 M770.622 1570.54 L778.26 1570.54 L778.26 1544.18 L769.95 1545.85 L769.95 1541.59 L778.214 1539.92 L782.89 1539.92 L782.89 1570.54 L790.529 1570.54 L790.529 1574.48 L770.622 1574.48 L770.622 1570.54 Z" fill="#000000" fill-rule="evenodd" fill-opacity="1" /><path clip-path="url(#clip820)" d="M 0 0 M1296.93 1543 Q1293.32 1543 1291.49 1546.56 Q1289.68 1550.11 1289.68 1557.23 Q1289.68 1564.34 1291.49 1567.91 Q1293.32 1571.45 1296.93 1571.45 Q1300.56 1571.45 1302.37 1567.91 Q1304.2 1564.34 1304.2 1557.23 Q1304.2 1550.11 1302.37 1546.56 Q1300.56 1543 1296.93 1543 M1296.93 1539.29 Q1302.74 1539.29 1305.79 1543.9 Q1308.87 1548.48 1308.87 1557.23 Q1308.87 1565.96 1305.79 1570.57 Q1302.74 1575.15 1296.93 1575.15 Q1291.12 1575.15 1288.04 1570.57 Q1284.98 1565.96 1284.98 1557.23 Q1284.98 1548.48 1288.04 1543.9 Q1291.12 1539.29 1296.93 1539.29 Z" fill="#000000" fill-rule="evenodd" fill-opacity="1" /><path clip-path="url(#clip820)" d="M 0 0 M1313.94 1568.6 L1318.83 1568.6 L1318.83 1574.48 L1313.94 1574.48 L1313.94 1568.6 Z" fill="#000000" fill-rule="evenodd" fill-opacity="1" /><path clip-path="url(#clip820)" d="M 0 0 M1333.9 1543 Q1330.28 1543 1328.46 1546.56 Q1326.65 1550.11 1326.65 1557.23 Q1326.65 1564.34 1328.46 1567.91 Q1330.28 1571.45 1333.9 1571.45 Q1337.53 1571.45 1339.34 1567.91 Q1341.16 1564.34 1341.16 1557.23 Q1341.16 1550.11 1339.34 1546.56 Q1337.53 1543 1333.9 1543 M1333.9 1539.29 Q1339.71 1539.29 1342.76 1543.9 Q1345.84 1548.48 1345.84 1557.23 Q1345.84 1565.96 1342.76 1570.57 Q1339.71 1575.15 1333.9 1575.15 Q1328.09 1575.15 1325.01 1570.57 Q1321.95 1565.96 1321.95 1557.23 Q1321.95 1548.48 1325.01 1543.9 Q1328.09 1539.29 1333.9 1539.29 Z" fill="#000000" fill-rule="evenodd" fill-opacity="1" /><path clip-path="url(#clip820)" d="M 0 0 M1360.91 1543 Q1357.3 1543 1355.47 1546.56 Q1353.66 1550.11 1353.66 1557.23 Q1353.66 1564.34 1355.47 1567.91 Q1357.3 1571.45 1360.91 1571.45 Q1364.54 1571.45 1366.35 1567.91 Q1368.18 1564.34 1368.18 1557.23 Q1368.18 1550.11 1366.35 1546.56 Q1364.54 1543 1360.91 1543 M1360.91 1539.29 Q1366.72 1539.29 1369.78 1543.9 Q1372.85 1548.48 1372.85 1557.23 Q1372.85 1565.96 1369.78 1570.57 Q1366.72 1575.15 1360.91 1575.15 Q1355.1 1575.15 1352.02 1570.57 Q1348.97 1565.96 1348.97 1557.23 Q1348.97 1548.48 1352.02 1543.9 Q1355.1 1539.29 1360.91 1539.29 Z" fill="#000000" fill-rule="evenodd" fill-opacity="1" /><path clip-path="url(#clip820)" d="M 0 0 M1887.05 1543 Q1883.44 1543 1881.61 1546.56 Q1879.81 1550.11 1879.81 1557.23 Q1879.81 1564.34 1881.61 1567.91 Q1883.44 1571.45 1887.05 1571.45 Q1890.69 1571.45 1892.49 1567.91 Q1894.32 1564.34 1894.32 1557.23 Q1894.32 1550.11 1892.49 1546.56 Q1890.69 1543 1887.05 1543 M1887.05 1539.29 Q1892.86 1539.29 1895.92 1543.9 Q1899 1548.48 1899 1557.23 Q1899 1565.96 1895.92 1570.57 Q1892.86 1575.15 1887.05 1575.15 Q1881.24 1575.15 1878.17 1570.57 Q1875.11 1565.96 1875.11 1557.23 Q1875.11 1548.48 1878.17 1543.9 Q1881.24 1539.29 1887.05 1539.29 Z" fill="#000000" fill-rule="evenodd" fill-opacity="1" /><path clip-path="url(#clip820)" d="M 0 0 M1904.07 1568.6 L1908.95 1568.6 L1908.95 1574.48 L1904.07 1574.48 L1904.07 1568.6 Z" fill="#000000" fill-rule="evenodd" fill-opacity="1" /><path clip-path="url(#clip820)" d="M 0 0 M1924.02 1543 Q1920.41 1543 1918.58 1546.56 Q1916.78 1550.11 1916.78 1557.23 Q1916.78 1564.34 1918.58 1567.91 Q1920.41 1571.45 1924.02 1571.45 Q1927.66 1571.45 1929.46 1567.91 Q1931.29 1564.34 1931.29 1557.23 Q1931.29 1550.11 1929.46 1546.56 Q1927.66 1543 1924.02 1543 M1924.02 1539.29 Q1929.83 1539.29 1932.89 1543.9 Q1935.97 1548.48 1935.97 1557.23 Q1935.97 1565.96 1932.89 1570.57 Q1929.83 1575.15 1924.02 1575.15 Q1918.21 1575.15 1915.13 1570.57 Q1912.08 1565.96 1912.08 1557.23 Q1912.08 1548.48 1915.13 1543.9 Q1918.21 1539.29 1924.02 1539.29 Z" fill="#000000" fill-rule="evenodd" fill-opacity="1" /><path clip-path="url(#clip820)" d="M 0 0 M1941.85 1570.54 L1949.48 1570.54 L1949.48 1544.18 L1941.17 1545.85 L1941.17 1541.59 L1949.44 1539.92 L1954.11 1539.92 L1954.11 1570.54 L1961.75 1570.54 L1961.75 1574.48 L1941.85 1574.48 L1941.85 1570.54 Z" fill="#000000" fill-rule="evenodd" fill-opacity="1" /><path clip-path="url(#clip820)" d="M 0 0 M51.0477 1465.1 Q47.4367 1465.1 45.608 1468.66 Q43.8024 1472.2 43.8024 1479.33 Q43.8024 1486.44 45.608 1490 Q47.4367 1493.55 51.0477 1493.55 Q54.682 1493.55 56.4875 1490 Q58.3162 1486.44 58.3162 1479.33 Q58.3162 1472.2 56.4875 1468.66 Q54.682 1465.1 51.0477 1465.1 M51.0477 1461.39 Q56.8579 1461.39 59.9134 1466 Q62.9921 1470.58 62.9921 1479.33 Q62.9921 1488.06 59.9134 1492.67 Q56.8579 1497.25 51.0477 1497.25 Q45.2376 1497.25 42.1589 1492.67 Q39.1034 1488.06 39.1034 1479.33 Q39.1034 1470.58 42.1589 1466 Q45.2376 1461.39 51.0477 1461.39 Z" fill="#000000" fill-rule="evenodd" fill-opacity="1" /><path clip-path="url(#clip820)" d="M 0 0 M19.659 1120.57 L35.9784 1120.57 L35.9784 1124.51 L14.0341 1124.51 L14.0341 1120.57 Q16.6961 1117.82 21.2794 1113.19 Q25.8858 1108.54 27.0664 1107.19 Q29.3118 1104.67 30.1914 1102.93 Q31.0941 1101.17 31.0941 1099.48 Q31.0941 1096.73 29.1497 1094.99 Q27.2284 1093.26 24.1266 1093.26 Q21.9275 1093.26 19.4738 1094.02 Q17.0433 1094.79 14.2655 1096.34 L14.2655 1091.61 Q17.0896 1090.48 19.5433 1089.9 Q21.997 1089.32 24.034 1089.32 Q29.4043 1089.32 32.5988 1092.01 Q35.7932 1094.69 35.7932 1099.18 Q35.7932 1101.31 34.983 1103.23 Q34.196 1105.13 32.0895 1107.73 Q31.5108 1108.4 28.409 1111.61 Q25.3071 1114.81 19.659 1120.57 Z" fill="#000000" fill-rule="evenodd" fill-opacity="1" /><path clip-path="url(#clip820)" d="M 0 0 M51.0477 1093.03 Q47.4367 1093.03 45.608 1096.59 Q43.8024 1100.13 43.8024 1107.26 Q43.8024 1114.37 45.608 1117.93 Q47.4367 1121.47 51.0477 1121.47 Q54.682 1121.47 56.4875 1117.93 Q58.3162 1114.37 58.3162 1107.26 Q58.3162 1100.13 56.4875 1096.59 Q54.682 1093.03 51.0477 1093.03 M51.0477 1089.32 Q56.8579 1089.32 59.9134 1093.93 Q62.9921 1098.51 62.9921 1107.26 Q62.9921 1115.99 59.9134 1120.6 Q56.8579 1125.18 51.0477 1125.18 Q45.2376 1125.18 42.1589 1120.6 Q39.1034 1115.99 39.1034 1107.26 Q39.1034 1098.51 42.1589 1093.93 Q45.2376 1089.32 51.0477 1089.32 Z" fill="#000000" fill-rule="evenodd" fill-opacity="1" /><path clip-path="url(#clip820)" d="M 0 0 M26.3951 721.951 L14.5896 740.4 L26.3951 740.4 L26.3951 721.951 M25.1683 717.877 L31.0479 717.877 L31.0479 740.4 L35.9784 740.4 L35.9784 744.289 L31.0479 744.289 L31.0479 752.437 L26.3951 752.437 L26.3951 744.289 L10.7933 744.289 L10.7933 739.775 L25.1683 717.877 Z" fill="#000000" fill-rule="evenodd" fill-opacity="1" /><path clip-path="url(#clip820)" d="M 0 0 M51.0477 720.956 Q47.4367 720.956 45.608 724.521 Q43.8024 728.062 43.8024 735.192 Q43.8024 742.298 45.608 745.863 Q47.4367 749.405 51.0477 749.405 Q54.682 749.405 56.4875 745.863 Q58.3162 742.298 58.3162 735.192 Q58.3162 728.062 56.4875 724.521 Q54.682 720.956 51.0477 720.956 M51.0477 717.252 Q56.8579 717.252 59.9134 721.859 Q62.9921 726.442 62.9921 735.192 Q62.9921 743.919 59.9134 748.525 Q56.8579 753.108 51.0477 753.108 Q45.2376 753.108 42.1589 748.525 Q39.1034 743.919 39.1034 735.192 Q39.1034 726.442 42.1589 721.859 Q45.2376 717.252 51.0477 717.252 Z" fill="#000000" fill-rule="evenodd" fill-opacity="1" /><path clip-path="url(#clip820)" d="M 0 0 M24.4507 361.224 Q21.3025 361.224 19.4507 363.376 Q17.622 365.529 17.622 369.279 Q17.622 373.006 19.4507 375.182 Q21.3025 377.335 24.4507 377.335 Q27.5988 377.335 29.4275 375.182 Q31.2793 373.006 31.2793 369.279 Q31.2793 365.529 29.4275 363.376 Q27.5988 361.224 24.4507 361.224 M33.733 346.571 L33.733 350.83 Q31.9738 349.997 30.1682 349.557 Q28.3858 349.117 26.6266 349.117 Q21.997 349.117 19.5433 352.242 Q17.1127 355.367 16.7655 361.687 Q18.1313 359.673 20.1914 358.608 Q22.2516 357.52 24.7284 357.52 Q29.9367 357.52 32.946 360.691 Q35.9784 363.839 35.9784 369.279 Q35.9784 374.603 32.8303 377.821 Q29.6821 381.038 24.4507 381.038 Q18.4553 381.038 15.284 376.455 Q12.1128 371.849 12.1128 363.122 Q12.1128 354.927 16.0016 350.066 Q19.8905 345.182 26.4414 345.182 Q28.2006 345.182 29.983 345.529 Q31.7886 345.876 33.733 346.571 Z" fill="#000000" fill-rule="evenodd" fill-opacity="1" /><path clip-path="url(#clip820)" d="M 0 0 M51.0477 348.886 Q47.4367 348.886 45.608 352.45 Q43.8024 355.992 43.8024 363.122 Q43.8024 370.228 45.608 373.793 Q47.4367 377.335 51.0477 377.335 Q54.682 377.335 56.4875 373.793 Q58.3162 370.228 58.3162 363.122 Q58.3162 355.992 56.4875 352.45 Q54.682 348.886 51.0477 348.886 M51.0477 345.182 Q56.8579 345.182 59.9134 349.788 Q62.9921 354.372 62.9921 363.122 Q62.9921 371.849 59.9134 376.455 Q56.8579 381.038 51.0477 381.038 Q45.2376 381.038 42.1589 376.455 Q39.1034 371.849 39.1034 363.122 Q39.1034 354.372 42.1589 349.788 Q45.2376 345.182 51.0477 345.182 Z" fill="#000000" fill-rule="evenodd" fill-opacity="1" /><path clip-path="url(#clip822)" d="
M151.118 1243.47 L152.26 1240.37 L153.403 1237.28 L154.546 1234.18 L155.689 1231.1 L156.832 1228.02 L157.974 1224.95 L159.117 1221.89 L160.26 1218.83 L161.403 1215.79 
  L162.546 1212.76 L163.688 1209.74 L164.831 1206.74 L165.974 1203.75 L167.117 1200.77 L168.26 1197.81 L169.402 1194.87 L170.545 1191.95 L171.688 1189.04 L172.831 1186.16 
  L173.974 1183.29 L175.116 1180.45 L176.259 1177.63 L177.402 1174.83 L178.545 1172.05 L179.688 1169.3 L180.83 1166.58 L181.973 1163.88 L183.116 1161.2 L184.259 1158.56 
  L185.402 1155.94 L186.545 1153.35 L187.687 1150.79 L188.83 1148.25 L189.973 1145.75 L191.116 1143.28 L192.259 1140.84 L193.401 1138.44 L194.544 1136.06 L195.687 1133.72 
  L196.83 1131.41 L197.973 1129.13 L199.115 1126.89 L200.258 1124.68 L201.401 1122.51 L202.544 1120.37 L203.687 1118.27 L204.829 1116.2 L205.972 1114.17 L207.115 1112.17 
  L208.258 1110.22 L209.401 1108.29 L210.543 1106.41 L211.686 1104.56 L212.829 1102.74 L213.972 1100.97 L215.115 1099.23 L216.258 1097.53 L217.4 1095.86 L218.543 1094.23 
  L219.686 1092.64 L220.829 1091.09 L221.972 1089.57 L223.114 1088.09 L224.257 1086.64 L225.4 1085.24 L226.543 1083.86 L227.686 1082.53 L228.828 1081.23 L229.971 1079.96 
  L231.114 1078.74 L232.257 1077.54 L233.4 1076.38 L234.542 1075.26 L235.685 1074.17 L236.828 1073.11 L237.971 1072.09 L239.114 1071.11 L240.256 1070.15 L241.399 1069.23 
  L242.542 1068.34 L243.685 1067.48 L244.828 1066.65 L245.97 1065.86 L247.113 1065.09 L248.256 1064.36 L249.399 1063.66 L250.542 1062.98 L251.685 1062.33 L252.827 1061.72 
  L253.97 1061.13 L255.113 1060.57 L256.256 1060.03 L257.399 1059.52 L258.541 1059.04 L259.684 1058.58 L260.827 1058.15 L261.97 1057.75 L263.113 1057.36 L264.255 1057 
  L264.255 1479.3 L263.113 1479.3 L261.97 1479.3 L260.827 1479.3 L259.684 1479.3 L258.541 1479.3 L257.399 1479.3 L256.256 1479.3 L255.113 1479.3 L253.97 1479.3 
  L252.827 1479.3 L251.685 1479.3 L250.542 1479.3 L249.399 1479.3 L248.256 1479.3 L247.113 1479.3 L245.97 1479.3 L244.828 1479.3 L243.685 1479.3 L242.542 1479.3 
  L241.399 1479.3 L240.256 1479.3 L239.114 1479.3 L237.971 1479.3 L236.828 1479.3 L235.685 1479.3 L234.542 1479.3 L233.4 1479.3 L232.257 1479.3 L231.114 1479.3 
  L229.971 1479.3 L228.828 1479.3 L227.686 1479.3 L226.543 1479.3 L225.4 1479.3 L224.257 1479.3 L223.114 1479.3 L221.972 1479.3 L220.829 1479.3 L219.686 1479.3 
  L218.543 1479.3 L217.4 1479.3 L216.258 1479.3 L215.115 1479.3 L213.972 1479.3 L212.829 1479.3 L211.686 1479.3 L210.543 1479.3 L209.401 1479.3 L208.258 1479.3 
  L207.115 1479.3 L205.972 1479.3 L204.829 1479.3 L203.687 1479.3 L202.544 1479.3 L201.401 1479.3 L200.258 1479.3 L199.115 1479.3 L197.973 1479.3 L196.83 1479.3 
  L195.687 1479.3 L194.544 1479.3 L193.401 1479.3 L192.259 1479.3 L191.116 1479.3 L189.973 1479.3 L188.83 1479.3 L187.687 1479.3 L186.545 1479.3 L185.402 1479.3 
  L184.259 1479.3 L183.116 1479.3 L181.973 1479.3 L180.83 1479.3 L179.688 1479.3 L178.545 1479.3 L177.402 1479.3 L176.259 1479.3 L175.116 1479.3 L173.974 1479.3 
  L172.831 1479.3 L171.688 1479.3 L170.545 1479.3 L169.402 1479.3 L168.26 1479.3 L167.117 1479.3 L165.974 1479.3 L164.831 1479.3 L163.688 1479.3 L162.546 1479.3 
  L161.403 1479.3 L160.26 1479.3 L159.117 1479.3 L157.974 1479.3 L156.832 1479.3 L155.689 1479.3 L154.546 1479.3 L153.403 1479.3 L152.26 1479.3 L151.118 1479.3 
   Z
  " fill="#ffa500" fill-rule="evenodd" fill-opacity="0.5"/>
<polyline clip-path="url(#clip822)" style="stroke:#ffa500; stroke-width:4; stroke-opacity:1; fill:none" points="
  151.118,1243.47 152.26,1240.37 153.403,1237.28 154.546,1234.18 155.689,1231.1 156.832,1228.02 157.974,1224.95 159.117,1221.89 160.26,1218.83 161.403,1215.79 
  162.546,1212.76 163.688,1209.74 164.831,1206.74 165.974,1203.75 167.117,1200.77 168.26,1197.81 169.402,1194.87 170.545,1191.95 171.688,1189.04 172.831,1186.16 
  173.974,1183.29 175.116,1180.45 176.259,1177.63 177.402,1174.83 178.545,1172.05 179.688,1169.3 180.83,1166.58 181.973,1163.88 183.116,1161.2 184.259,1158.56 
  185.402,1155.94 186.545,1153.35 187.687,1150.79 188.83,1148.25 189.973,1145.75 191.116,1143.28 192.259,1140.84 193.401,1138.44 194.544,1136.06 195.687,1133.72 
  196.83,1131.41 197.973,1129.13 199.115,1126.89 200.258,1124.68 201.401,1122.51 202.544,1120.37 203.687,1118.27 204.829,1116.2 205.972,1114.17 207.115,1112.17 
  208.258,1110.22 209.401,1108.29 210.543,1106.41 211.686,1104.56 212.829,1102.74 213.972,1100.97 215.115,1099.23 216.258,1097.53 217.4,1095.86 218.543,1094.23 
  219.686,1092.64 220.829,1091.09 221.972,1089.57 223.114,1088.09 224.257,1086.64 225.4,1085.24 226.543,1083.86 227.686,1082.53 228.828,1081.23 229.971,1079.96 
  231.114,1078.74 232.257,1077.54 233.4,1076.38 234.542,1075.26 235.685,1074.17 236.828,1073.11 237.971,1072.09 239.114,1071.11 240.256,1070.15 241.399,1069.23 
  242.542,1068.34 243.685,1067.48 244.828,1066.65 245.97,1065.86 247.113,1065.09 248.256,1064.36 249.399,1063.66 250.542,1062.98 251.685,1062.33 252.827,1061.72 
  253.97,1061.13 255.113,1060.57 256.256,1060.03 257.399,1059.52 258.541,1059.04 259.684,1058.58 260.827,1058.15 261.97,1057.75 263.113,1057.36 264.255,1057 
  
  "/>
<path clip-path="url(#clip822)" d="
M264.255 1057 L279.736 1054.21 L295.216 1054.44 L310.696 1056.64 L326.176 1060.01 L341.657 1064.03 L357.137 1068.45 L372.617 1073.18 L388.097 1078.22 L403.578 1083.59 
  L419.058 1089.25 L434.538 1095.09 L450.018 1100.96 L465.499 1106.66 L480.979 1112.01 L496.459 1116.9 L511.939 1121.23 L527.42 1124.95 L542.9 1128.02 L558.38 1130.37 
  L573.86 1131.93 L589.341 1132.61 L604.821 1132.35 L620.301 1131.16 L635.781 1129.09 L651.262 1126.25 L666.742 1122.73 L682.222 1118.59 L697.702 1113.82 L713.183 1108.3 
  L728.663 1101.87 L744.143 1094.33 L759.623 1085.47 L775.104 1075.17 L790.584 1063.39 L806.064 1050.17 L821.544 1035.66 L837.025 1020.08 L852.505 1003.76 L867.985 987.101 
  L883.465 970.641 L898.946 955.029 L914.426 941.005 L929.906 929.312 L945.386 920.573 L960.867 915.149 L976.347 913.034 L991.827 913.82 L1007.31 916.757 L1022.79 920.896 
  L1038.27 925.287 L1053.75 929.154 L1069.23 932.017 L1084.71 933.715 L1100.19 934.319 L1115.67 933.989 L1131.15 932.801 L1146.63 930.599 L1162.11 926.91 L1177.59 920.917 
  L1193.07 911.483 L1208.55 897.209 L1224.03 876.52 L1239.51 847.801 L1254.99 809.587 L1270.47 760.848 L1285.95 701.305 L1301.43 631.734 L1316.91 554.153 L1332.39 471.78 
  L1347.87 388.751 L1363.35 309.599 L1378.83 238.646 L1394.31 179.422 L1409.79 134.29 L1425.27 104.336 L1440.75 89.5132 L1456.23 88.9544 L1471.71 101.311 L1487.2 125.017 
  L1502.68 158.415 L1518.16 199.778 L1533.64 247.275 L1549.12 298.982 L1564.6 352.97 L1580.08 407.477 L1595.56 461.114 L1611.04 513.031 L1626.52 562.984 L1642 611.278 
  L1657.48 658.596 L1672.96 705.759 L1688.44 753.48 L1703.92 802.167 L1719.4 851.815 L1734.88 902.003 L1750.36 951.987 L1765.84 1000.85 L1781.32 1047.69 L1796.8 1091.71 
  L1796.8 1479.3 L1781.32 1479.3 L1765.84 1479.3 L1750.36 1479.3 L1734.88 1479.3 L1719.4 1479.3 L1703.92 1479.3 L1688.44 1479.3 L1672.96 1479.3 L1657.48 1479.3 
  L1642 1479.3 L1626.52 1479.3 L1611.04 1479.3 L1595.56 1479.3 L1580.08 1479.3 L1564.6 1479.3 L1549.12 1479.3 L1533.64 1479.3 L1518.16 1479.3 L1502.68 1479.3 
  L1487.2 1479.3 L1471.71 1479.3 L1456.23 1479.3 L1440.75 1479.3 L1425.27 1479.3 L1409.79 1479.3 L1394.31 1479.3 L1378.83 1479.3 L1363.35 1479.3 L1347.87 1479.3 
  L1332.39 1479.3 L1316.91 1479.3 L1301.43 1479.3 L1285.95 1479.3 L1270.47 1479.3 L1254.99 1479.3 L1239.51 1479.3 L1224.03 1479.3 L1208.55 1479.3 L1193.07 1479.3 
  L1177.59 1479.3 L1162.11 1479.3 L1146.63 1479.3 L1131.15 1479.3 L1115.67 1479.3 L1100.19 1479.3 L1084.71 1479.3 L1069.23 1479.3 L1053.75 1479.3 L1038.27 1479.3 
  L1022.79 1479.3 L1007.31 1479.3 L991.827 1479.3 L976.347 1479.3 L960.867 1479.3 L945.386 1479.3 L929.906 1479.3 L914.426 1479.3 L898.946 1479.3 L883.465 1479.3 
  L867.985 1479.3 L852.505 1479.3 L837.025 1479.3 L821.544 1479.3 L806.064 1479.3 L790.584 1479.3 L775.104 1479.3 L759.623 1479.3 L744.143 1479.3 L728.663 1479.3 
  L713.183 1479.3 L697.702 1479.3 L682.222 1479.3 L666.742 1479.3 L651.262 1479.3 L635.781 1479.3 L620.301 1479.3 L604.821 1479.3 L589.341 1479.3 L573.86 1479.3 
  L558.38 1479.3 L542.9 1479.3 L527.42 1479.3 L511.939 1479.3 L496.459 1479.3 L480.979 1479.3 L465.499 1479.3 L450.018 1479.3 L434.538 1479.3 L419.058 1479.3 
  L403.578 1479.3 L388.097 1479.3 L372.617 1479.3 L357.137 1479.3 L341.657 1479.3 L326.176 1479.3 L310.696 1479.3 L295.216 1479.3 L279.736 1479.3 L264.255 1479.3 
   Z
  " fill="#008000" fill-rule="evenodd" fill-opacity="0.5"/>
<polyline clip-path="url(#clip822)" style="stroke:#008000; stroke-width:4; stroke-opacity:1; fill:none" points="
  264.255,1057 279.736,1054.21 295.216,1054.44 310.696,1056.64 326.176,1060.01 341.657,1064.03 357.137,1068.45 372.617,1073.18 388.097,1078.22 403.578,1083.59 
  419.058,1089.25 434.538,1095.09 450.018,1100.96 465.499,1106.66 480.979,1112.01 496.459,1116.9 511.939,1121.23 527.42,1124.95 542.9,1128.02 558.38,1130.37 
  573.86,1131.93 589.341,1132.61 604.821,1132.35 620.301,1131.16 635.781,1129.09 651.262,1126.25 666.742,1122.73 682.222,1118.59 697.702,1113.82 713.183,1108.3 
  728.663,1101.87 744.143,1094.33 759.623,1085.47 775.104,1075.17 790.584,1063.39 806.064,1050.17 821.544,1035.66 837.025,1020.08 852.505,1003.76 867.985,987.101 
  883.465,970.641 898.946,955.029 914.426,941.005 929.906,929.312 945.386,920.573 960.867,915.149 976.347,913.034 991.827,913.82 1007.31,916.757 1022.79,920.896 
  1038.27,925.287 1053.75,929.154 1069.23,932.017 1084.71,933.715 1100.19,934.319 1115.67,933.989 1131.15,932.801 1146.63,930.599 1162.11,926.91 1177.59,920.917 
  1193.07,911.483 1208.55,897.209 1224.03,876.52 1239.51,847.801 1254.99,809.587 1270.47,760.848 1285.95,701.305 1301.43,631.734 1316.91,554.153 1332.39,471.78 
  1347.87,388.751 1363.35,309.599 1378.83,238.646 1394.31,179.422 1409.79,134.29 1425.27,104.336 1440.75,89.5132 1456.23,88.9544 1471.71,101.311 1487.2,125.017 
  1502.68,158.415 1518.16,199.778 1533.64,247.275 1549.12,298.982 1564.6,352.97 1580.08,407.477 1595.56,461.114 1611.04,513.031 1626.52,562.984 1642,611.278 
  1657.48,658.596 1672.96,705.759 1688.44,753.48 1703.92,802.167 1719.4,851.815 1734.88,902.003 1750.36,951.987 1765.84,1000.85 1781.32,1047.69 1796.8,1091.71 
  
  "/>
<path clip-path="url(#clip822)" d="
M1796.8 1091.71 L1801.77 1105.15 L1806.74 1118.22 L1811.7 1130.92 L1816.67 1143.24 L1821.64 1155.17 L1826.61 1166.71 L1831.58 1177.86 L1836.54 1188.61 L1841.51 1198.97 
  L1846.48 1208.95 L1851.45 1218.53 L1856.42 1227.74 L1861.38 1236.57 L1866.35 1245.03 L1871.32 1253.13 L1876.29 1260.88 L1881.26 1268.29 L1886.22 1275.36 L1891.19 1282.11 
  L1896.16 1288.56 L1901.13 1294.7 L1906.1 1300.56 L1911.06 1306.14 L1916.03 1311.47 L1921 1316.54 L1925.97 1321.39 L1930.94 1326.02 L1935.9 1330.45 L1940.87 1334.69 
  L1945.84 1338.75 L1950.81 1342.65 L1955.78 1346.4 L1960.74 1350.01 L1965.71 1353.49 L1970.68 1356.86 L1975.65 1360.11 L1980.62 1363.26 L1985.58 1366.31 L1990.55 1369.27 
  L1995.52 1372.14 L2000.49 1374.92 L2005.46 1377.63 L2010.42 1380.25 L2015.39 1382.79 L2020.36 1385.25 L2025.33 1387.63 L2030.3 1389.92 L2035.26 1392.13 L2040.23 1394.26 
  L2045.2 1396.3 L2050.17 1398.25 L2055.14 1400.11 L2060.1 1401.89 L2065.07 1403.58 L2070.04 1405.17 L2075.01 1406.69 L2079.98 1408.11 L2084.94 1409.46 L2089.91 1410.73 
  L2094.88 1411.93 L2099.85 1413.06 L2104.82 1414.13 L2109.78 1415.14 L2114.75 1416.12 L2119.72 1417.05 L2124.69 1417.97 L2129.65 1418.86 L2134.62 1419.76 L2139.59 1420.65 
  L2144.56 1421.56 L2149.53 1422.5 L2154.49 1423.47 L2159.46 1424.48 L2164.43 1425.54 L2169.4 1426.65 L2174.37 1427.83 L2179.33 1429.07 L2184.3 1430.37 L2189.27 1431.74 
  L2194.24 1433.18 L2199.21 1434.68 L2204.17 1436.24 L2209.14 1437.85 L2214.11 1439.51 L2219.08 1441.22 L2224.05 1442.95 L2229.01 1444.71 L2233.98 1446.48 L2238.95 1448.26 
  L2243.92 1450.03 L2248.89 1451.79 L2253.85 1453.52 L2258.82 1455.23 L2263.79 1456.89 L2268.76 1458.51 L2273.73 1460.07 L2278.69 1461.58 L2283.66 1463.02 L2288.63 1464.39 
  L2288.63 1479.3 L2283.66 1479.3 L2278.69 1479.3 L2273.73 1479.3 L2268.76 1479.3 L2263.79 1479.3 L2258.82 1479.3 L2253.85 1479.3 L2248.89 1479.3 L2243.92 1479.3 
  L2238.95 1479.3 L2233.98 1479.3 L2229.01 1479.3 L2224.05 1479.3 L2219.08 1479.3 L2214.11 1479.3 L2209.14 1479.3 L2204.17 1479.3 L2199.21 1479.3 L2194.24 1479.3 
  L2189.27 1479.3 L2184.3 1479.3 L2179.33 1479.3 L2174.37 1479.3 L2169.4 1479.3 L2164.43 1479.3 L2159.46 1479.3 L2154.49 1479.3 L2149.53 1479.3 L2144.56 1479.3 
  L2139.59 1479.3 L2134.62 1479.3 L2129.65 1479.3 L2124.69 1479.3 L2119.72 1479.3 L2114.75 1479.3 L2109.78 1479.3 L2104.82 1479.3 L2099.85 1479.3 L2094.88 1479.3 
  L2089.91 1479.3 L2084.94 1479.3 L2079.98 1479.3 L2075.01 1479.3 L2070.04 1479.3 L2065.07 1479.3 L2060.1 1479.3 L2055.14 1479.3 L2050.17 1479.3 L2045.2 1479.3 
  L2040.23 1479.3 L2035.26 1479.3 L2030.3 1479.3 L2025.33 1479.3 L2020.36 1479.3 L2015.39 1479.3 L2010.42 1479.3 L2005.46 1479.3 L2000.49 1479.3 L1995.52 1479.3 
  L1990.55 1479.3 L1985.58 1479.3 L1980.62 1479.3 L1975.65 1479.3 L1970.68 1479.3 L1965.71 1479.3 L1960.74 1479.3 L1955.78 1479.3 L1950.81 1479.3 L1945.84 1479.3 
  L1940.87 1479.3 L1935.9 1479.3 L1930.94 1479.3 L1925.97 1479.3 L1921 1479.3 L1916.03 1479.3 L1911.06 1479.3 L1906.1 1479.3 L1901.13 1479.3 L1896.16 1479.3 
  L1891.19 1479.3 L1886.22 1479.3 L1881.26 1479.3 L1876.29 1479.3 L1871.32 1479.3 L1866.35 1479.3 L1861.38 1479.3 L1856.42 1479.3 L1851.45 1479.3 L1846.48 1479.3 
  L1841.51 1479.3 L1836.54 1479.3 L1831.58 1479.3 L1826.61 1479.3 L1821.64 1479.3 L1816.67 1479.3 L1811.7 1479.3 L1806.74 1479.3 L1801.77 1479.3 L1796.8 1479.3 
   Z
  " fill="#ffa500" fill-rule="evenodd" fill-opacity="0.5"/>
<polyline clip-path="url(#clip822)" style="stroke:#ffa500; stroke-width:4; stroke-opacity:1; fill:none" points="
  1796.8,1091.71 1801.77,1105.15 1806.74,1118.22 1811.7,1130.92 1816.67,1143.24 1821.64,1155.17 1826.61,1166.71 1831.58,1177.86 1836.54,1188.61 1841.51,1198.97 
  1846.48,1208.95 1851.45,1218.53 1856.42,1227.74 1861.38,1236.57 1866.35,1245.03 1871.32,1253.13 1876.29,1260.88 1881.26,1268.29 1886.22,1275.36 1891.19,1282.11 
  1896.16,1288.56 1901.13,1294.7 1906.1,1300.56 1911.06,1306.14 1916.03,1311.47 1921,1316.54 1925.97,1321.39 1930.94,1326.02 1935.9,1330.45 1940.87,1334.69 
  1945.84,1338.75 1950.81,1342.65 1955.78,1346.4 1960.74,1350.01 1965.71,1353.49 1970.68,1356.86 1975.65,1360.11 1980.62,1363.26 1985.58,1366.31 1990.55,1369.27 
  1995.52,1372.14 2000.49,1374.92 2005.46,1377.63 2010.42,1380.25 2015.39,1382.79 2020.36,1385.25 2025.33,1387.63 2030.3,1389.92 2035.26,1392.13 2040.23,1394.26 
  2045.2,1396.3 2050.17,1398.25 2055.14,1400.11 2060.1,1401.89 2065.07,1403.58 2070.04,1405.17 2075.01,1406.69 2079.98,1408.11 2084.94,1409.46 2089.91,1410.73 
  2094.88,1411.93 2099.85,1413.06 2104.82,1414.13 2109.78,1415.14 2114.75,1416.12 2119.72,1417.05 2124.69,1417.97 2129.65,1418.86 2134.62,1419.76 2139.59,1420.65 
  2144.56,1421.56 2149.53,1422.5 2154.49,1423.47 2159.46,1424.48 2164.43,1425.54 2169.4,1426.65 2174.37,1427.83 2179.33,1429.07 2184.3,1430.37 2189.27,1431.74 
  2194.24,1433.18 2199.21,1434.68 2204.17,1436.24 2209.14,1437.85 2214.11,1439.51 2219.08,1441.22 2224.05,1442.95 2229.01,1444.71 2233.98,1446.48 2238.95,1448.26 
  2243.92,1450.03 2248.89,1451.79 2253.85,1453.52 2258.82,1455.23 2263.79,1456.89 2268.76,1458.51 2273.73,1460.07 2278.69,1461.58 2283.66,1463.02 2288.63,1464.39 
  
  "/>
<polyline clip-path="url(#clip822)" style="stroke:#0000ff; stroke-width:4; stroke-opacity:1; fill:none" points="
  1175.71,1479.3 1175.71,921.805 
  "/>
<polyline clip-path="url(#clip822)" style="stroke:#000000; stroke-width:4; stroke-opacity:1; fill:none" points="
  1335.08,1479.3 1335.08,457.277 
  "/>
<path clip-path="url(#clip820)" d="
M1494.58 459.25 L2277.23 459.25 L2277.23 96.3696 L1494.58 96.3696  Z
  " fill="#ffffff" fill-rule="evenodd" fill-opacity="1"/>
<polyline clip-path="url(#clip820)" style="stroke:#000000; stroke-width:4; stroke-opacity:1; fill:none" points="
  1494.58,459.25 2277.23,459.25 2277.23,96.3696 1494.58,96.3696 1494.58,459.25 
  "/>
<path clip-path="url(#clip820)" d="
M1519.75 181.042 L1670.81 181.042 L1670.81 132.658 L1519.75 132.658 L1519.75 181.042  Z
  " fill="#ffa500" fill-rule="evenodd" fill-opacity="0.5"/>
<polyline clip-path="url(#clip820)" style="stroke:#ffa500; stroke-width:4; stroke-opacity:1; fill:none" points="
  1519.75,132.658 1670.81,132.658 
  "/>
<path clip-path="url(#clip820)" d="M 0 0 M1700.38 161.19 Q1700.38 165.889 1702.3 168.574 Q1704.24 171.236 1707.62 171.236 Q1711 171.236 1712.95 168.574 Q1714.89 165.889 1714.89 161.19 Q1714.89 156.491 1712.95 153.829 Q1711 151.144 1707.62 151.144 Q1704.24 151.144 1702.3 153.829 Q1700.38 156.491 1700.38 161.19 M1714.89 170.241 Q1713.55 172.555 1711.49 173.69 Q1709.45 174.801 1706.58 174.801 Q1701.88 174.801 1698.92 171.051 Q1695.98 167.301 1695.98 161.19 Q1695.98 155.079 1698.92 151.329 Q1701.88 147.579 1706.58 147.579 Q1709.45 147.579 1711.49 148.713 Q1713.55 149.824 1714.89 152.139 L1714.89 148.204 L1719.15 148.204 L1719.15 183.991 L1714.89 183.991 L1714.89 170.241 Z" fill="#000000" fill-rule="evenodd" fill-opacity="1" /><path clip-path="url(#clip820)" d="M 0 0 M1734.22 142.648 Q1730.61 142.648 1728.78 146.213 Q1726.98 149.755 1726.98 156.884 Q1726.98 163.991 1728.78 167.556 Q1730.61 171.097 1734.22 171.097 Q1737.85 171.097 1739.66 167.556 Q1741.49 163.991 1741.49 156.884 Q1741.49 149.755 1739.66 146.213 Q1737.85 142.648 1734.22 142.648 M1734.22 138.945 Q1740.03 138.945 1743.09 143.551 Q1746.17 148.134 1746.17 156.884 Q1746.17 165.611 1743.09 170.218 Q1740.03 174.801 1734.22 174.801 Q1728.41 174.801 1725.33 170.218 Q1722.28 165.611 1722.28 156.884 Q1722.28 148.134 1725.33 143.551 Q1728.41 138.945 1734.22 138.945 Z" fill="#000000" fill-rule="evenodd" fill-opacity="1" /><path clip-path="url(#clip820)" d="M 0 0 M1751.28 139.57 L1769.64 139.57 L1769.64 143.505 L1755.56 143.505 L1755.56 151.977 Q1756.58 151.63 1757.6 151.468 Q1758.62 151.282 1759.64 151.282 Q1765.42 151.282 1768.8 154.454 Q1772.18 157.625 1772.18 163.042 Q1772.18 168.62 1768.71 171.722 Q1765.24 174.801 1758.92 174.801 Q1756.74 174.801 1754.48 174.43 Q1752.23 174.06 1749.82 173.319 L1749.82 168.62 Q1751.91 169.755 1754.13 170.31 Q1756.35 170.866 1758.83 170.866 Q1762.83 170.866 1765.17 168.759 Q1767.51 166.653 1767.51 163.042 Q1767.51 159.431 1765.17 157.324 Q1762.83 155.218 1758.83 155.218 Q1756.95 155.218 1755.08 155.634 Q1753.23 156.051 1751.28 156.931 L1751.28 139.57 Z" fill="#000000" fill-rule="evenodd" fill-opacity="1" /><path clip-path="url(#clip820)" d="
M1519.75 241.522 L1670.81 241.522 L1670.81 193.138 L1519.75 193.138 L1519.75 241.522  Z
  " fill="#008000" fill-rule="evenodd" fill-opacity="0.5"/>
<polyline clip-path="url(#clip820)" style="stroke:#008000; stroke-width:4; stroke-opacity:1; fill:none" points="
  1519.75,193.138 1670.81,193.138 
  "/>
<path clip-path="url(#clip820)" d="M 0 0 M1698.2 233.892 L1698.2 229.633 Q1699.96 230.466 1701.77 230.906 Q1703.57 231.346 1705.31 231.346 Q1709.94 231.346 1712.37 228.244 Q1714.82 225.119 1715.17 218.776 Q1713.83 220.767 1711.77 221.832 Q1709.71 222.897 1707.21 222.897 Q1702.02 222.897 1698.99 219.772 Q1695.98 216.624 1695.98 211.184 Q1695.98 205.86 1699.13 202.642 Q1702.28 199.425 1707.51 199.425 Q1713.5 199.425 1716.65 204.031 Q1719.82 208.614 1719.82 217.364 Q1719.82 225.536 1715.93 230.42 Q1712.07 235.281 1705.52 235.281 Q1703.76 235.281 1701.95 234.934 Q1700.15 234.586 1698.2 233.892 M1707.51 219.239 Q1710.66 219.239 1712.48 217.086 Q1714.34 214.934 1714.34 211.184 Q1714.34 207.457 1712.48 205.304 Q1710.66 203.128 1707.51 203.128 Q1704.36 203.128 1702.51 205.304 Q1700.68 207.457 1700.68 211.184 Q1700.68 214.934 1702.51 217.086 Q1704.36 219.239 1707.51 219.239 Z" fill="#000000" fill-rule="evenodd" fill-opacity="1" /><path clip-path="url(#clip820)" d="M 0 0 M1734.89 203.128 Q1731.28 203.128 1729.45 206.693 Q1727.65 210.235 1727.65 217.364 Q1727.65 224.471 1729.45 228.036 Q1731.28 231.577 1734.89 231.577 Q1738.53 231.577 1740.33 228.036 Q1742.16 224.471 1742.16 217.364 Q1742.16 210.235 1740.33 206.693 Q1738.53 203.128 1734.89 203.128 M1734.89 199.425 Q1740.7 199.425 1743.76 204.031 Q1746.84 208.614 1746.84 217.364 Q1746.84 226.091 1743.76 230.698 Q1740.7 235.281 1734.89 235.281 Q1729.08 235.281 1726 230.698 Q1722.95 226.091 1722.95 217.364 Q1722.95 208.614 1726 204.031 Q1729.08 199.425 1734.89 199.425 Z" fill="#000000" fill-rule="evenodd" fill-opacity="1" /><path clip-path="url(#clip820)" d="M 0 0 M1781.3 219.401 Q1779.29 219.401 1778.13 221.114 Q1777 222.827 1777 225.883 Q1777 228.892 1778.13 230.628 Q1779.29 232.341 1781.3 232.341 Q1783.27 232.341 1784.41 230.628 Q1785.56 228.892 1785.56 225.883 Q1785.56 222.85 1784.41 221.137 Q1783.27 219.401 1781.3 219.401 M1781.3 216.462 Q1784.96 216.462 1787.11 219.008 Q1789.27 221.554 1789.27 225.883 Q1789.27 230.211 1787.09 232.758 Q1784.94 235.281 1781.3 235.281 Q1777.6 235.281 1775.45 232.758 Q1773.29 230.211 1773.29 225.883 Q1773.29 221.531 1775.45 219.008 Q1777.62 216.462 1781.3 216.462 M1757.42 202.364 Q1755.42 202.364 1754.27 204.1 Q1753.13 205.813 1753.13 208.823 Q1753.13 211.878 1754.27 213.591 Q1755.4 215.304 1757.42 215.304 Q1759.43 215.304 1760.56 213.591 Q1761.72 211.878 1761.72 208.823 Q1761.72 205.837 1760.56 204.1 Q1759.41 202.364 1757.42 202.364 M1778.32 199.425 L1782.02 199.425 L1760.4 235.281 L1756.7 235.281 L1778.32 199.425 M1757.42 199.425 Q1761.07 199.425 1763.25 201.971 Q1765.42 204.494 1765.42 208.823 Q1765.42 213.198 1763.25 215.721 Q1761.1 218.244 1757.42 218.244 Q1753.73 218.244 1751.58 215.721 Q1749.45 213.174 1749.45 208.823 Q1749.45 204.517 1751.6 201.971 Q1753.76 199.425 1757.42 199.425 Z" fill="#000000" fill-rule="evenodd" fill-opacity="1" /><path clip-path="url(#clip820)" d="M 0 0 M1830.35 218.961 L1830.35 234.61 L1826.1 234.61 L1826.1 219.1 Q1826.1 215.42 1824.66 213.591 Q1823.22 211.762 1820.35 211.762 Q1816.91 211.762 1814.91 213.962 Q1812.92 216.161 1812.92 219.957 L1812.92 234.61 L1808.64 234.61 L1808.64 208.684 L1812.92 208.684 L1812.92 212.712 Q1814.45 210.374 1816.51 209.216 Q1818.6 208.059 1821.3 208.059 Q1825.77 208.059 1828.06 210.837 Q1830.35 213.591 1830.35 218.961 Z" fill="#000000" fill-rule="evenodd" fill-opacity="1" /><path clip-path="url(#clip820)" d="M 0 0 M1844.87 211.67 Q1841.44 211.67 1839.45 214.355 Q1837.46 217.017 1837.46 221.67 Q1837.46 226.323 1839.43 229.008 Q1841.42 231.67 1844.87 231.67 Q1848.27 231.67 1850.26 228.985 Q1852.25 226.299 1852.25 221.67 Q1852.25 217.063 1850.26 214.378 Q1848.27 211.67 1844.87 211.67 M1844.87 208.059 Q1850.42 208.059 1853.6 211.67 Q1856.77 215.281 1856.77 221.67 Q1856.77 228.036 1853.6 231.67 Q1850.42 235.281 1844.87 235.281 Q1839.29 235.281 1836.12 231.67 Q1832.97 228.036 1832.97 221.67 Q1832.97 215.281 1836.12 211.67 Q1839.29 208.059 1844.87 208.059 Z" fill="#000000" fill-rule="evenodd" fill-opacity="1" /><path clip-path="url(#clip820)" d="M 0 0 M1882.78 218.961 L1882.78 234.61 L1878.53 234.61 L1878.53 219.1 Q1878.53 215.42 1877.09 213.591 Q1875.66 211.762 1872.78 211.762 Q1869.34 211.762 1867.35 213.962 Q1865.35 216.161 1865.35 219.957 L1865.35 234.61 L1861.07 234.61 L1861.07 208.684 L1865.35 208.684 L1865.35 212.712 Q1866.88 210.374 1868.94 209.216 Q1871.03 208.059 1873.73 208.059 Q1878.2 208.059 1880.49 210.837 Q1882.78 213.591 1882.78 218.961 Z" fill="#000000" fill-rule="evenodd" fill-opacity="1" /><path clip-path="url(#clip820)" d="M 0 0 M1885.1 219.725 L1897.58 219.725 L1897.58 223.522 L1885.1 223.522 L1885.1 219.725 Z" fill="#000000" fill-rule="evenodd" fill-opacity="1" /><path clip-path="url(#clip820)" d="M 0 0 M1917.07 212.665 Q1916.35 212.249 1915.49 212.063 Q1914.66 211.855 1913.64 211.855 Q1910.03 211.855 1908.09 214.216 Q1906.16 216.554 1906.16 220.952 L1906.16 234.61 L1901.88 234.61 L1901.88 208.684 L1906.16 208.684 L1906.16 212.712 Q1907.51 210.35 1909.66 209.216 Q1911.81 208.059 1914.89 208.059 Q1915.33 208.059 1915.86 208.128 Q1916.4 208.175 1917.04 208.29 L1917.07 212.665 Z" fill="#000000" fill-rule="evenodd" fill-opacity="1" /><path clip-path="url(#clip820)" d="M 0 0 M1942.67 220.582 L1942.67 222.665 L1923.09 222.665 Q1923.36 227.063 1925.72 229.378 Q1928.11 231.67 1932.34 231.67 Q1934.8 231.67 1937.09 231.068 Q1939.4 230.466 1941.67 229.262 L1941.67 233.29 Q1939.38 234.262 1936.97 234.772 Q1934.57 235.281 1932.09 235.281 Q1925.89 235.281 1922.25 231.67 Q1918.64 228.059 1918.64 221.901 Q1918.64 215.536 1922.07 211.809 Q1925.52 208.059 1931.35 208.059 Q1936.58 208.059 1939.61 211.438 Q1942.67 214.795 1942.67 220.582 M1938.41 219.332 Q1938.36 215.837 1936.44 213.753 Q1934.54 211.67 1931.4 211.67 Q1927.83 211.67 1925.68 213.684 Q1923.55 215.698 1923.22 219.355 L1938.41 219.332 Z" fill="#000000" fill-rule="evenodd" fill-opacity="1" /><path clip-path="url(#clip820)" d="M 0 0 M1947.14 208.684 L1951.4 208.684 L1951.4 235.073 Q1951.4 240.026 1949.5 242.248 Q1947.62 244.471 1943.43 244.471 L1941.81 244.471 L1941.81 240.86 L1942.95 240.86 Q1945.38 240.86 1946.26 239.725 Q1947.14 238.614 1947.14 235.073 L1947.14 208.684 M1947.14 198.591 L1951.4 198.591 L1951.4 203.985 L1947.14 203.985 L1947.14 198.591 Z" fill="#000000" fill-rule="evenodd" fill-opacity="1" /><path clip-path="url(#clip820)" d="M 0 0 M1978.04 220.582 L1978.04 222.665 L1958.46 222.665 Q1958.73 227.063 1961.09 229.378 Q1963.48 231.67 1967.71 231.67 Q1970.17 231.67 1972.46 231.068 Q1974.78 230.466 1977.04 229.262 L1977.04 233.29 Q1974.75 234.262 1972.34 234.772 Q1969.94 235.281 1967.46 235.281 Q1961.26 235.281 1957.62 231.67 Q1954.01 228.059 1954.01 221.901 Q1954.01 215.536 1957.44 211.809 Q1960.89 208.059 1966.72 208.059 Q1971.95 208.059 1974.98 211.438 Q1978.04 214.795 1978.04 220.582 M1973.78 219.332 Q1973.73 215.837 1971.81 213.753 Q1969.91 211.67 1966.77 211.67 Q1963.2 211.67 1961.05 213.684 Q1958.92 215.698 1958.59 219.355 L1973.78 219.332 Z" fill="#000000" fill-rule="evenodd" fill-opacity="1" /><path clip-path="url(#clip820)" d="M 0 0 M2001.16 209.679 L2001.16 213.661 Q1999.36 212.665 1997.53 212.179 Q1995.72 211.67 1993.87 211.67 Q1989.73 211.67 1987.44 214.309 Q1985.15 216.924 1985.15 221.67 Q1985.15 226.415 1987.44 229.054 Q1989.73 231.67 1993.87 231.67 Q1995.72 231.67 1997.53 231.184 Q1999.36 230.674 2001.16 229.679 L2001.16 233.614 Q1999.38 234.448 1997.46 234.864 Q1995.56 235.281 1993.41 235.281 Q1987.55 235.281 1984.1 231.6 Q1980.65 227.92 1980.65 221.67 Q1980.65 215.327 1984.13 211.693 Q1987.62 208.059 1993.69 208.059 Q1995.65 208.059 1997.53 208.475 Q1999.4 208.869 2001.16 209.679 Z" fill="#000000" fill-rule="evenodd" fill-opacity="1" /><path clip-path="url(#clip820)" d="M 0 0 M2009.84 201.323 L2009.84 208.684 L2018.62 208.684 L2018.62 211.994 L2009.84 211.994 L2009.84 226.068 Q2009.84 229.239 2010.7 230.142 Q2011.58 231.045 2014.24 231.045 L2018.62 231.045 L2018.62 234.61 L2014.24 234.61 Q2009.31 234.61 2007.44 232.781 Q2005.56 230.929 2005.56 226.068 L2005.56 211.994 L2002.44 211.994 L2002.44 208.684 L2005.56 208.684 L2005.56 201.323 L2009.84 201.323 Z" fill="#000000" fill-rule="evenodd" fill-opacity="1" /><path clip-path="url(#clip820)" d="M 0 0 M2023.08 208.684 L2027.34 208.684 L2027.34 234.61 L2023.08 234.61 L2023.08 208.684 M2023.08 198.591 L2027.34 198.591 L2027.34 203.985 L2023.08 203.985 L2023.08 198.591 Z" fill="#000000" fill-rule="evenodd" fill-opacity="1" /><path clip-path="url(#clip820)" d="M 0 0 M2041.86 211.67 Q2038.43 211.67 2036.44 214.355 Q2034.45 217.017 2034.45 221.67 Q2034.45 226.323 2036.42 229.008 Q2038.41 231.67 2041.86 231.67 Q2045.26 231.67 2047.25 228.985 Q2049.24 226.299 2049.24 221.67 Q2049.24 217.063 2047.25 214.378 Q2045.26 211.67 2041.86 211.67 M2041.86 208.059 Q2047.41 208.059 2050.58 211.67 Q2053.76 215.281 2053.76 221.67 Q2053.76 228.036 2050.58 231.67 Q2047.41 235.281 2041.86 235.281 Q2036.28 235.281 2033.11 231.67 Q2029.96 228.036 2029.96 221.67 Q2029.96 215.281 2033.11 211.67 Q2036.28 208.059 2041.86 208.059 Z" fill="#000000" fill-rule="evenodd" fill-opacity="1" /><path clip-path="url(#clip820)" d="M 0 0 M2079.77 218.961 L2079.77 234.61 L2075.52 234.61 L2075.52 219.1 Q2075.52 215.42 2074.08 213.591 Q2072.64 211.762 2069.77 211.762 Q2066.33 211.762 2064.33 213.962 Q2062.34 216.161 2062.34 219.957 L2062.34 234.61 L2058.06 234.61 L2058.06 208.684 L2062.34 208.684 L2062.34 212.712 Q2063.87 210.374 2065.93 209.216 Q2068.02 208.059 2070.72 208.059 Q2075.19 208.059 2077.48 210.837 Q2079.77 213.591 2079.77 218.961 Z" fill="#000000" fill-rule="evenodd" fill-opacity="1" /><path clip-path="url(#clip820)" d="M 0 0 M2114.33 212.665 Q2113.62 212.249 2112.76 212.063 Q2111.93 211.855 2110.91 211.855 Q2107.3 211.855 2105.35 214.216 Q2103.43 216.554 2103.43 220.952 L2103.43 234.61 L2099.15 234.61 L2099.15 208.684 L2103.43 208.684 L2103.43 212.712 Q2104.77 210.35 2106.93 209.216 Q2109.08 208.059 2112.16 208.059 Q2112.6 208.059 2113.13 208.128 Q2113.66 208.175 2114.31 208.29 L2114.33 212.665 Z" fill="#000000" fill-rule="evenodd" fill-opacity="1" /><path clip-path="url(#clip820)" d="M 0 0 M2139.94 220.582 L2139.94 222.665 L2120.35 222.665 Q2120.63 227.063 2122.99 229.378 Q2125.38 231.67 2129.61 231.67 Q2132.07 231.67 2134.36 231.068 Q2136.67 230.466 2138.94 229.262 L2138.94 233.29 Q2136.65 234.262 2134.24 234.772 Q2131.83 235.281 2129.36 235.281 Q2123.15 235.281 2119.52 231.67 Q2115.91 228.059 2115.91 221.901 Q2115.91 215.536 2119.33 211.809 Q2122.78 208.059 2128.62 208.059 Q2133.85 208.059 2136.88 211.438 Q2139.94 214.795 2139.94 220.582 M2135.68 219.332 Q2135.63 215.837 2133.71 213.753 Q2131.81 211.67 2128.66 211.67 Q2125.1 211.67 2122.95 213.684 Q2120.82 215.698 2120.49 219.355 L2135.68 219.332 Z" fill="#000000" fill-rule="evenodd" fill-opacity="1" /><path clip-path="url(#clip820)" d="M 0 0 M2161.46 221.346 Q2161.46 216.716 2159.54 214.17 Q2157.64 211.624 2154.2 211.624 Q2150.77 211.624 2148.85 214.17 Q2146.95 216.716 2146.95 221.346 Q2146.95 225.952 2148.85 228.498 Q2150.77 231.045 2154.2 231.045 Q2157.64 231.045 2159.54 228.498 Q2161.46 225.952 2161.46 221.346 M2165.72 231.392 Q2165.72 238.012 2162.78 241.23 Q2159.84 244.471 2153.78 244.471 Q2151.53 244.471 2149.54 244.123 Q2147.55 243.799 2145.68 243.105 L2145.68 238.961 Q2147.55 239.98 2149.38 240.466 Q2151.21 240.952 2153.11 240.952 Q2157.3 240.952 2159.38 238.753 Q2161.46 236.577 2161.46 232.156 L2161.46 230.049 Q2160.14 232.341 2158.08 233.475 Q2156.02 234.61 2153.15 234.61 Q2148.39 234.61 2145.47 230.975 Q2142.55 227.341 2142.55 221.346 Q2142.55 215.327 2145.47 211.693 Q2148.39 208.059 2153.15 208.059 Q2156.02 208.059 2158.08 209.193 Q2160.14 210.327 2161.46 212.619 L2161.46 208.684 L2165.72 208.684 L2165.72 231.392 Z" fill="#000000" fill-rule="evenodd" fill-opacity="1" /><path clip-path="url(#clip820)" d="M 0 0 M2170.19 208.684 L2174.45 208.684 L2174.45 234.61 L2170.19 234.61 L2170.19 208.684 M2170.19 198.591 L2174.45 198.591 L2174.45 203.985 L2170.19 203.985 L2170.19 198.591 Z" fill="#000000" fill-rule="evenodd" fill-opacity="1" /><path clip-path="url(#clip820)" d="M 0 0 M2188.96 211.67 Q2185.54 211.67 2183.55 214.355 Q2181.56 217.017 2181.56 221.67 Q2181.56 226.323 2183.52 229.008 Q2185.51 231.67 2188.96 231.67 Q2192.37 231.67 2194.36 228.985 Q2196.35 226.299 2196.35 221.67 Q2196.35 217.063 2194.36 214.378 Q2192.37 211.67 2188.96 211.67 M2188.96 208.059 Q2194.52 208.059 2197.69 211.67 Q2200.86 215.281 2200.86 221.67 Q2200.86 228.036 2197.69 231.67 Q2194.52 235.281 2188.96 235.281 Q2183.39 235.281 2180.21 231.67 Q2177.07 228.036 2177.07 221.67 Q2177.07 215.281 2180.21 211.67 Q2183.39 208.059 2188.96 208.059 Z" fill="#000000" fill-rule="evenodd" fill-opacity="1" /><path clip-path="url(#clip820)" d="M 0 0 M2226.88 218.961 L2226.88 234.61 L2222.62 234.61 L2222.62 219.1 Q2222.62 215.42 2221.19 213.591 Q2219.75 211.762 2216.88 211.762 Q2213.43 211.762 2211.44 213.962 Q2209.45 216.161 2209.45 219.957 L2209.45 234.61 L2205.17 234.61 L2205.17 208.684 L2209.45 208.684 L2209.45 212.712 Q2210.98 210.374 2213.04 209.216 Q2215.12 208.059 2217.83 208.059 Q2222.3 208.059 2224.59 210.837 Q2226.88 213.591 2226.88 218.961 Z" fill="#000000" fill-rule="evenodd" fill-opacity="1" /><path clip-path="url(#clip820)" d="
M1519.75 302.002 L1670.81 302.002 L1670.81 253.618 L1519.75 253.618 L1519.75 302.002  Z
  " fill="#ffa500" fill-rule="evenodd" fill-opacity="0.5"/>
<polyline clip-path="url(#clip820)" style="stroke:#ffa500; stroke-width:4; stroke-opacity:1; fill:none" points="
  1519.75,253.618 1670.81,253.618 
  "/>
<path clip-path="url(#clip820)" d="M 0 0 M1700.38 282.15 Q1700.38 286.849 1702.3 289.534 Q1704.24 292.196 1707.62 292.196 Q1711 292.196 1712.95 289.534 Q1714.89 286.849 1714.89 282.15 Q1714.89 277.451 1712.95 274.789 Q1711 272.104 1707.62 272.104 Q1704.24 272.104 1702.3 274.789 Q1700.38 277.451 1700.38 282.15 M1714.89 291.201 Q1713.55 293.515 1711.49 294.65 Q1709.45 295.761 1706.58 295.761 Q1701.88 295.761 1698.92 292.011 Q1695.98 288.261 1695.98 282.15 Q1695.98 276.039 1698.92 272.289 Q1701.88 268.539 1706.58 268.539 Q1709.45 268.539 1711.49 269.673 Q1713.55 270.784 1714.89 273.099 L1714.89 269.164 L1719.15 269.164 L1719.15 304.951 L1714.89 304.951 L1714.89 291.201 Z" fill="#000000" fill-rule="evenodd" fill-opacity="1" /><path clip-path="url(#clip820)" d="M 0 0 M1724.36 294.372 L1724.36 290.113 Q1726.12 290.946 1727.92 291.386 Q1729.73 291.826 1731.47 291.826 Q1736.1 291.826 1738.53 288.724 Q1740.98 285.599 1741.33 279.256 Q1739.98 281.247 1737.92 282.312 Q1735.86 283.377 1733.36 283.377 Q1728.18 283.377 1725.15 280.252 Q1722.14 277.104 1722.14 271.664 Q1722.14 266.34 1725.29 263.122 Q1728.43 259.905 1733.67 259.905 Q1739.66 259.905 1742.81 264.511 Q1745.98 269.094 1745.98 277.844 Q1745.98 286.016 1742.09 290.9 Q1738.23 295.761 1731.67 295.761 Q1729.92 295.761 1728.11 295.414 Q1726.3 295.066 1724.36 294.372 M1733.67 279.719 Q1736.81 279.719 1738.64 277.566 Q1740.49 275.414 1740.49 271.664 Q1740.49 267.937 1738.64 265.784 Q1736.81 263.608 1733.67 263.608 Q1730.52 263.608 1728.67 265.784 Q1726.84 267.937 1726.84 271.664 Q1726.84 275.414 1728.67 277.566 Q1730.52 279.719 1733.67 279.719 Z" fill="#000000" fill-rule="evenodd" fill-opacity="1" /><path clip-path="url(#clip820)" d="M 0 0 M1751.1 260.53 L1769.45 260.53 L1769.45 264.465 L1755.38 264.465 L1755.38 272.937 Q1756.4 272.59 1757.42 272.428 Q1758.43 272.242 1759.45 272.242 Q1765.24 272.242 1768.62 275.414 Q1772 278.585 1772 284.002 Q1772 289.58 1768.53 292.682 Q1765.05 295.761 1758.73 295.761 Q1756.56 295.761 1754.29 295.39 Q1752.04 295.02 1749.64 294.279 L1749.64 289.58 Q1751.72 290.715 1753.94 291.27 Q1756.17 291.826 1758.64 291.826 Q1762.65 291.826 1764.98 289.719 Q1767.32 287.613 1767.32 284.002 Q1767.32 280.391 1764.98 278.284 Q1762.65 276.178 1758.64 276.178 Q1756.77 276.178 1754.89 276.594 Q1753.04 277.011 1751.1 277.891 L1751.1 260.53 Z" fill="#000000" fill-rule="evenodd" fill-opacity="1" /><polyline clip-path="url(#clip820)" style="stroke:#0000ff; stroke-width:4; stroke-opacity:1; fill:none" points="
  1519.75,338.29 1670.81,338.29 
  "/>
<path clip-path="url(#clip820)" d="M 0 0 M1716.33 334.621 Q1717.92 331.75 1720.15 330.385 Q1722.37 329.019 1725.38 329.019 Q1729.43 329.019 1731.63 331.866 Q1733.83 334.69 1733.83 339.921 L1733.83 355.57 L1729.54 355.57 L1729.54 340.06 Q1729.54 336.334 1728.23 334.528 Q1726.91 332.722 1724.2 332.722 Q1720.89 332.722 1718.97 334.922 Q1717.04 337.121 1717.04 340.917 L1717.04 355.57 L1712.76 355.57 L1712.76 340.06 Q1712.76 336.31 1711.44 334.528 Q1710.12 332.722 1707.37 332.722 Q1704.11 332.722 1702.18 334.945 Q1700.26 337.144 1700.26 340.917 L1700.26 355.57 L1695.98 355.57 L1695.98 329.644 L1700.26 329.644 L1700.26 333.672 Q1701.72 331.287 1703.76 330.153 Q1705.79 329.019 1708.6 329.019 Q1711.42 329.019 1713.39 330.454 Q1715.38 331.889 1716.33 334.621 Z" fill="#000000" fill-rule="evenodd" fill-opacity="1" /><path clip-path="url(#clip820)" d="M 0 0 M1760.47 341.542 L1760.47 343.625 L1740.89 343.625 Q1741.17 348.023 1743.53 350.338 Q1745.91 352.63 1750.15 352.63 Q1752.6 352.63 1754.89 352.028 Q1757.21 351.426 1759.48 350.222 L1759.48 354.25 Q1757.18 355.222 1754.78 355.732 Q1752.37 356.241 1749.89 356.241 Q1743.69 356.241 1740.05 352.63 Q1736.44 349.019 1736.44 342.861 Q1736.44 336.496 1739.87 332.769 Q1743.32 329.019 1749.15 329.019 Q1754.38 329.019 1757.42 332.398 Q1760.47 335.755 1760.47 341.542 M1756.21 340.292 Q1756.17 336.797 1754.24 334.713 Q1752.35 332.63 1749.2 332.63 Q1745.63 332.63 1743.48 334.644 Q1741.35 336.658 1741.03 340.315 L1756.21 340.292 Z" fill="#000000" fill-rule="evenodd" fill-opacity="1" /><path clip-path="url(#clip820)" d="M 0 0 M1776.72 342.537 Q1771.56 342.537 1769.57 343.718 Q1767.58 344.898 1767.58 347.746 Q1767.58 350.014 1769.06 351.357 Q1770.56 352.676 1773.13 352.676 Q1776.67 352.676 1778.8 350.176 Q1780.96 347.653 1780.96 343.486 L1780.96 342.537 L1776.72 342.537 M1785.22 340.778 L1785.22 355.57 L1780.96 355.57 L1780.96 351.634 Q1779.5 353.995 1777.32 355.13 Q1775.15 356.241 1772 356.241 Q1768.02 356.241 1765.66 354.019 Q1763.32 351.773 1763.32 348.023 Q1763.32 343.648 1766.23 341.426 Q1769.17 339.204 1774.98 339.204 L1780.96 339.204 L1780.96 338.787 Q1780.96 335.847 1779.01 334.25 Q1777.09 332.63 1773.6 332.63 Q1771.37 332.63 1769.27 333.162 Q1767.16 333.695 1765.22 334.759 L1765.22 330.824 Q1767.55 329.922 1769.75 329.482 Q1771.95 329.019 1774.04 329.019 Q1779.66 329.019 1782.44 331.935 Q1785.22 334.852 1785.22 340.778 Z" fill="#000000" fill-rule="evenodd" fill-opacity="1" /><path clip-path="url(#clip820)" d="M 0 0 M1811.23 339.921 L1811.23 355.57 L1806.97 355.57 L1806.97 340.06 Q1806.97 336.38 1805.54 334.551 Q1804.1 332.722 1801.23 332.722 Q1797.79 332.722 1795.79 334.922 Q1793.8 337.121 1793.8 340.917 L1793.8 355.57 L1789.52 355.57 L1789.52 329.644 L1793.8 329.644 L1793.8 333.672 Q1795.33 331.334 1797.39 330.176 Q1799.48 329.019 1802.18 329.019 Q1806.65 329.019 1808.94 331.797 Q1811.23 334.551 1811.23 339.921 Z" fill="#000000" fill-rule="evenodd" fill-opacity="1" /><polyline clip-path="url(#clip820)" style="stroke:#000000; stroke-width:4; stroke-opacity:1; fill:none" points="
  1519.75,398.77 1670.81,398.77 
  "/>
<path clip-path="url(#clip820)" d="M 0 0 M1716.33 395.101 Q1717.92 392.23 1720.15 390.865 Q1722.37 389.499 1725.38 389.499 Q1729.43 389.499 1731.63 392.346 Q1733.83 395.17 1733.83 400.401 L1733.83 416.05 L1729.54 416.05 L1729.54 400.54 Q1729.54 396.814 1728.23 395.008 Q1726.91 393.202 1724.2 393.202 Q1720.89 393.202 1718.97 395.402 Q1717.04 397.601 1717.04 401.397 L1717.04 416.05 L1712.76 416.05 L1712.76 400.54 Q1712.76 396.79 1711.44 395.008 Q1710.12 393.202 1707.37 393.202 Q1704.11 393.202 1702.18 395.425 Q1700.26 397.624 1700.26 401.397 L1700.26 416.05 L1695.98 416.05 L1695.98 390.124 L1700.26 390.124 L1700.26 394.152 Q1701.72 391.767 1703.76 390.633 Q1705.79 389.499 1708.6 389.499 Q1711.42 389.499 1713.39 390.934 Q1715.38 392.369 1716.33 395.101 Z" fill="#000000" fill-rule="evenodd" fill-opacity="1" /><path clip-path="url(#clip820)" d="M 0 0 M1760.47 402.022 L1760.47 404.105 L1740.89 404.105 Q1741.17 408.503 1743.53 410.818 Q1745.91 413.11 1750.15 413.11 Q1752.6 413.11 1754.89 412.508 Q1757.21 411.906 1759.48 410.702 L1759.48 414.73 Q1757.18 415.702 1754.78 416.212 Q1752.37 416.721 1749.89 416.721 Q1743.69 416.721 1740.05 413.11 Q1736.44 409.499 1736.44 403.341 Q1736.44 396.976 1739.87 393.249 Q1743.32 389.499 1749.15 389.499 Q1754.38 389.499 1757.42 392.878 Q1760.47 396.235 1760.47 402.022 M1756.21 400.772 Q1756.17 397.277 1754.24 395.193 Q1752.35 393.11 1749.2 393.11 Q1745.63 393.11 1743.48 395.124 Q1741.35 397.138 1741.03 400.795 L1756.21 400.772 Z" fill="#000000" fill-rule="evenodd" fill-opacity="1" /><path clip-path="url(#clip820)" d="M 0 0 M1782 394.059 L1782 380.031 L1786.26 380.031 L1786.26 416.05 L1782 416.05 L1782 412.161 Q1780.66 414.475 1778.6 415.61 Q1776.56 416.721 1773.69 416.721 Q1768.99 416.721 1766.03 412.971 Q1763.09 409.221 1763.09 403.11 Q1763.09 396.999 1766.03 393.249 Q1768.99 389.499 1773.69 389.499 Q1776.56 389.499 1778.6 390.633 Q1780.66 391.744 1782 394.059 M1767.48 403.11 Q1767.48 407.809 1769.41 410.494 Q1771.35 413.156 1774.73 413.156 Q1778.11 413.156 1780.05 410.494 Q1782 407.809 1782 403.11 Q1782 398.411 1780.05 395.749 Q1778.11 393.064 1774.73 393.064 Q1771.35 393.064 1769.41 395.749 Q1767.48 398.411 1767.48 403.11 Z" fill="#000000" fill-rule="evenodd" fill-opacity="1" /><path clip-path="url(#clip820)" d="M 0 0 M1790.73 390.124 L1794.98 390.124 L1794.98 416.05 L1790.73 416.05 L1790.73 390.124 M1790.73 380.031 L1794.98 380.031 L1794.98 385.425 L1790.73 385.425 L1790.73 380.031 Z" fill="#000000" fill-rule="evenodd" fill-opacity="1" /><path clip-path="url(#clip820)" d="M 0 0 M1811.23 403.017 Q1806.07 403.017 1804.08 404.198 Q1802.09 405.378 1802.09 408.226 Q1802.09 410.494 1803.57 411.837 Q1805.08 413.156 1807.65 413.156 Q1811.19 413.156 1813.32 410.656 Q1815.47 408.133 1815.47 403.966 L1815.47 403.017 L1811.23 403.017 M1819.73 401.258 L1819.73 416.05 L1815.47 416.05 L1815.47 412.114 Q1814.01 414.475 1811.84 415.61 Q1809.66 416.721 1806.51 416.721 Q1802.53 416.721 1800.17 414.499 Q1797.83 412.253 1797.83 408.503 Q1797.83 404.128 1800.75 401.906 Q1803.69 399.684 1809.5 399.684 L1815.47 399.684 L1815.47 399.267 Q1815.47 396.327 1813.53 394.73 Q1811.6 393.11 1808.11 393.11 Q1805.89 393.11 1803.78 393.642 Q1801.67 394.175 1799.73 395.239 L1799.73 391.304 Q1802.07 390.402 1804.27 389.962 Q1806.47 389.499 1808.55 389.499 Q1814.17 389.499 1816.95 392.415 Q1819.73 395.332 1819.73 401.258 Z" fill="#000000" fill-rule="evenodd" fill-opacity="1" /><path clip-path="url(#clip820)" d="M 0 0 M1845.75 400.401 L1845.75 416.05 L1841.49 416.05 L1841.49 400.54 Q1841.49 396.86 1840.05 395.031 Q1838.62 393.202 1835.75 393.202 Q1832.3 393.202 1830.31 395.402 Q1828.32 397.601 1828.32 401.397 L1828.32 416.05 L1824.04 416.05 L1824.04 390.124 L1828.32 390.124 L1828.32 394.152 Q1829.85 391.814 1831.91 390.656 Q1833.99 389.499 1836.7 389.499 Q1841.16 389.499 1843.46 392.277 Q1845.75 395.031 1845.75 400.401 Z" fill="#000000" fill-rule="evenodd" fill-opacity="1" /></svg>
