<?xml version="1.0" encoding="utf-8"?>
<svg xmlns="http://www.w3.org/2000/svg" xmlns:xlink="http://www.w3.org/1999/xlink" width="600" height="400" viewBox="0 0 2400 1600">
<defs>
  <clipPath id="clip460">
    <rect x="0" y="0" width="2400" height="1600"/>
  </clipPath>
</defs>
<path clip-path="url(#clip460)" d="
M0 1600 L2400 1600 L2400 0 L0 0  Z
  " fill="#ffffff" fill-rule="evenodd" fill-opacity="1"/>
<defs>
  <clipPath id="clip461">
    <rect x="480" y="0" width="1681" height="1600"/>
  </clipPath>
</defs>
<path clip-path="url(#clip460)" d="
M86.9921 1521.01 L2352.76 1521.01 L2352.76 47.2441 L86.9921 47.2441  Z
  " fill="#ffffff" fill-rule="evenodd" fill-opacity="1"/>
<defs>
  <clipPath id="clip462">
    <rect x="86" y="47" width="2267" height="1475"/>
  </clipPath>
</defs>
<polyline clip-path="url(#clip462)" style="stroke:#000000; stroke-width:2; stroke-opacity:0.1; fill:none" points="
  180.13,1521.01 180.13,47.2441 
  "/>
<polyline clip-path="url(#clip462)" style="stroke:#000000; stroke-width:2; stroke-opacity:0.1; fill:none" points="
  565.241,1521.01 565.241,47.2441 
  "/>
<polyline clip-path="url(#clip462)" style="stroke:#000000; stroke-width:2; stroke-opacity:0.1; fill:none" points="
  950.351,1521.01 950.351,47.2441 
  "/>
<polyline clip-path="url(#clip462)" style="stroke:#000000; stroke-width:2; stroke-opacity:0.1; fill:none" points="
  1335.46,1521.01 1335.46,47.2441 
  "/>
<polyline clip-path="url(#clip462)" style="stroke:#000000; stroke-width:2; stroke-opacity:0.1; fill:none" points="
  1720.57,1521.01 1720.57,47.2441 
  "/>
<polyline clip-path="url(#clip462)" style="stroke:#000000; stroke-width:2; stroke-opacity:0.1; fill:none" points="
  2105.68,1521.01 2105.68,47.2441 
  "/>
<polyline clip-path="url(#clip462)" style="stroke:#000000; stroke-width:2; stroke-opacity:0.1; fill:none" points="
  86.9921,1479.3 2352.76,1479.3 
  "/>
<polyline clip-path="url(#clip462)" style="stroke:#000000; stroke-width:2; stroke-opacity:0.1; fill:none" points="
  86.9921,1148.69 2352.76,1148.69 
  "/>
<polyline clip-path="url(#clip462)" style="stroke:#000000; stroke-width:2; stroke-opacity:0.1; fill:none" points="
  86.9921,818.09 2352.76,818.09 
  "/>
<polyline clip-path="url(#clip462)" style="stroke:#000000; stroke-width:2; stroke-opacity:0.1; fill:none" points="
  86.9921,487.486 2352.76,487.486 
  "/>
<polyline clip-path="url(#clip462)" style="stroke:#000000; stroke-width:2; stroke-opacity:0.1; fill:none" points="
  86.9921,156.883 2352.76,156.883 
  "/>
<polyline clip-path="url(#clip460)" style="stroke:#000000; stroke-width:4; stroke-opacity:1; fill:none" points="
  86.9921,1521.01 2352.76,1521.01 
  "/>
<polyline clip-path="url(#clip460)" style="stroke:#000000; stroke-width:4; stroke-opacity:1; fill:none" points="
  86.9921,1521.01 86.9921,47.2441 
  "/>
<polyline clip-path="url(#clip460)" style="stroke:#000000; stroke-width:4; stroke-opacity:1; fill:none" points="
  180.13,1521.01 180.13,1503.32 
  "/>
<polyline clip-path="url(#clip460)" style="stroke:#000000; stroke-width:4; stroke-opacity:1; fill:none" points="
  565.241,1521.01 565.241,1503.32 
  "/>
<polyline clip-path="url(#clip460)" style="stroke:#000000; stroke-width:4; stroke-opacity:1; fill:none" points="
  950.351,1521.01 950.351,1503.32 
  "/>
<polyline clip-path="url(#clip460)" style="stroke:#000000; stroke-width:4; stroke-opacity:1; fill:none" points="
  1335.46,1521.01 1335.46,1503.32 
  "/>
<polyline clip-path="url(#clip460)" style="stroke:#000000; stroke-width:4; stroke-opacity:1; fill:none" points="
  1720.57,1521.01 1720.57,1503.32 
  "/>
<polyline clip-path="url(#clip460)" style="stroke:#000000; stroke-width:4; stroke-opacity:1; fill:none" points="
  2105.68,1521.01 2105.68,1503.32 
  "/>
<polyline clip-path="url(#clip460)" style="stroke:#000000; stroke-width:4; stroke-opacity:1; fill:none" points="
  86.9921,1479.3 114.181,1479.3 
  "/>
<polyline clip-path="url(#clip460)" style="stroke:#000000; stroke-width:4; stroke-opacity:1; fill:none" points="
  86.9921,1148.69 114.181,1148.69 
  "/>
<polyline clip-path="url(#clip460)" style="stroke:#000000; stroke-width:4; stroke-opacity:1; fill:none" points="
  86.9921,818.09 114.181,818.09 
  "/>
<polyline clip-path="url(#clip460)" style="stroke:#000000; stroke-width:4; stroke-opacity:1; fill:none" points="
  86.9921,487.486 114.181,487.486 
  "/>
<polyline clip-path="url(#clip460)" style="stroke:#000000; stroke-width:4; stroke-opacity:1; fill:none" points="
  86.9921,156.883 114.181,156.883 
  "/>
<path clip-path="url(#clip460)" d="M 0 0 M148.185 1543 Q144.574 1543 142.746 1546.56 Q140.94 1550.11 140.94 1557.23 Q140.94 1564.34 142.746 1567.91 Q144.574 1571.45 148.185 1571.45 Q151.82 1571.45 153.625 1567.91 Q155.454 1564.34 155.454 1557.23 Q155.454 1550.11 153.625 1546.56 Q151.82 1543 148.185 1543 M148.185 1539.29 Q153.996 1539.29 157.051 1543.9 Q160.13 1548.48 160.13 1557.23 Q160.13 1565.96 157.051 1570.57 Q153.996 1575.15 148.185 1575.15 Q142.375 1575.15 139.297 1570.57 Q136.241 1565.96 136.241 1557.23 Q136.241 1548.48 139.297 1543.9 Q142.375 1539.29 148.185 1539.29 Z" fill="#000000" fill-rule="evenodd" fill-opacity="1" /><path clip-path="url(#clip460)" d="M 0 0 M165.199 1568.6 L170.083 1568.6 L170.083 1574.48 L165.199 1574.48 L165.199 1568.6 Z" fill="#000000" fill-rule="evenodd" fill-opacity="1" /><path clip-path="url(#clip460)" d="M 0 0 M185.153 1558.07 Q181.82 1558.07 179.898 1559.85 Q178 1561.63 178 1564.76 Q178 1567.88 179.898 1569.67 Q181.82 1571.45 185.153 1571.45 Q188.486 1571.45 190.407 1569.67 Q192.329 1567.86 192.329 1564.76 Q192.329 1561.63 190.407 1559.85 Q188.509 1558.07 185.153 1558.07 M180.477 1556.08 Q177.468 1555.34 175.778 1553.28 Q174.111 1551.22 174.111 1548.25 Q174.111 1544.11 177.051 1541.7 Q180.014 1539.29 185.153 1539.29 Q190.315 1539.29 193.255 1541.7 Q196.194 1544.11 196.194 1548.25 Q196.194 1551.22 194.505 1553.28 Q192.838 1555.34 189.852 1556.08 Q193.231 1556.86 195.106 1559.16 Q197.005 1561.45 197.005 1564.76 Q197.005 1569.78 193.926 1572.47 Q190.87 1575.15 185.153 1575.15 Q179.435 1575.15 176.357 1572.47 Q173.301 1569.78 173.301 1564.76 Q173.301 1561.45 175.199 1559.16 Q177.097 1556.86 180.477 1556.08 M178.764 1548.69 Q178.764 1551.38 180.431 1552.88 Q182.12 1554.39 185.153 1554.39 Q188.162 1554.39 189.852 1552.88 Q191.565 1551.38 191.565 1548.69 Q191.565 1546.01 189.852 1544.5 Q188.162 1543 185.153 1543 Q182.12 1543 180.431 1544.5 Q178.764 1546.01 178.764 1548.69 Z" fill="#000000" fill-rule="evenodd" fill-opacity="1" /><path clip-path="url(#clip460)" d="M 0 0 M212.074 1543 Q208.463 1543 206.634 1546.56 Q204.829 1550.11 204.829 1557.23 Q204.829 1564.34 206.634 1567.91 Q208.463 1571.45 212.074 1571.45 Q215.708 1571.45 217.514 1567.91 Q219.342 1564.34 219.342 1557.23 Q219.342 1550.11 217.514 1546.56 Q215.708 1543 212.074 1543 M212.074 1539.29 Q217.884 1539.29 220.94 1543.9 Q224.018 1548.48 224.018 1557.23 Q224.018 1565.96 220.94 1570.57 Q217.884 1575.15 212.074 1575.15 Q206.264 1575.15 203.185 1570.57 Q200.13 1565.96 200.13 1557.23 Q200.13 1548.48 203.185 1543.9 Q206.264 1539.29 212.074 1539.29 Z" fill="#000000" fill-rule="evenodd" fill-opacity="1" /><path clip-path="url(#clip460)" d="M 0 0 M533.794 1543 Q530.183 1543 528.354 1546.56 Q526.549 1550.11 526.549 1557.23 Q526.549 1564.34 528.354 1567.91 Q530.183 1571.45 533.794 1571.45 Q537.428 1571.45 539.234 1567.91 Q541.062 1564.34 541.062 1557.23 Q541.062 1550.11 539.234 1546.56 Q537.428 1543 533.794 1543 M533.794 1539.29 Q539.604 1539.29 542.66 1543.9 Q545.738 1548.48 545.738 1557.23 Q545.738 1565.96 542.66 1570.57 Q539.604 1575.15 533.794 1575.15 Q527.984 1575.15 524.905 1570.57 Q521.85 1565.96 521.85 1557.23 Q521.85 1548.48 524.905 1543.9 Q527.984 1539.29 533.794 1539.29 Z" fill="#000000" fill-rule="evenodd" fill-opacity="1" /><path clip-path="url(#clip460)" d="M 0 0 M550.808 1568.6 L555.692 1568.6 L555.692 1574.48 L550.808 1574.48 L550.808 1568.6 Z" fill="#000000" fill-rule="evenodd" fill-opacity="1" /><path clip-path="url(#clip460)" d="M 0 0 M570.761 1558.07 Q567.428 1558.07 565.507 1559.85 Q563.609 1561.63 563.609 1564.76 Q563.609 1567.88 565.507 1569.67 Q567.428 1571.45 570.761 1571.45 Q574.095 1571.45 576.016 1569.67 Q577.937 1567.86 577.937 1564.76 Q577.937 1561.63 576.016 1559.85 Q574.118 1558.07 570.761 1558.07 M566.085 1556.08 Q563.076 1555.34 561.386 1553.28 Q559.72 1551.22 559.72 1548.25 Q559.72 1544.11 562.66 1541.7 Q565.623 1539.29 570.761 1539.29 Q575.923 1539.29 578.863 1541.7 Q581.803 1544.11 581.803 1548.25 Q581.803 1551.22 580.113 1553.28 Q578.447 1555.34 575.46 1556.08 Q578.84 1556.86 580.715 1559.16 Q582.613 1561.45 582.613 1564.76 Q582.613 1569.78 579.534 1572.47 Q576.479 1575.15 570.761 1575.15 Q565.044 1575.15 561.965 1572.47 Q558.91 1569.78 558.91 1564.76 Q558.91 1561.45 560.808 1559.16 Q562.706 1556.86 566.085 1556.08 M564.373 1548.69 Q564.373 1551.38 566.039 1552.88 Q567.729 1554.39 570.761 1554.39 Q573.771 1554.39 575.46 1552.88 Q577.173 1551.38 577.173 1548.69 Q577.173 1546.01 575.46 1544.5 Q573.771 1543 570.761 1543 Q567.729 1543 566.039 1544.5 Q564.373 1546.01 564.373 1548.69 Z" fill="#000000" fill-rule="evenodd" fill-opacity="1" /><path clip-path="url(#clip460)" d="M 0 0 M587.729 1539.92 L606.085 1539.92 L606.085 1543.86 L592.011 1543.86 L592.011 1552.33 Q593.03 1551.98 594.048 1551.82 Q595.067 1551.63 596.085 1551.63 Q601.872 1551.63 605.252 1554.8 Q608.632 1557.98 608.632 1563.39 Q608.632 1568.97 605.159 1572.07 Q601.687 1575.15 595.368 1575.15 Q593.192 1575.15 590.923 1574.78 Q588.678 1574.41 586.271 1573.67 L586.271 1568.97 Q588.354 1570.1 590.576 1570.66 Q592.798 1571.22 595.275 1571.22 Q599.28 1571.22 601.618 1569.11 Q603.956 1567 603.956 1563.39 Q603.956 1559.78 601.618 1557.67 Q599.28 1555.57 595.275 1555.57 Q593.4 1555.57 591.525 1555.98 Q589.673 1556.4 587.729 1557.28 L587.729 1539.92 Z" fill="#000000" fill-rule="evenodd" fill-opacity="1" /><path clip-path="url(#clip460)" d="M 0 0 M918.453 1543 Q914.842 1543 913.014 1546.56 Q911.208 1550.11 911.208 1557.23 Q911.208 1564.34 913.014 1567.91 Q914.842 1571.45 918.453 1571.45 Q922.088 1571.45 923.893 1567.91 Q925.722 1564.34 925.722 1557.23 Q925.722 1550.11 923.893 1546.56 Q922.088 1543 918.453 1543 M918.453 1539.29 Q924.264 1539.29 927.319 1543.9 Q930.398 1548.48 930.398 1557.23 Q930.398 1565.96 927.319 1570.57 Q924.264 1575.15 918.453 1575.15 Q912.643 1575.15 909.565 1570.57 Q906.509 1565.96 906.509 1557.23 Q906.509 1548.48 909.565 1543.9 Q912.643 1539.29 918.453 1539.29 Z" fill="#000000" fill-rule="evenodd" fill-opacity="1" /><path clip-path="url(#clip460)" d="M 0 0 M935.467 1568.6 L940.352 1568.6 L940.352 1574.48 L935.467 1574.48 L935.467 1568.6 Z" fill="#000000" fill-rule="evenodd" fill-opacity="1" /><path clip-path="url(#clip460)" d="M 0 0 M945.56 1573.76 L945.56 1569.5 Q947.319 1570.34 949.125 1570.78 Q950.93 1571.22 952.666 1571.22 Q957.296 1571.22 959.726 1568.11 Q962.18 1564.99 962.527 1558.65 Q961.185 1560.64 959.125 1561.7 Q957.064 1562.77 954.564 1562.77 Q949.379 1562.77 946.347 1559.64 Q943.338 1556.49 943.338 1551.05 Q943.338 1545.73 946.486 1542.51 Q949.634 1539.29 954.865 1539.29 Q960.861 1539.29 964.009 1543.9 Q967.18 1548.48 967.18 1557.23 Q967.18 1565.41 963.291 1570.29 Q959.425 1575.15 952.875 1575.15 Q951.115 1575.15 949.31 1574.8 Q947.504 1574.46 945.56 1573.76 M954.865 1559.11 Q958.013 1559.11 959.842 1556.96 Q961.694 1554.8 961.694 1551.05 Q961.694 1547.33 959.842 1545.17 Q958.013 1543 954.865 1543 Q951.717 1543 949.865 1545.17 Q948.037 1547.33 948.037 1551.05 Q948.037 1554.8 949.865 1556.96 Q951.717 1559.11 954.865 1559.11 Z" fill="#000000" fill-rule="evenodd" fill-opacity="1" /><path clip-path="url(#clip460)" d="M 0 0 M982.249 1543 Q978.638 1543 976.81 1546.56 Q975.004 1550.11 975.004 1557.23 Q975.004 1564.34 976.81 1567.91 Q978.638 1571.45 982.249 1571.45 Q985.884 1571.45 987.689 1567.91 Q989.518 1564.34 989.518 1557.23 Q989.518 1550.11 987.689 1546.56 Q985.884 1543 982.249 1543 M982.249 1539.29 Q988.06 1539.29 991.115 1543.9 Q994.194 1548.48 994.194 1557.23 Q994.194 1565.96 991.115 1570.57 Q988.06 1575.15 982.249 1575.15 Q976.439 1575.15 973.361 1570.57 Q970.305 1565.96 970.305 1557.23 Q970.305 1548.48 973.361 1543.9 Q976.439 1539.29 982.249 1539.29 Z" fill="#000000" fill-rule="evenodd" fill-opacity="1" /><path clip-path="url(#clip460)" d="M 0 0 M1304.06 1543 Q1300.45 1543 1298.62 1546.56 Q1296.82 1550.11 1296.82 1557.23 Q1296.82 1564.34 1298.62 1567.91 Q1300.45 1571.45 1304.06 1571.45 Q1307.7 1571.45 1309.5 1567.91 Q1311.33 1564.34 1311.33 1557.23 Q1311.33 1550.11 1309.5 1546.56 Q1307.7 1543 1304.06 1543 M1304.06 1539.29 Q1309.87 1539.29 1312.93 1543.9 Q1316.01 1548.48 1316.01 1557.23 Q1316.01 1565.96 1312.93 1570.57 Q1309.87 1575.15 1304.06 1575.15 Q1298.25 1575.15 1295.17 1570.57 Q1292.12 1565.96 1292.12 1557.23 Q1292.12 1548.48 1295.17 1543.9 Q1298.25 1539.29 1304.06 1539.29 Z" fill="#000000" fill-rule="evenodd" fill-opacity="1" /><path clip-path="url(#clip460)" d="M 0 0 M1321.08 1568.6 L1325.96 1568.6 L1325.96 1574.48 L1321.08 1574.48 L1321.08 1568.6 Z" fill="#000000" fill-rule="evenodd" fill-opacity="1" /><path clip-path="url(#clip460)" d="M 0 0 M1331.17 1573.76 L1331.17 1569.5 Q1332.93 1570.34 1334.73 1570.78 Q1336.54 1571.22 1338.27 1571.22 Q1342.9 1571.22 1345.33 1568.11 Q1347.79 1564.99 1348.14 1558.65 Q1346.79 1560.64 1344.73 1561.7 Q1342.67 1562.77 1340.17 1562.77 Q1334.99 1562.77 1331.96 1559.64 Q1328.95 1556.49 1328.95 1551.05 Q1328.95 1545.73 1332.09 1542.51 Q1335.24 1539.29 1340.47 1539.29 Q1346.47 1539.29 1349.62 1543.9 Q1352.79 1548.48 1352.79 1557.23 Q1352.79 1565.41 1348.9 1570.29 Q1345.03 1575.15 1338.48 1575.15 Q1336.72 1575.15 1334.92 1574.8 Q1333.11 1574.46 1331.17 1573.76 M1340.47 1559.11 Q1343.62 1559.11 1345.45 1556.96 Q1347.3 1554.8 1347.3 1551.05 Q1347.3 1547.33 1345.45 1545.17 Q1343.62 1543 1340.47 1543 Q1337.33 1543 1335.47 1545.17 Q1333.65 1547.33 1333.65 1551.05 Q1333.65 1554.8 1335.47 1556.96 Q1337.33 1559.11 1340.47 1559.11 Z" fill="#000000" fill-rule="evenodd" fill-opacity="1" /><path clip-path="url(#clip460)" d="M 0 0 M1357.9 1539.92 L1376.26 1539.92 L1376.26 1543.86 L1362.19 1543.86 L1362.19 1552.33 Q1363.21 1551.98 1364.22 1551.82 Q1365.24 1551.63 1366.26 1551.63 Q1372.05 1551.63 1375.43 1554.8 Q1378.81 1557.98 1378.81 1563.39 Q1378.81 1568.97 1375.33 1572.07 Q1371.86 1575.15 1365.54 1575.15 Q1363.37 1575.15 1361.1 1574.78 Q1358.85 1574.41 1356.45 1573.67 L1356.45 1568.97 Q1358.53 1570.1 1360.75 1570.66 Q1362.97 1571.22 1365.45 1571.22 Q1369.46 1571.22 1371.79 1569.11 Q1374.13 1567 1374.13 1563.39 Q1374.13 1559.78 1371.79 1557.67 Q1369.46 1555.57 1365.45 1555.57 Q1363.58 1555.57 1361.7 1555.98 Q1359.85 1556.4 1357.9 1557.28 L1357.9 1539.92 Z" fill="#000000" fill-rule="evenodd" fill-opacity="1" /><path clip-path="url(#clip460)" d="M 0 0 M1678.96 1570.54 L1686.6 1570.54 L1686.6 1544.18 L1678.29 1545.85 L1678.29 1541.59 L1686.56 1539.92 L1691.23 1539.92 L1691.23 1570.54 L1698.87 1570.54 L1698.87 1574.48 L1678.96 1574.48 L1678.96 1570.54 Z" fill="#000000" fill-rule="evenodd" fill-opacity="1" /><path clip-path="url(#clip460)" d="M 0 0 M1703.94 1568.6 L1708.83 1568.6 L1708.83 1574.48 L1703.94 1574.48 L1703.94 1568.6 Z" fill="#000000" fill-rule="evenodd" fill-opacity="1" /><path clip-path="url(#clip460)" d="M 0 0 M1723.89 1543 Q1720.28 1543 1718.46 1546.56 Q1716.65 1550.11 1716.65 1557.23 Q1716.65 1564.34 1718.46 1567.91 Q1720.28 1571.45 1723.89 1571.45 Q1727.53 1571.45 1729.33 1567.91 Q1731.16 1564.34 1731.16 1557.23 Q1731.16 1550.11 1729.33 1546.56 Q1727.53 1543 1723.89 1543 M1723.89 1539.29 Q1729.71 1539.29 1732.76 1543.9 Q1735.84 1548.48 1735.84 1557.23 Q1735.84 1565.96 1732.76 1570.57 Q1729.71 1575.15 1723.89 1575.15 Q1718.08 1575.15 1715.01 1570.57 Q1711.95 1565.96 1711.95 1557.23 Q1711.95 1548.48 1715.01 1543.9 Q1718.08 1539.29 1723.89 1539.29 Z" fill="#000000" fill-rule="evenodd" fill-opacity="1" /><path clip-path="url(#clip460)" d="M 0 0 M1750.91 1543 Q1747.3 1543 1745.47 1546.56 Q1743.66 1550.11 1743.66 1557.23 Q1743.66 1564.34 1745.47 1567.91 Q1747.3 1571.45 1750.91 1571.45 Q1754.54 1571.45 1756.35 1567.91 Q1758.18 1564.34 1758.18 1557.23 Q1758.18 1550.11 1756.35 1546.56 Q1754.54 1543 1750.91 1543 M1750.91 1539.29 Q1756.72 1539.29 1759.77 1543.9 Q1762.85 1548.48 1762.85 1557.23 Q1762.85 1565.96 1759.77 1570.57 Q1756.72 1575.15 1750.91 1575.15 Q1745.1 1575.15 1742.02 1570.57 Q1738.96 1565.96 1738.96 1557.23 Q1738.96 1548.48 1742.02 1543.9 Q1745.1 1539.29 1750.91 1539.29 Z" fill="#000000" fill-rule="evenodd" fill-opacity="1" /><path clip-path="url(#clip460)" d="M 0 0 M2064.57 1570.54 L2072.21 1570.54 L2072.21 1544.18 L2063.9 1545.85 L2063.9 1541.59 L2072.17 1539.92 L2076.84 1539.92 L2076.84 1570.54 L2084.48 1570.54 L2084.48 1574.48 L2064.57 1574.48 L2064.57 1570.54 Z" fill="#000000" fill-rule="evenodd" fill-opacity="1" /><path clip-path="url(#clip460)" d="M 0 0 M2089.55 1568.6 L2094.43 1568.6 L2094.43 1574.48 L2089.55 1574.48 L2089.55 1568.6 Z" fill="#000000" fill-rule="evenodd" fill-opacity="1" /><path clip-path="url(#clip460)" d="M 0 0 M2109.5 1543 Q2105.89 1543 2104.06 1546.56 Q2102.26 1550.11 2102.26 1557.23 Q2102.26 1564.34 2104.06 1567.91 Q2105.89 1571.45 2109.5 1571.45 Q2113.14 1571.45 2114.94 1567.91 Q2116.77 1564.34 2116.77 1557.23 Q2116.77 1550.11 2114.94 1546.56 Q2113.14 1543 2109.5 1543 M2109.5 1539.29 Q2115.31 1539.29 2118.37 1543.9 Q2121.45 1548.48 2121.45 1557.23 Q2121.45 1565.96 2118.37 1570.57 Q2115.31 1575.15 2109.5 1575.15 Q2103.69 1575.15 2100.61 1570.57 Q2097.56 1565.96 2097.56 1557.23 Q2097.56 1548.48 2100.61 1543.9 Q2103.69 1539.29 2109.5 1539.29 Z" fill="#000000" fill-rule="evenodd" fill-opacity="1" /><path clip-path="url(#clip460)" d="M 0 0 M2126.56 1539.92 L2144.92 1539.92 L2144.92 1543.86 L2130.85 1543.86 L2130.85 1552.33 Q2131.86 1551.98 2132.88 1551.82 Q2133.9 1551.63 2134.92 1551.63 Q2140.71 1551.63 2144.09 1554.8 Q2147.47 1557.98 2147.47 1563.39 Q2147.47 1568.97 2143.99 1572.07 Q2140.52 1575.15 2134.2 1575.15 Q2132.03 1575.15 2129.76 1574.78 Q2127.51 1574.41 2125.11 1573.67 L2125.11 1568.97 Q2127.19 1570.1 2129.41 1570.66 Q2131.63 1571.22 2134.11 1571.22 Q2138.11 1571.22 2140.45 1569.11 Q2142.79 1567 2142.79 1563.39 Q2142.79 1559.78 2140.45 1557.67 Q2138.11 1555.57 2134.11 1555.57 Q2132.23 1555.57 2130.36 1555.98 Q2128.51 1556.4 2126.56 1557.28 L2126.56 1539.92 Z" fill="#000000" fill-rule="evenodd" fill-opacity="1" /><path clip-path="url(#clip460)" d="M 0 0 M14.0804 1465.1 Q10.4693 1465.1 8.64057 1468.66 Q6.83502 1472.2 6.83502 1479.33 Q6.83502 1486.44 8.64057 1490 Q10.4693 1493.55 14.0804 1493.55 Q17.7146 1493.55 19.5201 1490 Q21.3488 1486.44 21.3488 1479.33 Q21.3488 1472.2 19.5201 1468.66 Q17.7146 1465.1 14.0804 1465.1 M14.0804 1461.39 Q19.8905 1461.39 22.946 1466 Q26.0247 1470.58 26.0247 1479.33 Q26.0247 1488.06 22.946 1492.67 Q19.8905 1497.25 14.0804 1497.25 Q8.2702 1497.25 5.19151 1492.67 Q2.13597 1488.06 2.13597 1479.33 Q2.13597 1470.58 5.19151 1466 Q8.2702 1461.39 14.0804 1461.39 Z" fill="#000000" fill-rule="evenodd" fill-opacity="1" /><path clip-path="url(#clip460)" d="M 0 0 M31.0941 1490.7 L35.9784 1490.7 L35.9784 1496.58 L31.0941 1496.58 L31.0941 1490.7 Z" fill="#000000" fill-rule="evenodd" fill-opacity="1" /><path clip-path="url(#clip460)" d="M 0 0 M51.0477 1465.1 Q47.4367 1465.1 45.608 1468.66 Q43.8024 1472.2 43.8024 1479.33 Q43.8024 1486.44 45.608 1490 Q47.4367 1493.55 51.0477 1493.55 Q54.682 1493.55 56.4875 1490 Q58.3162 1486.44 58.3162 1479.33 Q58.3162 1472.2 56.4875 1468.66 Q54.682 1465.1 51.0477 1465.1 M51.0477 1461.39 Q56.8579 1461.39 59.9134 1466 Q62.9921 1470.58 62.9921 1479.33 Q62.9921 1488.06 59.9134 1492.67 Q56.8579 1497.25 51.0477 1497.25 Q45.2376 1497.25 42.1589 1492.67 Q39.1034 1488.06 39.1034 1479.33 Q39.1034 1470.58 42.1589 1466 Q45.2376 1461.39 51.0477 1461.39 Z" fill="#000000" fill-rule="evenodd" fill-opacity="1" /><path clip-path="url(#clip460)" d="M 0 0 M10.7007 1162.04 L27.0201 1162.04 L27.0201 1165.97 L5.07577 1165.97 L5.07577 1162.04 Q7.73779 1159.28 12.3211 1154.65 Q16.9276 1150 18.1081 1148.66 Q20.3535 1146.14 21.2331 1144.4 Q22.1359 1142.64 22.1359 1140.95 Q22.1359 1138.2 20.1914 1136.46 Q18.2701 1134.72 15.1683 1134.72 Q12.9692 1134.72 10.5156 1135.49 Q8.08501 1136.25 5.30725 1137.8 L5.30725 1133.08 Q8.13131 1131.95 10.585 1131.37 Q13.0387 1130.79 15.0757 1130.79 Q20.4461 1130.79 23.6405 1133.47 Q26.8349 1136.16 26.8349 1140.65 Q26.8349 1142.78 26.0247 1144.7 Q25.2377 1146.6 23.1312 1149.19 Q22.5525 1149.86 19.4507 1153.08 Q16.3489 1156.27 10.7007 1162.04 Z" fill="#000000" fill-rule="evenodd" fill-opacity="1" /><path clip-path="url(#clip460)" d="M 0 0 M32.0895 1160.09 L36.9737 1160.09 L36.9737 1165.97 L32.0895 1165.97 L32.0895 1160.09 Z" fill="#000000" fill-rule="evenodd" fill-opacity="1" /><path clip-path="url(#clip460)" d="M 0 0 M42.0895 1131.41 L60.4458 1131.41 L60.4458 1135.35 L46.3718 1135.35 L46.3718 1143.82 Q47.3904 1143.47 48.4089 1143.31 Q49.4274 1143.13 50.4459 1143.13 Q56.2329 1143.13 59.6125 1146.3 Q62.9921 1149.47 62.9921 1154.89 Q62.9921 1160.46 59.5199 1163.57 Q56.0477 1166.65 49.7283 1166.65 Q47.5524 1166.65 45.2839 1166.27 Q43.0385 1165.9 40.6311 1165.16 L40.6311 1160.46 Q42.7145 1161.6 44.9367 1162.15 Q47.1589 1162.71 49.6357 1162.71 Q53.6403 1162.71 55.9783 1160.6 Q58.3162 1158.5 58.3162 1154.89 Q58.3162 1151.27 55.9783 1149.17 Q53.6403 1147.06 49.6357 1147.06 Q47.7607 1147.06 45.8857 1147.48 Q44.0339 1147.9 42.0895 1148.77 L42.0895 1131.41 Z" fill="#000000" fill-rule="evenodd" fill-opacity="1" /><path clip-path="url(#clip460)" d="M 0 0 M5.12207 800.81 L23.4784 800.81 L23.4784 804.745 L9.40445 804.745 L9.40445 813.217 Q10.423 812.87 11.4415 812.708 Q12.46 812.523 13.4785 812.523 Q19.2655 812.523 22.6451 815.694 Q26.0247 818.866 26.0247 824.282 Q26.0247 829.861 22.5525 832.963 Q19.0803 836.041 12.7609 836.041 Q10.585 836.041 8.31649 835.671 Q6.07113 835.301 3.66374 834.56 L3.66374 829.861 Q5.74706 830.995 7.96927 831.551 Q10.1915 832.106 12.6683 832.106 Q16.6729 832.106 19.0109 830 Q21.3488 827.893 21.3488 824.282 Q21.3488 820.671 19.0109 818.565 Q16.6729 816.458 12.6683 816.458 Q10.7933 816.458 8.91834 816.875 Q7.0665 817.292 5.12207 818.171 L5.12207 800.81 Z" fill="#000000" fill-rule="evenodd" fill-opacity="1" /><path clip-path="url(#clip460)" d="M 0 0 M31.0941 829.491 L35.9784 829.491 L35.9784 835.37 L31.0941 835.37 L31.0941 829.491 Z" fill="#000000" fill-rule="evenodd" fill-opacity="1" /><path clip-path="url(#clip460)" d="M 0 0 M51.0477 803.889 Q47.4367 803.889 45.608 807.454 Q43.8024 810.995 43.8024 818.125 Q43.8024 825.231 45.608 828.796 Q47.4367 832.338 51.0477 832.338 Q54.682 832.338 56.4875 828.796 Q58.3162 825.231 58.3162 818.125 Q58.3162 810.995 56.4875 807.454 Q54.682 803.889 51.0477 803.889 M51.0477 800.185 Q56.8579 800.185 59.9134 804.792 Q62.9921 809.375 62.9921 818.125 Q62.9921 826.852 59.9134 831.458 Q56.8579 836.041 51.0477 836.041 Q45.2376 836.041 42.1589 831.458 Q39.1034 826.852 39.1034 818.125 Q39.1034 809.375 42.1589 804.792 Q45.2376 800.185 51.0477 800.185 Z" fill="#000000" fill-rule="evenodd" fill-opacity="1" /><path clip-path="url(#clip460)" d="M 0 0 M4.79799 470.206 L27.0201 470.206 L27.0201 472.197 L14.4739 504.766 L9.58963 504.766 L21.3951 474.142 L4.79799 474.142 L4.79799 470.206 Z" fill="#000000" fill-rule="evenodd" fill-opacity="1" /><path clip-path="url(#clip460)" d="M 0 0 M32.0895 498.887 L36.9737 498.887 L36.9737 504.766 L32.0895 504.766 L32.0895 498.887 Z" fill="#000000" fill-rule="evenodd" fill-opacity="1" /><path clip-path="url(#clip460)" d="M 0 0 M42.0895 470.206 L60.4458 470.206 L60.4458 474.142 L46.3718 474.142 L46.3718 482.614 Q47.3904 482.267 48.4089 482.104 Q49.4274 481.919 50.4459 481.919 Q56.2329 481.919 59.6125 485.091 Q62.9921 488.262 62.9921 493.679 Q62.9921 499.257 59.5199 502.359 Q56.0477 505.438 49.7283 505.438 Q47.5524 505.438 45.2839 505.067 Q43.0385 504.697 40.6311 503.956 L40.6311 499.257 Q42.7145 500.391 44.9367 500.947 Q47.1589 501.503 49.6357 501.503 Q53.6403 501.503 55.9783 499.396 Q58.3162 497.29 58.3162 493.679 Q58.3162 490.067 55.9783 487.961 Q53.6403 485.854 49.6357 485.854 Q47.7607 485.854 45.8857 486.271 Q44.0339 486.688 42.0895 487.567 L42.0895 470.206 Z" fill="#000000" fill-rule="evenodd" fill-opacity="1" /><path clip-path="url(#clip460)" d="M 0 0 M-20.8963 170.228 L-13.2575 170.228 L-13.2575 143.862 L-21.5676 145.529 L-21.5676 141.269 L-13.3038 139.603 L-8.62786 139.603 L-8.62786 170.228 L-0.989013 170.228 L-0.989013 174.163 L-20.8963 174.163 L-20.8963 170.228 Z" fill="#000000" fill-rule="evenodd" fill-opacity="1" /><path clip-path="url(#clip460)" d="M 0 0 M14.0804 142.681 Q10.4693 142.681 8.64057 146.246 Q6.83502 149.788 6.83502 156.917 Q6.83502 164.024 8.64057 167.589 Q10.4693 171.13 14.0804 171.13 Q17.7146 171.13 19.5201 167.589 Q21.3488 164.024 21.3488 156.917 Q21.3488 149.788 19.5201 146.246 Q17.7146 142.681 14.0804 142.681 M14.0804 138.978 Q19.8905 138.978 22.946 143.584 Q26.0247 148.167 26.0247 156.917 Q26.0247 165.644 22.946 170.251 Q19.8905 174.834 14.0804 174.834 Q8.2702 174.834 5.19151 170.251 Q2.13597 165.644 2.13597 156.917 Q2.13597 148.167 5.19151 143.584 Q8.2702 138.978 14.0804 138.978 Z" fill="#000000" fill-rule="evenodd" fill-opacity="1" /><path clip-path="url(#clip460)" d="M 0 0 M31.0941 168.283 L35.9784 168.283 L35.9784 174.163 L31.0941 174.163 L31.0941 168.283 Z" fill="#000000" fill-rule="evenodd" fill-opacity="1" /><path clip-path="url(#clip460)" d="M 0 0 M51.0477 142.681 Q47.4367 142.681 45.608 146.246 Q43.8024 149.788 43.8024 156.917 Q43.8024 164.024 45.608 167.589 Q47.4367 171.13 51.0477 171.13 Q54.682 171.13 56.4875 167.589 Q58.3162 164.024 58.3162 156.917 Q58.3162 149.788 56.4875 146.246 Q54.682 142.681 51.0477 142.681 M51.0477 138.978 Q56.8579 138.978 59.9134 143.584 Q62.9921 148.167 62.9921 156.917 Q62.9921 165.644 59.9134 170.251 Q56.8579 174.834 51.0477 174.834 Q45.2376 174.834 42.1589 170.251 Q39.1034 165.644 39.1034 156.917 Q39.1034 148.167 42.1589 143.584 Q45.2376 138.978 51.0477 138.978 Z" fill="#000000" fill-rule="evenodd" fill-opacity="1" /><path clip-path="url(#clip462)" d="
M151.118 1476.56 L158.818 1476.6 L166.518 1476.72 L174.218 1476.9 L181.918 1477.14 L189.618 1477.41 L197.318 1477.7 L205.018 1477.98 L212.718 1478.25 L220.418 1478.48 
  L228.118 1478.68 L235.818 1478.83 L243.518 1478.95 L251.218 1479.02 L258.918 1479.05 L266.618 1479.02 L274.318 1478.94 L282.018 1478.79 L289.718 1478.54 L297.418 1478.18 
  L305.118 1477.67 L312.818 1476.98 L320.518 1476.08 L328.218 1474.95 L335.918 1473.59 L343.619 1471.99 L351.319 1470.19 L359.019 1468.23 L366.719 1466.18 L374.419 1464.13 
  L382.119 1462.16 L389.819 1460.37 L397.519 1458.84 L405.219 1457.6 L412.919 1456.69 L420.619 1456.08 L428.319 1455.71 L436.019 1455.49 L443.719 1455.31 L451.419 1455.03 
  L459.119 1454.53 L466.819 1453.7 L474.519 1452.46 L482.219 1450.8 L489.919 1448.73 L497.619 1446.34 L505.319 1443.75 L513.019 1441.12 L520.719 1438.63 L528.42 1436.44 
  L536.12 1434.68 L543.82 1433.45 L551.52 1432.8 L559.22 1432.69 L566.92 1433.07 L574.62 1433.78 L582.32 1434.68 L590.02 1435.58 L597.72 1436.3 L605.42 1436.65 
  L613.12 1436.47 L620.82 1435.66 L628.52 1434.1 L636.22 1431.76 L643.92 1428.59 L651.62 1424.61 L659.32 1419.85 L667.02 1414.34 L674.72 1408.16 L682.42 1401.39 
  L690.12 1394.1 L697.82 1386.4 L705.52 1378.38 L713.221 1370.13 L720.921 1361.75 L728.621 1353.31 L736.321 1344.92 L744.021 1336.64 L751.721 1328.59 L759.421 1320.85 
  L767.121 1313.54 L774.821 1306.77 L782.521 1300.64 L790.221 1295.26 L797.921 1290.67 L805.621 1286.89 L813.321 1283.89 L821.021 1281.57 L828.721 1279.82 L836.421 1278.47 
  L844.121 1277.36 L851.821 1276.32 L859.521 1275.24 L867.221 1274.04 L874.921 1272.72 L882.621 1271.35 L890.321 1270.04 L898.021 1268.93 L905.722 1268.15 L913.422 1267.79 
  L913.422 1479.3 L905.722 1479.3 L898.021 1479.3 L890.321 1479.3 L882.621 1479.3 L874.921 1479.3 L867.221 1479.3 L859.521 1479.3 L851.821 1479.3 L844.121 1479.3 
  L836.421 1479.3 L828.721 1479.3 L821.021 1479.3 L813.321 1479.3 L805.621 1479.3 L797.921 1479.3 L790.221 1479.3 L782.521 1479.3 L774.821 1479.3 L767.121 1479.3 
  L759.421 1479.3 L751.721 1479.3 L744.021 1479.3 L736.321 1479.3 L728.621 1479.3 L720.921 1479.3 L713.221 1479.3 L705.52 1479.3 L697.82 1479.3 L690.12 1479.3 
  L682.42 1479.3 L674.72 1479.3 L667.02 1479.3 L659.32 1479.3 L651.62 1479.3 L643.92 1479.3 L636.22 1479.3 L628.52 1479.3 L620.82 1479.3 L613.12 1479.3 
  L605.42 1479.3 L597.72 1479.3 L590.02 1479.3 L582.32 1479.3 L574.62 1479.3 L566.92 1479.3 L559.22 1479.3 L551.52 1479.3 L543.82 1479.3 L536.12 1479.3 
  L528.42 1479.3 L520.719 1479.3 L513.019 1479.3 L505.319 1479.3 L497.619 1479.3 L489.919 1479.3 L482.219 1479.3 L474.519 1479.3 L466.819 1479.3 L459.119 1479.3 
  L451.419 1479.3 L443.719 1479.3 L436.019 1479.3 L428.319 1479.3 L420.619 1479.3 L412.919 1479.3 L405.219 1479.3 L397.519 1479.3 L389.819 1479.3 L382.119 1479.3 
  L374.419 1479.3 L366.719 1479.3 L359.019 1479.3 L351.319 1479.3 L343.619 1479.3 L335.918 1479.3 L328.218 1479.3 L320.518 1479.3 L312.818 1479.3 L305.118 1479.3 
  L297.418 1479.3 L289.718 1479.3 L282.018 1479.3 L274.318 1479.3 L266.618 1479.3 L258.918 1479.3 L251.218 1479.3 L243.518 1479.3 L235.818 1479.3 L228.118 1479.3 
  L220.418 1479.3 L212.718 1479.3 L205.018 1479.3 L197.318 1479.3 L189.618 1479.3 L181.918 1479.3 L174.218 1479.3 L166.518 1479.3 L158.818 1479.3 L151.118 1479.3 
   Z
  " fill="#ffa500" fill-rule="evenodd" fill-opacity="0.5"/>
<polyline clip-path="url(#clip462)" style="stroke:#ffa500; stroke-width:4; stroke-opacity:1; fill:none" points="
  151.118,1476.56 158.818,1476.6 166.518,1476.72 174.218,1476.9 181.918,1477.14 189.618,1477.41 197.318,1477.7 205.018,1477.98 212.718,1478.25 220.418,1478.48 
  228.118,1478.68 235.818,1478.83 243.518,1478.95 251.218,1479.02 258.918,1479.05 266.618,1479.02 274.318,1478.94 282.018,1478.79 289.718,1478.54 297.418,1478.18 
  305.118,1477.67 312.818,1476.98 320.518,1476.08 328.218,1474.95 335.918,1473.59 343.619,1471.99 351.319,1470.19 359.019,1468.23 366.719,1466.18 374.419,1464.13 
  382.119,1462.16 389.819,1460.37 397.519,1458.84 405.219,1457.6 412.919,1456.69 420.619,1456.08 428.319,1455.71 436.019,1455.49 443.719,1455.31 451.419,1455.03 
  459.119,1454.53 466.819,1453.7 474.519,1452.46 482.219,1450.8 489.919,1448.73 497.619,1446.34 505.319,1443.75 513.019,1441.12 520.719,1438.63 528.42,1436.44 
  536.12,1434.68 543.82,1433.45 551.52,1432.8 559.22,1432.69 566.92,1433.07 574.62,1433.78 582.32,1434.68 590.02,1435.58 597.72,1436.3 605.42,1436.65 
  613.12,1436.47 620.82,1435.66 628.52,1434.1 636.22,1431.76 643.92,1428.59 651.62,1424.61 659.32,1419.85 667.02,1414.34 674.72,1408.16 682.42,1401.39 
  690.12,1394.1 697.82,1386.4 705.52,1378.38 713.221,1370.13 720.921,1361.75 728.621,1353.31 736.321,1344.92 744.021,1336.64 751.721,1328.59 759.421,1320.85 
  767.121,1313.54 774.821,1306.77 782.521,1300.64 790.221,1295.26 797.921,1290.67 805.621,1286.89 813.321,1283.89 821.021,1281.57 828.721,1279.82 836.421,1278.47 
  844.121,1277.36 851.821,1276.32 859.521,1275.24 867.221,1274.04 874.921,1272.72 882.621,1271.35 890.321,1270.04 898.021,1268.93 905.722,1268.15 913.422,1267.79 
  
  "/>
<path clip-path="url(#clip462)" d="
M913.422 1267.79 L923.975 1267.93 L934.527 1268.44 L945.08 1268.47 L955.633 1266.86 L966.186 1262.34 L976.739 1253.82 L987.292 1240.7 L997.845 1222.98 L1008.4 1201.36 
  L1018.95 1177.02 L1029.5 1151.38 L1040.06 1125.78 L1050.61 1101.18 L1061.16 1077.96 L1071.72 1055.94 L1082.27 1034.53 L1092.82 1012.94 L1103.37 990.464 L1113.93 966.575 
  L1124.48 940.949 L1135.03 913.382 L1145.59 883.694 L1156.14 851.716 L1166.69 817.384 L1177.25 780.905 L1187.8 742.914 L1198.35 704.512 L1208.9 667.118 L1219.46 632.168 
  L1230.01 600.731 L1240.56 573.211 L1251.12 549.236 L1261.67 527.792 L1272.22 507.56 L1282.77 487.329 L1293.33 466.332 L1303.88 444.392 L1314.43 421.849 L1324.99 399.345 
  L1335.54 377.549 L1346.09 356.965 L1356.65 337.871 L1367.2 320.381 L1377.75 304.567 L1388.3 290.539 L1398.86 278.429 L1409.41 268.261 L1419.96 259.777 L1430.52 252.323 
  L1441.07 244.855 L1451.62 236.122 L1462.18 224.954 L1472.73 210.575 L1483.28 192.845 L1493.83 172.365 L1504.39 150.444 L1514.94 128.95 L1525.49 110.079 L1536.05 96.082 
  L1546.6 88.9544 L1557.15 90.145 L1567.7 100.317 L1578.26 119.227 L1588.81 145.764 L1599.36 178.142 L1609.92 214.204 L1620.47 251.735 L1631.02 288.723 L1641.58 323.496 
  L1652.13 354.749 L1662.68 381.53 L1673.23 403.239 L1683.79 419.686 L1694.34 431.194 L1704.89 438.681 L1715.45 443.622 L1726 447.864 L1736.55 453.312 L1747.1 461.574 
  L1757.66 473.683 L1768.21 489.976 L1778.76 510.141 L1789.32 533.395 L1799.87 558.71 L1810.42 585.026 L1820.98 611.414 L1831.53 637.185 L1842.08 661.953 L1852.63 685.675 
  L1863.19 708.648 L1873.74 731.477 L1884.29 754.966 L1894.85 779.976 L1905.4 807.239 L1915.95 837.194 L1926.5 869.895 L1937.06 905.002 L1947.61 941.865 L1958.16 979.65 
  L1958.16 1479.3 L1947.61 1479.3 L1937.06 1479.3 L1926.5 1479.3 L1915.95 1479.3 L1905.4 1479.3 L1894.85 1479.3 L1884.29 1479.3 L1873.74 1479.3 L1863.19 1479.3 
  L1852.63 1479.3 L1842.08 1479.3 L1831.53 1479.3 L1820.98 1479.3 L1810.42 1479.3 L1799.87 1479.3 L1789.32 1479.3 L1778.76 1479.3 L1768.21 1479.3 L1757.66 1479.3 
  L1747.1 1479.3 L1736.55 1479.3 L1726 1479.3 L1715.45 1479.3 L1704.89 1479.3 L1694.34 1479.3 L1683.79 1479.3 L1673.23 1479.3 L1662.68 1479.3 L1652.13 1479.3 
  L1641.58 1479.3 L1631.02 1479.3 L1620.47 1479.3 L1609.92 1479.3 L1599.36 1479.3 L1588.81 1479.3 L1578.26 1479.3 L1567.7 1479.3 L1557.15 1479.3 L1546.6 1479.3 
  L1536.05 1479.3 L1525.49 1479.3 L1514.94 1479.3 L1504.39 1479.3 L1493.83 1479.3 L1483.28 1479.3 L1472.73 1479.3 L1462.18 1479.3 L1451.62 1479.3 L1441.07 1479.3 
  L1430.52 1479.3 L1419.96 1479.3 L1409.41 1479.3 L1398.86 1479.3 L1388.3 1479.3 L1377.75 1479.3 L1367.2 1479.3 L1356.65 1479.3 L1346.09 1479.3 L1335.54 1479.3 
  L1324.99 1479.3 L1314.43 1479.3 L1303.88 1479.3 L1293.33 1479.3 L1282.77 1479.3 L1272.22 1479.3 L1261.67 1479.3 L1251.12 1479.3 L1240.56 1479.3 L1230.01 1479.3 
  L1219.46 1479.3 L1208.9 1479.3 L1198.35 1479.3 L1187.8 1479.3 L1177.25 1479.3 L1166.69 1479.3 L1156.14 1479.3 L1145.59 1479.3 L1135.03 1479.3 L1124.48 1479.3 
  L1113.93 1479.3 L1103.37 1479.3 L1092.82 1479.3 L1082.27 1479.3 L1071.72 1479.3 L1061.16 1479.3 L1050.61 1479.3 L1040.06 1479.3 L1029.5 1479.3 L1018.95 1479.3 
  L1008.4 1479.3 L997.845 1479.3 L987.292 1479.3 L976.739 1479.3 L966.186 1479.3 L955.633 1479.3 L945.08 1479.3 L934.527 1479.3 L923.975 1479.3 L913.422 1479.3 
   Z
  " fill="#008000" fill-rule="evenodd" fill-opacity="0.5"/>
<polyline clip-path="url(#clip462)" style="stroke:#008000; stroke-width:4; stroke-opacity:1; fill:none" points="
  913.422,1267.79 923.975,1267.93 934.527,1268.44 945.08,1268.47 955.633,1266.86 966.186,1262.34 976.739,1253.82 987.292,1240.7 997.845,1222.98 1008.4,1201.36 
  1018.95,1177.02 1029.5,1151.38 1040.06,1125.78 1050.61,1101.18 1061.16,1077.96 1071.72,1055.94 1082.27,1034.53 1092.82,1012.94 1103.37,990.464 1113.93,966.575 
  1124.48,940.949 1135.03,913.382 1145.59,883.694 1156.14,851.716 1166.69,817.384 1177.25,780.905 1187.8,742.914 1198.35,704.512 1208.9,667.118 1219.46,632.168 
  1230.01,600.731 1240.56,573.211 1251.12,549.236 1261.67,527.792 1272.22,507.56 1282.77,487.329 1293.33,466.332 1303.88,444.392 1314.43,421.849 1324.99,399.345 
  1335.54,377.549 1346.09,356.965 1356.65,337.871 1367.2,320.381 1377.75,304.567 1388.3,290.539 1398.86,278.429 1409.41,268.261 1419.96,259.777 1430.52,252.323 
  1441.07,244.855 1451.62,236.122 1462.18,224.954 1472.73,210.575 1483.28,192.845 1493.83,172.365 1504.39,150.444 1514.94,128.95 1525.49,110.079 1536.05,96.082 
  1546.6,88.9544 1557.15,90.145 1567.7,100.317 1578.26,119.227 1588.81,145.764 1599.36,178.142 1609.92,214.204 1620.47,251.735 1631.02,288.723 1641.58,323.496 
  1652.13,354.749 1662.68,381.53 1673.23,403.239 1683.79,419.686 1694.34,431.194 1704.89,438.681 1715.45,443.622 1726,447.864 1736.55,453.312 1747.1,461.574 
  1757.66,473.683 1768.21,489.976 1778.76,510.141 1789.32,533.395 1799.87,558.71 1810.42,585.026 1820.98,611.414 1831.53,637.185 1842.08,661.953 1852.63,685.675 
  1863.19,708.648 1873.74,731.477 1884.29,754.966 1894.85,779.976 1905.4,807.239 1915.95,837.194 1926.5,869.895 1937.06,905.002 1947.61,941.865 1958.16,979.65 
  
  "/>
<path clip-path="url(#clip462)" d="
M1958.16 979.65 L1961.5 991.649 L1964.84 1003.62 L1968.18 1015.54 L1971.52 1027.37 L1974.85 1039.09 L1978.19 1050.66 L1981.53 1062.07 L1984.87 1073.29 L1988.21 1084.28 
  L1991.54 1095.03 L1994.88 1105.51 L1998.22 1115.69 L2001.56 1125.56 L2004.9 1135.1 L2008.23 1144.29 L2011.57 1153.12 L2014.91 1161.59 L2018.25 1169.68 L2021.59 1177.4 
  L2024.92 1184.75 L2028.26 1191.75 L2031.6 1198.4 L2034.94 1204.74 L2038.28 1210.78 L2041.61 1216.56 L2044.95 1222.11 L2048.29 1227.47 L2051.63 1232.67 L2054.97 1237.76 
  L2058.31 1242.77 L2061.64 1247.76 L2064.98 1252.75 L2068.32 1257.79 L2071.66 1262.89 L2075 1268.11 L2078.33 1273.44 L2081.67 1278.92 L2085.01 1284.55 L2088.35 1290.34 
  L2091.69 1296.28 L2095.02 1302.36 L2098.36 1308.57 L2101.7 1314.9 L2105.04 1321.31 L2108.38 1327.77 L2111.71 1334.27 L2115.05 1340.76 L2118.39 1347.21 L2121.73 1353.58 
  L2125.07 1359.86 L2128.4 1365.99 L2131.74 1371.97 L2135.08 1377.75 L2138.42 1383.33 L2141.76 1388.68 L2145.09 1393.8 L2148.43 1398.67 L2151.77 1403.29 L2155.11 1407.65 
  L2158.45 1411.77 L2161.78 1415.65 L2165.12 1419.3 L2168.46 1422.72 L2171.8 1425.93 L2175.14 1428.95 L2178.47 1431.78 L2181.81 1434.44 L2185.15 1436.95 L2188.49 1439.32 
  L2191.83 1441.55 L2195.17 1443.67 L2198.5 1445.67 L2201.84 1447.58 L2205.18 1449.38 L2208.52 1451.1 L2211.86 1452.74 L2215.19 1454.29 L2218.53 1455.77 L2221.87 1457.17 
  L2225.21 1458.5 L2228.55 1459.77 L2231.88 1460.96 L2235.22 1462.09 L2238.56 1463.16 L2241.9 1464.16 L2245.24 1465.11 L2248.57 1465.99 L2251.91 1466.83 L2255.25 1467.61 
  L2258.59 1468.35 L2261.93 1469.04 L2265.26 1469.69 L2268.6 1470.3 L2271.94 1470.88 L2275.28 1471.42 L2278.62 1471.93 L2281.95 1472.42 L2285.29 1472.88 L2288.63 1473.31 
  L2288.63 1479.3 L2285.29 1479.3 L2281.95 1479.3 L2278.62 1479.3 L2275.28 1479.3 L2271.94 1479.3 L2268.6 1479.3 L2265.26 1479.3 L2261.93 1479.3 L2258.59 1479.3 
  L2255.25 1479.3 L2251.91 1479.3 L2248.57 1479.3 L2245.24 1479.3 L2241.9 1479.3 L2238.56 1479.3 L2235.22 1479.3 L2231.88 1479.3 L2228.55 1479.3 L2225.21 1479.3 
  L2221.87 1479.3 L2218.53 1479.3 L2215.19 1479.3 L2211.86 1479.3 L2208.52 1479.3 L2205.18 1479.3 L2201.84 1479.3 L2198.5 1479.3 L2195.17 1479.3 L2191.83 1479.3 
  L2188.49 1479.3 L2185.15 1479.3 L2181.81 1479.3 L2178.47 1479.3 L2175.14 1479.3 L2171.8 1479.3 L2168.46 1479.3 L2165.12 1479.3 L2161.78 1479.3 L2158.45 1479.3 
  L2155.11 1479.3 L2151.77 1479.3 L2148.43 1479.3 L2145.09 1479.3 L2141.76 1479.3 L2138.42 1479.3 L2135.08 1479.3 L2131.74 1479.3 L2128.4 1479.3 L2125.07 1479.3 
  L2121.73 1479.3 L2118.39 1479.3 L2115.05 1479.3 L2111.71 1479.3 L2108.38 1479.3 L2105.04 1479.3 L2101.7 1479.3 L2098.36 1479.3 L2095.02 1479.3 L2091.69 1479.3 
  L2088.35 1479.3 L2085.01 1479.3 L2081.67 1479.3 L2078.33 1479.3 L2075 1479.3 L2071.66 1479.3 L2068.32 1479.3 L2064.98 1479.3 L2061.64 1479.3 L2058.31 1479.3 
  L2054.97 1479.3 L2051.63 1479.3 L2048.29 1479.3 L2044.95 1479.3 L2041.61 1479.3 L2038.28 1479.3 L2034.94 1479.3 L2031.6 1479.3 L2028.26 1479.3 L2024.92 1479.3 
  L2021.59 1479.3 L2018.25 1479.3 L2014.91 1479.3 L2011.57 1479.3 L2008.23 1479.3 L2004.9 1479.3 L2001.56 1479.3 L1998.22 1479.3 L1994.88 1479.3 L1991.54 1479.3 
  L1988.21 1479.3 L1984.87 1479.3 L1981.53 1479.3 L1978.19 1479.3 L1974.85 1479.3 L1971.52 1479.3 L1968.18 1479.3 L1964.84 1479.3 L1961.5 1479.3 L1958.16 1479.3 
   Z
  " fill="#ffa500" fill-rule="evenodd" fill-opacity="0.5"/>
<polyline clip-path="url(#clip462)" style="stroke:#ffa500; stroke-width:4; stroke-opacity:1; fill:none" points="
  1958.16,979.65 1961.5,991.649 1964.84,1003.62 1968.18,1015.54 1971.52,1027.37 1974.85,1039.09 1978.19,1050.66 1981.53,1062.07 1984.87,1073.29 1988.21,1084.28 
  1991.54,1095.03 1994.88,1105.51 1998.22,1115.69 2001.56,1125.56 2004.9,1135.1 2008.23,1144.29 2011.57,1153.12 2014.91,1161.59 2018.25,1169.68 2021.59,1177.4 
  2024.92,1184.75 2028.26,1191.75 2031.6,1198.4 2034.94,1204.74 2038.28,1210.78 2041.61,1216.56 2044.95,1222.11 2048.29,1227.47 2051.63,1232.67 2054.97,1237.76 
  2058.31,1242.77 2061.64,1247.76 2064.98,1252.75 2068.32,1257.79 2071.66,1262.89 2075,1268.11 2078.33,1273.44 2081.67,1278.92 2085.01,1284.55 2088.35,1290.34 
  2091.69,1296.28 2095.02,1302.36 2098.36,1308.57 2101.7,1314.9 2105.04,1321.31 2108.38,1327.77 2111.71,1334.27 2115.05,1340.76 2118.39,1347.21 2121.73,1353.58 
  2125.07,1359.86 2128.4,1365.99 2131.74,1371.97 2135.08,1377.75 2138.42,1383.33 2141.76,1388.68 2145.09,1393.8 2148.43,1398.67 2151.77,1403.29 2155.11,1407.65 
  2158.45,1411.77 2161.78,1415.65 2165.12,1419.3 2168.46,1422.72 2171.8,1425.93 2175.14,1428.95 2178.47,1431.78 2181.81,1434.44 2185.15,1436.95 2188.49,1439.32 
  2191.83,1441.55 2195.17,1443.67 2198.5,1445.67 2201.84,1447.58 2205.18,1449.38 2208.52,1451.1 2211.86,1452.74 2215.19,1454.29 2218.53,1455.77 2221.87,1457.17 
  2225.21,1458.5 2228.55,1459.77 2231.88,1460.96 2235.22,1462.09 2238.56,1463.16 2241.9,1464.16 2245.24,1465.11 2248.57,1465.99 2251.91,1466.83 2255.25,1467.61 
  2258.59,1468.35 2261.93,1469.04 2265.26,1469.69 2268.6,1470.3 2271.94,1470.88 2275.28,1471.42 2278.62,1471.93 2281.95,1472.42 2285.29,1472.88 2288.63,1473.31 
  
  "/>
<polyline clip-path="url(#clip462)" style="stroke:#0000ff; stroke-width:4; stroke-opacity:1; fill:none" points="
  1487.77,1479.3 1487.77,184.4 
  "/>
<polyline clip-path="url(#clip462)" style="stroke:#000000; stroke-width:4; stroke-opacity:1; fill:none" points="
  1510.46,1479.3 1510.46,137.89 
  "/>
<path clip-path="url(#clip460)" d="
M1494.58 459.25 L2277.23 459.25 L2277.23 96.3696 L1494.58 96.3696  Z
  " fill="#ffffff" fill-rule="evenodd" fill-opacity="1"/>
<polyline clip-path="url(#clip460)" style="stroke:#000000; stroke-width:4; stroke-opacity:1; fill:none" points="
  1494.58,459.25 2277.23,459.25 2277.23,96.3696 1494.58,96.3696 1494.58,459.25 
  "/>
<path clip-path="url(#clip460)" d="
M1519.75 181.042 L1670.81 181.042 L1670.81 132.658 L1519.75 132.658 L1519.75 181.042  Z
  " fill="#ffa500" fill-rule="evenodd" fill-opacity="0.5"/>
<polyline clip-path="url(#clip460)" style="stroke:#ffa500; stroke-width:4; stroke-opacity:1; fill:none" points="
  1519.75,132.658 1670.81,132.658 
  "/>
<path clip-path="url(#clip460)" d="M 0 0 M1700.38 161.19 Q1700.38 165.889 1702.3 168.574 Q1704.24 171.236 1707.62 171.236 Q1711 171.236 1712.95 168.574 Q1714.89 165.889 1714.89 161.19 Q1714.89 156.491 1712.95 153.829 Q1711 151.144 1707.62 151.144 Q1704.24 151.144 1702.3 153.829 Q1700.38 156.491 1700.38 161.19 M1714.89 170.241 Q1713.55 172.555 1711.49 173.69 Q1709.45 174.801 1706.58 174.801 Q1701.88 174.801 1698.92 171.051 Q1695.98 167.301 1695.98 161.19 Q1695.98 155.079 1698.92 151.329 Q1701.88 147.579 1706.58 147.579 Q1709.45 147.579 1711.49 148.713 Q1713.55 149.824 1714.89 152.139 L1714.89 148.204 L1719.15 148.204 L1719.15 183.991 L1714.89 183.991 L1714.89 170.241 Z" fill="#000000" fill-rule="evenodd" fill-opacity="1" /><path clip-path="url(#clip460)" d="M 0 0 M1734.22 142.648 Q1730.61 142.648 1728.78 146.213 Q1726.98 149.755 1726.98 156.884 Q1726.98 163.991 1728.78 167.556 Q1730.61 171.097 1734.22 171.097 Q1737.85 171.097 1739.66 167.556 Q1741.49 163.991 1741.49 156.884 Q1741.49 149.755 1739.66 146.213 Q1737.85 142.648 1734.22 142.648 M1734.22 138.945 Q1740.03 138.945 1743.09 143.551 Q1746.17 148.134 1746.17 156.884 Q1746.17 165.611 1743.09 170.218 Q1740.03 174.801 1734.22 174.801 Q1728.41 174.801 1725.33 170.218 Q1722.28 165.611 1722.28 156.884 Q1722.28 148.134 1725.33 143.551 Q1728.41 138.945 1734.22 138.945 Z" fill="#000000" fill-rule="evenodd" fill-opacity="1" /><path clip-path="url(#clip460)" d="M 0 0 M1751.28 139.57 L1769.64 139.57 L1769.64 143.505 L1755.56 143.505 L1755.56 151.977 Q1756.58 151.63 1757.6 151.468 Q1758.62 151.282 1759.64 151.282 Q1765.42 151.282 1768.8 154.454 Q1772.18 157.625 1772.18 163.042 Q1772.18 168.62 1768.71 171.722 Q1765.24 174.801 1758.92 174.801 Q1756.74 174.801 1754.48 174.43 Q1752.23 174.06 1749.82 173.319 L1749.82 168.62 Q1751.91 169.755 1754.13 170.31 Q1756.35 170.866 1758.83 170.866 Q1762.83 170.866 1765.17 168.759 Q1767.51 166.653 1767.51 163.042 Q1767.51 159.431 1765.17 157.324 Q1762.83 155.218 1758.83 155.218 Q1756.95 155.218 1755.08 155.634 Q1753.23 156.051 1751.28 156.931 L1751.28 139.57 Z" fill="#000000" fill-rule="evenodd" fill-opacity="1" /><path clip-path="url(#clip460)" d="
M1519.75 241.522 L1670.81 241.522 L1670.81 193.138 L1519.75 193.138 L1519.75 241.522  Z
  " fill="#008000" fill-rule="evenodd" fill-opacity="0.5"/>
<polyline clip-path="url(#clip460)" style="stroke:#008000; stroke-width:4; stroke-opacity:1; fill:none" points="
  1519.75,193.138 1670.81,193.138 
  "/>
<path clip-path="url(#clip460)" d="M 0 0 M1698.2 233.892 L1698.2 229.633 Q1699.96 230.466 1701.77 230.906 Q1703.57 231.346 1705.31 231.346 Q1709.94 231.346 1712.37 228.244 Q1714.82 225.119 1715.17 218.776 Q1713.83 220.767 1711.77 221.832 Q1709.71 222.897 1707.21 222.897 Q1702.02 222.897 1698.99 219.772 Q1695.98 216.624 1695.98 211.184 Q1695.98 205.86 1699.13 202.642 Q1702.28 199.425 1707.51 199.425 Q1713.5 199.425 1716.65 204.031 Q1719.82 208.614 1719.82 217.364 Q1719.82 225.536 1715.93 230.42 Q1712.07 235.281 1705.52 235.281 Q1703.76 235.281 1701.95 234.934 Q1700.15 234.586 1698.2 233.892 M1707.51 219.239 Q1710.66 219.239 1712.48 217.086 Q1714.34 214.934 1714.34 211.184 Q1714.34 207.457 1712.48 205.304 Q1710.66 203.128 1707.51 203.128 Q1704.36 203.128 1702.51 205.304 Q1700.68 207.457 1700.68 211.184 Q1700.68 214.934 1702.51 217.086 Q1704.36 219.239 1707.51 219.239 Z" fill="#000000" fill-rule="evenodd" fill-opacity="1" /><path clip-path="url(#clip460)" d="M 0 0 M1734.89 203.128 Q1731.28 203.128 1729.45 206.693 Q1727.65 210.235 1727.65 217.364 Q1727.65 224.471 1729.45 228.036 Q1731.28 231.577 1734.89 231.577 Q1738.53 231.577 1740.33 228.036 Q1742.16 224.471 1742.16 217.364 Q1742.16 210.235 1740.33 206.693 Q1738.53 203.128 1734.89 203.128 M1734.89 199.425 Q1740.7 199.425 1743.76 204.031 Q1746.84 208.614 1746.84 217.364 Q1746.84 226.091 1743.76 230.698 Q1740.7 235.281 1734.89 235.281 Q1729.08 235.281 1726 230.698 Q1722.95 226.091 1722.95 217.364 Q1722.95 208.614 1726 204.031 Q1729.08 199.425 1734.89 199.425 Z" fill="#000000" fill-rule="evenodd" fill-opacity="1" /><path clip-path="url(#clip460)" d="M 0 0 M1781.3 219.401 Q1779.29 219.401 1778.13 221.114 Q1777 222.827 1777 225.883 Q1777 228.892 1778.13 230.628 Q1779.29 232.341 1781.3 232.341 Q1783.27 232.341 1784.41 230.628 Q1785.56 228.892 1785.56 225.883 Q1785.56 222.85 1784.41 221.137 Q1783.27 219.401 1781.3 219.401 M1781.3 216.462 Q1784.96 216.462 1787.11 219.008 Q1789.27 221.554 1789.27 225.883 Q1789.27 230.211 1787.09 232.758 Q1784.94 235.281 1781.3 235.281 Q1777.6 235.281 1775.45 232.758 Q1773.29 230.211 1773.29 225.883 Q1773.29 221.531 1775.45 219.008 Q1777.62 216.462 1781.3 216.462 M1757.42 202.364 Q1755.42 202.364 1754.27 204.1 Q1753.13 205.813 1753.13 208.823 Q1753.13 211.878 1754.27 213.591 Q1755.4 215.304 1757.42 215.304 Q1759.43 215.304 1760.56 213.591 Q1761.72 211.878 1761.72 208.823 Q1761.72 205.837 1760.56 204.1 Q1759.41 202.364 1757.42 202.364 M1778.32 199.425 L1782.02 199.425 L1760.4 235.281 L1756.7 235.281 L1778.32 199.425 M1757.42 199.425 Q1761.07 199.425 1763.25 201.971 Q1765.42 204.494 1765.42 208.823 Q1765.42 213.198 1763.25 215.721 Q1761.1 218.244 1757.42 218.244 Q1753.73 218.244 1751.58 215.721 Q1749.45 213.174 1749.45 208.823 Q1749.45 204.517 1751.6 201.971 Q1753.76 199.425 1757.42 199.425 Z" fill="#000000" fill-rule="evenodd" fill-opacity="1" /><path clip-path="url(#clip460)" d="M 0 0 M1830.35 218.961 L1830.35 234.61 L1826.1 234.61 L1826.1 219.1 Q1826.1 215.42 1824.66 213.591 Q1823.22 211.762 1820.35 211.762 Q1816.91 211.762 1814.91 213.962 Q1812.92 216.161 1812.92 219.957 L1812.92 234.61 L1808.64 234.61 L1808.64 208.684 L1812.92 208.684 L1812.92 212.712 Q1814.45 210.374 1816.51 209.216 Q1818.6 208.059 1821.3 208.059 Q1825.77 208.059 1828.06 210.837 Q1830.35 213.591 1830.35 218.961 Z" fill="#000000" fill-rule="evenodd" fill-opacity="1" /><path clip-path="url(#clip460)" d="M 0 0 M1844.87 211.67 Q1841.44 211.67 1839.45 214.355 Q1837.46 217.017 1837.46 221.67 Q1837.46 226.323 1839.43 229.008 Q1841.42 231.67 1844.87 231.67 Q1848.27 231.67 1850.26 228.985 Q1852.25 226.299 1852.25 221.67 Q1852.25 217.063 1850.26 214.378 Q1848.27 211.67 1844.87 211.67 M1844.87 208.059 Q1850.42 208.059 1853.6 211.67 Q1856.77 215.281 1856.77 221.67 Q1856.77 228.036 1853.6 231.67 Q1850.42 235.281 1844.87 235.281 Q1839.29 235.281 1836.12 231.67 Q1832.97 228.036 1832.97 221.67 Q1832.97 215.281 1836.12 211.67 Q1839.29 208.059 1844.87 208.059 Z" fill="#000000" fill-rule="evenodd" fill-opacity="1" /><path clip-path="url(#clip460)" d="M 0 0 M1882.78 218.961 L1882.78 234.61 L1878.53 234.61 L1878.53 219.1 Q1878.53 215.42 1877.09 213.591 Q1875.66 211.762 1872.78 211.762 Q1869.34 211.762 1867.35 213.962 Q1865.35 216.161 1865.35 219.957 L1865.35 234.61 L1861.07 234.61 L1861.07 208.684 L1865.35 208.684 L1865.35 212.712 Q1866.88 210.374 1868.94 209.216 Q1871.03 208.059 1873.73 208.059 Q1878.2 208.059 1880.49 210.837 Q1882.78 213.591 1882.78 218.961 Z" fill="#000000" fill-rule="evenodd" fill-opacity="1" /><path clip-path="url(#clip460)" d="M 0 0 M1885.1 219.725 L1897.58 219.725 L1897.58 223.522 L1885.1 223.522 L1885.1 219.725 Z" fill="#000000" fill-rule="evenodd" fill-opacity="1" /><path clip-path="url(#clip460)" d="M 0 0 M1917.07 212.665 Q1916.35 212.249 1915.49 212.063 Q1914.66 211.855 1913.64 211.855 Q1910.03 211.855 1908.09 214.216 Q1906.16 216.554 1906.16 220.952 L1906.16 234.61 L1901.88 234.61 L1901.88 208.684 L1906.16 208.684 L1906.16 212.712 Q1907.51 210.35 1909.66 209.216 Q1911.81 208.059 1914.89 208.059 Q1915.33 208.059 1915.86 208.128 Q1916.4 208.175 1917.04 208.29 L1917.07 212.665 Z" fill="#000000" fill-rule="evenodd" fill-opacity="1" /><path clip-path="url(#clip460)" d="M 0 0 M1942.67 220.582 L1942.67 222.665 L1923.09 222.665 Q1923.36 227.063 1925.72 229.378 Q1928.11 231.67 1932.34 231.67 Q1934.8 231.67 1937.09 231.068 Q1939.4 230.466 1941.67 229.262 L1941.67 233.29 Q1939.38 234.262 1936.97 234.772 Q1934.57 235.281 1932.09 235.281 Q1925.89 235.281 1922.25 231.67 Q1918.64 228.059 1918.64 221.901 Q1918.64 215.536 1922.07 211.809 Q1925.52 208.059 1931.35 208.059 Q1936.58 208.059 1939.61 211.438 Q1942.67 214.795 1942.67 220.582 M1938.41 219.332 Q1938.36 215.837 1936.44 213.753 Q1934.54 211.67 1931.4 211.67 Q1927.83 211.67 1925.68 213.684 Q1923.55 215.698 1923.22 219.355 L1938.41 219.332 Z" fill="#000000" fill-rule="evenodd" fill-opacity="1" /><path clip-path="url(#clip460)" d="M 0 0 M1947.14 208.684 L1951.4 208.684 L1951.4 235.073 Q1951.4 240.026 1949.5 242.248 Q1947.62 244.471 1943.43 244.471 L1941.81 244.471 L1941.81 240.86 L1942.95 240.86 Q1945.38 240.86 1946.26 239.725 Q1947.14 238.614 1947.14 235.073 L1947.14 208.684 M1947.14 198.591 L1951.4 198.591 L1951.4 203.985 L1947.14 203.985 L1947.14 198.591 Z" fill="#000000" fill-rule="evenodd" fill-opacity="1" /><path clip-path="url(#clip460)" d="M 0 0 M1978.04 220.582 L1978.04 222.665 L1958.46 222.665 Q1958.73 227.063 1961.09 229.378 Q1963.48 231.67 1967.71 231.67 Q1970.17 231.67 1972.46 231.068 Q1974.78 230.466 1977.04 229.262 L1977.04 233.29 Q1974.75 234.262 1972.34 234.772 Q1969.94 235.281 1967.46 235.281 Q1961.26 235.281 1957.62 231.67 Q1954.01 228.059 1954.01 221.901 Q1954.01 215.536 1957.44 211.809 Q1960.89 208.059 1966.72 208.059 Q1971.95 208.059 1974.98 211.438 Q1978.04 214.795 1978.04 220.582 M1973.78 219.332 Q1973.73 215.837 1971.81 213.753 Q1969.91 211.67 1966.77 211.67 Q1963.2 211.67 1961.05 213.684 Q1958.92 215.698 1958.59 219.355 L1973.78 219.332 Z" fill="#000000" fill-rule="evenodd" fill-opacity="1" /><path clip-path="url(#clip460)" d="M 0 0 M2001.16 209.679 L2001.16 213.661 Q1999.36 212.665 1997.53 212.179 Q1995.72 211.67 1993.87 211.67 Q1989.73 211.67 1987.44 214.309 Q1985.15 216.924 1985.15 221.67 Q1985.15 226.415 1987.44 229.054 Q1989.73 231.67 1993.87 231.67 Q1995.72 231.67 1997.53 231.184 Q1999.36 230.674 2001.16 229.679 L2001.16 233.614 Q1999.38 234.448 1997.46 234.864 Q1995.56 235.281 1993.41 235.281 Q1987.55 235.281 1984.1 231.6 Q1980.65 227.92 1980.65 221.67 Q1980.65 215.327 1984.13 211.693 Q1987.62 208.059 1993.69 208.059 Q1995.65 208.059 1997.53 208.475 Q1999.4 208.869 2001.16 209.679 Z" fill="#000000" fill-rule="evenodd" fill-opacity="1" /><path clip-path="url(#clip460)" d="M 0 0 M2009.84 201.323 L2009.84 208.684 L2018.62 208.684 L2018.62 211.994 L2009.84 211.994 L2009.84 226.068 Q2009.84 229.239 2010.7 230.142 Q2011.58 231.045 2014.24 231.045 L2018.62 231.045 L2018.62 234.61 L2014.24 234.61 Q2009.31 234.61 2007.44 232.781 Q2005.56 230.929 2005.56 226.068 L2005.56 211.994 L2002.44 211.994 L2002.44 208.684 L2005.56 208.684 L2005.56 201.323 L2009.84 201.323 Z" fill="#000000" fill-rule="evenodd" fill-opacity="1" /><path clip-path="url(#clip460)" d="M 0 0 M2023.08 208.684 L2027.34 208.684 L2027.34 234.61 L2023.08 234.61 L2023.08 208.684 M2023.08 198.591 L2027.34 198.591 L2027.34 203.985 L2023.08 203.985 L2023.08 198.591 Z" fill="#000000" fill-rule="evenodd" fill-opacity="1" /><path clip-path="url(#clip460)" d="M 0 0 M2041.86 211.67 Q2038.43 211.67 2036.44 214.355 Q2034.45 217.017 2034.45 221.67 Q2034.45 226.323 2036.42 229.008 Q2038.41 231.67 2041.86 231.67 Q2045.26 231.67 2047.25 228.985 Q2049.24 226.299 2049.24 221.67 Q2049.24 217.063 2047.25 214.378 Q2045.26 211.67 2041.86 211.67 M2041.86 208.059 Q2047.41 208.059 2050.58 211.67 Q2053.76 215.281 2053.76 221.67 Q2053.76 228.036 2050.58 231.67 Q2047.41 235.281 2041.86 235.281 Q2036.28 235.281 2033.11 231.67 Q2029.96 228.036 2029.96 221.67 Q2029.96 215.281 2033.11 211.67 Q2036.28 208.059 2041.86 208.059 Z" fill="#000000" fill-rule="evenodd" fill-opacity="1" /><path clip-path="url(#clip460)" d="M 0 0 M2079.77 218.961 L2079.77 234.61 L2075.52 234.61 L2075.52 219.1 Q2075.52 215.42 2074.08 213.591 Q2072.64 211.762 2069.77 211.762 Q2066.33 211.762 2064.33 213.962 Q2062.34 216.161 2062.34 219.957 L2062.34 234.61 L2058.06 234.61 L2058.06 208.684 L2062.34 208.684 L2062.34 212.712 Q2063.87 210.374 2065.93 209.216 Q2068.02 208.059 2070.72 208.059 Q2075.19 208.059 2077.48 210.837 Q2079.77 213.591 2079.77 218.961 Z" fill="#000000" fill-rule="evenodd" fill-opacity="1" /><path clip-path="url(#clip460)" d="M 0 0 M2114.33 212.665 Q2113.62 212.249 2112.76 212.063 Q2111.93 211.855 2110.91 211.855 Q2107.3 211.855 2105.35 214.216 Q2103.43 216.554 2103.43 220.952 L2103.43 234.61 L2099.15 234.61 L2099.15 208.684 L2103.43 208.684 L2103.43 212.712 Q2104.77 210.35 2106.93 209.216 Q2109.08 208.059 2112.16 208.059 Q2112.6 208.059 2113.13 208.128 Q2113.66 208.175 2114.31 208.29 L2114.33 212.665 Z" fill="#000000" fill-rule="evenodd" fill-opacity="1" /><path clip-path="url(#clip460)" d="M 0 0 M2139.94 220.582 L2139.94 222.665 L2120.35 222.665 Q2120.63 227.063 2122.99 229.378 Q2125.38 231.67 2129.61 231.67 Q2132.07 231.67 2134.36 231.068 Q2136.67 230.466 2138.94 229.262 L2138.94 233.29 Q2136.65 234.262 2134.24 234.772 Q2131.83 235.281 2129.36 235.281 Q2123.15 235.281 2119.52 231.67 Q2115.91 228.059 2115.91 221.901 Q2115.91 215.536 2119.33 211.809 Q2122.78 208.059 2128.62 208.059 Q2133.85 208.059 2136.88 211.438 Q2139.94 214.795 2139.94 220.582 M2135.68 219.332 Q2135.63 215.837 2133.71 213.753 Q2131.81 211.67 2128.66 211.67 Q2125.1 211.67 2122.95 213.684 Q2120.82 215.698 2120.49 219.355 L2135.68 219.332 Z" fill="#000000" fill-rule="evenodd" fill-opacity="1" /><path clip-path="url(#clip460)" d="M 0 0 M2161.46 221.346 Q2161.46 216.716 2159.54 214.17 Q2157.64 211.624 2154.2 211.624 Q2150.77 211.624 2148.85 214.17 Q2146.95 216.716 2146.95 221.346 Q2146.95 225.952 2148.85 228.498 Q2150.77 231.045 2154.2 231.045 Q2157.64 231.045 2159.54 228.498 Q2161.46 225.952 2161.46 221.346 M2165.72 231.392 Q2165.72 238.012 2162.78 241.23 Q2159.84 244.471 2153.78 244.471 Q2151.53 244.471 2149.54 244.123 Q2147.55 243.799 2145.68 243.105 L2145.68 238.961 Q2147.55 239.98 2149.38 240.466 Q2151.21 240.952 2153.11 240.952 Q2157.3 240.952 2159.38 238.753 Q2161.46 236.577 2161.46 232.156 L2161.46 230.049 Q2160.14 232.341 2158.08 233.475 Q2156.02 234.61 2153.15 234.61 Q2148.39 234.61 2145.47 230.975 Q2142.55 227.341 2142.55 221.346 Q2142.55 215.327 2145.47 211.693 Q2148.39 208.059 2153.15 208.059 Q2156.02 208.059 2158.08 209.193 Q2160.14 210.327 2161.46 212.619 L2161.46 208.684 L2165.72 208.684 L2165.72 231.392 Z" fill="#000000" fill-rule="evenodd" fill-opacity="1" /><path clip-path="url(#clip460)" d="M 0 0 M2170.19 208.684 L2174.45 208.684 L2174.45 234.61 L2170.19 234.61 L2170.19 208.684 M2170.19 198.591 L2174.45 198.591 L2174.45 203.985 L2170.19 203.985 L2170.19 198.591 Z" fill="#000000" fill-rule="evenodd" fill-opacity="1" /><path clip-path="url(#clip460)" d="M 0 0 M2188.96 211.67 Q2185.54 211.67 2183.55 214.355 Q2181.56 217.017 2181.56 221.67 Q2181.56 226.323 2183.52 229.008 Q2185.51 231.67 2188.96 231.67 Q2192.37 231.67 2194.36 228.985 Q2196.35 226.299 2196.35 221.67 Q2196.35 217.063 2194.36 214.378 Q2192.37 211.67 2188.96 211.67 M2188.96 208.059 Q2194.52 208.059 2197.69 211.67 Q2200.86 215.281 2200.86 221.67 Q2200.86 228.036 2197.69 231.67 Q2194.52 235.281 2188.96 235.281 Q2183.39 235.281 2180.21 231.67 Q2177.07 228.036 2177.07 221.67 Q2177.07 215.281 2180.21 211.67 Q2183.39 208.059 2188.96 208.059 Z" fill="#000000" fill-rule="evenodd" fill-opacity="1" /><path clip-path="url(#clip460)" d="M 0 0 M2226.88 218.961 L2226.88 234.61 L2222.62 234.61 L2222.62 219.1 Q2222.62 215.42 2221.19 213.591 Q2219.75 211.762 2216.88 211.762 Q2213.43 211.762 2211.44 213.962 Q2209.45 216.161 2209.45 219.957 L2209.45 234.61 L2205.17 234.61 L2205.17 208.684 L2209.45 208.684 L2209.45 212.712 Q2210.98 210.374 2213.04 209.216 Q2215.12 208.059 2217.83 208.059 Q2222.3 208.059 2224.59 210.837 Q2226.88 213.591 2226.88 218.961 Z" fill="#000000" fill-rule="evenodd" fill-opacity="1" /><path clip-path="url(#clip460)" d="
M1519.75 302.002 L1670.81 302.002 L1670.81 253.618 L1519.75 253.618 L1519.75 302.002  Z
  " fill="#ffa500" fill-rule="evenodd" fill-opacity="0.5"/>
<polyline clip-path="url(#clip460)" style="stroke:#ffa500; stroke-width:4; stroke-opacity:1; fill:none" points="
  1519.75,253.618 1670.81,253.618 
  "/>
<path clip-path="url(#clip460)" d="M 0 0 M1700.38 282.15 Q1700.38 286.849 1702.3 289.534 Q1704.24 292.196 1707.62 292.196 Q1711 292.196 1712.95 289.534 Q1714.89 286.849 1714.89 282.15 Q1714.89 277.451 1712.95 274.789 Q1711 272.104 1707.62 272.104 Q1704.24 272.104 1702.3 274.789 Q1700.38 277.451 1700.38 282.15 M1714.89 291.201 Q1713.55 293.515 1711.49 294.65 Q1709.45 295.761 1706.58 295.761 Q1701.88 295.761 1698.92 292.011 Q1695.98 288.261 1695.98 282.15 Q1695.98 276.039 1698.92 272.289 Q1701.88 268.539 1706.58 268.539 Q1709.45 268.539 1711.49 269.673 Q1713.55 270.784 1714.89 273.099 L1714.89 269.164 L1719.15 269.164 L1719.15 304.951 L1714.89 304.951 L1714.89 291.201 Z" fill="#000000" fill-rule="evenodd" fill-opacity="1" /><path clip-path="url(#clip460)" d="M 0 0 M1724.36 294.372 L1724.36 290.113 Q1726.12 290.946 1727.92 291.386 Q1729.73 291.826 1731.47 291.826 Q1736.1 291.826 1738.53 288.724 Q1740.98 285.599 1741.33 279.256 Q1739.98 281.247 1737.92 282.312 Q1735.86 283.377 1733.36 283.377 Q1728.18 283.377 1725.15 280.252 Q1722.14 277.104 1722.14 271.664 Q1722.14 266.34 1725.29 263.122 Q1728.43 259.905 1733.67 259.905 Q1739.66 259.905 1742.81 264.511 Q1745.98 269.094 1745.98 277.844 Q1745.98 286.016 1742.09 290.9 Q1738.23 295.761 1731.67 295.761 Q1729.92 295.761 1728.11 295.414 Q1726.3 295.066 1724.36 294.372 M1733.67 279.719 Q1736.81 279.719 1738.64 277.566 Q1740.49 275.414 1740.49 271.664 Q1740.49 267.937 1738.64 265.784 Q1736.81 263.608 1733.67 263.608 Q1730.52 263.608 1728.67 265.784 Q1726.84 267.937 1726.84 271.664 Q1726.84 275.414 1728.67 277.566 Q1730.52 279.719 1733.67 279.719 Z" fill="#000000" fill-rule="evenodd" fill-opacity="1" /><path clip-path="url(#clip460)" d="M 0 0 M1751.1 260.53 L1769.45 260.53 L1769.45 264.465 L1755.38 264.465 L1755.38 272.937 Q1756.4 272.59 1757.42 272.428 Q1758.43 272.242 1759.45 272.242 Q1765.24 272.242 1768.62 275.414 Q1772 278.585 1772 284.002 Q1772 289.58 1768.53 292.682 Q1765.05 295.761 1758.73 295.761 Q1756.56 295.761 1754.29 295.39 Q1752.04 295.02 1749.64 294.279 L1749.64 289.58 Q1751.72 290.715 1753.94 291.27 Q1756.17 291.826 1758.64 291.826 Q1762.65 291.826 1764.98 289.719 Q1767.32 287.613 1767.32 284.002 Q1767.32 280.391 1764.98 278.284 Q1762.65 276.178 1758.64 276.178 Q1756.77 276.178 1754.89 276.594 Q1753.04 277.011 1751.1 277.891 L1751.1 260.53 Z" fill="#000000" fill-rule="evenodd" fill-opacity="1" /><polyline clip-path="url(#clip460)" style="stroke:#0000ff; stroke-width:4; stroke-opacity:1; fill:none" points="
  1519.75,338.29 1670.81,338.29 
  "/>
<path clip-path="url(#clip460)" d="M 0 0 M1716.33 334.621 Q1717.92 331.75 1720.15 330.385 Q1722.37 329.019 1725.38 329.019 Q1729.43 329.019 1731.63 331.866 Q1733.83 334.69 1733.83 339.921 L1733.83 355.57 L1729.54 355.57 L1729.54 340.06 Q1729.54 336.334 1728.23 334.528 Q1726.91 332.722 1724.2 332.722 Q1720.89 332.722 1718.97 334.922 Q1717.04 337.121 1717.04 340.917 L1717.04 355.57 L1712.76 355.57 L1712.76 340.06 Q1712.76 336.31 1711.44 334.528 Q1710.12 332.722 1707.37 332.722 Q1704.11 332.722 1702.18 334.945 Q1700.26 337.144 1700.26 340.917 L1700.26 355.57 L1695.98 355.57 L1695.98 329.644 L1700.26 329.644 L1700.26 333.672 Q1701.72 331.287 1703.76 330.153 Q1705.79 329.019 1708.6 329.019 Q1711.42 329.019 1713.39 330.454 Q1715.38 331.889 1716.33 334.621 Z" fill="#000000" fill-rule="evenodd" fill-opacity="1" /><path clip-path="url(#clip460)" d="M 0 0 M1760.47 341.542 L1760.47 343.625 L1740.89 343.625 Q1741.17 348.023 1743.53 350.338 Q1745.91 352.63 1750.15 352.63 Q1752.6 352.63 1754.89 352.028 Q1757.21 351.426 1759.48 350.222 L1759.48 354.25 Q1757.18 355.222 1754.78 355.732 Q1752.37 356.241 1749.89 356.241 Q1743.69 356.241 1740.05 352.63 Q1736.44 349.019 1736.44 342.861 Q1736.44 336.496 1739.87 332.769 Q1743.32 329.019 1749.15 329.019 Q1754.38 329.019 1757.42 332.398 Q1760.47 335.755 1760.47 341.542 M1756.21 340.292 Q1756.17 336.797 1754.24 334.713 Q1752.35 332.63 1749.2 332.63 Q1745.63 332.63 1743.48 334.644 Q1741.35 336.658 1741.03 340.315 L1756.21 340.292 Z" fill="#000000" fill-rule="evenodd" fill-opacity="1" /><path clip-path="url(#clip460)" d="M 0 0 M1776.72 342.537 Q1771.56 342.537 1769.57 343.718 Q1767.58 344.898 1767.58 347.746 Q1767.58 350.014 1769.06 351.357 Q1770.56 352.676 1773.13 352.676 Q1776.67 352.676 1778.8 350.176 Q1780.96 347.653 1780.96 343.486 L1780.96 342.537 L1776.72 342.537 M1785.22 340.778 L1785.22 355.57 L1780.96 355.57 L1780.96 351.634 Q1779.5 353.995 1777.32 355.13 Q1775.15 356.241 1772 356.241 Q1768.02 356.241 1765.66 354.019 Q1763.32 351.773 1763.32 348.023 Q1763.32 343.648 1766.23 341.426 Q1769.17 339.204 1774.98 339.204 L1780.96 339.204 L1780.96 338.787 Q1780.96 335.847 1779.01 334.25 Q1777.09 332.63 1773.6 332.63 Q1771.37 332.63 1769.27 333.162 Q1767.16 333.695 1765.22 334.759 L1765.22 330.824 Q1767.55 329.922 1769.75 329.482 Q1771.95 329.019 1774.04 329.019 Q1779.66 329.019 1782.44 331.935 Q1785.22 334.852 1785.22 340.778 Z" fill="#000000" fill-rule="evenodd" fill-opacity="1" /><path clip-path="url(#clip460)" d="M 0 0 M1811.23 339.921 L1811.23 355.57 L1806.97 355.57 L1806.97 340.06 Q1806.97 336.38 1805.54 334.551 Q1804.1 332.722 1801.23 332.722 Q1797.79 332.722 1795.79 334.922 Q1793.8 337.121 1793.8 340.917 L1793.8 355.57 L1789.52 355.57 L1789.52 329.644 L1793.8 329.644 L1793.8 333.672 Q1795.33 331.334 1797.39 330.176 Q1799.48 329.019 1802.18 329.019 Q1806.65 329.019 1808.94 331.797 Q1811.23 334.551 1811.23 339.921 Z" fill="#000000" fill-rule="evenodd" fill-opacity="1" /><polyline clip-path="url(#clip460)" style="stroke:#000000; stroke-width:4; stroke-opacity:1; fill:none" points="
  1519.75,398.77 1670.81,398.77 
  "/>
<path clip-path="url(#clip460)" d="M 0 0 M1716.33 395.101 Q1717.92 392.23 1720.15 390.865 Q1722.37 389.499 1725.38 389.499 Q1729.43 389.499 1731.63 392.346 Q1733.83 395.17 1733.83 400.401 L1733.83 416.05 L1729.54 416.05 L1729.54 400.54 Q1729.54 396.814 1728.23 395.008 Q1726.91 393.202 1724.2 393.202 Q1720.89 393.202 1718.97 395.402 Q1717.04 397.601 1717.04 401.397 L1717.04 416.05 L1712.76 416.05 L1712.76 400.54 Q1712.76 396.79 1711.44 395.008 Q1710.12 393.202 1707.37 393.202 Q1704.11 393.202 1702.18 395.425 Q1700.26 397.624 1700.26 401.397 L1700.26 416.05 L1695.98 416.05 L1695.98 390.124 L1700.26 390.124 L1700.26 394.152 Q1701.72 391.767 1703.76 390.633 Q1705.79 389.499 1708.6 389.499 Q1711.42 389.499 1713.39 390.934 Q1715.38 392.369 1716.33 395.101 Z" fill="#000000" fill-rule="evenodd" fill-opacity="1" /><path clip-path="url(#clip460)" d="M 0 0 M1760.47 402.022 L1760.47 404.105 L1740.89 404.105 Q1741.17 408.503 1743.53 410.818 Q1745.91 413.11 1750.15 413.11 Q1752.6 413.11 1754.89 412.508 Q1757.21 411.906 1759.48 410.702 L1759.48 414.73 Q1757.18 415.702 1754.78 416.212 Q1752.37 416.721 1749.89 416.721 Q1743.69 416.721 1740.05 413.11 Q1736.44 409.499 1736.44 403.341 Q1736.44 396.976 1739.87 393.249 Q1743.32 389.499 1749.15 389.499 Q1754.38 389.499 1757.42 392.878 Q1760.47 396.235 1760.47 402.022 M1756.21 400.772 Q1756.17 397.277 1754.24 395.193 Q1752.35 393.11 1749.2 393.11 Q1745.63 393.11 1743.48 395.124 Q1741.35 397.138 1741.03 400.795 L1756.21 400.772 Z" fill="#000000" fill-rule="evenodd" fill-opacity="1" /><path clip-path="url(#clip460)" d="M 0 0 M1782 394.059 L1782 380.031 L1786.26 380.031 L1786.26 416.05 L1782 416.05 L1782 412.161 Q1780.66 414.475 1778.6 415.61 Q1776.56 416.721 1773.69 416.721 Q1768.99 416.721 1766.03 412.971 Q1763.09 409.221 1763.09 403.11 Q1763.09 396.999 1766.03 393.249 Q1768.99 389.499 1773.69 389.499 Q1776.56 389.499 1778.6 390.633 Q1780.66 391.744 1782 394.059 M1767.48 403.11 Q1767.48 407.809 1769.41 410.494 Q1771.35 413.156 1774.73 413.156 Q1778.11 413.156 1780.05 410.494 Q1782 407.809 1782 403.11 Q1782 398.411 1780.05 395.749 Q1778.11 393.064 1774.73 393.064 Q1771.35 393.064 1769.41 395.749 Q1767.48 398.411 1767.48 403.11 Z" fill="#000000" fill-rule="evenodd" fill-opacity="1" /><path clip-path="url(#clip460)" d="M 0 0 M1790.73 390.124 L1794.98 390.124 L1794.98 416.05 L1790.73 416.05 L1790.73 390.124 M1790.73 380.031 L1794.98 380.031 L1794.98 385.425 L1790.73 385.425 L1790.73 380.031 Z" fill="#000000" fill-rule="evenodd" fill-opacity="1" /><path clip-path="url(#clip460)" d="M 0 0 M1811.23 403.017 Q1806.07 403.017 1804.08 404.198 Q1802.09 405.378 1802.09 408.226 Q1802.09 410.494 1803.57 411.837 Q1805.08 413.156 1807.65 413.156 Q1811.19 413.156 1813.32 410.656 Q1815.47 408.133 1815.47 403.966 L1815.47 403.017 L1811.23 403.017 M1819.73 401.258 L1819.73 416.05 L1815.47 416.05 L1815.47 412.114 Q1814.01 414.475 1811.84 415.61 Q1809.66 416.721 1806.51 416.721 Q1802.53 416.721 1800.17 414.499 Q1797.83 412.253 1797.83 408.503 Q1797.83 404.128 1800.75 401.906 Q1803.69 399.684 1809.5 399.684 L1815.47 399.684 L1815.47 399.267 Q1815.47 396.327 1813.53 394.73 Q1811.6 393.11 1808.11 393.11 Q1805.89 393.11 1803.78 393.642 Q1801.67 394.175 1799.73 395.239 L1799.73 391.304 Q1802.07 390.402 1804.27 389.962 Q1806.47 389.499 1808.55 389.499 Q1814.17 389.499 1816.95 392.415 Q1819.73 395.332 1819.73 401.258 Z" fill="#000000" fill-rule="evenodd" fill-opacity="1" /><path clip-path="url(#clip460)" d="M 0 0 M1845.75 400.401 L1845.75 416.05 L1841.49 416.05 L1841.49 400.54 Q1841.49 396.86 1840.05 395.031 Q1838.62 393.202 1835.75 393.202 Q1832.3 393.202 1830.31 395.402 Q1828.32 397.601 1828.32 401.397 L1828.32 416.05 L1824.04 416.05 L1824.04 390.124 L1828.32 390.124 L1828.32 394.152 Q1829.85 391.814 1831.91 390.656 Q1833.99 389.499 1836.7 389.499 Q1841.16 389.499 1843.46 392.277 Q1845.75 395.031 1845.75 400.401 Z" fill="#000000" fill-rule="evenodd" fill-opacity="1" /></svg>
