<?xml version="1.0" encoding="utf-8"?>
<svg xmlns="http://www.w3.org/2000/svg" xmlns:xlink="http://www.w3.org/1999/xlink" width="600" height="400" viewBox="0 0 2400 1600">
<defs>
  <clipPath id="clip960">
    <rect x="0" y="0" width="2400" height="1600"/>
  </clipPath>
</defs>
<path clip-path="url(#clip960)" d="
M0 1600 L2400 1600 L2400 0 L0 0  Z
  " fill="#ffffff" fill-rule="evenodd" fill-opacity="1"/>
<defs>
  <clipPath id="clip961">
    <rect x="480" y="0" width="1681" height="1600"/>
  </clipPath>
</defs>
<path clip-path="url(#clip960)" d="
M86.9921 1521.01 L2352.76 1521.01 L2352.76 47.2441 L86.9921 47.2441  Z
  " fill="#ffffff" fill-rule="evenodd" fill-opacity="1"/>
<defs>
  <clipPath id="clip962">
    <rect x="86" y="47" width="2267" height="1475"/>
  </clipPath>
</defs>
<polyline clip-path="url(#clip962)" style="stroke:#000000; stroke-width:2; stroke-opacity:0.1; fill:none" points="
  396.384,1521.01 396.384,47.2441 
  "/>
<polyline clip-path="url(#clip962)" style="stroke:#000000; stroke-width:2; stroke-opacity:0.1; fill:none" points="
  764.414,1521.01 764.414,47.2441 
  "/>
<polyline clip-path="url(#clip962)" style="stroke:#000000; stroke-width:2; stroke-opacity:0.1; fill:none" points="
  1132.44,1521.01 1132.44,47.2441 
  "/>
<polyline clip-path="url(#clip962)" style="stroke:#000000; stroke-width:2; stroke-opacity:0.1; fill:none" points="
  1500.47,1521.01 1500.47,47.2441 
  "/>
<polyline clip-path="url(#clip962)" style="stroke:#000000; stroke-width:2; stroke-opacity:0.1; fill:none" points="
  1868.51,1521.01 1868.51,47.2441 
  "/>
<polyline clip-path="url(#clip962)" style="stroke:#000000; stroke-width:2; stroke-opacity:0.1; fill:none" points="
  2236.54,1521.01 2236.54,47.2441 
  "/>
<polyline clip-path="url(#clip962)" style="stroke:#000000; stroke-width:2; stroke-opacity:0.1; fill:none" points="
  86.9921,1479.3 2352.76,1479.3 
  "/>
<polyline clip-path="url(#clip962)" style="stroke:#000000; stroke-width:2; stroke-opacity:0.1; fill:none" points="
  86.9921,1187.91 2352.76,1187.91 
  "/>
<polyline clip-path="url(#clip962)" style="stroke:#000000; stroke-width:2; stroke-opacity:0.1; fill:none" points="
  86.9921,896.525 2352.76,896.525 
  "/>
<polyline clip-path="url(#clip962)" style="stroke:#000000; stroke-width:2; stroke-opacity:0.1; fill:none" points="
  86.9921,605.139 2352.76,605.139 
  "/>
<polyline clip-path="url(#clip962)" style="stroke:#000000; stroke-width:2; stroke-opacity:0.1; fill:none" points="
  86.9921,313.753 2352.76,313.753 
  "/>
<polyline clip-path="url(#clip960)" style="stroke:#000000; stroke-width:4; stroke-opacity:1; fill:none" points="
  86.9921,1521.01 2352.76,1521.01 
  "/>
<polyline clip-path="url(#clip960)" style="stroke:#000000; stroke-width:4; stroke-opacity:1; fill:none" points="
  86.9921,1521.01 86.9921,47.2441 
  "/>
<polyline clip-path="url(#clip960)" style="stroke:#000000; stroke-width:4; stroke-opacity:1; fill:none" points="
  396.384,1521.01 396.384,1503.32 
  "/>
<polyline clip-path="url(#clip960)" style="stroke:#000000; stroke-width:4; stroke-opacity:1; fill:none" points="
  764.414,1521.01 764.414,1503.32 
  "/>
<polyline clip-path="url(#clip960)" style="stroke:#000000; stroke-width:4; stroke-opacity:1; fill:none" points="
  1132.44,1521.01 1132.44,1503.32 
  "/>
<polyline clip-path="url(#clip960)" style="stroke:#000000; stroke-width:4; stroke-opacity:1; fill:none" points="
  1500.47,1521.01 1500.47,1503.32 
  "/>
<polyline clip-path="url(#clip960)" style="stroke:#000000; stroke-width:4; stroke-opacity:1; fill:none" points="
  1868.51,1521.01 1868.51,1503.32 
  "/>
<polyline clip-path="url(#clip960)" style="stroke:#000000; stroke-width:4; stroke-opacity:1; fill:none" points="
  2236.54,1521.01 2236.54,1503.32 
  "/>
<polyline clip-path="url(#clip960)" style="stroke:#000000; stroke-width:4; stroke-opacity:1; fill:none" points="
  86.9921,1479.3 114.181,1479.3 
  "/>
<polyline clip-path="url(#clip960)" style="stroke:#000000; stroke-width:4; stroke-opacity:1; fill:none" points="
  86.9921,1187.91 114.181,1187.91 
  "/>
<polyline clip-path="url(#clip960)" style="stroke:#000000; stroke-width:4; stroke-opacity:1; fill:none" points="
  86.9921,896.525 114.181,896.525 
  "/>
<polyline clip-path="url(#clip960)" style="stroke:#000000; stroke-width:4; stroke-opacity:1; fill:none" points="
  86.9921,605.139 114.181,605.139 
  "/>
<polyline clip-path="url(#clip960)" style="stroke:#000000; stroke-width:4; stroke-opacity:1; fill:none" points="
  86.9921,313.753 114.181,313.753 
  "/>
<path clip-path="url(#clip960)" d="M 0 0 M364.937 1543 Q361.326 1543 359.497 1546.56 Q357.692 1550.11 357.692 1557.23 Q357.692 1564.34 359.497 1567.91 Q361.326 1571.45 364.937 1571.45 Q368.571 1571.45 370.377 1567.91 Q372.206 1564.34 372.206 1557.23 Q372.206 1550.11 370.377 1546.56 Q368.571 1543 364.937 1543 M364.937 1539.29 Q370.747 1539.29 373.803 1543.9 Q376.882 1548.48 376.882 1557.23 Q376.882 1565.96 373.803 1570.57 Q370.747 1575.15 364.937 1575.15 Q359.127 1575.15 356.048 1570.57 Q352.993 1565.96 352.993 1557.23 Q352.993 1548.48 356.048 1543.9 Q359.127 1539.29 364.937 1539.29 Z" fill="#000000" fill-rule="evenodd" fill-opacity="1" /><path clip-path="url(#clip960)" d="M 0 0 M381.951 1568.6 L386.835 1568.6 L386.835 1574.48 L381.951 1574.48 L381.951 1568.6 Z" fill="#000000" fill-rule="evenodd" fill-opacity="1" /><path clip-path="url(#clip960)" d="M 0 0 M401.905 1558.07 Q398.571 1558.07 396.65 1559.85 Q394.752 1561.63 394.752 1564.76 Q394.752 1567.88 396.65 1569.67 Q398.571 1571.45 401.905 1571.45 Q405.238 1571.45 407.159 1569.67 Q409.08 1567.86 409.08 1564.76 Q409.08 1561.63 407.159 1559.85 Q405.261 1558.07 401.905 1558.07 M397.229 1556.08 Q394.219 1555.34 392.53 1553.28 Q390.863 1551.22 390.863 1548.25 Q390.863 1544.11 393.803 1541.7 Q396.766 1539.29 401.905 1539.29 Q407.067 1539.29 410.006 1541.7 Q412.946 1544.11 412.946 1548.25 Q412.946 1551.22 411.256 1553.28 Q409.59 1555.34 406.604 1556.08 Q409.983 1556.86 411.858 1559.16 Q413.756 1561.45 413.756 1564.76 Q413.756 1569.78 410.678 1572.47 Q407.622 1575.15 401.905 1575.15 Q396.187 1575.15 393.108 1572.47 Q390.053 1569.78 390.053 1564.76 Q390.053 1561.45 391.951 1559.16 Q393.849 1556.86 397.229 1556.08 M395.516 1548.69 Q395.516 1551.38 397.182 1552.88 Q398.872 1554.39 401.905 1554.39 Q404.914 1554.39 406.604 1552.88 Q408.317 1551.38 408.317 1548.69 Q408.317 1546.01 406.604 1544.5 Q404.914 1543 401.905 1543 Q398.872 1543 397.182 1544.5 Q395.516 1546.01 395.516 1548.69 Z" fill="#000000" fill-rule="evenodd" fill-opacity="1" /><path clip-path="url(#clip960)" d="M 0 0 M418.872 1539.92 L437.228 1539.92 L437.228 1543.86 L423.154 1543.86 L423.154 1552.33 Q424.173 1551.98 425.192 1551.82 Q426.21 1551.63 427.229 1551.63 Q433.016 1551.63 436.395 1554.8 Q439.775 1557.98 439.775 1563.39 Q439.775 1568.97 436.303 1572.07 Q432.83 1575.15 426.511 1575.15 Q424.335 1575.15 422.067 1574.78 Q419.821 1574.41 417.414 1573.67 L417.414 1568.97 Q419.497 1570.1 421.719 1570.66 Q423.942 1571.22 426.418 1571.22 Q430.423 1571.22 432.761 1569.11 Q435.099 1567 435.099 1563.39 Q435.099 1559.78 432.761 1557.67 Q430.423 1555.57 426.418 1555.57 Q424.543 1555.57 422.668 1555.98 Q420.817 1556.4 418.872 1557.28 L418.872 1539.92 Z" fill="#000000" fill-rule="evenodd" fill-opacity="1" /><path clip-path="url(#clip960)" d="M 0 0 M732.516 1543 Q728.905 1543 727.076 1546.56 Q725.271 1550.11 725.271 1557.23 Q725.271 1564.34 727.076 1567.91 Q728.905 1571.45 732.516 1571.45 Q736.15 1571.45 737.956 1567.91 Q739.785 1564.34 739.785 1557.23 Q739.785 1550.11 737.956 1546.56 Q736.15 1543 732.516 1543 M732.516 1539.29 Q738.326 1539.29 741.382 1543.9 Q744.461 1548.48 744.461 1557.23 Q744.461 1565.96 741.382 1570.57 Q738.326 1575.15 732.516 1575.15 Q726.706 1575.15 723.627 1570.57 Q720.572 1565.96 720.572 1557.23 Q720.572 1548.48 723.627 1543.9 Q726.706 1539.29 732.516 1539.29 Z" fill="#000000" fill-rule="evenodd" fill-opacity="1" /><path clip-path="url(#clip960)" d="M 0 0 M749.53 1568.6 L754.414 1568.6 L754.414 1574.48 L749.53 1574.48 L749.53 1568.6 Z" fill="#000000" fill-rule="evenodd" fill-opacity="1" /><path clip-path="url(#clip960)" d="M 0 0 M759.623 1573.76 L759.623 1569.5 Q761.382 1570.34 763.187 1570.78 Q764.993 1571.22 766.729 1571.22 Q771.359 1571.22 773.789 1568.11 Q776.243 1564.99 776.59 1558.65 Q775.247 1560.64 773.187 1561.7 Q771.127 1562.77 768.627 1562.77 Q763.442 1562.77 760.41 1559.64 Q757.4 1556.49 757.4 1551.05 Q757.4 1545.73 760.548 1542.51 Q763.697 1539.29 768.928 1539.29 Q774.923 1539.29 778.072 1543.9 Q781.243 1548.48 781.243 1557.23 Q781.243 1565.41 777.354 1570.29 Q773.488 1575.15 766.937 1575.15 Q765.178 1575.15 763.373 1574.8 Q761.567 1574.46 759.623 1573.76 M768.928 1559.11 Q772.076 1559.11 773.905 1556.96 Q775.757 1554.8 775.757 1551.05 Q775.757 1547.33 773.905 1545.17 Q772.076 1543 768.928 1543 Q765.78 1543 763.928 1545.17 Q762.099 1547.33 762.099 1551.05 Q762.099 1554.8 763.928 1556.96 Q765.78 1559.11 768.928 1559.11 Z" fill="#000000" fill-rule="evenodd" fill-opacity="1" /><path clip-path="url(#clip960)" d="M 0 0 M796.312 1543 Q792.701 1543 790.872 1546.56 Q789.067 1550.11 789.067 1557.23 Q789.067 1564.34 790.872 1567.91 Q792.701 1571.45 796.312 1571.45 Q799.946 1571.45 801.752 1567.91 Q803.581 1564.34 803.581 1557.23 Q803.581 1550.11 801.752 1546.56 Q799.946 1543 796.312 1543 M796.312 1539.29 Q802.122 1539.29 805.178 1543.9 Q808.257 1548.48 808.257 1557.23 Q808.257 1565.96 805.178 1570.57 Q802.122 1575.15 796.312 1575.15 Q790.502 1575.15 787.423 1570.57 Q784.368 1565.96 784.368 1557.23 Q784.368 1548.48 787.423 1543.9 Q790.502 1539.29 796.312 1539.29 Z" fill="#000000" fill-rule="evenodd" fill-opacity="1" /><path clip-path="url(#clip960)" d="M 0 0 M1101.04 1543 Q1097.43 1543 1095.6 1546.56 Q1093.8 1550.11 1093.8 1557.23 Q1093.8 1564.34 1095.6 1567.91 Q1097.43 1571.45 1101.04 1571.45 Q1104.68 1571.45 1106.48 1567.91 Q1108.31 1564.34 1108.31 1557.23 Q1108.31 1550.11 1106.48 1546.56 Q1104.68 1543 1101.04 1543 M1101.04 1539.29 Q1106.85 1539.29 1109.91 1543.9 Q1112.99 1548.48 1112.99 1557.23 Q1112.99 1565.96 1109.91 1570.57 Q1106.85 1575.15 1101.04 1575.15 Q1095.23 1575.15 1092.16 1570.57 Q1089.1 1565.96 1089.1 1557.23 Q1089.1 1548.48 1092.16 1543.9 Q1095.23 1539.29 1101.04 1539.29 Z" fill="#000000" fill-rule="evenodd" fill-opacity="1" /><path clip-path="url(#clip960)" d="M 0 0 M1118.06 1568.6 L1122.94 1568.6 L1122.94 1574.48 L1118.06 1574.48 L1118.06 1568.6 Z" fill="#000000" fill-rule="evenodd" fill-opacity="1" /><path clip-path="url(#clip960)" d="M 0 0 M1128.15 1573.76 L1128.15 1569.5 Q1129.91 1570.34 1131.72 1570.78 Q1133.52 1571.22 1135.26 1571.22 Q1139.89 1571.22 1142.32 1568.11 Q1144.77 1564.99 1145.12 1558.65 Q1143.78 1560.64 1141.72 1561.7 Q1139.66 1562.77 1137.16 1562.77 Q1131.97 1562.77 1128.94 1559.64 Q1125.93 1556.49 1125.93 1551.05 Q1125.93 1545.73 1129.08 1542.51 Q1132.22 1539.29 1137.46 1539.29 Q1143.45 1539.29 1146.6 1543.9 Q1149.77 1548.48 1149.77 1557.23 Q1149.77 1565.41 1145.88 1570.29 Q1142.02 1575.15 1135.47 1575.15 Q1133.71 1575.15 1131.9 1574.8 Q1130.1 1574.46 1128.15 1573.76 M1137.46 1559.11 Q1140.6 1559.11 1142.43 1556.96 Q1144.28 1554.8 1144.28 1551.05 Q1144.28 1547.33 1142.43 1545.17 Q1140.6 1543 1137.46 1543 Q1134.31 1543 1132.46 1545.17 Q1130.63 1547.33 1130.63 1551.05 Q1130.63 1554.8 1132.46 1556.96 Q1134.31 1559.11 1137.46 1559.11 Z" fill="#000000" fill-rule="evenodd" fill-opacity="1" /><path clip-path="url(#clip960)" d="M 0 0 M1154.89 1539.92 L1173.24 1539.92 L1173.24 1543.86 L1159.17 1543.86 L1159.17 1552.33 Q1160.19 1551.98 1161.21 1551.82 Q1162.22 1551.63 1163.24 1551.63 Q1169.03 1551.63 1172.41 1554.8 Q1175.79 1557.98 1175.79 1563.39 Q1175.79 1568.97 1172.32 1572.07 Q1168.84 1575.15 1162.53 1575.15 Q1160.35 1575.15 1158.08 1574.78 Q1155.84 1574.41 1153.43 1573.67 L1153.43 1568.97 Q1155.51 1570.1 1157.73 1570.66 Q1159.96 1571.22 1162.43 1571.22 Q1166.44 1571.22 1168.78 1569.11 Q1171.11 1567 1171.11 1563.39 Q1171.11 1559.78 1168.78 1557.67 Q1166.44 1555.57 1162.43 1555.57 Q1160.56 1555.57 1158.68 1555.98 Q1156.83 1556.4 1154.89 1557.28 L1154.89 1539.92 Z" fill="#000000" fill-rule="evenodd" fill-opacity="1" /><path clip-path="url(#clip960)" d="M 0 0 M1458.87 1570.54 L1466.51 1570.54 L1466.51 1544.18 L1458.2 1545.85 L1458.2 1541.59 L1466.46 1539.92 L1471.13 1539.92 L1471.13 1570.54 L1478.77 1570.54 L1478.77 1574.48 L1458.87 1574.48 L1458.87 1570.54 Z" fill="#000000" fill-rule="evenodd" fill-opacity="1" /><path clip-path="url(#clip960)" d="M 0 0 M1483.84 1568.6 L1488.73 1568.6 L1488.73 1574.48 L1483.84 1574.48 L1483.84 1568.6 Z" fill="#000000" fill-rule="evenodd" fill-opacity="1" /><path clip-path="url(#clip960)" d="M 0 0 M1503.8 1543 Q1500.19 1543 1498.36 1546.56 Q1496.55 1550.11 1496.55 1557.23 Q1496.55 1564.34 1498.36 1567.91 Q1500.19 1571.45 1503.8 1571.45 Q1507.43 1571.45 1509.24 1567.91 Q1511.07 1564.34 1511.07 1557.23 Q1511.07 1550.11 1509.24 1546.56 Q1507.43 1543 1503.8 1543 M1503.8 1539.29 Q1509.61 1539.29 1512.66 1543.9 Q1515.74 1548.48 1515.74 1557.23 Q1515.74 1565.96 1512.66 1570.57 Q1509.61 1575.15 1503.8 1575.15 Q1497.99 1575.15 1494.91 1570.57 Q1491.85 1565.96 1491.85 1557.23 Q1491.85 1548.48 1494.91 1543.9 Q1497.99 1539.29 1503.8 1539.29 Z" fill="#000000" fill-rule="evenodd" fill-opacity="1" /><path clip-path="url(#clip960)" d="M 0 0 M1530.81 1543 Q1527.2 1543 1525.37 1546.56 Q1523.57 1550.11 1523.57 1557.23 Q1523.57 1564.34 1525.37 1567.91 Q1527.2 1571.45 1530.81 1571.45 Q1534.44 1571.45 1536.25 1567.91 Q1538.08 1564.34 1538.08 1557.23 Q1538.08 1550.11 1536.25 1546.56 Q1534.44 1543 1530.81 1543 M1530.81 1539.29 Q1536.62 1539.29 1539.68 1543.9 Q1542.75 1548.48 1542.75 1557.23 Q1542.75 1565.96 1539.68 1570.57 Q1536.62 1575.15 1530.81 1575.15 Q1525 1575.15 1521.92 1570.57 Q1518.87 1565.96 1518.87 1557.23 Q1518.87 1548.48 1521.92 1543.9 Q1525 1539.29 1530.81 1539.29 Z" fill="#000000" fill-rule="evenodd" fill-opacity="1" /><path clip-path="url(#clip960)" d="M 0 0 M1827.39 1570.54 L1835.03 1570.54 L1835.03 1544.18 L1826.72 1545.85 L1826.72 1541.59 L1834.99 1539.92 L1839.66 1539.92 L1839.66 1570.54 L1847.3 1570.54 L1847.3 1574.48 L1827.39 1574.48 L1827.39 1570.54 Z" fill="#000000" fill-rule="evenodd" fill-opacity="1" /><path clip-path="url(#clip960)" d="M 0 0 M1852.37 1568.6 L1857.26 1568.6 L1857.26 1574.48 L1852.37 1574.48 L1852.37 1568.6 Z" fill="#000000" fill-rule="evenodd" fill-opacity="1" /><path clip-path="url(#clip960)" d="M 0 0 M1872.32 1543 Q1868.71 1543 1866.88 1546.56 Q1865.08 1550.11 1865.08 1557.23 Q1865.08 1564.34 1866.88 1567.91 Q1868.71 1571.45 1872.32 1571.45 Q1875.96 1571.45 1877.76 1567.91 Q1879.59 1564.34 1879.59 1557.23 Q1879.59 1550.11 1877.76 1546.56 Q1875.96 1543 1872.32 1543 M1872.32 1539.29 Q1878.13 1539.29 1881.19 1543.9 Q1884.27 1548.48 1884.27 1557.23 Q1884.27 1565.96 1881.19 1570.57 Q1878.13 1575.15 1872.32 1575.15 Q1866.51 1575.15 1863.44 1570.57 Q1860.38 1565.96 1860.38 1557.23 Q1860.38 1548.48 1863.44 1543.9 Q1866.51 1539.29 1872.32 1539.29 Z" fill="#000000" fill-rule="evenodd" fill-opacity="1" /><path clip-path="url(#clip960)" d="M 0 0 M1889.38 1539.92 L1907.74 1539.92 L1907.74 1543.86 L1893.67 1543.86 L1893.67 1552.33 Q1894.69 1551.98 1895.7 1551.82 Q1896.72 1551.63 1897.74 1551.63 Q1903.53 1551.63 1906.91 1554.8 Q1910.29 1557.98 1910.29 1563.39 Q1910.29 1568.97 1906.82 1572.07 Q1903.34 1575.15 1897.02 1575.15 Q1894.85 1575.15 1892.58 1574.78 Q1890.33 1574.41 1887.93 1573.67 L1887.93 1568.97 Q1890.01 1570.1 1892.23 1570.66 Q1894.45 1571.22 1896.93 1571.22 Q1900.94 1571.22 1903.27 1569.11 Q1905.61 1567 1905.61 1563.39 Q1905.61 1559.78 1903.27 1557.67 Q1900.94 1555.57 1896.93 1555.57 Q1895.06 1555.57 1893.18 1555.98 Q1891.33 1556.4 1889.38 1557.28 L1889.38 1539.92 Z" fill="#000000" fill-rule="evenodd" fill-opacity="1" /><path clip-path="url(#clip960)" d="M 0 0 M2195.54 1570.54 L2203.18 1570.54 L2203.18 1544.18 L2194.87 1545.85 L2194.87 1541.59 L2203.13 1539.92 L2207.81 1539.92 L2207.81 1570.54 L2215.45 1570.54 L2215.45 1574.48 L2195.54 1574.48 L2195.54 1570.54 Z" fill="#000000" fill-rule="evenodd" fill-opacity="1" /><path clip-path="url(#clip960)" d="M 0 0 M2220.52 1568.6 L2225.4 1568.6 L2225.4 1574.48 L2220.52 1574.48 L2220.52 1568.6 Z" fill="#000000" fill-rule="evenodd" fill-opacity="1" /><path clip-path="url(#clip960)" d="M 0 0 M2231.28 1570.54 L2238.92 1570.54 L2238.92 1544.18 L2230.61 1545.85 L2230.61 1541.59 L2238.87 1539.92 L2243.55 1539.92 L2243.55 1570.54 L2251.19 1570.54 L2251.19 1574.48 L2231.28 1574.48 L2231.28 1570.54 Z" fill="#000000" fill-rule="evenodd" fill-opacity="1" /><path clip-path="url(#clip960)" d="M 0 0 M2266.26 1543 Q2262.65 1543 2260.82 1546.56 Q2259.01 1550.11 2259.01 1557.23 Q2259.01 1564.34 2260.82 1567.91 Q2262.65 1571.45 2266.26 1571.45 Q2269.89 1571.45 2271.7 1567.91 Q2273.53 1564.34 2273.53 1557.23 Q2273.53 1550.11 2271.7 1546.56 Q2269.89 1543 2266.26 1543 M2266.26 1539.29 Q2272.07 1539.29 2275.12 1543.9 Q2278.2 1548.48 2278.2 1557.23 Q2278.2 1565.96 2275.12 1570.57 Q2272.07 1575.15 2266.26 1575.15 Q2260.45 1575.15 2257.37 1570.57 Q2254.31 1565.96 2254.31 1557.23 Q2254.31 1548.48 2257.37 1543.9 Q2260.45 1539.29 2266.26 1539.29 Z" fill="#000000" fill-rule="evenodd" fill-opacity="1" /><path clip-path="url(#clip960)" d="M 0 0 M14.0804 1465.1 Q10.4693 1465.1 8.64057 1468.66 Q6.83502 1472.2 6.83502 1479.33 Q6.83502 1486.44 8.64057 1490 Q10.4693 1493.55 14.0804 1493.55 Q17.7146 1493.55 19.5201 1490 Q21.3488 1486.44 21.3488 1479.33 Q21.3488 1472.2 19.5201 1468.66 Q17.7146 1465.1 14.0804 1465.1 M14.0804 1461.39 Q19.8905 1461.39 22.946 1466 Q26.0247 1470.58 26.0247 1479.33 Q26.0247 1488.06 22.946 1492.67 Q19.8905 1497.25 14.0804 1497.25 Q8.2702 1497.25 5.19151 1492.67 Q2.13597 1488.06 2.13597 1479.33 Q2.13597 1470.58 5.19151 1466 Q8.2702 1461.39 14.0804 1461.39 Z" fill="#000000" fill-rule="evenodd" fill-opacity="1" /><path clip-path="url(#clip960)" d="M 0 0 M31.0941 1490.7 L35.9784 1490.7 L35.9784 1496.58 L31.0941 1496.58 L31.0941 1490.7 Z" fill="#000000" fill-rule="evenodd" fill-opacity="1" /><path clip-path="url(#clip960)" d="M 0 0 M51.0477 1465.1 Q47.4367 1465.1 45.608 1468.66 Q43.8024 1472.2 43.8024 1479.33 Q43.8024 1486.44 45.608 1490 Q47.4367 1493.55 51.0477 1493.55 Q54.682 1493.55 56.4875 1490 Q58.3162 1486.44 58.3162 1479.33 Q58.3162 1472.2 56.4875 1468.66 Q54.682 1465.1 51.0477 1465.1 M51.0477 1461.39 Q56.8579 1461.39 59.9134 1466 Q62.9921 1470.58 62.9921 1479.33 Q62.9921 1488.06 59.9134 1492.67 Q56.8579 1497.25 51.0477 1497.25 Q45.2376 1497.25 42.1589 1492.67 Q39.1034 1488.06 39.1034 1479.33 Q39.1034 1470.58 42.1589 1466 Q45.2376 1461.39 51.0477 1461.39 Z" fill="#000000" fill-rule="evenodd" fill-opacity="1" /><path clip-path="url(#clip960)" d="M 0 0 M10.7007 1201.26 L27.0201 1201.26 L27.0201 1205.19 L5.07577 1205.19 L5.07577 1201.26 Q7.73779 1198.5 12.3211 1193.87 Q16.9276 1189.22 18.1081 1187.88 Q20.3535 1185.35 21.2331 1183.62 Q22.1359 1181.86 22.1359 1180.17 Q22.1359 1177.41 20.1914 1175.68 Q18.2701 1173.94 15.1683 1173.94 Q12.9692 1173.94 10.5156 1174.71 Q8.08501 1175.47 5.30725 1177.02 L5.30725 1172.3 Q8.13131 1171.16 10.585 1170.59 Q13.0387 1170.01 15.0757 1170.01 Q20.4461 1170.01 23.6405 1172.69 Q26.8349 1175.38 26.8349 1179.87 Q26.8349 1182 26.0247 1183.92 Q25.2377 1185.82 23.1312 1188.41 Q22.5525 1189.08 19.4507 1192.3 Q16.3489 1195.49 10.7007 1201.26 Z" fill="#000000" fill-rule="evenodd" fill-opacity="1" /><path clip-path="url(#clip960)" d="M 0 0 M32.0895 1199.31 L36.9737 1199.31 L36.9737 1205.19 L32.0895 1205.19 L32.0895 1199.31 Z" fill="#000000" fill-rule="evenodd" fill-opacity="1" /><path clip-path="url(#clip960)" d="M 0 0 M42.0895 1170.63 L60.4458 1170.63 L60.4458 1174.57 L46.3718 1174.57 L46.3718 1183.04 Q47.3904 1182.69 48.4089 1182.53 Q49.4274 1182.34 50.4459 1182.34 Q56.2329 1182.34 59.6125 1185.52 Q62.9921 1188.69 62.9921 1194.1 Q62.9921 1199.68 59.5199 1202.78 Q56.0477 1205.86 49.7283 1205.86 Q47.5524 1205.86 45.2839 1205.49 Q43.0385 1205.12 40.6311 1204.38 L40.6311 1199.68 Q42.7145 1200.82 44.9367 1201.37 Q47.1589 1201.93 49.6357 1201.93 Q53.6403 1201.93 55.9783 1199.82 Q58.3162 1197.71 58.3162 1194.1 Q58.3162 1190.49 55.9783 1188.39 Q53.6403 1186.28 49.6357 1186.28 Q47.7607 1186.28 45.8857 1186.7 Q44.0339 1187.11 42.0895 1187.99 L42.0895 1170.63 Z" fill="#000000" fill-rule="evenodd" fill-opacity="1" /><path clip-path="url(#clip960)" d="M 0 0 M5.12207 879.245 L23.4784 879.245 L23.4784 883.18 L9.40445 883.18 L9.40445 891.653 Q10.423 891.305 11.4415 891.143 Q12.46 890.958 13.4785 890.958 Q19.2655 890.958 22.6451 894.129 Q26.0247 897.301 26.0247 902.717 Q26.0247 908.296 22.5525 911.398 Q19.0803 914.477 12.7609 914.477 Q10.585 914.477 8.31649 914.106 Q6.07113 913.736 3.66374 912.995 L3.66374 908.296 Q5.74706 909.43 7.96927 909.986 Q10.1915 910.541 12.6683 910.541 Q16.6729 910.541 19.0109 908.435 Q21.3488 906.328 21.3488 902.717 Q21.3488 899.106 19.0109 897 Q16.6729 894.893 12.6683 894.893 Q10.7933 894.893 8.91834 895.31 Q7.0665 895.727 5.12207 896.606 L5.12207 879.245 Z" fill="#000000" fill-rule="evenodd" fill-opacity="1" /><path clip-path="url(#clip960)" d="M 0 0 M31.0941 907.926 L35.9784 907.926 L35.9784 913.805 L31.0941 913.805 L31.0941 907.926 Z" fill="#000000" fill-rule="evenodd" fill-opacity="1" /><path clip-path="url(#clip960)" d="M 0 0 M51.0477 882.324 Q47.4367 882.324 45.608 885.889 Q43.8024 889.43 43.8024 896.56 Q43.8024 903.666 45.608 907.231 Q47.4367 910.773 51.0477 910.773 Q54.682 910.773 56.4875 907.231 Q58.3162 903.666 58.3162 896.56 Q58.3162 889.43 56.4875 885.889 Q54.682 882.324 51.0477 882.324 M51.0477 878.62 Q56.8579 878.62 59.9134 883.227 Q62.9921 887.81 62.9921 896.56 Q62.9921 905.287 59.9134 909.893 Q56.8579 914.477 51.0477 914.477 Q45.2376 914.477 42.1589 909.893 Q39.1034 905.287 39.1034 896.56 Q39.1034 887.81 42.1589 883.227 Q45.2376 878.62 51.0477 878.62 Z" fill="#000000" fill-rule="evenodd" fill-opacity="1" /><path clip-path="url(#clip960)" d="M 0 0 M4.79799 587.859 L27.0201 587.859 L27.0201 589.85 L14.4739 622.419 L9.58963 622.419 L21.3951 591.794 L4.79799 591.794 L4.79799 587.859 Z" fill="#000000" fill-rule="evenodd" fill-opacity="1" /><path clip-path="url(#clip960)" d="M 0 0 M32.0895 616.54 L36.9737 616.54 L36.9737 622.419 L32.0895 622.419 L32.0895 616.54 Z" fill="#000000" fill-rule="evenodd" fill-opacity="1" /><path clip-path="url(#clip960)" d="M 0 0 M42.0895 587.859 L60.4458 587.859 L60.4458 591.794 L46.3718 591.794 L46.3718 600.267 Q47.3904 599.919 48.4089 599.757 Q49.4274 599.572 50.4459 599.572 Q56.2329 599.572 59.6125 602.743 Q62.9921 605.915 62.9921 611.331 Q62.9921 616.91 59.5199 620.012 Q56.0477 623.09 49.7283 623.09 Q47.5524 623.09 45.2839 622.72 Q43.0385 622.35 40.6311 621.609 L40.6311 616.91 Q42.7145 618.044 44.9367 618.6 Q47.1589 619.155 49.6357 619.155 Q53.6403 619.155 55.9783 617.049 Q58.3162 614.942 58.3162 611.331 Q58.3162 607.72 55.9783 605.614 Q53.6403 603.507 49.6357 603.507 Q47.7607 603.507 45.8857 603.924 Q44.0339 604.341 42.0895 605.22 L42.0895 587.859 Z" fill="#000000" fill-rule="evenodd" fill-opacity="1" /><path clip-path="url(#clip960)" d="M 0 0 M-20.8963 327.098 L-13.2575 327.098 L-13.2575 300.732 L-21.5676 302.399 L-21.5676 298.14 L-13.3038 296.473 L-8.62786 296.473 L-8.62786 327.098 L-0.989013 327.098 L-0.989013 331.033 L-20.8963 331.033 L-20.8963 327.098 Z" fill="#000000" fill-rule="evenodd" fill-opacity="1" /><path clip-path="url(#clip960)" d="M 0 0 M14.0804 299.552 Q10.4693 299.552 8.64057 303.117 Q6.83502 306.658 6.83502 313.788 Q6.83502 320.894 8.64057 324.459 Q10.4693 328.001 14.0804 328.001 Q17.7146 328.001 19.5201 324.459 Q21.3488 320.894 21.3488 313.788 Q21.3488 306.658 19.5201 303.117 Q17.7146 299.552 14.0804 299.552 M14.0804 295.848 Q19.8905 295.848 22.946 300.454 Q26.0247 305.038 26.0247 313.788 Q26.0247 322.515 22.946 327.121 Q19.8905 331.704 14.0804 331.704 Q8.2702 331.704 5.19151 327.121 Q2.13597 322.515 2.13597 313.788 Q2.13597 305.038 5.19151 300.454 Q8.2702 295.848 14.0804 295.848 Z" fill="#000000" fill-rule="evenodd" fill-opacity="1" /><path clip-path="url(#clip960)" d="M 0 0 M31.0941 325.153 L35.9784 325.153 L35.9784 331.033 L31.0941 331.033 L31.0941 325.153 Z" fill="#000000" fill-rule="evenodd" fill-opacity="1" /><path clip-path="url(#clip960)" d="M 0 0 M51.0477 299.552 Q47.4367 299.552 45.608 303.117 Q43.8024 306.658 43.8024 313.788 Q43.8024 320.894 45.608 324.459 Q47.4367 328.001 51.0477 328.001 Q54.682 328.001 56.4875 324.459 Q58.3162 320.894 58.3162 313.788 Q58.3162 306.658 56.4875 303.117 Q54.682 299.552 51.0477 299.552 M51.0477 295.848 Q56.8579 295.848 59.9134 300.454 Q62.9921 305.038 62.9921 313.788 Q62.9921 322.515 59.9134 327.121 Q56.8579 331.704 51.0477 331.704 Q45.2376 331.704 42.1589 327.121 Q39.1034 322.515 39.1034 313.788 Q39.1034 305.038 42.1589 300.454 Q45.2376 295.848 51.0477 295.848 Z" fill="#000000" fill-rule="evenodd" fill-opacity="1" /><path clip-path="url(#clip962)" d="
M151.118 1477.53 L159.272 1477.57 L167.426 1477.68 L175.58 1477.85 L183.735 1478.06 L191.889 1478.28 L200.043 1478.5 L208.197 1478.7 L216.352 1478.87 L224.506 1479 
  L232.66 1479.1 L240.814 1479.17 L248.969 1479.22 L257.123 1479.24 L265.277 1479.24 L273.432 1479.22 L281.586 1479.17 L289.74 1479.07 L297.894 1478.89 L306.049 1478.61 
  L314.203 1478.15 L322.357 1477.48 L330.511 1476.52 L338.666 1475.23 L346.82 1473.55 L354.974 1471.51 L363.129 1469.13 L371.283 1466.53 L379.437 1463.85 L387.591 1461.29 
  L395.746 1459.05 L403.9 1457.29 L412.054 1456.15 L420.208 1455.66 L428.363 1455.78 L436.517 1456.41 L444.671 1457.38 L452.825 1458.51 L460.98 1459.65 L469.134 1460.68 
  L477.288 1461.54 L485.443 1462.22 L493.597 1462.76 L501.751 1463.18 L509.905 1463.49 L518.06 1463.68 L526.214 1463.67 L534.368 1463.34 L542.522 1462.53 L550.677 1461.1 
  L558.831 1458.94 L566.985 1456 L575.14 1452.31 L583.294 1448.03 L591.448 1443.41 L599.602 1438.76 L607.757 1434.43 L615.911 1430.72 L624.065 1427.83 L632.219 1425.79 
  L640.374 1424.47 L648.528 1423.57 L656.682 1422.71 L664.836 1421.53 L672.991 1419.77 L681.145 1417.34 L689.299 1414.36 L697.454 1411.13 L705.608 1408.05 L713.762 1405.53 
  L721.916 1403.9 L730.071 1403.31 L738.225 1403.7 L746.379 1404.78 L754.533 1406.1 L762.688 1407.05 L770.842 1406.99 L778.996 1405.33 L787.151 1401.59 L795.305 1395.48 
  L803.459 1386.96 L811.613 1376.27 L819.768 1363.91 L827.922 1350.63 L836.076 1337.33 L844.23 1324.95 L852.385 1314.32 L860.539 1306.04 L868.693 1300.32 L876.848 1296.98 
  L885.002 1295.48 L893.156 1294.98 L901.31 1294.54 L909.465 1293.28 L917.619 1290.55 L925.773 1286.03 L933.927 1279.79 L942.082 1272.21 L950.236 1263.9 L958.39 1255.55 
  L958.39 1479.3 L950.236 1479.3 L942.082 1479.3 L933.927 1479.3 L925.773 1479.3 L917.619 1479.3 L909.465 1479.3 L901.31 1479.3 L893.156 1479.3 L885.002 1479.3 
  L876.848 1479.3 L868.693 1479.3 L860.539 1479.3 L852.385 1479.3 L844.23 1479.3 L836.076 1479.3 L827.922 1479.3 L819.768 1479.3 L811.613 1479.3 L803.459 1479.3 
  L795.305 1479.3 L787.151 1479.3 L778.996 1479.3 L770.842 1479.3 L762.688 1479.3 L754.533 1479.3 L746.379 1479.3 L738.225 1479.3 L730.071 1479.3 L721.916 1479.3 
  L713.762 1479.3 L705.608 1479.3 L697.454 1479.3 L689.299 1479.3 L681.145 1479.3 L672.991 1479.3 L664.836 1479.3 L656.682 1479.3 L648.528 1479.3 L640.374 1479.3 
  L632.219 1479.3 L624.065 1479.3 L615.911 1479.3 L607.757 1479.3 L599.602 1479.3 L591.448 1479.3 L583.294 1479.3 L575.14 1479.3 L566.985 1479.3 L558.831 1479.3 
  L550.677 1479.3 L542.522 1479.3 L534.368 1479.3 L526.214 1479.3 L518.06 1479.3 L509.905 1479.3 L501.751 1479.3 L493.597 1479.3 L485.443 1479.3 L477.288 1479.3 
  L469.134 1479.3 L460.98 1479.3 L452.825 1479.3 L444.671 1479.3 L436.517 1479.3 L428.363 1479.3 L420.208 1479.3 L412.054 1479.3 L403.9 1479.3 L395.746 1479.3 
  L387.591 1479.3 L379.437 1479.3 L371.283 1479.3 L363.129 1479.3 L354.974 1479.3 L346.82 1479.3 L338.666 1479.3 L330.511 1479.3 L322.357 1479.3 L314.203 1479.3 
  L306.049 1479.3 L297.894 1479.3 L289.74 1479.3 L281.586 1479.3 L273.432 1479.3 L265.277 1479.3 L257.123 1479.3 L248.969 1479.3 L240.814 1479.3 L232.66 1479.3 
  L224.506 1479.3 L216.352 1479.3 L208.197 1479.3 L200.043 1479.3 L191.889 1479.3 L183.735 1479.3 L175.58 1479.3 L167.426 1479.3 L159.272 1479.3 L151.118 1479.3 
   Z
  " fill="#ffa500" fill-rule="evenodd" fill-opacity="0.5"/>
<polyline clip-path="url(#clip962)" style="stroke:#ffa500; stroke-width:4; stroke-opacity:1; fill:none" points="
  151.118,1477.53 159.272,1477.57 167.426,1477.68 175.58,1477.85 183.735,1478.06 191.889,1478.28 200.043,1478.5 208.197,1478.7 216.352,1478.87 224.506,1479 
  232.66,1479.1 240.814,1479.17 248.969,1479.22 257.123,1479.24 265.277,1479.24 273.432,1479.22 281.586,1479.17 289.74,1479.07 297.894,1478.89 306.049,1478.61 
  314.203,1478.15 322.357,1477.48 330.511,1476.52 338.666,1475.23 346.82,1473.55 354.974,1471.51 363.129,1469.13 371.283,1466.53 379.437,1463.85 387.591,1461.29 
  395.746,1459.05 403.9,1457.29 412.054,1456.15 420.208,1455.66 428.363,1455.78 436.517,1456.41 444.671,1457.38 452.825,1458.51 460.98,1459.65 469.134,1460.68 
  477.288,1461.54 485.443,1462.22 493.597,1462.76 501.751,1463.18 509.905,1463.49 518.06,1463.68 526.214,1463.67 534.368,1463.34 542.522,1462.53 550.677,1461.1 
  558.831,1458.94 566.985,1456 575.14,1452.31 583.294,1448.03 591.448,1443.41 599.602,1438.76 607.757,1434.43 615.911,1430.72 624.065,1427.83 632.219,1425.79 
  640.374,1424.47 648.528,1423.57 656.682,1422.71 664.836,1421.53 672.991,1419.77 681.145,1417.34 689.299,1414.36 697.454,1411.13 705.608,1408.05 713.762,1405.53 
  721.916,1403.9 730.071,1403.31 738.225,1403.7 746.379,1404.78 754.533,1406.1 762.688,1407.05 770.842,1406.99 778.996,1405.33 787.151,1401.59 795.305,1395.48 
  803.459,1386.96 811.613,1376.27 819.768,1363.91 827.922,1350.63 836.076,1337.33 844.23,1324.95 852.385,1314.32 860.539,1306.04 868.693,1300.32 876.848,1296.98 
  885.002,1295.48 893.156,1294.98 901.31,1294.54 909.465,1293.28 917.619,1290.55 925.773,1286.03 933.927,1279.79 942.082,1272.21 950.236,1263.9 958.39,1255.55 
  
  "/>
<path clip-path="url(#clip962)" d="
M958.39 1255.55 L968.025 1246.48 L977.659 1238.88 L987.293 1232.86 L996.928 1228.03 L1006.56 1223.66 L1016.2 1218.96 L1025.83 1213.37 L1035.47 1206.65 L1045.1 1198.92 
  L1054.73 1190.54 L1064.37 1181.94 L1074 1173.46 L1083.64 1165.19 L1093.27 1156.96 L1102.91 1148.3 L1112.54 1138.52 L1122.18 1126.76 L1131.81 1112.2 L1141.44 1094.11 
  L1151.08 1072.08 L1160.71 1046.02 L1170.35 1016.21 L1179.98 983.178 L1189.62 947.558 L1199.25 909.999 L1208.88 871.118 L1218.52 831.566 L1228.15 792.132 L1237.79 753.811 
  L1247.42 717.736 L1257.06 684.981 L1266.69 656.277 L1276.33 631.756 L1285.96 610.863 L1295.59 592.462 L1305.23 575.136 L1314.86 557.552 L1324.5 538.799 L1334.13 518.592 
  L1343.77 497.302 L1353.4 475.826 L1363.04 455.32 L1372.67 436.857 L1382.3 421.072 L1391.94 407.881 L1401.57 396.366 L1411.21 384.857 L1420.84 371.248 L1430.48 353.459 
  L1440.11 329.97 L1449.74 300.284 L1459.38 265.196 L1469.01 226.777 L1478.65 188.048 L1488.28 152.41 L1497.92 122.981 L1507.55 102.039 L1517.19 90.7049 L1526.82 88.9544 
  L1536.45 95.8775 L1546.09 110.068 L1555.72 129.986 L1565.36 154.205 L1574.99 181.497 L1584.63 210.809 L1594.26 241.188 L1603.9 271.707 L1613.53 301.469 L1623.16 329.679 
  L1632.8 355.793 L1642.43 379.669 L1652.07 401.67 L1661.7 422.624 L1671.34 443.62 L1680.97 465.68 L1690.6 489.395 L1700.24 514.699 L1709.87 540.867 L1719.51 566.779 
  L1729.14 591.341 L1738.78 613.883 L1748.41 634.376 L1758.05 653.359 L1767.68 671.654 L1777.31 690.005 L1786.95 708.827 L1796.58 728.185 L1806.22 747.997 L1815.85 768.329 
  L1825.49 789.624 L1835.12 812.718 L1844.76 838.611 L1854.39 868.077 L1864.02 901.293 L1873.66 937.629 L1883.29 975.732 L1892.93 1013.84 L1902.56 1050.26 L1912.2 1083.76 
  L1912.2 1479.3 L1902.56 1479.3 L1892.93 1479.3 L1883.29 1479.3 L1873.66 1479.3 L1864.02 1479.3 L1854.39 1479.3 L1844.76 1479.3 L1835.12 1479.3 L1825.49 1479.3 
  L1815.85 1479.3 L1806.22 1479.3 L1796.58 1479.3 L1786.95 1479.3 L1777.31 1479.3 L1767.68 1479.3 L1758.05 1479.3 L1748.41 1479.3 L1738.78 1479.3 L1729.14 1479.3 
  L1719.51 1479.3 L1709.87 1479.3 L1700.24 1479.3 L1690.6 1479.3 L1680.97 1479.3 L1671.34 1479.3 L1661.7 1479.3 L1652.07 1479.3 L1642.43 1479.3 L1632.8 1479.3 
  L1623.16 1479.3 L1613.53 1479.3 L1603.9 1479.3 L1594.26 1479.3 L1584.63 1479.3 L1574.99 1479.3 L1565.36 1479.3 L1555.72 1479.3 L1546.09 1479.3 L1536.45 1479.3 
  L1526.82 1479.3 L1517.19 1479.3 L1507.55 1479.3 L1497.92 1479.3 L1488.28 1479.3 L1478.65 1479.3 L1469.01 1479.3 L1459.38 1479.3 L1449.74 1479.3 L1440.11 1479.3 
  L1430.48 1479.3 L1420.84 1479.3 L1411.21 1479.3 L1401.57 1479.3 L1391.94 1479.3 L1382.3 1479.3 L1372.67 1479.3 L1363.04 1479.3 L1353.4 1479.3 L1343.77 1479.3 
  L1334.13 1479.3 L1324.5 1479.3 L1314.86 1479.3 L1305.23 1479.3 L1295.59 1479.3 L1285.96 1479.3 L1276.33 1479.3 L1266.69 1479.3 L1257.06 1479.3 L1247.42 1479.3 
  L1237.79 1479.3 L1228.15 1479.3 L1218.52 1479.3 L1208.88 1479.3 L1199.25 1479.3 L1189.62 1479.3 L1179.98 1479.3 L1170.35 1479.3 L1160.71 1479.3 L1151.08 1479.3 
  L1141.44 1479.3 L1131.81 1479.3 L1122.18 1479.3 L1112.54 1479.3 L1102.91 1479.3 L1093.27 1479.3 L1083.64 1479.3 L1074 1479.3 L1064.37 1479.3 L1054.73 1479.3 
  L1045.1 1479.3 L1035.47 1479.3 L1025.83 1479.3 L1016.2 1479.3 L1006.56 1479.3 L996.928 1479.3 L987.293 1479.3 L977.659 1479.3 L968.025 1479.3 L958.39 1479.3 
   Z
  " fill="#008000" fill-rule="evenodd" fill-opacity="0.5"/>
<polyline clip-path="url(#clip962)" style="stroke:#008000; stroke-width:4; stroke-opacity:1; fill:none" points="
  958.39,1255.55 968.025,1246.48 977.659,1238.88 987.293,1232.86 996.928,1228.03 1006.56,1223.66 1016.2,1218.96 1025.83,1213.37 1035.47,1206.65 1045.1,1198.92 
  1054.73,1190.54 1064.37,1181.94 1074,1173.46 1083.64,1165.19 1093.27,1156.96 1102.91,1148.3 1112.54,1138.52 1122.18,1126.76 1131.81,1112.2 1141.44,1094.11 
  1151.08,1072.08 1160.71,1046.02 1170.35,1016.21 1179.98,983.178 1189.62,947.558 1199.25,909.999 1208.88,871.118 1218.52,831.566 1228.15,792.132 1237.79,753.811 
  1247.42,717.736 1257.06,684.981 1266.69,656.277 1276.33,631.756 1285.96,610.863 1295.59,592.462 1305.23,575.136 1314.86,557.552 1324.5,538.799 1334.13,518.592 
  1343.77,497.302 1353.4,475.826 1363.04,455.32 1372.67,436.857 1382.3,421.072 1391.94,407.881 1401.57,396.366 1411.21,384.857 1420.84,371.248 1430.48,353.459 
  1440.11,329.97 1449.74,300.284 1459.38,265.196 1469.01,226.777 1478.65,188.048 1488.28,152.41 1497.92,122.981 1507.55,102.039 1517.19,90.7049 1526.82,88.9544 
  1536.45,95.8775 1546.09,110.068 1555.72,129.986 1565.36,154.205 1574.99,181.497 1584.63,210.809 1594.26,241.188 1603.9,271.707 1613.53,301.469 1623.16,329.679 
  1632.8,355.793 1642.43,379.669 1652.07,401.67 1661.7,422.624 1671.34,443.62 1680.97,465.68 1690.6,489.395 1700.24,514.699 1709.87,540.867 1719.51,566.779 
  1729.14,591.341 1738.78,613.883 1748.41,634.376 1758.05,653.359 1767.68,671.654 1777.31,690.005 1786.95,708.827 1796.58,728.185 1806.22,747.997 1815.85,768.329 
  1825.49,789.624 1835.12,812.718 1844.76,838.611 1854.39,868.077 1864.02,901.293 1873.66,937.629 1883.29,975.732 1892.93,1013.84 1902.56,1050.26 1912.2,1083.76 
  
  "/>
<path clip-path="url(#clip962)" d="
M1912.2 1083.76 L1916 1096.04 L1919.8 1107.77 L1923.6 1118.97 L1927.41 1129.66 L1931.21 1139.89 L1935.01 1149.71 L1938.81 1159.15 L1942.62 1168.27 L1946.42 1177.12 
  L1950.22 1185.74 L1954.02 1194.16 L1957.82 1202.42 L1961.63 1210.53 L1965.43 1218.5 L1969.23 1226.34 L1973.03 1234.03 L1976.84 1241.55 L1980.64 1248.91 L1984.44 1256.06 
  L1988.24 1263 L1992.05 1269.69 L1995.85 1276.14 L1999.65 1282.32 L2003.45 1288.24 L2007.26 1293.89 L2011.06 1299.29 L2014.86 1304.47 L2018.66 1309.44 L2022.46 1314.23 
  L2026.27 1318.9 L2030.07 1323.46 L2033.87 1327.98 L2037.67 1332.49 L2041.48 1337.02 L2045.28 1341.6 L2049.08 1346.27 L2052.88 1351.03 L2056.69 1355.91 L2060.49 1360.89 
  L2064.29 1365.97 L2068.09 1371.14 L2071.9 1376.37 L2075.7 1381.64 L2079.5 1386.91 L2083.3 1392.15 L2087.11 1397.31 L2090.91 1402.38 L2094.71 1407.3 L2098.51 1412.05 
  L2102.31 1416.61 L2106.12 1420.94 L2109.92 1425.04 L2113.72 1428.88 L2117.52 1432.46 L2121.33 1435.77 L2125.13 1438.83 L2128.93 1441.62 L2132.73 1444.16 L2136.54 1446.47 
  L2140.34 1448.54 L2144.14 1450.41 L2147.94 1452.07 L2151.75 1453.55 L2155.55 1454.86 L2159.35 1456 L2163.15 1457 L2166.95 1457.87 L2170.76 1458.6 L2174.56 1459.22 
  L2178.36 1459.72 L2182.16 1460.12 L2185.97 1460.41 L2189.77 1460.61 L2193.57 1460.72 L2197.37 1460.75 L2201.18 1460.69 L2204.98 1460.57 L2208.78 1460.39 L2212.58 1460.16 
  L2216.39 1459.87 L2220.19 1459.56 L2223.99 1459.22 L2227.79 1458.87 L2231.59 1458.51 L2235.4 1458.16 L2239.2 1457.83 L2243 1457.53 L2246.8 1457.27 L2250.61 1457.06 
  L2254.41 1456.92 L2258.21 1456.85 L2262.01 1456.86 L2265.82 1456.96 L2269.62 1457.16 L2273.42 1457.46 L2277.22 1457.86 L2281.03 1458.37 L2284.83 1458.99 L2288.63 1459.7 
  L2288.63 1479.3 L2284.83 1479.3 L2281.03 1479.3 L2277.22 1479.3 L2273.42 1479.3 L2269.62 1479.3 L2265.82 1479.3 L2262.01 1479.3 L2258.21 1479.3 L2254.41 1479.3 
  L2250.61 1479.3 L2246.8 1479.3 L2243 1479.3 L2239.2 1479.3 L2235.4 1479.3 L2231.59 1479.3 L2227.79 1479.3 L2223.99 1479.3 L2220.19 1479.3 L2216.39 1479.3 
  L2212.58 1479.3 L2208.78 1479.3 L2204.98 1479.3 L2201.18 1479.3 L2197.37 1479.3 L2193.57 1479.3 L2189.77 1479.3 L2185.97 1479.3 L2182.16 1479.3 L2178.36 1479.3 
  L2174.56 1479.3 L2170.76 1479.3 L2166.95 1479.3 L2163.15 1479.3 L2159.35 1479.3 L2155.55 1479.3 L2151.75 1479.3 L2147.94 1479.3 L2144.14 1479.3 L2140.34 1479.3 
  L2136.54 1479.3 L2132.73 1479.3 L2128.93 1479.3 L2125.13 1479.3 L2121.33 1479.3 L2117.52 1479.3 L2113.72 1479.3 L2109.92 1479.3 L2106.12 1479.3 L2102.31 1479.3 
  L2098.51 1479.3 L2094.71 1479.3 L2090.91 1479.3 L2087.11 1479.3 L2083.3 1479.3 L2079.5 1479.3 L2075.7 1479.3 L2071.9 1479.3 L2068.09 1479.3 L2064.29 1479.3 
  L2060.49 1479.3 L2056.69 1479.3 L2052.88 1479.3 L2049.08 1479.3 L2045.28 1479.3 L2041.48 1479.3 L2037.67 1479.3 L2033.87 1479.3 L2030.07 1479.3 L2026.27 1479.3 
  L2022.46 1479.3 L2018.66 1479.3 L2014.86 1479.3 L2011.06 1479.3 L2007.26 1479.3 L2003.45 1479.3 L1999.65 1479.3 L1995.85 1479.3 L1992.05 1479.3 L1988.24 1479.3 
  L1984.44 1479.3 L1980.64 1479.3 L1976.84 1479.3 L1973.03 1479.3 L1969.23 1479.3 L1965.43 1479.3 L1961.63 1479.3 L1957.82 1479.3 L1954.02 1479.3 L1950.22 1479.3 
  L1946.42 1479.3 L1942.62 1479.3 L1938.81 1479.3 L1935.01 1479.3 L1931.21 1479.3 L1927.41 1479.3 L1923.6 1479.3 L1919.8 1479.3 L1916 1479.3 L1912.2 1479.3 
   Z
  " fill="#ffa500" fill-rule="evenodd" fill-opacity="0.5"/>
<polyline clip-path="url(#clip962)" style="stroke:#ffa500; stroke-width:4; stroke-opacity:1; fill:none" points="
  1912.2,1083.76 1916,1096.04 1919.8,1107.77 1923.6,1118.97 1927.41,1129.66 1931.21,1139.89 1935.01,1149.71 1938.81,1159.15 1942.62,1168.27 1946.42,1177.12 
  1950.22,1185.74 1954.02,1194.16 1957.82,1202.42 1961.63,1210.53 1965.43,1218.5 1969.23,1226.34 1973.03,1234.03 1976.84,1241.55 1980.64,1248.91 1984.44,1256.06 
  1988.24,1263 1992.05,1269.69 1995.85,1276.14 1999.65,1282.32 2003.45,1288.24 2007.26,1293.89 2011.06,1299.29 2014.86,1304.47 2018.66,1309.44 2022.46,1314.23 
  2026.27,1318.9 2030.07,1323.46 2033.87,1327.98 2037.67,1332.49 2041.48,1337.02 2045.28,1341.6 2049.08,1346.27 2052.88,1351.03 2056.69,1355.91 2060.49,1360.89 
  2064.29,1365.97 2068.09,1371.14 2071.9,1376.37 2075.7,1381.64 2079.5,1386.91 2083.3,1392.15 2087.11,1397.31 2090.91,1402.38 2094.71,1407.3 2098.51,1412.05 
  2102.31,1416.61 2106.12,1420.94 2109.92,1425.04 2113.72,1428.88 2117.52,1432.46 2121.33,1435.77 2125.13,1438.83 2128.93,1441.62 2132.73,1444.16 2136.54,1446.47 
  2140.34,1448.54 2144.14,1450.41 2147.94,1452.07 2151.75,1453.55 2155.55,1454.86 2159.35,1456 2163.15,1457 2166.95,1457.87 2170.76,1458.6 2174.56,1459.22 
  2178.36,1459.72 2182.16,1460.12 2185.97,1460.41 2189.77,1460.61 2193.57,1460.72 2197.37,1460.75 2201.18,1460.69 2204.98,1460.57 2208.78,1460.39 2212.58,1460.16 
  2216.39,1459.87 2220.19,1459.56 2223.99,1459.22 2227.79,1458.87 2231.59,1458.51 2235.4,1458.16 2239.2,1457.83 2243,1457.53 2246.8,1457.27 2250.61,1457.06 
  2254.41,1456.92 2258.21,1456.85 2262.01,1456.86 2265.82,1456.96 2269.62,1457.16 2273.42,1457.46 2277.22,1457.86 2281.03,1458.37 2284.83,1458.99 2288.63,1459.7 
  
  "/>
<polyline clip-path="url(#clip962)" style="stroke:#0000ff; stroke-width:4; stroke-opacity:1; fill:none" points="
  1483.07,1479.3 1483.07,171.109 
  "/>
<polyline clip-path="url(#clip962)" style="stroke:#000000; stroke-width:4; stroke-opacity:1; fill:none" points="
  1507.27,1479.3 1507.27,102.525 
  "/>
<path clip-path="url(#clip960)" d="
M1494.58 459.25 L2277.23 459.25 L2277.23 96.3696 L1494.58 96.3696  Z
  " fill="#ffffff" fill-rule="evenodd" fill-opacity="1"/>
<polyline clip-path="url(#clip960)" style="stroke:#000000; stroke-width:4; stroke-opacity:1; fill:none" points="
  1494.58,459.25 2277.23,459.25 2277.23,96.3696 1494.58,96.3696 1494.58,459.25 
  "/>
<path clip-path="url(#clip960)" d="
M1519.75 181.042 L1670.81 181.042 L1670.81 132.658 L1519.75 132.658 L1519.75 181.042  Z
  " fill="#ffa500" fill-rule="evenodd" fill-opacity="0.5"/>
<polyline clip-path="url(#clip960)" style="stroke:#ffa500; stroke-width:4; stroke-opacity:1; fill:none" points="
  1519.75,132.658 1670.81,132.658 
  "/>
<path clip-path="url(#clip960)" d="M 0 0 M1700.38 161.19 Q1700.38 165.889 1702.3 168.574 Q1704.24 171.236 1707.62 171.236 Q1711 171.236 1712.95 168.574 Q1714.89 165.889 1714.89 161.19 Q1714.89 156.491 1712.95 153.829 Q1711 151.144 1707.62 151.144 Q1704.24 151.144 1702.3 153.829 Q1700.38 156.491 1700.38 161.19 M1714.89 170.241 Q1713.55 172.555 1711.49 173.69 Q1709.45 174.801 1706.58 174.801 Q1701.88 174.801 1698.92 171.051 Q1695.98 167.301 1695.98 161.19 Q1695.98 155.079 1698.92 151.329 Q1701.88 147.579 1706.58 147.579 Q1709.45 147.579 1711.49 148.713 Q1713.55 149.824 1714.89 152.139 L1714.89 148.204 L1719.15 148.204 L1719.15 183.991 L1714.89 183.991 L1714.89 170.241 Z" fill="#000000" fill-rule="evenodd" fill-opacity="1" /><path clip-path="url(#clip960)" d="M 0 0 M1734.22 142.648 Q1730.61 142.648 1728.78 146.213 Q1726.98 149.755 1726.98 156.884 Q1726.98 163.991 1728.78 167.556 Q1730.61 171.097 1734.22 171.097 Q1737.85 171.097 1739.66 167.556 Q1741.49 163.991 1741.49 156.884 Q1741.49 149.755 1739.66 146.213 Q1737.85 142.648 1734.22 142.648 M1734.22 138.945 Q1740.03 138.945 1743.09 143.551 Q1746.17 148.134 1746.17 156.884 Q1746.17 165.611 1743.09 170.218 Q1740.03 174.801 1734.22 174.801 Q1728.41 174.801 1725.33 170.218 Q1722.28 165.611 1722.28 156.884 Q1722.28 148.134 1725.33 143.551 Q1728.41 138.945 1734.22 138.945 Z" fill="#000000" fill-rule="evenodd" fill-opacity="1" /><path clip-path="url(#clip960)" d="M 0 0 M1751.28 139.57 L1769.64 139.57 L1769.64 143.505 L1755.56 143.505 L1755.56 151.977 Q1756.58 151.63 1757.6 151.468 Q1758.62 151.282 1759.64 151.282 Q1765.42 151.282 1768.8 154.454 Q1772.18 157.625 1772.18 163.042 Q1772.18 168.62 1768.71 171.722 Q1765.24 174.801 1758.92 174.801 Q1756.74 174.801 1754.48 174.43 Q1752.23 174.06 1749.82 173.319 L1749.82 168.62 Q1751.91 169.755 1754.13 170.31 Q1756.35 170.866 1758.83 170.866 Q1762.83 170.866 1765.17 168.759 Q1767.51 166.653 1767.51 163.042 Q1767.51 159.431 1765.17 157.324 Q1762.83 155.218 1758.83 155.218 Q1756.95 155.218 1755.08 155.634 Q1753.23 156.051 1751.28 156.931 L1751.28 139.57 Z" fill="#000000" fill-rule="evenodd" fill-opacity="1" /><path clip-path="url(#clip960)" d="
M1519.75 241.522 L1670.81 241.522 L1670.81 193.138 L1519.75 193.138 L1519.75 241.522  Z
  " fill="#008000" fill-rule="evenodd" fill-opacity="0.5"/>
<polyline clip-path="url(#clip960)" style="stroke:#008000; stroke-width:4; stroke-opacity:1; fill:none" points="
  1519.75,193.138 1670.81,193.138 
  "/>
<path clip-path="url(#clip960)" d="M 0 0 M1698.2 233.892 L1698.2 229.633 Q1699.96 230.466 1701.77 230.906 Q1703.57 231.346 1705.31 231.346 Q1709.94 231.346 1712.37 228.244 Q1714.82 225.119 1715.17 218.776 Q1713.83 220.767 1711.77 221.832 Q1709.71 222.897 1707.21 222.897 Q1702.02 222.897 1698.99 219.772 Q1695.98 216.624 1695.98 211.184 Q1695.98 205.86 1699.13 202.642 Q1702.28 199.425 1707.51 199.425 Q1713.5 199.425 1716.65 204.031 Q1719.82 208.614 1719.82 217.364 Q1719.82 225.536 1715.93 230.42 Q1712.07 235.281 1705.52 235.281 Q1703.76 235.281 1701.95 234.934 Q1700.15 234.586 1698.2 233.892 M1707.51 219.239 Q1710.66 219.239 1712.48 217.086 Q1714.34 214.934 1714.34 211.184 Q1714.34 207.457 1712.48 205.304 Q1710.66 203.128 1707.51 203.128 Q1704.36 203.128 1702.51 205.304 Q1700.68 207.457 1700.68 211.184 Q1700.68 214.934 1702.51 217.086 Q1704.36 219.239 1707.51 219.239 Z" fill="#000000" fill-rule="evenodd" fill-opacity="1" /><path clip-path="url(#clip960)" d="M 0 0 M1734.89 203.128 Q1731.28 203.128 1729.45 206.693 Q1727.65 210.235 1727.65 217.364 Q1727.65 224.471 1729.45 228.036 Q1731.28 231.577 1734.89 231.577 Q1738.53 231.577 1740.33 228.036 Q1742.16 224.471 1742.16 217.364 Q1742.16 210.235 1740.33 206.693 Q1738.53 203.128 1734.89 203.128 M1734.89 199.425 Q1740.7 199.425 1743.76 204.031 Q1746.84 208.614 1746.84 217.364 Q1746.84 226.091 1743.76 230.698 Q1740.7 235.281 1734.89 235.281 Q1729.08 235.281 1726 230.698 Q1722.95 226.091 1722.95 217.364 Q1722.95 208.614 1726 204.031 Q1729.08 199.425 1734.89 199.425 Z" fill="#000000" fill-rule="evenodd" fill-opacity="1" /><path clip-path="url(#clip960)" d="M 0 0 M1781.3 219.401 Q1779.29 219.401 1778.13 221.114 Q1777 222.827 1777 225.883 Q1777 228.892 1778.13 230.628 Q1779.29 232.341 1781.3 232.341 Q1783.27 232.341 1784.41 230.628 Q1785.56 228.892 1785.56 225.883 Q1785.56 222.85 1784.41 221.137 Q1783.27 219.401 1781.3 219.401 M1781.3 216.462 Q1784.96 216.462 1787.11 219.008 Q1789.27 221.554 1789.27 225.883 Q1789.27 230.211 1787.09 232.758 Q1784.94 235.281 1781.3 235.281 Q1777.6 235.281 1775.45 232.758 Q1773.29 230.211 1773.29 225.883 Q1773.29 221.531 1775.45 219.008 Q1777.62 216.462 1781.3 216.462 M1757.42 202.364 Q1755.42 202.364 1754.27 204.1 Q1753.13 205.813 1753.13 208.823 Q1753.13 211.878 1754.27 213.591 Q1755.4 215.304 1757.42 215.304 Q1759.43 215.304 1760.56 213.591 Q1761.72 211.878 1761.72 208.823 Q1761.72 205.837 1760.56 204.1 Q1759.41 202.364 1757.42 202.364 M1778.32 199.425 L1782.02 199.425 L1760.4 235.281 L1756.7 235.281 L1778.32 199.425 M1757.42 199.425 Q1761.07 199.425 1763.25 201.971 Q1765.42 204.494 1765.42 208.823 Q1765.42 213.198 1763.25 215.721 Q1761.1 218.244 1757.42 218.244 Q1753.73 218.244 1751.58 215.721 Q1749.45 213.174 1749.45 208.823 Q1749.45 204.517 1751.6 201.971 Q1753.76 199.425 1757.42 199.425 Z" fill="#000000" fill-rule="evenodd" fill-opacity="1" /><path clip-path="url(#clip960)" d="M 0 0 M1830.35 218.961 L1830.35 234.61 L1826.1 234.61 L1826.1 219.1 Q1826.1 215.42 1824.66 213.591 Q1823.22 211.762 1820.35 211.762 Q1816.91 211.762 1814.91 213.962 Q1812.92 216.161 1812.92 219.957 L1812.92 234.61 L1808.64 234.61 L1808.64 208.684 L1812.92 208.684 L1812.92 212.712 Q1814.45 210.374 1816.51 209.216 Q1818.6 208.059 1821.3 208.059 Q1825.77 208.059 1828.06 210.837 Q1830.35 213.591 1830.35 218.961 Z" fill="#000000" fill-rule="evenodd" fill-opacity="1" /><path clip-path="url(#clip960)" d="M 0 0 M1844.87 211.67 Q1841.44 211.67 1839.45 214.355 Q1837.46 217.017 1837.46 221.67 Q1837.46 226.323 1839.43 229.008 Q1841.42 231.67 1844.87 231.67 Q1848.27 231.67 1850.26 228.985 Q1852.25 226.299 1852.25 221.67 Q1852.25 217.063 1850.26 214.378 Q1848.27 211.67 1844.87 211.67 M1844.87 208.059 Q1850.42 208.059 1853.6 211.67 Q1856.77 215.281 1856.77 221.67 Q1856.77 228.036 1853.6 231.67 Q1850.42 235.281 1844.87 235.281 Q1839.29 235.281 1836.12 231.67 Q1832.97 228.036 1832.97 221.67 Q1832.97 215.281 1836.12 211.67 Q1839.29 208.059 1844.87 208.059 Z" fill="#000000" fill-rule="evenodd" fill-opacity="1" /><path clip-path="url(#clip960)" d="M 0 0 M1882.78 218.961 L1882.78 234.61 L1878.53 234.61 L1878.53 219.1 Q1878.53 215.42 1877.09 213.591 Q1875.66 211.762 1872.78 211.762 Q1869.34 211.762 1867.35 213.962 Q1865.35 216.161 1865.35 219.957 L1865.35 234.61 L1861.07 234.61 L1861.07 208.684 L1865.35 208.684 L1865.35 212.712 Q1866.88 210.374 1868.94 209.216 Q1871.03 208.059 1873.73 208.059 Q1878.2 208.059 1880.49 210.837 Q1882.78 213.591 1882.78 218.961 Z" fill="#000000" fill-rule="evenodd" fill-opacity="1" /><path clip-path="url(#clip960)" d="M 0 0 M1885.1 219.725 L1897.58 219.725 L1897.58 223.522 L1885.1 223.522 L1885.1 219.725 Z" fill="#000000" fill-rule="evenodd" fill-opacity="1" /><path clip-path="url(#clip960)" d="M 0 0 M1917.07 212.665 Q1916.35 212.249 1915.49 212.063 Q1914.66 211.855 1913.64 211.855 Q1910.03 211.855 1908.09 214.216 Q1906.16 216.554 1906.16 220.952 L1906.16 234.61 L1901.88 234.61 L1901.88 208.684 L1906.16 208.684 L1906.16 212.712 Q1907.51 210.35 1909.66 209.216 Q1911.81 208.059 1914.89 208.059 Q1915.33 208.059 1915.86 208.128 Q1916.4 208.175 1917.04 208.29 L1917.07 212.665 Z" fill="#000000" fill-rule="evenodd" fill-opacity="1" /><path clip-path="url(#clip960)" d="M 0 0 M1942.67 220.582 L1942.67 222.665 L1923.09 222.665 Q1923.36 227.063 1925.72 229.378 Q1928.11 231.67 1932.34 231.67 Q1934.8 231.67 1937.09 231.068 Q1939.4 230.466 1941.67 229.262 L1941.67 233.29 Q1939.38 234.262 1936.97 234.772 Q1934.57 235.281 1932.09 235.281 Q1925.89 235.281 1922.25 231.67 Q1918.64 228.059 1918.64 221.901 Q1918.64 215.536 1922.07 211.809 Q1925.52 208.059 1931.35 208.059 Q1936.58 208.059 1939.61 211.438 Q1942.67 214.795 1942.67 220.582 M1938.41 219.332 Q1938.36 215.837 1936.44 213.753 Q1934.54 211.67 1931.4 211.67 Q1927.83 211.67 1925.68 213.684 Q1923.55 215.698 1923.22 219.355 L1938.41 219.332 Z" fill="#000000" fill-rule="evenodd" fill-opacity="1" /><path clip-path="url(#clip960)" d="M 0 0 M1947.14 208.684 L1951.4 208.684 L1951.4 235.073 Q1951.4 240.026 1949.5 242.248 Q1947.62 244.471 1943.43 244.471 L1941.81 244.471 L1941.81 240.86 L1942.95 240.86 Q1945.38 240.86 1946.26 239.725 Q1947.14 238.614 1947.14 235.073 L1947.14 208.684 M1947.14 198.591 L1951.4 198.591 L1951.4 203.985 L1947.14 203.985 L1947.14 198.591 Z" fill="#000000" fill-rule="evenodd" fill-opacity="1" /><path clip-path="url(#clip960)" d="M 0 0 M1978.04 220.582 L1978.04 222.665 L1958.46 222.665 Q1958.73 227.063 1961.09 229.378 Q1963.48 231.67 1967.71 231.67 Q1970.17 231.67 1972.46 231.068 Q1974.78 230.466 1977.04 229.262 L1977.04 233.29 Q1974.75 234.262 1972.34 234.772 Q1969.94 235.281 1967.46 235.281 Q1961.26 235.281 1957.62 231.67 Q1954.01 228.059 1954.01 221.901 Q1954.01 215.536 1957.44 211.809 Q1960.89 208.059 1966.72 208.059 Q1971.95 208.059 1974.98 211.438 Q1978.04 214.795 1978.04 220.582 M1973.78 219.332 Q1973.73 215.837 1971.81 213.753 Q1969.91 211.67 1966.77 211.67 Q1963.2 211.67 1961.05 213.684 Q1958.92 215.698 1958.59 219.355 L1973.78 219.332 Z" fill="#000000" fill-rule="evenodd" fill-opacity="1" /><path clip-path="url(#clip960)" d="M 0 0 M2001.16 209.679 L2001.16 213.661 Q1999.36 212.665 1997.53 212.179 Q1995.72 211.67 1993.87 211.67 Q1989.73 211.67 1987.44 214.309 Q1985.15 216.924 1985.15 221.67 Q1985.15 226.415 1987.44 229.054 Q1989.73 231.67 1993.87 231.67 Q1995.72 231.67 1997.53 231.184 Q1999.36 230.674 2001.16 229.679 L2001.16 233.614 Q1999.38 234.448 1997.46 234.864 Q1995.56 235.281 1993.41 235.281 Q1987.55 235.281 1984.1 231.6 Q1980.65 227.92 1980.65 221.67 Q1980.65 215.327 1984.13 211.693 Q1987.62 208.059 1993.69 208.059 Q1995.65 208.059 1997.53 208.475 Q1999.4 208.869 2001.16 209.679 Z" fill="#000000" fill-rule="evenodd" fill-opacity="1" /><path clip-path="url(#clip960)" d="M 0 0 M2009.84 201.323 L2009.84 208.684 L2018.62 208.684 L2018.62 211.994 L2009.84 211.994 L2009.84 226.068 Q2009.84 229.239 2010.7 230.142 Q2011.58 231.045 2014.24 231.045 L2018.62 231.045 L2018.62 234.61 L2014.24 234.61 Q2009.31 234.61 2007.44 232.781 Q2005.56 230.929 2005.56 226.068 L2005.56 211.994 L2002.44 211.994 L2002.44 208.684 L2005.56 208.684 L2005.56 201.323 L2009.84 201.323 Z" fill="#000000" fill-rule="evenodd" fill-opacity="1" /><path clip-path="url(#clip960)" d="M 0 0 M2023.08 208.684 L2027.34 208.684 L2027.34 234.61 L2023.08 234.61 L2023.08 208.684 M2023.08 198.591 L2027.34 198.591 L2027.34 203.985 L2023.08 203.985 L2023.08 198.591 Z" fill="#000000" fill-rule="evenodd" fill-opacity="1" /><path clip-path="url(#clip960)" d="M 0 0 M2041.86 211.67 Q2038.43 211.67 2036.44 214.355 Q2034.45 217.017 2034.45 221.67 Q2034.45 226.323 2036.42 229.008 Q2038.41 231.67 2041.86 231.67 Q2045.26 231.67 2047.25 228.985 Q2049.24 226.299 2049.24 221.67 Q2049.24 217.063 2047.25 214.378 Q2045.26 211.67 2041.86 211.67 M2041.86 208.059 Q2047.41 208.059 2050.58 211.67 Q2053.76 215.281 2053.76 221.67 Q2053.76 228.036 2050.58 231.67 Q2047.41 235.281 2041.86 235.281 Q2036.28 235.281 2033.11 231.67 Q2029.96 228.036 2029.96 221.67 Q2029.96 215.281 2033.11 211.67 Q2036.28 208.059 2041.86 208.059 Z" fill="#000000" fill-rule="evenodd" fill-opacity="1" /><path clip-path="url(#clip960)" d="M 0 0 M2079.77 218.961 L2079.77 234.61 L2075.52 234.61 L2075.52 219.1 Q2075.52 215.42 2074.08 213.591 Q2072.64 211.762 2069.77 211.762 Q2066.33 211.762 2064.33 213.962 Q2062.34 216.161 2062.34 219.957 L2062.34 234.61 L2058.06 234.61 L2058.06 208.684 L2062.34 208.684 L2062.34 212.712 Q2063.87 210.374 2065.93 209.216 Q2068.02 208.059 2070.72 208.059 Q2075.19 208.059 2077.48 210.837 Q2079.77 213.591 2079.77 218.961 Z" fill="#000000" fill-rule="evenodd" fill-opacity="1" /><path clip-path="url(#clip960)" d="M 0 0 M2114.33 212.665 Q2113.62 212.249 2112.76 212.063 Q2111.93 211.855 2110.91 211.855 Q2107.3 211.855 2105.35 214.216 Q2103.43 216.554 2103.43 220.952 L2103.43 234.61 L2099.15 234.61 L2099.15 208.684 L2103.43 208.684 L2103.43 212.712 Q2104.77 210.35 2106.93 209.216 Q2109.08 208.059 2112.16 208.059 Q2112.6 208.059 2113.13 208.128 Q2113.66 208.175 2114.31 208.29 L2114.33 212.665 Z" fill="#000000" fill-rule="evenodd" fill-opacity="1" /><path clip-path="url(#clip960)" d="M 0 0 M2139.94 220.582 L2139.94 222.665 L2120.35 222.665 Q2120.63 227.063 2122.99 229.378 Q2125.38 231.67 2129.61 231.67 Q2132.07 231.67 2134.36 231.068 Q2136.67 230.466 2138.94 229.262 L2138.94 233.29 Q2136.65 234.262 2134.24 234.772 Q2131.83 235.281 2129.36 235.281 Q2123.15 235.281 2119.52 231.67 Q2115.91 228.059 2115.91 221.901 Q2115.91 215.536 2119.33 211.809 Q2122.78 208.059 2128.62 208.059 Q2133.85 208.059 2136.88 211.438 Q2139.94 214.795 2139.94 220.582 M2135.68 219.332 Q2135.63 215.837 2133.71 213.753 Q2131.81 211.67 2128.66 211.67 Q2125.1 211.67 2122.95 213.684 Q2120.82 215.698 2120.49 219.355 L2135.68 219.332 Z" fill="#000000" fill-rule="evenodd" fill-opacity="1" /><path clip-path="url(#clip960)" d="M 0 0 M2161.46 221.346 Q2161.46 216.716 2159.54 214.17 Q2157.64 211.624 2154.2 211.624 Q2150.77 211.624 2148.85 214.17 Q2146.95 216.716 2146.95 221.346 Q2146.95 225.952 2148.85 228.498 Q2150.77 231.045 2154.2 231.045 Q2157.64 231.045 2159.54 228.498 Q2161.46 225.952 2161.46 221.346 M2165.72 231.392 Q2165.72 238.012 2162.78 241.23 Q2159.84 244.471 2153.78 244.471 Q2151.53 244.471 2149.54 244.123 Q2147.55 243.799 2145.68 243.105 L2145.68 238.961 Q2147.55 239.98 2149.38 240.466 Q2151.21 240.952 2153.11 240.952 Q2157.3 240.952 2159.38 238.753 Q2161.46 236.577 2161.46 232.156 L2161.46 230.049 Q2160.14 232.341 2158.08 233.475 Q2156.02 234.61 2153.15 234.61 Q2148.39 234.61 2145.47 230.975 Q2142.55 227.341 2142.55 221.346 Q2142.55 215.327 2145.47 211.693 Q2148.39 208.059 2153.15 208.059 Q2156.02 208.059 2158.08 209.193 Q2160.14 210.327 2161.46 212.619 L2161.46 208.684 L2165.72 208.684 L2165.72 231.392 Z" fill="#000000" fill-rule="evenodd" fill-opacity="1" /><path clip-path="url(#clip960)" d="M 0 0 M2170.19 208.684 L2174.45 208.684 L2174.45 234.61 L2170.19 234.61 L2170.19 208.684 M2170.19 198.591 L2174.45 198.591 L2174.45 203.985 L2170.19 203.985 L2170.19 198.591 Z" fill="#000000" fill-rule="evenodd" fill-opacity="1" /><path clip-path="url(#clip960)" d="M 0 0 M2188.96 211.67 Q2185.54 211.67 2183.55 214.355 Q2181.56 217.017 2181.56 221.67 Q2181.56 226.323 2183.52 229.008 Q2185.51 231.67 2188.96 231.67 Q2192.37 231.67 2194.36 228.985 Q2196.35 226.299 2196.35 221.67 Q2196.35 217.063 2194.36 214.378 Q2192.37 211.67 2188.96 211.67 M2188.96 208.059 Q2194.52 208.059 2197.69 211.67 Q2200.86 215.281 2200.86 221.67 Q2200.86 228.036 2197.69 231.67 Q2194.52 235.281 2188.96 235.281 Q2183.39 235.281 2180.21 231.67 Q2177.07 228.036 2177.07 221.67 Q2177.07 215.281 2180.21 211.67 Q2183.39 208.059 2188.96 208.059 Z" fill="#000000" fill-rule="evenodd" fill-opacity="1" /><path clip-path="url(#clip960)" d="M 0 0 M2226.88 218.961 L2226.88 234.61 L2222.62 234.61 L2222.62 219.1 Q2222.62 215.42 2221.19 213.591 Q2219.75 211.762 2216.88 211.762 Q2213.43 211.762 2211.44 213.962 Q2209.45 216.161 2209.45 219.957 L2209.45 234.61 L2205.17 234.61 L2205.17 208.684 L2209.45 208.684 L2209.45 212.712 Q2210.98 210.374 2213.04 209.216 Q2215.12 208.059 2217.83 208.059 Q2222.3 208.059 2224.59 210.837 Q2226.88 213.591 2226.88 218.961 Z" fill="#000000" fill-rule="evenodd" fill-opacity="1" /><path clip-path="url(#clip960)" d="
M1519.75 302.002 L1670.81 302.002 L1670.81 253.618 L1519.75 253.618 L1519.75 302.002  Z
  " fill="#ffa500" fill-rule="evenodd" fill-opacity="0.5"/>
<polyline clip-path="url(#clip960)" style="stroke:#ffa500; stroke-width:4; stroke-opacity:1; fill:none" points="
  1519.75,253.618 1670.81,253.618 
  "/>
<path clip-path="url(#clip960)" d="M 0 0 M1700.38 282.15 Q1700.38 286.849 1702.3 289.534 Q1704.24 292.196 1707.62 292.196 Q1711 292.196 1712.95 289.534 Q1714.89 286.849 1714.89 282.15 Q1714.89 277.451 1712.95 274.789 Q1711 272.104 1707.62 272.104 Q1704.24 272.104 1702.3 274.789 Q1700.38 277.451 1700.38 282.15 M1714.89 291.201 Q1713.55 293.515 1711.49 294.65 Q1709.45 295.761 1706.58 295.761 Q1701.88 295.761 1698.92 292.011 Q1695.98 288.261 1695.98 282.15 Q1695.98 276.039 1698.92 272.289 Q1701.88 268.539 1706.58 268.539 Q1709.45 268.539 1711.49 269.673 Q1713.55 270.784 1714.89 273.099 L1714.89 269.164 L1719.15 269.164 L1719.15 304.951 L1714.89 304.951 L1714.89 291.201 Z" fill="#000000" fill-rule="evenodd" fill-opacity="1" /><path clip-path="url(#clip960)" d="M 0 0 M1724.36 294.372 L1724.36 290.113 Q1726.12 290.946 1727.92 291.386 Q1729.73 291.826 1731.47 291.826 Q1736.1 291.826 1738.53 288.724 Q1740.98 285.599 1741.33 279.256 Q1739.98 281.247 1737.92 282.312 Q1735.86 283.377 1733.36 283.377 Q1728.18 283.377 1725.15 280.252 Q1722.14 277.104 1722.14 271.664 Q1722.14 266.34 1725.29 263.122 Q1728.43 259.905 1733.67 259.905 Q1739.66 259.905 1742.81 264.511 Q1745.98 269.094 1745.98 277.844 Q1745.98 286.016 1742.09 290.9 Q1738.23 295.761 1731.67 295.761 Q1729.92 295.761 1728.11 295.414 Q1726.3 295.066 1724.36 294.372 M1733.67 279.719 Q1736.81 279.719 1738.64 277.566 Q1740.49 275.414 1740.49 271.664 Q1740.49 267.937 1738.64 265.784 Q1736.81 263.608 1733.67 263.608 Q1730.52 263.608 1728.67 265.784 Q1726.84 267.937 1726.84 271.664 Q1726.84 275.414 1728.67 277.566 Q1730.52 279.719 1733.67 279.719 Z" fill="#000000" fill-rule="evenodd" fill-opacity="1" /><path clip-path="url(#clip960)" d="M 0 0 M1751.1 260.53 L1769.45 260.53 L1769.45 264.465 L1755.38 264.465 L1755.38 272.937 Q1756.4 272.59 1757.42 272.428 Q1758.43 272.242 1759.45 272.242 Q1765.24 272.242 1768.62 275.414 Q1772 278.585 1772 284.002 Q1772 289.58 1768.53 292.682 Q1765.05 295.761 1758.73 295.761 Q1756.56 295.761 1754.29 295.39 Q1752.04 295.02 1749.64 294.279 L1749.64 289.58 Q1751.72 290.715 1753.94 291.27 Q1756.17 291.826 1758.64 291.826 Q1762.65 291.826 1764.98 289.719 Q1767.32 287.613 1767.32 284.002 Q1767.32 280.391 1764.98 278.284 Q1762.65 276.178 1758.64 276.178 Q1756.77 276.178 1754.89 276.594 Q1753.04 277.011 1751.1 277.891 L1751.1 260.53 Z" fill="#000000" fill-rule="evenodd" fill-opacity="1" /><polyline clip-path="url(#clip960)" style="stroke:#0000ff; stroke-width:4; stroke-opacity:1; fill:none" points="
  1519.75,338.29 1670.81,338.29 
  "/>
<path clip-path="url(#clip960)" d="M 0 0 M1716.33 334.621 Q1717.92 331.75 1720.15 330.385 Q1722.37 329.019 1725.38 329.019 Q1729.43 329.019 1731.63 331.866 Q1733.83 334.69 1733.83 339.921 L1733.83 355.57 L1729.54 355.57 L1729.54 340.06 Q1729.54 336.334 1728.23 334.528 Q1726.91 332.722 1724.2 332.722 Q1720.89 332.722 1718.97 334.922 Q1717.04 337.121 1717.04 340.917 L1717.04 355.57 L1712.76 355.57 L1712.76 340.06 Q1712.76 336.31 1711.44 334.528 Q1710.12 332.722 1707.37 332.722 Q1704.11 332.722 1702.18 334.945 Q1700.26 337.144 1700.26 340.917 L1700.26 355.57 L1695.98 355.57 L1695.98 329.644 L1700.26 329.644 L1700.26 333.672 Q1701.72 331.287 1703.76 330.153 Q1705.79 329.019 1708.6 329.019 Q1711.42 329.019 1713.39 330.454 Q1715.38 331.889 1716.33 334.621 Z" fill="#000000" fill-rule="evenodd" fill-opacity="1" /><path clip-path="url(#clip960)" d="M 0 0 M1760.47 341.542 L1760.47 343.625 L1740.89 343.625 Q1741.17 348.023 1743.53 350.338 Q1745.91 352.63 1750.15 352.63 Q1752.6 352.63 1754.89 352.028 Q1757.21 351.426 1759.48 350.222 L1759.48 354.25 Q1757.18 355.222 1754.78 355.732 Q1752.37 356.241 1749.89 356.241 Q1743.69 356.241 1740.05 352.63 Q1736.44 349.019 1736.44 342.861 Q1736.44 336.496 1739.87 332.769 Q1743.32 329.019 1749.15 329.019 Q1754.38 329.019 1757.42 332.398 Q1760.47 335.755 1760.47 341.542 M1756.21 340.292 Q1756.17 336.797 1754.24 334.713 Q1752.35 332.63 1749.2 332.63 Q1745.63 332.63 1743.48 334.644 Q1741.35 336.658 1741.03 340.315 L1756.21 340.292 Z" fill="#000000" fill-rule="evenodd" fill-opacity="1" /><path clip-path="url(#clip960)" d="M 0 0 M1776.72 342.537 Q1771.56 342.537 1769.57 343.718 Q1767.58 344.898 1767.58 347.746 Q1767.58 350.014 1769.06 351.357 Q1770.56 352.676 1773.13 352.676 Q1776.67 352.676 1778.8 350.176 Q1780.96 347.653 1780.96 343.486 L1780.96 342.537 L1776.72 342.537 M1785.22 340.778 L1785.22 355.57 L1780.96 355.57 L1780.96 351.634 Q1779.5 353.995 1777.32 355.13 Q1775.15 356.241 1772 356.241 Q1768.02 356.241 1765.66 354.019 Q1763.32 351.773 1763.32 348.023 Q1763.32 343.648 1766.23 341.426 Q1769.17 339.204 1774.98 339.204 L1780.96 339.204 L1780.96 338.787 Q1780.96 335.847 1779.01 334.25 Q1777.09 332.63 1773.6 332.63 Q1771.37 332.63 1769.27 333.162 Q1767.16 333.695 1765.22 334.759 L1765.22 330.824 Q1767.55 329.922 1769.75 329.482 Q1771.95 329.019 1774.04 329.019 Q1779.66 329.019 1782.44 331.935 Q1785.22 334.852 1785.22 340.778 Z" fill="#000000" fill-rule="evenodd" fill-opacity="1" /><path clip-path="url(#clip960)" d="M 0 0 M1811.23 339.921 L1811.23 355.57 L1806.97 355.57 L1806.97 340.06 Q1806.97 336.38 1805.54 334.551 Q1804.1 332.722 1801.23 332.722 Q1797.79 332.722 1795.79 334.922 Q1793.8 337.121 1793.8 340.917 L1793.8 355.57 L1789.52 355.57 L1789.52 329.644 L1793.8 329.644 L1793.8 333.672 Q1795.33 331.334 1797.39 330.176 Q1799.48 329.019 1802.18 329.019 Q1806.65 329.019 1808.94 331.797 Q1811.23 334.551 1811.23 339.921 Z" fill="#000000" fill-rule="evenodd" fill-opacity="1" /><polyline clip-path="url(#clip960)" style="stroke:#000000; stroke-width:4; stroke-opacity:1; fill:none" points="
  1519.75,398.77 1670.81,398.77 
  "/>
<path clip-path="url(#clip960)" d="M 0 0 M1716.33 395.101 Q1717.92 392.23 1720.15 390.865 Q1722.37 389.499 1725.38 389.499 Q1729.43 389.499 1731.63 392.346 Q1733.83 395.17 1733.83 400.401 L1733.83 416.05 L1729.54 416.05 L1729.54 400.54 Q1729.54 396.814 1728.23 395.008 Q1726.91 393.202 1724.2 393.202 Q1720.89 393.202 1718.97 395.402 Q1717.04 397.601 1717.04 401.397 L1717.04 416.05 L1712.76 416.05 L1712.76 400.54 Q1712.76 396.79 1711.44 395.008 Q1710.12 393.202 1707.37 393.202 Q1704.11 393.202 1702.18 395.425 Q1700.26 397.624 1700.26 401.397 L1700.26 416.05 L1695.98 416.05 L1695.98 390.124 L1700.26 390.124 L1700.26 394.152 Q1701.72 391.767 1703.76 390.633 Q1705.79 389.499 1708.6 389.499 Q1711.42 389.499 1713.39 390.934 Q1715.38 392.369 1716.33 395.101 Z" fill="#000000" fill-rule="evenodd" fill-opacity="1" /><path clip-path="url(#clip960)" d="M 0 0 M1760.47 402.022 L1760.47 404.105 L1740.89 404.105 Q1741.17 408.503 1743.53 410.818 Q1745.91 413.11 1750.15 413.11 Q1752.6 413.11 1754.89 412.508 Q1757.21 411.906 1759.48 410.702 L1759.48 414.73 Q1757.18 415.702 1754.78 416.212 Q1752.37 416.721 1749.89 416.721 Q1743.69 416.721 1740.05 413.11 Q1736.44 409.499 1736.44 403.341 Q1736.44 396.976 1739.87 393.249 Q1743.32 389.499 1749.15 389.499 Q1754.38 389.499 1757.42 392.878 Q1760.47 396.235 1760.47 402.022 M1756.21 400.772 Q1756.17 397.277 1754.24 395.193 Q1752.35 393.11 1749.2 393.11 Q1745.63 393.11 1743.48 395.124 Q1741.35 397.138 1741.03 400.795 L1756.21 400.772 Z" fill="#000000" fill-rule="evenodd" fill-opacity="1" /><path clip-path="url(#clip960)" d="M 0 0 M1782 394.059 L1782 380.031 L1786.26 380.031 L1786.26 416.05 L1782 416.05 L1782 412.161 Q1780.66 414.475 1778.6 415.61 Q1776.56 416.721 1773.69 416.721 Q1768.99 416.721 1766.03 412.971 Q1763.09 409.221 1763.09 403.11 Q1763.09 396.999 1766.03 393.249 Q1768.99 389.499 1773.69 389.499 Q1776.56 389.499 1778.6 390.633 Q1780.66 391.744 1782 394.059 M1767.48 403.11 Q1767.48 407.809 1769.41 410.494 Q1771.35 413.156 1774.73 413.156 Q1778.11 413.156 1780.05 410.494 Q1782 407.809 1782 403.11 Q1782 398.411 1780.05 395.749 Q1778.11 393.064 1774.73 393.064 Q1771.35 393.064 1769.41 395.749 Q1767.48 398.411 1767.48 403.11 Z" fill="#000000" fill-rule="evenodd" fill-opacity="1" /><path clip-path="url(#clip960)" d="M 0 0 M1790.73 390.124 L1794.98 390.124 L1794.98 416.05 L1790.73 416.05 L1790.73 390.124 M1790.73 380.031 L1794.98 380.031 L1794.98 385.425 L1790.73 385.425 L1790.73 380.031 Z" fill="#000000" fill-rule="evenodd" fill-opacity="1" /><path clip-path="url(#clip960)" d="M 0 0 M1811.23 403.017 Q1806.07 403.017 1804.08 404.198 Q1802.09 405.378 1802.09 408.226 Q1802.09 410.494 1803.57 411.837 Q1805.08 413.156 1807.65 413.156 Q1811.19 413.156 1813.32 410.656 Q1815.47 408.133 1815.47 403.966 L1815.47 403.017 L1811.23 403.017 M1819.73 401.258 L1819.73 416.05 L1815.47 416.05 L1815.47 412.114 Q1814.01 414.475 1811.84 415.61 Q1809.66 416.721 1806.51 416.721 Q1802.53 416.721 1800.17 414.499 Q1797.83 412.253 1797.83 408.503 Q1797.83 404.128 1800.75 401.906 Q1803.69 399.684 1809.5 399.684 L1815.47 399.684 L1815.47 399.267 Q1815.47 396.327 1813.53 394.73 Q1811.6 393.11 1808.11 393.11 Q1805.89 393.11 1803.78 393.642 Q1801.67 394.175 1799.73 395.239 L1799.73 391.304 Q1802.07 390.402 1804.27 389.962 Q1806.47 389.499 1808.55 389.499 Q1814.17 389.499 1816.95 392.415 Q1819.73 395.332 1819.73 401.258 Z" fill="#000000" fill-rule="evenodd" fill-opacity="1" /><path clip-path="url(#clip960)" d="M 0 0 M1845.75 400.401 L1845.75 416.05 L1841.49 416.05 L1841.49 400.54 Q1841.49 396.86 1840.05 395.031 Q1838.62 393.202 1835.75 393.202 Q1832.3 393.202 1830.31 395.402 Q1828.32 397.601 1828.32 401.397 L1828.32 416.05 L1824.04 416.05 L1824.04 390.124 L1828.32 390.124 L1828.32 394.152 Q1829.85 391.814 1831.91 390.656 Q1833.99 389.499 1836.7 389.499 Q1841.16 389.499 1843.46 392.277 Q1845.75 395.031 1845.75 400.401 Z" fill="#000000" fill-rule="evenodd" fill-opacity="1" /></svg>
