<?xml version="1.0" encoding="utf-8"?>
<svg xmlns="http://www.w3.org/2000/svg" xmlns:xlink="http://www.w3.org/1999/xlink" width="600" height="400" viewBox="0 0 2400 1600">
<defs>
  <clipPath id="clip990">
    <rect x="0" y="0" width="2400" height="1600"/>
  </clipPath>
</defs>
<path clip-path="url(#clip990)" d="
M0 1600 L2400 1600 L2400 0 L0 0  Z
  " fill="#ffffff" fill-rule="evenodd" fill-opacity="1"/>
<defs>
  <clipPath id="clip991">
    <rect x="480" y="0" width="1681" height="1600"/>
  </clipPath>
</defs>
<path clip-path="url(#clip990)" d="
M86.9921 1521.01 L2352.76 1521.01 L2352.76 47.2441 L86.9921 47.2441  Z
  " fill="#ffffff" fill-rule="evenodd" fill-opacity="1"/>
<defs>
  <clipPath id="clip992">
    <rect x="86" y="47" width="2267" height="1475"/>
  </clipPath>
</defs>
<polyline clip-path="url(#clip992)" style="stroke:#000000; stroke-width:2; stroke-opacity:0.1; fill:none" points="
  452.273,1521.01 452.273,47.2441 
  "/>
<polyline clip-path="url(#clip992)" style="stroke:#000000; stroke-width:2; stroke-opacity:0.1; fill:none" points="
  861.854,1521.01 861.854,47.2441 
  "/>
<polyline clip-path="url(#clip992)" style="stroke:#000000; stroke-width:2; stroke-opacity:0.1; fill:none" points="
  1271.43,1521.01 1271.43,47.2441 
  "/>
<polyline clip-path="url(#clip992)" style="stroke:#000000; stroke-width:2; stroke-opacity:0.1; fill:none" points="
  1681.02,1521.01 1681.02,47.2441 
  "/>
<polyline clip-path="url(#clip992)" style="stroke:#000000; stroke-width:2; stroke-opacity:0.1; fill:none" points="
  2090.6,1521.01 2090.6,47.2441 
  "/>
<polyline clip-path="url(#clip992)" style="stroke:#000000; stroke-width:2; stroke-opacity:0.1; fill:none" points="
  86.9921,1479.3 2352.76,1479.3 
  "/>
<polyline clip-path="url(#clip992)" style="stroke:#000000; stroke-width:2; stroke-opacity:0.1; fill:none" points="
  86.9921,1050.36 2352.76,1050.36 
  "/>
<polyline clip-path="url(#clip992)" style="stroke:#000000; stroke-width:2; stroke-opacity:0.1; fill:none" points="
  86.9921,621.416 2352.76,621.416 
  "/>
<polyline clip-path="url(#clip992)" style="stroke:#000000; stroke-width:2; stroke-opacity:0.1; fill:none" points="
  86.9921,192.475 2352.76,192.475 
  "/>
<polyline clip-path="url(#clip990)" style="stroke:#000000; stroke-width:4; stroke-opacity:1; fill:none" points="
  86.9921,1521.01 2352.76,1521.01 
  "/>
<polyline clip-path="url(#clip990)" style="stroke:#000000; stroke-width:4; stroke-opacity:1; fill:none" points="
  86.9921,1521.01 86.9921,47.2441 
  "/>
<polyline clip-path="url(#clip990)" style="stroke:#000000; stroke-width:4; stroke-opacity:1; fill:none" points="
  452.273,1521.01 452.273,1503.32 
  "/>
<polyline clip-path="url(#clip990)" style="stroke:#000000; stroke-width:4; stroke-opacity:1; fill:none" points="
  861.854,1521.01 861.854,1503.32 
  "/>
<polyline clip-path="url(#clip990)" style="stroke:#000000; stroke-width:4; stroke-opacity:1; fill:none" points="
  1271.43,1521.01 1271.43,1503.32 
  "/>
<polyline clip-path="url(#clip990)" style="stroke:#000000; stroke-width:4; stroke-opacity:1; fill:none" points="
  1681.02,1521.01 1681.02,1503.32 
  "/>
<polyline clip-path="url(#clip990)" style="stroke:#000000; stroke-width:4; stroke-opacity:1; fill:none" points="
  2090.6,1521.01 2090.6,1503.32 
  "/>
<polyline clip-path="url(#clip990)" style="stroke:#000000; stroke-width:4; stroke-opacity:1; fill:none" points="
  86.9921,1479.3 114.181,1479.3 
  "/>
<polyline clip-path="url(#clip990)" style="stroke:#000000; stroke-width:4; stroke-opacity:1; fill:none" points="
  86.9921,1050.36 114.181,1050.36 
  "/>
<polyline clip-path="url(#clip990)" style="stroke:#000000; stroke-width:4; stroke-opacity:1; fill:none" points="
  86.9921,621.416 114.181,621.416 
  "/>
<polyline clip-path="url(#clip990)" style="stroke:#000000; stroke-width:4; stroke-opacity:1; fill:none" points="
  86.9921,192.475 114.181,192.475 
  "/>
<path clip-path="url(#clip990)" d="M 0 0 M413.801 1559.6 L426.278 1559.6 L426.278 1563.39 L413.801 1563.39 L413.801 1559.6 Z" fill="#000000" fill-rule="evenodd" fill-opacity="1" /><path clip-path="url(#clip990)" d="M 0 0 M441.347 1543 Q437.736 1543 435.908 1546.56 Q434.102 1550.11 434.102 1557.23 Q434.102 1564.34 435.908 1567.91 Q437.736 1571.45 441.347 1571.45 Q444.982 1571.45 446.787 1567.91 Q448.616 1564.34 448.616 1557.23 Q448.616 1550.11 446.787 1546.56 Q444.982 1543 441.347 1543 M441.347 1539.29 Q447.158 1539.29 450.213 1543.9 Q453.292 1548.48 453.292 1557.23 Q453.292 1565.96 450.213 1570.57 Q447.158 1575.15 441.347 1575.15 Q435.537 1575.15 432.459 1570.57 Q429.403 1565.96 429.403 1557.23 Q429.403 1548.48 432.459 1543.9 Q435.537 1539.29 441.347 1539.29 Z" fill="#000000" fill-rule="evenodd" fill-opacity="1" /><path clip-path="url(#clip990)" d="M 0 0 M458.361 1568.6 L463.245 1568.6 L463.245 1574.48 L458.361 1574.48 L458.361 1568.6 Z" fill="#000000" fill-rule="evenodd" fill-opacity="1" /><path clip-path="url(#clip990)" d="M 0 0 M481.162 1543.99 L469.356 1562.44 L481.162 1562.44 L481.162 1543.99 M479.935 1539.92 L485.815 1539.92 L485.815 1562.44 L490.745 1562.44 L490.745 1566.33 L485.815 1566.33 L485.815 1574.48 L481.162 1574.48 L481.162 1566.33 L465.56 1566.33 L465.56 1561.82 L479.935 1539.92 Z" fill="#000000" fill-rule="evenodd" fill-opacity="1" /><path clip-path="url(#clip990)" d="M 0 0 M824.424 1559.6 L836.9 1559.6 L836.9 1563.39 L824.424 1563.39 L824.424 1559.6 Z" fill="#000000" fill-rule="evenodd" fill-opacity="1" /><path clip-path="url(#clip990)" d="M 0 0 M851.97 1543 Q848.359 1543 846.53 1546.56 Q844.725 1550.11 844.725 1557.23 Q844.725 1564.34 846.53 1567.91 Q848.359 1571.45 851.97 1571.45 Q855.604 1571.45 857.41 1567.91 Q859.238 1564.34 859.238 1557.23 Q859.238 1550.11 857.41 1546.56 Q855.604 1543 851.97 1543 M851.97 1539.29 Q857.78 1539.29 860.836 1543.9 Q863.914 1548.48 863.914 1557.23 Q863.914 1565.96 860.836 1570.57 Q857.78 1575.15 851.97 1575.15 Q846.16 1575.15 843.081 1570.57 Q840.025 1565.96 840.025 1557.23 Q840.025 1548.48 843.081 1543.9 Q846.16 1539.29 851.97 1539.29 Z" fill="#000000" fill-rule="evenodd" fill-opacity="1" /><path clip-path="url(#clip990)" d="M 0 0 M868.984 1568.6 L873.868 1568.6 L873.868 1574.48 L868.984 1574.48 L868.984 1568.6 Z" fill="#000000" fill-rule="evenodd" fill-opacity="1" /><path clip-path="url(#clip990)" d="M 0 0 M882.965 1570.54 L899.284 1570.54 L899.284 1574.48 L877.34 1574.48 L877.34 1570.54 Q880.002 1567.79 884.585 1563.16 Q889.192 1558.51 890.372 1557.17 Q892.618 1554.64 893.497 1552.91 Q894.4 1551.15 894.4 1549.46 Q894.4 1546.7 892.456 1544.97 Q890.534 1543.23 887.433 1543.23 Q885.234 1543.23 882.78 1543.99 Q880.349 1544.76 877.572 1546.31 L877.572 1541.59 Q880.396 1540.45 882.849 1539.87 Q885.303 1539.29 887.34 1539.29 Q892.71 1539.29 895.905 1541.98 Q899.099 1544.67 899.099 1549.16 Q899.099 1551.29 898.289 1553.21 Q897.502 1555.1 895.396 1557.7 Q894.817 1558.37 891.715 1561.59 Q888.613 1564.78 882.965 1570.54 Z" fill="#000000" fill-rule="evenodd" fill-opacity="1" /><path clip-path="url(#clip990)" d="M 0 0 M1252.95 1543 Q1249.34 1543 1247.51 1546.56 Q1245.71 1550.11 1245.71 1557.23 Q1245.71 1564.34 1247.51 1567.91 Q1249.34 1571.45 1252.95 1571.45 Q1256.59 1571.45 1258.39 1567.91 Q1260.22 1564.34 1260.22 1557.23 Q1260.22 1550.11 1258.39 1546.56 Q1256.59 1543 1252.95 1543 M1252.95 1539.29 Q1258.76 1539.29 1261.82 1543.9 Q1264.9 1548.48 1264.9 1557.23 Q1264.9 1565.96 1261.82 1570.57 Q1258.76 1575.15 1252.95 1575.15 Q1247.14 1575.15 1244.06 1570.57 Q1241.01 1565.96 1241.01 1557.23 Q1241.01 1548.48 1244.06 1543.9 Q1247.14 1539.29 1252.95 1539.29 Z" fill="#000000" fill-rule="evenodd" fill-opacity="1" /><path clip-path="url(#clip990)" d="M 0 0 M1269.96 1568.6 L1274.85 1568.6 L1274.85 1574.48 L1269.96 1574.48 L1269.96 1568.6 Z" fill="#000000" fill-rule="evenodd" fill-opacity="1" /><path clip-path="url(#clip990)" d="M 0 0 M1289.92 1543 Q1286.31 1543 1284.48 1546.56 Q1282.67 1550.11 1282.67 1557.23 Q1282.67 1564.34 1284.48 1567.91 Q1286.31 1571.45 1289.92 1571.45 Q1293.55 1571.45 1295.36 1567.91 Q1297.19 1564.34 1297.19 1557.23 Q1297.19 1550.11 1295.36 1546.56 Q1293.55 1543 1289.92 1543 M1289.92 1539.29 Q1295.73 1539.29 1298.78 1543.9 Q1301.86 1548.48 1301.86 1557.23 Q1301.86 1565.96 1298.78 1570.57 Q1295.73 1575.15 1289.92 1575.15 Q1284.11 1575.15 1281.03 1570.57 Q1277.97 1565.96 1277.97 1557.23 Q1277.97 1548.48 1281.03 1543.9 Q1284.11 1539.29 1289.92 1539.29 Z" fill="#000000" fill-rule="evenodd" fill-opacity="1" /><path clip-path="url(#clip990)" d="M 0 0 M1663.33 1543 Q1659.72 1543 1657.89 1546.56 Q1656.09 1550.11 1656.09 1557.23 Q1656.09 1564.34 1657.89 1567.91 Q1659.72 1571.45 1663.33 1571.45 Q1666.96 1571.45 1668.77 1567.91 Q1670.6 1564.34 1670.6 1557.23 Q1670.6 1550.11 1668.77 1546.56 Q1666.96 1543 1663.33 1543 M1663.33 1539.29 Q1669.14 1539.29 1672.2 1543.9 Q1675.27 1548.48 1675.27 1557.23 Q1675.27 1565.96 1672.2 1570.57 Q1669.14 1575.15 1663.33 1575.15 Q1657.52 1575.15 1654.44 1570.57 Q1651.39 1565.96 1651.39 1557.23 Q1651.39 1548.48 1654.44 1543.9 Q1657.52 1539.29 1663.33 1539.29 Z" fill="#000000" fill-rule="evenodd" fill-opacity="1" /><path clip-path="url(#clip990)" d="M 0 0 M1680.34 1568.6 L1685.23 1568.6 L1685.23 1574.48 L1680.34 1574.48 L1680.34 1568.6 Z" fill="#000000" fill-rule="evenodd" fill-opacity="1" /><path clip-path="url(#clip990)" d="M 0 0 M1694.33 1570.54 L1710.65 1570.54 L1710.65 1574.48 L1688.7 1574.48 L1688.7 1570.54 Q1691.36 1567.79 1695.95 1563.16 Q1700.55 1558.51 1701.73 1557.17 Q1703.98 1554.64 1704.86 1552.91 Q1705.76 1551.15 1705.76 1549.46 Q1705.76 1546.7 1703.82 1544.97 Q1701.9 1543.23 1698.79 1543.23 Q1696.59 1543.23 1694.14 1543.99 Q1691.71 1544.76 1688.93 1546.31 L1688.93 1541.59 Q1691.76 1540.45 1694.21 1539.87 Q1696.66 1539.29 1698.7 1539.29 Q1704.07 1539.29 1707.27 1541.98 Q1710.46 1544.67 1710.46 1549.16 Q1710.46 1551.29 1709.65 1553.21 Q1708.86 1555.1 1706.76 1557.7 Q1706.18 1558.37 1703.08 1561.59 Q1699.97 1564.78 1694.33 1570.54 Z" fill="#000000" fill-rule="evenodd" fill-opacity="1" /><path clip-path="url(#clip990)" d="M 0 0 M2071.87 1543 Q2068.26 1543 2066.43 1546.56 Q2064.62 1550.11 2064.62 1557.23 Q2064.62 1564.34 2066.43 1567.91 Q2068.26 1571.45 2071.87 1571.45 Q2075.5 1571.45 2077.31 1567.91 Q2079.14 1564.34 2079.14 1557.23 Q2079.14 1550.11 2077.31 1546.56 Q2075.5 1543 2071.87 1543 M2071.87 1539.29 Q2077.68 1539.29 2080.74 1543.9 Q2083.81 1548.48 2083.81 1557.23 Q2083.81 1565.96 2080.74 1570.57 Q2077.68 1575.15 2071.87 1575.15 Q2066.06 1575.15 2062.98 1570.57 Q2059.93 1565.96 2059.93 1557.23 Q2059.93 1548.48 2062.98 1543.9 Q2066.06 1539.29 2071.87 1539.29 Z" fill="#000000" fill-rule="evenodd" fill-opacity="1" /><path clip-path="url(#clip990)" d="M 0 0 M2088.88 1568.6 L2093.77 1568.6 L2093.77 1574.48 L2088.88 1574.48 L2088.88 1568.6 Z" fill="#000000" fill-rule="evenodd" fill-opacity="1" /><path clip-path="url(#clip990)" d="M 0 0 M2111.68 1543.99 L2099.88 1562.44 L2111.68 1562.44 L2111.68 1543.99 M2110.46 1539.92 L2116.34 1539.92 L2116.34 1562.44 L2121.27 1562.44 L2121.27 1566.33 L2116.34 1566.33 L2116.34 1574.48 L2111.68 1574.48 L2111.68 1566.33 L2096.08 1566.33 L2096.08 1561.82 L2110.46 1539.92 Z" fill="#000000" fill-rule="evenodd" fill-opacity="1" /><path clip-path="url(#clip990)" d="M 0 0 M51.0477 1465.1 Q47.4367 1465.1 45.608 1468.66 Q43.8024 1472.2 43.8024 1479.33 Q43.8024 1486.44 45.608 1490 Q47.4367 1493.55 51.0477 1493.55 Q54.682 1493.55 56.4875 1490 Q58.3162 1486.44 58.3162 1479.33 Q58.3162 1472.2 56.4875 1468.66 Q54.682 1465.1 51.0477 1465.1 M51.0477 1461.39 Q56.8579 1461.39 59.9134 1466 Q62.9921 1470.58 62.9921 1479.33 Q62.9921 1488.06 59.9134 1492.67 Q56.8579 1497.25 51.0477 1497.25 Q45.2376 1497.25 42.1589 1492.67 Q39.1034 1488.06 39.1034 1479.33 Q39.1034 1470.58 42.1589 1466 Q45.2376 1461.39 51.0477 1461.39 Z" fill="#000000" fill-rule="evenodd" fill-opacity="1" /><path clip-path="url(#clip990)" d="M 0 0 M43.0848 1063.7 L50.7237 1063.7 L50.7237 1037.34 L42.4135 1039 L42.4135 1034.74 L50.6774 1033.08 L55.3533 1033.08 L55.3533 1063.7 L62.9921 1063.7 L62.9921 1067.64 L43.0848 1067.64 L43.0848 1063.7 Z" fill="#000000" fill-rule="evenodd" fill-opacity="1" /><path clip-path="url(#clip990)" d="M 0 0 M46.6728 634.761 L62.9921 634.761 L62.9921 638.696 L41.0478 638.696 L41.0478 634.761 Q43.7098 632.006 48.2931 627.376 Q52.8996 622.724 54.0801 621.381 Q56.3255 618.858 57.2051 617.122 Q58.1079 615.363 58.1079 613.673 Q58.1079 610.918 56.1635 609.182 Q54.2422 607.446 51.1403 607.446 Q48.9413 607.446 46.4876 608.21 Q44.057 608.974 41.2793 610.525 L41.2793 605.802 Q44.1033 604.668 46.557 604.089 Q49.0107 603.511 51.0477 603.511 Q56.4181 603.511 59.6125 606.196 Q62.8069 608.881 62.8069 613.372 Q62.8069 615.501 61.9968 617.423 Q61.2097 619.321 59.1033 621.913 Q58.5246 622.585 55.4227 625.802 Q52.3209 628.997 46.6728 634.761 Z" fill="#000000" fill-rule="evenodd" fill-opacity="1" /><path clip-path="url(#clip990)" d="M 0 0 M55.8625 191.121 Q59.219 191.838 61.094 194.107 Q62.9921 196.375 62.9921 199.709 Q62.9921 204.824 59.4736 207.625 Q55.9551 210.426 49.4737 210.426 Q47.2978 210.426 44.983 209.986 Q42.6913 209.57 40.2376 208.713 L40.2376 204.199 Q42.1821 205.334 44.4969 205.912 Q46.8117 206.491 49.3348 206.491 Q53.7329 206.491 56.0246 204.755 Q58.3394 203.019 58.3394 199.709 Q58.3394 196.653 56.1866 194.94 Q54.057 193.204 50.2376 193.204 L46.2098 193.204 L46.2098 189.361 L50.4227 189.361 Q53.8718 189.361 55.7005 187.996 Q57.5292 186.607 57.5292 184.014 Q57.5292 181.352 55.6311 179.94 Q53.7561 178.505 50.2376 178.505 Q48.3163 178.505 46.1172 178.922 Q43.9182 179.338 41.2793 180.218 L41.2793 176.051 Q43.9413 175.311 46.2561 174.94 Q48.5941 174.57 50.6542 174.57 Q55.9783 174.57 59.0801 177 Q62.1819 179.408 62.1819 183.528 Q62.1819 186.399 60.5384 188.389 Q58.8949 190.357 55.8625 191.121 Z" fill="#000000" fill-rule="evenodd" fill-opacity="1" /><path clip-path="url(#clip992)" d="
M151.118 1476.8 L156.759 1476.48 L162.4 1476.15 L168.042 1475.82 L173.683 1475.48 L179.324 1475.16 L184.965 1474.84 L190.607 1474.53 L196.248 1474.22 L201.889 1473.93 
  L207.531 1473.63 L213.172 1473.32 L218.813 1473.01 L224.455 1472.69 L230.096 1472.35 L235.737 1472.01 L241.379 1471.67 L247.02 1471.35 L252.661 1471.06 L258.303 1470.82 
  L263.944 1470.66 L269.585 1470.58 L275.227 1470.58 L280.868 1470.68 L286.509 1470.84 L292.151 1471.06 L297.792 1471.29 L303.433 1471.49 L309.075 1471.62 L314.716 1471.61 
  L320.357 1471.41 L325.999 1470.96 L331.64 1470.21 L337.281 1469.11 L342.923 1467.63 L348.564 1465.72 L354.205 1463.38 L359.847 1460.61 L365.488 1457.43 L371.129 1453.88 
  L376.771 1450.01 L382.412 1445.9 L388.053 1441.66 L393.695 1437.39 L399.336 1433.2 L404.977 1429.23 L410.619 1425.57 L416.26 1422.34 L421.901 1419.58 L427.543 1417.36 
  L433.184 1415.68 L438.825 1414.51 L444.467 1413.79 L450.108 1413.45 L455.749 1413.38 L461.391 1413.46 L467.032 1413.57 L472.673 1413.6 L478.315 1413.44 L483.956 1412.99 
  L489.597 1412.18 L495.239 1410.96 L500.88 1409.29 L506.521 1407.14 L512.163 1404.52 L517.804 1401.45 L523.445 1397.96 L529.087 1394.07 L534.728 1389.86 L540.369 1385.36 
  L546.011 1380.63 L551.652 1375.71 L557.293 1370.64 L562.935 1365.43 L568.576 1360.1 L574.217 1354.64 L579.859 1349.01 L585.5 1343.18 L591.141 1337.12 L596.783 1330.77 
  L602.424 1324.11 L608.065 1317.11 L613.707 1309.75 L619.348 1302.02 L624.989 1293.93 L630.631 1285.47 L636.272 1276.62 L641.913 1267.38 L647.555 1257.71 L653.196 1247.56 
  L658.837 1236.89 L664.479 1225.64 L670.12 1213.77 L675.761 1201.26 L681.403 1188.08 L687.044 1174.28 L692.685 1159.92 L698.327 1145.08 L703.968 1129.9 L709.609 1114.49 
  L709.609 1479.3 L703.968 1479.3 L698.327 1479.3 L692.685 1479.3 L687.044 1479.3 L681.403 1479.3 L675.761 1479.3 L670.12 1479.3 L664.479 1479.3 L658.837 1479.3 
  L653.196 1479.3 L647.555 1479.3 L641.913 1479.3 L636.272 1479.3 L630.631 1479.3 L624.989 1479.3 L619.348 1479.3 L613.707 1479.3 L608.065 1479.3 L602.424 1479.3 
  L596.783 1479.3 L591.141 1479.3 L585.5 1479.3 L579.859 1479.3 L574.217 1479.3 L568.576 1479.3 L562.935 1479.3 L557.293 1479.3 L551.652 1479.3 L546.011 1479.3 
  L540.369 1479.3 L534.728 1479.3 L529.087 1479.3 L523.445 1479.3 L517.804 1479.3 L512.163 1479.3 L506.521 1479.3 L500.88 1479.3 L495.239 1479.3 L489.597 1479.3 
  L483.956 1479.3 L478.315 1479.3 L472.673 1479.3 L467.032 1479.3 L461.391 1479.3 L455.749 1479.3 L450.108 1479.3 L444.467 1479.3 L438.825 1479.3 L433.184 1479.3 
  L427.543 1479.3 L421.901 1479.3 L416.26 1479.3 L410.619 1479.3 L404.977 1479.3 L399.336 1479.3 L393.695 1479.3 L388.053 1479.3 L382.412 1479.3 L376.771 1479.3 
  L371.129 1479.3 L365.488 1479.3 L359.847 1479.3 L354.205 1479.3 L348.564 1479.3 L342.923 1479.3 L337.281 1479.3 L331.64 1479.3 L325.999 1479.3 L320.357 1479.3 
  L314.716 1479.3 L309.075 1479.3 L303.433 1479.3 L297.792 1479.3 L292.151 1479.3 L286.509 1479.3 L280.868 1479.3 L275.227 1479.3 L269.585 1479.3 L263.944 1479.3 
  L258.303 1479.3 L252.661 1479.3 L247.02 1479.3 L241.379 1479.3 L235.737 1479.3 L230.096 1479.3 L224.455 1479.3 L218.813 1479.3 L213.172 1479.3 L207.531 1479.3 
  L201.889 1479.3 L196.248 1479.3 L190.607 1479.3 L184.965 1479.3 L179.324 1479.3 L173.683 1479.3 L168.042 1479.3 L162.4 1479.3 L156.759 1479.3 L151.118 1479.3 
   Z
  " fill="#ffa500" fill-rule="evenodd" fill-opacity="0.5"/>
<polyline clip-path="url(#clip992)" style="stroke:#ffa500; stroke-width:4; stroke-opacity:1; fill:none" points="
  151.118,1476.8 156.759,1476.48 162.4,1476.15 168.042,1475.82 173.683,1475.48 179.324,1475.16 184.965,1474.84 190.607,1474.53 196.248,1474.22 201.889,1473.93 
  207.531,1473.63 213.172,1473.32 218.813,1473.01 224.455,1472.69 230.096,1472.35 235.737,1472.01 241.379,1471.67 247.02,1471.35 252.661,1471.06 258.303,1470.82 
  263.944,1470.66 269.585,1470.58 275.227,1470.58 280.868,1470.68 286.509,1470.84 292.151,1471.06 297.792,1471.29 303.433,1471.49 309.075,1471.62 314.716,1471.61 
  320.357,1471.41 325.999,1470.96 331.64,1470.21 337.281,1469.11 342.923,1467.63 348.564,1465.72 354.205,1463.38 359.847,1460.61 365.488,1457.43 371.129,1453.88 
  376.771,1450.01 382.412,1445.9 388.053,1441.66 393.695,1437.39 399.336,1433.2 404.977,1429.23 410.619,1425.57 416.26,1422.34 421.901,1419.58 427.543,1417.36 
  433.184,1415.68 438.825,1414.51 444.467,1413.79 450.108,1413.45 455.749,1413.38 461.391,1413.46 467.032,1413.57 472.673,1413.6 478.315,1413.44 483.956,1412.99 
  489.597,1412.18 495.239,1410.96 500.88,1409.29 506.521,1407.14 512.163,1404.52 517.804,1401.45 523.445,1397.96 529.087,1394.07 534.728,1389.86 540.369,1385.36 
  546.011,1380.63 551.652,1375.71 557.293,1370.64 562.935,1365.43 568.576,1360.1 574.217,1354.64 579.859,1349.01 585.5,1343.18 591.141,1337.12 596.783,1330.77 
  602.424,1324.11 608.065,1317.11 613.707,1309.75 619.348,1302.02 624.989,1293.93 630.631,1285.47 636.272,1276.62 641.913,1267.38 647.555,1257.71 653.196,1247.56 
  658.837,1236.89 664.479,1225.64 670.12,1213.77 675.761,1201.26 681.403,1188.08 687.044,1174.28 692.685,1159.92 698.327,1145.08 703.968,1129.9 709.609,1114.49 
  
  "/>
<path clip-path="url(#clip992)" d="
M709.609 1114.49 L719.475 1087.46 L729.34 1060.84 L739.206 1035 L749.072 1009.98 L758.937 985.486 L768.803 961.048 L778.669 936.172 L788.534 910.482 L798.4 883.801 
  L808.266 856.217 L818.131 828.112 L827.997 800.165 L837.862 773.284 L847.728 748.419 L857.594 726.287 L867.459 707.09 L877.325 690.346 L887.191 674.948 L897.056 659.447 
  L906.922 642.471 L916.788 623.129 L926.653 601.234 L936.519 577.303 L946.385 552.341 L956.25 527.502 L966.116 503.747 L975.981 481.587 L985.847 460.944 L995.713 441.158 
  L1005.58 421.116 L1015.44 399.494 L1025.31 375.081 L1035.18 347.103 L1045.04 315.489 L1054.91 280.984 L1064.77 245.054 L1074.64 209.602 L1084.5 176.579 L1094.37 147.627 
  L1104.23 123.881 L1114.1 105.985 L1123.97 94.2678 L1133.83 88.9544 L1143.7 90.2665 L1153.56 98.3469 L1163.43 113.052 L1173.29 133.738 L1183.16 159.189 L1193.03 187.749 
  L1202.89 217.639 L1212.76 247.32 L1222.62 275.764 L1232.49 302.521 L1242.35 327.592 L1252.22 351.197 L1262.08 373.552 L1271.95 394.772 L1281.82 414.896 L1291.68 434.026 
  L1301.55 452.487 L1311.41 470.957 L1321.28 490.511 L1331.14 512.531 L1341.01 538.492 L1350.88 569.619 L1360.74 606.527 L1370.61 648.92 L1380.47 695.499 L1390.34 744.111 
  L1400.2 792.136 L1410.07 837.002 L1419.94 876.675 L1429.8 910.026 L1439.67 936.975 L1449.53 958.415 L1459.4 975.921 L1469.26 991.31 L1479.13 1006.14 L1488.99 1021.33 
  L1498.86 1036.95 L1508.73 1052.38 L1518.59 1066.67 L1528.46 1079.04 L1538.32 1089.28 L1548.19 1097.84 L1558.05 1105.7 L1567.92 1113.96 L1577.79 1123.42 L1587.65 1134.25 
  L1597.52 1145.99 L1607.38 1157.69 L1617.25 1168.31 L1627.11 1177.16 L1636.98 1184.21 L1646.84 1190.24 L1656.71 1196.57 L1666.58 1204.71 L1676.44 1215.79 L1686.31 1230.17 
  L1686.31 1479.3 L1676.44 1479.3 L1666.58 1479.3 L1656.71 1479.3 L1646.84 1479.3 L1636.98 1479.3 L1627.11 1479.3 L1617.25 1479.3 L1607.38 1479.3 L1597.52 1479.3 
  L1587.65 1479.3 L1577.79 1479.3 L1567.92 1479.3 L1558.05 1479.3 L1548.19 1479.3 L1538.32 1479.3 L1528.46 1479.3 L1518.59 1479.3 L1508.73 1479.3 L1498.86 1479.3 
  L1488.99 1479.3 L1479.13 1479.3 L1469.26 1479.3 L1459.4 1479.3 L1449.53 1479.3 L1439.67 1479.3 L1429.8 1479.3 L1419.94 1479.3 L1410.07 1479.3 L1400.2 1479.3 
  L1390.34 1479.3 L1380.47 1479.3 L1370.61 1479.3 L1360.74 1479.3 L1350.88 1479.3 L1341.01 1479.3 L1331.14 1479.3 L1321.28 1479.3 L1311.41 1479.3 L1301.55 1479.3 
  L1291.68 1479.3 L1281.82 1479.3 L1271.95 1479.3 L1262.08 1479.3 L1252.22 1479.3 L1242.35 1479.3 L1232.49 1479.3 L1222.62 1479.3 L1212.76 1479.3 L1202.89 1479.3 
  L1193.03 1479.3 L1183.16 1479.3 L1173.29 1479.3 L1163.43 1479.3 L1153.56 1479.3 L1143.7 1479.3 L1133.83 1479.3 L1123.97 1479.3 L1114.1 1479.3 L1104.23 1479.3 
  L1094.37 1479.3 L1084.5 1479.3 L1074.64 1479.3 L1064.77 1479.3 L1054.91 1479.3 L1045.04 1479.3 L1035.18 1479.3 L1025.31 1479.3 L1015.44 1479.3 L1005.58 1479.3 
  L995.713 1479.3 L985.847 1479.3 L975.981 1479.3 L966.116 1479.3 L956.25 1479.3 L946.385 1479.3 L936.519 1479.3 L926.653 1479.3 L916.788 1479.3 L906.922 1479.3 
  L897.056 1479.3 L887.191 1479.3 L877.325 1479.3 L867.459 1479.3 L857.594 1479.3 L847.728 1479.3 L837.862 1479.3 L827.997 1479.3 L818.131 1479.3 L808.266 1479.3 
  L798.4 1479.3 L788.534 1479.3 L778.669 1479.3 L768.803 1479.3 L758.937 1479.3 L749.072 1479.3 L739.206 1479.3 L729.34 1479.3 L719.475 1479.3 L709.609 1479.3 
   Z
  " fill="#008000" fill-rule="evenodd" fill-opacity="0.5"/>
<polyline clip-path="url(#clip992)" style="stroke:#008000; stroke-width:4; stroke-opacity:1; fill:none" points="
  709.609,1114.49 719.475,1087.46 729.34,1060.84 739.206,1035 749.072,1009.98 758.937,985.486 768.803,961.048 778.669,936.172 788.534,910.482 798.4,883.801 
  808.266,856.217 818.131,828.112 827.997,800.165 837.862,773.284 847.728,748.419 857.594,726.287 867.459,707.09 877.325,690.346 887.191,674.948 897.056,659.447 
  906.922,642.471 916.788,623.129 926.653,601.234 936.519,577.303 946.385,552.341 956.25,527.502 966.116,503.747 975.981,481.587 985.847,460.944 995.713,441.158 
  1005.58,421.116 1015.44,399.494 1025.31,375.081 1035.18,347.103 1045.04,315.489 1054.91,280.984 1064.77,245.054 1074.64,209.602 1084.5,176.579 1094.37,147.627 
  1104.23,123.881 1114.1,105.985 1123.97,94.2678 1133.83,88.9544 1143.7,90.2665 1153.56,98.3469 1163.43,113.052 1173.29,133.738 1183.16,159.189 1193.03,187.749 
  1202.89,217.639 1212.76,247.32 1222.62,275.764 1232.49,302.521 1242.35,327.592 1252.22,351.197 1262.08,373.552 1271.95,394.772 1281.82,414.896 1291.68,434.026 
  1301.55,452.487 1311.41,470.957 1321.28,490.511 1331.14,512.531 1341.01,538.492 1350.88,569.619 1360.74,606.527 1370.61,648.92 1380.47,695.499 1390.34,744.111 
  1400.2,792.136 1410.07,837.002 1419.94,876.675 1429.8,910.026 1439.67,936.975 1449.53,958.415 1459.4,975.921 1469.26,991.31 1479.13,1006.14 1488.99,1021.33 
  1498.86,1036.95 1508.73,1052.38 1518.59,1066.67 1528.46,1079.04 1538.32,1089.28 1548.19,1097.84 1558.05,1105.7 1567.92,1113.96 1577.79,1123.42 1587.65,1134.25 
  1597.52,1145.99 1607.38,1157.69 1617.25,1168.31 1627.11,1177.16 1636.98,1184.21 1646.84,1190.24 1656.71,1196.57 1666.58,1204.71 1676.44,1215.79 1686.31,1230.17 
  
  "/>
<path clip-path="url(#clip992)" d="
M1686.31 1230.17 L1692.39 1240.49 L1698.48 1251.6 L1704.56 1263.14 L1710.64 1274.75 L1716.73 1286.04 L1722.81 1296.7 L1728.9 1306.48 L1734.98 1315.25 L1741.06 1322.95 
  L1747.15 1329.65 L1753.23 1335.46 L1759.32 1340.58 L1765.4 1345.2 L1771.48 1349.56 L1777.57 1353.84 L1783.65 1358.19 L1789.74 1362.74 L1795.82 1367.5 L1801.9 1372.46 
  L1807.99 1377.51 L1814.07 1382.52 L1820.16 1387.3 L1826.24 1391.65 L1832.33 1395.4 L1838.41 1398.37 L1844.49 1400.46 L1850.58 1401.6 L1856.66 1401.81 L1862.75 1401.15 
  L1868.83 1399.76 L1874.91 1397.81 L1881 1395.53 L1887.08 1393.14 L1893.17 1390.88 L1899.25 1388.99 L1905.33 1387.67 L1911.42 1387.07 L1917.5 1387.33 L1923.59 1388.5 
  L1929.67 1390.6 L1935.75 1393.6 L1941.84 1397.41 L1947.92 1401.88 L1954.01 1406.87 L1960.09 1412.18 L1966.17 1417.62 L1972.26 1423.01 L1978.34 1428.16 L1984.43 1432.91 
  L1990.51 1437.12 L1996.6 1440.68 L2002.68 1443.51 L2008.76 1445.52 L2014.85 1446.66 L2020.93 1446.89 L2027.02 1446.2 L2033.1 1444.58 L2039.18 1442.07 L2045.27 1438.72 
  L2051.35 1434.63 L2057.44 1429.96 L2063.52 1424.88 L2069.6 1419.63 L2075.69 1414.44 L2081.77 1409.59 L2087.86 1405.33 L2093.94 1401.89 L2100.02 1399.45 L2106.11 1398.15 
  L2112.19 1398.05 L2118.28 1399.13 L2124.36 1401.32 L2130.44 1404.5 L2136.53 1408.48 L2142.61 1413.06 L2148.7 1418.05 L2154.78 1423.23 L2160.87 1428.44 L2166.95 1433.53 
  L2173.03 1438.39 L2179.12 1442.92 L2185.2 1447.07 L2191.29 1450.8 L2197.37 1454.08 L2203.45 1456.89 L2209.54 1459.21 L2215.62 1461.04 L2221.71 1462.37 L2227.79 1463.21 
  L2233.87 1463.58 L2239.96 1463.52 L2246.04 1463.11 L2252.13 1462.43 L2258.21 1461.6 L2264.29 1460.74 L2270.38 1459.97 L2276.46 1459.4 L2282.55 1459.13 L2288.63 1459.22 
  L2288.63 1479.3 L2282.55 1479.3 L2276.46 1479.3 L2270.38 1479.3 L2264.29 1479.3 L2258.21 1479.3 L2252.13 1479.3 L2246.04 1479.3 L2239.96 1479.3 L2233.87 1479.3 
  L2227.79 1479.3 L2221.71 1479.3 L2215.62 1479.3 L2209.54 1479.3 L2203.45 1479.3 L2197.37 1479.3 L2191.29 1479.3 L2185.2 1479.3 L2179.12 1479.3 L2173.03 1479.3 
  L2166.95 1479.3 L2160.87 1479.3 L2154.78 1479.3 L2148.7 1479.3 L2142.61 1479.3 L2136.53 1479.3 L2130.44 1479.3 L2124.36 1479.3 L2118.28 1479.3 L2112.19 1479.3 
  L2106.11 1479.3 L2100.02 1479.3 L2093.94 1479.3 L2087.86 1479.3 L2081.77 1479.3 L2075.69 1479.3 L2069.6 1479.3 L2063.52 1479.3 L2057.44 1479.3 L2051.35 1479.3 
  L2045.27 1479.3 L2039.18 1479.3 L2033.1 1479.3 L2027.02 1479.3 L2020.93 1479.3 L2014.85 1479.3 L2008.76 1479.3 L2002.68 1479.3 L1996.6 1479.3 L1990.51 1479.3 
  L1984.43 1479.3 L1978.34 1479.3 L1972.26 1479.3 L1966.17 1479.3 L1960.09 1479.3 L1954.01 1479.3 L1947.92 1479.3 L1941.84 1479.3 L1935.75 1479.3 L1929.67 1479.3 
  L1923.59 1479.3 L1917.5 1479.3 L1911.42 1479.3 L1905.33 1479.3 L1899.25 1479.3 L1893.17 1479.3 L1887.08 1479.3 L1881 1479.3 L1874.91 1479.3 L1868.83 1479.3 
  L1862.75 1479.3 L1856.66 1479.3 L1850.58 1479.3 L1844.49 1479.3 L1838.41 1479.3 L1832.33 1479.3 L1826.24 1479.3 L1820.16 1479.3 L1814.07 1479.3 L1807.99 1479.3 
  L1801.9 1479.3 L1795.82 1479.3 L1789.74 1479.3 L1783.65 1479.3 L1777.57 1479.3 L1771.48 1479.3 L1765.4 1479.3 L1759.32 1479.3 L1753.23 1479.3 L1747.15 1479.3 
  L1741.06 1479.3 L1734.98 1479.3 L1728.9 1479.3 L1722.81 1479.3 L1716.73 1479.3 L1710.64 1479.3 L1704.56 1479.3 L1698.48 1479.3 L1692.39 1479.3 L1686.31 1479.3 
   Z
  " fill="#ffa500" fill-rule="evenodd" fill-opacity="0.5"/>
<polyline clip-path="url(#clip992)" style="stroke:#ffa500; stroke-width:4; stroke-opacity:1; fill:none" points="
  1686.31,1230.17 1692.39,1240.49 1698.48,1251.6 1704.56,1263.14 1710.64,1274.75 1716.73,1286.04 1722.81,1296.7 1728.9,1306.48 1734.98,1315.25 1741.06,1322.95 
  1747.15,1329.65 1753.23,1335.46 1759.32,1340.58 1765.4,1345.2 1771.48,1349.56 1777.57,1353.84 1783.65,1358.19 1789.74,1362.74 1795.82,1367.5 1801.9,1372.46 
  1807.99,1377.51 1814.07,1382.52 1820.16,1387.3 1826.24,1391.65 1832.33,1395.4 1838.41,1398.37 1844.49,1400.46 1850.58,1401.6 1856.66,1401.81 1862.75,1401.15 
  1868.83,1399.76 1874.91,1397.81 1881,1395.53 1887.08,1393.14 1893.17,1390.88 1899.25,1388.99 1905.33,1387.67 1911.42,1387.07 1917.5,1387.33 1923.59,1388.5 
  1929.67,1390.6 1935.75,1393.6 1941.84,1397.41 1947.92,1401.88 1954.01,1406.87 1960.09,1412.18 1966.17,1417.62 1972.26,1423.01 1978.34,1428.16 1984.43,1432.91 
  1990.51,1437.12 1996.6,1440.68 2002.68,1443.51 2008.76,1445.52 2014.85,1446.66 2020.93,1446.89 2027.02,1446.2 2033.1,1444.58 2039.18,1442.07 2045.27,1438.72 
  2051.35,1434.63 2057.44,1429.96 2063.52,1424.88 2069.6,1419.63 2075.69,1414.44 2081.77,1409.59 2087.86,1405.33 2093.94,1401.89 2100.02,1399.45 2106.11,1398.15 
  2112.19,1398.05 2118.28,1399.13 2124.36,1401.32 2130.44,1404.5 2136.53,1408.48 2142.61,1413.06 2148.7,1418.05 2154.78,1423.23 2160.87,1428.44 2166.95,1433.53 
  2173.03,1438.39 2179.12,1442.92 2185.2,1447.07 2191.29,1450.8 2197.37,1454.08 2203.45,1456.89 2209.54,1459.21 2215.62,1461.04 2221.71,1462.37 2227.79,1463.21 
  2233.87,1463.58 2239.96,1463.52 2246.04,1463.11 2252.13,1462.43 2258.21,1461.6 2264.29,1460.74 2270.38,1459.97 2276.46,1459.4 2282.55,1459.13 2288.63,1459.22 
  
  "/>
<polyline clip-path="url(#clip992)" style="stroke:#0000ff; stroke-width:4; stroke-opacity:1; fill:none" points="
  1164.74,1479.3 1164.74,115.47 
  "/>
<polyline clip-path="url(#clip992)" style="stroke:#000000; stroke-width:4; stroke-opacity:1; fill:none" points="
  1146.44,1479.3 1146.44,91.8345 
  "/>
<path clip-path="url(#clip990)" d="
M1494.58 459.25 L2277.23 459.25 L2277.23 96.3696 L1494.58 96.3696  Z
  " fill="#ffffff" fill-rule="evenodd" fill-opacity="1"/>
<polyline clip-path="url(#clip990)" style="stroke:#000000; stroke-width:4; stroke-opacity:1; fill:none" points="
  1494.58,459.25 2277.23,459.25 2277.23,96.3696 1494.58,96.3696 1494.58,459.25 
  "/>
<path clip-path="url(#clip990)" d="
M1519.75 181.042 L1670.81 181.042 L1670.81 132.658 L1519.75 132.658 L1519.75 181.042  Z
  " fill="#ffa500" fill-rule="evenodd" fill-opacity="0.5"/>
<polyline clip-path="url(#clip990)" style="stroke:#ffa500; stroke-width:4; stroke-opacity:1; fill:none" points="
  1519.75,132.658 1670.81,132.658 
  "/>
<path clip-path="url(#clip990)" d="M 0 0 M1700.38 161.19 Q1700.38 165.889 1702.3 168.574 Q1704.24 171.236 1707.62 171.236 Q1711 171.236 1712.95 168.574 Q1714.89 165.889 1714.89 161.19 Q1714.89 156.491 1712.95 153.829 Q1711 151.144 1707.62 151.144 Q1704.24 151.144 1702.3 153.829 Q1700.38 156.491 1700.38 161.19 M1714.89 170.241 Q1713.55 172.555 1711.49 173.69 Q1709.45 174.801 1706.58 174.801 Q1701.88 174.801 1698.92 171.051 Q1695.98 167.301 1695.98 161.19 Q1695.98 155.079 1698.92 151.329 Q1701.88 147.579 1706.58 147.579 Q1709.45 147.579 1711.49 148.713 Q1713.55 149.824 1714.89 152.139 L1714.89 148.204 L1719.15 148.204 L1719.15 183.991 L1714.89 183.991 L1714.89 170.241 Z" fill="#000000" fill-rule="evenodd" fill-opacity="1" /><path clip-path="url(#clip990)" d="M 0 0 M1734.22 142.648 Q1730.61 142.648 1728.78 146.213 Q1726.98 149.755 1726.98 156.884 Q1726.98 163.991 1728.78 167.556 Q1730.61 171.097 1734.22 171.097 Q1737.85 171.097 1739.66 167.556 Q1741.49 163.991 1741.49 156.884 Q1741.49 149.755 1739.66 146.213 Q1737.85 142.648 1734.22 142.648 M1734.22 138.945 Q1740.03 138.945 1743.09 143.551 Q1746.17 148.134 1746.17 156.884 Q1746.17 165.611 1743.09 170.218 Q1740.03 174.801 1734.22 174.801 Q1728.41 174.801 1725.33 170.218 Q1722.28 165.611 1722.28 156.884 Q1722.28 148.134 1725.33 143.551 Q1728.41 138.945 1734.22 138.945 Z" fill="#000000" fill-rule="evenodd" fill-opacity="1" /><path clip-path="url(#clip990)" d="M 0 0 M1751.28 139.57 L1769.64 139.57 L1769.64 143.505 L1755.56 143.505 L1755.56 151.977 Q1756.58 151.63 1757.6 151.468 Q1758.62 151.282 1759.64 151.282 Q1765.42 151.282 1768.8 154.454 Q1772.18 157.625 1772.18 163.042 Q1772.18 168.62 1768.71 171.722 Q1765.24 174.801 1758.92 174.801 Q1756.74 174.801 1754.48 174.43 Q1752.23 174.06 1749.82 173.319 L1749.82 168.62 Q1751.91 169.755 1754.13 170.31 Q1756.35 170.866 1758.83 170.866 Q1762.83 170.866 1765.17 168.759 Q1767.51 166.653 1767.51 163.042 Q1767.51 159.431 1765.17 157.324 Q1762.83 155.218 1758.83 155.218 Q1756.95 155.218 1755.08 155.634 Q1753.23 156.051 1751.28 156.931 L1751.28 139.57 Z" fill="#000000" fill-rule="evenodd" fill-opacity="1" /><path clip-path="url(#clip990)" d="
M1519.75 241.522 L1670.81 241.522 L1670.81 193.138 L1519.75 193.138 L1519.75 241.522  Z
  " fill="#008000" fill-rule="evenodd" fill-opacity="0.5"/>
<polyline clip-path="url(#clip990)" style="stroke:#008000; stroke-width:4; stroke-opacity:1; fill:none" points="
  1519.75,193.138 1670.81,193.138 
  "/>
<path clip-path="url(#clip990)" d="M 0 0 M1698.2 233.892 L1698.2 229.633 Q1699.96 230.466 1701.77 230.906 Q1703.57 231.346 1705.31 231.346 Q1709.94 231.346 1712.37 228.244 Q1714.82 225.119 1715.17 218.776 Q1713.83 220.767 1711.77 221.832 Q1709.71 222.897 1707.21 222.897 Q1702.02 222.897 1698.99 219.772 Q1695.98 216.624 1695.98 211.184 Q1695.98 205.86 1699.13 202.642 Q1702.28 199.425 1707.51 199.425 Q1713.5 199.425 1716.65 204.031 Q1719.82 208.614 1719.82 217.364 Q1719.82 225.536 1715.93 230.42 Q1712.07 235.281 1705.52 235.281 Q1703.76 235.281 1701.95 234.934 Q1700.15 234.586 1698.2 233.892 M1707.51 219.239 Q1710.66 219.239 1712.48 217.086 Q1714.34 214.934 1714.34 211.184 Q1714.34 207.457 1712.48 205.304 Q1710.66 203.128 1707.51 203.128 Q1704.36 203.128 1702.51 205.304 Q1700.68 207.457 1700.68 211.184 Q1700.68 214.934 1702.51 217.086 Q1704.36 219.239 1707.51 219.239 Z" fill="#000000" fill-rule="evenodd" fill-opacity="1" /><path clip-path="url(#clip990)" d="M 0 0 M1734.89 203.128 Q1731.28 203.128 1729.45 206.693 Q1727.65 210.235 1727.65 217.364 Q1727.65 224.471 1729.45 228.036 Q1731.28 231.577 1734.89 231.577 Q1738.53 231.577 1740.33 228.036 Q1742.16 224.471 1742.16 217.364 Q1742.16 210.235 1740.33 206.693 Q1738.53 203.128 1734.89 203.128 M1734.89 199.425 Q1740.7 199.425 1743.76 204.031 Q1746.84 208.614 1746.84 217.364 Q1746.84 226.091 1743.76 230.698 Q1740.7 235.281 1734.89 235.281 Q1729.08 235.281 1726 230.698 Q1722.95 226.091 1722.95 217.364 Q1722.95 208.614 1726 204.031 Q1729.08 199.425 1734.89 199.425 Z" fill="#000000" fill-rule="evenodd" fill-opacity="1" /><path clip-path="url(#clip990)" d="M 0 0 M1781.3 219.401 Q1779.29 219.401 1778.13 221.114 Q1777 222.827 1777 225.883 Q1777 228.892 1778.13 230.628 Q1779.29 232.341 1781.3 232.341 Q1783.27 232.341 1784.41 230.628 Q1785.56 228.892 1785.56 225.883 Q1785.56 222.85 1784.41 221.137 Q1783.27 219.401 1781.3 219.401 M1781.3 216.462 Q1784.96 216.462 1787.11 219.008 Q1789.27 221.554 1789.27 225.883 Q1789.27 230.211 1787.09 232.758 Q1784.94 235.281 1781.3 235.281 Q1777.6 235.281 1775.45 232.758 Q1773.29 230.211 1773.29 225.883 Q1773.29 221.531 1775.45 219.008 Q1777.62 216.462 1781.3 216.462 M1757.42 202.364 Q1755.42 202.364 1754.27 204.1 Q1753.13 205.813 1753.13 208.823 Q1753.13 211.878 1754.27 213.591 Q1755.4 215.304 1757.42 215.304 Q1759.43 215.304 1760.56 213.591 Q1761.72 211.878 1761.72 208.823 Q1761.72 205.837 1760.56 204.1 Q1759.41 202.364 1757.42 202.364 M1778.32 199.425 L1782.02 199.425 L1760.4 235.281 L1756.7 235.281 L1778.32 199.425 M1757.42 199.425 Q1761.07 199.425 1763.25 201.971 Q1765.42 204.494 1765.42 208.823 Q1765.42 213.198 1763.25 215.721 Q1761.1 218.244 1757.42 218.244 Q1753.73 218.244 1751.58 215.721 Q1749.45 213.174 1749.45 208.823 Q1749.45 204.517 1751.6 201.971 Q1753.76 199.425 1757.42 199.425 Z" fill="#000000" fill-rule="evenodd" fill-opacity="1" /><path clip-path="url(#clip990)" d="M 0 0 M1830.35 218.961 L1830.35 234.61 L1826.1 234.61 L1826.1 219.1 Q1826.1 215.42 1824.66 213.591 Q1823.22 211.762 1820.35 211.762 Q1816.91 211.762 1814.91 213.962 Q1812.92 216.161 1812.92 219.957 L1812.92 234.61 L1808.64 234.61 L1808.64 208.684 L1812.92 208.684 L1812.92 212.712 Q1814.45 210.374 1816.51 209.216 Q1818.6 208.059 1821.3 208.059 Q1825.77 208.059 1828.06 210.837 Q1830.35 213.591 1830.35 218.961 Z" fill="#000000" fill-rule="evenodd" fill-opacity="1" /><path clip-path="url(#clip990)" d="M 0 0 M1844.87 211.67 Q1841.44 211.67 1839.45 214.355 Q1837.46 217.017 1837.46 221.67 Q1837.46 226.323 1839.43 229.008 Q1841.42 231.67 1844.87 231.67 Q1848.27 231.67 1850.26 228.985 Q1852.25 226.299 1852.25 221.67 Q1852.25 217.063 1850.26 214.378 Q1848.27 211.67 1844.87 211.67 M1844.87 208.059 Q1850.42 208.059 1853.6 211.67 Q1856.77 215.281 1856.77 221.67 Q1856.77 228.036 1853.6 231.67 Q1850.42 235.281 1844.87 235.281 Q1839.29 235.281 1836.12 231.67 Q1832.97 228.036 1832.97 221.67 Q1832.97 215.281 1836.12 211.67 Q1839.29 208.059 1844.87 208.059 Z" fill="#000000" fill-rule="evenodd" fill-opacity="1" /><path clip-path="url(#clip990)" d="M 0 0 M1882.78 218.961 L1882.78 234.61 L1878.53 234.61 L1878.53 219.1 Q1878.53 215.42 1877.09 213.591 Q1875.66 211.762 1872.78 211.762 Q1869.34 211.762 1867.35 213.962 Q1865.35 216.161 1865.35 219.957 L1865.35 234.61 L1861.07 234.61 L1861.07 208.684 L1865.35 208.684 L1865.35 212.712 Q1866.88 210.374 1868.94 209.216 Q1871.03 208.059 1873.73 208.059 Q1878.2 208.059 1880.49 210.837 Q1882.78 213.591 1882.78 218.961 Z" fill="#000000" fill-rule="evenodd" fill-opacity="1" /><path clip-path="url(#clip990)" d="M 0 0 M1885.1 219.725 L1897.58 219.725 L1897.58 223.522 L1885.1 223.522 L1885.1 219.725 Z" fill="#000000" fill-rule="evenodd" fill-opacity="1" /><path clip-path="url(#clip990)" d="M 0 0 M1917.07 212.665 Q1916.35 212.249 1915.49 212.063 Q1914.66 211.855 1913.64 211.855 Q1910.03 211.855 1908.09 214.216 Q1906.16 216.554 1906.16 220.952 L1906.16 234.61 L1901.88 234.61 L1901.88 208.684 L1906.16 208.684 L1906.16 212.712 Q1907.51 210.35 1909.66 209.216 Q1911.81 208.059 1914.89 208.059 Q1915.33 208.059 1915.86 208.128 Q1916.4 208.175 1917.04 208.29 L1917.07 212.665 Z" fill="#000000" fill-rule="evenodd" fill-opacity="1" /><path clip-path="url(#clip990)" d="M 0 0 M1942.67 220.582 L1942.67 222.665 L1923.09 222.665 Q1923.36 227.063 1925.72 229.378 Q1928.11 231.67 1932.34 231.67 Q1934.8 231.67 1937.09 231.068 Q1939.4 230.466 1941.67 229.262 L1941.67 233.29 Q1939.38 234.262 1936.97 234.772 Q1934.57 235.281 1932.09 235.281 Q1925.89 235.281 1922.25 231.67 Q1918.64 228.059 1918.64 221.901 Q1918.64 215.536 1922.07 211.809 Q1925.52 208.059 1931.35 208.059 Q1936.58 208.059 1939.61 211.438 Q1942.67 214.795 1942.67 220.582 M1938.41 219.332 Q1938.36 215.837 1936.44 213.753 Q1934.54 211.67 1931.4 211.67 Q1927.83 211.67 1925.68 213.684 Q1923.55 215.698 1923.22 219.355 L1938.41 219.332 Z" fill="#000000" fill-rule="evenodd" fill-opacity="1" /><path clip-path="url(#clip990)" d="M 0 0 M1947.14 208.684 L1951.4 208.684 L1951.4 235.073 Q1951.4 240.026 1949.5 242.248 Q1947.62 244.471 1943.43 244.471 L1941.81 244.471 L1941.81 240.86 L1942.95 240.86 Q1945.38 240.86 1946.26 239.725 Q1947.14 238.614 1947.14 235.073 L1947.14 208.684 M1947.14 198.591 L1951.4 198.591 L1951.4 203.985 L1947.14 203.985 L1947.14 198.591 Z" fill="#000000" fill-rule="evenodd" fill-opacity="1" /><path clip-path="url(#clip990)" d="M 0 0 M1978.04 220.582 L1978.04 222.665 L1958.46 222.665 Q1958.73 227.063 1961.09 229.378 Q1963.48 231.67 1967.71 231.67 Q1970.17 231.67 1972.46 231.068 Q1974.78 230.466 1977.04 229.262 L1977.04 233.29 Q1974.75 234.262 1972.34 234.772 Q1969.94 235.281 1967.46 235.281 Q1961.26 235.281 1957.62 231.67 Q1954.01 228.059 1954.01 221.901 Q1954.01 215.536 1957.44 211.809 Q1960.89 208.059 1966.72 208.059 Q1971.95 208.059 1974.98 211.438 Q1978.04 214.795 1978.04 220.582 M1973.78 219.332 Q1973.73 215.837 1971.81 213.753 Q1969.91 211.67 1966.77 211.67 Q1963.2 211.67 1961.05 213.684 Q1958.92 215.698 1958.59 219.355 L1973.78 219.332 Z" fill="#000000" fill-rule="evenodd" fill-opacity="1" /><path clip-path="url(#clip990)" d="M 0 0 M2001.16 209.679 L2001.16 213.661 Q1999.36 212.665 1997.53 212.179 Q1995.72 211.67 1993.87 211.67 Q1989.73 211.67 1987.44 214.309 Q1985.15 216.924 1985.15 221.67 Q1985.15 226.415 1987.44 229.054 Q1989.73 231.67 1993.87 231.67 Q1995.72 231.67 1997.53 231.184 Q1999.36 230.674 2001.16 229.679 L2001.16 233.614 Q1999.38 234.448 1997.46 234.864 Q1995.56 235.281 1993.41 235.281 Q1987.55 235.281 1984.1 231.6 Q1980.65 227.92 1980.65 221.67 Q1980.65 215.327 1984.13 211.693 Q1987.62 208.059 1993.69 208.059 Q1995.65 208.059 1997.53 208.475 Q1999.4 208.869 2001.16 209.679 Z" fill="#000000" fill-rule="evenodd" fill-opacity="1" /><path clip-path="url(#clip990)" d="M 0 0 M2009.84 201.323 L2009.84 208.684 L2018.62 208.684 L2018.62 211.994 L2009.84 211.994 L2009.84 226.068 Q2009.84 229.239 2010.7 230.142 Q2011.58 231.045 2014.24 231.045 L2018.62 231.045 L2018.62 234.61 L2014.24 234.61 Q2009.31 234.61 2007.44 232.781 Q2005.56 230.929 2005.56 226.068 L2005.56 211.994 L2002.44 211.994 L2002.44 208.684 L2005.56 208.684 L2005.56 201.323 L2009.84 201.323 Z" fill="#000000" fill-rule="evenodd" fill-opacity="1" /><path clip-path="url(#clip990)" d="M 0 0 M2023.08 208.684 L2027.34 208.684 L2027.34 234.61 L2023.08 234.61 L2023.08 208.684 M2023.08 198.591 L2027.34 198.591 L2027.34 203.985 L2023.08 203.985 L2023.08 198.591 Z" fill="#000000" fill-rule="evenodd" fill-opacity="1" /><path clip-path="url(#clip990)" d="M 0 0 M2041.86 211.67 Q2038.43 211.67 2036.44 214.355 Q2034.45 217.017 2034.45 221.67 Q2034.45 226.323 2036.42 229.008 Q2038.41 231.67 2041.86 231.67 Q2045.26 231.67 2047.25 228.985 Q2049.24 226.299 2049.24 221.67 Q2049.24 217.063 2047.25 214.378 Q2045.26 211.67 2041.86 211.67 M2041.86 208.059 Q2047.41 208.059 2050.58 211.67 Q2053.76 215.281 2053.76 221.67 Q2053.76 228.036 2050.58 231.67 Q2047.41 235.281 2041.86 235.281 Q2036.28 235.281 2033.11 231.67 Q2029.96 228.036 2029.96 221.67 Q2029.96 215.281 2033.11 211.67 Q2036.28 208.059 2041.86 208.059 Z" fill="#000000" fill-rule="evenodd" fill-opacity="1" /><path clip-path="url(#clip990)" d="M 0 0 M2079.77 218.961 L2079.77 234.61 L2075.52 234.61 L2075.52 219.1 Q2075.52 215.42 2074.08 213.591 Q2072.64 211.762 2069.77 211.762 Q2066.33 211.762 2064.33 213.962 Q2062.34 216.161 2062.34 219.957 L2062.34 234.61 L2058.06 234.61 L2058.06 208.684 L2062.34 208.684 L2062.34 212.712 Q2063.87 210.374 2065.93 209.216 Q2068.02 208.059 2070.72 208.059 Q2075.19 208.059 2077.48 210.837 Q2079.77 213.591 2079.77 218.961 Z" fill="#000000" fill-rule="evenodd" fill-opacity="1" /><path clip-path="url(#clip990)" d="M 0 0 M2114.33 212.665 Q2113.62 212.249 2112.76 212.063 Q2111.93 211.855 2110.91 211.855 Q2107.3 211.855 2105.35 214.216 Q2103.43 216.554 2103.43 220.952 L2103.43 234.61 L2099.15 234.61 L2099.15 208.684 L2103.43 208.684 L2103.43 212.712 Q2104.77 210.35 2106.93 209.216 Q2109.08 208.059 2112.16 208.059 Q2112.6 208.059 2113.13 208.128 Q2113.66 208.175 2114.31 208.29 L2114.33 212.665 Z" fill="#000000" fill-rule="evenodd" fill-opacity="1" /><path clip-path="url(#clip990)" d="M 0 0 M2139.94 220.582 L2139.94 222.665 L2120.35 222.665 Q2120.63 227.063 2122.99 229.378 Q2125.38 231.67 2129.61 231.67 Q2132.07 231.67 2134.36 231.068 Q2136.67 230.466 2138.94 229.262 L2138.94 233.29 Q2136.65 234.262 2134.24 234.772 Q2131.83 235.281 2129.36 235.281 Q2123.15 235.281 2119.52 231.67 Q2115.91 228.059 2115.91 221.901 Q2115.91 215.536 2119.33 211.809 Q2122.78 208.059 2128.62 208.059 Q2133.85 208.059 2136.88 211.438 Q2139.94 214.795 2139.94 220.582 M2135.68 219.332 Q2135.63 215.837 2133.71 213.753 Q2131.81 211.67 2128.66 211.67 Q2125.1 211.67 2122.95 213.684 Q2120.82 215.698 2120.49 219.355 L2135.68 219.332 Z" fill="#000000" fill-rule="evenodd" fill-opacity="1" /><path clip-path="url(#clip990)" d="M 0 0 M2161.46 221.346 Q2161.46 216.716 2159.54 214.17 Q2157.64 211.624 2154.2 211.624 Q2150.77 211.624 2148.85 214.17 Q2146.95 216.716 2146.95 221.346 Q2146.95 225.952 2148.85 228.498 Q2150.77 231.045 2154.2 231.045 Q2157.64 231.045 2159.54 228.498 Q2161.46 225.952 2161.46 221.346 M2165.72 231.392 Q2165.72 238.012 2162.78 241.23 Q2159.84 244.471 2153.78 244.471 Q2151.53 244.471 2149.54 244.123 Q2147.55 243.799 2145.68 243.105 L2145.68 238.961 Q2147.55 239.98 2149.38 240.466 Q2151.21 240.952 2153.11 240.952 Q2157.3 240.952 2159.38 238.753 Q2161.46 236.577 2161.46 232.156 L2161.46 230.049 Q2160.14 232.341 2158.08 233.475 Q2156.02 234.61 2153.15 234.61 Q2148.39 234.61 2145.47 230.975 Q2142.55 227.341 2142.55 221.346 Q2142.55 215.327 2145.47 211.693 Q2148.39 208.059 2153.15 208.059 Q2156.02 208.059 2158.08 209.193 Q2160.14 210.327 2161.46 212.619 L2161.46 208.684 L2165.72 208.684 L2165.72 231.392 Z" fill="#000000" fill-rule="evenodd" fill-opacity="1" /><path clip-path="url(#clip990)" d="M 0 0 M2170.19 208.684 L2174.45 208.684 L2174.45 234.61 L2170.19 234.61 L2170.19 208.684 M2170.19 198.591 L2174.45 198.591 L2174.45 203.985 L2170.19 203.985 L2170.19 198.591 Z" fill="#000000" fill-rule="evenodd" fill-opacity="1" /><path clip-path="url(#clip990)" d="M 0 0 M2188.96 211.67 Q2185.54 211.67 2183.55 214.355 Q2181.56 217.017 2181.56 221.67 Q2181.56 226.323 2183.52 229.008 Q2185.51 231.67 2188.96 231.67 Q2192.37 231.67 2194.36 228.985 Q2196.35 226.299 2196.35 221.67 Q2196.35 217.063 2194.36 214.378 Q2192.37 211.67 2188.96 211.67 M2188.96 208.059 Q2194.52 208.059 2197.69 211.67 Q2200.86 215.281 2200.86 221.67 Q2200.86 228.036 2197.69 231.67 Q2194.52 235.281 2188.96 235.281 Q2183.39 235.281 2180.21 231.67 Q2177.07 228.036 2177.07 221.67 Q2177.07 215.281 2180.21 211.67 Q2183.39 208.059 2188.96 208.059 Z" fill="#000000" fill-rule="evenodd" fill-opacity="1" /><path clip-path="url(#clip990)" d="M 0 0 M2226.88 218.961 L2226.88 234.61 L2222.62 234.61 L2222.62 219.1 Q2222.62 215.42 2221.19 213.591 Q2219.75 211.762 2216.88 211.762 Q2213.43 211.762 2211.44 213.962 Q2209.45 216.161 2209.45 219.957 L2209.45 234.61 L2205.17 234.61 L2205.17 208.684 L2209.45 208.684 L2209.45 212.712 Q2210.98 210.374 2213.04 209.216 Q2215.12 208.059 2217.83 208.059 Q2222.3 208.059 2224.59 210.837 Q2226.88 213.591 2226.88 218.961 Z" fill="#000000" fill-rule="evenodd" fill-opacity="1" /><path clip-path="url(#clip990)" d="
M1519.75 302.002 L1670.81 302.002 L1670.81 253.618 L1519.75 253.618 L1519.75 302.002  Z
  " fill="#ffa500" fill-rule="evenodd" fill-opacity="0.5"/>
<polyline clip-path="url(#clip990)" style="stroke:#ffa500; stroke-width:4; stroke-opacity:1; fill:none" points="
  1519.75,253.618 1670.81,253.618 
  "/>
<path clip-path="url(#clip990)" d="M 0 0 M1700.38 282.15 Q1700.38 286.849 1702.3 289.534 Q1704.24 292.196 1707.62 292.196 Q1711 292.196 1712.95 289.534 Q1714.89 286.849 1714.89 282.15 Q1714.89 277.451 1712.95 274.789 Q1711 272.104 1707.62 272.104 Q1704.24 272.104 1702.3 274.789 Q1700.38 277.451 1700.38 282.15 M1714.89 291.201 Q1713.55 293.515 1711.49 294.65 Q1709.45 295.761 1706.58 295.761 Q1701.88 295.761 1698.92 292.011 Q1695.98 288.261 1695.98 282.15 Q1695.98 276.039 1698.92 272.289 Q1701.88 268.539 1706.58 268.539 Q1709.45 268.539 1711.49 269.673 Q1713.55 270.784 1714.89 273.099 L1714.89 269.164 L1719.15 269.164 L1719.15 304.951 L1714.89 304.951 L1714.89 291.201 Z" fill="#000000" fill-rule="evenodd" fill-opacity="1" /><path clip-path="url(#clip990)" d="M 0 0 M1724.36 294.372 L1724.36 290.113 Q1726.12 290.946 1727.92 291.386 Q1729.73 291.826 1731.47 291.826 Q1736.1 291.826 1738.53 288.724 Q1740.98 285.599 1741.33 279.256 Q1739.98 281.247 1737.92 282.312 Q1735.86 283.377 1733.36 283.377 Q1728.18 283.377 1725.15 280.252 Q1722.14 277.104 1722.14 271.664 Q1722.14 266.34 1725.29 263.122 Q1728.43 259.905 1733.67 259.905 Q1739.66 259.905 1742.81 264.511 Q1745.98 269.094 1745.98 277.844 Q1745.98 286.016 1742.09 290.9 Q1738.23 295.761 1731.67 295.761 Q1729.92 295.761 1728.11 295.414 Q1726.3 295.066 1724.36 294.372 M1733.67 279.719 Q1736.81 279.719 1738.64 277.566 Q1740.49 275.414 1740.49 271.664 Q1740.49 267.937 1738.64 265.784 Q1736.81 263.608 1733.67 263.608 Q1730.52 263.608 1728.67 265.784 Q1726.84 267.937 1726.84 271.664 Q1726.84 275.414 1728.67 277.566 Q1730.52 279.719 1733.67 279.719 Z" fill="#000000" fill-rule="evenodd" fill-opacity="1" /><path clip-path="url(#clip990)" d="M 0 0 M1751.1 260.53 L1769.45 260.53 L1769.45 264.465 L1755.38 264.465 L1755.38 272.937 Q1756.4 272.59 1757.42 272.428 Q1758.43 272.242 1759.45 272.242 Q1765.24 272.242 1768.62 275.414 Q1772 278.585 1772 284.002 Q1772 289.58 1768.53 292.682 Q1765.05 295.761 1758.73 295.761 Q1756.56 295.761 1754.29 295.39 Q1752.04 295.02 1749.64 294.279 L1749.64 289.58 Q1751.72 290.715 1753.94 291.27 Q1756.17 291.826 1758.64 291.826 Q1762.65 291.826 1764.98 289.719 Q1767.32 287.613 1767.32 284.002 Q1767.32 280.391 1764.98 278.284 Q1762.65 276.178 1758.64 276.178 Q1756.77 276.178 1754.89 276.594 Q1753.04 277.011 1751.1 277.891 L1751.1 260.53 Z" fill="#000000" fill-rule="evenodd" fill-opacity="1" /><polyline clip-path="url(#clip990)" style="stroke:#0000ff; stroke-width:4; stroke-opacity:1; fill:none" points="
  1519.75,338.29 1670.81,338.29 
  "/>
<path clip-path="url(#clip990)" d="M 0 0 M1716.33 334.621 Q1717.92 331.75 1720.15 330.385 Q1722.37 329.019 1725.38 329.019 Q1729.43 329.019 1731.63 331.866 Q1733.83 334.69 1733.83 339.921 L1733.83 355.57 L1729.54 355.57 L1729.54 340.06 Q1729.54 336.334 1728.23 334.528 Q1726.91 332.722 1724.2 332.722 Q1720.89 332.722 1718.97 334.922 Q1717.04 337.121 1717.04 340.917 L1717.04 355.57 L1712.76 355.57 L1712.76 340.06 Q1712.76 336.31 1711.44 334.528 Q1710.12 332.722 1707.37 332.722 Q1704.11 332.722 1702.18 334.945 Q1700.26 337.144 1700.26 340.917 L1700.26 355.57 L1695.98 355.57 L1695.98 329.644 L1700.26 329.644 L1700.26 333.672 Q1701.72 331.287 1703.76 330.153 Q1705.79 329.019 1708.6 329.019 Q1711.42 329.019 1713.39 330.454 Q1715.38 331.889 1716.33 334.621 Z" fill="#000000" fill-rule="evenodd" fill-opacity="1" /><path clip-path="url(#clip990)" d="M 0 0 M1760.47 341.542 L1760.47 343.625 L1740.89 343.625 Q1741.17 348.023 1743.53 350.338 Q1745.91 352.63 1750.15 352.63 Q1752.6 352.63 1754.89 352.028 Q1757.21 351.426 1759.48 350.222 L1759.48 354.25 Q1757.18 355.222 1754.78 355.732 Q1752.37 356.241 1749.89 356.241 Q1743.69 356.241 1740.05 352.63 Q1736.44 349.019 1736.44 342.861 Q1736.44 336.496 1739.87 332.769 Q1743.32 329.019 1749.15 329.019 Q1754.38 329.019 1757.42 332.398 Q1760.47 335.755 1760.47 341.542 M1756.21 340.292 Q1756.17 336.797 1754.24 334.713 Q1752.35 332.63 1749.2 332.63 Q1745.63 332.63 1743.48 334.644 Q1741.35 336.658 1741.03 340.315 L1756.21 340.292 Z" fill="#000000" fill-rule="evenodd" fill-opacity="1" /><path clip-path="url(#clip990)" d="M 0 0 M1776.72 342.537 Q1771.56 342.537 1769.57 343.718 Q1767.58 344.898 1767.58 347.746 Q1767.58 350.014 1769.06 351.357 Q1770.56 352.676 1773.13 352.676 Q1776.67 352.676 1778.8 350.176 Q1780.96 347.653 1780.96 343.486 L1780.96 342.537 L1776.72 342.537 M1785.22 340.778 L1785.22 355.57 L1780.96 355.57 L1780.96 351.634 Q1779.5 353.995 1777.32 355.13 Q1775.15 356.241 1772 356.241 Q1768.02 356.241 1765.66 354.019 Q1763.32 351.773 1763.32 348.023 Q1763.32 343.648 1766.23 341.426 Q1769.17 339.204 1774.98 339.204 L1780.96 339.204 L1780.96 338.787 Q1780.96 335.847 1779.01 334.25 Q1777.09 332.63 1773.6 332.63 Q1771.37 332.63 1769.27 333.162 Q1767.16 333.695 1765.22 334.759 L1765.22 330.824 Q1767.55 329.922 1769.75 329.482 Q1771.95 329.019 1774.04 329.019 Q1779.66 329.019 1782.44 331.935 Q1785.22 334.852 1785.22 340.778 Z" fill="#000000" fill-rule="evenodd" fill-opacity="1" /><path clip-path="url(#clip990)" d="M 0 0 M1811.23 339.921 L1811.23 355.57 L1806.97 355.57 L1806.97 340.06 Q1806.97 336.38 1805.54 334.551 Q1804.1 332.722 1801.23 332.722 Q1797.79 332.722 1795.79 334.922 Q1793.8 337.121 1793.8 340.917 L1793.8 355.57 L1789.52 355.57 L1789.52 329.644 L1793.8 329.644 L1793.8 333.672 Q1795.33 331.334 1797.39 330.176 Q1799.48 329.019 1802.18 329.019 Q1806.65 329.019 1808.94 331.797 Q1811.23 334.551 1811.23 339.921 Z" fill="#000000" fill-rule="evenodd" fill-opacity="1" /><polyline clip-path="url(#clip990)" style="stroke:#000000; stroke-width:4; stroke-opacity:1; fill:none" points="
  1519.75,398.77 1670.81,398.77 
  "/>
<path clip-path="url(#clip990)" d="M 0 0 M1716.33 395.101 Q1717.92 392.23 1720.15 390.865 Q1722.37 389.499 1725.38 389.499 Q1729.43 389.499 1731.63 392.346 Q1733.83 395.17 1733.83 400.401 L1733.83 416.05 L1729.54 416.05 L1729.54 400.54 Q1729.54 396.814 1728.23 395.008 Q1726.91 393.202 1724.2 393.202 Q1720.89 393.202 1718.97 395.402 Q1717.04 397.601 1717.04 401.397 L1717.04 416.05 L1712.76 416.05 L1712.76 400.54 Q1712.76 396.79 1711.44 395.008 Q1710.12 393.202 1707.37 393.202 Q1704.11 393.202 1702.18 395.425 Q1700.26 397.624 1700.26 401.397 L1700.26 416.05 L1695.98 416.05 L1695.98 390.124 L1700.26 390.124 L1700.26 394.152 Q1701.72 391.767 1703.76 390.633 Q1705.79 389.499 1708.6 389.499 Q1711.42 389.499 1713.39 390.934 Q1715.38 392.369 1716.33 395.101 Z" fill="#000000" fill-rule="evenodd" fill-opacity="1" /><path clip-path="url(#clip990)" d="M 0 0 M1760.47 402.022 L1760.47 404.105 L1740.89 404.105 Q1741.17 408.503 1743.53 410.818 Q1745.91 413.11 1750.15 413.11 Q1752.6 413.11 1754.89 412.508 Q1757.21 411.906 1759.48 410.702 L1759.48 414.73 Q1757.18 415.702 1754.78 416.212 Q1752.37 416.721 1749.89 416.721 Q1743.69 416.721 1740.05 413.11 Q1736.44 409.499 1736.44 403.341 Q1736.44 396.976 1739.87 393.249 Q1743.32 389.499 1749.15 389.499 Q1754.38 389.499 1757.42 392.878 Q1760.47 396.235 1760.47 402.022 M1756.21 400.772 Q1756.17 397.277 1754.24 395.193 Q1752.35 393.11 1749.2 393.11 Q1745.63 393.11 1743.48 395.124 Q1741.35 397.138 1741.03 400.795 L1756.21 400.772 Z" fill="#000000" fill-rule="evenodd" fill-opacity="1" /><path clip-path="url(#clip990)" d="M 0 0 M1782 394.059 L1782 380.031 L1786.26 380.031 L1786.26 416.05 L1782 416.05 L1782 412.161 Q1780.66 414.475 1778.6 415.61 Q1776.56 416.721 1773.69 416.721 Q1768.99 416.721 1766.03 412.971 Q1763.09 409.221 1763.09 403.11 Q1763.09 396.999 1766.03 393.249 Q1768.99 389.499 1773.69 389.499 Q1776.56 389.499 1778.6 390.633 Q1780.66 391.744 1782 394.059 M1767.48 403.11 Q1767.48 407.809 1769.41 410.494 Q1771.35 413.156 1774.73 413.156 Q1778.11 413.156 1780.05 410.494 Q1782 407.809 1782 403.11 Q1782 398.411 1780.05 395.749 Q1778.11 393.064 1774.73 393.064 Q1771.35 393.064 1769.41 395.749 Q1767.48 398.411 1767.48 403.11 Z" fill="#000000" fill-rule="evenodd" fill-opacity="1" /><path clip-path="url(#clip990)" d="M 0 0 M1790.73 390.124 L1794.98 390.124 L1794.98 416.05 L1790.73 416.05 L1790.73 390.124 M1790.73 380.031 L1794.98 380.031 L1794.98 385.425 L1790.73 385.425 L1790.73 380.031 Z" fill="#000000" fill-rule="evenodd" fill-opacity="1" /><path clip-path="url(#clip990)" d="M 0 0 M1811.23 403.017 Q1806.07 403.017 1804.08 404.198 Q1802.09 405.378 1802.09 408.226 Q1802.09 410.494 1803.57 411.837 Q1805.08 413.156 1807.65 413.156 Q1811.19 413.156 1813.32 410.656 Q1815.47 408.133 1815.47 403.966 L1815.47 403.017 L1811.23 403.017 M1819.73 401.258 L1819.73 416.05 L1815.47 416.05 L1815.47 412.114 Q1814.01 414.475 1811.84 415.61 Q1809.66 416.721 1806.51 416.721 Q1802.53 416.721 1800.17 414.499 Q1797.83 412.253 1797.83 408.503 Q1797.83 404.128 1800.75 401.906 Q1803.69 399.684 1809.5 399.684 L1815.47 399.684 L1815.47 399.267 Q1815.47 396.327 1813.53 394.73 Q1811.6 393.11 1808.11 393.11 Q1805.89 393.11 1803.78 393.642 Q1801.67 394.175 1799.73 395.239 L1799.73 391.304 Q1802.07 390.402 1804.27 389.962 Q1806.47 389.499 1808.55 389.499 Q1814.17 389.499 1816.95 392.415 Q1819.73 395.332 1819.73 401.258 Z" fill="#000000" fill-rule="evenodd" fill-opacity="1" /><path clip-path="url(#clip990)" d="M 0 0 M1845.75 400.401 L1845.75 416.05 L1841.49 416.05 L1841.49 400.54 Q1841.49 396.86 1840.05 395.031 Q1838.62 393.202 1835.75 393.202 Q1832.3 393.202 1830.31 395.402 Q1828.32 397.601 1828.32 401.397 L1828.32 416.05 L1824.04 416.05 L1824.04 390.124 L1828.32 390.124 L1828.32 394.152 Q1829.85 391.814 1831.91 390.656 Q1833.99 389.499 1836.7 389.499 Q1841.16 389.499 1843.46 392.277 Q1845.75 395.031 1845.75 400.401 Z" fill="#000000" fill-rule="evenodd" fill-opacity="1" /></svg>
