<?xml version="1.0" encoding="utf-8"?>
<svg xmlns="http://www.w3.org/2000/svg" xmlns:xlink="http://www.w3.org/1999/xlink" width="600" height="400" viewBox="0 0 2400 1600">
<defs>
  <clipPath id="clip490">
    <rect x="0" y="0" width="2400" height="1600"/>
  </clipPath>
</defs>
<path clip-path="url(#clip490)" d="
M0 1600 L2400 1600 L2400 0 L0 0  Z
  " fill="#ffffff" fill-rule="evenodd" fill-opacity="1"/>
<defs>
  <clipPath id="clip491">
    <rect x="480" y="0" width="1681" height="1600"/>
  </clipPath>
</defs>
<path clip-path="url(#clip490)" d="
M86.9921 1521.01 L2352.76 1521.01 L2352.76 47.2441 L86.9921 47.2441  Z
  " fill="#ffffff" fill-rule="evenodd" fill-opacity="1"/>
<defs>
  <clipPath id="clip492">
    <rect x="86" y="47" width="2267" height="1475"/>
  </clipPath>
</defs>
<polyline clip-path="url(#clip492)" style="stroke:#000000; stroke-width:2; stroke-opacity:0.1; fill:none" points="
  489.405,1521.01 489.405,47.2441 
  "/>
<polyline clip-path="url(#clip492)" style="stroke:#000000; stroke-width:2; stroke-opacity:0.1; fill:none" points="
  986.933,1521.01 986.933,47.2441 
  "/>
<polyline clip-path="url(#clip492)" style="stroke:#000000; stroke-width:2; stroke-opacity:0.1; fill:none" points="
  1484.46,1521.01 1484.46,47.2441 
  "/>
<polyline clip-path="url(#clip492)" style="stroke:#000000; stroke-width:2; stroke-opacity:0.1; fill:none" points="
  1981.99,1521.01 1981.99,47.2441 
  "/>
<polyline clip-path="url(#clip492)" style="stroke:#000000; stroke-width:2; stroke-opacity:0.1; fill:none" points="
  86.9921,1479.3 2352.76,1479.3 
  "/>
<polyline clip-path="url(#clip492)" style="stroke:#000000; stroke-width:2; stroke-opacity:0.1; fill:none" points="
  86.9921,1222.98 2352.76,1222.98 
  "/>
<polyline clip-path="url(#clip492)" style="stroke:#000000; stroke-width:2; stroke-opacity:0.1; fill:none" points="
  86.9921,966.656 2352.76,966.656 
  "/>
<polyline clip-path="url(#clip492)" style="stroke:#000000; stroke-width:2; stroke-opacity:0.1; fill:none" points="
  86.9921,710.335 2352.76,710.335 
  "/>
<polyline clip-path="url(#clip492)" style="stroke:#000000; stroke-width:2; stroke-opacity:0.1; fill:none" points="
  86.9921,454.014 2352.76,454.014 
  "/>
<polyline clip-path="url(#clip492)" style="stroke:#000000; stroke-width:2; stroke-opacity:0.1; fill:none" points="
  86.9921,197.693 2352.76,197.693 
  "/>
<polyline clip-path="url(#clip490)" style="stroke:#000000; stroke-width:4; stroke-opacity:1; fill:none" points="
  86.9921,1521.01 2352.76,1521.01 
  "/>
<polyline clip-path="url(#clip490)" style="stroke:#000000; stroke-width:4; stroke-opacity:1; fill:none" points="
  86.9921,1521.01 86.9921,47.2441 
  "/>
<polyline clip-path="url(#clip490)" style="stroke:#000000; stroke-width:4; stroke-opacity:1; fill:none" points="
  489.405,1521.01 489.405,1503.32 
  "/>
<polyline clip-path="url(#clip490)" style="stroke:#000000; stroke-width:4; stroke-opacity:1; fill:none" points="
  986.933,1521.01 986.933,1503.32 
  "/>
<polyline clip-path="url(#clip490)" style="stroke:#000000; stroke-width:4; stroke-opacity:1; fill:none" points="
  1484.46,1521.01 1484.46,1503.32 
  "/>
<polyline clip-path="url(#clip490)" style="stroke:#000000; stroke-width:4; stroke-opacity:1; fill:none" points="
  1981.99,1521.01 1981.99,1503.32 
  "/>
<polyline clip-path="url(#clip490)" style="stroke:#000000; stroke-width:4; stroke-opacity:1; fill:none" points="
  86.9921,1479.3 114.181,1479.3 
  "/>
<polyline clip-path="url(#clip490)" style="stroke:#000000; stroke-width:4; stroke-opacity:1; fill:none" points="
  86.9921,1222.98 114.181,1222.98 
  "/>
<polyline clip-path="url(#clip490)" style="stroke:#000000; stroke-width:4; stroke-opacity:1; fill:none" points="
  86.9921,966.656 114.181,966.656 
  "/>
<polyline clip-path="url(#clip490)" style="stroke:#000000; stroke-width:4; stroke-opacity:1; fill:none" points="
  86.9921,710.335 114.181,710.335 
  "/>
<polyline clip-path="url(#clip490)" style="stroke:#000000; stroke-width:4; stroke-opacity:1; fill:none" points="
  86.9921,454.014 114.181,454.014 
  "/>
<polyline clip-path="url(#clip490)" style="stroke:#000000; stroke-width:4; stroke-opacity:1; fill:none" points="
  86.9921,197.693 114.181,197.693 
  "/>
<path clip-path="url(#clip490)" d="M 0 0 M450.933 1559.6 L463.41 1559.6 L463.41 1563.39 L450.933 1563.39 L450.933 1559.6 Z" fill="#000000" fill-rule="evenodd" fill-opacity="1" /><path clip-path="url(#clip490)" d="M 0 0 M478.479 1543 Q474.868 1543 473.039 1546.56 Q471.234 1550.11 471.234 1557.23 Q471.234 1564.34 473.039 1567.91 Q474.868 1571.45 478.479 1571.45 Q482.113 1571.45 483.919 1567.91 Q485.747 1564.34 485.747 1557.23 Q485.747 1550.11 483.919 1546.56 Q482.113 1543 478.479 1543 M478.479 1539.29 Q484.289 1539.29 487.345 1543.9 Q490.423 1548.48 490.423 1557.23 Q490.423 1565.96 487.345 1570.57 Q484.289 1575.15 478.479 1575.15 Q472.669 1575.15 469.59 1570.57 Q466.535 1565.96 466.535 1557.23 Q466.535 1548.48 469.59 1543.9 Q472.669 1539.29 478.479 1539.29 Z" fill="#000000" fill-rule="evenodd" fill-opacity="1" /><path clip-path="url(#clip490)" d="M 0 0 M495.493 1568.6 L500.377 1568.6 L500.377 1574.48 L495.493 1574.48 L495.493 1568.6 Z" fill="#000000" fill-rule="evenodd" fill-opacity="1" /><path clip-path="url(#clip490)" d="M 0 0 M518.294 1543.99 L506.488 1562.44 L518.294 1562.44 L518.294 1543.99 M517.067 1539.92 L522.946 1539.92 L522.946 1562.44 L527.877 1562.44 L527.877 1566.33 L522.946 1566.33 L522.946 1574.48 L518.294 1574.48 L518.294 1566.33 L502.692 1566.33 L502.692 1561.82 L517.067 1539.92 Z" fill="#000000" fill-rule="evenodd" fill-opacity="1" /><path clip-path="url(#clip490)" d="M 0 0 M949.503 1559.6 L961.98 1559.6 L961.98 1563.39 L949.503 1563.39 L949.503 1559.6 Z" fill="#000000" fill-rule="evenodd" fill-opacity="1" /><path clip-path="url(#clip490)" d="M 0 0 M977.049 1543 Q973.438 1543 971.609 1546.56 Q969.804 1550.11 969.804 1557.23 Q969.804 1564.34 971.609 1567.91 Q973.438 1571.45 977.049 1571.45 Q980.683 1571.45 982.489 1567.91 Q984.318 1564.34 984.318 1557.23 Q984.318 1550.11 982.489 1546.56 Q980.683 1543 977.049 1543 M977.049 1539.29 Q982.859 1539.29 985.915 1543.9 Q988.993 1548.48 988.993 1557.23 Q988.993 1565.96 985.915 1570.57 Q982.859 1575.15 977.049 1575.15 Q971.239 1575.15 968.16 1570.57 Q965.105 1565.96 965.105 1557.23 Q965.105 1548.48 968.16 1543.9 Q971.239 1539.29 977.049 1539.29 Z" fill="#000000" fill-rule="evenodd" fill-opacity="1" /><path clip-path="url(#clip490)" d="M 0 0 M994.063 1568.6 L998.947 1568.6 L998.947 1574.48 L994.063 1574.48 L994.063 1568.6 Z" fill="#000000" fill-rule="evenodd" fill-opacity="1" /><path clip-path="url(#clip490)" d="M 0 0 M1008.04 1570.54 L1024.36 1570.54 L1024.36 1574.48 L1002.42 1574.48 L1002.42 1570.54 Q1005.08 1567.79 1009.66 1563.16 Q1014.27 1558.51 1015.45 1557.17 Q1017.7 1554.64 1018.58 1552.91 Q1019.48 1551.15 1019.48 1549.46 Q1019.48 1546.7 1017.53 1544.97 Q1015.61 1543.23 1012.51 1543.23 Q1010.31 1543.23 1007.86 1543.99 Q1005.43 1544.76 1002.65 1546.31 L1002.65 1541.59 Q1005.47 1540.45 1007.93 1539.87 Q1010.38 1539.29 1012.42 1539.29 Q1017.79 1539.29 1020.98 1541.98 Q1024.18 1544.67 1024.18 1549.16 Q1024.18 1551.29 1023.37 1553.21 Q1022.58 1555.1 1020.47 1557.7 Q1019.9 1558.37 1016.79 1561.59 Q1013.69 1564.78 1008.04 1570.54 Z" fill="#000000" fill-rule="evenodd" fill-opacity="1" /><path clip-path="url(#clip490)" d="M 0 0 M1465.98 1543 Q1462.37 1543 1460.54 1546.56 Q1458.73 1550.11 1458.73 1557.23 Q1458.73 1564.34 1460.54 1567.91 Q1462.37 1571.45 1465.98 1571.45 Q1469.61 1571.45 1471.42 1567.91 Q1473.25 1564.34 1473.25 1557.23 Q1473.25 1550.11 1471.42 1546.56 Q1469.61 1543 1465.98 1543 M1465.98 1539.29 Q1471.79 1539.29 1474.84 1543.9 Q1477.92 1548.48 1477.92 1557.23 Q1477.92 1565.96 1474.84 1570.57 Q1471.79 1575.15 1465.98 1575.15 Q1460.17 1575.15 1457.09 1570.57 Q1454.03 1565.96 1454.03 1557.23 Q1454.03 1548.48 1457.09 1543.9 Q1460.17 1539.29 1465.98 1539.29 Z" fill="#000000" fill-rule="evenodd" fill-opacity="1" /><path clip-path="url(#clip490)" d="M 0 0 M1482.99 1568.6 L1487.88 1568.6 L1487.88 1574.48 L1482.99 1574.48 L1482.99 1568.6 Z" fill="#000000" fill-rule="evenodd" fill-opacity="1" /><path clip-path="url(#clip490)" d="M 0 0 M1502.95 1543 Q1499.33 1543 1497.51 1546.56 Q1495.7 1550.11 1495.7 1557.23 Q1495.7 1564.34 1497.51 1567.91 Q1499.33 1571.45 1502.95 1571.45 Q1506.58 1571.45 1508.39 1567.91 Q1510.21 1564.34 1510.21 1557.23 Q1510.21 1550.11 1508.39 1546.56 Q1506.58 1543 1502.95 1543 M1502.95 1539.29 Q1508.76 1539.29 1511.81 1543.9 Q1514.89 1548.48 1514.89 1557.23 Q1514.89 1565.96 1511.81 1570.57 Q1508.76 1575.15 1502.95 1575.15 Q1497.14 1575.15 1494.06 1570.57 Q1491 1565.96 1491 1557.23 Q1491 1548.48 1494.06 1543.9 Q1497.14 1539.29 1502.95 1539.29 Z" fill="#000000" fill-rule="evenodd" fill-opacity="1" /><path clip-path="url(#clip490)" d="M 0 0 M1964.31 1543 Q1960.69 1543 1958.87 1546.56 Q1957.06 1550.11 1957.06 1557.23 Q1957.06 1564.34 1958.87 1567.91 Q1960.69 1571.45 1964.31 1571.45 Q1967.94 1571.45 1969.74 1567.91 Q1971.57 1564.34 1971.57 1557.23 Q1971.57 1550.11 1969.74 1546.56 Q1967.94 1543 1964.31 1543 M1964.31 1539.29 Q1970.12 1539.29 1973.17 1543.9 Q1976.25 1548.48 1976.25 1557.23 Q1976.25 1565.96 1973.17 1570.57 Q1970.12 1575.15 1964.31 1575.15 Q1958.5 1575.15 1955.42 1570.57 Q1952.36 1565.96 1952.36 1557.23 Q1952.36 1548.48 1955.42 1543.9 Q1958.5 1539.29 1964.31 1539.29 Z" fill="#000000" fill-rule="evenodd" fill-opacity="1" /><path clip-path="url(#clip490)" d="M 0 0 M1981.32 1568.6 L1986.2 1568.6 L1986.2 1574.48 L1981.32 1574.48 L1981.32 1568.6 Z" fill="#000000" fill-rule="evenodd" fill-opacity="1" /><path clip-path="url(#clip490)" d="M 0 0 M1995.3 1570.54 L2011.62 1570.54 L2011.62 1574.48 L1989.68 1574.48 L1989.68 1570.54 Q1992.34 1567.79 1996.92 1563.16 Q2001.53 1558.51 2002.71 1557.17 Q2004.95 1554.64 2005.83 1552.91 Q2006.74 1551.15 2006.74 1549.46 Q2006.74 1546.7 2004.79 1544.97 Q2002.87 1543.23 1999.77 1543.23 Q1997.57 1543.23 1995.12 1543.99 Q1992.68 1544.76 1989.91 1546.31 L1989.91 1541.59 Q1992.73 1540.45 1995.18 1539.87 Q1997.64 1539.29 1999.68 1539.29 Q2005.05 1539.29 2008.24 1541.98 Q2011.43 1544.67 2011.43 1549.16 Q2011.43 1551.29 2010.62 1553.21 Q2009.84 1555.1 2007.73 1557.7 Q2007.15 1558.37 2004.05 1561.59 Q2000.95 1564.78 1995.3 1570.54 Z" fill="#000000" fill-rule="evenodd" fill-opacity="1" /><path clip-path="url(#clip490)" d="M 0 0 M14.0804 1465.1 Q10.4693 1465.1 8.64057 1468.66 Q6.83502 1472.2 6.83502 1479.33 Q6.83502 1486.44 8.64057 1490 Q10.4693 1493.55 14.0804 1493.55 Q17.7146 1493.55 19.5201 1490 Q21.3488 1486.44 21.3488 1479.33 Q21.3488 1472.2 19.5201 1468.66 Q17.7146 1465.1 14.0804 1465.1 M14.0804 1461.39 Q19.8905 1461.39 22.946 1466 Q26.0247 1470.58 26.0247 1479.33 Q26.0247 1488.06 22.946 1492.67 Q19.8905 1497.25 14.0804 1497.25 Q8.2702 1497.25 5.19151 1492.67 Q2.13597 1488.06 2.13597 1479.33 Q2.13597 1470.58 5.19151 1466 Q8.2702 1461.39 14.0804 1461.39 Z" fill="#000000" fill-rule="evenodd" fill-opacity="1" /><path clip-path="url(#clip490)" d="M 0 0 M31.0941 1490.7 L35.9784 1490.7 L35.9784 1496.58 L31.0941 1496.58 L31.0941 1490.7 Z" fill="#000000" fill-rule="evenodd" fill-opacity="1" /><path clip-path="url(#clip490)" d="M 0 0 M51.0477 1465.1 Q47.4367 1465.1 45.608 1468.66 Q43.8024 1472.2 43.8024 1479.33 Q43.8024 1486.44 45.608 1490 Q47.4367 1493.55 51.0477 1493.55 Q54.682 1493.55 56.4875 1490 Q58.3162 1486.44 58.3162 1479.33 Q58.3162 1472.2 56.4875 1468.66 Q54.682 1465.1 51.0477 1465.1 M51.0477 1461.39 Q56.8579 1461.39 59.9134 1466 Q62.9921 1470.58 62.9921 1479.33 Q62.9921 1488.06 59.9134 1492.67 Q56.8579 1497.25 51.0477 1497.25 Q45.2376 1497.25 42.1589 1492.67 Q39.1034 1488.06 39.1034 1479.33 Q39.1034 1470.58 42.1589 1466 Q45.2376 1461.39 51.0477 1461.39 Z" fill="#000000" fill-rule="evenodd" fill-opacity="1" /><path clip-path="url(#clip490)" d="M 0 0 M15.0757 1208.78 Q11.4646 1208.78 9.63593 1212.34 Q7.83038 1215.88 7.83038 1223.01 Q7.83038 1230.12 9.63593 1233.68 Q11.4646 1237.22 15.0757 1237.22 Q18.71 1237.22 20.5155 1233.68 Q22.3442 1230.12 22.3442 1223.01 Q22.3442 1215.88 20.5155 1212.34 Q18.71 1208.78 15.0757 1208.78 M15.0757 1205.07 Q20.8859 1205.07 23.9414 1209.68 Q27.0201 1214.26 27.0201 1223.01 Q27.0201 1231.74 23.9414 1236.34 Q20.8859 1240.93 15.0757 1240.93 Q9.26556 1240.93 6.18687 1236.34 Q3.13134 1231.74 3.13134 1223.01 Q3.13134 1214.26 6.18687 1209.68 Q9.26556 1205.07 15.0757 1205.07 Z" fill="#000000" fill-rule="evenodd" fill-opacity="1" /><path clip-path="url(#clip490)" d="M 0 0 M32.0895 1234.38 L36.9737 1234.38 L36.9737 1240.26 L32.0895 1240.26 L32.0895 1234.38 Z" fill="#000000" fill-rule="evenodd" fill-opacity="1" /><path clip-path="url(#clip490)" d="M 0 0 M42.0895 1205.7 L60.4458 1205.7 L60.4458 1209.63 L46.3718 1209.63 L46.3718 1218.1 Q47.3904 1217.76 48.4089 1217.59 Q49.4274 1217.41 50.4459 1217.41 Q56.2329 1217.41 59.6125 1220.58 Q62.9921 1223.75 62.9921 1229.17 Q62.9921 1234.75 59.5199 1237.85 Q56.0477 1240.93 49.7283 1240.93 Q47.5524 1240.93 45.2839 1240.56 Q43.0385 1240.19 40.6311 1239.45 L40.6311 1234.75 Q42.7145 1235.88 44.9367 1236.44 Q47.1589 1236.99 49.6357 1236.99 Q53.6403 1236.99 55.9783 1234.89 Q58.3162 1232.78 58.3162 1229.17 Q58.3162 1225.56 55.9783 1223.45 Q53.6403 1221.34 49.6357 1221.34 Q47.7607 1221.34 45.8857 1221.76 Q44.0339 1222.18 42.0895 1223.06 L42.0895 1205.7 Z" fill="#000000" fill-rule="evenodd" fill-opacity="1" /><path clip-path="url(#clip490)" d="M 0 0 M6.11743 980 L13.7563 980 L13.7563 953.635 L5.44614 955.301 L5.44614 951.042 L13.71 949.376 L18.3859 949.376 L18.3859 980 L26.0247 980 L26.0247 983.936 L6.11743 983.936 L6.11743 980 Z" fill="#000000" fill-rule="evenodd" fill-opacity="1" /><path clip-path="url(#clip490)" d="M 0 0 M31.0941 978.056 L35.9784 978.056 L35.9784 983.936 L31.0941 983.936 L31.0941 978.056 Z" fill="#000000" fill-rule="evenodd" fill-opacity="1" /><path clip-path="url(#clip490)" d="M 0 0 M51.0477 952.454 Q47.4367 952.454 45.608 956.019 Q43.8024 959.561 43.8024 966.69 Q43.8024 973.797 45.608 977.362 Q47.4367 980.903 51.0477 980.903 Q54.682 980.903 56.4875 977.362 Q58.3162 973.797 58.3162 966.69 Q58.3162 959.561 56.4875 956.019 Q54.682 952.454 51.0477 952.454 M51.0477 948.751 Q56.8579 948.751 59.9134 953.357 Q62.9921 957.94 62.9921 966.69 Q62.9921 975.417 59.9134 980.024 Q56.8579 984.607 51.0477 984.607 Q45.2376 984.607 42.1589 980.024 Q39.1034 975.417 39.1034 966.69 Q39.1034 957.94 42.1589 953.357 Q45.2376 948.751 51.0477 948.751 Z" fill="#000000" fill-rule="evenodd" fill-opacity="1" /><path clip-path="url(#clip490)" d="M 0 0 M7.1128 723.679 L14.7516 723.679 L14.7516 697.314 L6.4415 698.98 L6.4415 694.721 L14.7053 693.055 L19.3812 693.055 L19.3812 723.679 L27.0201 723.679 L27.0201 727.615 L7.1128 727.615 L7.1128 723.679 Z" fill="#000000" fill-rule="evenodd" fill-opacity="1" /><path clip-path="url(#clip490)" d="M 0 0 M32.0895 721.735 L36.9737 721.735 L36.9737 727.615 L32.0895 727.615 L32.0895 721.735 Z" fill="#000000" fill-rule="evenodd" fill-opacity="1" /><path clip-path="url(#clip490)" d="M 0 0 M42.0895 693.055 L60.4458 693.055 L60.4458 696.99 L46.3718 696.99 L46.3718 705.462 Q47.3904 705.115 48.4089 704.953 Q49.4274 704.767 50.4459 704.767 Q56.2329 704.767 59.6125 707.939 Q62.9921 711.11 62.9921 716.527 Q62.9921 722.105 59.5199 725.207 Q56.0477 728.286 49.7283 728.286 Q47.5524 728.286 45.2839 727.915 Q43.0385 727.545 40.6311 726.804 L40.6311 722.105 Q42.7145 723.24 44.9367 723.795 Q47.1589 724.351 49.6357 724.351 Q53.6403 724.351 55.9783 722.244 Q58.3162 720.138 58.3162 716.527 Q58.3162 712.916 55.9783 710.809 Q53.6403 708.703 49.6357 708.703 Q47.7607 708.703 45.8857 709.119 Q44.0339 709.536 42.0895 710.416 L42.0895 693.055 Z" fill="#000000" fill-rule="evenodd" fill-opacity="1" /><path clip-path="url(#clip490)" d="M 0 0 M9.70537 467.358 L26.0247 467.358 L26.0247 471.294 L4.0804 471.294 L4.0804 467.358 Q6.74243 464.604 11.3257 459.974 Q15.9322 455.321 17.1127 453.979 Q19.3581 451.456 20.2377 449.72 Q21.1405 447.96 21.1405 446.271 Q21.1405 443.516 19.1961 441.78 Q17.2748 440.044 14.1729 440.044 Q11.9739 440.044 9.52019 440.808 Q7.08965 441.571 4.31188 443.122 L4.31188 438.4 Q7.13594 437.266 9.58963 436.687 Q12.0433 436.109 14.0804 436.109 Q19.4507 436.109 22.6451 438.794 Q25.8395 441.479 25.8395 445.97 Q25.8395 448.099 25.0294 450.021 Q24.2423 451.919 22.1359 454.511 Q21.5572 455.183 18.4553 458.4 Q15.3535 461.595 9.70537 467.358 Z" fill="#000000" fill-rule="evenodd" fill-opacity="1" /><path clip-path="url(#clip490)" d="M 0 0 M31.0941 465.414 L35.9784 465.414 L35.9784 471.294 L31.0941 471.294 L31.0941 465.414 Z" fill="#000000" fill-rule="evenodd" fill-opacity="1" /><path clip-path="url(#clip490)" d="M 0 0 M51.0477 439.812 Q47.4367 439.812 45.608 443.377 Q43.8024 446.919 43.8024 454.048 Q43.8024 461.155 45.608 464.72 Q47.4367 468.261 51.0477 468.261 Q54.682 468.261 56.4875 464.72 Q58.3162 461.155 58.3162 454.048 Q58.3162 446.919 56.4875 443.377 Q54.682 439.812 51.0477 439.812 M51.0477 436.109 Q56.8579 436.109 59.9134 440.715 Q62.9921 445.298 62.9921 454.048 Q62.9921 462.775 59.9134 467.382 Q56.8579 471.965 51.0477 471.965 Q45.2376 471.965 42.1589 467.382 Q39.1034 462.775 39.1034 454.048 Q39.1034 445.298 42.1589 440.715 Q45.2376 436.109 51.0477 436.109 Z" fill="#000000" fill-rule="evenodd" fill-opacity="1" /><path clip-path="url(#clip490)" d="M 0 0 M10.7007 211.037 L27.0201 211.037 L27.0201 214.973 L5.07577 214.973 L5.07577 211.037 Q7.73779 208.283 12.3211 203.653 Q16.9276 199 18.1081 197.658 Q20.3535 195.135 21.2331 193.399 Q22.1359 191.639 22.1359 189.95 Q22.1359 187.195 20.1914 185.459 Q18.2701 183.723 15.1683 183.723 Q12.9692 183.723 10.5156 184.487 Q8.08501 185.25 5.30725 186.801 L5.30725 182.079 Q8.13131 180.945 10.585 180.366 Q13.0387 179.788 15.0757 179.788 Q20.4461 179.788 23.6405 182.473 Q26.8349 185.158 26.8349 189.649 Q26.8349 191.778 26.0247 193.7 Q25.2377 195.598 23.1312 198.19 Q22.5525 198.862 19.4507 202.079 Q16.3489 205.274 10.7007 211.037 Z" fill="#000000" fill-rule="evenodd" fill-opacity="1" /><path clip-path="url(#clip490)" d="M 0 0 M32.0895 209.093 L36.9737 209.093 L36.9737 214.973 L32.0895 214.973 L32.0895 209.093 Z" fill="#000000" fill-rule="evenodd" fill-opacity="1" /><path clip-path="url(#clip490)" d="M 0 0 M42.0895 180.413 L60.4458 180.413 L60.4458 184.348 L46.3718 184.348 L46.3718 192.82 Q47.3904 192.473 48.4089 192.311 Q49.4274 192.125 50.4459 192.125 Q56.2329 192.125 59.6125 195.297 Q62.9921 198.468 62.9921 203.885 Q62.9921 209.463 59.5199 212.565 Q56.0477 215.644 49.7283 215.644 Q47.5524 215.644 45.2839 215.273 Q43.0385 214.903 40.6311 214.162 L40.6311 209.463 Q42.7145 210.598 44.9367 211.153 Q47.1589 211.709 49.6357 211.709 Q53.6403 211.709 55.9783 209.602 Q58.3162 207.496 58.3162 203.885 Q58.3162 200.274 55.9783 198.167 Q53.6403 196.061 49.6357 196.061 Q47.7607 196.061 45.8857 196.477 Q44.0339 196.894 42.0895 197.774 L42.0895 180.413 Z" fill="#000000" fill-rule="evenodd" fill-opacity="1" /><path clip-path="url(#clip492)" d="
M151.118 1461.48 L157.257 1460.73 L163.396 1460.14 L169.536 1459.71 L175.675 1459.45 L181.815 1459.35 L187.954 1459.42 L194.093 1459.64 L200.233 1460 L206.372 1460.49 
  L212.512 1461.1 L218.651 1461.82 L224.79 1462.63 L230.93 1463.51 L237.069 1464.45 L243.209 1465.42 L249.348 1466.4 L255.487 1467.37 L261.627 1468.3 L267.766 1469.17 
  L273.906 1469.94 L280.045 1470.59 L286.184 1471.09 L292.324 1471.43 L298.463 1471.57 L304.603 1471.51 L310.742 1471.21 L316.881 1470.66 L323.021 1469.85 L329.16 1468.75 
  L335.3 1467.34 L341.439 1465.61 L347.579 1463.52 L353.718 1461.06 L359.857 1458.22 L365.997 1454.98 L372.136 1451.34 L378.276 1447.31 L384.415 1442.91 L390.554 1438.2 
  L396.694 1433.22 L402.833 1428.05 L408.973 1422.8 L415.112 1417.55 L421.251 1412.44 L427.391 1407.56 L433.53 1403.02 L439.67 1398.9 L445.809 1395.27 L451.948 1392.16 
  L458.088 1389.57 L464.227 1387.46 L470.367 1385.75 L476.506 1384.35 L482.645 1383.13 L488.785 1381.96 L494.924 1380.69 L501.064 1379.2 L507.203 1377.37 L513.343 1375.11 
  L519.482 1372.38 L525.621 1369.16 L531.761 1365.46 L537.9 1361.33 L544.04 1356.84 L550.179 1352.07 L556.318 1347.12 L562.458 1342.07 L568.597 1337 L574.737 1331.95 
  L580.876 1326.95 L587.015 1322 L593.155 1317.06 L599.294 1312.09 L605.434 1307 L611.573 1301.72 L617.712 1296.19 L623.852 1290.32 L629.991 1284.1 L636.131 1277.5 
  L642.27 1270.55 L648.409 1263.32 L654.549 1255.9 L660.688 1248.43 L666.828 1241.04 L672.967 1233.89 L679.106 1227.14 L685.246 1220.93 L691.385 1215.36 L697.525 1210.51 
  L703.664 1206.43 L709.804 1203.09 L715.943 1200.43 L722.082 1198.37 L728.222 1196.76 L734.361 1195.44 L740.501 1194.24 L746.64 1192.98 L752.779 1191.48 L758.919 1189.6 
  L758.919 1479.3 L752.779 1479.3 L746.64 1479.3 L740.501 1479.3 L734.361 1479.3 L728.222 1479.3 L722.082 1479.3 L715.943 1479.3 L709.804 1479.3 L703.664 1479.3 
  L697.525 1479.3 L691.385 1479.3 L685.246 1479.3 L679.106 1479.3 L672.967 1479.3 L666.828 1479.3 L660.688 1479.3 L654.549 1479.3 L648.409 1479.3 L642.27 1479.3 
  L636.131 1479.3 L629.991 1479.3 L623.852 1479.3 L617.712 1479.3 L611.573 1479.3 L605.434 1479.3 L599.294 1479.3 L593.155 1479.3 L587.015 1479.3 L580.876 1479.3 
  L574.737 1479.3 L568.597 1479.3 L562.458 1479.3 L556.318 1479.3 L550.179 1479.3 L544.04 1479.3 L537.9 1479.3 L531.761 1479.3 L525.621 1479.3 L519.482 1479.3 
  L513.343 1479.3 L507.203 1479.3 L501.064 1479.3 L494.924 1479.3 L488.785 1479.3 L482.645 1479.3 L476.506 1479.3 L470.367 1479.3 L464.227 1479.3 L458.088 1479.3 
  L451.948 1479.3 L445.809 1479.3 L439.67 1479.3 L433.53 1479.3 L427.391 1479.3 L421.251 1479.3 L415.112 1479.3 L408.973 1479.3 L402.833 1479.3 L396.694 1479.3 
  L390.554 1479.3 L384.415 1479.3 L378.276 1479.3 L372.136 1479.3 L365.997 1479.3 L359.857 1479.3 L353.718 1479.3 L347.579 1479.3 L341.439 1479.3 L335.3 1479.3 
  L329.16 1479.3 L323.021 1479.3 L316.881 1479.3 L310.742 1479.3 L304.603 1479.3 L298.463 1479.3 L292.324 1479.3 L286.184 1479.3 L280.045 1479.3 L273.906 1479.3 
  L267.766 1479.3 L261.627 1479.3 L255.487 1479.3 L249.348 1479.3 L243.209 1479.3 L237.069 1479.3 L230.93 1479.3 L224.79 1479.3 L218.651 1479.3 L212.512 1479.3 
  L206.372 1479.3 L200.233 1479.3 L194.093 1479.3 L187.954 1479.3 L181.815 1479.3 L175.675 1479.3 L169.536 1479.3 L163.396 1479.3 L157.257 1479.3 L151.118 1479.3 
   Z
  " fill="#ffa500" fill-rule="evenodd" fill-opacity="0.5"/>
<polyline clip-path="url(#clip492)" style="stroke:#ffa500; stroke-width:4; stroke-opacity:1; fill:none" points="
  151.118,1461.48 157.257,1460.73 163.396,1460.14 169.536,1459.71 175.675,1459.45 181.815,1459.35 187.954,1459.42 194.093,1459.64 200.233,1460 206.372,1460.49 
  212.512,1461.1 218.651,1461.82 224.79,1462.63 230.93,1463.51 237.069,1464.45 243.209,1465.42 249.348,1466.4 255.487,1467.37 261.627,1468.3 267.766,1469.17 
  273.906,1469.94 280.045,1470.59 286.184,1471.09 292.324,1471.43 298.463,1471.57 304.603,1471.51 310.742,1471.21 316.881,1470.66 323.021,1469.85 329.16,1468.75 
  335.3,1467.34 341.439,1465.61 347.579,1463.52 353.718,1461.06 359.857,1458.22 365.997,1454.98 372.136,1451.34 378.276,1447.31 384.415,1442.91 390.554,1438.2 
  396.694,1433.22 402.833,1428.05 408.973,1422.8 415.112,1417.55 421.251,1412.44 427.391,1407.56 433.53,1403.02 439.67,1398.9 445.809,1395.27 451.948,1392.16 
  458.088,1389.57 464.227,1387.46 470.367,1385.75 476.506,1384.35 482.645,1383.13 488.785,1381.96 494.924,1380.69 501.064,1379.2 507.203,1377.37 513.343,1375.11 
  519.482,1372.38 525.621,1369.16 531.761,1365.46 537.9,1361.33 544.04,1356.84 550.179,1352.07 556.318,1347.12 562.458,1342.07 568.597,1337 574.737,1331.95 
  580.876,1326.95 587.015,1322 593.155,1317.06 599.294,1312.09 605.434,1307 611.573,1301.72 617.712,1296.19 623.852,1290.32 629.991,1284.1 636.131,1277.5 
  642.27,1270.55 648.409,1263.32 654.549,1255.9 660.688,1248.43 666.828,1241.04 672.967,1233.89 679.106,1227.14 685.246,1220.93 691.385,1215.36 697.525,1210.51 
  703.664,1206.43 709.804,1203.09 715.943,1200.43 722.082,1198.37 728.222,1196.76 734.361,1195.44 740.501,1194.24 746.64,1192.98 752.779,1191.48 758.919,1189.6 
  
  "/>
<path clip-path="url(#clip492)" d="
M758.919 1189.6 L770.829 1184.34 L782.74 1176.38 L794.65 1165.34 L806.561 1151.05 L818.471 1133.48 L830.382 1112.57 L842.292 1088.24 L854.203 1060.46 L866.113 1029.33 
  L878.024 995.273 L889.934 959.051 L901.845 921.722 L913.755 884.457 L925.666 848.279 L937.577 813.804 L949.487 781.103 L961.398 749.722 L973.308 718.894 L985.219 687.863 
  L997.129 656.206 L1009.04 624.044 L1020.95 592.055 L1032.86 561.297 L1044.77 532.887 L1056.68 507.671 L1068.59 485.978 L1080.5 467.536 L1092.41 451.55 L1104.32 436.892 
  L1116.23 422.312 L1128.14 406.596 L1140.06 388.663 L1151.97 367.606 L1163.88 342.76 L1175.79 313.826 L1187.7 281.055 L1199.61 245.421 L1211.52 208.684 L1223.43 173.246 
  L1235.34 141.771 L1247.25 116.649 L1259.16 99.4464 L1271.07 90.523 L1282.98 88.9544 L1294.89 92.7763 L1306.8 99.472 L1318.71 106.546 L1330.62 112.022 L1342.53 114.753 
  L1354.44 114.505 L1366.36 111.823 L1378.27 107.754 L1390.18 103.486 L1402.09 100.02 L1414 97.9485 L1425.91 97.4052 L1437.82 98.1934 L1449.73 100.021 L1461.64 102.746 
  L1473.55 106.52 L1485.46 111.802 L1497.37 119.231 L1509.28 129.452 L1521.19 142.96 L1533.1 159.996 L1545.01 180.506 L1556.92 204.133 L1568.83 230.209 L1580.74 257.76 
  L1592.65 285.561 L1604.57 312.285 L1616.48 336.747 L1628.39 358.205 L1640.3 376.613 L1652.21 392.731 L1664.12 408.017 L1676.03 424.31 L1687.94 443.392 L1699.85 466.563 
  L1711.76 494.35 L1723.67 526.444 L1735.58 561.839 L1747.49 599.134 L1759.4 636.853 L1771.31 673.733 L1783.22 708.884 L1795.13 741.853 L1807.04 772.579 L1818.95 801.307 
  L1830.87 828.456 L1842.78 854.486 L1854.69 879.776 L1866.6 904.539 L1878.51 928.794 L1890.42 952.418 L1902.33 975.233 L1914.24 997.112 L1926.15 1018.04 L1938.06 1038.14 
  L1938.06 1479.3 L1926.15 1479.3 L1914.24 1479.3 L1902.33 1479.3 L1890.42 1479.3 L1878.51 1479.3 L1866.6 1479.3 L1854.69 1479.3 L1842.78 1479.3 L1830.87 1479.3 
  L1818.95 1479.3 L1807.04 1479.3 L1795.13 1479.3 L1783.22 1479.3 L1771.31 1479.3 L1759.4 1479.3 L1747.49 1479.3 L1735.58 1479.3 L1723.67 1479.3 L1711.76 1479.3 
  L1699.85 1479.3 L1687.94 1479.3 L1676.03 1479.3 L1664.12 1479.3 L1652.21 1479.3 L1640.3 1479.3 L1628.39 1479.3 L1616.48 1479.3 L1604.57 1479.3 L1592.65 1479.3 
  L1580.74 1479.3 L1568.83 1479.3 L1556.92 1479.3 L1545.01 1479.3 L1533.1 1479.3 L1521.19 1479.3 L1509.28 1479.3 L1497.37 1479.3 L1485.46 1479.3 L1473.55 1479.3 
  L1461.64 1479.3 L1449.73 1479.3 L1437.82 1479.3 L1425.91 1479.3 L1414 1479.3 L1402.09 1479.3 L1390.18 1479.3 L1378.27 1479.3 L1366.36 1479.3 L1354.44 1479.3 
  L1342.53 1479.3 L1330.62 1479.3 L1318.71 1479.3 L1306.8 1479.3 L1294.89 1479.3 L1282.98 1479.3 L1271.07 1479.3 L1259.16 1479.3 L1247.25 1479.3 L1235.34 1479.3 
  L1223.43 1479.3 L1211.52 1479.3 L1199.61 1479.3 L1187.7 1479.3 L1175.79 1479.3 L1163.88 1479.3 L1151.97 1479.3 L1140.06 1479.3 L1128.14 1479.3 L1116.23 1479.3 
  L1104.32 1479.3 L1092.41 1479.3 L1080.5 1479.3 L1068.59 1479.3 L1056.68 1479.3 L1044.77 1479.3 L1032.86 1479.3 L1020.95 1479.3 L1009.04 1479.3 L997.129 1479.3 
  L985.219 1479.3 L973.308 1479.3 L961.398 1479.3 L949.487 1479.3 L937.577 1479.3 L925.666 1479.3 L913.755 1479.3 L901.845 1479.3 L889.934 1479.3 L878.024 1479.3 
  L866.113 1479.3 L854.203 1479.3 L842.292 1479.3 L830.382 1479.3 L818.471 1479.3 L806.561 1479.3 L794.65 1479.3 L782.74 1479.3 L770.829 1479.3 L758.919 1479.3 
   Z
  " fill="#008000" fill-rule="evenodd" fill-opacity="0.5"/>
<polyline clip-path="url(#clip492)" style="stroke:#008000; stroke-width:4; stroke-opacity:1; fill:none" points="
  758.919,1189.6 770.829,1184.34 782.74,1176.38 794.65,1165.34 806.561,1151.05 818.471,1133.48 830.382,1112.57 842.292,1088.24 854.203,1060.46 866.113,1029.33 
  878.024,995.273 889.934,959.051 901.845,921.722 913.755,884.457 925.666,848.279 937.577,813.804 949.487,781.103 961.398,749.722 973.308,718.894 985.219,687.863 
  997.129,656.206 1009.04,624.044 1020.95,592.055 1032.86,561.297 1044.77,532.887 1056.68,507.671 1068.59,485.978 1080.5,467.536 1092.41,451.55 1104.32,436.892 
  1116.23,422.312 1128.14,406.596 1140.06,388.663 1151.97,367.606 1163.88,342.76 1175.79,313.826 1187.7,281.055 1199.61,245.421 1211.52,208.684 1223.43,173.246 
  1235.34,141.771 1247.25,116.649 1259.16,99.4464 1271.07,90.523 1282.98,88.9544 1294.89,92.7763 1306.8,99.472 1318.71,106.546 1330.62,112.022 1342.53,114.753 
  1354.44,114.505 1366.36,111.823 1378.27,107.754 1390.18,103.486 1402.09,100.02 1414,97.9485 1425.91,97.4052 1437.82,98.1934 1449.73,100.021 1461.64,102.746 
  1473.55,106.52 1485.46,111.802 1497.37,119.231 1509.28,129.452 1521.19,142.96 1533.1,159.996 1545.01,180.506 1556.92,204.133 1568.83,230.209 1580.74,257.76 
  1592.65,285.561 1604.57,312.285 1616.48,336.747 1628.39,358.205 1640.3,376.613 1652.21,392.731 1664.12,408.017 1676.03,424.31 1687.94,443.392 1699.85,466.563 
  1711.76,494.35 1723.67,526.444 1735.58,561.839 1747.49,599.134 1759.4,636.853 1771.31,673.733 1783.22,708.884 1795.13,741.853 1807.04,772.579 1818.95,801.307 
  1830.87,828.456 1842.78,854.486 1854.69,879.776 1866.6,904.539 1878.51,928.794 1890.42,952.418 1902.33,975.233 1914.24,997.112 1926.15,1018.04 1938.06,1038.14 
  
  "/>
<path clip-path="url(#clip492)" d="
M1938.06 1038.14 L1941.6 1043.98 L1945.14 1049.76 L1948.68 1055.5 L1952.22 1061.18 L1955.77 1066.83 L1959.31 1072.43 L1962.85 1077.99 L1966.39 1083.51 L1969.93 1088.99 
  L1973.47 1094.42 L1977.01 1099.81 L1980.55 1105.15 L1984.09 1110.44 L1987.64 1115.68 L1991.18 1120.85 L1994.72 1125.97 L1998.26 1131.03 L2001.8 1136.02 L2005.34 1140.95 
  L2008.88 1145.82 L2012.42 1150.64 L2015.96 1155.39 L2019.51 1160.1 L2023.05 1164.77 L2026.59 1169.4 L2030.13 1174 L2033.67 1178.58 L2037.21 1183.16 L2040.75 1187.74 
  L2044.29 1192.33 L2047.83 1196.94 L2051.38 1201.58 L2054.92 1206.26 L2058.46 1210.99 L2062 1215.77 L2065.54 1220.61 L2069.08 1225.52 L2072.62 1230.5 L2076.16 1235.55 
  L2079.7 1240.68 L2083.25 1245.88 L2086.79 1251.15 L2090.33 1256.5 L2093.87 1261.92 L2097.41 1267.4 L2100.95 1272.96 L2104.49 1278.58 L2108.03 1284.26 L2111.57 1289.99 
  L2115.12 1295.77 L2118.66 1301.6 L2122.2 1307.46 L2125.74 1313.36 L2129.28 1319.29 L2132.82 1325.23 L2136.36 1331.18 L2139.9 1337.13 L2143.44 1343.08 L2146.99 1349 
  L2150.53 1354.89 L2154.07 1360.74 L2157.61 1366.53 L2161.15 1372.25 L2164.69 1377.89 L2168.23 1383.43 L2171.77 1388.86 L2175.31 1394.16 L2178.86 1399.33 L2182.4 1404.35 
  L2185.94 1409.21 L2189.48 1413.89 L2193.02 1418.4 L2196.56 1422.71 L2200.1 1426.83 L2203.64 1430.75 L2207.18 1434.47 L2210.73 1437.98 L2214.27 1441.28 L2217.81 1444.38 
  L2221.35 1447.28 L2224.89 1449.99 L2228.43 1452.5 L2231.97 1454.83 L2235.51 1456.98 L2239.05 1458.96 L2242.6 1460.78 L2246.14 1462.45 L2249.68 1463.98 L2253.22 1465.38 
  L2256.76 1466.65 L2260.3 1467.81 L2263.84 1468.86 L2267.38 1469.82 L2270.92 1470.69 L2274.47 1471.49 L2278.01 1472.2 L2281.55 1472.86 L2285.09 1473.45 L2288.63 1473.99 
  L2288.63 1479.3 L2285.09 1479.3 L2281.55 1479.3 L2278.01 1479.3 L2274.47 1479.3 L2270.92 1479.3 L2267.38 1479.3 L2263.84 1479.3 L2260.3 1479.3 L2256.76 1479.3 
  L2253.22 1479.3 L2249.68 1479.3 L2246.14 1479.3 L2242.6 1479.3 L2239.05 1479.3 L2235.51 1479.3 L2231.97 1479.3 L2228.43 1479.3 L2224.89 1479.3 L2221.35 1479.3 
  L2217.81 1479.3 L2214.27 1479.3 L2210.73 1479.3 L2207.18 1479.3 L2203.64 1479.3 L2200.1 1479.3 L2196.56 1479.3 L2193.02 1479.3 L2189.48 1479.3 L2185.94 1479.3 
  L2182.4 1479.3 L2178.86 1479.3 L2175.31 1479.3 L2171.77 1479.3 L2168.23 1479.3 L2164.69 1479.3 L2161.15 1479.3 L2157.61 1479.3 L2154.07 1479.3 L2150.53 1479.3 
  L2146.99 1479.3 L2143.44 1479.3 L2139.9 1479.3 L2136.36 1479.3 L2132.82 1479.3 L2129.28 1479.3 L2125.74 1479.3 L2122.2 1479.3 L2118.66 1479.3 L2115.12 1479.3 
  L2111.57 1479.3 L2108.03 1479.3 L2104.49 1479.3 L2100.95 1479.3 L2097.41 1479.3 L2093.87 1479.3 L2090.33 1479.3 L2086.79 1479.3 L2083.25 1479.3 L2079.7 1479.3 
  L2076.16 1479.3 L2072.62 1479.3 L2069.08 1479.3 L2065.54 1479.3 L2062 1479.3 L2058.46 1479.3 L2054.92 1479.3 L2051.38 1479.3 L2047.83 1479.3 L2044.29 1479.3 
  L2040.75 1479.3 L2037.21 1479.3 L2033.67 1479.3 L2030.13 1479.3 L2026.59 1479.3 L2023.05 1479.3 L2019.51 1479.3 L2015.96 1479.3 L2012.42 1479.3 L2008.88 1479.3 
  L2005.34 1479.3 L2001.8 1479.3 L1998.26 1479.3 L1994.72 1479.3 L1991.18 1479.3 L1987.64 1479.3 L1984.09 1479.3 L1980.55 1479.3 L1977.01 1479.3 L1973.47 1479.3 
  L1969.93 1479.3 L1966.39 1479.3 L1962.85 1479.3 L1959.31 1479.3 L1955.77 1479.3 L1952.22 1479.3 L1948.68 1479.3 L1945.14 1479.3 L1941.6 1479.3 L1938.06 1479.3 
   Z
  " fill="#ffa500" fill-rule="evenodd" fill-opacity="0.5"/>
<polyline clip-path="url(#clip492)" style="stroke:#ffa500; stroke-width:4; stroke-opacity:1; fill:none" points="
  1938.06,1038.14 1941.6,1043.98 1945.14,1049.76 1948.68,1055.5 1952.22,1061.18 1955.77,1066.83 1959.31,1072.43 1962.85,1077.99 1966.39,1083.51 1969.93,1088.99 
  1973.47,1094.42 1977.01,1099.81 1980.55,1105.15 1984.09,1110.44 1987.64,1115.68 1991.18,1120.85 1994.72,1125.97 1998.26,1131.03 2001.8,1136.02 2005.34,1140.95 
  2008.88,1145.82 2012.42,1150.64 2015.96,1155.39 2019.51,1160.1 2023.05,1164.77 2026.59,1169.4 2030.13,1174 2033.67,1178.58 2037.21,1183.16 2040.75,1187.74 
  2044.29,1192.33 2047.83,1196.94 2051.38,1201.58 2054.92,1206.26 2058.46,1210.99 2062,1215.77 2065.54,1220.61 2069.08,1225.52 2072.62,1230.5 2076.16,1235.55 
  2079.7,1240.68 2083.25,1245.88 2086.79,1251.15 2090.33,1256.5 2093.87,1261.92 2097.41,1267.4 2100.95,1272.96 2104.49,1278.58 2108.03,1284.26 2111.57,1289.99 
  2115.12,1295.77 2118.66,1301.6 2122.2,1307.46 2125.74,1313.36 2129.28,1319.29 2132.82,1325.23 2136.36,1331.18 2139.9,1337.13 2143.44,1343.08 2146.99,1349 
  2150.53,1354.89 2154.07,1360.74 2157.61,1366.53 2161.15,1372.25 2164.69,1377.89 2168.23,1383.43 2171.77,1388.86 2175.31,1394.16 2178.86,1399.33 2182.4,1404.35 
  2185.94,1409.21 2189.48,1413.89 2193.02,1418.4 2196.56,1422.71 2200.1,1426.83 2203.64,1430.75 2207.18,1434.47 2210.73,1437.98 2214.27,1441.28 2217.81,1444.38 
  2221.35,1447.28 2224.89,1449.99 2228.43,1452.5 2231.97,1454.83 2235.51,1456.98 2239.05,1458.96 2242.6,1460.78 2246.14,1462.45 2249.68,1463.98 2253.22,1465.38 
  2256.76,1466.65 2260.3,1467.81 2263.84,1468.86 2267.38,1469.82 2270.92,1470.69 2274.47,1471.49 2278.01,1472.2 2281.55,1472.86 2285.09,1473.45 2288.63,1473.99 
  
  "/>
<polyline clip-path="url(#clip492)" style="stroke:#0000ff; stroke-width:4; stroke-opacity:1; fill:none" points="
  1369.82,1479.3 1369.82,110.731 
  "/>
<polyline clip-path="url(#clip492)" style="stroke:#000000; stroke-width:4; stroke-opacity:1; fill:none" points="
  1378.65,1479.3 1378.65,107.611 
  "/>
<path clip-path="url(#clip490)" d="
M1494.58 459.25 L2277.23 459.25 L2277.23 96.3696 L1494.58 96.3696  Z
  " fill="#ffffff" fill-rule="evenodd" fill-opacity="1"/>
<polyline clip-path="url(#clip490)" style="stroke:#000000; stroke-width:4; stroke-opacity:1; fill:none" points="
  1494.58,459.25 2277.23,459.25 2277.23,96.3696 1494.58,96.3696 1494.58,459.25 
  "/>
<path clip-path="url(#clip490)" d="
M1519.75 181.042 L1670.81 181.042 L1670.81 132.658 L1519.75 132.658 L1519.75 181.042  Z
  " fill="#ffa500" fill-rule="evenodd" fill-opacity="0.5"/>
<polyline clip-path="url(#clip490)" style="stroke:#ffa500; stroke-width:4; stroke-opacity:1; fill:none" points="
  1519.75,132.658 1670.81,132.658 
  "/>
<path clip-path="url(#clip490)" d="M 0 0 M1700.38 161.19 Q1700.38 165.889 1702.3 168.574 Q1704.24 171.236 1707.62 171.236 Q1711 171.236 1712.95 168.574 Q1714.89 165.889 1714.89 161.19 Q1714.89 156.491 1712.95 153.829 Q1711 151.144 1707.62 151.144 Q1704.24 151.144 1702.3 153.829 Q1700.38 156.491 1700.38 161.19 M1714.89 170.241 Q1713.55 172.555 1711.49 173.69 Q1709.45 174.801 1706.58 174.801 Q1701.88 174.801 1698.92 171.051 Q1695.98 167.301 1695.98 161.19 Q1695.98 155.079 1698.92 151.329 Q1701.88 147.579 1706.58 147.579 Q1709.45 147.579 1711.49 148.713 Q1713.55 149.824 1714.89 152.139 L1714.89 148.204 L1719.15 148.204 L1719.15 183.991 L1714.89 183.991 L1714.89 170.241 Z" fill="#000000" fill-rule="evenodd" fill-opacity="1" /><path clip-path="url(#clip490)" d="M 0 0 M1734.22 142.648 Q1730.61 142.648 1728.78 146.213 Q1726.98 149.755 1726.98 156.884 Q1726.98 163.991 1728.78 167.556 Q1730.61 171.097 1734.22 171.097 Q1737.85 171.097 1739.66 167.556 Q1741.49 163.991 1741.49 156.884 Q1741.49 149.755 1739.66 146.213 Q1737.85 142.648 1734.22 142.648 M1734.22 138.945 Q1740.03 138.945 1743.09 143.551 Q1746.17 148.134 1746.17 156.884 Q1746.17 165.611 1743.09 170.218 Q1740.03 174.801 1734.22 174.801 Q1728.41 174.801 1725.33 170.218 Q1722.28 165.611 1722.28 156.884 Q1722.28 148.134 1725.33 143.551 Q1728.41 138.945 1734.22 138.945 Z" fill="#000000" fill-rule="evenodd" fill-opacity="1" /><path clip-path="url(#clip490)" d="M 0 0 M1751.28 139.57 L1769.64 139.57 L1769.64 143.505 L1755.56 143.505 L1755.56 151.977 Q1756.58 151.63 1757.6 151.468 Q1758.62 151.282 1759.64 151.282 Q1765.42 151.282 1768.8 154.454 Q1772.18 157.625 1772.18 163.042 Q1772.18 168.62 1768.71 171.722 Q1765.24 174.801 1758.92 174.801 Q1756.74 174.801 1754.48 174.43 Q1752.23 174.06 1749.82 173.319 L1749.82 168.62 Q1751.91 169.755 1754.13 170.31 Q1756.35 170.866 1758.83 170.866 Q1762.83 170.866 1765.17 168.759 Q1767.51 166.653 1767.51 163.042 Q1767.51 159.431 1765.17 157.324 Q1762.83 155.218 1758.83 155.218 Q1756.95 155.218 1755.08 155.634 Q1753.23 156.051 1751.28 156.931 L1751.28 139.57 Z" fill="#000000" fill-rule="evenodd" fill-opacity="1" /><path clip-path="url(#clip490)" d="
M1519.75 241.522 L1670.81 241.522 L1670.81 193.138 L1519.75 193.138 L1519.75 241.522  Z
  " fill="#008000" fill-rule="evenodd" fill-opacity="0.5"/>
<polyline clip-path="url(#clip490)" style="stroke:#008000; stroke-width:4; stroke-opacity:1; fill:none" points="
  1519.75,193.138 1670.81,193.138 
  "/>
<path clip-path="url(#clip490)" d="M 0 0 M1698.2 233.892 L1698.2 229.633 Q1699.96 230.466 1701.77 230.906 Q1703.57 231.346 1705.31 231.346 Q1709.94 231.346 1712.37 228.244 Q1714.82 225.119 1715.17 218.776 Q1713.83 220.767 1711.77 221.832 Q1709.71 222.897 1707.21 222.897 Q1702.02 222.897 1698.99 219.772 Q1695.98 216.624 1695.98 211.184 Q1695.98 205.86 1699.13 202.642 Q1702.28 199.425 1707.51 199.425 Q1713.5 199.425 1716.65 204.031 Q1719.82 208.614 1719.82 217.364 Q1719.82 225.536 1715.93 230.42 Q1712.07 235.281 1705.52 235.281 Q1703.76 235.281 1701.95 234.934 Q1700.15 234.586 1698.2 233.892 M1707.51 219.239 Q1710.66 219.239 1712.48 217.086 Q1714.34 214.934 1714.34 211.184 Q1714.34 207.457 1712.48 205.304 Q1710.66 203.128 1707.51 203.128 Q1704.36 203.128 1702.51 205.304 Q1700.68 207.457 1700.68 211.184 Q1700.68 214.934 1702.51 217.086 Q1704.36 219.239 1707.51 219.239 Z" fill="#000000" fill-rule="evenodd" fill-opacity="1" /><path clip-path="url(#clip490)" d="M 0 0 M1734.89 203.128 Q1731.28 203.128 1729.45 206.693 Q1727.65 210.235 1727.65 217.364 Q1727.65 224.471 1729.45 228.036 Q1731.28 231.577 1734.89 231.577 Q1738.53 231.577 1740.33 228.036 Q1742.16 224.471 1742.16 217.364 Q1742.16 210.235 1740.33 206.693 Q1738.53 203.128 1734.89 203.128 M1734.89 199.425 Q1740.7 199.425 1743.76 204.031 Q1746.84 208.614 1746.84 217.364 Q1746.84 226.091 1743.76 230.698 Q1740.7 235.281 1734.89 235.281 Q1729.08 235.281 1726 230.698 Q1722.95 226.091 1722.95 217.364 Q1722.95 208.614 1726 204.031 Q1729.08 199.425 1734.89 199.425 Z" fill="#000000" fill-rule="evenodd" fill-opacity="1" /><path clip-path="url(#clip490)" d="M 0 0 M1781.3 219.401 Q1779.29 219.401 1778.13 221.114 Q1777 222.827 1777 225.883 Q1777 228.892 1778.13 230.628 Q1779.29 232.341 1781.3 232.341 Q1783.27 232.341 1784.41 230.628 Q1785.56 228.892 1785.56 225.883 Q1785.56 222.85 1784.41 221.137 Q1783.27 219.401 1781.3 219.401 M1781.3 216.462 Q1784.96 216.462 1787.11 219.008 Q1789.27 221.554 1789.27 225.883 Q1789.27 230.211 1787.09 232.758 Q1784.94 235.281 1781.3 235.281 Q1777.6 235.281 1775.45 232.758 Q1773.29 230.211 1773.29 225.883 Q1773.29 221.531 1775.45 219.008 Q1777.62 216.462 1781.3 216.462 M1757.42 202.364 Q1755.42 202.364 1754.27 204.1 Q1753.13 205.813 1753.13 208.823 Q1753.13 211.878 1754.27 213.591 Q1755.4 215.304 1757.42 215.304 Q1759.43 215.304 1760.56 213.591 Q1761.72 211.878 1761.72 208.823 Q1761.72 205.837 1760.56 204.1 Q1759.41 202.364 1757.42 202.364 M1778.32 199.425 L1782.02 199.425 L1760.4 235.281 L1756.7 235.281 L1778.32 199.425 M1757.42 199.425 Q1761.07 199.425 1763.25 201.971 Q1765.42 204.494 1765.42 208.823 Q1765.42 213.198 1763.25 215.721 Q1761.1 218.244 1757.42 218.244 Q1753.73 218.244 1751.58 215.721 Q1749.45 213.174 1749.45 208.823 Q1749.45 204.517 1751.6 201.971 Q1753.76 199.425 1757.42 199.425 Z" fill="#000000" fill-rule="evenodd" fill-opacity="1" /><path clip-path="url(#clip490)" d="M 0 0 M1830.35 218.961 L1830.35 234.61 L1826.1 234.61 L1826.1 219.1 Q1826.1 215.42 1824.66 213.591 Q1823.22 211.762 1820.35 211.762 Q1816.91 211.762 1814.91 213.962 Q1812.92 216.161 1812.92 219.957 L1812.92 234.61 L1808.64 234.61 L1808.64 208.684 L1812.92 208.684 L1812.92 212.712 Q1814.45 210.374 1816.51 209.216 Q1818.6 208.059 1821.3 208.059 Q1825.77 208.059 1828.06 210.837 Q1830.35 213.591 1830.35 218.961 Z" fill="#000000" fill-rule="evenodd" fill-opacity="1" /><path clip-path="url(#clip490)" d="M 0 0 M1844.87 211.67 Q1841.44 211.67 1839.45 214.355 Q1837.46 217.017 1837.46 221.67 Q1837.46 226.323 1839.43 229.008 Q1841.42 231.67 1844.87 231.67 Q1848.27 231.67 1850.26 228.985 Q1852.25 226.299 1852.25 221.67 Q1852.25 217.063 1850.26 214.378 Q1848.27 211.67 1844.87 211.67 M1844.87 208.059 Q1850.42 208.059 1853.6 211.67 Q1856.77 215.281 1856.77 221.67 Q1856.77 228.036 1853.6 231.67 Q1850.42 235.281 1844.87 235.281 Q1839.29 235.281 1836.12 231.67 Q1832.97 228.036 1832.97 221.67 Q1832.97 215.281 1836.12 211.67 Q1839.29 208.059 1844.87 208.059 Z" fill="#000000" fill-rule="evenodd" fill-opacity="1" /><path clip-path="url(#clip490)" d="M 0 0 M1882.78 218.961 L1882.78 234.61 L1878.53 234.61 L1878.53 219.1 Q1878.53 215.42 1877.09 213.591 Q1875.66 211.762 1872.78 211.762 Q1869.34 211.762 1867.35 213.962 Q1865.35 216.161 1865.35 219.957 L1865.35 234.61 L1861.07 234.61 L1861.07 208.684 L1865.35 208.684 L1865.35 212.712 Q1866.88 210.374 1868.94 209.216 Q1871.03 208.059 1873.73 208.059 Q1878.2 208.059 1880.49 210.837 Q1882.78 213.591 1882.78 218.961 Z" fill="#000000" fill-rule="evenodd" fill-opacity="1" /><path clip-path="url(#clip490)" d="M 0 0 M1885.1 219.725 L1897.58 219.725 L1897.58 223.522 L1885.1 223.522 L1885.1 219.725 Z" fill="#000000" fill-rule="evenodd" fill-opacity="1" /><path clip-path="url(#clip490)" d="M 0 0 M1917.07 212.665 Q1916.35 212.249 1915.49 212.063 Q1914.66 211.855 1913.64 211.855 Q1910.03 211.855 1908.09 214.216 Q1906.16 216.554 1906.16 220.952 L1906.16 234.61 L1901.88 234.61 L1901.88 208.684 L1906.16 208.684 L1906.16 212.712 Q1907.51 210.35 1909.66 209.216 Q1911.81 208.059 1914.89 208.059 Q1915.33 208.059 1915.86 208.128 Q1916.4 208.175 1917.04 208.29 L1917.07 212.665 Z" fill="#000000" fill-rule="evenodd" fill-opacity="1" /><path clip-path="url(#clip490)" d="M 0 0 M1942.67 220.582 L1942.67 222.665 L1923.09 222.665 Q1923.36 227.063 1925.72 229.378 Q1928.11 231.67 1932.34 231.67 Q1934.8 231.67 1937.09 231.068 Q1939.4 230.466 1941.67 229.262 L1941.67 233.29 Q1939.38 234.262 1936.97 234.772 Q1934.57 235.281 1932.09 235.281 Q1925.89 235.281 1922.25 231.67 Q1918.64 228.059 1918.64 221.901 Q1918.64 215.536 1922.07 211.809 Q1925.52 208.059 1931.35 208.059 Q1936.58 208.059 1939.61 211.438 Q1942.67 214.795 1942.67 220.582 M1938.41 219.332 Q1938.36 215.837 1936.44 213.753 Q1934.54 211.67 1931.4 211.67 Q1927.83 211.67 1925.68 213.684 Q1923.55 215.698 1923.22 219.355 L1938.41 219.332 Z" fill="#000000" fill-rule="evenodd" fill-opacity="1" /><path clip-path="url(#clip490)" d="M 0 0 M1947.14 208.684 L1951.4 208.684 L1951.4 235.073 Q1951.4 240.026 1949.5 242.248 Q1947.62 244.471 1943.43 244.471 L1941.81 244.471 L1941.81 240.86 L1942.95 240.86 Q1945.38 240.86 1946.26 239.725 Q1947.14 238.614 1947.14 235.073 L1947.14 208.684 M1947.14 198.591 L1951.4 198.591 L1951.4 203.985 L1947.14 203.985 L1947.14 198.591 Z" fill="#000000" fill-rule="evenodd" fill-opacity="1" /><path clip-path="url(#clip490)" d="M 0 0 M1978.04 220.582 L1978.04 222.665 L1958.46 222.665 Q1958.73 227.063 1961.09 229.378 Q1963.48 231.67 1967.71 231.67 Q1970.17 231.67 1972.46 231.068 Q1974.78 230.466 1977.04 229.262 L1977.04 233.29 Q1974.75 234.262 1972.34 234.772 Q1969.94 235.281 1967.46 235.281 Q1961.26 235.281 1957.62 231.67 Q1954.01 228.059 1954.01 221.901 Q1954.01 215.536 1957.44 211.809 Q1960.89 208.059 1966.72 208.059 Q1971.95 208.059 1974.98 211.438 Q1978.04 214.795 1978.04 220.582 M1973.78 219.332 Q1973.73 215.837 1971.81 213.753 Q1969.91 211.67 1966.77 211.67 Q1963.2 211.67 1961.05 213.684 Q1958.92 215.698 1958.59 219.355 L1973.78 219.332 Z" fill="#000000" fill-rule="evenodd" fill-opacity="1" /><path clip-path="url(#clip490)" d="M 0 0 M2001.16 209.679 L2001.16 213.661 Q1999.36 212.665 1997.53 212.179 Q1995.72 211.67 1993.87 211.67 Q1989.73 211.67 1987.44 214.309 Q1985.15 216.924 1985.15 221.67 Q1985.15 226.415 1987.44 229.054 Q1989.73 231.67 1993.87 231.67 Q1995.72 231.67 1997.53 231.184 Q1999.36 230.674 2001.16 229.679 L2001.16 233.614 Q1999.38 234.448 1997.46 234.864 Q1995.56 235.281 1993.41 235.281 Q1987.55 235.281 1984.1 231.6 Q1980.65 227.92 1980.65 221.67 Q1980.65 215.327 1984.13 211.693 Q1987.62 208.059 1993.69 208.059 Q1995.65 208.059 1997.53 208.475 Q1999.4 208.869 2001.16 209.679 Z" fill="#000000" fill-rule="evenodd" fill-opacity="1" /><path clip-path="url(#clip490)" d="M 0 0 M2009.84 201.323 L2009.84 208.684 L2018.62 208.684 L2018.62 211.994 L2009.84 211.994 L2009.84 226.068 Q2009.84 229.239 2010.7 230.142 Q2011.58 231.045 2014.24 231.045 L2018.62 231.045 L2018.62 234.61 L2014.24 234.61 Q2009.31 234.61 2007.44 232.781 Q2005.56 230.929 2005.56 226.068 L2005.56 211.994 L2002.44 211.994 L2002.44 208.684 L2005.56 208.684 L2005.56 201.323 L2009.84 201.323 Z" fill="#000000" fill-rule="evenodd" fill-opacity="1" /><path clip-path="url(#clip490)" d="M 0 0 M2023.08 208.684 L2027.34 208.684 L2027.34 234.61 L2023.08 234.61 L2023.08 208.684 M2023.08 198.591 L2027.34 198.591 L2027.34 203.985 L2023.08 203.985 L2023.08 198.591 Z" fill="#000000" fill-rule="evenodd" fill-opacity="1" /><path clip-path="url(#clip490)" d="M 0 0 M2041.86 211.67 Q2038.43 211.67 2036.44 214.355 Q2034.45 217.017 2034.45 221.67 Q2034.45 226.323 2036.42 229.008 Q2038.41 231.67 2041.86 231.67 Q2045.26 231.67 2047.25 228.985 Q2049.24 226.299 2049.24 221.67 Q2049.24 217.063 2047.25 214.378 Q2045.26 211.67 2041.86 211.67 M2041.86 208.059 Q2047.41 208.059 2050.58 211.67 Q2053.76 215.281 2053.76 221.67 Q2053.76 228.036 2050.58 231.67 Q2047.41 235.281 2041.86 235.281 Q2036.28 235.281 2033.11 231.67 Q2029.96 228.036 2029.96 221.67 Q2029.96 215.281 2033.11 211.67 Q2036.28 208.059 2041.86 208.059 Z" fill="#000000" fill-rule="evenodd" fill-opacity="1" /><path clip-path="url(#clip490)" d="M 0 0 M2079.77 218.961 L2079.77 234.61 L2075.52 234.61 L2075.52 219.1 Q2075.52 215.42 2074.08 213.591 Q2072.64 211.762 2069.77 211.762 Q2066.33 211.762 2064.33 213.962 Q2062.34 216.161 2062.34 219.957 L2062.34 234.61 L2058.06 234.61 L2058.06 208.684 L2062.34 208.684 L2062.34 212.712 Q2063.87 210.374 2065.93 209.216 Q2068.02 208.059 2070.72 208.059 Q2075.19 208.059 2077.48 210.837 Q2079.77 213.591 2079.77 218.961 Z" fill="#000000" fill-rule="evenodd" fill-opacity="1" /><path clip-path="url(#clip490)" d="M 0 0 M2114.33 212.665 Q2113.62 212.249 2112.76 212.063 Q2111.93 211.855 2110.91 211.855 Q2107.3 211.855 2105.35 214.216 Q2103.43 216.554 2103.43 220.952 L2103.43 234.61 L2099.15 234.61 L2099.15 208.684 L2103.43 208.684 L2103.43 212.712 Q2104.77 210.35 2106.93 209.216 Q2109.08 208.059 2112.16 208.059 Q2112.6 208.059 2113.13 208.128 Q2113.66 208.175 2114.31 208.29 L2114.33 212.665 Z" fill="#000000" fill-rule="evenodd" fill-opacity="1" /><path clip-path="url(#clip490)" d="M 0 0 M2139.94 220.582 L2139.94 222.665 L2120.35 222.665 Q2120.63 227.063 2122.99 229.378 Q2125.38 231.67 2129.61 231.67 Q2132.07 231.67 2134.36 231.068 Q2136.67 230.466 2138.94 229.262 L2138.94 233.29 Q2136.65 234.262 2134.24 234.772 Q2131.83 235.281 2129.36 235.281 Q2123.15 235.281 2119.52 231.67 Q2115.91 228.059 2115.91 221.901 Q2115.91 215.536 2119.33 211.809 Q2122.78 208.059 2128.62 208.059 Q2133.85 208.059 2136.88 211.438 Q2139.94 214.795 2139.94 220.582 M2135.68 219.332 Q2135.63 215.837 2133.71 213.753 Q2131.81 211.67 2128.66 211.67 Q2125.1 211.67 2122.95 213.684 Q2120.82 215.698 2120.49 219.355 L2135.68 219.332 Z" fill="#000000" fill-rule="evenodd" fill-opacity="1" /><path clip-path="url(#clip490)" d="M 0 0 M2161.46 221.346 Q2161.46 216.716 2159.54 214.17 Q2157.64 211.624 2154.2 211.624 Q2150.77 211.624 2148.85 214.17 Q2146.95 216.716 2146.95 221.346 Q2146.95 225.952 2148.85 228.498 Q2150.77 231.045 2154.2 231.045 Q2157.64 231.045 2159.54 228.498 Q2161.46 225.952 2161.46 221.346 M2165.72 231.392 Q2165.72 238.012 2162.78 241.23 Q2159.84 244.471 2153.78 244.471 Q2151.53 244.471 2149.54 244.123 Q2147.55 243.799 2145.68 243.105 L2145.68 238.961 Q2147.55 239.98 2149.38 240.466 Q2151.21 240.952 2153.11 240.952 Q2157.3 240.952 2159.38 238.753 Q2161.46 236.577 2161.46 232.156 L2161.46 230.049 Q2160.14 232.341 2158.08 233.475 Q2156.02 234.61 2153.15 234.61 Q2148.39 234.61 2145.47 230.975 Q2142.55 227.341 2142.55 221.346 Q2142.55 215.327 2145.47 211.693 Q2148.39 208.059 2153.15 208.059 Q2156.02 208.059 2158.08 209.193 Q2160.14 210.327 2161.46 212.619 L2161.46 208.684 L2165.72 208.684 L2165.72 231.392 Z" fill="#000000" fill-rule="evenodd" fill-opacity="1" /><path clip-path="url(#clip490)" d="M 0 0 M2170.19 208.684 L2174.45 208.684 L2174.45 234.61 L2170.19 234.61 L2170.19 208.684 M2170.19 198.591 L2174.45 198.591 L2174.45 203.985 L2170.19 203.985 L2170.19 198.591 Z" fill="#000000" fill-rule="evenodd" fill-opacity="1" /><path clip-path="url(#clip490)" d="M 0 0 M2188.96 211.67 Q2185.54 211.67 2183.55 214.355 Q2181.56 217.017 2181.56 221.67 Q2181.56 226.323 2183.52 229.008 Q2185.51 231.67 2188.96 231.67 Q2192.37 231.67 2194.36 228.985 Q2196.35 226.299 2196.35 221.67 Q2196.35 217.063 2194.36 214.378 Q2192.37 211.67 2188.96 211.67 M2188.96 208.059 Q2194.52 208.059 2197.69 211.67 Q2200.86 215.281 2200.86 221.67 Q2200.86 228.036 2197.69 231.67 Q2194.52 235.281 2188.96 235.281 Q2183.39 235.281 2180.21 231.67 Q2177.07 228.036 2177.07 221.67 Q2177.07 215.281 2180.21 211.67 Q2183.39 208.059 2188.96 208.059 Z" fill="#000000" fill-rule="evenodd" fill-opacity="1" /><path clip-path="url(#clip490)" d="M 0 0 M2226.88 218.961 L2226.88 234.61 L2222.62 234.61 L2222.62 219.1 Q2222.62 215.42 2221.19 213.591 Q2219.75 211.762 2216.88 211.762 Q2213.43 211.762 2211.44 213.962 Q2209.45 216.161 2209.45 219.957 L2209.45 234.61 L2205.17 234.61 L2205.17 208.684 L2209.45 208.684 L2209.45 212.712 Q2210.98 210.374 2213.04 209.216 Q2215.12 208.059 2217.83 208.059 Q2222.3 208.059 2224.59 210.837 Q2226.88 213.591 2226.88 218.961 Z" fill="#000000" fill-rule="evenodd" fill-opacity="1" /><path clip-path="url(#clip490)" d="
M1519.75 302.002 L1670.81 302.002 L1670.81 253.618 L1519.75 253.618 L1519.75 302.002  Z
  " fill="#ffa500" fill-rule="evenodd" fill-opacity="0.5"/>
<polyline clip-path="url(#clip490)" style="stroke:#ffa500; stroke-width:4; stroke-opacity:1; fill:none" points="
  1519.75,253.618 1670.81,253.618 
  "/>
<path clip-path="url(#clip490)" d="M 0 0 M1700.38 282.15 Q1700.38 286.849 1702.3 289.534 Q1704.24 292.196 1707.62 292.196 Q1711 292.196 1712.95 289.534 Q1714.89 286.849 1714.89 282.15 Q1714.89 277.451 1712.95 274.789 Q1711 272.104 1707.62 272.104 Q1704.24 272.104 1702.3 274.789 Q1700.38 277.451 1700.38 282.15 M1714.89 291.201 Q1713.55 293.515 1711.49 294.65 Q1709.45 295.761 1706.58 295.761 Q1701.88 295.761 1698.92 292.011 Q1695.98 288.261 1695.98 282.15 Q1695.98 276.039 1698.92 272.289 Q1701.88 268.539 1706.58 268.539 Q1709.45 268.539 1711.49 269.673 Q1713.55 270.784 1714.89 273.099 L1714.89 269.164 L1719.15 269.164 L1719.15 304.951 L1714.89 304.951 L1714.89 291.201 Z" fill="#000000" fill-rule="evenodd" fill-opacity="1" /><path clip-path="url(#clip490)" d="M 0 0 M1724.36 294.372 L1724.36 290.113 Q1726.12 290.946 1727.92 291.386 Q1729.73 291.826 1731.47 291.826 Q1736.1 291.826 1738.53 288.724 Q1740.98 285.599 1741.33 279.256 Q1739.98 281.247 1737.92 282.312 Q1735.86 283.377 1733.36 283.377 Q1728.18 283.377 1725.15 280.252 Q1722.14 277.104 1722.14 271.664 Q1722.14 266.34 1725.29 263.122 Q1728.43 259.905 1733.67 259.905 Q1739.66 259.905 1742.81 264.511 Q1745.98 269.094 1745.98 277.844 Q1745.98 286.016 1742.09 290.9 Q1738.23 295.761 1731.67 295.761 Q1729.92 295.761 1728.11 295.414 Q1726.3 295.066 1724.36 294.372 M1733.67 279.719 Q1736.81 279.719 1738.64 277.566 Q1740.49 275.414 1740.49 271.664 Q1740.49 267.937 1738.64 265.784 Q1736.81 263.608 1733.67 263.608 Q1730.52 263.608 1728.67 265.784 Q1726.84 267.937 1726.84 271.664 Q1726.84 275.414 1728.67 277.566 Q1730.52 279.719 1733.67 279.719 Z" fill="#000000" fill-rule="evenodd" fill-opacity="1" /><path clip-path="url(#clip490)" d="M 0 0 M1751.1 260.53 L1769.45 260.53 L1769.45 264.465 L1755.38 264.465 L1755.38 272.937 Q1756.4 272.59 1757.42 272.428 Q1758.43 272.242 1759.45 272.242 Q1765.24 272.242 1768.62 275.414 Q1772 278.585 1772 284.002 Q1772 289.58 1768.53 292.682 Q1765.05 295.761 1758.73 295.761 Q1756.56 295.761 1754.29 295.39 Q1752.04 295.02 1749.64 294.279 L1749.64 289.58 Q1751.72 290.715 1753.94 291.27 Q1756.17 291.826 1758.64 291.826 Q1762.65 291.826 1764.98 289.719 Q1767.32 287.613 1767.32 284.002 Q1767.32 280.391 1764.98 278.284 Q1762.65 276.178 1758.64 276.178 Q1756.77 276.178 1754.89 276.594 Q1753.04 277.011 1751.1 277.891 L1751.1 260.53 Z" fill="#000000" fill-rule="evenodd" fill-opacity="1" /><polyline clip-path="url(#clip490)" style="stroke:#0000ff; stroke-width:4; stroke-opacity:1; fill:none" points="
  1519.75,338.29 1670.81,338.29 
  "/>
<path clip-path="url(#clip490)" d="M 0 0 M1716.33 334.621 Q1717.92 331.75 1720.15 330.385 Q1722.37 329.019 1725.38 329.019 Q1729.43 329.019 1731.63 331.866 Q1733.83 334.69 1733.83 339.921 L1733.83 355.57 L1729.54 355.57 L1729.54 340.06 Q1729.54 336.334 1728.23 334.528 Q1726.91 332.722 1724.2 332.722 Q1720.89 332.722 1718.97 334.922 Q1717.04 337.121 1717.04 340.917 L1717.04 355.57 L1712.76 355.57 L1712.76 340.06 Q1712.76 336.31 1711.44 334.528 Q1710.12 332.722 1707.37 332.722 Q1704.11 332.722 1702.18 334.945 Q1700.26 337.144 1700.26 340.917 L1700.26 355.57 L1695.98 355.57 L1695.98 329.644 L1700.26 329.644 L1700.26 333.672 Q1701.72 331.287 1703.76 330.153 Q1705.79 329.019 1708.6 329.019 Q1711.42 329.019 1713.39 330.454 Q1715.38 331.889 1716.33 334.621 Z" fill="#000000" fill-rule="evenodd" fill-opacity="1" /><path clip-path="url(#clip490)" d="M 0 0 M1760.47 341.542 L1760.47 343.625 L1740.89 343.625 Q1741.17 348.023 1743.53 350.338 Q1745.91 352.63 1750.15 352.63 Q1752.6 352.63 1754.89 352.028 Q1757.21 351.426 1759.48 350.222 L1759.48 354.25 Q1757.18 355.222 1754.78 355.732 Q1752.37 356.241 1749.89 356.241 Q1743.69 356.241 1740.05 352.63 Q1736.44 349.019 1736.44 342.861 Q1736.44 336.496 1739.87 332.769 Q1743.32 329.019 1749.15 329.019 Q1754.38 329.019 1757.42 332.398 Q1760.47 335.755 1760.47 341.542 M1756.21 340.292 Q1756.17 336.797 1754.24 334.713 Q1752.35 332.63 1749.2 332.63 Q1745.63 332.63 1743.48 334.644 Q1741.35 336.658 1741.03 340.315 L1756.21 340.292 Z" fill="#000000" fill-rule="evenodd" fill-opacity="1" /><path clip-path="url(#clip490)" d="M 0 0 M1776.72 342.537 Q1771.56 342.537 1769.57 343.718 Q1767.58 344.898 1767.58 347.746 Q1767.58 350.014 1769.06 351.357 Q1770.56 352.676 1773.13 352.676 Q1776.67 352.676 1778.8 350.176 Q1780.96 347.653 1780.96 343.486 L1780.96 342.537 L1776.72 342.537 M1785.22 340.778 L1785.22 355.57 L1780.96 355.57 L1780.96 351.634 Q1779.5 353.995 1777.32 355.13 Q1775.15 356.241 1772 356.241 Q1768.02 356.241 1765.66 354.019 Q1763.32 351.773 1763.32 348.023 Q1763.32 343.648 1766.23 341.426 Q1769.17 339.204 1774.98 339.204 L1780.96 339.204 L1780.96 338.787 Q1780.96 335.847 1779.01 334.25 Q1777.09 332.63 1773.6 332.63 Q1771.37 332.63 1769.27 333.162 Q1767.16 333.695 1765.22 334.759 L1765.22 330.824 Q1767.55 329.922 1769.75 329.482 Q1771.95 329.019 1774.04 329.019 Q1779.66 329.019 1782.44 331.935 Q1785.22 334.852 1785.22 340.778 Z" fill="#000000" fill-rule="evenodd" fill-opacity="1" /><path clip-path="url(#clip490)" d="M 0 0 M1811.23 339.921 L1811.23 355.57 L1806.97 355.57 L1806.97 340.06 Q1806.97 336.38 1805.54 334.551 Q1804.1 332.722 1801.23 332.722 Q1797.79 332.722 1795.79 334.922 Q1793.8 337.121 1793.8 340.917 L1793.8 355.57 L1789.52 355.57 L1789.52 329.644 L1793.8 329.644 L1793.8 333.672 Q1795.33 331.334 1797.39 330.176 Q1799.48 329.019 1802.18 329.019 Q1806.65 329.019 1808.94 331.797 Q1811.23 334.551 1811.23 339.921 Z" fill="#000000" fill-rule="evenodd" fill-opacity="1" /><polyline clip-path="url(#clip490)" style="stroke:#000000; stroke-width:4; stroke-opacity:1; fill:none" points="
  1519.75,398.77 1670.81,398.77 
  "/>
<path clip-path="url(#clip490)" d="M 0 0 M1716.33 395.101 Q1717.92 392.23 1720.15 390.865 Q1722.37 389.499 1725.38 389.499 Q1729.43 389.499 1731.63 392.346 Q1733.83 395.17 1733.83 400.401 L1733.83 416.05 L1729.54 416.05 L1729.54 400.54 Q1729.54 396.814 1728.23 395.008 Q1726.91 393.202 1724.2 393.202 Q1720.89 393.202 1718.97 395.402 Q1717.04 397.601 1717.04 401.397 L1717.04 416.05 L1712.76 416.05 L1712.76 400.54 Q1712.76 396.79 1711.44 395.008 Q1710.12 393.202 1707.37 393.202 Q1704.11 393.202 1702.18 395.425 Q1700.26 397.624 1700.26 401.397 L1700.26 416.05 L1695.98 416.05 L1695.98 390.124 L1700.26 390.124 L1700.26 394.152 Q1701.72 391.767 1703.76 390.633 Q1705.79 389.499 1708.6 389.499 Q1711.42 389.499 1713.39 390.934 Q1715.38 392.369 1716.33 395.101 Z" fill="#000000" fill-rule="evenodd" fill-opacity="1" /><path clip-path="url(#clip490)" d="M 0 0 M1760.47 402.022 L1760.47 404.105 L1740.89 404.105 Q1741.17 408.503 1743.53 410.818 Q1745.91 413.11 1750.15 413.11 Q1752.6 413.11 1754.89 412.508 Q1757.21 411.906 1759.48 410.702 L1759.48 414.73 Q1757.18 415.702 1754.78 416.212 Q1752.37 416.721 1749.89 416.721 Q1743.69 416.721 1740.05 413.11 Q1736.44 409.499 1736.44 403.341 Q1736.44 396.976 1739.87 393.249 Q1743.32 389.499 1749.15 389.499 Q1754.38 389.499 1757.42 392.878 Q1760.47 396.235 1760.47 402.022 M1756.21 400.772 Q1756.17 397.277 1754.24 395.193 Q1752.35 393.11 1749.2 393.11 Q1745.63 393.11 1743.48 395.124 Q1741.35 397.138 1741.03 400.795 L1756.21 400.772 Z" fill="#000000" fill-rule="evenodd" fill-opacity="1" /><path clip-path="url(#clip490)" d="M 0 0 M1782 394.059 L1782 380.031 L1786.26 380.031 L1786.26 416.05 L1782 416.05 L1782 412.161 Q1780.66 414.475 1778.6 415.61 Q1776.56 416.721 1773.69 416.721 Q1768.99 416.721 1766.03 412.971 Q1763.09 409.221 1763.09 403.11 Q1763.09 396.999 1766.03 393.249 Q1768.99 389.499 1773.69 389.499 Q1776.56 389.499 1778.6 390.633 Q1780.66 391.744 1782 394.059 M1767.48 403.11 Q1767.48 407.809 1769.41 410.494 Q1771.35 413.156 1774.73 413.156 Q1778.11 413.156 1780.05 410.494 Q1782 407.809 1782 403.11 Q1782 398.411 1780.05 395.749 Q1778.11 393.064 1774.73 393.064 Q1771.35 393.064 1769.41 395.749 Q1767.48 398.411 1767.48 403.11 Z" fill="#000000" fill-rule="evenodd" fill-opacity="1" /><path clip-path="url(#clip490)" d="M 0 0 M1790.73 390.124 L1794.98 390.124 L1794.98 416.05 L1790.73 416.05 L1790.73 390.124 M1790.73 380.031 L1794.98 380.031 L1794.98 385.425 L1790.73 385.425 L1790.73 380.031 Z" fill="#000000" fill-rule="evenodd" fill-opacity="1" /><path clip-path="url(#clip490)" d="M 0 0 M1811.23 403.017 Q1806.07 403.017 1804.08 404.198 Q1802.09 405.378 1802.09 408.226 Q1802.09 410.494 1803.57 411.837 Q1805.08 413.156 1807.65 413.156 Q1811.19 413.156 1813.32 410.656 Q1815.47 408.133 1815.47 403.966 L1815.47 403.017 L1811.23 403.017 M1819.73 401.258 L1819.73 416.05 L1815.47 416.05 L1815.47 412.114 Q1814.01 414.475 1811.84 415.61 Q1809.66 416.721 1806.51 416.721 Q1802.53 416.721 1800.17 414.499 Q1797.83 412.253 1797.83 408.503 Q1797.83 404.128 1800.75 401.906 Q1803.69 399.684 1809.5 399.684 L1815.47 399.684 L1815.47 399.267 Q1815.47 396.327 1813.53 394.73 Q1811.6 393.11 1808.11 393.11 Q1805.89 393.11 1803.78 393.642 Q1801.67 394.175 1799.73 395.239 L1799.73 391.304 Q1802.07 390.402 1804.27 389.962 Q1806.47 389.499 1808.55 389.499 Q1814.17 389.499 1816.95 392.415 Q1819.73 395.332 1819.73 401.258 Z" fill="#000000" fill-rule="evenodd" fill-opacity="1" /><path clip-path="url(#clip490)" d="M 0 0 M1845.75 400.401 L1845.75 416.05 L1841.49 416.05 L1841.49 400.54 Q1841.49 396.86 1840.05 395.031 Q1838.62 393.202 1835.75 393.202 Q1832.3 393.202 1830.31 395.402 Q1828.32 397.601 1828.32 401.397 L1828.32 416.05 L1824.04 416.05 L1824.04 390.124 L1828.32 390.124 L1828.32 394.152 Q1829.85 391.814 1831.91 390.656 Q1833.99 389.499 1836.7 389.499 Q1841.16 389.499 1843.46 392.277 Q1845.75 395.031 1845.75 400.401 Z" fill="#000000" fill-rule="evenodd" fill-opacity="1" /></svg>
