<?xml version="1.0" encoding="utf-8"?>
<svg xmlns="http://www.w3.org/2000/svg" xmlns:xlink="http://www.w3.org/1999/xlink" width="600" height="400" viewBox="0 0 2400 1600">
<defs>
  <clipPath id="clip520">
    <rect x="0" y="0" width="2400" height="1600"/>
  </clipPath>
</defs>
<path clip-path="url(#clip520)" d="
M0 1600 L2400 1600 L2400 0 L0 0  Z
  " fill="#ffffff" fill-rule="evenodd" fill-opacity="1"/>
<defs>
  <clipPath id="clip521">
    <rect x="480" y="0" width="1681" height="1600"/>
  </clipPath>
</defs>
<path clip-path="url(#clip520)" d="
M86.9921 1521.01 L2352.76 1521.01 L2352.76 47.2441 L86.9921 47.2441  Z
  " fill="#ffffff" fill-rule="evenodd" fill-opacity="1"/>
<defs>
  <clipPath id="clip522">
    <rect x="86" y="47" width="2267" height="1475"/>
  </clipPath>
</defs>
<polyline clip-path="url(#clip522)" style="stroke:#000000; stroke-width:2; stroke-opacity:0.1; fill:none" points="
  139.041,1521.01 139.041,47.2441 
  "/>
<polyline clip-path="url(#clip522)" style="stroke:#000000; stroke-width:2; stroke-opacity:0.1; fill:none" points="
  558.077,1521.01 558.077,47.2441 
  "/>
<polyline clip-path="url(#clip522)" style="stroke:#000000; stroke-width:2; stroke-opacity:0.1; fill:none" points="
  977.114,1521.01 977.114,47.2441 
  "/>
<polyline clip-path="url(#clip522)" style="stroke:#000000; stroke-width:2; stroke-opacity:0.1; fill:none" points="
  1396.15,1521.01 1396.15,47.2441 
  "/>
<polyline clip-path="url(#clip522)" style="stroke:#000000; stroke-width:2; stroke-opacity:0.1; fill:none" points="
  1815.19,1521.01 1815.19,47.2441 
  "/>
<polyline clip-path="url(#clip522)" style="stroke:#000000; stroke-width:2; stroke-opacity:0.1; fill:none" points="
  2234.22,1521.01 2234.22,47.2441 
  "/>
<polyline clip-path="url(#clip522)" style="stroke:#000000; stroke-width:2; stroke-opacity:0.1; fill:none" points="
  86.9921,1479.3 2352.76,1479.3 
  "/>
<polyline clip-path="url(#clip522)" style="stroke:#000000; stroke-width:2; stroke-opacity:0.1; fill:none" points="
  86.9921,1177.19 2352.76,1177.19 
  "/>
<polyline clip-path="url(#clip522)" style="stroke:#000000; stroke-width:2; stroke-opacity:0.1; fill:none" points="
  86.9921,875.089 2352.76,875.089 
  "/>
<polyline clip-path="url(#clip522)" style="stroke:#000000; stroke-width:2; stroke-opacity:0.1; fill:none" points="
  86.9921,572.984 2352.76,572.984 
  "/>
<polyline clip-path="url(#clip522)" style="stroke:#000000; stroke-width:2; stroke-opacity:0.1; fill:none" points="
  86.9921,270.88 2352.76,270.88 
  "/>
<polyline clip-path="url(#clip520)" style="stroke:#000000; stroke-width:4; stroke-opacity:1; fill:none" points="
  86.9921,1521.01 2352.76,1521.01 
  "/>
<polyline clip-path="url(#clip520)" style="stroke:#000000; stroke-width:4; stroke-opacity:1; fill:none" points="
  86.9921,1521.01 86.9921,47.2441 
  "/>
<polyline clip-path="url(#clip520)" style="stroke:#000000; stroke-width:4; stroke-opacity:1; fill:none" points="
  139.041,1521.01 139.041,1503.32 
  "/>
<polyline clip-path="url(#clip520)" style="stroke:#000000; stroke-width:4; stroke-opacity:1; fill:none" points="
  558.077,1521.01 558.077,1503.32 
  "/>
<polyline clip-path="url(#clip520)" style="stroke:#000000; stroke-width:4; stroke-opacity:1; fill:none" points="
  977.114,1521.01 977.114,1503.32 
  "/>
<polyline clip-path="url(#clip520)" style="stroke:#000000; stroke-width:4; stroke-opacity:1; fill:none" points="
  1396.15,1521.01 1396.15,1503.32 
  "/>
<polyline clip-path="url(#clip520)" style="stroke:#000000; stroke-width:4; stroke-opacity:1; fill:none" points="
  1815.19,1521.01 1815.19,1503.32 
  "/>
<polyline clip-path="url(#clip520)" style="stroke:#000000; stroke-width:4; stroke-opacity:1; fill:none" points="
  2234.22,1521.01 2234.22,1503.32 
  "/>
<polyline clip-path="url(#clip520)" style="stroke:#000000; stroke-width:4; stroke-opacity:1; fill:none" points="
  86.9921,1479.3 114.181,1479.3 
  "/>
<polyline clip-path="url(#clip520)" style="stroke:#000000; stroke-width:4; stroke-opacity:1; fill:none" points="
  86.9921,1177.19 114.181,1177.19 
  "/>
<polyline clip-path="url(#clip520)" style="stroke:#000000; stroke-width:4; stroke-opacity:1; fill:none" points="
  86.9921,875.089 114.181,875.089 
  "/>
<polyline clip-path="url(#clip520)" style="stroke:#000000; stroke-width:4; stroke-opacity:1; fill:none" points="
  86.9921,572.984 114.181,572.984 
  "/>
<polyline clip-path="url(#clip520)" style="stroke:#000000; stroke-width:4; stroke-opacity:1; fill:none" points="
  86.9921,270.88 114.181,270.88 
  "/>
<path clip-path="url(#clip520)" d="M 0 0 M107.05 1543 Q103.439 1543 101.611 1546.56 Q99.805 1550.11 99.805 1557.23 Q99.805 1564.34 101.611 1567.91 Q103.439 1571.45 107.05 1571.45 Q110.685 1571.45 112.49 1567.91 Q114.319 1564.34 114.319 1557.23 Q114.319 1550.11 112.49 1546.56 Q110.685 1543 107.05 1543 M107.05 1539.29 Q112.86 1539.29 115.916 1543.9 Q118.995 1548.48 118.995 1557.23 Q118.995 1565.96 115.916 1570.57 Q112.86 1575.15 107.05 1575.15 Q101.24 1575.15 98.1615 1570.57 Q95.1059 1565.96 95.1059 1557.23 Q95.1059 1548.48 98.1615 1543.9 Q101.24 1539.29 107.05 1539.29 Z" fill="#000000" fill-rule="evenodd" fill-opacity="1" /><path clip-path="url(#clip520)" d="M 0 0 M124.064 1568.6 L128.948 1568.6 L128.948 1574.48 L124.064 1574.48 L124.064 1568.6 Z" fill="#000000" fill-rule="evenodd" fill-opacity="1" /><path clip-path="url(#clip520)" d="M 0 0 M144.018 1543 Q140.407 1543 138.578 1546.56 Q136.772 1550.11 136.772 1557.23 Q136.772 1564.34 138.578 1567.91 Q140.407 1571.45 144.018 1571.45 Q147.652 1571.45 149.457 1567.91 Q151.286 1564.34 151.286 1557.23 Q151.286 1550.11 149.457 1546.56 Q147.652 1543 144.018 1543 M144.018 1539.29 Q149.828 1539.29 152.883 1543.9 Q155.962 1548.48 155.962 1557.23 Q155.962 1565.96 152.883 1570.57 Q149.828 1575.15 144.018 1575.15 Q138.208 1575.15 135.129 1570.57 Q132.073 1565.96 132.073 1557.23 Q132.073 1548.48 135.129 1543.9 Q138.208 1539.29 144.018 1539.29 Z" fill="#000000" fill-rule="evenodd" fill-opacity="1" /><path clip-path="url(#clip520)" d="M 0 0 M171.031 1543 Q167.42 1543 165.592 1546.56 Q163.786 1550.11 163.786 1557.23 Q163.786 1564.34 165.592 1567.91 Q167.42 1571.45 171.031 1571.45 Q174.666 1571.45 176.471 1567.91 Q178.3 1564.34 178.3 1557.23 Q178.3 1550.11 176.471 1546.56 Q174.666 1543 171.031 1543 M171.031 1539.29 Q176.842 1539.29 179.897 1543.9 Q182.976 1548.48 182.976 1557.23 Q182.976 1565.96 179.897 1570.57 Q176.842 1575.15 171.031 1575.15 Q165.221 1575.15 162.143 1570.57 Q159.087 1565.96 159.087 1557.23 Q159.087 1548.48 162.143 1543.9 Q165.221 1539.29 171.031 1539.29 Z" fill="#000000" fill-rule="evenodd" fill-opacity="1" /><path clip-path="url(#clip520)" d="M 0 0 M526.584 1543 Q522.973 1543 521.145 1546.56 Q519.339 1550.11 519.339 1557.23 Q519.339 1564.34 521.145 1567.91 Q522.973 1571.45 526.584 1571.45 Q530.219 1571.45 532.024 1567.91 Q533.853 1564.34 533.853 1557.23 Q533.853 1550.11 532.024 1546.56 Q530.219 1543 526.584 1543 M526.584 1539.29 Q532.395 1539.29 535.45 1543.9 Q538.529 1548.48 538.529 1557.23 Q538.529 1565.96 535.45 1570.57 Q532.395 1575.15 526.584 1575.15 Q520.774 1575.15 517.696 1570.57 Q514.64 1565.96 514.64 1557.23 Q514.64 1548.48 517.696 1543.9 Q520.774 1539.29 526.584 1539.29 Z" fill="#000000" fill-rule="evenodd" fill-opacity="1" /><path clip-path="url(#clip520)" d="M 0 0 M543.598 1568.6 L548.482 1568.6 L548.482 1574.48 L543.598 1574.48 L543.598 1568.6 Z" fill="#000000" fill-rule="evenodd" fill-opacity="1" /><path clip-path="url(#clip520)" d="M 0 0 M563.552 1543 Q559.941 1543 558.112 1546.56 Q556.307 1550.11 556.307 1557.23 Q556.307 1564.34 558.112 1567.91 Q559.941 1571.45 563.552 1571.45 Q567.186 1571.45 568.992 1567.91 Q570.82 1564.34 570.82 1557.23 Q570.82 1550.11 568.992 1546.56 Q567.186 1543 563.552 1543 M563.552 1539.29 Q569.362 1539.29 572.418 1543.9 Q575.496 1548.48 575.496 1557.23 Q575.496 1565.96 572.418 1570.57 Q569.362 1575.15 563.552 1575.15 Q557.742 1575.15 554.663 1570.57 Q551.607 1565.96 551.607 1557.23 Q551.607 1548.48 554.663 1543.9 Q557.742 1539.29 563.552 1539.29 Z" fill="#000000" fill-rule="evenodd" fill-opacity="1" /><path clip-path="url(#clip520)" d="M 0 0 M580.612 1539.92 L598.968 1539.92 L598.968 1543.86 L584.894 1543.86 L584.894 1552.33 Q585.913 1551.98 586.931 1551.82 Q587.95 1551.63 588.968 1551.63 Q594.755 1551.63 598.135 1554.8 Q601.515 1557.98 601.515 1563.39 Q601.515 1568.97 598.042 1572.07 Q594.57 1575.15 588.251 1575.15 Q586.075 1575.15 583.806 1574.78 Q581.561 1574.41 579.154 1573.67 L579.154 1568.97 Q581.237 1570.1 583.459 1570.66 Q585.681 1571.22 588.158 1571.22 Q592.163 1571.22 594.501 1569.11 Q596.839 1567 596.839 1563.39 Q596.839 1559.78 594.501 1557.67 Q592.163 1555.57 588.158 1555.57 Q586.283 1555.57 584.408 1555.98 Q582.556 1556.4 580.612 1557.28 L580.612 1539.92 Z" fill="#000000" fill-rule="evenodd" fill-opacity="1" /><path clip-path="url(#clip520)" d="M 0 0 M945.737 1543 Q942.126 1543 940.297 1546.56 Q938.491 1550.11 938.491 1557.23 Q938.491 1564.34 940.297 1567.91 Q942.126 1571.45 945.737 1571.45 Q949.371 1571.45 951.176 1567.91 Q953.005 1564.34 953.005 1557.23 Q953.005 1550.11 951.176 1546.56 Q949.371 1543 945.737 1543 M945.737 1539.29 Q951.547 1539.29 954.602 1543.9 Q957.681 1548.48 957.681 1557.23 Q957.681 1565.96 954.602 1570.57 Q951.547 1575.15 945.737 1575.15 Q939.927 1575.15 936.848 1570.57 Q933.792 1565.96 933.792 1557.23 Q933.792 1548.48 936.848 1543.9 Q939.927 1539.29 945.737 1539.29 Z" fill="#000000" fill-rule="evenodd" fill-opacity="1" /><path clip-path="url(#clip520)" d="M 0 0 M962.75 1568.6 L967.635 1568.6 L967.635 1574.48 L962.75 1574.48 L962.75 1568.6 Z" fill="#000000" fill-rule="evenodd" fill-opacity="1" /><path clip-path="url(#clip520)" d="M 0 0 M973.514 1570.54 L981.153 1570.54 L981.153 1544.18 L972.843 1545.85 L972.843 1541.59 L981.107 1539.92 L985.783 1539.92 L985.783 1570.54 L993.422 1570.54 L993.422 1574.48 L973.514 1574.48 L973.514 1570.54 Z" fill="#000000" fill-rule="evenodd" fill-opacity="1" /><path clip-path="url(#clip520)" d="M 0 0 M1008.49 1543 Q1004.88 1543 1003.05 1546.56 Q1001.25 1550.11 1001.25 1557.23 Q1001.25 1564.34 1003.05 1567.91 Q1004.88 1571.45 1008.49 1571.45 Q1012.13 1571.45 1013.93 1567.91 Q1015.76 1564.34 1015.76 1557.23 Q1015.76 1550.11 1013.93 1546.56 Q1012.13 1543 1008.49 1543 M1008.49 1539.29 Q1014.3 1539.29 1017.36 1543.9 Q1020.44 1548.48 1020.44 1557.23 Q1020.44 1565.96 1017.36 1570.57 Q1014.3 1575.15 1008.49 1575.15 Q1002.68 1575.15 999.602 1570.57 Q996.547 1565.96 996.547 1557.23 Q996.547 1548.48 999.602 1543.9 Q1002.68 1539.29 1008.49 1539.29 Z" fill="#000000" fill-rule="evenodd" fill-opacity="1" /><path clip-path="url(#clip520)" d="M 0 0 M1365.27 1543 Q1361.66 1543 1359.83 1546.56 Q1358.03 1550.11 1358.03 1557.23 Q1358.03 1564.34 1359.83 1567.91 Q1361.66 1571.45 1365.27 1571.45 Q1368.91 1571.45 1370.71 1567.91 Q1372.54 1564.34 1372.54 1557.23 Q1372.54 1550.11 1370.71 1546.56 Q1368.91 1543 1365.27 1543 M1365.27 1539.29 Q1371.08 1539.29 1374.14 1543.9 Q1377.22 1548.48 1377.22 1557.23 Q1377.22 1565.96 1374.14 1570.57 Q1371.08 1575.15 1365.27 1575.15 Q1359.46 1575.15 1356.38 1570.57 Q1353.33 1565.96 1353.33 1557.23 Q1353.33 1548.48 1356.38 1543.9 Q1359.46 1539.29 1365.27 1539.29 Z" fill="#000000" fill-rule="evenodd" fill-opacity="1" /><path clip-path="url(#clip520)" d="M 0 0 M1382.28 1568.6 L1387.17 1568.6 L1387.17 1574.48 L1382.28 1574.48 L1382.28 1568.6 Z" fill="#000000" fill-rule="evenodd" fill-opacity="1" /><path clip-path="url(#clip520)" d="M 0 0 M1393.05 1570.54 L1400.69 1570.54 L1400.69 1544.18 L1392.38 1545.85 L1392.38 1541.59 L1400.64 1539.92 L1405.32 1539.92 L1405.32 1570.54 L1412.96 1570.54 L1412.96 1574.48 L1393.05 1574.48 L1393.05 1570.54 Z" fill="#000000" fill-rule="evenodd" fill-opacity="1" /><path clip-path="url(#clip520)" d="M 0 0 M1418.07 1539.92 L1436.43 1539.92 L1436.43 1543.86 L1422.35 1543.86 L1422.35 1552.33 Q1423.37 1551.98 1424.39 1551.82 Q1425.41 1551.63 1426.43 1551.63 Q1432.21 1551.63 1435.59 1554.8 Q1438.97 1557.98 1438.97 1563.39 Q1438.97 1568.97 1435.5 1572.07 Q1432.03 1575.15 1425.71 1575.15 Q1423.53 1575.15 1421.27 1574.78 Q1419.02 1574.41 1416.61 1573.67 L1416.61 1568.97 Q1418.7 1570.1 1420.92 1570.66 Q1423.14 1571.22 1425.62 1571.22 Q1429.62 1571.22 1431.96 1569.11 Q1434.3 1567 1434.3 1563.39 Q1434.3 1559.78 1431.96 1557.67 Q1429.62 1555.57 1425.62 1555.57 Q1423.74 1555.57 1421.87 1555.98 Q1420.02 1556.4 1418.07 1557.28 L1418.07 1539.92 Z" fill="#000000" fill-rule="evenodd" fill-opacity="1" /><path clip-path="url(#clip520)" d="M 0 0 M1783.99 1543 Q1780.38 1543 1778.56 1546.56 Q1776.75 1550.11 1776.75 1557.23 Q1776.75 1564.34 1778.56 1567.91 Q1780.38 1571.45 1783.99 1571.45 Q1787.63 1571.45 1789.43 1567.91 Q1791.26 1564.34 1791.26 1557.23 Q1791.26 1550.11 1789.43 1546.56 Q1787.63 1543 1783.99 1543 M1783.99 1539.29 Q1789.8 1539.29 1792.86 1543.9 Q1795.94 1548.48 1795.94 1557.23 Q1795.94 1565.96 1792.86 1570.57 Q1789.8 1575.15 1783.99 1575.15 Q1778.18 1575.15 1775.11 1570.57 Q1772.05 1565.96 1772.05 1557.23 Q1772.05 1548.48 1775.11 1543.9 Q1778.18 1539.29 1783.99 1539.29 Z" fill="#000000" fill-rule="evenodd" fill-opacity="1" /><path clip-path="url(#clip520)" d="M 0 0 M1801.01 1568.6 L1805.89 1568.6 L1805.89 1574.48 L1801.01 1574.48 L1801.01 1568.6 Z" fill="#000000" fill-rule="evenodd" fill-opacity="1" /><path clip-path="url(#clip520)" d="M 0 0 M1814.99 1570.54 L1831.31 1570.54 L1831.31 1574.48 L1809.37 1574.48 L1809.37 1570.54 Q1812.03 1567.79 1816.61 1563.16 Q1821.22 1558.51 1822.4 1557.17 Q1824.64 1554.64 1825.52 1552.91 Q1826.43 1551.15 1826.43 1549.46 Q1826.43 1546.7 1824.48 1544.97 Q1822.56 1543.23 1819.46 1543.23 Q1817.26 1543.23 1814.8 1543.99 Q1812.37 1544.76 1809.6 1546.31 L1809.6 1541.59 Q1812.42 1540.45 1814.87 1539.87 Q1817.33 1539.29 1819.36 1539.29 Q1824.74 1539.29 1827.93 1541.98 Q1831.12 1544.67 1831.12 1549.16 Q1831.12 1551.29 1830.31 1553.21 Q1829.53 1555.1 1827.42 1557.7 Q1826.84 1558.37 1823.74 1561.59 Q1820.64 1564.78 1814.99 1570.54 Z" fill="#000000" fill-rule="evenodd" fill-opacity="1" /><path clip-path="url(#clip520)" d="M 0 0 M1846.38 1543 Q1842.77 1543 1840.94 1546.56 Q1839.13 1550.11 1839.13 1557.23 Q1839.13 1564.34 1840.94 1567.91 Q1842.77 1571.45 1846.38 1571.45 Q1850.01 1571.45 1851.82 1567.91 Q1853.65 1564.34 1853.65 1557.23 Q1853.65 1550.11 1851.82 1546.56 Q1850.01 1543 1846.38 1543 M1846.38 1539.29 Q1852.19 1539.29 1855.24 1543.9 Q1858.32 1548.48 1858.32 1557.23 Q1858.32 1565.96 1855.24 1570.57 Q1852.19 1575.15 1846.38 1575.15 Q1840.57 1575.15 1837.49 1570.57 Q1834.43 1565.96 1834.43 1557.23 Q1834.43 1548.48 1837.49 1543.9 Q1840.57 1539.29 1846.38 1539.29 Z" fill="#000000" fill-rule="evenodd" fill-opacity="1" /><path clip-path="url(#clip520)" d="M 0 0 M2203.53 1543 Q2199.92 1543 2198.09 1546.56 Q2196.28 1550.11 2196.28 1557.23 Q2196.28 1564.34 2198.09 1567.91 Q2199.92 1571.45 2203.53 1571.45 Q2207.16 1571.45 2208.97 1567.91 Q2210.8 1564.34 2210.8 1557.23 Q2210.8 1550.11 2208.97 1546.56 Q2207.16 1543 2203.53 1543 M2203.53 1539.29 Q2209.34 1539.29 2212.39 1543.9 Q2215.47 1548.48 2215.47 1557.23 Q2215.47 1565.96 2212.39 1570.57 Q2209.34 1575.15 2203.53 1575.15 Q2197.72 1575.15 2194.64 1570.57 Q2191.58 1565.96 2191.58 1557.23 Q2191.58 1548.48 2194.64 1543.9 Q2197.72 1539.29 2203.53 1539.29 Z" fill="#000000" fill-rule="evenodd" fill-opacity="1" /><path clip-path="url(#clip520)" d="M 0 0 M2220.54 1568.6 L2225.43 1568.6 L2225.43 1574.48 L2220.54 1574.48 L2220.54 1568.6 Z" fill="#000000" fill-rule="evenodd" fill-opacity="1" /><path clip-path="url(#clip520)" d="M 0 0 M2234.52 1570.54 L2250.84 1570.54 L2250.84 1574.48 L2228.9 1574.48 L2228.9 1570.54 Q2231.56 1567.79 2236.14 1563.16 Q2240.75 1558.51 2241.93 1557.17 Q2244.18 1554.64 2245.06 1552.91 Q2245.96 1551.15 2245.96 1549.46 Q2245.96 1546.7 2244.01 1544.97 Q2242.09 1543.23 2238.99 1543.23 Q2236.79 1543.23 2234.34 1543.99 Q2231.91 1544.76 2229.13 1546.31 L2229.13 1541.59 Q2231.95 1540.45 2234.41 1539.87 Q2236.86 1539.29 2238.9 1539.29 Q2244.27 1539.29 2247.46 1541.98 Q2250.66 1544.67 2250.66 1549.16 Q2250.66 1551.29 2249.85 1553.21 Q2249.06 1555.1 2246.95 1557.7 Q2246.38 1558.37 2243.27 1561.59 Q2240.17 1564.78 2234.52 1570.54 Z" fill="#000000" fill-rule="evenodd" fill-opacity="1" /><path clip-path="url(#clip520)" d="M 0 0 M2255.96 1539.92 L2274.32 1539.92 L2274.32 1543.86 L2260.24 1543.86 L2260.24 1552.33 Q2261.26 1551.98 2262.28 1551.82 Q2263.3 1551.63 2264.32 1551.63 Q2270.1 1551.63 2273.48 1554.8 Q2276.86 1557.98 2276.86 1563.39 Q2276.86 1568.97 2273.39 1572.07 Q2269.92 1575.15 2263.6 1575.15 Q2261.42 1575.15 2259.15 1574.78 Q2256.91 1574.41 2254.5 1573.67 L2254.5 1568.97 Q2256.58 1570.1 2258.81 1570.66 Q2261.03 1571.22 2263.51 1571.22 Q2267.51 1571.22 2269.85 1569.11 Q2272.19 1567 2272.19 1563.39 Q2272.19 1559.78 2269.85 1557.67 Q2267.51 1555.57 2263.51 1555.57 Q2261.63 1555.57 2259.76 1555.98 Q2257.9 1556.4 2255.96 1557.28 L2255.96 1539.92 Z" fill="#000000" fill-rule="evenodd" fill-opacity="1" /><path clip-path="url(#clip520)" d="M 0 0 M51.0477 1465.1 Q47.4367 1465.1 45.608 1468.66 Q43.8024 1472.2 43.8024 1479.33 Q43.8024 1486.44 45.608 1490 Q47.4367 1493.55 51.0477 1493.55 Q54.682 1493.55 56.4875 1490 Q58.3162 1486.44 58.3162 1479.33 Q58.3162 1472.2 56.4875 1468.66 Q54.682 1465.1 51.0477 1465.1 M51.0477 1461.39 Q56.8579 1461.39 59.9134 1466 Q62.9921 1470.58 62.9921 1479.33 Q62.9921 1488.06 59.9134 1492.67 Q56.8579 1497.25 51.0477 1497.25 Q45.2376 1497.25 42.1589 1492.67 Q39.1034 1488.06 39.1034 1479.33 Q39.1034 1470.58 42.1589 1466 Q45.2376 1461.39 51.0477 1461.39 Z" fill="#000000" fill-rule="evenodd" fill-opacity="1" /><path clip-path="url(#clip520)" d="M 0 0 M46.6728 1190.54 L62.9921 1190.54 L62.9921 1194.47 L41.0478 1194.47 L41.0478 1190.54 Q43.7098 1187.78 48.2931 1183.15 Q52.8996 1178.5 54.0801 1177.16 Q56.3255 1174.64 57.2051 1172.9 Q58.1079 1171.14 58.1079 1169.45 Q58.1079 1166.7 56.1635 1164.96 Q54.2422 1163.22 51.1403 1163.22 Q48.9413 1163.22 46.4876 1163.99 Q44.057 1164.75 41.2793 1166.3 L41.2793 1161.58 Q44.1033 1160.45 46.557 1159.87 Q49.0107 1159.29 51.0477 1159.29 Q56.4181 1159.29 59.6125 1161.97 Q62.8069 1164.66 62.8069 1169.15 Q62.8069 1171.28 61.9968 1173.2 Q61.2097 1175.1 59.1033 1177.69 Q58.5246 1178.36 55.4227 1181.58 Q52.3209 1184.77 46.6728 1190.54 Z" fill="#000000" fill-rule="evenodd" fill-opacity="1" /><path clip-path="url(#clip520)" d="M 0 0 M53.4088 861.883 L41.6034 880.332 L53.4088 880.332 L53.4088 861.883 M52.182 857.809 L58.0616 857.809 L58.0616 880.332 L62.9921 880.332 L62.9921 884.221 L58.0616 884.221 L58.0616 892.369 L53.4088 892.369 L53.4088 884.221 L37.8071 884.221 L37.8071 879.707 L52.182 857.809 Z" fill="#000000" fill-rule="evenodd" fill-opacity="1" /><path clip-path="url(#clip520)" d="M 0 0 M51.4644 571.121 Q48.3163 571.121 46.4644 573.274 Q44.6357 575.426 44.6357 579.176 Q44.6357 582.903 46.4644 585.079 Q48.3163 587.232 51.4644 587.232 Q54.6125 587.232 56.4412 585.079 Q58.2931 582.903 58.2931 579.176 Q58.2931 575.426 56.4412 573.274 Q54.6125 571.121 51.4644 571.121 M60.7468 556.468 L60.7468 560.727 Q58.9875 559.894 57.182 559.454 Q55.3996 559.015 53.6403 559.015 Q49.0107 559.015 46.557 562.14 Q44.1265 565.264 43.7793 571.584 Q45.145 569.57 47.2052 568.505 Q49.2653 567.417 51.7422 567.417 Q56.9505 567.417 59.9597 570.589 Q62.9921 573.737 62.9921 579.176 Q62.9921 584.501 59.844 587.718 Q56.6959 590.936 51.4644 590.936 Q45.4691 590.936 42.2978 586.352 Q39.1265 581.746 39.1265 573.019 Q39.1265 564.825 43.0154 559.964 Q46.9042 555.079 53.4551 555.079 Q55.2144 555.079 56.9968 555.427 Q58.8023 555.774 60.7468 556.468 Z" fill="#000000" fill-rule="evenodd" fill-opacity="1" /><path clip-path="url(#clip520)" d="M 0 0 M51.1403 271.748 Q47.807 271.748 45.8857 273.53 Q43.9876 275.313 43.9876 278.438 Q43.9876 281.563 45.8857 283.345 Q47.807 285.128 51.1403 285.128 Q54.4737 285.128 56.3949 283.345 Q58.3162 281.54 58.3162 278.438 Q58.3162 275.313 56.3949 273.53 Q54.4968 271.748 51.1403 271.748 M46.4644 269.757 Q43.4552 269.017 41.7654 266.956 Q40.0987 264.896 40.0987 261.933 Q40.0987 257.79 43.0385 255.382 Q46.0015 252.975 51.1403 252.975 Q56.3023 252.975 59.2421 255.382 Q62.1819 257.79 62.1819 261.933 Q62.1819 264.896 60.4921 266.956 Q58.8255 269.017 55.8394 269.757 Q59.219 270.544 61.094 272.836 Q62.9921 275.128 62.9921 278.438 Q62.9921 283.461 59.9134 286.146 Q56.8579 288.831 51.1403 288.831 Q45.4228 288.831 42.3441 286.146 Q39.2885 283.461 39.2885 278.438 Q39.2885 275.128 41.1867 272.836 Q43.0848 270.544 46.4644 269.757 M44.7515 262.373 Q44.7515 265.058 46.4181 266.563 Q48.1079 268.067 51.1403 268.067 Q54.1496 268.067 55.8394 266.563 Q57.5523 265.058 57.5523 262.373 Q57.5523 259.688 55.8394 258.183 Q54.1496 256.679 51.1403 256.679 Q48.1079 256.679 46.4181 258.183 Q44.7515 259.688 44.7515 262.373 Z" fill="#000000" fill-rule="evenodd" fill-opacity="1" /><path clip-path="url(#clip522)" d="
M151.118 1351.14 L153.315 1346.13 L155.512 1341.06 L157.709 1335.94 L159.906 1330.76 L162.103 1325.55 L164.3 1320.31 L166.497 1315.04 L168.694 1309.76 L170.891 1304.46 
  L173.088 1299.17 L175.285 1293.89 L177.482 1288.63 L179.679 1283.39 L181.876 1278.19 L184.073 1273.04 L186.27 1267.94 L188.467 1262.9 L190.664 1257.93 L192.862 1253.04 
  L195.059 1248.24 L197.256 1243.53 L199.453 1238.92 L201.65 1234.43 L203.847 1230.05 L206.044 1225.8 L208.241 1221.67 L210.438 1217.69 L212.635 1213.84 L214.832 1210.15 
  L217.029 1206.6 L219.226 1203.21 L221.423 1199.98 L223.62 1196.91 L225.817 1194.01 L228.014 1191.28 L230.211 1188.71 L232.408 1186.31 L234.606 1184.08 L236.803 1182.03 
  L239 1180.14 L241.197 1178.42 L243.394 1176.87 L245.591 1175.48 L247.788 1174.25 L249.985 1173.19 L252.182 1172.28 L254.379 1171.52 L256.576 1170.92 L258.773 1170.46 
  L260.97 1170.14 L263.167 1169.95 L265.364 1169.9 L267.561 1169.97 L269.758 1170.17 L271.955 1170.47 L274.152 1170.89 L276.35 1171.42 L278.547 1172.04 L280.744 1172.76 
  L282.941 1173.57 L285.138 1174.46 L287.335 1175.42 L289.532 1176.46 L291.729 1177.57 L293.926 1178.74 L296.123 1179.97 L298.32 1181.25 L300.517 1182.58 L302.714 1183.95 
  L304.911 1185.37 L307.108 1186.81 L309.305 1188.29 L311.502 1189.8 L313.699 1191.33 L315.896 1192.88 L318.094 1194.45 L320.291 1196.03 L322.488 1197.62 L324.685 1199.21 
  L326.882 1200.81 L329.079 1202.41 L331.276 1204.01 L333.473 1205.61 L335.67 1207.19 L337.867 1208.77 L340.064 1210.33 L342.261 1211.87 L344.458 1213.4 L346.655 1214.91 
  L348.852 1216.39 L351.049 1217.84 L353.246 1219.27 L355.443 1220.67 L357.641 1222.03 L359.838 1223.35 L362.035 1224.64 L364.232 1225.89 L366.429 1227.09 L368.626 1228.25 
  L368.626 1479.3 L366.429 1479.3 L364.232 1479.3 L362.035 1479.3 L359.838 1479.3 L357.641 1479.3 L355.443 1479.3 L353.246 1479.3 L351.049 1479.3 L348.852 1479.3 
  L346.655 1479.3 L344.458 1479.3 L342.261 1479.3 L340.064 1479.3 L337.867 1479.3 L335.67 1479.3 L333.473 1479.3 L331.276 1479.3 L329.079 1479.3 L326.882 1479.3 
  L324.685 1479.3 L322.488 1479.3 L320.291 1479.3 L318.094 1479.3 L315.896 1479.3 L313.699 1479.3 L311.502 1479.3 L309.305 1479.3 L307.108 1479.3 L304.911 1479.3 
  L302.714 1479.3 L300.517 1479.3 L298.32 1479.3 L296.123 1479.3 L293.926 1479.3 L291.729 1479.3 L289.532 1479.3 L287.335 1479.3 L285.138 1479.3 L282.941 1479.3 
  L280.744 1479.3 L278.547 1479.3 L276.35 1479.3 L274.152 1479.3 L271.955 1479.3 L269.758 1479.3 L267.561 1479.3 L265.364 1479.3 L263.167 1479.3 L260.97 1479.3 
  L258.773 1479.3 L256.576 1479.3 L254.379 1479.3 L252.182 1479.3 L249.985 1479.3 L247.788 1479.3 L245.591 1479.3 L243.394 1479.3 L241.197 1479.3 L239 1479.3 
  L236.803 1479.3 L234.606 1479.3 L232.408 1479.3 L230.211 1479.3 L228.014 1479.3 L225.817 1479.3 L223.62 1479.3 L221.423 1479.3 L219.226 1479.3 L217.029 1479.3 
  L214.832 1479.3 L212.635 1479.3 L210.438 1479.3 L208.241 1479.3 L206.044 1479.3 L203.847 1479.3 L201.65 1479.3 L199.453 1479.3 L197.256 1479.3 L195.059 1479.3 
  L192.862 1479.3 L190.664 1479.3 L188.467 1479.3 L186.27 1479.3 L184.073 1479.3 L181.876 1479.3 L179.679 1479.3 L177.482 1479.3 L175.285 1479.3 L173.088 1479.3 
  L170.891 1479.3 L168.694 1479.3 L166.497 1479.3 L164.3 1479.3 L162.103 1479.3 L159.906 1479.3 L157.709 1479.3 L155.512 1479.3 L153.315 1479.3 L151.118 1479.3 
   Z
  " fill="#ffa500" fill-rule="evenodd" fill-opacity="0.5"/>
<polyline clip-path="url(#clip522)" style="stroke:#ffa500; stroke-width:4; stroke-opacity:1; fill:none" points="
  151.118,1351.14 153.315,1346.13 155.512,1341.06 157.709,1335.94 159.906,1330.76 162.103,1325.55 164.3,1320.31 166.497,1315.04 168.694,1309.76 170.891,1304.46 
  173.088,1299.17 175.285,1293.89 177.482,1288.63 179.679,1283.39 181.876,1278.19 184.073,1273.04 186.27,1267.94 188.467,1262.9 190.664,1257.93 192.862,1253.04 
  195.059,1248.24 197.256,1243.53 199.453,1238.92 201.65,1234.43 203.847,1230.05 206.044,1225.8 208.241,1221.67 210.438,1217.69 212.635,1213.84 214.832,1210.15 
  217.029,1206.6 219.226,1203.21 221.423,1199.98 223.62,1196.91 225.817,1194.01 228.014,1191.28 230.211,1188.71 232.408,1186.31 234.606,1184.08 236.803,1182.03 
  239,1180.14 241.197,1178.42 243.394,1176.87 245.591,1175.48 247.788,1174.25 249.985,1173.19 252.182,1172.28 254.379,1171.52 256.576,1170.92 258.773,1170.46 
  260.97,1170.14 263.167,1169.95 265.364,1169.9 267.561,1169.97 269.758,1170.17 271.955,1170.47 274.152,1170.89 276.35,1171.42 278.547,1172.04 280.744,1172.76 
  282.941,1173.57 285.138,1174.46 287.335,1175.42 289.532,1176.46 291.729,1177.57 293.926,1178.74 296.123,1179.97 298.32,1181.25 300.517,1182.58 302.714,1183.95 
  304.911,1185.37 307.108,1186.81 309.305,1188.29 311.502,1189.8 313.699,1191.33 315.896,1192.88 318.094,1194.45 320.291,1196.03 322.488,1197.62 324.685,1199.21 
  326.882,1200.81 329.079,1202.41 331.276,1204.01 333.473,1205.61 335.67,1207.19 337.867,1208.77 340.064,1210.33 342.261,1211.87 344.458,1213.4 346.655,1214.91 
  348.852,1216.39 351.049,1217.84 353.246,1219.27 355.443,1220.67 357.641,1222.03 359.838,1223.35 362.035,1224.64 364.232,1225.89 366.429,1227.09 368.626,1228.25 
  
  "/>
<path clip-path="url(#clip522)" d="
M368.626 1228.25 L382.451 1234.36 L396.276 1238.19 L410.101 1239.53 L423.926 1238.51 L437.751 1235.56 L451.576 1231.38 L465.402 1226.7 L479.227 1222.12 L493.052 1217.83 
  L506.877 1213.52 L520.702 1208.34 L534.527 1201.09 L548.352 1190.52 L562.177 1175.7 L576.002 1156.4 L589.828 1133.19 L603.653 1107.43 L617.478 1080.91 L631.303 1055.48 
  L645.128 1032.55 L658.953 1012.84 L672.778 996.27 L686.603 982.085 L700.428 969.163 L714.254 956.382 L728.079 942.949 L741.904 928.591 L755.729 913.563 L769.554 898.477 
  L783.379 884 L797.204 870.527 L811.029 857.908 L824.854 845.315 L838.68 831.302 L852.505 814.067 L866.33 791.86 L880.155 763.442 L893.98 728.485 L907.805 687.774 
  L921.63 643.145 L935.455 597.146 L949.28 552.513 L963.106 511.602 L976.931 475.957 L990.756 446.134 L1004.58 421.816 L1018.41 402.161 L1032.23 386.217 L1046.06 373.218 
  L1059.88 362.647 L1073.71 354.028 L1087.53 346.609 L1101.36 339.111 L1115.18 329.772 L1129.01 316.718 L1142.83 298.572 L1156.66 275.033 L1170.48 247.173 L1184.31 217.297 
  L1198.13 188.365 L1211.96 163.186 L1225.78 143.632 L1239.61 130.151 L1253.43 121.726 L1267.26 116.321 L1281.08 111.669 L1294.91 106.158 L1308.73 99.498 L1322.56 92.9409 
  L1336.38 88.9544 L1350.21 90.4558 L1364.03 99.8836 L1377.86 118.427 L1391.68 145.661 L1405.51 179.657 L1419.33 217.473 L1433.16 255.816 L1446.98 291.691 L1460.81 322.907 
  L1474.63 348.405 L1488.46 368.397 L1502.28 384.321 L1516.11 398.594 L1529.94 414.175 L1543.76 434.015 L1557.59 460.48 L1571.41 494.902 L1585.24 537.32 L1599.06 586.499 
  L1612.89 640.18 L1626.71 695.55 L1640.54 749.798 L1654.36 800.68 L1668.19 846.932 L1682.01 888.45 L1695.84 926.182 L1709.66 961.746 L1723.49 996.895 L1737.31 1032.99 
  L1737.31 1479.3 L1723.49 1479.3 L1709.66 1479.3 L1695.84 1479.3 L1682.01 1479.3 L1668.19 1479.3 L1654.36 1479.3 L1640.54 1479.3 L1626.71 1479.3 L1612.89 1479.3 
  L1599.06 1479.3 L1585.24 1479.3 L1571.41 1479.3 L1557.59 1479.3 L1543.76 1479.3 L1529.94 1479.3 L1516.11 1479.3 L1502.28 1479.3 L1488.46 1479.3 L1474.63 1479.3 
  L1460.81 1479.3 L1446.98 1479.3 L1433.16 1479.3 L1419.33 1479.3 L1405.51 1479.3 L1391.68 1479.3 L1377.86 1479.3 L1364.03 1479.3 L1350.21 1479.3 L1336.38 1479.3 
  L1322.56 1479.3 L1308.73 1479.3 L1294.91 1479.3 L1281.08 1479.3 L1267.26 1479.3 L1253.43 1479.3 L1239.61 1479.3 L1225.78 1479.3 L1211.96 1479.3 L1198.13 1479.3 
  L1184.31 1479.3 L1170.48 1479.3 L1156.66 1479.3 L1142.83 1479.3 L1129.01 1479.3 L1115.18 1479.3 L1101.36 1479.3 L1087.53 1479.3 L1073.71 1479.3 L1059.88 1479.3 
  L1046.06 1479.3 L1032.23 1479.3 L1018.41 1479.3 L1004.58 1479.3 L990.756 1479.3 L976.931 1479.3 L963.106 1479.3 L949.28 1479.3 L935.455 1479.3 L921.63 1479.3 
  L907.805 1479.3 L893.98 1479.3 L880.155 1479.3 L866.33 1479.3 L852.505 1479.3 L838.68 1479.3 L824.854 1479.3 L811.029 1479.3 L797.204 1479.3 L783.379 1479.3 
  L769.554 1479.3 L755.729 1479.3 L741.904 1479.3 L728.079 1479.3 L714.254 1479.3 L700.428 1479.3 L686.603 1479.3 L672.778 1479.3 L658.953 1479.3 L645.128 1479.3 
  L631.303 1479.3 L617.478 1479.3 L603.653 1479.3 L589.828 1479.3 L576.002 1479.3 L562.177 1479.3 L548.352 1479.3 L534.527 1479.3 L520.702 1479.3 L506.877 1479.3 
  L493.052 1479.3 L479.227 1479.3 L465.402 1479.3 L451.576 1479.3 L437.751 1479.3 L423.926 1479.3 L410.101 1479.3 L396.276 1479.3 L382.451 1479.3 L368.626 1479.3 
   Z
  " fill="#008000" fill-rule="evenodd" fill-opacity="0.5"/>
<polyline clip-path="url(#clip522)" style="stroke:#008000; stroke-width:4; stroke-opacity:1; fill:none" points="
  368.626,1228.25 382.451,1234.36 396.276,1238.19 410.101,1239.53 423.926,1238.51 437.751,1235.56 451.576,1231.38 465.402,1226.7 479.227,1222.12 493.052,1217.83 
  506.877,1213.52 520.702,1208.34 534.527,1201.09 548.352,1190.52 562.177,1175.7 576.002,1156.4 589.828,1133.19 603.653,1107.43 617.478,1080.91 631.303,1055.48 
  645.128,1032.55 658.953,1012.84 672.778,996.27 686.603,982.085 700.428,969.163 714.254,956.382 728.079,942.949 741.904,928.591 755.729,913.563 769.554,898.477 
  783.379,884 797.204,870.527 811.029,857.908 824.854,845.315 838.68,831.302 852.505,814.067 866.33,791.86 880.155,763.442 893.98,728.485 907.805,687.774 
  921.63,643.145 935.455,597.146 949.28,552.513 963.106,511.602 976.931,475.957 990.756,446.134 1004.58,421.816 1018.41,402.161 1032.23,386.217 1046.06,373.218 
  1059.88,362.647 1073.71,354.028 1087.53,346.609 1101.36,339.111 1115.18,329.772 1129.01,316.718 1142.83,298.572 1156.66,275.033 1170.48,247.173 1184.31,217.297 
  1198.13,188.365 1211.96,163.186 1225.78,143.632 1239.61,130.151 1253.43,121.726 1267.26,116.321 1281.08,111.669 1294.91,106.158 1308.73,99.498 1322.56,92.9409 
  1336.38,88.9544 1350.21,90.4558 1364.03,99.8836 1377.86,118.427 1391.68,145.661 1405.51,179.657 1419.33,217.473 1433.16,255.816 1446.98,291.691 1460.81,322.907 
  1474.63,348.405 1488.46,368.397 1502.28,384.321 1516.11,398.594 1529.94,414.175 1543.76,434.015 1557.59,460.48 1571.41,494.902 1585.24,537.32 1599.06,586.499 
  1612.89,640.18 1626.71,695.55 1640.54,749.798 1654.36,800.68 1668.19,846.932 1682.01,888.45 1695.84,926.182 1709.66,961.746 1723.49,996.895 1737.31,1032.99 
  
  "/>
<path clip-path="url(#clip522)" d="
M1737.31 1032.99 L1742.88 1047.95 L1748.45 1063.17 L1754.02 1078.62 L1759.59 1094.24 L1765.16 1109.97 L1770.72 1125.72 L1776.29 1141.4 L1781.86 1156.91 L1787.43 1172.14 
  L1793 1186.99 L1798.57 1201.36 L1804.14 1215.16 L1809.71 1228.3 L1815.28 1240.72 L1820.84 1252.36 L1826.41 1263.18 L1831.98 1273.14 L1837.55 1282.23 L1843.12 1290.44 
  L1848.69 1297.78 L1854.26 1304.27 L1859.83 1309.94 L1865.4 1314.82 L1870.96 1318.97 L1876.53 1322.45 L1882.1 1325.33 L1887.67 1327.68 L1893.24 1329.58 L1898.81 1331.12 
  L1904.38 1332.4 L1909.95 1333.5 L1915.52 1334.52 L1921.08 1335.53 L1926.65 1336.64 L1932.22 1337.91 L1937.79 1339.41 L1943.36 1341.19 L1948.93 1343.3 L1954.5 1345.77 
  L1960.07 1348.62 L1965.64 1351.83 L1971.2 1355.41 L1976.77 1359.33 L1982.34 1363.54 L1987.91 1368.01 L1993.48 1372.68 L1999.05 1377.49 L2004.62 1382.36 L2010.19 1387.24 
  L2015.76 1392.05 L2021.32 1396.74 L2026.89 1401.24 L2032.46 1405.5 L2038.03 1409.47 L2043.6 1413.13 L2049.17 1416.44 L2054.74 1419.39 L2060.31 1421.97 L2065.88 1424.2 
  L2071.44 1426.09 L2077.01 1427.65 L2082.58 1428.93 L2088.15 1429.96 L2093.72 1430.77 L2099.29 1431.42 L2104.86 1431.94 L2110.43 1432.37 L2116 1432.77 L2121.56 1433.16 
  L2127.13 1433.58 L2132.7 1434.06 L2138.27 1434.62 L2143.84 1435.28 L2149.41 1436.05 L2154.98 1436.95 L2160.55 1437.96 L2166.12 1439.09 L2171.68 1440.31 L2177.25 1441.63 
  L2182.82 1443.01 L2188.39 1444.44 L2193.96 1445.88 L2199.53 1447.33 L2205.1 1448.74 L2210.67 1450.11 L2216.24 1451.41 L2221.8 1452.63 L2227.37 1453.76 L2232.94 1454.8 
  L2238.51 1455.74 L2244.08 1456.6 L2249.65 1457.38 L2255.22 1458.11 L2260.79 1458.79 L2266.36 1459.44 L2271.92 1460.09 L2277.49 1460.75 L2283.06 1461.43 L2288.63 1462.15 
  L2288.63 1479.3 L2283.06 1479.3 L2277.49 1479.3 L2271.92 1479.3 L2266.36 1479.3 L2260.79 1479.3 L2255.22 1479.3 L2249.65 1479.3 L2244.08 1479.3 L2238.51 1479.3 
  L2232.94 1479.3 L2227.37 1479.3 L2221.8 1479.3 L2216.24 1479.3 L2210.67 1479.3 L2205.1 1479.3 L2199.53 1479.3 L2193.96 1479.3 L2188.39 1479.3 L2182.82 1479.3 
  L2177.25 1479.3 L2171.68 1479.3 L2166.12 1479.3 L2160.55 1479.3 L2154.98 1479.3 L2149.41 1479.3 L2143.84 1479.3 L2138.27 1479.3 L2132.7 1479.3 L2127.13 1479.3 
  L2121.56 1479.3 L2116 1479.3 L2110.43 1479.3 L2104.86 1479.3 L2099.29 1479.3 L2093.72 1479.3 L2088.15 1479.3 L2082.58 1479.3 L2077.01 1479.3 L2071.44 1479.3 
  L2065.88 1479.3 L2060.31 1479.3 L2054.74 1479.3 L2049.17 1479.3 L2043.6 1479.3 L2038.03 1479.3 L2032.46 1479.3 L2026.89 1479.3 L2021.32 1479.3 L2015.76 1479.3 
  L2010.19 1479.3 L2004.62 1479.3 L1999.05 1479.3 L1993.48 1479.3 L1987.91 1479.3 L1982.34 1479.3 L1976.77 1479.3 L1971.2 1479.3 L1965.64 1479.3 L1960.07 1479.3 
  L1954.5 1479.3 L1948.93 1479.3 L1943.36 1479.3 L1937.79 1479.3 L1932.22 1479.3 L1926.65 1479.3 L1921.08 1479.3 L1915.52 1479.3 L1909.95 1479.3 L1904.38 1479.3 
  L1898.81 1479.3 L1893.24 1479.3 L1887.67 1479.3 L1882.1 1479.3 L1876.53 1479.3 L1870.96 1479.3 L1865.4 1479.3 L1859.83 1479.3 L1854.26 1479.3 L1848.69 1479.3 
  L1843.12 1479.3 L1837.55 1479.3 L1831.98 1479.3 L1826.41 1479.3 L1820.84 1479.3 L1815.28 1479.3 L1809.71 1479.3 L1804.14 1479.3 L1798.57 1479.3 L1793 1479.3 
  L1787.43 1479.3 L1781.86 1479.3 L1776.29 1479.3 L1770.72 1479.3 L1765.16 1479.3 L1759.59 1479.3 L1754.02 1479.3 L1748.45 1479.3 L1742.88 1479.3 L1737.31 1479.3 
   Z
  " fill="#ffa500" fill-rule="evenodd" fill-opacity="0.5"/>
<polyline clip-path="url(#clip522)" style="stroke:#ffa500; stroke-width:4; stroke-opacity:1; fill:none" points="
  1737.31,1032.99 1742.88,1047.95 1748.45,1063.17 1754.02,1078.62 1759.59,1094.24 1765.16,1109.97 1770.72,1125.72 1776.29,1141.4 1781.86,1156.91 1787.43,1172.14 
  1793,1186.99 1798.57,1201.36 1804.14,1215.16 1809.71,1228.3 1815.28,1240.72 1820.84,1252.36 1826.41,1263.18 1831.98,1273.14 1837.55,1282.23 1843.12,1290.44 
  1848.69,1297.78 1854.26,1304.27 1859.83,1309.94 1865.4,1314.82 1870.96,1318.97 1876.53,1322.45 1882.1,1325.33 1887.67,1327.68 1893.24,1329.58 1898.81,1331.12 
  1904.38,1332.4 1909.95,1333.5 1915.52,1334.52 1921.08,1335.53 1926.65,1336.64 1932.22,1337.91 1937.79,1339.41 1943.36,1341.19 1948.93,1343.3 1954.5,1345.77 
  1960.07,1348.62 1965.64,1351.83 1971.2,1355.41 1976.77,1359.33 1982.34,1363.54 1987.91,1368.01 1993.48,1372.68 1999.05,1377.49 2004.62,1382.36 2010.19,1387.24 
  2015.76,1392.05 2021.32,1396.74 2026.89,1401.24 2032.46,1405.5 2038.03,1409.47 2043.6,1413.13 2049.17,1416.44 2054.74,1419.39 2060.31,1421.97 2065.88,1424.2 
  2071.44,1426.09 2077.01,1427.65 2082.58,1428.93 2088.15,1429.96 2093.72,1430.77 2099.29,1431.42 2104.86,1431.94 2110.43,1432.37 2116,1432.77 2121.56,1433.16 
  2127.13,1433.58 2132.7,1434.06 2138.27,1434.62 2143.84,1435.28 2149.41,1436.05 2154.98,1436.95 2160.55,1437.96 2166.12,1439.09 2171.68,1440.31 2177.25,1441.63 
  2182.82,1443.01 2188.39,1444.44 2193.96,1445.88 2199.53,1447.33 2205.1,1448.74 2210.67,1450.11 2216.24,1451.41 2221.8,1452.63 2227.37,1453.76 2232.94,1454.8 
  2238.51,1455.74 2244.08,1456.6 2249.65,1457.38 2255.22,1458.11 2260.79,1458.79 2266.36,1459.44 2271.92,1460.09 2277.49,1460.75 2283.06,1461.43 2288.63,1462.15 
  
  "/>
<polyline clip-path="url(#clip522)" style="stroke:#0000ff; stroke-width:4; stroke-opacity:1; fill:none" points="
  1168.15,1479.3 1168.15,252.09 
  "/>
<polyline clip-path="url(#clip522)" style="stroke:#000000; stroke-width:4; stroke-opacity:1; fill:none" points="
  1213.99,1479.3 1213.99,159.924 
  "/>
<path clip-path="url(#clip520)" d="
M1494.58 459.25 L2277.23 459.25 L2277.23 96.3696 L1494.58 96.3696  Z
  " fill="#ffffff" fill-rule="evenodd" fill-opacity="1"/>
<polyline clip-path="url(#clip520)" style="stroke:#000000; stroke-width:4; stroke-opacity:1; fill:none" points="
  1494.58,459.25 2277.23,459.25 2277.23,96.3696 1494.58,96.3696 1494.58,459.25 
  "/>
<path clip-path="url(#clip520)" d="
M1519.75 181.042 L1670.81 181.042 L1670.81 132.658 L1519.75 132.658 L1519.75 181.042  Z
  " fill="#ffa500" fill-rule="evenodd" fill-opacity="0.5"/>
<polyline clip-path="url(#clip520)" style="stroke:#ffa500; stroke-width:4; stroke-opacity:1; fill:none" points="
  1519.75,132.658 1670.81,132.658 
  "/>
<path clip-path="url(#clip520)" d="M 0 0 M1700.38 161.19 Q1700.38 165.889 1702.3 168.574 Q1704.24 171.236 1707.62 171.236 Q1711 171.236 1712.95 168.574 Q1714.89 165.889 1714.89 161.19 Q1714.89 156.491 1712.95 153.829 Q1711 151.144 1707.62 151.144 Q1704.24 151.144 1702.3 153.829 Q1700.38 156.491 1700.38 161.19 M1714.89 170.241 Q1713.55 172.555 1711.49 173.69 Q1709.45 174.801 1706.58 174.801 Q1701.88 174.801 1698.92 171.051 Q1695.98 167.301 1695.98 161.19 Q1695.98 155.079 1698.92 151.329 Q1701.88 147.579 1706.58 147.579 Q1709.45 147.579 1711.49 148.713 Q1713.55 149.824 1714.89 152.139 L1714.89 148.204 L1719.15 148.204 L1719.15 183.991 L1714.89 183.991 L1714.89 170.241 Z" fill="#000000" fill-rule="evenodd" fill-opacity="1" /><path clip-path="url(#clip520)" d="M 0 0 M1734.22 142.648 Q1730.61 142.648 1728.78 146.213 Q1726.98 149.755 1726.98 156.884 Q1726.98 163.991 1728.78 167.556 Q1730.61 171.097 1734.22 171.097 Q1737.85 171.097 1739.66 167.556 Q1741.49 163.991 1741.49 156.884 Q1741.49 149.755 1739.66 146.213 Q1737.85 142.648 1734.22 142.648 M1734.22 138.945 Q1740.03 138.945 1743.09 143.551 Q1746.17 148.134 1746.17 156.884 Q1746.17 165.611 1743.09 170.218 Q1740.03 174.801 1734.22 174.801 Q1728.41 174.801 1725.33 170.218 Q1722.28 165.611 1722.28 156.884 Q1722.28 148.134 1725.33 143.551 Q1728.41 138.945 1734.22 138.945 Z" fill="#000000" fill-rule="evenodd" fill-opacity="1" /><path clip-path="url(#clip520)" d="M 0 0 M1751.28 139.57 L1769.64 139.57 L1769.64 143.505 L1755.56 143.505 L1755.56 151.977 Q1756.58 151.63 1757.6 151.468 Q1758.62 151.282 1759.64 151.282 Q1765.42 151.282 1768.8 154.454 Q1772.18 157.625 1772.18 163.042 Q1772.18 168.62 1768.71 171.722 Q1765.24 174.801 1758.92 174.801 Q1756.74 174.801 1754.48 174.43 Q1752.23 174.06 1749.82 173.319 L1749.82 168.62 Q1751.91 169.755 1754.13 170.31 Q1756.35 170.866 1758.83 170.866 Q1762.83 170.866 1765.17 168.759 Q1767.51 166.653 1767.51 163.042 Q1767.51 159.431 1765.17 157.324 Q1762.83 155.218 1758.83 155.218 Q1756.95 155.218 1755.08 155.634 Q1753.23 156.051 1751.28 156.931 L1751.28 139.57 Z" fill="#000000" fill-rule="evenodd" fill-opacity="1" /><path clip-path="url(#clip520)" d="
M1519.75 241.522 L1670.81 241.522 L1670.81 193.138 L1519.75 193.138 L1519.75 241.522  Z
  " fill="#008000" fill-rule="evenodd" fill-opacity="0.5"/>
<polyline clip-path="url(#clip520)" style="stroke:#008000; stroke-width:4; stroke-opacity:1; fill:none" points="
  1519.75,193.138 1670.81,193.138 
  "/>
<path clip-path="url(#clip520)" d="M 0 0 M1698.2 233.892 L1698.2 229.633 Q1699.96 230.466 1701.77 230.906 Q1703.57 231.346 1705.31 231.346 Q1709.94 231.346 1712.37 228.244 Q1714.82 225.119 1715.17 218.776 Q1713.83 220.767 1711.77 221.832 Q1709.71 222.897 1707.21 222.897 Q1702.02 222.897 1698.99 219.772 Q1695.98 216.624 1695.98 211.184 Q1695.98 205.86 1699.13 202.642 Q1702.28 199.425 1707.51 199.425 Q1713.5 199.425 1716.65 204.031 Q1719.82 208.614 1719.82 217.364 Q1719.82 225.536 1715.93 230.42 Q1712.07 235.281 1705.52 235.281 Q1703.76 235.281 1701.95 234.934 Q1700.15 234.586 1698.2 233.892 M1707.51 219.239 Q1710.66 219.239 1712.48 217.086 Q1714.34 214.934 1714.34 211.184 Q1714.34 207.457 1712.48 205.304 Q1710.66 203.128 1707.51 203.128 Q1704.36 203.128 1702.51 205.304 Q1700.68 207.457 1700.68 211.184 Q1700.68 214.934 1702.51 217.086 Q1704.36 219.239 1707.51 219.239 Z" fill="#000000" fill-rule="evenodd" fill-opacity="1" /><path clip-path="url(#clip520)" d="M 0 0 M1734.89 203.128 Q1731.28 203.128 1729.45 206.693 Q1727.65 210.235 1727.65 217.364 Q1727.65 224.471 1729.45 228.036 Q1731.28 231.577 1734.89 231.577 Q1738.53 231.577 1740.33 228.036 Q1742.16 224.471 1742.16 217.364 Q1742.16 210.235 1740.33 206.693 Q1738.53 203.128 1734.89 203.128 M1734.89 199.425 Q1740.7 199.425 1743.76 204.031 Q1746.84 208.614 1746.84 217.364 Q1746.84 226.091 1743.76 230.698 Q1740.7 235.281 1734.89 235.281 Q1729.08 235.281 1726 230.698 Q1722.95 226.091 1722.95 217.364 Q1722.95 208.614 1726 204.031 Q1729.08 199.425 1734.89 199.425 Z" fill="#000000" fill-rule="evenodd" fill-opacity="1" /><path clip-path="url(#clip520)" d="M 0 0 M1781.3 219.401 Q1779.29 219.401 1778.13 221.114 Q1777 222.827 1777 225.883 Q1777 228.892 1778.13 230.628 Q1779.29 232.341 1781.3 232.341 Q1783.27 232.341 1784.41 230.628 Q1785.56 228.892 1785.56 225.883 Q1785.56 222.85 1784.41 221.137 Q1783.27 219.401 1781.3 219.401 M1781.3 216.462 Q1784.96 216.462 1787.11 219.008 Q1789.27 221.554 1789.27 225.883 Q1789.27 230.211 1787.09 232.758 Q1784.94 235.281 1781.3 235.281 Q1777.6 235.281 1775.45 232.758 Q1773.29 230.211 1773.29 225.883 Q1773.29 221.531 1775.45 219.008 Q1777.62 216.462 1781.3 216.462 M1757.42 202.364 Q1755.42 202.364 1754.27 204.1 Q1753.13 205.813 1753.13 208.823 Q1753.13 211.878 1754.27 213.591 Q1755.4 215.304 1757.42 215.304 Q1759.43 215.304 1760.56 213.591 Q1761.72 211.878 1761.72 208.823 Q1761.72 205.837 1760.56 204.1 Q1759.41 202.364 1757.42 202.364 M1778.32 199.425 L1782.02 199.425 L1760.4 235.281 L1756.7 235.281 L1778.32 199.425 M1757.42 199.425 Q1761.07 199.425 1763.25 201.971 Q1765.42 204.494 1765.42 208.823 Q1765.42 213.198 1763.25 215.721 Q1761.1 218.244 1757.42 218.244 Q1753.73 218.244 1751.58 215.721 Q1749.45 213.174 1749.45 208.823 Q1749.45 204.517 1751.6 201.971 Q1753.76 199.425 1757.42 199.425 Z" fill="#000000" fill-rule="evenodd" fill-opacity="1" /><path clip-path="url(#clip520)" d="M 0 0 M1830.35 218.961 L1830.35 234.61 L1826.1 234.61 L1826.1 219.1 Q1826.1 215.42 1824.66 213.591 Q1823.22 211.762 1820.35 211.762 Q1816.91 211.762 1814.91 213.962 Q1812.92 216.161 1812.92 219.957 L1812.92 234.61 L1808.64 234.61 L1808.64 208.684 L1812.92 208.684 L1812.92 212.712 Q1814.45 210.374 1816.51 209.216 Q1818.6 208.059 1821.3 208.059 Q1825.77 208.059 1828.06 210.837 Q1830.35 213.591 1830.35 218.961 Z" fill="#000000" fill-rule="evenodd" fill-opacity="1" /><path clip-path="url(#clip520)" d="M 0 0 M1844.87 211.67 Q1841.44 211.67 1839.45 214.355 Q1837.46 217.017 1837.46 221.67 Q1837.46 226.323 1839.43 229.008 Q1841.42 231.67 1844.87 231.67 Q1848.27 231.67 1850.26 228.985 Q1852.25 226.299 1852.25 221.67 Q1852.25 217.063 1850.26 214.378 Q1848.27 211.67 1844.87 211.67 M1844.87 208.059 Q1850.42 208.059 1853.6 211.67 Q1856.77 215.281 1856.77 221.67 Q1856.77 228.036 1853.6 231.67 Q1850.42 235.281 1844.87 235.281 Q1839.29 235.281 1836.12 231.67 Q1832.97 228.036 1832.97 221.67 Q1832.97 215.281 1836.12 211.67 Q1839.29 208.059 1844.87 208.059 Z" fill="#000000" fill-rule="evenodd" fill-opacity="1" /><path clip-path="url(#clip520)" d="M 0 0 M1882.78 218.961 L1882.78 234.61 L1878.53 234.61 L1878.53 219.1 Q1878.53 215.42 1877.09 213.591 Q1875.66 211.762 1872.78 211.762 Q1869.34 211.762 1867.35 213.962 Q1865.35 216.161 1865.35 219.957 L1865.35 234.61 L1861.07 234.61 L1861.07 208.684 L1865.35 208.684 L1865.35 212.712 Q1866.88 210.374 1868.94 209.216 Q1871.03 208.059 1873.73 208.059 Q1878.2 208.059 1880.49 210.837 Q1882.78 213.591 1882.78 218.961 Z" fill="#000000" fill-rule="evenodd" fill-opacity="1" /><path clip-path="url(#clip520)" d="M 0 0 M1885.1 219.725 L1897.58 219.725 L1897.58 223.522 L1885.1 223.522 L1885.1 219.725 Z" fill="#000000" fill-rule="evenodd" fill-opacity="1" /><path clip-path="url(#clip520)" d="M 0 0 M1917.07 212.665 Q1916.35 212.249 1915.49 212.063 Q1914.66 211.855 1913.64 211.855 Q1910.03 211.855 1908.09 214.216 Q1906.16 216.554 1906.16 220.952 L1906.16 234.61 L1901.88 234.61 L1901.88 208.684 L1906.16 208.684 L1906.16 212.712 Q1907.51 210.35 1909.66 209.216 Q1911.81 208.059 1914.89 208.059 Q1915.33 208.059 1915.86 208.128 Q1916.4 208.175 1917.04 208.29 L1917.07 212.665 Z" fill="#000000" fill-rule="evenodd" fill-opacity="1" /><path clip-path="url(#clip520)" d="M 0 0 M1942.67 220.582 L1942.67 222.665 L1923.09 222.665 Q1923.36 227.063 1925.72 229.378 Q1928.11 231.67 1932.34 231.67 Q1934.8 231.67 1937.09 231.068 Q1939.4 230.466 1941.67 229.262 L1941.67 233.29 Q1939.38 234.262 1936.97 234.772 Q1934.57 235.281 1932.09 235.281 Q1925.89 235.281 1922.25 231.67 Q1918.64 228.059 1918.64 221.901 Q1918.64 215.536 1922.07 211.809 Q1925.52 208.059 1931.35 208.059 Q1936.58 208.059 1939.61 211.438 Q1942.67 214.795 1942.67 220.582 M1938.41 219.332 Q1938.36 215.837 1936.44 213.753 Q1934.54 211.67 1931.4 211.67 Q1927.83 211.67 1925.68 213.684 Q1923.55 215.698 1923.22 219.355 L1938.41 219.332 Z" fill="#000000" fill-rule="evenodd" fill-opacity="1" /><path clip-path="url(#clip520)" d="M 0 0 M1947.14 208.684 L1951.4 208.684 L1951.4 235.073 Q1951.4 240.026 1949.5 242.248 Q1947.62 244.471 1943.43 244.471 L1941.81 244.471 L1941.81 240.86 L1942.95 240.86 Q1945.38 240.86 1946.26 239.725 Q1947.14 238.614 1947.14 235.073 L1947.14 208.684 M1947.14 198.591 L1951.4 198.591 L1951.4 203.985 L1947.14 203.985 L1947.14 198.591 Z" fill="#000000" fill-rule="evenodd" fill-opacity="1" /><path clip-path="url(#clip520)" d="M 0 0 M1978.04 220.582 L1978.04 222.665 L1958.46 222.665 Q1958.73 227.063 1961.09 229.378 Q1963.48 231.67 1967.71 231.67 Q1970.17 231.67 1972.46 231.068 Q1974.78 230.466 1977.04 229.262 L1977.04 233.29 Q1974.75 234.262 1972.34 234.772 Q1969.94 235.281 1967.46 235.281 Q1961.26 235.281 1957.62 231.67 Q1954.01 228.059 1954.01 221.901 Q1954.01 215.536 1957.44 211.809 Q1960.89 208.059 1966.72 208.059 Q1971.95 208.059 1974.98 211.438 Q1978.04 214.795 1978.04 220.582 M1973.78 219.332 Q1973.73 215.837 1971.81 213.753 Q1969.91 211.67 1966.77 211.67 Q1963.2 211.67 1961.05 213.684 Q1958.92 215.698 1958.59 219.355 L1973.78 219.332 Z" fill="#000000" fill-rule="evenodd" fill-opacity="1" /><path clip-path="url(#clip520)" d="M 0 0 M2001.16 209.679 L2001.16 213.661 Q1999.36 212.665 1997.53 212.179 Q1995.72 211.67 1993.87 211.67 Q1989.73 211.67 1987.44 214.309 Q1985.15 216.924 1985.15 221.67 Q1985.15 226.415 1987.44 229.054 Q1989.73 231.67 1993.87 231.67 Q1995.72 231.67 1997.53 231.184 Q1999.36 230.674 2001.16 229.679 L2001.16 233.614 Q1999.38 234.448 1997.46 234.864 Q1995.56 235.281 1993.41 235.281 Q1987.55 235.281 1984.1 231.6 Q1980.65 227.92 1980.65 221.67 Q1980.65 215.327 1984.13 211.693 Q1987.62 208.059 1993.69 208.059 Q1995.65 208.059 1997.53 208.475 Q1999.4 208.869 2001.16 209.679 Z" fill="#000000" fill-rule="evenodd" fill-opacity="1" /><path clip-path="url(#clip520)" d="M 0 0 M2009.84 201.323 L2009.84 208.684 L2018.62 208.684 L2018.62 211.994 L2009.84 211.994 L2009.84 226.068 Q2009.84 229.239 2010.7 230.142 Q2011.58 231.045 2014.24 231.045 L2018.62 231.045 L2018.62 234.61 L2014.24 234.61 Q2009.31 234.61 2007.44 232.781 Q2005.56 230.929 2005.56 226.068 L2005.56 211.994 L2002.44 211.994 L2002.44 208.684 L2005.56 208.684 L2005.56 201.323 L2009.84 201.323 Z" fill="#000000" fill-rule="evenodd" fill-opacity="1" /><path clip-path="url(#clip520)" d="M 0 0 M2023.08 208.684 L2027.34 208.684 L2027.34 234.61 L2023.08 234.61 L2023.08 208.684 M2023.08 198.591 L2027.34 198.591 L2027.34 203.985 L2023.08 203.985 L2023.08 198.591 Z" fill="#000000" fill-rule="evenodd" fill-opacity="1" /><path clip-path="url(#clip520)" d="M 0 0 M2041.86 211.67 Q2038.43 211.67 2036.44 214.355 Q2034.45 217.017 2034.45 221.67 Q2034.45 226.323 2036.42 229.008 Q2038.41 231.67 2041.86 231.67 Q2045.26 231.67 2047.25 228.985 Q2049.24 226.299 2049.24 221.67 Q2049.24 217.063 2047.25 214.378 Q2045.26 211.67 2041.86 211.67 M2041.86 208.059 Q2047.41 208.059 2050.58 211.67 Q2053.76 215.281 2053.76 221.67 Q2053.76 228.036 2050.58 231.67 Q2047.41 235.281 2041.86 235.281 Q2036.28 235.281 2033.11 231.67 Q2029.96 228.036 2029.96 221.67 Q2029.96 215.281 2033.11 211.67 Q2036.28 208.059 2041.86 208.059 Z" fill="#000000" fill-rule="evenodd" fill-opacity="1" /><path clip-path="url(#clip520)" d="M 0 0 M2079.77 218.961 L2079.77 234.61 L2075.52 234.61 L2075.52 219.1 Q2075.52 215.42 2074.08 213.591 Q2072.64 211.762 2069.77 211.762 Q2066.33 211.762 2064.33 213.962 Q2062.34 216.161 2062.34 219.957 L2062.34 234.61 L2058.06 234.61 L2058.06 208.684 L2062.34 208.684 L2062.34 212.712 Q2063.87 210.374 2065.93 209.216 Q2068.02 208.059 2070.72 208.059 Q2075.19 208.059 2077.48 210.837 Q2079.77 213.591 2079.77 218.961 Z" fill="#000000" fill-rule="evenodd" fill-opacity="1" /><path clip-path="url(#clip520)" d="M 0 0 M2114.33 212.665 Q2113.62 212.249 2112.76 212.063 Q2111.93 211.855 2110.91 211.855 Q2107.3 211.855 2105.35 214.216 Q2103.43 216.554 2103.43 220.952 L2103.43 234.61 L2099.15 234.61 L2099.15 208.684 L2103.43 208.684 L2103.43 212.712 Q2104.77 210.35 2106.93 209.216 Q2109.08 208.059 2112.16 208.059 Q2112.6 208.059 2113.13 208.128 Q2113.66 208.175 2114.31 208.29 L2114.33 212.665 Z" fill="#000000" fill-rule="evenodd" fill-opacity="1" /><path clip-path="url(#clip520)" d="M 0 0 M2139.94 220.582 L2139.94 222.665 L2120.35 222.665 Q2120.63 227.063 2122.99 229.378 Q2125.38 231.67 2129.61 231.67 Q2132.07 231.67 2134.36 231.068 Q2136.67 230.466 2138.94 229.262 L2138.94 233.29 Q2136.65 234.262 2134.24 234.772 Q2131.83 235.281 2129.36 235.281 Q2123.15 235.281 2119.52 231.67 Q2115.91 228.059 2115.91 221.901 Q2115.91 215.536 2119.33 211.809 Q2122.78 208.059 2128.62 208.059 Q2133.85 208.059 2136.88 211.438 Q2139.94 214.795 2139.94 220.582 M2135.68 219.332 Q2135.63 215.837 2133.71 213.753 Q2131.81 211.67 2128.66 211.67 Q2125.1 211.67 2122.95 213.684 Q2120.82 215.698 2120.49 219.355 L2135.68 219.332 Z" fill="#000000" fill-rule="evenodd" fill-opacity="1" /><path clip-path="url(#clip520)" d="M 0 0 M2161.46 221.346 Q2161.46 216.716 2159.54 214.17 Q2157.64 211.624 2154.2 211.624 Q2150.77 211.624 2148.85 214.17 Q2146.95 216.716 2146.95 221.346 Q2146.95 225.952 2148.85 228.498 Q2150.77 231.045 2154.2 231.045 Q2157.64 231.045 2159.54 228.498 Q2161.46 225.952 2161.46 221.346 M2165.72 231.392 Q2165.72 238.012 2162.78 241.23 Q2159.84 244.471 2153.78 244.471 Q2151.53 244.471 2149.54 244.123 Q2147.55 243.799 2145.68 243.105 L2145.68 238.961 Q2147.55 239.98 2149.38 240.466 Q2151.21 240.952 2153.11 240.952 Q2157.3 240.952 2159.38 238.753 Q2161.46 236.577 2161.46 232.156 L2161.46 230.049 Q2160.14 232.341 2158.08 233.475 Q2156.02 234.61 2153.15 234.61 Q2148.39 234.61 2145.47 230.975 Q2142.55 227.341 2142.55 221.346 Q2142.55 215.327 2145.47 211.693 Q2148.39 208.059 2153.15 208.059 Q2156.02 208.059 2158.08 209.193 Q2160.14 210.327 2161.46 212.619 L2161.46 208.684 L2165.72 208.684 L2165.72 231.392 Z" fill="#000000" fill-rule="evenodd" fill-opacity="1" /><path clip-path="url(#clip520)" d="M 0 0 M2170.19 208.684 L2174.45 208.684 L2174.45 234.61 L2170.19 234.61 L2170.19 208.684 M2170.19 198.591 L2174.45 198.591 L2174.45 203.985 L2170.19 203.985 L2170.19 198.591 Z" fill="#000000" fill-rule="evenodd" fill-opacity="1" /><path clip-path="url(#clip520)" d="M 0 0 M2188.96 211.67 Q2185.54 211.67 2183.55 214.355 Q2181.56 217.017 2181.56 221.67 Q2181.56 226.323 2183.52 229.008 Q2185.51 231.67 2188.96 231.67 Q2192.37 231.67 2194.36 228.985 Q2196.35 226.299 2196.35 221.67 Q2196.35 217.063 2194.36 214.378 Q2192.37 211.67 2188.96 211.67 M2188.96 208.059 Q2194.52 208.059 2197.69 211.67 Q2200.86 215.281 2200.86 221.67 Q2200.86 228.036 2197.69 231.67 Q2194.52 235.281 2188.96 235.281 Q2183.39 235.281 2180.21 231.67 Q2177.07 228.036 2177.07 221.67 Q2177.07 215.281 2180.21 211.67 Q2183.39 208.059 2188.96 208.059 Z" fill="#000000" fill-rule="evenodd" fill-opacity="1" /><path clip-path="url(#clip520)" d="M 0 0 M2226.88 218.961 L2226.88 234.61 L2222.62 234.61 L2222.62 219.1 Q2222.62 215.42 2221.19 213.591 Q2219.75 211.762 2216.88 211.762 Q2213.43 211.762 2211.44 213.962 Q2209.45 216.161 2209.45 219.957 L2209.45 234.61 L2205.17 234.61 L2205.17 208.684 L2209.45 208.684 L2209.45 212.712 Q2210.98 210.374 2213.04 209.216 Q2215.12 208.059 2217.83 208.059 Q2222.3 208.059 2224.59 210.837 Q2226.88 213.591 2226.88 218.961 Z" fill="#000000" fill-rule="evenodd" fill-opacity="1" /><path clip-path="url(#clip520)" d="
M1519.75 302.002 L1670.81 302.002 L1670.81 253.618 L1519.75 253.618 L1519.75 302.002  Z
  " fill="#ffa500" fill-rule="evenodd" fill-opacity="0.5"/>
<polyline clip-path="url(#clip520)" style="stroke:#ffa500; stroke-width:4; stroke-opacity:1; fill:none" points="
  1519.75,253.618 1670.81,253.618 
  "/>
<path clip-path="url(#clip520)" d="M 0 0 M1700.38 282.15 Q1700.38 286.849 1702.3 289.534 Q1704.24 292.196 1707.62 292.196 Q1711 292.196 1712.95 289.534 Q1714.89 286.849 1714.89 282.15 Q1714.89 277.451 1712.95 274.789 Q1711 272.104 1707.62 272.104 Q1704.24 272.104 1702.3 274.789 Q1700.38 277.451 1700.38 282.15 M1714.89 291.201 Q1713.55 293.515 1711.49 294.65 Q1709.45 295.761 1706.58 295.761 Q1701.88 295.761 1698.92 292.011 Q1695.98 288.261 1695.98 282.15 Q1695.98 276.039 1698.92 272.289 Q1701.88 268.539 1706.58 268.539 Q1709.45 268.539 1711.49 269.673 Q1713.55 270.784 1714.89 273.099 L1714.89 269.164 L1719.15 269.164 L1719.15 304.951 L1714.89 304.951 L1714.89 291.201 Z" fill="#000000" fill-rule="evenodd" fill-opacity="1" /><path clip-path="url(#clip520)" d="M 0 0 M1724.36 294.372 L1724.36 290.113 Q1726.12 290.946 1727.92 291.386 Q1729.73 291.826 1731.47 291.826 Q1736.1 291.826 1738.53 288.724 Q1740.98 285.599 1741.33 279.256 Q1739.98 281.247 1737.92 282.312 Q1735.86 283.377 1733.36 283.377 Q1728.18 283.377 1725.15 280.252 Q1722.14 277.104 1722.14 271.664 Q1722.14 266.34 1725.29 263.122 Q1728.43 259.905 1733.67 259.905 Q1739.66 259.905 1742.81 264.511 Q1745.98 269.094 1745.98 277.844 Q1745.98 286.016 1742.09 290.9 Q1738.23 295.761 1731.67 295.761 Q1729.92 295.761 1728.11 295.414 Q1726.3 295.066 1724.36 294.372 M1733.67 279.719 Q1736.81 279.719 1738.64 277.566 Q1740.49 275.414 1740.49 271.664 Q1740.49 267.937 1738.64 265.784 Q1736.81 263.608 1733.67 263.608 Q1730.52 263.608 1728.67 265.784 Q1726.84 267.937 1726.84 271.664 Q1726.84 275.414 1728.67 277.566 Q1730.52 279.719 1733.67 279.719 Z" fill="#000000" fill-rule="evenodd" fill-opacity="1" /><path clip-path="url(#clip520)" d="M 0 0 M1751.1 260.53 L1769.45 260.53 L1769.45 264.465 L1755.38 264.465 L1755.38 272.937 Q1756.4 272.59 1757.42 272.428 Q1758.43 272.242 1759.45 272.242 Q1765.24 272.242 1768.62 275.414 Q1772 278.585 1772 284.002 Q1772 289.58 1768.53 292.682 Q1765.05 295.761 1758.73 295.761 Q1756.56 295.761 1754.29 295.39 Q1752.04 295.02 1749.64 294.279 L1749.64 289.58 Q1751.72 290.715 1753.94 291.27 Q1756.17 291.826 1758.64 291.826 Q1762.65 291.826 1764.98 289.719 Q1767.32 287.613 1767.32 284.002 Q1767.32 280.391 1764.98 278.284 Q1762.65 276.178 1758.64 276.178 Q1756.77 276.178 1754.89 276.594 Q1753.04 277.011 1751.1 277.891 L1751.1 260.53 Z" fill="#000000" fill-rule="evenodd" fill-opacity="1" /><polyline clip-path="url(#clip520)" style="stroke:#0000ff; stroke-width:4; stroke-opacity:1; fill:none" points="
  1519.75,338.29 1670.81,338.29 
  "/>
<path clip-path="url(#clip520)" d="M 0 0 M1716.33 334.621 Q1717.92 331.75 1720.15 330.385 Q1722.37 329.019 1725.38 329.019 Q1729.43 329.019 1731.63 331.866 Q1733.83 334.69 1733.83 339.921 L1733.83 355.57 L1729.54 355.57 L1729.54 340.06 Q1729.54 336.334 1728.23 334.528 Q1726.91 332.722 1724.2 332.722 Q1720.89 332.722 1718.97 334.922 Q1717.04 337.121 1717.04 340.917 L1717.04 355.57 L1712.76 355.57 L1712.76 340.06 Q1712.76 336.31 1711.44 334.528 Q1710.12 332.722 1707.37 332.722 Q1704.11 332.722 1702.18 334.945 Q1700.26 337.144 1700.26 340.917 L1700.26 355.57 L1695.98 355.57 L1695.98 329.644 L1700.26 329.644 L1700.26 333.672 Q1701.72 331.287 1703.76 330.153 Q1705.79 329.019 1708.6 329.019 Q1711.42 329.019 1713.39 330.454 Q1715.38 331.889 1716.33 334.621 Z" fill="#000000" fill-rule="evenodd" fill-opacity="1" /><path clip-path="url(#clip520)" d="M 0 0 M1760.47 341.542 L1760.47 343.625 L1740.89 343.625 Q1741.17 348.023 1743.53 350.338 Q1745.91 352.63 1750.15 352.63 Q1752.6 352.63 1754.89 352.028 Q1757.21 351.426 1759.48 350.222 L1759.48 354.25 Q1757.18 355.222 1754.78 355.732 Q1752.37 356.241 1749.89 356.241 Q1743.69 356.241 1740.05 352.63 Q1736.44 349.019 1736.44 342.861 Q1736.44 336.496 1739.87 332.769 Q1743.32 329.019 1749.15 329.019 Q1754.38 329.019 1757.42 332.398 Q1760.47 335.755 1760.47 341.542 M1756.21 340.292 Q1756.17 336.797 1754.24 334.713 Q1752.35 332.63 1749.2 332.63 Q1745.63 332.63 1743.48 334.644 Q1741.35 336.658 1741.03 340.315 L1756.21 340.292 Z" fill="#000000" fill-rule="evenodd" fill-opacity="1" /><path clip-path="url(#clip520)" d="M 0 0 M1776.72 342.537 Q1771.56 342.537 1769.57 343.718 Q1767.58 344.898 1767.58 347.746 Q1767.58 350.014 1769.06 351.357 Q1770.56 352.676 1773.13 352.676 Q1776.67 352.676 1778.8 350.176 Q1780.96 347.653 1780.96 343.486 L1780.96 342.537 L1776.72 342.537 M1785.22 340.778 L1785.22 355.57 L1780.96 355.57 L1780.96 351.634 Q1779.5 353.995 1777.32 355.13 Q1775.15 356.241 1772 356.241 Q1768.02 356.241 1765.66 354.019 Q1763.32 351.773 1763.32 348.023 Q1763.32 343.648 1766.23 341.426 Q1769.17 339.204 1774.98 339.204 L1780.96 339.204 L1780.96 338.787 Q1780.96 335.847 1779.01 334.25 Q1777.09 332.63 1773.6 332.63 Q1771.37 332.63 1769.27 333.162 Q1767.16 333.695 1765.22 334.759 L1765.22 330.824 Q1767.55 329.922 1769.75 329.482 Q1771.95 329.019 1774.04 329.019 Q1779.66 329.019 1782.44 331.935 Q1785.22 334.852 1785.22 340.778 Z" fill="#000000" fill-rule="evenodd" fill-opacity="1" /><path clip-path="url(#clip520)" d="M 0 0 M1811.23 339.921 L1811.23 355.57 L1806.97 355.57 L1806.97 340.06 Q1806.97 336.38 1805.54 334.551 Q1804.1 332.722 1801.23 332.722 Q1797.79 332.722 1795.79 334.922 Q1793.8 337.121 1793.8 340.917 L1793.8 355.57 L1789.52 355.57 L1789.52 329.644 L1793.8 329.644 L1793.8 333.672 Q1795.33 331.334 1797.39 330.176 Q1799.48 329.019 1802.18 329.019 Q1806.65 329.019 1808.94 331.797 Q1811.23 334.551 1811.23 339.921 Z" fill="#000000" fill-rule="evenodd" fill-opacity="1" /><polyline clip-path="url(#clip520)" style="stroke:#000000; stroke-width:4; stroke-opacity:1; fill:none" points="
  1519.75,398.77 1670.81,398.77 
  "/>
<path clip-path="url(#clip520)" d="M 0 0 M1716.33 395.101 Q1717.92 392.23 1720.15 390.865 Q1722.37 389.499 1725.38 389.499 Q1729.43 389.499 1731.63 392.346 Q1733.83 395.17 1733.83 400.401 L1733.83 416.05 L1729.54 416.05 L1729.54 400.54 Q1729.54 396.814 1728.23 395.008 Q1726.91 393.202 1724.2 393.202 Q1720.89 393.202 1718.97 395.402 Q1717.04 397.601 1717.04 401.397 L1717.04 416.05 L1712.76 416.05 L1712.76 400.54 Q1712.76 396.79 1711.44 395.008 Q1710.12 393.202 1707.37 393.202 Q1704.11 393.202 1702.18 395.425 Q1700.26 397.624 1700.26 401.397 L1700.26 416.05 L1695.98 416.05 L1695.98 390.124 L1700.26 390.124 L1700.26 394.152 Q1701.72 391.767 1703.76 390.633 Q1705.79 389.499 1708.6 389.499 Q1711.42 389.499 1713.39 390.934 Q1715.38 392.369 1716.33 395.101 Z" fill="#000000" fill-rule="evenodd" fill-opacity="1" /><path clip-path="url(#clip520)" d="M 0 0 M1760.47 402.022 L1760.47 404.105 L1740.89 404.105 Q1741.17 408.503 1743.53 410.818 Q1745.91 413.11 1750.15 413.11 Q1752.6 413.11 1754.89 412.508 Q1757.21 411.906 1759.48 410.702 L1759.48 414.73 Q1757.18 415.702 1754.78 416.212 Q1752.37 416.721 1749.89 416.721 Q1743.69 416.721 1740.05 413.11 Q1736.44 409.499 1736.44 403.341 Q1736.44 396.976 1739.87 393.249 Q1743.32 389.499 1749.15 389.499 Q1754.38 389.499 1757.42 392.878 Q1760.47 396.235 1760.47 402.022 M1756.21 400.772 Q1756.17 397.277 1754.24 395.193 Q1752.35 393.11 1749.2 393.11 Q1745.63 393.11 1743.48 395.124 Q1741.35 397.138 1741.03 400.795 L1756.21 400.772 Z" fill="#000000" fill-rule="evenodd" fill-opacity="1" /><path clip-path="url(#clip520)" d="M 0 0 M1782 394.059 L1782 380.031 L1786.26 380.031 L1786.26 416.05 L1782 416.05 L1782 412.161 Q1780.66 414.475 1778.6 415.61 Q1776.56 416.721 1773.69 416.721 Q1768.99 416.721 1766.03 412.971 Q1763.09 409.221 1763.09 403.11 Q1763.09 396.999 1766.03 393.249 Q1768.99 389.499 1773.69 389.499 Q1776.56 389.499 1778.6 390.633 Q1780.66 391.744 1782 394.059 M1767.48 403.11 Q1767.48 407.809 1769.41 410.494 Q1771.35 413.156 1774.73 413.156 Q1778.11 413.156 1780.05 410.494 Q1782 407.809 1782 403.11 Q1782 398.411 1780.05 395.749 Q1778.11 393.064 1774.73 393.064 Q1771.35 393.064 1769.41 395.749 Q1767.48 398.411 1767.48 403.11 Z" fill="#000000" fill-rule="evenodd" fill-opacity="1" /><path clip-path="url(#clip520)" d="M 0 0 M1790.73 390.124 L1794.98 390.124 L1794.98 416.05 L1790.73 416.05 L1790.73 390.124 M1790.73 380.031 L1794.98 380.031 L1794.98 385.425 L1790.73 385.425 L1790.73 380.031 Z" fill="#000000" fill-rule="evenodd" fill-opacity="1" /><path clip-path="url(#clip520)" d="M 0 0 M1811.23 403.017 Q1806.07 403.017 1804.08 404.198 Q1802.09 405.378 1802.09 408.226 Q1802.09 410.494 1803.57 411.837 Q1805.08 413.156 1807.65 413.156 Q1811.19 413.156 1813.32 410.656 Q1815.47 408.133 1815.47 403.966 L1815.47 403.017 L1811.23 403.017 M1819.73 401.258 L1819.73 416.05 L1815.47 416.05 L1815.47 412.114 Q1814.01 414.475 1811.84 415.61 Q1809.66 416.721 1806.51 416.721 Q1802.53 416.721 1800.17 414.499 Q1797.83 412.253 1797.83 408.503 Q1797.83 404.128 1800.75 401.906 Q1803.69 399.684 1809.5 399.684 L1815.47 399.684 L1815.47 399.267 Q1815.47 396.327 1813.53 394.73 Q1811.6 393.11 1808.11 393.11 Q1805.89 393.11 1803.78 393.642 Q1801.67 394.175 1799.73 395.239 L1799.73 391.304 Q1802.07 390.402 1804.27 389.962 Q1806.47 389.499 1808.55 389.499 Q1814.17 389.499 1816.95 392.415 Q1819.73 395.332 1819.73 401.258 Z" fill="#000000" fill-rule="evenodd" fill-opacity="1" /><path clip-path="url(#clip520)" d="M 0 0 M1845.75 400.401 L1845.75 416.05 L1841.49 416.05 L1841.49 400.54 Q1841.49 396.86 1840.05 395.031 Q1838.62 393.202 1835.75 393.202 Q1832.3 393.202 1830.31 395.402 Q1828.32 397.601 1828.32 401.397 L1828.32 416.05 L1824.04 416.05 L1824.04 390.124 L1828.32 390.124 L1828.32 394.152 Q1829.85 391.814 1831.91 390.656 Q1833.99 389.499 1836.7 389.499 Q1841.16 389.499 1843.46 392.277 Q1845.75 395.031 1845.75 400.401 Z" fill="#000000" fill-rule="evenodd" fill-opacity="1" /></svg>
