<?xml version="1.0" encoding="utf-8"?>
<svg xmlns="http://www.w3.org/2000/svg" xmlns:xlink="http://www.w3.org/1999/xlink" width="600" height="400" viewBox="0 0 2400 1600">
<defs>
  <clipPath id="clip050">
    <rect x="0" y="0" width="2400" height="1600"/>
  </clipPath>
</defs>
<path clip-path="url(#clip050)" d="
M0 1600 L2400 1600 L2400 0 L0 0  Z
  " fill="#ffffff" fill-rule="evenodd" fill-opacity="1"/>
<defs>
  <clipPath id="clip051">
    <rect x="480" y="0" width="1681" height="1600"/>
  </clipPath>
</defs>
<path clip-path="url(#clip050)" d="
M86.9921 1521.01 L2352.76 1521.01 L2352.76 47.2441 L86.9921 47.2441  Z
  " fill="#ffffff" fill-rule="evenodd" fill-opacity="1"/>
<defs>
  <clipPath id="clip052">
    <rect x="86" y="47" width="2267" height="1475"/>
  </clipPath>
</defs>
<polyline clip-path="url(#clip052)" style="stroke:#000000; stroke-width:2; stroke-opacity:0.1; fill:none" points="
  464.033,1521.01 464.033,47.2441 
  "/>
<polyline clip-path="url(#clip052)" style="stroke:#000000; stroke-width:2; stroke-opacity:0.1; fill:none" points="
  961.122,1521.01 961.122,47.2441 
  "/>
<polyline clip-path="url(#clip052)" style="stroke:#000000; stroke-width:2; stroke-opacity:0.1; fill:none" points="
  1458.21,1521.01 1458.21,47.2441 
  "/>
<polyline clip-path="url(#clip052)" style="stroke:#000000; stroke-width:2; stroke-opacity:0.1; fill:none" points="
  1955.3,1521.01 1955.3,47.2441 
  "/>
<polyline clip-path="url(#clip052)" style="stroke:#000000; stroke-width:2; stroke-opacity:0.1; fill:none" points="
  86.9921,1479.3 2352.76,1479.3 
  "/>
<polyline clip-path="url(#clip052)" style="stroke:#000000; stroke-width:2; stroke-opacity:0.1; fill:none" points="
  86.9921,1227.4 2352.76,1227.4 
  "/>
<polyline clip-path="url(#clip052)" style="stroke:#000000; stroke-width:2; stroke-opacity:0.1; fill:none" points="
  86.9921,975.496 2352.76,975.496 
  "/>
<polyline clip-path="url(#clip052)" style="stroke:#000000; stroke-width:2; stroke-opacity:0.1; fill:none" points="
  86.9921,723.596 2352.76,723.596 
  "/>
<polyline clip-path="url(#clip052)" style="stroke:#000000; stroke-width:2; stroke-opacity:0.1; fill:none" points="
  86.9921,471.695 2352.76,471.695 
  "/>
<polyline clip-path="url(#clip052)" style="stroke:#000000; stroke-width:2; stroke-opacity:0.1; fill:none" points="
  86.9921,219.794 2352.76,219.794 
  "/>
<polyline clip-path="url(#clip050)" style="stroke:#000000; stroke-width:4; stroke-opacity:1; fill:none" points="
  86.9921,1521.01 2352.76,1521.01 
  "/>
<polyline clip-path="url(#clip050)" style="stroke:#000000; stroke-width:4; stroke-opacity:1; fill:none" points="
  86.9921,1521.01 86.9921,47.2441 
  "/>
<polyline clip-path="url(#clip050)" style="stroke:#000000; stroke-width:4; stroke-opacity:1; fill:none" points="
  464.033,1521.01 464.033,1503.32 
  "/>
<polyline clip-path="url(#clip050)" style="stroke:#000000; stroke-width:4; stroke-opacity:1; fill:none" points="
  961.122,1521.01 961.122,1503.32 
  "/>
<polyline clip-path="url(#clip050)" style="stroke:#000000; stroke-width:4; stroke-opacity:1; fill:none" points="
  1458.21,1521.01 1458.21,1503.32 
  "/>
<polyline clip-path="url(#clip050)" style="stroke:#000000; stroke-width:4; stroke-opacity:1; fill:none" points="
  1955.3,1521.01 1955.3,1503.32 
  "/>
<polyline clip-path="url(#clip050)" style="stroke:#000000; stroke-width:4; stroke-opacity:1; fill:none" points="
  86.9921,1479.3 114.181,1479.3 
  "/>
<polyline clip-path="url(#clip050)" style="stroke:#000000; stroke-width:4; stroke-opacity:1; fill:none" points="
  86.9921,1227.4 114.181,1227.4 
  "/>
<polyline clip-path="url(#clip050)" style="stroke:#000000; stroke-width:4; stroke-opacity:1; fill:none" points="
  86.9921,975.496 114.181,975.496 
  "/>
<polyline clip-path="url(#clip050)" style="stroke:#000000; stroke-width:4; stroke-opacity:1; fill:none" points="
  86.9921,723.596 114.181,723.596 
  "/>
<polyline clip-path="url(#clip050)" style="stroke:#000000; stroke-width:4; stroke-opacity:1; fill:none" points="
  86.9921,471.695 114.181,471.695 
  "/>
<polyline clip-path="url(#clip050)" style="stroke:#000000; stroke-width:4; stroke-opacity:1; fill:none" points="
  86.9921,219.794 114.181,219.794 
  "/>
<path clip-path="url(#clip050)" d="M 0 0 M435.978 1570.54 L443.617 1570.54 L443.617 1544.18 L435.307 1545.85 L435.307 1541.59 L443.57 1539.92 L448.246 1539.92 L448.246 1570.54 L455.885 1570.54 L455.885 1574.48 L435.978 1574.48 L435.978 1570.54 Z" fill="#000000" fill-rule="evenodd" fill-opacity="1" /><path clip-path="url(#clip050)" d="M 0 0 M460.955 1568.6 L465.839 1568.6 L465.839 1574.48 L460.955 1574.48 L460.955 1568.6 Z" fill="#000000" fill-rule="evenodd" fill-opacity="1" /><path clip-path="url(#clip050)" d="M 0 0 M480.908 1558.07 Q477.575 1558.07 475.654 1559.85 Q473.755 1561.63 473.755 1564.76 Q473.755 1567.88 475.654 1569.67 Q477.575 1571.45 480.908 1571.45 Q484.242 1571.45 486.163 1569.67 Q488.084 1567.86 488.084 1564.76 Q488.084 1561.63 486.163 1559.85 Q484.265 1558.07 480.908 1558.07 M476.232 1556.08 Q473.223 1555.34 471.533 1553.28 Q469.867 1551.22 469.867 1548.25 Q469.867 1544.11 472.806 1541.7 Q475.769 1539.29 480.908 1539.29 Q486.07 1539.29 489.01 1541.7 Q491.95 1544.11 491.95 1548.25 Q491.95 1551.22 490.26 1553.28 Q488.593 1555.34 485.607 1556.08 Q488.987 1556.86 490.862 1559.16 Q492.76 1561.45 492.76 1564.76 Q492.76 1569.78 489.681 1572.47 Q486.626 1575.15 480.908 1575.15 Q475.191 1575.15 472.112 1572.47 Q469.056 1569.78 469.056 1564.76 Q469.056 1561.45 470.955 1559.16 Q472.853 1556.86 476.232 1556.08 M474.519 1548.69 Q474.519 1551.38 476.186 1552.88 Q477.876 1554.39 480.908 1554.39 Q483.917 1554.39 485.607 1552.88 Q487.32 1551.38 487.32 1548.69 Q487.32 1546.01 485.607 1544.5 Q483.917 1543 480.908 1543 Q477.876 1543 476.186 1544.5 Q474.519 1546.01 474.519 1548.69 Z" fill="#000000" fill-rule="evenodd" fill-opacity="1" /><path clip-path="url(#clip050)" d="M 0 0 M937.291 1570.54 L953.611 1570.54 L953.611 1574.48 L931.667 1574.48 L931.667 1570.54 Q934.329 1567.79 938.912 1563.16 Q943.518 1558.51 944.699 1557.17 Q946.944 1554.64 947.824 1552.91 Q948.727 1551.15 948.727 1549.46 Q948.727 1546.7 946.782 1544.97 Q944.861 1543.23 941.759 1543.23 Q939.56 1543.23 937.106 1543.99 Q934.676 1544.76 931.898 1546.31 L931.898 1541.59 Q934.722 1540.45 937.176 1539.87 Q939.629 1539.29 941.666 1539.29 Q947.037 1539.29 950.231 1541.98 Q953.426 1544.67 953.426 1549.16 Q953.426 1551.29 952.615 1553.21 Q951.828 1555.1 949.722 1557.7 Q949.143 1558.37 946.041 1561.59 Q942.94 1564.78 937.291 1570.54 Z" fill="#000000" fill-rule="evenodd" fill-opacity="1" /><path clip-path="url(#clip050)" d="M 0 0 M958.68 1568.6 L963.564 1568.6 L963.564 1574.48 L958.68 1574.48 L958.68 1568.6 Z" fill="#000000" fill-rule="evenodd" fill-opacity="1" /><path clip-path="url(#clip050)" d="M 0 0 M978.634 1543 Q975.023 1543 973.194 1546.56 Q971.389 1550.11 971.389 1557.23 Q971.389 1564.34 973.194 1567.91 Q975.023 1571.45 978.634 1571.45 Q982.268 1571.45 984.074 1567.91 Q985.902 1564.34 985.902 1557.23 Q985.902 1550.11 984.074 1546.56 Q982.268 1543 978.634 1543 M978.634 1539.29 Q984.444 1539.29 987.5 1543.9 Q990.578 1548.48 990.578 1557.23 Q990.578 1565.96 987.5 1570.57 Q984.444 1575.15 978.634 1575.15 Q972.824 1575.15 969.745 1570.57 Q966.689 1565.96 966.689 1557.23 Q966.689 1548.48 969.745 1543.9 Q972.824 1539.29 978.634 1539.29 Z" fill="#000000" fill-rule="evenodd" fill-opacity="1" /><path clip-path="url(#clip050)" d="M 0 0 M1435.18 1570.54 L1451.5 1570.54 L1451.5 1574.48 L1429.55 1574.48 L1429.55 1570.54 Q1432.22 1567.79 1436.8 1563.16 Q1441.41 1558.51 1442.59 1557.17 Q1444.83 1554.64 1445.71 1552.91 Q1446.61 1551.15 1446.61 1549.46 Q1446.61 1546.7 1444.67 1544.97 Q1442.75 1543.23 1439.65 1543.23 Q1437.45 1543.23 1434.99 1543.99 Q1432.56 1544.76 1429.79 1546.31 L1429.79 1541.59 Q1432.61 1540.45 1435.06 1539.87 Q1437.52 1539.29 1439.55 1539.29 Q1444.92 1539.29 1448.12 1541.98 Q1451.31 1544.67 1451.31 1549.16 Q1451.31 1551.29 1450.5 1553.21 Q1449.72 1555.1 1447.61 1557.7 Q1447.03 1558.37 1443.93 1561.59 Q1440.83 1564.78 1435.18 1570.54 Z" fill="#000000" fill-rule="evenodd" fill-opacity="1" /><path clip-path="url(#clip050)" d="M 0 0 M1456.57 1568.6 L1461.45 1568.6 L1461.45 1574.48 L1456.57 1574.48 L1456.57 1568.6 Z" fill="#000000" fill-rule="evenodd" fill-opacity="1" /><path clip-path="url(#clip050)" d="M 0 0 M1470.55 1570.54 L1486.87 1570.54 L1486.87 1574.48 L1464.92 1574.48 L1464.92 1570.54 Q1467.59 1567.79 1472.17 1563.16 Q1476.78 1558.51 1477.96 1557.17 Q1480.2 1554.64 1481.08 1552.91 Q1481.98 1551.15 1481.98 1549.46 Q1481.98 1546.7 1480.04 1544.97 Q1478.12 1543.23 1475.02 1543.23 Q1472.82 1543.23 1470.36 1543.99 Q1467.93 1544.76 1465.16 1546.31 L1465.16 1541.59 Q1467.98 1540.45 1470.43 1539.87 Q1472.89 1539.29 1474.92 1539.29 Q1480.29 1539.29 1483.49 1541.98 Q1486.68 1544.67 1486.68 1549.16 Q1486.68 1551.29 1485.87 1553.21 Q1485.09 1555.1 1482.98 1557.7 Q1482.4 1558.37 1479.3 1561.59 Q1476.2 1564.78 1470.55 1570.54 Z" fill="#000000" fill-rule="evenodd" fill-opacity="1" /><path clip-path="url(#clip050)" d="M 0 0 M1931.23 1570.54 L1947.55 1570.54 L1947.55 1574.48 L1925.6 1574.48 L1925.6 1570.54 Q1928.26 1567.79 1932.85 1563.16 Q1937.45 1558.51 1938.63 1557.17 Q1940.88 1554.64 1941.76 1552.91 Q1942.66 1551.15 1942.66 1549.46 Q1942.66 1546.7 1940.72 1544.97 Q1938.8 1543.23 1935.69 1543.23 Q1933.5 1543.23 1931.04 1543.99 Q1928.61 1544.76 1925.83 1546.31 L1925.83 1541.59 Q1928.66 1540.45 1931.11 1539.87 Q1933.56 1539.29 1935.6 1539.29 Q1940.97 1539.29 1944.17 1541.98 Q1947.36 1544.67 1947.36 1549.16 Q1947.36 1551.29 1946.55 1553.21 Q1945.76 1555.1 1943.66 1557.7 Q1943.08 1558.37 1939.98 1561.59 Q1936.87 1564.78 1931.23 1570.54 Z" fill="#000000" fill-rule="evenodd" fill-opacity="1" /><path clip-path="url(#clip050)" d="M 0 0 M1952.62 1568.6 L1957.5 1568.6 L1957.5 1574.48 L1952.62 1574.48 L1952.62 1568.6 Z" fill="#000000" fill-rule="evenodd" fill-opacity="1" /><path clip-path="url(#clip050)" d="M 0 0 M1975.42 1543.99 L1963.61 1562.44 L1975.42 1562.44 L1975.42 1543.99 M1974.19 1539.92 L1980.07 1539.92 L1980.07 1562.44 L1985 1562.44 L1985 1566.33 L1980.07 1566.33 L1980.07 1574.48 L1975.42 1574.48 L1975.42 1566.33 L1959.81 1566.33 L1959.81 1561.82 L1974.19 1539.92 Z" fill="#000000" fill-rule="evenodd" fill-opacity="1" /><path clip-path="url(#clip050)" d="M 0 0 M14.0804 1465.1 Q10.4693 1465.1 8.64057 1468.66 Q6.83502 1472.2 6.83502 1479.33 Q6.83502 1486.44 8.64057 1490 Q10.4693 1493.55 14.0804 1493.55 Q17.7146 1493.55 19.5201 1490 Q21.3488 1486.44 21.3488 1479.33 Q21.3488 1472.2 19.5201 1468.66 Q17.7146 1465.1 14.0804 1465.1 M14.0804 1461.39 Q19.8905 1461.39 22.946 1466 Q26.0247 1470.58 26.0247 1479.33 Q26.0247 1488.06 22.946 1492.67 Q19.8905 1497.25 14.0804 1497.25 Q8.2702 1497.25 5.19151 1492.67 Q2.13597 1488.06 2.13597 1479.33 Q2.13597 1470.58 5.19151 1466 Q8.2702 1461.39 14.0804 1461.39 Z" fill="#000000" fill-rule="evenodd" fill-opacity="1" /><path clip-path="url(#clip050)" d="M 0 0 M31.0941 1490.7 L35.9784 1490.7 L35.9784 1496.58 L31.0941 1496.58 L31.0941 1490.7 Z" fill="#000000" fill-rule="evenodd" fill-opacity="1" /><path clip-path="url(#clip050)" d="M 0 0 M51.0477 1465.1 Q47.4367 1465.1 45.608 1468.66 Q43.8024 1472.2 43.8024 1479.33 Q43.8024 1486.44 45.608 1490 Q47.4367 1493.55 51.0477 1493.55 Q54.682 1493.55 56.4875 1490 Q58.3162 1486.44 58.3162 1479.33 Q58.3162 1472.2 56.4875 1468.66 Q54.682 1465.1 51.0477 1465.1 M51.0477 1461.39 Q56.8579 1461.39 59.9134 1466 Q62.9921 1470.58 62.9921 1479.33 Q62.9921 1488.06 59.9134 1492.67 Q56.8579 1497.25 51.0477 1497.25 Q45.2376 1497.25 42.1589 1492.67 Q39.1034 1488.06 39.1034 1479.33 Q39.1034 1470.58 42.1589 1466 Q45.2376 1461.39 51.0477 1461.39 Z" fill="#000000" fill-rule="evenodd" fill-opacity="1" /><path clip-path="url(#clip050)" d="M 0 0 M15.0757 1213.2 Q11.4646 1213.2 9.63593 1216.76 Q7.83038 1220.3 7.83038 1227.43 Q7.83038 1234.54 9.63593 1238.1 Q11.4646 1241.64 15.0757 1241.64 Q18.71 1241.64 20.5155 1238.1 Q22.3442 1234.54 22.3442 1227.43 Q22.3442 1220.3 20.5155 1216.76 Q18.71 1213.2 15.0757 1213.2 M15.0757 1209.49 Q20.8859 1209.49 23.9414 1214.1 Q27.0201 1218.68 27.0201 1227.43 Q27.0201 1236.16 23.9414 1240.76 Q20.8859 1245.35 15.0757 1245.35 Q9.26556 1245.35 6.18687 1240.76 Q3.13134 1236.16 3.13134 1227.43 Q3.13134 1218.68 6.18687 1214.1 Q9.26556 1209.49 15.0757 1209.49 Z" fill="#000000" fill-rule="evenodd" fill-opacity="1" /><path clip-path="url(#clip050)" d="M 0 0 M32.0895 1238.8 L36.9737 1238.8 L36.9737 1244.68 L32.0895 1244.68 L32.0895 1238.8 Z" fill="#000000" fill-rule="evenodd" fill-opacity="1" /><path clip-path="url(#clip050)" d="M 0 0 M42.0895 1210.12 L60.4458 1210.12 L60.4458 1214.05 L46.3718 1214.05 L46.3718 1222.52 Q47.3904 1222.18 48.4089 1222.02 Q49.4274 1221.83 50.4459 1221.83 Q56.2329 1221.83 59.6125 1225 Q62.9921 1228.17 62.9921 1233.59 Q62.9921 1239.17 59.5199 1242.27 Q56.0477 1245.35 49.7283 1245.35 Q47.5524 1245.35 45.2839 1244.98 Q43.0385 1244.61 40.6311 1243.87 L40.6311 1239.17 Q42.7145 1240.3 44.9367 1240.86 Q47.1589 1241.41 49.6357 1241.41 Q53.6403 1241.41 55.9783 1239.31 Q58.3162 1237.2 58.3162 1233.59 Q58.3162 1229.98 55.9783 1227.87 Q53.6403 1225.77 49.6357 1225.77 Q47.7607 1225.77 45.8857 1226.18 Q44.0339 1226.6 42.0895 1227.48 L42.0895 1210.12 Z" fill="#000000" fill-rule="evenodd" fill-opacity="1" /><path clip-path="url(#clip050)" d="M 0 0 M6.11743 988.841 L13.7563 988.841 L13.7563 962.476 L5.44614 964.142 L5.44614 959.883 L13.71 958.216 L18.3859 958.216 L18.3859 988.841 L26.0247 988.841 L26.0247 992.776 L6.11743 992.776 L6.11743 988.841 Z" fill="#000000" fill-rule="evenodd" fill-opacity="1" /><path clip-path="url(#clip050)" d="M 0 0 M31.0941 986.897 L35.9784 986.897 L35.9784 992.776 L31.0941 992.776 L31.0941 986.897 Z" fill="#000000" fill-rule="evenodd" fill-opacity="1" /><path clip-path="url(#clip050)" d="M 0 0 M51.0477 961.295 Q47.4367 961.295 45.608 964.86 Q43.8024 968.401 43.8024 975.531 Q43.8024 982.637 45.608 986.202 Q47.4367 989.744 51.0477 989.744 Q54.682 989.744 56.4875 986.202 Q58.3162 982.637 58.3162 975.531 Q58.3162 968.401 56.4875 964.86 Q54.682 961.295 51.0477 961.295 M51.0477 957.591 Q56.8579 957.591 59.9134 962.198 Q62.9921 966.781 62.9921 975.531 Q62.9921 984.258 59.9134 988.864 Q56.8579 993.448 51.0477 993.448 Q45.2376 993.448 42.1589 988.864 Q39.1034 984.258 39.1034 975.531 Q39.1034 966.781 42.1589 962.198 Q45.2376 957.591 51.0477 957.591 Z" fill="#000000" fill-rule="evenodd" fill-opacity="1" /><path clip-path="url(#clip050)" d="M 0 0 M7.1128 736.941 L14.7516 736.941 L14.7516 710.575 L6.4415 712.242 L6.4415 707.982 L14.7053 706.316 L19.3812 706.316 L19.3812 736.941 L27.0201 736.941 L27.0201 740.876 L7.1128 740.876 L7.1128 736.941 Z" fill="#000000" fill-rule="evenodd" fill-opacity="1" /><path clip-path="url(#clip050)" d="M 0 0 M32.0895 734.996 L36.9737 734.996 L36.9737 740.876 L32.0895 740.876 L32.0895 734.996 Z" fill="#000000" fill-rule="evenodd" fill-opacity="1" /><path clip-path="url(#clip050)" d="M 0 0 M42.0895 706.316 L60.4458 706.316 L60.4458 710.251 L46.3718 710.251 L46.3718 718.723 Q47.3904 718.376 48.4089 718.214 Q49.4274 718.029 50.4459 718.029 Q56.2329 718.029 59.6125 721.2 Q62.9921 724.371 62.9921 729.788 Q62.9921 735.366 59.5199 738.468 Q56.0477 741.547 49.7283 741.547 Q47.5524 741.547 45.2839 741.177 Q43.0385 740.806 40.6311 740.066 L40.6311 735.366 Q42.7145 736.501 44.9367 737.056 Q47.1589 737.612 49.6357 737.612 Q53.6403 737.612 55.9783 735.505 Q58.3162 733.399 58.3162 729.788 Q58.3162 726.177 55.9783 724.07 Q53.6403 721.964 49.6357 721.964 Q47.7607 721.964 45.8857 722.38 Q44.0339 722.797 42.0895 723.677 L42.0895 706.316 Z" fill="#000000" fill-rule="evenodd" fill-opacity="1" /><path clip-path="url(#clip050)" d="M 0 0 M9.70537 485.04 L26.0247 485.04 L26.0247 488.975 L4.0804 488.975 L4.0804 485.04 Q6.74243 482.285 11.3257 477.656 Q15.9322 473.003 17.1127 471.66 Q19.3581 469.137 20.2377 467.401 Q21.1405 465.642 21.1405 463.952 Q21.1405 461.197 19.1961 459.461 Q17.2748 457.725 14.1729 457.725 Q11.9739 457.725 9.52019 458.489 Q7.08965 459.253 4.31188 460.804 L4.31188 456.082 Q7.13594 454.947 9.58963 454.369 Q12.0433 453.79 14.0804 453.79 Q19.4507 453.79 22.6451 456.475 Q25.8395 459.16 25.8395 463.651 Q25.8395 465.781 25.0294 467.702 Q24.2423 469.6 22.1359 472.193 Q21.5572 472.864 18.4553 476.082 Q15.3535 479.276 9.70537 485.04 Z" fill="#000000" fill-rule="evenodd" fill-opacity="1" /><path clip-path="url(#clip050)" d="M 0 0 M31.0941 483.095 L35.9784 483.095 L35.9784 488.975 L31.0941 488.975 L31.0941 483.095 Z" fill="#000000" fill-rule="evenodd" fill-opacity="1" /><path clip-path="url(#clip050)" d="M 0 0 M51.0477 457.494 Q47.4367 457.494 45.608 461.059 Q43.8024 464.6 43.8024 471.73 Q43.8024 478.836 45.608 482.401 Q47.4367 485.943 51.0477 485.943 Q54.682 485.943 56.4875 482.401 Q58.3162 478.836 58.3162 471.73 Q58.3162 464.6 56.4875 461.059 Q54.682 457.494 51.0477 457.494 M51.0477 453.79 Q56.8579 453.79 59.9134 458.397 Q62.9921 462.98 62.9921 471.73 Q62.9921 480.457 59.9134 485.063 Q56.8579 489.646 51.0477 489.646 Q45.2376 489.646 42.1589 485.063 Q39.1034 480.457 39.1034 471.73 Q39.1034 462.98 42.1589 458.397 Q45.2376 453.79 51.0477 453.79 Z" fill="#000000" fill-rule="evenodd" fill-opacity="1" /><path clip-path="url(#clip050)" d="M 0 0 M10.7007 233.139 L27.0201 233.139 L27.0201 237.074 L5.07577 237.074 L5.07577 233.139 Q7.73779 230.385 12.3211 225.755 Q16.9276 221.102 18.1081 219.76 Q20.3535 217.237 21.2331 215.501 Q22.1359 213.741 22.1359 212.051 Q22.1359 209.297 20.1914 207.561 Q18.2701 205.825 15.1683 205.825 Q12.9692 205.825 10.5156 206.589 Q8.08501 207.352 5.30725 208.903 L5.30725 204.181 Q8.13131 203.047 10.585 202.468 Q13.0387 201.889 15.0757 201.889 Q20.4461 201.889 23.6405 204.575 Q26.8349 207.26 26.8349 211.751 Q26.8349 213.88 26.0247 215.801 Q25.2377 217.7 23.1312 220.292 Q22.5525 220.963 19.4507 224.181 Q16.3489 227.375 10.7007 233.139 Z" fill="#000000" fill-rule="evenodd" fill-opacity="1" /><path clip-path="url(#clip050)" d="M 0 0 M32.0895 231.195 L36.9737 231.195 L36.9737 237.074 L32.0895 237.074 L32.0895 231.195 Z" fill="#000000" fill-rule="evenodd" fill-opacity="1" /><path clip-path="url(#clip050)" d="M 0 0 M42.0895 202.514 L60.4458 202.514 L60.4458 206.45 L46.3718 206.45 L46.3718 214.922 Q47.3904 214.575 48.4089 214.413 Q49.4274 214.227 50.4459 214.227 Q56.2329 214.227 59.6125 217.399 Q62.9921 220.57 62.9921 225.987 Q62.9921 231.565 59.5199 234.667 Q56.0477 237.746 49.7283 237.746 Q47.5524 237.746 45.2839 237.375 Q43.0385 237.005 40.6311 236.264 L40.6311 231.565 Q42.7145 232.699 44.9367 233.255 Q47.1589 233.811 49.6357 233.811 Q53.6403 233.811 55.9783 231.704 Q58.3162 229.598 58.3162 225.987 Q58.3162 222.375 55.9783 220.269 Q53.6403 218.163 49.6357 218.163 Q47.7607 218.163 45.8857 218.579 Q44.0339 218.996 42.0895 219.875 L42.0895 202.514 Z" fill="#000000" fill-rule="evenodd" fill-opacity="1" /><path clip-path="url(#clip052)" d="
M151.118 1465.41 L155.607 1464.92 L160.096 1464.47 L164.585 1464.08 L169.075 1463.72 L173.564 1463.41 L178.053 1463.12 L182.542 1462.85 L187.032 1462.59 L191.521 1462.33 
  L196.01 1462.04 L200.5 1461.71 L204.989 1461.33 L209.478 1460.88 L213.967 1460.34 L218.457 1459.7 L222.946 1458.94 L227.435 1458.04 L231.924 1456.98 L236.414 1455.76 
  L240.903 1454.34 L245.392 1452.73 L249.882 1450.9 L254.371 1448.85 L258.86 1446.55 L263.349 1444.01 L267.839 1441.21 L272.328 1438.15 L276.817 1434.82 L281.306 1431.23 
  L285.796 1427.38 L290.285 1423.28 L294.774 1418.93 L299.264 1414.35 L303.753 1409.57 L308.242 1404.6 L312.731 1399.48 L317.221 1394.23 L321.71 1388.9 L326.199 1383.52 
  L330.688 1378.12 L335.178 1372.75 L339.667 1367.46 L344.156 1362.27 L348.646 1357.24 L353.135 1352.39 L357.624 1347.75 L362.113 1343.36 L366.603 1339.23 L371.092 1335.36 
  L375.581 1331.78 L380.07 1328.47 L384.56 1325.43 L389.049 1322.64 L393.538 1320.07 L398.028 1317.69 L402.517 1315.47 L407.006 1313.36 L411.495 1311.32 L415.985 1309.32 
  L420.474 1307.29 L424.963 1305.21 L429.452 1303.02 L433.942 1300.7 L438.431 1298.2 L442.92 1295.5 L447.41 1292.57 L451.899 1289.4 L456.388 1285.98 L460.877 1282.28 
  L465.367 1278.32 L469.856 1274.09 L474.345 1269.59 L478.834 1264.82 L483.324 1259.8 L487.813 1254.52 L492.302 1249 L496.792 1243.23 L501.281 1237.22 L505.77 1230.96 
  L510.259 1224.46 L514.749 1217.7 L519.238 1210.69 L523.727 1203.42 L528.216 1195.88 L532.706 1188.05 L537.195 1179.95 L541.684 1171.56 L546.174 1162.88 L550.663 1153.93 
  L555.152 1144.72 L559.641 1135.25 L564.131 1125.56 L568.62 1115.68 L573.109 1105.62 L577.598 1095.43 L582.088 1085.15 L586.577 1074.8 L591.066 1064.42 L595.556 1054.03 
  L595.556 1479.3 L591.066 1479.3 L586.577 1479.3 L582.088 1479.3 L577.598 1479.3 L573.109 1479.3 L568.62 1479.3 L564.131 1479.3 L559.641 1479.3 L555.152 1479.3 
  L550.663 1479.3 L546.174 1479.3 L541.684 1479.3 L537.195 1479.3 L532.706 1479.3 L528.216 1479.3 L523.727 1479.3 L519.238 1479.3 L514.749 1479.3 L510.259 1479.3 
  L505.77 1479.3 L501.281 1479.3 L496.792 1479.3 L492.302 1479.3 L487.813 1479.3 L483.324 1479.3 L478.834 1479.3 L474.345 1479.3 L469.856 1479.3 L465.367 1479.3 
  L460.877 1479.3 L456.388 1479.3 L451.899 1479.3 L447.41 1479.3 L442.92 1479.3 L438.431 1479.3 L433.942 1479.3 L429.452 1479.3 L424.963 1479.3 L420.474 1479.3 
  L415.985 1479.3 L411.495 1479.3 L407.006 1479.3 L402.517 1479.3 L398.028 1479.3 L393.538 1479.3 L389.049 1479.3 L384.56 1479.3 L380.07 1479.3 L375.581 1479.3 
  L371.092 1479.3 L366.603 1479.3 L362.113 1479.3 L357.624 1479.3 L353.135 1479.3 L348.646 1479.3 L344.156 1479.3 L339.667 1479.3 L335.178 1479.3 L330.688 1479.3 
  L326.199 1479.3 L321.71 1479.3 L317.221 1479.3 L312.731 1479.3 L308.242 1479.3 L303.753 1479.3 L299.264 1479.3 L294.774 1479.3 L290.285 1479.3 L285.796 1479.3 
  L281.306 1479.3 L276.817 1479.3 L272.328 1479.3 L267.839 1479.3 L263.349 1479.3 L258.86 1479.3 L254.371 1479.3 L249.882 1479.3 L245.392 1479.3 L240.903 1479.3 
  L236.414 1479.3 L231.924 1479.3 L227.435 1479.3 L222.946 1479.3 L218.457 1479.3 L213.967 1479.3 L209.478 1479.3 L204.989 1479.3 L200.5 1479.3 L196.01 1479.3 
  L191.521 1479.3 L187.032 1479.3 L182.542 1479.3 L178.053 1479.3 L173.564 1479.3 L169.075 1479.3 L164.585 1479.3 L160.096 1479.3 L155.607 1479.3 L151.118 1479.3 
   Z
  " fill="#ffa500" fill-rule="evenodd" fill-opacity="0.5"/>
<polyline clip-path="url(#clip052)" style="stroke:#ffa500; stroke-width:4; stroke-opacity:1; fill:none" points="
  151.118,1465.41 155.607,1464.92 160.096,1464.47 164.585,1464.08 169.075,1463.72 173.564,1463.41 178.053,1463.12 182.542,1462.85 187.032,1462.59 191.521,1462.33 
  196.01,1462.04 200.5,1461.71 204.989,1461.33 209.478,1460.88 213.967,1460.34 218.457,1459.7 222.946,1458.94 227.435,1458.04 231.924,1456.98 236.414,1455.76 
  240.903,1454.34 245.392,1452.73 249.882,1450.9 254.371,1448.85 258.86,1446.55 263.349,1444.01 267.839,1441.21 272.328,1438.15 276.817,1434.82 281.306,1431.23 
  285.796,1427.38 290.285,1423.28 294.774,1418.93 299.264,1414.35 303.753,1409.57 308.242,1404.6 312.731,1399.48 317.221,1394.23 321.71,1388.9 326.199,1383.52 
  330.688,1378.12 335.178,1372.75 339.667,1367.46 344.156,1362.27 348.646,1357.24 353.135,1352.39 357.624,1347.75 362.113,1343.36 366.603,1339.23 371.092,1335.36 
  375.581,1331.78 380.07,1328.47 384.56,1325.43 389.049,1322.64 393.538,1320.07 398.028,1317.69 402.517,1315.47 407.006,1313.36 411.495,1311.32 415.985,1309.32 
  420.474,1307.29 424.963,1305.21 429.452,1303.02 433.942,1300.7 438.431,1298.2 442.92,1295.5 447.41,1292.57 451.899,1289.4 456.388,1285.98 460.877,1282.28 
  465.367,1278.32 469.856,1274.09 474.345,1269.59 478.834,1264.82 483.324,1259.8 487.813,1254.52 492.302,1249 496.792,1243.23 501.281,1237.22 505.77,1230.96 
  510.259,1224.46 514.749,1217.7 519.238,1210.69 523.727,1203.42 528.216,1195.88 532.706,1188.05 537.195,1179.95 541.684,1171.56 546.174,1162.88 550.663,1153.93 
  555.152,1144.72 559.641,1135.25 564.131,1125.56 568.62,1115.68 573.109,1105.62 577.598,1095.43 582.088,1085.15 586.577,1074.8 591.066,1064.42 595.556,1054.03 
  
  "/>
<path clip-path="url(#clip052)" d="
M595.556 1054.03 L606.784 1028.18 L618.012 1002.6 L629.24 977.179 L640.468 951.599 L651.696 925.503 L662.925 898.614 L674.153 870.801 L685.381 842.019 L696.609 812.19 
  L707.837 781.084 L719.065 748.269 L730.294 713.176 L741.522 675.24 L752.75 634.077 L763.978 589.617 L775.206 542.179 L786.434 492.46 L797.663 441.499 L808.891 390.613 
  L820.119 341.314 L831.347 295.187 L842.575 253.701 L853.803 217.973 L865.032 188.534 L876.26 165.21 L887.488 147.182 L898.716 133.228 L909.944 122.079 L921.172 112.756 
  L932.401 104.764 L943.629 98.0891 L954.857 93.0226 L966.085 89.9137 L977.313 88.9544 L988.541 90.0793 L999.77 92.9964 L1011 97.3025 L1022.23 102.611 L1033.45 108.629 
  L1044.68 115.158 L1055.91 122.053 L1067.14 129.182 L1078.37 136.424 L1089.59 143.708 L1100.82 151.047 L1112.05 158.509 L1123.28 166.099 L1134.51 173.612 L1145.74 180.517 
  L1156.96 185.986 L1168.19 189.082 L1179.42 189.053 L1190.65 185.621 L1201.88 179.12 L1213.1 170.441 L1224.33 160.804 L1235.56 151.474 L1246.79 143.56 L1258.02 137.965 
  L1269.25 135.465 L1280.47 136.837 L1291.7 142.916 L1302.93 154.519 L1314.16 172.257 L1325.39 196.319 L1336.61 226.325 L1347.84 261.316 L1359.07 299.9 L1370.3 340.5 
  L1381.53 381.626 L1392.76 422.121 L1403.98 461.289 L1415.21 498.922 L1426.44 535.179 L1437.67 570.381 L1448.9 604.766 L1460.12 638.296 L1471.35 670.573 L1482.58 700.931 
  L1493.81 728.656 L1505.04 753.264 L1516.27 774.726 L1527.49 793.563 L1538.72 810.764 L1549.95 827.561 L1561.18 845.16 L1572.41 864.484 L1583.63 886.015 L1594.86 909.731 
  L1606.09 935.148 L1617.32 961.412 L1628.55 987.457 L1639.78 1012.19 L1651 1034.68 L1662.23 1054.41 L1673.46 1071.34 L1684.69 1086 L1695.92 1099.35 L1707.14 1112.55 
  L1707.14 1479.3 L1695.92 1479.3 L1684.69 1479.3 L1673.46 1479.3 L1662.23 1479.3 L1651 1479.3 L1639.78 1479.3 L1628.55 1479.3 L1617.32 1479.3 L1606.09 1479.3 
  L1594.86 1479.3 L1583.63 1479.3 L1572.41 1479.3 L1561.18 1479.3 L1549.95 1479.3 L1538.72 1479.3 L1527.49 1479.3 L1516.27 1479.3 L1505.04 1479.3 L1493.81 1479.3 
  L1482.58 1479.3 L1471.35 1479.3 L1460.12 1479.3 L1448.9 1479.3 L1437.67 1479.3 L1426.44 1479.3 L1415.21 1479.3 L1403.98 1479.3 L1392.76 1479.3 L1381.53 1479.3 
  L1370.3 1479.3 L1359.07 1479.3 L1347.84 1479.3 L1336.61 1479.3 L1325.39 1479.3 L1314.16 1479.3 L1302.93 1479.3 L1291.7 1479.3 L1280.47 1479.3 L1269.25 1479.3 
  L1258.02 1479.3 L1246.79 1479.3 L1235.56 1479.3 L1224.33 1479.3 L1213.1 1479.3 L1201.88 1479.3 L1190.65 1479.3 L1179.42 1479.3 L1168.19 1479.3 L1156.96 1479.3 
  L1145.74 1479.3 L1134.51 1479.3 L1123.28 1479.3 L1112.05 1479.3 L1100.82 1479.3 L1089.59 1479.3 L1078.37 1479.3 L1067.14 1479.3 L1055.91 1479.3 L1044.68 1479.3 
  L1033.45 1479.3 L1022.23 1479.3 L1011 1479.3 L999.77 1479.3 L988.541 1479.3 L977.313 1479.3 L966.085 1479.3 L954.857 1479.3 L943.629 1479.3 L932.401 1479.3 
  L921.172 1479.3 L909.944 1479.3 L898.716 1479.3 L887.488 1479.3 L876.26 1479.3 L865.032 1479.3 L853.803 1479.3 L842.575 1479.3 L831.347 1479.3 L820.119 1479.3 
  L808.891 1479.3 L797.663 1479.3 L786.434 1479.3 L775.206 1479.3 L763.978 1479.3 L752.75 1479.3 L741.522 1479.3 L730.294 1479.3 L719.065 1479.3 L707.837 1479.3 
  L696.609 1479.3 L685.381 1479.3 L674.153 1479.3 L662.925 1479.3 L651.696 1479.3 L640.468 1479.3 L629.24 1479.3 L618.012 1479.3 L606.784 1479.3 L595.556 1479.3 
   Z
  " fill="#008000" fill-rule="evenodd" fill-opacity="0.5"/>
<polyline clip-path="url(#clip052)" style="stroke:#008000; stroke-width:4; stroke-opacity:1; fill:none" points="
  595.556,1054.03 606.784,1028.18 618.012,1002.6 629.24,977.179 640.468,951.599 651.696,925.503 662.925,898.614 674.153,870.801 685.381,842.019 696.609,812.19 
  707.837,781.084 719.065,748.269 730.294,713.176 741.522,675.24 752.75,634.077 763.978,589.617 775.206,542.179 786.434,492.46 797.663,441.499 808.891,390.613 
  820.119,341.314 831.347,295.187 842.575,253.701 853.803,217.973 865.032,188.534 876.26,165.21 887.488,147.182 898.716,133.228 909.944,122.079 921.172,112.756 
  932.401,104.764 943.629,98.0891 954.857,93.0226 966.085,89.9137 977.313,88.9544 988.541,90.0793 999.77,92.9964 1011,97.3025 1022.23,102.611 1033.45,108.629 
  1044.68,115.158 1055.91,122.053 1067.14,129.182 1078.37,136.424 1089.59,143.708 1100.82,151.047 1112.05,158.509 1123.28,166.099 1134.51,173.612 1145.74,180.517 
  1156.96,185.986 1168.19,189.082 1179.42,189.053 1190.65,185.621 1201.88,179.12 1213.1,170.441 1224.33,160.804 1235.56,151.474 1246.79,143.56 1258.02,137.965 
  1269.25,135.465 1280.47,136.837 1291.7,142.916 1302.93,154.519 1314.16,172.257 1325.39,196.319 1336.61,226.325 1347.84,261.316 1359.07,299.9 1370.3,340.5 
  1381.53,381.626 1392.76,422.121 1403.98,461.289 1415.21,498.922 1426.44,535.179 1437.67,570.381 1448.9,604.766 1460.12,638.296 1471.35,670.573 1482.58,700.931 
  1493.81,728.656 1505.04,753.264 1516.27,774.726 1527.49,793.563 1538.72,810.764 1549.95,827.561 1561.18,845.16 1572.41,864.484 1583.63,886.015 1594.86,909.731 
  1606.09,935.148 1617.32,961.412 1628.55,987.457 1639.78,1012.19 1651,1034.68 1662.23,1054.41 1673.46,1071.34 1684.69,1086 1695.92,1099.35 1707.14,1112.55 
  
  "/>
<path clip-path="url(#clip052)" d="
M1707.14 1112.55 L1713.02 1119.76 L1718.89 1127.36 L1724.76 1135.42 L1730.64 1144 L1736.51 1153.12 L1742.39 1162.74 L1748.26 1172.83 L1754.13 1183.3 L1760.01 1194.05 
  L1765.88 1204.99 L1771.75 1215.99 L1777.63 1226.96 L1783.5 1237.79 L1789.37 1248.36 L1795.25 1258.6 L1801.12 1268.41 L1807 1277.71 L1812.87 1286.41 L1818.74 1294.44 
  L1824.62 1301.73 L1830.49 1308.23 L1836.36 1313.87 L1842.24 1318.63 L1848.11 1322.49 L1853.98 1325.45 L1859.86 1327.55 L1865.73 1328.85 L1871.6 1329.46 L1877.48 1329.49 
  L1883.35 1329.1 L1889.23 1328.47 L1895.1 1327.79 L1900.97 1327.27 L1906.85 1327.09 L1912.72 1327.44 L1918.59 1328.48 L1924.47 1330.34 L1930.34 1333.09 L1936.21 1336.78 
  L1942.09 1341.39 L1947.96 1346.88 L1953.84 1353.14 L1959.71 1360.04 L1965.58 1367.43 L1971.46 1375.14 L1977.33 1382.98 L1983.2 1390.8 L1989.08 1398.42 L1994.95 1405.73 
  L2000.82 1412.61 L2006.7 1418.98 L2012.57 1424.81 L2018.44 1430.06 L2024.32 1434.73 L2030.19 1438.86 L2036.07 1442.48 L2041.94 1445.63 L2047.81 1448.35 L2053.69 1450.69 
  L2059.56 1452.69 L2065.43 1454.38 L2071.31 1455.79 L2077.18 1456.94 L2083.05 1457.84 L2088.93 1458.49 L2094.8 1458.92 L2100.68 1459.11 L2106.55 1459.1 L2112.42 1458.9 
  L2118.3 1458.53 L2124.17 1458.03 L2130.04 1457.45 L2135.92 1456.83 L2141.79 1456.23 L2147.66 1455.69 L2153.54 1455.28 L2159.41 1455.04 L2165.28 1455 L2171.16 1455.2 
  L2177.03 1455.64 L2182.91 1456.33 L2188.78 1457.25 L2194.65 1458.38 L2200.53 1459.68 L2206.4 1461.12 L2212.27 1462.64 L2218.15 1464.2 L2224.02 1465.75 L2229.89 1467.27 
  L2235.77 1468.7 L2241.64 1470.04 L2247.52 1471.26 L2253.39 1472.35 L2259.26 1473.32 L2265.14 1474.16 L2271.01 1474.88 L2276.88 1475.5 L2282.76 1476.02 L2288.63 1476.47 
  L2288.63 1479.3 L2282.76 1479.3 L2276.88 1479.3 L2271.01 1479.3 L2265.14 1479.3 L2259.26 1479.3 L2253.39 1479.3 L2247.52 1479.3 L2241.64 1479.3 L2235.77 1479.3 
  L2229.89 1479.3 L2224.02 1479.3 L2218.15 1479.3 L2212.27 1479.3 L2206.4 1479.3 L2200.53 1479.3 L2194.65 1479.3 L2188.78 1479.3 L2182.91 1479.3 L2177.03 1479.3 
  L2171.16 1479.3 L2165.28 1479.3 L2159.41 1479.3 L2153.54 1479.3 L2147.66 1479.3 L2141.79 1479.3 L2135.92 1479.3 L2130.04 1479.3 L2124.17 1479.3 L2118.3 1479.3 
  L2112.42 1479.3 L2106.55 1479.3 L2100.68 1479.3 L2094.8 1479.3 L2088.93 1479.3 L2083.05 1479.3 L2077.18 1479.3 L2071.31 1479.3 L2065.43 1479.3 L2059.56 1479.3 
  L2053.69 1479.3 L2047.81 1479.3 L2041.94 1479.3 L2036.07 1479.3 L2030.19 1479.3 L2024.32 1479.3 L2018.44 1479.3 L2012.57 1479.3 L2006.7 1479.3 L2000.82 1479.3 
  L1994.95 1479.3 L1989.08 1479.3 L1983.2 1479.3 L1977.33 1479.3 L1971.46 1479.3 L1965.58 1479.3 L1959.71 1479.3 L1953.84 1479.3 L1947.96 1479.3 L1942.09 1479.3 
  L1936.21 1479.3 L1930.34 1479.3 L1924.47 1479.3 L1918.59 1479.3 L1912.72 1479.3 L1906.85 1479.3 L1900.97 1479.3 L1895.1 1479.3 L1889.23 1479.3 L1883.35 1479.3 
  L1877.48 1479.3 L1871.6 1479.3 L1865.73 1479.3 L1859.86 1479.3 L1853.98 1479.3 L1848.11 1479.3 L1842.24 1479.3 L1836.36 1479.3 L1830.49 1479.3 L1824.62 1479.3 
  L1818.74 1479.3 L1812.87 1479.3 L1807 1479.3 L1801.12 1479.3 L1795.25 1479.3 L1789.37 1479.3 L1783.5 1479.3 L1777.63 1479.3 L1771.75 1479.3 L1765.88 1479.3 
  L1760.01 1479.3 L1754.13 1479.3 L1748.26 1479.3 L1742.39 1479.3 L1736.51 1479.3 L1730.64 1479.3 L1724.76 1479.3 L1718.89 1479.3 L1713.02 1479.3 L1707.14 1479.3 
   Z
  " fill="#ffa500" fill-rule="evenodd" fill-opacity="0.5"/>
<polyline clip-path="url(#clip052)" style="stroke:#ffa500; stroke-width:4; stroke-opacity:1; fill:none" points="
  1707.14,1112.55 1713.02,1119.76 1718.89,1127.36 1724.76,1135.42 1730.64,1144 1736.51,1153.12 1742.39,1162.74 1748.26,1172.83 1754.13,1183.3 1760.01,1194.05 
  1765.88,1204.99 1771.75,1215.99 1777.63,1226.96 1783.5,1237.79 1789.37,1248.36 1795.25,1258.6 1801.12,1268.41 1807,1277.71 1812.87,1286.41 1818.74,1294.44 
  1824.62,1301.73 1830.49,1308.23 1836.36,1313.87 1842.24,1318.63 1848.11,1322.49 1853.98,1325.45 1859.86,1327.55 1865.73,1328.85 1871.6,1329.46 1877.48,1329.49 
  1883.35,1329.1 1889.23,1328.47 1895.1,1327.79 1900.97,1327.27 1906.85,1327.09 1912.72,1327.44 1918.59,1328.48 1924.47,1330.34 1930.34,1333.09 1936.21,1336.78 
  1942.09,1341.39 1947.96,1346.88 1953.84,1353.14 1959.71,1360.04 1965.58,1367.43 1971.46,1375.14 1977.33,1382.98 1983.2,1390.8 1989.08,1398.42 1994.95,1405.73 
  2000.82,1412.61 2006.7,1418.98 2012.57,1424.81 2018.44,1430.06 2024.32,1434.73 2030.19,1438.86 2036.07,1442.48 2041.94,1445.63 2047.81,1448.35 2053.69,1450.69 
  2059.56,1452.69 2065.43,1454.38 2071.31,1455.79 2077.18,1456.94 2083.05,1457.84 2088.93,1458.49 2094.8,1458.92 2100.68,1459.11 2106.55,1459.1 2112.42,1458.9 
  2118.3,1458.53 2124.17,1458.03 2130.04,1457.45 2135.92,1456.83 2141.79,1456.23 2147.66,1455.69 2153.54,1455.28 2159.41,1455.04 2165.28,1455 2171.16,1455.2 
  2177.03,1455.64 2182.91,1456.33 2188.78,1457.25 2194.65,1458.38 2200.53,1459.68 2206.4,1461.12 2212.27,1462.64 2218.15,1464.2 2224.02,1465.75 2229.89,1467.27 
  2235.77,1468.7 2241.64,1470.04 2247.52,1471.26 2253.39,1472.35 2259.26,1473.32 2265.14,1474.16 2271.01,1474.88 2276.88,1475.5 2282.76,1476.02 2288.63,1476.47 
  
  "/>
<polyline clip-path="url(#clip052)" style="stroke:#0000ff; stroke-width:4; stroke-opacity:1; fill:none" points="
  1127.01,1479.3 1127.01,168.624 
  "/>
<polyline clip-path="url(#clip052)" style="stroke:#000000; stroke-width:4; stroke-opacity:1; fill:none" points="
  1116.49,1479.3 1116.49,161.502 
  "/>
<path clip-path="url(#clip050)" d="
M1494.58 459.25 L2277.23 459.25 L2277.23 96.3696 L1494.58 96.3696  Z
  " fill="#ffffff" fill-rule="evenodd" fill-opacity="1"/>
<polyline clip-path="url(#clip050)" style="stroke:#000000; stroke-width:4; stroke-opacity:1; fill:none" points="
  1494.58,459.25 2277.23,459.25 2277.23,96.3696 1494.58,96.3696 1494.58,459.25 
  "/>
<path clip-path="url(#clip050)" d="
M1519.75 181.042 L1670.81 181.042 L1670.81 132.658 L1519.75 132.658 L1519.75 181.042  Z
  " fill="#ffa500" fill-rule="evenodd" fill-opacity="0.5"/>
<polyline clip-path="url(#clip050)" style="stroke:#ffa500; stroke-width:4; stroke-opacity:1; fill:none" points="
  1519.75,132.658 1670.81,132.658 
  "/>
<path clip-path="url(#clip050)" d="M 0 0 M1700.38 161.19 Q1700.38 165.889 1702.3 168.574 Q1704.24 171.236 1707.62 171.236 Q1711 171.236 1712.95 168.574 Q1714.89 165.889 1714.89 161.19 Q1714.89 156.491 1712.95 153.829 Q1711 151.144 1707.62 151.144 Q1704.24 151.144 1702.3 153.829 Q1700.38 156.491 1700.38 161.19 M1714.89 170.241 Q1713.55 172.555 1711.49 173.69 Q1709.45 174.801 1706.58 174.801 Q1701.88 174.801 1698.92 171.051 Q1695.98 167.301 1695.98 161.19 Q1695.98 155.079 1698.92 151.329 Q1701.88 147.579 1706.58 147.579 Q1709.45 147.579 1711.49 148.713 Q1713.55 149.824 1714.89 152.139 L1714.89 148.204 L1719.15 148.204 L1719.15 183.991 L1714.89 183.991 L1714.89 170.241 Z" fill="#000000" fill-rule="evenodd" fill-opacity="1" /><path clip-path="url(#clip050)" d="M 0 0 M1734.22 142.648 Q1730.61 142.648 1728.78 146.213 Q1726.98 149.755 1726.98 156.884 Q1726.98 163.991 1728.78 167.556 Q1730.61 171.097 1734.22 171.097 Q1737.85 171.097 1739.66 167.556 Q1741.49 163.991 1741.49 156.884 Q1741.49 149.755 1739.66 146.213 Q1737.85 142.648 1734.22 142.648 M1734.22 138.945 Q1740.03 138.945 1743.09 143.551 Q1746.17 148.134 1746.17 156.884 Q1746.17 165.611 1743.09 170.218 Q1740.03 174.801 1734.22 174.801 Q1728.41 174.801 1725.33 170.218 Q1722.28 165.611 1722.28 156.884 Q1722.28 148.134 1725.33 143.551 Q1728.41 138.945 1734.22 138.945 Z" fill="#000000" fill-rule="evenodd" fill-opacity="1" /><path clip-path="url(#clip050)" d="M 0 0 M1751.28 139.57 L1769.64 139.57 L1769.64 143.505 L1755.56 143.505 L1755.56 151.977 Q1756.58 151.63 1757.6 151.468 Q1758.62 151.282 1759.64 151.282 Q1765.42 151.282 1768.8 154.454 Q1772.18 157.625 1772.18 163.042 Q1772.18 168.62 1768.71 171.722 Q1765.24 174.801 1758.92 174.801 Q1756.74 174.801 1754.48 174.43 Q1752.23 174.06 1749.82 173.319 L1749.82 168.62 Q1751.91 169.755 1754.13 170.31 Q1756.35 170.866 1758.83 170.866 Q1762.83 170.866 1765.17 168.759 Q1767.51 166.653 1767.51 163.042 Q1767.51 159.431 1765.17 157.324 Q1762.83 155.218 1758.83 155.218 Q1756.95 155.218 1755.08 155.634 Q1753.23 156.051 1751.28 156.931 L1751.28 139.57 Z" fill="#000000" fill-rule="evenodd" fill-opacity="1" /><path clip-path="url(#clip050)" d="
M1519.75 241.522 L1670.81 241.522 L1670.81 193.138 L1519.75 193.138 L1519.75 241.522  Z
  " fill="#008000" fill-rule="evenodd" fill-opacity="0.5"/>
<polyline clip-path="url(#clip050)" style="stroke:#008000; stroke-width:4; stroke-opacity:1; fill:none" points="
  1519.75,193.138 1670.81,193.138 
  "/>
<path clip-path="url(#clip050)" d="M 0 0 M1698.2 233.892 L1698.2 229.633 Q1699.96 230.466 1701.77 230.906 Q1703.57 231.346 1705.31 231.346 Q1709.94 231.346 1712.37 228.244 Q1714.82 225.119 1715.17 218.776 Q1713.83 220.767 1711.77 221.832 Q1709.71 222.897 1707.21 222.897 Q1702.02 222.897 1698.99 219.772 Q1695.98 216.624 1695.98 211.184 Q1695.98 205.86 1699.13 202.642 Q1702.28 199.425 1707.51 199.425 Q1713.5 199.425 1716.65 204.031 Q1719.82 208.614 1719.82 217.364 Q1719.82 225.536 1715.93 230.42 Q1712.07 235.281 1705.52 235.281 Q1703.76 235.281 1701.95 234.934 Q1700.15 234.586 1698.2 233.892 M1707.51 219.239 Q1710.66 219.239 1712.48 217.086 Q1714.34 214.934 1714.34 211.184 Q1714.34 207.457 1712.48 205.304 Q1710.66 203.128 1707.51 203.128 Q1704.36 203.128 1702.51 205.304 Q1700.68 207.457 1700.68 211.184 Q1700.68 214.934 1702.51 217.086 Q1704.36 219.239 1707.51 219.239 Z" fill="#000000" fill-rule="evenodd" fill-opacity="1" /><path clip-path="url(#clip050)" d="M 0 0 M1734.89 203.128 Q1731.28 203.128 1729.45 206.693 Q1727.65 210.235 1727.65 217.364 Q1727.65 224.471 1729.45 228.036 Q1731.28 231.577 1734.89 231.577 Q1738.53 231.577 1740.33 228.036 Q1742.16 224.471 1742.16 217.364 Q1742.16 210.235 1740.33 206.693 Q1738.53 203.128 1734.89 203.128 M1734.89 199.425 Q1740.7 199.425 1743.76 204.031 Q1746.84 208.614 1746.84 217.364 Q1746.84 226.091 1743.76 230.698 Q1740.7 235.281 1734.89 235.281 Q1729.08 235.281 1726 230.698 Q1722.95 226.091 1722.95 217.364 Q1722.95 208.614 1726 204.031 Q1729.08 199.425 1734.89 199.425 Z" fill="#000000" fill-rule="evenodd" fill-opacity="1" /><path clip-path="url(#clip050)" d="M 0 0 M1781.3 219.401 Q1779.29 219.401 1778.13 221.114 Q1777 222.827 1777 225.883 Q1777 228.892 1778.13 230.628 Q1779.29 232.341 1781.3 232.341 Q1783.27 232.341 1784.41 230.628 Q1785.56 228.892 1785.56 225.883 Q1785.56 222.85 1784.41 221.137 Q1783.27 219.401 1781.3 219.401 M1781.3 216.462 Q1784.96 216.462 1787.11 219.008 Q1789.27 221.554 1789.27 225.883 Q1789.27 230.211 1787.09 232.758 Q1784.94 235.281 1781.3 235.281 Q1777.6 235.281 1775.45 232.758 Q1773.29 230.211 1773.29 225.883 Q1773.29 221.531 1775.45 219.008 Q1777.62 216.462 1781.3 216.462 M1757.42 202.364 Q1755.42 202.364 1754.27 204.1 Q1753.13 205.813 1753.13 208.823 Q1753.13 211.878 1754.27 213.591 Q1755.4 215.304 1757.42 215.304 Q1759.43 215.304 1760.56 213.591 Q1761.72 211.878 1761.72 208.823 Q1761.72 205.837 1760.56 204.1 Q1759.41 202.364 1757.42 202.364 M1778.32 199.425 L1782.02 199.425 L1760.4 235.281 L1756.7 235.281 L1778.32 199.425 M1757.42 199.425 Q1761.07 199.425 1763.25 201.971 Q1765.42 204.494 1765.42 208.823 Q1765.42 213.198 1763.25 215.721 Q1761.1 218.244 1757.42 218.244 Q1753.73 218.244 1751.58 215.721 Q1749.45 213.174 1749.45 208.823 Q1749.45 204.517 1751.6 201.971 Q1753.76 199.425 1757.42 199.425 Z" fill="#000000" fill-rule="evenodd" fill-opacity="1" /><path clip-path="url(#clip050)" d="M 0 0 M1830.35 218.961 L1830.35 234.61 L1826.1 234.61 L1826.1 219.1 Q1826.1 215.42 1824.66 213.591 Q1823.22 211.762 1820.35 211.762 Q1816.91 211.762 1814.91 213.962 Q1812.92 216.161 1812.92 219.957 L1812.92 234.61 L1808.64 234.61 L1808.64 208.684 L1812.92 208.684 L1812.92 212.712 Q1814.45 210.374 1816.51 209.216 Q1818.6 208.059 1821.3 208.059 Q1825.77 208.059 1828.06 210.837 Q1830.35 213.591 1830.35 218.961 Z" fill="#000000" fill-rule="evenodd" fill-opacity="1" /><path clip-path="url(#clip050)" d="M 0 0 M1844.87 211.67 Q1841.44 211.67 1839.45 214.355 Q1837.46 217.017 1837.46 221.67 Q1837.46 226.323 1839.43 229.008 Q1841.42 231.67 1844.87 231.67 Q1848.27 231.67 1850.26 228.985 Q1852.25 226.299 1852.25 221.67 Q1852.25 217.063 1850.26 214.378 Q1848.27 211.67 1844.87 211.67 M1844.87 208.059 Q1850.42 208.059 1853.6 211.67 Q1856.77 215.281 1856.77 221.67 Q1856.77 228.036 1853.6 231.67 Q1850.42 235.281 1844.87 235.281 Q1839.29 235.281 1836.12 231.67 Q1832.97 228.036 1832.97 221.67 Q1832.97 215.281 1836.12 211.67 Q1839.29 208.059 1844.87 208.059 Z" fill="#000000" fill-rule="evenodd" fill-opacity="1" /><path clip-path="url(#clip050)" d="M 0 0 M1882.78 218.961 L1882.78 234.61 L1878.53 234.61 L1878.53 219.1 Q1878.53 215.42 1877.09 213.591 Q1875.66 211.762 1872.78 211.762 Q1869.34 211.762 1867.35 213.962 Q1865.35 216.161 1865.35 219.957 L1865.35 234.61 L1861.07 234.61 L1861.07 208.684 L1865.35 208.684 L1865.35 212.712 Q1866.88 210.374 1868.94 209.216 Q1871.03 208.059 1873.73 208.059 Q1878.2 208.059 1880.49 210.837 Q1882.78 213.591 1882.78 218.961 Z" fill="#000000" fill-rule="evenodd" fill-opacity="1" /><path clip-path="url(#clip050)" d="M 0 0 M1885.1 219.725 L1897.58 219.725 L1897.58 223.522 L1885.1 223.522 L1885.1 219.725 Z" fill="#000000" fill-rule="evenodd" fill-opacity="1" /><path clip-path="url(#clip050)" d="M 0 0 M1917.07 212.665 Q1916.35 212.249 1915.49 212.063 Q1914.66 211.855 1913.64 211.855 Q1910.03 211.855 1908.09 214.216 Q1906.16 216.554 1906.16 220.952 L1906.16 234.61 L1901.88 234.61 L1901.88 208.684 L1906.16 208.684 L1906.16 212.712 Q1907.51 210.35 1909.66 209.216 Q1911.81 208.059 1914.89 208.059 Q1915.33 208.059 1915.86 208.128 Q1916.4 208.175 1917.04 208.29 L1917.07 212.665 Z" fill="#000000" fill-rule="evenodd" fill-opacity="1" /><path clip-path="url(#clip050)" d="M 0 0 M1942.67 220.582 L1942.67 222.665 L1923.09 222.665 Q1923.36 227.063 1925.72 229.378 Q1928.11 231.67 1932.34 231.67 Q1934.8 231.67 1937.09 231.068 Q1939.4 230.466 1941.67 229.262 L1941.67 233.29 Q1939.38 234.262 1936.97 234.772 Q1934.57 235.281 1932.09 235.281 Q1925.89 235.281 1922.25 231.67 Q1918.64 228.059 1918.64 221.901 Q1918.64 215.536 1922.07 211.809 Q1925.52 208.059 1931.35 208.059 Q1936.58 208.059 1939.61 211.438 Q1942.67 214.795 1942.67 220.582 M1938.41 219.332 Q1938.36 215.837 1936.44 213.753 Q1934.54 211.67 1931.4 211.67 Q1927.83 211.67 1925.68 213.684 Q1923.55 215.698 1923.22 219.355 L1938.41 219.332 Z" fill="#000000" fill-rule="evenodd" fill-opacity="1" /><path clip-path="url(#clip050)" d="M 0 0 M1947.14 208.684 L1951.4 208.684 L1951.4 235.073 Q1951.4 240.026 1949.5 242.248 Q1947.62 244.471 1943.43 244.471 L1941.81 244.471 L1941.81 240.86 L1942.95 240.86 Q1945.38 240.86 1946.26 239.725 Q1947.14 238.614 1947.14 235.073 L1947.14 208.684 M1947.14 198.591 L1951.4 198.591 L1951.4 203.985 L1947.14 203.985 L1947.14 198.591 Z" fill="#000000" fill-rule="evenodd" fill-opacity="1" /><path clip-path="url(#clip050)" d="M 0 0 M1978.04 220.582 L1978.04 222.665 L1958.46 222.665 Q1958.73 227.063 1961.09 229.378 Q1963.48 231.67 1967.71 231.67 Q1970.17 231.67 1972.46 231.068 Q1974.78 230.466 1977.04 229.262 L1977.04 233.29 Q1974.75 234.262 1972.34 234.772 Q1969.94 235.281 1967.46 235.281 Q1961.26 235.281 1957.62 231.67 Q1954.01 228.059 1954.01 221.901 Q1954.01 215.536 1957.44 211.809 Q1960.89 208.059 1966.72 208.059 Q1971.95 208.059 1974.98 211.438 Q1978.04 214.795 1978.04 220.582 M1973.78 219.332 Q1973.73 215.837 1971.81 213.753 Q1969.91 211.67 1966.77 211.67 Q1963.2 211.67 1961.05 213.684 Q1958.92 215.698 1958.59 219.355 L1973.78 219.332 Z" fill="#000000" fill-rule="evenodd" fill-opacity="1" /><path clip-path="url(#clip050)" d="M 0 0 M2001.16 209.679 L2001.16 213.661 Q1999.36 212.665 1997.53 212.179 Q1995.72 211.67 1993.87 211.67 Q1989.73 211.67 1987.44 214.309 Q1985.15 216.924 1985.15 221.67 Q1985.15 226.415 1987.44 229.054 Q1989.73 231.67 1993.87 231.67 Q1995.72 231.67 1997.53 231.184 Q1999.36 230.674 2001.16 229.679 L2001.16 233.614 Q1999.38 234.448 1997.46 234.864 Q1995.56 235.281 1993.41 235.281 Q1987.55 235.281 1984.1 231.6 Q1980.65 227.92 1980.65 221.67 Q1980.65 215.327 1984.13 211.693 Q1987.62 208.059 1993.69 208.059 Q1995.65 208.059 1997.53 208.475 Q1999.4 208.869 2001.16 209.679 Z" fill="#000000" fill-rule="evenodd" fill-opacity="1" /><path clip-path="url(#clip050)" d="M 0 0 M2009.84 201.323 L2009.84 208.684 L2018.62 208.684 L2018.62 211.994 L2009.84 211.994 L2009.84 226.068 Q2009.84 229.239 2010.7 230.142 Q2011.58 231.045 2014.24 231.045 L2018.62 231.045 L2018.62 234.61 L2014.24 234.61 Q2009.31 234.61 2007.44 232.781 Q2005.56 230.929 2005.56 226.068 L2005.56 211.994 L2002.44 211.994 L2002.44 208.684 L2005.56 208.684 L2005.56 201.323 L2009.84 201.323 Z" fill="#000000" fill-rule="evenodd" fill-opacity="1" /><path clip-path="url(#clip050)" d="M 0 0 M2023.08 208.684 L2027.34 208.684 L2027.34 234.61 L2023.08 234.61 L2023.08 208.684 M2023.08 198.591 L2027.34 198.591 L2027.34 203.985 L2023.08 203.985 L2023.08 198.591 Z" fill="#000000" fill-rule="evenodd" fill-opacity="1" /><path clip-path="url(#clip050)" d="M 0 0 M2041.86 211.67 Q2038.43 211.67 2036.44 214.355 Q2034.45 217.017 2034.45 221.67 Q2034.45 226.323 2036.42 229.008 Q2038.41 231.67 2041.86 231.67 Q2045.26 231.67 2047.25 228.985 Q2049.24 226.299 2049.24 221.67 Q2049.24 217.063 2047.25 214.378 Q2045.26 211.67 2041.86 211.67 M2041.86 208.059 Q2047.41 208.059 2050.58 211.67 Q2053.76 215.281 2053.76 221.67 Q2053.76 228.036 2050.58 231.67 Q2047.41 235.281 2041.86 235.281 Q2036.28 235.281 2033.11 231.67 Q2029.96 228.036 2029.96 221.67 Q2029.96 215.281 2033.11 211.67 Q2036.28 208.059 2041.86 208.059 Z" fill="#000000" fill-rule="evenodd" fill-opacity="1" /><path clip-path="url(#clip050)" d="M 0 0 M2079.77 218.961 L2079.77 234.61 L2075.52 234.61 L2075.52 219.1 Q2075.52 215.42 2074.08 213.591 Q2072.64 211.762 2069.77 211.762 Q2066.33 211.762 2064.33 213.962 Q2062.34 216.161 2062.34 219.957 L2062.34 234.61 L2058.06 234.61 L2058.06 208.684 L2062.34 208.684 L2062.34 212.712 Q2063.87 210.374 2065.93 209.216 Q2068.02 208.059 2070.72 208.059 Q2075.19 208.059 2077.48 210.837 Q2079.77 213.591 2079.77 218.961 Z" fill="#000000" fill-rule="evenodd" fill-opacity="1" /><path clip-path="url(#clip050)" d="M 0 0 M2114.33 212.665 Q2113.62 212.249 2112.76 212.063 Q2111.93 211.855 2110.91 211.855 Q2107.3 211.855 2105.35 214.216 Q2103.43 216.554 2103.43 220.952 L2103.43 234.61 L2099.15 234.61 L2099.15 208.684 L2103.43 208.684 L2103.43 212.712 Q2104.77 210.35 2106.93 209.216 Q2109.08 208.059 2112.16 208.059 Q2112.6 208.059 2113.13 208.128 Q2113.66 208.175 2114.31 208.29 L2114.33 212.665 Z" fill="#000000" fill-rule="evenodd" fill-opacity="1" /><path clip-path="url(#clip050)" d="M 0 0 M2139.94 220.582 L2139.94 222.665 L2120.35 222.665 Q2120.63 227.063 2122.99 229.378 Q2125.38 231.67 2129.61 231.67 Q2132.07 231.67 2134.36 231.068 Q2136.67 230.466 2138.94 229.262 L2138.94 233.29 Q2136.65 234.262 2134.24 234.772 Q2131.83 235.281 2129.36 235.281 Q2123.15 235.281 2119.52 231.67 Q2115.91 228.059 2115.91 221.901 Q2115.91 215.536 2119.33 211.809 Q2122.78 208.059 2128.62 208.059 Q2133.85 208.059 2136.88 211.438 Q2139.94 214.795 2139.94 220.582 M2135.68 219.332 Q2135.63 215.837 2133.71 213.753 Q2131.81 211.67 2128.66 211.67 Q2125.1 211.67 2122.95 213.684 Q2120.82 215.698 2120.49 219.355 L2135.68 219.332 Z" fill="#000000" fill-rule="evenodd" fill-opacity="1" /><path clip-path="url(#clip050)" d="M 0 0 M2161.46 221.346 Q2161.46 216.716 2159.54 214.17 Q2157.64 211.624 2154.2 211.624 Q2150.77 211.624 2148.85 214.17 Q2146.95 216.716 2146.95 221.346 Q2146.95 225.952 2148.85 228.498 Q2150.77 231.045 2154.2 231.045 Q2157.64 231.045 2159.54 228.498 Q2161.46 225.952 2161.46 221.346 M2165.72 231.392 Q2165.72 238.012 2162.78 241.23 Q2159.84 244.471 2153.78 244.471 Q2151.53 244.471 2149.54 244.123 Q2147.55 243.799 2145.68 243.105 L2145.68 238.961 Q2147.55 239.98 2149.38 240.466 Q2151.21 240.952 2153.11 240.952 Q2157.3 240.952 2159.38 238.753 Q2161.46 236.577 2161.46 232.156 L2161.46 230.049 Q2160.14 232.341 2158.08 233.475 Q2156.02 234.61 2153.15 234.61 Q2148.39 234.61 2145.47 230.975 Q2142.55 227.341 2142.55 221.346 Q2142.55 215.327 2145.47 211.693 Q2148.39 208.059 2153.15 208.059 Q2156.02 208.059 2158.08 209.193 Q2160.14 210.327 2161.46 212.619 L2161.46 208.684 L2165.72 208.684 L2165.72 231.392 Z" fill="#000000" fill-rule="evenodd" fill-opacity="1" /><path clip-path="url(#clip050)" d="M 0 0 M2170.19 208.684 L2174.45 208.684 L2174.45 234.61 L2170.19 234.61 L2170.19 208.684 M2170.19 198.591 L2174.45 198.591 L2174.45 203.985 L2170.19 203.985 L2170.19 198.591 Z" fill="#000000" fill-rule="evenodd" fill-opacity="1" /><path clip-path="url(#clip050)" d="M 0 0 M2188.96 211.67 Q2185.54 211.67 2183.55 214.355 Q2181.56 217.017 2181.56 221.67 Q2181.56 226.323 2183.52 229.008 Q2185.51 231.67 2188.96 231.67 Q2192.37 231.67 2194.36 228.985 Q2196.35 226.299 2196.35 221.67 Q2196.35 217.063 2194.36 214.378 Q2192.37 211.67 2188.96 211.67 M2188.96 208.059 Q2194.52 208.059 2197.69 211.67 Q2200.86 215.281 2200.86 221.67 Q2200.86 228.036 2197.69 231.67 Q2194.52 235.281 2188.96 235.281 Q2183.39 235.281 2180.21 231.67 Q2177.07 228.036 2177.07 221.67 Q2177.07 215.281 2180.21 211.67 Q2183.39 208.059 2188.96 208.059 Z" fill="#000000" fill-rule="evenodd" fill-opacity="1" /><path clip-path="url(#clip050)" d="M 0 0 M2226.88 218.961 L2226.88 234.61 L2222.62 234.61 L2222.62 219.1 Q2222.62 215.42 2221.19 213.591 Q2219.75 211.762 2216.88 211.762 Q2213.43 211.762 2211.44 213.962 Q2209.45 216.161 2209.45 219.957 L2209.45 234.61 L2205.17 234.61 L2205.17 208.684 L2209.45 208.684 L2209.45 212.712 Q2210.98 210.374 2213.04 209.216 Q2215.12 208.059 2217.83 208.059 Q2222.3 208.059 2224.59 210.837 Q2226.88 213.591 2226.88 218.961 Z" fill="#000000" fill-rule="evenodd" fill-opacity="1" /><path clip-path="url(#clip050)" d="
M1519.75 302.002 L1670.81 302.002 L1670.81 253.618 L1519.75 253.618 L1519.75 302.002  Z
  " fill="#ffa500" fill-rule="evenodd" fill-opacity="0.5"/>
<polyline clip-path="url(#clip050)" style="stroke:#ffa500; stroke-width:4; stroke-opacity:1; fill:none" points="
  1519.75,253.618 1670.81,253.618 
  "/>
<path clip-path="url(#clip050)" d="M 0 0 M1700.38 282.15 Q1700.38 286.849 1702.3 289.534 Q1704.24 292.196 1707.62 292.196 Q1711 292.196 1712.95 289.534 Q1714.89 286.849 1714.89 282.15 Q1714.89 277.451 1712.95 274.789 Q1711 272.104 1707.62 272.104 Q1704.24 272.104 1702.3 274.789 Q1700.38 277.451 1700.38 282.15 M1714.89 291.201 Q1713.55 293.515 1711.49 294.65 Q1709.45 295.761 1706.58 295.761 Q1701.88 295.761 1698.92 292.011 Q1695.98 288.261 1695.98 282.15 Q1695.98 276.039 1698.92 272.289 Q1701.88 268.539 1706.58 268.539 Q1709.45 268.539 1711.49 269.673 Q1713.55 270.784 1714.89 273.099 L1714.89 269.164 L1719.15 269.164 L1719.15 304.951 L1714.89 304.951 L1714.89 291.201 Z" fill="#000000" fill-rule="evenodd" fill-opacity="1" /><path clip-path="url(#clip050)" d="M 0 0 M1724.36 294.372 L1724.36 290.113 Q1726.12 290.946 1727.92 291.386 Q1729.73 291.826 1731.47 291.826 Q1736.1 291.826 1738.53 288.724 Q1740.98 285.599 1741.33 279.256 Q1739.98 281.247 1737.92 282.312 Q1735.86 283.377 1733.36 283.377 Q1728.18 283.377 1725.15 280.252 Q1722.14 277.104 1722.14 271.664 Q1722.14 266.34 1725.29 263.122 Q1728.43 259.905 1733.67 259.905 Q1739.66 259.905 1742.81 264.511 Q1745.98 269.094 1745.98 277.844 Q1745.98 286.016 1742.09 290.9 Q1738.23 295.761 1731.67 295.761 Q1729.92 295.761 1728.11 295.414 Q1726.3 295.066 1724.36 294.372 M1733.67 279.719 Q1736.81 279.719 1738.64 277.566 Q1740.49 275.414 1740.49 271.664 Q1740.49 267.937 1738.64 265.784 Q1736.81 263.608 1733.67 263.608 Q1730.52 263.608 1728.67 265.784 Q1726.84 267.937 1726.84 271.664 Q1726.84 275.414 1728.67 277.566 Q1730.52 279.719 1733.67 279.719 Z" fill="#000000" fill-rule="evenodd" fill-opacity="1" /><path clip-path="url(#clip050)" d="M 0 0 M1751.1 260.53 L1769.45 260.53 L1769.45 264.465 L1755.38 264.465 L1755.38 272.937 Q1756.4 272.59 1757.42 272.428 Q1758.43 272.242 1759.45 272.242 Q1765.24 272.242 1768.62 275.414 Q1772 278.585 1772 284.002 Q1772 289.58 1768.53 292.682 Q1765.05 295.761 1758.73 295.761 Q1756.56 295.761 1754.29 295.39 Q1752.04 295.02 1749.64 294.279 L1749.64 289.58 Q1751.72 290.715 1753.94 291.27 Q1756.17 291.826 1758.64 291.826 Q1762.65 291.826 1764.98 289.719 Q1767.32 287.613 1767.32 284.002 Q1767.32 280.391 1764.98 278.284 Q1762.65 276.178 1758.64 276.178 Q1756.77 276.178 1754.89 276.594 Q1753.04 277.011 1751.1 277.891 L1751.1 260.53 Z" fill="#000000" fill-rule="evenodd" fill-opacity="1" /><polyline clip-path="url(#clip050)" style="stroke:#0000ff; stroke-width:4; stroke-opacity:1; fill:none" points="
  1519.75,338.29 1670.81,338.29 
  "/>
<path clip-path="url(#clip050)" d="M 0 0 M1716.33 334.621 Q1717.92 331.75 1720.15 330.385 Q1722.37 329.019 1725.38 329.019 Q1729.43 329.019 1731.63 331.866 Q1733.83 334.69 1733.83 339.921 L1733.83 355.57 L1729.54 355.57 L1729.54 340.06 Q1729.54 336.334 1728.23 334.528 Q1726.91 332.722 1724.2 332.722 Q1720.89 332.722 1718.97 334.922 Q1717.04 337.121 1717.04 340.917 L1717.04 355.57 L1712.76 355.57 L1712.76 340.06 Q1712.76 336.31 1711.44 334.528 Q1710.12 332.722 1707.37 332.722 Q1704.11 332.722 1702.18 334.945 Q1700.26 337.144 1700.26 340.917 L1700.26 355.57 L1695.98 355.57 L1695.98 329.644 L1700.26 329.644 L1700.26 333.672 Q1701.72 331.287 1703.76 330.153 Q1705.79 329.019 1708.6 329.019 Q1711.42 329.019 1713.39 330.454 Q1715.38 331.889 1716.33 334.621 Z" fill="#000000" fill-rule="evenodd" fill-opacity="1" /><path clip-path="url(#clip050)" d="M 0 0 M1760.47 341.542 L1760.47 343.625 L1740.89 343.625 Q1741.17 348.023 1743.53 350.338 Q1745.91 352.63 1750.15 352.63 Q1752.6 352.63 1754.89 352.028 Q1757.21 351.426 1759.48 350.222 L1759.48 354.25 Q1757.18 355.222 1754.78 355.732 Q1752.37 356.241 1749.89 356.241 Q1743.69 356.241 1740.05 352.63 Q1736.44 349.019 1736.44 342.861 Q1736.44 336.496 1739.87 332.769 Q1743.32 329.019 1749.15 329.019 Q1754.38 329.019 1757.42 332.398 Q1760.47 335.755 1760.47 341.542 M1756.21 340.292 Q1756.17 336.797 1754.24 334.713 Q1752.35 332.63 1749.2 332.63 Q1745.63 332.63 1743.48 334.644 Q1741.35 336.658 1741.03 340.315 L1756.21 340.292 Z" fill="#000000" fill-rule="evenodd" fill-opacity="1" /><path clip-path="url(#clip050)" d="M 0 0 M1776.72 342.537 Q1771.56 342.537 1769.57 343.718 Q1767.58 344.898 1767.58 347.746 Q1767.58 350.014 1769.06 351.357 Q1770.56 352.676 1773.13 352.676 Q1776.67 352.676 1778.8 350.176 Q1780.96 347.653 1780.96 343.486 L1780.96 342.537 L1776.72 342.537 M1785.22 340.778 L1785.22 355.57 L1780.96 355.57 L1780.96 351.634 Q1779.5 353.995 1777.32 355.13 Q1775.15 356.241 1772 356.241 Q1768.02 356.241 1765.66 354.019 Q1763.32 351.773 1763.32 348.023 Q1763.32 343.648 1766.23 341.426 Q1769.17 339.204 1774.98 339.204 L1780.96 339.204 L1780.96 338.787 Q1780.96 335.847 1779.01 334.25 Q1777.09 332.63 1773.6 332.63 Q1771.37 332.63 1769.27 333.162 Q1767.16 333.695 1765.22 334.759 L1765.22 330.824 Q1767.55 329.922 1769.75 329.482 Q1771.95 329.019 1774.04 329.019 Q1779.66 329.019 1782.44 331.935 Q1785.22 334.852 1785.22 340.778 Z" fill="#000000" fill-rule="evenodd" fill-opacity="1" /><path clip-path="url(#clip050)" d="M 0 0 M1811.23 339.921 L1811.23 355.57 L1806.97 355.57 L1806.97 340.06 Q1806.97 336.38 1805.54 334.551 Q1804.1 332.722 1801.23 332.722 Q1797.79 332.722 1795.79 334.922 Q1793.8 337.121 1793.8 340.917 L1793.8 355.57 L1789.52 355.57 L1789.52 329.644 L1793.8 329.644 L1793.8 333.672 Q1795.33 331.334 1797.39 330.176 Q1799.48 329.019 1802.18 329.019 Q1806.65 329.019 1808.94 331.797 Q1811.23 334.551 1811.23 339.921 Z" fill="#000000" fill-rule="evenodd" fill-opacity="1" /><polyline clip-path="url(#clip050)" style="stroke:#000000; stroke-width:4; stroke-opacity:1; fill:none" points="
  1519.75,398.77 1670.81,398.77 
  "/>
<path clip-path="url(#clip050)" d="M 0 0 M1716.33 395.101 Q1717.92 392.23 1720.15 390.865 Q1722.37 389.499 1725.38 389.499 Q1729.43 389.499 1731.63 392.346 Q1733.83 395.17 1733.83 400.401 L1733.83 416.05 L1729.54 416.05 L1729.54 400.54 Q1729.54 396.814 1728.23 395.008 Q1726.91 393.202 1724.2 393.202 Q1720.89 393.202 1718.97 395.402 Q1717.04 397.601 1717.04 401.397 L1717.04 416.05 L1712.76 416.05 L1712.76 400.54 Q1712.76 396.79 1711.44 395.008 Q1710.12 393.202 1707.37 393.202 Q1704.11 393.202 1702.18 395.425 Q1700.26 397.624 1700.26 401.397 L1700.26 416.05 L1695.98 416.05 L1695.98 390.124 L1700.26 390.124 L1700.26 394.152 Q1701.72 391.767 1703.76 390.633 Q1705.79 389.499 1708.6 389.499 Q1711.42 389.499 1713.39 390.934 Q1715.38 392.369 1716.33 395.101 Z" fill="#000000" fill-rule="evenodd" fill-opacity="1" /><path clip-path="url(#clip050)" d="M 0 0 M1760.47 402.022 L1760.47 404.105 L1740.89 404.105 Q1741.17 408.503 1743.53 410.818 Q1745.91 413.11 1750.15 413.11 Q1752.6 413.11 1754.89 412.508 Q1757.21 411.906 1759.48 410.702 L1759.48 414.73 Q1757.18 415.702 1754.78 416.212 Q1752.37 416.721 1749.89 416.721 Q1743.69 416.721 1740.05 413.11 Q1736.44 409.499 1736.44 403.341 Q1736.44 396.976 1739.87 393.249 Q1743.32 389.499 1749.15 389.499 Q1754.38 389.499 1757.42 392.878 Q1760.47 396.235 1760.47 402.022 M1756.21 400.772 Q1756.17 397.277 1754.24 395.193 Q1752.35 393.11 1749.2 393.11 Q1745.63 393.11 1743.48 395.124 Q1741.35 397.138 1741.03 400.795 L1756.21 400.772 Z" fill="#000000" fill-rule="evenodd" fill-opacity="1" /><path clip-path="url(#clip050)" d="M 0 0 M1782 394.059 L1782 380.031 L1786.26 380.031 L1786.26 416.05 L1782 416.05 L1782 412.161 Q1780.66 414.475 1778.6 415.61 Q1776.56 416.721 1773.69 416.721 Q1768.99 416.721 1766.03 412.971 Q1763.09 409.221 1763.09 403.11 Q1763.09 396.999 1766.03 393.249 Q1768.99 389.499 1773.69 389.499 Q1776.56 389.499 1778.6 390.633 Q1780.66 391.744 1782 394.059 M1767.48 403.11 Q1767.48 407.809 1769.41 410.494 Q1771.35 413.156 1774.73 413.156 Q1778.11 413.156 1780.05 410.494 Q1782 407.809 1782 403.11 Q1782 398.411 1780.05 395.749 Q1778.11 393.064 1774.73 393.064 Q1771.35 393.064 1769.41 395.749 Q1767.48 398.411 1767.48 403.11 Z" fill="#000000" fill-rule="evenodd" fill-opacity="1" /><path clip-path="url(#clip050)" d="M 0 0 M1790.73 390.124 L1794.98 390.124 L1794.98 416.05 L1790.73 416.05 L1790.73 390.124 M1790.73 380.031 L1794.98 380.031 L1794.98 385.425 L1790.73 385.425 L1790.73 380.031 Z" fill="#000000" fill-rule="evenodd" fill-opacity="1" /><path clip-path="url(#clip050)" d="M 0 0 M1811.23 403.017 Q1806.07 403.017 1804.08 404.198 Q1802.09 405.378 1802.09 408.226 Q1802.09 410.494 1803.57 411.837 Q1805.08 413.156 1807.65 413.156 Q1811.19 413.156 1813.32 410.656 Q1815.47 408.133 1815.47 403.966 L1815.47 403.017 L1811.23 403.017 M1819.73 401.258 L1819.73 416.05 L1815.47 416.05 L1815.47 412.114 Q1814.01 414.475 1811.84 415.61 Q1809.66 416.721 1806.51 416.721 Q1802.53 416.721 1800.17 414.499 Q1797.83 412.253 1797.83 408.503 Q1797.83 404.128 1800.75 401.906 Q1803.69 399.684 1809.5 399.684 L1815.47 399.684 L1815.47 399.267 Q1815.47 396.327 1813.53 394.73 Q1811.6 393.11 1808.11 393.11 Q1805.89 393.11 1803.78 393.642 Q1801.67 394.175 1799.73 395.239 L1799.73 391.304 Q1802.07 390.402 1804.27 389.962 Q1806.47 389.499 1808.55 389.499 Q1814.17 389.499 1816.95 392.415 Q1819.73 395.332 1819.73 401.258 Z" fill="#000000" fill-rule="evenodd" fill-opacity="1" /><path clip-path="url(#clip050)" d="M 0 0 M1845.75 400.401 L1845.75 416.05 L1841.49 416.05 L1841.49 400.54 Q1841.49 396.86 1840.05 395.031 Q1838.62 393.202 1835.75 393.202 Q1832.3 393.202 1830.31 395.402 Q1828.32 397.601 1828.32 401.397 L1828.32 416.05 L1824.04 416.05 L1824.04 390.124 L1828.32 390.124 L1828.32 394.152 Q1829.85 391.814 1831.91 390.656 Q1833.99 389.499 1836.7 389.499 Q1841.16 389.499 1843.46 392.277 Q1845.75 395.031 1845.75 400.401 Z" fill="#000000" fill-rule="evenodd" fill-opacity="1" /></svg>
