<?xml version="1.0" encoding="utf-8"?>
<svg xmlns="http://www.w3.org/2000/svg" xmlns:xlink="http://www.w3.org/1999/xlink" width="600" height="400" viewBox="0 0 2400 1600">
<defs>
  <clipPath id="clip580">
    <rect x="0" y="0" width="2400" height="1600"/>
  </clipPath>
</defs>
<path clip-path="url(#clip580)" d="
M0 1600 L2400 1600 L2400 0 L0 0  Z
  " fill="#ffffff" fill-rule="evenodd" fill-opacity="1"/>
<defs>
  <clipPath id="clip581">
    <rect x="480" y="0" width="1681" height="1600"/>
  </clipPath>
</defs>
<path clip-path="url(#clip580)" d="
M86.9921 1521.01 L2352.76 1521.01 L2352.76 47.2441 L86.9921 47.2441  Z
  " fill="#ffffff" fill-rule="evenodd" fill-opacity="1"/>
<defs>
  <clipPath id="clip582">
    <rect x="86" y="47" width="2267" height="1475"/>
  </clipPath>
</defs>
<polyline clip-path="url(#clip582)" style="stroke:#000000; stroke-width:2; stroke-opacity:0.1; fill:none" points="
  175.703,1521.01 175.703,47.2441 
  "/>
<polyline clip-path="url(#clip582)" style="stroke:#000000; stroke-width:2; stroke-opacity:0.1; fill:none" points="
  617.287,1521.01 617.287,47.2441 
  "/>
<polyline clip-path="url(#clip582)" style="stroke:#000000; stroke-width:2; stroke-opacity:0.1; fill:none" points="
  1058.87,1521.01 1058.87,47.2441 
  "/>
<polyline clip-path="url(#clip582)" style="stroke:#000000; stroke-width:2; stroke-opacity:0.1; fill:none" points="
  1500.45,1521.01 1500.45,47.2441 
  "/>
<polyline clip-path="url(#clip582)" style="stroke:#000000; stroke-width:2; stroke-opacity:0.1; fill:none" points="
  1942.04,1521.01 1942.04,47.2441 
  "/>
<polyline clip-path="url(#clip582)" style="stroke:#000000; stroke-width:2; stroke-opacity:0.1; fill:none" points="
  86.9921,1479.3 2352.76,1479.3 
  "/>
<polyline clip-path="url(#clip582)" style="stroke:#000000; stroke-width:2; stroke-opacity:0.1; fill:none" points="
  86.9921,1142.96 2352.76,1142.96 
  "/>
<polyline clip-path="url(#clip582)" style="stroke:#000000; stroke-width:2; stroke-opacity:0.1; fill:none" points="
  86.9921,806.614 2352.76,806.614 
  "/>
<polyline clip-path="url(#clip582)" style="stroke:#000000; stroke-width:2; stroke-opacity:0.1; fill:none" points="
  86.9921,470.272 2352.76,470.272 
  "/>
<polyline clip-path="url(#clip582)" style="stroke:#000000; stroke-width:2; stroke-opacity:0.1; fill:none" points="
  86.9921,133.93 2352.76,133.93 
  "/>
<polyline clip-path="url(#clip580)" style="stroke:#000000; stroke-width:4; stroke-opacity:1; fill:none" points="
  86.9921,1521.01 2352.76,1521.01 
  "/>
<polyline clip-path="url(#clip580)" style="stroke:#000000; stroke-width:4; stroke-opacity:1; fill:none" points="
  86.9921,1521.01 86.9921,47.2441 
  "/>
<polyline clip-path="url(#clip580)" style="stroke:#000000; stroke-width:4; stroke-opacity:1; fill:none" points="
  175.703,1521.01 175.703,1503.32 
  "/>
<polyline clip-path="url(#clip580)" style="stroke:#000000; stroke-width:4; stroke-opacity:1; fill:none" points="
  617.287,1521.01 617.287,1503.32 
  "/>
<polyline clip-path="url(#clip580)" style="stroke:#000000; stroke-width:4; stroke-opacity:1; fill:none" points="
  1058.87,1521.01 1058.87,1503.32 
  "/>
<polyline clip-path="url(#clip580)" style="stroke:#000000; stroke-width:4; stroke-opacity:1; fill:none" points="
  1500.45,1521.01 1500.45,1503.32 
  "/>
<polyline clip-path="url(#clip580)" style="stroke:#000000; stroke-width:4; stroke-opacity:1; fill:none" points="
  1942.04,1521.01 1942.04,1503.32 
  "/>
<polyline clip-path="url(#clip580)" style="stroke:#000000; stroke-width:4; stroke-opacity:1; fill:none" points="
  86.9921,1479.3 114.181,1479.3 
  "/>
<polyline clip-path="url(#clip580)" style="stroke:#000000; stroke-width:4; stroke-opacity:1; fill:none" points="
  86.9921,1142.96 114.181,1142.96 
  "/>
<polyline clip-path="url(#clip580)" style="stroke:#000000; stroke-width:4; stroke-opacity:1; fill:none" points="
  86.9921,806.614 114.181,806.614 
  "/>
<polyline clip-path="url(#clip580)" style="stroke:#000000; stroke-width:4; stroke-opacity:1; fill:none" points="
  86.9921,470.272 114.181,470.272 
  "/>
<polyline clip-path="url(#clip580)" style="stroke:#000000; stroke-width:4; stroke-opacity:1; fill:none" points="
  86.9921,133.93 114.181,133.93 
  "/>
<path clip-path="url(#clip580)" d="M 0 0 M145.009 1543 Q141.398 1543 139.569 1546.56 Q137.764 1550.11 137.764 1557.23 Q137.764 1564.34 139.569 1567.91 Q141.398 1571.45 145.009 1571.45 Q148.643 1571.45 150.449 1567.91 Q152.277 1564.34 152.277 1557.23 Q152.277 1550.11 150.449 1546.56 Q148.643 1543 145.009 1543 M145.009 1539.29 Q150.819 1539.29 153.875 1543.9 Q156.953 1548.48 156.953 1557.23 Q156.953 1565.96 153.875 1570.57 Q150.819 1575.15 145.009 1575.15 Q139.199 1575.15 136.12 1570.57 Q133.065 1565.96 133.065 1557.23 Q133.065 1548.48 136.12 1543.9 Q139.199 1539.29 145.009 1539.29 Z" fill="#000000" fill-rule="evenodd" fill-opacity="1" /><path clip-path="url(#clip580)" d="M 0 0 M162.023 1568.6 L166.907 1568.6 L166.907 1574.48 L162.023 1574.48 L162.023 1568.6 Z" fill="#000000" fill-rule="evenodd" fill-opacity="1" /><path clip-path="url(#clip580)" d="M 0 0 M176.004 1570.54 L192.324 1570.54 L192.324 1574.48 L170.379 1574.48 L170.379 1570.54 Q173.041 1567.79 177.625 1563.16 Q182.231 1558.51 183.412 1557.17 Q185.657 1554.64 186.537 1552.91 Q187.439 1551.15 187.439 1549.46 Q187.439 1546.7 185.495 1544.97 Q183.574 1543.23 180.472 1543.23 Q178.273 1543.23 175.819 1543.99 Q173.388 1544.76 170.611 1546.31 L170.611 1541.59 Q173.435 1540.45 175.888 1539.87 Q178.342 1539.29 180.379 1539.29 Q185.75 1539.29 188.944 1541.98 Q192.138 1544.67 192.138 1549.16 Q192.138 1551.29 191.328 1553.21 Q190.541 1555.1 188.435 1557.7 Q187.856 1558.37 184.754 1561.59 Q181.652 1564.78 176.004 1570.54 Z" fill="#000000" fill-rule="evenodd" fill-opacity="1" /><path clip-path="url(#clip580)" d="M 0 0 M197.439 1539.92 L215.796 1539.92 L215.796 1543.86 L201.722 1543.86 L201.722 1552.33 Q202.74 1551.98 203.759 1551.82 Q204.777 1551.63 205.796 1551.63 Q211.583 1551.63 214.962 1554.8 Q218.342 1557.98 218.342 1563.39 Q218.342 1568.97 214.87 1572.07 Q211.398 1575.15 205.078 1575.15 Q202.902 1575.15 200.634 1574.78 Q198.388 1574.41 195.981 1573.67 L195.981 1568.97 Q198.064 1570.1 200.286 1570.66 Q202.509 1571.22 204.986 1571.22 Q208.99 1571.22 211.328 1569.11 Q213.666 1567 213.666 1563.39 Q213.666 1559.78 211.328 1557.67 Q208.99 1555.57 204.986 1555.57 Q203.111 1555.57 201.236 1555.98 Q199.384 1556.4 197.439 1557.28 L197.439 1539.92 Z" fill="#000000" fill-rule="evenodd" fill-opacity="1" /><path clip-path="url(#clip580)" d="M 0 0 M585.62 1543 Q582.009 1543 580.181 1546.56 Q578.375 1550.11 578.375 1557.23 Q578.375 1564.34 580.181 1567.91 Q582.009 1571.45 585.62 1571.45 Q589.255 1571.45 591.06 1567.91 Q592.889 1564.34 592.889 1557.23 Q592.889 1550.11 591.06 1546.56 Q589.255 1543 585.62 1543 M585.62 1539.29 Q591.43 1539.29 594.486 1543.9 Q597.565 1548.48 597.565 1557.23 Q597.565 1565.96 594.486 1570.57 Q591.43 1575.15 585.62 1575.15 Q579.81 1575.15 576.731 1570.57 Q573.676 1565.96 573.676 1557.23 Q573.676 1548.48 576.731 1543.9 Q579.81 1539.29 585.62 1539.29 Z" fill="#000000" fill-rule="evenodd" fill-opacity="1" /><path clip-path="url(#clip580)" d="M 0 0 M602.634 1568.6 L607.518 1568.6 L607.518 1574.48 L602.634 1574.48 L602.634 1568.6 Z" fill="#000000" fill-rule="evenodd" fill-opacity="1" /><path clip-path="url(#clip580)" d="M 0 0 M626.754 1555.85 Q630.111 1556.56 631.986 1558.83 Q633.884 1561.1 633.884 1564.43 Q633.884 1569.55 630.365 1572.35 Q626.847 1575.15 620.366 1575.15 Q618.19 1575.15 615.875 1574.71 Q613.583 1574.29 611.129 1573.44 L611.129 1568.92 Q613.074 1570.06 615.389 1570.64 Q617.703 1571.22 620.227 1571.22 Q624.625 1571.22 626.916 1569.48 Q629.231 1567.74 629.231 1564.43 Q629.231 1561.38 627.078 1559.67 Q624.949 1557.93 621.129 1557.93 L617.102 1557.93 L617.102 1554.09 L621.315 1554.09 Q624.764 1554.09 626.592 1552.72 Q628.421 1551.33 628.421 1548.74 Q628.421 1546.08 626.523 1544.67 Q624.648 1543.23 621.129 1543.23 Q619.208 1543.23 617.009 1543.65 Q614.81 1544.06 612.171 1544.94 L612.171 1540.78 Q614.833 1540.04 617.148 1539.67 Q619.486 1539.29 621.546 1539.29 Q626.87 1539.29 629.972 1541.73 Q633.074 1544.13 633.074 1548.25 Q633.074 1551.12 631.43 1553.11 Q629.787 1555.08 626.754 1555.85 Z" fill="#000000" fill-rule="evenodd" fill-opacity="1" /><path clip-path="url(#clip580)" d="M 0 0 M648.953 1543 Q645.342 1543 643.514 1546.56 Q641.708 1550.11 641.708 1557.23 Q641.708 1564.34 643.514 1567.91 Q645.342 1571.45 648.953 1571.45 Q652.588 1571.45 654.393 1567.91 Q656.222 1564.34 656.222 1557.23 Q656.222 1550.11 654.393 1546.56 Q652.588 1543 648.953 1543 M648.953 1539.29 Q654.763 1539.29 657.819 1543.9 Q660.898 1548.48 660.898 1557.23 Q660.898 1565.96 657.819 1570.57 Q654.763 1575.15 648.953 1575.15 Q643.143 1575.15 640.064 1570.57 Q637.009 1565.96 637.009 1557.23 Q637.009 1548.48 640.064 1543.9 Q643.143 1539.29 648.953 1539.29 Z" fill="#000000" fill-rule="evenodd" fill-opacity="1" /><path clip-path="url(#clip580)" d="M 0 0 M1027.7 1543 Q1024.09 1543 1022.26 1546.56 Q1020.46 1550.11 1020.46 1557.23 Q1020.46 1564.34 1022.26 1567.91 Q1024.09 1571.45 1027.7 1571.45 Q1031.34 1571.45 1033.14 1567.91 Q1034.97 1564.34 1034.97 1557.23 Q1034.97 1550.11 1033.14 1546.56 Q1031.34 1543 1027.7 1543 M1027.7 1539.29 Q1033.51 1539.29 1036.57 1543.9 Q1039.65 1548.48 1039.65 1557.23 Q1039.65 1565.96 1036.57 1570.57 Q1033.51 1575.15 1027.7 1575.15 Q1021.89 1575.15 1018.81 1570.57 Q1015.76 1565.96 1015.76 1557.23 Q1015.76 1548.48 1018.81 1543.9 Q1021.89 1539.29 1027.7 1539.29 Z" fill="#000000" fill-rule="evenodd" fill-opacity="1" /><path clip-path="url(#clip580)" d="M 0 0 M1044.72 1568.6 L1049.6 1568.6 L1049.6 1574.48 L1044.72 1574.48 L1044.72 1568.6 Z" fill="#000000" fill-rule="evenodd" fill-opacity="1" /><path clip-path="url(#clip580)" d="M 0 0 M1068.84 1555.85 Q1072.19 1556.56 1074.07 1558.83 Q1075.97 1561.1 1075.97 1564.43 Q1075.97 1569.55 1072.45 1572.35 Q1068.93 1575.15 1062.45 1575.15 Q1060.27 1575.15 1057.96 1574.71 Q1055.66 1574.29 1053.21 1573.44 L1053.21 1568.92 Q1055.16 1570.06 1057.47 1570.64 Q1059.78 1571.22 1062.31 1571.22 Q1066.71 1571.22 1069 1569.48 Q1071.31 1567.74 1071.31 1564.43 Q1071.31 1561.38 1069.16 1559.67 Q1067.03 1557.93 1063.21 1557.93 L1059.18 1557.93 L1059.18 1554.09 L1063.4 1554.09 Q1066.84 1554.09 1068.67 1552.72 Q1070.5 1551.33 1070.5 1548.74 Q1070.5 1546.08 1068.6 1544.67 Q1066.73 1543.23 1063.21 1543.23 Q1061.29 1543.23 1059.09 1543.65 Q1056.89 1544.06 1054.25 1544.94 L1054.25 1540.78 Q1056.91 1540.04 1059.23 1539.67 Q1061.57 1539.29 1063.63 1539.29 Q1068.95 1539.29 1072.05 1541.73 Q1075.16 1544.13 1075.16 1548.25 Q1075.16 1551.12 1073.51 1553.11 Q1071.87 1555.08 1068.84 1555.85 Z" fill="#000000" fill-rule="evenodd" fill-opacity="1" /><path clip-path="url(#clip580)" d="M 0 0 M1081.08 1539.92 L1099.44 1539.92 L1099.44 1543.86 L1085.36 1543.86 L1085.36 1552.33 Q1086.38 1551.98 1087.4 1551.82 Q1088.42 1551.63 1089.44 1551.63 Q1095.22 1551.63 1098.6 1554.8 Q1101.98 1557.98 1101.98 1563.39 Q1101.98 1568.97 1098.51 1572.07 Q1095.04 1575.15 1088.72 1575.15 Q1086.54 1575.15 1084.28 1574.78 Q1082.03 1574.41 1079.62 1573.67 L1079.62 1568.97 Q1081.71 1570.1 1083.93 1570.66 Q1086.15 1571.22 1088.63 1571.22 Q1092.63 1571.22 1094.97 1569.11 Q1097.31 1567 1097.31 1563.39 Q1097.31 1559.78 1094.97 1557.67 Q1092.63 1555.57 1088.63 1555.57 Q1086.75 1555.57 1084.88 1555.98 Q1083.03 1556.4 1081.08 1557.28 L1081.08 1539.92 Z" fill="#000000" fill-rule="evenodd" fill-opacity="1" /><path clip-path="url(#clip580)" d="M 0 0 M1468.22 1543 Q1464.61 1543 1462.78 1546.56 Q1460.97 1550.11 1460.97 1557.23 Q1460.97 1564.34 1462.78 1567.91 Q1464.61 1571.45 1468.22 1571.45 Q1471.85 1571.45 1473.66 1567.91 Q1475.49 1564.34 1475.49 1557.23 Q1475.49 1550.11 1473.66 1546.56 Q1471.85 1543 1468.22 1543 M1468.22 1539.29 Q1474.03 1539.29 1477.09 1543.9 Q1480.16 1548.48 1480.16 1557.23 Q1480.16 1565.96 1477.09 1570.57 Q1474.03 1575.15 1468.22 1575.15 Q1462.41 1575.15 1459.33 1570.57 Q1456.28 1565.96 1456.28 1557.23 Q1456.28 1548.48 1459.33 1543.9 Q1462.41 1539.29 1468.22 1539.29 Z" fill="#000000" fill-rule="evenodd" fill-opacity="1" /><path clip-path="url(#clip580)" d="M 0 0 M1485.23 1568.6 L1490.12 1568.6 L1490.12 1574.48 L1485.23 1574.48 L1485.23 1568.6 Z" fill="#000000" fill-rule="evenodd" fill-opacity="1" /><path clip-path="url(#clip580)" d="M 0 0 M1508.03 1543.99 L1496.23 1562.44 L1508.03 1562.44 L1508.03 1543.99 M1506.81 1539.92 L1512.69 1539.92 L1512.69 1562.44 L1517.62 1562.44 L1517.62 1566.33 L1512.69 1566.33 L1512.69 1574.48 L1508.03 1574.48 L1508.03 1566.33 L1492.43 1566.33 L1492.43 1561.82 L1506.81 1539.92 Z" fill="#000000" fill-rule="evenodd" fill-opacity="1" /><path clip-path="url(#clip580)" d="M 0 0 M1532.69 1543 Q1529.08 1543 1527.25 1546.56 Q1525.44 1550.11 1525.44 1557.23 Q1525.44 1564.34 1527.25 1567.91 Q1529.08 1571.45 1532.69 1571.45 Q1536.32 1571.45 1538.13 1567.91 Q1539.96 1564.34 1539.96 1557.23 Q1539.96 1550.11 1538.13 1546.56 Q1536.32 1543 1532.69 1543 M1532.69 1539.29 Q1538.5 1539.29 1541.55 1543.9 Q1544.63 1548.48 1544.63 1557.23 Q1544.63 1565.96 1541.55 1570.57 Q1538.5 1575.15 1532.69 1575.15 Q1526.88 1575.15 1523.8 1570.57 Q1520.74 1565.96 1520.74 1557.23 Q1520.74 1548.48 1523.8 1543.9 Q1526.88 1539.29 1532.69 1539.29 Z" fill="#000000" fill-rule="evenodd" fill-opacity="1" /><path clip-path="url(#clip580)" d="M 0 0 M1910.3 1543 Q1906.69 1543 1904.86 1546.56 Q1903.06 1550.11 1903.06 1557.23 Q1903.06 1564.34 1904.86 1567.91 Q1906.69 1571.45 1910.3 1571.45 Q1913.94 1571.45 1915.74 1567.91 Q1917.57 1564.34 1917.57 1557.23 Q1917.57 1550.11 1915.74 1546.56 Q1913.94 1543 1910.3 1543 M1910.3 1539.29 Q1916.11 1539.29 1919.17 1543.9 Q1922.25 1548.48 1922.25 1557.23 Q1922.25 1565.96 1919.17 1570.57 Q1916.11 1575.15 1910.3 1575.15 Q1904.49 1575.15 1901.41 1570.57 Q1898.36 1565.96 1898.36 1557.23 Q1898.36 1548.48 1901.41 1543.9 Q1904.49 1539.29 1910.3 1539.29 Z" fill="#000000" fill-rule="evenodd" fill-opacity="1" /><path clip-path="url(#clip580)" d="M 0 0 M1927.32 1568.6 L1932.2 1568.6 L1932.2 1574.48 L1927.32 1574.48 L1927.32 1568.6 Z" fill="#000000" fill-rule="evenodd" fill-opacity="1" /><path clip-path="url(#clip580)" d="M 0 0 M1950.12 1543.99 L1938.31 1562.44 L1950.12 1562.44 L1950.12 1543.99 M1948.89 1539.92 L1954.77 1539.92 L1954.77 1562.44 L1959.7 1562.44 L1959.7 1566.33 L1954.77 1566.33 L1954.77 1574.48 L1950.12 1574.48 L1950.12 1566.33 L1934.51 1566.33 L1934.51 1561.82 L1948.89 1539.92 Z" fill="#000000" fill-rule="evenodd" fill-opacity="1" /><path clip-path="url(#clip580)" d="M 0 0 M1964.82 1539.92 L1983.17 1539.92 L1983.17 1543.86 L1969.1 1543.86 L1969.1 1552.33 Q1970.12 1551.98 1971.13 1551.82 Q1972.15 1551.63 1973.17 1551.63 Q1978.96 1551.63 1982.34 1554.8 Q1985.72 1557.98 1985.72 1563.39 Q1985.72 1568.97 1982.25 1572.07 Q1978.77 1575.15 1972.45 1575.15 Q1970.28 1575.15 1968.01 1574.78 Q1965.76 1574.41 1963.36 1573.67 L1963.36 1568.97 Q1965.44 1570.1 1967.66 1570.66 Q1969.88 1571.22 1972.36 1571.22 Q1976.37 1571.22 1978.7 1569.11 Q1981.04 1567 1981.04 1563.39 Q1981.04 1559.78 1978.7 1557.67 Q1976.37 1555.57 1972.36 1555.57 Q1970.49 1555.57 1968.61 1555.98 Q1966.76 1556.4 1964.82 1557.28 L1964.82 1539.92 Z" fill="#000000" fill-rule="evenodd" fill-opacity="1" /><path clip-path="url(#clip580)" d="M 0 0 M51.0477 1465.1 Q47.4367 1465.1 45.608 1468.66 Q43.8024 1472.2 43.8024 1479.33 Q43.8024 1486.44 45.608 1490 Q47.4367 1493.55 51.0477 1493.55 Q54.682 1493.55 56.4875 1490 Q58.3162 1486.44 58.3162 1479.33 Q58.3162 1472.2 56.4875 1468.66 Q54.682 1465.1 51.0477 1465.1 M51.0477 1461.39 Q56.8579 1461.39 59.9134 1466 Q62.9921 1470.58 62.9921 1479.33 Q62.9921 1488.06 59.9134 1492.67 Q56.8579 1497.25 51.0477 1497.25 Q45.2376 1497.25 42.1589 1492.67 Q39.1034 1488.06 39.1034 1479.33 Q39.1034 1470.58 42.1589 1466 Q45.2376 1461.39 51.0477 1461.39 Z" fill="#000000" fill-rule="evenodd" fill-opacity="1" /><path clip-path="url(#clip580)" d="M 0 0 M46.6728 1156.3 L62.9921 1156.3 L62.9921 1160.24 L41.0478 1160.24 L41.0478 1156.3 Q43.7098 1153.55 48.2931 1148.92 Q52.8996 1144.26 54.0801 1142.92 Q56.3255 1140.4 57.2051 1138.66 Q58.1079 1136.9 58.1079 1135.21 Q58.1079 1132.46 56.1635 1130.72 Q54.2422 1128.99 51.1403 1128.99 Q48.9413 1128.99 46.4876 1129.75 Q44.057 1130.51 41.2793 1132.06 L41.2793 1127.34 Q44.1033 1126.21 46.557 1125.63 Q49.0107 1125.05 51.0477 1125.05 Q56.4181 1125.05 59.6125 1127.74 Q62.8069 1130.42 62.8069 1134.91 Q62.8069 1137.04 61.9968 1138.96 Q61.2097 1140.86 59.1033 1143.45 Q58.5246 1144.12 55.4227 1147.34 Q52.3209 1150.54 46.6728 1156.3 Z" fill="#000000" fill-rule="evenodd" fill-opacity="1" /><path clip-path="url(#clip580)" d="M 0 0 M53.4088 793.408 L41.6034 811.857 L53.4088 811.857 L53.4088 793.408 M52.182 789.334 L58.0616 789.334 L58.0616 811.857 L62.9921 811.857 L62.9921 815.746 L58.0616 815.746 L58.0616 823.894 L53.4088 823.894 L53.4088 815.746 L37.8071 815.746 L37.8071 811.232 L52.182 789.334 Z" fill="#000000" fill-rule="evenodd" fill-opacity="1" /><path clip-path="url(#clip580)" d="M 0 0 M51.4644 468.408 Q48.3163 468.408 46.4644 470.561 Q44.6357 472.714 44.6357 476.464 Q44.6357 480.191 46.4644 482.367 Q48.3163 484.519 51.4644 484.519 Q54.6125 484.519 56.4412 482.367 Q58.2931 480.191 58.2931 476.464 Q58.2931 472.714 56.4412 470.561 Q54.6125 468.408 51.4644 468.408 M60.7468 453.756 L60.7468 458.015 Q58.9875 457.181 57.182 456.742 Q55.3996 456.302 53.6403 456.302 Q49.0107 456.302 46.557 459.427 Q44.1265 462.552 43.7793 468.871 Q45.145 466.857 47.2052 465.793 Q49.2653 464.705 51.7422 464.705 Q56.9505 464.705 59.9597 467.876 Q62.9921 471.024 62.9921 476.464 Q62.9921 481.788 59.844 485.005 Q56.6959 488.223 51.4644 488.223 Q45.4691 488.223 42.2978 483.64 Q39.1265 479.033 39.1265 470.306 Q39.1265 462.112 43.0154 457.251 Q46.9042 452.367 53.4551 452.367 Q55.2144 452.367 56.9968 452.714 Q58.8023 453.061 60.7468 453.756 Z" fill="#000000" fill-rule="evenodd" fill-opacity="1" /><path clip-path="url(#clip580)" d="M 0 0 M51.1403 134.798 Q47.807 134.798 45.8857 136.58 Q43.9876 138.363 43.9876 141.488 Q43.9876 144.613 45.8857 146.395 Q47.807 148.177 51.1403 148.177 Q54.4737 148.177 56.3949 146.395 Q58.3162 144.589 58.3162 141.488 Q58.3162 138.363 56.3949 136.58 Q54.4968 134.798 51.1403 134.798 M46.4644 132.807 Q43.4552 132.066 41.7654 130.006 Q40.0987 127.946 40.0987 124.983 Q40.0987 120.84 43.0385 118.432 Q46.0015 116.025 51.1403 116.025 Q56.3023 116.025 59.2421 118.432 Q62.1819 120.84 62.1819 124.983 Q62.1819 127.946 60.4921 130.006 Q58.8255 132.066 55.8394 132.807 Q59.219 133.594 61.094 135.886 Q62.9921 138.177 62.9921 141.488 Q62.9921 146.511 59.9134 149.196 Q56.8579 151.881 51.1403 151.881 Q45.4228 151.881 42.3441 149.196 Q39.2885 146.511 39.2885 141.488 Q39.2885 138.177 41.1867 135.886 Q43.0848 133.594 46.4644 132.807 M44.7515 125.423 Q44.7515 128.108 46.4181 129.613 Q48.1079 131.117 51.1403 131.117 Q54.1496 131.117 55.8394 129.613 Q57.5523 128.108 57.5523 125.423 Q57.5523 122.738 55.8394 121.233 Q54.1496 119.728 51.1403 119.728 Q48.1079 119.728 46.4181 121.233 Q44.7515 122.738 44.7515 125.423 Z" fill="#000000" fill-rule="evenodd" fill-opacity="1" /><path clip-path="url(#clip582)" d="
M151.118 1393.86 L154.271 1391.29 L157.424 1388.87 L160.577 1386.62 L163.73 1384.53 L166.884 1382.62 L170.037 1380.9 L173.19 1379.37 L176.343 1378.03 L179.497 1376.89 
  L182.65 1375.94 L185.803 1375.18 L188.956 1374.6 L192.109 1374.19 L195.263 1373.95 L198.416 1373.86 L201.569 1373.91 L204.722 1374.08 L207.876 1374.37 L211.029 1374.74 
  L214.182 1375.18 L217.335 1375.68 L220.488 1376.2 L223.642 1376.74 L226.795 1377.26 L229.948 1377.74 L233.101 1378.17 L236.255 1378.52 L239.408 1378.77 L242.561 1378.89 
  L245.714 1378.87 L248.868 1378.67 L252.021 1378.29 L255.174 1377.7 L258.327 1376.89 L261.48 1375.82 L264.634 1374.49 L267.787 1372.88 L270.94 1370.96 L274.093 1368.74 
  L277.247 1366.19 L280.4 1363.31 L283.553 1360.07 L286.706 1356.49 L289.859 1352.54 L293.013 1348.22 L296.166 1343.54 L299.319 1338.49 L302.472 1333.07 L305.626 1327.3 
  L308.779 1321.16 L311.932 1314.69 L315.085 1307.87 L318.238 1300.74 L321.392 1293.3 L324.545 1285.57 L327.698 1277.57 L330.851 1269.33 L334.005 1260.87 L337.158 1252.2 
  L340.311 1243.36 L343.464 1234.37 L346.618 1225.27 L349.771 1216.07 L352.924 1206.8 L356.077 1197.5 L359.23 1188.18 L362.384 1178.88 L365.537 1169.61 L368.69 1160.41 
  L371.843 1151.28 L374.997 1142.26 L378.15 1133.36 L381.303 1124.59 L384.456 1115.97 L387.609 1107.51 L390.763 1099.21 L393.916 1091.09 L397.069 1083.14 L400.222 1075.37 
  L403.376 1067.78 L406.529 1060.37 L409.682 1053.13 L412.835 1046.05 L415.988 1039.13 L419.142 1032.36 L422.295 1025.73 L425.448 1019.24 L428.601 1012.87 L431.755 1006.61 
  L434.908 1000.46 L438.061 994.394 L441.214 988.417 L444.368 982.519 L447.521 976.691 L450.674 970.929 L453.827 965.227 L456.98 959.583 L460.134 953.995 L463.287 948.462 
  L463.287 1479.3 L460.134 1479.3 L456.98 1479.3 L453.827 1479.3 L450.674 1479.3 L447.521 1479.3 L444.368 1479.3 L441.214 1479.3 L438.061 1479.3 L434.908 1479.3 
  L431.755 1479.3 L428.601 1479.3 L425.448 1479.3 L422.295 1479.3 L419.142 1479.3 L415.988 1479.3 L412.835 1479.3 L409.682 1479.3 L406.529 1479.3 L403.376 1479.3 
  L400.222 1479.3 L397.069 1479.3 L393.916 1479.3 L390.763 1479.3 L387.609 1479.3 L384.456 1479.3 L381.303 1479.3 L378.15 1479.3 L374.997 1479.3 L371.843 1479.3 
  L368.69 1479.3 L365.537 1479.3 L362.384 1479.3 L359.23 1479.3 L356.077 1479.3 L352.924 1479.3 L349.771 1479.3 L346.618 1479.3 L343.464 1479.3 L340.311 1479.3 
  L337.158 1479.3 L334.005 1479.3 L330.851 1479.3 L327.698 1479.3 L324.545 1479.3 L321.392 1479.3 L318.238 1479.3 L315.085 1479.3 L311.932 1479.3 L308.779 1479.3 
  L305.626 1479.3 L302.472 1479.3 L299.319 1479.3 L296.166 1479.3 L293.013 1479.3 L289.859 1479.3 L286.706 1479.3 L283.553 1479.3 L280.4 1479.3 L277.247 1479.3 
  L274.093 1479.3 L270.94 1479.3 L267.787 1479.3 L264.634 1479.3 L261.48 1479.3 L258.327 1479.3 L255.174 1479.3 L252.021 1479.3 L248.868 1479.3 L245.714 1479.3 
  L242.561 1479.3 L239.408 1479.3 L236.255 1479.3 L233.101 1479.3 L229.948 1479.3 L226.795 1479.3 L223.642 1479.3 L220.488 1479.3 L217.335 1479.3 L214.182 1479.3 
  L211.029 1479.3 L207.876 1479.3 L204.722 1479.3 L201.569 1479.3 L198.416 1479.3 L195.263 1479.3 L192.109 1479.3 L188.956 1479.3 L185.803 1479.3 L182.65 1479.3 
  L179.497 1479.3 L176.343 1479.3 L173.19 1479.3 L170.037 1479.3 L166.884 1479.3 L163.73 1479.3 L160.577 1479.3 L157.424 1479.3 L154.271 1479.3 L151.118 1479.3 
   Z
  " fill="#ffa500" fill-rule="evenodd" fill-opacity="0.5"/>
<polyline clip-path="url(#clip582)" style="stroke:#ffa500; stroke-width:4; stroke-opacity:1; fill:none" points="
  151.118,1393.86 154.271,1391.29 157.424,1388.87 160.577,1386.62 163.73,1384.53 166.884,1382.62 170.037,1380.9 173.19,1379.37 176.343,1378.03 179.497,1376.89 
  182.65,1375.94 185.803,1375.18 188.956,1374.6 192.109,1374.19 195.263,1373.95 198.416,1373.86 201.569,1373.91 204.722,1374.08 207.876,1374.37 211.029,1374.74 
  214.182,1375.18 217.335,1375.68 220.488,1376.2 223.642,1376.74 226.795,1377.26 229.948,1377.74 233.101,1378.17 236.255,1378.52 239.408,1378.77 242.561,1378.89 
  245.714,1378.87 248.868,1378.67 252.021,1378.29 255.174,1377.7 258.327,1376.89 261.48,1375.82 264.634,1374.49 267.787,1372.88 270.94,1370.96 274.093,1368.74 
  277.247,1366.19 280.4,1363.31 283.553,1360.07 286.706,1356.49 289.859,1352.54 293.013,1348.22 296.166,1343.54 299.319,1338.49 302.472,1333.07 305.626,1327.3 
  308.779,1321.16 311.932,1314.69 315.085,1307.87 318.238,1300.74 321.392,1293.3 324.545,1285.57 327.698,1277.57 330.851,1269.33 334.005,1260.87 337.158,1252.2 
  340.311,1243.36 343.464,1234.37 346.618,1225.27 349.771,1216.07 352.924,1206.8 356.077,1197.5 359.23,1188.18 362.384,1178.88 365.537,1169.61 368.69,1160.41 
  371.843,1151.28 374.997,1142.26 378.15,1133.36 381.303,1124.59 384.456,1115.97 387.609,1107.51 390.763,1099.21 393.916,1091.09 397.069,1083.14 400.222,1075.37 
  403.376,1067.78 406.529,1060.37 409.682,1053.13 412.835,1046.05 415.988,1039.13 419.142,1032.36 422.295,1025.73 425.448,1019.24 428.601,1012.87 431.755,1006.61 
  434.908,1000.46 438.061,994.394 441.214,988.417 444.368,982.519 447.521,976.691 450.674,970.929 453.827,965.227 456.98,959.583 460.134,953.995 463.287,948.462 
  
  "/>
<path clip-path="url(#clip582)" d="
M463.287 948.462 L476.184 926.454 L489.082 905.693 L501.98 886.668 L514.877 869.872 L527.775 855.585 L540.672 843.709 L553.57 833.706 L566.467 824.643 L579.365 815.309 
  L592.262 804.374 L605.16 790.541 L618.058 772.676 L630.955 749.924 L643.853 721.818 L656.75 688.369 L669.648 650.116 L682.545 608.089 L695.443 563.671 L708.341 518.367 
  L721.238 473.539 L734.136 430.196 L747.033 388.9 L759.931 349.827 L772.828 312.939 L785.726 278.209 L798.623 245.788 L811.521 216.081 L824.419 189.706 L837.316 167.374 
  L850.214 149.742 L863.111 137.273 L876.009 130.134 L888.906 128.119 L901.804 130.608 L914.701 136.551 L927.599 144.527 L940.497 152.871 L953.394 159.885 L966.292 164.1 
  L979.189 164.524 L992.087 160.8 L1004.98 153.246 L1017.88 142.741 L1030.78 130.532 L1043.68 118.003 L1056.57 106.493 L1069.47 97.1868 L1082.37 91.0765 L1095.27 88.9544 
  L1108.16 91.4005 L1121.06 98.7346 L1133.96 110.937 L1146.86 127.566 L1159.76 147.72 L1172.65 170.072 L1185.55 192.991 L1198.45 214.738 L1211.35 233.679 L1224.24 248.499 
  L1237.14 258.349 L1250.04 262.945 L1262.94 262.624 L1275.83 258.364 L1288.73 251.778 L1301.63 245.035 L1314.53 240.664 L1327.42 241.211 L1340.32 248.764 L1353.22 264.462 
  L1366.12 288.127 L1379.01 318.198 L1391.91 352.018 L1404.81 386.445 L1417.71 418.614 L1430.6 446.606 L1443.5 469.812 L1456.4 488.891 L1469.3 505.347 L1482.19 520.92 
  L1495.09 536.987 L1507.99 554.211 L1520.89 572.497 L1533.78 591.25 L1546.68 609.786 L1559.58 627.699 L1572.48 645.054 L1585.37 662.339 L1598.27 680.226 L1611.17 699.269 
  L1624.07 719.686 L1636.96 741.325 L1649.86 763.808 L1662.76 786.792 L1675.66 810.213 L1688.56 834.406 L1701.45 860.041 L1714.35 887.904 L1727.25 918.603 L1740.15 952.318 
  L1740.15 1479.3 L1727.25 1479.3 L1714.35 1479.3 L1701.45 1479.3 L1688.56 1479.3 L1675.66 1479.3 L1662.76 1479.3 L1649.86 1479.3 L1636.96 1479.3 L1624.07 1479.3 
  L1611.17 1479.3 L1598.27 1479.3 L1585.37 1479.3 L1572.48 1479.3 L1559.58 1479.3 L1546.68 1479.3 L1533.78 1479.3 L1520.89 1479.3 L1507.99 1479.3 L1495.09 1479.3 
  L1482.19 1479.3 L1469.3 1479.3 L1456.4 1479.3 L1443.5 1479.3 L1430.6 1479.3 L1417.71 1479.3 L1404.81 1479.3 L1391.91 1479.3 L1379.01 1479.3 L1366.12 1479.3 
  L1353.22 1479.3 L1340.32 1479.3 L1327.42 1479.3 L1314.53 1479.3 L1301.63 1479.3 L1288.73 1479.3 L1275.83 1479.3 L1262.94 1479.3 L1250.04 1479.3 L1237.14 1479.3 
  L1224.24 1479.3 L1211.35 1479.3 L1198.45 1479.3 L1185.55 1479.3 L1172.65 1479.3 L1159.76 1479.3 L1146.86 1479.3 L1133.96 1479.3 L1121.06 1479.3 L1108.16 1479.3 
  L1095.27 1479.3 L1082.37 1479.3 L1069.47 1479.3 L1056.57 1479.3 L1043.68 1479.3 L1030.78 1479.3 L1017.88 1479.3 L1004.98 1479.3 L992.087 1479.3 L979.189 1479.3 
  L966.292 1479.3 L953.394 1479.3 L940.497 1479.3 L927.599 1479.3 L914.701 1479.3 L901.804 1479.3 L888.906 1479.3 L876.009 1479.3 L863.111 1479.3 L850.214 1479.3 
  L837.316 1479.3 L824.419 1479.3 L811.521 1479.3 L798.623 1479.3 L785.726 1479.3 L772.828 1479.3 L759.931 1479.3 L747.033 1479.3 L734.136 1479.3 L721.238 1479.3 
  L708.341 1479.3 L695.443 1479.3 L682.545 1479.3 L669.648 1479.3 L656.75 1479.3 L643.853 1479.3 L630.955 1479.3 L618.058 1479.3 L605.16 1479.3 L592.262 1479.3 
  L579.365 1479.3 L566.467 1479.3 L553.57 1479.3 L540.672 1479.3 L527.775 1479.3 L514.877 1479.3 L501.98 1479.3 L489.082 1479.3 L476.184 1479.3 L463.287 1479.3 
   Z
  " fill="#008000" fill-rule="evenodd" fill-opacity="0.5"/>
<polyline clip-path="url(#clip582)" style="stroke:#008000; stroke-width:4; stroke-opacity:1; fill:none" points="
  463.287,948.462 476.184,926.454 489.082,905.693 501.98,886.668 514.877,869.872 527.775,855.585 540.672,843.709 553.57,833.706 566.467,824.643 579.365,815.309 
  592.262,804.374 605.16,790.541 618.058,772.676 630.955,749.924 643.853,721.818 656.75,688.369 669.648,650.116 682.545,608.089 695.443,563.671 708.341,518.367 
  721.238,473.539 734.136,430.196 747.033,388.9 759.931,349.827 772.828,312.939 785.726,278.209 798.623,245.788 811.521,216.081 824.419,189.706 837.316,167.374 
  850.214,149.742 863.111,137.273 876.009,130.134 888.906,128.119 901.804,130.608 914.701,136.551 927.599,144.527 940.497,152.871 953.394,159.885 966.292,164.1 
  979.189,164.524 992.087,160.8 1004.98,153.246 1017.88,142.741 1030.78,130.532 1043.68,118.003 1056.57,106.493 1069.47,97.1868 1082.37,91.0765 1095.27,88.9544 
  1108.16,91.4005 1121.06,98.7346 1133.96,110.937 1146.86,127.566 1159.76,147.72 1172.65,170.072 1185.55,192.991 1198.45,214.738 1211.35,233.679 1224.24,248.499 
  1237.14,258.349 1250.04,262.945 1262.94,262.624 1275.83,258.364 1288.73,251.778 1301.63,245.035 1314.53,240.664 1327.42,241.211 1340.32,248.764 1353.22,264.462 
  1366.12,288.127 1379.01,318.198 1391.91,352.018 1404.81,386.445 1417.71,418.614 1430.6,446.606 1443.5,469.812 1456.4,488.891 1469.3,505.347 1482.19,520.92 
  1495.09,536.987 1507.99,554.211 1520.89,572.497 1533.78,591.25 1546.68,609.786 1559.58,627.699 1572.48,645.054 1585.37,662.339 1598.27,680.226 1611.17,699.269 
  1624.07,719.686 1636.96,741.325 1649.86,763.808 1662.76,786.792 1675.66,810.213 1688.56,834.406 1701.45,860.041 1714.35,887.904 1727.25,918.603 1740.15,952.318 
  
  "/>
<path clip-path="url(#clip582)" d="
M1740.15 952.318 L1745.69 967.652 L1751.23 983.419 L1756.77 999.541 L1762.31 1015.93 L1767.85 1032.48 L1773.39 1049.08 L1778.93 1065.63 L1784.47 1082.02 L1790.01 1098.13 
  L1795.55 1113.88 L1801.09 1129.16 L1806.63 1143.9 L1812.17 1158.03 L1817.71 1171.48 L1823.25 1184.22 L1828.79 1196.19 L1834.33 1207.38 L1839.87 1217.78 L1845.41 1227.38 
  L1850.95 1236.21 L1856.49 1244.29 L1862.03 1251.66 L1867.57 1258.38 L1873.11 1264.5 L1878.65 1270.11 L1884.19 1275.29 L1889.73 1280.13 L1895.27 1284.72 L1900.81 1289.17 
  L1906.35 1293.56 L1911.89 1297.99 L1917.43 1302.52 L1922.97 1307.23 L1928.51 1312.17 L1934.05 1317.35 L1939.59 1322.8 L1945.13 1328.51 L1950.68 1334.45 L1956.22 1340.57 
  L1961.76 1346.83 L1967.3 1353.16 L1972.84 1359.47 L1978.38 1365.71 L1983.92 1371.77 L1989.46 1377.61 L1995 1383.15 L2000.54 1388.33 L2006.08 1393.12 L2011.62 1397.49 
  L2017.16 1401.42 L2022.7 1404.92 L2028.24 1407.99 L2033.78 1410.67 L2039.32 1413 L2044.86 1415.01 L2050.4 1416.76 L2055.94 1418.3 L2061.48 1419.68 L2067.02 1420.97 
  L2072.56 1422.21 L2078.1 1423.44 L2083.64 1424.71 L2089.18 1426.06 L2094.72 1427.51 L2100.26 1429.08 L2105.8 1430.79 L2111.34 1432.63 L2116.88 1434.61 L2122.42 1436.71 
  L2127.96 1438.93 L2133.5 1441.23 L2139.04 1443.6 L2144.58 1446.01 L2150.12 1448.43 L2155.66 1450.82 L2161.2 1453.17 L2166.74 1455.44 L2172.29 1457.61 L2177.83 1459.64 
  L2183.37 1461.53 L2188.91 1463.26 L2194.45 1464.81 L2199.99 1466.19 L2205.53 1467.39 L2211.07 1468.42 L2216.61 1469.28 L2222.15 1469.98 L2227.69 1470.55 L2233.23 1470.99 
  L2238.77 1471.33 L2244.31 1471.58 L2249.85 1471.78 L2255.39 1471.93 L2260.93 1472.05 L2266.47 1472.16 L2272.01 1472.28 L2277.55 1472.41 L2283.09 1472.57 L2288.63 1472.77 
  L2288.63 1479.3 L2283.09 1479.3 L2277.55 1479.3 L2272.01 1479.3 L2266.47 1479.3 L2260.93 1479.3 L2255.39 1479.3 L2249.85 1479.3 L2244.31 1479.3 L2238.77 1479.3 
  L2233.23 1479.3 L2227.69 1479.3 L2222.15 1479.3 L2216.61 1479.3 L2211.07 1479.3 L2205.53 1479.3 L2199.99 1479.3 L2194.45 1479.3 L2188.91 1479.3 L2183.37 1479.3 
  L2177.83 1479.3 L2172.29 1479.3 L2166.74 1479.3 L2161.2 1479.3 L2155.66 1479.3 L2150.12 1479.3 L2144.58 1479.3 L2139.04 1479.3 L2133.5 1479.3 L2127.96 1479.3 
  L2122.42 1479.3 L2116.88 1479.3 L2111.34 1479.3 L2105.8 1479.3 L2100.26 1479.3 L2094.72 1479.3 L2089.18 1479.3 L2083.64 1479.3 L2078.1 1479.3 L2072.56 1479.3 
  L2067.02 1479.3 L2061.48 1479.3 L2055.94 1479.3 L2050.4 1479.3 L2044.86 1479.3 L2039.32 1479.3 L2033.78 1479.3 L2028.24 1479.3 L2022.7 1479.3 L2017.16 1479.3 
  L2011.62 1479.3 L2006.08 1479.3 L2000.54 1479.3 L1995 1479.3 L1989.46 1479.3 L1983.92 1479.3 L1978.38 1479.3 L1972.84 1479.3 L1967.3 1479.3 L1961.76 1479.3 
  L1956.22 1479.3 L1950.68 1479.3 L1945.13 1479.3 L1939.59 1479.3 L1934.05 1479.3 L1928.51 1479.3 L1922.97 1479.3 L1917.43 1479.3 L1911.89 1479.3 L1906.35 1479.3 
  L1900.81 1479.3 L1895.27 1479.3 L1889.73 1479.3 L1884.19 1479.3 L1878.65 1479.3 L1873.11 1479.3 L1867.57 1479.3 L1862.03 1479.3 L1856.49 1479.3 L1850.95 1479.3 
  L1845.41 1479.3 L1839.87 1479.3 L1834.33 1479.3 L1828.79 1479.3 L1823.25 1479.3 L1817.71 1479.3 L1812.17 1479.3 L1806.63 1479.3 L1801.09 1479.3 L1795.55 1479.3 
  L1790.01 1479.3 L1784.47 1479.3 L1778.93 1479.3 L1773.39 1479.3 L1767.85 1479.3 L1762.31 1479.3 L1756.77 1479.3 L1751.23 1479.3 L1745.69 1479.3 L1740.15 1479.3 
   Z
  " fill="#ffa500" fill-rule="evenodd" fill-opacity="0.5"/>
<polyline clip-path="url(#clip582)" style="stroke:#ffa500; stroke-width:4; stroke-opacity:1; fill:none" points="
  1740.15,952.318 1745.69,967.652 1751.23,983.419 1756.77,999.541 1762.31,1015.93 1767.85,1032.48 1773.39,1049.08 1778.93,1065.63 1784.47,1082.02 1790.01,1098.13 
  1795.55,1113.88 1801.09,1129.16 1806.63,1143.9 1812.17,1158.03 1817.71,1171.48 1823.25,1184.22 1828.79,1196.19 1834.33,1207.38 1839.87,1217.78 1845.41,1227.38 
  1850.95,1236.21 1856.49,1244.29 1862.03,1251.66 1867.57,1258.38 1873.11,1264.5 1878.65,1270.11 1884.19,1275.29 1889.73,1280.13 1895.27,1284.72 1900.81,1289.17 
  1906.35,1293.56 1911.89,1297.99 1917.43,1302.52 1922.97,1307.23 1928.51,1312.17 1934.05,1317.35 1939.59,1322.8 1945.13,1328.51 1950.68,1334.45 1956.22,1340.57 
  1961.76,1346.83 1967.3,1353.16 1972.84,1359.47 1978.38,1365.71 1983.92,1371.77 1989.46,1377.61 1995,1383.15 2000.54,1388.33 2006.08,1393.12 2011.62,1397.49 
  2017.16,1401.42 2022.7,1404.92 2028.24,1407.99 2033.78,1410.67 2039.32,1413 2044.86,1415.01 2050.4,1416.76 2055.94,1418.3 2061.48,1419.68 2067.02,1420.97 
  2072.56,1422.21 2078.1,1423.44 2083.64,1424.71 2089.18,1426.06 2094.72,1427.51 2100.26,1429.08 2105.8,1430.79 2111.34,1432.63 2116.88,1434.61 2122.42,1436.71 
  2127.96,1438.93 2133.5,1441.23 2139.04,1443.6 2144.58,1446.01 2150.12,1448.43 2155.66,1450.82 2161.2,1453.17 2166.74,1455.44 2172.29,1457.61 2177.83,1459.64 
  2183.37,1461.53 2188.91,1463.26 2194.45,1464.81 2199.99,1466.19 2205.53,1467.39 2211.07,1468.42 2216.61,1469.28 2222.15,1469.98 2227.69,1470.55 2233.23,1470.99 
  2238.77,1471.33 2244.31,1471.58 2249.85,1471.78 2255.39,1471.93 2260.93,1472.05 2266.47,1472.16 2272.01,1472.28 2277.55,1472.41 2283.09,1472.57 2288.63,1472.77 
  
  "/>
<polyline clip-path="url(#clip582)" style="stroke:#0000ff; stroke-width:4; stroke-opacity:1; fill:none" points="
  1102.46,1479.3 1102.46,89.7275 
  "/>
<polyline clip-path="url(#clip582)" style="stroke:#000000; stroke-width:4; stroke-opacity:1; fill:none" points="
  1093.92,1479.3 1093.92,88.9705 
  "/>
<path clip-path="url(#clip580)" d="
M1494.58 459.25 L2277.23 459.25 L2277.23 96.3696 L1494.58 96.3696  Z
  " fill="#ffffff" fill-rule="evenodd" fill-opacity="1"/>
<polyline clip-path="url(#clip580)" style="stroke:#000000; stroke-width:4; stroke-opacity:1; fill:none" points="
  1494.58,459.25 2277.23,459.25 2277.23,96.3696 1494.58,96.3696 1494.58,459.25 
  "/>
<path clip-path="url(#clip580)" d="
M1519.75 181.042 L1670.81 181.042 L1670.81 132.658 L1519.75 132.658 L1519.75 181.042  Z
  " fill="#ffa500" fill-rule="evenodd" fill-opacity="0.5"/>
<polyline clip-path="url(#clip580)" style="stroke:#ffa500; stroke-width:4; stroke-opacity:1; fill:none" points="
  1519.75,132.658 1670.81,132.658 
  "/>
<path clip-path="url(#clip580)" d="M 0 0 M1700.38 161.19 Q1700.38 165.889 1702.3 168.574 Q1704.24 171.236 1707.62 171.236 Q1711 171.236 1712.95 168.574 Q1714.89 165.889 1714.89 161.19 Q1714.89 156.491 1712.95 153.829 Q1711 151.144 1707.62 151.144 Q1704.24 151.144 1702.3 153.829 Q1700.38 156.491 1700.38 161.19 M1714.89 170.241 Q1713.55 172.555 1711.49 173.69 Q1709.45 174.801 1706.58 174.801 Q1701.88 174.801 1698.92 171.051 Q1695.98 167.301 1695.98 161.19 Q1695.98 155.079 1698.92 151.329 Q1701.88 147.579 1706.58 147.579 Q1709.45 147.579 1711.49 148.713 Q1713.55 149.824 1714.89 152.139 L1714.89 148.204 L1719.15 148.204 L1719.15 183.991 L1714.89 183.991 L1714.89 170.241 Z" fill="#000000" fill-rule="evenodd" fill-opacity="1" /><path clip-path="url(#clip580)" d="M 0 0 M1734.22 142.648 Q1730.61 142.648 1728.78 146.213 Q1726.98 149.755 1726.98 156.884 Q1726.98 163.991 1728.78 167.556 Q1730.61 171.097 1734.22 171.097 Q1737.85 171.097 1739.66 167.556 Q1741.49 163.991 1741.49 156.884 Q1741.49 149.755 1739.66 146.213 Q1737.85 142.648 1734.22 142.648 M1734.22 138.945 Q1740.03 138.945 1743.09 143.551 Q1746.17 148.134 1746.17 156.884 Q1746.17 165.611 1743.09 170.218 Q1740.03 174.801 1734.22 174.801 Q1728.41 174.801 1725.33 170.218 Q1722.28 165.611 1722.28 156.884 Q1722.28 148.134 1725.33 143.551 Q1728.41 138.945 1734.22 138.945 Z" fill="#000000" fill-rule="evenodd" fill-opacity="1" /><path clip-path="url(#clip580)" d="M 0 0 M1751.28 139.57 L1769.64 139.57 L1769.64 143.505 L1755.56 143.505 L1755.56 151.977 Q1756.58 151.63 1757.6 151.468 Q1758.62 151.282 1759.64 151.282 Q1765.42 151.282 1768.8 154.454 Q1772.18 157.625 1772.18 163.042 Q1772.18 168.62 1768.71 171.722 Q1765.24 174.801 1758.92 174.801 Q1756.74 174.801 1754.48 174.43 Q1752.23 174.06 1749.82 173.319 L1749.82 168.62 Q1751.91 169.755 1754.13 170.31 Q1756.35 170.866 1758.83 170.866 Q1762.83 170.866 1765.17 168.759 Q1767.51 166.653 1767.51 163.042 Q1767.51 159.431 1765.17 157.324 Q1762.83 155.218 1758.83 155.218 Q1756.95 155.218 1755.08 155.634 Q1753.23 156.051 1751.28 156.931 L1751.28 139.57 Z" fill="#000000" fill-rule="evenodd" fill-opacity="1" /><path clip-path="url(#clip580)" d="
M1519.75 241.522 L1670.81 241.522 L1670.81 193.138 L1519.75 193.138 L1519.75 241.522  Z
  " fill="#008000" fill-rule="evenodd" fill-opacity="0.5"/>
<polyline clip-path="url(#clip580)" style="stroke:#008000; stroke-width:4; stroke-opacity:1; fill:none" points="
  1519.75,193.138 1670.81,193.138 
  "/>
<path clip-path="url(#clip580)" d="M 0 0 M1698.2 233.892 L1698.2 229.633 Q1699.96 230.466 1701.77 230.906 Q1703.57 231.346 1705.31 231.346 Q1709.94 231.346 1712.37 228.244 Q1714.82 225.119 1715.17 218.776 Q1713.83 220.767 1711.77 221.832 Q1709.71 222.897 1707.21 222.897 Q1702.02 222.897 1698.99 219.772 Q1695.98 216.624 1695.98 211.184 Q1695.98 205.86 1699.13 202.642 Q1702.28 199.425 1707.51 199.425 Q1713.5 199.425 1716.65 204.031 Q1719.82 208.614 1719.82 217.364 Q1719.82 225.536 1715.93 230.42 Q1712.07 235.281 1705.52 235.281 Q1703.76 235.281 1701.95 234.934 Q1700.15 234.586 1698.2 233.892 M1707.51 219.239 Q1710.66 219.239 1712.48 217.086 Q1714.34 214.934 1714.34 211.184 Q1714.34 207.457 1712.48 205.304 Q1710.66 203.128 1707.51 203.128 Q1704.36 203.128 1702.51 205.304 Q1700.68 207.457 1700.68 211.184 Q1700.68 214.934 1702.51 217.086 Q1704.36 219.239 1707.51 219.239 Z" fill="#000000" fill-rule="evenodd" fill-opacity="1" /><path clip-path="url(#clip580)" d="M 0 0 M1734.89 203.128 Q1731.28 203.128 1729.45 206.693 Q1727.65 210.235 1727.65 217.364 Q1727.65 224.471 1729.45 228.036 Q1731.28 231.577 1734.89 231.577 Q1738.53 231.577 1740.33 228.036 Q1742.16 224.471 1742.16 217.364 Q1742.16 210.235 1740.33 206.693 Q1738.53 203.128 1734.89 203.128 M1734.89 199.425 Q1740.7 199.425 1743.76 204.031 Q1746.84 208.614 1746.84 217.364 Q1746.84 226.091 1743.76 230.698 Q1740.7 235.281 1734.89 235.281 Q1729.08 235.281 1726 230.698 Q1722.95 226.091 1722.95 217.364 Q1722.95 208.614 1726 204.031 Q1729.08 199.425 1734.89 199.425 Z" fill="#000000" fill-rule="evenodd" fill-opacity="1" /><path clip-path="url(#clip580)" d="M 0 0 M1781.3 219.401 Q1779.29 219.401 1778.13 221.114 Q1777 222.827 1777 225.883 Q1777 228.892 1778.13 230.628 Q1779.29 232.341 1781.3 232.341 Q1783.27 232.341 1784.41 230.628 Q1785.56 228.892 1785.56 225.883 Q1785.56 222.85 1784.41 221.137 Q1783.27 219.401 1781.3 219.401 M1781.3 216.462 Q1784.96 216.462 1787.11 219.008 Q1789.27 221.554 1789.27 225.883 Q1789.27 230.211 1787.09 232.758 Q1784.94 235.281 1781.3 235.281 Q1777.6 235.281 1775.45 232.758 Q1773.29 230.211 1773.29 225.883 Q1773.29 221.531 1775.45 219.008 Q1777.62 216.462 1781.3 216.462 M1757.42 202.364 Q1755.42 202.364 1754.27 204.1 Q1753.13 205.813 1753.13 208.823 Q1753.13 211.878 1754.27 213.591 Q1755.4 215.304 1757.42 215.304 Q1759.43 215.304 1760.56 213.591 Q1761.72 211.878 1761.72 208.823 Q1761.72 205.837 1760.56 204.1 Q1759.41 202.364 1757.42 202.364 M1778.32 199.425 L1782.02 199.425 L1760.4 235.281 L1756.7 235.281 L1778.32 199.425 M1757.42 199.425 Q1761.07 199.425 1763.25 201.971 Q1765.42 204.494 1765.42 208.823 Q1765.42 213.198 1763.25 215.721 Q1761.1 218.244 1757.42 218.244 Q1753.73 218.244 1751.58 215.721 Q1749.45 213.174 1749.45 208.823 Q1749.45 204.517 1751.6 201.971 Q1753.76 199.425 1757.42 199.425 Z" fill="#000000" fill-rule="evenodd" fill-opacity="1" /><path clip-path="url(#clip580)" d="M 0 0 M1830.35 218.961 L1830.35 234.61 L1826.1 234.61 L1826.1 219.1 Q1826.1 215.42 1824.66 213.591 Q1823.22 211.762 1820.35 211.762 Q1816.91 211.762 1814.91 213.962 Q1812.92 216.161 1812.92 219.957 L1812.92 234.61 L1808.64 234.61 L1808.64 208.684 L1812.92 208.684 L1812.92 212.712 Q1814.45 210.374 1816.51 209.216 Q1818.6 208.059 1821.3 208.059 Q1825.77 208.059 1828.06 210.837 Q1830.35 213.591 1830.35 218.961 Z" fill="#000000" fill-rule="evenodd" fill-opacity="1" /><path clip-path="url(#clip580)" d="M 0 0 M1844.87 211.67 Q1841.44 211.67 1839.45 214.355 Q1837.46 217.017 1837.46 221.67 Q1837.46 226.323 1839.43 229.008 Q1841.42 231.67 1844.87 231.67 Q1848.27 231.67 1850.26 228.985 Q1852.25 226.299 1852.25 221.67 Q1852.25 217.063 1850.26 214.378 Q1848.27 211.67 1844.87 211.67 M1844.87 208.059 Q1850.42 208.059 1853.6 211.67 Q1856.77 215.281 1856.77 221.67 Q1856.77 228.036 1853.6 231.67 Q1850.42 235.281 1844.87 235.281 Q1839.29 235.281 1836.12 231.67 Q1832.97 228.036 1832.97 221.67 Q1832.97 215.281 1836.12 211.67 Q1839.29 208.059 1844.87 208.059 Z" fill="#000000" fill-rule="evenodd" fill-opacity="1" /><path clip-path="url(#clip580)" d="M 0 0 M1882.78 218.961 L1882.78 234.61 L1878.53 234.61 L1878.53 219.1 Q1878.53 215.42 1877.09 213.591 Q1875.66 211.762 1872.78 211.762 Q1869.34 211.762 1867.35 213.962 Q1865.35 216.161 1865.35 219.957 L1865.35 234.61 L1861.07 234.61 L1861.07 208.684 L1865.35 208.684 L1865.35 212.712 Q1866.88 210.374 1868.94 209.216 Q1871.03 208.059 1873.73 208.059 Q1878.2 208.059 1880.49 210.837 Q1882.78 213.591 1882.78 218.961 Z" fill="#000000" fill-rule="evenodd" fill-opacity="1" /><path clip-path="url(#clip580)" d="M 0 0 M1885.1 219.725 L1897.58 219.725 L1897.58 223.522 L1885.1 223.522 L1885.1 219.725 Z" fill="#000000" fill-rule="evenodd" fill-opacity="1" /><path clip-path="url(#clip580)" d="M 0 0 M1917.07 212.665 Q1916.35 212.249 1915.49 212.063 Q1914.66 211.855 1913.64 211.855 Q1910.03 211.855 1908.09 214.216 Q1906.16 216.554 1906.16 220.952 L1906.16 234.61 L1901.88 234.61 L1901.88 208.684 L1906.16 208.684 L1906.16 212.712 Q1907.51 210.35 1909.66 209.216 Q1911.81 208.059 1914.89 208.059 Q1915.33 208.059 1915.86 208.128 Q1916.4 208.175 1917.04 208.29 L1917.07 212.665 Z" fill="#000000" fill-rule="evenodd" fill-opacity="1" /><path clip-path="url(#clip580)" d="M 0 0 M1942.67 220.582 L1942.67 222.665 L1923.09 222.665 Q1923.36 227.063 1925.72 229.378 Q1928.11 231.67 1932.34 231.67 Q1934.8 231.67 1937.09 231.068 Q1939.4 230.466 1941.67 229.262 L1941.67 233.29 Q1939.38 234.262 1936.97 234.772 Q1934.57 235.281 1932.09 235.281 Q1925.89 235.281 1922.25 231.67 Q1918.64 228.059 1918.64 221.901 Q1918.64 215.536 1922.07 211.809 Q1925.52 208.059 1931.35 208.059 Q1936.58 208.059 1939.61 211.438 Q1942.67 214.795 1942.67 220.582 M1938.41 219.332 Q1938.36 215.837 1936.44 213.753 Q1934.54 211.67 1931.4 211.67 Q1927.83 211.67 1925.68 213.684 Q1923.55 215.698 1923.22 219.355 L1938.41 219.332 Z" fill="#000000" fill-rule="evenodd" fill-opacity="1" /><path clip-path="url(#clip580)" d="M 0 0 M1947.14 208.684 L1951.4 208.684 L1951.4 235.073 Q1951.4 240.026 1949.5 242.248 Q1947.62 244.471 1943.43 244.471 L1941.81 244.471 L1941.81 240.86 L1942.95 240.86 Q1945.38 240.86 1946.26 239.725 Q1947.14 238.614 1947.14 235.073 L1947.14 208.684 M1947.14 198.591 L1951.4 198.591 L1951.4 203.985 L1947.14 203.985 L1947.14 198.591 Z" fill="#000000" fill-rule="evenodd" fill-opacity="1" /><path clip-path="url(#clip580)" d="M 0 0 M1978.04 220.582 L1978.04 222.665 L1958.46 222.665 Q1958.73 227.063 1961.09 229.378 Q1963.48 231.67 1967.71 231.67 Q1970.17 231.67 1972.46 231.068 Q1974.78 230.466 1977.04 229.262 L1977.04 233.29 Q1974.75 234.262 1972.34 234.772 Q1969.94 235.281 1967.46 235.281 Q1961.26 235.281 1957.62 231.67 Q1954.01 228.059 1954.01 221.901 Q1954.01 215.536 1957.44 211.809 Q1960.89 208.059 1966.72 208.059 Q1971.95 208.059 1974.98 211.438 Q1978.04 214.795 1978.04 220.582 M1973.78 219.332 Q1973.73 215.837 1971.81 213.753 Q1969.91 211.67 1966.77 211.67 Q1963.2 211.67 1961.05 213.684 Q1958.92 215.698 1958.59 219.355 L1973.78 219.332 Z" fill="#000000" fill-rule="evenodd" fill-opacity="1" /><path clip-path="url(#clip580)" d="M 0 0 M2001.16 209.679 L2001.16 213.661 Q1999.36 212.665 1997.53 212.179 Q1995.72 211.67 1993.87 211.67 Q1989.73 211.67 1987.44 214.309 Q1985.15 216.924 1985.15 221.67 Q1985.15 226.415 1987.44 229.054 Q1989.73 231.67 1993.87 231.67 Q1995.72 231.67 1997.53 231.184 Q1999.36 230.674 2001.16 229.679 L2001.16 233.614 Q1999.38 234.448 1997.46 234.864 Q1995.56 235.281 1993.41 235.281 Q1987.55 235.281 1984.1 231.6 Q1980.65 227.92 1980.65 221.67 Q1980.65 215.327 1984.13 211.693 Q1987.62 208.059 1993.69 208.059 Q1995.65 208.059 1997.53 208.475 Q1999.4 208.869 2001.16 209.679 Z" fill="#000000" fill-rule="evenodd" fill-opacity="1" /><path clip-path="url(#clip580)" d="M 0 0 M2009.84 201.323 L2009.84 208.684 L2018.62 208.684 L2018.62 211.994 L2009.84 211.994 L2009.84 226.068 Q2009.84 229.239 2010.7 230.142 Q2011.58 231.045 2014.24 231.045 L2018.62 231.045 L2018.62 234.61 L2014.24 234.61 Q2009.31 234.61 2007.44 232.781 Q2005.56 230.929 2005.56 226.068 L2005.56 211.994 L2002.44 211.994 L2002.44 208.684 L2005.56 208.684 L2005.56 201.323 L2009.84 201.323 Z" fill="#000000" fill-rule="evenodd" fill-opacity="1" /><path clip-path="url(#clip580)" d="M 0 0 M2023.08 208.684 L2027.34 208.684 L2027.34 234.61 L2023.08 234.61 L2023.08 208.684 M2023.08 198.591 L2027.34 198.591 L2027.34 203.985 L2023.08 203.985 L2023.08 198.591 Z" fill="#000000" fill-rule="evenodd" fill-opacity="1" /><path clip-path="url(#clip580)" d="M 0 0 M2041.86 211.67 Q2038.43 211.67 2036.44 214.355 Q2034.45 217.017 2034.45 221.67 Q2034.45 226.323 2036.42 229.008 Q2038.41 231.67 2041.86 231.67 Q2045.26 231.67 2047.25 228.985 Q2049.24 226.299 2049.24 221.67 Q2049.24 217.063 2047.25 214.378 Q2045.26 211.67 2041.86 211.67 M2041.86 208.059 Q2047.41 208.059 2050.58 211.67 Q2053.76 215.281 2053.76 221.67 Q2053.76 228.036 2050.58 231.67 Q2047.41 235.281 2041.86 235.281 Q2036.28 235.281 2033.11 231.67 Q2029.96 228.036 2029.96 221.67 Q2029.96 215.281 2033.11 211.67 Q2036.28 208.059 2041.86 208.059 Z" fill="#000000" fill-rule="evenodd" fill-opacity="1" /><path clip-path="url(#clip580)" d="M 0 0 M2079.77 218.961 L2079.77 234.61 L2075.52 234.61 L2075.52 219.1 Q2075.52 215.42 2074.08 213.591 Q2072.64 211.762 2069.77 211.762 Q2066.33 211.762 2064.33 213.962 Q2062.34 216.161 2062.34 219.957 L2062.34 234.61 L2058.06 234.61 L2058.06 208.684 L2062.34 208.684 L2062.34 212.712 Q2063.87 210.374 2065.93 209.216 Q2068.02 208.059 2070.72 208.059 Q2075.19 208.059 2077.48 210.837 Q2079.77 213.591 2079.77 218.961 Z" fill="#000000" fill-rule="evenodd" fill-opacity="1" /><path clip-path="url(#clip580)" d="M 0 0 M2114.33 212.665 Q2113.62 212.249 2112.76 212.063 Q2111.93 211.855 2110.91 211.855 Q2107.3 211.855 2105.35 214.216 Q2103.43 216.554 2103.43 220.952 L2103.43 234.61 L2099.15 234.61 L2099.15 208.684 L2103.43 208.684 L2103.43 212.712 Q2104.77 210.35 2106.93 209.216 Q2109.08 208.059 2112.16 208.059 Q2112.6 208.059 2113.13 208.128 Q2113.66 208.175 2114.31 208.29 L2114.33 212.665 Z" fill="#000000" fill-rule="evenodd" fill-opacity="1" /><path clip-path="url(#clip580)" d="M 0 0 M2139.94 220.582 L2139.94 222.665 L2120.35 222.665 Q2120.63 227.063 2122.99 229.378 Q2125.38 231.67 2129.61 231.67 Q2132.07 231.67 2134.36 231.068 Q2136.67 230.466 2138.94 229.262 L2138.94 233.29 Q2136.65 234.262 2134.24 234.772 Q2131.83 235.281 2129.36 235.281 Q2123.15 235.281 2119.52 231.67 Q2115.91 228.059 2115.91 221.901 Q2115.91 215.536 2119.33 211.809 Q2122.78 208.059 2128.62 208.059 Q2133.85 208.059 2136.88 211.438 Q2139.94 214.795 2139.94 220.582 M2135.68 219.332 Q2135.63 215.837 2133.71 213.753 Q2131.81 211.67 2128.66 211.67 Q2125.1 211.67 2122.95 213.684 Q2120.82 215.698 2120.49 219.355 L2135.68 219.332 Z" fill="#000000" fill-rule="evenodd" fill-opacity="1" /><path clip-path="url(#clip580)" d="M 0 0 M2161.46 221.346 Q2161.46 216.716 2159.54 214.17 Q2157.64 211.624 2154.2 211.624 Q2150.77 211.624 2148.85 214.17 Q2146.95 216.716 2146.95 221.346 Q2146.95 225.952 2148.85 228.498 Q2150.77 231.045 2154.2 231.045 Q2157.64 231.045 2159.54 228.498 Q2161.46 225.952 2161.46 221.346 M2165.72 231.392 Q2165.72 238.012 2162.78 241.23 Q2159.84 244.471 2153.78 244.471 Q2151.53 244.471 2149.54 244.123 Q2147.55 243.799 2145.68 243.105 L2145.68 238.961 Q2147.55 239.98 2149.38 240.466 Q2151.21 240.952 2153.11 240.952 Q2157.3 240.952 2159.38 238.753 Q2161.46 236.577 2161.46 232.156 L2161.46 230.049 Q2160.14 232.341 2158.08 233.475 Q2156.02 234.61 2153.15 234.61 Q2148.39 234.61 2145.47 230.975 Q2142.55 227.341 2142.55 221.346 Q2142.55 215.327 2145.47 211.693 Q2148.39 208.059 2153.15 208.059 Q2156.02 208.059 2158.08 209.193 Q2160.14 210.327 2161.46 212.619 L2161.46 208.684 L2165.72 208.684 L2165.72 231.392 Z" fill="#000000" fill-rule="evenodd" fill-opacity="1" /><path clip-path="url(#clip580)" d="M 0 0 M2170.19 208.684 L2174.45 208.684 L2174.45 234.61 L2170.19 234.61 L2170.19 208.684 M2170.19 198.591 L2174.45 198.591 L2174.45 203.985 L2170.19 203.985 L2170.19 198.591 Z" fill="#000000" fill-rule="evenodd" fill-opacity="1" /><path clip-path="url(#clip580)" d="M 0 0 M2188.96 211.67 Q2185.54 211.67 2183.55 214.355 Q2181.56 217.017 2181.56 221.67 Q2181.56 226.323 2183.52 229.008 Q2185.51 231.67 2188.96 231.67 Q2192.37 231.67 2194.36 228.985 Q2196.35 226.299 2196.35 221.67 Q2196.35 217.063 2194.36 214.378 Q2192.37 211.67 2188.96 211.67 M2188.96 208.059 Q2194.52 208.059 2197.69 211.67 Q2200.86 215.281 2200.86 221.67 Q2200.86 228.036 2197.69 231.67 Q2194.52 235.281 2188.96 235.281 Q2183.39 235.281 2180.21 231.67 Q2177.07 228.036 2177.07 221.67 Q2177.07 215.281 2180.21 211.67 Q2183.39 208.059 2188.96 208.059 Z" fill="#000000" fill-rule="evenodd" fill-opacity="1" /><path clip-path="url(#clip580)" d="M 0 0 M2226.88 218.961 L2226.88 234.61 L2222.62 234.61 L2222.62 219.1 Q2222.62 215.42 2221.19 213.591 Q2219.75 211.762 2216.88 211.762 Q2213.43 211.762 2211.44 213.962 Q2209.45 216.161 2209.45 219.957 L2209.45 234.61 L2205.17 234.61 L2205.17 208.684 L2209.45 208.684 L2209.45 212.712 Q2210.98 210.374 2213.04 209.216 Q2215.12 208.059 2217.83 208.059 Q2222.3 208.059 2224.59 210.837 Q2226.88 213.591 2226.88 218.961 Z" fill="#000000" fill-rule="evenodd" fill-opacity="1" /><path clip-path="url(#clip580)" d="
M1519.75 302.002 L1670.81 302.002 L1670.81 253.618 L1519.75 253.618 L1519.75 302.002  Z
  " fill="#ffa500" fill-rule="evenodd" fill-opacity="0.5"/>
<polyline clip-path="url(#clip580)" style="stroke:#ffa500; stroke-width:4; stroke-opacity:1; fill:none" points="
  1519.75,253.618 1670.81,253.618 
  "/>
<path clip-path="url(#clip580)" d="M 0 0 M1700.38 282.15 Q1700.38 286.849 1702.3 289.534 Q1704.24 292.196 1707.62 292.196 Q1711 292.196 1712.95 289.534 Q1714.89 286.849 1714.89 282.15 Q1714.89 277.451 1712.95 274.789 Q1711 272.104 1707.62 272.104 Q1704.24 272.104 1702.3 274.789 Q1700.38 277.451 1700.38 282.15 M1714.89 291.201 Q1713.55 293.515 1711.49 294.65 Q1709.45 295.761 1706.58 295.761 Q1701.88 295.761 1698.92 292.011 Q1695.98 288.261 1695.98 282.15 Q1695.98 276.039 1698.92 272.289 Q1701.88 268.539 1706.58 268.539 Q1709.45 268.539 1711.49 269.673 Q1713.55 270.784 1714.89 273.099 L1714.89 269.164 L1719.15 269.164 L1719.15 304.951 L1714.89 304.951 L1714.89 291.201 Z" fill="#000000" fill-rule="evenodd" fill-opacity="1" /><path clip-path="url(#clip580)" d="M 0 0 M1724.36 294.372 L1724.36 290.113 Q1726.12 290.946 1727.92 291.386 Q1729.73 291.826 1731.47 291.826 Q1736.1 291.826 1738.53 288.724 Q1740.98 285.599 1741.33 279.256 Q1739.98 281.247 1737.92 282.312 Q1735.86 283.377 1733.36 283.377 Q1728.18 283.377 1725.15 280.252 Q1722.14 277.104 1722.14 271.664 Q1722.14 266.34 1725.29 263.122 Q1728.43 259.905 1733.67 259.905 Q1739.66 259.905 1742.81 264.511 Q1745.98 269.094 1745.98 277.844 Q1745.98 286.016 1742.09 290.9 Q1738.23 295.761 1731.67 295.761 Q1729.92 295.761 1728.11 295.414 Q1726.3 295.066 1724.36 294.372 M1733.67 279.719 Q1736.81 279.719 1738.64 277.566 Q1740.49 275.414 1740.49 271.664 Q1740.49 267.937 1738.64 265.784 Q1736.81 263.608 1733.67 263.608 Q1730.52 263.608 1728.67 265.784 Q1726.84 267.937 1726.84 271.664 Q1726.84 275.414 1728.67 277.566 Q1730.52 279.719 1733.67 279.719 Z" fill="#000000" fill-rule="evenodd" fill-opacity="1" /><path clip-path="url(#clip580)" d="M 0 0 M1751.1 260.53 L1769.45 260.53 L1769.45 264.465 L1755.38 264.465 L1755.38 272.937 Q1756.4 272.59 1757.42 272.428 Q1758.43 272.242 1759.45 272.242 Q1765.24 272.242 1768.62 275.414 Q1772 278.585 1772 284.002 Q1772 289.58 1768.53 292.682 Q1765.05 295.761 1758.73 295.761 Q1756.56 295.761 1754.29 295.39 Q1752.04 295.02 1749.64 294.279 L1749.64 289.58 Q1751.72 290.715 1753.94 291.27 Q1756.17 291.826 1758.64 291.826 Q1762.65 291.826 1764.98 289.719 Q1767.32 287.613 1767.32 284.002 Q1767.32 280.391 1764.98 278.284 Q1762.65 276.178 1758.64 276.178 Q1756.77 276.178 1754.89 276.594 Q1753.04 277.011 1751.1 277.891 L1751.1 260.53 Z" fill="#000000" fill-rule="evenodd" fill-opacity="1" /><polyline clip-path="url(#clip580)" style="stroke:#0000ff; stroke-width:4; stroke-opacity:1; fill:none" points="
  1519.75,338.29 1670.81,338.29 
  "/>
<path clip-path="url(#clip580)" d="M 0 0 M1716.33 334.621 Q1717.92 331.75 1720.15 330.385 Q1722.37 329.019 1725.38 329.019 Q1729.43 329.019 1731.63 331.866 Q1733.83 334.69 1733.83 339.921 L1733.83 355.57 L1729.54 355.57 L1729.54 340.06 Q1729.54 336.334 1728.23 334.528 Q1726.91 332.722 1724.2 332.722 Q1720.89 332.722 1718.97 334.922 Q1717.04 337.121 1717.04 340.917 L1717.04 355.57 L1712.76 355.57 L1712.76 340.06 Q1712.76 336.31 1711.44 334.528 Q1710.12 332.722 1707.37 332.722 Q1704.11 332.722 1702.18 334.945 Q1700.26 337.144 1700.26 340.917 L1700.26 355.57 L1695.98 355.57 L1695.98 329.644 L1700.26 329.644 L1700.26 333.672 Q1701.72 331.287 1703.76 330.153 Q1705.79 329.019 1708.6 329.019 Q1711.42 329.019 1713.39 330.454 Q1715.38 331.889 1716.33 334.621 Z" fill="#000000" fill-rule="evenodd" fill-opacity="1" /><path clip-path="url(#clip580)" d="M 0 0 M1760.47 341.542 L1760.47 343.625 L1740.89 343.625 Q1741.17 348.023 1743.53 350.338 Q1745.91 352.63 1750.15 352.63 Q1752.6 352.63 1754.89 352.028 Q1757.21 351.426 1759.48 350.222 L1759.48 354.25 Q1757.18 355.222 1754.78 355.732 Q1752.37 356.241 1749.89 356.241 Q1743.69 356.241 1740.05 352.63 Q1736.44 349.019 1736.44 342.861 Q1736.44 336.496 1739.87 332.769 Q1743.32 329.019 1749.15 329.019 Q1754.38 329.019 1757.42 332.398 Q1760.47 335.755 1760.47 341.542 M1756.21 340.292 Q1756.17 336.797 1754.24 334.713 Q1752.35 332.63 1749.2 332.63 Q1745.63 332.63 1743.48 334.644 Q1741.35 336.658 1741.03 340.315 L1756.21 340.292 Z" fill="#000000" fill-rule="evenodd" fill-opacity="1" /><path clip-path="url(#clip580)" d="M 0 0 M1776.72 342.537 Q1771.56 342.537 1769.57 343.718 Q1767.58 344.898 1767.58 347.746 Q1767.58 350.014 1769.06 351.357 Q1770.56 352.676 1773.13 352.676 Q1776.67 352.676 1778.8 350.176 Q1780.96 347.653 1780.96 343.486 L1780.96 342.537 L1776.72 342.537 M1785.22 340.778 L1785.22 355.57 L1780.96 355.57 L1780.96 351.634 Q1779.5 353.995 1777.32 355.13 Q1775.15 356.241 1772 356.241 Q1768.02 356.241 1765.66 354.019 Q1763.32 351.773 1763.32 348.023 Q1763.32 343.648 1766.23 341.426 Q1769.17 339.204 1774.98 339.204 L1780.96 339.204 L1780.96 338.787 Q1780.96 335.847 1779.01 334.25 Q1777.09 332.63 1773.6 332.63 Q1771.37 332.63 1769.27 333.162 Q1767.16 333.695 1765.22 334.759 L1765.22 330.824 Q1767.55 329.922 1769.75 329.482 Q1771.95 329.019 1774.04 329.019 Q1779.66 329.019 1782.44 331.935 Q1785.22 334.852 1785.22 340.778 Z" fill="#000000" fill-rule="evenodd" fill-opacity="1" /><path clip-path="url(#clip580)" d="M 0 0 M1811.23 339.921 L1811.23 355.57 L1806.97 355.57 L1806.97 340.06 Q1806.97 336.38 1805.54 334.551 Q1804.1 332.722 1801.23 332.722 Q1797.79 332.722 1795.79 334.922 Q1793.8 337.121 1793.8 340.917 L1793.8 355.57 L1789.52 355.57 L1789.52 329.644 L1793.8 329.644 L1793.8 333.672 Q1795.33 331.334 1797.39 330.176 Q1799.48 329.019 1802.18 329.019 Q1806.65 329.019 1808.94 331.797 Q1811.23 334.551 1811.23 339.921 Z" fill="#000000" fill-rule="evenodd" fill-opacity="1" /><polyline clip-path="url(#clip580)" style="stroke:#000000; stroke-width:4; stroke-opacity:1; fill:none" points="
  1519.75,398.77 1670.81,398.77 
  "/>
<path clip-path="url(#clip580)" d="M 0 0 M1716.33 395.101 Q1717.92 392.23 1720.15 390.865 Q1722.37 389.499 1725.38 389.499 Q1729.43 389.499 1731.63 392.346 Q1733.83 395.17 1733.83 400.401 L1733.83 416.05 L1729.54 416.05 L1729.54 400.54 Q1729.54 396.814 1728.23 395.008 Q1726.91 393.202 1724.2 393.202 Q1720.89 393.202 1718.97 395.402 Q1717.04 397.601 1717.04 401.397 L1717.04 416.05 L1712.76 416.05 L1712.76 400.54 Q1712.76 396.79 1711.44 395.008 Q1710.12 393.202 1707.37 393.202 Q1704.11 393.202 1702.18 395.425 Q1700.26 397.624 1700.26 401.397 L1700.26 416.05 L1695.98 416.05 L1695.98 390.124 L1700.26 390.124 L1700.26 394.152 Q1701.72 391.767 1703.76 390.633 Q1705.79 389.499 1708.6 389.499 Q1711.42 389.499 1713.39 390.934 Q1715.38 392.369 1716.33 395.101 Z" fill="#000000" fill-rule="evenodd" fill-opacity="1" /><path clip-path="url(#clip580)" d="M 0 0 M1760.47 402.022 L1760.47 404.105 L1740.89 404.105 Q1741.17 408.503 1743.53 410.818 Q1745.91 413.11 1750.15 413.11 Q1752.6 413.11 1754.89 412.508 Q1757.21 411.906 1759.48 410.702 L1759.48 414.73 Q1757.18 415.702 1754.78 416.212 Q1752.37 416.721 1749.89 416.721 Q1743.69 416.721 1740.05 413.11 Q1736.44 409.499 1736.44 403.341 Q1736.44 396.976 1739.87 393.249 Q1743.32 389.499 1749.15 389.499 Q1754.38 389.499 1757.42 392.878 Q1760.47 396.235 1760.47 402.022 M1756.21 400.772 Q1756.17 397.277 1754.24 395.193 Q1752.35 393.11 1749.2 393.11 Q1745.63 393.11 1743.48 395.124 Q1741.35 397.138 1741.03 400.795 L1756.21 400.772 Z" fill="#000000" fill-rule="evenodd" fill-opacity="1" /><path clip-path="url(#clip580)" d="M 0 0 M1782 394.059 L1782 380.031 L1786.26 380.031 L1786.26 416.05 L1782 416.05 L1782 412.161 Q1780.66 414.475 1778.6 415.61 Q1776.56 416.721 1773.69 416.721 Q1768.99 416.721 1766.03 412.971 Q1763.09 409.221 1763.09 403.11 Q1763.09 396.999 1766.03 393.249 Q1768.99 389.499 1773.69 389.499 Q1776.56 389.499 1778.6 390.633 Q1780.66 391.744 1782 394.059 M1767.48 403.11 Q1767.48 407.809 1769.41 410.494 Q1771.35 413.156 1774.73 413.156 Q1778.11 413.156 1780.05 410.494 Q1782 407.809 1782 403.11 Q1782 398.411 1780.05 395.749 Q1778.11 393.064 1774.73 393.064 Q1771.35 393.064 1769.41 395.749 Q1767.48 398.411 1767.48 403.11 Z" fill="#000000" fill-rule="evenodd" fill-opacity="1" /><path clip-path="url(#clip580)" d="M 0 0 M1790.73 390.124 L1794.98 390.124 L1794.98 416.05 L1790.73 416.05 L1790.73 390.124 M1790.73 380.031 L1794.98 380.031 L1794.98 385.425 L1790.73 385.425 L1790.73 380.031 Z" fill="#000000" fill-rule="evenodd" fill-opacity="1" /><path clip-path="url(#clip580)" d="M 0 0 M1811.23 403.017 Q1806.07 403.017 1804.08 404.198 Q1802.09 405.378 1802.09 408.226 Q1802.09 410.494 1803.57 411.837 Q1805.08 413.156 1807.65 413.156 Q1811.19 413.156 1813.32 410.656 Q1815.47 408.133 1815.47 403.966 L1815.47 403.017 L1811.23 403.017 M1819.73 401.258 L1819.73 416.05 L1815.47 416.05 L1815.47 412.114 Q1814.01 414.475 1811.84 415.61 Q1809.66 416.721 1806.51 416.721 Q1802.53 416.721 1800.17 414.499 Q1797.83 412.253 1797.83 408.503 Q1797.83 404.128 1800.75 401.906 Q1803.69 399.684 1809.5 399.684 L1815.47 399.684 L1815.47 399.267 Q1815.47 396.327 1813.53 394.73 Q1811.6 393.11 1808.11 393.11 Q1805.89 393.11 1803.78 393.642 Q1801.67 394.175 1799.73 395.239 L1799.73 391.304 Q1802.07 390.402 1804.27 389.962 Q1806.47 389.499 1808.55 389.499 Q1814.17 389.499 1816.95 392.415 Q1819.73 395.332 1819.73 401.258 Z" fill="#000000" fill-rule="evenodd" fill-opacity="1" /><path clip-path="url(#clip580)" d="M 0 0 M1845.75 400.401 L1845.75 416.05 L1841.49 416.05 L1841.49 400.54 Q1841.49 396.86 1840.05 395.031 Q1838.62 393.202 1835.75 393.202 Q1832.3 393.202 1830.31 395.402 Q1828.32 397.601 1828.32 401.397 L1828.32 416.05 L1824.04 416.05 L1824.04 390.124 L1828.32 390.124 L1828.32 394.152 Q1829.85 391.814 1831.91 390.656 Q1833.99 389.499 1836.7 389.499 Q1841.16 389.499 1843.46 392.277 Q1845.75 395.031 1845.75 400.401 Z" fill="#000000" fill-rule="evenodd" fill-opacity="1" /></svg>
