<?xml version="1.0" encoding="utf-8"?>
<svg xmlns="http://www.w3.org/2000/svg" xmlns:xlink="http://www.w3.org/1999/xlink" width="600" height="400" viewBox="0 0 2400 1600">
<defs>
  <clipPath id="clip080">
    <rect x="0" y="0" width="2400" height="1600"/>
  </clipPath>
</defs>
<path clip-path="url(#clip080)" d="
M0 1600 L2400 1600 L2400 0 L0 0  Z
  " fill="#ffffff" fill-rule="evenodd" fill-opacity="1"/>
<defs>
  <clipPath id="clip081">
    <rect x="480" y="0" width="1681" height="1600"/>
  </clipPath>
</defs>
<path clip-path="url(#clip080)" d="
M86.9921 1521.01 L2352.76 1521.01 L2352.76 47.2441 L86.9921 47.2441  Z
  " fill="#ffffff" fill-rule="evenodd" fill-opacity="1"/>
<defs>
  <clipPath id="clip082">
    <rect x="86" y="47" width="2267" height="1475"/>
  </clipPath>
</defs>
<polyline clip-path="url(#clip082)" style="stroke:#000000; stroke-width:2; stroke-opacity:0.1; fill:none" points="
  450.104,1521.01 450.104,47.2441 
  "/>
<polyline clip-path="url(#clip082)" style="stroke:#000000; stroke-width:2; stroke-opacity:0.1; fill:none" points="
  833.069,1521.01 833.069,47.2441 
  "/>
<polyline clip-path="url(#clip082)" style="stroke:#000000; stroke-width:2; stroke-opacity:0.1; fill:none" points="
  1216.03,1521.01 1216.03,47.2441 
  "/>
<polyline clip-path="url(#clip082)" style="stroke:#000000; stroke-width:2; stroke-opacity:0.1; fill:none" points="
  1599,1521.01 1599,47.2441 
  "/>
<polyline clip-path="url(#clip082)" style="stroke:#000000; stroke-width:2; stroke-opacity:0.1; fill:none" points="
  1981.96,1521.01 1981.96,47.2441 
  "/>
<polyline clip-path="url(#clip082)" style="stroke:#000000; stroke-width:2; stroke-opacity:0.1; fill:none" points="
  86.9921,1479.3 2352.76,1479.3 
  "/>
<polyline clip-path="url(#clip082)" style="stroke:#000000; stroke-width:2; stroke-opacity:0.1; fill:none" points="
  86.9921,1132.76 2352.76,1132.76 
  "/>
<polyline clip-path="url(#clip082)" style="stroke:#000000; stroke-width:2; stroke-opacity:0.1; fill:none" points="
  86.9921,786.231 2352.76,786.231 
  "/>
<polyline clip-path="url(#clip082)" style="stroke:#000000; stroke-width:2; stroke-opacity:0.1; fill:none" points="
  86.9921,439.698 2352.76,439.698 
  "/>
<polyline clip-path="url(#clip082)" style="stroke:#000000; stroke-width:2; stroke-opacity:0.1; fill:none" points="
  86.9921,93.1643 2352.76,93.1643 
  "/>
<polyline clip-path="url(#clip080)" style="stroke:#000000; stroke-width:4; stroke-opacity:1; fill:none" points="
  86.9921,1521.01 2352.76,1521.01 
  "/>
<polyline clip-path="url(#clip080)" style="stroke:#000000; stroke-width:4; stroke-opacity:1; fill:none" points="
  86.9921,1521.01 86.9921,47.2441 
  "/>
<polyline clip-path="url(#clip080)" style="stroke:#000000; stroke-width:4; stroke-opacity:1; fill:none" points="
  450.104,1521.01 450.104,1503.32 
  "/>
<polyline clip-path="url(#clip080)" style="stroke:#000000; stroke-width:4; stroke-opacity:1; fill:none" points="
  833.069,1521.01 833.069,1503.32 
  "/>
<polyline clip-path="url(#clip080)" style="stroke:#000000; stroke-width:4; stroke-opacity:1; fill:none" points="
  1216.03,1521.01 1216.03,1503.32 
  "/>
<polyline clip-path="url(#clip080)" style="stroke:#000000; stroke-width:4; stroke-opacity:1; fill:none" points="
  1599,1521.01 1599,1503.32 
  "/>
<polyline clip-path="url(#clip080)" style="stroke:#000000; stroke-width:4; stroke-opacity:1; fill:none" points="
  1981.96,1521.01 1981.96,1503.32 
  "/>
<polyline clip-path="url(#clip080)" style="stroke:#000000; stroke-width:4; stroke-opacity:1; fill:none" points="
  86.9921,1479.3 114.181,1479.3 
  "/>
<polyline clip-path="url(#clip080)" style="stroke:#000000; stroke-width:4; stroke-opacity:1; fill:none" points="
  86.9921,1132.76 114.181,1132.76 
  "/>
<polyline clip-path="url(#clip080)" style="stroke:#000000; stroke-width:4; stroke-opacity:1; fill:none" points="
  86.9921,786.231 114.181,786.231 
  "/>
<polyline clip-path="url(#clip080)" style="stroke:#000000; stroke-width:4; stroke-opacity:1; fill:none" points="
  86.9921,439.698 114.181,439.698 
  "/>
<polyline clip-path="url(#clip080)" style="stroke:#000000; stroke-width:4; stroke-opacity:1; fill:none" points="
  86.9921,93.1643 114.181,93.1643 
  "/>
<path clip-path="url(#clip080)" d="M 0 0 M418.438 1543 Q414.827 1543 412.998 1546.56 Q411.193 1550.11 411.193 1557.23 Q411.193 1564.34 412.998 1567.91 Q414.827 1571.45 418.438 1571.45 Q422.072 1571.45 423.878 1567.91 Q425.706 1564.34 425.706 1557.23 Q425.706 1550.11 423.878 1546.56 Q422.072 1543 418.438 1543 M418.438 1539.29 Q424.248 1539.29 427.304 1543.9 Q430.382 1548.48 430.382 1557.23 Q430.382 1565.96 427.304 1570.57 Q424.248 1575.15 418.438 1575.15 Q412.628 1575.15 409.549 1570.57 Q406.493 1565.96 406.493 1557.23 Q406.493 1548.48 409.549 1543.9 Q412.628 1539.29 418.438 1539.29 Z" fill="#000000" fill-rule="evenodd" fill-opacity="1" /><path clip-path="url(#clip080)" d="M 0 0 M435.452 1568.6 L440.336 1568.6 L440.336 1574.48 L435.452 1574.48 L435.452 1568.6 Z" fill="#000000" fill-rule="evenodd" fill-opacity="1" /><path clip-path="url(#clip080)" d="M 0 0 M459.572 1555.85 Q462.928 1556.56 464.803 1558.83 Q466.702 1561.1 466.702 1564.43 Q466.702 1569.55 463.183 1572.35 Q459.665 1575.15 453.183 1575.15 Q451.007 1575.15 448.692 1574.71 Q446.401 1574.29 443.947 1573.44 L443.947 1568.92 Q445.891 1570.06 448.206 1570.64 Q450.521 1571.22 453.044 1571.22 Q457.442 1571.22 459.734 1569.48 Q462.049 1567.74 462.049 1564.43 Q462.049 1561.38 459.896 1559.67 Q457.766 1557.93 453.947 1557.93 L449.919 1557.93 L449.919 1554.09 L454.132 1554.09 Q457.581 1554.09 459.41 1552.72 Q461.239 1551.33 461.239 1548.74 Q461.239 1546.08 459.34 1544.67 Q457.465 1543.23 453.947 1543.23 Q452.026 1543.23 449.827 1543.65 Q447.628 1544.06 444.989 1544.94 L444.989 1540.78 Q447.651 1540.04 449.965 1539.67 Q452.303 1539.29 454.364 1539.29 Q459.688 1539.29 462.789 1541.73 Q465.891 1544.13 465.891 1548.25 Q465.891 1551.12 464.248 1553.11 Q462.604 1555.08 459.572 1555.85 Z" fill="#000000" fill-rule="evenodd" fill-opacity="1" /><path clip-path="url(#clip080)" d="M 0 0 M481.771 1543 Q478.16 1543 476.331 1546.56 Q474.526 1550.11 474.526 1557.23 Q474.526 1564.34 476.331 1567.91 Q478.16 1571.45 481.771 1571.45 Q485.405 1571.45 487.211 1567.91 Q489.039 1564.34 489.039 1557.23 Q489.039 1550.11 487.211 1546.56 Q485.405 1543 481.771 1543 M481.771 1539.29 Q487.581 1539.29 490.637 1543.9 Q493.715 1548.48 493.715 1557.23 Q493.715 1565.96 490.637 1570.57 Q487.581 1575.15 481.771 1575.15 Q475.961 1575.15 472.882 1570.57 Q469.826 1565.96 469.826 1557.23 Q469.826 1548.48 472.882 1543.9 Q475.961 1539.29 481.771 1539.29 Z" fill="#000000" fill-rule="evenodd" fill-opacity="1" /><path clip-path="url(#clip080)" d="M 0 0 M801.901 1543 Q798.29 1543 796.461 1546.56 Q794.655 1550.11 794.655 1557.23 Q794.655 1564.34 796.461 1567.91 Q798.29 1571.45 801.901 1571.45 Q805.535 1571.45 807.34 1567.91 Q809.169 1564.34 809.169 1557.23 Q809.169 1550.11 807.34 1546.56 Q805.535 1543 801.901 1543 M801.901 1539.29 Q807.711 1539.29 810.766 1543.9 Q813.845 1548.48 813.845 1557.23 Q813.845 1565.96 810.766 1570.57 Q807.711 1575.15 801.901 1575.15 Q796.09 1575.15 793.012 1570.57 Q789.956 1565.96 789.956 1557.23 Q789.956 1548.48 793.012 1543.9 Q796.09 1539.29 801.901 1539.29 Z" fill="#000000" fill-rule="evenodd" fill-opacity="1" /><path clip-path="url(#clip080)" d="M 0 0 M818.914 1568.6 L823.799 1568.6 L823.799 1574.48 L818.914 1574.48 L818.914 1568.6 Z" fill="#000000" fill-rule="evenodd" fill-opacity="1" /><path clip-path="url(#clip080)" d="M 0 0 M843.035 1555.85 Q846.391 1556.56 848.266 1558.83 Q850.164 1561.1 850.164 1564.43 Q850.164 1569.55 846.646 1572.35 Q843.127 1575.15 836.646 1575.15 Q834.47 1575.15 832.155 1574.71 Q829.863 1574.29 827.41 1573.44 L827.41 1568.92 Q829.354 1570.06 831.669 1570.64 Q833.984 1571.22 836.507 1571.22 Q840.905 1571.22 843.197 1569.48 Q845.511 1567.74 845.511 1564.43 Q845.511 1561.38 843.359 1559.67 Q841.229 1557.93 837.41 1557.93 L833.382 1557.93 L833.382 1554.09 L837.595 1554.09 Q841.044 1554.09 842.873 1552.72 Q844.701 1551.33 844.701 1548.74 Q844.701 1546.08 842.803 1544.67 Q840.928 1543.23 837.41 1543.23 Q835.488 1543.23 833.289 1543.65 Q831.09 1544.06 828.451 1544.94 L828.451 1540.78 Q831.113 1540.04 833.428 1539.67 Q835.766 1539.29 837.826 1539.29 Q843.15 1539.29 846.252 1541.73 Q849.354 1544.13 849.354 1548.25 Q849.354 1551.12 847.711 1553.11 Q846.067 1555.08 843.035 1555.85 Z" fill="#000000" fill-rule="evenodd" fill-opacity="1" /><path clip-path="url(#clip080)" d="M 0 0 M855.28 1539.92 L873.636 1539.92 L873.636 1543.86 L859.562 1543.86 L859.562 1552.33 Q860.581 1551.98 861.599 1551.82 Q862.618 1551.63 863.636 1551.63 Q869.423 1551.63 872.803 1554.8 Q876.183 1557.98 876.183 1563.39 Q876.183 1568.97 872.71 1572.07 Q869.238 1575.15 862.919 1575.15 Q860.743 1575.15 858.474 1574.78 Q856.229 1574.41 853.822 1573.67 L853.822 1568.97 Q855.905 1570.1 858.127 1570.66 Q860.349 1571.22 862.826 1571.22 Q866.831 1571.22 869.169 1569.11 Q871.507 1567 871.507 1563.39 Q871.507 1559.78 869.169 1557.67 Q866.831 1555.57 862.826 1555.57 Q860.951 1555.57 859.076 1555.98 Q857.224 1556.4 855.28 1557.28 L855.28 1539.92 Z" fill="#000000" fill-rule="evenodd" fill-opacity="1" /><path clip-path="url(#clip080)" d="M 0 0 M1183.8 1543 Q1180.19 1543 1178.36 1546.56 Q1176.56 1550.11 1176.56 1557.23 Q1176.56 1564.34 1178.36 1567.91 Q1180.19 1571.45 1183.8 1571.45 Q1187.44 1571.45 1189.24 1567.91 Q1191.07 1564.34 1191.07 1557.23 Q1191.07 1550.11 1189.24 1546.56 Q1187.44 1543 1183.8 1543 M1183.8 1539.29 Q1189.61 1539.29 1192.67 1543.9 Q1195.75 1548.48 1195.75 1557.23 Q1195.75 1565.96 1192.67 1570.57 Q1189.61 1575.15 1183.8 1575.15 Q1177.99 1575.15 1174.91 1570.57 Q1171.86 1565.96 1171.86 1557.23 Q1171.86 1548.48 1174.91 1543.9 Q1177.99 1539.29 1183.8 1539.29 Z" fill="#000000" fill-rule="evenodd" fill-opacity="1" /><path clip-path="url(#clip080)" d="M 0 0 M1200.81 1568.6 L1205.7 1568.6 L1205.7 1574.48 L1200.81 1574.48 L1200.81 1568.6 Z" fill="#000000" fill-rule="evenodd" fill-opacity="1" /><path clip-path="url(#clip080)" d="M 0 0 M1223.62 1543.99 L1211.81 1562.44 L1223.62 1562.44 L1223.62 1543.99 M1222.39 1539.92 L1228.27 1539.92 L1228.27 1562.44 L1233.2 1562.44 L1233.2 1566.33 L1228.27 1566.33 L1228.27 1574.48 L1223.62 1574.48 L1223.62 1566.33 L1208.01 1566.33 L1208.01 1561.82 L1222.39 1539.92 Z" fill="#000000" fill-rule="evenodd" fill-opacity="1" /><path clip-path="url(#clip080)" d="M 0 0 M1248.27 1543 Q1244.66 1543 1242.83 1546.56 Q1241.02 1550.11 1241.02 1557.23 Q1241.02 1564.34 1242.83 1567.91 Q1244.66 1571.45 1248.27 1571.45 Q1251.9 1571.45 1253.71 1567.91 Q1255.54 1564.34 1255.54 1557.23 Q1255.54 1550.11 1253.71 1546.56 Q1251.9 1543 1248.27 1543 M1248.27 1539.29 Q1254.08 1539.29 1257.13 1543.9 Q1260.21 1548.48 1260.21 1557.23 Q1260.21 1565.96 1257.13 1570.57 Q1254.08 1575.15 1248.27 1575.15 Q1242.46 1575.15 1239.38 1570.57 Q1236.32 1565.96 1236.32 1557.23 Q1236.32 1548.48 1239.38 1543.9 Q1242.46 1539.29 1248.27 1539.29 Z" fill="#000000" fill-rule="evenodd" fill-opacity="1" /><path clip-path="url(#clip080)" d="M 0 0 M1567.26 1543 Q1563.65 1543 1561.82 1546.56 Q1560.02 1550.11 1560.02 1557.23 Q1560.02 1564.34 1561.82 1567.91 Q1563.65 1571.45 1567.26 1571.45 Q1570.9 1571.45 1572.7 1567.91 Q1574.53 1564.34 1574.53 1557.23 Q1574.53 1550.11 1572.7 1546.56 Q1570.9 1543 1567.26 1543 M1567.26 1539.29 Q1573.07 1539.29 1576.13 1543.9 Q1579.21 1548.48 1579.21 1557.23 Q1579.21 1565.96 1576.13 1570.57 Q1573.07 1575.15 1567.26 1575.15 Q1561.45 1575.15 1558.37 1570.57 Q1555.32 1565.96 1555.32 1557.23 Q1555.32 1548.48 1558.37 1543.9 Q1561.45 1539.29 1567.26 1539.29 Z" fill="#000000" fill-rule="evenodd" fill-opacity="1" /><path clip-path="url(#clip080)" d="M 0 0 M1584.28 1568.6 L1589.16 1568.6 L1589.16 1574.48 L1584.28 1574.48 L1584.28 1568.6 Z" fill="#000000" fill-rule="evenodd" fill-opacity="1" /><path clip-path="url(#clip080)" d="M 0 0 M1607.08 1543.99 L1595.27 1562.44 L1607.08 1562.44 L1607.08 1543.99 M1605.85 1539.92 L1611.73 1539.92 L1611.73 1562.44 L1616.66 1562.44 L1616.66 1566.33 L1611.73 1566.33 L1611.73 1574.48 L1607.08 1574.48 L1607.08 1566.33 L1591.48 1566.33 L1591.48 1561.82 L1605.85 1539.92 Z" fill="#000000" fill-rule="evenodd" fill-opacity="1" /><path clip-path="url(#clip080)" d="M 0 0 M1621.78 1539.92 L1640.13 1539.92 L1640.13 1543.86 L1626.06 1543.86 L1626.06 1552.33 Q1627.08 1551.98 1628.1 1551.82 Q1629.12 1551.63 1630.13 1551.63 Q1635.92 1551.63 1639.3 1554.8 Q1642.68 1557.98 1642.68 1563.39 Q1642.68 1568.97 1639.21 1572.07 Q1635.74 1575.15 1629.42 1575.15 Q1627.24 1575.15 1624.97 1574.78 Q1622.73 1574.41 1620.32 1573.67 L1620.32 1568.97 Q1622.4 1570.1 1624.62 1570.66 Q1626.85 1571.22 1629.32 1571.22 Q1633.33 1571.22 1635.67 1569.11 Q1638 1567 1638 1563.39 Q1638 1559.78 1635.67 1557.67 Q1633.33 1555.57 1629.32 1555.57 Q1627.45 1555.57 1625.57 1555.98 Q1623.72 1556.4 1621.78 1557.28 L1621.78 1539.92 Z" fill="#000000" fill-rule="evenodd" fill-opacity="1" /><path clip-path="url(#clip080)" d="M 0 0 M1950.47 1543 Q1946.86 1543 1945.03 1546.56 Q1943.23 1550.11 1943.23 1557.23 Q1943.23 1564.34 1945.03 1567.91 Q1946.86 1571.45 1950.47 1571.45 Q1954.11 1571.45 1955.91 1567.91 Q1957.74 1564.34 1957.74 1557.23 Q1957.74 1550.11 1955.91 1546.56 Q1954.11 1543 1950.47 1543 M1950.47 1539.29 Q1956.28 1539.29 1959.34 1543.9 Q1962.42 1548.48 1962.42 1557.23 Q1962.42 1565.96 1959.34 1570.57 Q1956.28 1575.15 1950.47 1575.15 Q1944.66 1575.15 1941.58 1570.57 Q1938.53 1565.96 1938.53 1557.23 Q1938.53 1548.48 1941.58 1543.9 Q1944.66 1539.29 1950.47 1539.29 Z" fill="#000000" fill-rule="evenodd" fill-opacity="1" /><path clip-path="url(#clip080)" d="M 0 0 M1967.49 1568.6 L1972.37 1568.6 L1972.37 1574.48 L1967.49 1574.48 L1967.49 1568.6 Z" fill="#000000" fill-rule="evenodd" fill-opacity="1" /><path clip-path="url(#clip080)" d="M 0 0 M1977.49 1539.92 L1995.84 1539.92 L1995.84 1543.86 L1981.77 1543.86 L1981.77 1552.33 Q1982.79 1551.98 1983.8 1551.82 Q1984.82 1551.63 1985.84 1551.63 Q1991.63 1551.63 1995.01 1554.8 Q1998.39 1557.98 1998.39 1563.39 Q1998.39 1568.97 1994.92 1572.07 Q1991.44 1575.15 1985.12 1575.15 Q1982.95 1575.15 1980.68 1574.78 Q1978.43 1574.41 1976.03 1573.67 L1976.03 1568.97 Q1978.11 1570.1 1980.33 1570.66 Q1982.55 1571.22 1985.03 1571.22 Q1989.04 1571.22 1991.37 1569.11 Q1993.71 1567 1993.71 1563.39 Q1993.71 1559.78 1991.37 1557.67 Q1989.04 1555.57 1985.03 1555.57 Q1983.16 1555.57 1981.28 1555.98 Q1979.43 1556.4 1977.49 1557.28 L1977.49 1539.92 Z" fill="#000000" fill-rule="evenodd" fill-opacity="1" /><path clip-path="url(#clip080)" d="M 0 0 M2013.46 1543 Q2009.85 1543 2008.02 1546.56 Q2006.21 1550.11 2006.21 1557.23 Q2006.21 1564.34 2008.02 1567.91 Q2009.85 1571.45 2013.46 1571.45 Q2017.09 1571.45 2018.9 1567.91 Q2020.73 1564.34 2020.73 1557.23 Q2020.73 1550.11 2018.9 1546.56 Q2017.09 1543 2013.46 1543 M2013.46 1539.29 Q2019.27 1539.29 2022.32 1543.9 Q2025.4 1548.48 2025.4 1557.23 Q2025.4 1565.96 2022.32 1570.57 Q2019.27 1575.15 2013.46 1575.15 Q2007.65 1575.15 2004.57 1570.57 Q2001.51 1565.96 2001.51 1557.23 Q2001.51 1548.48 2004.57 1543.9 Q2007.65 1539.29 2013.46 1539.29 Z" fill="#000000" fill-rule="evenodd" fill-opacity="1" /><path clip-path="url(#clip080)" d="M 0 0 M14.0804 1465.1 Q10.4693 1465.1 8.64057 1468.66 Q6.83502 1472.2 6.83502 1479.33 Q6.83502 1486.44 8.64057 1490 Q10.4693 1493.55 14.0804 1493.55 Q17.7146 1493.55 19.5201 1490 Q21.3488 1486.44 21.3488 1479.33 Q21.3488 1472.2 19.5201 1468.66 Q17.7146 1465.1 14.0804 1465.1 M14.0804 1461.39 Q19.8905 1461.39 22.946 1466 Q26.0247 1470.58 26.0247 1479.33 Q26.0247 1488.06 22.946 1492.67 Q19.8905 1497.25 14.0804 1497.25 Q8.2702 1497.25 5.19151 1492.67 Q2.13597 1488.06 2.13597 1479.33 Q2.13597 1470.58 5.19151 1466 Q8.2702 1461.39 14.0804 1461.39 Z" fill="#000000" fill-rule="evenodd" fill-opacity="1" /><path clip-path="url(#clip080)" d="M 0 0 M31.0941 1490.7 L35.9784 1490.7 L35.9784 1496.58 L31.0941 1496.58 L31.0941 1490.7 Z" fill="#000000" fill-rule="evenodd" fill-opacity="1" /><path clip-path="url(#clip080)" d="M 0 0 M51.0477 1465.1 Q47.4367 1465.1 45.608 1468.66 Q43.8024 1472.2 43.8024 1479.33 Q43.8024 1486.44 45.608 1490 Q47.4367 1493.55 51.0477 1493.55 Q54.682 1493.55 56.4875 1490 Q58.3162 1486.44 58.3162 1479.33 Q58.3162 1472.2 56.4875 1468.66 Q54.682 1465.1 51.0477 1465.1 M51.0477 1461.39 Q56.8579 1461.39 59.9134 1466 Q62.9921 1470.58 62.9921 1479.33 Q62.9921 1488.06 59.9134 1492.67 Q56.8579 1497.25 51.0477 1497.25 Q45.2376 1497.25 42.1589 1492.67 Q39.1034 1488.06 39.1034 1479.33 Q39.1034 1470.58 42.1589 1466 Q45.2376 1461.39 51.0477 1461.39 Z" fill="#000000" fill-rule="evenodd" fill-opacity="1" /><path clip-path="url(#clip080)" d="M 0 0 M10.7007 1146.11 L27.0201 1146.11 L27.0201 1150.04 L5.07577 1150.04 L5.07577 1146.11 Q7.73779 1143.35 12.3211 1138.72 Q16.9276 1134.07 18.1081 1132.73 Q20.3535 1130.21 21.2331 1128.47 Q22.1359 1126.71 22.1359 1125.02 Q22.1359 1122.27 20.1914 1120.53 Q18.2701 1118.79 15.1683 1118.79 Q12.9692 1118.79 10.5156 1119.56 Q8.08501 1120.32 5.30725 1121.87 L5.30725 1117.15 Q8.13131 1116.02 10.585 1115.44 Q13.0387 1114.86 15.0757 1114.86 Q20.4461 1114.86 23.6405 1117.54 Q26.8349 1120.23 26.8349 1124.72 Q26.8349 1126.85 26.0247 1128.77 Q25.2377 1130.67 23.1312 1133.26 Q22.5525 1133.93 19.4507 1137.15 Q16.3489 1140.35 10.7007 1146.11 Z" fill="#000000" fill-rule="evenodd" fill-opacity="1" /><path clip-path="url(#clip080)" d="M 0 0 M32.0895 1144.16 L36.9737 1144.16 L36.9737 1150.04 L32.0895 1150.04 L32.0895 1144.16 Z" fill="#000000" fill-rule="evenodd" fill-opacity="1" /><path clip-path="url(#clip080)" d="M 0 0 M42.0895 1115.48 L60.4458 1115.48 L60.4458 1119.42 L46.3718 1119.42 L46.3718 1127.89 Q47.3904 1127.54 48.4089 1127.38 Q49.4274 1127.2 50.4459 1127.2 Q56.2329 1127.2 59.6125 1130.37 Q62.9921 1133.54 62.9921 1138.96 Q62.9921 1144.54 59.5199 1147.64 Q56.0477 1150.72 49.7283 1150.72 Q47.5524 1150.72 45.2839 1150.35 Q43.0385 1149.97 40.6311 1149.23 L40.6311 1144.54 Q42.7145 1145.67 44.9367 1146.22 Q47.1589 1146.78 49.6357 1146.78 Q53.6403 1146.78 55.9783 1144.67 Q58.3162 1142.57 58.3162 1138.96 Q58.3162 1135.35 55.9783 1133.24 Q53.6403 1131.13 49.6357 1131.13 Q47.7607 1131.13 45.8857 1131.55 Q44.0339 1131.97 42.0895 1132.85 L42.0895 1115.48 Z" fill="#000000" fill-rule="evenodd" fill-opacity="1" /><path clip-path="url(#clip080)" d="M 0 0 M5.12207 768.951 L23.4784 768.951 L23.4784 772.886 L9.40445 772.886 L9.40445 781.358 Q10.423 781.011 11.4415 780.849 Q12.46 780.664 13.4785 780.664 Q19.2655 780.664 22.6451 783.835 Q26.0247 787.006 26.0247 792.423 Q26.0247 798.002 22.5525 801.104 Q19.0803 804.182 12.7609 804.182 Q10.585 804.182 8.31649 803.812 Q6.07113 803.441 3.66374 802.701 L3.66374 798.002 Q5.74706 799.136 7.96927 799.692 Q10.1915 800.247 12.6683 800.247 Q16.6729 800.247 19.0109 798.141 Q21.3488 796.034 21.3488 792.423 Q21.3488 788.812 19.0109 786.705 Q16.6729 784.599 12.6683 784.599 Q10.7933 784.599 8.91834 785.016 Q7.0665 785.432 5.12207 786.312 L5.12207 768.951 Z" fill="#000000" fill-rule="evenodd" fill-opacity="1" /><path clip-path="url(#clip080)" d="M 0 0 M31.0941 797.631 L35.9784 797.631 L35.9784 803.511 L31.0941 803.511 L31.0941 797.631 Z" fill="#000000" fill-rule="evenodd" fill-opacity="1" /><path clip-path="url(#clip080)" d="M 0 0 M51.0477 772.03 Q47.4367 772.03 45.608 775.594 Q43.8024 779.136 43.8024 786.266 Q43.8024 793.372 45.608 796.937 Q47.4367 800.479 51.0477 800.479 Q54.682 800.479 56.4875 796.937 Q58.3162 793.372 58.3162 786.266 Q58.3162 779.136 56.4875 775.594 Q54.682 772.03 51.0477 772.03 M51.0477 768.326 Q56.8579 768.326 59.9134 772.932 Q62.9921 777.516 62.9921 786.266 Q62.9921 794.992 59.9134 799.599 Q56.8579 804.182 51.0477 804.182 Q45.2376 804.182 42.1589 799.599 Q39.1034 794.992 39.1034 786.266 Q39.1034 777.516 42.1589 772.932 Q45.2376 768.326 51.0477 768.326 Z" fill="#000000" fill-rule="evenodd" fill-opacity="1" /><path clip-path="url(#clip080)" d="M 0 0 M4.79799 422.418 L27.0201 422.418 L27.0201 424.408 L14.4739 456.978 L9.58963 456.978 L21.3951 426.353 L4.79799 426.353 L4.79799 422.418 Z" fill="#000000" fill-rule="evenodd" fill-opacity="1" /><path clip-path="url(#clip080)" d="M 0 0 M32.0895 451.098 L36.9737 451.098 L36.9737 456.978 L32.0895 456.978 L32.0895 451.098 Z" fill="#000000" fill-rule="evenodd" fill-opacity="1" /><path clip-path="url(#clip080)" d="M 0 0 M42.0895 422.418 L60.4458 422.418 L60.4458 426.353 L46.3718 426.353 L46.3718 434.825 Q47.3904 434.478 48.4089 434.316 Q49.4274 434.131 50.4459 434.131 Q56.2329 434.131 59.6125 437.302 Q62.9921 440.473 62.9921 445.89 Q62.9921 451.468 59.5199 454.57 Q56.0477 457.649 49.7283 457.649 Q47.5524 457.649 45.2839 457.279 Q43.0385 456.908 40.6311 456.167 L40.6311 451.468 Q42.7145 452.603 44.9367 453.158 Q47.1589 453.714 49.6357 453.714 Q53.6403 453.714 55.9783 451.607 Q58.3162 449.501 58.3162 445.89 Q58.3162 442.279 55.9783 440.172 Q53.6403 438.066 49.6357 438.066 Q47.7607 438.066 45.8857 438.482 Q44.0339 438.899 42.0895 439.779 L42.0895 422.418 Z" fill="#000000" fill-rule="evenodd" fill-opacity="1" /><path clip-path="url(#clip080)" d="M 0 0 M-20.8963 106.509 L-13.2575 106.509 L-13.2575 80.1435 L-21.5676 81.8102 L-21.5676 77.551 L-13.3038 75.8843 L-8.62786 75.8843 L-8.62786 106.509 L-0.989013 106.509 L-0.989013 110.444 L-20.8963 110.444 L-20.8963 106.509 Z" fill="#000000" fill-rule="evenodd" fill-opacity="1" /><path clip-path="url(#clip080)" d="M 0 0 M14.0804 78.963 Q10.4693 78.963 8.64057 82.5278 Q6.83502 86.0694 6.83502 93.199 Q6.83502 100.305 8.64057 103.87 Q10.4693 107.412 14.0804 107.412 Q17.7146 107.412 19.5201 103.87 Q21.3488 100.305 21.3488 93.199 Q21.3488 86.0694 19.5201 82.5278 Q17.7146 78.963 14.0804 78.963 M14.0804 75.2593 Q19.8905 75.2593 22.946 79.8658 Q26.0247 84.4491 26.0247 93.199 Q26.0247 101.926 22.946 106.532 Q19.8905 111.116 14.0804 111.116 Q8.2702 111.116 5.19151 106.532 Q2.13597 101.926 2.13597 93.199 Q2.13597 84.4491 5.19151 79.8658 Q8.2702 75.2593 14.0804 75.2593 Z" fill="#000000" fill-rule="evenodd" fill-opacity="1" /><path clip-path="url(#clip080)" d="M 0 0 M31.0941 104.565 L35.9784 104.565 L35.9784 110.444 L31.0941 110.444 L31.0941 104.565 Z" fill="#000000" fill-rule="evenodd" fill-opacity="1" /><path clip-path="url(#clip080)" d="M 0 0 M51.0477 78.963 Q47.4367 78.963 45.608 82.5278 Q43.8024 86.0694 43.8024 93.199 Q43.8024 100.305 45.608 103.87 Q47.4367 107.412 51.0477 107.412 Q54.682 107.412 56.4875 103.87 Q58.3162 100.305 58.3162 93.199 Q58.3162 86.0694 56.4875 82.5278 Q54.682 78.963 51.0477 78.963 M51.0477 75.2593 Q56.8579 75.2593 59.9134 79.8658 Q62.9921 84.4491 62.9921 93.199 Q62.9921 101.926 59.9134 106.532 Q56.8579 111.116 51.0477 111.116 Q45.2376 111.116 42.1589 106.532 Q39.1034 101.926 39.1034 93.199 Q39.1034 84.4491 42.1589 79.8658 Q45.2376 75.2593 51.0477 75.2593 Z" fill="#000000" fill-rule="evenodd" fill-opacity="1" /><path clip-path="url(#clip082)" d="
M151.118 1473.27 L156.733 1473.23 L162.348 1473.26 L167.964 1473.34 L173.579 1473.44 L179.194 1473.55 L184.81 1473.65 L190.425 1473.69 L196.04 1473.66 L201.656 1473.53 
  L207.271 1473.28 L212.887 1472.89 L218.502 1472.33 L224.117 1471.61 L229.733 1470.71 L235.348 1469.64 L240.963 1468.39 L246.579 1466.97 L252.194 1465.4 L257.81 1463.68 
  L263.425 1461.83 L269.04 1459.88 L274.656 1457.84 L280.271 1455.75 L285.886 1453.63 L291.502 1451.52 L297.117 1449.47 L302.733 1447.49 L308.348 1445.64 L313.963 1443.95 
  L319.579 1442.44 L325.194 1441.13 L330.809 1440.02 L336.425 1439.12 L342.04 1438.39 L347.655 1437.81 L353.271 1437.33 L358.886 1436.88 L364.502 1436.42 L370.117 1435.87 
  L375.732 1435.18 L381.348 1434.29 L386.963 1433.18 L392.578 1431.81 L398.194 1430.18 L403.809 1428.3 L409.425 1426.19 L415.04 1423.88 L420.655 1421.42 L426.271 1418.82 
  L431.886 1416.12 L437.501 1413.33 L443.117 1410.46 L448.732 1407.5 L454.347 1404.43 L459.963 1401.21 L465.578 1397.81 L471.194 1394.19 L476.809 1390.32 L482.424 1386.18 
  L488.04 1381.75 L493.655 1377.05 L499.27 1372.09 L504.886 1366.89 L510.501 1361.5 L516.117 1355.95 L521.732 1350.3 L527.347 1344.58 L532.963 1338.83 L538.578 1333.08 
  L544.193 1327.36 L549.809 1321.68 L555.424 1316.05 L561.04 1310.48 L566.655 1304.95 L572.27 1299.48 L577.886 1294.05 L583.501 1288.67 L589.116 1283.32 L594.732 1278.02 
  L600.347 1272.76 L605.962 1267.54 L611.578 1262.36 L617.193 1257.21 L622.809 1252.07 L628.424 1246.91 L634.039 1241.67 L639.655 1236.28 L645.27 1230.62 L650.885 1224.57 
  L656.501 1217.95 L662.116 1210.59 L667.732 1202.3 L673.347 1192.85 L678.962 1182.08 L684.578 1169.8 L690.193 1155.89 L695.808 1140.27 L701.424 1122.92 L707.039 1103.91 
  L707.039 1479.3 L701.424 1479.3 L695.808 1479.3 L690.193 1479.3 L684.578 1479.3 L678.962 1479.3 L673.347 1479.3 L667.732 1479.3 L662.116 1479.3 L656.501 1479.3 
  L650.885 1479.3 L645.27 1479.3 L639.655 1479.3 L634.039 1479.3 L628.424 1479.3 L622.809 1479.3 L617.193 1479.3 L611.578 1479.3 L605.962 1479.3 L600.347 1479.3 
  L594.732 1479.3 L589.116 1479.3 L583.501 1479.3 L577.886 1479.3 L572.27 1479.3 L566.655 1479.3 L561.04 1479.3 L555.424 1479.3 L549.809 1479.3 L544.193 1479.3 
  L538.578 1479.3 L532.963 1479.3 L527.347 1479.3 L521.732 1479.3 L516.117 1479.3 L510.501 1479.3 L504.886 1479.3 L499.27 1479.3 L493.655 1479.3 L488.04 1479.3 
  L482.424 1479.3 L476.809 1479.3 L471.194 1479.3 L465.578 1479.3 L459.963 1479.3 L454.347 1479.3 L448.732 1479.3 L443.117 1479.3 L437.501 1479.3 L431.886 1479.3 
  L426.271 1479.3 L420.655 1479.3 L415.04 1479.3 L409.425 1479.3 L403.809 1479.3 L398.194 1479.3 L392.578 1479.3 L386.963 1479.3 L381.348 1479.3 L375.732 1479.3 
  L370.117 1479.3 L364.502 1479.3 L358.886 1479.3 L353.271 1479.3 L347.655 1479.3 L342.04 1479.3 L336.425 1479.3 L330.809 1479.3 L325.194 1479.3 L319.579 1479.3 
  L313.963 1479.3 L308.348 1479.3 L302.733 1479.3 L297.117 1479.3 L291.502 1479.3 L285.886 1479.3 L280.271 1479.3 L274.656 1479.3 L269.04 1479.3 L263.425 1479.3 
  L257.81 1479.3 L252.194 1479.3 L246.579 1479.3 L240.963 1479.3 L235.348 1479.3 L229.733 1479.3 L224.117 1479.3 L218.502 1479.3 L212.887 1479.3 L207.271 1479.3 
  L201.656 1479.3 L196.04 1479.3 L190.425 1479.3 L184.81 1479.3 L179.194 1479.3 L173.579 1479.3 L167.964 1479.3 L162.348 1479.3 L156.733 1479.3 L151.118 1479.3 
   Z
  " fill="#ffa500" fill-rule="evenodd" fill-opacity="0.5"/>
<polyline clip-path="url(#clip082)" style="stroke:#ffa500; stroke-width:4; stroke-opacity:1; fill:none" points="
  151.118,1473.27 156.733,1473.23 162.348,1473.26 167.964,1473.34 173.579,1473.44 179.194,1473.55 184.81,1473.65 190.425,1473.69 196.04,1473.66 201.656,1473.53 
  207.271,1473.28 212.887,1472.89 218.502,1472.33 224.117,1471.61 229.733,1470.71 235.348,1469.64 240.963,1468.39 246.579,1466.97 252.194,1465.4 257.81,1463.68 
  263.425,1461.83 269.04,1459.88 274.656,1457.84 280.271,1455.75 285.886,1453.63 291.502,1451.52 297.117,1449.47 302.733,1447.49 308.348,1445.64 313.963,1443.95 
  319.579,1442.44 325.194,1441.13 330.809,1440.02 336.425,1439.12 342.04,1438.39 347.655,1437.81 353.271,1437.33 358.886,1436.88 364.502,1436.42 370.117,1435.87 
  375.732,1435.18 381.348,1434.29 386.963,1433.18 392.578,1431.81 398.194,1430.18 403.809,1428.3 409.425,1426.19 415.04,1423.88 420.655,1421.42 426.271,1418.82 
  431.886,1416.12 437.501,1413.33 443.117,1410.46 448.732,1407.5 454.347,1404.43 459.963,1401.21 465.578,1397.81 471.194,1394.19 476.809,1390.32 482.424,1386.18 
  488.04,1381.75 493.655,1377.05 499.27,1372.09 504.886,1366.89 510.501,1361.5 516.117,1355.95 521.732,1350.3 527.347,1344.58 532.963,1338.83 538.578,1333.08 
  544.193,1327.36 549.809,1321.68 555.424,1316.05 561.04,1310.48 566.655,1304.95 572.27,1299.48 577.886,1294.05 583.501,1288.67 589.116,1283.32 594.732,1278.02 
  600.347,1272.76 605.962,1267.54 611.578,1262.36 617.193,1257.21 622.809,1252.07 628.424,1246.91 634.039,1241.67 639.655,1236.28 645.27,1230.62 650.885,1224.57 
  656.501,1217.95 662.116,1210.59 667.732,1202.3 673.347,1192.85 678.962,1182.08 684.578,1169.8 690.193,1155.89 695.808,1140.27 701.424,1122.92 707.039,1103.91 
  
  "/>
<path clip-path="url(#clip082)" d="
M707.039 1103.91 L716.832 1067.18 L726.625 1026.98 L736.417 984.929 L746.21 942.867 L756.003 902.505 L765.796 865.145 L775.588 831.496 L785.381 801.625 L795.174 775.045 
  L804.967 750.895 L814.759 728.15 L824.552 705.803 L834.345 682.983 L844.138 659.017 L853.93 633.467 L863.723 606.169 L873.516 577.286 L883.309 547.367 L893.101 517.343 
  L902.894 488.441 L912.687 461.985 L922.48 439.122 L932.272 420.545 L942.065 406.292 L951.858 395.684 L961.651 387.435 L971.443 379.895 L981.236 371.365 L991.029 360.421 
  L1000.82 346.165 L1010.61 328.356 L1020.41 307.406 L1030.2 284.242 L1039.99 260.077 L1049.79 236.128 L1059.58 213.377 L1069.37 192.407 L1079.16 173.372 L1088.96 156.105 
  L1098.75 140.318 L1108.54 125.846 L1118.33 112.831 L1128.13 101.796 L1137.92 93.5655 L1147.71 89.0485 L1157.51 88.9544 L1167.3 93.5359 L1177.09 102.452 L1186.88 114.801 
  L1196.68 129.317 L1206.47 144.647 L1216.26 159.632 L1226.05 173.471 L1235.85 185.756 L1245.64 196.375 L1255.43 205.384 L1265.23 212.889 L1275.02 219.033 L1284.81 224.054 
  L1294.6 228.385 L1304.4 232.718 L1314.19 237.975 L1323.98 245.167 L1333.78 255.179 L1343.57 268.563 L1353.36 285.415 L1363.15 305.401 L1372.95 327.929 L1382.74 352.409 
  L1392.53 378.484 L1402.32 406.145 L1412.12 435.679 L1421.91 467.448 L1431.7 501.612 L1441.5 537.876 L1451.29 575.39 L1461.08 612.817 L1470.87 648.557 L1480.67 681.079 
  L1490.46 709.237 L1500.25 732.535 L1510.04 751.244 L1519.84 766.373 L1529.63 779.467 L1539.42 792.283 L1549.22 806.415 L1559.01 822.946 L1568.8 842.241 L1578.59 863.937 
  L1588.39 887.135 L1598.18 910.741 L1607.97 933.833 L1617.76 955.957 L1627.56 977.247 L1637.35 998.358 L1647.14 1020.23 L1656.94 1043.77 L1666.73 1069.54 L1676.52 1097.6 
  L1676.52 1479.3 L1666.73 1479.3 L1656.94 1479.3 L1647.14 1479.3 L1637.35 1479.3 L1627.56 1479.3 L1617.76 1479.3 L1607.97 1479.3 L1598.18 1479.3 L1588.39 1479.3 
  L1578.59 1479.3 L1568.8 1479.3 L1559.01 1479.3 L1549.22 1479.3 L1539.42 1479.3 L1529.63 1479.3 L1519.84 1479.3 L1510.04 1479.3 L1500.25 1479.3 L1490.46 1479.3 
  L1480.67 1479.3 L1470.87 1479.3 L1461.08 1479.3 L1451.29 1479.3 L1441.5 1479.3 L1431.7 1479.3 L1421.91 1479.3 L1412.12 1479.3 L1402.32 1479.3 L1392.53 1479.3 
  L1382.74 1479.3 L1372.95 1479.3 L1363.15 1479.3 L1353.36 1479.3 L1343.57 1479.3 L1333.78 1479.3 L1323.98 1479.3 L1314.19 1479.3 L1304.4 1479.3 L1294.6 1479.3 
  L1284.81 1479.3 L1275.02 1479.3 L1265.23 1479.3 L1255.43 1479.3 L1245.64 1479.3 L1235.85 1479.3 L1226.05 1479.3 L1216.26 1479.3 L1206.47 1479.3 L1196.68 1479.3 
  L1186.88 1479.3 L1177.09 1479.3 L1167.3 1479.3 L1157.51 1479.3 L1147.71 1479.3 L1137.92 1479.3 L1128.13 1479.3 L1118.33 1479.3 L1108.54 1479.3 L1098.75 1479.3 
  L1088.96 1479.3 L1079.16 1479.3 L1069.37 1479.3 L1059.58 1479.3 L1049.79 1479.3 L1039.99 1479.3 L1030.2 1479.3 L1020.41 1479.3 L1010.61 1479.3 L1000.82 1479.3 
  L991.029 1479.3 L981.236 1479.3 L971.443 1479.3 L961.651 1479.3 L951.858 1479.3 L942.065 1479.3 L932.272 1479.3 L922.48 1479.3 L912.687 1479.3 L902.894 1479.3 
  L893.101 1479.3 L883.309 1479.3 L873.516 1479.3 L863.723 1479.3 L853.93 1479.3 L844.138 1479.3 L834.345 1479.3 L824.552 1479.3 L814.759 1479.3 L804.967 1479.3 
  L795.174 1479.3 L785.381 1479.3 L775.588 1479.3 L765.796 1479.3 L756.003 1479.3 L746.21 1479.3 L736.417 1479.3 L726.625 1479.3 L716.832 1479.3 L707.039 1479.3 
   Z
  " fill="#008000" fill-rule="evenodd" fill-opacity="0.5"/>
<polyline clip-path="url(#clip082)" style="stroke:#008000; stroke-width:4; stroke-opacity:1; fill:none" points="
  707.039,1103.91 716.832,1067.18 726.625,1026.98 736.417,984.929 746.21,942.867 756.003,902.505 765.796,865.145 775.588,831.496 785.381,801.625 795.174,775.045 
  804.967,750.895 814.759,728.15 824.552,705.803 834.345,682.983 844.138,659.017 853.93,633.467 863.723,606.169 873.516,577.286 883.309,547.367 893.101,517.343 
  902.894,488.441 912.687,461.985 922.48,439.122 932.272,420.545 942.065,406.292 951.858,395.684 961.651,387.435 971.443,379.895 981.236,371.365 991.029,360.421 
  1000.82,346.165 1010.61,328.356 1020.41,307.406 1030.2,284.242 1039.99,260.077 1049.79,236.128 1059.58,213.377 1069.37,192.407 1079.16,173.372 1088.96,156.105 
  1098.75,140.318 1108.54,125.846 1118.33,112.831 1128.13,101.796 1137.92,93.5655 1147.71,89.0485 1157.51,88.9544 1167.3,93.5359 1177.09,102.452 1186.88,114.801 
  1196.68,129.317 1206.47,144.647 1216.26,159.632 1226.05,173.471 1235.85,185.756 1245.64,196.375 1255.43,205.384 1265.23,212.889 1275.02,219.033 1284.81,224.054 
  1294.6,228.385 1304.4,232.718 1314.19,237.975 1323.98,245.167 1333.78,255.179 1343.57,268.563 1353.36,285.415 1363.15,305.401 1372.95,327.929 1382.74,352.409 
  1392.53,378.484 1402.32,406.145 1412.12,435.679 1421.91,467.448 1431.7,501.612 1441.5,537.876 1451.29,575.39 1461.08,612.817 1470.87,648.557 1480.67,681.079 
  1490.46,709.237 1500.25,732.535 1510.04,751.244 1519.84,766.373 1529.63,779.467 1539.42,792.283 1549.22,806.415 1559.01,822.946 1568.8,842.241 1578.59,863.937 
  1588.39,887.135 1598.18,910.741 1607.97,933.833 1617.76,955.957 1627.56,977.247 1637.35,998.358 1647.14,1020.23 1656.94,1043.77 1666.73,1069.54 1676.52,1097.6 
  
  "/>
<path clip-path="url(#clip082)" d="
M1676.52 1097.6 L1682.7 1116.26 L1688.89 1135.38 L1695.07 1154.64 L1701.25 1173.71 L1707.44 1192.25 L1713.62 1209.92 L1719.8 1226.44 L1725.98 1241.58 L1732.17 1255.17 
  L1738.35 1267.11 L1744.53 1277.4 L1750.72 1286.05 L1756.9 1293.18 L1763.08 1298.92 L1769.27 1303.44 L1775.45 1306.95 L1781.63 1309.65 L1787.81 1311.79 L1794 1313.58 
  L1800.18 1315.24 L1806.36 1316.98 L1812.55 1318.97 L1818.73 1321.37 L1824.91 1324.29 L1831.09 1327.79 L1837.28 1331.9 L1843.46 1336.59 L1849.64 1341.77 L1855.83 1347.33 
  L1862.01 1353.13 L1868.19 1358.98 L1874.37 1364.72 L1880.56 1370.15 L1886.74 1375.12 L1892.92 1379.5 L1899.11 1383.19 L1905.29 1386.13 L1911.47 1388.34 L1917.66 1389.85 
  L1923.84 1390.75 L1930.02 1391.17 L1936.2 1391.25 L1942.39 1391.16 L1948.57 1391.07 L1954.75 1391.12 L1960.94 1391.44 L1967.12 1392.12 L1973.3 1393.24 L1979.48 1394.82 
  L1985.67 1396.85 L1991.85 1399.29 L1998.03 1402.12 L2004.22 1405.25 L2010.4 1408.63 L2016.58 1412.2 L2022.76 1415.91 L2028.95 1419.69 L2035.13 1423.52 L2041.31 1427.34 
  L2047.5 1431.12 L2053.68 1434.82 L2059.86 1438.41 L2066.05 1441.86 L2072.23 1445.12 L2078.41 1448.17 L2084.59 1450.98 L2090.78 1453.53 L2096.96 1455.82 L2103.14 1457.85 
  L2109.33 1459.62 L2115.51 1461.14 L2121.69 1462.45 L2127.87 1463.57 L2134.06 1464.51 L2140.24 1465.33 L2146.42 1466.03 L2152.61 1466.65 L2158.79 1467.22 L2164.97 1467.75 
  L2171.16 1468.27 L2177.34 1468.79 L2183.52 1469.32 L2189.7 1469.86 L2195.89 1470.42 L2202.07 1471.01 L2208.25 1471.61 L2214.44 1472.22 L2220.62 1472.83 L2226.8 1473.44 
  L2232.98 1474.02 L2239.17 1474.58 L2245.35 1475.11 L2251.53 1475.59 L2257.72 1476.02 L2263.9 1476.41 L2270.08 1476.76 L2276.26 1477.06 L2282.45 1477.32 L2288.63 1477.55 
  L2288.63 1479.3 L2282.45 1479.3 L2276.26 1479.3 L2270.08 1479.3 L2263.9 1479.3 L2257.72 1479.3 L2251.53 1479.3 L2245.35 1479.3 L2239.17 1479.3 L2232.98 1479.3 
  L2226.8 1479.3 L2220.62 1479.3 L2214.44 1479.3 L2208.25 1479.3 L2202.07 1479.3 L2195.89 1479.3 L2189.7 1479.3 L2183.52 1479.3 L2177.34 1479.3 L2171.16 1479.3 
  L2164.97 1479.3 L2158.79 1479.3 L2152.61 1479.3 L2146.42 1479.3 L2140.24 1479.3 L2134.06 1479.3 L2127.87 1479.3 L2121.69 1479.3 L2115.51 1479.3 L2109.33 1479.3 
  L2103.14 1479.3 L2096.96 1479.3 L2090.78 1479.3 L2084.59 1479.3 L2078.41 1479.3 L2072.23 1479.3 L2066.05 1479.3 L2059.86 1479.3 L2053.68 1479.3 L2047.5 1479.3 
  L2041.31 1479.3 L2035.13 1479.3 L2028.95 1479.3 L2022.76 1479.3 L2016.58 1479.3 L2010.4 1479.3 L2004.22 1479.3 L1998.03 1479.3 L1991.85 1479.3 L1985.67 1479.3 
  L1979.48 1479.3 L1973.3 1479.3 L1967.12 1479.3 L1960.94 1479.3 L1954.75 1479.3 L1948.57 1479.3 L1942.39 1479.3 L1936.2 1479.3 L1930.02 1479.3 L1923.84 1479.3 
  L1917.66 1479.3 L1911.47 1479.3 L1905.29 1479.3 L1899.11 1479.3 L1892.92 1479.3 L1886.74 1479.3 L1880.56 1479.3 L1874.37 1479.3 L1868.19 1479.3 L1862.01 1479.3 
  L1855.83 1479.3 L1849.64 1479.3 L1843.46 1479.3 L1837.28 1479.3 L1831.09 1479.3 L1824.91 1479.3 L1818.73 1479.3 L1812.55 1479.3 L1806.36 1479.3 L1800.18 1479.3 
  L1794 1479.3 L1787.81 1479.3 L1781.63 1479.3 L1775.45 1479.3 L1769.27 1479.3 L1763.08 1479.3 L1756.9 1479.3 L1750.72 1479.3 L1744.53 1479.3 L1738.35 1479.3 
  L1732.17 1479.3 L1725.98 1479.3 L1719.8 1479.3 L1713.62 1479.3 L1707.44 1479.3 L1701.25 1479.3 L1695.07 1479.3 L1688.89 1479.3 L1682.7 1479.3 L1676.52 1479.3 
   Z
  " fill="#ffa500" fill-rule="evenodd" fill-opacity="0.5"/>
<polyline clip-path="url(#clip082)" style="stroke:#ffa500; stroke-width:4; stroke-opacity:1; fill:none" points="
  1676.52,1097.6 1682.7,1116.26 1688.89,1135.38 1695.07,1154.64 1701.25,1173.71 1707.44,1192.25 1713.62,1209.92 1719.8,1226.44 1725.98,1241.58 1732.17,1255.17 
  1738.35,1267.11 1744.53,1277.4 1750.72,1286.05 1756.9,1293.18 1763.08,1298.92 1769.27,1303.44 1775.45,1306.95 1781.63,1309.65 1787.81,1311.79 1794,1313.58 
  1800.18,1315.24 1806.36,1316.98 1812.55,1318.97 1818.73,1321.37 1824.91,1324.29 1831.09,1327.79 1837.28,1331.9 1843.46,1336.59 1849.64,1341.77 1855.83,1347.33 
  1862.01,1353.13 1868.19,1358.98 1874.37,1364.72 1880.56,1370.15 1886.74,1375.12 1892.92,1379.5 1899.11,1383.19 1905.29,1386.13 1911.47,1388.34 1917.66,1389.85 
  1923.84,1390.75 1930.02,1391.17 1936.2,1391.25 1942.39,1391.16 1948.57,1391.07 1954.75,1391.12 1960.94,1391.44 1967.12,1392.12 1973.3,1393.24 1979.48,1394.82 
  1985.67,1396.85 1991.85,1399.29 1998.03,1402.12 2004.22,1405.25 2010.4,1408.63 2016.58,1412.2 2022.76,1415.91 2028.95,1419.69 2035.13,1423.52 2041.31,1427.34 
  2047.5,1431.12 2053.68,1434.82 2059.86,1438.41 2066.05,1441.86 2072.23,1445.12 2078.41,1448.17 2084.59,1450.98 2090.78,1453.53 2096.96,1455.82 2103.14,1457.85 
  2109.33,1459.62 2115.51,1461.14 2121.69,1462.45 2127.87,1463.57 2134.06,1464.51 2140.24,1465.33 2146.42,1466.03 2152.61,1466.65 2158.79,1467.22 2164.97,1467.75 
  2171.16,1468.27 2177.34,1468.79 2183.52,1469.32 2189.7,1469.86 2195.89,1470.42 2202.07,1471.01 2208.25,1471.61 2214.44,1472.22 2220.62,1472.83 2226.8,1473.44 
  2232.98,1474.02 2239.17,1474.58 2245.35,1475.11 2251.53,1475.59 2257.72,1476.02 2263.9,1476.41 2270.08,1476.76 2276.26,1477.06 2282.45,1477.32 2288.63,1477.55 
  
  "/>
<polyline clip-path="url(#clip082)" style="stroke:#0000ff; stroke-width:4; stroke-opacity:1; fill:none" points="
  1182.02,1479.3 1182.02,108.313 
  "/>
<polyline clip-path="url(#clip082)" style="stroke:#000000; stroke-width:4; stroke-opacity:1; fill:none" points="
  1175.69,1479.3 1175.69,100.938 
  "/>
<path clip-path="url(#clip080)" d="
M1494.58 459.25 L2277.23 459.25 L2277.23 96.3696 L1494.58 96.3696  Z
  " fill="#ffffff" fill-rule="evenodd" fill-opacity="1"/>
<polyline clip-path="url(#clip080)" style="stroke:#000000; stroke-width:4; stroke-opacity:1; fill:none" points="
  1494.58,459.25 2277.23,459.25 2277.23,96.3696 1494.58,96.3696 1494.58,459.25 
  "/>
<path clip-path="url(#clip080)" d="
M1519.75 181.042 L1670.81 181.042 L1670.81 132.658 L1519.75 132.658 L1519.75 181.042  Z
  " fill="#ffa500" fill-rule="evenodd" fill-opacity="0.5"/>
<polyline clip-path="url(#clip080)" style="stroke:#ffa500; stroke-width:4; stroke-opacity:1; fill:none" points="
  1519.75,132.658 1670.81,132.658 
  "/>
<path clip-path="url(#clip080)" d="M 0 0 M1700.38 161.19 Q1700.38 165.889 1702.3 168.574 Q1704.24 171.236 1707.62 171.236 Q1711 171.236 1712.95 168.574 Q1714.89 165.889 1714.89 161.19 Q1714.89 156.491 1712.95 153.829 Q1711 151.144 1707.62 151.144 Q1704.24 151.144 1702.3 153.829 Q1700.38 156.491 1700.38 161.19 M1714.89 170.241 Q1713.55 172.555 1711.49 173.69 Q1709.45 174.801 1706.58 174.801 Q1701.88 174.801 1698.92 171.051 Q1695.98 167.301 1695.98 161.19 Q1695.98 155.079 1698.92 151.329 Q1701.88 147.579 1706.58 147.579 Q1709.45 147.579 1711.49 148.713 Q1713.55 149.824 1714.89 152.139 L1714.89 148.204 L1719.15 148.204 L1719.15 183.991 L1714.89 183.991 L1714.89 170.241 Z" fill="#000000" fill-rule="evenodd" fill-opacity="1" /><path clip-path="url(#clip080)" d="M 0 0 M1734.22 142.648 Q1730.61 142.648 1728.78 146.213 Q1726.98 149.755 1726.98 156.884 Q1726.98 163.991 1728.78 167.556 Q1730.61 171.097 1734.22 171.097 Q1737.85 171.097 1739.66 167.556 Q1741.49 163.991 1741.49 156.884 Q1741.49 149.755 1739.66 146.213 Q1737.85 142.648 1734.22 142.648 M1734.22 138.945 Q1740.03 138.945 1743.09 143.551 Q1746.17 148.134 1746.17 156.884 Q1746.17 165.611 1743.09 170.218 Q1740.03 174.801 1734.22 174.801 Q1728.41 174.801 1725.33 170.218 Q1722.28 165.611 1722.28 156.884 Q1722.28 148.134 1725.33 143.551 Q1728.41 138.945 1734.22 138.945 Z" fill="#000000" fill-rule="evenodd" fill-opacity="1" /><path clip-path="url(#clip080)" d="M 0 0 M1751.28 139.57 L1769.64 139.57 L1769.64 143.505 L1755.56 143.505 L1755.56 151.977 Q1756.58 151.63 1757.6 151.468 Q1758.62 151.282 1759.64 151.282 Q1765.42 151.282 1768.8 154.454 Q1772.18 157.625 1772.18 163.042 Q1772.18 168.62 1768.71 171.722 Q1765.24 174.801 1758.92 174.801 Q1756.74 174.801 1754.48 174.43 Q1752.23 174.06 1749.82 173.319 L1749.82 168.62 Q1751.91 169.755 1754.13 170.31 Q1756.35 170.866 1758.83 170.866 Q1762.83 170.866 1765.17 168.759 Q1767.51 166.653 1767.51 163.042 Q1767.51 159.431 1765.17 157.324 Q1762.83 155.218 1758.83 155.218 Q1756.95 155.218 1755.08 155.634 Q1753.23 156.051 1751.28 156.931 L1751.28 139.57 Z" fill="#000000" fill-rule="evenodd" fill-opacity="1" /><path clip-path="url(#clip080)" d="
M1519.75 241.522 L1670.81 241.522 L1670.81 193.138 L1519.75 193.138 L1519.75 241.522  Z
  " fill="#008000" fill-rule="evenodd" fill-opacity="0.5"/>
<polyline clip-path="url(#clip080)" style="stroke:#008000; stroke-width:4; stroke-opacity:1; fill:none" points="
  1519.75,193.138 1670.81,193.138 
  "/>
<path clip-path="url(#clip080)" d="M 0 0 M1698.2 233.892 L1698.2 229.633 Q1699.96 230.466 1701.77 230.906 Q1703.57 231.346 1705.31 231.346 Q1709.94 231.346 1712.37 228.244 Q1714.82 225.119 1715.17 218.776 Q1713.83 220.767 1711.77 221.832 Q1709.71 222.897 1707.21 222.897 Q1702.02 222.897 1698.99 219.772 Q1695.98 216.624 1695.98 211.184 Q1695.98 205.86 1699.13 202.642 Q1702.28 199.425 1707.51 199.425 Q1713.5 199.425 1716.65 204.031 Q1719.82 208.614 1719.82 217.364 Q1719.82 225.536 1715.93 230.42 Q1712.07 235.281 1705.52 235.281 Q1703.76 235.281 1701.95 234.934 Q1700.15 234.586 1698.2 233.892 M1707.51 219.239 Q1710.66 219.239 1712.48 217.086 Q1714.34 214.934 1714.34 211.184 Q1714.34 207.457 1712.48 205.304 Q1710.66 203.128 1707.51 203.128 Q1704.36 203.128 1702.51 205.304 Q1700.68 207.457 1700.68 211.184 Q1700.68 214.934 1702.51 217.086 Q1704.36 219.239 1707.51 219.239 Z" fill="#000000" fill-rule="evenodd" fill-opacity="1" /><path clip-path="url(#clip080)" d="M 0 0 M1734.89 203.128 Q1731.28 203.128 1729.45 206.693 Q1727.65 210.235 1727.65 217.364 Q1727.65 224.471 1729.45 228.036 Q1731.28 231.577 1734.89 231.577 Q1738.53 231.577 1740.33 228.036 Q1742.16 224.471 1742.16 217.364 Q1742.16 210.235 1740.33 206.693 Q1738.53 203.128 1734.89 203.128 M1734.89 199.425 Q1740.7 199.425 1743.76 204.031 Q1746.84 208.614 1746.84 217.364 Q1746.84 226.091 1743.76 230.698 Q1740.7 235.281 1734.89 235.281 Q1729.08 235.281 1726 230.698 Q1722.95 226.091 1722.95 217.364 Q1722.95 208.614 1726 204.031 Q1729.08 199.425 1734.89 199.425 Z" fill="#000000" fill-rule="evenodd" fill-opacity="1" /><path clip-path="url(#clip080)" d="M 0 0 M1781.3 219.401 Q1779.29 219.401 1778.13 221.114 Q1777 222.827 1777 225.883 Q1777 228.892 1778.13 230.628 Q1779.29 232.341 1781.3 232.341 Q1783.27 232.341 1784.41 230.628 Q1785.56 228.892 1785.56 225.883 Q1785.56 222.85 1784.41 221.137 Q1783.27 219.401 1781.3 219.401 M1781.3 216.462 Q1784.96 216.462 1787.11 219.008 Q1789.27 221.554 1789.27 225.883 Q1789.27 230.211 1787.09 232.758 Q1784.94 235.281 1781.3 235.281 Q1777.6 235.281 1775.45 232.758 Q1773.29 230.211 1773.29 225.883 Q1773.29 221.531 1775.45 219.008 Q1777.62 216.462 1781.3 216.462 M1757.42 202.364 Q1755.42 202.364 1754.27 204.1 Q1753.13 205.813 1753.13 208.823 Q1753.13 211.878 1754.27 213.591 Q1755.4 215.304 1757.42 215.304 Q1759.43 215.304 1760.56 213.591 Q1761.72 211.878 1761.72 208.823 Q1761.72 205.837 1760.56 204.1 Q1759.41 202.364 1757.42 202.364 M1778.32 199.425 L1782.02 199.425 L1760.4 235.281 L1756.7 235.281 L1778.32 199.425 M1757.42 199.425 Q1761.07 199.425 1763.25 201.971 Q1765.42 204.494 1765.42 208.823 Q1765.42 213.198 1763.25 215.721 Q1761.1 218.244 1757.42 218.244 Q1753.73 218.244 1751.58 215.721 Q1749.45 213.174 1749.45 208.823 Q1749.45 204.517 1751.6 201.971 Q1753.76 199.425 1757.42 199.425 Z" fill="#000000" fill-rule="evenodd" fill-opacity="1" /><path clip-path="url(#clip080)" d="M 0 0 M1830.35 218.961 L1830.35 234.61 L1826.1 234.61 L1826.1 219.1 Q1826.1 215.42 1824.66 213.591 Q1823.22 211.762 1820.35 211.762 Q1816.91 211.762 1814.91 213.962 Q1812.92 216.161 1812.92 219.957 L1812.92 234.61 L1808.64 234.61 L1808.64 208.684 L1812.92 208.684 L1812.92 212.712 Q1814.45 210.374 1816.51 209.216 Q1818.6 208.059 1821.3 208.059 Q1825.77 208.059 1828.06 210.837 Q1830.35 213.591 1830.35 218.961 Z" fill="#000000" fill-rule="evenodd" fill-opacity="1" /><path clip-path="url(#clip080)" d="M 0 0 M1844.87 211.67 Q1841.44 211.67 1839.45 214.355 Q1837.46 217.017 1837.46 221.67 Q1837.46 226.323 1839.43 229.008 Q1841.42 231.67 1844.87 231.67 Q1848.27 231.67 1850.26 228.985 Q1852.25 226.299 1852.25 221.67 Q1852.25 217.063 1850.26 214.378 Q1848.27 211.67 1844.87 211.67 M1844.87 208.059 Q1850.42 208.059 1853.6 211.67 Q1856.77 215.281 1856.77 221.67 Q1856.77 228.036 1853.6 231.67 Q1850.42 235.281 1844.87 235.281 Q1839.29 235.281 1836.12 231.67 Q1832.97 228.036 1832.97 221.67 Q1832.97 215.281 1836.12 211.67 Q1839.29 208.059 1844.87 208.059 Z" fill="#000000" fill-rule="evenodd" fill-opacity="1" /><path clip-path="url(#clip080)" d="M 0 0 M1882.78 218.961 L1882.78 234.61 L1878.53 234.61 L1878.53 219.1 Q1878.53 215.42 1877.09 213.591 Q1875.66 211.762 1872.78 211.762 Q1869.34 211.762 1867.35 213.962 Q1865.35 216.161 1865.35 219.957 L1865.35 234.61 L1861.07 234.61 L1861.07 208.684 L1865.35 208.684 L1865.35 212.712 Q1866.88 210.374 1868.94 209.216 Q1871.03 208.059 1873.73 208.059 Q1878.2 208.059 1880.49 210.837 Q1882.78 213.591 1882.78 218.961 Z" fill="#000000" fill-rule="evenodd" fill-opacity="1" /><path clip-path="url(#clip080)" d="M 0 0 M1885.1 219.725 L1897.58 219.725 L1897.58 223.522 L1885.1 223.522 L1885.1 219.725 Z" fill="#000000" fill-rule="evenodd" fill-opacity="1" /><path clip-path="url(#clip080)" d="M 0 0 M1917.07 212.665 Q1916.35 212.249 1915.49 212.063 Q1914.66 211.855 1913.64 211.855 Q1910.03 211.855 1908.09 214.216 Q1906.16 216.554 1906.16 220.952 L1906.16 234.61 L1901.88 234.61 L1901.88 208.684 L1906.16 208.684 L1906.16 212.712 Q1907.51 210.35 1909.66 209.216 Q1911.81 208.059 1914.89 208.059 Q1915.33 208.059 1915.86 208.128 Q1916.4 208.175 1917.04 208.29 L1917.07 212.665 Z" fill="#000000" fill-rule="evenodd" fill-opacity="1" /><path clip-path="url(#clip080)" d="M 0 0 M1942.67 220.582 L1942.67 222.665 L1923.09 222.665 Q1923.36 227.063 1925.72 229.378 Q1928.11 231.67 1932.34 231.67 Q1934.8 231.67 1937.09 231.068 Q1939.4 230.466 1941.67 229.262 L1941.67 233.29 Q1939.38 234.262 1936.97 234.772 Q1934.57 235.281 1932.09 235.281 Q1925.89 235.281 1922.25 231.67 Q1918.64 228.059 1918.64 221.901 Q1918.64 215.536 1922.07 211.809 Q1925.52 208.059 1931.35 208.059 Q1936.58 208.059 1939.61 211.438 Q1942.67 214.795 1942.67 220.582 M1938.41 219.332 Q1938.36 215.837 1936.44 213.753 Q1934.54 211.67 1931.4 211.67 Q1927.83 211.67 1925.68 213.684 Q1923.55 215.698 1923.22 219.355 L1938.41 219.332 Z" fill="#000000" fill-rule="evenodd" fill-opacity="1" /><path clip-path="url(#clip080)" d="M 0 0 M1947.14 208.684 L1951.4 208.684 L1951.4 235.073 Q1951.4 240.026 1949.5 242.248 Q1947.62 244.471 1943.43 244.471 L1941.81 244.471 L1941.81 240.86 L1942.95 240.86 Q1945.38 240.86 1946.26 239.725 Q1947.14 238.614 1947.14 235.073 L1947.14 208.684 M1947.14 198.591 L1951.4 198.591 L1951.4 203.985 L1947.14 203.985 L1947.14 198.591 Z" fill="#000000" fill-rule="evenodd" fill-opacity="1" /><path clip-path="url(#clip080)" d="M 0 0 M1978.04 220.582 L1978.04 222.665 L1958.46 222.665 Q1958.73 227.063 1961.09 229.378 Q1963.48 231.67 1967.71 231.67 Q1970.17 231.67 1972.46 231.068 Q1974.78 230.466 1977.04 229.262 L1977.04 233.29 Q1974.75 234.262 1972.34 234.772 Q1969.94 235.281 1967.46 235.281 Q1961.26 235.281 1957.62 231.67 Q1954.01 228.059 1954.01 221.901 Q1954.01 215.536 1957.44 211.809 Q1960.89 208.059 1966.72 208.059 Q1971.95 208.059 1974.98 211.438 Q1978.04 214.795 1978.04 220.582 M1973.78 219.332 Q1973.73 215.837 1971.81 213.753 Q1969.91 211.67 1966.77 211.67 Q1963.2 211.67 1961.05 213.684 Q1958.92 215.698 1958.59 219.355 L1973.78 219.332 Z" fill="#000000" fill-rule="evenodd" fill-opacity="1" /><path clip-path="url(#clip080)" d="M 0 0 M2001.16 209.679 L2001.16 213.661 Q1999.36 212.665 1997.53 212.179 Q1995.72 211.67 1993.87 211.67 Q1989.73 211.67 1987.44 214.309 Q1985.15 216.924 1985.15 221.67 Q1985.15 226.415 1987.44 229.054 Q1989.73 231.67 1993.87 231.67 Q1995.72 231.67 1997.53 231.184 Q1999.36 230.674 2001.16 229.679 L2001.16 233.614 Q1999.38 234.448 1997.46 234.864 Q1995.56 235.281 1993.41 235.281 Q1987.55 235.281 1984.1 231.6 Q1980.65 227.92 1980.65 221.67 Q1980.65 215.327 1984.13 211.693 Q1987.62 208.059 1993.69 208.059 Q1995.65 208.059 1997.53 208.475 Q1999.4 208.869 2001.16 209.679 Z" fill="#000000" fill-rule="evenodd" fill-opacity="1" /><path clip-path="url(#clip080)" d="M 0 0 M2009.84 201.323 L2009.84 208.684 L2018.62 208.684 L2018.62 211.994 L2009.84 211.994 L2009.84 226.068 Q2009.84 229.239 2010.7 230.142 Q2011.58 231.045 2014.24 231.045 L2018.62 231.045 L2018.62 234.61 L2014.24 234.61 Q2009.31 234.61 2007.44 232.781 Q2005.56 230.929 2005.56 226.068 L2005.56 211.994 L2002.44 211.994 L2002.44 208.684 L2005.56 208.684 L2005.56 201.323 L2009.84 201.323 Z" fill="#000000" fill-rule="evenodd" fill-opacity="1" /><path clip-path="url(#clip080)" d="M 0 0 M2023.08 208.684 L2027.34 208.684 L2027.34 234.61 L2023.08 234.61 L2023.08 208.684 M2023.08 198.591 L2027.34 198.591 L2027.34 203.985 L2023.08 203.985 L2023.08 198.591 Z" fill="#000000" fill-rule="evenodd" fill-opacity="1" /><path clip-path="url(#clip080)" d="M 0 0 M2041.86 211.67 Q2038.43 211.67 2036.44 214.355 Q2034.45 217.017 2034.45 221.67 Q2034.45 226.323 2036.42 229.008 Q2038.41 231.67 2041.86 231.67 Q2045.26 231.67 2047.25 228.985 Q2049.24 226.299 2049.24 221.67 Q2049.24 217.063 2047.25 214.378 Q2045.26 211.67 2041.86 211.67 M2041.86 208.059 Q2047.41 208.059 2050.58 211.67 Q2053.76 215.281 2053.76 221.67 Q2053.76 228.036 2050.58 231.67 Q2047.41 235.281 2041.86 235.281 Q2036.28 235.281 2033.11 231.67 Q2029.96 228.036 2029.96 221.67 Q2029.96 215.281 2033.11 211.67 Q2036.28 208.059 2041.86 208.059 Z" fill="#000000" fill-rule="evenodd" fill-opacity="1" /><path clip-path="url(#clip080)" d="M 0 0 M2079.77 218.961 L2079.77 234.61 L2075.52 234.61 L2075.52 219.1 Q2075.52 215.42 2074.08 213.591 Q2072.64 211.762 2069.77 211.762 Q2066.33 211.762 2064.33 213.962 Q2062.34 216.161 2062.34 219.957 L2062.34 234.61 L2058.06 234.61 L2058.06 208.684 L2062.34 208.684 L2062.34 212.712 Q2063.87 210.374 2065.93 209.216 Q2068.02 208.059 2070.72 208.059 Q2075.19 208.059 2077.48 210.837 Q2079.77 213.591 2079.77 218.961 Z" fill="#000000" fill-rule="evenodd" fill-opacity="1" /><path clip-path="url(#clip080)" d="M 0 0 M2114.33 212.665 Q2113.62 212.249 2112.76 212.063 Q2111.93 211.855 2110.91 211.855 Q2107.3 211.855 2105.35 214.216 Q2103.43 216.554 2103.43 220.952 L2103.43 234.61 L2099.15 234.61 L2099.15 208.684 L2103.43 208.684 L2103.43 212.712 Q2104.77 210.35 2106.93 209.216 Q2109.08 208.059 2112.16 208.059 Q2112.6 208.059 2113.13 208.128 Q2113.66 208.175 2114.31 208.29 L2114.33 212.665 Z" fill="#000000" fill-rule="evenodd" fill-opacity="1" /><path clip-path="url(#clip080)" d="M 0 0 M2139.94 220.582 L2139.94 222.665 L2120.35 222.665 Q2120.63 227.063 2122.99 229.378 Q2125.38 231.67 2129.61 231.67 Q2132.07 231.67 2134.36 231.068 Q2136.67 230.466 2138.94 229.262 L2138.94 233.29 Q2136.65 234.262 2134.24 234.772 Q2131.83 235.281 2129.36 235.281 Q2123.15 235.281 2119.52 231.67 Q2115.91 228.059 2115.91 221.901 Q2115.91 215.536 2119.33 211.809 Q2122.78 208.059 2128.62 208.059 Q2133.85 208.059 2136.88 211.438 Q2139.94 214.795 2139.94 220.582 M2135.68 219.332 Q2135.63 215.837 2133.71 213.753 Q2131.81 211.67 2128.66 211.67 Q2125.1 211.67 2122.95 213.684 Q2120.82 215.698 2120.49 219.355 L2135.68 219.332 Z" fill="#000000" fill-rule="evenodd" fill-opacity="1" /><path clip-path="url(#clip080)" d="M 0 0 M2161.46 221.346 Q2161.46 216.716 2159.54 214.17 Q2157.64 211.624 2154.2 211.624 Q2150.77 211.624 2148.85 214.17 Q2146.95 216.716 2146.95 221.346 Q2146.95 225.952 2148.85 228.498 Q2150.77 231.045 2154.2 231.045 Q2157.64 231.045 2159.54 228.498 Q2161.46 225.952 2161.46 221.346 M2165.72 231.392 Q2165.72 238.012 2162.78 241.23 Q2159.84 244.471 2153.78 244.471 Q2151.53 244.471 2149.54 244.123 Q2147.55 243.799 2145.68 243.105 L2145.68 238.961 Q2147.55 239.98 2149.38 240.466 Q2151.21 240.952 2153.11 240.952 Q2157.3 240.952 2159.38 238.753 Q2161.46 236.577 2161.46 232.156 L2161.46 230.049 Q2160.14 232.341 2158.08 233.475 Q2156.02 234.61 2153.15 234.61 Q2148.39 234.61 2145.47 230.975 Q2142.55 227.341 2142.55 221.346 Q2142.55 215.327 2145.47 211.693 Q2148.39 208.059 2153.15 208.059 Q2156.02 208.059 2158.08 209.193 Q2160.14 210.327 2161.46 212.619 L2161.46 208.684 L2165.72 208.684 L2165.72 231.392 Z" fill="#000000" fill-rule="evenodd" fill-opacity="1" /><path clip-path="url(#clip080)" d="M 0 0 M2170.19 208.684 L2174.45 208.684 L2174.45 234.61 L2170.19 234.61 L2170.19 208.684 M2170.19 198.591 L2174.45 198.591 L2174.45 203.985 L2170.19 203.985 L2170.19 198.591 Z" fill="#000000" fill-rule="evenodd" fill-opacity="1" /><path clip-path="url(#clip080)" d="M 0 0 M2188.96 211.67 Q2185.54 211.67 2183.55 214.355 Q2181.56 217.017 2181.56 221.67 Q2181.56 226.323 2183.52 229.008 Q2185.51 231.67 2188.96 231.67 Q2192.37 231.67 2194.36 228.985 Q2196.35 226.299 2196.35 221.67 Q2196.35 217.063 2194.36 214.378 Q2192.37 211.67 2188.96 211.67 M2188.96 208.059 Q2194.52 208.059 2197.69 211.67 Q2200.86 215.281 2200.86 221.67 Q2200.86 228.036 2197.69 231.67 Q2194.52 235.281 2188.96 235.281 Q2183.39 235.281 2180.21 231.67 Q2177.07 228.036 2177.07 221.67 Q2177.07 215.281 2180.21 211.67 Q2183.39 208.059 2188.96 208.059 Z" fill="#000000" fill-rule="evenodd" fill-opacity="1" /><path clip-path="url(#clip080)" d="M 0 0 M2226.88 218.961 L2226.88 234.61 L2222.62 234.61 L2222.62 219.1 Q2222.62 215.42 2221.19 213.591 Q2219.75 211.762 2216.88 211.762 Q2213.43 211.762 2211.44 213.962 Q2209.45 216.161 2209.45 219.957 L2209.45 234.61 L2205.17 234.61 L2205.17 208.684 L2209.45 208.684 L2209.45 212.712 Q2210.98 210.374 2213.04 209.216 Q2215.12 208.059 2217.83 208.059 Q2222.3 208.059 2224.59 210.837 Q2226.88 213.591 2226.88 218.961 Z" fill="#000000" fill-rule="evenodd" fill-opacity="1" /><path clip-path="url(#clip080)" d="
M1519.75 302.002 L1670.81 302.002 L1670.81 253.618 L1519.75 253.618 L1519.75 302.002  Z
  " fill="#ffa500" fill-rule="evenodd" fill-opacity="0.5"/>
<polyline clip-path="url(#clip080)" style="stroke:#ffa500; stroke-width:4; stroke-opacity:1; fill:none" points="
  1519.75,253.618 1670.81,253.618 
  "/>
<path clip-path="url(#clip080)" d="M 0 0 M1700.38 282.15 Q1700.38 286.849 1702.3 289.534 Q1704.24 292.196 1707.62 292.196 Q1711 292.196 1712.95 289.534 Q1714.89 286.849 1714.89 282.15 Q1714.89 277.451 1712.95 274.789 Q1711 272.104 1707.62 272.104 Q1704.24 272.104 1702.3 274.789 Q1700.38 277.451 1700.38 282.15 M1714.89 291.201 Q1713.55 293.515 1711.49 294.65 Q1709.45 295.761 1706.58 295.761 Q1701.88 295.761 1698.92 292.011 Q1695.98 288.261 1695.98 282.15 Q1695.98 276.039 1698.92 272.289 Q1701.88 268.539 1706.58 268.539 Q1709.45 268.539 1711.49 269.673 Q1713.55 270.784 1714.89 273.099 L1714.89 269.164 L1719.15 269.164 L1719.15 304.951 L1714.89 304.951 L1714.89 291.201 Z" fill="#000000" fill-rule="evenodd" fill-opacity="1" /><path clip-path="url(#clip080)" d="M 0 0 M1724.36 294.372 L1724.36 290.113 Q1726.12 290.946 1727.92 291.386 Q1729.73 291.826 1731.47 291.826 Q1736.1 291.826 1738.53 288.724 Q1740.98 285.599 1741.33 279.256 Q1739.98 281.247 1737.92 282.312 Q1735.86 283.377 1733.36 283.377 Q1728.18 283.377 1725.15 280.252 Q1722.14 277.104 1722.14 271.664 Q1722.14 266.34 1725.29 263.122 Q1728.43 259.905 1733.67 259.905 Q1739.66 259.905 1742.81 264.511 Q1745.98 269.094 1745.98 277.844 Q1745.98 286.016 1742.09 290.9 Q1738.23 295.761 1731.67 295.761 Q1729.92 295.761 1728.11 295.414 Q1726.3 295.066 1724.36 294.372 M1733.67 279.719 Q1736.81 279.719 1738.64 277.566 Q1740.49 275.414 1740.49 271.664 Q1740.49 267.937 1738.64 265.784 Q1736.81 263.608 1733.67 263.608 Q1730.52 263.608 1728.67 265.784 Q1726.84 267.937 1726.84 271.664 Q1726.84 275.414 1728.67 277.566 Q1730.52 279.719 1733.67 279.719 Z" fill="#000000" fill-rule="evenodd" fill-opacity="1" /><path clip-path="url(#clip080)" d="M 0 0 M1751.1 260.53 L1769.45 260.53 L1769.45 264.465 L1755.38 264.465 L1755.38 272.937 Q1756.4 272.59 1757.42 272.428 Q1758.43 272.242 1759.45 272.242 Q1765.24 272.242 1768.62 275.414 Q1772 278.585 1772 284.002 Q1772 289.58 1768.53 292.682 Q1765.05 295.761 1758.73 295.761 Q1756.56 295.761 1754.29 295.39 Q1752.04 295.02 1749.64 294.279 L1749.64 289.58 Q1751.72 290.715 1753.94 291.27 Q1756.17 291.826 1758.64 291.826 Q1762.65 291.826 1764.98 289.719 Q1767.32 287.613 1767.32 284.002 Q1767.32 280.391 1764.98 278.284 Q1762.65 276.178 1758.64 276.178 Q1756.77 276.178 1754.89 276.594 Q1753.04 277.011 1751.1 277.891 L1751.1 260.53 Z" fill="#000000" fill-rule="evenodd" fill-opacity="1" /><polyline clip-path="url(#clip080)" style="stroke:#0000ff; stroke-width:4; stroke-opacity:1; fill:none" points="
  1519.75,338.29 1670.81,338.29 
  "/>
<path clip-path="url(#clip080)" d="M 0 0 M1716.33 334.621 Q1717.92 331.75 1720.15 330.385 Q1722.37 329.019 1725.38 329.019 Q1729.43 329.019 1731.63 331.866 Q1733.83 334.69 1733.83 339.921 L1733.83 355.57 L1729.54 355.57 L1729.54 340.06 Q1729.54 336.334 1728.23 334.528 Q1726.91 332.722 1724.2 332.722 Q1720.89 332.722 1718.97 334.922 Q1717.04 337.121 1717.04 340.917 L1717.04 355.57 L1712.76 355.57 L1712.76 340.06 Q1712.76 336.31 1711.44 334.528 Q1710.12 332.722 1707.37 332.722 Q1704.11 332.722 1702.18 334.945 Q1700.26 337.144 1700.26 340.917 L1700.26 355.57 L1695.98 355.57 L1695.98 329.644 L1700.26 329.644 L1700.26 333.672 Q1701.72 331.287 1703.76 330.153 Q1705.79 329.019 1708.6 329.019 Q1711.42 329.019 1713.39 330.454 Q1715.38 331.889 1716.33 334.621 Z" fill="#000000" fill-rule="evenodd" fill-opacity="1" /><path clip-path="url(#clip080)" d="M 0 0 M1760.47 341.542 L1760.47 343.625 L1740.89 343.625 Q1741.17 348.023 1743.53 350.338 Q1745.91 352.63 1750.15 352.63 Q1752.6 352.63 1754.89 352.028 Q1757.21 351.426 1759.48 350.222 L1759.48 354.25 Q1757.18 355.222 1754.78 355.732 Q1752.37 356.241 1749.89 356.241 Q1743.69 356.241 1740.05 352.63 Q1736.44 349.019 1736.44 342.861 Q1736.44 336.496 1739.87 332.769 Q1743.32 329.019 1749.15 329.019 Q1754.38 329.019 1757.42 332.398 Q1760.47 335.755 1760.47 341.542 M1756.21 340.292 Q1756.17 336.797 1754.24 334.713 Q1752.35 332.63 1749.2 332.63 Q1745.63 332.63 1743.48 334.644 Q1741.35 336.658 1741.03 340.315 L1756.21 340.292 Z" fill="#000000" fill-rule="evenodd" fill-opacity="1" /><path clip-path="url(#clip080)" d="M 0 0 M1776.72 342.537 Q1771.56 342.537 1769.57 343.718 Q1767.58 344.898 1767.58 347.746 Q1767.58 350.014 1769.06 351.357 Q1770.56 352.676 1773.13 352.676 Q1776.67 352.676 1778.8 350.176 Q1780.96 347.653 1780.96 343.486 L1780.96 342.537 L1776.72 342.537 M1785.22 340.778 L1785.22 355.57 L1780.96 355.57 L1780.96 351.634 Q1779.5 353.995 1777.32 355.13 Q1775.15 356.241 1772 356.241 Q1768.02 356.241 1765.66 354.019 Q1763.32 351.773 1763.32 348.023 Q1763.32 343.648 1766.23 341.426 Q1769.17 339.204 1774.98 339.204 L1780.96 339.204 L1780.96 338.787 Q1780.96 335.847 1779.01 334.25 Q1777.09 332.63 1773.6 332.63 Q1771.37 332.63 1769.27 333.162 Q1767.16 333.695 1765.22 334.759 L1765.22 330.824 Q1767.55 329.922 1769.75 329.482 Q1771.95 329.019 1774.04 329.019 Q1779.66 329.019 1782.44 331.935 Q1785.22 334.852 1785.22 340.778 Z" fill="#000000" fill-rule="evenodd" fill-opacity="1" /><path clip-path="url(#clip080)" d="M 0 0 M1811.23 339.921 L1811.23 355.57 L1806.97 355.57 L1806.97 340.06 Q1806.97 336.38 1805.54 334.551 Q1804.1 332.722 1801.23 332.722 Q1797.79 332.722 1795.79 334.922 Q1793.8 337.121 1793.8 340.917 L1793.8 355.57 L1789.52 355.57 L1789.52 329.644 L1793.8 329.644 L1793.8 333.672 Q1795.33 331.334 1797.39 330.176 Q1799.48 329.019 1802.18 329.019 Q1806.65 329.019 1808.94 331.797 Q1811.23 334.551 1811.23 339.921 Z" fill="#000000" fill-rule="evenodd" fill-opacity="1" /><polyline clip-path="url(#clip080)" style="stroke:#000000; stroke-width:4; stroke-opacity:1; fill:none" points="
  1519.75,398.77 1670.81,398.77 
  "/>
<path clip-path="url(#clip080)" d="M 0 0 M1716.33 395.101 Q1717.92 392.23 1720.15 390.865 Q1722.37 389.499 1725.38 389.499 Q1729.43 389.499 1731.63 392.346 Q1733.83 395.17 1733.83 400.401 L1733.83 416.05 L1729.54 416.05 L1729.54 400.54 Q1729.54 396.814 1728.23 395.008 Q1726.91 393.202 1724.2 393.202 Q1720.89 393.202 1718.97 395.402 Q1717.04 397.601 1717.04 401.397 L1717.04 416.05 L1712.76 416.05 L1712.76 400.54 Q1712.76 396.79 1711.44 395.008 Q1710.12 393.202 1707.37 393.202 Q1704.11 393.202 1702.18 395.425 Q1700.26 397.624 1700.26 401.397 L1700.26 416.05 L1695.98 416.05 L1695.98 390.124 L1700.26 390.124 L1700.26 394.152 Q1701.72 391.767 1703.76 390.633 Q1705.79 389.499 1708.6 389.499 Q1711.42 389.499 1713.39 390.934 Q1715.38 392.369 1716.33 395.101 Z" fill="#000000" fill-rule="evenodd" fill-opacity="1" /><path clip-path="url(#clip080)" d="M 0 0 M1760.47 402.022 L1760.47 404.105 L1740.89 404.105 Q1741.17 408.503 1743.53 410.818 Q1745.91 413.11 1750.15 413.11 Q1752.6 413.11 1754.89 412.508 Q1757.21 411.906 1759.48 410.702 L1759.48 414.73 Q1757.18 415.702 1754.78 416.212 Q1752.37 416.721 1749.89 416.721 Q1743.69 416.721 1740.05 413.11 Q1736.44 409.499 1736.44 403.341 Q1736.44 396.976 1739.87 393.249 Q1743.32 389.499 1749.15 389.499 Q1754.38 389.499 1757.42 392.878 Q1760.47 396.235 1760.47 402.022 M1756.21 400.772 Q1756.17 397.277 1754.24 395.193 Q1752.35 393.11 1749.2 393.11 Q1745.63 393.11 1743.48 395.124 Q1741.35 397.138 1741.03 400.795 L1756.21 400.772 Z" fill="#000000" fill-rule="evenodd" fill-opacity="1" /><path clip-path="url(#clip080)" d="M 0 0 M1782 394.059 L1782 380.031 L1786.26 380.031 L1786.26 416.05 L1782 416.05 L1782 412.161 Q1780.66 414.475 1778.6 415.61 Q1776.56 416.721 1773.69 416.721 Q1768.99 416.721 1766.03 412.971 Q1763.09 409.221 1763.09 403.11 Q1763.09 396.999 1766.03 393.249 Q1768.99 389.499 1773.69 389.499 Q1776.56 389.499 1778.6 390.633 Q1780.66 391.744 1782 394.059 M1767.48 403.11 Q1767.48 407.809 1769.41 410.494 Q1771.35 413.156 1774.73 413.156 Q1778.11 413.156 1780.05 410.494 Q1782 407.809 1782 403.11 Q1782 398.411 1780.05 395.749 Q1778.11 393.064 1774.73 393.064 Q1771.35 393.064 1769.41 395.749 Q1767.48 398.411 1767.48 403.11 Z" fill="#000000" fill-rule="evenodd" fill-opacity="1" /><path clip-path="url(#clip080)" d="M 0 0 M1790.73 390.124 L1794.98 390.124 L1794.98 416.05 L1790.73 416.05 L1790.73 390.124 M1790.73 380.031 L1794.98 380.031 L1794.98 385.425 L1790.73 385.425 L1790.73 380.031 Z" fill="#000000" fill-rule="evenodd" fill-opacity="1" /><path clip-path="url(#clip080)" d="M 0 0 M1811.23 403.017 Q1806.07 403.017 1804.08 404.198 Q1802.09 405.378 1802.09 408.226 Q1802.09 410.494 1803.57 411.837 Q1805.08 413.156 1807.65 413.156 Q1811.19 413.156 1813.32 410.656 Q1815.47 408.133 1815.47 403.966 L1815.47 403.017 L1811.23 403.017 M1819.73 401.258 L1819.73 416.05 L1815.47 416.05 L1815.47 412.114 Q1814.01 414.475 1811.84 415.61 Q1809.66 416.721 1806.51 416.721 Q1802.53 416.721 1800.17 414.499 Q1797.83 412.253 1797.83 408.503 Q1797.83 404.128 1800.75 401.906 Q1803.69 399.684 1809.5 399.684 L1815.47 399.684 L1815.47 399.267 Q1815.47 396.327 1813.53 394.73 Q1811.6 393.11 1808.11 393.11 Q1805.89 393.11 1803.78 393.642 Q1801.67 394.175 1799.73 395.239 L1799.73 391.304 Q1802.07 390.402 1804.27 389.962 Q1806.47 389.499 1808.55 389.499 Q1814.17 389.499 1816.95 392.415 Q1819.73 395.332 1819.73 401.258 Z" fill="#000000" fill-rule="evenodd" fill-opacity="1" /><path clip-path="url(#clip080)" d="M 0 0 M1845.75 400.401 L1845.75 416.05 L1841.49 416.05 L1841.49 400.54 Q1841.49 396.86 1840.05 395.031 Q1838.62 393.202 1835.75 393.202 Q1832.3 393.202 1830.31 395.402 Q1828.32 397.601 1828.32 401.397 L1828.32 416.05 L1824.04 416.05 L1824.04 390.124 L1828.32 390.124 L1828.32 394.152 Q1829.85 391.814 1831.91 390.656 Q1833.99 389.499 1836.7 389.499 Q1841.16 389.499 1843.46 392.277 Q1845.75 395.031 1845.75 400.401 Z" fill="#000000" fill-rule="evenodd" fill-opacity="1" /></svg>
