<?xml version="1.0" encoding="utf-8"?>
<svg xmlns="http://www.w3.org/2000/svg" xmlns:xlink="http://www.w3.org/1999/xlink" width="600" height="400" viewBox="0 0 2400 1600">
<defs>
  <clipPath id="clip020">
    <rect x="0" y="0" width="2400" height="1600"/>
  </clipPath>
</defs>
<path clip-path="url(#clip020)" d="
M0 1600 L2400 1600 L2400 0 L0 0  Z
  " fill="#ffffff" fill-rule="evenodd" fill-opacity="1"/>
<defs>
  <clipPath id="clip021">
    <rect x="480" y="0" width="1681" height="1600"/>
  </clipPath>
</defs>
<path clip-path="url(#clip020)" d="
M86.9921 1521.01 L2352.76 1521.01 L2352.76 47.2441 L86.9921 47.2441  Z
  " fill="#ffffff" fill-rule="evenodd" fill-opacity="1"/>
<defs>
  <clipPath id="clip022">
    <rect x="86" y="47" width="2267" height="1475"/>
  </clipPath>
</defs>
<polyline clip-path="url(#clip022)" style="stroke:#000000; stroke-width:2; stroke-opacity:0.1; fill:none" points="
  277.161,1521.01 277.161,47.2441 
  "/>
<polyline clip-path="url(#clip022)" style="stroke:#000000; stroke-width:2; stroke-opacity:0.1; fill:none" points="
  650.775,1521.01 650.775,47.2441 
  "/>
<polyline clip-path="url(#clip022)" style="stroke:#000000; stroke-width:2; stroke-opacity:0.1; fill:none" points="
  1024.39,1521.01 1024.39,47.2441 
  "/>
<polyline clip-path="url(#clip022)" style="stroke:#000000; stroke-width:2; stroke-opacity:0.1; fill:none" points="
  1398,1521.01 1398,47.2441 
  "/>
<polyline clip-path="url(#clip022)" style="stroke:#000000; stroke-width:2; stroke-opacity:0.1; fill:none" points="
  1771.62,1521.01 1771.62,47.2441 
  "/>
<polyline clip-path="url(#clip022)" style="stroke:#000000; stroke-width:2; stroke-opacity:0.1; fill:none" points="
  2145.23,1521.01 2145.23,47.2441 
  "/>
<polyline clip-path="url(#clip022)" style="stroke:#000000; stroke-width:2; stroke-opacity:0.1; fill:none" points="
  86.9921,1479.3 2352.76,1479.3 
  "/>
<polyline clip-path="url(#clip022)" style="stroke:#000000; stroke-width:2; stroke-opacity:0.1; fill:none" points="
  86.9921,1166.11 2352.76,1166.11 
  "/>
<polyline clip-path="url(#clip022)" style="stroke:#000000; stroke-width:2; stroke-opacity:0.1; fill:none" points="
  86.9921,852.917 2352.76,852.917 
  "/>
<polyline clip-path="url(#clip022)" style="stroke:#000000; stroke-width:2; stroke-opacity:0.1; fill:none" points="
  86.9921,539.727 2352.76,539.727 
  "/>
<polyline clip-path="url(#clip022)" style="stroke:#000000; stroke-width:2; stroke-opacity:0.1; fill:none" points="
  86.9921,226.536 2352.76,226.536 
  "/>
<polyline clip-path="url(#clip020)" style="stroke:#000000; stroke-width:4; stroke-opacity:1; fill:none" points="
  86.9921,1521.01 2352.76,1521.01 
  "/>
<polyline clip-path="url(#clip020)" style="stroke:#000000; stroke-width:4; stroke-opacity:1; fill:none" points="
  86.9921,1521.01 86.9921,47.2441 
  "/>
<polyline clip-path="url(#clip020)" style="stroke:#000000; stroke-width:4; stroke-opacity:1; fill:none" points="
  277.161,1521.01 277.161,1503.32 
  "/>
<polyline clip-path="url(#clip020)" style="stroke:#000000; stroke-width:4; stroke-opacity:1; fill:none" points="
  650.775,1521.01 650.775,1503.32 
  "/>
<polyline clip-path="url(#clip020)" style="stroke:#000000; stroke-width:4; stroke-opacity:1; fill:none" points="
  1024.39,1521.01 1024.39,1503.32 
  "/>
<polyline clip-path="url(#clip020)" style="stroke:#000000; stroke-width:4; stroke-opacity:1; fill:none" points="
  1398,1521.01 1398,1503.32 
  "/>
<polyline clip-path="url(#clip020)" style="stroke:#000000; stroke-width:4; stroke-opacity:1; fill:none" points="
  1771.62,1521.01 1771.62,1503.32 
  "/>
<polyline clip-path="url(#clip020)" style="stroke:#000000; stroke-width:4; stroke-opacity:1; fill:none" points="
  2145.23,1521.01 2145.23,1503.32 
  "/>
<polyline clip-path="url(#clip020)" style="stroke:#000000; stroke-width:4; stroke-opacity:1; fill:none" points="
  86.9921,1479.3 114.181,1479.3 
  "/>
<polyline clip-path="url(#clip020)" style="stroke:#000000; stroke-width:4; stroke-opacity:1; fill:none" points="
  86.9921,1166.11 114.181,1166.11 
  "/>
<polyline clip-path="url(#clip020)" style="stroke:#000000; stroke-width:4; stroke-opacity:1; fill:none" points="
  86.9921,852.917 114.181,852.917 
  "/>
<polyline clip-path="url(#clip020)" style="stroke:#000000; stroke-width:4; stroke-opacity:1; fill:none" points="
  86.9921,539.727 114.181,539.727 
  "/>
<polyline clip-path="url(#clip020)" style="stroke:#000000; stroke-width:4; stroke-opacity:1; fill:none" points="
  86.9921,226.536 114.181,226.536 
  "/>
<path clip-path="url(#clip020)" d="M 0 0 M245.668 1543 Q242.057 1543 240.228 1546.56 Q238.422 1550.11 238.422 1557.23 Q238.422 1564.34 240.228 1567.91 Q242.057 1571.45 245.668 1571.45 Q249.302 1571.45 251.107 1567.91 Q252.936 1564.34 252.936 1557.23 Q252.936 1550.11 251.107 1546.56 Q249.302 1543 245.668 1543 M245.668 1539.29 Q251.478 1539.29 254.533 1543.9 Q257.612 1548.48 257.612 1557.23 Q257.612 1565.96 254.533 1570.57 Q251.478 1575.15 245.668 1575.15 Q239.857 1575.15 236.779 1570.57 Q233.723 1565.96 233.723 1557.23 Q233.723 1548.48 236.779 1543.9 Q239.857 1539.29 245.668 1539.29 Z" fill="#000000" fill-rule="evenodd" fill-opacity="1" /><path clip-path="url(#clip020)" d="M 0 0 M262.681 1568.6 L267.566 1568.6 L267.566 1574.48 L262.681 1574.48 L262.681 1568.6 Z" fill="#000000" fill-rule="evenodd" fill-opacity="1" /><path clip-path="url(#clip020)" d="M 0 0 M282.635 1543 Q279.024 1543 277.195 1546.56 Q275.39 1550.11 275.39 1557.23 Q275.39 1564.34 277.195 1567.91 Q279.024 1571.45 282.635 1571.45 Q286.269 1571.45 288.075 1567.91 Q289.904 1564.34 289.904 1557.23 Q289.904 1550.11 288.075 1546.56 Q286.269 1543 282.635 1543 M282.635 1539.29 Q288.445 1539.29 291.501 1543.9 Q294.579 1548.48 294.579 1557.23 Q294.579 1565.96 291.501 1570.57 Q288.445 1575.15 282.635 1575.15 Q276.825 1575.15 273.746 1570.57 Q270.691 1565.96 270.691 1557.23 Q270.691 1548.48 273.746 1543.9 Q276.825 1539.29 282.635 1539.29 Z" fill="#000000" fill-rule="evenodd" fill-opacity="1" /><path clip-path="url(#clip020)" d="M 0 0 M299.695 1539.92 L318.052 1539.92 L318.052 1543.86 L303.978 1543.86 L303.978 1552.33 Q304.996 1551.98 306.015 1551.82 Q307.033 1551.63 308.052 1551.63 Q313.839 1551.63 317.218 1554.8 Q320.598 1557.98 320.598 1563.39 Q320.598 1568.97 317.126 1572.07 Q313.653 1575.15 307.334 1575.15 Q305.158 1575.15 302.89 1574.78 Q300.644 1574.41 298.237 1573.67 L298.237 1568.97 Q300.32 1570.1 302.542 1570.66 Q304.765 1571.22 307.241 1571.22 Q311.246 1571.22 313.584 1569.11 Q315.922 1567 315.922 1563.39 Q315.922 1559.78 313.584 1557.67 Q311.246 1555.57 307.241 1555.57 Q305.366 1555.57 303.491 1555.98 Q301.64 1556.4 299.695 1557.28 L299.695 1539.92 Z" fill="#000000" fill-rule="evenodd" fill-opacity="1" /><path clip-path="url(#clip020)" d="M 0 0 M619.398 1543 Q615.787 1543 613.958 1546.56 Q612.152 1550.11 612.152 1557.23 Q612.152 1564.34 613.958 1567.91 Q615.787 1571.45 619.398 1571.45 Q623.032 1571.45 624.838 1567.91 Q626.666 1564.34 626.666 1557.23 Q626.666 1550.11 624.838 1546.56 Q623.032 1543 619.398 1543 M619.398 1539.29 Q625.208 1539.29 628.263 1543.9 Q631.342 1548.48 631.342 1557.23 Q631.342 1565.96 628.263 1570.57 Q625.208 1575.15 619.398 1575.15 Q613.588 1575.15 610.509 1570.57 Q607.453 1565.96 607.453 1557.23 Q607.453 1548.48 610.509 1543.9 Q613.588 1539.29 619.398 1539.29 Z" fill="#000000" fill-rule="evenodd" fill-opacity="1" /><path clip-path="url(#clip020)" d="M 0 0 M636.412 1568.6 L641.296 1568.6 L641.296 1574.48 L636.412 1574.48 L636.412 1568.6 Z" fill="#000000" fill-rule="evenodd" fill-opacity="1" /><path clip-path="url(#clip020)" d="M 0 0 M647.175 1570.54 L654.814 1570.54 L654.814 1544.18 L646.504 1545.85 L646.504 1541.59 L654.768 1539.92 L659.444 1539.92 L659.444 1570.54 L667.083 1570.54 L667.083 1574.48 L647.175 1574.48 L647.175 1570.54 Z" fill="#000000" fill-rule="evenodd" fill-opacity="1" /><path clip-path="url(#clip020)" d="M 0 0 M682.152 1543 Q678.541 1543 676.712 1546.56 Q674.907 1550.11 674.907 1557.23 Q674.907 1564.34 676.712 1567.91 Q678.541 1571.45 682.152 1571.45 Q685.786 1571.45 687.592 1567.91 Q689.421 1564.34 689.421 1557.23 Q689.421 1550.11 687.592 1546.56 Q685.786 1543 682.152 1543 M682.152 1539.29 Q687.962 1539.29 691.018 1543.9 Q694.096 1548.48 694.096 1557.23 Q694.096 1565.96 691.018 1570.57 Q687.962 1575.15 682.152 1575.15 Q676.342 1575.15 673.263 1570.57 Q670.208 1565.96 670.208 1557.23 Q670.208 1548.48 673.263 1543.9 Q676.342 1539.29 682.152 1539.29 Z" fill="#000000" fill-rule="evenodd" fill-opacity="1" /><path clip-path="url(#clip020)" d="M 0 0 M993.51 1543 Q989.899 1543 988.07 1546.56 Q986.265 1550.11 986.265 1557.23 Q986.265 1564.34 988.07 1567.91 Q989.899 1571.45 993.51 1571.45 Q997.144 1571.45 998.95 1567.91 Q1000.78 1564.34 1000.78 1557.23 Q1000.78 1550.11 998.95 1546.56 Q997.144 1543 993.51 1543 M993.51 1539.29 Q999.32 1539.29 1002.38 1543.9 Q1005.45 1548.48 1005.45 1557.23 Q1005.45 1565.96 1002.38 1570.57 Q999.32 1575.15 993.51 1575.15 Q987.7 1575.15 984.621 1570.57 Q981.565 1565.96 981.565 1557.23 Q981.565 1548.48 984.621 1543.9 Q987.7 1539.29 993.51 1539.29 Z" fill="#000000" fill-rule="evenodd" fill-opacity="1" /><path clip-path="url(#clip020)" d="M 0 0 M1010.52 1568.6 L1015.41 1568.6 L1015.41 1574.48 L1010.52 1574.48 L1010.52 1568.6 Z" fill="#000000" fill-rule="evenodd" fill-opacity="1" /><path clip-path="url(#clip020)" d="M 0 0 M1021.29 1570.54 L1028.93 1570.54 L1028.93 1544.18 L1020.62 1545.85 L1020.62 1541.59 L1028.88 1539.92 L1033.56 1539.92 L1033.56 1570.54 L1041.19 1570.54 L1041.19 1574.48 L1021.29 1574.48 L1021.29 1570.54 Z" fill="#000000" fill-rule="evenodd" fill-opacity="1" /><path clip-path="url(#clip020)" d="M 0 0 M1046.31 1539.92 L1064.67 1539.92 L1064.67 1543.86 L1050.59 1543.86 L1050.59 1552.33 Q1051.61 1551.98 1052.63 1551.82 Q1053.65 1551.63 1054.67 1551.63 Q1060.45 1551.63 1063.83 1554.8 Q1067.21 1557.98 1067.21 1563.39 Q1067.21 1568.97 1063.74 1572.07 Q1060.27 1575.15 1053.95 1575.15 Q1051.77 1575.15 1049.5 1574.78 Q1047.26 1574.41 1044.85 1573.67 L1044.85 1568.97 Q1046.94 1570.1 1049.16 1570.66 Q1051.38 1571.22 1053.86 1571.22 Q1057.86 1571.22 1060.2 1569.11 Q1062.54 1567 1062.54 1563.39 Q1062.54 1559.78 1060.2 1557.67 Q1057.86 1555.57 1053.86 1555.57 Q1051.98 1555.57 1050.11 1555.98 Q1048.25 1556.4 1046.31 1557.28 L1046.31 1539.92 Z" fill="#000000" fill-rule="evenodd" fill-opacity="1" /><path clip-path="url(#clip020)" d="M 0 0 M1366.81 1543 Q1363.2 1543 1361.37 1546.56 Q1359.57 1550.11 1359.57 1557.23 Q1359.57 1564.34 1361.37 1567.91 Q1363.2 1571.45 1366.81 1571.45 Q1370.45 1571.45 1372.25 1567.91 Q1374.08 1564.34 1374.08 1557.23 Q1374.08 1550.11 1372.25 1546.56 Q1370.45 1543 1366.81 1543 M1366.81 1539.29 Q1372.62 1539.29 1375.68 1543.9 Q1378.76 1548.48 1378.76 1557.23 Q1378.76 1565.96 1375.68 1570.57 Q1372.62 1575.15 1366.81 1575.15 Q1361 1575.15 1357.92 1570.57 Q1354.87 1565.96 1354.87 1557.23 Q1354.87 1548.48 1357.92 1543.9 Q1361 1539.29 1366.81 1539.29 Z" fill="#000000" fill-rule="evenodd" fill-opacity="1" /><path clip-path="url(#clip020)" d="M 0 0 M1383.83 1568.6 L1388.71 1568.6 L1388.71 1574.48 L1383.83 1574.48 L1383.83 1568.6 Z" fill="#000000" fill-rule="evenodd" fill-opacity="1" /><path clip-path="url(#clip020)" d="M 0 0 M1397.81 1570.54 L1414.13 1570.54 L1414.13 1574.48 L1392.18 1574.48 L1392.18 1570.54 Q1394.84 1567.79 1399.43 1563.16 Q1404.03 1558.51 1405.21 1557.17 Q1407.46 1554.64 1408.34 1552.91 Q1409.24 1551.15 1409.24 1549.46 Q1409.24 1546.7 1407.3 1544.97 Q1405.38 1543.23 1402.27 1543.23 Q1400.08 1543.23 1397.62 1543.99 Q1395.19 1544.76 1392.41 1546.31 L1392.41 1541.59 Q1395.24 1540.45 1397.69 1539.87 Q1400.14 1539.29 1402.18 1539.29 Q1407.55 1539.29 1410.75 1541.98 Q1413.94 1544.67 1413.94 1549.16 Q1413.94 1551.29 1413.13 1553.21 Q1412.34 1555.1 1410.24 1557.7 Q1409.66 1558.37 1406.56 1561.59 Q1403.46 1564.78 1397.81 1570.54 Z" fill="#000000" fill-rule="evenodd" fill-opacity="1" /><path clip-path="url(#clip020)" d="M 0 0 M1429.2 1543 Q1425.58 1543 1423.76 1546.56 Q1421.95 1550.11 1421.95 1557.23 Q1421.95 1564.34 1423.76 1567.91 Q1425.58 1571.45 1429.2 1571.45 Q1432.83 1571.45 1434.64 1567.91 Q1436.46 1564.34 1436.46 1557.23 Q1436.46 1550.11 1434.64 1546.56 Q1432.83 1543 1429.2 1543 M1429.2 1539.29 Q1435.01 1539.29 1438.06 1543.9 Q1441.14 1548.48 1441.14 1557.23 Q1441.14 1565.96 1438.06 1570.57 Q1435.01 1575.15 1429.2 1575.15 Q1423.39 1575.15 1420.31 1570.57 Q1417.25 1565.96 1417.25 1557.23 Q1417.25 1548.48 1420.31 1543.9 Q1423.39 1539.29 1429.2 1539.29 Z" fill="#000000" fill-rule="evenodd" fill-opacity="1" /><path clip-path="url(#clip020)" d="M 0 0 M1740.92 1543 Q1737.31 1543 1735.48 1546.56 Q1733.68 1550.11 1733.68 1557.23 Q1733.68 1564.34 1735.48 1567.91 Q1737.31 1571.45 1740.92 1571.45 Q1744.56 1571.45 1746.36 1567.91 Q1748.19 1564.34 1748.19 1557.23 Q1748.19 1550.11 1746.36 1546.56 Q1744.56 1543 1740.92 1543 M1740.92 1539.29 Q1746.73 1539.29 1749.79 1543.9 Q1752.87 1548.48 1752.87 1557.23 Q1752.87 1565.96 1749.79 1570.57 Q1746.73 1575.15 1740.92 1575.15 Q1735.11 1575.15 1732.03 1570.57 Q1728.98 1565.96 1728.98 1557.23 Q1728.98 1548.48 1732.03 1543.9 Q1735.11 1539.29 1740.92 1539.29 Z" fill="#000000" fill-rule="evenodd" fill-opacity="1" /><path clip-path="url(#clip020)" d="M 0 0 M1757.94 1568.6 L1762.82 1568.6 L1762.82 1574.48 L1757.94 1574.48 L1757.94 1568.6 Z" fill="#000000" fill-rule="evenodd" fill-opacity="1" /><path clip-path="url(#clip020)" d="M 0 0 M1771.92 1570.54 L1788.24 1570.54 L1788.24 1574.48 L1766.29 1574.48 L1766.29 1570.54 Q1768.96 1567.79 1773.54 1563.16 Q1778.15 1558.51 1779.33 1557.17 Q1781.57 1554.64 1782.45 1552.91 Q1783.35 1551.15 1783.35 1549.46 Q1783.35 1546.7 1781.41 1544.97 Q1779.49 1543.23 1776.39 1543.23 Q1774.19 1543.23 1771.73 1543.99 Q1769.3 1544.76 1766.53 1546.31 L1766.53 1541.59 Q1769.35 1540.45 1771.8 1539.87 Q1774.26 1539.29 1776.29 1539.29 Q1781.66 1539.29 1784.86 1541.98 Q1788.05 1544.67 1788.05 1549.16 Q1788.05 1551.29 1787.24 1553.21 Q1786.46 1555.1 1784.35 1557.7 Q1783.77 1558.37 1780.67 1561.59 Q1777.57 1564.78 1771.92 1570.54 Z" fill="#000000" fill-rule="evenodd" fill-opacity="1" /><path clip-path="url(#clip020)" d="M 0 0 M1793.35 1539.92 L1811.71 1539.92 L1811.71 1543.86 L1797.64 1543.86 L1797.64 1552.33 Q1798.65 1551.98 1799.67 1551.82 Q1800.69 1551.63 1801.71 1551.63 Q1807.5 1551.63 1810.88 1554.8 Q1814.26 1557.98 1814.26 1563.39 Q1814.26 1568.97 1810.78 1572.07 Q1807.31 1575.15 1800.99 1575.15 Q1798.82 1575.15 1796.55 1574.78 Q1794.3 1574.41 1791.9 1573.67 L1791.9 1568.97 Q1793.98 1570.1 1796.2 1570.66 Q1798.42 1571.22 1800.9 1571.22 Q1804.9 1571.22 1807.24 1569.11 Q1809.58 1567 1809.58 1563.39 Q1809.58 1559.78 1807.24 1557.67 Q1804.9 1555.57 1800.9 1555.57 Q1799.03 1555.57 1797.15 1555.98 Q1795.3 1556.4 1793.35 1557.28 L1793.35 1539.92 Z" fill="#000000" fill-rule="evenodd" fill-opacity="1" /><path clip-path="url(#clip020)" d="M 0 0 M2113.57 1543 Q2109.95 1543 2108.13 1546.56 Q2106.32 1550.11 2106.32 1557.23 Q2106.32 1564.34 2108.13 1567.91 Q2109.95 1571.45 2113.57 1571.45 Q2117.2 1571.45 2119.01 1567.91 Q2120.83 1564.34 2120.83 1557.23 Q2120.83 1550.11 2119.01 1546.56 Q2117.2 1543 2113.57 1543 M2113.57 1539.29 Q2119.38 1539.29 2122.43 1543.9 Q2125.51 1548.48 2125.51 1557.23 Q2125.51 1565.96 2122.43 1570.57 Q2119.38 1575.15 2113.57 1575.15 Q2107.76 1575.15 2104.68 1570.57 Q2101.62 1565.96 2101.62 1557.23 Q2101.62 1548.48 2104.68 1543.9 Q2107.76 1539.29 2113.57 1539.29 Z" fill="#000000" fill-rule="evenodd" fill-opacity="1" /><path clip-path="url(#clip020)" d="M 0 0 M2130.58 1568.6 L2135.46 1568.6 L2135.46 1574.48 L2130.58 1574.48 L2130.58 1568.6 Z" fill="#000000" fill-rule="evenodd" fill-opacity="1" /><path clip-path="url(#clip020)" d="M 0 0 M2154.7 1555.85 Q2158.06 1556.56 2159.93 1558.83 Q2161.83 1561.1 2161.83 1564.43 Q2161.83 1569.55 2158.31 1572.35 Q2154.79 1575.15 2148.31 1575.15 Q2146.14 1575.15 2143.82 1574.71 Q2141.53 1574.29 2139.08 1573.44 L2139.08 1568.92 Q2141.02 1570.06 2143.33 1570.64 Q2145.65 1571.22 2148.17 1571.22 Q2152.57 1571.22 2154.86 1569.48 Q2157.18 1567.74 2157.18 1564.43 Q2157.18 1561.38 2155.02 1559.67 Q2152.89 1557.93 2149.08 1557.93 L2145.05 1557.93 L2145.05 1554.09 L2149.26 1554.09 Q2152.71 1554.09 2154.54 1552.72 Q2156.37 1551.33 2156.37 1548.74 Q2156.37 1546.08 2154.47 1544.67 Q2152.59 1543.23 2149.08 1543.23 Q2147.15 1543.23 2144.95 1543.65 Q2142.76 1544.06 2140.12 1544.94 L2140.12 1540.78 Q2142.78 1540.04 2145.09 1539.67 Q2147.43 1539.29 2149.49 1539.29 Q2154.82 1539.29 2157.92 1541.73 Q2161.02 1544.13 2161.02 1548.25 Q2161.02 1551.12 2159.38 1553.11 Q2157.73 1555.08 2154.7 1555.85 Z" fill="#000000" fill-rule="evenodd" fill-opacity="1" /><path clip-path="url(#clip020)" d="M 0 0 M2176.9 1543 Q2173.29 1543 2171.46 1546.56 Q2169.65 1550.11 2169.65 1557.23 Q2169.65 1564.34 2171.46 1567.91 Q2173.29 1571.45 2176.9 1571.45 Q2180.53 1571.45 2182.34 1567.91 Q2184.17 1564.34 2184.17 1557.23 Q2184.17 1550.11 2182.34 1546.56 Q2180.53 1543 2176.9 1543 M2176.9 1539.29 Q2182.71 1539.29 2185.76 1543.9 Q2188.84 1548.48 2188.84 1557.23 Q2188.84 1565.96 2185.76 1570.57 Q2182.71 1575.15 2176.9 1575.15 Q2171.09 1575.15 2168.01 1570.57 Q2164.95 1565.96 2164.95 1557.23 Q2164.95 1548.48 2168.01 1543.9 Q2171.09 1539.29 2176.9 1539.29 Z" fill="#000000" fill-rule="evenodd" fill-opacity="1" /><path clip-path="url(#clip020)" d="M 0 0 M51.0477 1465.1 Q47.4367 1465.1 45.608 1468.66 Q43.8024 1472.2 43.8024 1479.33 Q43.8024 1486.44 45.608 1490 Q47.4367 1493.55 51.0477 1493.55 Q54.682 1493.55 56.4875 1490 Q58.3162 1486.44 58.3162 1479.33 Q58.3162 1472.2 56.4875 1468.66 Q54.682 1465.1 51.0477 1465.1 M51.0477 1461.39 Q56.8579 1461.39 59.9134 1466 Q62.9921 1470.58 62.9921 1479.33 Q62.9921 1488.06 59.9134 1492.67 Q56.8579 1497.25 51.0477 1497.25 Q45.2376 1497.25 42.1589 1492.67 Q39.1034 1488.06 39.1034 1479.33 Q39.1034 1470.58 42.1589 1466 Q45.2376 1461.39 51.0477 1461.39 Z" fill="#000000" fill-rule="evenodd" fill-opacity="1" /><path clip-path="url(#clip020)" d="M 0 0 M46.6728 1179.45 L62.9921 1179.45 L62.9921 1183.39 L41.0478 1183.39 L41.0478 1179.45 Q43.7098 1176.7 48.2931 1172.07 Q52.8996 1167.42 54.0801 1166.07 Q56.3255 1163.55 57.2051 1161.81 Q58.1079 1160.05 58.1079 1158.36 Q58.1079 1155.61 56.1635 1153.87 Q54.2422 1152.14 51.1403 1152.14 Q48.9413 1152.14 46.4876 1152.9 Q44.057 1153.67 41.2793 1155.22 L41.2793 1150.49 Q44.1033 1149.36 46.557 1148.78 Q49.0107 1148.2 51.0477 1148.2 Q56.4181 1148.2 59.6125 1150.89 Q62.8069 1153.57 62.8069 1158.06 Q62.8069 1160.19 61.9968 1162.11 Q61.2097 1164.01 59.1033 1166.6 Q58.5246 1167.28 55.4227 1170.49 Q52.3209 1173.69 46.6728 1179.45 Z" fill="#000000" fill-rule="evenodd" fill-opacity="1" /><path clip-path="url(#clip020)" d="M 0 0 M53.4088 839.711 L41.6034 858.16 L53.4088 858.16 L53.4088 839.711 M52.182 835.637 L58.0616 835.637 L58.0616 858.16 L62.9921 858.16 L62.9921 862.049 L58.0616 862.049 L58.0616 870.197 L53.4088 870.197 L53.4088 862.049 L37.8071 862.049 L37.8071 857.535 L52.182 835.637 Z" fill="#000000" fill-rule="evenodd" fill-opacity="1" /><path clip-path="url(#clip020)" d="M 0 0 M51.4644 537.863 Q48.3163 537.863 46.4644 540.016 Q44.6357 542.169 44.6357 545.919 Q44.6357 549.646 46.4644 551.822 Q48.3163 553.974 51.4644 553.974 Q54.6125 553.974 56.4412 551.822 Q58.2931 549.646 58.2931 545.919 Q58.2931 542.169 56.4412 540.016 Q54.6125 537.863 51.4644 537.863 M60.7468 523.211 L60.7468 527.47 Q58.9875 526.636 57.182 526.197 Q55.3996 525.757 53.6403 525.757 Q49.0107 525.757 46.557 528.882 Q44.1265 532.007 43.7793 538.326 Q45.145 536.312 47.2052 535.248 Q49.2653 534.16 51.7422 534.16 Q56.9505 534.16 59.9597 537.331 Q62.9921 540.479 62.9921 545.919 Q62.9921 551.243 59.844 554.46 Q56.6959 557.678 51.4644 557.678 Q45.4691 557.678 42.2978 553.095 Q39.1265 548.488 39.1265 539.761 Q39.1265 531.567 43.0154 526.706 Q46.9042 521.822 53.4551 521.822 Q55.2144 521.822 56.9968 522.169 Q58.8023 522.516 60.7468 523.211 Z" fill="#000000" fill-rule="evenodd" fill-opacity="1" /><path clip-path="url(#clip020)" d="M 0 0 M51.1403 227.404 Q47.807 227.404 45.8857 229.187 Q43.9876 230.969 43.9876 234.094 Q43.9876 237.219 45.8857 239.002 Q47.807 240.784 51.1403 240.784 Q54.4737 240.784 56.3949 239.002 Q58.3162 237.196 58.3162 234.094 Q58.3162 230.969 56.3949 229.187 Q54.4968 227.404 51.1403 227.404 M46.4644 225.414 Q43.4552 224.673 41.7654 222.613 Q40.0987 220.553 40.0987 217.59 Q40.0987 213.446 43.0385 211.039 Q46.0015 208.631 51.1403 208.631 Q56.3023 208.631 59.2421 211.039 Q62.1819 213.446 62.1819 217.59 Q62.1819 220.553 60.4921 222.613 Q58.8255 224.673 55.8394 225.414 Q59.219 226.201 61.094 228.492 Q62.9921 230.784 62.9921 234.094 Q62.9921 239.117 59.9134 241.803 Q56.8579 244.488 51.1403 244.488 Q45.4228 244.488 42.3441 241.803 Q39.2885 239.117 39.2885 234.094 Q39.2885 230.784 41.1867 228.492 Q43.0848 226.201 46.4644 225.414 M44.7515 218.029 Q44.7515 220.715 46.4181 222.219 Q48.1079 223.724 51.1403 223.724 Q54.1496 223.724 55.8394 222.219 Q57.5523 220.715 57.5523 218.029 Q57.5523 215.344 55.8394 213.84 Q54.1496 212.335 51.1403 212.335 Q48.1079 212.335 46.4181 213.84 Q44.7515 215.344 44.7515 218.029 Z" fill="#000000" fill-rule="evenodd" fill-opacity="1" /><path clip-path="url(#clip022)" d="
M151.118 1460.67 L155.315 1459.42 L159.512 1458.15 L163.709 1456.85 L167.906 1455.53 L172.103 1454.19 L176.3 1452.84 L180.497 1451.48 L184.694 1450.1 L188.891 1448.71 
  L193.088 1447.3 L197.285 1445.88 L201.482 1444.45 L205.679 1443 L209.876 1441.53 L214.074 1440.03 L218.271 1438.52 L222.468 1436.97 L226.665 1435.4 L230.862 1433.78 
  L235.059 1432.13 L239.256 1430.43 L243.453 1428.69 L247.65 1426.88 L251.847 1425.02 L256.044 1423.1 L260.241 1421.11 L264.438 1419.05 L268.635 1416.9 L272.833 1414.68 
  L277.03 1412.36 L281.227 1409.95 L285.424 1407.45 L289.621 1404.84 L293.818 1402.12 L298.015 1399.29 L302.212 1396.35 L306.409 1393.28 L310.606 1390.1 L314.803 1386.79 
  L319 1383.36 L323.197 1379.81 L327.394 1376.13 L331.591 1372.32 L335.789 1368.4 L339.986 1364.37 L344.183 1360.23 L348.38 1355.98 L352.577 1351.64 L356.774 1347.21 
  L360.971 1342.71 L365.168 1338.14 L369.365 1333.51 L373.562 1328.85 L377.759 1324.16 L381.956 1319.45 L386.153 1314.73 L390.35 1310.03 L394.548 1305.35 L398.745 1300.71 
  L402.942 1296.12 L407.139 1291.58 L411.336 1287.12 L415.533 1282.73 L419.73 1278.44 L423.927 1274.24 L428.124 1270.14 L432.321 1266.16 L436.518 1262.28 L440.715 1258.53 
  L444.912 1254.89 L449.109 1251.37 L453.306 1247.96 L457.504 1244.67 L461.701 1241.49 L465.898 1238.41 L470.095 1235.43 L474.292 1232.53 L478.489 1229.71 L482.686 1226.95 
  L486.883 1224.24 L491.08 1221.57 L495.277 1218.91 L499.474 1216.27 L503.671 1213.62 L507.868 1210.94 L512.065 1208.22 L516.263 1205.45 L520.46 1202.61 L524.657 1199.69 
  L528.854 1196.68 L533.051 1193.57 L537.248 1190.36 L541.445 1187.04 L545.642 1183.61 L549.839 1180.07 L554.036 1176.43 L558.233 1172.7 L562.43 1168.88 L566.627 1164.99 
  L566.627 1479.3 L562.43 1479.3 L558.233 1479.3 L554.036 1479.3 L549.839 1479.3 L545.642 1479.3 L541.445 1479.3 L537.248 1479.3 L533.051 1479.3 L528.854 1479.3 
  L524.657 1479.3 L520.46 1479.3 L516.263 1479.3 L512.065 1479.3 L507.868 1479.3 L503.671 1479.3 L499.474 1479.3 L495.277 1479.3 L491.08 1479.3 L486.883 1479.3 
  L482.686 1479.3 L478.489 1479.3 L474.292 1479.3 L470.095 1479.3 L465.898 1479.3 L461.701 1479.3 L457.504 1479.3 L453.306 1479.3 L449.109 1479.3 L444.912 1479.3 
  L440.715 1479.3 L436.518 1479.3 L432.321 1479.3 L428.124 1479.3 L423.927 1479.3 L419.73 1479.3 L415.533 1479.3 L411.336 1479.3 L407.139 1479.3 L402.942 1479.3 
  L398.745 1479.3 L394.548 1479.3 L390.35 1479.3 L386.153 1479.3 L381.956 1479.3 L377.759 1479.3 L373.562 1479.3 L369.365 1479.3 L365.168 1479.3 L360.971 1479.3 
  L356.774 1479.3 L352.577 1479.3 L348.38 1479.3 L344.183 1479.3 L339.986 1479.3 L335.789 1479.3 L331.591 1479.3 L327.394 1479.3 L323.197 1479.3 L319 1479.3 
  L314.803 1479.3 L310.606 1479.3 L306.409 1479.3 L302.212 1479.3 L298.015 1479.3 L293.818 1479.3 L289.621 1479.3 L285.424 1479.3 L281.227 1479.3 L277.03 1479.3 
  L272.833 1479.3 L268.635 1479.3 L264.438 1479.3 L260.241 1479.3 L256.044 1479.3 L251.847 1479.3 L247.65 1479.3 L243.453 1479.3 L239.256 1479.3 L235.059 1479.3 
  L230.862 1479.3 L226.665 1479.3 L222.468 1479.3 L218.271 1479.3 L214.074 1479.3 L209.876 1479.3 L205.679 1479.3 L201.482 1479.3 L197.285 1479.3 L193.088 1479.3 
  L188.891 1479.3 L184.694 1479.3 L180.497 1479.3 L176.3 1479.3 L172.103 1479.3 L167.906 1479.3 L163.709 1479.3 L159.512 1479.3 L155.315 1479.3 L151.118 1479.3 
   Z
  " fill="#ffa500" fill-rule="evenodd" fill-opacity="0.5"/>
<polyline clip-path="url(#clip022)" style="stroke:#ffa500; stroke-width:4; stroke-opacity:1; fill:none" points="
  151.118,1460.67 155.315,1459.42 159.512,1458.15 163.709,1456.85 167.906,1455.53 172.103,1454.19 176.3,1452.84 180.497,1451.48 184.694,1450.1 188.891,1448.71 
  193.088,1447.3 197.285,1445.88 201.482,1444.45 205.679,1443 209.876,1441.53 214.074,1440.03 218.271,1438.52 222.468,1436.97 226.665,1435.4 230.862,1433.78 
  235.059,1432.13 239.256,1430.43 243.453,1428.69 247.65,1426.88 251.847,1425.02 256.044,1423.1 260.241,1421.11 264.438,1419.05 268.635,1416.9 272.833,1414.68 
  277.03,1412.36 281.227,1409.95 285.424,1407.45 289.621,1404.84 293.818,1402.12 298.015,1399.29 302.212,1396.35 306.409,1393.28 310.606,1390.1 314.803,1386.79 
  319,1383.36 323.197,1379.81 327.394,1376.13 331.591,1372.32 335.789,1368.4 339.986,1364.37 344.183,1360.23 348.38,1355.98 352.577,1351.64 356.774,1347.21 
  360.971,1342.71 365.168,1338.14 369.365,1333.51 373.562,1328.85 377.759,1324.16 381.956,1319.45 386.153,1314.73 390.35,1310.03 394.548,1305.35 398.745,1300.71 
  402.942,1296.12 407.139,1291.58 411.336,1287.12 415.533,1282.73 419.73,1278.44 423.927,1274.24 428.124,1270.14 432.321,1266.16 436.518,1262.28 440.715,1258.53 
  444.912,1254.89 449.109,1251.37 453.306,1247.96 457.504,1244.67 461.701,1241.49 465.898,1238.41 470.095,1235.43 474.292,1232.53 478.489,1229.71 482.686,1226.95 
  486.883,1224.24 491.08,1221.57 495.277,1218.91 499.474,1216.27 503.671,1213.62 507.868,1210.94 512.065,1208.22 516.263,1205.45 520.46,1202.61 524.657,1199.69 
  528.854,1196.68 533.051,1193.57 537.248,1190.36 541.445,1187.04 545.642,1183.61 549.839,1180.07 554.036,1176.43 558.233,1172.7 562.43,1168.88 566.627,1164.99 
  
  "/>
<path clip-path="url(#clip022)" d="
M566.627 1164.99 L581.108 1151.31 L595.589 1137.93 L610.07 1125.98 L624.551 1116.63 L639.032 1110.82 L653.512 1109.11 L667.993 1111.48 L682.474 1117.36 L696.955 1125.73 
  L711.436 1135.32 L725.917 1144.93 L740.398 1153.68 L754.878 1161.11 L769.359 1167.19 L783.84 1172.24 L798.321 1176.69 L812.802 1180.92 L827.283 1185.16 L841.764 1189.33 
  L856.244 1193.09 L870.725 1195.79 L885.206 1196.57 L899.687 1194.43 L914.168 1188.45 L928.649 1177.91 L943.13 1162.55 L957.61 1142.68 L972.091 1119.16 L986.572 1093.26 
  L1001.05 1066.46 L1015.53 1040.15 L1030.01 1015.36 L1044.5 992.681 L1058.98 972.259 L1073.46 953.938 L1087.94 937.438 L1102.42 922.501 L1116.9 908.966 L1131.38 896.732 
  L1145.86 885.672 L1160.34 875.534 L1174.82 865.879 L1189.3 856.098 L1203.78 845.476 L1218.27 833.287 L1232.75 818.878 L1247.23 801.741 L1261.71 781.566 L1276.19 758.281 
  L1290.67 732.092 L1305.15 703.489 L1319.63 673.208 L1334.11 642.131 L1348.59 611.138 L1363.07 580.931 L1377.56 551.878 L1392.04 523.92 L1406.52 496.574 L1421 469.043 
  L1435.48 440.42 L1449.96 409.918 L1464.44 377.072 L1478.92 341.85 L1493.4 304.665 L1507.88 266.313 L1522.36 227.912 L1536.84 190.86 L1551.33 156.825 L1565.81 127.713 
  L1580.29 105.537 L1594.77 92.1591 L1609.25 88.9544 L1623.73 96.4771 L1638.21 114.266 L1652.69 140.863 L1667.17 174.051 L1681.65 211.23 L1696.13 249.826 L1710.61 287.615 
  L1725.1 322.941 L1739.58 354.806 L1754.06 382.907 L1768.54 407.628 L1783.02 430.003 L1797.5 451.608 L1811.98 474.345 L1826.46 500.102 L1840.94 530.355 L1855.42 565.802 
  L1869.9 606.154 L1884.39 650.174 L1898.87 695.974 L1913.35 741.48 L1927.83 784.944 L1942.31 825.331 L1956.79 862.489 L1971.27 897.078 L1985.75 930.292 L2000.23 963.492 
  L2000.23 1479.3 L1985.75 1479.3 L1971.27 1479.3 L1956.79 1479.3 L1942.31 1479.3 L1927.83 1479.3 L1913.35 1479.3 L1898.87 1479.3 L1884.39 1479.3 L1869.9 1479.3 
  L1855.42 1479.3 L1840.94 1479.3 L1826.46 1479.3 L1811.98 1479.3 L1797.5 1479.3 L1783.02 1479.3 L1768.54 1479.3 L1754.06 1479.3 L1739.58 1479.3 L1725.1 1479.3 
  L1710.61 1479.3 L1696.13 1479.3 L1681.65 1479.3 L1667.17 1479.3 L1652.69 1479.3 L1638.21 1479.3 L1623.73 1479.3 L1609.25 1479.3 L1594.77 1479.3 L1580.29 1479.3 
  L1565.81 1479.3 L1551.33 1479.3 L1536.84 1479.3 L1522.36 1479.3 L1507.88 1479.3 L1493.4 1479.3 L1478.92 1479.3 L1464.44 1479.3 L1449.96 1479.3 L1435.48 1479.3 
  L1421 1479.3 L1406.52 1479.3 L1392.04 1479.3 L1377.56 1479.3 L1363.07 1479.3 L1348.59 1479.3 L1334.11 1479.3 L1319.63 1479.3 L1305.15 1479.3 L1290.67 1479.3 
  L1276.19 1479.3 L1261.71 1479.3 L1247.23 1479.3 L1232.75 1479.3 L1218.27 1479.3 L1203.78 1479.3 L1189.3 1479.3 L1174.82 1479.3 L1160.34 1479.3 L1145.86 1479.3 
  L1131.38 1479.3 L1116.9 1479.3 L1102.42 1479.3 L1087.94 1479.3 L1073.46 1479.3 L1058.98 1479.3 L1044.5 1479.3 L1030.01 1479.3 L1015.53 1479.3 L1001.05 1479.3 
  L986.572 1479.3 L972.091 1479.3 L957.61 1479.3 L943.13 1479.3 L928.649 1479.3 L914.168 1479.3 L899.687 1479.3 L885.206 1479.3 L870.725 1479.3 L856.244 1479.3 
  L841.764 1479.3 L827.283 1479.3 L812.802 1479.3 L798.321 1479.3 L783.84 1479.3 L769.359 1479.3 L754.878 1479.3 L740.398 1479.3 L725.917 1479.3 L711.436 1479.3 
  L696.955 1479.3 L682.474 1479.3 L667.993 1479.3 L653.512 1479.3 L639.032 1479.3 L624.551 1479.3 L610.07 1479.3 L595.589 1479.3 L581.108 1479.3 L566.627 1479.3 
   Z
  " fill="#008000" fill-rule="evenodd" fill-opacity="0.5"/>
<polyline clip-path="url(#clip022)" style="stroke:#008000; stroke-width:4; stroke-opacity:1; fill:none" points="
  566.627,1164.99 581.108,1151.31 595.589,1137.93 610.07,1125.98 624.551,1116.63 639.032,1110.82 653.512,1109.11 667.993,1111.48 682.474,1117.36 696.955,1125.73 
  711.436,1135.32 725.917,1144.93 740.398,1153.68 754.878,1161.11 769.359,1167.19 783.84,1172.24 798.321,1176.69 812.802,1180.92 827.283,1185.16 841.764,1189.33 
  856.244,1193.09 870.725,1195.79 885.206,1196.57 899.687,1194.43 914.168,1188.45 928.649,1177.91 943.13,1162.55 957.61,1142.68 972.091,1119.16 986.572,1093.26 
  1001.05,1066.46 1015.53,1040.15 1030.01,1015.36 1044.5,992.681 1058.98,972.259 1073.46,953.938 1087.94,937.438 1102.42,922.501 1116.9,908.966 1131.38,896.732 
  1145.86,885.672 1160.34,875.534 1174.82,865.879 1189.3,856.098 1203.78,845.476 1218.27,833.287 1232.75,818.878 1247.23,801.741 1261.71,781.566 1276.19,758.281 
  1290.67,732.092 1305.15,703.489 1319.63,673.208 1334.11,642.131 1348.59,611.138 1363.07,580.931 1377.56,551.878 1392.04,523.92 1406.52,496.574 1421,469.043 
  1435.48,440.42 1449.96,409.918 1464.44,377.072 1478.92,341.85 1493.4,304.665 1507.88,266.313 1522.36,227.912 1536.84,190.86 1551.33,156.825 1565.81,127.713 
  1580.29,105.537 1594.77,92.1591 1609.25,88.9544 1623.73,96.4771 1638.21,114.266 1652.69,140.863 1667.17,174.051 1681.65,211.23 1696.13,249.826 1710.61,287.615 
  1725.1,322.941 1739.58,354.806 1754.06,382.907 1768.54,407.628 1783.02,430.003 1797.5,451.608 1811.98,474.345 1826.46,500.102 1840.94,530.355 1855.42,565.802 
  1869.9,606.154 1884.39,650.174 1898.87,695.974 1913.35,741.48 1927.83,784.944 1942.31,825.331 1956.79,862.489 1971.27,897.078 1985.75,930.292 2000.23,963.492 
  
  "/>
<path clip-path="url(#clip022)" d="
M2000.23 963.492 L2003.14 970.28 L2006.06 977.124 L2008.97 984.03 L2011.88 991.006 L2014.8 998.055 L2017.71 1005.18 L2020.62 1012.39 L2023.54 1019.68 L2026.45 1027.05 
  L2029.36 1034.5 L2032.28 1042.04 L2035.19 1049.65 L2038.1 1057.34 L2041.02 1065.1 L2043.93 1072.93 L2046.84 1080.82 L2049.75 1088.75 L2052.67 1096.73 L2055.58 1104.75 
  L2058.49 1112.79 L2061.41 1120.85 L2064.32 1128.92 L2067.23 1136.98 L2070.15 1145.02 L2073.06 1153.03 L2075.97 1161.01 L2078.89 1168.93 L2081.8 1176.78 L2084.71 1184.57 
  L2087.63 1192.26 L2090.54 1199.86 L2093.45 1207.34 L2096.36 1214.71 L2099.28 1221.95 L2102.19 1229.04 L2105.1 1235.99 L2108.02 1242.78 L2110.93 1249.4 L2113.84 1255.86 
  L2116.76 1262.13 L2119.67 1268.23 L2122.58 1274.13 L2125.5 1279.85 L2128.41 1285.38 L2131.32 1290.71 L2134.24 1295.85 L2137.15 1300.79 L2140.06 1305.55 L2142.97 1310.11 
  L2145.89 1314.49 L2148.8 1318.69 L2151.71 1322.7 L2154.63 1326.55 L2157.54 1330.23 L2160.45 1333.75 L2163.37 1337.12 L2166.28 1340.34 L2169.19 1343.43 L2172.11 1346.39 
  L2175.02 1349.24 L2177.93 1351.97 L2180.85 1354.6 L2183.76 1357.15 L2186.67 1359.61 L2189.58 1362.01 L2192.5 1364.34 L2195.41 1366.61 L2198.32 1368.85 L2201.24 1371.04 
  L2204.15 1373.21 L2207.06 1375.36 L2209.98 1377.49 L2212.89 1379.61 L2215.8 1381.74 L2218.72 1383.87 L2221.63 1386 L2224.54 1388.15 L2227.46 1390.32 L2230.37 1392.5 
  L2233.28 1394.7 L2236.19 1396.92 L2239.11 1399.17 L2242.02 1401.43 L2244.93 1403.71 L2247.85 1406.02 L2250.76 1408.34 L2253.67 1410.67 L2256.59 1413.02 L2259.5 1415.37 
  L2262.41 1417.73 L2265.33 1420.08 L2268.24 1422.43 L2271.15 1424.77 L2274.06 1427.1 L2276.98 1429.41 L2279.89 1431.69 L2282.8 1433.95 L2285.72 1436.17 L2288.63 1438.35 
  L2288.63 1479.3 L2285.72 1479.3 L2282.8 1479.3 L2279.89 1479.3 L2276.98 1479.3 L2274.06 1479.3 L2271.15 1479.3 L2268.24 1479.3 L2265.33 1479.3 L2262.41 1479.3 
  L2259.5 1479.3 L2256.59 1479.3 L2253.67 1479.3 L2250.76 1479.3 L2247.85 1479.3 L2244.93 1479.3 L2242.02 1479.3 L2239.11 1479.3 L2236.19 1479.3 L2233.28 1479.3 
  L2230.37 1479.3 L2227.46 1479.3 L2224.54 1479.3 L2221.63 1479.3 L2218.72 1479.3 L2215.8 1479.3 L2212.89 1479.3 L2209.98 1479.3 L2207.06 1479.3 L2204.15 1479.3 
  L2201.24 1479.3 L2198.32 1479.3 L2195.41 1479.3 L2192.5 1479.3 L2189.58 1479.3 L2186.67 1479.3 L2183.76 1479.3 L2180.85 1479.3 L2177.93 1479.3 L2175.02 1479.3 
  L2172.11 1479.3 L2169.19 1479.3 L2166.28 1479.3 L2163.37 1479.3 L2160.45 1479.3 L2157.54 1479.3 L2154.63 1479.3 L2151.71 1479.3 L2148.8 1479.3 L2145.89 1479.3 
  L2142.97 1479.3 L2140.06 1479.3 L2137.15 1479.3 L2134.24 1479.3 L2131.32 1479.3 L2128.41 1479.3 L2125.5 1479.3 L2122.58 1479.3 L2119.67 1479.3 L2116.76 1479.3 
  L2113.84 1479.3 L2110.93 1479.3 L2108.02 1479.3 L2105.1 1479.3 L2102.19 1479.3 L2099.28 1479.3 L2096.36 1479.3 L2093.45 1479.3 L2090.54 1479.3 L2087.63 1479.3 
  L2084.71 1479.3 L2081.8 1479.3 L2078.89 1479.3 L2075.97 1479.3 L2073.06 1479.3 L2070.15 1479.3 L2067.23 1479.3 L2064.32 1479.3 L2061.41 1479.3 L2058.49 1479.3 
  L2055.58 1479.3 L2052.67 1479.3 L2049.75 1479.3 L2046.84 1479.3 L2043.93 1479.3 L2041.02 1479.3 L2038.1 1479.3 L2035.19 1479.3 L2032.28 1479.3 L2029.36 1479.3 
  L2026.45 1479.3 L2023.54 1479.3 L2020.62 1479.3 L2017.71 1479.3 L2014.8 1479.3 L2011.88 1479.3 L2008.97 1479.3 L2006.06 1479.3 L2003.14 1479.3 L2000.23 1479.3 
   Z
  " fill="#ffa500" fill-rule="evenodd" fill-opacity="0.5"/>
<polyline clip-path="url(#clip022)" style="stroke:#ffa500; stroke-width:4; stroke-opacity:1; fill:none" points="
  2000.23,963.492 2003.14,970.28 2006.06,977.124 2008.97,984.03 2011.88,991.006 2014.8,998.055 2017.71,1005.18 2020.62,1012.39 2023.54,1019.68 2026.45,1027.05 
  2029.36,1034.5 2032.28,1042.04 2035.19,1049.65 2038.1,1057.34 2041.02,1065.1 2043.93,1072.93 2046.84,1080.82 2049.75,1088.75 2052.67,1096.73 2055.58,1104.75 
  2058.49,1112.79 2061.41,1120.85 2064.32,1128.92 2067.23,1136.98 2070.15,1145.02 2073.06,1153.03 2075.97,1161.01 2078.89,1168.93 2081.8,1176.78 2084.71,1184.57 
  2087.63,1192.26 2090.54,1199.86 2093.45,1207.34 2096.36,1214.71 2099.28,1221.95 2102.19,1229.04 2105.1,1235.99 2108.02,1242.78 2110.93,1249.4 2113.84,1255.86 
  2116.76,1262.13 2119.67,1268.23 2122.58,1274.13 2125.5,1279.85 2128.41,1285.38 2131.32,1290.71 2134.24,1295.85 2137.15,1300.79 2140.06,1305.55 2142.97,1310.11 
  2145.89,1314.49 2148.8,1318.69 2151.71,1322.7 2154.63,1326.55 2157.54,1330.23 2160.45,1333.75 2163.37,1337.12 2166.28,1340.34 2169.19,1343.43 2172.11,1346.39 
  2175.02,1349.24 2177.93,1351.97 2180.85,1354.6 2183.76,1357.15 2186.67,1359.61 2189.58,1362.01 2192.5,1364.34 2195.41,1366.61 2198.32,1368.85 2201.24,1371.04 
  2204.15,1373.21 2207.06,1375.36 2209.98,1377.49 2212.89,1379.61 2215.8,1381.74 2218.72,1383.87 2221.63,1386 2224.54,1388.15 2227.46,1390.32 2230.37,1392.5 
  2233.28,1394.7 2236.19,1396.92 2239.11,1399.17 2242.02,1401.43 2244.93,1403.71 2247.85,1406.02 2250.76,1408.34 2253.67,1410.67 2256.59,1413.02 2259.5,1415.37 
  2262.41,1417.73 2265.33,1420.08 2268.24,1422.43 2271.15,1424.77 2274.06,1427.1 2276.98,1429.41 2279.89,1431.69 2282.8,1433.95 2285.72,1436.17 2288.63,1438.35 
  
  "/>
<polyline clip-path="url(#clip022)" style="stroke:#0000ff; stroke-width:4; stroke-opacity:1; fill:none" points="
  1419.97,1479.3 1419.97,471.026 
  "/>
<polyline clip-path="url(#clip022)" style="stroke:#000000; stroke-width:4; stroke-opacity:1; fill:none" points="
  1512.88,1479.3 1512.88,253.015 
  "/>
<path clip-path="url(#clip020)" d="
M1509.86 493.644 L2280.76 493.644 L2280.76 130.764 L1509.86 130.764  Z
  " fill="#ffffff" fill-rule="evenodd" fill-opacity="1"/>
<polyline clip-path="url(#clip020)" style="stroke:#000000; stroke-width:4; stroke-opacity:1; fill:none" points="
  1509.86,493.644 2280.76,493.644 2280.76,130.764 1509.86,130.764 1509.86,493.644 
  "/>
<path clip-path="url(#clip020)" d="
M1533.86 215.436 L1677.86 215.436 L1677.86 167.052 L1533.86 167.052 L1533.86 215.436  Z
  " fill="#ffa500" fill-rule="evenodd" fill-opacity="0.5"/>
<polyline clip-path="url(#clip020)" style="stroke:#ffa500; stroke-width:4; stroke-opacity:1; fill:none" points="
  1533.86,167.052 1677.86,167.052 
  "/>
<path clip-path="url(#clip020)" d="M 0 0 M1706.25 195.584 Q1706.25 200.283 1708.18 202.969 Q1710.12 205.631 1713.5 205.631 Q1716.88 205.631 1718.82 202.969 Q1720.77 200.283 1720.77 195.584 Q1720.77 190.885 1718.82 188.223 Q1716.88 185.538 1713.5 185.538 Q1710.12 185.538 1708.18 188.223 Q1706.25 190.885 1706.25 195.584 M1720.77 204.635 Q1719.43 206.95 1717.37 208.084 Q1715.33 209.195 1712.46 209.195 Q1707.76 209.195 1704.8 205.445 Q1701.86 201.695 1701.86 195.584 Q1701.86 189.473 1704.8 185.723 Q1707.76 181.973 1712.46 181.973 Q1715.33 181.973 1717.37 183.108 Q1719.43 184.219 1720.77 186.533 L1720.77 182.598 L1725.03 182.598 L1725.03 218.385 L1720.77 218.385 L1720.77 204.635 Z" fill="#000000" fill-rule="evenodd" fill-opacity="1" /><path clip-path="url(#clip020)" d="M 0 0 M1740.1 177.043 Q1736.49 177.043 1734.66 180.608 Q1732.85 184.149 1732.85 191.279 Q1732.85 198.385 1734.66 201.95 Q1736.49 205.492 1740.1 205.492 Q1743.73 205.492 1745.54 201.95 Q1747.36 198.385 1747.36 191.279 Q1747.36 184.149 1745.54 180.608 Q1743.73 177.043 1740.1 177.043 M1740.1 173.339 Q1745.91 173.339 1748.96 177.946 Q1752.04 182.529 1752.04 191.279 Q1752.04 200.006 1748.96 204.612 Q1745.91 209.195 1740.1 209.195 Q1734.29 209.195 1731.21 204.612 Q1728.15 200.006 1728.15 191.279 Q1728.15 182.529 1731.21 177.946 Q1734.29 173.339 1740.1 173.339 Z" fill="#000000" fill-rule="evenodd" fill-opacity="1" /><path clip-path="url(#clip020)" d="M 0 0 M1757.16 173.964 L1775.51 173.964 L1775.51 177.899 L1761.44 177.899 L1761.44 186.371 Q1762.46 186.024 1763.48 185.862 Q1764.49 185.677 1765.51 185.677 Q1771.3 185.677 1774.68 188.848 Q1778.06 192.02 1778.06 197.436 Q1778.06 203.015 1774.59 206.117 Q1771.11 209.195 1764.8 209.195 Q1762.62 209.195 1760.35 208.825 Q1758.11 208.455 1755.7 207.714 L1755.7 203.015 Q1757.78 204.149 1760 204.705 Q1762.23 205.26 1764.7 205.26 Q1768.71 205.26 1771.05 203.154 Q1773.38 201.047 1773.38 197.436 Q1773.38 193.825 1771.05 191.719 Q1768.71 189.612 1764.7 189.612 Q1762.83 189.612 1760.95 190.029 Q1759.1 190.445 1757.16 191.325 L1757.16 173.964 Z" fill="#000000" fill-rule="evenodd" fill-opacity="1" /><path clip-path="url(#clip020)" d="
M1533.86 275.916 L1677.86 275.916 L1677.86 227.532 L1533.86 227.532 L1533.86 275.916  Z
  " fill="#008000" fill-rule="evenodd" fill-opacity="0.5"/>
<polyline clip-path="url(#clip020)" style="stroke:#008000; stroke-width:4; stroke-opacity:1; fill:none" points="
  1533.86,227.532 1677.86,227.532 
  "/>
<path clip-path="url(#clip020)" d="M 0 0 M1704.08 268.287 L1704.08 264.027 Q1705.84 264.861 1707.64 265.3 Q1709.45 265.74 1711.18 265.74 Q1715.81 265.74 1718.24 262.638 Q1720.7 259.513 1721.05 253.171 Q1719.7 255.162 1717.64 256.226 Q1715.58 257.291 1713.08 257.291 Q1707.9 257.291 1704.87 254.166 Q1701.86 251.018 1701.86 245.578 Q1701.86 240.254 1705 237.037 Q1708.15 233.819 1713.38 233.819 Q1719.38 233.819 1722.53 238.426 Q1725.7 243.009 1725.7 251.759 Q1725.7 259.93 1721.81 264.814 Q1717.94 269.675 1711.39 269.675 Q1709.63 269.675 1707.83 269.328 Q1706.02 268.981 1704.08 268.287 M1713.38 253.634 Q1716.53 253.634 1718.36 251.481 Q1720.21 249.328 1720.21 245.578 Q1720.21 241.851 1718.36 239.699 Q1716.53 237.523 1713.38 237.523 Q1710.24 237.523 1708.38 239.699 Q1706.56 241.851 1706.56 245.578 Q1706.56 249.328 1708.38 251.481 Q1710.24 253.634 1713.38 253.634 Z" fill="#000000" fill-rule="evenodd" fill-opacity="1" /><path clip-path="url(#clip020)" d="M 0 0 M1740.77 237.523 Q1737.16 237.523 1735.33 241.088 Q1733.52 244.629 1733.52 251.759 Q1733.52 258.865 1735.33 262.43 Q1737.16 265.972 1740.77 265.972 Q1744.4 265.972 1746.21 262.43 Q1748.04 258.865 1748.04 251.759 Q1748.04 244.629 1746.21 241.088 Q1744.4 237.523 1740.77 237.523 M1740.77 233.819 Q1746.58 233.819 1749.63 238.426 Q1752.71 243.009 1752.71 251.759 Q1752.71 260.486 1749.63 265.092 Q1746.58 269.675 1740.77 269.675 Q1734.96 269.675 1731.88 265.092 Q1728.82 260.486 1728.82 251.759 Q1728.82 243.009 1731.88 238.426 Q1734.96 233.819 1740.77 233.819 Z" fill="#000000" fill-rule="evenodd" fill-opacity="1" /><path clip-path="url(#clip020)" d="M 0 0 M1787.18 253.796 Q1785.17 253.796 1784.01 255.509 Q1782.87 257.222 1782.87 260.277 Q1782.87 263.287 1784.01 265.023 Q1785.17 266.736 1787.18 266.736 Q1789.15 266.736 1790.28 265.023 Q1791.44 263.287 1791.44 260.277 Q1791.44 257.245 1790.28 255.532 Q1789.15 253.796 1787.18 253.796 M1787.18 250.856 Q1790.84 250.856 1792.99 253.402 Q1795.14 255.949 1795.14 260.277 Q1795.14 264.606 1792.97 267.152 Q1790.81 269.675 1787.18 269.675 Q1783.48 269.675 1781.32 267.152 Q1779.17 264.606 1779.17 260.277 Q1779.17 255.925 1781.32 253.402 Q1783.5 250.856 1787.18 250.856 M1763.29 236.759 Q1761.3 236.759 1760.14 238.495 Q1759.01 240.208 1759.01 243.217 Q1759.01 246.273 1760.14 247.986 Q1761.28 249.699 1763.29 249.699 Q1765.3 249.699 1766.44 247.986 Q1767.6 246.273 1767.6 243.217 Q1767.6 240.231 1766.44 238.495 Q1765.28 236.759 1763.29 236.759 M1784.19 233.819 L1787.9 233.819 L1766.28 269.675 L1762.57 269.675 L1784.19 233.819 M1763.29 233.819 Q1766.95 233.819 1769.12 236.365 Q1771.3 238.889 1771.3 243.217 Q1771.3 247.592 1769.12 250.115 Q1766.97 252.638 1763.29 252.638 Q1759.61 252.638 1757.46 250.115 Q1755.33 247.569 1755.33 243.217 Q1755.33 238.912 1757.48 236.365 Q1759.63 233.819 1763.29 233.819 Z" fill="#000000" fill-rule="evenodd" fill-opacity="1" /><path clip-path="url(#clip020)" d="M 0 0 M1836.23 253.356 L1836.23 269.004 L1831.97 269.004 L1831.97 253.495 Q1831.97 249.814 1830.54 247.986 Q1829.1 246.157 1826.23 246.157 Q1822.78 246.157 1820.79 248.356 Q1818.8 250.555 1818.8 254.351 L1818.8 269.004 L1814.52 269.004 L1814.52 243.078 L1818.8 243.078 L1818.8 247.106 Q1820.33 244.768 1822.39 243.611 Q1824.47 242.453 1827.18 242.453 Q1831.65 242.453 1833.94 245.231 Q1836.23 247.986 1836.23 253.356 Z" fill="#000000" fill-rule="evenodd" fill-opacity="1" /><path clip-path="url(#clip020)" d="M 0 0 M1850.74 246.064 Q1847.32 246.064 1845.33 248.75 Q1843.34 251.412 1843.34 256.064 Q1843.34 260.717 1845.3 263.402 Q1847.3 266.064 1850.74 266.064 Q1854.15 266.064 1856.14 263.379 Q1858.13 260.694 1858.13 256.064 Q1858.13 251.458 1856.14 248.773 Q1854.15 246.064 1850.74 246.064 M1850.74 242.453 Q1856.3 242.453 1859.47 246.064 Q1862.64 249.675 1862.64 256.064 Q1862.64 262.43 1859.47 266.064 Q1856.3 269.675 1850.74 269.675 Q1845.17 269.675 1841.99 266.064 Q1838.85 262.43 1838.85 256.064 Q1838.85 249.675 1841.99 246.064 Q1845.17 242.453 1850.74 242.453 Z" fill="#000000" fill-rule="evenodd" fill-opacity="1" /><path clip-path="url(#clip020)" d="M 0 0 M1888.66 253.356 L1888.66 269.004 L1884.4 269.004 L1884.4 253.495 Q1884.4 249.814 1882.97 247.986 Q1881.53 246.157 1878.66 246.157 Q1875.21 246.157 1873.22 248.356 Q1871.23 250.555 1871.23 254.351 L1871.23 269.004 L1866.95 269.004 L1866.95 243.078 L1871.23 243.078 L1871.23 247.106 Q1872.76 244.768 1874.82 243.611 Q1876.9 242.453 1879.61 242.453 Q1884.08 242.453 1886.37 245.231 Q1888.66 247.986 1888.66 253.356 Z" fill="#000000" fill-rule="evenodd" fill-opacity="1" /><path clip-path="url(#clip020)" d="M 0 0 M1890.98 254.12 L1903.45 254.12 L1903.45 257.916 L1890.98 257.916 L1890.98 254.12 Z" fill="#000000" fill-rule="evenodd" fill-opacity="1" /><path clip-path="url(#clip020)" d="M 0 0 M1922.94 247.06 Q1922.23 246.643 1921.37 246.458 Q1920.54 246.25 1919.52 246.25 Q1915.91 246.25 1913.96 248.611 Q1912.04 250.949 1912.04 255.347 L1912.04 269.004 L1907.76 269.004 L1907.76 243.078 L1912.04 243.078 L1912.04 247.106 Q1913.38 244.745 1915.54 243.611 Q1917.69 242.453 1920.77 242.453 Q1921.21 242.453 1921.74 242.523 Q1922.27 242.569 1922.92 242.685 L1922.94 247.06 Z" fill="#000000" fill-rule="evenodd" fill-opacity="1" /><path clip-path="url(#clip020)" d="M 0 0 M1948.54 254.976 L1948.54 257.06 L1928.96 257.06 Q1929.24 261.458 1931.6 263.773 Q1933.98 266.064 1938.22 266.064 Q1940.67 266.064 1942.97 265.462 Q1945.28 264.861 1947.55 263.657 L1947.55 267.685 Q1945.26 268.657 1942.85 269.166 Q1940.44 269.675 1937.97 269.675 Q1931.76 269.675 1928.13 266.064 Q1924.52 262.453 1924.52 256.296 Q1924.52 249.93 1927.94 246.203 Q1931.39 242.453 1937.23 242.453 Q1942.46 242.453 1945.49 245.833 Q1948.54 249.189 1948.54 254.976 M1944.29 253.726 Q1944.24 250.231 1942.32 248.148 Q1940.42 246.064 1937.27 246.064 Q1933.71 246.064 1931.55 248.078 Q1929.42 250.092 1929.1 253.75 L1944.29 253.726 Z" fill="#000000" fill-rule="evenodd" fill-opacity="1" /><path clip-path="url(#clip020)" d="M 0 0 M1953.01 243.078 L1957.27 243.078 L1957.27 269.467 Q1957.27 274.421 1955.37 276.643 Q1953.5 278.865 1949.31 278.865 L1947.69 278.865 L1947.69 275.254 L1948.82 275.254 Q1951.25 275.254 1952.13 274.12 Q1953.01 273.009 1953.01 269.467 L1953.01 243.078 M1953.01 232.986 L1957.27 232.986 L1957.27 238.379 L1953.01 238.379 L1953.01 232.986 Z" fill="#000000" fill-rule="evenodd" fill-opacity="1" /><path clip-path="url(#clip020)" d="M 0 0 M1983.91 254.976 L1983.91 257.06 L1964.33 257.06 Q1964.61 261.458 1966.97 263.773 Q1969.35 266.064 1973.59 266.064 Q1976.04 266.064 1978.34 265.462 Q1980.65 264.861 1982.92 263.657 L1982.92 267.685 Q1980.63 268.657 1978.22 269.166 Q1975.81 269.675 1973.34 269.675 Q1967.13 269.675 1963.5 266.064 Q1959.89 262.453 1959.89 256.296 Q1959.89 249.93 1963.31 246.203 Q1966.76 242.453 1972.6 242.453 Q1977.83 242.453 1980.86 245.833 Q1983.91 249.189 1983.91 254.976 M1979.66 253.726 Q1979.61 250.231 1977.69 248.148 Q1975.79 246.064 1972.64 246.064 Q1969.08 246.064 1966.92 248.078 Q1964.79 250.092 1964.47 253.75 L1979.66 253.726 Z" fill="#000000" fill-rule="evenodd" fill-opacity="1" /><path clip-path="url(#clip020)" d="M 0 0 M2007.04 244.074 L2007.04 248.055 Q2005.23 247.06 2003.41 246.574 Q2001.6 246.064 1999.75 246.064 Q1995.6 246.064 1993.31 248.703 Q1991.02 251.319 1991.02 256.064 Q1991.02 260.81 1993.31 263.449 Q1995.6 266.064 1999.75 266.064 Q2001.6 266.064 2003.41 265.578 Q2005.23 265.069 2007.04 264.074 L2007.04 268.009 Q2005.26 268.842 2003.34 269.259 Q2001.44 269.675 1999.28 269.675 Q1993.43 269.675 1989.98 265.995 Q1986.53 262.314 1986.53 256.064 Q1986.53 249.722 1990 246.088 Q1993.5 242.453 1999.56 242.453 Q2001.53 242.453 2003.41 242.87 Q2005.28 243.263 2007.04 244.074 Z" fill="#000000" fill-rule="evenodd" fill-opacity="1" /><path clip-path="url(#clip020)" d="M 0 0 M2015.72 235.717 L2015.72 243.078 L2024.49 243.078 L2024.49 246.388 L2015.72 246.388 L2015.72 260.462 Q2015.72 263.634 2016.58 264.537 Q2017.46 265.439 2020.12 265.439 L2024.49 265.439 L2024.49 269.004 L2020.12 269.004 Q2015.19 269.004 2013.31 267.175 Q2011.44 265.324 2011.44 260.462 L2011.44 246.388 L2008.31 246.388 L2008.31 243.078 L2011.44 243.078 L2011.44 235.717 L2015.72 235.717 Z" fill="#000000" fill-rule="evenodd" fill-opacity="1" /><path clip-path="url(#clip020)" d="M 0 0 M2028.96 243.078 L2033.22 243.078 L2033.22 269.004 L2028.96 269.004 L2028.96 243.078 M2028.96 232.986 L2033.22 232.986 L2033.22 238.379 L2028.96 238.379 L2028.96 232.986 Z" fill="#000000" fill-rule="evenodd" fill-opacity="1" /><path clip-path="url(#clip020)" d="M 0 0 M2047.73 246.064 Q2044.31 246.064 2042.32 248.75 Q2040.33 251.412 2040.33 256.064 Q2040.33 260.717 2042.29 263.402 Q2044.28 266.064 2047.73 266.064 Q2051.14 266.064 2053.13 263.379 Q2055.12 260.694 2055.12 256.064 Q2055.12 251.458 2053.13 248.773 Q2051.14 246.064 2047.73 246.064 M2047.73 242.453 Q2053.29 242.453 2056.46 246.064 Q2059.63 249.675 2059.63 256.064 Q2059.63 262.43 2056.46 266.064 Q2053.29 269.675 2047.73 269.675 Q2042.16 269.675 2038.98 266.064 Q2035.84 262.43 2035.84 256.064 Q2035.84 249.675 2038.98 246.064 Q2042.16 242.453 2047.73 242.453 Z" fill="#000000" fill-rule="evenodd" fill-opacity="1" /><path clip-path="url(#clip020)" d="M 0 0 M2085.65 253.356 L2085.65 269.004 L2081.39 269.004 L2081.39 253.495 Q2081.39 249.814 2079.96 247.986 Q2078.52 246.157 2075.65 246.157 Q2072.2 246.157 2070.21 248.356 Q2068.22 250.555 2068.22 254.351 L2068.22 269.004 L2063.94 269.004 L2063.94 243.078 L2068.22 243.078 L2068.22 247.106 Q2069.75 244.768 2071.81 243.611 Q2073.89 242.453 2076.6 242.453 Q2081.07 242.453 2083.36 245.231 Q2085.65 247.986 2085.65 253.356 Z" fill="#000000" fill-rule="evenodd" fill-opacity="1" /><path clip-path="url(#clip020)" d="M 0 0 M2120.21 247.06 Q2119.49 246.643 2118.64 246.458 Q2117.8 246.25 2116.78 246.25 Q2113.17 246.25 2111.23 248.611 Q2109.31 250.949 2109.31 255.347 L2109.31 269.004 L2105.03 269.004 L2105.03 243.078 L2109.31 243.078 L2109.31 247.106 Q2110.65 244.745 2112.8 243.611 Q2114.96 242.453 2118.03 242.453 Q2118.47 242.453 2119.01 242.523 Q2119.54 242.569 2120.19 242.685 L2120.21 247.06 Z" fill="#000000" fill-rule="evenodd" fill-opacity="1" /><path clip-path="url(#clip020)" d="M 0 0 M2145.81 254.976 L2145.81 257.06 L2126.23 257.06 Q2126.51 261.458 2128.87 263.773 Q2131.25 266.064 2135.49 266.064 Q2137.94 266.064 2140.23 265.462 Q2142.55 264.861 2144.82 263.657 L2144.82 267.685 Q2142.52 268.657 2140.12 269.166 Q2137.71 269.675 2135.23 269.675 Q2129.03 269.675 2125.4 266.064 Q2121.78 262.453 2121.78 256.296 Q2121.78 249.93 2125.21 246.203 Q2128.66 242.453 2134.49 242.453 Q2139.72 242.453 2142.76 245.833 Q2145.81 249.189 2145.81 254.976 M2141.55 253.726 Q2141.51 250.231 2139.59 248.148 Q2137.69 246.064 2134.54 246.064 Q2130.97 246.064 2128.82 248.078 Q2126.69 250.092 2126.37 253.75 L2141.55 253.726 Z" fill="#000000" fill-rule="evenodd" fill-opacity="1" /><path clip-path="url(#clip020)" d="M 0 0 M2167.34 255.74 Q2167.34 251.111 2165.42 248.564 Q2163.52 246.018 2160.07 246.018 Q2156.65 246.018 2154.72 248.564 Q2152.83 251.111 2152.83 255.74 Q2152.83 260.347 2154.72 262.893 Q2156.65 265.439 2160.07 265.439 Q2163.52 265.439 2165.42 262.893 Q2167.34 260.347 2167.34 255.74 M2171.6 265.787 Q2171.6 272.407 2168.66 275.624 Q2165.72 278.865 2159.65 278.865 Q2157.41 278.865 2155.42 278.518 Q2153.43 278.194 2151.55 277.499 L2151.55 273.356 Q2153.43 274.374 2155.26 274.861 Q2157.09 275.347 2158.98 275.347 Q2163.17 275.347 2165.26 273.148 Q2167.34 270.972 2167.34 266.55 L2167.34 264.444 Q2166.02 266.736 2163.96 267.87 Q2161.9 269.004 2159.03 269.004 Q2154.26 269.004 2151.34 265.37 Q2148.43 261.736 2148.43 255.74 Q2148.43 249.722 2151.34 246.088 Q2154.26 242.453 2159.03 242.453 Q2161.9 242.453 2163.96 243.588 Q2166.02 244.722 2167.34 247.013 L2167.34 243.078 L2171.6 243.078 L2171.6 265.787 Z" fill="#000000" fill-rule="evenodd" fill-opacity="1" /><path clip-path="url(#clip020)" d="M 0 0 M2176.07 243.078 L2180.33 243.078 L2180.33 269.004 L2176.07 269.004 L2176.07 243.078 M2176.07 232.986 L2180.33 232.986 L2180.33 238.379 L2176.07 238.379 L2176.07 232.986 Z" fill="#000000" fill-rule="evenodd" fill-opacity="1" /><path clip-path="url(#clip020)" d="M 0 0 M2194.84 246.064 Q2191.41 246.064 2189.42 248.75 Q2187.43 251.412 2187.43 256.064 Q2187.43 260.717 2189.4 263.402 Q2191.39 266.064 2194.84 266.064 Q2198.24 266.064 2200.23 263.379 Q2202.22 260.694 2202.22 256.064 Q2202.22 251.458 2200.23 248.773 Q2198.24 246.064 2194.84 246.064 M2194.84 242.453 Q2200.39 242.453 2203.57 246.064 Q2206.74 249.675 2206.74 256.064 Q2206.74 262.43 2203.57 266.064 Q2200.39 269.675 2194.84 269.675 Q2189.26 269.675 2186.09 266.064 Q2182.94 262.43 2182.94 256.064 Q2182.94 249.675 2186.09 246.064 Q2189.26 242.453 2194.84 242.453 Z" fill="#000000" fill-rule="evenodd" fill-opacity="1" /><path clip-path="url(#clip020)" d="M 0 0 M2232.76 253.356 L2232.76 269.004 L2228.5 269.004 L2228.5 253.495 Q2228.5 249.814 2227.06 247.986 Q2225.63 246.157 2222.76 246.157 Q2219.31 246.157 2217.32 248.356 Q2215.33 250.555 2215.33 254.351 L2215.33 269.004 L2211.04 269.004 L2211.04 243.078 L2215.33 243.078 L2215.33 247.106 Q2216.85 244.768 2218.91 243.611 Q2221 242.453 2223.71 242.453 Q2228.17 242.453 2230.46 245.231 Q2232.76 247.986 2232.76 253.356 Z" fill="#000000" fill-rule="evenodd" fill-opacity="1" /><path clip-path="url(#clip020)" d="
M1533.86 336.396 L1677.86 336.396 L1677.86 288.012 L1533.86 288.012 L1533.86 336.396  Z
  " fill="#ffa500" fill-rule="evenodd" fill-opacity="0.5"/>
<polyline clip-path="url(#clip020)" style="stroke:#ffa500; stroke-width:4; stroke-opacity:1; fill:none" points="
  1533.86,288.012 1677.86,288.012 
  "/>
<path clip-path="url(#clip020)" d="M 0 0 M1706.25 316.544 Q1706.25 321.243 1708.18 323.929 Q1710.12 326.591 1713.5 326.591 Q1716.88 326.591 1718.82 323.929 Q1720.77 321.243 1720.77 316.544 Q1720.77 311.845 1718.82 309.183 Q1716.88 306.498 1713.5 306.498 Q1710.12 306.498 1708.18 309.183 Q1706.25 311.845 1706.25 316.544 M1720.77 325.595 Q1719.43 327.91 1717.37 329.044 Q1715.33 330.155 1712.46 330.155 Q1707.76 330.155 1704.8 326.405 Q1701.86 322.655 1701.86 316.544 Q1701.86 310.433 1704.8 306.683 Q1707.76 302.933 1712.46 302.933 Q1715.33 302.933 1717.37 304.068 Q1719.43 305.179 1720.77 307.493 L1720.77 303.558 L1725.03 303.558 L1725.03 339.345 L1720.77 339.345 L1720.77 325.595 Z" fill="#000000" fill-rule="evenodd" fill-opacity="1" /><path clip-path="url(#clip020)" d="M 0 0 M1730.24 328.767 L1730.24 324.507 Q1731.99 325.341 1733.8 325.78 Q1735.61 326.22 1737.34 326.22 Q1741.97 326.22 1744.4 323.118 Q1746.86 319.993 1747.2 313.651 Q1745.86 315.642 1743.8 316.706 Q1741.74 317.771 1739.24 317.771 Q1734.05 317.771 1731.02 314.646 Q1728.01 311.498 1728.01 306.058 Q1728.01 300.734 1731.16 297.517 Q1734.31 294.299 1739.54 294.299 Q1745.54 294.299 1748.68 298.906 Q1751.86 303.489 1751.86 312.239 Q1751.86 320.41 1747.97 325.294 Q1744.1 330.155 1737.55 330.155 Q1735.79 330.155 1733.99 329.808 Q1732.18 329.461 1730.24 328.767 M1739.54 314.114 Q1742.69 314.114 1744.52 311.961 Q1746.37 309.808 1746.37 306.058 Q1746.37 302.331 1744.52 300.179 Q1742.69 298.003 1739.54 298.003 Q1736.39 298.003 1734.54 300.179 Q1732.71 302.331 1732.71 306.058 Q1732.71 309.808 1734.54 311.961 Q1736.39 314.114 1739.54 314.114 Z" fill="#000000" fill-rule="evenodd" fill-opacity="1" /><path clip-path="url(#clip020)" d="M 0 0 M1756.97 294.924 L1775.33 294.924 L1775.33 298.859 L1761.25 298.859 L1761.25 307.331 Q1762.27 306.984 1763.29 306.822 Q1764.31 306.637 1765.33 306.637 Q1771.11 306.637 1774.49 309.808 Q1777.87 312.98 1777.87 318.396 Q1777.87 323.975 1774.4 327.077 Q1770.93 330.155 1764.61 330.155 Q1762.43 330.155 1760.17 329.785 Q1757.92 329.415 1755.51 328.674 L1755.51 323.975 Q1757.6 325.109 1759.82 325.665 Q1762.04 326.22 1764.52 326.22 Q1768.52 326.22 1770.86 324.114 Q1773.2 322.007 1773.2 318.396 Q1773.2 314.785 1770.86 312.679 Q1768.52 310.572 1764.52 310.572 Q1762.64 310.572 1760.77 310.989 Q1758.92 311.405 1756.97 312.285 L1756.97 294.924 Z" fill="#000000" fill-rule="evenodd" fill-opacity="1" /><polyline clip-path="url(#clip020)" style="stroke:#0000ff; stroke-width:4; stroke-opacity:1; fill:none" points="
  1533.86,372.684 1677.86,372.684 
  "/>
<path clip-path="url(#clip020)" d="M 0 0 M1722.2 369.015 Q1723.8 366.145 1726.02 364.779 Q1728.24 363.413 1731.25 363.413 Q1735.3 363.413 1737.5 366.261 Q1739.7 369.085 1739.7 374.316 L1739.7 389.964 L1735.42 389.964 L1735.42 374.455 Q1735.42 370.728 1734.1 368.923 Q1732.78 367.117 1730.07 367.117 Q1726.76 367.117 1724.84 369.316 Q1722.92 371.515 1722.92 375.311 L1722.92 389.964 L1718.64 389.964 L1718.64 374.455 Q1718.64 370.705 1717.32 368.923 Q1716 367.117 1713.24 367.117 Q1709.98 367.117 1708.06 369.339 Q1706.14 371.538 1706.14 375.311 L1706.14 389.964 L1701.86 389.964 L1701.86 364.038 L1706.14 364.038 L1706.14 368.066 Q1707.6 365.682 1709.63 364.548 Q1711.67 363.413 1714.47 363.413 Q1717.3 363.413 1719.26 364.848 Q1721.25 366.284 1722.2 369.015 Z" fill="#000000" fill-rule="evenodd" fill-opacity="1" /><path clip-path="url(#clip020)" d="M 0 0 M1766.35 375.936 L1766.35 378.02 L1746.76 378.02 Q1747.04 382.418 1749.4 384.733 Q1751.79 387.024 1756.02 387.024 Q1758.48 387.024 1760.77 386.422 Q1763.08 385.821 1765.35 384.617 L1765.35 388.645 Q1763.06 389.617 1760.65 390.126 Q1758.24 390.635 1755.77 390.635 Q1749.56 390.635 1745.93 387.024 Q1742.32 383.413 1742.32 377.256 Q1742.32 370.89 1745.74 367.163 Q1749.19 363.413 1755.03 363.413 Q1760.26 363.413 1763.29 366.793 Q1766.35 370.149 1766.35 375.936 M1762.09 374.686 Q1762.04 371.191 1760.12 369.108 Q1758.22 367.024 1755.07 367.024 Q1751.51 367.024 1749.36 369.038 Q1747.23 371.052 1746.9 374.71 L1762.09 374.686 Z" fill="#000000" fill-rule="evenodd" fill-opacity="1" /><path clip-path="url(#clip020)" d="M 0 0 M1782.6 376.932 Q1777.43 376.932 1775.44 378.112 Q1773.45 379.293 1773.45 382.14 Q1773.45 384.409 1774.93 385.751 Q1776.44 387.071 1779.01 387.071 Q1782.55 387.071 1784.68 384.571 Q1786.83 382.047 1786.83 377.881 L1786.83 376.932 L1782.6 376.932 M1791.09 375.173 L1791.09 389.964 L1786.83 389.964 L1786.83 386.029 Q1785.37 388.39 1783.2 389.524 Q1781.02 390.635 1777.87 390.635 Q1773.89 390.635 1771.53 388.413 Q1769.19 386.168 1769.19 382.418 Q1769.19 378.043 1772.11 375.821 Q1775.05 373.598 1780.86 373.598 L1786.83 373.598 L1786.83 373.182 Q1786.83 370.242 1784.89 368.645 Q1782.97 367.024 1779.47 367.024 Q1777.25 367.024 1775.14 367.557 Q1773.04 368.089 1771.09 369.154 L1771.09 365.219 Q1773.43 364.316 1775.63 363.876 Q1777.83 363.413 1779.91 363.413 Q1785.54 363.413 1788.31 366.33 Q1791.09 369.247 1791.09 375.173 Z" fill="#000000" fill-rule="evenodd" fill-opacity="1" /><path clip-path="url(#clip020)" d="M 0 0 M1817.11 374.316 L1817.11 389.964 L1812.85 389.964 L1812.85 374.455 Q1812.85 370.774 1811.42 368.946 Q1809.98 367.117 1807.11 367.117 Q1803.66 367.117 1801.67 369.316 Q1799.68 371.515 1799.68 375.311 L1799.68 389.964 L1795.4 389.964 L1795.4 364.038 L1799.68 364.038 L1799.68 368.066 Q1801.21 365.728 1803.27 364.571 Q1805.35 363.413 1808.06 363.413 Q1812.53 363.413 1814.82 366.191 Q1817.11 368.946 1817.11 374.316 Z" fill="#000000" fill-rule="evenodd" fill-opacity="1" /><polyline clip-path="url(#clip020)" style="stroke:#000000; stroke-width:4; stroke-opacity:1; fill:none" points="
  1533.86,433.164 1677.86,433.164 
  "/>
<path clip-path="url(#clip020)" d="M 0 0 M1722.2 429.495 Q1723.8 426.625 1726.02 425.259 Q1728.24 423.893 1731.25 423.893 Q1735.3 423.893 1737.5 426.741 Q1739.7 429.565 1739.7 434.796 L1739.7 450.444 L1735.42 450.444 L1735.42 434.935 Q1735.42 431.208 1734.1 429.403 Q1732.78 427.597 1730.07 427.597 Q1726.76 427.597 1724.84 429.796 Q1722.92 431.995 1722.92 435.791 L1722.92 450.444 L1718.64 450.444 L1718.64 434.935 Q1718.64 431.185 1717.32 429.403 Q1716 427.597 1713.24 427.597 Q1709.98 427.597 1708.06 429.819 Q1706.14 432.018 1706.14 435.791 L1706.14 450.444 L1701.86 450.444 L1701.86 424.518 L1706.14 424.518 L1706.14 428.546 Q1707.6 426.162 1709.63 425.028 Q1711.67 423.893 1714.47 423.893 Q1717.3 423.893 1719.26 425.328 Q1721.25 426.764 1722.2 429.495 Z" fill="#000000" fill-rule="evenodd" fill-opacity="1" /><path clip-path="url(#clip020)" d="M 0 0 M1766.35 436.416 L1766.35 438.5 L1746.76 438.5 Q1747.04 442.898 1749.4 445.213 Q1751.79 447.504 1756.02 447.504 Q1758.48 447.504 1760.77 446.902 Q1763.08 446.301 1765.35 445.097 L1765.35 449.125 Q1763.06 450.097 1760.65 450.606 Q1758.24 451.115 1755.77 451.115 Q1749.56 451.115 1745.93 447.504 Q1742.32 443.893 1742.32 437.736 Q1742.32 431.37 1745.74 427.643 Q1749.19 423.893 1755.03 423.893 Q1760.26 423.893 1763.29 427.273 Q1766.35 430.629 1766.35 436.416 M1762.09 435.166 Q1762.04 431.671 1760.12 429.588 Q1758.22 427.504 1755.07 427.504 Q1751.51 427.504 1749.36 429.518 Q1747.23 431.532 1746.9 435.19 L1762.09 435.166 Z" fill="#000000" fill-rule="evenodd" fill-opacity="1" /><path clip-path="url(#clip020)" d="M 0 0 M1787.87 428.453 L1787.87 414.426 L1792.13 414.426 L1792.13 450.444 L1787.87 450.444 L1787.87 446.555 Q1786.53 448.87 1784.47 450.004 Q1782.43 451.115 1779.56 451.115 Q1774.86 451.115 1771.9 447.365 Q1768.96 443.615 1768.96 437.504 Q1768.96 431.393 1771.9 427.643 Q1774.86 423.893 1779.56 423.893 Q1782.43 423.893 1784.47 425.028 Q1786.53 426.139 1787.87 428.453 M1773.36 437.504 Q1773.36 442.203 1775.28 444.889 Q1777.23 447.551 1780.61 447.551 Q1783.99 447.551 1785.93 444.889 Q1787.87 442.203 1787.87 437.504 Q1787.87 432.805 1785.93 430.143 Q1783.99 427.458 1780.61 427.458 Q1777.23 427.458 1775.28 430.143 Q1773.36 432.805 1773.36 437.504 Z" fill="#000000" fill-rule="evenodd" fill-opacity="1" /><path clip-path="url(#clip020)" d="M 0 0 M1796.6 424.518 L1800.86 424.518 L1800.86 450.444 L1796.6 450.444 L1796.6 424.518 M1796.6 414.426 L1800.86 414.426 L1800.86 419.819 L1796.6 419.819 L1796.6 414.426 Z" fill="#000000" fill-rule="evenodd" fill-opacity="1" /><path clip-path="url(#clip020)" d="M 0 0 M1817.11 437.412 Q1811.95 437.412 1809.96 438.592 Q1807.97 439.773 1807.97 442.62 Q1807.97 444.889 1809.45 446.231 Q1810.95 447.551 1813.52 447.551 Q1817.06 447.551 1819.19 445.051 Q1821.35 442.527 1821.35 438.361 L1821.35 437.412 L1817.11 437.412 M1825.61 435.653 L1825.61 450.444 L1821.35 450.444 L1821.35 446.509 Q1819.89 448.87 1817.71 450.004 Q1815.54 451.115 1812.39 451.115 Q1808.41 451.115 1806.05 448.893 Q1803.71 446.648 1803.71 442.898 Q1803.71 438.523 1806.62 436.301 Q1809.56 434.078 1815.37 434.078 L1821.35 434.078 L1821.35 433.662 Q1821.35 430.722 1819.4 429.125 Q1817.48 427.504 1813.99 427.504 Q1811.76 427.504 1809.66 428.037 Q1807.55 428.569 1805.61 429.634 L1805.61 425.699 Q1807.94 424.796 1810.14 424.356 Q1812.34 423.893 1814.42 423.893 Q1820.05 423.893 1822.83 426.81 Q1825.61 429.727 1825.61 435.653 Z" fill="#000000" fill-rule="evenodd" fill-opacity="1" /><path clip-path="url(#clip020)" d="M 0 0 M1851.62 434.796 L1851.62 450.444 L1847.36 450.444 L1847.36 434.935 Q1847.36 431.254 1845.93 429.426 Q1844.49 427.597 1841.62 427.597 Q1838.17 427.597 1836.18 429.796 Q1834.19 431.995 1834.19 435.791 L1834.19 450.444 L1829.91 450.444 L1829.91 424.518 L1834.19 424.518 L1834.19 428.546 Q1835.72 426.208 1837.78 425.051 Q1839.86 423.893 1842.57 423.893 Q1847.04 423.893 1849.33 426.671 Q1851.62 429.426 1851.62 434.796 Z" fill="#000000" fill-rule="evenodd" fill-opacity="1" /></svg>
