<?xml version="1.0" encoding="utf-8"?>
<svg xmlns="http://www.w3.org/2000/svg" xmlns:xlink="http://www.w3.org/1999/xlink" width="600" height="400" viewBox="0 0 2400 1600">
<defs>
  <clipPath id="clip200">
    <rect x="0" y="0" width="2400" height="1600"/>
  </clipPath>
</defs>
<path clip-path="url(#clip200)" d="
M0 1600 L2400 1600 L2400 0 L0 0  Z
  " fill="#ffffff" fill-rule="evenodd" fill-opacity="1"/>
<defs>
  <clipPath id="clip201">
    <rect x="480" y="0" width="1681" height="1600"/>
  </clipPath>
</defs>
<path clip-path="url(#clip200)" d="
M86.9921 1521.01 L2352.76 1521.01 L2352.76 47.2441 L86.9921 47.2441  Z
  " fill="#ffffff" fill-rule="evenodd" fill-opacity="1"/>
<defs>
  <clipPath id="clip202">
    <rect x="86" y="47" width="2267" height="1475"/>
  </clipPath>
</defs>
<polyline clip-path="url(#clip202)" style="stroke:#000000; stroke-width:2; stroke-opacity:0.1; fill:none" points="
  483.031,1521.01 483.031,47.2441 
  "/>
<polyline clip-path="url(#clip202)" style="stroke:#000000; stroke-width:2; stroke-opacity:0.1; fill:none" points="
  935.494,1521.01 935.494,47.2441 
  "/>
<polyline clip-path="url(#clip202)" style="stroke:#000000; stroke-width:2; stroke-opacity:0.1; fill:none" points="
  1387.96,1521.01 1387.96,47.2441 
  "/>
<polyline clip-path="url(#clip202)" style="stroke:#000000; stroke-width:2; stroke-opacity:0.1; fill:none" points="
  1840.42,1521.01 1840.42,47.2441 
  "/>
<polyline clip-path="url(#clip202)" style="stroke:#000000; stroke-width:2; stroke-opacity:0.1; fill:none" points="
  2292.88,1521.01 2292.88,47.2441 
  "/>
<polyline clip-path="url(#clip202)" style="stroke:#000000; stroke-width:2; stroke-opacity:0.1; fill:none" points="
  86.9921,1479.3 2352.76,1479.3 
  "/>
<polyline clip-path="url(#clip202)" style="stroke:#000000; stroke-width:2; stroke-opacity:0.1; fill:none" points="
  86.9921,1179.3 2352.76,1179.3 
  "/>
<polyline clip-path="url(#clip202)" style="stroke:#000000; stroke-width:2; stroke-opacity:0.1; fill:none" points="
  86.9921,879.303 2352.76,879.303 
  "/>
<polyline clip-path="url(#clip202)" style="stroke:#000000; stroke-width:2; stroke-opacity:0.1; fill:none" points="
  86.9921,579.306 2352.76,579.306 
  "/>
<polyline clip-path="url(#clip202)" style="stroke:#000000; stroke-width:2; stroke-opacity:0.1; fill:none" points="
  86.9921,279.309 2352.76,279.309 
  "/>
<polyline clip-path="url(#clip200)" style="stroke:#000000; stroke-width:4; stroke-opacity:1; fill:none" points="
  86.9921,1521.01 2352.76,1521.01 
  "/>
<polyline clip-path="url(#clip200)" style="stroke:#000000; stroke-width:4; stroke-opacity:1; fill:none" points="
  86.9921,1521.01 86.9921,47.2441 
  "/>
<polyline clip-path="url(#clip200)" style="stroke:#000000; stroke-width:4; stroke-opacity:1; fill:none" points="
  483.031,1521.01 483.031,1503.32 
  "/>
<polyline clip-path="url(#clip200)" style="stroke:#000000; stroke-width:4; stroke-opacity:1; fill:none" points="
  935.494,1521.01 935.494,1503.32 
  "/>
<polyline clip-path="url(#clip200)" style="stroke:#000000; stroke-width:4; stroke-opacity:1; fill:none" points="
  1387.96,1521.01 1387.96,1503.32 
  "/>
<polyline clip-path="url(#clip200)" style="stroke:#000000; stroke-width:4; stroke-opacity:1; fill:none" points="
  1840.42,1521.01 1840.42,1503.32 
  "/>
<polyline clip-path="url(#clip200)" style="stroke:#000000; stroke-width:4; stroke-opacity:1; fill:none" points="
  2292.88,1521.01 2292.88,1503.32 
  "/>
<polyline clip-path="url(#clip200)" style="stroke:#000000; stroke-width:4; stroke-opacity:1; fill:none" points="
  86.9921,1479.3 114.181,1479.3 
  "/>
<polyline clip-path="url(#clip200)" style="stroke:#000000; stroke-width:4; stroke-opacity:1; fill:none" points="
  86.9921,1179.3 114.181,1179.3 
  "/>
<polyline clip-path="url(#clip200)" style="stroke:#000000; stroke-width:4; stroke-opacity:1; fill:none" points="
  86.9921,879.303 114.181,879.303 
  "/>
<polyline clip-path="url(#clip200)" style="stroke:#000000; stroke-width:4; stroke-opacity:1; fill:none" points="
  86.9921,579.306 114.181,579.306 
  "/>
<polyline clip-path="url(#clip200)" style="stroke:#000000; stroke-width:4; stroke-opacity:1; fill:none" points="
  86.9921,279.309 114.181,279.309 
  "/>
<path clip-path="url(#clip200)" d="M 0 0 M454.848 1570.54 L462.487 1570.54 L462.487 1544.18 L454.177 1545.85 L454.177 1541.59 L462.44 1539.92 L467.116 1539.92 L467.116 1570.54 L474.755 1570.54 L474.755 1574.48 L454.848 1574.48 L454.848 1570.54 Z" fill="#000000" fill-rule="evenodd" fill-opacity="1" /><path clip-path="url(#clip200)" d="M 0 0 M479.825 1568.6 L484.709 1568.6 L484.709 1574.48 L479.825 1574.48 L479.825 1568.6 Z" fill="#000000" fill-rule="evenodd" fill-opacity="1" /><path clip-path="url(#clip200)" d="M 0 0 M500.357 1555.34 Q497.209 1555.34 495.357 1557.49 Q493.528 1559.64 493.528 1563.39 Q493.528 1567.12 495.357 1569.29 Q497.209 1571.45 500.357 1571.45 Q503.505 1571.45 505.334 1569.29 Q507.185 1567.12 507.185 1563.39 Q507.185 1559.64 505.334 1557.49 Q503.505 1555.34 500.357 1555.34 M509.639 1540.68 L509.639 1544.94 Q507.88 1544.11 506.074 1543.67 Q504.292 1543.23 502.533 1543.23 Q497.903 1543.23 495.449 1546.36 Q493.019 1549.48 492.672 1555.8 Q494.037 1553.79 496.098 1552.72 Q498.158 1551.63 500.635 1551.63 Q505.843 1551.63 508.852 1554.8 Q511.885 1557.95 511.885 1563.39 Q511.885 1568.72 508.736 1571.93 Q505.588 1575.15 500.357 1575.15 Q494.361 1575.15 491.19 1570.57 Q488.019 1565.96 488.019 1557.23 Q488.019 1549.04 491.908 1544.18 Q495.797 1539.29 502.348 1539.29 Q504.107 1539.29 505.889 1539.64 Q507.695 1539.99 509.639 1540.68 Z" fill="#000000" fill-rule="evenodd" fill-opacity="1" /><path clip-path="url(#clip200)" d="M 0 0 M907.438 1570.54 L915.077 1570.54 L915.077 1544.18 L906.767 1545.85 L906.767 1541.59 L915.031 1539.92 L919.707 1539.92 L919.707 1570.54 L927.346 1570.54 L927.346 1574.48 L907.438 1574.48 L907.438 1570.54 Z" fill="#000000" fill-rule="evenodd" fill-opacity="1" /><path clip-path="url(#clip200)" d="M 0 0 M932.415 1568.6 L937.299 1568.6 L937.299 1574.48 L932.415 1574.48 L932.415 1568.6 Z" fill="#000000" fill-rule="evenodd" fill-opacity="1" /><path clip-path="url(#clip200)" d="M 0 0 M952.369 1558.07 Q949.035 1558.07 947.114 1559.85 Q945.216 1561.63 945.216 1564.76 Q945.216 1567.88 947.114 1569.67 Q949.035 1571.45 952.369 1571.45 Q955.702 1571.45 957.623 1569.67 Q959.544 1567.86 959.544 1564.76 Q959.544 1561.63 957.623 1559.85 Q955.725 1558.07 952.369 1558.07 M947.693 1556.08 Q944.683 1555.34 942.994 1553.28 Q941.327 1551.22 941.327 1548.25 Q941.327 1544.11 944.267 1541.7 Q947.23 1539.29 952.369 1539.29 Q957.531 1539.29 960.47 1541.7 Q963.41 1544.11 963.41 1548.25 Q963.41 1551.22 961.72 1553.28 Q960.054 1555.34 957.068 1556.08 Q960.447 1556.86 962.322 1559.16 Q964.22 1561.45 964.22 1564.76 Q964.22 1569.78 961.142 1572.47 Q958.086 1575.15 952.369 1575.15 Q946.651 1575.15 943.572 1572.47 Q940.517 1569.78 940.517 1564.76 Q940.517 1561.45 942.415 1559.16 Q944.313 1556.86 947.693 1556.08 M945.98 1548.69 Q945.98 1551.38 947.646 1552.88 Q949.336 1554.39 952.369 1554.39 Q955.378 1554.39 957.068 1552.88 Q958.781 1551.38 958.781 1548.69 Q958.781 1546.01 957.068 1544.5 Q955.378 1543 952.369 1543 Q949.336 1543 947.646 1544.5 Q945.98 1546.01 945.98 1548.69 Z" fill="#000000" fill-rule="evenodd" fill-opacity="1" /><path clip-path="url(#clip200)" d="M 0 0 M1364.13 1570.54 L1380.45 1570.54 L1380.45 1574.48 L1358.5 1574.48 L1358.5 1570.54 Q1361.16 1567.79 1365.75 1563.16 Q1370.35 1558.51 1371.53 1557.17 Q1373.78 1554.64 1374.66 1552.91 Q1375.56 1551.15 1375.56 1549.46 Q1375.56 1546.7 1373.62 1544.97 Q1371.7 1543.23 1368.59 1543.23 Q1366.39 1543.23 1363.94 1543.99 Q1361.51 1544.76 1358.73 1546.31 L1358.73 1541.59 Q1361.56 1540.45 1364.01 1539.87 Q1366.46 1539.29 1368.5 1539.29 Q1373.87 1539.29 1377.07 1541.98 Q1380.26 1544.67 1380.26 1549.16 Q1380.26 1551.29 1379.45 1553.21 Q1378.66 1555.1 1376.56 1557.7 Q1375.98 1558.37 1372.88 1561.59 Q1369.77 1564.78 1364.13 1570.54 Z" fill="#000000" fill-rule="evenodd" fill-opacity="1" /><path clip-path="url(#clip200)" d="M 0 0 M1385.51 1568.6 L1390.4 1568.6 L1390.4 1574.48 L1385.51 1574.48 L1385.51 1568.6 Z" fill="#000000" fill-rule="evenodd" fill-opacity="1" /><path clip-path="url(#clip200)" d="M 0 0 M1405.47 1543 Q1401.86 1543 1400.03 1546.56 Q1398.22 1550.11 1398.22 1557.23 Q1398.22 1564.34 1400.03 1567.91 Q1401.86 1571.45 1405.47 1571.45 Q1409.1 1571.45 1410.91 1567.91 Q1412.74 1564.34 1412.74 1557.23 Q1412.74 1550.11 1410.91 1546.56 Q1409.1 1543 1405.47 1543 M1405.47 1539.29 Q1411.28 1539.29 1414.33 1543.9 Q1417.41 1548.48 1417.41 1557.23 Q1417.41 1565.96 1414.33 1570.57 Q1411.28 1575.15 1405.47 1575.15 Q1399.66 1575.15 1396.58 1570.57 Q1393.52 1565.96 1393.52 1557.23 Q1393.52 1548.48 1396.58 1543.9 Q1399.66 1539.29 1405.47 1539.29 Z" fill="#000000" fill-rule="evenodd" fill-opacity="1" /><path clip-path="url(#clip200)" d="M 0 0 M1817.39 1570.54 L1833.71 1570.54 L1833.71 1574.48 L1811.76 1574.48 L1811.76 1570.54 Q1814.42 1567.79 1819.01 1563.16 Q1823.61 1558.51 1824.8 1557.17 Q1827.04 1554.64 1827.92 1552.91 Q1828.82 1551.15 1828.82 1549.46 Q1828.82 1546.7 1826.88 1544.97 Q1824.96 1543.23 1821.86 1543.23 Q1819.66 1543.23 1817.2 1543.99 Q1814.77 1544.76 1811.99 1546.31 L1811.99 1541.59 Q1814.82 1540.45 1817.27 1539.87 Q1819.73 1539.29 1821.76 1539.29 Q1827.13 1539.29 1830.33 1541.98 Q1833.52 1544.67 1833.52 1549.16 Q1833.52 1551.29 1832.71 1553.21 Q1831.92 1555.1 1829.82 1557.7 Q1829.24 1558.37 1826.14 1561.59 Q1823.04 1564.78 1817.39 1570.54 Z" fill="#000000" fill-rule="evenodd" fill-opacity="1" /><path clip-path="url(#clip200)" d="M 0 0 M1838.78 1568.6 L1843.66 1568.6 L1843.66 1574.48 L1838.78 1574.48 L1838.78 1568.6 Z" fill="#000000" fill-rule="evenodd" fill-opacity="1" /><path clip-path="url(#clip200)" d="M 0 0 M1852.76 1570.54 L1869.08 1570.54 L1869.08 1574.48 L1847.13 1574.48 L1847.13 1570.54 Q1849.79 1567.79 1854.38 1563.16 Q1858.98 1558.51 1860.17 1557.17 Q1862.41 1554.64 1863.29 1552.91 Q1864.19 1551.15 1864.19 1549.46 Q1864.19 1546.7 1862.25 1544.97 Q1860.33 1543.23 1857.23 1543.23 Q1855.03 1543.23 1852.57 1543.99 Q1850.14 1544.76 1847.36 1546.31 L1847.36 1541.59 Q1850.19 1540.45 1852.64 1539.87 Q1855.1 1539.29 1857.13 1539.29 Q1862.5 1539.29 1865.7 1541.98 Q1868.89 1544.67 1868.89 1549.16 Q1868.89 1551.29 1868.08 1553.21 Q1867.29 1555.1 1865.19 1557.7 Q1864.61 1558.37 1861.51 1561.59 Q1858.41 1564.78 1852.76 1570.54 Z" fill="#000000" fill-rule="evenodd" fill-opacity="1" /><path clip-path="url(#clip200)" d="M 0 0 M2268.81 1570.54 L2285.13 1570.54 L2285.13 1574.48 L2263.18 1574.48 L2263.18 1570.54 Q2265.85 1567.79 2270.43 1563.16 Q2275.04 1558.51 2276.22 1557.17 Q2278.46 1554.64 2279.34 1552.91 Q2280.24 1551.15 2280.24 1549.46 Q2280.24 1546.7 2278.3 1544.97 Q2276.38 1543.23 2273.28 1543.23 Q2271.08 1543.23 2268.62 1543.99 Q2266.19 1544.76 2263.42 1546.31 L2263.42 1541.59 Q2266.24 1540.45 2268.69 1539.87 Q2271.15 1539.29 2273.18 1539.29 Q2278.55 1539.29 2281.75 1541.98 Q2284.94 1544.67 2284.94 1549.16 Q2284.94 1551.29 2284.13 1553.21 Q2283.35 1555.1 2281.24 1557.7 Q2280.66 1558.37 2277.56 1561.59 Q2274.46 1564.78 2268.81 1570.54 Z" fill="#000000" fill-rule="evenodd" fill-opacity="1" /><path clip-path="url(#clip200)" d="M 0 0 M2290.2 1568.6 L2295.08 1568.6 L2295.08 1574.48 L2290.2 1574.48 L2290.2 1568.6 Z" fill="#000000" fill-rule="evenodd" fill-opacity="1" /><path clip-path="url(#clip200)" d="M 0 0 M2313 1543.99 L2301.19 1562.44 L2313 1562.44 L2313 1543.99 M2311.77 1539.92 L2317.65 1539.92 L2317.65 1562.44 L2322.58 1562.44 L2322.58 1566.33 L2317.65 1566.33 L2317.65 1574.48 L2313 1574.48 L2313 1566.33 L2297.4 1566.33 L2297.4 1561.82 L2311.77 1539.92 Z" fill="#000000" fill-rule="evenodd" fill-opacity="1" /><path clip-path="url(#clip200)" d="M 0 0 M14.0804 1465.1 Q10.4693 1465.1 8.64057 1468.66 Q6.83502 1472.2 6.83502 1479.33 Q6.83502 1486.44 8.64057 1490 Q10.4693 1493.55 14.0804 1493.55 Q17.7146 1493.55 19.5201 1490 Q21.3488 1486.44 21.3488 1479.33 Q21.3488 1472.2 19.5201 1468.66 Q17.7146 1465.1 14.0804 1465.1 M14.0804 1461.39 Q19.8905 1461.39 22.946 1466 Q26.0247 1470.58 26.0247 1479.33 Q26.0247 1488.06 22.946 1492.67 Q19.8905 1497.25 14.0804 1497.25 Q8.2702 1497.25 5.19151 1492.67 Q2.13597 1488.06 2.13597 1479.33 Q2.13597 1470.58 5.19151 1466 Q8.2702 1461.39 14.0804 1461.39 Z" fill="#000000" fill-rule="evenodd" fill-opacity="1" /><path clip-path="url(#clip200)" d="M 0 0 M31.0941 1490.7 L35.9784 1490.7 L35.9784 1496.58 L31.0941 1496.58 L31.0941 1490.7 Z" fill="#000000" fill-rule="evenodd" fill-opacity="1" /><path clip-path="url(#clip200)" d="M 0 0 M51.0477 1465.1 Q47.4367 1465.1 45.608 1468.66 Q43.8024 1472.2 43.8024 1479.33 Q43.8024 1486.44 45.608 1490 Q47.4367 1493.55 51.0477 1493.55 Q54.682 1493.55 56.4875 1490 Q58.3162 1486.44 58.3162 1479.33 Q58.3162 1472.2 56.4875 1468.66 Q54.682 1465.1 51.0477 1465.1 M51.0477 1461.39 Q56.8579 1461.39 59.9134 1466 Q62.9921 1470.58 62.9921 1479.33 Q62.9921 1488.06 59.9134 1492.67 Q56.8579 1497.25 51.0477 1497.25 Q45.2376 1497.25 42.1589 1492.67 Q39.1034 1488.06 39.1034 1479.33 Q39.1034 1470.58 42.1589 1466 Q45.2376 1461.39 51.0477 1461.39 Z" fill="#000000" fill-rule="evenodd" fill-opacity="1" /><path clip-path="url(#clip200)" d="M 0 0 M15.0757 1165.1 Q11.4646 1165.1 9.63593 1168.66 Q7.83038 1172.21 7.83038 1179.34 Q7.83038 1186.44 9.63593 1190.01 Q11.4646 1193.55 15.0757 1193.55 Q18.71 1193.55 20.5155 1190.01 Q22.3442 1186.44 22.3442 1179.34 Q22.3442 1172.21 20.5155 1168.66 Q18.71 1165.1 15.0757 1165.1 M15.0757 1161.4 Q20.8859 1161.4 23.9414 1166 Q27.0201 1170.59 27.0201 1179.34 Q27.0201 1188.06 23.9414 1192.67 Q20.8859 1197.25 15.0757 1197.25 Q9.26556 1197.25 6.18687 1192.67 Q3.13134 1188.06 3.13134 1179.34 Q3.13134 1170.59 6.18687 1166 Q9.26556 1161.4 15.0757 1161.4 Z" fill="#000000" fill-rule="evenodd" fill-opacity="1" /><path clip-path="url(#clip200)" d="M 0 0 M32.0895 1190.7 L36.9737 1190.7 L36.9737 1196.58 L32.0895 1196.58 L32.0895 1190.7 Z" fill="#000000" fill-rule="evenodd" fill-opacity="1" /><path clip-path="url(#clip200)" d="M 0 0 M42.0895 1162.02 L60.4458 1162.02 L60.4458 1165.96 L46.3718 1165.96 L46.3718 1174.43 Q47.3904 1174.08 48.4089 1173.92 Q49.4274 1173.73 50.4459 1173.73 Q56.2329 1173.73 59.6125 1176.9 Q62.9921 1180.08 62.9921 1185.49 Q62.9921 1191.07 59.5199 1194.17 Q56.0477 1197.25 49.7283 1197.25 Q47.5524 1197.25 45.2839 1196.88 Q43.0385 1196.51 40.6311 1195.77 L40.6311 1191.07 Q42.7145 1192.21 44.9367 1192.76 Q47.1589 1193.32 49.6357 1193.32 Q53.6403 1193.32 55.9783 1191.21 Q58.3162 1189.1 58.3162 1185.49 Q58.3162 1181.88 55.9783 1179.78 Q53.6403 1177.67 49.6357 1177.67 Q47.7607 1177.67 45.8857 1178.09 Q44.0339 1178.5 42.0895 1179.38 L42.0895 1162.02 Z" fill="#000000" fill-rule="evenodd" fill-opacity="1" /><path clip-path="url(#clip200)" d="M 0 0 M6.11743 892.648 L13.7563 892.648 L13.7563 866.283 L5.44614 867.949 L5.44614 863.69 L13.71 862.023 L18.3859 862.023 L18.3859 892.648 L26.0247 892.648 L26.0247 896.583 L6.11743 896.583 L6.11743 892.648 Z" fill="#000000" fill-rule="evenodd" fill-opacity="1" /><path clip-path="url(#clip200)" d="M 0 0 M31.0941 890.704 L35.9784 890.704 L35.9784 896.583 L31.0941 896.583 L31.0941 890.704 Z" fill="#000000" fill-rule="evenodd" fill-opacity="1" /><path clip-path="url(#clip200)" d="M 0 0 M51.0477 865.102 Q47.4367 865.102 45.608 868.667 Q43.8024 872.208 43.8024 879.338 Q43.8024 886.445 45.608 890.009 Q47.4367 893.551 51.0477 893.551 Q54.682 893.551 56.4875 890.009 Q58.3162 886.445 58.3162 879.338 Q58.3162 872.208 56.4875 868.667 Q54.682 865.102 51.0477 865.102 M51.0477 861.398 Q56.8579 861.398 59.9134 866.005 Q62.9921 870.588 62.9921 879.338 Q62.9921 888.065 59.9134 892.671 Q56.8579 897.255 51.0477 897.255 Q45.2376 897.255 42.1589 892.671 Q39.1034 888.065 39.1034 879.338 Q39.1034 870.588 42.1589 866.005 Q45.2376 861.398 51.0477 861.398 Z" fill="#000000" fill-rule="evenodd" fill-opacity="1" /><path clip-path="url(#clip200)" d="M 0 0 M7.1128 592.651 L14.7516 592.651 L14.7516 566.285 L6.4415 567.952 L6.4415 563.693 L14.7053 562.026 L19.3812 562.026 L19.3812 592.651 L27.0201 592.651 L27.0201 596.586 L7.1128 596.586 L7.1128 592.651 Z" fill="#000000" fill-rule="evenodd" fill-opacity="1" /><path clip-path="url(#clip200)" d="M 0 0 M32.0895 590.707 L36.9737 590.707 L36.9737 596.586 L32.0895 596.586 L32.0895 590.707 Z" fill="#000000" fill-rule="evenodd" fill-opacity="1" /><path clip-path="url(#clip200)" d="M 0 0 M42.0895 562.026 L60.4458 562.026 L60.4458 565.961 L46.3718 565.961 L46.3718 574.434 Q47.3904 574.086 48.4089 573.924 Q49.4274 573.739 50.4459 573.739 Q56.2329 573.739 59.6125 576.91 Q62.9921 580.082 62.9921 585.498 Q62.9921 591.077 59.5199 594.179 Q56.0477 597.258 49.7283 597.258 Q47.5524 597.258 45.2839 596.887 Q43.0385 596.517 40.6311 595.776 L40.6311 591.077 Q42.7145 592.211 44.9367 592.767 Q47.1589 593.322 49.6357 593.322 Q53.6403 593.322 55.9783 591.216 Q58.3162 589.109 58.3162 585.498 Q58.3162 581.887 55.9783 579.781 Q53.6403 577.674 49.6357 577.674 Q47.7607 577.674 45.8857 578.091 Q44.0339 578.508 42.0895 579.387 L42.0895 562.026 Z" fill="#000000" fill-rule="evenodd" fill-opacity="1" /><path clip-path="url(#clip200)" d="M 0 0 M9.70537 292.654 L26.0247 292.654 L26.0247 296.589 L4.0804 296.589 L4.0804 292.654 Q6.74243 289.899 11.3257 285.27 Q15.9322 280.617 17.1127 279.274 Q19.3581 276.751 20.2377 275.015 Q21.1405 273.256 21.1405 271.566 Q21.1405 268.812 19.1961 267.075 Q17.2748 265.339 14.1729 265.339 Q11.9739 265.339 9.52019 266.103 Q7.08965 266.867 4.31188 268.418 L4.31188 263.696 Q7.13594 262.562 9.58963 261.983 Q12.0433 261.404 14.0804 261.404 Q19.4507 261.404 22.6451 264.089 Q25.8395 266.775 25.8395 271.265 Q25.8395 273.395 25.0294 275.316 Q24.2423 277.214 22.1359 279.807 Q21.5572 280.478 18.4553 283.696 Q15.3535 286.89 9.70537 292.654 Z" fill="#000000" fill-rule="evenodd" fill-opacity="1" /><path clip-path="url(#clip200)" d="M 0 0 M31.0941 290.71 L35.9784 290.71 L35.9784 296.589 L31.0941 296.589 L31.0941 290.71 Z" fill="#000000" fill-rule="evenodd" fill-opacity="1" /><path clip-path="url(#clip200)" d="M 0 0 M51.0477 265.108 Q47.4367 265.108 45.608 268.673 Q43.8024 272.214 43.8024 279.344 Q43.8024 286.45 45.608 290.015 Q47.4367 293.557 51.0477 293.557 Q54.682 293.557 56.4875 290.015 Q58.3162 286.45 58.3162 279.344 Q58.3162 272.214 56.4875 268.673 Q54.682 265.108 51.0477 265.108 M51.0477 261.404 Q56.8579 261.404 59.9134 266.011 Q62.9921 270.594 62.9921 279.344 Q62.9921 288.071 59.9134 292.677 Q56.8579 297.26 51.0477 297.26 Q45.2376 297.26 42.1589 292.677 Q39.1034 288.071 39.1034 279.344 Q39.1034 270.594 42.1589 266.011 Q45.2376 261.404 51.0477 261.404 Z" fill="#000000" fill-rule="evenodd" fill-opacity="1" /><path clip-path="url(#clip202)" d="
M151.118 1465.46 L155.574 1464.38 L160.031 1463.28 L164.488 1462.14 L168.945 1460.98 L173.402 1459.79 L177.859 1458.58 L182.316 1457.34 L186.773 1456.08 L191.229 1454.8 
  L195.686 1453.49 L200.143 1452.15 L204.6 1450.8 L209.057 1449.41 L213.514 1447.99 L217.971 1446.54 L222.428 1445.05 L226.885 1443.52 L231.341 1441.95 L235.798 1440.34 
  L240.255 1438.69 L244.712 1436.99 L249.169 1435.24 L253.626 1433.45 L258.083 1431.62 L262.54 1429.75 L266.997 1427.83 L271.453 1425.87 L275.91 1423.88 L280.367 1421.85 
  L284.824 1419.77 L289.281 1417.66 L293.738 1415.51 L298.195 1413.3 L302.652 1411.04 L307.108 1408.71 L311.565 1406.31 L316.022 1403.81 L320.479 1401.21 L324.936 1398.49 
  L329.393 1395.62 L333.85 1392.59 L338.307 1389.38 L342.764 1385.98 L347.22 1382.36 L351.677 1378.52 L356.134 1374.43 L360.591 1370.1 L365.048 1365.5 L369.505 1360.66 
  L373.962 1355.56 L378.419 1350.21 L382.876 1344.63 L387.332 1338.83 L391.789 1332.84 L396.246 1326.67 L400.703 1320.36 L405.16 1313.92 L409.617 1307.4 L414.074 1300.83 
  L418.531 1294.23 L422.987 1287.63 L427.444 1281.08 L431.901 1274.6 L436.358 1268.21 L440.815 1261.95 L445.272 1255.83 L449.729 1249.88 L454.186 1244.11 L458.643 1238.55 
  L463.099 1233.2 L467.556 1228.07 L472.013 1223.18 L476.47 1218.53 L480.927 1214.12 L485.384 1209.96 L489.841 1206.05 L494.298 1202.38 L498.755 1198.96 L503.211 1195.78 
  L507.668 1192.83 L512.125 1190.11 L516.582 1187.6 L521.039 1185.31 L525.496 1183.2 L529.953 1181.28 L534.41 1179.53 L538.866 1177.93 L543.323 1176.46 L547.78 1175.12 
  L552.237 1173.88 L556.694 1172.72 L561.151 1171.63 L565.608 1170.59 L570.065 1169.58 L574.522 1168.58 L578.978 1167.57 L583.435 1166.55 L587.892 1165.48 L592.349 1164.36 
  L592.349 1479.3 L587.892 1479.3 L583.435 1479.3 L578.978 1479.3 L574.522 1479.3 L570.065 1479.3 L565.608 1479.3 L561.151 1479.3 L556.694 1479.3 L552.237 1479.3 
  L547.78 1479.3 L543.323 1479.3 L538.866 1479.3 L534.41 1479.3 L529.953 1479.3 L525.496 1479.3 L521.039 1479.3 L516.582 1479.3 L512.125 1479.3 L507.668 1479.3 
  L503.211 1479.3 L498.755 1479.3 L494.298 1479.3 L489.841 1479.3 L485.384 1479.3 L480.927 1479.3 L476.47 1479.3 L472.013 1479.3 L467.556 1479.3 L463.099 1479.3 
  L458.643 1479.3 L454.186 1479.3 L449.729 1479.3 L445.272 1479.3 L440.815 1479.3 L436.358 1479.3 L431.901 1479.3 L427.444 1479.3 L422.987 1479.3 L418.531 1479.3 
  L414.074 1479.3 L409.617 1479.3 L405.16 1479.3 L400.703 1479.3 L396.246 1479.3 L391.789 1479.3 L387.332 1479.3 L382.876 1479.3 L378.419 1479.3 L373.962 1479.3 
  L369.505 1479.3 L365.048 1479.3 L360.591 1479.3 L356.134 1479.3 L351.677 1479.3 L347.22 1479.3 L342.764 1479.3 L338.307 1479.3 L333.85 1479.3 L329.393 1479.3 
  L324.936 1479.3 L320.479 1479.3 L316.022 1479.3 L311.565 1479.3 L307.108 1479.3 L302.652 1479.3 L298.195 1479.3 L293.738 1479.3 L289.281 1479.3 L284.824 1479.3 
  L280.367 1479.3 L275.91 1479.3 L271.453 1479.3 L266.997 1479.3 L262.54 1479.3 L258.083 1479.3 L253.626 1479.3 L249.169 1479.3 L244.712 1479.3 L240.255 1479.3 
  L235.798 1479.3 L231.341 1479.3 L226.885 1479.3 L222.428 1479.3 L217.971 1479.3 L213.514 1479.3 L209.057 1479.3 L204.6 1479.3 L200.143 1479.3 L195.686 1479.3 
  L191.229 1479.3 L186.773 1479.3 L182.316 1479.3 L177.859 1479.3 L173.402 1479.3 L168.945 1479.3 L164.488 1479.3 L160.031 1479.3 L155.574 1479.3 L151.118 1479.3 
   Z
  " fill="#ffa500" fill-rule="evenodd" fill-opacity="0.5"/>
<polyline clip-path="url(#clip202)" style="stroke:#ffa500; stroke-width:4; stroke-opacity:1; fill:none" points="
  151.118,1465.46 155.574,1464.38 160.031,1463.28 164.488,1462.14 168.945,1460.98 173.402,1459.79 177.859,1458.58 182.316,1457.34 186.773,1456.08 191.229,1454.8 
  195.686,1453.49 200.143,1452.15 204.6,1450.8 209.057,1449.41 213.514,1447.99 217.971,1446.54 222.428,1445.05 226.885,1443.52 231.341,1441.95 235.798,1440.34 
  240.255,1438.69 244.712,1436.99 249.169,1435.24 253.626,1433.45 258.083,1431.62 262.54,1429.75 266.997,1427.83 271.453,1425.87 275.91,1423.88 280.367,1421.85 
  284.824,1419.77 289.281,1417.66 293.738,1415.51 298.195,1413.3 302.652,1411.04 307.108,1408.71 311.565,1406.31 316.022,1403.81 320.479,1401.21 324.936,1398.49 
  329.393,1395.62 333.85,1392.59 338.307,1389.38 342.764,1385.98 347.22,1382.36 351.677,1378.52 356.134,1374.43 360.591,1370.1 365.048,1365.5 369.505,1360.66 
  373.962,1355.56 378.419,1350.21 382.876,1344.63 387.332,1338.83 391.789,1332.84 396.246,1326.67 400.703,1320.36 405.16,1313.92 409.617,1307.4 414.074,1300.83 
  418.531,1294.23 422.987,1287.63 427.444,1281.08 431.901,1274.6 436.358,1268.21 440.815,1261.95 445.272,1255.83 449.729,1249.88 454.186,1244.11 458.643,1238.55 
  463.099,1233.2 467.556,1228.07 472.013,1223.18 476.47,1218.53 480.927,1214.12 485.384,1209.96 489.841,1206.05 494.298,1202.38 498.755,1198.96 503.211,1195.78 
  507.668,1192.83 512.125,1190.11 516.582,1187.6 521.039,1185.31 525.496,1183.2 529.953,1181.28 534.41,1179.53 538.866,1177.93 543.323,1176.46 547.78,1175.12 
  552.237,1173.88 556.694,1172.72 561.151,1171.63 565.608,1170.59 570.065,1169.58 574.522,1168.58 578.978,1167.57 583.435,1166.55 587.892,1165.48 592.349,1164.36 
  
  "/>
<path clip-path="url(#clip202)" d="
M592.349 1164.36 L605.601 1160.5 L618.852 1155.46 L632.104 1148.72 L645.355 1139.68 L658.607 1127.76 L671.859 1112.43 L685.11 1093.31 L698.362 1070.26 L711.613 1043.44 
  L724.865 1013.3 L738.116 980.522 L751.368 945.876 L764.62 910.099 L777.871 873.759 L791.123 837.197 L804.374 800.548 L817.626 763.816 L830.877 726.975 L844.129 690.041 
  L857.381 653.119 L870.632 616.407 L883.884 580.185 L897.135 544.785 L910.387 510.554 L923.638 477.801 L936.89 446.732 L950.142 417.402 L963.393 389.728 L976.645 363.577 
  L989.896 338.913 L1003.15 315.937 L1016.4 295.112 L1029.65 277.019 L1042.9 262.08 L1056.15 250.246 L1069.41 240.836 L1082.66 232.605 L1095.91 224.064 L1109.16 213.904 
  L1122.41 201.371 L1135.66 186.434 L1148.92 169.722 L1162.17 152.294 L1175.42 135.345 L1188.67 119.976 L1201.92 107.072 L1215.17 97.2946 L1228.42 91.1295 L1241.68 88.9544 
  L1254.93 91.0531 L1268.18 97.5653 L1281.43 108.386 L1294.68 123.067 L1307.93 140.795 L1321.19 160.48 L1334.44 180.957 L1347.69 201.205 L1360.94 220.511 L1374.19 238.483 
  L1387.44 254.946 L1400.7 269.781 L1413.95 282.829 L1427.2 293.924 L1440.45 303.039 L1453.7 310.463 L1466.95 316.902 L1480.2 323.425 L1493.46 331.262 L1506.71 341.531 
  L1519.96 354.992 L1533.21 371.921 L1546.46 392.131 L1559.71 415.114 L1572.97 440.261 L1586.22 467.065 L1599.47 495.275 L1612.72 524.923 L1625.97 556.233 L1639.22 589.417 
  L1652.48 624.432 L1665.73 660.773 L1678.98 697.421 L1692.23 732.974 L1705.48 765.948 L1718.73 795.145 L1731.98 819.964 L1745.24 840.534 L1758.49 857.632 L1771.74 872.415 
  L1784.99 886.059 L1798.24 899.43 L1811.49 912.897 L1824.75 926.325 L1838 939.264 L1851.25 951.252 L1864.5 962.141 L1877.75 972.312 L1891 982.702 L1904.26 994.616 
  L1904.26 1479.3 L1891 1479.3 L1877.75 1479.3 L1864.5 1479.3 L1851.25 1479.3 L1838 1479.3 L1824.75 1479.3 L1811.49 1479.3 L1798.24 1479.3 L1784.99 1479.3 
  L1771.74 1479.3 L1758.49 1479.3 L1745.24 1479.3 L1731.98 1479.3 L1718.73 1479.3 L1705.48 1479.3 L1692.23 1479.3 L1678.98 1479.3 L1665.73 1479.3 L1652.48 1479.3 
  L1639.22 1479.3 L1625.97 1479.3 L1612.72 1479.3 L1599.47 1479.3 L1586.22 1479.3 L1572.97 1479.3 L1559.71 1479.3 L1546.46 1479.3 L1533.21 1479.3 L1519.96 1479.3 
  L1506.71 1479.3 L1493.46 1479.3 L1480.2 1479.3 L1466.95 1479.3 L1453.7 1479.3 L1440.45 1479.3 L1427.2 1479.3 L1413.95 1479.3 L1400.7 1479.3 L1387.44 1479.3 
  L1374.19 1479.3 L1360.94 1479.3 L1347.69 1479.3 L1334.44 1479.3 L1321.19 1479.3 L1307.93 1479.3 L1294.68 1479.3 L1281.43 1479.3 L1268.18 1479.3 L1254.93 1479.3 
  L1241.68 1479.3 L1228.42 1479.3 L1215.17 1479.3 L1201.92 1479.3 L1188.67 1479.3 L1175.42 1479.3 L1162.17 1479.3 L1148.92 1479.3 L1135.66 1479.3 L1122.41 1479.3 
  L1109.16 1479.3 L1095.91 1479.3 L1082.66 1479.3 L1069.41 1479.3 L1056.15 1479.3 L1042.9 1479.3 L1029.65 1479.3 L1016.4 1479.3 L1003.15 1479.3 L989.896 1479.3 
  L976.645 1479.3 L963.393 1479.3 L950.142 1479.3 L936.89 1479.3 L923.638 1479.3 L910.387 1479.3 L897.135 1479.3 L883.884 1479.3 L870.632 1479.3 L857.381 1479.3 
  L844.129 1479.3 L830.877 1479.3 L817.626 1479.3 L804.374 1479.3 L791.123 1479.3 L777.871 1479.3 L764.62 1479.3 L751.368 1479.3 L738.116 1479.3 L724.865 1479.3 
  L711.613 1479.3 L698.362 1479.3 L685.11 1479.3 L671.859 1479.3 L658.607 1479.3 L645.355 1479.3 L632.104 1479.3 L618.852 1479.3 L605.601 1479.3 L592.349 1479.3 
   Z
  " fill="#008000" fill-rule="evenodd" fill-opacity="0.5"/>
<polyline clip-path="url(#clip202)" style="stroke:#008000; stroke-width:4; stroke-opacity:1; fill:none" points="
  592.349,1164.36 605.601,1160.5 618.852,1155.46 632.104,1148.72 645.355,1139.68 658.607,1127.76 671.859,1112.43 685.11,1093.31 698.362,1070.26 711.613,1043.44 
  724.865,1013.3 738.116,980.522 751.368,945.876 764.62,910.099 777.871,873.759 791.123,837.197 804.374,800.548 817.626,763.816 830.877,726.975 844.129,690.041 
  857.381,653.119 870.632,616.407 883.884,580.185 897.135,544.785 910.387,510.554 923.638,477.801 936.89,446.732 950.142,417.402 963.393,389.728 976.645,363.577 
  989.896,338.913 1003.15,315.937 1016.4,295.112 1029.65,277.019 1042.9,262.08 1056.15,250.246 1069.41,240.836 1082.66,232.605 1095.91,224.064 1109.16,213.904 
  1122.41,201.371 1135.66,186.434 1148.92,169.722 1162.17,152.294 1175.42,135.345 1188.67,119.976 1201.92,107.072 1215.17,97.2946 1228.42,91.1295 1241.68,88.9544 
  1254.93,91.0531 1268.18,97.5653 1281.43,108.386 1294.68,123.067 1307.93,140.795 1321.19,160.48 1334.44,180.957 1347.69,201.205 1360.94,220.511 1374.19,238.483 
  1387.44,254.946 1400.7,269.781 1413.95,282.829 1427.2,293.924 1440.45,303.039 1453.7,310.463 1466.95,316.902 1480.2,323.425 1493.46,331.262 1506.71,341.531 
  1519.96,354.992 1533.21,371.921 1546.46,392.131 1559.71,415.114 1572.97,440.261 1586.22,467.065 1599.47,495.275 1612.72,524.923 1625.97,556.233 1639.22,589.417 
  1652.48,624.432 1665.73,660.773 1678.98,697.421 1692.23,732.974 1705.48,765.948 1718.73,795.145 1731.98,819.964 1745.24,840.534 1758.49,857.632 1771.74,872.415 
  1784.99,886.059 1798.24,899.43 1811.49,912.897 1824.75,926.325 1838,939.264 1851.25,951.252 1864.5,962.141 1877.75,972.312 1891,982.702 1904.26,994.616 
  
  "/>
<path clip-path="url(#clip202)" d="
M1904.26 994.616 L1908.14 998.595 L1912.02 1002.85 L1915.9 1007.41 L1919.79 1012.3 L1923.67 1017.53 L1927.55 1023.13 L1931.43 1029.08 L1935.32 1035.41 L1939.2 1042.11 
  L1943.08 1049.17 L1946.96 1056.57 L1950.85 1064.31 L1954.73 1072.36 L1958.61 1080.7 L1962.49 1089.31 L1966.38 1098.15 L1970.26 1107.2 L1974.14 1116.42 L1978.02 1125.79 
  L1981.91 1135.28 L1985.79 1144.85 L1989.67 1154.48 L1993.55 1164.15 L1997.44 1173.82 L2001.32 1183.47 L2005.2 1193.08 L2009.08 1202.63 L2012.97 1212.09 L2016.85 1221.46 
  L2020.73 1230.72 L2024.62 1239.85 L2028.5 1248.84 L2032.38 1257.67 L2036.26 1266.34 L2040.15 1274.84 L2044.03 1283.15 L2047.91 1291.27 L2051.79 1299.18 L2055.68 1306.89 
  L2059.56 1314.39 L2063.44 1321.66 L2067.32 1328.71 L2071.21 1335.54 L2075.09 1342.13 L2078.97 1348.49 L2082.85 1354.62 L2086.74 1360.51 L2090.62 1366.17 L2094.5 1371.6 
  L2098.38 1376.81 L2102.27 1381.79 L2106.15 1386.56 L2110.03 1391.11 L2113.91 1395.46 L2117.8 1399.61 L2121.68 1403.57 L2125.56 1407.35 L2129.44 1410.95 L2133.33 1414.39 
  L2137.21 1417.67 L2141.09 1420.79 L2144.98 1423.77 L2148.86 1426.62 L2152.74 1429.33 L2156.62 1431.92 L2160.51 1434.39 L2164.39 1436.75 L2168.27 1438.99 L2172.15 1441.13 
  L2176.04 1443.17 L2179.92 1445.12 L2183.8 1446.96 L2187.68 1448.72 L2191.57 1450.38 L2195.45 1451.96 L2199.33 1453.46 L2203.21 1454.87 L2207.1 1456.21 L2210.98 1457.47 
  L2214.86 1458.66 L2218.74 1459.79 L2222.63 1460.84 L2226.51 1461.83 L2230.39 1462.77 L2234.27 1463.65 L2238.16 1464.47 L2242.04 1465.25 L2245.92 1465.99 L2249.8 1466.68 
  L2253.69 1467.34 L2257.57 1467.96 L2261.45 1468.55 L2265.34 1469.11 L2269.22 1469.65 L2273.1 1470.16 L2276.98 1470.66 L2280.87 1471.13 L2284.75 1471.59 L2288.63 1472.03 
  L2288.63 1479.3 L2284.75 1479.3 L2280.87 1479.3 L2276.98 1479.3 L2273.1 1479.3 L2269.22 1479.3 L2265.34 1479.3 L2261.45 1479.3 L2257.57 1479.3 L2253.69 1479.3 
  L2249.8 1479.3 L2245.92 1479.3 L2242.04 1479.3 L2238.16 1479.3 L2234.27 1479.3 L2230.39 1479.3 L2226.51 1479.3 L2222.63 1479.3 L2218.74 1479.3 L2214.86 1479.3 
  L2210.98 1479.3 L2207.1 1479.3 L2203.21 1479.3 L2199.33 1479.3 L2195.45 1479.3 L2191.57 1479.3 L2187.68 1479.3 L2183.8 1479.3 L2179.92 1479.3 L2176.04 1479.3 
  L2172.15 1479.3 L2168.27 1479.3 L2164.39 1479.3 L2160.51 1479.3 L2156.62 1479.3 L2152.74 1479.3 L2148.86 1479.3 L2144.98 1479.3 L2141.09 1479.3 L2137.21 1479.3 
  L2133.33 1479.3 L2129.44 1479.3 L2125.56 1479.3 L2121.68 1479.3 L2117.8 1479.3 L2113.91 1479.3 L2110.03 1479.3 L2106.15 1479.3 L2102.27 1479.3 L2098.38 1479.3 
  L2094.5 1479.3 L2090.62 1479.3 L2086.74 1479.3 L2082.85 1479.3 L2078.97 1479.3 L2075.09 1479.3 L2071.21 1479.3 L2067.32 1479.3 L2063.44 1479.3 L2059.56 1479.3 
  L2055.68 1479.3 L2051.79 1479.3 L2047.91 1479.3 L2044.03 1479.3 L2040.15 1479.3 L2036.26 1479.3 L2032.38 1479.3 L2028.5 1479.3 L2024.62 1479.3 L2020.73 1479.3 
  L2016.85 1479.3 L2012.97 1479.3 L2009.08 1479.3 L2005.2 1479.3 L2001.32 1479.3 L1997.44 1479.3 L1993.55 1479.3 L1989.67 1479.3 L1985.79 1479.3 L1981.91 1479.3 
  L1978.02 1479.3 L1974.14 1479.3 L1970.26 1479.3 L1966.38 1479.3 L1962.49 1479.3 L1958.61 1479.3 L1954.73 1479.3 L1950.85 1479.3 L1946.96 1479.3 L1943.08 1479.3 
  L1939.2 1479.3 L1935.32 1479.3 L1931.43 1479.3 L1927.55 1479.3 L1923.67 1479.3 L1919.79 1479.3 L1915.9 1479.3 L1912.02 1479.3 L1908.14 1479.3 L1904.26 1479.3 
   Z
  " fill="#ffa500" fill-rule="evenodd" fill-opacity="0.5"/>
<polyline clip-path="url(#clip202)" style="stroke:#ffa500; stroke-width:4; stroke-opacity:1; fill:none" points="
  1904.26,994.616 1908.14,998.595 1912.02,1002.85 1915.9,1007.41 1919.79,1012.3 1923.67,1017.53 1927.55,1023.13 1931.43,1029.08 1935.32,1035.41 1939.2,1042.11 
  1943.08,1049.17 1946.96,1056.57 1950.85,1064.31 1954.73,1072.36 1958.61,1080.7 1962.49,1089.31 1966.38,1098.15 1970.26,1107.2 1974.14,1116.42 1978.02,1125.79 
  1981.91,1135.28 1985.79,1144.85 1989.67,1154.48 1993.55,1164.15 1997.44,1173.82 2001.32,1183.47 2005.2,1193.08 2009.08,1202.63 2012.97,1212.09 2016.85,1221.46 
  2020.73,1230.72 2024.62,1239.85 2028.5,1248.84 2032.38,1257.67 2036.26,1266.34 2040.15,1274.84 2044.03,1283.15 2047.91,1291.27 2051.79,1299.18 2055.68,1306.89 
  2059.56,1314.39 2063.44,1321.66 2067.32,1328.71 2071.21,1335.54 2075.09,1342.13 2078.97,1348.49 2082.85,1354.62 2086.74,1360.51 2090.62,1366.17 2094.5,1371.6 
  2098.38,1376.81 2102.27,1381.79 2106.15,1386.56 2110.03,1391.11 2113.91,1395.46 2117.8,1399.61 2121.68,1403.57 2125.56,1407.35 2129.44,1410.95 2133.33,1414.39 
  2137.21,1417.67 2141.09,1420.79 2144.98,1423.77 2148.86,1426.62 2152.74,1429.33 2156.62,1431.92 2160.51,1434.39 2164.39,1436.75 2168.27,1438.99 2172.15,1441.13 
  2176.04,1443.17 2179.92,1445.12 2183.8,1446.96 2187.68,1448.72 2191.57,1450.38 2195.45,1451.96 2199.33,1453.46 2203.21,1454.87 2207.1,1456.21 2210.98,1457.47 
  2214.86,1458.66 2218.74,1459.79 2222.63,1460.84 2226.51,1461.83 2230.39,1462.77 2234.27,1463.65 2238.16,1464.47 2242.04,1465.25 2245.92,1465.99 2249.8,1466.68 
  2253.69,1467.34 2257.57,1467.96 2261.45,1468.55 2265.34,1469.11 2269.22,1469.65 2273.1,1470.16 2276.98,1470.66 2280.87,1471.13 2284.75,1471.59 2288.63,1472.03 
  
  "/>
<polyline clip-path="url(#clip202)" style="stroke:#0000ff; stroke-width:4; stroke-opacity:1; fill:none" points="
  1259.6,1479.3 1259.6,92.8451 
  "/>
<polyline clip-path="url(#clip202)" style="stroke:#000000; stroke-width:4; stroke-opacity:1; fill:none" points="
  1256.36,1479.3 1256.36,91.5432 
  "/>
<path clip-path="url(#clip200)" d="
M1509.86 493.644 L2280.76 493.644 L2280.76 130.764 L1509.86 130.764  Z
  " fill="#ffffff" fill-rule="evenodd" fill-opacity="1"/>
<polyline clip-path="url(#clip200)" style="stroke:#000000; stroke-width:4; stroke-opacity:1; fill:none" points="
  1509.86,493.644 2280.76,493.644 2280.76,130.764 1509.86,130.764 1509.86,493.644 
  "/>
<path clip-path="url(#clip200)" d="
M1533.86 215.436 L1677.86 215.436 L1677.86 167.052 L1533.86 167.052 L1533.86 215.436  Z
  " fill="#ffa500" fill-rule="evenodd" fill-opacity="0.5"/>
<polyline clip-path="url(#clip200)" style="stroke:#ffa500; stroke-width:4; stroke-opacity:1; fill:none" points="
  1533.86,167.052 1677.86,167.052 
  "/>
<path clip-path="url(#clip200)" d="M 0 0 M1706.25 195.584 Q1706.25 200.283 1708.18 202.969 Q1710.12 205.631 1713.5 205.631 Q1716.88 205.631 1718.82 202.969 Q1720.77 200.283 1720.77 195.584 Q1720.77 190.885 1718.82 188.223 Q1716.88 185.538 1713.5 185.538 Q1710.12 185.538 1708.18 188.223 Q1706.25 190.885 1706.25 195.584 M1720.77 204.635 Q1719.43 206.95 1717.37 208.084 Q1715.33 209.195 1712.46 209.195 Q1707.76 209.195 1704.8 205.445 Q1701.86 201.695 1701.86 195.584 Q1701.86 189.473 1704.8 185.723 Q1707.76 181.973 1712.46 181.973 Q1715.33 181.973 1717.37 183.108 Q1719.43 184.219 1720.77 186.533 L1720.77 182.598 L1725.03 182.598 L1725.03 218.385 L1720.77 218.385 L1720.77 204.635 Z" fill="#000000" fill-rule="evenodd" fill-opacity="1" /><path clip-path="url(#clip200)" d="M 0 0 M1740.1 177.043 Q1736.49 177.043 1734.66 180.608 Q1732.85 184.149 1732.85 191.279 Q1732.85 198.385 1734.66 201.95 Q1736.49 205.492 1740.1 205.492 Q1743.73 205.492 1745.54 201.95 Q1747.36 198.385 1747.36 191.279 Q1747.36 184.149 1745.54 180.608 Q1743.73 177.043 1740.1 177.043 M1740.1 173.339 Q1745.91 173.339 1748.96 177.946 Q1752.04 182.529 1752.04 191.279 Q1752.04 200.006 1748.96 204.612 Q1745.91 209.195 1740.1 209.195 Q1734.29 209.195 1731.21 204.612 Q1728.15 200.006 1728.15 191.279 Q1728.15 182.529 1731.21 177.946 Q1734.29 173.339 1740.1 173.339 Z" fill="#000000" fill-rule="evenodd" fill-opacity="1" /><path clip-path="url(#clip200)" d="M 0 0 M1757.16 173.964 L1775.51 173.964 L1775.51 177.899 L1761.44 177.899 L1761.44 186.371 Q1762.46 186.024 1763.48 185.862 Q1764.49 185.677 1765.51 185.677 Q1771.3 185.677 1774.68 188.848 Q1778.06 192.02 1778.06 197.436 Q1778.06 203.015 1774.59 206.117 Q1771.11 209.195 1764.8 209.195 Q1762.62 209.195 1760.35 208.825 Q1758.11 208.455 1755.7 207.714 L1755.7 203.015 Q1757.78 204.149 1760 204.705 Q1762.23 205.26 1764.7 205.26 Q1768.71 205.26 1771.05 203.154 Q1773.38 201.047 1773.38 197.436 Q1773.38 193.825 1771.05 191.719 Q1768.71 189.612 1764.7 189.612 Q1762.83 189.612 1760.95 190.029 Q1759.1 190.445 1757.16 191.325 L1757.16 173.964 Z" fill="#000000" fill-rule="evenodd" fill-opacity="1" /><path clip-path="url(#clip200)" d="
M1533.86 275.916 L1677.86 275.916 L1677.86 227.532 L1533.86 227.532 L1533.86 275.916  Z
  " fill="#008000" fill-rule="evenodd" fill-opacity="0.5"/>
<polyline clip-path="url(#clip200)" style="stroke:#008000; stroke-width:4; stroke-opacity:1; fill:none" points="
  1533.86,227.532 1677.86,227.532 
  "/>
<path clip-path="url(#clip200)" d="M 0 0 M1704.08 268.287 L1704.08 264.027 Q1705.84 264.861 1707.64 265.3 Q1709.45 265.74 1711.18 265.74 Q1715.81 265.74 1718.24 262.638 Q1720.7 259.513 1721.05 253.171 Q1719.7 255.162 1717.64 256.226 Q1715.58 257.291 1713.08 257.291 Q1707.9 257.291 1704.87 254.166 Q1701.86 251.018 1701.86 245.578 Q1701.86 240.254 1705 237.037 Q1708.15 233.819 1713.38 233.819 Q1719.38 233.819 1722.53 238.426 Q1725.7 243.009 1725.7 251.759 Q1725.7 259.93 1721.81 264.814 Q1717.94 269.675 1711.39 269.675 Q1709.63 269.675 1707.83 269.328 Q1706.02 268.981 1704.08 268.287 M1713.38 253.634 Q1716.53 253.634 1718.36 251.481 Q1720.21 249.328 1720.21 245.578 Q1720.21 241.851 1718.36 239.699 Q1716.53 237.523 1713.38 237.523 Q1710.24 237.523 1708.38 239.699 Q1706.56 241.851 1706.56 245.578 Q1706.56 249.328 1708.38 251.481 Q1710.24 253.634 1713.38 253.634 Z" fill="#000000" fill-rule="evenodd" fill-opacity="1" /><path clip-path="url(#clip200)" d="M 0 0 M1740.77 237.523 Q1737.16 237.523 1735.33 241.088 Q1733.52 244.629 1733.52 251.759 Q1733.52 258.865 1735.33 262.43 Q1737.16 265.972 1740.77 265.972 Q1744.4 265.972 1746.21 262.43 Q1748.04 258.865 1748.04 251.759 Q1748.04 244.629 1746.21 241.088 Q1744.4 237.523 1740.77 237.523 M1740.77 233.819 Q1746.58 233.819 1749.63 238.426 Q1752.71 243.009 1752.71 251.759 Q1752.71 260.486 1749.63 265.092 Q1746.58 269.675 1740.77 269.675 Q1734.96 269.675 1731.88 265.092 Q1728.82 260.486 1728.82 251.759 Q1728.82 243.009 1731.88 238.426 Q1734.96 233.819 1740.77 233.819 Z" fill="#000000" fill-rule="evenodd" fill-opacity="1" /><path clip-path="url(#clip200)" d="M 0 0 M1787.18 253.796 Q1785.17 253.796 1784.01 255.509 Q1782.87 257.222 1782.87 260.277 Q1782.87 263.287 1784.01 265.023 Q1785.17 266.736 1787.18 266.736 Q1789.15 266.736 1790.28 265.023 Q1791.44 263.287 1791.44 260.277 Q1791.44 257.245 1790.28 255.532 Q1789.15 253.796 1787.18 253.796 M1787.18 250.856 Q1790.84 250.856 1792.99 253.402 Q1795.14 255.949 1795.14 260.277 Q1795.14 264.606 1792.97 267.152 Q1790.81 269.675 1787.18 269.675 Q1783.48 269.675 1781.32 267.152 Q1779.17 264.606 1779.17 260.277 Q1779.17 255.925 1781.32 253.402 Q1783.5 250.856 1787.18 250.856 M1763.29 236.759 Q1761.3 236.759 1760.14 238.495 Q1759.01 240.208 1759.01 243.217 Q1759.01 246.273 1760.14 247.986 Q1761.28 249.699 1763.29 249.699 Q1765.3 249.699 1766.44 247.986 Q1767.6 246.273 1767.6 243.217 Q1767.6 240.231 1766.44 238.495 Q1765.28 236.759 1763.29 236.759 M1784.19 233.819 L1787.9 233.819 L1766.28 269.675 L1762.57 269.675 L1784.19 233.819 M1763.29 233.819 Q1766.95 233.819 1769.12 236.365 Q1771.3 238.889 1771.3 243.217 Q1771.3 247.592 1769.12 250.115 Q1766.97 252.638 1763.29 252.638 Q1759.61 252.638 1757.46 250.115 Q1755.33 247.569 1755.33 243.217 Q1755.33 238.912 1757.48 236.365 Q1759.63 233.819 1763.29 233.819 Z" fill="#000000" fill-rule="evenodd" fill-opacity="1" /><path clip-path="url(#clip200)" d="M 0 0 M1836.23 253.356 L1836.23 269.004 L1831.97 269.004 L1831.97 253.495 Q1831.97 249.814 1830.54 247.986 Q1829.1 246.157 1826.23 246.157 Q1822.78 246.157 1820.79 248.356 Q1818.8 250.555 1818.8 254.351 L1818.8 269.004 L1814.52 269.004 L1814.52 243.078 L1818.8 243.078 L1818.8 247.106 Q1820.33 244.768 1822.39 243.611 Q1824.47 242.453 1827.18 242.453 Q1831.65 242.453 1833.94 245.231 Q1836.23 247.986 1836.23 253.356 Z" fill="#000000" fill-rule="evenodd" fill-opacity="1" /><path clip-path="url(#clip200)" d="M 0 0 M1850.74 246.064 Q1847.32 246.064 1845.33 248.75 Q1843.34 251.412 1843.34 256.064 Q1843.34 260.717 1845.3 263.402 Q1847.3 266.064 1850.74 266.064 Q1854.15 266.064 1856.14 263.379 Q1858.13 260.694 1858.13 256.064 Q1858.13 251.458 1856.14 248.773 Q1854.15 246.064 1850.74 246.064 M1850.74 242.453 Q1856.3 242.453 1859.47 246.064 Q1862.64 249.675 1862.64 256.064 Q1862.64 262.43 1859.47 266.064 Q1856.3 269.675 1850.74 269.675 Q1845.17 269.675 1841.99 266.064 Q1838.85 262.43 1838.85 256.064 Q1838.85 249.675 1841.99 246.064 Q1845.17 242.453 1850.74 242.453 Z" fill="#000000" fill-rule="evenodd" fill-opacity="1" /><path clip-path="url(#clip200)" d="M 0 0 M1888.66 253.356 L1888.66 269.004 L1884.4 269.004 L1884.4 253.495 Q1884.4 249.814 1882.97 247.986 Q1881.53 246.157 1878.66 246.157 Q1875.21 246.157 1873.22 248.356 Q1871.23 250.555 1871.23 254.351 L1871.23 269.004 L1866.95 269.004 L1866.95 243.078 L1871.23 243.078 L1871.23 247.106 Q1872.76 244.768 1874.82 243.611 Q1876.9 242.453 1879.61 242.453 Q1884.08 242.453 1886.37 245.231 Q1888.66 247.986 1888.66 253.356 Z" fill="#000000" fill-rule="evenodd" fill-opacity="1" /><path clip-path="url(#clip200)" d="M 0 0 M1890.98 254.12 L1903.45 254.12 L1903.45 257.916 L1890.98 257.916 L1890.98 254.12 Z" fill="#000000" fill-rule="evenodd" fill-opacity="1" /><path clip-path="url(#clip200)" d="M 0 0 M1922.94 247.06 Q1922.23 246.643 1921.37 246.458 Q1920.54 246.25 1919.52 246.25 Q1915.91 246.25 1913.96 248.611 Q1912.04 250.949 1912.04 255.347 L1912.04 269.004 L1907.76 269.004 L1907.76 243.078 L1912.04 243.078 L1912.04 247.106 Q1913.38 244.745 1915.54 243.611 Q1917.69 242.453 1920.77 242.453 Q1921.21 242.453 1921.74 242.523 Q1922.27 242.569 1922.92 242.685 L1922.94 247.06 Z" fill="#000000" fill-rule="evenodd" fill-opacity="1" /><path clip-path="url(#clip200)" d="M 0 0 M1948.54 254.976 L1948.54 257.06 L1928.96 257.06 Q1929.24 261.458 1931.6 263.773 Q1933.98 266.064 1938.22 266.064 Q1940.67 266.064 1942.97 265.462 Q1945.28 264.861 1947.55 263.657 L1947.55 267.685 Q1945.26 268.657 1942.85 269.166 Q1940.44 269.675 1937.97 269.675 Q1931.76 269.675 1928.13 266.064 Q1924.52 262.453 1924.52 256.296 Q1924.52 249.93 1927.94 246.203 Q1931.39 242.453 1937.23 242.453 Q1942.46 242.453 1945.49 245.833 Q1948.54 249.189 1948.54 254.976 M1944.29 253.726 Q1944.24 250.231 1942.32 248.148 Q1940.42 246.064 1937.27 246.064 Q1933.71 246.064 1931.55 248.078 Q1929.42 250.092 1929.1 253.75 L1944.29 253.726 Z" fill="#000000" fill-rule="evenodd" fill-opacity="1" /><path clip-path="url(#clip200)" d="M 0 0 M1953.01 243.078 L1957.27 243.078 L1957.27 269.467 Q1957.27 274.421 1955.37 276.643 Q1953.5 278.865 1949.31 278.865 L1947.69 278.865 L1947.69 275.254 L1948.82 275.254 Q1951.25 275.254 1952.13 274.12 Q1953.01 273.009 1953.01 269.467 L1953.01 243.078 M1953.01 232.986 L1957.27 232.986 L1957.27 238.379 L1953.01 238.379 L1953.01 232.986 Z" fill="#000000" fill-rule="evenodd" fill-opacity="1" /><path clip-path="url(#clip200)" d="M 0 0 M1983.91 254.976 L1983.91 257.06 L1964.33 257.06 Q1964.61 261.458 1966.97 263.773 Q1969.35 266.064 1973.59 266.064 Q1976.04 266.064 1978.34 265.462 Q1980.65 264.861 1982.92 263.657 L1982.92 267.685 Q1980.63 268.657 1978.22 269.166 Q1975.81 269.675 1973.34 269.675 Q1967.13 269.675 1963.5 266.064 Q1959.89 262.453 1959.89 256.296 Q1959.89 249.93 1963.31 246.203 Q1966.76 242.453 1972.6 242.453 Q1977.83 242.453 1980.86 245.833 Q1983.91 249.189 1983.91 254.976 M1979.66 253.726 Q1979.61 250.231 1977.69 248.148 Q1975.79 246.064 1972.64 246.064 Q1969.08 246.064 1966.92 248.078 Q1964.79 250.092 1964.47 253.75 L1979.66 253.726 Z" fill="#000000" fill-rule="evenodd" fill-opacity="1" /><path clip-path="url(#clip200)" d="M 0 0 M2007.04 244.074 L2007.04 248.055 Q2005.23 247.06 2003.41 246.574 Q2001.6 246.064 1999.75 246.064 Q1995.6 246.064 1993.31 248.703 Q1991.02 251.319 1991.02 256.064 Q1991.02 260.81 1993.31 263.449 Q1995.6 266.064 1999.75 266.064 Q2001.6 266.064 2003.41 265.578 Q2005.23 265.069 2007.04 264.074 L2007.04 268.009 Q2005.26 268.842 2003.34 269.259 Q2001.44 269.675 1999.28 269.675 Q1993.43 269.675 1989.98 265.995 Q1986.53 262.314 1986.53 256.064 Q1986.53 249.722 1990 246.088 Q1993.5 242.453 1999.56 242.453 Q2001.53 242.453 2003.41 242.87 Q2005.28 243.263 2007.04 244.074 Z" fill="#000000" fill-rule="evenodd" fill-opacity="1" /><path clip-path="url(#clip200)" d="M 0 0 M2015.72 235.717 L2015.72 243.078 L2024.49 243.078 L2024.49 246.388 L2015.72 246.388 L2015.72 260.462 Q2015.72 263.634 2016.58 264.537 Q2017.46 265.439 2020.12 265.439 L2024.49 265.439 L2024.49 269.004 L2020.12 269.004 Q2015.19 269.004 2013.31 267.175 Q2011.44 265.324 2011.44 260.462 L2011.44 246.388 L2008.31 246.388 L2008.31 243.078 L2011.44 243.078 L2011.44 235.717 L2015.72 235.717 Z" fill="#000000" fill-rule="evenodd" fill-opacity="1" /><path clip-path="url(#clip200)" d="M 0 0 M2028.96 243.078 L2033.22 243.078 L2033.22 269.004 L2028.96 269.004 L2028.96 243.078 M2028.96 232.986 L2033.22 232.986 L2033.22 238.379 L2028.96 238.379 L2028.96 232.986 Z" fill="#000000" fill-rule="evenodd" fill-opacity="1" /><path clip-path="url(#clip200)" d="M 0 0 M2047.73 246.064 Q2044.31 246.064 2042.32 248.75 Q2040.33 251.412 2040.33 256.064 Q2040.33 260.717 2042.29 263.402 Q2044.28 266.064 2047.73 266.064 Q2051.14 266.064 2053.13 263.379 Q2055.12 260.694 2055.12 256.064 Q2055.12 251.458 2053.13 248.773 Q2051.14 246.064 2047.73 246.064 M2047.73 242.453 Q2053.29 242.453 2056.46 246.064 Q2059.63 249.675 2059.63 256.064 Q2059.63 262.43 2056.46 266.064 Q2053.29 269.675 2047.73 269.675 Q2042.16 269.675 2038.98 266.064 Q2035.84 262.43 2035.84 256.064 Q2035.84 249.675 2038.98 246.064 Q2042.16 242.453 2047.73 242.453 Z" fill="#000000" fill-rule="evenodd" fill-opacity="1" /><path clip-path="url(#clip200)" d="M 0 0 M2085.65 253.356 L2085.65 269.004 L2081.39 269.004 L2081.39 253.495 Q2081.39 249.814 2079.96 247.986 Q2078.52 246.157 2075.65 246.157 Q2072.2 246.157 2070.21 248.356 Q2068.22 250.555 2068.22 254.351 L2068.22 269.004 L2063.94 269.004 L2063.94 243.078 L2068.22 243.078 L2068.22 247.106 Q2069.75 244.768 2071.81 243.611 Q2073.89 242.453 2076.6 242.453 Q2081.07 242.453 2083.36 245.231 Q2085.65 247.986 2085.65 253.356 Z" fill="#000000" fill-rule="evenodd" fill-opacity="1" /><path clip-path="url(#clip200)" d="M 0 0 M2120.21 247.06 Q2119.49 246.643 2118.64 246.458 Q2117.8 246.25 2116.78 246.25 Q2113.17 246.25 2111.23 248.611 Q2109.31 250.949 2109.31 255.347 L2109.31 269.004 L2105.03 269.004 L2105.03 243.078 L2109.31 243.078 L2109.31 247.106 Q2110.65 244.745 2112.8 243.611 Q2114.96 242.453 2118.03 242.453 Q2118.47 242.453 2119.01 242.523 Q2119.54 242.569 2120.19 242.685 L2120.21 247.06 Z" fill="#000000" fill-rule="evenodd" fill-opacity="1" /><path clip-path="url(#clip200)" d="M 0 0 M2145.81 254.976 L2145.81 257.06 L2126.23 257.06 Q2126.51 261.458 2128.87 263.773 Q2131.25 266.064 2135.49 266.064 Q2137.94 266.064 2140.23 265.462 Q2142.55 264.861 2144.82 263.657 L2144.82 267.685 Q2142.52 268.657 2140.12 269.166 Q2137.71 269.675 2135.23 269.675 Q2129.03 269.675 2125.4 266.064 Q2121.78 262.453 2121.78 256.296 Q2121.78 249.93 2125.21 246.203 Q2128.66 242.453 2134.49 242.453 Q2139.72 242.453 2142.76 245.833 Q2145.81 249.189 2145.81 254.976 M2141.55 253.726 Q2141.51 250.231 2139.59 248.148 Q2137.69 246.064 2134.54 246.064 Q2130.97 246.064 2128.82 248.078 Q2126.69 250.092 2126.37 253.75 L2141.55 253.726 Z" fill="#000000" fill-rule="evenodd" fill-opacity="1" /><path clip-path="url(#clip200)" d="M 0 0 M2167.34 255.74 Q2167.34 251.111 2165.42 248.564 Q2163.52 246.018 2160.07 246.018 Q2156.65 246.018 2154.72 248.564 Q2152.83 251.111 2152.83 255.74 Q2152.83 260.347 2154.72 262.893 Q2156.65 265.439 2160.07 265.439 Q2163.52 265.439 2165.42 262.893 Q2167.34 260.347 2167.34 255.74 M2171.6 265.787 Q2171.6 272.407 2168.66 275.624 Q2165.72 278.865 2159.65 278.865 Q2157.41 278.865 2155.42 278.518 Q2153.43 278.194 2151.55 277.499 L2151.55 273.356 Q2153.43 274.374 2155.26 274.861 Q2157.09 275.347 2158.98 275.347 Q2163.17 275.347 2165.26 273.148 Q2167.34 270.972 2167.34 266.55 L2167.34 264.444 Q2166.02 266.736 2163.96 267.87 Q2161.9 269.004 2159.03 269.004 Q2154.26 269.004 2151.34 265.37 Q2148.43 261.736 2148.43 255.74 Q2148.43 249.722 2151.34 246.088 Q2154.26 242.453 2159.03 242.453 Q2161.9 242.453 2163.96 243.588 Q2166.02 244.722 2167.34 247.013 L2167.34 243.078 L2171.6 243.078 L2171.6 265.787 Z" fill="#000000" fill-rule="evenodd" fill-opacity="1" /><path clip-path="url(#clip200)" d="M 0 0 M2176.07 243.078 L2180.33 243.078 L2180.33 269.004 L2176.07 269.004 L2176.07 243.078 M2176.07 232.986 L2180.33 232.986 L2180.33 238.379 L2176.07 238.379 L2176.07 232.986 Z" fill="#000000" fill-rule="evenodd" fill-opacity="1" /><path clip-path="url(#clip200)" d="M 0 0 M2194.84 246.064 Q2191.41 246.064 2189.42 248.75 Q2187.43 251.412 2187.43 256.064 Q2187.43 260.717 2189.4 263.402 Q2191.39 266.064 2194.84 266.064 Q2198.24 266.064 2200.23 263.379 Q2202.22 260.694 2202.22 256.064 Q2202.22 251.458 2200.23 248.773 Q2198.24 246.064 2194.84 246.064 M2194.84 242.453 Q2200.39 242.453 2203.57 246.064 Q2206.74 249.675 2206.74 256.064 Q2206.74 262.43 2203.57 266.064 Q2200.39 269.675 2194.84 269.675 Q2189.26 269.675 2186.09 266.064 Q2182.94 262.43 2182.94 256.064 Q2182.94 249.675 2186.09 246.064 Q2189.26 242.453 2194.84 242.453 Z" fill="#000000" fill-rule="evenodd" fill-opacity="1" /><path clip-path="url(#clip200)" d="M 0 0 M2232.76 253.356 L2232.76 269.004 L2228.5 269.004 L2228.5 253.495 Q2228.5 249.814 2227.06 247.986 Q2225.63 246.157 2222.76 246.157 Q2219.31 246.157 2217.32 248.356 Q2215.33 250.555 2215.33 254.351 L2215.33 269.004 L2211.04 269.004 L2211.04 243.078 L2215.33 243.078 L2215.33 247.106 Q2216.85 244.768 2218.91 243.611 Q2221 242.453 2223.71 242.453 Q2228.17 242.453 2230.46 245.231 Q2232.76 247.986 2232.76 253.356 Z" fill="#000000" fill-rule="evenodd" fill-opacity="1" /><path clip-path="url(#clip200)" d="
M1533.86 336.396 L1677.86 336.396 L1677.86 288.012 L1533.86 288.012 L1533.86 336.396  Z
  " fill="#ffa500" fill-rule="evenodd" fill-opacity="0.5"/>
<polyline clip-path="url(#clip200)" style="stroke:#ffa500; stroke-width:4; stroke-opacity:1; fill:none" points="
  1533.86,288.012 1677.86,288.012 
  "/>
<path clip-path="url(#clip200)" d="M 0 0 M1706.25 316.544 Q1706.25 321.243 1708.18 323.929 Q1710.12 326.591 1713.5 326.591 Q1716.88 326.591 1718.82 323.929 Q1720.77 321.243 1720.77 316.544 Q1720.77 311.845 1718.82 309.183 Q1716.88 306.498 1713.5 306.498 Q1710.12 306.498 1708.18 309.183 Q1706.25 311.845 1706.25 316.544 M1720.77 325.595 Q1719.43 327.91 1717.37 329.044 Q1715.33 330.155 1712.46 330.155 Q1707.76 330.155 1704.8 326.405 Q1701.86 322.655 1701.86 316.544 Q1701.86 310.433 1704.8 306.683 Q1707.76 302.933 1712.46 302.933 Q1715.33 302.933 1717.37 304.068 Q1719.43 305.179 1720.77 307.493 L1720.77 303.558 L1725.03 303.558 L1725.03 339.345 L1720.77 339.345 L1720.77 325.595 Z" fill="#000000" fill-rule="evenodd" fill-opacity="1" /><path clip-path="url(#clip200)" d="M 0 0 M1730.24 328.767 L1730.24 324.507 Q1731.99 325.341 1733.8 325.78 Q1735.61 326.22 1737.34 326.22 Q1741.97 326.22 1744.4 323.118 Q1746.86 319.993 1747.2 313.651 Q1745.86 315.642 1743.8 316.706 Q1741.74 317.771 1739.24 317.771 Q1734.05 317.771 1731.02 314.646 Q1728.01 311.498 1728.01 306.058 Q1728.01 300.734 1731.16 297.517 Q1734.31 294.299 1739.54 294.299 Q1745.54 294.299 1748.68 298.906 Q1751.86 303.489 1751.86 312.239 Q1751.86 320.41 1747.97 325.294 Q1744.1 330.155 1737.55 330.155 Q1735.79 330.155 1733.99 329.808 Q1732.18 329.461 1730.24 328.767 M1739.54 314.114 Q1742.69 314.114 1744.52 311.961 Q1746.37 309.808 1746.37 306.058 Q1746.37 302.331 1744.52 300.179 Q1742.69 298.003 1739.54 298.003 Q1736.39 298.003 1734.54 300.179 Q1732.71 302.331 1732.71 306.058 Q1732.71 309.808 1734.54 311.961 Q1736.39 314.114 1739.54 314.114 Z" fill="#000000" fill-rule="evenodd" fill-opacity="1" /><path clip-path="url(#clip200)" d="M 0 0 M1756.97 294.924 L1775.33 294.924 L1775.33 298.859 L1761.25 298.859 L1761.25 307.331 Q1762.27 306.984 1763.29 306.822 Q1764.31 306.637 1765.33 306.637 Q1771.11 306.637 1774.49 309.808 Q1777.87 312.98 1777.87 318.396 Q1777.87 323.975 1774.4 327.077 Q1770.93 330.155 1764.61 330.155 Q1762.43 330.155 1760.17 329.785 Q1757.92 329.415 1755.51 328.674 L1755.51 323.975 Q1757.6 325.109 1759.82 325.665 Q1762.04 326.22 1764.52 326.22 Q1768.52 326.22 1770.86 324.114 Q1773.2 322.007 1773.2 318.396 Q1773.2 314.785 1770.86 312.679 Q1768.52 310.572 1764.52 310.572 Q1762.64 310.572 1760.77 310.989 Q1758.92 311.405 1756.97 312.285 L1756.97 294.924 Z" fill="#000000" fill-rule="evenodd" fill-opacity="1" /><polyline clip-path="url(#clip200)" style="stroke:#0000ff; stroke-width:4; stroke-opacity:1; fill:none" points="
  1533.86,372.684 1677.86,372.684 
  "/>
<path clip-path="url(#clip200)" d="M 0 0 M1722.2 369.015 Q1723.8 366.145 1726.02 364.779 Q1728.24 363.413 1731.25 363.413 Q1735.3 363.413 1737.5 366.261 Q1739.7 369.085 1739.7 374.316 L1739.7 389.964 L1735.42 389.964 L1735.42 374.455 Q1735.42 370.728 1734.1 368.923 Q1732.78 367.117 1730.07 367.117 Q1726.76 367.117 1724.84 369.316 Q1722.92 371.515 1722.92 375.311 L1722.92 389.964 L1718.64 389.964 L1718.64 374.455 Q1718.64 370.705 1717.32 368.923 Q1716 367.117 1713.24 367.117 Q1709.98 367.117 1708.06 369.339 Q1706.14 371.538 1706.14 375.311 L1706.14 389.964 L1701.86 389.964 L1701.86 364.038 L1706.14 364.038 L1706.14 368.066 Q1707.6 365.682 1709.63 364.548 Q1711.67 363.413 1714.47 363.413 Q1717.3 363.413 1719.26 364.848 Q1721.25 366.284 1722.2 369.015 Z" fill="#000000" fill-rule="evenodd" fill-opacity="1" /><path clip-path="url(#clip200)" d="M 0 0 M1766.35 375.936 L1766.35 378.02 L1746.76 378.02 Q1747.04 382.418 1749.4 384.733 Q1751.79 387.024 1756.02 387.024 Q1758.48 387.024 1760.77 386.422 Q1763.08 385.821 1765.35 384.617 L1765.35 388.645 Q1763.06 389.617 1760.65 390.126 Q1758.24 390.635 1755.77 390.635 Q1749.56 390.635 1745.93 387.024 Q1742.32 383.413 1742.32 377.256 Q1742.32 370.89 1745.74 367.163 Q1749.19 363.413 1755.03 363.413 Q1760.26 363.413 1763.29 366.793 Q1766.35 370.149 1766.35 375.936 M1762.09 374.686 Q1762.04 371.191 1760.12 369.108 Q1758.22 367.024 1755.07 367.024 Q1751.51 367.024 1749.36 369.038 Q1747.23 371.052 1746.9 374.71 L1762.09 374.686 Z" fill="#000000" fill-rule="evenodd" fill-opacity="1" /><path clip-path="url(#clip200)" d="M 0 0 M1782.6 376.932 Q1777.43 376.932 1775.44 378.112 Q1773.45 379.293 1773.45 382.14 Q1773.45 384.409 1774.93 385.751 Q1776.44 387.071 1779.01 387.071 Q1782.55 387.071 1784.68 384.571 Q1786.83 382.047 1786.83 377.881 L1786.83 376.932 L1782.6 376.932 M1791.09 375.173 L1791.09 389.964 L1786.83 389.964 L1786.83 386.029 Q1785.37 388.39 1783.2 389.524 Q1781.02 390.635 1777.87 390.635 Q1773.89 390.635 1771.53 388.413 Q1769.19 386.168 1769.19 382.418 Q1769.19 378.043 1772.11 375.821 Q1775.05 373.598 1780.86 373.598 L1786.83 373.598 L1786.83 373.182 Q1786.83 370.242 1784.89 368.645 Q1782.97 367.024 1779.47 367.024 Q1777.25 367.024 1775.14 367.557 Q1773.04 368.089 1771.09 369.154 L1771.09 365.219 Q1773.43 364.316 1775.63 363.876 Q1777.83 363.413 1779.91 363.413 Q1785.54 363.413 1788.31 366.33 Q1791.09 369.247 1791.09 375.173 Z" fill="#000000" fill-rule="evenodd" fill-opacity="1" /><path clip-path="url(#clip200)" d="M 0 0 M1817.11 374.316 L1817.11 389.964 L1812.85 389.964 L1812.85 374.455 Q1812.85 370.774 1811.42 368.946 Q1809.98 367.117 1807.11 367.117 Q1803.66 367.117 1801.67 369.316 Q1799.68 371.515 1799.68 375.311 L1799.68 389.964 L1795.4 389.964 L1795.4 364.038 L1799.68 364.038 L1799.68 368.066 Q1801.21 365.728 1803.27 364.571 Q1805.35 363.413 1808.06 363.413 Q1812.53 363.413 1814.82 366.191 Q1817.11 368.946 1817.11 374.316 Z" fill="#000000" fill-rule="evenodd" fill-opacity="1" /><polyline clip-path="url(#clip200)" style="stroke:#000000; stroke-width:4; stroke-opacity:1; fill:none" points="
  1533.86,433.164 1677.86,433.164 
  "/>
<path clip-path="url(#clip200)" d="M 0 0 M1722.2 429.495 Q1723.8 426.625 1726.02 425.259 Q1728.24 423.893 1731.25 423.893 Q1735.3 423.893 1737.5 426.741 Q1739.7 429.565 1739.7 434.796 L1739.7 450.444 L1735.42 450.444 L1735.42 434.935 Q1735.42 431.208 1734.1 429.403 Q1732.78 427.597 1730.07 427.597 Q1726.76 427.597 1724.84 429.796 Q1722.92 431.995 1722.92 435.791 L1722.92 450.444 L1718.64 450.444 L1718.64 434.935 Q1718.64 431.185 1717.32 429.403 Q1716 427.597 1713.24 427.597 Q1709.98 427.597 1708.06 429.819 Q1706.14 432.018 1706.14 435.791 L1706.14 450.444 L1701.86 450.444 L1701.86 424.518 L1706.14 424.518 L1706.14 428.546 Q1707.6 426.162 1709.63 425.028 Q1711.67 423.893 1714.47 423.893 Q1717.3 423.893 1719.26 425.328 Q1721.25 426.764 1722.2 429.495 Z" fill="#000000" fill-rule="evenodd" fill-opacity="1" /><path clip-path="url(#clip200)" d="M 0 0 M1766.35 436.416 L1766.35 438.5 L1746.76 438.5 Q1747.04 442.898 1749.4 445.213 Q1751.79 447.504 1756.02 447.504 Q1758.48 447.504 1760.77 446.902 Q1763.08 446.301 1765.35 445.097 L1765.35 449.125 Q1763.06 450.097 1760.65 450.606 Q1758.24 451.115 1755.77 451.115 Q1749.56 451.115 1745.93 447.504 Q1742.32 443.893 1742.32 437.736 Q1742.32 431.37 1745.74 427.643 Q1749.19 423.893 1755.03 423.893 Q1760.26 423.893 1763.29 427.273 Q1766.35 430.629 1766.35 436.416 M1762.09 435.166 Q1762.04 431.671 1760.12 429.588 Q1758.22 427.504 1755.07 427.504 Q1751.51 427.504 1749.36 429.518 Q1747.23 431.532 1746.9 435.19 L1762.09 435.166 Z" fill="#000000" fill-rule="evenodd" fill-opacity="1" /><path clip-path="url(#clip200)" d="M 0 0 M1787.87 428.453 L1787.87 414.426 L1792.13 414.426 L1792.13 450.444 L1787.87 450.444 L1787.87 446.555 Q1786.53 448.87 1784.47 450.004 Q1782.43 451.115 1779.56 451.115 Q1774.86 451.115 1771.9 447.365 Q1768.96 443.615 1768.96 437.504 Q1768.96 431.393 1771.9 427.643 Q1774.86 423.893 1779.56 423.893 Q1782.43 423.893 1784.47 425.028 Q1786.53 426.139 1787.87 428.453 M1773.36 437.504 Q1773.36 442.203 1775.28 444.889 Q1777.23 447.551 1780.61 447.551 Q1783.99 447.551 1785.93 444.889 Q1787.87 442.203 1787.87 437.504 Q1787.87 432.805 1785.93 430.143 Q1783.99 427.458 1780.61 427.458 Q1777.23 427.458 1775.28 430.143 Q1773.36 432.805 1773.36 437.504 Z" fill="#000000" fill-rule="evenodd" fill-opacity="1" /><path clip-path="url(#clip200)" d="M 0 0 M1796.6 424.518 L1800.86 424.518 L1800.86 450.444 L1796.6 450.444 L1796.6 424.518 M1796.6 414.426 L1800.86 414.426 L1800.86 419.819 L1796.6 419.819 L1796.6 414.426 Z" fill="#000000" fill-rule="evenodd" fill-opacity="1" /><path clip-path="url(#clip200)" d="M 0 0 M1817.11 437.412 Q1811.95 437.412 1809.96 438.592 Q1807.97 439.773 1807.97 442.62 Q1807.97 444.889 1809.45 446.231 Q1810.95 447.551 1813.52 447.551 Q1817.06 447.551 1819.19 445.051 Q1821.35 442.527 1821.35 438.361 L1821.35 437.412 L1817.11 437.412 M1825.61 435.653 L1825.61 450.444 L1821.35 450.444 L1821.35 446.509 Q1819.89 448.87 1817.71 450.004 Q1815.54 451.115 1812.39 451.115 Q1808.41 451.115 1806.05 448.893 Q1803.71 446.648 1803.71 442.898 Q1803.71 438.523 1806.62 436.301 Q1809.56 434.078 1815.37 434.078 L1821.35 434.078 L1821.35 433.662 Q1821.35 430.722 1819.4 429.125 Q1817.48 427.504 1813.99 427.504 Q1811.76 427.504 1809.66 428.037 Q1807.55 428.569 1805.61 429.634 L1805.61 425.699 Q1807.94 424.796 1810.14 424.356 Q1812.34 423.893 1814.42 423.893 Q1820.05 423.893 1822.83 426.81 Q1825.61 429.727 1825.61 435.653 Z" fill="#000000" fill-rule="evenodd" fill-opacity="1" /><path clip-path="url(#clip200)" d="M 0 0 M1851.62 434.796 L1851.62 450.444 L1847.36 450.444 L1847.36 434.935 Q1847.36 431.254 1845.93 429.426 Q1844.49 427.597 1841.62 427.597 Q1838.17 427.597 1836.18 429.796 Q1834.19 431.995 1834.19 435.791 L1834.19 450.444 L1829.91 450.444 L1829.91 424.518 L1834.19 424.518 L1834.19 428.546 Q1835.72 426.208 1837.78 425.051 Q1839.86 423.893 1842.57 423.893 Q1847.04 423.893 1849.33 426.671 Q1851.62 429.426 1851.62 434.796 Z" fill="#000000" fill-rule="evenodd" fill-opacity="1" /></svg>
