<?xml version="1.0" encoding="utf-8"?>
<svg xmlns="http://www.w3.org/2000/svg" xmlns:xlink="http://www.w3.org/1999/xlink" width="600" height="400" viewBox="0 0 2400 1600">
<defs>
  <clipPath id="clip110">
    <rect x="0" y="0" width="2400" height="1600"/>
  </clipPath>
</defs>
<path clip-path="url(#clip110)" d="
M0 1600 L2400 1600 L2400 0 L0 0  Z
  " fill="#ffffff" fill-rule="evenodd" fill-opacity="1"/>
<defs>
  <clipPath id="clip111">
    <rect x="480" y="0" width="1681" height="1600"/>
  </clipPath>
</defs>
<path clip-path="url(#clip110)" d="
M86.9921 1521.01 L2352.76 1521.01 L2352.76 47.2441 L86.9921 47.2441  Z
  " fill="#ffffff" fill-rule="evenodd" fill-opacity="1"/>
<defs>
  <clipPath id="clip112">
    <rect x="86" y="47" width="2267" height="1475"/>
  </clipPath>
</defs>
<polyline clip-path="url(#clip112)" style="stroke:#000000; stroke-width:2; stroke-opacity:0.1; fill:none" points="
  102.656,1521.01 102.656,47.2441 
  "/>
<polyline clip-path="url(#clip112)" style="stroke:#000000; stroke-width:2; stroke-opacity:0.1; fill:none" points="
  531.092,1521.01 531.092,47.2441 
  "/>
<polyline clip-path="url(#clip112)" style="stroke:#000000; stroke-width:2; stroke-opacity:0.1; fill:none" points="
  959.528,1521.01 959.528,47.2441 
  "/>
<polyline clip-path="url(#clip112)" style="stroke:#000000; stroke-width:2; stroke-opacity:0.1; fill:none" points="
  1387.96,1521.01 1387.96,47.2441 
  "/>
<polyline clip-path="url(#clip112)" style="stroke:#000000; stroke-width:2; stroke-opacity:0.1; fill:none" points="
  1816.4,1521.01 1816.4,47.2441 
  "/>
<polyline clip-path="url(#clip112)" style="stroke:#000000; stroke-width:2; stroke-opacity:0.1; fill:none" points="
  2244.84,1521.01 2244.84,47.2441 
  "/>
<polyline clip-path="url(#clip112)" style="stroke:#000000; stroke-width:2; stroke-opacity:0.1; fill:none" points="
  86.9921,1479.3 2352.76,1479.3 
  "/>
<polyline clip-path="url(#clip112)" style="stroke:#000000; stroke-width:2; stroke-opacity:0.1; fill:none" points="
  86.9921,1142.85 2352.76,1142.85 
  "/>
<polyline clip-path="url(#clip112)" style="stroke:#000000; stroke-width:2; stroke-opacity:0.1; fill:none" points="
  86.9921,806.409 2352.76,806.409 
  "/>
<polyline clip-path="url(#clip112)" style="stroke:#000000; stroke-width:2; stroke-opacity:0.1; fill:none" points="
  86.9921,469.964 2352.76,469.964 
  "/>
<polyline clip-path="url(#clip112)" style="stroke:#000000; stroke-width:2; stroke-opacity:0.1; fill:none" points="
  86.9921,133.52 2352.76,133.52 
  "/>
<polyline clip-path="url(#clip110)" style="stroke:#000000; stroke-width:4; stroke-opacity:1; fill:none" points="
  86.9921,1521.01 2352.76,1521.01 
  "/>
<polyline clip-path="url(#clip110)" style="stroke:#000000; stroke-width:4; stroke-opacity:1; fill:none" points="
  86.9921,1521.01 86.9921,47.2441 
  "/>
<polyline clip-path="url(#clip110)" style="stroke:#000000; stroke-width:4; stroke-opacity:1; fill:none" points="
  102.656,1521.01 102.656,1503.32 
  "/>
<polyline clip-path="url(#clip110)" style="stroke:#000000; stroke-width:4; stroke-opacity:1; fill:none" points="
  531.092,1521.01 531.092,1503.32 
  "/>
<polyline clip-path="url(#clip110)" style="stroke:#000000; stroke-width:4; stroke-opacity:1; fill:none" points="
  959.528,1521.01 959.528,1503.32 
  "/>
<polyline clip-path="url(#clip110)" style="stroke:#000000; stroke-width:4; stroke-opacity:1; fill:none" points="
  1387.96,1521.01 1387.96,1503.32 
  "/>
<polyline clip-path="url(#clip110)" style="stroke:#000000; stroke-width:4; stroke-opacity:1; fill:none" points="
  1816.4,1521.01 1816.4,1503.32 
  "/>
<polyline clip-path="url(#clip110)" style="stroke:#000000; stroke-width:4; stroke-opacity:1; fill:none" points="
  2244.84,1521.01 2244.84,1503.32 
  "/>
<polyline clip-path="url(#clip110)" style="stroke:#000000; stroke-width:4; stroke-opacity:1; fill:none" points="
  86.9921,1479.3 114.181,1479.3 
  "/>
<polyline clip-path="url(#clip110)" style="stroke:#000000; stroke-width:4; stroke-opacity:1; fill:none" points="
  86.9921,1142.85 114.181,1142.85 
  "/>
<polyline clip-path="url(#clip110)" style="stroke:#000000; stroke-width:4; stroke-opacity:1; fill:none" points="
  86.9921,806.409 114.181,806.409 
  "/>
<polyline clip-path="url(#clip110)" style="stroke:#000000; stroke-width:4; stroke-opacity:1; fill:none" points="
  86.9921,469.964 114.181,469.964 
  "/>
<polyline clip-path="url(#clip110)" style="stroke:#000000; stroke-width:4; stroke-opacity:1; fill:none" points="
  86.9921,133.52 114.181,133.52 
  "/>
<path clip-path="url(#clip110)" d="M 0 0 M71.2097 1543 Q67.5986 1543 65.7699 1546.56 Q63.9643 1550.11 63.9643 1557.23 Q63.9643 1564.34 65.7699 1567.91 Q67.5986 1571.45 71.2097 1571.45 Q74.8439 1571.45 76.6495 1567.91 Q78.4782 1564.34 78.4782 1557.23 Q78.4782 1550.11 76.6495 1546.56 Q74.8439 1543 71.2097 1543 M71.2097 1539.29 Q77.0198 1539.29 80.0754 1543.9 Q83.1541 1548.48 83.1541 1557.23 Q83.1541 1565.96 80.0754 1570.57 Q77.0198 1575.15 71.2097 1575.15 Q65.3995 1575.15 62.3208 1570.57 Q59.2653 1565.96 59.2653 1557.23 Q59.2653 1548.48 62.3208 1543.9 Q65.3995 1539.29 71.2097 1539.29 Z" fill="#000000" fill-rule="evenodd" fill-opacity="1" /><path clip-path="url(#clip110)" d="M 0 0 M88.2235 1568.6 L93.1077 1568.6 L93.1077 1574.48 L88.2235 1574.48 L88.2235 1568.6 Z" fill="#000000" fill-rule="evenodd" fill-opacity="1" /><path clip-path="url(#clip110)" d="M 0 0 M108.177 1558.07 Q104.844 1558.07 102.922 1559.85 Q101.024 1561.63 101.024 1564.76 Q101.024 1567.88 102.922 1569.67 Q104.844 1571.45 108.177 1571.45 Q111.51 1571.45 113.432 1569.67 Q115.353 1567.86 115.353 1564.76 Q115.353 1561.63 113.432 1559.85 Q111.534 1558.07 108.177 1558.07 M103.501 1556.08 Q100.492 1555.34 98.8021 1553.28 Q97.1355 1551.22 97.1355 1548.25 Q97.1355 1544.11 100.075 1541.7 Q103.038 1539.29 108.177 1539.29 Q113.339 1539.29 116.279 1541.7 Q119.219 1544.11 119.219 1548.25 Q119.219 1551.22 117.529 1553.28 Q115.862 1555.34 112.876 1556.08 Q116.256 1556.86 118.131 1559.16 Q120.029 1561.45 120.029 1564.76 Q120.029 1569.78 116.95 1572.47 Q113.895 1575.15 108.177 1575.15 Q102.46 1575.15 99.3808 1572.47 Q96.3253 1569.78 96.3253 1564.76 Q96.3253 1561.45 98.2234 1559.16 Q100.122 1556.86 103.501 1556.08 M101.788 1548.69 Q101.788 1551.38 103.455 1552.88 Q105.145 1554.39 108.177 1554.39 Q111.186 1554.39 112.876 1552.88 Q114.589 1551.38 114.589 1548.69 Q114.589 1546.01 112.876 1544.5 Q111.186 1543 108.177 1543 Q105.145 1543 103.455 1544.5 Q101.788 1546.01 101.788 1548.69 Z" fill="#000000" fill-rule="evenodd" fill-opacity="1" /><path clip-path="url(#clip110)" d="M 0 0 M125.145 1539.92 L143.501 1539.92 L143.501 1543.86 L129.427 1543.86 L129.427 1552.33 Q130.445 1551.98 131.464 1551.82 Q132.483 1551.63 133.501 1551.63 Q139.288 1551.63 142.668 1554.8 Q146.047 1557.98 146.047 1563.39 Q146.047 1568.97 142.575 1572.07 Q139.103 1575.15 132.783 1575.15 Q130.608 1575.15 128.339 1574.78 Q126.094 1574.41 123.686 1573.67 L123.686 1568.97 Q125.77 1570.1 127.992 1570.66 Q130.214 1571.22 132.691 1571.22 Q136.695 1571.22 139.033 1569.11 Q141.371 1567 141.371 1563.39 Q141.371 1559.78 139.033 1557.67 Q136.695 1555.57 132.691 1555.57 Q130.816 1555.57 128.941 1555.98 Q127.089 1556.4 125.145 1557.28 L125.145 1539.92 Z" fill="#000000" fill-rule="evenodd" fill-opacity="1" /><path clip-path="url(#clip110)" d="M 0 0 M499.194 1543 Q495.583 1543 493.755 1546.56 Q491.949 1550.11 491.949 1557.23 Q491.949 1564.34 493.755 1567.91 Q495.583 1571.45 499.194 1571.45 Q502.829 1571.45 504.634 1567.91 Q506.463 1564.34 506.463 1557.23 Q506.463 1550.11 504.634 1546.56 Q502.829 1543 499.194 1543 M499.194 1539.29 Q505.004 1539.29 508.06 1543.9 Q511.139 1548.48 511.139 1557.23 Q511.139 1565.96 508.06 1570.57 Q505.004 1575.15 499.194 1575.15 Q493.384 1575.15 490.305 1570.57 Q487.25 1565.96 487.25 1557.23 Q487.25 1548.48 490.305 1543.9 Q493.384 1539.29 499.194 1539.29 Z" fill="#000000" fill-rule="evenodd" fill-opacity="1" /><path clip-path="url(#clip110)" d="M 0 0 M516.208 1568.6 L521.092 1568.6 L521.092 1574.48 L516.208 1574.48 L516.208 1568.6 Z" fill="#000000" fill-rule="evenodd" fill-opacity="1" /><path clip-path="url(#clip110)" d="M 0 0 M526.301 1573.76 L526.301 1569.5 Q528.06 1570.34 529.865 1570.78 Q531.671 1571.22 533.407 1571.22 Q538.037 1571.22 540.467 1568.11 Q542.921 1564.99 543.268 1558.65 Q541.926 1560.64 539.865 1561.7 Q537.805 1562.77 535.305 1562.77 Q530.12 1562.77 527.088 1559.64 Q524.078 1556.49 524.078 1551.05 Q524.078 1545.73 527.227 1542.51 Q530.375 1539.29 535.606 1539.29 Q541.601 1539.29 544.75 1543.9 Q547.921 1548.48 547.921 1557.23 Q547.921 1565.41 544.032 1570.29 Q540.166 1575.15 533.615 1575.15 Q531.856 1575.15 530.051 1574.8 Q528.245 1574.46 526.301 1573.76 M535.606 1559.11 Q538.754 1559.11 540.583 1556.96 Q542.435 1554.8 542.435 1551.05 Q542.435 1547.33 540.583 1545.17 Q538.754 1543 535.606 1543 Q532.458 1543 530.606 1545.17 Q528.777 1547.33 528.777 1551.05 Q528.777 1554.8 530.606 1556.96 Q532.458 1559.11 535.606 1559.11 Z" fill="#000000" fill-rule="evenodd" fill-opacity="1" /><path clip-path="url(#clip110)" d="M 0 0 M562.99 1543 Q559.379 1543 557.55 1546.56 Q555.745 1550.11 555.745 1557.23 Q555.745 1564.34 557.55 1567.91 Q559.379 1571.45 562.99 1571.45 Q566.625 1571.45 568.43 1567.91 Q570.259 1564.34 570.259 1557.23 Q570.259 1550.11 568.43 1546.56 Q566.625 1543 562.99 1543 M562.99 1539.29 Q568.8 1539.29 571.856 1543.9 Q574.935 1548.48 574.935 1557.23 Q574.935 1565.96 571.856 1570.57 Q568.8 1575.15 562.99 1575.15 Q557.18 1575.15 554.101 1570.57 Q551.046 1565.96 551.046 1557.23 Q551.046 1548.48 554.101 1543.9 Q557.18 1539.29 562.99 1539.29 Z" fill="#000000" fill-rule="evenodd" fill-opacity="1" /><path clip-path="url(#clip110)" d="M 0 0 M928.128 1543 Q924.517 1543 922.688 1546.56 Q920.883 1550.11 920.883 1557.23 Q920.883 1564.34 922.688 1567.91 Q924.517 1571.45 928.128 1571.45 Q931.762 1571.45 933.568 1567.91 Q935.396 1564.34 935.396 1557.23 Q935.396 1550.11 933.568 1546.56 Q931.762 1543 928.128 1543 M928.128 1539.29 Q933.938 1539.29 936.994 1543.9 Q940.072 1548.48 940.072 1557.23 Q940.072 1565.96 936.994 1570.57 Q933.938 1575.15 928.128 1575.15 Q922.318 1575.15 919.239 1570.57 Q916.184 1565.96 916.184 1557.23 Q916.184 1548.48 919.239 1543.9 Q922.318 1539.29 928.128 1539.29 Z" fill="#000000" fill-rule="evenodd" fill-opacity="1" /><path clip-path="url(#clip110)" d="M 0 0 M945.142 1568.6 L950.026 1568.6 L950.026 1574.48 L945.142 1574.48 L945.142 1568.6 Z" fill="#000000" fill-rule="evenodd" fill-opacity="1" /><path clip-path="url(#clip110)" d="M 0 0 M955.234 1573.76 L955.234 1569.5 Q956.994 1570.34 958.799 1570.78 Q960.605 1571.22 962.341 1571.22 Q966.97 1571.22 969.401 1568.11 Q971.855 1564.99 972.202 1558.65 Q970.859 1560.64 968.799 1561.7 Q966.739 1562.77 964.239 1562.77 Q959.054 1562.77 956.021 1559.64 Q953.012 1556.49 953.012 1551.05 Q953.012 1545.73 956.16 1542.51 Q959.308 1539.29 964.54 1539.29 Q970.535 1539.29 973.683 1543.9 Q976.855 1548.48 976.855 1557.23 Q976.855 1565.41 972.966 1570.29 Q969.1 1575.15 962.549 1575.15 Q960.79 1575.15 958.984 1574.8 Q957.179 1574.46 955.234 1573.76 M964.54 1559.11 Q967.688 1559.11 969.517 1556.96 Q971.369 1554.8 971.369 1551.05 Q971.369 1547.33 969.517 1545.17 Q967.688 1543 964.54 1543 Q961.392 1543 959.54 1545.17 Q957.711 1547.33 957.711 1551.05 Q957.711 1554.8 959.54 1556.96 Q961.392 1559.11 964.54 1559.11 Z" fill="#000000" fill-rule="evenodd" fill-opacity="1" /><path clip-path="url(#clip110)" d="M 0 0 M981.97 1539.92 L1000.33 1539.92 L1000.33 1543.86 L986.253 1543.86 L986.253 1552.33 Q987.271 1551.98 988.29 1551.82 Q989.308 1551.63 990.327 1551.63 Q996.114 1551.63 999.493 1554.8 Q1002.87 1557.98 1002.87 1563.39 Q1002.87 1568.97 999.401 1572.07 Q995.929 1575.15 989.609 1575.15 Q987.433 1575.15 985.165 1574.78 Q982.919 1574.41 980.512 1573.67 L980.512 1568.97 Q982.595 1570.1 984.818 1570.66 Q987.04 1571.22 989.517 1571.22 Q993.521 1571.22 995.859 1569.11 Q998.197 1567 998.197 1563.39 Q998.197 1559.78 995.859 1557.67 Q993.521 1555.57 989.517 1555.57 Q987.642 1555.57 985.767 1555.98 Q983.915 1556.4 981.97 1557.28 L981.97 1539.92 Z" fill="#000000" fill-rule="evenodd" fill-opacity="1" /><path clip-path="url(#clip110)" d="M 0 0 M1346.36 1570.54 L1353.99 1570.54 L1353.99 1544.18 L1345.68 1545.85 L1345.68 1541.59 L1353.95 1539.92 L1358.62 1539.92 L1358.62 1570.54 L1366.26 1570.54 L1366.26 1574.48 L1346.36 1574.48 L1346.36 1570.54 Z" fill="#000000" fill-rule="evenodd" fill-opacity="1" /><path clip-path="url(#clip110)" d="M 0 0 M1371.33 1568.6 L1376.22 1568.6 L1376.22 1574.48 L1371.33 1574.48 L1371.33 1568.6 Z" fill="#000000" fill-rule="evenodd" fill-opacity="1" /><path clip-path="url(#clip110)" d="M 0 0 M1391.29 1543 Q1387.67 1543 1385.85 1546.56 Q1384.04 1550.11 1384.04 1557.23 Q1384.04 1564.34 1385.85 1567.91 Q1387.67 1571.45 1391.29 1571.45 Q1394.92 1571.45 1396.73 1567.91 Q1398.55 1564.34 1398.55 1557.23 Q1398.55 1550.11 1396.73 1546.56 Q1394.92 1543 1391.29 1543 M1391.29 1539.29 Q1397.1 1539.29 1400.15 1543.9 Q1403.23 1548.48 1403.23 1557.23 Q1403.23 1565.96 1400.15 1570.57 Q1397.1 1575.15 1391.29 1575.15 Q1385.48 1575.15 1382.4 1570.57 Q1379.34 1565.96 1379.34 1557.23 Q1379.34 1548.48 1382.4 1543.9 Q1385.48 1539.29 1391.29 1539.29 Z" fill="#000000" fill-rule="evenodd" fill-opacity="1" /><path clip-path="url(#clip110)" d="M 0 0 M1418.3 1543 Q1414.69 1543 1412.86 1546.56 Q1411.05 1550.11 1411.05 1557.23 Q1411.05 1564.34 1412.86 1567.91 Q1414.69 1571.45 1418.3 1571.45 Q1421.93 1571.45 1423.74 1567.91 Q1425.57 1564.34 1425.57 1557.23 Q1425.57 1550.11 1423.74 1546.56 Q1421.93 1543 1418.3 1543 M1418.3 1539.29 Q1424.11 1539.29 1427.17 1543.9 Q1430.24 1548.48 1430.24 1557.23 Q1430.24 1565.96 1427.17 1570.57 Q1424.11 1575.15 1418.3 1575.15 Q1412.49 1575.15 1409.41 1570.57 Q1406.36 1565.96 1406.36 1557.23 Q1406.36 1548.48 1409.41 1543.9 Q1412.49 1539.29 1418.3 1539.29 Z" fill="#000000" fill-rule="evenodd" fill-opacity="1" /><path clip-path="url(#clip110)" d="M 0 0 M1775.29 1570.54 L1782.93 1570.54 L1782.93 1544.18 L1774.62 1545.85 L1774.62 1541.59 L1782.88 1539.92 L1787.56 1539.92 L1787.56 1570.54 L1795.2 1570.54 L1795.2 1574.48 L1775.29 1574.48 L1775.29 1570.54 Z" fill="#000000" fill-rule="evenodd" fill-opacity="1" /><path clip-path="url(#clip110)" d="M 0 0 M1800.27 1568.6 L1805.15 1568.6 L1805.15 1574.48 L1800.27 1574.48 L1800.27 1568.6 Z" fill="#000000" fill-rule="evenodd" fill-opacity="1" /><path clip-path="url(#clip110)" d="M 0 0 M1820.22 1543 Q1816.61 1543 1814.78 1546.56 Q1812.97 1550.11 1812.97 1557.23 Q1812.97 1564.34 1814.78 1567.91 Q1816.61 1571.45 1820.22 1571.45 Q1823.85 1571.45 1825.66 1567.91 Q1827.49 1564.34 1827.49 1557.23 Q1827.49 1550.11 1825.66 1546.56 Q1823.85 1543 1820.22 1543 M1820.22 1539.29 Q1826.03 1539.29 1829.09 1543.9 Q1832.16 1548.48 1832.16 1557.23 Q1832.16 1565.96 1829.09 1570.57 Q1826.03 1575.15 1820.22 1575.15 Q1814.41 1575.15 1811.33 1570.57 Q1808.28 1565.96 1808.28 1557.23 Q1808.28 1548.48 1811.33 1543.9 Q1814.41 1539.29 1820.22 1539.29 Z" fill="#000000" fill-rule="evenodd" fill-opacity="1" /><path clip-path="url(#clip110)" d="M 0 0 M1837.28 1539.92 L1855.64 1539.92 L1855.64 1543.86 L1841.56 1543.86 L1841.56 1552.33 Q1842.58 1551.98 1843.6 1551.82 Q1844.62 1551.63 1845.64 1551.63 Q1851.42 1551.63 1854.8 1554.8 Q1858.18 1557.98 1858.18 1563.39 Q1858.18 1568.97 1854.71 1572.07 Q1851.24 1575.15 1844.92 1575.15 Q1842.74 1575.15 1840.47 1574.78 Q1838.23 1574.41 1835.82 1573.67 L1835.82 1568.97 Q1837.9 1570.1 1840.13 1570.66 Q1842.35 1571.22 1844.83 1571.22 Q1848.83 1571.22 1851.17 1569.11 Q1853.51 1567 1853.51 1563.39 Q1853.51 1559.78 1851.17 1557.67 Q1848.83 1555.57 1844.83 1555.57 Q1842.95 1555.57 1841.08 1555.98 Q1839.22 1556.4 1837.28 1557.28 L1837.28 1539.92 Z" fill="#000000" fill-rule="evenodd" fill-opacity="1" /><path clip-path="url(#clip110)" d="M 0 0 M2203.84 1570.54 L2211.48 1570.54 L2211.48 1544.18 L2203.17 1545.85 L2203.17 1541.59 L2211.43 1539.92 L2216.11 1539.92 L2216.11 1570.54 L2223.75 1570.54 L2223.75 1574.48 L2203.84 1574.48 L2203.84 1570.54 Z" fill="#000000" fill-rule="evenodd" fill-opacity="1" /><path clip-path="url(#clip110)" d="M 0 0 M2228.82 1568.6 L2233.7 1568.6 L2233.7 1574.48 L2228.82 1574.48 L2228.82 1568.6 Z" fill="#000000" fill-rule="evenodd" fill-opacity="1" /><path clip-path="url(#clip110)" d="M 0 0 M2239.58 1570.54 L2247.22 1570.54 L2247.22 1544.18 L2238.91 1545.85 L2238.91 1541.59 L2247.17 1539.92 L2251.85 1539.92 L2251.85 1570.54 L2259.49 1570.54 L2259.49 1574.48 L2239.58 1574.48 L2239.58 1570.54 Z" fill="#000000" fill-rule="evenodd" fill-opacity="1" /><path clip-path="url(#clip110)" d="M 0 0 M2274.56 1543 Q2270.95 1543 2269.12 1546.56 Q2267.31 1550.11 2267.31 1557.23 Q2267.31 1564.34 2269.12 1567.91 Q2270.95 1571.45 2274.56 1571.45 Q2278.19 1571.45 2280 1567.91 Q2281.83 1564.34 2281.83 1557.23 Q2281.83 1550.11 2280 1546.56 Q2278.19 1543 2274.56 1543 M2274.56 1539.29 Q2280.37 1539.29 2283.42 1543.9 Q2286.5 1548.48 2286.5 1557.23 Q2286.5 1565.96 2283.42 1570.57 Q2280.37 1575.15 2274.56 1575.15 Q2268.75 1575.15 2265.67 1570.57 Q2262.61 1565.96 2262.61 1557.23 Q2262.61 1548.48 2265.67 1543.9 Q2268.75 1539.29 2274.56 1539.29 Z" fill="#000000" fill-rule="evenodd" fill-opacity="1" /><path clip-path="url(#clip110)" d="M 0 0 M14.0804 1465.1 Q10.4693 1465.1 8.64057 1468.66 Q6.83502 1472.2 6.83502 1479.33 Q6.83502 1486.44 8.64057 1490 Q10.4693 1493.55 14.0804 1493.55 Q17.7146 1493.55 19.5201 1490 Q21.3488 1486.44 21.3488 1479.33 Q21.3488 1472.2 19.5201 1468.66 Q17.7146 1465.1 14.0804 1465.1 M14.0804 1461.39 Q19.8905 1461.39 22.946 1466 Q26.0247 1470.58 26.0247 1479.33 Q26.0247 1488.06 22.946 1492.67 Q19.8905 1497.25 14.0804 1497.25 Q8.2702 1497.25 5.19151 1492.67 Q2.13597 1488.06 2.13597 1479.33 Q2.13597 1470.58 5.19151 1466 Q8.2702 1461.39 14.0804 1461.39 Z" fill="#000000" fill-rule="evenodd" fill-opacity="1" /><path clip-path="url(#clip110)" d="M 0 0 M31.0941 1490.7 L35.9784 1490.7 L35.9784 1496.58 L31.0941 1496.58 L31.0941 1490.7 Z" fill="#000000" fill-rule="evenodd" fill-opacity="1" /><path clip-path="url(#clip110)" d="M 0 0 M51.0477 1465.1 Q47.4367 1465.1 45.608 1468.66 Q43.8024 1472.2 43.8024 1479.33 Q43.8024 1486.44 45.608 1490 Q47.4367 1493.55 51.0477 1493.55 Q54.682 1493.55 56.4875 1490 Q58.3162 1486.44 58.3162 1479.33 Q58.3162 1472.2 56.4875 1468.66 Q54.682 1465.1 51.0477 1465.1 M51.0477 1461.39 Q56.8579 1461.39 59.9134 1466 Q62.9921 1470.58 62.9921 1479.33 Q62.9921 1488.06 59.9134 1492.67 Q56.8579 1497.25 51.0477 1497.25 Q45.2376 1497.25 42.1589 1492.67 Q39.1034 1488.06 39.1034 1479.33 Q39.1034 1470.58 42.1589 1466 Q45.2376 1461.39 51.0477 1461.39 Z" fill="#000000" fill-rule="evenodd" fill-opacity="1" /><path clip-path="url(#clip110)" d="M 0 0 M10.7007 1156.2 L27.0201 1156.2 L27.0201 1160.13 L5.07577 1160.13 L5.07577 1156.2 Q7.73779 1153.44 12.3211 1148.81 Q16.9276 1144.16 18.1081 1142.82 Q20.3535 1140.3 21.2331 1138.56 Q22.1359 1136.8 22.1359 1135.11 Q22.1359 1132.36 20.1914 1130.62 Q18.2701 1128.88 15.1683 1128.88 Q12.9692 1128.88 10.5156 1129.65 Q8.08501 1130.41 5.30725 1131.96 L5.30725 1127.24 Q8.13131 1126.11 10.585 1125.53 Q13.0387 1124.95 15.0757 1124.95 Q20.4461 1124.95 23.6405 1127.63 Q26.8349 1130.32 26.8349 1134.81 Q26.8349 1136.94 26.0247 1138.86 Q25.2377 1140.76 23.1312 1143.35 Q22.5525 1144.02 19.4507 1147.24 Q16.3489 1150.43 10.7007 1156.2 Z" fill="#000000" fill-rule="evenodd" fill-opacity="1" /><path clip-path="url(#clip110)" d="M 0 0 M32.0895 1154.25 L36.9737 1154.25 L36.9737 1160.13 L32.0895 1160.13 L32.0895 1154.25 Z" fill="#000000" fill-rule="evenodd" fill-opacity="1" /><path clip-path="url(#clip110)" d="M 0 0 M42.0895 1125.57 L60.4458 1125.57 L60.4458 1129.51 L46.3718 1129.51 L46.3718 1137.98 Q47.3904 1137.63 48.4089 1137.47 Q49.4274 1137.29 50.4459 1137.29 Q56.2329 1137.29 59.6125 1140.46 Q62.9921 1143.63 62.9921 1149.05 Q62.9921 1154.62 59.5199 1157.73 Q56.0477 1160.8 49.7283 1160.8 Q47.5524 1160.8 45.2839 1160.43 Q43.0385 1160.06 40.6311 1159.32 L40.6311 1154.62 Q42.7145 1155.76 44.9367 1156.31 Q47.1589 1156.87 49.6357 1156.87 Q53.6403 1156.87 55.9783 1154.76 Q58.3162 1152.66 58.3162 1149.05 Q58.3162 1145.43 55.9783 1143.33 Q53.6403 1141.22 49.6357 1141.22 Q47.7607 1141.22 45.8857 1141.64 Q44.0339 1142.05 42.0895 1142.93 L42.0895 1125.57 Z" fill="#000000" fill-rule="evenodd" fill-opacity="1" /><path clip-path="url(#clip110)" d="M 0 0 M5.12207 789.129 L23.4784 789.129 L23.4784 793.064 L9.40445 793.064 L9.40445 801.536 Q10.423 801.189 11.4415 801.027 Q12.46 800.842 13.4785 800.842 Q19.2655 800.842 22.6451 804.013 Q26.0247 807.184 26.0247 812.601 Q26.0247 818.18 22.5525 821.281 Q19.0803 824.36 12.7609 824.36 Q10.585 824.36 8.31649 823.99 Q6.07113 823.619 3.66374 822.879 L3.66374 818.18 Q5.74706 819.314 7.96927 819.869 Q10.1915 820.425 12.6683 820.425 Q16.6729 820.425 19.0109 818.318 Q21.3488 816.212 21.3488 812.601 Q21.3488 808.99 19.0109 806.883 Q16.6729 804.777 12.6683 804.777 Q10.7933 804.777 8.91834 805.194 Q7.0665 805.61 5.12207 806.49 L5.12207 789.129 Z" fill="#000000" fill-rule="evenodd" fill-opacity="1" /><path clip-path="url(#clip110)" d="M 0 0 M31.0941 817.809 L35.9784 817.809 L35.9784 823.689 L31.0941 823.689 L31.0941 817.809 Z" fill="#000000" fill-rule="evenodd" fill-opacity="1" /><path clip-path="url(#clip110)" d="M 0 0 M51.0477 792.208 Q47.4367 792.208 45.608 795.772 Q43.8024 799.314 43.8024 806.444 Q43.8024 813.55 45.608 817.115 Q47.4367 820.656 51.0477 820.656 Q54.682 820.656 56.4875 817.115 Q58.3162 813.55 58.3162 806.444 Q58.3162 799.314 56.4875 795.772 Q54.682 792.208 51.0477 792.208 M51.0477 788.504 Q56.8579 788.504 59.9134 793.11 Q62.9921 797.694 62.9921 806.444 Q62.9921 815.17 59.9134 819.777 Q56.8579 824.36 51.0477 824.36 Q45.2376 824.36 42.1589 819.777 Q39.1034 815.17 39.1034 806.444 Q39.1034 797.694 42.1589 793.11 Q45.2376 788.504 51.0477 788.504 Z" fill="#000000" fill-rule="evenodd" fill-opacity="1" /><path clip-path="url(#clip110)" d="M 0 0 M4.79799 452.684 L27.0201 452.684 L27.0201 454.675 L14.4739 487.244 L9.58963 487.244 L21.3951 456.62 L4.79799 456.62 L4.79799 452.684 Z" fill="#000000" fill-rule="evenodd" fill-opacity="1" /><path clip-path="url(#clip110)" d="M 0 0 M32.0895 481.365 L36.9737 481.365 L36.9737 487.244 L32.0895 487.244 L32.0895 481.365 Z" fill="#000000" fill-rule="evenodd" fill-opacity="1" /><path clip-path="url(#clip110)" d="M 0 0 M42.0895 452.684 L60.4458 452.684 L60.4458 456.62 L46.3718 456.62 L46.3718 465.092 Q47.3904 464.745 48.4089 464.583 Q49.4274 464.397 50.4459 464.397 Q56.2329 464.397 59.6125 467.569 Q62.9921 470.74 62.9921 476.157 Q62.9921 481.735 59.5199 484.837 Q56.0477 487.916 49.7283 487.916 Q47.5524 487.916 45.2839 487.545 Q43.0385 487.175 40.6311 486.434 L40.6311 481.735 Q42.7145 482.869 44.9367 483.425 Q47.1589 483.981 49.6357 483.981 Q53.6403 483.981 55.9783 481.874 Q58.3162 479.768 58.3162 476.157 Q58.3162 472.545 55.9783 470.439 Q53.6403 468.332 49.6357 468.332 Q47.7607 468.332 45.8857 468.749 Q44.0339 469.166 42.0895 470.045 L42.0895 452.684 Z" fill="#000000" fill-rule="evenodd" fill-opacity="1" /><path clip-path="url(#clip110)" d="M 0 0 M-20.8963 146.865 L-13.2575 146.865 L-13.2575 120.499 L-21.5676 122.166 L-21.5676 117.907 L-13.3038 116.24 L-8.62786 116.24 L-8.62786 146.865 L-0.989013 146.865 L-0.989013 150.8 L-20.8963 150.8 L-20.8963 146.865 Z" fill="#000000" fill-rule="evenodd" fill-opacity="1" /><path clip-path="url(#clip110)" d="M 0 0 M14.0804 119.319 Q10.4693 119.319 8.64057 122.884 Q6.83502 126.425 6.83502 133.555 Q6.83502 140.661 8.64057 144.226 Q10.4693 147.768 14.0804 147.768 Q17.7146 147.768 19.5201 144.226 Q21.3488 140.661 21.3488 133.555 Q21.3488 126.425 19.5201 122.884 Q17.7146 119.319 14.0804 119.319 M14.0804 115.615 Q19.8905 115.615 22.946 120.222 Q26.0247 124.805 26.0247 133.555 Q26.0247 142.282 22.946 146.888 Q19.8905 151.471 14.0804 151.471 Q8.2702 151.471 5.19151 146.888 Q2.13597 142.282 2.13597 133.555 Q2.13597 124.805 5.19151 120.222 Q8.2702 115.615 14.0804 115.615 Z" fill="#000000" fill-rule="evenodd" fill-opacity="1" /><path clip-path="url(#clip110)" d="M 0 0 M31.0941 144.92 L35.9784 144.92 L35.9784 150.8 L31.0941 150.8 L31.0941 144.92 Z" fill="#000000" fill-rule="evenodd" fill-opacity="1" /><path clip-path="url(#clip110)" d="M 0 0 M51.0477 119.319 Q47.4367 119.319 45.608 122.884 Q43.8024 126.425 43.8024 133.555 Q43.8024 140.661 45.608 144.226 Q47.4367 147.768 51.0477 147.768 Q54.682 147.768 56.4875 144.226 Q58.3162 140.661 58.3162 133.555 Q58.3162 126.425 56.4875 122.884 Q54.682 119.319 51.0477 119.319 M51.0477 115.615 Q56.8579 115.615 59.9134 120.222 Q62.9921 124.805 62.9921 133.555 Q62.9921 142.282 59.9134 146.888 Q56.8579 151.471 51.0477 151.471 Q45.2376 151.471 42.1589 146.888 Q39.1034 142.282 39.1034 133.555 Q39.1034 124.805 42.1589 120.222 Q45.2376 115.615 51.0477 115.615 Z" fill="#000000" fill-rule="evenodd" fill-opacity="1" /><path clip-path="url(#clip112)" d="
M151.118 1477.01 L156.726 1476.91 L162.335 1476.81 L167.943 1476.7 L173.552 1476.58 L179.161 1476.43 L184.769 1476.25 L190.378 1476.03 L195.987 1475.76 L201.595 1475.42 
  L207.204 1475.02 L212.813 1474.55 L218.421 1473.99 L224.03 1473.33 L229.639 1472.57 L235.247 1471.7 L240.856 1470.71 L246.465 1469.6 L252.073 1468.34 L257.682 1466.94 
  L263.29 1465.38 L268.899 1463.66 L274.508 1461.77 L280.116 1459.71 L285.725 1457.47 L291.334 1455.06 L296.942 1452.49 L302.551 1449.78 L308.16 1446.92 L313.768 1443.96 
  L319.377 1440.9 L324.986 1437.78 L330.594 1434.62 L336.203 1431.43 L341.811 1428.25 L347.42 1425.09 L353.029 1421.95 L358.637 1418.85 L364.246 1415.78 L369.855 1412.73 
  L375.463 1409.71 L381.072 1406.7 L386.681 1403.68 L392.289 1400.65 L397.898 1397.6 L403.507 1394.53 L409.115 1391.44 L414.724 1388.34 L420.333 1385.25 L425.941 1382.18 
  L431.55 1379.16 L437.158 1376.21 L442.767 1373.35 L448.376 1370.6 L453.984 1367.97 L459.593 1365.46 L465.202 1363.06 L470.81 1360.77 L476.419 1358.55 L482.028 1356.38 
  L487.636 1354.23 L493.245 1352.05 L498.854 1349.8 L504.462 1347.45 L510.071 1344.97 L515.68 1342.32 L521.288 1339.49 L526.897 1336.47 L532.505 1333.25 L538.114 1329.85 
  L543.723 1326.28 L549.331 1322.56 L554.94 1318.73 L560.549 1314.79 L566.157 1310.79 L571.766 1306.75 L577.375 1302.67 L582.983 1298.57 L588.592 1294.43 L594.201 1290.23 
  L599.809 1285.94 L605.418 1281.52 L611.027 1276.91 L616.635 1272.04 L622.244 1266.86 L627.852 1261.31 L633.461 1255.32 L639.07 1248.86 L644.678 1241.91 L650.287 1234.47 
  L655.896 1226.55 L661.504 1218.2 L667.113 1209.48 L672.722 1200.49 L678.33 1191.33 L683.939 1182.09 L689.548 1172.88 L695.156 1163.8 L700.765 1154.94 L706.373 1146.35 
  L706.373 1479.3 L700.765 1479.3 L695.156 1479.3 L689.548 1479.3 L683.939 1479.3 L678.33 1479.3 L672.722 1479.3 L667.113 1479.3 L661.504 1479.3 L655.896 1479.3 
  L650.287 1479.3 L644.678 1479.3 L639.07 1479.3 L633.461 1479.3 L627.852 1479.3 L622.244 1479.3 L616.635 1479.3 L611.027 1479.3 L605.418 1479.3 L599.809 1479.3 
  L594.201 1479.3 L588.592 1479.3 L582.983 1479.3 L577.375 1479.3 L571.766 1479.3 L566.157 1479.3 L560.549 1479.3 L554.94 1479.3 L549.331 1479.3 L543.723 1479.3 
  L538.114 1479.3 L532.505 1479.3 L526.897 1479.3 L521.288 1479.3 L515.68 1479.3 L510.071 1479.3 L504.462 1479.3 L498.854 1479.3 L493.245 1479.3 L487.636 1479.3 
  L482.028 1479.3 L476.419 1479.3 L470.81 1479.3 L465.202 1479.3 L459.593 1479.3 L453.984 1479.3 L448.376 1479.3 L442.767 1479.3 L437.158 1479.3 L431.55 1479.3 
  L425.941 1479.3 L420.333 1479.3 L414.724 1479.3 L409.115 1479.3 L403.507 1479.3 L397.898 1479.3 L392.289 1479.3 L386.681 1479.3 L381.072 1479.3 L375.463 1479.3 
  L369.855 1479.3 L364.246 1479.3 L358.637 1479.3 L353.029 1479.3 L347.42 1479.3 L341.811 1479.3 L336.203 1479.3 L330.594 1479.3 L324.986 1479.3 L319.377 1479.3 
  L313.768 1479.3 L308.16 1479.3 L302.551 1479.3 L296.942 1479.3 L291.334 1479.3 L285.725 1479.3 L280.116 1479.3 L274.508 1479.3 L268.899 1479.3 L263.29 1479.3 
  L257.682 1479.3 L252.073 1479.3 L246.465 1479.3 L240.856 1479.3 L235.247 1479.3 L229.639 1479.3 L224.03 1479.3 L218.421 1479.3 L212.813 1479.3 L207.204 1479.3 
  L201.595 1479.3 L195.987 1479.3 L190.378 1479.3 L184.769 1479.3 L179.161 1479.3 L173.552 1479.3 L167.943 1479.3 L162.335 1479.3 L156.726 1479.3 L151.118 1479.3 
   Z
  " fill="#ffa500" fill-rule="evenodd" fill-opacity="0.5"/>
<polyline clip-path="url(#clip112)" style="stroke:#ffa500; stroke-width:4; stroke-opacity:1; fill:none" points="
  151.118,1477.01 156.726,1476.91 162.335,1476.81 167.943,1476.7 173.552,1476.58 179.161,1476.43 184.769,1476.25 190.378,1476.03 195.987,1475.76 201.595,1475.42 
  207.204,1475.02 212.813,1474.55 218.421,1473.99 224.03,1473.33 229.639,1472.57 235.247,1471.7 240.856,1470.71 246.465,1469.6 252.073,1468.34 257.682,1466.94 
  263.29,1465.38 268.899,1463.66 274.508,1461.77 280.116,1459.71 285.725,1457.47 291.334,1455.06 296.942,1452.49 302.551,1449.78 308.16,1446.92 313.768,1443.96 
  319.377,1440.9 324.986,1437.78 330.594,1434.62 336.203,1431.43 341.811,1428.25 347.42,1425.09 353.029,1421.95 358.637,1418.85 364.246,1415.78 369.855,1412.73 
  375.463,1409.71 381.072,1406.7 386.681,1403.68 392.289,1400.65 397.898,1397.6 403.507,1394.53 409.115,1391.44 414.724,1388.34 420.333,1385.25 425.941,1382.18 
  431.55,1379.16 437.158,1376.21 442.767,1373.35 448.376,1370.6 453.984,1367.97 459.593,1365.46 465.202,1363.06 470.81,1360.77 476.419,1358.55 482.028,1356.38 
  487.636,1354.23 493.245,1352.05 498.854,1349.8 504.462,1347.45 510.071,1344.97 515.68,1342.32 521.288,1339.49 526.897,1336.47 532.505,1333.25 538.114,1329.85 
  543.723,1326.28 549.331,1322.56 554.94,1318.73 560.549,1314.79 566.157,1310.79 571.766,1306.75 577.375,1302.67 582.983,1298.57 588.592,1294.43 594.201,1290.23 
  599.809,1285.94 605.418,1281.52 611.027,1276.91 616.635,1272.04 622.244,1266.86 627.852,1261.31 633.461,1255.32 639.07,1248.86 644.678,1241.91 650.287,1234.47 
  655.896,1226.55 661.504,1218.2 667.113,1209.48 672.722,1200.49 678.33,1191.33 683.939,1182.09 689.548,1172.88 695.156,1163.8 700.765,1154.94 706.373,1146.35 
  
  "/>
<path clip-path="url(#clip112)" d="
M706.373 1146.35 L717.638 1130.09 L728.902 1115.08 L740.166 1100.94 L751.43 1087.04 L762.694 1072.67 L773.958 1057.27 L785.222 1040.51 L796.486 1022.3 L807.75 1002.69 
  L819.014 981.748 L830.279 959.404 L841.543 935.404 L852.807 909.321 L864.071 880.671 L875.335 849.09 L886.599 814.527 L897.863 777.393 L909.127 738.629 L920.391 699.667 
  L931.655 662.286 L942.92 628.372 L954.184 599.648 L965.448 577.41 L976.712 562.345 L987.976 554.449 L999.24 553.056 L1010.5 556.947 L1021.77 564.497 L1033.03 573.811 
  L1044.3 582.858 L1055.56 589.603 L1066.82 592.172 L1078.09 589.061 L1089.35 579.339 L1100.62 562.805 L1111.88 539.991 L1123.15 512.006 L1134.41 480.237 L1145.67 446.023 
  L1156.94 410.411 L1168.2 374.103 L1179.47 337.583 L1190.73 301.366 L1201.99 266.209 L1213.26 233.193 L1224.52 203.592 L1235.79 178.589 L1247.05 158.932 L1258.31 144.686 
  L1269.58 135.156 L1280.84 129.048 L1292.11 124.796 L1303.37 120.952 L1314.63 116.514 L1325.9 111.097 L1337.16 104.926 L1348.43 98.6848 L1359.69 93.3046 L1370.96 89.7651 
  L1382.22 88.9544 L1393.48 91.5776 L1404.75 98.0887 L1416.01 108.619 L1427.28 122.91 L1438.54 140.27 L1449.8 159.605 L1461.07 179.538 L1472.33 198.612 L1483.6 215.552 
  L1494.86 229.52 L1506.12 240.344 L1517.39 248.64 L1528.65 255.81 L1539.92 263.889 L1551.18 275.235 L1562.44 292.115 L1573.71 316.267 L1584.97 348.552 L1596.24 388.787 
  L1607.5 435.809 L1618.77 487.741 L1630.03 542.394 L1641.29 597.68 L1652.56 651.928 L1663.82 704.056 L1675.09 753.56 L1686.35 800.369 L1697.61 844.63 L1708.88 886.495 
  L1720.14 925.968 L1731.41 962.857 L1742.67 996.808 L1753.93 1027.42 L1765.2 1054.36 L1776.46 1077.49 L1787.73 1096.93 L1798.99 1113.04 L1810.26 1126.39 L1821.52 1137.69 
  L1821.52 1479.3 L1810.26 1479.3 L1798.99 1479.3 L1787.73 1479.3 L1776.46 1479.3 L1765.2 1479.3 L1753.93 1479.3 L1742.67 1479.3 L1731.41 1479.3 L1720.14 1479.3 
  L1708.88 1479.3 L1697.61 1479.3 L1686.35 1479.3 L1675.09 1479.3 L1663.82 1479.3 L1652.56 1479.3 L1641.29 1479.3 L1630.03 1479.3 L1618.77 1479.3 L1607.5 1479.3 
  L1596.24 1479.3 L1584.97 1479.3 L1573.71 1479.3 L1562.44 1479.3 L1551.18 1479.3 L1539.92 1479.3 L1528.65 1479.3 L1517.39 1479.3 L1506.12 1479.3 L1494.86 1479.3 
  L1483.6 1479.3 L1472.33 1479.3 L1461.07 1479.3 L1449.8 1479.3 L1438.54 1479.3 L1427.28 1479.3 L1416.01 1479.3 L1404.75 1479.3 L1393.48 1479.3 L1382.22 1479.3 
  L1370.96 1479.3 L1359.69 1479.3 L1348.43 1479.3 L1337.16 1479.3 L1325.9 1479.3 L1314.63 1479.3 L1303.37 1479.3 L1292.11 1479.3 L1280.84 1479.3 L1269.58 1479.3 
  L1258.31 1479.3 L1247.05 1479.3 L1235.79 1479.3 L1224.52 1479.3 L1213.26 1479.3 L1201.99 1479.3 L1190.73 1479.3 L1179.47 1479.3 L1168.2 1479.3 L1156.94 1479.3 
  L1145.67 1479.3 L1134.41 1479.3 L1123.15 1479.3 L1111.88 1479.3 L1100.62 1479.3 L1089.35 1479.3 L1078.09 1479.3 L1066.82 1479.3 L1055.56 1479.3 L1044.3 1479.3 
  L1033.03 1479.3 L1021.77 1479.3 L1010.5 1479.3 L999.24 1479.3 L987.976 1479.3 L976.712 1479.3 L965.448 1479.3 L954.184 1479.3 L942.92 1479.3 L931.655 1479.3 
  L920.391 1479.3 L909.127 1479.3 L897.863 1479.3 L886.599 1479.3 L875.335 1479.3 L864.071 1479.3 L852.807 1479.3 L841.543 1479.3 L830.279 1479.3 L819.014 1479.3 
  L807.75 1479.3 L796.486 1479.3 L785.222 1479.3 L773.958 1479.3 L762.694 1479.3 L751.43 1479.3 L740.166 1479.3 L728.902 1479.3 L717.638 1479.3 L706.373 1479.3 
   Z
  " fill="#008000" fill-rule="evenodd" fill-opacity="0.5"/>
<polyline clip-path="url(#clip112)" style="stroke:#008000; stroke-width:4; stroke-opacity:1; fill:none" points="
  706.373,1146.35 717.638,1130.09 728.902,1115.08 740.166,1100.94 751.43,1087.04 762.694,1072.67 773.958,1057.27 785.222,1040.51 796.486,1022.3 807.75,1002.69 
  819.014,981.748 830.279,959.404 841.543,935.404 852.807,909.321 864.071,880.671 875.335,849.09 886.599,814.527 897.863,777.393 909.127,738.629 920.391,699.667 
  931.655,662.286 942.92,628.372 954.184,599.648 965.448,577.41 976.712,562.345 987.976,554.449 999.24,553.056 1010.5,556.947 1021.77,564.497 1033.03,573.811 
  1044.3,582.858 1055.56,589.603 1066.82,592.172 1078.09,589.061 1089.35,579.339 1100.62,562.805 1111.88,539.991 1123.15,512.006 1134.41,480.237 1145.67,446.023 
  1156.94,410.411 1168.2,374.103 1179.47,337.583 1190.73,301.366 1201.99,266.209 1213.26,233.193 1224.52,203.592 1235.79,178.589 1247.05,158.932 1258.31,144.686 
  1269.58,135.156 1280.84,129.048 1292.11,124.796 1303.37,120.952 1314.63,116.514 1325.9,111.097 1337.16,104.926 1348.43,98.6848 1359.69,93.3046 1370.96,89.7651 
  1382.22,88.9544 1393.48,91.5776 1404.75,98.0887 1416.01,108.619 1427.28,122.91 1438.54,140.27 1449.8,159.605 1461.07,179.538 1472.33,198.612 1483.6,215.552 
  1494.86,229.52 1506.12,240.344 1517.39,248.64 1528.65,255.81 1539.92,263.889 1551.18,275.235 1562.44,292.115 1573.71,316.267 1584.97,348.552 1596.24,388.787 
  1607.5,435.809 1618.77,487.741 1630.03,542.394 1641.29,597.68 1652.56,651.928 1663.82,704.056 1675.09,753.56 1686.35,800.369 1697.61,844.63 1708.88,886.495 
  1720.14,925.968 1731.41,962.857 1742.67,996.808 1753.93,1027.42 1765.2,1054.36 1776.46,1077.49 1787.73,1096.93 1798.99,1113.04 1810.26,1126.39 1821.52,1137.69 
  
  "/>
<path clip-path="url(#clip112)" d="
M1821.52 1137.69 L1826.24 1141.99 L1830.96 1146.1 L1835.67 1150.09 L1840.39 1153.98 L1845.11 1157.82 L1849.83 1161.65 L1854.55 1165.51 L1859.27 1169.41 L1863.98 1173.39 
  L1868.7 1177.46 L1873.42 1181.63 L1878.14 1185.92 L1882.86 1190.34 L1887.58 1194.89 L1892.29 1199.58 L1897.01 1204.41 L1901.73 1209.38 L1906.45 1214.5 L1911.17 1219.76 
  L1915.89 1225.17 L1920.6 1230.72 L1925.32 1236.41 L1930.04 1242.23 L1934.76 1248.2 L1939.48 1254.29 L1944.19 1260.51 L1948.91 1266.84 L1953.63 1273.28 L1958.35 1279.8 
  L1963.07 1286.4 L1967.79 1293.06 L1972.5 1299.75 L1977.22 1306.46 L1981.94 1313.16 L1986.66 1319.82 L1991.38 1326.43 L1996.1 1332.95 L2000.81 1339.37 L2005.53 1345.66 
  L2010.25 1351.8 L2014.97 1357.76 L2019.69 1363.54 L2024.41 1369.13 L2029.12 1374.5 L2033.84 1379.65 L2038.56 1384.57 L2043.28 1389.27 L2048 1393.75 L2052.72 1397.99 
  L2057.43 1402.02 L2062.15 1405.83 L2066.87 1409.44 L2071.59 1412.85 L2076.31 1416.06 L2081.03 1419.1 L2085.74 1421.97 L2090.46 1424.67 L2095.18 1427.23 L2099.9 1429.65 
  L2104.62 1431.94 L2109.34 1434.11 L2114.05 1436.18 L2118.77 1438.14 L2123.49 1440.01 L2128.21 1441.8 L2132.93 1443.5 L2137.65 1445.14 L2142.36 1446.7 L2147.08 1448.2 
  L2151.8 1449.64 L2156.52 1451.01 L2161.24 1452.31 L2165.95 1453.54 L2170.67 1454.71 L2175.39 1455.8 L2180.11 1456.82 L2184.83 1457.75 L2189.55 1458.61 L2194.26 1459.39 
  L2198.98 1460.08 L2203.7 1460.69 L2208.42 1461.23 L2213.14 1461.69 L2217.86 1462.1 L2222.57 1462.44 L2227.29 1462.75 L2232.01 1463.01 L2236.73 1463.26 L2241.45 1463.5 
  L2246.17 1463.74 L2250.88 1464 L2255.6 1464.29 L2260.32 1464.61 L2265.04 1464.98 L2269.76 1465.39 L2274.48 1465.86 L2279.19 1466.39 L2283.91 1466.96 L2288.63 1467.58 
  L2288.63 1479.3 L2283.91 1479.3 L2279.19 1479.3 L2274.48 1479.3 L2269.76 1479.3 L2265.04 1479.3 L2260.32 1479.3 L2255.6 1479.3 L2250.88 1479.3 L2246.17 1479.3 
  L2241.45 1479.3 L2236.73 1479.3 L2232.01 1479.3 L2227.29 1479.3 L2222.57 1479.3 L2217.86 1479.3 L2213.14 1479.3 L2208.42 1479.3 L2203.7 1479.3 L2198.98 1479.3 
  L2194.26 1479.3 L2189.55 1479.3 L2184.83 1479.3 L2180.11 1479.3 L2175.39 1479.3 L2170.67 1479.3 L2165.95 1479.3 L2161.24 1479.3 L2156.52 1479.3 L2151.8 1479.3 
  L2147.08 1479.3 L2142.36 1479.3 L2137.65 1479.3 L2132.93 1479.3 L2128.21 1479.3 L2123.49 1479.3 L2118.77 1479.3 L2114.05 1479.3 L2109.34 1479.3 L2104.62 1479.3 
  L2099.9 1479.3 L2095.18 1479.3 L2090.46 1479.3 L2085.74 1479.3 L2081.03 1479.3 L2076.31 1479.3 L2071.59 1479.3 L2066.87 1479.3 L2062.15 1479.3 L2057.43 1479.3 
  L2052.72 1479.3 L2048 1479.3 L2043.28 1479.3 L2038.56 1479.3 L2033.84 1479.3 L2029.12 1479.3 L2024.41 1479.3 L2019.69 1479.3 L2014.97 1479.3 L2010.25 1479.3 
  L2005.53 1479.3 L2000.81 1479.3 L1996.1 1479.3 L1991.38 1479.3 L1986.66 1479.3 L1981.94 1479.3 L1977.22 1479.3 L1972.5 1479.3 L1967.79 1479.3 L1963.07 1479.3 
  L1958.35 1479.3 L1953.63 1479.3 L1948.91 1479.3 L1944.19 1479.3 L1939.48 1479.3 L1934.76 1479.3 L1930.04 1479.3 L1925.32 1479.3 L1920.6 1479.3 L1915.89 1479.3 
  L1911.17 1479.3 L1906.45 1479.3 L1901.73 1479.3 L1897.01 1479.3 L1892.29 1479.3 L1887.58 1479.3 L1882.86 1479.3 L1878.14 1479.3 L1873.42 1479.3 L1868.7 1479.3 
  L1863.98 1479.3 L1859.27 1479.3 L1854.55 1479.3 L1849.83 1479.3 L1845.11 1479.3 L1840.39 1479.3 L1835.67 1479.3 L1830.96 1479.3 L1826.24 1479.3 L1821.52 1479.3 
   Z
  " fill="#ffa500" fill-rule="evenodd" fill-opacity="0.5"/>
<polyline clip-path="url(#clip112)" style="stroke:#ffa500; stroke-width:4; stroke-opacity:1; fill:none" points="
  1821.52,1137.69 1826.24,1141.99 1830.96,1146.1 1835.67,1150.09 1840.39,1153.98 1845.11,1157.82 1849.83,1161.65 1854.55,1165.51 1859.27,1169.41 1863.98,1173.39 
  1868.7,1177.46 1873.42,1181.63 1878.14,1185.92 1882.86,1190.34 1887.58,1194.89 1892.29,1199.58 1897.01,1204.41 1901.73,1209.38 1906.45,1214.5 1911.17,1219.76 
  1915.89,1225.17 1920.6,1230.72 1925.32,1236.41 1930.04,1242.23 1934.76,1248.2 1939.48,1254.29 1944.19,1260.51 1948.91,1266.84 1953.63,1273.28 1958.35,1279.8 
  1963.07,1286.4 1967.79,1293.06 1972.5,1299.75 1977.22,1306.46 1981.94,1313.16 1986.66,1319.82 1991.38,1326.43 1996.1,1332.95 2000.81,1339.37 2005.53,1345.66 
  2010.25,1351.8 2014.97,1357.76 2019.69,1363.54 2024.41,1369.13 2029.12,1374.5 2033.84,1379.65 2038.56,1384.57 2043.28,1389.27 2048,1393.75 2052.72,1397.99 
  2057.43,1402.02 2062.15,1405.83 2066.87,1409.44 2071.59,1412.85 2076.31,1416.06 2081.03,1419.1 2085.74,1421.97 2090.46,1424.67 2095.18,1427.23 2099.9,1429.65 
  2104.62,1431.94 2109.34,1434.11 2114.05,1436.18 2118.77,1438.14 2123.49,1440.01 2128.21,1441.8 2132.93,1443.5 2137.65,1445.14 2142.36,1446.7 2147.08,1448.2 
  2151.8,1449.64 2156.52,1451.01 2161.24,1452.31 2165.95,1453.54 2170.67,1454.71 2175.39,1455.8 2180.11,1456.82 2184.83,1457.75 2189.55,1458.61 2194.26,1459.39 
  2198.98,1460.08 2203.7,1460.69 2208.42,1461.23 2213.14,1461.69 2217.86,1462.1 2222.57,1462.44 2227.29,1462.75 2232.01,1463.01 2236.73,1463.26 2241.45,1463.5 
  2246.17,1463.74 2250.88,1464 2255.6,1464.29 2260.32,1464.61 2265.04,1464.98 2269.76,1465.39 2274.48,1465.86 2279.19,1466.39 2283.91,1466.96 2288.63,1467.58 
  
  "/>
<polyline clip-path="url(#clip112)" style="stroke:#0000ff; stroke-width:4; stroke-opacity:1; fill:none" points="
  1285.51,1479.3 1285.51,127.15 
  "/>
<polyline clip-path="url(#clip112)" style="stroke:#000000; stroke-width:4; stroke-opacity:1; fill:none" points="
  1307.85,1479.3 1307.85,119.293 
  "/>
<path clip-path="url(#clip110)" d="
M1509.86 493.644 L2280.76 493.644 L2280.76 130.764 L1509.86 130.764  Z
  " fill="#ffffff" fill-rule="evenodd" fill-opacity="1"/>
<polyline clip-path="url(#clip110)" style="stroke:#000000; stroke-width:4; stroke-opacity:1; fill:none" points="
  1509.86,493.644 2280.76,493.644 2280.76,130.764 1509.86,130.764 1509.86,493.644 
  "/>
<path clip-path="url(#clip110)" d="
M1533.86 215.436 L1677.86 215.436 L1677.86 167.052 L1533.86 167.052 L1533.86 215.436  Z
  " fill="#ffa500" fill-rule="evenodd" fill-opacity="0.5"/>
<polyline clip-path="url(#clip110)" style="stroke:#ffa500; stroke-width:4; stroke-opacity:1; fill:none" points="
  1533.86,167.052 1677.86,167.052 
  "/>
<path clip-path="url(#clip110)" d="M 0 0 M1706.25 195.584 Q1706.25 200.283 1708.18 202.969 Q1710.12 205.631 1713.5 205.631 Q1716.88 205.631 1718.82 202.969 Q1720.77 200.283 1720.77 195.584 Q1720.77 190.885 1718.82 188.223 Q1716.88 185.538 1713.5 185.538 Q1710.12 185.538 1708.18 188.223 Q1706.25 190.885 1706.25 195.584 M1720.77 204.635 Q1719.43 206.95 1717.37 208.084 Q1715.33 209.195 1712.46 209.195 Q1707.76 209.195 1704.8 205.445 Q1701.86 201.695 1701.86 195.584 Q1701.86 189.473 1704.8 185.723 Q1707.76 181.973 1712.46 181.973 Q1715.33 181.973 1717.37 183.108 Q1719.43 184.219 1720.77 186.533 L1720.77 182.598 L1725.03 182.598 L1725.03 218.385 L1720.77 218.385 L1720.77 204.635 Z" fill="#000000" fill-rule="evenodd" fill-opacity="1" /><path clip-path="url(#clip110)" d="M 0 0 M1740.1 177.043 Q1736.49 177.043 1734.66 180.608 Q1732.85 184.149 1732.85 191.279 Q1732.85 198.385 1734.66 201.95 Q1736.49 205.492 1740.1 205.492 Q1743.73 205.492 1745.54 201.95 Q1747.36 198.385 1747.36 191.279 Q1747.36 184.149 1745.54 180.608 Q1743.73 177.043 1740.1 177.043 M1740.1 173.339 Q1745.91 173.339 1748.96 177.946 Q1752.04 182.529 1752.04 191.279 Q1752.04 200.006 1748.96 204.612 Q1745.91 209.195 1740.1 209.195 Q1734.29 209.195 1731.21 204.612 Q1728.15 200.006 1728.15 191.279 Q1728.15 182.529 1731.21 177.946 Q1734.29 173.339 1740.1 173.339 Z" fill="#000000" fill-rule="evenodd" fill-opacity="1" /><path clip-path="url(#clip110)" d="M 0 0 M1757.16 173.964 L1775.51 173.964 L1775.51 177.899 L1761.44 177.899 L1761.44 186.371 Q1762.46 186.024 1763.48 185.862 Q1764.49 185.677 1765.51 185.677 Q1771.3 185.677 1774.68 188.848 Q1778.06 192.02 1778.06 197.436 Q1778.06 203.015 1774.59 206.117 Q1771.11 209.195 1764.8 209.195 Q1762.62 209.195 1760.35 208.825 Q1758.11 208.455 1755.7 207.714 L1755.7 203.015 Q1757.78 204.149 1760 204.705 Q1762.23 205.26 1764.7 205.26 Q1768.71 205.26 1771.05 203.154 Q1773.38 201.047 1773.38 197.436 Q1773.38 193.825 1771.05 191.719 Q1768.71 189.612 1764.7 189.612 Q1762.83 189.612 1760.95 190.029 Q1759.1 190.445 1757.16 191.325 L1757.16 173.964 Z" fill="#000000" fill-rule="evenodd" fill-opacity="1" /><path clip-path="url(#clip110)" d="
M1533.86 275.916 L1677.86 275.916 L1677.86 227.532 L1533.86 227.532 L1533.86 275.916  Z
  " fill="#008000" fill-rule="evenodd" fill-opacity="0.5"/>
<polyline clip-path="url(#clip110)" style="stroke:#008000; stroke-width:4; stroke-opacity:1; fill:none" points="
  1533.86,227.532 1677.86,227.532 
  "/>
<path clip-path="url(#clip110)" d="M 0 0 M1704.08 268.287 L1704.08 264.027 Q1705.84 264.861 1707.64 265.3 Q1709.45 265.74 1711.18 265.74 Q1715.81 265.74 1718.24 262.638 Q1720.7 259.513 1721.05 253.171 Q1719.7 255.162 1717.64 256.226 Q1715.58 257.291 1713.08 257.291 Q1707.9 257.291 1704.87 254.166 Q1701.86 251.018 1701.86 245.578 Q1701.86 240.254 1705 237.037 Q1708.15 233.819 1713.38 233.819 Q1719.38 233.819 1722.53 238.426 Q1725.7 243.009 1725.7 251.759 Q1725.7 259.93 1721.81 264.814 Q1717.94 269.675 1711.39 269.675 Q1709.63 269.675 1707.83 269.328 Q1706.02 268.981 1704.08 268.287 M1713.38 253.634 Q1716.53 253.634 1718.36 251.481 Q1720.21 249.328 1720.21 245.578 Q1720.21 241.851 1718.36 239.699 Q1716.53 237.523 1713.38 237.523 Q1710.24 237.523 1708.38 239.699 Q1706.56 241.851 1706.56 245.578 Q1706.56 249.328 1708.38 251.481 Q1710.24 253.634 1713.38 253.634 Z" fill="#000000" fill-rule="evenodd" fill-opacity="1" /><path clip-path="url(#clip110)" d="M 0 0 M1740.77 237.523 Q1737.16 237.523 1735.33 241.088 Q1733.52 244.629 1733.52 251.759 Q1733.52 258.865 1735.33 262.43 Q1737.16 265.972 1740.77 265.972 Q1744.4 265.972 1746.21 262.43 Q1748.04 258.865 1748.04 251.759 Q1748.04 244.629 1746.21 241.088 Q1744.4 237.523 1740.77 237.523 M1740.77 233.819 Q1746.58 233.819 1749.63 238.426 Q1752.71 243.009 1752.71 251.759 Q1752.71 260.486 1749.63 265.092 Q1746.58 269.675 1740.77 269.675 Q1734.96 269.675 1731.88 265.092 Q1728.82 260.486 1728.82 251.759 Q1728.82 243.009 1731.88 238.426 Q1734.96 233.819 1740.77 233.819 Z" fill="#000000" fill-rule="evenodd" fill-opacity="1" /><path clip-path="url(#clip110)" d="M 0 0 M1787.18 253.796 Q1785.17 253.796 1784.01 255.509 Q1782.87 257.222 1782.87 260.277 Q1782.87 263.287 1784.01 265.023 Q1785.17 266.736 1787.18 266.736 Q1789.15 266.736 1790.28 265.023 Q1791.44 263.287 1791.44 260.277 Q1791.44 257.245 1790.28 255.532 Q1789.15 253.796 1787.18 253.796 M1787.18 250.856 Q1790.84 250.856 1792.99 253.402 Q1795.14 255.949 1795.14 260.277 Q1795.14 264.606 1792.97 267.152 Q1790.81 269.675 1787.18 269.675 Q1783.48 269.675 1781.32 267.152 Q1779.17 264.606 1779.17 260.277 Q1779.17 255.925 1781.32 253.402 Q1783.5 250.856 1787.18 250.856 M1763.29 236.759 Q1761.3 236.759 1760.14 238.495 Q1759.01 240.208 1759.01 243.217 Q1759.01 246.273 1760.14 247.986 Q1761.28 249.699 1763.29 249.699 Q1765.3 249.699 1766.44 247.986 Q1767.6 246.273 1767.6 243.217 Q1767.6 240.231 1766.44 238.495 Q1765.28 236.759 1763.29 236.759 M1784.19 233.819 L1787.9 233.819 L1766.28 269.675 L1762.57 269.675 L1784.19 233.819 M1763.29 233.819 Q1766.95 233.819 1769.12 236.365 Q1771.3 238.889 1771.3 243.217 Q1771.3 247.592 1769.12 250.115 Q1766.97 252.638 1763.29 252.638 Q1759.61 252.638 1757.46 250.115 Q1755.33 247.569 1755.33 243.217 Q1755.33 238.912 1757.48 236.365 Q1759.63 233.819 1763.29 233.819 Z" fill="#000000" fill-rule="evenodd" fill-opacity="1" /><path clip-path="url(#clip110)" d="M 0 0 M1836.23 253.356 L1836.23 269.004 L1831.97 269.004 L1831.97 253.495 Q1831.97 249.814 1830.54 247.986 Q1829.1 246.157 1826.23 246.157 Q1822.78 246.157 1820.79 248.356 Q1818.8 250.555 1818.8 254.351 L1818.8 269.004 L1814.52 269.004 L1814.52 243.078 L1818.8 243.078 L1818.8 247.106 Q1820.33 244.768 1822.39 243.611 Q1824.47 242.453 1827.18 242.453 Q1831.65 242.453 1833.94 245.231 Q1836.23 247.986 1836.23 253.356 Z" fill="#000000" fill-rule="evenodd" fill-opacity="1" /><path clip-path="url(#clip110)" d="M 0 0 M1850.74 246.064 Q1847.32 246.064 1845.33 248.75 Q1843.34 251.412 1843.34 256.064 Q1843.34 260.717 1845.3 263.402 Q1847.3 266.064 1850.74 266.064 Q1854.15 266.064 1856.14 263.379 Q1858.13 260.694 1858.13 256.064 Q1858.13 251.458 1856.14 248.773 Q1854.15 246.064 1850.74 246.064 M1850.74 242.453 Q1856.3 242.453 1859.47 246.064 Q1862.64 249.675 1862.64 256.064 Q1862.64 262.43 1859.47 266.064 Q1856.3 269.675 1850.74 269.675 Q1845.17 269.675 1841.99 266.064 Q1838.85 262.43 1838.85 256.064 Q1838.85 249.675 1841.99 246.064 Q1845.17 242.453 1850.74 242.453 Z" fill="#000000" fill-rule="evenodd" fill-opacity="1" /><path clip-path="url(#clip110)" d="M 0 0 M1888.66 253.356 L1888.66 269.004 L1884.4 269.004 L1884.4 253.495 Q1884.4 249.814 1882.97 247.986 Q1881.53 246.157 1878.66 246.157 Q1875.21 246.157 1873.22 248.356 Q1871.23 250.555 1871.23 254.351 L1871.23 269.004 L1866.95 269.004 L1866.95 243.078 L1871.23 243.078 L1871.23 247.106 Q1872.76 244.768 1874.82 243.611 Q1876.9 242.453 1879.61 242.453 Q1884.08 242.453 1886.37 245.231 Q1888.66 247.986 1888.66 253.356 Z" fill="#000000" fill-rule="evenodd" fill-opacity="1" /><path clip-path="url(#clip110)" d="M 0 0 M1890.98 254.12 L1903.45 254.12 L1903.45 257.916 L1890.98 257.916 L1890.98 254.12 Z" fill="#000000" fill-rule="evenodd" fill-opacity="1" /><path clip-path="url(#clip110)" d="M 0 0 M1922.94 247.06 Q1922.23 246.643 1921.37 246.458 Q1920.54 246.25 1919.52 246.25 Q1915.91 246.25 1913.96 248.611 Q1912.04 250.949 1912.04 255.347 L1912.04 269.004 L1907.76 269.004 L1907.76 243.078 L1912.04 243.078 L1912.04 247.106 Q1913.38 244.745 1915.54 243.611 Q1917.69 242.453 1920.77 242.453 Q1921.21 242.453 1921.74 242.523 Q1922.27 242.569 1922.92 242.685 L1922.94 247.06 Z" fill="#000000" fill-rule="evenodd" fill-opacity="1" /><path clip-path="url(#clip110)" d="M 0 0 M1948.54 254.976 L1948.54 257.06 L1928.96 257.06 Q1929.24 261.458 1931.6 263.773 Q1933.98 266.064 1938.22 266.064 Q1940.67 266.064 1942.97 265.462 Q1945.28 264.861 1947.55 263.657 L1947.55 267.685 Q1945.26 268.657 1942.85 269.166 Q1940.44 269.675 1937.97 269.675 Q1931.76 269.675 1928.13 266.064 Q1924.52 262.453 1924.52 256.296 Q1924.52 249.93 1927.94 246.203 Q1931.39 242.453 1937.23 242.453 Q1942.46 242.453 1945.49 245.833 Q1948.54 249.189 1948.54 254.976 M1944.29 253.726 Q1944.24 250.231 1942.32 248.148 Q1940.42 246.064 1937.27 246.064 Q1933.71 246.064 1931.55 248.078 Q1929.42 250.092 1929.1 253.75 L1944.29 253.726 Z" fill="#000000" fill-rule="evenodd" fill-opacity="1" /><path clip-path="url(#clip110)" d="M 0 0 M1953.01 243.078 L1957.27 243.078 L1957.27 269.467 Q1957.27 274.421 1955.37 276.643 Q1953.5 278.865 1949.31 278.865 L1947.69 278.865 L1947.69 275.254 L1948.82 275.254 Q1951.25 275.254 1952.13 274.12 Q1953.01 273.009 1953.01 269.467 L1953.01 243.078 M1953.01 232.986 L1957.27 232.986 L1957.27 238.379 L1953.01 238.379 L1953.01 232.986 Z" fill="#000000" fill-rule="evenodd" fill-opacity="1" /><path clip-path="url(#clip110)" d="M 0 0 M1983.91 254.976 L1983.91 257.06 L1964.33 257.06 Q1964.61 261.458 1966.97 263.773 Q1969.35 266.064 1973.59 266.064 Q1976.04 266.064 1978.34 265.462 Q1980.65 264.861 1982.92 263.657 L1982.92 267.685 Q1980.63 268.657 1978.22 269.166 Q1975.81 269.675 1973.34 269.675 Q1967.13 269.675 1963.5 266.064 Q1959.89 262.453 1959.89 256.296 Q1959.89 249.93 1963.31 246.203 Q1966.76 242.453 1972.6 242.453 Q1977.83 242.453 1980.86 245.833 Q1983.91 249.189 1983.91 254.976 M1979.66 253.726 Q1979.61 250.231 1977.69 248.148 Q1975.79 246.064 1972.64 246.064 Q1969.08 246.064 1966.92 248.078 Q1964.79 250.092 1964.47 253.75 L1979.66 253.726 Z" fill="#000000" fill-rule="evenodd" fill-opacity="1" /><path clip-path="url(#clip110)" d="M 0 0 M2007.04 244.074 L2007.04 248.055 Q2005.23 247.06 2003.41 246.574 Q2001.6 246.064 1999.75 246.064 Q1995.6 246.064 1993.31 248.703 Q1991.02 251.319 1991.02 256.064 Q1991.02 260.81 1993.31 263.449 Q1995.6 266.064 1999.75 266.064 Q2001.6 266.064 2003.41 265.578 Q2005.23 265.069 2007.04 264.074 L2007.04 268.009 Q2005.26 268.842 2003.34 269.259 Q2001.44 269.675 1999.28 269.675 Q1993.43 269.675 1989.98 265.995 Q1986.53 262.314 1986.53 256.064 Q1986.53 249.722 1990 246.088 Q1993.5 242.453 1999.56 242.453 Q2001.53 242.453 2003.41 242.87 Q2005.28 243.263 2007.04 244.074 Z" fill="#000000" fill-rule="evenodd" fill-opacity="1" /><path clip-path="url(#clip110)" d="M 0 0 M2015.72 235.717 L2015.72 243.078 L2024.49 243.078 L2024.49 246.388 L2015.72 246.388 L2015.72 260.462 Q2015.72 263.634 2016.58 264.537 Q2017.46 265.439 2020.12 265.439 L2024.49 265.439 L2024.49 269.004 L2020.12 269.004 Q2015.19 269.004 2013.31 267.175 Q2011.44 265.324 2011.44 260.462 L2011.44 246.388 L2008.31 246.388 L2008.31 243.078 L2011.44 243.078 L2011.44 235.717 L2015.72 235.717 Z" fill="#000000" fill-rule="evenodd" fill-opacity="1" /><path clip-path="url(#clip110)" d="M 0 0 M2028.96 243.078 L2033.22 243.078 L2033.22 269.004 L2028.96 269.004 L2028.96 243.078 M2028.96 232.986 L2033.22 232.986 L2033.22 238.379 L2028.96 238.379 L2028.96 232.986 Z" fill="#000000" fill-rule="evenodd" fill-opacity="1" /><path clip-path="url(#clip110)" d="M 0 0 M2047.73 246.064 Q2044.31 246.064 2042.32 248.75 Q2040.33 251.412 2040.33 256.064 Q2040.33 260.717 2042.29 263.402 Q2044.28 266.064 2047.73 266.064 Q2051.14 266.064 2053.13 263.379 Q2055.12 260.694 2055.12 256.064 Q2055.12 251.458 2053.13 248.773 Q2051.14 246.064 2047.73 246.064 M2047.73 242.453 Q2053.29 242.453 2056.46 246.064 Q2059.63 249.675 2059.63 256.064 Q2059.63 262.43 2056.46 266.064 Q2053.29 269.675 2047.73 269.675 Q2042.16 269.675 2038.98 266.064 Q2035.84 262.43 2035.84 256.064 Q2035.84 249.675 2038.98 246.064 Q2042.16 242.453 2047.73 242.453 Z" fill="#000000" fill-rule="evenodd" fill-opacity="1" /><path clip-path="url(#clip110)" d="M 0 0 M2085.65 253.356 L2085.65 269.004 L2081.39 269.004 L2081.39 253.495 Q2081.39 249.814 2079.96 247.986 Q2078.52 246.157 2075.65 246.157 Q2072.2 246.157 2070.21 248.356 Q2068.22 250.555 2068.22 254.351 L2068.22 269.004 L2063.94 269.004 L2063.94 243.078 L2068.22 243.078 L2068.22 247.106 Q2069.75 244.768 2071.81 243.611 Q2073.89 242.453 2076.6 242.453 Q2081.07 242.453 2083.36 245.231 Q2085.65 247.986 2085.65 253.356 Z" fill="#000000" fill-rule="evenodd" fill-opacity="1" /><path clip-path="url(#clip110)" d="M 0 0 M2120.21 247.06 Q2119.49 246.643 2118.64 246.458 Q2117.8 246.25 2116.78 246.25 Q2113.17 246.25 2111.23 248.611 Q2109.31 250.949 2109.31 255.347 L2109.31 269.004 L2105.03 269.004 L2105.03 243.078 L2109.31 243.078 L2109.31 247.106 Q2110.65 244.745 2112.8 243.611 Q2114.96 242.453 2118.03 242.453 Q2118.47 242.453 2119.01 242.523 Q2119.54 242.569 2120.19 242.685 L2120.21 247.06 Z" fill="#000000" fill-rule="evenodd" fill-opacity="1" /><path clip-path="url(#clip110)" d="M 0 0 M2145.81 254.976 L2145.81 257.06 L2126.23 257.06 Q2126.51 261.458 2128.87 263.773 Q2131.25 266.064 2135.49 266.064 Q2137.94 266.064 2140.23 265.462 Q2142.55 264.861 2144.82 263.657 L2144.82 267.685 Q2142.52 268.657 2140.12 269.166 Q2137.71 269.675 2135.23 269.675 Q2129.03 269.675 2125.4 266.064 Q2121.78 262.453 2121.78 256.296 Q2121.78 249.93 2125.21 246.203 Q2128.66 242.453 2134.49 242.453 Q2139.72 242.453 2142.76 245.833 Q2145.81 249.189 2145.81 254.976 M2141.55 253.726 Q2141.51 250.231 2139.59 248.148 Q2137.69 246.064 2134.54 246.064 Q2130.97 246.064 2128.82 248.078 Q2126.69 250.092 2126.37 253.75 L2141.55 253.726 Z" fill="#000000" fill-rule="evenodd" fill-opacity="1" /><path clip-path="url(#clip110)" d="M 0 0 M2167.34 255.74 Q2167.34 251.111 2165.42 248.564 Q2163.52 246.018 2160.07 246.018 Q2156.65 246.018 2154.72 248.564 Q2152.83 251.111 2152.83 255.74 Q2152.83 260.347 2154.72 262.893 Q2156.65 265.439 2160.07 265.439 Q2163.52 265.439 2165.42 262.893 Q2167.34 260.347 2167.34 255.74 M2171.6 265.787 Q2171.6 272.407 2168.66 275.624 Q2165.72 278.865 2159.65 278.865 Q2157.41 278.865 2155.42 278.518 Q2153.43 278.194 2151.55 277.499 L2151.55 273.356 Q2153.43 274.374 2155.26 274.861 Q2157.09 275.347 2158.98 275.347 Q2163.17 275.347 2165.26 273.148 Q2167.34 270.972 2167.34 266.55 L2167.34 264.444 Q2166.02 266.736 2163.96 267.87 Q2161.9 269.004 2159.03 269.004 Q2154.26 269.004 2151.34 265.37 Q2148.43 261.736 2148.43 255.74 Q2148.43 249.722 2151.34 246.088 Q2154.26 242.453 2159.03 242.453 Q2161.9 242.453 2163.96 243.588 Q2166.02 244.722 2167.34 247.013 L2167.34 243.078 L2171.6 243.078 L2171.6 265.787 Z" fill="#000000" fill-rule="evenodd" fill-opacity="1" /><path clip-path="url(#clip110)" d="M 0 0 M2176.07 243.078 L2180.33 243.078 L2180.33 269.004 L2176.07 269.004 L2176.07 243.078 M2176.07 232.986 L2180.33 232.986 L2180.33 238.379 L2176.07 238.379 L2176.07 232.986 Z" fill="#000000" fill-rule="evenodd" fill-opacity="1" /><path clip-path="url(#clip110)" d="M 0 0 M2194.84 246.064 Q2191.41 246.064 2189.42 248.75 Q2187.43 251.412 2187.43 256.064 Q2187.43 260.717 2189.4 263.402 Q2191.39 266.064 2194.84 266.064 Q2198.24 266.064 2200.23 263.379 Q2202.22 260.694 2202.22 256.064 Q2202.22 251.458 2200.23 248.773 Q2198.24 246.064 2194.84 246.064 M2194.84 242.453 Q2200.39 242.453 2203.57 246.064 Q2206.74 249.675 2206.74 256.064 Q2206.74 262.43 2203.57 266.064 Q2200.39 269.675 2194.84 269.675 Q2189.26 269.675 2186.09 266.064 Q2182.94 262.43 2182.94 256.064 Q2182.94 249.675 2186.09 246.064 Q2189.26 242.453 2194.84 242.453 Z" fill="#000000" fill-rule="evenodd" fill-opacity="1" /><path clip-path="url(#clip110)" d="M 0 0 M2232.76 253.356 L2232.76 269.004 L2228.5 269.004 L2228.5 253.495 Q2228.5 249.814 2227.06 247.986 Q2225.63 246.157 2222.76 246.157 Q2219.31 246.157 2217.32 248.356 Q2215.33 250.555 2215.33 254.351 L2215.33 269.004 L2211.04 269.004 L2211.04 243.078 L2215.33 243.078 L2215.33 247.106 Q2216.85 244.768 2218.91 243.611 Q2221 242.453 2223.71 242.453 Q2228.17 242.453 2230.46 245.231 Q2232.76 247.986 2232.76 253.356 Z" fill="#000000" fill-rule="evenodd" fill-opacity="1" /><path clip-path="url(#clip110)" d="
M1533.86 336.396 L1677.86 336.396 L1677.86 288.012 L1533.86 288.012 L1533.86 336.396  Z
  " fill="#ffa500" fill-rule="evenodd" fill-opacity="0.5"/>
<polyline clip-path="url(#clip110)" style="stroke:#ffa500; stroke-width:4; stroke-opacity:1; fill:none" points="
  1533.86,288.012 1677.86,288.012 
  "/>
<path clip-path="url(#clip110)" d="M 0 0 M1706.25 316.544 Q1706.25 321.243 1708.18 323.929 Q1710.12 326.591 1713.5 326.591 Q1716.88 326.591 1718.82 323.929 Q1720.77 321.243 1720.77 316.544 Q1720.77 311.845 1718.82 309.183 Q1716.88 306.498 1713.5 306.498 Q1710.12 306.498 1708.18 309.183 Q1706.25 311.845 1706.25 316.544 M1720.77 325.595 Q1719.43 327.91 1717.37 329.044 Q1715.33 330.155 1712.46 330.155 Q1707.76 330.155 1704.8 326.405 Q1701.86 322.655 1701.86 316.544 Q1701.86 310.433 1704.8 306.683 Q1707.76 302.933 1712.46 302.933 Q1715.33 302.933 1717.37 304.068 Q1719.43 305.179 1720.77 307.493 L1720.77 303.558 L1725.03 303.558 L1725.03 339.345 L1720.77 339.345 L1720.77 325.595 Z" fill="#000000" fill-rule="evenodd" fill-opacity="1" /><path clip-path="url(#clip110)" d="M 0 0 M1730.24 328.767 L1730.24 324.507 Q1731.99 325.341 1733.8 325.78 Q1735.61 326.22 1737.34 326.22 Q1741.97 326.22 1744.4 323.118 Q1746.86 319.993 1747.2 313.651 Q1745.86 315.642 1743.8 316.706 Q1741.74 317.771 1739.24 317.771 Q1734.05 317.771 1731.02 314.646 Q1728.01 311.498 1728.01 306.058 Q1728.01 300.734 1731.16 297.517 Q1734.31 294.299 1739.54 294.299 Q1745.54 294.299 1748.68 298.906 Q1751.86 303.489 1751.86 312.239 Q1751.86 320.41 1747.97 325.294 Q1744.1 330.155 1737.55 330.155 Q1735.79 330.155 1733.99 329.808 Q1732.18 329.461 1730.24 328.767 M1739.54 314.114 Q1742.69 314.114 1744.52 311.961 Q1746.37 309.808 1746.37 306.058 Q1746.37 302.331 1744.52 300.179 Q1742.69 298.003 1739.54 298.003 Q1736.39 298.003 1734.54 300.179 Q1732.71 302.331 1732.71 306.058 Q1732.71 309.808 1734.54 311.961 Q1736.39 314.114 1739.54 314.114 Z" fill="#000000" fill-rule="evenodd" fill-opacity="1" /><path clip-path="url(#clip110)" d="M 0 0 M1756.97 294.924 L1775.33 294.924 L1775.33 298.859 L1761.25 298.859 L1761.25 307.331 Q1762.27 306.984 1763.29 306.822 Q1764.31 306.637 1765.33 306.637 Q1771.11 306.637 1774.49 309.808 Q1777.87 312.98 1777.87 318.396 Q1777.87 323.975 1774.4 327.077 Q1770.93 330.155 1764.61 330.155 Q1762.43 330.155 1760.17 329.785 Q1757.92 329.415 1755.51 328.674 L1755.51 323.975 Q1757.6 325.109 1759.82 325.665 Q1762.04 326.22 1764.52 326.22 Q1768.52 326.22 1770.86 324.114 Q1773.2 322.007 1773.2 318.396 Q1773.2 314.785 1770.86 312.679 Q1768.52 310.572 1764.52 310.572 Q1762.64 310.572 1760.77 310.989 Q1758.92 311.405 1756.97 312.285 L1756.97 294.924 Z" fill="#000000" fill-rule="evenodd" fill-opacity="1" /><polyline clip-path="url(#clip110)" style="stroke:#0000ff; stroke-width:4; stroke-opacity:1; fill:none" points="
  1533.86,372.684 1677.86,372.684 
  "/>
<path clip-path="url(#clip110)" d="M 0 0 M1722.2 369.015 Q1723.8 366.145 1726.02 364.779 Q1728.24 363.413 1731.25 363.413 Q1735.3 363.413 1737.5 366.261 Q1739.7 369.085 1739.7 374.316 L1739.7 389.964 L1735.42 389.964 L1735.42 374.455 Q1735.42 370.728 1734.1 368.923 Q1732.78 367.117 1730.07 367.117 Q1726.76 367.117 1724.84 369.316 Q1722.92 371.515 1722.92 375.311 L1722.92 389.964 L1718.64 389.964 L1718.64 374.455 Q1718.64 370.705 1717.32 368.923 Q1716 367.117 1713.24 367.117 Q1709.98 367.117 1708.06 369.339 Q1706.14 371.538 1706.14 375.311 L1706.14 389.964 L1701.86 389.964 L1701.86 364.038 L1706.14 364.038 L1706.14 368.066 Q1707.6 365.682 1709.63 364.548 Q1711.67 363.413 1714.47 363.413 Q1717.3 363.413 1719.26 364.848 Q1721.25 366.284 1722.2 369.015 Z" fill="#000000" fill-rule="evenodd" fill-opacity="1" /><path clip-path="url(#clip110)" d="M 0 0 M1766.35 375.936 L1766.35 378.02 L1746.76 378.02 Q1747.04 382.418 1749.4 384.733 Q1751.79 387.024 1756.02 387.024 Q1758.48 387.024 1760.77 386.422 Q1763.08 385.821 1765.35 384.617 L1765.35 388.645 Q1763.06 389.617 1760.65 390.126 Q1758.24 390.635 1755.77 390.635 Q1749.56 390.635 1745.93 387.024 Q1742.32 383.413 1742.32 377.256 Q1742.32 370.89 1745.74 367.163 Q1749.19 363.413 1755.03 363.413 Q1760.26 363.413 1763.29 366.793 Q1766.35 370.149 1766.35 375.936 M1762.09 374.686 Q1762.04 371.191 1760.12 369.108 Q1758.22 367.024 1755.07 367.024 Q1751.51 367.024 1749.36 369.038 Q1747.23 371.052 1746.9 374.71 L1762.09 374.686 Z" fill="#000000" fill-rule="evenodd" fill-opacity="1" /><path clip-path="url(#clip110)" d="M 0 0 M1782.6 376.932 Q1777.43 376.932 1775.44 378.112 Q1773.45 379.293 1773.45 382.14 Q1773.45 384.409 1774.93 385.751 Q1776.44 387.071 1779.01 387.071 Q1782.55 387.071 1784.68 384.571 Q1786.83 382.047 1786.83 377.881 L1786.83 376.932 L1782.6 376.932 M1791.09 375.173 L1791.09 389.964 L1786.83 389.964 L1786.83 386.029 Q1785.37 388.39 1783.2 389.524 Q1781.02 390.635 1777.87 390.635 Q1773.89 390.635 1771.53 388.413 Q1769.19 386.168 1769.19 382.418 Q1769.19 378.043 1772.11 375.821 Q1775.05 373.598 1780.86 373.598 L1786.83 373.598 L1786.83 373.182 Q1786.83 370.242 1784.89 368.645 Q1782.97 367.024 1779.47 367.024 Q1777.25 367.024 1775.14 367.557 Q1773.04 368.089 1771.09 369.154 L1771.09 365.219 Q1773.43 364.316 1775.63 363.876 Q1777.83 363.413 1779.91 363.413 Q1785.54 363.413 1788.31 366.33 Q1791.09 369.247 1791.09 375.173 Z" fill="#000000" fill-rule="evenodd" fill-opacity="1" /><path clip-path="url(#clip110)" d="M 0 0 M1817.11 374.316 L1817.11 389.964 L1812.85 389.964 L1812.85 374.455 Q1812.85 370.774 1811.42 368.946 Q1809.98 367.117 1807.11 367.117 Q1803.66 367.117 1801.67 369.316 Q1799.68 371.515 1799.68 375.311 L1799.68 389.964 L1795.4 389.964 L1795.4 364.038 L1799.68 364.038 L1799.68 368.066 Q1801.21 365.728 1803.27 364.571 Q1805.35 363.413 1808.06 363.413 Q1812.53 363.413 1814.82 366.191 Q1817.11 368.946 1817.11 374.316 Z" fill="#000000" fill-rule="evenodd" fill-opacity="1" /><polyline clip-path="url(#clip110)" style="stroke:#000000; stroke-width:4; stroke-opacity:1; fill:none" points="
  1533.86,433.164 1677.86,433.164 
  "/>
<path clip-path="url(#clip110)" d="M 0 0 M1722.2 429.495 Q1723.8 426.625 1726.02 425.259 Q1728.24 423.893 1731.25 423.893 Q1735.3 423.893 1737.5 426.741 Q1739.7 429.565 1739.7 434.796 L1739.7 450.444 L1735.42 450.444 L1735.42 434.935 Q1735.42 431.208 1734.1 429.403 Q1732.78 427.597 1730.07 427.597 Q1726.76 427.597 1724.84 429.796 Q1722.92 431.995 1722.92 435.791 L1722.92 450.444 L1718.64 450.444 L1718.64 434.935 Q1718.64 431.185 1717.32 429.403 Q1716 427.597 1713.24 427.597 Q1709.98 427.597 1708.06 429.819 Q1706.14 432.018 1706.14 435.791 L1706.14 450.444 L1701.86 450.444 L1701.86 424.518 L1706.14 424.518 L1706.14 428.546 Q1707.6 426.162 1709.63 425.028 Q1711.67 423.893 1714.47 423.893 Q1717.3 423.893 1719.26 425.328 Q1721.25 426.764 1722.2 429.495 Z" fill="#000000" fill-rule="evenodd" fill-opacity="1" /><path clip-path="url(#clip110)" d="M 0 0 M1766.35 436.416 L1766.35 438.5 L1746.76 438.5 Q1747.04 442.898 1749.4 445.213 Q1751.79 447.504 1756.02 447.504 Q1758.48 447.504 1760.77 446.902 Q1763.08 446.301 1765.35 445.097 L1765.35 449.125 Q1763.06 450.097 1760.65 450.606 Q1758.24 451.115 1755.77 451.115 Q1749.56 451.115 1745.93 447.504 Q1742.32 443.893 1742.32 437.736 Q1742.32 431.37 1745.74 427.643 Q1749.19 423.893 1755.03 423.893 Q1760.26 423.893 1763.29 427.273 Q1766.35 430.629 1766.35 436.416 M1762.09 435.166 Q1762.04 431.671 1760.12 429.588 Q1758.22 427.504 1755.07 427.504 Q1751.51 427.504 1749.36 429.518 Q1747.23 431.532 1746.9 435.19 L1762.09 435.166 Z" fill="#000000" fill-rule="evenodd" fill-opacity="1" /><path clip-path="url(#clip110)" d="M 0 0 M1787.87 428.453 L1787.87 414.426 L1792.13 414.426 L1792.13 450.444 L1787.87 450.444 L1787.87 446.555 Q1786.53 448.87 1784.47 450.004 Q1782.43 451.115 1779.56 451.115 Q1774.86 451.115 1771.9 447.365 Q1768.96 443.615 1768.96 437.504 Q1768.96 431.393 1771.9 427.643 Q1774.86 423.893 1779.56 423.893 Q1782.43 423.893 1784.47 425.028 Q1786.53 426.139 1787.87 428.453 M1773.36 437.504 Q1773.36 442.203 1775.28 444.889 Q1777.23 447.551 1780.61 447.551 Q1783.99 447.551 1785.93 444.889 Q1787.87 442.203 1787.87 437.504 Q1787.87 432.805 1785.93 430.143 Q1783.99 427.458 1780.61 427.458 Q1777.23 427.458 1775.28 430.143 Q1773.36 432.805 1773.36 437.504 Z" fill="#000000" fill-rule="evenodd" fill-opacity="1" /><path clip-path="url(#clip110)" d="M 0 0 M1796.6 424.518 L1800.86 424.518 L1800.86 450.444 L1796.6 450.444 L1796.6 424.518 M1796.6 414.426 L1800.86 414.426 L1800.86 419.819 L1796.6 419.819 L1796.6 414.426 Z" fill="#000000" fill-rule="evenodd" fill-opacity="1" /><path clip-path="url(#clip110)" d="M 0 0 M1817.11 437.412 Q1811.95 437.412 1809.96 438.592 Q1807.97 439.773 1807.97 442.62 Q1807.97 444.889 1809.45 446.231 Q1810.95 447.551 1813.52 447.551 Q1817.06 447.551 1819.19 445.051 Q1821.35 442.527 1821.35 438.361 L1821.35 437.412 L1817.11 437.412 M1825.61 435.653 L1825.61 450.444 L1821.35 450.444 L1821.35 446.509 Q1819.89 448.87 1817.71 450.004 Q1815.54 451.115 1812.39 451.115 Q1808.41 451.115 1806.05 448.893 Q1803.71 446.648 1803.71 442.898 Q1803.71 438.523 1806.62 436.301 Q1809.56 434.078 1815.37 434.078 L1821.35 434.078 L1821.35 433.662 Q1821.35 430.722 1819.4 429.125 Q1817.48 427.504 1813.99 427.504 Q1811.76 427.504 1809.66 428.037 Q1807.55 428.569 1805.61 429.634 L1805.61 425.699 Q1807.94 424.796 1810.14 424.356 Q1812.34 423.893 1814.42 423.893 Q1820.05 423.893 1822.83 426.81 Q1825.61 429.727 1825.61 435.653 Z" fill="#000000" fill-rule="evenodd" fill-opacity="1" /><path clip-path="url(#clip110)" d="M 0 0 M1851.62 434.796 L1851.62 450.444 L1847.36 450.444 L1847.36 434.935 Q1847.36 431.254 1845.93 429.426 Q1844.49 427.597 1841.62 427.597 Q1838.17 427.597 1836.18 429.796 Q1834.19 431.995 1834.19 435.791 L1834.19 450.444 L1829.91 450.444 L1829.91 424.518 L1834.19 424.518 L1834.19 428.546 Q1835.72 426.208 1837.78 425.051 Q1839.86 423.893 1842.57 423.893 Q1847.04 423.893 1849.33 426.671 Q1851.62 429.426 1851.62 434.796 Z" fill="#000000" fill-rule="evenodd" fill-opacity="1" /></svg>
