<?xml version="1.0" encoding="utf-8"?>
<svg xmlns="http://www.w3.org/2000/svg" xmlns:xlink="http://www.w3.org/1999/xlink" width="600" height="400" viewBox="0 0 2400 1600">
<defs>
  <clipPath id="clip050">
    <rect x="0" y="0" width="2400" height="1600"/>
  </clipPath>
</defs>
<path clip-path="url(#clip050)" d="
M0 1600 L2400 1600 L2400 0 L0 0  Z
  " fill="#ffffff" fill-rule="evenodd" fill-opacity="1"/>
<defs>
  <clipPath id="clip051">
    <rect x="480" y="0" width="1681" height="1600"/>
  </clipPath>
</defs>
<path clip-path="url(#clip050)" d="
M86.9921 1521.01 L2352.76 1521.01 L2352.76 47.2441 L86.9921 47.2441  Z
  " fill="#ffffff" fill-rule="evenodd" fill-opacity="1"/>
<defs>
  <clipPath id="clip052">
    <rect x="86" y="47" width="2267" height="1475"/>
  </clipPath>
</defs>
<polyline clip-path="url(#clip052)" style="stroke:#000000; stroke-width:2; stroke-opacity:0.1; fill:none" points="
  245.074,1521.01 245.074,47.2441 
  "/>
<polyline clip-path="url(#clip052)" style="stroke:#000000; stroke-width:2; stroke-opacity:0.1; fill:none" points="
  857.765,1521.01 857.765,47.2441 
  "/>
<polyline clip-path="url(#clip052)" style="stroke:#000000; stroke-width:2; stroke-opacity:0.1; fill:none" points="
  1470.46,1521.01 1470.46,47.2441 
  "/>
<polyline clip-path="url(#clip052)" style="stroke:#000000; stroke-width:2; stroke-opacity:0.1; fill:none" points="
  2083.15,1521.01 2083.15,47.2441 
  "/>
<polyline clip-path="url(#clip052)" style="stroke:#000000; stroke-width:2; stroke-opacity:0.1; fill:none" points="
  86.9921,1479.3 2352.76,1479.3 
  "/>
<polyline clip-path="url(#clip052)" style="stroke:#000000; stroke-width:2; stroke-opacity:0.1; fill:none" points="
  86.9921,1244.2 2352.76,1244.2 
  "/>
<polyline clip-path="url(#clip052)" style="stroke:#000000; stroke-width:2; stroke-opacity:0.1; fill:none" points="
  86.9921,1009.1 2352.76,1009.1 
  "/>
<polyline clip-path="url(#clip052)" style="stroke:#000000; stroke-width:2; stroke-opacity:0.1; fill:none" points="
  86.9921,774.006 2352.76,774.006 
  "/>
<polyline clip-path="url(#clip052)" style="stroke:#000000; stroke-width:2; stroke-opacity:0.1; fill:none" points="
  86.9921,538.909 2352.76,538.909 
  "/>
<polyline clip-path="url(#clip052)" style="stroke:#000000; stroke-width:2; stroke-opacity:0.1; fill:none" points="
  86.9921,303.812 2352.76,303.812 
  "/>
<polyline clip-path="url(#clip052)" style="stroke:#000000; stroke-width:2; stroke-opacity:0.1; fill:none" points="
  86.9921,68.7148 2352.76,68.7148 
  "/>
<polyline clip-path="url(#clip050)" style="stroke:#000000; stroke-width:4; stroke-opacity:1; fill:none" points="
  86.9921,1521.01 2352.76,1521.01 
  "/>
<polyline clip-path="url(#clip050)" style="stroke:#000000; stroke-width:4; stroke-opacity:1; fill:none" points="
  86.9921,1521.01 86.9921,47.2441 
  "/>
<polyline clip-path="url(#clip050)" style="stroke:#000000; stroke-width:4; stroke-opacity:1; fill:none" points="
  245.074,1521.01 245.074,1503.32 
  "/>
<polyline clip-path="url(#clip050)" style="stroke:#000000; stroke-width:4; stroke-opacity:1; fill:none" points="
  857.765,1521.01 857.765,1503.32 
  "/>
<polyline clip-path="url(#clip050)" style="stroke:#000000; stroke-width:4; stroke-opacity:1; fill:none" points="
  1470.46,1521.01 1470.46,1503.32 
  "/>
<polyline clip-path="url(#clip050)" style="stroke:#000000; stroke-width:4; stroke-opacity:1; fill:none" points="
  2083.15,1521.01 2083.15,1503.32 
  "/>
<polyline clip-path="url(#clip050)" style="stroke:#000000; stroke-width:4; stroke-opacity:1; fill:none" points="
  86.9921,1479.3 114.181,1479.3 
  "/>
<polyline clip-path="url(#clip050)" style="stroke:#000000; stroke-width:4; stroke-opacity:1; fill:none" points="
  86.9921,1244.2 114.181,1244.2 
  "/>
<polyline clip-path="url(#clip050)" style="stroke:#000000; stroke-width:4; stroke-opacity:1; fill:none" points="
  86.9921,1009.1 114.181,1009.1 
  "/>
<polyline clip-path="url(#clip050)" style="stroke:#000000; stroke-width:4; stroke-opacity:1; fill:none" points="
  86.9921,774.006 114.181,774.006 
  "/>
<polyline clip-path="url(#clip050)" style="stroke:#000000; stroke-width:4; stroke-opacity:1; fill:none" points="
  86.9921,538.909 114.181,538.909 
  "/>
<polyline clip-path="url(#clip050)" style="stroke:#000000; stroke-width:4; stroke-opacity:1; fill:none" points="
  86.9921,303.812 114.181,303.812 
  "/>
<polyline clip-path="url(#clip050)" style="stroke:#000000; stroke-width:4; stroke-opacity:1; fill:none" points="
  86.9921,68.7148 114.181,68.7148 
  "/>
<path clip-path="url(#clip050)" d="M 0 0 M217.018 1570.54 L224.657 1570.54 L224.657 1544.18 L216.347 1545.85 L216.347 1541.59 L224.611 1539.92 L229.287 1539.92 L229.287 1570.54 L236.926 1570.54 L236.926 1574.48 L217.018 1574.48 L217.018 1570.54 Z" fill="#000000" fill-rule="evenodd" fill-opacity="1" /><path clip-path="url(#clip050)" d="M 0 0 M241.995 1568.6 L246.879 1568.6 L246.879 1574.48 L241.995 1574.48 L241.995 1568.6 Z" fill="#000000" fill-rule="evenodd" fill-opacity="1" /><path clip-path="url(#clip050)" d="M 0 0 M261.949 1558.07 Q258.615 1558.07 256.694 1559.85 Q254.796 1561.63 254.796 1564.76 Q254.796 1567.88 256.694 1569.67 Q258.615 1571.45 261.949 1571.45 Q265.282 1571.45 267.203 1569.67 Q269.125 1567.86 269.125 1564.76 Q269.125 1561.63 267.203 1559.85 Q265.305 1558.07 261.949 1558.07 M257.273 1556.08 Q254.264 1555.34 252.574 1553.28 Q250.907 1551.22 250.907 1548.25 Q250.907 1544.11 253.847 1541.7 Q256.81 1539.29 261.949 1539.29 Q267.111 1539.29 270.051 1541.7 Q272.99 1544.11 272.99 1548.25 Q272.99 1551.22 271.301 1553.28 Q269.634 1555.34 266.648 1556.08 Q270.027 1556.86 271.902 1559.16 Q273.801 1561.45 273.801 1564.76 Q273.801 1569.78 270.722 1572.47 Q267.666 1575.15 261.949 1575.15 Q256.231 1575.15 253.153 1572.47 Q250.097 1569.78 250.097 1564.76 Q250.097 1561.45 251.995 1559.16 Q253.893 1556.86 257.273 1556.08 M255.56 1548.69 Q255.56 1551.38 257.227 1552.88 Q258.916 1554.39 261.949 1554.39 Q264.958 1554.39 266.648 1552.88 Q268.361 1551.38 268.361 1548.69 Q268.361 1546.01 266.648 1544.5 Q264.958 1543 261.949 1543 Q258.916 1543 257.227 1544.5 Q255.56 1546.01 255.56 1548.69 Z" fill="#000000" fill-rule="evenodd" fill-opacity="1" /><path clip-path="url(#clip050)" d="M 0 0 M829.756 1570.54 L837.395 1570.54 L837.395 1544.18 L829.085 1545.85 L829.085 1541.59 L837.349 1539.92 L842.025 1539.92 L842.025 1570.54 L849.664 1570.54 L849.664 1574.48 L829.756 1574.48 L829.756 1570.54 Z" fill="#000000" fill-rule="evenodd" fill-opacity="1" /><path clip-path="url(#clip050)" d="M 0 0 M854.733 1568.6 L859.617 1568.6 L859.617 1574.48 L854.733 1574.48 L854.733 1568.6 Z" fill="#000000" fill-rule="evenodd" fill-opacity="1" /><path clip-path="url(#clip050)" d="M 0 0 M864.825 1573.76 L864.825 1569.5 Q866.585 1570.34 868.39 1570.78 Q870.196 1571.22 871.932 1571.22 Q876.562 1571.22 878.992 1568.11 Q881.446 1564.99 881.793 1558.65 Q880.45 1560.64 878.39 1561.7 Q876.33 1562.77 873.83 1562.77 Q868.645 1562.77 865.613 1559.64 Q862.603 1556.49 862.603 1551.05 Q862.603 1545.73 865.751 1542.51 Q868.9 1539.29 874.131 1539.29 Q880.126 1539.29 883.274 1543.9 Q886.446 1548.48 886.446 1557.23 Q886.446 1565.41 882.557 1570.29 Q878.691 1575.15 872.14 1575.15 Q870.381 1575.15 868.575 1574.8 Q866.77 1574.46 864.825 1573.76 M874.131 1559.11 Q877.279 1559.11 879.108 1556.96 Q880.96 1554.8 880.96 1551.05 Q880.96 1547.33 879.108 1545.17 Q877.279 1543 874.131 1543 Q870.983 1543 869.131 1545.17 Q867.302 1547.33 867.302 1551.05 Q867.302 1554.8 869.131 1556.96 Q870.983 1559.11 874.131 1559.11 Z" fill="#000000" fill-rule="evenodd" fill-opacity="1" /><path clip-path="url(#clip050)" d="M 0 0 M1446.63 1570.54 L1462.95 1570.54 L1462.95 1574.48 L1441 1574.48 L1441 1570.54 Q1443.66 1567.79 1448.25 1563.16 Q1452.85 1558.51 1454.03 1557.17 Q1456.28 1554.64 1457.16 1552.91 Q1458.06 1551.15 1458.06 1549.46 Q1458.06 1546.7 1456.12 1544.97 Q1454.2 1543.23 1451.09 1543.23 Q1448.89 1543.23 1446.44 1543.99 Q1444.01 1544.76 1441.23 1546.31 L1441.23 1541.59 Q1444.06 1540.45 1446.51 1539.87 Q1448.96 1539.29 1451 1539.29 Q1456.37 1539.29 1459.57 1541.98 Q1462.76 1544.67 1462.76 1549.16 Q1462.76 1551.29 1461.95 1553.21 Q1461.16 1555.1 1459.06 1557.7 Q1458.48 1558.37 1455.38 1561.59 Q1452.27 1564.78 1446.63 1570.54 Z" fill="#000000" fill-rule="evenodd" fill-opacity="1" /><path clip-path="url(#clip050)" d="M 0 0 M1468.01 1568.6 L1472.9 1568.6 L1472.9 1574.48 L1468.01 1574.48 L1468.01 1568.6 Z" fill="#000000" fill-rule="evenodd" fill-opacity="1" /><path clip-path="url(#clip050)" d="M 0 0 M1487.97 1543 Q1484.36 1543 1482.53 1546.56 Q1480.72 1550.11 1480.72 1557.23 Q1480.72 1564.34 1482.53 1567.91 Q1484.36 1571.45 1487.97 1571.45 Q1491.6 1571.45 1493.41 1567.91 Q1495.24 1564.34 1495.24 1557.23 Q1495.24 1550.11 1493.41 1546.56 Q1491.6 1543 1487.97 1543 M1487.97 1539.29 Q1493.78 1539.29 1496.83 1543.9 Q1499.91 1548.48 1499.91 1557.23 Q1499.91 1565.96 1496.83 1570.57 Q1493.78 1575.15 1487.97 1575.15 Q1482.16 1575.15 1479.08 1570.57 Q1476.02 1565.96 1476.02 1557.23 Q1476.02 1548.48 1479.08 1543.9 Q1482.16 1539.29 1487.97 1539.29 Z" fill="#000000" fill-rule="evenodd" fill-opacity="1" /><path clip-path="url(#clip050)" d="M 0 0 M2059.93 1570.54 L2076.25 1570.54 L2076.25 1574.48 L2054.31 1574.48 L2054.31 1570.54 Q2056.97 1567.79 2061.55 1563.16 Q2066.16 1558.51 2067.34 1557.17 Q2069.58 1554.64 2070.46 1552.91 Q2071.37 1551.15 2071.37 1549.46 Q2071.37 1546.7 2069.42 1544.97 Q2067.5 1543.23 2064.4 1543.23 Q2062.2 1543.23 2059.75 1543.99 Q2057.32 1544.76 2054.54 1546.31 L2054.54 1541.59 Q2057.36 1540.45 2059.81 1539.87 Q2062.27 1539.29 2064.31 1539.29 Q2069.68 1539.29 2072.87 1541.98 Q2076.06 1544.67 2076.06 1549.16 Q2076.06 1551.29 2075.25 1553.21 Q2074.47 1555.1 2072.36 1557.7 Q2071.78 1558.37 2068.68 1561.59 Q2065.58 1564.78 2059.93 1570.54 Z" fill="#000000" fill-rule="evenodd" fill-opacity="1" /><path clip-path="url(#clip050)" d="M 0 0 M2081.32 1568.6 L2086.2 1568.6 L2086.2 1574.48 L2081.32 1574.48 L2081.32 1568.6 Z" fill="#000000" fill-rule="evenodd" fill-opacity="1" /><path clip-path="url(#clip050)" d="M 0 0 M2092.08 1570.54 L2099.72 1570.54 L2099.72 1544.18 L2091.41 1545.85 L2091.41 1541.59 L2099.68 1539.92 L2104.35 1539.92 L2104.35 1570.54 L2111.99 1570.54 L2111.99 1574.48 L2092.08 1574.48 L2092.08 1570.54 Z" fill="#000000" fill-rule="evenodd" fill-opacity="1" /><path clip-path="url(#clip050)" d="M 0 0 M51.0477 1465.1 Q47.4367 1465.1 45.608 1468.66 Q43.8024 1472.2 43.8024 1479.33 Q43.8024 1486.44 45.608 1490 Q47.4367 1493.55 51.0477 1493.55 Q54.682 1493.55 56.4875 1490 Q58.3162 1486.44 58.3162 1479.33 Q58.3162 1472.2 56.4875 1468.66 Q54.682 1465.1 51.0477 1465.1 M51.0477 1461.39 Q56.8579 1461.39 59.9134 1466 Q62.9921 1470.58 62.9921 1479.33 Q62.9921 1488.06 59.9134 1492.67 Q56.8579 1497.25 51.0477 1497.25 Q45.2376 1497.25 42.1589 1492.67 Q39.1034 1488.06 39.1034 1479.33 Q39.1034 1470.58 42.1589 1466 Q45.2376 1461.39 51.0477 1461.39 Z" fill="#000000" fill-rule="evenodd" fill-opacity="1" /><path clip-path="url(#clip050)" d="M 0 0 M43.0848 1257.55 L50.7237 1257.55 L50.7237 1231.18 L42.4135 1232.85 L42.4135 1228.59 L50.6774 1226.92 L55.3533 1226.92 L55.3533 1257.55 L62.9921 1257.55 L62.9921 1261.48 L43.0848 1261.48 L43.0848 1257.55 Z" fill="#000000" fill-rule="evenodd" fill-opacity="1" /><path clip-path="url(#clip050)" d="M 0 0 M46.6728 1022.45 L62.9921 1022.45 L62.9921 1026.38 L41.0478 1026.38 L41.0478 1022.45 Q43.7098 1019.69 48.2931 1015.06 Q52.8996 1010.41 54.0801 1009.07 Q56.3255 1006.55 57.2051 1004.81 Q58.1079 1003.05 58.1079 1001.36 Q58.1079 998.606 56.1635 996.87 Q54.2422 995.133 51.1403 995.133 Q48.9413 995.133 46.4876 995.897 Q44.057 996.661 41.2793 998.212 L41.2793 993.49 Q44.1033 992.356 46.557 991.777 Q49.0107 991.198 51.0477 991.198 Q56.4181 991.198 59.6125 993.883 Q62.8069 996.569 62.8069 1001.06 Q62.8069 1003.19 61.9968 1005.11 Q61.2097 1007.01 59.1033 1009.6 Q58.5246 1010.27 55.4227 1013.49 Q52.3209 1016.68 46.6728 1022.45 Z" fill="#000000" fill-rule="evenodd" fill-opacity="1" /><path clip-path="url(#clip050)" d="M 0 0 M55.8625 772.652 Q59.219 773.37 61.094 775.638 Q62.9921 777.907 62.9921 781.24 Q62.9921 786.356 59.4736 789.157 Q55.9551 791.957 49.4737 791.957 Q47.2978 791.957 44.983 791.518 Q42.6913 791.101 40.2376 790.245 L40.2376 785.731 Q42.1821 786.865 44.4969 787.444 Q46.8117 788.022 49.3348 788.022 Q53.7329 788.022 56.0246 786.286 Q58.3394 784.55 58.3394 781.24 Q58.3394 778.184 56.1866 776.471 Q54.057 774.735 50.2376 774.735 L46.2098 774.735 L46.2098 770.893 L50.4227 770.893 Q53.8718 770.893 55.7005 769.527 Q57.5292 768.138 57.5292 765.546 Q57.5292 762.884 55.6311 761.472 Q53.7561 760.036 50.2376 760.036 Q48.3163 760.036 46.1172 760.453 Q43.9182 760.87 41.2793 761.749 L41.2793 757.583 Q43.9413 756.842 46.2561 756.472 Q48.5941 756.101 50.6542 756.101 Q55.9783 756.101 59.0801 758.532 Q62.1819 760.939 62.1819 765.059 Q62.1819 767.93 60.5384 769.921 Q58.8949 771.888 55.8625 772.652 Z" fill="#000000" fill-rule="evenodd" fill-opacity="1" /><path clip-path="url(#clip050)" d="M 0 0 M53.4088 525.703 L41.6034 544.152 L53.4088 544.152 L53.4088 525.703 M52.182 521.629 L58.0616 521.629 L58.0616 544.152 L62.9921 544.152 L62.9921 548.041 L58.0616 548.041 L58.0616 556.189 L53.4088 556.189 L53.4088 548.041 L37.8071 548.041 L37.8071 543.527 L52.182 521.629 Z" fill="#000000" fill-rule="evenodd" fill-opacity="1" /><path clip-path="url(#clip050)" d="M 0 0 M42.0895 286.532 L60.4458 286.532 L60.4458 290.467 L46.3718 290.467 L46.3718 298.939 Q47.3904 298.592 48.4089 298.43 Q49.4274 298.245 50.4459 298.245 Q56.2329 298.245 59.6125 301.416 Q62.9921 304.587 62.9921 310.004 Q62.9921 315.583 59.5199 318.685 Q56.0477 321.763 49.7283 321.763 Q47.5524 321.763 45.2839 321.393 Q43.0385 321.022 40.6311 320.282 L40.6311 315.583 Q42.7145 316.717 44.9367 317.273 Q47.1589 317.828 49.6357 317.828 Q53.6403 317.828 55.9783 315.722 Q58.3162 313.615 58.3162 310.004 Q58.3162 306.393 55.9783 304.286 Q53.6403 302.18 49.6357 302.18 Q47.7607 302.18 45.8857 302.597 Q44.0339 303.013 42.0895 303.893 L42.0895 286.532 Z" fill="#000000" fill-rule="evenodd" fill-opacity="1" /><path clip-path="url(#clip050)" d="M 0 0 M51.4644 66.8514 Q48.3163 66.8514 46.4644 69.0042 Q44.6357 71.1569 44.6357 74.9069 Q44.6357 78.6337 46.4644 80.8097 Q48.3163 82.9624 51.4644 82.9624 Q54.6125 82.9624 56.4412 80.8097 Q58.2931 78.6337 58.2931 74.9069 Q58.2931 71.1569 56.4412 69.0042 Q54.6125 66.8514 51.4644 66.8514 M60.7468 52.1987 L60.7468 56.4579 Q58.9875 55.6246 57.182 55.1848 Q55.3996 54.745 53.6403 54.745 Q49.0107 54.745 46.557 57.87 Q44.1265 60.9949 43.7793 67.3144 Q45.145 65.3005 47.2052 64.2357 Q49.2653 63.1477 51.7422 63.1477 Q56.9505 63.1477 59.9597 66.319 Q62.9921 69.4671 62.9921 74.9069 Q62.9921 80.231 59.844 83.4485 Q56.6959 86.6661 51.4644 86.6661 Q45.4691 86.6661 42.2978 82.0828 Q39.1265 77.4763 39.1265 68.7495 Q39.1265 60.5551 43.0154 55.694 Q46.9042 50.8098 53.4551 50.8098 Q55.2144 50.8098 56.9968 51.157 Q58.8023 51.5043 60.7468 52.1987 Z" fill="#000000" fill-rule="evenodd" fill-opacity="1" /><path clip-path="url(#clip052)" d="
M151.118 1446.35 L155.613 1444.15 L160.109 1441.92 L164.605 1439.68 L169.101 1437.44 L173.597 1435.19 L178.092 1432.95 L182.588 1430.73 L187.084 1428.53 L191.58 1426.35 
  L196.076 1424.2 L200.572 1422.07 L205.067 1419.97 L209.563 1417.9 L214.059 1415.85 L218.555 1413.82 L223.051 1411.8 L227.547 1409.78 L232.042 1407.76 L236.538 1405.73 
  L241.034 1403.68 L245.53 1401.6 L250.026 1399.49 L254.521 1397.34 L259.017 1395.15 L263.513 1392.91 L268.009 1390.63 L272.505 1388.3 L277.001 1385.93 L281.496 1383.53 
  L285.992 1381.1 L290.488 1378.66 L294.984 1376.22 L299.48 1373.78 L303.976 1371.37 L308.471 1368.99 L312.967 1366.65 L317.463 1364.37 L321.959 1362.16 L326.455 1360.02 
  L330.95 1357.96 L335.446 1355.98 L339.942 1354.07 L344.438 1352.23 L348.934 1350.46 L353.43 1348.73 L357.925 1347.03 L362.421 1345.35 L366.917 1343.67 L371.413 1341.95 
  L375.909 1340.19 L380.405 1338.35 L384.9 1336.41 L389.396 1334.36 L393.892 1332.15 L398.388 1329.79 L402.884 1327.24 L407.379 1324.49 L411.875 1321.52 L416.371 1318.34 
  L420.867 1314.92 L425.363 1311.26 L429.859 1307.36 L434.354 1303.23 L438.85 1298.85 L443.346 1294.24 L447.842 1289.4 L452.338 1284.33 L456.834 1279.05 L461.329 1273.55 
  L465.825 1267.85 L470.321 1261.94 L474.817 1255.84 L479.313 1249.53 L483.809 1243.02 L488.304 1236.31 L492.8 1229.38 L497.296 1222.23 L501.792 1214.85 L506.288 1207.21 
  L510.783 1199.31 L515.279 1191.13 L519.775 1182.65 L524.271 1173.86 L528.767 1164.73 L533.263 1155.27 L537.758 1145.45 L542.254 1135.27 L546.75 1124.74 L551.246 1113.86 
  L555.742 1102.63 L560.238 1091.09 L564.733 1079.25 L569.229 1067.15 L573.725 1054.82 L578.221 1042.31 L582.717 1029.67 L587.212 1016.95 L591.708 1004.22 L596.204 991.518 
  L596.204 1479.3 L591.708 1479.3 L587.212 1479.3 L582.717 1479.3 L578.221 1479.3 L573.725 1479.3 L569.229 1479.3 L564.733 1479.3 L560.238 1479.3 L555.742 1479.3 
  L551.246 1479.3 L546.75 1479.3 L542.254 1479.3 L537.758 1479.3 L533.263 1479.3 L528.767 1479.3 L524.271 1479.3 L519.775 1479.3 L515.279 1479.3 L510.783 1479.3 
  L506.288 1479.3 L501.792 1479.3 L497.296 1479.3 L492.8 1479.3 L488.304 1479.3 L483.809 1479.3 L479.313 1479.3 L474.817 1479.3 L470.321 1479.3 L465.825 1479.3 
  L461.329 1479.3 L456.834 1479.3 L452.338 1479.3 L447.842 1479.3 L443.346 1479.3 L438.85 1479.3 L434.354 1479.3 L429.859 1479.3 L425.363 1479.3 L420.867 1479.3 
  L416.371 1479.3 L411.875 1479.3 L407.379 1479.3 L402.884 1479.3 L398.388 1479.3 L393.892 1479.3 L389.396 1479.3 L384.9 1479.3 L380.405 1479.3 L375.909 1479.3 
  L371.413 1479.3 L366.917 1479.3 L362.421 1479.3 L357.925 1479.3 L353.43 1479.3 L348.934 1479.3 L344.438 1479.3 L339.942 1479.3 L335.446 1479.3 L330.95 1479.3 
  L326.455 1479.3 L321.959 1479.3 L317.463 1479.3 L312.967 1479.3 L308.471 1479.3 L303.976 1479.3 L299.48 1479.3 L294.984 1479.3 L290.488 1479.3 L285.992 1479.3 
  L281.496 1479.3 L277.001 1479.3 L272.505 1479.3 L268.009 1479.3 L263.513 1479.3 L259.017 1479.3 L254.521 1479.3 L250.026 1479.3 L245.53 1479.3 L241.034 1479.3 
  L236.538 1479.3 L232.042 1479.3 L227.547 1479.3 L223.051 1479.3 L218.555 1479.3 L214.059 1479.3 L209.563 1479.3 L205.067 1479.3 L200.572 1479.3 L196.076 1479.3 
  L191.58 1479.3 L187.084 1479.3 L182.588 1479.3 L178.092 1479.3 L173.597 1479.3 L169.101 1479.3 L164.605 1479.3 L160.109 1479.3 L155.613 1479.3 L151.118 1479.3 
   Z
  " fill="#ffa500" fill-rule="evenodd" fill-opacity="0.5"/>
<polyline clip-path="url(#clip052)" style="stroke:#ffa500; stroke-width:4; stroke-opacity:1; fill:none" points="
  151.118,1446.35 155.613,1444.15 160.109,1441.92 164.605,1439.68 169.101,1437.44 173.597,1435.19 178.092,1432.95 182.588,1430.73 187.084,1428.53 191.58,1426.35 
  196.076,1424.2 200.572,1422.07 205.067,1419.97 209.563,1417.9 214.059,1415.85 218.555,1413.82 223.051,1411.8 227.547,1409.78 232.042,1407.76 236.538,1405.73 
  241.034,1403.68 245.53,1401.6 250.026,1399.49 254.521,1397.34 259.017,1395.15 263.513,1392.91 268.009,1390.63 272.505,1388.3 277.001,1385.93 281.496,1383.53 
  285.992,1381.1 290.488,1378.66 294.984,1376.22 299.48,1373.78 303.976,1371.37 308.471,1368.99 312.967,1366.65 317.463,1364.37 321.959,1362.16 326.455,1360.02 
  330.95,1357.96 335.446,1355.98 339.942,1354.07 344.438,1352.23 348.934,1350.46 353.43,1348.73 357.925,1347.03 362.421,1345.35 366.917,1343.67 371.413,1341.95 
  375.909,1340.19 380.405,1338.35 384.9,1336.41 389.396,1334.36 393.892,1332.15 398.388,1329.79 402.884,1327.24 407.379,1324.49 411.875,1321.52 416.371,1318.34 
  420.867,1314.92 425.363,1311.26 429.859,1307.36 434.354,1303.23 438.85,1298.85 443.346,1294.24 447.842,1289.4 452.338,1284.33 456.834,1279.05 461.329,1273.55 
  465.825,1267.85 470.321,1261.94 474.817,1255.84 479.313,1249.53 483.809,1243.02 488.304,1236.31 492.8,1229.38 497.296,1222.23 501.792,1214.85 506.288,1207.21 
  510.783,1199.31 515.279,1191.13 519.775,1182.65 524.271,1173.86 528.767,1164.73 533.263,1155.27 537.758,1145.45 542.254,1135.27 546.75,1124.74 551.246,1113.86 
  555.742,1102.63 560.238,1091.09 564.733,1079.25 569.229,1067.15 573.725,1054.82 578.221,1042.31 582.717,1029.67 587.212,1016.95 591.708,1004.22 596.204,991.518 
  
  "/>
<path clip-path="url(#clip052)" d="
M596.204 991.518 L608.618 957.143 L621.033 924.674 L633.447 894.993 L645.861 868.541 L658.275 845.266 L670.69 824.676 L683.104 805.98 L695.518 788.272 L707.932 770.677 
  L720.347 752.448 L732.761 732.986 L745.175 711.834 L757.589 688.684 L770.004 663.427 L782.418 636.239 L794.832 607.662 L807.246 578.626 L819.661 550.356 L832.075 524.18 
  L844.489 501.285 L856.903 482.503 L869.318 468.182 L881.732 458.216 L894.146 452.16 L906.56 449.424 L918.975 449.42 L931.389 451.645 L943.803 455.669 L956.217 461.061 
  L968.632 467.317 L981.046 473.83 L993.46 479.933 L1005.87 485.001 L1018.29 488.567 L1030.7 490.394 L1043.12 490.484 L1055.53 488.991 L1067.95 486.106 L1080.36 481.931 
  L1092.77 476.406 L1105.19 469.304 L1117.6 460.279 L1130.02 448.957 L1142.43 435.028 L1154.85 418.329 L1167.26 398.901 L1179.67 377.043 L1192.09 353.331 L1204.5 328.605 
  L1216.92 303.899 L1229.33 280.298 L1241.75 258.739 L1254.16 239.802 L1266.57 223.567 L1278.99 209.586 L1291.4 196.999 L1303.82 184.782 L1316.23 172.051 L1328.64 158.333 
  L1341.06 143.723 L1353.47 128.891 L1365.89 114.923 L1378.3 103.061 L1390.72 94.4008 L1403.13 89.6431 L1415.54 88.9544 L1427.96 91.9733 L1440.37 97.951 L1452.79 105.975 
  L1465.2 115.207 L1477.62 125.053 L1490.03 135.249 L1502.44 145.82 L1514.86 156.993 L1527.27 169.065 L1539.69 182.306 L1552.1 196.898 L1564.52 212.913 L1576.93 230.316 
  L1589.34 248.988 L1601.76 268.751 L1614.17 289.416 L1626.59 310.834 L1639 332.964 L1651.42 355.914 L1663.83 379.976 L1676.24 405.605 L1688.66 433.38 L1701.07 463.924 
  L1713.49 497.818 L1725.9 535.513 L1738.32 577.241 L1750.73 622.954 L1763.14 672.282 L1775.56 724.541 L1787.97 778.775 L1800.39 833.841 L1812.8 888.499 L1825.21 941.517 
  L1825.21 1479.3 L1812.8 1479.3 L1800.39 1479.3 L1787.97 1479.3 L1775.56 1479.3 L1763.14 1479.3 L1750.73 1479.3 L1738.32 1479.3 L1725.9 1479.3 L1713.49 1479.3 
  L1701.07 1479.3 L1688.66 1479.3 L1676.24 1479.3 L1663.83 1479.3 L1651.42 1479.3 L1639 1479.3 L1626.59 1479.3 L1614.17 1479.3 L1601.76 1479.3 L1589.34 1479.3 
  L1576.93 1479.3 L1564.52 1479.3 L1552.1 1479.3 L1539.69 1479.3 L1527.27 1479.3 L1514.86 1479.3 L1502.44 1479.3 L1490.03 1479.3 L1477.62 1479.3 L1465.2 1479.3 
  L1452.79 1479.3 L1440.37 1479.3 L1427.96 1479.3 L1415.54 1479.3 L1403.13 1479.3 L1390.72 1479.3 L1378.3 1479.3 L1365.89 1479.3 L1353.47 1479.3 L1341.06 1479.3 
  L1328.64 1479.3 L1316.23 1479.3 L1303.82 1479.3 L1291.4 1479.3 L1278.99 1479.3 L1266.57 1479.3 L1254.16 1479.3 L1241.75 1479.3 L1229.33 1479.3 L1216.92 1479.3 
  L1204.5 1479.3 L1192.09 1479.3 L1179.67 1479.3 L1167.26 1479.3 L1154.85 1479.3 L1142.43 1479.3 L1130.02 1479.3 L1117.6 1479.3 L1105.19 1479.3 L1092.77 1479.3 
  L1080.36 1479.3 L1067.95 1479.3 L1055.53 1479.3 L1043.12 1479.3 L1030.7 1479.3 L1018.29 1479.3 L1005.87 1479.3 L993.46 1479.3 L981.046 1479.3 L968.632 1479.3 
  L956.217 1479.3 L943.803 1479.3 L931.389 1479.3 L918.975 1479.3 L906.56 1479.3 L894.146 1479.3 L881.732 1479.3 L869.318 1479.3 L856.903 1479.3 L844.489 1479.3 
  L832.075 1479.3 L819.661 1479.3 L807.246 1479.3 L794.832 1479.3 L782.418 1479.3 L770.004 1479.3 L757.589 1479.3 L745.175 1479.3 L732.761 1479.3 L720.347 1479.3 
  L707.932 1479.3 L695.518 1479.3 L683.104 1479.3 L670.69 1479.3 L658.275 1479.3 L645.861 1479.3 L633.447 1479.3 L621.033 1479.3 L608.618 1479.3 L596.204 1479.3 
   Z
  " fill="#008000" fill-rule="evenodd" fill-opacity="0.5"/>
<polyline clip-path="url(#clip052)" style="stroke:#008000; stroke-width:4; stroke-opacity:1; fill:none" points="
  596.204,991.518 608.618,957.143 621.033,924.674 633.447,894.993 645.861,868.541 658.275,845.266 670.69,824.676 683.104,805.98 695.518,788.272 707.932,770.677 
  720.347,752.448 732.761,732.986 745.175,711.834 757.589,688.684 770.004,663.427 782.418,636.239 794.832,607.662 807.246,578.626 819.661,550.356 832.075,524.18 
  844.489,501.285 856.903,482.503 869.318,468.182 881.732,458.216 894.146,452.16 906.56,449.424 918.975,449.42 931.389,451.645 943.803,455.669 956.217,461.061 
  968.632,467.317 981.046,473.83 993.46,479.933 1005.87,485.001 1018.29,488.567 1030.7,490.394 1043.12,490.484 1055.53,488.991 1067.95,486.106 1080.36,481.931 
  1092.77,476.406 1105.19,469.304 1117.6,460.279 1130.02,448.957 1142.43,435.028 1154.85,418.329 1167.26,398.901 1179.67,377.043 1192.09,353.331 1204.5,328.605 
  1216.92,303.899 1229.33,280.298 1241.75,258.739 1254.16,239.802 1266.57,223.567 1278.99,209.586 1291.4,196.999 1303.82,184.782 1316.23,172.051 1328.64,158.333 
  1341.06,143.723 1353.47,128.891 1365.89,114.923 1378.3,103.061 1390.72,94.4008 1403.13,89.6431 1415.54,88.9544 1427.96,91.9733 1440.37,97.951 1452.79,105.975 
  1465.2,115.207 1477.62,125.053 1490.03,135.249 1502.44,145.82 1514.86,156.993 1527.27,169.065 1539.69,182.306 1552.1,196.898 1564.52,212.913 1576.93,230.316 
  1589.34,248.988 1601.76,268.751 1614.17,289.416 1626.59,310.834 1639,332.964 1651.42,355.914 1663.83,379.976 1676.24,405.605 1688.66,433.38 1701.07,463.924 
  1713.49,497.818 1725.9,535.513 1738.32,577.241 1750.73,622.954 1763.14,672.282 1775.56,724.541 1787.97,778.775 1800.39,833.841 1812.8,888.499 1825.21,941.517 
  
  "/>
<path clip-path="url(#clip052)" d="
M1825.21 941.517 L1829.9 960.84 L1834.58 979.707 L1839.26 998.064 L1843.94 1015.86 L1848.62 1033.04 L1853.3 1049.58 L1857.98 1065.42 L1862.66 1080.54 L1867.34 1094.91 
  L1872.02 1108.5 L1876.71 1121.3 L1881.39 1133.3 L1886.07 1144.5 L1890.75 1154.89 L1895.43 1164.5 L1900.11 1173.34 L1904.79 1181.44 L1909.47 1188.83 L1914.15 1195.55 
  L1918.83 1201.66 L1923.52 1207.2 L1928.2 1212.24 L1932.88 1216.84 L1937.56 1221.06 L1942.24 1224.96 L1946.92 1228.63 L1951.6 1232.11 L1956.28 1235.49 L1960.96 1238.81 
  L1965.64 1242.15 L1970.32 1245.54 L1975.01 1249.04 L1979.69 1252.69 L1984.37 1256.52 L1989.05 1260.56 L1993.73 1264.83 L1998.41 1269.34 L2003.09 1274.1 L2007.77 1279.1 
  L2012.45 1284.35 L2017.13 1289.81 L2021.82 1295.49 L2026.5 1301.35 L2031.18 1307.36 L2035.86 1313.49 L2040.54 1319.72 L2045.22 1326 L2049.9 1332.3 L2054.58 1338.57 
  L2059.26 1344.8 L2063.94 1350.93 L2068.63 1356.94 L2073.31 1362.79 L2077.99 1368.47 L2082.67 1373.93 L2087.35 1379.16 L2092.03 1384.15 L2096.71 1388.88 L2101.39 1393.33 
  L2106.07 1397.5 L2110.75 1401.39 L2115.43 1405 L2120.12 1408.32 L2124.8 1411.37 L2129.48 1414.16 L2134.16 1416.69 L2138.84 1418.98 L2143.52 1421.04 L2148.2 1422.88 
  L2152.88 1424.53 L2157.56 1426 L2162.24 1427.3 L2166.93 1428.46 L2171.61 1429.5 L2176.29 1430.43 L2180.97 1431.27 L2185.65 1432.04 L2190.33 1432.76 L2195.01 1433.44 
  L2199.69 1434.1 L2204.37 1434.76 L2209.05 1435.43 L2213.74 1436.12 L2218.42 1436.85 L2223.1 1437.62 L2227.78 1438.45 L2232.46 1439.35 L2237.14 1440.31 L2241.82 1441.34 
  L2246.5 1442.45 L2251.18 1443.64 L2255.86 1444.89 L2260.54 1446.21 L2265.23 1447.6 L2269.91 1449.04 L2274.59 1450.53 L2279.27 1452.05 L2283.95 1453.6 L2288.63 1455.17 
  L2288.63 1479.3 L2283.95 1479.3 L2279.27 1479.3 L2274.59 1479.3 L2269.91 1479.3 L2265.23 1479.3 L2260.54 1479.3 L2255.86 1479.3 L2251.18 1479.3 L2246.5 1479.3 
  L2241.82 1479.3 L2237.14 1479.3 L2232.46 1479.3 L2227.78 1479.3 L2223.1 1479.3 L2218.42 1479.3 L2213.74 1479.3 L2209.05 1479.3 L2204.37 1479.3 L2199.69 1479.3 
  L2195.01 1479.3 L2190.33 1479.3 L2185.65 1479.3 L2180.97 1479.3 L2176.29 1479.3 L2171.61 1479.3 L2166.93 1479.3 L2162.24 1479.3 L2157.56 1479.3 L2152.88 1479.3 
  L2148.2 1479.3 L2143.52 1479.3 L2138.84 1479.3 L2134.16 1479.3 L2129.48 1479.3 L2124.8 1479.3 L2120.12 1479.3 L2115.43 1479.3 L2110.75 1479.3 L2106.07 1479.3 
  L2101.39 1479.3 L2096.71 1479.3 L2092.03 1479.3 L2087.35 1479.3 L2082.67 1479.3 L2077.99 1479.3 L2073.31 1479.3 L2068.63 1479.3 L2063.94 1479.3 L2059.26 1479.3 
  L2054.58 1479.3 L2049.9 1479.3 L2045.22 1479.3 L2040.54 1479.3 L2035.86 1479.3 L2031.18 1479.3 L2026.5 1479.3 L2021.82 1479.3 L2017.13 1479.3 L2012.45 1479.3 
  L2007.77 1479.3 L2003.09 1479.3 L1998.41 1479.3 L1993.73 1479.3 L1989.05 1479.3 L1984.37 1479.3 L1979.69 1479.3 L1975.01 1479.3 L1970.32 1479.3 L1965.64 1479.3 
  L1960.96 1479.3 L1956.28 1479.3 L1951.6 1479.3 L1946.92 1479.3 L1942.24 1479.3 L1937.56 1479.3 L1932.88 1479.3 L1928.2 1479.3 L1923.52 1479.3 L1918.83 1479.3 
  L1914.15 1479.3 L1909.47 1479.3 L1904.79 1479.3 L1900.11 1479.3 L1895.43 1479.3 L1890.75 1479.3 L1886.07 1479.3 L1881.39 1479.3 L1876.71 1479.3 L1872.02 1479.3 
  L1867.34 1479.3 L1862.66 1479.3 L1857.98 1479.3 L1853.3 1479.3 L1848.62 1479.3 L1843.94 1479.3 L1839.26 1479.3 L1834.58 1479.3 L1829.9 1479.3 L1825.21 1479.3 
   Z
  " fill="#ffa500" fill-rule="evenodd" fill-opacity="0.5"/>
<polyline clip-path="url(#clip052)" style="stroke:#ffa500; stroke-width:4; stroke-opacity:1; fill:none" points="
  1825.21,941.517 1829.9,960.84 1834.58,979.707 1839.26,998.064 1843.94,1015.86 1848.62,1033.04 1853.3,1049.58 1857.98,1065.42 1862.66,1080.54 1867.34,1094.91 
  1872.02,1108.5 1876.71,1121.3 1881.39,1133.3 1886.07,1144.5 1890.75,1154.89 1895.43,1164.5 1900.11,1173.34 1904.79,1181.44 1909.47,1188.83 1914.15,1195.55 
  1918.83,1201.66 1923.52,1207.2 1928.2,1212.24 1932.88,1216.84 1937.56,1221.06 1942.24,1224.96 1946.92,1228.63 1951.6,1232.11 1956.28,1235.49 1960.96,1238.81 
  1965.64,1242.15 1970.32,1245.54 1975.01,1249.04 1979.69,1252.69 1984.37,1256.52 1989.05,1260.56 1993.73,1264.83 1998.41,1269.34 2003.09,1274.1 2007.77,1279.1 
  2012.45,1284.35 2017.13,1289.81 2021.82,1295.49 2026.5,1301.35 2031.18,1307.36 2035.86,1313.49 2040.54,1319.72 2045.22,1326 2049.9,1332.3 2054.58,1338.57 
  2059.26,1344.8 2063.94,1350.93 2068.63,1356.94 2073.31,1362.79 2077.99,1368.47 2082.67,1373.93 2087.35,1379.16 2092.03,1384.15 2096.71,1388.88 2101.39,1393.33 
  2106.07,1397.5 2110.75,1401.39 2115.43,1405 2120.12,1408.32 2124.8,1411.37 2129.48,1414.16 2134.16,1416.69 2138.84,1418.98 2143.52,1421.04 2148.2,1422.88 
  2152.88,1424.53 2157.56,1426 2162.24,1427.3 2166.93,1428.46 2171.61,1429.5 2176.29,1430.43 2180.97,1431.27 2185.65,1432.04 2190.33,1432.76 2195.01,1433.44 
  2199.69,1434.1 2204.37,1434.76 2209.05,1435.43 2213.74,1436.12 2218.42,1436.85 2223.1,1437.62 2227.78,1438.45 2232.46,1439.35 2237.14,1440.31 2241.82,1441.34 
  2246.5,1442.45 2251.18,1443.64 2255.86,1444.89 2260.54,1446.21 2265.23,1447.6 2269.91,1449.04 2274.59,1450.53 2279.27,1452.05 2283.95,1453.6 2288.63,1455.17 
  
  "/>
<polyline clip-path="url(#clip052)" style="stroke:#0000ff; stroke-width:4; stroke-opacity:1; fill:none" points="
  1244.39,1479.3 1244.39,254.479 
  "/>
<polyline clip-path="url(#clip052)" style="stroke:#000000; stroke-width:4; stroke-opacity:1; fill:none" points="
  1276.92,1479.3 1276.92,211.793 
  "/>
<path clip-path="url(#clip050)" d="
M1509.86 493.644 L2280.76 493.644 L2280.76 130.764 L1509.86 130.764  Z
  " fill="#ffffff" fill-rule="evenodd" fill-opacity="1"/>
<polyline clip-path="url(#clip050)" style="stroke:#000000; stroke-width:4; stroke-opacity:1; fill:none" points="
  1509.86,493.644 2280.76,493.644 2280.76,130.764 1509.86,130.764 1509.86,493.644 
  "/>
<path clip-path="url(#clip050)" d="
M1533.86 215.436 L1677.86 215.436 L1677.86 167.052 L1533.86 167.052 L1533.86 215.436  Z
  " fill="#ffa500" fill-rule="evenodd" fill-opacity="0.5"/>
<polyline clip-path="url(#clip050)" style="stroke:#ffa500; stroke-width:4; stroke-opacity:1; fill:none" points="
  1533.86,167.052 1677.86,167.052 
  "/>
<path clip-path="url(#clip050)" d="M 0 0 M1706.25 195.584 Q1706.25 200.283 1708.18 202.969 Q1710.12 205.631 1713.5 205.631 Q1716.88 205.631 1718.82 202.969 Q1720.77 200.283 1720.77 195.584 Q1720.77 190.885 1718.82 188.223 Q1716.88 185.538 1713.5 185.538 Q1710.12 185.538 1708.18 188.223 Q1706.25 190.885 1706.25 195.584 M1720.77 204.635 Q1719.43 206.95 1717.37 208.084 Q1715.33 209.195 1712.46 209.195 Q1707.76 209.195 1704.8 205.445 Q1701.86 201.695 1701.86 195.584 Q1701.86 189.473 1704.8 185.723 Q1707.76 181.973 1712.46 181.973 Q1715.33 181.973 1717.37 183.108 Q1719.43 184.219 1720.77 186.533 L1720.77 182.598 L1725.03 182.598 L1725.03 218.385 L1720.77 218.385 L1720.77 204.635 Z" fill="#000000" fill-rule="evenodd" fill-opacity="1" /><path clip-path="url(#clip050)" d="M 0 0 M1740.1 177.043 Q1736.49 177.043 1734.66 180.608 Q1732.85 184.149 1732.85 191.279 Q1732.85 198.385 1734.66 201.95 Q1736.49 205.492 1740.1 205.492 Q1743.73 205.492 1745.54 201.95 Q1747.36 198.385 1747.36 191.279 Q1747.36 184.149 1745.54 180.608 Q1743.73 177.043 1740.1 177.043 M1740.1 173.339 Q1745.91 173.339 1748.96 177.946 Q1752.04 182.529 1752.04 191.279 Q1752.04 200.006 1748.96 204.612 Q1745.91 209.195 1740.1 209.195 Q1734.29 209.195 1731.21 204.612 Q1728.15 200.006 1728.15 191.279 Q1728.15 182.529 1731.21 177.946 Q1734.29 173.339 1740.1 173.339 Z" fill="#000000" fill-rule="evenodd" fill-opacity="1" /><path clip-path="url(#clip050)" d="M 0 0 M1757.16 173.964 L1775.51 173.964 L1775.51 177.899 L1761.44 177.899 L1761.44 186.371 Q1762.46 186.024 1763.48 185.862 Q1764.49 185.677 1765.51 185.677 Q1771.3 185.677 1774.68 188.848 Q1778.06 192.02 1778.06 197.436 Q1778.06 203.015 1774.59 206.117 Q1771.11 209.195 1764.8 209.195 Q1762.62 209.195 1760.35 208.825 Q1758.11 208.455 1755.7 207.714 L1755.7 203.015 Q1757.78 204.149 1760 204.705 Q1762.23 205.26 1764.7 205.26 Q1768.71 205.26 1771.05 203.154 Q1773.38 201.047 1773.38 197.436 Q1773.38 193.825 1771.05 191.719 Q1768.71 189.612 1764.7 189.612 Q1762.83 189.612 1760.95 190.029 Q1759.1 190.445 1757.16 191.325 L1757.16 173.964 Z" fill="#000000" fill-rule="evenodd" fill-opacity="1" /><path clip-path="url(#clip050)" d="
M1533.86 275.916 L1677.86 275.916 L1677.86 227.532 L1533.86 227.532 L1533.86 275.916  Z
  " fill="#008000" fill-rule="evenodd" fill-opacity="0.5"/>
<polyline clip-path="url(#clip050)" style="stroke:#008000; stroke-width:4; stroke-opacity:1; fill:none" points="
  1533.86,227.532 1677.86,227.532 
  "/>
<path clip-path="url(#clip050)" d="M 0 0 M1704.08 268.287 L1704.08 264.027 Q1705.84 264.861 1707.64 265.3 Q1709.45 265.74 1711.18 265.74 Q1715.81 265.74 1718.24 262.638 Q1720.7 259.513 1721.05 253.171 Q1719.7 255.162 1717.64 256.226 Q1715.58 257.291 1713.08 257.291 Q1707.9 257.291 1704.87 254.166 Q1701.86 251.018 1701.86 245.578 Q1701.86 240.254 1705 237.037 Q1708.15 233.819 1713.38 233.819 Q1719.38 233.819 1722.53 238.426 Q1725.7 243.009 1725.7 251.759 Q1725.7 259.93 1721.81 264.814 Q1717.94 269.675 1711.39 269.675 Q1709.63 269.675 1707.83 269.328 Q1706.02 268.981 1704.08 268.287 M1713.38 253.634 Q1716.53 253.634 1718.36 251.481 Q1720.21 249.328 1720.21 245.578 Q1720.21 241.851 1718.36 239.699 Q1716.53 237.523 1713.38 237.523 Q1710.24 237.523 1708.38 239.699 Q1706.56 241.851 1706.56 245.578 Q1706.56 249.328 1708.38 251.481 Q1710.24 253.634 1713.38 253.634 Z" fill="#000000" fill-rule="evenodd" fill-opacity="1" /><path clip-path="url(#clip050)" d="M 0 0 M1740.77 237.523 Q1737.16 237.523 1735.33 241.088 Q1733.52 244.629 1733.52 251.759 Q1733.52 258.865 1735.33 262.43 Q1737.16 265.972 1740.77 265.972 Q1744.4 265.972 1746.21 262.43 Q1748.04 258.865 1748.04 251.759 Q1748.04 244.629 1746.21 241.088 Q1744.4 237.523 1740.77 237.523 M1740.77 233.819 Q1746.58 233.819 1749.63 238.426 Q1752.71 243.009 1752.71 251.759 Q1752.71 260.486 1749.63 265.092 Q1746.58 269.675 1740.77 269.675 Q1734.96 269.675 1731.88 265.092 Q1728.82 260.486 1728.82 251.759 Q1728.82 243.009 1731.88 238.426 Q1734.96 233.819 1740.77 233.819 Z" fill="#000000" fill-rule="evenodd" fill-opacity="1" /><path clip-path="url(#clip050)" d="M 0 0 M1787.18 253.796 Q1785.17 253.796 1784.01 255.509 Q1782.87 257.222 1782.87 260.277 Q1782.87 263.287 1784.01 265.023 Q1785.17 266.736 1787.18 266.736 Q1789.15 266.736 1790.28 265.023 Q1791.44 263.287 1791.44 260.277 Q1791.44 257.245 1790.28 255.532 Q1789.15 253.796 1787.18 253.796 M1787.18 250.856 Q1790.84 250.856 1792.99 253.402 Q1795.14 255.949 1795.14 260.277 Q1795.14 264.606 1792.97 267.152 Q1790.81 269.675 1787.18 269.675 Q1783.48 269.675 1781.32 267.152 Q1779.17 264.606 1779.17 260.277 Q1779.17 255.925 1781.32 253.402 Q1783.5 250.856 1787.18 250.856 M1763.29 236.759 Q1761.3 236.759 1760.14 238.495 Q1759.01 240.208 1759.01 243.217 Q1759.01 246.273 1760.14 247.986 Q1761.28 249.699 1763.29 249.699 Q1765.3 249.699 1766.44 247.986 Q1767.6 246.273 1767.6 243.217 Q1767.6 240.231 1766.44 238.495 Q1765.28 236.759 1763.29 236.759 M1784.19 233.819 L1787.9 233.819 L1766.28 269.675 L1762.57 269.675 L1784.19 233.819 M1763.29 233.819 Q1766.95 233.819 1769.12 236.365 Q1771.3 238.889 1771.3 243.217 Q1771.3 247.592 1769.12 250.115 Q1766.97 252.638 1763.29 252.638 Q1759.61 252.638 1757.46 250.115 Q1755.33 247.569 1755.33 243.217 Q1755.33 238.912 1757.48 236.365 Q1759.63 233.819 1763.29 233.819 Z" fill="#000000" fill-rule="evenodd" fill-opacity="1" /><path clip-path="url(#clip050)" d="M 0 0 M1836.23 253.356 L1836.23 269.004 L1831.97 269.004 L1831.97 253.495 Q1831.97 249.814 1830.54 247.986 Q1829.1 246.157 1826.23 246.157 Q1822.78 246.157 1820.79 248.356 Q1818.8 250.555 1818.8 254.351 L1818.8 269.004 L1814.52 269.004 L1814.52 243.078 L1818.8 243.078 L1818.8 247.106 Q1820.33 244.768 1822.39 243.611 Q1824.47 242.453 1827.18 242.453 Q1831.65 242.453 1833.94 245.231 Q1836.23 247.986 1836.23 253.356 Z" fill="#000000" fill-rule="evenodd" fill-opacity="1" /><path clip-path="url(#clip050)" d="M 0 0 M1850.74 246.064 Q1847.32 246.064 1845.33 248.75 Q1843.34 251.412 1843.34 256.064 Q1843.34 260.717 1845.3 263.402 Q1847.3 266.064 1850.74 266.064 Q1854.15 266.064 1856.14 263.379 Q1858.13 260.694 1858.13 256.064 Q1858.13 251.458 1856.14 248.773 Q1854.15 246.064 1850.74 246.064 M1850.74 242.453 Q1856.3 242.453 1859.47 246.064 Q1862.64 249.675 1862.64 256.064 Q1862.64 262.43 1859.47 266.064 Q1856.3 269.675 1850.74 269.675 Q1845.17 269.675 1841.99 266.064 Q1838.85 262.43 1838.85 256.064 Q1838.85 249.675 1841.99 246.064 Q1845.17 242.453 1850.74 242.453 Z" fill="#000000" fill-rule="evenodd" fill-opacity="1" /><path clip-path="url(#clip050)" d="M 0 0 M1888.66 253.356 L1888.66 269.004 L1884.4 269.004 L1884.4 253.495 Q1884.4 249.814 1882.97 247.986 Q1881.53 246.157 1878.66 246.157 Q1875.21 246.157 1873.22 248.356 Q1871.23 250.555 1871.23 254.351 L1871.23 269.004 L1866.95 269.004 L1866.95 243.078 L1871.23 243.078 L1871.23 247.106 Q1872.76 244.768 1874.82 243.611 Q1876.9 242.453 1879.61 242.453 Q1884.08 242.453 1886.37 245.231 Q1888.66 247.986 1888.66 253.356 Z" fill="#000000" fill-rule="evenodd" fill-opacity="1" /><path clip-path="url(#clip050)" d="M 0 0 M1890.98 254.12 L1903.45 254.12 L1903.45 257.916 L1890.98 257.916 L1890.98 254.12 Z" fill="#000000" fill-rule="evenodd" fill-opacity="1" /><path clip-path="url(#clip050)" d="M 0 0 M1922.94 247.06 Q1922.23 246.643 1921.37 246.458 Q1920.54 246.25 1919.52 246.25 Q1915.91 246.25 1913.96 248.611 Q1912.04 250.949 1912.04 255.347 L1912.04 269.004 L1907.76 269.004 L1907.76 243.078 L1912.04 243.078 L1912.04 247.106 Q1913.38 244.745 1915.54 243.611 Q1917.69 242.453 1920.77 242.453 Q1921.21 242.453 1921.74 242.523 Q1922.27 242.569 1922.92 242.685 L1922.94 247.06 Z" fill="#000000" fill-rule="evenodd" fill-opacity="1" /><path clip-path="url(#clip050)" d="M 0 0 M1948.54 254.976 L1948.54 257.06 L1928.96 257.06 Q1929.24 261.458 1931.6 263.773 Q1933.98 266.064 1938.22 266.064 Q1940.67 266.064 1942.97 265.462 Q1945.28 264.861 1947.55 263.657 L1947.55 267.685 Q1945.26 268.657 1942.85 269.166 Q1940.44 269.675 1937.97 269.675 Q1931.76 269.675 1928.13 266.064 Q1924.52 262.453 1924.52 256.296 Q1924.52 249.93 1927.94 246.203 Q1931.39 242.453 1937.23 242.453 Q1942.46 242.453 1945.49 245.833 Q1948.54 249.189 1948.54 254.976 M1944.29 253.726 Q1944.24 250.231 1942.32 248.148 Q1940.42 246.064 1937.27 246.064 Q1933.71 246.064 1931.55 248.078 Q1929.42 250.092 1929.1 253.75 L1944.29 253.726 Z" fill="#000000" fill-rule="evenodd" fill-opacity="1" /><path clip-path="url(#clip050)" d="M 0 0 M1953.01 243.078 L1957.27 243.078 L1957.27 269.467 Q1957.27 274.421 1955.37 276.643 Q1953.5 278.865 1949.31 278.865 L1947.69 278.865 L1947.69 275.254 L1948.82 275.254 Q1951.25 275.254 1952.13 274.12 Q1953.01 273.009 1953.01 269.467 L1953.01 243.078 M1953.01 232.986 L1957.27 232.986 L1957.27 238.379 L1953.01 238.379 L1953.01 232.986 Z" fill="#000000" fill-rule="evenodd" fill-opacity="1" /><path clip-path="url(#clip050)" d="M 0 0 M1983.91 254.976 L1983.91 257.06 L1964.33 257.06 Q1964.61 261.458 1966.97 263.773 Q1969.35 266.064 1973.59 266.064 Q1976.04 266.064 1978.34 265.462 Q1980.65 264.861 1982.92 263.657 L1982.92 267.685 Q1980.63 268.657 1978.22 269.166 Q1975.81 269.675 1973.34 269.675 Q1967.13 269.675 1963.5 266.064 Q1959.89 262.453 1959.89 256.296 Q1959.89 249.93 1963.31 246.203 Q1966.76 242.453 1972.6 242.453 Q1977.83 242.453 1980.86 245.833 Q1983.91 249.189 1983.91 254.976 M1979.66 253.726 Q1979.61 250.231 1977.69 248.148 Q1975.79 246.064 1972.64 246.064 Q1969.08 246.064 1966.92 248.078 Q1964.79 250.092 1964.47 253.75 L1979.66 253.726 Z" fill="#000000" fill-rule="evenodd" fill-opacity="1" /><path clip-path="url(#clip050)" d="M 0 0 M2007.04 244.074 L2007.04 248.055 Q2005.23 247.06 2003.41 246.574 Q2001.6 246.064 1999.75 246.064 Q1995.6 246.064 1993.31 248.703 Q1991.02 251.319 1991.02 256.064 Q1991.02 260.81 1993.31 263.449 Q1995.6 266.064 1999.75 266.064 Q2001.6 266.064 2003.41 265.578 Q2005.23 265.069 2007.04 264.074 L2007.04 268.009 Q2005.26 268.842 2003.34 269.259 Q2001.44 269.675 1999.28 269.675 Q1993.43 269.675 1989.98 265.995 Q1986.53 262.314 1986.53 256.064 Q1986.53 249.722 1990 246.088 Q1993.5 242.453 1999.56 242.453 Q2001.53 242.453 2003.41 242.87 Q2005.28 243.263 2007.04 244.074 Z" fill="#000000" fill-rule="evenodd" fill-opacity="1" /><path clip-path="url(#clip050)" d="M 0 0 M2015.72 235.717 L2015.72 243.078 L2024.49 243.078 L2024.49 246.388 L2015.72 246.388 L2015.72 260.462 Q2015.72 263.634 2016.58 264.537 Q2017.46 265.439 2020.12 265.439 L2024.49 265.439 L2024.49 269.004 L2020.12 269.004 Q2015.19 269.004 2013.31 267.175 Q2011.44 265.324 2011.44 260.462 L2011.44 246.388 L2008.31 246.388 L2008.31 243.078 L2011.44 243.078 L2011.44 235.717 L2015.72 235.717 Z" fill="#000000" fill-rule="evenodd" fill-opacity="1" /><path clip-path="url(#clip050)" d="M 0 0 M2028.96 243.078 L2033.22 243.078 L2033.22 269.004 L2028.96 269.004 L2028.96 243.078 M2028.96 232.986 L2033.22 232.986 L2033.22 238.379 L2028.96 238.379 L2028.96 232.986 Z" fill="#000000" fill-rule="evenodd" fill-opacity="1" /><path clip-path="url(#clip050)" d="M 0 0 M2047.73 246.064 Q2044.31 246.064 2042.32 248.75 Q2040.33 251.412 2040.33 256.064 Q2040.33 260.717 2042.29 263.402 Q2044.28 266.064 2047.73 266.064 Q2051.14 266.064 2053.13 263.379 Q2055.12 260.694 2055.12 256.064 Q2055.12 251.458 2053.13 248.773 Q2051.14 246.064 2047.73 246.064 M2047.73 242.453 Q2053.29 242.453 2056.46 246.064 Q2059.63 249.675 2059.63 256.064 Q2059.63 262.43 2056.46 266.064 Q2053.29 269.675 2047.73 269.675 Q2042.16 269.675 2038.98 266.064 Q2035.84 262.43 2035.84 256.064 Q2035.84 249.675 2038.98 246.064 Q2042.16 242.453 2047.73 242.453 Z" fill="#000000" fill-rule="evenodd" fill-opacity="1" /><path clip-path="url(#clip050)" d="M 0 0 M2085.65 253.356 L2085.65 269.004 L2081.39 269.004 L2081.39 253.495 Q2081.39 249.814 2079.96 247.986 Q2078.52 246.157 2075.65 246.157 Q2072.2 246.157 2070.21 248.356 Q2068.22 250.555 2068.22 254.351 L2068.22 269.004 L2063.94 269.004 L2063.94 243.078 L2068.22 243.078 L2068.22 247.106 Q2069.75 244.768 2071.81 243.611 Q2073.89 242.453 2076.6 242.453 Q2081.07 242.453 2083.36 245.231 Q2085.65 247.986 2085.65 253.356 Z" fill="#000000" fill-rule="evenodd" fill-opacity="1" /><path clip-path="url(#clip050)" d="M 0 0 M2120.21 247.06 Q2119.49 246.643 2118.64 246.458 Q2117.8 246.25 2116.78 246.25 Q2113.17 246.25 2111.23 248.611 Q2109.31 250.949 2109.31 255.347 L2109.31 269.004 L2105.03 269.004 L2105.03 243.078 L2109.31 243.078 L2109.31 247.106 Q2110.65 244.745 2112.8 243.611 Q2114.96 242.453 2118.03 242.453 Q2118.47 242.453 2119.01 242.523 Q2119.54 242.569 2120.19 242.685 L2120.21 247.06 Z" fill="#000000" fill-rule="evenodd" fill-opacity="1" /><path clip-path="url(#clip050)" d="M 0 0 M2145.81 254.976 L2145.81 257.06 L2126.23 257.06 Q2126.51 261.458 2128.87 263.773 Q2131.25 266.064 2135.49 266.064 Q2137.94 266.064 2140.23 265.462 Q2142.55 264.861 2144.82 263.657 L2144.82 267.685 Q2142.52 268.657 2140.12 269.166 Q2137.71 269.675 2135.23 269.675 Q2129.03 269.675 2125.4 266.064 Q2121.78 262.453 2121.78 256.296 Q2121.78 249.93 2125.21 246.203 Q2128.66 242.453 2134.49 242.453 Q2139.72 242.453 2142.76 245.833 Q2145.81 249.189 2145.81 254.976 M2141.55 253.726 Q2141.51 250.231 2139.59 248.148 Q2137.69 246.064 2134.54 246.064 Q2130.97 246.064 2128.82 248.078 Q2126.69 250.092 2126.37 253.75 L2141.55 253.726 Z" fill="#000000" fill-rule="evenodd" fill-opacity="1" /><path clip-path="url(#clip050)" d="M 0 0 M2167.34 255.74 Q2167.34 251.111 2165.42 248.564 Q2163.52 246.018 2160.07 246.018 Q2156.65 246.018 2154.72 248.564 Q2152.83 251.111 2152.83 255.74 Q2152.83 260.347 2154.72 262.893 Q2156.65 265.439 2160.07 265.439 Q2163.52 265.439 2165.42 262.893 Q2167.34 260.347 2167.34 255.74 M2171.6 265.787 Q2171.6 272.407 2168.66 275.624 Q2165.72 278.865 2159.65 278.865 Q2157.41 278.865 2155.42 278.518 Q2153.43 278.194 2151.55 277.499 L2151.55 273.356 Q2153.43 274.374 2155.26 274.861 Q2157.09 275.347 2158.98 275.347 Q2163.17 275.347 2165.26 273.148 Q2167.34 270.972 2167.34 266.55 L2167.34 264.444 Q2166.02 266.736 2163.96 267.87 Q2161.9 269.004 2159.03 269.004 Q2154.26 269.004 2151.34 265.37 Q2148.43 261.736 2148.43 255.74 Q2148.43 249.722 2151.34 246.088 Q2154.26 242.453 2159.03 242.453 Q2161.9 242.453 2163.96 243.588 Q2166.02 244.722 2167.34 247.013 L2167.34 243.078 L2171.6 243.078 L2171.6 265.787 Z" fill="#000000" fill-rule="evenodd" fill-opacity="1" /><path clip-path="url(#clip050)" d="M 0 0 M2176.07 243.078 L2180.33 243.078 L2180.33 269.004 L2176.07 269.004 L2176.07 243.078 M2176.07 232.986 L2180.33 232.986 L2180.33 238.379 L2176.07 238.379 L2176.07 232.986 Z" fill="#000000" fill-rule="evenodd" fill-opacity="1" /><path clip-path="url(#clip050)" d="M 0 0 M2194.84 246.064 Q2191.41 246.064 2189.42 248.75 Q2187.43 251.412 2187.43 256.064 Q2187.43 260.717 2189.4 263.402 Q2191.39 266.064 2194.84 266.064 Q2198.24 266.064 2200.23 263.379 Q2202.22 260.694 2202.22 256.064 Q2202.22 251.458 2200.23 248.773 Q2198.24 246.064 2194.84 246.064 M2194.84 242.453 Q2200.39 242.453 2203.57 246.064 Q2206.74 249.675 2206.74 256.064 Q2206.74 262.43 2203.57 266.064 Q2200.39 269.675 2194.84 269.675 Q2189.26 269.675 2186.09 266.064 Q2182.94 262.43 2182.94 256.064 Q2182.94 249.675 2186.09 246.064 Q2189.26 242.453 2194.84 242.453 Z" fill="#000000" fill-rule="evenodd" fill-opacity="1" /><path clip-path="url(#clip050)" d="M 0 0 M2232.76 253.356 L2232.76 269.004 L2228.5 269.004 L2228.5 253.495 Q2228.5 249.814 2227.06 247.986 Q2225.63 246.157 2222.76 246.157 Q2219.31 246.157 2217.32 248.356 Q2215.33 250.555 2215.33 254.351 L2215.33 269.004 L2211.04 269.004 L2211.04 243.078 L2215.33 243.078 L2215.33 247.106 Q2216.85 244.768 2218.91 243.611 Q2221 242.453 2223.71 242.453 Q2228.17 242.453 2230.46 245.231 Q2232.76 247.986 2232.76 253.356 Z" fill="#000000" fill-rule="evenodd" fill-opacity="1" /><path clip-path="url(#clip050)" d="
M1533.86 336.396 L1677.86 336.396 L1677.86 288.012 L1533.86 288.012 L1533.86 336.396  Z
  " fill="#ffa500" fill-rule="evenodd" fill-opacity="0.5"/>
<polyline clip-path="url(#clip050)" style="stroke:#ffa500; stroke-width:4; stroke-opacity:1; fill:none" points="
  1533.86,288.012 1677.86,288.012 
  "/>
<path clip-path="url(#clip050)" d="M 0 0 M1706.25 316.544 Q1706.25 321.243 1708.18 323.929 Q1710.12 326.591 1713.5 326.591 Q1716.88 326.591 1718.82 323.929 Q1720.77 321.243 1720.77 316.544 Q1720.77 311.845 1718.82 309.183 Q1716.88 306.498 1713.5 306.498 Q1710.12 306.498 1708.18 309.183 Q1706.25 311.845 1706.25 316.544 M1720.77 325.595 Q1719.43 327.91 1717.37 329.044 Q1715.33 330.155 1712.46 330.155 Q1707.76 330.155 1704.8 326.405 Q1701.86 322.655 1701.86 316.544 Q1701.86 310.433 1704.8 306.683 Q1707.76 302.933 1712.46 302.933 Q1715.33 302.933 1717.37 304.068 Q1719.43 305.179 1720.77 307.493 L1720.77 303.558 L1725.03 303.558 L1725.03 339.345 L1720.77 339.345 L1720.77 325.595 Z" fill="#000000" fill-rule="evenodd" fill-opacity="1" /><path clip-path="url(#clip050)" d="M 0 0 M1730.24 328.767 L1730.24 324.507 Q1731.99 325.341 1733.8 325.78 Q1735.61 326.22 1737.34 326.22 Q1741.97 326.22 1744.4 323.118 Q1746.86 319.993 1747.2 313.651 Q1745.86 315.642 1743.8 316.706 Q1741.74 317.771 1739.24 317.771 Q1734.05 317.771 1731.02 314.646 Q1728.01 311.498 1728.01 306.058 Q1728.01 300.734 1731.16 297.517 Q1734.31 294.299 1739.54 294.299 Q1745.54 294.299 1748.68 298.906 Q1751.86 303.489 1751.86 312.239 Q1751.86 320.41 1747.97 325.294 Q1744.1 330.155 1737.55 330.155 Q1735.79 330.155 1733.99 329.808 Q1732.18 329.461 1730.24 328.767 M1739.54 314.114 Q1742.69 314.114 1744.52 311.961 Q1746.37 309.808 1746.37 306.058 Q1746.37 302.331 1744.52 300.179 Q1742.69 298.003 1739.54 298.003 Q1736.39 298.003 1734.54 300.179 Q1732.71 302.331 1732.71 306.058 Q1732.71 309.808 1734.54 311.961 Q1736.39 314.114 1739.54 314.114 Z" fill="#000000" fill-rule="evenodd" fill-opacity="1" /><path clip-path="url(#clip050)" d="M 0 0 M1756.97 294.924 L1775.33 294.924 L1775.33 298.859 L1761.25 298.859 L1761.25 307.331 Q1762.27 306.984 1763.29 306.822 Q1764.31 306.637 1765.33 306.637 Q1771.11 306.637 1774.49 309.808 Q1777.87 312.98 1777.87 318.396 Q1777.87 323.975 1774.4 327.077 Q1770.93 330.155 1764.61 330.155 Q1762.43 330.155 1760.17 329.785 Q1757.92 329.415 1755.51 328.674 L1755.51 323.975 Q1757.6 325.109 1759.82 325.665 Q1762.04 326.22 1764.52 326.22 Q1768.52 326.22 1770.86 324.114 Q1773.2 322.007 1773.2 318.396 Q1773.2 314.785 1770.86 312.679 Q1768.52 310.572 1764.52 310.572 Q1762.64 310.572 1760.77 310.989 Q1758.92 311.405 1756.97 312.285 L1756.97 294.924 Z" fill="#000000" fill-rule="evenodd" fill-opacity="1" /><polyline clip-path="url(#clip050)" style="stroke:#0000ff; stroke-width:4; stroke-opacity:1; fill:none" points="
  1533.86,372.684 1677.86,372.684 
  "/>
<path clip-path="url(#clip050)" d="M 0 0 M1722.2 369.015 Q1723.8 366.145 1726.02 364.779 Q1728.24 363.413 1731.25 363.413 Q1735.3 363.413 1737.5 366.261 Q1739.7 369.085 1739.7 374.316 L1739.7 389.964 L1735.42 389.964 L1735.42 374.455 Q1735.42 370.728 1734.1 368.923 Q1732.78 367.117 1730.07 367.117 Q1726.76 367.117 1724.84 369.316 Q1722.92 371.515 1722.92 375.311 L1722.92 389.964 L1718.64 389.964 L1718.64 374.455 Q1718.64 370.705 1717.32 368.923 Q1716 367.117 1713.24 367.117 Q1709.98 367.117 1708.06 369.339 Q1706.14 371.538 1706.14 375.311 L1706.14 389.964 L1701.86 389.964 L1701.86 364.038 L1706.14 364.038 L1706.14 368.066 Q1707.6 365.682 1709.63 364.548 Q1711.67 363.413 1714.47 363.413 Q1717.3 363.413 1719.26 364.848 Q1721.25 366.284 1722.2 369.015 Z" fill="#000000" fill-rule="evenodd" fill-opacity="1" /><path clip-path="url(#clip050)" d="M 0 0 M1766.35 375.936 L1766.35 378.02 L1746.76 378.02 Q1747.04 382.418 1749.4 384.733 Q1751.79 387.024 1756.02 387.024 Q1758.48 387.024 1760.77 386.422 Q1763.08 385.821 1765.35 384.617 L1765.35 388.645 Q1763.06 389.617 1760.65 390.126 Q1758.24 390.635 1755.77 390.635 Q1749.56 390.635 1745.93 387.024 Q1742.32 383.413 1742.32 377.256 Q1742.32 370.89 1745.74 367.163 Q1749.19 363.413 1755.03 363.413 Q1760.26 363.413 1763.29 366.793 Q1766.35 370.149 1766.35 375.936 M1762.09 374.686 Q1762.04 371.191 1760.12 369.108 Q1758.22 367.024 1755.07 367.024 Q1751.51 367.024 1749.36 369.038 Q1747.23 371.052 1746.9 374.71 L1762.09 374.686 Z" fill="#000000" fill-rule="evenodd" fill-opacity="1" /><path clip-path="url(#clip050)" d="M 0 0 M1782.6 376.932 Q1777.43 376.932 1775.44 378.112 Q1773.45 379.293 1773.45 382.14 Q1773.45 384.409 1774.93 385.751 Q1776.44 387.071 1779.01 387.071 Q1782.55 387.071 1784.68 384.571 Q1786.83 382.047 1786.83 377.881 L1786.83 376.932 L1782.6 376.932 M1791.09 375.173 L1791.09 389.964 L1786.83 389.964 L1786.83 386.029 Q1785.37 388.39 1783.2 389.524 Q1781.02 390.635 1777.87 390.635 Q1773.89 390.635 1771.53 388.413 Q1769.19 386.168 1769.19 382.418 Q1769.19 378.043 1772.11 375.821 Q1775.05 373.598 1780.86 373.598 L1786.83 373.598 L1786.83 373.182 Q1786.83 370.242 1784.89 368.645 Q1782.97 367.024 1779.47 367.024 Q1777.25 367.024 1775.14 367.557 Q1773.04 368.089 1771.09 369.154 L1771.09 365.219 Q1773.43 364.316 1775.63 363.876 Q1777.83 363.413 1779.91 363.413 Q1785.54 363.413 1788.31 366.33 Q1791.09 369.247 1791.09 375.173 Z" fill="#000000" fill-rule="evenodd" fill-opacity="1" /><path clip-path="url(#clip050)" d="M 0 0 M1817.11 374.316 L1817.11 389.964 L1812.85 389.964 L1812.85 374.455 Q1812.85 370.774 1811.42 368.946 Q1809.98 367.117 1807.11 367.117 Q1803.66 367.117 1801.67 369.316 Q1799.68 371.515 1799.68 375.311 L1799.68 389.964 L1795.4 389.964 L1795.4 364.038 L1799.68 364.038 L1799.68 368.066 Q1801.21 365.728 1803.27 364.571 Q1805.35 363.413 1808.06 363.413 Q1812.53 363.413 1814.82 366.191 Q1817.11 368.946 1817.11 374.316 Z" fill="#000000" fill-rule="evenodd" fill-opacity="1" /><polyline clip-path="url(#clip050)" style="stroke:#000000; stroke-width:4; stroke-opacity:1; fill:none" points="
  1533.86,433.164 1677.86,433.164 
  "/>
<path clip-path="url(#clip050)" d="M 0 0 M1722.2 429.495 Q1723.8 426.625 1726.02 425.259 Q1728.24 423.893 1731.25 423.893 Q1735.3 423.893 1737.5 426.741 Q1739.7 429.565 1739.7 434.796 L1739.7 450.444 L1735.42 450.444 L1735.42 434.935 Q1735.42 431.208 1734.1 429.403 Q1732.78 427.597 1730.07 427.597 Q1726.76 427.597 1724.84 429.796 Q1722.92 431.995 1722.92 435.791 L1722.92 450.444 L1718.64 450.444 L1718.64 434.935 Q1718.64 431.185 1717.32 429.403 Q1716 427.597 1713.24 427.597 Q1709.98 427.597 1708.06 429.819 Q1706.14 432.018 1706.14 435.791 L1706.14 450.444 L1701.86 450.444 L1701.86 424.518 L1706.14 424.518 L1706.14 428.546 Q1707.6 426.162 1709.63 425.028 Q1711.67 423.893 1714.47 423.893 Q1717.3 423.893 1719.26 425.328 Q1721.25 426.764 1722.2 429.495 Z" fill="#000000" fill-rule="evenodd" fill-opacity="1" /><path clip-path="url(#clip050)" d="M 0 0 M1766.35 436.416 L1766.35 438.5 L1746.76 438.5 Q1747.04 442.898 1749.4 445.213 Q1751.79 447.504 1756.02 447.504 Q1758.48 447.504 1760.77 446.902 Q1763.08 446.301 1765.35 445.097 L1765.35 449.125 Q1763.06 450.097 1760.65 450.606 Q1758.24 451.115 1755.77 451.115 Q1749.56 451.115 1745.93 447.504 Q1742.32 443.893 1742.32 437.736 Q1742.32 431.37 1745.74 427.643 Q1749.19 423.893 1755.03 423.893 Q1760.26 423.893 1763.29 427.273 Q1766.35 430.629 1766.35 436.416 M1762.09 435.166 Q1762.04 431.671 1760.12 429.588 Q1758.22 427.504 1755.07 427.504 Q1751.51 427.504 1749.36 429.518 Q1747.23 431.532 1746.9 435.19 L1762.09 435.166 Z" fill="#000000" fill-rule="evenodd" fill-opacity="1" /><path clip-path="url(#clip050)" d="M 0 0 M1787.87 428.453 L1787.87 414.426 L1792.13 414.426 L1792.13 450.444 L1787.87 450.444 L1787.87 446.555 Q1786.53 448.87 1784.47 450.004 Q1782.43 451.115 1779.56 451.115 Q1774.86 451.115 1771.9 447.365 Q1768.96 443.615 1768.96 437.504 Q1768.96 431.393 1771.9 427.643 Q1774.86 423.893 1779.56 423.893 Q1782.43 423.893 1784.47 425.028 Q1786.53 426.139 1787.87 428.453 M1773.36 437.504 Q1773.36 442.203 1775.28 444.889 Q1777.23 447.551 1780.61 447.551 Q1783.99 447.551 1785.93 444.889 Q1787.87 442.203 1787.87 437.504 Q1787.87 432.805 1785.93 430.143 Q1783.99 427.458 1780.61 427.458 Q1777.23 427.458 1775.28 430.143 Q1773.36 432.805 1773.36 437.504 Z" fill="#000000" fill-rule="evenodd" fill-opacity="1" /><path clip-path="url(#clip050)" d="M 0 0 M1796.6 424.518 L1800.86 424.518 L1800.86 450.444 L1796.6 450.444 L1796.6 424.518 M1796.6 414.426 L1800.86 414.426 L1800.86 419.819 L1796.6 419.819 L1796.6 414.426 Z" fill="#000000" fill-rule="evenodd" fill-opacity="1" /><path clip-path="url(#clip050)" d="M 0 0 M1817.11 437.412 Q1811.95 437.412 1809.96 438.592 Q1807.97 439.773 1807.97 442.62 Q1807.97 444.889 1809.45 446.231 Q1810.95 447.551 1813.52 447.551 Q1817.06 447.551 1819.19 445.051 Q1821.35 442.527 1821.35 438.361 L1821.35 437.412 L1817.11 437.412 M1825.61 435.653 L1825.61 450.444 L1821.35 450.444 L1821.35 446.509 Q1819.89 448.87 1817.71 450.004 Q1815.54 451.115 1812.39 451.115 Q1808.41 451.115 1806.05 448.893 Q1803.71 446.648 1803.71 442.898 Q1803.71 438.523 1806.62 436.301 Q1809.56 434.078 1815.37 434.078 L1821.35 434.078 L1821.35 433.662 Q1821.35 430.722 1819.4 429.125 Q1817.48 427.504 1813.99 427.504 Q1811.76 427.504 1809.66 428.037 Q1807.55 428.569 1805.61 429.634 L1805.61 425.699 Q1807.94 424.796 1810.14 424.356 Q1812.34 423.893 1814.42 423.893 Q1820.05 423.893 1822.83 426.81 Q1825.61 429.727 1825.61 435.653 Z" fill="#000000" fill-rule="evenodd" fill-opacity="1" /><path clip-path="url(#clip050)" d="M 0 0 M1851.62 434.796 L1851.62 450.444 L1847.36 450.444 L1847.36 434.935 Q1847.36 431.254 1845.93 429.426 Q1844.49 427.597 1841.62 427.597 Q1838.17 427.597 1836.18 429.796 Q1834.19 431.995 1834.19 435.791 L1834.19 450.444 L1829.91 450.444 L1829.91 424.518 L1834.19 424.518 L1834.19 428.546 Q1835.72 426.208 1837.78 425.051 Q1839.86 423.893 1842.57 423.893 Q1847.04 423.893 1849.33 426.671 Q1851.62 429.426 1851.62 434.796 Z" fill="#000000" fill-rule="evenodd" fill-opacity="1" /></svg>
