<?xml version="1.0" encoding="utf-8"?>
<svg xmlns="http://www.w3.org/2000/svg" xmlns:xlink="http://www.w3.org/1999/xlink" width="600" height="400" viewBox="0 0 2400 1600">
<defs>
  <clipPath id="clip170">
    <rect x="0" y="0" width="2400" height="1600"/>
  </clipPath>
</defs>
<path clip-path="url(#clip170)" d="
M0 1600 L2400 1600 L2400 0 L0 0  Z
  " fill="#ffffff" fill-rule="evenodd" fill-opacity="1"/>
<defs>
  <clipPath id="clip171">
    <rect x="480" y="0" width="1681" height="1600"/>
  </clipPath>
</defs>
<path clip-path="url(#clip170)" d="
M86.9921 1521.01 L2352.76 1521.01 L2352.76 47.2441 L86.9921 47.2441  Z
  " fill="#ffffff" fill-rule="evenodd" fill-opacity="1"/>
<defs>
  <clipPath id="clip172">
    <rect x="86" y="47" width="2267" height="1475"/>
  </clipPath>
</defs>
<polyline clip-path="url(#clip172)" style="stroke:#000000; stroke-width:2; stroke-opacity:0.1; fill:none" points="
  352.845,1521.01 352.845,47.2441 
  "/>
<polyline clip-path="url(#clip172)" style="stroke:#000000; stroke-width:2; stroke-opacity:0.1; fill:none" points="
  746.702,1521.01 746.702,47.2441 
  "/>
<polyline clip-path="url(#clip172)" style="stroke:#000000; stroke-width:2; stroke-opacity:0.1; fill:none" points="
  1140.56,1521.01 1140.56,47.2441 
  "/>
<polyline clip-path="url(#clip172)" style="stroke:#000000; stroke-width:2; stroke-opacity:0.1; fill:none" points="
  1534.42,1521.01 1534.42,47.2441 
  "/>
<polyline clip-path="url(#clip172)" style="stroke:#000000; stroke-width:2; stroke-opacity:0.1; fill:none" points="
  1928.27,1521.01 1928.27,47.2441 
  "/>
<polyline clip-path="url(#clip172)" style="stroke:#000000; stroke-width:2; stroke-opacity:0.1; fill:none" points="
  2322.13,1521.01 2322.13,47.2441 
  "/>
<polyline clip-path="url(#clip172)" style="stroke:#000000; stroke-width:2; stroke-opacity:0.1; fill:none" points="
  86.9921,1479.3 2352.76,1479.3 
  "/>
<polyline clip-path="url(#clip172)" style="stroke:#000000; stroke-width:2; stroke-opacity:0.1; fill:none" points="
  86.9921,1130.75 2352.76,1130.75 
  "/>
<polyline clip-path="url(#clip172)" style="stroke:#000000; stroke-width:2; stroke-opacity:0.1; fill:none" points="
  86.9921,782.196 2352.76,782.196 
  "/>
<polyline clip-path="url(#clip172)" style="stroke:#000000; stroke-width:2; stroke-opacity:0.1; fill:none" points="
  86.9921,433.646 2352.76,433.646 
  "/>
<polyline clip-path="url(#clip172)" style="stroke:#000000; stroke-width:2; stroke-opacity:0.1; fill:none" points="
  86.9921,85.0952 2352.76,85.0952 
  "/>
<polyline clip-path="url(#clip170)" style="stroke:#000000; stroke-width:4; stroke-opacity:1; fill:none" points="
  86.9921,1521.01 2352.76,1521.01 
  "/>
<polyline clip-path="url(#clip170)" style="stroke:#000000; stroke-width:4; stroke-opacity:1; fill:none" points="
  86.9921,1521.01 86.9921,47.2441 
  "/>
<polyline clip-path="url(#clip170)" style="stroke:#000000; stroke-width:4; stroke-opacity:1; fill:none" points="
  352.845,1521.01 352.845,1503.32 
  "/>
<polyline clip-path="url(#clip170)" style="stroke:#000000; stroke-width:4; stroke-opacity:1; fill:none" points="
  746.702,1521.01 746.702,1503.32 
  "/>
<polyline clip-path="url(#clip170)" style="stroke:#000000; stroke-width:4; stroke-opacity:1; fill:none" points="
  1140.56,1521.01 1140.56,1503.32 
  "/>
<polyline clip-path="url(#clip170)" style="stroke:#000000; stroke-width:4; stroke-opacity:1; fill:none" points="
  1534.42,1521.01 1534.42,1503.32 
  "/>
<polyline clip-path="url(#clip170)" style="stroke:#000000; stroke-width:4; stroke-opacity:1; fill:none" points="
  1928.27,1521.01 1928.27,1503.32 
  "/>
<polyline clip-path="url(#clip170)" style="stroke:#000000; stroke-width:4; stroke-opacity:1; fill:none" points="
  2322.13,1521.01 2322.13,1503.32 
  "/>
<polyline clip-path="url(#clip170)" style="stroke:#000000; stroke-width:4; stroke-opacity:1; fill:none" points="
  86.9921,1479.3 114.181,1479.3 
  "/>
<polyline clip-path="url(#clip170)" style="stroke:#000000; stroke-width:4; stroke-opacity:1; fill:none" points="
  86.9921,1130.75 114.181,1130.75 
  "/>
<polyline clip-path="url(#clip170)" style="stroke:#000000; stroke-width:4; stroke-opacity:1; fill:none" points="
  86.9921,782.196 114.181,782.196 
  "/>
<polyline clip-path="url(#clip170)" style="stroke:#000000; stroke-width:4; stroke-opacity:1; fill:none" points="
  86.9921,433.646 114.181,433.646 
  "/>
<polyline clip-path="url(#clip170)" style="stroke:#000000; stroke-width:4; stroke-opacity:1; fill:none" points="
  86.9921,85.0952 114.181,85.0952 
  "/>
<path clip-path="url(#clip170)" d="M 0 0 M321.966 1543 Q318.355 1543 316.526 1546.56 Q314.72 1550.11 314.72 1557.23 Q314.72 1564.34 316.526 1567.91 Q318.355 1571.45 321.966 1571.45 Q325.6 1571.45 327.405 1567.91 Q329.234 1564.34 329.234 1557.23 Q329.234 1550.11 327.405 1546.56 Q325.6 1543 321.966 1543 M321.966 1539.29 Q327.776 1539.29 330.831 1543.9 Q333.91 1548.48 333.91 1557.23 Q333.91 1565.96 330.831 1570.57 Q327.776 1575.15 321.966 1575.15 Q316.156 1575.15 313.077 1570.57 Q310.021 1565.96 310.021 1557.23 Q310.021 1548.48 313.077 1543.9 Q316.156 1539.29 321.966 1539.29 Z" fill="#000000" fill-rule="evenodd" fill-opacity="1" /><path clip-path="url(#clip170)" d="M 0 0 M338.979 1568.6 L343.864 1568.6 L343.864 1574.48 L338.979 1574.48 L338.979 1568.6 Z" fill="#000000" fill-rule="evenodd" fill-opacity="1" /><path clip-path="url(#clip170)" d="M 0 0 M349.743 1570.54 L357.382 1570.54 L357.382 1544.18 L349.072 1545.85 L349.072 1541.59 L357.336 1539.92 L362.012 1539.92 L362.012 1570.54 L369.651 1570.54 L369.651 1574.48 L349.743 1574.48 L349.743 1570.54 Z" fill="#000000" fill-rule="evenodd" fill-opacity="1" /><path clip-path="url(#clip170)" d="M 0 0 M374.766 1539.92 L393.123 1539.92 L393.123 1543.86 L379.049 1543.86 L379.049 1552.33 Q380.067 1551.98 381.086 1551.82 Q382.104 1551.63 383.123 1551.63 Q388.91 1551.63 392.289 1554.8 Q395.669 1557.98 395.669 1563.39 Q395.669 1568.97 392.197 1572.07 Q388.725 1575.15 382.405 1575.15 Q380.229 1575.15 377.961 1574.78 Q375.715 1574.41 373.308 1573.67 L373.308 1568.97 Q375.391 1570.1 377.614 1570.66 Q379.836 1571.22 382.313 1571.22 Q386.317 1571.22 388.655 1569.11 Q390.993 1567 390.993 1563.39 Q390.993 1559.78 388.655 1557.67 Q386.317 1555.57 382.313 1555.57 Q380.438 1555.57 378.563 1555.98 Q376.711 1556.4 374.766 1557.28 L374.766 1539.92 Z" fill="#000000" fill-rule="evenodd" fill-opacity="1" /><path clip-path="url(#clip170)" d="M 0 0 M715.511 1543 Q711.899 1543 710.071 1546.56 Q708.265 1550.11 708.265 1557.23 Q708.265 1564.34 710.071 1567.91 Q711.899 1571.45 715.511 1571.45 Q719.145 1571.45 720.95 1567.91 Q722.779 1564.34 722.779 1557.23 Q722.779 1550.11 720.95 1546.56 Q719.145 1543 715.511 1543 M715.511 1539.29 Q721.321 1539.29 724.376 1543.9 Q727.455 1548.48 727.455 1557.23 Q727.455 1565.96 724.376 1570.57 Q721.321 1575.15 715.511 1575.15 Q709.7 1575.15 706.622 1570.57 Q703.566 1565.96 703.566 1557.23 Q703.566 1548.48 706.622 1543.9 Q709.7 1539.29 715.511 1539.29 Z" fill="#000000" fill-rule="evenodd" fill-opacity="1" /><path clip-path="url(#clip170)" d="M 0 0 M732.524 1568.6 L737.409 1568.6 L737.409 1574.48 L732.524 1574.48 L732.524 1568.6 Z" fill="#000000" fill-rule="evenodd" fill-opacity="1" /><path clip-path="url(#clip170)" d="M 0 0 M746.506 1570.54 L762.825 1570.54 L762.825 1574.48 L740.881 1574.48 L740.881 1570.54 Q743.543 1567.79 748.126 1563.16 Q752.733 1558.51 753.913 1557.17 Q756.158 1554.64 757.038 1552.91 Q757.941 1551.15 757.941 1549.46 Q757.941 1546.7 755.996 1544.97 Q754.075 1543.23 750.973 1543.23 Q748.774 1543.23 746.321 1543.99 Q743.89 1544.76 741.112 1546.31 L741.112 1541.59 Q743.936 1540.45 746.39 1539.87 Q748.844 1539.29 750.881 1539.29 Q756.251 1539.29 759.445 1541.98 Q762.64 1544.67 762.64 1549.16 Q762.64 1551.29 761.83 1553.21 Q761.043 1555.1 758.936 1557.7 Q758.358 1558.37 755.256 1561.59 Q752.154 1564.78 746.506 1570.54 Z" fill="#000000" fill-rule="evenodd" fill-opacity="1" /><path clip-path="url(#clip170)" d="M 0 0 M777.894 1543 Q774.283 1543 772.455 1546.56 Q770.649 1550.11 770.649 1557.23 Q770.649 1564.34 772.455 1567.91 Q774.283 1571.45 777.894 1571.45 Q781.529 1571.45 783.334 1567.91 Q785.163 1564.34 785.163 1557.23 Q785.163 1550.11 783.334 1546.56 Q781.529 1543 777.894 1543 M777.894 1539.29 Q783.705 1539.29 786.76 1543.9 Q789.839 1548.48 789.839 1557.23 Q789.839 1565.96 786.76 1570.57 Q783.705 1575.15 777.894 1575.15 Q772.084 1575.15 769.006 1570.57 Q765.95 1565.96 765.95 1557.23 Q765.95 1548.48 769.006 1543.9 Q772.084 1539.29 777.894 1539.29 Z" fill="#000000" fill-rule="evenodd" fill-opacity="1" /><path clip-path="url(#clip170)" d="M 0 0 M1109.87 1543 Q1106.25 1543 1104.43 1546.56 Q1102.62 1550.11 1102.62 1557.23 Q1102.62 1564.34 1104.43 1567.91 Q1106.25 1571.45 1109.87 1571.45 Q1113.5 1571.45 1115.31 1567.91 Q1117.13 1564.34 1117.13 1557.23 Q1117.13 1550.11 1115.31 1546.56 Q1113.5 1543 1109.87 1543 M1109.87 1539.29 Q1115.68 1539.29 1118.73 1543.9 Q1121.81 1548.48 1121.81 1557.23 Q1121.81 1565.96 1118.73 1570.57 Q1115.68 1575.15 1109.87 1575.15 Q1104.06 1575.15 1100.98 1570.57 Q1097.92 1565.96 1097.92 1557.23 Q1097.92 1548.48 1100.98 1543.9 Q1104.06 1539.29 1109.87 1539.29 Z" fill="#000000" fill-rule="evenodd" fill-opacity="1" /><path clip-path="url(#clip170)" d="M 0 0 M1126.88 1568.6 L1131.76 1568.6 L1131.76 1574.48 L1126.88 1574.48 L1126.88 1568.6 Z" fill="#000000" fill-rule="evenodd" fill-opacity="1" /><path clip-path="url(#clip170)" d="M 0 0 M1140.86 1570.54 L1157.18 1570.54 L1157.18 1574.48 L1135.24 1574.48 L1135.24 1570.54 Q1137.9 1567.79 1142.48 1563.16 Q1147.09 1558.51 1148.27 1557.17 Q1150.51 1554.64 1151.39 1552.91 Q1152.3 1551.15 1152.3 1549.46 Q1152.3 1546.7 1150.35 1544.97 Q1148.43 1543.23 1145.33 1543.23 Q1143.13 1543.23 1140.68 1543.99 Q1138.25 1544.76 1135.47 1546.31 L1135.47 1541.59 Q1138.29 1540.45 1140.74 1539.87 Q1143.2 1539.29 1145.24 1539.29 Q1150.61 1539.29 1153.8 1541.98 Q1156.99 1544.67 1156.99 1549.16 Q1156.99 1551.29 1156.18 1553.21 Q1155.4 1555.1 1153.29 1557.7 Q1152.71 1558.37 1149.61 1561.59 Q1146.51 1564.78 1140.86 1570.54 Z" fill="#000000" fill-rule="evenodd" fill-opacity="1" /><path clip-path="url(#clip170)" d="M 0 0 M1162.3 1539.92 L1180.65 1539.92 L1180.65 1543.86 L1166.58 1543.86 L1166.58 1552.33 Q1167.6 1551.98 1168.62 1551.82 Q1169.63 1551.63 1170.65 1551.63 Q1176.44 1551.63 1179.82 1554.8 Q1183.2 1557.98 1183.2 1563.39 Q1183.2 1568.97 1179.73 1572.07 Q1176.25 1575.15 1169.93 1575.15 Q1167.76 1575.15 1165.49 1574.78 Q1163.24 1574.41 1160.84 1573.67 L1160.84 1568.97 Q1162.92 1570.1 1165.14 1570.66 Q1167.37 1571.22 1169.84 1571.22 Q1173.85 1571.22 1176.18 1569.11 Q1178.52 1567 1178.52 1563.39 Q1178.52 1559.78 1176.18 1557.67 Q1173.85 1555.57 1169.84 1555.57 Q1167.97 1555.57 1166.09 1555.98 Q1164.24 1556.4 1162.3 1557.28 L1162.3 1539.92 Z" fill="#000000" fill-rule="evenodd" fill-opacity="1" /><path clip-path="url(#clip170)" d="M 0 0 M1502.75 1543 Q1499.14 1543 1497.31 1546.56 Q1495.51 1550.11 1495.51 1557.23 Q1495.51 1564.34 1497.31 1567.91 Q1499.14 1571.45 1502.75 1571.45 Q1506.38 1571.45 1508.19 1567.91 Q1510.02 1564.34 1510.02 1557.23 Q1510.02 1550.11 1508.19 1546.56 Q1506.38 1543 1502.75 1543 M1502.75 1539.29 Q1508.56 1539.29 1511.62 1543.9 Q1514.7 1548.48 1514.7 1557.23 Q1514.7 1565.96 1511.62 1570.57 Q1508.56 1575.15 1502.75 1575.15 Q1496.94 1575.15 1493.86 1570.57 Q1490.81 1565.96 1490.81 1557.23 Q1490.81 1548.48 1493.86 1543.9 Q1496.94 1539.29 1502.75 1539.29 Z" fill="#000000" fill-rule="evenodd" fill-opacity="1" /><path clip-path="url(#clip170)" d="M 0 0 M1519.76 1568.6 L1524.65 1568.6 L1524.65 1574.48 L1519.76 1574.48 L1519.76 1568.6 Z" fill="#000000" fill-rule="evenodd" fill-opacity="1" /><path clip-path="url(#clip170)" d="M 0 0 M1543.88 1555.85 Q1547.24 1556.56 1549.12 1558.83 Q1551.01 1561.1 1551.01 1564.43 Q1551.01 1569.55 1547.5 1572.35 Q1543.98 1575.15 1537.5 1575.15 Q1535.32 1575.15 1533.01 1574.71 Q1530.71 1574.29 1528.26 1573.44 L1528.26 1568.92 Q1530.2 1570.06 1532.52 1570.64 Q1534.83 1571.22 1537.36 1571.22 Q1541.76 1571.22 1544.05 1569.48 Q1546.36 1567.74 1546.36 1564.43 Q1546.36 1561.38 1544.21 1559.67 Q1542.08 1557.93 1538.26 1557.93 L1534.23 1557.93 L1534.23 1554.09 L1538.44 1554.09 Q1541.89 1554.09 1543.72 1552.72 Q1545.55 1551.33 1545.55 1548.74 Q1545.55 1546.08 1543.65 1544.67 Q1541.78 1543.23 1538.26 1543.23 Q1536.34 1543.23 1534.14 1543.65 Q1531.94 1544.06 1529.3 1544.94 L1529.3 1540.78 Q1531.96 1540.04 1534.28 1539.67 Q1536.62 1539.29 1538.68 1539.29 Q1544 1539.29 1547.1 1541.73 Q1550.2 1544.13 1550.2 1548.25 Q1550.2 1551.12 1548.56 1553.11 Q1546.92 1555.08 1543.88 1555.85 Z" fill="#000000" fill-rule="evenodd" fill-opacity="1" /><path clip-path="url(#clip170)" d="M 0 0 M1566.08 1543 Q1562.47 1543 1560.64 1546.56 Q1558.84 1550.11 1558.84 1557.23 Q1558.84 1564.34 1560.64 1567.91 Q1562.47 1571.45 1566.08 1571.45 Q1569.72 1571.45 1571.52 1567.91 Q1573.35 1564.34 1573.35 1557.23 Q1573.35 1550.11 1571.52 1546.56 Q1569.72 1543 1566.08 1543 M1566.08 1539.29 Q1571.89 1539.29 1574.95 1543.9 Q1578.03 1548.48 1578.03 1557.23 Q1578.03 1565.96 1574.95 1570.57 Q1571.89 1575.15 1566.08 1575.15 Q1560.27 1575.15 1557.19 1570.57 Q1554.14 1565.96 1554.14 1557.23 Q1554.14 1548.48 1557.19 1543.9 Q1560.27 1539.29 1566.08 1539.29 Z" fill="#000000" fill-rule="evenodd" fill-opacity="1" /><path clip-path="url(#clip170)" d="M 0 0 M1897.11 1543 Q1893.49 1543 1891.67 1546.56 Q1889.86 1550.11 1889.86 1557.23 Q1889.86 1564.34 1891.67 1567.91 Q1893.49 1571.45 1897.11 1571.45 Q1900.74 1571.45 1902.55 1567.91 Q1904.37 1564.34 1904.37 1557.23 Q1904.37 1550.11 1902.55 1546.56 Q1900.74 1543 1897.11 1543 M1897.11 1539.29 Q1902.92 1539.29 1905.97 1543.9 Q1909.05 1548.48 1909.05 1557.23 Q1909.05 1565.96 1905.97 1570.57 Q1902.92 1575.15 1897.11 1575.15 Q1891.3 1575.15 1888.22 1570.57 Q1885.16 1565.96 1885.16 1557.23 Q1885.16 1548.48 1888.22 1543.9 Q1891.3 1539.29 1897.11 1539.29 Z" fill="#000000" fill-rule="evenodd" fill-opacity="1" /><path clip-path="url(#clip170)" d="M 0 0 M1914.12 1568.6 L1919 1568.6 L1919 1574.48 L1914.12 1574.48 L1914.12 1568.6 Z" fill="#000000" fill-rule="evenodd" fill-opacity="1" /><path clip-path="url(#clip170)" d="M 0 0 M1938.24 1555.85 Q1941.6 1556.56 1943.47 1558.83 Q1945.37 1561.1 1945.37 1564.43 Q1945.37 1569.55 1941.85 1572.35 Q1938.33 1575.15 1931.85 1575.15 Q1929.67 1575.15 1927.36 1574.71 Q1925.07 1574.29 1922.61 1573.44 L1922.61 1568.92 Q1924.56 1570.06 1926.87 1570.64 Q1929.19 1571.22 1931.71 1571.22 Q1936.11 1571.22 1938.4 1569.48 Q1940.72 1567.74 1940.72 1564.43 Q1940.72 1561.38 1938.56 1559.67 Q1936.43 1557.93 1932.61 1557.93 L1928.59 1557.93 L1928.59 1554.09 L1932.8 1554.09 Q1936.25 1554.09 1938.08 1552.72 Q1939.91 1551.33 1939.91 1548.74 Q1939.91 1546.08 1938.01 1544.67 Q1936.13 1543.23 1932.61 1543.23 Q1930.69 1543.23 1928.49 1543.65 Q1926.3 1544.06 1923.66 1544.94 L1923.66 1540.78 Q1926.32 1540.04 1928.63 1539.67 Q1930.97 1539.29 1933.03 1539.29 Q1938.36 1539.29 1941.46 1541.73 Q1944.56 1544.13 1944.56 1548.25 Q1944.56 1551.12 1942.92 1553.11 Q1941.27 1555.08 1938.24 1555.85 Z" fill="#000000" fill-rule="evenodd" fill-opacity="1" /><path clip-path="url(#clip170)" d="M 0 0 M1950.48 1539.92 L1968.84 1539.92 L1968.84 1543.86 L1954.77 1543.86 L1954.77 1552.33 Q1955.79 1551.98 1956.8 1551.82 Q1957.82 1551.63 1958.84 1551.63 Q1964.63 1551.63 1968.01 1554.8 Q1971.39 1557.98 1971.39 1563.39 Q1971.39 1568.97 1967.92 1572.07 Q1964.44 1575.15 1958.12 1575.15 Q1955.95 1575.15 1953.68 1574.78 Q1951.43 1574.41 1949.03 1573.67 L1949.03 1568.97 Q1951.11 1570.1 1953.33 1570.66 Q1955.55 1571.22 1958.03 1571.22 Q1962.04 1571.22 1964.37 1569.11 Q1966.71 1567 1966.71 1563.39 Q1966.71 1559.78 1964.37 1557.67 Q1962.04 1555.57 1958.03 1555.57 Q1956.16 1555.57 1954.28 1555.98 Q1952.43 1556.4 1950.48 1557.28 L1950.48 1539.92 Z" fill="#000000" fill-rule="evenodd" fill-opacity="1" /><path clip-path="url(#clip170)" d="M 0 0 M2289.9 1543 Q2286.29 1543 2284.46 1546.56 Q2282.65 1550.11 2282.65 1557.23 Q2282.65 1564.34 2284.46 1567.91 Q2286.29 1571.45 2289.9 1571.45 Q2293.53 1571.45 2295.34 1567.91 Q2297.17 1564.34 2297.17 1557.23 Q2297.17 1550.11 2295.34 1546.56 Q2293.53 1543 2289.9 1543 M2289.9 1539.29 Q2295.71 1539.29 2298.76 1543.9 Q2301.84 1548.48 2301.84 1557.23 Q2301.84 1565.96 2298.76 1570.57 Q2295.71 1575.15 2289.9 1575.15 Q2284.09 1575.15 2281.01 1570.57 Q2277.95 1565.96 2277.95 1557.23 Q2277.95 1548.48 2281.01 1543.9 Q2284.09 1539.29 2289.9 1539.29 Z" fill="#000000" fill-rule="evenodd" fill-opacity="1" /><path clip-path="url(#clip170)" d="M 0 0 M2306.91 1568.6 L2311.8 1568.6 L2311.8 1574.48 L2306.91 1574.48 L2306.91 1568.6 Z" fill="#000000" fill-rule="evenodd" fill-opacity="1" /><path clip-path="url(#clip170)" d="M 0 0 M2329.71 1543.99 L2317.91 1562.44 L2329.71 1562.44 L2329.71 1543.99 M2328.49 1539.92 L2334.37 1539.92 L2334.37 1562.44 L2339.3 1562.44 L2339.3 1566.33 L2334.37 1566.33 L2334.37 1574.48 L2329.71 1574.48 L2329.71 1566.33 L2314.11 1566.33 L2314.11 1561.82 L2328.49 1539.92 Z" fill="#000000" fill-rule="evenodd" fill-opacity="1" /><path clip-path="url(#clip170)" d="M 0 0 M2354.37 1543 Q2350.75 1543 2348.93 1546.56 Q2347.12 1550.11 2347.12 1557.23 Q2347.12 1564.34 2348.93 1567.91 Q2350.75 1571.45 2354.37 1571.45 Q2358 1571.45 2359.81 1567.91 Q2361.63 1564.34 2361.63 1557.23 Q2361.63 1550.11 2359.81 1546.56 Q2358 1543 2354.37 1543 M2354.37 1539.29 Q2360.18 1539.29 2363.23 1543.9 Q2366.31 1548.48 2366.31 1557.23 Q2366.31 1565.96 2363.23 1570.57 Q2360.18 1575.15 2354.37 1575.15 Q2348.56 1575.15 2345.48 1570.57 Q2342.42 1565.96 2342.42 1557.23 Q2342.42 1548.48 2345.48 1543.9 Q2348.56 1539.29 2354.37 1539.29 Z" fill="#000000" fill-rule="evenodd" fill-opacity="1" /><path clip-path="url(#clip170)" d="M 0 0 M14.0804 1465.1 Q10.4693 1465.1 8.64057 1468.66 Q6.83502 1472.2 6.83502 1479.33 Q6.83502 1486.44 8.64057 1490 Q10.4693 1493.55 14.0804 1493.55 Q17.7146 1493.55 19.5201 1490 Q21.3488 1486.44 21.3488 1479.33 Q21.3488 1472.2 19.5201 1468.66 Q17.7146 1465.1 14.0804 1465.1 M14.0804 1461.39 Q19.8905 1461.39 22.946 1466 Q26.0247 1470.58 26.0247 1479.33 Q26.0247 1488.06 22.946 1492.67 Q19.8905 1497.25 14.0804 1497.25 Q8.2702 1497.25 5.19151 1492.67 Q2.13597 1488.06 2.13597 1479.33 Q2.13597 1470.58 5.19151 1466 Q8.2702 1461.39 14.0804 1461.39 Z" fill="#000000" fill-rule="evenodd" fill-opacity="1" /><path clip-path="url(#clip170)" d="M 0 0 M31.0941 1490.7 L35.9784 1490.7 L35.9784 1496.58 L31.0941 1496.58 L31.0941 1490.7 Z" fill="#000000" fill-rule="evenodd" fill-opacity="1" /><path clip-path="url(#clip170)" d="M 0 0 M51.0477 1465.1 Q47.4367 1465.1 45.608 1468.66 Q43.8024 1472.2 43.8024 1479.33 Q43.8024 1486.44 45.608 1490 Q47.4367 1493.55 51.0477 1493.55 Q54.682 1493.55 56.4875 1490 Q58.3162 1486.44 58.3162 1479.33 Q58.3162 1472.2 56.4875 1468.66 Q54.682 1465.1 51.0477 1465.1 M51.0477 1461.39 Q56.8579 1461.39 59.9134 1466 Q62.9921 1470.58 62.9921 1479.33 Q62.9921 1488.06 59.9134 1492.67 Q56.8579 1497.25 51.0477 1497.25 Q45.2376 1497.25 42.1589 1492.67 Q39.1034 1488.06 39.1034 1479.33 Q39.1034 1470.58 42.1589 1466 Q45.2376 1461.39 51.0477 1461.39 Z" fill="#000000" fill-rule="evenodd" fill-opacity="1" /><path clip-path="url(#clip170)" d="M 0 0 M10.7007 1144.09 L27.0201 1144.09 L27.0201 1148.03 L5.07577 1148.03 L5.07577 1144.09 Q7.73779 1141.34 12.3211 1136.71 Q16.9276 1132.05 18.1081 1130.71 Q20.3535 1128.19 21.2331 1126.45 Q22.1359 1124.69 22.1359 1123 Q22.1359 1120.25 20.1914 1118.51 Q18.2701 1116.78 15.1683 1116.78 Q12.9692 1116.78 10.5156 1117.54 Q8.08501 1118.3 5.30725 1119.86 L5.30725 1115.13 Q8.13131 1114 10.585 1113.42 Q13.0387 1112.84 15.0757 1112.84 Q20.4461 1112.84 23.6405 1115.53 Q26.8349 1118.21 26.8349 1122.7 Q26.8349 1124.83 26.0247 1126.75 Q25.2377 1128.65 23.1312 1131.24 Q22.5525 1131.92 19.4507 1135.13 Q16.3489 1138.33 10.7007 1144.09 Z" fill="#000000" fill-rule="evenodd" fill-opacity="1" /><path clip-path="url(#clip170)" d="M 0 0 M32.0895 1142.15 L36.9737 1142.15 L36.9737 1148.03 L32.0895 1148.03 L32.0895 1142.15 Z" fill="#000000" fill-rule="evenodd" fill-opacity="1" /><path clip-path="url(#clip170)" d="M 0 0 M42.0895 1113.47 L60.4458 1113.47 L60.4458 1117.4 L46.3718 1117.4 L46.3718 1125.87 Q47.3904 1125.53 48.4089 1125.37 Q49.4274 1125.18 50.4459 1125.18 Q56.2329 1125.18 59.6125 1128.35 Q62.9921 1131.52 62.9921 1136.94 Q62.9921 1142.52 59.5199 1145.62 Q56.0477 1148.7 49.7283 1148.7 Q47.5524 1148.7 45.2839 1148.33 Q43.0385 1147.96 40.6311 1147.22 L40.6311 1142.52 Q42.7145 1143.65 44.9367 1144.21 Q47.1589 1144.76 49.6357 1144.76 Q53.6403 1144.76 55.9783 1142.66 Q58.3162 1140.55 58.3162 1136.94 Q58.3162 1133.33 55.9783 1131.22 Q53.6403 1129.12 49.6357 1129.12 Q47.7607 1129.12 45.8857 1129.53 Q44.0339 1129.95 42.0895 1130.83 L42.0895 1113.47 Z" fill="#000000" fill-rule="evenodd" fill-opacity="1" /><path clip-path="url(#clip170)" d="M 0 0 M5.12207 764.916 L23.4784 764.916 L23.4784 768.852 L9.40445 768.852 L9.40445 777.324 Q10.423 776.977 11.4415 776.814 Q12.46 776.629 13.4785 776.629 Q19.2655 776.629 22.6451 779.801 Q26.0247 782.972 26.0247 788.388 Q26.0247 793.967 22.5525 797.069 Q19.0803 800.148 12.7609 800.148 Q10.585 800.148 8.31649 799.777 Q6.07113 799.407 3.66374 798.666 L3.66374 793.967 Q5.74706 795.101 7.96927 795.657 Q10.1915 796.213 12.6683 796.213 Q16.6729 796.213 19.0109 794.106 Q21.3488 792 21.3488 788.388 Q21.3488 784.777 19.0109 782.671 Q16.6729 780.564 12.6683 780.564 Q10.7933 780.564 8.91834 780.981 Q7.0665 781.398 5.12207 782.277 L5.12207 764.916 Z" fill="#000000" fill-rule="evenodd" fill-opacity="1" /><path clip-path="url(#clip170)" d="M 0 0 M31.0941 793.597 L35.9784 793.597 L35.9784 799.476 L31.0941 799.476 L31.0941 793.597 Z" fill="#000000" fill-rule="evenodd" fill-opacity="1" /><path clip-path="url(#clip170)" d="M 0 0 M51.0477 767.995 Q47.4367 767.995 45.608 771.56 Q43.8024 775.102 43.8024 782.231 Q43.8024 789.338 45.608 792.902 Q47.4367 796.444 51.0477 796.444 Q54.682 796.444 56.4875 792.902 Q58.3162 789.338 58.3162 782.231 Q58.3162 775.102 56.4875 771.56 Q54.682 767.995 51.0477 767.995 M51.0477 764.291 Q56.8579 764.291 59.9134 768.898 Q62.9921 773.481 62.9921 782.231 Q62.9921 790.958 59.9134 795.564 Q56.8579 800.148 51.0477 800.148 Q45.2376 800.148 42.1589 795.564 Q39.1034 790.958 39.1034 782.231 Q39.1034 773.481 42.1589 768.898 Q45.2376 764.291 51.0477 764.291 Z" fill="#000000" fill-rule="evenodd" fill-opacity="1" /><path clip-path="url(#clip170)" d="M 0 0 M4.79799 416.366 L27.0201 416.366 L27.0201 418.357 L14.4739 450.926 L9.58963 450.926 L21.3951 420.301 L4.79799 420.301 L4.79799 416.366 Z" fill="#000000" fill-rule="evenodd" fill-opacity="1" /><path clip-path="url(#clip170)" d="M 0 0 M32.0895 445.046 L36.9737 445.046 L36.9737 450.926 L32.0895 450.926 L32.0895 445.046 Z" fill="#000000" fill-rule="evenodd" fill-opacity="1" /><path clip-path="url(#clip170)" d="M 0 0 M42.0895 416.366 L60.4458 416.366 L60.4458 420.301 L46.3718 420.301 L46.3718 428.773 Q47.3904 428.426 48.4089 428.264 Q49.4274 428.079 50.4459 428.079 Q56.2329 428.079 59.6125 431.25 Q62.9921 434.421 62.9921 439.838 Q62.9921 445.417 59.5199 448.518 Q56.0477 451.597 49.7283 451.597 Q47.5524 451.597 45.2839 451.227 Q43.0385 450.856 40.6311 450.116 L40.6311 445.417 Q42.7145 446.551 44.9367 447.106 Q47.1589 447.662 49.6357 447.662 Q53.6403 447.662 55.9783 445.555 Q58.3162 443.449 58.3162 439.838 Q58.3162 436.227 55.9783 434.12 Q53.6403 432.014 49.6357 432.014 Q47.7607 432.014 45.8857 432.431 Q44.0339 432.847 42.0895 433.727 L42.0895 416.366 Z" fill="#000000" fill-rule="evenodd" fill-opacity="1" /><path clip-path="url(#clip170)" d="M 0 0 M-20.8963 98.44 L-13.2575 98.44 L-13.2575 72.0744 L-21.5676 73.7411 L-21.5676 69.4819 L-13.3038 67.8152 L-8.62786 67.8152 L-8.62786 98.44 L-0.989013 98.44 L-0.989013 102.375 L-20.8963 102.375 L-20.8963 98.44 Z" fill="#000000" fill-rule="evenodd" fill-opacity="1" /><path clip-path="url(#clip170)" d="M 0 0 M14.0804 70.8939 Q10.4693 70.8939 8.64057 74.4587 Q6.83502 78.0003 6.83502 85.1299 Q6.83502 92.2364 8.64057 95.8012 Q10.4693 99.3428 14.0804 99.3428 Q17.7146 99.3428 19.5201 95.8012 Q21.3488 92.2364 21.3488 85.1299 Q21.3488 78.0003 19.5201 74.4587 Q17.7146 70.8939 14.0804 70.8939 M14.0804 67.1902 Q19.8905 67.1902 22.946 71.7967 Q26.0247 76.38 26.0247 85.1299 Q26.0247 93.8567 22.946 98.4632 Q19.8905 103.046 14.0804 103.046 Q8.2702 103.046 5.19151 98.4632 Q2.13597 93.8567 2.13597 85.1299 Q2.13597 76.38 5.19151 71.7967 Q8.2702 67.1902 14.0804 67.1902 Z" fill="#000000" fill-rule="evenodd" fill-opacity="1" /><path clip-path="url(#clip170)" d="M 0 0 M31.0941 96.4956 L35.9784 96.4956 L35.9784 102.375 L31.0941 102.375 L31.0941 96.4956 Z" fill="#000000" fill-rule="evenodd" fill-opacity="1" /><path clip-path="url(#clip170)" d="M 0 0 M51.0477 70.8939 Q47.4367 70.8939 45.608 74.4587 Q43.8024 78.0003 43.8024 85.1299 Q43.8024 92.2364 45.608 95.8012 Q47.4367 99.3428 51.0477 99.3428 Q54.682 99.3428 56.4875 95.8012 Q58.3162 92.2364 58.3162 85.1299 Q58.3162 78.0003 56.4875 74.4587 Q54.682 70.8939 51.0477 70.8939 M51.0477 67.1902 Q56.8579 67.1902 59.9134 71.7967 Q62.9921 76.38 62.9921 85.1299 Q62.9921 93.8567 59.9134 98.4632 Q56.8579 103.046 51.0477 103.046 Q45.2376 103.046 42.1589 98.4632 Q39.1034 93.8567 39.1034 85.1299 Q39.1034 76.38 42.1589 71.7967 Q45.2376 67.1902 51.0477 67.1902 Z" fill="#000000" fill-rule="evenodd" fill-opacity="1" /><path clip-path="url(#clip172)" d="
M151.118 1465.7 L156.119 1464.47 L161.12 1463.2 L166.121 1461.88 L171.122 1460.51 L176.123 1459.08 L181.124 1457.58 L186.125 1455.99 L191.126 1454.3 L196.127 1452.48 
  L201.128 1450.52 L206.129 1448.39 L211.13 1446.06 L216.131 1443.53 L221.132 1440.77 L226.133 1437.77 L231.134 1434.53 L236.135 1431.04 L241.136 1427.32 L246.137 1423.39 
  L251.138 1419.3 L256.139 1415.07 L261.14 1410.78 L266.141 1406.49 L271.142 1402.28 L276.143 1398.22 L281.144 1394.39 L286.146 1390.89 L291.147 1387.77 L296.148 1385.1 
  L301.149 1382.94 L306.15 1381.31 L311.151 1380.23 L316.152 1379.7 L321.153 1379.69 L326.154 1380.17 L331.155 1381.08 L336.156 1382.34 L341.157 1383.87 L346.158 1385.59 
  L351.159 1387.41 L356.16 1389.25 L361.161 1391.01 L366.162 1392.63 L371.163 1394.05 L376.164 1395.22 L381.165 1396.1 L386.166 1396.68 L391.167 1396.95 L396.168 1396.9 
  L401.169 1396.57 L406.17 1395.97 L411.171 1395.14 L416.172 1394.11 L421.174 1392.91 L426.175 1391.58 L431.176 1390.14 L436.177 1388.62 L441.178 1387.04 L446.179 1385.39 
  L451.18 1383.69 L456.181 1381.92 L461.182 1380.07 L466.183 1378.11 L471.184 1376.04 L476.185 1373.81 L481.186 1371.41 L486.187 1368.81 L491.188 1366 L496.189 1362.97 
  L501.19 1359.69 L506.191 1356.17 L511.192 1352.41 L516.193 1348.4 L521.194 1344.14 L526.195 1339.64 L531.196 1334.9 L536.197 1329.91 L541.198 1324.66 L546.199 1319.16 
  L551.2 1313.39 L556.201 1307.34 L561.203 1301.01 L566.204 1294.38 L571.205 1287.46 L576.206 1280.24 L581.207 1272.74 L586.208 1264.97 L591.209 1256.96 L596.21 1248.73 
  L601.211 1240.33 L606.212 1231.78 L611.213 1223.14 L616.214 1214.44 L621.215 1205.72 L626.216 1197.02 L631.217 1188.37 L636.218 1179.8 L641.219 1171.33 L646.22 1162.98 
  L646.22 1479.3 L641.219 1479.3 L636.218 1479.3 L631.217 1479.3 L626.216 1479.3 L621.215 1479.3 L616.214 1479.3 L611.213 1479.3 L606.212 1479.3 L601.211 1479.3 
  L596.21 1479.3 L591.209 1479.3 L586.208 1479.3 L581.207 1479.3 L576.206 1479.3 L571.205 1479.3 L566.204 1479.3 L561.203 1479.3 L556.201 1479.3 L551.2 1479.3 
  L546.199 1479.3 L541.198 1479.3 L536.197 1479.3 L531.196 1479.3 L526.195 1479.3 L521.194 1479.3 L516.193 1479.3 L511.192 1479.3 L506.191 1479.3 L501.19 1479.3 
  L496.189 1479.3 L491.188 1479.3 L486.187 1479.3 L481.186 1479.3 L476.185 1479.3 L471.184 1479.3 L466.183 1479.3 L461.182 1479.3 L456.181 1479.3 L451.18 1479.3 
  L446.179 1479.3 L441.178 1479.3 L436.177 1479.3 L431.176 1479.3 L426.175 1479.3 L421.174 1479.3 L416.172 1479.3 L411.171 1479.3 L406.17 1479.3 L401.169 1479.3 
  L396.168 1479.3 L391.167 1479.3 L386.166 1479.3 L381.165 1479.3 L376.164 1479.3 L371.163 1479.3 L366.162 1479.3 L361.161 1479.3 L356.16 1479.3 L351.159 1479.3 
  L346.158 1479.3 L341.157 1479.3 L336.156 1479.3 L331.155 1479.3 L326.154 1479.3 L321.153 1479.3 L316.152 1479.3 L311.151 1479.3 L306.15 1479.3 L301.149 1479.3 
  L296.148 1479.3 L291.147 1479.3 L286.146 1479.3 L281.144 1479.3 L276.143 1479.3 L271.142 1479.3 L266.141 1479.3 L261.14 1479.3 L256.139 1479.3 L251.138 1479.3 
  L246.137 1479.3 L241.136 1479.3 L236.135 1479.3 L231.134 1479.3 L226.133 1479.3 L221.132 1479.3 L216.131 1479.3 L211.13 1479.3 L206.129 1479.3 L201.128 1479.3 
  L196.127 1479.3 L191.126 1479.3 L186.125 1479.3 L181.124 1479.3 L176.123 1479.3 L171.122 1479.3 L166.121 1479.3 L161.12 1479.3 L156.119 1479.3 L151.118 1479.3 
   Z
  " fill="#ffa500" fill-rule="evenodd" fill-opacity="0.5"/>
<polyline clip-path="url(#clip172)" style="stroke:#ffa500; stroke-width:4; stroke-opacity:1; fill:none" points="
  151.118,1465.7 156.119,1464.47 161.12,1463.2 166.121,1461.88 171.122,1460.51 176.123,1459.08 181.124,1457.58 186.125,1455.99 191.126,1454.3 196.127,1452.48 
  201.128,1450.52 206.129,1448.39 211.13,1446.06 216.131,1443.53 221.132,1440.77 226.133,1437.77 231.134,1434.53 236.135,1431.04 241.136,1427.32 246.137,1423.39 
  251.138,1419.3 256.139,1415.07 261.14,1410.78 266.141,1406.49 271.142,1402.28 276.143,1398.22 281.144,1394.39 286.146,1390.89 291.147,1387.77 296.148,1385.1 
  301.149,1382.94 306.15,1381.31 311.151,1380.23 316.152,1379.7 321.153,1379.69 326.154,1380.17 331.155,1381.08 336.156,1382.34 341.157,1383.87 346.158,1385.59 
  351.159,1387.41 356.16,1389.25 361.161,1391.01 366.162,1392.63 371.163,1394.05 376.164,1395.22 381.165,1396.1 386.166,1396.68 391.167,1396.95 396.168,1396.9 
  401.169,1396.57 406.17,1395.97 411.171,1395.14 416.172,1394.11 421.174,1392.91 426.175,1391.58 431.176,1390.14 436.177,1388.62 441.178,1387.04 446.179,1385.39 
  451.18,1383.69 456.181,1381.92 461.182,1380.07 466.183,1378.11 471.184,1376.04 476.185,1373.81 481.186,1371.41 486.187,1368.81 491.188,1366 496.189,1362.97 
  501.19,1359.69 506.191,1356.17 511.192,1352.41 516.193,1348.4 521.194,1344.14 526.195,1339.64 531.196,1334.9 536.197,1329.91 541.198,1324.66 546.199,1319.16 
  551.2,1313.39 556.201,1307.34 561.203,1301.01 566.204,1294.38 571.205,1287.46 576.206,1280.24 581.207,1272.74 586.208,1264.97 591.209,1256.96 596.21,1248.73 
  601.211,1240.33 606.212,1231.78 611.213,1223.14 616.214,1214.44 621.215,1205.72 626.216,1197.02 631.217,1188.37 636.218,1179.8 641.219,1171.33 646.22,1162.98 
  
  "/>
<path clip-path="url(#clip172)" d="
M646.22 1162.98 L657.27 1144.96 L668.321 1127.61 L679.371 1110.99 L690.421 1095.18 L701.472 1080.37 L712.522 1066.75 L723.572 1054.5 L734.623 1043.63 L745.673 1033.91 
  L756.723 1024.83 L767.774 1015.62 L778.824 1005.39 L789.874 993.218 L800.925 978.405 L811.975 960.545 L823.025 939.627 L834.076 916.025 L845.126 890.426 L856.176 863.704 
  L867.227 836.784 L878.277 810.503 L889.327 785.502 L900.378 762.142 L911.428 740.474 L922.478 720.259 L933.529 701.039 L944.579 682.255 L955.629 663.379 L966.679 644.02 
  L977.73 623.978 L988.78 603.236 L999.83 581.908 L1010.88 560.169 L1021.93 538.204 L1032.98 516.186 L1044.03 494.276 L1055.08 472.631 L1066.13 451.409 L1077.18 430.756 
  L1088.23 410.778 L1099.28 391.503 L1110.33 372.827 L1121.38 354.484 L1132.43 336.033 L1143.48 316.904 L1154.53 296.517 L1165.59 274.436 L1176.64 250.54 L1187.69 225.153 
  L1198.74 199.073 L1209.79 173.483 L1220.84 149.757 L1231.89 129.197 L1242.94 112.777 L1253.99 100.947 L1265.04 93.5581 L1276.09 89.9172 L1287.14 88.9544 L1298.19 89.4696 
  L1309.24 90.4034 L1320.29 91.0763 L1331.34 91.3472 L1342.39 91.6559 L1353.44 92.9361 L1364.49 96.4175 L1375.54 103.358 L1386.59 114.769 L1397.64 131.201 L1408.69 152.631 
  L1419.74 178.499 L1430.79 207.856 L1441.84 239.609 L1452.89 272.766 L1463.94 306.631 L1474.99 340.875 L1486.04 375.481 L1497.09 410.587 L1508.15 446.294 L1519.2 482.521 
  L1530.25 518.959 L1541.3 555.15 L1552.35 590.646 L1563.4 625.178 L1574.45 658.758 L1585.5 691.671 L1596.55 724.349 L1607.6 757.174 L1618.65 790.315 L1629.7 823.636 
  L1640.75 856.731 L1651.8 889.051 L1662.85 920.07 L1673.9 949.425 L1684.95 976.987 L1696 1002.85 L1707.05 1027.28 L1718.1 1050.61 L1729.15 1073.21 L1740.2 1095.4 
  L1740.2 1479.3 L1729.15 1479.3 L1718.1 1479.3 L1707.05 1479.3 L1696 1479.3 L1684.95 1479.3 L1673.9 1479.3 L1662.85 1479.3 L1651.8 1479.3 L1640.75 1479.3 
  L1629.7 1479.3 L1618.65 1479.3 L1607.6 1479.3 L1596.55 1479.3 L1585.5 1479.3 L1574.45 1479.3 L1563.4 1479.3 L1552.35 1479.3 L1541.3 1479.3 L1530.25 1479.3 
  L1519.2 1479.3 L1508.15 1479.3 L1497.09 1479.3 L1486.04 1479.3 L1474.99 1479.3 L1463.94 1479.3 L1452.89 1479.3 L1441.84 1479.3 L1430.79 1479.3 L1419.74 1479.3 
  L1408.69 1479.3 L1397.64 1479.3 L1386.59 1479.3 L1375.54 1479.3 L1364.49 1479.3 L1353.44 1479.3 L1342.39 1479.3 L1331.34 1479.3 L1320.29 1479.3 L1309.24 1479.3 
  L1298.19 1479.3 L1287.14 1479.3 L1276.09 1479.3 L1265.04 1479.3 L1253.99 1479.3 L1242.94 1479.3 L1231.89 1479.3 L1220.84 1479.3 L1209.79 1479.3 L1198.74 1479.3 
  L1187.69 1479.3 L1176.64 1479.3 L1165.59 1479.3 L1154.53 1479.3 L1143.48 1479.3 L1132.43 1479.3 L1121.38 1479.3 L1110.33 1479.3 L1099.28 1479.3 L1088.23 1479.3 
  L1077.18 1479.3 L1066.13 1479.3 L1055.08 1479.3 L1044.03 1479.3 L1032.98 1479.3 L1021.93 1479.3 L1010.88 1479.3 L999.83 1479.3 L988.78 1479.3 L977.73 1479.3 
  L966.679 1479.3 L955.629 1479.3 L944.579 1479.3 L933.529 1479.3 L922.478 1479.3 L911.428 1479.3 L900.378 1479.3 L889.327 1479.3 L878.277 1479.3 L867.227 1479.3 
  L856.176 1479.3 L845.126 1479.3 L834.076 1479.3 L823.025 1479.3 L811.975 1479.3 L800.925 1479.3 L789.874 1479.3 L778.824 1479.3 L767.774 1479.3 L756.723 1479.3 
  L745.673 1479.3 L734.623 1479.3 L723.572 1479.3 L712.522 1479.3 L701.472 1479.3 L690.421 1479.3 L679.371 1479.3 L668.321 1479.3 L657.27 1479.3 L646.22 1479.3 
   Z
  " fill="#008000" fill-rule="evenodd" fill-opacity="0.5"/>
<polyline clip-path="url(#clip172)" style="stroke:#008000; stroke-width:4; stroke-opacity:1; fill:none" points="
  646.22,1162.98 657.27,1144.96 668.321,1127.61 679.371,1110.99 690.421,1095.18 701.472,1080.37 712.522,1066.75 723.572,1054.5 734.623,1043.63 745.673,1033.91 
  756.723,1024.83 767.774,1015.62 778.824,1005.39 789.874,993.218 800.925,978.405 811.975,960.545 823.025,939.627 834.076,916.025 845.126,890.426 856.176,863.704 
  867.227,836.784 878.277,810.503 889.327,785.502 900.378,762.142 911.428,740.474 922.478,720.259 933.529,701.039 944.579,682.255 955.629,663.379 966.679,644.02 
  977.73,623.978 988.78,603.236 999.83,581.908 1010.88,560.169 1021.93,538.204 1032.98,516.186 1044.03,494.276 1055.08,472.631 1066.13,451.409 1077.18,430.756 
  1088.23,410.778 1099.28,391.503 1110.33,372.827 1121.38,354.484 1132.43,336.033 1143.48,316.904 1154.53,296.517 1165.59,274.436 1176.64,250.54 1187.69,225.153 
  1198.74,199.073 1209.79,173.483 1220.84,149.757 1231.89,129.197 1242.94,112.777 1253.99,100.947 1265.04,93.5581 1276.09,89.9172 1287.14,88.9544 1298.19,89.4696 
  1309.24,90.4034 1320.29,91.0763 1331.34,91.3472 1342.39,91.6559 1353.44,92.9361 1364.49,96.4175 1375.54,103.358 1386.59,114.769 1397.64,131.201 1408.69,152.631 
  1419.74,178.499 1430.79,207.856 1441.84,239.609 1452.89,272.766 1463.94,306.631 1474.99,340.875 1486.04,375.481 1497.09,410.587 1508.15,446.294 1519.2,482.521 
  1530.25,518.959 1541.3,555.15 1552.35,590.646 1563.4,625.178 1574.45,658.758 1585.5,691.671 1596.55,724.349 1607.6,757.174 1618.65,790.315 1629.7,823.636 
  1640.75,856.731 1651.8,889.051 1662.85,920.07 1673.9,949.425 1684.95,976.987 1696,1002.85 1707.05,1027.28 1718.1,1050.61 1729.15,1073.21 1740.2,1095.4 
  
  "/>
<path clip-path="url(#clip172)" d="
M1740.2 1095.4 L1745.74 1106.44 L1751.28 1117.47 L1756.82 1128.49 L1762.36 1139.5 L1767.9 1150.52 L1773.44 1161.51 L1778.98 1172.47 L1784.52 1183.36 L1790.06 1194.16 
  L1795.6 1204.82 L1801.14 1215.32 L1806.68 1225.6 L1812.22 1235.65 L1817.76 1245.42 L1823.3 1254.9 L1828.84 1264.08 L1834.38 1272.94 L1839.92 1281.49 L1845.46 1289.74 
  L1851 1297.71 L1856.54 1305.42 L1862.07 1312.89 L1867.61 1320.15 L1873.15 1327.22 L1878.69 1334.13 L1884.23 1340.9 L1889.77 1347.53 L1895.31 1354.05 L1900.85 1360.46 
  L1906.39 1366.73 L1911.93 1372.88 L1917.47 1378.87 L1923.01 1384.69 L1928.55 1390.3 L1934.09 1395.67 L1939.63 1400.76 L1945.17 1405.55 L1950.71 1410 L1956.25 1414.07 
  L1961.79 1417.76 L1967.33 1421.03 L1972.87 1423.87 L1978.41 1426.29 L1983.95 1428.29 L1989.49 1429.88 L1995.03 1431.08 L2000.57 1431.92 L2006.11 1432.42 L2011.65 1432.63 
  L2017.19 1432.58 L2022.73 1432.31 L2028.27 1431.85 L2033.81 1431.25 L2039.34 1430.54 L2044.88 1429.76 L2050.42 1428.94 L2055.96 1428.12 L2061.5 1427.32 L2067.04 1426.58 
  L2072.58 1425.91 L2078.12 1425.35 L2083.66 1424.93 L2089.2 1424.66 L2094.74 1424.57 L2100.28 1424.67 L2105.82 1424.98 L2111.36 1425.5 L2116.9 1426.24 L2122.44 1427.18 
  L2127.98 1428.33 L2133.52 1429.65 L2139.06 1431.14 L2144.6 1432.75 L2150.14 1434.47 L2155.68 1436.25 L2161.22 1438.07 L2166.76 1439.89 L2172.3 1441.67 L2177.84 1443.41 
  L2183.38 1445.07 L2188.92 1446.65 L2194.46 1448.12 L2200 1449.49 L2205.54 1450.76 L2211.07 1451.93 L2216.61 1453.02 L2222.15 1454.02 L2227.69 1454.96 L2233.23 1455.85 
  L2238.77 1456.71 L2244.31 1457.55 L2249.85 1458.38 L2255.39 1459.23 L2260.93 1460.09 L2266.47 1460.98 L2272.01 1461.91 L2277.55 1462.87 L2283.09 1463.86 L2288.63 1464.89 
  L2288.63 1479.3 L2283.09 1479.3 L2277.55 1479.3 L2272.01 1479.3 L2266.47 1479.3 L2260.93 1479.3 L2255.39 1479.3 L2249.85 1479.3 L2244.31 1479.3 L2238.77 1479.3 
  L2233.23 1479.3 L2227.69 1479.3 L2222.15 1479.3 L2216.61 1479.3 L2211.07 1479.3 L2205.54 1479.3 L2200 1479.3 L2194.46 1479.3 L2188.92 1479.3 L2183.38 1479.3 
  L2177.84 1479.3 L2172.3 1479.3 L2166.76 1479.3 L2161.22 1479.3 L2155.68 1479.3 L2150.14 1479.3 L2144.6 1479.3 L2139.06 1479.3 L2133.52 1479.3 L2127.98 1479.3 
  L2122.44 1479.3 L2116.9 1479.3 L2111.36 1479.3 L2105.82 1479.3 L2100.28 1479.3 L2094.74 1479.3 L2089.2 1479.3 L2083.66 1479.3 L2078.12 1479.3 L2072.58 1479.3 
  L2067.04 1479.3 L2061.5 1479.3 L2055.96 1479.3 L2050.42 1479.3 L2044.88 1479.3 L2039.34 1479.3 L2033.81 1479.3 L2028.27 1479.3 L2022.73 1479.3 L2017.19 1479.3 
  L2011.65 1479.3 L2006.11 1479.3 L2000.57 1479.3 L1995.03 1479.3 L1989.49 1479.3 L1983.95 1479.3 L1978.41 1479.3 L1972.87 1479.3 L1967.33 1479.3 L1961.79 1479.3 
  L1956.25 1479.3 L1950.71 1479.3 L1945.17 1479.3 L1939.63 1479.3 L1934.09 1479.3 L1928.55 1479.3 L1923.01 1479.3 L1917.47 1479.3 L1911.93 1479.3 L1906.39 1479.3 
  L1900.85 1479.3 L1895.31 1479.3 L1889.77 1479.3 L1884.23 1479.3 L1878.69 1479.3 L1873.15 1479.3 L1867.61 1479.3 L1862.07 1479.3 L1856.54 1479.3 L1851 1479.3 
  L1845.46 1479.3 L1839.92 1479.3 L1834.38 1479.3 L1828.84 1479.3 L1823.3 1479.3 L1817.76 1479.3 L1812.22 1479.3 L1806.68 1479.3 L1801.14 1479.3 L1795.6 1479.3 
  L1790.06 1479.3 L1784.52 1479.3 L1778.98 1479.3 L1773.44 1479.3 L1767.9 1479.3 L1762.36 1479.3 L1756.82 1479.3 L1751.28 1479.3 L1745.74 1479.3 L1740.2 1479.3 
   Z
  " fill="#ffa500" fill-rule="evenodd" fill-opacity="0.5"/>
<polyline clip-path="url(#clip172)" style="stroke:#ffa500; stroke-width:4; stroke-opacity:1; fill:none" points="
  1740.2,1095.4 1745.74,1106.44 1751.28,1117.47 1756.82,1128.49 1762.36,1139.5 1767.9,1150.52 1773.44,1161.51 1778.98,1172.47 1784.52,1183.36 1790.06,1194.16 
  1795.6,1204.82 1801.14,1215.32 1806.68,1225.6 1812.22,1235.65 1817.76,1245.42 1823.3,1254.9 1828.84,1264.08 1834.38,1272.94 1839.92,1281.49 1845.46,1289.74 
  1851,1297.71 1856.54,1305.42 1862.07,1312.89 1867.61,1320.15 1873.15,1327.22 1878.69,1334.13 1884.23,1340.9 1889.77,1347.53 1895.31,1354.05 1900.85,1360.46 
  1906.39,1366.73 1911.93,1372.88 1917.47,1378.87 1923.01,1384.69 1928.55,1390.3 1934.09,1395.67 1939.63,1400.76 1945.17,1405.55 1950.71,1410 1956.25,1414.07 
  1961.79,1417.76 1967.33,1421.03 1972.87,1423.87 1978.41,1426.29 1983.95,1428.29 1989.49,1429.88 1995.03,1431.08 2000.57,1431.92 2006.11,1432.42 2011.65,1432.63 
  2017.19,1432.58 2022.73,1432.31 2028.27,1431.85 2033.81,1431.25 2039.34,1430.54 2044.88,1429.76 2050.42,1428.94 2055.96,1428.12 2061.5,1427.32 2067.04,1426.58 
  2072.58,1425.91 2078.12,1425.35 2083.66,1424.93 2089.2,1424.66 2094.74,1424.57 2100.28,1424.67 2105.82,1424.98 2111.36,1425.5 2116.9,1426.24 2122.44,1427.18 
  2127.98,1428.33 2133.52,1429.65 2139.06,1431.14 2144.6,1432.75 2150.14,1434.47 2155.68,1436.25 2161.22,1438.07 2166.76,1439.89 2172.3,1441.67 2177.84,1443.41 
  2183.38,1445.07 2188.92,1446.65 2194.46,1448.12 2200,1449.49 2205.54,1450.76 2211.07,1451.93 2216.61,1453.02 2222.15,1454.02 2227.69,1454.96 2233.23,1455.85 
  2238.77,1456.71 2244.31,1457.55 2249.85,1458.38 2255.39,1459.23 2260.93,1460.09 2266.47,1460.98 2272.01,1461.91 2277.55,1462.87 2283.09,1463.86 2288.63,1464.89 
  
  "/>
<polyline clip-path="url(#clip172)" style="stroke:#0000ff; stroke-width:4; stroke-opacity:1; fill:none" points="
  1229.06,1479.3 1229.06,134.101 
  "/>
<polyline clip-path="url(#clip172)" style="stroke:#000000; stroke-width:4; stroke-opacity:1; fill:none" points="
  1252.21,1479.3 1252.21,102.536 
  "/>
<path clip-path="url(#clip170)" d="
M1509.86 493.644 L2280.76 493.644 L2280.76 130.764 L1509.86 130.764  Z
  " fill="#ffffff" fill-rule="evenodd" fill-opacity="1"/>
<polyline clip-path="url(#clip170)" style="stroke:#000000; stroke-width:4; stroke-opacity:1; fill:none" points="
  1509.86,493.644 2280.76,493.644 2280.76,130.764 1509.86,130.764 1509.86,493.644 
  "/>
<path clip-path="url(#clip170)" d="
M1533.86 215.436 L1677.86 215.436 L1677.86 167.052 L1533.86 167.052 L1533.86 215.436  Z
  " fill="#ffa500" fill-rule="evenodd" fill-opacity="0.5"/>
<polyline clip-path="url(#clip170)" style="stroke:#ffa500; stroke-width:4; stroke-opacity:1; fill:none" points="
  1533.86,167.052 1677.86,167.052 
  "/>
<path clip-path="url(#clip170)" d="M 0 0 M1706.25 195.584 Q1706.25 200.283 1708.18 202.969 Q1710.12 205.631 1713.5 205.631 Q1716.88 205.631 1718.82 202.969 Q1720.77 200.283 1720.77 195.584 Q1720.77 190.885 1718.82 188.223 Q1716.88 185.538 1713.5 185.538 Q1710.12 185.538 1708.18 188.223 Q1706.25 190.885 1706.25 195.584 M1720.77 204.635 Q1719.43 206.95 1717.37 208.084 Q1715.33 209.195 1712.46 209.195 Q1707.76 209.195 1704.8 205.445 Q1701.86 201.695 1701.86 195.584 Q1701.86 189.473 1704.8 185.723 Q1707.76 181.973 1712.46 181.973 Q1715.33 181.973 1717.37 183.108 Q1719.43 184.219 1720.77 186.533 L1720.77 182.598 L1725.03 182.598 L1725.03 218.385 L1720.77 218.385 L1720.77 204.635 Z" fill="#000000" fill-rule="evenodd" fill-opacity="1" /><path clip-path="url(#clip170)" d="M 0 0 M1740.1 177.043 Q1736.49 177.043 1734.66 180.608 Q1732.85 184.149 1732.85 191.279 Q1732.85 198.385 1734.66 201.95 Q1736.49 205.492 1740.1 205.492 Q1743.73 205.492 1745.54 201.95 Q1747.36 198.385 1747.36 191.279 Q1747.36 184.149 1745.54 180.608 Q1743.73 177.043 1740.1 177.043 M1740.1 173.339 Q1745.91 173.339 1748.96 177.946 Q1752.04 182.529 1752.04 191.279 Q1752.04 200.006 1748.96 204.612 Q1745.91 209.195 1740.1 209.195 Q1734.29 209.195 1731.21 204.612 Q1728.15 200.006 1728.15 191.279 Q1728.15 182.529 1731.21 177.946 Q1734.29 173.339 1740.1 173.339 Z" fill="#000000" fill-rule="evenodd" fill-opacity="1" /><path clip-path="url(#clip170)" d="M 0 0 M1757.16 173.964 L1775.51 173.964 L1775.51 177.899 L1761.44 177.899 L1761.44 186.371 Q1762.46 186.024 1763.48 185.862 Q1764.49 185.677 1765.51 185.677 Q1771.3 185.677 1774.68 188.848 Q1778.06 192.02 1778.06 197.436 Q1778.06 203.015 1774.59 206.117 Q1771.11 209.195 1764.8 209.195 Q1762.62 209.195 1760.35 208.825 Q1758.11 208.455 1755.7 207.714 L1755.7 203.015 Q1757.78 204.149 1760 204.705 Q1762.23 205.26 1764.7 205.26 Q1768.71 205.26 1771.05 203.154 Q1773.38 201.047 1773.38 197.436 Q1773.38 193.825 1771.05 191.719 Q1768.71 189.612 1764.7 189.612 Q1762.83 189.612 1760.95 190.029 Q1759.1 190.445 1757.16 191.325 L1757.16 173.964 Z" fill="#000000" fill-rule="evenodd" fill-opacity="1" /><path clip-path="url(#clip170)" d="
M1533.86 275.916 L1677.86 275.916 L1677.86 227.532 L1533.86 227.532 L1533.86 275.916  Z
  " fill="#008000" fill-rule="evenodd" fill-opacity="0.5"/>
<polyline clip-path="url(#clip170)" style="stroke:#008000; stroke-width:4; stroke-opacity:1; fill:none" points="
  1533.86,227.532 1677.86,227.532 
  "/>
<path clip-path="url(#clip170)" d="M 0 0 M1704.08 268.287 L1704.08 264.027 Q1705.84 264.861 1707.64 265.3 Q1709.45 265.74 1711.18 265.74 Q1715.81 265.74 1718.24 262.638 Q1720.7 259.513 1721.05 253.171 Q1719.7 255.162 1717.64 256.226 Q1715.58 257.291 1713.08 257.291 Q1707.9 257.291 1704.87 254.166 Q1701.86 251.018 1701.86 245.578 Q1701.86 240.254 1705 237.037 Q1708.15 233.819 1713.38 233.819 Q1719.38 233.819 1722.53 238.426 Q1725.7 243.009 1725.7 251.759 Q1725.7 259.93 1721.81 264.814 Q1717.94 269.675 1711.39 269.675 Q1709.63 269.675 1707.83 269.328 Q1706.02 268.981 1704.08 268.287 M1713.38 253.634 Q1716.53 253.634 1718.36 251.481 Q1720.21 249.328 1720.21 245.578 Q1720.21 241.851 1718.36 239.699 Q1716.53 237.523 1713.38 237.523 Q1710.24 237.523 1708.38 239.699 Q1706.56 241.851 1706.56 245.578 Q1706.56 249.328 1708.38 251.481 Q1710.24 253.634 1713.38 253.634 Z" fill="#000000" fill-rule="evenodd" fill-opacity="1" /><path clip-path="url(#clip170)" d="M 0 0 M1740.77 237.523 Q1737.16 237.523 1735.33 241.088 Q1733.52 244.629 1733.52 251.759 Q1733.52 258.865 1735.33 262.43 Q1737.16 265.972 1740.77 265.972 Q1744.4 265.972 1746.21 262.43 Q1748.04 258.865 1748.04 251.759 Q1748.04 244.629 1746.21 241.088 Q1744.4 237.523 1740.77 237.523 M1740.77 233.819 Q1746.58 233.819 1749.63 238.426 Q1752.71 243.009 1752.71 251.759 Q1752.71 260.486 1749.63 265.092 Q1746.58 269.675 1740.77 269.675 Q1734.96 269.675 1731.88 265.092 Q1728.82 260.486 1728.82 251.759 Q1728.82 243.009 1731.88 238.426 Q1734.96 233.819 1740.77 233.819 Z" fill="#000000" fill-rule="evenodd" fill-opacity="1" /><path clip-path="url(#clip170)" d="M 0 0 M1787.18 253.796 Q1785.17 253.796 1784.01 255.509 Q1782.87 257.222 1782.87 260.277 Q1782.87 263.287 1784.01 265.023 Q1785.17 266.736 1787.18 266.736 Q1789.15 266.736 1790.28 265.023 Q1791.44 263.287 1791.44 260.277 Q1791.44 257.245 1790.28 255.532 Q1789.15 253.796 1787.18 253.796 M1787.18 250.856 Q1790.84 250.856 1792.99 253.402 Q1795.14 255.949 1795.14 260.277 Q1795.14 264.606 1792.97 267.152 Q1790.81 269.675 1787.18 269.675 Q1783.48 269.675 1781.32 267.152 Q1779.17 264.606 1779.17 260.277 Q1779.17 255.925 1781.32 253.402 Q1783.5 250.856 1787.18 250.856 M1763.29 236.759 Q1761.3 236.759 1760.14 238.495 Q1759.01 240.208 1759.01 243.217 Q1759.01 246.273 1760.14 247.986 Q1761.28 249.699 1763.29 249.699 Q1765.3 249.699 1766.44 247.986 Q1767.6 246.273 1767.6 243.217 Q1767.6 240.231 1766.44 238.495 Q1765.28 236.759 1763.29 236.759 M1784.19 233.819 L1787.9 233.819 L1766.28 269.675 L1762.57 269.675 L1784.19 233.819 M1763.29 233.819 Q1766.95 233.819 1769.12 236.365 Q1771.3 238.889 1771.3 243.217 Q1771.3 247.592 1769.12 250.115 Q1766.97 252.638 1763.29 252.638 Q1759.61 252.638 1757.46 250.115 Q1755.33 247.569 1755.33 243.217 Q1755.33 238.912 1757.48 236.365 Q1759.63 233.819 1763.29 233.819 Z" fill="#000000" fill-rule="evenodd" fill-opacity="1" /><path clip-path="url(#clip170)" d="M 0 0 M1836.23 253.356 L1836.23 269.004 L1831.97 269.004 L1831.97 253.495 Q1831.97 249.814 1830.54 247.986 Q1829.1 246.157 1826.23 246.157 Q1822.78 246.157 1820.79 248.356 Q1818.8 250.555 1818.8 254.351 L1818.8 269.004 L1814.52 269.004 L1814.52 243.078 L1818.8 243.078 L1818.8 247.106 Q1820.33 244.768 1822.39 243.611 Q1824.47 242.453 1827.18 242.453 Q1831.65 242.453 1833.94 245.231 Q1836.23 247.986 1836.23 253.356 Z" fill="#000000" fill-rule="evenodd" fill-opacity="1" /><path clip-path="url(#clip170)" d="M 0 0 M1850.74 246.064 Q1847.32 246.064 1845.33 248.75 Q1843.34 251.412 1843.34 256.064 Q1843.34 260.717 1845.3 263.402 Q1847.3 266.064 1850.74 266.064 Q1854.15 266.064 1856.14 263.379 Q1858.13 260.694 1858.13 256.064 Q1858.13 251.458 1856.14 248.773 Q1854.15 246.064 1850.74 246.064 M1850.74 242.453 Q1856.3 242.453 1859.47 246.064 Q1862.64 249.675 1862.64 256.064 Q1862.64 262.43 1859.47 266.064 Q1856.3 269.675 1850.74 269.675 Q1845.17 269.675 1841.99 266.064 Q1838.85 262.43 1838.85 256.064 Q1838.85 249.675 1841.99 246.064 Q1845.17 242.453 1850.74 242.453 Z" fill="#000000" fill-rule="evenodd" fill-opacity="1" /><path clip-path="url(#clip170)" d="M 0 0 M1888.66 253.356 L1888.66 269.004 L1884.4 269.004 L1884.4 253.495 Q1884.4 249.814 1882.97 247.986 Q1881.53 246.157 1878.66 246.157 Q1875.21 246.157 1873.22 248.356 Q1871.23 250.555 1871.23 254.351 L1871.23 269.004 L1866.95 269.004 L1866.95 243.078 L1871.23 243.078 L1871.23 247.106 Q1872.76 244.768 1874.82 243.611 Q1876.9 242.453 1879.61 242.453 Q1884.08 242.453 1886.37 245.231 Q1888.66 247.986 1888.66 253.356 Z" fill="#000000" fill-rule="evenodd" fill-opacity="1" /><path clip-path="url(#clip170)" d="M 0 0 M1890.98 254.12 L1903.45 254.12 L1903.45 257.916 L1890.98 257.916 L1890.98 254.12 Z" fill="#000000" fill-rule="evenodd" fill-opacity="1" /><path clip-path="url(#clip170)" d="M 0 0 M1922.94 247.06 Q1922.23 246.643 1921.37 246.458 Q1920.54 246.25 1919.52 246.25 Q1915.91 246.25 1913.96 248.611 Q1912.04 250.949 1912.04 255.347 L1912.04 269.004 L1907.76 269.004 L1907.76 243.078 L1912.04 243.078 L1912.04 247.106 Q1913.38 244.745 1915.54 243.611 Q1917.69 242.453 1920.77 242.453 Q1921.21 242.453 1921.74 242.523 Q1922.27 242.569 1922.92 242.685 L1922.94 247.06 Z" fill="#000000" fill-rule="evenodd" fill-opacity="1" /><path clip-path="url(#clip170)" d="M 0 0 M1948.54 254.976 L1948.54 257.06 L1928.96 257.06 Q1929.24 261.458 1931.6 263.773 Q1933.98 266.064 1938.22 266.064 Q1940.67 266.064 1942.97 265.462 Q1945.28 264.861 1947.55 263.657 L1947.55 267.685 Q1945.26 268.657 1942.85 269.166 Q1940.44 269.675 1937.97 269.675 Q1931.76 269.675 1928.13 266.064 Q1924.52 262.453 1924.52 256.296 Q1924.52 249.93 1927.94 246.203 Q1931.39 242.453 1937.23 242.453 Q1942.46 242.453 1945.49 245.833 Q1948.54 249.189 1948.54 254.976 M1944.29 253.726 Q1944.24 250.231 1942.32 248.148 Q1940.42 246.064 1937.27 246.064 Q1933.71 246.064 1931.55 248.078 Q1929.42 250.092 1929.1 253.75 L1944.29 253.726 Z" fill="#000000" fill-rule="evenodd" fill-opacity="1" /><path clip-path="url(#clip170)" d="M 0 0 M1953.01 243.078 L1957.27 243.078 L1957.27 269.467 Q1957.27 274.421 1955.37 276.643 Q1953.5 278.865 1949.31 278.865 L1947.69 278.865 L1947.69 275.254 L1948.82 275.254 Q1951.25 275.254 1952.13 274.12 Q1953.01 273.009 1953.01 269.467 L1953.01 243.078 M1953.01 232.986 L1957.27 232.986 L1957.27 238.379 L1953.01 238.379 L1953.01 232.986 Z" fill="#000000" fill-rule="evenodd" fill-opacity="1" /><path clip-path="url(#clip170)" d="M 0 0 M1983.91 254.976 L1983.91 257.06 L1964.33 257.06 Q1964.61 261.458 1966.97 263.773 Q1969.35 266.064 1973.59 266.064 Q1976.04 266.064 1978.34 265.462 Q1980.65 264.861 1982.92 263.657 L1982.92 267.685 Q1980.63 268.657 1978.22 269.166 Q1975.81 269.675 1973.34 269.675 Q1967.13 269.675 1963.5 266.064 Q1959.89 262.453 1959.89 256.296 Q1959.89 249.93 1963.31 246.203 Q1966.76 242.453 1972.6 242.453 Q1977.83 242.453 1980.86 245.833 Q1983.91 249.189 1983.91 254.976 M1979.66 253.726 Q1979.61 250.231 1977.69 248.148 Q1975.79 246.064 1972.64 246.064 Q1969.08 246.064 1966.92 248.078 Q1964.79 250.092 1964.47 253.75 L1979.66 253.726 Z" fill="#000000" fill-rule="evenodd" fill-opacity="1" /><path clip-path="url(#clip170)" d="M 0 0 M2007.04 244.074 L2007.04 248.055 Q2005.23 247.06 2003.41 246.574 Q2001.6 246.064 1999.75 246.064 Q1995.6 246.064 1993.31 248.703 Q1991.02 251.319 1991.02 256.064 Q1991.02 260.81 1993.31 263.449 Q1995.6 266.064 1999.75 266.064 Q2001.6 266.064 2003.41 265.578 Q2005.23 265.069 2007.04 264.074 L2007.04 268.009 Q2005.26 268.842 2003.34 269.259 Q2001.44 269.675 1999.28 269.675 Q1993.43 269.675 1989.98 265.995 Q1986.53 262.314 1986.53 256.064 Q1986.53 249.722 1990 246.088 Q1993.5 242.453 1999.56 242.453 Q2001.53 242.453 2003.41 242.87 Q2005.28 243.263 2007.04 244.074 Z" fill="#000000" fill-rule="evenodd" fill-opacity="1" /><path clip-path="url(#clip170)" d="M 0 0 M2015.72 235.717 L2015.72 243.078 L2024.49 243.078 L2024.49 246.388 L2015.72 246.388 L2015.72 260.462 Q2015.72 263.634 2016.58 264.537 Q2017.46 265.439 2020.12 265.439 L2024.49 265.439 L2024.49 269.004 L2020.12 269.004 Q2015.19 269.004 2013.31 267.175 Q2011.44 265.324 2011.44 260.462 L2011.44 246.388 L2008.31 246.388 L2008.31 243.078 L2011.44 243.078 L2011.44 235.717 L2015.72 235.717 Z" fill="#000000" fill-rule="evenodd" fill-opacity="1" /><path clip-path="url(#clip170)" d="M 0 0 M2028.96 243.078 L2033.22 243.078 L2033.22 269.004 L2028.96 269.004 L2028.96 243.078 M2028.96 232.986 L2033.22 232.986 L2033.22 238.379 L2028.96 238.379 L2028.96 232.986 Z" fill="#000000" fill-rule="evenodd" fill-opacity="1" /><path clip-path="url(#clip170)" d="M 0 0 M2047.73 246.064 Q2044.31 246.064 2042.32 248.75 Q2040.33 251.412 2040.33 256.064 Q2040.33 260.717 2042.29 263.402 Q2044.28 266.064 2047.73 266.064 Q2051.14 266.064 2053.13 263.379 Q2055.12 260.694 2055.12 256.064 Q2055.12 251.458 2053.13 248.773 Q2051.14 246.064 2047.73 246.064 M2047.73 242.453 Q2053.29 242.453 2056.46 246.064 Q2059.63 249.675 2059.63 256.064 Q2059.63 262.43 2056.46 266.064 Q2053.29 269.675 2047.73 269.675 Q2042.16 269.675 2038.98 266.064 Q2035.84 262.43 2035.84 256.064 Q2035.84 249.675 2038.98 246.064 Q2042.16 242.453 2047.73 242.453 Z" fill="#000000" fill-rule="evenodd" fill-opacity="1" /><path clip-path="url(#clip170)" d="M 0 0 M2085.65 253.356 L2085.65 269.004 L2081.39 269.004 L2081.39 253.495 Q2081.39 249.814 2079.96 247.986 Q2078.52 246.157 2075.65 246.157 Q2072.2 246.157 2070.21 248.356 Q2068.22 250.555 2068.22 254.351 L2068.22 269.004 L2063.94 269.004 L2063.94 243.078 L2068.22 243.078 L2068.22 247.106 Q2069.75 244.768 2071.81 243.611 Q2073.89 242.453 2076.6 242.453 Q2081.07 242.453 2083.36 245.231 Q2085.65 247.986 2085.65 253.356 Z" fill="#000000" fill-rule="evenodd" fill-opacity="1" /><path clip-path="url(#clip170)" d="M 0 0 M2120.21 247.06 Q2119.49 246.643 2118.64 246.458 Q2117.8 246.25 2116.78 246.25 Q2113.17 246.25 2111.23 248.611 Q2109.31 250.949 2109.31 255.347 L2109.31 269.004 L2105.03 269.004 L2105.03 243.078 L2109.31 243.078 L2109.31 247.106 Q2110.65 244.745 2112.8 243.611 Q2114.96 242.453 2118.03 242.453 Q2118.47 242.453 2119.01 242.523 Q2119.54 242.569 2120.19 242.685 L2120.21 247.06 Z" fill="#000000" fill-rule="evenodd" fill-opacity="1" /><path clip-path="url(#clip170)" d="M 0 0 M2145.81 254.976 L2145.81 257.06 L2126.23 257.06 Q2126.51 261.458 2128.87 263.773 Q2131.25 266.064 2135.49 266.064 Q2137.94 266.064 2140.23 265.462 Q2142.55 264.861 2144.82 263.657 L2144.82 267.685 Q2142.52 268.657 2140.12 269.166 Q2137.71 269.675 2135.23 269.675 Q2129.03 269.675 2125.4 266.064 Q2121.78 262.453 2121.78 256.296 Q2121.78 249.93 2125.21 246.203 Q2128.66 242.453 2134.49 242.453 Q2139.72 242.453 2142.76 245.833 Q2145.81 249.189 2145.81 254.976 M2141.55 253.726 Q2141.51 250.231 2139.59 248.148 Q2137.69 246.064 2134.54 246.064 Q2130.97 246.064 2128.82 248.078 Q2126.69 250.092 2126.37 253.75 L2141.55 253.726 Z" fill="#000000" fill-rule="evenodd" fill-opacity="1" /><path clip-path="url(#clip170)" d="M 0 0 M2167.34 255.74 Q2167.34 251.111 2165.42 248.564 Q2163.52 246.018 2160.07 246.018 Q2156.65 246.018 2154.72 248.564 Q2152.83 251.111 2152.83 255.74 Q2152.83 260.347 2154.72 262.893 Q2156.65 265.439 2160.07 265.439 Q2163.52 265.439 2165.42 262.893 Q2167.34 260.347 2167.34 255.74 M2171.6 265.787 Q2171.6 272.407 2168.66 275.624 Q2165.72 278.865 2159.65 278.865 Q2157.41 278.865 2155.42 278.518 Q2153.43 278.194 2151.55 277.499 L2151.55 273.356 Q2153.43 274.374 2155.26 274.861 Q2157.09 275.347 2158.98 275.347 Q2163.17 275.347 2165.26 273.148 Q2167.34 270.972 2167.34 266.55 L2167.34 264.444 Q2166.02 266.736 2163.96 267.87 Q2161.9 269.004 2159.03 269.004 Q2154.26 269.004 2151.34 265.37 Q2148.43 261.736 2148.43 255.74 Q2148.43 249.722 2151.34 246.088 Q2154.26 242.453 2159.03 242.453 Q2161.9 242.453 2163.96 243.588 Q2166.02 244.722 2167.34 247.013 L2167.34 243.078 L2171.6 243.078 L2171.6 265.787 Z" fill="#000000" fill-rule="evenodd" fill-opacity="1" /><path clip-path="url(#clip170)" d="M 0 0 M2176.07 243.078 L2180.33 243.078 L2180.33 269.004 L2176.07 269.004 L2176.07 243.078 M2176.07 232.986 L2180.33 232.986 L2180.33 238.379 L2176.07 238.379 L2176.07 232.986 Z" fill="#000000" fill-rule="evenodd" fill-opacity="1" /><path clip-path="url(#clip170)" d="M 0 0 M2194.84 246.064 Q2191.41 246.064 2189.42 248.75 Q2187.43 251.412 2187.43 256.064 Q2187.43 260.717 2189.4 263.402 Q2191.39 266.064 2194.84 266.064 Q2198.24 266.064 2200.23 263.379 Q2202.22 260.694 2202.22 256.064 Q2202.22 251.458 2200.23 248.773 Q2198.24 246.064 2194.84 246.064 M2194.84 242.453 Q2200.39 242.453 2203.57 246.064 Q2206.74 249.675 2206.74 256.064 Q2206.74 262.43 2203.57 266.064 Q2200.39 269.675 2194.84 269.675 Q2189.26 269.675 2186.09 266.064 Q2182.94 262.43 2182.94 256.064 Q2182.94 249.675 2186.09 246.064 Q2189.26 242.453 2194.84 242.453 Z" fill="#000000" fill-rule="evenodd" fill-opacity="1" /><path clip-path="url(#clip170)" d="M 0 0 M2232.76 253.356 L2232.76 269.004 L2228.5 269.004 L2228.5 253.495 Q2228.5 249.814 2227.06 247.986 Q2225.63 246.157 2222.76 246.157 Q2219.31 246.157 2217.32 248.356 Q2215.33 250.555 2215.33 254.351 L2215.33 269.004 L2211.04 269.004 L2211.04 243.078 L2215.33 243.078 L2215.33 247.106 Q2216.85 244.768 2218.91 243.611 Q2221 242.453 2223.71 242.453 Q2228.17 242.453 2230.46 245.231 Q2232.76 247.986 2232.76 253.356 Z" fill="#000000" fill-rule="evenodd" fill-opacity="1" /><path clip-path="url(#clip170)" d="
M1533.86 336.396 L1677.86 336.396 L1677.86 288.012 L1533.86 288.012 L1533.86 336.396  Z
  " fill="#ffa500" fill-rule="evenodd" fill-opacity="0.5"/>
<polyline clip-path="url(#clip170)" style="stroke:#ffa500; stroke-width:4; stroke-opacity:1; fill:none" points="
  1533.86,288.012 1677.86,288.012 
  "/>
<path clip-path="url(#clip170)" d="M 0 0 M1706.25 316.544 Q1706.25 321.243 1708.18 323.929 Q1710.12 326.591 1713.5 326.591 Q1716.88 326.591 1718.82 323.929 Q1720.77 321.243 1720.77 316.544 Q1720.77 311.845 1718.82 309.183 Q1716.88 306.498 1713.5 306.498 Q1710.12 306.498 1708.18 309.183 Q1706.25 311.845 1706.25 316.544 M1720.77 325.595 Q1719.43 327.91 1717.37 329.044 Q1715.33 330.155 1712.46 330.155 Q1707.76 330.155 1704.8 326.405 Q1701.86 322.655 1701.86 316.544 Q1701.86 310.433 1704.8 306.683 Q1707.76 302.933 1712.46 302.933 Q1715.33 302.933 1717.37 304.068 Q1719.43 305.179 1720.77 307.493 L1720.77 303.558 L1725.03 303.558 L1725.03 339.345 L1720.77 339.345 L1720.77 325.595 Z" fill="#000000" fill-rule="evenodd" fill-opacity="1" /><path clip-path="url(#clip170)" d="M 0 0 M1730.24 328.767 L1730.24 324.507 Q1731.99 325.341 1733.8 325.78 Q1735.61 326.22 1737.34 326.22 Q1741.97 326.22 1744.4 323.118 Q1746.86 319.993 1747.2 313.651 Q1745.86 315.642 1743.8 316.706 Q1741.74 317.771 1739.24 317.771 Q1734.05 317.771 1731.02 314.646 Q1728.01 311.498 1728.01 306.058 Q1728.01 300.734 1731.16 297.517 Q1734.31 294.299 1739.54 294.299 Q1745.54 294.299 1748.68 298.906 Q1751.86 303.489 1751.86 312.239 Q1751.86 320.41 1747.97 325.294 Q1744.1 330.155 1737.55 330.155 Q1735.79 330.155 1733.99 329.808 Q1732.18 329.461 1730.24 328.767 M1739.54 314.114 Q1742.69 314.114 1744.52 311.961 Q1746.37 309.808 1746.37 306.058 Q1746.37 302.331 1744.52 300.179 Q1742.69 298.003 1739.54 298.003 Q1736.39 298.003 1734.54 300.179 Q1732.71 302.331 1732.71 306.058 Q1732.71 309.808 1734.54 311.961 Q1736.39 314.114 1739.54 314.114 Z" fill="#000000" fill-rule="evenodd" fill-opacity="1" /><path clip-path="url(#clip170)" d="M 0 0 M1756.97 294.924 L1775.33 294.924 L1775.33 298.859 L1761.25 298.859 L1761.25 307.331 Q1762.27 306.984 1763.29 306.822 Q1764.31 306.637 1765.33 306.637 Q1771.11 306.637 1774.49 309.808 Q1777.87 312.98 1777.87 318.396 Q1777.87 323.975 1774.4 327.077 Q1770.93 330.155 1764.61 330.155 Q1762.43 330.155 1760.17 329.785 Q1757.92 329.415 1755.51 328.674 L1755.51 323.975 Q1757.6 325.109 1759.82 325.665 Q1762.04 326.22 1764.52 326.22 Q1768.52 326.22 1770.86 324.114 Q1773.2 322.007 1773.2 318.396 Q1773.2 314.785 1770.86 312.679 Q1768.52 310.572 1764.52 310.572 Q1762.64 310.572 1760.77 310.989 Q1758.92 311.405 1756.97 312.285 L1756.97 294.924 Z" fill="#000000" fill-rule="evenodd" fill-opacity="1" /><polyline clip-path="url(#clip170)" style="stroke:#0000ff; stroke-width:4; stroke-opacity:1; fill:none" points="
  1533.86,372.684 1677.86,372.684 
  "/>
<path clip-path="url(#clip170)" d="M 0 0 M1722.2 369.015 Q1723.8 366.145 1726.02 364.779 Q1728.24 363.413 1731.25 363.413 Q1735.3 363.413 1737.5 366.261 Q1739.7 369.085 1739.7 374.316 L1739.7 389.964 L1735.42 389.964 L1735.42 374.455 Q1735.42 370.728 1734.1 368.923 Q1732.78 367.117 1730.07 367.117 Q1726.76 367.117 1724.84 369.316 Q1722.92 371.515 1722.92 375.311 L1722.92 389.964 L1718.64 389.964 L1718.64 374.455 Q1718.64 370.705 1717.32 368.923 Q1716 367.117 1713.24 367.117 Q1709.98 367.117 1708.06 369.339 Q1706.14 371.538 1706.14 375.311 L1706.14 389.964 L1701.86 389.964 L1701.86 364.038 L1706.14 364.038 L1706.14 368.066 Q1707.6 365.682 1709.63 364.548 Q1711.67 363.413 1714.47 363.413 Q1717.3 363.413 1719.26 364.848 Q1721.25 366.284 1722.2 369.015 Z" fill="#000000" fill-rule="evenodd" fill-opacity="1" /><path clip-path="url(#clip170)" d="M 0 0 M1766.35 375.936 L1766.35 378.02 L1746.76 378.02 Q1747.04 382.418 1749.4 384.733 Q1751.79 387.024 1756.02 387.024 Q1758.48 387.024 1760.77 386.422 Q1763.08 385.821 1765.35 384.617 L1765.35 388.645 Q1763.06 389.617 1760.65 390.126 Q1758.24 390.635 1755.77 390.635 Q1749.56 390.635 1745.93 387.024 Q1742.32 383.413 1742.32 377.256 Q1742.32 370.89 1745.74 367.163 Q1749.19 363.413 1755.03 363.413 Q1760.26 363.413 1763.29 366.793 Q1766.35 370.149 1766.35 375.936 M1762.09 374.686 Q1762.04 371.191 1760.12 369.108 Q1758.22 367.024 1755.07 367.024 Q1751.51 367.024 1749.36 369.038 Q1747.23 371.052 1746.9 374.71 L1762.09 374.686 Z" fill="#000000" fill-rule="evenodd" fill-opacity="1" /><path clip-path="url(#clip170)" d="M 0 0 M1782.6 376.932 Q1777.43 376.932 1775.44 378.112 Q1773.45 379.293 1773.45 382.14 Q1773.45 384.409 1774.93 385.751 Q1776.44 387.071 1779.01 387.071 Q1782.55 387.071 1784.68 384.571 Q1786.83 382.047 1786.83 377.881 L1786.83 376.932 L1782.6 376.932 M1791.09 375.173 L1791.09 389.964 L1786.83 389.964 L1786.83 386.029 Q1785.37 388.39 1783.2 389.524 Q1781.02 390.635 1777.87 390.635 Q1773.89 390.635 1771.53 388.413 Q1769.19 386.168 1769.19 382.418 Q1769.19 378.043 1772.11 375.821 Q1775.05 373.598 1780.86 373.598 L1786.83 373.598 L1786.83 373.182 Q1786.83 370.242 1784.89 368.645 Q1782.97 367.024 1779.47 367.024 Q1777.25 367.024 1775.14 367.557 Q1773.04 368.089 1771.09 369.154 L1771.09 365.219 Q1773.43 364.316 1775.63 363.876 Q1777.83 363.413 1779.91 363.413 Q1785.54 363.413 1788.31 366.33 Q1791.09 369.247 1791.09 375.173 Z" fill="#000000" fill-rule="evenodd" fill-opacity="1" /><path clip-path="url(#clip170)" d="M 0 0 M1817.11 374.316 L1817.11 389.964 L1812.85 389.964 L1812.85 374.455 Q1812.85 370.774 1811.42 368.946 Q1809.98 367.117 1807.11 367.117 Q1803.66 367.117 1801.67 369.316 Q1799.68 371.515 1799.68 375.311 L1799.68 389.964 L1795.4 389.964 L1795.4 364.038 L1799.68 364.038 L1799.68 368.066 Q1801.21 365.728 1803.27 364.571 Q1805.35 363.413 1808.06 363.413 Q1812.53 363.413 1814.82 366.191 Q1817.11 368.946 1817.11 374.316 Z" fill="#000000" fill-rule="evenodd" fill-opacity="1" /><polyline clip-path="url(#clip170)" style="stroke:#000000; stroke-width:4; stroke-opacity:1; fill:none" points="
  1533.86,433.164 1677.86,433.164 
  "/>
<path clip-path="url(#clip170)" d="M 0 0 M1722.2 429.495 Q1723.8 426.625 1726.02 425.259 Q1728.24 423.893 1731.25 423.893 Q1735.3 423.893 1737.5 426.741 Q1739.7 429.565 1739.7 434.796 L1739.7 450.444 L1735.42 450.444 L1735.42 434.935 Q1735.42 431.208 1734.1 429.403 Q1732.78 427.597 1730.07 427.597 Q1726.76 427.597 1724.84 429.796 Q1722.92 431.995 1722.92 435.791 L1722.92 450.444 L1718.64 450.444 L1718.64 434.935 Q1718.64 431.185 1717.32 429.403 Q1716 427.597 1713.24 427.597 Q1709.98 427.597 1708.06 429.819 Q1706.14 432.018 1706.14 435.791 L1706.14 450.444 L1701.86 450.444 L1701.86 424.518 L1706.14 424.518 L1706.14 428.546 Q1707.6 426.162 1709.63 425.028 Q1711.67 423.893 1714.47 423.893 Q1717.3 423.893 1719.26 425.328 Q1721.25 426.764 1722.2 429.495 Z" fill="#000000" fill-rule="evenodd" fill-opacity="1" /><path clip-path="url(#clip170)" d="M 0 0 M1766.35 436.416 L1766.35 438.5 L1746.76 438.5 Q1747.04 442.898 1749.4 445.213 Q1751.79 447.504 1756.02 447.504 Q1758.48 447.504 1760.77 446.902 Q1763.08 446.301 1765.35 445.097 L1765.35 449.125 Q1763.06 450.097 1760.65 450.606 Q1758.24 451.115 1755.77 451.115 Q1749.56 451.115 1745.93 447.504 Q1742.32 443.893 1742.32 437.736 Q1742.32 431.37 1745.74 427.643 Q1749.19 423.893 1755.03 423.893 Q1760.26 423.893 1763.29 427.273 Q1766.35 430.629 1766.35 436.416 M1762.09 435.166 Q1762.04 431.671 1760.12 429.588 Q1758.22 427.504 1755.07 427.504 Q1751.51 427.504 1749.36 429.518 Q1747.23 431.532 1746.9 435.19 L1762.09 435.166 Z" fill="#000000" fill-rule="evenodd" fill-opacity="1" /><path clip-path="url(#clip170)" d="M 0 0 M1787.87 428.453 L1787.87 414.426 L1792.13 414.426 L1792.13 450.444 L1787.87 450.444 L1787.87 446.555 Q1786.53 448.87 1784.47 450.004 Q1782.43 451.115 1779.56 451.115 Q1774.86 451.115 1771.9 447.365 Q1768.96 443.615 1768.96 437.504 Q1768.96 431.393 1771.9 427.643 Q1774.86 423.893 1779.56 423.893 Q1782.43 423.893 1784.47 425.028 Q1786.53 426.139 1787.87 428.453 M1773.36 437.504 Q1773.36 442.203 1775.28 444.889 Q1777.23 447.551 1780.61 447.551 Q1783.99 447.551 1785.93 444.889 Q1787.87 442.203 1787.87 437.504 Q1787.87 432.805 1785.93 430.143 Q1783.99 427.458 1780.61 427.458 Q1777.23 427.458 1775.28 430.143 Q1773.36 432.805 1773.36 437.504 Z" fill="#000000" fill-rule="evenodd" fill-opacity="1" /><path clip-path="url(#clip170)" d="M 0 0 M1796.6 424.518 L1800.86 424.518 L1800.86 450.444 L1796.6 450.444 L1796.6 424.518 M1796.6 414.426 L1800.86 414.426 L1800.86 419.819 L1796.6 419.819 L1796.6 414.426 Z" fill="#000000" fill-rule="evenodd" fill-opacity="1" /><path clip-path="url(#clip170)" d="M 0 0 M1817.11 437.412 Q1811.95 437.412 1809.96 438.592 Q1807.97 439.773 1807.97 442.62 Q1807.97 444.889 1809.45 446.231 Q1810.95 447.551 1813.52 447.551 Q1817.06 447.551 1819.19 445.051 Q1821.35 442.527 1821.35 438.361 L1821.35 437.412 L1817.11 437.412 M1825.61 435.653 L1825.61 450.444 L1821.35 450.444 L1821.35 446.509 Q1819.89 448.87 1817.71 450.004 Q1815.54 451.115 1812.39 451.115 Q1808.41 451.115 1806.05 448.893 Q1803.71 446.648 1803.71 442.898 Q1803.71 438.523 1806.62 436.301 Q1809.56 434.078 1815.37 434.078 L1821.35 434.078 L1821.35 433.662 Q1821.35 430.722 1819.4 429.125 Q1817.48 427.504 1813.99 427.504 Q1811.76 427.504 1809.66 428.037 Q1807.55 428.569 1805.61 429.634 L1805.61 425.699 Q1807.94 424.796 1810.14 424.356 Q1812.34 423.893 1814.42 423.893 Q1820.05 423.893 1822.83 426.81 Q1825.61 429.727 1825.61 435.653 Z" fill="#000000" fill-rule="evenodd" fill-opacity="1" /><path clip-path="url(#clip170)" d="M 0 0 M1851.62 434.796 L1851.62 450.444 L1847.36 450.444 L1847.36 434.935 Q1847.36 431.254 1845.93 429.426 Q1844.49 427.597 1841.62 427.597 Q1838.17 427.597 1836.18 429.796 Q1834.19 431.995 1834.19 435.791 L1834.19 450.444 L1829.91 450.444 L1829.91 424.518 L1834.19 424.518 L1834.19 428.546 Q1835.72 426.208 1837.78 425.051 Q1839.86 423.893 1842.57 423.893 Q1847.04 423.893 1849.33 426.671 Q1851.62 429.426 1851.62 434.796 Z" fill="#000000" fill-rule="evenodd" fill-opacity="1" /></svg>
