<?xml version="1.0" encoding="utf-8"?>
<svg xmlns="http://www.w3.org/2000/svg" xmlns:xlink="http://www.w3.org/1999/xlink" width="600" height="400" viewBox="0 0 2400 1600">
<defs>
  <clipPath id="clip140">
    <rect x="0" y="0" width="2400" height="1600"/>
  </clipPath>
</defs>
<path clip-path="url(#clip140)" d="
M0 1600 L2400 1600 L2400 0 L0 0  Z
  " fill="#ffffff" fill-rule="evenodd" fill-opacity="1"/>
<defs>
  <clipPath id="clip141">
    <rect x="480" y="0" width="1681" height="1600"/>
  </clipPath>
</defs>
<path clip-path="url(#clip140)" d="
M86.9921 1521.01 L2352.76 1521.01 L2352.76 47.2441 L86.9921 47.2441  Z
  " fill="#ffffff" fill-rule="evenodd" fill-opacity="1"/>
<defs>
  <clipPath id="clip142">
    <rect x="86" y="47" width="2267" height="1475"/>
  </clipPath>
</defs>
<polyline clip-path="url(#clip142)" style="stroke:#000000; stroke-width:2; stroke-opacity:0.1; fill:none" points="
  465.874,1521.01 465.874,47.2441 
  "/>
<polyline clip-path="url(#clip142)" style="stroke:#000000; stroke-width:2; stroke-opacity:0.1; fill:none" points="
  852.301,1521.01 852.301,47.2441 
  "/>
<polyline clip-path="url(#clip142)" style="stroke:#000000; stroke-width:2; stroke-opacity:0.1; fill:none" points="
  1238.73,1521.01 1238.73,47.2441 
  "/>
<polyline clip-path="url(#clip142)" style="stroke:#000000; stroke-width:2; stroke-opacity:0.1; fill:none" points="
  1625.16,1521.01 1625.16,47.2441 
  "/>
<polyline clip-path="url(#clip142)" style="stroke:#000000; stroke-width:2; stroke-opacity:0.1; fill:none" points="
  2011.58,1521.01 2011.58,47.2441 
  "/>
<polyline clip-path="url(#clip142)" style="stroke:#000000; stroke-width:2; stroke-opacity:0.1; fill:none" points="
  86.9921,1479.3 2352.76,1479.3 
  "/>
<polyline clip-path="url(#clip142)" style="stroke:#000000; stroke-width:2; stroke-opacity:0.1; fill:none" points="
  86.9921,1190.47 2352.76,1190.47 
  "/>
<polyline clip-path="url(#clip142)" style="stroke:#000000; stroke-width:2; stroke-opacity:0.1; fill:none" points="
  86.9921,901.651 2352.76,901.651 
  "/>
<polyline clip-path="url(#clip142)" style="stroke:#000000; stroke-width:2; stroke-opacity:0.1; fill:none" points="
  86.9921,612.828 2352.76,612.828 
  "/>
<polyline clip-path="url(#clip142)" style="stroke:#000000; stroke-width:2; stroke-opacity:0.1; fill:none" points="
  86.9921,324.005 2352.76,324.005 
  "/>
<polyline clip-path="url(#clip140)" style="stroke:#000000; stroke-width:4; stroke-opacity:1; fill:none" points="
  86.9921,1521.01 2352.76,1521.01 
  "/>
<polyline clip-path="url(#clip140)" style="stroke:#000000; stroke-width:4; stroke-opacity:1; fill:none" points="
  86.9921,1521.01 86.9921,47.2441 
  "/>
<polyline clip-path="url(#clip140)" style="stroke:#000000; stroke-width:4; stroke-opacity:1; fill:none" points="
  465.874,1521.01 465.874,1503.32 
  "/>
<polyline clip-path="url(#clip140)" style="stroke:#000000; stroke-width:4; stroke-opacity:1; fill:none" points="
  852.301,1521.01 852.301,1503.32 
  "/>
<polyline clip-path="url(#clip140)" style="stroke:#000000; stroke-width:4; stroke-opacity:1; fill:none" points="
  1238.73,1521.01 1238.73,1503.32 
  "/>
<polyline clip-path="url(#clip140)" style="stroke:#000000; stroke-width:4; stroke-opacity:1; fill:none" points="
  1625.16,1521.01 1625.16,1503.32 
  "/>
<polyline clip-path="url(#clip140)" style="stroke:#000000; stroke-width:4; stroke-opacity:1; fill:none" points="
  2011.58,1521.01 2011.58,1503.32 
  "/>
<polyline clip-path="url(#clip140)" style="stroke:#000000; stroke-width:4; stroke-opacity:1; fill:none" points="
  86.9921,1479.3 114.181,1479.3 
  "/>
<polyline clip-path="url(#clip140)" style="stroke:#000000; stroke-width:4; stroke-opacity:1; fill:none" points="
  86.9921,1190.47 114.181,1190.47 
  "/>
<polyline clip-path="url(#clip140)" style="stroke:#000000; stroke-width:4; stroke-opacity:1; fill:none" points="
  86.9921,901.651 114.181,901.651 
  "/>
<polyline clip-path="url(#clip140)" style="stroke:#000000; stroke-width:4; stroke-opacity:1; fill:none" points="
  86.9921,612.828 114.181,612.828 
  "/>
<polyline clip-path="url(#clip140)" style="stroke:#000000; stroke-width:4; stroke-opacity:1; fill:none" points="
  86.9921,324.005 114.181,324.005 
  "/>
<path clip-path="url(#clip140)" d="M 0 0 M427.402 1559.6 L439.878 1559.6 L439.878 1563.39 L427.402 1563.39 L427.402 1559.6 Z" fill="#000000" fill-rule="evenodd" fill-opacity="1" /><path clip-path="url(#clip140)" d="M 0 0 M454.948 1543 Q451.337 1543 449.508 1546.56 Q447.703 1550.11 447.703 1557.23 Q447.703 1564.34 449.508 1567.91 Q451.337 1571.45 454.948 1571.45 Q458.582 1571.45 460.388 1567.91 Q462.216 1564.34 462.216 1557.23 Q462.216 1550.11 460.388 1546.56 Q458.582 1543 454.948 1543 M454.948 1539.29 Q460.758 1539.29 463.814 1543.9 Q466.892 1548.48 466.892 1557.23 Q466.892 1565.96 463.814 1570.57 Q460.758 1575.15 454.948 1575.15 Q449.138 1575.15 446.059 1570.57 Q443.003 1565.96 443.003 1557.23 Q443.003 1548.48 446.059 1543.9 Q449.138 1539.29 454.948 1539.29 Z" fill="#000000" fill-rule="evenodd" fill-opacity="1" /><path clip-path="url(#clip140)" d="M 0 0 M471.962 1568.6 L476.846 1568.6 L476.846 1574.48 L471.962 1574.48 L471.962 1568.6 Z" fill="#000000" fill-rule="evenodd" fill-opacity="1" /><path clip-path="url(#clip140)" d="M 0 0 M494.762 1543.99 L482.957 1562.44 L494.762 1562.44 L494.762 1543.99 M493.536 1539.92 L499.415 1539.92 L499.415 1562.44 L504.346 1562.44 L504.346 1566.33 L499.415 1566.33 L499.415 1574.48 L494.762 1574.48 L494.762 1566.33 L479.161 1566.33 L479.161 1561.82 L493.536 1539.92 Z" fill="#000000" fill-rule="evenodd" fill-opacity="1" /><path clip-path="url(#clip140)" d="M 0 0 M814.871 1559.6 L827.348 1559.6 L827.348 1563.39 L814.871 1563.39 L814.871 1559.6 Z" fill="#000000" fill-rule="evenodd" fill-opacity="1" /><path clip-path="url(#clip140)" d="M 0 0 M842.417 1543 Q838.806 1543 836.977 1546.56 Q835.172 1550.11 835.172 1557.23 Q835.172 1564.34 836.977 1567.91 Q838.806 1571.45 842.417 1571.45 Q846.051 1571.45 847.857 1567.91 Q849.685 1564.34 849.685 1557.23 Q849.685 1550.11 847.857 1546.56 Q846.051 1543 842.417 1543 M842.417 1539.29 Q848.227 1539.29 851.283 1543.9 Q854.361 1548.48 854.361 1557.23 Q854.361 1565.96 851.283 1570.57 Q848.227 1575.15 842.417 1575.15 Q836.607 1575.15 833.528 1570.57 Q830.473 1565.96 830.473 1557.23 Q830.473 1548.48 833.528 1543.9 Q836.607 1539.29 842.417 1539.29 Z" fill="#000000" fill-rule="evenodd" fill-opacity="1" /><path clip-path="url(#clip140)" d="M 0 0 M859.431 1568.6 L864.315 1568.6 L864.315 1574.48 L859.431 1574.48 L859.431 1568.6 Z" fill="#000000" fill-rule="evenodd" fill-opacity="1" /><path clip-path="url(#clip140)" d="M 0 0 M873.412 1570.54 L889.731 1570.54 L889.731 1574.48 L867.787 1574.48 L867.787 1570.54 Q870.449 1567.79 875.032 1563.16 Q879.639 1558.51 880.819 1557.17 Q883.065 1554.64 883.944 1552.91 Q884.847 1551.15 884.847 1549.46 Q884.847 1546.7 882.903 1544.97 Q880.982 1543.23 877.88 1543.23 Q875.681 1543.23 873.227 1543.99 Q870.796 1544.76 868.019 1546.31 L868.019 1541.59 Q870.843 1540.45 873.296 1539.87 Q875.75 1539.29 877.787 1539.29 Q883.157 1539.29 886.352 1541.98 Q889.546 1544.67 889.546 1549.16 Q889.546 1551.29 888.736 1553.21 Q887.949 1555.1 885.843 1557.7 Q885.264 1558.37 882.162 1561.59 Q879.06 1564.78 873.412 1570.54 Z" fill="#000000" fill-rule="evenodd" fill-opacity="1" /><path clip-path="url(#clip140)" d="M 0 0 M1220.24 1543 Q1216.63 1543 1214.81 1546.56 Q1213 1550.11 1213 1557.23 Q1213 1564.34 1214.81 1567.91 Q1216.63 1571.45 1220.24 1571.45 Q1223.88 1571.45 1225.68 1567.91 Q1227.51 1564.34 1227.51 1557.23 Q1227.51 1550.11 1225.68 1546.56 Q1223.88 1543 1220.24 1543 M1220.24 1539.29 Q1226.05 1539.29 1229.11 1543.9 Q1232.19 1548.48 1232.19 1557.23 Q1232.19 1565.96 1229.11 1570.57 Q1226.05 1575.15 1220.24 1575.15 Q1214.43 1575.15 1211.36 1570.57 Q1208.3 1565.96 1208.3 1557.23 Q1208.3 1548.48 1211.36 1543.9 Q1214.43 1539.29 1220.24 1539.29 Z" fill="#000000" fill-rule="evenodd" fill-opacity="1" /><path clip-path="url(#clip140)" d="M 0 0 M1237.26 1568.6 L1242.14 1568.6 L1242.14 1574.48 L1237.26 1574.48 L1237.26 1568.6 Z" fill="#000000" fill-rule="evenodd" fill-opacity="1" /><path clip-path="url(#clip140)" d="M 0 0 M1257.21 1543 Q1253.6 1543 1251.77 1546.56 Q1249.97 1550.11 1249.97 1557.23 Q1249.97 1564.34 1251.77 1567.91 Q1253.6 1571.45 1257.21 1571.45 Q1260.85 1571.45 1262.65 1567.91 Q1264.48 1564.34 1264.48 1557.23 Q1264.48 1550.11 1262.65 1546.56 Q1260.85 1543 1257.21 1543 M1257.21 1539.29 Q1263.02 1539.29 1266.08 1543.9 Q1269.16 1548.48 1269.16 1557.23 Q1269.16 1565.96 1266.08 1570.57 Q1263.02 1575.15 1257.21 1575.15 Q1251.4 1575.15 1248.32 1570.57 Q1245.27 1565.96 1245.27 1557.23 Q1245.27 1548.48 1248.32 1543.9 Q1251.4 1539.29 1257.21 1539.29 Z" fill="#000000" fill-rule="evenodd" fill-opacity="1" /><path clip-path="url(#clip140)" d="M 0 0 M1607.47 1543 Q1603.86 1543 1602.03 1546.56 Q1600.23 1550.11 1600.23 1557.23 Q1600.23 1564.34 1602.03 1567.91 Q1603.86 1571.45 1607.47 1571.45 Q1611.11 1571.45 1612.91 1567.91 Q1614.74 1564.34 1614.74 1557.23 Q1614.74 1550.11 1612.91 1546.56 Q1611.11 1543 1607.47 1543 M1607.47 1539.29 Q1613.28 1539.29 1616.34 1543.9 Q1619.42 1548.48 1619.42 1557.23 Q1619.42 1565.96 1616.34 1570.57 Q1613.28 1575.15 1607.47 1575.15 Q1601.66 1575.15 1598.58 1570.57 Q1595.53 1565.96 1595.53 1557.23 Q1595.53 1548.48 1598.58 1543.9 Q1601.66 1539.29 1607.47 1539.29 Z" fill="#000000" fill-rule="evenodd" fill-opacity="1" /><path clip-path="url(#clip140)" d="M 0 0 M1624.48 1568.6 L1629.37 1568.6 L1629.37 1574.48 L1624.48 1574.48 L1624.48 1568.6 Z" fill="#000000" fill-rule="evenodd" fill-opacity="1" /><path clip-path="url(#clip140)" d="M 0 0 M1638.47 1570.54 L1654.79 1570.54 L1654.79 1574.48 L1632.84 1574.48 L1632.84 1570.54 Q1635.5 1567.79 1640.09 1563.16 Q1644.69 1558.51 1645.87 1557.17 Q1648.12 1554.64 1649 1552.91 Q1649.9 1551.15 1649.9 1549.46 Q1649.9 1546.7 1647.96 1544.97 Q1646.04 1543.23 1642.93 1543.23 Q1640.73 1543.23 1638.28 1543.99 Q1635.85 1544.76 1633.07 1546.31 L1633.07 1541.59 Q1635.9 1540.45 1638.35 1539.87 Q1640.8 1539.29 1642.84 1539.29 Q1648.21 1539.29 1651.41 1541.98 Q1654.6 1544.67 1654.6 1549.16 Q1654.6 1551.29 1653.79 1553.21 Q1653 1555.1 1650.9 1557.7 Q1650.32 1558.37 1647.22 1561.59 Q1644.11 1564.78 1638.47 1570.54 Z" fill="#000000" fill-rule="evenodd" fill-opacity="1" /><path clip-path="url(#clip140)" d="M 0 0 M1992.86 1543 Q1989.25 1543 1987.42 1546.56 Q1985.61 1550.11 1985.61 1557.23 Q1985.61 1564.34 1987.42 1567.91 Q1989.25 1571.45 1992.86 1571.45 Q1996.49 1571.45 1998.3 1567.91 Q2000.13 1564.34 2000.13 1557.23 Q2000.13 1550.11 1998.3 1546.56 Q1996.49 1543 1992.86 1543 M1992.86 1539.29 Q1998.67 1539.29 2001.72 1543.9 Q2004.8 1548.48 2004.8 1557.23 Q2004.8 1565.96 2001.72 1570.57 Q1998.67 1575.15 1992.86 1575.15 Q1987.05 1575.15 1983.97 1570.57 Q1980.91 1565.96 1980.91 1557.23 Q1980.91 1548.48 1983.97 1543.9 Q1987.05 1539.29 1992.86 1539.29 Z" fill="#000000" fill-rule="evenodd" fill-opacity="1" /><path clip-path="url(#clip140)" d="M 0 0 M2009.87 1568.6 L2014.75 1568.6 L2014.75 1574.48 L2009.87 1574.48 L2009.87 1568.6 Z" fill="#000000" fill-rule="evenodd" fill-opacity="1" /><path clip-path="url(#clip140)" d="M 0 0 M2032.67 1543.99 L2020.87 1562.44 L2032.67 1562.44 L2032.67 1543.99 M2031.44 1539.92 L2037.32 1539.92 L2037.32 1562.44 L2042.25 1562.44 L2042.25 1566.33 L2037.32 1566.33 L2037.32 1574.48 L2032.67 1574.48 L2032.67 1566.33 L2017.07 1566.33 L2017.07 1561.82 L2031.44 1539.92 Z" fill="#000000" fill-rule="evenodd" fill-opacity="1" /><path clip-path="url(#clip140)" d="M 0 0 M14.0804 1465.1 Q10.4693 1465.1 8.64057 1468.66 Q6.83502 1472.2 6.83502 1479.33 Q6.83502 1486.44 8.64057 1490 Q10.4693 1493.55 14.0804 1493.55 Q17.7146 1493.55 19.5201 1490 Q21.3488 1486.44 21.3488 1479.33 Q21.3488 1472.2 19.5201 1468.66 Q17.7146 1465.1 14.0804 1465.1 M14.0804 1461.39 Q19.8905 1461.39 22.946 1466 Q26.0247 1470.58 26.0247 1479.33 Q26.0247 1488.06 22.946 1492.67 Q19.8905 1497.25 14.0804 1497.25 Q8.2702 1497.25 5.19151 1492.67 Q2.13597 1488.06 2.13597 1479.33 Q2.13597 1470.58 5.19151 1466 Q8.2702 1461.39 14.0804 1461.39 Z" fill="#000000" fill-rule="evenodd" fill-opacity="1" /><path clip-path="url(#clip140)" d="M 0 0 M31.0941 1490.7 L35.9784 1490.7 L35.9784 1496.58 L31.0941 1496.58 L31.0941 1490.7 Z" fill="#000000" fill-rule="evenodd" fill-opacity="1" /><path clip-path="url(#clip140)" d="M 0 0 M51.0477 1465.1 Q47.4367 1465.1 45.608 1468.66 Q43.8024 1472.2 43.8024 1479.33 Q43.8024 1486.44 45.608 1490 Q47.4367 1493.55 51.0477 1493.55 Q54.682 1493.55 56.4875 1490 Q58.3162 1486.44 58.3162 1479.33 Q58.3162 1472.2 56.4875 1468.66 Q54.682 1465.1 51.0477 1465.1 M51.0477 1461.39 Q56.8579 1461.39 59.9134 1466 Q62.9921 1470.58 62.9921 1479.33 Q62.9921 1488.06 59.9134 1492.67 Q56.8579 1497.25 51.0477 1497.25 Q45.2376 1497.25 42.1589 1492.67 Q39.1034 1488.06 39.1034 1479.33 Q39.1034 1470.58 42.1589 1466 Q45.2376 1461.39 51.0477 1461.39 Z" fill="#000000" fill-rule="evenodd" fill-opacity="1" /><path clip-path="url(#clip140)" d="M 0 0 M15.0757 1176.27 Q11.4646 1176.27 9.63593 1179.84 Q7.83038 1183.38 7.83038 1190.51 Q7.83038 1197.62 9.63593 1201.18 Q11.4646 1204.72 15.0757 1204.72 Q18.71 1204.72 20.5155 1201.18 Q22.3442 1197.62 22.3442 1190.51 Q22.3442 1183.38 20.5155 1179.84 Q18.71 1176.27 15.0757 1176.27 M15.0757 1172.57 Q20.8859 1172.57 23.9414 1177.18 Q27.0201 1181.76 27.0201 1190.51 Q27.0201 1199.24 23.9414 1203.84 Q20.8859 1208.43 15.0757 1208.43 Q9.26556 1208.43 6.18687 1203.84 Q3.13134 1199.24 3.13134 1190.51 Q3.13134 1181.76 6.18687 1177.18 Q9.26556 1172.57 15.0757 1172.57 Z" fill="#000000" fill-rule="evenodd" fill-opacity="1" /><path clip-path="url(#clip140)" d="M 0 0 M32.0895 1201.87 L36.9737 1201.87 L36.9737 1207.75 L32.0895 1207.75 L32.0895 1201.87 Z" fill="#000000" fill-rule="evenodd" fill-opacity="1" /><path clip-path="url(#clip140)" d="M 0 0 M42.0895 1173.19 L60.4458 1173.19 L60.4458 1177.13 L46.3718 1177.13 L46.3718 1185.6 Q47.3904 1185.25 48.4089 1185.09 Q49.4274 1184.91 50.4459 1184.91 Q56.2329 1184.91 59.6125 1188.08 Q62.9921 1191.25 62.9921 1196.67 Q62.9921 1202.25 59.5199 1205.35 Q56.0477 1208.43 49.7283 1208.43 Q47.5524 1208.43 45.2839 1208.06 Q43.0385 1207.68 40.6311 1206.94 L40.6311 1202.25 Q42.7145 1203.38 44.9367 1203.93 Q47.1589 1204.49 49.6357 1204.49 Q53.6403 1204.49 55.9783 1202.38 Q58.3162 1200.28 58.3162 1196.67 Q58.3162 1193.06 55.9783 1190.95 Q53.6403 1188.84 49.6357 1188.84 Q47.7607 1188.84 45.8857 1189.26 Q44.0339 1189.68 42.0895 1190.56 L42.0895 1173.19 Z" fill="#000000" fill-rule="evenodd" fill-opacity="1" /><path clip-path="url(#clip140)" d="M 0 0 M6.11743 914.996 L13.7563 914.996 L13.7563 888.63 L5.44614 890.297 L5.44614 886.038 L13.71 884.371 L18.3859 884.371 L18.3859 914.996 L26.0247 914.996 L26.0247 918.931 L6.11743 918.931 L6.11743 914.996 Z" fill="#000000" fill-rule="evenodd" fill-opacity="1" /><path clip-path="url(#clip140)" d="M 0 0 M31.0941 913.052 L35.9784 913.052 L35.9784 918.931 L31.0941 918.931 L31.0941 913.052 Z" fill="#000000" fill-rule="evenodd" fill-opacity="1" /><path clip-path="url(#clip140)" d="M 0 0 M51.0477 887.45 Q47.4367 887.45 45.608 891.015 Q43.8024 894.556 43.8024 901.686 Q43.8024 908.792 45.608 912.357 Q47.4367 915.899 51.0477 915.899 Q54.682 915.899 56.4875 912.357 Q58.3162 908.792 58.3162 901.686 Q58.3162 894.556 56.4875 891.015 Q54.682 887.45 51.0477 887.45 M51.0477 883.746 Q56.8579 883.746 59.9134 888.353 Q62.9921 892.936 62.9921 901.686 Q62.9921 910.413 59.9134 915.019 Q56.8579 919.603 51.0477 919.603 Q45.2376 919.603 42.1589 915.019 Q39.1034 910.413 39.1034 901.686 Q39.1034 892.936 42.1589 888.353 Q45.2376 883.746 51.0477 883.746 Z" fill="#000000" fill-rule="evenodd" fill-opacity="1" /><path clip-path="url(#clip140)" d="M 0 0 M7.1128 626.173 L14.7516 626.173 L14.7516 599.807 L6.4415 601.474 L6.4415 597.215 L14.7053 595.548 L19.3812 595.548 L19.3812 626.173 L27.0201 626.173 L27.0201 630.108 L7.1128 630.108 L7.1128 626.173 Z" fill="#000000" fill-rule="evenodd" fill-opacity="1" /><path clip-path="url(#clip140)" d="M 0 0 M32.0895 624.228 L36.9737 624.228 L36.9737 630.108 L32.0895 630.108 L32.0895 624.228 Z" fill="#000000" fill-rule="evenodd" fill-opacity="1" /><path clip-path="url(#clip140)" d="M 0 0 M42.0895 595.548 L60.4458 595.548 L60.4458 599.483 L46.3718 599.483 L46.3718 607.955 Q47.3904 607.608 48.4089 607.446 Q49.4274 607.261 50.4459 607.261 Q56.2329 607.261 59.6125 610.432 Q62.9921 613.603 62.9921 619.02 Q62.9921 624.599 59.5199 627.701 Q56.0477 630.779 49.7283 630.779 Q47.5524 630.779 45.2839 630.409 Q43.0385 630.039 40.6311 629.298 L40.6311 624.599 Q42.7145 625.733 44.9367 626.289 Q47.1589 626.844 49.6357 626.844 Q53.6403 626.844 55.9783 624.738 Q58.3162 622.631 58.3162 619.02 Q58.3162 615.409 55.9783 613.303 Q53.6403 611.196 49.6357 611.196 Q47.7607 611.196 45.8857 611.613 Q44.0339 612.029 42.0895 612.909 L42.0895 595.548 Z" fill="#000000" fill-rule="evenodd" fill-opacity="1" /><path clip-path="url(#clip140)" d="M 0 0 M9.70537 337.35 L26.0247 337.35 L26.0247 341.285 L4.0804 341.285 L4.0804 337.35 Q6.74243 334.595 11.3257 329.965 Q15.9322 325.313 17.1127 323.97 Q19.3581 321.447 20.2377 319.711 Q21.1405 317.952 21.1405 316.262 Q21.1405 313.507 19.1961 311.771 Q17.2748 310.035 14.1729 310.035 Q11.9739 310.035 9.52019 310.799 Q7.08965 311.563 4.31188 313.114 L4.31188 308.391 Q7.13594 307.257 9.58963 306.679 Q12.0433 306.1 14.0804 306.1 Q19.4507 306.1 22.6451 308.785 Q25.8395 311.47 25.8395 315.961 Q25.8395 318.091 25.0294 320.012 Q24.2423 321.91 22.1359 324.503 Q21.5572 325.174 18.4553 328.391 Q15.3535 331.586 9.70537 337.35 Z" fill="#000000" fill-rule="evenodd" fill-opacity="1" /><path clip-path="url(#clip140)" d="M 0 0 M31.0941 335.405 L35.9784 335.405 L35.9784 341.285 L31.0941 341.285 L31.0941 335.405 Z" fill="#000000" fill-rule="evenodd" fill-opacity="1" /><path clip-path="url(#clip140)" d="M 0 0 M51.0477 309.804 Q47.4367 309.804 45.608 313.368 Q43.8024 316.91 43.8024 324.04 Q43.8024 331.146 45.608 334.711 Q47.4367 338.252 51.0477 338.252 Q54.682 338.252 56.4875 334.711 Q58.3162 331.146 58.3162 324.04 Q58.3162 316.91 56.4875 313.368 Q54.682 309.804 51.0477 309.804 M51.0477 306.1 Q56.8579 306.1 59.9134 310.706 Q62.9921 315.29 62.9921 324.04 Q62.9921 332.766 59.9134 337.373 Q56.8579 341.956 51.0477 341.956 Q45.2376 341.956 42.1589 337.373 Q39.1034 332.766 39.1034 324.04 Q39.1034 315.29 42.1589 310.706 Q45.2376 306.1 51.0477 306.1 Z" fill="#000000" fill-rule="evenodd" fill-opacity="1" /><path clip-path="url(#clip142)" d="
M151.118 1462.69 L156.113 1461.04 L161.108 1459.36 L166.103 1457.64 L171.098 1455.92 L176.093 1454.21 L181.088 1452.51 L186.083 1450.83 L191.078 1449.2 L196.074 1447.61 
  L201.069 1446.07 L206.064 1444.58 L211.059 1443.15 L216.054 1441.76 L221.049 1440.42 L226.044 1439.12 L231.039 1437.85 L236.035 1436.59 L241.03 1435.35 L246.025 1434.1 
  L251.02 1432.84 L256.015 1431.56 L261.01 1430.24 L266.005 1428.88 L271 1427.47 L275.995 1426.01 L280.991 1424.49 L285.986 1422.91 L290.981 1421.27 L295.976 1419.58 
  L300.971 1417.84 L305.966 1416.06 L310.961 1414.25 L315.956 1412.43 L320.952 1410.61 L325.947 1408.81 L330.942 1407.04 L335.937 1405.32 L340.932 1403.66 L345.927 1402.08 
  L350.922 1400.58 L355.917 1399.17 L360.912 1397.84 L365.908 1396.6 L370.903 1395.42 L375.898 1394.29 L380.893 1393.19 L385.888 1392.09 L390.883 1390.96 L395.878 1389.78 
  L400.873 1388.51 L405.869 1387.13 L410.864 1385.61 L415.859 1383.94 L420.854 1382.09 L425.849 1380.07 L430.844 1377.86 L435.839 1375.49 L440.834 1372.95 L445.829 1370.27 
  L450.825 1367.47 L455.82 1364.56 L460.815 1361.58 L465.81 1358.54 L470.805 1355.47 L475.8 1352.36 L480.795 1349.25 L485.79 1346.11 L490.786 1342.96 L495.781 1339.78 
  L500.776 1336.56 L505.771 1333.28 L510.766 1329.91 L515.761 1326.43 L520.756 1322.82 L525.751 1319.05 L530.747 1315.12 L535.742 1310.99 L540.737 1306.67 L545.732 1302.14 
  L550.727 1297.42 L555.722 1292.51 L560.717 1287.44 L565.712 1282.22 L570.707 1276.89 L575.703 1271.5 L580.698 1266.09 L585.693 1260.72 L590.688 1255.43 L595.683 1250.31 
  L600.678 1245.4 L605.673 1240.78 L610.668 1236.51 L615.664 1232.64 L620.659 1229.24 L625.654 1226.34 L630.649 1223.99 L635.644 1222.2 L640.639 1220.98 L645.634 1220.34 
  L645.634 1479.3 L640.639 1479.3 L635.644 1479.3 L630.649 1479.3 L625.654 1479.3 L620.659 1479.3 L615.664 1479.3 L610.668 1479.3 L605.673 1479.3 L600.678 1479.3 
  L595.683 1479.3 L590.688 1479.3 L585.693 1479.3 L580.698 1479.3 L575.703 1479.3 L570.707 1479.3 L565.712 1479.3 L560.717 1479.3 L555.722 1479.3 L550.727 1479.3 
  L545.732 1479.3 L540.737 1479.3 L535.742 1479.3 L530.747 1479.3 L525.751 1479.3 L520.756 1479.3 L515.761 1479.3 L510.766 1479.3 L505.771 1479.3 L500.776 1479.3 
  L495.781 1479.3 L490.786 1479.3 L485.79 1479.3 L480.795 1479.3 L475.8 1479.3 L470.805 1479.3 L465.81 1479.3 L460.815 1479.3 L455.82 1479.3 L450.825 1479.3 
  L445.829 1479.3 L440.834 1479.3 L435.839 1479.3 L430.844 1479.3 L425.849 1479.3 L420.854 1479.3 L415.859 1479.3 L410.864 1479.3 L405.869 1479.3 L400.873 1479.3 
  L395.878 1479.3 L390.883 1479.3 L385.888 1479.3 L380.893 1479.3 L375.898 1479.3 L370.903 1479.3 L365.908 1479.3 L360.912 1479.3 L355.917 1479.3 L350.922 1479.3 
  L345.927 1479.3 L340.932 1479.3 L335.937 1479.3 L330.942 1479.3 L325.947 1479.3 L320.952 1479.3 L315.956 1479.3 L310.961 1479.3 L305.966 1479.3 L300.971 1479.3 
  L295.976 1479.3 L290.981 1479.3 L285.986 1479.3 L280.991 1479.3 L275.995 1479.3 L271 1479.3 L266.005 1479.3 L261.01 1479.3 L256.015 1479.3 L251.02 1479.3 
  L246.025 1479.3 L241.03 1479.3 L236.035 1479.3 L231.039 1479.3 L226.044 1479.3 L221.049 1479.3 L216.054 1479.3 L211.059 1479.3 L206.064 1479.3 L201.069 1479.3 
  L196.074 1479.3 L191.078 1479.3 L186.083 1479.3 L181.088 1479.3 L176.093 1479.3 L171.098 1479.3 L166.103 1479.3 L161.108 1479.3 L156.113 1479.3 L151.118 1479.3 
   Z
  " fill="#ffa500" fill-rule="evenodd" fill-opacity="0.5"/>
<polyline clip-path="url(#clip142)" style="stroke:#ffa500; stroke-width:4; stroke-opacity:1; fill:none" points="
  151.118,1462.69 156.113,1461.04 161.108,1459.36 166.103,1457.64 171.098,1455.92 176.093,1454.21 181.088,1452.51 186.083,1450.83 191.078,1449.2 196.074,1447.61 
  201.069,1446.07 206.064,1444.58 211.059,1443.15 216.054,1441.76 221.049,1440.42 226.044,1439.12 231.039,1437.85 236.035,1436.59 241.03,1435.35 246.025,1434.1 
  251.02,1432.84 256.015,1431.56 261.01,1430.24 266.005,1428.88 271,1427.47 275.995,1426.01 280.991,1424.49 285.986,1422.91 290.981,1421.27 295.976,1419.58 
  300.971,1417.84 305.966,1416.06 310.961,1414.25 315.956,1412.43 320.952,1410.61 325.947,1408.81 330.942,1407.04 335.937,1405.32 340.932,1403.66 345.927,1402.08 
  350.922,1400.58 355.917,1399.17 360.912,1397.84 365.908,1396.6 370.903,1395.42 375.898,1394.29 380.893,1393.19 385.888,1392.09 390.883,1390.96 395.878,1389.78 
  400.873,1388.51 405.869,1387.13 410.864,1385.61 415.859,1383.94 420.854,1382.09 425.849,1380.07 430.844,1377.86 435.839,1375.49 440.834,1372.95 445.829,1370.27 
  450.825,1367.47 455.82,1364.56 460.815,1361.58 465.81,1358.54 470.805,1355.47 475.8,1352.36 480.795,1349.25 485.79,1346.11 490.786,1342.96 495.781,1339.78 
  500.776,1336.56 505.771,1333.28 510.766,1329.91 515.761,1326.43 520.756,1322.82 525.751,1319.05 530.747,1315.12 535.742,1310.99 540.737,1306.67 545.732,1302.14 
  550.727,1297.42 555.722,1292.51 560.717,1287.44 565.712,1282.22 570.707,1276.89 575.703,1271.5 580.698,1266.09 585.693,1260.72 590.688,1255.43 595.683,1250.31 
  600.678,1245.4 605.673,1240.78 610.668,1236.51 615.664,1232.64 620.659,1229.24 625.654,1226.34 630.649,1223.99 635.644,1222.2 640.639,1220.98 645.634,1220.34 
  
  "/>
<path clip-path="url(#clip142)" d="
M645.634 1220.34 L657.782 1221.02 L669.929 1224.36 L682.077 1229.34 L694.224 1234.68 L706.372 1238.97 L718.519 1240.92 L730.666 1239.51 L742.814 1234.17 L754.961 1224.78 
  L767.109 1211.74 L779.256 1195.8 L791.404 1177.95 L803.551 1159.29 L815.699 1140.81 L827.846 1123.36 L839.994 1107.46 L852.141 1093.33 L864.289 1080.88 L876.436 1069.83 
  L888.584 1059.75 L900.731 1050.18 L912.878 1040.62 L925.026 1030.56 L937.173 1019.42 L949.321 1006.6 L961.468 991.562 L973.616 973.963 L985.763 953.754 L997.911 931.213 
  L1010.06 906.89 L1022.21 881.492 L1034.35 855.734 L1046.5 830.215 L1058.65 805.311 L1070.8 781.122 L1082.94 757.474 L1095.09 733.971 L1107.24 710.103 L1119.39 685.368 
  L1131.53 659.377 L1143.68 631.915 L1155.83 602.948 L1167.98 572.608 L1180.12 541.166 L1192.27 509.035 L1204.42 476.758 L1216.57 444.978 L1228.71 414.351 L1240.86 385.427 
  L1253.01 358.557 L1265.15 333.867 L1277.3 311.32 L1289.45 290.821 L1301.6 272.284 L1313.74 255.606 L1325.89 240.559 L1338.04 226.693 L1350.19 213.339 L1362.33 199.773 
  L1374.48 185.48 L1386.63 170.381 L1398.78 154.911 L1410.92 139.876 L1423.07 126.165 L1435.22 114.452 L1447.37 105.027 L1459.51 97.8366 L1471.66 92.7077 L1483.81 89.6308 
  L1495.96 88.9544 L1508.1 91.3838 L1520.25 97.7725 L1532.4 108.8 L1544.55 124.689 L1556.69 145.106 L1568.84 169.274 L1580.99 196.249 L1593.14 225.211 L1605.28 255.619 
  L1617.43 287.186 L1629.58 319.698 L1641.73 352.816 L1653.87 386.001 L1666.02 418.622 L1678.17 450.232 L1690.32 480.873 L1702.46 511.243 L1714.61 542.623 L1726.76 576.544 
  L1738.91 614.306 L1751.05 656.524 L1763.2 702.851 L1775.35 751.991 L1787.5 801.965 L1799.64 850.574 L1811.79 895.899 L1823.94 936.722 L1836.09 972.75 L1848.23 1004.6 
  L1848.23 1479.3 L1836.09 1479.3 L1823.94 1479.3 L1811.79 1479.3 L1799.64 1479.3 L1787.5 1479.3 L1775.35 1479.3 L1763.2 1479.3 L1751.05 1479.3 L1738.91 1479.3 
  L1726.76 1479.3 L1714.61 1479.3 L1702.46 1479.3 L1690.32 1479.3 L1678.17 1479.3 L1666.02 1479.3 L1653.87 1479.3 L1641.73 1479.3 L1629.58 1479.3 L1617.43 1479.3 
  L1605.28 1479.3 L1593.14 1479.3 L1580.99 1479.3 L1568.84 1479.3 L1556.69 1479.3 L1544.55 1479.3 L1532.4 1479.3 L1520.25 1479.3 L1508.1 1479.3 L1495.96 1479.3 
  L1483.81 1479.3 L1471.66 1479.3 L1459.51 1479.3 L1447.37 1479.3 L1435.22 1479.3 L1423.07 1479.3 L1410.92 1479.3 L1398.78 1479.3 L1386.63 1479.3 L1374.48 1479.3 
  L1362.33 1479.3 L1350.19 1479.3 L1338.04 1479.3 L1325.89 1479.3 L1313.74 1479.3 L1301.6 1479.3 L1289.45 1479.3 L1277.3 1479.3 L1265.15 1479.3 L1253.01 1479.3 
  L1240.86 1479.3 L1228.71 1479.3 L1216.57 1479.3 L1204.42 1479.3 L1192.27 1479.3 L1180.12 1479.3 L1167.98 1479.3 L1155.83 1479.3 L1143.68 1479.3 L1131.53 1479.3 
  L1119.39 1479.3 L1107.24 1479.3 L1095.09 1479.3 L1082.94 1479.3 L1070.8 1479.3 L1058.65 1479.3 L1046.5 1479.3 L1034.35 1479.3 L1022.21 1479.3 L1010.06 1479.3 
  L997.911 1479.3 L985.763 1479.3 L973.616 1479.3 L961.468 1479.3 L949.321 1479.3 L937.173 1479.3 L925.026 1479.3 L912.878 1479.3 L900.731 1479.3 L888.584 1479.3 
  L876.436 1479.3 L864.289 1479.3 L852.141 1479.3 L839.994 1479.3 L827.846 1479.3 L815.699 1479.3 L803.551 1479.3 L791.404 1479.3 L779.256 1479.3 L767.109 1479.3 
  L754.961 1479.3 L742.814 1479.3 L730.666 1479.3 L718.519 1479.3 L706.372 1479.3 L694.224 1479.3 L682.077 1479.3 L669.929 1479.3 L657.782 1479.3 L645.634 1479.3 
   Z
  " fill="#008000" fill-rule="evenodd" fill-opacity="0.5"/>
<polyline clip-path="url(#clip142)" style="stroke:#008000; stroke-width:4; stroke-opacity:1; fill:none" points="
  645.634,1220.34 657.782,1221.02 669.929,1224.36 682.077,1229.34 694.224,1234.68 706.372,1238.97 718.519,1240.92 730.666,1239.51 742.814,1234.17 754.961,1224.78 
  767.109,1211.74 779.256,1195.8 791.404,1177.95 803.551,1159.29 815.699,1140.81 827.846,1123.36 839.994,1107.46 852.141,1093.33 864.289,1080.88 876.436,1069.83 
  888.584,1059.75 900.731,1050.18 912.878,1040.62 925.026,1030.56 937.173,1019.42 949.321,1006.6 961.468,991.562 973.616,973.963 985.763,953.754 997.911,931.213 
  1010.06,906.89 1022.21,881.492 1034.35,855.734 1046.5,830.215 1058.65,805.311 1070.8,781.122 1082.94,757.474 1095.09,733.971 1107.24,710.103 1119.39,685.368 
  1131.53,659.377 1143.68,631.915 1155.83,602.948 1167.98,572.608 1180.12,541.166 1192.27,509.035 1204.42,476.758 1216.57,444.978 1228.71,414.351 1240.86,385.427 
  1253.01,358.557 1265.15,333.867 1277.3,311.32 1289.45,290.821 1301.6,272.284 1313.74,255.606 1325.89,240.559 1338.04,226.693 1350.19,213.339 1362.33,199.773 
  1374.48,185.48 1386.63,170.381 1398.78,154.911 1410.92,139.876 1423.07,126.165 1435.22,114.452 1447.37,105.027 1459.51,97.8366 1471.66,92.7077 1483.81,89.6308 
  1495.96,88.9544 1508.1,91.3838 1520.25,97.7725 1532.4,108.8 1544.55,124.689 1556.69,145.106 1568.84,169.274 1580.99,196.249 1593.14,225.211 1605.28,255.619 
  1617.43,287.186 1629.58,319.698 1641.73,352.816 1653.87,386.001 1666.02,418.622 1678.17,450.232 1690.32,480.873 1702.46,511.243 1714.61,542.623 1726.76,576.544 
  1738.91,614.306 1751.05,656.524 1763.2,702.851 1775.35,751.991 1787.5,801.965 1799.64,850.574 1811.79,895.899 1823.94,936.722 1836.09,972.75 1848.23,1004.6 
  
  "/>
<path clip-path="url(#clip142)" d="
M1848.23 1004.6 L1852.68 1015.46 L1857.13 1026.01 L1861.58 1036.32 L1866.03 1046.47 L1870.48 1056.54 L1874.92 1066.6 L1879.37 1076.7 L1883.82 1086.89 L1888.27 1097.21 
  L1892.72 1107.7 L1897.17 1118.35 L1901.61 1129.19 L1906.06 1140.19 L1910.51 1151.34 L1914.96 1162.61 L1919.41 1173.97 L1923.86 1185.37 L1928.31 1196.76 L1932.75 1208.1 
  L1937.2 1219.34 L1941.65 1230.43 L1946.1 1241.31 L1950.55 1251.93 L1955 1262.27 L1959.44 1272.27 L1963.89 1281.9 L1968.34 1291.14 L1972.79 1299.97 L1977.24 1308.36 
  L1981.69 1316.31 L1986.14 1323.83 L1990.58 1330.9 L1995.03 1337.55 L1999.48 1343.8 L2003.93 1349.65 L2008.38 1355.15 L2012.83 1360.3 L2017.27 1365.16 L2021.72 1369.74 
  L2026.17 1374.09 L2030.62 1378.23 L2035.07 1382.19 L2039.52 1386.01 L2043.97 1389.7 L2048.41 1393.29 L2052.86 1396.8 L2057.31 1400.23 L2061.76 1403.6 L2066.21 1406.92 
  L2070.66 1410.17 L2075.1 1413.37 L2079.55 1416.51 L2084 1419.57 L2088.45 1422.56 L2092.9 1425.46 L2097.35 1428.27 L2101.8 1430.98 L2106.24 1433.58 L2110.69 1436.07 
  L2115.14 1438.45 L2119.59 1440.71 L2124.04 1442.87 L2128.49 1444.92 L2132.93 1446.86 L2137.38 1448.71 L2141.83 1450.47 L2146.28 1452.15 L2150.73 1453.76 L2155.18 1455.3 
  L2159.63 1456.78 L2164.07 1458.22 L2168.52 1459.6 L2172.97 1460.94 L2177.42 1462.24 L2181.87 1463.5 L2186.32 1464.71 L2190.76 1465.89 L2195.21 1467.01 L2199.66 1468.09 
  L2204.11 1469.12 L2208.56 1470.09 L2213.01 1471 L2217.46 1471.85 L2221.9 1472.64 L2226.35 1473.37 L2230.8 1474.03 L2235.25 1474.62 L2239.7 1475.15 L2244.15 1475.63 
  L2248.59 1476.04 L2253.04 1476.4 L2257.49 1476.72 L2261.94 1476.99 L2266.39 1477.22 L2270.84 1477.41 L2275.29 1477.58 L2279.73 1477.72 L2284.18 1477.84 L2288.63 1477.95 
  L2288.63 1479.3 L2284.18 1479.3 L2279.73 1479.3 L2275.29 1479.3 L2270.84 1479.3 L2266.39 1479.3 L2261.94 1479.3 L2257.49 1479.3 L2253.04 1479.3 L2248.59 1479.3 
  L2244.15 1479.3 L2239.7 1479.3 L2235.25 1479.3 L2230.8 1479.3 L2226.35 1479.3 L2221.9 1479.3 L2217.46 1479.3 L2213.01 1479.3 L2208.56 1479.3 L2204.11 1479.3 
  L2199.66 1479.3 L2195.21 1479.3 L2190.76 1479.3 L2186.32 1479.3 L2181.87 1479.3 L2177.42 1479.3 L2172.97 1479.3 L2168.52 1479.3 L2164.07 1479.3 L2159.63 1479.3 
  L2155.18 1479.3 L2150.73 1479.3 L2146.28 1479.3 L2141.83 1479.3 L2137.38 1479.3 L2132.93 1479.3 L2128.49 1479.3 L2124.04 1479.3 L2119.59 1479.3 L2115.14 1479.3 
  L2110.69 1479.3 L2106.24 1479.3 L2101.8 1479.3 L2097.35 1479.3 L2092.9 1479.3 L2088.45 1479.3 L2084 1479.3 L2079.55 1479.3 L2075.1 1479.3 L2070.66 1479.3 
  L2066.21 1479.3 L2061.76 1479.3 L2057.31 1479.3 L2052.86 1479.3 L2048.41 1479.3 L2043.97 1479.3 L2039.52 1479.3 L2035.07 1479.3 L2030.62 1479.3 L2026.17 1479.3 
  L2021.72 1479.3 L2017.27 1479.3 L2012.83 1479.3 L2008.38 1479.3 L2003.93 1479.3 L1999.48 1479.3 L1995.03 1479.3 L1990.58 1479.3 L1986.14 1479.3 L1981.69 1479.3 
  L1977.24 1479.3 L1972.79 1479.3 L1968.34 1479.3 L1963.89 1479.3 L1959.44 1479.3 L1955 1479.3 L1950.55 1479.3 L1946.1 1479.3 L1941.65 1479.3 L1937.2 1479.3 
  L1932.75 1479.3 L1928.31 1479.3 L1923.86 1479.3 L1919.41 1479.3 L1914.96 1479.3 L1910.51 1479.3 L1906.06 1479.3 L1901.61 1479.3 L1897.17 1479.3 L1892.72 1479.3 
  L1888.27 1479.3 L1883.82 1479.3 L1879.37 1479.3 L1874.92 1479.3 L1870.48 1479.3 L1866.03 1479.3 L1861.58 1479.3 L1857.13 1479.3 L1852.68 1479.3 L1848.23 1479.3 
   Z
  " fill="#ffa500" fill-rule="evenodd" fill-opacity="0.5"/>
<polyline clip-path="url(#clip142)" style="stroke:#ffa500; stroke-width:4; stroke-opacity:1; fill:none" points="
  1848.23,1004.6 1852.68,1015.46 1857.13,1026.01 1861.58,1036.32 1866.03,1046.47 1870.48,1056.54 1874.92,1066.6 1879.37,1076.7 1883.82,1086.89 1888.27,1097.21 
  1892.72,1107.7 1897.17,1118.35 1901.61,1129.19 1906.06,1140.19 1910.51,1151.34 1914.96,1162.61 1919.41,1173.97 1923.86,1185.37 1928.31,1196.76 1932.75,1208.1 
  1937.2,1219.34 1941.65,1230.43 1946.1,1241.31 1950.55,1251.93 1955,1262.27 1959.44,1272.27 1963.89,1281.9 1968.34,1291.14 1972.79,1299.97 1977.24,1308.36 
  1981.69,1316.31 1986.14,1323.83 1990.58,1330.9 1995.03,1337.55 1999.48,1343.8 2003.93,1349.65 2008.38,1355.15 2012.83,1360.3 2017.27,1365.16 2021.72,1369.74 
  2026.17,1374.09 2030.62,1378.23 2035.07,1382.19 2039.52,1386.01 2043.97,1389.7 2048.41,1393.29 2052.86,1396.8 2057.31,1400.23 2061.76,1403.6 2066.21,1406.92 
  2070.66,1410.17 2075.1,1413.37 2079.55,1416.51 2084,1419.57 2088.45,1422.56 2092.9,1425.46 2097.35,1428.27 2101.8,1430.98 2106.24,1433.58 2110.69,1436.07 
  2115.14,1438.45 2119.59,1440.71 2124.04,1442.87 2128.49,1444.92 2132.93,1446.86 2137.38,1448.71 2141.83,1450.47 2146.28,1452.15 2150.73,1453.76 2155.18,1455.3 
  2159.63,1456.78 2164.07,1458.22 2168.52,1459.6 2172.97,1460.94 2177.42,1462.24 2181.87,1463.5 2186.32,1464.71 2190.76,1465.89 2195.21,1467.01 2199.66,1468.09 
  2204.11,1469.12 2208.56,1470.09 2213.01,1471 2217.46,1471.85 2221.9,1472.64 2226.35,1473.37 2230.8,1474.03 2235.25,1474.62 2239.7,1475.15 2244.15,1475.63 
  2248.59,1476.04 2253.04,1476.4 2257.49,1476.72 2261.94,1476.99 2266.39,1477.22 2270.84,1477.41 2275.29,1477.58 2279.73,1477.72 2284.18,1477.84 2288.63,1477.95 
  
  "/>
<polyline clip-path="url(#clip142)" style="stroke:#0000ff; stroke-width:4; stroke-opacity:1; fill:none" points="
  1344.18,1479.3 1344.18,219.925 
  "/>
<polyline clip-path="url(#clip142)" style="stroke:#000000; stroke-width:4; stroke-opacity:1; fill:none" points="
  1392.87,1479.3 1392.87,162.436 
  "/>
<path clip-path="url(#clip140)" d="
M1509.86 493.644 L2280.76 493.644 L2280.76 130.764 L1509.86 130.764  Z
  " fill="#ffffff" fill-rule="evenodd" fill-opacity="1"/>
<polyline clip-path="url(#clip140)" style="stroke:#000000; stroke-width:4; stroke-opacity:1; fill:none" points="
  1509.86,493.644 2280.76,493.644 2280.76,130.764 1509.86,130.764 1509.86,493.644 
  "/>
<path clip-path="url(#clip140)" d="
M1533.86 215.436 L1677.86 215.436 L1677.86 167.052 L1533.86 167.052 L1533.86 215.436  Z
  " fill="#ffa500" fill-rule="evenodd" fill-opacity="0.5"/>
<polyline clip-path="url(#clip140)" style="stroke:#ffa500; stroke-width:4; stroke-opacity:1; fill:none" points="
  1533.86,167.052 1677.86,167.052 
  "/>
<path clip-path="url(#clip140)" d="M 0 0 M1706.25 195.584 Q1706.25 200.283 1708.18 202.969 Q1710.12 205.631 1713.5 205.631 Q1716.88 205.631 1718.82 202.969 Q1720.77 200.283 1720.77 195.584 Q1720.77 190.885 1718.82 188.223 Q1716.88 185.538 1713.5 185.538 Q1710.12 185.538 1708.18 188.223 Q1706.25 190.885 1706.25 195.584 M1720.77 204.635 Q1719.43 206.95 1717.37 208.084 Q1715.33 209.195 1712.46 209.195 Q1707.76 209.195 1704.8 205.445 Q1701.86 201.695 1701.86 195.584 Q1701.86 189.473 1704.8 185.723 Q1707.76 181.973 1712.46 181.973 Q1715.33 181.973 1717.37 183.108 Q1719.43 184.219 1720.77 186.533 L1720.77 182.598 L1725.03 182.598 L1725.03 218.385 L1720.77 218.385 L1720.77 204.635 Z" fill="#000000" fill-rule="evenodd" fill-opacity="1" /><path clip-path="url(#clip140)" d="M 0 0 M1740.1 177.043 Q1736.49 177.043 1734.66 180.608 Q1732.85 184.149 1732.85 191.279 Q1732.85 198.385 1734.66 201.95 Q1736.49 205.492 1740.1 205.492 Q1743.73 205.492 1745.54 201.95 Q1747.36 198.385 1747.36 191.279 Q1747.36 184.149 1745.54 180.608 Q1743.73 177.043 1740.1 177.043 M1740.1 173.339 Q1745.91 173.339 1748.96 177.946 Q1752.04 182.529 1752.04 191.279 Q1752.04 200.006 1748.96 204.612 Q1745.91 209.195 1740.1 209.195 Q1734.29 209.195 1731.21 204.612 Q1728.15 200.006 1728.15 191.279 Q1728.15 182.529 1731.21 177.946 Q1734.29 173.339 1740.1 173.339 Z" fill="#000000" fill-rule="evenodd" fill-opacity="1" /><path clip-path="url(#clip140)" d="M 0 0 M1757.16 173.964 L1775.51 173.964 L1775.51 177.899 L1761.44 177.899 L1761.44 186.371 Q1762.46 186.024 1763.48 185.862 Q1764.49 185.677 1765.51 185.677 Q1771.3 185.677 1774.68 188.848 Q1778.06 192.02 1778.06 197.436 Q1778.06 203.015 1774.59 206.117 Q1771.11 209.195 1764.8 209.195 Q1762.62 209.195 1760.35 208.825 Q1758.11 208.455 1755.7 207.714 L1755.7 203.015 Q1757.78 204.149 1760 204.705 Q1762.23 205.26 1764.7 205.26 Q1768.71 205.26 1771.05 203.154 Q1773.38 201.047 1773.38 197.436 Q1773.38 193.825 1771.05 191.719 Q1768.71 189.612 1764.7 189.612 Q1762.83 189.612 1760.95 190.029 Q1759.1 190.445 1757.16 191.325 L1757.16 173.964 Z" fill="#000000" fill-rule="evenodd" fill-opacity="1" /><path clip-path="url(#clip140)" d="
M1533.86 275.916 L1677.86 275.916 L1677.86 227.532 L1533.86 227.532 L1533.86 275.916  Z
  " fill="#008000" fill-rule="evenodd" fill-opacity="0.5"/>
<polyline clip-path="url(#clip140)" style="stroke:#008000; stroke-width:4; stroke-opacity:1; fill:none" points="
  1533.86,227.532 1677.86,227.532 
  "/>
<path clip-path="url(#clip140)" d="M 0 0 M1704.08 268.287 L1704.08 264.027 Q1705.84 264.861 1707.64 265.3 Q1709.45 265.74 1711.18 265.74 Q1715.81 265.74 1718.24 262.638 Q1720.7 259.513 1721.05 253.171 Q1719.7 255.162 1717.64 256.226 Q1715.58 257.291 1713.08 257.291 Q1707.9 257.291 1704.87 254.166 Q1701.86 251.018 1701.86 245.578 Q1701.86 240.254 1705 237.037 Q1708.15 233.819 1713.38 233.819 Q1719.38 233.819 1722.53 238.426 Q1725.7 243.009 1725.7 251.759 Q1725.7 259.93 1721.81 264.814 Q1717.94 269.675 1711.39 269.675 Q1709.63 269.675 1707.83 269.328 Q1706.02 268.981 1704.08 268.287 M1713.38 253.634 Q1716.53 253.634 1718.36 251.481 Q1720.21 249.328 1720.21 245.578 Q1720.21 241.851 1718.36 239.699 Q1716.53 237.523 1713.38 237.523 Q1710.24 237.523 1708.38 239.699 Q1706.56 241.851 1706.56 245.578 Q1706.56 249.328 1708.38 251.481 Q1710.24 253.634 1713.38 253.634 Z" fill="#000000" fill-rule="evenodd" fill-opacity="1" /><path clip-path="url(#clip140)" d="M 0 0 M1740.77 237.523 Q1737.16 237.523 1735.33 241.088 Q1733.52 244.629 1733.52 251.759 Q1733.52 258.865 1735.33 262.43 Q1737.16 265.972 1740.77 265.972 Q1744.4 265.972 1746.21 262.43 Q1748.04 258.865 1748.04 251.759 Q1748.04 244.629 1746.21 241.088 Q1744.4 237.523 1740.77 237.523 M1740.77 233.819 Q1746.58 233.819 1749.63 238.426 Q1752.71 243.009 1752.71 251.759 Q1752.71 260.486 1749.63 265.092 Q1746.58 269.675 1740.77 269.675 Q1734.96 269.675 1731.88 265.092 Q1728.82 260.486 1728.82 251.759 Q1728.82 243.009 1731.88 238.426 Q1734.96 233.819 1740.77 233.819 Z" fill="#000000" fill-rule="evenodd" fill-opacity="1" /><path clip-path="url(#clip140)" d="M 0 0 M1787.18 253.796 Q1785.17 253.796 1784.01 255.509 Q1782.87 257.222 1782.87 260.277 Q1782.87 263.287 1784.01 265.023 Q1785.17 266.736 1787.18 266.736 Q1789.15 266.736 1790.28 265.023 Q1791.44 263.287 1791.44 260.277 Q1791.44 257.245 1790.28 255.532 Q1789.15 253.796 1787.18 253.796 M1787.18 250.856 Q1790.84 250.856 1792.99 253.402 Q1795.14 255.949 1795.14 260.277 Q1795.14 264.606 1792.97 267.152 Q1790.81 269.675 1787.18 269.675 Q1783.48 269.675 1781.32 267.152 Q1779.17 264.606 1779.17 260.277 Q1779.17 255.925 1781.32 253.402 Q1783.5 250.856 1787.18 250.856 M1763.29 236.759 Q1761.3 236.759 1760.14 238.495 Q1759.01 240.208 1759.01 243.217 Q1759.01 246.273 1760.14 247.986 Q1761.28 249.699 1763.29 249.699 Q1765.3 249.699 1766.44 247.986 Q1767.6 246.273 1767.6 243.217 Q1767.6 240.231 1766.44 238.495 Q1765.28 236.759 1763.29 236.759 M1784.19 233.819 L1787.9 233.819 L1766.28 269.675 L1762.57 269.675 L1784.19 233.819 M1763.29 233.819 Q1766.95 233.819 1769.12 236.365 Q1771.3 238.889 1771.3 243.217 Q1771.3 247.592 1769.12 250.115 Q1766.97 252.638 1763.29 252.638 Q1759.61 252.638 1757.46 250.115 Q1755.33 247.569 1755.33 243.217 Q1755.33 238.912 1757.48 236.365 Q1759.63 233.819 1763.29 233.819 Z" fill="#000000" fill-rule="evenodd" fill-opacity="1" /><path clip-path="url(#clip140)" d="M 0 0 M1836.23 253.356 L1836.23 269.004 L1831.97 269.004 L1831.97 253.495 Q1831.97 249.814 1830.54 247.986 Q1829.1 246.157 1826.23 246.157 Q1822.78 246.157 1820.79 248.356 Q1818.8 250.555 1818.8 254.351 L1818.8 269.004 L1814.52 269.004 L1814.52 243.078 L1818.8 243.078 L1818.8 247.106 Q1820.33 244.768 1822.39 243.611 Q1824.47 242.453 1827.18 242.453 Q1831.65 242.453 1833.94 245.231 Q1836.23 247.986 1836.23 253.356 Z" fill="#000000" fill-rule="evenodd" fill-opacity="1" /><path clip-path="url(#clip140)" d="M 0 0 M1850.74 246.064 Q1847.32 246.064 1845.33 248.75 Q1843.34 251.412 1843.34 256.064 Q1843.34 260.717 1845.3 263.402 Q1847.3 266.064 1850.74 266.064 Q1854.15 266.064 1856.14 263.379 Q1858.13 260.694 1858.13 256.064 Q1858.13 251.458 1856.14 248.773 Q1854.15 246.064 1850.74 246.064 M1850.74 242.453 Q1856.3 242.453 1859.47 246.064 Q1862.64 249.675 1862.64 256.064 Q1862.64 262.43 1859.47 266.064 Q1856.3 269.675 1850.74 269.675 Q1845.17 269.675 1841.99 266.064 Q1838.85 262.43 1838.85 256.064 Q1838.85 249.675 1841.99 246.064 Q1845.17 242.453 1850.74 242.453 Z" fill="#000000" fill-rule="evenodd" fill-opacity="1" /><path clip-path="url(#clip140)" d="M 0 0 M1888.66 253.356 L1888.66 269.004 L1884.4 269.004 L1884.4 253.495 Q1884.4 249.814 1882.97 247.986 Q1881.53 246.157 1878.66 246.157 Q1875.21 246.157 1873.22 248.356 Q1871.23 250.555 1871.23 254.351 L1871.23 269.004 L1866.95 269.004 L1866.95 243.078 L1871.23 243.078 L1871.23 247.106 Q1872.76 244.768 1874.82 243.611 Q1876.9 242.453 1879.61 242.453 Q1884.08 242.453 1886.37 245.231 Q1888.66 247.986 1888.66 253.356 Z" fill="#000000" fill-rule="evenodd" fill-opacity="1" /><path clip-path="url(#clip140)" d="M 0 0 M1890.98 254.12 L1903.45 254.12 L1903.45 257.916 L1890.98 257.916 L1890.98 254.12 Z" fill="#000000" fill-rule="evenodd" fill-opacity="1" /><path clip-path="url(#clip140)" d="M 0 0 M1922.94 247.06 Q1922.23 246.643 1921.37 246.458 Q1920.54 246.25 1919.52 246.25 Q1915.91 246.25 1913.96 248.611 Q1912.04 250.949 1912.04 255.347 L1912.04 269.004 L1907.76 269.004 L1907.76 243.078 L1912.04 243.078 L1912.04 247.106 Q1913.38 244.745 1915.54 243.611 Q1917.69 242.453 1920.77 242.453 Q1921.21 242.453 1921.74 242.523 Q1922.27 242.569 1922.92 242.685 L1922.94 247.06 Z" fill="#000000" fill-rule="evenodd" fill-opacity="1" /><path clip-path="url(#clip140)" d="M 0 0 M1948.54 254.976 L1948.54 257.06 L1928.96 257.06 Q1929.24 261.458 1931.6 263.773 Q1933.98 266.064 1938.22 266.064 Q1940.67 266.064 1942.97 265.462 Q1945.28 264.861 1947.55 263.657 L1947.55 267.685 Q1945.26 268.657 1942.85 269.166 Q1940.44 269.675 1937.97 269.675 Q1931.76 269.675 1928.13 266.064 Q1924.52 262.453 1924.52 256.296 Q1924.52 249.93 1927.94 246.203 Q1931.39 242.453 1937.23 242.453 Q1942.46 242.453 1945.49 245.833 Q1948.54 249.189 1948.54 254.976 M1944.29 253.726 Q1944.24 250.231 1942.32 248.148 Q1940.42 246.064 1937.27 246.064 Q1933.71 246.064 1931.55 248.078 Q1929.42 250.092 1929.1 253.75 L1944.29 253.726 Z" fill="#000000" fill-rule="evenodd" fill-opacity="1" /><path clip-path="url(#clip140)" d="M 0 0 M1953.01 243.078 L1957.27 243.078 L1957.27 269.467 Q1957.27 274.421 1955.37 276.643 Q1953.5 278.865 1949.31 278.865 L1947.69 278.865 L1947.69 275.254 L1948.82 275.254 Q1951.25 275.254 1952.13 274.12 Q1953.01 273.009 1953.01 269.467 L1953.01 243.078 M1953.01 232.986 L1957.27 232.986 L1957.27 238.379 L1953.01 238.379 L1953.01 232.986 Z" fill="#000000" fill-rule="evenodd" fill-opacity="1" /><path clip-path="url(#clip140)" d="M 0 0 M1983.91 254.976 L1983.91 257.06 L1964.33 257.06 Q1964.61 261.458 1966.97 263.773 Q1969.35 266.064 1973.59 266.064 Q1976.04 266.064 1978.34 265.462 Q1980.65 264.861 1982.92 263.657 L1982.92 267.685 Q1980.63 268.657 1978.22 269.166 Q1975.81 269.675 1973.34 269.675 Q1967.13 269.675 1963.5 266.064 Q1959.89 262.453 1959.89 256.296 Q1959.89 249.93 1963.31 246.203 Q1966.76 242.453 1972.6 242.453 Q1977.83 242.453 1980.86 245.833 Q1983.91 249.189 1983.91 254.976 M1979.66 253.726 Q1979.61 250.231 1977.69 248.148 Q1975.79 246.064 1972.64 246.064 Q1969.08 246.064 1966.92 248.078 Q1964.79 250.092 1964.47 253.75 L1979.66 253.726 Z" fill="#000000" fill-rule="evenodd" fill-opacity="1" /><path clip-path="url(#clip140)" d="M 0 0 M2007.04 244.074 L2007.04 248.055 Q2005.23 247.06 2003.41 246.574 Q2001.6 246.064 1999.75 246.064 Q1995.6 246.064 1993.31 248.703 Q1991.02 251.319 1991.02 256.064 Q1991.02 260.81 1993.31 263.449 Q1995.6 266.064 1999.75 266.064 Q2001.6 266.064 2003.41 265.578 Q2005.23 265.069 2007.04 264.074 L2007.04 268.009 Q2005.26 268.842 2003.34 269.259 Q2001.44 269.675 1999.28 269.675 Q1993.43 269.675 1989.98 265.995 Q1986.53 262.314 1986.53 256.064 Q1986.53 249.722 1990 246.088 Q1993.5 242.453 1999.56 242.453 Q2001.53 242.453 2003.41 242.87 Q2005.28 243.263 2007.04 244.074 Z" fill="#000000" fill-rule="evenodd" fill-opacity="1" /><path clip-path="url(#clip140)" d="M 0 0 M2015.72 235.717 L2015.72 243.078 L2024.49 243.078 L2024.49 246.388 L2015.72 246.388 L2015.72 260.462 Q2015.72 263.634 2016.58 264.537 Q2017.46 265.439 2020.12 265.439 L2024.49 265.439 L2024.49 269.004 L2020.12 269.004 Q2015.19 269.004 2013.31 267.175 Q2011.44 265.324 2011.44 260.462 L2011.44 246.388 L2008.31 246.388 L2008.31 243.078 L2011.44 243.078 L2011.44 235.717 L2015.72 235.717 Z" fill="#000000" fill-rule="evenodd" fill-opacity="1" /><path clip-path="url(#clip140)" d="M 0 0 M2028.96 243.078 L2033.22 243.078 L2033.22 269.004 L2028.96 269.004 L2028.96 243.078 M2028.96 232.986 L2033.22 232.986 L2033.22 238.379 L2028.96 238.379 L2028.96 232.986 Z" fill="#000000" fill-rule="evenodd" fill-opacity="1" /><path clip-path="url(#clip140)" d="M 0 0 M2047.73 246.064 Q2044.31 246.064 2042.32 248.75 Q2040.33 251.412 2040.33 256.064 Q2040.33 260.717 2042.29 263.402 Q2044.28 266.064 2047.73 266.064 Q2051.14 266.064 2053.13 263.379 Q2055.12 260.694 2055.12 256.064 Q2055.12 251.458 2053.13 248.773 Q2051.14 246.064 2047.73 246.064 M2047.73 242.453 Q2053.29 242.453 2056.46 246.064 Q2059.63 249.675 2059.63 256.064 Q2059.63 262.43 2056.46 266.064 Q2053.29 269.675 2047.73 269.675 Q2042.16 269.675 2038.98 266.064 Q2035.84 262.43 2035.84 256.064 Q2035.84 249.675 2038.98 246.064 Q2042.16 242.453 2047.73 242.453 Z" fill="#000000" fill-rule="evenodd" fill-opacity="1" /><path clip-path="url(#clip140)" d="M 0 0 M2085.65 253.356 L2085.65 269.004 L2081.39 269.004 L2081.39 253.495 Q2081.39 249.814 2079.96 247.986 Q2078.52 246.157 2075.65 246.157 Q2072.2 246.157 2070.21 248.356 Q2068.22 250.555 2068.22 254.351 L2068.22 269.004 L2063.94 269.004 L2063.94 243.078 L2068.22 243.078 L2068.22 247.106 Q2069.75 244.768 2071.81 243.611 Q2073.89 242.453 2076.6 242.453 Q2081.07 242.453 2083.36 245.231 Q2085.65 247.986 2085.65 253.356 Z" fill="#000000" fill-rule="evenodd" fill-opacity="1" /><path clip-path="url(#clip140)" d="M 0 0 M2120.21 247.06 Q2119.49 246.643 2118.64 246.458 Q2117.8 246.25 2116.78 246.25 Q2113.17 246.25 2111.23 248.611 Q2109.31 250.949 2109.31 255.347 L2109.31 269.004 L2105.03 269.004 L2105.03 243.078 L2109.31 243.078 L2109.31 247.106 Q2110.65 244.745 2112.8 243.611 Q2114.96 242.453 2118.03 242.453 Q2118.47 242.453 2119.01 242.523 Q2119.54 242.569 2120.19 242.685 L2120.21 247.06 Z" fill="#000000" fill-rule="evenodd" fill-opacity="1" /><path clip-path="url(#clip140)" d="M 0 0 M2145.81 254.976 L2145.81 257.06 L2126.23 257.06 Q2126.51 261.458 2128.87 263.773 Q2131.25 266.064 2135.49 266.064 Q2137.94 266.064 2140.23 265.462 Q2142.55 264.861 2144.82 263.657 L2144.82 267.685 Q2142.52 268.657 2140.12 269.166 Q2137.71 269.675 2135.23 269.675 Q2129.03 269.675 2125.4 266.064 Q2121.78 262.453 2121.78 256.296 Q2121.78 249.93 2125.21 246.203 Q2128.66 242.453 2134.49 242.453 Q2139.72 242.453 2142.76 245.833 Q2145.81 249.189 2145.81 254.976 M2141.55 253.726 Q2141.51 250.231 2139.59 248.148 Q2137.69 246.064 2134.54 246.064 Q2130.97 246.064 2128.82 248.078 Q2126.69 250.092 2126.37 253.75 L2141.55 253.726 Z" fill="#000000" fill-rule="evenodd" fill-opacity="1" /><path clip-path="url(#clip140)" d="M 0 0 M2167.34 255.74 Q2167.34 251.111 2165.42 248.564 Q2163.52 246.018 2160.07 246.018 Q2156.65 246.018 2154.72 248.564 Q2152.83 251.111 2152.83 255.74 Q2152.83 260.347 2154.72 262.893 Q2156.65 265.439 2160.07 265.439 Q2163.52 265.439 2165.42 262.893 Q2167.34 260.347 2167.34 255.74 M2171.6 265.787 Q2171.6 272.407 2168.66 275.624 Q2165.72 278.865 2159.65 278.865 Q2157.41 278.865 2155.42 278.518 Q2153.43 278.194 2151.55 277.499 L2151.55 273.356 Q2153.43 274.374 2155.26 274.861 Q2157.09 275.347 2158.98 275.347 Q2163.17 275.347 2165.26 273.148 Q2167.34 270.972 2167.34 266.55 L2167.34 264.444 Q2166.02 266.736 2163.96 267.87 Q2161.9 269.004 2159.03 269.004 Q2154.26 269.004 2151.34 265.37 Q2148.43 261.736 2148.43 255.74 Q2148.43 249.722 2151.34 246.088 Q2154.26 242.453 2159.03 242.453 Q2161.9 242.453 2163.96 243.588 Q2166.02 244.722 2167.34 247.013 L2167.34 243.078 L2171.6 243.078 L2171.6 265.787 Z" fill="#000000" fill-rule="evenodd" fill-opacity="1" /><path clip-path="url(#clip140)" d="M 0 0 M2176.07 243.078 L2180.33 243.078 L2180.33 269.004 L2176.07 269.004 L2176.07 243.078 M2176.07 232.986 L2180.33 232.986 L2180.33 238.379 L2176.07 238.379 L2176.07 232.986 Z" fill="#000000" fill-rule="evenodd" fill-opacity="1" /><path clip-path="url(#clip140)" d="M 0 0 M2194.84 246.064 Q2191.41 246.064 2189.42 248.75 Q2187.43 251.412 2187.43 256.064 Q2187.43 260.717 2189.4 263.402 Q2191.39 266.064 2194.84 266.064 Q2198.24 266.064 2200.23 263.379 Q2202.22 260.694 2202.22 256.064 Q2202.22 251.458 2200.23 248.773 Q2198.24 246.064 2194.84 246.064 M2194.84 242.453 Q2200.39 242.453 2203.57 246.064 Q2206.74 249.675 2206.74 256.064 Q2206.74 262.43 2203.57 266.064 Q2200.39 269.675 2194.84 269.675 Q2189.26 269.675 2186.09 266.064 Q2182.94 262.43 2182.94 256.064 Q2182.94 249.675 2186.09 246.064 Q2189.26 242.453 2194.84 242.453 Z" fill="#000000" fill-rule="evenodd" fill-opacity="1" /><path clip-path="url(#clip140)" d="M 0 0 M2232.76 253.356 L2232.76 269.004 L2228.5 269.004 L2228.5 253.495 Q2228.5 249.814 2227.06 247.986 Q2225.63 246.157 2222.76 246.157 Q2219.31 246.157 2217.32 248.356 Q2215.33 250.555 2215.33 254.351 L2215.33 269.004 L2211.04 269.004 L2211.04 243.078 L2215.33 243.078 L2215.33 247.106 Q2216.85 244.768 2218.91 243.611 Q2221 242.453 2223.71 242.453 Q2228.17 242.453 2230.46 245.231 Q2232.76 247.986 2232.76 253.356 Z" fill="#000000" fill-rule="evenodd" fill-opacity="1" /><path clip-path="url(#clip140)" d="
M1533.86 336.396 L1677.86 336.396 L1677.86 288.012 L1533.86 288.012 L1533.86 336.396  Z
  " fill="#ffa500" fill-rule="evenodd" fill-opacity="0.5"/>
<polyline clip-path="url(#clip140)" style="stroke:#ffa500; stroke-width:4; stroke-opacity:1; fill:none" points="
  1533.86,288.012 1677.86,288.012 
  "/>
<path clip-path="url(#clip140)" d="M 0 0 M1706.25 316.544 Q1706.25 321.243 1708.18 323.929 Q1710.12 326.591 1713.5 326.591 Q1716.88 326.591 1718.82 323.929 Q1720.77 321.243 1720.77 316.544 Q1720.77 311.845 1718.82 309.183 Q1716.88 306.498 1713.5 306.498 Q1710.12 306.498 1708.18 309.183 Q1706.25 311.845 1706.25 316.544 M1720.77 325.595 Q1719.43 327.91 1717.37 329.044 Q1715.33 330.155 1712.46 330.155 Q1707.76 330.155 1704.8 326.405 Q1701.86 322.655 1701.86 316.544 Q1701.86 310.433 1704.8 306.683 Q1707.76 302.933 1712.46 302.933 Q1715.33 302.933 1717.37 304.068 Q1719.43 305.179 1720.77 307.493 L1720.77 303.558 L1725.03 303.558 L1725.03 339.345 L1720.77 339.345 L1720.77 325.595 Z" fill="#000000" fill-rule="evenodd" fill-opacity="1" /><path clip-path="url(#clip140)" d="M 0 0 M1730.24 328.767 L1730.24 324.507 Q1731.99 325.341 1733.8 325.78 Q1735.61 326.22 1737.34 326.22 Q1741.97 326.22 1744.4 323.118 Q1746.86 319.993 1747.2 313.651 Q1745.86 315.642 1743.8 316.706 Q1741.74 317.771 1739.24 317.771 Q1734.05 317.771 1731.02 314.646 Q1728.01 311.498 1728.01 306.058 Q1728.01 300.734 1731.16 297.517 Q1734.31 294.299 1739.54 294.299 Q1745.54 294.299 1748.68 298.906 Q1751.86 303.489 1751.86 312.239 Q1751.86 320.41 1747.97 325.294 Q1744.1 330.155 1737.55 330.155 Q1735.79 330.155 1733.99 329.808 Q1732.18 329.461 1730.24 328.767 M1739.54 314.114 Q1742.69 314.114 1744.52 311.961 Q1746.37 309.808 1746.37 306.058 Q1746.37 302.331 1744.52 300.179 Q1742.69 298.003 1739.54 298.003 Q1736.39 298.003 1734.54 300.179 Q1732.71 302.331 1732.71 306.058 Q1732.71 309.808 1734.54 311.961 Q1736.39 314.114 1739.54 314.114 Z" fill="#000000" fill-rule="evenodd" fill-opacity="1" /><path clip-path="url(#clip140)" d="M 0 0 M1756.97 294.924 L1775.33 294.924 L1775.33 298.859 L1761.25 298.859 L1761.25 307.331 Q1762.27 306.984 1763.29 306.822 Q1764.31 306.637 1765.33 306.637 Q1771.11 306.637 1774.49 309.808 Q1777.87 312.98 1777.87 318.396 Q1777.87 323.975 1774.4 327.077 Q1770.93 330.155 1764.61 330.155 Q1762.43 330.155 1760.17 329.785 Q1757.92 329.415 1755.51 328.674 L1755.51 323.975 Q1757.6 325.109 1759.82 325.665 Q1762.04 326.22 1764.52 326.22 Q1768.52 326.22 1770.86 324.114 Q1773.2 322.007 1773.2 318.396 Q1773.2 314.785 1770.86 312.679 Q1768.52 310.572 1764.52 310.572 Q1762.64 310.572 1760.77 310.989 Q1758.92 311.405 1756.97 312.285 L1756.97 294.924 Z" fill="#000000" fill-rule="evenodd" fill-opacity="1" /><polyline clip-path="url(#clip140)" style="stroke:#0000ff; stroke-width:4; stroke-opacity:1; fill:none" points="
  1533.86,372.684 1677.86,372.684 
  "/>
<path clip-path="url(#clip140)" d="M 0 0 M1722.2 369.015 Q1723.8 366.145 1726.02 364.779 Q1728.24 363.413 1731.25 363.413 Q1735.3 363.413 1737.5 366.261 Q1739.7 369.085 1739.7 374.316 L1739.7 389.964 L1735.42 389.964 L1735.42 374.455 Q1735.42 370.728 1734.1 368.923 Q1732.78 367.117 1730.07 367.117 Q1726.76 367.117 1724.84 369.316 Q1722.92 371.515 1722.92 375.311 L1722.92 389.964 L1718.64 389.964 L1718.64 374.455 Q1718.64 370.705 1717.32 368.923 Q1716 367.117 1713.24 367.117 Q1709.98 367.117 1708.06 369.339 Q1706.14 371.538 1706.14 375.311 L1706.14 389.964 L1701.86 389.964 L1701.86 364.038 L1706.14 364.038 L1706.14 368.066 Q1707.6 365.682 1709.63 364.548 Q1711.67 363.413 1714.47 363.413 Q1717.3 363.413 1719.26 364.848 Q1721.25 366.284 1722.2 369.015 Z" fill="#000000" fill-rule="evenodd" fill-opacity="1" /><path clip-path="url(#clip140)" d="M 0 0 M1766.35 375.936 L1766.35 378.02 L1746.76 378.02 Q1747.04 382.418 1749.4 384.733 Q1751.79 387.024 1756.02 387.024 Q1758.48 387.024 1760.77 386.422 Q1763.08 385.821 1765.35 384.617 L1765.35 388.645 Q1763.06 389.617 1760.65 390.126 Q1758.24 390.635 1755.77 390.635 Q1749.56 390.635 1745.93 387.024 Q1742.32 383.413 1742.32 377.256 Q1742.32 370.89 1745.74 367.163 Q1749.19 363.413 1755.03 363.413 Q1760.26 363.413 1763.29 366.793 Q1766.35 370.149 1766.35 375.936 M1762.09 374.686 Q1762.04 371.191 1760.12 369.108 Q1758.22 367.024 1755.07 367.024 Q1751.51 367.024 1749.36 369.038 Q1747.23 371.052 1746.9 374.71 L1762.09 374.686 Z" fill="#000000" fill-rule="evenodd" fill-opacity="1" /><path clip-path="url(#clip140)" d="M 0 0 M1782.6 376.932 Q1777.43 376.932 1775.44 378.112 Q1773.45 379.293 1773.45 382.14 Q1773.45 384.409 1774.93 385.751 Q1776.44 387.071 1779.01 387.071 Q1782.55 387.071 1784.68 384.571 Q1786.83 382.047 1786.83 377.881 L1786.83 376.932 L1782.6 376.932 M1791.09 375.173 L1791.09 389.964 L1786.83 389.964 L1786.83 386.029 Q1785.37 388.39 1783.2 389.524 Q1781.02 390.635 1777.87 390.635 Q1773.89 390.635 1771.53 388.413 Q1769.19 386.168 1769.19 382.418 Q1769.19 378.043 1772.11 375.821 Q1775.05 373.598 1780.86 373.598 L1786.83 373.598 L1786.83 373.182 Q1786.83 370.242 1784.89 368.645 Q1782.97 367.024 1779.47 367.024 Q1777.25 367.024 1775.14 367.557 Q1773.04 368.089 1771.09 369.154 L1771.09 365.219 Q1773.43 364.316 1775.63 363.876 Q1777.83 363.413 1779.91 363.413 Q1785.54 363.413 1788.31 366.33 Q1791.09 369.247 1791.09 375.173 Z" fill="#000000" fill-rule="evenodd" fill-opacity="1" /><path clip-path="url(#clip140)" d="M 0 0 M1817.11 374.316 L1817.11 389.964 L1812.85 389.964 L1812.85 374.455 Q1812.85 370.774 1811.42 368.946 Q1809.98 367.117 1807.11 367.117 Q1803.66 367.117 1801.67 369.316 Q1799.68 371.515 1799.68 375.311 L1799.68 389.964 L1795.4 389.964 L1795.4 364.038 L1799.68 364.038 L1799.68 368.066 Q1801.21 365.728 1803.27 364.571 Q1805.35 363.413 1808.06 363.413 Q1812.53 363.413 1814.82 366.191 Q1817.11 368.946 1817.11 374.316 Z" fill="#000000" fill-rule="evenodd" fill-opacity="1" /><polyline clip-path="url(#clip140)" style="stroke:#000000; stroke-width:4; stroke-opacity:1; fill:none" points="
  1533.86,433.164 1677.86,433.164 
  "/>
<path clip-path="url(#clip140)" d="M 0 0 M1722.2 429.495 Q1723.8 426.625 1726.02 425.259 Q1728.24 423.893 1731.25 423.893 Q1735.3 423.893 1737.5 426.741 Q1739.7 429.565 1739.7 434.796 L1739.7 450.444 L1735.42 450.444 L1735.42 434.935 Q1735.42 431.208 1734.1 429.403 Q1732.78 427.597 1730.07 427.597 Q1726.76 427.597 1724.84 429.796 Q1722.92 431.995 1722.92 435.791 L1722.92 450.444 L1718.64 450.444 L1718.64 434.935 Q1718.64 431.185 1717.32 429.403 Q1716 427.597 1713.24 427.597 Q1709.98 427.597 1708.06 429.819 Q1706.14 432.018 1706.14 435.791 L1706.14 450.444 L1701.86 450.444 L1701.86 424.518 L1706.14 424.518 L1706.14 428.546 Q1707.6 426.162 1709.63 425.028 Q1711.67 423.893 1714.47 423.893 Q1717.3 423.893 1719.26 425.328 Q1721.25 426.764 1722.2 429.495 Z" fill="#000000" fill-rule="evenodd" fill-opacity="1" /><path clip-path="url(#clip140)" d="M 0 0 M1766.35 436.416 L1766.35 438.5 L1746.76 438.5 Q1747.04 442.898 1749.4 445.213 Q1751.79 447.504 1756.02 447.504 Q1758.48 447.504 1760.77 446.902 Q1763.08 446.301 1765.35 445.097 L1765.35 449.125 Q1763.06 450.097 1760.65 450.606 Q1758.24 451.115 1755.77 451.115 Q1749.56 451.115 1745.93 447.504 Q1742.32 443.893 1742.32 437.736 Q1742.32 431.37 1745.74 427.643 Q1749.19 423.893 1755.03 423.893 Q1760.26 423.893 1763.29 427.273 Q1766.35 430.629 1766.35 436.416 M1762.09 435.166 Q1762.04 431.671 1760.12 429.588 Q1758.22 427.504 1755.07 427.504 Q1751.51 427.504 1749.36 429.518 Q1747.23 431.532 1746.9 435.19 L1762.09 435.166 Z" fill="#000000" fill-rule="evenodd" fill-opacity="1" /><path clip-path="url(#clip140)" d="M 0 0 M1787.87 428.453 L1787.87 414.426 L1792.13 414.426 L1792.13 450.444 L1787.87 450.444 L1787.87 446.555 Q1786.53 448.87 1784.47 450.004 Q1782.43 451.115 1779.56 451.115 Q1774.86 451.115 1771.9 447.365 Q1768.96 443.615 1768.96 437.504 Q1768.96 431.393 1771.9 427.643 Q1774.86 423.893 1779.56 423.893 Q1782.43 423.893 1784.47 425.028 Q1786.53 426.139 1787.87 428.453 M1773.36 437.504 Q1773.36 442.203 1775.28 444.889 Q1777.23 447.551 1780.61 447.551 Q1783.99 447.551 1785.93 444.889 Q1787.87 442.203 1787.87 437.504 Q1787.87 432.805 1785.93 430.143 Q1783.99 427.458 1780.61 427.458 Q1777.23 427.458 1775.28 430.143 Q1773.36 432.805 1773.36 437.504 Z" fill="#000000" fill-rule="evenodd" fill-opacity="1" /><path clip-path="url(#clip140)" d="M 0 0 M1796.6 424.518 L1800.86 424.518 L1800.86 450.444 L1796.6 450.444 L1796.6 424.518 M1796.6 414.426 L1800.86 414.426 L1800.86 419.819 L1796.6 419.819 L1796.6 414.426 Z" fill="#000000" fill-rule="evenodd" fill-opacity="1" /><path clip-path="url(#clip140)" d="M 0 0 M1817.11 437.412 Q1811.95 437.412 1809.96 438.592 Q1807.97 439.773 1807.97 442.62 Q1807.97 444.889 1809.45 446.231 Q1810.95 447.551 1813.52 447.551 Q1817.06 447.551 1819.19 445.051 Q1821.35 442.527 1821.35 438.361 L1821.35 437.412 L1817.11 437.412 M1825.61 435.653 L1825.61 450.444 L1821.35 450.444 L1821.35 446.509 Q1819.89 448.87 1817.71 450.004 Q1815.54 451.115 1812.39 451.115 Q1808.41 451.115 1806.05 448.893 Q1803.71 446.648 1803.71 442.898 Q1803.71 438.523 1806.62 436.301 Q1809.56 434.078 1815.37 434.078 L1821.35 434.078 L1821.35 433.662 Q1821.35 430.722 1819.4 429.125 Q1817.48 427.504 1813.99 427.504 Q1811.76 427.504 1809.66 428.037 Q1807.55 428.569 1805.61 429.634 L1805.61 425.699 Q1807.94 424.796 1810.14 424.356 Q1812.34 423.893 1814.42 423.893 Q1820.05 423.893 1822.83 426.81 Q1825.61 429.727 1825.61 435.653 Z" fill="#000000" fill-rule="evenodd" fill-opacity="1" /><path clip-path="url(#clip140)" d="M 0 0 M1851.62 434.796 L1851.62 450.444 L1847.36 450.444 L1847.36 434.935 Q1847.36 431.254 1845.93 429.426 Q1844.49 427.597 1841.62 427.597 Q1838.17 427.597 1836.18 429.796 Q1834.19 431.995 1834.19 435.791 L1834.19 450.444 L1829.91 450.444 L1829.91 424.518 L1834.19 424.518 L1834.19 428.546 Q1835.72 426.208 1837.78 425.051 Q1839.86 423.893 1842.57 423.893 Q1847.04 423.893 1849.33 426.671 Q1851.62 429.426 1851.62 434.796 Z" fill="#000000" fill-rule="evenodd" fill-opacity="1" /></svg>
