<?xml version="1.0" encoding="utf-8"?>
<svg xmlns="http://www.w3.org/2000/svg" xmlns:xlink="http://www.w3.org/1999/xlink" width="600" height="400" viewBox="0 0 2400 1600">
<defs>
  <clipPath id="clip230">
    <rect x="0" y="0" width="2400" height="1600"/>
  </clipPath>
</defs>
<path clip-path="url(#clip230)" d="
M0 1600 L2400 1600 L2400 0 L0 0  Z
  " fill="#ffffff" fill-rule="evenodd" fill-opacity="1"/>
<defs>
  <clipPath id="clip231">
    <rect x="480" y="0" width="1681" height="1600"/>
  </clipPath>
</defs>
<path clip-path="url(#clip230)" d="
M86.9921 1521.01 L2352.76 1521.01 L2352.76 47.2441 L86.9921 47.2441  Z
  " fill="#ffffff" fill-rule="evenodd" fill-opacity="1"/>
<defs>
  <clipPath id="clip232">
    <rect x="86" y="47" width="2267" height="1475"/>
  </clipPath>
</defs>
<polyline clip-path="url(#clip232)" style="stroke:#000000; stroke-width:2; stroke-opacity:0.1; fill:none" points="
  186.282,1521.01 186.282,47.2441 
  "/>
<polyline clip-path="url(#clip232)" style="stroke:#000000; stroke-width:2; stroke-opacity:0.1; fill:none" points="
  515.4,1521.01 515.4,47.2441 
  "/>
<polyline clip-path="url(#clip232)" style="stroke:#000000; stroke-width:2; stroke-opacity:0.1; fill:none" points="
  844.518,1521.01 844.518,47.2441 
  "/>
<polyline clip-path="url(#clip232)" style="stroke:#000000; stroke-width:2; stroke-opacity:0.1; fill:none" points="
  1173.64,1521.01 1173.64,47.2441 
  "/>
<polyline clip-path="url(#clip232)" style="stroke:#000000; stroke-width:2; stroke-opacity:0.1; fill:none" points="
  1502.75,1521.01 1502.75,47.2441 
  "/>
<polyline clip-path="url(#clip232)" style="stroke:#000000; stroke-width:2; stroke-opacity:0.1; fill:none" points="
  1831.87,1521.01 1831.87,47.2441 
  "/>
<polyline clip-path="url(#clip232)" style="stroke:#000000; stroke-width:2; stroke-opacity:0.1; fill:none" points="
  2160.99,1521.01 2160.99,47.2441 
  "/>
<polyline clip-path="url(#clip232)" style="stroke:#000000; stroke-width:2; stroke-opacity:0.1; fill:none" points="
  86.9921,1479.3 2352.76,1479.3 
  "/>
<polyline clip-path="url(#clip232)" style="stroke:#000000; stroke-width:2; stroke-opacity:0.1; fill:none" points="
  86.9921,1088.05 2352.76,1088.05 
  "/>
<polyline clip-path="url(#clip232)" style="stroke:#000000; stroke-width:2; stroke-opacity:0.1; fill:none" points="
  86.9921,696.799 2352.76,696.799 
  "/>
<polyline clip-path="url(#clip232)" style="stroke:#000000; stroke-width:2; stroke-opacity:0.1; fill:none" points="
  86.9921,305.549 2352.76,305.549 
  "/>
<polyline clip-path="url(#clip230)" style="stroke:#000000; stroke-width:4; stroke-opacity:1; fill:none" points="
  86.9921,1521.01 2352.76,1521.01 
  "/>
<polyline clip-path="url(#clip230)" style="stroke:#000000; stroke-width:4; stroke-opacity:1; fill:none" points="
  86.9921,1521.01 86.9921,47.2441 
  "/>
<polyline clip-path="url(#clip230)" style="stroke:#000000; stroke-width:4; stroke-opacity:1; fill:none" points="
  186.282,1521.01 186.282,1503.32 
  "/>
<polyline clip-path="url(#clip230)" style="stroke:#000000; stroke-width:4; stroke-opacity:1; fill:none" points="
  515.4,1521.01 515.4,1503.32 
  "/>
<polyline clip-path="url(#clip230)" style="stroke:#000000; stroke-width:4; stroke-opacity:1; fill:none" points="
  844.518,1521.01 844.518,1503.32 
  "/>
<polyline clip-path="url(#clip230)" style="stroke:#000000; stroke-width:4; stroke-opacity:1; fill:none" points="
  1173.64,1521.01 1173.64,1503.32 
  "/>
<polyline clip-path="url(#clip230)" style="stroke:#000000; stroke-width:4; stroke-opacity:1; fill:none" points="
  1502.75,1521.01 1502.75,1503.32 
  "/>
<polyline clip-path="url(#clip230)" style="stroke:#000000; stroke-width:4; stroke-opacity:1; fill:none" points="
  1831.87,1521.01 1831.87,1503.32 
  "/>
<polyline clip-path="url(#clip230)" style="stroke:#000000; stroke-width:4; stroke-opacity:1; fill:none" points="
  2160.99,1521.01 2160.99,1503.32 
  "/>
<polyline clip-path="url(#clip230)" style="stroke:#000000; stroke-width:4; stroke-opacity:1; fill:none" points="
  86.9921,1479.3 114.181,1479.3 
  "/>
<polyline clip-path="url(#clip230)" style="stroke:#000000; stroke-width:4; stroke-opacity:1; fill:none" points="
  86.9921,1088.05 114.181,1088.05 
  "/>
<polyline clip-path="url(#clip230)" style="stroke:#000000; stroke-width:4; stroke-opacity:1; fill:none" points="
  86.9921,696.799 114.181,696.799 
  "/>
<polyline clip-path="url(#clip230)" style="stroke:#000000; stroke-width:4; stroke-opacity:1; fill:none" points="
  86.9921,305.549 114.181,305.549 
  "/>
<path clip-path="url(#clip230)" d="M 0 0 M154.616 1543 Q151.005 1543 149.176 1546.56 Q147.37 1550.11 147.37 1557.23 Q147.37 1564.34 149.176 1567.91 Q151.005 1571.45 154.616 1571.45 Q158.25 1571.45 160.056 1567.91 Q161.884 1564.34 161.884 1557.23 Q161.884 1550.11 160.056 1546.56 Q158.25 1543 154.616 1543 M154.616 1539.29 Q160.426 1539.29 163.481 1543.9 Q166.56 1548.48 166.56 1557.23 Q166.56 1565.96 163.481 1570.57 Q160.426 1575.15 154.616 1575.15 Q148.806 1575.15 145.727 1570.57 Q142.671 1565.96 142.671 1557.23 Q142.671 1548.48 145.727 1543.9 Q148.806 1539.29 154.616 1539.29 Z" fill="#000000" fill-rule="evenodd" fill-opacity="1" /><path clip-path="url(#clip230)" d="M 0 0 M171.63 1568.6 L176.514 1568.6 L176.514 1574.48 L171.63 1574.48 L171.63 1568.6 Z" fill="#000000" fill-rule="evenodd" fill-opacity="1" /><path clip-path="url(#clip230)" d="M 0 0 M195.75 1555.85 Q199.106 1556.56 200.981 1558.83 Q202.879 1561.1 202.879 1564.43 Q202.879 1569.55 199.361 1572.35 Q195.842 1575.15 189.361 1575.15 Q187.185 1575.15 184.87 1574.71 Q182.579 1574.29 180.125 1573.44 L180.125 1568.92 Q182.069 1570.06 184.384 1570.64 Q186.699 1571.22 189.222 1571.22 Q193.62 1571.22 195.912 1569.48 Q198.227 1567.74 198.227 1564.43 Q198.227 1561.38 196.074 1559.67 Q193.944 1557.93 190.125 1557.93 L186.097 1557.93 L186.097 1554.09 L190.31 1554.09 Q193.759 1554.09 195.588 1552.72 Q197.416 1551.33 197.416 1548.74 Q197.416 1546.08 195.518 1544.67 Q193.643 1543.23 190.125 1543.23 Q188.204 1543.23 186.004 1543.65 Q183.805 1544.06 181.167 1544.94 L181.167 1540.78 Q183.829 1540.04 186.143 1539.67 Q188.481 1539.29 190.541 1539.29 Q195.866 1539.29 198.967 1541.73 Q202.069 1544.13 202.069 1548.25 Q202.069 1551.12 200.426 1553.11 Q198.782 1555.08 195.75 1555.85 Z" fill="#000000" fill-rule="evenodd" fill-opacity="1" /><path clip-path="url(#clip230)" d="M 0 0 M217.949 1543 Q214.338 1543 212.509 1546.56 Q210.703 1550.11 210.703 1557.23 Q210.703 1564.34 212.509 1567.91 Q214.338 1571.45 217.949 1571.45 Q221.583 1571.45 223.389 1567.91 Q225.217 1564.34 225.217 1557.23 Q225.217 1550.11 223.389 1546.56 Q221.583 1543 217.949 1543 M217.949 1539.29 Q223.759 1539.29 226.814 1543.9 Q229.893 1548.48 229.893 1557.23 Q229.893 1565.96 226.814 1570.57 Q223.759 1575.15 217.949 1575.15 Q212.139 1575.15 209.06 1570.57 Q206.004 1565.96 206.004 1557.23 Q206.004 1548.48 209.06 1543.9 Q212.139 1539.29 217.949 1539.29 Z" fill="#000000" fill-rule="evenodd" fill-opacity="1" /><path clip-path="url(#clip230)" d="M 0 0 M484.231 1543 Q480.62 1543 478.791 1546.56 Q476.986 1550.11 476.986 1557.23 Q476.986 1564.34 478.791 1567.91 Q480.62 1571.45 484.231 1571.45 Q487.865 1571.45 489.671 1567.91 Q491.5 1564.34 491.5 1557.23 Q491.5 1550.11 489.671 1546.56 Q487.865 1543 484.231 1543 M484.231 1539.29 Q490.041 1539.29 493.097 1543.9 Q496.176 1548.48 496.176 1557.23 Q496.176 1565.96 493.097 1570.57 Q490.041 1575.15 484.231 1575.15 Q478.421 1575.15 475.342 1570.57 Q472.287 1565.96 472.287 1557.23 Q472.287 1548.48 475.342 1543.9 Q478.421 1539.29 484.231 1539.29 Z" fill="#000000" fill-rule="evenodd" fill-opacity="1" /><path clip-path="url(#clip230)" d="M 0 0 M501.245 1568.6 L506.129 1568.6 L506.129 1574.48 L501.245 1574.48 L501.245 1568.6 Z" fill="#000000" fill-rule="evenodd" fill-opacity="1" /><path clip-path="url(#clip230)" d="M 0 0 M525.365 1555.85 Q528.722 1556.56 530.597 1558.83 Q532.495 1561.1 532.495 1564.43 Q532.495 1569.55 528.976 1572.35 Q525.458 1575.15 518.976 1575.15 Q516.8 1575.15 514.486 1574.71 Q512.194 1574.29 509.74 1573.44 L509.74 1568.92 Q511.685 1570.06 514 1570.64 Q516.314 1571.22 518.838 1571.22 Q523.236 1571.22 525.527 1569.48 Q527.842 1567.74 527.842 1564.43 Q527.842 1561.38 525.689 1559.67 Q523.56 1557.93 519.74 1557.93 L515.713 1557.93 L515.713 1554.09 L519.925 1554.09 Q523.375 1554.09 525.203 1552.72 Q527.032 1551.33 527.032 1548.74 Q527.032 1546.08 525.134 1544.67 Q523.259 1543.23 519.74 1543.23 Q517.819 1543.23 515.62 1543.65 Q513.421 1544.06 510.782 1544.94 L510.782 1540.78 Q513.444 1540.04 515.759 1539.67 Q518.097 1539.29 520.157 1539.29 Q525.481 1539.29 528.583 1541.73 Q531.685 1544.13 531.685 1548.25 Q531.685 1551.12 530.041 1553.11 Q528.398 1555.08 525.365 1555.85 Z" fill="#000000" fill-rule="evenodd" fill-opacity="1" /><path clip-path="url(#clip230)" d="M 0 0 M537.611 1539.92 L555.967 1539.92 L555.967 1543.86 L541.893 1543.86 L541.893 1552.33 Q542.911 1551.98 543.93 1551.82 Q544.948 1551.63 545.967 1551.63 Q551.754 1551.63 555.134 1554.8 Q558.513 1557.98 558.513 1563.39 Q558.513 1568.97 555.041 1572.07 Q551.569 1575.15 545.249 1575.15 Q543.074 1575.15 540.805 1574.78 Q538.56 1574.41 536.152 1573.67 L536.152 1568.97 Q538.236 1570.1 540.458 1570.66 Q542.68 1571.22 545.157 1571.22 Q549.161 1571.22 551.499 1569.11 Q553.837 1567 553.837 1563.39 Q553.837 1559.78 551.499 1557.67 Q549.161 1555.57 545.157 1555.57 Q543.282 1555.57 541.407 1555.98 Q539.555 1556.4 537.611 1557.28 L537.611 1539.92 Z" fill="#000000" fill-rule="evenodd" fill-opacity="1" /><path clip-path="url(#clip230)" d="M 0 0 M812.284 1543 Q808.673 1543 806.844 1546.56 Q805.039 1550.11 805.039 1557.23 Q805.039 1564.34 806.844 1567.91 Q808.673 1571.45 812.284 1571.45 Q815.918 1571.45 817.724 1567.91 Q819.553 1564.34 819.553 1557.23 Q819.553 1550.11 817.724 1546.56 Q815.918 1543 812.284 1543 M812.284 1539.29 Q818.094 1539.29 821.15 1543.9 Q824.229 1548.48 824.229 1557.23 Q824.229 1565.96 821.15 1570.57 Q818.094 1575.15 812.284 1575.15 Q806.474 1575.15 803.395 1570.57 Q800.34 1565.96 800.34 1557.23 Q800.34 1548.48 803.395 1543.9 Q806.474 1539.29 812.284 1539.29 Z" fill="#000000" fill-rule="evenodd" fill-opacity="1" /><path clip-path="url(#clip230)" d="M 0 0 M829.298 1568.6 L834.182 1568.6 L834.182 1574.48 L829.298 1574.48 L829.298 1568.6 Z" fill="#000000" fill-rule="evenodd" fill-opacity="1" /><path clip-path="url(#clip230)" d="M 0 0 M852.099 1543.99 L840.293 1562.44 L852.099 1562.44 L852.099 1543.99 M850.872 1539.92 L856.752 1539.92 L856.752 1562.44 L861.682 1562.44 L861.682 1566.33 L856.752 1566.33 L856.752 1574.48 L852.099 1574.48 L852.099 1566.33 L836.497 1566.33 L836.497 1561.82 L850.872 1539.92 Z" fill="#000000" fill-rule="evenodd" fill-opacity="1" /><path clip-path="url(#clip230)" d="M 0 0 M876.751 1543 Q873.14 1543 871.312 1546.56 Q869.506 1550.11 869.506 1557.23 Q869.506 1564.34 871.312 1567.91 Q873.14 1571.45 876.751 1571.45 Q880.386 1571.45 882.191 1567.91 Q884.02 1564.34 884.02 1557.23 Q884.02 1550.11 882.191 1546.56 Q880.386 1543 876.751 1543 M876.751 1539.29 Q882.562 1539.29 885.617 1543.9 Q888.696 1548.48 888.696 1557.23 Q888.696 1565.96 885.617 1570.57 Q882.562 1575.15 876.751 1575.15 Q870.941 1575.15 867.863 1570.57 Q864.807 1565.96 864.807 1557.23 Q864.807 1548.48 867.863 1543.9 Q870.941 1539.29 876.751 1539.29 Z" fill="#000000" fill-rule="evenodd" fill-opacity="1" /><path clip-path="url(#clip230)" d="M 0 0 M1141.9 1543 Q1138.29 1543 1136.46 1546.56 Q1134.65 1550.11 1134.65 1557.23 Q1134.65 1564.34 1136.46 1567.91 Q1138.29 1571.45 1141.9 1571.45 Q1145.53 1571.45 1147.34 1567.91 Q1149.17 1564.34 1149.17 1557.23 Q1149.17 1550.11 1147.34 1546.56 Q1145.53 1543 1141.9 1543 M1141.9 1539.29 Q1147.71 1539.29 1150.77 1543.9 Q1153.84 1548.48 1153.84 1557.23 Q1153.84 1565.96 1150.77 1570.57 Q1147.71 1575.15 1141.9 1575.15 Q1136.09 1575.15 1133.01 1570.57 Q1129.96 1565.96 1129.96 1557.23 Q1129.96 1548.48 1133.01 1543.9 Q1136.09 1539.29 1141.9 1539.29 Z" fill="#000000" fill-rule="evenodd" fill-opacity="1" /><path clip-path="url(#clip230)" d="M 0 0 M1158.91 1568.6 L1163.8 1568.6 L1163.8 1574.48 L1158.91 1574.48 L1158.91 1568.6 Z" fill="#000000" fill-rule="evenodd" fill-opacity="1" /><path clip-path="url(#clip230)" d="M 0 0 M1181.71 1543.99 L1169.91 1562.44 L1181.71 1562.44 L1181.71 1543.99 M1180.49 1539.92 L1186.37 1539.92 L1186.37 1562.44 L1191.3 1562.44 L1191.3 1566.33 L1186.37 1566.33 L1186.37 1574.48 L1181.71 1574.48 L1181.71 1566.33 L1166.11 1566.33 L1166.11 1561.82 L1180.49 1539.92 Z" fill="#000000" fill-rule="evenodd" fill-opacity="1" /><path clip-path="url(#clip230)" d="M 0 0 M1196.41 1539.92 L1214.77 1539.92 L1214.77 1543.86 L1200.7 1543.86 L1200.7 1552.33 Q1201.71 1551.98 1202.73 1551.82 Q1203.75 1551.63 1204.77 1551.63 Q1210.56 1551.63 1213.94 1554.8 Q1217.32 1557.98 1217.32 1563.39 Q1217.32 1568.97 1213.84 1572.07 Q1210.37 1575.15 1204.05 1575.15 Q1201.88 1575.15 1199.61 1574.78 Q1197.36 1574.41 1194.95 1573.67 L1194.95 1568.97 Q1197.04 1570.1 1199.26 1570.66 Q1201.48 1571.22 1203.96 1571.22 Q1207.96 1571.22 1210.3 1569.11 Q1212.64 1567 1212.64 1563.39 Q1212.64 1559.78 1210.3 1557.67 Q1207.96 1555.57 1203.96 1555.57 Q1202.08 1555.57 1200.21 1555.98 Q1198.36 1556.4 1196.41 1557.28 L1196.41 1539.92 Z" fill="#000000" fill-rule="evenodd" fill-opacity="1" /><path clip-path="url(#clip230)" d="M 0 0 M1471.26 1543 Q1467.65 1543 1465.82 1546.56 Q1464.02 1550.11 1464.02 1557.23 Q1464.02 1564.34 1465.82 1567.91 Q1467.65 1571.45 1471.26 1571.45 Q1474.89 1571.45 1476.7 1567.91 Q1478.53 1564.34 1478.53 1557.23 Q1478.53 1550.11 1476.7 1546.56 Q1474.89 1543 1471.26 1543 M1471.26 1539.29 Q1477.07 1539.29 1480.13 1543.9 Q1483.2 1548.48 1483.2 1557.23 Q1483.2 1565.96 1480.13 1570.57 Q1477.07 1575.15 1471.26 1575.15 Q1465.45 1575.15 1462.37 1570.57 Q1459.32 1565.96 1459.32 1557.23 Q1459.32 1548.48 1462.37 1543.9 Q1465.45 1539.29 1471.26 1539.29 Z" fill="#000000" fill-rule="evenodd" fill-opacity="1" /><path clip-path="url(#clip230)" d="M 0 0 M1488.27 1568.6 L1493.16 1568.6 L1493.16 1574.48 L1488.27 1574.48 L1488.27 1568.6 Z" fill="#000000" fill-rule="evenodd" fill-opacity="1" /><path clip-path="url(#clip230)" d="M 0 0 M1498.27 1539.92 L1516.63 1539.92 L1516.63 1543.86 L1502.56 1543.86 L1502.56 1552.33 Q1503.58 1551.98 1504.59 1551.82 Q1505.61 1551.63 1506.63 1551.63 Q1512.42 1551.63 1515.8 1554.8 Q1519.18 1557.98 1519.18 1563.39 Q1519.18 1568.97 1515.7 1572.07 Q1512.23 1575.15 1505.91 1575.15 Q1503.74 1575.15 1501.47 1574.78 Q1499.22 1574.41 1496.82 1573.67 L1496.82 1568.97 Q1498.9 1570.1 1501.12 1570.66 Q1503.34 1571.22 1505.82 1571.22 Q1509.83 1571.22 1512.16 1569.11 Q1514.5 1567 1514.5 1563.39 Q1514.5 1559.78 1512.16 1557.67 Q1509.83 1555.57 1505.82 1555.57 Q1503.95 1555.57 1502.07 1555.98 Q1500.22 1556.4 1498.27 1557.28 L1498.27 1539.92 Z" fill="#000000" fill-rule="evenodd" fill-opacity="1" /><path clip-path="url(#clip230)" d="M 0 0 M1534.25 1543 Q1530.64 1543 1528.81 1546.56 Q1527 1550.11 1527 1557.23 Q1527 1564.34 1528.81 1567.91 Q1530.64 1571.45 1534.25 1571.45 Q1537.88 1571.45 1539.69 1567.91 Q1541.51 1564.34 1541.51 1557.23 Q1541.51 1550.11 1539.69 1546.56 Q1537.88 1543 1534.25 1543 M1534.25 1539.29 Q1540.06 1539.29 1543.11 1543.9 Q1546.19 1548.48 1546.19 1557.23 Q1546.19 1565.96 1543.11 1570.57 Q1540.06 1575.15 1534.25 1575.15 Q1528.44 1575.15 1525.36 1570.57 Q1522.3 1565.96 1522.3 1557.23 Q1522.3 1548.48 1525.36 1543.9 Q1528.44 1539.29 1534.25 1539.29 Z" fill="#000000" fill-rule="evenodd" fill-opacity="1" /><path clip-path="url(#clip230)" d="M 0 0 M1800.88 1543 Q1797.26 1543 1795.44 1546.56 Q1793.63 1550.11 1793.63 1557.23 Q1793.63 1564.34 1795.44 1567.91 Q1797.26 1571.45 1800.88 1571.45 Q1804.51 1571.45 1806.32 1567.91 Q1808.14 1564.34 1808.14 1557.23 Q1808.14 1550.11 1806.32 1546.56 Q1804.51 1543 1800.88 1543 M1800.88 1539.29 Q1806.69 1539.29 1809.74 1543.9 Q1812.82 1548.48 1812.82 1557.23 Q1812.82 1565.96 1809.74 1570.57 Q1806.69 1575.15 1800.88 1575.15 Q1795.07 1575.15 1791.99 1570.57 Q1788.93 1565.96 1788.93 1557.23 Q1788.93 1548.48 1791.99 1543.9 Q1795.07 1539.29 1800.88 1539.29 Z" fill="#000000" fill-rule="evenodd" fill-opacity="1" /><path clip-path="url(#clip230)" d="M 0 0 M1817.89 1568.6 L1822.77 1568.6 L1822.77 1574.48 L1817.89 1574.48 L1817.89 1568.6 Z" fill="#000000" fill-rule="evenodd" fill-opacity="1" /><path clip-path="url(#clip230)" d="M 0 0 M1827.89 1539.92 L1846.25 1539.92 L1846.25 1543.86 L1832.17 1543.86 L1832.17 1552.33 Q1833.19 1551.98 1834.21 1551.82 Q1835.23 1551.63 1836.25 1551.63 Q1842.03 1551.63 1845.41 1554.8 Q1848.79 1557.98 1848.79 1563.39 Q1848.79 1568.97 1845.32 1572.07 Q1841.85 1575.15 1835.53 1575.15 Q1833.35 1575.15 1831.08 1574.78 Q1828.84 1574.41 1826.43 1573.67 L1826.43 1568.97 Q1828.51 1570.1 1830.74 1570.66 Q1832.96 1571.22 1835.44 1571.22 Q1839.44 1571.22 1841.78 1569.11 Q1844.12 1567 1844.12 1563.39 Q1844.12 1559.78 1841.78 1557.67 Q1839.44 1555.57 1835.44 1555.57 Q1833.56 1555.57 1831.69 1555.98 Q1829.83 1556.4 1827.89 1557.28 L1827.89 1539.92 Z" fill="#000000" fill-rule="evenodd" fill-opacity="1" /><path clip-path="url(#clip230)" d="M 0 0 M1853.91 1539.92 L1872.26 1539.92 L1872.26 1543.86 L1858.19 1543.86 L1858.19 1552.33 Q1859.21 1551.98 1860.23 1551.82 Q1861.25 1551.63 1862.26 1551.63 Q1868.05 1551.63 1871.43 1554.8 Q1874.81 1557.98 1874.81 1563.39 Q1874.81 1568.97 1871.34 1572.07 Q1867.87 1575.15 1861.55 1575.15 Q1859.37 1575.15 1857.1 1574.78 Q1854.86 1574.41 1852.45 1573.67 L1852.45 1568.97 Q1854.53 1570.1 1856.76 1570.66 Q1858.98 1571.22 1861.45 1571.22 Q1865.46 1571.22 1867.8 1569.11 Q1870.13 1567 1870.13 1563.39 Q1870.13 1559.78 1867.8 1557.67 Q1865.46 1555.57 1861.45 1555.57 Q1859.58 1555.57 1857.7 1555.98 Q1855.85 1556.4 1853.91 1557.28 L1853.91 1539.92 Z" fill="#000000" fill-rule="evenodd" fill-opacity="1" /><path clip-path="url(#clip230)" d="M 0 0 M2128.92 1543 Q2125.31 1543 2123.48 1546.56 Q2121.67 1550.11 2121.67 1557.23 Q2121.67 1564.34 2123.48 1567.91 Q2125.31 1571.45 2128.92 1571.45 Q2132.55 1571.45 2134.36 1567.91 Q2136.19 1564.34 2136.19 1557.23 Q2136.19 1550.11 2134.36 1546.56 Q2132.55 1543 2128.92 1543 M2128.92 1539.29 Q2134.73 1539.29 2137.78 1543.9 Q2140.86 1548.48 2140.86 1557.23 Q2140.86 1565.96 2137.78 1570.57 Q2134.73 1575.15 2128.92 1575.15 Q2123.11 1575.15 2120.03 1570.57 Q2116.97 1565.96 2116.97 1557.23 Q2116.97 1548.48 2120.03 1543.9 Q2123.11 1539.29 2128.92 1539.29 Z" fill="#000000" fill-rule="evenodd" fill-opacity="1" /><path clip-path="url(#clip230)" d="M 0 0 M2145.93 1568.6 L2150.82 1568.6 L2150.82 1574.48 L2145.93 1574.48 L2145.93 1568.6 Z" fill="#000000" fill-rule="evenodd" fill-opacity="1" /><path clip-path="url(#clip230)" d="M 0 0 M2166.46 1555.34 Q2163.32 1555.34 2161.46 1557.49 Q2159.63 1559.64 2159.63 1563.39 Q2159.63 1567.12 2161.46 1569.29 Q2163.32 1571.45 2166.46 1571.45 Q2169.61 1571.45 2171.44 1569.29 Q2173.29 1567.12 2173.29 1563.39 Q2173.29 1559.64 2171.44 1557.49 Q2169.61 1555.34 2166.46 1555.34 M2175.75 1540.68 L2175.75 1544.94 Q2173.99 1544.11 2172.18 1543.67 Q2170.4 1543.23 2168.64 1543.23 Q2164.01 1543.23 2161.56 1546.36 Q2159.13 1549.48 2158.78 1555.8 Q2160.14 1553.79 2162.2 1552.72 Q2164.26 1551.63 2166.74 1551.63 Q2171.95 1551.63 2174.96 1554.8 Q2177.99 1557.95 2177.99 1563.39 Q2177.99 1568.72 2174.84 1571.93 Q2171.7 1575.15 2166.46 1575.15 Q2160.47 1575.15 2157.3 1570.57 Q2154.13 1565.96 2154.13 1557.23 Q2154.13 1549.04 2158.01 1544.18 Q2161.9 1539.29 2168.45 1539.29 Q2170.21 1539.29 2172 1539.64 Q2173.8 1539.99 2175.75 1540.68 Z" fill="#000000" fill-rule="evenodd" fill-opacity="1" /><path clip-path="url(#clip230)" d="M 0 0 M2193.06 1543 Q2189.45 1543 2187.62 1546.56 Q2185.82 1550.11 2185.82 1557.23 Q2185.82 1564.34 2187.62 1567.91 Q2189.45 1571.45 2193.06 1571.45 Q2196.69 1571.45 2198.5 1567.91 Q2200.33 1564.34 2200.33 1557.23 Q2200.33 1550.11 2198.5 1546.56 Q2196.69 1543 2193.06 1543 M2193.06 1539.29 Q2198.87 1539.29 2201.93 1543.9 Q2205.01 1548.48 2205.01 1557.23 Q2205.01 1565.96 2201.93 1570.57 Q2198.87 1575.15 2193.06 1575.15 Q2187.25 1575.15 2184.17 1570.57 Q2181.12 1565.96 2181.12 1557.23 Q2181.12 1548.48 2184.17 1543.9 Q2187.25 1539.29 2193.06 1539.29 Z" fill="#000000" fill-rule="evenodd" fill-opacity="1" /><path clip-path="url(#clip230)" d="M 0 0 M51.0477 1465.1 Q47.4367 1465.1 45.608 1468.66 Q43.8024 1472.2 43.8024 1479.33 Q43.8024 1486.44 45.608 1490 Q47.4367 1493.55 51.0477 1493.55 Q54.682 1493.55 56.4875 1490 Q58.3162 1486.44 58.3162 1479.33 Q58.3162 1472.2 56.4875 1468.66 Q54.682 1465.1 51.0477 1465.1 M51.0477 1461.39 Q56.8579 1461.39 59.9134 1466 Q62.9921 1470.58 62.9921 1479.33 Q62.9921 1488.06 59.9134 1492.67 Q56.8579 1497.25 51.0477 1497.25 Q45.2376 1497.25 42.1589 1492.67 Q39.1034 1488.06 39.1034 1479.33 Q39.1034 1470.58 42.1589 1466 Q45.2376 1461.39 51.0477 1461.39 Z" fill="#000000" fill-rule="evenodd" fill-opacity="1" /><path clip-path="url(#clip230)" d="M 0 0 M46.6728 1101.39 L62.9921 1101.39 L62.9921 1105.33 L41.0478 1105.33 L41.0478 1101.39 Q43.7098 1098.64 48.2931 1094.01 Q52.8996 1089.36 54.0801 1088.01 Q56.3255 1085.49 57.2051 1083.75 Q58.1079 1081.99 58.1079 1080.31 Q58.1079 1077.55 56.1635 1075.81 Q54.2422 1074.08 51.1403 1074.08 Q48.9413 1074.08 46.4876 1074.84 Q44.057 1075.61 41.2793 1077.16 L41.2793 1072.43 Q44.1033 1071.3 46.557 1070.72 Q49.0107 1070.14 51.0477 1070.14 Q56.4181 1070.14 59.6125 1072.83 Q62.8069 1075.51 62.8069 1080 Q62.8069 1082.13 61.9968 1084.06 Q61.2097 1085.95 59.1033 1088.55 Q58.5246 1089.22 55.4227 1092.43 Q52.3209 1095.63 46.6728 1101.39 Z" fill="#000000" fill-rule="evenodd" fill-opacity="1" /><path clip-path="url(#clip230)" d="M 0 0 M53.4088 683.593 L41.6034 702.042 L53.4088 702.042 L53.4088 683.593 M52.182 679.519 L58.0616 679.519 L58.0616 702.042 L62.9921 702.042 L62.9921 705.931 L58.0616 705.931 L58.0616 714.079 L53.4088 714.079 L53.4088 705.931 L37.8071 705.931 L37.8071 701.417 L52.182 679.519 Z" fill="#000000" fill-rule="evenodd" fill-opacity="1" /><path clip-path="url(#clip230)" d="M 0 0 M51.4644 303.686 Q48.3163 303.686 46.4644 305.839 Q44.6357 307.991 44.6357 311.741 Q44.6357 315.468 46.4644 317.644 Q48.3163 319.797 51.4644 319.797 Q54.6125 319.797 56.4412 317.644 Q58.2931 315.468 58.2931 311.741 Q58.2931 307.991 56.4412 305.839 Q54.6125 303.686 51.4644 303.686 M60.7468 289.033 L60.7468 293.292 Q58.9875 292.459 57.182 292.019 Q55.3996 291.58 53.6403 291.58 Q49.0107 291.58 46.557 294.705 Q44.1265 297.829 43.7793 304.149 Q45.145 302.135 47.2052 301.07 Q49.2653 299.982 51.7422 299.982 Q56.9505 299.982 59.9597 303.154 Q62.9921 306.302 62.9921 311.741 Q62.9921 317.065 59.844 320.283 Q56.6959 323.501 51.4644 323.501 Q45.4691 323.501 42.2978 318.917 Q39.1265 314.311 39.1265 305.584 Q39.1265 297.39 43.0154 292.529 Q46.9042 287.644 53.4551 287.644 Q55.2144 287.644 56.9968 287.992 Q58.8023 288.339 60.7468 289.033 Z" fill="#000000" fill-rule="evenodd" fill-opacity="1" /><path clip-path="url(#clip232)" d="
M151.118 1460.51 L155.751 1458.59 L160.384 1456.53 L165.017 1454.31 L169.651 1451.93 L174.284 1449.4 L178.917 1446.7 L183.55 1443.85 L188.184 1440.85 L192.817 1437.72 
  L197.45 1434.46 L202.083 1431.1 L206.717 1427.66 L211.35 1424.16 L215.983 1420.63 L220.616 1417.09 L225.25 1413.58 L229.883 1410.12 L234.516 1406.74 L239.149 1403.46 
  L243.783 1400.32 L248.416 1397.32 L253.049 1394.47 L257.682 1391.79 L262.316 1389.28 L266.949 1386.93 L271.582 1384.73 L276.215 1382.67 L280.849 1380.73 L285.482 1378.9 
  L290.115 1377.14 L294.748 1375.44 L299.382 1373.78 L304.015 1372.13 L308.648 1370.48 L313.282 1368.81 L317.915 1367.12 L322.548 1365.39 L327.181 1363.63 L331.815 1361.84 
  L336.448 1360.04 L341.081 1358.22 L345.714 1356.42 L350.348 1354.64 L354.981 1352.9 L359.614 1351.22 L364.247 1349.61 L368.881 1348.1 L373.514 1346.68 L378.147 1345.37 
  L382.78 1344.18 L387.414 1343.09 L392.047 1342.1 L396.68 1341.21 L401.313 1340.39 L405.947 1339.63 L410.58 1338.89 L415.213 1338.17 L419.846 1337.43 L424.48 1336.63 
  L429.113 1335.76 L433.746 1334.77 L438.379 1333.65 L443.013 1332.36 L447.646 1330.88 L452.279 1329.19 L456.912 1327.26 L461.546 1325.08 L466.179 1322.63 L470.812 1319.89 
  L475.446 1316.87 L480.079 1313.54 L484.712 1309.91 L489.345 1305.96 L493.979 1301.68 L498.612 1297.09 L503.245 1292.18 L507.878 1286.94 L512.512 1281.38 L517.145 1275.51 
  L521.778 1269.32 L526.411 1262.85 L531.045 1256.09 L535.678 1249.06 L540.311 1241.8 L544.944 1234.34 L549.578 1226.69 L554.211 1218.91 L558.844 1211.05 L563.477 1203.14 
  L568.111 1195.24 L572.744 1187.4 L577.377 1179.68 L582.01 1172.14 L586.644 1164.83 L591.277 1157.79 L595.91 1151.06 L600.543 1144.7 L605.177 1138.71 L609.81 1133.13 
  L609.81 1479.3 L605.177 1479.3 L600.543 1479.3 L595.91 1479.3 L591.277 1479.3 L586.644 1479.3 L582.01 1479.3 L577.377 1479.3 L572.744 1479.3 L568.111 1479.3 
  L563.477 1479.3 L558.844 1479.3 L554.211 1479.3 L549.578 1479.3 L544.944 1479.3 L540.311 1479.3 L535.678 1479.3 L531.045 1479.3 L526.411 1479.3 L521.778 1479.3 
  L517.145 1479.3 L512.512 1479.3 L507.878 1479.3 L503.245 1479.3 L498.612 1479.3 L493.979 1479.3 L489.345 1479.3 L484.712 1479.3 L480.079 1479.3 L475.446 1479.3 
  L470.812 1479.3 L466.179 1479.3 L461.546 1479.3 L456.912 1479.3 L452.279 1479.3 L447.646 1479.3 L443.013 1479.3 L438.379 1479.3 L433.746 1479.3 L429.113 1479.3 
  L424.48 1479.3 L419.846 1479.3 L415.213 1479.3 L410.58 1479.3 L405.947 1479.3 L401.313 1479.3 L396.68 1479.3 L392.047 1479.3 L387.414 1479.3 L382.78 1479.3 
  L378.147 1479.3 L373.514 1479.3 L368.881 1479.3 L364.247 1479.3 L359.614 1479.3 L354.981 1479.3 L350.348 1479.3 L345.714 1479.3 L341.081 1479.3 L336.448 1479.3 
  L331.815 1479.3 L327.181 1479.3 L322.548 1479.3 L317.915 1479.3 L313.282 1479.3 L308.648 1479.3 L304.015 1479.3 L299.382 1479.3 L294.748 1479.3 L290.115 1479.3 
  L285.482 1479.3 L280.849 1479.3 L276.215 1479.3 L271.582 1479.3 L266.949 1479.3 L262.316 1479.3 L257.682 1479.3 L253.049 1479.3 L248.416 1479.3 L243.783 1479.3 
  L239.149 1479.3 L234.516 1479.3 L229.883 1479.3 L225.25 1479.3 L220.616 1479.3 L215.983 1479.3 L211.35 1479.3 L206.717 1479.3 L202.083 1479.3 L197.45 1479.3 
  L192.817 1479.3 L188.184 1479.3 L183.55 1479.3 L178.917 1479.3 L174.284 1479.3 L169.651 1479.3 L165.017 1479.3 L160.384 1479.3 L155.751 1479.3 L151.118 1479.3 
   Z
  " fill="#ffa500" fill-rule="evenodd" fill-opacity="0.5"/>
<polyline clip-path="url(#clip232)" style="stroke:#ffa500; stroke-width:4; stroke-opacity:1; fill:none" points="
  151.118,1460.51 155.751,1458.59 160.384,1456.53 165.017,1454.31 169.651,1451.93 174.284,1449.4 178.917,1446.7 183.55,1443.85 188.184,1440.85 192.817,1437.72 
  197.45,1434.46 202.083,1431.1 206.717,1427.66 211.35,1424.16 215.983,1420.63 220.616,1417.09 225.25,1413.58 229.883,1410.12 234.516,1406.74 239.149,1403.46 
  243.783,1400.32 248.416,1397.32 253.049,1394.47 257.682,1391.79 262.316,1389.28 266.949,1386.93 271.582,1384.73 276.215,1382.67 280.849,1380.73 285.482,1378.9 
  290.115,1377.14 294.748,1375.44 299.382,1373.78 304.015,1372.13 308.648,1370.48 313.282,1368.81 317.915,1367.12 322.548,1365.39 327.181,1363.63 331.815,1361.84 
  336.448,1360.04 341.081,1358.22 345.714,1356.42 350.348,1354.64 354.981,1352.9 359.614,1351.22 364.247,1349.61 368.881,1348.1 373.514,1346.68 378.147,1345.37 
  382.78,1344.18 387.414,1343.09 392.047,1342.1 396.68,1341.21 401.313,1340.39 405.947,1339.63 410.58,1338.89 415.213,1338.17 419.846,1337.43 424.48,1336.63 
  429.113,1335.76 433.746,1334.77 438.379,1333.65 443.013,1332.36 447.646,1330.88 452.279,1329.19 456.912,1327.26 461.546,1325.08 466.179,1322.63 470.812,1319.89 
  475.446,1316.87 480.079,1313.54 484.712,1309.91 489.345,1305.96 493.979,1301.68 498.612,1297.09 503.245,1292.18 507.878,1286.94 512.512,1281.38 517.145,1275.51 
  521.778,1269.32 526.411,1262.85 531.045,1256.09 535.678,1249.06 540.311,1241.8 544.944,1234.34 549.578,1226.69 554.211,1218.91 558.844,1211.05 563.477,1203.14 
  568.111,1195.24 572.744,1187.4 577.377,1179.68 582.01,1172.14 586.644,1164.83 591.277,1157.79 595.91,1151.06 600.543,1144.7 605.177,1138.71 609.81,1133.13 
  
  "/>
<path clip-path="url(#clip232)" d="
M609.81 1133.13 L622.005 1120.41 L634.2 1110.36 L646.396 1102.41 L658.591 1095.74 L670.786 1089.5 L682.981 1082.98 L695.176 1075.71 L707.372 1067.45 L719.567 1058.14 
  L731.762 1047.75 L743.957 1036.25 L756.153 1023.5 L768.348 1009.29 L780.543 993.353 L792.738 975.355 L804.933 954.957 L817.129 931.825 L829.324 905.696 L841.519 876.449 
  L853.714 844.168 L865.909 809.179 L878.105 772.021 L890.3 733.365 L902.495 693.914 L914.69 654.328 L926.885 615.182 L939.081 576.992 L951.276 540.243 L963.471 505.404 
  L975.666 472.894 L987.862 442.998 L1000.06 415.781 L1012.25 391.042 L1024.45 368.332 L1036.64 347.038 L1048.84 326.511 L1061.03 306.188 L1073.23 285.686 L1085.42 264.853 
  L1097.62 243.763 L1109.81 222.689 L1122.01 202.04 L1134.2 182.291 L1146.4 163.904 L1158.59 147.264 L1170.79 132.639 L1182.98 120.167 L1195.18 109.867 L1207.38 101.68 
  L1219.57 95.5269 L1231.77 91.3507 L1243.96 89.1511 L1256.16 88.9769 L1268.35 90.8864 L1280.55 94.8829 L1292.74 100.852 L1304.94 108.521 L1317.13 117.459 L1329.33 127.113 
  L1341.52 136.874 L1353.72 146.171 L1365.91 154.581 L1378.11 161.949 L1390.3 168.491 L1402.5 174.851 L1414.69 182.049 L1426.89 191.314 L1439.08 203.814 L1451.28 220.351 
  L1463.47 241.119 L1475.67 265.615 L1487.87 292.725 L1500.06 320.972 L1512.26 348.823 L1524.45 375.001 L1536.65 398.676 L1548.84 419.551 L1561.04 437.82 L1573.23 454.045 
  L1585.43 469.01 L1597.62 483.585 L1609.82 498.632 L1622.01 514.96 L1634.21 533.308 L1646.4 554.324 L1658.6 578.516 L1670.79 606.159 L1682.99 637.192 L1695.18 671.153 
  L1707.38 707.203 L1719.57 744.252 L1731.77 781.178 L1743.96 817.059 L1756.16 851.341 L1768.36 883.897 L1780.55 914.95 L1792.75 944.919 L1804.94 974.253 L1817.14 1003.31 
  L1817.14 1479.3 L1804.94 1479.3 L1792.75 1479.3 L1780.55 1479.3 L1768.36 1479.3 L1756.16 1479.3 L1743.96 1479.3 L1731.77 1479.3 L1719.57 1479.3 L1707.38 1479.3 
  L1695.18 1479.3 L1682.99 1479.3 L1670.79 1479.3 L1658.6 1479.3 L1646.4 1479.3 L1634.21 1479.3 L1622.01 1479.3 L1609.82 1479.3 L1597.62 1479.3 L1585.43 1479.3 
  L1573.23 1479.3 L1561.04 1479.3 L1548.84 1479.3 L1536.65 1479.3 L1524.45 1479.3 L1512.26 1479.3 L1500.06 1479.3 L1487.87 1479.3 L1475.67 1479.3 L1463.47 1479.3 
  L1451.28 1479.3 L1439.08 1479.3 L1426.89 1479.3 L1414.69 1479.3 L1402.5 1479.3 L1390.3 1479.3 L1378.11 1479.3 L1365.91 1479.3 L1353.72 1479.3 L1341.52 1479.3 
  L1329.33 1479.3 L1317.13 1479.3 L1304.94 1479.3 L1292.74 1479.3 L1280.55 1479.3 L1268.35 1479.3 L1256.16 1479.3 L1243.96 1479.3 L1231.77 1479.3 L1219.57 1479.3 
  L1207.38 1479.3 L1195.18 1479.3 L1182.98 1479.3 L1170.79 1479.3 L1158.59 1479.3 L1146.4 1479.3 L1134.2 1479.3 L1122.01 1479.3 L1109.81 1479.3 L1097.62 1479.3 
  L1085.42 1479.3 L1073.23 1479.3 L1061.03 1479.3 L1048.84 1479.3 L1036.64 1479.3 L1024.45 1479.3 L1012.25 1479.3 L1000.06 1479.3 L987.862 1479.3 L975.666 1479.3 
  L963.471 1479.3 L951.276 1479.3 L939.081 1479.3 L926.885 1479.3 L914.69 1479.3 L902.495 1479.3 L890.3 1479.3 L878.105 1479.3 L865.909 1479.3 L853.714 1479.3 
  L841.519 1479.3 L829.324 1479.3 L817.129 1479.3 L804.933 1479.3 L792.738 1479.3 L780.543 1479.3 L768.348 1479.3 L756.153 1479.3 L743.957 1479.3 L731.762 1479.3 
  L719.567 1479.3 L707.372 1479.3 L695.176 1479.3 L682.981 1479.3 L670.786 1479.3 L658.591 1479.3 L646.396 1479.3 L634.2 1479.3 L622.005 1479.3 L609.81 1479.3 
   Z
  " fill="#008000" fill-rule="evenodd" fill-opacity="0.5"/>
<polyline clip-path="url(#clip232)" style="stroke:#008000; stroke-width:4; stroke-opacity:1; fill:none" points="
  609.81,1133.13 622.005,1120.41 634.2,1110.36 646.396,1102.41 658.591,1095.74 670.786,1089.5 682.981,1082.98 695.176,1075.71 707.372,1067.45 719.567,1058.14 
  731.762,1047.75 743.957,1036.25 756.153,1023.5 768.348,1009.29 780.543,993.353 792.738,975.355 804.933,954.957 817.129,931.825 829.324,905.696 841.519,876.449 
  853.714,844.168 865.909,809.179 878.105,772.021 890.3,733.365 902.495,693.914 914.69,654.328 926.885,615.182 939.081,576.992 951.276,540.243 963.471,505.404 
  975.666,472.894 987.862,442.998 1000.06,415.781 1012.25,391.042 1024.45,368.332 1036.64,347.038 1048.84,326.511 1061.03,306.188 1073.23,285.686 1085.42,264.853 
  1097.62,243.763 1109.81,222.689 1122.01,202.04 1134.2,182.291 1146.4,163.904 1158.59,147.264 1170.79,132.639 1182.98,120.167 1195.18,109.867 1207.38,101.68 
  1219.57,95.5269 1231.77,91.3507 1243.96,89.1511 1256.16,88.9769 1268.35,90.8864 1280.55,94.8829 1292.74,100.852 1304.94,108.521 1317.13,117.459 1329.33,127.113 
  1341.52,136.874 1353.72,146.171 1365.91,154.581 1378.11,161.949 1390.3,168.491 1402.5,174.851 1414.69,182.049 1426.89,191.314 1439.08,203.814 1451.28,220.351 
  1463.47,241.119 1475.67,265.615 1487.87,292.725 1500.06,320.972 1512.26,348.823 1524.45,375.001 1536.65,398.676 1548.84,419.551 1561.04,437.82 1573.23,454.045 
  1585.43,469.01 1597.62,483.585 1609.82,498.632 1622.01,514.96 1634.21,533.308 1646.4,554.324 1658.6,578.516 1670.79,606.159 1682.99,637.192 1695.18,671.153 
  1707.38,707.203 1719.57,744.252 1731.77,781.178 1743.96,817.059 1756.16,851.341 1768.36,883.897 1780.55,914.95 1792.75,944.919 1804.94,974.253 1817.14,1003.31 
  
  "/>
<path clip-path="url(#clip232)" d="
M1817.14 1003.31 L1821.9 1014.64 L1826.66 1025.97 L1831.42 1037.31 L1836.19 1048.66 L1840.95 1060.03 L1845.71 1071.41 L1850.47 1082.82 L1855.24 1094.24 L1860 1105.67 
  L1864.76 1117.11 L1869.52 1128.55 L1874.29 1139.99 L1879.05 1151.41 L1883.81 1162.79 L1888.57 1174.13 L1893.34 1185.39 L1898.1 1196.56 L1902.86 1207.61 L1907.62 1218.5 
  L1912.39 1229.21 L1917.15 1239.71 L1921.91 1249.96 L1926.68 1259.94 L1931.44 1269.61 L1936.2 1278.94 L1940.96 1287.92 L1945.73 1296.52 L1950.49 1304.72 L1955.25 1312.52 
  L1960.01 1319.9 L1964.78 1326.85 L1969.54 1333.38 L1974.3 1339.49 L1979.06 1345.18 L1983.83 1350.46 L1988.59 1355.35 L1993.35 1359.86 L1998.11 1364 L2002.88 1367.81 
  L2007.64 1371.29 L2012.4 1374.48 L2017.16 1377.39 L2021.93 1380.07 L2026.69 1382.52 L2031.45 1384.79 L2036.21 1386.9 L2040.98 1388.88 L2045.74 1390.75 L2050.5 1392.54 
  L2055.26 1394.27 L2060.03 1395.96 L2064.79 1397.62 L2069.55 1399.28 L2074.31 1400.94 L2079.08 1402.6 L2083.84 1404.26 L2088.6 1405.93 L2093.37 1407.6 L2098.13 1409.26 
  L2102.89 1410.89 L2107.65 1412.48 L2112.42 1414.03 L2117.18 1415.51 L2121.94 1416.92 L2126.7 1418.24 L2131.47 1419.45 L2136.23 1420.55 L2140.99 1421.54 L2145.75 1422.41 
  L2150.52 1423.16 L2155.28 1423.8 L2160.04 1424.32 L2164.8 1424.75 L2169.57 1425.09 L2174.33 1425.35 L2179.09 1425.55 L2183.85 1425.72 L2188.62 1425.85 L2193.38 1425.98 
  L2198.14 1426.12 L2202.9 1426.28 L2207.67 1426.48 L2212.43 1426.74 L2217.19 1427.06 L2221.95 1427.47 L2226.72 1427.96 L2231.48 1428.56 L2236.24 1429.27 L2241 1430.09 
  L2245.77 1431.03 L2250.53 1432.09 L2255.29 1433.27 L2260.06 1434.58 L2264.82 1436.01 L2269.58 1437.56 L2274.34 1439.21 L2279.11 1440.97 L2283.87 1442.81 L2288.63 1444.73 
  L2288.63 1479.3 L2283.87 1479.3 L2279.11 1479.3 L2274.34 1479.3 L2269.58 1479.3 L2264.82 1479.3 L2260.06 1479.3 L2255.29 1479.3 L2250.53 1479.3 L2245.77 1479.3 
  L2241 1479.3 L2236.24 1479.3 L2231.48 1479.3 L2226.72 1479.3 L2221.95 1479.3 L2217.19 1479.3 L2212.43 1479.3 L2207.67 1479.3 L2202.9 1479.3 L2198.14 1479.3 
  L2193.38 1479.3 L2188.62 1479.3 L2183.85 1479.3 L2179.09 1479.3 L2174.33 1479.3 L2169.57 1479.3 L2164.8 1479.3 L2160.04 1479.3 L2155.28 1479.3 L2150.52 1479.3 
  L2145.75 1479.3 L2140.99 1479.3 L2136.23 1479.3 L2131.47 1479.3 L2126.7 1479.3 L2121.94 1479.3 L2117.18 1479.3 L2112.42 1479.3 L2107.65 1479.3 L2102.89 1479.3 
  L2098.13 1479.3 L2093.37 1479.3 L2088.6 1479.3 L2083.84 1479.3 L2079.08 1479.3 L2074.31 1479.3 L2069.55 1479.3 L2064.79 1479.3 L2060.03 1479.3 L2055.26 1479.3 
  L2050.5 1479.3 L2045.74 1479.3 L2040.98 1479.3 L2036.21 1479.3 L2031.45 1479.3 L2026.69 1479.3 L2021.93 1479.3 L2017.16 1479.3 L2012.4 1479.3 L2007.64 1479.3 
  L2002.88 1479.3 L1998.11 1479.3 L1993.35 1479.3 L1988.59 1479.3 L1983.83 1479.3 L1979.06 1479.3 L1974.3 1479.3 L1969.54 1479.3 L1964.78 1479.3 L1960.01 1479.3 
  L1955.25 1479.3 L1950.49 1479.3 L1945.73 1479.3 L1940.96 1479.3 L1936.2 1479.3 L1931.44 1479.3 L1926.68 1479.3 L1921.91 1479.3 L1917.15 1479.3 L1912.39 1479.3 
  L1907.62 1479.3 L1902.86 1479.3 L1898.1 1479.3 L1893.34 1479.3 L1888.57 1479.3 L1883.81 1479.3 L1879.05 1479.3 L1874.29 1479.3 L1869.52 1479.3 L1864.76 1479.3 
  L1860 1479.3 L1855.24 1479.3 L1850.47 1479.3 L1845.71 1479.3 L1840.95 1479.3 L1836.19 1479.3 L1831.42 1479.3 L1826.66 1479.3 L1821.9 1479.3 L1817.14 1479.3 
   Z
  " fill="#ffa500" fill-rule="evenodd" fill-opacity="0.5"/>
<polyline clip-path="url(#clip232)" style="stroke:#ffa500; stroke-width:4; stroke-opacity:1; fill:none" points="
  1817.14,1003.31 1821.9,1014.64 1826.66,1025.97 1831.42,1037.31 1836.19,1048.66 1840.95,1060.03 1845.71,1071.41 1850.47,1082.82 1855.24,1094.24 1860,1105.67 
  1864.76,1117.11 1869.52,1128.55 1874.29,1139.99 1879.05,1151.41 1883.81,1162.79 1888.57,1174.13 1893.34,1185.39 1898.1,1196.56 1902.86,1207.61 1907.62,1218.5 
  1912.39,1229.21 1917.15,1239.71 1921.91,1249.96 1926.68,1259.94 1931.44,1269.61 1936.2,1278.94 1940.96,1287.92 1945.73,1296.52 1950.49,1304.72 1955.25,1312.52 
  1960.01,1319.9 1964.78,1326.85 1969.54,1333.38 1974.3,1339.49 1979.06,1345.18 1983.83,1350.46 1988.59,1355.35 1993.35,1359.86 1998.11,1364 2002.88,1367.81 
  2007.64,1371.29 2012.4,1374.48 2017.16,1377.39 2021.93,1380.07 2026.69,1382.52 2031.45,1384.79 2036.21,1386.9 2040.98,1388.88 2045.74,1390.75 2050.5,1392.54 
  2055.26,1394.27 2060.03,1395.96 2064.79,1397.62 2069.55,1399.28 2074.31,1400.94 2079.08,1402.6 2083.84,1404.26 2088.6,1405.93 2093.37,1407.6 2098.13,1409.26 
  2102.89,1410.89 2107.65,1412.48 2112.42,1414.03 2117.18,1415.51 2121.94,1416.92 2126.7,1418.24 2131.47,1419.45 2136.23,1420.55 2140.99,1421.54 2145.75,1422.41 
  2150.52,1423.16 2155.28,1423.8 2160.04,1424.32 2164.8,1424.75 2169.57,1425.09 2174.33,1425.35 2179.09,1425.55 2183.85,1425.72 2188.62,1425.85 2193.38,1425.98 
  2198.14,1426.12 2202.9,1426.28 2207.67,1426.48 2212.43,1426.74 2217.19,1427.06 2221.95,1427.47 2226.72,1427.96 2231.48,1428.56 2236.24,1429.27 2241,1430.09 
  2245.77,1431.03 2250.53,1432.09 2255.29,1433.27 2260.06,1434.58 2264.82,1436.01 2269.58,1437.56 2274.34,1439.21 2279.11,1440.97 2283.87,1442.81 2288.63,1444.73 
  
  "/>
<polyline clip-path="url(#clip232)" style="stroke:#0000ff; stroke-width:4; stroke-opacity:1; fill:none" points="
  1255.83,1479.3 1255.83,88.9544 
  "/>
<polyline clip-path="url(#clip232)" style="stroke:#000000; stroke-width:4; stroke-opacity:1; fill:none" points="
  1268.46,1479.3 1268.46,90.9123 
  "/>
<path clip-path="url(#clip230)" d="
M1509.86 493.644 L2280.76 493.644 L2280.76 130.764 L1509.86 130.764  Z
  " fill="#ffffff" fill-rule="evenodd" fill-opacity="1"/>
<polyline clip-path="url(#clip230)" style="stroke:#000000; stroke-width:4; stroke-opacity:1; fill:none" points="
  1509.86,493.644 2280.76,493.644 2280.76,130.764 1509.86,130.764 1509.86,493.644 
  "/>
<path clip-path="url(#clip230)" d="
M1533.86 215.436 L1677.86 215.436 L1677.86 167.052 L1533.86 167.052 L1533.86 215.436  Z
  " fill="#ffa500" fill-rule="evenodd" fill-opacity="0.5"/>
<polyline clip-path="url(#clip230)" style="stroke:#ffa500; stroke-width:4; stroke-opacity:1; fill:none" points="
  1533.86,167.052 1677.86,167.052 
  "/>
<path clip-path="url(#clip230)" d="M 0 0 M1706.25 195.584 Q1706.25 200.283 1708.18 202.969 Q1710.12 205.631 1713.5 205.631 Q1716.88 205.631 1718.82 202.969 Q1720.77 200.283 1720.77 195.584 Q1720.77 190.885 1718.82 188.223 Q1716.88 185.538 1713.5 185.538 Q1710.12 185.538 1708.18 188.223 Q1706.25 190.885 1706.25 195.584 M1720.77 204.635 Q1719.43 206.95 1717.37 208.084 Q1715.33 209.195 1712.46 209.195 Q1707.76 209.195 1704.8 205.445 Q1701.86 201.695 1701.86 195.584 Q1701.86 189.473 1704.8 185.723 Q1707.76 181.973 1712.46 181.973 Q1715.33 181.973 1717.37 183.108 Q1719.43 184.219 1720.77 186.533 L1720.77 182.598 L1725.03 182.598 L1725.03 218.385 L1720.77 218.385 L1720.77 204.635 Z" fill="#000000" fill-rule="evenodd" fill-opacity="1" /><path clip-path="url(#clip230)" d="M 0 0 M1740.1 177.043 Q1736.49 177.043 1734.66 180.608 Q1732.85 184.149 1732.85 191.279 Q1732.85 198.385 1734.66 201.95 Q1736.49 205.492 1740.1 205.492 Q1743.73 205.492 1745.54 201.95 Q1747.36 198.385 1747.36 191.279 Q1747.36 184.149 1745.54 180.608 Q1743.73 177.043 1740.1 177.043 M1740.1 173.339 Q1745.91 173.339 1748.96 177.946 Q1752.04 182.529 1752.04 191.279 Q1752.04 200.006 1748.96 204.612 Q1745.91 209.195 1740.1 209.195 Q1734.29 209.195 1731.21 204.612 Q1728.15 200.006 1728.15 191.279 Q1728.15 182.529 1731.21 177.946 Q1734.29 173.339 1740.1 173.339 Z" fill="#000000" fill-rule="evenodd" fill-opacity="1" /><path clip-path="url(#clip230)" d="M 0 0 M1757.16 173.964 L1775.51 173.964 L1775.51 177.899 L1761.44 177.899 L1761.44 186.371 Q1762.46 186.024 1763.48 185.862 Q1764.49 185.677 1765.51 185.677 Q1771.3 185.677 1774.68 188.848 Q1778.06 192.02 1778.06 197.436 Q1778.06 203.015 1774.59 206.117 Q1771.11 209.195 1764.8 209.195 Q1762.62 209.195 1760.35 208.825 Q1758.11 208.455 1755.7 207.714 L1755.7 203.015 Q1757.78 204.149 1760 204.705 Q1762.23 205.26 1764.7 205.26 Q1768.71 205.26 1771.05 203.154 Q1773.38 201.047 1773.38 197.436 Q1773.38 193.825 1771.05 191.719 Q1768.71 189.612 1764.7 189.612 Q1762.83 189.612 1760.95 190.029 Q1759.1 190.445 1757.16 191.325 L1757.16 173.964 Z" fill="#000000" fill-rule="evenodd" fill-opacity="1" /><path clip-path="url(#clip230)" d="
M1533.86 275.916 L1677.86 275.916 L1677.86 227.532 L1533.86 227.532 L1533.86 275.916  Z
  " fill="#008000" fill-rule="evenodd" fill-opacity="0.5"/>
<polyline clip-path="url(#clip230)" style="stroke:#008000; stroke-width:4; stroke-opacity:1; fill:none" points="
  1533.86,227.532 1677.86,227.532 
  "/>
<path clip-path="url(#clip230)" d="M 0 0 M1704.08 268.287 L1704.08 264.027 Q1705.84 264.861 1707.64 265.3 Q1709.45 265.74 1711.18 265.74 Q1715.81 265.74 1718.24 262.638 Q1720.7 259.513 1721.05 253.171 Q1719.7 255.162 1717.64 256.226 Q1715.58 257.291 1713.08 257.291 Q1707.9 257.291 1704.87 254.166 Q1701.86 251.018 1701.86 245.578 Q1701.86 240.254 1705 237.037 Q1708.15 233.819 1713.38 233.819 Q1719.38 233.819 1722.53 238.426 Q1725.7 243.009 1725.7 251.759 Q1725.7 259.93 1721.81 264.814 Q1717.94 269.675 1711.39 269.675 Q1709.63 269.675 1707.83 269.328 Q1706.02 268.981 1704.08 268.287 M1713.38 253.634 Q1716.53 253.634 1718.36 251.481 Q1720.21 249.328 1720.21 245.578 Q1720.21 241.851 1718.36 239.699 Q1716.53 237.523 1713.38 237.523 Q1710.24 237.523 1708.38 239.699 Q1706.56 241.851 1706.56 245.578 Q1706.56 249.328 1708.38 251.481 Q1710.24 253.634 1713.38 253.634 Z" fill="#000000" fill-rule="evenodd" fill-opacity="1" /><path clip-path="url(#clip230)" d="M 0 0 M1740.77 237.523 Q1737.16 237.523 1735.33 241.088 Q1733.52 244.629 1733.52 251.759 Q1733.52 258.865 1735.33 262.43 Q1737.16 265.972 1740.77 265.972 Q1744.4 265.972 1746.21 262.43 Q1748.04 258.865 1748.04 251.759 Q1748.04 244.629 1746.21 241.088 Q1744.4 237.523 1740.77 237.523 M1740.77 233.819 Q1746.58 233.819 1749.63 238.426 Q1752.71 243.009 1752.71 251.759 Q1752.71 260.486 1749.63 265.092 Q1746.58 269.675 1740.77 269.675 Q1734.96 269.675 1731.88 265.092 Q1728.82 260.486 1728.82 251.759 Q1728.82 243.009 1731.88 238.426 Q1734.96 233.819 1740.77 233.819 Z" fill="#000000" fill-rule="evenodd" fill-opacity="1" /><path clip-path="url(#clip230)" d="M 0 0 M1787.18 253.796 Q1785.17 253.796 1784.01 255.509 Q1782.87 257.222 1782.87 260.277 Q1782.87 263.287 1784.01 265.023 Q1785.17 266.736 1787.18 266.736 Q1789.15 266.736 1790.28 265.023 Q1791.44 263.287 1791.44 260.277 Q1791.44 257.245 1790.28 255.532 Q1789.15 253.796 1787.18 253.796 M1787.18 250.856 Q1790.84 250.856 1792.99 253.402 Q1795.14 255.949 1795.14 260.277 Q1795.14 264.606 1792.97 267.152 Q1790.81 269.675 1787.18 269.675 Q1783.48 269.675 1781.32 267.152 Q1779.17 264.606 1779.17 260.277 Q1779.17 255.925 1781.32 253.402 Q1783.5 250.856 1787.18 250.856 M1763.29 236.759 Q1761.3 236.759 1760.14 238.495 Q1759.01 240.208 1759.01 243.217 Q1759.01 246.273 1760.14 247.986 Q1761.28 249.699 1763.29 249.699 Q1765.3 249.699 1766.44 247.986 Q1767.6 246.273 1767.6 243.217 Q1767.6 240.231 1766.44 238.495 Q1765.28 236.759 1763.29 236.759 M1784.19 233.819 L1787.9 233.819 L1766.28 269.675 L1762.57 269.675 L1784.19 233.819 M1763.29 233.819 Q1766.95 233.819 1769.12 236.365 Q1771.3 238.889 1771.3 243.217 Q1771.3 247.592 1769.12 250.115 Q1766.97 252.638 1763.29 252.638 Q1759.61 252.638 1757.46 250.115 Q1755.33 247.569 1755.33 243.217 Q1755.33 238.912 1757.48 236.365 Q1759.63 233.819 1763.29 233.819 Z" fill="#000000" fill-rule="evenodd" fill-opacity="1" /><path clip-path="url(#clip230)" d="M 0 0 M1836.23 253.356 L1836.23 269.004 L1831.97 269.004 L1831.97 253.495 Q1831.97 249.814 1830.54 247.986 Q1829.1 246.157 1826.23 246.157 Q1822.78 246.157 1820.79 248.356 Q1818.8 250.555 1818.8 254.351 L1818.8 269.004 L1814.52 269.004 L1814.52 243.078 L1818.8 243.078 L1818.8 247.106 Q1820.33 244.768 1822.39 243.611 Q1824.47 242.453 1827.18 242.453 Q1831.65 242.453 1833.94 245.231 Q1836.23 247.986 1836.23 253.356 Z" fill="#000000" fill-rule="evenodd" fill-opacity="1" /><path clip-path="url(#clip230)" d="M 0 0 M1850.74 246.064 Q1847.32 246.064 1845.33 248.75 Q1843.34 251.412 1843.34 256.064 Q1843.34 260.717 1845.3 263.402 Q1847.3 266.064 1850.74 266.064 Q1854.15 266.064 1856.14 263.379 Q1858.13 260.694 1858.13 256.064 Q1858.13 251.458 1856.14 248.773 Q1854.15 246.064 1850.74 246.064 M1850.74 242.453 Q1856.3 242.453 1859.47 246.064 Q1862.64 249.675 1862.64 256.064 Q1862.64 262.43 1859.47 266.064 Q1856.3 269.675 1850.74 269.675 Q1845.17 269.675 1841.99 266.064 Q1838.85 262.43 1838.85 256.064 Q1838.85 249.675 1841.99 246.064 Q1845.17 242.453 1850.74 242.453 Z" fill="#000000" fill-rule="evenodd" fill-opacity="1" /><path clip-path="url(#clip230)" d="M 0 0 M1888.66 253.356 L1888.66 269.004 L1884.4 269.004 L1884.4 253.495 Q1884.4 249.814 1882.97 247.986 Q1881.53 246.157 1878.66 246.157 Q1875.21 246.157 1873.22 248.356 Q1871.23 250.555 1871.23 254.351 L1871.23 269.004 L1866.95 269.004 L1866.95 243.078 L1871.23 243.078 L1871.23 247.106 Q1872.76 244.768 1874.82 243.611 Q1876.9 242.453 1879.61 242.453 Q1884.08 242.453 1886.37 245.231 Q1888.66 247.986 1888.66 253.356 Z" fill="#000000" fill-rule="evenodd" fill-opacity="1" /><path clip-path="url(#clip230)" d="M 0 0 M1890.98 254.12 L1903.45 254.12 L1903.45 257.916 L1890.98 257.916 L1890.98 254.12 Z" fill="#000000" fill-rule="evenodd" fill-opacity="1" /><path clip-path="url(#clip230)" d="M 0 0 M1922.94 247.06 Q1922.23 246.643 1921.37 246.458 Q1920.54 246.25 1919.52 246.25 Q1915.91 246.25 1913.96 248.611 Q1912.04 250.949 1912.04 255.347 L1912.04 269.004 L1907.76 269.004 L1907.76 243.078 L1912.04 243.078 L1912.04 247.106 Q1913.38 244.745 1915.54 243.611 Q1917.69 242.453 1920.77 242.453 Q1921.21 242.453 1921.74 242.523 Q1922.27 242.569 1922.92 242.685 L1922.94 247.06 Z" fill="#000000" fill-rule="evenodd" fill-opacity="1" /><path clip-path="url(#clip230)" d="M 0 0 M1948.54 254.976 L1948.54 257.06 L1928.96 257.06 Q1929.24 261.458 1931.6 263.773 Q1933.98 266.064 1938.22 266.064 Q1940.67 266.064 1942.97 265.462 Q1945.28 264.861 1947.55 263.657 L1947.55 267.685 Q1945.26 268.657 1942.85 269.166 Q1940.44 269.675 1937.97 269.675 Q1931.76 269.675 1928.13 266.064 Q1924.52 262.453 1924.52 256.296 Q1924.52 249.93 1927.94 246.203 Q1931.39 242.453 1937.23 242.453 Q1942.46 242.453 1945.49 245.833 Q1948.54 249.189 1948.54 254.976 M1944.29 253.726 Q1944.24 250.231 1942.32 248.148 Q1940.42 246.064 1937.27 246.064 Q1933.71 246.064 1931.55 248.078 Q1929.42 250.092 1929.1 253.75 L1944.29 253.726 Z" fill="#000000" fill-rule="evenodd" fill-opacity="1" /><path clip-path="url(#clip230)" d="M 0 0 M1953.01 243.078 L1957.27 243.078 L1957.27 269.467 Q1957.27 274.421 1955.37 276.643 Q1953.5 278.865 1949.31 278.865 L1947.69 278.865 L1947.69 275.254 L1948.82 275.254 Q1951.25 275.254 1952.13 274.12 Q1953.01 273.009 1953.01 269.467 L1953.01 243.078 M1953.01 232.986 L1957.27 232.986 L1957.27 238.379 L1953.01 238.379 L1953.01 232.986 Z" fill="#000000" fill-rule="evenodd" fill-opacity="1" /><path clip-path="url(#clip230)" d="M 0 0 M1983.91 254.976 L1983.91 257.06 L1964.33 257.06 Q1964.61 261.458 1966.97 263.773 Q1969.35 266.064 1973.59 266.064 Q1976.04 266.064 1978.34 265.462 Q1980.65 264.861 1982.92 263.657 L1982.92 267.685 Q1980.63 268.657 1978.22 269.166 Q1975.81 269.675 1973.34 269.675 Q1967.13 269.675 1963.5 266.064 Q1959.89 262.453 1959.89 256.296 Q1959.89 249.93 1963.31 246.203 Q1966.76 242.453 1972.6 242.453 Q1977.83 242.453 1980.86 245.833 Q1983.91 249.189 1983.91 254.976 M1979.66 253.726 Q1979.61 250.231 1977.69 248.148 Q1975.79 246.064 1972.64 246.064 Q1969.08 246.064 1966.92 248.078 Q1964.79 250.092 1964.47 253.75 L1979.66 253.726 Z" fill="#000000" fill-rule="evenodd" fill-opacity="1" /><path clip-path="url(#clip230)" d="M 0 0 M2007.04 244.074 L2007.04 248.055 Q2005.23 247.06 2003.41 246.574 Q2001.6 246.064 1999.75 246.064 Q1995.6 246.064 1993.31 248.703 Q1991.02 251.319 1991.02 256.064 Q1991.02 260.81 1993.31 263.449 Q1995.6 266.064 1999.75 266.064 Q2001.6 266.064 2003.41 265.578 Q2005.23 265.069 2007.04 264.074 L2007.04 268.009 Q2005.26 268.842 2003.34 269.259 Q2001.44 269.675 1999.28 269.675 Q1993.43 269.675 1989.98 265.995 Q1986.53 262.314 1986.53 256.064 Q1986.53 249.722 1990 246.088 Q1993.5 242.453 1999.56 242.453 Q2001.53 242.453 2003.41 242.87 Q2005.28 243.263 2007.04 244.074 Z" fill="#000000" fill-rule="evenodd" fill-opacity="1" /><path clip-path="url(#clip230)" d="M 0 0 M2015.72 235.717 L2015.72 243.078 L2024.49 243.078 L2024.49 246.388 L2015.72 246.388 L2015.72 260.462 Q2015.72 263.634 2016.58 264.537 Q2017.46 265.439 2020.12 265.439 L2024.49 265.439 L2024.49 269.004 L2020.12 269.004 Q2015.19 269.004 2013.31 267.175 Q2011.44 265.324 2011.44 260.462 L2011.44 246.388 L2008.31 246.388 L2008.31 243.078 L2011.44 243.078 L2011.44 235.717 L2015.72 235.717 Z" fill="#000000" fill-rule="evenodd" fill-opacity="1" /><path clip-path="url(#clip230)" d="M 0 0 M2028.96 243.078 L2033.22 243.078 L2033.22 269.004 L2028.96 269.004 L2028.96 243.078 M2028.96 232.986 L2033.22 232.986 L2033.22 238.379 L2028.96 238.379 L2028.96 232.986 Z" fill="#000000" fill-rule="evenodd" fill-opacity="1" /><path clip-path="url(#clip230)" d="M 0 0 M2047.73 246.064 Q2044.31 246.064 2042.32 248.75 Q2040.33 251.412 2040.33 256.064 Q2040.33 260.717 2042.29 263.402 Q2044.28 266.064 2047.73 266.064 Q2051.14 266.064 2053.13 263.379 Q2055.12 260.694 2055.12 256.064 Q2055.12 251.458 2053.13 248.773 Q2051.14 246.064 2047.73 246.064 M2047.73 242.453 Q2053.29 242.453 2056.46 246.064 Q2059.63 249.675 2059.63 256.064 Q2059.63 262.43 2056.46 266.064 Q2053.29 269.675 2047.73 269.675 Q2042.16 269.675 2038.98 266.064 Q2035.84 262.43 2035.84 256.064 Q2035.84 249.675 2038.98 246.064 Q2042.16 242.453 2047.73 242.453 Z" fill="#000000" fill-rule="evenodd" fill-opacity="1" /><path clip-path="url(#clip230)" d="M 0 0 M2085.65 253.356 L2085.65 269.004 L2081.39 269.004 L2081.39 253.495 Q2081.39 249.814 2079.96 247.986 Q2078.52 246.157 2075.65 246.157 Q2072.2 246.157 2070.21 248.356 Q2068.22 250.555 2068.22 254.351 L2068.22 269.004 L2063.94 269.004 L2063.94 243.078 L2068.22 243.078 L2068.22 247.106 Q2069.75 244.768 2071.81 243.611 Q2073.89 242.453 2076.6 242.453 Q2081.07 242.453 2083.36 245.231 Q2085.65 247.986 2085.65 253.356 Z" fill="#000000" fill-rule="evenodd" fill-opacity="1" /><path clip-path="url(#clip230)" d="M 0 0 M2120.21 247.06 Q2119.49 246.643 2118.64 246.458 Q2117.8 246.25 2116.78 246.25 Q2113.17 246.25 2111.23 248.611 Q2109.31 250.949 2109.31 255.347 L2109.31 269.004 L2105.03 269.004 L2105.03 243.078 L2109.31 243.078 L2109.31 247.106 Q2110.65 244.745 2112.8 243.611 Q2114.96 242.453 2118.03 242.453 Q2118.47 242.453 2119.01 242.523 Q2119.54 242.569 2120.19 242.685 L2120.21 247.06 Z" fill="#000000" fill-rule="evenodd" fill-opacity="1" /><path clip-path="url(#clip230)" d="M 0 0 M2145.81 254.976 L2145.81 257.06 L2126.23 257.06 Q2126.51 261.458 2128.87 263.773 Q2131.25 266.064 2135.49 266.064 Q2137.94 266.064 2140.23 265.462 Q2142.55 264.861 2144.82 263.657 L2144.82 267.685 Q2142.52 268.657 2140.12 269.166 Q2137.71 269.675 2135.23 269.675 Q2129.03 269.675 2125.4 266.064 Q2121.78 262.453 2121.78 256.296 Q2121.78 249.93 2125.21 246.203 Q2128.66 242.453 2134.49 242.453 Q2139.72 242.453 2142.76 245.833 Q2145.81 249.189 2145.81 254.976 M2141.55 253.726 Q2141.51 250.231 2139.59 248.148 Q2137.69 246.064 2134.54 246.064 Q2130.97 246.064 2128.82 248.078 Q2126.69 250.092 2126.37 253.75 L2141.55 253.726 Z" fill="#000000" fill-rule="evenodd" fill-opacity="1" /><path clip-path="url(#clip230)" d="M 0 0 M2167.34 255.74 Q2167.34 251.111 2165.42 248.564 Q2163.52 246.018 2160.07 246.018 Q2156.65 246.018 2154.72 248.564 Q2152.83 251.111 2152.83 255.74 Q2152.83 260.347 2154.72 262.893 Q2156.65 265.439 2160.07 265.439 Q2163.52 265.439 2165.42 262.893 Q2167.34 260.347 2167.34 255.74 M2171.6 265.787 Q2171.6 272.407 2168.66 275.624 Q2165.72 278.865 2159.65 278.865 Q2157.41 278.865 2155.42 278.518 Q2153.43 278.194 2151.55 277.499 L2151.55 273.356 Q2153.43 274.374 2155.26 274.861 Q2157.09 275.347 2158.98 275.347 Q2163.17 275.347 2165.26 273.148 Q2167.34 270.972 2167.34 266.55 L2167.34 264.444 Q2166.02 266.736 2163.96 267.87 Q2161.9 269.004 2159.03 269.004 Q2154.26 269.004 2151.34 265.37 Q2148.43 261.736 2148.43 255.74 Q2148.43 249.722 2151.34 246.088 Q2154.26 242.453 2159.03 242.453 Q2161.9 242.453 2163.96 243.588 Q2166.02 244.722 2167.34 247.013 L2167.34 243.078 L2171.6 243.078 L2171.6 265.787 Z" fill="#000000" fill-rule="evenodd" fill-opacity="1" /><path clip-path="url(#clip230)" d="M 0 0 M2176.07 243.078 L2180.33 243.078 L2180.33 269.004 L2176.07 269.004 L2176.07 243.078 M2176.07 232.986 L2180.33 232.986 L2180.33 238.379 L2176.07 238.379 L2176.07 232.986 Z" fill="#000000" fill-rule="evenodd" fill-opacity="1" /><path clip-path="url(#clip230)" d="M 0 0 M2194.84 246.064 Q2191.41 246.064 2189.42 248.75 Q2187.43 251.412 2187.43 256.064 Q2187.43 260.717 2189.4 263.402 Q2191.39 266.064 2194.84 266.064 Q2198.24 266.064 2200.23 263.379 Q2202.22 260.694 2202.22 256.064 Q2202.22 251.458 2200.23 248.773 Q2198.24 246.064 2194.84 246.064 M2194.84 242.453 Q2200.39 242.453 2203.57 246.064 Q2206.74 249.675 2206.74 256.064 Q2206.74 262.43 2203.57 266.064 Q2200.39 269.675 2194.84 269.675 Q2189.26 269.675 2186.09 266.064 Q2182.94 262.43 2182.94 256.064 Q2182.94 249.675 2186.09 246.064 Q2189.26 242.453 2194.84 242.453 Z" fill="#000000" fill-rule="evenodd" fill-opacity="1" /><path clip-path="url(#clip230)" d="M 0 0 M2232.76 253.356 L2232.76 269.004 L2228.5 269.004 L2228.5 253.495 Q2228.5 249.814 2227.06 247.986 Q2225.63 246.157 2222.76 246.157 Q2219.31 246.157 2217.32 248.356 Q2215.33 250.555 2215.33 254.351 L2215.33 269.004 L2211.04 269.004 L2211.04 243.078 L2215.33 243.078 L2215.33 247.106 Q2216.85 244.768 2218.91 243.611 Q2221 242.453 2223.71 242.453 Q2228.17 242.453 2230.46 245.231 Q2232.76 247.986 2232.76 253.356 Z" fill="#000000" fill-rule="evenodd" fill-opacity="1" /><path clip-path="url(#clip230)" d="
M1533.86 336.396 L1677.86 336.396 L1677.86 288.012 L1533.86 288.012 L1533.86 336.396  Z
  " fill="#ffa500" fill-rule="evenodd" fill-opacity="0.5"/>
<polyline clip-path="url(#clip230)" style="stroke:#ffa500; stroke-width:4; stroke-opacity:1; fill:none" points="
  1533.86,288.012 1677.86,288.012 
  "/>
<path clip-path="url(#clip230)" d="M 0 0 M1706.25 316.544 Q1706.25 321.243 1708.18 323.929 Q1710.12 326.591 1713.5 326.591 Q1716.88 326.591 1718.82 323.929 Q1720.77 321.243 1720.77 316.544 Q1720.77 311.845 1718.82 309.183 Q1716.88 306.498 1713.5 306.498 Q1710.12 306.498 1708.18 309.183 Q1706.25 311.845 1706.25 316.544 M1720.77 325.595 Q1719.43 327.91 1717.37 329.044 Q1715.33 330.155 1712.46 330.155 Q1707.76 330.155 1704.8 326.405 Q1701.86 322.655 1701.86 316.544 Q1701.86 310.433 1704.8 306.683 Q1707.76 302.933 1712.46 302.933 Q1715.33 302.933 1717.37 304.068 Q1719.43 305.179 1720.77 307.493 L1720.77 303.558 L1725.03 303.558 L1725.03 339.345 L1720.77 339.345 L1720.77 325.595 Z" fill="#000000" fill-rule="evenodd" fill-opacity="1" /><path clip-path="url(#clip230)" d="M 0 0 M1730.24 328.767 L1730.24 324.507 Q1731.99 325.341 1733.8 325.78 Q1735.61 326.22 1737.34 326.22 Q1741.97 326.22 1744.4 323.118 Q1746.86 319.993 1747.2 313.651 Q1745.86 315.642 1743.8 316.706 Q1741.74 317.771 1739.24 317.771 Q1734.05 317.771 1731.02 314.646 Q1728.01 311.498 1728.01 306.058 Q1728.01 300.734 1731.16 297.517 Q1734.31 294.299 1739.54 294.299 Q1745.54 294.299 1748.68 298.906 Q1751.86 303.489 1751.86 312.239 Q1751.86 320.41 1747.97 325.294 Q1744.1 330.155 1737.55 330.155 Q1735.79 330.155 1733.99 329.808 Q1732.18 329.461 1730.24 328.767 M1739.54 314.114 Q1742.69 314.114 1744.52 311.961 Q1746.37 309.808 1746.37 306.058 Q1746.37 302.331 1744.52 300.179 Q1742.69 298.003 1739.54 298.003 Q1736.39 298.003 1734.54 300.179 Q1732.71 302.331 1732.71 306.058 Q1732.71 309.808 1734.54 311.961 Q1736.39 314.114 1739.54 314.114 Z" fill="#000000" fill-rule="evenodd" fill-opacity="1" /><path clip-path="url(#clip230)" d="M 0 0 M1756.97 294.924 L1775.33 294.924 L1775.33 298.859 L1761.25 298.859 L1761.25 307.331 Q1762.27 306.984 1763.29 306.822 Q1764.31 306.637 1765.33 306.637 Q1771.11 306.637 1774.49 309.808 Q1777.87 312.98 1777.87 318.396 Q1777.87 323.975 1774.4 327.077 Q1770.93 330.155 1764.61 330.155 Q1762.43 330.155 1760.17 329.785 Q1757.92 329.415 1755.51 328.674 L1755.51 323.975 Q1757.6 325.109 1759.82 325.665 Q1762.04 326.22 1764.52 326.22 Q1768.52 326.22 1770.86 324.114 Q1773.2 322.007 1773.2 318.396 Q1773.2 314.785 1770.86 312.679 Q1768.52 310.572 1764.52 310.572 Q1762.64 310.572 1760.77 310.989 Q1758.92 311.405 1756.97 312.285 L1756.97 294.924 Z" fill="#000000" fill-rule="evenodd" fill-opacity="1" /><polyline clip-path="url(#clip230)" style="stroke:#0000ff; stroke-width:4; stroke-opacity:1; fill:none" points="
  1533.86,372.684 1677.86,372.684 
  "/>
<path clip-path="url(#clip230)" d="M 0 0 M1722.2 369.015 Q1723.8 366.145 1726.02 364.779 Q1728.24 363.413 1731.25 363.413 Q1735.3 363.413 1737.5 366.261 Q1739.7 369.085 1739.7 374.316 L1739.7 389.964 L1735.42 389.964 L1735.42 374.455 Q1735.42 370.728 1734.1 368.923 Q1732.78 367.117 1730.07 367.117 Q1726.76 367.117 1724.84 369.316 Q1722.92 371.515 1722.92 375.311 L1722.92 389.964 L1718.64 389.964 L1718.64 374.455 Q1718.64 370.705 1717.32 368.923 Q1716 367.117 1713.24 367.117 Q1709.98 367.117 1708.06 369.339 Q1706.14 371.538 1706.14 375.311 L1706.14 389.964 L1701.86 389.964 L1701.86 364.038 L1706.14 364.038 L1706.14 368.066 Q1707.6 365.682 1709.63 364.548 Q1711.67 363.413 1714.47 363.413 Q1717.3 363.413 1719.26 364.848 Q1721.25 366.284 1722.2 369.015 Z" fill="#000000" fill-rule="evenodd" fill-opacity="1" /><path clip-path="url(#clip230)" d="M 0 0 M1766.35 375.936 L1766.35 378.02 L1746.76 378.02 Q1747.04 382.418 1749.4 384.733 Q1751.79 387.024 1756.02 387.024 Q1758.48 387.024 1760.77 386.422 Q1763.08 385.821 1765.35 384.617 L1765.35 388.645 Q1763.06 389.617 1760.65 390.126 Q1758.24 390.635 1755.77 390.635 Q1749.56 390.635 1745.93 387.024 Q1742.32 383.413 1742.32 377.256 Q1742.32 370.89 1745.74 367.163 Q1749.19 363.413 1755.03 363.413 Q1760.26 363.413 1763.29 366.793 Q1766.35 370.149 1766.35 375.936 M1762.09 374.686 Q1762.04 371.191 1760.12 369.108 Q1758.22 367.024 1755.07 367.024 Q1751.51 367.024 1749.36 369.038 Q1747.23 371.052 1746.9 374.71 L1762.09 374.686 Z" fill="#000000" fill-rule="evenodd" fill-opacity="1" /><path clip-path="url(#clip230)" d="M 0 0 M1782.6 376.932 Q1777.43 376.932 1775.44 378.112 Q1773.45 379.293 1773.45 382.14 Q1773.45 384.409 1774.93 385.751 Q1776.44 387.071 1779.01 387.071 Q1782.55 387.071 1784.68 384.571 Q1786.83 382.047 1786.83 377.881 L1786.83 376.932 L1782.6 376.932 M1791.09 375.173 L1791.09 389.964 L1786.83 389.964 L1786.83 386.029 Q1785.37 388.39 1783.2 389.524 Q1781.02 390.635 1777.87 390.635 Q1773.89 390.635 1771.53 388.413 Q1769.19 386.168 1769.19 382.418 Q1769.19 378.043 1772.11 375.821 Q1775.05 373.598 1780.86 373.598 L1786.83 373.598 L1786.83 373.182 Q1786.83 370.242 1784.89 368.645 Q1782.97 367.024 1779.47 367.024 Q1777.25 367.024 1775.14 367.557 Q1773.04 368.089 1771.09 369.154 L1771.09 365.219 Q1773.43 364.316 1775.63 363.876 Q1777.83 363.413 1779.91 363.413 Q1785.54 363.413 1788.31 366.33 Q1791.09 369.247 1791.09 375.173 Z" fill="#000000" fill-rule="evenodd" fill-opacity="1" /><path clip-path="url(#clip230)" d="M 0 0 M1817.11 374.316 L1817.11 389.964 L1812.85 389.964 L1812.85 374.455 Q1812.85 370.774 1811.42 368.946 Q1809.98 367.117 1807.11 367.117 Q1803.66 367.117 1801.67 369.316 Q1799.68 371.515 1799.68 375.311 L1799.68 389.964 L1795.4 389.964 L1795.4 364.038 L1799.68 364.038 L1799.68 368.066 Q1801.21 365.728 1803.27 364.571 Q1805.35 363.413 1808.06 363.413 Q1812.53 363.413 1814.82 366.191 Q1817.11 368.946 1817.11 374.316 Z" fill="#000000" fill-rule="evenodd" fill-opacity="1" /><polyline clip-path="url(#clip230)" style="stroke:#000000; stroke-width:4; stroke-opacity:1; fill:none" points="
  1533.86,433.164 1677.86,433.164 
  "/>
<path clip-path="url(#clip230)" d="M 0 0 M1722.2 429.495 Q1723.8 426.625 1726.02 425.259 Q1728.24 423.893 1731.25 423.893 Q1735.3 423.893 1737.5 426.741 Q1739.7 429.565 1739.7 434.796 L1739.7 450.444 L1735.42 450.444 L1735.42 434.935 Q1735.42 431.208 1734.1 429.403 Q1732.78 427.597 1730.07 427.597 Q1726.76 427.597 1724.84 429.796 Q1722.92 431.995 1722.92 435.791 L1722.92 450.444 L1718.64 450.444 L1718.64 434.935 Q1718.64 431.185 1717.32 429.403 Q1716 427.597 1713.24 427.597 Q1709.98 427.597 1708.06 429.819 Q1706.14 432.018 1706.14 435.791 L1706.14 450.444 L1701.86 450.444 L1701.86 424.518 L1706.14 424.518 L1706.14 428.546 Q1707.6 426.162 1709.63 425.028 Q1711.67 423.893 1714.47 423.893 Q1717.3 423.893 1719.26 425.328 Q1721.25 426.764 1722.2 429.495 Z" fill="#000000" fill-rule="evenodd" fill-opacity="1" /><path clip-path="url(#clip230)" d="M 0 0 M1766.35 436.416 L1766.35 438.5 L1746.76 438.5 Q1747.04 442.898 1749.4 445.213 Q1751.79 447.504 1756.02 447.504 Q1758.48 447.504 1760.77 446.902 Q1763.08 446.301 1765.35 445.097 L1765.35 449.125 Q1763.06 450.097 1760.65 450.606 Q1758.24 451.115 1755.77 451.115 Q1749.56 451.115 1745.93 447.504 Q1742.32 443.893 1742.32 437.736 Q1742.32 431.37 1745.74 427.643 Q1749.19 423.893 1755.03 423.893 Q1760.26 423.893 1763.29 427.273 Q1766.35 430.629 1766.35 436.416 M1762.09 435.166 Q1762.04 431.671 1760.12 429.588 Q1758.22 427.504 1755.07 427.504 Q1751.51 427.504 1749.36 429.518 Q1747.23 431.532 1746.9 435.19 L1762.09 435.166 Z" fill="#000000" fill-rule="evenodd" fill-opacity="1" /><path clip-path="url(#clip230)" d="M 0 0 M1787.87 428.453 L1787.87 414.426 L1792.13 414.426 L1792.13 450.444 L1787.87 450.444 L1787.87 446.555 Q1786.53 448.87 1784.47 450.004 Q1782.43 451.115 1779.56 451.115 Q1774.86 451.115 1771.9 447.365 Q1768.96 443.615 1768.96 437.504 Q1768.96 431.393 1771.9 427.643 Q1774.86 423.893 1779.56 423.893 Q1782.43 423.893 1784.47 425.028 Q1786.53 426.139 1787.87 428.453 M1773.36 437.504 Q1773.36 442.203 1775.28 444.889 Q1777.23 447.551 1780.61 447.551 Q1783.99 447.551 1785.93 444.889 Q1787.87 442.203 1787.87 437.504 Q1787.87 432.805 1785.93 430.143 Q1783.99 427.458 1780.61 427.458 Q1777.23 427.458 1775.28 430.143 Q1773.36 432.805 1773.36 437.504 Z" fill="#000000" fill-rule="evenodd" fill-opacity="1" /><path clip-path="url(#clip230)" d="M 0 0 M1796.6 424.518 L1800.86 424.518 L1800.86 450.444 L1796.6 450.444 L1796.6 424.518 M1796.6 414.426 L1800.86 414.426 L1800.86 419.819 L1796.6 419.819 L1796.6 414.426 Z" fill="#000000" fill-rule="evenodd" fill-opacity="1" /><path clip-path="url(#clip230)" d="M 0 0 M1817.11 437.412 Q1811.95 437.412 1809.96 438.592 Q1807.97 439.773 1807.97 442.62 Q1807.97 444.889 1809.45 446.231 Q1810.95 447.551 1813.52 447.551 Q1817.06 447.551 1819.19 445.051 Q1821.35 442.527 1821.35 438.361 L1821.35 437.412 L1817.11 437.412 M1825.61 435.653 L1825.61 450.444 L1821.35 450.444 L1821.35 446.509 Q1819.89 448.87 1817.71 450.004 Q1815.54 451.115 1812.39 451.115 Q1808.41 451.115 1806.05 448.893 Q1803.71 446.648 1803.71 442.898 Q1803.71 438.523 1806.62 436.301 Q1809.56 434.078 1815.37 434.078 L1821.35 434.078 L1821.35 433.662 Q1821.35 430.722 1819.4 429.125 Q1817.48 427.504 1813.99 427.504 Q1811.76 427.504 1809.66 428.037 Q1807.55 428.569 1805.61 429.634 L1805.61 425.699 Q1807.94 424.796 1810.14 424.356 Q1812.34 423.893 1814.42 423.893 Q1820.05 423.893 1822.83 426.81 Q1825.61 429.727 1825.61 435.653 Z" fill="#000000" fill-rule="evenodd" fill-opacity="1" /><path clip-path="url(#clip230)" d="M 0 0 M1851.62 434.796 L1851.62 450.444 L1847.36 450.444 L1847.36 434.935 Q1847.36 431.254 1845.93 429.426 Q1844.49 427.597 1841.62 427.597 Q1838.17 427.597 1836.18 429.796 Q1834.19 431.995 1834.19 435.791 L1834.19 450.444 L1829.91 450.444 L1829.91 424.518 L1834.19 424.518 L1834.19 428.546 Q1835.72 426.208 1837.78 425.051 Q1839.86 423.893 1842.57 423.893 Q1847.04 423.893 1849.33 426.671 Q1851.62 429.426 1851.62 434.796 Z" fill="#000000" fill-rule="evenodd" fill-opacity="1" /></svg>
