<?xml version="1.0" encoding="utf-8"?>
<svg xmlns="http://www.w3.org/2000/svg" xmlns:xlink="http://www.w3.org/1999/xlink" width="600" height="400" viewBox="0 0 2400 1600">
<defs>
  <clipPath id="clip200">
    <rect x="0" y="0" width="2400" height="1600"/>
  </clipPath>
</defs>
<path clip-path="url(#clip200)" d="
M0 1600 L2400 1600 L2400 0 L0 0  Z
  " fill="#ffffff" fill-rule="evenodd" fill-opacity="1"/>
<defs>
  <clipPath id="clip201">
    <rect x="480" y="0" width="1681" height="1600"/>
  </clipPath>
</defs>
<path clip-path="url(#clip200)" d="
M186.274 1486.45 L2352.76 1486.45 L2352.76 47.2441 L186.274 47.2441  Z
  " fill="#ffffff" fill-rule="evenodd" fill-opacity="1"/>
<defs>
  <clipPath id="clip202">
    <rect x="186" y="47" width="2167" height="1440"/>
  </clipPath>
</defs>
<polyline clip-path="url(#clip202)" style="stroke:#000000; stroke-linecap:butt; stroke-linejoin:round; stroke-width:2; stroke-opacity:0.1; fill:none" points="
  270.158,1486.45 270.158,47.2441 
  "/>
<polyline clip-path="url(#clip202)" style="stroke:#000000; stroke-linecap:butt; stroke-linejoin:round; stroke-width:2; stroke-opacity:0.1; fill:none" points="
  785,1486.45 785,47.2441 
  "/>
<polyline clip-path="url(#clip202)" style="stroke:#000000; stroke-linecap:butt; stroke-linejoin:round; stroke-width:2; stroke-opacity:0.1; fill:none" points="
  1299.84,1486.45 1299.84,47.2441 
  "/>
<polyline clip-path="url(#clip202)" style="stroke:#000000; stroke-linecap:butt; stroke-linejoin:round; stroke-width:2; stroke-opacity:0.1; fill:none" points="
  1816.09,1486.45 1816.09,47.2441 
  "/>
<polyline clip-path="url(#clip202)" style="stroke:#000000; stroke-linecap:butt; stroke-linejoin:round; stroke-width:2; stroke-opacity:0.1; fill:none" points="
  2330.94,1486.45 2330.94,47.2441 
  "/>
<polyline clip-path="url(#clip200)" style="stroke:#000000; stroke-linecap:butt; stroke-linejoin:round; stroke-width:4; stroke-opacity:1; fill:none" points="
  186.274,1486.45 2352.76,1486.45 
  "/>
<polyline clip-path="url(#clip200)" style="stroke:#000000; stroke-linecap:butt; stroke-linejoin:round; stroke-width:4; stroke-opacity:1; fill:none" points="
  270.158,1486.45 270.158,1467.55 
  "/>
<polyline clip-path="url(#clip200)" style="stroke:#000000; stroke-linecap:butt; stroke-linejoin:round; stroke-width:4; stroke-opacity:1; fill:none" points="
  785,1486.45 785,1467.55 
  "/>
<polyline clip-path="url(#clip200)" style="stroke:#000000; stroke-linecap:butt; stroke-linejoin:round; stroke-width:4; stroke-opacity:1; fill:none" points="
  1299.84,1486.45 1299.84,1467.55 
  "/>
<polyline clip-path="url(#clip200)" style="stroke:#000000; stroke-linecap:butt; stroke-linejoin:round; stroke-width:4; stroke-opacity:1; fill:none" points="
  1816.09,1486.45 1816.09,1467.55 
  "/>
<polyline clip-path="url(#clip200)" style="stroke:#000000; stroke-linecap:butt; stroke-linejoin:round; stroke-width:4; stroke-opacity:1; fill:none" points="
  2330.94,1486.45 2330.94,1467.55 
  "/>
<path clip-path="url(#clip200)" d="M141.953 1543.18 L158.272 1543.18 L158.272 1547.12 L136.328 1547.12 L136.328 1543.18 Q138.99 1540.43 143.573 1535.8 Q148.179 1531.15 149.36 1529.81 Q151.605 1527.28 152.485 1525.55 Q153.388 1523.79 153.388 1522.1 Q153.388 1519.34 151.443 1517.61 Q149.522 1515.87 146.42 1515.87 Q144.221 1515.87 141.767 1516.63 Q139.337 1517.4 136.559 1518.95 L136.559 1514.23 Q139.383 1513.09 141.837 1512.51 Q144.291 1511.93 146.328 1511.93 Q151.698 1511.93 154.892 1514.62 Q158.087 1517.31 158.087 1521.8 Q158.087 1523.93 157.277 1525.85 Q156.49 1527.74 154.383 1530.34 Q153.804 1531.01 150.703 1534.23 Q147.601 1537.42 141.953 1543.18 Z" fill="#000000" fill-rule="evenodd" fill-opacity="1" /><path clip-path="url(#clip200)" d="M178.087 1515.64 Q174.476 1515.64 172.647 1519.2 Q170.841 1522.75 170.841 1529.87 Q170.841 1536.98 172.647 1540.55 Q174.476 1544.09 178.087 1544.09 Q181.721 1544.09 183.526 1540.55 Q185.355 1536.98 185.355 1529.87 Q185.355 1522.75 183.526 1519.2 Q181.721 1515.64 178.087 1515.64 M178.087 1511.93 Q183.897 1511.93 186.952 1516.54 Q190.031 1521.12 190.031 1529.87 Q190.031 1538.6 186.952 1543.21 Q183.897 1547.79 178.087 1547.79 Q172.277 1547.79 169.198 1543.21 Q166.142 1538.6 166.142 1529.87 Q166.142 1521.12 169.198 1516.54 Q172.277 1511.93 178.087 1511.93 Z" fill="#000000" fill-rule="evenodd" fill-opacity="1" /><path clip-path="url(#clip200)" d="M199.059 1543.18 L206.698 1543.18 L206.698 1516.82 L198.387 1518.49 L198.387 1514.23 L206.651 1512.56 L211.327 1512.56 L211.327 1543.18 L218.966 1543.18 L218.966 1547.12 L199.059 1547.12 L199.059 1543.18 Z" fill="#000000" fill-rule="evenodd" fill-opacity="1" /><path clip-path="url(#clip200)" d="M241.258 1516.63 L229.452 1535.08 L241.258 1535.08 L241.258 1516.63 M240.031 1512.56 L245.91 1512.56 L245.91 1535.08 L250.841 1535.08 L250.841 1538.97 L245.91 1538.97 L245.91 1547.12 L241.258 1547.12 L241.258 1538.97 L225.656 1538.97 L225.656 1534.46 L240.031 1512.56 Z" fill="#000000" fill-rule="evenodd" fill-opacity="1" /><path clip-path="url(#clip200)" d="M255.818 1532.24 L268.295 1532.24 L268.295 1536.03 L255.818 1536.03 L255.818 1532.24 Z" fill="#000000" fill-rule="evenodd" fill-opacity="1" /><path clip-path="url(#clip200)" d="M285.679 1515.64 Q282.068 1515.64 280.239 1519.2 Q278.433 1522.75 278.433 1529.87 Q278.433 1536.98 280.239 1540.55 Q282.068 1544.09 285.679 1544.09 Q289.313 1544.09 291.118 1540.55 Q292.947 1536.98 292.947 1529.87 Q292.947 1522.75 291.118 1519.2 Q289.313 1515.64 285.679 1515.64 M285.679 1511.93 Q291.489 1511.93 294.544 1516.54 Q297.623 1521.12 297.623 1529.87 Q297.623 1538.6 294.544 1543.21 Q291.489 1547.79 285.679 1547.79 Q279.869 1547.79 276.79 1543.21 Q273.734 1538.6 273.734 1529.87 Q273.734 1521.12 276.79 1516.54 Q279.869 1511.93 285.679 1511.93 Z" fill="#000000" fill-rule="evenodd" fill-opacity="1" /><path clip-path="url(#clip200)" d="M306.651 1543.18 L314.29 1543.18 L314.29 1516.82 L305.979 1518.49 L305.979 1514.23 L314.243 1512.56 L318.919 1512.56 L318.919 1543.18 L326.558 1543.18 L326.558 1547.12 L306.651 1547.12 L306.651 1543.18 Z" fill="#000000" fill-rule="evenodd" fill-opacity="1" /><path clip-path="url(#clip200)" d="M333.248 1532.24 L345.725 1532.24 L345.725 1536.03 L333.248 1536.03 L333.248 1532.24 Z" fill="#000000" fill-rule="evenodd" fill-opacity="1" /><path clip-path="url(#clip200)" d="M363.109 1515.64 Q359.498 1515.64 357.669 1519.2 Q355.863 1522.75 355.863 1529.87 Q355.863 1536.98 357.669 1540.55 Q359.498 1544.09 363.109 1544.09 Q366.743 1544.09 368.549 1540.55 Q370.377 1536.98 370.377 1529.87 Q370.377 1522.75 368.549 1519.2 Q366.743 1515.64 363.109 1515.64 M363.109 1511.93 Q368.919 1511.93 371.975 1516.54 Q375.053 1521.12 375.053 1529.87 Q375.053 1538.6 371.975 1543.21 Q368.919 1547.79 363.109 1547.79 Q357.299 1547.79 354.22 1543.21 Q351.164 1538.6 351.164 1529.87 Q351.164 1521.12 354.22 1516.54 Q357.299 1511.93 363.109 1511.93 Z" fill="#000000" fill-rule="evenodd" fill-opacity="1" /><path clip-path="url(#clip200)" d="M384.081 1543.18 L391.72 1543.18 L391.72 1516.82 L383.41 1518.49 L383.41 1514.23 L391.673 1512.56 L396.349 1512.56 L396.349 1543.18 L403.988 1543.18 L403.988 1547.12 L384.081 1547.12 L384.081 1543.18 Z" fill="#000000" fill-rule="evenodd" fill-opacity="1" /><path clip-path="url(#clip200)" d="M656.794 1543.18 L673.114 1543.18 L673.114 1547.12 L651.169 1547.12 L651.169 1543.18 Q653.831 1540.43 658.415 1535.8 Q663.021 1531.15 664.202 1529.81 Q666.447 1527.28 667.327 1525.55 Q668.229 1523.79 668.229 1522.1 Q668.229 1519.34 666.285 1517.61 Q664.364 1515.87 661.262 1515.87 Q659.063 1515.87 656.609 1516.63 Q654.179 1517.4 651.401 1518.95 L651.401 1514.23 Q654.225 1513.09 656.679 1512.51 Q659.132 1511.93 661.169 1511.93 Q666.54 1511.93 669.734 1514.62 Q672.928 1517.31 672.928 1521.8 Q672.928 1523.93 672.118 1525.85 Q671.331 1527.74 669.225 1530.34 Q668.646 1531.01 665.544 1534.23 Q662.442 1537.42 656.794 1543.18 Z" fill="#000000" fill-rule="evenodd" fill-opacity="1" /><path clip-path="url(#clip200)" d="M692.928 1515.64 Q689.317 1515.64 687.489 1519.2 Q685.683 1522.75 685.683 1529.87 Q685.683 1536.98 687.489 1540.55 Q689.317 1544.09 692.928 1544.09 Q696.563 1544.09 698.368 1540.55 Q700.197 1536.98 700.197 1529.87 Q700.197 1522.75 698.368 1519.2 Q696.563 1515.64 692.928 1515.64 M692.928 1511.93 Q698.738 1511.93 701.794 1516.54 Q704.873 1521.12 704.873 1529.87 Q704.873 1538.6 701.794 1543.21 Q698.738 1547.79 692.928 1547.79 Q687.118 1547.79 684.039 1543.21 Q680.984 1538.6 680.984 1529.87 Q680.984 1521.12 684.039 1516.54 Q687.118 1511.93 692.928 1511.93 Z" fill="#000000" fill-rule="evenodd" fill-opacity="1" /><path clip-path="url(#clip200)" d="M713.9 1543.18 L721.539 1543.18 L721.539 1516.82 L713.229 1518.49 L713.229 1514.23 L721.493 1512.56 L726.169 1512.56 L726.169 1543.18 L733.808 1543.18 L733.808 1547.12 L713.9 1547.12 L713.9 1543.18 Z" fill="#000000" fill-rule="evenodd" fill-opacity="1" /><path clip-path="url(#clip200)" d="M743.298 1512.56 L761.655 1512.56 L761.655 1516.5 L747.581 1516.5 L747.581 1524.97 Q748.599 1524.62 749.618 1524.46 Q750.636 1524.27 751.655 1524.27 Q757.442 1524.27 760.821 1527.44 Q764.201 1530.62 764.201 1536.03 Q764.201 1541.61 760.729 1544.71 Q757.257 1547.79 750.937 1547.79 Q748.761 1547.79 746.493 1547.42 Q744.247 1547.05 741.84 1546.31 L741.84 1541.61 Q743.923 1542.74 746.146 1543.3 Q748.368 1543.86 750.845 1543.86 Q754.849 1543.86 757.187 1541.75 Q759.525 1539.64 759.525 1536.03 Q759.525 1532.42 757.187 1530.31 Q754.849 1528.21 750.845 1528.21 Q748.97 1528.21 747.095 1528.62 Q745.243 1529.04 743.298 1529.92 L743.298 1512.56 Z" fill="#000000" fill-rule="evenodd" fill-opacity="1" /><path clip-path="url(#clip200)" d="M770.659 1532.24 L783.136 1532.24 L783.136 1536.03 L770.659 1536.03 L770.659 1532.24 Z" fill="#000000" fill-rule="evenodd" fill-opacity="1" /><path clip-path="url(#clip200)" d="M800.52 1515.64 Q796.909 1515.64 795.081 1519.2 Q793.275 1522.75 793.275 1529.87 Q793.275 1536.98 795.081 1540.55 Q796.909 1544.09 800.52 1544.09 Q804.155 1544.09 805.96 1540.55 Q807.789 1536.98 807.789 1529.87 Q807.789 1522.75 805.96 1519.2 Q804.155 1515.64 800.52 1515.64 M800.52 1511.93 Q806.33 1511.93 809.386 1516.54 Q812.465 1521.12 812.465 1529.87 Q812.465 1538.6 809.386 1543.21 Q806.33 1547.79 800.52 1547.79 Q794.71 1547.79 791.631 1543.21 Q788.576 1538.6 788.576 1529.87 Q788.576 1521.12 791.631 1516.54 Q794.71 1511.93 800.52 1511.93 Z" fill="#000000" fill-rule="evenodd" fill-opacity="1" /><path clip-path="url(#clip200)" d="M821.492 1543.18 L829.131 1543.18 L829.131 1516.82 L820.821 1518.49 L820.821 1514.23 L829.085 1512.56 L833.761 1512.56 L833.761 1543.18 L841.4 1543.18 L841.4 1547.12 L821.492 1547.12 L821.492 1543.18 Z" fill="#000000" fill-rule="evenodd" fill-opacity="1" /><path clip-path="url(#clip200)" d="M848.09 1532.24 L860.566 1532.24 L860.566 1536.03 L848.09 1536.03 L848.09 1532.24 Z" fill="#000000" fill-rule="evenodd" fill-opacity="1" /><path clip-path="url(#clip200)" d="M877.95 1515.64 Q874.339 1515.64 872.511 1519.2 Q870.705 1522.75 870.705 1529.87 Q870.705 1536.98 872.511 1540.55 Q874.339 1544.09 877.95 1544.09 Q881.585 1544.09 883.39 1540.55 Q885.219 1536.98 885.219 1529.87 Q885.219 1522.75 883.39 1519.2 Q881.585 1515.64 877.95 1515.64 M877.95 1511.93 Q883.761 1511.93 886.816 1516.54 Q889.895 1521.12 889.895 1529.87 Q889.895 1538.6 886.816 1543.21 Q883.761 1547.79 877.95 1547.79 Q872.14 1547.79 869.062 1543.21 Q866.006 1538.6 866.006 1529.87 Q866.006 1521.12 869.062 1516.54 Q872.14 1511.93 877.95 1511.93 Z" fill="#000000" fill-rule="evenodd" fill-opacity="1" /><path clip-path="url(#clip200)" d="M898.923 1543.18 L906.561 1543.18 L906.561 1516.82 L898.251 1518.49 L898.251 1514.23 L906.515 1512.56 L911.191 1512.56 L911.191 1543.18 L918.83 1543.18 L918.83 1547.12 L898.923 1547.12 L898.923 1543.18 Z" fill="#000000" fill-rule="evenodd" fill-opacity="1" /><path clip-path="url(#clip200)" d="M1171.64 1543.18 L1187.96 1543.18 L1187.96 1547.12 L1166.01 1547.12 L1166.01 1543.18 Q1168.67 1540.43 1173.26 1535.8 Q1177.86 1531.15 1179.04 1529.81 Q1181.29 1527.28 1182.17 1525.55 Q1183.07 1523.79 1183.07 1522.1 Q1183.07 1519.34 1181.13 1517.61 Q1179.21 1515.87 1176.1 1515.87 Q1173.9 1515.87 1171.45 1516.63 Q1169.02 1517.4 1166.24 1518.95 L1166.24 1514.23 Q1169.07 1513.09 1171.52 1512.51 Q1173.97 1511.93 1176.01 1511.93 Q1181.38 1511.93 1184.58 1514.62 Q1187.77 1517.31 1187.77 1521.8 Q1187.77 1523.93 1186.96 1525.85 Q1186.17 1527.74 1184.07 1530.34 Q1183.49 1531.01 1180.39 1534.23 Q1177.28 1537.42 1171.64 1543.18 Z" fill="#000000" fill-rule="evenodd" fill-opacity="1" /><path clip-path="url(#clip200)" d="M1207.77 1515.64 Q1204.16 1515.64 1202.33 1519.2 Q1200.52 1522.75 1200.52 1529.87 Q1200.52 1536.98 1202.33 1540.55 Q1204.16 1544.09 1207.77 1544.09 Q1211.4 1544.09 1213.21 1540.55 Q1215.04 1536.98 1215.04 1529.87 Q1215.04 1522.75 1213.21 1519.2 Q1211.4 1515.64 1207.77 1515.64 M1207.77 1511.93 Q1213.58 1511.93 1216.64 1516.54 Q1219.71 1521.12 1219.71 1529.87 Q1219.71 1538.6 1216.64 1543.21 Q1213.58 1547.79 1207.77 1547.79 Q1201.96 1547.79 1198.88 1543.21 Q1195.83 1538.6 1195.83 1529.87 Q1195.83 1521.12 1198.88 1516.54 Q1201.96 1511.93 1207.77 1511.93 Z" fill="#000000" fill-rule="evenodd" fill-opacity="1" /><path clip-path="url(#clip200)" d="M1228.74 1543.18 L1236.38 1543.18 L1236.38 1516.82 L1228.07 1518.49 L1228.07 1514.23 L1236.33 1512.56 L1241.01 1512.56 L1241.01 1543.18 L1248.65 1543.18 L1248.65 1547.12 L1228.74 1547.12 L1228.74 1543.18 Z" fill="#000000" fill-rule="evenodd" fill-opacity="1" /><path clip-path="url(#clip200)" d="M1268.67 1527.98 Q1265.52 1527.98 1263.67 1530.13 Q1261.84 1532.28 1261.84 1536.03 Q1261.84 1539.76 1263.67 1541.93 Q1265.52 1544.09 1268.67 1544.09 Q1271.82 1544.09 1273.65 1541.93 Q1275.5 1539.76 1275.5 1536.03 Q1275.5 1532.28 1273.65 1530.13 Q1271.82 1527.98 1268.67 1527.98 M1277.95 1513.32 L1277.95 1517.58 Q1276.2 1516.75 1274.39 1516.31 Q1272.61 1515.87 1270.85 1515.87 Q1266.22 1515.87 1263.77 1519 Q1261.33 1522.12 1260.99 1528.44 Q1262.35 1526.43 1264.41 1525.36 Q1266.47 1524.27 1268.95 1524.27 Q1274.16 1524.27 1277.17 1527.44 Q1280.2 1530.59 1280.2 1536.03 Q1280.2 1541.36 1277.05 1544.57 Q1273.9 1547.79 1268.67 1547.79 Q1262.68 1547.79 1259.51 1543.21 Q1256.33 1538.6 1256.33 1529.87 Q1256.33 1521.68 1260.22 1516.82 Q1264.11 1511.93 1270.66 1511.93 Q1272.42 1511.93 1274.2 1512.28 Q1276.01 1512.63 1277.95 1513.32 Z" fill="#000000" fill-rule="evenodd" fill-opacity="1" /><path clip-path="url(#clip200)" d="M1285.5 1532.24 L1297.98 1532.24 L1297.98 1536.03 L1285.5 1536.03 L1285.5 1532.24 Z" fill="#000000" fill-rule="evenodd" fill-opacity="1" /><path clip-path="url(#clip200)" d="M1315.36 1515.64 Q1311.75 1515.64 1309.92 1519.2 Q1308.12 1522.75 1308.12 1529.87 Q1308.12 1536.98 1309.92 1540.55 Q1311.75 1544.09 1315.36 1544.09 Q1319 1544.09 1320.8 1540.55 Q1322.63 1536.98 1322.63 1529.87 Q1322.63 1522.75 1320.8 1519.2 Q1319 1515.64 1315.36 1515.64 M1315.36 1511.93 Q1321.17 1511.93 1324.23 1516.54 Q1327.31 1521.12 1327.31 1529.87 Q1327.31 1538.6 1324.23 1543.21 Q1321.17 1547.79 1315.36 1547.79 Q1309.55 1547.79 1306.47 1543.21 Q1303.42 1538.6 1303.42 1529.87 Q1303.42 1521.12 1306.47 1516.54 Q1309.55 1511.93 1315.36 1511.93 Z" fill="#000000" fill-rule="evenodd" fill-opacity="1" /><path clip-path="url(#clip200)" d="M1336.33 1543.18 L1343.97 1543.18 L1343.97 1516.82 L1335.66 1518.49 L1335.66 1514.23 L1343.93 1512.56 L1348.6 1512.56 L1348.6 1543.18 L1356.24 1543.18 L1356.24 1547.12 L1336.33 1547.12 L1336.33 1543.18 Z" fill="#000000" fill-rule="evenodd" fill-opacity="1" /><path clip-path="url(#clip200)" d="M1362.93 1532.24 L1375.41 1532.24 L1375.41 1536.03 L1362.93 1536.03 L1362.93 1532.24 Z" fill="#000000" fill-rule="evenodd" fill-opacity="1" /><path clip-path="url(#clip200)" d="M1392.79 1515.64 Q1389.18 1515.64 1387.35 1519.2 Q1385.55 1522.75 1385.55 1529.87 Q1385.55 1536.98 1387.35 1540.55 Q1389.18 1544.09 1392.79 1544.09 Q1396.43 1544.09 1398.23 1540.55 Q1400.06 1536.98 1400.06 1529.87 Q1400.06 1522.75 1398.23 1519.2 Q1396.43 1515.64 1392.79 1515.64 M1392.79 1511.93 Q1398.6 1511.93 1401.66 1516.54 Q1404.74 1521.12 1404.74 1529.87 Q1404.74 1538.6 1401.66 1543.21 Q1398.6 1547.79 1392.79 1547.79 Q1386.98 1547.79 1383.9 1543.21 Q1380.85 1538.6 1380.85 1529.87 Q1380.85 1521.12 1383.9 1516.54 Q1386.98 1511.93 1392.79 1511.93 Z" fill="#000000" fill-rule="evenodd" fill-opacity="1" /><path clip-path="url(#clip200)" d="M1413.76 1543.18 L1421.4 1543.18 L1421.4 1516.82 L1413.09 1518.49 L1413.09 1514.23 L1421.36 1512.56 L1426.03 1512.56 L1426.03 1543.18 L1433.67 1543.18 L1433.67 1547.12 L1413.76 1547.12 L1413.76 1543.18 Z" fill="#000000" fill-rule="evenodd" fill-opacity="1" /><path clip-path="url(#clip200)" d="M1687.89 1543.18 L1704.21 1543.18 L1704.21 1547.12 L1682.26 1547.12 L1682.26 1543.18 Q1684.93 1540.43 1689.51 1535.8 Q1694.11 1531.15 1695.3 1529.81 Q1697.54 1527.28 1698.42 1525.55 Q1699.32 1523.79 1699.32 1522.1 Q1699.32 1519.34 1697.38 1517.61 Q1695.46 1515.87 1692.36 1515.87 Q1690.16 1515.87 1687.7 1516.63 Q1685.27 1517.4 1682.49 1518.95 L1682.49 1514.23 Q1685.32 1513.09 1687.77 1512.51 Q1690.23 1511.93 1692.26 1511.93 Q1697.63 1511.93 1700.83 1514.62 Q1704.02 1517.31 1704.02 1521.8 Q1704.02 1523.93 1703.21 1525.85 Q1702.43 1527.74 1700.32 1530.34 Q1699.74 1531.01 1696.64 1534.23 Q1693.54 1537.42 1687.89 1543.18 Z" fill="#000000" fill-rule="evenodd" fill-opacity="1" /><path clip-path="url(#clip200)" d="M1724.02 1515.64 Q1720.41 1515.64 1718.58 1519.2 Q1716.78 1522.75 1716.78 1529.87 Q1716.78 1536.98 1718.58 1540.55 Q1720.41 1544.09 1724.02 1544.09 Q1727.66 1544.09 1729.46 1540.55 Q1731.29 1536.98 1731.29 1529.87 Q1731.29 1522.75 1729.46 1519.2 Q1727.66 1515.64 1724.02 1515.64 M1724.02 1511.93 Q1729.83 1511.93 1732.89 1516.54 Q1735.97 1521.12 1735.97 1529.87 Q1735.97 1538.6 1732.89 1543.21 Q1729.83 1547.79 1724.02 1547.79 Q1718.21 1547.79 1715.13 1543.21 Q1712.08 1538.6 1712.08 1529.87 Q1712.08 1521.12 1715.13 1516.54 Q1718.21 1511.93 1724.02 1511.93 Z" fill="#000000" fill-rule="evenodd" fill-opacity="1" /><path clip-path="url(#clip200)" d="M1744.99 1543.18 L1752.63 1543.18 L1752.63 1516.82 L1744.32 1518.49 L1744.32 1514.23 L1752.59 1512.56 L1757.26 1512.56 L1757.26 1543.18 L1764.9 1543.18 L1764.9 1547.12 L1744.99 1547.12 L1744.99 1543.18 Z" fill="#000000" fill-rule="evenodd" fill-opacity="1" /><path clip-path="url(#clip200)" d="M1773.17 1512.56 L1795.39 1512.56 L1795.39 1514.55 L1782.84 1547.12 L1777.96 1547.12 L1789.76 1516.5 L1773.17 1516.5 L1773.17 1512.56 Z" fill="#000000" fill-rule="evenodd" fill-opacity="1" /><path clip-path="url(#clip200)" d="M1801.75 1532.24 L1814.23 1532.24 L1814.23 1536.03 L1801.75 1536.03 L1801.75 1532.24 Z" fill="#000000" fill-rule="evenodd" fill-opacity="1" /><path clip-path="url(#clip200)" d="M1831.61 1515.64 Q1828 1515.64 1826.17 1519.2 Q1824.37 1522.75 1824.37 1529.87 Q1824.37 1536.98 1826.17 1540.55 Q1828 1544.09 1831.61 1544.09 Q1835.25 1544.09 1837.05 1540.55 Q1838.88 1536.98 1838.88 1529.87 Q1838.88 1522.75 1837.05 1519.2 Q1835.25 1515.64 1831.61 1515.64 M1831.61 1511.93 Q1837.42 1511.93 1840.48 1516.54 Q1843.56 1521.12 1843.56 1529.87 Q1843.56 1538.6 1840.48 1543.21 Q1837.42 1547.79 1831.61 1547.79 Q1825.8 1547.79 1822.73 1543.21 Q1819.67 1538.6 1819.67 1529.87 Q1819.67 1521.12 1822.73 1516.54 Q1825.8 1511.93 1831.61 1511.93 Z" fill="#000000" fill-rule="evenodd" fill-opacity="1" /><path clip-path="url(#clip200)" d="M1852.59 1543.18 L1860.23 1543.18 L1860.23 1516.82 L1851.91 1518.49 L1851.91 1514.23 L1860.18 1512.56 L1864.85 1512.56 L1864.85 1543.18 L1872.49 1543.18 L1872.49 1547.12 L1852.59 1547.12 L1852.59 1543.18 Z" fill="#000000" fill-rule="evenodd" fill-opacity="1" /><path clip-path="url(#clip200)" d="M1879.18 1532.24 L1891.66 1532.24 L1891.66 1536.03 L1879.18 1536.03 L1879.18 1532.24 Z" fill="#000000" fill-rule="evenodd" fill-opacity="1" /><path clip-path="url(#clip200)" d="M1909.04 1515.64 Q1905.43 1515.64 1903.6 1519.2 Q1901.8 1522.75 1901.8 1529.87 Q1901.8 1536.98 1903.6 1540.55 Q1905.43 1544.09 1909.04 1544.09 Q1912.68 1544.09 1914.48 1540.55 Q1916.31 1536.98 1916.31 1529.87 Q1916.31 1522.75 1914.48 1519.2 Q1912.68 1515.64 1909.04 1515.64 M1909.04 1511.93 Q1914.85 1511.93 1917.91 1516.54 Q1920.99 1521.12 1920.99 1529.87 Q1920.99 1538.6 1917.91 1543.21 Q1914.85 1547.79 1909.04 1547.79 Q1903.23 1547.79 1900.16 1543.21 Q1897.1 1538.6 1897.1 1529.87 Q1897.1 1521.12 1900.16 1516.54 Q1903.23 1511.93 1909.04 1511.93 Z" fill="#000000" fill-rule="evenodd" fill-opacity="1" /><path clip-path="url(#clip200)" d="M1930.02 1543.18 L1937.66 1543.18 L1937.66 1516.82 L1929.35 1518.49 L1929.35 1514.23 L1937.61 1512.56 L1942.28 1512.56 L1942.28 1543.18 L1949.92 1543.18 L1949.92 1547.12 L1930.02 1547.12 L1930.02 1543.18 Z" fill="#000000" fill-rule="evenodd" fill-opacity="1" /><path clip-path="url(#clip200)" d="M2202.73 1543.18 L2219.05 1543.18 L2219.05 1547.12 L2197.1 1547.12 L2197.1 1543.18 Q2199.77 1540.43 2204.35 1535.8 Q2208.96 1531.15 2210.14 1529.81 Q2212.38 1527.28 2213.26 1525.55 Q2214.16 1523.79 2214.16 1522.1 Q2214.16 1519.34 2212.22 1517.61 Q2210.3 1515.87 2207.2 1515.87 Q2205 1515.87 2202.54 1516.63 Q2200.11 1517.4 2197.34 1518.95 L2197.34 1514.23 Q2200.16 1513.09 2202.61 1512.51 Q2205.07 1511.93 2207.1 1511.93 Q2212.48 1511.93 2215.67 1514.62 Q2218.86 1517.31 2218.86 1521.8 Q2218.86 1523.93 2218.05 1525.85 Q2217.27 1527.74 2215.16 1530.34 Q2214.58 1531.01 2211.48 1534.23 Q2208.38 1537.42 2202.73 1543.18 Z" fill="#000000" fill-rule="evenodd" fill-opacity="1" /><path clip-path="url(#clip200)" d="M2238.86 1515.64 Q2235.25 1515.64 2233.42 1519.2 Q2231.62 1522.75 2231.62 1529.87 Q2231.62 1536.98 2233.42 1540.55 Q2235.25 1544.09 2238.86 1544.09 Q2242.5 1544.09 2244.3 1540.55 Q2246.13 1536.98 2246.13 1529.87 Q2246.13 1522.75 2244.3 1519.2 Q2242.5 1515.64 2238.86 1515.64 M2238.86 1511.93 Q2244.67 1511.93 2247.73 1516.54 Q2250.81 1521.12 2250.81 1529.87 Q2250.81 1538.6 2247.73 1543.21 Q2244.67 1547.79 2238.86 1547.79 Q2233.05 1547.79 2229.97 1543.21 Q2226.92 1538.6 2226.92 1529.87 Q2226.92 1521.12 2229.97 1516.54 Q2233.05 1511.93 2238.86 1511.93 Z" fill="#000000" fill-rule="evenodd" fill-opacity="1" /><path clip-path="url(#clip200)" d="M2259.84 1543.18 L2267.47 1543.18 L2267.47 1516.82 L2259.16 1518.49 L2259.16 1514.23 L2267.43 1512.56 L2272.1 1512.56 L2272.1 1543.18 L2279.74 1543.18 L2279.74 1547.12 L2259.84 1547.12 L2259.84 1543.18 Z" fill="#000000" fill-rule="evenodd" fill-opacity="1" /><path clip-path="url(#clip200)" d="M2299.19 1530.71 Q2295.85 1530.71 2293.93 1532.49 Q2292.03 1534.27 2292.03 1537.4 Q2292.03 1540.52 2293.93 1542.31 Q2295.85 1544.09 2299.19 1544.09 Q2302.52 1544.09 2304.44 1542.31 Q2306.36 1540.5 2306.36 1537.4 Q2306.36 1534.27 2304.44 1532.49 Q2302.54 1530.71 2299.19 1530.71 M2294.51 1528.72 Q2291.5 1527.98 2289.81 1525.92 Q2288.15 1523.86 2288.15 1520.89 Q2288.15 1516.75 2291.09 1514.34 Q2294.05 1511.93 2299.19 1511.93 Q2304.35 1511.93 2307.29 1514.34 Q2310.23 1516.75 2310.23 1520.89 Q2310.23 1523.86 2308.54 1525.92 Q2306.87 1527.98 2303.89 1528.72 Q2307.27 1529.5 2309.14 1531.8 Q2311.04 1534.09 2311.04 1537.4 Q2311.04 1542.42 2307.96 1545.11 Q2304.91 1547.79 2299.19 1547.79 Q2293.47 1547.79 2290.39 1545.11 Q2287.34 1542.42 2287.34 1537.4 Q2287.34 1534.09 2289.23 1531.8 Q2291.13 1529.5 2294.51 1528.72 M2292.8 1521.33 Q2292.8 1524.02 2294.47 1525.52 Q2296.16 1527.03 2299.19 1527.03 Q2302.2 1527.03 2303.89 1525.52 Q2305.6 1524.02 2305.6 1521.33 Q2305.6 1518.65 2303.89 1517.14 Q2302.2 1515.64 2299.19 1515.64 Q2296.16 1515.64 2294.47 1517.14 Q2292.8 1518.65 2292.8 1521.33 Z" fill="#000000" fill-rule="evenodd" fill-opacity="1" /><path clip-path="url(#clip200)" d="M2316.59 1532.24 L2329.07 1532.24 L2329.07 1536.03 L2316.59 1536.03 L2316.59 1532.24 Z" fill="#000000" fill-rule="evenodd" fill-opacity="1" /><path clip-path="url(#clip200)" d="M2346.46 1515.64 Q2342.84 1515.64 2341.02 1519.2 Q2339.21 1522.75 2339.21 1529.87 Q2339.21 1536.98 2341.02 1540.55 Q2342.84 1544.09 2346.46 1544.09 Q2350.09 1544.09 2351.9 1540.55 Q2353.72 1536.98 2353.72 1529.87 Q2353.72 1522.75 2351.9 1519.2 Q2350.09 1515.64 2346.46 1515.64 M2346.46 1511.93 Q2352.27 1511.93 2355.32 1516.54 Q2358.4 1521.12 2358.4 1529.87 Q2358.4 1538.6 2355.32 1543.21 Q2352.27 1547.79 2346.46 1547.79 Q2340.65 1547.79 2337.57 1543.21 Q2334.51 1538.6 2334.51 1529.87 Q2334.51 1521.12 2337.57 1516.54 Q2340.65 1511.93 2346.46 1511.93 Z" fill="#000000" fill-rule="evenodd" fill-opacity="1" /><path clip-path="url(#clip200)" d="M2367.43 1543.18 L2375.07 1543.18 L2375.07 1516.82 L2366.76 1518.49 L2366.76 1514.23 L2375.02 1512.56 L2379.7 1512.56 L2379.7 1543.18 L2387.34 1543.18 L2387.34 1547.12 L2367.43 1547.12 L2367.43 1543.18 Z" fill="#000000" fill-rule="evenodd" fill-opacity="1" /><path clip-path="url(#clip200)" d="M2394.03 1532.24 L2406.5 1532.24 L2406.5 1536.03 L2394.03 1536.03 L2394.03 1532.24 Z" fill="#000000" fill-rule="evenodd" fill-opacity="1" /><path clip-path="url(#clip200)" d="M2423.89 1515.64 Q2420.27 1515.64 2418.45 1519.2 Q2416.64 1522.75 2416.64 1529.87 Q2416.64 1536.98 2418.45 1540.55 Q2420.27 1544.09 2423.89 1544.09 Q2427.52 1544.09 2429.33 1540.55 Q2431.15 1536.98 2431.15 1529.87 Q2431.15 1522.75 2429.33 1519.2 Q2427.52 1515.64 2423.89 1515.64 M2423.89 1511.93 Q2429.7 1511.93 2432.75 1516.54 Q2435.83 1521.12 2435.83 1529.87 Q2435.83 1538.6 2432.75 1543.21 Q2429.7 1547.79 2423.89 1547.79 Q2418.08 1547.79 2415 1543.21 Q2411.94 1538.6 2411.94 1529.87 Q2411.94 1521.12 2415 1516.54 Q2418.08 1511.93 2423.89 1511.93 Z" fill="#000000" fill-rule="evenodd" fill-opacity="1" /><path clip-path="url(#clip200)" d="M2444.86 1543.18 L2452.5 1543.18 L2452.5 1516.82 L2444.19 1518.49 L2444.19 1514.23 L2452.45 1512.56 L2457.13 1512.56 L2457.13 1543.18 L2464.77 1543.18 L2464.77 1547.12 L2444.86 1547.12 L2444.86 1543.18 Z" fill="#000000" fill-rule="evenodd" fill-opacity="1" /><polyline clip-path="url(#clip202)" style="stroke:#000000; stroke-linecap:butt; stroke-linejoin:round; stroke-width:2; stroke-opacity:0.1; fill:none" points="
  186.274,1445.82 2352.76,1445.82 
  "/>
<polyline clip-path="url(#clip202)" style="stroke:#000000; stroke-linecap:butt; stroke-linejoin:round; stroke-width:2; stroke-opacity:0.1; fill:none" points="
  186.274,1204.09 2352.76,1204.09 
  "/>
<polyline clip-path="url(#clip202)" style="stroke:#000000; stroke-linecap:butt; stroke-linejoin:round; stroke-width:2; stroke-opacity:0.1; fill:none" points="
  186.274,962.347 2352.76,962.347 
  "/>
<polyline clip-path="url(#clip202)" style="stroke:#000000; stroke-linecap:butt; stroke-linejoin:round; stroke-width:2; stroke-opacity:0.1; fill:none" points="
  186.274,720.608 2352.76,720.608 
  "/>
<polyline clip-path="url(#clip202)" style="stroke:#000000; stroke-linecap:butt; stroke-linejoin:round; stroke-width:2; stroke-opacity:0.1; fill:none" points="
  186.274,478.87 2352.76,478.87 
  "/>
<polyline clip-path="url(#clip202)" style="stroke:#000000; stroke-linecap:butt; stroke-linejoin:round; stroke-width:2; stroke-opacity:0.1; fill:none" points="
  186.274,237.131 2352.76,237.131 
  "/>
<polyline clip-path="url(#clip200)" style="stroke:#000000; stroke-linecap:butt; stroke-linejoin:round; stroke-width:4; stroke-opacity:1; fill:none" points="
  186.274,1486.45 186.274,47.2441 
  "/>
<polyline clip-path="url(#clip200)" style="stroke:#000000; stroke-linecap:butt; stroke-linejoin:round; stroke-width:4; stroke-opacity:1; fill:none" points="
  186.274,1445.82 205.172,1445.82 
  "/>
<polyline clip-path="url(#clip200)" style="stroke:#000000; stroke-linecap:butt; stroke-linejoin:round; stroke-width:4; stroke-opacity:1; fill:none" points="
  186.274,1204.09 205.172,1204.09 
  "/>
<polyline clip-path="url(#clip200)" style="stroke:#000000; stroke-linecap:butt; stroke-linejoin:round; stroke-width:4; stroke-opacity:1; fill:none" points="
  186.274,962.347 205.172,962.347 
  "/>
<polyline clip-path="url(#clip200)" style="stroke:#000000; stroke-linecap:butt; stroke-linejoin:round; stroke-width:4; stroke-opacity:1; fill:none" points="
  186.274,720.608 205.172,720.608 
  "/>
<polyline clip-path="url(#clip200)" style="stroke:#000000; stroke-linecap:butt; stroke-linejoin:round; stroke-width:4; stroke-opacity:1; fill:none" points="
  186.274,478.87 205.172,478.87 
  "/>
<polyline clip-path="url(#clip200)" style="stroke:#000000; stroke-linecap:butt; stroke-linejoin:round; stroke-width:4; stroke-opacity:1; fill:none" points="
  186.274,237.131 205.172,237.131 
  "/>
<path clip-path="url(#clip200)" d="M62.9365 1431.62 Q59.3254 1431.62 57.4967 1435.19 Q55.6912 1438.73 55.6912 1445.86 Q55.6912 1452.97 57.4967 1456.53 Q59.3254 1460.07 62.9365 1460.07 Q66.5707 1460.07 68.3763 1456.53 Q70.205 1452.97 70.205 1445.86 Q70.205 1438.73 68.3763 1435.19 Q66.5707 1431.62 62.9365 1431.62 M62.9365 1427.92 Q68.7467 1427.92 71.8022 1432.53 Q74.8809 1437.11 74.8809 1445.86 Q74.8809 1454.59 71.8022 1459.19 Q68.7467 1463.78 62.9365 1463.78 Q57.1264 1463.78 54.0477 1459.19 Q50.9921 1454.59 50.9921 1445.86 Q50.9921 1437.11 54.0477 1432.53 Q57.1264 1427.92 62.9365 1427.92 Z" fill="#000000" fill-rule="evenodd" fill-opacity="1" /><path clip-path="url(#clip200)" d="M83.0984 1457.22 L87.9827 1457.22 L87.9827 1463.1 L83.0984 1463.1 L83.0984 1457.22 Z" fill="#000000" fill-rule="evenodd" fill-opacity="1" /><path clip-path="url(#clip200)" d="M108.168 1431.62 Q104.557 1431.62 102.728 1435.19 Q100.922 1438.73 100.922 1445.86 Q100.922 1452.97 102.728 1456.53 Q104.557 1460.07 108.168 1460.07 Q111.802 1460.07 113.608 1456.53 Q115.436 1452.97 115.436 1445.86 Q115.436 1438.73 113.608 1435.19 Q111.802 1431.62 108.168 1431.62 M108.168 1427.92 Q113.978 1427.92 117.033 1432.53 Q120.112 1437.11 120.112 1445.86 Q120.112 1454.59 117.033 1459.19 Q113.978 1463.78 108.168 1463.78 Q102.358 1463.78 99.2789 1459.19 Q96.2234 1454.59 96.2234 1445.86 Q96.2234 1437.11 99.2789 1432.53 Q102.358 1427.92 108.168 1427.92 Z" fill="#000000" fill-rule="evenodd" fill-opacity="1" /><path clip-path="url(#clip200)" d="M138.33 1431.62 Q134.719 1431.62 132.89 1435.19 Q131.084 1438.73 131.084 1445.86 Q131.084 1452.97 132.89 1456.53 Q134.719 1460.07 138.33 1460.07 Q141.964 1460.07 143.769 1456.53 Q145.598 1452.97 145.598 1445.86 Q145.598 1438.73 143.769 1435.19 Q141.964 1431.62 138.33 1431.62 M138.33 1427.92 Q144.14 1427.92 147.195 1432.53 Q150.274 1437.11 150.274 1445.86 Q150.274 1454.59 147.195 1459.19 Q144.14 1463.78 138.33 1463.78 Q132.519 1463.78 129.441 1459.19 Q126.385 1454.59 126.385 1445.86 Q126.385 1437.11 129.441 1432.53 Q132.519 1427.92 138.33 1427.92 Z" fill="#000000" fill-rule="evenodd" fill-opacity="1" /><path clip-path="url(#clip200)" d="M63.9319 1189.88 Q60.3208 1189.88 58.4921 1193.45 Q56.6865 1196.99 56.6865 1204.12 Q56.6865 1211.23 58.4921 1214.79 Q60.3208 1218.33 63.9319 1218.33 Q67.5661 1218.33 69.3717 1214.79 Q71.2004 1211.23 71.2004 1204.12 Q71.2004 1196.99 69.3717 1193.45 Q67.5661 1189.88 63.9319 1189.88 M63.9319 1186.18 Q69.742 1186.18 72.7976 1190.79 Q75.8763 1195.37 75.8763 1204.12 Q75.8763 1212.85 72.7976 1217.45 Q69.742 1222.04 63.9319 1222.04 Q58.1217 1222.04 55.043 1217.45 Q51.9875 1212.85 51.9875 1204.12 Q51.9875 1195.37 55.043 1190.79 Q58.1217 1186.18 63.9319 1186.18 Z" fill="#000000" fill-rule="evenodd" fill-opacity="1" /><path clip-path="url(#clip200)" d="M84.0938 1215.49 L88.978 1215.49 L88.978 1221.37 L84.0938 1221.37 L84.0938 1215.49 Z" fill="#000000" fill-rule="evenodd" fill-opacity="1" /><path clip-path="url(#clip200)" d="M109.163 1189.88 Q105.552 1189.88 103.723 1193.45 Q101.918 1196.99 101.918 1204.12 Q101.918 1211.23 103.723 1214.79 Q105.552 1218.33 109.163 1218.33 Q112.797 1218.33 114.603 1214.79 Q116.432 1211.23 116.432 1204.12 Q116.432 1196.99 114.603 1193.45 Q112.797 1189.88 109.163 1189.88 M109.163 1186.18 Q114.973 1186.18 118.029 1190.79 Q121.107 1195.37 121.107 1204.12 Q121.107 1212.85 118.029 1217.45 Q114.973 1222.04 109.163 1222.04 Q103.353 1222.04 100.274 1217.45 Q97.2187 1212.85 97.2187 1204.12 Q97.2187 1195.37 100.274 1190.79 Q103.353 1186.18 109.163 1186.18 Z" fill="#000000" fill-rule="evenodd" fill-opacity="1" /><path clip-path="url(#clip200)" d="M129.371 1186.81 L147.728 1186.81 L147.728 1190.74 L133.654 1190.74 L133.654 1199.21 Q134.672 1198.87 135.691 1198.7 Q136.709 1198.52 137.728 1198.52 Q143.515 1198.52 146.894 1201.69 Q150.274 1204.86 150.274 1210.28 Q150.274 1215.86 146.802 1218.96 Q143.33 1222.04 137.01 1222.04 Q134.834 1222.04 132.566 1221.67 Q130.32 1221.3 127.913 1220.56 L127.913 1215.86 Q129.996 1216.99 132.219 1217.55 Q134.441 1218.1 136.918 1218.1 Q140.922 1218.1 143.26 1216 Q145.598 1213.89 145.598 1210.28 Q145.598 1206.67 143.26 1204.56 Q140.922 1202.45 136.918 1202.45 Q135.043 1202.45 133.168 1202.87 Q131.316 1203.29 129.371 1204.17 L129.371 1186.81 Z" fill="#000000" fill-rule="evenodd" fill-opacity="1" /><path clip-path="url(#clip200)" d="M62.9365 948.146 Q59.3254 948.146 57.4967 951.71 Q55.6912 955.252 55.6912 962.382 Q55.6912 969.488 57.4967 973.053 Q59.3254 976.594 62.9365 976.594 Q66.5707 976.594 68.3763 973.053 Q70.205 969.488 70.205 962.382 Q70.205 955.252 68.3763 951.71 Q66.5707 948.146 62.9365 948.146 M62.9365 944.442 Q68.7467 944.442 71.8022 949.048 Q74.8809 953.632 74.8809 962.382 Q74.8809 971.108 71.8022 975.715 Q68.7467 980.298 62.9365 980.298 Q57.1264 980.298 54.0477 975.715 Q50.9921 971.108 50.9921 962.382 Q50.9921 953.632 54.0477 949.048 Q57.1264 944.442 62.9365 944.442 Z" fill="#000000" fill-rule="evenodd" fill-opacity="1" /><path clip-path="url(#clip200)" d="M83.0984 973.747 L87.9827 973.747 L87.9827 979.627 L83.0984 979.627 L83.0984 973.747 Z" fill="#000000" fill-rule="evenodd" fill-opacity="1" /><path clip-path="url(#clip200)" d="M98.978 975.692 L106.617 975.692 L106.617 949.326 L98.3067 950.993 L98.3067 946.734 L106.571 945.067 L111.246 945.067 L111.246 975.692 L118.885 975.692 L118.885 979.627 L98.978 979.627 L98.978 975.692 Z" fill="#000000" fill-rule="evenodd" fill-opacity="1" /><path clip-path="url(#clip200)" d="M138.33 948.146 Q134.719 948.146 132.89 951.71 Q131.084 955.252 131.084 962.382 Q131.084 969.488 132.89 973.053 Q134.719 976.594 138.33 976.594 Q141.964 976.594 143.769 973.053 Q145.598 969.488 145.598 962.382 Q145.598 955.252 143.769 951.71 Q141.964 948.146 138.33 948.146 M138.33 944.442 Q144.14 944.442 147.195 949.048 Q150.274 953.632 150.274 962.382 Q150.274 971.108 147.195 975.715 Q144.14 980.298 138.33 980.298 Q132.519 980.298 129.441 975.715 Q126.385 971.108 126.385 962.382 Q126.385 953.632 129.441 949.048 Q132.519 944.442 138.33 944.442 Z" fill="#000000" fill-rule="evenodd" fill-opacity="1" /><path clip-path="url(#clip200)" d="M63.9319 706.407 Q60.3208 706.407 58.4921 709.972 Q56.6865 713.513 56.6865 720.643 Q56.6865 727.749 58.4921 731.314 Q60.3208 734.856 63.9319 734.856 Q67.5661 734.856 69.3717 731.314 Q71.2004 727.749 71.2004 720.643 Q71.2004 713.513 69.3717 709.972 Q67.5661 706.407 63.9319 706.407 M63.9319 702.703 Q69.742 702.703 72.7976 707.31 Q75.8763 711.893 75.8763 720.643 Q75.8763 729.37 72.7976 733.976 Q69.742 738.56 63.9319 738.56 Q58.1217 738.56 55.043 733.976 Q51.9875 729.37 51.9875 720.643 Q51.9875 711.893 55.043 707.31 Q58.1217 702.703 63.9319 702.703 Z" fill="#000000" fill-rule="evenodd" fill-opacity="1" /><path clip-path="url(#clip200)" d="M84.0938 732.009 L88.978 732.009 L88.978 737.888 L84.0938 737.888 L84.0938 732.009 Z" fill="#000000" fill-rule="evenodd" fill-opacity="1" /><path clip-path="url(#clip200)" d="M99.9733 733.953 L107.612 733.953 L107.612 707.588 L99.3021 709.254 L99.3021 704.995 L107.566 703.328 L112.242 703.328 L112.242 733.953 L119.881 733.953 L119.881 737.888 L99.9733 737.888 L99.9733 733.953 Z" fill="#000000" fill-rule="evenodd" fill-opacity="1" /><path clip-path="url(#clip200)" d="M129.371 703.328 L147.728 703.328 L147.728 707.263 L133.654 707.263 L133.654 715.736 Q134.672 715.388 135.691 715.226 Q136.709 715.041 137.728 715.041 Q143.515 715.041 146.894 718.212 Q150.274 721.384 150.274 726.8 Q150.274 732.379 146.802 735.481 Q143.33 738.56 137.01 738.56 Q134.834 738.56 132.566 738.189 Q130.32 737.819 127.913 737.078 L127.913 732.379 Q129.996 733.513 132.219 734.069 Q134.441 734.624 136.918 734.624 Q140.922 734.624 143.26 732.518 Q145.598 730.411 145.598 726.8 Q145.598 723.189 143.26 721.083 Q140.922 718.976 136.918 718.976 Q135.043 718.976 133.168 719.393 Q131.316 719.81 129.371 720.689 L129.371 703.328 Z" fill="#000000" fill-rule="evenodd" fill-opacity="1" /><path clip-path="url(#clip200)" d="M62.9365 464.668 Q59.3254 464.668 57.4967 468.233 Q55.6912 471.775 55.6912 478.904 Q55.6912 486.011 57.4967 489.576 Q59.3254 493.117 62.9365 493.117 Q66.5707 493.117 68.3763 489.576 Q70.205 486.011 70.205 478.904 Q70.205 471.775 68.3763 468.233 Q66.5707 464.668 62.9365 464.668 M62.9365 460.965 Q68.7467 460.965 71.8022 465.571 Q74.8809 470.155 74.8809 478.904 Q74.8809 487.631 71.8022 492.238 Q68.7467 496.821 62.9365 496.821 Q57.1264 496.821 54.0477 492.238 Q50.9921 487.631 50.9921 478.904 Q50.9921 470.155 54.0477 465.571 Q57.1264 460.965 62.9365 460.965 Z" fill="#000000" fill-rule="evenodd" fill-opacity="1" /><path clip-path="url(#clip200)" d="M83.0984 490.27 L87.9827 490.27 L87.9827 496.15 L83.0984 496.15 L83.0984 490.27 Z" fill="#000000" fill-rule="evenodd" fill-opacity="1" /><path clip-path="url(#clip200)" d="M102.196 492.215 L118.515 492.215 L118.515 496.15 L96.5706 496.15 L96.5706 492.215 Q99.2326 489.46 103.816 484.83 Q108.422 480.178 109.603 478.835 Q111.848 476.312 112.728 474.576 Q113.631 472.817 113.631 471.127 Q113.631 468.372 111.686 466.636 Q109.765 464.9 106.663 464.9 Q104.464 464.9 102.01 465.664 Q99.5798 466.428 96.8021 467.979 L96.8021 463.256 Q99.6261 462.122 102.08 461.543 Q104.534 460.965 106.571 460.965 Q111.941 460.965 115.135 463.65 Q118.33 466.335 118.33 470.826 Q118.33 472.955 117.52 474.877 Q116.733 476.775 114.626 479.367 Q114.047 480.039 110.946 483.256 Q107.844 486.451 102.196 492.215 Z" fill="#000000" fill-rule="evenodd" fill-opacity="1" /><path clip-path="url(#clip200)" d="M138.33 464.668 Q134.719 464.668 132.89 468.233 Q131.084 471.775 131.084 478.904 Q131.084 486.011 132.89 489.576 Q134.719 493.117 138.33 493.117 Q141.964 493.117 143.769 489.576 Q145.598 486.011 145.598 478.904 Q145.598 471.775 143.769 468.233 Q141.964 464.668 138.33 464.668 M138.33 460.965 Q144.14 460.965 147.195 465.571 Q150.274 470.155 150.274 478.904 Q150.274 487.631 147.195 492.238 Q144.14 496.821 138.33 496.821 Q132.519 496.821 129.441 492.238 Q126.385 487.631 126.385 478.904 Q126.385 470.155 129.441 465.571 Q132.519 460.965 138.33 460.965 Z" fill="#000000" fill-rule="evenodd" fill-opacity="1" /><path clip-path="url(#clip200)" d="M63.9319 222.93 Q60.3208 222.93 58.4921 226.495 Q56.6865 230.036 56.6865 237.166 Q56.6865 244.272 58.4921 247.837 Q60.3208 251.379 63.9319 251.379 Q67.5661 251.379 69.3717 247.837 Q71.2004 244.272 71.2004 237.166 Q71.2004 230.036 69.3717 226.495 Q67.5661 222.93 63.9319 222.93 M63.9319 219.226 Q69.742 219.226 72.7976 223.833 Q75.8763 228.416 75.8763 237.166 Q75.8763 245.893 72.7976 250.499 Q69.742 255.082 63.9319 255.082 Q58.1217 255.082 55.043 250.499 Q51.9875 245.893 51.9875 237.166 Q51.9875 228.416 55.043 223.833 Q58.1217 219.226 63.9319 219.226 Z" fill="#000000" fill-rule="evenodd" fill-opacity="1" /><path clip-path="url(#clip200)" d="M84.0938 248.532 L88.978 248.532 L88.978 254.411 L84.0938 254.411 L84.0938 248.532 Z" fill="#000000" fill-rule="evenodd" fill-opacity="1" /><path clip-path="url(#clip200)" d="M103.191 250.476 L119.51 250.476 L119.51 254.411 L97.566 254.411 L97.566 250.476 Q100.228 247.721 104.811 243.092 Q109.418 238.439 110.598 237.096 Q112.844 234.573 113.723 232.837 Q114.626 231.078 114.626 229.388 Q114.626 226.634 112.682 224.897 Q110.76 223.161 107.658 223.161 Q105.459 223.161 103.006 223.925 Q100.575 224.689 97.7974 226.24 L97.7974 221.518 Q100.621 220.384 103.075 219.805 Q105.529 219.226 107.566 219.226 Q112.936 219.226 116.131 221.911 Q119.325 224.597 119.325 229.087 Q119.325 231.217 118.515 233.138 Q117.728 235.036 115.621 237.629 Q115.043 238.3 111.941 241.518 Q108.839 244.712 103.191 250.476 Z" fill="#000000" fill-rule="evenodd" fill-opacity="1" /><path clip-path="url(#clip200)" d="M129.371 219.851 L147.728 219.851 L147.728 223.786 L133.654 223.786 L133.654 232.259 Q134.672 231.911 135.691 231.749 Q136.709 231.564 137.728 231.564 Q143.515 231.564 146.894 234.735 Q150.274 237.907 150.274 243.323 Q150.274 248.902 146.802 252.004 Q143.33 255.082 137.01 255.082 Q134.834 255.082 132.566 254.712 Q130.32 254.342 127.913 253.601 L127.913 248.902 Q129.996 250.036 132.219 250.592 Q134.441 251.147 136.918 251.147 Q140.922 251.147 143.26 249.041 Q145.598 246.934 145.598 243.323 Q145.598 239.712 143.26 237.606 Q140.922 235.499 136.918 235.499 Q135.043 235.499 133.168 235.916 Q131.316 236.333 129.371 237.212 L129.371 219.851 Z" fill="#000000" fill-rule="evenodd" fill-opacity="1" /><polyline clip-path="url(#clip202)" style="stroke:#009af9; stroke-linecap:butt; stroke-linejoin:round; stroke-width:4; stroke-opacity:1; fill:none" points="
  247.59,1442.58 249,1439.92 250.411,1435.05 251.821,1441.17 253.232,1444.28 257.463,1444.39 258.874,1445.69 261.695,1445.35 263.105,1444.47 267.337,1445.03 
  268.747,1444.61 271.568,1434.36 272.979,1441.51 277.211,1438.07 278.621,1444.12 280.032,1438.65 281.442,1440.81 282.853,1441.34 287.084,1437.73 288.495,1443.45 
  289.905,1443.54 291.316,1441.81 292.726,1441.67 298.368,1437.16 299.779,1443.53 301.189,1426.03 302.6,1411.77 306.832,1429.45 308.242,1440.09 309.653,1408.55 
  311.063,1441.4 312.474,1399.95 316.705,1411.14 318.116,1433.81 319.526,1424.83 320.937,1442.94 322.347,1440.33 326.579,1443.23 327.989,1444.03 329.4,1440.45 
  330.811,1440.28 332.221,1443 337.863,1442.45 339.274,1437.49 340.684,1441.68 342.095,1441.29 346.326,1441.01 347.737,1438.1 349.147,1437.65 350.558,1439.36 
  351.968,1436.43 356.2,1417.01 357.61,1442.07 359.021,1441 360.432,1443.26 361.842,1437.3 366.074,1439.66 367.484,1438.34 368.895,1431.47 370.305,1429.02 
  371.716,1435.04 375.947,1441.38 377.358,1442.67 378.768,1423.15 380.179,1441.16 381.589,1436 385.821,1431.7 387.232,1439.24 388.642,1435.46 390.053,1429.23 
  391.463,1440.96 395.695,1441.74 397.105,1443.13 398.516,1442.54 399.926,1441.95 401.337,1428.05 405.568,1430.25 406.979,1437.61 408.389,1442.8 409.8,1419.76 
  411.21,1415.95 415.442,1435.77 416.853,1429.17 418.263,1439.02 419.674,1440.57 425.316,1443.58 426.726,1443.89 428.137,1441.9 429.547,1435.84 430.958,1434.74 
  435.189,1430.82 436.6,1442.06 438.01,1440.84 439.421,1440.81 440.831,1437.29 445.063,1427.3 446.474,1436.46 447.884,1427.75 449.295,1439.69 450.705,1438.52 
  454.937,1444.72 456.347,1443.38 457.758,1440.64 459.168,1430.58 460.579,1441.09 464.81,1443.88 466.221,1437.78 467.631,1443.34 469.042,1444.28 470.452,1445.26 
  476.095,1444.42 477.505,1443.6 478.916,1444.32 480.326,1443.54 484.558,1442.09 485.968,1443.25 487.379,1444.06 488.789,1443.39 490.2,1444.94 494.431,1444.06 
  495.842,1443.67 497.252,1439.56 498.663,1440.17 500.074,1442.35 504.305,1441.79 505.716,1442.55 507.126,1443.47 508.537,1443.7 509.947,1444.77 514.179,1443.86 
  515.589,1440.24 517,1443.41 518.41,1438.09 519.821,1442.87 524.052,1444.07 525.463,1444.27 526.873,1444.08 528.284,1445.25 533.926,1441.01 535.337,1434.94 
  536.747,1442.87 538.158,1423.84 539.568,1442.93 543.8,1444.9 545.21,1437.44 546.621,1443.45 548.031,1431.82 549.442,1444.5 553.673,1440.53 555.084,1444.69 
  556.495,1444.47 557.905,1444.03 559.316,1439.61 563.547,1440.46 564.958,1439.15 566.368,1438.01 567.779,1417.51 569.189,1430.81 573.421,1441.28 574.831,1419.54 
  576.242,1435.67 577.652,1432.03 579.063,1442.63 583.294,1443.04 584.705,1440.11 586.116,1444.04 587.526,1444.81 588.937,1428.9 593.168,1445.25 594.579,1445.37 
  595.989,1443.6 597.4,1444.15 598.81,1441.07 603.042,1444.69 604.452,1444.71 605.863,1444.05 607.273,1440.14 608.684,1444.44 614.326,1441.83 615.737,1443.11 
  617.147,1441.73 618.558,1441.56 622.789,1441.23 624.2,1437.03 625.61,1441 627.021,1441.71 628.431,1439.01 632.663,1440.68 634.073,1443.82 635.484,1432.23 
  636.894,1443.73 638.305,1441.6 642.537,1439.5 643.947,1438.15 645.358,1442.94 646.768,1428.25 648.179,1441.63 652.41,1414.02 653.821,1435.48 655.231,1424.23 
  656.642,1431.88 658.052,1439.38 662.284,1436.69 663.694,1416.62 665.105,1435.08 666.515,1412 667.926,1417.06 672.158,1404.12 673.568,1413 674.979,1284.54 
  676.389,1369.26 677.8,1429.04 682.031,1438.76 683.442,1442.97 684.852,1431.01 686.263,1435.63 687.673,1439.97 691.905,1435.84 693.315,1443.64 694.726,1433.59 
  696.137,1438.95 697.547,1442.6 701.779,1440.27 703.189,1438.61 704.6,1440.19 706.01,1442.34 707.421,1440.29 711.652,1444.5 713.063,1444.07 714.473,1440.65 
  715.884,1438.58 717.294,1443.34 721.526,1442.9 722.936,1444.66 724.347,1438.13 725.758,1441.99 727.168,1442.59 731.4,1444.52 732.81,1443.44 734.221,1445.08 
  737.042,1442.7 741.273,1434.5 742.684,1444.26 744.094,1444.59 745.505,1441.48 746.915,1443.17 751.147,1435.31 752.558,1407.37 753.968,1420.7 755.379,1433.97 
  756.789,1419.82 761.021,1410.48 762.431,1410.76 763.842,1423.73 765.252,1439.62 766.663,1438.65 770.894,1443.77 772.305,1443.25 773.715,1444.6 776.536,1445.06 
  780.768,1444.81 782.179,1442.84 783.589,1436.66 786.41,1428.75 790.642,1420.6 792.052,1414.63 793.463,1434.8 794.873,1442.75 796.284,1424.86 800.515,1424.56 
  801.926,1407.14 803.336,1404.4 804.747,1417.88 806.157,1437.12 811.8,1426.22 813.21,1429.12 814.621,1435.61 816.031,1438.65 820.263,1439.17 821.673,1406.18 
  823.084,1417.67 824.494,1427.91 825.905,1418.02 830.136,1423.24 831.547,1437.51 832.957,1423.88 834.368,1442.22 835.778,1433.04 840.01,1436.9 841.421,1439.78 
  842.831,1438.95 844.242,1443.57 845.652,1443.79 851.294,1441.72 852.705,1440.9 854.115,1438.14 855.526,1441.66 859.757,1442.11 861.168,1443.85 862.578,1442.64 
  863.989,1439.87 865.4,1441.93 869.631,1444.83 871.042,1437.47 872.452,1428.44 873.863,1443.11 875.273,1425.18 879.505,1443.05 880.915,1417.33 882.326,1436.79 
  883.736,1444.16 885.147,1430.4 889.378,1444.01 890.789,1432.92 892.199,1436.37 893.61,1436.32 895.021,1442.88 899.252,1441.89 900.663,1439.49 902.073,1428.52 
  903.484,1422.22 904.894,1438.32 909.126,1444.01 910.536,1430.51 911.947,1429.22 913.357,1441.72 918.999,1440.26 920.41,1440.92 921.821,1435.28 923.231,1439.03 
  924.642,1444.77 928.873,1442.47 930.284,1440.13 931.694,1443.15 933.105,1441.21 934.515,1423.34 938.747,1444.04 940.157,1440.91 941.568,1441.96 942.978,1441.8 
  944.389,1444.16 948.62,1439.65 950.031,1435.39 951.442,1434.56 952.852,1430.13 954.263,1442.02 958.494,1443.79 959.905,1435.43 961.315,1421.67 962.726,1439.39 
  964.136,1444.6 968.368,1440.51 969.778,1423.81 971.189,1439.22 972.599,1444.6 974.01,1442.31 978.242,1445.01 979.652,1443.03 981.063,1441.24 982.473,1444.23 
  983.884,1442.65 989.526,1435.71 990.936,1444.19 992.347,1439.93 993.757,1437.23 997.989,1436.87 999.399,1436.86 1000.81,1442.62 1002.22,1431.92 1003.63,1437.62 
  1007.86,1441.1 1009.27,1440.3 1010.68,1444.1 1012.09,1442.43 1013.5,1436.17 1017.74,1411.18 1019.15,1442.52 1020.56,1439.45 1021.97,1443.04 1023.38,1442 
  1027.61,1442.84 1029.02,1442.93 1030.43,1441.46 1031.84,1441.66 1033.25,1440.53 1037.48,1414.88 1038.89,1433.33 1040.3,1437.98 1041.72,1441.15 1047.36,1413.77 
  1048.77,1430.29 1050.18,1414.96 1051.59,1434.01 1053,1441.27 1057.23,1443.85 1058.64,1444.95 1060.05,1442.33 1061.46,1444.5 1062.87,1443.92 1067.1,1443.48 
  1068.52,1442.94 1069.93,1439.52 1071.34,1440.64 1072.75,1439.25 1076.98,1425.76 1078.39,1441.42 1079.8,1442.22 1081.21,1439.75 1082.62,1441.89 1086.85,1436.44 
  1088.26,1439.56 1089.67,1440.84 1091.08,1435.59 1092.49,1436.28 1096.73,1444.55 1098.14,1420.41 1099.55,1408.09 1100.96,1435.41 1102.37,1442.67 1106.6,1435.57 
  1108.01,1441.55 1109.42,1417.45 1110.83,1400.13 1112.24,1357.18 1116.47,87.9763 1117.88,1304.85 1119.29,1345.41 1120.7,1398.05 1122.12,1423.45 1126.35,1412.88 
  1127.76,1232.13 1129.17,1418.3 1130.58,1423.76 1131.99,1362.46 1137.63,1438.28 1139.04,1420.29 1140.45,1430.5 1141.86,1430.18 1146.09,1435.24 1147.5,1441.77 
  1148.92,1441.12 1150.33,1400.71 1151.74,1372.15 1155.97,1427.34 1157.38,1382.56 1158.79,1430.48 1160.2,1417.32 1161.61,1421.4 1165.84,1393.46 1167.25,1416.54 
  1168.66,1424.24 1170.07,1412.49 1171.48,1341.83 1175.72,1439.91 1177.13,1432.93 1178.54,1429.35 1179.95,1435.57 1181.36,1439.29 1185.59,1442.24 1187,1433.78 
  1188.41,1432.69 1189.82,1441.89 1191.23,1441.12 1195.46,1438.32 1196.87,1439.33 1198.28,1429.88 1199.69,1440.79 1201.1,1439.64 1205.34,1441.67 1206.75,1435.33 
  1208.16,1418.86 1209.57,1439.74 1210.98,1437.53 1215.21,1443.81 1216.62,1440.69 1218.03,1435.59 1219.44,1437 1220.85,1435.77 1225.08,1424.94 1226.49,1439.35 
  1227.9,1439.16 1229.31,1418.5 1230.73,1431.74 1234.96,1440.11 1236.37,1431.23 1237.78,1440.27 1239.19,1440.83 1240.6,1441.83 1244.83,1441.45 1246.24,1433.84 
  1247.65,1443.69 1250.47,1444.38 1254.7,1440.53 1256.11,1440.34 1257.53,1436.88 1258.94,1423.5 1260.35,1437.96 1264.58,1427.35 1265.99,1389.99 1267.4,1421.93 
  1268.81,1434.93 1270.22,1393.93 1274.45,1410.82 1275.86,1438.13 1277.27,1433.47 1278.68,1417.4 1280.09,1413.16 1284.33,1433.31 1285.74,1438.77 1287.15,1443.68 
  1288.56,1443.3 1294.2,1436.5 1295.61,1443.73 1297.02,1438.82 1298.43,1428.7 1304.07,1296.12 1305.48,1432.99 1306.89,1365.08 1308.3,1297.18 1309.71,1404.81 
  1313.95,1410.64 1315.36,1416.37 1316.77,1378.64 1318.18,1413.13 1319.59,1238.75 1325.23,1399.21 1326.64,1320.5 1328.05,1381.63 1329.46,1433.86 1333.69,1421.82 
  1335.1,1428.08 1336.51,1376.1 1337.93,1399.9 1339.34,1438.62 1343.57,1410.83 1344.98,1398.75 1346.39,1387.07 1347.8,1406.87 1349.21,1400.17 1353.44,1352.92 
  1354.85,1375.53 1356.26,1407.53 1357.67,1350.13 1359.08,1436.08 1364.73,1435.69 1366.14,1439.93 1367.55,1433.84 1368.96,1426.09 1373.19,1441.75 1374.6,1429.89 
  1376.01,1387.28 1377.42,1432.42 1378.83,1432.5 1383.06,1431.64 1384.47,1440.69 1385.88,1435.44 1387.29,1438.64 1388.7,1437.25 1392.94,1432.95 1394.35,1421.78 
  1395.76,1431.65 1397.17,1417.93 1398.58,1443.48 1402.81,1440.46 1404.22,1435.81 1405.63,1435.31 1407.04,1441.2 1408.45,1441.21 1412.68,1442.11 1414.09,1438.47 
  1415.5,1439.25 1416.91,1433.18 1422.56,1442.06 1423.97,1441.49 1425.38,1441.74 1426.79,1441.86 1428.2,1431.54 1432.43,1440.03 1433.84,1422.19 1435.25,1441.32 
  1436.66,1424.17 1438.07,1437.32 1442.3,1436.29 1443.71,1440.5 1445.13,1441.82 1446.54,1441.95 1447.95,1444.17 1452.18,1441.98 1453.59,1441.77 1455,1441.78 
  1456.41,1439.45 1457.82,1440.57 1462.05,1440.78 1463.46,1441.58 1464.87,1440.85 1466.28,1433.94 1467.69,1433.38 1471.93,1440.9 1473.34,1426.6 1474.75,1434.82 
  1476.16,1437.17 1477.57,1435.73 1481.8,1440.2 1483.21,1444.78 1484.62,1438.02 1486.03,1434.53 1487.44,1435.28 1491.67,1443.04 1493.08,1434 1494.49,1418.51 
  1495.9,1427.36 1497.31,1442.41 1501.55,1442.68 1502.96,1444.68 1504.37,1443.48 1505.78,1442.7 1507.19,1444.4 1512.83,1440.9 1514.24,1436.42 1515.65,1440.36 
  1517.06,1435.38 1521.29,1443.03 1522.7,1444 1524.11,1443.8 1525.53,1439.63 1526.94,1432.62 1531.17,1437.65 1532.58,1436.29 1533.99,1438.04 1535.4,1434.11 
  1536.81,1436.71 1541.04,1438.92 1542.45,1440.28 1543.86,1437.64 1545.27,1443.42 1546.68,1163.79 1550.91,1401.44 1552.33,1437.75 1553.74,1441.46 1555.15,1439.79 
  1556.56,1442.42 1562.2,1439.17 1563.61,1434.72 1565.02,1437.98 1566.43,1444.18 1570.66,1442.77 1572.07,1443.78 1573.48,1442.38 1574.89,1442.74 1576.3,1443.12 
  1580.54,1444.33 1581.95,1444.14 1583.36,1444.96 1584.77,1442.5 1586.18,1444.57 1590.41,1442.61 1591.82,1439.31 1593.23,1439.73 1594.64,1439.12 1596.05,1442.38 
  1600.28,1440.51 1601.69,1438.91 1603.1,1443.83 1604.51,1442.84 1605.93,1445.19 1610.16,1444.13 1611.57,1444.36 1612.98,1442.53 1614.39,1444.27 1615.8,1444.46 
  1620.03,1445.31 1621.44,1441.95 1622.85,1442.62 1624.26,1444.62 1625.67,1441.01 1629.9,1439.89 1631.31,1444.45 1632.73,1442.19 1634.14,1442.16 1635.55,1436.53 
  1639.78,1445.14 1641.19,1441.91 1642.6,1442.22 1644.01,1438.97 1645.42,1442.38 1651.06,1443.04 1652.47,1444.06 1653.88,1443.73 1655.29,1428.99 1659.53,1438.22 
  1660.94,1418.08 1662.35,1435.5 1663.76,1439.53 1665.17,1431.03 1669.4,1438.74 1670.81,1440.1 1672.22,1440.63 1673.63,1441.52 1675.04,1442.33 1679.27,1438.91 
  1680.68,1441.91 1682.09,1441.57 1683.5,1431.65 1684.91,1440.37 1689.15,1441.29 1690.56,1431.15 1691.97,1443.12 1693.38,1441.92 1694.79,1438.13 1699.02,1444.76 
  1700.43,1433.9 1701.84,1441.48 1703.25,1435.31 1704.66,1439.83 1708.89,1441.49 1710.3,1442.38 1711.71,1444.47 1713.13,1438.48 1714.54,1439.34 1718.77,1443.92 
  1720.18,1442.29 1721.59,1441.25 1723,1439.4 1724.41,1430.32 1728.64,1441.82 1730.05,1436.96 1731.46,1433.89 1732.87,1440.5 1734.28,1439.7 1738.51,1444.45 
  1739.93,1438.55 1741.34,1420.38 1742.75,1419.99 1744.16,1437.35 1748.39,1439.37 1749.8,1443.66 1751.21,1442.06 1752.62,1444.69 1754.03,1442.78 1758.26,1444.91 
  1759.67,1443.56 1761.08,1444.28 1763.9,1445.72 1768.14,1442.65 1769.55,1443.54 1770.96,1439.14 1772.37,1440.1 1773.78,1442.69 1778.01,1444.23 1779.42,1444.1 
  1780.83,1443.2 1782.24,1441.87 1783.65,1444.47 1787.88,1442.17 1789.29,1443.39 1790.7,1421.99 1792.11,1440.12 1793.53,1439.78 1797.76,1443.92 1799.17,1444.09 
  1800.58,1444.52 1801.99,1444.06 1803.4,1445.31 1809.04,1445.06 1810.45,1441.13 1811.86,1443.5 1813.27,1439.88 1818.91,1439.26 1820.33,1443.75 1821.74,1442.49 
  1823.15,1442 1827.38,1443.42 1828.79,1442.5 1830.2,1438.91 1831.61,1439.15 1833.02,1444.32 1838.66,1443.57 1840.07,1442.62 1841.48,1441.15 1842.89,1441.35 
  1847.12,1440.94 1848.54,1444.74 1849.95,1444.26 1851.36,1443.43 1852.77,1443.78 1857,1439.76 1858.41,1441.19 1859.82,1439.82 1861.23,1442.34 1862.64,1444.26 
  1866.87,1444.2 1868.28,1443.79 1869.69,1443.67 1871.1,1444.95 1872.51,1444.96 1876.75,1444.96 1878.16,1444.07 1879.57,1444.15 1880.98,1439.35 1882.39,1443.92 
  1888.03,1443.32 1889.44,1444.21 1890.85,1443.02 1892.26,1443.24 1896.49,1444.1 1897.9,1443.74 1899.31,1443.99 1900.72,1441.14 1902.14,1443.41 1906.37,1443.38 
  1907.78,1443.09 1909.19,1442.2 1910.6,1442.63 1912.01,1442.42 1916.24,1444.77 1917.65,1441.94 1919.06,1443.66 1920.47,1442.46 1921.88,1443.84 1926.11,1441.8 
  1927.52,1431.27 1928.94,1440.83 1930.35,1438.95 1931.76,1439.9 1935.99,1441.66 1937.4,1443.11 1938.81,1443.4 1940.22,1443.64 1941.63,1442.51 1945.86,1439.17 
  1947.27,1443.02 1948.68,1433.6 1950.09,1440.3 1951.5,1441 1955.74,1438.77 1957.15,1436.99 1958.56,1440.07 1959.97,1439.26 1965.61,1444.21 1967.02,1441.04 
  1968.43,1442.4 1969.84,1443.43 1971.25,1442.13 1975.48,1444.28 1976.89,1444.88 1978.3,1439.68 1979.71,1443.15 1981.12,1442.68 1985.36,1443.99 1986.77,1444.18 
  1988.18,1443.55 1989.59,1442.03 1991,1444.67 1995.23,1443.71 1996.64,1443.69 1998.05,1444.59 1999.46,1443.11 2000.87,1444.33 2005.1,1445.16 2006.51,1443.38 
  2007.92,1435.49 2009.34,1438.58 2010.75,1442.68 2014.98,1444.52 2016.39,1444.48 2017.8,1444.78 2019.21,1444.26 2020.62,1444.92 2026.26,1445.04 2027.67,1441.25 
  2029.08,1444.56 2030.49,1443.96 2034.72,1444.49 2036.14,1443.37 2037.55,1443.56 2038.96,1442.44 2040.37,1435.92 2044.6,1441.34 2046.01,1444.24 2047.42,1439.21 
  2048.83,1442.29 2050.24,1442.79 2054.47,1445.23 2055.88,1442.39 2057.29,1442.58 2058.7,1443.8 2060.11,1444.26 2064.35,1441.98 2065.76,1439.35 2067.17,1443.5 
  2068.58,1432.99 2069.99,1438.95 2074.22,1442.5 2077.04,1442.52 2078.45,1439.76 2079.86,1444.46 2084.09,1444.53 2085.5,1440.23 2086.91,1444.05 2088.32,1444.69 
  2089.74,1444.93 2093.97,1444.98 2095.38,1443.53 2096.79,1445.17 2098.2,1443.48 2099.61,1444.9 2103.84,1444.65 2105.25,1444.89 2106.66,1444.24 2108.07,1439.01 
  2109.48,1444.11 2113.71,1443.4 2115.12,1443.76 2116.54,1441.2 2117.95,1443.5 2119.36,1443.56 2123.59,1445.41 2125,1442.82 2126.41,1442.46 2127.82,1435.65 
  2129.23,1442.07 2133.46,1444.39 2134.87,1443.47 2136.28,1442.82 2137.69,1435.03 2139.1,1439.45 2143.34,1442.61 2144.75,1445.03 2146.16,1442.99 2147.57,1440.88 
  2148.98,1442.74 2153.21,1443.51 2154.62,1444.68 2156.03,1444.23 2157.44,1444.22 2158.85,1444.19 2164.49,1435.5 2165.9,1443.78 2167.31,1442.35 2168.72,1444.25 
  2172.96,1445.11 2174.37,1444.9 2175.78,1445.18 2177.19,1444.87 2178.6,1445.16 2182.83,1444.63 2184.24,1444.64 2185.65,1443.5 2187.06,1443.34 2188.47,1445.24 
  2192.7,1441.99 2194.11,1443.82 2195.52,1443.56 2196.94,1444.96 2198.35,1445.08 2202.58,1444.74 2203.99,1444.71 2205.4,1444.7 2206.81,1445.19 2208.22,1444.66 
  2212.45,1444.65 2213.86,1444.19 2215.27,1445.01 2216.68,1444.71 2218.09,1444.75 2222.32,1445.14 2223.74,1445.27 2225.15,1444.87 2226.56,1444.95 2227.97,1445.21 
  2232.2,1444.02 2233.61,1444.11 2235.02,1439.18 2236.43,1442.97 2237.84,1443.58 2242.07,1442.89 2243.48,1444.68 2244.89,1443.21 2246.3,1441.02 2247.71,1444.73 
  2251.95,1445.13 2253.36,1443.44 2254.77,1444.6 2256.18,1438.55 2257.59,1444.1 2261.82,1444.85 2263.23,1440.6 2264.64,1438.14 2266.05,1445.04 2267.46,1444.11 
  2271.69,1444.82 2273.1,1445.3 2274.51,1444.92 2277.34,1445.59 2281.57,1444.66 2282.98,1444.17 2284.39,1441.48 2285.8,1441.02 2287.21,1416.15 2291.44,1439.15 
  
  "/>
</svg>
