<?xml version="1.0" encoding="utf-8"?>
<svg xmlns="http://www.w3.org/2000/svg" xmlns:xlink="http://www.w3.org/1999/xlink" width="600" height="400" viewBox="0 0 2400 1600">
<defs>
  <clipPath id="clip680">
    <rect x="0" y="0" width="2400" height="1600"/>
  </clipPath>
</defs>
<path clip-path="url(#clip680)" d="
M0 1600 L2400 1600 L2400 0 L0 0  Z
  " fill="#ffffff" fill-rule="evenodd" fill-opacity="1"/>
<defs>
  <clipPath id="clip681">
    <rect x="480" y="0" width="1681" height="1600"/>
  </clipPath>
</defs>
<path clip-path="url(#clip680)" d="
M136.76 1486.45 L2352.76 1486.45 L2352.76 47.2441 L136.76 47.2441  Z
  " fill="#ffffff" fill-rule="evenodd" fill-opacity="1"/>
<defs>
  <clipPath id="clip682">
    <rect x="136" y="47" width="2217" height="1440"/>
  </clipPath>
</defs>
<polyline clip-path="url(#clip682)" style="stroke:#000000; stroke-width:2; stroke-opacity:0.1; fill:none" points="
  222.561,1486.45 222.561,47.2441 
  "/>
<polyline clip-path="url(#clip682)" style="stroke:#000000; stroke-width:2; stroke-opacity:0.1; fill:none" points="
  749.169,1486.45 749.169,47.2441 
  "/>
<polyline clip-path="url(#clip682)" style="stroke:#000000; stroke-width:2; stroke-opacity:0.1; fill:none" points="
  1275.78,1486.45 1275.78,47.2441 
  "/>
<polyline clip-path="url(#clip682)" style="stroke:#000000; stroke-width:2; stroke-opacity:0.1; fill:none" points="
  1803.83,1486.45 1803.83,47.2441 
  "/>
<polyline clip-path="url(#clip682)" style="stroke:#000000; stroke-width:2; stroke-opacity:0.1; fill:none" points="
  2330.44,1486.45 2330.44,47.2441 
  "/>
<polyline clip-path="url(#clip682)" style="stroke:#000000; stroke-width:2; stroke-opacity:0.1; fill:none" points="
  136.76,1446.1 2352.76,1446.1 
  "/>
<polyline clip-path="url(#clip682)" style="stroke:#000000; stroke-width:2; stroke-opacity:0.1; fill:none" points="
  136.76,1082.21 2352.76,1082.21 
  "/>
<polyline clip-path="url(#clip682)" style="stroke:#000000; stroke-width:2; stroke-opacity:0.1; fill:none" points="
  136.76,718.311 2352.76,718.311 
  "/>
<polyline clip-path="url(#clip682)" style="stroke:#000000; stroke-width:2; stroke-opacity:0.1; fill:none" points="
  136.76,354.417 2352.76,354.417 
  "/>
<polyline clip-path="url(#clip680)" style="stroke:#000000; stroke-width:4; stroke-opacity:1; fill:none" points="
  136.76,1486.45 2352.76,1486.45 
  "/>
<polyline clip-path="url(#clip680)" style="stroke:#000000; stroke-width:4; stroke-opacity:1; fill:none" points="
  136.76,1486.45 136.76,47.2441 
  "/>
<polyline clip-path="url(#clip680)" style="stroke:#000000; stroke-width:4; stroke-opacity:1; fill:none" points="
  222.561,1486.45 222.561,1469.18 
  "/>
<polyline clip-path="url(#clip680)" style="stroke:#000000; stroke-width:4; stroke-opacity:1; fill:none" points="
  749.169,1486.45 749.169,1469.18 
  "/>
<polyline clip-path="url(#clip680)" style="stroke:#000000; stroke-width:4; stroke-opacity:1; fill:none" points="
  1275.78,1486.45 1275.78,1469.18 
  "/>
<polyline clip-path="url(#clip680)" style="stroke:#000000; stroke-width:4; stroke-opacity:1; fill:none" points="
  1803.83,1486.45 1803.83,1469.18 
  "/>
<polyline clip-path="url(#clip680)" style="stroke:#000000; stroke-width:4; stroke-opacity:1; fill:none" points="
  2330.44,1486.45 2330.44,1469.18 
  "/>
<polyline clip-path="url(#clip680)" style="stroke:#000000; stroke-width:4; stroke-opacity:1; fill:none" points="
  136.76,1446.1 163.352,1446.1 
  "/>
<polyline clip-path="url(#clip680)" style="stroke:#000000; stroke-width:4; stroke-opacity:1; fill:none" points="
  136.76,1082.21 163.352,1082.21 
  "/>
<polyline clip-path="url(#clip680)" style="stroke:#000000; stroke-width:4; stroke-opacity:1; fill:none" points="
  136.76,718.311 163.352,718.311 
  "/>
<polyline clip-path="url(#clip680)" style="stroke:#000000; stroke-width:4; stroke-opacity:1; fill:none" points="
  136.76,354.417 163.352,354.417 
  "/>
<path clip-path="url(#clip680)" d="M 0 0 M109.472 1543.18 L125.791 1543.18 L125.791 1547.12 L103.847 1547.12 L103.847 1543.18 Q106.509 1540.43 111.092 1535.8 Q115.699 1531.15 116.879 1529.81 Q119.124 1527.28 120.004 1525.55 Q120.907 1523.79 120.907 1522.1 Q120.907 1519.34 118.962 1517.61 Q117.041 1515.87 113.939 1515.87 Q111.74 1515.87 109.287 1516.63 Q106.856 1517.4 104.078 1518.95 L104.078 1514.23 Q106.902 1513.09 109.356 1512.51 Q111.81 1511.93 113.847 1511.93 Q119.217 1511.93 122.411 1514.62 Q125.606 1517.31 125.606 1521.8 Q125.606 1523.93 124.796 1525.85 Q124.009 1527.74 121.902 1530.34 Q121.324 1531.01 118.222 1534.23 Q115.12 1537.42 109.472 1543.18 Z" fill="#000000" fill-rule="evenodd" fill-opacity="1" /><path clip-path="url(#clip680)" d="M 0 0 M140.86 1515.64 Q137.249 1515.64 135.421 1519.2 Q133.615 1522.75 133.615 1529.87 Q133.615 1536.98 135.421 1540.55 Q137.249 1544.09 140.86 1544.09 Q144.495 1544.09 146.3 1540.55 Q148.129 1536.98 148.129 1529.87 Q148.129 1522.75 146.3 1519.2 Q144.495 1515.64 140.86 1515.64 M140.86 1511.93 Q146.671 1511.93 149.726 1516.54 Q152.805 1521.12 152.805 1529.87 Q152.805 1538.6 149.726 1543.21 Q146.671 1547.79 140.86 1547.79 Q135.05 1547.79 131.972 1543.21 Q128.916 1538.6 128.916 1529.87 Q128.916 1521.12 131.972 1516.54 Q135.05 1511.93 140.86 1511.93 Z" fill="#000000" fill-rule="evenodd" fill-opacity="1" /><path clip-path="url(#clip680)" d="M 0 0 M158.684 1543.18 L166.323 1543.18 L166.323 1516.82 L158.013 1518.49 L158.013 1514.23 L166.277 1512.56 L170.953 1512.56 L170.953 1543.18 L178.592 1543.18 L178.592 1547.12 L158.684 1547.12 L158.684 1543.18 Z" fill="#000000" fill-rule="evenodd" fill-opacity="1" /><path clip-path="url(#clip680)" d="M 0 0 M196.508 1516.63 L184.703 1535.08 L196.508 1535.08 L196.508 1516.63 M195.281 1512.56 L201.161 1512.56 L201.161 1535.08 L206.092 1535.08 L206.092 1538.97 L201.161 1538.97 L201.161 1547.12 L196.508 1547.12 L196.508 1538.97 L180.907 1538.97 L180.907 1534.46 L195.281 1512.56 Z" fill="#000000" fill-rule="evenodd" fill-opacity="1" /><path clip-path="url(#clip680)" d="M 0 0 M208.406 1532.24 L220.883 1532.24 L220.883 1536.03 L208.406 1536.03 L208.406 1532.24 Z" fill="#000000" fill-rule="evenodd" fill-opacity="1" /><path clip-path="url(#clip680)" d="M 0 0 M235.953 1515.64 Q232.341 1515.64 230.513 1519.2 Q228.707 1522.75 228.707 1529.87 Q228.707 1536.98 230.513 1540.55 Q232.341 1544.09 235.953 1544.09 Q239.587 1544.09 241.392 1540.55 Q243.221 1536.98 243.221 1529.87 Q243.221 1522.75 241.392 1519.2 Q239.587 1515.64 235.953 1515.64 M235.953 1511.93 Q241.763 1511.93 244.818 1516.54 Q247.897 1521.12 247.897 1529.87 Q247.897 1538.6 244.818 1543.21 Q241.763 1547.79 235.953 1547.79 Q230.142 1547.79 227.064 1543.21 Q224.008 1538.6 224.008 1529.87 Q224.008 1521.12 227.064 1516.54 Q230.142 1511.93 235.953 1511.93 Z" fill="#000000" fill-rule="evenodd" fill-opacity="1" /><path clip-path="url(#clip680)" d="M 0 0 M253.777 1543.18 L261.415 1543.18 L261.415 1516.82 L253.105 1518.49 L253.105 1514.23 L261.369 1512.56 L266.045 1512.56 L266.045 1543.18 L273.684 1543.18 L273.684 1547.12 L253.777 1547.12 L253.777 1543.18 Z" fill="#000000" fill-rule="evenodd" fill-opacity="1" /><path clip-path="url(#clip680)" d="M 0 0 M275.999 1532.24 L288.475 1532.24 L288.475 1536.03 L275.999 1536.03 L275.999 1532.24 Z" fill="#000000" fill-rule="evenodd" fill-opacity="1" /><path clip-path="url(#clip680)" d="M 0 0 M303.545 1515.64 Q299.934 1515.64 298.105 1519.2 Q296.299 1522.75 296.299 1529.87 Q296.299 1536.98 298.105 1540.55 Q299.934 1544.09 303.545 1544.09 Q307.179 1544.09 308.985 1540.55 Q310.813 1536.98 310.813 1529.87 Q310.813 1522.75 308.985 1519.2 Q307.179 1515.64 303.545 1515.64 M303.545 1511.93 Q309.355 1511.93 312.41 1516.54 Q315.489 1521.12 315.489 1529.87 Q315.489 1538.6 312.41 1543.21 Q309.355 1547.79 303.545 1547.79 Q297.735 1547.79 294.656 1543.21 Q291.6 1538.6 291.6 1529.87 Q291.6 1521.12 294.656 1516.54 Q297.735 1511.93 303.545 1511.93 Z" fill="#000000" fill-rule="evenodd" fill-opacity="1" /><path clip-path="url(#clip680)" d="M 0 0 M321.369 1543.18 L329.008 1543.18 L329.008 1516.82 L320.697 1518.49 L320.697 1514.23 L328.961 1512.56 L333.637 1512.56 L333.637 1543.18 L341.276 1543.18 L341.276 1547.12 L321.369 1547.12 L321.369 1543.18 Z" fill="#000000" fill-rule="evenodd" fill-opacity="1" /><path clip-path="url(#clip680)" d="M 0 0 M636.821 1543.18 L653.14 1543.18 L653.14 1547.12 L631.196 1547.12 L631.196 1543.18 Q633.858 1540.43 638.441 1535.8 Q643.047 1531.15 644.228 1529.81 Q646.473 1527.28 647.353 1525.55 Q648.256 1523.79 648.256 1522.1 Q648.256 1519.34 646.311 1517.61 Q644.39 1515.87 641.288 1515.87 Q639.089 1515.87 636.635 1516.63 Q634.205 1517.4 631.427 1518.95 L631.427 1514.23 Q634.251 1513.09 636.705 1512.51 Q639.158 1511.93 641.196 1511.93 Q646.566 1511.93 649.76 1514.62 Q652.955 1517.31 652.955 1521.8 Q652.955 1523.93 652.145 1525.85 Q651.357 1527.74 649.251 1530.34 Q648.672 1531.01 645.57 1534.23 Q642.469 1537.42 636.821 1543.18 Z" fill="#000000" fill-rule="evenodd" fill-opacity="1" /><path clip-path="url(#clip680)" d="M 0 0 M668.209 1515.64 Q664.598 1515.64 662.769 1519.2 Q660.964 1522.75 660.964 1529.87 Q660.964 1536.98 662.769 1540.55 Q664.598 1544.09 668.209 1544.09 Q671.843 1544.09 673.649 1540.55 Q675.478 1536.98 675.478 1529.87 Q675.478 1522.75 673.649 1519.2 Q671.843 1515.64 668.209 1515.64 M668.209 1511.93 Q674.019 1511.93 677.075 1516.54 Q680.154 1521.12 680.154 1529.87 Q680.154 1538.6 677.075 1543.21 Q674.019 1547.79 668.209 1547.79 Q662.399 1547.79 659.32 1543.21 Q656.265 1538.6 656.265 1529.87 Q656.265 1521.12 659.32 1516.54 Q662.399 1511.93 668.209 1511.93 Z" fill="#000000" fill-rule="evenodd" fill-opacity="1" /><path clip-path="url(#clip680)" d="M 0 0 M686.033 1543.18 L693.672 1543.18 L693.672 1516.82 L685.362 1518.49 L685.362 1514.23 L693.626 1512.56 L698.302 1512.56 L698.302 1543.18 L705.941 1543.18 L705.941 1547.12 L686.033 1547.12 L686.033 1543.18 Z" fill="#000000" fill-rule="evenodd" fill-opacity="1" /><path clip-path="url(#clip680)" d="M 0 0 M711.056 1512.56 L729.413 1512.56 L729.413 1516.5 L715.339 1516.5 L715.339 1524.97 Q716.357 1524.62 717.376 1524.46 Q718.394 1524.27 719.413 1524.27 Q725.2 1524.27 728.579 1527.44 Q731.959 1530.62 731.959 1536.03 Q731.959 1541.61 728.487 1544.71 Q725.015 1547.79 718.695 1547.79 Q716.519 1547.79 714.251 1547.42 Q712.005 1547.05 709.598 1546.31 L709.598 1541.61 Q711.681 1542.74 713.903 1543.3 Q716.126 1543.86 718.603 1543.86 Q722.607 1543.86 724.945 1541.75 Q727.283 1539.64 727.283 1536.03 Q727.283 1532.42 724.945 1530.31 Q722.607 1528.21 718.603 1528.21 Q716.728 1528.21 714.853 1528.62 Q713.001 1529.04 711.056 1529.92 L711.056 1512.56 Z" fill="#000000" fill-rule="evenodd" fill-opacity="1" /><path clip-path="url(#clip680)" d="M 0 0 M734.274 1532.24 L746.751 1532.24 L746.751 1536.03 L734.274 1536.03 L734.274 1532.24 Z" fill="#000000" fill-rule="evenodd" fill-opacity="1" /><path clip-path="url(#clip680)" d="M 0 0 M761.82 1515.64 Q758.209 1515.64 756.38 1519.2 Q754.575 1522.75 754.575 1529.87 Q754.575 1536.98 756.38 1540.55 Q758.209 1544.09 761.82 1544.09 Q765.454 1544.09 767.26 1540.55 Q769.088 1536.98 769.088 1529.87 Q769.088 1522.75 767.26 1519.2 Q765.454 1515.64 761.82 1515.64 M761.82 1511.93 Q767.63 1511.93 770.686 1516.54 Q773.764 1521.12 773.764 1529.87 Q773.764 1538.6 770.686 1543.21 Q767.63 1547.79 761.82 1547.79 Q756.01 1547.79 752.931 1543.21 Q749.875 1538.6 749.875 1529.87 Q749.875 1521.12 752.931 1516.54 Q756.01 1511.93 761.82 1511.93 Z" fill="#000000" fill-rule="evenodd" fill-opacity="1" /><path clip-path="url(#clip680)" d="M 0 0 M779.644 1543.18 L787.283 1543.18 L787.283 1516.82 L778.973 1518.49 L778.973 1514.23 L787.236 1512.56 L791.912 1512.56 L791.912 1543.18 L799.551 1543.18 L799.551 1547.12 L779.644 1547.12 L779.644 1543.18 Z" fill="#000000" fill-rule="evenodd" fill-opacity="1" /><path clip-path="url(#clip680)" d="M 0 0 M801.866 1532.24 L814.343 1532.24 L814.343 1536.03 L801.866 1536.03 L801.866 1532.24 Z" fill="#000000" fill-rule="evenodd" fill-opacity="1" /><path clip-path="url(#clip680)" d="M 0 0 M829.412 1515.64 Q825.801 1515.64 823.972 1519.2 Q822.167 1522.75 822.167 1529.87 Q822.167 1536.98 823.972 1540.55 Q825.801 1544.09 829.412 1544.09 Q833.046 1544.09 834.852 1540.55 Q836.681 1536.98 836.681 1529.87 Q836.681 1522.75 834.852 1519.2 Q833.046 1515.64 829.412 1515.64 M829.412 1511.93 Q835.222 1511.93 838.278 1516.54 Q841.356 1521.12 841.356 1529.87 Q841.356 1538.6 838.278 1543.21 Q835.222 1547.79 829.412 1547.79 Q823.602 1547.79 820.523 1543.21 Q817.468 1538.6 817.468 1529.87 Q817.468 1521.12 820.523 1516.54 Q823.602 1511.93 829.412 1511.93 Z" fill="#000000" fill-rule="evenodd" fill-opacity="1" /><path clip-path="url(#clip680)" d="M 0 0 M847.236 1543.18 L854.875 1543.18 L854.875 1516.82 L846.565 1518.49 L846.565 1514.23 L854.829 1512.56 L859.505 1512.56 L859.505 1543.18 L867.143 1543.18 L867.143 1547.12 L847.236 1547.12 L847.236 1543.18 Z" fill="#000000" fill-rule="evenodd" fill-opacity="1" /><path clip-path="url(#clip680)" d="M 0 0 M1162.85 1543.18 L1179.17 1543.18 L1179.17 1547.12 L1157.22 1547.12 L1157.22 1543.18 Q1159.89 1540.43 1164.47 1535.8 Q1169.08 1531.15 1170.26 1529.81 Q1172.5 1527.28 1173.38 1525.55 Q1174.29 1523.79 1174.29 1522.1 Q1174.29 1519.34 1172.34 1517.61 Q1170.42 1515.87 1167.32 1515.87 Q1165.12 1515.87 1162.66 1516.63 Q1160.23 1517.4 1157.46 1518.95 L1157.46 1514.23 Q1160.28 1513.09 1162.73 1512.51 Q1165.19 1511.93 1167.22 1511.93 Q1172.6 1511.93 1175.79 1514.62 Q1178.98 1517.31 1178.98 1521.8 Q1178.98 1523.93 1178.17 1525.85 Q1177.39 1527.74 1175.28 1530.34 Q1174.7 1531.01 1171.6 1534.23 Q1168.5 1537.42 1162.85 1543.18 Z" fill="#000000" fill-rule="evenodd" fill-opacity="1" /><path clip-path="url(#clip680)" d="M 0 0 M1194.24 1515.64 Q1190.63 1515.64 1188.8 1519.2 Q1186.99 1522.75 1186.99 1529.87 Q1186.99 1536.98 1188.8 1540.55 Q1190.63 1544.09 1194.24 1544.09 Q1197.87 1544.09 1199.68 1540.55 Q1201.51 1536.98 1201.51 1529.87 Q1201.51 1522.75 1199.68 1519.2 Q1197.87 1515.64 1194.24 1515.64 M1194.24 1511.93 Q1200.05 1511.93 1203.1 1516.54 Q1206.18 1521.12 1206.18 1529.87 Q1206.18 1538.6 1203.1 1543.21 Q1200.05 1547.79 1194.24 1547.79 Q1188.43 1547.79 1185.35 1543.21 Q1182.29 1538.6 1182.29 1529.87 Q1182.29 1521.12 1185.35 1516.54 Q1188.43 1511.93 1194.24 1511.93 Z" fill="#000000" fill-rule="evenodd" fill-opacity="1" /><path clip-path="url(#clip680)" d="M 0 0 M1212.06 1543.18 L1219.7 1543.18 L1219.7 1516.82 L1211.39 1518.49 L1211.39 1514.23 L1219.66 1512.56 L1224.33 1512.56 L1224.33 1543.18 L1231.97 1543.18 L1231.97 1547.12 L1212.06 1547.12 L1212.06 1543.18 Z" fill="#000000" fill-rule="evenodd" fill-opacity="1" /><path clip-path="url(#clip680)" d="M 0 0 M1247.62 1527.98 Q1244.47 1527.98 1242.62 1530.13 Q1240.79 1532.28 1240.79 1536.03 Q1240.79 1539.76 1242.62 1541.93 Q1244.47 1544.09 1247.62 1544.09 Q1250.77 1544.09 1252.59 1541.93 Q1254.45 1539.76 1254.45 1536.03 Q1254.45 1532.28 1252.59 1530.13 Q1250.77 1527.98 1247.62 1527.98 M1256.9 1513.32 L1256.9 1517.58 Q1255.14 1516.75 1253.34 1516.31 Q1251.55 1515.87 1249.79 1515.87 Q1245.16 1515.87 1242.71 1519 Q1240.28 1522.12 1239.93 1528.44 Q1241.3 1526.43 1243.36 1525.36 Q1245.42 1524.27 1247.9 1524.27 Q1253.1 1524.27 1256.11 1527.44 Q1259.15 1530.59 1259.15 1536.03 Q1259.15 1541.36 1256 1544.57 Q1252.85 1547.79 1247.62 1547.79 Q1241.62 1547.79 1238.45 1543.21 Q1235.28 1538.6 1235.28 1529.87 Q1235.28 1521.68 1239.17 1516.82 Q1243.06 1511.93 1249.61 1511.93 Q1251.37 1511.93 1253.15 1512.28 Q1254.96 1512.63 1256.9 1513.32 Z" fill="#000000" fill-rule="evenodd" fill-opacity="1" /><path clip-path="url(#clip680)" d="M 0 0 M1261.46 1532.24 L1273.94 1532.24 L1273.94 1536.03 L1261.46 1536.03 L1261.46 1532.24 Z" fill="#000000" fill-rule="evenodd" fill-opacity="1" /><path clip-path="url(#clip680)" d="M 0 0 M1289.01 1515.64 Q1285.4 1515.64 1283.57 1519.2 Q1281.76 1522.75 1281.76 1529.87 Q1281.76 1536.98 1283.57 1540.55 Q1285.4 1544.09 1289.01 1544.09 Q1292.64 1544.09 1294.45 1540.55 Q1296.28 1536.98 1296.28 1529.87 Q1296.28 1522.75 1294.45 1519.2 Q1292.64 1515.64 1289.01 1515.64 M1289.01 1511.93 Q1294.82 1511.93 1297.87 1516.54 Q1300.95 1521.12 1300.95 1529.87 Q1300.95 1538.6 1297.87 1543.21 Q1294.82 1547.79 1289.01 1547.79 Q1283.2 1547.79 1280.12 1543.21 Q1277.06 1538.6 1277.06 1529.87 Q1277.06 1521.12 1280.12 1516.54 Q1283.2 1511.93 1289.01 1511.93 Z" fill="#000000" fill-rule="evenodd" fill-opacity="1" /><path clip-path="url(#clip680)" d="M 0 0 M1306.83 1543.18 L1314.47 1543.18 L1314.47 1516.82 L1306.16 1518.49 L1306.16 1514.23 L1314.42 1512.56 L1319.1 1512.56 L1319.1 1543.18 L1326.74 1543.18 L1326.74 1547.12 L1306.83 1547.12 L1306.83 1543.18 Z" fill="#000000" fill-rule="evenodd" fill-opacity="1" /><path clip-path="url(#clip680)" d="M 0 0 M1329.05 1532.24 L1341.53 1532.24 L1341.53 1536.03 L1329.05 1536.03 L1329.05 1532.24 Z" fill="#000000" fill-rule="evenodd" fill-opacity="1" /><path clip-path="url(#clip680)" d="M 0 0 M1356.6 1515.64 Q1352.99 1515.64 1351.16 1519.2 Q1349.35 1522.75 1349.35 1529.87 Q1349.35 1536.98 1351.16 1540.55 Q1352.99 1544.09 1356.6 1544.09 Q1360.23 1544.09 1362.04 1540.55 Q1363.87 1536.98 1363.87 1529.87 Q1363.87 1522.75 1362.04 1519.2 Q1360.23 1515.64 1356.6 1515.64 M1356.6 1511.93 Q1362.41 1511.93 1365.46 1516.54 Q1368.54 1521.12 1368.54 1529.87 Q1368.54 1538.6 1365.46 1543.21 Q1362.41 1547.79 1356.6 1547.79 Q1350.79 1547.79 1347.71 1543.21 Q1344.65 1538.6 1344.65 1529.87 Q1344.65 1521.12 1347.71 1516.54 Q1350.79 1511.93 1356.6 1511.93 Z" fill="#000000" fill-rule="evenodd" fill-opacity="1" /><path clip-path="url(#clip680)" d="M 0 0 M1374.42 1543.18 L1382.06 1543.18 L1382.06 1516.82 L1373.75 1518.49 L1373.75 1514.23 L1382.02 1512.56 L1386.69 1512.56 L1386.69 1543.18 L1394.33 1543.18 L1394.33 1547.12 L1374.42 1547.12 L1374.42 1543.18 Z" fill="#000000" fill-rule="evenodd" fill-opacity="1" /><path clip-path="url(#clip680)" d="M 0 0 M1691.43 1543.18 L1707.75 1543.18 L1707.75 1547.12 L1685.81 1547.12 L1685.81 1543.18 Q1688.47 1540.43 1693.05 1535.8 Q1697.66 1531.15 1698.84 1529.81 Q1701.09 1527.28 1701.97 1525.55 Q1702.87 1523.79 1702.87 1522.1 Q1702.87 1519.34 1700.92 1517.61 Q1699 1515.87 1695.9 1515.87 Q1693.7 1515.87 1691.25 1516.63 Q1688.82 1517.4 1686.04 1518.95 L1686.04 1514.23 Q1688.86 1513.09 1691.32 1512.51 Q1693.77 1511.93 1695.81 1511.93 Q1701.18 1511.93 1704.37 1514.62 Q1707.57 1517.31 1707.57 1521.8 Q1707.57 1523.93 1706.76 1525.85 Q1705.97 1527.74 1703.86 1530.34 Q1703.28 1531.01 1700.18 1534.23 Q1697.08 1537.42 1691.43 1543.18 Z" fill="#000000" fill-rule="evenodd" fill-opacity="1" /><path clip-path="url(#clip680)" d="M 0 0 M1722.82 1515.64 Q1719.21 1515.64 1717.38 1519.2 Q1715.58 1522.75 1715.58 1529.87 Q1715.58 1536.98 1717.38 1540.55 Q1719.21 1544.09 1722.82 1544.09 Q1726.46 1544.09 1728.26 1540.55 Q1730.09 1536.98 1730.09 1529.87 Q1730.09 1522.75 1728.26 1519.2 Q1726.46 1515.64 1722.82 1515.64 M1722.82 1511.93 Q1728.63 1511.93 1731.69 1516.54 Q1734.77 1521.12 1734.77 1529.87 Q1734.77 1538.6 1731.69 1543.21 Q1728.63 1547.79 1722.82 1547.79 Q1717.01 1547.79 1713.93 1543.21 Q1710.88 1538.6 1710.88 1529.87 Q1710.88 1521.12 1713.93 1516.54 Q1717.01 1511.93 1722.82 1511.93 Z" fill="#000000" fill-rule="evenodd" fill-opacity="1" /><path clip-path="url(#clip680)" d="M 0 0 M1740.65 1543.18 L1748.28 1543.18 L1748.28 1516.82 L1739.97 1518.49 L1739.97 1514.23 L1748.24 1512.56 L1752.91 1512.56 L1752.91 1543.18 L1760.55 1543.18 L1760.55 1547.12 L1740.65 1547.12 L1740.65 1543.18 Z" fill="#000000" fill-rule="evenodd" fill-opacity="1" /><path clip-path="url(#clip680)" d="M 0 0 M1764.44 1512.56 L1786.66 1512.56 L1786.66 1514.55 L1774.12 1547.12 L1769.23 1547.12 L1781.04 1516.5 L1764.44 1516.5 L1764.44 1512.56 Z" fill="#000000" fill-rule="evenodd" fill-opacity="1" /><path clip-path="url(#clip680)" d="M 0 0 M1788.98 1532.24 L1801.46 1532.24 L1801.46 1536.03 L1788.98 1536.03 L1788.98 1532.24 Z" fill="#000000" fill-rule="evenodd" fill-opacity="1" /><path clip-path="url(#clip680)" d="M 0 0 M1816.53 1515.64 Q1812.91 1515.64 1811.09 1519.2 Q1809.28 1522.75 1809.28 1529.87 Q1809.28 1536.98 1811.09 1540.55 Q1812.91 1544.09 1816.53 1544.09 Q1820.16 1544.09 1821.96 1540.55 Q1823.79 1536.98 1823.79 1529.87 Q1823.79 1522.75 1821.96 1519.2 Q1820.16 1515.64 1816.53 1515.64 M1816.53 1511.93 Q1822.34 1511.93 1825.39 1516.54 Q1828.47 1521.12 1828.47 1529.87 Q1828.47 1538.6 1825.39 1543.21 Q1822.34 1547.79 1816.53 1547.79 Q1810.71 1547.79 1807.64 1543.21 Q1804.58 1538.6 1804.58 1529.87 Q1804.58 1521.12 1807.64 1516.54 Q1810.71 1511.93 1816.53 1511.93 Z" fill="#000000" fill-rule="evenodd" fill-opacity="1" /><path clip-path="url(#clip680)" d="M 0 0 M1834.35 1543.18 L1841.99 1543.18 L1841.99 1516.82 L1833.68 1518.49 L1833.68 1514.23 L1841.94 1512.56 L1846.62 1512.56 L1846.62 1543.18 L1854.26 1543.18 L1854.26 1547.12 L1834.35 1547.12 L1834.35 1543.18 Z" fill="#000000" fill-rule="evenodd" fill-opacity="1" /><path clip-path="url(#clip680)" d="M 0 0 M1856.57 1532.24 L1869.05 1532.24 L1869.05 1536.03 L1856.57 1536.03 L1856.57 1532.24 Z" fill="#000000" fill-rule="evenodd" fill-opacity="1" /><path clip-path="url(#clip680)" d="M 0 0 M1884.12 1515.64 Q1880.51 1515.64 1878.68 1519.2 Q1876.87 1522.75 1876.87 1529.87 Q1876.87 1536.98 1878.68 1540.55 Q1880.51 1544.09 1884.12 1544.09 Q1887.75 1544.09 1889.56 1540.55 Q1891.39 1536.98 1891.39 1529.87 Q1891.39 1522.75 1889.56 1519.2 Q1887.75 1515.64 1884.12 1515.64 M1884.12 1511.93 Q1889.93 1511.93 1892.98 1516.54 Q1896.06 1521.12 1896.06 1529.87 Q1896.06 1538.6 1892.98 1543.21 Q1889.93 1547.79 1884.12 1547.79 Q1878.31 1547.79 1875.23 1543.21 Q1872.17 1538.6 1872.17 1529.87 Q1872.17 1521.12 1875.23 1516.54 Q1878.31 1511.93 1884.12 1511.93 Z" fill="#000000" fill-rule="evenodd" fill-opacity="1" /><path clip-path="url(#clip680)" d="M 0 0 M1901.94 1543.18 L1909.58 1543.18 L1909.58 1516.82 L1901.27 1518.49 L1901.27 1514.23 L1909.53 1512.56 L1914.21 1512.56 L1914.21 1543.18 L1921.85 1543.18 L1921.85 1547.12 L1901.94 1547.12 L1901.94 1543.18 Z" fill="#000000" fill-rule="evenodd" fill-opacity="1" /><path clip-path="url(#clip680)" d="M 0 0 M2217.64 1543.18 L2233.96 1543.18 L2233.96 1547.12 L2212.01 1547.12 L2212.01 1543.18 Q2214.67 1540.43 2219.26 1535.8 Q2223.86 1531.15 2225.04 1529.81 Q2227.29 1527.28 2228.17 1525.55 Q2229.07 1523.79 2229.07 1522.1 Q2229.07 1519.34 2227.13 1517.61 Q2225.21 1515.87 2222.1 1515.87 Q2219.9 1515.87 2217.45 1516.63 Q2215.02 1517.4 2212.24 1518.95 L2212.24 1514.23 Q2215.07 1513.09 2217.52 1512.51 Q2219.97 1511.93 2222.01 1511.93 Q2227.38 1511.93 2230.58 1514.62 Q2233.77 1517.31 2233.77 1521.8 Q2233.77 1523.93 2232.96 1525.85 Q2232.17 1527.74 2230.07 1530.34 Q2229.49 1531.01 2226.39 1534.23 Q2223.28 1537.42 2217.64 1543.18 Z" fill="#000000" fill-rule="evenodd" fill-opacity="1" /><path clip-path="url(#clip680)" d="M 0 0 M2249.02 1515.64 Q2245.41 1515.64 2243.58 1519.2 Q2241.78 1522.75 2241.78 1529.87 Q2241.78 1536.98 2243.58 1540.55 Q2245.41 1544.09 2249.02 1544.09 Q2252.66 1544.09 2254.46 1540.55 Q2256.29 1536.98 2256.29 1529.87 Q2256.29 1522.75 2254.46 1519.2 Q2252.66 1515.64 2249.02 1515.64 M2249.02 1511.93 Q2254.83 1511.93 2257.89 1516.54 Q2260.97 1521.12 2260.97 1529.87 Q2260.97 1538.6 2257.89 1543.21 Q2254.83 1547.79 2249.02 1547.79 Q2243.21 1547.79 2240.14 1543.21 Q2237.08 1538.6 2237.08 1529.87 Q2237.08 1521.12 2240.14 1516.54 Q2243.21 1511.93 2249.02 1511.93 Z" fill="#000000" fill-rule="evenodd" fill-opacity="1" /><path clip-path="url(#clip680)" d="M 0 0 M2266.85 1543.18 L2274.49 1543.18 L2274.49 1516.82 L2266.18 1518.49 L2266.18 1514.23 L2274.44 1512.56 L2279.12 1512.56 L2279.12 1543.18 L2286.76 1543.18 L2286.76 1547.12 L2266.85 1547.12 L2266.85 1543.18 Z" fill="#000000" fill-rule="evenodd" fill-opacity="1" /><path clip-path="url(#clip680)" d="M 0 0 M2301.83 1530.71 Q2298.49 1530.71 2296.57 1532.49 Q2294.67 1534.27 2294.67 1537.4 Q2294.67 1540.52 2296.57 1542.31 Q2298.49 1544.09 2301.83 1544.09 Q2305.16 1544.09 2307.08 1542.31 Q2309 1540.5 2309 1537.4 Q2309 1534.27 2307.08 1532.49 Q2305.18 1530.71 2301.83 1530.71 M2297.15 1528.72 Q2294.14 1527.98 2292.45 1525.92 Q2290.78 1523.86 2290.78 1520.89 Q2290.78 1516.75 2293.72 1514.34 Q2296.69 1511.93 2301.83 1511.93 Q2306.99 1511.93 2309.93 1514.34 Q2312.87 1516.75 2312.87 1520.89 Q2312.87 1523.86 2311.18 1525.92 Q2309.51 1527.98 2306.52 1528.72 Q2309.9 1529.5 2311.78 1531.8 Q2313.68 1534.09 2313.68 1537.4 Q2313.68 1542.42 2310.6 1545.11 Q2307.54 1547.79 2301.83 1547.79 Q2296.11 1547.79 2293.03 1545.11 Q2289.97 1542.42 2289.97 1537.4 Q2289.97 1534.09 2291.87 1531.8 Q2293.77 1529.5 2297.15 1528.72 M2295.44 1521.33 Q2295.44 1524.02 2297.1 1525.52 Q2298.79 1527.03 2301.83 1527.03 Q2304.83 1527.03 2306.52 1525.52 Q2308.24 1524.02 2308.24 1521.33 Q2308.24 1518.65 2306.52 1517.14 Q2304.83 1515.64 2301.83 1515.64 Q2298.79 1515.64 2297.1 1517.14 Q2295.44 1518.65 2295.44 1521.33 Z" fill="#000000" fill-rule="evenodd" fill-opacity="1" /><path clip-path="url(#clip680)" d="M 0 0 M2315.99 1532.24 L2328.47 1532.24 L2328.47 1536.03 L2315.99 1536.03 L2315.99 1532.24 Z" fill="#000000" fill-rule="evenodd" fill-opacity="1" /><path clip-path="url(#clip680)" d="M 0 0 M2343.54 1515.64 Q2339.93 1515.64 2338.1 1519.2 Q2336.29 1522.75 2336.29 1529.87 Q2336.29 1536.98 2338.1 1540.55 Q2339.93 1544.09 2343.54 1544.09 Q2347.17 1544.09 2348.98 1540.55 Q2350.81 1536.98 2350.81 1529.87 Q2350.81 1522.75 2348.98 1519.2 Q2347.17 1515.64 2343.54 1515.64 M2343.54 1511.93 Q2349.35 1511.93 2352.4 1516.54 Q2355.48 1521.12 2355.48 1529.87 Q2355.48 1538.6 2352.4 1543.21 Q2349.35 1547.79 2343.54 1547.79 Q2337.73 1547.79 2334.65 1543.21 Q2331.59 1538.6 2331.59 1529.87 Q2331.59 1521.12 2334.65 1516.54 Q2337.73 1511.93 2343.54 1511.93 Z" fill="#000000" fill-rule="evenodd" fill-opacity="1" /><path clip-path="url(#clip680)" d="M 0 0 M2361.36 1543.18 L2369 1543.18 L2369 1516.82 L2360.69 1518.49 L2360.69 1514.23 L2368.95 1512.56 L2373.63 1512.56 L2373.63 1543.18 L2381.27 1543.18 L2381.27 1547.12 L2361.36 1547.12 L2361.36 1543.18 Z" fill="#000000" fill-rule="evenodd" fill-opacity="1" /><path clip-path="url(#clip680)" d="M 0 0 M2383.58 1532.24 L2396.06 1532.24 L2396.06 1536.03 L2383.58 1536.03 L2383.58 1532.24 Z" fill="#000000" fill-rule="evenodd" fill-opacity="1" /><path clip-path="url(#clip680)" d="M 0 0 M2411.13 1515.64 Q2407.52 1515.64 2405.69 1519.2 Q2403.89 1522.75 2403.89 1529.87 Q2403.89 1536.98 2405.69 1540.55 Q2407.52 1544.09 2411.13 1544.09 Q2414.76 1544.09 2416.57 1540.55 Q2418.4 1536.98 2418.4 1529.87 Q2418.4 1522.75 2416.57 1519.2 Q2414.76 1515.64 2411.13 1515.64 M2411.13 1511.93 Q2416.94 1511.93 2420 1516.54 Q2423.07 1521.12 2423.07 1529.87 Q2423.07 1538.6 2420 1543.21 Q2416.94 1547.79 2411.13 1547.79 Q2405.32 1547.79 2402.24 1543.21 Q2399.19 1538.6 2399.19 1529.87 Q2399.19 1521.12 2402.24 1516.54 Q2405.32 1511.93 2411.13 1511.93 Z" fill="#000000" fill-rule="evenodd" fill-opacity="1" /><path clip-path="url(#clip680)" d="M 0 0 M2428.95 1543.18 L2436.59 1543.18 L2436.59 1516.82 L2428.28 1518.49 L2428.28 1514.23 L2436.55 1512.56 L2441.22 1512.56 L2441.22 1543.18 L2448.86 1543.18 L2448.86 1547.12 L2428.95 1547.12 L2428.95 1543.18 Z" fill="#000000" fill-rule="evenodd" fill-opacity="1" /><path clip-path="url(#clip680)" d="M 0 0 M88.816 1431.9 Q85.2049 1431.9 83.3762 1435.46 Q81.5707 1439.01 81.5707 1446.13 Q81.5707 1453.24 83.3762 1456.81 Q85.2049 1460.35 88.816 1460.35 Q92.4502 1460.35 94.2558 1456.81 Q96.0845 1453.24 96.0845 1446.13 Q96.0845 1439.01 94.2558 1435.46 Q92.4502 1431.9 88.816 1431.9 M88.816 1428.19 Q94.6262 1428.19 97.6817 1432.8 Q100.76 1437.38 100.76 1446.13 Q100.76 1454.86 97.6817 1459.47 Q94.6262 1464.05 88.816 1464.05 Q83.0058 1464.05 79.9272 1459.47 Q76.8716 1454.86 76.8716 1446.13 Q76.8716 1437.38 79.9272 1432.8 Q83.0058 1428.19 88.816 1428.19 Z" fill="#000000" fill-rule="evenodd" fill-opacity="1" /><path clip-path="url(#clip680)" d="M 0 0 M53.8393 1095.55 L61.4782 1095.55 L61.4782 1069.18 L53.168 1070.85 L53.168 1066.59 L61.4319 1064.93 L66.1078 1064.93 L66.1078 1095.55 L73.7466 1095.55 L73.7466 1099.49 L53.8393 1099.49 L53.8393 1095.55 Z" fill="#000000" fill-rule="evenodd" fill-opacity="1" /><path clip-path="url(#clip680)" d="M 0 0 M88.816 1068 Q85.2049 1068 83.3762 1071.57 Q81.5707 1075.11 81.5707 1082.24 Q81.5707 1089.35 83.3762 1092.91 Q85.2049 1096.45 88.816 1096.45 Q92.4502 1096.45 94.2558 1092.91 Q96.0845 1089.35 96.0845 1082.24 Q96.0845 1075.11 94.2558 1071.57 Q92.4502 1068 88.816 1068 M88.816 1064.3 Q94.6262 1064.3 97.6817 1068.91 Q100.76 1073.49 100.76 1082.24 Q100.76 1090.97 97.6817 1095.57 Q94.6262 1100.16 88.816 1100.16 Q83.0058 1100.16 79.9272 1095.57 Q76.8716 1090.97 76.8716 1082.24 Q76.8716 1073.49 79.9272 1068.91 Q83.0058 1064.3 88.816 1064.3 Z" fill="#000000" fill-rule="evenodd" fill-opacity="1" /><path clip-path="url(#clip680)" d="M 0 0 M57.4273 731.656 L73.7466 731.656 L73.7466 735.591 L51.8023 735.591 L51.8023 731.656 Q54.4643 728.901 59.0476 724.272 Q63.6541 719.619 64.8346 718.277 Q67.08 715.753 67.9596 714.017 Q68.8624 712.258 68.8624 710.568 Q68.8624 707.814 66.918 706.078 Q64.9967 704.341 61.8948 704.341 Q59.6958 704.341 57.2421 705.105 Q54.8115 705.869 52.0338 707.42 L52.0338 702.698 Q54.8578 701.564 57.3115 700.985 Q59.7652 700.406 61.8023 700.406 Q67.1726 700.406 70.367 703.091 Q73.5614 705.777 73.5614 710.267 Q73.5614 712.397 72.7513 714.318 Q71.9642 716.216 69.8578 718.809 Q69.2791 719.48 66.1772 722.698 Q63.0754 725.892 57.4273 731.656 Z" fill="#000000" fill-rule="evenodd" fill-opacity="1" /><path clip-path="url(#clip680)" d="M 0 0 M88.816 704.11 Q85.2049 704.11 83.3762 707.675 Q81.5707 711.216 81.5707 718.346 Q81.5707 725.452 83.3762 729.017 Q85.2049 732.559 88.816 732.559 Q92.4502 732.559 94.2558 729.017 Q96.0845 725.452 96.0845 718.346 Q96.0845 711.216 94.2558 707.675 Q92.4502 704.11 88.816 704.11 M88.816 700.406 Q94.6262 700.406 97.6817 705.013 Q100.76 709.596 100.76 718.346 Q100.76 727.073 97.6817 731.679 Q94.6262 736.263 88.816 736.263 Q83.0058 736.263 79.9272 731.679 Q76.8716 727.073 76.8716 718.346 Q76.8716 709.596 79.9272 705.013 Q83.0058 700.406 88.816 700.406 Z" fill="#000000" fill-rule="evenodd" fill-opacity="1" /><path clip-path="url(#clip680)" d="M 0 0 M66.617 353.063 Q69.9735 353.78 71.8485 356.049 Q73.7466 358.317 73.7466 361.651 Q73.7466 366.766 70.2281 369.567 Q66.7096 372.368 60.2282 372.368 Q58.0523 372.368 55.7375 371.928 Q53.4458 371.512 50.9921 370.655 L50.9921 366.141 Q52.9366 367.276 55.2514 367.854 Q57.5662 368.433 60.0893 368.433 Q64.4874 368.433 66.7791 366.697 Q69.0939 364.961 69.0939 361.651 Q69.0939 358.595 66.9411 356.882 Q64.8115 355.146 60.9921 355.146 L56.9643 355.146 L56.9643 351.303 L61.1773 351.303 Q64.6263 351.303 66.455 349.938 Q68.2837 348.549 68.2837 345.956 Q68.2837 343.294 66.3856 341.882 Q64.5106 340.447 60.9921 340.447 Q59.0708 340.447 56.8717 340.864 Q54.6727 341.28 52.0338 342.16 L52.0338 337.993 Q54.6958 337.253 57.0106 336.882 Q59.3486 336.512 61.4087 336.512 Q66.7328 336.512 69.8346 338.942 Q72.9365 341.35 72.9365 345.47 Q72.9365 348.341 71.2929 350.331 Q69.6494 352.299 66.617 353.063 Z" fill="#000000" fill-rule="evenodd" fill-opacity="1" /><path clip-path="url(#clip680)" d="M 0 0 M88.816 340.216 Q85.2049 340.216 83.3762 343.78 Q81.5707 347.322 81.5707 354.452 Q81.5707 361.558 83.3762 365.123 Q85.2049 368.665 88.816 368.665 Q92.4502 368.665 94.2558 365.123 Q96.0845 361.558 96.0845 354.452 Q96.0845 347.322 94.2558 343.78 Q92.4502 340.216 88.816 340.216 M88.816 336.512 Q94.6262 336.512 97.6817 341.118 Q100.76 345.702 100.76 354.452 Q100.76 363.178 97.6817 367.785 Q94.6262 372.368 88.816 372.368 Q83.0058 372.368 79.9272 367.785 Q76.8716 363.178 76.8716 354.452 Q76.8716 345.702 79.9272 341.118 Q83.0058 336.512 88.816 336.512 Z" fill="#000000" fill-rule="evenodd" fill-opacity="1" /><polyline clip-path="url(#clip682)" style="stroke:#009af9; stroke-width:4; stroke-opacity:1; fill:none" points="
  199.477,1429.95 200.92,1439.07 202.363,1409.39 203.806,1439.76 205.248,1441.69 209.577,1441.54 211.019,1445.51 213.905,1444.5 215.348,1444.24 219.676,1444.98 
  221.119,1443.2 224.004,1434.25 225.447,1440.13 229.775,1435.83 231.218,1440.56 232.661,1436.82 234.104,1438.8 235.546,1439.75 239.875,1437.98 241.317,1437.19 
  242.76,1442.05 244.203,1441.07 245.646,1441.32 251.417,1429.97 252.859,1442.52 254.302,1427.63 255.745,1416.18 260.073,1422.15 261.516,1435.82 262.959,1406.58 
  264.402,1423.95 265.844,1401.7 270.173,1412.08 271.615,1421.64 273.058,1414.83 274.501,1434.79 275.944,1430.55 280.272,1442.55 281.715,1439.79 283.157,1438.46 
  284.6,1437.27 286.043,1440.76 291.814,1441.55 293.257,1435.32 294.7,1436.54 296.142,1439.94 300.471,1433.74 301.913,1434.35 303.356,1435.21 304.799,1436.09 
  306.242,1432.51 310.57,1415.74 312.013,1412.03 313.455,1439.82 314.898,1440.16 316.341,1434.9 320.669,1437.88 322.112,1436.98 323.555,1429.42 324.998,1426.67 
  326.44,1429.2 330.769,1425.76 332.211,1437.63 333.654,1425.22 335.097,1435.37 336.54,1427.7 340.868,1428.5 342.311,1424.88 343.753,1430.97 345.196,1422.88 
  346.639,1432.26 350.967,1427.95 352.41,1437.84 353.853,1441.04 355.296,1440.78 356.738,1424.23 361.067,1426.55 362.509,1431.84 363.952,1435.21 365.395,1420.96 
  366.838,1409.17 371.166,1419.63 372.609,1415.44 374.051,1428.98 375.494,1437.94 381.265,1441.85 382.708,1442.18 384.151,1441.27 385.594,1433.47 387.036,1433.59 
  391.365,1421.42 392.807,1437 394.25,1437.08 395.693,1438.69 397.136,1434.58 401.464,1426.73 402.907,1436.52 404.349,1416.82 405.792,1436.28 407.235,1434.76 
  411.563,1437.71 413.006,1442.44 414.449,1440.64 415.891,1428.72 417.334,1438.14 421.663,1441.83 423.105,1436.13 424.548,1437.21 425.991,1442.79 427.434,1444.56 
  433.205,1439.53 434.647,1442.97 436.09,1441.31 437.533,1443.05 441.861,1440.56 443.304,1442.66 444.747,1442.95 446.189,1440.56 447.632,1443.47 451.961,1443.3 
  453.403,1442.89 454.846,1439.94 456.289,1439.73 457.732,1439.24 462.06,1439 463.503,1441.09 464.945,1439.7 466.388,1443.01 467.831,1444.12 472.159,1443.51 
  473.602,1439.32 475.045,1440.89 476.487,1437.14 477.93,1441.53 482.259,1443.42 483.701,1441.15 485.144,1443.61 486.587,1442.47 492.358,1441.3 493.801,1434.73 
  495.243,1438.46 496.686,1425.02 498.129,1441.62 502.457,1439.88 503.9,1435.53 505.343,1438.83 506.785,1431.11 508.228,1440.34 512.557,1440.02 513.999,1440.94 
  515.442,1443.78 516.885,1443.33 518.328,1439.28 522.656,1439.61 524.099,1438.45 525.541,1432.73 526.984,1418.81 528.427,1420.88 532.755,1437.74 534.198,1417.49 
  535.641,1429.52 537.083,1427.58 538.526,1436.42 542.855,1439.72 544.297,1438.14 545.74,1438.46 547.183,1443.53 548.626,1425.64 552.954,1438.23 554.397,1443.74 
  555.839,1442.79 557.282,1443.05 558.725,1439.47 563.053,1441.56 564.496,1444.05 565.939,1443.98 567.381,1440.19 568.824,1443.75 574.595,1441.3 576.038,1441.08 
  577.481,1440.01 578.924,1438.49 583.252,1440.65 584.695,1435.73 586.137,1436.25 587.58,1439.36 589.023,1437.91 593.351,1439.71 594.794,1439.04 596.237,1427.39 
  597.679,1441.11 599.122,1438.49 603.451,1438.87 604.893,1437.25 606.336,1439.99 607.779,1428.08 609.222,1433.06 613.55,1413.77 614.993,1432.82 616.435,1424.22 
  617.878,1425.69 619.321,1422.32 623.649,1430.53 625.092,1419.26 626.535,1417.09 627.977,1406.31 629.42,1401.59 633.749,1395.72 635.191,1390.53 636.634,1252.97 
  638.077,1346.06 639.52,1389.26 643.848,1427.06 645.291,1425.65 646.733,1425.94 648.176,1407.37 649.619,1433.39 653.947,1431.75 655.39,1436.49 656.833,1427.37 
  658.275,1434.65 659.718,1426.15 664.047,1438.41 665.489,1436.14 666.932,1433.44 668.375,1440.29 669.818,1438.76 674.146,1443.16 675.589,1443.66 677.031,1440.11 
  678.474,1436.72 679.917,1442.28 684.245,1441.5 685.688,1442.99 687.131,1436.37 688.573,1440.92 690.016,1430.2 694.345,1442.74 695.787,1442.11 697.23,1444.82 
  700.116,1442.8 704.444,1432.84 705.887,1440.76 707.329,1443.47 708.772,1439.39 710.215,1441.26 714.543,1435.13 715.986,1408.46 717.429,1420.76 718.871,1419.57 
  720.314,1415.69 724.643,1386.71 726.085,1389.73 727.528,1385.9 728.971,1407.18 730.414,1433.47 734.742,1441.57 736.185,1442.09 737.627,1444.42 740.513,1443.79 
  744.841,1444.03 746.284,1442.81 747.727,1437.42 750.612,1415.56 754.941,1420.63 756.383,1405.71 757.826,1416.34 759.269,1420.05 760.712,1423.35 765.04,1421.65 
  766.483,1366.45 767.925,1392.58 769.368,1408.5 770.811,1422.68 776.582,1415.64 778.025,1409.66 779.467,1423.89 780.91,1437.04 785.239,1435.16 786.681,1408.77 
  788.124,1412.32 789.567,1414.22 791.01,1410.45 795.338,1403.22 796.781,1413.86 798.223,1421.88 799.666,1433.74 801.109,1431.19 805.437,1433.87 806.88,1431.99 
  808.323,1435.95 809.765,1436.52 811.208,1442.3 816.979,1440.63 818.422,1439.13 819.865,1438.75 821.308,1438.58 825.636,1441.99 827.079,1442.4 828.521,1442.42 
  829.964,1438.93 831.407,1441.72 835.735,1443.51 837.178,1436.98 838.621,1429.87 840.063,1441.46 841.506,1426.25 845.835,1440.62 847.277,1420.42 848.72,1433.4 
  850.163,1430.62 851.606,1428.02 855.934,1436.11 857.377,1433.43 858.819,1405.87 860.262,1434.97 861.705,1429.95 866.033,1441.02 867.476,1438.7 868.919,1428.95 
  870.361,1418.33 871.804,1433.58 876.133,1429.22 877.575,1430.88 879.018,1426.38 880.461,1436.66 886.232,1435.73 887.675,1438.97 889.117,1427.32 890.56,1433.1 
  892.003,1443.18 896.331,1441.6 897.774,1436.04 899.217,1438.79 900.659,1440.04 902.102,1425.03 906.431,1432.52 907.873,1438.63 909.316,1438.44 910.759,1437.23 
  912.202,1442.2 916.53,1437.65 917.973,1430.99 919.415,1430.15 920.858,1428.08 922.301,1429.63 926.629,1440.96 928.072,1434.25 929.515,1414.84 930.957,1434.68 
  932.4,1418.33 936.729,1439.98 938.171,1421.51 939.614,1429.85 941.057,1435.15 942.5,1441.93 946.828,1444.35 948.271,1442.55 949.713,1439.72 951.156,1443.25 
  952.599,1442.11 958.37,1436.43 959.813,1440.2 961.255,1439.09 962.698,1435.67 967.026,1431.53 968.469,1434.94 969.912,1439.22 971.355,1429.6 972.798,1433.61 
  977.126,1440.83 978.569,1438.03 980.011,1431.94 981.454,1438.89 982.897,1436.43 987.225,1415 988.668,1435.99 990.111,1431.13 991.553,1434.44 992.996,1442.04 
  997.324,1428.71 998.767,1442.47 1000.21,1440.91 1001.65,1439.99 1003.1,1437.69 1007.42,1418.6 1008.87,1416.59 1010.31,1424.36 1011.75,1438.33 1017.52,1414.88 
  1018.97,1413.47 1020.41,1414.51 1021.85,1383.48 1023.29,1400.19 1027.62,1429.18 1029.07,1443.96 1030.51,1441.17 1031.95,1440.41 1033.39,1443.96 1037.72,1442.99 
  1039.16,1442.19 1040.61,1439.22 1042.05,1440.27 1043.49,1438.87 1047.82,1424.19 1049.26,1435.59 1050.71,1438.73 1052.15,1438.45 1053.59,1440.74 1057.92,1434.4 
  1059.36,1437.64 1060.81,1430.97 1062.25,1435.46 1063.69,1434.01 1068.02,1429.48 1069.46,1421.61 1070.91,1404.43 1072.35,1431.08 1073.79,1440.08 1078.12,1433.51 
  1079.56,1441.17 1081,1413.28 1082.45,1404.17 1083.89,1361.9 1088.22,87.9763 1089.66,1178.72 1091.1,1151.72 1092.55,1315.21 1093.99,1412.87 1098.32,1402.91 
  1099.76,1262.7 1101.2,1369.11 1102.65,1410.22 1104.09,1370.61 1109.86,1367.67 1111.3,1400.94 1112.75,1418.14 1114.19,1422.5 1118.52,1433.17 1119.96,1434.81 
  1121.4,1433.31 1122.84,1386.49 1124.29,1378.79 1128.62,1418.33 1130.06,1383.82 1131.5,1425.23 1132.94,1406.43 1134.39,1406.85 1138.72,1397.53 1140.16,1395.19 
  1141.6,1364.69 1143.04,1398.97 1144.49,1341.74 1148.81,1417.24 1150.26,1429.13 1151.7,1413.44 1153.14,1427.61 1154.59,1435.71 1158.91,1440.95 1160.36,1432.34 
  1161.8,1429.18 1163.24,1435.61 1164.68,1436.54 1169.01,1435.94 1170.46,1436.85 1171.9,1425.82 1173.34,1424.74 1174.78,1429.37 1179.11,1440.78 1180.56,1433.59 
  1182,1413.87 1183.44,1437.67 1184.88,1435.69 1189.21,1439.67 1190.65,1437.59 1192.1,1432.48 1193.54,1433.69 1194.98,1432.85 1199.31,1425.9 1200.75,1435.1 
  1202.2,1437.97 1203.64,1418.34 1205.08,1429.91 1209.41,1427.35 1210.85,1425.5 1212.3,1427.75 1213.74,1438.25 1215.18,1434.31 1219.51,1439.24 1220.95,1430.56 
  1222.4,1442.37 1225.28,1443.86 1229.61,1439.26 1231.05,1432.01 1232.49,1436.26 1233.94,1420.24 1235.38,1420.09 1239.71,1422.19 1241.15,1386.26 1242.59,1406.07 
  1244.04,1423.9 1245.48,1397.09 1249.81,1390.2 1251.25,1405.13 1252.69,1410.92 1254.14,1416.29 1255.58,1411.48 1259.91,1417.48 1261.35,1431.19 1262.79,1433.69 
  1264.24,1443.35 1270.01,1435.29 1271.45,1431.43 1272.89,1439.14 1274.33,1428.55 1280.11,1319.63 1281.55,1423.29 1282.99,1374.52 1284.43,1303.77 1285.88,1381.94 
  1290.21,1387.1 1291.65,1381.15 1293.09,1371.36 1294.53,1386.82 1295.98,1260.86 1301.75,1373.54 1303.19,1287.1 1304.63,1337.94 1306.08,1379.77 1310.4,1420.23 
  1311.85,1399.39 1313.29,1375.38 1314.73,1352.36 1316.17,1419.01 1320.5,1401.67 1321.95,1402.41 1323.39,1345.68 1324.83,1379.11 1326.27,1394.14 1330.6,1339.3 
  1332.05,1338.59 1333.49,1386.05 1334.93,1335.09 1336.37,1410.81 1342.14,1412.43 1343.59,1419.36 1345.03,1430.29 1346.47,1420.66 1350.8,1421.58 1352.24,1428.01 
  1353.69,1378.25 1355.13,1421.41 1356.57,1425.94 1360.9,1428.71 1362.34,1422.63 1363.79,1430.6 1365.23,1435.86 1366.67,1431.3 1371,1427.8 1372.44,1420.06 
  1373.89,1425.32 1375.33,1405.76 1376.77,1423.95 1381.1,1439 1382.54,1434.16 1383.98,1419.24 1385.43,1437.61 1386.87,1436.63 1391.2,1439.8 1392.64,1436.39 
  1394.08,1438.21 1395.53,1433.05 1401.3,1440.37 1402.74,1434.83 1404.18,1434.99 1405.63,1441.03 1407.07,1427.37 1411.4,1439.57 1412.84,1423.03 1414.28,1434.93 
  1415.73,1424.36 1417.17,1429.22 1421.5,1432.37 1422.94,1432.38 1424.38,1433.85 1425.82,1440.16 1427.27,1443.88 1431.6,1438.48 1433.04,1438.82 1434.48,1440.5 
  1435.92,1437.41 1437.37,1438 1441.7,1438.19 1443.14,1439.84 1444.58,1434.95 1446.02,1432.81 1447.47,1427.13 1451.79,1437.68 1453.24,1427.21 1454.68,1433.19 
  1456.12,1433.7 1457.57,1430.42 1461.89,1438.13 1463.34,1438.59 1464.78,1437.97 1466.22,1428.87 1467.66,1433.87 1471.99,1438.8 1473.44,1433.14 1474.88,1412.75 
  1476.32,1422.56 1477.76,1436.56 1482.09,1442.02 1483.54,1435.94 1484.98,1437.94 1486.42,1441.84 1487.86,1442.86 1493.63,1439.81 1495.08,1435.34 1496.52,1439.54 
  1497.96,1433.26 1502.29,1440.45 1503.73,1443.63 1505.18,1442.38 1506.62,1438.83 1508.06,1432.11 1512.39,1436.13 1513.83,1431.96 1515.28,1437.25 1516.72,1426.05 
  1518.16,1435.37 1522.49,1418.68 1523.93,1437.52 1525.38,1436.72 1526.82,1433.67 1528.26,1217.42 1532.59,1399.28 1534.03,1415.68 1535.47,1423.07 1536.92,1433.61 
  1538.36,1440.59 1544.13,1435.99 1545.57,1428.72 1547.02,1435.36 1548.46,1440.51 1552.79,1439.35 1554.23,1434.69 1555.67,1441.31 1557.12,1436.2 1558.56,1442.04 
  1562.89,1443.77 1564.33,1443.57 1565.77,1444.24 1567.22,1441.97 1568.66,1443.56 1572.99,1442.2 1574.43,1438.72 1575.87,1437.51 1577.31,1437.38 1578.76,1440.26 
  1583.09,1438.05 1584.53,1437.05 1585.97,1441.8 1587.41,1442.08 1588.86,1442.58 1593.19,1444.06 1594.63,1444.22 1596.07,1442.27 1597.51,1441.86 1598.96,1444.18 
  1603.28,1444.68 1604.73,1441.9 1606.17,1440.13 1607.61,1443.86 1609.06,1440.96 1613.38,1437.88 1614.83,1443.7 1616.27,1442.2 1617.71,1440.5 1619.15,1432.42 
  1623.48,1442.95 1624.93,1440.99 1626.37,1441.48 1627.81,1437.23 1629.25,1440.76 1635.03,1442.28 1636.47,1443.51 1637.91,1442.93 1639.35,1430.05 1643.68,1425.52 
  1645.12,1411.88 1646.57,1429.09 1648.01,1432.5 1649.45,1430.76 1653.78,1437.25 1655.22,1439 1656.67,1433.92 1658.11,1437.65 1659.55,1441.84 1663.88,1438.43 
  1665.32,1437.13 1666.77,1437.73 1668.21,1429.24 1669.65,1434.88 1673.98,1439.73 1675.42,1430.35 1676.87,1441.61 1678.31,1439.64 1679.75,1436.12 1684.08,1442.03 
  1685.52,1433.64 1686.96,1439.45 1688.41,1432.29 1689.85,1436.47 1694.18,1440.61 1695.62,1440.04 1697.06,1443.4 1698.51,1435.41 1699.95,1438.69 1704.28,1441.9 
  1705.72,1442.3 1707.16,1437.76 1708.61,1437.8 1710.05,1424.7 1714.38,1440.99 1715.82,1433.23 1717.26,1430.07 1718.71,1439.46 1720.15,1434.57 1724.48,1424.93 
  1725.92,1434.6 1727.36,1401.82 1728.8,1405.06 1730.25,1434.66 1734.58,1436.15 1736.02,1442.05 1737.46,1440.81 1738.9,1443.61 1740.35,1442.65 1744.68,1442.73 
  1746.12,1443.01 1747.56,1443.38 1750.45,1445.37 1754.77,1442.56 1756.22,1442.59 1757.66,1435.9 1759.1,1438.35 1760.55,1440.78 1764.87,1443.03 1766.32,1442.87 
  1767.76,1437.84 1769.2,1440.22 1770.64,1443.04 1774.97,1440.81 1776.42,1440.55 1777.86,1416.94 1779.3,1435.64 1780.74,1438.51 1785.07,1442.59 1786.52,1443.13 
  1787.96,1444.69 1789.4,1443.77 1790.84,1445.16 1796.61,1444.08 1798.06,1441.61 1799.5,1441.88 1800.94,1438.37 1806.71,1433.24 1808.16,1441.27 1809.6,1441.83 
  1811.04,1440.67 1815.37,1443.08 1816.81,1441.56 1818.26,1435.6 1819.7,1437.5 1821.14,1443.01 1826.91,1442.6 1828.36,1442.05 1829.8,1440.57 1831.24,1438.58 
  1835.57,1439.35 1837.01,1443.27 1838.45,1442.93 1839.9,1442.95 1841.34,1443.72 1845.67,1438.66 1847.11,1439.87 1848.55,1438.81 1850,1440.25 1851.44,1443.18 
  1855.77,1443.85 1857.21,1443.35 1858.65,1441.66 1860.1,1443.77 1861.54,1444.41 1865.87,1444.32 1867.31,1442.19 1868.75,1442.77 1870.2,1438.04 1871.64,1443.12 
  1877.41,1442.02 1878.85,1443.6 1880.29,1442.21 1881.74,1441.57 1886.07,1443.01 1887.51,1443.11 1888.95,1440.8 1890.39,1440.64 1891.84,1442.56 1896.17,1442.71 
  1897.61,1442.61 1899.05,1441.98 1900.49,1441.6 1901.94,1441.13 1906.26,1444.15 1907.71,1440.85 1909.15,1439.38 1910.59,1442.26 1912.04,1443.76 1916.36,1441.71 
  1917.81,1431.03 1919.25,1435.64 1920.69,1436.54 1922.13,1436.74 1926.46,1437.78 1927.91,1438.18 1929.35,1442.22 1930.79,1442.82 1932.23,1441.92 1936.56,1437.27 
  1938.01,1441.31 1939.45,1431.41 1940.89,1436.26 1942.33,1438.96 1946.66,1437.63 1948.1,1434.53 1949.55,1437.88 1950.99,1437.34 1956.76,1441.6 1958.2,1439.47 
  1959.65,1441.4 1961.09,1441.48 1962.53,1440.91 1966.86,1442.97 1968.3,1443.48 1969.75,1437.97 1971.19,1442.1 1972.63,1442.92 1976.96,1443.35 1978.4,1443.96 
  1979.85,1443.1 1981.29,1441.15 1982.73,1444.03 1987.06,1443.57 1988.5,1443.71 1989.94,1444.31 1991.39,1441.86 1992.83,1444.13 1997.16,1444.1 1998.6,1443.32 
  2000.04,1434.26 2001.49,1430.54 2002.93,1441.17 2007.26,1443.76 2008.7,1444.18 2010.14,1444.31 2011.59,1442.98 2013.03,1444.78 2018.8,1444.52 2020.24,1440.82 
  2021.69,1443.21 2023.13,1443.44 2027.46,1444.34 2028.9,1443.05 2030.34,1442.98 2031.78,1441.4 2033.23,1432.99 2037.56,1438.82 2039,1443.16 2040.44,1438.71 
  2041.88,1440.04 2043.33,1442.05 2047.66,1443.98 2049.1,1442.34 2050.54,1441.41 2051.98,1443.46 2053.43,1443.06 2057.75,1440.94 2059.2,1439 2060.64,1440.13 
  2062.08,1428.71 2063.53,1439.13 2067.85,1441.94 2070.74,1441.64 2072.18,1438.61 2073.62,1442.69 2077.95,1443.84 2079.4,1438.63 2080.84,1442.42 2082.28,1444.36 
  2083.72,1444.36 2088.05,1444.96 2089.5,1442.87 2090.94,1444.74 2092.38,1443.13 2093.82,1444.41 2098.15,1444.81 2099.59,1444.67 2101.04,1443.97 2102.48,1436.59 
  2103.92,1443.31 2108.25,1443.32 2109.69,1443.61 2111.14,1441.27 2112.58,1443.51 2114.02,1443.29 2118.35,1445.39 2119.79,1442.22 2121.24,1439.46 2122.68,1434.96 
  2124.12,1440.17 2128.45,1442.37 2129.89,1443.35 2131.34,1442.61 2132.78,1434.47 2134.22,1435.7 2138.55,1440.84 2139.99,1442.07 2141.43,1441.91 2142.88,1440.12 
  2144.32,1441.59 2148.65,1443.39 2150.09,1442.78 2151.53,1443.21 2152.98,1443.08 2154.42,1443.61 2160.19,1433.53 2161.63,1443.46 2163.08,1441.66 2164.52,1443.59 
  2168.85,1443.23 2170.29,1444.41 2171.73,1444.84 2173.18,1444.56 2174.62,1444.8 2178.95,1444.22 2180.39,1444.48 2181.83,1442.4 2183.27,1443.31 2184.72,1444.8 
  2189.05,1441.17 2190.49,1443.68 2191.93,1442.08 2193.37,1444.26 2194.82,1444.37 2199.15,1444.11 2200.59,1444.54 2202.03,1444.27 2203.47,1444.64 2204.92,1444.39 
  2209.24,1444.73 2210.69,1443.51 2212.13,1444.84 2213.57,1444.65 2215.02,1444.8 2219.34,1444.69 2220.79,1445.25 2222.23,1444.96 2223.67,1444.1 2225.11,1444.52 
  2229.44,1444.28 2230.89,1443.78 2232.33,1438.09 2233.77,1441.56 2235.21,1441.62 2239.54,1442.38 2240.99,1444.64 2242.43,1442.5 2243.87,1440.26 2245.31,1444.48 
  2249.64,1444.98 2251.08,1443.07 2252.53,1444.04 2253.97,1436 2255.41,1443.6 2259.74,1444.36 2261.18,1439.05 2262.63,1437.97 2264.07,1443.17 2265.51,1444.15 
  2269.84,1444.42 2271.28,1444.35 2272.73,1445.1 2275.61,1445.66 2279.94,1444.4 2281.38,1442.09 2282.83,1440.28 2284.27,1436.04 2285.71,1413.98 2290.04,1437.78 
  
  "/>
<polyline clip-path="url(#clip682)" style="stroke:#e26f46; stroke-width:4; stroke-opacity:1; fill:none" points="
  199.477,1437.92 200.92,1441.21 202.363,1409.81 203.806,1441.13 205.248,1442.79 209.577,1443.96 211.019,1445.72 213.905,1445.23 215.348,1444.08 219.676,1444.96 
  221.119,1443.62 224.004,1435.13 225.447,1440.59 229.775,1438.65 231.218,1441.64 232.661,1438.42 234.104,1442.4 235.546,1441.5 239.875,1437.63 241.317,1438.93 
  242.76,1443.41 244.203,1441.44 245.646,1443.32 251.417,1437.14 252.859,1442.8 254.302,1433.79 255.745,1426.96 260.073,1417.52 261.516,1437.57 262.959,1418.19 
  264.402,1437.01 265.844,1423.5 270.173,1411.81 271.615,1423.36 273.058,1413.45 274.501,1437.9 275.944,1434.98 280.272,1442.64 281.715,1440.57 283.157,1437.96 
  284.6,1441.19 286.043,1440.16 291.814,1441.28 293.257,1437.36 294.7,1437.84 296.142,1440.49 300.471,1438.27 301.913,1436.56 303.356,1437.9 304.799,1437.64 
  306.242,1432.96 310.57,1425.67 312.013,1437.5 313.455,1440.74 314.898,1441.93 316.341,1436.34 320.669,1440.81 322.112,1437.17 323.555,1433.71 324.998,1428.61 
  326.44,1428.22 330.769,1430.89 332.211,1437.92 333.654,1435.32 335.097,1437.54 336.54,1432.41 340.868,1429.23 342.311,1434.79 343.753,1435.87 345.196,1420.56 
  346.639,1434.9 350.967,1437.3 352.41,1441.33 353.853,1441.47 355.296,1441.48 356.738,1426.62 361.067,1426.04 362.509,1431.54 363.952,1437.16 365.395,1420.33 
  366.838,1415.39 371.166,1430.6 372.609,1414.57 374.051,1434.88 375.494,1438.02 381.265,1442.22 382.708,1442.55 384.151,1442.19 385.594,1430.54 387.036,1435.72 
  391.365,1420.18 392.807,1440.07 394.25,1436.09 395.693,1437.88 397.136,1435.2 401.464,1439.36 402.907,1437.94 404.349,1418.84 405.792,1435.51 407.235,1434.87 
  411.563,1443.55 413.006,1442.86 414.449,1441.48 415.891,1428.11 417.334,1438.5 421.663,1442.58 423.105,1438.78 424.548,1438.7 425.991,1442.74 427.434,1444.58 
  433.205,1442.21 434.647,1442.67 436.09,1443.48 437.533,1443.76 441.861,1439.71 443.304,1443.29 444.747,1443.37 446.189,1440.96 447.632,1443.67 451.961,1443.73 
  453.403,1442.41 454.846,1442.43 456.289,1440.31 457.732,1439.66 462.06,1440.87 463.503,1441.5 464.945,1440.55 466.388,1443.08 467.831,1444.24 472.159,1444.12 
  473.602,1439.15 475.045,1440.8 476.487,1439.29 477.93,1442.64 482.259,1443.53 483.701,1443.16 485.144,1443.98 486.587,1444.69 492.358,1443.35 493.801,1437.26 
  495.243,1441.21 496.686,1436.91 498.129,1441.9 502.457,1444.31 503.9,1436.65 505.343,1442.62 506.785,1432.83 508.228,1442.67 512.557,1441.12 513.999,1443.88 
  515.442,1443.75 516.885,1443.48 518.328,1440.76 522.656,1439.82 524.099,1439.68 525.541,1434.39 526.984,1424.68 528.427,1420.86 532.755,1439.3 534.198,1420.08 
  535.641,1431.26 537.083,1428.27 538.526,1436.97 542.855,1442.39 544.297,1440.05 545.74,1442.13 547.183,1444.01 548.626,1429.07 552.954,1443.96 554.397,1444.51 
  555.839,1443.37 557.282,1443.14 558.725,1441.47 563.053,1444.67 564.496,1444.93 565.939,1444.29 567.381,1443.34 568.824,1444.05 574.595,1441.65 576.038,1442.81 
  577.481,1440.59 578.924,1439 583.252,1441.1 584.695,1437.84 586.137,1437.51 587.58,1440.14 589.023,1437.6 593.351,1441.07 594.794,1440.16 596.237,1425.96 
  597.679,1442.25 599.122,1441.84 603.451,1440.57 604.893,1437.75 606.336,1439.95 607.779,1428.74 609.222,1436.92 613.55,1431.96 614.993,1433.08 616.435,1425.3 
  617.878,1425.85 619.321,1427.28 623.649,1433.56 625.092,1430.98 626.535,1417.45 627.977,1402.71 629.42,1405.17 633.749,1395.92 635.191,1399.46 636.634,1290.75 
  638.077,1364.47 639.52,1416.65 643.848,1429.51 645.291,1436.69 646.733,1426.42 648.176,1429.45 649.619,1436.76 653.947,1434.77 655.39,1440.73 656.833,1427.89 
  658.275,1435.97 659.718,1440.29 664.047,1438.47 665.489,1437.43 666.932,1436.92 668.375,1440.12 669.818,1439.64 674.146,1443.64 675.589,1444.11 677.031,1441.96 
  678.474,1437.47 679.917,1442.85 684.245,1441.23 685.688,1443.2 687.131,1439.19 688.573,1442.82 690.016,1437.89 694.345,1444.46 695.787,1443.21 697.23,1444.71 
  700.116,1444.09 704.444,1435.45 705.887,1442.21 707.329,1444.04 708.772,1440.78 710.215,1442.07 714.543,1435.14 715.986,1431.79 717.429,1427.93 718.871,1425.05 
  720.314,1416.06 724.643,1401 726.085,1396.48 727.528,1388.3 728.971,1424.34 730.414,1433.67 734.742,1441.98 736.185,1443.91 737.627,1444.88 740.513,1444.36 
  744.841,1444.25 746.284,1443.15 747.727,1439.02 750.612,1421.18 754.941,1421.88 756.383,1403.87 757.826,1425.92 759.269,1436.54 760.712,1428.12 765.04,1424 
  766.483,1403.09 767.925,1410 769.368,1410.47 770.811,1423.15 776.582,1419.04 778.025,1412.55 779.467,1423.08 780.91,1436.92 785.239,1438.74 786.681,1427.46 
  788.124,1414.52 789.567,1406.22 791.01,1413.7 795.338,1404.03 796.781,1430.13 798.223,1424.76 799.666,1438.52 801.109,1430.52 805.437,1433.16 806.88,1436.91 
  808.323,1438.19 809.765,1441 811.208,1442.51 816.979,1442.47 818.422,1440.25 819.865,1442.62 821.308,1439.58 825.636,1443.53 827.079,1443.04 828.521,1443.22 
  829.964,1439.37 831.407,1442.23 835.735,1444 837.178,1438.11 838.621,1435.64 840.063,1442.19 841.506,1434.46 845.835,1441.02 847.277,1429.83 848.72,1432.65 
  850.163,1438.54 851.606,1425.56 855.934,1438.98 857.377,1438.35 858.819,1419.15 860.262,1437.77 861.705,1441.22 866.033,1441.29 867.476,1439.05 868.919,1428.25 
  870.361,1426.79 871.804,1434.1 876.133,1437.85 877.575,1434.22 879.018,1425.43 880.461,1436.56 886.232,1436.8 887.675,1441.48 889.117,1428.18 890.56,1437.36 
  892.003,1443.6 896.331,1441.81 897.774,1438.33 899.217,1440.79 900.659,1440.53 902.102,1435.86 906.431,1442.03 907.873,1439.31 909.316,1439.77 910.759,1440.93 
  912.202,1442.58 916.53,1437.53 917.973,1430.64 919.415,1430.69 920.858,1428.97 922.301,1438.93 926.629,1441.23 928.072,1433.39 929.515,1416.35 930.957,1434.07 
  932.4,1441.17 936.729,1440.1 938.171,1429.19 939.614,1437.09 941.057,1442.38 942.5,1441.75 946.828,1444.35 948.271,1442.41 949.713,1440.72 951.156,1443.25 
  952.599,1442.46 958.37,1437.83 959.813,1440.52 961.255,1439.66 962.698,1437.4 967.026,1433.78 968.469,1435.49 969.912,1441.4 971.355,1436.18 972.798,1435.4 
  977.126,1441.37 978.569,1438.7 980.011,1440.76 981.454,1441.62 982.897,1437.68 987.225,1434.56 988.668,1438.12 990.111,1435.49 991.553,1439.32 992.996,1442.91 
  997.324,1437.71 998.767,1443.32 1000.21,1442.19 1001.65,1439.7 1003.1,1437.44 1007.42,1432.08 1008.87,1428.16 1010.31,1434.56 1011.75,1439.67 1017.52,1428 
  1018.97,1417.25 1020.41,1421.57 1021.85,1430.15 1023.29,1438.73 1027.62,1442.67 1029.07,1444.18 1030.51,1440.75 1031.95,1442.45 1033.39,1444.47 1037.72,1442.97 
  1039.16,1442.54 1040.61,1442.04 1042.05,1441.35 1043.49,1438.13 1047.82,1429.91 1049.26,1436.12 1050.71,1438.56 1052.15,1438.18 1053.59,1441.58 1057.92,1436.2 
  1059.36,1438.76 1060.81,1437.33 1062.25,1435.76 1063.69,1435.37 1068.02,1442.2 1069.46,1433.69 1070.91,1418.03 1072.35,1435.29 1073.79,1440.99 1078.12,1438.79 
  1079.56,1441.62 1081,1419.23 1082.45,1416.68 1083.89,1377.11 1088.22,658.821 1089.66,1304.75 1091.1,1262.06 1092.55,1346.65 1093.99,1413.04 1098.32,1404.43 
  1099.76,1381.98 1101.2,1404.77 1102.65,1414.24 1104.09,1403.82 1109.86,1423.78 1111.3,1420.33 1112.75,1417.68 1114.19,1428.48 1118.52,1433.43 1119.96,1436.62 
  1121.4,1435.72 1122.84,1387.61 1124.29,1411.09 1128.62,1426.38 1130.06,1413.39 1131.5,1428.42 1132.94,1410.57 1134.39,1412.3 1138.72,1417.68 1140.16,1397.49 
  1141.6,1403.75 1143.04,1399.7 1144.49,1398.77 1148.81,1424.23 1150.26,1429.23 1151.7,1418.05 1153.14,1426.98 1154.59,1435.24 1158.91,1441.55 1160.36,1436.68 
  1161.8,1429.76 1163.24,1434.36 1164.68,1438.42 1169.01,1436.45 1170.46,1436.05 1171.9,1428.09 1173.34,1434.91 1174.78,1435.25 1179.11,1440.9 1180.56,1436.54 
  1182,1424.36 1183.44,1437.4 1184.88,1435.28 1189.21,1440.3 1190.65,1439.4 1192.1,1432.59 1193.54,1434.23 1194.98,1433.72 1199.31,1428.48 1200.75,1435.06 
  1202.2,1439.46 1203.64,1428.02 1205.08,1430.58 1209.41,1432.25 1210.85,1423.45 1212.3,1431.55 1213.74,1437.13 1215.18,1439.96 1219.51,1437.92 1220.95,1433.29 
  1222.4,1442.41 1225.28,1444.22 1229.61,1440.53 1231.05,1434.54 1232.49,1437.14 1233.94,1420.63 1235.38,1424.92 1239.71,1421.31 1241.15,1416.44 1242.59,1408.74 
  1244.04,1422.1 1245.48,1422.39 1249.81,1383.58 1251.25,1430.55 1252.69,1420.03 1254.14,1418.32 1255.58,1413.91 1259.91,1426.48 1261.35,1433.38 1262.79,1441.02 
  1264.24,1443.43 1270.01,1438.76 1271.45,1440.68 1272.89,1441.28 1274.33,1436.18 1280.11,1413.83 1281.55,1423.03 1282.99,1412.79 1284.43,1357.87 1285.88,1390.7 
  1290.21,1384.53 1291.65,1391.71 1293.09,1381.84 1294.53,1380.52 1295.98,1376.89 1301.75,1391.5 1303.19,1296.66 1304.63,1336.44 1306.08,1416.63 1310.4,1425.43 
  1311.85,1410.91 1313.29,1402.08 1314.73,1365.08 1316.17,1423.31 1320.5,1408.84 1321.95,1414.19 1323.39,1342.05 1324.83,1366.27 1326.27,1399.36 1330.6,1369.71 
  1332.05,1332.04 1333.49,1388.52 1334.93,1370.85 1336.37,1428.51 1342.14,1426.54 1343.59,1431.73 1345.03,1428.44 1346.47,1422.78 1350.8,1430.17 1352.24,1432.83 
  1353.69,1417.84 1355.13,1419.45 1356.57,1430.22 1360.9,1427.67 1362.34,1429.29 1363.79,1431.76 1365.23,1435.9 1366.67,1429.19 1371,1428.94 1372.44,1429.52 
  1373.89,1431.26 1375.33,1409.59 1376.77,1438.64 1381.1,1438.44 1382.54,1440.46 1383.98,1426.37 1385.43,1437.15 1386.87,1436.92 1391.2,1440.63 1392.64,1438.83 
  1394.08,1438.73 1395.53,1439.29 1401.3,1441.29 1402.74,1437.95 1404.18,1437.45 1405.63,1441.3 1407.07,1435.83 1411.4,1440.88 1412.84,1434.39 1414.28,1434.92 
  1415.73,1429.79 1417.17,1436.44 1421.5,1435.65 1422.94,1435.43 1424.38,1437.61 1425.82,1440.51 1427.27,1444.01 1431.6,1440.67 1433.04,1440.11 1434.48,1440.57 
  1435.92,1436.69 1437.37,1438.59 1441.7,1441.09 1443.14,1439.83 1444.58,1438.56 1446.02,1432.68 1447.47,1425.76 1451.79,1438.67 1453.24,1436.12 1454.68,1434.78 
  1456.12,1434.69 1457.57,1429.34 1461.89,1439.23 1463.34,1441.42 1464.78,1440.95 1466.22,1432.47 1467.66,1434.76 1471.99,1439.15 1473.44,1435.64 1474.88,1423.68 
  1476.32,1420.69 1477.76,1440.2 1482.09,1442.38 1483.54,1439.65 1484.98,1440.32 1486.42,1441.73 1487.86,1443.65 1493.63,1440.51 1495.08,1440.22 1496.52,1442.18 
  1497.96,1436.02 1502.29,1440.48 1503.73,1443.89 1505.18,1442.27 1506.62,1441.08 1508.06,1436.58 1512.39,1435.83 1513.83,1429.24 1515.28,1437.23 1516.72,1424.91 
  1518.16,1434.25 1522.49,1435.94 1523.93,1438.17 1525.38,1438.71 1526.82,1439.2 1528.26,1390.61 1532.59,1407.33 1534.03,1424.07 1535.47,1434.05 1536.92,1435.26 
  1538.36,1441.26 1544.13,1438.31 1545.57,1432.11 1547.02,1435.07 1548.46,1441.05 1552.79,1441.3 1554.23,1442.73 1555.67,1442 1557.12,1440.06 1558.56,1441.97 
  1562.89,1444.08 1564.33,1443.99 1565.77,1444.37 1567.22,1442.09 1568.66,1443.84 1572.99,1442.5 1574.43,1440.06 1575.87,1440.61 1577.31,1439.58 1578.76,1440.96 
  1583.09,1438.98 1584.53,1437.95 1585.97,1442.87 1587.41,1443.26 1588.86,1443.37 1593.19,1444.16 1594.63,1444.3 1596.07,1442.35 1597.51,1443.91 1598.96,1444.09 
  1603.28,1444.83 1604.73,1442.85 1606.17,1440.73 1607.61,1443.66 1609.06,1441.9 1613.38,1440.69 1614.83,1444.39 1616.27,1443.54 1617.71,1440.8 1619.15,1433.81 
  1623.48,1443.36 1624.93,1441.55 1626.37,1442.4 1627.81,1437.94 1629.25,1440.93 1635.03,1443 1636.47,1443.77 1637.91,1442.63 1639.35,1433.08 1643.68,1427.58 
  1645.12,1414.22 1646.57,1429.23 1648.01,1432.14 1649.45,1438.03 1653.78,1438.67 1655.22,1440.31 1656.67,1436.16 1658.11,1442.41 1659.55,1442.02 1663.88,1439.35 
  1665.32,1437.44 1666.77,1439.12 1668.21,1428.88 1669.65,1439.03 1673.98,1439.71 1675.42,1433.69 1676.87,1441.49 1678.31,1440.64 1679.75,1435.81 1684.08,1444.42 
  1685.52,1434.39 1686.96,1439.6 1688.41,1434.56 1689.85,1438.3 1694.18,1441.72 1695.62,1441.34 1697.06,1443.6 1698.51,1434.72 1699.95,1442.26 1704.28,1443.49 
  1705.72,1443.05 1707.16,1439.66 1708.61,1437.99 1710.05,1423.72 1714.38,1441.04 1715.82,1433.99 1717.26,1427.98 1718.71,1439.91 1720.15,1435.51 1724.48,1437.37 
  1725.92,1438.08 1727.36,1404.91 1728.8,1409.34 1730.25,1434.53 1734.58,1436.47 1736.02,1442.11 1737.46,1440.92 1738.9,1443.7 1740.35,1442.66 1744.68,1443.85 
  1746.12,1443.25 1747.56,1443.65 1750.45,1445.53 1754.77,1443.12 1756.22,1442.38 1757.66,1438.75 1759.1,1437.75 1760.55,1441.08 1764.87,1442.62 1766.32,1443.34 
  1767.76,1439.98 1769.2,1439.86 1770.64,1442.91 1774.97,1440.62 1776.42,1441.03 1777.86,1420.07 1779.3,1435.55 1780.74,1438.73 1785.07,1442.32 1786.52,1443.43 
  1787.96,1444.72 1789.4,1443.92 1790.84,1445.04 1796.61,1444.68 1798.06,1441.75 1799.5,1443 1800.94,1440.36 1806.71,1433.62 1808.16,1442.78 1809.6,1443.3 
  1811.04,1441.95 1815.37,1443.29 1816.81,1442.66 1818.26,1436.04 1819.7,1437.74 1821.14,1444.21 1826.91,1442.93 1828.36,1443.28 1829.8,1441.61 1831.24,1438.31 
  1835.57,1439.85 1837.01,1443.32 1838.45,1442.9 1839.9,1442.77 1841.34,1444.06 1845.67,1439.07 1847.11,1440.34 1848.55,1440.02 1850,1441.9 1851.44,1443.13 
  1855.77,1444.03 1857.21,1443.29 1858.65,1442.66 1860.1,1443.88 1861.54,1444.57 1865.87,1443.97 1867.31,1442.99 1868.75,1442.55 1870.2,1436.86 1871.64,1443.36 
  1877.41,1442.72 1878.85,1444.04 1880.29,1443 1881.74,1441.95 1886.07,1442.49 1887.51,1443.71 1888.95,1440.78 1890.39,1441.68 1891.84,1442.22 1896.17,1443.08 
  1897.61,1442.74 1899.05,1442.29 1900.49,1441.73 1901.94,1440.58 1906.26,1444.49 1907.71,1441.95 1909.15,1441.02 1910.59,1442.16 1912.04,1444.41 1916.36,1442.72 
  1917.81,1433.43 1919.25,1437.44 1920.69,1435.53 1922.13,1437.78 1926.46,1438.38 1927.91,1440.61 1929.35,1442.49 1930.79,1442.94 1932.23,1442.98 1936.56,1439.29 
  1938.01,1441.37 1939.45,1433.94 1940.89,1436.46 1942.33,1439.34 1946.66,1438.83 1948.1,1434.33 1949.55,1438.44 1950.99,1437.83 1956.76,1441.79 1958.2,1439.74 
  1959.65,1441.84 1961.09,1441.82 1962.53,1441.27 1966.86,1443.47 1968.3,1443.56 1969.75,1437.61 1971.19,1442.73 1972.63,1443.42 1976.96,1443.18 1978.4,1443.87 
  1979.85,1443.34 1981.29,1441.03 1982.73,1444.37 1987.06,1444.1 1988.5,1443.79 1989.94,1444.41 1991.39,1441.81 1992.83,1444.56 1997.16,1444.84 1998.6,1443.33 
  2000.04,1433.49 2001.49,1431.78 2002.93,1442.14 2007.26,1443.88 2008.7,1444.31 2010.14,1444.04 2011.59,1442.97 2013.03,1444.62 2018.8,1444.55 2020.24,1441.08 
  2021.69,1443.43 2023.13,1443.87 2027.46,1444.67 2028.9,1443.72 2030.34,1443.63 2031.78,1440.96 2033.23,1432.17 2037.56,1439.16 2039,1443.88 2040.44,1439.53 
  2041.88,1440.42 2043.33,1441.88 2047.66,1444.84 2049.1,1442.83 2050.54,1441.99 2051.98,1443.29 2053.43,1443.22 2057.75,1441.94 2059.2,1440.4 2060.64,1439.9 
  2062.08,1430.67 2063.53,1440.12 2067.85,1443.14 2070.74,1441.9 2072.18,1439.61 2073.62,1442.98 2077.95,1444.51 2079.4,1440.67 2080.84,1443.08 2082.28,1444.12 
  2083.72,1444.34 2088.05,1445.04 2089.5,1442.94 2090.94,1444.79 2092.38,1443.15 2093.82,1444.17 2098.15,1444.87 2099.59,1444.91 2101.04,1443.91 2102.48,1436.53 
  2103.92,1443.27 2108.25,1443.21 2109.69,1444.08 2111.14,1441.66 2112.58,1444.44 2114.02,1443.5 2118.35,1445.43 2119.79,1442.63 2121.24,1439.85 2122.68,1435.34 
  2124.12,1441.11 2128.45,1443.31 2129.89,1443.19 2131.34,1442.94 2132.78,1434.57 2134.22,1437.78 2138.55,1440.94 2139.99,1442.28 2141.43,1441.51 2142.88,1440.1 
  2144.32,1442.67 2148.65,1443.9 2150.09,1443.23 2151.53,1443.46 2152.98,1443.25 2154.42,1444.28 2160.19,1435.7 2161.63,1443.59 2163.08,1442.52 2164.52,1443.52 
  2168.85,1444.03 2170.29,1444.59 2171.73,1444.85 2173.18,1444.71 2174.62,1444.82 2178.95,1444.35 2180.39,1444.77 2181.83,1443.5 2183.27,1443.18 2184.72,1444.94 
  2189.05,1441.6 2190.49,1443.57 2191.93,1442.64 2193.37,1444.32 2194.82,1444.36 2199.15,1444.35 2200.59,1444.43 2202.03,1444.43 2203.47,1444.58 2204.92,1444.31 
  2209.24,1444.55 2210.69,1443.51 2212.13,1444.97 2213.57,1444.83 2215.02,1444.86 2219.34,1445.13 2220.79,1445.35 2222.23,1445.15 2223.67,1444.07 2225.11,1445.04 
  2229.44,1444.4 2230.89,1443.89 2232.33,1438.11 2233.77,1442.82 2235.21,1442.11 2239.54,1442.42 2240.99,1444.94 2242.43,1442.69 2243.87,1439.56 2245.31,1444.61 
  2249.64,1445.16 2251.08,1443.43 2252.53,1444.21 2253.97,1435.62 2255.41,1443.99 2259.74,1444.11 2261.18,1439.66 2262.63,1439.81 2264.07,1443.95 2265.51,1444.55 
  2269.84,1444.29 2271.28,1444.6 2272.73,1445.28 2275.61,1445.65 2279.94,1444.29 2281.38,1442.15 2282.83,1441.61 2284.27,1437.21 2285.71,1412.28 2290.04,1437.45 
  
  "/>
<path clip-path="url(#clip680)" d="
M1976.3 276.658 L2278.89 276.658 L2278.89 95.2176 L1976.3 95.2176  Z
  " fill="#ffffff" fill-rule="evenodd" fill-opacity="1"/>
<polyline clip-path="url(#clip680)" style="stroke:#000000; stroke-width:4; stroke-opacity:1; fill:none" points="
  1976.3,276.658 2278.89,276.658 2278.89,95.2176 1976.3,95.2176 1976.3,276.658 
  "/>
<polyline clip-path="url(#clip680)" style="stroke:#009af9; stroke-width:4; stroke-opacity:1; fill:none" points="
  2000.92,155.698 2148.66,155.698 
  "/>
<path clip-path="url(#clip680)" d="M 0 0 M2189.67 156.774 Q2191.17 157.283 2192.59 158.95 Q2194.02 160.617 2195.46 163.533 L2200.2 172.978 L2195.18 172.978 L2190.76 164.112 Q2189.04 160.64 2187.42 159.505 Q2185.83 158.371 2183.05 158.371 L2177.96 158.371 L2177.96 172.978 L2173.28 172.978 L2173.28 138.418 L2183.84 138.418 Q2189.76 138.418 2192.68 140.894 Q2195.59 143.371 2195.59 148.371 Q2195.59 151.635 2194.07 153.788 Q2192.56 155.941 2189.67 156.774 M2177.96 142.26 L2177.96 154.529 L2183.84 154.529 Q2187.21 154.529 2188.93 152.978 Q2190.66 151.404 2190.66 148.371 Q2190.66 145.339 2188.93 143.811 Q2187.21 142.26 2183.84 142.26 L2177.96 142.26 Z" fill="#000000" fill-rule="evenodd" fill-opacity="1" /><path clip-path="url(#clip680)" d="M 0 0 M2211.17 172.978 L2197.98 138.418 L2202.86 138.418 L2213.81 167.515 L2224.78 138.418 L2229.65 138.418 L2216.47 172.978 L2211.17 172.978 Z" fill="#000000" fill-rule="evenodd" fill-opacity="1" /><polyline clip-path="url(#clip680)" style="stroke:#e26f46; stroke-width:4; stroke-opacity:1; fill:none" points="
  2000.92,216.178 2148.66,216.178 
  "/>
<path clip-path="url(#clip680)" d="M 0 0 M2177.96 216.953 L2177.96 229.615 L2185.46 229.615 Q2189.23 229.615 2191.03 228.064 Q2192.86 226.49 2192.86 223.272 Q2192.86 220.032 2191.03 218.504 Q2189.23 216.953 2185.46 216.953 L2177.96 216.953 M2177.96 202.74 L2177.96 213.157 L2184.88 213.157 Q2188.3 213.157 2189.97 211.884 Q2191.66 210.587 2191.66 207.948 Q2191.66 205.333 2189.97 204.036 Q2188.3 202.74 2184.88 202.74 L2177.96 202.74 M2173.28 198.898 L2185.22 198.898 Q2190.57 198.898 2193.46 201.12 Q2196.36 203.342 2196.36 207.439 Q2196.36 210.61 2194.88 212.485 Q2193.4 214.36 2190.52 214.823 Q2193.97 215.564 2195.87 217.925 Q2197.79 220.263 2197.79 223.782 Q2197.79 228.411 2194.65 230.934 Q2191.5 233.458 2185.69 233.458 L2173.28 233.458 L2173.28 198.898 Z" fill="#000000" fill-rule="evenodd" fill-opacity="1" /><path clip-path="url(#clip680)" d="M 0 0 M2209.9 233.458 L2196.71 198.898 L2201.59 198.898 L2212.54 227.995 L2223.51 198.898 L2228.37 198.898 L2215.2 233.458 L2209.9 233.458 Z" fill="#000000" fill-rule="evenodd" fill-opacity="1" /></svg>
