<?xml version="1.0" encoding="utf-8"?>
<svg xmlns="http://www.w3.org/2000/svg" xmlns:xlink="http://www.w3.org/1999/xlink" width="600" height="400" viewBox="0 0 2400 1600">
<defs>
  <clipPath id="clip230">
    <rect x="0" y="0" width="2400" height="1600"/>
  </clipPath>
</defs>
<path clip-path="url(#clip230)" d="
M0 1600 L2400 1600 L2400 0 L0 0  Z
  " fill="#ffffff" fill-rule="evenodd" fill-opacity="1"/>
<defs>
  <clipPath id="clip231">
    <rect x="480" y="0" width="1681" height="1600"/>
  </clipPath>
</defs>
<path clip-path="url(#clip230)" d="
M140.696 1486.45 L2352.76 1486.45 L2352.76 47.2441 L140.696 47.2441  Z
  " fill="#ffffff" fill-rule="evenodd" fill-opacity="1"/>
<defs>
  <clipPath id="clip232">
    <rect x="140" y="47" width="2213" height="1440"/>
  </clipPath>
</defs>
<polyline clip-path="url(#clip232)" style="stroke:#000000; stroke-linecap:butt; stroke-linejoin:round; stroke-width:2; stroke-opacity:0.1; fill:none" points="
  226.344,1486.45 226.344,47.2441 
  "/>
<polyline clip-path="url(#clip232)" style="stroke:#000000; stroke-linecap:butt; stroke-linejoin:round; stroke-width:2; stroke-opacity:0.1; fill:none" points="
  752.017,1486.45 752.017,47.2441 
  "/>
<polyline clip-path="url(#clip232)" style="stroke:#000000; stroke-linecap:butt; stroke-linejoin:round; stroke-width:2; stroke-opacity:0.1; fill:none" points="
  1277.69,1486.45 1277.69,47.2441 
  "/>
<polyline clip-path="url(#clip232)" style="stroke:#000000; stroke-linecap:butt; stroke-linejoin:round; stroke-width:2; stroke-opacity:0.1; fill:none" points="
  1804.8,1486.45 1804.8,47.2441 
  "/>
<polyline clip-path="url(#clip232)" style="stroke:#000000; stroke-linecap:butt; stroke-linejoin:round; stroke-width:2; stroke-opacity:0.1; fill:none" points="
  2330.48,1486.45 2330.48,47.2441 
  "/>
<polyline clip-path="url(#clip230)" style="stroke:#000000; stroke-linecap:butt; stroke-linejoin:round; stroke-width:4; stroke-opacity:1; fill:none" points="
  140.696,1486.45 2352.76,1486.45 
  "/>
<polyline clip-path="url(#clip230)" style="stroke:#000000; stroke-linecap:butt; stroke-linejoin:round; stroke-width:4; stroke-opacity:1; fill:none" points="
  226.344,1486.45 226.344,1467.55 
  "/>
<polyline clip-path="url(#clip230)" style="stroke:#000000; stroke-linecap:butt; stroke-linejoin:round; stroke-width:4; stroke-opacity:1; fill:none" points="
  752.017,1486.45 752.017,1467.55 
  "/>
<polyline clip-path="url(#clip230)" style="stroke:#000000; stroke-linecap:butt; stroke-linejoin:round; stroke-width:4; stroke-opacity:1; fill:none" points="
  1277.69,1486.45 1277.69,1467.55 
  "/>
<polyline clip-path="url(#clip230)" style="stroke:#000000; stroke-linecap:butt; stroke-linejoin:round; stroke-width:4; stroke-opacity:1; fill:none" points="
  1804.8,1486.45 1804.8,1467.55 
  "/>
<polyline clip-path="url(#clip230)" style="stroke:#000000; stroke-linecap:butt; stroke-linejoin:round; stroke-width:4; stroke-opacity:1; fill:none" points="
  2330.48,1486.45 2330.48,1467.55 
  "/>
<path clip-path="url(#clip230)" d="M98.1389 1543.18 L114.458 1543.18 L114.458 1547.12 L92.5139 1547.12 L92.5139 1543.18 Q95.1759 1540.43 99.7592 1535.8 Q104.366 1531.15 105.546 1529.81 Q107.792 1527.28 108.671 1525.55 Q109.574 1523.79 109.574 1522.1 Q109.574 1519.34 107.63 1517.61 Q105.708 1515.87 102.606 1515.87 Q100.407 1515.87 97.9537 1516.63 Q95.5232 1517.4 92.7454 1518.95 L92.7454 1514.23 Q95.5695 1513.09 98.0231 1512.51 Q100.477 1511.93 102.514 1511.93 Q107.884 1511.93 111.079 1514.62 Q114.273 1517.31 114.273 1521.8 Q114.273 1523.93 113.463 1525.85 Q112.676 1527.74 110.569 1530.34 Q109.991 1531.01 106.889 1534.23 Q103.787 1537.42 98.1389 1543.18 Z" fill="#000000" fill-rule="evenodd" fill-opacity="1" /><path clip-path="url(#clip230)" d="M134.273 1515.64 Q130.662 1515.64 128.833 1519.2 Q127.028 1522.75 127.028 1529.87 Q127.028 1536.98 128.833 1540.55 Q130.662 1544.09 134.273 1544.09 Q137.907 1544.09 139.713 1540.55 Q141.541 1536.98 141.541 1529.87 Q141.541 1522.75 139.713 1519.2 Q137.907 1515.64 134.273 1515.64 M134.273 1511.93 Q140.083 1511.93 143.139 1516.54 Q146.217 1521.12 146.217 1529.87 Q146.217 1538.6 143.139 1543.21 Q140.083 1547.79 134.273 1547.79 Q128.463 1547.79 125.384 1543.21 Q122.329 1538.6 122.329 1529.87 Q122.329 1521.12 125.384 1516.54 Q128.463 1511.93 134.273 1511.93 Z" fill="#000000" fill-rule="evenodd" fill-opacity="1" /><path clip-path="url(#clip230)" d="M155.245 1543.18 L162.884 1543.18 L162.884 1516.82 L154.574 1518.49 L154.574 1514.23 L162.838 1512.56 L167.514 1512.56 L167.514 1543.18 L175.152 1543.18 L175.152 1547.12 L155.245 1547.12 L155.245 1543.18 Z" fill="#000000" fill-rule="evenodd" fill-opacity="1" /><path clip-path="url(#clip230)" d="M197.444 1516.63 L185.638 1535.08 L197.444 1535.08 L197.444 1516.63 M196.217 1512.56 L202.097 1512.56 L202.097 1535.08 L207.027 1535.08 L207.027 1538.97 L202.097 1538.97 L202.097 1547.12 L197.444 1547.12 L197.444 1538.97 L181.842 1538.97 L181.842 1534.46 L196.217 1512.56 Z" fill="#000000" fill-rule="evenodd" fill-opacity="1" /><path clip-path="url(#clip230)" d="M212.004 1532.24 L224.481 1532.24 L224.481 1536.03 L212.004 1536.03 L212.004 1532.24 Z" fill="#000000" fill-rule="evenodd" fill-opacity="1" /><path clip-path="url(#clip230)" d="M241.865 1515.64 Q238.254 1515.64 236.425 1519.2 Q234.62 1522.75 234.62 1529.87 Q234.62 1536.98 236.425 1540.55 Q238.254 1544.09 241.865 1544.09 Q245.499 1544.09 247.305 1540.55 Q249.133 1536.98 249.133 1529.87 Q249.133 1522.75 247.305 1519.2 Q245.499 1515.64 241.865 1515.64 M241.865 1511.93 Q247.675 1511.93 250.731 1516.54 Q253.809 1521.12 253.809 1529.87 Q253.809 1538.6 250.731 1543.21 Q247.675 1547.79 241.865 1547.79 Q236.055 1547.79 232.976 1543.21 Q229.921 1538.6 229.921 1529.87 Q229.921 1521.12 232.976 1516.54 Q236.055 1511.93 241.865 1511.93 Z" fill="#000000" fill-rule="evenodd" fill-opacity="1" /><path clip-path="url(#clip230)" d="M262.837 1543.18 L270.476 1543.18 L270.476 1516.82 L262.166 1518.49 L262.166 1514.23 L270.43 1512.56 L275.106 1512.56 L275.106 1543.18 L282.744 1543.18 L282.744 1547.12 L262.837 1547.12 L262.837 1543.18 Z" fill="#000000" fill-rule="evenodd" fill-opacity="1" /><path clip-path="url(#clip230)" d="M289.434 1532.24 L301.911 1532.24 L301.911 1536.03 L289.434 1536.03 L289.434 1532.24 Z" fill="#000000" fill-rule="evenodd" fill-opacity="1" /><path clip-path="url(#clip230)" d="M319.295 1515.64 Q315.684 1515.64 313.855 1519.2 Q312.05 1522.75 312.05 1529.87 Q312.05 1536.98 313.855 1540.55 Q315.684 1544.09 319.295 1544.09 Q322.929 1544.09 324.735 1540.55 Q326.564 1536.98 326.564 1529.87 Q326.564 1522.75 324.735 1519.2 Q322.929 1515.64 319.295 1515.64 M319.295 1511.93 Q325.105 1511.93 328.161 1516.54 Q331.239 1521.12 331.239 1529.87 Q331.239 1538.6 328.161 1543.21 Q325.105 1547.79 319.295 1547.79 Q313.485 1547.79 310.406 1543.21 Q307.351 1538.6 307.351 1529.87 Q307.351 1521.12 310.406 1516.54 Q313.485 1511.93 319.295 1511.93 Z" fill="#000000" fill-rule="evenodd" fill-opacity="1" /><path clip-path="url(#clip230)" d="M340.267 1543.18 L347.906 1543.18 L347.906 1516.82 L339.596 1518.49 L339.596 1514.23 L347.86 1512.56 L352.536 1512.56 L352.536 1543.18 L360.175 1543.18 L360.175 1547.12 L340.267 1547.12 L340.267 1543.18 Z" fill="#000000" fill-rule="evenodd" fill-opacity="1" /><path clip-path="url(#clip230)" d="M623.812 1543.18 L640.131 1543.18 L640.131 1547.12 L618.187 1547.12 L618.187 1543.18 Q620.849 1540.43 625.432 1535.8 Q630.039 1531.15 631.219 1529.81 Q633.465 1527.28 634.344 1525.55 Q635.247 1523.79 635.247 1522.1 Q635.247 1519.34 633.302 1517.61 Q631.381 1515.87 628.279 1515.87 Q626.08 1515.87 623.627 1516.63 Q621.196 1517.4 618.418 1518.95 L618.418 1514.23 Q621.242 1513.09 623.696 1512.51 Q626.15 1511.93 628.187 1511.93 Q633.557 1511.93 636.752 1514.62 Q639.946 1517.31 639.946 1521.8 Q639.946 1523.93 639.136 1525.85 Q638.349 1527.74 636.242 1530.34 Q635.664 1531.01 632.562 1534.23 Q629.46 1537.42 623.812 1543.18 Z" fill="#000000" fill-rule="evenodd" fill-opacity="1" /><path clip-path="url(#clip230)" d="M659.946 1515.64 Q656.335 1515.64 654.506 1519.2 Q652.701 1522.75 652.701 1529.87 Q652.701 1536.98 654.506 1540.55 Q656.335 1544.09 659.946 1544.09 Q663.58 1544.09 665.386 1540.55 Q667.214 1536.98 667.214 1529.87 Q667.214 1522.75 665.386 1519.2 Q663.58 1515.64 659.946 1515.64 M659.946 1511.93 Q665.756 1511.93 668.812 1516.54 Q671.89 1521.12 671.89 1529.87 Q671.89 1538.6 668.812 1543.21 Q665.756 1547.79 659.946 1547.79 Q654.136 1547.79 651.057 1543.21 Q648.001 1538.6 648.001 1529.87 Q648.001 1521.12 651.057 1516.54 Q654.136 1511.93 659.946 1511.93 Z" fill="#000000" fill-rule="evenodd" fill-opacity="1" /><path clip-path="url(#clip230)" d="M680.918 1543.18 L688.557 1543.18 L688.557 1516.82 L680.247 1518.49 L680.247 1514.23 L688.511 1512.56 L693.186 1512.56 L693.186 1543.18 L700.825 1543.18 L700.825 1547.12 L680.918 1547.12 L680.918 1543.18 Z" fill="#000000" fill-rule="evenodd" fill-opacity="1" /><path clip-path="url(#clip230)" d="M710.316 1512.56 L728.672 1512.56 L728.672 1516.5 L714.598 1516.5 L714.598 1524.97 Q715.617 1524.62 716.635 1524.46 Q717.654 1524.27 718.672 1524.27 Q724.459 1524.27 727.839 1527.44 Q731.219 1530.62 731.219 1536.03 Q731.219 1541.61 727.746 1544.71 Q724.274 1547.79 717.955 1547.79 Q715.779 1547.79 713.51 1547.42 Q711.265 1547.05 708.858 1546.31 L708.858 1541.61 Q710.941 1542.74 713.163 1543.3 Q715.385 1543.86 717.862 1543.86 Q721.867 1543.86 724.205 1541.75 Q726.543 1539.64 726.543 1536.03 Q726.543 1532.42 724.205 1530.31 Q721.867 1528.21 717.862 1528.21 Q715.987 1528.21 714.112 1528.62 Q712.26 1529.04 710.316 1529.92 L710.316 1512.56 Z" fill="#000000" fill-rule="evenodd" fill-opacity="1" /><path clip-path="url(#clip230)" d="M737.677 1532.24 L750.154 1532.24 L750.154 1536.03 L737.677 1536.03 L737.677 1532.24 Z" fill="#000000" fill-rule="evenodd" fill-opacity="1" /><path clip-path="url(#clip230)" d="M767.538 1515.64 Q763.927 1515.64 762.098 1519.2 Q760.293 1522.75 760.293 1529.87 Q760.293 1536.98 762.098 1540.55 Q763.927 1544.09 767.538 1544.09 Q771.172 1544.09 772.978 1540.55 Q774.806 1536.98 774.806 1529.87 Q774.806 1522.75 772.978 1519.2 Q771.172 1515.64 767.538 1515.64 M767.538 1511.93 Q773.348 1511.93 776.404 1516.54 Q779.482 1521.12 779.482 1529.87 Q779.482 1538.6 776.404 1543.21 Q773.348 1547.79 767.538 1547.79 Q761.728 1547.79 758.649 1543.21 Q755.593 1538.6 755.593 1529.87 Q755.593 1521.12 758.649 1516.54 Q761.728 1511.93 767.538 1511.93 Z" fill="#000000" fill-rule="evenodd" fill-opacity="1" /><path clip-path="url(#clip230)" d="M788.51 1543.18 L796.149 1543.18 L796.149 1516.82 L787.839 1518.49 L787.839 1514.23 L796.103 1512.56 L800.778 1512.56 L800.778 1543.18 L808.417 1543.18 L808.417 1547.12 L788.51 1547.12 L788.51 1543.18 Z" fill="#000000" fill-rule="evenodd" fill-opacity="1" /><path clip-path="url(#clip230)" d="M815.107 1532.24 L827.584 1532.24 L827.584 1536.03 L815.107 1536.03 L815.107 1532.24 Z" fill="#000000" fill-rule="evenodd" fill-opacity="1" /><path clip-path="url(#clip230)" d="M844.968 1515.64 Q841.357 1515.64 839.528 1519.2 Q837.723 1522.75 837.723 1529.87 Q837.723 1536.98 839.528 1540.55 Q841.357 1544.09 844.968 1544.09 Q848.602 1544.09 850.408 1540.55 Q852.236 1536.98 852.236 1529.87 Q852.236 1522.75 850.408 1519.2 Q848.602 1515.64 844.968 1515.64 M844.968 1511.93 Q850.778 1511.93 853.834 1516.54 Q856.912 1521.12 856.912 1529.87 Q856.912 1538.6 853.834 1543.21 Q850.778 1547.79 844.968 1547.79 Q839.158 1547.79 836.079 1543.21 Q833.024 1538.6 833.024 1529.87 Q833.024 1521.12 836.079 1516.54 Q839.158 1511.93 844.968 1511.93 Z" fill="#000000" fill-rule="evenodd" fill-opacity="1" /><path clip-path="url(#clip230)" d="M865.94 1543.18 L873.579 1543.18 L873.579 1516.82 L865.269 1518.49 L865.269 1514.23 L873.533 1512.56 L878.209 1512.56 L878.209 1543.18 L885.847 1543.18 L885.847 1547.12 L865.94 1547.12 L865.94 1543.18 Z" fill="#000000" fill-rule="evenodd" fill-opacity="1" /><path clip-path="url(#clip230)" d="M1149.48 1543.18 L1165.8 1543.18 L1165.8 1547.12 L1143.86 1547.12 L1143.86 1543.18 Q1146.52 1540.43 1151.11 1535.8 Q1155.71 1531.15 1156.89 1529.81 Q1159.14 1527.28 1160.02 1525.55 Q1160.92 1523.79 1160.92 1522.1 Q1160.92 1519.34 1158.98 1517.61 Q1157.05 1515.87 1153.95 1515.87 Q1151.75 1515.87 1149.3 1516.63 Q1146.87 1517.4 1144.09 1518.95 L1144.09 1514.23 Q1146.92 1513.09 1149.37 1512.51 Q1151.82 1511.93 1153.86 1511.93 Q1159.23 1511.93 1162.42 1514.62 Q1165.62 1517.31 1165.62 1521.8 Q1165.62 1523.93 1164.81 1525.85 Q1164.02 1527.74 1161.92 1530.34 Q1161.34 1531.01 1158.23 1534.23 Q1155.13 1537.42 1149.48 1543.18 Z" fill="#000000" fill-rule="evenodd" fill-opacity="1" /><path clip-path="url(#clip230)" d="M1185.62 1515.64 Q1182.01 1515.64 1180.18 1519.2 Q1178.37 1522.75 1178.37 1529.87 Q1178.37 1536.98 1180.18 1540.55 Q1182.01 1544.09 1185.62 1544.09 Q1189.25 1544.09 1191.06 1540.55 Q1192.89 1536.98 1192.89 1529.87 Q1192.89 1522.75 1191.06 1519.2 Q1189.25 1515.64 1185.62 1515.64 M1185.62 1511.93 Q1191.43 1511.93 1194.48 1516.54 Q1197.56 1521.12 1197.56 1529.87 Q1197.56 1538.6 1194.48 1543.21 Q1191.43 1547.79 1185.62 1547.79 Q1179.81 1547.79 1176.73 1543.21 Q1173.67 1538.6 1173.67 1529.87 Q1173.67 1521.12 1176.73 1516.54 Q1179.81 1511.93 1185.62 1511.93 Z" fill="#000000" fill-rule="evenodd" fill-opacity="1" /><path clip-path="url(#clip230)" d="M1206.59 1543.18 L1214.23 1543.18 L1214.23 1516.82 L1205.92 1518.49 L1205.92 1514.23 L1214.18 1512.56 L1218.86 1512.56 L1218.86 1543.18 L1226.5 1543.18 L1226.5 1547.12 L1206.59 1547.12 L1206.59 1543.18 Z" fill="#000000" fill-rule="evenodd" fill-opacity="1" /><path clip-path="url(#clip230)" d="M1246.52 1527.98 Q1243.37 1527.98 1241.52 1530.13 Q1239.69 1532.28 1239.69 1536.03 Q1239.69 1539.76 1241.52 1541.93 Q1243.37 1544.09 1246.52 1544.09 Q1249.67 1544.09 1251.5 1541.93 Q1253.35 1539.76 1253.35 1536.03 Q1253.35 1532.28 1251.5 1530.13 Q1249.67 1527.98 1246.52 1527.98 M1255.8 1513.32 L1255.8 1517.58 Q1254.04 1516.75 1252.24 1516.31 Q1250.46 1515.87 1248.7 1515.87 Q1244.07 1515.87 1241.61 1519 Q1239.18 1522.12 1238.84 1528.44 Q1240.2 1526.43 1242.26 1525.36 Q1244.32 1524.27 1246.8 1524.27 Q1252.01 1524.27 1255.02 1527.44 Q1258.05 1530.59 1258.05 1536.03 Q1258.05 1541.36 1254.9 1544.57 Q1251.75 1547.79 1246.52 1547.79 Q1240.53 1547.79 1237.35 1543.21 Q1234.18 1538.6 1234.18 1529.87 Q1234.18 1521.68 1238.07 1516.82 Q1241.96 1511.93 1248.51 1511.93 Q1250.27 1511.93 1252.05 1512.28 Q1253.86 1512.63 1255.8 1513.32 Z" fill="#000000" fill-rule="evenodd" fill-opacity="1" /><path clip-path="url(#clip230)" d="M1263.35 1532.24 L1275.83 1532.24 L1275.83 1536.03 L1263.35 1536.03 L1263.35 1532.24 Z" fill="#000000" fill-rule="evenodd" fill-opacity="1" /><path clip-path="url(#clip230)" d="M1293.21 1515.64 Q1289.6 1515.64 1287.77 1519.2 Q1285.97 1522.75 1285.97 1529.87 Q1285.97 1536.98 1287.77 1540.55 Q1289.6 1544.09 1293.21 1544.09 Q1296.85 1544.09 1298.65 1540.55 Q1300.48 1536.98 1300.48 1529.87 Q1300.48 1522.75 1298.65 1519.2 Q1296.85 1515.64 1293.21 1515.64 M1293.21 1511.93 Q1299.02 1511.93 1302.08 1516.54 Q1305.16 1521.12 1305.16 1529.87 Q1305.16 1538.6 1302.08 1543.21 Q1299.02 1547.79 1293.21 1547.79 Q1287.4 1547.79 1284.32 1543.21 Q1281.27 1538.6 1281.27 1529.87 Q1281.27 1521.12 1284.32 1516.54 Q1287.4 1511.93 1293.21 1511.93 Z" fill="#000000" fill-rule="evenodd" fill-opacity="1" /><path clip-path="url(#clip230)" d="M1314.18 1543.18 L1321.82 1543.18 L1321.82 1516.82 L1313.51 1518.49 L1313.51 1514.23 L1321.78 1512.56 L1326.45 1512.56 L1326.45 1543.18 L1334.09 1543.18 L1334.09 1547.12 L1314.18 1547.12 L1314.18 1543.18 Z" fill="#000000" fill-rule="evenodd" fill-opacity="1" /><path clip-path="url(#clip230)" d="M1340.78 1532.24 L1353.26 1532.24 L1353.26 1536.03 L1340.78 1536.03 L1340.78 1532.24 Z" fill="#000000" fill-rule="evenodd" fill-opacity="1" /><path clip-path="url(#clip230)" d="M1370.64 1515.64 Q1367.03 1515.64 1365.2 1519.2 Q1363.4 1522.75 1363.4 1529.87 Q1363.4 1536.98 1365.2 1540.55 Q1367.03 1544.09 1370.64 1544.09 Q1374.28 1544.09 1376.08 1540.55 Q1377.91 1536.98 1377.91 1529.87 Q1377.91 1522.75 1376.08 1519.2 Q1374.28 1515.64 1370.64 1515.64 M1370.64 1511.93 Q1376.45 1511.93 1379.51 1516.54 Q1382.59 1521.12 1382.59 1529.87 Q1382.59 1538.6 1379.51 1543.21 Q1376.45 1547.79 1370.64 1547.79 Q1364.83 1547.79 1361.75 1543.21 Q1358.7 1538.6 1358.7 1529.87 Q1358.7 1521.12 1361.75 1516.54 Q1364.83 1511.93 1370.64 1511.93 Z" fill="#000000" fill-rule="evenodd" fill-opacity="1" /><path clip-path="url(#clip230)" d="M1391.61 1543.18 L1399.25 1543.18 L1399.25 1516.82 L1390.94 1518.49 L1390.94 1514.23 L1399.21 1512.56 L1403.88 1512.56 L1403.88 1543.18 L1411.52 1543.18 L1411.52 1547.12 L1391.61 1547.12 L1391.61 1543.18 Z" fill="#000000" fill-rule="evenodd" fill-opacity="1" /><path clip-path="url(#clip230)" d="M1676.6 1543.18 L1692.92 1543.18 L1692.92 1547.12 L1670.97 1547.12 L1670.97 1543.18 Q1673.63 1540.43 1678.22 1535.8 Q1682.82 1531.15 1684.01 1529.81 Q1686.25 1527.28 1687.13 1525.55 Q1688.03 1523.79 1688.03 1522.1 Q1688.03 1519.34 1686.09 1517.61 Q1684.17 1515.87 1681.07 1515.87 Q1678.87 1515.87 1676.41 1516.63 Q1673.98 1517.4 1671.2 1518.95 L1671.2 1514.23 Q1674.03 1513.09 1676.48 1512.51 Q1678.94 1511.93 1680.97 1511.93 Q1686.34 1511.93 1689.54 1514.62 Q1692.73 1517.31 1692.73 1521.8 Q1692.73 1523.93 1691.92 1525.85 Q1691.13 1527.74 1689.03 1530.34 Q1688.45 1531.01 1685.35 1534.23 Q1682.25 1537.42 1676.6 1543.18 Z" fill="#000000" fill-rule="evenodd" fill-opacity="1" /><path clip-path="url(#clip230)" d="M1712.73 1515.64 Q1709.12 1515.64 1707.29 1519.2 Q1705.49 1522.75 1705.49 1529.87 Q1705.49 1536.98 1707.29 1540.55 Q1709.12 1544.09 1712.73 1544.09 Q1716.37 1544.09 1718.17 1540.55 Q1720 1536.98 1720 1529.87 Q1720 1522.75 1718.17 1519.2 Q1716.37 1515.64 1712.73 1515.64 M1712.73 1511.93 Q1718.54 1511.93 1721.6 1516.54 Q1724.68 1521.12 1724.68 1529.87 Q1724.68 1538.6 1721.6 1543.21 Q1718.54 1547.79 1712.73 1547.79 Q1706.92 1547.79 1703.84 1543.21 Q1700.79 1538.6 1700.79 1529.87 Q1700.79 1521.12 1703.84 1516.54 Q1706.92 1511.93 1712.73 1511.93 Z" fill="#000000" fill-rule="evenodd" fill-opacity="1" /><path clip-path="url(#clip230)" d="M1733.7 1543.18 L1741.34 1543.18 L1741.34 1516.82 L1733.03 1518.49 L1733.03 1514.23 L1741.3 1512.56 L1745.97 1512.56 L1745.97 1543.18 L1753.61 1543.18 L1753.61 1547.12 L1733.7 1547.12 L1733.7 1543.18 Z" fill="#000000" fill-rule="evenodd" fill-opacity="1" /><path clip-path="url(#clip230)" d="M1761.88 1512.56 L1784.1 1512.56 L1784.1 1514.55 L1771.55 1547.12 L1766.67 1547.12 L1778.47 1516.5 L1761.88 1516.5 L1761.88 1512.56 Z" fill="#000000" fill-rule="evenodd" fill-opacity="1" /><path clip-path="url(#clip230)" d="M1790.46 1532.24 L1802.94 1532.24 L1802.94 1536.03 L1790.46 1536.03 L1790.46 1532.24 Z" fill="#000000" fill-rule="evenodd" fill-opacity="1" /><path clip-path="url(#clip230)" d="M1820.32 1515.64 Q1816.71 1515.64 1814.88 1519.2 Q1813.08 1522.75 1813.08 1529.87 Q1813.08 1536.98 1814.88 1540.55 Q1816.71 1544.09 1820.32 1544.09 Q1823.96 1544.09 1825.76 1540.55 Q1827.59 1536.98 1827.59 1529.87 Q1827.59 1522.75 1825.76 1519.2 Q1823.96 1515.64 1820.32 1515.64 M1820.32 1511.93 Q1826.13 1511.93 1829.19 1516.54 Q1832.27 1521.12 1832.27 1529.87 Q1832.27 1538.6 1829.19 1543.21 Q1826.13 1547.79 1820.32 1547.79 Q1814.51 1547.79 1811.44 1543.21 Q1808.38 1538.6 1808.38 1529.87 Q1808.38 1521.12 1811.44 1516.54 Q1814.51 1511.93 1820.32 1511.93 Z" fill="#000000" fill-rule="evenodd" fill-opacity="1" /><path clip-path="url(#clip230)" d="M1841.3 1543.18 L1848.93 1543.18 L1848.93 1516.82 L1840.62 1518.49 L1840.62 1514.23 L1848.89 1512.56 L1853.56 1512.56 L1853.56 1543.18 L1861.2 1543.18 L1861.2 1547.12 L1841.3 1547.12 L1841.3 1543.18 Z" fill="#000000" fill-rule="evenodd" fill-opacity="1" /><path clip-path="url(#clip230)" d="M1867.89 1532.24 L1880.37 1532.24 L1880.37 1536.03 L1867.89 1536.03 L1867.89 1532.24 Z" fill="#000000" fill-rule="evenodd" fill-opacity="1" /><path clip-path="url(#clip230)" d="M1897.75 1515.64 Q1894.14 1515.64 1892.31 1519.2 Q1890.51 1522.75 1890.51 1529.87 Q1890.51 1536.98 1892.31 1540.55 Q1894.14 1544.09 1897.75 1544.09 Q1901.39 1544.09 1903.19 1540.55 Q1905.02 1536.98 1905.02 1529.87 Q1905.02 1522.75 1903.19 1519.2 Q1901.39 1515.64 1897.75 1515.64 M1897.75 1511.93 Q1903.56 1511.93 1906.62 1516.54 Q1909.7 1521.12 1909.7 1529.87 Q1909.7 1538.6 1906.62 1543.21 Q1903.56 1547.79 1897.75 1547.79 Q1891.94 1547.79 1888.87 1543.21 Q1885.81 1538.6 1885.81 1529.87 Q1885.81 1521.12 1888.87 1516.54 Q1891.94 1511.93 1897.75 1511.93 Z" fill="#000000" fill-rule="evenodd" fill-opacity="1" /><path clip-path="url(#clip230)" d="M1918.73 1543.18 L1926.36 1543.18 L1926.36 1516.82 L1918.05 1518.49 L1918.05 1514.23 L1926.32 1512.56 L1930.99 1512.56 L1930.99 1543.18 L1938.63 1543.18 L1938.63 1547.12 L1918.73 1547.12 L1918.73 1543.18 Z" fill="#000000" fill-rule="evenodd" fill-opacity="1" /><path clip-path="url(#clip230)" d="M2202.27 1543.18 L2218.59 1543.18 L2218.59 1547.12 L2196.65 1547.12 L2196.65 1543.18 Q2199.31 1540.43 2203.89 1535.8 Q2208.5 1531.15 2209.68 1529.81 Q2211.92 1527.28 2212.8 1525.55 Q2213.71 1523.79 2213.71 1522.1 Q2213.71 1519.34 2211.76 1517.61 Q2209.84 1515.87 2206.74 1515.87 Q2204.54 1515.87 2202.09 1516.63 Q2199.65 1517.4 2196.88 1518.95 L2196.88 1514.23 Q2199.7 1513.09 2202.15 1512.51 Q2204.61 1511.93 2206.65 1511.93 Q2212.02 1511.93 2215.21 1514.62 Q2218.4 1517.31 2218.4 1521.8 Q2218.4 1523.93 2217.59 1525.85 Q2216.81 1527.74 2214.7 1530.34 Q2214.12 1531.01 2211.02 1534.23 Q2207.92 1537.42 2202.27 1543.18 Z" fill="#000000" fill-rule="evenodd" fill-opacity="1" /><path clip-path="url(#clip230)" d="M2238.4 1515.64 Q2234.79 1515.64 2232.96 1519.2 Q2231.16 1522.75 2231.16 1529.87 Q2231.16 1536.98 2232.96 1540.55 Q2234.79 1544.09 2238.4 1544.09 Q2242.04 1544.09 2243.84 1540.55 Q2245.67 1536.98 2245.67 1529.87 Q2245.67 1522.75 2243.84 1519.2 Q2242.04 1515.64 2238.4 1515.64 M2238.4 1511.93 Q2244.21 1511.93 2247.27 1516.54 Q2250.35 1521.12 2250.35 1529.87 Q2250.35 1538.6 2247.27 1543.21 Q2244.21 1547.79 2238.4 1547.79 Q2232.59 1547.79 2229.52 1543.21 Q2226.46 1538.6 2226.46 1529.87 Q2226.46 1521.12 2229.52 1516.54 Q2232.59 1511.93 2238.4 1511.93 Z" fill="#000000" fill-rule="evenodd" fill-opacity="1" /><path clip-path="url(#clip230)" d="M2259.38 1543.18 L2267.02 1543.18 L2267.02 1516.82 L2258.71 1518.49 L2258.71 1514.23 L2266.97 1512.56 L2271.65 1512.56 L2271.65 1543.18 L2279.28 1543.18 L2279.28 1547.12 L2259.38 1547.12 L2259.38 1543.18 Z" fill="#000000" fill-rule="evenodd" fill-opacity="1" /><path clip-path="url(#clip230)" d="M2298.73 1530.71 Q2295.4 1530.71 2293.47 1532.49 Q2291.58 1534.27 2291.58 1537.4 Q2291.58 1540.52 2293.47 1542.31 Q2295.4 1544.09 2298.73 1544.09 Q2302.06 1544.09 2303.98 1542.31 Q2305.9 1540.5 2305.9 1537.4 Q2305.9 1534.27 2303.98 1532.49 Q2302.08 1530.71 2298.73 1530.71 M2294.05 1528.72 Q2291.04 1527.98 2289.35 1525.92 Q2287.69 1523.86 2287.69 1520.89 Q2287.69 1516.75 2290.63 1514.34 Q2293.59 1511.93 2298.73 1511.93 Q2303.89 1511.93 2306.83 1514.34 Q2309.77 1516.75 2309.77 1520.89 Q2309.77 1523.86 2308.08 1525.92 Q2306.41 1527.98 2303.43 1528.72 Q2306.81 1529.5 2308.68 1531.8 Q2310.58 1534.09 2310.58 1537.4 Q2310.58 1542.42 2307.5 1545.11 Q2304.45 1547.79 2298.73 1547.79 Q2293.01 1547.79 2289.93 1545.11 Q2286.88 1542.42 2286.88 1537.4 Q2286.88 1534.09 2288.77 1531.8 Q2290.67 1529.5 2294.05 1528.72 M2292.34 1521.33 Q2292.34 1524.02 2294.01 1525.52 Q2295.7 1527.03 2298.73 1527.03 Q2301.74 1527.03 2303.43 1525.52 Q2305.14 1524.02 2305.14 1521.33 Q2305.14 1518.65 2303.43 1517.14 Q2301.74 1515.64 2298.73 1515.64 Q2295.7 1515.64 2294.01 1517.14 Q2292.34 1518.65 2292.34 1521.33 Z" fill="#000000" fill-rule="evenodd" fill-opacity="1" /><path clip-path="url(#clip230)" d="M2316.14 1532.24 L2328.61 1532.24 L2328.61 1536.03 L2316.14 1536.03 L2316.14 1532.24 Z" fill="#000000" fill-rule="evenodd" fill-opacity="1" /><path clip-path="url(#clip230)" d="M2346 1515.64 Q2342.39 1515.64 2340.56 1519.2 Q2338.75 1522.75 2338.75 1529.87 Q2338.75 1536.98 2340.56 1540.55 Q2342.39 1544.09 2346 1544.09 Q2349.63 1544.09 2351.44 1540.55 Q2353.27 1536.98 2353.27 1529.87 Q2353.27 1522.75 2351.44 1519.2 Q2349.63 1515.64 2346 1515.64 M2346 1511.93 Q2351.81 1511.93 2354.86 1516.54 Q2357.94 1521.12 2357.94 1529.87 Q2357.94 1538.6 2354.86 1543.21 Q2351.81 1547.79 2346 1547.79 Q2340.19 1547.79 2337.11 1543.21 Q2334.05 1538.6 2334.05 1529.87 Q2334.05 1521.12 2337.11 1516.54 Q2340.19 1511.93 2346 1511.93 Z" fill="#000000" fill-rule="evenodd" fill-opacity="1" /><path clip-path="url(#clip230)" d="M2366.97 1543.18 L2374.61 1543.18 L2374.61 1516.82 L2366.3 1518.49 L2366.3 1514.23 L2374.56 1512.56 L2379.24 1512.56 L2379.24 1543.18 L2386.88 1543.18 L2386.88 1547.12 L2366.97 1547.12 L2366.97 1543.18 Z" fill="#000000" fill-rule="evenodd" fill-opacity="1" /><path clip-path="url(#clip230)" d="M2393.57 1532.24 L2406.04 1532.24 L2406.04 1536.03 L2393.57 1536.03 L2393.57 1532.24 Z" fill="#000000" fill-rule="evenodd" fill-opacity="1" /><path clip-path="url(#clip230)" d="M2423.43 1515.64 Q2419.82 1515.64 2417.99 1519.2 Q2416.18 1522.75 2416.18 1529.87 Q2416.18 1536.98 2417.99 1540.55 Q2419.82 1544.09 2423.43 1544.09 Q2427.06 1544.09 2428.87 1540.55 Q2430.7 1536.98 2430.7 1529.87 Q2430.7 1522.75 2428.87 1519.2 Q2427.06 1515.64 2423.43 1515.64 M2423.43 1511.93 Q2429.24 1511.93 2432.29 1516.54 Q2435.37 1521.12 2435.37 1529.87 Q2435.37 1538.6 2432.29 1543.21 Q2429.24 1547.79 2423.43 1547.79 Q2417.62 1547.79 2414.54 1543.21 Q2411.48 1538.6 2411.48 1529.87 Q2411.48 1521.12 2414.54 1516.54 Q2417.62 1511.93 2423.43 1511.93 Z" fill="#000000" fill-rule="evenodd" fill-opacity="1" /><path clip-path="url(#clip230)" d="M2444.4 1543.18 L2452.04 1543.18 L2452.04 1516.82 L2443.73 1518.49 L2443.73 1514.23 L2451.99 1512.56 L2456.67 1512.56 L2456.67 1543.18 L2464.31 1543.18 L2464.31 1547.12 L2444.4 1547.12 L2444.4 1543.18 Z" fill="#000000" fill-rule="evenodd" fill-opacity="1" /><polyline clip-path="url(#clip232)" style="stroke:#000000; stroke-linecap:butt; stroke-linejoin:round; stroke-width:2; stroke-opacity:0.1; fill:none" points="
  140.696,1446.31 2352.76,1446.31 
  "/>
<polyline clip-path="url(#clip232)" style="stroke:#000000; stroke-linecap:butt; stroke-linejoin:round; stroke-width:2; stroke-opacity:0.1; fill:none" points="
  140.696,1163.73 2352.76,1163.73 
  "/>
<polyline clip-path="url(#clip232)" style="stroke:#000000; stroke-linecap:butt; stroke-linejoin:round; stroke-width:2; stroke-opacity:0.1; fill:none" points="
  140.696,881.149 2352.76,881.149 
  "/>
<polyline clip-path="url(#clip232)" style="stroke:#000000; stroke-linecap:butt; stroke-linejoin:round; stroke-width:2; stroke-opacity:0.1; fill:none" points="
  140.696,598.567 2352.76,598.567 
  "/>
<polyline clip-path="url(#clip232)" style="stroke:#000000; stroke-linecap:butt; stroke-linejoin:round; stroke-width:2; stroke-opacity:0.1; fill:none" points="
  140.696,315.985 2352.76,315.985 
  "/>
<polyline clip-path="url(#clip230)" style="stroke:#000000; stroke-linecap:butt; stroke-linejoin:round; stroke-width:4; stroke-opacity:1; fill:none" points="
  140.696,1486.45 140.696,47.2441 
  "/>
<polyline clip-path="url(#clip230)" style="stroke:#000000; stroke-linecap:butt; stroke-linejoin:round; stroke-width:4; stroke-opacity:1; fill:none" points="
  140.696,1446.31 159.593,1446.31 
  "/>
<polyline clip-path="url(#clip230)" style="stroke:#000000; stroke-linecap:butt; stroke-linejoin:round; stroke-width:4; stroke-opacity:1; fill:none" points="
  140.696,1163.73 159.593,1163.73 
  "/>
<polyline clip-path="url(#clip230)" style="stroke:#000000; stroke-linecap:butt; stroke-linejoin:round; stroke-width:4; stroke-opacity:1; fill:none" points="
  140.696,881.149 159.593,881.149 
  "/>
<polyline clip-path="url(#clip230)" style="stroke:#000000; stroke-linecap:butt; stroke-linejoin:round; stroke-width:4; stroke-opacity:1; fill:none" points="
  140.696,598.567 159.593,598.567 
  "/>
<polyline clip-path="url(#clip230)" style="stroke:#000000; stroke-linecap:butt; stroke-linejoin:round; stroke-width:4; stroke-opacity:1; fill:none" points="
  140.696,315.985 159.593,315.985 
  "/>
<path clip-path="url(#clip230)" d="M92.7512 1432.11 Q89.1401 1432.11 87.3114 1435.68 Q85.5058 1439.22 85.5058 1446.35 Q85.5058 1453.45 87.3114 1457.02 Q89.1401 1460.56 92.7512 1460.56 Q96.3854 1460.56 98.1909 1457.02 Q100.02 1453.45 100.02 1446.35 Q100.02 1439.22 98.1909 1435.68 Q96.3854 1432.11 92.7512 1432.11 M92.7512 1428.41 Q98.5613 1428.41 101.617 1433.01 Q104.696 1437.6 104.696 1446.35 Q104.696 1455.07 101.617 1459.68 Q98.5613 1464.26 92.7512 1464.26 Q86.941 1464.26 83.8623 1459.68 Q80.8068 1455.07 80.8068 1446.35 Q80.8068 1437.6 83.8623 1433.01 Q86.941 1428.41 92.7512 1428.41 Z" fill="#000000" fill-rule="evenodd" fill-opacity="1" /><path clip-path="url(#clip230)" d="M83.7929 1146.45 L102.149 1146.45 L102.149 1150.39 L88.0753 1150.39 L88.0753 1158.86 Q89.0938 1158.51 90.1123 1158.35 Q91.1308 1158.16 92.1493 1158.16 Q97.9363 1158.16 101.316 1161.33 Q104.696 1164.51 104.696 1169.92 Q104.696 1175.5 101.223 1178.6 Q97.7511 1181.68 91.4317 1181.68 Q89.2558 1181.68 86.9873 1181.31 Q84.7419 1180.94 82.3346 1180.2 L82.3346 1175.5 Q84.4179 1176.64 86.6401 1177.19 Q88.8623 1177.75 91.3391 1177.75 Q95.3437 1177.75 97.6817 1175.64 Q100.02 1173.53 100.02 1169.92 Q100.02 1166.31 97.6817 1164.21 Q95.3437 1162.1 91.3391 1162.1 Q89.4641 1162.1 87.5892 1162.52 Q85.7373 1162.93 83.7929 1163.81 L83.7929 1146.45 Z" fill="#000000" fill-rule="evenodd" fill-opacity="1" /><path clip-path="url(#clip230)" d="M53.3995 894.494 L61.0384 894.494 L61.0384 868.128 L52.7282 869.795 L52.7282 865.536 L60.9921 863.869 L65.668 863.869 L65.668 894.494 L73.3068 894.494 L73.3068 898.429 L53.3995 898.429 L53.3995 894.494 Z" fill="#000000" fill-rule="evenodd" fill-opacity="1" /><path clip-path="url(#clip230)" d="M92.7512 866.948 Q89.1401 866.948 87.3114 870.512 Q85.5058 874.054 85.5058 881.184 Q85.5058 888.29 87.3114 891.855 Q89.1401 895.397 92.7512 895.397 Q96.3854 895.397 98.1909 891.855 Q100.02 888.29 100.02 881.184 Q100.02 874.054 98.1909 870.512 Q96.3854 866.948 92.7512 866.948 M92.7512 863.244 Q98.5613 863.244 101.617 867.85 Q104.696 872.434 104.696 881.184 Q104.696 889.91 101.617 894.517 Q98.5613 899.1 92.7512 899.1 Q86.941 899.1 83.8623 894.517 Q80.8068 889.91 80.8068 881.184 Q80.8068 872.434 83.8623 867.85 Q86.941 863.244 92.7512 863.244 Z" fill="#000000" fill-rule="evenodd" fill-opacity="1" /><path clip-path="url(#clip230)" d="M54.3949 611.912 L62.0337 611.912 L62.0337 585.546 L53.7236 587.213 L53.7236 582.954 L61.9874 581.287 L66.6633 581.287 L66.6633 611.912 L74.3022 611.912 L74.3022 615.847 L54.3949 615.847 L54.3949 611.912 Z" fill="#000000" fill-rule="evenodd" fill-opacity="1" /><path clip-path="url(#clip230)" d="M83.7929 581.287 L102.149 581.287 L102.149 585.222 L88.0753 585.222 L88.0753 593.694 Q89.0938 593.347 90.1123 593.185 Q91.1308 593 92.1493 593 Q97.9363 593 101.316 596.171 Q104.696 599.343 104.696 604.759 Q104.696 610.338 101.223 613.44 Q97.7511 616.518 91.4317 616.518 Q89.2558 616.518 86.9873 616.148 Q84.7419 615.778 82.3346 615.037 L82.3346 610.338 Q84.4179 611.472 86.6401 612.028 Q88.8623 612.583 91.3391 612.583 Q95.3437 612.583 97.6817 610.477 Q100.02 608.37 100.02 604.759 Q100.02 601.148 97.6817 599.042 Q95.3437 596.935 91.3391 596.935 Q89.4641 596.935 87.5892 597.352 Q85.7373 597.768 83.7929 598.648 L83.7929 581.287 Z" fill="#000000" fill-rule="evenodd" fill-opacity="1" /><path clip-path="url(#clip230)" d="M56.6171 329.33 L72.9365 329.33 L72.9365 333.265 L50.9921 333.265 L50.9921 329.33 Q53.6541 326.576 58.2375 321.946 Q62.8439 317.293 64.0245 315.951 Q66.2698 313.427 67.1494 311.691 Q68.0522 309.932 68.0522 308.242 Q68.0522 305.488 66.1078 303.752 Q64.1865 302.015 61.0847 302.015 Q58.8856 302.015 56.4319 302.779 Q54.0014 303.543 51.2236 305.094 L51.2236 300.372 Q54.0477 299.238 56.5014 298.659 Q58.955 298.08 60.9921 298.08 Q66.3624 298.08 69.5568 300.765 Q72.7513 303.451 72.7513 307.941 Q72.7513 310.071 71.9411 311.992 Q71.1541 313.89 69.0476 316.483 Q68.4689 317.154 65.367 320.372 Q62.2652 323.566 56.6171 329.33 Z" fill="#000000" fill-rule="evenodd" fill-opacity="1" /><path clip-path="url(#clip230)" d="M92.7512 301.784 Q89.1401 301.784 87.3114 305.349 Q85.5058 308.89 85.5058 316.02 Q85.5058 323.126 87.3114 326.691 Q89.1401 330.233 92.7512 330.233 Q96.3854 330.233 98.1909 326.691 Q100.02 323.126 100.02 316.02 Q100.02 308.89 98.1909 305.349 Q96.3854 301.784 92.7512 301.784 M92.7512 298.08 Q98.5613 298.08 101.617 302.687 Q104.696 307.27 104.696 316.02 Q104.696 324.747 101.617 329.353 Q98.5613 333.937 92.7512 333.937 Q86.941 333.937 83.8623 329.353 Q80.8068 324.747 80.8068 316.02 Q80.8068 307.27 83.8623 302.687 Q86.941 298.08 92.7512 298.08 Z" fill="#000000" fill-rule="evenodd" fill-opacity="1" /><polyline clip-path="url(#clip232)" style="stroke:#009af9; stroke-linecap:butt; stroke-linejoin:round; stroke-width:4; stroke-opacity:1; fill:none" points="
  203.301,1413.87 204.741,1434.7 206.181,1365.82 207.622,1439.47 209.062,1437.74 213.382,1439.68 214.823,1445.42 217.703,1443.87 219.143,1443.85 223.464,1444.43 
  224.904,1441.4 227.784,1422.33 229.225,1436.65 233.545,1433.19 234.985,1435.5 236.426,1434.06 237.866,1434.35 239.306,1434.28 243.627,1432.19 245.067,1433.39 
  246.507,1435.5 247.947,1438.16 249.387,1439.85 255.148,1424.89 256.588,1440.36 258.029,1409.16 259.469,1399.42 263.789,1405.04 265.23,1433.08 266.67,1378.98 
  268.11,1407.62 269.55,1360.94 273.871,1386.7 275.311,1413.79 276.751,1413.41 278.191,1424.11 279.632,1417.83 283.952,1440.47 285.392,1436.13 286.833,1435.32 
  288.273,1434.24 289.713,1440.47 295.474,1439.35 296.914,1427.49 298.354,1432.63 299.794,1436.31 304.115,1423.04 305.555,1431.1 306.995,1429.85 308.436,1433.81 
  309.876,1424.41 314.196,1413.74 315.637,1392.07 317.077,1439.63 318.517,1434.28 319.957,1430.52 324.278,1433.87 325.718,1432.91 327.158,1424.25 328.598,1416.98 
  330.039,1420.98 334.359,1398.34 335.799,1433.17 337.24,1403.55 338.68,1428.74 340.12,1420.06 344.441,1422.35 345.881,1419.74 347.321,1418.08 348.761,1407.82 
  350.201,1415.54 354.522,1411.9 355.962,1436.42 357.402,1437.04 358.843,1437.91 360.283,1405.98 364.603,1412.42 366.044,1418.64 367.484,1426.94 368.924,1395.4 
  370.364,1400.24 374.685,1403.34 376.125,1393.64 377.565,1427.37 379.005,1436.78 384.766,1438.19 386.206,1440.69 387.647,1439.8 389.087,1419.65 390.527,1426.56 
  394.848,1407.09 396.288,1432.82 397.728,1438.11 399.168,1433.43 400.608,1423.45 404.929,1415.65 406.369,1430.06 407.809,1417.26 409.25,1431.58 410.69,1430.05 
  415.01,1433.12 416.451,1440.78 417.891,1436.3 419.331,1412.65 420.771,1430.38 425.092,1441.05 426.532,1429.72 427.972,1430.25 429.412,1440.31 430.853,1444.94 
  436.613,1438.7 438.054,1440.75 439.494,1439.43 440.934,1440.99 445.255,1436.21 446.695,1442.94 448.135,1442.73 449.575,1437.46 451.015,1441.8 455.336,1442.08 
  456.776,1441.11 458.216,1438.58 459.657,1435.57 461.097,1435.09 465.417,1436.73 466.858,1437.68 468.298,1437.35 469.738,1442.03 471.178,1443.93 475.499,1443.62 
  476.939,1432.11 478.379,1440.09 479.819,1427.54 481.26,1439.36 485.58,1442.42 487.02,1438.29 488.461,1444.2 489.901,1441.45 495.662,1439.25 497.102,1429.52 
  498.542,1431.69 499.982,1419.53 501.422,1437.9 505.743,1437.72 507.183,1427.79 508.623,1436.89 510.064,1427.04 511.504,1435.05 515.824,1432.77 517.265,1438.53 
  518.705,1443.39 520.145,1441.88 521.585,1438.74 525.906,1432.42 527.346,1433.95 528.786,1428.2 530.226,1403.07 531.667,1411.58 535.987,1432.57 537.427,1410.15 
  538.868,1416.75 540.308,1420.12 541.748,1431.86 546.069,1435.41 547.509,1435.34 548.949,1434.28 550.389,1441.36 551.829,1419.23 556.15,1434.5 557.59,1443.51 
  559.03,1442.14 560.471,1440.31 561.911,1436.54 566.231,1439.47 567.672,1443.04 569.112,1443.75 570.552,1436.35 571.992,1442.72 577.753,1440.38 579.193,1440.61 
  580.633,1435.71 582.074,1431.76 586.394,1440.75 587.834,1427.06 589.275,1432.17 590.715,1436.07 592.155,1434.95 596.476,1435.93 597.916,1433.87 599.356,1428.15 
  600.796,1439.38 602.236,1434.56 606.557,1433.69 607.997,1434.53 609.437,1434.61 610.878,1414.59 612.318,1431.24 616.638,1406.48 618.079,1424.75 619.519,1400.84 
  620.959,1415.3 622.399,1420.52 626.72,1421.27 628.16,1406.3 629.6,1398.03 631.04,1383.87 632.481,1384.05 636.801,1361.72 638.241,1367.67 639.682,1041.67 
  641.122,1324.63 642.562,1374.05 646.883,1430.39 648.323,1416.37 649.763,1415.31 651.203,1383.83 652.643,1424.4 656.964,1426.09 658.404,1430.88 659.844,1406.82 
  661.285,1426.18 662.725,1415.84 667.045,1435.73 668.486,1431.41 669.926,1432.26 671.366,1436.8 672.806,1438.59 677.127,1441.86 678.567,1442.94 680.007,1438.55 
  681.447,1430.19 682.888,1440.27 687.208,1438.7 688.648,1440.02 690.089,1436.14 691.529,1438.18 692.969,1415.4 697.29,1440.73 698.73,1440.08 700.17,1444.71 
  703.05,1439.87 707.371,1421.92 708.811,1437.17 710.251,1442.66 711.692,1436.38 713.132,1438.55 717.452,1429.59 718.893,1383.94 720.333,1403.3 721.773,1391.52 
  723.213,1401.94 727.534,1361.63 728.974,1354.3 730.414,1356.25 731.854,1362 733.295,1429.54 737.615,1441.46 739.055,1440.19 740.496,1444.03 743.376,1441.71 
  747.697,1443.07 749.137,1442.27 750.577,1429.8 753.457,1393.54 757.778,1403.6 759.218,1371.93 760.658,1398.27 762.099,1400.2 763.539,1413.96 767.859,1402.65 
  769.3,1320.87 770.74,1354.52 772.18,1396.93 773.62,1407.25 779.381,1406.77 780.821,1408.73 782.261,1406.17 783.702,1431.01 788.022,1426.92 789.462,1395.93 
  790.903,1397.19 792.343,1405.17 793.783,1394.44 798.104,1375.89 799.544,1397.78 800.984,1416.73 802.424,1425.81 803.864,1424.31 808.185,1425.95 809.625,1423.87 
  811.065,1430.68 812.506,1432.65 813.946,1439.49 819.707,1435.52 821.147,1437.46 822.587,1436.19 824.027,1431.79 828.348,1439.41 829.788,1441.03 831.228,1439.58 
  832.668,1437.09 834.109,1439.34 838.429,1441.91 839.869,1432.93 841.31,1413.24 842.75,1439.49 844.19,1414.78 848.511,1438.69 849.951,1397.51 851.391,1429.64 
  852.831,1416.9 854.271,1414.62 858.592,1428.11 860.032,1428.89 861.472,1366.83 862.912,1428.44 864.353,1419.52 868.673,1437.9 870.113,1433.73 871.554,1418.16 
  872.994,1410.9 874.434,1433.36 878.755,1411.57 880.195,1426.87 881.635,1407.78 883.075,1428.84 888.836,1429.87 890.276,1435.02 891.716,1410.5 893.157,1429.66 
  894.597,1442.08 898.917,1438.72 900.358,1431 901.798,1429.98 903.238,1437.36 904.678,1413.93 908.999,1424.34 910.439,1437.55 911.879,1431.79 913.319,1433.97 
  914.76,1441.22 919.08,1432.12 920.52,1425.77 921.961,1426.26 923.401,1418.41 924.841,1419.79 929.162,1437.19 930.602,1427.57 932.042,1410.58 933.482,1426.99 
  934.922,1408.01 939.243,1438.39 940.683,1409.49 942.123,1424.73 943.564,1430.18 945.004,1441.88 949.324,1443.75 950.765,1440.63 952.205,1432.37 953.645,1441.16 
  955.085,1442.47 960.846,1424.2 962.286,1437.46 963.726,1433.05 965.167,1425.47 969.487,1425.75 970.927,1420.99 972.368,1435.94 973.808,1423.03 975.248,1425.7 
  979.569,1439.44 981.009,1435.47 982.449,1421.59 983.889,1434.83 985.329,1424.6 989.65,1402.71 991.09,1435.01 992.53,1420.26 993.971,1431.66 995.411,1438.1 
  999.731,1429.85 1001.17,1441.74 1002.61,1439.05 1004.05,1437.87 1005.49,1433.66 1009.81,1400.99 1011.25,1401.66 1012.69,1407.11 1014.13,1433.93 1019.89,1414.38 
  1021.33,1404.28 1022.77,1398.22 1024.21,1356.14 1025.66,1373.16 1029.98,1419.67 1031.42,1443.05 1032.86,1440.24 1034.3,1439.74 1035.74,1442.67 1040.06,1442.85 
  1041.5,1439.74 1042.94,1435.54 1044.38,1437.26 1045.82,1434.43 1050.14,1402.65 1051.58,1428.65 1053.02,1434.74 1054.46,1430.69 1055.9,1437.47 1060.22,1430.9 
  1061.66,1431.77 1063.1,1418.75 1064.54,1425.38 1065.98,1427.41 1070.3,1421.64 1071.74,1408.08 1073.18,1394.25 1074.62,1425.78 1076.06,1437.61 1080.38,1422.97 
  1081.82,1440.83 1083.26,1380.67 1084.7,1397.48 1086.14,1329.44 1090.46,87.9763 1091.9,1024.25 1093.34,1052.9 1094.78,1237.43 1096.22,1386.95 1100.55,1389.44 
  1101.99,1196.25 1103.43,1317.48 1104.87,1383.86 1106.31,1343.12 1112.07,1310.58 1113.51,1369.67 1114.95,1389.36 1116.39,1420.06 1120.71,1419.64 1122.15,1431.42 
  1123.59,1424.35 1125.03,1368.36 1126.47,1334.01 1130.79,1399.34 1132.23,1369.92 1133.67,1420.59 1135.11,1370.93 1136.55,1374.11 1140.87,1368.03 1142.31,1352.06 
  1143.75,1296.45 1145.19,1392.05 1146.63,1303.01 1150.95,1385.72 1152.39,1413.64 1153.83,1379.94 1155.27,1414.8 1156.71,1432.64 1161.03,1437.63 1162.47,1427.86 
  1163.91,1422.38 1165.35,1426.96 1166.79,1434.02 1171.12,1424.81 1172.56,1428.34 1174,1414.83 1175.44,1407.92 1176.88,1404.61 1181.2,1437 1182.64,1429.07 
  1184.08,1400.52 1185.52,1435.74 1186.96,1426.88 1191.28,1434.03 1192.72,1438.23 1194.16,1427.11 1195.6,1425.71 1197.04,1424.59 1201.36,1417.42 1202.8,1434.04 
  1204.24,1435.76 1205.68,1408.68 1207.12,1417.45 1211.44,1412.61 1212.88,1418.19 1214.32,1421.48 1215.76,1432.64 1217.2,1427.05 1221.52,1434.33 1222.96,1425.23 
  1224.4,1440.96 1227.28,1443.78 1231.6,1436.18 1233.04,1417.08 1234.48,1432.16 1235.92,1403.31 1237.36,1394.98 1241.69,1414.82 1243.13,1356.18 1244.57,1392.06 
  1246.01,1415.8 1247.45,1365.69 1251.77,1366.35 1253.21,1371.18 1254.65,1384.2 1256.09,1400.31 1257.53,1376.61 1261.85,1412.03 1263.29,1428.2 1264.73,1426.64 
  1266.17,1439.9 1271.93,1431.06 1273.37,1418.53 1274.81,1434.75 1276.25,1417.8 1282.01,1261.86 1283.45,1413.51 1284.89,1348.12 1286.33,1286.18 1287.77,1365.46 
  1292.09,1364.66 1293.53,1320.33 1294.97,1339.8 1296.41,1337.99 1297.85,1142.13 1303.61,1318.69 1305.05,1115.44 1306.49,1281.64 1307.93,1352.61 1312.25,1410.07 
  1313.7,1394.4 1315.14,1331.39 1316.58,1340.6 1318.02,1386.18 1322.34,1402.8 1323.78,1347.91 1325.22,1268.49 1326.66,1356.86 1328.1,1375.45 1332.42,1257.97 
  1333.86,1295.82 1335.3,1372.39 1336.74,1256.11 1338.18,1393.9 1343.94,1398.28 1345.38,1396.12 1346.82,1419.18 1348.26,1401.4 1352.58,1393.86 1354.02,1414.77 
  1355.46,1343.62 1356.9,1422.07 1358.34,1409.01 1362.66,1418.51 1364.1,1411.79 1365.54,1423.62 1366.98,1431.88 1368.42,1426.63 1372.74,1418.66 1374.18,1414.04 
  1375.62,1419.63 1377.06,1388.17 1378.5,1404.87 1382.82,1433.88 1384.26,1425.03 1385.7,1405.78 1387.15,1431.93 1388.59,1429.63 1392.91,1437.33 1394.35,1428.56 
  1395.79,1431.93 1397.23,1426.87 1402.99,1437.9 1404.43,1422.26 1405.87,1422.94 1407.31,1440.16 1408.75,1414.73 1413.07,1437.4 1414.51,1405.48 1415.95,1429.31 
  1417.39,1413.18 1418.83,1418.05 1423.15,1419.38 1424.59,1427.1 1426.03,1425.75 1427.47,1440.13 1428.91,1442.01 1433.23,1438.99 1434.67,1433.53 1436.11,1439.08 
  1437.55,1437.43 1438.99,1435.09 1443.31,1434.61 1444.75,1435.71 1446.19,1430.01 1447.63,1425.99 1449.07,1414.67 1453.39,1432.93 1454.83,1415.43 1456.27,1418.51 
  1457.71,1427.53 1459.16,1430.71 1463.48,1434.55 1464.92,1432.64 1466.36,1433.79 1467.8,1422.85 1469.24,1427.79 1473.56,1435.58 1475,1423.05 1476.44,1395.71 
  1477.88,1411.09 1479.32,1427.67 1483.64,1439.67 1485.08,1425.18 1486.52,1430.13 1487.96,1440.85 1489.4,1440.77 1495.16,1436.34 1496.6,1427.15 1498.04,1435.14 
  1499.48,1422.45 1503.8,1440.25 1505.24,1442.29 1506.68,1437.02 1508.12,1436.87 1509.56,1418.97 1513.88,1427.45 1515.32,1423.42 1516.76,1431.7 1518.2,1409.84 
  1519.64,1426.68 1523.96,1397.5 1525.4,1436.91 1526.84,1434.57 1528.28,1431.03 1529.72,1119.82 1534.05,1359.81 1535.49,1387.3 1536.93,1421.64 1538.37,1422.35 
  1539.81,1438.54 1545.57,1433.15 1547.01,1419.47 1548.45,1431.13 1549.89,1436.49 1554.21,1437.06 1555.65,1426.95 1557.09,1439.55 1558.53,1431.1 1559.97,1439.9 
  1564.29,1442.23 1565.73,1442.31 1567.17,1443.55 1568.61,1439.84 1570.05,1441.67 1574.37,1440.27 1575.81,1431.03 1577.25,1431.66 1578.69,1432.44 1580.13,1436.93 
  1584.45,1435.35 1585.89,1427.44 1587.33,1441.29 1588.77,1438.9 1590.21,1438.16 1594.53,1443.71 1595.97,1442.98 1597.41,1440.45 1598.85,1439.42 1600.29,1443.23 
  1604.62,1442.87 1606.06,1438.96 1607.5,1436.23 1608.94,1442.87 1610.38,1435.18 1614.7,1430.94 1616.14,1442.1 1617.58,1439.22 1619.02,1440.54 1620.46,1418.61 
  1624.78,1438.28 1626.22,1441.24 1627.66,1439.06 1629.1,1431.19 1630.54,1438.38 1636.3,1440.34 1637.74,1442.07 1639.18,1441.38 1640.62,1415.92 1644.94,1410.59 
  1646.38,1413.23 1647.82,1422.35 1649.26,1430.27 1650.7,1421.75 1655.02,1429.47 1656.46,1436.08 1657.9,1422.57 1659.34,1433.54 1660.78,1441.19 1665.1,1432.74 
  1666.54,1434.94 1667.98,1434.52 1669.42,1416.56 1670.86,1433.69 1675.19,1437.68 1676.63,1420.42 1678.07,1436.94 1679.51,1436.87 1680.95,1426.07 1685.27,1439.49 
  1686.71,1422.83 1688.15,1436.52 1689.59,1422.84 1691.03,1429.15 1695.35,1438.06 1696.79,1440.72 1698.23,1442.11 1699.67,1427.05 1701.11,1435.09 1705.43,1440.4 
  1706.87,1440.85 1708.31,1435.84 1709.75,1433.29 1711.19,1407.61 1715.51,1438.97 1716.95,1425.93 1718.39,1418.5 1719.83,1436.35 1721.27,1425.58 1725.59,1402.79 
  1727.03,1430.16 1728.47,1366.23 1729.91,1381.35 1731.35,1428.24 1735.67,1431.11 1737.11,1438.96 1738.55,1440.38 1739.99,1442.72 1741.43,1442.97 1745.75,1440.19 
  1747.2,1442.26 1748.64,1442.66 1751.52,1444.95 1755.84,1440.93 1757.28,1438.27 1758.72,1426.61 1760.16,1435.79 1761.6,1438.11 1765.92,1441.34 1767.36,1441.23 
  1768.8,1431.69 1770.24,1438.69 1771.68,1440.72 1776,1438.39 1777.44,1437.51 1778.88,1397.18 1780.32,1430.15 1781.76,1436.86 1786.08,1438.93 1787.52,1441.4 
  1788.96,1444.6 1790.4,1441.95 1791.84,1445.22 1797.6,1442.85 1799.04,1438.27 1800.48,1439.37 1801.92,1432.57 1807.68,1430.51 1809.12,1441.41 1810.56,1439.92 
  1812,1435.38 1816.32,1442.5 1817.76,1439.2 1819.21,1423.89 1820.65,1429.56 1822.09,1441.48 1827.85,1439.32 1829.29,1440.4 1830.73,1438.56 1832.17,1434.67 
  1836.49,1436.34 1837.93,1442.12 1839.37,1442.03 1840.81,1442.33 1842.25,1443.2 1846.57,1430.73 1848.01,1439.78 1849.45,1434.25 1850.89,1436.01 1852.33,1442.21 
  1856.65,1442.84 1858.09,1441.6 1859.53,1441.23 1860.97,1442.2 1862.41,1443.32 1866.73,1443.62 1868.17,1440.84 1869.61,1442 1871.05,1437.31 1872.49,1442.55 
  1878.25,1439.32 1879.69,1441.58 1881.13,1440.47 1882.57,1439.16 1886.89,1440.69 1888.33,1440.71 1889.77,1438 1891.22,1438.35 1892.66,1441.2 1896.98,1440.84 
  1898.42,1441.75 1899.86,1440.92 1901.3,1440.36 1902.74,1440.11 1907.06,1443.65 1908.5,1438.78 1909.94,1437.56 1911.38,1440.8 1912.82,1443.3 1917.14,1439.18 
  1918.58,1418.65 1920.02,1430.01 1921.46,1432.93 1922.9,1427.19 1927.22,1431.84 1928.66,1434.27 1930.1,1439.44 1931.54,1441.57 1932.98,1440.32 1937.3,1433.36 
  1938.74,1438.89 1940.18,1429.95 1941.62,1430.77 1943.06,1435.55 1947.38,1432.62 1948.82,1430.5 1950.26,1435.4 1951.7,1431.12 1957.46,1440.66 1958.9,1437.72 
  1960.34,1437.45 1961.78,1439.58 1963.23,1437.83 1967.55,1442.56 1968.99,1440.4 1970.43,1434.18 1971.87,1439.11 1973.31,1441.58 1977.63,1442.58 1979.07,1442.67 
  1980.51,1441.46 1981.95,1437.62 1983.39,1443.42 1987.71,1442.97 1989.15,1441.58 1990.59,1443.46 1992.03,1439.3 1993.47,1443.39 1997.79,1442.54 1999.23,1442.88 
  2000.67,1425.39 2002.11,1421.85 2003.55,1438.42 2007.87,1442.51 2009.31,1442.74 2010.75,1444.07 2012.19,1441.36 2013.63,1444 2019.39,1444.2 2020.83,1438.9 
  2022.27,1441.59 2023.71,1442.04 2028.03,1443.81 2029.47,1441.9 2030.91,1441.44 2032.35,1439.2 2033.79,1418.51 2038.12,1436.26 2039.56,1441.77 2041,1436 
  2042.44,1437.17 2043.88,1442.62 2048.2,1443.26 2049.64,1439.84 2051.08,1438.86 2052.52,1440.71 2053.96,1442.21 2058.28,1437.96 2059.72,1434.56 2061.16,1441.37 
  2062.6,1419.14 2064.04,1433.66 2068.36,1439.77 2071.24,1441.08 2072.68,1435.9 2074.12,1440.79 2078.44,1443.07 2079.88,1433.55 2081.32,1440.43 2082.76,1443.73 
  2084.2,1443.29 2088.52,1444.62 2089.96,1442.13 2091.4,1444.01 2092.84,1440.15 2094.28,1444.03 2098.6,1444.35 2100.04,1444.2 2101.48,1442.3 2102.92,1426.59 
  2104.36,1443.84 2108.69,1441.72 2110.13,1442.54 2111.57,1438.1 2113.01,1442.51 2114.45,1440.59 2118.77,1445.43 2120.21,1440.19 2121.65,1438.18 2123.09,1430.84 
  2124.53,1437.34 2128.85,1439.96 2130.29,1441.8 2131.73,1442.45 2133.17,1428.15 2134.61,1426.59 2138.93,1438.3 2140.37,1436.96 2141.81,1440.52 2143.25,1435.01 
  2144.69,1439.72 2149.01,1443.12 2150.45,1441.99 2151.89,1442.01 2153.33,1441 2154.77,1443.71 2160.53,1427.76 2161.97,1442.3 2163.41,1441.23 2164.85,1443.16 
  2169.17,1441.36 2170.61,1443.29 2172.05,1444.28 2173.49,1443.81 2174.93,1444.9 2179.26,1442.59 2180.7,1444.26 2182.14,1441.12 2183.58,1443.19 2185.02,1444.32 
  2189.34,1439.23 2190.78,1443.19 2192.22,1440.07 2193.66,1443.27 2195.1,1443.79 2199.42,1443.3 2200.86,1444.57 2202.3,1442.93 2203.74,1444.42 2205.18,1444.06 
  2209.5,1443.7 2210.94,1442.41 2212.38,1444.94 2213.82,1443.77 2215.26,1444.05 2219.58,1444.62 2221.02,1445.19 2222.46,1444.94 2223.9,1442.25 2225.34,1444.32 
  2229.66,1442.7 2231.1,1443.79 2232.54,1429.88 2233.98,1439.78 2235.42,1439.52 2239.74,1440.48 2241.18,1444.61 2242.62,1440.69 2244.06,1434.74 2245.5,1443.21 
  2249.82,1444.95 2251.27,1440.32 2252.71,1443 2254.15,1433.06 2255.59,1443.06 2259.91,1443.04 2261.35,1439.1 2262.79,1428.19 2264.23,1442.61 2265.67,1444.2 
  2269.99,1445.19 2271.43,1442.93 2272.87,1444.72 2275.75,1445.58 2280.07,1442.8 2281.51,1438.79 2282.95,1437.36 2284.39,1426.83 2285.83,1377.63 2290.15,1433.81 
  
  "/>
<polyline clip-path="url(#clip232)" style="stroke:#e26f46; stroke-linecap:butt; stroke-linejoin:round; stroke-width:4; stroke-opacity:1; fill:none" points="
  203.301,1433.61 204.741,1438.72 206.181,1389.94 207.622,1438.59 209.062,1441.18 213.382,1443 214.823,1445.72 217.703,1444.96 219.143,1443.17 223.464,1444.55 
  224.904,1442.46 227.784,1429.27 229.225,1437.75 233.545,1434.74 234.985,1439.38 236.426,1434.39 237.866,1440.57 239.306,1439.17 243.627,1433.15 245.067,1435.17 
  246.507,1439.31 247.947,1439.08 249.387,1442 255.148,1432.4 256.588,1441.19 258.029,1427.19 259.469,1416.58 263.789,1401.92 265.23,1433.07 266.67,1402.97 
  268.11,1432.2 269.55,1411.21 273.871,1393.06 275.311,1411 276.751,1395.6 278.191,1433.58 279.632,1429.04 283.952,1440.93 285.392,1437.73 286.833,1433.67 
  288.273,1438.69 289.713,1437.08 295.474,1438.83 296.914,1432.74 298.354,1433.49 299.794,1437.6 304.115,1434.15 305.555,1431.49 306.995,1433.58 308.436,1433.18 
  309.876,1425.9 314.196,1414.59 315.637,1432.96 317.077,1437.99 318.517,1439.83 319.957,1431.16 324.278,1438.1 325.718,1432.44 327.158,1427.06 328.598,1419.14 
  330.039,1418.55 334.359,1422.69 335.799,1433.6 337.24,1429.58 338.68,1433.02 340.12,1425.05 344.441,1420.11 345.881,1428.75 347.321,1430.42 348.761,1406.65 
  350.201,1428.92 354.522,1432.65 355.962,1438.91 357.402,1439.12 358.843,1439.14 360.283,1416.05 364.603,1415.16 366.044,1423.69 367.484,1432.44 368.924,1406.29 
  370.364,1398.61 374.685,1422.23 376.125,1397.35 377.565,1428.89 379.005,1433.77 384.766,1440.28 386.206,1440.8 387.647,1440.23 389.087,1422.15 390.527,1430.19 
  394.848,1406.06 396.288,1436.95 397.728,1430.77 399.168,1433.55 400.608,1429.38 404.929,1435.84 406.369,1433.64 407.809,1403.97 409.25,1429.86 410.69,1428.88 
  415.01,1442.36 416.451,1441.28 417.891,1439.13 419.331,1418.37 420.771,1434.5 425.092,1440.85 426.532,1434.95 427.972,1434.82 429.412,1441.1 430.853,1443.96 
  436.613,1440.27 438.054,1440.98 439.494,1442.25 440.934,1442.68 445.255,1436.39 446.695,1441.95 448.135,1442.07 449.575,1438.32 451.015,1442.54 455.336,1442.63 
  456.776,1440.59 458.216,1440.62 459.657,1437.32 461.097,1436.32 465.417,1438.18 466.858,1439.16 468.298,1437.69 469.738,1441.63 471.178,1443.43 475.499,1443.23 
  476.939,1435.52 478.379,1438.08 479.819,1435.74 481.26,1440.93 485.58,1442.33 487.02,1441.75 488.461,1443.02 489.901,1444.11 495.662,1442.05 497.102,1432.59 
  498.542,1438.72 499.982,1432.04 501.422,1439.79 505.743,1443.53 507.183,1431.63 508.623,1440.91 510.064,1425.7 511.504,1440.98 515.824,1438.57 517.265,1442.86 
  518.705,1442.66 520.145,1442.24 521.585,1438.01 525.906,1436.56 527.346,1436.34 528.786,1428.12 530.226,1413.04 531.667,1407.11 535.987,1435.75 537.427,1405.9 
  538.868,1423.27 540.308,1418.63 541.748,1432.14 546.069,1440.55 547.509,1436.92 548.949,1440.14 550.389,1443.07 551.829,1419.86 556.15,1442.98 557.59,1443.85 
  559.03,1442.07 560.471,1441.72 561.911,1439.12 566.231,1444.08 567.672,1444.49 569.112,1443.5 570.552,1442.03 571.992,1443.13 577.753,1439.39 579.193,1441.2 
  580.633,1437.75 582.074,1435.29 586.394,1438.55 587.834,1433.49 589.275,1432.96 590.715,1437.05 592.155,1433.12 596.476,1438.5 597.916,1437.09 599.356,1415.03 
  600.796,1440.33 602.236,1439.69 606.557,1437.73 607.997,1433.34 609.437,1436.76 610.878,1419.35 612.318,1432.05 616.638,1424.36 618.079,1426.08 619.519,1414.02 
  620.959,1414.87 622.399,1417.08 626.72,1426.83 628.16,1422.82 629.6,1401.82 631.04,1378.93 632.481,1382.75 636.801,1368.38 638.241,1373.87 639.682,1205.04 
  641.122,1319.54 642.562,1400.57 646.883,1420.54 648.323,1431.7 649.763,1415.75 651.203,1420.45 652.643,1431.8 656.964,1428.71 658.404,1437.98 659.844,1418.03 
  661.285,1430.58 662.725,1437.29 667.045,1434.46 668.486,1432.85 669.926,1432.05 671.366,1437.02 672.806,1436.28 677.127,1442.49 678.567,1443.23 680.007,1439.88 
  681.447,1432.91 682.888,1441.27 687.208,1438.75 688.648,1441.81 690.089,1435.58 691.529,1441.22 692.969,1433.57 697.29,1443.76 698.73,1441.83 700.17,1444.15 
  703.05,1443.18 707.371,1429.77 708.811,1440.26 710.251,1443.11 711.692,1438.05 713.132,1440.06 717.452,1429.29 718.893,1424.08 720.333,1418.09 721.773,1413.62 
  723.213,1399.66 727.534,1376.27 728.974,1369.24 730.414,1356.55 731.854,1412.52 733.295,1427.01 737.615,1439.92 739.055,1442.92 740.496,1444.42 743.376,1443.62 
  747.697,1443.43 749.137,1441.73 750.577,1435.31 753.457,1407.6 757.778,1408.7 759.218,1380.73 760.658,1414.97 762.099,1431.46 763.539,1418.39 767.859,1412 
  769.3,1379.52 770.74,1390.25 772.18,1390.98 773.62,1410.67 779.381,1404.29 780.821,1394.21 782.261,1410.56 783.702,1432.06 788.022,1434.89 789.462,1417.36 
  790.903,1397.26 792.343,1384.38 793.783,1396 798.104,1380.97 799.544,1421.52 800.984,1413.18 802.424,1434.53 803.864,1422.17 808.185,1426.22 809.625,1432.04 
  811.065,1434.03 812.506,1438.39 813.946,1440.74 819.707,1440.68 821.147,1437.22 822.587,1440.9 824.027,1436.19 828.348,1442.32 829.788,1441.56 831.228,1441.83 
  832.668,1435.86 834.109,1440.31 838.429,1443.06 839.869,1433.9 841.31,1430.06 842.75,1440.24 844.19,1428.24 848.511,1438.42 849.951,1421.04 851.391,1425.43 
  852.831,1434.57 854.271,1414.41 858.592,1435.26 860.032,1434.28 861.472,1404.46 862.912,1433.37 864.353,1438.74 868.673,1438.84 870.113,1435.36 871.554,1418.58 
  872.994,1416.32 874.434,1427.67 878.755,1433.51 880.195,1427.85 881.635,1414.2 883.075,1431.5 888.836,1431.88 890.276,1439.14 891.716,1418.48 893.157,1432.74 
  894.597,1442.44 898.917,1439.66 900.358,1434.26 901.798,1438.07 903.238,1437.67 904.678,1430.41 908.999,1439.99 910.439,1435.77 911.879,1436.49 913.319,1438.28 
  914.76,1440.84 919.08,1433.01 920.52,1422.31 921.961,1422.37 923.401,1419.71 924.841,1435.18 929.162,1438.74 930.602,1426.58 932.042,1400.07 933.482,1427.7 
  934.922,1439.06 939.243,1437.04 940.683,1420.45 942.123,1432.31 943.564,1440.53 945.004,1439.56 949.324,1443.59 950.765,1440.58 952.205,1437.96 953.645,1441.88 
  955.085,1440.66 960.846,1433.45 962.286,1437.63 963.726,1436.32 965.167,1432.79 969.487,1427.19 970.927,1429.75 972.368,1438.98 973.808,1430.83 975.248,1429.69 
  979.569,1438.97 981.009,1434.82 982.449,1438.02 983.889,1439.36 985.329,1433.24 989.65,1428.69 991.09,1433.92 992.53,1429.85 993.971,1435.88 995.411,1441.37 
  999.731,1433.27 1001.17,1441.68 1002.61,1440.23 1004.05,1436.37 1005.49,1432.87 1009.81,1424.52 1011.25,1418.6 1012.69,1428.39 1014.13,1436.22 1019.89,1418.2 
  1021.33,1401.54 1022.77,1408.22 1024.21,1421.52 1025.66,1434.88 1029.98,1441 1031.42,1443.33 1032.86,1438.01 1034.3,1440.64 1035.74,1443.82 1040.06,1441.44 
  1041.5,1440.84 1042.94,1440 1044.38,1438.95 1045.82,1434 1050.14,1421.19 1051.58,1430.81 1053.02,1434.6 1054.46,1434.02 1055.9,1439.29 1060.22,1431 
  1061.66,1434.93 1063.1,1432.69 1064.54,1430.18 1065.98,1429.65 1070.3,1440.28 1071.74,1426.84 1073.18,1402.58 1074.62,1429.51 1076.06,1438.37 1080.38,1434.96 
  1081.82,1439.34 1083.26,1404.58 1084.7,1400.62 1086.14,1339.16 1090.46,225.585 1091.9,1226.77 1093.34,1161.09 1094.78,1291.86 1096.22,1394.97 1100.55,1381.6 
  1101.99,1346.73 1103.43,1382.11 1104.87,1396.83 1106.31,1380.97 1112.07,1411.65 1113.51,1406.29 1114.95,1402.35 1116.39,1418.94 1120.71,1426.63 1122.15,1431.58 
  1123.59,1430.2 1125.03,1355.41 1126.47,1391.49 1130.79,1415.47 1132.23,1395.55 1133.67,1418.86 1135.11,1391.13 1136.55,1393.8 1140.87,1402.5 1142.31,1371.08 
  1143.75,1380.47 1145.19,1373.79 1146.63,1372.81 1150.95,1412.35 1152.39,1420.1 1153.83,1402.75 1155.27,1416.82 1156.71,1429.45 1161.03,1439.24 1162.47,1431.68 
  1163.91,1420.64 1165.35,1428.07 1166.79,1434.39 1171.12,1431.32 1172.56,1430.7 1174,1418.24 1175.44,1428.93 1176.88,1429.04 1181.2,1438.24 1182.64,1431.47 
  1184.08,1412.57 1185.52,1432.79 1186.96,1429.62 1191.28,1437.31 1192.72,1435.91 1194.16,1425.13 1195.6,1427.88 1197.04,1427.08 1201.36,1418.34 1202.8,1429.17 
  1204.24,1436.05 1205.68,1418.26 1207.12,1422.22 1211.44,1424.68 1212.88,1411.13 1214.32,1423.71 1215.76,1432.41 1217.2,1436.78 1221.52,1433.65 1222.96,1426.42 
  1224.4,1440.57 1227.28,1443.4 1231.6,1437.22 1233.04,1428.37 1234.48,1432.39 1235.92,1406.76 1237.36,1413.45 1241.69,1407.83 1243.13,1400.34 1244.57,1388.3 
  1246.01,1409.03 1247.45,1409.49 1251.77,1349.22 1253.21,1422.16 1254.65,1405.82 1256.09,1403.17 1257.53,1396.31 1261.85,1415.82 1263.29,1426.55 1264.73,1438.42 
  1266.17,1442 1271.93,1434.93 1273.37,1437.89 1274.81,1438.83 1276.25,1430.9 1282.01,1396.18 1283.45,1410.52 1284.89,1393.31 1286.33,1309.29 1287.77,1360.29 
  1292.09,1350.64 1293.53,1361.83 1294.97,1346.51 1296.41,1344.47 1297.85,1338.82 1303.61,1361.87 1305.05,1214.21 1306.49,1275.99 1307.93,1400.53 1312.25,1414.22 
  1313.7,1391.66 1315.14,1382.25 1316.58,1320.48 1318.02,1410.91 1322.34,1387.73 1323.78,1396.75 1325.22,1284.72 1326.66,1322.32 1328.1,1374.14 1332.42,1327.67 
  1333.86,1267.52 1335.3,1356.88 1336.74,1329.44 1338.18,1419 1343.94,1415.94 1345.38,1423.97 1346.82,1418.86 1348.26,1410 1352.58,1421.58 1354.02,1425.7 
  1355.46,1402.42 1356.9,1404.95 1358.34,1421.64 1362.66,1417.49 1364.1,1420.23 1365.54,1424.04 1366.98,1430.52 1368.42,1420.04 1372.74,1419.66 1374.18,1420.59 
  1375.62,1423.27 1377.06,1389.6 1378.5,1434.72 1382.82,1434.41 1384.26,1437.55 1385.7,1415.67 1387.15,1432.41 1388.59,1432.05 1392.91,1437.72 1394.35,1435.01 
  1395.79,1434.73 1397.23,1435.74 1402.99,1438.85 1404.43,1433.65 1405.87,1432.88 1407.31,1438.85 1408.75,1430.37 1413.07,1438.24 1414.51,1428.14 1415.95,1428.94 
  1417.39,1420.98 1418.83,1431.3 1423.15,1430.09 1424.59,1429.74 1426.03,1433.13 1427.47,1437.63 1428.91,1443.07 1433.23,1437.88 1434.67,1437.01 1436.11,1437.73 
  1437.55,1431.7 1438.99,1434.64 1443.31,1438.53 1444.75,1436.58 1446.19,1434.61 1447.63,1425.47 1449.07,1414.61 1453.39,1434.77 1454.83,1430.81 1456.27,1428.71 
  1457.71,1428.62 1459.16,1420.42 1463.48,1435.64 1464.92,1439.04 1466.36,1438.29 1467.8,1425.14 1469.24,1428.7 1473.56,1435.51 1475,1430.08 1476.44,1411.5 
  1477.88,1406.86 1479.32,1437.15 1483.64,1440.54 1485.08,1436.32 1486.52,1437.33 1487.96,1439.52 1489.4,1442.51 1495.16,1437.62 1496.6,1437.19 1498.04,1440.24 
  1499.48,1430.65 1503.8,1437.57 1505.24,1442.91 1506.68,1440.37 1508.12,1438.56 1509.56,1431.6 1513.88,1430.37 1515.32,1420.13 1516.76,1432.54 1518.2,1413.4 
  1519.64,1427.97 1523.96,1430.53 1525.4,1434 1526.84,1434.82 1528.28,1435.6 1529.72,1360.13 1534.05,1386.08 1535.49,1412.09 1536.93,1427.59 1538.37,1429.51 
  1539.81,1438.8 1545.57,1434.21 1547.01,1424.6 1548.45,1429.19 1549.89,1438.47 1554.21,1438.86 1555.65,1441.07 1557.09,1439.97 1558.53,1436.93 1559.97,1439.9 
  1564.29,1443.19 1565.73,1443.04 1567.17,1443.62 1568.61,1440.08 1570.05,1442.79 1574.37,1440.72 1575.81,1436.93 1577.25,1437.53 1578.69,1436.18 1580.13,1438.32 
  1584.45,1435.25 1585.89,1433.66 1587.33,1441.29 1588.77,1441.72 1590.21,1442.08 1594.53,1443.31 1595.97,1443.5 1597.41,1440.46 1598.85,1442.91 1600.29,1443.17 
  1604.62,1444.34 1606.06,1441.27 1607.5,1437.99 1608.94,1442.52 1610.38,1439.8 1614.7,1437.9 1616.14,1443.65 1617.58,1442.34 1619.02,1438.08 1620.46,1427.23 
  1624.78,1442.09 1626.22,1439.23 1627.66,1440.59 1629.1,1433.64 1630.54,1438.28 1636.3,1441.5 1637.74,1442.69 1639.18,1440.92 1640.62,1426.08 1644.94,1417.51 
  1646.38,1396.8 1647.82,1420.32 1649.26,1424.79 1650.7,1433.32 1655.02,1434.78 1656.46,1437.33 1657.9,1430.88 1659.34,1440.58 1660.78,1439.98 1665.1,1435.84 
  1666.54,1432.87 1667.98,1435.46 1669.42,1419.59 1670.86,1435.32 1675.19,1436.13 1676.63,1427.01 1678.07,1439.14 1679.51,1437.84 1680.95,1430.34 1685.27,1443.68 
  1686.71,1428.13 1688.15,1436.19 1689.59,1428.4 1691.03,1434.19 1695.35,1439.51 1696.79,1438.92 1698.23,1442.43 1699.67,1428.62 1701.11,1440.34 1705.43,1442.25 
  1706.87,1441.59 1708.31,1436.31 1709.75,1433.73 1711.19,1411.55 1715.51,1438.45 1716.95,1427.5 1718.39,1418.21 1719.83,1436.69 1721.27,1429.87 1725.59,1432.76 
  1727.03,1433.86 1728.47,1382.34 1729.91,1389.38 1731.35,1428.35 1735.67,1431.32 1737.11,1440.11 1738.55,1438.27 1739.99,1442.62 1741.43,1440.96 1745.75,1442.82 
  1747.2,1441.89 1748.64,1442.5 1751.52,1445.42 1755.84,1441.68 1757.28,1440.9 1758.72,1434.9 1760.16,1433.34 1761.6,1438.51 1765.92,1440.92 1767.36,1442.03 
  1768.8,1436.81 1770.24,1436.63 1771.68,1441.36 1776,1437.8 1777.44,1438.42 1778.88,1406.15 1780.32,1429.99 1781.76,1434.7 1786.08,1440.56 1787.52,1442.21 
  1788.96,1444.2 1790.4,1442.9 1791.84,1444.67 1797.6,1444.07 1799.04,1439.53 1800.48,1441.53 1801.92,1437.48 1807.68,1426.9 1809.12,1441.14 1810.56,1442 
  1812,1439.89 1816.32,1442.12 1817.76,1440.88 1819.21,1430.16 1820.65,1433.22 1822.09,1443.41 1827.85,1441.42 1829.29,1441.89 1830.73,1439.24 1832.17,1434.24 
  1836.49,1436.65 1837.93,1442.06 1839.37,1441.44 1840.81,1441.1 1842.25,1443.04 1846.57,1435.5 1848.01,1437.36 1849.45,1436.55 1850.89,1439.75 1852.33,1441.76 
  1856.65,1443.13 1858.09,1441.94 1859.53,1440.96 1860.97,1442.93 1862.41,1443.81 1866.73,1443 1868.17,1441.45 1869.61,1440.81 1871.05,1431.97 1872.49,1442.04 
  1878.25,1441.1 1879.69,1443.13 1881.13,1441.5 1882.57,1438.6 1886.89,1440.82 1888.33,1442.56 1889.77,1438.3 1891.22,1439.45 1892.66,1440.21 1896.98,1441.57 
  1898.42,1441.09 1899.86,1440.39 1901.3,1439.62 1902.74,1437.61 1907.06,1443.7 1908.5,1439.87 1909.94,1438.41 1911.38,1440.14 1912.82,1443.69 1917.14,1441.06 
  1918.58,1426.35 1920.02,1432.81 1921.46,1429.94 1922.9,1433.36 1927.22,1434.19 1928.66,1437.82 1930.1,1440.64 1931.54,1441.39 1932.98,1441.32 1937.3,1435.64 
  1938.74,1439.09 1940.18,1427.92 1941.62,1431.87 1943.06,1436.36 1947.38,1435.02 1948.82,1428.06 1950.26,1434.21 1951.7,1433.54 1957.46,1439.3 1958.9,1436.37 
  1960.34,1439.59 1961.78,1439.73 1963.23,1438.69 1967.55,1442.48 1968.99,1442.37 1970.43,1433.16 1971.87,1441.16 1973.31,1442.17 1977.63,1441.79 1979.07,1442.87 
  1980.51,1442.05 1981.95,1438.43 1983.39,1443.71 1987.71,1443.2 1989.15,1442.77 1990.59,1443.69 1992.03,1439.59 1993.47,1443.87 1997.79,1444.37 1999.23,1442.03 
  2000.67,1426.71 2002.11,1424.4 2003.55,1440.27 2007.87,1442.99 2009.31,1443.5 2010.75,1443.07 2012.19,1441.47 2013.63,1444 2019.39,1443.91 2020.83,1438.67 
  2022.27,1442.1 2023.71,1442.93 2028.03,1444.1 2029.47,1442.54 2030.91,1442.42 2032.35,1438.29 2033.79,1424.66 2038.12,1435.54 2039.56,1442.82 2041,1435.82 
  2042.44,1437.49 2043.88,1439.72 2048.2,1444.31 2049.64,1441.35 2051.08,1439.87 2052.52,1441.96 2053.96,1441.94 2058.28,1439.87 2059.72,1437.45 2061.16,1436.69 
  2062.6,1422.34 2064.04,1436.99 2068.36,1441.6 2071.24,1439.74 2072.68,1436.26 2074.12,1441.76 2078.44,1443.81 2079.88,1437.95 2081.32,1441.82 2082.76,1443.3 
  2084.2,1443.6 2088.52,1444.67 2089.96,1441.41 2091.4,1444.34 2092.84,1441.73 2094.28,1443.31 2098.6,1444.39 2100.04,1444.47 2101.48,1442.92 2102.92,1431.4 
  2104.36,1441.91 2108.69,1441.82 2110.13,1443.17 2111.57,1439.4 2113.01,1443.74 2114.45,1442.28 2118.77,1445.25 2120.21,1440.93 2121.65,1436.6 2123.09,1429.55 
  2124.53,1438.5 2128.85,1442 2130.29,1441.75 2131.73,1441.38 2133.17,1428.47 2134.61,1433.07 2138.93,1438.31 2140.37,1440.31 2141.81,1439.41 2143.25,1436.92 
  2144.69,1440.98 2149.01,1442.93 2150.45,1441.84 2151.89,1442.22 2153.33,1441.89 2154.77,1443.49 2160.53,1430.2 2161.97,1442.39 2163.41,1440.78 2164.85,1442.3 
  2169.17,1443.36 2170.61,1443.97 2172.05,1444.36 2173.49,1444.17 2174.93,1444.32 2179.26,1443.6 2180.7,1444.26 2182.14,1442.23 2183.58,1441.8 2185.02,1444.51 
  2189.34,1439.37 2190.78,1442.44 2192.22,1440.94 2193.66,1443.5 2195.1,1443.55 2199.42,1443.59 2200.86,1443.72 2202.3,1443.7 2203.74,1443.95 2205.18,1443.55 
  2209.5,1443.91 2210.94,1442.18 2212.38,1444.56 2213.82,1444.38 2215.26,1444.4 2219.58,1444.8 2221.02,1445.15 2222.46,1444.85 2223.9,1443.15 2225.34,1444.68 
  2229.66,1443.65 2231.1,1442.91 2232.54,1433.84 2233.98,1441.14 2235.42,1439.81 2239.74,1440.65 2241.18,1444.51 2242.62,1441.03 2244.06,1436.18 2245.5,1443.96 
  2249.82,1444.85 2251.27,1442.11 2252.71,1443.39 2254.15,1429.97 2255.59,1443.04 2259.91,1443.23 2261.35,1436.36 2262.79,1436.79 2264.23,1442.98 2265.67,1443.85 
  2269.99,1443.49 2271.43,1443.97 2272.87,1445.01 2275.75,1445.61 2280.07,1443.52 2281.51,1440.21 2282.95,1439.22 2284.39,1432.62 2285.83,1393.82 2290.15,1432.85 
  
  "/>
<path clip-path="url(#clip230)" d="
M1781.34 250.738 L2279.02 250.738 L2279.02 95.2176 L1781.34 95.2176  Z
  " fill="#ffffff" fill-rule="evenodd" fill-opacity="1"/>
<polyline clip-path="url(#clip230)" style="stroke:#000000; stroke-linecap:butt; stroke-linejoin:round; stroke-width:4; stroke-opacity:1; fill:none" points="
  1781.34,250.738 2279.02,250.738 2279.02,95.2176 1781.34,95.2176 1781.34,250.738 
  "/>
<polyline clip-path="url(#clip230)" style="stroke:#009af9; stroke-linecap:butt; stroke-linejoin:round; stroke-width:4; stroke-opacity:1; fill:none" points="
  1805.92,147.058 1953.39,147.058 
  "/>
<path clip-path="url(#clip230)" d="M1977.97 128.319 L1987.78 128.319 L1987.78 131.629 L1982.23 131.629 L1982.23 167.277 L1987.78 167.277 L1987.78 170.588 L1977.97 170.588 L1977.97 128.319 Z" fill="#000000" fill-rule="evenodd" fill-opacity="1" /><path clip-path="url(#clip230)" d="M2000.88 129.778 L2000.88 142.625 L1996.95 142.625 L1996.95 129.778 L2000.88 129.778 M2009.63 129.778 L2009.63 142.625 L2005.7 142.625 L2005.7 129.778 L2009.63 129.778 Z" fill="#000000" fill-rule="evenodd" fill-opacity="1" /><path clip-path="url(#clip230)" d="M2033.68 142.393 Q2032.97 141.977 2032.11 141.791 Q2031.28 141.583 2030.26 141.583 Q2026.65 141.583 2024.7 143.944 Q2022.78 146.282 2022.78 150.68 L2022.78 164.338 L2018.5 164.338 L2018.5 138.412 L2022.78 138.412 L2022.78 142.44 Q2024.12 140.078 2026.28 138.944 Q2028.43 137.787 2031.51 137.787 Q2031.95 137.787 2032.48 137.856 Q2033.01 137.903 2033.66 138.018 L2033.68 142.393 Z" fill="#000000" fill-rule="evenodd" fill-opacity="1" /><path clip-path="url(#clip230)" d="M2035.1 138.412 L2039.61 138.412 L2047.71 160.171 L2055.81 138.412 L2060.33 138.412 L2050.61 164.338 L2044.82 164.338 L2035.1 138.412 Z" fill="#000000" fill-rule="evenodd" fill-opacity="1" /><path clip-path="url(#clip230)" d="M2070.23 129.778 L2070.23 142.625 L2066.3 142.625 L2066.3 129.778 L2070.23 129.778 M2078.98 129.778 L2078.98 142.625 L2075.05 142.625 L2075.05 129.778 L2078.98 129.778 Z" fill="#000000" fill-rule="evenodd" fill-opacity="1" /><path clip-path="url(#clip230)" d="M2089.1 158.458 L2093.98 158.458 L2093.98 162.439 L2090.19 169.847 L2087.2 169.847 L2089.1 162.439 L2089.1 158.458 Z" fill="#000000" fill-rule="evenodd" fill-opacity="1" /><path clip-path="url(#clip230)" d="M2122.18 129.778 L2122.18 142.625 L2118.24 142.625 L2118.24 129.778 L2122.18 129.778 M2130.93 129.778 L2130.93 142.625 L2126.99 142.625 L2126.99 129.778 L2130.93 129.778 Z" fill="#000000" fill-rule="evenodd" fill-opacity="1" /><path clip-path="url(#clip230)" d="M2158.57 151.398 Q2158.57 146.699 2156.62 144.037 Q2154.7 141.352 2151.32 141.352 Q2147.94 141.352 2146 144.037 Q2144.08 146.699 2144.08 151.398 Q2144.08 156.097 2146 158.782 Q2147.94 161.444 2151.32 161.444 Q2154.7 161.444 2156.62 158.782 Q2158.57 156.097 2158.57 151.398 M2144.08 142.347 Q2145.42 140.032 2147.46 138.921 Q2149.52 137.787 2152.36 137.787 Q2157.09 137.787 2160.03 141.537 Q2162.99 145.287 2162.99 151.398 Q2162.99 157.509 2160.03 161.259 Q2157.09 165.009 2152.36 165.009 Q2149.52 165.009 2147.46 163.898 Q2145.42 162.763 2144.08 160.449 L2144.08 164.338 L2139.79 164.338 L2139.79 128.319 L2144.08 128.319 L2144.08 142.347 Z" fill="#000000" fill-rule="evenodd" fill-opacity="1" /><path clip-path="url(#clip230)" d="M2166.99 138.412 L2171.51 138.412 L2179.61 160.171 L2187.71 138.412 L2192.22 138.412 L2182.5 164.338 L2176.72 164.338 L2166.99 138.412 Z" fill="#000000" fill-rule="evenodd" fill-opacity="1" /><path clip-path="url(#clip230)" d="M2202.13 129.778 L2202.13 142.625 L2198.2 142.625 L2198.2 129.778 L2202.13 129.778 M2210.88 129.778 L2210.88 142.625 L2206.95 142.625 L2206.95 129.778 L2210.88 129.778 Z" fill="#000000" fill-rule="evenodd" fill-opacity="1" /><path clip-path="url(#clip230)" d="M2229.86 128.319 L2229.86 170.588 L2220.05 170.588 L2220.05 167.277 L2225.58 167.277 L2225.58 131.629 L2220.05 131.629 L2220.05 128.319 L2229.86 128.319 Z" fill="#000000" fill-rule="evenodd" fill-opacity="1" /><polyline clip-path="url(#clip230)" style="stroke:#e26f46; stroke-linecap:butt; stroke-linejoin:round; stroke-width:4; stroke-opacity:1; fill:none" points="
  1805.92,198.898 1953.39,198.898 
  "/>
<path clip-path="url(#clip230)" d="M1977.97 180.159 L1987.78 180.159 L1987.78 183.469 L1982.23 183.469 L1982.23 219.117 L1987.78 219.117 L1987.78 222.428 L1977.97 222.428 L1977.97 180.159 Z" fill="#000000" fill-rule="evenodd" fill-opacity="1" /><path clip-path="url(#clip230)" d="M2000.88 181.618 L2000.88 194.465 L1996.95 194.465 L1996.95 181.618 L2000.88 181.618 M2009.63 181.618 L2009.63 194.465 L2005.7 194.465 L2005.7 181.618 L2009.63 181.618 Z" fill="#000000" fill-rule="evenodd" fill-opacity="1" /><path clip-path="url(#clip230)" d="M2033.68 194.233 Q2032.97 193.817 2032.11 193.631 Q2031.28 193.423 2030.26 193.423 Q2026.65 193.423 2024.7 195.784 Q2022.78 198.122 2022.78 202.52 L2022.78 216.178 L2018.5 216.178 L2018.5 190.252 L2022.78 190.252 L2022.78 194.28 Q2024.12 191.918 2026.28 190.784 Q2028.43 189.627 2031.51 189.627 Q2031.95 189.627 2032.48 189.696 Q2033.01 189.743 2033.66 189.858 L2033.68 194.233 Z" fill="#000000" fill-rule="evenodd" fill-opacity="1" /><path clip-path="url(#clip230)" d="M2035.1 190.252 L2039.61 190.252 L2047.71 212.011 L2055.81 190.252 L2060.33 190.252 L2050.61 216.178 L2044.82 216.178 L2035.1 190.252 Z" fill="#000000" fill-rule="evenodd" fill-opacity="1" /><path clip-path="url(#clip230)" d="M2070.23 181.618 L2070.23 194.465 L2066.3 194.465 L2066.3 181.618 L2070.23 181.618 M2078.98 181.618 L2078.98 194.465 L2075.05 194.465 L2075.05 181.618 L2078.98 181.618 Z" fill="#000000" fill-rule="evenodd" fill-opacity="1" /><path clip-path="url(#clip230)" d="M2089.1 210.298 L2093.98 210.298 L2093.98 214.279 L2090.19 221.687 L2087.2 221.687 L2089.1 214.279 L2089.1 210.298 Z" fill="#000000" fill-rule="evenodd" fill-opacity="1" /><path clip-path="url(#clip230)" d="M2122.18 181.618 L2122.18 194.465 L2118.24 194.465 L2118.24 181.618 L2122.18 181.618 M2130.93 181.618 L2130.93 194.465 L2126.99 194.465 L2126.99 181.618 L2130.93 181.618 Z" fill="#000000" fill-rule="evenodd" fill-opacity="1" /><path clip-path="url(#clip230)" d="M2158.57 203.238 Q2158.57 198.539 2156.62 195.877 Q2154.7 193.192 2151.32 193.192 Q2147.94 193.192 2146 195.877 Q2144.08 198.539 2144.08 203.238 Q2144.08 207.937 2146 210.622 Q2147.94 213.284 2151.32 213.284 Q2154.7 213.284 2156.62 210.622 Q2158.57 207.937 2158.57 203.238 M2144.08 194.187 Q2145.42 191.872 2147.46 190.761 Q2149.52 189.627 2152.36 189.627 Q2157.09 189.627 2160.03 193.377 Q2162.99 197.127 2162.99 203.238 Q2162.99 209.349 2160.03 213.099 Q2157.09 216.849 2152.36 216.849 Q2149.52 216.849 2147.46 215.738 Q2145.42 214.603 2144.08 212.289 L2144.08 216.178 L2139.79 216.178 L2139.79 180.159 L2144.08 180.159 L2144.08 194.187 Z" fill="#000000" fill-rule="evenodd" fill-opacity="1" /><path clip-path="url(#clip230)" d="M2166.99 190.252 L2171.51 190.252 L2179.61 212.011 L2187.71 190.252 L2192.22 190.252 L2182.5 216.178 L2176.72 216.178 L2166.99 190.252 Z" fill="#000000" fill-rule="evenodd" fill-opacity="1" /><path clip-path="url(#clip230)" d="M2202.13 181.618 L2202.13 194.465 L2198.2 194.465 L2198.2 181.618 L2202.13 181.618 M2210.88 181.618 L2210.88 194.465 L2206.95 194.465 L2206.95 181.618 L2210.88 181.618 Z" fill="#000000" fill-rule="evenodd" fill-opacity="1" /><path clip-path="url(#clip230)" d="M2229.86 180.159 L2229.86 222.428 L2220.05 222.428 L2220.05 219.117 L2225.58 219.117 L2225.58 183.469 L2220.05 183.469 L2220.05 180.159 L2229.86 180.159 Z" fill="#000000" fill-rule="evenodd" fill-opacity="1" /></svg>
