<?xml version="1.0" encoding="utf-8"?>
<svg xmlns="http://www.w3.org/2000/svg" xmlns:xlink="http://www.w3.org/1999/xlink" width="600" height="400" viewBox="0 0 2400 1600">
<defs>
  <clipPath id="clip690">
    <rect x="0" y="0" width="2400" height="1600"/>
  </clipPath>
</defs>
<path clip-path="url(#clip690)" d="
M0 1600 L2400 1600 L2400 0 L0 0  Z
  " fill="#ffffff" fill-rule="evenodd" fill-opacity="1"/>
<defs>
  <clipPath id="clip691">
    <rect x="480" y="0" width="1681" height="1600"/>
  </clipPath>
</defs>
<path clip-path="url(#clip690)" d="
M86.9921 1521.01 L2352.76 1521.01 L2352.76 47.2441 L86.9921 47.2441  Z
  " fill="#ffffff" fill-rule="evenodd" fill-opacity="1"/>
<defs>
  <clipPath id="clip692">
    <rect x="86" y="47" width="2267" height="1475"/>
  </clipPath>
</defs>
<polyline clip-path="url(#clip692)" style="stroke:#000000; stroke-width:2; stroke-opacity:0.1; fill:none" points="
  354.863,1521.01 354.863,47.2441 
  "/>
<polyline clip-path="url(#clip692)" style="stroke:#000000; stroke-width:2; stroke-opacity:0.1; fill:none" points="
  754.995,1521.01 754.995,47.2441 
  "/>
<polyline clip-path="url(#clip692)" style="stroke:#000000; stroke-width:2; stroke-opacity:0.1; fill:none" points="
  1155.13,1521.01 1155.13,47.2441 
  "/>
<polyline clip-path="url(#clip692)" style="stroke:#000000; stroke-width:2; stroke-opacity:0.1; fill:none" points="
  1555.26,1521.01 1555.26,47.2441 
  "/>
<polyline clip-path="url(#clip692)" style="stroke:#000000; stroke-width:2; stroke-opacity:0.1; fill:none" points="
  1955.39,1521.01 1955.39,47.2441 
  "/>
<polyline clip-path="url(#clip692)" style="stroke:#000000; stroke-width:2; stroke-opacity:0.1; fill:none" points="
  86.9921,1479.3 2352.76,1479.3 
  "/>
<polyline clip-path="url(#clip692)" style="stroke:#000000; stroke-width:2; stroke-opacity:0.1; fill:none" points="
  86.9921,1013.74 2352.76,1013.74 
  "/>
<polyline clip-path="url(#clip692)" style="stroke:#000000; stroke-width:2; stroke-opacity:0.1; fill:none" points="
  86.9921,548.191 2352.76,548.191 
  "/>
<polyline clip-path="url(#clip692)" style="stroke:#000000; stroke-width:2; stroke-opacity:0.1; fill:none" points="
  86.9921,82.6379 2352.76,82.6379 
  "/>
<polyline clip-path="url(#clip690)" style="stroke:#000000; stroke-width:4; stroke-opacity:1; fill:none" points="
  86.9921,1521.01 2352.76,1521.01 
  "/>
<polyline clip-path="url(#clip690)" style="stroke:#000000; stroke-width:4; stroke-opacity:1; fill:none" points="
  86.9921,1521.01 86.9921,47.2441 
  "/>
<polyline clip-path="url(#clip690)" style="stroke:#000000; stroke-width:4; stroke-opacity:1; fill:none" points="
  354.863,1521.01 354.863,1503.32 
  "/>
<polyline clip-path="url(#clip690)" style="stroke:#000000; stroke-width:4; stroke-opacity:1; fill:none" points="
  754.995,1521.01 754.995,1503.32 
  "/>
<polyline clip-path="url(#clip690)" style="stroke:#000000; stroke-width:4; stroke-opacity:1; fill:none" points="
  1155.13,1521.01 1155.13,1503.32 
  "/>
<polyline clip-path="url(#clip690)" style="stroke:#000000; stroke-width:4; stroke-opacity:1; fill:none" points="
  1555.26,1521.01 1555.26,1503.32 
  "/>
<polyline clip-path="url(#clip690)" style="stroke:#000000; stroke-width:4; stroke-opacity:1; fill:none" points="
  1955.39,1521.01 1955.39,1503.32 
  "/>
<polyline clip-path="url(#clip690)" style="stroke:#000000; stroke-width:4; stroke-opacity:1; fill:none" points="
  86.9921,1479.3 114.181,1479.3 
  "/>
<polyline clip-path="url(#clip690)" style="stroke:#000000; stroke-width:4; stroke-opacity:1; fill:none" points="
  86.9921,1013.74 114.181,1013.74 
  "/>
<polyline clip-path="url(#clip690)" style="stroke:#000000; stroke-width:4; stroke-opacity:1; fill:none" points="
  86.9921,548.191 114.181,548.191 
  "/>
<polyline clip-path="url(#clip690)" style="stroke:#000000; stroke-width:4; stroke-opacity:1; fill:none" points="
  86.9921,82.6379 114.181,82.6379 
  "/>
<path clip-path="url(#clip690)" d="M 0 0 M323.984 1543 Q320.372 1543 318.544 1546.56 Q316.738 1550.11 316.738 1557.23 Q316.738 1564.34 318.544 1567.91 Q320.372 1571.45 323.984 1571.45 Q327.618 1571.45 329.423 1567.91 Q331.252 1564.34 331.252 1557.23 Q331.252 1550.11 329.423 1546.56 Q327.618 1543 323.984 1543 M323.984 1539.29 Q329.794 1539.29 332.849 1543.9 Q335.928 1548.48 335.928 1557.23 Q335.928 1565.96 332.849 1570.57 Q329.794 1575.15 323.984 1575.15 Q318.173 1575.15 315.095 1570.57 Q312.039 1565.96 312.039 1557.23 Q312.039 1548.48 315.095 1543.9 Q318.173 1539.29 323.984 1539.29 Z" fill="#000000" fill-rule="evenodd" fill-opacity="1" /><path clip-path="url(#clip690)" d="M 0 0 M340.997 1568.6 L345.882 1568.6 L345.882 1574.48 L340.997 1574.48 L340.997 1568.6 Z" fill="#000000" fill-rule="evenodd" fill-opacity="1" /><path clip-path="url(#clip690)" d="M 0 0 M351.761 1570.54 L359.4 1570.54 L359.4 1544.18 L351.09 1545.85 L351.09 1541.59 L359.354 1539.92 L364.03 1539.92 L364.03 1570.54 L371.668 1570.54 L371.668 1574.48 L351.761 1574.48 L351.761 1570.54 Z" fill="#000000" fill-rule="evenodd" fill-opacity="1" /><path clip-path="url(#clip690)" d="M 0 0 M376.784 1539.92 L395.141 1539.92 L395.141 1543.86 L381.067 1543.86 L381.067 1552.33 Q382.085 1551.98 383.104 1551.82 Q384.122 1551.63 385.141 1551.63 Q390.928 1551.63 394.307 1554.8 Q397.687 1557.98 397.687 1563.39 Q397.687 1568.97 394.215 1572.07 Q390.742 1575.15 384.423 1575.15 Q382.247 1575.15 379.979 1574.78 Q377.733 1574.41 375.326 1573.67 L375.326 1568.97 Q377.409 1570.1 379.631 1570.66 Q381.854 1571.22 384.33 1571.22 Q388.335 1571.22 390.673 1569.11 Q393.011 1567 393.011 1563.39 Q393.011 1559.78 390.673 1557.67 Q388.335 1555.57 384.33 1555.57 Q382.455 1555.57 380.58 1555.98 Q378.729 1556.4 376.784 1557.28 L376.784 1539.92 Z" fill="#000000" fill-rule="evenodd" fill-opacity="1" /><path clip-path="url(#clip690)" d="M 0 0 M723.664 1543 Q720.053 1543 718.224 1546.56 Q716.419 1550.11 716.419 1557.23 Q716.419 1564.34 718.224 1567.91 Q720.053 1571.45 723.664 1571.45 Q727.298 1571.45 729.104 1567.91 Q730.932 1564.34 730.932 1557.23 Q730.932 1550.11 729.104 1546.56 Q727.298 1543 723.664 1543 M723.664 1539.29 Q729.474 1539.29 732.53 1543.9 Q735.608 1548.48 735.608 1557.23 Q735.608 1565.96 732.53 1570.57 Q729.474 1575.15 723.664 1575.15 Q717.854 1575.15 714.775 1570.57 Q711.72 1565.96 711.72 1557.23 Q711.72 1548.48 714.775 1543.9 Q717.854 1539.29 723.664 1539.29 Z" fill="#000000" fill-rule="evenodd" fill-opacity="1" /><path clip-path="url(#clip690)" d="M 0 0 M740.678 1568.6 L745.562 1568.6 L745.562 1574.48 L740.678 1574.48 L740.678 1568.6 Z" fill="#000000" fill-rule="evenodd" fill-opacity="1" /><path clip-path="url(#clip690)" d="M 0 0 M751.442 1570.54 L759.08 1570.54 L759.08 1544.18 L750.77 1545.85 L750.77 1541.59 L759.034 1539.92 L763.71 1539.92 L763.71 1570.54 L771.349 1570.54 L771.349 1574.48 L751.442 1574.48 L751.442 1570.54 Z" fill="#000000" fill-rule="evenodd" fill-opacity="1" /><path clip-path="url(#clip690)" d="M 0 0 M786.418 1558.07 Q783.085 1558.07 781.164 1559.85 Q779.265 1561.63 779.265 1564.76 Q779.265 1567.88 781.164 1569.67 Q783.085 1571.45 786.418 1571.45 Q789.752 1571.45 791.673 1569.67 Q793.594 1567.86 793.594 1564.76 Q793.594 1561.63 791.673 1559.85 Q789.775 1558.07 786.418 1558.07 M781.742 1556.08 Q778.733 1555.34 777.043 1553.28 Q775.377 1551.22 775.377 1548.25 Q775.377 1544.11 778.316 1541.7 Q781.279 1539.29 786.418 1539.29 Q791.58 1539.29 794.52 1541.7 Q797.46 1544.11 797.46 1548.25 Q797.46 1551.22 795.77 1553.28 Q794.103 1555.34 791.117 1556.08 Q794.497 1556.86 796.372 1559.16 Q798.27 1561.45 798.27 1564.76 Q798.27 1569.78 795.191 1572.47 Q792.136 1575.15 786.418 1575.15 Q780.701 1575.15 777.622 1572.47 Q774.566 1569.78 774.566 1564.76 Q774.566 1561.45 776.465 1559.16 Q778.363 1556.86 781.742 1556.08 M780.029 1548.69 Q780.029 1551.38 781.696 1552.88 Q783.386 1554.39 786.418 1554.39 Q789.427 1554.39 791.117 1552.88 Q792.83 1551.38 792.83 1548.69 Q792.83 1546.01 791.117 1544.5 Q789.427 1543 786.418 1543 Q783.386 1543 781.696 1544.5 Q780.029 1546.01 780.029 1548.69 Z" fill="#000000" fill-rule="evenodd" fill-opacity="1" /><path clip-path="url(#clip690)" d="M 0 0 M1124.55 1543 Q1120.94 1543 1119.11 1546.56 Q1117.3 1550.11 1117.3 1557.23 Q1117.3 1564.34 1119.11 1567.91 Q1120.94 1571.45 1124.55 1571.45 Q1128.18 1571.45 1129.99 1567.91 Q1131.82 1564.34 1131.82 1557.23 Q1131.82 1550.11 1129.99 1546.56 Q1128.18 1543 1124.55 1543 M1124.55 1539.29 Q1130.36 1539.29 1133.41 1543.9 Q1136.49 1548.48 1136.49 1557.23 Q1136.49 1565.96 1133.41 1570.57 Q1130.36 1575.15 1124.55 1575.15 Q1118.74 1575.15 1115.66 1570.57 Q1112.6 1565.96 1112.6 1557.23 Q1112.6 1548.48 1115.66 1543.9 Q1118.74 1539.29 1124.55 1539.29 Z" fill="#000000" fill-rule="evenodd" fill-opacity="1" /><path clip-path="url(#clip690)" d="M 0 0 M1141.56 1568.6 L1146.45 1568.6 L1146.45 1574.48 L1141.56 1574.48 L1141.56 1568.6 Z" fill="#000000" fill-rule="evenodd" fill-opacity="1" /><path clip-path="url(#clip690)" d="M 0 0 M1155.54 1570.54 L1171.86 1570.54 L1171.86 1574.48 L1149.92 1574.48 L1149.92 1570.54 Q1152.58 1567.79 1157.16 1563.16 Q1161.77 1558.51 1162.95 1557.17 Q1165.2 1554.64 1166.08 1552.91 Q1166.98 1551.15 1166.98 1549.46 Q1166.98 1546.7 1165.03 1544.97 Q1163.11 1543.23 1160.01 1543.23 Q1157.81 1543.23 1155.36 1543.99 Q1152.93 1544.76 1150.15 1546.31 L1150.15 1541.59 Q1152.97 1540.45 1155.43 1539.87 Q1157.88 1539.29 1159.92 1539.29 Q1165.29 1539.29 1168.48 1541.98 Q1171.68 1544.67 1171.68 1549.16 Q1171.68 1551.29 1170.87 1553.21 Q1170.08 1555.1 1167.97 1557.7 Q1167.4 1558.37 1164.29 1561.59 Q1161.19 1564.78 1155.54 1570.54 Z" fill="#000000" fill-rule="evenodd" fill-opacity="1" /><path clip-path="url(#clip690)" d="M 0 0 M1177.74 1570.54 L1185.38 1570.54 L1185.38 1544.18 L1177.07 1545.85 L1177.07 1541.59 L1185.33 1539.92 L1190.01 1539.92 L1190.01 1570.54 L1197.65 1570.54 L1197.65 1574.48 L1177.74 1574.48 L1177.74 1570.54 Z" fill="#000000" fill-rule="evenodd" fill-opacity="1" /><path clip-path="url(#clip690)" d="M 0 0 M1523.82 1543 Q1520.21 1543 1518.38 1546.56 Q1516.58 1550.11 1516.58 1557.23 Q1516.58 1564.34 1518.38 1567.91 Q1520.21 1571.45 1523.82 1571.45 Q1527.46 1571.45 1529.26 1567.91 Q1531.09 1564.34 1531.09 1557.23 Q1531.09 1550.11 1529.26 1546.56 Q1527.46 1543 1523.82 1543 M1523.82 1539.29 Q1529.63 1539.29 1532.69 1543.9 Q1535.77 1548.48 1535.77 1557.23 Q1535.77 1565.96 1532.69 1570.57 Q1529.63 1575.15 1523.82 1575.15 Q1518.01 1575.15 1514.93 1570.57 Q1511.88 1565.96 1511.88 1557.23 Q1511.88 1548.48 1514.93 1543.9 Q1518.01 1539.29 1523.82 1539.29 Z" fill="#000000" fill-rule="evenodd" fill-opacity="1" /><path clip-path="url(#clip690)" d="M 0 0 M1540.84 1568.6 L1545.72 1568.6 L1545.72 1574.48 L1540.84 1574.48 L1540.84 1568.6 Z" fill="#000000" fill-rule="evenodd" fill-opacity="1" /><path clip-path="url(#clip690)" d="M 0 0 M1554.82 1570.54 L1571.14 1570.54 L1571.14 1574.48 L1549.19 1574.48 L1549.19 1570.54 Q1551.86 1567.79 1556.44 1563.16 Q1561.05 1558.51 1562.23 1557.17 Q1564.47 1554.64 1565.35 1552.91 Q1566.25 1551.15 1566.25 1549.46 Q1566.25 1546.7 1564.31 1544.97 Q1562.39 1543.23 1559.29 1543.23 Q1557.09 1543.23 1554.63 1543.99 Q1552.2 1544.76 1549.43 1546.31 L1549.43 1541.59 Q1552.25 1540.45 1554.7 1539.87 Q1557.16 1539.29 1559.19 1539.29 Q1564.56 1539.29 1567.76 1541.98 Q1570.95 1544.67 1570.95 1549.16 Q1570.95 1551.29 1570.14 1553.21 Q1569.36 1555.1 1567.25 1557.7 Q1566.67 1558.37 1563.57 1561.59 Q1560.47 1564.78 1554.82 1570.54 Z" fill="#000000" fill-rule="evenodd" fill-opacity="1" /><path clip-path="url(#clip690)" d="M 0 0 M1589.05 1543.99 L1577.25 1562.44 L1589.05 1562.44 L1589.05 1543.99 M1587.83 1539.92 L1593.71 1539.92 L1593.71 1562.44 L1598.64 1562.44 L1598.64 1566.33 L1593.71 1566.33 L1593.71 1574.48 L1589.05 1574.48 L1589.05 1566.33 L1573.45 1566.33 L1573.45 1561.82 L1587.83 1539.92 Z" fill="#000000" fill-rule="evenodd" fill-opacity="1" /><path clip-path="url(#clip690)" d="M 0 0 M1924.65 1543 Q1921.04 1543 1919.21 1546.56 Q1917.4 1550.11 1917.4 1557.23 Q1917.4 1564.34 1919.21 1567.91 Q1921.04 1571.45 1924.65 1571.45 Q1928.28 1571.45 1930.09 1567.91 Q1931.92 1564.34 1931.92 1557.23 Q1931.92 1550.11 1930.09 1546.56 Q1928.28 1543 1924.65 1543 M1924.65 1539.29 Q1930.46 1539.29 1933.52 1543.9 Q1936.59 1548.48 1936.59 1557.23 Q1936.59 1565.96 1933.52 1570.57 Q1930.46 1575.15 1924.65 1575.15 Q1918.84 1575.15 1915.76 1570.57 Q1912.71 1565.96 1912.71 1557.23 Q1912.71 1548.48 1915.76 1543.9 Q1918.84 1539.29 1924.65 1539.29 Z" fill="#000000" fill-rule="evenodd" fill-opacity="1" /><path clip-path="url(#clip690)" d="M 0 0 M1941.66 1568.6 L1946.55 1568.6 L1946.55 1574.48 L1941.66 1574.48 L1941.66 1568.6 Z" fill="#000000" fill-rule="evenodd" fill-opacity="1" /><path clip-path="url(#clip690)" d="M 0 0 M1955.64 1570.54 L1971.96 1570.54 L1971.96 1574.48 L1950.02 1574.48 L1950.02 1570.54 Q1952.68 1567.79 1957.27 1563.16 Q1961.87 1558.51 1963.05 1557.17 Q1965.3 1554.64 1966.18 1552.91 Q1967.08 1551.15 1967.08 1549.46 Q1967.08 1546.7 1965.14 1544.97 Q1963.21 1543.23 1960.11 1543.23 Q1957.91 1543.23 1955.46 1543.99 Q1953.03 1544.76 1950.25 1546.31 L1950.25 1541.59 Q1953.08 1540.45 1955.53 1539.87 Q1957.98 1539.29 1960.02 1539.29 Q1965.39 1539.29 1968.58 1541.98 Q1971.78 1544.67 1971.78 1549.16 Q1971.78 1551.29 1970.97 1553.21 Q1970.18 1555.1 1968.08 1557.7 Q1967.5 1558.37 1964.39 1561.59 Q1961.29 1564.78 1955.64 1570.54 Z" fill="#000000" fill-rule="evenodd" fill-opacity="1" /><path clip-path="url(#clip690)" d="M 0 0 M1975.85 1539.92 L1998.08 1539.92 L1998.08 1541.91 L1985.53 1574.48 L1980.64 1574.48 L1992.45 1543.86 L1975.85 1543.86 L1975.85 1539.92 Z" fill="#000000" fill-rule="evenodd" fill-opacity="1" /><path clip-path="url(#clip690)" d="M 0 0 M51.0477 1465.1 Q47.4367 1465.1 45.608 1468.66 Q43.8024 1472.2 43.8024 1479.33 Q43.8024 1486.44 45.608 1490 Q47.4367 1493.55 51.0477 1493.55 Q54.682 1493.55 56.4875 1490 Q58.3162 1486.44 58.3162 1479.33 Q58.3162 1472.2 56.4875 1468.66 Q54.682 1465.1 51.0477 1465.1 M51.0477 1461.39 Q56.8579 1461.39 59.9134 1466 Q62.9921 1470.58 62.9921 1479.33 Q62.9921 1488.06 59.9134 1492.67 Q56.8579 1497.25 51.0477 1497.25 Q45.2376 1497.25 42.1589 1492.67 Q39.1034 1488.06 39.1034 1479.33 Q39.1034 1470.58 42.1589 1466 Q45.2376 1461.39 51.0477 1461.39 Z" fill="#000000" fill-rule="evenodd" fill-opacity="1" /><path clip-path="url(#clip690)" d="M 0 0 M42.0895 996.464 L60.4458 996.464 L60.4458 1000.4 L46.3718 1000.4 L46.3718 1008.87 Q47.3904 1008.52 48.4089 1008.36 Q49.4274 1008.18 50.4459 1008.18 Q56.2329 1008.18 59.6125 1011.35 Q62.9921 1014.52 62.9921 1019.94 Q62.9921 1025.52 59.5199 1028.62 Q56.0477 1031.7 49.7283 1031.7 Q47.5524 1031.7 45.2839 1031.33 Q43.0385 1030.95 40.6311 1030.21 L40.6311 1025.52 Q42.7145 1026.65 44.9367 1027.2 Q47.1589 1027.76 49.6357 1027.76 Q53.6403 1027.76 55.9783 1025.65 Q58.3162 1023.55 58.3162 1019.94 Q58.3162 1016.33 55.9783 1014.22 Q53.6403 1012.11 49.6357 1012.11 Q47.7607 1012.11 45.8857 1012.53 Q44.0339 1012.95 42.0895 1013.83 L42.0895 996.464 Z" fill="#000000" fill-rule="evenodd" fill-opacity="1" /><path clip-path="url(#clip690)" d="M 0 0 M16.0711 561.536 L23.7099 561.536 L23.7099 535.17 L15.3998 536.837 L15.3998 532.578 L23.6636 530.911 L28.3395 530.911 L28.3395 561.536 L35.9784 561.536 L35.9784 565.471 L16.0711 565.471 L16.0711 561.536 Z" fill="#000000" fill-rule="evenodd" fill-opacity="1" /><path clip-path="url(#clip690)" d="M 0 0 M51.0477 533.99 Q47.4367 533.99 45.608 537.555 Q43.8024 541.096 43.8024 548.226 Q43.8024 555.332 45.608 558.897 Q47.4367 562.439 51.0477 562.439 Q54.682 562.439 56.4875 558.897 Q58.3162 555.332 58.3162 548.226 Q58.3162 541.096 56.4875 537.555 Q54.682 533.99 51.0477 533.99 M51.0477 530.286 Q56.8579 530.286 59.9134 534.893 Q62.9921 539.476 62.9921 548.226 Q62.9921 556.953 59.9134 561.559 Q56.8579 566.142 51.0477 566.142 Q45.2376 566.142 42.1589 561.559 Q39.1034 556.953 39.1034 548.226 Q39.1034 539.476 42.1589 534.893 Q45.2376 530.286 51.0477 530.286 Z" fill="#000000" fill-rule="evenodd" fill-opacity="1" /><path clip-path="url(#clip690)" d="M 0 0 M17.0664 95.9827 L24.7053 95.9827 L24.7053 69.6171 L16.3952 71.2838 L16.3952 67.0245 L24.659 65.3579 L29.3349 65.3579 L29.3349 95.9827 L36.9737 95.9827 L36.9737 99.9179 L17.0664 99.9179 L17.0664 95.9827 Z" fill="#000000" fill-rule="evenodd" fill-opacity="1" /><path clip-path="url(#clip690)" d="M 0 0 M42.0895 65.3579 L60.4458 65.3579 L60.4458 69.293 L46.3718 69.293 L46.3718 77.7652 Q47.3904 77.418 48.4089 77.256 Q49.4274 77.0708 50.4459 77.0708 Q56.2329 77.0708 59.6125 80.2421 Q62.9921 83.4133 62.9921 88.83 Q62.9921 94.4086 59.5199 97.5105 Q56.0477 100.589 49.7283 100.589 Q47.5524 100.589 45.2839 100.219 Q43.0385 99.8484 40.6311 99.1077 L40.6311 94.4086 Q42.7145 95.5429 44.9367 96.0985 Q47.1589 96.654 49.6357 96.654 Q53.6403 96.654 55.9783 94.5475 Q58.3162 92.4411 58.3162 88.83 Q58.3162 85.2189 55.9783 83.1124 Q53.6403 81.0059 49.6357 81.0059 Q47.7607 81.0059 45.8857 81.4226 Q44.0339 81.8393 42.0895 82.7189 L42.0895 65.3579 Z" fill="#000000" fill-rule="evenodd" fill-opacity="1" /><path clip-path="url(#clip692)" d="
M151.118 1476.62 L156.201 1476.4 L161.284 1476.17 L166.368 1475.92 L171.451 1475.65 L176.534 1475.36 L181.618 1475.03 L186.701 1474.66 L191.785 1474.24 L196.868 1473.75 
  L201.951 1473.19 L207.035 1472.54 L212.118 1471.8 L217.202 1470.94 L222.285 1469.96 L227.368 1468.85 L232.452 1467.6 L237.535 1466.2 L242.618 1464.64 L247.702 1462.92 
  L252.785 1461.03 L257.869 1458.98 L262.952 1456.77 L268.035 1454.38 L273.119 1451.83 L278.202 1449.11 L283.286 1446.23 L288.369 1443.19 L293.452 1440 L298.536 1436.66 
  L303.619 1433.18 L308.703 1429.57 L313.786 1425.84 L318.869 1422.02 L323.953 1418.1 L329.036 1414.12 L334.119 1410.11 L339.203 1406.07 L344.286 1402.05 L349.37 1398.06 
  L354.453 1394.13 L359.536 1390.3 L364.62 1386.57 L369.703 1382.98 L374.787 1379.54 L379.87 1376.26 L384.953 1373.15 L390.037 1370.21 L395.12 1367.42 L400.203 1364.8 
  L405.287 1362.31 L410.37 1359.94 L415.454 1357.67 L420.537 1355.47 L425.62 1353.33 L430.704 1351.2 L435.787 1349.08 L440.871 1346.93 L445.954 1344.75 L451.037 1342.52 
  L456.121 1340.23 L461.204 1337.88 L466.287 1335.47 L471.371 1333.02 L476.454 1330.53 L481.538 1328.02 L486.621 1325.49 L491.704 1322.96 L496.788 1320.42 L501.871 1317.87 
  L506.955 1315.3 L512.038 1312.68 L517.121 1309.98 L522.205 1307.13 L527.288 1304.09 L532.372 1300.78 L537.455 1297.12 L542.538 1293.03 L547.622 1288.42 L552.705 1283.23 
  L557.788 1277.36 L562.872 1270.77 L567.955 1263.42 L573.039 1255.27 L578.122 1246.32 L583.205 1236.6 L588.289 1226.14 L593.372 1215.02 L598.456 1203.32 L603.539 1191.15 
  L608.622 1178.62 L613.706 1165.85 L618.789 1152.99 L623.872 1140.15 L628.956 1127.46 L634.039 1115.01 L639.123 1102.9 L644.206 1091.19 L649.289 1079.91 L654.373 1069.1 
  L654.373 1479.3 L649.289 1479.3 L644.206 1479.3 L639.123 1479.3 L634.039 1479.3 L628.956 1479.3 L623.872 1479.3 L618.789 1479.3 L613.706 1479.3 L608.622 1479.3 
  L603.539 1479.3 L598.456 1479.3 L593.372 1479.3 L588.289 1479.3 L583.205 1479.3 L578.122 1479.3 L573.039 1479.3 L567.955 1479.3 L562.872 1479.3 L557.788 1479.3 
  L552.705 1479.3 L547.622 1479.3 L542.538 1479.3 L537.455 1479.3 L532.372 1479.3 L527.288 1479.3 L522.205 1479.3 L517.121 1479.3 L512.038 1479.3 L506.955 1479.3 
  L501.871 1479.3 L496.788 1479.3 L491.704 1479.3 L486.621 1479.3 L481.538 1479.3 L476.454 1479.3 L471.371 1479.3 L466.287 1479.3 L461.204 1479.3 L456.121 1479.3 
  L451.037 1479.3 L445.954 1479.3 L440.871 1479.3 L435.787 1479.3 L430.704 1479.3 L425.62 1479.3 L420.537 1479.3 L415.454 1479.3 L410.37 1479.3 L405.287 1479.3 
  L400.203 1479.3 L395.12 1479.3 L390.037 1479.3 L384.953 1479.3 L379.87 1479.3 L374.787 1479.3 L369.703 1479.3 L364.62 1479.3 L359.536 1479.3 L354.453 1479.3 
  L349.37 1479.3 L344.286 1479.3 L339.203 1479.3 L334.119 1479.3 L329.036 1479.3 L323.953 1479.3 L318.869 1479.3 L313.786 1479.3 L308.703 1479.3 L303.619 1479.3 
  L298.536 1479.3 L293.452 1479.3 L288.369 1479.3 L283.286 1479.3 L278.202 1479.3 L273.119 1479.3 L268.035 1479.3 L262.952 1479.3 L257.869 1479.3 L252.785 1479.3 
  L247.702 1479.3 L242.618 1479.3 L237.535 1479.3 L232.452 1479.3 L227.368 1479.3 L222.285 1479.3 L217.202 1479.3 L212.118 1479.3 L207.035 1479.3 L201.951 1479.3 
  L196.868 1479.3 L191.785 1479.3 L186.701 1479.3 L181.618 1479.3 L176.534 1479.3 L171.451 1479.3 L166.368 1479.3 L161.284 1479.3 L156.201 1479.3 L151.118 1479.3 
   Z
  " fill="#ffa500" fill-rule="evenodd" fill-opacity="0.5"/>
<polyline clip-path="url(#clip692)" style="stroke:#ffa500; stroke-width:4; stroke-opacity:1; fill:none" points="
  151.118,1476.62 156.201,1476.4 161.284,1476.17 166.368,1475.92 171.451,1475.65 176.534,1475.36 181.618,1475.03 186.701,1474.66 191.785,1474.24 196.868,1473.75 
  201.951,1473.19 207.035,1472.54 212.118,1471.8 217.202,1470.94 222.285,1469.96 227.368,1468.85 232.452,1467.6 237.535,1466.2 242.618,1464.64 247.702,1462.92 
  252.785,1461.03 257.869,1458.98 262.952,1456.77 268.035,1454.38 273.119,1451.83 278.202,1449.11 283.286,1446.23 288.369,1443.19 293.452,1440 298.536,1436.66 
  303.619,1433.18 308.703,1429.57 313.786,1425.84 318.869,1422.02 323.953,1418.1 329.036,1414.12 334.119,1410.11 339.203,1406.07 344.286,1402.05 349.37,1398.06 
  354.453,1394.13 359.536,1390.3 364.62,1386.57 369.703,1382.98 374.787,1379.54 379.87,1376.26 384.953,1373.15 390.037,1370.21 395.12,1367.42 400.203,1364.8 
  405.287,1362.31 410.37,1359.94 415.454,1357.67 420.537,1355.47 425.62,1353.33 430.704,1351.2 435.787,1349.08 440.871,1346.93 445.954,1344.75 451.037,1342.52 
  456.121,1340.23 461.204,1337.88 466.287,1335.47 471.371,1333.02 476.454,1330.53 481.538,1328.02 486.621,1325.49 491.704,1322.96 496.788,1320.42 501.871,1317.87 
  506.955,1315.3 512.038,1312.68 517.121,1309.98 522.205,1307.13 527.288,1304.09 532.372,1300.78 537.455,1297.12 542.538,1293.03 547.622,1288.42 552.705,1283.23 
  557.788,1277.36 562.872,1270.77 567.955,1263.42 573.039,1255.27 578.122,1246.32 583.205,1236.6 588.289,1226.14 593.372,1215.02 598.456,1203.32 603.539,1191.15 
  608.622,1178.62 613.706,1165.85 618.789,1152.99 623.872,1140.15 628.956,1127.46 634.039,1115.01 639.123,1102.9 644.206,1091.19 649.289,1079.91 654.373,1069.1 
  
  "/>
<path clip-path="url(#clip692)" d="
M654.373 1069.1 L665.728 1046.5 L677.084 1025.61 L688.44 1005.58 L699.795 985.41 L711.151 964.231 L722.506 941.484 L733.862 917.007 L745.217 891.013 L756.573 863.982 
  L767.928 836.499 L779.284 809.074 L790.64 781.979 L801.995 755.142 L813.351 728.113 L824.706 700.126 L836.062 670.265 L847.417 637.694 L858.773 601.932 L870.129 563.081 
  L881.484 521.962 L892.84 480.092 L904.195 439.492 L915.551 402.34 L926.906 370.54 L938.262 345.307 L949.618 326.87 L960.973 314.376 L972.329 306.024 L983.684 299.409 
  L995.04 291.994 L1006.4 281.614 L1017.75 266.882 L1029.11 247.44 L1040.46 223.995 L1051.82 198.129 L1063.17 171.938 L1074.53 147.566 L1085.88 126.766 L1097.24 110.583 
  L1108.6 99.2651 L1119.95 92.4051 L1131.31 89.2341 L1142.66 88.9544 L1154.02 90.9743 L1165.37 94.9726 L1176.73 100.8 L1188.08 108.297 L1199.44 117.141 L1210.8 126.804 
  L1222.15 136.643 L1233.51 146.089 L1244.86 154.83 L1256.22 162.906 L1267.57 170.675 L1278.93 178.642 L1290.28 187.253 L1301.64 196.718 L1313 206.957 L1324.35 217.674 
  L1335.71 228.522 L1347.06 239.257 L1358.42 249.833 L1369.77 260.366 L1381.13 271.038 L1392.48 281.963 L1403.84 293.122 L1415.2 304.37 L1426.55 315.526 L1437.91 326.511 
  L1449.26 337.468 L1460.62 348.847 L1471.97 361.396 L1483.33 376.073 L1494.68 393.854 L1506.04 415.497 L1517.4 441.319 L1528.75 471.06 L1540.11 503.892 L1551.46 538.579 
  L1562.82 573.752 L1574.17 608.204 L1585.53 641.128 L1596.89 672.215 L1608.24 701.622 L1619.6 729.834 L1630.95 757.476 L1642.31 785.146 L1653.66 813.287 L1665.02 842.115 
  L1676.37 871.592 L1687.73 901.426 L1699.09 931.115 L1710.44 960.015 L1721.8 987.437 L1733.15 1012.76 L1744.51 1035.55 L1755.86 1055.59 L1767.22 1072.94 L1778.57 1087.91 
  L1778.57 1479.3 L1767.22 1479.3 L1755.86 1479.3 L1744.51 1479.3 L1733.15 1479.3 L1721.8 1479.3 L1710.44 1479.3 L1699.09 1479.3 L1687.73 1479.3 L1676.37 1479.3 
  L1665.02 1479.3 L1653.66 1479.3 L1642.31 1479.3 L1630.95 1479.3 L1619.6 1479.3 L1608.24 1479.3 L1596.89 1479.3 L1585.53 1479.3 L1574.17 1479.3 L1562.82 1479.3 
  L1551.46 1479.3 L1540.11 1479.3 L1528.75 1479.3 L1517.4 1479.3 L1506.04 1479.3 L1494.68 1479.3 L1483.33 1479.3 L1471.97 1479.3 L1460.62 1479.3 L1449.26 1479.3 
  L1437.91 1479.3 L1426.55 1479.3 L1415.2 1479.3 L1403.84 1479.3 L1392.48 1479.3 L1381.13 1479.3 L1369.77 1479.3 L1358.42 1479.3 L1347.06 1479.3 L1335.71 1479.3 
  L1324.35 1479.3 L1313 1479.3 L1301.64 1479.3 L1290.28 1479.3 L1278.93 1479.3 L1267.57 1479.3 L1256.22 1479.3 L1244.86 1479.3 L1233.51 1479.3 L1222.15 1479.3 
  L1210.8 1479.3 L1199.44 1479.3 L1188.08 1479.3 L1176.73 1479.3 L1165.37 1479.3 L1154.02 1479.3 L1142.66 1479.3 L1131.31 1479.3 L1119.95 1479.3 L1108.6 1479.3 
  L1097.24 1479.3 L1085.88 1479.3 L1074.53 1479.3 L1063.17 1479.3 L1051.82 1479.3 L1040.46 1479.3 L1029.11 1479.3 L1017.75 1479.3 L1006.4 1479.3 L995.04 1479.3 
  L983.684 1479.3 L972.329 1479.3 L960.973 1479.3 L949.618 1479.3 L938.262 1479.3 L926.906 1479.3 L915.551 1479.3 L904.195 1479.3 L892.84 1479.3 L881.484 1479.3 
  L870.129 1479.3 L858.773 1479.3 L847.417 1479.3 L836.062 1479.3 L824.706 1479.3 L813.351 1479.3 L801.995 1479.3 L790.64 1479.3 L779.284 1479.3 L767.928 1479.3 
  L756.573 1479.3 L745.217 1479.3 L733.862 1479.3 L722.506 1479.3 L711.151 1479.3 L699.795 1479.3 L688.44 1479.3 L677.084 1479.3 L665.728 1479.3 L654.373 1479.3 
   Z
  " fill="#008000" fill-rule="evenodd" fill-opacity="0.5"/>
<polyline clip-path="url(#clip692)" style="stroke:#008000; stroke-width:4; stroke-opacity:1; fill:none" points="
  654.373,1069.1 665.728,1046.5 677.084,1025.61 688.44,1005.58 699.795,985.41 711.151,964.231 722.506,941.484 733.862,917.007 745.217,891.013 756.573,863.982 
  767.928,836.499 779.284,809.074 790.64,781.979 801.995,755.142 813.351,728.113 824.706,700.126 836.062,670.265 847.417,637.694 858.773,601.932 870.129,563.081 
  881.484,521.962 892.84,480.092 904.195,439.492 915.551,402.34 926.906,370.54 938.262,345.307 949.618,326.87 960.973,314.376 972.329,306.024 983.684,299.409 
  995.04,291.994 1006.4,281.614 1017.75,266.882 1029.11,247.44 1040.46,223.995 1051.82,198.129 1063.17,171.938 1074.53,147.566 1085.88,126.766 1097.24,110.583 
  1108.6,99.2651 1119.95,92.4051 1131.31,89.2341 1142.66,88.9544 1154.02,90.9743 1165.37,94.9726 1176.73,100.8 1188.08,108.297 1199.44,117.141 1210.8,126.804 
  1222.15,136.643 1233.51,146.089 1244.86,154.83 1256.22,162.906 1267.57,170.675 1278.93,178.642 1290.28,187.253 1301.64,196.718 1313,206.957 1324.35,217.674 
  1335.71,228.522 1347.06,239.257 1358.42,249.833 1369.77,260.366 1381.13,271.038 1392.48,281.963 1403.84,293.122 1415.2,304.37 1426.55,315.526 1437.91,326.511 
  1449.26,337.468 1460.62,348.847 1471.97,361.396 1483.33,376.073 1494.68,393.854 1506.04,415.497 1517.4,441.319 1528.75,471.06 1540.11,503.892 1551.46,538.579 
  1562.82,573.752 1574.17,608.204 1585.53,641.128 1596.89,672.215 1608.24,701.622 1619.6,729.834 1630.95,757.476 1642.31,785.146 1653.66,813.287 1665.02,842.115 
  1676.37,871.592 1687.73,901.426 1699.09,931.115 1710.44,960.015 1721.8,987.437 1733.15,1012.76 1744.51,1035.55 1755.86,1055.59 1767.22,1072.94 1778.57,1087.91 
  
  "/>
<path clip-path="url(#clip692)" d="
M1778.57 1087.91 L1783.73 1094.05 L1788.88 1099.86 L1794.03 1105.4 L1799.18 1110.73 L1804.33 1115.94 L1809.49 1121.07 L1814.64 1126.2 L1819.79 1131.39 L1824.94 1136.71 
  L1830.1 1142.21 L1835.25 1147.94 L1840.4 1153.95 L1845.55 1160.27 L1850.7 1166.92 L1855.86 1173.94 L1861.01 1181.31 L1866.16 1189.04 L1871.31 1197.12 L1876.46 1205.53 
  L1881.62 1214.22 L1886.77 1223.17 L1891.92 1232.32 L1897.07 1241.63 L1902.22 1251.04 L1907.38 1260.49 L1912.53 1269.93 L1917.68 1279.29 L1922.83 1288.52 L1927.98 1297.56 
  L1933.14 1306.37 L1938.29 1314.9 L1943.44 1323.12 L1948.59 1330.97 L1953.75 1338.45 L1958.9 1345.53 L1964.05 1352.18 L1969.2 1358.41 L1974.35 1364.21 L1979.51 1369.58 
  L1984.66 1374.53 L1989.81 1379.07 L1994.96 1383.23 L2000.11 1387.01 L2005.27 1390.45 L2010.42 1393.57 L2015.57 1396.39 L2020.72 1398.95 L2025.87 1401.27 L2031.03 1403.39 
  L2036.18 1405.32 L2041.33 1407.1 L2046.48 1408.76 L2051.63 1410.33 L2056.79 1411.82 L2061.94 1413.28 L2067.09 1414.72 L2072.24 1416.17 L2077.4 1417.66 L2082.55 1419.21 
  L2087.7 1420.83 L2092.85 1422.55 L2098 1424.38 L2103.16 1426.33 L2108.31 1428.4 L2113.46 1430.6 L2118.61 1432.9 L2123.76 1435.32 L2128.92 1437.82 L2134.07 1440.38 
  L2139.22 1443 L2144.37 1445.63 L2149.52 1448.25 L2154.68 1450.85 L2159.83 1453.38 L2164.98 1455.83 L2170.13 1458.18 L2175.28 1460.4 L2180.44 1462.49 L2185.59 1464.43 
  L2190.74 1466.22 L2195.89 1467.86 L2201.05 1469.33 L2206.2 1470.65 L2211.35 1471.82 L2216.5 1472.85 L2221.65 1473.75 L2226.81 1474.52 L2231.96 1475.18 L2237.11 1475.73 
  L2242.26 1476.2 L2247.41 1476.59 L2252.57 1476.9 L2257.72 1477.16 L2262.87 1477.37 L2268.02 1477.54 L2273.17 1477.68 L2278.33 1477.79 L2283.48 1477.89 L2288.63 1477.98 
  L2288.63 1479.3 L2283.48 1479.3 L2278.33 1479.3 L2273.17 1479.3 L2268.02 1479.3 L2262.87 1479.3 L2257.72 1479.3 L2252.57 1479.3 L2247.41 1479.3 L2242.26 1479.3 
  L2237.11 1479.3 L2231.96 1479.3 L2226.81 1479.3 L2221.65 1479.3 L2216.5 1479.3 L2211.35 1479.3 L2206.2 1479.3 L2201.05 1479.3 L2195.89 1479.3 L2190.74 1479.3 
  L2185.59 1479.3 L2180.44 1479.3 L2175.28 1479.3 L2170.13 1479.3 L2164.98 1479.3 L2159.83 1479.3 L2154.68 1479.3 L2149.52 1479.3 L2144.37 1479.3 L2139.22 1479.3 
  L2134.07 1479.3 L2128.92 1479.3 L2123.76 1479.3 L2118.61 1479.3 L2113.46 1479.3 L2108.31 1479.3 L2103.16 1479.3 L2098 1479.3 L2092.85 1479.3 L2087.7 1479.3 
  L2082.55 1479.3 L2077.4 1479.3 L2072.24 1479.3 L2067.09 1479.3 L2061.94 1479.3 L2056.79 1479.3 L2051.63 1479.3 L2046.48 1479.3 L2041.33 1479.3 L2036.18 1479.3 
  L2031.03 1479.3 L2025.87 1479.3 L2020.72 1479.3 L2015.57 1479.3 L2010.42 1479.3 L2005.27 1479.3 L2000.11 1479.3 L1994.96 1479.3 L1989.81 1479.3 L1984.66 1479.3 
  L1979.51 1479.3 L1974.35 1479.3 L1969.2 1479.3 L1964.05 1479.3 L1958.9 1479.3 L1953.75 1479.3 L1948.59 1479.3 L1943.44 1479.3 L1938.29 1479.3 L1933.14 1479.3 
  L1927.98 1479.3 L1922.83 1479.3 L1917.68 1479.3 L1912.53 1479.3 L1907.38 1479.3 L1902.22 1479.3 L1897.07 1479.3 L1891.92 1479.3 L1886.77 1479.3 L1881.62 1479.3 
  L1876.46 1479.3 L1871.31 1479.3 L1866.16 1479.3 L1861.01 1479.3 L1855.86 1479.3 L1850.7 1479.3 L1845.55 1479.3 L1840.4 1479.3 L1835.25 1479.3 L1830.1 1479.3 
  L1824.94 1479.3 L1819.79 1479.3 L1814.64 1479.3 L1809.49 1479.3 L1804.33 1479.3 L1799.18 1479.3 L1794.03 1479.3 L1788.88 1479.3 L1783.73 1479.3 L1778.57 1479.3 
   Z
  " fill="#ffa500" fill-rule="evenodd" fill-opacity="0.5"/>
<polyline clip-path="url(#clip692)" style="stroke:#ffa500; stroke-width:4; stroke-opacity:1; fill:none" points="
  1778.57,1087.91 1783.73,1094.05 1788.88,1099.86 1794.03,1105.4 1799.18,1110.73 1804.33,1115.94 1809.49,1121.07 1814.64,1126.2 1819.79,1131.39 1824.94,1136.71 
  1830.1,1142.21 1835.25,1147.94 1840.4,1153.95 1845.55,1160.27 1850.7,1166.92 1855.86,1173.94 1861.01,1181.31 1866.16,1189.04 1871.31,1197.12 1876.46,1205.53 
  1881.62,1214.22 1886.77,1223.17 1891.92,1232.32 1897.07,1241.63 1902.22,1251.04 1907.38,1260.49 1912.53,1269.93 1917.68,1279.29 1922.83,1288.52 1927.98,1297.56 
  1933.14,1306.37 1938.29,1314.9 1943.44,1323.12 1948.59,1330.97 1953.75,1338.45 1958.9,1345.53 1964.05,1352.18 1969.2,1358.41 1974.35,1364.21 1979.51,1369.58 
  1984.66,1374.53 1989.81,1379.07 1994.96,1383.23 2000.11,1387.01 2005.27,1390.45 2010.42,1393.57 2015.57,1396.39 2020.72,1398.95 2025.87,1401.27 2031.03,1403.39 
  2036.18,1405.32 2041.33,1407.1 2046.48,1408.76 2051.63,1410.33 2056.79,1411.82 2061.94,1413.28 2067.09,1414.72 2072.24,1416.17 2077.4,1417.66 2082.55,1419.21 
  2087.7,1420.83 2092.85,1422.55 2098,1424.38 2103.16,1426.33 2108.31,1428.4 2113.46,1430.6 2118.61,1432.9 2123.76,1435.32 2128.92,1437.82 2134.07,1440.38 
  2139.22,1443 2144.37,1445.63 2149.52,1448.25 2154.68,1450.85 2159.83,1453.38 2164.98,1455.83 2170.13,1458.18 2175.28,1460.4 2180.44,1462.49 2185.59,1464.43 
  2190.74,1466.22 2195.89,1467.86 2201.05,1469.33 2206.2,1470.65 2211.35,1471.82 2216.5,1472.85 2221.65,1473.75 2226.81,1474.52 2231.96,1475.18 2237.11,1475.73 
  2242.26,1476.2 2247.41,1476.59 2252.57,1476.9 2257.72,1477.16 2262.87,1477.37 2268.02,1477.54 2273.17,1477.68 2278.33,1477.79 2283.48,1477.89 2288.63,1477.98 
  
  "/>
<polyline clip-path="url(#clip692)" style="stroke:#0000ff; stroke-width:4; stroke-opacity:1; fill:none" points="
  1213.08,1479.3 1213.08,128.792 
  "/>
<polyline clip-path="url(#clip692)" style="stroke:#000000; stroke-width:4; stroke-opacity:1; fill:none" points="
  1208.32,1479.3 1208.32,124.662 
  "/>
<path clip-path="url(#clip690)" d="
M1494.58 459.25 L2277.23 459.25 L2277.23 96.3696 L1494.58 96.3696  Z
  " fill="#ffffff" fill-rule="evenodd" fill-opacity="1"/>
<polyline clip-path="url(#clip690)" style="stroke:#000000; stroke-width:4; stroke-opacity:1; fill:none" points="
  1494.58,459.25 2277.23,459.25 2277.23,96.3696 1494.58,96.3696 1494.58,459.25 
  "/>
<path clip-path="url(#clip690)" d="
M1519.75 181.042 L1670.81 181.042 L1670.81 132.658 L1519.75 132.658 L1519.75 181.042  Z
  " fill="#ffa500" fill-rule="evenodd" fill-opacity="0.5"/>
<polyline clip-path="url(#clip690)" style="stroke:#ffa500; stroke-width:4; stroke-opacity:1; fill:none" points="
  1519.75,132.658 1670.81,132.658 
  "/>
<path clip-path="url(#clip690)" d="M 0 0 M1700.38 161.19 Q1700.38 165.889 1702.3 168.574 Q1704.24 171.236 1707.62 171.236 Q1711 171.236 1712.95 168.574 Q1714.89 165.889 1714.89 161.19 Q1714.89 156.491 1712.95 153.829 Q1711 151.144 1707.62 151.144 Q1704.24 151.144 1702.3 153.829 Q1700.38 156.491 1700.38 161.19 M1714.89 170.241 Q1713.55 172.555 1711.49 173.69 Q1709.45 174.801 1706.58 174.801 Q1701.88 174.801 1698.92 171.051 Q1695.98 167.301 1695.98 161.19 Q1695.98 155.079 1698.92 151.329 Q1701.88 147.579 1706.58 147.579 Q1709.45 147.579 1711.49 148.713 Q1713.55 149.824 1714.89 152.139 L1714.89 148.204 L1719.15 148.204 L1719.15 183.991 L1714.89 183.991 L1714.89 170.241 Z" fill="#000000" fill-rule="evenodd" fill-opacity="1" /><path clip-path="url(#clip690)" d="M 0 0 M1734.22 142.648 Q1730.61 142.648 1728.78 146.213 Q1726.98 149.755 1726.98 156.884 Q1726.98 163.991 1728.78 167.556 Q1730.61 171.097 1734.22 171.097 Q1737.85 171.097 1739.66 167.556 Q1741.49 163.991 1741.49 156.884 Q1741.49 149.755 1739.66 146.213 Q1737.85 142.648 1734.22 142.648 M1734.22 138.945 Q1740.03 138.945 1743.09 143.551 Q1746.17 148.134 1746.17 156.884 Q1746.17 165.611 1743.09 170.218 Q1740.03 174.801 1734.22 174.801 Q1728.41 174.801 1725.33 170.218 Q1722.28 165.611 1722.28 156.884 Q1722.28 148.134 1725.33 143.551 Q1728.41 138.945 1734.22 138.945 Z" fill="#000000" fill-rule="evenodd" fill-opacity="1" /><path clip-path="url(#clip690)" d="M 0 0 M1751.28 139.57 L1769.64 139.57 L1769.64 143.505 L1755.56 143.505 L1755.56 151.977 Q1756.58 151.63 1757.6 151.468 Q1758.62 151.282 1759.64 151.282 Q1765.42 151.282 1768.8 154.454 Q1772.18 157.625 1772.18 163.042 Q1772.18 168.62 1768.71 171.722 Q1765.24 174.801 1758.92 174.801 Q1756.74 174.801 1754.48 174.43 Q1752.23 174.06 1749.82 173.319 L1749.82 168.62 Q1751.91 169.755 1754.13 170.31 Q1756.35 170.866 1758.83 170.866 Q1762.83 170.866 1765.17 168.759 Q1767.51 166.653 1767.51 163.042 Q1767.51 159.431 1765.17 157.324 Q1762.83 155.218 1758.83 155.218 Q1756.95 155.218 1755.08 155.634 Q1753.23 156.051 1751.28 156.931 L1751.28 139.57 Z" fill="#000000" fill-rule="evenodd" fill-opacity="1" /><path clip-path="url(#clip690)" d="
M1519.75 241.522 L1670.81 241.522 L1670.81 193.138 L1519.75 193.138 L1519.75 241.522  Z
  " fill="#008000" fill-rule="evenodd" fill-opacity="0.5"/>
<polyline clip-path="url(#clip690)" style="stroke:#008000; stroke-width:4; stroke-opacity:1; fill:none" points="
  1519.75,193.138 1670.81,193.138 
  "/>
<path clip-path="url(#clip690)" d="M 0 0 M1698.2 233.892 L1698.2 229.633 Q1699.96 230.466 1701.77 230.906 Q1703.57 231.346 1705.31 231.346 Q1709.94 231.346 1712.37 228.244 Q1714.82 225.119 1715.17 218.776 Q1713.83 220.767 1711.77 221.832 Q1709.71 222.897 1707.21 222.897 Q1702.02 222.897 1698.99 219.772 Q1695.98 216.624 1695.98 211.184 Q1695.98 205.86 1699.13 202.642 Q1702.28 199.425 1707.51 199.425 Q1713.5 199.425 1716.65 204.031 Q1719.82 208.614 1719.82 217.364 Q1719.82 225.536 1715.93 230.42 Q1712.07 235.281 1705.52 235.281 Q1703.76 235.281 1701.95 234.934 Q1700.15 234.586 1698.2 233.892 M1707.51 219.239 Q1710.66 219.239 1712.48 217.086 Q1714.34 214.934 1714.34 211.184 Q1714.34 207.457 1712.48 205.304 Q1710.66 203.128 1707.51 203.128 Q1704.36 203.128 1702.51 205.304 Q1700.68 207.457 1700.68 211.184 Q1700.68 214.934 1702.51 217.086 Q1704.36 219.239 1707.51 219.239 Z" fill="#000000" fill-rule="evenodd" fill-opacity="1" /><path clip-path="url(#clip690)" d="M 0 0 M1734.89 203.128 Q1731.28 203.128 1729.45 206.693 Q1727.65 210.235 1727.65 217.364 Q1727.65 224.471 1729.45 228.036 Q1731.28 231.577 1734.89 231.577 Q1738.53 231.577 1740.33 228.036 Q1742.16 224.471 1742.16 217.364 Q1742.16 210.235 1740.33 206.693 Q1738.53 203.128 1734.89 203.128 M1734.89 199.425 Q1740.7 199.425 1743.76 204.031 Q1746.84 208.614 1746.84 217.364 Q1746.84 226.091 1743.76 230.698 Q1740.7 235.281 1734.89 235.281 Q1729.08 235.281 1726 230.698 Q1722.95 226.091 1722.95 217.364 Q1722.95 208.614 1726 204.031 Q1729.08 199.425 1734.89 199.425 Z" fill="#000000" fill-rule="evenodd" fill-opacity="1" /><path clip-path="url(#clip690)" d="M 0 0 M1781.3 219.401 Q1779.29 219.401 1778.13 221.114 Q1777 222.827 1777 225.883 Q1777 228.892 1778.13 230.628 Q1779.29 232.341 1781.3 232.341 Q1783.27 232.341 1784.41 230.628 Q1785.56 228.892 1785.56 225.883 Q1785.56 222.85 1784.41 221.137 Q1783.27 219.401 1781.3 219.401 M1781.3 216.462 Q1784.96 216.462 1787.11 219.008 Q1789.27 221.554 1789.27 225.883 Q1789.27 230.211 1787.09 232.758 Q1784.94 235.281 1781.3 235.281 Q1777.6 235.281 1775.45 232.758 Q1773.29 230.211 1773.29 225.883 Q1773.29 221.531 1775.45 219.008 Q1777.62 216.462 1781.3 216.462 M1757.42 202.364 Q1755.42 202.364 1754.27 204.1 Q1753.13 205.813 1753.13 208.823 Q1753.13 211.878 1754.27 213.591 Q1755.4 215.304 1757.42 215.304 Q1759.43 215.304 1760.56 213.591 Q1761.72 211.878 1761.72 208.823 Q1761.72 205.837 1760.56 204.1 Q1759.41 202.364 1757.42 202.364 M1778.32 199.425 L1782.02 199.425 L1760.4 235.281 L1756.7 235.281 L1778.32 199.425 M1757.42 199.425 Q1761.07 199.425 1763.25 201.971 Q1765.42 204.494 1765.42 208.823 Q1765.42 213.198 1763.25 215.721 Q1761.1 218.244 1757.42 218.244 Q1753.73 218.244 1751.58 215.721 Q1749.45 213.174 1749.45 208.823 Q1749.45 204.517 1751.6 201.971 Q1753.76 199.425 1757.42 199.425 Z" fill="#000000" fill-rule="evenodd" fill-opacity="1" /><path clip-path="url(#clip690)" d="M 0 0 M1830.35 218.961 L1830.35 234.61 L1826.1 234.61 L1826.1 219.1 Q1826.1 215.42 1824.66 213.591 Q1823.22 211.762 1820.35 211.762 Q1816.91 211.762 1814.91 213.962 Q1812.92 216.161 1812.92 219.957 L1812.92 234.61 L1808.64 234.61 L1808.64 208.684 L1812.92 208.684 L1812.92 212.712 Q1814.45 210.374 1816.51 209.216 Q1818.6 208.059 1821.3 208.059 Q1825.77 208.059 1828.06 210.837 Q1830.35 213.591 1830.35 218.961 Z" fill="#000000" fill-rule="evenodd" fill-opacity="1" /><path clip-path="url(#clip690)" d="M 0 0 M1844.87 211.67 Q1841.44 211.67 1839.45 214.355 Q1837.46 217.017 1837.46 221.67 Q1837.46 226.323 1839.43 229.008 Q1841.42 231.67 1844.87 231.67 Q1848.27 231.67 1850.26 228.985 Q1852.25 226.299 1852.25 221.67 Q1852.25 217.063 1850.26 214.378 Q1848.27 211.67 1844.87 211.67 M1844.87 208.059 Q1850.42 208.059 1853.6 211.67 Q1856.77 215.281 1856.77 221.67 Q1856.77 228.036 1853.6 231.67 Q1850.42 235.281 1844.87 235.281 Q1839.29 235.281 1836.12 231.67 Q1832.97 228.036 1832.97 221.67 Q1832.97 215.281 1836.12 211.67 Q1839.29 208.059 1844.87 208.059 Z" fill="#000000" fill-rule="evenodd" fill-opacity="1" /><path clip-path="url(#clip690)" d="M 0 0 M1882.78 218.961 L1882.78 234.61 L1878.53 234.61 L1878.53 219.1 Q1878.53 215.42 1877.09 213.591 Q1875.66 211.762 1872.78 211.762 Q1869.34 211.762 1867.35 213.962 Q1865.35 216.161 1865.35 219.957 L1865.35 234.61 L1861.07 234.61 L1861.07 208.684 L1865.35 208.684 L1865.35 212.712 Q1866.88 210.374 1868.94 209.216 Q1871.03 208.059 1873.73 208.059 Q1878.2 208.059 1880.49 210.837 Q1882.78 213.591 1882.78 218.961 Z" fill="#000000" fill-rule="evenodd" fill-opacity="1" /><path clip-path="url(#clip690)" d="M 0 0 M1885.1 219.725 L1897.58 219.725 L1897.58 223.522 L1885.1 223.522 L1885.1 219.725 Z" fill="#000000" fill-rule="evenodd" fill-opacity="1" /><path clip-path="url(#clip690)" d="M 0 0 M1917.07 212.665 Q1916.35 212.249 1915.49 212.063 Q1914.66 211.855 1913.64 211.855 Q1910.03 211.855 1908.09 214.216 Q1906.16 216.554 1906.16 220.952 L1906.16 234.61 L1901.88 234.61 L1901.88 208.684 L1906.16 208.684 L1906.16 212.712 Q1907.51 210.35 1909.66 209.216 Q1911.81 208.059 1914.89 208.059 Q1915.33 208.059 1915.86 208.128 Q1916.4 208.175 1917.04 208.29 L1917.07 212.665 Z" fill="#000000" fill-rule="evenodd" fill-opacity="1" /><path clip-path="url(#clip690)" d="M 0 0 M1942.67 220.582 L1942.67 222.665 L1923.09 222.665 Q1923.36 227.063 1925.72 229.378 Q1928.11 231.67 1932.34 231.67 Q1934.8 231.67 1937.09 231.068 Q1939.4 230.466 1941.67 229.262 L1941.67 233.29 Q1939.38 234.262 1936.97 234.772 Q1934.57 235.281 1932.09 235.281 Q1925.89 235.281 1922.25 231.67 Q1918.64 228.059 1918.64 221.901 Q1918.64 215.536 1922.07 211.809 Q1925.52 208.059 1931.35 208.059 Q1936.58 208.059 1939.61 211.438 Q1942.67 214.795 1942.67 220.582 M1938.41 219.332 Q1938.36 215.837 1936.44 213.753 Q1934.54 211.67 1931.4 211.67 Q1927.83 211.67 1925.68 213.684 Q1923.55 215.698 1923.22 219.355 L1938.41 219.332 Z" fill="#000000" fill-rule="evenodd" fill-opacity="1" /><path clip-path="url(#clip690)" d="M 0 0 M1947.14 208.684 L1951.4 208.684 L1951.4 235.073 Q1951.4 240.026 1949.5 242.248 Q1947.62 244.471 1943.43 244.471 L1941.81 244.471 L1941.81 240.86 L1942.95 240.86 Q1945.38 240.86 1946.26 239.725 Q1947.14 238.614 1947.14 235.073 L1947.14 208.684 M1947.14 198.591 L1951.4 198.591 L1951.4 203.985 L1947.14 203.985 L1947.14 198.591 Z" fill="#000000" fill-rule="evenodd" fill-opacity="1" /><path clip-path="url(#clip690)" d="M 0 0 M1978.04 220.582 L1978.04 222.665 L1958.46 222.665 Q1958.73 227.063 1961.09 229.378 Q1963.48 231.67 1967.71 231.67 Q1970.17 231.67 1972.46 231.068 Q1974.78 230.466 1977.04 229.262 L1977.04 233.29 Q1974.75 234.262 1972.34 234.772 Q1969.94 235.281 1967.46 235.281 Q1961.26 235.281 1957.62 231.67 Q1954.01 228.059 1954.01 221.901 Q1954.01 215.536 1957.44 211.809 Q1960.89 208.059 1966.72 208.059 Q1971.95 208.059 1974.98 211.438 Q1978.04 214.795 1978.04 220.582 M1973.78 219.332 Q1973.73 215.837 1971.81 213.753 Q1969.91 211.67 1966.77 211.67 Q1963.2 211.67 1961.05 213.684 Q1958.92 215.698 1958.59 219.355 L1973.78 219.332 Z" fill="#000000" fill-rule="evenodd" fill-opacity="1" /><path clip-path="url(#clip690)" d="M 0 0 M2001.16 209.679 L2001.16 213.661 Q1999.36 212.665 1997.53 212.179 Q1995.72 211.67 1993.87 211.67 Q1989.73 211.67 1987.44 214.309 Q1985.15 216.924 1985.15 221.67 Q1985.15 226.415 1987.44 229.054 Q1989.73 231.67 1993.87 231.67 Q1995.72 231.67 1997.53 231.184 Q1999.36 230.674 2001.16 229.679 L2001.16 233.614 Q1999.38 234.448 1997.46 234.864 Q1995.56 235.281 1993.41 235.281 Q1987.55 235.281 1984.1 231.6 Q1980.65 227.92 1980.65 221.67 Q1980.65 215.327 1984.13 211.693 Q1987.62 208.059 1993.69 208.059 Q1995.65 208.059 1997.53 208.475 Q1999.4 208.869 2001.16 209.679 Z" fill="#000000" fill-rule="evenodd" fill-opacity="1" /><path clip-path="url(#clip690)" d="M 0 0 M2009.84 201.323 L2009.84 208.684 L2018.62 208.684 L2018.62 211.994 L2009.84 211.994 L2009.84 226.068 Q2009.84 229.239 2010.7 230.142 Q2011.58 231.045 2014.24 231.045 L2018.62 231.045 L2018.62 234.61 L2014.24 234.61 Q2009.31 234.61 2007.44 232.781 Q2005.56 230.929 2005.56 226.068 L2005.56 211.994 L2002.44 211.994 L2002.44 208.684 L2005.56 208.684 L2005.56 201.323 L2009.84 201.323 Z" fill="#000000" fill-rule="evenodd" fill-opacity="1" /><path clip-path="url(#clip690)" d="M 0 0 M2023.08 208.684 L2027.34 208.684 L2027.34 234.61 L2023.08 234.61 L2023.08 208.684 M2023.08 198.591 L2027.34 198.591 L2027.34 203.985 L2023.08 203.985 L2023.08 198.591 Z" fill="#000000" fill-rule="evenodd" fill-opacity="1" /><path clip-path="url(#clip690)" d="M 0 0 M2041.86 211.67 Q2038.43 211.67 2036.44 214.355 Q2034.45 217.017 2034.45 221.67 Q2034.45 226.323 2036.42 229.008 Q2038.41 231.67 2041.86 231.67 Q2045.26 231.67 2047.25 228.985 Q2049.24 226.299 2049.24 221.67 Q2049.24 217.063 2047.25 214.378 Q2045.26 211.67 2041.86 211.67 M2041.86 208.059 Q2047.41 208.059 2050.58 211.67 Q2053.76 215.281 2053.76 221.67 Q2053.76 228.036 2050.58 231.67 Q2047.41 235.281 2041.86 235.281 Q2036.28 235.281 2033.11 231.67 Q2029.96 228.036 2029.96 221.67 Q2029.96 215.281 2033.11 211.67 Q2036.28 208.059 2041.86 208.059 Z" fill="#000000" fill-rule="evenodd" fill-opacity="1" /><path clip-path="url(#clip690)" d="M 0 0 M2079.77 218.961 L2079.77 234.61 L2075.52 234.61 L2075.52 219.1 Q2075.52 215.42 2074.08 213.591 Q2072.64 211.762 2069.77 211.762 Q2066.33 211.762 2064.33 213.962 Q2062.34 216.161 2062.34 219.957 L2062.34 234.61 L2058.06 234.61 L2058.06 208.684 L2062.34 208.684 L2062.34 212.712 Q2063.87 210.374 2065.93 209.216 Q2068.02 208.059 2070.72 208.059 Q2075.19 208.059 2077.48 210.837 Q2079.77 213.591 2079.77 218.961 Z" fill="#000000" fill-rule="evenodd" fill-opacity="1" /><path clip-path="url(#clip690)" d="M 0 0 M2114.33 212.665 Q2113.62 212.249 2112.76 212.063 Q2111.93 211.855 2110.91 211.855 Q2107.3 211.855 2105.35 214.216 Q2103.43 216.554 2103.43 220.952 L2103.43 234.61 L2099.15 234.61 L2099.15 208.684 L2103.43 208.684 L2103.43 212.712 Q2104.77 210.35 2106.93 209.216 Q2109.08 208.059 2112.16 208.059 Q2112.6 208.059 2113.13 208.128 Q2113.66 208.175 2114.31 208.29 L2114.33 212.665 Z" fill="#000000" fill-rule="evenodd" fill-opacity="1" /><path clip-path="url(#clip690)" d="M 0 0 M2139.94 220.582 L2139.94 222.665 L2120.35 222.665 Q2120.63 227.063 2122.99 229.378 Q2125.38 231.67 2129.61 231.67 Q2132.07 231.67 2134.36 231.068 Q2136.67 230.466 2138.94 229.262 L2138.94 233.29 Q2136.65 234.262 2134.24 234.772 Q2131.83 235.281 2129.36 235.281 Q2123.15 235.281 2119.52 231.67 Q2115.91 228.059 2115.91 221.901 Q2115.91 215.536 2119.33 211.809 Q2122.78 208.059 2128.62 208.059 Q2133.85 208.059 2136.88 211.438 Q2139.94 214.795 2139.94 220.582 M2135.68 219.332 Q2135.63 215.837 2133.71 213.753 Q2131.81 211.67 2128.66 211.67 Q2125.1 211.67 2122.95 213.684 Q2120.82 215.698 2120.49 219.355 L2135.68 219.332 Z" fill="#000000" fill-rule="evenodd" fill-opacity="1" /><path clip-path="url(#clip690)" d="M 0 0 M2161.46 221.346 Q2161.46 216.716 2159.54 214.17 Q2157.64 211.624 2154.2 211.624 Q2150.77 211.624 2148.85 214.17 Q2146.95 216.716 2146.95 221.346 Q2146.95 225.952 2148.85 228.498 Q2150.77 231.045 2154.2 231.045 Q2157.64 231.045 2159.54 228.498 Q2161.46 225.952 2161.46 221.346 M2165.72 231.392 Q2165.72 238.012 2162.78 241.23 Q2159.84 244.471 2153.78 244.471 Q2151.53 244.471 2149.54 244.123 Q2147.55 243.799 2145.68 243.105 L2145.68 238.961 Q2147.55 239.98 2149.38 240.466 Q2151.21 240.952 2153.11 240.952 Q2157.3 240.952 2159.38 238.753 Q2161.46 236.577 2161.46 232.156 L2161.46 230.049 Q2160.14 232.341 2158.08 233.475 Q2156.02 234.61 2153.15 234.61 Q2148.39 234.61 2145.47 230.975 Q2142.55 227.341 2142.55 221.346 Q2142.55 215.327 2145.47 211.693 Q2148.39 208.059 2153.15 208.059 Q2156.02 208.059 2158.08 209.193 Q2160.14 210.327 2161.46 212.619 L2161.46 208.684 L2165.72 208.684 L2165.72 231.392 Z" fill="#000000" fill-rule="evenodd" fill-opacity="1" /><path clip-path="url(#clip690)" d="M 0 0 M2170.19 208.684 L2174.45 208.684 L2174.45 234.61 L2170.19 234.61 L2170.19 208.684 M2170.19 198.591 L2174.45 198.591 L2174.45 203.985 L2170.19 203.985 L2170.19 198.591 Z" fill="#000000" fill-rule="evenodd" fill-opacity="1" /><path clip-path="url(#clip690)" d="M 0 0 M2188.96 211.67 Q2185.54 211.67 2183.55 214.355 Q2181.56 217.017 2181.56 221.67 Q2181.56 226.323 2183.52 229.008 Q2185.51 231.67 2188.96 231.67 Q2192.37 231.67 2194.36 228.985 Q2196.35 226.299 2196.35 221.67 Q2196.35 217.063 2194.36 214.378 Q2192.37 211.67 2188.96 211.67 M2188.96 208.059 Q2194.52 208.059 2197.69 211.67 Q2200.86 215.281 2200.86 221.67 Q2200.86 228.036 2197.69 231.67 Q2194.52 235.281 2188.96 235.281 Q2183.39 235.281 2180.21 231.67 Q2177.07 228.036 2177.07 221.67 Q2177.07 215.281 2180.21 211.67 Q2183.39 208.059 2188.96 208.059 Z" fill="#000000" fill-rule="evenodd" fill-opacity="1" /><path clip-path="url(#clip690)" d="M 0 0 M2226.88 218.961 L2226.88 234.61 L2222.62 234.61 L2222.62 219.1 Q2222.62 215.42 2221.19 213.591 Q2219.75 211.762 2216.88 211.762 Q2213.43 211.762 2211.44 213.962 Q2209.45 216.161 2209.45 219.957 L2209.45 234.61 L2205.17 234.61 L2205.17 208.684 L2209.45 208.684 L2209.45 212.712 Q2210.98 210.374 2213.04 209.216 Q2215.12 208.059 2217.83 208.059 Q2222.3 208.059 2224.59 210.837 Q2226.88 213.591 2226.88 218.961 Z" fill="#000000" fill-rule="evenodd" fill-opacity="1" /><path clip-path="url(#clip690)" d="
M1519.75 302.002 L1670.81 302.002 L1670.81 253.618 L1519.75 253.618 L1519.75 302.002  Z
  " fill="#ffa500" fill-rule="evenodd" fill-opacity="0.5"/>
<polyline clip-path="url(#clip690)" style="stroke:#ffa500; stroke-width:4; stroke-opacity:1; fill:none" points="
  1519.75,253.618 1670.81,253.618 
  "/>
<path clip-path="url(#clip690)" d="M 0 0 M1700.38 282.15 Q1700.38 286.849 1702.3 289.534 Q1704.24 292.196 1707.62 292.196 Q1711 292.196 1712.95 289.534 Q1714.89 286.849 1714.89 282.15 Q1714.89 277.451 1712.95 274.789 Q1711 272.104 1707.62 272.104 Q1704.24 272.104 1702.3 274.789 Q1700.38 277.451 1700.38 282.15 M1714.89 291.201 Q1713.55 293.515 1711.49 294.65 Q1709.45 295.761 1706.58 295.761 Q1701.88 295.761 1698.92 292.011 Q1695.98 288.261 1695.98 282.15 Q1695.98 276.039 1698.92 272.289 Q1701.88 268.539 1706.58 268.539 Q1709.45 268.539 1711.49 269.673 Q1713.55 270.784 1714.89 273.099 L1714.89 269.164 L1719.15 269.164 L1719.15 304.951 L1714.89 304.951 L1714.89 291.201 Z" fill="#000000" fill-rule="evenodd" fill-opacity="1" /><path clip-path="url(#clip690)" d="M 0 0 M1724.36 294.372 L1724.36 290.113 Q1726.12 290.946 1727.92 291.386 Q1729.73 291.826 1731.47 291.826 Q1736.1 291.826 1738.53 288.724 Q1740.98 285.599 1741.33 279.256 Q1739.98 281.247 1737.92 282.312 Q1735.86 283.377 1733.36 283.377 Q1728.18 283.377 1725.15 280.252 Q1722.14 277.104 1722.14 271.664 Q1722.14 266.34 1725.29 263.122 Q1728.43 259.905 1733.67 259.905 Q1739.66 259.905 1742.81 264.511 Q1745.98 269.094 1745.98 277.844 Q1745.98 286.016 1742.09 290.9 Q1738.23 295.761 1731.67 295.761 Q1729.92 295.761 1728.11 295.414 Q1726.3 295.066 1724.36 294.372 M1733.67 279.719 Q1736.81 279.719 1738.64 277.566 Q1740.49 275.414 1740.49 271.664 Q1740.49 267.937 1738.64 265.784 Q1736.81 263.608 1733.67 263.608 Q1730.52 263.608 1728.67 265.784 Q1726.84 267.937 1726.84 271.664 Q1726.84 275.414 1728.67 277.566 Q1730.52 279.719 1733.67 279.719 Z" fill="#000000" fill-rule="evenodd" fill-opacity="1" /><path clip-path="url(#clip690)" d="M 0 0 M1751.1 260.53 L1769.45 260.53 L1769.45 264.465 L1755.38 264.465 L1755.38 272.937 Q1756.4 272.59 1757.42 272.428 Q1758.43 272.242 1759.45 272.242 Q1765.24 272.242 1768.62 275.414 Q1772 278.585 1772 284.002 Q1772 289.58 1768.53 292.682 Q1765.05 295.761 1758.73 295.761 Q1756.56 295.761 1754.29 295.39 Q1752.04 295.02 1749.64 294.279 L1749.64 289.58 Q1751.72 290.715 1753.94 291.27 Q1756.17 291.826 1758.64 291.826 Q1762.65 291.826 1764.98 289.719 Q1767.32 287.613 1767.32 284.002 Q1767.32 280.391 1764.98 278.284 Q1762.65 276.178 1758.64 276.178 Q1756.77 276.178 1754.89 276.594 Q1753.04 277.011 1751.1 277.891 L1751.1 260.53 Z" fill="#000000" fill-rule="evenodd" fill-opacity="1" /><polyline clip-path="url(#clip690)" style="stroke:#0000ff; stroke-width:4; stroke-opacity:1; fill:none" points="
  1519.75,338.29 1670.81,338.29 
  "/>
<path clip-path="url(#clip690)" d="M 0 0 M1716.33 334.621 Q1717.92 331.75 1720.15 330.385 Q1722.37 329.019 1725.38 329.019 Q1729.43 329.019 1731.63 331.866 Q1733.83 334.69 1733.83 339.921 L1733.83 355.57 L1729.54 355.57 L1729.54 340.06 Q1729.54 336.334 1728.23 334.528 Q1726.91 332.722 1724.2 332.722 Q1720.89 332.722 1718.97 334.922 Q1717.04 337.121 1717.04 340.917 L1717.04 355.57 L1712.76 355.57 L1712.76 340.06 Q1712.76 336.31 1711.44 334.528 Q1710.12 332.722 1707.37 332.722 Q1704.11 332.722 1702.18 334.945 Q1700.26 337.144 1700.26 340.917 L1700.26 355.57 L1695.98 355.57 L1695.98 329.644 L1700.26 329.644 L1700.26 333.672 Q1701.72 331.287 1703.76 330.153 Q1705.79 329.019 1708.6 329.019 Q1711.42 329.019 1713.39 330.454 Q1715.38 331.889 1716.33 334.621 Z" fill="#000000" fill-rule="evenodd" fill-opacity="1" /><path clip-path="url(#clip690)" d="M 0 0 M1760.47 341.542 L1760.47 343.625 L1740.89 343.625 Q1741.17 348.023 1743.53 350.338 Q1745.91 352.63 1750.15 352.63 Q1752.6 352.63 1754.89 352.028 Q1757.21 351.426 1759.48 350.222 L1759.48 354.25 Q1757.18 355.222 1754.78 355.732 Q1752.37 356.241 1749.89 356.241 Q1743.69 356.241 1740.05 352.63 Q1736.44 349.019 1736.44 342.861 Q1736.44 336.496 1739.87 332.769 Q1743.32 329.019 1749.15 329.019 Q1754.38 329.019 1757.42 332.398 Q1760.47 335.755 1760.47 341.542 M1756.21 340.292 Q1756.17 336.797 1754.24 334.713 Q1752.35 332.63 1749.2 332.63 Q1745.63 332.63 1743.48 334.644 Q1741.35 336.658 1741.03 340.315 L1756.21 340.292 Z" fill="#000000" fill-rule="evenodd" fill-opacity="1" /><path clip-path="url(#clip690)" d="M 0 0 M1776.72 342.537 Q1771.56 342.537 1769.57 343.718 Q1767.58 344.898 1767.58 347.746 Q1767.58 350.014 1769.06 351.357 Q1770.56 352.676 1773.13 352.676 Q1776.67 352.676 1778.8 350.176 Q1780.96 347.653 1780.96 343.486 L1780.96 342.537 L1776.72 342.537 M1785.22 340.778 L1785.22 355.57 L1780.96 355.57 L1780.96 351.634 Q1779.5 353.995 1777.32 355.13 Q1775.15 356.241 1772 356.241 Q1768.02 356.241 1765.66 354.019 Q1763.32 351.773 1763.32 348.023 Q1763.32 343.648 1766.23 341.426 Q1769.17 339.204 1774.98 339.204 L1780.96 339.204 L1780.96 338.787 Q1780.96 335.847 1779.01 334.25 Q1777.09 332.63 1773.6 332.63 Q1771.37 332.63 1769.27 333.162 Q1767.16 333.695 1765.22 334.759 L1765.22 330.824 Q1767.55 329.922 1769.75 329.482 Q1771.95 329.019 1774.04 329.019 Q1779.66 329.019 1782.44 331.935 Q1785.22 334.852 1785.22 340.778 Z" fill="#000000" fill-rule="evenodd" fill-opacity="1" /><path clip-path="url(#clip690)" d="M 0 0 M1811.23 339.921 L1811.23 355.57 L1806.97 355.57 L1806.97 340.06 Q1806.97 336.38 1805.54 334.551 Q1804.1 332.722 1801.23 332.722 Q1797.79 332.722 1795.79 334.922 Q1793.8 337.121 1793.8 340.917 L1793.8 355.57 L1789.52 355.57 L1789.52 329.644 L1793.8 329.644 L1793.8 333.672 Q1795.33 331.334 1797.39 330.176 Q1799.48 329.019 1802.18 329.019 Q1806.65 329.019 1808.94 331.797 Q1811.23 334.551 1811.23 339.921 Z" fill="#000000" fill-rule="evenodd" fill-opacity="1" /><polyline clip-path="url(#clip690)" style="stroke:#000000; stroke-width:4; stroke-opacity:1; fill:none" points="
  1519.75,398.77 1670.81,398.77 
  "/>
<path clip-path="url(#clip690)" d="M 0 0 M1716.33 395.101 Q1717.92 392.23 1720.15 390.865 Q1722.37 389.499 1725.38 389.499 Q1729.43 389.499 1731.63 392.346 Q1733.83 395.17 1733.83 400.401 L1733.83 416.05 L1729.54 416.05 L1729.54 400.54 Q1729.54 396.814 1728.23 395.008 Q1726.91 393.202 1724.2 393.202 Q1720.89 393.202 1718.97 395.402 Q1717.04 397.601 1717.04 401.397 L1717.04 416.05 L1712.76 416.05 L1712.76 400.54 Q1712.76 396.79 1711.44 395.008 Q1710.12 393.202 1707.37 393.202 Q1704.11 393.202 1702.18 395.425 Q1700.26 397.624 1700.26 401.397 L1700.26 416.05 L1695.98 416.05 L1695.98 390.124 L1700.26 390.124 L1700.26 394.152 Q1701.72 391.767 1703.76 390.633 Q1705.79 389.499 1708.6 389.499 Q1711.42 389.499 1713.39 390.934 Q1715.38 392.369 1716.33 395.101 Z" fill="#000000" fill-rule="evenodd" fill-opacity="1" /><path clip-path="url(#clip690)" d="M 0 0 M1760.47 402.022 L1760.47 404.105 L1740.89 404.105 Q1741.17 408.503 1743.53 410.818 Q1745.91 413.11 1750.15 413.11 Q1752.6 413.11 1754.89 412.508 Q1757.21 411.906 1759.48 410.702 L1759.48 414.73 Q1757.18 415.702 1754.78 416.212 Q1752.37 416.721 1749.89 416.721 Q1743.69 416.721 1740.05 413.11 Q1736.44 409.499 1736.44 403.341 Q1736.44 396.976 1739.87 393.249 Q1743.32 389.499 1749.15 389.499 Q1754.38 389.499 1757.42 392.878 Q1760.47 396.235 1760.47 402.022 M1756.21 400.772 Q1756.17 397.277 1754.24 395.193 Q1752.35 393.11 1749.2 393.11 Q1745.63 393.11 1743.48 395.124 Q1741.35 397.138 1741.03 400.795 L1756.21 400.772 Z" fill="#000000" fill-rule="evenodd" fill-opacity="1" /><path clip-path="url(#clip690)" d="M 0 0 M1782 394.059 L1782 380.031 L1786.26 380.031 L1786.26 416.05 L1782 416.05 L1782 412.161 Q1780.66 414.475 1778.6 415.61 Q1776.56 416.721 1773.69 416.721 Q1768.99 416.721 1766.03 412.971 Q1763.09 409.221 1763.09 403.11 Q1763.09 396.999 1766.03 393.249 Q1768.99 389.499 1773.69 389.499 Q1776.56 389.499 1778.6 390.633 Q1780.66 391.744 1782 394.059 M1767.48 403.11 Q1767.48 407.809 1769.41 410.494 Q1771.35 413.156 1774.73 413.156 Q1778.11 413.156 1780.05 410.494 Q1782 407.809 1782 403.11 Q1782 398.411 1780.05 395.749 Q1778.11 393.064 1774.73 393.064 Q1771.35 393.064 1769.41 395.749 Q1767.48 398.411 1767.48 403.11 Z" fill="#000000" fill-rule="evenodd" fill-opacity="1" /><path clip-path="url(#clip690)" d="M 0 0 M1790.73 390.124 L1794.98 390.124 L1794.98 416.05 L1790.73 416.05 L1790.73 390.124 M1790.73 380.031 L1794.98 380.031 L1794.98 385.425 L1790.73 385.425 L1790.73 380.031 Z" fill="#000000" fill-rule="evenodd" fill-opacity="1" /><path clip-path="url(#clip690)" d="M 0 0 M1811.23 403.017 Q1806.07 403.017 1804.08 404.198 Q1802.09 405.378 1802.09 408.226 Q1802.09 410.494 1803.57 411.837 Q1805.08 413.156 1807.65 413.156 Q1811.19 413.156 1813.32 410.656 Q1815.47 408.133 1815.47 403.966 L1815.47 403.017 L1811.23 403.017 M1819.73 401.258 L1819.73 416.05 L1815.47 416.05 L1815.47 412.114 Q1814.01 414.475 1811.84 415.61 Q1809.66 416.721 1806.51 416.721 Q1802.53 416.721 1800.17 414.499 Q1797.83 412.253 1797.83 408.503 Q1797.83 404.128 1800.75 401.906 Q1803.69 399.684 1809.5 399.684 L1815.47 399.684 L1815.47 399.267 Q1815.47 396.327 1813.53 394.73 Q1811.6 393.11 1808.11 393.11 Q1805.89 393.11 1803.78 393.642 Q1801.67 394.175 1799.73 395.239 L1799.73 391.304 Q1802.07 390.402 1804.27 389.962 Q1806.47 389.499 1808.55 389.499 Q1814.17 389.499 1816.95 392.415 Q1819.73 395.332 1819.73 401.258 Z" fill="#000000" fill-rule="evenodd" fill-opacity="1" /><path clip-path="url(#clip690)" d="M 0 0 M1845.75 400.401 L1845.75 416.05 L1841.49 416.05 L1841.49 400.54 Q1841.49 396.86 1840.05 395.031 Q1838.62 393.202 1835.75 393.202 Q1832.3 393.202 1830.31 395.402 Q1828.32 397.601 1828.32 401.397 L1828.32 416.05 L1824.04 416.05 L1824.04 390.124 L1828.32 390.124 L1828.32 394.152 Q1829.85 391.814 1831.91 390.656 Q1833.99 389.499 1836.7 389.499 Q1841.16 389.499 1843.46 392.277 Q1845.75 395.031 1845.75 400.401 Z" fill="#000000" fill-rule="evenodd" fill-opacity="1" /></svg>
