<?xml version="1.0" encoding="utf-8"?>
<svg xmlns="http://www.w3.org/2000/svg" xmlns:xlink="http://www.w3.org/1999/xlink" width="600" height="400" viewBox="0 0 2400 1600">
<defs>
  <clipPath id="clip840">
    <rect x="0" y="0" width="2400" height="1600"/>
  </clipPath>
</defs>
<path clip-path="url(#clip840)" d="
M0 1600 L2400 1600 L2400 0 L0 0  Z
  " fill="#ffffff" fill-rule="evenodd" fill-opacity="1"/>
<defs>
  <clipPath id="clip841">
    <rect x="480" y="0" width="1681" height="1600"/>
  </clipPath>
</defs>
<path clip-path="url(#clip840)" d="
M86.9921 1521.01 L2352.76 1521.01 L2352.76 47.2441 L86.9921 47.2441  Z
  " fill="#ffffff" fill-rule="evenodd" fill-opacity="1"/>
<defs>
  <clipPath id="clip842">
    <rect x="86" y="47" width="2267" height="1475"/>
  </clipPath>
</defs>
<polyline clip-path="url(#clip842)" style="stroke:#000000; stroke-width:2; stroke-opacity:0.1; fill:none" points="
  150.283,1521.01 150.283,47.2441 
  "/>
<polyline clip-path="url(#clip842)" style="stroke:#000000; stroke-width:2; stroke-opacity:0.1; fill:none" points="
  868.172,1521.01 868.172,47.2441 
  "/>
<polyline clip-path="url(#clip842)" style="stroke:#000000; stroke-width:2; stroke-opacity:0.1; fill:none" points="
  1586.06,1521.01 1586.06,47.2441 
  "/>
<polyline clip-path="url(#clip842)" style="stroke:#000000; stroke-width:2; stroke-opacity:0.1; fill:none" points="
  2303.95,1521.01 2303.95,47.2441 
  "/>
<polyline clip-path="url(#clip842)" style="stroke:#000000; stroke-width:2; stroke-opacity:0.1; fill:none" points="
  86.9921,1479.3 2352.76,1479.3 
  "/>
<polyline clip-path="url(#clip842)" style="stroke:#000000; stroke-width:2; stroke-opacity:0.1; fill:none" points="
  86.9921,1268 2352.76,1268 
  "/>
<polyline clip-path="url(#clip842)" style="stroke:#000000; stroke-width:2; stroke-opacity:0.1; fill:none" points="
  86.9921,1056.7 2352.76,1056.7 
  "/>
<polyline clip-path="url(#clip842)" style="stroke:#000000; stroke-width:2; stroke-opacity:0.1; fill:none" points="
  86.9921,845.408 2352.76,845.408 
  "/>
<polyline clip-path="url(#clip842)" style="stroke:#000000; stroke-width:2; stroke-opacity:0.1; fill:none" points="
  86.9921,634.112 2352.76,634.112 
  "/>
<polyline clip-path="url(#clip842)" style="stroke:#000000; stroke-width:2; stroke-opacity:0.1; fill:none" points="
  86.9921,422.816 2352.76,422.816 
  "/>
<polyline clip-path="url(#clip842)" style="stroke:#000000; stroke-width:2; stroke-opacity:0.1; fill:none" points="
  86.9921,211.519 2352.76,211.519 
  "/>
<polyline clip-path="url(#clip840)" style="stroke:#000000; stroke-width:4; stroke-opacity:1; fill:none" points="
  86.9921,1521.01 2352.76,1521.01 
  "/>
<polyline clip-path="url(#clip840)" style="stroke:#000000; stroke-width:4; stroke-opacity:1; fill:none" points="
  86.9921,1521.01 86.9921,47.2441 
  "/>
<polyline clip-path="url(#clip840)" style="stroke:#000000; stroke-width:4; stroke-opacity:1; fill:none" points="
  150.283,1521.01 150.283,1503.32 
  "/>
<polyline clip-path="url(#clip840)" style="stroke:#000000; stroke-width:4; stroke-opacity:1; fill:none" points="
  868.172,1521.01 868.172,1503.32 
  "/>
<polyline clip-path="url(#clip840)" style="stroke:#000000; stroke-width:4; stroke-opacity:1; fill:none" points="
  1586.06,1521.01 1586.06,1503.32 
  "/>
<polyline clip-path="url(#clip840)" style="stroke:#000000; stroke-width:4; stroke-opacity:1; fill:none" points="
  2303.95,1521.01 2303.95,1503.32 
  "/>
<polyline clip-path="url(#clip840)" style="stroke:#000000; stroke-width:4; stroke-opacity:1; fill:none" points="
  86.9921,1479.3 114.181,1479.3 
  "/>
<polyline clip-path="url(#clip840)" style="stroke:#000000; stroke-width:4; stroke-opacity:1; fill:none" points="
  86.9921,1268 114.181,1268 
  "/>
<polyline clip-path="url(#clip840)" style="stroke:#000000; stroke-width:4; stroke-opacity:1; fill:none" points="
  86.9921,1056.7 114.181,1056.7 
  "/>
<polyline clip-path="url(#clip840)" style="stroke:#000000; stroke-width:4; stroke-opacity:1; fill:none" points="
  86.9921,845.408 114.181,845.408 
  "/>
<polyline clip-path="url(#clip840)" style="stroke:#000000; stroke-width:4; stroke-opacity:1; fill:none" points="
  86.9921,634.112 114.181,634.112 
  "/>
<polyline clip-path="url(#clip840)" style="stroke:#000000; stroke-width:4; stroke-opacity:1; fill:none" points="
  86.9921,422.816 114.181,422.816 
  "/>
<polyline clip-path="url(#clip840)" style="stroke:#000000; stroke-width:4; stroke-opacity:1; fill:none" points="
  86.9921,211.519 114.181,211.519 
  "/>
<path clip-path="url(#clip840)" d="M 0 0 M154.53 1555.85 Q157.887 1556.56 159.762 1558.83 Q161.66 1561.1 161.66 1564.43 Q161.66 1569.55 158.141 1572.35 Q154.623 1575.15 148.142 1575.15 Q145.966 1575.15 143.651 1574.71 Q141.359 1574.29 138.905 1573.44 L138.905 1568.92 Q140.85 1570.06 143.165 1570.64 Q145.48 1571.22 148.003 1571.22 Q152.401 1571.22 154.692 1569.48 Q157.007 1567.74 157.007 1564.43 Q157.007 1561.38 154.854 1559.67 Q152.725 1557.93 148.905 1557.93 L144.878 1557.93 L144.878 1554.09 L149.091 1554.09 Q152.54 1554.09 154.368 1552.72 Q156.197 1551.33 156.197 1548.74 Q156.197 1546.08 154.299 1544.67 Q152.424 1543.23 148.905 1543.23 Q146.984 1543.23 144.785 1543.65 Q142.586 1544.06 139.947 1544.94 L139.947 1540.78 Q142.609 1540.04 144.924 1539.67 Q147.262 1539.29 149.322 1539.29 Q154.646 1539.29 157.748 1541.73 Q160.85 1544.13 160.85 1548.25 Q160.85 1551.12 159.206 1553.11 Q157.563 1555.08 154.53 1555.85 Z" fill="#000000" fill-rule="evenodd" fill-opacity="1" /><path clip-path="url(#clip840)" d="M 0 0 M871.181 1543.99 L859.376 1562.44 L871.181 1562.44 L871.181 1543.99 M869.954 1539.92 L875.834 1539.92 L875.834 1562.44 L880.765 1562.44 L880.765 1566.33 L875.834 1566.33 L875.834 1574.48 L871.181 1574.48 L871.181 1566.33 L855.58 1566.33 L855.58 1561.82 L869.954 1539.92 Z" fill="#000000" fill-rule="evenodd" fill-opacity="1" /><path clip-path="url(#clip840)" d="M 0 0 M1576.34 1539.92 L1594.7 1539.92 L1594.7 1543.86 L1580.62 1543.86 L1580.62 1552.33 Q1581.64 1551.98 1582.66 1551.82 Q1583.68 1551.63 1584.7 1551.63 Q1590.48 1551.63 1593.86 1554.8 Q1597.24 1557.98 1597.24 1563.39 Q1597.24 1568.97 1593.77 1572.07 Q1590.3 1575.15 1583.98 1575.15 Q1581.8 1575.15 1579.53 1574.78 Q1577.29 1574.41 1574.88 1573.67 L1574.88 1568.97 Q1576.96 1570.1 1579.19 1570.66 Q1581.41 1571.22 1583.89 1571.22 Q1587.89 1571.22 1590.23 1569.11 Q1592.57 1567 1592.57 1563.39 Q1592.57 1559.78 1590.23 1557.67 Q1587.89 1555.57 1583.89 1555.57 Q1582.01 1555.57 1580.14 1555.98 Q1578.28 1556.4 1576.34 1557.28 L1576.34 1539.92 Z" fill="#000000" fill-rule="evenodd" fill-opacity="1" /><path clip-path="url(#clip840)" d="M 0 0 M2304.36 1555.34 Q2301.21 1555.34 2299.36 1557.49 Q2297.53 1559.64 2297.53 1563.39 Q2297.53 1567.12 2299.36 1569.29 Q2301.21 1571.45 2304.36 1571.45 Q2307.5 1571.45 2309.33 1569.29 Q2311.18 1567.12 2311.18 1563.39 Q2311.18 1559.64 2309.33 1557.49 Q2307.5 1555.34 2304.36 1555.34 M2313.64 1540.68 L2313.64 1544.94 Q2311.88 1544.11 2310.07 1543.67 Q2308.29 1543.23 2306.53 1543.23 Q2301.9 1543.23 2299.45 1546.36 Q2297.02 1549.48 2296.67 1555.8 Q2298.04 1553.79 2300.1 1552.72 Q2302.16 1551.63 2304.63 1551.63 Q2309.84 1551.63 2312.85 1554.8 Q2315.88 1557.95 2315.88 1563.39 Q2315.88 1568.72 2312.74 1571.93 Q2309.59 1575.15 2304.36 1575.15 Q2298.36 1575.15 2295.19 1570.57 Q2292.02 1565.96 2292.02 1557.23 Q2292.02 1549.04 2295.91 1544.18 Q2299.8 1539.29 2306.35 1539.29 Q2308.11 1539.29 2309.89 1539.64 Q2311.69 1539.99 2313.64 1540.68 Z" fill="#000000" fill-rule="evenodd" fill-opacity="1" /><path clip-path="url(#clip840)" d="M 0 0 M14.0804 1465.1 Q10.4693 1465.1 8.64057 1468.66 Q6.83502 1472.2 6.83502 1479.33 Q6.83502 1486.44 8.64057 1490 Q10.4693 1493.55 14.0804 1493.55 Q17.7146 1493.55 19.5201 1490 Q21.3488 1486.44 21.3488 1479.33 Q21.3488 1472.2 19.5201 1468.66 Q17.7146 1465.1 14.0804 1465.1 M14.0804 1461.39 Q19.8905 1461.39 22.946 1466 Q26.0247 1470.58 26.0247 1479.33 Q26.0247 1488.06 22.946 1492.67 Q19.8905 1497.25 14.0804 1497.25 Q8.2702 1497.25 5.19151 1492.67 Q2.13597 1488.06 2.13597 1479.33 Q2.13597 1470.58 5.19151 1466 Q8.2702 1461.39 14.0804 1461.39 Z" fill="#000000" fill-rule="evenodd" fill-opacity="1" /><path clip-path="url(#clip840)" d="M 0 0 M31.0941 1490.7 L35.9784 1490.7 L35.9784 1496.58 L31.0941 1496.58 L31.0941 1490.7 Z" fill="#000000" fill-rule="evenodd" fill-opacity="1" /><path clip-path="url(#clip840)" d="M 0 0 M51.0477 1465.1 Q47.4367 1465.1 45.608 1468.66 Q43.8024 1472.2 43.8024 1479.33 Q43.8024 1486.44 45.608 1490 Q47.4367 1493.55 51.0477 1493.55 Q54.682 1493.55 56.4875 1490 Q58.3162 1486.44 58.3162 1479.33 Q58.3162 1472.2 56.4875 1468.66 Q54.682 1465.1 51.0477 1465.1 M51.0477 1461.39 Q56.8579 1461.39 59.9134 1466 Q62.9921 1470.58 62.9921 1479.33 Q62.9921 1488.06 59.9134 1492.67 Q56.8579 1497.25 51.0477 1497.25 Q45.2376 1497.25 42.1589 1492.67 Q39.1034 1488.06 39.1034 1479.33 Q39.1034 1470.58 42.1589 1466 Q45.2376 1461.39 51.0477 1461.39 Z" fill="#000000" fill-rule="evenodd" fill-opacity="1" /><path clip-path="url(#clip840)" d="M 0 0 M15.3072 1253.8 Q11.6961 1253.8 9.86741 1257.36 Q8.06186 1260.91 8.06186 1268.04 Q8.06186 1275.14 9.86741 1278.71 Q11.6961 1282.25 15.3072 1282.25 Q18.9414 1282.25 20.747 1278.71 Q22.5757 1275.14 22.5757 1268.04 Q22.5757 1260.91 20.747 1257.36 Q18.9414 1253.8 15.3072 1253.8 M15.3072 1250.1 Q21.1174 1250.1 24.1729 1254.7 Q27.2516 1259.29 27.2516 1268.04 Q27.2516 1276.76 24.1729 1281.37 Q21.1174 1285.95 15.3072 1285.95 Q9.49704 1285.95 6.41836 1281.37 Q3.36282 1276.76 3.36282 1268.04 Q3.36282 1259.29 6.41836 1254.7 Q9.49704 1250.1 15.3072 1250.1 Z" fill="#000000" fill-rule="evenodd" fill-opacity="1" /><path clip-path="url(#clip840)" d="M 0 0 M32.321 1279.4 L37.2052 1279.4 L37.2052 1285.28 L32.321 1285.28 L32.321 1279.4 Z" fill="#000000" fill-rule="evenodd" fill-opacity="1" /><path clip-path="url(#clip840)" d="M 0 0 M43.0848 1281.35 L50.7237 1281.35 L50.7237 1254.98 L42.4135 1256.65 L42.4135 1252.39 L50.6774 1250.72 L55.3533 1250.72 L55.3533 1281.35 L62.9921 1281.35 L62.9921 1285.28 L43.0848 1285.28 L43.0848 1281.35 Z" fill="#000000" fill-rule="evenodd" fill-opacity="1" /><path clip-path="url(#clip840)" d="M 0 0 M15.6776 1042.5 Q12.0665 1042.5 10.2378 1046.07 Q8.43223 1049.61 8.43223 1056.74 Q8.43223 1063.85 10.2378 1067.41 Q12.0665 1070.95 15.6776 1070.95 Q19.3118 1070.95 21.1174 1067.41 Q22.946 1063.85 22.946 1056.74 Q22.946 1049.61 21.1174 1046.07 Q19.3118 1042.5 15.6776 1042.5 M15.6776 1038.8 Q21.4877 1038.8 24.5433 1043.41 Q27.6219 1047.99 27.6219 1056.74 Q27.6219 1065.47 24.5433 1070.07 Q21.4877 1074.66 15.6776 1074.66 Q9.86741 1074.66 6.78872 1070.07 Q3.73318 1065.47 3.73318 1056.74 Q3.73318 1047.99 6.78872 1043.41 Q9.86741 1038.8 15.6776 1038.8 Z" fill="#000000" fill-rule="evenodd" fill-opacity="1" /><path clip-path="url(#clip840)" d="M 0 0 M32.6914 1068.11 L37.5756 1068.11 L37.5756 1073.98 L32.6914 1073.98 L32.6914 1068.11 Z" fill="#000000" fill-rule="evenodd" fill-opacity="1" /><path clip-path="url(#clip840)" d="M 0 0 M46.6728 1070.05 L62.9921 1070.05 L62.9921 1073.98 L41.0478 1073.98 L41.0478 1070.05 Q43.7098 1067.3 48.2931 1062.67 Q52.8996 1058.01 54.0801 1056.67 Q56.3255 1054.15 57.2051 1052.41 Q58.1079 1050.65 58.1079 1048.96 Q58.1079 1046.21 56.1635 1044.47 Q54.2422 1042.73 51.1403 1042.73 Q48.9413 1042.73 46.4876 1043.5 Q44.057 1044.26 41.2793 1045.81 L41.2793 1041.09 Q44.1033 1039.96 46.557 1039.38 Q49.0107 1038.8 51.0477 1038.8 Q56.4181 1038.8 59.6125 1041.48 Q62.8069 1044.17 62.8069 1048.66 Q62.8069 1050.79 61.9968 1052.71 Q61.2097 1054.61 59.1033 1057.2 Q58.5246 1057.87 55.4227 1061.09 Q52.3209 1064.29 46.6728 1070.05 Z" fill="#000000" fill-rule="evenodd" fill-opacity="1" /><path clip-path="url(#clip840)" d="M 0 0 M14.7285 831.207 Q11.1174 831.207 9.28871 834.772 Q7.48316 838.314 7.48316 845.443 Q7.48316 852.55 9.28871 856.114 Q11.1174 859.656 14.7285 859.656 Q18.3627 859.656 20.1683 856.114 Q21.997 852.55 21.997 845.443 Q21.997 838.314 20.1683 834.772 Q18.3627 831.207 14.7285 831.207 M14.7285 827.503 Q20.5386 827.503 23.5942 832.11 Q26.6729 836.693 26.6729 845.443 Q26.6729 854.17 23.5942 858.776 Q20.5386 863.36 14.7285 863.36 Q8.91834 863.36 5.83965 858.776 Q2.78412 854.17 2.78412 845.443 Q2.78412 836.693 5.83965 832.11 Q8.91834 827.503 14.7285 827.503 Z" fill="#000000" fill-rule="evenodd" fill-opacity="1" /><path clip-path="url(#clip840)" d="M 0 0 M31.7423 856.809 L36.6265 856.809 L36.6265 862.688 L31.7423 862.688 L31.7423 856.809 Z" fill="#000000" fill-rule="evenodd" fill-opacity="1" /><path clip-path="url(#clip840)" d="M 0 0 M55.8625 844.054 Q59.219 844.772 61.094 847.04 Q62.9921 849.309 62.9921 852.642 Q62.9921 857.758 59.4736 860.559 Q55.9551 863.36 49.4737 863.36 Q47.2978 863.36 44.983 862.92 Q42.6913 862.503 40.2376 861.647 L40.2376 857.133 Q42.1821 858.267 44.4969 858.846 Q46.8117 859.425 49.3348 859.425 Q53.7329 859.425 56.0246 857.688 Q58.3394 855.952 58.3394 852.642 Q58.3394 849.587 56.1866 847.874 Q54.057 846.138 50.2376 846.138 L46.2098 846.138 L46.2098 842.295 L50.4227 842.295 Q53.8718 842.295 55.7005 840.929 Q57.5292 839.54 57.5292 836.948 Q57.5292 834.286 55.6311 832.874 Q53.7561 831.439 50.2376 831.439 Q48.3163 831.439 46.1172 831.855 Q43.9182 832.272 41.2793 833.152 L41.2793 828.985 Q43.9413 828.244 46.2561 827.874 Q48.5941 827.503 50.6542 827.503 Q55.9783 827.503 59.0801 829.934 Q62.1819 832.341 62.1819 836.462 Q62.1819 839.332 60.5384 841.323 Q58.8949 843.29 55.8625 844.054 Z" fill="#000000" fill-rule="evenodd" fill-opacity="1" /><path clip-path="url(#clip840)" d="M 0 0 M13.5942 619.911 Q9.98315 619.911 8.15446 623.476 Q6.34891 627.017 6.34891 634.147 Q6.34891 641.253 8.15446 644.818 Q9.98315 648.36 13.5942 648.36 Q17.2285 648.36 19.034 644.818 Q20.8627 641.253 20.8627 634.147 Q20.8627 627.017 19.034 623.476 Q17.2285 619.911 13.5942 619.911 M13.5942 616.207 Q19.4044 616.207 22.4599 620.814 Q25.5386 625.397 25.5386 634.147 Q25.5386 642.874 22.4599 647.48 Q19.4044 652.063 13.5942 652.063 Q7.78409 652.063 4.7054 647.48 Q1.64986 642.874 1.64986 634.147 Q1.64986 625.397 4.7054 620.814 Q7.78409 616.207 13.5942 616.207 Z" fill="#000000" fill-rule="evenodd" fill-opacity="1" /><path clip-path="url(#clip840)" d="M 0 0 M30.608 645.512 L35.4923 645.512 L35.4923 651.392 L30.608 651.392 L30.608 645.512 Z" fill="#000000" fill-rule="evenodd" fill-opacity="1" /><path clip-path="url(#clip840)" d="M 0 0 M53.4088 620.906 L41.6034 639.355 L53.4088 639.355 L53.4088 620.906 M52.182 616.832 L58.0616 616.832 L58.0616 639.355 L62.9921 639.355 L62.9921 643.244 L58.0616 643.244 L58.0616 651.392 L53.4088 651.392 L53.4088 643.244 L37.8071 643.244 L37.8071 638.73 L52.182 616.832 Z" fill="#000000" fill-rule="evenodd" fill-opacity="1" /><path clip-path="url(#clip840)" d="M 0 0 M15.0757 408.614 Q11.4646 408.614 9.63593 412.179 Q7.83038 415.721 7.83038 422.85 Q7.83038 429.957 9.63593 433.522 Q11.4646 437.063 15.0757 437.063 Q18.71 437.063 20.5155 433.522 Q22.3442 429.957 22.3442 422.85 Q22.3442 415.721 20.5155 412.179 Q18.71 408.614 15.0757 408.614 M15.0757 404.911 Q20.8859 404.911 23.9414 409.517 Q27.0201 414.1 27.0201 422.85 Q27.0201 431.577 23.9414 436.184 Q20.8859 440.767 15.0757 440.767 Q9.26556 440.767 6.18687 436.184 Q3.13134 431.577 3.13134 422.85 Q3.13134 414.1 6.18687 409.517 Q9.26556 404.911 15.0757 404.911 Z" fill="#000000" fill-rule="evenodd" fill-opacity="1" /><path clip-path="url(#clip840)" d="M 0 0 M32.0895 434.216 L36.9737 434.216 L36.9737 440.096 L32.0895 440.096 L32.0895 434.216 Z" fill="#000000" fill-rule="evenodd" fill-opacity="1" /><path clip-path="url(#clip840)" d="M 0 0 M42.0895 405.536 L60.4458 405.536 L60.4458 409.471 L46.3718 409.471 L46.3718 417.943 Q47.3904 417.596 48.4089 417.434 Q49.4274 417.249 50.4459 417.249 Q56.2329 417.249 59.6125 420.42 Q62.9921 423.591 62.9921 429.008 Q62.9921 434.586 59.5199 437.688 Q56.0477 440.767 49.7283 440.767 Q47.5524 440.767 45.2839 440.397 Q43.0385 440.026 40.6311 439.285 L40.6311 434.586 Q42.7145 435.721 44.9367 436.276 Q47.1589 436.832 49.6357 436.832 Q53.6403 436.832 55.9783 434.725 Q58.3162 432.619 58.3162 429.008 Q58.3162 425.397 55.9783 423.29 Q53.6403 421.184 49.6357 421.184 Q47.7607 421.184 45.8857 421.6 Q44.0339 422.017 42.0895 422.897 L42.0895 405.536 Z" fill="#000000" fill-rule="evenodd" fill-opacity="1" /><path clip-path="url(#clip840)" d="M 0 0 M13.9183 197.318 Q10.3072 197.318 8.47853 200.883 Q6.67298 204.424 6.67298 211.554 Q6.67298 218.66 8.47853 222.225 Q10.3072 225.767 13.9183 225.767 Q17.5526 225.767 19.3581 222.225 Q21.1868 218.66 21.1868 211.554 Q21.1868 204.424 19.3581 200.883 Q17.5526 197.318 13.9183 197.318 M13.9183 193.614 Q19.7285 193.614 22.784 198.221 Q25.8627 202.804 25.8627 211.554 Q25.8627 220.281 22.784 224.887 Q19.7285 229.471 13.9183 229.471 Q8.10816 229.471 5.02947 224.887 Q1.97393 220.281 1.97393 211.554 Q1.97393 202.804 5.02947 198.221 Q8.10816 193.614 13.9183 193.614 Z" fill="#000000" fill-rule="evenodd" fill-opacity="1" /><path clip-path="url(#clip840)" d="M 0 0 M30.9321 222.92 L35.8163 222.92 L35.8163 228.799 L30.9321 228.799 L30.9321 222.92 Z" fill="#000000" fill-rule="evenodd" fill-opacity="1" /><path clip-path="url(#clip840)" d="M 0 0 M51.4644 209.656 Q48.3163 209.656 46.4644 211.809 Q44.6357 213.961 44.6357 217.711 Q44.6357 221.438 46.4644 223.614 Q48.3163 225.767 51.4644 225.767 Q54.6125 225.767 56.4412 223.614 Q58.2931 221.438 58.2931 217.711 Q58.2931 213.961 56.4412 211.809 Q54.6125 209.656 51.4644 209.656 M60.7468 195.003 L60.7468 199.262 Q58.9875 198.429 57.182 197.989 Q55.3996 197.549 53.6403 197.549 Q49.0107 197.549 46.557 200.674 Q44.1265 203.799 43.7793 210.119 Q45.145 208.105 47.2052 207.04 Q49.2653 205.952 51.7422 205.952 Q56.9505 205.952 59.9597 209.123 Q62.9921 212.272 62.9921 217.711 Q62.9921 223.035 59.844 226.253 Q56.6959 229.471 51.4644 229.471 Q45.4691 229.471 42.2978 224.887 Q39.1265 220.281 39.1265 211.554 Q39.1265 203.36 43.0154 198.499 Q46.9042 193.614 53.4551 193.614 Q55.2144 193.614 56.9968 193.962 Q58.8023 194.309 60.7468 195.003 Z" fill="#000000" fill-rule="evenodd" fill-opacity="1" /><path clip-path="url(#clip842)" d="
M151.118 987.445 L151.899 982.901 L152.68 978.364 L153.462 973.836 L154.243 969.317 L155.024 964.808 L155.806 960.31 L156.587 955.822 L157.368 951.347 L158.15 946.884 
  L158.931 942.434 L159.713 937.998 L160.494 933.576 L161.275 929.17 L162.057 924.78 L162.838 920.406 L163.619 916.049 L164.401 911.709 L165.182 907.388 L165.963 903.086 
  L166.745 898.803 L167.526 894.54 L168.308 890.298 L169.089 886.077 L169.87 881.877 L170.652 877.7 L171.433 873.545 L172.214 869.413 L172.996 865.305 L173.777 861.221 
  L174.559 857.162 L175.34 853.127 L176.121 849.118 L176.903 845.135 L177.684 841.178 L178.465 837.247 L179.247 833.344 L180.028 829.467 L180.809 825.619 L181.591 821.798 
  L182.372 818.006 L183.154 814.242 L183.935 810.507 L184.716 806.801 L185.498 803.124 L186.279 799.477 L187.06 795.86 L187.842 792.273 L188.623 788.716 L189.404 785.19 
  L190.186 781.694 L190.967 778.229 L191.749 774.794 L192.53 771.391 L193.311 768.019 L194.093 764.677 L194.874 761.367 L195.655 758.088 L196.437 754.84 L197.218 751.624 
  L197.999 748.439 L198.781 745.285 L199.562 742.162 L200.344 739.071 L201.125 736.011 L201.906 732.982 L202.688 729.984 L203.469 727.017 L204.25 724.081 L205.032 721.175 
  L205.813 718.3 L206.595 715.456 L207.376 712.642 L208.157 709.858 L208.939 707.104 L209.72 704.38 L210.501 701.685 L211.283 699.02 L212.064 696.383 L212.845 693.776 
  L213.627 691.197 L214.408 688.647 L215.19 686.125 L215.971 683.63 L216.752 681.163 L217.534 678.724 L218.315 676.311 L219.096 673.925 L219.878 671.565 L220.659 669.232 
  L221.44 666.924 L222.222 664.641 L223.003 662.383 L223.785 660.15 L224.566 657.941 L225.347 655.756 L226.129 653.594 L226.91 651.455 L227.691 649.339 L228.473 647.246 
  L228.473 1479.3 L227.691 1479.3 L226.91 1479.3 L226.129 1479.3 L225.347 1479.3 L224.566 1479.3 L223.785 1479.3 L223.003 1479.3 L222.222 1479.3 L221.44 1479.3 
  L220.659 1479.3 L219.878 1479.3 L219.096 1479.3 L218.315 1479.3 L217.534 1479.3 L216.752 1479.3 L215.971 1479.3 L215.19 1479.3 L214.408 1479.3 L213.627 1479.3 
  L212.845 1479.3 L212.064 1479.3 L211.283 1479.3 L210.501 1479.3 L209.72 1479.3 L208.939 1479.3 L208.157 1479.3 L207.376 1479.3 L206.595 1479.3 L205.813 1479.3 
  L205.032 1479.3 L204.25 1479.3 L203.469 1479.3 L202.688 1479.3 L201.906 1479.3 L201.125 1479.3 L200.344 1479.3 L199.562 1479.3 L198.781 1479.3 L197.999 1479.3 
  L197.218 1479.3 L196.437 1479.3 L195.655 1479.3 L194.874 1479.3 L194.093 1479.3 L193.311 1479.3 L192.53 1479.3 L191.749 1479.3 L190.967 1479.3 L190.186 1479.3 
  L189.404 1479.3 L188.623 1479.3 L187.842 1479.3 L187.06 1479.3 L186.279 1479.3 L185.498 1479.3 L184.716 1479.3 L183.935 1479.3 L183.154 1479.3 L182.372 1479.3 
  L181.591 1479.3 L180.809 1479.3 L180.028 1479.3 L179.247 1479.3 L178.465 1479.3 L177.684 1479.3 L176.903 1479.3 L176.121 1479.3 L175.34 1479.3 L174.559 1479.3 
  L173.777 1479.3 L172.996 1479.3 L172.214 1479.3 L171.433 1479.3 L170.652 1479.3 L169.87 1479.3 L169.089 1479.3 L168.308 1479.3 L167.526 1479.3 L166.745 1479.3 
  L165.963 1479.3 L165.182 1479.3 L164.401 1479.3 L163.619 1479.3 L162.838 1479.3 L162.057 1479.3 L161.275 1479.3 L160.494 1479.3 L159.713 1479.3 L158.931 1479.3 
  L158.15 1479.3 L157.368 1479.3 L156.587 1479.3 L155.806 1479.3 L155.024 1479.3 L154.243 1479.3 L153.462 1479.3 L152.68 1479.3 L151.899 1479.3 L151.118 1479.3 
   Z
  " fill="#ffa500" fill-rule="evenodd" fill-opacity="0.5"/>
<polyline clip-path="url(#clip842)" style="stroke:#ffa500; stroke-width:4; stroke-opacity:1; fill:none" points="
  151.118,987.445 151.899,982.901 152.68,978.364 153.462,973.836 154.243,969.317 155.024,964.808 155.806,960.31 156.587,955.822 157.368,951.347 158.15,946.884 
  158.931,942.434 159.713,937.998 160.494,933.576 161.275,929.17 162.057,924.78 162.838,920.406 163.619,916.049 164.401,911.709 165.182,907.388 165.963,903.086 
  166.745,898.803 167.526,894.54 168.308,890.298 169.089,886.077 169.87,881.877 170.652,877.7 171.433,873.545 172.214,869.413 172.996,865.305 173.777,861.221 
  174.559,857.162 175.34,853.127 176.121,849.118 176.903,845.135 177.684,841.178 178.465,837.247 179.247,833.344 180.028,829.467 180.809,825.619 181.591,821.798 
  182.372,818.006 183.154,814.242 183.935,810.507 184.716,806.801 185.498,803.124 186.279,799.477 187.06,795.86 187.842,792.273 188.623,788.716 189.404,785.19 
  190.186,781.694 190.967,778.229 191.749,774.794 192.53,771.391 193.311,768.019 194.093,764.677 194.874,761.367 195.655,758.088 196.437,754.84 197.218,751.624 
  197.999,748.439 198.781,745.285 199.562,742.162 200.344,739.071 201.125,736.011 201.906,732.982 202.688,729.984 203.469,727.017 204.25,724.081 205.032,721.175 
  205.813,718.3 206.595,715.456 207.376,712.642 208.157,709.858 208.939,707.104 209.72,704.38 210.501,701.685 211.283,699.02 212.064,696.383 212.845,693.776 
  213.627,691.197 214.408,688.647 215.19,686.125 215.971,683.63 216.752,681.163 217.534,678.724 218.315,676.311 219.096,673.925 219.878,671.565 220.659,669.232 
  221.44,666.924 222.222,664.641 223.003,662.383 223.785,660.15 224.566,657.941 225.347,655.756 226.129,653.594 226.91,651.455 227.691,649.339 228.473,647.246 
  
  "/>
<path clip-path="url(#clip842)" d="
M228.473 647.246 L243.029 611.801 L257.585 581.219 L272.141 552.872 L286.697 524.625 L301.254 495.03 L315.81 463.326 L330.366 429.331 L344.922 393.32 L359.478 355.93 
  L374.035 318.103 L388.591 281.021 L403.147 246.001 L417.703 214.314 L432.259 186.971 L446.815 164.519 L461.372 146.93 L475.928 133.628 L490.484 123.667 L505.04 116.005 
  L519.596 109.778 L534.153 104.48 L548.709 99.9692 L563.265 96.332 L577.821 93.6644 L592.377 91.8985 L606.933 90.7685 L621.49 89.9437 L636.046 89.2642 L650.602 88.9544 
  L665.158 89.6915 L679.714 92.4703 L694.27 98.3002 L708.827 107.85 L723.383 121.185 L737.939 137.702 L752.495 156.29 L767.051 175.661 L781.608 194.732 L796.164 212.926 
  L810.72 230.302 L825.276 247.473 L839.832 265.35 L854.388 284.798 L868.945 306.317 L883.501 329.838 L898.057 354.701 L912.613 379.817 L927.169 403.956 L941.726 426.086 
  L956.282 445.645 L970.838 462.682 L985.394 477.814 L999.95 492.024 L1014.51 506.367 L1029.06 521.658 L1043.62 538.245 L1058.17 555.904 L1072.73 573.905 L1087.29 591.214 
  L1101.84 606.799 L1116.4 619.954 L1130.96 630.565 L1145.51 639.23 L1160.07 647.189 L1174.62 656.061 L1189.18 667.444 L1203.74 682.498 L1218.29 701.62 L1232.85 724.309 
  L1247.41 749.278 L1261.96 774.747 L1276.52 798.866 L1291.07 820.124 L1305.63 837.652 L1320.19 851.353 L1334.74 861.856 L1349.3 870.315 L1363.85 878.144 L1378.41 886.739 
  L1392.97 897.264 L1407.52 910.509 L1422.08 926.832 L1436.64 946.166 L1451.19 968.064 L1465.75 991.789 L1480.3 1016.41 L1494.86 1040.94 L1509.42 1064.43 L1523.97 1086.05 
  L1538.53 1105.24 L1553.09 1121.64 L1567.64 1135.22 L1582.2 1146.23 L1596.75 1155.21 L1611.31 1162.9 L1625.87 1170.14 L1640.42 1177.74 L1654.98 1186.28 L1669.53 1196.1 
  L1669.53 1479.3 L1654.98 1479.3 L1640.42 1479.3 L1625.87 1479.3 L1611.31 1479.3 L1596.75 1479.3 L1582.2 1479.3 L1567.64 1479.3 L1553.09 1479.3 L1538.53 1479.3 
  L1523.97 1479.3 L1509.42 1479.3 L1494.86 1479.3 L1480.3 1479.3 L1465.75 1479.3 L1451.19 1479.3 L1436.64 1479.3 L1422.08 1479.3 L1407.52 1479.3 L1392.97 1479.3 
  L1378.41 1479.3 L1363.85 1479.3 L1349.3 1479.3 L1334.74 1479.3 L1320.19 1479.3 L1305.63 1479.3 L1291.07 1479.3 L1276.52 1479.3 L1261.96 1479.3 L1247.41 1479.3 
  L1232.85 1479.3 L1218.29 1479.3 L1203.74 1479.3 L1189.18 1479.3 L1174.62 1479.3 L1160.07 1479.3 L1145.51 1479.3 L1130.96 1479.3 L1116.4 1479.3 L1101.84 1479.3 
  L1087.29 1479.3 L1072.73 1479.3 L1058.17 1479.3 L1043.62 1479.3 L1029.06 1479.3 L1014.51 1479.3 L999.95 1479.3 L985.394 1479.3 L970.838 1479.3 L956.282 1479.3 
  L941.726 1479.3 L927.169 1479.3 L912.613 1479.3 L898.057 1479.3 L883.501 1479.3 L868.945 1479.3 L854.388 1479.3 L839.832 1479.3 L825.276 1479.3 L810.72 1479.3 
  L796.164 1479.3 L781.608 1479.3 L767.051 1479.3 L752.495 1479.3 L737.939 1479.3 L723.383 1479.3 L708.827 1479.3 L694.27 1479.3 L679.714 1479.3 L665.158 1479.3 
  L650.602 1479.3 L636.046 1479.3 L621.49 1479.3 L606.933 1479.3 L592.377 1479.3 L577.821 1479.3 L563.265 1479.3 L548.709 1479.3 L534.153 1479.3 L519.596 1479.3 
  L505.04 1479.3 L490.484 1479.3 L475.928 1479.3 L461.372 1479.3 L446.815 1479.3 L432.259 1479.3 L417.703 1479.3 L403.147 1479.3 L388.591 1479.3 L374.035 1479.3 
  L359.478 1479.3 L344.922 1479.3 L330.366 1479.3 L315.81 1479.3 L301.254 1479.3 L286.697 1479.3 L272.141 1479.3 L257.585 1479.3 L243.029 1479.3 L228.473 1479.3 
   Z
  " fill="#008000" fill-rule="evenodd" fill-opacity="0.5"/>
<polyline clip-path="url(#clip842)" style="stroke:#008000; stroke-width:4; stroke-opacity:1; fill:none" points="
  228.473,647.246 243.029,611.801 257.585,581.219 272.141,552.872 286.697,524.625 301.254,495.03 315.81,463.326 330.366,429.331 344.922,393.32 359.478,355.93 
  374.035,318.103 388.591,281.021 403.147,246.001 417.703,214.314 432.259,186.971 446.815,164.519 461.372,146.93 475.928,133.628 490.484,123.667 505.04,116.005 
  519.596,109.778 534.153,104.48 548.709,99.9692 563.265,96.332 577.821,93.6644 592.377,91.8985 606.933,90.7685 621.49,89.9437 636.046,89.2642 650.602,88.9544 
  665.158,89.6915 679.714,92.4703 694.27,98.3002 708.827,107.85 723.383,121.185 737.939,137.702 752.495,156.29 767.051,175.661 781.608,194.732 796.164,212.926 
  810.72,230.302 825.276,247.473 839.832,265.35 854.388,284.798 868.945,306.317 883.501,329.838 898.057,354.701 912.613,379.817 927.169,403.956 941.726,426.086 
  956.282,445.645 970.838,462.682 985.394,477.814 999.95,492.024 1014.51,506.367 1029.06,521.658 1043.62,538.245 1058.17,555.904 1072.73,573.905 1087.29,591.214 
  1101.84,606.799 1116.4,619.954 1130.96,630.565 1145.51,639.23 1160.07,647.189 1174.62,656.061 1189.18,667.444 1203.74,682.498 1218.29,701.62 1232.85,724.309 
  1247.41,749.278 1261.96,774.747 1276.52,798.866 1291.07,820.124 1305.63,837.652 1320.19,851.353 1334.74,861.856 1349.3,870.315 1363.85,878.144 1378.41,886.739 
  1392.97,897.264 1407.52,910.509 1422.08,926.832 1436.64,946.166 1451.19,968.064 1465.75,991.789 1480.3,1016.41 1494.86,1040.94 1509.42,1064.43 1523.97,1086.05 
  1538.53,1105.24 1553.09,1121.64 1567.64,1135.22 1582.2,1146.23 1596.75,1155.21 1611.31,1162.9 1625.87,1170.14 1640.42,1177.74 1654.98,1186.28 1669.53,1196.1 
  
  "/>
<path clip-path="url(#clip842)" d="
M1669.53 1196.1 L1675.79 1200.71 L1682.04 1205.54 L1688.29 1210.56 L1694.55 1215.74 L1700.8 1221.04 L1707.06 1226.42 L1713.31 1231.83 L1719.56 1237.23 L1725.82 1242.59 
  L1732.07 1247.85 L1738.32 1252.98 L1744.58 1257.94 L1750.83 1262.71 L1757.08 1267.24 L1763.34 1271.53 L1769.59 1275.55 L1775.84 1279.29 L1782.1 1282.75 L1788.35 1285.93 
  L1794.6 1288.83 L1800.86 1291.46 L1807.11 1293.85 L1813.36 1296.01 L1819.62 1297.96 L1825.87 1299.75 L1832.13 1301.39 L1838.38 1302.91 L1844.63 1304.35 L1850.89 1305.72 
  L1857.14 1307.05 L1863.39 1308.37 L1869.65 1309.67 L1875.9 1310.98 L1882.15 1312.3 L1888.41 1313.64 L1894.66 1314.98 L1900.91 1316.35 L1907.17 1317.72 L1913.42 1319.11 
  L1919.67 1320.52 L1925.93 1321.94 L1932.18 1323.4 L1938.43 1324.9 L1944.69 1326.45 L1950.94 1328.09 L1957.2 1329.81 L1963.45 1331.66 L1969.7 1333.65 L1975.96 1335.8 
  L1982.21 1338.14 L1988.46 1340.66 L1994.72 1343.4 L2000.97 1346.34 L2007.22 1349.49 L2013.48 1352.84 L2019.73 1356.38 L2025.98 1360.09 L2032.24 1363.94 L2038.49 1367.9 
  L2044.74 1371.96 L2051 1376.07 L2057.25 1380.21 L2063.5 1384.34 L2069.76 1388.45 L2076.01 1392.51 L2082.27 1396.49 L2088.52 1400.38 L2094.77 1404.16 L2101.03 1407.83 
  L2107.28 1411.38 L2113.53 1414.8 L2119.79 1418.09 L2126.04 1421.26 L2132.29 1424.3 L2138.55 1427.21 L2144.8 1430.02 L2151.05 1432.71 L2157.31 1435.29 L2163.56 1437.77 
  L2169.81 1440.16 L2176.07 1442.45 L2182.32 1444.66 L2188.57 1446.78 L2194.83 1448.81 L2201.08 1450.76 L2207.34 1452.64 L2213.59 1454.43 L2219.84 1456.15 L2226.1 1457.79 
  L2232.35 1459.35 L2238.6 1460.85 L2244.86 1462.26 L2251.11 1463.61 L2257.36 1464.89 L2263.62 1466.1 L2269.87 1467.25 L2276.12 1468.33 L2282.38 1469.35 L2288.63 1470.3 
  L2288.63 1479.3 L2282.38 1479.3 L2276.12 1479.3 L2269.87 1479.3 L2263.62 1479.3 L2257.36 1479.3 L2251.11 1479.3 L2244.86 1479.3 L2238.6 1479.3 L2232.35 1479.3 
  L2226.1 1479.3 L2219.84 1479.3 L2213.59 1479.3 L2207.34 1479.3 L2201.08 1479.3 L2194.83 1479.3 L2188.57 1479.3 L2182.32 1479.3 L2176.07 1479.3 L2169.81 1479.3 
  L2163.56 1479.3 L2157.31 1479.3 L2151.05 1479.3 L2144.8 1479.3 L2138.55 1479.3 L2132.29 1479.3 L2126.04 1479.3 L2119.79 1479.3 L2113.53 1479.3 L2107.28 1479.3 
  L2101.03 1479.3 L2094.77 1479.3 L2088.52 1479.3 L2082.27 1479.3 L2076.01 1479.3 L2069.76 1479.3 L2063.5 1479.3 L2057.25 1479.3 L2051 1479.3 L2044.74 1479.3 
  L2038.49 1479.3 L2032.24 1479.3 L2025.98 1479.3 L2019.73 1479.3 L2013.48 1479.3 L2007.22 1479.3 L2000.97 1479.3 L1994.72 1479.3 L1988.46 1479.3 L1982.21 1479.3 
  L1975.96 1479.3 L1969.7 1479.3 L1963.45 1479.3 L1957.2 1479.3 L1950.94 1479.3 L1944.69 1479.3 L1938.43 1479.3 L1932.18 1479.3 L1925.93 1479.3 L1919.67 1479.3 
  L1913.42 1479.3 L1907.17 1479.3 L1900.91 1479.3 L1894.66 1479.3 L1888.41 1479.3 L1882.15 1479.3 L1875.9 1479.3 L1869.65 1479.3 L1863.39 1479.3 L1857.14 1479.3 
  L1850.89 1479.3 L1844.63 1479.3 L1838.38 1479.3 L1832.13 1479.3 L1825.87 1479.3 L1819.62 1479.3 L1813.36 1479.3 L1807.11 1479.3 L1800.86 1479.3 L1794.6 1479.3 
  L1788.35 1479.3 L1782.1 1479.3 L1775.84 1479.3 L1769.59 1479.3 L1763.34 1479.3 L1757.08 1479.3 L1750.83 1479.3 L1744.58 1479.3 L1738.32 1479.3 L1732.07 1479.3 
  L1725.82 1479.3 L1719.56 1479.3 L1713.31 1479.3 L1707.06 1479.3 L1700.8 1479.3 L1694.55 1479.3 L1688.29 1479.3 L1682.04 1479.3 L1675.79 1479.3 L1669.53 1479.3 
   Z
  " fill="#ffa500" fill-rule="evenodd" fill-opacity="0.5"/>
<polyline clip-path="url(#clip842)" style="stroke:#ffa500; stroke-width:4; stroke-opacity:1; fill:none" points="
  1669.53,1196.1 1675.79,1200.71 1682.04,1205.54 1688.29,1210.56 1694.55,1215.74 1700.8,1221.04 1707.06,1226.42 1713.31,1231.83 1719.56,1237.23 1725.82,1242.59 
  1732.07,1247.85 1738.32,1252.98 1744.58,1257.94 1750.83,1262.71 1757.08,1267.24 1763.34,1271.53 1769.59,1275.55 1775.84,1279.29 1782.1,1282.75 1788.35,1285.93 
  1794.6,1288.83 1800.86,1291.46 1807.11,1293.85 1813.36,1296.01 1819.62,1297.96 1825.87,1299.75 1832.13,1301.39 1838.38,1302.91 1844.63,1304.35 1850.89,1305.72 
  1857.14,1307.05 1863.39,1308.37 1869.65,1309.67 1875.9,1310.98 1882.15,1312.3 1888.41,1313.64 1894.66,1314.98 1900.91,1316.35 1907.17,1317.72 1913.42,1319.11 
  1919.67,1320.52 1925.93,1321.94 1932.18,1323.4 1938.43,1324.9 1944.69,1326.45 1950.94,1328.09 1957.2,1329.81 1963.45,1331.66 1969.7,1333.65 1975.96,1335.8 
  1982.21,1338.14 1988.46,1340.66 1994.72,1343.4 2000.97,1346.34 2007.22,1349.49 2013.48,1352.84 2019.73,1356.38 2025.98,1360.09 2032.24,1363.94 2038.49,1367.9 
  2044.74,1371.96 2051,1376.07 2057.25,1380.21 2063.5,1384.34 2069.76,1388.45 2076.01,1392.51 2082.27,1396.49 2088.52,1400.38 2094.77,1404.16 2101.03,1407.83 
  2107.28,1411.38 2113.53,1414.8 2119.79,1418.09 2126.04,1421.26 2132.29,1424.3 2138.55,1427.21 2144.8,1430.02 2151.05,1432.71 2157.31,1435.29 2163.56,1437.77 
  2169.81,1440.16 2176.07,1442.45 2182.32,1444.66 2188.57,1446.78 2194.83,1448.81 2201.08,1450.76 2207.34,1452.64 2213.59,1454.43 2219.84,1456.15 2226.1,1457.79 
  2232.35,1459.35 2238.6,1460.85 2244.86,1462.26 2251.11,1463.61 2257.36,1464.89 2263.62,1466.1 2269.87,1467.25 2276.12,1468.33 2282.38,1469.35 2288.63,1470.3 
  
  "/>
<polyline clip-path="url(#clip842)" style="stroke:#0000ff; stroke-width:4; stroke-opacity:1; fill:none" points="
  841.114,1479.3 841.114,266.989 
  "/>
<polyline clip-path="url(#clip842)" style="stroke:#000000; stroke-width:4; stroke-opacity:1; fill:none" points="
  768.28,1479.3 768.28,177.294 
  "/>
<path clip-path="url(#clip840)" d="
M1494.58 459.25 L2277.23 459.25 L2277.23 96.3696 L1494.58 96.3696  Z
  " fill="#ffffff" fill-rule="evenodd" fill-opacity="1"/>
<polyline clip-path="url(#clip840)" style="stroke:#000000; stroke-width:4; stroke-opacity:1; fill:none" points="
  1494.58,459.25 2277.23,459.25 2277.23,96.3696 1494.58,96.3696 1494.58,459.25 
  "/>
<path clip-path="url(#clip840)" d="
M1519.75 181.042 L1670.81 181.042 L1670.81 132.658 L1519.75 132.658 L1519.75 181.042  Z
  " fill="#ffa500" fill-rule="evenodd" fill-opacity="0.5"/>
<polyline clip-path="url(#clip840)" style="stroke:#ffa500; stroke-width:4; stroke-opacity:1; fill:none" points="
  1519.75,132.658 1670.81,132.658 
  "/>
<path clip-path="url(#clip840)" d="M 0 0 M1700.38 161.19 Q1700.38 165.889 1702.3 168.574 Q1704.24 171.236 1707.62 171.236 Q1711 171.236 1712.95 168.574 Q1714.89 165.889 1714.89 161.19 Q1714.89 156.491 1712.95 153.829 Q1711 151.144 1707.62 151.144 Q1704.24 151.144 1702.3 153.829 Q1700.38 156.491 1700.38 161.19 M1714.89 170.241 Q1713.55 172.555 1711.49 173.69 Q1709.45 174.801 1706.58 174.801 Q1701.88 174.801 1698.92 171.051 Q1695.98 167.301 1695.98 161.19 Q1695.98 155.079 1698.92 151.329 Q1701.88 147.579 1706.58 147.579 Q1709.45 147.579 1711.49 148.713 Q1713.55 149.824 1714.89 152.139 L1714.89 148.204 L1719.15 148.204 L1719.15 183.991 L1714.89 183.991 L1714.89 170.241 Z" fill="#000000" fill-rule="evenodd" fill-opacity="1" /><path clip-path="url(#clip840)" d="M 0 0 M1734.22 142.648 Q1730.61 142.648 1728.78 146.213 Q1726.98 149.755 1726.98 156.884 Q1726.98 163.991 1728.78 167.556 Q1730.61 171.097 1734.22 171.097 Q1737.85 171.097 1739.66 167.556 Q1741.49 163.991 1741.49 156.884 Q1741.49 149.755 1739.66 146.213 Q1737.85 142.648 1734.22 142.648 M1734.22 138.945 Q1740.03 138.945 1743.09 143.551 Q1746.17 148.134 1746.17 156.884 Q1746.17 165.611 1743.09 170.218 Q1740.03 174.801 1734.22 174.801 Q1728.41 174.801 1725.33 170.218 Q1722.28 165.611 1722.28 156.884 Q1722.28 148.134 1725.33 143.551 Q1728.41 138.945 1734.22 138.945 Z" fill="#000000" fill-rule="evenodd" fill-opacity="1" /><path clip-path="url(#clip840)" d="M 0 0 M1751.28 139.57 L1769.64 139.57 L1769.64 143.505 L1755.56 143.505 L1755.56 151.977 Q1756.58 151.63 1757.6 151.468 Q1758.62 151.282 1759.64 151.282 Q1765.42 151.282 1768.8 154.454 Q1772.18 157.625 1772.18 163.042 Q1772.18 168.62 1768.71 171.722 Q1765.24 174.801 1758.92 174.801 Q1756.74 174.801 1754.48 174.43 Q1752.23 174.06 1749.82 173.319 L1749.82 168.62 Q1751.91 169.755 1754.13 170.31 Q1756.35 170.866 1758.83 170.866 Q1762.83 170.866 1765.17 168.759 Q1767.51 166.653 1767.51 163.042 Q1767.51 159.431 1765.17 157.324 Q1762.83 155.218 1758.83 155.218 Q1756.95 155.218 1755.08 155.634 Q1753.23 156.051 1751.28 156.931 L1751.28 139.57 Z" fill="#000000" fill-rule="evenodd" fill-opacity="1" /><path clip-path="url(#clip840)" d="
M1519.75 241.522 L1670.81 241.522 L1670.81 193.138 L1519.75 193.138 L1519.75 241.522  Z
  " fill="#008000" fill-rule="evenodd" fill-opacity="0.5"/>
<polyline clip-path="url(#clip840)" style="stroke:#008000; stroke-width:4; stroke-opacity:1; fill:none" points="
  1519.75,193.138 1670.81,193.138 
  "/>
<path clip-path="url(#clip840)" d="M 0 0 M1698.2 233.892 L1698.2 229.633 Q1699.96 230.466 1701.77 230.906 Q1703.57 231.346 1705.31 231.346 Q1709.94 231.346 1712.37 228.244 Q1714.82 225.119 1715.17 218.776 Q1713.83 220.767 1711.77 221.832 Q1709.71 222.897 1707.21 222.897 Q1702.02 222.897 1698.99 219.772 Q1695.98 216.624 1695.98 211.184 Q1695.98 205.86 1699.13 202.642 Q1702.28 199.425 1707.51 199.425 Q1713.5 199.425 1716.65 204.031 Q1719.82 208.614 1719.82 217.364 Q1719.82 225.536 1715.93 230.42 Q1712.07 235.281 1705.52 235.281 Q1703.76 235.281 1701.95 234.934 Q1700.15 234.586 1698.2 233.892 M1707.51 219.239 Q1710.66 219.239 1712.48 217.086 Q1714.34 214.934 1714.34 211.184 Q1714.34 207.457 1712.48 205.304 Q1710.66 203.128 1707.51 203.128 Q1704.36 203.128 1702.51 205.304 Q1700.68 207.457 1700.68 211.184 Q1700.68 214.934 1702.51 217.086 Q1704.36 219.239 1707.51 219.239 Z" fill="#000000" fill-rule="evenodd" fill-opacity="1" /><path clip-path="url(#clip840)" d="M 0 0 M1734.89 203.128 Q1731.28 203.128 1729.45 206.693 Q1727.65 210.235 1727.65 217.364 Q1727.65 224.471 1729.45 228.036 Q1731.28 231.577 1734.89 231.577 Q1738.53 231.577 1740.33 228.036 Q1742.16 224.471 1742.16 217.364 Q1742.16 210.235 1740.33 206.693 Q1738.53 203.128 1734.89 203.128 M1734.89 199.425 Q1740.7 199.425 1743.76 204.031 Q1746.84 208.614 1746.84 217.364 Q1746.84 226.091 1743.76 230.698 Q1740.7 235.281 1734.89 235.281 Q1729.08 235.281 1726 230.698 Q1722.95 226.091 1722.95 217.364 Q1722.95 208.614 1726 204.031 Q1729.08 199.425 1734.89 199.425 Z" fill="#000000" fill-rule="evenodd" fill-opacity="1" /><path clip-path="url(#clip840)" d="M 0 0 M1781.3 219.401 Q1779.29 219.401 1778.13 221.114 Q1777 222.827 1777 225.883 Q1777 228.892 1778.13 230.628 Q1779.29 232.341 1781.3 232.341 Q1783.27 232.341 1784.41 230.628 Q1785.56 228.892 1785.56 225.883 Q1785.56 222.85 1784.41 221.137 Q1783.27 219.401 1781.3 219.401 M1781.3 216.462 Q1784.96 216.462 1787.11 219.008 Q1789.27 221.554 1789.27 225.883 Q1789.27 230.211 1787.09 232.758 Q1784.94 235.281 1781.3 235.281 Q1777.6 235.281 1775.45 232.758 Q1773.29 230.211 1773.29 225.883 Q1773.29 221.531 1775.45 219.008 Q1777.62 216.462 1781.3 216.462 M1757.42 202.364 Q1755.42 202.364 1754.27 204.1 Q1753.13 205.813 1753.13 208.823 Q1753.13 211.878 1754.27 213.591 Q1755.4 215.304 1757.42 215.304 Q1759.43 215.304 1760.56 213.591 Q1761.72 211.878 1761.72 208.823 Q1761.72 205.837 1760.56 204.1 Q1759.41 202.364 1757.42 202.364 M1778.32 199.425 L1782.02 199.425 L1760.4 235.281 L1756.7 235.281 L1778.32 199.425 M1757.42 199.425 Q1761.07 199.425 1763.25 201.971 Q1765.42 204.494 1765.42 208.823 Q1765.42 213.198 1763.25 215.721 Q1761.1 218.244 1757.42 218.244 Q1753.73 218.244 1751.58 215.721 Q1749.45 213.174 1749.45 208.823 Q1749.45 204.517 1751.6 201.971 Q1753.76 199.425 1757.42 199.425 Z" fill="#000000" fill-rule="evenodd" fill-opacity="1" /><path clip-path="url(#clip840)" d="M 0 0 M1830.35 218.961 L1830.35 234.61 L1826.1 234.61 L1826.1 219.1 Q1826.1 215.42 1824.66 213.591 Q1823.22 211.762 1820.35 211.762 Q1816.91 211.762 1814.91 213.962 Q1812.92 216.161 1812.92 219.957 L1812.92 234.61 L1808.64 234.61 L1808.64 208.684 L1812.92 208.684 L1812.92 212.712 Q1814.45 210.374 1816.51 209.216 Q1818.6 208.059 1821.3 208.059 Q1825.77 208.059 1828.06 210.837 Q1830.35 213.591 1830.35 218.961 Z" fill="#000000" fill-rule="evenodd" fill-opacity="1" /><path clip-path="url(#clip840)" d="M 0 0 M1844.87 211.67 Q1841.44 211.67 1839.45 214.355 Q1837.46 217.017 1837.46 221.67 Q1837.46 226.323 1839.43 229.008 Q1841.42 231.67 1844.87 231.67 Q1848.27 231.67 1850.26 228.985 Q1852.25 226.299 1852.25 221.67 Q1852.25 217.063 1850.26 214.378 Q1848.27 211.67 1844.87 211.67 M1844.87 208.059 Q1850.42 208.059 1853.6 211.67 Q1856.77 215.281 1856.77 221.67 Q1856.77 228.036 1853.6 231.67 Q1850.42 235.281 1844.87 235.281 Q1839.29 235.281 1836.12 231.67 Q1832.97 228.036 1832.97 221.67 Q1832.97 215.281 1836.12 211.67 Q1839.29 208.059 1844.87 208.059 Z" fill="#000000" fill-rule="evenodd" fill-opacity="1" /><path clip-path="url(#clip840)" d="M 0 0 M1882.78 218.961 L1882.78 234.61 L1878.53 234.61 L1878.53 219.1 Q1878.53 215.42 1877.09 213.591 Q1875.66 211.762 1872.78 211.762 Q1869.34 211.762 1867.35 213.962 Q1865.35 216.161 1865.35 219.957 L1865.35 234.61 L1861.07 234.61 L1861.07 208.684 L1865.35 208.684 L1865.35 212.712 Q1866.88 210.374 1868.94 209.216 Q1871.03 208.059 1873.73 208.059 Q1878.2 208.059 1880.49 210.837 Q1882.78 213.591 1882.78 218.961 Z" fill="#000000" fill-rule="evenodd" fill-opacity="1" /><path clip-path="url(#clip840)" d="M 0 0 M1885.1 219.725 L1897.58 219.725 L1897.58 223.522 L1885.1 223.522 L1885.1 219.725 Z" fill="#000000" fill-rule="evenodd" fill-opacity="1" /><path clip-path="url(#clip840)" d="M 0 0 M1917.07 212.665 Q1916.35 212.249 1915.49 212.063 Q1914.66 211.855 1913.64 211.855 Q1910.03 211.855 1908.09 214.216 Q1906.16 216.554 1906.16 220.952 L1906.16 234.61 L1901.88 234.61 L1901.88 208.684 L1906.16 208.684 L1906.16 212.712 Q1907.51 210.35 1909.66 209.216 Q1911.81 208.059 1914.89 208.059 Q1915.33 208.059 1915.86 208.128 Q1916.4 208.175 1917.04 208.29 L1917.07 212.665 Z" fill="#000000" fill-rule="evenodd" fill-opacity="1" /><path clip-path="url(#clip840)" d="M 0 0 M1942.67 220.582 L1942.67 222.665 L1923.09 222.665 Q1923.36 227.063 1925.72 229.378 Q1928.11 231.67 1932.34 231.67 Q1934.8 231.67 1937.09 231.068 Q1939.4 230.466 1941.67 229.262 L1941.67 233.29 Q1939.38 234.262 1936.97 234.772 Q1934.57 235.281 1932.09 235.281 Q1925.89 235.281 1922.25 231.67 Q1918.64 228.059 1918.64 221.901 Q1918.64 215.536 1922.07 211.809 Q1925.52 208.059 1931.35 208.059 Q1936.58 208.059 1939.61 211.438 Q1942.67 214.795 1942.67 220.582 M1938.41 219.332 Q1938.36 215.837 1936.44 213.753 Q1934.54 211.67 1931.4 211.67 Q1927.83 211.67 1925.68 213.684 Q1923.55 215.698 1923.22 219.355 L1938.41 219.332 Z" fill="#000000" fill-rule="evenodd" fill-opacity="1" /><path clip-path="url(#clip840)" d="M 0 0 M1947.14 208.684 L1951.4 208.684 L1951.4 235.073 Q1951.4 240.026 1949.5 242.248 Q1947.62 244.471 1943.43 244.471 L1941.81 244.471 L1941.81 240.86 L1942.95 240.86 Q1945.38 240.86 1946.26 239.725 Q1947.14 238.614 1947.14 235.073 L1947.14 208.684 M1947.14 198.591 L1951.4 198.591 L1951.4 203.985 L1947.14 203.985 L1947.14 198.591 Z" fill="#000000" fill-rule="evenodd" fill-opacity="1" /><path clip-path="url(#clip840)" d="M 0 0 M1978.04 220.582 L1978.04 222.665 L1958.46 222.665 Q1958.73 227.063 1961.09 229.378 Q1963.48 231.67 1967.71 231.67 Q1970.17 231.67 1972.46 231.068 Q1974.78 230.466 1977.04 229.262 L1977.04 233.29 Q1974.75 234.262 1972.34 234.772 Q1969.94 235.281 1967.46 235.281 Q1961.26 235.281 1957.62 231.67 Q1954.01 228.059 1954.01 221.901 Q1954.01 215.536 1957.44 211.809 Q1960.89 208.059 1966.72 208.059 Q1971.95 208.059 1974.98 211.438 Q1978.04 214.795 1978.04 220.582 M1973.78 219.332 Q1973.73 215.837 1971.81 213.753 Q1969.91 211.67 1966.77 211.67 Q1963.2 211.67 1961.05 213.684 Q1958.92 215.698 1958.59 219.355 L1973.78 219.332 Z" fill="#000000" fill-rule="evenodd" fill-opacity="1" /><path clip-path="url(#clip840)" d="M 0 0 M2001.16 209.679 L2001.16 213.661 Q1999.36 212.665 1997.53 212.179 Q1995.72 211.67 1993.87 211.67 Q1989.73 211.67 1987.44 214.309 Q1985.15 216.924 1985.15 221.67 Q1985.15 226.415 1987.44 229.054 Q1989.73 231.67 1993.87 231.67 Q1995.72 231.67 1997.53 231.184 Q1999.36 230.674 2001.16 229.679 L2001.16 233.614 Q1999.38 234.448 1997.46 234.864 Q1995.56 235.281 1993.41 235.281 Q1987.55 235.281 1984.1 231.6 Q1980.65 227.92 1980.65 221.67 Q1980.65 215.327 1984.13 211.693 Q1987.62 208.059 1993.69 208.059 Q1995.65 208.059 1997.53 208.475 Q1999.4 208.869 2001.16 209.679 Z" fill="#000000" fill-rule="evenodd" fill-opacity="1" /><path clip-path="url(#clip840)" d="M 0 0 M2009.84 201.323 L2009.84 208.684 L2018.62 208.684 L2018.62 211.994 L2009.84 211.994 L2009.84 226.068 Q2009.84 229.239 2010.7 230.142 Q2011.58 231.045 2014.24 231.045 L2018.62 231.045 L2018.62 234.61 L2014.24 234.61 Q2009.31 234.61 2007.44 232.781 Q2005.56 230.929 2005.56 226.068 L2005.56 211.994 L2002.44 211.994 L2002.44 208.684 L2005.56 208.684 L2005.56 201.323 L2009.84 201.323 Z" fill="#000000" fill-rule="evenodd" fill-opacity="1" /><path clip-path="url(#clip840)" d="M 0 0 M2023.08 208.684 L2027.34 208.684 L2027.34 234.61 L2023.08 234.61 L2023.08 208.684 M2023.08 198.591 L2027.34 198.591 L2027.34 203.985 L2023.08 203.985 L2023.08 198.591 Z" fill="#000000" fill-rule="evenodd" fill-opacity="1" /><path clip-path="url(#clip840)" d="M 0 0 M2041.86 211.67 Q2038.43 211.67 2036.44 214.355 Q2034.45 217.017 2034.45 221.67 Q2034.45 226.323 2036.42 229.008 Q2038.41 231.67 2041.86 231.67 Q2045.26 231.67 2047.25 228.985 Q2049.24 226.299 2049.24 221.67 Q2049.24 217.063 2047.25 214.378 Q2045.26 211.67 2041.86 211.67 M2041.86 208.059 Q2047.41 208.059 2050.58 211.67 Q2053.76 215.281 2053.76 221.67 Q2053.76 228.036 2050.58 231.67 Q2047.41 235.281 2041.86 235.281 Q2036.28 235.281 2033.11 231.67 Q2029.96 228.036 2029.96 221.67 Q2029.96 215.281 2033.11 211.67 Q2036.28 208.059 2041.86 208.059 Z" fill="#000000" fill-rule="evenodd" fill-opacity="1" /><path clip-path="url(#clip840)" d="M 0 0 M2079.77 218.961 L2079.77 234.61 L2075.52 234.61 L2075.52 219.1 Q2075.52 215.42 2074.08 213.591 Q2072.64 211.762 2069.77 211.762 Q2066.33 211.762 2064.33 213.962 Q2062.34 216.161 2062.34 219.957 L2062.34 234.61 L2058.06 234.61 L2058.06 208.684 L2062.34 208.684 L2062.34 212.712 Q2063.87 210.374 2065.93 209.216 Q2068.02 208.059 2070.72 208.059 Q2075.19 208.059 2077.48 210.837 Q2079.77 213.591 2079.77 218.961 Z" fill="#000000" fill-rule="evenodd" fill-opacity="1" /><path clip-path="url(#clip840)" d="M 0 0 M2114.33 212.665 Q2113.62 212.249 2112.76 212.063 Q2111.93 211.855 2110.91 211.855 Q2107.3 211.855 2105.35 214.216 Q2103.43 216.554 2103.43 220.952 L2103.43 234.61 L2099.15 234.61 L2099.15 208.684 L2103.43 208.684 L2103.43 212.712 Q2104.77 210.35 2106.93 209.216 Q2109.08 208.059 2112.16 208.059 Q2112.6 208.059 2113.13 208.128 Q2113.66 208.175 2114.31 208.29 L2114.33 212.665 Z" fill="#000000" fill-rule="evenodd" fill-opacity="1" /><path clip-path="url(#clip840)" d="M 0 0 M2139.94 220.582 L2139.94 222.665 L2120.35 222.665 Q2120.63 227.063 2122.99 229.378 Q2125.38 231.67 2129.61 231.67 Q2132.07 231.67 2134.36 231.068 Q2136.67 230.466 2138.94 229.262 L2138.94 233.29 Q2136.65 234.262 2134.24 234.772 Q2131.83 235.281 2129.36 235.281 Q2123.15 235.281 2119.52 231.67 Q2115.91 228.059 2115.91 221.901 Q2115.91 215.536 2119.33 211.809 Q2122.78 208.059 2128.62 208.059 Q2133.85 208.059 2136.88 211.438 Q2139.94 214.795 2139.94 220.582 M2135.68 219.332 Q2135.63 215.837 2133.71 213.753 Q2131.81 211.67 2128.66 211.67 Q2125.1 211.67 2122.95 213.684 Q2120.82 215.698 2120.49 219.355 L2135.68 219.332 Z" fill="#000000" fill-rule="evenodd" fill-opacity="1" /><path clip-path="url(#clip840)" d="M 0 0 M2161.46 221.346 Q2161.46 216.716 2159.54 214.17 Q2157.64 211.624 2154.2 211.624 Q2150.77 211.624 2148.85 214.17 Q2146.95 216.716 2146.95 221.346 Q2146.95 225.952 2148.85 228.498 Q2150.77 231.045 2154.2 231.045 Q2157.64 231.045 2159.54 228.498 Q2161.46 225.952 2161.46 221.346 M2165.72 231.392 Q2165.72 238.012 2162.78 241.23 Q2159.84 244.471 2153.78 244.471 Q2151.53 244.471 2149.54 244.123 Q2147.55 243.799 2145.68 243.105 L2145.68 238.961 Q2147.55 239.98 2149.38 240.466 Q2151.21 240.952 2153.11 240.952 Q2157.3 240.952 2159.38 238.753 Q2161.46 236.577 2161.46 232.156 L2161.46 230.049 Q2160.14 232.341 2158.08 233.475 Q2156.02 234.61 2153.15 234.61 Q2148.39 234.61 2145.47 230.975 Q2142.55 227.341 2142.55 221.346 Q2142.55 215.327 2145.47 211.693 Q2148.39 208.059 2153.15 208.059 Q2156.02 208.059 2158.08 209.193 Q2160.14 210.327 2161.46 212.619 L2161.46 208.684 L2165.72 208.684 L2165.72 231.392 Z" fill="#000000" fill-rule="evenodd" fill-opacity="1" /><path clip-path="url(#clip840)" d="M 0 0 M2170.19 208.684 L2174.45 208.684 L2174.45 234.61 L2170.19 234.61 L2170.19 208.684 M2170.19 198.591 L2174.45 198.591 L2174.45 203.985 L2170.19 203.985 L2170.19 198.591 Z" fill="#000000" fill-rule="evenodd" fill-opacity="1" /><path clip-path="url(#clip840)" d="M 0 0 M2188.96 211.67 Q2185.54 211.67 2183.55 214.355 Q2181.56 217.017 2181.56 221.67 Q2181.56 226.323 2183.52 229.008 Q2185.51 231.67 2188.96 231.67 Q2192.37 231.67 2194.36 228.985 Q2196.35 226.299 2196.35 221.67 Q2196.35 217.063 2194.36 214.378 Q2192.37 211.67 2188.96 211.67 M2188.96 208.059 Q2194.52 208.059 2197.69 211.67 Q2200.86 215.281 2200.86 221.67 Q2200.86 228.036 2197.69 231.67 Q2194.52 235.281 2188.96 235.281 Q2183.39 235.281 2180.21 231.67 Q2177.07 228.036 2177.07 221.67 Q2177.07 215.281 2180.21 211.67 Q2183.39 208.059 2188.96 208.059 Z" fill="#000000" fill-rule="evenodd" fill-opacity="1" /><path clip-path="url(#clip840)" d="M 0 0 M2226.88 218.961 L2226.88 234.61 L2222.62 234.61 L2222.62 219.1 Q2222.62 215.42 2221.19 213.591 Q2219.75 211.762 2216.88 211.762 Q2213.43 211.762 2211.44 213.962 Q2209.45 216.161 2209.45 219.957 L2209.45 234.61 L2205.17 234.61 L2205.17 208.684 L2209.45 208.684 L2209.45 212.712 Q2210.98 210.374 2213.04 209.216 Q2215.12 208.059 2217.83 208.059 Q2222.3 208.059 2224.59 210.837 Q2226.88 213.591 2226.88 218.961 Z" fill="#000000" fill-rule="evenodd" fill-opacity="1" /><path clip-path="url(#clip840)" d="
M1519.75 302.002 L1670.81 302.002 L1670.81 253.618 L1519.75 253.618 L1519.75 302.002  Z
  " fill="#ffa500" fill-rule="evenodd" fill-opacity="0.5"/>
<polyline clip-path="url(#clip840)" style="stroke:#ffa500; stroke-width:4; stroke-opacity:1; fill:none" points="
  1519.75,253.618 1670.81,253.618 
  "/>
<path clip-path="url(#clip840)" d="M 0 0 M1700.38 282.15 Q1700.38 286.849 1702.3 289.534 Q1704.24 292.196 1707.62 292.196 Q1711 292.196 1712.95 289.534 Q1714.89 286.849 1714.89 282.15 Q1714.89 277.451 1712.95 274.789 Q1711 272.104 1707.62 272.104 Q1704.24 272.104 1702.3 274.789 Q1700.38 277.451 1700.38 282.15 M1714.89 291.201 Q1713.55 293.515 1711.49 294.65 Q1709.45 295.761 1706.58 295.761 Q1701.88 295.761 1698.92 292.011 Q1695.98 288.261 1695.98 282.15 Q1695.98 276.039 1698.92 272.289 Q1701.88 268.539 1706.58 268.539 Q1709.45 268.539 1711.49 269.673 Q1713.55 270.784 1714.89 273.099 L1714.89 269.164 L1719.15 269.164 L1719.15 304.951 L1714.89 304.951 L1714.89 291.201 Z" fill="#000000" fill-rule="evenodd" fill-opacity="1" /><path clip-path="url(#clip840)" d="M 0 0 M1724.36 294.372 L1724.36 290.113 Q1726.12 290.946 1727.92 291.386 Q1729.73 291.826 1731.47 291.826 Q1736.1 291.826 1738.53 288.724 Q1740.98 285.599 1741.33 279.256 Q1739.98 281.247 1737.92 282.312 Q1735.86 283.377 1733.36 283.377 Q1728.18 283.377 1725.15 280.252 Q1722.14 277.104 1722.14 271.664 Q1722.14 266.34 1725.29 263.122 Q1728.43 259.905 1733.67 259.905 Q1739.66 259.905 1742.81 264.511 Q1745.98 269.094 1745.98 277.844 Q1745.98 286.016 1742.09 290.9 Q1738.23 295.761 1731.67 295.761 Q1729.92 295.761 1728.11 295.414 Q1726.3 295.066 1724.36 294.372 M1733.67 279.719 Q1736.81 279.719 1738.64 277.566 Q1740.49 275.414 1740.49 271.664 Q1740.49 267.937 1738.64 265.784 Q1736.81 263.608 1733.67 263.608 Q1730.52 263.608 1728.67 265.784 Q1726.84 267.937 1726.84 271.664 Q1726.84 275.414 1728.67 277.566 Q1730.52 279.719 1733.67 279.719 Z" fill="#000000" fill-rule="evenodd" fill-opacity="1" /><path clip-path="url(#clip840)" d="M 0 0 M1751.1 260.53 L1769.45 260.53 L1769.45 264.465 L1755.38 264.465 L1755.38 272.937 Q1756.4 272.59 1757.42 272.428 Q1758.43 272.242 1759.45 272.242 Q1765.24 272.242 1768.62 275.414 Q1772 278.585 1772 284.002 Q1772 289.58 1768.53 292.682 Q1765.05 295.761 1758.73 295.761 Q1756.56 295.761 1754.29 295.39 Q1752.04 295.02 1749.64 294.279 L1749.64 289.58 Q1751.72 290.715 1753.94 291.27 Q1756.17 291.826 1758.64 291.826 Q1762.65 291.826 1764.98 289.719 Q1767.32 287.613 1767.32 284.002 Q1767.32 280.391 1764.98 278.284 Q1762.65 276.178 1758.64 276.178 Q1756.77 276.178 1754.89 276.594 Q1753.04 277.011 1751.1 277.891 L1751.1 260.53 Z" fill="#000000" fill-rule="evenodd" fill-opacity="1" /><polyline clip-path="url(#clip840)" style="stroke:#0000ff; stroke-width:4; stroke-opacity:1; fill:none" points="
  1519.75,338.29 1670.81,338.29 
  "/>
<path clip-path="url(#clip840)" d="M 0 0 M1716.33 334.621 Q1717.92 331.75 1720.15 330.385 Q1722.37 329.019 1725.38 329.019 Q1729.43 329.019 1731.63 331.866 Q1733.83 334.69 1733.83 339.921 L1733.83 355.57 L1729.54 355.57 L1729.54 340.06 Q1729.54 336.334 1728.23 334.528 Q1726.91 332.722 1724.2 332.722 Q1720.89 332.722 1718.97 334.922 Q1717.04 337.121 1717.04 340.917 L1717.04 355.57 L1712.76 355.57 L1712.76 340.06 Q1712.76 336.31 1711.44 334.528 Q1710.12 332.722 1707.37 332.722 Q1704.11 332.722 1702.18 334.945 Q1700.26 337.144 1700.26 340.917 L1700.26 355.57 L1695.98 355.57 L1695.98 329.644 L1700.26 329.644 L1700.26 333.672 Q1701.72 331.287 1703.76 330.153 Q1705.79 329.019 1708.6 329.019 Q1711.42 329.019 1713.39 330.454 Q1715.38 331.889 1716.33 334.621 Z" fill="#000000" fill-rule="evenodd" fill-opacity="1" /><path clip-path="url(#clip840)" d="M 0 0 M1760.47 341.542 L1760.47 343.625 L1740.89 343.625 Q1741.17 348.023 1743.53 350.338 Q1745.91 352.63 1750.15 352.63 Q1752.6 352.63 1754.89 352.028 Q1757.21 351.426 1759.48 350.222 L1759.48 354.25 Q1757.18 355.222 1754.78 355.732 Q1752.37 356.241 1749.89 356.241 Q1743.69 356.241 1740.05 352.63 Q1736.44 349.019 1736.44 342.861 Q1736.44 336.496 1739.87 332.769 Q1743.32 329.019 1749.15 329.019 Q1754.38 329.019 1757.42 332.398 Q1760.47 335.755 1760.47 341.542 M1756.21 340.292 Q1756.17 336.797 1754.24 334.713 Q1752.35 332.63 1749.2 332.63 Q1745.63 332.63 1743.48 334.644 Q1741.35 336.658 1741.03 340.315 L1756.21 340.292 Z" fill="#000000" fill-rule="evenodd" fill-opacity="1" /><path clip-path="url(#clip840)" d="M 0 0 M1776.72 342.537 Q1771.56 342.537 1769.57 343.718 Q1767.58 344.898 1767.58 347.746 Q1767.58 350.014 1769.06 351.357 Q1770.56 352.676 1773.13 352.676 Q1776.67 352.676 1778.8 350.176 Q1780.96 347.653 1780.96 343.486 L1780.96 342.537 L1776.72 342.537 M1785.22 340.778 L1785.22 355.57 L1780.96 355.57 L1780.96 351.634 Q1779.5 353.995 1777.32 355.13 Q1775.15 356.241 1772 356.241 Q1768.02 356.241 1765.66 354.019 Q1763.32 351.773 1763.32 348.023 Q1763.32 343.648 1766.23 341.426 Q1769.17 339.204 1774.98 339.204 L1780.96 339.204 L1780.96 338.787 Q1780.96 335.847 1779.01 334.25 Q1777.09 332.63 1773.6 332.63 Q1771.37 332.63 1769.27 333.162 Q1767.16 333.695 1765.22 334.759 L1765.22 330.824 Q1767.55 329.922 1769.75 329.482 Q1771.95 329.019 1774.04 329.019 Q1779.66 329.019 1782.44 331.935 Q1785.22 334.852 1785.22 340.778 Z" fill="#000000" fill-rule="evenodd" fill-opacity="1" /><path clip-path="url(#clip840)" d="M 0 0 M1811.23 339.921 L1811.23 355.57 L1806.97 355.57 L1806.97 340.06 Q1806.97 336.38 1805.54 334.551 Q1804.1 332.722 1801.23 332.722 Q1797.79 332.722 1795.79 334.922 Q1793.8 337.121 1793.8 340.917 L1793.8 355.57 L1789.52 355.57 L1789.52 329.644 L1793.8 329.644 L1793.8 333.672 Q1795.33 331.334 1797.39 330.176 Q1799.48 329.019 1802.18 329.019 Q1806.65 329.019 1808.94 331.797 Q1811.23 334.551 1811.23 339.921 Z" fill="#000000" fill-rule="evenodd" fill-opacity="1" /><polyline clip-path="url(#clip840)" style="stroke:#000000; stroke-width:4; stroke-opacity:1; fill:none" points="
  1519.75,398.77 1670.81,398.77 
  "/>
<path clip-path="url(#clip840)" d="M 0 0 M1716.33 395.101 Q1717.92 392.23 1720.15 390.865 Q1722.37 389.499 1725.38 389.499 Q1729.43 389.499 1731.63 392.346 Q1733.83 395.17 1733.83 400.401 L1733.83 416.05 L1729.54 416.05 L1729.54 400.54 Q1729.54 396.814 1728.23 395.008 Q1726.91 393.202 1724.2 393.202 Q1720.89 393.202 1718.97 395.402 Q1717.04 397.601 1717.04 401.397 L1717.04 416.05 L1712.76 416.05 L1712.76 400.54 Q1712.76 396.79 1711.44 395.008 Q1710.12 393.202 1707.37 393.202 Q1704.11 393.202 1702.18 395.425 Q1700.26 397.624 1700.26 401.397 L1700.26 416.05 L1695.98 416.05 L1695.98 390.124 L1700.26 390.124 L1700.26 394.152 Q1701.72 391.767 1703.76 390.633 Q1705.79 389.499 1708.6 389.499 Q1711.42 389.499 1713.39 390.934 Q1715.38 392.369 1716.33 395.101 Z" fill="#000000" fill-rule="evenodd" fill-opacity="1" /><path clip-path="url(#clip840)" d="M 0 0 M1760.47 402.022 L1760.47 404.105 L1740.89 404.105 Q1741.17 408.503 1743.53 410.818 Q1745.91 413.11 1750.15 413.11 Q1752.6 413.11 1754.89 412.508 Q1757.21 411.906 1759.48 410.702 L1759.48 414.73 Q1757.18 415.702 1754.78 416.212 Q1752.37 416.721 1749.89 416.721 Q1743.69 416.721 1740.05 413.11 Q1736.44 409.499 1736.44 403.341 Q1736.44 396.976 1739.87 393.249 Q1743.32 389.499 1749.15 389.499 Q1754.38 389.499 1757.42 392.878 Q1760.47 396.235 1760.47 402.022 M1756.21 400.772 Q1756.17 397.277 1754.24 395.193 Q1752.35 393.11 1749.2 393.11 Q1745.63 393.11 1743.48 395.124 Q1741.35 397.138 1741.03 400.795 L1756.21 400.772 Z" fill="#000000" fill-rule="evenodd" fill-opacity="1" /><path clip-path="url(#clip840)" d="M 0 0 M1782 394.059 L1782 380.031 L1786.26 380.031 L1786.26 416.05 L1782 416.05 L1782 412.161 Q1780.66 414.475 1778.6 415.61 Q1776.56 416.721 1773.69 416.721 Q1768.99 416.721 1766.03 412.971 Q1763.09 409.221 1763.09 403.11 Q1763.09 396.999 1766.03 393.249 Q1768.99 389.499 1773.69 389.499 Q1776.56 389.499 1778.6 390.633 Q1780.66 391.744 1782 394.059 M1767.48 403.11 Q1767.48 407.809 1769.41 410.494 Q1771.35 413.156 1774.73 413.156 Q1778.11 413.156 1780.05 410.494 Q1782 407.809 1782 403.11 Q1782 398.411 1780.05 395.749 Q1778.11 393.064 1774.73 393.064 Q1771.35 393.064 1769.41 395.749 Q1767.48 398.411 1767.48 403.11 Z" fill="#000000" fill-rule="evenodd" fill-opacity="1" /><path clip-path="url(#clip840)" d="M 0 0 M1790.73 390.124 L1794.98 390.124 L1794.98 416.05 L1790.73 416.05 L1790.73 390.124 M1790.73 380.031 L1794.98 380.031 L1794.98 385.425 L1790.73 385.425 L1790.73 380.031 Z" fill="#000000" fill-rule="evenodd" fill-opacity="1" /><path clip-path="url(#clip840)" d="M 0 0 M1811.23 403.017 Q1806.07 403.017 1804.08 404.198 Q1802.09 405.378 1802.09 408.226 Q1802.09 410.494 1803.57 411.837 Q1805.08 413.156 1807.65 413.156 Q1811.19 413.156 1813.32 410.656 Q1815.47 408.133 1815.47 403.966 L1815.47 403.017 L1811.23 403.017 M1819.73 401.258 L1819.73 416.05 L1815.47 416.05 L1815.47 412.114 Q1814.01 414.475 1811.84 415.61 Q1809.66 416.721 1806.51 416.721 Q1802.53 416.721 1800.17 414.499 Q1797.83 412.253 1797.83 408.503 Q1797.83 404.128 1800.75 401.906 Q1803.69 399.684 1809.5 399.684 L1815.47 399.684 L1815.47 399.267 Q1815.47 396.327 1813.53 394.73 Q1811.6 393.11 1808.11 393.11 Q1805.89 393.11 1803.78 393.642 Q1801.67 394.175 1799.73 395.239 L1799.73 391.304 Q1802.07 390.402 1804.27 389.962 Q1806.47 389.499 1808.55 389.499 Q1814.17 389.499 1816.95 392.415 Q1819.73 395.332 1819.73 401.258 Z" fill="#000000" fill-rule="evenodd" fill-opacity="1" /><path clip-path="url(#clip840)" d="M 0 0 M1845.75 400.401 L1845.75 416.05 L1841.49 416.05 L1841.49 400.54 Q1841.49 396.86 1840.05 395.031 Q1838.62 393.202 1835.75 393.202 Q1832.3 393.202 1830.31 395.402 Q1828.32 397.601 1828.32 401.397 L1828.32 416.05 L1824.04 416.05 L1824.04 390.124 L1828.32 390.124 L1828.32 394.152 Q1829.85 391.814 1831.91 390.656 Q1833.99 389.499 1836.7 389.499 Q1841.16 389.499 1843.46 392.277 Q1845.75 395.031 1845.75 400.401 Z" fill="#000000" fill-rule="evenodd" fill-opacity="1" /></svg>
