<?xml version="1.0" encoding="utf-8"?>
<svg xmlns="http://www.w3.org/2000/svg" xmlns:xlink="http://www.w3.org/1999/xlink" width="600" height="400" viewBox="0 0 2400 1600">
<defs>
  <clipPath id="clip810">
    <rect x="0" y="0" width="2400" height="1600"/>
  </clipPath>
</defs>
<path clip-path="url(#clip810)" d="
M0 1600 L2400 1600 L2400 0 L0 0  Z
  " fill="#ffffff" fill-rule="evenodd" fill-opacity="1"/>
<defs>
  <clipPath id="clip811">
    <rect x="480" y="0" width="1681" height="1600"/>
  </clipPath>
</defs>
<path clip-path="url(#clip810)" d="
M86.9921 1521.01 L2352.76 1521.01 L2352.76 47.2441 L86.9921 47.2441  Z
  " fill="#ffffff" fill-rule="evenodd" fill-opacity="1"/>
<defs>
  <clipPath id="clip812">
    <rect x="86" y="47" width="2267" height="1475"/>
  </clipPath>
</defs>
<polyline clip-path="url(#clip812)" style="stroke:#000000; stroke-width:2; stroke-opacity:0.1; fill:none" points="
  230.453,1521.01 230.453,47.2441 
  "/>
<polyline clip-path="url(#clip812)" style="stroke:#000000; stroke-width:2; stroke-opacity:0.1; fill:none" points="
  653.622,1521.01 653.622,47.2441 
  "/>
<polyline clip-path="url(#clip812)" style="stroke:#000000; stroke-width:2; stroke-opacity:0.1; fill:none" points="
  1076.79,1521.01 1076.79,47.2441 
  "/>
<polyline clip-path="url(#clip812)" style="stroke:#000000; stroke-width:2; stroke-opacity:0.1; fill:none" points="
  1499.96,1521.01 1499.96,47.2441 
  "/>
<polyline clip-path="url(#clip812)" style="stroke:#000000; stroke-width:2; stroke-opacity:0.1; fill:none" points="
  1923.13,1521.01 1923.13,47.2441 
  "/>
<polyline clip-path="url(#clip812)" style="stroke:#000000; stroke-width:2; stroke-opacity:0.1; fill:none" points="
  2346.3,1521.01 2346.3,47.2441 
  "/>
<polyline clip-path="url(#clip812)" style="stroke:#000000; stroke-width:2; stroke-opacity:0.1; fill:none" points="
  86.9921,1479.3 2352.76,1479.3 
  "/>
<polyline clip-path="url(#clip812)" style="stroke:#000000; stroke-width:2; stroke-opacity:0.1; fill:none" points="
  86.9921,1212 2352.76,1212 
  "/>
<polyline clip-path="url(#clip812)" style="stroke:#000000; stroke-width:2; stroke-opacity:0.1; fill:none" points="
  86.9921,944.709 2352.76,944.709 
  "/>
<polyline clip-path="url(#clip812)" style="stroke:#000000; stroke-width:2; stroke-opacity:0.1; fill:none" points="
  86.9921,677.414 2352.76,677.414 
  "/>
<polyline clip-path="url(#clip812)" style="stroke:#000000; stroke-width:2; stroke-opacity:0.1; fill:none" points="
  86.9921,410.12 2352.76,410.12 
  "/>
<polyline clip-path="url(#clip812)" style="stroke:#000000; stroke-width:2; stroke-opacity:0.1; fill:none" points="
  86.9921,142.825 2352.76,142.825 
  "/>
<polyline clip-path="url(#clip810)" style="stroke:#000000; stroke-width:4; stroke-opacity:1; fill:none" points="
  86.9921,1521.01 2352.76,1521.01 
  "/>
<polyline clip-path="url(#clip810)" style="stroke:#000000; stroke-width:4; stroke-opacity:1; fill:none" points="
  86.9921,1521.01 86.9921,47.2441 
  "/>
<polyline clip-path="url(#clip810)" style="stroke:#000000; stroke-width:4; stroke-opacity:1; fill:none" points="
  230.453,1521.01 230.453,1503.32 
  "/>
<polyline clip-path="url(#clip810)" style="stroke:#000000; stroke-width:4; stroke-opacity:1; fill:none" points="
  653.622,1521.01 653.622,1503.32 
  "/>
<polyline clip-path="url(#clip810)" style="stroke:#000000; stroke-width:4; stroke-opacity:1; fill:none" points="
  1076.79,1521.01 1076.79,1503.32 
  "/>
<polyline clip-path="url(#clip810)" style="stroke:#000000; stroke-width:4; stroke-opacity:1; fill:none" points="
  1499.96,1521.01 1499.96,1503.32 
  "/>
<polyline clip-path="url(#clip810)" style="stroke:#000000; stroke-width:4; stroke-opacity:1; fill:none" points="
  1923.13,1521.01 1923.13,1503.32 
  "/>
<polyline clip-path="url(#clip810)" style="stroke:#000000; stroke-width:4; stroke-opacity:1; fill:none" points="
  2346.3,1521.01 2346.3,1503.32 
  "/>
<polyline clip-path="url(#clip810)" style="stroke:#000000; stroke-width:4; stroke-opacity:1; fill:none" points="
  86.9921,1479.3 114.181,1479.3 
  "/>
<polyline clip-path="url(#clip810)" style="stroke:#000000; stroke-width:4; stroke-opacity:1; fill:none" points="
  86.9921,1212 114.181,1212 
  "/>
<polyline clip-path="url(#clip810)" style="stroke:#000000; stroke-width:4; stroke-opacity:1; fill:none" points="
  86.9921,944.709 114.181,944.709 
  "/>
<polyline clip-path="url(#clip810)" style="stroke:#000000; stroke-width:4; stroke-opacity:1; fill:none" points="
  86.9921,677.414 114.181,677.414 
  "/>
<polyline clip-path="url(#clip810)" style="stroke:#000000; stroke-width:4; stroke-opacity:1; fill:none" points="
  86.9921,410.12 114.181,410.12 
  "/>
<polyline clip-path="url(#clip810)" style="stroke:#000000; stroke-width:4; stroke-opacity:1; fill:none" points="
  86.9921,142.825 114.181,142.825 
  "/>
<path clip-path="url(#clip810)" d="M 0 0 M198.462 1543 Q194.851 1543 193.022 1546.56 Q191.217 1550.11 191.217 1557.23 Q191.217 1564.34 193.022 1567.91 Q194.851 1571.45 198.462 1571.45 Q202.096 1571.45 203.902 1567.91 Q205.731 1564.34 205.731 1557.23 Q205.731 1550.11 203.902 1546.56 Q202.096 1543 198.462 1543 M198.462 1539.29 Q204.272 1539.29 207.328 1543.9 Q210.407 1548.48 210.407 1557.23 Q210.407 1565.96 207.328 1570.57 Q204.272 1575.15 198.462 1575.15 Q192.652 1575.15 189.573 1570.57 Q186.518 1565.96 186.518 1557.23 Q186.518 1548.48 189.573 1543.9 Q192.652 1539.29 198.462 1539.29 Z" fill="#000000" fill-rule="evenodd" fill-opacity="1" /><path clip-path="url(#clip810)" d="M 0 0 M215.476 1568.6 L220.36 1568.6 L220.36 1574.48 L215.476 1574.48 L215.476 1568.6 Z" fill="#000000" fill-rule="evenodd" fill-opacity="1" /><path clip-path="url(#clip810)" d="M 0 0 M235.43 1543 Q231.818 1543 229.99 1546.56 Q228.184 1550.11 228.184 1557.23 Q228.184 1564.34 229.99 1567.91 Q231.818 1571.45 235.43 1571.45 Q239.064 1571.45 240.869 1567.91 Q242.698 1564.34 242.698 1557.23 Q242.698 1550.11 240.869 1546.56 Q239.064 1543 235.43 1543 M235.43 1539.29 Q241.24 1539.29 244.295 1543.9 Q247.374 1548.48 247.374 1557.23 Q247.374 1565.96 244.295 1570.57 Q241.24 1575.15 235.43 1575.15 Q229.619 1575.15 226.541 1570.57 Q223.485 1565.96 223.485 1557.23 Q223.485 1548.48 226.541 1543.9 Q229.619 1539.29 235.43 1539.29 Z" fill="#000000" fill-rule="evenodd" fill-opacity="1" /><path clip-path="url(#clip810)" d="M 0 0 M262.443 1543 Q258.832 1543 257.004 1546.56 Q255.198 1550.11 255.198 1557.23 Q255.198 1564.34 257.004 1567.91 Q258.832 1571.45 262.443 1571.45 Q266.078 1571.45 267.883 1567.91 Q269.712 1564.34 269.712 1557.23 Q269.712 1550.11 267.883 1546.56 Q266.078 1543 262.443 1543 M262.443 1539.29 Q268.253 1539.29 271.309 1543.9 Q274.388 1548.48 274.388 1557.23 Q274.388 1565.96 271.309 1570.57 Q268.253 1575.15 262.443 1575.15 Q256.633 1575.15 253.554 1570.57 Q250.499 1565.96 250.499 1557.23 Q250.499 1548.48 253.554 1543.9 Q256.633 1539.29 262.443 1539.29 Z" fill="#000000" fill-rule="evenodd" fill-opacity="1" /><path clip-path="url(#clip810)" d="M 0 0 M622.245 1543 Q618.634 1543 616.805 1546.56 Q615 1550.11 615 1557.23 Q615 1564.34 616.805 1567.91 Q618.634 1571.45 622.245 1571.45 Q625.879 1571.45 627.685 1567.91 Q629.513 1564.34 629.513 1557.23 Q629.513 1550.11 627.685 1546.56 Q625.879 1543 622.245 1543 M622.245 1539.29 Q628.055 1539.29 631.111 1543.9 Q634.189 1548.48 634.189 1557.23 Q634.189 1565.96 631.111 1570.57 Q628.055 1575.15 622.245 1575.15 Q616.435 1575.15 613.356 1570.57 Q610.301 1565.96 610.301 1557.23 Q610.301 1548.48 613.356 1543.9 Q616.435 1539.29 622.245 1539.29 Z" fill="#000000" fill-rule="evenodd" fill-opacity="1" /><path clip-path="url(#clip810)" d="M 0 0 M639.259 1568.6 L644.143 1568.6 L644.143 1574.48 L639.259 1574.48 L639.259 1568.6 Z" fill="#000000" fill-rule="evenodd" fill-opacity="1" /><path clip-path="url(#clip810)" d="M 0 0 M659.212 1543 Q655.601 1543 653.773 1546.56 Q651.967 1550.11 651.967 1557.23 Q651.967 1564.34 653.773 1567.91 Q655.601 1571.45 659.212 1571.45 Q662.847 1571.45 664.652 1567.91 Q666.481 1564.34 666.481 1557.23 Q666.481 1550.11 664.652 1546.56 Q662.847 1543 659.212 1543 M659.212 1539.29 Q665.022 1539.29 668.078 1543.9 Q671.157 1548.48 671.157 1557.23 Q671.157 1565.96 668.078 1570.57 Q665.022 1575.15 659.212 1575.15 Q653.402 1575.15 650.323 1570.57 Q647.268 1565.96 647.268 1557.23 Q647.268 1548.48 650.323 1543.9 Q653.402 1539.29 659.212 1539.29 Z" fill="#000000" fill-rule="evenodd" fill-opacity="1" /><path clip-path="url(#clip810)" d="M 0 0 M677.036 1570.54 L684.675 1570.54 L684.675 1544.18 L676.365 1545.85 L676.365 1541.59 L684.629 1539.92 L689.305 1539.92 L689.305 1570.54 L696.944 1570.54 L696.944 1574.48 L677.036 1574.48 L677.036 1570.54 Z" fill="#000000" fill-rule="evenodd" fill-opacity="1" /><path clip-path="url(#clip810)" d="M 0 0 M1045.6 1543 Q1041.99 1543 1040.16 1546.56 Q1038.35 1550.11 1038.35 1557.23 Q1038.35 1564.34 1040.16 1567.91 Q1041.99 1571.45 1045.6 1571.45 Q1049.23 1571.45 1051.04 1567.91 Q1052.87 1564.34 1052.87 1557.23 Q1052.87 1550.11 1051.04 1546.56 Q1049.23 1543 1045.6 1543 M1045.6 1539.29 Q1051.41 1539.29 1054.47 1543.9 Q1057.54 1548.48 1057.54 1557.23 Q1057.54 1565.96 1054.47 1570.57 Q1051.41 1575.15 1045.6 1575.15 Q1039.79 1575.15 1036.71 1570.57 Q1033.65 1565.96 1033.65 1557.23 Q1033.65 1548.48 1036.71 1543.9 Q1039.79 1539.29 1045.6 1539.29 Z" fill="#000000" fill-rule="evenodd" fill-opacity="1" /><path clip-path="url(#clip810)" d="M 0 0 M1062.61 1568.6 L1067.5 1568.6 L1067.5 1574.48 L1062.61 1574.48 L1062.61 1568.6 Z" fill="#000000" fill-rule="evenodd" fill-opacity="1" /><path clip-path="url(#clip810)" d="M 0 0 M1082.57 1543 Q1078.96 1543 1077.13 1546.56 Q1075.32 1550.11 1075.32 1557.23 Q1075.32 1564.34 1077.13 1567.91 Q1078.96 1571.45 1082.57 1571.45 Q1086.2 1571.45 1088.01 1567.91 Q1089.84 1564.34 1089.84 1557.23 Q1089.84 1550.11 1088.01 1546.56 Q1086.2 1543 1082.57 1543 M1082.57 1539.29 Q1088.38 1539.29 1091.43 1543.9 Q1094.51 1548.48 1094.51 1557.23 Q1094.51 1565.96 1091.43 1570.57 Q1088.38 1575.15 1082.57 1575.15 Q1076.76 1575.15 1073.68 1570.57 Q1070.62 1565.96 1070.62 1557.23 Q1070.62 1548.48 1073.68 1543.9 Q1076.76 1539.29 1082.57 1539.29 Z" fill="#000000" fill-rule="evenodd" fill-opacity="1" /><path clip-path="url(#clip810)" d="M 0 0 M1103.61 1570.54 L1119.93 1570.54 L1119.93 1574.48 L1097.98 1574.48 L1097.98 1570.54 Q1100.65 1567.79 1105.23 1563.16 Q1109.84 1558.51 1111.02 1557.17 Q1113.26 1554.64 1114.14 1552.91 Q1115.04 1551.15 1115.04 1549.46 Q1115.04 1546.7 1113.1 1544.97 Q1111.18 1543.23 1108.08 1543.23 Q1105.88 1543.23 1103.42 1543.99 Q1100.99 1544.76 1098.21 1546.31 L1098.21 1541.59 Q1101.04 1540.45 1103.49 1539.87 Q1105.95 1539.29 1107.98 1539.29 Q1113.35 1539.29 1116.55 1541.98 Q1119.74 1544.67 1119.74 1549.16 Q1119.74 1551.29 1118.93 1553.21 Q1118.15 1555.1 1116.04 1557.7 Q1115.46 1558.37 1112.36 1561.59 Q1109.26 1564.78 1103.61 1570.54 Z" fill="#000000" fill-rule="evenodd" fill-opacity="1" /><path clip-path="url(#clip810)" d="M 0 0 M1468.29 1543 Q1464.68 1543 1462.85 1546.56 Q1461.05 1550.11 1461.05 1557.23 Q1461.05 1564.34 1462.85 1567.91 Q1464.68 1571.45 1468.29 1571.45 Q1471.93 1571.45 1473.73 1567.91 Q1475.56 1564.34 1475.56 1557.23 Q1475.56 1550.11 1473.73 1546.56 Q1471.93 1543 1468.29 1543 M1468.29 1539.29 Q1474.1 1539.29 1477.16 1543.9 Q1480.24 1548.48 1480.24 1557.23 Q1480.24 1565.96 1477.16 1570.57 Q1474.1 1575.15 1468.29 1575.15 Q1462.48 1575.15 1459.41 1570.57 Q1456.35 1565.96 1456.35 1557.23 Q1456.35 1548.48 1459.41 1543.9 Q1462.48 1539.29 1468.29 1539.29 Z" fill="#000000" fill-rule="evenodd" fill-opacity="1" /><path clip-path="url(#clip810)" d="M 0 0 M1485.31 1568.6 L1490.19 1568.6 L1490.19 1574.48 L1485.31 1574.48 L1485.31 1568.6 Z" fill="#000000" fill-rule="evenodd" fill-opacity="1" /><path clip-path="url(#clip810)" d="M 0 0 M1505.26 1543 Q1501.65 1543 1499.82 1546.56 Q1498.02 1550.11 1498.02 1557.23 Q1498.02 1564.34 1499.82 1567.91 Q1501.65 1571.45 1505.26 1571.45 Q1508.9 1571.45 1510.7 1567.91 Q1512.53 1564.34 1512.53 1557.23 Q1512.53 1550.11 1510.7 1546.56 Q1508.9 1543 1505.26 1543 M1505.26 1539.29 Q1511.07 1539.29 1514.13 1543.9 Q1517.21 1548.48 1517.21 1557.23 Q1517.21 1565.96 1514.13 1570.57 Q1511.07 1575.15 1505.26 1575.15 Q1499.45 1575.15 1496.37 1570.57 Q1493.32 1565.96 1493.32 1557.23 Q1493.32 1548.48 1496.37 1543.9 Q1499.45 1539.29 1505.26 1539.29 Z" fill="#000000" fill-rule="evenodd" fill-opacity="1" /><path clip-path="url(#clip810)" d="M 0 0 M1536.44 1555.85 Q1539.8 1556.56 1541.67 1558.83 Q1543.57 1561.1 1543.57 1564.43 Q1543.57 1569.55 1540.05 1572.35 Q1536.53 1575.15 1530.05 1575.15 Q1527.88 1575.15 1525.56 1574.71 Q1523.27 1574.29 1520.82 1573.44 L1520.82 1568.92 Q1522.76 1570.06 1525.08 1570.64 Q1527.39 1571.22 1529.91 1571.22 Q1534.31 1571.22 1536.6 1569.48 Q1538.92 1567.74 1538.92 1564.43 Q1538.92 1561.38 1536.77 1559.67 Q1534.64 1557.93 1530.82 1557.93 L1526.79 1557.93 L1526.79 1554.09 L1531 1554.09 Q1534.45 1554.09 1536.28 1552.72 Q1538.11 1551.33 1538.11 1548.74 Q1538.11 1546.08 1536.21 1544.67 Q1534.34 1543.23 1530.82 1543.23 Q1528.9 1543.23 1526.7 1543.65 Q1524.5 1544.06 1521.86 1544.94 L1521.86 1540.78 Q1524.52 1540.04 1526.84 1539.67 Q1529.17 1539.29 1531.23 1539.29 Q1536.56 1539.29 1539.66 1541.73 Q1542.76 1544.13 1542.76 1548.25 Q1542.76 1551.12 1541.12 1553.11 Q1539.47 1555.08 1536.44 1555.85 Z" fill="#000000" fill-rule="evenodd" fill-opacity="1" /><path clip-path="url(#clip810)" d="M 0 0 M1890.9 1543 Q1887.29 1543 1885.46 1546.56 Q1883.65 1550.11 1883.65 1557.23 Q1883.65 1564.34 1885.46 1567.91 Q1887.29 1571.45 1890.9 1571.45 Q1894.53 1571.45 1896.34 1567.91 Q1898.16 1564.34 1898.16 1557.23 Q1898.16 1550.11 1896.34 1546.56 Q1894.53 1543 1890.9 1543 M1890.9 1539.29 Q1896.71 1539.29 1899.76 1543.9 Q1902.84 1548.48 1902.84 1557.23 Q1902.84 1565.96 1899.76 1570.57 Q1896.71 1575.15 1890.9 1575.15 Q1885.09 1575.15 1882.01 1570.57 Q1878.95 1565.96 1878.95 1557.23 Q1878.95 1548.48 1882.01 1543.9 Q1885.09 1539.29 1890.9 1539.29 Z" fill="#000000" fill-rule="evenodd" fill-opacity="1" /><path clip-path="url(#clip810)" d="M 0 0 M1907.91 1568.6 L1912.79 1568.6 L1912.79 1574.48 L1907.91 1574.48 L1907.91 1568.6 Z" fill="#000000" fill-rule="evenodd" fill-opacity="1" /><path clip-path="url(#clip810)" d="M 0 0 M1927.86 1543 Q1924.25 1543 1922.42 1546.56 Q1920.62 1550.11 1920.62 1557.23 Q1920.62 1564.34 1922.42 1567.91 Q1924.25 1571.45 1927.86 1571.45 Q1931.5 1571.45 1933.3 1567.91 Q1935.13 1564.34 1935.13 1557.23 Q1935.13 1550.11 1933.3 1546.56 Q1931.5 1543 1927.86 1543 M1927.86 1539.29 Q1933.67 1539.29 1936.73 1543.9 Q1939.81 1548.48 1939.81 1557.23 Q1939.81 1565.96 1936.73 1570.57 Q1933.67 1575.15 1927.86 1575.15 Q1922.05 1575.15 1918.97 1570.57 Q1915.92 1565.96 1915.92 1557.23 Q1915.92 1548.48 1918.97 1543.9 Q1922.05 1539.29 1927.86 1539.29 Z" fill="#000000" fill-rule="evenodd" fill-opacity="1" /><path clip-path="url(#clip810)" d="M 0 0 M1957.72 1543.99 L1945.92 1562.44 L1957.72 1562.44 L1957.72 1543.99 M1956.5 1539.92 L1962.38 1539.92 L1962.38 1562.44 L1967.31 1562.44 L1967.31 1566.33 L1962.38 1566.33 L1962.38 1574.48 L1957.72 1574.48 L1957.72 1566.33 L1942.12 1566.33 L1942.12 1561.82 L1956.5 1539.92 Z" fill="#000000" fill-rule="evenodd" fill-opacity="1" /><path clip-path="url(#clip810)" d="M 0 0 M2314.81 1543 Q2311.2 1543 2309.37 1546.56 Q2307.56 1550.11 2307.56 1557.23 Q2307.56 1564.34 2309.37 1567.91 Q2311.2 1571.45 2314.81 1571.45 Q2318.44 1571.45 2320.25 1567.91 Q2322.07 1564.34 2322.07 1557.23 Q2322.07 1550.11 2320.25 1546.56 Q2318.44 1543 2314.81 1543 M2314.81 1539.29 Q2320.62 1539.29 2323.67 1543.9 Q2326.75 1548.48 2326.75 1557.23 Q2326.75 1565.96 2323.67 1570.57 Q2320.62 1575.15 2314.81 1575.15 Q2309 1575.15 2305.92 1570.57 Q2302.86 1565.96 2302.86 1557.23 Q2302.86 1548.48 2305.92 1543.9 Q2309 1539.29 2314.81 1539.29 Z" fill="#000000" fill-rule="evenodd" fill-opacity="1" /><path clip-path="url(#clip810)" d="M 0 0 M2331.82 1568.6 L2336.7 1568.6 L2336.7 1574.48 L2331.82 1574.48 L2331.82 1568.6 Z" fill="#000000" fill-rule="evenodd" fill-opacity="1" /><path clip-path="url(#clip810)" d="M 0 0 M2351.77 1543 Q2348.16 1543 2346.33 1546.56 Q2344.53 1550.11 2344.53 1557.23 Q2344.53 1564.34 2346.33 1567.91 Q2348.16 1571.45 2351.77 1571.45 Q2355.41 1571.45 2357.21 1567.91 Q2359.04 1564.34 2359.04 1557.23 Q2359.04 1550.11 2357.21 1546.56 Q2355.41 1543 2351.77 1543 M2351.77 1539.29 Q2357.58 1539.29 2360.64 1543.9 Q2363.72 1548.48 2363.72 1557.23 Q2363.72 1565.96 2360.64 1570.57 Q2357.58 1575.15 2351.77 1575.15 Q2345.96 1575.15 2342.88 1570.57 Q2339.83 1565.96 2339.83 1557.23 Q2339.83 1548.48 2342.88 1543.9 Q2345.96 1539.29 2351.77 1539.29 Z" fill="#000000" fill-rule="evenodd" fill-opacity="1" /><path clip-path="url(#clip810)" d="M 0 0 M2368.83 1539.92 L2387.19 1539.92 L2387.19 1543.86 L2373.12 1543.86 L2373.12 1552.33 Q2374.13 1551.98 2375.15 1551.82 Q2376.17 1551.63 2377.19 1551.63 Q2382.98 1551.63 2386.36 1554.8 Q2389.74 1557.98 2389.74 1563.39 Q2389.74 1568.97 2386.26 1572.07 Q2382.79 1575.15 2376.47 1575.15 Q2374.3 1575.15 2372.03 1574.78 Q2369.78 1574.41 2367.38 1573.67 L2367.38 1568.97 Q2369.46 1570.1 2371.68 1570.66 Q2373.9 1571.22 2376.38 1571.22 Q2380.38 1571.22 2382.72 1569.11 Q2385.06 1567 2385.06 1563.39 Q2385.06 1559.78 2382.72 1557.67 Q2380.38 1555.57 2376.38 1555.57 Q2374.51 1555.57 2372.63 1555.98 Q2370.78 1556.4 2368.83 1557.28 L2368.83 1539.92 Z" fill="#000000" fill-rule="evenodd" fill-opacity="1" /><path clip-path="url(#clip810)" d="M 0 0 M51.0477 1465.1 Q47.4367 1465.1 45.608 1468.66 Q43.8024 1472.2 43.8024 1479.33 Q43.8024 1486.44 45.608 1490 Q47.4367 1493.55 51.0477 1493.55 Q54.682 1493.55 56.4875 1490 Q58.3162 1486.44 58.3162 1479.33 Q58.3162 1472.2 56.4875 1468.66 Q54.682 1465.1 51.0477 1465.1 M51.0477 1461.39 Q56.8579 1461.39 59.9134 1466 Q62.9921 1470.58 62.9921 1479.33 Q62.9921 1488.06 59.9134 1492.67 Q56.8579 1497.25 51.0477 1497.25 Q45.2376 1497.25 42.1589 1492.67 Q39.1034 1488.06 39.1034 1479.33 Q39.1034 1470.58 42.1589 1466 Q45.2376 1461.39 51.0477 1461.39 Z" fill="#000000" fill-rule="evenodd" fill-opacity="1" /><path clip-path="url(#clip810)" d="M 0 0 M16.0711 1225.35 L23.7099 1225.35 L23.7099 1198.98 L15.3998 1200.65 L15.3998 1196.39 L23.6636 1194.72 L28.3395 1194.72 L28.3395 1225.35 L35.9784 1225.35 L35.9784 1229.28 L16.0711 1229.28 L16.0711 1225.35 Z" fill="#000000" fill-rule="evenodd" fill-opacity="1" /><path clip-path="url(#clip810)" d="M 0 0 M51.0477 1197.8 Q47.4367 1197.8 45.608 1201.37 Q43.8024 1204.91 43.8024 1212.04 Q43.8024 1219.14 45.608 1222.71 Q47.4367 1226.25 51.0477 1226.25 Q54.682 1226.25 56.4875 1222.71 Q58.3162 1219.14 58.3162 1212.04 Q58.3162 1204.91 56.4875 1201.37 Q54.682 1197.8 51.0477 1197.8 M51.0477 1194.1 Q56.8579 1194.1 59.9134 1198.7 Q62.9921 1203.29 62.9921 1212.04 Q62.9921 1220.76 59.9134 1225.37 Q56.8579 1229.95 51.0477 1229.95 Q45.2376 1229.95 42.1589 1225.37 Q39.1034 1220.76 39.1034 1212.04 Q39.1034 1203.29 42.1589 1198.7 Q45.2376 1194.1 51.0477 1194.1 Z" fill="#000000" fill-rule="evenodd" fill-opacity="1" /><path clip-path="url(#clip810)" d="M 0 0 M19.659 958.053 L35.9784 958.053 L35.9784 961.989 L14.0341 961.989 L14.0341 958.053 Q16.6961 955.299 21.2794 950.669 Q25.8858 946.017 27.0664 944.674 Q29.3118 942.151 30.1914 940.415 Q31.0941 938.655 31.0941 936.966 Q31.0941 934.211 29.1497 932.475 Q27.2284 930.739 24.1266 930.739 Q21.9275 930.739 19.4738 931.503 Q17.0433 932.267 14.2655 933.817 L14.2655 929.095 Q17.0896 927.961 19.5433 927.382 Q21.997 926.804 24.034 926.804 Q29.4043 926.804 32.5988 929.489 Q35.7932 932.174 35.7932 936.665 Q35.7932 938.794 34.983 940.716 Q34.196 942.614 32.0895 945.206 Q31.5108 945.878 28.409 949.095 Q25.3071 952.29 19.659 958.053 Z" fill="#000000" fill-rule="evenodd" fill-opacity="1" /><path clip-path="url(#clip810)" d="M 0 0 M51.0477 930.507 Q47.4367 930.507 45.608 934.072 Q43.8024 937.614 43.8024 944.743 Q43.8024 951.85 45.608 955.415 Q47.4367 958.956 51.0477 958.956 Q54.682 958.956 56.4875 955.415 Q58.3162 951.85 58.3162 944.743 Q58.3162 937.614 56.4875 934.072 Q54.682 930.507 51.0477 930.507 M51.0477 926.804 Q56.8579 926.804 59.9134 931.41 Q62.9921 935.993 62.9921 944.743 Q62.9921 953.47 59.9134 958.077 Q56.8579 962.66 51.0477 962.66 Q45.2376 962.66 42.1589 958.077 Q39.1034 953.47 39.1034 944.743 Q39.1034 935.993 42.1589 931.41 Q45.2376 926.804 51.0477 926.804 Z" fill="#000000" fill-rule="evenodd" fill-opacity="1" /><path clip-path="url(#clip810)" d="M 0 0 M28.8488 676.06 Q32.2053 676.778 34.0802 679.046 Q35.9784 681.315 35.9784 684.648 Q35.9784 689.764 32.4599 692.565 Q28.9414 695.365 22.4599 695.365 Q20.284 695.365 17.9692 694.926 Q15.6776 694.509 13.2239 693.653 L13.2239 689.139 Q15.1683 690.273 17.4831 690.852 Q19.7979 691.43 22.321 691.43 Q26.7192 691.43 29.0108 689.694 Q31.3256 687.958 31.3256 684.648 Q31.3256 681.592 29.1729 679.879 Q27.0432 678.143 23.2238 678.143 L19.1961 678.143 L19.1961 674.301 L23.409 674.301 Q26.8581 674.301 28.6868 672.935 Q30.5154 671.546 30.5154 668.954 Q30.5154 666.292 28.6173 664.88 Q26.7423 663.444 23.2238 663.444 Q21.3025 663.444 19.1035 663.861 Q16.9044 664.278 14.2655 665.157 L14.2655 660.991 Q16.9276 660.25 19.2424 659.88 Q21.5803 659.509 23.6405 659.509 Q28.9645 659.509 32.0664 661.94 Q35.1682 664.347 35.1682 668.467 Q35.1682 671.338 33.5247 673.329 Q31.8812 675.296 28.8488 676.06 Z" fill="#000000" fill-rule="evenodd" fill-opacity="1" /><path clip-path="url(#clip810)" d="M 0 0 M51.0477 663.213 Q47.4367 663.213 45.608 666.778 Q43.8024 670.319 43.8024 677.449 Q43.8024 684.555 45.608 688.12 Q47.4367 691.662 51.0477 691.662 Q54.682 691.662 56.4875 688.12 Q58.3162 684.555 58.3162 677.449 Q58.3162 670.319 56.4875 666.778 Q54.682 663.213 51.0477 663.213 M51.0477 659.509 Q56.8579 659.509 59.9134 664.116 Q62.9921 668.699 62.9921 677.449 Q62.9921 686.176 59.9134 690.782 Q56.8579 695.365 51.0477 695.365 Q45.2376 695.365 42.1589 690.782 Q39.1034 686.176 39.1034 677.449 Q39.1034 668.699 42.1589 664.116 Q45.2376 659.509 51.0477 659.509 Z" fill="#000000" fill-rule="evenodd" fill-opacity="1" /><path clip-path="url(#clip810)" d="M 0 0 M26.3951 396.914 L14.5896 415.363 L26.3951 415.363 L26.3951 396.914 M25.1683 392.84 L31.0479 392.84 L31.0479 415.363 L35.9784 415.363 L35.9784 419.252 L31.0479 419.252 L31.0479 427.4 L26.3951 427.4 L26.3951 419.252 L10.7933 419.252 L10.7933 414.738 L25.1683 392.84 Z" fill="#000000" fill-rule="evenodd" fill-opacity="1" /><path clip-path="url(#clip810)" d="M 0 0 M51.0477 395.918 Q47.4367 395.918 45.608 399.483 Q43.8024 403.025 43.8024 410.154 Q43.8024 417.261 45.608 420.826 Q47.4367 424.367 51.0477 424.367 Q54.682 424.367 56.4875 420.826 Q58.3162 417.261 58.3162 410.154 Q58.3162 403.025 56.4875 399.483 Q54.682 395.918 51.0477 395.918 M51.0477 392.215 Q56.8579 392.215 59.9134 396.821 Q62.9921 401.404 62.9921 410.154 Q62.9921 418.881 59.9134 423.488 Q56.8579 428.071 51.0477 428.071 Q45.2376 428.071 42.1589 423.488 Q39.1034 418.881 39.1034 410.154 Q39.1034 401.404 42.1589 396.821 Q45.2376 392.215 51.0477 392.215 Z" fill="#000000" fill-rule="evenodd" fill-opacity="1" /><path clip-path="url(#clip810)" d="M 0 0 M15.0757 125.545 L33.4321 125.545 L33.4321 129.48 L19.3581 129.48 L19.3581 137.953 Q20.3766 137.605 21.3951 137.443 Q22.4136 137.258 23.4322 137.258 Q29.2192 137.258 32.5988 140.429 Q35.9784 143.601 35.9784 149.017 Q35.9784 154.596 32.5062 157.698 Q29.034 160.777 22.7146 160.777 Q20.5386 160.777 18.2701 160.406 Q16.0248 160.036 13.6174 159.295 L13.6174 154.596 Q15.7007 155.73 17.9229 156.286 Q20.1451 156.841 22.622 156.841 Q26.6266 156.841 28.9645 154.735 Q31.3025 152.628 31.3025 149.017 Q31.3025 145.406 28.9645 143.3 Q26.6266 141.193 22.622 141.193 Q20.747 141.193 18.872 141.61 Q17.0202 142.027 15.0757 142.906 L15.0757 125.545 Z" fill="#000000" fill-rule="evenodd" fill-opacity="1" /><path clip-path="url(#clip810)" d="M 0 0 M51.0477 128.624 Q47.4367 128.624 45.608 132.189 Q43.8024 135.73 43.8024 142.86 Q43.8024 149.966 45.608 153.531 Q47.4367 157.073 51.0477 157.073 Q54.682 157.073 56.4875 153.531 Q58.3162 149.966 58.3162 142.86 Q58.3162 135.73 56.4875 132.189 Q54.682 128.624 51.0477 128.624 M51.0477 124.92 Q56.8579 124.92 59.9134 129.527 Q62.9921 134.11 62.9921 142.86 Q62.9921 151.587 59.9134 156.193 Q56.8579 160.777 51.0477 160.777 Q45.2376 160.777 42.1589 156.193 Q39.1034 151.587 39.1034 142.86 Q39.1034 134.11 42.1589 129.527 Q45.2376 124.92 51.0477 124.92 Z" fill="#000000" fill-rule="evenodd" fill-opacity="1" /><path clip-path="url(#clip812)" d="
M151.118 1436.94 L152.621 1434.45 L154.125 1431.84 L155.629 1429.09 L157.133 1426.2 L158.637 1423.17 L160.14 1420 L161.644 1416.67 L163.148 1413.18 L164.652 1409.54 
  L166.156 1405.72 L167.659 1401.74 L169.163 1397.58 L170.667 1393.25 L172.171 1388.73 L173.675 1384.03 L175.178 1379.14 L176.682 1374.06 L178.186 1368.78 L179.69 1363.3 
  L181.194 1357.62 L182.697 1351.75 L184.201 1345.66 L185.705 1339.37 L187.209 1332.87 L188.713 1326.17 L190.217 1319.25 L191.72 1312.13 L193.224 1304.8 L194.728 1297.26 
  L196.232 1289.51 L197.736 1281.55 L199.239 1273.4 L200.743 1265.04 L202.247 1256.48 L203.751 1247.72 L205.255 1238.77 L206.758 1229.64 L208.262 1220.32 L209.766 1210.81 
  L211.27 1201.14 L212.774 1191.29 L214.277 1181.29 L215.781 1171.12 L217.285 1160.81 L218.789 1150.35 L220.293 1139.75 L221.797 1129.03 L223.3 1118.18 L224.804 1107.23 
  L226.308 1096.17 L227.812 1085.01 L229.316 1073.77 L230.819 1062.45 L232.323 1051.06 L233.827 1039.62 L235.331 1028.12 L236.835 1016.59 L238.338 1005.02 L239.842 993.442 
  L241.346 981.849 L242.85 970.257 L244.354 958.674 L245.857 947.112 L247.361 935.579 L248.865 924.085 L250.369 912.64 L251.873 901.253 L253.376 889.934 L254.88 878.692 
  L256.384 867.535 L257.888 856.473 L259.392 845.514 L260.896 834.667 L262.399 823.939 L263.903 813.339 L265.407 802.873 L266.911 792.55 L268.415 782.377 L269.918 772.359 
  L271.422 762.504 L272.926 752.818 L274.43 743.307 L275.934 733.975 L277.437 724.829 L278.941 715.873 L280.445 707.111 L281.949 698.549 L283.453 690.189 L284.956 682.036 
  L286.46 674.092 L287.964 666.361 L289.468 658.846 L290.972 651.548 L292.476 644.469 L293.979 637.612 L295.483 630.978 L296.987 624.567 L298.491 618.381 L299.995 612.42 
  L299.995 1479.3 L298.491 1479.3 L296.987 1479.3 L295.483 1479.3 L293.979 1479.3 L292.476 1479.3 L290.972 1479.3 L289.468 1479.3 L287.964 1479.3 L286.46 1479.3 
  L284.956 1479.3 L283.453 1479.3 L281.949 1479.3 L280.445 1479.3 L278.941 1479.3 L277.437 1479.3 L275.934 1479.3 L274.43 1479.3 L272.926 1479.3 L271.422 1479.3 
  L269.918 1479.3 L268.415 1479.3 L266.911 1479.3 L265.407 1479.3 L263.903 1479.3 L262.399 1479.3 L260.896 1479.3 L259.392 1479.3 L257.888 1479.3 L256.384 1479.3 
  L254.88 1479.3 L253.376 1479.3 L251.873 1479.3 L250.369 1479.3 L248.865 1479.3 L247.361 1479.3 L245.857 1479.3 L244.354 1479.3 L242.85 1479.3 L241.346 1479.3 
  L239.842 1479.3 L238.338 1479.3 L236.835 1479.3 L235.331 1479.3 L233.827 1479.3 L232.323 1479.3 L230.819 1479.3 L229.316 1479.3 L227.812 1479.3 L226.308 1479.3 
  L224.804 1479.3 L223.3 1479.3 L221.797 1479.3 L220.293 1479.3 L218.789 1479.3 L217.285 1479.3 L215.781 1479.3 L214.277 1479.3 L212.774 1479.3 L211.27 1479.3 
  L209.766 1479.3 L208.262 1479.3 L206.758 1479.3 L205.255 1479.3 L203.751 1479.3 L202.247 1479.3 L200.743 1479.3 L199.239 1479.3 L197.736 1479.3 L196.232 1479.3 
  L194.728 1479.3 L193.224 1479.3 L191.72 1479.3 L190.217 1479.3 L188.713 1479.3 L187.209 1479.3 L185.705 1479.3 L184.201 1479.3 L182.697 1479.3 L181.194 1479.3 
  L179.69 1479.3 L178.186 1479.3 L176.682 1479.3 L175.178 1479.3 L173.675 1479.3 L172.171 1479.3 L170.667 1479.3 L169.163 1479.3 L167.659 1479.3 L166.156 1479.3 
  L164.652 1479.3 L163.148 1479.3 L161.644 1479.3 L160.14 1479.3 L158.637 1479.3 L157.133 1479.3 L155.629 1479.3 L154.125 1479.3 L152.621 1479.3 L151.118 1479.3 
   Z
  " fill="#ffa500" fill-rule="evenodd" fill-opacity="0.5"/>
<polyline clip-path="url(#clip812)" style="stroke:#ffa500; stroke-width:4; stroke-opacity:1; fill:none" points="
  151.118,1436.94 152.621,1434.45 154.125,1431.84 155.629,1429.09 157.133,1426.2 158.637,1423.17 160.14,1420 161.644,1416.67 163.148,1413.18 164.652,1409.54 
  166.156,1405.72 167.659,1401.74 169.163,1397.58 170.667,1393.25 172.171,1388.73 173.675,1384.03 175.178,1379.14 176.682,1374.06 178.186,1368.78 179.69,1363.3 
  181.194,1357.62 182.697,1351.75 184.201,1345.66 185.705,1339.37 187.209,1332.87 188.713,1326.17 190.217,1319.25 191.72,1312.13 193.224,1304.8 194.728,1297.26 
  196.232,1289.51 197.736,1281.55 199.239,1273.4 200.743,1265.04 202.247,1256.48 203.751,1247.72 205.255,1238.77 206.758,1229.64 208.262,1220.32 209.766,1210.81 
  211.27,1201.14 212.774,1191.29 214.277,1181.29 215.781,1171.12 217.285,1160.81 218.789,1150.35 220.293,1139.75 221.797,1129.03 223.3,1118.18 224.804,1107.23 
  226.308,1096.17 227.812,1085.01 229.316,1073.77 230.819,1062.45 232.323,1051.06 233.827,1039.62 235.331,1028.12 236.835,1016.59 238.338,1005.02 239.842,993.442 
  241.346,981.849 242.85,970.257 244.354,958.674 245.857,947.112 247.361,935.579 248.865,924.085 250.369,912.64 251.873,901.253 253.376,889.934 254.88,878.692 
  256.384,867.535 257.888,856.473 259.392,845.514 260.896,834.667 262.399,823.939 263.903,813.339 265.407,802.873 266.911,792.55 268.415,782.377 269.918,772.359 
  271.422,762.504 272.926,752.818 274.43,743.307 275.934,733.975 277.437,724.829 278.941,715.873 280.445,707.111 281.949,698.549 283.453,690.189 284.956,682.036 
  286.46,674.092 287.964,666.361 289.468,658.846 290.972,651.548 292.476,644.469 293.979,637.612 295.483,630.978 296.987,624.567 298.491,618.381 299.995,612.42 
  
  "/>
<path clip-path="url(#clip812)" d="
M299.995 612.42 L311.555 574.085 L323.116 548.565 L334.676 534.59 L346.237 530.184 L357.798 532.817 L369.358 539.599 L380.919 547.503 L392.48 553.626 L404.04 555.466 
  L415.601 551.182 L427.162 539.818 L438.722 521.428 L450.283 497.056 L461.844 468.53 L473.404 438.105 L484.965 408.016 L496.526 380.073 L508.086 355.375 L519.647 334.21 
  L531.207 316.119 L542.768 300.082 L554.329 284.756 L565.889 268.75 L577.45 250.902 L589.011 230.538 L600.571 207.688 L612.132 183.174 L623.693 158.521 L635.253 135.659 
  L646.814 116.466 L658.375 102.274 L669.935 93.4995 L681.496 89.5339 L693.057 88.9544 L704.617 89.9934 L716.178 91.1097 L727.738 91.4604 L739.299 91.1149 L750.86 90.9559 
  L762.42 92.3393 L773.981 96.6745 L785.542 105.096 L797.102 118.327 L808.663 136.728 L820.224 160.414 L831.784 189.339 L843.345 223.242 L854.906 261.505 L866.466 302.997 
  L878.027 346.039 L889.587 388.541 L901.148 428.312 L912.709 463.453 L924.269 492.724 L935.83 515.792 L947.391 533.293 L958.951 546.699 L970.512 558.019 L982.073 569.405 
  L993.633 582.729 L1005.19 599.269 L1016.75 619.535 L1028.32 643.299 L1039.88 669.771 L1051.44 697.866 L1063 726.447 L1074.56 754.507 L1086.12 781.247 L1097.68 806.099 
  L1109.24 828.72 L1120.8 849.014 L1132.36 867.172 L1143.92 883.712 L1155.48 899.454 L1167.04 915.413 L1178.6 932.599 L1190.16 951.759 L1201.72 973.166 L1213.29 996.525 
  L1224.85 1021.06 L1236.41 1045.77 L1247.97 1069.72 L1259.53 1092.34 L1271.09 1113.51 L1282.65 1133.55 L1294.21 1152.92 L1305.77 1172.07 L1317.33 1191.17 L1328.89 1210.12 
  L1340.45 1228.57 L1352.01 1246.13 L1363.57 1262.52 L1375.13 1277.58 L1386.7 1291.37 L1398.26 1304.01 L1409.82 1315.59 L1421.38 1326.15 L1432.94 1335.58 L1444.5 1343.76 
  L1444.5 1479.3 L1432.94 1479.3 L1421.38 1479.3 L1409.82 1479.3 L1398.26 1479.3 L1386.7 1479.3 L1375.13 1479.3 L1363.57 1479.3 L1352.01 1479.3 L1340.45 1479.3 
  L1328.89 1479.3 L1317.33 1479.3 L1305.77 1479.3 L1294.21 1479.3 L1282.65 1479.3 L1271.09 1479.3 L1259.53 1479.3 L1247.97 1479.3 L1236.41 1479.3 L1224.85 1479.3 
  L1213.29 1479.3 L1201.72 1479.3 L1190.16 1479.3 L1178.6 1479.3 L1167.04 1479.3 L1155.48 1479.3 L1143.92 1479.3 L1132.36 1479.3 L1120.8 1479.3 L1109.24 1479.3 
  L1097.68 1479.3 L1086.12 1479.3 L1074.56 1479.3 L1063 1479.3 L1051.44 1479.3 L1039.88 1479.3 L1028.32 1479.3 L1016.75 1479.3 L1005.19 1479.3 L993.633 1479.3 
  L982.073 1479.3 L970.512 1479.3 L958.951 1479.3 L947.391 1479.3 L935.83 1479.3 L924.269 1479.3 L912.709 1479.3 L901.148 1479.3 L889.587 1479.3 L878.027 1479.3 
  L866.466 1479.3 L854.906 1479.3 L843.345 1479.3 L831.784 1479.3 L820.224 1479.3 L808.663 1479.3 L797.102 1479.3 L785.542 1479.3 L773.981 1479.3 L762.42 1479.3 
  L750.86 1479.3 L739.299 1479.3 L727.738 1479.3 L716.178 1479.3 L704.617 1479.3 L693.057 1479.3 L681.496 1479.3 L669.935 1479.3 L658.375 1479.3 L646.814 1479.3 
  L635.253 1479.3 L623.693 1479.3 L612.132 1479.3 L600.571 1479.3 L589.011 1479.3 L577.45 1479.3 L565.889 1479.3 L554.329 1479.3 L542.768 1479.3 L531.207 1479.3 
  L519.647 1479.3 L508.086 1479.3 L496.526 1479.3 L484.965 1479.3 L473.404 1479.3 L461.844 1479.3 L450.283 1479.3 L438.722 1479.3 L427.162 1479.3 L415.601 1479.3 
  L404.04 1479.3 L392.48 1479.3 L380.919 1479.3 L369.358 1479.3 L357.798 1479.3 L346.237 1479.3 L334.676 1479.3 L323.116 1479.3 L311.555 1479.3 L299.995 1479.3 
   Z
  " fill="#008000" fill-rule="evenodd" fill-opacity="0.5"/>
<polyline clip-path="url(#clip812)" style="stroke:#008000; stroke-width:4; stroke-opacity:1; fill:none" points="
  299.995,612.42 311.555,574.085 323.116,548.565 334.676,534.59 346.237,530.184 357.798,532.817 369.358,539.599 380.919,547.503 392.48,553.626 404.04,555.466 
  415.601,551.182 427.162,539.818 438.722,521.428 450.283,497.056 461.844,468.53 473.404,438.105 484.965,408.016 496.526,380.073 508.086,355.375 519.647,334.21 
  531.207,316.119 542.768,300.082 554.329,284.756 565.889,268.75 577.45,250.902 589.011,230.538 600.571,207.688 612.132,183.174 623.693,158.521 635.253,135.659 
  646.814,116.466 658.375,102.274 669.935,93.4995 681.496,89.5339 693.057,88.9544 704.617,89.9934 716.178,91.1097 727.738,91.4604 739.299,91.1149 750.86,90.9559 
  762.42,92.3393 773.981,96.6745 785.542,105.096 797.102,118.327 808.663,136.728 820.224,160.414 831.784,189.339 843.345,223.242 854.906,261.505 866.466,302.997 
  878.027,346.039 889.587,388.541 901.148,428.312 912.709,463.453 924.269,492.724 935.83,515.792 947.391,533.293 958.951,546.699 970.512,558.019 982.073,569.405 
  993.633,582.729 1005.19,599.269 1016.75,619.535 1028.32,643.299 1039.88,669.771 1051.44,697.866 1063,726.447 1074.56,754.507 1086.12,781.247 1097.68,806.099 
  1109.24,828.72 1120.8,849.014 1132.36,867.172 1143.92,883.712 1155.48,899.454 1167.04,915.413 1178.6,932.599 1190.16,951.759 1201.72,973.166 1213.29,996.525 
  1224.85,1021.06 1236.41,1045.77 1247.97,1069.72 1259.53,1092.34 1271.09,1113.51 1282.65,1133.55 1294.21,1152.92 1305.77,1172.07 1317.33,1191.17 1328.89,1210.12 
  1340.45,1228.57 1352.01,1246.13 1363.57,1262.52 1375.13,1277.58 1386.7,1291.37 1398.26,1304.01 1409.82,1315.59 1421.38,1326.15 1432.94,1335.58 1444.5,1343.76 
  
  "/>
<path clip-path="url(#clip812)" d="
M1444.5 1343.76 L1453.03 1348.89 L1461.55 1353.24 L1470.08 1356.82 L1478.6 1359.69 L1487.13 1361.95 L1495.66 1363.73 L1504.18 1365.17 L1512.71 1366.42 L1521.24 1367.59 
  L1529.76 1368.78 L1538.29 1370.02 L1546.82 1371.3 L1555.34 1372.59 L1563.87 1373.82 L1572.4 1374.9 L1580.92 1375.75 L1589.45 1376.32 L1597.98 1376.58 L1606.5 1376.52 
  L1615.03 1376.19 L1623.56 1375.66 L1632.08 1375.02 L1640.61 1374.38 L1649.14 1373.88 L1657.66 1373.63 L1666.19 1373.74 L1674.72 1374.3 L1683.24 1375.37 L1691.77 1376.98 
  L1700.3 1379.09 L1708.82 1381.66 L1717.35 1384.56 L1725.88 1387.65 L1734.4 1390.78 L1742.93 1393.78 L1751.46 1396.5 L1759.98 1398.84 L1768.51 1400.71 L1777.04 1402.1 
  L1785.56 1403.02 L1794.09 1403.54 L1802.62 1403.75 L1811.14 1403.74 L1819.67 1403.64 L1828.19 1403.56 L1836.72 1403.6 L1845.25 1403.87 L1853.77 1404.45 L1862.3 1405.43 
  L1870.83 1406.85 L1879.35 1408.76 L1887.88 1411.18 L1896.41 1414.08 L1904.93 1417.4 L1913.46 1421.05 L1921.99 1424.93 L1930.51 1428.88 L1939.04 1432.79 L1947.57 1436.51 
  L1956.09 1439.94 L1964.62 1443 L1973.15 1445.64 L1981.67 1447.85 L1990.2 1449.63 L1998.73 1451.01 L2007.25 1452.03 L2015.78 1452.73 L2024.31 1453.16 L2032.83 1453.34 
  L2041.36 1453.31 L2049.89 1453.09 L2058.41 1452.72 L2066.94 1452.22 L2075.47 1451.62 L2083.99 1450.95 L2092.52 1450.28 L2101.05 1449.64 L2109.57 1449.12 L2118.1 1448.76 
  L2126.63 1448.62 L2135.15 1448.74 L2143.68 1449.14 L2152.21 1449.77 L2160.73 1450.6 L2169.26 1451.53 L2177.78 1452.46 L2186.31 1453.28 L2194.84 1453.89 L2203.36 1454.2 
  L2211.89 1454.16 L2220.42 1453.79 L2228.94 1453.13 L2237.47 1452.26 L2246 1451.31 L2254.52 1450.44 L2263.05 1449.8 L2271.58 1449.54 L2280.1 1449.78 L2288.63 1450.59 
  L2288.63 1479.3 L2280.1 1479.3 L2271.58 1479.3 L2263.05 1479.3 L2254.52 1479.3 L2246 1479.3 L2237.47 1479.3 L2228.94 1479.3 L2220.42 1479.3 L2211.89 1479.3 
  L2203.36 1479.3 L2194.84 1479.3 L2186.31 1479.3 L2177.78 1479.3 L2169.26 1479.3 L2160.73 1479.3 L2152.21 1479.3 L2143.68 1479.3 L2135.15 1479.3 L2126.63 1479.3 
  L2118.1 1479.3 L2109.57 1479.3 L2101.05 1479.3 L2092.52 1479.3 L2083.99 1479.3 L2075.47 1479.3 L2066.94 1479.3 L2058.41 1479.3 L2049.89 1479.3 L2041.36 1479.3 
  L2032.83 1479.3 L2024.31 1479.3 L2015.78 1479.3 L2007.25 1479.3 L1998.73 1479.3 L1990.2 1479.3 L1981.67 1479.3 L1973.15 1479.3 L1964.62 1479.3 L1956.09 1479.3 
  L1947.57 1479.3 L1939.04 1479.3 L1930.51 1479.3 L1921.99 1479.3 L1913.46 1479.3 L1904.93 1479.3 L1896.41 1479.3 L1887.88 1479.3 L1879.35 1479.3 L1870.83 1479.3 
  L1862.3 1479.3 L1853.77 1479.3 L1845.25 1479.3 L1836.72 1479.3 L1828.19 1479.3 L1819.67 1479.3 L1811.14 1479.3 L1802.62 1479.3 L1794.09 1479.3 L1785.56 1479.3 
  L1777.04 1479.3 L1768.51 1479.3 L1759.98 1479.3 L1751.46 1479.3 L1742.93 1479.3 L1734.4 1479.3 L1725.88 1479.3 L1717.35 1479.3 L1708.82 1479.3 L1700.3 1479.3 
  L1691.77 1479.3 L1683.24 1479.3 L1674.72 1479.3 L1666.19 1479.3 L1657.66 1479.3 L1649.14 1479.3 L1640.61 1479.3 L1632.08 1479.3 L1623.56 1479.3 L1615.03 1479.3 
  L1606.5 1479.3 L1597.98 1479.3 L1589.45 1479.3 L1580.92 1479.3 L1572.4 1479.3 L1563.87 1479.3 L1555.34 1479.3 L1546.82 1479.3 L1538.29 1479.3 L1529.76 1479.3 
  L1521.24 1479.3 L1512.71 1479.3 L1504.18 1479.3 L1495.66 1479.3 L1487.13 1479.3 L1478.6 1479.3 L1470.08 1479.3 L1461.55 1479.3 L1453.03 1479.3 L1444.5 1479.3 
   Z
  " fill="#ffa500" fill-rule="evenodd" fill-opacity="0.5"/>
<polyline clip-path="url(#clip812)" style="stroke:#ffa500; stroke-width:4; stroke-opacity:1; fill:none" points="
  1444.5,1343.76 1453.03,1348.89 1461.55,1353.24 1470.08,1356.82 1478.6,1359.69 1487.13,1361.95 1495.66,1363.73 1504.18,1365.17 1512.71,1366.42 1521.24,1367.59 
  1529.76,1368.78 1538.29,1370.02 1546.82,1371.3 1555.34,1372.59 1563.87,1373.82 1572.4,1374.9 1580.92,1375.75 1589.45,1376.32 1597.98,1376.58 1606.5,1376.52 
  1615.03,1376.19 1623.56,1375.66 1632.08,1375.02 1640.61,1374.38 1649.14,1373.88 1657.66,1373.63 1666.19,1373.74 1674.72,1374.3 1683.24,1375.37 1691.77,1376.98 
  1700.3,1379.09 1708.82,1381.66 1717.35,1384.56 1725.88,1387.65 1734.4,1390.78 1742.93,1393.78 1751.46,1396.5 1759.98,1398.84 1768.51,1400.71 1777.04,1402.1 
  1785.56,1403.02 1794.09,1403.54 1802.62,1403.75 1811.14,1403.74 1819.67,1403.64 1828.19,1403.56 1836.72,1403.6 1845.25,1403.87 1853.77,1404.45 1862.3,1405.43 
  1870.83,1406.85 1879.35,1408.76 1887.88,1411.18 1896.41,1414.08 1904.93,1417.4 1913.46,1421.05 1921.99,1424.93 1930.51,1428.88 1939.04,1432.79 1947.57,1436.51 
  1956.09,1439.94 1964.62,1443 1973.15,1445.64 1981.67,1447.85 1990.2,1449.63 1998.73,1451.01 2007.25,1452.03 2015.78,1452.73 2024.31,1453.16 2032.83,1453.34 
  2041.36,1453.31 2049.89,1453.09 2058.41,1452.72 2066.94,1452.22 2075.47,1451.62 2083.99,1450.95 2092.52,1450.28 2101.05,1449.64 2109.57,1449.12 2118.1,1448.76 
  2126.63,1448.62 2135.15,1448.74 2143.68,1449.14 2152.21,1449.77 2160.73,1450.6 2169.26,1451.53 2177.78,1452.46 2186.31,1453.28 2194.84,1453.89 2203.36,1454.2 
  2211.89,1454.16 2220.42,1453.79 2228.94,1453.13 2237.47,1452.26 2246,1451.31 2254.52,1450.44 2263.05,1449.8 2271.58,1449.54 2280.1,1449.78 2288.63,1450.59 
  
  "/>
<polyline clip-path="url(#clip812)" style="stroke:#0000ff; stroke-width:4; stroke-opacity:1; fill:none" points="
  785.52,1479.3 785.52,105.076 
  "/>
<polyline clip-path="url(#clip812)" style="stroke:#000000; stroke-width:4; stroke-opacity:1; fill:none" points="
  744.193,1479.3 744.193,90.9524 
  "/>
<path clip-path="url(#clip810)" d="
M1494.58 459.25 L2277.23 459.25 L2277.23 96.3696 L1494.58 96.3696  Z
  " fill="#ffffff" fill-rule="evenodd" fill-opacity="1"/>
<polyline clip-path="url(#clip810)" style="stroke:#000000; stroke-width:4; stroke-opacity:1; fill:none" points="
  1494.58,459.25 2277.23,459.25 2277.23,96.3696 1494.58,96.3696 1494.58,459.25 
  "/>
<path clip-path="url(#clip810)" d="
M1519.75 181.042 L1670.81 181.042 L1670.81 132.658 L1519.75 132.658 L1519.75 181.042  Z
  " fill="#ffa500" fill-rule="evenodd" fill-opacity="0.5"/>
<polyline clip-path="url(#clip810)" style="stroke:#ffa500; stroke-width:4; stroke-opacity:1; fill:none" points="
  1519.75,132.658 1670.81,132.658 
  "/>
<path clip-path="url(#clip810)" d="M 0 0 M1700.38 161.19 Q1700.38 165.889 1702.3 168.574 Q1704.24 171.236 1707.62 171.236 Q1711 171.236 1712.95 168.574 Q1714.89 165.889 1714.89 161.19 Q1714.89 156.491 1712.95 153.829 Q1711 151.144 1707.62 151.144 Q1704.24 151.144 1702.3 153.829 Q1700.38 156.491 1700.38 161.19 M1714.89 170.241 Q1713.55 172.555 1711.49 173.69 Q1709.45 174.801 1706.58 174.801 Q1701.88 174.801 1698.92 171.051 Q1695.98 167.301 1695.98 161.19 Q1695.98 155.079 1698.92 151.329 Q1701.88 147.579 1706.58 147.579 Q1709.45 147.579 1711.49 148.713 Q1713.55 149.824 1714.89 152.139 L1714.89 148.204 L1719.15 148.204 L1719.15 183.991 L1714.89 183.991 L1714.89 170.241 Z" fill="#000000" fill-rule="evenodd" fill-opacity="1" /><path clip-path="url(#clip810)" d="M 0 0 M1734.22 142.648 Q1730.61 142.648 1728.78 146.213 Q1726.98 149.755 1726.98 156.884 Q1726.98 163.991 1728.78 167.556 Q1730.61 171.097 1734.22 171.097 Q1737.85 171.097 1739.66 167.556 Q1741.49 163.991 1741.49 156.884 Q1741.49 149.755 1739.66 146.213 Q1737.85 142.648 1734.22 142.648 M1734.22 138.945 Q1740.03 138.945 1743.09 143.551 Q1746.17 148.134 1746.17 156.884 Q1746.17 165.611 1743.09 170.218 Q1740.03 174.801 1734.22 174.801 Q1728.41 174.801 1725.33 170.218 Q1722.28 165.611 1722.28 156.884 Q1722.28 148.134 1725.33 143.551 Q1728.41 138.945 1734.22 138.945 Z" fill="#000000" fill-rule="evenodd" fill-opacity="1" /><path clip-path="url(#clip810)" d="M 0 0 M1751.28 139.57 L1769.64 139.57 L1769.64 143.505 L1755.56 143.505 L1755.56 151.977 Q1756.58 151.63 1757.6 151.468 Q1758.62 151.282 1759.64 151.282 Q1765.42 151.282 1768.8 154.454 Q1772.18 157.625 1772.18 163.042 Q1772.18 168.62 1768.71 171.722 Q1765.24 174.801 1758.92 174.801 Q1756.74 174.801 1754.48 174.43 Q1752.23 174.06 1749.82 173.319 L1749.82 168.62 Q1751.91 169.755 1754.13 170.31 Q1756.35 170.866 1758.83 170.866 Q1762.83 170.866 1765.17 168.759 Q1767.51 166.653 1767.51 163.042 Q1767.51 159.431 1765.17 157.324 Q1762.83 155.218 1758.83 155.218 Q1756.95 155.218 1755.08 155.634 Q1753.23 156.051 1751.28 156.931 L1751.28 139.57 Z" fill="#000000" fill-rule="evenodd" fill-opacity="1" /><path clip-path="url(#clip810)" d="
M1519.75 241.522 L1670.81 241.522 L1670.81 193.138 L1519.75 193.138 L1519.75 241.522  Z
  " fill="#008000" fill-rule="evenodd" fill-opacity="0.5"/>
<polyline clip-path="url(#clip810)" style="stroke:#008000; stroke-width:4; stroke-opacity:1; fill:none" points="
  1519.75,193.138 1670.81,193.138 
  "/>
<path clip-path="url(#clip810)" d="M 0 0 M1698.2 233.892 L1698.2 229.633 Q1699.96 230.466 1701.77 230.906 Q1703.57 231.346 1705.31 231.346 Q1709.94 231.346 1712.37 228.244 Q1714.82 225.119 1715.17 218.776 Q1713.83 220.767 1711.77 221.832 Q1709.71 222.897 1707.21 222.897 Q1702.02 222.897 1698.99 219.772 Q1695.98 216.624 1695.98 211.184 Q1695.98 205.86 1699.13 202.642 Q1702.28 199.425 1707.51 199.425 Q1713.5 199.425 1716.65 204.031 Q1719.82 208.614 1719.82 217.364 Q1719.82 225.536 1715.93 230.42 Q1712.07 235.281 1705.52 235.281 Q1703.76 235.281 1701.95 234.934 Q1700.15 234.586 1698.2 233.892 M1707.51 219.239 Q1710.66 219.239 1712.48 217.086 Q1714.34 214.934 1714.34 211.184 Q1714.34 207.457 1712.48 205.304 Q1710.66 203.128 1707.51 203.128 Q1704.36 203.128 1702.51 205.304 Q1700.68 207.457 1700.68 211.184 Q1700.68 214.934 1702.51 217.086 Q1704.36 219.239 1707.51 219.239 Z" fill="#000000" fill-rule="evenodd" fill-opacity="1" /><path clip-path="url(#clip810)" d="M 0 0 M1734.89 203.128 Q1731.28 203.128 1729.45 206.693 Q1727.65 210.235 1727.65 217.364 Q1727.65 224.471 1729.45 228.036 Q1731.28 231.577 1734.89 231.577 Q1738.53 231.577 1740.33 228.036 Q1742.16 224.471 1742.16 217.364 Q1742.16 210.235 1740.33 206.693 Q1738.53 203.128 1734.89 203.128 M1734.89 199.425 Q1740.7 199.425 1743.76 204.031 Q1746.84 208.614 1746.84 217.364 Q1746.84 226.091 1743.76 230.698 Q1740.7 235.281 1734.89 235.281 Q1729.08 235.281 1726 230.698 Q1722.95 226.091 1722.95 217.364 Q1722.95 208.614 1726 204.031 Q1729.08 199.425 1734.89 199.425 Z" fill="#000000" fill-rule="evenodd" fill-opacity="1" /><path clip-path="url(#clip810)" d="M 0 0 M1781.3 219.401 Q1779.29 219.401 1778.13 221.114 Q1777 222.827 1777 225.883 Q1777 228.892 1778.13 230.628 Q1779.29 232.341 1781.3 232.341 Q1783.27 232.341 1784.41 230.628 Q1785.56 228.892 1785.56 225.883 Q1785.56 222.85 1784.41 221.137 Q1783.27 219.401 1781.3 219.401 M1781.3 216.462 Q1784.96 216.462 1787.11 219.008 Q1789.27 221.554 1789.27 225.883 Q1789.27 230.211 1787.09 232.758 Q1784.94 235.281 1781.3 235.281 Q1777.6 235.281 1775.45 232.758 Q1773.29 230.211 1773.29 225.883 Q1773.29 221.531 1775.45 219.008 Q1777.62 216.462 1781.3 216.462 M1757.42 202.364 Q1755.42 202.364 1754.27 204.1 Q1753.13 205.813 1753.13 208.823 Q1753.13 211.878 1754.27 213.591 Q1755.4 215.304 1757.42 215.304 Q1759.43 215.304 1760.56 213.591 Q1761.72 211.878 1761.72 208.823 Q1761.72 205.837 1760.56 204.1 Q1759.41 202.364 1757.42 202.364 M1778.32 199.425 L1782.02 199.425 L1760.4 235.281 L1756.7 235.281 L1778.32 199.425 M1757.42 199.425 Q1761.07 199.425 1763.25 201.971 Q1765.42 204.494 1765.42 208.823 Q1765.42 213.198 1763.25 215.721 Q1761.1 218.244 1757.42 218.244 Q1753.73 218.244 1751.58 215.721 Q1749.45 213.174 1749.45 208.823 Q1749.45 204.517 1751.6 201.971 Q1753.76 199.425 1757.42 199.425 Z" fill="#000000" fill-rule="evenodd" fill-opacity="1" /><path clip-path="url(#clip810)" d="M 0 0 M1830.35 218.961 L1830.35 234.61 L1826.1 234.61 L1826.1 219.1 Q1826.1 215.42 1824.66 213.591 Q1823.22 211.762 1820.35 211.762 Q1816.91 211.762 1814.91 213.962 Q1812.92 216.161 1812.92 219.957 L1812.92 234.61 L1808.64 234.61 L1808.64 208.684 L1812.92 208.684 L1812.92 212.712 Q1814.45 210.374 1816.51 209.216 Q1818.6 208.059 1821.3 208.059 Q1825.77 208.059 1828.06 210.837 Q1830.35 213.591 1830.35 218.961 Z" fill="#000000" fill-rule="evenodd" fill-opacity="1" /><path clip-path="url(#clip810)" d="M 0 0 M1844.87 211.67 Q1841.44 211.67 1839.45 214.355 Q1837.46 217.017 1837.46 221.67 Q1837.46 226.323 1839.43 229.008 Q1841.42 231.67 1844.87 231.67 Q1848.27 231.67 1850.26 228.985 Q1852.25 226.299 1852.25 221.67 Q1852.25 217.063 1850.26 214.378 Q1848.27 211.67 1844.87 211.67 M1844.87 208.059 Q1850.42 208.059 1853.6 211.67 Q1856.77 215.281 1856.77 221.67 Q1856.77 228.036 1853.6 231.67 Q1850.42 235.281 1844.87 235.281 Q1839.29 235.281 1836.12 231.67 Q1832.97 228.036 1832.97 221.67 Q1832.97 215.281 1836.12 211.67 Q1839.29 208.059 1844.87 208.059 Z" fill="#000000" fill-rule="evenodd" fill-opacity="1" /><path clip-path="url(#clip810)" d="M 0 0 M1882.78 218.961 L1882.78 234.61 L1878.53 234.61 L1878.53 219.1 Q1878.53 215.42 1877.09 213.591 Q1875.66 211.762 1872.78 211.762 Q1869.34 211.762 1867.35 213.962 Q1865.35 216.161 1865.35 219.957 L1865.35 234.61 L1861.07 234.61 L1861.07 208.684 L1865.35 208.684 L1865.35 212.712 Q1866.88 210.374 1868.94 209.216 Q1871.03 208.059 1873.73 208.059 Q1878.2 208.059 1880.49 210.837 Q1882.78 213.591 1882.78 218.961 Z" fill="#000000" fill-rule="evenodd" fill-opacity="1" /><path clip-path="url(#clip810)" d="M 0 0 M1885.1 219.725 L1897.58 219.725 L1897.58 223.522 L1885.1 223.522 L1885.1 219.725 Z" fill="#000000" fill-rule="evenodd" fill-opacity="1" /><path clip-path="url(#clip810)" d="M 0 0 M1917.07 212.665 Q1916.35 212.249 1915.49 212.063 Q1914.66 211.855 1913.64 211.855 Q1910.03 211.855 1908.09 214.216 Q1906.16 216.554 1906.16 220.952 L1906.16 234.61 L1901.88 234.61 L1901.88 208.684 L1906.16 208.684 L1906.16 212.712 Q1907.51 210.35 1909.66 209.216 Q1911.81 208.059 1914.89 208.059 Q1915.33 208.059 1915.86 208.128 Q1916.4 208.175 1917.04 208.29 L1917.07 212.665 Z" fill="#000000" fill-rule="evenodd" fill-opacity="1" /><path clip-path="url(#clip810)" d="M 0 0 M1942.67 220.582 L1942.67 222.665 L1923.09 222.665 Q1923.36 227.063 1925.72 229.378 Q1928.11 231.67 1932.34 231.67 Q1934.8 231.67 1937.09 231.068 Q1939.4 230.466 1941.67 229.262 L1941.67 233.29 Q1939.38 234.262 1936.97 234.772 Q1934.57 235.281 1932.09 235.281 Q1925.89 235.281 1922.25 231.67 Q1918.64 228.059 1918.64 221.901 Q1918.64 215.536 1922.07 211.809 Q1925.52 208.059 1931.35 208.059 Q1936.58 208.059 1939.61 211.438 Q1942.67 214.795 1942.67 220.582 M1938.41 219.332 Q1938.36 215.837 1936.44 213.753 Q1934.54 211.67 1931.4 211.67 Q1927.83 211.67 1925.68 213.684 Q1923.55 215.698 1923.22 219.355 L1938.41 219.332 Z" fill="#000000" fill-rule="evenodd" fill-opacity="1" /><path clip-path="url(#clip810)" d="M 0 0 M1947.14 208.684 L1951.4 208.684 L1951.4 235.073 Q1951.4 240.026 1949.5 242.248 Q1947.62 244.471 1943.43 244.471 L1941.81 244.471 L1941.81 240.86 L1942.95 240.86 Q1945.38 240.86 1946.26 239.725 Q1947.14 238.614 1947.14 235.073 L1947.14 208.684 M1947.14 198.591 L1951.4 198.591 L1951.4 203.985 L1947.14 203.985 L1947.14 198.591 Z" fill="#000000" fill-rule="evenodd" fill-opacity="1" /><path clip-path="url(#clip810)" d="M 0 0 M1978.04 220.582 L1978.04 222.665 L1958.46 222.665 Q1958.73 227.063 1961.09 229.378 Q1963.48 231.67 1967.71 231.67 Q1970.17 231.67 1972.46 231.068 Q1974.78 230.466 1977.04 229.262 L1977.04 233.29 Q1974.75 234.262 1972.34 234.772 Q1969.94 235.281 1967.46 235.281 Q1961.26 235.281 1957.62 231.67 Q1954.01 228.059 1954.01 221.901 Q1954.01 215.536 1957.44 211.809 Q1960.89 208.059 1966.72 208.059 Q1971.95 208.059 1974.98 211.438 Q1978.04 214.795 1978.04 220.582 M1973.78 219.332 Q1973.73 215.837 1971.81 213.753 Q1969.91 211.67 1966.77 211.67 Q1963.2 211.67 1961.05 213.684 Q1958.92 215.698 1958.59 219.355 L1973.78 219.332 Z" fill="#000000" fill-rule="evenodd" fill-opacity="1" /><path clip-path="url(#clip810)" d="M 0 0 M2001.16 209.679 L2001.16 213.661 Q1999.36 212.665 1997.53 212.179 Q1995.72 211.67 1993.87 211.67 Q1989.73 211.67 1987.44 214.309 Q1985.15 216.924 1985.15 221.67 Q1985.15 226.415 1987.44 229.054 Q1989.73 231.67 1993.87 231.67 Q1995.72 231.67 1997.53 231.184 Q1999.36 230.674 2001.16 229.679 L2001.16 233.614 Q1999.38 234.448 1997.46 234.864 Q1995.56 235.281 1993.41 235.281 Q1987.55 235.281 1984.1 231.6 Q1980.65 227.92 1980.65 221.67 Q1980.65 215.327 1984.13 211.693 Q1987.62 208.059 1993.69 208.059 Q1995.65 208.059 1997.53 208.475 Q1999.4 208.869 2001.16 209.679 Z" fill="#000000" fill-rule="evenodd" fill-opacity="1" /><path clip-path="url(#clip810)" d="M 0 0 M2009.84 201.323 L2009.84 208.684 L2018.62 208.684 L2018.62 211.994 L2009.84 211.994 L2009.84 226.068 Q2009.84 229.239 2010.7 230.142 Q2011.58 231.045 2014.24 231.045 L2018.62 231.045 L2018.62 234.61 L2014.24 234.61 Q2009.31 234.61 2007.44 232.781 Q2005.56 230.929 2005.56 226.068 L2005.56 211.994 L2002.44 211.994 L2002.44 208.684 L2005.56 208.684 L2005.56 201.323 L2009.84 201.323 Z" fill="#000000" fill-rule="evenodd" fill-opacity="1" /><path clip-path="url(#clip810)" d="M 0 0 M2023.08 208.684 L2027.34 208.684 L2027.34 234.61 L2023.08 234.61 L2023.08 208.684 M2023.08 198.591 L2027.34 198.591 L2027.34 203.985 L2023.08 203.985 L2023.08 198.591 Z" fill="#000000" fill-rule="evenodd" fill-opacity="1" /><path clip-path="url(#clip810)" d="M 0 0 M2041.86 211.67 Q2038.43 211.67 2036.44 214.355 Q2034.45 217.017 2034.45 221.67 Q2034.45 226.323 2036.42 229.008 Q2038.41 231.67 2041.86 231.67 Q2045.26 231.67 2047.25 228.985 Q2049.24 226.299 2049.24 221.67 Q2049.24 217.063 2047.25 214.378 Q2045.26 211.67 2041.86 211.67 M2041.86 208.059 Q2047.41 208.059 2050.58 211.67 Q2053.76 215.281 2053.76 221.67 Q2053.76 228.036 2050.58 231.67 Q2047.41 235.281 2041.86 235.281 Q2036.28 235.281 2033.11 231.67 Q2029.96 228.036 2029.96 221.67 Q2029.96 215.281 2033.11 211.67 Q2036.28 208.059 2041.86 208.059 Z" fill="#000000" fill-rule="evenodd" fill-opacity="1" /><path clip-path="url(#clip810)" d="M 0 0 M2079.77 218.961 L2079.77 234.61 L2075.52 234.61 L2075.52 219.1 Q2075.52 215.42 2074.08 213.591 Q2072.64 211.762 2069.77 211.762 Q2066.33 211.762 2064.33 213.962 Q2062.34 216.161 2062.34 219.957 L2062.34 234.61 L2058.06 234.61 L2058.06 208.684 L2062.34 208.684 L2062.34 212.712 Q2063.87 210.374 2065.93 209.216 Q2068.02 208.059 2070.72 208.059 Q2075.19 208.059 2077.48 210.837 Q2079.77 213.591 2079.77 218.961 Z" fill="#000000" fill-rule="evenodd" fill-opacity="1" /><path clip-path="url(#clip810)" d="M 0 0 M2114.33 212.665 Q2113.62 212.249 2112.76 212.063 Q2111.93 211.855 2110.91 211.855 Q2107.3 211.855 2105.35 214.216 Q2103.43 216.554 2103.43 220.952 L2103.43 234.61 L2099.15 234.61 L2099.15 208.684 L2103.43 208.684 L2103.43 212.712 Q2104.77 210.35 2106.93 209.216 Q2109.08 208.059 2112.16 208.059 Q2112.6 208.059 2113.13 208.128 Q2113.66 208.175 2114.31 208.29 L2114.33 212.665 Z" fill="#000000" fill-rule="evenodd" fill-opacity="1" /><path clip-path="url(#clip810)" d="M 0 0 M2139.94 220.582 L2139.94 222.665 L2120.35 222.665 Q2120.63 227.063 2122.99 229.378 Q2125.38 231.67 2129.61 231.67 Q2132.07 231.67 2134.36 231.068 Q2136.67 230.466 2138.94 229.262 L2138.94 233.29 Q2136.65 234.262 2134.24 234.772 Q2131.83 235.281 2129.36 235.281 Q2123.15 235.281 2119.52 231.67 Q2115.91 228.059 2115.91 221.901 Q2115.91 215.536 2119.33 211.809 Q2122.78 208.059 2128.62 208.059 Q2133.85 208.059 2136.88 211.438 Q2139.94 214.795 2139.94 220.582 M2135.68 219.332 Q2135.63 215.837 2133.71 213.753 Q2131.81 211.67 2128.66 211.67 Q2125.1 211.67 2122.95 213.684 Q2120.82 215.698 2120.49 219.355 L2135.68 219.332 Z" fill="#000000" fill-rule="evenodd" fill-opacity="1" /><path clip-path="url(#clip810)" d="M 0 0 M2161.46 221.346 Q2161.46 216.716 2159.54 214.17 Q2157.64 211.624 2154.2 211.624 Q2150.77 211.624 2148.85 214.17 Q2146.95 216.716 2146.95 221.346 Q2146.95 225.952 2148.85 228.498 Q2150.77 231.045 2154.2 231.045 Q2157.64 231.045 2159.54 228.498 Q2161.46 225.952 2161.46 221.346 M2165.72 231.392 Q2165.72 238.012 2162.78 241.23 Q2159.84 244.471 2153.78 244.471 Q2151.53 244.471 2149.54 244.123 Q2147.55 243.799 2145.68 243.105 L2145.68 238.961 Q2147.55 239.98 2149.38 240.466 Q2151.21 240.952 2153.11 240.952 Q2157.3 240.952 2159.38 238.753 Q2161.46 236.577 2161.46 232.156 L2161.46 230.049 Q2160.14 232.341 2158.08 233.475 Q2156.02 234.61 2153.15 234.61 Q2148.39 234.61 2145.47 230.975 Q2142.55 227.341 2142.55 221.346 Q2142.55 215.327 2145.47 211.693 Q2148.39 208.059 2153.15 208.059 Q2156.02 208.059 2158.08 209.193 Q2160.14 210.327 2161.46 212.619 L2161.46 208.684 L2165.72 208.684 L2165.72 231.392 Z" fill="#000000" fill-rule="evenodd" fill-opacity="1" /><path clip-path="url(#clip810)" d="M 0 0 M2170.19 208.684 L2174.45 208.684 L2174.45 234.61 L2170.19 234.61 L2170.19 208.684 M2170.19 198.591 L2174.45 198.591 L2174.45 203.985 L2170.19 203.985 L2170.19 198.591 Z" fill="#000000" fill-rule="evenodd" fill-opacity="1" /><path clip-path="url(#clip810)" d="M 0 0 M2188.96 211.67 Q2185.54 211.67 2183.55 214.355 Q2181.56 217.017 2181.56 221.67 Q2181.56 226.323 2183.52 229.008 Q2185.51 231.67 2188.96 231.67 Q2192.37 231.67 2194.36 228.985 Q2196.35 226.299 2196.35 221.67 Q2196.35 217.063 2194.36 214.378 Q2192.37 211.67 2188.96 211.67 M2188.96 208.059 Q2194.52 208.059 2197.69 211.67 Q2200.86 215.281 2200.86 221.67 Q2200.86 228.036 2197.69 231.67 Q2194.52 235.281 2188.96 235.281 Q2183.39 235.281 2180.21 231.67 Q2177.07 228.036 2177.07 221.67 Q2177.07 215.281 2180.21 211.67 Q2183.39 208.059 2188.96 208.059 Z" fill="#000000" fill-rule="evenodd" fill-opacity="1" /><path clip-path="url(#clip810)" d="M 0 0 M2226.88 218.961 L2226.88 234.61 L2222.62 234.61 L2222.62 219.1 Q2222.62 215.42 2221.19 213.591 Q2219.75 211.762 2216.88 211.762 Q2213.43 211.762 2211.44 213.962 Q2209.45 216.161 2209.45 219.957 L2209.45 234.61 L2205.17 234.61 L2205.17 208.684 L2209.45 208.684 L2209.45 212.712 Q2210.98 210.374 2213.04 209.216 Q2215.12 208.059 2217.83 208.059 Q2222.3 208.059 2224.59 210.837 Q2226.88 213.591 2226.88 218.961 Z" fill="#000000" fill-rule="evenodd" fill-opacity="1" /><path clip-path="url(#clip810)" d="
M1519.75 302.002 L1670.81 302.002 L1670.81 253.618 L1519.75 253.618 L1519.75 302.002  Z
  " fill="#ffa500" fill-rule="evenodd" fill-opacity="0.5"/>
<polyline clip-path="url(#clip810)" style="stroke:#ffa500; stroke-width:4; stroke-opacity:1; fill:none" points="
  1519.75,253.618 1670.81,253.618 
  "/>
<path clip-path="url(#clip810)" d="M 0 0 M1700.38 282.15 Q1700.38 286.849 1702.3 289.534 Q1704.24 292.196 1707.62 292.196 Q1711 292.196 1712.95 289.534 Q1714.89 286.849 1714.89 282.15 Q1714.89 277.451 1712.95 274.789 Q1711 272.104 1707.62 272.104 Q1704.24 272.104 1702.3 274.789 Q1700.38 277.451 1700.38 282.15 M1714.89 291.201 Q1713.55 293.515 1711.49 294.65 Q1709.45 295.761 1706.58 295.761 Q1701.88 295.761 1698.92 292.011 Q1695.98 288.261 1695.98 282.15 Q1695.98 276.039 1698.92 272.289 Q1701.88 268.539 1706.58 268.539 Q1709.45 268.539 1711.49 269.673 Q1713.55 270.784 1714.89 273.099 L1714.89 269.164 L1719.15 269.164 L1719.15 304.951 L1714.89 304.951 L1714.89 291.201 Z" fill="#000000" fill-rule="evenodd" fill-opacity="1" /><path clip-path="url(#clip810)" d="M 0 0 M1724.36 294.372 L1724.36 290.113 Q1726.12 290.946 1727.92 291.386 Q1729.73 291.826 1731.47 291.826 Q1736.1 291.826 1738.53 288.724 Q1740.98 285.599 1741.33 279.256 Q1739.98 281.247 1737.92 282.312 Q1735.86 283.377 1733.36 283.377 Q1728.18 283.377 1725.15 280.252 Q1722.14 277.104 1722.14 271.664 Q1722.14 266.34 1725.29 263.122 Q1728.43 259.905 1733.67 259.905 Q1739.66 259.905 1742.81 264.511 Q1745.98 269.094 1745.98 277.844 Q1745.98 286.016 1742.09 290.9 Q1738.23 295.761 1731.67 295.761 Q1729.92 295.761 1728.11 295.414 Q1726.3 295.066 1724.36 294.372 M1733.67 279.719 Q1736.81 279.719 1738.64 277.566 Q1740.49 275.414 1740.49 271.664 Q1740.49 267.937 1738.64 265.784 Q1736.81 263.608 1733.67 263.608 Q1730.52 263.608 1728.67 265.784 Q1726.84 267.937 1726.84 271.664 Q1726.84 275.414 1728.67 277.566 Q1730.52 279.719 1733.67 279.719 Z" fill="#000000" fill-rule="evenodd" fill-opacity="1" /><path clip-path="url(#clip810)" d="M 0 0 M1751.1 260.53 L1769.45 260.53 L1769.45 264.465 L1755.38 264.465 L1755.38 272.937 Q1756.4 272.59 1757.42 272.428 Q1758.43 272.242 1759.45 272.242 Q1765.24 272.242 1768.62 275.414 Q1772 278.585 1772 284.002 Q1772 289.58 1768.53 292.682 Q1765.05 295.761 1758.73 295.761 Q1756.56 295.761 1754.29 295.39 Q1752.04 295.02 1749.64 294.279 L1749.64 289.58 Q1751.72 290.715 1753.94 291.27 Q1756.17 291.826 1758.64 291.826 Q1762.65 291.826 1764.98 289.719 Q1767.32 287.613 1767.32 284.002 Q1767.32 280.391 1764.98 278.284 Q1762.65 276.178 1758.64 276.178 Q1756.77 276.178 1754.89 276.594 Q1753.04 277.011 1751.1 277.891 L1751.1 260.53 Z" fill="#000000" fill-rule="evenodd" fill-opacity="1" /><polyline clip-path="url(#clip810)" style="stroke:#0000ff; stroke-width:4; stroke-opacity:1; fill:none" points="
  1519.75,338.29 1670.81,338.29 
  "/>
<path clip-path="url(#clip810)" d="M 0 0 M1716.33 334.621 Q1717.92 331.75 1720.15 330.385 Q1722.37 329.019 1725.38 329.019 Q1729.43 329.019 1731.63 331.866 Q1733.83 334.69 1733.83 339.921 L1733.83 355.57 L1729.54 355.57 L1729.54 340.06 Q1729.54 336.334 1728.23 334.528 Q1726.91 332.722 1724.2 332.722 Q1720.89 332.722 1718.97 334.922 Q1717.04 337.121 1717.04 340.917 L1717.04 355.57 L1712.76 355.57 L1712.76 340.06 Q1712.76 336.31 1711.44 334.528 Q1710.12 332.722 1707.37 332.722 Q1704.11 332.722 1702.18 334.945 Q1700.26 337.144 1700.26 340.917 L1700.26 355.57 L1695.98 355.57 L1695.98 329.644 L1700.26 329.644 L1700.26 333.672 Q1701.72 331.287 1703.76 330.153 Q1705.79 329.019 1708.6 329.019 Q1711.42 329.019 1713.39 330.454 Q1715.38 331.889 1716.33 334.621 Z" fill="#000000" fill-rule="evenodd" fill-opacity="1" /><path clip-path="url(#clip810)" d="M 0 0 M1760.47 341.542 L1760.47 343.625 L1740.89 343.625 Q1741.17 348.023 1743.53 350.338 Q1745.91 352.63 1750.15 352.63 Q1752.6 352.63 1754.89 352.028 Q1757.21 351.426 1759.48 350.222 L1759.48 354.25 Q1757.18 355.222 1754.78 355.732 Q1752.37 356.241 1749.89 356.241 Q1743.69 356.241 1740.05 352.63 Q1736.44 349.019 1736.44 342.861 Q1736.44 336.496 1739.87 332.769 Q1743.32 329.019 1749.15 329.019 Q1754.38 329.019 1757.42 332.398 Q1760.47 335.755 1760.47 341.542 M1756.21 340.292 Q1756.17 336.797 1754.24 334.713 Q1752.35 332.63 1749.2 332.63 Q1745.63 332.63 1743.48 334.644 Q1741.35 336.658 1741.03 340.315 L1756.21 340.292 Z" fill="#000000" fill-rule="evenodd" fill-opacity="1" /><path clip-path="url(#clip810)" d="M 0 0 M1776.72 342.537 Q1771.56 342.537 1769.57 343.718 Q1767.58 344.898 1767.58 347.746 Q1767.58 350.014 1769.06 351.357 Q1770.56 352.676 1773.13 352.676 Q1776.67 352.676 1778.8 350.176 Q1780.96 347.653 1780.96 343.486 L1780.96 342.537 L1776.72 342.537 M1785.22 340.778 L1785.22 355.57 L1780.96 355.57 L1780.96 351.634 Q1779.5 353.995 1777.32 355.13 Q1775.15 356.241 1772 356.241 Q1768.02 356.241 1765.66 354.019 Q1763.32 351.773 1763.32 348.023 Q1763.32 343.648 1766.23 341.426 Q1769.17 339.204 1774.98 339.204 L1780.96 339.204 L1780.96 338.787 Q1780.96 335.847 1779.01 334.25 Q1777.09 332.63 1773.6 332.63 Q1771.37 332.63 1769.27 333.162 Q1767.16 333.695 1765.22 334.759 L1765.22 330.824 Q1767.55 329.922 1769.75 329.482 Q1771.95 329.019 1774.04 329.019 Q1779.66 329.019 1782.44 331.935 Q1785.22 334.852 1785.22 340.778 Z" fill="#000000" fill-rule="evenodd" fill-opacity="1" /><path clip-path="url(#clip810)" d="M 0 0 M1811.23 339.921 L1811.23 355.57 L1806.97 355.57 L1806.97 340.06 Q1806.97 336.38 1805.54 334.551 Q1804.1 332.722 1801.23 332.722 Q1797.79 332.722 1795.79 334.922 Q1793.8 337.121 1793.8 340.917 L1793.8 355.57 L1789.52 355.57 L1789.52 329.644 L1793.8 329.644 L1793.8 333.672 Q1795.33 331.334 1797.39 330.176 Q1799.48 329.019 1802.18 329.019 Q1806.65 329.019 1808.94 331.797 Q1811.23 334.551 1811.23 339.921 Z" fill="#000000" fill-rule="evenodd" fill-opacity="1" /><polyline clip-path="url(#clip810)" style="stroke:#000000; stroke-width:4; stroke-opacity:1; fill:none" points="
  1519.75,398.77 1670.81,398.77 
  "/>
<path clip-path="url(#clip810)" d="M 0 0 M1716.33 395.101 Q1717.92 392.23 1720.15 390.865 Q1722.37 389.499 1725.38 389.499 Q1729.43 389.499 1731.63 392.346 Q1733.83 395.17 1733.83 400.401 L1733.83 416.05 L1729.54 416.05 L1729.54 400.54 Q1729.54 396.814 1728.23 395.008 Q1726.91 393.202 1724.2 393.202 Q1720.89 393.202 1718.97 395.402 Q1717.04 397.601 1717.04 401.397 L1717.04 416.05 L1712.76 416.05 L1712.76 400.54 Q1712.76 396.79 1711.44 395.008 Q1710.12 393.202 1707.37 393.202 Q1704.11 393.202 1702.18 395.425 Q1700.26 397.624 1700.26 401.397 L1700.26 416.05 L1695.98 416.05 L1695.98 390.124 L1700.26 390.124 L1700.26 394.152 Q1701.72 391.767 1703.76 390.633 Q1705.79 389.499 1708.6 389.499 Q1711.42 389.499 1713.39 390.934 Q1715.38 392.369 1716.33 395.101 Z" fill="#000000" fill-rule="evenodd" fill-opacity="1" /><path clip-path="url(#clip810)" d="M 0 0 M1760.47 402.022 L1760.47 404.105 L1740.89 404.105 Q1741.17 408.503 1743.53 410.818 Q1745.91 413.11 1750.15 413.11 Q1752.6 413.11 1754.89 412.508 Q1757.21 411.906 1759.48 410.702 L1759.48 414.73 Q1757.18 415.702 1754.78 416.212 Q1752.37 416.721 1749.89 416.721 Q1743.69 416.721 1740.05 413.11 Q1736.44 409.499 1736.44 403.341 Q1736.44 396.976 1739.87 393.249 Q1743.32 389.499 1749.15 389.499 Q1754.38 389.499 1757.42 392.878 Q1760.47 396.235 1760.47 402.022 M1756.21 400.772 Q1756.17 397.277 1754.24 395.193 Q1752.35 393.11 1749.2 393.11 Q1745.63 393.11 1743.48 395.124 Q1741.35 397.138 1741.03 400.795 L1756.21 400.772 Z" fill="#000000" fill-rule="evenodd" fill-opacity="1" /><path clip-path="url(#clip810)" d="M 0 0 M1782 394.059 L1782 380.031 L1786.26 380.031 L1786.26 416.05 L1782 416.05 L1782 412.161 Q1780.66 414.475 1778.6 415.61 Q1776.56 416.721 1773.69 416.721 Q1768.99 416.721 1766.03 412.971 Q1763.09 409.221 1763.09 403.11 Q1763.09 396.999 1766.03 393.249 Q1768.99 389.499 1773.69 389.499 Q1776.56 389.499 1778.6 390.633 Q1780.66 391.744 1782 394.059 M1767.48 403.11 Q1767.48 407.809 1769.41 410.494 Q1771.35 413.156 1774.73 413.156 Q1778.11 413.156 1780.05 410.494 Q1782 407.809 1782 403.11 Q1782 398.411 1780.05 395.749 Q1778.11 393.064 1774.73 393.064 Q1771.35 393.064 1769.41 395.749 Q1767.48 398.411 1767.48 403.11 Z" fill="#000000" fill-rule="evenodd" fill-opacity="1" /><path clip-path="url(#clip810)" d="M 0 0 M1790.73 390.124 L1794.98 390.124 L1794.98 416.05 L1790.73 416.05 L1790.73 390.124 M1790.73 380.031 L1794.98 380.031 L1794.98 385.425 L1790.73 385.425 L1790.73 380.031 Z" fill="#000000" fill-rule="evenodd" fill-opacity="1" /><path clip-path="url(#clip810)" d="M 0 0 M1811.23 403.017 Q1806.07 403.017 1804.08 404.198 Q1802.09 405.378 1802.09 408.226 Q1802.09 410.494 1803.57 411.837 Q1805.08 413.156 1807.65 413.156 Q1811.19 413.156 1813.32 410.656 Q1815.47 408.133 1815.47 403.966 L1815.47 403.017 L1811.23 403.017 M1819.73 401.258 L1819.73 416.05 L1815.47 416.05 L1815.47 412.114 Q1814.01 414.475 1811.84 415.61 Q1809.66 416.721 1806.51 416.721 Q1802.53 416.721 1800.17 414.499 Q1797.83 412.253 1797.83 408.503 Q1797.83 404.128 1800.75 401.906 Q1803.69 399.684 1809.5 399.684 L1815.47 399.684 L1815.47 399.267 Q1815.47 396.327 1813.53 394.73 Q1811.6 393.11 1808.11 393.11 Q1805.89 393.11 1803.78 393.642 Q1801.67 394.175 1799.73 395.239 L1799.73 391.304 Q1802.07 390.402 1804.27 389.962 Q1806.47 389.499 1808.55 389.499 Q1814.17 389.499 1816.95 392.415 Q1819.73 395.332 1819.73 401.258 Z" fill="#000000" fill-rule="evenodd" fill-opacity="1" /><path clip-path="url(#clip810)" d="M 0 0 M1845.75 400.401 L1845.75 416.05 L1841.49 416.05 L1841.49 400.54 Q1841.49 396.86 1840.05 395.031 Q1838.62 393.202 1835.75 393.202 Q1832.3 393.202 1830.31 395.402 Q1828.32 397.601 1828.32 401.397 L1828.32 416.05 L1824.04 416.05 L1824.04 390.124 L1828.32 390.124 L1828.32 394.152 Q1829.85 391.814 1831.91 390.656 Q1833.99 389.499 1836.7 389.499 Q1841.16 389.499 1843.46 392.277 Q1845.75 395.031 1845.75 400.401 Z" fill="#000000" fill-rule="evenodd" fill-opacity="1" /></svg>
