<?xml version="1.0" encoding="utf-8"?>
<svg xmlns="http://www.w3.org/2000/svg" xmlns:xlink="http://www.w3.org/1999/xlink" width="600" height="400" viewBox="0 0 2400 1600">
<defs>
  <clipPath id="clip820">
    <rect x="0" y="0" width="2400" height="1600"/>
  </clipPath>
</defs>
<path clip-path="url(#clip820)" d="
M0 1600 L2400 1600 L2400 0 L0 0  Z
  " fill="#ffffff" fill-rule="evenodd" fill-opacity="1"/>
<defs>
  <clipPath id="clip821">
    <rect x="480" y="0" width="1681" height="1600"/>
  </clipPath>
</defs>
<path clip-path="url(#clip820)" d="
M86.9921 1521.01 L2352.76 1521.01 L2352.76 47.2441 L86.9921 47.2441  Z
  " fill="#ffffff" fill-rule="evenodd" fill-opacity="1"/>
<defs>
  <clipPath id="clip822">
    <rect x="86" y="47" width="2267" height="1475"/>
  </clipPath>
</defs>
<polyline clip-path="url(#clip822)" style="stroke:#000000; stroke-width:2; stroke-opacity:0.1; fill:none" points="
  146.755,1521.01 146.755,47.2441 
  "/>
<polyline clip-path="url(#clip822)" style="stroke:#000000; stroke-width:2; stroke-opacity:0.1; fill:none" points="
  624.507,1521.01 624.507,47.2441 
  "/>
<polyline clip-path="url(#clip822)" style="stroke:#000000; stroke-width:2; stroke-opacity:0.1; fill:none" points="
  1102.26,1521.01 1102.26,47.2441 
  "/>
<polyline clip-path="url(#clip822)" style="stroke:#000000; stroke-width:2; stroke-opacity:0.1; fill:none" points="
  1580.01,1521.01 1580.01,47.2441 
  "/>
<polyline clip-path="url(#clip822)" style="stroke:#000000; stroke-width:2; stroke-opacity:0.1; fill:none" points="
  2057.76,1521.01 2057.76,47.2441 
  "/>
<polyline clip-path="url(#clip822)" style="stroke:#000000; stroke-width:2; stroke-opacity:0.1; fill:none" points="
  86.9921,1479.3 2352.76,1479.3 
  "/>
<polyline clip-path="url(#clip822)" style="stroke:#000000; stroke-width:2; stroke-opacity:0.1; fill:none" points="
  86.9921,1087.26 2352.76,1087.26 
  "/>
<polyline clip-path="url(#clip822)" style="stroke:#000000; stroke-width:2; stroke-opacity:0.1; fill:none" points="
  86.9921,695.213 2352.76,695.213 
  "/>
<polyline clip-path="url(#clip822)" style="stroke:#000000; stroke-width:2; stroke-opacity:0.1; fill:none" points="
  86.9921,303.171 2352.76,303.171 
  "/>
<polyline clip-path="url(#clip820)" style="stroke:#000000; stroke-width:4; stroke-opacity:1; fill:none" points="
  86.9921,1521.01 2352.76,1521.01 
  "/>
<polyline clip-path="url(#clip820)" style="stroke:#000000; stroke-width:4; stroke-opacity:1; fill:none" points="
  86.9921,1521.01 86.9921,47.2441 
  "/>
<polyline clip-path="url(#clip820)" style="stroke:#000000; stroke-width:4; stroke-opacity:1; fill:none" points="
  146.755,1521.01 146.755,1503.32 
  "/>
<polyline clip-path="url(#clip820)" style="stroke:#000000; stroke-width:4; stroke-opacity:1; fill:none" points="
  624.507,1521.01 624.507,1503.32 
  "/>
<polyline clip-path="url(#clip820)" style="stroke:#000000; stroke-width:4; stroke-opacity:1; fill:none" points="
  1102.26,1521.01 1102.26,1503.32 
  "/>
<polyline clip-path="url(#clip820)" style="stroke:#000000; stroke-width:4; stroke-opacity:1; fill:none" points="
  1580.01,1521.01 1580.01,1503.32 
  "/>
<polyline clip-path="url(#clip820)" style="stroke:#000000; stroke-width:4; stroke-opacity:1; fill:none" points="
  2057.76,1521.01 2057.76,1503.32 
  "/>
<polyline clip-path="url(#clip820)" style="stroke:#000000; stroke-width:4; stroke-opacity:1; fill:none" points="
  86.9921,1479.3 114.181,1479.3 
  "/>
<polyline clip-path="url(#clip820)" style="stroke:#000000; stroke-width:4; stroke-opacity:1; fill:none" points="
  86.9921,1087.26 114.181,1087.26 
  "/>
<polyline clip-path="url(#clip820)" style="stroke:#000000; stroke-width:4; stroke-opacity:1; fill:none" points="
  86.9921,695.213 114.181,695.213 
  "/>
<polyline clip-path="url(#clip820)" style="stroke:#000000; stroke-width:4; stroke-opacity:1; fill:none" points="
  86.9921,303.171 114.181,303.171 
  "/>
<path clip-path="url(#clip820)" d="M 0 0 M95.8182 1559.6 L108.295 1559.6 L108.295 1563.39 L95.8182 1563.39 L95.8182 1559.6 Z" fill="#000000" fill-rule="evenodd" fill-opacity="1" /><path clip-path="url(#clip820)" d="M 0 0 M123.364 1543 Q119.753 1543 117.925 1546.56 Q116.119 1550.11 116.119 1557.23 Q116.119 1564.34 117.925 1567.91 Q119.753 1571.45 123.364 1571.45 Q126.999 1571.45 128.804 1567.91 Q130.633 1564.34 130.633 1557.23 Q130.633 1550.11 128.804 1546.56 Q126.999 1543 123.364 1543 M123.364 1539.29 Q129.175 1539.29 132.23 1543.9 Q135.309 1548.48 135.309 1557.23 Q135.309 1565.96 132.23 1570.57 Q129.175 1575.15 123.364 1575.15 Q117.554 1575.15 114.476 1570.57 Q111.42 1565.96 111.42 1557.23 Q111.42 1548.48 114.476 1543.9 Q117.554 1539.29 123.364 1539.29 Z" fill="#000000" fill-rule="evenodd" fill-opacity="1" /><path clip-path="url(#clip820)" d="M 0 0 M140.378 1568.6 L145.262 1568.6 L145.262 1574.48 L140.378 1574.48 L140.378 1568.6 Z" fill="#000000" fill-rule="evenodd" fill-opacity="1" /><path clip-path="url(#clip820)" d="M 0 0 M160.332 1543 Q156.721 1543 154.892 1546.56 Q153.086 1550.11 153.086 1557.23 Q153.086 1564.34 154.892 1567.91 Q156.721 1571.45 160.332 1571.45 Q163.966 1571.45 165.772 1567.91 Q167.6 1564.34 167.6 1557.23 Q167.6 1550.11 165.772 1546.56 Q163.966 1543 160.332 1543 M160.332 1539.29 Q166.142 1539.29 169.197 1543.9 Q172.276 1548.48 172.276 1557.23 Q172.276 1565.96 169.197 1570.57 Q166.142 1575.15 160.332 1575.15 Q154.522 1575.15 151.443 1570.57 Q148.387 1565.96 148.387 1557.23 Q148.387 1548.48 151.443 1543.9 Q154.522 1539.29 160.332 1539.29 Z" fill="#000000" fill-rule="evenodd" fill-opacity="1" /><path clip-path="url(#clip820)" d="M 0 0 M181.373 1570.54 L197.693 1570.54 L197.693 1574.48 L175.748 1574.48 L175.748 1570.54 Q178.41 1567.79 182.994 1563.16 Q187.6 1558.51 188.781 1557.17 Q191.026 1554.64 191.906 1552.91 Q192.808 1551.15 192.808 1549.46 Q192.808 1546.7 190.864 1544.97 Q188.943 1543.23 185.841 1543.23 Q183.642 1543.23 181.188 1543.99 Q178.758 1544.76 175.98 1546.31 L175.98 1541.59 Q178.804 1540.45 181.258 1539.87 Q183.711 1539.29 185.748 1539.29 Q191.119 1539.29 194.313 1541.98 Q197.508 1544.67 197.508 1549.16 Q197.508 1551.29 196.697 1553.21 Q195.91 1555.1 193.804 1557.7 Q193.225 1558.37 190.123 1561.59 Q187.021 1564.78 181.373 1570.54 Z" fill="#000000" fill-rule="evenodd" fill-opacity="1" /><path clip-path="url(#clip820)" d="M 0 0 M573.384 1559.6 L585.861 1559.6 L585.861 1563.39 L573.384 1563.39 L573.384 1559.6 Z" fill="#000000" fill-rule="evenodd" fill-opacity="1" /><path clip-path="url(#clip820)" d="M 0 0 M600.931 1543 Q597.319 1543 595.491 1546.56 Q593.685 1550.11 593.685 1557.23 Q593.685 1564.34 595.491 1567.91 Q597.319 1571.45 600.931 1571.45 Q604.565 1571.45 606.37 1567.91 Q608.199 1564.34 608.199 1557.23 Q608.199 1550.11 606.37 1546.56 Q604.565 1543 600.931 1543 M600.931 1539.29 Q606.741 1539.29 609.796 1543.9 Q612.875 1548.48 612.875 1557.23 Q612.875 1565.96 609.796 1570.57 Q606.741 1575.15 600.931 1575.15 Q595.12 1575.15 592.042 1570.57 Q588.986 1565.96 588.986 1557.23 Q588.986 1548.48 592.042 1543.9 Q595.12 1539.29 600.931 1539.29 Z" fill="#000000" fill-rule="evenodd" fill-opacity="1" /><path clip-path="url(#clip820)" d="M 0 0 M617.944 1568.6 L622.829 1568.6 L622.829 1574.48 L617.944 1574.48 L617.944 1568.6 Z" fill="#000000" fill-rule="evenodd" fill-opacity="1" /><path clip-path="url(#clip820)" d="M 0 0 M637.898 1543 Q634.287 1543 632.458 1546.56 Q630.653 1550.11 630.653 1557.23 Q630.653 1564.34 632.458 1567.91 Q634.287 1571.45 637.898 1571.45 Q641.532 1571.45 643.338 1567.91 Q645.166 1564.34 645.166 1557.23 Q645.166 1550.11 643.338 1546.56 Q641.532 1543 637.898 1543 M637.898 1539.29 Q643.708 1539.29 646.764 1543.9 Q649.842 1548.48 649.842 1557.23 Q649.842 1565.96 646.764 1570.57 Q643.708 1575.15 637.898 1575.15 Q632.088 1575.15 629.009 1570.57 Q625.954 1565.96 625.954 1557.23 Q625.954 1548.48 629.009 1543.9 Q632.088 1539.29 637.898 1539.29 Z" fill="#000000" fill-rule="evenodd" fill-opacity="1" /><path clip-path="url(#clip820)" d="M 0 0 M655.722 1570.54 L663.361 1570.54 L663.361 1544.18 L655.051 1545.85 L655.051 1541.59 L663.314 1539.92 L667.99 1539.92 L667.99 1570.54 L675.629 1570.54 L675.629 1574.48 L655.722 1574.48 L655.722 1570.54 Z" fill="#000000" fill-rule="evenodd" fill-opacity="1" /><path clip-path="url(#clip820)" d="M 0 0 M1070.27 1543 Q1066.66 1543 1064.83 1546.56 Q1063.02 1550.11 1063.02 1557.23 Q1063.02 1564.34 1064.83 1567.91 Q1066.66 1571.45 1070.27 1571.45 Q1073.9 1571.45 1075.71 1567.91 Q1077.54 1564.34 1077.54 1557.23 Q1077.54 1550.11 1075.71 1546.56 Q1073.9 1543 1070.27 1543 M1070.27 1539.29 Q1076.08 1539.29 1079.13 1543.9 Q1082.21 1548.48 1082.21 1557.23 Q1082.21 1565.96 1079.13 1570.57 Q1076.08 1575.15 1070.27 1575.15 Q1064.46 1575.15 1061.38 1570.57 Q1058.32 1565.96 1058.32 1557.23 Q1058.32 1548.48 1061.38 1543.9 Q1064.46 1539.29 1070.27 1539.29 Z" fill="#000000" fill-rule="evenodd" fill-opacity="1" /><path clip-path="url(#clip820)" d="M 0 0 M1087.28 1568.6 L1092.17 1568.6 L1092.17 1574.48 L1087.28 1574.48 L1087.28 1568.6 Z" fill="#000000" fill-rule="evenodd" fill-opacity="1" /><path clip-path="url(#clip820)" d="M 0 0 M1107.23 1543 Q1103.62 1543 1101.8 1546.56 Q1099.99 1550.11 1099.99 1557.23 Q1099.99 1564.34 1101.8 1567.91 Q1103.62 1571.45 1107.23 1571.45 Q1110.87 1571.45 1112.67 1567.91 Q1114.5 1564.34 1114.5 1557.23 Q1114.5 1550.11 1112.67 1546.56 Q1110.87 1543 1107.23 1543 M1107.23 1539.29 Q1113.05 1539.29 1116.1 1543.9 Q1119.18 1548.48 1119.18 1557.23 Q1119.18 1565.96 1116.1 1570.57 Q1113.05 1575.15 1107.23 1575.15 Q1101.42 1575.15 1098.35 1570.57 Q1095.29 1565.96 1095.29 1557.23 Q1095.29 1548.48 1098.35 1543.9 Q1101.42 1539.29 1107.23 1539.29 Z" fill="#000000" fill-rule="evenodd" fill-opacity="1" /><path clip-path="url(#clip820)" d="M 0 0 M1134.25 1543 Q1130.64 1543 1128.81 1546.56 Q1127 1550.11 1127 1557.23 Q1127 1564.34 1128.81 1567.91 Q1130.64 1571.45 1134.25 1571.45 Q1137.88 1571.45 1139.69 1567.91 Q1141.52 1564.34 1141.52 1557.23 Q1141.52 1550.11 1139.69 1546.56 Q1137.88 1543 1134.25 1543 M1134.25 1539.29 Q1140.06 1539.29 1143.11 1543.9 Q1146.19 1548.48 1146.19 1557.23 Q1146.19 1565.96 1143.11 1570.57 Q1140.06 1575.15 1134.25 1575.15 Q1128.44 1575.15 1125.36 1570.57 Q1122.3 1565.96 1122.3 1557.23 Q1122.3 1548.48 1125.36 1543.9 Q1128.44 1539.29 1134.25 1539.29 Z" fill="#000000" fill-rule="evenodd" fill-opacity="1" /><path clip-path="url(#clip820)" d="M 0 0 M1548.63 1543 Q1545.02 1543 1543.19 1546.56 Q1541.39 1550.11 1541.39 1557.23 Q1541.39 1564.34 1543.19 1567.91 Q1545.02 1571.45 1548.63 1571.45 Q1552.27 1571.45 1554.07 1567.91 Q1555.9 1564.34 1555.9 1557.23 Q1555.9 1550.11 1554.07 1546.56 Q1552.27 1543 1548.63 1543 M1548.63 1539.29 Q1554.44 1539.29 1557.5 1543.9 Q1560.58 1548.48 1560.58 1557.23 Q1560.58 1565.96 1557.5 1570.57 Q1554.44 1575.15 1548.63 1575.15 Q1542.82 1575.15 1539.74 1570.57 Q1536.69 1565.96 1536.69 1557.23 Q1536.69 1548.48 1539.74 1543.9 Q1542.82 1539.29 1548.63 1539.29 Z" fill="#000000" fill-rule="evenodd" fill-opacity="1" /><path clip-path="url(#clip820)" d="M 0 0 M1565.65 1568.6 L1570.53 1568.6 L1570.53 1574.48 L1565.65 1574.48 L1565.65 1568.6 Z" fill="#000000" fill-rule="evenodd" fill-opacity="1" /><path clip-path="url(#clip820)" d="M 0 0 M1585.6 1543 Q1581.99 1543 1580.16 1546.56 Q1578.35 1550.11 1578.35 1557.23 Q1578.35 1564.34 1580.16 1567.91 Q1581.99 1571.45 1585.6 1571.45 Q1589.23 1571.45 1591.04 1567.91 Q1592.87 1564.34 1592.87 1557.23 Q1592.87 1550.11 1591.04 1546.56 Q1589.23 1543 1585.6 1543 M1585.6 1539.29 Q1591.41 1539.29 1594.47 1543.9 Q1597.54 1548.48 1597.54 1557.23 Q1597.54 1565.96 1594.47 1570.57 Q1591.41 1575.15 1585.6 1575.15 Q1579.79 1575.15 1576.71 1570.57 Q1573.66 1565.96 1573.66 1557.23 Q1573.66 1548.48 1576.71 1543.9 Q1579.79 1539.29 1585.6 1539.29 Z" fill="#000000" fill-rule="evenodd" fill-opacity="1" /><path clip-path="url(#clip820)" d="M 0 0 M1603.42 1570.54 L1611.06 1570.54 L1611.06 1544.18 L1602.75 1545.85 L1602.75 1541.59 L1611.02 1539.92 L1615.69 1539.92 L1615.69 1570.54 L1623.33 1570.54 L1623.33 1574.48 L1603.42 1574.48 L1603.42 1570.54 Z" fill="#000000" fill-rule="evenodd" fill-opacity="1" /><path clip-path="url(#clip820)" d="M 0 0 M2026.57 1543 Q2022.96 1543 2021.13 1546.56 Q2019.32 1550.11 2019.32 1557.23 Q2019.32 1564.34 2021.13 1567.91 Q2022.96 1571.45 2026.57 1571.45 Q2030.2 1571.45 2032.01 1567.91 Q2033.84 1564.34 2033.84 1557.23 Q2033.84 1550.11 2032.01 1546.56 Q2030.2 1543 2026.57 1543 M2026.57 1539.29 Q2032.38 1539.29 2035.43 1543.9 Q2038.51 1548.48 2038.51 1557.23 Q2038.51 1565.96 2035.43 1570.57 Q2032.38 1575.15 2026.57 1575.15 Q2020.76 1575.15 2017.68 1570.57 Q2014.62 1565.96 2014.62 1557.23 Q2014.62 1548.48 2017.68 1543.9 Q2020.76 1539.29 2026.57 1539.29 Z" fill="#000000" fill-rule="evenodd" fill-opacity="1" /><path clip-path="url(#clip820)" d="M 0 0 M2043.58 1568.6 L2048.47 1568.6 L2048.47 1574.48 L2043.58 1574.48 L2043.58 1568.6 Z" fill="#000000" fill-rule="evenodd" fill-opacity="1" /><path clip-path="url(#clip820)" d="M 0 0 M2063.54 1543 Q2059.93 1543 2058.1 1546.56 Q2056.29 1550.11 2056.29 1557.23 Q2056.29 1564.34 2058.1 1567.91 Q2059.93 1571.45 2063.54 1571.45 Q2067.17 1571.45 2068.98 1567.91 Q2070.8 1564.34 2070.8 1557.23 Q2070.8 1550.11 2068.98 1546.56 Q2067.17 1543 2063.54 1543 M2063.54 1539.29 Q2069.35 1539.29 2072.4 1543.9 Q2075.48 1548.48 2075.48 1557.23 Q2075.48 1565.96 2072.4 1570.57 Q2069.35 1575.15 2063.54 1575.15 Q2057.73 1575.15 2054.65 1570.57 Q2051.59 1565.96 2051.59 1557.23 Q2051.59 1548.48 2054.65 1543.9 Q2057.73 1539.29 2063.54 1539.29 Z" fill="#000000" fill-rule="evenodd" fill-opacity="1" /><path clip-path="url(#clip820)" d="M 0 0 M2084.58 1570.54 L2100.9 1570.54 L2100.9 1574.48 L2078.95 1574.48 L2078.95 1570.54 Q2081.61 1567.79 2086.2 1563.16 Q2090.8 1558.51 2091.99 1557.17 Q2094.23 1554.64 2095.11 1552.91 Q2096.01 1551.15 2096.01 1549.46 Q2096.01 1546.7 2094.07 1544.97 Q2092.15 1543.23 2089.05 1543.23 Q2086.85 1543.23 2084.39 1543.99 Q2081.96 1544.76 2079.18 1546.31 L2079.18 1541.59 Q2082.01 1540.45 2084.46 1539.87 Q2086.92 1539.29 2088.95 1539.29 Q2094.32 1539.29 2097.52 1541.98 Q2100.71 1544.67 2100.71 1549.16 Q2100.71 1551.29 2099.9 1553.21 Q2099.11 1555.1 2097.01 1557.7 Q2096.43 1558.37 2093.33 1561.59 Q2090.23 1564.78 2084.58 1570.54 Z" fill="#000000" fill-rule="evenodd" fill-opacity="1" /><path clip-path="url(#clip820)" d="M 0 0 M51.0477 1465.1 Q47.4367 1465.1 45.608 1468.66 Q43.8024 1472.2 43.8024 1479.33 Q43.8024 1486.44 45.608 1490 Q47.4367 1493.55 51.0477 1493.55 Q54.682 1493.55 56.4875 1490 Q58.3162 1486.44 58.3162 1479.33 Q58.3162 1472.2 56.4875 1468.66 Q54.682 1465.1 51.0477 1465.1 M51.0477 1461.39 Q56.8579 1461.39 59.9134 1466 Q62.9921 1470.58 62.9921 1479.33 Q62.9921 1488.06 59.9134 1492.67 Q56.8579 1497.25 51.0477 1497.25 Q45.2376 1497.25 42.1589 1492.67 Q39.1034 1488.06 39.1034 1479.33 Q39.1034 1470.58 42.1589 1466 Q45.2376 1461.39 51.0477 1461.39 Z" fill="#000000" fill-rule="evenodd" fill-opacity="1" /><path clip-path="url(#clip820)" d="M 0 0 M19.659 1100.6 L35.9784 1100.6 L35.9784 1104.54 L14.0341 1104.54 L14.0341 1100.6 Q16.6961 1097.85 21.2794 1093.22 Q25.8858 1088.56 27.0664 1087.22 Q29.3118 1084.7 30.1914 1082.96 Q31.0941 1081.2 31.0941 1079.51 Q31.0941 1076.76 29.1497 1075.02 Q27.2284 1073.29 24.1266 1073.29 Q21.9275 1073.29 19.4738 1074.05 Q17.0433 1074.81 14.2655 1076.36 L14.2655 1071.64 Q17.0896 1070.51 19.5433 1069.93 Q21.997 1069.35 24.034 1069.35 Q29.4043 1069.35 32.5988 1072.04 Q35.7932 1074.72 35.7932 1079.21 Q35.7932 1081.34 34.983 1083.26 Q34.196 1085.16 32.0895 1087.75 Q31.5108 1088.42 28.409 1091.64 Q25.3071 1094.84 19.659 1100.6 Z" fill="#000000" fill-rule="evenodd" fill-opacity="1" /><path clip-path="url(#clip820)" d="M 0 0 M51.0477 1073.05 Q47.4367 1073.05 45.608 1076.62 Q43.8024 1080.16 43.8024 1087.29 Q43.8024 1094.4 45.608 1097.96 Q47.4367 1101.5 51.0477 1101.5 Q54.682 1101.5 56.4875 1097.96 Q58.3162 1094.4 58.3162 1087.29 Q58.3162 1080.16 56.4875 1076.62 Q54.682 1073.05 51.0477 1073.05 M51.0477 1069.35 Q56.8579 1069.35 59.9134 1073.96 Q62.9921 1078.54 62.9921 1087.29 Q62.9921 1096.02 59.9134 1100.62 Q56.8579 1105.21 51.0477 1105.21 Q45.2376 1105.21 42.1589 1100.62 Q39.1034 1096.02 39.1034 1087.29 Q39.1034 1078.54 42.1589 1073.96 Q45.2376 1069.35 51.0477 1069.35 Z" fill="#000000" fill-rule="evenodd" fill-opacity="1" /><path clip-path="url(#clip820)" d="M 0 0 M26.3951 682.007 L14.5896 700.456 L26.3951 700.456 L26.3951 682.007 M25.1683 677.933 L31.0479 677.933 L31.0479 700.456 L35.9784 700.456 L35.9784 704.345 L31.0479 704.345 L31.0479 712.493 L26.3951 712.493 L26.3951 704.345 L10.7933 704.345 L10.7933 699.831 L25.1683 677.933 Z" fill="#000000" fill-rule="evenodd" fill-opacity="1" /><path clip-path="url(#clip820)" d="M 0 0 M51.0477 681.012 Q47.4367 681.012 45.608 684.576 Q43.8024 688.118 43.8024 695.248 Q43.8024 702.354 45.608 705.919 Q47.4367 709.461 51.0477 709.461 Q54.682 709.461 56.4875 705.919 Q58.3162 702.354 58.3162 695.248 Q58.3162 688.118 56.4875 684.576 Q54.682 681.012 51.0477 681.012 M51.0477 677.308 Q56.8579 677.308 59.9134 681.914 Q62.9921 686.498 62.9921 695.248 Q62.9921 703.974 59.9134 708.581 Q56.8579 713.164 51.0477 713.164 Q45.2376 713.164 42.1589 708.581 Q39.1034 703.974 39.1034 695.248 Q39.1034 686.498 42.1589 681.914 Q45.2376 677.308 51.0477 677.308 Z" fill="#000000" fill-rule="evenodd" fill-opacity="1" /><path clip-path="url(#clip820)" d="M 0 0 M24.4507 301.307 Q21.3025 301.307 19.4507 303.46 Q17.622 305.613 17.622 309.363 Q17.622 313.09 19.4507 315.265 Q21.3025 317.418 24.4507 317.418 Q27.5988 317.418 29.4275 315.265 Q31.2793 313.09 31.2793 309.363 Q31.2793 305.613 29.4275 303.46 Q27.5988 301.307 24.4507 301.307 M33.733 286.655 L33.733 290.914 Q31.9738 290.08 30.1682 289.641 Q28.3858 289.201 26.6266 289.201 Q21.997 289.201 19.5433 292.326 Q17.1127 295.451 16.7655 301.77 Q18.1313 299.756 20.1914 298.692 Q22.2516 297.604 24.7284 297.604 Q29.9367 297.604 32.946 300.775 Q35.9784 303.923 35.9784 309.363 Q35.9784 314.687 32.8303 317.904 Q29.6821 321.122 24.4507 321.122 Q18.4553 321.122 15.284 316.539 Q12.1128 311.932 12.1128 303.205 Q12.1128 295.011 16.0016 290.15 Q19.8905 285.266 26.4414 285.266 Q28.2006 285.266 29.983 285.613 Q31.7886 285.96 33.733 286.655 Z" fill="#000000" fill-rule="evenodd" fill-opacity="1" /><path clip-path="url(#clip820)" d="M 0 0 M51.0477 288.969 Q47.4367 288.969 45.608 292.534 Q43.8024 296.076 43.8024 303.205 Q43.8024 310.312 45.608 313.877 Q47.4367 317.418 51.0477 317.418 Q54.682 317.418 56.4875 313.877 Q58.3162 310.312 58.3162 303.205 Q58.3162 296.076 56.4875 292.534 Q54.682 288.969 51.0477 288.969 M51.0477 285.266 Q56.8579 285.266 59.9134 289.872 Q62.9921 294.455 62.9921 303.205 Q62.9921 311.932 59.9134 316.539 Q56.8579 321.122 51.0477 321.122 Q45.2376 321.122 42.1589 316.539 Q39.1034 311.932 39.1034 303.205 Q39.1034 294.455 42.1589 289.872 Q45.2376 285.266 51.0477 285.266 Z" fill="#000000" fill-rule="evenodd" fill-opacity="1" /><path clip-path="url(#clip822)" d="
M151.118 1448.47 L157.075 1445.6 L163.033 1442.98 L168.991 1440.66 L174.948 1438.7 L180.906 1437.11 L186.864 1435.9 L192.822 1435.05 L198.779 1434.55 L204.737 1434.35 
  L210.695 1434.43 L216.653 1434.74 L222.61 1435.27 L228.568 1436 L234.526 1436.91 L240.484 1437.98 L246.441 1439.22 L252.399 1440.62 L258.357 1442.15 L264.315 1443.8 
  L270.272 1445.54 L276.23 1447.31 L282.188 1449.07 L288.146 1450.76 L294.103 1452.32 L300.061 1453.7 L306.019 1454.83 L311.977 1455.68 L317.934 1456.21 L323.892 1456.42 
  L329.85 1456.29 L335.808 1455.85 L341.765 1455.11 L347.723 1454.12 L353.681 1452.92 L359.639 1451.55 L365.596 1450.08 L371.554 1448.53 L377.512 1446.97 L383.47 1445.43 
  L389.427 1443.94 L395.385 1442.53 L401.343 1441.2 L407.301 1439.95 L413.258 1438.78 L419.216 1437.67 L425.174 1436.57 L431.132 1435.46 L437.089 1434.28 L443.047 1432.99 
  L449.005 1431.53 L454.963 1429.88 L460.92 1427.98 L466.878 1425.82 L472.836 1423.39 L478.793 1420.7 L484.751 1417.78 L490.709 1414.66 L496.667 1411.4 L502.624 1408.07 
  L508.582 1404.74 L514.54 1401.45 L520.498 1398.27 L526.455 1395.24 L532.413 1392.36 L538.371 1389.64 L544.329 1387.04 L550.286 1384.53 L556.244 1382.06 L562.202 1379.57 
  L568.16 1377 L574.117 1374.32 L580.075 1371.5 L586.033 1368.54 L591.991 1365.44 L597.948 1362.23 L603.906 1358.94 L609.864 1355.59 L615.822 1352.2 L621.779 1348.79 
  L627.737 1345.37 L633.695 1341.91 L639.653 1338.4 L645.61 1334.81 L651.568 1331.11 L657.526 1327.26 L663.484 1323.26 L669.441 1319.07 L675.399 1314.7 L681.357 1310.16 
  L687.315 1305.46 L693.272 1300.66 L699.23 1295.78 L705.188 1290.9 L711.146 1286.09 L717.103 1281.4 L723.061 1276.91 L729.019 1272.68 L734.977 1268.77 L740.934 1265.21 
  L740.934 1479.3 L734.977 1479.3 L729.019 1479.3 L723.061 1479.3 L717.103 1479.3 L711.146 1479.3 L705.188 1479.3 L699.23 1479.3 L693.272 1479.3 L687.315 1479.3 
  L681.357 1479.3 L675.399 1479.3 L669.441 1479.3 L663.484 1479.3 L657.526 1479.3 L651.568 1479.3 L645.61 1479.3 L639.653 1479.3 L633.695 1479.3 L627.737 1479.3 
  L621.779 1479.3 L615.822 1479.3 L609.864 1479.3 L603.906 1479.3 L597.948 1479.3 L591.991 1479.3 L586.033 1479.3 L580.075 1479.3 L574.117 1479.3 L568.16 1479.3 
  L562.202 1479.3 L556.244 1479.3 L550.286 1479.3 L544.329 1479.3 L538.371 1479.3 L532.413 1479.3 L526.455 1479.3 L520.498 1479.3 L514.54 1479.3 L508.582 1479.3 
  L502.624 1479.3 L496.667 1479.3 L490.709 1479.3 L484.751 1479.3 L478.793 1479.3 L472.836 1479.3 L466.878 1479.3 L460.92 1479.3 L454.963 1479.3 L449.005 1479.3 
  L443.047 1479.3 L437.089 1479.3 L431.132 1479.3 L425.174 1479.3 L419.216 1479.3 L413.258 1479.3 L407.301 1479.3 L401.343 1479.3 L395.385 1479.3 L389.427 1479.3 
  L383.47 1479.3 L377.512 1479.3 L371.554 1479.3 L365.596 1479.3 L359.639 1479.3 L353.681 1479.3 L347.723 1479.3 L341.765 1479.3 L335.808 1479.3 L329.85 1479.3 
  L323.892 1479.3 L317.934 1479.3 L311.977 1479.3 L306.019 1479.3 L300.061 1479.3 L294.103 1479.3 L288.146 1479.3 L282.188 1479.3 L276.23 1479.3 L270.272 1479.3 
  L264.315 1479.3 L258.357 1479.3 L252.399 1479.3 L246.441 1479.3 L240.484 1479.3 L234.526 1479.3 L228.568 1479.3 L222.61 1479.3 L216.653 1479.3 L210.695 1479.3 
  L204.737 1479.3 L198.779 1479.3 L192.822 1479.3 L186.864 1479.3 L180.906 1479.3 L174.948 1479.3 L168.991 1479.3 L163.033 1479.3 L157.075 1479.3 L151.118 1479.3 
   Z
  " fill="#ffa500" fill-rule="evenodd" fill-opacity="0.5"/>
<polyline clip-path="url(#clip822)" style="stroke:#ffa500; stroke-width:4; stroke-opacity:1; fill:none" points="
  151.118,1448.47 157.075,1445.6 163.033,1442.98 168.991,1440.66 174.948,1438.7 180.906,1437.11 186.864,1435.9 192.822,1435.05 198.779,1434.55 204.737,1434.35 
  210.695,1434.43 216.653,1434.74 222.61,1435.27 228.568,1436 234.526,1436.91 240.484,1437.98 246.441,1439.22 252.399,1440.62 258.357,1442.15 264.315,1443.8 
  270.272,1445.54 276.23,1447.31 282.188,1449.07 288.146,1450.76 294.103,1452.32 300.061,1453.7 306.019,1454.83 311.977,1455.68 317.934,1456.21 323.892,1456.42 
  329.85,1456.29 335.808,1455.85 341.765,1455.11 347.723,1454.12 353.681,1452.92 359.639,1451.55 365.596,1450.08 371.554,1448.53 377.512,1446.97 383.47,1445.43 
  389.427,1443.94 395.385,1442.53 401.343,1441.2 407.301,1439.95 413.258,1438.78 419.216,1437.67 425.174,1436.57 431.132,1435.46 437.089,1434.28 443.047,1432.99 
  449.005,1431.53 454.963,1429.88 460.92,1427.98 466.878,1425.82 472.836,1423.39 478.793,1420.7 484.751,1417.78 490.709,1414.66 496.667,1411.4 502.624,1408.07 
  508.582,1404.74 514.54,1401.45 520.498,1398.27 526.455,1395.24 532.413,1392.36 538.371,1389.64 544.329,1387.04 550.286,1384.53 556.244,1382.06 562.202,1379.57 
  568.16,1377 574.117,1374.32 580.075,1371.5 586.033,1368.54 591.991,1365.44 597.948,1362.23 603.906,1358.94 609.864,1355.59 615.822,1352.2 621.779,1348.79 
  627.737,1345.37 633.695,1341.91 639.653,1338.4 645.61,1334.81 651.568,1331.11 657.526,1327.26 663.484,1323.26 669.441,1319.07 675.399,1314.7 681.357,1310.16 
  687.315,1305.46 693.272,1300.66 699.23,1295.78 705.188,1290.9 711.146,1286.09 717.103,1281.4 723.061,1276.91 729.019,1272.68 734.977,1268.77 740.934,1265.21 
  
  "/>
<path clip-path="url(#clip822)" d="
M740.934 1265.21 L752.384 1259.43 L763.834 1255.03 L775.283 1251.79 L786.733 1249.32 L798.182 1247.13 L809.632 1244.66 L821.082 1241.31 L832.531 1236.54 L843.981 1229.88 
  L855.43 1221.02 L866.88 1209.82 L878.33 1196.33 L889.779 1180.81 L901.229 1163.74 L912.679 1145.9 L924.128 1128.35 L935.578 1112.34 L947.027 1099.1 L958.477 1089.54 
  L969.927 1083.91 L981.376 1081.6 L992.826 1081.2 L1004.28 1080.75 L1015.73 1078.18 L1027.17 1071.65 L1038.62 1059.74 L1050.07 1041.37 L1061.52 1015.59 L1072.97 981.477 
  L1084.42 938.33 L1095.87 886.12 L1107.32 826.015 L1118.77 760.577 L1130.22 693.431 L1141.67 628.461 L1153.12 568.88 L1164.57 516.559 L1176.02 471.839 L1187.47 433.78 
  L1198.92 400.638 L1210.37 370.338 L1221.82 340.879 L1233.27 310.684 L1244.72 278.931 L1256.17 245.782 L1267.62 212.364 L1279.07 180.415 L1290.52 151.712 L1301.97 127.562 
  L1313.42 108.69 L1324.87 95.57 L1336.31 88.9544 L1347.76 90.0985 L1359.21 100.372 L1370.66 120.349 L1382.11 148.914 L1393.56 183.008 L1405.01 218.33 L1416.46 250.707 
  L1427.91 277.449 L1439.36 297.998 L1450.81 313.587 L1462.26 326.226 L1473.71 337.649 L1485.16 348.796 L1496.61 360 L1508.06 371.594 L1519.51 384.441 L1530.96 400.053 
  L1542.41 420.215 L1553.86 446.356 L1565.31 478.98 L1576.76 517.389 L1588.21 559.795 L1599.66 603.751 L1611.11 646.764 L1622.56 686.879 L1634 723.012 L1645.45 754.953 
  L1656.9 783.09 L1668.35 808.097 L1679.8 830.777 L1691.25 852.102 L1702.7 873.283 L1714.15 895.633 L1725.6 920.158 L1737.05 947.047 L1748.5 975.362 L1759.95 1003.17 
  L1771.4 1028.14 L1782.85 1048.33 L1794.3 1062.87 L1805.75 1072.39 L1817.2 1078.85 L1828.65 1085.04 L1840.1 1093.87 L1851.55 1107.53 L1863 1126.9 L1874.45 1151.33 
  L1874.45 1479.3 L1863 1479.3 L1851.55 1479.3 L1840.1 1479.3 L1828.65 1479.3 L1817.2 1479.3 L1805.75 1479.3 L1794.3 1479.3 L1782.85 1479.3 L1771.4 1479.3 
  L1759.95 1479.3 L1748.5 1479.3 L1737.05 1479.3 L1725.6 1479.3 L1714.15 1479.3 L1702.7 1479.3 L1691.25 1479.3 L1679.8 1479.3 L1668.35 1479.3 L1656.9 1479.3 
  L1645.45 1479.3 L1634 1479.3 L1622.56 1479.3 L1611.11 1479.3 L1599.66 1479.3 L1588.21 1479.3 L1576.76 1479.3 L1565.31 1479.3 L1553.86 1479.3 L1542.41 1479.3 
  L1530.96 1479.3 L1519.51 1479.3 L1508.06 1479.3 L1496.61 1479.3 L1485.16 1479.3 L1473.71 1479.3 L1462.26 1479.3 L1450.81 1479.3 L1439.36 1479.3 L1427.91 1479.3 
  L1416.46 1479.3 L1405.01 1479.3 L1393.56 1479.3 L1382.11 1479.3 L1370.66 1479.3 L1359.21 1479.3 L1347.76 1479.3 L1336.31 1479.3 L1324.87 1479.3 L1313.42 1479.3 
  L1301.97 1479.3 L1290.52 1479.3 L1279.07 1479.3 L1267.62 1479.3 L1256.17 1479.3 L1244.72 1479.3 L1233.27 1479.3 L1221.82 1479.3 L1210.37 1479.3 L1198.92 1479.3 
  L1187.47 1479.3 L1176.02 1479.3 L1164.57 1479.3 L1153.12 1479.3 L1141.67 1479.3 L1130.22 1479.3 L1118.77 1479.3 L1107.32 1479.3 L1095.87 1479.3 L1084.42 1479.3 
  L1072.97 1479.3 L1061.52 1479.3 L1050.07 1479.3 L1038.62 1479.3 L1027.17 1479.3 L1015.73 1479.3 L1004.28 1479.3 L992.826 1479.3 L981.376 1479.3 L969.927 1479.3 
  L958.477 1479.3 L947.027 1479.3 L935.578 1479.3 L924.128 1479.3 L912.679 1479.3 L901.229 1479.3 L889.779 1479.3 L878.33 1479.3 L866.88 1479.3 L855.43 1479.3 
  L843.981 1479.3 L832.531 1479.3 L821.082 1479.3 L809.632 1479.3 L798.182 1479.3 L786.733 1479.3 L775.283 1479.3 L763.834 1479.3 L752.384 1479.3 L740.934 1479.3 
   Z
  " fill="#008000" fill-rule="evenodd" fill-opacity="0.5"/>
<polyline clip-path="url(#clip822)" style="stroke:#008000; stroke-width:4; stroke-opacity:1; fill:none" points="
  740.934,1265.21 752.384,1259.43 763.834,1255.03 775.283,1251.79 786.733,1249.32 798.182,1247.13 809.632,1244.66 821.082,1241.31 832.531,1236.54 843.981,1229.88 
  855.43,1221.02 866.88,1209.82 878.33,1196.33 889.779,1180.81 901.229,1163.74 912.679,1145.9 924.128,1128.35 935.578,1112.34 947.027,1099.1 958.477,1089.54 
  969.927,1083.91 981.376,1081.6 992.826,1081.2 1004.28,1080.75 1015.73,1078.18 1027.17,1071.65 1038.62,1059.74 1050.07,1041.37 1061.52,1015.59 1072.97,981.477 
  1084.42,938.33 1095.87,886.12 1107.32,826.015 1118.77,760.577 1130.22,693.431 1141.67,628.461 1153.12,568.88 1164.57,516.559 1176.02,471.839 1187.47,433.78 
  1198.92,400.638 1210.37,370.338 1221.82,340.879 1233.27,310.684 1244.72,278.931 1256.17,245.782 1267.62,212.364 1279.07,180.415 1290.52,151.712 1301.97,127.562 
  1313.42,108.69 1324.87,95.57 1336.31,88.9544 1347.76,90.0985 1359.21,100.372 1370.66,120.349 1382.11,148.914 1393.56,183.008 1405.01,218.33 1416.46,250.707 
  1427.91,277.449 1439.36,297.998 1450.81,313.587 1462.26,326.226 1473.71,337.649 1485.16,348.796 1496.61,360 1508.06,371.594 1519.51,384.441 1530.96,400.053 
  1542.41,420.215 1553.86,446.356 1565.31,478.98 1576.76,517.389 1588.21,559.795 1599.66,603.751 1611.11,646.764 1622.56,686.879 1634,723.012 1645.45,754.953 
  1656.9,783.09 1668.35,808.097 1679.8,830.777 1691.25,852.102 1702.7,873.283 1714.15,895.633 1725.6,920.158 1737.05,947.047 1748.5,975.362 1759.95,1003.17 
  1771.4,1028.14 1782.85,1048.33 1794.3,1062.87 1805.75,1072.39 1817.2,1078.85 1828.65,1085.04 1840.1,1093.87 1851.55,1107.53 1863,1126.9 1874.45,1151.33 
  
  "/>
<path clip-path="url(#clip822)" d="
M1874.45 1151.33 L1878.63 1161.15 L1882.81 1171.26 L1887 1181.51 L1891.18 1191.78 L1895.37 1201.92 L1899.55 1211.8 L1903.73 1221.33 L1907.92 1230.4 L1912.1 1238.94 
  L1916.28 1246.91 L1920.47 1254.28 L1924.65 1261.04 L1928.83 1267.21 L1933.02 1272.83 L1937.2 1277.94 L1941.39 1282.62 L1945.57 1286.92 L1949.75 1290.93 L1953.94 1294.7 
  L1958.12 1298.31 L1962.3 1301.82 L1966.49 1305.27 L1970.67 1308.7 L1974.86 1312.14 L1979.04 1315.6 L1983.22 1319.08 L1987.41 1322.57 L1991.59 1326.06 L1995.77 1329.51 
  L1999.96 1332.9 L2004.14 1336.18 L2008.32 1339.31 L2012.51 1342.27 L2016.69 1345 L2020.88 1347.5 L2025.06 1349.72 L2029.24 1351.67 L2033.43 1353.33 L2037.61 1354.72 
  L2041.79 1355.85 L2045.98 1356.75 L2050.16 1357.45 L2054.34 1357.99 L2058.53 1358.41 L2062.71 1358.76 L2066.9 1359.09 L2071.08 1359.45 L2075.26 1359.87 L2079.45 1360.4 
  L2083.63 1361.07 L2087.81 1361.9 L2092 1362.92 L2096.18 1364.15 L2100.37 1365.58 L2104.55 1367.22 L2108.73 1369.08 L2112.92 1371.14 L2117.1 1373.39 L2121.28 1375.82 
  L2125.47 1378.41 L2129.65 1381.15 L2133.83 1384.01 L2138.02 1386.98 L2142.2 1390.03 L2146.39 1393.15 L2150.57 1396.31 L2154.75 1399.5 L2158.94 1402.69 L2163.12 1405.88 
  L2167.3 1409.05 L2171.49 1412.19 L2175.67 1415.28 L2179.86 1418.34 L2184.04 1421.34 L2188.22 1424.29 L2192.41 1427.19 L2196.59 1430.03 L2200.77 1432.81 L2204.96 1435.54 
  L2209.14 1438.21 L2213.32 1440.81 L2217.51 1443.35 L2221.69 1445.81 L2225.88 1448.2 L2230.06 1450.51 L2234.24 1452.72 L2238.43 1454.84 L2242.61 1456.85 L2246.79 1458.76 
  L2250.98 1460.57 L2255.16 1462.26 L2259.34 1463.84 L2263.53 1465.31 L2267.71 1466.67 L2271.9 1467.94 L2276.08 1469.1 L2280.26 1470.17 L2284.45 1471.15 L2288.63 1472.05 
  L2288.63 1479.3 L2284.45 1479.3 L2280.26 1479.3 L2276.08 1479.3 L2271.9 1479.3 L2267.71 1479.3 L2263.53 1479.3 L2259.34 1479.3 L2255.16 1479.3 L2250.98 1479.3 
  L2246.79 1479.3 L2242.61 1479.3 L2238.43 1479.3 L2234.24 1479.3 L2230.06 1479.3 L2225.88 1479.3 L2221.69 1479.3 L2217.51 1479.3 L2213.32 1479.3 L2209.14 1479.3 
  L2204.96 1479.3 L2200.77 1479.3 L2196.59 1479.3 L2192.41 1479.3 L2188.22 1479.3 L2184.04 1479.3 L2179.86 1479.3 L2175.67 1479.3 L2171.49 1479.3 L2167.3 1479.3 
  L2163.12 1479.3 L2158.94 1479.3 L2154.75 1479.3 L2150.57 1479.3 L2146.39 1479.3 L2142.2 1479.3 L2138.02 1479.3 L2133.83 1479.3 L2129.65 1479.3 L2125.47 1479.3 
  L2121.28 1479.3 L2117.1 1479.3 L2112.92 1479.3 L2108.73 1479.3 L2104.55 1479.3 L2100.37 1479.3 L2096.18 1479.3 L2092 1479.3 L2087.81 1479.3 L2083.63 1479.3 
  L2079.45 1479.3 L2075.26 1479.3 L2071.08 1479.3 L2066.9 1479.3 L2062.71 1479.3 L2058.53 1479.3 L2054.34 1479.3 L2050.16 1479.3 L2045.98 1479.3 L2041.79 1479.3 
  L2037.61 1479.3 L2033.43 1479.3 L2029.24 1479.3 L2025.06 1479.3 L2020.88 1479.3 L2016.69 1479.3 L2012.51 1479.3 L2008.32 1479.3 L2004.14 1479.3 L1999.96 1479.3 
  L1995.77 1479.3 L1991.59 1479.3 L1987.41 1479.3 L1983.22 1479.3 L1979.04 1479.3 L1974.86 1479.3 L1970.67 1479.3 L1966.49 1479.3 L1962.3 1479.3 L1958.12 1479.3 
  L1953.94 1479.3 L1949.75 1479.3 L1945.57 1479.3 L1941.39 1479.3 L1937.2 1479.3 L1933.02 1479.3 L1928.83 1479.3 L1924.65 1479.3 L1920.47 1479.3 L1916.28 1479.3 
  L1912.1 1479.3 L1907.92 1479.3 L1903.73 1479.3 L1899.55 1479.3 L1895.37 1479.3 L1891.18 1479.3 L1887 1479.3 L1882.81 1479.3 L1878.63 1479.3 L1874.45 1479.3 
   Z
  " fill="#ffa500" fill-rule="evenodd" fill-opacity="0.5"/>
<polyline clip-path="url(#clip822)" style="stroke:#ffa500; stroke-width:4; stroke-opacity:1; fill:none" points="
  1874.45,1151.33 1878.63,1161.15 1882.81,1171.26 1887,1181.51 1891.18,1191.78 1895.37,1201.92 1899.55,1211.8 1903.73,1221.33 1907.92,1230.4 1912.1,1238.94 
  1916.28,1246.91 1920.47,1254.28 1924.65,1261.04 1928.83,1267.21 1933.02,1272.83 1937.2,1277.94 1941.39,1282.62 1945.57,1286.92 1949.75,1290.93 1953.94,1294.7 
  1958.12,1298.31 1962.3,1301.82 1966.49,1305.27 1970.67,1308.7 1974.86,1312.14 1979.04,1315.6 1983.22,1319.08 1987.41,1322.57 1991.59,1326.06 1995.77,1329.51 
  1999.96,1332.9 2004.14,1336.18 2008.32,1339.31 2012.51,1342.27 2016.69,1345 2020.88,1347.5 2025.06,1349.72 2029.24,1351.67 2033.43,1353.33 2037.61,1354.72 
  2041.79,1355.85 2045.98,1356.75 2050.16,1357.45 2054.34,1357.99 2058.53,1358.41 2062.71,1358.76 2066.9,1359.09 2071.08,1359.45 2075.26,1359.87 2079.45,1360.4 
  2083.63,1361.07 2087.81,1361.9 2092,1362.92 2096.18,1364.15 2100.37,1365.58 2104.55,1367.22 2108.73,1369.08 2112.92,1371.14 2117.1,1373.39 2121.28,1375.82 
  2125.47,1378.41 2129.65,1381.15 2133.83,1384.01 2138.02,1386.98 2142.2,1390.03 2146.39,1393.15 2150.57,1396.31 2154.75,1399.5 2158.94,1402.69 2163.12,1405.88 
  2167.3,1409.05 2171.49,1412.19 2175.67,1415.28 2179.86,1418.34 2184.04,1421.34 2188.22,1424.29 2192.41,1427.19 2196.59,1430.03 2200.77,1432.81 2204.96,1435.54 
  2209.14,1438.21 2213.32,1440.81 2217.51,1443.35 2221.69,1445.81 2225.88,1448.2 2230.06,1450.51 2234.24,1452.72 2238.43,1454.84 2242.61,1456.85 2246.79,1458.76 
  2250.98,1460.57 2255.16,1462.26 2259.34,1463.84 2263.53,1465.31 2267.71,1466.67 2271.9,1467.94 2276.08,1469.1 2280.26,1470.17 2284.45,1471.15 2288.63,1472.05 
  
  "/>
<polyline clip-path="url(#clip822)" style="stroke:#0000ff; stroke-width:4; stroke-opacity:1; fill:none" points="
  1354.05,1479.3 1354.05,94.5412 
  "/>
<polyline clip-path="url(#clip822)" style="stroke:#000000; stroke-width:4; stroke-opacity:1; fill:none" points="
  1364.75,1479.3 1364.75,108.838 
  "/>
<path clip-path="url(#clip820)" d="
M1494.58 459.25 L2277.23 459.25 L2277.23 96.3696 L1494.58 96.3696  Z
  " fill="#ffffff" fill-rule="evenodd" fill-opacity="1"/>
<polyline clip-path="url(#clip820)" style="stroke:#000000; stroke-width:4; stroke-opacity:1; fill:none" points="
  1494.58,459.25 2277.23,459.25 2277.23,96.3696 1494.58,96.3696 1494.58,459.25 
  "/>
<path clip-path="url(#clip820)" d="
M1519.75 181.042 L1670.81 181.042 L1670.81 132.658 L1519.75 132.658 L1519.75 181.042  Z
  " fill="#ffa500" fill-rule="evenodd" fill-opacity="0.5"/>
<polyline clip-path="url(#clip820)" style="stroke:#ffa500; stroke-width:4; stroke-opacity:1; fill:none" points="
  1519.75,132.658 1670.81,132.658 
  "/>
<path clip-path="url(#clip820)" d="M 0 0 M1700.38 161.19 Q1700.38 165.889 1702.3 168.574 Q1704.24 171.236 1707.62 171.236 Q1711 171.236 1712.95 168.574 Q1714.89 165.889 1714.89 161.19 Q1714.89 156.491 1712.95 153.829 Q1711 151.144 1707.62 151.144 Q1704.24 151.144 1702.3 153.829 Q1700.38 156.491 1700.38 161.19 M1714.89 170.241 Q1713.55 172.555 1711.49 173.69 Q1709.45 174.801 1706.58 174.801 Q1701.88 174.801 1698.92 171.051 Q1695.98 167.301 1695.98 161.19 Q1695.98 155.079 1698.92 151.329 Q1701.88 147.579 1706.58 147.579 Q1709.45 147.579 1711.49 148.713 Q1713.55 149.824 1714.89 152.139 L1714.89 148.204 L1719.15 148.204 L1719.15 183.991 L1714.89 183.991 L1714.89 170.241 Z" fill="#000000" fill-rule="evenodd" fill-opacity="1" /><path clip-path="url(#clip820)" d="M 0 0 M1734.22 142.648 Q1730.61 142.648 1728.78 146.213 Q1726.98 149.755 1726.98 156.884 Q1726.98 163.991 1728.78 167.556 Q1730.61 171.097 1734.22 171.097 Q1737.85 171.097 1739.66 167.556 Q1741.49 163.991 1741.49 156.884 Q1741.49 149.755 1739.66 146.213 Q1737.85 142.648 1734.22 142.648 M1734.22 138.945 Q1740.03 138.945 1743.09 143.551 Q1746.17 148.134 1746.17 156.884 Q1746.17 165.611 1743.09 170.218 Q1740.03 174.801 1734.22 174.801 Q1728.41 174.801 1725.33 170.218 Q1722.28 165.611 1722.28 156.884 Q1722.28 148.134 1725.33 143.551 Q1728.41 138.945 1734.22 138.945 Z" fill="#000000" fill-rule="evenodd" fill-opacity="1" /><path clip-path="url(#clip820)" d="M 0 0 M1751.28 139.57 L1769.64 139.57 L1769.64 143.505 L1755.56 143.505 L1755.56 151.977 Q1756.58 151.63 1757.6 151.468 Q1758.62 151.282 1759.64 151.282 Q1765.42 151.282 1768.8 154.454 Q1772.18 157.625 1772.18 163.042 Q1772.18 168.62 1768.71 171.722 Q1765.24 174.801 1758.92 174.801 Q1756.74 174.801 1754.48 174.43 Q1752.23 174.06 1749.82 173.319 L1749.82 168.62 Q1751.91 169.755 1754.13 170.31 Q1756.35 170.866 1758.83 170.866 Q1762.83 170.866 1765.17 168.759 Q1767.51 166.653 1767.51 163.042 Q1767.51 159.431 1765.17 157.324 Q1762.83 155.218 1758.83 155.218 Q1756.95 155.218 1755.08 155.634 Q1753.23 156.051 1751.28 156.931 L1751.28 139.57 Z" fill="#000000" fill-rule="evenodd" fill-opacity="1" /><path clip-path="url(#clip820)" d="
M1519.75 241.522 L1670.81 241.522 L1670.81 193.138 L1519.75 193.138 L1519.75 241.522  Z
  " fill="#008000" fill-rule="evenodd" fill-opacity="0.5"/>
<polyline clip-path="url(#clip820)" style="stroke:#008000; stroke-width:4; stroke-opacity:1; fill:none" points="
  1519.75,193.138 1670.81,193.138 
  "/>
<path clip-path="url(#clip820)" d="M 0 0 M1698.2 233.892 L1698.2 229.633 Q1699.96 230.466 1701.77 230.906 Q1703.57 231.346 1705.31 231.346 Q1709.94 231.346 1712.37 228.244 Q1714.82 225.119 1715.17 218.776 Q1713.83 220.767 1711.77 221.832 Q1709.71 222.897 1707.21 222.897 Q1702.02 222.897 1698.99 219.772 Q1695.98 216.624 1695.98 211.184 Q1695.98 205.86 1699.13 202.642 Q1702.28 199.425 1707.51 199.425 Q1713.5 199.425 1716.65 204.031 Q1719.82 208.614 1719.82 217.364 Q1719.82 225.536 1715.93 230.42 Q1712.07 235.281 1705.52 235.281 Q1703.76 235.281 1701.95 234.934 Q1700.15 234.586 1698.2 233.892 M1707.51 219.239 Q1710.66 219.239 1712.48 217.086 Q1714.34 214.934 1714.34 211.184 Q1714.34 207.457 1712.48 205.304 Q1710.66 203.128 1707.51 203.128 Q1704.36 203.128 1702.51 205.304 Q1700.68 207.457 1700.68 211.184 Q1700.68 214.934 1702.51 217.086 Q1704.36 219.239 1707.51 219.239 Z" fill="#000000" fill-rule="evenodd" fill-opacity="1" /><path clip-path="url(#clip820)" d="M 0 0 M1734.89 203.128 Q1731.28 203.128 1729.45 206.693 Q1727.65 210.235 1727.65 217.364 Q1727.65 224.471 1729.45 228.036 Q1731.28 231.577 1734.89 231.577 Q1738.53 231.577 1740.33 228.036 Q1742.16 224.471 1742.16 217.364 Q1742.16 210.235 1740.33 206.693 Q1738.53 203.128 1734.89 203.128 M1734.89 199.425 Q1740.7 199.425 1743.76 204.031 Q1746.84 208.614 1746.84 217.364 Q1746.84 226.091 1743.76 230.698 Q1740.7 235.281 1734.89 235.281 Q1729.08 235.281 1726 230.698 Q1722.95 226.091 1722.95 217.364 Q1722.95 208.614 1726 204.031 Q1729.08 199.425 1734.89 199.425 Z" fill="#000000" fill-rule="evenodd" fill-opacity="1" /><path clip-path="url(#clip820)" d="M 0 0 M1781.3 219.401 Q1779.29 219.401 1778.13 221.114 Q1777 222.827 1777 225.883 Q1777 228.892 1778.13 230.628 Q1779.29 232.341 1781.3 232.341 Q1783.27 232.341 1784.41 230.628 Q1785.56 228.892 1785.56 225.883 Q1785.56 222.85 1784.41 221.137 Q1783.27 219.401 1781.3 219.401 M1781.3 216.462 Q1784.96 216.462 1787.11 219.008 Q1789.27 221.554 1789.27 225.883 Q1789.27 230.211 1787.09 232.758 Q1784.94 235.281 1781.3 235.281 Q1777.6 235.281 1775.45 232.758 Q1773.29 230.211 1773.29 225.883 Q1773.29 221.531 1775.45 219.008 Q1777.62 216.462 1781.3 216.462 M1757.42 202.364 Q1755.42 202.364 1754.27 204.1 Q1753.13 205.813 1753.13 208.823 Q1753.13 211.878 1754.27 213.591 Q1755.4 215.304 1757.42 215.304 Q1759.43 215.304 1760.56 213.591 Q1761.72 211.878 1761.72 208.823 Q1761.72 205.837 1760.56 204.1 Q1759.41 202.364 1757.42 202.364 M1778.32 199.425 L1782.02 199.425 L1760.4 235.281 L1756.7 235.281 L1778.32 199.425 M1757.42 199.425 Q1761.07 199.425 1763.25 201.971 Q1765.42 204.494 1765.42 208.823 Q1765.42 213.198 1763.25 215.721 Q1761.1 218.244 1757.42 218.244 Q1753.73 218.244 1751.58 215.721 Q1749.45 213.174 1749.45 208.823 Q1749.45 204.517 1751.6 201.971 Q1753.76 199.425 1757.42 199.425 Z" fill="#000000" fill-rule="evenodd" fill-opacity="1" /><path clip-path="url(#clip820)" d="M 0 0 M1830.35 218.961 L1830.35 234.61 L1826.1 234.61 L1826.1 219.1 Q1826.1 215.42 1824.66 213.591 Q1823.22 211.762 1820.35 211.762 Q1816.91 211.762 1814.91 213.962 Q1812.92 216.161 1812.92 219.957 L1812.92 234.61 L1808.64 234.61 L1808.64 208.684 L1812.92 208.684 L1812.92 212.712 Q1814.45 210.374 1816.51 209.216 Q1818.6 208.059 1821.3 208.059 Q1825.77 208.059 1828.06 210.837 Q1830.35 213.591 1830.35 218.961 Z" fill="#000000" fill-rule="evenodd" fill-opacity="1" /><path clip-path="url(#clip820)" d="M 0 0 M1844.87 211.67 Q1841.44 211.67 1839.45 214.355 Q1837.46 217.017 1837.46 221.67 Q1837.46 226.323 1839.43 229.008 Q1841.42 231.67 1844.87 231.67 Q1848.27 231.67 1850.26 228.985 Q1852.25 226.299 1852.25 221.67 Q1852.25 217.063 1850.26 214.378 Q1848.27 211.67 1844.87 211.67 M1844.87 208.059 Q1850.42 208.059 1853.6 211.67 Q1856.77 215.281 1856.77 221.67 Q1856.77 228.036 1853.6 231.67 Q1850.42 235.281 1844.87 235.281 Q1839.29 235.281 1836.12 231.67 Q1832.97 228.036 1832.97 221.67 Q1832.97 215.281 1836.12 211.67 Q1839.29 208.059 1844.87 208.059 Z" fill="#000000" fill-rule="evenodd" fill-opacity="1" /><path clip-path="url(#clip820)" d="M 0 0 M1882.78 218.961 L1882.78 234.61 L1878.53 234.61 L1878.53 219.1 Q1878.53 215.42 1877.09 213.591 Q1875.66 211.762 1872.78 211.762 Q1869.34 211.762 1867.35 213.962 Q1865.35 216.161 1865.35 219.957 L1865.35 234.61 L1861.07 234.61 L1861.07 208.684 L1865.35 208.684 L1865.35 212.712 Q1866.88 210.374 1868.94 209.216 Q1871.03 208.059 1873.73 208.059 Q1878.2 208.059 1880.49 210.837 Q1882.78 213.591 1882.78 218.961 Z" fill="#000000" fill-rule="evenodd" fill-opacity="1" /><path clip-path="url(#clip820)" d="M 0 0 M1885.1 219.725 L1897.58 219.725 L1897.58 223.522 L1885.1 223.522 L1885.1 219.725 Z" fill="#000000" fill-rule="evenodd" fill-opacity="1" /><path clip-path="url(#clip820)" d="M 0 0 M1917.07 212.665 Q1916.35 212.249 1915.49 212.063 Q1914.66 211.855 1913.64 211.855 Q1910.03 211.855 1908.09 214.216 Q1906.16 216.554 1906.16 220.952 L1906.16 234.61 L1901.88 234.61 L1901.88 208.684 L1906.16 208.684 L1906.16 212.712 Q1907.51 210.35 1909.66 209.216 Q1911.81 208.059 1914.89 208.059 Q1915.33 208.059 1915.86 208.128 Q1916.4 208.175 1917.04 208.29 L1917.07 212.665 Z" fill="#000000" fill-rule="evenodd" fill-opacity="1" /><path clip-path="url(#clip820)" d="M 0 0 M1942.67 220.582 L1942.67 222.665 L1923.09 222.665 Q1923.36 227.063 1925.72 229.378 Q1928.11 231.67 1932.34 231.67 Q1934.8 231.67 1937.09 231.068 Q1939.4 230.466 1941.67 229.262 L1941.67 233.29 Q1939.38 234.262 1936.97 234.772 Q1934.57 235.281 1932.09 235.281 Q1925.89 235.281 1922.25 231.67 Q1918.64 228.059 1918.64 221.901 Q1918.64 215.536 1922.07 211.809 Q1925.52 208.059 1931.35 208.059 Q1936.58 208.059 1939.61 211.438 Q1942.67 214.795 1942.67 220.582 M1938.41 219.332 Q1938.36 215.837 1936.44 213.753 Q1934.54 211.67 1931.4 211.67 Q1927.83 211.67 1925.68 213.684 Q1923.55 215.698 1923.22 219.355 L1938.41 219.332 Z" fill="#000000" fill-rule="evenodd" fill-opacity="1" /><path clip-path="url(#clip820)" d="M 0 0 M1947.14 208.684 L1951.4 208.684 L1951.4 235.073 Q1951.4 240.026 1949.5 242.248 Q1947.62 244.471 1943.43 244.471 L1941.81 244.471 L1941.81 240.86 L1942.95 240.86 Q1945.38 240.86 1946.26 239.725 Q1947.14 238.614 1947.14 235.073 L1947.14 208.684 M1947.14 198.591 L1951.4 198.591 L1951.4 203.985 L1947.14 203.985 L1947.14 198.591 Z" fill="#000000" fill-rule="evenodd" fill-opacity="1" /><path clip-path="url(#clip820)" d="M 0 0 M1978.04 220.582 L1978.04 222.665 L1958.46 222.665 Q1958.73 227.063 1961.09 229.378 Q1963.48 231.67 1967.71 231.67 Q1970.17 231.67 1972.46 231.068 Q1974.78 230.466 1977.04 229.262 L1977.04 233.29 Q1974.75 234.262 1972.34 234.772 Q1969.94 235.281 1967.46 235.281 Q1961.26 235.281 1957.62 231.67 Q1954.01 228.059 1954.01 221.901 Q1954.01 215.536 1957.44 211.809 Q1960.89 208.059 1966.72 208.059 Q1971.95 208.059 1974.98 211.438 Q1978.04 214.795 1978.04 220.582 M1973.78 219.332 Q1973.73 215.837 1971.81 213.753 Q1969.91 211.67 1966.77 211.67 Q1963.2 211.67 1961.05 213.684 Q1958.92 215.698 1958.59 219.355 L1973.78 219.332 Z" fill="#000000" fill-rule="evenodd" fill-opacity="1" /><path clip-path="url(#clip820)" d="M 0 0 M2001.16 209.679 L2001.16 213.661 Q1999.36 212.665 1997.53 212.179 Q1995.72 211.67 1993.87 211.67 Q1989.73 211.67 1987.44 214.309 Q1985.15 216.924 1985.15 221.67 Q1985.15 226.415 1987.44 229.054 Q1989.73 231.67 1993.87 231.67 Q1995.72 231.67 1997.53 231.184 Q1999.36 230.674 2001.16 229.679 L2001.16 233.614 Q1999.38 234.448 1997.46 234.864 Q1995.56 235.281 1993.41 235.281 Q1987.55 235.281 1984.1 231.6 Q1980.65 227.92 1980.65 221.67 Q1980.65 215.327 1984.13 211.693 Q1987.62 208.059 1993.69 208.059 Q1995.65 208.059 1997.53 208.475 Q1999.4 208.869 2001.16 209.679 Z" fill="#000000" fill-rule="evenodd" fill-opacity="1" /><path clip-path="url(#clip820)" d="M 0 0 M2009.84 201.323 L2009.84 208.684 L2018.62 208.684 L2018.62 211.994 L2009.84 211.994 L2009.84 226.068 Q2009.84 229.239 2010.7 230.142 Q2011.58 231.045 2014.24 231.045 L2018.62 231.045 L2018.62 234.61 L2014.24 234.61 Q2009.31 234.61 2007.44 232.781 Q2005.56 230.929 2005.56 226.068 L2005.56 211.994 L2002.44 211.994 L2002.44 208.684 L2005.56 208.684 L2005.56 201.323 L2009.84 201.323 Z" fill="#000000" fill-rule="evenodd" fill-opacity="1" /><path clip-path="url(#clip820)" d="M 0 0 M2023.08 208.684 L2027.34 208.684 L2027.34 234.61 L2023.08 234.61 L2023.08 208.684 M2023.08 198.591 L2027.34 198.591 L2027.34 203.985 L2023.08 203.985 L2023.08 198.591 Z" fill="#000000" fill-rule="evenodd" fill-opacity="1" /><path clip-path="url(#clip820)" d="M 0 0 M2041.86 211.67 Q2038.43 211.67 2036.44 214.355 Q2034.45 217.017 2034.45 221.67 Q2034.45 226.323 2036.42 229.008 Q2038.41 231.67 2041.86 231.67 Q2045.26 231.67 2047.25 228.985 Q2049.24 226.299 2049.24 221.67 Q2049.24 217.063 2047.25 214.378 Q2045.26 211.67 2041.86 211.67 M2041.86 208.059 Q2047.41 208.059 2050.58 211.67 Q2053.76 215.281 2053.76 221.67 Q2053.76 228.036 2050.58 231.67 Q2047.41 235.281 2041.86 235.281 Q2036.28 235.281 2033.11 231.67 Q2029.96 228.036 2029.96 221.67 Q2029.96 215.281 2033.11 211.67 Q2036.28 208.059 2041.86 208.059 Z" fill="#000000" fill-rule="evenodd" fill-opacity="1" /><path clip-path="url(#clip820)" d="M 0 0 M2079.77 218.961 L2079.77 234.61 L2075.52 234.61 L2075.52 219.1 Q2075.52 215.42 2074.08 213.591 Q2072.64 211.762 2069.77 211.762 Q2066.33 211.762 2064.33 213.962 Q2062.34 216.161 2062.34 219.957 L2062.34 234.61 L2058.06 234.61 L2058.06 208.684 L2062.34 208.684 L2062.34 212.712 Q2063.87 210.374 2065.93 209.216 Q2068.02 208.059 2070.72 208.059 Q2075.19 208.059 2077.48 210.837 Q2079.77 213.591 2079.77 218.961 Z" fill="#000000" fill-rule="evenodd" fill-opacity="1" /><path clip-path="url(#clip820)" d="M 0 0 M2114.33 212.665 Q2113.62 212.249 2112.76 212.063 Q2111.93 211.855 2110.91 211.855 Q2107.3 211.855 2105.35 214.216 Q2103.43 216.554 2103.43 220.952 L2103.43 234.61 L2099.15 234.61 L2099.15 208.684 L2103.43 208.684 L2103.43 212.712 Q2104.77 210.35 2106.93 209.216 Q2109.08 208.059 2112.16 208.059 Q2112.6 208.059 2113.13 208.128 Q2113.66 208.175 2114.31 208.29 L2114.33 212.665 Z" fill="#000000" fill-rule="evenodd" fill-opacity="1" /><path clip-path="url(#clip820)" d="M 0 0 M2139.94 220.582 L2139.94 222.665 L2120.35 222.665 Q2120.63 227.063 2122.99 229.378 Q2125.38 231.67 2129.61 231.67 Q2132.07 231.67 2134.36 231.068 Q2136.67 230.466 2138.94 229.262 L2138.94 233.29 Q2136.65 234.262 2134.24 234.772 Q2131.83 235.281 2129.36 235.281 Q2123.15 235.281 2119.52 231.67 Q2115.91 228.059 2115.91 221.901 Q2115.91 215.536 2119.33 211.809 Q2122.78 208.059 2128.62 208.059 Q2133.85 208.059 2136.88 211.438 Q2139.94 214.795 2139.94 220.582 M2135.68 219.332 Q2135.63 215.837 2133.71 213.753 Q2131.81 211.67 2128.66 211.67 Q2125.1 211.67 2122.95 213.684 Q2120.82 215.698 2120.49 219.355 L2135.68 219.332 Z" fill="#000000" fill-rule="evenodd" fill-opacity="1" /><path clip-path="url(#clip820)" d="M 0 0 M2161.46 221.346 Q2161.46 216.716 2159.54 214.17 Q2157.64 211.624 2154.2 211.624 Q2150.77 211.624 2148.85 214.17 Q2146.95 216.716 2146.95 221.346 Q2146.95 225.952 2148.85 228.498 Q2150.77 231.045 2154.2 231.045 Q2157.64 231.045 2159.54 228.498 Q2161.46 225.952 2161.46 221.346 M2165.72 231.392 Q2165.72 238.012 2162.78 241.23 Q2159.84 244.471 2153.78 244.471 Q2151.53 244.471 2149.54 244.123 Q2147.55 243.799 2145.68 243.105 L2145.68 238.961 Q2147.55 239.98 2149.38 240.466 Q2151.21 240.952 2153.11 240.952 Q2157.3 240.952 2159.38 238.753 Q2161.46 236.577 2161.46 232.156 L2161.46 230.049 Q2160.14 232.341 2158.08 233.475 Q2156.02 234.61 2153.15 234.61 Q2148.39 234.61 2145.47 230.975 Q2142.55 227.341 2142.55 221.346 Q2142.55 215.327 2145.47 211.693 Q2148.39 208.059 2153.15 208.059 Q2156.02 208.059 2158.08 209.193 Q2160.14 210.327 2161.46 212.619 L2161.46 208.684 L2165.72 208.684 L2165.72 231.392 Z" fill="#000000" fill-rule="evenodd" fill-opacity="1" /><path clip-path="url(#clip820)" d="M 0 0 M2170.19 208.684 L2174.45 208.684 L2174.45 234.61 L2170.19 234.61 L2170.19 208.684 M2170.19 198.591 L2174.45 198.591 L2174.45 203.985 L2170.19 203.985 L2170.19 198.591 Z" fill="#000000" fill-rule="evenodd" fill-opacity="1" /><path clip-path="url(#clip820)" d="M 0 0 M2188.96 211.67 Q2185.54 211.67 2183.55 214.355 Q2181.56 217.017 2181.56 221.67 Q2181.56 226.323 2183.52 229.008 Q2185.51 231.67 2188.96 231.67 Q2192.37 231.67 2194.36 228.985 Q2196.35 226.299 2196.35 221.67 Q2196.35 217.063 2194.36 214.378 Q2192.37 211.67 2188.96 211.67 M2188.96 208.059 Q2194.52 208.059 2197.69 211.67 Q2200.86 215.281 2200.86 221.67 Q2200.86 228.036 2197.69 231.67 Q2194.52 235.281 2188.96 235.281 Q2183.39 235.281 2180.21 231.67 Q2177.07 228.036 2177.07 221.67 Q2177.07 215.281 2180.21 211.67 Q2183.39 208.059 2188.96 208.059 Z" fill="#000000" fill-rule="evenodd" fill-opacity="1" /><path clip-path="url(#clip820)" d="M 0 0 M2226.88 218.961 L2226.88 234.61 L2222.62 234.61 L2222.62 219.1 Q2222.62 215.42 2221.19 213.591 Q2219.75 211.762 2216.88 211.762 Q2213.43 211.762 2211.44 213.962 Q2209.45 216.161 2209.45 219.957 L2209.45 234.61 L2205.17 234.61 L2205.17 208.684 L2209.45 208.684 L2209.45 212.712 Q2210.98 210.374 2213.04 209.216 Q2215.12 208.059 2217.83 208.059 Q2222.3 208.059 2224.59 210.837 Q2226.88 213.591 2226.88 218.961 Z" fill="#000000" fill-rule="evenodd" fill-opacity="1" /><path clip-path="url(#clip820)" d="
M1519.75 302.002 L1670.81 302.002 L1670.81 253.618 L1519.75 253.618 L1519.75 302.002  Z
  " fill="#ffa500" fill-rule="evenodd" fill-opacity="0.5"/>
<polyline clip-path="url(#clip820)" style="stroke:#ffa500; stroke-width:4; stroke-opacity:1; fill:none" points="
  1519.75,253.618 1670.81,253.618 
  "/>
<path clip-path="url(#clip820)" d="M 0 0 M1700.38 282.15 Q1700.38 286.849 1702.3 289.534 Q1704.24 292.196 1707.62 292.196 Q1711 292.196 1712.95 289.534 Q1714.89 286.849 1714.89 282.15 Q1714.89 277.451 1712.95 274.789 Q1711 272.104 1707.62 272.104 Q1704.24 272.104 1702.3 274.789 Q1700.38 277.451 1700.38 282.15 M1714.89 291.201 Q1713.55 293.515 1711.49 294.65 Q1709.45 295.761 1706.58 295.761 Q1701.88 295.761 1698.92 292.011 Q1695.98 288.261 1695.98 282.15 Q1695.98 276.039 1698.92 272.289 Q1701.88 268.539 1706.58 268.539 Q1709.45 268.539 1711.49 269.673 Q1713.55 270.784 1714.89 273.099 L1714.89 269.164 L1719.15 269.164 L1719.15 304.951 L1714.89 304.951 L1714.89 291.201 Z" fill="#000000" fill-rule="evenodd" fill-opacity="1" /><path clip-path="url(#clip820)" d="M 0 0 M1724.36 294.372 L1724.36 290.113 Q1726.12 290.946 1727.92 291.386 Q1729.73 291.826 1731.47 291.826 Q1736.1 291.826 1738.53 288.724 Q1740.98 285.599 1741.33 279.256 Q1739.98 281.247 1737.92 282.312 Q1735.86 283.377 1733.36 283.377 Q1728.18 283.377 1725.15 280.252 Q1722.14 277.104 1722.14 271.664 Q1722.14 266.34 1725.29 263.122 Q1728.43 259.905 1733.67 259.905 Q1739.66 259.905 1742.81 264.511 Q1745.98 269.094 1745.98 277.844 Q1745.98 286.016 1742.09 290.9 Q1738.23 295.761 1731.67 295.761 Q1729.92 295.761 1728.11 295.414 Q1726.3 295.066 1724.36 294.372 M1733.67 279.719 Q1736.81 279.719 1738.64 277.566 Q1740.49 275.414 1740.49 271.664 Q1740.49 267.937 1738.64 265.784 Q1736.81 263.608 1733.67 263.608 Q1730.52 263.608 1728.67 265.784 Q1726.84 267.937 1726.84 271.664 Q1726.84 275.414 1728.67 277.566 Q1730.52 279.719 1733.67 279.719 Z" fill="#000000" fill-rule="evenodd" fill-opacity="1" /><path clip-path="url(#clip820)" d="M 0 0 M1751.1 260.53 L1769.45 260.53 L1769.45 264.465 L1755.38 264.465 L1755.38 272.937 Q1756.4 272.59 1757.42 272.428 Q1758.43 272.242 1759.45 272.242 Q1765.24 272.242 1768.62 275.414 Q1772 278.585 1772 284.002 Q1772 289.58 1768.53 292.682 Q1765.05 295.761 1758.73 295.761 Q1756.56 295.761 1754.29 295.39 Q1752.04 295.02 1749.64 294.279 L1749.64 289.58 Q1751.72 290.715 1753.94 291.27 Q1756.17 291.826 1758.64 291.826 Q1762.65 291.826 1764.98 289.719 Q1767.32 287.613 1767.32 284.002 Q1767.32 280.391 1764.98 278.284 Q1762.65 276.178 1758.64 276.178 Q1756.77 276.178 1754.89 276.594 Q1753.04 277.011 1751.1 277.891 L1751.1 260.53 Z" fill="#000000" fill-rule="evenodd" fill-opacity="1" /><polyline clip-path="url(#clip820)" style="stroke:#0000ff; stroke-width:4; stroke-opacity:1; fill:none" points="
  1519.75,338.29 1670.81,338.29 
  "/>
<path clip-path="url(#clip820)" d="M 0 0 M1716.33 334.621 Q1717.92 331.75 1720.15 330.385 Q1722.37 329.019 1725.38 329.019 Q1729.43 329.019 1731.63 331.866 Q1733.83 334.69 1733.83 339.921 L1733.83 355.57 L1729.54 355.57 L1729.54 340.06 Q1729.54 336.334 1728.23 334.528 Q1726.91 332.722 1724.2 332.722 Q1720.89 332.722 1718.97 334.922 Q1717.04 337.121 1717.04 340.917 L1717.04 355.57 L1712.76 355.57 L1712.76 340.06 Q1712.76 336.31 1711.44 334.528 Q1710.12 332.722 1707.37 332.722 Q1704.11 332.722 1702.18 334.945 Q1700.26 337.144 1700.26 340.917 L1700.26 355.57 L1695.98 355.57 L1695.98 329.644 L1700.26 329.644 L1700.26 333.672 Q1701.72 331.287 1703.76 330.153 Q1705.79 329.019 1708.6 329.019 Q1711.42 329.019 1713.39 330.454 Q1715.38 331.889 1716.33 334.621 Z" fill="#000000" fill-rule="evenodd" fill-opacity="1" /><path clip-path="url(#clip820)" d="M 0 0 M1760.47 341.542 L1760.47 343.625 L1740.89 343.625 Q1741.17 348.023 1743.53 350.338 Q1745.91 352.63 1750.15 352.63 Q1752.6 352.63 1754.89 352.028 Q1757.21 351.426 1759.48 350.222 L1759.48 354.25 Q1757.18 355.222 1754.78 355.732 Q1752.37 356.241 1749.89 356.241 Q1743.69 356.241 1740.05 352.63 Q1736.44 349.019 1736.44 342.861 Q1736.44 336.496 1739.87 332.769 Q1743.32 329.019 1749.15 329.019 Q1754.38 329.019 1757.42 332.398 Q1760.47 335.755 1760.47 341.542 M1756.21 340.292 Q1756.17 336.797 1754.24 334.713 Q1752.35 332.63 1749.2 332.63 Q1745.63 332.63 1743.48 334.644 Q1741.35 336.658 1741.03 340.315 L1756.21 340.292 Z" fill="#000000" fill-rule="evenodd" fill-opacity="1" /><path clip-path="url(#clip820)" d="M 0 0 M1776.72 342.537 Q1771.56 342.537 1769.57 343.718 Q1767.58 344.898 1767.58 347.746 Q1767.58 350.014 1769.06 351.357 Q1770.56 352.676 1773.13 352.676 Q1776.67 352.676 1778.8 350.176 Q1780.96 347.653 1780.96 343.486 L1780.96 342.537 L1776.72 342.537 M1785.22 340.778 L1785.22 355.57 L1780.96 355.57 L1780.96 351.634 Q1779.5 353.995 1777.32 355.13 Q1775.15 356.241 1772 356.241 Q1768.02 356.241 1765.66 354.019 Q1763.32 351.773 1763.32 348.023 Q1763.32 343.648 1766.23 341.426 Q1769.17 339.204 1774.98 339.204 L1780.96 339.204 L1780.96 338.787 Q1780.96 335.847 1779.01 334.25 Q1777.09 332.63 1773.6 332.63 Q1771.37 332.63 1769.27 333.162 Q1767.16 333.695 1765.22 334.759 L1765.22 330.824 Q1767.55 329.922 1769.75 329.482 Q1771.95 329.019 1774.04 329.019 Q1779.66 329.019 1782.44 331.935 Q1785.22 334.852 1785.22 340.778 Z" fill="#000000" fill-rule="evenodd" fill-opacity="1" /><path clip-path="url(#clip820)" d="M 0 0 M1811.23 339.921 L1811.23 355.57 L1806.97 355.57 L1806.97 340.06 Q1806.97 336.38 1805.54 334.551 Q1804.1 332.722 1801.23 332.722 Q1797.79 332.722 1795.79 334.922 Q1793.8 337.121 1793.8 340.917 L1793.8 355.57 L1789.52 355.57 L1789.52 329.644 L1793.8 329.644 L1793.8 333.672 Q1795.33 331.334 1797.39 330.176 Q1799.48 329.019 1802.18 329.019 Q1806.65 329.019 1808.94 331.797 Q1811.23 334.551 1811.23 339.921 Z" fill="#000000" fill-rule="evenodd" fill-opacity="1" /><polyline clip-path="url(#clip820)" style="stroke:#000000; stroke-width:4; stroke-opacity:1; fill:none" points="
  1519.75,398.77 1670.81,398.77 
  "/>
<path clip-path="url(#clip820)" d="M 0 0 M1716.33 395.101 Q1717.92 392.23 1720.15 390.865 Q1722.37 389.499 1725.38 389.499 Q1729.43 389.499 1731.63 392.346 Q1733.83 395.17 1733.83 400.401 L1733.83 416.05 L1729.54 416.05 L1729.54 400.54 Q1729.54 396.814 1728.23 395.008 Q1726.91 393.202 1724.2 393.202 Q1720.89 393.202 1718.97 395.402 Q1717.04 397.601 1717.04 401.397 L1717.04 416.05 L1712.76 416.05 L1712.76 400.54 Q1712.76 396.79 1711.44 395.008 Q1710.12 393.202 1707.37 393.202 Q1704.11 393.202 1702.18 395.425 Q1700.26 397.624 1700.26 401.397 L1700.26 416.05 L1695.98 416.05 L1695.98 390.124 L1700.26 390.124 L1700.26 394.152 Q1701.72 391.767 1703.76 390.633 Q1705.79 389.499 1708.6 389.499 Q1711.42 389.499 1713.39 390.934 Q1715.38 392.369 1716.33 395.101 Z" fill="#000000" fill-rule="evenodd" fill-opacity="1" /><path clip-path="url(#clip820)" d="M 0 0 M1760.47 402.022 L1760.47 404.105 L1740.89 404.105 Q1741.17 408.503 1743.53 410.818 Q1745.91 413.11 1750.15 413.11 Q1752.6 413.11 1754.89 412.508 Q1757.21 411.906 1759.48 410.702 L1759.48 414.73 Q1757.18 415.702 1754.78 416.212 Q1752.37 416.721 1749.89 416.721 Q1743.69 416.721 1740.05 413.11 Q1736.44 409.499 1736.44 403.341 Q1736.44 396.976 1739.87 393.249 Q1743.32 389.499 1749.15 389.499 Q1754.38 389.499 1757.42 392.878 Q1760.47 396.235 1760.47 402.022 M1756.21 400.772 Q1756.17 397.277 1754.24 395.193 Q1752.35 393.11 1749.2 393.11 Q1745.63 393.11 1743.48 395.124 Q1741.35 397.138 1741.03 400.795 L1756.21 400.772 Z" fill="#000000" fill-rule="evenodd" fill-opacity="1" /><path clip-path="url(#clip820)" d="M 0 0 M1782 394.059 L1782 380.031 L1786.26 380.031 L1786.26 416.05 L1782 416.05 L1782 412.161 Q1780.66 414.475 1778.6 415.61 Q1776.56 416.721 1773.69 416.721 Q1768.99 416.721 1766.03 412.971 Q1763.09 409.221 1763.09 403.11 Q1763.09 396.999 1766.03 393.249 Q1768.99 389.499 1773.69 389.499 Q1776.56 389.499 1778.6 390.633 Q1780.66 391.744 1782 394.059 M1767.48 403.11 Q1767.48 407.809 1769.41 410.494 Q1771.35 413.156 1774.73 413.156 Q1778.11 413.156 1780.05 410.494 Q1782 407.809 1782 403.11 Q1782 398.411 1780.05 395.749 Q1778.11 393.064 1774.73 393.064 Q1771.35 393.064 1769.41 395.749 Q1767.48 398.411 1767.48 403.11 Z" fill="#000000" fill-rule="evenodd" fill-opacity="1" /><path clip-path="url(#clip820)" d="M 0 0 M1790.73 390.124 L1794.98 390.124 L1794.98 416.05 L1790.73 416.05 L1790.73 390.124 M1790.73 380.031 L1794.98 380.031 L1794.98 385.425 L1790.73 385.425 L1790.73 380.031 Z" fill="#000000" fill-rule="evenodd" fill-opacity="1" /><path clip-path="url(#clip820)" d="M 0 0 M1811.23 403.017 Q1806.07 403.017 1804.08 404.198 Q1802.09 405.378 1802.09 408.226 Q1802.09 410.494 1803.57 411.837 Q1805.08 413.156 1807.65 413.156 Q1811.19 413.156 1813.32 410.656 Q1815.47 408.133 1815.47 403.966 L1815.47 403.017 L1811.23 403.017 M1819.73 401.258 L1819.73 416.05 L1815.47 416.05 L1815.47 412.114 Q1814.01 414.475 1811.84 415.61 Q1809.66 416.721 1806.51 416.721 Q1802.53 416.721 1800.17 414.499 Q1797.83 412.253 1797.83 408.503 Q1797.83 404.128 1800.75 401.906 Q1803.69 399.684 1809.5 399.684 L1815.47 399.684 L1815.47 399.267 Q1815.47 396.327 1813.53 394.73 Q1811.6 393.11 1808.11 393.11 Q1805.89 393.11 1803.78 393.642 Q1801.67 394.175 1799.73 395.239 L1799.73 391.304 Q1802.07 390.402 1804.27 389.962 Q1806.47 389.499 1808.55 389.499 Q1814.17 389.499 1816.95 392.415 Q1819.73 395.332 1819.73 401.258 Z" fill="#000000" fill-rule="evenodd" fill-opacity="1" /><path clip-path="url(#clip820)" d="M 0 0 M1845.75 400.401 L1845.75 416.05 L1841.49 416.05 L1841.49 400.54 Q1841.49 396.86 1840.05 395.031 Q1838.62 393.202 1835.75 393.202 Q1832.3 393.202 1830.31 395.402 Q1828.32 397.601 1828.32 401.397 L1828.32 416.05 L1824.04 416.05 L1824.04 390.124 L1828.32 390.124 L1828.32 394.152 Q1829.85 391.814 1831.91 390.656 Q1833.99 389.499 1836.7 389.499 Q1841.16 389.499 1843.46 392.277 Q1845.75 395.031 1845.75 400.401 Z" fill="#000000" fill-rule="evenodd" fill-opacity="1" /></svg>
