<?xml version="1.0" encoding="utf-8"?>
<svg xmlns="http://www.w3.org/2000/svg" xmlns:xlink="http://www.w3.org/1999/xlink" width="600" height="400" viewBox="0 0 2400 1600">
<defs>
  <clipPath id="clip850">
    <rect x="0" y="0" width="2400" height="1600"/>
  </clipPath>
</defs>
<path clip-path="url(#clip850)" d="
M0 1600 L2400 1600 L2400 0 L0 0  Z
  " fill="#ffffff" fill-rule="evenodd" fill-opacity="1"/>
<defs>
  <clipPath id="clip851">
    <rect x="480" y="0" width="1681" height="1600"/>
  </clipPath>
</defs>
<path clip-path="url(#clip850)" d="
M86.9921 1521.01 L2352.76 1521.01 L2352.76 47.2441 L86.9921 47.2441  Z
  " fill="#ffffff" fill-rule="evenodd" fill-opacity="1"/>
<defs>
  <clipPath id="clip852">
    <rect x="86" y="47" width="2267" height="1475"/>
  </clipPath>
</defs>
<polyline clip-path="url(#clip852)" style="stroke:#000000; stroke-width:2; stroke-opacity:0.1; fill:none" points="
  147.299,1521.01 147.299,47.2441 
  "/>
<polyline clip-path="url(#clip852)" style="stroke:#000000; stroke-width:2; stroke-opacity:0.1; fill:none" points="
  683.61,1521.01 683.61,47.2441 
  "/>
<polyline clip-path="url(#clip852)" style="stroke:#000000; stroke-width:2; stroke-opacity:0.1; fill:none" points="
  1219.92,1521.01 1219.92,47.2441 
  "/>
<polyline clip-path="url(#clip852)" style="stroke:#000000; stroke-width:2; stroke-opacity:0.1; fill:none" points="
  1756.23,1521.01 1756.23,47.2441 
  "/>
<polyline clip-path="url(#clip852)" style="stroke:#000000; stroke-width:2; stroke-opacity:0.1; fill:none" points="
  2292.54,1521.01 2292.54,47.2441 
  "/>
<polyline clip-path="url(#clip852)" style="stroke:#000000; stroke-width:2; stroke-opacity:0.1; fill:none" points="
  86.9921,1479.3 2352.76,1479.3 
  "/>
<polyline clip-path="url(#clip852)" style="stroke:#000000; stroke-width:2; stroke-opacity:0.1; fill:none" points="
  86.9921,1274.25 2352.76,1274.25 
  "/>
<polyline clip-path="url(#clip852)" style="stroke:#000000; stroke-width:2; stroke-opacity:0.1; fill:none" points="
  86.9921,1069.21 2352.76,1069.21 
  "/>
<polyline clip-path="url(#clip852)" style="stroke:#000000; stroke-width:2; stroke-opacity:0.1; fill:none" points="
  86.9921,864.168 2352.76,864.168 
  "/>
<polyline clip-path="url(#clip852)" style="stroke:#000000; stroke-width:2; stroke-opacity:0.1; fill:none" points="
  86.9921,659.125 2352.76,659.125 
  "/>
<polyline clip-path="url(#clip852)" style="stroke:#000000; stroke-width:2; stroke-opacity:0.1; fill:none" points="
  86.9921,454.082 2352.76,454.082 
  "/>
<polyline clip-path="url(#clip852)" style="stroke:#000000; stroke-width:2; stroke-opacity:0.1; fill:none" points="
  86.9921,249.039 2352.76,249.039 
  "/>
<polyline clip-path="url(#clip850)" style="stroke:#000000; stroke-width:4; stroke-opacity:1; fill:none" points="
  86.9921,1521.01 2352.76,1521.01 
  "/>
<polyline clip-path="url(#clip850)" style="stroke:#000000; stroke-width:4; stroke-opacity:1; fill:none" points="
  86.9921,1521.01 86.9921,47.2441 
  "/>
<polyline clip-path="url(#clip850)" style="stroke:#000000; stroke-width:4; stroke-opacity:1; fill:none" points="
  147.299,1521.01 147.299,1503.32 
  "/>
<polyline clip-path="url(#clip850)" style="stroke:#000000; stroke-width:4; stroke-opacity:1; fill:none" points="
  683.61,1521.01 683.61,1503.32 
  "/>
<polyline clip-path="url(#clip850)" style="stroke:#000000; stroke-width:4; stroke-opacity:1; fill:none" points="
  1219.92,1521.01 1219.92,1503.32 
  "/>
<polyline clip-path="url(#clip850)" style="stroke:#000000; stroke-width:4; stroke-opacity:1; fill:none" points="
  1756.23,1521.01 1756.23,1503.32 
  "/>
<polyline clip-path="url(#clip850)" style="stroke:#000000; stroke-width:4; stroke-opacity:1; fill:none" points="
  2292.54,1521.01 2292.54,1503.32 
  "/>
<polyline clip-path="url(#clip850)" style="stroke:#000000; stroke-width:4; stroke-opacity:1; fill:none" points="
  86.9921,1479.3 114.181,1479.3 
  "/>
<polyline clip-path="url(#clip850)" style="stroke:#000000; stroke-width:4; stroke-opacity:1; fill:none" points="
  86.9921,1274.25 114.181,1274.25 
  "/>
<polyline clip-path="url(#clip850)" style="stroke:#000000; stroke-width:4; stroke-opacity:1; fill:none" points="
  86.9921,1069.21 114.181,1069.21 
  "/>
<polyline clip-path="url(#clip850)" style="stroke:#000000; stroke-width:4; stroke-opacity:1; fill:none" points="
  86.9921,864.168 114.181,864.168 
  "/>
<polyline clip-path="url(#clip850)" style="stroke:#000000; stroke-width:4; stroke-opacity:1; fill:none" points="
  86.9921,659.125 114.181,659.125 
  "/>
<polyline clip-path="url(#clip850)" style="stroke:#000000; stroke-width:4; stroke-opacity:1; fill:none" points="
  86.9921,454.082 114.181,454.082 
  "/>
<polyline clip-path="url(#clip850)" style="stroke:#000000; stroke-width:4; stroke-opacity:1; fill:none" points="
  86.9921,249.039 114.181,249.039 
  "/>
<path clip-path="url(#clip850)" d="M 0 0 M133.063 1555.85 Q136.42 1556.56 138.295 1558.83 Q140.193 1561.1 140.193 1564.43 Q140.193 1569.55 136.674 1572.35 Q133.156 1575.15 126.674 1575.15 Q124.498 1575.15 122.184 1574.71 Q119.892 1574.29 117.438 1573.44 L117.438 1568.92 Q119.383 1570.06 121.698 1570.64 Q124.012 1571.22 126.535 1571.22 Q130.934 1571.22 133.225 1569.48 Q135.54 1567.74 135.54 1564.43 Q135.54 1561.38 133.387 1559.67 Q131.258 1557.93 127.438 1557.93 L123.41 1557.93 L123.41 1554.09 L127.623 1554.09 Q131.072 1554.09 132.901 1552.72 Q134.73 1551.33 134.73 1548.74 Q134.73 1546.08 132.832 1544.67 Q130.957 1543.23 127.438 1543.23 Q125.517 1543.23 123.318 1543.65 Q121.119 1544.06 118.48 1544.94 L118.48 1540.78 Q121.142 1540.04 123.457 1539.67 Q125.795 1539.29 127.855 1539.29 Q133.179 1539.29 136.281 1541.73 Q139.383 1544.13 139.383 1548.25 Q139.383 1551.12 137.739 1553.11 Q136.096 1555.08 133.063 1555.85 Z" fill="#000000" fill-rule="evenodd" fill-opacity="1" /><path clip-path="url(#clip850)" d="M 0 0 M145.262 1568.6 L150.146 1568.6 L150.146 1574.48 L145.262 1574.48 L145.262 1568.6 Z" fill="#000000" fill-rule="evenodd" fill-opacity="1" /><path clip-path="url(#clip850)" d="M 0 0 M165.216 1543 Q161.605 1543 159.776 1546.56 Q157.97 1550.11 157.97 1557.23 Q157.97 1564.34 159.776 1567.91 Q161.605 1571.45 165.216 1571.45 Q168.85 1571.45 170.656 1567.91 Q172.484 1564.34 172.484 1557.23 Q172.484 1550.11 170.656 1546.56 Q168.85 1543 165.216 1543 M165.216 1539.29 Q171.026 1539.29 174.082 1543.9 Q177.16 1548.48 177.16 1557.23 Q177.16 1565.96 174.082 1570.57 Q171.026 1575.15 165.216 1575.15 Q159.406 1575.15 156.327 1570.57 Q153.271 1565.96 153.271 1557.23 Q153.271 1548.48 156.327 1543.9 Q159.406 1539.29 165.216 1539.29 Z" fill="#000000" fill-rule="evenodd" fill-opacity="1" /><path clip-path="url(#clip850)" d="M 0 0 M669.872 1555.85 Q673.228 1556.56 675.103 1558.83 Q677.001 1561.1 677.001 1564.43 Q677.001 1569.55 673.483 1572.35 Q669.964 1575.15 663.483 1575.15 Q661.307 1575.15 658.992 1574.71 Q656.7 1574.29 654.247 1573.44 L654.247 1568.92 Q656.191 1570.06 658.506 1570.64 Q660.821 1571.22 663.344 1571.22 Q667.742 1571.22 670.034 1569.48 Q672.349 1567.74 672.349 1564.43 Q672.349 1561.38 670.196 1559.67 Q668.066 1557.93 664.247 1557.93 L660.219 1557.93 L660.219 1554.09 L664.432 1554.09 Q667.881 1554.09 669.71 1552.72 Q671.538 1551.33 671.538 1548.74 Q671.538 1546.08 669.64 1544.67 Q667.765 1543.23 664.247 1543.23 Q662.325 1543.23 660.126 1543.65 Q657.927 1544.06 655.288 1544.94 L655.288 1540.78 Q657.95 1540.04 660.265 1539.67 Q662.603 1539.29 664.663 1539.29 Q669.987 1539.29 673.089 1541.73 Q676.191 1544.13 676.191 1548.25 Q676.191 1551.12 674.548 1553.11 Q672.904 1555.08 669.872 1555.85 Z" fill="#000000" fill-rule="evenodd" fill-opacity="1" /><path clip-path="url(#clip850)" d="M 0 0 M682.071 1568.6 L686.955 1568.6 L686.955 1574.48 L682.071 1574.48 L682.071 1568.6 Z" fill="#000000" fill-rule="evenodd" fill-opacity="1" /><path clip-path="url(#clip850)" d="M 0 0 M692.071 1539.92 L710.427 1539.92 L710.427 1543.86 L696.353 1543.86 L696.353 1552.33 Q697.372 1551.98 698.39 1551.82 Q699.409 1551.63 700.427 1551.63 Q706.214 1551.63 709.594 1554.8 Q712.973 1557.98 712.973 1563.39 Q712.973 1568.97 709.501 1572.07 Q706.029 1575.15 699.709 1575.15 Q697.534 1575.15 695.265 1574.78 Q693.02 1574.41 690.612 1573.67 L690.612 1568.97 Q692.696 1570.1 694.918 1570.66 Q697.14 1571.22 699.617 1571.22 Q703.621 1571.22 705.959 1569.11 Q708.297 1567 708.297 1563.39 Q708.297 1559.78 705.959 1557.67 Q703.621 1555.57 699.617 1555.57 Q697.742 1555.57 695.867 1555.98 Q694.015 1556.4 692.071 1557.28 L692.071 1539.92 Z" fill="#000000" fill-rule="evenodd" fill-opacity="1" /><path clip-path="url(#clip850)" d="M 0 0 M1204.45 1543.99 L1192.64 1562.44 L1204.45 1562.44 L1204.45 1543.99 M1203.22 1539.92 L1209.1 1539.92 L1209.1 1562.44 L1214.03 1562.44 L1214.03 1566.33 L1209.1 1566.33 L1209.1 1574.48 L1204.45 1574.48 L1204.45 1566.33 L1188.84 1566.33 L1188.84 1561.82 L1203.22 1539.92 Z" fill="#000000" fill-rule="evenodd" fill-opacity="1" /><path clip-path="url(#clip850)" d="M 0 0 M1219.1 1568.6 L1223.98 1568.6 L1223.98 1574.48 L1219.1 1574.48 L1219.1 1568.6 Z" fill="#000000" fill-rule="evenodd" fill-opacity="1" /><path clip-path="url(#clip850)" d="M 0 0 M1239.05 1543 Q1235.44 1543 1233.61 1546.56 Q1231.81 1550.11 1231.81 1557.23 Q1231.81 1564.34 1233.61 1567.91 Q1235.44 1571.45 1239.05 1571.45 Q1242.69 1571.45 1244.49 1567.91 Q1246.32 1564.34 1246.32 1557.23 Q1246.32 1550.11 1244.49 1546.56 Q1242.69 1543 1239.05 1543 M1239.05 1539.29 Q1244.86 1539.29 1247.92 1543.9 Q1251 1548.48 1251 1557.23 Q1251 1565.96 1247.92 1570.57 Q1244.86 1575.15 1239.05 1575.15 Q1233.24 1575.15 1230.16 1570.57 Q1227.11 1565.96 1227.11 1557.23 Q1227.11 1548.48 1230.16 1543.9 Q1233.24 1539.29 1239.05 1539.29 Z" fill="#000000" fill-rule="evenodd" fill-opacity="1" /><path clip-path="url(#clip850)" d="M 0 0 M1741.25 1543.99 L1729.45 1562.44 L1741.25 1562.44 L1741.25 1543.99 M1740.03 1539.92 L1745.91 1539.92 L1745.91 1562.44 L1750.84 1562.44 L1750.84 1566.33 L1745.91 1566.33 L1745.91 1574.48 L1741.25 1574.48 L1741.25 1566.33 L1725.65 1566.33 L1725.65 1561.82 L1740.03 1539.92 Z" fill="#000000" fill-rule="evenodd" fill-opacity="1" /><path clip-path="url(#clip850)" d="M 0 0 M1755.91 1568.6 L1760.79 1568.6 L1760.79 1574.48 L1755.91 1574.48 L1755.91 1568.6 Z" fill="#000000" fill-rule="evenodd" fill-opacity="1" /><path clip-path="url(#clip850)" d="M 0 0 M1765.91 1539.92 L1784.26 1539.92 L1784.26 1543.86 L1770.19 1543.86 L1770.19 1552.33 Q1771.21 1551.98 1772.23 1551.82 Q1773.25 1551.63 1774.26 1551.63 Q1780.05 1551.63 1783.43 1554.8 Q1786.81 1557.98 1786.81 1563.39 Q1786.81 1568.97 1783.34 1572.07 Q1779.87 1575.15 1773.55 1575.15 Q1771.37 1575.15 1769.1 1574.78 Q1766.86 1574.41 1764.45 1573.67 L1764.45 1568.97 Q1766.53 1570.1 1768.75 1570.66 Q1770.98 1571.22 1773.45 1571.22 Q1777.46 1571.22 1779.8 1569.11 Q1782.13 1567 1782.13 1563.39 Q1782.13 1559.78 1779.8 1557.67 Q1777.46 1555.57 1773.45 1555.57 Q1771.58 1555.57 1769.7 1555.98 Q1767.85 1556.4 1765.91 1557.28 L1765.91 1539.92 Z" fill="#000000" fill-rule="evenodd" fill-opacity="1" /><path clip-path="url(#clip850)" d="M 0 0 M2264.34 1539.92 L2282.69 1539.92 L2282.69 1543.86 L2268.62 1543.86 L2268.62 1552.33 Q2269.64 1551.98 2270.66 1551.82 Q2271.67 1551.63 2272.69 1551.63 Q2278.48 1551.63 2281.86 1554.8 Q2285.24 1557.98 2285.24 1563.39 Q2285.24 1568.97 2281.77 1572.07 Q2278.29 1575.15 2271.98 1575.15 Q2269.8 1575.15 2267.53 1574.78 Q2265.29 1574.41 2262.88 1573.67 L2262.88 1568.97 Q2264.96 1570.1 2267.18 1570.66 Q2269.41 1571.22 2271.88 1571.22 Q2275.89 1571.22 2278.23 1569.11 Q2280.56 1567 2280.56 1563.39 Q2280.56 1559.78 2278.23 1557.67 Q2275.89 1555.57 2271.88 1555.57 Q2270.01 1555.57 2268.13 1555.98 Q2266.28 1556.4 2264.34 1557.28 L2264.34 1539.92 Z" fill="#000000" fill-rule="evenodd" fill-opacity="1" /><path clip-path="url(#clip850)" d="M 0 0 M2290.31 1568.6 L2295.19 1568.6 L2295.19 1574.48 L2290.31 1574.48 L2290.31 1568.6 Z" fill="#000000" fill-rule="evenodd" fill-opacity="1" /><path clip-path="url(#clip850)" d="M 0 0 M2310.26 1543 Q2306.65 1543 2304.82 1546.56 Q2303.02 1550.11 2303.02 1557.23 Q2303.02 1564.34 2304.82 1567.91 Q2306.65 1571.45 2310.26 1571.45 Q2313.9 1571.45 2315.7 1567.91 Q2317.53 1564.34 2317.53 1557.23 Q2317.53 1550.11 2315.7 1546.56 Q2313.9 1543 2310.26 1543 M2310.26 1539.29 Q2316.07 1539.29 2319.13 1543.9 Q2322.21 1548.48 2322.21 1557.23 Q2322.21 1565.96 2319.13 1570.57 Q2316.07 1575.15 2310.26 1575.15 Q2304.45 1575.15 2301.37 1570.57 Q2298.32 1565.96 2298.32 1557.23 Q2298.32 1548.48 2301.37 1543.9 Q2304.45 1539.29 2310.26 1539.29 Z" fill="#000000" fill-rule="evenodd" fill-opacity="1" /><path clip-path="url(#clip850)" d="M 0 0 M14.0804 1465.1 Q10.4693 1465.1 8.64057 1468.66 Q6.83502 1472.2 6.83502 1479.33 Q6.83502 1486.44 8.64057 1490 Q10.4693 1493.55 14.0804 1493.55 Q17.7146 1493.55 19.5201 1490 Q21.3488 1486.44 21.3488 1479.33 Q21.3488 1472.2 19.5201 1468.66 Q17.7146 1465.1 14.0804 1465.1 M14.0804 1461.39 Q19.8905 1461.39 22.946 1466 Q26.0247 1470.58 26.0247 1479.33 Q26.0247 1488.06 22.946 1492.67 Q19.8905 1497.25 14.0804 1497.25 Q8.2702 1497.25 5.19151 1492.67 Q2.13597 1488.06 2.13597 1479.33 Q2.13597 1470.58 5.19151 1466 Q8.2702 1461.39 14.0804 1461.39 Z" fill="#000000" fill-rule="evenodd" fill-opacity="1" /><path clip-path="url(#clip850)" d="M 0 0 M31.0941 1490.7 L35.9784 1490.7 L35.9784 1496.58 L31.0941 1496.58 L31.0941 1490.7 Z" fill="#000000" fill-rule="evenodd" fill-opacity="1" /><path clip-path="url(#clip850)" d="M 0 0 M51.0477 1465.1 Q47.4367 1465.1 45.608 1468.66 Q43.8024 1472.2 43.8024 1479.33 Q43.8024 1486.44 45.608 1490 Q47.4367 1493.55 51.0477 1493.55 Q54.682 1493.55 56.4875 1490 Q58.3162 1486.44 58.3162 1479.33 Q58.3162 1472.2 56.4875 1468.66 Q54.682 1465.1 51.0477 1465.1 M51.0477 1461.39 Q56.8579 1461.39 59.9134 1466 Q62.9921 1470.58 62.9921 1479.33 Q62.9921 1488.06 59.9134 1492.67 Q56.8579 1497.25 51.0477 1497.25 Q45.2376 1497.25 42.1589 1492.67 Q39.1034 1488.06 39.1034 1479.33 Q39.1034 1470.58 42.1589 1466 Q45.2376 1461.39 51.0477 1461.39 Z" fill="#000000" fill-rule="evenodd" fill-opacity="1" /><path clip-path="url(#clip850)" d="M 0 0 M15.3072 1260.05 Q11.6961 1260.05 9.86741 1263.62 Q8.06186 1267.16 8.06186 1274.29 Q8.06186 1281.4 9.86741 1284.96 Q11.6961 1288.5 15.3072 1288.5 Q18.9414 1288.5 20.747 1284.96 Q22.5757 1281.4 22.5757 1274.29 Q22.5757 1267.16 20.747 1263.62 Q18.9414 1260.05 15.3072 1260.05 M15.3072 1256.35 Q21.1174 1256.35 24.1729 1260.96 Q27.2516 1265.54 27.2516 1274.29 Q27.2516 1283.02 24.1729 1287.62 Q21.1174 1292.21 15.3072 1292.21 Q9.49704 1292.21 6.41836 1287.62 Q3.36282 1283.02 3.36282 1274.29 Q3.36282 1265.54 6.41836 1260.96 Q9.49704 1256.35 15.3072 1256.35 Z" fill="#000000" fill-rule="evenodd" fill-opacity="1" /><path clip-path="url(#clip850)" d="M 0 0 M32.321 1285.65 L37.2052 1285.65 L37.2052 1291.53 L32.321 1291.53 L32.321 1285.65 Z" fill="#000000" fill-rule="evenodd" fill-opacity="1" /><path clip-path="url(#clip850)" d="M 0 0 M43.0848 1287.6 L50.7237 1287.6 L50.7237 1261.23 L42.4135 1262.9 L42.4135 1258.64 L50.6774 1256.97 L55.3533 1256.97 L55.3533 1287.6 L62.9921 1287.6 L62.9921 1291.53 L43.0848 1291.53 L43.0848 1287.6 Z" fill="#000000" fill-rule="evenodd" fill-opacity="1" /><path clip-path="url(#clip850)" d="M 0 0 M15.6776 1055.01 Q12.0665 1055.01 10.2378 1058.57 Q8.43223 1062.12 8.43223 1069.25 Q8.43223 1076.35 10.2378 1079.92 Q12.0665 1083.46 15.6776 1083.46 Q19.3118 1083.46 21.1174 1079.92 Q22.946 1076.35 22.946 1069.25 Q22.946 1062.12 21.1174 1058.57 Q19.3118 1055.01 15.6776 1055.01 M15.6776 1051.31 Q21.4877 1051.31 24.5433 1055.91 Q27.6219 1060.5 27.6219 1069.25 Q27.6219 1077.97 24.5433 1082.58 Q21.4877 1087.16 15.6776 1087.16 Q9.86741 1087.16 6.78872 1082.58 Q3.73318 1077.97 3.73318 1069.25 Q3.73318 1060.5 6.78872 1055.91 Q9.86741 1051.31 15.6776 1051.31 Z" fill="#000000" fill-rule="evenodd" fill-opacity="1" /><path clip-path="url(#clip850)" d="M 0 0 M32.6914 1080.61 L37.5756 1080.61 L37.5756 1086.49 L32.6914 1086.49 L32.6914 1080.61 Z" fill="#000000" fill-rule="evenodd" fill-opacity="1" /><path clip-path="url(#clip850)" d="M 0 0 M46.6728 1082.56 L62.9921 1082.56 L62.9921 1086.49 L41.0478 1086.49 L41.0478 1082.56 Q43.7098 1079.8 48.2931 1075.17 Q52.8996 1070.52 54.0801 1069.18 Q56.3255 1066.65 57.2051 1064.92 Q58.1079 1063.16 58.1079 1061.47 Q58.1079 1058.71 56.1635 1056.98 Q54.2422 1055.24 51.1403 1055.24 Q48.9413 1055.24 46.4876 1056.01 Q44.057 1056.77 41.2793 1058.32 L41.2793 1053.6 Q44.1033 1052.46 46.557 1051.88 Q49.0107 1051.31 51.0477 1051.31 Q56.4181 1051.31 59.6125 1053.99 Q62.8069 1056.68 62.8069 1061.17 Q62.8069 1063.3 61.9968 1065.22 Q61.2097 1067.12 59.1033 1069.71 Q58.5246 1070.38 55.4227 1073.6 Q52.3209 1076.79 46.6728 1082.56 Z" fill="#000000" fill-rule="evenodd" fill-opacity="1" /><path clip-path="url(#clip850)" d="M 0 0 M14.7285 849.967 Q11.1174 849.967 9.28871 853.532 Q7.48316 857.073 7.48316 864.203 Q7.48316 871.309 9.28871 874.874 Q11.1174 878.416 14.7285 878.416 Q18.3627 878.416 20.1683 874.874 Q21.997 871.309 21.997 864.203 Q21.997 857.073 20.1683 853.532 Q18.3627 849.967 14.7285 849.967 M14.7285 846.263 Q20.5386 846.263 23.5942 850.87 Q26.6729 855.453 26.6729 864.203 Q26.6729 872.93 23.5942 877.536 Q20.5386 882.119 14.7285 882.119 Q8.91834 882.119 5.83965 877.536 Q2.78412 872.93 2.78412 864.203 Q2.78412 855.453 5.83965 850.87 Q8.91834 846.263 14.7285 846.263 Z" fill="#000000" fill-rule="evenodd" fill-opacity="1" /><path clip-path="url(#clip850)" d="M 0 0 M31.7423 875.568 L36.6265 875.568 L36.6265 881.448 L31.7423 881.448 L31.7423 875.568 Z" fill="#000000" fill-rule="evenodd" fill-opacity="1" /><path clip-path="url(#clip850)" d="M 0 0 M55.8625 862.814 Q59.219 863.532 61.094 865.8 Q62.9921 868.069 62.9921 871.402 Q62.9921 876.518 59.4736 879.318 Q55.9551 882.119 49.4737 882.119 Q47.2978 882.119 44.983 881.68 Q42.6913 881.263 40.2376 880.406 L40.2376 875.893 Q42.1821 877.027 44.4969 877.606 Q46.8117 878.184 49.3348 878.184 Q53.7329 878.184 56.0246 876.448 Q58.3394 874.712 58.3394 871.402 Q58.3394 868.346 56.1866 866.633 Q54.057 864.897 50.2376 864.897 L46.2098 864.897 L46.2098 861.055 L50.4227 861.055 Q53.8718 861.055 55.7005 859.689 Q57.5292 858.3 57.5292 855.707 Q57.5292 853.045 55.6311 851.633 Q53.7561 850.198 50.2376 850.198 Q48.3163 850.198 46.1172 850.615 Q43.9182 851.032 41.2793 851.911 L41.2793 847.745 Q43.9413 847.004 46.2561 846.633 Q48.5941 846.263 50.6542 846.263 Q55.9783 846.263 59.0801 848.694 Q62.1819 851.101 62.1819 855.221 Q62.1819 858.092 60.5384 860.082 Q58.8949 862.05 55.8625 862.814 Z" fill="#000000" fill-rule="evenodd" fill-opacity="1" /><path clip-path="url(#clip850)" d="M 0 0 M13.5942 644.924 Q9.98315 644.924 8.15446 648.488 Q6.34891 652.03 6.34891 659.16 Q6.34891 666.266 8.15446 669.831 Q9.98315 673.373 13.5942 673.373 Q17.2285 673.373 19.034 669.831 Q20.8627 666.266 20.8627 659.16 Q20.8627 652.03 19.034 648.488 Q17.2285 644.924 13.5942 644.924 M13.5942 641.22 Q19.4044 641.22 22.4599 645.826 Q25.5386 650.41 25.5386 659.16 Q25.5386 667.886 22.4599 672.493 Q19.4044 677.076 13.5942 677.076 Q7.78409 677.076 4.7054 672.493 Q1.64986 667.886 1.64986 659.16 Q1.64986 650.41 4.7054 645.826 Q7.78409 641.22 13.5942 641.22 Z" fill="#000000" fill-rule="evenodd" fill-opacity="1" /><path clip-path="url(#clip850)" d="M 0 0 M30.608 670.525 L35.4923 670.525 L35.4923 676.405 L30.608 676.405 L30.608 670.525 Z" fill="#000000" fill-rule="evenodd" fill-opacity="1" /><path clip-path="url(#clip850)" d="M 0 0 M53.4088 645.919 L41.6034 664.368 L53.4088 664.368 L53.4088 645.919 M52.182 641.845 L58.0616 641.845 L58.0616 664.368 L62.9921 664.368 L62.9921 668.257 L58.0616 668.257 L58.0616 676.405 L53.4088 676.405 L53.4088 668.257 L37.8071 668.257 L37.8071 663.743 L52.182 641.845 Z" fill="#000000" fill-rule="evenodd" fill-opacity="1" /><path clip-path="url(#clip850)" d="M 0 0 M15.0757 439.88 Q11.4646 439.88 9.63593 443.445 Q7.83038 446.987 7.83038 454.116 Q7.83038 461.223 9.63593 464.788 Q11.4646 468.329 15.0757 468.329 Q18.71 468.329 20.5155 464.788 Q22.3442 461.223 22.3442 454.116 Q22.3442 446.987 20.5155 443.445 Q18.71 439.88 15.0757 439.88 M15.0757 436.177 Q20.8859 436.177 23.9414 440.783 Q27.0201 445.367 27.0201 454.116 Q27.0201 462.843 23.9414 467.45 Q20.8859 472.033 15.0757 472.033 Q9.26556 472.033 6.18687 467.45 Q3.13134 462.843 3.13134 454.116 Q3.13134 445.367 6.18687 440.783 Q9.26556 436.177 15.0757 436.177 Z" fill="#000000" fill-rule="evenodd" fill-opacity="1" /><path clip-path="url(#clip850)" d="M 0 0 M32.0895 465.482 L36.9737 465.482 L36.9737 471.362 L32.0895 471.362 L32.0895 465.482 Z" fill="#000000" fill-rule="evenodd" fill-opacity="1" /><path clip-path="url(#clip850)" d="M 0 0 M42.0895 436.802 L60.4458 436.802 L60.4458 440.737 L46.3718 440.737 L46.3718 449.209 Q47.3904 448.862 48.4089 448.7 Q49.4274 448.515 50.4459 448.515 Q56.2329 448.515 59.6125 451.686 Q62.9921 454.857 62.9921 460.274 Q62.9921 465.853 59.5199 468.954 Q56.0477 472.033 49.7283 472.033 Q47.5524 472.033 45.2839 471.663 Q43.0385 471.292 40.6311 470.552 L40.6311 465.853 Q42.7145 466.987 44.9367 467.542 Q47.1589 468.098 49.6357 468.098 Q53.6403 468.098 55.9783 465.991 Q58.3162 463.885 58.3162 460.274 Q58.3162 456.663 55.9783 454.556 Q53.6403 452.45 49.6357 452.45 Q47.7607 452.45 45.8857 452.866 Q44.0339 453.283 42.0895 454.163 L42.0895 436.802 Z" fill="#000000" fill-rule="evenodd" fill-opacity="1" /><path clip-path="url(#clip850)" d="M 0 0 M13.9183 234.837 Q10.3072 234.837 8.47853 238.402 Q6.67298 241.944 6.67298 249.073 Q6.67298 256.18 8.47853 259.745 Q10.3072 263.286 13.9183 263.286 Q17.5526 263.286 19.3581 259.745 Q21.1868 256.18 21.1868 249.073 Q21.1868 241.944 19.3581 238.402 Q17.5526 234.837 13.9183 234.837 M13.9183 231.134 Q19.7285 231.134 22.784 235.74 Q25.8627 240.323 25.8627 249.073 Q25.8627 257.8 22.784 262.407 Q19.7285 266.99 13.9183 266.99 Q8.10816 266.99 5.02947 262.407 Q1.97393 257.8 1.97393 249.073 Q1.97393 240.323 5.02947 235.74 Q8.10816 231.134 13.9183 231.134 Z" fill="#000000" fill-rule="evenodd" fill-opacity="1" /><path clip-path="url(#clip850)" d="M 0 0 M30.9321 260.439 L35.8163 260.439 L35.8163 266.319 L30.9321 266.319 L30.9321 260.439 Z" fill="#000000" fill-rule="evenodd" fill-opacity="1" /><path clip-path="url(#clip850)" d="M 0 0 M51.4644 247.175 Q48.3163 247.175 46.4644 249.328 Q44.6357 251.481 44.6357 255.231 Q44.6357 258.958 46.4644 261.133 Q48.3163 263.286 51.4644 263.286 Q54.6125 263.286 56.4412 261.133 Q58.2931 258.958 58.2931 255.231 Q58.2931 251.481 56.4412 249.328 Q54.6125 247.175 51.4644 247.175 M60.7468 232.522 L60.7468 236.782 Q58.9875 235.948 57.182 235.509 Q55.3996 235.069 53.6403 235.069 Q49.0107 235.069 46.557 238.194 Q44.1265 241.319 43.7793 247.638 Q45.145 245.624 47.2052 244.559 Q49.2653 243.471 51.7422 243.471 Q56.9505 243.471 59.9597 246.643 Q62.9921 249.791 62.9921 255.231 Q62.9921 260.555 59.844 263.772 Q56.6959 266.99 51.4644 266.99 Q45.4691 266.99 42.2978 262.407 Q39.1265 257.8 39.1265 249.073 Q39.1265 240.879 43.0154 236.018 Q46.9042 231.134 53.4551 231.134 Q55.2144 231.134 56.9968 231.481 Q58.8023 231.828 60.7468 232.522 Z" fill="#000000" fill-rule="evenodd" fill-opacity="1" /><path clip-path="url(#clip852)" d="
M151.118 1022.79 L152.376 1016.97 L153.635 1011.14 L154.893 1005.3 L156.152 999.451 L157.411 993.598 L158.669 987.74 L159.928 981.879 L161.187 976.015 L162.445 970.149 
  L163.704 964.284 L164.962 958.419 L166.221 952.556 L167.48 946.697 L168.738 940.841 L169.997 934.991 L171.256 929.147 L172.514 923.31 L173.773 917.482 L175.031 911.663 
  L176.29 905.854 L177.549 900.057 L178.807 894.273 L180.066 888.502 L181.325 882.745 L182.583 877.004 L183.842 871.279 L185.101 865.571 L186.359 859.881 L187.618 854.211 
  L188.876 848.56 L190.135 842.931 L191.394 837.323 L192.652 831.737 L193.911 826.175 L195.17 820.637 L196.428 815.124 L197.687 809.637 L198.945 804.176 L200.204 798.742 
  L201.463 793.335 L202.721 787.958 L203.98 782.609 L205.239 777.29 L206.497 772.002 L207.756 766.744 L209.015 761.518 L210.273 756.325 L211.532 751.163 L212.79 746.035 
  L214.049 740.941 L215.308 735.881 L216.566 730.855 L217.825 725.864 L219.084 720.909 L220.342 715.99 L221.601 711.106 L222.859 706.259 L224.118 701.449 L225.377 696.677 
  L226.635 691.941 L227.894 687.243 L229.153 682.584 L230.411 677.962 L231.67 673.379 L232.929 668.834 L234.187 664.328 L235.446 659.861 L236.704 655.433 L237.963 651.044 
  L239.222 646.695 L240.48 642.385 L241.739 638.114 L242.998 633.883 L244.256 629.691 L245.515 625.538 L246.773 621.426 L248.032 617.353 L249.291 613.319 L250.549 609.325 
  L251.808 605.37 L253.067 601.455 L254.325 597.579 L255.584 593.742 L256.842 589.944 L258.101 586.186 L259.36 582.466 L260.618 578.785 L261.877 575.143 L263.136 571.539 
  L264.394 567.973 L265.653 564.446 L266.912 560.956 L268.17 557.505 L269.429 554.091 L270.687 550.714 L271.946 547.375 L273.205 544.072 L274.463 540.807 L275.722 537.577 
  L275.722 1479.3 L274.463 1479.3 L273.205 1479.3 L271.946 1479.3 L270.687 1479.3 L269.429 1479.3 L268.17 1479.3 L266.912 1479.3 L265.653 1479.3 L264.394 1479.3 
  L263.136 1479.3 L261.877 1479.3 L260.618 1479.3 L259.36 1479.3 L258.101 1479.3 L256.842 1479.3 L255.584 1479.3 L254.325 1479.3 L253.067 1479.3 L251.808 1479.3 
  L250.549 1479.3 L249.291 1479.3 L248.032 1479.3 L246.773 1479.3 L245.515 1479.3 L244.256 1479.3 L242.998 1479.3 L241.739 1479.3 L240.48 1479.3 L239.222 1479.3 
  L237.963 1479.3 L236.704 1479.3 L235.446 1479.3 L234.187 1479.3 L232.929 1479.3 L231.67 1479.3 L230.411 1479.3 L229.153 1479.3 L227.894 1479.3 L226.635 1479.3 
  L225.377 1479.3 L224.118 1479.3 L222.859 1479.3 L221.601 1479.3 L220.342 1479.3 L219.084 1479.3 L217.825 1479.3 L216.566 1479.3 L215.308 1479.3 L214.049 1479.3 
  L212.79 1479.3 L211.532 1479.3 L210.273 1479.3 L209.015 1479.3 L207.756 1479.3 L206.497 1479.3 L205.239 1479.3 L203.98 1479.3 L202.721 1479.3 L201.463 1479.3 
  L200.204 1479.3 L198.945 1479.3 L197.687 1479.3 L196.428 1479.3 L195.17 1479.3 L193.911 1479.3 L192.652 1479.3 L191.394 1479.3 L190.135 1479.3 L188.876 1479.3 
  L187.618 1479.3 L186.359 1479.3 L185.101 1479.3 L183.842 1479.3 L182.583 1479.3 L181.325 1479.3 L180.066 1479.3 L178.807 1479.3 L177.549 1479.3 L176.29 1479.3 
  L175.031 1479.3 L173.773 1479.3 L172.514 1479.3 L171.256 1479.3 L169.997 1479.3 L168.738 1479.3 L167.48 1479.3 L166.221 1479.3 L164.962 1479.3 L163.704 1479.3 
  L162.445 1479.3 L161.187 1479.3 L159.928 1479.3 L158.669 1479.3 L157.411 1479.3 L156.152 1479.3 L154.893 1479.3 L153.635 1479.3 L152.376 1479.3 L151.118 1479.3 
   Z
  " fill="#ffa500" fill-rule="evenodd" fill-opacity="0.5"/>
<polyline clip-path="url(#clip852)" style="stroke:#ffa500; stroke-width:4; stroke-opacity:1; fill:none" points="
  151.118,1022.79 152.376,1016.97 153.635,1011.14 154.893,1005.3 156.152,999.451 157.411,993.598 158.669,987.74 159.928,981.879 161.187,976.015 162.445,970.149 
  163.704,964.284 164.962,958.419 166.221,952.556 167.48,946.697 168.738,940.841 169.997,934.991 171.256,929.147 172.514,923.31 173.773,917.482 175.031,911.663 
  176.29,905.854 177.549,900.057 178.807,894.273 180.066,888.502 181.325,882.745 182.583,877.004 183.842,871.279 185.101,865.571 186.359,859.881 187.618,854.211 
  188.876,848.56 190.135,842.931 191.394,837.323 192.652,831.737 193.911,826.175 195.17,820.637 196.428,815.124 197.687,809.637 198.945,804.176 200.204,798.742 
  201.463,793.335 202.721,787.958 203.98,782.609 205.239,777.29 206.497,772.002 207.756,766.744 209.015,761.518 210.273,756.325 211.532,751.163 212.79,746.035 
  214.049,740.941 215.308,735.881 216.566,730.855 217.825,725.864 219.084,720.909 220.342,715.99 221.601,711.106 222.859,706.259 224.118,701.449 225.377,696.677 
  226.635,691.941 227.894,687.243 229.153,682.584 230.411,677.962 231.67,673.379 232.929,668.834 234.187,664.328 235.446,659.861 236.704,655.433 237.963,651.044 
  239.222,646.695 240.48,642.385 241.739,638.114 242.998,633.883 244.256,629.691 245.515,625.538 246.773,621.426 248.032,617.353 249.291,613.319 250.549,609.325 
  251.808,605.37 253.067,601.455 254.325,597.579 255.584,593.742 256.842,589.944 258.101,586.186 259.36,582.466 260.618,578.785 261.877,575.143 263.136,571.539 
  264.394,567.973 265.653,564.446 266.912,560.956 268.17,557.505 269.429,554.091 270.687,550.714 271.946,547.375 273.205,544.072 274.463,540.807 275.722,537.577 
  
  "/>
<path clip-path="url(#clip852)" d="
M275.722 537.577 L294.38 493.836 L313.037 457.229 L331.695 426.879 L350.353 401.971 L369.01 381.799 L387.668 365.759 L406.326 353.322 L424.983 343.995 L443.641 337.275 
  L462.299 332.616 L480.956 329.42 L499.614 327.044 L518.272 324.837 L536.93 322.173 L555.587 318.493 L574.245 313.32 L592.903 306.3 L611.56 297.231 L630.218 286.117 
  L648.876 273.192 L667.533 258.894 L686.191 243.778 L704.849 228.371 L723.506 213.036 L742.164 197.892 L760.822 182.851 L779.479 167.742 L798.137 152.49 L816.795 137.278 
  L835.452 122.624 L854.11 109.372 L872.768 98.5892 L891.425 91.4241 L910.083 88.9544 L928.741 92.048 L947.399 101.245 L966.056 116.662 L984.714 137.921 L1003.37 164.13 
  L1022.03 193.928 L1040.69 225.621 L1059.34 257.391 L1078 287.554 L1096.66 314.793 L1115.32 338.323 L1133.98 357.933 L1152.63 373.913 L1171.29 386.898 L1189.95 397.683 
  L1208.61 407.075 L1227.26 415.812 L1245.92 424.547 L1264.58 433.877 L1283.24 444.371 L1301.89 456.557 L1320.55 470.861 L1339.21 487.516 L1357.87 506.448 L1376.53 527.216 
  L1395.18 548.991 L1413.84 570.624 L1432.5 590.773 L1451.16 608.076 L1469.81 621.339 L1488.47 629.7 L1507.13 632.75 L1525.79 630.59 L1544.44 623.809 L1563.1 613.394 
  L1581.76 600.574 L1600.42 586.645 L1619.08 572.774 L1637.73 559.867 L1656.39 548.485 L1675.05 538.858 L1693.71 530.965 L1712.36 524.648 L1731.02 519.731 L1749.68 516.1 
  L1768.34 513.718 L1786.99 512.61 L1805.65 512.816 L1824.31 514.36 L1842.97 517.25 L1861.62 521.505 L1880.28 527.21 L1898.94 534.553 L1917.6 543.84 L1936.26 555.456 
  L1954.91 569.794 L1973.57 587.133 L1992.23 607.523 L2010.89 630.701 L2029.54 656.068 L2048.2 682.763 L2066.86 709.828 L2085.52 736.443 L2104.17 762.167 L2122.83 787.134 
  L2122.83 1479.3 L2104.17 1479.3 L2085.52 1479.3 L2066.86 1479.3 L2048.2 1479.3 L2029.54 1479.3 L2010.89 1479.3 L1992.23 1479.3 L1973.57 1479.3 L1954.91 1479.3 
  L1936.26 1479.3 L1917.6 1479.3 L1898.94 1479.3 L1880.28 1479.3 L1861.62 1479.3 L1842.97 1479.3 L1824.31 1479.3 L1805.65 1479.3 L1786.99 1479.3 L1768.34 1479.3 
  L1749.68 1479.3 L1731.02 1479.3 L1712.36 1479.3 L1693.71 1479.3 L1675.05 1479.3 L1656.39 1479.3 L1637.73 1479.3 L1619.08 1479.3 L1600.42 1479.3 L1581.76 1479.3 
  L1563.1 1479.3 L1544.44 1479.3 L1525.79 1479.3 L1507.13 1479.3 L1488.47 1479.3 L1469.81 1479.3 L1451.16 1479.3 L1432.5 1479.3 L1413.84 1479.3 L1395.18 1479.3 
  L1376.53 1479.3 L1357.87 1479.3 L1339.21 1479.3 L1320.55 1479.3 L1301.89 1479.3 L1283.24 1479.3 L1264.58 1479.3 L1245.92 1479.3 L1227.26 1479.3 L1208.61 1479.3 
  L1189.95 1479.3 L1171.29 1479.3 L1152.63 1479.3 L1133.98 1479.3 L1115.32 1479.3 L1096.66 1479.3 L1078 1479.3 L1059.34 1479.3 L1040.69 1479.3 L1022.03 1479.3 
  L1003.37 1479.3 L984.714 1479.3 L966.056 1479.3 L947.399 1479.3 L928.741 1479.3 L910.083 1479.3 L891.425 1479.3 L872.768 1479.3 L854.11 1479.3 L835.452 1479.3 
  L816.795 1479.3 L798.137 1479.3 L779.479 1479.3 L760.822 1479.3 L742.164 1479.3 L723.506 1479.3 L704.849 1479.3 L686.191 1479.3 L667.533 1479.3 L648.876 1479.3 
  L630.218 1479.3 L611.56 1479.3 L592.903 1479.3 L574.245 1479.3 L555.587 1479.3 L536.93 1479.3 L518.272 1479.3 L499.614 1479.3 L480.956 1479.3 L462.299 1479.3 
  L443.641 1479.3 L424.983 1479.3 L406.326 1479.3 L387.668 1479.3 L369.01 1479.3 L350.353 1479.3 L331.695 1479.3 L313.037 1479.3 L294.38 1479.3 L275.722 1479.3 
   Z
  " fill="#008000" fill-rule="evenodd" fill-opacity="0.5"/>
<polyline clip-path="url(#clip852)" style="stroke:#008000; stroke-width:4; stroke-opacity:1; fill:none" points="
  275.722,537.577 294.38,493.836 313.037,457.229 331.695,426.879 350.353,401.971 369.01,381.799 387.668,365.759 406.326,353.322 424.983,343.995 443.641,337.275 
  462.299,332.616 480.956,329.42 499.614,327.044 518.272,324.837 536.93,322.173 555.587,318.493 574.245,313.32 592.903,306.3 611.56,297.231 630.218,286.117 
  648.876,273.192 667.533,258.894 686.191,243.778 704.849,228.371 723.506,213.036 742.164,197.892 760.822,182.851 779.479,167.742 798.137,152.49 816.795,137.278 
  835.452,122.624 854.11,109.372 872.768,98.5892 891.425,91.4241 910.083,88.9544 928.741,92.048 947.399,101.245 966.056,116.662 984.714,137.921 1003.37,164.13 
  1022.03,193.928 1040.69,225.621 1059.34,257.391 1078,287.554 1096.66,314.793 1115.32,338.323 1133.98,357.933 1152.63,373.913 1171.29,386.898 1189.95,397.683 
  1208.61,407.075 1227.26,415.812 1245.92,424.547 1264.58,433.877 1283.24,444.371 1301.89,456.557 1320.55,470.861 1339.21,487.516 1357.87,506.448 1376.53,527.216 
  1395.18,548.991 1413.84,570.624 1432.5,590.773 1451.16,608.076 1469.81,621.339 1488.47,629.7 1507.13,632.75 1525.79,630.59 1544.44,623.809 1563.1,613.394 
  1581.76,600.574 1600.42,586.645 1619.08,572.774 1637.73,559.867 1656.39,548.485 1675.05,538.858 1693.71,530.965 1712.36,524.648 1731.02,519.731 1749.68,516.1 
  1768.34,513.718 1786.99,512.61 1805.65,512.816 1824.31,514.36 1842.97,517.25 1861.62,521.505 1880.28,527.21 1898.94,534.553 1917.6,543.84 1936.26,555.456 
  1954.91,569.794 1973.57,587.133 1992.23,607.523 2010.89,630.701 2029.54,656.068 2048.2,682.763 2066.86,709.828 2085.52,736.443 2104.17,762.167 2122.83,787.134 
  
  "/>
<path clip-path="url(#clip852)" d="
M2122.83 787.134 L2124.51 789.359 L2126.18 791.585 L2127.86 793.813 L2129.53 796.043 L2131.21 798.276 L2132.88 800.513 L2134.56 802.755 L2136.23 805.004 L2137.91 807.259 
  L2139.58 809.523 L2141.25 811.796 L2142.93 814.08 L2144.6 816.375 L2146.28 818.683 L2147.95 821.005 L2149.63 823.342 L2151.3 825.696 L2152.98 828.067 L2154.65 830.456 
  L2156.33 832.866 L2158 835.297 L2159.68 837.75 L2161.35 840.228 L2163.03 842.73 L2164.7 845.258 L2166.38 847.814 L2168.05 850.398 L2169.72 853.012 L2171.4 855.658 
  L2173.07 858.335 L2174.75 861.046 L2176.42 863.792 L2178.1 866.573 L2179.77 869.391 L2181.45 872.247 L2183.12 875.142 L2184.8 878.076 L2186.47 881.052 L2188.15 884.069 
  L2189.82 887.129 L2191.5 890.233 L2193.17 893.381 L2194.85 896.574 L2196.52 899.814 L2198.2 903.099 L2199.87 906.433 L2201.54 909.813 L2203.22 913.243 L2204.89 916.721 
  L2206.57 920.249 L2208.24 923.826 L2209.92 927.453 L2211.59 931.13 L2213.27 934.858 L2214.94 938.637 L2216.62 942.466 L2218.29 946.345 L2219.97 950.276 L2221.64 954.257 
  L2223.32 958.288 L2224.99 962.369 L2226.67 966.5 L2228.34 970.681 L2230.02 974.91 L2231.69 979.188 L2233.36 983.514 L2235.04 987.888 L2236.71 992.308 L2238.39 996.774 
  L2240.06 1001.28 L2241.74 1005.84 L2243.41 1010.44 L2245.09 1015.08 L2246.76 1019.76 L2248.44 1024.48 L2250.11 1029.25 L2251.79 1034.05 L2253.46 1038.88 L2255.14 1043.75 
  L2256.81 1048.66 L2258.49 1053.6 L2260.16 1058.56 L2261.83 1063.56 L2263.51 1068.59 L2265.18 1073.64 L2266.86 1078.72 L2268.53 1083.82 L2270.21 1088.94 L2271.88 1094.08 
  L2273.56 1099.24 L2275.23 1104.41 L2276.91 1109.6 L2278.58 1114.81 L2280.26 1120.02 L2281.93 1125.24 L2283.61 1130.47 L2285.28 1135.7 L2286.96 1140.94 L2288.63 1146.17 
  L2288.63 1479.3 L2286.96 1479.3 L2285.28 1479.3 L2283.61 1479.3 L2281.93 1479.3 L2280.26 1479.3 L2278.58 1479.3 L2276.91 1479.3 L2275.23 1479.3 L2273.56 1479.3 
  L2271.88 1479.3 L2270.21 1479.3 L2268.53 1479.3 L2266.86 1479.3 L2265.18 1479.3 L2263.51 1479.3 L2261.83 1479.3 L2260.16 1479.3 L2258.49 1479.3 L2256.81 1479.3 
  L2255.14 1479.3 L2253.46 1479.3 L2251.79 1479.3 L2250.11 1479.3 L2248.44 1479.3 L2246.76 1479.3 L2245.09 1479.3 L2243.41 1479.3 L2241.74 1479.3 L2240.06 1479.3 
  L2238.39 1479.3 L2236.71 1479.3 L2235.04 1479.3 L2233.36 1479.3 L2231.69 1479.3 L2230.02 1479.3 L2228.34 1479.3 L2226.67 1479.3 L2224.99 1479.3 L2223.32 1479.3 
  L2221.64 1479.3 L2219.97 1479.3 L2218.29 1479.3 L2216.62 1479.3 L2214.94 1479.3 L2213.27 1479.3 L2211.59 1479.3 L2209.92 1479.3 L2208.24 1479.3 L2206.57 1479.3 
  L2204.89 1479.3 L2203.22 1479.3 L2201.54 1479.3 L2199.87 1479.3 L2198.2 1479.3 L2196.52 1479.3 L2194.85 1479.3 L2193.17 1479.3 L2191.5 1479.3 L2189.82 1479.3 
  L2188.15 1479.3 L2186.47 1479.3 L2184.8 1479.3 L2183.12 1479.3 L2181.45 1479.3 L2179.77 1479.3 L2178.1 1479.3 L2176.42 1479.3 L2174.75 1479.3 L2173.07 1479.3 
  L2171.4 1479.3 L2169.72 1479.3 L2168.05 1479.3 L2166.38 1479.3 L2164.7 1479.3 L2163.03 1479.3 L2161.35 1479.3 L2159.68 1479.3 L2158 1479.3 L2156.33 1479.3 
  L2154.65 1479.3 L2152.98 1479.3 L2151.3 1479.3 L2149.63 1479.3 L2147.95 1479.3 L2146.28 1479.3 L2144.6 1479.3 L2142.93 1479.3 L2141.25 1479.3 L2139.58 1479.3 
  L2137.91 1479.3 L2136.23 1479.3 L2134.56 1479.3 L2132.88 1479.3 L2131.21 1479.3 L2129.53 1479.3 L2127.86 1479.3 L2126.18 1479.3 L2124.51 1479.3 L2122.83 1479.3 
   Z
  " fill="#ffa500" fill-rule="evenodd" fill-opacity="0.5"/>
<polyline clip-path="url(#clip852)" style="stroke:#ffa500; stroke-width:4; stroke-opacity:1; fill:none" points="
  2122.83,787.134 2124.51,789.359 2126.18,791.585 2127.86,793.813 2129.53,796.043 2131.21,798.276 2132.88,800.513 2134.56,802.755 2136.23,805.004 2137.91,807.259 
  2139.58,809.523 2141.25,811.796 2142.93,814.08 2144.6,816.375 2146.28,818.683 2147.95,821.005 2149.63,823.342 2151.3,825.696 2152.98,828.067 2154.65,830.456 
  2156.33,832.866 2158,835.297 2159.68,837.75 2161.35,840.228 2163.03,842.73 2164.7,845.258 2166.38,847.814 2168.05,850.398 2169.72,853.012 2171.4,855.658 
  2173.07,858.335 2174.75,861.046 2176.42,863.792 2178.1,866.573 2179.77,869.391 2181.45,872.247 2183.12,875.142 2184.8,878.076 2186.47,881.052 2188.15,884.069 
  2189.82,887.129 2191.5,890.233 2193.17,893.381 2194.85,896.574 2196.52,899.814 2198.2,903.099 2199.87,906.433 2201.54,909.813 2203.22,913.243 2204.89,916.721 
  2206.57,920.249 2208.24,923.826 2209.92,927.453 2211.59,931.13 2213.27,934.858 2214.94,938.637 2216.62,942.466 2218.29,946.345 2219.97,950.276 2221.64,954.257 
  2223.32,958.288 2224.99,962.369 2226.67,966.5 2228.34,970.681 2230.02,974.91 2231.69,979.188 2233.36,983.514 2235.04,987.888 2236.71,992.308 2238.39,996.774 
  2240.06,1001.28 2241.74,1005.84 2243.41,1010.44 2245.09,1015.08 2246.76,1019.76 2248.44,1024.48 2250.11,1029.25 2251.79,1034.05 2253.46,1038.88 2255.14,1043.75 
  2256.81,1048.66 2258.49,1053.6 2260.16,1058.56 2261.83,1063.56 2263.51,1068.59 2265.18,1073.64 2266.86,1078.72 2268.53,1083.82 2270.21,1088.94 2271.88,1094.08 
  2273.56,1099.24 2275.23,1104.41 2276.91,1109.6 2278.58,1114.81 2280.26,1120.02 2281.93,1125.24 2283.61,1130.47 2285.28,1135.7 2286.96,1140.94 2288.63,1146.17 
  
  "/>
<polyline clip-path="url(#clip852)" style="stroke:#0000ff; stroke-width:4; stroke-opacity:1; fill:none" points="
  1140.71,1479.3 1140.71,364.092 
  "/>
<polyline clip-path="url(#clip852)" style="stroke:#000000; stroke-width:4; stroke-opacity:1; fill:none" points="
  1070.05,1479.3 1070.05,274.986 
  "/>
<path clip-path="url(#clip850)" d="
M1494.58 459.25 L2277.23 459.25 L2277.23 96.3696 L1494.58 96.3696  Z
  " fill="#ffffff" fill-rule="evenodd" fill-opacity="1"/>
<polyline clip-path="url(#clip850)" style="stroke:#000000; stroke-width:4; stroke-opacity:1; fill:none" points="
  1494.58,459.25 2277.23,459.25 2277.23,96.3696 1494.58,96.3696 1494.58,459.25 
  "/>
<path clip-path="url(#clip850)" d="
M1519.75 181.042 L1670.81 181.042 L1670.81 132.658 L1519.75 132.658 L1519.75 181.042  Z
  " fill="#ffa500" fill-rule="evenodd" fill-opacity="0.5"/>
<polyline clip-path="url(#clip850)" style="stroke:#ffa500; stroke-width:4; stroke-opacity:1; fill:none" points="
  1519.75,132.658 1670.81,132.658 
  "/>
<path clip-path="url(#clip850)" d="M 0 0 M1700.38 161.19 Q1700.38 165.889 1702.3 168.574 Q1704.24 171.236 1707.62 171.236 Q1711 171.236 1712.95 168.574 Q1714.89 165.889 1714.89 161.19 Q1714.89 156.491 1712.95 153.829 Q1711 151.144 1707.62 151.144 Q1704.24 151.144 1702.3 153.829 Q1700.38 156.491 1700.38 161.19 M1714.89 170.241 Q1713.55 172.555 1711.49 173.69 Q1709.45 174.801 1706.58 174.801 Q1701.88 174.801 1698.92 171.051 Q1695.98 167.301 1695.98 161.19 Q1695.98 155.079 1698.92 151.329 Q1701.88 147.579 1706.58 147.579 Q1709.45 147.579 1711.49 148.713 Q1713.55 149.824 1714.89 152.139 L1714.89 148.204 L1719.15 148.204 L1719.15 183.991 L1714.89 183.991 L1714.89 170.241 Z" fill="#000000" fill-rule="evenodd" fill-opacity="1" /><path clip-path="url(#clip850)" d="M 0 0 M1734.22 142.648 Q1730.61 142.648 1728.78 146.213 Q1726.98 149.755 1726.98 156.884 Q1726.98 163.991 1728.78 167.556 Q1730.61 171.097 1734.22 171.097 Q1737.85 171.097 1739.66 167.556 Q1741.49 163.991 1741.49 156.884 Q1741.49 149.755 1739.66 146.213 Q1737.85 142.648 1734.22 142.648 M1734.22 138.945 Q1740.03 138.945 1743.09 143.551 Q1746.17 148.134 1746.17 156.884 Q1746.17 165.611 1743.09 170.218 Q1740.03 174.801 1734.22 174.801 Q1728.41 174.801 1725.33 170.218 Q1722.28 165.611 1722.28 156.884 Q1722.28 148.134 1725.33 143.551 Q1728.41 138.945 1734.22 138.945 Z" fill="#000000" fill-rule="evenodd" fill-opacity="1" /><path clip-path="url(#clip850)" d="M 0 0 M1751.28 139.57 L1769.64 139.57 L1769.64 143.505 L1755.56 143.505 L1755.56 151.977 Q1756.58 151.63 1757.6 151.468 Q1758.62 151.282 1759.64 151.282 Q1765.42 151.282 1768.8 154.454 Q1772.18 157.625 1772.18 163.042 Q1772.18 168.62 1768.71 171.722 Q1765.24 174.801 1758.92 174.801 Q1756.74 174.801 1754.48 174.43 Q1752.23 174.06 1749.82 173.319 L1749.82 168.62 Q1751.91 169.755 1754.13 170.31 Q1756.35 170.866 1758.83 170.866 Q1762.83 170.866 1765.17 168.759 Q1767.51 166.653 1767.51 163.042 Q1767.51 159.431 1765.17 157.324 Q1762.83 155.218 1758.83 155.218 Q1756.95 155.218 1755.08 155.634 Q1753.23 156.051 1751.28 156.931 L1751.28 139.57 Z" fill="#000000" fill-rule="evenodd" fill-opacity="1" /><path clip-path="url(#clip850)" d="
M1519.75 241.522 L1670.81 241.522 L1670.81 193.138 L1519.75 193.138 L1519.75 241.522  Z
  " fill="#008000" fill-rule="evenodd" fill-opacity="0.5"/>
<polyline clip-path="url(#clip850)" style="stroke:#008000; stroke-width:4; stroke-opacity:1; fill:none" points="
  1519.75,193.138 1670.81,193.138 
  "/>
<path clip-path="url(#clip850)" d="M 0 0 M1698.2 233.892 L1698.2 229.633 Q1699.96 230.466 1701.77 230.906 Q1703.57 231.346 1705.31 231.346 Q1709.94 231.346 1712.37 228.244 Q1714.82 225.119 1715.17 218.776 Q1713.83 220.767 1711.77 221.832 Q1709.71 222.897 1707.21 222.897 Q1702.02 222.897 1698.99 219.772 Q1695.98 216.624 1695.98 211.184 Q1695.98 205.86 1699.13 202.642 Q1702.28 199.425 1707.51 199.425 Q1713.5 199.425 1716.65 204.031 Q1719.82 208.614 1719.82 217.364 Q1719.82 225.536 1715.93 230.42 Q1712.07 235.281 1705.52 235.281 Q1703.76 235.281 1701.95 234.934 Q1700.15 234.586 1698.2 233.892 M1707.51 219.239 Q1710.66 219.239 1712.48 217.086 Q1714.34 214.934 1714.34 211.184 Q1714.34 207.457 1712.48 205.304 Q1710.66 203.128 1707.51 203.128 Q1704.36 203.128 1702.51 205.304 Q1700.68 207.457 1700.68 211.184 Q1700.68 214.934 1702.51 217.086 Q1704.36 219.239 1707.51 219.239 Z" fill="#000000" fill-rule="evenodd" fill-opacity="1" /><path clip-path="url(#clip850)" d="M 0 0 M1734.89 203.128 Q1731.28 203.128 1729.45 206.693 Q1727.65 210.235 1727.65 217.364 Q1727.65 224.471 1729.45 228.036 Q1731.28 231.577 1734.89 231.577 Q1738.53 231.577 1740.33 228.036 Q1742.16 224.471 1742.16 217.364 Q1742.16 210.235 1740.33 206.693 Q1738.53 203.128 1734.89 203.128 M1734.89 199.425 Q1740.7 199.425 1743.76 204.031 Q1746.84 208.614 1746.84 217.364 Q1746.84 226.091 1743.76 230.698 Q1740.7 235.281 1734.89 235.281 Q1729.08 235.281 1726 230.698 Q1722.95 226.091 1722.95 217.364 Q1722.95 208.614 1726 204.031 Q1729.08 199.425 1734.89 199.425 Z" fill="#000000" fill-rule="evenodd" fill-opacity="1" /><path clip-path="url(#clip850)" d="M 0 0 M1781.3 219.401 Q1779.29 219.401 1778.13 221.114 Q1777 222.827 1777 225.883 Q1777 228.892 1778.13 230.628 Q1779.29 232.341 1781.3 232.341 Q1783.27 232.341 1784.41 230.628 Q1785.56 228.892 1785.56 225.883 Q1785.56 222.85 1784.41 221.137 Q1783.27 219.401 1781.3 219.401 M1781.3 216.462 Q1784.96 216.462 1787.11 219.008 Q1789.27 221.554 1789.27 225.883 Q1789.27 230.211 1787.09 232.758 Q1784.94 235.281 1781.3 235.281 Q1777.6 235.281 1775.45 232.758 Q1773.29 230.211 1773.29 225.883 Q1773.29 221.531 1775.45 219.008 Q1777.62 216.462 1781.3 216.462 M1757.42 202.364 Q1755.42 202.364 1754.27 204.1 Q1753.13 205.813 1753.13 208.823 Q1753.13 211.878 1754.27 213.591 Q1755.4 215.304 1757.42 215.304 Q1759.43 215.304 1760.56 213.591 Q1761.72 211.878 1761.72 208.823 Q1761.72 205.837 1760.56 204.1 Q1759.41 202.364 1757.42 202.364 M1778.32 199.425 L1782.02 199.425 L1760.4 235.281 L1756.7 235.281 L1778.32 199.425 M1757.42 199.425 Q1761.07 199.425 1763.25 201.971 Q1765.42 204.494 1765.42 208.823 Q1765.42 213.198 1763.25 215.721 Q1761.1 218.244 1757.42 218.244 Q1753.73 218.244 1751.58 215.721 Q1749.45 213.174 1749.45 208.823 Q1749.45 204.517 1751.6 201.971 Q1753.76 199.425 1757.42 199.425 Z" fill="#000000" fill-rule="evenodd" fill-opacity="1" /><path clip-path="url(#clip850)" d="M 0 0 M1830.35 218.961 L1830.35 234.61 L1826.1 234.61 L1826.1 219.1 Q1826.1 215.42 1824.66 213.591 Q1823.22 211.762 1820.35 211.762 Q1816.91 211.762 1814.91 213.962 Q1812.92 216.161 1812.92 219.957 L1812.92 234.61 L1808.64 234.61 L1808.64 208.684 L1812.92 208.684 L1812.92 212.712 Q1814.45 210.374 1816.51 209.216 Q1818.6 208.059 1821.3 208.059 Q1825.77 208.059 1828.06 210.837 Q1830.35 213.591 1830.35 218.961 Z" fill="#000000" fill-rule="evenodd" fill-opacity="1" /><path clip-path="url(#clip850)" d="M 0 0 M1844.87 211.67 Q1841.44 211.67 1839.45 214.355 Q1837.46 217.017 1837.46 221.67 Q1837.46 226.323 1839.43 229.008 Q1841.42 231.67 1844.87 231.67 Q1848.27 231.67 1850.26 228.985 Q1852.25 226.299 1852.25 221.67 Q1852.25 217.063 1850.26 214.378 Q1848.27 211.67 1844.87 211.67 M1844.87 208.059 Q1850.42 208.059 1853.6 211.67 Q1856.77 215.281 1856.77 221.67 Q1856.77 228.036 1853.6 231.67 Q1850.42 235.281 1844.87 235.281 Q1839.29 235.281 1836.12 231.67 Q1832.97 228.036 1832.97 221.67 Q1832.97 215.281 1836.12 211.67 Q1839.29 208.059 1844.87 208.059 Z" fill="#000000" fill-rule="evenodd" fill-opacity="1" /><path clip-path="url(#clip850)" d="M 0 0 M1882.78 218.961 L1882.78 234.61 L1878.53 234.61 L1878.53 219.1 Q1878.53 215.42 1877.09 213.591 Q1875.66 211.762 1872.78 211.762 Q1869.34 211.762 1867.35 213.962 Q1865.35 216.161 1865.35 219.957 L1865.35 234.61 L1861.07 234.61 L1861.07 208.684 L1865.35 208.684 L1865.35 212.712 Q1866.88 210.374 1868.94 209.216 Q1871.03 208.059 1873.73 208.059 Q1878.2 208.059 1880.49 210.837 Q1882.78 213.591 1882.78 218.961 Z" fill="#000000" fill-rule="evenodd" fill-opacity="1" /><path clip-path="url(#clip850)" d="M 0 0 M1885.1 219.725 L1897.58 219.725 L1897.58 223.522 L1885.1 223.522 L1885.1 219.725 Z" fill="#000000" fill-rule="evenodd" fill-opacity="1" /><path clip-path="url(#clip850)" d="M 0 0 M1917.07 212.665 Q1916.35 212.249 1915.49 212.063 Q1914.66 211.855 1913.64 211.855 Q1910.03 211.855 1908.09 214.216 Q1906.16 216.554 1906.16 220.952 L1906.16 234.61 L1901.88 234.61 L1901.88 208.684 L1906.16 208.684 L1906.16 212.712 Q1907.51 210.35 1909.66 209.216 Q1911.81 208.059 1914.89 208.059 Q1915.33 208.059 1915.86 208.128 Q1916.4 208.175 1917.04 208.29 L1917.07 212.665 Z" fill="#000000" fill-rule="evenodd" fill-opacity="1" /><path clip-path="url(#clip850)" d="M 0 0 M1942.67 220.582 L1942.67 222.665 L1923.09 222.665 Q1923.36 227.063 1925.72 229.378 Q1928.11 231.67 1932.34 231.67 Q1934.8 231.67 1937.09 231.068 Q1939.4 230.466 1941.67 229.262 L1941.67 233.29 Q1939.38 234.262 1936.97 234.772 Q1934.57 235.281 1932.09 235.281 Q1925.89 235.281 1922.25 231.67 Q1918.64 228.059 1918.64 221.901 Q1918.64 215.536 1922.07 211.809 Q1925.52 208.059 1931.35 208.059 Q1936.58 208.059 1939.61 211.438 Q1942.67 214.795 1942.67 220.582 M1938.41 219.332 Q1938.36 215.837 1936.44 213.753 Q1934.54 211.67 1931.4 211.67 Q1927.83 211.67 1925.68 213.684 Q1923.55 215.698 1923.22 219.355 L1938.41 219.332 Z" fill="#000000" fill-rule="evenodd" fill-opacity="1" /><path clip-path="url(#clip850)" d="M 0 0 M1947.14 208.684 L1951.4 208.684 L1951.4 235.073 Q1951.4 240.026 1949.5 242.248 Q1947.62 244.471 1943.43 244.471 L1941.81 244.471 L1941.81 240.86 L1942.95 240.86 Q1945.38 240.86 1946.26 239.725 Q1947.14 238.614 1947.14 235.073 L1947.14 208.684 M1947.14 198.591 L1951.4 198.591 L1951.4 203.985 L1947.14 203.985 L1947.14 198.591 Z" fill="#000000" fill-rule="evenodd" fill-opacity="1" /><path clip-path="url(#clip850)" d="M 0 0 M1978.04 220.582 L1978.04 222.665 L1958.46 222.665 Q1958.73 227.063 1961.09 229.378 Q1963.48 231.67 1967.71 231.67 Q1970.17 231.67 1972.46 231.068 Q1974.78 230.466 1977.04 229.262 L1977.04 233.29 Q1974.75 234.262 1972.34 234.772 Q1969.94 235.281 1967.46 235.281 Q1961.26 235.281 1957.62 231.67 Q1954.01 228.059 1954.01 221.901 Q1954.01 215.536 1957.44 211.809 Q1960.89 208.059 1966.72 208.059 Q1971.95 208.059 1974.98 211.438 Q1978.04 214.795 1978.04 220.582 M1973.78 219.332 Q1973.73 215.837 1971.81 213.753 Q1969.91 211.67 1966.77 211.67 Q1963.2 211.67 1961.05 213.684 Q1958.92 215.698 1958.59 219.355 L1973.78 219.332 Z" fill="#000000" fill-rule="evenodd" fill-opacity="1" /><path clip-path="url(#clip850)" d="M 0 0 M2001.16 209.679 L2001.16 213.661 Q1999.36 212.665 1997.53 212.179 Q1995.72 211.67 1993.87 211.67 Q1989.73 211.67 1987.44 214.309 Q1985.15 216.924 1985.15 221.67 Q1985.15 226.415 1987.44 229.054 Q1989.73 231.67 1993.87 231.67 Q1995.72 231.67 1997.53 231.184 Q1999.36 230.674 2001.16 229.679 L2001.16 233.614 Q1999.38 234.448 1997.46 234.864 Q1995.56 235.281 1993.41 235.281 Q1987.55 235.281 1984.1 231.6 Q1980.65 227.92 1980.65 221.67 Q1980.65 215.327 1984.13 211.693 Q1987.62 208.059 1993.69 208.059 Q1995.65 208.059 1997.53 208.475 Q1999.4 208.869 2001.16 209.679 Z" fill="#000000" fill-rule="evenodd" fill-opacity="1" /><path clip-path="url(#clip850)" d="M 0 0 M2009.84 201.323 L2009.84 208.684 L2018.62 208.684 L2018.62 211.994 L2009.84 211.994 L2009.84 226.068 Q2009.84 229.239 2010.7 230.142 Q2011.58 231.045 2014.24 231.045 L2018.62 231.045 L2018.62 234.61 L2014.24 234.61 Q2009.31 234.61 2007.44 232.781 Q2005.56 230.929 2005.56 226.068 L2005.56 211.994 L2002.44 211.994 L2002.44 208.684 L2005.56 208.684 L2005.56 201.323 L2009.84 201.323 Z" fill="#000000" fill-rule="evenodd" fill-opacity="1" /><path clip-path="url(#clip850)" d="M 0 0 M2023.08 208.684 L2027.34 208.684 L2027.34 234.61 L2023.08 234.61 L2023.08 208.684 M2023.08 198.591 L2027.34 198.591 L2027.34 203.985 L2023.08 203.985 L2023.08 198.591 Z" fill="#000000" fill-rule="evenodd" fill-opacity="1" /><path clip-path="url(#clip850)" d="M 0 0 M2041.86 211.67 Q2038.43 211.67 2036.44 214.355 Q2034.45 217.017 2034.45 221.67 Q2034.45 226.323 2036.42 229.008 Q2038.41 231.67 2041.86 231.67 Q2045.26 231.67 2047.25 228.985 Q2049.24 226.299 2049.24 221.67 Q2049.24 217.063 2047.25 214.378 Q2045.26 211.67 2041.86 211.67 M2041.86 208.059 Q2047.41 208.059 2050.58 211.67 Q2053.76 215.281 2053.76 221.67 Q2053.76 228.036 2050.58 231.67 Q2047.41 235.281 2041.86 235.281 Q2036.28 235.281 2033.11 231.67 Q2029.96 228.036 2029.96 221.67 Q2029.96 215.281 2033.11 211.67 Q2036.28 208.059 2041.86 208.059 Z" fill="#000000" fill-rule="evenodd" fill-opacity="1" /><path clip-path="url(#clip850)" d="M 0 0 M2079.77 218.961 L2079.77 234.61 L2075.52 234.61 L2075.52 219.1 Q2075.52 215.42 2074.08 213.591 Q2072.64 211.762 2069.77 211.762 Q2066.33 211.762 2064.33 213.962 Q2062.34 216.161 2062.34 219.957 L2062.34 234.61 L2058.06 234.61 L2058.06 208.684 L2062.34 208.684 L2062.34 212.712 Q2063.87 210.374 2065.93 209.216 Q2068.02 208.059 2070.72 208.059 Q2075.19 208.059 2077.48 210.837 Q2079.77 213.591 2079.77 218.961 Z" fill="#000000" fill-rule="evenodd" fill-opacity="1" /><path clip-path="url(#clip850)" d="M 0 0 M2114.33 212.665 Q2113.62 212.249 2112.76 212.063 Q2111.93 211.855 2110.91 211.855 Q2107.3 211.855 2105.35 214.216 Q2103.43 216.554 2103.43 220.952 L2103.43 234.61 L2099.15 234.61 L2099.15 208.684 L2103.43 208.684 L2103.43 212.712 Q2104.77 210.35 2106.93 209.216 Q2109.08 208.059 2112.16 208.059 Q2112.6 208.059 2113.13 208.128 Q2113.66 208.175 2114.31 208.29 L2114.33 212.665 Z" fill="#000000" fill-rule="evenodd" fill-opacity="1" /><path clip-path="url(#clip850)" d="M 0 0 M2139.94 220.582 L2139.94 222.665 L2120.35 222.665 Q2120.63 227.063 2122.99 229.378 Q2125.38 231.67 2129.61 231.67 Q2132.07 231.67 2134.36 231.068 Q2136.67 230.466 2138.94 229.262 L2138.94 233.29 Q2136.65 234.262 2134.24 234.772 Q2131.83 235.281 2129.36 235.281 Q2123.15 235.281 2119.52 231.67 Q2115.91 228.059 2115.91 221.901 Q2115.91 215.536 2119.33 211.809 Q2122.78 208.059 2128.62 208.059 Q2133.85 208.059 2136.88 211.438 Q2139.94 214.795 2139.94 220.582 M2135.68 219.332 Q2135.63 215.837 2133.71 213.753 Q2131.81 211.67 2128.66 211.67 Q2125.1 211.67 2122.95 213.684 Q2120.82 215.698 2120.49 219.355 L2135.68 219.332 Z" fill="#000000" fill-rule="evenodd" fill-opacity="1" /><path clip-path="url(#clip850)" d="M 0 0 M2161.46 221.346 Q2161.46 216.716 2159.54 214.17 Q2157.64 211.624 2154.2 211.624 Q2150.77 211.624 2148.85 214.17 Q2146.95 216.716 2146.95 221.346 Q2146.95 225.952 2148.85 228.498 Q2150.77 231.045 2154.2 231.045 Q2157.64 231.045 2159.54 228.498 Q2161.46 225.952 2161.46 221.346 M2165.72 231.392 Q2165.72 238.012 2162.78 241.23 Q2159.84 244.471 2153.78 244.471 Q2151.53 244.471 2149.54 244.123 Q2147.55 243.799 2145.68 243.105 L2145.68 238.961 Q2147.55 239.98 2149.38 240.466 Q2151.21 240.952 2153.11 240.952 Q2157.3 240.952 2159.38 238.753 Q2161.46 236.577 2161.46 232.156 L2161.46 230.049 Q2160.14 232.341 2158.08 233.475 Q2156.02 234.61 2153.15 234.61 Q2148.39 234.61 2145.47 230.975 Q2142.55 227.341 2142.55 221.346 Q2142.55 215.327 2145.47 211.693 Q2148.39 208.059 2153.15 208.059 Q2156.02 208.059 2158.08 209.193 Q2160.14 210.327 2161.46 212.619 L2161.46 208.684 L2165.72 208.684 L2165.72 231.392 Z" fill="#000000" fill-rule="evenodd" fill-opacity="1" /><path clip-path="url(#clip850)" d="M 0 0 M2170.19 208.684 L2174.45 208.684 L2174.45 234.61 L2170.19 234.61 L2170.19 208.684 M2170.19 198.591 L2174.45 198.591 L2174.45 203.985 L2170.19 203.985 L2170.19 198.591 Z" fill="#000000" fill-rule="evenodd" fill-opacity="1" /><path clip-path="url(#clip850)" d="M 0 0 M2188.96 211.67 Q2185.54 211.67 2183.55 214.355 Q2181.56 217.017 2181.56 221.67 Q2181.56 226.323 2183.52 229.008 Q2185.51 231.67 2188.96 231.67 Q2192.37 231.67 2194.36 228.985 Q2196.35 226.299 2196.35 221.67 Q2196.35 217.063 2194.36 214.378 Q2192.37 211.67 2188.96 211.67 M2188.96 208.059 Q2194.52 208.059 2197.69 211.67 Q2200.86 215.281 2200.86 221.67 Q2200.86 228.036 2197.69 231.67 Q2194.52 235.281 2188.96 235.281 Q2183.39 235.281 2180.21 231.67 Q2177.07 228.036 2177.07 221.67 Q2177.07 215.281 2180.21 211.67 Q2183.39 208.059 2188.96 208.059 Z" fill="#000000" fill-rule="evenodd" fill-opacity="1" /><path clip-path="url(#clip850)" d="M 0 0 M2226.88 218.961 L2226.88 234.61 L2222.62 234.61 L2222.62 219.1 Q2222.62 215.42 2221.19 213.591 Q2219.75 211.762 2216.88 211.762 Q2213.43 211.762 2211.44 213.962 Q2209.45 216.161 2209.45 219.957 L2209.45 234.61 L2205.17 234.61 L2205.17 208.684 L2209.45 208.684 L2209.45 212.712 Q2210.98 210.374 2213.04 209.216 Q2215.12 208.059 2217.83 208.059 Q2222.3 208.059 2224.59 210.837 Q2226.88 213.591 2226.88 218.961 Z" fill="#000000" fill-rule="evenodd" fill-opacity="1" /><path clip-path="url(#clip850)" d="
M1519.75 302.002 L1670.81 302.002 L1670.81 253.618 L1519.75 253.618 L1519.75 302.002  Z
  " fill="#ffa500" fill-rule="evenodd" fill-opacity="0.5"/>
<polyline clip-path="url(#clip850)" style="stroke:#ffa500; stroke-width:4; stroke-opacity:1; fill:none" points="
  1519.75,253.618 1670.81,253.618 
  "/>
<path clip-path="url(#clip850)" d="M 0 0 M1700.38 282.15 Q1700.38 286.849 1702.3 289.534 Q1704.24 292.196 1707.62 292.196 Q1711 292.196 1712.95 289.534 Q1714.89 286.849 1714.89 282.15 Q1714.89 277.451 1712.95 274.789 Q1711 272.104 1707.62 272.104 Q1704.24 272.104 1702.3 274.789 Q1700.38 277.451 1700.38 282.15 M1714.89 291.201 Q1713.55 293.515 1711.49 294.65 Q1709.45 295.761 1706.58 295.761 Q1701.88 295.761 1698.92 292.011 Q1695.98 288.261 1695.98 282.15 Q1695.98 276.039 1698.92 272.289 Q1701.88 268.539 1706.58 268.539 Q1709.45 268.539 1711.49 269.673 Q1713.55 270.784 1714.89 273.099 L1714.89 269.164 L1719.15 269.164 L1719.15 304.951 L1714.89 304.951 L1714.89 291.201 Z" fill="#000000" fill-rule="evenodd" fill-opacity="1" /><path clip-path="url(#clip850)" d="M 0 0 M1724.36 294.372 L1724.36 290.113 Q1726.12 290.946 1727.92 291.386 Q1729.73 291.826 1731.47 291.826 Q1736.1 291.826 1738.53 288.724 Q1740.98 285.599 1741.33 279.256 Q1739.98 281.247 1737.92 282.312 Q1735.86 283.377 1733.36 283.377 Q1728.18 283.377 1725.15 280.252 Q1722.14 277.104 1722.14 271.664 Q1722.14 266.34 1725.29 263.122 Q1728.43 259.905 1733.67 259.905 Q1739.66 259.905 1742.81 264.511 Q1745.98 269.094 1745.98 277.844 Q1745.98 286.016 1742.09 290.9 Q1738.23 295.761 1731.67 295.761 Q1729.92 295.761 1728.11 295.414 Q1726.3 295.066 1724.36 294.372 M1733.67 279.719 Q1736.81 279.719 1738.64 277.566 Q1740.49 275.414 1740.49 271.664 Q1740.49 267.937 1738.64 265.784 Q1736.81 263.608 1733.67 263.608 Q1730.52 263.608 1728.67 265.784 Q1726.84 267.937 1726.84 271.664 Q1726.84 275.414 1728.67 277.566 Q1730.52 279.719 1733.67 279.719 Z" fill="#000000" fill-rule="evenodd" fill-opacity="1" /><path clip-path="url(#clip850)" d="M 0 0 M1751.1 260.53 L1769.45 260.53 L1769.45 264.465 L1755.38 264.465 L1755.38 272.937 Q1756.4 272.59 1757.42 272.428 Q1758.43 272.242 1759.45 272.242 Q1765.24 272.242 1768.62 275.414 Q1772 278.585 1772 284.002 Q1772 289.58 1768.53 292.682 Q1765.05 295.761 1758.73 295.761 Q1756.56 295.761 1754.29 295.39 Q1752.04 295.02 1749.64 294.279 L1749.64 289.58 Q1751.72 290.715 1753.94 291.27 Q1756.17 291.826 1758.64 291.826 Q1762.65 291.826 1764.98 289.719 Q1767.32 287.613 1767.32 284.002 Q1767.32 280.391 1764.98 278.284 Q1762.65 276.178 1758.64 276.178 Q1756.77 276.178 1754.89 276.594 Q1753.04 277.011 1751.1 277.891 L1751.1 260.53 Z" fill="#000000" fill-rule="evenodd" fill-opacity="1" /><polyline clip-path="url(#clip850)" style="stroke:#0000ff; stroke-width:4; stroke-opacity:1; fill:none" points="
  1519.75,338.29 1670.81,338.29 
  "/>
<path clip-path="url(#clip850)" d="M 0 0 M1716.33 334.621 Q1717.92 331.75 1720.15 330.385 Q1722.37 329.019 1725.38 329.019 Q1729.43 329.019 1731.63 331.866 Q1733.83 334.69 1733.83 339.921 L1733.83 355.57 L1729.54 355.57 L1729.54 340.06 Q1729.54 336.334 1728.23 334.528 Q1726.91 332.722 1724.2 332.722 Q1720.89 332.722 1718.97 334.922 Q1717.04 337.121 1717.04 340.917 L1717.04 355.57 L1712.76 355.57 L1712.76 340.06 Q1712.76 336.31 1711.44 334.528 Q1710.12 332.722 1707.37 332.722 Q1704.11 332.722 1702.18 334.945 Q1700.26 337.144 1700.26 340.917 L1700.26 355.57 L1695.98 355.57 L1695.98 329.644 L1700.26 329.644 L1700.26 333.672 Q1701.72 331.287 1703.76 330.153 Q1705.79 329.019 1708.6 329.019 Q1711.42 329.019 1713.39 330.454 Q1715.38 331.889 1716.33 334.621 Z" fill="#000000" fill-rule="evenodd" fill-opacity="1" /><path clip-path="url(#clip850)" d="M 0 0 M1760.47 341.542 L1760.47 343.625 L1740.89 343.625 Q1741.17 348.023 1743.53 350.338 Q1745.91 352.63 1750.15 352.63 Q1752.6 352.63 1754.89 352.028 Q1757.21 351.426 1759.48 350.222 L1759.48 354.25 Q1757.18 355.222 1754.78 355.732 Q1752.37 356.241 1749.89 356.241 Q1743.69 356.241 1740.05 352.63 Q1736.44 349.019 1736.44 342.861 Q1736.44 336.496 1739.87 332.769 Q1743.32 329.019 1749.15 329.019 Q1754.38 329.019 1757.42 332.398 Q1760.47 335.755 1760.47 341.542 M1756.21 340.292 Q1756.17 336.797 1754.24 334.713 Q1752.35 332.63 1749.2 332.63 Q1745.63 332.63 1743.48 334.644 Q1741.35 336.658 1741.03 340.315 L1756.21 340.292 Z" fill="#000000" fill-rule="evenodd" fill-opacity="1" /><path clip-path="url(#clip850)" d="M 0 0 M1776.72 342.537 Q1771.56 342.537 1769.57 343.718 Q1767.58 344.898 1767.58 347.746 Q1767.58 350.014 1769.06 351.357 Q1770.56 352.676 1773.13 352.676 Q1776.67 352.676 1778.8 350.176 Q1780.96 347.653 1780.96 343.486 L1780.96 342.537 L1776.72 342.537 M1785.22 340.778 L1785.22 355.57 L1780.96 355.57 L1780.96 351.634 Q1779.5 353.995 1777.32 355.13 Q1775.15 356.241 1772 356.241 Q1768.02 356.241 1765.66 354.019 Q1763.32 351.773 1763.32 348.023 Q1763.32 343.648 1766.23 341.426 Q1769.17 339.204 1774.98 339.204 L1780.96 339.204 L1780.96 338.787 Q1780.96 335.847 1779.01 334.25 Q1777.09 332.63 1773.6 332.63 Q1771.37 332.63 1769.27 333.162 Q1767.16 333.695 1765.22 334.759 L1765.22 330.824 Q1767.55 329.922 1769.75 329.482 Q1771.95 329.019 1774.04 329.019 Q1779.66 329.019 1782.44 331.935 Q1785.22 334.852 1785.22 340.778 Z" fill="#000000" fill-rule="evenodd" fill-opacity="1" /><path clip-path="url(#clip850)" d="M 0 0 M1811.23 339.921 L1811.23 355.57 L1806.97 355.57 L1806.97 340.06 Q1806.97 336.38 1805.54 334.551 Q1804.1 332.722 1801.23 332.722 Q1797.79 332.722 1795.79 334.922 Q1793.8 337.121 1793.8 340.917 L1793.8 355.57 L1789.52 355.57 L1789.52 329.644 L1793.8 329.644 L1793.8 333.672 Q1795.33 331.334 1797.39 330.176 Q1799.48 329.019 1802.18 329.019 Q1806.65 329.019 1808.94 331.797 Q1811.23 334.551 1811.23 339.921 Z" fill="#000000" fill-rule="evenodd" fill-opacity="1" /><polyline clip-path="url(#clip850)" style="stroke:#000000; stroke-width:4; stroke-opacity:1; fill:none" points="
  1519.75,398.77 1670.81,398.77 
  "/>
<path clip-path="url(#clip850)" d="M 0 0 M1716.33 395.101 Q1717.92 392.23 1720.15 390.865 Q1722.37 389.499 1725.38 389.499 Q1729.43 389.499 1731.63 392.346 Q1733.83 395.17 1733.83 400.401 L1733.83 416.05 L1729.54 416.05 L1729.54 400.54 Q1729.54 396.814 1728.23 395.008 Q1726.91 393.202 1724.2 393.202 Q1720.89 393.202 1718.97 395.402 Q1717.04 397.601 1717.04 401.397 L1717.04 416.05 L1712.76 416.05 L1712.76 400.54 Q1712.76 396.79 1711.44 395.008 Q1710.12 393.202 1707.37 393.202 Q1704.11 393.202 1702.18 395.425 Q1700.26 397.624 1700.26 401.397 L1700.26 416.05 L1695.98 416.05 L1695.98 390.124 L1700.26 390.124 L1700.26 394.152 Q1701.72 391.767 1703.76 390.633 Q1705.79 389.499 1708.6 389.499 Q1711.42 389.499 1713.39 390.934 Q1715.38 392.369 1716.33 395.101 Z" fill="#000000" fill-rule="evenodd" fill-opacity="1" /><path clip-path="url(#clip850)" d="M 0 0 M1760.47 402.022 L1760.47 404.105 L1740.89 404.105 Q1741.17 408.503 1743.53 410.818 Q1745.91 413.11 1750.15 413.11 Q1752.6 413.11 1754.89 412.508 Q1757.21 411.906 1759.48 410.702 L1759.48 414.73 Q1757.18 415.702 1754.78 416.212 Q1752.37 416.721 1749.89 416.721 Q1743.69 416.721 1740.05 413.11 Q1736.44 409.499 1736.44 403.341 Q1736.44 396.976 1739.87 393.249 Q1743.32 389.499 1749.15 389.499 Q1754.38 389.499 1757.42 392.878 Q1760.47 396.235 1760.47 402.022 M1756.21 400.772 Q1756.17 397.277 1754.24 395.193 Q1752.35 393.11 1749.2 393.11 Q1745.63 393.11 1743.48 395.124 Q1741.35 397.138 1741.03 400.795 L1756.21 400.772 Z" fill="#000000" fill-rule="evenodd" fill-opacity="1" /><path clip-path="url(#clip850)" d="M 0 0 M1782 394.059 L1782 380.031 L1786.26 380.031 L1786.26 416.05 L1782 416.05 L1782 412.161 Q1780.66 414.475 1778.6 415.61 Q1776.56 416.721 1773.69 416.721 Q1768.99 416.721 1766.03 412.971 Q1763.09 409.221 1763.09 403.11 Q1763.09 396.999 1766.03 393.249 Q1768.99 389.499 1773.69 389.499 Q1776.56 389.499 1778.6 390.633 Q1780.66 391.744 1782 394.059 M1767.48 403.11 Q1767.48 407.809 1769.41 410.494 Q1771.35 413.156 1774.73 413.156 Q1778.11 413.156 1780.05 410.494 Q1782 407.809 1782 403.11 Q1782 398.411 1780.05 395.749 Q1778.11 393.064 1774.73 393.064 Q1771.35 393.064 1769.41 395.749 Q1767.48 398.411 1767.48 403.11 Z" fill="#000000" fill-rule="evenodd" fill-opacity="1" /><path clip-path="url(#clip850)" d="M 0 0 M1790.73 390.124 L1794.98 390.124 L1794.98 416.05 L1790.73 416.05 L1790.73 390.124 M1790.73 380.031 L1794.98 380.031 L1794.98 385.425 L1790.73 385.425 L1790.73 380.031 Z" fill="#000000" fill-rule="evenodd" fill-opacity="1" /><path clip-path="url(#clip850)" d="M 0 0 M1811.23 403.017 Q1806.07 403.017 1804.08 404.198 Q1802.09 405.378 1802.09 408.226 Q1802.09 410.494 1803.57 411.837 Q1805.08 413.156 1807.65 413.156 Q1811.19 413.156 1813.32 410.656 Q1815.47 408.133 1815.47 403.966 L1815.47 403.017 L1811.23 403.017 M1819.73 401.258 L1819.73 416.05 L1815.47 416.05 L1815.47 412.114 Q1814.01 414.475 1811.84 415.61 Q1809.66 416.721 1806.51 416.721 Q1802.53 416.721 1800.17 414.499 Q1797.83 412.253 1797.83 408.503 Q1797.83 404.128 1800.75 401.906 Q1803.69 399.684 1809.5 399.684 L1815.47 399.684 L1815.47 399.267 Q1815.47 396.327 1813.53 394.73 Q1811.6 393.11 1808.11 393.11 Q1805.89 393.11 1803.78 393.642 Q1801.67 394.175 1799.73 395.239 L1799.73 391.304 Q1802.07 390.402 1804.27 389.962 Q1806.47 389.499 1808.55 389.499 Q1814.17 389.499 1816.95 392.415 Q1819.73 395.332 1819.73 401.258 Z" fill="#000000" fill-rule="evenodd" fill-opacity="1" /><path clip-path="url(#clip850)" d="M 0 0 M1845.75 400.401 L1845.75 416.05 L1841.49 416.05 L1841.49 400.54 Q1841.49 396.86 1840.05 395.031 Q1838.62 393.202 1835.75 393.202 Q1832.3 393.202 1830.31 395.402 Q1828.32 397.601 1828.32 401.397 L1828.32 416.05 L1824.04 416.05 L1824.04 390.124 L1828.32 390.124 L1828.32 394.152 Q1829.85 391.814 1831.91 390.656 Q1833.99 389.499 1836.7 389.499 Q1841.16 389.499 1843.46 392.277 Q1845.75 395.031 1845.75 400.401 Z" fill="#000000" fill-rule="evenodd" fill-opacity="1" /></svg>
