<?xml version="1.0" encoding="utf-8"?>
<svg xmlns="http://www.w3.org/2000/svg" xmlns:xlink="http://www.w3.org/1999/xlink" width="600" height="400" viewBox="0 0 2400 1600">
<defs>
  <clipPath id="clip670">
    <rect x="0" y="0" width="2400" height="1600"/>
  </clipPath>
</defs>
<path clip-path="url(#clip670)" d="
M0 1600 L2400 1600 L2400 0 L0 0  Z
  " fill="#ffffff" fill-rule="evenodd" fill-opacity="1"/>
<defs>
  <clipPath id="clip671">
    <rect x="480" y="0" width="1681" height="1600"/>
  </clipPath>
</defs>
<path clip-path="url(#clip670)" d="
M86.9921 1521.01 L2352.76 1521.01 L2352.76 47.2441 L86.9921 47.2441  Z
  " fill="#ffffff" fill-rule="evenodd" fill-opacity="1"/>
<defs>
  <clipPath id="clip672">
    <rect x="86" y="47" width="2267" height="1475"/>
  </clipPath>
</defs>
<polyline clip-path="url(#clip672)" style="stroke:#000000; stroke-width:2; stroke-opacity:0.1; fill:none" points="
  147.104,1521.01 147.104,47.2441 
  "/>
<polyline clip-path="url(#clip672)" style="stroke:#000000; stroke-width:2; stroke-opacity:0.1; fill:none" points="
  709.551,1521.01 709.551,47.2441 
  "/>
<polyline clip-path="url(#clip672)" style="stroke:#000000; stroke-width:2; stroke-opacity:0.1; fill:none" points="
  1272,1521.01 1272,47.2441 
  "/>
<polyline clip-path="url(#clip672)" style="stroke:#000000; stroke-width:2; stroke-opacity:0.1; fill:none" points="
  1834.44,1521.01 1834.44,47.2441 
  "/>
<polyline clip-path="url(#clip672)" style="stroke:#000000; stroke-width:2; stroke-opacity:0.1; fill:none" points="
  86.9921,1479.3 2352.76,1479.3 
  "/>
<polyline clip-path="url(#clip672)" style="stroke:#000000; stroke-width:2; stroke-opacity:0.1; fill:none" points="
  86.9921,1146.75 2352.76,1146.75 
  "/>
<polyline clip-path="url(#clip672)" style="stroke:#000000; stroke-width:2; stroke-opacity:0.1; fill:none" points="
  86.9921,814.198 2352.76,814.198 
  "/>
<polyline clip-path="url(#clip672)" style="stroke:#000000; stroke-width:2; stroke-opacity:0.1; fill:none" points="
  86.9921,481.648 2352.76,481.648 
  "/>
<polyline clip-path="url(#clip672)" style="stroke:#000000; stroke-width:2; stroke-opacity:0.1; fill:none" points="
  86.9921,149.098 2352.76,149.098 
  "/>
<polyline clip-path="url(#clip670)" style="stroke:#000000; stroke-width:4; stroke-opacity:1; fill:none" points="
  86.9921,1521.01 2352.76,1521.01 
  "/>
<polyline clip-path="url(#clip670)" style="stroke:#000000; stroke-width:4; stroke-opacity:1; fill:none" points="
  86.9921,1521.01 86.9921,47.2441 
  "/>
<polyline clip-path="url(#clip670)" style="stroke:#000000; stroke-width:4; stroke-opacity:1; fill:none" points="
  147.104,1521.01 147.104,1503.32 
  "/>
<polyline clip-path="url(#clip670)" style="stroke:#000000; stroke-width:4; stroke-opacity:1; fill:none" points="
  709.551,1521.01 709.551,1503.32 
  "/>
<polyline clip-path="url(#clip670)" style="stroke:#000000; stroke-width:4; stroke-opacity:1; fill:none" points="
  1272,1521.01 1272,1503.32 
  "/>
<polyline clip-path="url(#clip670)" style="stroke:#000000; stroke-width:4; stroke-opacity:1; fill:none" points="
  1834.44,1521.01 1834.44,1503.32 
  "/>
<polyline clip-path="url(#clip670)" style="stroke:#000000; stroke-width:4; stroke-opacity:1; fill:none" points="
  86.9921,1479.3 114.181,1479.3 
  "/>
<polyline clip-path="url(#clip670)" style="stroke:#000000; stroke-width:4; stroke-opacity:1; fill:none" points="
  86.9921,1146.75 114.181,1146.75 
  "/>
<polyline clip-path="url(#clip670)" style="stroke:#000000; stroke-width:4; stroke-opacity:1; fill:none" points="
  86.9921,814.198 114.181,814.198 
  "/>
<polyline clip-path="url(#clip670)" style="stroke:#000000; stroke-width:4; stroke-opacity:1; fill:none" points="
  86.9921,481.648 114.181,481.648 
  "/>
<polyline clip-path="url(#clip670)" style="stroke:#000000; stroke-width:4; stroke-opacity:1; fill:none" points="
  86.9921,149.098 114.181,149.098 
  "/>
<path clip-path="url(#clip670)" d="M 0 0 M95.982 1559.6 L108.459 1559.6 L108.459 1563.39 L95.982 1563.39 L95.982 1559.6 Z" fill="#000000" fill-rule="evenodd" fill-opacity="1" /><path clip-path="url(#clip670)" d="M 0 0 M123.528 1543 Q119.917 1543 118.088 1546.56 Q116.283 1550.11 116.283 1557.23 Q116.283 1564.34 118.088 1567.91 Q119.917 1571.45 123.528 1571.45 Q127.162 1571.45 128.968 1567.91 Q130.797 1564.34 130.797 1557.23 Q130.797 1550.11 128.968 1546.56 Q127.162 1543 123.528 1543 M123.528 1539.29 Q129.338 1539.29 132.394 1543.9 Q135.473 1548.48 135.473 1557.23 Q135.473 1565.96 132.394 1570.57 Q129.338 1575.15 123.528 1575.15 Q117.718 1575.15 114.639 1570.57 Q111.584 1565.96 111.584 1557.23 Q111.584 1548.48 114.639 1543.9 Q117.718 1539.29 123.528 1539.29 Z" fill="#000000" fill-rule="evenodd" fill-opacity="1" /><path clip-path="url(#clip670)" d="M 0 0 M140.542 1568.6 L145.426 1568.6 L145.426 1574.48 L140.542 1574.48 L140.542 1568.6 Z" fill="#000000" fill-rule="evenodd" fill-opacity="1" /><path clip-path="url(#clip670)" d="M 0 0 M151.306 1570.54 L158.945 1570.54 L158.945 1544.18 L150.635 1545.85 L150.635 1541.59 L158.898 1539.92 L163.574 1539.92 L163.574 1570.54 L171.213 1570.54 L171.213 1574.48 L151.306 1574.48 L151.306 1570.54 Z" fill="#000000" fill-rule="evenodd" fill-opacity="1" /><path clip-path="url(#clip670)" d="M 0 0 M186.282 1543 Q182.671 1543 180.843 1546.56 Q179.037 1550.11 179.037 1557.23 Q179.037 1564.34 180.843 1567.91 Q182.671 1571.45 186.282 1571.45 Q189.917 1571.45 191.722 1567.91 Q193.551 1564.34 193.551 1557.23 Q193.551 1550.11 191.722 1546.56 Q189.917 1543 186.282 1543 M186.282 1539.29 Q192.093 1539.29 195.148 1543.9 Q198.227 1548.48 198.227 1557.23 Q198.227 1565.96 195.148 1570.57 Q192.093 1575.15 186.282 1575.15 Q180.472 1575.15 177.394 1570.57 Q174.338 1565.96 174.338 1557.23 Q174.338 1548.48 177.394 1543.9 Q180.472 1539.29 186.282 1539.29 Z" fill="#000000" fill-rule="evenodd" fill-opacity="1" /><path clip-path="url(#clip670)" d="M 0 0 M658.313 1559.6 L670.789 1559.6 L670.789 1563.39 L658.313 1563.39 L658.313 1559.6 Z" fill="#000000" fill-rule="evenodd" fill-opacity="1" /><path clip-path="url(#clip670)" d="M 0 0 M685.859 1543 Q682.248 1543 680.419 1546.56 Q678.613 1550.11 678.613 1557.23 Q678.613 1564.34 680.419 1567.91 Q682.248 1571.45 685.859 1571.45 Q689.493 1571.45 691.299 1567.91 Q693.127 1564.34 693.127 1557.23 Q693.127 1550.11 691.299 1546.56 Q689.493 1543 685.859 1543 M685.859 1539.29 Q691.669 1539.29 694.724 1543.9 Q697.803 1548.48 697.803 1557.23 Q697.803 1565.96 694.724 1570.57 Q691.669 1575.15 685.859 1575.15 Q680.049 1575.15 676.97 1570.57 Q673.914 1565.96 673.914 1557.23 Q673.914 1548.48 676.97 1543.9 Q680.049 1539.29 685.859 1539.29 Z" fill="#000000" fill-rule="evenodd" fill-opacity="1" /><path clip-path="url(#clip670)" d="M 0 0 M702.873 1568.6 L707.757 1568.6 L707.757 1574.48 L702.873 1574.48 L702.873 1568.6 Z" fill="#000000" fill-rule="evenodd" fill-opacity="1" /><path clip-path="url(#clip670)" d="M 0 0 M722.826 1543 Q719.215 1543 717.386 1546.56 Q715.581 1550.11 715.581 1557.23 Q715.581 1564.34 717.386 1567.91 Q719.215 1571.45 722.826 1571.45 Q726.46 1571.45 728.266 1567.91 Q730.095 1564.34 730.095 1557.23 Q730.095 1550.11 728.266 1546.56 Q726.46 1543 722.826 1543 M722.826 1539.29 Q728.636 1539.29 731.692 1543.9 Q734.771 1548.48 734.771 1557.23 Q734.771 1565.96 731.692 1570.57 Q728.636 1575.15 722.826 1575.15 Q717.016 1575.15 713.937 1570.57 Q710.882 1565.96 710.882 1557.23 Q710.882 1548.48 713.937 1543.9 Q717.016 1539.29 722.826 1539.29 Z" fill="#000000" fill-rule="evenodd" fill-opacity="1" /><path clip-path="url(#clip670)" d="M 0 0 M739.886 1539.92 L758.243 1539.92 L758.243 1543.86 L744.169 1543.86 L744.169 1552.33 Q745.187 1551.98 746.206 1551.82 Q747.224 1551.63 748.243 1551.63 Q754.03 1551.63 757.409 1554.8 Q760.789 1557.98 760.789 1563.39 Q760.789 1568.97 757.317 1572.07 Q753.845 1575.15 747.525 1575.15 Q745.349 1575.15 743.081 1574.78 Q740.835 1574.41 738.428 1573.67 L738.428 1568.97 Q740.511 1570.1 742.733 1570.66 Q744.956 1571.22 747.433 1571.22 Q751.437 1571.22 753.775 1569.11 Q756.113 1567 756.113 1563.39 Q756.113 1559.78 753.775 1557.67 Q751.437 1555.57 747.433 1555.57 Q745.558 1555.57 743.683 1555.98 Q741.831 1556.4 739.886 1557.28 L739.886 1539.92 Z" fill="#000000" fill-rule="evenodd" fill-opacity="1" /><path clip-path="url(#clip670)" d="M 0 0 M1240.01 1543 Q1236.4 1543 1234.57 1546.56 Q1232.76 1550.11 1232.76 1557.23 Q1232.76 1564.34 1234.57 1567.91 Q1236.4 1571.45 1240.01 1571.45 Q1243.64 1571.45 1245.45 1567.91 Q1247.28 1564.34 1247.28 1557.23 Q1247.28 1550.11 1245.45 1546.56 Q1243.64 1543 1240.01 1543 M1240.01 1539.29 Q1245.82 1539.29 1248.87 1543.9 Q1251.95 1548.48 1251.95 1557.23 Q1251.95 1565.96 1248.87 1570.57 Q1245.82 1575.15 1240.01 1575.15 Q1234.2 1575.15 1231.12 1570.57 Q1228.06 1565.96 1228.06 1557.23 Q1228.06 1548.48 1231.12 1543.9 Q1234.2 1539.29 1240.01 1539.29 Z" fill="#000000" fill-rule="evenodd" fill-opacity="1" /><path clip-path="url(#clip670)" d="M 0 0 M1257.02 1568.6 L1261.9 1568.6 L1261.9 1574.48 L1257.02 1574.48 L1257.02 1568.6 Z" fill="#000000" fill-rule="evenodd" fill-opacity="1" /><path clip-path="url(#clip670)" d="M 0 0 M1276.97 1543 Q1273.36 1543 1271.53 1546.56 Q1269.73 1550.11 1269.73 1557.23 Q1269.73 1564.34 1271.53 1567.91 Q1273.36 1571.45 1276.97 1571.45 Q1280.61 1571.45 1282.41 1567.91 Q1284.24 1564.34 1284.24 1557.23 Q1284.24 1550.11 1282.41 1546.56 Q1280.61 1543 1276.97 1543 M1276.97 1539.29 Q1282.78 1539.29 1285.84 1543.9 Q1288.92 1548.48 1288.92 1557.23 Q1288.92 1565.96 1285.84 1570.57 Q1282.78 1575.15 1276.97 1575.15 Q1271.16 1575.15 1268.09 1570.57 Q1265.03 1565.96 1265.03 1557.23 Q1265.03 1548.48 1268.09 1543.9 Q1271.16 1539.29 1276.97 1539.29 Z" fill="#000000" fill-rule="evenodd" fill-opacity="1" /><path clip-path="url(#clip670)" d="M 0 0 M1303.99 1543 Q1300.38 1543 1298.55 1546.56 Q1296.74 1550.11 1296.74 1557.23 Q1296.74 1564.34 1298.55 1567.91 Q1300.38 1571.45 1303.99 1571.45 Q1307.62 1571.45 1309.43 1567.91 Q1311.26 1564.34 1311.26 1557.23 Q1311.26 1550.11 1309.43 1546.56 Q1307.62 1543 1303.99 1543 M1303.99 1539.29 Q1309.8 1539.29 1312.85 1543.9 Q1315.93 1548.48 1315.93 1557.23 Q1315.93 1565.96 1312.85 1570.57 Q1309.8 1575.15 1303.99 1575.15 Q1298.18 1575.15 1295.1 1570.57 Q1292.04 1565.96 1292.04 1557.23 Q1292.04 1548.48 1295.1 1543.9 Q1298.18 1539.29 1303.99 1539.29 Z" fill="#000000" fill-rule="evenodd" fill-opacity="1" /><path clip-path="url(#clip670)" d="M 0 0 M1802.95 1543 Q1799.34 1543 1797.51 1546.56 Q1795.71 1550.11 1795.71 1557.23 Q1795.71 1564.34 1797.51 1567.91 Q1799.34 1571.45 1802.95 1571.45 Q1806.58 1571.45 1808.39 1567.91 Q1810.22 1564.34 1810.22 1557.23 Q1810.22 1550.11 1808.39 1546.56 Q1806.58 1543 1802.95 1543 M1802.95 1539.29 Q1808.76 1539.29 1811.82 1543.9 Q1814.9 1548.48 1814.9 1557.23 Q1814.9 1565.96 1811.82 1570.57 Q1808.76 1575.15 1802.95 1575.15 Q1797.14 1575.15 1794.06 1570.57 Q1791.01 1565.96 1791.01 1557.23 Q1791.01 1548.48 1794.06 1543.9 Q1797.14 1539.29 1802.95 1539.29 Z" fill="#000000" fill-rule="evenodd" fill-opacity="1" /><path clip-path="url(#clip670)" d="M 0 0 M1819.96 1568.6 L1824.85 1568.6 L1824.85 1574.48 L1819.96 1574.48 L1819.96 1568.6 Z" fill="#000000" fill-rule="evenodd" fill-opacity="1" /><path clip-path="url(#clip670)" d="M 0 0 M1839.92 1543 Q1836.31 1543 1834.48 1546.56 Q1832.67 1550.11 1832.67 1557.23 Q1832.67 1564.34 1834.48 1567.91 Q1836.31 1571.45 1839.92 1571.45 Q1843.55 1571.45 1845.36 1567.91 Q1847.19 1564.34 1847.19 1557.23 Q1847.19 1550.11 1845.36 1546.56 Q1843.55 1543 1839.92 1543 M1839.92 1539.29 Q1845.73 1539.29 1848.78 1543.9 Q1851.86 1548.48 1851.86 1557.23 Q1851.86 1565.96 1848.78 1570.57 Q1845.73 1575.15 1839.92 1575.15 Q1834.11 1575.15 1831.03 1570.57 Q1827.97 1565.96 1827.97 1557.23 Q1827.97 1548.48 1831.03 1543.9 Q1834.11 1539.29 1839.92 1539.29 Z" fill="#000000" fill-rule="evenodd" fill-opacity="1" /><path clip-path="url(#clip670)" d="M 0 0 M1856.98 1539.92 L1875.33 1539.92 L1875.33 1543.86 L1861.26 1543.86 L1861.26 1552.33 Q1862.28 1551.98 1863.3 1551.82 Q1864.32 1551.63 1865.33 1551.63 Q1871.12 1551.63 1874.5 1554.8 Q1877.88 1557.98 1877.88 1563.39 Q1877.88 1568.97 1874.41 1572.07 Q1870.94 1575.15 1864.62 1575.15 Q1862.44 1575.15 1860.17 1574.78 Q1857.93 1574.41 1855.52 1573.67 L1855.52 1568.97 Q1857.6 1570.1 1859.83 1570.66 Q1862.05 1571.22 1864.52 1571.22 Q1868.53 1571.22 1870.87 1569.11 Q1873.2 1567 1873.2 1563.39 Q1873.2 1559.78 1870.87 1557.67 Q1868.53 1555.57 1864.52 1555.57 Q1862.65 1555.57 1860.77 1555.98 Q1858.92 1556.4 1856.98 1557.28 L1856.98 1539.92 Z" fill="#000000" fill-rule="evenodd" fill-opacity="1" /><path clip-path="url(#clip670)" d="M 0 0 M14.0804 1465.1 Q10.4693 1465.1 8.64057 1468.66 Q6.83502 1472.2 6.83502 1479.33 Q6.83502 1486.44 8.64057 1490 Q10.4693 1493.55 14.0804 1493.55 Q17.7146 1493.55 19.5201 1490 Q21.3488 1486.44 21.3488 1479.33 Q21.3488 1472.2 19.5201 1468.66 Q17.7146 1465.1 14.0804 1465.1 M14.0804 1461.39 Q19.8905 1461.39 22.946 1466 Q26.0247 1470.58 26.0247 1479.33 Q26.0247 1488.06 22.946 1492.67 Q19.8905 1497.25 14.0804 1497.25 Q8.2702 1497.25 5.19151 1492.67 Q2.13597 1488.06 2.13597 1479.33 Q2.13597 1470.58 5.19151 1466 Q8.2702 1461.39 14.0804 1461.39 Z" fill="#000000" fill-rule="evenodd" fill-opacity="1" /><path clip-path="url(#clip670)" d="M 0 0 M31.0941 1490.7 L35.9784 1490.7 L35.9784 1496.58 L31.0941 1496.58 L31.0941 1490.7 Z" fill="#000000" fill-rule="evenodd" fill-opacity="1" /><path clip-path="url(#clip670)" d="M 0 0 M51.0477 1465.1 Q47.4367 1465.1 45.608 1468.66 Q43.8024 1472.2 43.8024 1479.33 Q43.8024 1486.44 45.608 1490 Q47.4367 1493.55 51.0477 1493.55 Q54.682 1493.55 56.4875 1490 Q58.3162 1486.44 58.3162 1479.33 Q58.3162 1472.2 56.4875 1468.66 Q54.682 1465.1 51.0477 1465.1 M51.0477 1461.39 Q56.8579 1461.39 59.9134 1466 Q62.9921 1470.58 62.9921 1479.33 Q62.9921 1488.06 59.9134 1492.67 Q56.8579 1497.25 51.0477 1497.25 Q45.2376 1497.25 42.1589 1492.67 Q39.1034 1488.06 39.1034 1479.33 Q39.1034 1470.58 42.1589 1466 Q45.2376 1461.39 51.0477 1461.39 Z" fill="#000000" fill-rule="evenodd" fill-opacity="1" /><path clip-path="url(#clip670)" d="M 0 0 M10.7007 1160.09 L27.0201 1160.09 L27.0201 1164.03 L5.07577 1164.03 L5.07577 1160.09 Q7.73779 1157.34 12.3211 1152.71 Q16.9276 1148.06 18.1081 1146.71 Q20.3535 1144.19 21.2331 1142.45 Q22.1359 1140.69 22.1359 1139 Q22.1359 1136.25 20.1914 1134.51 Q18.2701 1132.78 15.1683 1132.78 Q12.9692 1132.78 10.5156 1133.54 Q8.08501 1134.31 5.30725 1135.86 L5.30725 1131.13 Q8.13131 1130 10.585 1129.42 Q13.0387 1128.84 15.0757 1128.84 Q20.4461 1128.84 23.6405 1131.53 Q26.8349 1134.21 26.8349 1138.7 Q26.8349 1140.83 26.0247 1142.75 Q25.2377 1144.65 23.1312 1147.25 Q22.5525 1147.92 19.4507 1151.13 Q16.3489 1154.33 10.7007 1160.09 Z" fill="#000000" fill-rule="evenodd" fill-opacity="1" /><path clip-path="url(#clip670)" d="M 0 0 M32.0895 1158.15 L36.9737 1158.15 L36.9737 1164.03 L32.0895 1164.03 L32.0895 1158.15 Z" fill="#000000" fill-rule="evenodd" fill-opacity="1" /><path clip-path="url(#clip670)" d="M 0 0 M42.0895 1129.47 L60.4458 1129.47 L60.4458 1133.4 L46.3718 1133.4 L46.3718 1141.88 Q47.3904 1141.53 48.4089 1141.37 Q49.4274 1141.18 50.4459 1141.18 Q56.2329 1141.18 59.6125 1144.35 Q62.9921 1147.52 62.9921 1152.94 Q62.9921 1158.52 59.5199 1161.62 Q56.0477 1164.7 49.7283 1164.7 Q47.5524 1164.7 45.2839 1164.33 Q43.0385 1163.96 40.6311 1163.22 L40.6311 1158.52 Q42.7145 1159.65 44.9367 1160.21 Q47.1589 1160.76 49.6357 1160.76 Q53.6403 1160.76 55.9783 1158.66 Q58.3162 1156.55 58.3162 1152.94 Q58.3162 1149.33 55.9783 1147.22 Q53.6403 1145.12 49.6357 1145.12 Q47.7607 1145.12 45.8857 1145.53 Q44.0339 1145.95 42.0895 1146.83 L42.0895 1129.47 Z" fill="#000000" fill-rule="evenodd" fill-opacity="1" /><path clip-path="url(#clip670)" d="M 0 0 M5.12207 796.918 L23.4784 796.918 L23.4784 800.853 L9.40445 800.853 L9.40445 809.325 Q10.423 808.978 11.4415 808.816 Q12.46 808.631 13.4785 808.631 Q19.2655 808.631 22.6451 811.802 Q26.0247 814.973 26.0247 820.39 Q26.0247 825.969 22.5525 829.07 Q19.0803 832.149 12.7609 832.149 Q10.585 832.149 8.31649 831.779 Q6.07113 831.408 3.66374 830.668 L3.66374 825.969 Q5.74706 827.103 7.96927 827.658 Q10.1915 828.214 12.6683 828.214 Q16.6729 828.214 19.0109 826.107 Q21.3488 824.001 21.3488 820.39 Q21.3488 816.779 19.0109 814.672 Q16.6729 812.566 12.6683 812.566 Q10.7933 812.566 8.91834 812.982 Q7.0665 813.399 5.12207 814.279 L5.12207 796.918 Z" fill="#000000" fill-rule="evenodd" fill-opacity="1" /><path clip-path="url(#clip670)" d="M 0 0 M31.0941 825.598 L35.9784 825.598 L35.9784 831.478 L31.0941 831.478 L31.0941 825.598 Z" fill="#000000" fill-rule="evenodd" fill-opacity="1" /><path clip-path="url(#clip670)" d="M 0 0 M51.0477 799.996 Q47.4367 799.996 45.608 803.561 Q43.8024 807.103 43.8024 814.232 Q43.8024 821.339 45.608 824.904 Q47.4367 828.445 51.0477 828.445 Q54.682 828.445 56.4875 824.904 Q58.3162 821.339 58.3162 814.232 Q58.3162 807.103 56.4875 803.561 Q54.682 799.996 51.0477 799.996 M51.0477 796.293 Q56.8579 796.293 59.9134 800.899 Q62.9921 805.483 62.9921 814.232 Q62.9921 822.959 59.9134 827.566 Q56.8579 832.149 51.0477 832.149 Q45.2376 832.149 42.1589 827.566 Q39.1034 822.959 39.1034 814.232 Q39.1034 805.483 42.1589 800.899 Q45.2376 796.293 51.0477 796.293 Z" fill="#000000" fill-rule="evenodd" fill-opacity="1" /><path clip-path="url(#clip670)" d="M 0 0 M4.79799 464.368 L27.0201 464.368 L27.0201 466.359 L14.4739 498.928 L9.58963 498.928 L21.3951 468.303 L4.79799 468.303 L4.79799 464.368 Z" fill="#000000" fill-rule="evenodd" fill-opacity="1" /><path clip-path="url(#clip670)" d="M 0 0 M32.0895 493.048 L36.9737 493.048 L36.9737 498.928 L32.0895 498.928 L32.0895 493.048 Z" fill="#000000" fill-rule="evenodd" fill-opacity="1" /><path clip-path="url(#clip670)" d="M 0 0 M42.0895 464.368 L60.4458 464.368 L60.4458 468.303 L46.3718 468.303 L46.3718 476.775 Q47.3904 476.428 48.4089 476.266 Q49.4274 476.081 50.4459 476.081 Q56.2329 476.081 59.6125 479.252 Q62.9921 482.423 62.9921 487.84 Q62.9921 493.419 59.5199 496.52 Q56.0477 499.599 49.7283 499.599 Q47.5524 499.599 45.2839 499.229 Q43.0385 498.858 40.6311 498.118 L40.6311 493.419 Q42.7145 494.553 44.9367 495.108 Q47.1589 495.664 49.6357 495.664 Q53.6403 495.664 55.9783 493.557 Q58.3162 491.451 58.3162 487.84 Q58.3162 484.229 55.9783 482.122 Q53.6403 480.016 49.6357 480.016 Q47.7607 480.016 45.8857 480.433 Q44.0339 480.849 42.0895 481.729 L42.0895 464.368 Z" fill="#000000" fill-rule="evenodd" fill-opacity="1" /><path clip-path="url(#clip670)" d="M 0 0 M-20.8963 162.443 L-13.2575 162.443 L-13.2575 136.077 L-21.5676 137.744 L-21.5676 133.485 L-13.3038 131.818 L-8.62786 131.818 L-8.62786 162.443 L-0.989013 162.443 L-0.989013 166.378 L-20.8963 166.378 L-20.8963 162.443 Z" fill="#000000" fill-rule="evenodd" fill-opacity="1" /><path clip-path="url(#clip670)" d="M 0 0 M14.0804 134.897 Q10.4693 134.897 8.64057 138.461 Q6.83502 142.003 6.83502 149.133 Q6.83502 156.239 8.64057 159.804 Q10.4693 163.346 14.0804 163.346 Q17.7146 163.346 19.5201 159.804 Q21.3488 156.239 21.3488 149.133 Q21.3488 142.003 19.5201 138.461 Q17.7146 134.897 14.0804 134.897 M14.0804 131.193 Q19.8905 131.193 22.946 135.799 Q26.0247 140.383 26.0247 149.133 Q26.0247 157.859 22.946 162.466 Q19.8905 167.049 14.0804 167.049 Q8.2702 167.049 5.19151 162.466 Q2.13597 157.859 2.13597 149.133 Q2.13597 140.383 5.19151 135.799 Q8.2702 131.193 14.0804 131.193 Z" fill="#000000" fill-rule="evenodd" fill-opacity="1" /><path clip-path="url(#clip670)" d="M 0 0 M31.0941 160.498 L35.9784 160.498 L35.9784 166.378 L31.0941 166.378 L31.0941 160.498 Z" fill="#000000" fill-rule="evenodd" fill-opacity="1" /><path clip-path="url(#clip670)" d="M 0 0 M51.0477 134.897 Q47.4367 134.897 45.608 138.461 Q43.8024 142.003 43.8024 149.133 Q43.8024 156.239 45.608 159.804 Q47.4367 163.346 51.0477 163.346 Q54.682 163.346 56.4875 159.804 Q58.3162 156.239 58.3162 149.133 Q58.3162 142.003 56.4875 138.461 Q54.682 134.897 51.0477 134.897 M51.0477 131.193 Q56.8579 131.193 59.9134 135.799 Q62.9921 140.383 62.9921 149.133 Q62.9921 157.859 59.9134 162.466 Q56.8579 167.049 51.0477 167.049 Q45.2376 167.049 42.1589 162.466 Q39.1034 157.859 39.1034 149.133 Q39.1034 140.383 42.1589 135.799 Q45.2376 131.193 51.0477 131.193 Z" fill="#000000" fill-rule="evenodd" fill-opacity="1" /><path clip-path="url(#clip672)" d="
M151.118 1343.06 L153.439 1338.52 L155.76 1333.95 L158.082 1329.35 L160.403 1324.72 L162.724 1320.07 L165.046 1315.41 L167.367 1310.73 L169.688 1306.04 L172.01 1301.35 
  L174.331 1296.65 L176.652 1291.96 L178.974 1287.27 L181.295 1282.59 L183.616 1277.93 L185.938 1273.28 L188.259 1268.64 L190.58 1264.03 L192.902 1259.44 L195.223 1254.88 
  L197.544 1250.35 L199.866 1245.85 L202.187 1241.38 L204.509 1236.95 L206.83 1232.55 L209.151 1228.19 L211.473 1223.87 L213.794 1219.59 L216.115 1215.36 L218.437 1211.16 
  L220.758 1207.01 L223.079 1202.91 L225.401 1198.85 L227.722 1194.84 L230.043 1190.88 L232.365 1186.96 L234.686 1183.1 L237.007 1179.27 L239.329 1175.5 L241.65 1171.78 
  L243.971 1168.1 L246.293 1164.47 L248.614 1160.88 L250.935 1157.34 L253.257 1153.85 L255.578 1150.39 L257.9 1146.98 L260.221 1143.61 L262.542 1140.28 L264.864 1136.99 
  L267.185 1133.73 L269.506 1130.51 L271.828 1127.32 L274.149 1124.15 L276.47 1121.01 L278.792 1117.89 L281.113 1114.8 L283.434 1111.71 L285.756 1108.64 L288.077 1105.58 
  L290.398 1102.52 L292.72 1099.47 L295.041 1096.41 L297.362 1093.34 L299.684 1090.26 L302.005 1087.16 L304.326 1084.04 L306.648 1080.9 L308.969 1077.72 L311.291 1074.52 
  L313.612 1071.27 L315.933 1067.98 L318.255 1064.64 L320.576 1061.25 L322.897 1057.8 L325.219 1054.29 L327.54 1050.72 L329.861 1047.09 L332.183 1043.38 L334.504 1039.61 
  L336.825 1035.76 L339.147 1031.83 L341.468 1027.82 L343.789 1023.74 L346.111 1019.57 L348.432 1015.33 L350.753 1011 L353.075 1006.59 L355.396 1002.1 L357.717 997.534 
  L360.039 992.888 L362.36 988.166 L364.682 983.37 L367.003 978.503 L369.324 973.567 L371.646 968.566 L373.967 963.504 L376.288 958.384 L378.61 953.21 L380.931 947.988 
  L380.931 1479.3 L378.61 1479.3 L376.288 1479.3 L373.967 1479.3 L371.646 1479.3 L369.324 1479.3 L367.003 1479.3 L364.682 1479.3 L362.36 1479.3 L360.039 1479.3 
  L357.717 1479.3 L355.396 1479.3 L353.075 1479.3 L350.753 1479.3 L348.432 1479.3 L346.111 1479.3 L343.789 1479.3 L341.468 1479.3 L339.147 1479.3 L336.825 1479.3 
  L334.504 1479.3 L332.183 1479.3 L329.861 1479.3 L327.54 1479.3 L325.219 1479.3 L322.897 1479.3 L320.576 1479.3 L318.255 1479.3 L315.933 1479.3 L313.612 1479.3 
  L311.291 1479.3 L308.969 1479.3 L306.648 1479.3 L304.326 1479.3 L302.005 1479.3 L299.684 1479.3 L297.362 1479.3 L295.041 1479.3 L292.72 1479.3 L290.398 1479.3 
  L288.077 1479.3 L285.756 1479.3 L283.434 1479.3 L281.113 1479.3 L278.792 1479.3 L276.47 1479.3 L274.149 1479.3 L271.828 1479.3 L269.506 1479.3 L267.185 1479.3 
  L264.864 1479.3 L262.542 1479.3 L260.221 1479.3 L257.9 1479.3 L255.578 1479.3 L253.257 1479.3 L250.935 1479.3 L248.614 1479.3 L246.293 1479.3 L243.971 1479.3 
  L241.65 1479.3 L239.329 1479.3 L237.007 1479.3 L234.686 1479.3 L232.365 1479.3 L230.043 1479.3 L227.722 1479.3 L225.401 1479.3 L223.079 1479.3 L220.758 1479.3 
  L218.437 1479.3 L216.115 1479.3 L213.794 1479.3 L211.473 1479.3 L209.151 1479.3 L206.83 1479.3 L204.509 1479.3 L202.187 1479.3 L199.866 1479.3 L197.544 1479.3 
  L195.223 1479.3 L192.902 1479.3 L190.58 1479.3 L188.259 1479.3 L185.938 1479.3 L183.616 1479.3 L181.295 1479.3 L178.974 1479.3 L176.652 1479.3 L174.331 1479.3 
  L172.01 1479.3 L169.688 1479.3 L167.367 1479.3 L165.046 1479.3 L162.724 1479.3 L160.403 1479.3 L158.082 1479.3 L155.76 1479.3 L153.439 1479.3 L151.118 1479.3 
   Z
  " fill="#ffa500" fill-rule="evenodd" fill-opacity="0.5"/>
<polyline clip-path="url(#clip672)" style="stroke:#ffa500; stroke-width:4; stroke-opacity:1; fill:none" points="
  151.118,1343.06 153.439,1338.52 155.76,1333.95 158.082,1329.35 160.403,1324.72 162.724,1320.07 165.046,1315.41 167.367,1310.73 169.688,1306.04 172.01,1301.35 
  174.331,1296.65 176.652,1291.96 178.974,1287.27 181.295,1282.59 183.616,1277.93 185.938,1273.28 188.259,1268.64 190.58,1264.03 192.902,1259.44 195.223,1254.88 
  197.544,1250.35 199.866,1245.85 202.187,1241.38 204.509,1236.95 206.83,1232.55 209.151,1228.19 211.473,1223.87 213.794,1219.59 216.115,1215.36 218.437,1211.16 
  220.758,1207.01 223.079,1202.91 225.401,1198.85 227.722,1194.84 230.043,1190.88 232.365,1186.96 234.686,1183.1 237.007,1179.27 239.329,1175.5 241.65,1171.78 
  243.971,1168.1 246.293,1164.47 248.614,1160.88 250.935,1157.34 253.257,1153.85 255.578,1150.39 257.9,1146.98 260.221,1143.61 262.542,1140.28 264.864,1136.99 
  267.185,1133.73 269.506,1130.51 271.828,1127.32 274.149,1124.15 276.47,1121.01 278.792,1117.89 281.113,1114.8 283.434,1111.71 285.756,1108.64 288.077,1105.58 
  290.398,1102.52 292.72,1099.47 295.041,1096.41 297.362,1093.34 299.684,1090.26 302.005,1087.16 304.326,1084.04 306.648,1080.9 308.969,1077.72 311.291,1074.52 
  313.612,1071.27 315.933,1067.98 318.255,1064.64 320.576,1061.25 322.897,1057.8 325.219,1054.29 327.54,1050.72 329.861,1047.09 332.183,1043.38 334.504,1039.61 
  336.825,1035.76 339.147,1031.83 341.468,1027.82 343.789,1023.74 346.111,1019.57 348.432,1015.33 350.753,1011 353.075,1006.59 355.396,1002.1 357.717,997.534 
  360.039,992.888 362.36,988.166 364.682,983.37 367.003,978.503 369.324,973.567 371.646,968.566 373.967,963.504 376.288,958.384 378.61,953.21 380.931,947.988 
  
  "/>
<path clip-path="url(#clip672)" d="
M380.931 947.988 L395.431 914.551 L409.931 880.619 L424.431 847.433 L438.931 816.016 L453.432 787.035 L467.932 760.756 L482.432 737.097 L496.932 715.724 L511.432 696.162 
  L525.932 677.884 L540.432 660.38 L554.933 643.2 L569.433 625.992 L583.933 608.534 L598.433 590.77 L612.933 572.831 L627.433 555.034 L641.933 537.841 L656.433 521.768 
  L670.934 507.27 L685.434 494.6 L699.934 483.699 L714.434 474.117 L728.934 465.016 L743.434 455.254 L757.934 443.563 L772.434 428.784 L786.935 410.13 L801.435 387.401 
  L815.935 361.098 L830.435 332.389 L844.935 302.914 L859.435 274.475 L873.935 248.681 L888.436 226.649 L902.936 208.835 L917.436 195.015 L931.936 184.41 L946.436 175.889 
  L960.936 168.194 L975.436 160.158 L989.936 150.893 L1004.44 139.976 L1018.94 127.586 L1033.44 114.594 L1047.94 102.514 L1062.44 93.2945 L1076.94 88.9544 L1091.44 91.125 
  L1105.94 100.632 L1120.44 117.252 L1134.94 139.746 L1149.44 166.172 L1163.94 194.402 L1178.44 222.659 L1192.94 249.905 L1207.44 275.949 L1221.94 301.267 L1236.44 326.624 
  L1250.94 352.67 L1265.44 379.667 L1279.94 407.419 L1294.44 435.397 L1308.94 462.981 L1323.44 489.681 L1337.94 515.28 L1352.44 539.854 L1366.94 563.694 L1381.44 587.162 
  L1395.94 610.543 L1410.44 633.914 L1424.94 657.072 L1439.44 679.527 L1453.94 700.587 L1468.44 719.534 L1482.94 735.852 L1497.44 749.455 L1511.94 760.823 L1526.44 770.966 
  L1540.94 781.214 L1555.44 792.86 L1569.94 806.784 L1584.44 823.194 L1598.94 841.588 L1613.44 860.966 L1627.94 880.218 L1642.44 898.558 L1656.94 915.817 L1671.44 932.51 
  L1685.94 949.633 L1700.44 968.283 L1714.94 989.245 L1729.44 1012.7 L1743.94 1038.13 L1758.44 1064.48 L1772.94 1090.44 L1787.44 1114.79 L1801.94 1136.62 L1816.44 1155.49 
  L1816.44 1479.3 L1801.94 1479.3 L1787.44 1479.3 L1772.94 1479.3 L1758.44 1479.3 L1743.94 1479.3 L1729.44 1479.3 L1714.94 1479.3 L1700.44 1479.3 L1685.94 1479.3 
  L1671.44 1479.3 L1656.94 1479.3 L1642.44 1479.3 L1627.94 1479.3 L1613.44 1479.3 L1598.94 1479.3 L1584.44 1479.3 L1569.94 1479.3 L1555.44 1479.3 L1540.94 1479.3 
  L1526.44 1479.3 L1511.94 1479.3 L1497.44 1479.3 L1482.94 1479.3 L1468.44 1479.3 L1453.94 1479.3 L1439.44 1479.3 L1424.94 1479.3 L1410.44 1479.3 L1395.94 1479.3 
  L1381.44 1479.3 L1366.94 1479.3 L1352.44 1479.3 L1337.94 1479.3 L1323.44 1479.3 L1308.94 1479.3 L1294.44 1479.3 L1279.94 1479.3 L1265.44 1479.3 L1250.94 1479.3 
  L1236.44 1479.3 L1221.94 1479.3 L1207.44 1479.3 L1192.94 1479.3 L1178.44 1479.3 L1163.94 1479.3 L1149.44 1479.3 L1134.94 1479.3 L1120.44 1479.3 L1105.94 1479.3 
  L1091.44 1479.3 L1076.94 1479.3 L1062.44 1479.3 L1047.94 1479.3 L1033.44 1479.3 L1018.94 1479.3 L1004.44 1479.3 L989.936 1479.3 L975.436 1479.3 L960.936 1479.3 
  L946.436 1479.3 L931.936 1479.3 L917.436 1479.3 L902.936 1479.3 L888.436 1479.3 L873.935 1479.3 L859.435 1479.3 L844.935 1479.3 L830.435 1479.3 L815.935 1479.3 
  L801.435 1479.3 L786.935 1479.3 L772.434 1479.3 L757.934 1479.3 L743.434 1479.3 L728.934 1479.3 L714.434 1479.3 L699.934 1479.3 L685.434 1479.3 L670.934 1479.3 
  L656.433 1479.3 L641.933 1479.3 L627.433 1479.3 L612.933 1479.3 L598.433 1479.3 L583.933 1479.3 L569.433 1479.3 L554.933 1479.3 L540.432 1479.3 L525.932 1479.3 
  L511.432 1479.3 L496.932 1479.3 L482.432 1479.3 L467.932 1479.3 L453.432 1479.3 L438.931 1479.3 L424.431 1479.3 L409.931 1479.3 L395.431 1479.3 L380.931 1479.3 
   Z
  " fill="#008000" fill-rule="evenodd" fill-opacity="0.5"/>
<polyline clip-path="url(#clip672)" style="stroke:#008000; stroke-width:4; stroke-opacity:1; fill:none" points="
  380.931,947.988 395.431,914.551 409.931,880.619 424.431,847.433 438.931,816.016 453.432,787.035 467.932,760.756 482.432,737.097 496.932,715.724 511.432,696.162 
  525.932,677.884 540.432,660.38 554.933,643.2 569.433,625.992 583.933,608.534 598.433,590.77 612.933,572.831 627.433,555.034 641.933,537.841 656.433,521.768 
  670.934,507.27 685.434,494.6 699.934,483.699 714.434,474.117 728.934,465.016 743.434,455.254 757.934,443.563 772.434,428.784 786.935,410.13 801.435,387.401 
  815.935,361.098 830.435,332.389 844.935,302.914 859.435,274.475 873.935,248.681 888.436,226.649 902.936,208.835 917.436,195.015 931.936,184.41 946.436,175.889 
  960.936,168.194 975.436,160.158 989.936,150.893 1004.44,139.976 1018.94,127.586 1033.44,114.594 1047.94,102.514 1062.44,93.2945 1076.94,88.9544 1091.44,91.125 
  1105.94,100.632 1120.44,117.252 1134.94,139.746 1149.44,166.172 1163.94,194.402 1178.44,222.659 1192.94,249.905 1207.44,275.949 1221.94,301.267 1236.44,326.624 
  1250.94,352.67 1265.44,379.667 1279.94,407.419 1294.44,435.397 1308.94,462.981 1323.44,489.681 1337.94,515.28 1352.44,539.854 1366.94,563.694 1381.44,587.162 
  1395.94,610.543 1410.44,633.914 1424.94,657.072 1439.44,679.527 1453.94,700.587 1468.44,719.534 1482.94,735.852 1497.44,749.455 1511.94,760.823 1526.44,770.966 
  1540.94,781.214 1555.44,792.86 1569.94,806.784 1584.44,823.194 1598.94,841.588 1613.44,860.966 1627.94,880.218 1642.44,898.558 1656.94,915.817 1671.44,932.51 
  1685.94,949.633 1700.44,968.283 1714.94,989.245 1729.44,1012.7 1743.94,1038.13 1758.44,1064.48 1772.94,1090.44 1787.44,1114.79 1801.94,1136.62 1816.44,1155.49 
  
  "/>
<path clip-path="url(#clip672)" d="
M1816.44 1155.49 L1821.21 1161.04 L1825.98 1166.27 L1830.75 1171.21 L1835.52 1175.86 L1840.29 1180.25 L1845.06 1184.39 L1849.83 1188.31 L1854.6 1192.04 L1859.37 1195.6 
  L1864.14 1199.01 L1868.91 1202.29 L1873.68 1205.48 L1878.45 1208.59 L1883.22 1211.64 L1887.99 1214.67 L1892.76 1217.68 L1897.53 1220.69 L1902.3 1223.72 L1907.07 1226.77 
  L1911.84 1229.87 L1916.6 1233.01 L1921.37 1236.2 L1926.14 1239.45 L1930.91 1242.74 L1935.68 1246.07 L1940.45 1249.45 L1945.22 1252.84 L1949.99 1256.26 L1954.76 1259.67 
  L1959.53 1263.06 L1964.3 1266.43 L1969.07 1269.74 L1973.84 1272.99 L1978.61 1276.15 L1983.38 1279.22 L1988.15 1282.18 L1992.92 1285.02 L1997.69 1287.73 L2002.46 1290.31 
  L2007.23 1292.76 L2012 1295.08 L2016.77 1297.28 L2021.54 1299.38 L2026.3 1301.38 L2031.07 1303.31 L2035.84 1305.19 L2040.61 1307.03 L2045.38 1308.88 L2050.15 1310.75 
  L2054.92 1312.67 L2059.69 1314.68 L2064.46 1316.78 L2069.23 1319.02 L2074 1321.4 L2078.77 1323.96 L2083.54 1326.71 L2088.31 1329.65 L2093.08 1332.79 L2097.85 1336.15 
  L2102.62 1339.71 L2107.39 1343.48 L2112.16 1347.44 L2116.93 1351.59 L2121.7 1355.9 L2126.47 1360.36 L2131.23 1364.95 L2136 1369.64 L2140.77 1374.41 L2145.54 1379.23 
  L2150.31 1384.07 L2155.08 1388.92 L2159.85 1393.74 L2164.62 1398.52 L2169.39 1403.21 L2174.16 1407.82 L2178.93 1412.3 L2183.7 1416.66 L2188.47 1420.86 L2193.24 1424.9 
  L2198.01 1428.77 L2202.78 1432.45 L2207.55 1435.95 L2212.32 1439.25 L2217.09 1442.35 L2221.86 1445.26 L2226.63 1447.97 L2231.4 1450.5 L2236.17 1452.83 L2240.93 1454.99 
  L2245.7 1456.98 L2250.47 1458.8 L2255.24 1460.47 L2260.01 1462 L2264.78 1463.4 L2269.55 1464.67 L2274.32 1465.83 L2279.09 1466.89 L2283.86 1467.86 L2288.63 1468.74 
  L2288.63 1479.3 L2283.86 1479.3 L2279.09 1479.3 L2274.32 1479.3 L2269.55 1479.3 L2264.78 1479.3 L2260.01 1479.3 L2255.24 1479.3 L2250.47 1479.3 L2245.7 1479.3 
  L2240.93 1479.3 L2236.17 1479.3 L2231.4 1479.3 L2226.63 1479.3 L2221.86 1479.3 L2217.09 1479.3 L2212.32 1479.3 L2207.55 1479.3 L2202.78 1479.3 L2198.01 1479.3 
  L2193.24 1479.3 L2188.47 1479.3 L2183.7 1479.3 L2178.93 1479.3 L2174.16 1479.3 L2169.39 1479.3 L2164.62 1479.3 L2159.85 1479.3 L2155.08 1479.3 L2150.31 1479.3 
  L2145.54 1479.3 L2140.77 1479.3 L2136 1479.3 L2131.23 1479.3 L2126.47 1479.3 L2121.7 1479.3 L2116.93 1479.3 L2112.16 1479.3 L2107.39 1479.3 L2102.62 1479.3 
  L2097.85 1479.3 L2093.08 1479.3 L2088.31 1479.3 L2083.54 1479.3 L2078.77 1479.3 L2074 1479.3 L2069.23 1479.3 L2064.46 1479.3 L2059.69 1479.3 L2054.92 1479.3 
  L2050.15 1479.3 L2045.38 1479.3 L2040.61 1479.3 L2035.84 1479.3 L2031.07 1479.3 L2026.3 1479.3 L2021.54 1479.3 L2016.77 1479.3 L2012 1479.3 L2007.23 1479.3 
  L2002.46 1479.3 L1997.69 1479.3 L1992.92 1479.3 L1988.15 1479.3 L1983.38 1479.3 L1978.61 1479.3 L1973.84 1479.3 L1969.07 1479.3 L1964.3 1479.3 L1959.53 1479.3 
  L1954.76 1479.3 L1949.99 1479.3 L1945.22 1479.3 L1940.45 1479.3 L1935.68 1479.3 L1930.91 1479.3 L1926.14 1479.3 L1921.37 1479.3 L1916.6 1479.3 L1911.84 1479.3 
  L1907.07 1479.3 L1902.3 1479.3 L1897.53 1479.3 L1892.76 1479.3 L1887.99 1479.3 L1883.22 1479.3 L1878.45 1479.3 L1873.68 1479.3 L1868.91 1479.3 L1864.14 1479.3 
  L1859.37 1479.3 L1854.6 1479.3 L1849.83 1479.3 L1845.06 1479.3 L1840.29 1479.3 L1835.52 1479.3 L1830.75 1479.3 L1825.98 1479.3 L1821.21 1479.3 L1816.44 1479.3 
   Z
  " fill="#ffa500" fill-rule="evenodd" fill-opacity="0.5"/>
<polyline clip-path="url(#clip672)" style="stroke:#ffa500; stroke-width:4; stroke-opacity:1; fill:none" points="
  1816.44,1155.49 1821.21,1161.04 1825.98,1166.27 1830.75,1171.21 1835.52,1175.86 1840.29,1180.25 1845.06,1184.39 1849.83,1188.31 1854.6,1192.04 1859.37,1195.6 
  1864.14,1199.01 1868.91,1202.29 1873.68,1205.48 1878.45,1208.59 1883.22,1211.64 1887.99,1214.67 1892.76,1217.68 1897.53,1220.69 1902.3,1223.72 1907.07,1226.77 
  1911.84,1229.87 1916.6,1233.01 1921.37,1236.2 1926.14,1239.45 1930.91,1242.74 1935.68,1246.07 1940.45,1249.45 1945.22,1252.84 1949.99,1256.26 1954.76,1259.67 
  1959.53,1263.06 1964.3,1266.43 1969.07,1269.74 1973.84,1272.99 1978.61,1276.15 1983.38,1279.22 1988.15,1282.18 1992.92,1285.02 1997.69,1287.73 2002.46,1290.31 
  2007.23,1292.76 2012,1295.08 2016.77,1297.28 2021.54,1299.38 2026.3,1301.38 2031.07,1303.31 2035.84,1305.19 2040.61,1307.03 2045.38,1308.88 2050.15,1310.75 
  2054.92,1312.67 2059.69,1314.68 2064.46,1316.78 2069.23,1319.02 2074,1321.4 2078.77,1323.96 2083.54,1326.71 2088.31,1329.65 2093.08,1332.79 2097.85,1336.15 
  2102.62,1339.71 2107.39,1343.48 2112.16,1347.44 2116.93,1351.59 2121.7,1355.9 2126.47,1360.36 2131.23,1364.95 2136,1369.64 2140.77,1374.41 2145.54,1379.23 
  2150.31,1384.07 2155.08,1388.92 2159.85,1393.74 2164.62,1398.52 2169.39,1403.21 2174.16,1407.82 2178.93,1412.3 2183.7,1416.66 2188.47,1420.86 2193.24,1424.9 
  2198.01,1428.77 2202.78,1432.45 2207.55,1435.95 2212.32,1439.25 2217.09,1442.35 2221.86,1445.26 2226.63,1447.97 2231.4,1450.5 2236.17,1452.83 2240.93,1454.99 
  2245.7,1456.98 2250.47,1458.8 2255.24,1460.47 2260.01,1462 2264.78,1463.4 2269.55,1464.67 2274.32,1465.83 2279.09,1466.89 2283.86,1467.86 2288.63,1468.74 
  
  "/>
<polyline clip-path="url(#clip672)" style="stroke:#0000ff; stroke-width:4; stroke-opacity:1; fill:none" points="
  1055.36,1479.3 1055.36,97.3085 
  "/>
<polyline clip-path="url(#clip672)" style="stroke:#000000; stroke-width:4; stroke-opacity:1; fill:none" points="
  1045.78,1479.3 1045.78,104.183 
  "/>
<path clip-path="url(#clip670)" d="
M1494.58 459.25 L2277.23 459.25 L2277.23 96.3696 L1494.58 96.3696  Z
  " fill="#ffffff" fill-rule="evenodd" fill-opacity="1"/>
<polyline clip-path="url(#clip670)" style="stroke:#000000; stroke-width:4; stroke-opacity:1; fill:none" points="
  1494.58,459.25 2277.23,459.25 2277.23,96.3696 1494.58,96.3696 1494.58,459.25 
  "/>
<path clip-path="url(#clip670)" d="
M1519.75 181.042 L1670.81 181.042 L1670.81 132.658 L1519.75 132.658 L1519.75 181.042  Z
  " fill="#ffa500" fill-rule="evenodd" fill-opacity="0.5"/>
<polyline clip-path="url(#clip670)" style="stroke:#ffa500; stroke-width:4; stroke-opacity:1; fill:none" points="
  1519.75,132.658 1670.81,132.658 
  "/>
<path clip-path="url(#clip670)" d="M 0 0 M1700.38 161.19 Q1700.38 165.889 1702.3 168.574 Q1704.24 171.236 1707.62 171.236 Q1711 171.236 1712.95 168.574 Q1714.89 165.889 1714.89 161.19 Q1714.89 156.491 1712.95 153.829 Q1711 151.144 1707.62 151.144 Q1704.24 151.144 1702.3 153.829 Q1700.38 156.491 1700.38 161.19 M1714.89 170.241 Q1713.55 172.555 1711.49 173.69 Q1709.45 174.801 1706.58 174.801 Q1701.88 174.801 1698.92 171.051 Q1695.98 167.301 1695.98 161.19 Q1695.98 155.079 1698.92 151.329 Q1701.88 147.579 1706.58 147.579 Q1709.45 147.579 1711.49 148.713 Q1713.55 149.824 1714.89 152.139 L1714.89 148.204 L1719.15 148.204 L1719.15 183.991 L1714.89 183.991 L1714.89 170.241 Z" fill="#000000" fill-rule="evenodd" fill-opacity="1" /><path clip-path="url(#clip670)" d="M 0 0 M1734.22 142.648 Q1730.61 142.648 1728.78 146.213 Q1726.98 149.755 1726.98 156.884 Q1726.98 163.991 1728.78 167.556 Q1730.61 171.097 1734.22 171.097 Q1737.85 171.097 1739.66 167.556 Q1741.49 163.991 1741.49 156.884 Q1741.49 149.755 1739.66 146.213 Q1737.85 142.648 1734.22 142.648 M1734.22 138.945 Q1740.03 138.945 1743.09 143.551 Q1746.17 148.134 1746.17 156.884 Q1746.17 165.611 1743.09 170.218 Q1740.03 174.801 1734.22 174.801 Q1728.41 174.801 1725.33 170.218 Q1722.28 165.611 1722.28 156.884 Q1722.28 148.134 1725.33 143.551 Q1728.41 138.945 1734.22 138.945 Z" fill="#000000" fill-rule="evenodd" fill-opacity="1" /><path clip-path="url(#clip670)" d="M 0 0 M1751.28 139.57 L1769.64 139.57 L1769.64 143.505 L1755.56 143.505 L1755.56 151.977 Q1756.58 151.63 1757.6 151.468 Q1758.62 151.282 1759.64 151.282 Q1765.42 151.282 1768.8 154.454 Q1772.18 157.625 1772.18 163.042 Q1772.18 168.62 1768.71 171.722 Q1765.24 174.801 1758.92 174.801 Q1756.74 174.801 1754.48 174.43 Q1752.23 174.06 1749.82 173.319 L1749.82 168.62 Q1751.91 169.755 1754.13 170.31 Q1756.35 170.866 1758.83 170.866 Q1762.83 170.866 1765.17 168.759 Q1767.51 166.653 1767.51 163.042 Q1767.51 159.431 1765.17 157.324 Q1762.83 155.218 1758.83 155.218 Q1756.95 155.218 1755.08 155.634 Q1753.23 156.051 1751.28 156.931 L1751.28 139.57 Z" fill="#000000" fill-rule="evenodd" fill-opacity="1" /><path clip-path="url(#clip670)" d="
M1519.75 241.522 L1670.81 241.522 L1670.81 193.138 L1519.75 193.138 L1519.75 241.522  Z
  " fill="#008000" fill-rule="evenodd" fill-opacity="0.5"/>
<polyline clip-path="url(#clip670)" style="stroke:#008000; stroke-width:4; stroke-opacity:1; fill:none" points="
  1519.75,193.138 1670.81,193.138 
  "/>
<path clip-path="url(#clip670)" d="M 0 0 M1698.2 233.892 L1698.2 229.633 Q1699.96 230.466 1701.77 230.906 Q1703.57 231.346 1705.31 231.346 Q1709.94 231.346 1712.37 228.244 Q1714.82 225.119 1715.17 218.776 Q1713.83 220.767 1711.77 221.832 Q1709.71 222.897 1707.21 222.897 Q1702.02 222.897 1698.99 219.772 Q1695.98 216.624 1695.98 211.184 Q1695.98 205.86 1699.13 202.642 Q1702.28 199.425 1707.51 199.425 Q1713.5 199.425 1716.65 204.031 Q1719.82 208.614 1719.82 217.364 Q1719.82 225.536 1715.93 230.42 Q1712.07 235.281 1705.52 235.281 Q1703.76 235.281 1701.95 234.934 Q1700.15 234.586 1698.2 233.892 M1707.51 219.239 Q1710.66 219.239 1712.48 217.086 Q1714.34 214.934 1714.34 211.184 Q1714.34 207.457 1712.48 205.304 Q1710.66 203.128 1707.51 203.128 Q1704.36 203.128 1702.51 205.304 Q1700.68 207.457 1700.68 211.184 Q1700.68 214.934 1702.51 217.086 Q1704.36 219.239 1707.51 219.239 Z" fill="#000000" fill-rule="evenodd" fill-opacity="1" /><path clip-path="url(#clip670)" d="M 0 0 M1734.89 203.128 Q1731.28 203.128 1729.45 206.693 Q1727.65 210.235 1727.65 217.364 Q1727.65 224.471 1729.45 228.036 Q1731.28 231.577 1734.89 231.577 Q1738.53 231.577 1740.33 228.036 Q1742.16 224.471 1742.16 217.364 Q1742.16 210.235 1740.33 206.693 Q1738.53 203.128 1734.89 203.128 M1734.89 199.425 Q1740.7 199.425 1743.76 204.031 Q1746.84 208.614 1746.84 217.364 Q1746.84 226.091 1743.76 230.698 Q1740.7 235.281 1734.89 235.281 Q1729.08 235.281 1726 230.698 Q1722.95 226.091 1722.95 217.364 Q1722.95 208.614 1726 204.031 Q1729.08 199.425 1734.89 199.425 Z" fill="#000000" fill-rule="evenodd" fill-opacity="1" /><path clip-path="url(#clip670)" d="M 0 0 M1781.3 219.401 Q1779.29 219.401 1778.13 221.114 Q1777 222.827 1777 225.883 Q1777 228.892 1778.13 230.628 Q1779.29 232.341 1781.3 232.341 Q1783.27 232.341 1784.41 230.628 Q1785.56 228.892 1785.56 225.883 Q1785.56 222.85 1784.41 221.137 Q1783.27 219.401 1781.3 219.401 M1781.3 216.462 Q1784.96 216.462 1787.11 219.008 Q1789.27 221.554 1789.27 225.883 Q1789.27 230.211 1787.09 232.758 Q1784.94 235.281 1781.3 235.281 Q1777.6 235.281 1775.45 232.758 Q1773.29 230.211 1773.29 225.883 Q1773.29 221.531 1775.45 219.008 Q1777.62 216.462 1781.3 216.462 M1757.42 202.364 Q1755.42 202.364 1754.27 204.1 Q1753.13 205.813 1753.13 208.823 Q1753.13 211.878 1754.27 213.591 Q1755.4 215.304 1757.42 215.304 Q1759.43 215.304 1760.56 213.591 Q1761.72 211.878 1761.72 208.823 Q1761.72 205.837 1760.56 204.1 Q1759.41 202.364 1757.42 202.364 M1778.32 199.425 L1782.02 199.425 L1760.4 235.281 L1756.7 235.281 L1778.32 199.425 M1757.42 199.425 Q1761.07 199.425 1763.25 201.971 Q1765.42 204.494 1765.42 208.823 Q1765.42 213.198 1763.25 215.721 Q1761.1 218.244 1757.42 218.244 Q1753.73 218.244 1751.58 215.721 Q1749.45 213.174 1749.45 208.823 Q1749.45 204.517 1751.6 201.971 Q1753.76 199.425 1757.42 199.425 Z" fill="#000000" fill-rule="evenodd" fill-opacity="1" /><path clip-path="url(#clip670)" d="M 0 0 M1830.35 218.961 L1830.35 234.61 L1826.1 234.61 L1826.1 219.1 Q1826.1 215.42 1824.66 213.591 Q1823.22 211.762 1820.35 211.762 Q1816.91 211.762 1814.91 213.962 Q1812.92 216.161 1812.92 219.957 L1812.92 234.61 L1808.64 234.61 L1808.64 208.684 L1812.92 208.684 L1812.92 212.712 Q1814.45 210.374 1816.51 209.216 Q1818.6 208.059 1821.3 208.059 Q1825.77 208.059 1828.06 210.837 Q1830.35 213.591 1830.35 218.961 Z" fill="#000000" fill-rule="evenodd" fill-opacity="1" /><path clip-path="url(#clip670)" d="M 0 0 M1844.87 211.67 Q1841.44 211.67 1839.45 214.355 Q1837.46 217.017 1837.46 221.67 Q1837.46 226.323 1839.43 229.008 Q1841.42 231.67 1844.87 231.67 Q1848.27 231.67 1850.26 228.985 Q1852.25 226.299 1852.25 221.67 Q1852.25 217.063 1850.26 214.378 Q1848.27 211.67 1844.87 211.67 M1844.87 208.059 Q1850.42 208.059 1853.6 211.67 Q1856.77 215.281 1856.77 221.67 Q1856.77 228.036 1853.6 231.67 Q1850.42 235.281 1844.87 235.281 Q1839.29 235.281 1836.12 231.67 Q1832.97 228.036 1832.97 221.67 Q1832.97 215.281 1836.12 211.67 Q1839.29 208.059 1844.87 208.059 Z" fill="#000000" fill-rule="evenodd" fill-opacity="1" /><path clip-path="url(#clip670)" d="M 0 0 M1882.78 218.961 L1882.78 234.61 L1878.53 234.61 L1878.53 219.1 Q1878.53 215.42 1877.09 213.591 Q1875.66 211.762 1872.78 211.762 Q1869.34 211.762 1867.35 213.962 Q1865.35 216.161 1865.35 219.957 L1865.35 234.61 L1861.07 234.61 L1861.07 208.684 L1865.35 208.684 L1865.35 212.712 Q1866.88 210.374 1868.94 209.216 Q1871.03 208.059 1873.73 208.059 Q1878.2 208.059 1880.49 210.837 Q1882.78 213.591 1882.78 218.961 Z" fill="#000000" fill-rule="evenodd" fill-opacity="1" /><path clip-path="url(#clip670)" d="M 0 0 M1885.1 219.725 L1897.58 219.725 L1897.58 223.522 L1885.1 223.522 L1885.1 219.725 Z" fill="#000000" fill-rule="evenodd" fill-opacity="1" /><path clip-path="url(#clip670)" d="M 0 0 M1917.07 212.665 Q1916.35 212.249 1915.49 212.063 Q1914.66 211.855 1913.64 211.855 Q1910.03 211.855 1908.09 214.216 Q1906.16 216.554 1906.16 220.952 L1906.16 234.61 L1901.88 234.61 L1901.88 208.684 L1906.16 208.684 L1906.16 212.712 Q1907.51 210.35 1909.66 209.216 Q1911.81 208.059 1914.89 208.059 Q1915.33 208.059 1915.86 208.128 Q1916.4 208.175 1917.04 208.29 L1917.07 212.665 Z" fill="#000000" fill-rule="evenodd" fill-opacity="1" /><path clip-path="url(#clip670)" d="M 0 0 M1942.67 220.582 L1942.67 222.665 L1923.09 222.665 Q1923.36 227.063 1925.72 229.378 Q1928.11 231.67 1932.34 231.67 Q1934.8 231.67 1937.09 231.068 Q1939.4 230.466 1941.67 229.262 L1941.67 233.29 Q1939.38 234.262 1936.97 234.772 Q1934.57 235.281 1932.09 235.281 Q1925.89 235.281 1922.25 231.67 Q1918.64 228.059 1918.64 221.901 Q1918.64 215.536 1922.07 211.809 Q1925.52 208.059 1931.35 208.059 Q1936.58 208.059 1939.61 211.438 Q1942.67 214.795 1942.67 220.582 M1938.41 219.332 Q1938.36 215.837 1936.44 213.753 Q1934.54 211.67 1931.4 211.67 Q1927.83 211.67 1925.68 213.684 Q1923.55 215.698 1923.22 219.355 L1938.41 219.332 Z" fill="#000000" fill-rule="evenodd" fill-opacity="1" /><path clip-path="url(#clip670)" d="M 0 0 M1947.14 208.684 L1951.4 208.684 L1951.4 235.073 Q1951.4 240.026 1949.5 242.248 Q1947.62 244.471 1943.43 244.471 L1941.81 244.471 L1941.81 240.86 L1942.95 240.86 Q1945.38 240.86 1946.26 239.725 Q1947.14 238.614 1947.14 235.073 L1947.14 208.684 M1947.14 198.591 L1951.4 198.591 L1951.4 203.985 L1947.14 203.985 L1947.14 198.591 Z" fill="#000000" fill-rule="evenodd" fill-opacity="1" /><path clip-path="url(#clip670)" d="M 0 0 M1978.04 220.582 L1978.04 222.665 L1958.46 222.665 Q1958.73 227.063 1961.09 229.378 Q1963.48 231.67 1967.71 231.67 Q1970.17 231.67 1972.46 231.068 Q1974.78 230.466 1977.04 229.262 L1977.04 233.29 Q1974.75 234.262 1972.34 234.772 Q1969.94 235.281 1967.46 235.281 Q1961.26 235.281 1957.62 231.67 Q1954.01 228.059 1954.01 221.901 Q1954.01 215.536 1957.44 211.809 Q1960.89 208.059 1966.72 208.059 Q1971.95 208.059 1974.98 211.438 Q1978.04 214.795 1978.04 220.582 M1973.78 219.332 Q1973.73 215.837 1971.81 213.753 Q1969.91 211.67 1966.77 211.67 Q1963.2 211.67 1961.05 213.684 Q1958.92 215.698 1958.59 219.355 L1973.78 219.332 Z" fill="#000000" fill-rule="evenodd" fill-opacity="1" /><path clip-path="url(#clip670)" d="M 0 0 M2001.16 209.679 L2001.16 213.661 Q1999.36 212.665 1997.53 212.179 Q1995.72 211.67 1993.87 211.67 Q1989.73 211.67 1987.44 214.309 Q1985.15 216.924 1985.15 221.67 Q1985.15 226.415 1987.44 229.054 Q1989.73 231.67 1993.87 231.67 Q1995.72 231.67 1997.53 231.184 Q1999.36 230.674 2001.16 229.679 L2001.16 233.614 Q1999.38 234.448 1997.46 234.864 Q1995.56 235.281 1993.41 235.281 Q1987.55 235.281 1984.1 231.6 Q1980.65 227.92 1980.65 221.67 Q1980.65 215.327 1984.13 211.693 Q1987.62 208.059 1993.69 208.059 Q1995.65 208.059 1997.53 208.475 Q1999.4 208.869 2001.16 209.679 Z" fill="#000000" fill-rule="evenodd" fill-opacity="1" /><path clip-path="url(#clip670)" d="M 0 0 M2009.84 201.323 L2009.84 208.684 L2018.62 208.684 L2018.62 211.994 L2009.84 211.994 L2009.84 226.068 Q2009.84 229.239 2010.7 230.142 Q2011.58 231.045 2014.24 231.045 L2018.62 231.045 L2018.62 234.61 L2014.24 234.61 Q2009.31 234.61 2007.44 232.781 Q2005.56 230.929 2005.56 226.068 L2005.56 211.994 L2002.44 211.994 L2002.44 208.684 L2005.56 208.684 L2005.56 201.323 L2009.84 201.323 Z" fill="#000000" fill-rule="evenodd" fill-opacity="1" /><path clip-path="url(#clip670)" d="M 0 0 M2023.08 208.684 L2027.34 208.684 L2027.34 234.61 L2023.08 234.61 L2023.08 208.684 M2023.08 198.591 L2027.34 198.591 L2027.34 203.985 L2023.08 203.985 L2023.08 198.591 Z" fill="#000000" fill-rule="evenodd" fill-opacity="1" /><path clip-path="url(#clip670)" d="M 0 0 M2041.86 211.67 Q2038.43 211.67 2036.44 214.355 Q2034.45 217.017 2034.45 221.67 Q2034.45 226.323 2036.42 229.008 Q2038.41 231.67 2041.86 231.67 Q2045.26 231.67 2047.25 228.985 Q2049.24 226.299 2049.24 221.67 Q2049.24 217.063 2047.25 214.378 Q2045.26 211.67 2041.86 211.67 M2041.86 208.059 Q2047.41 208.059 2050.58 211.67 Q2053.76 215.281 2053.76 221.67 Q2053.76 228.036 2050.58 231.67 Q2047.41 235.281 2041.86 235.281 Q2036.28 235.281 2033.11 231.67 Q2029.96 228.036 2029.96 221.67 Q2029.96 215.281 2033.11 211.67 Q2036.28 208.059 2041.86 208.059 Z" fill="#000000" fill-rule="evenodd" fill-opacity="1" /><path clip-path="url(#clip670)" d="M 0 0 M2079.77 218.961 L2079.77 234.61 L2075.52 234.61 L2075.52 219.1 Q2075.52 215.42 2074.08 213.591 Q2072.64 211.762 2069.77 211.762 Q2066.33 211.762 2064.33 213.962 Q2062.34 216.161 2062.34 219.957 L2062.34 234.61 L2058.06 234.61 L2058.06 208.684 L2062.34 208.684 L2062.34 212.712 Q2063.87 210.374 2065.93 209.216 Q2068.02 208.059 2070.72 208.059 Q2075.19 208.059 2077.48 210.837 Q2079.77 213.591 2079.77 218.961 Z" fill="#000000" fill-rule="evenodd" fill-opacity="1" /><path clip-path="url(#clip670)" d="M 0 0 M2114.33 212.665 Q2113.62 212.249 2112.76 212.063 Q2111.93 211.855 2110.91 211.855 Q2107.3 211.855 2105.35 214.216 Q2103.43 216.554 2103.43 220.952 L2103.43 234.61 L2099.15 234.61 L2099.15 208.684 L2103.43 208.684 L2103.43 212.712 Q2104.77 210.35 2106.93 209.216 Q2109.08 208.059 2112.16 208.059 Q2112.6 208.059 2113.13 208.128 Q2113.66 208.175 2114.31 208.29 L2114.33 212.665 Z" fill="#000000" fill-rule="evenodd" fill-opacity="1" /><path clip-path="url(#clip670)" d="M 0 0 M2139.94 220.582 L2139.94 222.665 L2120.35 222.665 Q2120.63 227.063 2122.99 229.378 Q2125.38 231.67 2129.61 231.67 Q2132.07 231.67 2134.36 231.068 Q2136.67 230.466 2138.94 229.262 L2138.94 233.29 Q2136.65 234.262 2134.24 234.772 Q2131.83 235.281 2129.36 235.281 Q2123.15 235.281 2119.52 231.67 Q2115.91 228.059 2115.91 221.901 Q2115.91 215.536 2119.33 211.809 Q2122.78 208.059 2128.62 208.059 Q2133.85 208.059 2136.88 211.438 Q2139.94 214.795 2139.94 220.582 M2135.68 219.332 Q2135.63 215.837 2133.71 213.753 Q2131.81 211.67 2128.66 211.67 Q2125.1 211.67 2122.95 213.684 Q2120.82 215.698 2120.49 219.355 L2135.68 219.332 Z" fill="#000000" fill-rule="evenodd" fill-opacity="1" /><path clip-path="url(#clip670)" d="M 0 0 M2161.46 221.346 Q2161.46 216.716 2159.54 214.17 Q2157.64 211.624 2154.2 211.624 Q2150.77 211.624 2148.85 214.17 Q2146.95 216.716 2146.95 221.346 Q2146.95 225.952 2148.85 228.498 Q2150.77 231.045 2154.2 231.045 Q2157.64 231.045 2159.54 228.498 Q2161.46 225.952 2161.46 221.346 M2165.72 231.392 Q2165.72 238.012 2162.78 241.23 Q2159.84 244.471 2153.78 244.471 Q2151.53 244.471 2149.54 244.123 Q2147.55 243.799 2145.68 243.105 L2145.68 238.961 Q2147.55 239.98 2149.38 240.466 Q2151.21 240.952 2153.11 240.952 Q2157.3 240.952 2159.38 238.753 Q2161.46 236.577 2161.46 232.156 L2161.46 230.049 Q2160.14 232.341 2158.08 233.475 Q2156.02 234.61 2153.15 234.61 Q2148.39 234.61 2145.47 230.975 Q2142.55 227.341 2142.55 221.346 Q2142.55 215.327 2145.47 211.693 Q2148.39 208.059 2153.15 208.059 Q2156.02 208.059 2158.08 209.193 Q2160.14 210.327 2161.46 212.619 L2161.46 208.684 L2165.72 208.684 L2165.72 231.392 Z" fill="#000000" fill-rule="evenodd" fill-opacity="1" /><path clip-path="url(#clip670)" d="M 0 0 M2170.19 208.684 L2174.45 208.684 L2174.45 234.61 L2170.19 234.61 L2170.19 208.684 M2170.19 198.591 L2174.45 198.591 L2174.45 203.985 L2170.19 203.985 L2170.19 198.591 Z" fill="#000000" fill-rule="evenodd" fill-opacity="1" /><path clip-path="url(#clip670)" d="M 0 0 M2188.96 211.67 Q2185.54 211.67 2183.55 214.355 Q2181.56 217.017 2181.56 221.67 Q2181.56 226.323 2183.52 229.008 Q2185.51 231.67 2188.96 231.67 Q2192.37 231.67 2194.36 228.985 Q2196.35 226.299 2196.35 221.67 Q2196.35 217.063 2194.36 214.378 Q2192.37 211.67 2188.96 211.67 M2188.96 208.059 Q2194.52 208.059 2197.69 211.67 Q2200.86 215.281 2200.86 221.67 Q2200.86 228.036 2197.69 231.67 Q2194.52 235.281 2188.96 235.281 Q2183.39 235.281 2180.21 231.67 Q2177.07 228.036 2177.07 221.67 Q2177.07 215.281 2180.21 211.67 Q2183.39 208.059 2188.96 208.059 Z" fill="#000000" fill-rule="evenodd" fill-opacity="1" /><path clip-path="url(#clip670)" d="M 0 0 M2226.88 218.961 L2226.88 234.61 L2222.62 234.61 L2222.62 219.1 Q2222.62 215.42 2221.19 213.591 Q2219.75 211.762 2216.88 211.762 Q2213.43 211.762 2211.44 213.962 Q2209.45 216.161 2209.45 219.957 L2209.45 234.61 L2205.17 234.61 L2205.17 208.684 L2209.45 208.684 L2209.45 212.712 Q2210.98 210.374 2213.04 209.216 Q2215.12 208.059 2217.83 208.059 Q2222.3 208.059 2224.59 210.837 Q2226.88 213.591 2226.88 218.961 Z" fill="#000000" fill-rule="evenodd" fill-opacity="1" /><path clip-path="url(#clip670)" d="
M1519.75 302.002 L1670.81 302.002 L1670.81 253.618 L1519.75 253.618 L1519.75 302.002  Z
  " fill="#ffa500" fill-rule="evenodd" fill-opacity="0.5"/>
<polyline clip-path="url(#clip670)" style="stroke:#ffa500; stroke-width:4; stroke-opacity:1; fill:none" points="
  1519.75,253.618 1670.81,253.618 
  "/>
<path clip-path="url(#clip670)" d="M 0 0 M1700.38 282.15 Q1700.38 286.849 1702.3 289.534 Q1704.24 292.196 1707.62 292.196 Q1711 292.196 1712.95 289.534 Q1714.89 286.849 1714.89 282.15 Q1714.89 277.451 1712.95 274.789 Q1711 272.104 1707.62 272.104 Q1704.24 272.104 1702.3 274.789 Q1700.38 277.451 1700.38 282.15 M1714.89 291.201 Q1713.55 293.515 1711.49 294.65 Q1709.45 295.761 1706.58 295.761 Q1701.88 295.761 1698.92 292.011 Q1695.98 288.261 1695.98 282.15 Q1695.98 276.039 1698.92 272.289 Q1701.88 268.539 1706.58 268.539 Q1709.45 268.539 1711.49 269.673 Q1713.55 270.784 1714.89 273.099 L1714.89 269.164 L1719.15 269.164 L1719.15 304.951 L1714.89 304.951 L1714.89 291.201 Z" fill="#000000" fill-rule="evenodd" fill-opacity="1" /><path clip-path="url(#clip670)" d="M 0 0 M1724.36 294.372 L1724.36 290.113 Q1726.12 290.946 1727.92 291.386 Q1729.73 291.826 1731.47 291.826 Q1736.1 291.826 1738.53 288.724 Q1740.98 285.599 1741.33 279.256 Q1739.98 281.247 1737.92 282.312 Q1735.86 283.377 1733.36 283.377 Q1728.18 283.377 1725.15 280.252 Q1722.14 277.104 1722.14 271.664 Q1722.14 266.34 1725.29 263.122 Q1728.43 259.905 1733.67 259.905 Q1739.66 259.905 1742.81 264.511 Q1745.98 269.094 1745.98 277.844 Q1745.98 286.016 1742.09 290.9 Q1738.23 295.761 1731.67 295.761 Q1729.92 295.761 1728.11 295.414 Q1726.3 295.066 1724.36 294.372 M1733.67 279.719 Q1736.81 279.719 1738.64 277.566 Q1740.49 275.414 1740.49 271.664 Q1740.49 267.937 1738.64 265.784 Q1736.81 263.608 1733.67 263.608 Q1730.52 263.608 1728.67 265.784 Q1726.84 267.937 1726.84 271.664 Q1726.84 275.414 1728.67 277.566 Q1730.52 279.719 1733.67 279.719 Z" fill="#000000" fill-rule="evenodd" fill-opacity="1" /><path clip-path="url(#clip670)" d="M 0 0 M1751.1 260.53 L1769.45 260.53 L1769.45 264.465 L1755.38 264.465 L1755.38 272.937 Q1756.4 272.59 1757.42 272.428 Q1758.43 272.242 1759.45 272.242 Q1765.24 272.242 1768.62 275.414 Q1772 278.585 1772 284.002 Q1772 289.58 1768.53 292.682 Q1765.05 295.761 1758.73 295.761 Q1756.56 295.761 1754.29 295.39 Q1752.04 295.02 1749.64 294.279 L1749.64 289.58 Q1751.72 290.715 1753.94 291.27 Q1756.17 291.826 1758.64 291.826 Q1762.65 291.826 1764.98 289.719 Q1767.32 287.613 1767.32 284.002 Q1767.32 280.391 1764.98 278.284 Q1762.65 276.178 1758.64 276.178 Q1756.77 276.178 1754.89 276.594 Q1753.04 277.011 1751.1 277.891 L1751.1 260.53 Z" fill="#000000" fill-rule="evenodd" fill-opacity="1" /><polyline clip-path="url(#clip670)" style="stroke:#0000ff; stroke-width:4; stroke-opacity:1; fill:none" points="
  1519.75,338.29 1670.81,338.29 
  "/>
<path clip-path="url(#clip670)" d="M 0 0 M1716.33 334.621 Q1717.92 331.75 1720.15 330.385 Q1722.37 329.019 1725.38 329.019 Q1729.43 329.019 1731.63 331.866 Q1733.83 334.69 1733.83 339.921 L1733.83 355.57 L1729.54 355.57 L1729.54 340.06 Q1729.54 336.334 1728.23 334.528 Q1726.91 332.722 1724.2 332.722 Q1720.89 332.722 1718.97 334.922 Q1717.04 337.121 1717.04 340.917 L1717.04 355.57 L1712.76 355.57 L1712.76 340.06 Q1712.76 336.31 1711.44 334.528 Q1710.12 332.722 1707.37 332.722 Q1704.11 332.722 1702.18 334.945 Q1700.26 337.144 1700.26 340.917 L1700.26 355.57 L1695.98 355.57 L1695.98 329.644 L1700.26 329.644 L1700.26 333.672 Q1701.72 331.287 1703.76 330.153 Q1705.79 329.019 1708.6 329.019 Q1711.42 329.019 1713.39 330.454 Q1715.38 331.889 1716.33 334.621 Z" fill="#000000" fill-rule="evenodd" fill-opacity="1" /><path clip-path="url(#clip670)" d="M 0 0 M1760.47 341.542 L1760.47 343.625 L1740.89 343.625 Q1741.17 348.023 1743.53 350.338 Q1745.91 352.63 1750.15 352.63 Q1752.6 352.63 1754.89 352.028 Q1757.21 351.426 1759.48 350.222 L1759.48 354.25 Q1757.18 355.222 1754.78 355.732 Q1752.37 356.241 1749.89 356.241 Q1743.69 356.241 1740.05 352.63 Q1736.44 349.019 1736.44 342.861 Q1736.44 336.496 1739.87 332.769 Q1743.32 329.019 1749.15 329.019 Q1754.38 329.019 1757.42 332.398 Q1760.47 335.755 1760.47 341.542 M1756.21 340.292 Q1756.17 336.797 1754.24 334.713 Q1752.35 332.63 1749.2 332.63 Q1745.63 332.63 1743.48 334.644 Q1741.35 336.658 1741.03 340.315 L1756.21 340.292 Z" fill="#000000" fill-rule="evenodd" fill-opacity="1" /><path clip-path="url(#clip670)" d="M 0 0 M1776.72 342.537 Q1771.56 342.537 1769.57 343.718 Q1767.58 344.898 1767.58 347.746 Q1767.58 350.014 1769.06 351.357 Q1770.56 352.676 1773.13 352.676 Q1776.67 352.676 1778.8 350.176 Q1780.96 347.653 1780.96 343.486 L1780.96 342.537 L1776.72 342.537 M1785.22 340.778 L1785.22 355.57 L1780.96 355.57 L1780.96 351.634 Q1779.5 353.995 1777.32 355.13 Q1775.15 356.241 1772 356.241 Q1768.02 356.241 1765.66 354.019 Q1763.32 351.773 1763.32 348.023 Q1763.32 343.648 1766.23 341.426 Q1769.17 339.204 1774.98 339.204 L1780.96 339.204 L1780.96 338.787 Q1780.96 335.847 1779.01 334.25 Q1777.09 332.63 1773.6 332.63 Q1771.37 332.63 1769.27 333.162 Q1767.16 333.695 1765.22 334.759 L1765.22 330.824 Q1767.55 329.922 1769.75 329.482 Q1771.95 329.019 1774.04 329.019 Q1779.66 329.019 1782.44 331.935 Q1785.22 334.852 1785.22 340.778 Z" fill="#000000" fill-rule="evenodd" fill-opacity="1" /><path clip-path="url(#clip670)" d="M 0 0 M1811.23 339.921 L1811.23 355.57 L1806.97 355.57 L1806.97 340.06 Q1806.97 336.38 1805.54 334.551 Q1804.1 332.722 1801.23 332.722 Q1797.79 332.722 1795.79 334.922 Q1793.8 337.121 1793.8 340.917 L1793.8 355.57 L1789.52 355.57 L1789.52 329.644 L1793.8 329.644 L1793.8 333.672 Q1795.33 331.334 1797.39 330.176 Q1799.48 329.019 1802.18 329.019 Q1806.65 329.019 1808.94 331.797 Q1811.23 334.551 1811.23 339.921 Z" fill="#000000" fill-rule="evenodd" fill-opacity="1" /><polyline clip-path="url(#clip670)" style="stroke:#000000; stroke-width:4; stroke-opacity:1; fill:none" points="
  1519.75,398.77 1670.81,398.77 
  "/>
<path clip-path="url(#clip670)" d="M 0 0 M1716.33 395.101 Q1717.92 392.23 1720.15 390.865 Q1722.37 389.499 1725.38 389.499 Q1729.43 389.499 1731.63 392.346 Q1733.83 395.17 1733.83 400.401 L1733.83 416.05 L1729.54 416.05 L1729.54 400.54 Q1729.54 396.814 1728.23 395.008 Q1726.91 393.202 1724.2 393.202 Q1720.89 393.202 1718.97 395.402 Q1717.04 397.601 1717.04 401.397 L1717.04 416.05 L1712.76 416.05 L1712.76 400.54 Q1712.76 396.79 1711.44 395.008 Q1710.12 393.202 1707.37 393.202 Q1704.11 393.202 1702.18 395.425 Q1700.26 397.624 1700.26 401.397 L1700.26 416.05 L1695.98 416.05 L1695.98 390.124 L1700.26 390.124 L1700.26 394.152 Q1701.72 391.767 1703.76 390.633 Q1705.79 389.499 1708.6 389.499 Q1711.42 389.499 1713.39 390.934 Q1715.38 392.369 1716.33 395.101 Z" fill="#000000" fill-rule="evenodd" fill-opacity="1" /><path clip-path="url(#clip670)" d="M 0 0 M1760.47 402.022 L1760.47 404.105 L1740.89 404.105 Q1741.17 408.503 1743.53 410.818 Q1745.91 413.11 1750.15 413.11 Q1752.6 413.11 1754.89 412.508 Q1757.21 411.906 1759.48 410.702 L1759.48 414.73 Q1757.18 415.702 1754.78 416.212 Q1752.37 416.721 1749.89 416.721 Q1743.69 416.721 1740.05 413.11 Q1736.44 409.499 1736.44 403.341 Q1736.44 396.976 1739.87 393.249 Q1743.32 389.499 1749.15 389.499 Q1754.38 389.499 1757.42 392.878 Q1760.47 396.235 1760.47 402.022 M1756.21 400.772 Q1756.17 397.277 1754.24 395.193 Q1752.35 393.11 1749.2 393.11 Q1745.63 393.11 1743.48 395.124 Q1741.35 397.138 1741.03 400.795 L1756.21 400.772 Z" fill="#000000" fill-rule="evenodd" fill-opacity="1" /><path clip-path="url(#clip670)" d="M 0 0 M1782 394.059 L1782 380.031 L1786.26 380.031 L1786.26 416.05 L1782 416.05 L1782 412.161 Q1780.66 414.475 1778.6 415.61 Q1776.56 416.721 1773.69 416.721 Q1768.99 416.721 1766.03 412.971 Q1763.09 409.221 1763.09 403.11 Q1763.09 396.999 1766.03 393.249 Q1768.99 389.499 1773.69 389.499 Q1776.56 389.499 1778.6 390.633 Q1780.66 391.744 1782 394.059 M1767.48 403.11 Q1767.48 407.809 1769.41 410.494 Q1771.35 413.156 1774.73 413.156 Q1778.11 413.156 1780.05 410.494 Q1782 407.809 1782 403.11 Q1782 398.411 1780.05 395.749 Q1778.11 393.064 1774.73 393.064 Q1771.35 393.064 1769.41 395.749 Q1767.48 398.411 1767.48 403.11 Z" fill="#000000" fill-rule="evenodd" fill-opacity="1" /><path clip-path="url(#clip670)" d="M 0 0 M1790.73 390.124 L1794.98 390.124 L1794.98 416.05 L1790.73 416.05 L1790.73 390.124 M1790.73 380.031 L1794.98 380.031 L1794.98 385.425 L1790.73 385.425 L1790.73 380.031 Z" fill="#000000" fill-rule="evenodd" fill-opacity="1" /><path clip-path="url(#clip670)" d="M 0 0 M1811.23 403.017 Q1806.07 403.017 1804.08 404.198 Q1802.09 405.378 1802.09 408.226 Q1802.09 410.494 1803.57 411.837 Q1805.08 413.156 1807.65 413.156 Q1811.19 413.156 1813.32 410.656 Q1815.47 408.133 1815.47 403.966 L1815.47 403.017 L1811.23 403.017 M1819.73 401.258 L1819.73 416.05 L1815.47 416.05 L1815.47 412.114 Q1814.01 414.475 1811.84 415.61 Q1809.66 416.721 1806.51 416.721 Q1802.53 416.721 1800.17 414.499 Q1797.83 412.253 1797.83 408.503 Q1797.83 404.128 1800.75 401.906 Q1803.69 399.684 1809.5 399.684 L1815.47 399.684 L1815.47 399.267 Q1815.47 396.327 1813.53 394.73 Q1811.6 393.11 1808.11 393.11 Q1805.89 393.11 1803.78 393.642 Q1801.67 394.175 1799.73 395.239 L1799.73 391.304 Q1802.07 390.402 1804.27 389.962 Q1806.47 389.499 1808.55 389.499 Q1814.17 389.499 1816.95 392.415 Q1819.73 395.332 1819.73 401.258 Z" fill="#000000" fill-rule="evenodd" fill-opacity="1" /><path clip-path="url(#clip670)" d="M 0 0 M1845.75 400.401 L1845.75 416.05 L1841.49 416.05 L1841.49 400.54 Q1841.49 396.86 1840.05 395.031 Q1838.62 393.202 1835.75 393.202 Q1832.3 393.202 1830.31 395.402 Q1828.32 397.601 1828.32 401.397 L1828.32 416.05 L1824.04 416.05 L1824.04 390.124 L1828.32 390.124 L1828.32 394.152 Q1829.85 391.814 1831.91 390.656 Q1833.99 389.499 1836.7 389.499 Q1841.16 389.499 1843.46 392.277 Q1845.75 395.031 1845.75 400.401 Z" fill="#000000" fill-rule="evenodd" fill-opacity="1" /></svg>
