<?xml version="1.0" encoding="utf-8"?>
<svg xmlns="http://www.w3.org/2000/svg" xmlns:xlink="http://www.w3.org/1999/xlink" width="600" height="400" viewBox="0 0 2400 1600">
<defs>
  <clipPath id="clip790">
    <rect x="0" y="0" width="2400" height="1600"/>
  </clipPath>
</defs>
<path clip-path="url(#clip790)" d="
M0 1600 L2400 1600 L2400 0 L0 0  Z
  " fill="#ffffff" fill-rule="evenodd" fill-opacity="1"/>
<defs>
  <clipPath id="clip791">
    <rect x="480" y="0" width="1681" height="1600"/>
  </clipPath>
</defs>
<path clip-path="url(#clip790)" d="
M86.9921 1521.01 L2352.76 1521.01 L2352.76 47.2441 L86.9921 47.2441  Z
  " fill="#ffffff" fill-rule="evenodd" fill-opacity="1"/>
<defs>
  <clipPath id="clip792">
    <rect x="86" y="47" width="2267" height="1475"/>
  </clipPath>
</defs>
<polyline clip-path="url(#clip792)" style="stroke:#000000; stroke-width:2; stroke-opacity:0.1; fill:none" points="
  396.712,1521.01 396.712,47.2441 
  "/>
<polyline clip-path="url(#clip792)" style="stroke:#000000; stroke-width:2; stroke-opacity:0.1; fill:none" points="
  714.369,1521.01 714.369,47.2441 
  "/>
<polyline clip-path="url(#clip792)" style="stroke:#000000; stroke-width:2; stroke-opacity:0.1; fill:none" points="
  1032.03,1521.01 1032.03,47.2441 
  "/>
<polyline clip-path="url(#clip792)" style="stroke:#000000; stroke-width:2; stroke-opacity:0.1; fill:none" points="
  1349.68,1521.01 1349.68,47.2441 
  "/>
<polyline clip-path="url(#clip792)" style="stroke:#000000; stroke-width:2; stroke-opacity:0.1; fill:none" points="
  1667.34,1521.01 1667.34,47.2441 
  "/>
<polyline clip-path="url(#clip792)" style="stroke:#000000; stroke-width:2; stroke-opacity:0.1; fill:none" points="
  1985,1521.01 1985,47.2441 
  "/>
<polyline clip-path="url(#clip792)" style="stroke:#000000; stroke-width:2; stroke-opacity:0.1; fill:none" points="
  2302.65,1521.01 2302.65,47.2441 
  "/>
<polyline clip-path="url(#clip792)" style="stroke:#000000; stroke-width:2; stroke-opacity:0.1; fill:none" points="
  86.9921,1479.3 2352.76,1479.3 
  "/>
<polyline clip-path="url(#clip792)" style="stroke:#000000; stroke-width:2; stroke-opacity:0.1; fill:none" points="
  86.9921,1183.51 2352.76,1183.51 
  "/>
<polyline clip-path="url(#clip792)" style="stroke:#000000; stroke-width:2; stroke-opacity:0.1; fill:none" points="
  86.9921,887.714 2352.76,887.714 
  "/>
<polyline clip-path="url(#clip792)" style="stroke:#000000; stroke-width:2; stroke-opacity:0.1; fill:none" points="
  86.9921,591.922 2352.76,591.922 
  "/>
<polyline clip-path="url(#clip792)" style="stroke:#000000; stroke-width:2; stroke-opacity:0.1; fill:none" points="
  86.9921,296.13 2352.76,296.13 
  "/>
<polyline clip-path="url(#clip790)" style="stroke:#000000; stroke-width:4; stroke-opacity:1; fill:none" points="
  86.9921,1521.01 2352.76,1521.01 
  "/>
<polyline clip-path="url(#clip790)" style="stroke:#000000; stroke-width:4; stroke-opacity:1; fill:none" points="
  86.9921,1521.01 86.9921,47.2441 
  "/>
<polyline clip-path="url(#clip790)" style="stroke:#000000; stroke-width:4; stroke-opacity:1; fill:none" points="
  396.712,1521.01 396.712,1503.32 
  "/>
<polyline clip-path="url(#clip790)" style="stroke:#000000; stroke-width:4; stroke-opacity:1; fill:none" points="
  714.369,1521.01 714.369,1503.32 
  "/>
<polyline clip-path="url(#clip790)" style="stroke:#000000; stroke-width:4; stroke-opacity:1; fill:none" points="
  1032.03,1521.01 1032.03,1503.32 
  "/>
<polyline clip-path="url(#clip790)" style="stroke:#000000; stroke-width:4; stroke-opacity:1; fill:none" points="
  1349.68,1521.01 1349.68,1503.32 
  "/>
<polyline clip-path="url(#clip790)" style="stroke:#000000; stroke-width:4; stroke-opacity:1; fill:none" points="
  1667.34,1521.01 1667.34,1503.32 
  "/>
<polyline clip-path="url(#clip790)" style="stroke:#000000; stroke-width:4; stroke-opacity:1; fill:none" points="
  1985,1521.01 1985,1503.32 
  "/>
<polyline clip-path="url(#clip790)" style="stroke:#000000; stroke-width:4; stroke-opacity:1; fill:none" points="
  2302.65,1521.01 2302.65,1503.32 
  "/>
<polyline clip-path="url(#clip790)" style="stroke:#000000; stroke-width:4; stroke-opacity:1; fill:none" points="
  86.9921,1479.3 114.181,1479.3 
  "/>
<polyline clip-path="url(#clip790)" style="stroke:#000000; stroke-width:4; stroke-opacity:1; fill:none" points="
  86.9921,1183.51 114.181,1183.51 
  "/>
<polyline clip-path="url(#clip790)" style="stroke:#000000; stroke-width:4; stroke-opacity:1; fill:none" points="
  86.9921,887.714 114.181,887.714 
  "/>
<polyline clip-path="url(#clip790)" style="stroke:#000000; stroke-width:4; stroke-opacity:1; fill:none" points="
  86.9921,591.922 114.181,591.922 
  "/>
<polyline clip-path="url(#clip790)" style="stroke:#000000; stroke-width:4; stroke-opacity:1; fill:none" points="
  86.9921,296.13 114.181,296.13 
  "/>
<path clip-path="url(#clip790)" d="M 0 0 M345.925 1559.6 L358.402 1559.6 L358.402 1563.39 L345.925 1563.39 L345.925 1559.6 Z" fill="#000000" fill-rule="evenodd" fill-opacity="1" /><path clip-path="url(#clip790)" d="M 0 0 M373.471 1543 Q369.86 1543 368.032 1546.56 Q366.226 1550.11 366.226 1557.23 Q366.226 1564.34 368.032 1567.91 Q369.86 1571.45 373.471 1571.45 Q377.106 1571.45 378.911 1567.91 Q380.74 1564.34 380.74 1557.23 Q380.74 1550.11 378.911 1546.56 Q377.106 1543 373.471 1543 M373.471 1539.29 Q379.282 1539.29 382.337 1543.9 Q385.416 1548.48 385.416 1557.23 Q385.416 1565.96 382.337 1570.57 Q379.282 1575.15 373.471 1575.15 Q367.661 1575.15 364.583 1570.57 Q361.527 1565.96 361.527 1557.23 Q361.527 1548.48 364.583 1543.9 Q367.661 1539.29 373.471 1539.29 Z" fill="#000000" fill-rule="evenodd" fill-opacity="1" /><path clip-path="url(#clip790)" d="M 0 0 M390.485 1568.6 L395.369 1568.6 L395.369 1574.48 L390.485 1574.48 L390.485 1568.6 Z" fill="#000000" fill-rule="evenodd" fill-opacity="1" /><path clip-path="url(#clip790)" d="M 0 0 M399.258 1539.92 L421.48 1539.92 L421.48 1541.91 L408.934 1574.48 L404.05 1574.48 L415.855 1543.86 L399.258 1543.86 L399.258 1539.92 Z" fill="#000000" fill-rule="evenodd" fill-opacity="1" /><path clip-path="url(#clip790)" d="M 0 0 M426.596 1539.92 L444.953 1539.92 L444.953 1543.86 L430.879 1543.86 L430.879 1552.33 Q431.897 1551.98 432.916 1551.82 Q433.934 1551.63 434.953 1551.63 Q440.74 1551.63 444.119 1554.8 Q447.499 1557.98 447.499 1563.39 Q447.499 1568.97 444.027 1572.07 Q440.554 1575.15 434.235 1575.15 Q432.059 1575.15 429.791 1574.78 Q427.545 1574.41 425.138 1573.67 L425.138 1568.97 Q427.221 1570.1 429.443 1570.66 Q431.666 1571.22 434.142 1571.22 Q438.147 1571.22 440.485 1569.11 Q442.823 1567 442.823 1563.39 Q442.823 1559.78 440.485 1557.67 Q438.147 1555.57 434.142 1555.57 Q432.267 1555.57 430.392 1555.98 Q428.541 1556.4 426.596 1557.28 L426.596 1539.92 Z" fill="#000000" fill-rule="evenodd" fill-opacity="1" /><path clip-path="url(#clip790)" d="M 0 0 M663.085 1559.6 L675.562 1559.6 L675.562 1563.39 L663.085 1563.39 L663.085 1559.6 Z" fill="#000000" fill-rule="evenodd" fill-opacity="1" /><path clip-path="url(#clip790)" d="M 0 0 M690.631 1543 Q687.02 1543 685.191 1546.56 Q683.386 1550.11 683.386 1557.23 Q683.386 1564.34 685.191 1567.91 Q687.02 1571.45 690.631 1571.45 Q694.265 1571.45 696.071 1567.91 Q697.899 1564.34 697.899 1557.23 Q697.899 1550.11 696.071 1546.56 Q694.265 1543 690.631 1543 M690.631 1539.29 Q696.441 1539.29 699.497 1543.9 Q702.575 1548.48 702.575 1557.23 Q702.575 1565.96 699.497 1570.57 Q696.441 1575.15 690.631 1575.15 Q684.821 1575.15 681.742 1570.57 Q678.687 1565.96 678.687 1557.23 Q678.687 1548.48 681.742 1543.9 Q684.821 1539.29 690.631 1539.29 Z" fill="#000000" fill-rule="evenodd" fill-opacity="1" /><path clip-path="url(#clip790)" d="M 0 0 M707.645 1568.6 L712.529 1568.6 L712.529 1574.48 L707.645 1574.48 L707.645 1568.6 Z" fill="#000000" fill-rule="evenodd" fill-opacity="1" /><path clip-path="url(#clip790)" d="M 0 0 M716.418 1539.92 L738.64 1539.92 L738.64 1541.91 L726.094 1574.48 L721.209 1574.48 L733.015 1543.86 L716.418 1543.86 L716.418 1539.92 Z" fill="#000000" fill-rule="evenodd" fill-opacity="1" /><path clip-path="url(#clip790)" d="M 0 0 M753.709 1543 Q750.098 1543 748.269 1546.56 Q746.464 1550.11 746.464 1557.23 Q746.464 1564.34 748.269 1567.91 Q750.098 1571.45 753.709 1571.45 Q757.343 1571.45 759.149 1567.91 Q760.978 1564.34 760.978 1557.23 Q760.978 1550.11 759.149 1546.56 Q757.343 1543 753.709 1543 M753.709 1539.29 Q759.519 1539.29 762.575 1543.9 Q765.654 1548.48 765.654 1557.23 Q765.654 1565.96 762.575 1570.57 Q759.519 1575.15 753.709 1575.15 Q747.899 1575.15 744.82 1570.57 Q741.765 1565.96 741.765 1557.23 Q741.765 1548.48 744.82 1543.9 Q747.899 1539.29 753.709 1539.29 Z" fill="#000000" fill-rule="evenodd" fill-opacity="1" /><path clip-path="url(#clip790)" d="M 0 0 M980.707 1559.6 L993.184 1559.6 L993.184 1563.39 L980.707 1563.39 L980.707 1559.6 Z" fill="#000000" fill-rule="evenodd" fill-opacity="1" /><path clip-path="url(#clip790)" d="M 0 0 M1008.25 1543 Q1004.64 1543 1002.81 1546.56 Q1001.01 1550.11 1001.01 1557.23 Q1001.01 1564.34 1002.81 1567.91 Q1004.64 1571.45 1008.25 1571.45 Q1011.89 1571.45 1013.69 1567.91 Q1015.52 1564.34 1015.52 1557.23 Q1015.52 1550.11 1013.69 1546.56 Q1011.89 1543 1008.25 1543 M1008.25 1539.29 Q1014.06 1539.29 1017.12 1543.9 Q1020.2 1548.48 1020.2 1557.23 Q1020.2 1565.96 1017.12 1570.57 Q1014.06 1575.15 1008.25 1575.15 Q1002.44 1575.15 999.364 1570.57 Q996.309 1565.96 996.309 1557.23 Q996.309 1548.48 999.364 1543.9 Q1002.44 1539.29 1008.25 1539.29 Z" fill="#000000" fill-rule="evenodd" fill-opacity="1" /><path clip-path="url(#clip790)" d="M 0 0 M1025.27 1568.6 L1030.15 1568.6 L1030.15 1574.48 L1025.27 1574.48 L1025.27 1568.6 Z" fill="#000000" fill-rule="evenodd" fill-opacity="1" /><path clip-path="url(#clip790)" d="M 0 0 M1045.8 1555.34 Q1042.65 1555.34 1040.8 1557.49 Q1038.97 1559.64 1038.97 1563.39 Q1038.97 1567.12 1040.8 1569.29 Q1042.65 1571.45 1045.8 1571.45 Q1048.95 1571.45 1050.78 1569.29 Q1052.63 1567.12 1052.63 1563.39 Q1052.63 1559.64 1050.78 1557.49 Q1048.95 1555.34 1045.8 1555.34 M1055.08 1540.68 L1055.08 1544.94 Q1053.32 1544.11 1051.52 1543.67 Q1049.73 1543.23 1047.98 1543.23 Q1043.35 1543.23 1040.89 1546.36 Q1038.46 1549.48 1038.11 1555.8 Q1039.48 1553.79 1041.54 1552.72 Q1043.6 1551.63 1046.08 1551.63 Q1051.29 1551.63 1054.29 1554.8 Q1057.33 1557.95 1057.33 1563.39 Q1057.33 1568.72 1054.18 1571.93 Q1051.03 1575.15 1045.8 1575.15 Q1039.8 1575.15 1036.63 1570.57 Q1033.46 1565.96 1033.46 1557.23 Q1033.46 1549.04 1037.35 1544.18 Q1041.24 1539.29 1047.79 1539.29 Q1049.55 1539.29 1051.33 1539.64 Q1053.14 1539.99 1055.08 1540.68 Z" fill="#000000" fill-rule="evenodd" fill-opacity="1" /><path clip-path="url(#clip790)" d="M 0 0 M1062.44 1539.92 L1080.8 1539.92 L1080.8 1543.86 L1066.73 1543.86 L1066.73 1552.33 Q1067.74 1551.98 1068.76 1551.82 Q1069.78 1551.63 1070.8 1551.63 Q1076.59 1551.63 1079.97 1554.8 Q1083.35 1557.98 1083.35 1563.39 Q1083.35 1568.97 1079.87 1572.07 Q1076.4 1575.15 1070.08 1575.15 Q1067.91 1575.15 1065.64 1574.78 Q1063.39 1574.41 1060.98 1573.67 L1060.98 1568.97 Q1063.07 1570.1 1065.29 1570.66 Q1067.51 1571.22 1069.99 1571.22 Q1073.99 1571.22 1076.33 1569.11 Q1078.67 1567 1078.67 1563.39 Q1078.67 1559.78 1076.33 1557.67 Q1073.99 1555.57 1069.99 1555.57 Q1068.11 1555.57 1066.24 1555.98 Q1064.39 1556.4 1062.44 1557.28 L1062.44 1539.92 Z" fill="#000000" fill-rule="evenodd" fill-opacity="1" /><path clip-path="url(#clip790)" d="M 0 0 M1297.87 1559.6 L1310.34 1559.6 L1310.34 1563.39 L1297.87 1563.39 L1297.87 1559.6 Z" fill="#000000" fill-rule="evenodd" fill-opacity="1" /><path clip-path="url(#clip790)" d="M 0 0 M1325.41 1543 Q1321.8 1543 1319.97 1546.56 Q1318.17 1550.11 1318.17 1557.23 Q1318.17 1564.34 1319.97 1567.91 Q1321.8 1571.45 1325.41 1571.45 Q1329.05 1571.45 1330.85 1567.91 Q1332.68 1564.34 1332.68 1557.23 Q1332.68 1550.11 1330.85 1546.56 Q1329.05 1543 1325.41 1543 M1325.41 1539.29 Q1331.22 1539.29 1334.28 1543.9 Q1337.36 1548.48 1337.36 1557.23 Q1337.36 1565.96 1334.28 1570.57 Q1331.22 1575.15 1325.41 1575.15 Q1319.6 1575.15 1316.52 1570.57 Q1313.47 1565.96 1313.47 1557.23 Q1313.47 1548.48 1316.52 1543.9 Q1319.6 1539.29 1325.41 1539.29 Z" fill="#000000" fill-rule="evenodd" fill-opacity="1" /><path clip-path="url(#clip790)" d="M 0 0 M1342.43 1568.6 L1347.31 1568.6 L1347.31 1574.48 L1342.43 1574.48 L1342.43 1568.6 Z" fill="#000000" fill-rule="evenodd" fill-opacity="1" /><path clip-path="url(#clip790)" d="M 0 0 M1362.96 1555.34 Q1359.81 1555.34 1357.96 1557.49 Q1356.13 1559.64 1356.13 1563.39 Q1356.13 1567.12 1357.96 1569.29 Q1359.81 1571.45 1362.96 1571.45 Q1366.11 1571.45 1367.94 1569.29 Q1369.79 1567.12 1369.79 1563.39 Q1369.79 1559.64 1367.94 1557.49 Q1366.11 1555.34 1362.96 1555.34 M1372.24 1540.68 L1372.24 1544.94 Q1370.48 1544.11 1368.68 1543.67 Q1366.89 1543.23 1365.13 1543.23 Q1360.51 1543.23 1358.05 1546.36 Q1355.62 1549.48 1355.27 1555.8 Q1356.64 1553.79 1358.7 1552.72 Q1360.76 1551.63 1363.24 1551.63 Q1368.44 1551.63 1371.45 1554.8 Q1374.49 1557.95 1374.49 1563.39 Q1374.49 1568.72 1371.34 1571.93 Q1368.19 1575.15 1362.96 1575.15 Q1356.96 1575.15 1353.79 1570.57 Q1350.62 1565.96 1350.62 1557.23 Q1350.62 1549.04 1354.51 1544.18 Q1358.4 1539.29 1364.95 1539.29 Q1366.71 1539.29 1368.49 1539.64 Q1370.3 1539.99 1372.24 1540.68 Z" fill="#000000" fill-rule="evenodd" fill-opacity="1" /><path clip-path="url(#clip790)" d="M 0 0 M1389.56 1543 Q1385.94 1543 1384.12 1546.56 Q1382.31 1550.11 1382.31 1557.23 Q1382.31 1564.34 1384.12 1567.91 Q1385.94 1571.45 1389.56 1571.45 Q1393.19 1571.45 1395 1567.91 Q1396.82 1564.34 1396.82 1557.23 Q1396.82 1550.11 1395 1546.56 Q1393.19 1543 1389.56 1543 M1389.56 1539.29 Q1395.37 1539.29 1398.42 1543.9 Q1401.5 1548.48 1401.5 1557.23 Q1401.5 1565.96 1398.42 1570.57 Q1395.37 1575.15 1389.56 1575.15 Q1383.75 1575.15 1380.67 1570.57 Q1377.61 1565.96 1377.61 1557.23 Q1377.61 1548.48 1380.67 1543.9 Q1383.75 1539.29 1389.56 1539.29 Z" fill="#000000" fill-rule="evenodd" fill-opacity="1" /><path clip-path="url(#clip790)" d="M 0 0 M1616.6 1559.6 L1629.08 1559.6 L1629.08 1563.39 L1616.6 1563.39 L1616.6 1559.6 Z" fill="#000000" fill-rule="evenodd" fill-opacity="1" /><path clip-path="url(#clip790)" d="M 0 0 M1644.15 1543 Q1640.54 1543 1638.71 1546.56 Q1636.9 1550.11 1636.9 1557.23 Q1636.9 1564.34 1638.71 1567.91 Q1640.54 1571.45 1644.15 1571.45 Q1647.78 1571.45 1649.59 1567.91 Q1651.41 1564.34 1651.41 1557.23 Q1651.41 1550.11 1649.59 1546.56 Q1647.78 1543 1644.15 1543 M1644.15 1539.29 Q1649.96 1539.29 1653.01 1543.9 Q1656.09 1548.48 1656.09 1557.23 Q1656.09 1565.96 1653.01 1570.57 Q1649.96 1575.15 1644.15 1575.15 Q1638.34 1575.15 1635.26 1570.57 Q1632.2 1565.96 1632.2 1557.23 Q1632.2 1548.48 1635.26 1543.9 Q1638.34 1539.29 1644.15 1539.29 Z" fill="#000000" fill-rule="evenodd" fill-opacity="1" /><path clip-path="url(#clip790)" d="M 0 0 M1661.16 1568.6 L1666.04 1568.6 L1666.04 1574.48 L1661.16 1574.48 L1661.16 1568.6 Z" fill="#000000" fill-rule="evenodd" fill-opacity="1" /><path clip-path="url(#clip790)" d="M 0 0 M1671.16 1539.92 L1689.52 1539.92 L1689.52 1543.86 L1675.44 1543.86 L1675.44 1552.33 Q1676.46 1551.98 1677.48 1551.82 Q1678.5 1551.63 1679.52 1551.63 Q1685.3 1551.63 1688.68 1554.8 Q1692.06 1557.98 1692.06 1563.39 Q1692.06 1568.97 1688.59 1572.07 Q1685.12 1575.15 1678.8 1575.15 Q1676.62 1575.15 1674.35 1574.78 Q1672.11 1574.41 1669.7 1573.67 L1669.7 1568.97 Q1671.79 1570.1 1674.01 1570.66 Q1676.23 1571.22 1678.71 1571.22 Q1682.71 1571.22 1685.05 1569.11 Q1687.39 1567 1687.39 1563.39 Q1687.39 1559.78 1685.05 1557.67 Q1682.71 1555.57 1678.71 1555.57 Q1676.83 1555.57 1674.96 1555.98 Q1673.1 1556.4 1671.16 1557.28 L1671.16 1539.92 Z" fill="#000000" fill-rule="evenodd" fill-opacity="1" /><path clip-path="url(#clip790)" d="M 0 0 M1697.18 1539.92 L1715.53 1539.92 L1715.53 1543.86 L1701.46 1543.86 L1701.46 1552.33 Q1702.48 1551.98 1703.5 1551.82 Q1704.52 1551.63 1705.53 1551.63 Q1711.32 1551.63 1714.7 1554.8 Q1718.08 1557.98 1718.08 1563.39 Q1718.08 1568.97 1714.61 1572.07 Q1711.14 1575.15 1704.82 1575.15 Q1702.64 1575.15 1700.37 1574.78 Q1698.13 1574.41 1695.72 1573.67 L1695.72 1568.97 Q1697.8 1570.1 1700.03 1570.66 Q1702.25 1571.22 1704.72 1571.22 Q1708.73 1571.22 1711.07 1569.11 Q1713.41 1567 1713.41 1563.39 Q1713.41 1559.78 1711.07 1557.67 Q1708.73 1555.57 1704.72 1555.57 Q1702.85 1555.57 1700.97 1555.98 Q1699.12 1556.4 1697.18 1557.28 L1697.18 1539.92 Z" fill="#000000" fill-rule="evenodd" fill-opacity="1" /><path clip-path="url(#clip790)" d="M 0 0 M1933.76 1559.6 L1946.24 1559.6 L1946.24 1563.39 L1933.76 1563.39 L1933.76 1559.6 Z" fill="#000000" fill-rule="evenodd" fill-opacity="1" /><path clip-path="url(#clip790)" d="M 0 0 M1961.31 1543 Q1957.69 1543 1955.87 1546.56 Q1954.06 1550.11 1954.06 1557.23 Q1954.06 1564.34 1955.87 1567.91 Q1957.69 1571.45 1961.31 1571.45 Q1964.94 1571.45 1966.75 1567.91 Q1968.57 1564.34 1968.57 1557.23 Q1968.57 1550.11 1966.75 1546.56 Q1964.94 1543 1961.31 1543 M1961.31 1539.29 Q1967.12 1539.29 1970.17 1543.9 Q1973.25 1548.48 1973.25 1557.23 Q1973.25 1565.96 1970.17 1570.57 Q1967.12 1575.15 1961.31 1575.15 Q1955.5 1575.15 1952.42 1570.57 Q1949.36 1565.96 1949.36 1557.23 Q1949.36 1548.48 1952.42 1543.9 Q1955.5 1539.29 1961.31 1539.29 Z" fill="#000000" fill-rule="evenodd" fill-opacity="1" /><path clip-path="url(#clip790)" d="M 0 0 M1978.32 1568.6 L1983.2 1568.6 L1983.2 1574.48 L1978.32 1574.48 L1978.32 1568.6 Z" fill="#000000" fill-rule="evenodd" fill-opacity="1" /><path clip-path="url(#clip790)" d="M 0 0 M1988.32 1539.92 L2006.68 1539.92 L2006.68 1543.86 L1992.6 1543.86 L1992.6 1552.33 Q1993.62 1551.98 1994.64 1551.82 Q1995.66 1551.63 1996.68 1551.63 Q2002.46 1551.63 2005.84 1554.8 Q2009.22 1557.98 2009.22 1563.39 Q2009.22 1568.97 2005.75 1572.07 Q2002.28 1575.15 1995.96 1575.15 Q1993.78 1575.15 1991.51 1574.78 Q1989.27 1574.41 1986.86 1573.67 L1986.86 1568.97 Q1988.94 1570.1 1991.17 1570.66 Q1993.39 1571.22 1995.87 1571.22 Q1999.87 1571.22 2002.21 1569.11 Q2004.55 1567 2004.55 1563.39 Q2004.55 1559.78 2002.21 1557.67 Q1999.87 1555.57 1995.87 1555.57 Q1993.99 1555.57 1992.12 1555.98 Q1990.26 1556.4 1988.32 1557.28 L1988.32 1539.92 Z" fill="#000000" fill-rule="evenodd" fill-opacity="1" /><path clip-path="url(#clip790)" d="M 0 0 M2024.29 1543 Q2020.68 1543 2018.85 1546.56 Q2017.05 1550.11 2017.05 1557.23 Q2017.05 1564.34 2018.85 1567.91 Q2020.68 1571.45 2024.29 1571.45 Q2027.93 1571.45 2029.73 1567.91 Q2031.56 1564.34 2031.56 1557.23 Q2031.56 1550.11 2029.73 1546.56 Q2027.93 1543 2024.29 1543 M2024.29 1539.29 Q2030.1 1539.29 2033.16 1543.9 Q2036.24 1548.48 2036.24 1557.23 Q2036.24 1565.96 2033.16 1570.57 Q2030.1 1575.15 2024.29 1575.15 Q2018.48 1575.15 2015.4 1570.57 Q2012.35 1565.96 2012.35 1557.23 Q2012.35 1548.48 2015.4 1543.9 Q2018.48 1539.29 2024.29 1539.29 Z" fill="#000000" fill-rule="evenodd" fill-opacity="1" /><path clip-path="url(#clip790)" d="M 0 0 M2251.17 1559.6 L2263.65 1559.6 L2263.65 1563.39 L2251.17 1563.39 L2251.17 1559.6 Z" fill="#000000" fill-rule="evenodd" fill-opacity="1" /><path clip-path="url(#clip790)" d="M 0 0 M2278.72 1543 Q2275.11 1543 2273.28 1546.56 Q2271.47 1550.11 2271.47 1557.23 Q2271.47 1564.34 2273.28 1567.91 Q2275.11 1571.45 2278.72 1571.45 Q2282.35 1571.45 2284.16 1567.91 Q2285.99 1564.34 2285.99 1557.23 Q2285.99 1550.11 2284.16 1546.56 Q2282.35 1543 2278.72 1543 M2278.72 1539.29 Q2284.53 1539.29 2287.59 1543.9 Q2290.66 1548.48 2290.66 1557.23 Q2290.66 1565.96 2287.59 1570.57 Q2284.53 1575.15 2278.72 1575.15 Q2272.91 1575.15 2269.83 1570.57 Q2266.78 1565.96 2266.78 1557.23 Q2266.78 1548.48 2269.83 1543.9 Q2272.91 1539.29 2278.72 1539.29 Z" fill="#000000" fill-rule="evenodd" fill-opacity="1" /><path clip-path="url(#clip790)" d="M 0 0 M2295.73 1568.6 L2300.62 1568.6 L2300.62 1574.48 L2295.73 1574.48 L2295.73 1568.6 Z" fill="#000000" fill-rule="evenodd" fill-opacity="1" /><path clip-path="url(#clip790)" d="M 0 0 M2318.53 1543.99 L2306.73 1562.44 L2318.53 1562.44 L2318.53 1543.99 M2317.31 1539.92 L2323.19 1539.92 L2323.19 1562.44 L2328.12 1562.44 L2328.12 1566.33 L2323.19 1566.33 L2323.19 1574.48 L2318.53 1574.48 L2318.53 1566.33 L2302.93 1566.33 L2302.93 1561.82 L2317.31 1539.92 Z" fill="#000000" fill-rule="evenodd" fill-opacity="1" /><path clip-path="url(#clip790)" d="M 0 0 M2333.23 1539.92 L2351.59 1539.92 L2351.59 1543.86 L2337.52 1543.86 L2337.52 1552.33 Q2338.53 1551.98 2339.55 1551.82 Q2340.57 1551.63 2341.59 1551.63 Q2347.38 1551.63 2350.76 1554.8 Q2354.14 1557.98 2354.14 1563.39 Q2354.14 1568.97 2350.66 1572.07 Q2347.19 1575.15 2340.87 1575.15 Q2338.7 1575.15 2336.43 1574.78 Q2334.18 1574.41 2331.78 1573.67 L2331.78 1568.97 Q2333.86 1570.1 2336.08 1570.66 Q2338.3 1571.22 2340.78 1571.22 Q2344.78 1571.22 2347.12 1569.11 Q2349.46 1567 2349.46 1563.39 Q2349.46 1559.78 2347.12 1557.67 Q2344.78 1555.57 2340.78 1555.57 Q2338.9 1555.57 2337.03 1555.98 Q2335.18 1556.4 2333.23 1557.28 L2333.23 1539.92 Z" fill="#000000" fill-rule="evenodd" fill-opacity="1" /><path clip-path="url(#clip790)" d="M 0 0 M51.0477 1465.1 Q47.4367 1465.1 45.608 1468.66 Q43.8024 1472.2 43.8024 1479.33 Q43.8024 1486.44 45.608 1490 Q47.4367 1493.55 51.0477 1493.55 Q54.682 1493.55 56.4875 1490 Q58.3162 1486.44 58.3162 1479.33 Q58.3162 1472.2 56.4875 1468.66 Q54.682 1465.1 51.0477 1465.1 M51.0477 1461.39 Q56.8579 1461.39 59.9134 1466 Q62.9921 1470.58 62.9921 1479.33 Q62.9921 1488.06 59.9134 1492.67 Q56.8579 1497.25 51.0477 1497.25 Q45.2376 1497.25 42.1589 1492.67 Q39.1034 1488.06 39.1034 1479.33 Q39.1034 1470.58 42.1589 1466 Q45.2376 1461.39 51.0477 1461.39 Z" fill="#000000" fill-rule="evenodd" fill-opacity="1" /><path clip-path="url(#clip790)" d="M 0 0 M46.6728 1196.85 L62.9921 1196.85 L62.9921 1200.79 L41.0478 1200.79 L41.0478 1196.85 Q43.7098 1194.1 48.2931 1189.47 Q52.8996 1184.81 54.0801 1183.47 Q56.3255 1180.95 57.2051 1179.21 Q58.1079 1177.45 58.1079 1175.76 Q58.1079 1173.01 56.1635 1171.27 Q54.2422 1169.54 51.1403 1169.54 Q48.9413 1169.54 46.4876 1170.3 Q44.057 1171.06 41.2793 1172.61 L41.2793 1167.89 Q44.1033 1166.76 46.557 1166.18 Q49.0107 1165.6 51.0477 1165.6 Q56.4181 1165.6 59.6125 1168.29 Q62.8069 1170.97 62.8069 1175.46 Q62.8069 1177.59 61.9968 1179.51 Q61.2097 1181.41 59.1033 1184 Q58.5246 1184.67 55.4227 1187.89 Q52.3209 1191.09 46.6728 1196.85 Z" fill="#000000" fill-rule="evenodd" fill-opacity="1" /><path clip-path="url(#clip790)" d="M 0 0 M53.4088 874.508 L41.6034 892.957 L53.4088 892.957 L53.4088 874.508 M52.182 870.434 L58.0616 870.434 L58.0616 892.957 L62.9921 892.957 L62.9921 896.846 L58.0616 896.846 L58.0616 904.994 L53.4088 904.994 L53.4088 896.846 L37.8071 896.846 L37.8071 892.332 L52.182 870.434 Z" fill="#000000" fill-rule="evenodd" fill-opacity="1" /><path clip-path="url(#clip790)" d="M 0 0 M51.4644 590.058 Q48.3163 590.058 46.4644 592.211 Q44.6357 594.364 44.6357 598.114 Q44.6357 601.841 46.4644 604.017 Q48.3163 606.17 51.4644 606.17 Q54.6125 606.17 56.4412 604.017 Q58.2931 601.841 58.2931 598.114 Q58.2931 594.364 56.4412 592.211 Q54.6125 590.058 51.4644 590.058 M60.7468 575.406 L60.7468 579.665 Q58.9875 578.832 57.182 578.392 Q55.3996 577.952 53.6403 577.952 Q49.0107 577.952 46.557 581.077 Q44.1265 584.202 43.7793 590.521 Q45.145 588.508 47.2052 587.443 Q49.2653 586.355 51.7422 586.355 Q56.9505 586.355 59.9597 589.526 Q62.9921 592.674 62.9921 598.114 Q62.9921 603.438 59.844 606.656 Q56.6959 609.873 51.4644 609.873 Q45.4691 609.873 42.2978 605.29 Q39.1265 600.683 39.1265 591.957 Q39.1265 583.762 43.0154 578.901 Q46.9042 574.017 53.4551 574.017 Q55.2144 574.017 56.9968 574.364 Q58.8023 574.711 60.7468 575.406 Z" fill="#000000" fill-rule="evenodd" fill-opacity="1" /><path clip-path="url(#clip790)" d="M 0 0 M51.1403 296.998 Q47.807 296.998 45.8857 298.78 Q43.9876 300.563 43.9876 303.688 Q43.9876 306.813 45.8857 308.595 Q47.807 310.378 51.1403 310.378 Q54.4737 310.378 56.3949 308.595 Q58.3162 306.79 58.3162 303.688 Q58.3162 300.563 56.3949 298.78 Q54.4968 296.998 51.1403 296.998 M46.4644 295.007 Q43.4552 294.267 41.7654 292.206 Q40.0987 290.146 40.0987 287.183 Q40.0987 283.04 43.0385 280.632 Q46.0015 278.225 51.1403 278.225 Q56.3023 278.225 59.2421 280.632 Q62.1819 283.04 62.1819 287.183 Q62.1819 290.146 60.4921 292.206 Q58.8255 294.267 55.8394 295.007 Q59.219 295.794 61.094 298.086 Q62.9921 300.378 62.9921 303.688 Q62.9921 308.711 59.9134 311.396 Q56.8579 314.081 51.1403 314.081 Q45.4228 314.081 42.3441 311.396 Q39.2885 308.711 39.2885 303.688 Q39.2885 300.378 41.1867 298.086 Q43.0848 295.794 46.4644 295.007 M44.7515 287.623 Q44.7515 290.308 46.4181 291.813 Q48.1079 293.318 51.1403 293.318 Q54.1496 293.318 55.8394 291.813 Q57.5523 290.308 57.5523 287.623 Q57.5523 284.938 55.8394 283.433 Q54.1496 281.929 51.1403 281.929 Q48.1079 281.929 46.4181 283.433 Q44.7515 284.938 44.7515 287.623 Z" fill="#000000" fill-rule="evenodd" fill-opacity="1" /><path clip-path="url(#clip792)" d="
M151.118 1468.55 L155.929 1467.96 L160.74 1467.43 L165.551 1466.95 L170.362 1466.52 L175.173 1466.15 L179.984 1465.83 L184.795 1465.57 L189.606 1465.35 L194.417 1465.18 
  L199.228 1465.05 L204.039 1464.96 L208.85 1464.92 L213.661 1464.91 L218.472 1464.93 L223.283 1464.98 L228.094 1465.06 L232.905 1465.17 L237.716 1465.28 L242.527 1465.41 
  L247.338 1465.54 L252.149 1465.66 L256.96 1465.77 L261.771 1465.87 L266.582 1465.94 L271.393 1465.99 L276.204 1466 L281.015 1465.99 L285.826 1465.95 L290.637 1465.89 
  L295.448 1465.79 L300.259 1465.67 L305.07 1465.53 L309.881 1465.36 L314.692 1465.17 L319.503 1464.96 L324.314 1464.72 L329.125 1464.45 L333.936 1464.16 L338.747 1463.84 
  L343.558 1463.5 L348.369 1463.13 L353.18 1462.73 L357.991 1462.31 L362.802 1461.86 L367.613 1461.38 L372.424 1460.87 L377.235 1460.3 L382.046 1459.67 L386.857 1458.95 
  L391.668 1458.12 L396.479 1457.13 L401.29 1455.95 L406.101 1454.52 L410.912 1452.81 L415.723 1450.76 L420.534 1448.33 L425.345 1445.45 L430.156 1442.1 L434.967 1438.22 
  L439.778 1433.81 L444.589 1428.83 L449.4 1423.28 L454.211 1417.15 L459.022 1410.47 L463.833 1403.23 L468.644 1395.48 L473.455 1387.22 L478.266 1378.51 L483.077 1369.36 
  L487.888 1359.81 L492.699 1349.88 L497.51 1339.6 L502.321 1328.98 L507.132 1318.03 L511.943 1306.76 L516.754 1295.18 L521.565 1283.3 L526.376 1271.12 L531.187 1258.66 
  L535.998 1245.94 L540.809 1232.99 L545.62 1219.86 L550.431 1206.59 L555.242 1193.26 L560.053 1179.94 L564.864 1166.71 L569.675 1153.66 L574.486 1140.87 L579.297 1128.43 
  L584.108 1116.38 L588.919 1104.8 L593.73 1093.7 L598.541 1083.11 L603.352 1073.03 L608.163 1063.41 L612.974 1054.23 L617.785 1045.43 L622.596 1036.91 L627.407 1028.61 
  L627.407 1479.3 L622.596 1479.3 L617.785 1479.3 L612.974 1479.3 L608.163 1479.3 L603.352 1479.3 L598.541 1479.3 L593.73 1479.3 L588.919 1479.3 L584.108 1479.3 
  L579.297 1479.3 L574.486 1479.3 L569.675 1479.3 L564.864 1479.3 L560.053 1479.3 L555.242 1479.3 L550.431 1479.3 L545.62 1479.3 L540.809 1479.3 L535.998 1479.3 
  L531.187 1479.3 L526.376 1479.3 L521.565 1479.3 L516.754 1479.3 L511.943 1479.3 L507.132 1479.3 L502.321 1479.3 L497.51 1479.3 L492.699 1479.3 L487.888 1479.3 
  L483.077 1479.3 L478.266 1479.3 L473.455 1479.3 L468.644 1479.3 L463.833 1479.3 L459.022 1479.3 L454.211 1479.3 L449.4 1479.3 L444.589 1479.3 L439.778 1479.3 
  L434.967 1479.3 L430.156 1479.3 L425.345 1479.3 L420.534 1479.3 L415.723 1479.3 L410.912 1479.3 L406.101 1479.3 L401.29 1479.3 L396.479 1479.3 L391.668 1479.3 
  L386.857 1479.3 L382.046 1479.3 L377.235 1479.3 L372.424 1479.3 L367.613 1479.3 L362.802 1479.3 L357.991 1479.3 L353.18 1479.3 L348.369 1479.3 L343.558 1479.3 
  L338.747 1479.3 L333.936 1479.3 L329.125 1479.3 L324.314 1479.3 L319.503 1479.3 L314.692 1479.3 L309.881 1479.3 L305.07 1479.3 L300.259 1479.3 L295.448 1479.3 
  L290.637 1479.3 L285.826 1479.3 L281.015 1479.3 L276.204 1479.3 L271.393 1479.3 L266.582 1479.3 L261.771 1479.3 L256.96 1479.3 L252.149 1479.3 L247.338 1479.3 
  L242.527 1479.3 L237.716 1479.3 L232.905 1479.3 L228.094 1479.3 L223.283 1479.3 L218.472 1479.3 L213.661 1479.3 L208.85 1479.3 L204.039 1479.3 L199.228 1479.3 
  L194.417 1479.3 L189.606 1479.3 L184.795 1479.3 L179.984 1479.3 L175.173 1479.3 L170.362 1479.3 L165.551 1479.3 L160.74 1479.3 L155.929 1479.3 L151.118 1479.3 
   Z
  " fill="#ffa500" fill-rule="evenodd" fill-opacity="0.5"/>
<polyline clip-path="url(#clip792)" style="stroke:#ffa500; stroke-width:4; stroke-opacity:1; fill:none" points="
  151.118,1468.55 155.929,1467.96 160.74,1467.43 165.551,1466.95 170.362,1466.52 175.173,1466.15 179.984,1465.83 184.795,1465.57 189.606,1465.35 194.417,1465.18 
  199.228,1465.05 204.039,1464.96 208.85,1464.92 213.661,1464.91 218.472,1464.93 223.283,1464.98 228.094,1465.06 232.905,1465.17 237.716,1465.28 242.527,1465.41 
  247.338,1465.54 252.149,1465.66 256.96,1465.77 261.771,1465.87 266.582,1465.94 271.393,1465.99 276.204,1466 281.015,1465.99 285.826,1465.95 290.637,1465.89 
  295.448,1465.79 300.259,1465.67 305.07,1465.53 309.881,1465.36 314.692,1465.17 319.503,1464.96 324.314,1464.72 329.125,1464.45 333.936,1464.16 338.747,1463.84 
  343.558,1463.5 348.369,1463.13 353.18,1462.73 357.991,1462.31 362.802,1461.86 367.613,1461.38 372.424,1460.87 377.235,1460.3 382.046,1459.67 386.857,1458.95 
  391.668,1458.12 396.479,1457.13 401.29,1455.95 406.101,1454.52 410.912,1452.81 415.723,1450.76 420.534,1448.33 425.345,1445.45 430.156,1442.1 434.967,1438.22 
  439.778,1433.81 444.589,1428.83 449.4,1423.28 454.211,1417.15 459.022,1410.47 463.833,1403.23 468.644,1395.48 473.455,1387.22 478.266,1378.51 483.077,1369.36 
  487.888,1359.81 492.699,1349.88 497.51,1339.6 502.321,1328.98 507.132,1318.03 511.943,1306.76 516.754,1295.18 521.565,1283.3 526.376,1271.12 531.187,1258.66 
  535.998,1245.94 540.809,1232.99 545.62,1219.86 550.431,1206.59 555.242,1193.26 560.053,1179.94 564.864,1166.71 569.675,1153.66 574.486,1140.87 579.297,1128.43 
  584.108,1116.38 588.919,1104.8 593.73,1093.7 598.541,1083.11 603.352,1073.03 608.163,1063.41 612.974,1054.23 617.785,1045.43 622.596,1036.91 627.407,1028.61 
  
  "/>
<path clip-path="url(#clip792)" d="
M627.407 1028.61 L637.019 1012.29 L646.631 995.667 L656.243 978.037 L665.855 958.887 L675.467 938.024 L685.079 915.654 L694.691 892.37 L704.303 869.011 L713.914 846.41 
  L723.526 825.109 L733.138 805.144 L742.75 785.991 L752.362 766.713 L761.974 746.272 L771.586 723.87 L781.198 699.22 L790.81 672.617 L800.422 644.822 L810.033 616.786 
  L819.645 589.355 L829.257 563.022 L838.869 537.827 L848.481 513.371 L858.093 488.94 L867.705 463.668 L877.317 436.714 L886.929 407.424 L896.541 375.478 L906.152 341.003 
  L915.764 304.641 L925.376 267.527 L934.988 231.163 L944.6 197.186 L954.212 167.091 L963.824 141.947 L973.436 122.23 L983.048 107.791 L992.66 98.0028 L1002.27 92.0276 
  L1011.88 89.134 L1021.5 88.9544 L1031.11 91.6072 L1040.72 97.6441 L1050.33 107.842 L1059.94 122.904 L1069.55 143.164 L1079.17 168.368 L1088.78 197.592 L1098.39 229.301 
  L1108 261.526 L1117.61 292.122 L1127.23 319.053 L1136.84 340.674 L1146.45 355.988 L1156.06 364.839 L1165.67 368.02 L1175.29 367.221 L1184.9 364.822 L1194.51 363.507 
  L1204.12 365.783 L1213.73 373.512 L1223.35 387.591 L1232.96 407.862 L1242.57 433.28 L1252.18 462.262 L1261.79 493.109 L1271.4 524.35 L1281.02 554.938 L1290.63 584.26 
  L1300.24 612.016 L1309.85 638.045 L1319.46 662.19 L1329.08 684.259 L1338.69 704.077 L1348.3 721.593 L1357.91 736.993 L1367.52 750.737 L1377.14 763.528 L1386.75 776.207 
  L1396.36 789.612 L1405.97 804.455 L1415.58 821.24 L1425.19 840.249 L1434.81 861.569 L1444.42 885.159 L1454.03 910.902 L1463.64 938.636 L1473.25 968.137 L1482.87 999.07 
  L1492.48 1030.93 L1502.09 1063 L1511.7 1094.42 L1521.31 1124.23 L1530.93 1151.54 L1540.54 1175.67 L1550.15 1196.24 L1559.76 1213.27 L1569.37 1227.08 L1578.99 1238.28 
  L1578.99 1479.3 L1569.37 1479.3 L1559.76 1479.3 L1550.15 1479.3 L1540.54 1479.3 L1530.93 1479.3 L1521.31 1479.3 L1511.7 1479.3 L1502.09 1479.3 L1492.48 1479.3 
  L1482.87 1479.3 L1473.25 1479.3 L1463.64 1479.3 L1454.03 1479.3 L1444.42 1479.3 L1434.81 1479.3 L1425.19 1479.3 L1415.58 1479.3 L1405.97 1479.3 L1396.36 1479.3 
  L1386.75 1479.3 L1377.14 1479.3 L1367.52 1479.3 L1357.91 1479.3 L1348.3 1479.3 L1338.69 1479.3 L1329.08 1479.3 L1319.46 1479.3 L1309.85 1479.3 L1300.24 1479.3 
  L1290.63 1479.3 L1281.02 1479.3 L1271.4 1479.3 L1261.79 1479.3 L1252.18 1479.3 L1242.57 1479.3 L1232.96 1479.3 L1223.35 1479.3 L1213.73 1479.3 L1204.12 1479.3 
  L1194.51 1479.3 L1184.9 1479.3 L1175.29 1479.3 L1165.67 1479.3 L1156.06 1479.3 L1146.45 1479.3 L1136.84 1479.3 L1127.23 1479.3 L1117.61 1479.3 L1108 1479.3 
  L1098.39 1479.3 L1088.78 1479.3 L1079.17 1479.3 L1069.55 1479.3 L1059.94 1479.3 L1050.33 1479.3 L1040.72 1479.3 L1031.11 1479.3 L1021.5 1479.3 L1011.88 1479.3 
  L1002.27 1479.3 L992.66 1479.3 L983.048 1479.3 L973.436 1479.3 L963.824 1479.3 L954.212 1479.3 L944.6 1479.3 L934.988 1479.3 L925.376 1479.3 L915.764 1479.3 
  L906.152 1479.3 L896.541 1479.3 L886.929 1479.3 L877.317 1479.3 L867.705 1479.3 L858.093 1479.3 L848.481 1479.3 L838.869 1479.3 L829.257 1479.3 L819.645 1479.3 
  L810.033 1479.3 L800.422 1479.3 L790.81 1479.3 L781.198 1479.3 L771.586 1479.3 L761.974 1479.3 L752.362 1479.3 L742.75 1479.3 L733.138 1479.3 L723.526 1479.3 
  L713.914 1479.3 L704.303 1479.3 L694.691 1479.3 L685.079 1479.3 L675.467 1479.3 L665.855 1479.3 L656.243 1479.3 L646.631 1479.3 L637.019 1479.3 L627.407 1479.3 
   Z
  " fill="#008000" fill-rule="evenodd" fill-opacity="0.5"/>
<polyline clip-path="url(#clip792)" style="stroke:#008000; stroke-width:4; stroke-opacity:1; fill:none" points="
  627.407,1028.61 637.019,1012.29 646.631,995.667 656.243,978.037 665.855,958.887 675.467,938.024 685.079,915.654 694.691,892.37 704.303,869.011 713.914,846.41 
  723.526,825.109 733.138,805.144 742.75,785.991 752.362,766.713 761.974,746.272 771.586,723.87 781.198,699.22 790.81,672.617 800.422,644.822 810.033,616.786 
  819.645,589.355 829.257,563.022 838.869,537.827 848.481,513.371 858.093,488.94 867.705,463.668 877.317,436.714 886.929,407.424 896.541,375.478 906.152,341.003 
  915.764,304.641 925.376,267.527 934.988,231.163 944.6,197.186 954.212,167.091 963.824,141.947 973.436,122.23 983.048,107.791 992.66,98.0028 1002.27,92.0276 
  1011.88,89.134 1021.5,88.9544 1031.11,91.6072 1040.72,97.6441 1050.33,107.842 1059.94,122.904 1069.55,143.164 1079.17,168.368 1088.78,197.592 1098.39,229.301 
  1108,261.526 1117.61,292.122 1127.23,319.053 1136.84,340.674 1146.45,355.988 1156.06,364.839 1165.67,368.02 1175.29,367.221 1184.9,364.822 1194.51,363.507 
  1204.12,365.783 1213.73,373.512 1223.35,387.591 1232.96,407.862 1242.57,433.28 1252.18,462.262 1261.79,493.109 1271.4,524.35 1281.02,554.938 1290.63,584.26 
  1300.24,612.016 1309.85,638.045 1319.46,662.19 1329.08,684.259 1338.69,704.077 1348.3,721.593 1357.91,736.993 1367.52,750.737 1377.14,763.528 1386.75,776.207 
  1396.36,789.612 1405.97,804.455 1415.58,821.24 1425.19,840.249 1434.81,861.569 1444.42,885.159 1454.03,910.902 1463.64,938.636 1473.25,968.137 1482.87,999.07 
  1492.48,1030.93 1502.09,1063 1511.7,1094.42 1521.31,1124.23 1530.93,1151.54 1540.54,1175.67 1550.15,1196.24 1559.76,1213.27 1569.37,1227.08 1578.99,1238.28 
  
  "/>
<path clip-path="url(#clip792)" d="
M1578.99 1238.28 L1586.15 1245.4 L1593.32 1251.84 L1600.49 1257.96 L1607.66 1264.04 L1614.83 1270.35 L1621.99 1277.05 L1629.16 1284.2 L1636.33 1291.78 L1643.5 1299.66 
  L1650.67 1307.64 L1657.83 1315.49 L1665 1322.95 L1672.17 1329.84 L1679.34 1336.03 L1686.51 1341.53 L1693.68 1346.43 L1700.84 1350.93 L1708.01 1355.27 L1715.18 1359.75 
  L1722.35 1364.6 L1729.52 1370 L1736.68 1376.02 L1743.85 1382.61 L1751.02 1389.66 L1758.19 1396.93 L1765.36 1404.18 L1772.52 1411.15 L1779.69 1417.61 L1786.86 1423.38 
  L1794.03 1428.38 L1801.2 1432.57 L1808.37 1435.99 L1815.53 1438.72 L1822.7 1440.86 L1829.87 1442.53 L1837.04 1443.84 L1844.21 1444.9 L1851.37 1445.79 L1858.54 1446.56 
  L1865.71 1447.28 L1872.88 1447.97 L1880.05 1448.64 L1887.22 1449.28 L1894.38 1449.87 L1901.55 1450.39 L1908.72 1450.78 L1915.89 1451.03 L1923.06 1451.09 L1930.22 1450.95 
  L1937.39 1450.59 L1944.56 1450.03 L1951.73 1449.29 L1958.9 1448.39 L1966.06 1447.39 L1973.23 1446.33 L1980.4 1445.28 L1987.57 1444.29 L1994.74 1443.43 L2001.91 1442.76 
  L2009.07 1442.35 L2016.24 1442.23 L2023.41 1442.44 L2030.58 1442.98 L2037.75 1443.85 L2044.91 1445 L2052.08 1446.37 L2059.25 1447.89 L2066.42 1449.44 L2073.59 1450.95 
  L2080.75 1452.32 L2087.92 1453.46 L2095.09 1454.3 L2102.26 1454.78 L2109.43 1454.87 L2116.6 1454.55 L2123.76 1453.79 L2130.93 1452.64 L2138.1 1451.11 L2145.27 1449.29 
  L2152.44 1447.25 L2159.6 1445.14 L2166.77 1443.09 L2173.94 1441.26 L2181.11 1439.82 L2188.28 1438.92 L2195.44 1438.65 L2202.61 1439.09 L2209.78 1440.24 L2216.95 1442.05 
  L2224.12 1444.41 L2231.29 1447.18 L2238.45 1450.21 L2245.62 1453.34 L2252.79 1456.42 L2259.96 1459.34 L2267.13 1462.01 L2274.29 1464.41 L2281.46 1466.52 L2288.63 1468.37 
  L2288.63 1479.3 L2281.46 1479.3 L2274.29 1479.3 L2267.13 1479.3 L2259.96 1479.3 L2252.79 1479.3 L2245.62 1479.3 L2238.45 1479.3 L2231.29 1479.3 L2224.12 1479.3 
  L2216.95 1479.3 L2209.78 1479.3 L2202.61 1479.3 L2195.44 1479.3 L2188.28 1479.3 L2181.11 1479.3 L2173.94 1479.3 L2166.77 1479.3 L2159.6 1479.3 L2152.44 1479.3 
  L2145.27 1479.3 L2138.1 1479.3 L2130.93 1479.3 L2123.76 1479.3 L2116.6 1479.3 L2109.43 1479.3 L2102.26 1479.3 L2095.09 1479.3 L2087.92 1479.3 L2080.75 1479.3 
  L2073.59 1479.3 L2066.42 1479.3 L2059.25 1479.3 L2052.08 1479.3 L2044.91 1479.3 L2037.75 1479.3 L2030.58 1479.3 L2023.41 1479.3 L2016.24 1479.3 L2009.07 1479.3 
  L2001.91 1479.3 L1994.74 1479.3 L1987.57 1479.3 L1980.4 1479.3 L1973.23 1479.3 L1966.06 1479.3 L1958.9 1479.3 L1951.73 1479.3 L1944.56 1479.3 L1937.39 1479.3 
  L1930.22 1479.3 L1923.06 1479.3 L1915.89 1479.3 L1908.72 1479.3 L1901.55 1479.3 L1894.38 1479.3 L1887.22 1479.3 L1880.05 1479.3 L1872.88 1479.3 L1865.71 1479.3 
  L1858.54 1479.3 L1851.37 1479.3 L1844.21 1479.3 L1837.04 1479.3 L1829.87 1479.3 L1822.7 1479.3 L1815.53 1479.3 L1808.37 1479.3 L1801.2 1479.3 L1794.03 1479.3 
  L1786.86 1479.3 L1779.69 1479.3 L1772.52 1479.3 L1765.36 1479.3 L1758.19 1479.3 L1751.02 1479.3 L1743.85 1479.3 L1736.68 1479.3 L1729.52 1479.3 L1722.35 1479.3 
  L1715.18 1479.3 L1708.01 1479.3 L1700.84 1479.3 L1693.68 1479.3 L1686.51 1479.3 L1679.34 1479.3 L1672.17 1479.3 L1665 1479.3 L1657.83 1479.3 L1650.67 1479.3 
  L1643.5 1479.3 L1636.33 1479.3 L1629.16 1479.3 L1621.99 1479.3 L1614.83 1479.3 L1607.66 1479.3 L1600.49 1479.3 L1593.32 1479.3 L1586.15 1479.3 L1578.99 1479.3 
   Z
  " fill="#ffa500" fill-rule="evenodd" fill-opacity="0.5"/>
<polyline clip-path="url(#clip792)" style="stroke:#ffa500; stroke-width:4; stroke-opacity:1; fill:none" points="
  1578.99,1238.28 1586.15,1245.4 1593.32,1251.84 1600.49,1257.96 1607.66,1264.04 1614.83,1270.35 1621.99,1277.05 1629.16,1284.2 1636.33,1291.78 1643.5,1299.66 
  1650.67,1307.64 1657.83,1315.49 1665,1322.95 1672.17,1329.84 1679.34,1336.03 1686.51,1341.53 1693.68,1346.43 1700.84,1350.93 1708.01,1355.27 1715.18,1359.75 
  1722.35,1364.6 1729.52,1370 1736.68,1376.02 1743.85,1382.61 1751.02,1389.66 1758.19,1396.93 1765.36,1404.18 1772.52,1411.15 1779.69,1417.61 1786.86,1423.38 
  1794.03,1428.38 1801.2,1432.57 1808.37,1435.99 1815.53,1438.72 1822.7,1440.86 1829.87,1442.53 1837.04,1443.84 1844.21,1444.9 1851.37,1445.79 1858.54,1446.56 
  1865.71,1447.28 1872.88,1447.97 1880.05,1448.64 1887.22,1449.28 1894.38,1449.87 1901.55,1450.39 1908.72,1450.78 1915.89,1451.03 1923.06,1451.09 1930.22,1450.95 
  1937.39,1450.59 1944.56,1450.03 1951.73,1449.29 1958.9,1448.39 1966.06,1447.39 1973.23,1446.33 1980.4,1445.28 1987.57,1444.29 1994.74,1443.43 2001.91,1442.76 
  2009.07,1442.35 2016.24,1442.23 2023.41,1442.44 2030.58,1442.98 2037.75,1443.85 2044.91,1445 2052.08,1446.37 2059.25,1447.89 2066.42,1449.44 2073.59,1450.95 
  2080.75,1452.32 2087.92,1453.46 2095.09,1454.3 2102.26,1454.78 2109.43,1454.87 2116.6,1454.55 2123.76,1453.79 2130.93,1452.64 2138.1,1451.11 2145.27,1449.29 
  2152.44,1447.25 2159.6,1445.14 2166.77,1443.09 2173.94,1441.26 2181.11,1439.82 2188.28,1438.92 2195.44,1438.65 2202.61,1439.09 2209.78,1440.24 2216.95,1442.05 
  2224.12,1444.41 2231.29,1447.18 2238.45,1450.21 2245.62,1453.34 2252.79,1456.42 2259.96,1459.34 2267.13,1462.01 2274.29,1464.41 2281.46,1466.52 2288.63,1468.37 
  
  "/>
<polyline clip-path="url(#clip792)" style="stroke:#0000ff; stroke-width:4; stroke-opacity:1; fill:none" points="
  1082.32,1479.3 1082.32,177.565 
  "/>
<polyline clip-path="url(#clip792)" style="stroke:#000000; stroke-width:4; stroke-opacity:1; fill:none" points="
  1060.7,1479.3 1060.7,124.315 
  "/>
<path clip-path="url(#clip790)" d="
M1494.58 459.25 L2277.23 459.25 L2277.23 96.3696 L1494.58 96.3696  Z
  " fill="#ffffff" fill-rule="evenodd" fill-opacity="1"/>
<polyline clip-path="url(#clip790)" style="stroke:#000000; stroke-width:4; stroke-opacity:1; fill:none" points="
  1494.58,459.25 2277.23,459.25 2277.23,96.3696 1494.58,96.3696 1494.58,459.25 
  "/>
<path clip-path="url(#clip790)" d="
M1519.75 181.042 L1670.81 181.042 L1670.81 132.658 L1519.75 132.658 L1519.75 181.042  Z
  " fill="#ffa500" fill-rule="evenodd" fill-opacity="0.5"/>
<polyline clip-path="url(#clip790)" style="stroke:#ffa500; stroke-width:4; stroke-opacity:1; fill:none" points="
  1519.75,132.658 1670.81,132.658 
  "/>
<path clip-path="url(#clip790)" d="M 0 0 M1700.38 161.19 Q1700.38 165.889 1702.3 168.574 Q1704.24 171.236 1707.62 171.236 Q1711 171.236 1712.95 168.574 Q1714.89 165.889 1714.89 161.19 Q1714.89 156.491 1712.95 153.829 Q1711 151.144 1707.62 151.144 Q1704.24 151.144 1702.3 153.829 Q1700.38 156.491 1700.38 161.19 M1714.89 170.241 Q1713.55 172.555 1711.49 173.69 Q1709.45 174.801 1706.58 174.801 Q1701.88 174.801 1698.92 171.051 Q1695.98 167.301 1695.98 161.19 Q1695.98 155.079 1698.92 151.329 Q1701.88 147.579 1706.58 147.579 Q1709.45 147.579 1711.49 148.713 Q1713.55 149.824 1714.89 152.139 L1714.89 148.204 L1719.15 148.204 L1719.15 183.991 L1714.89 183.991 L1714.89 170.241 Z" fill="#000000" fill-rule="evenodd" fill-opacity="1" /><path clip-path="url(#clip790)" d="M 0 0 M1734.22 142.648 Q1730.61 142.648 1728.78 146.213 Q1726.98 149.755 1726.98 156.884 Q1726.98 163.991 1728.78 167.556 Q1730.61 171.097 1734.22 171.097 Q1737.85 171.097 1739.66 167.556 Q1741.49 163.991 1741.49 156.884 Q1741.49 149.755 1739.66 146.213 Q1737.85 142.648 1734.22 142.648 M1734.22 138.945 Q1740.03 138.945 1743.09 143.551 Q1746.17 148.134 1746.17 156.884 Q1746.17 165.611 1743.09 170.218 Q1740.03 174.801 1734.22 174.801 Q1728.41 174.801 1725.33 170.218 Q1722.28 165.611 1722.28 156.884 Q1722.28 148.134 1725.33 143.551 Q1728.41 138.945 1734.22 138.945 Z" fill="#000000" fill-rule="evenodd" fill-opacity="1" /><path clip-path="url(#clip790)" d="M 0 0 M1751.28 139.57 L1769.64 139.57 L1769.64 143.505 L1755.56 143.505 L1755.56 151.977 Q1756.58 151.63 1757.6 151.468 Q1758.62 151.282 1759.64 151.282 Q1765.42 151.282 1768.8 154.454 Q1772.18 157.625 1772.18 163.042 Q1772.18 168.62 1768.71 171.722 Q1765.24 174.801 1758.92 174.801 Q1756.74 174.801 1754.48 174.43 Q1752.23 174.06 1749.82 173.319 L1749.82 168.62 Q1751.91 169.755 1754.13 170.31 Q1756.35 170.866 1758.83 170.866 Q1762.83 170.866 1765.17 168.759 Q1767.51 166.653 1767.51 163.042 Q1767.51 159.431 1765.17 157.324 Q1762.83 155.218 1758.83 155.218 Q1756.95 155.218 1755.08 155.634 Q1753.23 156.051 1751.28 156.931 L1751.28 139.57 Z" fill="#000000" fill-rule="evenodd" fill-opacity="1" /><path clip-path="url(#clip790)" d="
M1519.75 241.522 L1670.81 241.522 L1670.81 193.138 L1519.75 193.138 L1519.75 241.522  Z
  " fill="#008000" fill-rule="evenodd" fill-opacity="0.5"/>
<polyline clip-path="url(#clip790)" style="stroke:#008000; stroke-width:4; stroke-opacity:1; fill:none" points="
  1519.75,193.138 1670.81,193.138 
  "/>
<path clip-path="url(#clip790)" d="M 0 0 M1698.2 233.892 L1698.2 229.633 Q1699.96 230.466 1701.77 230.906 Q1703.57 231.346 1705.31 231.346 Q1709.94 231.346 1712.37 228.244 Q1714.82 225.119 1715.17 218.776 Q1713.83 220.767 1711.77 221.832 Q1709.71 222.897 1707.21 222.897 Q1702.02 222.897 1698.99 219.772 Q1695.98 216.624 1695.98 211.184 Q1695.98 205.86 1699.13 202.642 Q1702.28 199.425 1707.51 199.425 Q1713.5 199.425 1716.65 204.031 Q1719.82 208.614 1719.82 217.364 Q1719.82 225.536 1715.93 230.42 Q1712.07 235.281 1705.52 235.281 Q1703.76 235.281 1701.95 234.934 Q1700.15 234.586 1698.2 233.892 M1707.51 219.239 Q1710.66 219.239 1712.48 217.086 Q1714.34 214.934 1714.34 211.184 Q1714.34 207.457 1712.48 205.304 Q1710.66 203.128 1707.51 203.128 Q1704.36 203.128 1702.51 205.304 Q1700.68 207.457 1700.68 211.184 Q1700.68 214.934 1702.51 217.086 Q1704.36 219.239 1707.51 219.239 Z" fill="#000000" fill-rule="evenodd" fill-opacity="1" /><path clip-path="url(#clip790)" d="M 0 0 M1734.89 203.128 Q1731.28 203.128 1729.45 206.693 Q1727.65 210.235 1727.65 217.364 Q1727.65 224.471 1729.45 228.036 Q1731.28 231.577 1734.89 231.577 Q1738.53 231.577 1740.33 228.036 Q1742.16 224.471 1742.16 217.364 Q1742.16 210.235 1740.33 206.693 Q1738.53 203.128 1734.89 203.128 M1734.89 199.425 Q1740.7 199.425 1743.76 204.031 Q1746.84 208.614 1746.84 217.364 Q1746.84 226.091 1743.76 230.698 Q1740.7 235.281 1734.89 235.281 Q1729.08 235.281 1726 230.698 Q1722.95 226.091 1722.95 217.364 Q1722.95 208.614 1726 204.031 Q1729.08 199.425 1734.89 199.425 Z" fill="#000000" fill-rule="evenodd" fill-opacity="1" /><path clip-path="url(#clip790)" d="M 0 0 M1781.3 219.401 Q1779.29 219.401 1778.13 221.114 Q1777 222.827 1777 225.883 Q1777 228.892 1778.13 230.628 Q1779.29 232.341 1781.3 232.341 Q1783.27 232.341 1784.41 230.628 Q1785.56 228.892 1785.56 225.883 Q1785.56 222.85 1784.41 221.137 Q1783.27 219.401 1781.3 219.401 M1781.3 216.462 Q1784.96 216.462 1787.11 219.008 Q1789.27 221.554 1789.27 225.883 Q1789.27 230.211 1787.09 232.758 Q1784.94 235.281 1781.3 235.281 Q1777.6 235.281 1775.45 232.758 Q1773.29 230.211 1773.29 225.883 Q1773.29 221.531 1775.45 219.008 Q1777.62 216.462 1781.3 216.462 M1757.42 202.364 Q1755.42 202.364 1754.27 204.1 Q1753.13 205.813 1753.13 208.823 Q1753.13 211.878 1754.27 213.591 Q1755.4 215.304 1757.42 215.304 Q1759.43 215.304 1760.56 213.591 Q1761.72 211.878 1761.72 208.823 Q1761.72 205.837 1760.56 204.1 Q1759.41 202.364 1757.42 202.364 M1778.32 199.425 L1782.02 199.425 L1760.4 235.281 L1756.7 235.281 L1778.32 199.425 M1757.42 199.425 Q1761.07 199.425 1763.25 201.971 Q1765.42 204.494 1765.42 208.823 Q1765.42 213.198 1763.25 215.721 Q1761.1 218.244 1757.42 218.244 Q1753.73 218.244 1751.58 215.721 Q1749.45 213.174 1749.45 208.823 Q1749.45 204.517 1751.6 201.971 Q1753.76 199.425 1757.42 199.425 Z" fill="#000000" fill-rule="evenodd" fill-opacity="1" /><path clip-path="url(#clip790)" d="M 0 0 M1830.35 218.961 L1830.35 234.61 L1826.1 234.61 L1826.1 219.1 Q1826.1 215.42 1824.66 213.591 Q1823.22 211.762 1820.35 211.762 Q1816.91 211.762 1814.91 213.962 Q1812.92 216.161 1812.92 219.957 L1812.92 234.61 L1808.64 234.61 L1808.64 208.684 L1812.92 208.684 L1812.92 212.712 Q1814.45 210.374 1816.51 209.216 Q1818.6 208.059 1821.3 208.059 Q1825.77 208.059 1828.06 210.837 Q1830.35 213.591 1830.35 218.961 Z" fill="#000000" fill-rule="evenodd" fill-opacity="1" /><path clip-path="url(#clip790)" d="M 0 0 M1844.87 211.67 Q1841.44 211.67 1839.45 214.355 Q1837.46 217.017 1837.46 221.67 Q1837.46 226.323 1839.43 229.008 Q1841.42 231.67 1844.87 231.67 Q1848.27 231.67 1850.26 228.985 Q1852.25 226.299 1852.25 221.67 Q1852.25 217.063 1850.26 214.378 Q1848.27 211.67 1844.87 211.67 M1844.87 208.059 Q1850.42 208.059 1853.6 211.67 Q1856.77 215.281 1856.77 221.67 Q1856.77 228.036 1853.6 231.67 Q1850.42 235.281 1844.87 235.281 Q1839.29 235.281 1836.12 231.67 Q1832.97 228.036 1832.97 221.67 Q1832.97 215.281 1836.12 211.67 Q1839.29 208.059 1844.87 208.059 Z" fill="#000000" fill-rule="evenodd" fill-opacity="1" /><path clip-path="url(#clip790)" d="M 0 0 M1882.78 218.961 L1882.78 234.61 L1878.53 234.61 L1878.53 219.1 Q1878.53 215.42 1877.09 213.591 Q1875.66 211.762 1872.78 211.762 Q1869.34 211.762 1867.35 213.962 Q1865.35 216.161 1865.35 219.957 L1865.35 234.61 L1861.07 234.61 L1861.07 208.684 L1865.35 208.684 L1865.35 212.712 Q1866.88 210.374 1868.94 209.216 Q1871.03 208.059 1873.73 208.059 Q1878.2 208.059 1880.49 210.837 Q1882.78 213.591 1882.78 218.961 Z" fill="#000000" fill-rule="evenodd" fill-opacity="1" /><path clip-path="url(#clip790)" d="M 0 0 M1885.1 219.725 L1897.58 219.725 L1897.58 223.522 L1885.1 223.522 L1885.1 219.725 Z" fill="#000000" fill-rule="evenodd" fill-opacity="1" /><path clip-path="url(#clip790)" d="M 0 0 M1917.07 212.665 Q1916.35 212.249 1915.49 212.063 Q1914.66 211.855 1913.64 211.855 Q1910.03 211.855 1908.09 214.216 Q1906.16 216.554 1906.16 220.952 L1906.16 234.61 L1901.88 234.61 L1901.88 208.684 L1906.16 208.684 L1906.16 212.712 Q1907.51 210.35 1909.66 209.216 Q1911.81 208.059 1914.89 208.059 Q1915.33 208.059 1915.86 208.128 Q1916.4 208.175 1917.04 208.29 L1917.07 212.665 Z" fill="#000000" fill-rule="evenodd" fill-opacity="1" /><path clip-path="url(#clip790)" d="M 0 0 M1942.67 220.582 L1942.67 222.665 L1923.09 222.665 Q1923.36 227.063 1925.72 229.378 Q1928.11 231.67 1932.34 231.67 Q1934.8 231.67 1937.09 231.068 Q1939.4 230.466 1941.67 229.262 L1941.67 233.29 Q1939.38 234.262 1936.97 234.772 Q1934.57 235.281 1932.09 235.281 Q1925.89 235.281 1922.25 231.67 Q1918.64 228.059 1918.64 221.901 Q1918.64 215.536 1922.07 211.809 Q1925.52 208.059 1931.35 208.059 Q1936.58 208.059 1939.61 211.438 Q1942.67 214.795 1942.67 220.582 M1938.41 219.332 Q1938.36 215.837 1936.44 213.753 Q1934.54 211.67 1931.4 211.67 Q1927.83 211.67 1925.68 213.684 Q1923.55 215.698 1923.22 219.355 L1938.41 219.332 Z" fill="#000000" fill-rule="evenodd" fill-opacity="1" /><path clip-path="url(#clip790)" d="M 0 0 M1947.14 208.684 L1951.4 208.684 L1951.4 235.073 Q1951.4 240.026 1949.5 242.248 Q1947.62 244.471 1943.43 244.471 L1941.81 244.471 L1941.81 240.86 L1942.95 240.86 Q1945.38 240.86 1946.26 239.725 Q1947.14 238.614 1947.14 235.073 L1947.14 208.684 M1947.14 198.591 L1951.4 198.591 L1951.4 203.985 L1947.14 203.985 L1947.14 198.591 Z" fill="#000000" fill-rule="evenodd" fill-opacity="1" /><path clip-path="url(#clip790)" d="M 0 0 M1978.04 220.582 L1978.04 222.665 L1958.46 222.665 Q1958.73 227.063 1961.09 229.378 Q1963.48 231.67 1967.71 231.67 Q1970.17 231.67 1972.46 231.068 Q1974.78 230.466 1977.04 229.262 L1977.04 233.29 Q1974.75 234.262 1972.34 234.772 Q1969.94 235.281 1967.46 235.281 Q1961.26 235.281 1957.62 231.67 Q1954.01 228.059 1954.01 221.901 Q1954.01 215.536 1957.44 211.809 Q1960.89 208.059 1966.72 208.059 Q1971.95 208.059 1974.98 211.438 Q1978.04 214.795 1978.04 220.582 M1973.78 219.332 Q1973.73 215.837 1971.81 213.753 Q1969.91 211.67 1966.77 211.67 Q1963.2 211.67 1961.05 213.684 Q1958.92 215.698 1958.59 219.355 L1973.78 219.332 Z" fill="#000000" fill-rule="evenodd" fill-opacity="1" /><path clip-path="url(#clip790)" d="M 0 0 M2001.16 209.679 L2001.16 213.661 Q1999.36 212.665 1997.53 212.179 Q1995.72 211.67 1993.87 211.67 Q1989.73 211.67 1987.44 214.309 Q1985.15 216.924 1985.15 221.67 Q1985.15 226.415 1987.44 229.054 Q1989.73 231.67 1993.87 231.67 Q1995.72 231.67 1997.53 231.184 Q1999.36 230.674 2001.16 229.679 L2001.16 233.614 Q1999.38 234.448 1997.46 234.864 Q1995.56 235.281 1993.41 235.281 Q1987.55 235.281 1984.1 231.6 Q1980.65 227.92 1980.65 221.67 Q1980.65 215.327 1984.13 211.693 Q1987.62 208.059 1993.69 208.059 Q1995.65 208.059 1997.53 208.475 Q1999.4 208.869 2001.16 209.679 Z" fill="#000000" fill-rule="evenodd" fill-opacity="1" /><path clip-path="url(#clip790)" d="M 0 0 M2009.84 201.323 L2009.84 208.684 L2018.62 208.684 L2018.62 211.994 L2009.84 211.994 L2009.84 226.068 Q2009.84 229.239 2010.7 230.142 Q2011.58 231.045 2014.24 231.045 L2018.62 231.045 L2018.62 234.61 L2014.24 234.61 Q2009.31 234.61 2007.44 232.781 Q2005.56 230.929 2005.56 226.068 L2005.56 211.994 L2002.44 211.994 L2002.44 208.684 L2005.56 208.684 L2005.56 201.323 L2009.84 201.323 Z" fill="#000000" fill-rule="evenodd" fill-opacity="1" /><path clip-path="url(#clip790)" d="M 0 0 M2023.08 208.684 L2027.34 208.684 L2027.34 234.61 L2023.08 234.61 L2023.08 208.684 M2023.08 198.591 L2027.34 198.591 L2027.34 203.985 L2023.08 203.985 L2023.08 198.591 Z" fill="#000000" fill-rule="evenodd" fill-opacity="1" /><path clip-path="url(#clip790)" d="M 0 0 M2041.86 211.67 Q2038.43 211.67 2036.44 214.355 Q2034.45 217.017 2034.45 221.67 Q2034.45 226.323 2036.42 229.008 Q2038.41 231.67 2041.86 231.67 Q2045.26 231.67 2047.25 228.985 Q2049.24 226.299 2049.24 221.67 Q2049.24 217.063 2047.25 214.378 Q2045.26 211.67 2041.86 211.67 M2041.86 208.059 Q2047.41 208.059 2050.58 211.67 Q2053.76 215.281 2053.76 221.67 Q2053.76 228.036 2050.58 231.67 Q2047.41 235.281 2041.86 235.281 Q2036.28 235.281 2033.11 231.67 Q2029.96 228.036 2029.96 221.67 Q2029.96 215.281 2033.11 211.67 Q2036.28 208.059 2041.86 208.059 Z" fill="#000000" fill-rule="evenodd" fill-opacity="1" /><path clip-path="url(#clip790)" d="M 0 0 M2079.77 218.961 L2079.77 234.61 L2075.52 234.61 L2075.52 219.1 Q2075.52 215.42 2074.08 213.591 Q2072.64 211.762 2069.77 211.762 Q2066.33 211.762 2064.33 213.962 Q2062.34 216.161 2062.34 219.957 L2062.34 234.61 L2058.06 234.61 L2058.06 208.684 L2062.34 208.684 L2062.34 212.712 Q2063.87 210.374 2065.93 209.216 Q2068.02 208.059 2070.72 208.059 Q2075.19 208.059 2077.48 210.837 Q2079.77 213.591 2079.77 218.961 Z" fill="#000000" fill-rule="evenodd" fill-opacity="1" /><path clip-path="url(#clip790)" d="M 0 0 M2114.33 212.665 Q2113.62 212.249 2112.76 212.063 Q2111.93 211.855 2110.91 211.855 Q2107.3 211.855 2105.35 214.216 Q2103.43 216.554 2103.43 220.952 L2103.43 234.61 L2099.15 234.61 L2099.15 208.684 L2103.43 208.684 L2103.43 212.712 Q2104.77 210.35 2106.93 209.216 Q2109.08 208.059 2112.16 208.059 Q2112.6 208.059 2113.13 208.128 Q2113.66 208.175 2114.31 208.29 L2114.33 212.665 Z" fill="#000000" fill-rule="evenodd" fill-opacity="1" /><path clip-path="url(#clip790)" d="M 0 0 M2139.94 220.582 L2139.94 222.665 L2120.35 222.665 Q2120.63 227.063 2122.99 229.378 Q2125.38 231.67 2129.61 231.67 Q2132.07 231.67 2134.36 231.068 Q2136.67 230.466 2138.94 229.262 L2138.94 233.29 Q2136.65 234.262 2134.24 234.772 Q2131.83 235.281 2129.36 235.281 Q2123.15 235.281 2119.52 231.67 Q2115.91 228.059 2115.91 221.901 Q2115.91 215.536 2119.33 211.809 Q2122.78 208.059 2128.62 208.059 Q2133.85 208.059 2136.88 211.438 Q2139.94 214.795 2139.94 220.582 M2135.68 219.332 Q2135.63 215.837 2133.71 213.753 Q2131.81 211.67 2128.66 211.67 Q2125.1 211.67 2122.95 213.684 Q2120.82 215.698 2120.49 219.355 L2135.68 219.332 Z" fill="#000000" fill-rule="evenodd" fill-opacity="1" /><path clip-path="url(#clip790)" d="M 0 0 M2161.46 221.346 Q2161.46 216.716 2159.54 214.17 Q2157.64 211.624 2154.2 211.624 Q2150.77 211.624 2148.85 214.17 Q2146.95 216.716 2146.95 221.346 Q2146.95 225.952 2148.85 228.498 Q2150.77 231.045 2154.2 231.045 Q2157.64 231.045 2159.54 228.498 Q2161.46 225.952 2161.46 221.346 M2165.72 231.392 Q2165.72 238.012 2162.78 241.23 Q2159.84 244.471 2153.78 244.471 Q2151.53 244.471 2149.54 244.123 Q2147.55 243.799 2145.68 243.105 L2145.68 238.961 Q2147.55 239.98 2149.38 240.466 Q2151.21 240.952 2153.11 240.952 Q2157.3 240.952 2159.38 238.753 Q2161.46 236.577 2161.46 232.156 L2161.46 230.049 Q2160.14 232.341 2158.08 233.475 Q2156.02 234.61 2153.15 234.61 Q2148.39 234.61 2145.47 230.975 Q2142.55 227.341 2142.55 221.346 Q2142.55 215.327 2145.47 211.693 Q2148.39 208.059 2153.15 208.059 Q2156.02 208.059 2158.08 209.193 Q2160.14 210.327 2161.46 212.619 L2161.46 208.684 L2165.72 208.684 L2165.72 231.392 Z" fill="#000000" fill-rule="evenodd" fill-opacity="1" /><path clip-path="url(#clip790)" d="M 0 0 M2170.19 208.684 L2174.45 208.684 L2174.45 234.61 L2170.19 234.61 L2170.19 208.684 M2170.19 198.591 L2174.45 198.591 L2174.45 203.985 L2170.19 203.985 L2170.19 198.591 Z" fill="#000000" fill-rule="evenodd" fill-opacity="1" /><path clip-path="url(#clip790)" d="M 0 0 M2188.96 211.67 Q2185.54 211.67 2183.55 214.355 Q2181.56 217.017 2181.56 221.67 Q2181.56 226.323 2183.52 229.008 Q2185.51 231.67 2188.96 231.67 Q2192.37 231.67 2194.36 228.985 Q2196.35 226.299 2196.35 221.67 Q2196.35 217.063 2194.36 214.378 Q2192.37 211.67 2188.96 211.67 M2188.96 208.059 Q2194.52 208.059 2197.69 211.67 Q2200.86 215.281 2200.86 221.67 Q2200.86 228.036 2197.69 231.67 Q2194.52 235.281 2188.96 235.281 Q2183.39 235.281 2180.21 231.67 Q2177.07 228.036 2177.07 221.67 Q2177.07 215.281 2180.21 211.67 Q2183.39 208.059 2188.96 208.059 Z" fill="#000000" fill-rule="evenodd" fill-opacity="1" /><path clip-path="url(#clip790)" d="M 0 0 M2226.88 218.961 L2226.88 234.61 L2222.62 234.61 L2222.62 219.1 Q2222.62 215.42 2221.19 213.591 Q2219.75 211.762 2216.88 211.762 Q2213.43 211.762 2211.44 213.962 Q2209.45 216.161 2209.45 219.957 L2209.45 234.61 L2205.17 234.61 L2205.17 208.684 L2209.45 208.684 L2209.45 212.712 Q2210.98 210.374 2213.04 209.216 Q2215.12 208.059 2217.83 208.059 Q2222.3 208.059 2224.59 210.837 Q2226.88 213.591 2226.88 218.961 Z" fill="#000000" fill-rule="evenodd" fill-opacity="1" /><path clip-path="url(#clip790)" d="
M1519.75 302.002 L1670.81 302.002 L1670.81 253.618 L1519.75 253.618 L1519.75 302.002  Z
  " fill="#ffa500" fill-rule="evenodd" fill-opacity="0.5"/>
<polyline clip-path="url(#clip790)" style="stroke:#ffa500; stroke-width:4; stroke-opacity:1; fill:none" points="
  1519.75,253.618 1670.81,253.618 
  "/>
<path clip-path="url(#clip790)" d="M 0 0 M1700.38 282.15 Q1700.38 286.849 1702.3 289.534 Q1704.24 292.196 1707.62 292.196 Q1711 292.196 1712.95 289.534 Q1714.89 286.849 1714.89 282.15 Q1714.89 277.451 1712.95 274.789 Q1711 272.104 1707.62 272.104 Q1704.24 272.104 1702.3 274.789 Q1700.38 277.451 1700.38 282.15 M1714.89 291.201 Q1713.55 293.515 1711.49 294.65 Q1709.45 295.761 1706.58 295.761 Q1701.88 295.761 1698.92 292.011 Q1695.98 288.261 1695.98 282.15 Q1695.98 276.039 1698.92 272.289 Q1701.88 268.539 1706.58 268.539 Q1709.45 268.539 1711.49 269.673 Q1713.55 270.784 1714.89 273.099 L1714.89 269.164 L1719.15 269.164 L1719.15 304.951 L1714.89 304.951 L1714.89 291.201 Z" fill="#000000" fill-rule="evenodd" fill-opacity="1" /><path clip-path="url(#clip790)" d="M 0 0 M1724.36 294.372 L1724.36 290.113 Q1726.12 290.946 1727.92 291.386 Q1729.73 291.826 1731.47 291.826 Q1736.1 291.826 1738.53 288.724 Q1740.98 285.599 1741.33 279.256 Q1739.98 281.247 1737.92 282.312 Q1735.86 283.377 1733.36 283.377 Q1728.18 283.377 1725.15 280.252 Q1722.14 277.104 1722.14 271.664 Q1722.14 266.34 1725.29 263.122 Q1728.43 259.905 1733.67 259.905 Q1739.66 259.905 1742.81 264.511 Q1745.98 269.094 1745.98 277.844 Q1745.98 286.016 1742.09 290.9 Q1738.23 295.761 1731.67 295.761 Q1729.92 295.761 1728.11 295.414 Q1726.3 295.066 1724.36 294.372 M1733.67 279.719 Q1736.81 279.719 1738.64 277.566 Q1740.49 275.414 1740.49 271.664 Q1740.49 267.937 1738.64 265.784 Q1736.81 263.608 1733.67 263.608 Q1730.52 263.608 1728.67 265.784 Q1726.84 267.937 1726.84 271.664 Q1726.84 275.414 1728.67 277.566 Q1730.52 279.719 1733.67 279.719 Z" fill="#000000" fill-rule="evenodd" fill-opacity="1" /><path clip-path="url(#clip790)" d="M 0 0 M1751.1 260.53 L1769.45 260.53 L1769.45 264.465 L1755.38 264.465 L1755.38 272.937 Q1756.4 272.59 1757.42 272.428 Q1758.43 272.242 1759.45 272.242 Q1765.24 272.242 1768.62 275.414 Q1772 278.585 1772 284.002 Q1772 289.58 1768.53 292.682 Q1765.05 295.761 1758.73 295.761 Q1756.56 295.761 1754.29 295.39 Q1752.04 295.02 1749.64 294.279 L1749.64 289.58 Q1751.72 290.715 1753.94 291.27 Q1756.17 291.826 1758.64 291.826 Q1762.65 291.826 1764.98 289.719 Q1767.32 287.613 1767.32 284.002 Q1767.32 280.391 1764.98 278.284 Q1762.65 276.178 1758.64 276.178 Q1756.77 276.178 1754.89 276.594 Q1753.04 277.011 1751.1 277.891 L1751.1 260.53 Z" fill="#000000" fill-rule="evenodd" fill-opacity="1" /><polyline clip-path="url(#clip790)" style="stroke:#0000ff; stroke-width:4; stroke-opacity:1; fill:none" points="
  1519.75,338.29 1670.81,338.29 
  "/>
<path clip-path="url(#clip790)" d="M 0 0 M1716.33 334.621 Q1717.92 331.75 1720.15 330.385 Q1722.37 329.019 1725.38 329.019 Q1729.43 329.019 1731.63 331.866 Q1733.83 334.69 1733.83 339.921 L1733.83 355.57 L1729.54 355.57 L1729.54 340.06 Q1729.54 336.334 1728.23 334.528 Q1726.91 332.722 1724.2 332.722 Q1720.89 332.722 1718.97 334.922 Q1717.04 337.121 1717.04 340.917 L1717.04 355.57 L1712.76 355.57 L1712.76 340.06 Q1712.76 336.31 1711.44 334.528 Q1710.12 332.722 1707.37 332.722 Q1704.11 332.722 1702.18 334.945 Q1700.26 337.144 1700.26 340.917 L1700.26 355.57 L1695.98 355.57 L1695.98 329.644 L1700.26 329.644 L1700.26 333.672 Q1701.72 331.287 1703.76 330.153 Q1705.79 329.019 1708.6 329.019 Q1711.42 329.019 1713.39 330.454 Q1715.38 331.889 1716.33 334.621 Z" fill="#000000" fill-rule="evenodd" fill-opacity="1" /><path clip-path="url(#clip790)" d="M 0 0 M1760.47 341.542 L1760.47 343.625 L1740.89 343.625 Q1741.17 348.023 1743.53 350.338 Q1745.91 352.63 1750.15 352.63 Q1752.6 352.63 1754.89 352.028 Q1757.21 351.426 1759.48 350.222 L1759.48 354.25 Q1757.18 355.222 1754.78 355.732 Q1752.37 356.241 1749.89 356.241 Q1743.69 356.241 1740.05 352.63 Q1736.44 349.019 1736.44 342.861 Q1736.44 336.496 1739.87 332.769 Q1743.32 329.019 1749.15 329.019 Q1754.38 329.019 1757.42 332.398 Q1760.47 335.755 1760.47 341.542 M1756.21 340.292 Q1756.17 336.797 1754.24 334.713 Q1752.35 332.63 1749.2 332.63 Q1745.63 332.63 1743.48 334.644 Q1741.35 336.658 1741.03 340.315 L1756.21 340.292 Z" fill="#000000" fill-rule="evenodd" fill-opacity="1" /><path clip-path="url(#clip790)" d="M 0 0 M1776.72 342.537 Q1771.56 342.537 1769.57 343.718 Q1767.58 344.898 1767.58 347.746 Q1767.58 350.014 1769.06 351.357 Q1770.56 352.676 1773.13 352.676 Q1776.67 352.676 1778.8 350.176 Q1780.96 347.653 1780.96 343.486 L1780.96 342.537 L1776.72 342.537 M1785.22 340.778 L1785.22 355.57 L1780.96 355.57 L1780.96 351.634 Q1779.5 353.995 1777.32 355.13 Q1775.15 356.241 1772 356.241 Q1768.02 356.241 1765.66 354.019 Q1763.32 351.773 1763.32 348.023 Q1763.32 343.648 1766.23 341.426 Q1769.17 339.204 1774.98 339.204 L1780.96 339.204 L1780.96 338.787 Q1780.96 335.847 1779.01 334.25 Q1777.09 332.63 1773.6 332.63 Q1771.37 332.63 1769.27 333.162 Q1767.16 333.695 1765.22 334.759 L1765.22 330.824 Q1767.55 329.922 1769.75 329.482 Q1771.95 329.019 1774.04 329.019 Q1779.66 329.019 1782.44 331.935 Q1785.22 334.852 1785.22 340.778 Z" fill="#000000" fill-rule="evenodd" fill-opacity="1" /><path clip-path="url(#clip790)" d="M 0 0 M1811.23 339.921 L1811.23 355.57 L1806.97 355.57 L1806.97 340.06 Q1806.97 336.38 1805.54 334.551 Q1804.1 332.722 1801.23 332.722 Q1797.79 332.722 1795.79 334.922 Q1793.8 337.121 1793.8 340.917 L1793.8 355.57 L1789.52 355.57 L1789.52 329.644 L1793.8 329.644 L1793.8 333.672 Q1795.33 331.334 1797.39 330.176 Q1799.48 329.019 1802.18 329.019 Q1806.65 329.019 1808.94 331.797 Q1811.23 334.551 1811.23 339.921 Z" fill="#000000" fill-rule="evenodd" fill-opacity="1" /><polyline clip-path="url(#clip790)" style="stroke:#000000; stroke-width:4; stroke-opacity:1; fill:none" points="
  1519.75,398.77 1670.81,398.77 
  "/>
<path clip-path="url(#clip790)" d="M 0 0 M1716.33 395.101 Q1717.92 392.23 1720.15 390.865 Q1722.37 389.499 1725.38 389.499 Q1729.43 389.499 1731.63 392.346 Q1733.83 395.17 1733.83 400.401 L1733.83 416.05 L1729.54 416.05 L1729.54 400.54 Q1729.54 396.814 1728.23 395.008 Q1726.91 393.202 1724.2 393.202 Q1720.89 393.202 1718.97 395.402 Q1717.04 397.601 1717.04 401.397 L1717.04 416.05 L1712.76 416.05 L1712.76 400.54 Q1712.76 396.79 1711.44 395.008 Q1710.12 393.202 1707.37 393.202 Q1704.11 393.202 1702.18 395.425 Q1700.26 397.624 1700.26 401.397 L1700.26 416.05 L1695.98 416.05 L1695.98 390.124 L1700.26 390.124 L1700.26 394.152 Q1701.72 391.767 1703.76 390.633 Q1705.79 389.499 1708.6 389.499 Q1711.42 389.499 1713.39 390.934 Q1715.38 392.369 1716.33 395.101 Z" fill="#000000" fill-rule="evenodd" fill-opacity="1" /><path clip-path="url(#clip790)" d="M 0 0 M1760.47 402.022 L1760.47 404.105 L1740.89 404.105 Q1741.17 408.503 1743.53 410.818 Q1745.91 413.11 1750.15 413.11 Q1752.6 413.11 1754.89 412.508 Q1757.21 411.906 1759.48 410.702 L1759.48 414.73 Q1757.18 415.702 1754.78 416.212 Q1752.37 416.721 1749.89 416.721 Q1743.69 416.721 1740.05 413.11 Q1736.44 409.499 1736.44 403.341 Q1736.44 396.976 1739.87 393.249 Q1743.32 389.499 1749.15 389.499 Q1754.38 389.499 1757.42 392.878 Q1760.47 396.235 1760.47 402.022 M1756.21 400.772 Q1756.17 397.277 1754.24 395.193 Q1752.35 393.11 1749.2 393.11 Q1745.63 393.11 1743.48 395.124 Q1741.35 397.138 1741.03 400.795 L1756.21 400.772 Z" fill="#000000" fill-rule="evenodd" fill-opacity="1" /><path clip-path="url(#clip790)" d="M 0 0 M1782 394.059 L1782 380.031 L1786.26 380.031 L1786.26 416.05 L1782 416.05 L1782 412.161 Q1780.66 414.475 1778.6 415.61 Q1776.56 416.721 1773.69 416.721 Q1768.99 416.721 1766.03 412.971 Q1763.09 409.221 1763.09 403.11 Q1763.09 396.999 1766.03 393.249 Q1768.99 389.499 1773.69 389.499 Q1776.56 389.499 1778.6 390.633 Q1780.66 391.744 1782 394.059 M1767.48 403.11 Q1767.48 407.809 1769.41 410.494 Q1771.35 413.156 1774.73 413.156 Q1778.11 413.156 1780.05 410.494 Q1782 407.809 1782 403.11 Q1782 398.411 1780.05 395.749 Q1778.11 393.064 1774.73 393.064 Q1771.35 393.064 1769.41 395.749 Q1767.48 398.411 1767.48 403.11 Z" fill="#000000" fill-rule="evenodd" fill-opacity="1" /><path clip-path="url(#clip790)" d="M 0 0 M1790.73 390.124 L1794.98 390.124 L1794.98 416.05 L1790.73 416.05 L1790.73 390.124 M1790.73 380.031 L1794.98 380.031 L1794.98 385.425 L1790.73 385.425 L1790.73 380.031 Z" fill="#000000" fill-rule="evenodd" fill-opacity="1" /><path clip-path="url(#clip790)" d="M 0 0 M1811.23 403.017 Q1806.07 403.017 1804.08 404.198 Q1802.09 405.378 1802.09 408.226 Q1802.09 410.494 1803.57 411.837 Q1805.08 413.156 1807.65 413.156 Q1811.19 413.156 1813.32 410.656 Q1815.47 408.133 1815.47 403.966 L1815.47 403.017 L1811.23 403.017 M1819.73 401.258 L1819.73 416.05 L1815.47 416.05 L1815.47 412.114 Q1814.01 414.475 1811.84 415.61 Q1809.66 416.721 1806.51 416.721 Q1802.53 416.721 1800.17 414.499 Q1797.83 412.253 1797.83 408.503 Q1797.83 404.128 1800.75 401.906 Q1803.69 399.684 1809.5 399.684 L1815.47 399.684 L1815.47 399.267 Q1815.47 396.327 1813.53 394.73 Q1811.6 393.11 1808.11 393.11 Q1805.89 393.11 1803.78 393.642 Q1801.67 394.175 1799.73 395.239 L1799.73 391.304 Q1802.07 390.402 1804.27 389.962 Q1806.47 389.499 1808.55 389.499 Q1814.17 389.499 1816.95 392.415 Q1819.73 395.332 1819.73 401.258 Z" fill="#000000" fill-rule="evenodd" fill-opacity="1" /><path clip-path="url(#clip790)" d="M 0 0 M1845.75 400.401 L1845.75 416.05 L1841.49 416.05 L1841.49 400.54 Q1841.49 396.86 1840.05 395.031 Q1838.62 393.202 1835.75 393.202 Q1832.3 393.202 1830.31 395.402 Q1828.32 397.601 1828.32 401.397 L1828.32 416.05 L1824.04 416.05 L1824.04 390.124 L1828.32 390.124 L1828.32 394.152 Q1829.85 391.814 1831.91 390.656 Q1833.99 389.499 1836.7 389.499 Q1841.16 389.499 1843.46 392.277 Q1845.75 395.031 1845.75 400.401 Z" fill="#000000" fill-rule="evenodd" fill-opacity="1" /></svg>
