<?xml version="1.0" encoding="utf-8"?>
<svg xmlns="http://www.w3.org/2000/svg" xmlns:xlink="http://www.w3.org/1999/xlink" width="600" height="400" viewBox="0 0 2400 1600">
<defs>
  <clipPath id="clip760">
    <rect x="0" y="0" width="2400" height="1600"/>
  </clipPath>
</defs>
<path clip-path="url(#clip760)" d="
M0 1600 L2400 1600 L2400 0 L0 0  Z
  " fill="#ffffff" fill-rule="evenodd" fill-opacity="1"/>
<defs>
  <clipPath id="clip761">
    <rect x="480" y="0" width="1681" height="1600"/>
  </clipPath>
</defs>
<path clip-path="url(#clip760)" d="
M86.9921 1521.01 L2352.76 1521.01 L2352.76 47.2441 L86.9921 47.2441  Z
  " fill="#ffffff" fill-rule="evenodd" fill-opacity="1"/>
<defs>
  <clipPath id="clip762">
    <rect x="86" y="47" width="2267" height="1475"/>
  </clipPath>
</defs>
<polyline clip-path="url(#clip762)" style="stroke:#000000; stroke-width:2; stroke-opacity:0.1; fill:none" points="
  266.042,1521.01 266.042,47.2441 
  "/>
<polyline clip-path="url(#clip762)" style="stroke:#000000; stroke-width:2; stroke-opacity:0.1; fill:none" points="
  585.104,1521.01 585.104,47.2441 
  "/>
<polyline clip-path="url(#clip762)" style="stroke:#000000; stroke-width:2; stroke-opacity:0.1; fill:none" points="
  904.166,1521.01 904.166,47.2441 
  "/>
<polyline clip-path="url(#clip762)" style="stroke:#000000; stroke-width:2; stroke-opacity:0.1; fill:none" points="
  1223.23,1521.01 1223.23,47.2441 
  "/>
<polyline clip-path="url(#clip762)" style="stroke:#000000; stroke-width:2; stroke-opacity:0.1; fill:none" points="
  1542.29,1521.01 1542.29,47.2441 
  "/>
<polyline clip-path="url(#clip762)" style="stroke:#000000; stroke-width:2; stroke-opacity:0.1; fill:none" points="
  1861.35,1521.01 1861.35,47.2441 
  "/>
<polyline clip-path="url(#clip762)" style="stroke:#000000; stroke-width:2; stroke-opacity:0.1; fill:none" points="
  2180.42,1521.01 2180.42,47.2441 
  "/>
<polyline clip-path="url(#clip762)" style="stroke:#000000; stroke-width:2; stroke-opacity:0.1; fill:none" points="
  86.9921,1479.3 2352.76,1479.3 
  "/>
<polyline clip-path="url(#clip762)" style="stroke:#000000; stroke-width:2; stroke-opacity:0.1; fill:none" points="
  86.9921,1062.47 2352.76,1062.47 
  "/>
<polyline clip-path="url(#clip762)" style="stroke:#000000; stroke-width:2; stroke-opacity:0.1; fill:none" points="
  86.9921,645.648 2352.76,645.648 
  "/>
<polyline clip-path="url(#clip762)" style="stroke:#000000; stroke-width:2; stroke-opacity:0.1; fill:none" points="
  86.9921,228.823 2352.76,228.823 
  "/>
<polyline clip-path="url(#clip760)" style="stroke:#000000; stroke-width:4; stroke-opacity:1; fill:none" points="
  86.9921,1521.01 2352.76,1521.01 
  "/>
<polyline clip-path="url(#clip760)" style="stroke:#000000; stroke-width:4; stroke-opacity:1; fill:none" points="
  86.9921,1521.01 86.9921,47.2441 
  "/>
<polyline clip-path="url(#clip760)" style="stroke:#000000; stroke-width:4; stroke-opacity:1; fill:none" points="
  266.042,1521.01 266.042,1503.32 
  "/>
<polyline clip-path="url(#clip760)" style="stroke:#000000; stroke-width:4; stroke-opacity:1; fill:none" points="
  585.104,1521.01 585.104,1503.32 
  "/>
<polyline clip-path="url(#clip760)" style="stroke:#000000; stroke-width:4; stroke-opacity:1; fill:none" points="
  904.166,1521.01 904.166,1503.32 
  "/>
<polyline clip-path="url(#clip760)" style="stroke:#000000; stroke-width:4; stroke-opacity:1; fill:none" points="
  1223.23,1521.01 1223.23,1503.32 
  "/>
<polyline clip-path="url(#clip760)" style="stroke:#000000; stroke-width:4; stroke-opacity:1; fill:none" points="
  1542.29,1521.01 1542.29,1503.32 
  "/>
<polyline clip-path="url(#clip760)" style="stroke:#000000; stroke-width:4; stroke-opacity:1; fill:none" points="
  1861.35,1521.01 1861.35,1503.32 
  "/>
<polyline clip-path="url(#clip760)" style="stroke:#000000; stroke-width:4; stroke-opacity:1; fill:none" points="
  2180.42,1521.01 2180.42,1503.32 
  "/>
<polyline clip-path="url(#clip760)" style="stroke:#000000; stroke-width:4; stroke-opacity:1; fill:none" points="
  86.9921,1479.3 114.181,1479.3 
  "/>
<polyline clip-path="url(#clip760)" style="stroke:#000000; stroke-width:4; stroke-opacity:1; fill:none" points="
  86.9921,1062.47 114.181,1062.47 
  "/>
<polyline clip-path="url(#clip760)" style="stroke:#000000; stroke-width:4; stroke-opacity:1; fill:none" points="
  86.9921,645.648 114.181,645.648 
  "/>
<polyline clip-path="url(#clip760)" style="stroke:#000000; stroke-width:4; stroke-opacity:1; fill:none" points="
  86.9921,228.823 114.181,228.823 
  "/>
<path clip-path="url(#clip760)" d="M 0 0 M233.889 1543 Q230.278 1543 228.45 1546.56 Q226.644 1550.11 226.644 1557.23 Q226.644 1564.34 228.45 1567.91 Q230.278 1571.45 233.889 1571.45 Q237.524 1571.45 239.329 1567.91 Q241.158 1564.34 241.158 1557.23 Q241.158 1550.11 239.329 1546.56 Q237.524 1543 233.889 1543 M233.889 1539.29 Q239.7 1539.29 242.755 1543.9 Q245.834 1548.48 245.834 1557.23 Q245.834 1565.96 242.755 1570.57 Q239.7 1575.15 233.889 1575.15 Q228.079 1575.15 225.001 1570.57 Q221.945 1565.96 221.945 1557.23 Q221.945 1548.48 225.001 1543.9 Q228.079 1539.29 233.889 1539.29 Z" fill="#000000" fill-rule="evenodd" fill-opacity="1" /><path clip-path="url(#clip760)" d="M 0 0 M250.903 1568.6 L255.787 1568.6 L255.787 1574.48 L250.903 1574.48 L250.903 1568.6 Z" fill="#000000" fill-rule="evenodd" fill-opacity="1" /><path clip-path="url(#clip760)" d="M 0 0 M271.436 1555.34 Q268.287 1555.34 266.436 1557.49 Q264.607 1559.64 264.607 1563.39 Q264.607 1567.12 266.436 1569.29 Q268.287 1571.45 271.436 1571.45 Q274.584 1571.45 276.412 1569.29 Q278.264 1567.12 278.264 1563.39 Q278.264 1559.64 276.412 1557.49 Q274.584 1555.34 271.436 1555.34 M280.718 1540.68 L280.718 1544.94 Q278.959 1544.11 277.153 1543.67 Q275.371 1543.23 273.611 1543.23 Q268.982 1543.23 266.528 1546.36 Q264.098 1549.48 263.75 1555.8 Q265.116 1553.79 267.176 1552.72 Q269.236 1551.63 271.713 1551.63 Q276.922 1551.63 279.931 1554.8 Q282.963 1557.95 282.963 1563.39 Q282.963 1568.72 279.815 1571.93 Q276.667 1575.15 271.436 1575.15 Q265.44 1575.15 262.269 1570.57 Q259.098 1565.96 259.098 1557.23 Q259.098 1549.04 262.986 1544.18 Q266.875 1539.29 273.426 1539.29 Q275.185 1539.29 276.968 1539.64 Q278.773 1539.99 280.718 1540.68 Z" fill="#000000" fill-rule="evenodd" fill-opacity="1" /><path clip-path="url(#clip760)" d="M 0 0 M298.611 1555.34 Q295.463 1555.34 293.611 1557.49 Q291.783 1559.64 291.783 1563.39 Q291.783 1567.12 293.611 1569.29 Q295.463 1571.45 298.611 1571.45 Q301.759 1571.45 303.588 1569.29 Q305.44 1567.12 305.44 1563.39 Q305.44 1559.64 303.588 1557.49 Q301.759 1555.34 298.611 1555.34 M307.894 1540.68 L307.894 1544.94 Q306.134 1544.11 304.329 1543.67 Q302.546 1543.23 300.787 1543.23 Q296.158 1543.23 293.704 1546.36 Q291.273 1549.48 290.926 1555.8 Q292.292 1553.79 294.352 1552.72 Q296.412 1551.63 298.889 1551.63 Q304.097 1551.63 307.107 1554.8 Q310.139 1557.95 310.139 1563.39 Q310.139 1568.72 306.991 1571.93 Q303.843 1575.15 298.611 1575.15 Q292.616 1575.15 289.445 1570.57 Q286.273 1565.96 286.273 1557.23 Q286.273 1549.04 290.162 1544.18 Q294.051 1539.29 300.602 1539.29 Q302.361 1539.29 304.144 1539.64 Q305.949 1539.99 307.894 1540.68 Z" fill="#000000" fill-rule="evenodd" fill-opacity="1" /><path clip-path="url(#clip760)" d="M 0 0 M553.079 1543 Q549.468 1543 547.639 1546.56 Q545.834 1550.11 545.834 1557.23 Q545.834 1564.34 547.639 1567.91 Q549.468 1571.45 553.079 1571.45 Q556.713 1571.45 558.519 1567.91 Q560.347 1564.34 560.347 1557.23 Q560.347 1550.11 558.519 1546.56 Q556.713 1543 553.079 1543 M553.079 1539.29 Q558.889 1539.29 561.945 1543.9 Q565.023 1548.48 565.023 1557.23 Q565.023 1565.96 561.945 1570.57 Q558.889 1575.15 553.079 1575.15 Q547.269 1575.15 544.19 1570.57 Q541.135 1565.96 541.135 1557.23 Q541.135 1548.48 544.19 1543.9 Q547.269 1539.29 553.079 1539.29 Z" fill="#000000" fill-rule="evenodd" fill-opacity="1" /><path clip-path="url(#clip760)" d="M 0 0 M570.093 1568.6 L574.977 1568.6 L574.977 1574.48 L570.093 1574.48 L570.093 1568.6 Z" fill="#000000" fill-rule="evenodd" fill-opacity="1" /><path clip-path="url(#clip760)" d="M 0 0 M590.625 1555.34 Q587.477 1555.34 585.625 1557.49 Q583.796 1559.64 583.796 1563.39 Q583.796 1567.12 585.625 1569.29 Q587.477 1571.45 590.625 1571.45 Q593.773 1571.45 595.602 1569.29 Q597.454 1567.12 597.454 1563.39 Q597.454 1559.64 595.602 1557.49 Q593.773 1555.34 590.625 1555.34 M599.907 1540.68 L599.907 1544.94 Q598.148 1544.11 596.343 1543.67 Q594.56 1543.23 592.801 1543.23 Q588.171 1543.23 585.718 1546.36 Q583.287 1549.48 582.94 1555.8 Q584.306 1553.79 586.366 1552.72 Q588.426 1551.63 590.903 1551.63 Q596.111 1551.63 599.12 1554.8 Q602.153 1557.95 602.153 1563.39 Q602.153 1568.72 599.005 1571.93 Q595.857 1575.15 590.625 1575.15 Q584.63 1575.15 581.458 1570.57 Q578.287 1565.96 578.287 1557.23 Q578.287 1549.04 582.176 1544.18 Q586.065 1539.29 592.616 1539.29 Q594.375 1539.29 596.157 1539.64 Q597.963 1539.99 599.907 1540.68 Z" fill="#000000" fill-rule="evenodd" fill-opacity="1" /><path clip-path="url(#clip760)" d="M 0 0 M617.222 1558.07 Q613.889 1558.07 611.968 1559.85 Q610.069 1561.63 610.069 1564.76 Q610.069 1567.88 611.968 1569.67 Q613.889 1571.45 617.222 1571.45 Q620.555 1571.45 622.477 1569.67 Q624.398 1567.86 624.398 1564.76 Q624.398 1561.63 622.477 1559.85 Q620.579 1558.07 617.222 1558.07 M612.546 1556.08 Q609.537 1555.34 607.847 1553.28 Q606.181 1551.22 606.181 1548.25 Q606.181 1544.11 609.12 1541.7 Q612.083 1539.29 617.222 1539.29 Q622.384 1539.29 625.324 1541.7 Q628.264 1544.11 628.264 1548.25 Q628.264 1551.22 626.574 1553.28 Q624.907 1555.34 621.921 1556.08 Q625.301 1556.86 627.176 1559.16 Q629.074 1561.45 629.074 1564.76 Q629.074 1569.78 625.995 1572.47 Q622.94 1575.15 617.222 1575.15 Q611.505 1575.15 608.426 1572.47 Q605.37 1569.78 605.37 1564.76 Q605.37 1561.45 607.268 1559.16 Q609.167 1556.86 612.546 1556.08 M610.833 1548.69 Q610.833 1551.38 612.5 1552.88 Q614.19 1554.39 617.222 1554.39 Q620.231 1554.39 621.921 1552.88 Q623.634 1551.38 623.634 1548.69 Q623.634 1546.01 621.921 1544.5 Q620.231 1543 617.222 1543 Q614.19 1543 612.5 1544.5 Q610.833 1546.01 610.833 1548.69 Z" fill="#000000" fill-rule="evenodd" fill-opacity="1" /><path clip-path="url(#clip760)" d="M 0 0 M872.627 1543 Q869.016 1543 867.188 1546.56 Q865.382 1550.11 865.382 1557.23 Q865.382 1564.34 867.188 1567.91 Q869.016 1571.45 872.627 1571.45 Q876.262 1571.45 878.067 1567.91 Q879.896 1564.34 879.896 1557.23 Q879.896 1550.11 878.067 1546.56 Q876.262 1543 872.627 1543 M872.627 1539.29 Q878.437 1539.29 881.493 1543.9 Q884.572 1548.48 884.572 1557.23 Q884.572 1565.96 881.493 1570.57 Q878.437 1575.15 872.627 1575.15 Q866.817 1575.15 863.738 1570.57 Q860.683 1565.96 860.683 1557.23 Q860.683 1548.48 863.738 1543.9 Q866.817 1539.29 872.627 1539.29 Z" fill="#000000" fill-rule="evenodd" fill-opacity="1" /><path clip-path="url(#clip760)" d="M 0 0 M889.641 1568.6 L894.525 1568.6 L894.525 1574.48 L889.641 1574.48 L889.641 1568.6 Z" fill="#000000" fill-rule="evenodd" fill-opacity="1" /><path clip-path="url(#clip760)" d="M 0 0 M898.414 1539.92 L920.636 1539.92 L920.636 1541.91 L908.09 1574.48 L903.206 1574.48 L915.011 1543.86 L898.414 1543.86 L898.414 1539.92 Z" fill="#000000" fill-rule="evenodd" fill-opacity="1" /><path clip-path="url(#clip760)" d="M 0 0 M935.706 1543 Q932.095 1543 930.266 1546.56 Q928.46 1550.11 928.46 1557.23 Q928.46 1564.34 930.266 1567.91 Q932.095 1571.45 935.706 1571.45 Q939.34 1571.45 941.145 1567.91 Q942.974 1564.34 942.974 1557.23 Q942.974 1550.11 941.145 1546.56 Q939.34 1543 935.706 1543 M935.706 1539.29 Q941.516 1539.29 944.571 1543.9 Q947.65 1548.48 947.65 1557.23 Q947.65 1565.96 944.571 1570.57 Q941.516 1575.15 935.706 1575.15 Q929.896 1575.15 926.817 1570.57 Q923.761 1565.96 923.761 1557.23 Q923.761 1548.48 926.817 1543.9 Q929.896 1539.29 935.706 1539.29 Z" fill="#000000" fill-rule="evenodd" fill-opacity="1" /><path clip-path="url(#clip760)" d="M 0 0 M1192.49 1543 Q1188.88 1543 1187.05 1546.56 Q1185.24 1550.11 1185.24 1557.23 Q1185.24 1564.34 1187.05 1567.91 Q1188.88 1571.45 1192.49 1571.45 Q1196.12 1571.45 1197.93 1567.91 Q1199.76 1564.34 1199.76 1557.23 Q1199.76 1550.11 1197.93 1546.56 Q1196.12 1543 1192.49 1543 M1192.49 1539.29 Q1198.3 1539.29 1201.35 1543.9 Q1204.43 1548.48 1204.43 1557.23 Q1204.43 1565.96 1201.35 1570.57 Q1198.3 1575.15 1192.49 1575.15 Q1186.68 1575.15 1183.6 1570.57 Q1180.54 1565.96 1180.54 1557.23 Q1180.54 1548.48 1183.6 1543.9 Q1186.68 1539.29 1192.49 1539.29 Z" fill="#000000" fill-rule="evenodd" fill-opacity="1" /><path clip-path="url(#clip760)" d="M 0 0 M1209.5 1568.6 L1214.39 1568.6 L1214.39 1574.48 L1209.5 1574.48 L1209.5 1568.6 Z" fill="#000000" fill-rule="evenodd" fill-opacity="1" /><path clip-path="url(#clip760)" d="M 0 0 M1218.28 1539.92 L1240.5 1539.92 L1240.5 1541.91 L1227.95 1574.48 L1223.07 1574.48 L1234.87 1543.86 L1218.28 1543.86 L1218.28 1539.92 Z" fill="#000000" fill-rule="evenodd" fill-opacity="1" /><path clip-path="url(#clip760)" d="M 0 0 M1249.59 1570.54 L1265.91 1570.54 L1265.91 1574.48 L1243.97 1574.48 L1243.97 1570.54 Q1246.63 1567.79 1251.21 1563.16 Q1255.82 1558.51 1257 1557.17 Q1259.25 1554.64 1260.13 1552.91 Q1261.03 1551.15 1261.03 1549.46 Q1261.03 1546.7 1259.08 1544.97 Q1257.16 1543.23 1254.06 1543.23 Q1251.86 1543.23 1249.41 1543.99 Q1246.98 1544.76 1244.2 1546.31 L1244.2 1541.59 Q1247.02 1540.45 1249.48 1539.87 Q1251.93 1539.29 1253.97 1539.29 Q1259.34 1539.29 1262.53 1541.98 Q1265.73 1544.67 1265.73 1549.16 Q1265.73 1551.29 1264.92 1553.21 Q1264.13 1555.1 1262.02 1557.7 Q1261.45 1558.37 1258.34 1561.59 Q1255.24 1564.78 1249.59 1570.54 Z" fill="#000000" fill-rule="evenodd" fill-opacity="1" /><path clip-path="url(#clip760)" d="M 0 0 M1510.51 1543 Q1506.9 1543 1505.07 1546.56 Q1503.26 1550.11 1503.26 1557.23 Q1503.26 1564.34 1505.07 1567.91 Q1506.9 1571.45 1510.51 1571.45 Q1514.14 1571.45 1515.95 1567.91 Q1517.78 1564.34 1517.78 1557.23 Q1517.78 1550.11 1515.95 1546.56 Q1514.14 1543 1510.51 1543 M1510.51 1539.29 Q1516.32 1539.29 1519.37 1543.9 Q1522.45 1548.48 1522.45 1557.23 Q1522.45 1565.96 1519.37 1570.57 Q1516.32 1575.15 1510.51 1575.15 Q1504.7 1575.15 1501.62 1570.57 Q1498.56 1565.96 1498.56 1557.23 Q1498.56 1548.48 1501.62 1543.9 Q1504.7 1539.29 1510.51 1539.29 Z" fill="#000000" fill-rule="evenodd" fill-opacity="1" /><path clip-path="url(#clip760)" d="M 0 0 M1527.52 1568.6 L1532.41 1568.6 L1532.41 1574.48 L1527.52 1574.48 L1527.52 1568.6 Z" fill="#000000" fill-rule="evenodd" fill-opacity="1" /><path clip-path="url(#clip760)" d="M 0 0 M1536.3 1539.92 L1558.52 1539.92 L1558.52 1541.91 L1545.97 1574.48 L1541.09 1574.48 L1552.89 1543.86 L1536.3 1543.86 L1536.3 1539.92 Z" fill="#000000" fill-rule="evenodd" fill-opacity="1" /><path clip-path="url(#clip760)" d="M 0 0 M1576.43 1543.99 L1564.63 1562.44 L1576.43 1562.44 L1576.43 1543.99 M1575.21 1539.92 L1581.09 1539.92 L1581.09 1562.44 L1586.02 1562.44 L1586.02 1566.33 L1581.09 1566.33 L1581.09 1574.48 L1576.43 1574.48 L1576.43 1566.33 L1560.83 1566.33 L1560.83 1561.82 L1575.21 1539.92 Z" fill="#000000" fill-rule="evenodd" fill-opacity="1" /><path clip-path="url(#clip760)" d="M 0 0 M1829.73 1543 Q1826.12 1543 1824.29 1546.56 Q1822.49 1550.11 1822.49 1557.23 Q1822.49 1564.34 1824.29 1567.91 Q1826.12 1571.45 1829.73 1571.45 Q1833.37 1571.45 1835.17 1567.91 Q1837 1564.34 1837 1557.23 Q1837 1550.11 1835.17 1546.56 Q1833.37 1543 1829.73 1543 M1829.73 1539.29 Q1835.54 1539.29 1838.6 1543.9 Q1841.68 1548.48 1841.68 1557.23 Q1841.68 1565.96 1838.6 1570.57 Q1835.54 1575.15 1829.73 1575.15 Q1823.92 1575.15 1820.84 1570.57 Q1817.79 1565.96 1817.79 1557.23 Q1817.79 1548.48 1820.84 1543.9 Q1823.92 1539.29 1829.73 1539.29 Z" fill="#000000" fill-rule="evenodd" fill-opacity="1" /><path clip-path="url(#clip760)" d="M 0 0 M1846.75 1568.6 L1851.63 1568.6 L1851.63 1574.48 L1846.75 1574.48 L1846.75 1568.6 Z" fill="#000000" fill-rule="evenodd" fill-opacity="1" /><path clip-path="url(#clip760)" d="M 0 0 M1855.52 1539.92 L1877.74 1539.92 L1877.74 1541.91 L1865.2 1574.48 L1860.31 1574.48 L1872.12 1543.86 L1855.52 1543.86 L1855.52 1539.92 Z" fill="#000000" fill-rule="evenodd" fill-opacity="1" /><path clip-path="url(#clip760)" d="M 0 0 M1893.39 1555.34 Q1890.24 1555.34 1888.39 1557.49 Q1886.56 1559.64 1886.56 1563.39 Q1886.56 1567.12 1888.39 1569.29 Q1890.24 1571.45 1893.39 1571.45 Q1896.54 1571.45 1898.37 1569.29 Q1900.22 1567.12 1900.22 1563.39 Q1900.22 1559.64 1898.37 1557.49 Q1896.54 1555.34 1893.39 1555.34 M1902.67 1540.68 L1902.67 1544.94 Q1900.91 1544.11 1899.11 1543.67 Q1897.33 1543.23 1895.57 1543.23 Q1890.94 1543.23 1888.48 1546.36 Q1886.05 1549.48 1885.7 1555.8 Q1887.07 1553.79 1889.13 1552.72 Q1891.19 1551.63 1893.67 1551.63 Q1898.88 1551.63 1901.89 1554.8 Q1904.92 1557.95 1904.92 1563.39 Q1904.92 1568.72 1901.77 1571.93 Q1898.62 1575.15 1893.39 1575.15 Q1887.39 1575.15 1884.22 1570.57 Q1881.05 1565.96 1881.05 1557.23 Q1881.05 1549.04 1884.94 1544.18 Q1888.83 1539.29 1895.38 1539.29 Q1897.14 1539.29 1898.92 1539.64 Q1900.73 1539.99 1902.67 1540.68 Z" fill="#000000" fill-rule="evenodd" fill-opacity="1" /><path clip-path="url(#clip760)" d="M 0 0 M2148.92 1543 Q2145.31 1543 2143.48 1546.56 Q2141.68 1550.11 2141.68 1557.23 Q2141.68 1564.34 2143.48 1567.91 Q2145.31 1571.45 2148.92 1571.45 Q2152.56 1571.45 2154.36 1567.91 Q2156.19 1564.34 2156.19 1557.23 Q2156.19 1550.11 2154.36 1546.56 Q2152.56 1543 2148.92 1543 M2148.92 1539.29 Q2154.73 1539.29 2157.79 1543.9 Q2160.87 1548.48 2160.87 1557.23 Q2160.87 1565.96 2157.79 1570.57 Q2154.73 1575.15 2148.92 1575.15 Q2143.11 1575.15 2140.03 1570.57 Q2136.98 1565.96 2136.98 1557.23 Q2136.98 1548.48 2140.03 1543.9 Q2143.11 1539.29 2148.92 1539.29 Z" fill="#000000" fill-rule="evenodd" fill-opacity="1" /><path clip-path="url(#clip760)" d="M 0 0 M2165.94 1568.6 L2170.82 1568.6 L2170.82 1574.48 L2165.94 1574.48 L2165.94 1568.6 Z" fill="#000000" fill-rule="evenodd" fill-opacity="1" /><path clip-path="url(#clip760)" d="M 0 0 M2174.71 1539.92 L2196.93 1539.92 L2196.93 1541.91 L2184.39 1574.48 L2179.5 1574.48 L2191.31 1543.86 L2174.71 1543.86 L2174.71 1539.92 Z" fill="#000000" fill-rule="evenodd" fill-opacity="1" /><path clip-path="url(#clip760)" d="M 0 0 M2212 1558.07 Q2208.67 1558.07 2206.75 1559.85 Q2204.85 1561.63 2204.85 1564.76 Q2204.85 1567.88 2206.75 1569.67 Q2208.67 1571.45 2212 1571.45 Q2215.33 1571.45 2217.26 1569.67 Q2219.18 1567.86 2219.18 1564.76 Q2219.18 1561.63 2217.26 1559.85 Q2215.36 1558.07 2212 1558.07 M2207.32 1556.08 Q2204.32 1555.34 2202.63 1553.28 Q2200.96 1551.22 2200.96 1548.25 Q2200.96 1544.11 2203.9 1541.7 Q2206.86 1539.29 2212 1539.29 Q2217.16 1539.29 2220.1 1541.7 Q2223.04 1544.11 2223.04 1548.25 Q2223.04 1551.22 2221.35 1553.28 Q2219.69 1555.34 2216.7 1556.08 Q2220.08 1556.86 2221.95 1559.16 Q2223.85 1561.45 2223.85 1564.76 Q2223.85 1569.78 2220.77 1572.47 Q2217.72 1575.15 2212 1575.15 Q2206.28 1575.15 2203.2 1572.47 Q2200.15 1569.78 2200.15 1564.76 Q2200.15 1561.45 2202.05 1559.16 Q2203.95 1556.86 2207.32 1556.08 M2205.61 1548.69 Q2205.61 1551.38 2207.28 1552.88 Q2208.97 1554.39 2212 1554.39 Q2215.01 1554.39 2216.7 1552.88 Q2218.41 1551.38 2218.41 1548.69 Q2218.41 1546.01 2216.7 1544.5 Q2215.01 1543 2212 1543 Q2208.97 1543 2207.28 1544.5 Q2205.61 1546.01 2205.61 1548.69 Z" fill="#000000" fill-rule="evenodd" fill-opacity="1" /><path clip-path="url(#clip760)" d="M 0 0 M51.0477 1465.1 Q47.4367 1465.1 45.608 1468.66 Q43.8024 1472.2 43.8024 1479.33 Q43.8024 1486.44 45.608 1490 Q47.4367 1493.55 51.0477 1493.55 Q54.682 1493.55 56.4875 1490 Q58.3162 1486.44 58.3162 1479.33 Q58.3162 1472.2 56.4875 1468.66 Q54.682 1465.1 51.0477 1465.1 M51.0477 1461.39 Q56.8579 1461.39 59.9134 1466 Q62.9921 1470.58 62.9921 1479.33 Q62.9921 1488.06 59.9134 1492.67 Q56.8579 1497.25 51.0477 1497.25 Q45.2376 1497.25 42.1589 1492.67 Q39.1034 1488.06 39.1034 1479.33 Q39.1034 1470.58 42.1589 1466 Q45.2376 1461.39 51.0477 1461.39 Z" fill="#000000" fill-rule="evenodd" fill-opacity="1" /><path clip-path="url(#clip760)" d="M 0 0 M42.0895 1045.19 L60.4458 1045.19 L60.4458 1049.13 L46.3718 1049.13 L46.3718 1057.6 Q47.3904 1057.25 48.4089 1057.09 Q49.4274 1056.91 50.4459 1056.91 Q56.2329 1056.91 59.6125 1060.08 Q62.9921 1063.25 62.9921 1068.66 Q62.9921 1074.24 59.5199 1077.35 Q56.0477 1080.42 49.7283 1080.42 Q47.5524 1080.42 45.2839 1080.05 Q43.0385 1079.68 40.6311 1078.94 L40.6311 1074.24 Q42.7145 1075.38 44.9367 1075.93 Q47.1589 1076.49 49.6357 1076.49 Q53.6403 1076.49 55.9783 1074.38 Q58.3162 1072.28 58.3162 1068.66 Q58.3162 1065.05 55.9783 1062.95 Q53.6403 1060.84 49.6357 1060.84 Q47.7607 1060.84 45.8857 1061.26 Q44.0339 1061.67 42.0895 1062.55 L42.0895 1045.19 Z" fill="#000000" fill-rule="evenodd" fill-opacity="1" /><path clip-path="url(#clip760)" d="M 0 0 M16.0711 658.992 L23.7099 658.992 L23.7099 632.627 L15.3998 634.294 L15.3998 630.034 L23.6636 628.368 L28.3395 628.368 L28.3395 658.992 L35.9784 658.992 L35.9784 662.928 L16.0711 662.928 L16.0711 658.992 Z" fill="#000000" fill-rule="evenodd" fill-opacity="1" /><path clip-path="url(#clip760)" d="M 0 0 M51.0477 631.446 Q47.4367 631.446 45.608 635.011 Q43.8024 638.553 43.8024 645.682 Q43.8024 652.789 45.608 656.354 Q47.4367 659.895 51.0477 659.895 Q54.682 659.895 56.4875 656.354 Q58.3162 652.789 58.3162 645.682 Q58.3162 638.553 56.4875 635.011 Q54.682 631.446 51.0477 631.446 M51.0477 627.743 Q56.8579 627.743 59.9134 632.349 Q62.9921 636.932 62.9921 645.682 Q62.9921 654.409 59.9134 659.016 Q56.8579 663.599 51.0477 663.599 Q45.2376 663.599 42.1589 659.016 Q39.1034 654.409 39.1034 645.682 Q39.1034 636.932 42.1589 632.349 Q45.2376 627.743 51.0477 627.743 Z" fill="#000000" fill-rule="evenodd" fill-opacity="1" /><path clip-path="url(#clip760)" d="M 0 0 M17.0664 242.167 L24.7053 242.167 L24.7053 215.802 L16.3952 217.469 L16.3952 213.209 L24.659 211.543 L29.3349 211.543 L29.3349 242.167 L36.9737 242.167 L36.9737 246.103 L17.0664 246.103 L17.0664 242.167 Z" fill="#000000" fill-rule="evenodd" fill-opacity="1" /><path clip-path="url(#clip760)" d="M 0 0 M42.0895 211.543 L60.4458 211.543 L60.4458 215.478 L46.3718 215.478 L46.3718 223.95 Q47.3904 223.603 48.4089 223.441 Q49.4274 223.256 50.4459 223.256 Q56.2329 223.256 59.6125 226.427 Q62.9921 229.598 62.9921 235.015 Q62.9921 240.593 59.5199 243.695 Q56.0477 246.774 49.7283 246.774 Q47.5524 246.774 45.2839 246.404 Q43.0385 246.033 40.6311 245.292 L40.6311 240.593 Q42.7145 241.728 44.9367 242.283 Q47.1589 242.839 49.6357 242.839 Q53.6403 242.839 55.9783 240.732 Q58.3162 238.626 58.3162 235.015 Q58.3162 231.404 55.9783 229.297 Q53.6403 227.191 49.6357 227.191 Q47.7607 227.191 45.8857 227.607 Q44.0339 228.024 42.0895 228.904 L42.0895 211.543 Z" fill="#000000" fill-rule="evenodd" fill-opacity="1" /><path clip-path="url(#clip762)" d="
M151.118 1464.36 L154.921 1463.33 L158.725 1462.26 L162.528 1461.15 L166.332 1460.01 L170.135 1458.82 L173.939 1457.59 L177.743 1456.32 L181.546 1455.01 L185.35 1453.65 
  L189.153 1452.25 L192.957 1450.81 L196.76 1449.32 L200.564 1447.79 L204.368 1446.21 L208.171 1444.58 L211.975 1442.9 L215.778 1441.17 L219.582 1439.39 L223.385 1437.57 
  L227.189 1435.69 L230.993 1433.77 L234.796 1431.79 L238.6 1429.77 L242.403 1427.7 L246.207 1425.58 L250.011 1423.42 L253.814 1421.21 L257.618 1418.96 L261.421 1416.67 
  L265.225 1414.34 L269.028 1411.97 L272.832 1409.56 L276.636 1407.12 L280.439 1404.64 L284.243 1402.12 L288.046 1399.57 L291.85 1396.97 L295.653 1394.34 L299.457 1391.66 
  L303.261 1388.93 L307.064 1386.15 L310.868 1383.31 L314.671 1380.39 L318.475 1377.4 L322.278 1374.32 L326.082 1371.15 L329.886 1367.86 L333.689 1364.44 L337.493 1360.88 
  L341.296 1357.16 L345.1 1353.28 L348.904 1349.2 L352.707 1344.92 L356.511 1340.41 L360.314 1335.66 L364.118 1330.66 L367.921 1325.38 L371.725 1319.82 L375.529 1313.95 
  L379.332 1307.77 L383.136 1301.28 L386.939 1294.45 L390.743 1287.3 L394.546 1279.81 L398.35 1271.99 L402.154 1263.85 L405.957 1255.39 L409.761 1246.63 L413.564 1237.59 
  L417.368 1228.29 L421.171 1218.75 L424.975 1209.01 L428.779 1199.09 L432.582 1189.04 L436.386 1178.89 L440.189 1168.67 L443.993 1158.44 L447.797 1148.23 L451.6 1138.08 
  L455.404 1128.04 L459.207 1118.14 L463.011 1108.42 L466.814 1098.92 L470.618 1089.66 L474.422 1080.68 L478.225 1071.98 L482.029 1063.6 L485.832 1055.53 L489.636 1047.78 
  L493.439 1040.36 L497.243 1033.25 L501.047 1026.45 L504.85 1019.94 L508.654 1013.7 L512.457 1007.71 L516.261 1001.93 L520.064 996.352 L523.868 990.933 L527.672 985.645 
  L527.672 1479.3 L523.868 1479.3 L520.064 1479.3 L516.261 1479.3 L512.457 1479.3 L508.654 1479.3 L504.85 1479.3 L501.047 1479.3 L497.243 1479.3 L493.439 1479.3 
  L489.636 1479.3 L485.832 1479.3 L482.029 1479.3 L478.225 1479.3 L474.422 1479.3 L470.618 1479.3 L466.814 1479.3 L463.011 1479.3 L459.207 1479.3 L455.404 1479.3 
  L451.6 1479.3 L447.797 1479.3 L443.993 1479.3 L440.189 1479.3 L436.386 1479.3 L432.582 1479.3 L428.779 1479.3 L424.975 1479.3 L421.171 1479.3 L417.368 1479.3 
  L413.564 1479.3 L409.761 1479.3 L405.957 1479.3 L402.154 1479.3 L398.35 1479.3 L394.546 1479.3 L390.743 1479.3 L386.939 1479.3 L383.136 1479.3 L379.332 1479.3 
  L375.529 1479.3 L371.725 1479.3 L367.921 1479.3 L364.118 1479.3 L360.314 1479.3 L356.511 1479.3 L352.707 1479.3 L348.904 1479.3 L345.1 1479.3 L341.296 1479.3 
  L337.493 1479.3 L333.689 1479.3 L329.886 1479.3 L326.082 1479.3 L322.278 1479.3 L318.475 1479.3 L314.671 1479.3 L310.868 1479.3 L307.064 1479.3 L303.261 1479.3 
  L299.457 1479.3 L295.653 1479.3 L291.85 1479.3 L288.046 1479.3 L284.243 1479.3 L280.439 1479.3 L276.636 1479.3 L272.832 1479.3 L269.028 1479.3 L265.225 1479.3 
  L261.421 1479.3 L257.618 1479.3 L253.814 1479.3 L250.011 1479.3 L246.207 1479.3 L242.403 1479.3 L238.6 1479.3 L234.796 1479.3 L230.993 1479.3 L227.189 1479.3 
  L223.385 1479.3 L219.582 1479.3 L215.778 1479.3 L211.975 1479.3 L208.171 1479.3 L204.368 1479.3 L200.564 1479.3 L196.76 1479.3 L192.957 1479.3 L189.153 1479.3 
  L185.35 1479.3 L181.546 1479.3 L177.743 1479.3 L173.939 1479.3 L170.135 1479.3 L166.332 1479.3 L162.528 1479.3 L158.725 1479.3 L154.921 1479.3 L151.118 1479.3 
   Z
  " fill="#ffa500" fill-rule="evenodd" fill-opacity="0.5"/>
<polyline clip-path="url(#clip762)" style="stroke:#ffa500; stroke-width:4; stroke-opacity:1; fill:none" points="
  151.118,1464.36 154.921,1463.33 158.725,1462.26 162.528,1461.15 166.332,1460.01 170.135,1458.82 173.939,1457.59 177.743,1456.32 181.546,1455.01 185.35,1453.65 
  189.153,1452.25 192.957,1450.81 196.76,1449.32 200.564,1447.79 204.368,1446.21 208.171,1444.58 211.975,1442.9 215.778,1441.17 219.582,1439.39 223.385,1437.57 
  227.189,1435.69 230.993,1433.77 234.796,1431.79 238.6,1429.77 242.403,1427.7 246.207,1425.58 250.011,1423.42 253.814,1421.21 257.618,1418.96 261.421,1416.67 
  265.225,1414.34 269.028,1411.97 272.832,1409.56 276.636,1407.12 280.439,1404.64 284.243,1402.12 288.046,1399.57 291.85,1396.97 295.653,1394.34 299.457,1391.66 
  303.261,1388.93 307.064,1386.15 310.868,1383.31 314.671,1380.39 318.475,1377.4 322.278,1374.32 326.082,1371.15 329.886,1367.86 333.689,1364.44 337.493,1360.88 
  341.296,1357.16 345.1,1353.28 348.904,1349.2 352.707,1344.92 356.511,1340.41 360.314,1335.66 364.118,1330.66 367.921,1325.38 371.725,1319.82 375.529,1313.95 
  379.332,1307.77 383.136,1301.28 386.939,1294.45 390.743,1287.3 394.546,1279.81 398.35,1271.99 402.154,1263.85 405.957,1255.39 409.761,1246.63 413.564,1237.59 
  417.368,1228.29 421.171,1218.75 424.975,1209.01 428.779,1199.09 432.582,1189.04 436.386,1178.89 440.189,1168.67 443.993,1158.44 447.797,1148.23 451.6,1138.08 
  455.404,1128.04 459.207,1118.14 463.011,1108.42 466.814,1098.92 470.618,1089.66 474.422,1080.68 478.225,1071.98 482.029,1063.6 485.832,1055.53 489.636,1047.78 
  493.439,1040.36 497.243,1033.25 501.047,1026.45 504.85,1019.94 508.654,1013.7 512.457,1007.71 516.261,1001.93 520.064,996.352 523.868,990.933 527.672,985.645 
  
  "/>
<path clip-path="url(#clip762)" d="
M527.672 985.645 L540.323 968.615 L552.974 951.697 L565.625 934.196 L578.277 915.833 L590.928 896.71 L603.579 877.18 L616.23 857.675 L628.882 838.576 L641.533 820.139 
  L654.184 802.5 L666.835 785.696 L679.487 769.686 L692.138 754.334 L704.789 739.371 L717.44 724.374 L730.092 708.787 L742.743 692.039 L755.394 673.695 L768.046 653.623 
  L780.697 632.081 L793.348 609.685 L805.999 587.235 L818.651 565.461 L831.302 544.746 L843.953 524.95 L856.604 505.371 L869.256 484.893 L881.907 462.254 L894.558 436.384 
  L907.209 406.686 L919.861 373.218 L932.512 336.705 L945.163 298.413 L957.814 259.919 L970.466 222.859 L983.117 188.712 L995.768 158.672 L1008.42 133.595 L1021.07 114.004 
  L1033.72 100.121 L1046.37 91.8829 L1059.02 88.9544 L1071.68 90.7244 L1084.33 96.3059 L1096.98 104.548 L1109.63 114.083 L1122.28 123.423 L1134.93 131.146 L1147.58 136.128 
  L1160.23 137.807 L1172.89 136.362 L1185.54 132.741 L1198.19 128.486 L1210.84 125.397 L1223.49 125.149 L1236.14 128.981 L1248.79 137.549 L1261.44 150.962 L1274.1 168.928 
  L1286.75 190.92 L1299.4 216.3 L1312.05 244.388 L1324.7 274.5 L1337.35 305.998 L1350 338.359 L1362.65 371.226 L1375.31 404.414 L1387.96 437.831 L1400.61 471.35 
  L1413.26 504.678 L1425.91 537.284 L1438.56 568.421 L1451.21 597.253 L1463.86 623.029 L1476.52 645.251 L1489.17 663.769 L1501.82 678.772 L1514.47 690.689 L1527.12 700.063 
  L1539.77 707.458 L1552.42 713.45 L1565.07 718.7 L1577.73 724.051 L1590.38 730.564 L1603.03 739.439 L1615.68 751.806 L1628.33 768.447 L1640.98 789.555 L1653.63 814.619 
  L1666.28 842.51 L1678.94 871.732 L1691.59 900.778 L1704.24 928.467 L1716.89 954.166 L1729.54 977.827 L1742.19 999.865 L1754.84 1020.92 L1767.49 1041.63 L1780.15 1062.42 
  L1780.15 1479.3 L1767.49 1479.3 L1754.84 1479.3 L1742.19 1479.3 L1729.54 1479.3 L1716.89 1479.3 L1704.24 1479.3 L1691.59 1479.3 L1678.94 1479.3 L1666.28 1479.3 
  L1653.63 1479.3 L1640.98 1479.3 L1628.33 1479.3 L1615.68 1479.3 L1603.03 1479.3 L1590.38 1479.3 L1577.73 1479.3 L1565.07 1479.3 L1552.42 1479.3 L1539.77 1479.3 
  L1527.12 1479.3 L1514.47 1479.3 L1501.82 1479.3 L1489.17 1479.3 L1476.52 1479.3 L1463.86 1479.3 L1451.21 1479.3 L1438.56 1479.3 L1425.91 1479.3 L1413.26 1479.3 
  L1400.61 1479.3 L1387.96 1479.3 L1375.31 1479.3 L1362.65 1479.3 L1350 1479.3 L1337.35 1479.3 L1324.7 1479.3 L1312.05 1479.3 L1299.4 1479.3 L1286.75 1479.3 
  L1274.1 1479.3 L1261.44 1479.3 L1248.79 1479.3 L1236.14 1479.3 L1223.49 1479.3 L1210.84 1479.3 L1198.19 1479.3 L1185.54 1479.3 L1172.89 1479.3 L1160.23 1479.3 
  L1147.58 1479.3 L1134.93 1479.3 L1122.28 1479.3 L1109.63 1479.3 L1096.98 1479.3 L1084.33 1479.3 L1071.68 1479.3 L1059.02 1479.3 L1046.37 1479.3 L1033.72 1479.3 
  L1021.07 1479.3 L1008.42 1479.3 L995.768 1479.3 L983.117 1479.3 L970.466 1479.3 L957.814 1479.3 L945.163 1479.3 L932.512 1479.3 L919.861 1479.3 L907.209 1479.3 
  L894.558 1479.3 L881.907 1479.3 L869.256 1479.3 L856.604 1479.3 L843.953 1479.3 L831.302 1479.3 L818.651 1479.3 L805.999 1479.3 L793.348 1479.3 L780.697 1479.3 
  L768.046 1479.3 L755.394 1479.3 L742.743 1479.3 L730.092 1479.3 L717.44 1479.3 L704.789 1479.3 L692.138 1479.3 L679.487 1479.3 L666.835 1479.3 L654.184 1479.3 
  L641.533 1479.3 L628.882 1479.3 L616.23 1479.3 L603.579 1479.3 L590.928 1479.3 L578.277 1479.3 L565.625 1479.3 L552.974 1479.3 L540.323 1479.3 L527.672 1479.3 
   Z
  " fill="#008000" fill-rule="evenodd" fill-opacity="0.5"/>
<polyline clip-path="url(#clip762)" style="stroke:#008000; stroke-width:4; stroke-opacity:1; fill:none" points="
  527.672,985.645 540.323,968.615 552.974,951.697 565.625,934.196 578.277,915.833 590.928,896.71 603.579,877.18 616.23,857.675 628.882,838.576 641.533,820.139 
  654.184,802.5 666.835,785.696 679.487,769.686 692.138,754.334 704.789,739.371 717.44,724.374 730.092,708.787 742.743,692.039 755.394,673.695 768.046,653.623 
  780.697,632.081 793.348,609.685 805.999,587.235 818.651,565.461 831.302,544.746 843.953,524.95 856.604,505.371 869.256,484.893 881.907,462.254 894.558,436.384 
  907.209,406.686 919.861,373.218 932.512,336.705 945.163,298.413 957.814,259.919 970.466,222.859 983.117,188.712 995.768,158.672 1008.42,133.595 1021.07,114.004 
  1033.72,100.121 1046.37,91.8829 1059.02,88.9544 1071.68,90.7244 1084.33,96.3059 1096.98,104.548 1109.63,114.083 1122.28,123.423 1134.93,131.146 1147.58,136.128 
  1160.23,137.807 1172.89,136.362 1185.54,132.741 1198.19,128.486 1210.84,125.397 1223.49,125.149 1236.14,128.981 1248.79,137.549 1261.44,150.962 1274.1,168.928 
  1286.75,190.92 1299.4,216.3 1312.05,244.388 1324.7,274.5 1337.35,305.998 1350,338.359 1362.65,371.226 1375.31,404.414 1387.96,437.831 1400.61,471.35 
  1413.26,504.678 1425.91,537.284 1438.56,568.421 1451.21,597.253 1463.86,623.029 1476.52,645.251 1489.17,663.769 1501.82,678.772 1514.47,690.689 1527.12,700.063 
  1539.77,707.458 1552.42,713.45 1565.07,718.7 1577.73,724.051 1590.38,730.564 1603.03,739.439 1615.68,751.806 1628.33,768.447 1640.98,789.555 1653.63,814.619 
  1666.28,842.51 1678.94,871.732 1691.59,900.778 1704.24,928.467 1716.89,954.166 1729.54,977.827 1742.19,999.865 1754.84,1020.92 1767.49,1041.63 1780.15,1062.42 
  
  "/>
<path clip-path="url(#clip762)" d="
M1780.15 1062.42 L1785.28 1070.92 L1790.42 1079.47 L1795.55 1088.06 L1800.69 1096.67 L1805.83 1105.29 L1810.96 1113.91 L1816.1 1122.51 L1821.24 1131.08 L1826.37 1139.6 
  L1831.51 1148.06 L1836.64 1156.45 L1841.78 1164.75 L1846.92 1172.97 L1852.05 1181.08 L1857.19 1189.09 L1862.33 1196.98 L1867.46 1204.76 L1872.6 1212.4 L1877.73 1219.9 
  L1882.87 1227.25 L1888.01 1234.45 L1893.14 1241.48 L1898.28 1248.33 L1903.42 1255.01 L1908.55 1261.5 L1913.69 1267.8 L1918.82 1273.92 L1923.96 1279.86 L1929.1 1285.61 
  L1934.23 1291.2 L1939.37 1296.64 L1944.5 1301.93 L1949.64 1307.1 L1954.78 1312.17 L1959.91 1317.15 L1965.05 1322.06 L1970.19 1326.91 L1975.32 1331.73 L1980.46 1336.53 
  L1985.59 1341.3 L1990.73 1346.07 L1995.87 1350.82 L2001 1355.56 L2006.14 1360.27 L2011.28 1364.96 L2016.41 1369.6 L2021.55 1374.18 L2026.68 1378.67 L2031.82 1383.07 
  L2036.96 1387.35 L2042.09 1391.49 L2047.23 1395.48 L2052.37 1399.3 L2057.5 1402.93 L2062.64 1406.39 L2067.77 1409.65 L2072.91 1412.72 L2078.05 1415.6 L2083.18 1418.31 
  L2088.32 1420.85 L2093.45 1423.24 L2098.59 1425.5 L2103.73 1427.64 L2108.86 1429.67 L2114 1431.63 L2119.14 1433.52 L2124.27 1435.36 L2129.41 1437.15 L2134.54 1438.92 
  L2139.68 1440.66 L2144.82 1442.39 L2149.95 1444.09 L2155.09 1445.77 L2160.23 1447.43 L2165.36 1449.06 L2170.5 1450.65 L2175.63 1452.2 L2180.77 1453.69 L2185.91 1455.12 
  L2191.04 1456.5 L2196.18 1457.8 L2201.32 1459.03 L2206.45 1460.19 L2211.59 1461.28 L2216.72 1462.3 L2221.86 1463.25 L2227 1464.15 L2232.13 1464.98 L2237.27 1465.77 
  L2242.4 1466.52 L2247.54 1467.22 L2252.68 1467.9 L2257.81 1468.55 L2262.95 1469.19 L2268.09 1469.8 L2273.22 1470.4 L2278.36 1470.99 L2283.49 1471.56 L2288.63 1472.12 
  L2288.63 1479.3 L2283.49 1479.3 L2278.36 1479.3 L2273.22 1479.3 L2268.09 1479.3 L2262.95 1479.3 L2257.81 1479.3 L2252.68 1479.3 L2247.54 1479.3 L2242.4 1479.3 
  L2237.27 1479.3 L2232.13 1479.3 L2227 1479.3 L2221.86 1479.3 L2216.72 1479.3 L2211.59 1479.3 L2206.45 1479.3 L2201.32 1479.3 L2196.18 1479.3 L2191.04 1479.3 
  L2185.91 1479.3 L2180.77 1479.3 L2175.63 1479.3 L2170.5 1479.3 L2165.36 1479.3 L2160.23 1479.3 L2155.09 1479.3 L2149.95 1479.3 L2144.82 1479.3 L2139.68 1479.3 
  L2134.54 1479.3 L2129.41 1479.3 L2124.27 1479.3 L2119.14 1479.3 L2114 1479.3 L2108.86 1479.3 L2103.73 1479.3 L2098.59 1479.3 L2093.45 1479.3 L2088.32 1479.3 
  L2083.18 1479.3 L2078.05 1479.3 L2072.91 1479.3 L2067.77 1479.3 L2062.64 1479.3 L2057.5 1479.3 L2052.37 1479.3 L2047.23 1479.3 L2042.09 1479.3 L2036.96 1479.3 
  L2031.82 1479.3 L2026.68 1479.3 L2021.55 1479.3 L2016.41 1479.3 L2011.28 1479.3 L2006.14 1479.3 L2001 1479.3 L1995.87 1479.3 L1990.73 1479.3 L1985.59 1479.3 
  L1980.46 1479.3 L1975.32 1479.3 L1970.19 1479.3 L1965.05 1479.3 L1959.91 1479.3 L1954.78 1479.3 L1949.64 1479.3 L1944.5 1479.3 L1939.37 1479.3 L1934.23 1479.3 
  L1929.1 1479.3 L1923.96 1479.3 L1918.82 1479.3 L1913.69 1479.3 L1908.55 1479.3 L1903.42 1479.3 L1898.28 1479.3 L1893.14 1479.3 L1888.01 1479.3 L1882.87 1479.3 
  L1877.73 1479.3 L1872.6 1479.3 L1867.46 1479.3 L1862.33 1479.3 L1857.19 1479.3 L1852.05 1479.3 L1846.92 1479.3 L1841.78 1479.3 L1836.64 1479.3 L1831.51 1479.3 
  L1826.37 1479.3 L1821.24 1479.3 L1816.1 1479.3 L1810.96 1479.3 L1805.83 1479.3 L1800.69 1479.3 L1795.55 1479.3 L1790.42 1479.3 L1785.28 1479.3 L1780.15 1479.3 
   Z
  " fill="#ffa500" fill-rule="evenodd" fill-opacity="0.5"/>
<polyline clip-path="url(#clip762)" style="stroke:#ffa500; stroke-width:4; stroke-opacity:1; fill:none" points="
  1780.15,1062.42 1785.28,1070.92 1790.42,1079.47 1795.55,1088.06 1800.69,1096.67 1805.83,1105.29 1810.96,1113.91 1816.1,1122.51 1821.24,1131.08 1826.37,1139.6 
  1831.51,1148.06 1836.64,1156.45 1841.78,1164.75 1846.92,1172.97 1852.05,1181.08 1857.19,1189.09 1862.33,1196.98 1867.46,1204.76 1872.6,1212.4 1877.73,1219.9 
  1882.87,1227.25 1888.01,1234.45 1893.14,1241.48 1898.28,1248.33 1903.42,1255.01 1908.55,1261.5 1913.69,1267.8 1918.82,1273.92 1923.96,1279.86 1929.1,1285.61 
  1934.23,1291.2 1939.37,1296.64 1944.5,1301.93 1949.64,1307.1 1954.78,1312.17 1959.91,1317.15 1965.05,1322.06 1970.19,1326.91 1975.32,1331.73 1980.46,1336.53 
  1985.59,1341.3 1990.73,1346.07 1995.87,1350.82 2001,1355.56 2006.14,1360.27 2011.28,1364.96 2016.41,1369.6 2021.55,1374.18 2026.68,1378.67 2031.82,1383.07 
  2036.96,1387.35 2042.09,1391.49 2047.23,1395.48 2052.37,1399.3 2057.5,1402.93 2062.64,1406.39 2067.77,1409.65 2072.91,1412.72 2078.05,1415.6 2083.18,1418.31 
  2088.32,1420.85 2093.45,1423.24 2098.59,1425.5 2103.73,1427.64 2108.86,1429.67 2114,1431.63 2119.14,1433.52 2124.27,1435.36 2129.41,1437.15 2134.54,1438.92 
  2139.68,1440.66 2144.82,1442.39 2149.95,1444.09 2155.09,1445.77 2160.23,1447.43 2165.36,1449.06 2170.5,1450.65 2175.63,1452.2 2180.77,1453.69 2185.91,1455.12 
  2191.04,1456.5 2196.18,1457.8 2201.32,1459.03 2206.45,1460.19 2211.59,1461.28 2216.72,1462.3 2221.86,1463.25 2227,1464.15 2232.13,1464.98 2237.27,1465.77 
  2242.4,1466.52 2247.54,1467.22 2252.68,1467.9 2257.81,1468.55 2262.95,1469.19 2268.09,1469.8 2273.22,1470.4 2278.36,1470.99 2283.49,1471.56 2288.63,1472.12 
  
  "/>
<polyline clip-path="url(#clip762)" style="stroke:#0000ff; stroke-width:4; stroke-opacity:1; fill:none" points="
  1148.45,1479.3 1148.45,136.35 
  "/>
<polyline clip-path="url(#clip762)" style="stroke:#000000; stroke-width:4; stroke-opacity:1; fill:none" points="
  1139.56,1479.3 1139.56,133.331 
  "/>
<path clip-path="url(#clip760)" d="
M1494.58 459.25 L2277.23 459.25 L2277.23 96.3696 L1494.58 96.3696  Z
  " fill="#ffffff" fill-rule="evenodd" fill-opacity="1"/>
<polyline clip-path="url(#clip760)" style="stroke:#000000; stroke-width:4; stroke-opacity:1; fill:none" points="
  1494.58,459.25 2277.23,459.25 2277.23,96.3696 1494.58,96.3696 1494.58,459.25 
  "/>
<path clip-path="url(#clip760)" d="
M1519.75 181.042 L1670.81 181.042 L1670.81 132.658 L1519.75 132.658 L1519.75 181.042  Z
  " fill="#ffa500" fill-rule="evenodd" fill-opacity="0.5"/>
<polyline clip-path="url(#clip760)" style="stroke:#ffa500; stroke-width:4; stroke-opacity:1; fill:none" points="
  1519.75,132.658 1670.81,132.658 
  "/>
<path clip-path="url(#clip760)" d="M 0 0 M1700.38 161.19 Q1700.38 165.889 1702.3 168.574 Q1704.24 171.236 1707.62 171.236 Q1711 171.236 1712.95 168.574 Q1714.89 165.889 1714.89 161.19 Q1714.89 156.491 1712.95 153.829 Q1711 151.144 1707.62 151.144 Q1704.24 151.144 1702.3 153.829 Q1700.38 156.491 1700.38 161.19 M1714.89 170.241 Q1713.55 172.555 1711.49 173.69 Q1709.45 174.801 1706.58 174.801 Q1701.88 174.801 1698.92 171.051 Q1695.98 167.301 1695.98 161.19 Q1695.98 155.079 1698.92 151.329 Q1701.88 147.579 1706.58 147.579 Q1709.45 147.579 1711.49 148.713 Q1713.55 149.824 1714.89 152.139 L1714.89 148.204 L1719.15 148.204 L1719.15 183.991 L1714.89 183.991 L1714.89 170.241 Z" fill="#000000" fill-rule="evenodd" fill-opacity="1" /><path clip-path="url(#clip760)" d="M 0 0 M1734.22 142.648 Q1730.61 142.648 1728.78 146.213 Q1726.98 149.755 1726.98 156.884 Q1726.98 163.991 1728.78 167.556 Q1730.61 171.097 1734.22 171.097 Q1737.85 171.097 1739.66 167.556 Q1741.49 163.991 1741.49 156.884 Q1741.49 149.755 1739.66 146.213 Q1737.85 142.648 1734.22 142.648 M1734.22 138.945 Q1740.03 138.945 1743.09 143.551 Q1746.17 148.134 1746.17 156.884 Q1746.17 165.611 1743.09 170.218 Q1740.03 174.801 1734.22 174.801 Q1728.41 174.801 1725.33 170.218 Q1722.28 165.611 1722.28 156.884 Q1722.28 148.134 1725.33 143.551 Q1728.41 138.945 1734.22 138.945 Z" fill="#000000" fill-rule="evenodd" fill-opacity="1" /><path clip-path="url(#clip760)" d="M 0 0 M1751.28 139.57 L1769.64 139.57 L1769.64 143.505 L1755.56 143.505 L1755.56 151.977 Q1756.58 151.63 1757.6 151.468 Q1758.62 151.282 1759.64 151.282 Q1765.42 151.282 1768.8 154.454 Q1772.18 157.625 1772.18 163.042 Q1772.18 168.62 1768.71 171.722 Q1765.24 174.801 1758.92 174.801 Q1756.74 174.801 1754.48 174.43 Q1752.23 174.06 1749.82 173.319 L1749.82 168.62 Q1751.91 169.755 1754.13 170.31 Q1756.35 170.866 1758.83 170.866 Q1762.83 170.866 1765.17 168.759 Q1767.51 166.653 1767.51 163.042 Q1767.51 159.431 1765.17 157.324 Q1762.83 155.218 1758.83 155.218 Q1756.95 155.218 1755.08 155.634 Q1753.23 156.051 1751.28 156.931 L1751.28 139.57 Z" fill="#000000" fill-rule="evenodd" fill-opacity="1" /><path clip-path="url(#clip760)" d="
M1519.75 241.522 L1670.81 241.522 L1670.81 193.138 L1519.75 193.138 L1519.75 241.522  Z
  " fill="#008000" fill-rule="evenodd" fill-opacity="0.5"/>
<polyline clip-path="url(#clip760)" style="stroke:#008000; stroke-width:4; stroke-opacity:1; fill:none" points="
  1519.75,193.138 1670.81,193.138 
  "/>
<path clip-path="url(#clip760)" d="M 0 0 M1698.2 233.892 L1698.2 229.633 Q1699.96 230.466 1701.77 230.906 Q1703.57 231.346 1705.31 231.346 Q1709.94 231.346 1712.37 228.244 Q1714.82 225.119 1715.17 218.776 Q1713.83 220.767 1711.77 221.832 Q1709.71 222.897 1707.21 222.897 Q1702.02 222.897 1698.99 219.772 Q1695.98 216.624 1695.98 211.184 Q1695.98 205.86 1699.13 202.642 Q1702.28 199.425 1707.51 199.425 Q1713.5 199.425 1716.65 204.031 Q1719.82 208.614 1719.82 217.364 Q1719.82 225.536 1715.93 230.42 Q1712.07 235.281 1705.52 235.281 Q1703.76 235.281 1701.95 234.934 Q1700.15 234.586 1698.2 233.892 M1707.51 219.239 Q1710.66 219.239 1712.48 217.086 Q1714.34 214.934 1714.34 211.184 Q1714.34 207.457 1712.48 205.304 Q1710.66 203.128 1707.51 203.128 Q1704.36 203.128 1702.51 205.304 Q1700.68 207.457 1700.68 211.184 Q1700.68 214.934 1702.51 217.086 Q1704.36 219.239 1707.51 219.239 Z" fill="#000000" fill-rule="evenodd" fill-opacity="1" /><path clip-path="url(#clip760)" d="M 0 0 M1734.89 203.128 Q1731.28 203.128 1729.45 206.693 Q1727.65 210.235 1727.65 217.364 Q1727.65 224.471 1729.45 228.036 Q1731.28 231.577 1734.89 231.577 Q1738.53 231.577 1740.33 228.036 Q1742.16 224.471 1742.16 217.364 Q1742.16 210.235 1740.33 206.693 Q1738.53 203.128 1734.89 203.128 M1734.89 199.425 Q1740.7 199.425 1743.76 204.031 Q1746.84 208.614 1746.84 217.364 Q1746.84 226.091 1743.76 230.698 Q1740.7 235.281 1734.89 235.281 Q1729.08 235.281 1726 230.698 Q1722.95 226.091 1722.95 217.364 Q1722.95 208.614 1726 204.031 Q1729.08 199.425 1734.89 199.425 Z" fill="#000000" fill-rule="evenodd" fill-opacity="1" /><path clip-path="url(#clip760)" d="M 0 0 M1781.3 219.401 Q1779.29 219.401 1778.13 221.114 Q1777 222.827 1777 225.883 Q1777 228.892 1778.13 230.628 Q1779.29 232.341 1781.3 232.341 Q1783.27 232.341 1784.41 230.628 Q1785.56 228.892 1785.56 225.883 Q1785.56 222.85 1784.41 221.137 Q1783.27 219.401 1781.3 219.401 M1781.3 216.462 Q1784.96 216.462 1787.11 219.008 Q1789.27 221.554 1789.27 225.883 Q1789.27 230.211 1787.09 232.758 Q1784.94 235.281 1781.3 235.281 Q1777.6 235.281 1775.45 232.758 Q1773.29 230.211 1773.29 225.883 Q1773.29 221.531 1775.45 219.008 Q1777.62 216.462 1781.3 216.462 M1757.42 202.364 Q1755.42 202.364 1754.27 204.1 Q1753.13 205.813 1753.13 208.823 Q1753.13 211.878 1754.27 213.591 Q1755.4 215.304 1757.42 215.304 Q1759.43 215.304 1760.56 213.591 Q1761.72 211.878 1761.72 208.823 Q1761.72 205.837 1760.56 204.1 Q1759.41 202.364 1757.42 202.364 M1778.32 199.425 L1782.02 199.425 L1760.4 235.281 L1756.7 235.281 L1778.32 199.425 M1757.42 199.425 Q1761.07 199.425 1763.25 201.971 Q1765.42 204.494 1765.42 208.823 Q1765.42 213.198 1763.25 215.721 Q1761.1 218.244 1757.42 218.244 Q1753.73 218.244 1751.58 215.721 Q1749.45 213.174 1749.45 208.823 Q1749.45 204.517 1751.6 201.971 Q1753.76 199.425 1757.42 199.425 Z" fill="#000000" fill-rule="evenodd" fill-opacity="1" /><path clip-path="url(#clip760)" d="M 0 0 M1830.35 218.961 L1830.35 234.61 L1826.1 234.61 L1826.1 219.1 Q1826.1 215.42 1824.66 213.591 Q1823.22 211.762 1820.35 211.762 Q1816.91 211.762 1814.91 213.962 Q1812.92 216.161 1812.92 219.957 L1812.92 234.61 L1808.64 234.61 L1808.64 208.684 L1812.92 208.684 L1812.92 212.712 Q1814.45 210.374 1816.51 209.216 Q1818.6 208.059 1821.3 208.059 Q1825.77 208.059 1828.06 210.837 Q1830.35 213.591 1830.35 218.961 Z" fill="#000000" fill-rule="evenodd" fill-opacity="1" /><path clip-path="url(#clip760)" d="M 0 0 M1844.87 211.67 Q1841.44 211.67 1839.45 214.355 Q1837.46 217.017 1837.46 221.67 Q1837.46 226.323 1839.43 229.008 Q1841.42 231.67 1844.87 231.67 Q1848.27 231.67 1850.26 228.985 Q1852.25 226.299 1852.25 221.67 Q1852.25 217.063 1850.26 214.378 Q1848.27 211.67 1844.87 211.67 M1844.87 208.059 Q1850.42 208.059 1853.6 211.67 Q1856.77 215.281 1856.77 221.67 Q1856.77 228.036 1853.6 231.67 Q1850.42 235.281 1844.87 235.281 Q1839.29 235.281 1836.12 231.67 Q1832.97 228.036 1832.97 221.67 Q1832.97 215.281 1836.12 211.67 Q1839.29 208.059 1844.87 208.059 Z" fill="#000000" fill-rule="evenodd" fill-opacity="1" /><path clip-path="url(#clip760)" d="M 0 0 M1882.78 218.961 L1882.78 234.61 L1878.53 234.61 L1878.53 219.1 Q1878.53 215.42 1877.09 213.591 Q1875.66 211.762 1872.78 211.762 Q1869.34 211.762 1867.35 213.962 Q1865.35 216.161 1865.35 219.957 L1865.35 234.61 L1861.07 234.61 L1861.07 208.684 L1865.35 208.684 L1865.35 212.712 Q1866.88 210.374 1868.94 209.216 Q1871.03 208.059 1873.73 208.059 Q1878.2 208.059 1880.49 210.837 Q1882.78 213.591 1882.78 218.961 Z" fill="#000000" fill-rule="evenodd" fill-opacity="1" /><path clip-path="url(#clip760)" d="M 0 0 M1885.1 219.725 L1897.58 219.725 L1897.58 223.522 L1885.1 223.522 L1885.1 219.725 Z" fill="#000000" fill-rule="evenodd" fill-opacity="1" /><path clip-path="url(#clip760)" d="M 0 0 M1917.07 212.665 Q1916.35 212.249 1915.49 212.063 Q1914.66 211.855 1913.64 211.855 Q1910.03 211.855 1908.09 214.216 Q1906.16 216.554 1906.16 220.952 L1906.16 234.61 L1901.88 234.61 L1901.88 208.684 L1906.16 208.684 L1906.16 212.712 Q1907.51 210.35 1909.66 209.216 Q1911.81 208.059 1914.89 208.059 Q1915.33 208.059 1915.86 208.128 Q1916.4 208.175 1917.04 208.29 L1917.07 212.665 Z" fill="#000000" fill-rule="evenodd" fill-opacity="1" /><path clip-path="url(#clip760)" d="M 0 0 M1942.67 220.582 L1942.67 222.665 L1923.09 222.665 Q1923.36 227.063 1925.72 229.378 Q1928.11 231.67 1932.34 231.67 Q1934.8 231.67 1937.09 231.068 Q1939.4 230.466 1941.67 229.262 L1941.67 233.29 Q1939.38 234.262 1936.97 234.772 Q1934.57 235.281 1932.09 235.281 Q1925.89 235.281 1922.25 231.67 Q1918.64 228.059 1918.64 221.901 Q1918.64 215.536 1922.07 211.809 Q1925.52 208.059 1931.35 208.059 Q1936.58 208.059 1939.61 211.438 Q1942.67 214.795 1942.67 220.582 M1938.41 219.332 Q1938.36 215.837 1936.44 213.753 Q1934.54 211.67 1931.4 211.67 Q1927.83 211.67 1925.68 213.684 Q1923.55 215.698 1923.22 219.355 L1938.41 219.332 Z" fill="#000000" fill-rule="evenodd" fill-opacity="1" /><path clip-path="url(#clip760)" d="M 0 0 M1947.14 208.684 L1951.4 208.684 L1951.4 235.073 Q1951.4 240.026 1949.5 242.248 Q1947.62 244.471 1943.43 244.471 L1941.81 244.471 L1941.81 240.86 L1942.95 240.86 Q1945.38 240.86 1946.26 239.725 Q1947.14 238.614 1947.14 235.073 L1947.14 208.684 M1947.14 198.591 L1951.4 198.591 L1951.4 203.985 L1947.14 203.985 L1947.14 198.591 Z" fill="#000000" fill-rule="evenodd" fill-opacity="1" /><path clip-path="url(#clip760)" d="M 0 0 M1978.04 220.582 L1978.04 222.665 L1958.46 222.665 Q1958.73 227.063 1961.09 229.378 Q1963.48 231.67 1967.71 231.67 Q1970.17 231.67 1972.46 231.068 Q1974.78 230.466 1977.04 229.262 L1977.04 233.29 Q1974.75 234.262 1972.34 234.772 Q1969.94 235.281 1967.46 235.281 Q1961.26 235.281 1957.62 231.67 Q1954.01 228.059 1954.01 221.901 Q1954.01 215.536 1957.44 211.809 Q1960.89 208.059 1966.72 208.059 Q1971.95 208.059 1974.98 211.438 Q1978.04 214.795 1978.04 220.582 M1973.78 219.332 Q1973.73 215.837 1971.81 213.753 Q1969.91 211.67 1966.77 211.67 Q1963.2 211.67 1961.05 213.684 Q1958.92 215.698 1958.59 219.355 L1973.78 219.332 Z" fill="#000000" fill-rule="evenodd" fill-opacity="1" /><path clip-path="url(#clip760)" d="M 0 0 M2001.16 209.679 L2001.16 213.661 Q1999.36 212.665 1997.53 212.179 Q1995.72 211.67 1993.87 211.67 Q1989.73 211.67 1987.44 214.309 Q1985.15 216.924 1985.15 221.67 Q1985.15 226.415 1987.44 229.054 Q1989.73 231.67 1993.87 231.67 Q1995.72 231.67 1997.53 231.184 Q1999.36 230.674 2001.16 229.679 L2001.16 233.614 Q1999.38 234.448 1997.46 234.864 Q1995.56 235.281 1993.41 235.281 Q1987.55 235.281 1984.1 231.6 Q1980.65 227.92 1980.65 221.67 Q1980.65 215.327 1984.13 211.693 Q1987.62 208.059 1993.69 208.059 Q1995.65 208.059 1997.53 208.475 Q1999.4 208.869 2001.16 209.679 Z" fill="#000000" fill-rule="evenodd" fill-opacity="1" /><path clip-path="url(#clip760)" d="M 0 0 M2009.84 201.323 L2009.84 208.684 L2018.62 208.684 L2018.62 211.994 L2009.84 211.994 L2009.84 226.068 Q2009.84 229.239 2010.7 230.142 Q2011.58 231.045 2014.24 231.045 L2018.62 231.045 L2018.62 234.61 L2014.24 234.61 Q2009.31 234.61 2007.44 232.781 Q2005.56 230.929 2005.56 226.068 L2005.56 211.994 L2002.44 211.994 L2002.44 208.684 L2005.56 208.684 L2005.56 201.323 L2009.84 201.323 Z" fill="#000000" fill-rule="evenodd" fill-opacity="1" /><path clip-path="url(#clip760)" d="M 0 0 M2023.08 208.684 L2027.34 208.684 L2027.34 234.61 L2023.08 234.61 L2023.08 208.684 M2023.08 198.591 L2027.34 198.591 L2027.34 203.985 L2023.08 203.985 L2023.08 198.591 Z" fill="#000000" fill-rule="evenodd" fill-opacity="1" /><path clip-path="url(#clip760)" d="M 0 0 M2041.86 211.67 Q2038.43 211.67 2036.44 214.355 Q2034.45 217.017 2034.45 221.67 Q2034.45 226.323 2036.42 229.008 Q2038.41 231.67 2041.86 231.67 Q2045.26 231.67 2047.25 228.985 Q2049.24 226.299 2049.24 221.67 Q2049.24 217.063 2047.25 214.378 Q2045.26 211.67 2041.86 211.67 M2041.86 208.059 Q2047.41 208.059 2050.58 211.67 Q2053.76 215.281 2053.76 221.67 Q2053.76 228.036 2050.58 231.67 Q2047.41 235.281 2041.86 235.281 Q2036.28 235.281 2033.11 231.67 Q2029.96 228.036 2029.96 221.67 Q2029.96 215.281 2033.11 211.67 Q2036.28 208.059 2041.86 208.059 Z" fill="#000000" fill-rule="evenodd" fill-opacity="1" /><path clip-path="url(#clip760)" d="M 0 0 M2079.77 218.961 L2079.77 234.61 L2075.52 234.61 L2075.52 219.1 Q2075.52 215.42 2074.08 213.591 Q2072.64 211.762 2069.77 211.762 Q2066.33 211.762 2064.33 213.962 Q2062.34 216.161 2062.34 219.957 L2062.34 234.61 L2058.06 234.61 L2058.06 208.684 L2062.34 208.684 L2062.34 212.712 Q2063.87 210.374 2065.93 209.216 Q2068.02 208.059 2070.72 208.059 Q2075.19 208.059 2077.48 210.837 Q2079.77 213.591 2079.77 218.961 Z" fill="#000000" fill-rule="evenodd" fill-opacity="1" /><path clip-path="url(#clip760)" d="M 0 0 M2114.33 212.665 Q2113.62 212.249 2112.76 212.063 Q2111.93 211.855 2110.91 211.855 Q2107.3 211.855 2105.35 214.216 Q2103.43 216.554 2103.43 220.952 L2103.43 234.61 L2099.15 234.61 L2099.15 208.684 L2103.43 208.684 L2103.43 212.712 Q2104.77 210.35 2106.93 209.216 Q2109.08 208.059 2112.16 208.059 Q2112.6 208.059 2113.13 208.128 Q2113.66 208.175 2114.31 208.29 L2114.33 212.665 Z" fill="#000000" fill-rule="evenodd" fill-opacity="1" /><path clip-path="url(#clip760)" d="M 0 0 M2139.94 220.582 L2139.94 222.665 L2120.35 222.665 Q2120.63 227.063 2122.99 229.378 Q2125.38 231.67 2129.61 231.67 Q2132.07 231.67 2134.36 231.068 Q2136.67 230.466 2138.94 229.262 L2138.94 233.29 Q2136.65 234.262 2134.24 234.772 Q2131.83 235.281 2129.36 235.281 Q2123.15 235.281 2119.52 231.67 Q2115.91 228.059 2115.91 221.901 Q2115.91 215.536 2119.33 211.809 Q2122.78 208.059 2128.62 208.059 Q2133.85 208.059 2136.88 211.438 Q2139.94 214.795 2139.94 220.582 M2135.68 219.332 Q2135.63 215.837 2133.71 213.753 Q2131.81 211.67 2128.66 211.67 Q2125.1 211.67 2122.95 213.684 Q2120.82 215.698 2120.49 219.355 L2135.68 219.332 Z" fill="#000000" fill-rule="evenodd" fill-opacity="1" /><path clip-path="url(#clip760)" d="M 0 0 M2161.46 221.346 Q2161.46 216.716 2159.54 214.17 Q2157.64 211.624 2154.2 211.624 Q2150.77 211.624 2148.85 214.17 Q2146.95 216.716 2146.95 221.346 Q2146.95 225.952 2148.85 228.498 Q2150.77 231.045 2154.2 231.045 Q2157.64 231.045 2159.54 228.498 Q2161.46 225.952 2161.46 221.346 M2165.72 231.392 Q2165.72 238.012 2162.78 241.23 Q2159.84 244.471 2153.78 244.471 Q2151.53 244.471 2149.54 244.123 Q2147.55 243.799 2145.68 243.105 L2145.68 238.961 Q2147.55 239.98 2149.38 240.466 Q2151.21 240.952 2153.11 240.952 Q2157.3 240.952 2159.38 238.753 Q2161.46 236.577 2161.46 232.156 L2161.46 230.049 Q2160.14 232.341 2158.08 233.475 Q2156.02 234.61 2153.15 234.61 Q2148.39 234.61 2145.47 230.975 Q2142.55 227.341 2142.55 221.346 Q2142.55 215.327 2145.47 211.693 Q2148.39 208.059 2153.15 208.059 Q2156.02 208.059 2158.08 209.193 Q2160.14 210.327 2161.46 212.619 L2161.46 208.684 L2165.72 208.684 L2165.72 231.392 Z" fill="#000000" fill-rule="evenodd" fill-opacity="1" /><path clip-path="url(#clip760)" d="M 0 0 M2170.19 208.684 L2174.45 208.684 L2174.45 234.61 L2170.19 234.61 L2170.19 208.684 M2170.19 198.591 L2174.45 198.591 L2174.45 203.985 L2170.19 203.985 L2170.19 198.591 Z" fill="#000000" fill-rule="evenodd" fill-opacity="1" /><path clip-path="url(#clip760)" d="M 0 0 M2188.96 211.67 Q2185.54 211.67 2183.55 214.355 Q2181.56 217.017 2181.56 221.67 Q2181.56 226.323 2183.52 229.008 Q2185.51 231.67 2188.96 231.67 Q2192.37 231.67 2194.36 228.985 Q2196.35 226.299 2196.35 221.67 Q2196.35 217.063 2194.36 214.378 Q2192.37 211.67 2188.96 211.67 M2188.96 208.059 Q2194.52 208.059 2197.69 211.67 Q2200.86 215.281 2200.86 221.67 Q2200.86 228.036 2197.69 231.67 Q2194.52 235.281 2188.96 235.281 Q2183.39 235.281 2180.21 231.67 Q2177.07 228.036 2177.07 221.67 Q2177.07 215.281 2180.21 211.67 Q2183.39 208.059 2188.96 208.059 Z" fill="#000000" fill-rule="evenodd" fill-opacity="1" /><path clip-path="url(#clip760)" d="M 0 0 M2226.88 218.961 L2226.88 234.61 L2222.62 234.61 L2222.62 219.1 Q2222.62 215.42 2221.19 213.591 Q2219.75 211.762 2216.88 211.762 Q2213.43 211.762 2211.44 213.962 Q2209.45 216.161 2209.45 219.957 L2209.45 234.61 L2205.17 234.61 L2205.17 208.684 L2209.45 208.684 L2209.45 212.712 Q2210.98 210.374 2213.04 209.216 Q2215.12 208.059 2217.83 208.059 Q2222.3 208.059 2224.59 210.837 Q2226.88 213.591 2226.88 218.961 Z" fill="#000000" fill-rule="evenodd" fill-opacity="1" /><path clip-path="url(#clip760)" d="
M1519.75 302.002 L1670.81 302.002 L1670.81 253.618 L1519.75 253.618 L1519.75 302.002  Z
  " fill="#ffa500" fill-rule="evenodd" fill-opacity="0.5"/>
<polyline clip-path="url(#clip760)" style="stroke:#ffa500; stroke-width:4; stroke-opacity:1; fill:none" points="
  1519.75,253.618 1670.81,253.618 
  "/>
<path clip-path="url(#clip760)" d="M 0 0 M1700.38 282.15 Q1700.38 286.849 1702.3 289.534 Q1704.24 292.196 1707.62 292.196 Q1711 292.196 1712.95 289.534 Q1714.89 286.849 1714.89 282.15 Q1714.89 277.451 1712.95 274.789 Q1711 272.104 1707.62 272.104 Q1704.24 272.104 1702.3 274.789 Q1700.38 277.451 1700.38 282.15 M1714.89 291.201 Q1713.55 293.515 1711.49 294.65 Q1709.45 295.761 1706.58 295.761 Q1701.88 295.761 1698.92 292.011 Q1695.98 288.261 1695.98 282.15 Q1695.98 276.039 1698.92 272.289 Q1701.88 268.539 1706.58 268.539 Q1709.45 268.539 1711.49 269.673 Q1713.55 270.784 1714.89 273.099 L1714.89 269.164 L1719.15 269.164 L1719.15 304.951 L1714.89 304.951 L1714.89 291.201 Z" fill="#000000" fill-rule="evenodd" fill-opacity="1" /><path clip-path="url(#clip760)" d="M 0 0 M1724.36 294.372 L1724.36 290.113 Q1726.12 290.946 1727.92 291.386 Q1729.73 291.826 1731.47 291.826 Q1736.1 291.826 1738.53 288.724 Q1740.98 285.599 1741.33 279.256 Q1739.98 281.247 1737.92 282.312 Q1735.86 283.377 1733.36 283.377 Q1728.18 283.377 1725.15 280.252 Q1722.14 277.104 1722.14 271.664 Q1722.14 266.34 1725.29 263.122 Q1728.43 259.905 1733.67 259.905 Q1739.66 259.905 1742.81 264.511 Q1745.98 269.094 1745.98 277.844 Q1745.98 286.016 1742.09 290.9 Q1738.23 295.761 1731.67 295.761 Q1729.92 295.761 1728.11 295.414 Q1726.3 295.066 1724.36 294.372 M1733.67 279.719 Q1736.81 279.719 1738.64 277.566 Q1740.49 275.414 1740.49 271.664 Q1740.49 267.937 1738.64 265.784 Q1736.81 263.608 1733.67 263.608 Q1730.52 263.608 1728.67 265.784 Q1726.84 267.937 1726.84 271.664 Q1726.84 275.414 1728.67 277.566 Q1730.52 279.719 1733.67 279.719 Z" fill="#000000" fill-rule="evenodd" fill-opacity="1" /><path clip-path="url(#clip760)" d="M 0 0 M1751.1 260.53 L1769.45 260.53 L1769.45 264.465 L1755.38 264.465 L1755.38 272.937 Q1756.4 272.59 1757.42 272.428 Q1758.43 272.242 1759.45 272.242 Q1765.24 272.242 1768.62 275.414 Q1772 278.585 1772 284.002 Q1772 289.58 1768.53 292.682 Q1765.05 295.761 1758.73 295.761 Q1756.56 295.761 1754.29 295.39 Q1752.04 295.02 1749.64 294.279 L1749.64 289.58 Q1751.72 290.715 1753.94 291.27 Q1756.17 291.826 1758.64 291.826 Q1762.65 291.826 1764.98 289.719 Q1767.32 287.613 1767.32 284.002 Q1767.32 280.391 1764.98 278.284 Q1762.65 276.178 1758.64 276.178 Q1756.77 276.178 1754.89 276.594 Q1753.04 277.011 1751.1 277.891 L1751.1 260.53 Z" fill="#000000" fill-rule="evenodd" fill-opacity="1" /><polyline clip-path="url(#clip760)" style="stroke:#0000ff; stroke-width:4; stroke-opacity:1; fill:none" points="
  1519.75,338.29 1670.81,338.29 
  "/>
<path clip-path="url(#clip760)" d="M 0 0 M1716.33 334.621 Q1717.92 331.75 1720.15 330.385 Q1722.37 329.019 1725.38 329.019 Q1729.43 329.019 1731.63 331.866 Q1733.83 334.69 1733.83 339.921 L1733.83 355.57 L1729.54 355.57 L1729.54 340.06 Q1729.54 336.334 1728.23 334.528 Q1726.91 332.722 1724.2 332.722 Q1720.89 332.722 1718.97 334.922 Q1717.04 337.121 1717.04 340.917 L1717.04 355.57 L1712.76 355.57 L1712.76 340.06 Q1712.76 336.31 1711.44 334.528 Q1710.12 332.722 1707.37 332.722 Q1704.11 332.722 1702.18 334.945 Q1700.26 337.144 1700.26 340.917 L1700.26 355.57 L1695.98 355.57 L1695.98 329.644 L1700.26 329.644 L1700.26 333.672 Q1701.72 331.287 1703.76 330.153 Q1705.79 329.019 1708.6 329.019 Q1711.42 329.019 1713.39 330.454 Q1715.38 331.889 1716.33 334.621 Z" fill="#000000" fill-rule="evenodd" fill-opacity="1" /><path clip-path="url(#clip760)" d="M 0 0 M1760.47 341.542 L1760.47 343.625 L1740.89 343.625 Q1741.17 348.023 1743.53 350.338 Q1745.91 352.63 1750.15 352.63 Q1752.6 352.63 1754.89 352.028 Q1757.21 351.426 1759.48 350.222 L1759.48 354.25 Q1757.18 355.222 1754.78 355.732 Q1752.37 356.241 1749.89 356.241 Q1743.69 356.241 1740.05 352.63 Q1736.44 349.019 1736.44 342.861 Q1736.44 336.496 1739.87 332.769 Q1743.32 329.019 1749.15 329.019 Q1754.38 329.019 1757.42 332.398 Q1760.47 335.755 1760.47 341.542 M1756.21 340.292 Q1756.17 336.797 1754.24 334.713 Q1752.35 332.63 1749.2 332.63 Q1745.63 332.63 1743.48 334.644 Q1741.35 336.658 1741.03 340.315 L1756.21 340.292 Z" fill="#000000" fill-rule="evenodd" fill-opacity="1" /><path clip-path="url(#clip760)" d="M 0 0 M1776.72 342.537 Q1771.56 342.537 1769.57 343.718 Q1767.58 344.898 1767.58 347.746 Q1767.58 350.014 1769.06 351.357 Q1770.56 352.676 1773.13 352.676 Q1776.67 352.676 1778.8 350.176 Q1780.96 347.653 1780.96 343.486 L1780.96 342.537 L1776.72 342.537 M1785.22 340.778 L1785.22 355.57 L1780.96 355.57 L1780.96 351.634 Q1779.5 353.995 1777.32 355.13 Q1775.15 356.241 1772 356.241 Q1768.02 356.241 1765.66 354.019 Q1763.32 351.773 1763.32 348.023 Q1763.32 343.648 1766.23 341.426 Q1769.17 339.204 1774.98 339.204 L1780.96 339.204 L1780.96 338.787 Q1780.96 335.847 1779.01 334.25 Q1777.09 332.63 1773.6 332.63 Q1771.37 332.63 1769.27 333.162 Q1767.16 333.695 1765.22 334.759 L1765.22 330.824 Q1767.55 329.922 1769.75 329.482 Q1771.95 329.019 1774.04 329.019 Q1779.66 329.019 1782.44 331.935 Q1785.22 334.852 1785.22 340.778 Z" fill="#000000" fill-rule="evenodd" fill-opacity="1" /><path clip-path="url(#clip760)" d="M 0 0 M1811.23 339.921 L1811.23 355.57 L1806.97 355.57 L1806.97 340.06 Q1806.97 336.38 1805.54 334.551 Q1804.1 332.722 1801.23 332.722 Q1797.79 332.722 1795.79 334.922 Q1793.8 337.121 1793.8 340.917 L1793.8 355.57 L1789.52 355.57 L1789.52 329.644 L1793.8 329.644 L1793.8 333.672 Q1795.33 331.334 1797.39 330.176 Q1799.48 329.019 1802.18 329.019 Q1806.65 329.019 1808.94 331.797 Q1811.23 334.551 1811.23 339.921 Z" fill="#000000" fill-rule="evenodd" fill-opacity="1" /><polyline clip-path="url(#clip760)" style="stroke:#000000; stroke-width:4; stroke-opacity:1; fill:none" points="
  1519.75,398.77 1670.81,398.77 
  "/>
<path clip-path="url(#clip760)" d="M 0 0 M1716.33 395.101 Q1717.92 392.23 1720.15 390.865 Q1722.37 389.499 1725.38 389.499 Q1729.43 389.499 1731.63 392.346 Q1733.83 395.17 1733.83 400.401 L1733.83 416.05 L1729.54 416.05 L1729.54 400.54 Q1729.54 396.814 1728.23 395.008 Q1726.91 393.202 1724.2 393.202 Q1720.89 393.202 1718.97 395.402 Q1717.04 397.601 1717.04 401.397 L1717.04 416.05 L1712.76 416.05 L1712.76 400.54 Q1712.76 396.79 1711.44 395.008 Q1710.12 393.202 1707.37 393.202 Q1704.11 393.202 1702.18 395.425 Q1700.26 397.624 1700.26 401.397 L1700.26 416.05 L1695.98 416.05 L1695.98 390.124 L1700.26 390.124 L1700.26 394.152 Q1701.72 391.767 1703.76 390.633 Q1705.79 389.499 1708.6 389.499 Q1711.42 389.499 1713.39 390.934 Q1715.38 392.369 1716.33 395.101 Z" fill="#000000" fill-rule="evenodd" fill-opacity="1" /><path clip-path="url(#clip760)" d="M 0 0 M1760.47 402.022 L1760.47 404.105 L1740.89 404.105 Q1741.17 408.503 1743.53 410.818 Q1745.91 413.11 1750.15 413.11 Q1752.6 413.11 1754.89 412.508 Q1757.21 411.906 1759.48 410.702 L1759.48 414.73 Q1757.18 415.702 1754.78 416.212 Q1752.37 416.721 1749.89 416.721 Q1743.69 416.721 1740.05 413.11 Q1736.44 409.499 1736.44 403.341 Q1736.44 396.976 1739.87 393.249 Q1743.32 389.499 1749.15 389.499 Q1754.38 389.499 1757.42 392.878 Q1760.47 396.235 1760.47 402.022 M1756.21 400.772 Q1756.17 397.277 1754.24 395.193 Q1752.35 393.11 1749.2 393.11 Q1745.63 393.11 1743.48 395.124 Q1741.35 397.138 1741.03 400.795 L1756.21 400.772 Z" fill="#000000" fill-rule="evenodd" fill-opacity="1" /><path clip-path="url(#clip760)" d="M 0 0 M1782 394.059 L1782 380.031 L1786.26 380.031 L1786.26 416.05 L1782 416.05 L1782 412.161 Q1780.66 414.475 1778.6 415.61 Q1776.56 416.721 1773.69 416.721 Q1768.99 416.721 1766.03 412.971 Q1763.09 409.221 1763.09 403.11 Q1763.09 396.999 1766.03 393.249 Q1768.99 389.499 1773.69 389.499 Q1776.56 389.499 1778.6 390.633 Q1780.66 391.744 1782 394.059 M1767.48 403.11 Q1767.48 407.809 1769.41 410.494 Q1771.35 413.156 1774.73 413.156 Q1778.11 413.156 1780.05 410.494 Q1782 407.809 1782 403.11 Q1782 398.411 1780.05 395.749 Q1778.11 393.064 1774.73 393.064 Q1771.35 393.064 1769.41 395.749 Q1767.48 398.411 1767.48 403.11 Z" fill="#000000" fill-rule="evenodd" fill-opacity="1" /><path clip-path="url(#clip760)" d="M 0 0 M1790.73 390.124 L1794.98 390.124 L1794.98 416.05 L1790.73 416.05 L1790.73 390.124 M1790.73 380.031 L1794.98 380.031 L1794.98 385.425 L1790.73 385.425 L1790.73 380.031 Z" fill="#000000" fill-rule="evenodd" fill-opacity="1" /><path clip-path="url(#clip760)" d="M 0 0 M1811.23 403.017 Q1806.07 403.017 1804.08 404.198 Q1802.09 405.378 1802.09 408.226 Q1802.09 410.494 1803.57 411.837 Q1805.08 413.156 1807.65 413.156 Q1811.19 413.156 1813.32 410.656 Q1815.47 408.133 1815.47 403.966 L1815.47 403.017 L1811.23 403.017 M1819.73 401.258 L1819.73 416.05 L1815.47 416.05 L1815.47 412.114 Q1814.01 414.475 1811.84 415.61 Q1809.66 416.721 1806.51 416.721 Q1802.53 416.721 1800.17 414.499 Q1797.83 412.253 1797.83 408.503 Q1797.83 404.128 1800.75 401.906 Q1803.69 399.684 1809.5 399.684 L1815.47 399.684 L1815.47 399.267 Q1815.47 396.327 1813.53 394.73 Q1811.6 393.11 1808.11 393.11 Q1805.89 393.11 1803.78 393.642 Q1801.67 394.175 1799.73 395.239 L1799.73 391.304 Q1802.07 390.402 1804.27 389.962 Q1806.47 389.499 1808.55 389.499 Q1814.17 389.499 1816.95 392.415 Q1819.73 395.332 1819.73 401.258 Z" fill="#000000" fill-rule="evenodd" fill-opacity="1" /><path clip-path="url(#clip760)" d="M 0 0 M1845.75 400.401 L1845.75 416.05 L1841.49 416.05 L1841.49 400.54 Q1841.49 396.86 1840.05 395.031 Q1838.62 393.202 1835.75 393.202 Q1832.3 393.202 1830.31 395.402 Q1828.32 397.601 1828.32 401.397 L1828.32 416.05 L1824.04 416.05 L1824.04 390.124 L1828.32 390.124 L1828.32 394.152 Q1829.85 391.814 1831.91 390.656 Q1833.99 389.499 1836.7 389.499 Q1841.16 389.499 1843.46 392.277 Q1845.75 395.031 1845.75 400.401 Z" fill="#000000" fill-rule="evenodd" fill-opacity="1" /></svg>
