<?xml version="1.0" encoding="utf-8"?>
<svg xmlns="http://www.w3.org/2000/svg" xmlns:xlink="http://www.w3.org/1999/xlink" width="600" height="400" viewBox="0 0 2400 1600">
<defs>
  <clipPath id="clip350">
    <rect x="0" y="0" width="2400" height="1600"/>
  </clipPath>
</defs>
<path clip-path="url(#clip350)" d="
M0 1600 L2400 1600 L2400 0 L0 0  Z
  " fill="#ffffff" fill-rule="evenodd" fill-opacity="1"/>
<defs>
  <clipPath id="clip351">
    <rect x="480" y="0" width="1681" height="1600"/>
  </clipPath>
</defs>
<path clip-path="url(#clip350)" d="
M86.9921 1521.01 L2352.76 1521.01 L2352.76 47.2441 L86.9921 47.2441  Z
  " fill="#ffffff" fill-rule="evenodd" fill-opacity="1"/>
<defs>
  <clipPath id="clip352">
    <rect x="86" y="47" width="2267" height="1475"/>
  </clipPath>
</defs>
<polyline clip-path="url(#clip352)" style="stroke:#000000; stroke-width:2; stroke-opacity:0.1; fill:none" points="
  150.232,1521.01 150.232,47.2441 
  "/>
<polyline clip-path="url(#clip352)" style="stroke:#000000; stroke-width:2; stroke-opacity:0.1; fill:none" points="
  868.81,1521.01 868.81,47.2441 
  "/>
<polyline clip-path="url(#clip352)" style="stroke:#000000; stroke-width:2; stroke-opacity:0.1; fill:none" points="
  1587.39,1521.01 1587.39,47.2441 
  "/>
<polyline clip-path="url(#clip352)" style="stroke:#000000; stroke-width:2; stroke-opacity:0.1; fill:none" points="
  2305.97,1521.01 2305.97,47.2441 
  "/>
<polyline clip-path="url(#clip352)" style="stroke:#000000; stroke-width:2; stroke-opacity:0.1; fill:none" points="
  86.9921,1479.3 2352.76,1479.3 
  "/>
<polyline clip-path="url(#clip352)" style="stroke:#000000; stroke-width:2; stroke-opacity:0.1; fill:none" points="
  86.9921,1186.55 2352.76,1186.55 
  "/>
<polyline clip-path="url(#clip352)" style="stroke:#000000; stroke-width:2; stroke-opacity:0.1; fill:none" points="
  86.9921,893.793 2352.76,893.793 
  "/>
<polyline clip-path="url(#clip352)" style="stroke:#000000; stroke-width:2; stroke-opacity:0.1; fill:none" points="
  86.9921,601.041 2352.76,601.041 
  "/>
<polyline clip-path="url(#clip352)" style="stroke:#000000; stroke-width:2; stroke-opacity:0.1; fill:none" points="
  86.9921,308.288 2352.76,308.288 
  "/>
<polyline clip-path="url(#clip350)" style="stroke:#000000; stroke-width:4; stroke-opacity:1; fill:none" points="
  86.9921,1521.01 2352.76,1521.01 
  "/>
<polyline clip-path="url(#clip350)" style="stroke:#000000; stroke-width:4; stroke-opacity:1; fill:none" points="
  86.9921,1521.01 86.9921,47.2441 
  "/>
<polyline clip-path="url(#clip350)" style="stroke:#000000; stroke-width:4; stroke-opacity:1; fill:none" points="
  150.232,1521.01 150.232,1503.32 
  "/>
<polyline clip-path="url(#clip350)" style="stroke:#000000; stroke-width:4; stroke-opacity:1; fill:none" points="
  868.81,1521.01 868.81,1503.32 
  "/>
<polyline clip-path="url(#clip350)" style="stroke:#000000; stroke-width:4; stroke-opacity:1; fill:none" points="
  1587.39,1521.01 1587.39,1503.32 
  "/>
<polyline clip-path="url(#clip350)" style="stroke:#000000; stroke-width:4; stroke-opacity:1; fill:none" points="
  2305.97,1521.01 2305.97,1503.32 
  "/>
<polyline clip-path="url(#clip350)" style="stroke:#000000; stroke-width:4; stroke-opacity:1; fill:none" points="
  86.9921,1479.3 114.181,1479.3 
  "/>
<polyline clip-path="url(#clip350)" style="stroke:#000000; stroke-width:4; stroke-opacity:1; fill:none" points="
  86.9921,1186.55 114.181,1186.55 
  "/>
<polyline clip-path="url(#clip350)" style="stroke:#000000; stroke-width:4; stroke-opacity:1; fill:none" points="
  86.9921,893.793 114.181,893.793 
  "/>
<polyline clip-path="url(#clip350)" style="stroke:#000000; stroke-width:4; stroke-opacity:1; fill:none" points="
  86.9921,601.041 114.181,601.041 
  "/>
<polyline clip-path="url(#clip350)" style="stroke:#000000; stroke-width:4; stroke-opacity:1; fill:none" points="
  86.9921,308.288 114.181,308.288 
  "/>
<path clip-path="url(#clip350)" d="M 0 0 M154.48 1555.85 Q157.836 1556.56 159.711 1558.83 Q161.609 1561.1 161.609 1564.43 Q161.609 1569.55 158.091 1572.35 Q154.572 1575.15 148.091 1575.15 Q145.915 1575.15 143.6 1574.71 Q141.308 1574.29 138.855 1573.44 L138.855 1568.92 Q140.799 1570.06 143.114 1570.64 Q145.429 1571.22 147.952 1571.22 Q152.35 1571.22 154.642 1569.48 Q156.956 1567.74 156.956 1564.43 Q156.956 1561.38 154.804 1559.67 Q152.674 1557.93 148.855 1557.93 L144.827 1557.93 L144.827 1554.09 L149.04 1554.09 Q152.489 1554.09 154.318 1552.72 Q156.146 1551.33 156.146 1548.74 Q156.146 1546.08 154.248 1544.67 Q152.373 1543.23 148.855 1543.23 Q146.933 1543.23 144.734 1543.65 Q142.535 1544.06 139.896 1544.94 L139.896 1540.78 Q142.558 1540.04 144.873 1539.67 Q147.211 1539.29 149.271 1539.29 Q154.595 1539.29 157.697 1541.73 Q160.799 1544.13 160.799 1548.25 Q160.799 1551.12 159.156 1553.11 Q157.512 1555.08 154.48 1555.85 Z" fill="#000000" fill-rule="evenodd" fill-opacity="1" /><path clip-path="url(#clip350)" d="M 0 0 M871.82 1543.99 L860.014 1562.44 L871.82 1562.44 L871.82 1543.99 M870.593 1539.92 L876.472 1539.92 L876.472 1562.44 L881.403 1562.44 L881.403 1566.33 L876.472 1566.33 L876.472 1574.48 L871.82 1574.48 L871.82 1566.33 L856.218 1566.33 L856.218 1561.82 L870.593 1539.92 Z" fill="#000000" fill-rule="evenodd" fill-opacity="1" /><path clip-path="url(#clip350)" d="M 0 0 M1577.67 1539.92 L1596.02 1539.92 L1596.02 1543.86 L1581.95 1543.86 L1581.95 1552.33 Q1582.97 1551.98 1583.99 1551.82 Q1585 1551.63 1586.02 1551.63 Q1591.81 1551.63 1595.19 1554.8 Q1598.57 1557.98 1598.57 1563.39 Q1598.57 1568.97 1595.1 1572.07 Q1591.62 1575.15 1585.31 1575.15 Q1583.13 1575.15 1580.86 1574.78 Q1578.62 1574.41 1576.21 1573.67 L1576.21 1568.97 Q1578.29 1570.1 1580.51 1570.66 Q1582.74 1571.22 1585.21 1571.22 Q1589.22 1571.22 1591.56 1569.11 Q1593.89 1567 1593.89 1563.39 Q1593.89 1559.78 1591.56 1557.67 Q1589.22 1555.57 1585.21 1555.57 Q1583.34 1555.57 1581.46 1555.98 Q1579.61 1556.4 1577.67 1557.28 L1577.67 1539.92 Z" fill="#000000" fill-rule="evenodd" fill-opacity="1" /><path clip-path="url(#clip350)" d="M 0 0 M2306.37 1555.34 Q2303.22 1555.34 2301.37 1557.49 Q2299.54 1559.64 2299.54 1563.39 Q2299.54 1567.12 2301.37 1569.29 Q2303.22 1571.45 2306.37 1571.45 Q2309.52 1571.45 2311.35 1569.29 Q2313.2 1567.12 2313.2 1563.39 Q2313.2 1559.64 2311.35 1557.49 Q2309.52 1555.34 2306.37 1555.34 M2315.65 1540.68 L2315.65 1544.94 Q2313.9 1544.11 2312.09 1543.67 Q2310.31 1543.23 2308.55 1543.23 Q2303.92 1543.23 2301.46 1546.36 Q2299.03 1549.48 2298.69 1555.8 Q2300.05 1553.79 2302.11 1552.72 Q2304.17 1551.63 2306.65 1551.63 Q2311.86 1551.63 2314.87 1554.8 Q2317.9 1557.95 2317.9 1563.39 Q2317.9 1568.72 2314.75 1571.93 Q2311.6 1575.15 2306.37 1575.15 Q2300.38 1575.15 2297.21 1570.57 Q2294.03 1565.96 2294.03 1557.23 Q2294.03 1549.04 2297.92 1544.18 Q2301.81 1539.29 2308.36 1539.29 Q2310.12 1539.29 2311.9 1539.64 Q2313.71 1539.99 2315.65 1540.68 Z" fill="#000000" fill-rule="evenodd" fill-opacity="1" /><path clip-path="url(#clip350)" d="M 0 0 M14.0804 1465.1 Q10.4693 1465.1 8.64057 1468.66 Q6.83502 1472.2 6.83502 1479.33 Q6.83502 1486.44 8.64057 1490 Q10.4693 1493.55 14.0804 1493.55 Q17.7146 1493.55 19.5201 1490 Q21.3488 1486.44 21.3488 1479.33 Q21.3488 1472.2 19.5201 1468.66 Q17.7146 1465.1 14.0804 1465.1 M14.0804 1461.39 Q19.8905 1461.39 22.946 1466 Q26.0247 1470.58 26.0247 1479.33 Q26.0247 1488.06 22.946 1492.67 Q19.8905 1497.25 14.0804 1497.25 Q8.2702 1497.25 5.19151 1492.67 Q2.13597 1488.06 2.13597 1479.33 Q2.13597 1470.58 5.19151 1466 Q8.2702 1461.39 14.0804 1461.39 Z" fill="#000000" fill-rule="evenodd" fill-opacity="1" /><path clip-path="url(#clip350)" d="M 0 0 M31.0941 1490.7 L35.9784 1490.7 L35.9784 1496.58 L31.0941 1496.58 L31.0941 1490.7 Z" fill="#000000" fill-rule="evenodd" fill-opacity="1" /><path clip-path="url(#clip350)" d="M 0 0 M51.0477 1465.1 Q47.4367 1465.1 45.608 1468.66 Q43.8024 1472.2 43.8024 1479.33 Q43.8024 1486.44 45.608 1490 Q47.4367 1493.55 51.0477 1493.55 Q54.682 1493.55 56.4875 1490 Q58.3162 1486.44 58.3162 1479.33 Q58.3162 1472.2 56.4875 1468.66 Q54.682 1465.1 51.0477 1465.1 M51.0477 1461.39 Q56.8579 1461.39 59.9134 1466 Q62.9921 1470.58 62.9921 1479.33 Q62.9921 1488.06 59.9134 1492.67 Q56.8579 1497.25 51.0477 1497.25 Q45.2376 1497.25 42.1589 1492.67 Q39.1034 1488.06 39.1034 1479.33 Q39.1034 1470.58 42.1589 1466 Q45.2376 1461.39 51.0477 1461.39 Z" fill="#000000" fill-rule="evenodd" fill-opacity="1" /><path clip-path="url(#clip350)" d="M 0 0 M15.6776 1172.34 Q12.0665 1172.34 10.2378 1175.91 Q8.43223 1179.45 8.43223 1186.58 Q8.43223 1193.69 10.2378 1197.25 Q12.0665 1200.79 15.6776 1200.79 Q19.3118 1200.79 21.1174 1197.25 Q22.946 1193.69 22.946 1186.58 Q22.946 1179.45 21.1174 1175.91 Q19.3118 1172.34 15.6776 1172.34 M15.6776 1168.64 Q21.4877 1168.64 24.5433 1173.25 Q27.6219 1177.83 27.6219 1186.58 Q27.6219 1195.31 24.5433 1199.91 Q21.4877 1204.5 15.6776 1204.5 Q9.86741 1204.5 6.78872 1199.91 Q3.73318 1195.31 3.73318 1186.58 Q3.73318 1177.83 6.78872 1173.25 Q9.86741 1168.64 15.6776 1168.64 Z" fill="#000000" fill-rule="evenodd" fill-opacity="1" /><path clip-path="url(#clip350)" d="M 0 0 M32.6914 1197.95 L37.5756 1197.95 L37.5756 1203.83 L32.6914 1203.83 L32.6914 1197.95 Z" fill="#000000" fill-rule="evenodd" fill-opacity="1" /><path clip-path="url(#clip350)" d="M 0 0 M46.6728 1199.89 L62.9921 1199.89 L62.9921 1203.83 L41.0478 1203.83 L41.0478 1199.89 Q43.7098 1197.14 48.2931 1192.51 Q52.8996 1187.85 54.0801 1186.51 Q56.3255 1183.99 57.2051 1182.25 Q58.1079 1180.49 58.1079 1178.8 Q58.1079 1176.05 56.1635 1174.31 Q54.2422 1172.58 51.1403 1172.58 Q48.9413 1172.58 46.4876 1173.34 Q44.057 1174.1 41.2793 1175.65 L41.2793 1170.93 Q44.1033 1169.8 46.557 1169.22 Q49.0107 1168.64 51.0477 1168.64 Q56.4181 1168.64 59.6125 1171.33 Q62.8069 1174.01 62.8069 1178.5 Q62.8069 1180.63 61.9968 1182.55 Q61.2097 1184.45 59.1033 1187.04 Q58.5246 1187.71 55.4227 1190.93 Q52.3209 1194.13 46.6728 1199.89 Z" fill="#000000" fill-rule="evenodd" fill-opacity="1" /><path clip-path="url(#clip350)" d="M 0 0 M13.5942 879.592 Q9.98315 879.592 8.15446 883.157 Q6.34891 886.698 6.34891 893.828 Q6.34891 900.934 8.15446 904.499 Q9.98315 908.041 13.5942 908.041 Q17.2285 908.041 19.034 904.499 Q20.8627 900.934 20.8627 893.828 Q20.8627 886.698 19.034 883.157 Q17.2285 879.592 13.5942 879.592 M13.5942 875.888 Q19.4044 875.888 22.4599 880.494 Q25.5386 885.078 25.5386 893.828 Q25.5386 902.555 22.4599 907.161 Q19.4044 911.744 13.5942 911.744 Q7.78409 911.744 4.7054 907.161 Q1.64986 902.555 1.64986 893.828 Q1.64986 885.078 4.7054 880.494 Q7.78409 875.888 13.5942 875.888 Z" fill="#000000" fill-rule="evenodd" fill-opacity="1" /><path clip-path="url(#clip350)" d="M 0 0 M30.608 905.193 L35.4923 905.193 L35.4923 911.073 L30.608 911.073 L30.608 905.193 Z" fill="#000000" fill-rule="evenodd" fill-opacity="1" /><path clip-path="url(#clip350)" d="M 0 0 M53.4088 880.587 L41.6034 899.036 L53.4088 899.036 L53.4088 880.587 M52.182 876.513 L58.0616 876.513 L58.0616 899.036 L62.9921 899.036 L62.9921 902.925 L58.0616 902.925 L58.0616 911.073 L53.4088 911.073 L53.4088 902.925 L37.8071 902.925 L37.8071 898.411 L52.182 876.513 Z" fill="#000000" fill-rule="evenodd" fill-opacity="1" /><path clip-path="url(#clip350)" d="M 0 0 M13.9183 586.839 Q10.3072 586.839 8.47853 590.404 Q6.67298 593.946 6.67298 601.075 Q6.67298 608.182 8.47853 611.747 Q10.3072 615.288 13.9183 615.288 Q17.5526 615.288 19.3581 611.747 Q21.1868 608.182 21.1868 601.075 Q21.1868 593.946 19.3581 590.404 Q17.5526 586.839 13.9183 586.839 M13.9183 583.136 Q19.7285 583.136 22.784 587.742 Q25.8627 592.326 25.8627 601.075 Q25.8627 609.802 22.784 614.409 Q19.7285 618.992 13.9183 618.992 Q8.10816 618.992 5.02947 614.409 Q1.97393 609.802 1.97393 601.075 Q1.97393 592.326 5.02947 587.742 Q8.10816 583.136 13.9183 583.136 Z" fill="#000000" fill-rule="evenodd" fill-opacity="1" /><path clip-path="url(#clip350)" d="M 0 0 M30.9321 612.441 L35.8163 612.441 L35.8163 618.321 L30.9321 618.321 L30.9321 612.441 Z" fill="#000000" fill-rule="evenodd" fill-opacity="1" /><path clip-path="url(#clip350)" d="M 0 0 M51.4644 599.177 Q48.3163 599.177 46.4644 601.33 Q44.6357 603.483 44.6357 607.233 Q44.6357 610.96 46.4644 613.136 Q48.3163 615.288 51.4644 615.288 Q54.6125 615.288 56.4412 613.136 Q58.2931 610.96 58.2931 607.233 Q58.2931 603.483 56.4412 601.33 Q54.6125 599.177 51.4644 599.177 M60.7468 584.525 L60.7468 588.784 Q58.9875 587.951 57.182 587.511 Q55.3996 587.071 53.6403 587.071 Q49.0107 587.071 46.557 590.196 Q44.1265 593.321 43.7793 599.64 Q45.145 597.626 47.2052 596.562 Q49.2653 595.474 51.7422 595.474 Q56.9505 595.474 59.9597 598.645 Q62.9921 601.793 62.9921 607.233 Q62.9921 612.557 59.844 615.774 Q56.6959 618.992 51.4644 618.992 Q45.4691 618.992 42.2978 614.409 Q39.1265 609.802 39.1265 601.075 Q39.1265 592.881 43.0154 588.02 Q46.9042 583.136 53.4551 583.136 Q55.2144 583.136 56.9968 583.483 Q58.8023 583.83 60.7468 584.525 Z" fill="#000000" fill-rule="evenodd" fill-opacity="1" /><path clip-path="url(#clip350)" d="M 0 0 M14.1729 294.087 Q10.5619 294.087 8.73316 297.652 Q6.92761 301.194 6.92761 308.323 Q6.92761 315.43 8.73316 318.994 Q10.5619 322.536 14.1729 322.536 Q17.8072 322.536 19.6127 318.994 Q21.4414 315.43 21.4414 308.323 Q21.4414 301.194 19.6127 297.652 Q17.8072 294.087 14.1729 294.087 M14.1729 290.383 Q19.9831 290.383 23.0386 294.99 Q26.1173 299.573 26.1173 308.323 Q26.1173 317.05 23.0386 321.656 Q19.9831 326.24 14.1729 326.24 Q8.36279 326.24 5.2841 321.656 Q2.22856 317.05 2.22856 308.323 Q2.22856 299.573 5.2841 294.99 Q8.36279 290.383 14.1729 290.383 Z" fill="#000000" fill-rule="evenodd" fill-opacity="1" /><path clip-path="url(#clip350)" d="M 0 0 M31.1867 319.689 L36.071 319.689 L36.071 325.568 L31.1867 325.568 L31.1867 319.689 Z" fill="#000000" fill-rule="evenodd" fill-opacity="1" /><path clip-path="url(#clip350)" d="M 0 0 M51.1403 309.157 Q47.807 309.157 45.8857 310.939 Q43.9876 312.721 43.9876 315.846 Q43.9876 318.971 45.8857 320.754 Q47.807 322.536 51.1403 322.536 Q54.4737 322.536 56.3949 320.754 Q58.3162 318.948 58.3162 315.846 Q58.3162 312.721 56.3949 310.939 Q54.4968 309.157 51.1403 309.157 M46.4644 307.166 Q43.4552 306.425 41.7654 304.365 Q40.0987 302.305 40.0987 299.342 Q40.0987 295.198 43.0385 292.791 Q46.0015 290.383 51.1403 290.383 Q56.3023 290.383 59.2421 292.791 Q62.1819 295.198 62.1819 299.342 Q62.1819 302.305 60.4921 304.365 Q58.8255 306.425 55.8394 307.166 Q59.219 307.953 61.094 310.244 Q62.9921 312.536 62.9921 315.846 Q62.9921 320.869 59.9134 323.555 Q56.8579 326.24 51.1403 326.24 Q45.4228 326.24 42.3441 323.555 Q39.2885 320.869 39.2885 315.846 Q39.2885 312.536 41.1867 310.244 Q43.0848 307.953 46.4644 307.166 M44.7515 299.782 Q44.7515 302.467 46.4181 303.971 Q48.1079 305.476 51.1403 305.476 Q54.1496 305.476 55.8394 303.971 Q57.5523 302.467 57.5523 299.782 Q57.5523 297.096 55.8394 295.592 Q54.1496 294.087 51.1403 294.087 Q48.1079 294.087 46.4181 295.592 Q44.7515 297.096 44.7515 299.782 Z" fill="#000000" fill-rule="evenodd" fill-opacity="1" /><path clip-path="url(#clip352)" d="
M151.118 1321.69 L152.712 1317.06 L154.307 1312.41 L155.902 1307.75 L157.497 1303.09 L159.092 1298.42 L160.687 1293.76 L162.282 1289.1 L163.876 1284.46 L165.471 1279.84 
  L167.066 1275.24 L168.661 1270.67 L170.256 1266.14 L171.851 1261.64 L173.446 1257.18 L175.04 1252.77 L176.635 1248.41 L178.23 1244.11 L179.825 1239.86 L181.42 1235.68 
  L183.015 1231.57 L184.61 1227.52 L186.205 1223.55 L187.799 1219.66 L189.394 1215.84 L190.989 1212.1 L192.584 1208.45 L194.179 1204.88 L195.774 1201.4 L197.369 1198.01 
  L198.963 1194.71 L200.558 1191.49 L202.153 1188.37 L203.748 1185.34 L205.343 1182.4 L206.938 1179.55 L208.533 1176.79 L210.127 1174.13 L211.722 1171.55 L213.317 1169.06 
  L214.912 1166.66 L216.507 1164.34 L218.102 1162.1 L219.697 1159.95 L221.292 1157.87 L222.886 1155.87 L224.481 1153.94 L226.076 1152.08 L227.671 1150.29 L229.266 1148.57 
  L230.861 1146.9 L232.456 1145.29 L234.05 1143.74 L235.645 1142.24 L237.24 1140.78 L238.835 1139.37 L240.43 1137.99 L242.025 1136.65 L243.62 1135.34 L245.214 1134.06 
  L246.809 1132.8 L248.404 1131.56 L249.999 1130.34 L251.594 1129.13 L253.189 1127.93 L254.784 1126.73 L256.379 1125.53 L257.973 1124.33 L259.568 1123.13 L261.163 1121.91 
  L262.758 1120.68 L264.353 1119.44 L265.948 1118.18 L267.543 1116.9 L269.137 1115.6 L270.732 1114.27 L272.327 1112.91 L273.922 1111.53 L275.517 1110.11 L277.112 1108.66 
  L278.707 1107.17 L280.302 1105.65 L281.896 1104.09 L283.491 1102.49 L285.086 1100.85 L286.681 1099.18 L288.276 1097.46 L289.871 1095.7 L291.466 1093.89 L293.06 1092.05 
  L294.655 1090.16 L296.25 1088.23 L297.845 1086.26 L299.44 1084.25 L301.035 1082.19 L302.63 1080.1 L304.224 1077.96 L305.819 1075.78 L307.414 1073.56 L309.009 1071.3 
  L309.009 1479.3 L307.414 1479.3 L305.819 1479.3 L304.224 1479.3 L302.63 1479.3 L301.035 1479.3 L299.44 1479.3 L297.845 1479.3 L296.25 1479.3 L294.655 1479.3 
  L293.06 1479.3 L291.466 1479.3 L289.871 1479.3 L288.276 1479.3 L286.681 1479.3 L285.086 1479.3 L283.491 1479.3 L281.896 1479.3 L280.302 1479.3 L278.707 1479.3 
  L277.112 1479.3 L275.517 1479.3 L273.922 1479.3 L272.327 1479.3 L270.732 1479.3 L269.137 1479.3 L267.543 1479.3 L265.948 1479.3 L264.353 1479.3 L262.758 1479.3 
  L261.163 1479.3 L259.568 1479.3 L257.973 1479.3 L256.379 1479.3 L254.784 1479.3 L253.189 1479.3 L251.594 1479.3 L249.999 1479.3 L248.404 1479.3 L246.809 1479.3 
  L245.214 1479.3 L243.62 1479.3 L242.025 1479.3 L240.43 1479.3 L238.835 1479.3 L237.24 1479.3 L235.645 1479.3 L234.05 1479.3 L232.456 1479.3 L230.861 1479.3 
  L229.266 1479.3 L227.671 1479.3 L226.076 1479.3 L224.481 1479.3 L222.886 1479.3 L221.292 1479.3 L219.697 1479.3 L218.102 1479.3 L216.507 1479.3 L214.912 1479.3 
  L213.317 1479.3 L211.722 1479.3 L210.127 1479.3 L208.533 1479.3 L206.938 1479.3 L205.343 1479.3 L203.748 1479.3 L202.153 1479.3 L200.558 1479.3 L198.963 1479.3 
  L197.369 1479.3 L195.774 1479.3 L194.179 1479.3 L192.584 1479.3 L190.989 1479.3 L189.394 1479.3 L187.799 1479.3 L186.205 1479.3 L184.61 1479.3 L183.015 1479.3 
  L181.42 1479.3 L179.825 1479.3 L178.23 1479.3 L176.635 1479.3 L175.04 1479.3 L173.446 1479.3 L171.851 1479.3 L170.256 1479.3 L168.661 1479.3 L167.066 1479.3 
  L165.471 1479.3 L163.876 1479.3 L162.282 1479.3 L160.687 1479.3 L159.092 1479.3 L157.497 1479.3 L155.902 1479.3 L154.307 1479.3 L152.712 1479.3 L151.118 1479.3 
   Z
  " fill="#ffa500" fill-rule="evenodd" fill-opacity="0.5"/>
<polyline clip-path="url(#clip352)" style="stroke:#ffa500; stroke-width:4; stroke-opacity:1; fill:none" points="
  151.118,1321.69 152.712,1317.06 154.307,1312.41 155.902,1307.75 157.497,1303.09 159.092,1298.42 160.687,1293.76 162.282,1289.1 163.876,1284.46 165.471,1279.84 
  167.066,1275.24 168.661,1270.67 170.256,1266.14 171.851,1261.64 173.446,1257.18 175.04,1252.77 176.635,1248.41 178.23,1244.11 179.825,1239.86 181.42,1235.68 
  183.015,1231.57 184.61,1227.52 186.205,1223.55 187.799,1219.66 189.394,1215.84 190.989,1212.1 192.584,1208.45 194.179,1204.88 195.774,1201.4 197.369,1198.01 
  198.963,1194.71 200.558,1191.49 202.153,1188.37 203.748,1185.34 205.343,1182.4 206.938,1179.55 208.533,1176.79 210.127,1174.13 211.722,1171.55 213.317,1169.06 
  214.912,1166.66 216.507,1164.34 218.102,1162.1 219.697,1159.95 221.292,1157.87 222.886,1155.87 224.481,1153.94 226.076,1152.08 227.671,1150.29 229.266,1148.57 
  230.861,1146.9 232.456,1145.29 234.05,1143.74 235.645,1142.24 237.24,1140.78 238.835,1139.37 240.43,1137.99 242.025,1136.65 243.62,1135.34 245.214,1134.06 
  246.809,1132.8 248.404,1131.56 249.999,1130.34 251.594,1129.13 253.189,1127.93 254.784,1126.73 256.379,1125.53 257.973,1124.33 259.568,1123.13 261.163,1121.91 
  262.758,1120.68 264.353,1119.44 265.948,1118.18 267.543,1116.9 269.137,1115.6 270.732,1114.27 272.327,1112.91 273.922,1111.53 275.517,1110.11 277.112,1108.66 
  278.707,1107.17 280.302,1105.65 281.896,1104.09 283.491,1102.49 285.086,1100.85 286.681,1099.18 288.276,1097.46 289.871,1095.7 291.466,1093.89 293.06,1092.05 
  294.655,1090.16 296.25,1088.23 297.845,1086.26 299.44,1084.25 301.035,1082.19 302.63,1080.1 304.224,1077.96 305.819,1075.78 307.414,1073.56 309.009,1071.3 
  
  "/>
<path clip-path="url(#clip352)" d="
M309.009 1071.3 L325.412 1045.86 L341.814 1016.88 L358.217 985.078 L374.62 951.491 L391.023 917.513 L407.425 884.124 L423.828 850.631 L440.231 814.058 L456.634 770.175 
  L473.036 715.79 L489.439 650.791 L505.842 578.445 L522.244 503.817 L538.647 431.54 L555.05 364.408 L571.453 303.43 L587.855 248.845 L604.258 201.06 L620.661 160.892 
  L637.063 129.211 L653.466 106.567 L669.869 93.1507 L686.272 88.9544 L702.674 93.6958 L719.077 106.409 L735.48 125.159 L751.882 147.501 L768.285 171.703 L784.688 197.898 
  L801.091 228.12 L817.493 264.873 L833.896 309.037 L850.299 358.493 L866.701 408.415 L883.104 453.069 L899.507 488.068 L915.91 511.888 L932.312 526.089 L948.715 534.432 
  L965.118 541.46 L981.52 551.134 L997.923 565.98 L1014.33 587.028 L1030.73 614.412 L1047.13 648.174 L1063.53 688.68 L1079.94 736.404 L1096.34 791.281 L1112.74 852.101 
  L1129.14 916.378 L1145.55 980.777 L1161.95 1041.86 L1178.35 1096.7 L1194.76 1143.27 L1211.16 1180.49 L1227.56 1208.24 L1243.96 1227.23 L1260.37 1238.91 L1276.77 1245.21 
  L1293.17 1248.29 L1309.57 1250.25 L1325.98 1252.77 L1342.38 1256.9 L1358.78 1262.93 L1375.19 1270.55 L1391.59 1279.12 L1407.99 1288.03 L1424.39 1296.91 L1440.8 1305.56 
  L1457.2 1313.84 L1473.6 1321.58 L1490 1328.59 L1506.41 1334.77 L1522.81 1339.99 L1539.21 1343.87 L1555.62 1345.86 L1572.02 1345.56 L1588.42 1343.28 L1604.82 1340.19 
  L1621.23 1337.86 L1637.63 1337.53 L1654.03 1339.65 L1670.43 1343.83 L1686.84 1349.28 L1703.24 1355.14 L1719.64 1360.68 L1736.05 1365.37 L1752.45 1368.86 L1768.85 1371.12 
  L1785.25 1372.4 L1801.66 1373.22 L1818.06 1374.19 L1834.46 1375.7 L1850.86 1377.67 L1867.27 1379.39 L1883.67 1379.72 L1900.07 1377.59 L1916.48 1372.56 L1932.88 1365.03 
  L1932.88 1479.3 L1916.48 1479.3 L1900.07 1479.3 L1883.67 1479.3 L1867.27 1479.3 L1850.86 1479.3 L1834.46 1479.3 L1818.06 1479.3 L1801.66 1479.3 L1785.25 1479.3 
  L1768.85 1479.3 L1752.45 1479.3 L1736.05 1479.3 L1719.64 1479.3 L1703.24 1479.3 L1686.84 1479.3 L1670.43 1479.3 L1654.03 1479.3 L1637.63 1479.3 L1621.23 1479.3 
  L1604.82 1479.3 L1588.42 1479.3 L1572.02 1479.3 L1555.62 1479.3 L1539.21 1479.3 L1522.81 1479.3 L1506.41 1479.3 L1490 1479.3 L1473.6 1479.3 L1457.2 1479.3 
  L1440.8 1479.3 L1424.39 1479.3 L1407.99 1479.3 L1391.59 1479.3 L1375.19 1479.3 L1358.78 1479.3 L1342.38 1479.3 L1325.98 1479.3 L1309.57 1479.3 L1293.17 1479.3 
  L1276.77 1479.3 L1260.37 1479.3 L1243.96 1479.3 L1227.56 1479.3 L1211.16 1479.3 L1194.76 1479.3 L1178.35 1479.3 L1161.95 1479.3 L1145.55 1479.3 L1129.14 1479.3 
  L1112.74 1479.3 L1096.34 1479.3 L1079.94 1479.3 L1063.53 1479.3 L1047.13 1479.3 L1030.73 1479.3 L1014.33 1479.3 L997.923 1479.3 L981.52 1479.3 L965.118 1479.3 
  L948.715 1479.3 L932.312 1479.3 L915.91 1479.3 L899.507 1479.3 L883.104 1479.3 L866.701 1479.3 L850.299 1479.3 L833.896 1479.3 L817.493 1479.3 L801.091 1479.3 
  L784.688 1479.3 L768.285 1479.3 L751.882 1479.3 L735.48 1479.3 L719.077 1479.3 L702.674 1479.3 L686.272 1479.3 L669.869 1479.3 L653.466 1479.3 L637.063 1479.3 
  L620.661 1479.3 L604.258 1479.3 L587.855 1479.3 L571.453 1479.3 L555.05 1479.3 L538.647 1479.3 L522.244 1479.3 L505.842 1479.3 L489.439 1479.3 L473.036 1479.3 
  L456.634 1479.3 L440.231 1479.3 L423.828 1479.3 L407.425 1479.3 L391.023 1479.3 L374.62 1479.3 L358.217 1479.3 L341.814 1479.3 L325.412 1479.3 L309.009 1479.3 
   Z
  " fill="#008000" fill-rule="evenodd" fill-opacity="0.5"/>
<polyline clip-path="url(#clip352)" style="stroke:#008000; stroke-width:4; stroke-opacity:1; fill:none" points="
  309.009,1071.3 325.412,1045.86 341.814,1016.88 358.217,985.078 374.62,951.491 391.023,917.513 407.425,884.124 423.828,850.631 440.231,814.058 456.634,770.175 
  473.036,715.79 489.439,650.791 505.842,578.445 522.244,503.817 538.647,431.54 555.05,364.408 571.453,303.43 587.855,248.845 604.258,201.06 620.661,160.892 
  637.063,129.211 653.466,106.567 669.869,93.1507 686.272,88.9544 702.674,93.6958 719.077,106.409 735.48,125.159 751.882,147.501 768.285,171.703 784.688,197.898 
  801.091,228.12 817.493,264.873 833.896,309.037 850.299,358.493 866.701,408.415 883.104,453.069 899.507,488.068 915.91,511.888 932.312,526.089 948.715,534.432 
  965.118,541.46 981.52,551.134 997.923,565.98 1014.33,587.028 1030.73,614.412 1047.13,648.174 1063.53,688.68 1079.94,736.404 1096.34,791.281 1112.74,852.101 
  1129.14,916.378 1145.55,980.777 1161.95,1041.86 1178.35,1096.7 1194.76,1143.27 1211.16,1180.49 1227.56,1208.24 1243.96,1227.23 1260.37,1238.91 1276.77,1245.21 
  1293.17,1248.29 1309.57,1250.25 1325.98,1252.77 1342.38,1256.9 1358.78,1262.93 1375.19,1270.55 1391.59,1279.12 1407.99,1288.03 1424.39,1296.91 1440.8,1305.56 
  1457.2,1313.84 1473.6,1321.58 1490,1328.59 1506.41,1334.77 1522.81,1339.99 1539.21,1343.87 1555.62,1345.86 1572.02,1345.56 1588.42,1343.28 1604.82,1340.19 
  1621.23,1337.86 1637.63,1337.53 1654.03,1339.65 1670.43,1343.83 1686.84,1349.28 1703.24,1355.14 1719.64,1360.68 1736.05,1365.37 1752.45,1368.86 1768.85,1371.12 
  1785.25,1372.4 1801.66,1373.22 1818.06,1374.19 1834.46,1375.7 1850.86,1377.67 1867.27,1379.39 1883.67,1379.72 1900.07,1377.59 1916.48,1372.56 1932.88,1365.03 
  
  "/>
<path clip-path="url(#clip352)" d="
M1932.88 1365.03 L1936.47 1363.15 L1940.06 1361.21 L1943.66 1359.23 L1947.25 1357.22 L1950.85 1355.19 L1954.44 1353.14 L1958.03 1351.1 L1961.63 1349.07 L1965.22 1347.06 
  L1968.81 1345.07 L1972.41 1343.1 L1976 1341.17 L1979.59 1339.26 L1983.19 1337.39 L1986.78 1335.56 L1990.37 1333.76 L1993.97 1331.99 L1997.56 1330.25 L2001.15 1328.55 
  L2004.75 1326.88 L2008.34 1325.24 L2011.93 1323.64 L2015.53 1322.08 L2019.12 1320.55 L2022.71 1319.07 L2026.31 1317.63 L2029.9 1316.24 L2033.49 1314.92 L2037.09 1313.65 
  L2040.68 1312.46 L2044.28 1311.35 L2047.87 1310.32 L2051.46 1309.38 L2055.06 1308.54 L2058.65 1307.81 L2062.24 1307.19 L2065.84 1306.69 L2069.43 1306.31 L2073.02 1306.05 
  L2076.62 1305.91 L2080.21 1305.89 L2083.8 1306 L2087.4 1306.23 L2090.99 1306.57 L2094.58 1307.03 L2098.18 1307.59 L2101.77 1308.25 L2105.36 1309.01 L2108.96 1309.85 
  L2112.55 1310.77 L2116.14 1311.76 L2119.74 1312.82 L2123.33 1313.93 L2126.92 1315.1 L2130.52 1316.31 L2134.11 1317.56 L2137.71 1318.84 L2141.3 1320.16 L2144.89 1321.51 
  L2148.49 1322.89 L2152.08 1324.29 L2155.67 1325.72 L2159.27 1327.18 L2162.86 1328.67 L2166.45 1330.2 L2170.05 1331.76 L2173.64 1333.36 L2177.23 1335.01 L2180.83 1336.71 
  L2184.42 1338.47 L2188.01 1340.29 L2191.61 1342.19 L2195.2 1344.17 L2198.79 1346.23 L2202.39 1348.39 L2205.98 1350.65 L2209.57 1353.02 L2213.17 1355.51 L2216.76 1358.12 
  L2220.35 1360.85 L2223.95 1363.72 L2227.54 1366.71 L2231.14 1369.84 L2234.73 1373.09 L2238.32 1376.48 L2241.92 1379.98 L2245.51 1383.6 L2249.1 1387.32 L2252.7 1391.13 
  L2256.29 1395.02 L2259.88 1398.97 L2263.48 1402.97 L2267.07 1407 L2270.66 1411.04 L2274.26 1415.06 L2277.85 1419.06 L2281.44 1423 L2285.04 1426.88 L2288.63 1430.67 
  L2288.63 1479.3 L2285.04 1479.3 L2281.44 1479.3 L2277.85 1479.3 L2274.26 1479.3 L2270.66 1479.3 L2267.07 1479.3 L2263.48 1479.3 L2259.88 1479.3 L2256.29 1479.3 
  L2252.7 1479.3 L2249.1 1479.3 L2245.51 1479.3 L2241.92 1479.3 L2238.32 1479.3 L2234.73 1479.3 L2231.14 1479.3 L2227.54 1479.3 L2223.95 1479.3 L2220.35 1479.3 
  L2216.76 1479.3 L2213.17 1479.3 L2209.57 1479.3 L2205.98 1479.3 L2202.39 1479.3 L2198.79 1479.3 L2195.2 1479.3 L2191.61 1479.3 L2188.01 1479.3 L2184.42 1479.3 
  L2180.83 1479.3 L2177.23 1479.3 L2173.64 1479.3 L2170.05 1479.3 L2166.45 1479.3 L2162.86 1479.3 L2159.27 1479.3 L2155.67 1479.3 L2152.08 1479.3 L2148.49 1479.3 
  L2144.89 1479.3 L2141.3 1479.3 L2137.71 1479.3 L2134.11 1479.3 L2130.52 1479.3 L2126.92 1479.3 L2123.33 1479.3 L2119.74 1479.3 L2116.14 1479.3 L2112.55 1479.3 
  L2108.96 1479.3 L2105.36 1479.3 L2101.77 1479.3 L2098.18 1479.3 L2094.58 1479.3 L2090.99 1479.3 L2087.4 1479.3 L2083.8 1479.3 L2080.21 1479.3 L2076.62 1479.3 
  L2073.02 1479.3 L2069.43 1479.3 L2065.84 1479.3 L2062.24 1479.3 L2058.65 1479.3 L2055.06 1479.3 L2051.46 1479.3 L2047.87 1479.3 L2044.28 1479.3 L2040.68 1479.3 
  L2037.09 1479.3 L2033.49 1479.3 L2029.9 1479.3 L2026.31 1479.3 L2022.71 1479.3 L2019.12 1479.3 L2015.53 1479.3 L2011.93 1479.3 L2008.34 1479.3 L2004.75 1479.3 
  L2001.15 1479.3 L1997.56 1479.3 L1993.97 1479.3 L1990.37 1479.3 L1986.78 1479.3 L1983.19 1479.3 L1979.59 1479.3 L1976 1479.3 L1972.41 1479.3 L1968.81 1479.3 
  L1965.22 1479.3 L1961.63 1479.3 L1958.03 1479.3 L1954.44 1479.3 L1950.85 1479.3 L1947.25 1479.3 L1943.66 1479.3 L1940.06 1479.3 L1936.47 1479.3 L1932.88 1479.3 
   Z
  " fill="#ffa500" fill-rule="evenodd" fill-opacity="0.5"/>
<polyline clip-path="url(#clip352)" style="stroke:#ffa500; stroke-width:4; stroke-opacity:1; fill:none" points="
  1932.88,1365.03 1936.47,1363.15 1940.06,1361.21 1943.66,1359.23 1947.25,1357.22 1950.85,1355.19 1954.44,1353.14 1958.03,1351.1 1961.63,1349.07 1965.22,1347.06 
  1968.81,1345.07 1972.41,1343.1 1976,1341.17 1979.59,1339.26 1983.19,1337.39 1986.78,1335.56 1990.37,1333.76 1993.97,1331.99 1997.56,1330.25 2001.15,1328.55 
  2004.75,1326.88 2008.34,1325.24 2011.93,1323.64 2015.53,1322.08 2019.12,1320.55 2022.71,1319.07 2026.31,1317.63 2029.9,1316.24 2033.49,1314.92 2037.09,1313.65 
  2040.68,1312.46 2044.28,1311.35 2047.87,1310.32 2051.46,1309.38 2055.06,1308.54 2058.65,1307.81 2062.24,1307.19 2065.84,1306.69 2069.43,1306.31 2073.02,1306.05 
  2076.62,1305.91 2080.21,1305.89 2083.8,1306 2087.4,1306.23 2090.99,1306.57 2094.58,1307.03 2098.18,1307.59 2101.77,1308.25 2105.36,1309.01 2108.96,1309.85 
  2112.55,1310.77 2116.14,1311.76 2119.74,1312.82 2123.33,1313.93 2126.92,1315.1 2130.52,1316.31 2134.11,1317.56 2137.71,1318.84 2141.3,1320.16 2144.89,1321.51 
  2148.49,1322.89 2152.08,1324.29 2155.67,1325.72 2159.27,1327.18 2162.86,1328.67 2166.45,1330.2 2170.05,1331.76 2173.64,1333.36 2177.23,1335.01 2180.83,1336.71 
  2184.42,1338.47 2188.01,1340.29 2191.61,1342.19 2195.2,1344.17 2198.79,1346.23 2202.39,1348.39 2205.98,1350.65 2209.57,1353.02 2213.17,1355.51 2216.76,1358.12 
  2220.35,1360.85 2223.95,1363.72 2227.54,1366.71 2231.14,1369.84 2234.73,1373.09 2238.32,1376.48 2241.92,1379.98 2245.51,1383.6 2249.1,1387.32 2252.7,1391.13 
  2256.29,1395.02 2259.88,1398.97 2263.48,1402.97 2267.07,1407 2270.66,1411.04 2274.26,1415.06 2277.85,1419.06 2281.44,1423 2285.04,1426.88 2288.63,1430.67 
  
  "/>
<polyline clip-path="url(#clip352)" style="stroke:#0000ff; stroke-width:4; stroke-opacity:1; fill:none" points="
  871.563,1479.3 871.563,422.44 
  "/>
<polyline clip-path="url(#clip352)" style="stroke:#000000; stroke-width:4; stroke-opacity:1; fill:none" points="
  783.147,1479.3 783.147,195.308 
  "/>
<path clip-path="url(#clip350)" d="
M1494.58 459.25 L2277.23 459.25 L2277.23 96.3696 L1494.58 96.3696  Z
  " fill="#ffffff" fill-rule="evenodd" fill-opacity="1"/>
<polyline clip-path="url(#clip350)" style="stroke:#000000; stroke-width:4; stroke-opacity:1; fill:none" points="
  1494.58,459.25 2277.23,459.25 2277.23,96.3696 1494.58,96.3696 1494.58,459.25 
  "/>
<path clip-path="url(#clip350)" d="
M1519.75 181.042 L1670.81 181.042 L1670.81 132.658 L1519.75 132.658 L1519.75 181.042  Z
  " fill="#ffa500" fill-rule="evenodd" fill-opacity="0.5"/>
<polyline clip-path="url(#clip350)" style="stroke:#ffa500; stroke-width:4; stroke-opacity:1; fill:none" points="
  1519.75,132.658 1670.81,132.658 
  "/>
<path clip-path="url(#clip350)" d="M 0 0 M1700.38 161.19 Q1700.38 165.889 1702.3 168.574 Q1704.24 171.236 1707.62 171.236 Q1711 171.236 1712.95 168.574 Q1714.89 165.889 1714.89 161.19 Q1714.89 156.491 1712.95 153.829 Q1711 151.144 1707.62 151.144 Q1704.24 151.144 1702.3 153.829 Q1700.38 156.491 1700.38 161.19 M1714.89 170.241 Q1713.55 172.555 1711.49 173.69 Q1709.45 174.801 1706.58 174.801 Q1701.88 174.801 1698.92 171.051 Q1695.98 167.301 1695.98 161.19 Q1695.98 155.079 1698.92 151.329 Q1701.88 147.579 1706.58 147.579 Q1709.45 147.579 1711.49 148.713 Q1713.55 149.824 1714.89 152.139 L1714.89 148.204 L1719.15 148.204 L1719.15 183.991 L1714.89 183.991 L1714.89 170.241 Z" fill="#000000" fill-rule="evenodd" fill-opacity="1" /><path clip-path="url(#clip350)" d="M 0 0 M1734.22 142.648 Q1730.61 142.648 1728.78 146.213 Q1726.98 149.755 1726.98 156.884 Q1726.98 163.991 1728.78 167.556 Q1730.61 171.097 1734.22 171.097 Q1737.85 171.097 1739.66 167.556 Q1741.49 163.991 1741.49 156.884 Q1741.49 149.755 1739.66 146.213 Q1737.85 142.648 1734.22 142.648 M1734.22 138.945 Q1740.03 138.945 1743.09 143.551 Q1746.17 148.134 1746.17 156.884 Q1746.17 165.611 1743.09 170.218 Q1740.03 174.801 1734.22 174.801 Q1728.41 174.801 1725.33 170.218 Q1722.28 165.611 1722.28 156.884 Q1722.28 148.134 1725.33 143.551 Q1728.41 138.945 1734.22 138.945 Z" fill="#000000" fill-rule="evenodd" fill-opacity="1" /><path clip-path="url(#clip350)" d="M 0 0 M1751.28 139.57 L1769.64 139.57 L1769.64 143.505 L1755.56 143.505 L1755.56 151.977 Q1756.58 151.63 1757.6 151.468 Q1758.62 151.282 1759.64 151.282 Q1765.42 151.282 1768.8 154.454 Q1772.18 157.625 1772.18 163.042 Q1772.18 168.62 1768.71 171.722 Q1765.24 174.801 1758.92 174.801 Q1756.74 174.801 1754.48 174.43 Q1752.23 174.06 1749.82 173.319 L1749.82 168.62 Q1751.91 169.755 1754.13 170.31 Q1756.35 170.866 1758.83 170.866 Q1762.83 170.866 1765.17 168.759 Q1767.51 166.653 1767.51 163.042 Q1767.51 159.431 1765.17 157.324 Q1762.83 155.218 1758.83 155.218 Q1756.95 155.218 1755.08 155.634 Q1753.23 156.051 1751.28 156.931 L1751.28 139.57 Z" fill="#000000" fill-rule="evenodd" fill-opacity="1" /><path clip-path="url(#clip350)" d="
M1519.75 241.522 L1670.81 241.522 L1670.81 193.138 L1519.75 193.138 L1519.75 241.522  Z
  " fill="#008000" fill-rule="evenodd" fill-opacity="0.5"/>
<polyline clip-path="url(#clip350)" style="stroke:#008000; stroke-width:4; stroke-opacity:1; fill:none" points="
  1519.75,193.138 1670.81,193.138 
  "/>
<path clip-path="url(#clip350)" d="M 0 0 M1698.2 233.892 L1698.2 229.633 Q1699.96 230.466 1701.77 230.906 Q1703.57 231.346 1705.31 231.346 Q1709.94 231.346 1712.37 228.244 Q1714.82 225.119 1715.17 218.776 Q1713.83 220.767 1711.77 221.832 Q1709.71 222.897 1707.21 222.897 Q1702.02 222.897 1698.99 219.772 Q1695.98 216.624 1695.98 211.184 Q1695.98 205.86 1699.13 202.642 Q1702.28 199.425 1707.51 199.425 Q1713.5 199.425 1716.65 204.031 Q1719.82 208.614 1719.82 217.364 Q1719.82 225.536 1715.93 230.42 Q1712.07 235.281 1705.52 235.281 Q1703.76 235.281 1701.95 234.934 Q1700.15 234.586 1698.2 233.892 M1707.51 219.239 Q1710.66 219.239 1712.48 217.086 Q1714.34 214.934 1714.34 211.184 Q1714.34 207.457 1712.48 205.304 Q1710.66 203.128 1707.51 203.128 Q1704.36 203.128 1702.51 205.304 Q1700.68 207.457 1700.68 211.184 Q1700.68 214.934 1702.51 217.086 Q1704.36 219.239 1707.51 219.239 Z" fill="#000000" fill-rule="evenodd" fill-opacity="1" /><path clip-path="url(#clip350)" d="M 0 0 M1734.89 203.128 Q1731.28 203.128 1729.45 206.693 Q1727.65 210.235 1727.65 217.364 Q1727.65 224.471 1729.45 228.036 Q1731.28 231.577 1734.89 231.577 Q1738.53 231.577 1740.33 228.036 Q1742.16 224.471 1742.16 217.364 Q1742.16 210.235 1740.33 206.693 Q1738.53 203.128 1734.89 203.128 M1734.89 199.425 Q1740.7 199.425 1743.76 204.031 Q1746.84 208.614 1746.84 217.364 Q1746.84 226.091 1743.76 230.698 Q1740.7 235.281 1734.89 235.281 Q1729.08 235.281 1726 230.698 Q1722.95 226.091 1722.95 217.364 Q1722.95 208.614 1726 204.031 Q1729.08 199.425 1734.89 199.425 Z" fill="#000000" fill-rule="evenodd" fill-opacity="1" /><path clip-path="url(#clip350)" d="M 0 0 M1781.3 219.401 Q1779.29 219.401 1778.13 221.114 Q1777 222.827 1777 225.883 Q1777 228.892 1778.13 230.628 Q1779.29 232.341 1781.3 232.341 Q1783.27 232.341 1784.41 230.628 Q1785.56 228.892 1785.56 225.883 Q1785.56 222.85 1784.41 221.137 Q1783.27 219.401 1781.3 219.401 M1781.3 216.462 Q1784.96 216.462 1787.11 219.008 Q1789.27 221.554 1789.27 225.883 Q1789.27 230.211 1787.09 232.758 Q1784.94 235.281 1781.3 235.281 Q1777.6 235.281 1775.45 232.758 Q1773.29 230.211 1773.29 225.883 Q1773.29 221.531 1775.45 219.008 Q1777.62 216.462 1781.3 216.462 M1757.42 202.364 Q1755.42 202.364 1754.27 204.1 Q1753.13 205.813 1753.13 208.823 Q1753.13 211.878 1754.27 213.591 Q1755.4 215.304 1757.42 215.304 Q1759.43 215.304 1760.56 213.591 Q1761.72 211.878 1761.72 208.823 Q1761.72 205.837 1760.56 204.1 Q1759.41 202.364 1757.42 202.364 M1778.32 199.425 L1782.02 199.425 L1760.4 235.281 L1756.7 235.281 L1778.32 199.425 M1757.42 199.425 Q1761.07 199.425 1763.25 201.971 Q1765.42 204.494 1765.42 208.823 Q1765.42 213.198 1763.25 215.721 Q1761.1 218.244 1757.42 218.244 Q1753.73 218.244 1751.58 215.721 Q1749.45 213.174 1749.45 208.823 Q1749.45 204.517 1751.6 201.971 Q1753.76 199.425 1757.42 199.425 Z" fill="#000000" fill-rule="evenodd" fill-opacity="1" /><path clip-path="url(#clip350)" d="M 0 0 M1830.35 218.961 L1830.35 234.61 L1826.1 234.61 L1826.1 219.1 Q1826.1 215.42 1824.66 213.591 Q1823.22 211.762 1820.35 211.762 Q1816.91 211.762 1814.91 213.962 Q1812.92 216.161 1812.92 219.957 L1812.92 234.61 L1808.64 234.61 L1808.64 208.684 L1812.92 208.684 L1812.92 212.712 Q1814.45 210.374 1816.51 209.216 Q1818.6 208.059 1821.3 208.059 Q1825.77 208.059 1828.06 210.837 Q1830.35 213.591 1830.35 218.961 Z" fill="#000000" fill-rule="evenodd" fill-opacity="1" /><path clip-path="url(#clip350)" d="M 0 0 M1844.87 211.67 Q1841.44 211.67 1839.45 214.355 Q1837.46 217.017 1837.46 221.67 Q1837.46 226.323 1839.43 229.008 Q1841.42 231.67 1844.87 231.67 Q1848.27 231.67 1850.26 228.985 Q1852.25 226.299 1852.25 221.67 Q1852.25 217.063 1850.26 214.378 Q1848.27 211.67 1844.87 211.67 M1844.87 208.059 Q1850.42 208.059 1853.6 211.67 Q1856.77 215.281 1856.77 221.67 Q1856.77 228.036 1853.6 231.67 Q1850.42 235.281 1844.87 235.281 Q1839.29 235.281 1836.12 231.67 Q1832.97 228.036 1832.97 221.67 Q1832.97 215.281 1836.12 211.67 Q1839.29 208.059 1844.87 208.059 Z" fill="#000000" fill-rule="evenodd" fill-opacity="1" /><path clip-path="url(#clip350)" d="M 0 0 M1882.78 218.961 L1882.78 234.61 L1878.53 234.61 L1878.53 219.1 Q1878.53 215.42 1877.09 213.591 Q1875.66 211.762 1872.78 211.762 Q1869.34 211.762 1867.35 213.962 Q1865.35 216.161 1865.35 219.957 L1865.35 234.61 L1861.07 234.61 L1861.07 208.684 L1865.35 208.684 L1865.35 212.712 Q1866.88 210.374 1868.94 209.216 Q1871.03 208.059 1873.73 208.059 Q1878.2 208.059 1880.49 210.837 Q1882.78 213.591 1882.78 218.961 Z" fill="#000000" fill-rule="evenodd" fill-opacity="1" /><path clip-path="url(#clip350)" d="M 0 0 M1885.1 219.725 L1897.58 219.725 L1897.58 223.522 L1885.1 223.522 L1885.1 219.725 Z" fill="#000000" fill-rule="evenodd" fill-opacity="1" /><path clip-path="url(#clip350)" d="M 0 0 M1917.07 212.665 Q1916.35 212.249 1915.49 212.063 Q1914.66 211.855 1913.64 211.855 Q1910.03 211.855 1908.09 214.216 Q1906.16 216.554 1906.16 220.952 L1906.16 234.61 L1901.88 234.61 L1901.88 208.684 L1906.16 208.684 L1906.16 212.712 Q1907.51 210.35 1909.66 209.216 Q1911.81 208.059 1914.89 208.059 Q1915.33 208.059 1915.86 208.128 Q1916.4 208.175 1917.04 208.29 L1917.07 212.665 Z" fill="#000000" fill-rule="evenodd" fill-opacity="1" /><path clip-path="url(#clip350)" d="M 0 0 M1942.67 220.582 L1942.67 222.665 L1923.09 222.665 Q1923.36 227.063 1925.72 229.378 Q1928.11 231.67 1932.34 231.67 Q1934.8 231.67 1937.09 231.068 Q1939.4 230.466 1941.67 229.262 L1941.67 233.29 Q1939.38 234.262 1936.97 234.772 Q1934.57 235.281 1932.09 235.281 Q1925.89 235.281 1922.25 231.67 Q1918.64 228.059 1918.64 221.901 Q1918.64 215.536 1922.07 211.809 Q1925.52 208.059 1931.35 208.059 Q1936.58 208.059 1939.61 211.438 Q1942.67 214.795 1942.67 220.582 M1938.41 219.332 Q1938.36 215.837 1936.44 213.753 Q1934.54 211.67 1931.4 211.67 Q1927.83 211.67 1925.68 213.684 Q1923.55 215.698 1923.22 219.355 L1938.41 219.332 Z" fill="#000000" fill-rule="evenodd" fill-opacity="1" /><path clip-path="url(#clip350)" d="M 0 0 M1947.14 208.684 L1951.4 208.684 L1951.4 235.073 Q1951.4 240.026 1949.5 242.248 Q1947.62 244.471 1943.43 244.471 L1941.81 244.471 L1941.81 240.86 L1942.95 240.86 Q1945.38 240.86 1946.26 239.725 Q1947.14 238.614 1947.14 235.073 L1947.14 208.684 M1947.14 198.591 L1951.4 198.591 L1951.4 203.985 L1947.14 203.985 L1947.14 198.591 Z" fill="#000000" fill-rule="evenodd" fill-opacity="1" /><path clip-path="url(#clip350)" d="M 0 0 M1978.04 220.582 L1978.04 222.665 L1958.46 222.665 Q1958.73 227.063 1961.09 229.378 Q1963.48 231.67 1967.71 231.67 Q1970.17 231.67 1972.46 231.068 Q1974.78 230.466 1977.04 229.262 L1977.04 233.29 Q1974.75 234.262 1972.34 234.772 Q1969.94 235.281 1967.46 235.281 Q1961.26 235.281 1957.62 231.67 Q1954.01 228.059 1954.01 221.901 Q1954.01 215.536 1957.44 211.809 Q1960.89 208.059 1966.72 208.059 Q1971.95 208.059 1974.98 211.438 Q1978.04 214.795 1978.04 220.582 M1973.78 219.332 Q1973.73 215.837 1971.81 213.753 Q1969.91 211.67 1966.77 211.67 Q1963.2 211.67 1961.05 213.684 Q1958.92 215.698 1958.59 219.355 L1973.78 219.332 Z" fill="#000000" fill-rule="evenodd" fill-opacity="1" /><path clip-path="url(#clip350)" d="M 0 0 M2001.16 209.679 L2001.16 213.661 Q1999.36 212.665 1997.53 212.179 Q1995.72 211.67 1993.87 211.67 Q1989.73 211.67 1987.44 214.309 Q1985.15 216.924 1985.15 221.67 Q1985.15 226.415 1987.44 229.054 Q1989.73 231.67 1993.87 231.67 Q1995.72 231.67 1997.53 231.184 Q1999.36 230.674 2001.16 229.679 L2001.16 233.614 Q1999.38 234.448 1997.46 234.864 Q1995.56 235.281 1993.41 235.281 Q1987.55 235.281 1984.1 231.6 Q1980.65 227.92 1980.65 221.67 Q1980.65 215.327 1984.13 211.693 Q1987.62 208.059 1993.69 208.059 Q1995.65 208.059 1997.53 208.475 Q1999.4 208.869 2001.16 209.679 Z" fill="#000000" fill-rule="evenodd" fill-opacity="1" /><path clip-path="url(#clip350)" d="M 0 0 M2009.84 201.323 L2009.84 208.684 L2018.62 208.684 L2018.62 211.994 L2009.84 211.994 L2009.84 226.068 Q2009.84 229.239 2010.7 230.142 Q2011.58 231.045 2014.24 231.045 L2018.62 231.045 L2018.62 234.61 L2014.24 234.61 Q2009.31 234.61 2007.44 232.781 Q2005.56 230.929 2005.56 226.068 L2005.56 211.994 L2002.44 211.994 L2002.44 208.684 L2005.56 208.684 L2005.56 201.323 L2009.84 201.323 Z" fill="#000000" fill-rule="evenodd" fill-opacity="1" /><path clip-path="url(#clip350)" d="M 0 0 M2023.08 208.684 L2027.34 208.684 L2027.34 234.61 L2023.08 234.61 L2023.08 208.684 M2023.08 198.591 L2027.34 198.591 L2027.34 203.985 L2023.08 203.985 L2023.08 198.591 Z" fill="#000000" fill-rule="evenodd" fill-opacity="1" /><path clip-path="url(#clip350)" d="M 0 0 M2041.86 211.67 Q2038.43 211.67 2036.44 214.355 Q2034.45 217.017 2034.45 221.67 Q2034.45 226.323 2036.42 229.008 Q2038.41 231.67 2041.86 231.67 Q2045.26 231.67 2047.25 228.985 Q2049.24 226.299 2049.24 221.67 Q2049.24 217.063 2047.25 214.378 Q2045.26 211.67 2041.86 211.67 M2041.86 208.059 Q2047.41 208.059 2050.58 211.67 Q2053.76 215.281 2053.76 221.67 Q2053.76 228.036 2050.58 231.67 Q2047.41 235.281 2041.86 235.281 Q2036.28 235.281 2033.11 231.67 Q2029.96 228.036 2029.96 221.67 Q2029.96 215.281 2033.11 211.67 Q2036.28 208.059 2041.86 208.059 Z" fill="#000000" fill-rule="evenodd" fill-opacity="1" /><path clip-path="url(#clip350)" d="M 0 0 M2079.77 218.961 L2079.77 234.61 L2075.52 234.61 L2075.52 219.1 Q2075.52 215.42 2074.08 213.591 Q2072.64 211.762 2069.77 211.762 Q2066.33 211.762 2064.33 213.962 Q2062.34 216.161 2062.34 219.957 L2062.34 234.61 L2058.06 234.61 L2058.06 208.684 L2062.34 208.684 L2062.34 212.712 Q2063.87 210.374 2065.93 209.216 Q2068.02 208.059 2070.72 208.059 Q2075.19 208.059 2077.48 210.837 Q2079.77 213.591 2079.77 218.961 Z" fill="#000000" fill-rule="evenodd" fill-opacity="1" /><path clip-path="url(#clip350)" d="M 0 0 M2114.33 212.665 Q2113.62 212.249 2112.76 212.063 Q2111.93 211.855 2110.91 211.855 Q2107.3 211.855 2105.35 214.216 Q2103.43 216.554 2103.43 220.952 L2103.43 234.61 L2099.15 234.61 L2099.15 208.684 L2103.43 208.684 L2103.43 212.712 Q2104.77 210.35 2106.93 209.216 Q2109.08 208.059 2112.16 208.059 Q2112.6 208.059 2113.13 208.128 Q2113.66 208.175 2114.31 208.29 L2114.33 212.665 Z" fill="#000000" fill-rule="evenodd" fill-opacity="1" /><path clip-path="url(#clip350)" d="M 0 0 M2139.94 220.582 L2139.94 222.665 L2120.35 222.665 Q2120.63 227.063 2122.99 229.378 Q2125.38 231.67 2129.61 231.67 Q2132.07 231.67 2134.36 231.068 Q2136.67 230.466 2138.94 229.262 L2138.94 233.29 Q2136.65 234.262 2134.24 234.772 Q2131.83 235.281 2129.36 235.281 Q2123.15 235.281 2119.52 231.67 Q2115.91 228.059 2115.91 221.901 Q2115.91 215.536 2119.33 211.809 Q2122.78 208.059 2128.62 208.059 Q2133.85 208.059 2136.88 211.438 Q2139.94 214.795 2139.94 220.582 M2135.68 219.332 Q2135.63 215.837 2133.71 213.753 Q2131.81 211.67 2128.66 211.67 Q2125.1 211.67 2122.95 213.684 Q2120.82 215.698 2120.49 219.355 L2135.68 219.332 Z" fill="#000000" fill-rule="evenodd" fill-opacity="1" /><path clip-path="url(#clip350)" d="M 0 0 M2161.46 221.346 Q2161.46 216.716 2159.54 214.17 Q2157.64 211.624 2154.2 211.624 Q2150.77 211.624 2148.85 214.17 Q2146.95 216.716 2146.95 221.346 Q2146.95 225.952 2148.85 228.498 Q2150.77 231.045 2154.2 231.045 Q2157.64 231.045 2159.54 228.498 Q2161.46 225.952 2161.46 221.346 M2165.72 231.392 Q2165.72 238.012 2162.78 241.23 Q2159.84 244.471 2153.78 244.471 Q2151.53 244.471 2149.54 244.123 Q2147.55 243.799 2145.68 243.105 L2145.68 238.961 Q2147.55 239.98 2149.38 240.466 Q2151.21 240.952 2153.11 240.952 Q2157.3 240.952 2159.38 238.753 Q2161.46 236.577 2161.46 232.156 L2161.46 230.049 Q2160.14 232.341 2158.08 233.475 Q2156.02 234.61 2153.15 234.61 Q2148.39 234.61 2145.47 230.975 Q2142.55 227.341 2142.55 221.346 Q2142.55 215.327 2145.47 211.693 Q2148.39 208.059 2153.15 208.059 Q2156.02 208.059 2158.08 209.193 Q2160.14 210.327 2161.46 212.619 L2161.46 208.684 L2165.72 208.684 L2165.72 231.392 Z" fill="#000000" fill-rule="evenodd" fill-opacity="1" /><path clip-path="url(#clip350)" d="M 0 0 M2170.19 208.684 L2174.45 208.684 L2174.45 234.61 L2170.19 234.61 L2170.19 208.684 M2170.19 198.591 L2174.45 198.591 L2174.45 203.985 L2170.19 203.985 L2170.19 198.591 Z" fill="#000000" fill-rule="evenodd" fill-opacity="1" /><path clip-path="url(#clip350)" d="M 0 0 M2188.96 211.67 Q2185.54 211.67 2183.55 214.355 Q2181.56 217.017 2181.56 221.67 Q2181.56 226.323 2183.52 229.008 Q2185.51 231.67 2188.96 231.67 Q2192.37 231.67 2194.36 228.985 Q2196.35 226.299 2196.35 221.67 Q2196.35 217.063 2194.36 214.378 Q2192.37 211.67 2188.96 211.67 M2188.96 208.059 Q2194.52 208.059 2197.69 211.67 Q2200.86 215.281 2200.86 221.67 Q2200.86 228.036 2197.69 231.67 Q2194.52 235.281 2188.96 235.281 Q2183.39 235.281 2180.21 231.67 Q2177.07 228.036 2177.07 221.67 Q2177.07 215.281 2180.21 211.67 Q2183.39 208.059 2188.96 208.059 Z" fill="#000000" fill-rule="evenodd" fill-opacity="1" /><path clip-path="url(#clip350)" d="M 0 0 M2226.88 218.961 L2226.88 234.61 L2222.62 234.61 L2222.62 219.1 Q2222.62 215.42 2221.19 213.591 Q2219.75 211.762 2216.88 211.762 Q2213.43 211.762 2211.44 213.962 Q2209.45 216.161 2209.45 219.957 L2209.45 234.61 L2205.17 234.61 L2205.17 208.684 L2209.45 208.684 L2209.45 212.712 Q2210.98 210.374 2213.04 209.216 Q2215.12 208.059 2217.83 208.059 Q2222.3 208.059 2224.59 210.837 Q2226.88 213.591 2226.88 218.961 Z" fill="#000000" fill-rule="evenodd" fill-opacity="1" /><path clip-path="url(#clip350)" d="
M1519.75 302.002 L1670.81 302.002 L1670.81 253.618 L1519.75 253.618 L1519.75 302.002  Z
  " fill="#ffa500" fill-rule="evenodd" fill-opacity="0.5"/>
<polyline clip-path="url(#clip350)" style="stroke:#ffa500; stroke-width:4; stroke-opacity:1; fill:none" points="
  1519.75,253.618 1670.81,253.618 
  "/>
<path clip-path="url(#clip350)" d="M 0 0 M1700.38 282.15 Q1700.38 286.849 1702.3 289.534 Q1704.24 292.196 1707.62 292.196 Q1711 292.196 1712.95 289.534 Q1714.89 286.849 1714.89 282.15 Q1714.89 277.451 1712.95 274.789 Q1711 272.104 1707.62 272.104 Q1704.24 272.104 1702.3 274.789 Q1700.38 277.451 1700.38 282.15 M1714.89 291.201 Q1713.55 293.515 1711.49 294.65 Q1709.45 295.761 1706.58 295.761 Q1701.88 295.761 1698.92 292.011 Q1695.98 288.261 1695.98 282.15 Q1695.98 276.039 1698.92 272.289 Q1701.88 268.539 1706.58 268.539 Q1709.45 268.539 1711.49 269.673 Q1713.55 270.784 1714.89 273.099 L1714.89 269.164 L1719.15 269.164 L1719.15 304.951 L1714.89 304.951 L1714.89 291.201 Z" fill="#000000" fill-rule="evenodd" fill-opacity="1" /><path clip-path="url(#clip350)" d="M 0 0 M1724.36 294.372 L1724.36 290.113 Q1726.12 290.946 1727.92 291.386 Q1729.73 291.826 1731.47 291.826 Q1736.1 291.826 1738.53 288.724 Q1740.98 285.599 1741.33 279.256 Q1739.98 281.247 1737.92 282.312 Q1735.86 283.377 1733.36 283.377 Q1728.18 283.377 1725.15 280.252 Q1722.14 277.104 1722.14 271.664 Q1722.14 266.34 1725.29 263.122 Q1728.43 259.905 1733.67 259.905 Q1739.66 259.905 1742.81 264.511 Q1745.98 269.094 1745.98 277.844 Q1745.98 286.016 1742.09 290.9 Q1738.23 295.761 1731.67 295.761 Q1729.92 295.761 1728.11 295.414 Q1726.3 295.066 1724.36 294.372 M1733.67 279.719 Q1736.81 279.719 1738.64 277.566 Q1740.49 275.414 1740.49 271.664 Q1740.49 267.937 1738.64 265.784 Q1736.81 263.608 1733.67 263.608 Q1730.52 263.608 1728.67 265.784 Q1726.84 267.937 1726.84 271.664 Q1726.84 275.414 1728.67 277.566 Q1730.52 279.719 1733.67 279.719 Z" fill="#000000" fill-rule="evenodd" fill-opacity="1" /><path clip-path="url(#clip350)" d="M 0 0 M1751.1 260.53 L1769.45 260.53 L1769.45 264.465 L1755.38 264.465 L1755.38 272.937 Q1756.4 272.59 1757.42 272.428 Q1758.43 272.242 1759.45 272.242 Q1765.24 272.242 1768.62 275.414 Q1772 278.585 1772 284.002 Q1772 289.58 1768.53 292.682 Q1765.05 295.761 1758.73 295.761 Q1756.56 295.761 1754.29 295.39 Q1752.04 295.02 1749.64 294.279 L1749.64 289.58 Q1751.72 290.715 1753.94 291.27 Q1756.17 291.826 1758.64 291.826 Q1762.65 291.826 1764.98 289.719 Q1767.32 287.613 1767.32 284.002 Q1767.32 280.391 1764.98 278.284 Q1762.65 276.178 1758.64 276.178 Q1756.77 276.178 1754.89 276.594 Q1753.04 277.011 1751.1 277.891 L1751.1 260.53 Z" fill="#000000" fill-rule="evenodd" fill-opacity="1" /><polyline clip-path="url(#clip350)" style="stroke:#0000ff; stroke-width:4; stroke-opacity:1; fill:none" points="
  1519.75,338.29 1670.81,338.29 
  "/>
<path clip-path="url(#clip350)" d="M 0 0 M1716.33 334.621 Q1717.92 331.75 1720.15 330.385 Q1722.37 329.019 1725.38 329.019 Q1729.43 329.019 1731.63 331.866 Q1733.83 334.69 1733.83 339.921 L1733.83 355.57 L1729.54 355.57 L1729.54 340.06 Q1729.54 336.334 1728.23 334.528 Q1726.91 332.722 1724.2 332.722 Q1720.89 332.722 1718.97 334.922 Q1717.04 337.121 1717.04 340.917 L1717.04 355.57 L1712.76 355.57 L1712.76 340.06 Q1712.76 336.31 1711.44 334.528 Q1710.12 332.722 1707.37 332.722 Q1704.11 332.722 1702.18 334.945 Q1700.26 337.144 1700.26 340.917 L1700.26 355.57 L1695.98 355.57 L1695.98 329.644 L1700.26 329.644 L1700.26 333.672 Q1701.72 331.287 1703.76 330.153 Q1705.79 329.019 1708.6 329.019 Q1711.42 329.019 1713.39 330.454 Q1715.38 331.889 1716.33 334.621 Z" fill="#000000" fill-rule="evenodd" fill-opacity="1" /><path clip-path="url(#clip350)" d="M 0 0 M1760.47 341.542 L1760.47 343.625 L1740.89 343.625 Q1741.17 348.023 1743.53 350.338 Q1745.91 352.63 1750.15 352.63 Q1752.6 352.63 1754.89 352.028 Q1757.21 351.426 1759.48 350.222 L1759.48 354.25 Q1757.18 355.222 1754.78 355.732 Q1752.37 356.241 1749.89 356.241 Q1743.69 356.241 1740.05 352.63 Q1736.44 349.019 1736.44 342.861 Q1736.44 336.496 1739.87 332.769 Q1743.32 329.019 1749.15 329.019 Q1754.38 329.019 1757.42 332.398 Q1760.47 335.755 1760.47 341.542 M1756.21 340.292 Q1756.17 336.797 1754.24 334.713 Q1752.35 332.63 1749.2 332.63 Q1745.63 332.63 1743.48 334.644 Q1741.35 336.658 1741.03 340.315 L1756.21 340.292 Z" fill="#000000" fill-rule="evenodd" fill-opacity="1" /><path clip-path="url(#clip350)" d="M 0 0 M1776.72 342.537 Q1771.56 342.537 1769.57 343.718 Q1767.58 344.898 1767.58 347.746 Q1767.58 350.014 1769.06 351.357 Q1770.56 352.676 1773.13 352.676 Q1776.67 352.676 1778.8 350.176 Q1780.96 347.653 1780.96 343.486 L1780.96 342.537 L1776.72 342.537 M1785.22 340.778 L1785.22 355.57 L1780.96 355.57 L1780.96 351.634 Q1779.5 353.995 1777.32 355.13 Q1775.15 356.241 1772 356.241 Q1768.02 356.241 1765.66 354.019 Q1763.32 351.773 1763.32 348.023 Q1763.32 343.648 1766.23 341.426 Q1769.17 339.204 1774.98 339.204 L1780.96 339.204 L1780.96 338.787 Q1780.96 335.847 1779.01 334.25 Q1777.09 332.63 1773.6 332.63 Q1771.37 332.63 1769.27 333.162 Q1767.16 333.695 1765.22 334.759 L1765.22 330.824 Q1767.55 329.922 1769.75 329.482 Q1771.95 329.019 1774.04 329.019 Q1779.66 329.019 1782.44 331.935 Q1785.22 334.852 1785.22 340.778 Z" fill="#000000" fill-rule="evenodd" fill-opacity="1" /><path clip-path="url(#clip350)" d="M 0 0 M1811.23 339.921 L1811.23 355.57 L1806.97 355.57 L1806.97 340.06 Q1806.97 336.38 1805.54 334.551 Q1804.1 332.722 1801.23 332.722 Q1797.79 332.722 1795.79 334.922 Q1793.8 337.121 1793.8 340.917 L1793.8 355.57 L1789.52 355.57 L1789.52 329.644 L1793.8 329.644 L1793.8 333.672 Q1795.33 331.334 1797.39 330.176 Q1799.48 329.019 1802.18 329.019 Q1806.65 329.019 1808.94 331.797 Q1811.23 334.551 1811.23 339.921 Z" fill="#000000" fill-rule="evenodd" fill-opacity="1" /><polyline clip-path="url(#clip350)" style="stroke:#000000; stroke-width:4; stroke-opacity:1; fill:none" points="
  1519.75,398.77 1670.81,398.77 
  "/>
<path clip-path="url(#clip350)" d="M 0 0 M1716.33 395.101 Q1717.92 392.23 1720.15 390.865 Q1722.37 389.499 1725.38 389.499 Q1729.43 389.499 1731.63 392.346 Q1733.83 395.17 1733.83 400.401 L1733.83 416.05 L1729.54 416.05 L1729.54 400.54 Q1729.54 396.814 1728.23 395.008 Q1726.91 393.202 1724.2 393.202 Q1720.89 393.202 1718.97 395.402 Q1717.04 397.601 1717.04 401.397 L1717.04 416.05 L1712.76 416.05 L1712.76 400.54 Q1712.76 396.79 1711.44 395.008 Q1710.12 393.202 1707.37 393.202 Q1704.11 393.202 1702.18 395.425 Q1700.26 397.624 1700.26 401.397 L1700.26 416.05 L1695.98 416.05 L1695.98 390.124 L1700.26 390.124 L1700.26 394.152 Q1701.72 391.767 1703.76 390.633 Q1705.79 389.499 1708.6 389.499 Q1711.42 389.499 1713.39 390.934 Q1715.38 392.369 1716.33 395.101 Z" fill="#000000" fill-rule="evenodd" fill-opacity="1" /><path clip-path="url(#clip350)" d="M 0 0 M1760.47 402.022 L1760.47 404.105 L1740.89 404.105 Q1741.17 408.503 1743.53 410.818 Q1745.91 413.11 1750.15 413.11 Q1752.6 413.11 1754.89 412.508 Q1757.21 411.906 1759.48 410.702 L1759.48 414.73 Q1757.18 415.702 1754.78 416.212 Q1752.37 416.721 1749.89 416.721 Q1743.69 416.721 1740.05 413.11 Q1736.44 409.499 1736.44 403.341 Q1736.44 396.976 1739.87 393.249 Q1743.32 389.499 1749.15 389.499 Q1754.38 389.499 1757.42 392.878 Q1760.47 396.235 1760.47 402.022 M1756.21 400.772 Q1756.17 397.277 1754.24 395.193 Q1752.35 393.11 1749.2 393.11 Q1745.63 393.11 1743.48 395.124 Q1741.35 397.138 1741.03 400.795 L1756.21 400.772 Z" fill="#000000" fill-rule="evenodd" fill-opacity="1" /><path clip-path="url(#clip350)" d="M 0 0 M1782 394.059 L1782 380.031 L1786.26 380.031 L1786.26 416.05 L1782 416.05 L1782 412.161 Q1780.66 414.475 1778.6 415.61 Q1776.56 416.721 1773.69 416.721 Q1768.99 416.721 1766.03 412.971 Q1763.09 409.221 1763.09 403.11 Q1763.09 396.999 1766.03 393.249 Q1768.99 389.499 1773.69 389.499 Q1776.56 389.499 1778.6 390.633 Q1780.66 391.744 1782 394.059 M1767.48 403.11 Q1767.48 407.809 1769.41 410.494 Q1771.35 413.156 1774.73 413.156 Q1778.11 413.156 1780.05 410.494 Q1782 407.809 1782 403.11 Q1782 398.411 1780.05 395.749 Q1778.11 393.064 1774.73 393.064 Q1771.35 393.064 1769.41 395.749 Q1767.48 398.411 1767.48 403.11 Z" fill="#000000" fill-rule="evenodd" fill-opacity="1" /><path clip-path="url(#clip350)" d="M 0 0 M1790.73 390.124 L1794.98 390.124 L1794.98 416.05 L1790.73 416.05 L1790.73 390.124 M1790.73 380.031 L1794.98 380.031 L1794.98 385.425 L1790.73 385.425 L1790.73 380.031 Z" fill="#000000" fill-rule="evenodd" fill-opacity="1" /><path clip-path="url(#clip350)" d="M 0 0 M1811.23 403.017 Q1806.07 403.017 1804.08 404.198 Q1802.09 405.378 1802.09 408.226 Q1802.09 410.494 1803.57 411.837 Q1805.08 413.156 1807.65 413.156 Q1811.19 413.156 1813.32 410.656 Q1815.47 408.133 1815.47 403.966 L1815.47 403.017 L1811.23 403.017 M1819.73 401.258 L1819.73 416.05 L1815.47 416.05 L1815.47 412.114 Q1814.01 414.475 1811.84 415.61 Q1809.66 416.721 1806.51 416.721 Q1802.53 416.721 1800.17 414.499 Q1797.83 412.253 1797.83 408.503 Q1797.83 404.128 1800.75 401.906 Q1803.69 399.684 1809.5 399.684 L1815.47 399.684 L1815.47 399.267 Q1815.47 396.327 1813.53 394.73 Q1811.6 393.11 1808.11 393.11 Q1805.89 393.11 1803.78 393.642 Q1801.67 394.175 1799.73 395.239 L1799.73 391.304 Q1802.07 390.402 1804.27 389.962 Q1806.47 389.499 1808.55 389.499 Q1814.17 389.499 1816.95 392.415 Q1819.73 395.332 1819.73 401.258 Z" fill="#000000" fill-rule="evenodd" fill-opacity="1" /><path clip-path="url(#clip350)" d="M 0 0 M1845.75 400.401 L1845.75 416.05 L1841.49 416.05 L1841.49 400.54 Q1841.49 396.86 1840.05 395.031 Q1838.62 393.202 1835.75 393.202 Q1832.3 393.202 1830.31 395.402 Q1828.32 397.601 1828.32 401.397 L1828.32 416.05 L1824.04 416.05 L1824.04 390.124 L1828.32 390.124 L1828.32 394.152 Q1829.85 391.814 1831.91 390.656 Q1833.99 389.499 1836.7 389.499 Q1841.16 389.499 1843.46 392.277 Q1845.75 395.031 1845.75 400.401 Z" fill="#000000" fill-rule="evenodd" fill-opacity="1" /></svg>
