<?xml version="1.0" encoding="utf-8"?>
<svg xmlns="http://www.w3.org/2000/svg" xmlns:xlink="http://www.w3.org/1999/xlink" width="600" height="400" viewBox="0 0 2400 1600">
<defs>
  <clipPath id="clip130">
    <rect x="0" y="0" width="2400" height="1600"/>
  </clipPath>
</defs>
<path clip-path="url(#clip130)" d="
M0 1600 L2400 1600 L2400 0 L0 0  Z
  " fill="#ffffff" fill-rule="evenodd" fill-opacity="1"/>
<defs>
  <clipPath id="clip131">
    <rect x="480" y="0" width="1681" height="1600"/>
  </clipPath>
</defs>
<path clip-path="url(#clip130)" d="
M147.848 1486.45 L2352.76 1486.45 L2352.76 47.2441 L147.848 47.2441  Z
  " fill="#ffffff" fill-rule="evenodd" fill-opacity="1"/>
<defs>
  <clipPath id="clip132">
    <rect x="147" y="47" width="2206" height="1440"/>
  </clipPath>
</defs>
<polyline clip-path="url(#clip132)" style="stroke:#000000; stroke-width:2; stroke-opacity:0.1; fill:none" points="
  351.883,1486.45 351.883,47.2441 
  "/>
<polyline clip-path="url(#clip132)" style="stroke:#000000; stroke-width:2; stroke-opacity:0.1; fill:none" points="
  667.654,1486.45 667.654,47.2441 
  "/>
<polyline clip-path="url(#clip132)" style="stroke:#000000; stroke-width:2; stroke-opacity:0.1; fill:none" points="
  983.424,1486.45 983.424,47.2441 
  "/>
<polyline clip-path="url(#clip132)" style="stroke:#000000; stroke-width:2; stroke-opacity:0.1; fill:none" points="
  1299.19,1486.45 1299.19,47.2441 
  "/>
<polyline clip-path="url(#clip132)" style="stroke:#000000; stroke-width:2; stroke-opacity:0.1; fill:none" points="
  1614.96,1486.45 1614.96,47.2441 
  "/>
<polyline clip-path="url(#clip132)" style="stroke:#000000; stroke-width:2; stroke-opacity:0.1; fill:none" points="
  1930.74,1486.45 1930.74,47.2441 
  "/>
<polyline clip-path="url(#clip132)" style="stroke:#000000; stroke-width:2; stroke-opacity:0.1; fill:none" points="
  2246.51,1486.45 2246.51,47.2441 
  "/>
<polyline clip-path="url(#clip132)" style="stroke:#000000; stroke-width:2; stroke-opacity:0.1; fill:none" points="
  147.848,1445.72 2352.76,1445.72 
  "/>
<polyline clip-path="url(#clip132)" style="stroke:#000000; stroke-width:2; stroke-opacity:0.1; fill:none" points="
  147.848,1147.88 2352.76,1147.88 
  "/>
<polyline clip-path="url(#clip132)" style="stroke:#000000; stroke-width:2; stroke-opacity:0.1; fill:none" points="
  147.848,850.054 2352.76,850.054 
  "/>
<polyline clip-path="url(#clip132)" style="stroke:#000000; stroke-width:2; stroke-opacity:0.1; fill:none" points="
  147.848,552.223 2352.76,552.223 
  "/>
<polyline clip-path="url(#clip132)" style="stroke:#000000; stroke-width:2; stroke-opacity:0.1; fill:none" points="
  147.848,254.392 2352.76,254.392 
  "/>
<polyline clip-path="url(#clip130)" style="stroke:#000000; stroke-width:4; stroke-opacity:1; fill:none" points="
  147.848,1486.45 2352.76,1486.45 
  "/>
<polyline clip-path="url(#clip130)" style="stroke:#000000; stroke-width:4; stroke-opacity:1; fill:none" points="
  147.848,1486.45 147.848,47.2441 
  "/>
<polyline clip-path="url(#clip130)" style="stroke:#000000; stroke-width:4; stroke-opacity:1; fill:none" points="
  351.883,1486.45 351.883,1469.18 
  "/>
<polyline clip-path="url(#clip130)" style="stroke:#000000; stroke-width:4; stroke-opacity:1; fill:none" points="
  667.654,1486.45 667.654,1469.18 
  "/>
<polyline clip-path="url(#clip130)" style="stroke:#000000; stroke-width:4; stroke-opacity:1; fill:none" points="
  983.424,1486.45 983.424,1469.18 
  "/>
<polyline clip-path="url(#clip130)" style="stroke:#000000; stroke-width:4; stroke-opacity:1; fill:none" points="
  1299.19,1486.45 1299.19,1469.18 
  "/>
<polyline clip-path="url(#clip130)" style="stroke:#000000; stroke-width:4; stroke-opacity:1; fill:none" points="
  1614.96,1486.45 1614.96,1469.18 
  "/>
<polyline clip-path="url(#clip130)" style="stroke:#000000; stroke-width:4; stroke-opacity:1; fill:none" points="
  1930.74,1486.45 1930.74,1469.18 
  "/>
<polyline clip-path="url(#clip130)" style="stroke:#000000; stroke-width:4; stroke-opacity:1; fill:none" points="
  2246.51,1486.45 2246.51,1469.18 
  "/>
<polyline clip-path="url(#clip130)" style="stroke:#000000; stroke-width:4; stroke-opacity:1; fill:none" points="
  147.848,1445.72 174.307,1445.72 
  "/>
<polyline clip-path="url(#clip130)" style="stroke:#000000; stroke-width:4; stroke-opacity:1; fill:none" points="
  147.848,1147.88 174.307,1147.88 
  "/>
<polyline clip-path="url(#clip130)" style="stroke:#000000; stroke-width:4; stroke-opacity:1; fill:none" points="
  147.848,850.054 174.307,850.054 
  "/>
<polyline clip-path="url(#clip130)" style="stroke:#000000; stroke-width:4; stroke-opacity:1; fill:none" points="
  147.848,552.223 174.307,552.223 
  "/>
<polyline clip-path="url(#clip130)" style="stroke:#000000; stroke-width:4; stroke-opacity:1; fill:none" points="
  147.848,254.392 174.307,254.392 
  "/>
<path clip-path="url(#clip130)" d="M 0 0 M306.467 1523.09 L336.142 1523.09 L336.142 1527.03 L306.467 1527.03 L306.467 1523.09 Z" fill="#000000" fill-rule="evenodd" fill-opacity="1" /><path clip-path="url(#clip130)" d="M 0 0 M342.022 1535.98 L349.661 1535.98 L349.661 1509.62 L341.351 1511.29 L341.351 1507.03 L349.615 1505.36 L354.291 1505.36 L354.291 1535.98 L361.929 1535.98 L361.929 1539.92 L342.022 1539.92 L342.022 1535.98 Z" fill="#000000" fill-rule="evenodd" fill-opacity="1" /><path clip-path="url(#clip130)" d="M 0 0 M366.999 1534.04 L371.883 1534.04 L371.883 1539.92 L366.999 1539.92 L366.999 1534.04 Z" fill="#000000" fill-rule="evenodd" fill-opacity="1" /><path clip-path="url(#clip130)" d="M 0 0 M380.98 1535.98 L397.3 1535.98 L397.3 1539.92 L375.355 1539.92 L375.355 1535.98 Q378.017 1533.23 382.601 1528.6 Q387.207 1523.95 388.388 1522.61 Q390.633 1520.08 391.513 1518.35 Q392.415 1516.59 392.415 1514.9 Q392.415 1512.14 390.471 1510.41 Q388.55 1508.67 385.448 1508.67 Q383.249 1508.67 380.795 1509.43 Q378.364 1510.2 375.587 1511.75 L375.587 1507.03 Q378.411 1505.89 380.864 1505.31 Q383.318 1504.73 385.355 1504.73 Q390.726 1504.73 393.92 1507.42 Q397.114 1510.11 397.114 1514.6 Q397.114 1516.73 396.304 1518.65 Q395.517 1520.54 393.411 1523.14 Q392.832 1523.81 389.73 1527.03 Q386.628 1530.22 380.98 1535.98 Z" fill="#000000" fill-rule="evenodd" fill-opacity="1" /><path clip-path="url(#clip130)" d="M 0 0 M621.439 1523.09 L651.114 1523.09 L651.114 1527.03 L621.439 1527.03 L621.439 1523.09 Z" fill="#000000" fill-rule="evenodd" fill-opacity="1" /><path clip-path="url(#clip130)" d="M 0 0 M656.994 1535.98 L664.633 1535.98 L664.633 1509.62 L656.323 1511.29 L656.323 1507.03 L664.586 1505.36 L669.262 1505.36 L669.262 1535.98 L676.901 1535.98 L676.901 1539.92 L656.994 1539.92 L656.994 1535.98 Z" fill="#000000" fill-rule="evenodd" fill-opacity="1" /><path clip-path="url(#clip130)" d="M 0 0 M681.971 1534.04 L686.855 1534.04 L686.855 1539.92 L681.971 1539.92 L681.971 1534.04 Z" fill="#000000" fill-rule="evenodd" fill-opacity="1" /><path clip-path="url(#clip130)" d="M 0 0 M701.924 1508.44 Q698.313 1508.44 696.484 1512 Q694.679 1515.55 694.679 1522.67 Q694.679 1529.78 696.484 1533.35 Q698.313 1536.89 701.924 1536.89 Q705.558 1536.89 707.364 1533.35 Q709.193 1529.78 709.193 1522.67 Q709.193 1515.55 707.364 1512 Q705.558 1508.44 701.924 1508.44 M701.924 1504.73 Q707.734 1504.73 710.79 1509.34 Q713.869 1513.92 713.869 1522.67 Q713.869 1531.4 710.79 1536.01 Q707.734 1540.59 701.924 1540.59 Q696.114 1540.59 693.035 1536.01 Q689.98 1531.4 689.98 1522.67 Q689.98 1513.92 693.035 1509.34 Q696.114 1504.73 701.924 1504.73 Z" fill="#000000" fill-rule="evenodd" fill-opacity="1" /><path clip-path="url(#clip130)" d="M 0 0 M936.642 1523.09 L966.318 1523.09 L966.318 1527.03 L936.642 1527.03 L936.642 1523.09 Z" fill="#000000" fill-rule="evenodd" fill-opacity="1" /><path clip-path="url(#clip130)" d="M 0 0 M981.387 1508.44 Q977.776 1508.44 975.947 1512 Q974.142 1515.55 974.142 1522.67 Q974.142 1529.78 975.947 1533.35 Q977.776 1536.89 981.387 1536.89 Q985.021 1536.89 986.827 1533.35 Q988.655 1529.78 988.655 1522.67 Q988.655 1515.55 986.827 1512 Q985.021 1508.44 981.387 1508.44 M981.387 1504.73 Q987.197 1504.73 990.253 1509.34 Q993.331 1513.92 993.331 1522.67 Q993.331 1531.4 990.253 1536.01 Q987.197 1540.59 981.387 1540.59 Q975.577 1540.59 972.498 1536.01 Q969.443 1531.4 969.443 1522.67 Q969.443 1513.92 972.498 1509.34 Q975.577 1504.73 981.387 1504.73 Z" fill="#000000" fill-rule="evenodd" fill-opacity="1" /><path clip-path="url(#clip130)" d="M 0 0 M998.401 1534.04 L1003.29 1534.04 L1003.29 1539.92 L998.401 1539.92 L998.401 1534.04 Z" fill="#000000" fill-rule="evenodd" fill-opacity="1" /><path clip-path="url(#clip130)" d="M 0 0 M1018.35 1523.51 Q1015.02 1523.51 1013.1 1525.29 Q1011.2 1527.07 1011.2 1530.2 Q1011.2 1533.32 1013.1 1535.11 Q1015.02 1536.89 1018.35 1536.89 Q1021.69 1536.89 1023.61 1535.11 Q1025.53 1533.3 1025.53 1530.2 Q1025.53 1527.07 1023.61 1525.29 Q1021.71 1523.51 1018.35 1523.51 M1013.68 1521.52 Q1010.67 1520.78 1008.98 1518.72 Q1007.31 1516.66 1007.31 1513.69 Q1007.31 1509.55 1010.25 1507.14 Q1013.22 1504.73 1018.35 1504.73 Q1023.52 1504.73 1026.46 1507.14 Q1029.4 1509.55 1029.4 1513.69 Q1029.4 1516.66 1027.71 1518.72 Q1026.04 1520.78 1023.05 1521.52 Q1026.43 1522.3 1028.31 1524.6 Q1030.21 1526.89 1030.21 1530.2 Q1030.21 1535.22 1027.13 1537.91 Q1024.07 1540.59 1018.35 1540.59 Q1012.64 1540.59 1009.56 1537.91 Q1006.5 1535.22 1006.5 1530.2 Q1006.5 1526.89 1008.4 1524.6 Q1010.3 1522.3 1013.68 1521.52 M1011.97 1514.13 Q1011.97 1516.82 1013.63 1518.32 Q1015.32 1519.83 1018.35 1519.83 Q1021.36 1519.83 1023.05 1518.32 Q1024.77 1516.82 1024.77 1514.13 Q1024.77 1511.45 1023.05 1509.94 Q1021.36 1508.44 1018.35 1508.44 Q1015.32 1508.44 1013.63 1509.94 Q1011.97 1511.45 1011.97 1514.13 Z" fill="#000000" fill-rule="evenodd" fill-opacity="1" /><path clip-path="url(#clip130)" d="M 0 0 M1252.29 1523.09 L1281.96 1523.09 L1281.96 1527.03 L1252.29 1527.03 L1252.29 1523.09 Z" fill="#000000" fill-rule="evenodd" fill-opacity="1" /><path clip-path="url(#clip130)" d="M 0 0 M1297.03 1508.44 Q1293.42 1508.44 1291.59 1512 Q1289.78 1515.55 1289.78 1522.67 Q1289.78 1529.78 1291.59 1533.35 Q1293.42 1536.89 1297.03 1536.89 Q1300.66 1536.89 1302.47 1533.35 Q1304.3 1529.78 1304.3 1522.67 Q1304.3 1515.55 1302.47 1512 Q1300.66 1508.44 1297.03 1508.44 M1297.03 1504.73 Q1302.84 1504.73 1305.9 1509.34 Q1308.97 1513.92 1308.97 1522.67 Q1308.97 1531.4 1305.9 1536.01 Q1302.84 1540.59 1297.03 1540.59 Q1291.22 1540.59 1288.14 1536.01 Q1285.09 1531.4 1285.09 1522.67 Q1285.09 1513.92 1288.14 1509.34 Q1291.22 1504.73 1297.03 1504.73 Z" fill="#000000" fill-rule="evenodd" fill-opacity="1" /><path clip-path="url(#clip130)" d="M 0 0 M1314.04 1534.04 L1318.93 1534.04 L1318.93 1539.92 L1314.04 1539.92 L1314.04 1534.04 Z" fill="#000000" fill-rule="evenodd" fill-opacity="1" /><path clip-path="url(#clip130)" d="M 0 0 M1334.58 1520.78 Q1331.43 1520.78 1329.58 1522.93 Q1327.75 1525.08 1327.75 1528.83 Q1327.75 1532.56 1329.58 1534.73 Q1331.43 1536.89 1334.58 1536.89 Q1337.72 1536.89 1339.55 1534.73 Q1341.4 1532.56 1341.4 1528.83 Q1341.4 1525.08 1339.55 1522.93 Q1337.72 1520.78 1334.58 1520.78 M1343.86 1506.12 L1343.86 1510.38 Q1342.1 1509.55 1340.29 1509.11 Q1338.51 1508.67 1336.75 1508.67 Q1332.12 1508.67 1329.67 1511.8 Q1327.24 1514.92 1326.89 1521.24 Q1328.26 1519.23 1330.32 1518.16 Q1332.38 1517.07 1334.85 1517.07 Q1340.06 1517.07 1343.07 1520.24 Q1346.1 1523.39 1346.1 1528.83 Q1346.1 1534.16 1342.96 1537.37 Q1339.81 1540.59 1334.58 1540.59 Q1328.58 1540.59 1325.41 1536.01 Q1322.24 1531.4 1322.24 1522.67 Q1322.24 1514.48 1326.13 1509.62 Q1330.02 1504.73 1336.57 1504.73 Q1338.33 1504.73 1340.11 1505.08 Q1341.91 1505.43 1343.86 1506.12 Z" fill="#000000" fill-rule="evenodd" fill-opacity="1" /><path clip-path="url(#clip130)" d="M 0 0 M1567.89 1523.09 L1597.57 1523.09 L1597.57 1527.03 L1567.89 1527.03 L1567.89 1523.09 Z" fill="#000000" fill-rule="evenodd" fill-opacity="1" /><path clip-path="url(#clip130)" d="M 0 0 M1612.64 1508.44 Q1609.03 1508.44 1607.2 1512 Q1605.39 1515.55 1605.39 1522.67 Q1605.39 1529.78 1607.2 1533.35 Q1609.03 1536.89 1612.64 1536.89 Q1616.27 1536.89 1618.08 1533.35 Q1619.91 1529.78 1619.91 1522.67 Q1619.91 1515.55 1618.08 1512 Q1616.27 1508.44 1612.64 1508.44 M1612.64 1504.73 Q1618.45 1504.73 1621.5 1509.34 Q1624.58 1513.92 1624.58 1522.67 Q1624.58 1531.4 1621.5 1536.01 Q1618.45 1540.59 1612.64 1540.59 Q1606.83 1540.59 1603.75 1536.01 Q1600.69 1531.4 1600.69 1522.67 Q1600.69 1513.92 1603.75 1509.34 Q1606.83 1504.73 1612.64 1504.73 Z" fill="#000000" fill-rule="evenodd" fill-opacity="1" /><path clip-path="url(#clip130)" d="M 0 0 M1629.65 1534.04 L1634.54 1534.04 L1634.54 1539.92 L1629.65 1539.92 L1629.65 1534.04 Z" fill="#000000" fill-rule="evenodd" fill-opacity="1" /><path clip-path="url(#clip130)" d="M 0 0 M1652.45 1509.43 L1640.65 1527.88 L1652.45 1527.88 L1652.45 1509.43 M1651.23 1505.36 L1657.11 1505.36 L1657.11 1527.88 L1662.04 1527.88 L1662.04 1531.77 L1657.11 1531.77 L1657.11 1539.92 L1652.45 1539.92 L1652.45 1531.77 L1636.85 1531.77 L1636.85 1527.26 L1651.23 1505.36 Z" fill="#000000" fill-rule="evenodd" fill-opacity="1" /><path clip-path="url(#clip130)" d="M 0 0 M1884.71 1523.09 L1914.38 1523.09 L1914.38 1527.03 L1884.71 1527.03 L1884.71 1523.09 Z" fill="#000000" fill-rule="evenodd" fill-opacity="1" /><path clip-path="url(#clip130)" d="M 0 0 M1929.45 1508.44 Q1925.84 1508.44 1924.01 1512 Q1922.21 1515.55 1922.21 1522.67 Q1922.21 1529.78 1924.01 1533.35 Q1925.84 1536.89 1929.45 1536.89 Q1933.08 1536.89 1934.89 1533.35 Q1936.72 1529.78 1936.72 1522.67 Q1936.72 1515.55 1934.89 1512 Q1933.08 1508.44 1929.45 1508.44 M1929.45 1504.73 Q1935.26 1504.73 1938.32 1509.34 Q1941.4 1513.92 1941.4 1522.67 Q1941.4 1531.4 1938.32 1536.01 Q1935.26 1540.59 1929.45 1540.59 Q1923.64 1540.59 1920.56 1536.01 Q1917.51 1531.4 1917.51 1522.67 Q1917.51 1513.92 1920.56 1509.34 Q1923.64 1504.73 1929.45 1504.73 Z" fill="#000000" fill-rule="evenodd" fill-opacity="1" /><path clip-path="url(#clip130)" d="M 0 0 M1946.46 1534.04 L1951.35 1534.04 L1951.35 1539.92 L1946.46 1539.92 L1946.46 1534.04 Z" fill="#000000" fill-rule="evenodd" fill-opacity="1" /><path clip-path="url(#clip130)" d="M 0 0 M1960.45 1535.98 L1976.77 1535.98 L1976.77 1539.92 L1954.82 1539.92 L1954.82 1535.98 Q1957.48 1533.23 1962.07 1528.6 Q1966.67 1523.95 1967.85 1522.61 Q1970.1 1520.08 1970.98 1518.35 Q1971.88 1516.59 1971.88 1514.9 Q1971.88 1512.14 1969.94 1510.41 Q1968.02 1508.67 1964.91 1508.67 Q1962.71 1508.67 1960.26 1509.43 Q1957.83 1510.2 1955.05 1511.75 L1955.05 1507.03 Q1957.88 1505.89 1960.33 1505.31 Q1962.78 1504.73 1964.82 1504.73 Q1970.19 1504.73 1973.39 1507.42 Q1976.58 1510.11 1976.58 1514.6 Q1976.58 1516.73 1975.77 1518.65 Q1974.98 1520.54 1972.88 1523.14 Q1972.3 1523.81 1969.2 1527.03 Q1966.09 1530.22 1960.45 1535.98 Z" fill="#000000" fill-rule="evenodd" fill-opacity="1" /><path clip-path="url(#clip130)" d="M 0 0 M2228.02 1508.44 Q2224.41 1508.44 2222.58 1512 Q2220.78 1515.55 2220.78 1522.67 Q2220.78 1529.78 2222.58 1533.35 Q2224.41 1536.89 2228.02 1536.89 Q2231.66 1536.89 2233.46 1533.35 Q2235.29 1529.78 2235.29 1522.67 Q2235.29 1515.55 2233.46 1512 Q2231.66 1508.44 2228.02 1508.44 M2228.02 1504.73 Q2233.83 1504.73 2236.89 1509.34 Q2239.97 1513.92 2239.97 1522.67 Q2239.97 1531.4 2236.89 1536.01 Q2233.83 1540.59 2228.02 1540.59 Q2222.21 1540.59 2219.13 1536.01 Q2216.08 1531.4 2216.08 1522.67 Q2216.08 1513.92 2219.13 1509.34 Q2222.21 1504.73 2228.02 1504.73 Z" fill="#000000" fill-rule="evenodd" fill-opacity="1" /><path clip-path="url(#clip130)" d="M 0 0 M2245.04 1534.04 L2249.92 1534.04 L2249.92 1539.92 L2245.04 1539.92 L2245.04 1534.04 Z" fill="#000000" fill-rule="evenodd" fill-opacity="1" /><path clip-path="url(#clip130)" d="M 0 0 M2264.99 1508.44 Q2261.38 1508.44 2259.55 1512 Q2257.74 1515.55 2257.74 1522.67 Q2257.74 1529.78 2259.55 1533.35 Q2261.38 1536.89 2264.99 1536.89 Q2268.62 1536.89 2270.43 1533.35 Q2272.26 1529.78 2272.26 1522.67 Q2272.26 1515.55 2270.43 1512 Q2268.62 1508.44 2264.99 1508.44 M2264.99 1504.73 Q2270.8 1504.73 2273.86 1509.34 Q2276.93 1513.92 2276.93 1522.67 Q2276.93 1531.4 2273.86 1536.01 Q2270.8 1540.59 2264.99 1540.59 Q2259.18 1540.59 2256.1 1536.01 Q2253.05 1531.4 2253.05 1522.67 Q2253.05 1513.92 2256.1 1509.34 Q2259.18 1504.73 2264.99 1504.73 Z" fill="#000000" fill-rule="evenodd" fill-opacity="1" /><path clip-path="url(#clip130)" d="M 0 0 M74.9365 1431.51 Q71.3254 1431.51 69.4967 1435.08 Q67.6912 1438.62 67.6912 1445.75 Q67.6912 1452.86 69.4967 1456.42 Q71.3254 1459.96 74.9365 1459.96 Q78.5707 1459.96 80.3763 1456.42 Q82.205 1452.86 82.205 1445.75 Q82.205 1438.62 80.3763 1435.08 Q78.5707 1431.51 74.9365 1431.51 M74.9365 1427.81 Q80.7467 1427.81 83.8022 1432.42 Q86.8809 1437 86.8809 1445.75 Q86.8809 1454.48 83.8022 1459.08 Q80.7467 1463.67 74.9365 1463.67 Q69.1264 1463.67 66.0477 1459.08 Q62.9921 1454.48 62.9921 1445.75 Q62.9921 1437 66.0477 1432.42 Q69.1264 1427.81 74.9365 1427.81 Z" fill="#000000" fill-rule="evenodd" fill-opacity="1" /><path clip-path="url(#clip130)" d="M 0 0 M91.9503 1457.12 L96.8345 1457.12 L96.8345 1463 L91.9503 1463 L91.9503 1457.12 Z" fill="#000000" fill-rule="evenodd" fill-opacity="1" /><path clip-path="url(#clip130)" d="M 0 0 M111.904 1431.51 Q108.293 1431.51 106.464 1435.08 Q104.659 1438.62 104.659 1445.75 Q104.659 1452.86 106.464 1456.42 Q108.293 1459.96 111.904 1459.96 Q115.538 1459.96 117.344 1456.42 Q119.172 1452.86 119.172 1445.75 Q119.172 1438.62 117.344 1435.08 Q115.538 1431.51 111.904 1431.51 M111.904 1427.81 Q117.714 1427.81 120.77 1432.42 Q123.848 1437 123.848 1445.75 Q123.848 1454.48 120.77 1459.08 Q117.714 1463.67 111.904 1463.67 Q106.094 1463.67 103.015 1459.08 Q99.9595 1454.48 99.9595 1445.75 Q99.9595 1437 103.015 1432.42 Q106.094 1427.81 111.904 1427.81 Z" fill="#000000" fill-rule="evenodd" fill-opacity="1" /><path clip-path="url(#clip130)" d="M 0 0 M75.9319 1133.68 Q72.3208 1133.68 70.4921 1137.25 Q68.6865 1140.79 68.6865 1147.92 Q68.6865 1155.03 70.4921 1158.59 Q72.3208 1162.13 75.9319 1162.13 Q79.5661 1162.13 81.3717 1158.59 Q83.2004 1155.03 83.2004 1147.92 Q83.2004 1140.79 81.3717 1137.25 Q79.5661 1133.68 75.9319 1133.68 M75.9319 1129.98 Q81.742 1129.98 84.7976 1134.59 Q87.8763 1139.17 87.8763 1147.92 Q87.8763 1156.65 84.7976 1161.25 Q81.742 1165.84 75.9319 1165.84 Q70.1217 1165.84 67.043 1161.25 Q63.9875 1156.65 63.9875 1147.92 Q63.9875 1139.17 67.043 1134.59 Q70.1217 1129.98 75.9319 1129.98 Z" fill="#000000" fill-rule="evenodd" fill-opacity="1" /><path clip-path="url(#clip130)" d="M 0 0 M92.9457 1159.29 L97.8299 1159.29 L97.8299 1165.16 L92.9457 1165.16 L92.9457 1159.29 Z" fill="#000000" fill-rule="evenodd" fill-opacity="1" /><path clip-path="url(#clip130)" d="M 0 0 M102.946 1130.6 L121.302 1130.6 L121.302 1134.54 L107.228 1134.54 L107.228 1143.01 Q108.247 1142.66 109.265 1142.5 Q110.284 1142.32 111.302 1142.32 Q117.089 1142.32 120.469 1145.49 Q123.848 1148.66 123.848 1154.08 Q123.848 1159.66 120.376 1162.76 Q116.904 1165.84 110.584 1165.84 Q108.409 1165.84 106.14 1165.47 Q103.895 1165.1 101.487 1164.35 L101.487 1159.66 Q103.571 1160.79 105.793 1161.35 Q108.015 1161.9 110.492 1161.9 Q114.496 1161.9 116.834 1159.79 Q119.172 1157.69 119.172 1154.08 Q119.172 1150.47 116.834 1148.36 Q114.496 1146.25 110.492 1146.25 Q108.617 1146.25 106.742 1146.67 Q104.89 1147.09 102.946 1147.97 L102.946 1130.6 Z" fill="#000000" fill-rule="evenodd" fill-opacity="1" /><path clip-path="url(#clip130)" d="M 0 0 M66.9736 863.399 L74.6124 863.399 L74.6124 837.033 L66.3023 838.7 L66.3023 834.44 L74.5661 832.774 L79.242 832.774 L79.242 863.399 L86.8809 863.399 L86.8809 867.334 L66.9736 867.334 L66.9736 863.399 Z" fill="#000000" fill-rule="evenodd" fill-opacity="1" /><path clip-path="url(#clip130)" d="M 0 0 M91.9503 861.454 L96.8345 861.454 L96.8345 867.334 L91.9503 867.334 L91.9503 861.454 Z" fill="#000000" fill-rule="evenodd" fill-opacity="1" /><path clip-path="url(#clip130)" d="M 0 0 M111.904 835.853 Q108.293 835.853 106.464 839.417 Q104.659 842.959 104.659 850.089 Q104.659 857.195 106.464 860.76 Q108.293 864.301 111.904 864.301 Q115.538 864.301 117.344 860.76 Q119.172 857.195 119.172 850.089 Q119.172 842.959 117.344 839.417 Q115.538 835.853 111.904 835.853 M111.904 832.149 Q117.714 832.149 120.77 836.755 Q123.848 841.339 123.848 850.089 Q123.848 858.815 120.77 863.422 Q117.714 868.005 111.904 868.005 Q106.094 868.005 103.015 863.422 Q99.9595 858.815 99.9595 850.089 Q99.9595 841.339 103.015 836.755 Q106.094 832.149 111.904 832.149 Z" fill="#000000" fill-rule="evenodd" fill-opacity="1" /><path clip-path="url(#clip130)" d="M 0 0 M67.969 565.568 L75.6078 565.568 L75.6078 539.202 L67.2977 540.869 L67.2977 536.61 L75.5615 534.943 L80.2374 534.943 L80.2374 565.568 L87.8763 565.568 L87.8763 569.503 L67.969 569.503 L67.969 565.568 Z" fill="#000000" fill-rule="evenodd" fill-opacity="1" /><path clip-path="url(#clip130)" d="M 0 0 M92.9457 563.623 L97.8299 563.623 L97.8299 569.503 L92.9457 569.503 L92.9457 563.623 Z" fill="#000000" fill-rule="evenodd" fill-opacity="1" /><path clip-path="url(#clip130)" d="M 0 0 M102.946 534.943 L121.302 534.943 L121.302 538.878 L107.228 538.878 L107.228 547.35 Q108.247 547.003 109.265 546.841 Q110.284 546.656 111.302 546.656 Q117.089 546.656 120.469 549.827 Q123.848 552.998 123.848 558.415 Q123.848 563.994 120.376 567.096 Q116.904 570.174 110.584 570.174 Q108.409 570.174 106.14 569.804 Q103.895 569.433 101.487 568.693 L101.487 563.994 Q103.571 565.128 105.793 565.683 Q108.015 566.239 110.492 566.239 Q114.496 566.239 116.834 564.133 Q119.172 562.026 119.172 558.415 Q119.172 554.804 116.834 552.697 Q114.496 550.591 110.492 550.591 Q108.617 550.591 106.742 551.008 Q104.89 551.424 102.946 552.304 L102.946 534.943 Z" fill="#000000" fill-rule="evenodd" fill-opacity="1" /><path clip-path="url(#clip130)" d="M 0 0 M70.5615 267.737 L86.8809 267.737 L86.8809 271.672 L64.9366 271.672 L64.9366 267.737 Q67.5986 264.982 72.1819 260.353 Q76.7883 255.7 77.9689 254.357 Q80.2143 251.834 81.0939 250.098 Q81.9967 248.339 81.9967 246.649 Q81.9967 243.894 80.0522 242.158 Q78.1309 240.422 75.0291 240.422 Q72.83 240.422 70.3763 241.186 Q67.9458 241.95 65.168 243.501 L65.168 238.779 Q67.9921 237.644 70.4458 237.066 Q72.8995 236.487 74.9365 236.487 Q80.3068 236.487 83.5013 239.172 Q86.6957 241.857 86.6957 246.348 Q86.6957 248.478 85.8855 250.399 Q85.0985 252.297 82.992 254.89 Q82.4133 255.561 79.3115 258.779 Q76.2096 261.973 70.5615 267.737 Z" fill="#000000" fill-rule="evenodd" fill-opacity="1" /><path clip-path="url(#clip130)" d="M 0 0 M91.9503 265.792 L96.8345 265.792 L96.8345 271.672 L91.9503 271.672 L91.9503 265.792 Z" fill="#000000" fill-rule="evenodd" fill-opacity="1" /><path clip-path="url(#clip130)" d="M 0 0 M111.904 240.191 Q108.293 240.191 106.464 243.755 Q104.659 247.297 104.659 254.427 Q104.659 261.533 106.464 265.098 Q108.293 268.64 111.904 268.64 Q115.538 268.64 117.344 265.098 Q119.172 261.533 119.172 254.427 Q119.172 247.297 117.344 243.755 Q115.538 240.191 111.904 240.191 M111.904 236.487 Q117.714 236.487 120.77 241.093 Q123.848 245.677 123.848 254.427 Q123.848 263.154 120.77 267.76 Q117.714 272.343 111.904 272.343 Q106.094 272.343 103.015 267.76 Q99.9595 263.154 99.9595 254.427 Q99.9595 245.677 103.015 241.093 Q106.094 236.487 111.904 236.487 Z" fill="#000000" fill-rule="evenodd" fill-opacity="1" /><path clip-path="url(#clip132)" d="
M210.251 1434.21 L214.896 1433.85 L219.542 1433.55 L224.187 1433.31 L228.832 1433.11 L233.477 1432.95 L238.122 1432.81 L242.767 1432.69 L247.412 1432.58 L252.057 1432.46 
  L256.702 1432.34 L261.347 1432.22 L265.992 1432.11 L270.638 1431.99 L275.283 1431.89 L279.928 1431.81 L284.573 1431.75 L289.218 1431.71 L293.863 1431.69 L298.508 1431.68 
  L303.153 1431.66 L307.798 1431.62 L312.443 1431.54 L317.089 1431.4 L321.734 1431.15 L326.379 1430.78 L331.024 1430.27 L335.669 1429.59 L340.314 1428.73 L344.959 1427.68 
  L349.604 1426.44 L354.249 1425.02 L358.894 1423.45 L363.54 1421.75 L368.185 1419.94 L372.83 1418.07 L377.475 1416.18 L382.12 1414.29 L386.765 1412.43 L391.41 1410.64 
  L396.055 1408.92 L400.7 1407.27 L405.345 1405.69 L409.991 1404.14 L414.636 1402.6 L419.281 1401.01 L423.926 1399.32 L428.571 1397.47 L433.216 1395.41 L437.861 1393.07 
  L442.506 1390.4 L447.151 1387.35 L451.796 1383.88 L456.441 1379.96 L461.087 1375.56 L465.732 1370.66 L470.377 1365.26 L475.022 1359.36 L479.667 1352.96 L484.312 1346.08 
  L488.957 1338.73 L493.602 1330.95 L498.247 1322.77 L502.892 1314.24 L507.538 1305.43 L512.183 1296.39 L516.828 1287.23 L521.473 1278.04 L526.118 1268.93 L530.763 1260.02 
  L535.408 1251.43 L540.053 1243.27 L544.698 1235.67 L549.343 1228.71 L553.989 1222.48 L558.634 1217.04 L563.279 1212.43 L567.924 1208.65 L572.569 1205.69 L577.214 1203.5 
  L581.859 1202.03 L586.504 1201.19 L591.149 1200.89 L595.794 1201.02 L600.44 1201.48 L605.085 1202.16 L609.73 1202.97 L614.375 1203.81 L619.02 1204.61 L623.665 1205.3 
  L628.31 1205.84 L632.955 1206.19 L637.6 1206.34 L642.245 1206.3 L646.89 1206.06 L651.536 1205.65 L656.181 1205.12 L660.826 1204.47 L665.471 1203.76 L670.116 1203.01 
  L670.116 1445.72 L665.471 1445.72 L660.826 1445.72 L656.181 1445.72 L651.536 1445.72 L646.89 1445.72 L642.245 1445.72 L637.6 1445.72 L632.955 1445.72 L628.31 1445.72 
  L623.665 1445.72 L619.02 1445.72 L614.375 1445.72 L609.73 1445.72 L605.085 1445.72 L600.44 1445.72 L595.794 1445.72 L591.149 1445.72 L586.504 1445.72 L581.859 1445.72 
  L577.214 1445.72 L572.569 1445.72 L567.924 1445.72 L563.279 1445.72 L558.634 1445.72 L553.989 1445.72 L549.343 1445.72 L544.698 1445.72 L540.053 1445.72 L535.408 1445.72 
  L530.763 1445.72 L526.118 1445.72 L521.473 1445.72 L516.828 1445.72 L512.183 1445.72 L507.538 1445.72 L502.892 1445.72 L498.247 1445.72 L493.602 1445.72 L488.957 1445.72 
  L484.312 1445.72 L479.667 1445.72 L475.022 1445.72 L470.377 1445.72 L465.732 1445.72 L461.087 1445.72 L456.441 1445.72 L451.796 1445.72 L447.151 1445.72 L442.506 1445.72 
  L437.861 1445.72 L433.216 1445.72 L428.571 1445.72 L423.926 1445.72 L419.281 1445.72 L414.636 1445.72 L409.991 1445.72 L405.345 1445.72 L400.7 1445.72 L396.055 1445.72 
  L391.41 1445.72 L386.765 1445.72 L382.12 1445.72 L377.475 1445.72 L372.83 1445.72 L368.185 1445.72 L363.54 1445.72 L358.894 1445.72 L354.249 1445.72 L349.604 1445.72 
  L344.959 1445.72 L340.314 1445.72 L335.669 1445.72 L331.024 1445.72 L326.379 1445.72 L321.734 1445.72 L317.089 1445.72 L312.443 1445.72 L307.798 1445.72 L303.153 1445.72 
  L298.508 1445.72 L293.863 1445.72 L289.218 1445.72 L284.573 1445.72 L279.928 1445.72 L275.283 1445.72 L270.638 1445.72 L265.992 1445.72 L261.347 1445.72 L256.702 1445.72 
  L252.057 1445.72 L247.412 1445.72 L242.767 1445.72 L238.122 1445.72 L233.477 1445.72 L228.832 1445.72 L224.187 1445.72 L219.542 1445.72 L214.896 1445.72 L210.251 1445.72 
   Z
  " fill="#ffa500" fill-rule="evenodd" fill-opacity="0.5"/>
<polyline clip-path="url(#clip132)" style="stroke:#ffa500; stroke-width:4; stroke-opacity:1; fill:none" points="
  210.251,1434.21 214.896,1433.85 219.542,1433.55 224.187,1433.31 228.832,1433.11 233.477,1432.95 238.122,1432.81 242.767,1432.69 247.412,1432.58 252.057,1432.46 
  256.702,1432.34 261.347,1432.22 265.992,1432.11 270.638,1431.99 275.283,1431.89 279.928,1431.81 284.573,1431.75 289.218,1431.71 293.863,1431.69 298.508,1431.68 
  303.153,1431.66 307.798,1431.62 312.443,1431.54 317.089,1431.4 321.734,1431.15 326.379,1430.78 331.024,1430.27 335.669,1429.59 340.314,1428.73 344.959,1427.68 
  349.604,1426.44 354.249,1425.02 358.894,1423.45 363.54,1421.75 368.185,1419.94 372.83,1418.07 377.475,1416.18 382.12,1414.29 386.765,1412.43 391.41,1410.64 
  396.055,1408.92 400.7,1407.27 405.345,1405.69 409.991,1404.14 414.636,1402.6 419.281,1401.01 423.926,1399.32 428.571,1397.47 433.216,1395.41 437.861,1393.07 
  442.506,1390.4 447.151,1387.35 451.796,1383.88 456.441,1379.96 461.087,1375.56 465.732,1370.66 470.377,1365.26 475.022,1359.36 479.667,1352.96 484.312,1346.08 
  488.957,1338.73 493.602,1330.95 498.247,1322.77 502.892,1314.24 507.538,1305.43 512.183,1296.39 516.828,1287.23 521.473,1278.04 526.118,1268.93 530.763,1260.02 
  535.408,1251.43 540.053,1243.27 544.698,1235.67 549.343,1228.71 553.989,1222.48 558.634,1217.04 563.279,1212.43 567.924,1208.65 572.569,1205.69 577.214,1203.5 
  581.859,1202.03 586.504,1201.19 591.149,1200.89 595.794,1201.02 600.44,1201.48 605.085,1202.16 609.73,1202.97 614.375,1203.81 619.02,1204.61 623.665,1205.3 
  628.31,1205.84 632.955,1206.19 637.6,1206.34 642.245,1206.3 646.89,1206.06 651.536,1205.65 656.181,1205.12 660.826,1204.47 665.471,1203.76 670.116,1203.01 
  
  "/>
<path clip-path="url(#clip132)" d="
M670.116 1203.01 L681.541 1201.08 L692.965 1198.92 L704.39 1195.85 L715.815 1190.72 L727.24 1182.26 L738.665 1169.68 L750.089 1153.1 L761.514 1133.74 L772.939 1113.59 
  L784.364 1094.67 L795.788 1078.29 L807.213 1064.49 L818.638 1052 L830.063 1038.69 L841.487 1022.29 L852.912 1001.17 L864.337 974.848 L875.762 944.125 L887.186 910.879 
  L898.611 877.559 L910.036 846.58 L921.461 819.739 L932.885 797.801 L944.31 780.339 L955.735 765.855 L967.16 752.143 L978.584 736.802 L990.009 717.774 L1001.43 693.809 
  L1012.86 664.778 L1024.28 631.779 L1035.71 596.953 L1047.13 563.009 L1058.56 532.507 L1069.98 507.091 L1081.41 486.935 L1092.83 470.62 L1104.26 455.538 L1115.68 438.711 
  L1127.11 417.706 L1138.53 391.312 L1149.96 359.706 L1161.38 324.103 L1172.81 286.158 L1184.23 247.468 L1195.65 209.434 L1207.08 173.463 L1218.5 141.278 L1229.93 115.008 
  L1241.35 96.8756 L1252.78 88.5057 L1264.2 90.1141 L1275.63 99.955 L1287.05 114.371 L1298.48 128.598 L1309.9 138.155 L1321.33 140.383 L1332.75 135.52 L1344.18 126.847 
  L1355.6 119.753 L1367.03 120.038 L1378.45 132.076 L1389.88 157.571 L1401.3 195.36 L1412.73 242.245 L1424.15 294.379 L1435.57 348.506 L1447 402.575 L1458.42 455.616 
  L1469.85 507.208 L1481.27 556.99 L1492.7 604.476 L1504.12 649.186 L1515.55 690.884 L1526.97 729.729 L1538.4 766.273 L1549.82 801.353 L1561.25 835.919 L1572.67 870.83 
  L1584.1 906.623 L1595.52 943.338 L1606.95 980.494 L1618.37 1017.24 L1629.8 1052.62 L1641.22 1085.8 L1652.65 1116.13 L1664.07 1143.07 L1675.49 1166.03 L1686.92 1184.33 
  L1698.34 1197.14 L1709.77 1203.62 L1721.19 1203.06 L1732.62 1195.06 L1744.04 1179.94 L1755.47 1159.02 L1766.89 1134.95 L1778.32 1111.55 L1789.74 1093.21 L1801.17 1083.84 
  L1801.17 1445.72 L1789.74 1445.72 L1778.32 1445.72 L1766.89 1445.72 L1755.47 1445.72 L1744.04 1445.72 L1732.62 1445.72 L1721.19 1445.72 L1709.77 1445.72 L1698.34 1445.72 
  L1686.92 1445.72 L1675.49 1445.72 L1664.07 1445.72 L1652.65 1445.72 L1641.22 1445.72 L1629.8 1445.72 L1618.37 1445.72 L1606.95 1445.72 L1595.52 1445.72 L1584.1 1445.72 
  L1572.67 1445.72 L1561.25 1445.72 L1549.82 1445.72 L1538.4 1445.72 L1526.97 1445.72 L1515.55 1445.72 L1504.12 1445.72 L1492.7 1445.72 L1481.27 1445.72 L1469.85 1445.72 
  L1458.42 1445.72 L1447 1445.72 L1435.57 1445.72 L1424.15 1445.72 L1412.73 1445.72 L1401.3 1445.72 L1389.88 1445.72 L1378.45 1445.72 L1367.03 1445.72 L1355.6 1445.72 
  L1344.18 1445.72 L1332.75 1445.72 L1321.33 1445.72 L1309.9 1445.72 L1298.48 1445.72 L1287.05 1445.72 L1275.63 1445.72 L1264.2 1445.72 L1252.78 1445.72 L1241.35 1445.72 
  L1229.93 1445.72 L1218.5 1445.72 L1207.08 1445.72 L1195.65 1445.72 L1184.23 1445.72 L1172.81 1445.72 L1161.38 1445.72 L1149.96 1445.72 L1138.53 1445.72 L1127.11 1445.72 
  L1115.68 1445.72 L1104.26 1445.72 L1092.83 1445.72 L1081.41 1445.72 L1069.98 1445.72 L1058.56 1445.72 L1047.13 1445.72 L1035.71 1445.72 L1024.28 1445.72 L1012.86 1445.72 
  L1001.43 1445.72 L990.009 1445.72 L978.584 1445.72 L967.16 1445.72 L955.735 1445.72 L944.31 1445.72 L932.885 1445.72 L921.461 1445.72 L910.036 1445.72 L898.611 1445.72 
  L887.186 1445.72 L875.762 1445.72 L864.337 1445.72 L852.912 1445.72 L841.487 1445.72 L830.063 1445.72 L818.638 1445.72 L807.213 1445.72 L795.788 1445.72 L784.364 1445.72 
  L772.939 1445.72 L761.514 1445.72 L750.089 1445.72 L738.665 1445.72 L727.24 1445.72 L715.815 1445.72 L704.39 1445.72 L692.965 1445.72 L681.541 1445.72 L670.116 1445.72 
   Z
  " fill="#008000" fill-rule="evenodd" fill-opacity="0.5"/>
<polyline clip-path="url(#clip132)" style="stroke:#008000; stroke-width:4; stroke-opacity:1; fill:none" points="
  670.116,1203.01 681.541,1201.08 692.965,1198.92 704.39,1195.85 715.815,1190.72 727.24,1182.26 738.665,1169.68 750.089,1153.1 761.514,1133.74 772.939,1113.59 
  784.364,1094.67 795.788,1078.29 807.213,1064.49 818.638,1052 830.063,1038.69 841.487,1022.29 852.912,1001.17 864.337,974.848 875.762,944.125 887.186,910.879 
  898.611,877.559 910.036,846.58 921.461,819.739 932.885,797.801 944.31,780.339 955.735,765.855 967.16,752.143 978.584,736.802 990.009,717.774 1001.43,693.809 
  1012.86,664.778 1024.28,631.779 1035.71,596.953 1047.13,563.009 1058.56,532.507 1069.98,507.091 1081.41,486.935 1092.83,470.62 1104.26,455.538 1115.68,438.711 
  1127.11,417.706 1138.53,391.312 1149.96,359.706 1161.38,324.103 1172.81,286.158 1184.23,247.468 1195.65,209.434 1207.08,173.463 1218.5,141.278 1229.93,115.008 
  1241.35,96.8756 1252.78,88.5057 1264.2,90.1141 1275.63,99.955 1287.05,114.371 1298.48,128.598 1309.9,138.155 1321.33,140.383 1332.75,135.52 1344.18,126.847 
  1355.6,119.753 1367.03,120.038 1378.45,132.076 1389.88,157.571 1401.3,195.36 1412.73,242.245 1424.15,294.379 1435.57,348.506 1447,402.575 1458.42,455.616 
  1469.85,507.208 1481.27,556.99 1492.7,604.476 1504.12,649.186 1515.55,690.884 1526.97,729.729 1538.4,766.273 1549.82,801.353 1561.25,835.919 1572.67,870.83 
  1584.1,906.623 1595.52,943.338 1606.95,980.494 1618.37,1017.24 1629.8,1052.62 1641.22,1085.8 1652.65,1116.13 1664.07,1143.07 1675.49,1166.03 1686.92,1184.33 
  1698.34,1197.14 1709.77,1203.62 1721.19,1203.06 1732.62,1195.06 1744.04,1179.94 1755.47,1159.02 1766.89,1134.95 1778.32,1111.55 1789.74,1093.21 1801.17,1083.84 
  
  "/>
<path clip-path="url(#clip132)" d="
M1801.17 1083.84 L1806.11 1083.24 L1811.05 1084.87 L1815.99 1088.73 L1820.93 1094.73 L1825.87 1102.71 L1830.81 1112.46 L1835.76 1123.72 L1840.7 1136.18 L1845.64 1149.53 
  L1850.58 1163.46 L1855.52 1177.66 L1860.46 1191.85 L1865.4 1205.77 L1870.34 1219.22 L1875.29 1232 L1880.23 1244 L1885.17 1255.11 L1890.11 1265.29 L1895.05 1274.5 
  L1899.99 1282.76 L1904.93 1290.12 L1909.87 1296.64 L1914.82 1302.4 L1919.76 1307.51 L1924.7 1312.07 L1929.64 1316.19 L1934.58 1319.99 L1939.52 1323.57 L1944.46 1327.01 
  L1949.41 1330.39 L1954.35 1333.76 L1959.29 1337.16 L1964.23 1340.59 L1969.17 1344.06 L1974.11 1347.52 L1979.05 1350.95 L1983.99 1354.3 L1988.94 1357.52 L1993.88 1360.56 
  L1998.82 1363.38 L2003.76 1365.95 L2008.7 1368.25 L2013.64 1370.28 L2018.58 1372.05 L2023.52 1373.57 L2028.47 1374.88 L2033.41 1376.02 L2038.35 1377.04 L2043.29 1378 
  L2048.23 1378.94 L2053.17 1379.92 L2058.11 1380.97 L2063.05 1382.15 L2068 1383.47 L2072.94 1384.97 L2077.88 1386.66 L2082.82 1388.52 L2087.76 1390.56 L2092.7 1392.75 
  L2097.64 1395.07 L2102.58 1397.48 L2107.53 1399.94 L2112.47 1402.42 L2117.41 1404.88 L2122.35 1407.29 L2127.29 1409.62 L2132.23 1411.86 L2137.17 1413.98 L2142.11 1415.98 
  L2147.06 1417.86 L2152 1419.63 L2156.94 1421.29 L2161.88 1422.84 L2166.82 1424.31 L2171.76 1425.69 L2176.7 1426.99 L2181.64 1428.23 L2186.59 1429.39 L2191.53 1430.49 
  L2196.47 1431.51 L2201.41 1432.46 L2206.35 1433.32 L2211.29 1434.1 L2216.23 1434.79 L2221.18 1435.38 L2226.12 1435.86 L2231.06 1436.25 L2236 1436.54 L2240.94 1436.73 
  L2245.88 1436.83 L2250.82 1436.87 L2255.76 1436.84 L2260.71 1436.79 L2265.65 1436.71 L2270.59 1436.64 L2275.53 1436.59 L2280.47 1436.6 L2285.41 1436.66 L2290.35 1436.8 
  L2290.35 1445.72 L2285.41 1445.72 L2280.47 1445.72 L2275.53 1445.72 L2270.59 1445.72 L2265.65 1445.72 L2260.71 1445.72 L2255.76 1445.72 L2250.82 1445.72 L2245.88 1445.72 
  L2240.94 1445.72 L2236 1445.72 L2231.06 1445.72 L2226.12 1445.72 L2221.18 1445.72 L2216.23 1445.72 L2211.29 1445.72 L2206.35 1445.72 L2201.41 1445.72 L2196.47 1445.72 
  L2191.53 1445.72 L2186.59 1445.72 L2181.64 1445.72 L2176.7 1445.72 L2171.76 1445.72 L2166.82 1445.72 L2161.88 1445.72 L2156.94 1445.72 L2152 1445.72 L2147.06 1445.72 
  L2142.11 1445.72 L2137.17 1445.72 L2132.23 1445.72 L2127.29 1445.72 L2122.35 1445.72 L2117.41 1445.72 L2112.47 1445.72 L2107.53 1445.72 L2102.58 1445.72 L2097.64 1445.72 
  L2092.7 1445.72 L2087.76 1445.72 L2082.82 1445.72 L2077.88 1445.72 L2072.94 1445.72 L2068 1445.72 L2063.05 1445.72 L2058.11 1445.72 L2053.17 1445.72 L2048.23 1445.72 
  L2043.29 1445.72 L2038.35 1445.72 L2033.41 1445.72 L2028.47 1445.72 L2023.52 1445.72 L2018.58 1445.72 L2013.64 1445.72 L2008.7 1445.72 L2003.76 1445.72 L1998.82 1445.72 
  L1993.88 1445.72 L1988.94 1445.72 L1983.99 1445.72 L1979.05 1445.72 L1974.11 1445.72 L1969.17 1445.72 L1964.23 1445.72 L1959.29 1445.72 L1954.35 1445.72 L1949.41 1445.72 
  L1944.46 1445.72 L1939.52 1445.72 L1934.58 1445.72 L1929.64 1445.72 L1924.7 1445.72 L1919.76 1445.72 L1914.82 1445.72 L1909.87 1445.72 L1904.93 1445.72 L1899.99 1445.72 
  L1895.05 1445.72 L1890.11 1445.72 L1885.17 1445.72 L1880.23 1445.72 L1875.29 1445.72 L1870.34 1445.72 L1865.4 1445.72 L1860.46 1445.72 L1855.52 1445.72 L1850.58 1445.72 
  L1845.64 1445.72 L1840.7 1445.72 L1835.76 1445.72 L1830.81 1445.72 L1825.87 1445.72 L1820.93 1445.72 L1815.99 1445.72 L1811.05 1445.72 L1806.11 1445.72 L1801.17 1445.72 
   Z
  " fill="#ffa500" fill-rule="evenodd" fill-opacity="0.5"/>
<polyline clip-path="url(#clip132)" style="stroke:#ffa500; stroke-width:4; stroke-opacity:1; fill:none" points="
  1801.17,1083.84 1806.11,1083.24 1811.05,1084.87 1815.99,1088.73 1820.93,1094.73 1825.87,1102.71 1830.81,1112.46 1835.76,1123.72 1840.7,1136.18 1845.64,1149.53 
  1850.58,1163.46 1855.52,1177.66 1860.46,1191.85 1865.4,1205.77 1870.34,1219.22 1875.29,1232 1880.23,1244 1885.17,1255.11 1890.11,1265.29 1895.05,1274.5 
  1899.99,1282.76 1904.93,1290.12 1909.87,1296.64 1914.82,1302.4 1919.76,1307.51 1924.7,1312.07 1929.64,1316.19 1934.58,1319.99 1939.52,1323.57 1944.46,1327.01 
  1949.41,1330.39 1954.35,1333.76 1959.29,1337.16 1964.23,1340.59 1969.17,1344.06 1974.11,1347.52 1979.05,1350.95 1983.99,1354.3 1988.94,1357.52 1993.88,1360.56 
  1998.82,1363.38 2003.76,1365.95 2008.7,1368.25 2013.64,1370.28 2018.58,1372.05 2023.52,1373.57 2028.47,1374.88 2033.41,1376.02 2038.35,1377.04 2043.29,1378 
  2048.23,1378.94 2053.17,1379.92 2058.11,1380.97 2063.05,1382.15 2068,1383.47 2072.94,1384.97 2077.88,1386.66 2082.82,1388.52 2087.76,1390.56 2092.7,1392.75 
  2097.64,1395.07 2102.58,1397.48 2107.53,1399.94 2112.47,1402.42 2117.41,1404.88 2122.35,1407.29 2127.29,1409.62 2132.23,1411.86 2137.17,1413.98 2142.11,1415.98 
  2147.06,1417.86 2152,1419.63 2156.94,1421.29 2161.88,1422.84 2166.82,1424.31 2171.76,1425.69 2176.7,1426.99 2181.64,1428.23 2186.59,1429.39 2191.53,1430.49 
  2196.47,1431.51 2201.41,1432.46 2206.35,1433.32 2211.29,1434.1 2216.23,1434.79 2221.18,1435.38 2226.12,1435.86 2231.06,1436.25 2236,1436.54 2240.94,1436.73 
  2245.88,1436.83 2250.82,1436.87 2255.76,1436.84 2260.71,1436.79 2265.65,1436.71 2270.59,1436.64 2275.53,1436.59 2280.47,1436.6 2285.41,1436.66 2290.35,1436.8 
  
  "/>
<polyline clip-path="url(#clip132)" style="stroke:#0000ff; stroke-width:4; stroke-opacity:1; fill:none" points="
  1245.28,1445.72 1245.28,92.8533 
  "/>
<polyline clip-path="url(#clip132)" style="stroke:#000000; stroke-width:4; stroke-opacity:1; fill:none" points="
  1256.44,1445.72 1256.44,87.9763 
  "/>
</svg>
