<?xml version="1.0" encoding="utf-8"?>
<svg xmlns="http://www.w3.org/2000/svg" xmlns:xlink="http://www.w3.org/1999/xlink" width="600" height="400" viewBox="0 0 2400 1600">
<defs>
  <clipPath id="clip900">
    <rect x="0" y="0" width="2400" height="1600"/>
  </clipPath>
</defs>
<path clip-path="url(#clip900)" d="
M0 1600 L2400 1600 L2400 0 L0 0  Z
  " fill="#ffffff" fill-rule="evenodd" fill-opacity="1"/>
<defs>
  <clipPath id="clip901">
    <rect x="480" y="0" width="1681" height="1600"/>
  </clipPath>
</defs>
<path clip-path="url(#clip900)" d="
M86.9921 1521.01 L2352.76 1521.01 L2352.76 47.2441 L86.9921 47.2441  Z
  " fill="#ffffff" fill-rule="evenodd" fill-opacity="1"/>
<defs>
  <clipPath id="clip902">
    <rect x="86" y="47" width="2267" height="1475"/>
  </clipPath>
</defs>
<polyline clip-path="url(#clip902)" style="stroke:#000000; stroke-width:2; stroke-opacity:0.1; fill:none" points="
  441.331,1521.01 441.331,47.2441 
  "/>
<polyline clip-path="url(#clip902)" style="stroke:#000000; stroke-width:2; stroke-opacity:0.1; fill:none" points="
  921.682,1521.01 921.682,47.2441 
  "/>
<polyline clip-path="url(#clip902)" style="stroke:#000000; stroke-width:2; stroke-opacity:0.1; fill:none" points="
  1402.03,1521.01 1402.03,47.2441 
  "/>
<polyline clip-path="url(#clip902)" style="stroke:#000000; stroke-width:2; stroke-opacity:0.1; fill:none" points="
  1882.39,1521.01 1882.39,47.2441 
  "/>
<polyline clip-path="url(#clip902)" style="stroke:#000000; stroke-width:2; stroke-opacity:0.1; fill:none" points="
  86.9921,1479.3 2352.76,1479.3 
  "/>
<polyline clip-path="url(#clip902)" style="stroke:#000000; stroke-width:2; stroke-opacity:0.1; fill:none" points="
  86.9921,1109.37 2352.76,1109.37 
  "/>
<polyline clip-path="url(#clip902)" style="stroke:#000000; stroke-width:2; stroke-opacity:0.1; fill:none" points="
  86.9921,739.447 2352.76,739.447 
  "/>
<polyline clip-path="url(#clip902)" style="stroke:#000000; stroke-width:2; stroke-opacity:0.1; fill:none" points="
  86.9921,369.522 2352.76,369.522 
  "/>
<polyline clip-path="url(#clip900)" style="stroke:#000000; stroke-width:4; stroke-opacity:1; fill:none" points="
  86.9921,1521.01 2352.76,1521.01 
  "/>
<polyline clip-path="url(#clip900)" style="stroke:#000000; stroke-width:4; stroke-opacity:1; fill:none" points="
  86.9921,1521.01 86.9921,47.2441 
  "/>
<polyline clip-path="url(#clip900)" style="stroke:#000000; stroke-width:4; stroke-opacity:1; fill:none" points="
  441.331,1521.01 441.331,1503.32 
  "/>
<polyline clip-path="url(#clip900)" style="stroke:#000000; stroke-width:4; stroke-opacity:1; fill:none" points="
  921.682,1521.01 921.682,1503.32 
  "/>
<polyline clip-path="url(#clip900)" style="stroke:#000000; stroke-width:4; stroke-opacity:1; fill:none" points="
  1402.03,1521.01 1402.03,1503.32 
  "/>
<polyline clip-path="url(#clip900)" style="stroke:#000000; stroke-width:4; stroke-opacity:1; fill:none" points="
  1882.39,1521.01 1882.39,1503.32 
  "/>
<polyline clip-path="url(#clip900)" style="stroke:#000000; stroke-width:4; stroke-opacity:1; fill:none" points="
  86.9921,1479.3 114.181,1479.3 
  "/>
<polyline clip-path="url(#clip900)" style="stroke:#000000; stroke-width:4; stroke-opacity:1; fill:none" points="
  86.9921,1109.37 114.181,1109.37 
  "/>
<polyline clip-path="url(#clip900)" style="stroke:#000000; stroke-width:4; stroke-opacity:1; fill:none" points="
  86.9921,739.447 114.181,739.447 
  "/>
<polyline clip-path="url(#clip900)" style="stroke:#000000; stroke-width:4; stroke-opacity:1; fill:none" points="
  86.9921,369.522 114.181,369.522 
  "/>
<path clip-path="url(#clip900)" d="M 0 0 M382.558 1557.65 L412.234 1557.65 L412.234 1561.59 L382.558 1561.59 L382.558 1557.65 Z" fill="#000000" fill-rule="evenodd" fill-opacity="1" /><path clip-path="url(#clip900)" d="M 0 0 M418.113 1570.54 L425.752 1570.54 L425.752 1544.18 L417.442 1545.85 L417.442 1541.59 L425.706 1539.92 L430.382 1539.92 L430.382 1570.54 L438.02 1570.54 L438.02 1574.48 L418.113 1574.48 L418.113 1570.54 Z" fill="#000000" fill-rule="evenodd" fill-opacity="1" /><path clip-path="url(#clip900)" d="M 0 0 M443.09 1568.6 L447.974 1568.6 L447.974 1574.48 L443.09 1574.48 L443.09 1568.6 Z" fill="#000000" fill-rule="evenodd" fill-opacity="1" /><path clip-path="url(#clip900)" d="M 0 0 M451.863 1539.92 L474.085 1539.92 L474.085 1541.91 L461.539 1574.48 L456.655 1574.48 L468.46 1543.86 L451.863 1543.86 L451.863 1539.92 Z" fill="#000000" fill-rule="evenodd" fill-opacity="1" /><path clip-path="url(#clip900)" d="M 0 0 M479.201 1539.92 L497.557 1539.92 L497.557 1543.86 L483.483 1543.86 L483.483 1552.33 Q484.502 1551.98 485.52 1551.82 Q486.539 1551.63 487.557 1551.63 Q493.344 1551.63 496.724 1554.8 Q500.103 1557.98 500.103 1563.39 Q500.103 1568.97 496.631 1572.07 Q493.159 1575.15 486.84 1575.15 Q484.664 1575.15 482.395 1574.78 Q480.15 1574.41 477.742 1573.67 L477.742 1568.97 Q479.826 1570.1 482.048 1570.66 Q484.27 1571.22 486.747 1571.22 Q490.752 1571.22 493.09 1569.11 Q495.428 1567 495.428 1563.39 Q495.428 1559.78 493.09 1557.67 Q490.752 1555.57 486.747 1555.57 Q484.872 1555.57 482.997 1555.98 Q481.145 1556.4 479.201 1557.28 L479.201 1539.92 Z" fill="#000000" fill-rule="evenodd" fill-opacity="1" /><path clip-path="url(#clip900)" d="M 0 0 M862.458 1557.65 L892.134 1557.65 L892.134 1561.59 L862.458 1561.59 L862.458 1557.65 Z" fill="#000000" fill-rule="evenodd" fill-opacity="1" /><path clip-path="url(#clip900)" d="M 0 0 M898.013 1570.54 L905.652 1570.54 L905.652 1544.18 L897.342 1545.85 L897.342 1541.59 L905.606 1539.92 L910.282 1539.92 L910.282 1570.54 L917.921 1570.54 L917.921 1574.48 L898.013 1574.48 L898.013 1570.54 Z" fill="#000000" fill-rule="evenodd" fill-opacity="1" /><path clip-path="url(#clip900)" d="M 0 0 M922.99 1568.6 L927.874 1568.6 L927.874 1574.48 L922.99 1574.48 L922.99 1568.6 Z" fill="#000000" fill-rule="evenodd" fill-opacity="1" /><path clip-path="url(#clip900)" d="M 0 0 M932.99 1539.92 L951.346 1539.92 L951.346 1543.86 L937.272 1543.86 L937.272 1552.33 Q938.291 1551.98 939.309 1551.82 Q940.328 1551.63 941.346 1551.63 Q947.133 1551.63 950.513 1554.8 Q953.893 1557.98 953.893 1563.39 Q953.893 1568.97 950.42 1572.07 Q946.948 1575.15 940.629 1575.15 Q938.453 1575.15 936.184 1574.78 Q933.939 1574.41 931.532 1573.67 L931.532 1568.97 Q933.615 1570.1 935.837 1570.66 Q938.059 1571.22 940.536 1571.22 Q944.541 1571.22 946.879 1569.11 Q949.217 1567 949.217 1563.39 Q949.217 1559.78 946.879 1557.67 Q944.541 1555.57 940.536 1555.57 Q938.661 1555.57 936.786 1555.98 Q934.934 1556.4 932.99 1557.28 L932.99 1539.92 Z" fill="#000000" fill-rule="evenodd" fill-opacity="1" /><path clip-path="url(#clip900)" d="M 0 0 M968.962 1543 Q965.351 1543 963.522 1546.56 Q961.717 1550.11 961.717 1557.23 Q961.717 1564.34 963.522 1567.91 Q965.351 1571.45 968.962 1571.45 Q972.596 1571.45 974.402 1567.91 Q976.231 1564.34 976.231 1557.23 Q976.231 1550.11 974.402 1546.56 Q972.596 1543 968.962 1543 M968.962 1539.29 Q974.772 1539.29 977.828 1543.9 Q980.906 1548.48 980.906 1557.23 Q980.906 1565.96 977.828 1570.57 Q974.772 1575.15 968.962 1575.15 Q963.152 1575.15 960.073 1570.57 Q957.018 1565.96 957.018 1557.23 Q957.018 1548.48 960.073 1543.9 Q963.152 1539.29 968.962 1539.29 Z" fill="#000000" fill-rule="evenodd" fill-opacity="1" /><path clip-path="url(#clip900)" d="M 0 0 M1343.61 1557.65 L1373.28 1557.65 L1373.28 1561.59 L1343.61 1561.59 L1343.61 1557.65 Z" fill="#000000" fill-rule="evenodd" fill-opacity="1" /><path clip-path="url(#clip900)" d="M 0 0 M1379.16 1570.54 L1386.8 1570.54 L1386.8 1544.18 L1378.49 1545.85 L1378.49 1541.59 L1386.76 1539.92 L1391.43 1539.92 L1391.43 1570.54 L1399.07 1570.54 L1399.07 1574.48 L1379.16 1574.48 L1379.16 1570.54 Z" fill="#000000" fill-rule="evenodd" fill-opacity="1" /><path clip-path="url(#clip900)" d="M 0 0 M1404.14 1568.6 L1409.02 1568.6 L1409.02 1574.48 L1404.14 1574.48 L1404.14 1568.6 Z" fill="#000000" fill-rule="evenodd" fill-opacity="1" /><path clip-path="url(#clip900)" d="M 0 0 M1418.12 1570.54 L1434.44 1570.54 L1434.44 1574.48 L1412.5 1574.48 L1412.5 1570.54 Q1415.16 1567.79 1419.74 1563.16 Q1424.35 1558.51 1425.53 1557.17 Q1427.77 1554.64 1428.65 1552.91 Q1429.56 1551.15 1429.56 1549.46 Q1429.56 1546.7 1427.61 1544.97 Q1425.69 1543.23 1422.59 1543.23 Q1420.39 1543.23 1417.94 1543.99 Q1415.51 1544.76 1412.73 1546.31 L1412.73 1541.59 Q1415.55 1540.45 1418.01 1539.87 Q1420.46 1539.29 1422.5 1539.29 Q1427.87 1539.29 1431.06 1541.98 Q1434.26 1544.67 1434.26 1549.16 Q1434.26 1551.29 1433.45 1553.21 Q1432.66 1555.1 1430.55 1557.7 Q1429.97 1558.37 1426.87 1561.59 Q1423.77 1564.78 1418.12 1570.54 Z" fill="#000000" fill-rule="evenodd" fill-opacity="1" /><path clip-path="url(#clip900)" d="M 0 0 M1439.56 1539.92 L1457.91 1539.92 L1457.91 1543.86 L1443.84 1543.86 L1443.84 1552.33 Q1444.86 1551.98 1445.88 1551.82 Q1446.89 1551.63 1447.91 1551.63 Q1453.7 1551.63 1457.08 1554.8 Q1460.46 1557.98 1460.46 1563.39 Q1460.46 1568.97 1456.99 1572.07 Q1453.51 1575.15 1447.2 1575.15 Q1445.02 1575.15 1442.75 1574.78 Q1440.51 1574.41 1438.1 1573.67 L1438.1 1568.97 Q1440.18 1570.1 1442.4 1570.66 Q1444.63 1571.22 1447.1 1571.22 Q1451.11 1571.22 1453.45 1569.11 Q1455.78 1567 1455.78 1563.39 Q1455.78 1559.78 1453.45 1557.67 Q1451.11 1555.57 1447.1 1555.57 Q1445.23 1555.57 1443.35 1555.98 Q1441.5 1556.4 1439.56 1557.28 L1439.56 1539.92 Z" fill="#000000" fill-rule="evenodd" fill-opacity="1" /><path clip-path="url(#clip900)" d="M 0 0 M1822.66 1557.65 L1852.34 1557.65 L1852.34 1561.59 L1822.66 1561.59 L1822.66 1557.65 Z" fill="#000000" fill-rule="evenodd" fill-opacity="1" /><path clip-path="url(#clip900)" d="M 0 0 M1858.22 1570.54 L1865.86 1570.54 L1865.86 1544.18 L1857.55 1545.85 L1857.55 1541.59 L1865.81 1539.92 L1870.49 1539.92 L1870.49 1570.54 L1878.13 1570.54 L1878.13 1574.48 L1858.22 1574.48 L1858.22 1570.54 Z" fill="#000000" fill-rule="evenodd" fill-opacity="1" /><path clip-path="url(#clip900)" d="M 0 0 M1883.2 1568.6 L1888.08 1568.6 L1888.08 1574.48 L1883.2 1574.48 L1883.2 1568.6 Z" fill="#000000" fill-rule="evenodd" fill-opacity="1" /><path clip-path="url(#clip900)" d="M 0 0 M1903.15 1543 Q1899.54 1543 1897.71 1546.56 Q1895.9 1550.11 1895.9 1557.23 Q1895.9 1564.34 1897.71 1567.91 Q1899.54 1571.45 1903.15 1571.45 Q1906.78 1571.45 1908.59 1567.91 Q1910.42 1564.34 1910.42 1557.23 Q1910.42 1550.11 1908.59 1546.56 Q1906.78 1543 1903.15 1543 M1903.15 1539.29 Q1908.96 1539.29 1912.01 1543.9 Q1915.09 1548.48 1915.09 1557.23 Q1915.09 1565.96 1912.01 1570.57 Q1908.96 1575.15 1903.15 1575.15 Q1897.34 1575.15 1894.26 1570.57 Q1891.2 1565.96 1891.2 1557.23 Q1891.2 1548.48 1894.26 1543.9 Q1897.34 1539.29 1903.15 1539.29 Z" fill="#000000" fill-rule="evenodd" fill-opacity="1" /><path clip-path="url(#clip900)" d="M 0 0 M1930.16 1543 Q1926.55 1543 1924.72 1546.56 Q1922.92 1550.11 1922.92 1557.23 Q1922.92 1564.34 1924.72 1567.91 Q1926.55 1571.45 1930.16 1571.45 Q1933.8 1571.45 1935.6 1567.91 Q1937.43 1564.34 1937.43 1557.23 Q1937.43 1550.11 1935.6 1546.56 Q1933.8 1543 1930.16 1543 M1930.16 1539.29 Q1935.97 1539.29 1939.03 1543.9 Q1942.11 1548.48 1942.11 1557.23 Q1942.11 1565.96 1939.03 1570.57 Q1935.97 1575.15 1930.16 1575.15 Q1924.35 1575.15 1921.27 1570.57 Q1918.22 1565.96 1918.22 1557.23 Q1918.22 1548.48 1921.27 1543.9 Q1924.35 1539.29 1930.16 1539.29 Z" fill="#000000" fill-rule="evenodd" fill-opacity="1" /><path clip-path="url(#clip900)" d="M 0 0 M14.0804 1465.1 Q10.4693 1465.1 8.64057 1468.66 Q6.83502 1472.2 6.83502 1479.33 Q6.83502 1486.44 8.64057 1490 Q10.4693 1493.55 14.0804 1493.55 Q17.7146 1493.55 19.5201 1490 Q21.3488 1486.44 21.3488 1479.33 Q21.3488 1472.2 19.5201 1468.66 Q17.7146 1465.1 14.0804 1465.1 M14.0804 1461.39 Q19.8905 1461.39 22.946 1466 Q26.0247 1470.58 26.0247 1479.33 Q26.0247 1488.06 22.946 1492.67 Q19.8905 1497.25 14.0804 1497.25 Q8.2702 1497.25 5.19151 1492.67 Q2.13597 1488.06 2.13597 1479.33 Q2.13597 1470.58 5.19151 1466 Q8.2702 1461.39 14.0804 1461.39 Z" fill="#000000" fill-rule="evenodd" fill-opacity="1" /><path clip-path="url(#clip900)" d="M 0 0 M31.0941 1490.7 L35.9784 1490.7 L35.9784 1496.58 L31.0941 1496.58 L31.0941 1490.7 Z" fill="#000000" fill-rule="evenodd" fill-opacity="1" /><path clip-path="url(#clip900)" d="M 0 0 M51.0477 1465.1 Q47.4367 1465.1 45.608 1468.66 Q43.8024 1472.2 43.8024 1479.33 Q43.8024 1486.44 45.608 1490 Q47.4367 1493.55 51.0477 1493.55 Q54.682 1493.55 56.4875 1490 Q58.3162 1486.44 58.3162 1479.33 Q58.3162 1472.2 56.4875 1468.66 Q54.682 1465.1 51.0477 1465.1 M51.0477 1461.39 Q56.8579 1461.39 59.9134 1466 Q62.9921 1470.58 62.9921 1479.33 Q62.9921 1488.06 59.9134 1492.67 Q56.8579 1497.25 51.0477 1497.25 Q45.2376 1497.25 42.1589 1492.67 Q39.1034 1488.06 39.1034 1479.33 Q39.1034 1470.58 42.1589 1466 Q45.2376 1461.39 51.0477 1461.39 Z" fill="#000000" fill-rule="evenodd" fill-opacity="1" /><path clip-path="url(#clip900)" d="M 0 0 M15.0757 1095.17 Q11.4646 1095.17 9.63593 1098.74 Q7.83038 1102.28 7.83038 1109.41 Q7.83038 1116.51 9.63593 1120.08 Q11.4646 1123.62 15.0757 1123.62 Q18.71 1123.62 20.5155 1120.08 Q22.3442 1116.51 22.3442 1109.41 Q22.3442 1102.28 20.5155 1098.74 Q18.71 1095.17 15.0757 1095.17 M15.0757 1091.47 Q20.8859 1091.47 23.9414 1096.07 Q27.0201 1100.66 27.0201 1109.41 Q27.0201 1118.13 23.9414 1122.74 Q20.8859 1127.32 15.0757 1127.32 Q9.26556 1127.32 6.18687 1122.74 Q3.13134 1118.13 3.13134 1109.41 Q3.13134 1100.66 6.18687 1096.07 Q9.26556 1091.47 15.0757 1091.47 Z" fill="#000000" fill-rule="evenodd" fill-opacity="1" /><path clip-path="url(#clip900)" d="M 0 0 M32.0895 1120.77 L36.9737 1120.77 L36.9737 1126.65 L32.0895 1126.65 L32.0895 1120.77 Z" fill="#000000" fill-rule="evenodd" fill-opacity="1" /><path clip-path="url(#clip900)" d="M 0 0 M42.0895 1092.09 L60.4458 1092.09 L60.4458 1096.03 L46.3718 1096.03 L46.3718 1104.5 Q47.3904 1104.15 48.4089 1103.99 Q49.4274 1103.81 50.4459 1103.81 Q56.2329 1103.81 59.6125 1106.98 Q62.9921 1110.15 62.9921 1115.56 Q62.9921 1121.14 59.5199 1124.24 Q56.0477 1127.32 49.7283 1127.32 Q47.5524 1127.32 45.2839 1126.95 Q43.0385 1126.58 40.6311 1125.84 L40.6311 1121.14 Q42.7145 1122.28 44.9367 1122.83 Q47.1589 1123.39 49.6357 1123.39 Q53.6403 1123.39 55.9783 1121.28 Q58.3162 1119.18 58.3162 1115.56 Q58.3162 1111.95 55.9783 1109.85 Q53.6403 1107.74 49.6357 1107.74 Q47.7607 1107.74 45.8857 1108.16 Q44.0339 1108.57 42.0895 1109.45 L42.0895 1092.09 Z" fill="#000000" fill-rule="evenodd" fill-opacity="1" /><path clip-path="url(#clip900)" d="M 0 0 M6.11743 752.792 L13.7563 752.792 L13.7563 726.426 L5.44614 728.093 L5.44614 723.834 L13.71 722.167 L18.3859 722.167 L18.3859 752.792 L26.0247 752.792 L26.0247 756.727 L6.11743 756.727 L6.11743 752.792 Z" fill="#000000" fill-rule="evenodd" fill-opacity="1" /><path clip-path="url(#clip900)" d="M 0 0 M31.0941 750.848 L35.9784 750.848 L35.9784 756.727 L31.0941 756.727 L31.0941 750.848 Z" fill="#000000" fill-rule="evenodd" fill-opacity="1" /><path clip-path="url(#clip900)" d="M 0 0 M51.0477 725.246 Q47.4367 725.246 45.608 728.811 Q43.8024 732.352 43.8024 739.482 Q43.8024 746.588 45.608 750.153 Q47.4367 753.695 51.0477 753.695 Q54.682 753.695 56.4875 750.153 Q58.3162 746.588 58.3162 739.482 Q58.3162 732.352 56.4875 728.811 Q54.682 725.246 51.0477 725.246 M51.0477 721.542 Q56.8579 721.542 59.9134 726.149 Q62.9921 730.732 62.9921 739.482 Q62.9921 748.209 59.9134 752.815 Q56.8579 757.398 51.0477 757.398 Q45.2376 757.398 42.1589 752.815 Q39.1034 748.209 39.1034 739.482 Q39.1034 730.732 42.1589 726.149 Q45.2376 721.542 51.0477 721.542 Z" fill="#000000" fill-rule="evenodd" fill-opacity="1" /><path clip-path="url(#clip900)" d="M 0 0 M7.1128 382.867 L14.7516 382.867 L14.7516 356.501 L6.4415 358.168 L6.4415 353.909 L14.7053 352.242 L19.3812 352.242 L19.3812 382.867 L27.0201 382.867 L27.0201 386.802 L7.1128 386.802 L7.1128 382.867 Z" fill="#000000" fill-rule="evenodd" fill-opacity="1" /><path clip-path="url(#clip900)" d="M 0 0 M32.0895 380.922 L36.9737 380.922 L36.9737 386.802 L32.0895 386.802 L32.0895 380.922 Z" fill="#000000" fill-rule="evenodd" fill-opacity="1" /><path clip-path="url(#clip900)" d="M 0 0 M42.0895 352.242 L60.4458 352.242 L60.4458 356.177 L46.3718 356.177 L46.3718 364.649 Q47.3904 364.302 48.4089 364.14 Q49.4274 363.955 50.4459 363.955 Q56.2329 363.955 59.6125 367.126 Q62.9921 370.297 62.9921 375.714 Q62.9921 381.293 59.5199 384.395 Q56.0477 387.473 49.7283 387.473 Q47.5524 387.473 45.2839 387.103 Q43.0385 386.732 40.6311 385.992 L40.6311 381.293 Q42.7145 382.427 44.9367 382.983 Q47.1589 383.538 49.6357 383.538 Q53.6403 383.538 55.9783 381.432 Q58.3162 379.325 58.3162 375.714 Q58.3162 372.103 55.9783 369.996 Q53.6403 367.89 49.6357 367.89 Q47.7607 367.89 45.8857 368.307 Q44.0339 368.723 42.0895 369.603 L42.0895 352.242 Z" fill="#000000" fill-rule="evenodd" fill-opacity="1" /><path clip-path="url(#clip902)" d="
M151.118 1477.94 L157.125 1477.87 L163.133 1477.79 L169.141 1477.71 L175.149 1477.6 L181.156 1477.48 L187.164 1477.33 L193.172 1477.14 L199.18 1476.9 L205.187 1476.6 
  L211.195 1476.22 L217.203 1475.75 L223.211 1475.17 L229.218 1474.47 L235.226 1473.62 L241.234 1472.61 L247.242 1471.41 L253.249 1470.01 L259.257 1468.38 L265.265 1466.51 
  L271.273 1464.4 L277.281 1462.03 L283.288 1459.4 L289.296 1456.53 L295.304 1453.42 L301.312 1450.12 L307.319 1446.64 L313.327 1443.03 L319.335 1439.35 L325.343 1435.64 
  L331.35 1431.95 L337.358 1428.35 L343.366 1424.89 L349.374 1421.62 L355.381 1418.57 L361.389 1415.79 L367.397 1413.3 L373.405 1411.1 L379.413 1409.2 L385.42 1407.61 
  L391.428 1406.29 L397.436 1405.25 L403.444 1404.44 L409.451 1403.85 L415.459 1403.44 L421.467 1403.19 L427.475 1403.05 L433.482 1403 L439.49 1402.98 L445.498 1402.97 
  L451.506 1402.91 L457.513 1402.75 L463.521 1402.42 L469.529 1401.87 L475.537 1401.03 L481.545 1399.83 L487.552 1398.21 L493.56 1396.11 L499.568 1393.46 L505.576 1390.24 
  L511.583 1386.41 L517.591 1381.96 L523.599 1376.87 L529.607 1371.17 L535.614 1364.88 L541.622 1358.02 L547.63 1350.63 L553.638 1342.76 L559.645 1334.46 L565.653 1325.76 
  L571.661 1316.72 L577.669 1307.38 L583.676 1297.8 L589.684 1288.01 L595.692 1278.09 L601.7 1268.1 L607.708 1258.11 L613.715 1248.22 L619.723 1238.51 L625.731 1229.09 
  L631.739 1220.07 L637.746 1211.55 L643.754 1203.61 L649.762 1196.34 L655.77 1189.79 L661.777 1183.98 L667.785 1178.9 L673.793 1174.5 L679.801 1170.68 L685.808 1167.32 
  L691.816 1164.24 L697.824 1161.24 L703.832 1158.08 L709.84 1154.5 L715.847 1150.22 L721.855 1144.94 L727.863 1138.38 L733.871 1130.24 L739.878 1120.24 L745.886 1108.11 
  L745.886 1479.3 L739.878 1479.3 L733.871 1479.3 L727.863 1479.3 L721.855 1479.3 L715.847 1479.3 L709.84 1479.3 L703.832 1479.3 L697.824 1479.3 L691.816 1479.3 
  L685.808 1479.3 L679.801 1479.3 L673.793 1479.3 L667.785 1479.3 L661.777 1479.3 L655.77 1479.3 L649.762 1479.3 L643.754 1479.3 L637.746 1479.3 L631.739 1479.3 
  L625.731 1479.3 L619.723 1479.3 L613.715 1479.3 L607.708 1479.3 L601.7 1479.3 L595.692 1479.3 L589.684 1479.3 L583.676 1479.3 L577.669 1479.3 L571.661 1479.3 
  L565.653 1479.3 L559.645 1479.3 L553.638 1479.3 L547.63 1479.3 L541.622 1479.3 L535.614 1479.3 L529.607 1479.3 L523.599 1479.3 L517.591 1479.3 L511.583 1479.3 
  L505.576 1479.3 L499.568 1479.3 L493.56 1479.3 L487.552 1479.3 L481.545 1479.3 L475.537 1479.3 L469.529 1479.3 L463.521 1479.3 L457.513 1479.3 L451.506 1479.3 
  L445.498 1479.3 L439.49 1479.3 L433.482 1479.3 L427.475 1479.3 L421.467 1479.3 L415.459 1479.3 L409.451 1479.3 L403.444 1479.3 L397.436 1479.3 L391.428 1479.3 
  L385.42 1479.3 L379.413 1479.3 L373.405 1479.3 L367.397 1479.3 L361.389 1479.3 L355.381 1479.3 L349.374 1479.3 L343.366 1479.3 L337.358 1479.3 L331.35 1479.3 
  L325.343 1479.3 L319.335 1479.3 L313.327 1479.3 L307.319 1479.3 L301.312 1479.3 L295.304 1479.3 L289.296 1479.3 L283.288 1479.3 L277.281 1479.3 L271.273 1479.3 
  L265.265 1479.3 L259.257 1479.3 L253.249 1479.3 L247.242 1479.3 L241.234 1479.3 L235.226 1479.3 L229.218 1479.3 L223.211 1479.3 L217.203 1479.3 L211.195 1479.3 
  L205.187 1479.3 L199.18 1479.3 L193.172 1479.3 L187.164 1479.3 L181.156 1479.3 L175.149 1479.3 L169.141 1479.3 L163.133 1479.3 L157.125 1479.3 L151.118 1479.3 
   Z
  " fill="#ffa500" fill-rule="evenodd" fill-opacity="0.5"/>
<polyline clip-path="url(#clip902)" style="stroke:#ffa500; stroke-width:4; stroke-opacity:1; fill:none" points="
  151.118,1477.94 157.125,1477.87 163.133,1477.79 169.141,1477.71 175.149,1477.6 181.156,1477.48 187.164,1477.33 193.172,1477.14 199.18,1476.9 205.187,1476.6 
  211.195,1476.22 217.203,1475.75 223.211,1475.17 229.218,1474.47 235.226,1473.62 241.234,1472.61 247.242,1471.41 253.249,1470.01 259.257,1468.38 265.265,1466.51 
  271.273,1464.4 277.281,1462.03 283.288,1459.4 289.296,1456.53 295.304,1453.42 301.312,1450.12 307.319,1446.64 313.327,1443.03 319.335,1439.35 325.343,1435.64 
  331.35,1431.95 337.358,1428.35 343.366,1424.89 349.374,1421.62 355.381,1418.57 361.389,1415.79 367.397,1413.3 373.405,1411.1 379.413,1409.2 385.42,1407.61 
  391.428,1406.29 397.436,1405.25 403.444,1404.44 409.451,1403.85 415.459,1403.44 421.467,1403.19 427.475,1403.05 433.482,1403 439.49,1402.98 445.498,1402.97 
  451.506,1402.91 457.513,1402.75 463.521,1402.42 469.529,1401.87 475.537,1401.03 481.545,1399.83 487.552,1398.21 493.56,1396.11 499.568,1393.46 505.576,1390.24 
  511.583,1386.41 517.591,1381.96 523.599,1376.87 529.607,1371.17 535.614,1364.88 541.622,1358.02 547.63,1350.63 553.638,1342.76 559.645,1334.46 565.653,1325.76 
  571.661,1316.72 577.669,1307.38 583.676,1297.8 589.684,1288.01 595.692,1278.09 601.7,1268.1 607.708,1258.11 613.715,1248.22 619.723,1238.51 625.731,1229.09 
  631.739,1220.07 637.746,1211.55 643.754,1203.61 649.762,1196.34 655.77,1189.79 661.777,1183.98 667.785,1178.9 673.793,1174.5 679.801,1170.68 685.808,1167.32 
  691.816,1164.24 697.824,1161.24 703.832,1158.08 709.84,1154.5 715.847,1150.22 721.855,1144.94 727.863,1138.38 733.871,1130.24 739.878,1120.24 745.886,1108.11 
  
  "/>
<path clip-path="url(#clip902)" d="
M745.886 1108.11 L757.767 1076.97 L769.649 1035.22 L781.53 982.248 L793.411 918.368 L805.293 845.018 L817.174 764.776 L829.055 681.275 L840.937 598.969 L852.818 522.73 
  L864.699 457.313 L876.58 406.707 L888.462 373.494 L900.343 358.343 L912.224 359.772 L924.106 374.302 L935.987 396.994 L947.868 422.275 L959.75 444.865 L971.631 460.603 
  L983.512 466.994 L995.393 463.419 L1007.27 451.015 L1019.16 432.302 L1031.04 410.648 L1042.92 389.666 L1054.8 372.618 L1066.68 361.892 L1078.56 358.653 L1090.44 362.716 
  L1102.33 372.687 L1114.21 386.339 L1126.09 401.127 L1137.97 414.705 L1149.85 425.311 L1161.73 431.929 L1173.61 434.229 L1185.49 432.321 L1197.38 426.469 L1209.26 416.841 
  L1221.14 403.402 L1233.02 385.965 L1244.9 364.373 L1256.78 338.746 L1268.66 309.693 L1280.54 278.429 L1292.43 246.731 L1304.31 216.753 L1316.19 190.72 L1328.07 170.59 
  L1339.95 157.75 L1351.83 152.825 L1363.71 155.628 L1375.6 165.238 L1387.48 180.173 L1399.36 198.592 L1411.24 218.461 L1423.12 237.683 L1435 254.172 L1446.88 265.926 
  L1458.76 271.148 L1470.65 268.442 L1482.53 257.093 L1494.41 237.359 L1506.29 210.698 L1518.17 179.794 L1530.05 148.311 L1541.93 120.345 L1553.81 99.6728 L1565.7 88.9544 
  L1577.58 89.1322 L1589.46 99.2042 L1601.34 116.469 L1613.22 137.186 L1625.1 157.469 L1636.98 174.156 L1648.87 185.438 L1660.75 191.106 L1672.63 192.41 L1684.51 191.639 
  L1696.39 191.582 L1708.27 195.009 L1720.15 204.292 L1732.03 221.177 L1743.92 246.702 L1755.8 281.2 L1767.68 324.352 L1779.56 375.24 L1791.44 432.427 L1803.32 494.047 
  L1815.2 557.947 L1827.08 621.886 L1838.97 683.766 L1850.85 741.877 L1862.73 795.095 L1874.61 842.971 L1886.49 885.716 L1898.37 924.038 L1910.25 958.912 L1922.14 991.309 
  L1922.14 1479.3 L1910.25 1479.3 L1898.37 1479.3 L1886.49 1479.3 L1874.61 1479.3 L1862.73 1479.3 L1850.85 1479.3 L1838.97 1479.3 L1827.08 1479.3 L1815.2 1479.3 
  L1803.32 1479.3 L1791.44 1479.3 L1779.56 1479.3 L1767.68 1479.3 L1755.8 1479.3 L1743.92 1479.3 L1732.03 1479.3 L1720.15 1479.3 L1708.27 1479.3 L1696.39 1479.3 
  L1684.51 1479.3 L1672.63 1479.3 L1660.75 1479.3 L1648.87 1479.3 L1636.98 1479.3 L1625.1 1479.3 L1613.22 1479.3 L1601.34 1479.3 L1589.46 1479.3 L1577.58 1479.3 
  L1565.7 1479.3 L1553.81 1479.3 L1541.93 1479.3 L1530.05 1479.3 L1518.17 1479.3 L1506.29 1479.3 L1494.41 1479.3 L1482.53 1479.3 L1470.65 1479.3 L1458.76 1479.3 
  L1446.88 1479.3 L1435 1479.3 L1423.12 1479.3 L1411.24 1479.3 L1399.36 1479.3 L1387.48 1479.3 L1375.6 1479.3 L1363.71 1479.3 L1351.83 1479.3 L1339.95 1479.3 
  L1328.07 1479.3 L1316.19 1479.3 L1304.31 1479.3 L1292.43 1479.3 L1280.54 1479.3 L1268.66 1479.3 L1256.78 1479.3 L1244.9 1479.3 L1233.02 1479.3 L1221.14 1479.3 
  L1209.26 1479.3 L1197.38 1479.3 L1185.49 1479.3 L1173.61 1479.3 L1161.73 1479.3 L1149.85 1479.3 L1137.97 1479.3 L1126.09 1479.3 L1114.21 1479.3 L1102.33 1479.3 
  L1090.44 1479.3 L1078.56 1479.3 L1066.68 1479.3 L1054.8 1479.3 L1042.92 1479.3 L1031.04 1479.3 L1019.16 1479.3 L1007.27 1479.3 L995.393 1479.3 L983.512 1479.3 
  L971.631 1479.3 L959.75 1479.3 L947.868 1479.3 L935.987 1479.3 L924.106 1479.3 L912.224 1479.3 L900.343 1479.3 L888.462 1479.3 L876.58 1479.3 L864.699 1479.3 
  L852.818 1479.3 L840.937 1479.3 L829.055 1479.3 L817.174 1479.3 L805.293 1479.3 L793.411 1479.3 L781.53 1479.3 L769.649 1479.3 L757.767 1479.3 L745.886 1479.3 
   Z
  " fill="#008000" fill-rule="evenodd" fill-opacity="0.5"/>
<polyline clip-path="url(#clip902)" style="stroke:#008000; stroke-width:4; stroke-opacity:1; fill:none" points="
  745.886,1108.11 757.767,1076.97 769.649,1035.22 781.53,982.248 793.411,918.368 805.293,845.018 817.174,764.776 829.055,681.275 840.937,598.969 852.818,522.73 
  864.699,457.313 876.58,406.707 888.462,373.494 900.343,358.343 912.224,359.772 924.106,374.302 935.987,396.994 947.868,422.275 959.75,444.865 971.631,460.603 
  983.512,466.994 995.393,463.419 1007.27,451.015 1019.16,432.302 1031.04,410.648 1042.92,389.666 1054.8,372.618 1066.68,361.892 1078.56,358.653 1090.44,362.716 
  1102.33,372.687 1114.21,386.339 1126.09,401.127 1137.97,414.705 1149.85,425.311 1161.73,431.929 1173.61,434.229 1185.49,432.321 1197.38,426.469 1209.26,416.841 
  1221.14,403.402 1233.02,385.965 1244.9,364.373 1256.78,338.746 1268.66,309.693 1280.54,278.429 1292.43,246.731 1304.31,216.753 1316.19,190.72 1328.07,170.59 
  1339.95,157.75 1351.83,152.825 1363.71,155.628 1375.6,165.238 1387.48,180.173 1399.36,198.592 1411.24,218.461 1423.12,237.683 1435,254.172 1446.88,265.926 
  1458.76,271.148 1470.65,268.442 1482.53,257.093 1494.41,237.359 1506.29,210.698 1518.17,179.794 1530.05,148.311 1541.93,120.345 1553.81,99.6728 1565.7,88.9544 
  1577.58,89.1322 1589.46,99.2042 1601.34,116.469 1613.22,137.186 1625.1,157.469 1636.98,174.156 1648.87,185.438 1660.75,191.106 1672.63,192.41 1684.51,191.639 
  1696.39,191.582 1708.27,195.009 1720.15,204.292 1732.03,221.177 1743.92,246.702 1755.8,281.2 1767.68,324.352 1779.56,375.24 1791.44,432.427 1803.32,494.047 
  1815.2,557.947 1827.08,621.886 1838.97,683.766 1850.85,741.877 1862.73,795.095 1874.61,842.971 1886.49,885.716 1898.37,924.038 1910.25,958.912 1922.14,991.309 
  
  "/>
<path clip-path="url(#clip902)" d="
M1922.14 991.309 L1925.84 1001.02 L1929.54 1010.59 L1933.24 1020.02 L1936.94 1029.32 L1940.64 1038.5 L1944.35 1047.55 L1948.05 1056.48 L1951.75 1065.28 L1955.45 1073.94 
  L1959.15 1082.46 L1962.86 1090.82 L1966.56 1099 L1970.26 1107 L1973.96 1114.8 L1977.66 1122.4 L1981.37 1129.77 L1985.07 1136.91 L1988.77 1143.81 L1992.47 1150.47 
  L1996.17 1156.88 L1999.88 1163.04 L2003.58 1168.95 L2007.28 1174.62 L2010.98 1180.05 L2014.68 1185.26 L2018.39 1190.25 L2022.09 1195.04 L2025.79 1199.66 L2029.49 1204.11 
  L2033.19 1208.42 L2036.9 1212.61 L2040.6 1216.7 L2044.3 1220.71 L2048 1224.67 L2051.7 1228.6 L2055.41 1232.51 L2059.11 1236.44 L2062.81 1240.39 L2066.51 1244.39 
  L2070.21 1248.44 L2073.92 1252.58 L2077.62 1256.8 L2081.32 1261.11 L2085.02 1265.52 L2088.72 1270.04 L2092.43 1274.66 L2096.13 1279.39 L2099.83 1284.22 L2103.53 1289.14 
  L2107.23 1294.15 L2110.94 1299.24 L2114.64 1304.4 L2118.34 1309.61 L2122.04 1314.86 L2125.74 1320.13 L2129.45 1325.41 L2133.15 1330.68 L2136.85 1335.93 L2140.55 1341.13 
  L2144.25 1346.26 L2147.96 1351.33 L2151.66 1356.29 L2155.36 1361.16 L2159.06 1365.9 L2162.76 1370.51 L2166.47 1374.98 L2170.17 1379.31 L2173.87 1383.47 L2177.57 1387.48 
  L2181.27 1391.32 L2184.98 1395 L2188.68 1398.52 L2192.38 1401.88 L2196.08 1405.08 L2199.78 1408.14 L2203.49 1411.05 L2207.19 1413.82 L2210.89 1416.47 L2214.59 1419 
  L2218.29 1421.42 L2221.99 1423.75 L2225.7 1425.98 L2229.4 1428.13 L2233.1 1430.22 L2236.8 1432.24 L2240.5 1434.21 L2244.21 1436.12 L2247.91 1438 L2251.61 1439.84 
  L2255.31 1441.64 L2259.01 1443.41 L2262.72 1445.15 L2266.42 1446.86 L2270.12 1448.55 L2273.82 1450.2 L2277.52 1451.83 L2281.23 1453.42 L2284.93 1454.98 L2288.63 1456.51 
  L2288.63 1479.3 L2284.93 1479.3 L2281.23 1479.3 L2277.52 1479.3 L2273.82 1479.3 L2270.12 1479.3 L2266.42 1479.3 L2262.72 1479.3 L2259.01 1479.3 L2255.31 1479.3 
  L2251.61 1479.3 L2247.91 1479.3 L2244.21 1479.3 L2240.5 1479.3 L2236.8 1479.3 L2233.1 1479.3 L2229.4 1479.3 L2225.7 1479.3 L2221.99 1479.3 L2218.29 1479.3 
  L2214.59 1479.3 L2210.89 1479.3 L2207.19 1479.3 L2203.49 1479.3 L2199.78 1479.3 L2196.08 1479.3 L2192.38 1479.3 L2188.68 1479.3 L2184.98 1479.3 L2181.27 1479.3 
  L2177.57 1479.3 L2173.87 1479.3 L2170.17 1479.3 L2166.47 1479.3 L2162.76 1479.3 L2159.06 1479.3 L2155.36 1479.3 L2151.66 1479.3 L2147.96 1479.3 L2144.25 1479.3 
  L2140.55 1479.3 L2136.85 1479.3 L2133.15 1479.3 L2129.45 1479.3 L2125.74 1479.3 L2122.04 1479.3 L2118.34 1479.3 L2114.64 1479.3 L2110.94 1479.3 L2107.23 1479.3 
  L2103.53 1479.3 L2099.83 1479.3 L2096.13 1479.3 L2092.43 1479.3 L2088.72 1479.3 L2085.02 1479.3 L2081.32 1479.3 L2077.62 1479.3 L2073.92 1479.3 L2070.21 1479.3 
  L2066.51 1479.3 L2062.81 1479.3 L2059.11 1479.3 L2055.41 1479.3 L2051.7 1479.3 L2048 1479.3 L2044.3 1479.3 L2040.6 1479.3 L2036.9 1479.3 L2033.19 1479.3 
  L2029.49 1479.3 L2025.79 1479.3 L2022.09 1479.3 L2018.39 1479.3 L2014.68 1479.3 L2010.98 1479.3 L2007.28 1479.3 L2003.58 1479.3 L1999.88 1479.3 L1996.17 1479.3 
  L1992.47 1479.3 L1988.77 1479.3 L1985.07 1479.3 L1981.37 1479.3 L1977.66 1479.3 L1973.96 1479.3 L1970.26 1479.3 L1966.56 1479.3 L1962.86 1479.3 L1959.15 1479.3 
  L1955.45 1479.3 L1951.75 1479.3 L1948.05 1479.3 L1944.35 1479.3 L1940.64 1479.3 L1936.94 1479.3 L1933.24 1479.3 L1929.54 1479.3 L1925.84 1479.3 L1922.14 1479.3 
   Z
  " fill="#ffa500" fill-rule="evenodd" fill-opacity="0.5"/>
<polyline clip-path="url(#clip902)" style="stroke:#ffa500; stroke-width:4; stroke-opacity:1; fill:none" points="
  1922.14,991.309 1925.84,1001.02 1929.54,1010.59 1933.24,1020.02 1936.94,1029.32 1940.64,1038.5 1944.35,1047.55 1948.05,1056.48 1951.75,1065.28 1955.45,1073.94 
  1959.15,1082.46 1962.86,1090.82 1966.56,1099 1970.26,1107 1973.96,1114.8 1977.66,1122.4 1981.37,1129.77 1985.07,1136.91 1988.77,1143.81 1992.47,1150.47 
  1996.17,1156.88 1999.88,1163.04 2003.58,1168.95 2007.28,1174.62 2010.98,1180.05 2014.68,1185.26 2018.39,1190.25 2022.09,1195.04 2025.79,1199.66 2029.49,1204.11 
  2033.19,1208.42 2036.9,1212.61 2040.6,1216.7 2044.3,1220.71 2048,1224.67 2051.7,1228.6 2055.41,1232.51 2059.11,1236.44 2062.81,1240.39 2066.51,1244.39 
  2070.21,1248.44 2073.92,1252.58 2077.62,1256.8 2081.32,1261.11 2085.02,1265.52 2088.72,1270.04 2092.43,1274.66 2096.13,1279.39 2099.83,1284.22 2103.53,1289.14 
  2107.23,1294.15 2110.94,1299.24 2114.64,1304.4 2118.34,1309.61 2122.04,1314.86 2125.74,1320.13 2129.45,1325.41 2133.15,1330.68 2136.85,1335.93 2140.55,1341.13 
  2144.25,1346.26 2147.96,1351.33 2151.66,1356.29 2155.36,1361.16 2159.06,1365.9 2162.76,1370.51 2166.47,1374.98 2170.17,1379.31 2173.87,1383.47 2177.57,1387.48 
  2181.27,1391.32 2184.98,1395 2188.68,1398.52 2192.38,1401.88 2196.08,1405.08 2199.78,1408.14 2203.49,1411.05 2207.19,1413.82 2210.89,1416.47 2214.59,1419 
  2218.29,1421.42 2221.99,1423.75 2225.7,1425.98 2229.4,1428.13 2233.1,1430.22 2236.8,1432.24 2240.5,1434.21 2244.21,1436.12 2247.91,1438 2251.61,1439.84 
  2255.31,1441.64 2259.01,1443.41 2262.72,1445.15 2266.42,1446.86 2270.12,1448.55 2273.82,1450.2 2277.52,1451.83 2281.23,1453.42 2284.93,1454.98 2288.63,1456.51 
  
  "/>
<polyline clip-path="url(#clip902)" style="stroke:#0000ff; stroke-width:4; stroke-opacity:1; fill:none" points="
  1349.75,1479.3 1349.75,153.114 
  "/>
<polyline clip-path="url(#clip902)" style="stroke:#000000; stroke-width:4; stroke-opacity:1; fill:none" points="
  1364.27,1479.3 1364.27,155.936 
  "/>
<path clip-path="url(#clip900)" d="
M1494.58 459.25 L2277.23 459.25 L2277.23 96.3696 L1494.58 96.3696  Z
  " fill="#ffffff" fill-rule="evenodd" fill-opacity="1"/>
<polyline clip-path="url(#clip900)" style="stroke:#000000; stroke-width:4; stroke-opacity:1; fill:none" points="
  1494.58,459.25 2277.23,459.25 2277.23,96.3696 1494.58,96.3696 1494.58,459.25 
  "/>
<path clip-path="url(#clip900)" d="
M1519.75 181.042 L1670.81 181.042 L1670.81 132.658 L1519.75 132.658 L1519.75 181.042  Z
  " fill="#ffa500" fill-rule="evenodd" fill-opacity="0.5"/>
<polyline clip-path="url(#clip900)" style="stroke:#ffa500; stroke-width:4; stroke-opacity:1; fill:none" points="
  1519.75,132.658 1670.81,132.658 
  "/>
<path clip-path="url(#clip900)" d="M 0 0 M1700.38 161.19 Q1700.38 165.889 1702.3 168.574 Q1704.24 171.236 1707.62 171.236 Q1711 171.236 1712.95 168.574 Q1714.89 165.889 1714.89 161.19 Q1714.89 156.491 1712.95 153.829 Q1711 151.144 1707.62 151.144 Q1704.24 151.144 1702.3 153.829 Q1700.38 156.491 1700.38 161.19 M1714.89 170.241 Q1713.55 172.555 1711.49 173.69 Q1709.45 174.801 1706.58 174.801 Q1701.88 174.801 1698.92 171.051 Q1695.98 167.301 1695.98 161.19 Q1695.98 155.079 1698.92 151.329 Q1701.88 147.579 1706.58 147.579 Q1709.45 147.579 1711.49 148.713 Q1713.55 149.824 1714.89 152.139 L1714.89 148.204 L1719.15 148.204 L1719.15 183.991 L1714.89 183.991 L1714.89 170.241 Z" fill="#000000" fill-rule="evenodd" fill-opacity="1" /><path clip-path="url(#clip900)" d="M 0 0 M1734.22 142.648 Q1730.61 142.648 1728.78 146.213 Q1726.98 149.755 1726.98 156.884 Q1726.98 163.991 1728.78 167.556 Q1730.61 171.097 1734.22 171.097 Q1737.85 171.097 1739.66 167.556 Q1741.49 163.991 1741.49 156.884 Q1741.49 149.755 1739.66 146.213 Q1737.85 142.648 1734.22 142.648 M1734.22 138.945 Q1740.03 138.945 1743.09 143.551 Q1746.17 148.134 1746.17 156.884 Q1746.17 165.611 1743.09 170.218 Q1740.03 174.801 1734.22 174.801 Q1728.41 174.801 1725.33 170.218 Q1722.28 165.611 1722.28 156.884 Q1722.28 148.134 1725.33 143.551 Q1728.41 138.945 1734.22 138.945 Z" fill="#000000" fill-rule="evenodd" fill-opacity="1" /><path clip-path="url(#clip900)" d="M 0 0 M1751.28 139.57 L1769.64 139.57 L1769.64 143.505 L1755.56 143.505 L1755.56 151.977 Q1756.58 151.63 1757.6 151.468 Q1758.62 151.282 1759.64 151.282 Q1765.42 151.282 1768.8 154.454 Q1772.18 157.625 1772.18 163.042 Q1772.18 168.62 1768.71 171.722 Q1765.24 174.801 1758.92 174.801 Q1756.74 174.801 1754.48 174.43 Q1752.23 174.06 1749.82 173.319 L1749.82 168.62 Q1751.91 169.755 1754.13 170.31 Q1756.35 170.866 1758.83 170.866 Q1762.83 170.866 1765.17 168.759 Q1767.51 166.653 1767.51 163.042 Q1767.51 159.431 1765.17 157.324 Q1762.83 155.218 1758.83 155.218 Q1756.95 155.218 1755.08 155.634 Q1753.23 156.051 1751.28 156.931 L1751.28 139.57 Z" fill="#000000" fill-rule="evenodd" fill-opacity="1" /><path clip-path="url(#clip900)" d="
M1519.75 241.522 L1670.81 241.522 L1670.81 193.138 L1519.75 193.138 L1519.75 241.522  Z
  " fill="#008000" fill-rule="evenodd" fill-opacity="0.5"/>
<polyline clip-path="url(#clip900)" style="stroke:#008000; stroke-width:4; stroke-opacity:1; fill:none" points="
  1519.75,193.138 1670.81,193.138 
  "/>
<path clip-path="url(#clip900)" d="M 0 0 M1698.2 233.892 L1698.2 229.633 Q1699.96 230.466 1701.77 230.906 Q1703.57 231.346 1705.31 231.346 Q1709.94 231.346 1712.37 228.244 Q1714.82 225.119 1715.17 218.776 Q1713.83 220.767 1711.77 221.832 Q1709.71 222.897 1707.21 222.897 Q1702.02 222.897 1698.99 219.772 Q1695.98 216.624 1695.98 211.184 Q1695.98 205.86 1699.13 202.642 Q1702.28 199.425 1707.51 199.425 Q1713.5 199.425 1716.65 204.031 Q1719.82 208.614 1719.82 217.364 Q1719.82 225.536 1715.93 230.42 Q1712.07 235.281 1705.52 235.281 Q1703.76 235.281 1701.95 234.934 Q1700.15 234.586 1698.2 233.892 M1707.51 219.239 Q1710.66 219.239 1712.48 217.086 Q1714.34 214.934 1714.34 211.184 Q1714.34 207.457 1712.48 205.304 Q1710.66 203.128 1707.51 203.128 Q1704.36 203.128 1702.51 205.304 Q1700.68 207.457 1700.68 211.184 Q1700.68 214.934 1702.51 217.086 Q1704.36 219.239 1707.51 219.239 Z" fill="#000000" fill-rule="evenodd" fill-opacity="1" /><path clip-path="url(#clip900)" d="M 0 0 M1734.89 203.128 Q1731.28 203.128 1729.45 206.693 Q1727.65 210.235 1727.65 217.364 Q1727.65 224.471 1729.45 228.036 Q1731.28 231.577 1734.89 231.577 Q1738.53 231.577 1740.33 228.036 Q1742.16 224.471 1742.16 217.364 Q1742.16 210.235 1740.33 206.693 Q1738.53 203.128 1734.89 203.128 M1734.89 199.425 Q1740.7 199.425 1743.76 204.031 Q1746.84 208.614 1746.84 217.364 Q1746.84 226.091 1743.76 230.698 Q1740.7 235.281 1734.89 235.281 Q1729.08 235.281 1726 230.698 Q1722.95 226.091 1722.95 217.364 Q1722.95 208.614 1726 204.031 Q1729.08 199.425 1734.89 199.425 Z" fill="#000000" fill-rule="evenodd" fill-opacity="1" /><path clip-path="url(#clip900)" d="M 0 0 M1781.3 219.401 Q1779.29 219.401 1778.13 221.114 Q1777 222.827 1777 225.883 Q1777 228.892 1778.13 230.628 Q1779.29 232.341 1781.3 232.341 Q1783.27 232.341 1784.41 230.628 Q1785.56 228.892 1785.56 225.883 Q1785.56 222.85 1784.41 221.137 Q1783.27 219.401 1781.3 219.401 M1781.3 216.462 Q1784.96 216.462 1787.11 219.008 Q1789.27 221.554 1789.27 225.883 Q1789.27 230.211 1787.09 232.758 Q1784.94 235.281 1781.3 235.281 Q1777.6 235.281 1775.45 232.758 Q1773.29 230.211 1773.29 225.883 Q1773.29 221.531 1775.45 219.008 Q1777.62 216.462 1781.3 216.462 M1757.42 202.364 Q1755.42 202.364 1754.27 204.1 Q1753.13 205.813 1753.13 208.823 Q1753.13 211.878 1754.27 213.591 Q1755.4 215.304 1757.42 215.304 Q1759.43 215.304 1760.56 213.591 Q1761.72 211.878 1761.72 208.823 Q1761.72 205.837 1760.56 204.1 Q1759.41 202.364 1757.42 202.364 M1778.32 199.425 L1782.02 199.425 L1760.4 235.281 L1756.7 235.281 L1778.32 199.425 M1757.42 199.425 Q1761.07 199.425 1763.25 201.971 Q1765.42 204.494 1765.42 208.823 Q1765.42 213.198 1763.25 215.721 Q1761.1 218.244 1757.42 218.244 Q1753.73 218.244 1751.58 215.721 Q1749.45 213.174 1749.45 208.823 Q1749.45 204.517 1751.6 201.971 Q1753.76 199.425 1757.42 199.425 Z" fill="#000000" fill-rule="evenodd" fill-opacity="1" /><path clip-path="url(#clip900)" d="M 0 0 M1830.35 218.961 L1830.35 234.61 L1826.1 234.61 L1826.1 219.1 Q1826.1 215.42 1824.66 213.591 Q1823.22 211.762 1820.35 211.762 Q1816.91 211.762 1814.91 213.962 Q1812.92 216.161 1812.92 219.957 L1812.92 234.61 L1808.64 234.61 L1808.64 208.684 L1812.92 208.684 L1812.92 212.712 Q1814.45 210.374 1816.51 209.216 Q1818.6 208.059 1821.3 208.059 Q1825.77 208.059 1828.06 210.837 Q1830.35 213.591 1830.35 218.961 Z" fill="#000000" fill-rule="evenodd" fill-opacity="1" /><path clip-path="url(#clip900)" d="M 0 0 M1844.87 211.67 Q1841.44 211.67 1839.45 214.355 Q1837.46 217.017 1837.46 221.67 Q1837.46 226.323 1839.43 229.008 Q1841.42 231.67 1844.87 231.67 Q1848.27 231.67 1850.26 228.985 Q1852.25 226.299 1852.25 221.67 Q1852.25 217.063 1850.26 214.378 Q1848.27 211.67 1844.87 211.67 M1844.87 208.059 Q1850.42 208.059 1853.6 211.67 Q1856.77 215.281 1856.77 221.67 Q1856.77 228.036 1853.6 231.67 Q1850.42 235.281 1844.87 235.281 Q1839.29 235.281 1836.12 231.67 Q1832.97 228.036 1832.97 221.67 Q1832.97 215.281 1836.12 211.67 Q1839.29 208.059 1844.87 208.059 Z" fill="#000000" fill-rule="evenodd" fill-opacity="1" /><path clip-path="url(#clip900)" d="M 0 0 M1882.78 218.961 L1882.78 234.61 L1878.53 234.61 L1878.53 219.1 Q1878.53 215.42 1877.09 213.591 Q1875.66 211.762 1872.78 211.762 Q1869.34 211.762 1867.35 213.962 Q1865.35 216.161 1865.35 219.957 L1865.35 234.61 L1861.07 234.61 L1861.07 208.684 L1865.35 208.684 L1865.35 212.712 Q1866.88 210.374 1868.94 209.216 Q1871.03 208.059 1873.73 208.059 Q1878.2 208.059 1880.49 210.837 Q1882.78 213.591 1882.78 218.961 Z" fill="#000000" fill-rule="evenodd" fill-opacity="1" /><path clip-path="url(#clip900)" d="M 0 0 M1885.1 219.725 L1897.58 219.725 L1897.58 223.522 L1885.1 223.522 L1885.1 219.725 Z" fill="#000000" fill-rule="evenodd" fill-opacity="1" /><path clip-path="url(#clip900)" d="M 0 0 M1917.07 212.665 Q1916.35 212.249 1915.49 212.063 Q1914.66 211.855 1913.64 211.855 Q1910.03 211.855 1908.09 214.216 Q1906.16 216.554 1906.16 220.952 L1906.16 234.61 L1901.88 234.61 L1901.88 208.684 L1906.16 208.684 L1906.16 212.712 Q1907.51 210.35 1909.66 209.216 Q1911.81 208.059 1914.89 208.059 Q1915.33 208.059 1915.86 208.128 Q1916.4 208.175 1917.04 208.29 L1917.07 212.665 Z" fill="#000000" fill-rule="evenodd" fill-opacity="1" /><path clip-path="url(#clip900)" d="M 0 0 M1942.67 220.582 L1942.67 222.665 L1923.09 222.665 Q1923.36 227.063 1925.72 229.378 Q1928.11 231.67 1932.34 231.67 Q1934.8 231.67 1937.09 231.068 Q1939.4 230.466 1941.67 229.262 L1941.67 233.29 Q1939.38 234.262 1936.97 234.772 Q1934.57 235.281 1932.09 235.281 Q1925.89 235.281 1922.25 231.67 Q1918.64 228.059 1918.64 221.901 Q1918.64 215.536 1922.07 211.809 Q1925.52 208.059 1931.35 208.059 Q1936.58 208.059 1939.61 211.438 Q1942.67 214.795 1942.67 220.582 M1938.41 219.332 Q1938.36 215.837 1936.44 213.753 Q1934.54 211.67 1931.4 211.67 Q1927.83 211.67 1925.68 213.684 Q1923.55 215.698 1923.22 219.355 L1938.41 219.332 Z" fill="#000000" fill-rule="evenodd" fill-opacity="1" /><path clip-path="url(#clip900)" d="M 0 0 M1947.14 208.684 L1951.4 208.684 L1951.4 235.073 Q1951.4 240.026 1949.5 242.248 Q1947.62 244.471 1943.43 244.471 L1941.81 244.471 L1941.81 240.86 L1942.95 240.86 Q1945.38 240.86 1946.26 239.725 Q1947.14 238.614 1947.14 235.073 L1947.14 208.684 M1947.14 198.591 L1951.4 198.591 L1951.4 203.985 L1947.14 203.985 L1947.14 198.591 Z" fill="#000000" fill-rule="evenodd" fill-opacity="1" /><path clip-path="url(#clip900)" d="M 0 0 M1978.04 220.582 L1978.04 222.665 L1958.46 222.665 Q1958.73 227.063 1961.09 229.378 Q1963.48 231.67 1967.71 231.67 Q1970.17 231.67 1972.46 231.068 Q1974.78 230.466 1977.04 229.262 L1977.04 233.29 Q1974.75 234.262 1972.34 234.772 Q1969.94 235.281 1967.46 235.281 Q1961.26 235.281 1957.62 231.67 Q1954.01 228.059 1954.01 221.901 Q1954.01 215.536 1957.44 211.809 Q1960.89 208.059 1966.72 208.059 Q1971.95 208.059 1974.98 211.438 Q1978.04 214.795 1978.04 220.582 M1973.78 219.332 Q1973.73 215.837 1971.81 213.753 Q1969.91 211.67 1966.77 211.67 Q1963.2 211.67 1961.05 213.684 Q1958.92 215.698 1958.59 219.355 L1973.78 219.332 Z" fill="#000000" fill-rule="evenodd" fill-opacity="1" /><path clip-path="url(#clip900)" d="M 0 0 M2001.16 209.679 L2001.16 213.661 Q1999.36 212.665 1997.53 212.179 Q1995.72 211.67 1993.87 211.67 Q1989.73 211.67 1987.44 214.309 Q1985.15 216.924 1985.15 221.67 Q1985.15 226.415 1987.44 229.054 Q1989.73 231.67 1993.87 231.67 Q1995.72 231.67 1997.53 231.184 Q1999.36 230.674 2001.16 229.679 L2001.16 233.614 Q1999.38 234.448 1997.46 234.864 Q1995.56 235.281 1993.41 235.281 Q1987.55 235.281 1984.1 231.6 Q1980.65 227.92 1980.65 221.67 Q1980.65 215.327 1984.13 211.693 Q1987.62 208.059 1993.69 208.059 Q1995.65 208.059 1997.53 208.475 Q1999.4 208.869 2001.16 209.679 Z" fill="#000000" fill-rule="evenodd" fill-opacity="1" /><path clip-path="url(#clip900)" d="M 0 0 M2009.84 201.323 L2009.84 208.684 L2018.62 208.684 L2018.62 211.994 L2009.84 211.994 L2009.84 226.068 Q2009.84 229.239 2010.7 230.142 Q2011.58 231.045 2014.24 231.045 L2018.62 231.045 L2018.62 234.61 L2014.24 234.61 Q2009.31 234.61 2007.44 232.781 Q2005.56 230.929 2005.56 226.068 L2005.56 211.994 L2002.44 211.994 L2002.44 208.684 L2005.56 208.684 L2005.56 201.323 L2009.84 201.323 Z" fill="#000000" fill-rule="evenodd" fill-opacity="1" /><path clip-path="url(#clip900)" d="M 0 0 M2023.08 208.684 L2027.34 208.684 L2027.34 234.61 L2023.08 234.61 L2023.08 208.684 M2023.08 198.591 L2027.34 198.591 L2027.34 203.985 L2023.08 203.985 L2023.08 198.591 Z" fill="#000000" fill-rule="evenodd" fill-opacity="1" /><path clip-path="url(#clip900)" d="M 0 0 M2041.86 211.67 Q2038.43 211.67 2036.44 214.355 Q2034.45 217.017 2034.45 221.67 Q2034.45 226.323 2036.42 229.008 Q2038.41 231.67 2041.86 231.67 Q2045.26 231.67 2047.25 228.985 Q2049.24 226.299 2049.24 221.67 Q2049.24 217.063 2047.25 214.378 Q2045.26 211.67 2041.86 211.67 M2041.86 208.059 Q2047.41 208.059 2050.58 211.67 Q2053.76 215.281 2053.76 221.67 Q2053.76 228.036 2050.58 231.67 Q2047.41 235.281 2041.86 235.281 Q2036.28 235.281 2033.11 231.67 Q2029.96 228.036 2029.96 221.67 Q2029.96 215.281 2033.11 211.67 Q2036.28 208.059 2041.86 208.059 Z" fill="#000000" fill-rule="evenodd" fill-opacity="1" /><path clip-path="url(#clip900)" d="M 0 0 M2079.77 218.961 L2079.77 234.61 L2075.52 234.61 L2075.52 219.1 Q2075.52 215.42 2074.08 213.591 Q2072.64 211.762 2069.77 211.762 Q2066.33 211.762 2064.33 213.962 Q2062.34 216.161 2062.34 219.957 L2062.34 234.61 L2058.06 234.61 L2058.06 208.684 L2062.34 208.684 L2062.34 212.712 Q2063.87 210.374 2065.93 209.216 Q2068.02 208.059 2070.72 208.059 Q2075.19 208.059 2077.48 210.837 Q2079.77 213.591 2079.77 218.961 Z" fill="#000000" fill-rule="evenodd" fill-opacity="1" /><path clip-path="url(#clip900)" d="M 0 0 M2114.33 212.665 Q2113.62 212.249 2112.76 212.063 Q2111.93 211.855 2110.91 211.855 Q2107.3 211.855 2105.35 214.216 Q2103.43 216.554 2103.43 220.952 L2103.43 234.61 L2099.15 234.61 L2099.15 208.684 L2103.43 208.684 L2103.43 212.712 Q2104.77 210.35 2106.93 209.216 Q2109.08 208.059 2112.16 208.059 Q2112.6 208.059 2113.13 208.128 Q2113.66 208.175 2114.31 208.29 L2114.33 212.665 Z" fill="#000000" fill-rule="evenodd" fill-opacity="1" /><path clip-path="url(#clip900)" d="M 0 0 M2139.94 220.582 L2139.94 222.665 L2120.35 222.665 Q2120.63 227.063 2122.99 229.378 Q2125.38 231.67 2129.61 231.67 Q2132.07 231.67 2134.36 231.068 Q2136.67 230.466 2138.94 229.262 L2138.94 233.29 Q2136.65 234.262 2134.24 234.772 Q2131.83 235.281 2129.36 235.281 Q2123.15 235.281 2119.52 231.67 Q2115.91 228.059 2115.91 221.901 Q2115.91 215.536 2119.33 211.809 Q2122.78 208.059 2128.62 208.059 Q2133.85 208.059 2136.88 211.438 Q2139.94 214.795 2139.94 220.582 M2135.68 219.332 Q2135.63 215.837 2133.71 213.753 Q2131.81 211.67 2128.66 211.67 Q2125.1 211.67 2122.95 213.684 Q2120.82 215.698 2120.49 219.355 L2135.68 219.332 Z" fill="#000000" fill-rule="evenodd" fill-opacity="1" /><path clip-path="url(#clip900)" d="M 0 0 M2161.46 221.346 Q2161.46 216.716 2159.54 214.17 Q2157.64 211.624 2154.2 211.624 Q2150.77 211.624 2148.85 214.17 Q2146.95 216.716 2146.95 221.346 Q2146.95 225.952 2148.85 228.498 Q2150.77 231.045 2154.2 231.045 Q2157.64 231.045 2159.54 228.498 Q2161.46 225.952 2161.46 221.346 M2165.72 231.392 Q2165.72 238.012 2162.78 241.23 Q2159.84 244.471 2153.78 244.471 Q2151.53 244.471 2149.54 244.123 Q2147.55 243.799 2145.68 243.105 L2145.68 238.961 Q2147.55 239.98 2149.38 240.466 Q2151.21 240.952 2153.11 240.952 Q2157.3 240.952 2159.38 238.753 Q2161.46 236.577 2161.46 232.156 L2161.46 230.049 Q2160.14 232.341 2158.08 233.475 Q2156.02 234.61 2153.15 234.61 Q2148.39 234.61 2145.47 230.975 Q2142.55 227.341 2142.55 221.346 Q2142.55 215.327 2145.47 211.693 Q2148.39 208.059 2153.15 208.059 Q2156.02 208.059 2158.08 209.193 Q2160.14 210.327 2161.46 212.619 L2161.46 208.684 L2165.72 208.684 L2165.72 231.392 Z" fill="#000000" fill-rule="evenodd" fill-opacity="1" /><path clip-path="url(#clip900)" d="M 0 0 M2170.19 208.684 L2174.45 208.684 L2174.45 234.61 L2170.19 234.61 L2170.19 208.684 M2170.19 198.591 L2174.45 198.591 L2174.45 203.985 L2170.19 203.985 L2170.19 198.591 Z" fill="#000000" fill-rule="evenodd" fill-opacity="1" /><path clip-path="url(#clip900)" d="M 0 0 M2188.96 211.67 Q2185.54 211.67 2183.55 214.355 Q2181.56 217.017 2181.56 221.67 Q2181.56 226.323 2183.52 229.008 Q2185.51 231.67 2188.96 231.67 Q2192.37 231.67 2194.36 228.985 Q2196.35 226.299 2196.35 221.67 Q2196.35 217.063 2194.36 214.378 Q2192.37 211.67 2188.96 211.67 M2188.96 208.059 Q2194.52 208.059 2197.69 211.67 Q2200.86 215.281 2200.86 221.67 Q2200.86 228.036 2197.69 231.67 Q2194.52 235.281 2188.96 235.281 Q2183.39 235.281 2180.21 231.67 Q2177.07 228.036 2177.07 221.67 Q2177.07 215.281 2180.21 211.67 Q2183.39 208.059 2188.96 208.059 Z" fill="#000000" fill-rule="evenodd" fill-opacity="1" /><path clip-path="url(#clip900)" d="M 0 0 M2226.88 218.961 L2226.88 234.61 L2222.62 234.61 L2222.62 219.1 Q2222.62 215.42 2221.19 213.591 Q2219.75 211.762 2216.88 211.762 Q2213.43 211.762 2211.44 213.962 Q2209.45 216.161 2209.45 219.957 L2209.45 234.61 L2205.17 234.61 L2205.17 208.684 L2209.45 208.684 L2209.45 212.712 Q2210.98 210.374 2213.04 209.216 Q2215.12 208.059 2217.83 208.059 Q2222.3 208.059 2224.59 210.837 Q2226.88 213.591 2226.88 218.961 Z" fill="#000000" fill-rule="evenodd" fill-opacity="1" /><path clip-path="url(#clip900)" d="
M1519.75 302.002 L1670.81 302.002 L1670.81 253.618 L1519.75 253.618 L1519.75 302.002  Z
  " fill="#ffa500" fill-rule="evenodd" fill-opacity="0.5"/>
<polyline clip-path="url(#clip900)" style="stroke:#ffa500; stroke-width:4; stroke-opacity:1; fill:none" points="
  1519.75,253.618 1670.81,253.618 
  "/>
<path clip-path="url(#clip900)" d="M 0 0 M1700.38 282.15 Q1700.38 286.849 1702.3 289.534 Q1704.24 292.196 1707.62 292.196 Q1711 292.196 1712.95 289.534 Q1714.89 286.849 1714.89 282.15 Q1714.89 277.451 1712.95 274.789 Q1711 272.104 1707.62 272.104 Q1704.24 272.104 1702.3 274.789 Q1700.38 277.451 1700.38 282.15 M1714.89 291.201 Q1713.55 293.515 1711.49 294.65 Q1709.45 295.761 1706.58 295.761 Q1701.88 295.761 1698.92 292.011 Q1695.98 288.261 1695.98 282.15 Q1695.98 276.039 1698.92 272.289 Q1701.88 268.539 1706.58 268.539 Q1709.45 268.539 1711.49 269.673 Q1713.55 270.784 1714.89 273.099 L1714.89 269.164 L1719.15 269.164 L1719.15 304.951 L1714.89 304.951 L1714.89 291.201 Z" fill="#000000" fill-rule="evenodd" fill-opacity="1" /><path clip-path="url(#clip900)" d="M 0 0 M1724.36 294.372 L1724.36 290.113 Q1726.12 290.946 1727.92 291.386 Q1729.73 291.826 1731.47 291.826 Q1736.1 291.826 1738.53 288.724 Q1740.98 285.599 1741.33 279.256 Q1739.98 281.247 1737.92 282.312 Q1735.86 283.377 1733.36 283.377 Q1728.18 283.377 1725.15 280.252 Q1722.14 277.104 1722.14 271.664 Q1722.14 266.34 1725.29 263.122 Q1728.43 259.905 1733.67 259.905 Q1739.66 259.905 1742.81 264.511 Q1745.98 269.094 1745.98 277.844 Q1745.98 286.016 1742.09 290.9 Q1738.23 295.761 1731.67 295.761 Q1729.92 295.761 1728.11 295.414 Q1726.3 295.066 1724.36 294.372 M1733.67 279.719 Q1736.81 279.719 1738.64 277.566 Q1740.49 275.414 1740.49 271.664 Q1740.49 267.937 1738.64 265.784 Q1736.81 263.608 1733.67 263.608 Q1730.52 263.608 1728.67 265.784 Q1726.84 267.937 1726.84 271.664 Q1726.84 275.414 1728.67 277.566 Q1730.52 279.719 1733.67 279.719 Z" fill="#000000" fill-rule="evenodd" fill-opacity="1" /><path clip-path="url(#clip900)" d="M 0 0 M1751.1 260.53 L1769.45 260.53 L1769.45 264.465 L1755.38 264.465 L1755.38 272.937 Q1756.4 272.59 1757.42 272.428 Q1758.43 272.242 1759.45 272.242 Q1765.24 272.242 1768.62 275.414 Q1772 278.585 1772 284.002 Q1772 289.58 1768.53 292.682 Q1765.05 295.761 1758.73 295.761 Q1756.56 295.761 1754.29 295.39 Q1752.04 295.02 1749.64 294.279 L1749.64 289.58 Q1751.72 290.715 1753.94 291.27 Q1756.17 291.826 1758.64 291.826 Q1762.65 291.826 1764.98 289.719 Q1767.32 287.613 1767.32 284.002 Q1767.32 280.391 1764.98 278.284 Q1762.65 276.178 1758.64 276.178 Q1756.77 276.178 1754.89 276.594 Q1753.04 277.011 1751.1 277.891 L1751.1 260.53 Z" fill="#000000" fill-rule="evenodd" fill-opacity="1" /><polyline clip-path="url(#clip900)" style="stroke:#0000ff; stroke-width:4; stroke-opacity:1; fill:none" points="
  1519.75,338.29 1670.81,338.29 
  "/>
<path clip-path="url(#clip900)" d="M 0 0 M1716.33 334.621 Q1717.92 331.75 1720.15 330.385 Q1722.37 329.019 1725.38 329.019 Q1729.43 329.019 1731.63 331.866 Q1733.83 334.69 1733.83 339.921 L1733.83 355.57 L1729.54 355.57 L1729.54 340.06 Q1729.54 336.334 1728.23 334.528 Q1726.91 332.722 1724.2 332.722 Q1720.89 332.722 1718.97 334.922 Q1717.04 337.121 1717.04 340.917 L1717.04 355.57 L1712.76 355.57 L1712.76 340.06 Q1712.76 336.31 1711.44 334.528 Q1710.12 332.722 1707.37 332.722 Q1704.11 332.722 1702.18 334.945 Q1700.26 337.144 1700.26 340.917 L1700.26 355.57 L1695.98 355.57 L1695.98 329.644 L1700.26 329.644 L1700.26 333.672 Q1701.72 331.287 1703.76 330.153 Q1705.79 329.019 1708.6 329.019 Q1711.42 329.019 1713.39 330.454 Q1715.38 331.889 1716.33 334.621 Z" fill="#000000" fill-rule="evenodd" fill-opacity="1" /><path clip-path="url(#clip900)" d="M 0 0 M1760.47 341.542 L1760.47 343.625 L1740.89 343.625 Q1741.17 348.023 1743.53 350.338 Q1745.91 352.63 1750.15 352.63 Q1752.6 352.63 1754.89 352.028 Q1757.21 351.426 1759.48 350.222 L1759.48 354.25 Q1757.18 355.222 1754.78 355.732 Q1752.37 356.241 1749.89 356.241 Q1743.69 356.241 1740.05 352.63 Q1736.44 349.019 1736.44 342.861 Q1736.44 336.496 1739.87 332.769 Q1743.32 329.019 1749.15 329.019 Q1754.38 329.019 1757.42 332.398 Q1760.47 335.755 1760.47 341.542 M1756.21 340.292 Q1756.17 336.797 1754.24 334.713 Q1752.35 332.63 1749.2 332.63 Q1745.63 332.63 1743.48 334.644 Q1741.35 336.658 1741.03 340.315 L1756.21 340.292 Z" fill="#000000" fill-rule="evenodd" fill-opacity="1" /><path clip-path="url(#clip900)" d="M 0 0 M1776.72 342.537 Q1771.56 342.537 1769.57 343.718 Q1767.58 344.898 1767.58 347.746 Q1767.58 350.014 1769.06 351.357 Q1770.56 352.676 1773.13 352.676 Q1776.67 352.676 1778.8 350.176 Q1780.96 347.653 1780.96 343.486 L1780.96 342.537 L1776.72 342.537 M1785.22 340.778 L1785.22 355.57 L1780.96 355.57 L1780.96 351.634 Q1779.5 353.995 1777.32 355.13 Q1775.15 356.241 1772 356.241 Q1768.02 356.241 1765.66 354.019 Q1763.32 351.773 1763.32 348.023 Q1763.32 343.648 1766.23 341.426 Q1769.17 339.204 1774.98 339.204 L1780.96 339.204 L1780.96 338.787 Q1780.96 335.847 1779.01 334.25 Q1777.09 332.63 1773.6 332.63 Q1771.37 332.63 1769.27 333.162 Q1767.16 333.695 1765.22 334.759 L1765.22 330.824 Q1767.55 329.922 1769.75 329.482 Q1771.95 329.019 1774.04 329.019 Q1779.66 329.019 1782.44 331.935 Q1785.22 334.852 1785.22 340.778 Z" fill="#000000" fill-rule="evenodd" fill-opacity="1" /><path clip-path="url(#clip900)" d="M 0 0 M1811.23 339.921 L1811.23 355.57 L1806.97 355.57 L1806.97 340.06 Q1806.97 336.38 1805.54 334.551 Q1804.1 332.722 1801.23 332.722 Q1797.79 332.722 1795.79 334.922 Q1793.8 337.121 1793.8 340.917 L1793.8 355.57 L1789.52 355.57 L1789.52 329.644 L1793.8 329.644 L1793.8 333.672 Q1795.33 331.334 1797.39 330.176 Q1799.48 329.019 1802.18 329.019 Q1806.65 329.019 1808.94 331.797 Q1811.23 334.551 1811.23 339.921 Z" fill="#000000" fill-rule="evenodd" fill-opacity="1" /><polyline clip-path="url(#clip900)" style="stroke:#000000; stroke-width:4; stroke-opacity:1; fill:none" points="
  1519.75,398.77 1670.81,398.77 
  "/>
<path clip-path="url(#clip900)" d="M 0 0 M1716.33 395.101 Q1717.92 392.23 1720.15 390.865 Q1722.37 389.499 1725.38 389.499 Q1729.43 389.499 1731.63 392.346 Q1733.83 395.17 1733.83 400.401 L1733.83 416.05 L1729.54 416.05 L1729.54 400.54 Q1729.54 396.814 1728.23 395.008 Q1726.91 393.202 1724.2 393.202 Q1720.89 393.202 1718.97 395.402 Q1717.04 397.601 1717.04 401.397 L1717.04 416.05 L1712.76 416.05 L1712.76 400.54 Q1712.76 396.79 1711.44 395.008 Q1710.12 393.202 1707.37 393.202 Q1704.11 393.202 1702.18 395.425 Q1700.26 397.624 1700.26 401.397 L1700.26 416.05 L1695.98 416.05 L1695.98 390.124 L1700.26 390.124 L1700.26 394.152 Q1701.72 391.767 1703.76 390.633 Q1705.79 389.499 1708.6 389.499 Q1711.42 389.499 1713.39 390.934 Q1715.38 392.369 1716.33 395.101 Z" fill="#000000" fill-rule="evenodd" fill-opacity="1" /><path clip-path="url(#clip900)" d="M 0 0 M1760.47 402.022 L1760.47 404.105 L1740.89 404.105 Q1741.17 408.503 1743.53 410.818 Q1745.91 413.11 1750.15 413.11 Q1752.6 413.11 1754.89 412.508 Q1757.21 411.906 1759.48 410.702 L1759.48 414.73 Q1757.18 415.702 1754.78 416.212 Q1752.37 416.721 1749.89 416.721 Q1743.69 416.721 1740.05 413.11 Q1736.44 409.499 1736.44 403.341 Q1736.44 396.976 1739.87 393.249 Q1743.32 389.499 1749.15 389.499 Q1754.38 389.499 1757.42 392.878 Q1760.47 396.235 1760.47 402.022 M1756.21 400.772 Q1756.17 397.277 1754.24 395.193 Q1752.35 393.11 1749.2 393.11 Q1745.63 393.11 1743.48 395.124 Q1741.35 397.138 1741.03 400.795 L1756.21 400.772 Z" fill="#000000" fill-rule="evenodd" fill-opacity="1" /><path clip-path="url(#clip900)" d="M 0 0 M1782 394.059 L1782 380.031 L1786.26 380.031 L1786.26 416.05 L1782 416.05 L1782 412.161 Q1780.66 414.475 1778.6 415.61 Q1776.56 416.721 1773.69 416.721 Q1768.99 416.721 1766.03 412.971 Q1763.09 409.221 1763.09 403.11 Q1763.09 396.999 1766.03 393.249 Q1768.99 389.499 1773.69 389.499 Q1776.56 389.499 1778.6 390.633 Q1780.66 391.744 1782 394.059 M1767.48 403.11 Q1767.48 407.809 1769.41 410.494 Q1771.35 413.156 1774.73 413.156 Q1778.11 413.156 1780.05 410.494 Q1782 407.809 1782 403.11 Q1782 398.411 1780.05 395.749 Q1778.11 393.064 1774.73 393.064 Q1771.35 393.064 1769.41 395.749 Q1767.48 398.411 1767.48 403.11 Z" fill="#000000" fill-rule="evenodd" fill-opacity="1" /><path clip-path="url(#clip900)" d="M 0 0 M1790.73 390.124 L1794.98 390.124 L1794.98 416.05 L1790.73 416.05 L1790.73 390.124 M1790.73 380.031 L1794.98 380.031 L1794.98 385.425 L1790.73 385.425 L1790.73 380.031 Z" fill="#000000" fill-rule="evenodd" fill-opacity="1" /><path clip-path="url(#clip900)" d="M 0 0 M1811.23 403.017 Q1806.07 403.017 1804.08 404.198 Q1802.09 405.378 1802.09 408.226 Q1802.09 410.494 1803.57 411.837 Q1805.08 413.156 1807.65 413.156 Q1811.19 413.156 1813.32 410.656 Q1815.47 408.133 1815.47 403.966 L1815.47 403.017 L1811.23 403.017 M1819.73 401.258 L1819.73 416.05 L1815.47 416.05 L1815.47 412.114 Q1814.01 414.475 1811.84 415.61 Q1809.66 416.721 1806.51 416.721 Q1802.53 416.721 1800.17 414.499 Q1797.83 412.253 1797.83 408.503 Q1797.83 404.128 1800.75 401.906 Q1803.69 399.684 1809.5 399.684 L1815.47 399.684 L1815.47 399.267 Q1815.47 396.327 1813.53 394.73 Q1811.6 393.11 1808.11 393.11 Q1805.89 393.11 1803.78 393.642 Q1801.67 394.175 1799.73 395.239 L1799.73 391.304 Q1802.07 390.402 1804.27 389.962 Q1806.47 389.499 1808.55 389.499 Q1814.17 389.499 1816.95 392.415 Q1819.73 395.332 1819.73 401.258 Z" fill="#000000" fill-rule="evenodd" fill-opacity="1" /><path clip-path="url(#clip900)" d="M 0 0 M1845.75 400.401 L1845.75 416.05 L1841.49 416.05 L1841.49 400.54 Q1841.49 396.86 1840.05 395.031 Q1838.62 393.202 1835.75 393.202 Q1832.3 393.202 1830.31 395.402 Q1828.32 397.601 1828.32 401.397 L1828.32 416.05 L1824.04 416.05 L1824.04 390.124 L1828.32 390.124 L1828.32 394.152 Q1829.85 391.814 1831.91 390.656 Q1833.99 389.499 1836.7 389.499 Q1841.16 389.499 1843.46 392.277 Q1845.75 395.031 1845.75 400.401 Z" fill="#000000" fill-rule="evenodd" fill-opacity="1" /></svg>
