<?xml version="1.0" encoding="utf-8"?>
<svg xmlns="http://www.w3.org/2000/svg" xmlns:xlink="http://www.w3.org/1999/xlink" width="600" height="400" viewBox="0 0 2400 1600">
<defs>
  <clipPath id="clip870">
    <rect x="0" y="0" width="2400" height="1600"/>
  </clipPath>
</defs>
<path clip-path="url(#clip870)" d="
M0 1600 L2400 1600 L2400 0 L0 0  Z
  " fill="#ffffff" fill-rule="evenodd" fill-opacity="1"/>
<defs>
  <clipPath id="clip871">
    <rect x="480" y="0" width="1681" height="1600"/>
  </clipPath>
</defs>
<path clip-path="url(#clip870)" d="
M86.9921 1521.01 L2352.76 1521.01 L2352.76 47.2441 L86.9921 47.2441  Z
  " fill="#ffffff" fill-rule="evenodd" fill-opacity="1"/>
<defs>
  <clipPath id="clip872">
    <rect x="86" y="47" width="2267" height="1475"/>
  </clipPath>
</defs>
<polyline clip-path="url(#clip872)" style="stroke:#000000; stroke-width:2; stroke-opacity:0.1; fill:none" points="
  435.683,1521.01 435.683,47.2441 
  "/>
<polyline clip-path="url(#clip872)" style="stroke:#000000; stroke-width:2; stroke-opacity:0.1; fill:none" points="
  898.231,1521.01 898.231,47.2441 
  "/>
<polyline clip-path="url(#clip872)" style="stroke:#000000; stroke-width:2; stroke-opacity:0.1; fill:none" points="
  1360.78,1521.01 1360.78,47.2441 
  "/>
<polyline clip-path="url(#clip872)" style="stroke:#000000; stroke-width:2; stroke-opacity:0.1; fill:none" points="
  1823.33,1521.01 1823.33,47.2441 
  "/>
<polyline clip-path="url(#clip872)" style="stroke:#000000; stroke-width:2; stroke-opacity:0.1; fill:none" points="
  2285.88,1521.01 2285.88,47.2441 
  "/>
<polyline clip-path="url(#clip872)" style="stroke:#000000; stroke-width:2; stroke-opacity:0.1; fill:none" points="
  86.9921,1479.3 2352.76,1479.3 
  "/>
<polyline clip-path="url(#clip872)" style="stroke:#000000; stroke-width:2; stroke-opacity:0.1; fill:none" points="
  86.9921,1128.56 2352.76,1128.56 
  "/>
<polyline clip-path="url(#clip872)" style="stroke:#000000; stroke-width:2; stroke-opacity:0.1; fill:none" points="
  86.9921,777.832 2352.76,777.832 
  "/>
<polyline clip-path="url(#clip872)" style="stroke:#000000; stroke-width:2; stroke-opacity:0.1; fill:none" points="
  86.9921,427.1 2352.76,427.1 
  "/>
<polyline clip-path="url(#clip872)" style="stroke:#000000; stroke-width:2; stroke-opacity:0.1; fill:none" points="
  86.9921,76.3669 2352.76,76.3669 
  "/>
<polyline clip-path="url(#clip870)" style="stroke:#000000; stroke-width:4; stroke-opacity:1; fill:none" points="
  86.9921,1521.01 2352.76,1521.01 
  "/>
<polyline clip-path="url(#clip870)" style="stroke:#000000; stroke-width:4; stroke-opacity:1; fill:none" points="
  86.9921,1521.01 86.9921,47.2441 
  "/>
<polyline clip-path="url(#clip870)" style="stroke:#000000; stroke-width:4; stroke-opacity:1; fill:none" points="
  435.683,1521.01 435.683,1503.32 
  "/>
<polyline clip-path="url(#clip870)" style="stroke:#000000; stroke-width:4; stroke-opacity:1; fill:none" points="
  898.231,1521.01 898.231,1503.32 
  "/>
<polyline clip-path="url(#clip870)" style="stroke:#000000; stroke-width:4; stroke-opacity:1; fill:none" points="
  1360.78,1521.01 1360.78,1503.32 
  "/>
<polyline clip-path="url(#clip870)" style="stroke:#000000; stroke-width:4; stroke-opacity:1; fill:none" points="
  1823.33,1521.01 1823.33,1503.32 
  "/>
<polyline clip-path="url(#clip870)" style="stroke:#000000; stroke-width:4; stroke-opacity:1; fill:none" points="
  2285.88,1521.01 2285.88,1503.32 
  "/>
<polyline clip-path="url(#clip870)" style="stroke:#000000; stroke-width:4; stroke-opacity:1; fill:none" points="
  86.9921,1479.3 114.181,1479.3 
  "/>
<polyline clip-path="url(#clip870)" style="stroke:#000000; stroke-width:4; stroke-opacity:1; fill:none" points="
  86.9921,1128.56 114.181,1128.56 
  "/>
<polyline clip-path="url(#clip870)" style="stroke:#000000; stroke-width:4; stroke-opacity:1; fill:none" points="
  86.9921,777.832 114.181,777.832 
  "/>
<polyline clip-path="url(#clip870)" style="stroke:#000000; stroke-width:4; stroke-opacity:1; fill:none" points="
  86.9921,427.1 114.181,427.1 
  "/>
<polyline clip-path="url(#clip870)" style="stroke:#000000; stroke-width:4; stroke-opacity:1; fill:none" points="
  86.9921,76.3669 114.181,76.3669 
  "/>
<path clip-path="url(#clip870)" d="M 0 0 M391.482 1543 Q387.871 1543 386.042 1546.56 Q384.237 1550.11 384.237 1557.23 Q384.237 1564.34 386.042 1567.91 Q387.871 1571.45 391.482 1571.45 Q395.116 1571.45 396.922 1567.91 Q398.751 1564.34 398.751 1557.23 Q398.751 1550.11 396.922 1546.56 Q395.116 1543 391.482 1543 M391.482 1539.29 Q397.292 1539.29 400.348 1543.9 Q403.426 1548.48 403.426 1557.23 Q403.426 1565.96 400.348 1570.57 Q397.292 1575.15 391.482 1575.15 Q385.672 1575.15 382.593 1570.57 Q379.538 1565.96 379.538 1557.23 Q379.538 1548.48 382.593 1543.9 Q385.672 1539.29 391.482 1539.29 Z" fill="#000000" fill-rule="evenodd" fill-opacity="1" /><path clip-path="url(#clip870)" d="M 0 0 M408.496 1568.6 L413.38 1568.6 L413.38 1574.48 L408.496 1574.48 L408.496 1568.6 Z" fill="#000000" fill-rule="evenodd" fill-opacity="1" /><path clip-path="url(#clip870)" d="M 0 0 M428.45 1543 Q424.838 1543 423.01 1546.56 Q421.204 1550.11 421.204 1557.23 Q421.204 1564.34 423.01 1567.91 Q424.838 1571.45 428.45 1571.45 Q432.084 1571.45 433.889 1567.91 Q435.718 1564.34 435.718 1557.23 Q435.718 1550.11 433.889 1546.56 Q432.084 1543 428.45 1543 M428.45 1539.29 Q434.26 1539.29 437.315 1543.9 Q440.394 1548.48 440.394 1557.23 Q440.394 1565.96 437.315 1570.57 Q434.26 1575.15 428.45 1575.15 Q422.639 1575.15 419.561 1570.57 Q416.505 1565.96 416.505 1557.23 Q416.505 1548.48 419.561 1543.9 Q422.639 1539.29 428.45 1539.29 Z" fill="#000000" fill-rule="evenodd" fill-opacity="1" /><path clip-path="url(#clip870)" d="M 0 0 M449.491 1570.54 L465.81 1570.54 L465.81 1574.48 L443.866 1574.48 L443.866 1570.54 Q446.528 1567.79 451.111 1563.16 Q455.718 1558.51 456.898 1557.17 Q459.144 1554.64 460.023 1552.91 Q460.926 1551.15 460.926 1549.46 Q460.926 1546.7 458.982 1544.97 Q457.06 1543.23 453.959 1543.23 Q451.76 1543.23 449.306 1543.99 Q446.875 1544.76 444.098 1546.31 L444.098 1541.59 Q446.922 1540.45 449.375 1539.87 Q451.829 1539.29 453.866 1539.29 Q459.236 1539.29 462.431 1541.98 Q465.625 1544.67 465.625 1549.16 Q465.625 1551.29 464.815 1553.21 Q464.028 1555.1 461.922 1557.7 Q461.343 1558.37 458.241 1561.59 Q455.139 1564.78 449.491 1570.54 Z" fill="#000000" fill-rule="evenodd" fill-opacity="1" /><path clip-path="url(#clip870)" d="M 0 0 M470.926 1539.92 L489.283 1539.92 L489.283 1543.86 L475.209 1543.86 L475.209 1552.33 Q476.227 1551.98 477.246 1551.82 Q478.264 1551.63 479.283 1551.63 Q485.07 1551.63 488.449 1554.8 Q491.829 1557.98 491.829 1563.39 Q491.829 1568.97 488.357 1572.07 Q484.884 1575.15 478.565 1575.15 Q476.389 1575.15 474.121 1574.78 Q471.875 1574.41 469.468 1573.67 L469.468 1568.97 Q471.551 1570.1 473.773 1570.66 Q475.996 1571.22 478.472 1571.22 Q482.477 1571.22 484.815 1569.11 Q487.153 1567 487.153 1563.39 Q487.153 1559.78 484.815 1557.67 Q482.477 1555.57 478.472 1555.57 Q476.597 1555.57 474.722 1555.98 Q472.871 1556.4 470.926 1557.28 L470.926 1539.92 Z" fill="#000000" fill-rule="evenodd" fill-opacity="1" /><path clip-path="url(#clip870)" d="M 0 0 M853.232 1543 Q849.62 1543 847.792 1546.56 Q845.986 1550.11 845.986 1557.23 Q845.986 1564.34 847.792 1567.91 Q849.62 1571.45 853.232 1571.45 Q856.866 1571.45 858.671 1567.91 Q860.5 1564.34 860.5 1557.23 Q860.5 1550.11 858.671 1546.56 Q856.866 1543 853.232 1543 M853.232 1539.29 Q859.042 1539.29 862.097 1543.9 Q865.176 1548.48 865.176 1557.23 Q865.176 1565.96 862.097 1570.57 Q859.042 1575.15 853.232 1575.15 Q847.421 1575.15 844.343 1570.57 Q841.287 1565.96 841.287 1557.23 Q841.287 1548.48 844.343 1543.9 Q847.421 1539.29 853.232 1539.29 Z" fill="#000000" fill-rule="evenodd" fill-opacity="1" /><path clip-path="url(#clip870)" d="M 0 0 M870.245 1568.6 L875.13 1568.6 L875.13 1574.48 L870.245 1574.48 L870.245 1568.6 Z" fill="#000000" fill-rule="evenodd" fill-opacity="1" /><path clip-path="url(#clip870)" d="M 0 0 M890.199 1543 Q886.588 1543 884.759 1546.56 Q882.954 1550.11 882.954 1557.23 Q882.954 1564.34 884.759 1567.91 Q886.588 1571.45 890.199 1571.45 Q893.833 1571.45 895.639 1567.91 Q897.467 1564.34 897.467 1557.23 Q897.467 1550.11 895.639 1546.56 Q893.833 1543 890.199 1543 M890.199 1539.29 Q896.009 1539.29 899.065 1543.9 Q902.143 1548.48 902.143 1557.23 Q902.143 1565.96 899.065 1570.57 Q896.009 1575.15 890.199 1575.15 Q884.389 1575.15 881.31 1570.57 Q878.255 1565.96 878.255 1557.23 Q878.255 1548.48 881.31 1543.9 Q884.389 1539.29 890.199 1539.29 Z" fill="#000000" fill-rule="evenodd" fill-opacity="1" /><path clip-path="url(#clip870)" d="M 0 0 M907.259 1539.92 L925.615 1539.92 L925.615 1543.86 L911.541 1543.86 L911.541 1552.33 Q912.56 1551.98 913.578 1551.82 Q914.597 1551.63 915.616 1551.63 Q921.403 1551.63 924.782 1554.8 Q928.162 1557.98 928.162 1563.39 Q928.162 1568.97 924.69 1572.07 Q921.217 1575.15 914.898 1575.15 Q912.722 1575.15 910.453 1574.78 Q908.208 1574.41 905.801 1573.67 L905.801 1568.97 Q907.884 1570.1 910.106 1570.66 Q912.328 1571.22 914.805 1571.22 Q918.81 1571.22 921.148 1569.11 Q923.486 1567 923.486 1563.39 Q923.486 1559.78 921.148 1557.67 Q918.81 1555.57 914.805 1555.57 Q912.93 1555.57 911.055 1555.98 Q909.203 1556.4 907.259 1557.28 L907.259 1539.92 Z" fill="#000000" fill-rule="evenodd" fill-opacity="1" /><path clip-path="url(#clip870)" d="M 0 0 M943.231 1543 Q939.62 1543 937.791 1546.56 Q935.986 1550.11 935.986 1557.23 Q935.986 1564.34 937.791 1567.91 Q939.62 1571.45 943.231 1571.45 Q946.865 1571.45 948.671 1567.91 Q950.5 1564.34 950.5 1557.23 Q950.5 1550.11 948.671 1546.56 Q946.865 1543 943.231 1543 M943.231 1539.29 Q949.041 1539.29 952.097 1543.9 Q955.175 1548.48 955.175 1557.23 Q955.175 1565.96 952.097 1570.57 Q949.041 1575.15 943.231 1575.15 Q937.421 1575.15 934.342 1570.57 Q931.287 1565.96 931.287 1557.23 Q931.287 1548.48 934.342 1543.9 Q937.421 1539.29 943.231 1539.29 Z" fill="#000000" fill-rule="evenodd" fill-opacity="1" /><path clip-path="url(#clip870)" d="M 0 0 M1316.23 1543 Q1312.62 1543 1310.79 1546.56 Q1308.99 1550.11 1308.99 1557.23 Q1308.99 1564.34 1310.79 1567.91 Q1312.62 1571.45 1316.23 1571.45 Q1319.87 1571.45 1321.67 1567.91 Q1323.5 1564.34 1323.5 1557.23 Q1323.5 1550.11 1321.67 1546.56 Q1319.87 1543 1316.23 1543 M1316.23 1539.29 Q1322.04 1539.29 1325.1 1543.9 Q1328.18 1548.48 1328.18 1557.23 Q1328.18 1565.96 1325.1 1570.57 Q1322.04 1575.15 1316.23 1575.15 Q1310.42 1575.15 1307.34 1570.57 Q1304.29 1565.96 1304.29 1557.23 Q1304.29 1548.48 1307.34 1543.9 Q1310.42 1539.29 1316.23 1539.29 Z" fill="#000000" fill-rule="evenodd" fill-opacity="1" /><path clip-path="url(#clip870)" d="M 0 0 M1333.24 1568.6 L1338.13 1568.6 L1338.13 1574.48 L1333.24 1574.48 L1333.24 1568.6 Z" fill="#000000" fill-rule="evenodd" fill-opacity="1" /><path clip-path="url(#clip870)" d="M 0 0 M1353.2 1543 Q1349.59 1543 1347.76 1546.56 Q1345.95 1550.11 1345.95 1557.23 Q1345.95 1564.34 1347.76 1567.91 Q1349.59 1571.45 1353.2 1571.45 Q1356.83 1571.45 1358.64 1567.91 Q1360.47 1564.34 1360.47 1557.23 Q1360.47 1550.11 1358.64 1546.56 Q1356.83 1543 1353.2 1543 M1353.2 1539.29 Q1359.01 1539.29 1362.06 1543.9 Q1365.14 1548.48 1365.14 1557.23 Q1365.14 1565.96 1362.06 1570.57 Q1359.01 1575.15 1353.2 1575.15 Q1347.39 1575.15 1344.31 1570.57 Q1341.25 1565.96 1341.25 1557.23 Q1341.25 1548.48 1344.31 1543.9 Q1347.39 1539.29 1353.2 1539.29 Z" fill="#000000" fill-rule="evenodd" fill-opacity="1" /><path clip-path="url(#clip870)" d="M 0 0 M1369.03 1539.92 L1391.25 1539.92 L1391.25 1541.91 L1378.71 1574.48 L1373.82 1574.48 L1385.63 1543.86 L1369.03 1543.86 L1369.03 1539.92 Z" fill="#000000" fill-rule="evenodd" fill-opacity="1" /><path clip-path="url(#clip870)" d="M 0 0 M1396.37 1539.92 L1414.73 1539.92 L1414.73 1543.86 L1400.65 1543.86 L1400.65 1552.33 Q1401.67 1551.98 1402.69 1551.82 Q1403.71 1551.63 1404.73 1551.63 Q1410.51 1551.63 1413.89 1554.8 Q1417.27 1557.98 1417.27 1563.39 Q1417.27 1568.97 1413.8 1572.07 Q1410.33 1575.15 1404.01 1575.15 Q1401.83 1575.15 1399.56 1574.78 Q1397.32 1574.41 1394.91 1573.67 L1394.91 1568.97 Q1396.99 1570.1 1399.22 1570.66 Q1401.44 1571.22 1403.92 1571.22 Q1407.92 1571.22 1410.26 1569.11 Q1412.6 1567 1412.6 1563.39 Q1412.6 1559.78 1410.26 1557.67 Q1407.92 1555.57 1403.92 1555.57 Q1402.04 1555.57 1400.17 1555.98 Q1398.31 1556.4 1396.37 1557.28 L1396.37 1539.92 Z" fill="#000000" fill-rule="evenodd" fill-opacity="1" /><path clip-path="url(#clip870)" d="M 0 0 M1778.44 1543 Q1774.83 1543 1773 1546.56 Q1771.2 1550.11 1771.2 1557.23 Q1771.2 1564.34 1773 1567.91 Q1774.83 1571.45 1778.44 1571.45 Q1782.08 1571.45 1783.88 1567.91 Q1785.71 1564.34 1785.71 1557.23 Q1785.71 1550.11 1783.88 1546.56 Q1782.08 1543 1778.44 1543 M1778.44 1539.29 Q1784.25 1539.29 1787.31 1543.9 Q1790.39 1548.48 1790.39 1557.23 Q1790.39 1565.96 1787.31 1570.57 Q1784.25 1575.15 1778.44 1575.15 Q1772.63 1575.15 1769.55 1570.57 Q1766.5 1565.96 1766.5 1557.23 Q1766.5 1548.48 1769.55 1543.9 Q1772.63 1539.29 1778.44 1539.29 Z" fill="#000000" fill-rule="evenodd" fill-opacity="1" /><path clip-path="url(#clip870)" d="M 0 0 M1795.46 1568.6 L1800.34 1568.6 L1800.34 1574.48 L1795.46 1574.48 L1795.46 1568.6 Z" fill="#000000" fill-rule="evenodd" fill-opacity="1" /><path clip-path="url(#clip870)" d="M 0 0 M1806.22 1570.54 L1813.86 1570.54 L1813.86 1544.18 L1805.55 1545.85 L1805.55 1541.59 L1813.81 1539.92 L1818.49 1539.92 L1818.49 1570.54 L1826.13 1570.54 L1826.13 1574.48 L1806.22 1574.48 L1806.22 1570.54 Z" fill="#000000" fill-rule="evenodd" fill-opacity="1" /><path clip-path="url(#clip870)" d="M 0 0 M1841.2 1543 Q1837.59 1543 1835.76 1546.56 Q1833.95 1550.11 1833.95 1557.23 Q1833.95 1564.34 1835.76 1567.91 Q1837.59 1571.45 1841.2 1571.45 Q1844.83 1571.45 1846.64 1567.91 Q1848.47 1564.34 1848.47 1557.23 Q1848.47 1550.11 1846.64 1546.56 Q1844.83 1543 1841.2 1543 M1841.2 1539.29 Q1847.01 1539.29 1850.06 1543.9 Q1853.14 1548.48 1853.14 1557.23 Q1853.14 1565.96 1850.06 1570.57 Q1847.01 1575.15 1841.2 1575.15 Q1835.39 1575.15 1832.31 1570.57 Q1829.25 1565.96 1829.25 1557.23 Q1829.25 1548.48 1832.31 1543.9 Q1835.39 1539.29 1841.2 1539.29 Z" fill="#000000" fill-rule="evenodd" fill-opacity="1" /><path clip-path="url(#clip870)" d="M 0 0 M1868.21 1543 Q1864.6 1543 1862.77 1546.56 Q1860.97 1550.11 1860.97 1557.23 Q1860.97 1564.34 1862.77 1567.91 Q1864.6 1571.45 1868.21 1571.45 Q1871.85 1571.45 1873.65 1567.91 Q1875.48 1564.34 1875.48 1557.23 Q1875.48 1550.11 1873.65 1546.56 Q1871.85 1543 1868.21 1543 M1868.21 1539.29 Q1874.02 1539.29 1877.08 1543.9 Q1880.16 1548.48 1880.16 1557.23 Q1880.16 1565.96 1877.08 1570.57 Q1874.02 1575.15 1868.21 1575.15 Q1862.4 1575.15 1859.32 1570.57 Q1856.27 1565.96 1856.27 1557.23 Q1856.27 1548.48 1859.32 1543.9 Q1862.4 1539.29 1868.21 1539.29 Z" fill="#000000" fill-rule="evenodd" fill-opacity="1" /><path clip-path="url(#clip870)" d="M 0 0 M2242.29 1543 Q2238.68 1543 2236.85 1546.56 Q2235.04 1550.11 2235.04 1557.23 Q2235.04 1564.34 2236.85 1567.91 Q2238.68 1571.45 2242.29 1571.45 Q2245.92 1571.45 2247.73 1567.91 Q2249.56 1564.34 2249.56 1557.23 Q2249.56 1550.11 2247.73 1546.56 Q2245.92 1543 2242.29 1543 M2242.29 1539.29 Q2248.1 1539.29 2251.15 1543.9 Q2254.23 1548.48 2254.23 1557.23 Q2254.23 1565.96 2251.15 1570.57 Q2248.1 1575.15 2242.29 1575.15 Q2236.48 1575.15 2233.4 1570.57 Q2230.34 1565.96 2230.34 1557.23 Q2230.34 1548.48 2233.4 1543.9 Q2236.48 1539.29 2242.29 1539.29 Z" fill="#000000" fill-rule="evenodd" fill-opacity="1" /><path clip-path="url(#clip870)" d="M 0 0 M2259.3 1568.6 L2264.19 1568.6 L2264.19 1574.48 L2259.3 1574.48 L2259.3 1568.6 Z" fill="#000000" fill-rule="evenodd" fill-opacity="1" /><path clip-path="url(#clip870)" d="M 0 0 M2270.07 1570.54 L2277.7 1570.54 L2277.7 1544.18 L2269.39 1545.85 L2269.39 1541.59 L2277.66 1539.92 L2282.33 1539.92 L2282.33 1570.54 L2289.97 1570.54 L2289.97 1574.48 L2270.07 1574.48 L2270.07 1570.54 Z" fill="#000000" fill-rule="evenodd" fill-opacity="1" /><path clip-path="url(#clip870)" d="M 0 0 M2299.07 1570.54 L2315.39 1570.54 L2315.39 1574.48 L2293.44 1574.48 L2293.44 1570.54 Q2296.11 1567.79 2300.69 1563.16 Q2305.3 1558.51 2306.48 1557.17 Q2308.72 1554.64 2309.6 1552.91 Q2310.51 1551.15 2310.51 1549.46 Q2310.51 1546.7 2308.56 1544.97 Q2306.64 1543.23 2303.54 1543.23 Q2301.34 1543.23 2298.88 1543.99 Q2296.45 1544.76 2293.68 1546.31 L2293.68 1541.59 Q2296.5 1540.45 2298.95 1539.87 Q2301.41 1539.29 2303.44 1539.29 Q2308.82 1539.29 2312.01 1541.98 Q2315.2 1544.67 2315.2 1549.16 Q2315.2 1551.29 2314.39 1553.21 Q2313.61 1555.1 2311.5 1557.7 Q2310.92 1558.37 2307.82 1561.59 Q2304.72 1564.78 2299.07 1570.54 Z" fill="#000000" fill-rule="evenodd" fill-opacity="1" /><path clip-path="url(#clip870)" d="M 0 0 M2320.5 1539.92 L2338.86 1539.92 L2338.86 1543.86 L2324.79 1543.86 L2324.79 1552.33 Q2325.81 1551.98 2326.82 1551.82 Q2327.84 1551.63 2328.86 1551.63 Q2334.65 1551.63 2338.03 1554.8 Q2341.41 1557.98 2341.41 1563.39 Q2341.41 1568.97 2337.94 1572.07 Q2334.46 1575.15 2328.14 1575.15 Q2325.97 1575.15 2323.7 1574.78 Q2321.45 1574.41 2319.05 1573.67 L2319.05 1568.97 Q2321.13 1570.1 2323.35 1570.66 Q2325.57 1571.22 2328.05 1571.22 Q2332.06 1571.22 2334.39 1569.11 Q2336.73 1567 2336.73 1563.39 Q2336.73 1559.78 2334.39 1557.67 Q2332.06 1555.57 2328.05 1555.57 Q2326.18 1555.57 2324.3 1555.98 Q2322.45 1556.4 2320.5 1557.28 L2320.5 1539.92 Z" fill="#000000" fill-rule="evenodd" fill-opacity="1" /><path clip-path="url(#clip870)" d="M 0 0 M51.0477 1465.1 Q47.4367 1465.1 45.608 1468.66 Q43.8024 1472.2 43.8024 1479.33 Q43.8024 1486.44 45.608 1490 Q47.4367 1493.55 51.0477 1493.55 Q54.682 1493.55 56.4875 1490 Q58.3162 1486.44 58.3162 1479.33 Q58.3162 1472.2 56.4875 1468.66 Q54.682 1465.1 51.0477 1465.1 M51.0477 1461.39 Q56.8579 1461.39 59.9134 1466 Q62.9921 1470.58 62.9921 1479.33 Q62.9921 1488.06 59.9134 1492.67 Q56.8579 1497.25 51.0477 1497.25 Q45.2376 1497.25 42.1589 1492.67 Q39.1034 1488.06 39.1034 1479.33 Q39.1034 1470.58 42.1589 1466 Q45.2376 1461.39 51.0477 1461.39 Z" fill="#000000" fill-rule="evenodd" fill-opacity="1" /><path clip-path="url(#clip870)" d="M 0 0 M42.0895 1111.28 L60.4458 1111.28 L60.4458 1115.22 L46.3718 1115.22 L46.3718 1123.69 Q47.3904 1123.35 48.4089 1123.18 Q49.4274 1123 50.4459 1123 Q56.2329 1123 59.6125 1126.17 Q62.9921 1129.34 62.9921 1134.76 Q62.9921 1140.34 59.5199 1143.44 Q56.0477 1146.52 49.7283 1146.52 Q47.5524 1146.52 45.2839 1146.15 Q43.0385 1145.78 40.6311 1145.03 L40.6311 1140.34 Q42.7145 1141.47 44.9367 1142.03 Q47.1589 1142.58 49.6357 1142.58 Q53.6403 1142.58 55.9783 1140.47 Q58.3162 1138.37 58.3162 1134.76 Q58.3162 1131.15 55.9783 1129.04 Q53.6403 1126.93 49.6357 1126.93 Q47.7607 1126.93 45.8857 1127.35 Q44.0339 1127.77 42.0895 1128.65 L42.0895 1111.28 Z" fill="#000000" fill-rule="evenodd" fill-opacity="1" /><path clip-path="url(#clip870)" d="M 0 0 M16.0711 791.177 L23.7099 791.177 L23.7099 764.811 L15.3998 766.478 L15.3998 762.219 L23.6636 760.552 L28.3395 760.552 L28.3395 791.177 L35.9784 791.177 L35.9784 795.112 L16.0711 795.112 L16.0711 791.177 Z" fill="#000000" fill-rule="evenodd" fill-opacity="1" /><path clip-path="url(#clip870)" d="M 0 0 M51.0477 763.631 Q47.4367 763.631 45.608 767.196 Q43.8024 770.737 43.8024 777.867 Q43.8024 784.973 45.608 788.538 Q47.4367 792.08 51.0477 792.08 Q54.682 792.08 56.4875 788.538 Q58.3162 784.973 58.3162 777.867 Q58.3162 770.737 56.4875 767.196 Q54.682 763.631 51.0477 763.631 M51.0477 759.927 Q56.8579 759.927 59.9134 764.534 Q62.9921 769.117 62.9921 777.867 Q62.9921 786.594 59.9134 791.2 Q56.8579 795.784 51.0477 795.784 Q45.2376 795.784 42.1589 791.2 Q39.1034 786.594 39.1034 777.867 Q39.1034 769.117 42.1589 764.534 Q45.2376 759.927 51.0477 759.927 Z" fill="#000000" fill-rule="evenodd" fill-opacity="1" /><path clip-path="url(#clip870)" d="M 0 0 M17.0664 440.444 L24.7053 440.444 L24.7053 414.079 L16.3952 415.745 L16.3952 411.486 L24.659 409.82 L29.3349 409.82 L29.3349 440.444 L36.9737 440.444 L36.9737 444.38 L17.0664 444.38 L17.0664 440.444 Z" fill="#000000" fill-rule="evenodd" fill-opacity="1" /><path clip-path="url(#clip870)" d="M 0 0 M42.0895 409.82 L60.4458 409.82 L60.4458 413.755 L46.3718 413.755 L46.3718 422.227 Q47.3904 421.88 48.4089 421.718 Q49.4274 421.532 50.4459 421.532 Q56.2329 421.532 59.6125 424.704 Q62.9921 427.875 62.9921 433.292 Q62.9921 438.87 59.5199 441.972 Q56.0477 445.051 49.7283 445.051 Q47.5524 445.051 45.2839 444.681 Q43.0385 444.31 40.6311 443.569 L40.6311 438.87 Q42.7145 440.005 44.9367 440.56 Q47.1589 441.116 49.6357 441.116 Q53.6403 441.116 55.9783 439.009 Q58.3162 436.903 58.3162 433.292 Q58.3162 429.681 55.9783 427.574 Q53.6403 425.468 49.6357 425.468 Q47.7607 425.468 45.8857 425.884 Q44.0339 426.301 42.0895 427.181 L42.0895 409.82 Z" fill="#000000" fill-rule="evenodd" fill-opacity="1" /><path clip-path="url(#clip870)" d="M 0 0 M19.659 89.7117 L35.9784 89.7117 L35.9784 93.6469 L14.0341 93.6469 L14.0341 89.7117 Q16.6961 86.9571 21.2794 82.3275 Q25.8858 77.6748 27.0664 76.3322 Q29.3118 73.8091 30.1914 72.073 Q31.0941 70.3137 31.0941 68.6239 Q31.0941 65.8693 29.1497 64.1332 Q27.2284 62.3971 24.1266 62.3971 Q21.9275 62.3971 19.4738 63.161 Q17.0433 63.9248 14.2655 65.4758 L14.2655 60.7536 Q17.0896 59.6193 19.5433 59.0406 Q21.997 58.4619 24.034 58.4619 Q29.4043 58.4619 32.5988 61.1471 Q35.7932 63.8323 35.7932 68.323 Q35.7932 70.4526 34.983 72.3739 Q34.196 74.272 32.0895 76.8646 Q31.5108 77.5359 28.409 80.7535 Q25.3071 83.9479 19.659 89.7117 Z" fill="#000000" fill-rule="evenodd" fill-opacity="1" /><path clip-path="url(#clip870)" d="M 0 0 M51.0477 62.1656 Q47.4367 62.1656 45.608 65.7304 Q43.8024 69.272 43.8024 76.4016 Q43.8024 83.5081 45.608 87.0729 Q47.4367 90.6145 51.0477 90.6145 Q54.682 90.6145 56.4875 87.0729 Q58.3162 83.5081 58.3162 76.4016 Q58.3162 69.272 56.4875 65.7304 Q54.682 62.1656 51.0477 62.1656 M51.0477 58.4619 Q56.8579 58.4619 59.9134 63.0684 Q62.9921 67.6517 62.9921 76.4016 Q62.9921 85.1284 59.9134 89.7349 Q56.8579 94.3182 51.0477 94.3182 Q45.2376 94.3182 42.1589 89.7349 Q39.1034 85.1284 39.1034 76.4016 Q39.1034 67.6517 42.1589 63.0684 Q45.2376 58.4619 51.0477 58.4619 Z" fill="#000000" fill-rule="evenodd" fill-opacity="1" /><path clip-path="url(#clip872)" d="
M151.118 1381.2 L152.694 1377.16 L154.27 1372.99 L155.846 1368.69 L157.422 1364.25 L158.998 1359.68 L160.574 1354.97 L162.15 1350.12 L163.727 1345.13 L165.303 1340 
  L166.879 1334.73 L168.455 1329.31 L170.031 1323.75 L171.607 1318.05 L173.183 1312.2 L174.759 1306.2 L176.336 1300.06 L177.912 1293.78 L179.488 1287.35 L181.064 1280.78 
  L182.64 1274.07 L184.216 1267.22 L185.792 1260.22 L187.368 1253.09 L188.944 1245.82 L190.521 1238.42 L192.097 1230.88 L193.673 1223.21 L195.249 1215.42 L196.825 1207.51 
  L198.401 1199.47 L199.977 1191.32 L201.553 1183.06 L203.13 1174.68 L204.706 1166.2 L206.282 1157.63 L207.858 1148.95 L209.434 1140.19 L211.01 1131.34 L212.586 1122.42 
  L214.162 1113.41 L215.739 1104.35 L217.315 1095.22 L218.891 1086.03 L220.467 1076.8 L222.043 1067.52 L223.619 1058.21 L225.195 1048.87 L226.771 1039.52 L228.348 1030.14 
  L229.924 1020.76 L231.5 1011.39 L233.076 1002.02 L234.652 992.672 L236.228 983.348 L237.804 974.057 L239.38 964.808 L240.957 955.608 L242.533 946.466 L244.109 937.389 
  L245.685 928.387 L247.261 919.467 L248.837 910.637 L250.413 901.906 L251.989 893.282 L253.566 884.772 L255.142 876.385 L256.718 868.128 L258.294 860.01 L259.87 852.038 
  L261.446 844.219 L263.022 836.56 L264.598 829.07 L266.175 821.755 L267.751 814.622 L269.327 807.678 L270.903 800.929 L272.479 794.381 L274.055 788.041 L275.631 781.914 
  L277.207 776.006 L278.784 770.322 L280.36 764.867 L281.936 759.646 L283.512 754.663 L285.088 749.923 L286.664 745.429 L288.24 741.186 L289.816 737.196 L291.393 733.462 
  L292.969 729.987 L294.545 726.773 L296.121 723.823 L297.697 721.137 L299.273 718.718 L300.849 716.566 L302.425 714.682 L304.002 713.067 L305.578 711.719 L307.154 710.64 
  L307.154 1479.3 L305.578 1479.3 L304.002 1479.3 L302.425 1479.3 L300.849 1479.3 L299.273 1479.3 L297.697 1479.3 L296.121 1479.3 L294.545 1479.3 L292.969 1479.3 
  L291.393 1479.3 L289.816 1479.3 L288.24 1479.3 L286.664 1479.3 L285.088 1479.3 L283.512 1479.3 L281.936 1479.3 L280.36 1479.3 L278.784 1479.3 L277.207 1479.3 
  L275.631 1479.3 L274.055 1479.3 L272.479 1479.3 L270.903 1479.3 L269.327 1479.3 L267.751 1479.3 L266.175 1479.3 L264.598 1479.3 L263.022 1479.3 L261.446 1479.3 
  L259.87 1479.3 L258.294 1479.3 L256.718 1479.3 L255.142 1479.3 L253.566 1479.3 L251.989 1479.3 L250.413 1479.3 L248.837 1479.3 L247.261 1479.3 L245.685 1479.3 
  L244.109 1479.3 L242.533 1479.3 L240.957 1479.3 L239.38 1479.3 L237.804 1479.3 L236.228 1479.3 L234.652 1479.3 L233.076 1479.3 L231.5 1479.3 L229.924 1479.3 
  L228.348 1479.3 L226.771 1479.3 L225.195 1479.3 L223.619 1479.3 L222.043 1479.3 L220.467 1479.3 L218.891 1479.3 L217.315 1479.3 L215.739 1479.3 L214.162 1479.3 
  L212.586 1479.3 L211.01 1479.3 L209.434 1479.3 L207.858 1479.3 L206.282 1479.3 L204.706 1479.3 L203.13 1479.3 L201.553 1479.3 L199.977 1479.3 L198.401 1479.3 
  L196.825 1479.3 L195.249 1479.3 L193.673 1479.3 L192.097 1479.3 L190.521 1479.3 L188.944 1479.3 L187.368 1479.3 L185.792 1479.3 L184.216 1479.3 L182.64 1479.3 
  L181.064 1479.3 L179.488 1479.3 L177.912 1479.3 L176.336 1479.3 L174.759 1479.3 L173.183 1479.3 L171.607 1479.3 L170.031 1479.3 L168.455 1479.3 L166.879 1479.3 
  L165.303 1479.3 L163.727 1479.3 L162.15 1479.3 L160.574 1479.3 L158.998 1479.3 L157.422 1479.3 L155.846 1479.3 L154.27 1479.3 L152.694 1479.3 L151.118 1479.3 
   Z
  " fill="#ffa500" fill-rule="evenodd" fill-opacity="0.5"/>
<polyline clip-path="url(#clip872)" style="stroke:#ffa500; stroke-width:4; stroke-opacity:1; fill:none" points="
  151.118,1381.2 152.694,1377.16 154.27,1372.99 155.846,1368.69 157.422,1364.25 158.998,1359.68 160.574,1354.97 162.15,1350.12 163.727,1345.13 165.303,1340 
  166.879,1334.73 168.455,1329.31 170.031,1323.75 171.607,1318.05 173.183,1312.2 174.759,1306.2 176.336,1300.06 177.912,1293.78 179.488,1287.35 181.064,1280.78 
  182.64,1274.07 184.216,1267.22 185.792,1260.22 187.368,1253.09 188.944,1245.82 190.521,1238.42 192.097,1230.88 193.673,1223.21 195.249,1215.42 196.825,1207.51 
  198.401,1199.47 199.977,1191.32 201.553,1183.06 203.13,1174.68 204.706,1166.2 206.282,1157.63 207.858,1148.95 209.434,1140.19 211.01,1131.34 212.586,1122.42 
  214.162,1113.41 215.739,1104.35 217.315,1095.22 218.891,1086.03 220.467,1076.8 222.043,1067.52 223.619,1058.21 225.195,1048.87 226.771,1039.52 228.348,1030.14 
  229.924,1020.76 231.5,1011.39 233.076,1002.02 234.652,992.672 236.228,983.348 237.804,974.057 239.38,964.808 240.957,955.608 242.533,946.466 244.109,937.389 
  245.685,928.387 247.261,919.467 248.837,910.637 250.413,901.906 251.989,893.282 253.566,884.772 255.142,876.385 256.718,868.128 258.294,860.01 259.87,852.038 
  261.446,844.219 263.022,836.56 264.598,829.07 266.175,821.755 267.751,814.622 269.327,807.678 270.903,800.929 272.479,794.381 274.055,788.041 275.631,781.914 
  277.207,776.006 278.784,770.322 280.36,764.867 281.936,759.646 283.512,754.663 285.088,749.923 286.664,745.429 288.24,741.186 289.816,737.196 291.393,733.462 
  292.969,729.987 294.545,726.773 296.121,723.823 297.697,721.137 299.273,718.718 300.849,716.566 302.425,714.682 304.002,713.067 305.578,711.719 307.154,710.64 
  
  "/>
<path clip-path="url(#clip872)" d="
M307.154 710.64 L324.536 716.101 L341.918 750.405 L359.3 806.568 L376.683 875.553 L394.065 948.159 L411.447 1016.64 L428.829 1075.77 L446.211 1123.26 L463.593 1159.56 
  L480.976 1187.25 L498.358 1210.05 L515.74 1231.67 L533.122 1254.69 L550.504 1279.96 L567.887 1306.51 L585.269 1332.04 L602.651 1353.73 L620.033 1369.08 L637.415 1376.39 
  L654.798 1374.96 L672.18 1365.06 L689.562 1347.75 L706.944 1324.7 L724.326 1297.98 L741.709 1269.8 L759.091 1242.36 L776.473 1217.53 L793.855 1196.78 L811.237 1181.02 
  L828.619 1170.59 L846.002 1165.24 L863.384 1164.18 L880.766 1166.1 L898.148 1169.2 L915.53 1171.33 L932.913 1170.07 L950.295 1163.04 L967.677 1148.24 L985.059 1124.53 
  L1002.44 1091.9 L1019.82 1051.63 L1037.21 1006.02 L1054.59 957.828 L1071.97 909.644 L1089.35 863.366 L1106.73 820.018 L1124.12 779.889 L1141.5 742.866 L1158.88 708.762 
  L1176.26 677.495 L1193.65 649.099 L1211.03 623.622 L1228.41 600.957 L1245.79 580.667 L1263.17 561.827 L1280.56 542.991 L1297.94 522.348 L1315.32 498.116 L1332.7 469.091 
  L1350.09 435.12 L1367.47 397.248 L1384.85 357.425 L1402.23 317.867 L1419.61 280.375 L1437 245.914 L1454.38 214.618 L1471.76 186.152 L1489.14 160.215 L1506.52 136.92 
  L1523.91 116.938 L1541.29 101.399 L1558.67 91.6406 L1576.05 88.9544 L1593.44 94.3952 L1610.82 108.684 L1628.2 132.156 L1645.58 164.687 L1662.96 205.588 L1680.35 253.524 
  L1697.73 306.548 L1715.11 362.36 L1732.49 418.73 L1749.88 473.972 L1767.26 527.258 L1784.64 578.645 L1802.02 628.794 L1819.4 678.517 L1836.79 728.318 L1854.17 778.112 
  L1871.55 827.169 L1888.93 874.276 L1906.32 918.026 L1923.7 957.141 L1941.08 990.73 L1958.46 1018.47 L1975.84 1040.7 L1993.23 1058.36 L2010.61 1072.93 L2027.99 1086.2 
  L2027.99 1479.3 L2010.61 1479.3 L1993.23 1479.3 L1975.84 1479.3 L1958.46 1479.3 L1941.08 1479.3 L1923.7 1479.3 L1906.32 1479.3 L1888.93 1479.3 L1871.55 1479.3 
  L1854.17 1479.3 L1836.79 1479.3 L1819.4 1479.3 L1802.02 1479.3 L1784.64 1479.3 L1767.26 1479.3 L1749.88 1479.3 L1732.49 1479.3 L1715.11 1479.3 L1697.73 1479.3 
  L1680.35 1479.3 L1662.96 1479.3 L1645.58 1479.3 L1628.2 1479.3 L1610.82 1479.3 L1593.44 1479.3 L1576.05 1479.3 L1558.67 1479.3 L1541.29 1479.3 L1523.91 1479.3 
  L1506.52 1479.3 L1489.14 1479.3 L1471.76 1479.3 L1454.38 1479.3 L1437 1479.3 L1419.61 1479.3 L1402.23 1479.3 L1384.85 1479.3 L1367.47 1479.3 L1350.09 1479.3 
  L1332.7 1479.3 L1315.32 1479.3 L1297.94 1479.3 L1280.56 1479.3 L1263.17 1479.3 L1245.79 1479.3 L1228.41 1479.3 L1211.03 1479.3 L1193.65 1479.3 L1176.26 1479.3 
  L1158.88 1479.3 L1141.5 1479.3 L1124.12 1479.3 L1106.73 1479.3 L1089.35 1479.3 L1071.97 1479.3 L1054.59 1479.3 L1037.21 1479.3 L1019.82 1479.3 L1002.44 1479.3 
  L985.059 1479.3 L967.677 1479.3 L950.295 1479.3 L932.913 1479.3 L915.53 1479.3 L898.148 1479.3 L880.766 1479.3 L863.384 1479.3 L846.002 1479.3 L828.619 1479.3 
  L811.237 1479.3 L793.855 1479.3 L776.473 1479.3 L759.091 1479.3 L741.709 1479.3 L724.326 1479.3 L706.944 1479.3 L689.562 1479.3 L672.18 1479.3 L654.798 1479.3 
  L637.415 1479.3 L620.033 1479.3 L602.651 1479.3 L585.269 1479.3 L567.887 1479.3 L550.504 1479.3 L533.122 1479.3 L515.74 1479.3 L498.358 1479.3 L480.976 1479.3 
  L463.593 1479.3 L446.211 1479.3 L428.829 1479.3 L411.447 1479.3 L394.065 1479.3 L376.683 1479.3 L359.3 1479.3 L341.918 1479.3 L324.536 1479.3 L307.154 1479.3 
   Z
  " fill="#008000" fill-rule="evenodd" fill-opacity="0.5"/>
<polyline clip-path="url(#clip872)" style="stroke:#008000; stroke-width:4; stroke-opacity:1; fill:none" points="
  307.154,710.64 324.536,716.101 341.918,750.405 359.3,806.568 376.683,875.553 394.065,948.159 411.447,1016.64 428.829,1075.77 446.211,1123.26 463.593,1159.56 
  480.976,1187.25 498.358,1210.05 515.74,1231.67 533.122,1254.69 550.504,1279.96 567.887,1306.51 585.269,1332.04 602.651,1353.73 620.033,1369.08 637.415,1376.39 
  654.798,1374.96 672.18,1365.06 689.562,1347.75 706.944,1324.7 724.326,1297.98 741.709,1269.8 759.091,1242.36 776.473,1217.53 793.855,1196.78 811.237,1181.02 
  828.619,1170.59 846.002,1165.24 863.384,1164.18 880.766,1166.1 898.148,1169.2 915.53,1171.33 932.913,1170.07 950.295,1163.04 967.677,1148.24 985.059,1124.53 
  1002.44,1091.9 1019.82,1051.63 1037.21,1006.02 1054.59,957.828 1071.97,909.644 1089.35,863.366 1106.73,820.018 1124.12,779.889 1141.5,742.866 1158.88,708.762 
  1176.26,677.495 1193.65,649.099 1211.03,623.622 1228.41,600.957 1245.79,580.667 1263.17,561.827 1280.56,542.991 1297.94,522.348 1315.32,498.116 1332.7,469.091 
  1350.09,435.12 1367.47,397.248 1384.85,357.425 1402.23,317.867 1419.61,280.375 1437,245.914 1454.38,214.618 1471.76,186.152 1489.14,160.215 1506.52,136.92 
  1523.91,116.938 1541.29,101.399 1558.67,91.6406 1576.05,88.9544 1593.44,94.3952 1610.82,108.684 1628.2,132.156 1645.58,164.687 1662.96,205.588 1680.35,253.524 
  1697.73,306.548 1715.11,362.36 1732.49,418.73 1749.88,473.972 1767.26,527.258 1784.64,578.645 1802.02,628.794 1819.4,678.517 1836.79,728.318 1854.17,778.112 
  1871.55,827.169 1888.93,874.276 1906.32,918.026 1923.7,957.141 1941.08,990.73 1958.46,1018.47 1975.84,1040.7 1993.23,1058.36 2010.61,1072.93 2027.99,1086.2 
  
  "/>
<path clip-path="url(#clip872)" d="
M2027.99 1086.2 L2030.62 1088.22 L2033.26 1090.25 L2035.89 1092.31 L2038.52 1094.39 L2041.15 1096.52 L2043.79 1098.68 L2046.42 1100.89 L2049.05 1103.15 L2051.69 1105.47 
  L2054.32 1107.84 L2056.95 1110.27 L2059.58 1112.77 L2062.22 1115.34 L2064.85 1117.97 L2067.48 1120.68 L2070.11 1123.46 L2072.75 1126.31 L2075.38 1129.24 L2078.01 1132.24 
  L2080.65 1135.32 L2083.28 1138.46 L2085.91 1141.68 L2088.54 1144.97 L2091.18 1148.33 L2093.81 1151.76 L2096.44 1155.25 L2099.07 1158.79 L2101.71 1162.4 L2104.34 1166.06 
  L2106.97 1169.77 L2109.61 1173.52 L2112.24 1177.32 L2114.87 1181.15 L2117.5 1185.02 L2120.14 1188.92 L2122.77 1192.84 L2125.4 1196.79 L2128.03 1200.75 L2130.67 1204.72 
  L2133.3 1208.7 L2135.93 1212.69 L2138.57 1216.68 L2141.2 1220.66 L2143.83 1224.64 L2146.46 1228.61 L2149.1 1232.57 L2151.73 1236.52 L2154.36 1240.44 L2156.99 1244.35 
  L2159.63 1248.25 L2162.26 1252.11 L2164.89 1255.96 L2167.53 1259.79 L2170.16 1263.59 L2172.79 1267.36 L2175.42 1271.11 L2178.06 1274.84 L2180.69 1278.54 L2183.32 1282.22 
  L2185.95 1285.88 L2188.59 1289.52 L2191.22 1293.13 L2193.85 1296.73 L2196.49 1300.3 L2199.12 1303.86 L2201.75 1307.4 L2204.38 1310.93 L2207.02 1314.44 L2209.65 1317.94 
  L2212.28 1321.42 L2214.91 1324.89 L2217.55 1328.35 L2220.18 1331.8 L2222.81 1335.24 L2225.45 1338.67 L2228.08 1342.08 L2230.71 1345.49 L2233.34 1348.89 L2235.98 1352.27 
  L2238.61 1355.64 L2241.24 1359 L2243.87 1362.34 L2246.51 1365.66 L2249.14 1368.97 L2251.77 1372.26 L2254.41 1375.53 L2257.04 1378.77 L2259.67 1381.99 L2262.3 1385.18 
  L2264.94 1388.35 L2267.57 1391.47 L2270.2 1394.57 L2272.83 1397.63 L2275.47 1400.64 L2278.1 1403.62 L2280.73 1406.55 L2283.37 1409.44 L2286 1412.27 L2288.63 1415.05 
  L2288.63 1479.3 L2286 1479.3 L2283.37 1479.3 L2280.73 1479.3 L2278.1 1479.3 L2275.47 1479.3 L2272.83 1479.3 L2270.2 1479.3 L2267.57 1479.3 L2264.94 1479.3 
  L2262.3 1479.3 L2259.67 1479.3 L2257.04 1479.3 L2254.41 1479.3 L2251.77 1479.3 L2249.14 1479.3 L2246.51 1479.3 L2243.87 1479.3 L2241.24 1479.3 L2238.61 1479.3 
  L2235.98 1479.3 L2233.34 1479.3 L2230.71 1479.3 L2228.08 1479.3 L2225.45 1479.3 L2222.81 1479.3 L2220.18 1479.3 L2217.55 1479.3 L2214.91 1479.3 L2212.28 1479.3 
  L2209.65 1479.3 L2207.02 1479.3 L2204.38 1479.3 L2201.75 1479.3 L2199.12 1479.3 L2196.49 1479.3 L2193.85 1479.3 L2191.22 1479.3 L2188.59 1479.3 L2185.95 1479.3 
  L2183.32 1479.3 L2180.69 1479.3 L2178.06 1479.3 L2175.42 1479.3 L2172.79 1479.3 L2170.16 1479.3 L2167.53 1479.3 L2164.89 1479.3 L2162.26 1479.3 L2159.63 1479.3 
  L2156.99 1479.3 L2154.36 1479.3 L2151.73 1479.3 L2149.1 1479.3 L2146.46 1479.3 L2143.83 1479.3 L2141.2 1479.3 L2138.57 1479.3 L2135.93 1479.3 L2133.3 1479.3 
  L2130.67 1479.3 L2128.03 1479.3 L2125.4 1479.3 L2122.77 1479.3 L2120.14 1479.3 L2117.5 1479.3 L2114.87 1479.3 L2112.24 1479.3 L2109.61 1479.3 L2106.97 1479.3 
  L2104.34 1479.3 L2101.71 1479.3 L2099.07 1479.3 L2096.44 1479.3 L2093.81 1479.3 L2091.18 1479.3 L2088.54 1479.3 L2085.91 1479.3 L2083.28 1479.3 L2080.65 1479.3 
  L2078.01 1479.3 L2075.38 1479.3 L2072.75 1479.3 L2070.11 1479.3 L2067.48 1479.3 L2064.85 1479.3 L2062.22 1479.3 L2059.58 1479.3 L2056.95 1479.3 L2054.32 1479.3 
  L2051.69 1479.3 L2049.05 1479.3 L2046.42 1479.3 L2043.79 1479.3 L2041.15 1479.3 L2038.52 1479.3 L2035.89 1479.3 L2033.26 1479.3 L2030.62 1479.3 L2027.99 1479.3 
   Z
  " fill="#ffa500" fill-rule="evenodd" fill-opacity="0.5"/>
<polyline clip-path="url(#clip872)" style="stroke:#ffa500; stroke-width:4; stroke-opacity:1; fill:none" points="
  2027.99,1086.2 2030.62,1088.22 2033.26,1090.25 2035.89,1092.31 2038.52,1094.39 2041.15,1096.52 2043.79,1098.68 2046.42,1100.89 2049.05,1103.15 2051.69,1105.47 
  2054.32,1107.84 2056.95,1110.27 2059.58,1112.77 2062.22,1115.34 2064.85,1117.97 2067.48,1120.68 2070.11,1123.46 2072.75,1126.31 2075.38,1129.24 2078.01,1132.24 
  2080.65,1135.32 2083.28,1138.46 2085.91,1141.68 2088.54,1144.97 2091.18,1148.33 2093.81,1151.76 2096.44,1155.25 2099.07,1158.79 2101.71,1162.4 2104.34,1166.06 
  2106.97,1169.77 2109.61,1173.52 2112.24,1177.32 2114.87,1181.15 2117.5,1185.02 2120.14,1188.92 2122.77,1192.84 2125.4,1196.79 2128.03,1200.75 2130.67,1204.72 
  2133.3,1208.7 2135.93,1212.69 2138.57,1216.68 2141.2,1220.66 2143.83,1224.64 2146.46,1228.61 2149.1,1232.57 2151.73,1236.52 2154.36,1240.44 2156.99,1244.35 
  2159.63,1248.25 2162.26,1252.11 2164.89,1255.96 2167.53,1259.79 2170.16,1263.59 2172.79,1267.36 2175.42,1271.11 2178.06,1274.84 2180.69,1278.54 2183.32,1282.22 
  2185.95,1285.88 2188.59,1289.52 2191.22,1293.13 2193.85,1296.73 2196.49,1300.3 2199.12,1303.86 2201.75,1307.4 2204.38,1310.93 2207.02,1314.44 2209.65,1317.94 
  2212.28,1321.42 2214.91,1324.89 2217.55,1328.35 2220.18,1331.8 2222.81,1335.24 2225.45,1338.67 2228.08,1342.08 2230.71,1345.49 2233.34,1348.89 2235.98,1352.27 
  2238.61,1355.64 2241.24,1359 2243.87,1362.34 2246.51,1365.66 2249.14,1368.97 2251.77,1372.26 2254.41,1375.53 2257.04,1378.77 2259.67,1381.99 2262.3,1385.18 
  2264.94,1388.35 2267.57,1391.47 2270.2,1394.57 2272.83,1397.63 2275.47,1400.64 2278.1,1403.62 2280.73,1406.55 2283.37,1409.44 2286,1412.27 2288.63,1415.05 
  
  "/>
<polyline clip-path="url(#clip872)" style="stroke:#0000ff; stroke-width:4; stroke-opacity:1; fill:none" points="
  1319.06,1479.3 1319.06,492.306 
  "/>
<polyline clip-path="url(#clip872)" style="stroke:#000000; stroke-width:4; stroke-opacity:1; fill:none" points="
  1432.55,1479.3 1432.55,254.423 
  "/>
<path clip-path="url(#clip870)" d="
M1494.58 459.25 L2277.23 459.25 L2277.23 96.3696 L1494.58 96.3696  Z
  " fill="#ffffff" fill-rule="evenodd" fill-opacity="1"/>
<polyline clip-path="url(#clip870)" style="stroke:#000000; stroke-width:4; stroke-opacity:1; fill:none" points="
  1494.58,459.25 2277.23,459.25 2277.23,96.3696 1494.58,96.3696 1494.58,459.25 
  "/>
<path clip-path="url(#clip870)" d="
M1519.75 181.042 L1670.81 181.042 L1670.81 132.658 L1519.75 132.658 L1519.75 181.042  Z
  " fill="#ffa500" fill-rule="evenodd" fill-opacity="0.5"/>
<polyline clip-path="url(#clip870)" style="stroke:#ffa500; stroke-width:4; stroke-opacity:1; fill:none" points="
  1519.75,132.658 1670.81,132.658 
  "/>
<path clip-path="url(#clip870)" d="M 0 0 M1700.38 161.19 Q1700.38 165.889 1702.3 168.574 Q1704.24 171.236 1707.62 171.236 Q1711 171.236 1712.95 168.574 Q1714.89 165.889 1714.89 161.19 Q1714.89 156.491 1712.95 153.829 Q1711 151.144 1707.62 151.144 Q1704.24 151.144 1702.3 153.829 Q1700.38 156.491 1700.38 161.19 M1714.89 170.241 Q1713.55 172.555 1711.49 173.69 Q1709.45 174.801 1706.58 174.801 Q1701.88 174.801 1698.92 171.051 Q1695.98 167.301 1695.98 161.19 Q1695.98 155.079 1698.92 151.329 Q1701.88 147.579 1706.58 147.579 Q1709.45 147.579 1711.49 148.713 Q1713.55 149.824 1714.89 152.139 L1714.89 148.204 L1719.15 148.204 L1719.15 183.991 L1714.89 183.991 L1714.89 170.241 Z" fill="#000000" fill-rule="evenodd" fill-opacity="1" /><path clip-path="url(#clip870)" d="M 0 0 M1734.22 142.648 Q1730.61 142.648 1728.78 146.213 Q1726.98 149.755 1726.98 156.884 Q1726.98 163.991 1728.78 167.556 Q1730.61 171.097 1734.22 171.097 Q1737.85 171.097 1739.66 167.556 Q1741.49 163.991 1741.49 156.884 Q1741.49 149.755 1739.66 146.213 Q1737.85 142.648 1734.22 142.648 M1734.22 138.945 Q1740.03 138.945 1743.09 143.551 Q1746.17 148.134 1746.17 156.884 Q1746.17 165.611 1743.09 170.218 Q1740.03 174.801 1734.22 174.801 Q1728.41 174.801 1725.33 170.218 Q1722.28 165.611 1722.28 156.884 Q1722.28 148.134 1725.33 143.551 Q1728.41 138.945 1734.22 138.945 Z" fill="#000000" fill-rule="evenodd" fill-opacity="1" /><path clip-path="url(#clip870)" d="M 0 0 M1751.28 139.57 L1769.64 139.57 L1769.64 143.505 L1755.56 143.505 L1755.56 151.977 Q1756.58 151.63 1757.6 151.468 Q1758.62 151.282 1759.64 151.282 Q1765.42 151.282 1768.8 154.454 Q1772.18 157.625 1772.18 163.042 Q1772.18 168.62 1768.71 171.722 Q1765.24 174.801 1758.92 174.801 Q1756.74 174.801 1754.48 174.43 Q1752.23 174.06 1749.82 173.319 L1749.82 168.62 Q1751.91 169.755 1754.13 170.31 Q1756.35 170.866 1758.83 170.866 Q1762.83 170.866 1765.17 168.759 Q1767.51 166.653 1767.51 163.042 Q1767.51 159.431 1765.17 157.324 Q1762.83 155.218 1758.83 155.218 Q1756.95 155.218 1755.08 155.634 Q1753.23 156.051 1751.28 156.931 L1751.28 139.57 Z" fill="#000000" fill-rule="evenodd" fill-opacity="1" /><path clip-path="url(#clip870)" d="
M1519.75 241.522 L1670.81 241.522 L1670.81 193.138 L1519.75 193.138 L1519.75 241.522  Z
  " fill="#008000" fill-rule="evenodd" fill-opacity="0.5"/>
<polyline clip-path="url(#clip870)" style="stroke:#008000; stroke-width:4; stroke-opacity:1; fill:none" points="
  1519.75,193.138 1670.81,193.138 
  "/>
<path clip-path="url(#clip870)" d="M 0 0 M1698.2 233.892 L1698.2 229.633 Q1699.96 230.466 1701.77 230.906 Q1703.57 231.346 1705.31 231.346 Q1709.94 231.346 1712.37 228.244 Q1714.82 225.119 1715.17 218.776 Q1713.83 220.767 1711.77 221.832 Q1709.71 222.897 1707.21 222.897 Q1702.02 222.897 1698.99 219.772 Q1695.98 216.624 1695.98 211.184 Q1695.98 205.86 1699.13 202.642 Q1702.28 199.425 1707.51 199.425 Q1713.5 199.425 1716.65 204.031 Q1719.82 208.614 1719.82 217.364 Q1719.82 225.536 1715.93 230.42 Q1712.07 235.281 1705.52 235.281 Q1703.76 235.281 1701.95 234.934 Q1700.15 234.586 1698.2 233.892 M1707.51 219.239 Q1710.66 219.239 1712.48 217.086 Q1714.34 214.934 1714.34 211.184 Q1714.34 207.457 1712.48 205.304 Q1710.66 203.128 1707.51 203.128 Q1704.36 203.128 1702.51 205.304 Q1700.68 207.457 1700.68 211.184 Q1700.68 214.934 1702.51 217.086 Q1704.36 219.239 1707.51 219.239 Z" fill="#000000" fill-rule="evenodd" fill-opacity="1" /><path clip-path="url(#clip870)" d="M 0 0 M1734.89 203.128 Q1731.28 203.128 1729.45 206.693 Q1727.65 210.235 1727.65 217.364 Q1727.65 224.471 1729.45 228.036 Q1731.28 231.577 1734.89 231.577 Q1738.53 231.577 1740.33 228.036 Q1742.16 224.471 1742.16 217.364 Q1742.16 210.235 1740.33 206.693 Q1738.53 203.128 1734.89 203.128 M1734.89 199.425 Q1740.7 199.425 1743.76 204.031 Q1746.84 208.614 1746.84 217.364 Q1746.84 226.091 1743.76 230.698 Q1740.7 235.281 1734.89 235.281 Q1729.08 235.281 1726 230.698 Q1722.95 226.091 1722.95 217.364 Q1722.95 208.614 1726 204.031 Q1729.08 199.425 1734.89 199.425 Z" fill="#000000" fill-rule="evenodd" fill-opacity="1" /><path clip-path="url(#clip870)" d="M 0 0 M1781.3 219.401 Q1779.29 219.401 1778.13 221.114 Q1777 222.827 1777 225.883 Q1777 228.892 1778.13 230.628 Q1779.29 232.341 1781.3 232.341 Q1783.27 232.341 1784.41 230.628 Q1785.56 228.892 1785.56 225.883 Q1785.56 222.85 1784.41 221.137 Q1783.27 219.401 1781.3 219.401 M1781.3 216.462 Q1784.96 216.462 1787.11 219.008 Q1789.27 221.554 1789.27 225.883 Q1789.27 230.211 1787.09 232.758 Q1784.94 235.281 1781.3 235.281 Q1777.6 235.281 1775.45 232.758 Q1773.29 230.211 1773.29 225.883 Q1773.29 221.531 1775.45 219.008 Q1777.62 216.462 1781.3 216.462 M1757.42 202.364 Q1755.42 202.364 1754.27 204.1 Q1753.13 205.813 1753.13 208.823 Q1753.13 211.878 1754.27 213.591 Q1755.4 215.304 1757.42 215.304 Q1759.43 215.304 1760.56 213.591 Q1761.72 211.878 1761.72 208.823 Q1761.72 205.837 1760.56 204.1 Q1759.41 202.364 1757.42 202.364 M1778.32 199.425 L1782.02 199.425 L1760.4 235.281 L1756.7 235.281 L1778.32 199.425 M1757.42 199.425 Q1761.07 199.425 1763.25 201.971 Q1765.42 204.494 1765.42 208.823 Q1765.42 213.198 1763.25 215.721 Q1761.1 218.244 1757.42 218.244 Q1753.73 218.244 1751.58 215.721 Q1749.45 213.174 1749.45 208.823 Q1749.45 204.517 1751.6 201.971 Q1753.76 199.425 1757.42 199.425 Z" fill="#000000" fill-rule="evenodd" fill-opacity="1" /><path clip-path="url(#clip870)" d="M 0 0 M1830.35 218.961 L1830.35 234.61 L1826.1 234.61 L1826.1 219.1 Q1826.1 215.42 1824.66 213.591 Q1823.22 211.762 1820.35 211.762 Q1816.91 211.762 1814.91 213.962 Q1812.92 216.161 1812.92 219.957 L1812.92 234.61 L1808.64 234.61 L1808.64 208.684 L1812.92 208.684 L1812.92 212.712 Q1814.45 210.374 1816.51 209.216 Q1818.6 208.059 1821.3 208.059 Q1825.77 208.059 1828.06 210.837 Q1830.35 213.591 1830.35 218.961 Z" fill="#000000" fill-rule="evenodd" fill-opacity="1" /><path clip-path="url(#clip870)" d="M 0 0 M1844.87 211.67 Q1841.44 211.67 1839.45 214.355 Q1837.46 217.017 1837.46 221.67 Q1837.46 226.323 1839.43 229.008 Q1841.42 231.67 1844.87 231.67 Q1848.27 231.67 1850.26 228.985 Q1852.25 226.299 1852.25 221.67 Q1852.25 217.063 1850.26 214.378 Q1848.27 211.67 1844.87 211.67 M1844.87 208.059 Q1850.42 208.059 1853.6 211.67 Q1856.77 215.281 1856.77 221.67 Q1856.77 228.036 1853.6 231.67 Q1850.42 235.281 1844.87 235.281 Q1839.29 235.281 1836.12 231.67 Q1832.97 228.036 1832.97 221.67 Q1832.97 215.281 1836.12 211.67 Q1839.29 208.059 1844.87 208.059 Z" fill="#000000" fill-rule="evenodd" fill-opacity="1" /><path clip-path="url(#clip870)" d="M 0 0 M1882.78 218.961 L1882.78 234.61 L1878.53 234.61 L1878.53 219.1 Q1878.53 215.42 1877.09 213.591 Q1875.66 211.762 1872.78 211.762 Q1869.34 211.762 1867.35 213.962 Q1865.35 216.161 1865.35 219.957 L1865.35 234.61 L1861.07 234.61 L1861.07 208.684 L1865.35 208.684 L1865.35 212.712 Q1866.88 210.374 1868.94 209.216 Q1871.03 208.059 1873.73 208.059 Q1878.2 208.059 1880.49 210.837 Q1882.78 213.591 1882.78 218.961 Z" fill="#000000" fill-rule="evenodd" fill-opacity="1" /><path clip-path="url(#clip870)" d="M 0 0 M1885.1 219.725 L1897.58 219.725 L1897.58 223.522 L1885.1 223.522 L1885.1 219.725 Z" fill="#000000" fill-rule="evenodd" fill-opacity="1" /><path clip-path="url(#clip870)" d="M 0 0 M1917.07 212.665 Q1916.35 212.249 1915.49 212.063 Q1914.66 211.855 1913.64 211.855 Q1910.03 211.855 1908.09 214.216 Q1906.16 216.554 1906.16 220.952 L1906.16 234.61 L1901.88 234.61 L1901.88 208.684 L1906.16 208.684 L1906.16 212.712 Q1907.51 210.35 1909.66 209.216 Q1911.81 208.059 1914.89 208.059 Q1915.33 208.059 1915.86 208.128 Q1916.4 208.175 1917.04 208.29 L1917.07 212.665 Z" fill="#000000" fill-rule="evenodd" fill-opacity="1" /><path clip-path="url(#clip870)" d="M 0 0 M1942.67 220.582 L1942.67 222.665 L1923.09 222.665 Q1923.36 227.063 1925.72 229.378 Q1928.11 231.67 1932.34 231.67 Q1934.8 231.67 1937.09 231.068 Q1939.4 230.466 1941.67 229.262 L1941.67 233.29 Q1939.38 234.262 1936.97 234.772 Q1934.57 235.281 1932.09 235.281 Q1925.89 235.281 1922.25 231.67 Q1918.64 228.059 1918.64 221.901 Q1918.64 215.536 1922.07 211.809 Q1925.52 208.059 1931.35 208.059 Q1936.58 208.059 1939.61 211.438 Q1942.67 214.795 1942.67 220.582 M1938.41 219.332 Q1938.36 215.837 1936.44 213.753 Q1934.54 211.67 1931.4 211.67 Q1927.83 211.67 1925.68 213.684 Q1923.55 215.698 1923.22 219.355 L1938.41 219.332 Z" fill="#000000" fill-rule="evenodd" fill-opacity="1" /><path clip-path="url(#clip870)" d="M 0 0 M1947.14 208.684 L1951.4 208.684 L1951.4 235.073 Q1951.4 240.026 1949.5 242.248 Q1947.62 244.471 1943.43 244.471 L1941.81 244.471 L1941.81 240.86 L1942.95 240.86 Q1945.38 240.86 1946.26 239.725 Q1947.14 238.614 1947.14 235.073 L1947.14 208.684 M1947.14 198.591 L1951.4 198.591 L1951.4 203.985 L1947.14 203.985 L1947.14 198.591 Z" fill="#000000" fill-rule="evenodd" fill-opacity="1" /><path clip-path="url(#clip870)" d="M 0 0 M1978.04 220.582 L1978.04 222.665 L1958.46 222.665 Q1958.73 227.063 1961.09 229.378 Q1963.48 231.67 1967.71 231.67 Q1970.17 231.67 1972.46 231.068 Q1974.78 230.466 1977.04 229.262 L1977.04 233.29 Q1974.75 234.262 1972.34 234.772 Q1969.94 235.281 1967.46 235.281 Q1961.26 235.281 1957.62 231.67 Q1954.01 228.059 1954.01 221.901 Q1954.01 215.536 1957.44 211.809 Q1960.89 208.059 1966.72 208.059 Q1971.95 208.059 1974.98 211.438 Q1978.04 214.795 1978.04 220.582 M1973.78 219.332 Q1973.73 215.837 1971.81 213.753 Q1969.91 211.67 1966.77 211.67 Q1963.2 211.67 1961.05 213.684 Q1958.92 215.698 1958.59 219.355 L1973.78 219.332 Z" fill="#000000" fill-rule="evenodd" fill-opacity="1" /><path clip-path="url(#clip870)" d="M 0 0 M2001.16 209.679 L2001.16 213.661 Q1999.36 212.665 1997.53 212.179 Q1995.72 211.67 1993.87 211.67 Q1989.73 211.67 1987.44 214.309 Q1985.15 216.924 1985.15 221.67 Q1985.15 226.415 1987.44 229.054 Q1989.73 231.67 1993.87 231.67 Q1995.72 231.67 1997.53 231.184 Q1999.36 230.674 2001.16 229.679 L2001.16 233.614 Q1999.38 234.448 1997.46 234.864 Q1995.56 235.281 1993.41 235.281 Q1987.55 235.281 1984.1 231.6 Q1980.65 227.92 1980.65 221.67 Q1980.65 215.327 1984.13 211.693 Q1987.62 208.059 1993.69 208.059 Q1995.65 208.059 1997.53 208.475 Q1999.4 208.869 2001.16 209.679 Z" fill="#000000" fill-rule="evenodd" fill-opacity="1" /><path clip-path="url(#clip870)" d="M 0 0 M2009.84 201.323 L2009.84 208.684 L2018.62 208.684 L2018.62 211.994 L2009.84 211.994 L2009.84 226.068 Q2009.84 229.239 2010.7 230.142 Q2011.58 231.045 2014.24 231.045 L2018.62 231.045 L2018.62 234.61 L2014.24 234.61 Q2009.31 234.61 2007.44 232.781 Q2005.56 230.929 2005.56 226.068 L2005.56 211.994 L2002.44 211.994 L2002.44 208.684 L2005.56 208.684 L2005.56 201.323 L2009.84 201.323 Z" fill="#000000" fill-rule="evenodd" fill-opacity="1" /><path clip-path="url(#clip870)" d="M 0 0 M2023.08 208.684 L2027.34 208.684 L2027.34 234.61 L2023.08 234.61 L2023.08 208.684 M2023.08 198.591 L2027.34 198.591 L2027.34 203.985 L2023.08 203.985 L2023.08 198.591 Z" fill="#000000" fill-rule="evenodd" fill-opacity="1" /><path clip-path="url(#clip870)" d="M 0 0 M2041.86 211.67 Q2038.43 211.67 2036.44 214.355 Q2034.45 217.017 2034.45 221.67 Q2034.45 226.323 2036.42 229.008 Q2038.41 231.67 2041.86 231.67 Q2045.26 231.67 2047.25 228.985 Q2049.24 226.299 2049.24 221.67 Q2049.24 217.063 2047.25 214.378 Q2045.26 211.67 2041.86 211.67 M2041.86 208.059 Q2047.41 208.059 2050.58 211.67 Q2053.76 215.281 2053.76 221.67 Q2053.76 228.036 2050.58 231.67 Q2047.41 235.281 2041.86 235.281 Q2036.28 235.281 2033.11 231.67 Q2029.96 228.036 2029.96 221.67 Q2029.96 215.281 2033.11 211.67 Q2036.28 208.059 2041.86 208.059 Z" fill="#000000" fill-rule="evenodd" fill-opacity="1" /><path clip-path="url(#clip870)" d="M 0 0 M2079.77 218.961 L2079.77 234.61 L2075.52 234.61 L2075.52 219.1 Q2075.52 215.42 2074.08 213.591 Q2072.64 211.762 2069.77 211.762 Q2066.33 211.762 2064.33 213.962 Q2062.34 216.161 2062.34 219.957 L2062.34 234.61 L2058.06 234.61 L2058.06 208.684 L2062.34 208.684 L2062.34 212.712 Q2063.87 210.374 2065.93 209.216 Q2068.02 208.059 2070.72 208.059 Q2075.19 208.059 2077.48 210.837 Q2079.77 213.591 2079.77 218.961 Z" fill="#000000" fill-rule="evenodd" fill-opacity="1" /><path clip-path="url(#clip870)" d="M 0 0 M2114.33 212.665 Q2113.62 212.249 2112.76 212.063 Q2111.93 211.855 2110.91 211.855 Q2107.3 211.855 2105.35 214.216 Q2103.43 216.554 2103.43 220.952 L2103.43 234.61 L2099.15 234.61 L2099.15 208.684 L2103.43 208.684 L2103.43 212.712 Q2104.77 210.35 2106.93 209.216 Q2109.08 208.059 2112.16 208.059 Q2112.6 208.059 2113.13 208.128 Q2113.66 208.175 2114.31 208.29 L2114.33 212.665 Z" fill="#000000" fill-rule="evenodd" fill-opacity="1" /><path clip-path="url(#clip870)" d="M 0 0 M2139.94 220.582 L2139.94 222.665 L2120.35 222.665 Q2120.63 227.063 2122.99 229.378 Q2125.38 231.67 2129.61 231.67 Q2132.07 231.67 2134.36 231.068 Q2136.67 230.466 2138.94 229.262 L2138.94 233.29 Q2136.65 234.262 2134.24 234.772 Q2131.83 235.281 2129.36 235.281 Q2123.15 235.281 2119.52 231.67 Q2115.91 228.059 2115.91 221.901 Q2115.91 215.536 2119.33 211.809 Q2122.78 208.059 2128.62 208.059 Q2133.85 208.059 2136.88 211.438 Q2139.94 214.795 2139.94 220.582 M2135.68 219.332 Q2135.63 215.837 2133.71 213.753 Q2131.81 211.67 2128.66 211.67 Q2125.1 211.67 2122.95 213.684 Q2120.82 215.698 2120.49 219.355 L2135.68 219.332 Z" fill="#000000" fill-rule="evenodd" fill-opacity="1" /><path clip-path="url(#clip870)" d="M 0 0 M2161.46 221.346 Q2161.46 216.716 2159.54 214.17 Q2157.64 211.624 2154.2 211.624 Q2150.77 211.624 2148.85 214.17 Q2146.95 216.716 2146.95 221.346 Q2146.95 225.952 2148.85 228.498 Q2150.77 231.045 2154.2 231.045 Q2157.64 231.045 2159.54 228.498 Q2161.46 225.952 2161.46 221.346 M2165.72 231.392 Q2165.72 238.012 2162.78 241.23 Q2159.84 244.471 2153.78 244.471 Q2151.53 244.471 2149.54 244.123 Q2147.55 243.799 2145.68 243.105 L2145.68 238.961 Q2147.55 239.98 2149.38 240.466 Q2151.21 240.952 2153.11 240.952 Q2157.3 240.952 2159.38 238.753 Q2161.46 236.577 2161.46 232.156 L2161.46 230.049 Q2160.14 232.341 2158.08 233.475 Q2156.02 234.61 2153.15 234.61 Q2148.39 234.61 2145.47 230.975 Q2142.55 227.341 2142.55 221.346 Q2142.55 215.327 2145.47 211.693 Q2148.39 208.059 2153.15 208.059 Q2156.02 208.059 2158.08 209.193 Q2160.14 210.327 2161.46 212.619 L2161.46 208.684 L2165.72 208.684 L2165.72 231.392 Z" fill="#000000" fill-rule="evenodd" fill-opacity="1" /><path clip-path="url(#clip870)" d="M 0 0 M2170.19 208.684 L2174.45 208.684 L2174.45 234.61 L2170.19 234.61 L2170.19 208.684 M2170.19 198.591 L2174.45 198.591 L2174.45 203.985 L2170.19 203.985 L2170.19 198.591 Z" fill="#000000" fill-rule="evenodd" fill-opacity="1" /><path clip-path="url(#clip870)" d="M 0 0 M2188.96 211.67 Q2185.54 211.67 2183.55 214.355 Q2181.56 217.017 2181.56 221.67 Q2181.56 226.323 2183.52 229.008 Q2185.51 231.67 2188.96 231.67 Q2192.37 231.67 2194.36 228.985 Q2196.35 226.299 2196.35 221.67 Q2196.35 217.063 2194.36 214.378 Q2192.37 211.67 2188.96 211.67 M2188.96 208.059 Q2194.52 208.059 2197.69 211.67 Q2200.86 215.281 2200.86 221.67 Q2200.86 228.036 2197.69 231.67 Q2194.52 235.281 2188.96 235.281 Q2183.39 235.281 2180.21 231.67 Q2177.07 228.036 2177.07 221.67 Q2177.07 215.281 2180.21 211.67 Q2183.39 208.059 2188.96 208.059 Z" fill="#000000" fill-rule="evenodd" fill-opacity="1" /><path clip-path="url(#clip870)" d="M 0 0 M2226.88 218.961 L2226.88 234.61 L2222.62 234.61 L2222.62 219.1 Q2222.62 215.42 2221.19 213.591 Q2219.75 211.762 2216.88 211.762 Q2213.43 211.762 2211.44 213.962 Q2209.45 216.161 2209.45 219.957 L2209.45 234.61 L2205.17 234.61 L2205.17 208.684 L2209.45 208.684 L2209.45 212.712 Q2210.98 210.374 2213.04 209.216 Q2215.12 208.059 2217.83 208.059 Q2222.3 208.059 2224.59 210.837 Q2226.88 213.591 2226.88 218.961 Z" fill="#000000" fill-rule="evenodd" fill-opacity="1" /><path clip-path="url(#clip870)" d="
M1519.75 302.002 L1670.81 302.002 L1670.81 253.618 L1519.75 253.618 L1519.75 302.002  Z
  " fill="#ffa500" fill-rule="evenodd" fill-opacity="0.5"/>
<polyline clip-path="url(#clip870)" style="stroke:#ffa500; stroke-width:4; stroke-opacity:1; fill:none" points="
  1519.75,253.618 1670.81,253.618 
  "/>
<path clip-path="url(#clip870)" d="M 0 0 M1700.38 282.15 Q1700.38 286.849 1702.3 289.534 Q1704.24 292.196 1707.62 292.196 Q1711 292.196 1712.95 289.534 Q1714.89 286.849 1714.89 282.15 Q1714.89 277.451 1712.95 274.789 Q1711 272.104 1707.62 272.104 Q1704.24 272.104 1702.3 274.789 Q1700.38 277.451 1700.38 282.15 M1714.89 291.201 Q1713.55 293.515 1711.49 294.65 Q1709.45 295.761 1706.58 295.761 Q1701.88 295.761 1698.92 292.011 Q1695.98 288.261 1695.98 282.15 Q1695.98 276.039 1698.92 272.289 Q1701.88 268.539 1706.58 268.539 Q1709.45 268.539 1711.49 269.673 Q1713.55 270.784 1714.89 273.099 L1714.89 269.164 L1719.15 269.164 L1719.15 304.951 L1714.89 304.951 L1714.89 291.201 Z" fill="#000000" fill-rule="evenodd" fill-opacity="1" /><path clip-path="url(#clip870)" d="M 0 0 M1724.36 294.372 L1724.36 290.113 Q1726.12 290.946 1727.92 291.386 Q1729.73 291.826 1731.47 291.826 Q1736.1 291.826 1738.53 288.724 Q1740.98 285.599 1741.33 279.256 Q1739.98 281.247 1737.92 282.312 Q1735.86 283.377 1733.36 283.377 Q1728.18 283.377 1725.15 280.252 Q1722.14 277.104 1722.14 271.664 Q1722.14 266.34 1725.29 263.122 Q1728.43 259.905 1733.67 259.905 Q1739.66 259.905 1742.81 264.511 Q1745.98 269.094 1745.98 277.844 Q1745.98 286.016 1742.09 290.9 Q1738.23 295.761 1731.67 295.761 Q1729.92 295.761 1728.11 295.414 Q1726.3 295.066 1724.36 294.372 M1733.67 279.719 Q1736.81 279.719 1738.64 277.566 Q1740.49 275.414 1740.49 271.664 Q1740.49 267.937 1738.64 265.784 Q1736.81 263.608 1733.67 263.608 Q1730.52 263.608 1728.67 265.784 Q1726.84 267.937 1726.84 271.664 Q1726.84 275.414 1728.67 277.566 Q1730.52 279.719 1733.67 279.719 Z" fill="#000000" fill-rule="evenodd" fill-opacity="1" /><path clip-path="url(#clip870)" d="M 0 0 M1751.1 260.53 L1769.45 260.53 L1769.45 264.465 L1755.38 264.465 L1755.38 272.937 Q1756.4 272.59 1757.42 272.428 Q1758.43 272.242 1759.45 272.242 Q1765.24 272.242 1768.62 275.414 Q1772 278.585 1772 284.002 Q1772 289.58 1768.53 292.682 Q1765.05 295.761 1758.73 295.761 Q1756.56 295.761 1754.29 295.39 Q1752.04 295.02 1749.64 294.279 L1749.64 289.58 Q1751.72 290.715 1753.94 291.27 Q1756.17 291.826 1758.64 291.826 Q1762.65 291.826 1764.98 289.719 Q1767.32 287.613 1767.32 284.002 Q1767.32 280.391 1764.98 278.284 Q1762.65 276.178 1758.64 276.178 Q1756.77 276.178 1754.89 276.594 Q1753.04 277.011 1751.1 277.891 L1751.1 260.53 Z" fill="#000000" fill-rule="evenodd" fill-opacity="1" /><polyline clip-path="url(#clip870)" style="stroke:#0000ff; stroke-width:4; stroke-opacity:1; fill:none" points="
  1519.75,338.29 1670.81,338.29 
  "/>
<path clip-path="url(#clip870)" d="M 0 0 M1716.33 334.621 Q1717.92 331.75 1720.15 330.385 Q1722.37 329.019 1725.38 329.019 Q1729.43 329.019 1731.63 331.866 Q1733.83 334.69 1733.83 339.921 L1733.83 355.57 L1729.54 355.57 L1729.54 340.06 Q1729.54 336.334 1728.23 334.528 Q1726.91 332.722 1724.2 332.722 Q1720.89 332.722 1718.97 334.922 Q1717.04 337.121 1717.04 340.917 L1717.04 355.57 L1712.76 355.57 L1712.76 340.06 Q1712.76 336.31 1711.44 334.528 Q1710.12 332.722 1707.37 332.722 Q1704.11 332.722 1702.18 334.945 Q1700.26 337.144 1700.26 340.917 L1700.26 355.57 L1695.98 355.57 L1695.98 329.644 L1700.26 329.644 L1700.26 333.672 Q1701.72 331.287 1703.76 330.153 Q1705.79 329.019 1708.6 329.019 Q1711.42 329.019 1713.39 330.454 Q1715.38 331.889 1716.33 334.621 Z" fill="#000000" fill-rule="evenodd" fill-opacity="1" /><path clip-path="url(#clip870)" d="M 0 0 M1760.47 341.542 L1760.47 343.625 L1740.89 343.625 Q1741.17 348.023 1743.53 350.338 Q1745.91 352.63 1750.15 352.63 Q1752.6 352.63 1754.89 352.028 Q1757.21 351.426 1759.48 350.222 L1759.48 354.25 Q1757.18 355.222 1754.78 355.732 Q1752.37 356.241 1749.89 356.241 Q1743.69 356.241 1740.05 352.63 Q1736.44 349.019 1736.44 342.861 Q1736.44 336.496 1739.87 332.769 Q1743.32 329.019 1749.15 329.019 Q1754.38 329.019 1757.42 332.398 Q1760.47 335.755 1760.47 341.542 M1756.21 340.292 Q1756.17 336.797 1754.24 334.713 Q1752.35 332.63 1749.2 332.63 Q1745.63 332.63 1743.48 334.644 Q1741.35 336.658 1741.03 340.315 L1756.21 340.292 Z" fill="#000000" fill-rule="evenodd" fill-opacity="1" /><path clip-path="url(#clip870)" d="M 0 0 M1776.72 342.537 Q1771.56 342.537 1769.57 343.718 Q1767.58 344.898 1767.58 347.746 Q1767.58 350.014 1769.06 351.357 Q1770.56 352.676 1773.13 352.676 Q1776.67 352.676 1778.8 350.176 Q1780.96 347.653 1780.96 343.486 L1780.96 342.537 L1776.72 342.537 M1785.22 340.778 L1785.22 355.57 L1780.96 355.57 L1780.96 351.634 Q1779.5 353.995 1777.32 355.13 Q1775.15 356.241 1772 356.241 Q1768.02 356.241 1765.66 354.019 Q1763.32 351.773 1763.32 348.023 Q1763.32 343.648 1766.23 341.426 Q1769.17 339.204 1774.98 339.204 L1780.96 339.204 L1780.96 338.787 Q1780.96 335.847 1779.01 334.25 Q1777.09 332.63 1773.6 332.63 Q1771.37 332.63 1769.27 333.162 Q1767.16 333.695 1765.22 334.759 L1765.22 330.824 Q1767.55 329.922 1769.75 329.482 Q1771.95 329.019 1774.04 329.019 Q1779.66 329.019 1782.44 331.935 Q1785.22 334.852 1785.22 340.778 Z" fill="#000000" fill-rule="evenodd" fill-opacity="1" /><path clip-path="url(#clip870)" d="M 0 0 M1811.23 339.921 L1811.23 355.57 L1806.97 355.57 L1806.97 340.06 Q1806.97 336.38 1805.54 334.551 Q1804.1 332.722 1801.23 332.722 Q1797.79 332.722 1795.79 334.922 Q1793.8 337.121 1793.8 340.917 L1793.8 355.57 L1789.52 355.57 L1789.52 329.644 L1793.8 329.644 L1793.8 333.672 Q1795.33 331.334 1797.39 330.176 Q1799.48 329.019 1802.18 329.019 Q1806.65 329.019 1808.94 331.797 Q1811.23 334.551 1811.23 339.921 Z" fill="#000000" fill-rule="evenodd" fill-opacity="1" /><polyline clip-path="url(#clip870)" style="stroke:#000000; stroke-width:4; stroke-opacity:1; fill:none" points="
  1519.75,398.77 1670.81,398.77 
  "/>
<path clip-path="url(#clip870)" d="M 0 0 M1716.33 395.101 Q1717.92 392.23 1720.15 390.865 Q1722.37 389.499 1725.38 389.499 Q1729.43 389.499 1731.63 392.346 Q1733.83 395.17 1733.83 400.401 L1733.83 416.05 L1729.54 416.05 L1729.54 400.54 Q1729.54 396.814 1728.23 395.008 Q1726.91 393.202 1724.2 393.202 Q1720.89 393.202 1718.97 395.402 Q1717.04 397.601 1717.04 401.397 L1717.04 416.05 L1712.76 416.05 L1712.76 400.54 Q1712.76 396.79 1711.44 395.008 Q1710.12 393.202 1707.37 393.202 Q1704.11 393.202 1702.18 395.425 Q1700.26 397.624 1700.26 401.397 L1700.26 416.05 L1695.98 416.05 L1695.98 390.124 L1700.26 390.124 L1700.26 394.152 Q1701.72 391.767 1703.76 390.633 Q1705.79 389.499 1708.6 389.499 Q1711.42 389.499 1713.39 390.934 Q1715.38 392.369 1716.33 395.101 Z" fill="#000000" fill-rule="evenodd" fill-opacity="1" /><path clip-path="url(#clip870)" d="M 0 0 M1760.47 402.022 L1760.47 404.105 L1740.89 404.105 Q1741.17 408.503 1743.53 410.818 Q1745.91 413.11 1750.15 413.11 Q1752.6 413.11 1754.89 412.508 Q1757.21 411.906 1759.48 410.702 L1759.48 414.73 Q1757.18 415.702 1754.78 416.212 Q1752.37 416.721 1749.89 416.721 Q1743.69 416.721 1740.05 413.11 Q1736.44 409.499 1736.44 403.341 Q1736.44 396.976 1739.87 393.249 Q1743.32 389.499 1749.15 389.499 Q1754.38 389.499 1757.42 392.878 Q1760.47 396.235 1760.47 402.022 M1756.21 400.772 Q1756.17 397.277 1754.24 395.193 Q1752.35 393.11 1749.2 393.11 Q1745.63 393.11 1743.48 395.124 Q1741.35 397.138 1741.03 400.795 L1756.21 400.772 Z" fill="#000000" fill-rule="evenodd" fill-opacity="1" /><path clip-path="url(#clip870)" d="M 0 0 M1782 394.059 L1782 380.031 L1786.26 380.031 L1786.26 416.05 L1782 416.05 L1782 412.161 Q1780.66 414.475 1778.6 415.61 Q1776.56 416.721 1773.69 416.721 Q1768.99 416.721 1766.03 412.971 Q1763.09 409.221 1763.09 403.11 Q1763.09 396.999 1766.03 393.249 Q1768.99 389.499 1773.69 389.499 Q1776.56 389.499 1778.6 390.633 Q1780.66 391.744 1782 394.059 M1767.48 403.11 Q1767.48 407.809 1769.41 410.494 Q1771.35 413.156 1774.73 413.156 Q1778.11 413.156 1780.05 410.494 Q1782 407.809 1782 403.11 Q1782 398.411 1780.05 395.749 Q1778.11 393.064 1774.73 393.064 Q1771.35 393.064 1769.41 395.749 Q1767.48 398.411 1767.48 403.11 Z" fill="#000000" fill-rule="evenodd" fill-opacity="1" /><path clip-path="url(#clip870)" d="M 0 0 M1790.73 390.124 L1794.98 390.124 L1794.98 416.05 L1790.73 416.05 L1790.73 390.124 M1790.73 380.031 L1794.98 380.031 L1794.98 385.425 L1790.73 385.425 L1790.73 380.031 Z" fill="#000000" fill-rule="evenodd" fill-opacity="1" /><path clip-path="url(#clip870)" d="M 0 0 M1811.23 403.017 Q1806.07 403.017 1804.08 404.198 Q1802.09 405.378 1802.09 408.226 Q1802.09 410.494 1803.57 411.837 Q1805.08 413.156 1807.65 413.156 Q1811.19 413.156 1813.32 410.656 Q1815.47 408.133 1815.47 403.966 L1815.47 403.017 L1811.23 403.017 M1819.73 401.258 L1819.73 416.05 L1815.47 416.05 L1815.47 412.114 Q1814.01 414.475 1811.84 415.61 Q1809.66 416.721 1806.51 416.721 Q1802.53 416.721 1800.17 414.499 Q1797.83 412.253 1797.83 408.503 Q1797.83 404.128 1800.75 401.906 Q1803.69 399.684 1809.5 399.684 L1815.47 399.684 L1815.47 399.267 Q1815.47 396.327 1813.53 394.73 Q1811.6 393.11 1808.11 393.11 Q1805.89 393.11 1803.78 393.642 Q1801.67 394.175 1799.73 395.239 L1799.73 391.304 Q1802.07 390.402 1804.27 389.962 Q1806.47 389.499 1808.55 389.499 Q1814.17 389.499 1816.95 392.415 Q1819.73 395.332 1819.73 401.258 Z" fill="#000000" fill-rule="evenodd" fill-opacity="1" /><path clip-path="url(#clip870)" d="M 0 0 M1845.75 400.401 L1845.75 416.05 L1841.49 416.05 L1841.49 400.54 Q1841.49 396.86 1840.05 395.031 Q1838.62 393.202 1835.75 393.202 Q1832.3 393.202 1830.31 395.402 Q1828.32 397.601 1828.32 401.397 L1828.32 416.05 L1824.04 416.05 L1824.04 390.124 L1828.32 390.124 L1828.32 394.152 Q1829.85 391.814 1831.91 390.656 Q1833.99 389.499 1836.7 389.499 Q1841.16 389.499 1843.46 392.277 Q1845.75 395.031 1845.75 400.401 Z" fill="#000000" fill-rule="evenodd" fill-opacity="1" /></svg>
