<?xml version="1.0" encoding="utf-8"?>
<svg xmlns="http://www.w3.org/2000/svg" xmlns:xlink="http://www.w3.org/1999/xlink" width="600" height="400" viewBox="0 0 2400 1600">
<defs>
  <clipPath id="clip200">
    <rect x="0" y="0" width="2400" height="1600"/>
  </clipPath>
</defs>
<path clip-path="url(#clip200)" d="
M0 1600 L2400 1600 L2400 0 L0 0  Z
  " fill="#ffffff" fill-rule="evenodd" fill-opacity="1"/>
<defs>
  <clipPath id="clip201">
    <rect x="480" y="0" width="1681" height="1600"/>
  </clipPath>
</defs>
<path clip-path="url(#clip200)" d="
M86.9921 1521.01 L2352.76 1521.01 L2352.76 47.2441 L86.9921 47.2441  Z
  " fill="#ffffff" fill-rule="evenodd" fill-opacity="1"/>
<defs>
  <clipPath id="clip202">
    <rect x="86" y="47" width="2267" height="1475"/>
  </clipPath>
</defs>
<polyline clip-path="url(#clip202)" style="stroke:#000000; stroke-width:2; stroke-opacity:0.1; fill:none" points="
  333.427,1521.01 333.427,47.2441 
  "/>
<polyline clip-path="url(#clip202)" style="stroke:#000000; stroke-width:2; stroke-opacity:0.1; fill:none" points="
  798.418,1521.01 798.418,47.2441 
  "/>
<polyline clip-path="url(#clip202)" style="stroke:#000000; stroke-width:2; stroke-opacity:0.1; fill:none" points="
  1263.41,1521.01 1263.41,47.2441 
  "/>
<polyline clip-path="url(#clip202)" style="stroke:#000000; stroke-width:2; stroke-opacity:0.1; fill:none" points="
  1728.4,1521.01 1728.4,47.2441 
  "/>
<polyline clip-path="url(#clip202)" style="stroke:#000000; stroke-width:2; stroke-opacity:0.1; fill:none" points="
  2193.39,1521.01 2193.39,47.2441 
  "/>
<polyline clip-path="url(#clip202)" style="stroke:#000000; stroke-width:2; stroke-opacity:0.1; fill:none" points="
  86.9921,1479.3 2352.76,1479.3 
  "/>
<polyline clip-path="url(#clip202)" style="stroke:#000000; stroke-width:2; stroke-opacity:0.1; fill:none" points="
  86.9921,1017.12 2352.76,1017.12 
  "/>
<polyline clip-path="url(#clip202)" style="stroke:#000000; stroke-width:2; stroke-opacity:0.1; fill:none" points="
  86.9921,554.938 2352.76,554.938 
  "/>
<polyline clip-path="url(#clip202)" style="stroke:#000000; stroke-width:2; stroke-opacity:0.1; fill:none" points="
  86.9921,92.7581 2352.76,92.7581 
  "/>
<polyline clip-path="url(#clip200)" style="stroke:#000000; stroke-width:4; stroke-opacity:1; fill:none" points="
  86.9921,1521.01 2352.76,1521.01 
  "/>
<polyline clip-path="url(#clip200)" style="stroke:#000000; stroke-width:4; stroke-opacity:1; fill:none" points="
  86.9921,1521.01 86.9921,47.2441 
  "/>
<polyline clip-path="url(#clip200)" style="stroke:#000000; stroke-width:4; stroke-opacity:1; fill:none" points="
  333.427,1521.01 333.427,1503.32 
  "/>
<polyline clip-path="url(#clip200)" style="stroke:#000000; stroke-width:4; stroke-opacity:1; fill:none" points="
  798.418,1521.01 798.418,1503.32 
  "/>
<polyline clip-path="url(#clip200)" style="stroke:#000000; stroke-width:4; stroke-opacity:1; fill:none" points="
  1263.41,1521.01 1263.41,1503.32 
  "/>
<polyline clip-path="url(#clip200)" style="stroke:#000000; stroke-width:4; stroke-opacity:1; fill:none" points="
  1728.4,1521.01 1728.4,1503.32 
  "/>
<polyline clip-path="url(#clip200)" style="stroke:#000000; stroke-width:4; stroke-opacity:1; fill:none" points="
  2193.39,1521.01 2193.39,1503.32 
  "/>
<polyline clip-path="url(#clip200)" style="stroke:#000000; stroke-width:4; stroke-opacity:1; fill:none" points="
  86.9921,1479.3 114.181,1479.3 
  "/>
<polyline clip-path="url(#clip200)" style="stroke:#000000; stroke-width:4; stroke-opacity:1; fill:none" points="
  86.9921,1017.12 114.181,1017.12 
  "/>
<polyline clip-path="url(#clip200)" style="stroke:#000000; stroke-width:4; stroke-opacity:1; fill:none" points="
  86.9921,554.938 114.181,554.938 
  "/>
<polyline clip-path="url(#clip200)" style="stroke:#000000; stroke-width:4; stroke-opacity:1; fill:none" points="
  86.9921,92.7581 114.181,92.7581 
  "/>
<path clip-path="url(#clip200)" d="M 0 0 M301.193 1543 Q297.582 1543 295.754 1546.56 Q293.948 1550.11 293.948 1557.23 Q293.948 1564.34 295.754 1567.91 Q297.582 1571.45 301.193 1571.45 Q304.828 1571.45 306.633 1567.91 Q308.462 1564.34 308.462 1557.23 Q308.462 1550.11 306.633 1546.56 Q304.828 1543 301.193 1543 M301.193 1539.29 Q307.004 1539.29 310.059 1543.9 Q313.138 1548.48 313.138 1557.23 Q313.138 1565.96 310.059 1570.57 Q307.004 1575.15 301.193 1575.15 Q295.383 1575.15 292.305 1570.57 Q289.249 1565.96 289.249 1557.23 Q289.249 1548.48 292.305 1543.9 Q295.383 1539.29 301.193 1539.29 Z" fill="#000000" fill-rule="evenodd" fill-opacity="1" /><path clip-path="url(#clip200)" d="M 0 0 M318.207 1568.6 L323.091 1568.6 L323.091 1574.48 L318.207 1574.48 L318.207 1568.6 Z" fill="#000000" fill-rule="evenodd" fill-opacity="1" /><path clip-path="url(#clip200)" d="M 0 0 M338.161 1543 Q334.55 1543 332.721 1546.56 Q330.916 1550.11 330.916 1557.23 Q330.916 1564.34 332.721 1567.91 Q334.55 1571.45 338.161 1571.45 Q341.795 1571.45 343.601 1567.91 Q345.429 1564.34 345.429 1557.23 Q345.429 1550.11 343.601 1546.56 Q341.795 1543 338.161 1543 M338.161 1539.29 Q343.971 1539.29 347.027 1543.9 Q350.105 1548.48 350.105 1557.23 Q350.105 1565.96 347.027 1570.57 Q343.971 1575.15 338.161 1575.15 Q332.351 1575.15 329.272 1570.57 Q326.216 1565.96 326.216 1557.23 Q326.216 1548.48 329.272 1543.9 Q332.351 1539.29 338.161 1539.29 Z" fill="#000000" fill-rule="evenodd" fill-opacity="1" /><path clip-path="url(#clip200)" d="M 0 0 M368.022 1543.99 L356.216 1562.44 L368.022 1562.44 L368.022 1543.99 M366.795 1539.92 L372.675 1539.92 L372.675 1562.44 L377.605 1562.44 L377.605 1566.33 L372.675 1566.33 L372.675 1574.48 L368.022 1574.48 L368.022 1566.33 L352.42 1566.33 L352.42 1561.82 L366.795 1539.92 Z" fill="#000000" fill-rule="evenodd" fill-opacity="1" /><path clip-path="url(#clip200)" d="M 0 0 M766.346 1543 Q762.735 1543 760.907 1546.56 Q759.101 1550.11 759.101 1557.23 Q759.101 1564.34 760.907 1567.91 Q762.735 1571.45 766.346 1571.45 Q769.981 1571.45 771.786 1567.91 Q773.615 1564.34 773.615 1557.23 Q773.615 1550.11 771.786 1546.56 Q769.981 1543 766.346 1543 M766.346 1539.29 Q772.157 1539.29 775.212 1543.9 Q778.291 1548.48 778.291 1557.23 Q778.291 1565.96 775.212 1570.57 Q772.157 1575.15 766.346 1575.15 Q760.536 1575.15 757.458 1570.57 Q754.402 1565.96 754.402 1557.23 Q754.402 1548.48 757.458 1543.9 Q760.536 1539.29 766.346 1539.29 Z" fill="#000000" fill-rule="evenodd" fill-opacity="1" /><path clip-path="url(#clip200)" d="M 0 0 M783.36 1568.6 L788.244 1568.6 L788.244 1574.48 L783.36 1574.48 L783.36 1568.6 Z" fill="#000000" fill-rule="evenodd" fill-opacity="1" /><path clip-path="url(#clip200)" d="M 0 0 M803.314 1543 Q799.703 1543 797.874 1546.56 Q796.068 1550.11 796.068 1557.23 Q796.068 1564.34 797.874 1567.91 Q799.703 1571.45 803.314 1571.45 Q806.948 1571.45 808.754 1567.91 Q810.582 1564.34 810.582 1557.23 Q810.582 1550.11 808.754 1546.56 Q806.948 1543 803.314 1543 M803.314 1539.29 Q809.124 1539.29 812.179 1543.9 Q815.258 1548.48 815.258 1557.23 Q815.258 1565.96 812.179 1570.57 Q809.124 1575.15 803.314 1575.15 Q797.504 1575.15 794.425 1570.57 Q791.369 1565.96 791.369 1557.23 Q791.369 1548.48 794.425 1543.9 Q797.504 1539.29 803.314 1539.29 Z" fill="#000000" fill-rule="evenodd" fill-opacity="1" /><path clip-path="url(#clip200)" d="M 0 0 M830.906 1555.34 Q827.758 1555.34 825.906 1557.49 Q824.078 1559.64 824.078 1563.39 Q824.078 1567.12 825.906 1569.29 Q827.758 1571.45 830.906 1571.45 Q834.054 1571.45 835.883 1569.29 Q837.735 1567.12 837.735 1563.39 Q837.735 1559.64 835.883 1557.49 Q834.054 1555.34 830.906 1555.34 M840.189 1540.68 L840.189 1544.94 Q838.429 1544.11 836.624 1543.67 Q834.841 1543.23 833.082 1543.23 Q828.453 1543.23 825.999 1546.36 Q823.568 1549.48 823.221 1555.8 Q824.587 1553.79 826.647 1552.72 Q828.707 1551.63 831.184 1551.63 Q836.392 1551.63 839.402 1554.8 Q842.434 1557.95 842.434 1563.39 Q842.434 1568.72 839.286 1571.93 Q836.138 1575.15 830.906 1575.15 Q824.911 1575.15 821.74 1570.57 Q818.568 1565.96 818.568 1557.23 Q818.568 1549.04 822.457 1544.18 Q826.346 1539.29 832.897 1539.29 Q834.656 1539.29 836.439 1539.64 Q838.244 1539.99 840.189 1540.68 Z" fill="#000000" fill-rule="evenodd" fill-opacity="1" /><path clip-path="url(#clip200)" d="M 0 0 M1231.46 1543 Q1227.85 1543 1226.02 1546.56 Q1224.22 1550.11 1224.22 1557.23 Q1224.22 1564.34 1226.02 1567.91 Q1227.85 1571.45 1231.46 1571.45 Q1235.1 1571.45 1236.9 1567.91 Q1238.73 1564.34 1238.73 1557.23 Q1238.73 1550.11 1236.9 1546.56 Q1235.1 1543 1231.46 1543 M1231.46 1539.29 Q1237.27 1539.29 1240.33 1543.9 Q1243.41 1548.48 1243.41 1557.23 Q1243.41 1565.96 1240.33 1570.57 Q1237.27 1575.15 1231.46 1575.15 Q1225.65 1575.15 1222.58 1570.57 Q1219.52 1565.96 1219.52 1557.23 Q1219.52 1548.48 1222.58 1543.9 Q1225.65 1539.29 1231.46 1539.29 Z" fill="#000000" fill-rule="evenodd" fill-opacity="1" /><path clip-path="url(#clip200)" d="M 0 0 M1248.48 1568.6 L1253.36 1568.6 L1253.36 1574.48 L1248.48 1574.48 L1248.48 1568.6 Z" fill="#000000" fill-rule="evenodd" fill-opacity="1" /><path clip-path="url(#clip200)" d="M 0 0 M1268.43 1543 Q1264.82 1543 1262.99 1546.56 Q1261.19 1550.11 1261.19 1557.23 Q1261.19 1564.34 1262.99 1567.91 Q1264.82 1571.45 1268.43 1571.45 Q1272.07 1571.45 1273.87 1567.91 Q1275.7 1564.34 1275.7 1557.23 Q1275.7 1550.11 1273.87 1546.56 Q1272.07 1543 1268.43 1543 M1268.43 1539.29 Q1274.24 1539.29 1277.3 1543.9 Q1280.38 1548.48 1280.38 1557.23 Q1280.38 1565.96 1277.3 1570.57 Q1274.24 1575.15 1268.43 1575.15 Q1262.62 1575.15 1259.54 1570.57 Q1256.49 1565.96 1256.49 1557.23 Q1256.49 1548.48 1259.54 1543.9 Q1262.62 1539.29 1268.43 1539.29 Z" fill="#000000" fill-rule="evenodd" fill-opacity="1" /><path clip-path="url(#clip200)" d="M 0 0 M1295.45 1558.07 Q1292.11 1558.07 1290.19 1559.85 Q1288.29 1561.63 1288.29 1564.76 Q1288.29 1567.88 1290.19 1569.67 Q1292.11 1571.45 1295.45 1571.45 Q1298.78 1571.45 1300.7 1569.67 Q1302.62 1567.86 1302.62 1564.76 Q1302.62 1561.63 1300.7 1559.85 Q1298.8 1558.07 1295.45 1558.07 M1290.77 1556.08 Q1287.76 1555.34 1286.07 1553.28 Q1284.4 1551.22 1284.4 1548.25 Q1284.4 1544.11 1287.34 1541.7 Q1290.31 1539.29 1295.45 1539.29 Q1300.61 1539.29 1303.55 1541.7 Q1306.49 1544.11 1306.49 1548.25 Q1306.49 1551.22 1304.8 1553.28 Q1303.13 1555.34 1300.14 1556.08 Q1303.52 1556.86 1305.4 1559.16 Q1307.3 1561.45 1307.3 1564.76 Q1307.3 1569.78 1304.22 1572.47 Q1301.16 1575.15 1295.45 1575.15 Q1289.73 1575.15 1286.65 1572.47 Q1283.59 1569.78 1283.59 1564.76 Q1283.59 1561.45 1285.49 1559.16 Q1287.39 1556.86 1290.77 1556.08 M1289.06 1548.69 Q1289.06 1551.38 1290.72 1552.88 Q1292.41 1554.39 1295.45 1554.39 Q1298.45 1554.39 1300.14 1552.88 Q1301.86 1551.38 1301.86 1548.69 Q1301.86 1546.01 1300.14 1544.5 Q1298.45 1543 1295.45 1543 Q1292.41 1543 1290.72 1544.5 Q1289.06 1546.01 1289.06 1548.69 Z" fill="#000000" fill-rule="evenodd" fill-opacity="1" /><path clip-path="url(#clip200)" d="M 0 0 M1697.02 1543 Q1693.41 1543 1691.58 1546.56 Q1689.78 1550.11 1689.78 1557.23 Q1689.78 1564.34 1691.58 1567.91 Q1693.41 1571.45 1697.02 1571.45 Q1700.66 1571.45 1702.46 1567.91 Q1704.29 1564.34 1704.29 1557.23 Q1704.29 1550.11 1702.46 1546.56 Q1700.66 1543 1697.02 1543 M1697.02 1539.29 Q1702.83 1539.29 1705.89 1543.9 Q1708.97 1548.48 1708.97 1557.23 Q1708.97 1565.96 1705.89 1570.57 Q1702.83 1575.15 1697.02 1575.15 Q1691.21 1575.15 1688.13 1570.57 Q1685.08 1565.96 1685.08 1557.23 Q1685.08 1548.48 1688.13 1543.9 Q1691.21 1539.29 1697.02 1539.29 Z" fill="#000000" fill-rule="evenodd" fill-opacity="1" /><path clip-path="url(#clip200)" d="M 0 0 M1714.04 1568.6 L1718.92 1568.6 L1718.92 1574.48 L1714.04 1574.48 L1714.04 1568.6 Z" fill="#000000" fill-rule="evenodd" fill-opacity="1" /><path clip-path="url(#clip200)" d="M 0 0 M1724.8 1570.54 L1732.44 1570.54 L1732.44 1544.18 L1724.13 1545.85 L1724.13 1541.59 L1732.39 1539.92 L1737.07 1539.92 L1737.07 1570.54 L1744.71 1570.54 L1744.71 1574.48 L1724.8 1574.48 L1724.8 1570.54 Z" fill="#000000" fill-rule="evenodd" fill-opacity="1" /><path clip-path="url(#clip200)" d="M 0 0 M1759.78 1543 Q1756.17 1543 1754.34 1546.56 Q1752.53 1550.11 1752.53 1557.23 Q1752.53 1564.34 1754.34 1567.91 Q1756.17 1571.45 1759.78 1571.45 Q1763.41 1571.45 1765.22 1567.91 Q1767.05 1564.34 1767.05 1557.23 Q1767.05 1550.11 1765.22 1546.56 Q1763.41 1543 1759.78 1543 M1759.78 1539.29 Q1765.59 1539.29 1768.64 1543.9 Q1771.72 1548.48 1771.72 1557.23 Q1771.72 1565.96 1768.64 1570.57 Q1765.59 1575.15 1759.78 1575.15 Q1753.97 1575.15 1750.89 1570.57 Q1747.83 1565.96 1747.83 1557.23 Q1747.83 1548.48 1750.89 1543.9 Q1753.97 1539.29 1759.78 1539.29 Z" fill="#000000" fill-rule="evenodd" fill-opacity="1" /><path clip-path="url(#clip200)" d="M 0 0 M2162.81 1543 Q2159.2 1543 2157.37 1546.56 Q2155.57 1550.11 2155.57 1557.23 Q2155.57 1564.34 2157.37 1567.91 Q2159.2 1571.45 2162.81 1571.45 Q2166.45 1571.45 2168.25 1567.91 Q2170.08 1564.34 2170.08 1557.23 Q2170.08 1550.11 2168.25 1546.56 Q2166.45 1543 2162.81 1543 M2162.81 1539.29 Q2168.62 1539.29 2171.68 1543.9 Q2174.76 1548.48 2174.76 1557.23 Q2174.76 1565.96 2171.68 1570.57 Q2168.62 1575.15 2162.81 1575.15 Q2157 1575.15 2153.92 1570.57 Q2150.87 1565.96 2150.87 1557.23 Q2150.87 1548.48 2153.92 1543.9 Q2157 1539.29 2162.81 1539.29 Z" fill="#000000" fill-rule="evenodd" fill-opacity="1" /><path clip-path="url(#clip200)" d="M 0 0 M2179.83 1568.6 L2184.71 1568.6 L2184.71 1574.48 L2179.83 1574.48 L2179.83 1568.6 Z" fill="#000000" fill-rule="evenodd" fill-opacity="1" /><path clip-path="url(#clip200)" d="M 0 0 M2190.59 1570.54 L2198.23 1570.54 L2198.23 1544.18 L2189.92 1545.85 L2189.92 1541.59 L2198.18 1539.92 L2202.86 1539.92 L2202.86 1570.54 L2210.5 1570.54 L2210.5 1574.48 L2190.59 1574.48 L2190.59 1570.54 Z" fill="#000000" fill-rule="evenodd" fill-opacity="1" /><path clip-path="url(#clip200)" d="M 0 0 M2219.59 1570.54 L2235.91 1570.54 L2235.91 1574.48 L2213.97 1574.48 L2213.97 1570.54 Q2216.63 1567.79 2221.21 1563.16 Q2225.82 1558.51 2227 1557.17 Q2229.25 1554.64 2230.13 1552.91 Q2231.03 1551.15 2231.03 1549.46 Q2231.03 1546.7 2229.08 1544.97 Q2227.16 1543.23 2224.06 1543.23 Q2221.86 1543.23 2219.41 1543.99 Q2216.98 1544.76 2214.2 1546.31 L2214.2 1541.59 Q2217.02 1540.45 2219.48 1539.87 Q2221.93 1539.29 2223.97 1539.29 Q2229.34 1539.29 2232.53 1541.98 Q2235.73 1544.67 2235.73 1549.16 Q2235.73 1551.29 2234.92 1553.21 Q2234.13 1555.1 2232.02 1557.7 Q2231.45 1558.37 2228.34 1561.59 Q2225.24 1564.78 2219.59 1570.54 Z" fill="#000000" fill-rule="evenodd" fill-opacity="1" /><path clip-path="url(#clip200)" d="M 0 0 M51.0477 1465.1 Q47.4367 1465.1 45.608 1468.66 Q43.8024 1472.2 43.8024 1479.33 Q43.8024 1486.44 45.608 1490 Q47.4367 1493.55 51.0477 1493.55 Q54.682 1493.55 56.4875 1490 Q58.3162 1486.44 58.3162 1479.33 Q58.3162 1472.2 56.4875 1468.66 Q54.682 1465.1 51.0477 1465.1 M51.0477 1461.39 Q56.8579 1461.39 59.9134 1466 Q62.9921 1470.58 62.9921 1479.33 Q62.9921 1488.06 59.9134 1492.67 Q56.8579 1497.25 51.0477 1497.25 Q45.2376 1497.25 42.1589 1492.67 Q39.1034 1488.06 39.1034 1479.33 Q39.1034 1470.58 42.1589 1466 Q45.2376 1461.39 51.0477 1461.39 Z" fill="#000000" fill-rule="evenodd" fill-opacity="1" /><path clip-path="url(#clip200)" d="M 0 0 M16.0711 1030.46 L23.7099 1030.46 L23.7099 1004.1 L15.3998 1005.76 L15.3998 1001.5 L23.6636 999.838 L28.3395 999.838 L28.3395 1030.46 L35.9784 1030.46 L35.9784 1034.4 L16.0711 1034.4 L16.0711 1030.46 Z" fill="#000000" fill-rule="evenodd" fill-opacity="1" /><path clip-path="url(#clip200)" d="M 0 0 M51.0477 1002.92 Q47.4367 1002.92 45.608 1006.48 Q43.8024 1010.02 43.8024 1017.15 Q43.8024 1024.26 45.608 1027.82 Q47.4367 1031.37 51.0477 1031.37 Q54.682 1031.37 56.4875 1027.82 Q58.3162 1024.26 58.3162 1017.15 Q58.3162 1010.02 56.4875 1006.48 Q54.682 1002.92 51.0477 1002.92 M51.0477 999.213 Q56.8579 999.213 59.9134 1003.82 Q62.9921 1008.4 62.9921 1017.15 Q62.9921 1025.88 59.9134 1030.49 Q56.8579 1035.07 51.0477 1035.07 Q45.2376 1035.07 42.1589 1030.49 Q39.1034 1025.88 39.1034 1017.15 Q39.1034 1008.4 42.1589 1003.82 Q45.2376 999.213 51.0477 999.213 Z" fill="#000000" fill-rule="evenodd" fill-opacity="1" /><path clip-path="url(#clip200)" d="M 0 0 M19.659 568.283 L35.9784 568.283 L35.9784 572.218 L14.0341 572.218 L14.0341 568.283 Q16.6961 565.528 21.2794 560.899 Q25.8858 556.246 27.0664 554.903 Q29.3118 552.38 30.1914 550.644 Q31.0941 548.885 31.0941 547.195 Q31.0941 544.44 29.1497 542.704 Q27.2284 540.968 24.1266 540.968 Q21.9275 540.968 19.4738 541.732 Q17.0433 542.496 14.2655 544.047 L14.2655 539.325 Q17.0896 538.19 19.5433 537.612 Q21.997 537.033 24.034 537.033 Q29.4043 537.033 32.5988 539.718 Q35.7932 542.403 35.7932 546.894 Q35.7932 549.024 34.983 550.945 Q34.196 552.843 32.0895 555.436 Q31.5108 556.107 28.409 559.324 Q25.3071 562.519 19.659 568.283 Z" fill="#000000" fill-rule="evenodd" fill-opacity="1" /><path clip-path="url(#clip200)" d="M 0 0 M51.0477 540.737 Q47.4367 540.737 45.608 544.301 Q43.8024 547.843 43.8024 554.973 Q43.8024 562.079 45.608 565.644 Q47.4367 569.186 51.0477 569.186 Q54.682 569.186 56.4875 565.644 Q58.3162 562.079 58.3162 554.973 Q58.3162 547.843 56.4875 544.301 Q54.682 540.737 51.0477 540.737 M51.0477 537.033 Q56.8579 537.033 59.9134 541.639 Q62.9921 546.223 62.9921 554.973 Q62.9921 563.699 59.9134 568.306 Q56.8579 572.889 51.0477 572.889 Q45.2376 572.889 42.1589 568.306 Q39.1034 563.699 39.1034 554.973 Q39.1034 546.223 42.1589 541.639 Q45.2376 537.033 51.0477 537.033 Z" fill="#000000" fill-rule="evenodd" fill-opacity="1" /><path clip-path="url(#clip200)" d="M 0 0 M28.8488 91.4039 Q32.2053 92.1215 34.0802 94.39 Q35.9784 96.6585 35.9784 99.9918 Q35.9784 105.108 32.4599 107.908 Q28.9414 110.709 22.4599 110.709 Q20.284 110.709 17.9692 110.27 Q15.6776 109.853 13.2239 108.996 L13.2239 104.483 Q15.1683 105.617 17.4831 106.195 Q19.7979 106.774 22.321 106.774 Q26.7192 106.774 29.0108 105.038 Q31.3256 103.302 31.3256 99.9918 Q31.3256 96.9363 29.1729 95.2233 Q27.0432 93.4872 23.2238 93.4872 L19.1961 93.4872 L19.1961 89.6446 L23.409 89.6446 Q26.8581 89.6446 28.6868 88.2789 Q30.5154 86.89 30.5154 84.2975 Q30.5154 81.6354 28.6173 80.2234 Q26.7423 78.7882 23.2238 78.7882 Q21.3025 78.7882 19.1035 79.2049 Q16.9044 79.6215 14.2655 80.5012 L14.2655 76.3345 Q16.9276 75.5938 19.2424 75.2234 Q21.5803 74.8531 23.6405 74.8531 Q28.9645 74.8531 32.0664 77.2836 Q35.1682 79.691 35.1682 83.8113 Q35.1682 86.6817 33.5247 88.6724 Q31.8812 90.64 28.8488 91.4039 Z" fill="#000000" fill-rule="evenodd" fill-opacity="1" /><path clip-path="url(#clip200)" d="M 0 0 M51.0477 78.5567 Q47.4367 78.5567 45.608 82.1215 Q43.8024 85.6632 43.8024 92.7928 Q43.8024 99.8992 45.608 103.464 Q47.4367 107.006 51.0477 107.006 Q54.682 107.006 56.4875 103.464 Q58.3162 99.8992 58.3162 92.7928 Q58.3162 85.6632 56.4875 82.1215 Q54.682 78.5567 51.0477 78.5567 M51.0477 74.8531 Q56.8579 74.8531 59.9134 79.4595 Q62.9921 84.0428 62.9921 92.7928 Q62.9921 101.52 59.9134 106.126 Q56.8579 110.709 51.0477 110.709 Q45.2376 110.709 42.1589 106.126 Q39.1034 101.52 39.1034 92.7928 Q39.1034 84.0428 42.1589 79.4595 Q45.2376 74.8531 51.0477 74.8531 Z" fill="#000000" fill-rule="evenodd" fill-opacity="1" /><path clip-path="url(#clip202)" d="
M151.118 1475.87 L156.977 1475.74 L162.836 1475.62 L168.695 1475.53 L174.554 1475.44 L180.413 1475.35 L186.272 1475.26 L192.131 1475.16 L197.99 1475.03 L203.849 1474.87 
  L209.708 1474.67 L215.567 1474.41 L221.426 1474.1 L227.285 1473.71 L233.144 1473.25 L239.003 1472.71 L244.862 1472.08 L250.721 1471.38 L256.58 1470.6 L262.439 1469.76 
  L268.298 1468.85 L274.157 1467.9 L280.016 1466.93 L285.875 1465.94 L291.734 1464.95 L297.593 1464 L303.452 1463.08 L309.311 1462.22 L315.17 1461.42 L321.029 1460.7 
  L326.888 1460.04 L332.747 1459.44 L338.606 1458.89 L344.465 1458.37 L350.324 1457.84 L356.183 1457.29 L362.042 1456.69 L367.901 1456 L373.76 1455.2 L379.619 1454.25 
  L385.478 1453.14 L391.337 1451.85 L397.196 1450.36 L403.055 1448.66 L408.914 1446.74 L414.773 1444.58 L420.632 1442.18 L426.491 1439.51 L432.35 1436.58 L438.209 1433.36 
  L444.068 1429.84 L449.927 1426.01 L455.786 1421.84 L461.645 1417.34 L467.504 1412.49 L473.363 1407.31 L479.222 1401.79 L485.081 1395.94 L490.94 1389.79 L496.799 1383.37 
  L502.658 1376.68 L508.517 1369.77 L514.376 1362.68 L520.235 1355.43 L526.094 1348.07 L531.953 1340.67 L537.812 1333.27 L543.671 1325.94 L549.53 1318.77 L555.389 1311.81 
  L561.248 1305.17 L567.107 1298.9 L572.966 1293.09 L578.825 1287.78 L584.684 1283.01 L590.543 1278.81 L596.402 1275.15 L602.261 1272.02 L608.12 1269.36 L613.979 1267.1 
  L619.838 1265.14 L625.697 1263.39 L631.556 1261.74 L637.415 1260.08 L643.274 1258.32 L649.133 1256.33 L654.992 1254.03 L660.851 1251.31 L666.71 1248.07 L672.569 1244.2 
  L678.428 1239.6 L684.287 1234.15 L690.146 1227.74 L696.005 1220.28 L701.864 1211.67 L707.723 1201.85 L713.582 1190.78 L719.441 1178.46 L725.3 1164.95 L731.159 1150.34 
  L731.159 1479.3 L725.3 1479.3 L719.441 1479.3 L713.582 1479.3 L707.723 1479.3 L701.864 1479.3 L696.005 1479.3 L690.146 1479.3 L684.287 1479.3 L678.428 1479.3 
  L672.569 1479.3 L666.71 1479.3 L660.851 1479.3 L654.992 1479.3 L649.133 1479.3 L643.274 1479.3 L637.415 1479.3 L631.556 1479.3 L625.697 1479.3 L619.838 1479.3 
  L613.979 1479.3 L608.12 1479.3 L602.261 1479.3 L596.402 1479.3 L590.543 1479.3 L584.684 1479.3 L578.825 1479.3 L572.966 1479.3 L567.107 1479.3 L561.248 1479.3 
  L555.389 1479.3 L549.53 1479.3 L543.671 1479.3 L537.812 1479.3 L531.953 1479.3 L526.094 1479.3 L520.235 1479.3 L514.376 1479.3 L508.517 1479.3 L502.658 1479.3 
  L496.799 1479.3 L490.94 1479.3 L485.081 1479.3 L479.222 1479.3 L473.363 1479.3 L467.504 1479.3 L461.645 1479.3 L455.786 1479.3 L449.927 1479.3 L444.068 1479.3 
  L438.209 1479.3 L432.35 1479.3 L426.491 1479.3 L420.632 1479.3 L414.773 1479.3 L408.914 1479.3 L403.055 1479.3 L397.196 1479.3 L391.337 1479.3 L385.478 1479.3 
  L379.619 1479.3 L373.76 1479.3 L367.901 1479.3 L362.042 1479.3 L356.183 1479.3 L350.324 1479.3 L344.465 1479.3 L338.606 1479.3 L332.747 1479.3 L326.888 1479.3 
  L321.029 1479.3 L315.17 1479.3 L309.311 1479.3 L303.452 1479.3 L297.593 1479.3 L291.734 1479.3 L285.875 1479.3 L280.016 1479.3 L274.157 1479.3 L268.298 1479.3 
  L262.439 1479.3 L256.58 1479.3 L250.721 1479.3 L244.862 1479.3 L239.003 1479.3 L233.144 1479.3 L227.285 1479.3 L221.426 1479.3 L215.567 1479.3 L209.708 1479.3 
  L203.849 1479.3 L197.99 1479.3 L192.131 1479.3 L186.272 1479.3 L180.413 1479.3 L174.554 1479.3 L168.695 1479.3 L162.836 1479.3 L156.977 1479.3 L151.118 1479.3 
   Z
  " fill="#ffa500" fill-rule="evenodd" fill-opacity="0.5"/>
<polyline clip-path="url(#clip202)" style="stroke:#ffa500; stroke-width:4; stroke-opacity:1; fill:none" points="
  151.118,1475.87 156.977,1475.74 162.836,1475.62 168.695,1475.53 174.554,1475.44 180.413,1475.35 186.272,1475.26 192.131,1475.16 197.99,1475.03 203.849,1474.87 
  209.708,1474.67 215.567,1474.41 221.426,1474.1 227.285,1473.71 233.144,1473.25 239.003,1472.71 244.862,1472.08 250.721,1471.38 256.58,1470.6 262.439,1469.76 
  268.298,1468.85 274.157,1467.9 280.016,1466.93 285.875,1465.94 291.734,1464.95 297.593,1464 303.452,1463.08 309.311,1462.22 315.17,1461.42 321.029,1460.7 
  326.888,1460.04 332.747,1459.44 338.606,1458.89 344.465,1458.37 350.324,1457.84 356.183,1457.29 362.042,1456.69 367.901,1456 373.76,1455.2 379.619,1454.25 
  385.478,1453.14 391.337,1451.85 397.196,1450.36 403.055,1448.66 408.914,1446.74 414.773,1444.58 420.632,1442.18 426.491,1439.51 432.35,1436.58 438.209,1433.36 
  444.068,1429.84 449.927,1426.01 455.786,1421.84 461.645,1417.34 467.504,1412.49 473.363,1407.31 479.222,1401.79 485.081,1395.94 490.94,1389.79 496.799,1383.37 
  502.658,1376.68 508.517,1369.77 514.376,1362.68 520.235,1355.43 526.094,1348.07 531.953,1340.67 537.812,1333.27 543.671,1325.94 549.53,1318.77 555.389,1311.81 
  561.248,1305.17 567.107,1298.9 572.966,1293.09 578.825,1287.78 584.684,1283.01 590.543,1278.81 596.402,1275.15 602.261,1272.02 608.12,1269.36 613.979,1267.1 
  619.838,1265.14 625.697,1263.39 631.556,1261.74 637.415,1260.08 643.274,1258.32 649.133,1256.33 654.992,1254.03 660.851,1251.31 666.71,1248.07 672.569,1244.2 
  678.428,1239.6 684.287,1234.15 690.146,1227.74 696.005,1220.28 701.864,1211.67 707.723,1201.85 713.582,1190.78 719.441,1178.46 725.3,1164.95 731.159,1150.34 
  
  "/>
<path clip-path="url(#clip202)" d="
M731.159 1150.34 L742.33 1120.04 L753.5 1087.9 L764.671 1055.82 L775.842 1025.68 L787.013 998.89 L798.184 975.977 L809.354 956.454 L820.525 938.932 L831.696 921.519 
  L842.867 902.348 L854.038 880.097 L865.208 854.289 L876.379 825.316 L887.55 794.19 L898.721 762.15 L909.892 730.311 L921.062 699.476 L932.233 670.154 L943.404 642.72 
  L954.575 617.565 L965.746 595.123 L976.916 575.737 L988.087 559.438 L999.258 545.756 L1010.43 533.7 L1021.6 521.936 L1032.77 509.111 L1043.94 494.195 L1055.11 476.706 
  L1066.28 456.743 L1077.45 434.836 L1088.62 411.678 L1099.8 387.874 L1110.97 363.765 L1122.14 339.399 L1133.31 314.612 L1144.48 289.191 L1155.65 263.047 L1166.82 236.334 
  L1177.99 209.506 L1189.16 183.284 L1200.33 158.563 L1211.5 136.306 L1222.67 117.44 L1233.84 102.798 L1245.02 93.1008 L1256.19 88.9544 L1267.36 90.8319 L1278.53 99.0201 
  L1289.7 113.52 L1300.87 133.929 L1312.04 159.355 L1323.21 188.424 L1334.38 219.419 L1345.55 250.554 L1356.72 280.323 L1367.89 307.811 L1379.06 332.842 L1390.24 355.889 
  L1401.41 377.768 L1412.58 399.226 L1423.75 420.587 L1434.92 441.622 L1446.09 461.672 L1457.26 479.981 L1468.43 496.072 L1479.6 510.031 L1490.77 522.583 L1501.94 534.96 
  L1513.11 548.621 L1524.29 564.925 L1535.46 584.857 L1546.63 608.858 L1557.8 636.786 L1568.97 667.978 L1580.14 701.375 L1591.31 735.661 L1602.48 769.39 L1613.65 801.124 
  L1624.82 829.566 L1635.99 853.746 L1647.16 873.202 L1658.33 888.128 L1669.51 899.406 L1680.68 908.488 L1691.85 917.121 L1703.02 926.987 L1714.19 939.354 L1725.36 954.843 
  L1736.53 973.369 L1747.7 994.253 L1758.87 1016.46 L1770.04 1038.89 L1781.21 1060.62 L1792.38 1081.02 L1803.56 1099.85 L1814.73 1117.15 L1825.9 1133.12 L1837.07 1147.98 
  L1837.07 1479.3 L1825.9 1479.3 L1814.73 1479.3 L1803.56 1479.3 L1792.38 1479.3 L1781.21 1479.3 L1770.04 1479.3 L1758.87 1479.3 L1747.7 1479.3 L1736.53 1479.3 
  L1725.36 1479.3 L1714.19 1479.3 L1703.02 1479.3 L1691.85 1479.3 L1680.68 1479.3 L1669.51 1479.3 L1658.33 1479.3 L1647.16 1479.3 L1635.99 1479.3 L1624.82 1479.3 
  L1613.65 1479.3 L1602.48 1479.3 L1591.31 1479.3 L1580.14 1479.3 L1568.97 1479.3 L1557.8 1479.3 L1546.63 1479.3 L1535.46 1479.3 L1524.29 1479.3 L1513.11 1479.3 
  L1501.94 1479.3 L1490.77 1479.3 L1479.6 1479.3 L1468.43 1479.3 L1457.26 1479.3 L1446.09 1479.3 L1434.92 1479.3 L1423.75 1479.3 L1412.58 1479.3 L1401.41 1479.3 
  L1390.24 1479.3 L1379.06 1479.3 L1367.89 1479.3 L1356.72 1479.3 L1345.55 1479.3 L1334.38 1479.3 L1323.21 1479.3 L1312.04 1479.3 L1300.87 1479.3 L1289.7 1479.3 
  L1278.53 1479.3 L1267.36 1479.3 L1256.19 1479.3 L1245.02 1479.3 L1233.84 1479.3 L1222.67 1479.3 L1211.5 1479.3 L1200.33 1479.3 L1189.16 1479.3 L1177.99 1479.3 
  L1166.82 1479.3 L1155.65 1479.3 L1144.48 1479.3 L1133.31 1479.3 L1122.14 1479.3 L1110.97 1479.3 L1099.8 1479.3 L1088.62 1479.3 L1077.45 1479.3 L1066.28 1479.3 
  L1055.11 1479.3 L1043.94 1479.3 L1032.77 1479.3 L1021.6 1479.3 L1010.43 1479.3 L999.258 1479.3 L988.087 1479.3 L976.916 1479.3 L965.746 1479.3 L954.575 1479.3 
  L943.404 1479.3 L932.233 1479.3 L921.062 1479.3 L909.892 1479.3 L898.721 1479.3 L887.55 1479.3 L876.379 1479.3 L865.208 1479.3 L854.038 1479.3 L842.867 1479.3 
  L831.696 1479.3 L820.525 1479.3 L809.354 1479.3 L798.184 1479.3 L787.013 1479.3 L775.842 1479.3 L764.671 1479.3 L753.5 1479.3 L742.33 1479.3 L731.159 1479.3 
   Z
  " fill="#008000" fill-rule="evenodd" fill-opacity="0.5"/>
<polyline clip-path="url(#clip202)" style="stroke:#008000; stroke-width:4; stroke-opacity:1; fill:none" points="
  731.159,1150.34 742.33,1120.04 753.5,1087.9 764.671,1055.82 775.842,1025.68 787.013,998.89 798.184,975.977 809.354,956.454 820.525,938.932 831.696,921.519 
  842.867,902.348 854.038,880.097 865.208,854.289 876.379,825.316 887.55,794.19 898.721,762.15 909.892,730.311 921.062,699.476 932.233,670.154 943.404,642.72 
  954.575,617.565 965.746,595.123 976.916,575.737 988.087,559.438 999.258,545.756 1010.43,533.7 1021.6,521.936 1032.77,509.111 1043.94,494.195 1055.11,476.706 
  1066.28,456.743 1077.45,434.836 1088.62,411.678 1099.8,387.874 1110.97,363.765 1122.14,339.399 1133.31,314.612 1144.48,289.191 1155.65,263.047 1166.82,236.334 
  1177.99,209.506 1189.16,183.284 1200.33,158.563 1211.5,136.306 1222.67,117.44 1233.84,102.798 1245.02,93.1008 1256.19,88.9544 1267.36,90.8319 1278.53,99.0201 
  1289.7,113.52 1300.87,133.929 1312.04,159.355 1323.21,188.424 1334.38,219.419 1345.55,250.554 1356.72,280.323 1367.89,307.811 1379.06,332.842 1390.24,355.889 
  1401.41,377.768 1412.58,399.226 1423.75,420.587 1434.92,441.622 1446.09,461.672 1457.26,479.981 1468.43,496.072 1479.6,510.031 1490.77,522.583 1501.94,534.96 
  1513.11,548.621 1524.29,564.925 1535.46,584.857 1546.63,608.858 1557.8,636.786 1568.97,667.978 1580.14,701.375 1591.31,735.661 1602.48,769.39 1613.65,801.124 
  1624.82,829.566 1635.99,853.746 1647.16,873.202 1658.33,888.128 1669.51,899.406 1680.68,908.488 1691.85,917.121 1703.02,926.987 1714.19,939.354 1725.36,954.843 
  1736.53,973.369 1747.7,994.253 1758.87,1016.46 1770.04,1038.89 1781.21,1060.62 1792.38,1081.02 1803.56,1099.85 1814.73,1117.15 1825.9,1133.12 1837.07,1147.98 
  
  "/>
<path clip-path="url(#clip202)" d="
M1837.07 1147.98 L1841.63 1153.78 L1846.19 1159.43 L1850.75 1164.92 L1855.31 1170.27 L1859.87 1175.47 L1864.43 1180.52 L1869 1185.4 L1873.56 1190.12 L1878.12 1194.68 
  L1882.68 1199.08 L1887.24 1203.32 L1891.8 1207.41 L1896.36 1211.38 L1900.92 1215.24 L1905.49 1219.02 L1910.05 1222.74 L1914.61 1226.45 L1919.17 1230.18 L1923.73 1233.97 
  L1928.29 1237.84 L1932.85 1241.84 L1937.41 1245.98 L1941.98 1250.3 L1946.54 1254.82 L1951.1 1259.53 L1955.66 1264.44 L1960.22 1269.55 L1964.78 1274.85 L1969.34 1280.31 
  L1973.9 1285.91 L1978.47 1291.63 L1983.03 1297.43 L1987.59 1303.28 L1992.15 1309.16 L1996.71 1315.02 L2001.27 1320.85 L2005.83 1326.62 L2010.39 1332.29 L2014.96 1337.87 
  L2019.52 1343.33 L2024.08 1348.66 L2028.64 1353.84 L2033.2 1358.89 L2037.76 1363.79 L2042.32 1368.54 L2046.88 1373.14 L2051.45 1377.59 L2056.01 1381.89 L2060.57 1386.04 
  L2065.13 1390.05 L2069.69 1393.92 L2074.25 1397.64 L2078.81 1401.22 L2083.37 1404.67 L2087.94 1407.99 L2092.5 1411.19 L2097.06 1414.26 L2101.62 1417.23 L2106.18 1420.09 
  L2110.74 1422.86 L2115.3 1425.55 L2119.86 1428.15 L2124.43 1430.69 L2128.99 1433.16 L2133.55 1435.57 L2138.11 1437.93 L2142.67 1440.23 L2147.23 1442.48 L2151.79 1444.68 
  L2156.35 1446.83 L2160.92 1448.91 L2165.48 1450.93 L2170.04 1452.88 L2174.6 1454.76 L2179.16 1456.56 L2183.72 1458.27 L2188.28 1459.89 L2192.84 1461.43 L2197.41 1462.86 
  L2201.97 1464.21 L2206.53 1465.46 L2211.09 1466.62 L2215.65 1467.69 L2220.21 1468.68 L2224.77 1469.59 L2229.33 1470.42 L2233.9 1471.19 L2238.46 1471.89 L2243.02 1472.53 
  L2247.58 1473.12 L2252.14 1473.66 L2256.7 1474.16 L2261.26 1474.62 L2265.82 1475.04 L2270.39 1475.42 L2274.95 1475.78 L2279.51 1476.11 L2284.07 1476.41 L2288.63 1476.69 
  L2288.63 1479.3 L2284.07 1479.3 L2279.51 1479.3 L2274.95 1479.3 L2270.39 1479.3 L2265.82 1479.3 L2261.26 1479.3 L2256.7 1479.3 L2252.14 1479.3 L2247.58 1479.3 
  L2243.02 1479.3 L2238.46 1479.3 L2233.9 1479.3 L2229.33 1479.3 L2224.77 1479.3 L2220.21 1479.3 L2215.65 1479.3 L2211.09 1479.3 L2206.53 1479.3 L2201.97 1479.3 
  L2197.41 1479.3 L2192.84 1479.3 L2188.28 1479.3 L2183.72 1479.3 L2179.16 1479.3 L2174.6 1479.3 L2170.04 1479.3 L2165.48 1479.3 L2160.92 1479.3 L2156.35 1479.3 
  L2151.79 1479.3 L2147.23 1479.3 L2142.67 1479.3 L2138.11 1479.3 L2133.55 1479.3 L2128.99 1479.3 L2124.43 1479.3 L2119.86 1479.3 L2115.3 1479.3 L2110.74 1479.3 
  L2106.18 1479.3 L2101.62 1479.3 L2097.06 1479.3 L2092.5 1479.3 L2087.94 1479.3 L2083.37 1479.3 L2078.81 1479.3 L2074.25 1479.3 L2069.69 1479.3 L2065.13 1479.3 
  L2060.57 1479.3 L2056.01 1479.3 L2051.45 1479.3 L2046.88 1479.3 L2042.32 1479.3 L2037.76 1479.3 L2033.2 1479.3 L2028.64 1479.3 L2024.08 1479.3 L2019.52 1479.3 
  L2014.96 1479.3 L2010.39 1479.3 L2005.83 1479.3 L2001.27 1479.3 L1996.71 1479.3 L1992.15 1479.3 L1987.59 1479.3 L1983.03 1479.3 L1978.47 1479.3 L1973.9 1479.3 
  L1969.34 1479.3 L1964.78 1479.3 L1960.22 1479.3 L1955.66 1479.3 L1951.1 1479.3 L1946.54 1479.3 L1941.98 1479.3 L1937.41 1479.3 L1932.85 1479.3 L1928.29 1479.3 
  L1923.73 1479.3 L1919.17 1479.3 L1914.61 1479.3 L1910.05 1479.3 L1905.49 1479.3 L1900.92 1479.3 L1896.36 1479.3 L1891.8 1479.3 L1887.24 1479.3 L1882.68 1479.3 
  L1878.12 1479.3 L1873.56 1479.3 L1869 1479.3 L1864.43 1479.3 L1859.87 1479.3 L1855.31 1479.3 L1850.75 1479.3 L1846.19 1479.3 L1841.63 1479.3 L1837.07 1479.3 
   Z
  " fill="#ffa500" fill-rule="evenodd" fill-opacity="0.5"/>
<polyline clip-path="url(#clip202)" style="stroke:#ffa500; stroke-width:4; stroke-opacity:1; fill:none" points="
  1837.07,1147.98 1841.63,1153.78 1846.19,1159.43 1850.75,1164.92 1855.31,1170.27 1859.87,1175.47 1864.43,1180.52 1869,1185.4 1873.56,1190.12 1878.12,1194.68 
  1882.68,1199.08 1887.24,1203.32 1891.8,1207.41 1896.36,1211.38 1900.92,1215.24 1905.49,1219.02 1910.05,1222.74 1914.61,1226.45 1919.17,1230.18 1923.73,1233.97 
  1928.29,1237.84 1932.85,1241.84 1937.41,1245.98 1941.98,1250.3 1946.54,1254.82 1951.1,1259.53 1955.66,1264.44 1960.22,1269.55 1964.78,1274.85 1969.34,1280.31 
  1973.9,1285.91 1978.47,1291.63 1983.03,1297.43 1987.59,1303.28 1992.15,1309.16 1996.71,1315.02 2001.27,1320.85 2005.83,1326.62 2010.39,1332.29 2014.96,1337.87 
  2019.52,1343.33 2024.08,1348.66 2028.64,1353.84 2033.2,1358.89 2037.76,1363.79 2042.32,1368.54 2046.88,1373.14 2051.45,1377.59 2056.01,1381.89 2060.57,1386.04 
  2065.13,1390.05 2069.69,1393.92 2074.25,1397.64 2078.81,1401.22 2083.37,1404.67 2087.94,1407.99 2092.5,1411.19 2097.06,1414.26 2101.62,1417.23 2106.18,1420.09 
  2110.74,1422.86 2115.3,1425.55 2119.86,1428.15 2124.43,1430.69 2128.99,1433.16 2133.55,1435.57 2138.11,1437.93 2142.67,1440.23 2147.23,1442.48 2151.79,1444.68 
  2156.35,1446.83 2160.92,1448.91 2165.48,1450.93 2170.04,1452.88 2174.6,1454.76 2179.16,1456.56 2183.72,1458.27 2188.28,1459.89 2192.84,1461.43 2197.41,1462.86 
  2201.97,1464.21 2206.53,1465.46 2211.09,1466.62 2215.65,1467.69 2220.21,1468.68 2224.77,1469.59 2229.33,1470.42 2233.9,1471.19 2238.46,1471.89 2243.02,1472.53 
  2247.58,1473.12 2252.14,1473.66 2256.7,1474.16 2261.26,1474.62 2265.82,1475.04 2270.39,1475.42 2274.95,1475.78 2279.51,1476.11 2284.07,1476.41 2288.63,1476.69 
  
  "/>
<polyline clip-path="url(#clip202)" style="stroke:#0000ff; stroke-width:4; stroke-opacity:1; fill:none" points="
  1268.93,1479.3 1268.93,91.601 
  "/>
<polyline clip-path="url(#clip202)" style="stroke:#000000; stroke-width:4; stroke-opacity:1; fill:none" points="
  1262.88,1479.3 1262.88,89.3326 
  "/>
<path clip-path="url(#clip200)" d="
M1494.58 459.25 L2277.23 459.25 L2277.23 96.3696 L1494.58 96.3696  Z
  " fill="#ffffff" fill-rule="evenodd" fill-opacity="1"/>
<polyline clip-path="url(#clip200)" style="stroke:#000000; stroke-width:4; stroke-opacity:1; fill:none" points="
  1494.58,459.25 2277.23,459.25 2277.23,96.3696 1494.58,96.3696 1494.58,459.25 
  "/>
<path clip-path="url(#clip200)" d="
M1519.75 181.042 L1670.81 181.042 L1670.81 132.658 L1519.75 132.658 L1519.75 181.042  Z
  " fill="#ffa500" fill-rule="evenodd" fill-opacity="0.5"/>
<polyline clip-path="url(#clip200)" style="stroke:#ffa500; stroke-width:4; stroke-opacity:1; fill:none" points="
  1519.75,132.658 1670.81,132.658 
  "/>
<path clip-path="url(#clip200)" d="M 0 0 M1700.38 161.19 Q1700.38 165.889 1702.3 168.574 Q1704.24 171.236 1707.62 171.236 Q1711 171.236 1712.95 168.574 Q1714.89 165.889 1714.89 161.19 Q1714.89 156.491 1712.95 153.829 Q1711 151.144 1707.62 151.144 Q1704.24 151.144 1702.3 153.829 Q1700.38 156.491 1700.38 161.19 M1714.89 170.241 Q1713.55 172.555 1711.49 173.69 Q1709.45 174.801 1706.58 174.801 Q1701.88 174.801 1698.92 171.051 Q1695.98 167.301 1695.98 161.19 Q1695.98 155.079 1698.92 151.329 Q1701.88 147.579 1706.58 147.579 Q1709.45 147.579 1711.49 148.713 Q1713.55 149.824 1714.89 152.139 L1714.89 148.204 L1719.15 148.204 L1719.15 183.991 L1714.89 183.991 L1714.89 170.241 Z" fill="#000000" fill-rule="evenodd" fill-opacity="1" /><path clip-path="url(#clip200)" d="M 0 0 M1734.22 142.648 Q1730.61 142.648 1728.78 146.213 Q1726.98 149.755 1726.98 156.884 Q1726.98 163.991 1728.78 167.556 Q1730.61 171.097 1734.22 171.097 Q1737.85 171.097 1739.66 167.556 Q1741.49 163.991 1741.49 156.884 Q1741.49 149.755 1739.66 146.213 Q1737.85 142.648 1734.22 142.648 M1734.22 138.945 Q1740.03 138.945 1743.09 143.551 Q1746.17 148.134 1746.17 156.884 Q1746.17 165.611 1743.09 170.218 Q1740.03 174.801 1734.22 174.801 Q1728.41 174.801 1725.33 170.218 Q1722.28 165.611 1722.28 156.884 Q1722.28 148.134 1725.33 143.551 Q1728.41 138.945 1734.22 138.945 Z" fill="#000000" fill-rule="evenodd" fill-opacity="1" /><path clip-path="url(#clip200)" d="M 0 0 M1751.28 139.57 L1769.64 139.57 L1769.64 143.505 L1755.56 143.505 L1755.56 151.977 Q1756.58 151.63 1757.6 151.468 Q1758.62 151.282 1759.64 151.282 Q1765.42 151.282 1768.8 154.454 Q1772.18 157.625 1772.18 163.042 Q1772.18 168.62 1768.71 171.722 Q1765.24 174.801 1758.92 174.801 Q1756.74 174.801 1754.48 174.43 Q1752.23 174.06 1749.82 173.319 L1749.82 168.62 Q1751.91 169.755 1754.13 170.31 Q1756.35 170.866 1758.83 170.866 Q1762.83 170.866 1765.17 168.759 Q1767.51 166.653 1767.51 163.042 Q1767.51 159.431 1765.17 157.324 Q1762.83 155.218 1758.83 155.218 Q1756.95 155.218 1755.08 155.634 Q1753.23 156.051 1751.28 156.931 L1751.28 139.57 Z" fill="#000000" fill-rule="evenodd" fill-opacity="1" /><path clip-path="url(#clip200)" d="
M1519.75 241.522 L1670.81 241.522 L1670.81 193.138 L1519.75 193.138 L1519.75 241.522  Z
  " fill="#008000" fill-rule="evenodd" fill-opacity="0.5"/>
<polyline clip-path="url(#clip200)" style="stroke:#008000; stroke-width:4; stroke-opacity:1; fill:none" points="
  1519.75,193.138 1670.81,193.138 
  "/>
<path clip-path="url(#clip200)" d="M 0 0 M1698.2 233.892 L1698.2 229.633 Q1699.96 230.466 1701.77 230.906 Q1703.57 231.346 1705.31 231.346 Q1709.94 231.346 1712.37 228.244 Q1714.82 225.119 1715.17 218.776 Q1713.83 220.767 1711.77 221.832 Q1709.71 222.897 1707.21 222.897 Q1702.02 222.897 1698.99 219.772 Q1695.98 216.624 1695.98 211.184 Q1695.98 205.86 1699.13 202.642 Q1702.28 199.425 1707.51 199.425 Q1713.5 199.425 1716.65 204.031 Q1719.82 208.614 1719.82 217.364 Q1719.82 225.536 1715.93 230.42 Q1712.07 235.281 1705.52 235.281 Q1703.76 235.281 1701.95 234.934 Q1700.15 234.586 1698.2 233.892 M1707.51 219.239 Q1710.66 219.239 1712.48 217.086 Q1714.34 214.934 1714.34 211.184 Q1714.34 207.457 1712.48 205.304 Q1710.66 203.128 1707.51 203.128 Q1704.36 203.128 1702.51 205.304 Q1700.68 207.457 1700.68 211.184 Q1700.68 214.934 1702.51 217.086 Q1704.36 219.239 1707.51 219.239 Z" fill="#000000" fill-rule="evenodd" fill-opacity="1" /><path clip-path="url(#clip200)" d="M 0 0 M1734.89 203.128 Q1731.28 203.128 1729.45 206.693 Q1727.65 210.235 1727.65 217.364 Q1727.65 224.471 1729.45 228.036 Q1731.28 231.577 1734.89 231.577 Q1738.53 231.577 1740.33 228.036 Q1742.16 224.471 1742.16 217.364 Q1742.16 210.235 1740.33 206.693 Q1738.53 203.128 1734.89 203.128 M1734.89 199.425 Q1740.7 199.425 1743.76 204.031 Q1746.84 208.614 1746.84 217.364 Q1746.84 226.091 1743.76 230.698 Q1740.7 235.281 1734.89 235.281 Q1729.08 235.281 1726 230.698 Q1722.95 226.091 1722.95 217.364 Q1722.95 208.614 1726 204.031 Q1729.08 199.425 1734.89 199.425 Z" fill="#000000" fill-rule="evenodd" fill-opacity="1" /><path clip-path="url(#clip200)" d="M 0 0 M1781.3 219.401 Q1779.29 219.401 1778.13 221.114 Q1777 222.827 1777 225.883 Q1777 228.892 1778.13 230.628 Q1779.29 232.341 1781.3 232.341 Q1783.27 232.341 1784.41 230.628 Q1785.56 228.892 1785.56 225.883 Q1785.56 222.85 1784.41 221.137 Q1783.27 219.401 1781.3 219.401 M1781.3 216.462 Q1784.96 216.462 1787.11 219.008 Q1789.27 221.554 1789.27 225.883 Q1789.27 230.211 1787.09 232.758 Q1784.94 235.281 1781.3 235.281 Q1777.6 235.281 1775.45 232.758 Q1773.29 230.211 1773.29 225.883 Q1773.29 221.531 1775.45 219.008 Q1777.62 216.462 1781.3 216.462 M1757.42 202.364 Q1755.42 202.364 1754.27 204.1 Q1753.13 205.813 1753.13 208.823 Q1753.13 211.878 1754.27 213.591 Q1755.4 215.304 1757.42 215.304 Q1759.43 215.304 1760.56 213.591 Q1761.72 211.878 1761.72 208.823 Q1761.72 205.837 1760.56 204.1 Q1759.41 202.364 1757.42 202.364 M1778.32 199.425 L1782.02 199.425 L1760.4 235.281 L1756.7 235.281 L1778.32 199.425 M1757.42 199.425 Q1761.07 199.425 1763.25 201.971 Q1765.42 204.494 1765.42 208.823 Q1765.42 213.198 1763.25 215.721 Q1761.1 218.244 1757.42 218.244 Q1753.73 218.244 1751.58 215.721 Q1749.45 213.174 1749.45 208.823 Q1749.45 204.517 1751.6 201.971 Q1753.76 199.425 1757.42 199.425 Z" fill="#000000" fill-rule="evenodd" fill-opacity="1" /><path clip-path="url(#clip200)" d="M 0 0 M1830.35 218.961 L1830.35 234.61 L1826.1 234.61 L1826.1 219.1 Q1826.1 215.42 1824.66 213.591 Q1823.22 211.762 1820.35 211.762 Q1816.91 211.762 1814.91 213.962 Q1812.92 216.161 1812.92 219.957 L1812.92 234.61 L1808.64 234.61 L1808.64 208.684 L1812.92 208.684 L1812.92 212.712 Q1814.45 210.374 1816.51 209.216 Q1818.6 208.059 1821.3 208.059 Q1825.77 208.059 1828.06 210.837 Q1830.35 213.591 1830.35 218.961 Z" fill="#000000" fill-rule="evenodd" fill-opacity="1" /><path clip-path="url(#clip200)" d="M 0 0 M1844.87 211.67 Q1841.44 211.67 1839.45 214.355 Q1837.46 217.017 1837.46 221.67 Q1837.46 226.323 1839.43 229.008 Q1841.42 231.67 1844.87 231.67 Q1848.27 231.67 1850.26 228.985 Q1852.25 226.299 1852.25 221.67 Q1852.25 217.063 1850.26 214.378 Q1848.27 211.67 1844.87 211.67 M1844.87 208.059 Q1850.42 208.059 1853.6 211.67 Q1856.77 215.281 1856.77 221.67 Q1856.77 228.036 1853.6 231.67 Q1850.42 235.281 1844.87 235.281 Q1839.29 235.281 1836.12 231.67 Q1832.97 228.036 1832.97 221.67 Q1832.97 215.281 1836.12 211.67 Q1839.29 208.059 1844.87 208.059 Z" fill="#000000" fill-rule="evenodd" fill-opacity="1" /><path clip-path="url(#clip200)" d="M 0 0 M1882.78 218.961 L1882.78 234.61 L1878.53 234.61 L1878.53 219.1 Q1878.53 215.42 1877.09 213.591 Q1875.66 211.762 1872.78 211.762 Q1869.34 211.762 1867.35 213.962 Q1865.35 216.161 1865.35 219.957 L1865.35 234.61 L1861.07 234.61 L1861.07 208.684 L1865.35 208.684 L1865.35 212.712 Q1866.88 210.374 1868.94 209.216 Q1871.03 208.059 1873.73 208.059 Q1878.2 208.059 1880.49 210.837 Q1882.78 213.591 1882.78 218.961 Z" fill="#000000" fill-rule="evenodd" fill-opacity="1" /><path clip-path="url(#clip200)" d="M 0 0 M1885.1 219.725 L1897.58 219.725 L1897.58 223.522 L1885.1 223.522 L1885.1 219.725 Z" fill="#000000" fill-rule="evenodd" fill-opacity="1" /><path clip-path="url(#clip200)" d="M 0 0 M1917.07 212.665 Q1916.35 212.249 1915.49 212.063 Q1914.66 211.855 1913.64 211.855 Q1910.03 211.855 1908.09 214.216 Q1906.16 216.554 1906.16 220.952 L1906.16 234.61 L1901.88 234.61 L1901.88 208.684 L1906.16 208.684 L1906.16 212.712 Q1907.51 210.35 1909.66 209.216 Q1911.81 208.059 1914.89 208.059 Q1915.33 208.059 1915.86 208.128 Q1916.4 208.175 1917.04 208.29 L1917.07 212.665 Z" fill="#000000" fill-rule="evenodd" fill-opacity="1" /><path clip-path="url(#clip200)" d="M 0 0 M1942.67 220.582 L1942.67 222.665 L1923.09 222.665 Q1923.36 227.063 1925.72 229.378 Q1928.11 231.67 1932.34 231.67 Q1934.8 231.67 1937.09 231.068 Q1939.4 230.466 1941.67 229.262 L1941.67 233.29 Q1939.38 234.262 1936.97 234.772 Q1934.57 235.281 1932.09 235.281 Q1925.89 235.281 1922.25 231.67 Q1918.64 228.059 1918.64 221.901 Q1918.64 215.536 1922.07 211.809 Q1925.52 208.059 1931.35 208.059 Q1936.58 208.059 1939.61 211.438 Q1942.67 214.795 1942.67 220.582 M1938.41 219.332 Q1938.36 215.837 1936.44 213.753 Q1934.54 211.67 1931.4 211.67 Q1927.83 211.67 1925.68 213.684 Q1923.55 215.698 1923.22 219.355 L1938.41 219.332 Z" fill="#000000" fill-rule="evenodd" fill-opacity="1" /><path clip-path="url(#clip200)" d="M 0 0 M1947.14 208.684 L1951.4 208.684 L1951.4 235.073 Q1951.4 240.026 1949.5 242.248 Q1947.62 244.471 1943.43 244.471 L1941.81 244.471 L1941.81 240.86 L1942.95 240.86 Q1945.38 240.86 1946.26 239.725 Q1947.14 238.614 1947.14 235.073 L1947.14 208.684 M1947.14 198.591 L1951.4 198.591 L1951.4 203.985 L1947.14 203.985 L1947.14 198.591 Z" fill="#000000" fill-rule="evenodd" fill-opacity="1" /><path clip-path="url(#clip200)" d="M 0 0 M1978.04 220.582 L1978.04 222.665 L1958.46 222.665 Q1958.73 227.063 1961.09 229.378 Q1963.48 231.67 1967.71 231.67 Q1970.17 231.67 1972.46 231.068 Q1974.78 230.466 1977.04 229.262 L1977.04 233.29 Q1974.75 234.262 1972.34 234.772 Q1969.94 235.281 1967.46 235.281 Q1961.26 235.281 1957.62 231.67 Q1954.01 228.059 1954.01 221.901 Q1954.01 215.536 1957.44 211.809 Q1960.89 208.059 1966.72 208.059 Q1971.95 208.059 1974.98 211.438 Q1978.04 214.795 1978.04 220.582 M1973.78 219.332 Q1973.73 215.837 1971.81 213.753 Q1969.91 211.67 1966.77 211.67 Q1963.2 211.67 1961.05 213.684 Q1958.92 215.698 1958.59 219.355 L1973.78 219.332 Z" fill="#000000" fill-rule="evenodd" fill-opacity="1" /><path clip-path="url(#clip200)" d="M 0 0 M2001.16 209.679 L2001.16 213.661 Q1999.36 212.665 1997.53 212.179 Q1995.72 211.67 1993.87 211.67 Q1989.73 211.67 1987.44 214.309 Q1985.15 216.924 1985.15 221.67 Q1985.15 226.415 1987.44 229.054 Q1989.73 231.67 1993.87 231.67 Q1995.72 231.67 1997.53 231.184 Q1999.36 230.674 2001.16 229.679 L2001.16 233.614 Q1999.38 234.448 1997.46 234.864 Q1995.56 235.281 1993.41 235.281 Q1987.55 235.281 1984.1 231.6 Q1980.65 227.92 1980.65 221.67 Q1980.65 215.327 1984.13 211.693 Q1987.62 208.059 1993.69 208.059 Q1995.65 208.059 1997.53 208.475 Q1999.4 208.869 2001.16 209.679 Z" fill="#000000" fill-rule="evenodd" fill-opacity="1" /><path clip-path="url(#clip200)" d="M 0 0 M2009.84 201.323 L2009.84 208.684 L2018.62 208.684 L2018.62 211.994 L2009.84 211.994 L2009.84 226.068 Q2009.84 229.239 2010.7 230.142 Q2011.58 231.045 2014.24 231.045 L2018.62 231.045 L2018.62 234.61 L2014.24 234.61 Q2009.31 234.61 2007.44 232.781 Q2005.56 230.929 2005.56 226.068 L2005.56 211.994 L2002.44 211.994 L2002.44 208.684 L2005.56 208.684 L2005.56 201.323 L2009.84 201.323 Z" fill="#000000" fill-rule="evenodd" fill-opacity="1" /><path clip-path="url(#clip200)" d="M 0 0 M2023.08 208.684 L2027.34 208.684 L2027.34 234.61 L2023.08 234.61 L2023.08 208.684 M2023.08 198.591 L2027.34 198.591 L2027.34 203.985 L2023.08 203.985 L2023.08 198.591 Z" fill="#000000" fill-rule="evenodd" fill-opacity="1" /><path clip-path="url(#clip200)" d="M 0 0 M2041.86 211.67 Q2038.43 211.67 2036.44 214.355 Q2034.45 217.017 2034.45 221.67 Q2034.45 226.323 2036.42 229.008 Q2038.41 231.67 2041.86 231.67 Q2045.26 231.67 2047.25 228.985 Q2049.24 226.299 2049.24 221.67 Q2049.24 217.063 2047.25 214.378 Q2045.26 211.67 2041.86 211.67 M2041.86 208.059 Q2047.41 208.059 2050.58 211.67 Q2053.76 215.281 2053.76 221.67 Q2053.76 228.036 2050.58 231.67 Q2047.41 235.281 2041.86 235.281 Q2036.28 235.281 2033.11 231.67 Q2029.96 228.036 2029.96 221.67 Q2029.96 215.281 2033.11 211.67 Q2036.28 208.059 2041.86 208.059 Z" fill="#000000" fill-rule="evenodd" fill-opacity="1" /><path clip-path="url(#clip200)" d="M 0 0 M2079.77 218.961 L2079.77 234.61 L2075.52 234.61 L2075.52 219.1 Q2075.52 215.42 2074.08 213.591 Q2072.64 211.762 2069.77 211.762 Q2066.33 211.762 2064.33 213.962 Q2062.34 216.161 2062.34 219.957 L2062.34 234.61 L2058.06 234.61 L2058.06 208.684 L2062.34 208.684 L2062.34 212.712 Q2063.87 210.374 2065.93 209.216 Q2068.02 208.059 2070.72 208.059 Q2075.19 208.059 2077.48 210.837 Q2079.77 213.591 2079.77 218.961 Z" fill="#000000" fill-rule="evenodd" fill-opacity="1" /><path clip-path="url(#clip200)" d="M 0 0 M2114.33 212.665 Q2113.62 212.249 2112.76 212.063 Q2111.93 211.855 2110.91 211.855 Q2107.3 211.855 2105.35 214.216 Q2103.43 216.554 2103.43 220.952 L2103.43 234.61 L2099.15 234.61 L2099.15 208.684 L2103.43 208.684 L2103.43 212.712 Q2104.77 210.35 2106.93 209.216 Q2109.08 208.059 2112.16 208.059 Q2112.6 208.059 2113.13 208.128 Q2113.66 208.175 2114.31 208.29 L2114.33 212.665 Z" fill="#000000" fill-rule="evenodd" fill-opacity="1" /><path clip-path="url(#clip200)" d="M 0 0 M2139.94 220.582 L2139.94 222.665 L2120.35 222.665 Q2120.63 227.063 2122.99 229.378 Q2125.38 231.67 2129.61 231.67 Q2132.07 231.67 2134.36 231.068 Q2136.67 230.466 2138.94 229.262 L2138.94 233.29 Q2136.65 234.262 2134.24 234.772 Q2131.83 235.281 2129.36 235.281 Q2123.15 235.281 2119.52 231.67 Q2115.91 228.059 2115.91 221.901 Q2115.91 215.536 2119.33 211.809 Q2122.78 208.059 2128.62 208.059 Q2133.85 208.059 2136.88 211.438 Q2139.94 214.795 2139.94 220.582 M2135.68 219.332 Q2135.63 215.837 2133.71 213.753 Q2131.81 211.67 2128.66 211.67 Q2125.1 211.67 2122.95 213.684 Q2120.82 215.698 2120.49 219.355 L2135.68 219.332 Z" fill="#000000" fill-rule="evenodd" fill-opacity="1" /><path clip-path="url(#clip200)" d="M 0 0 M2161.46 221.346 Q2161.46 216.716 2159.54 214.17 Q2157.64 211.624 2154.2 211.624 Q2150.77 211.624 2148.85 214.17 Q2146.95 216.716 2146.95 221.346 Q2146.95 225.952 2148.85 228.498 Q2150.77 231.045 2154.2 231.045 Q2157.64 231.045 2159.54 228.498 Q2161.46 225.952 2161.46 221.346 M2165.72 231.392 Q2165.72 238.012 2162.78 241.23 Q2159.84 244.471 2153.78 244.471 Q2151.53 244.471 2149.54 244.123 Q2147.55 243.799 2145.68 243.105 L2145.68 238.961 Q2147.55 239.98 2149.38 240.466 Q2151.21 240.952 2153.11 240.952 Q2157.3 240.952 2159.38 238.753 Q2161.46 236.577 2161.46 232.156 L2161.46 230.049 Q2160.14 232.341 2158.08 233.475 Q2156.02 234.61 2153.15 234.61 Q2148.39 234.61 2145.47 230.975 Q2142.55 227.341 2142.55 221.346 Q2142.55 215.327 2145.47 211.693 Q2148.39 208.059 2153.15 208.059 Q2156.02 208.059 2158.08 209.193 Q2160.14 210.327 2161.46 212.619 L2161.46 208.684 L2165.72 208.684 L2165.72 231.392 Z" fill="#000000" fill-rule="evenodd" fill-opacity="1" /><path clip-path="url(#clip200)" d="M 0 0 M2170.19 208.684 L2174.45 208.684 L2174.45 234.61 L2170.19 234.61 L2170.19 208.684 M2170.19 198.591 L2174.45 198.591 L2174.45 203.985 L2170.19 203.985 L2170.19 198.591 Z" fill="#000000" fill-rule="evenodd" fill-opacity="1" /><path clip-path="url(#clip200)" d="M 0 0 M2188.96 211.67 Q2185.54 211.67 2183.55 214.355 Q2181.56 217.017 2181.56 221.67 Q2181.56 226.323 2183.52 229.008 Q2185.51 231.67 2188.96 231.67 Q2192.37 231.67 2194.36 228.985 Q2196.35 226.299 2196.35 221.67 Q2196.35 217.063 2194.36 214.378 Q2192.37 211.67 2188.96 211.67 M2188.96 208.059 Q2194.52 208.059 2197.69 211.67 Q2200.86 215.281 2200.86 221.67 Q2200.86 228.036 2197.69 231.67 Q2194.52 235.281 2188.96 235.281 Q2183.39 235.281 2180.21 231.67 Q2177.07 228.036 2177.07 221.67 Q2177.07 215.281 2180.21 211.67 Q2183.39 208.059 2188.96 208.059 Z" fill="#000000" fill-rule="evenodd" fill-opacity="1" /><path clip-path="url(#clip200)" d="M 0 0 M2226.88 218.961 L2226.88 234.61 L2222.62 234.61 L2222.62 219.1 Q2222.62 215.42 2221.19 213.591 Q2219.75 211.762 2216.88 211.762 Q2213.43 211.762 2211.44 213.962 Q2209.45 216.161 2209.45 219.957 L2209.45 234.61 L2205.17 234.61 L2205.17 208.684 L2209.45 208.684 L2209.45 212.712 Q2210.98 210.374 2213.04 209.216 Q2215.12 208.059 2217.83 208.059 Q2222.3 208.059 2224.59 210.837 Q2226.88 213.591 2226.88 218.961 Z" fill="#000000" fill-rule="evenodd" fill-opacity="1" /><path clip-path="url(#clip200)" d="
M1519.75 302.002 L1670.81 302.002 L1670.81 253.618 L1519.75 253.618 L1519.75 302.002  Z
  " fill="#ffa500" fill-rule="evenodd" fill-opacity="0.5"/>
<polyline clip-path="url(#clip200)" style="stroke:#ffa500; stroke-width:4; stroke-opacity:1; fill:none" points="
  1519.75,253.618 1670.81,253.618 
  "/>
<path clip-path="url(#clip200)" d="M 0 0 M1700.38 282.15 Q1700.38 286.849 1702.3 289.534 Q1704.24 292.196 1707.62 292.196 Q1711 292.196 1712.95 289.534 Q1714.89 286.849 1714.89 282.15 Q1714.89 277.451 1712.95 274.789 Q1711 272.104 1707.62 272.104 Q1704.24 272.104 1702.3 274.789 Q1700.38 277.451 1700.38 282.15 M1714.89 291.201 Q1713.55 293.515 1711.49 294.65 Q1709.45 295.761 1706.58 295.761 Q1701.88 295.761 1698.92 292.011 Q1695.98 288.261 1695.98 282.15 Q1695.98 276.039 1698.92 272.289 Q1701.88 268.539 1706.58 268.539 Q1709.45 268.539 1711.49 269.673 Q1713.55 270.784 1714.89 273.099 L1714.89 269.164 L1719.15 269.164 L1719.15 304.951 L1714.89 304.951 L1714.89 291.201 Z" fill="#000000" fill-rule="evenodd" fill-opacity="1" /><path clip-path="url(#clip200)" d="M 0 0 M1724.36 294.372 L1724.36 290.113 Q1726.12 290.946 1727.92 291.386 Q1729.73 291.826 1731.47 291.826 Q1736.1 291.826 1738.53 288.724 Q1740.98 285.599 1741.33 279.256 Q1739.98 281.247 1737.92 282.312 Q1735.86 283.377 1733.36 283.377 Q1728.18 283.377 1725.15 280.252 Q1722.14 277.104 1722.14 271.664 Q1722.14 266.34 1725.29 263.122 Q1728.43 259.905 1733.67 259.905 Q1739.66 259.905 1742.81 264.511 Q1745.98 269.094 1745.98 277.844 Q1745.98 286.016 1742.09 290.9 Q1738.23 295.761 1731.67 295.761 Q1729.92 295.761 1728.11 295.414 Q1726.3 295.066 1724.36 294.372 M1733.67 279.719 Q1736.81 279.719 1738.64 277.566 Q1740.49 275.414 1740.49 271.664 Q1740.49 267.937 1738.64 265.784 Q1736.81 263.608 1733.67 263.608 Q1730.52 263.608 1728.67 265.784 Q1726.84 267.937 1726.84 271.664 Q1726.84 275.414 1728.67 277.566 Q1730.52 279.719 1733.67 279.719 Z" fill="#000000" fill-rule="evenodd" fill-opacity="1" /><path clip-path="url(#clip200)" d="M 0 0 M1751.1 260.53 L1769.45 260.53 L1769.45 264.465 L1755.38 264.465 L1755.38 272.937 Q1756.4 272.59 1757.42 272.428 Q1758.43 272.242 1759.45 272.242 Q1765.24 272.242 1768.62 275.414 Q1772 278.585 1772 284.002 Q1772 289.58 1768.53 292.682 Q1765.05 295.761 1758.73 295.761 Q1756.56 295.761 1754.29 295.39 Q1752.04 295.02 1749.64 294.279 L1749.64 289.58 Q1751.72 290.715 1753.94 291.27 Q1756.17 291.826 1758.64 291.826 Q1762.65 291.826 1764.98 289.719 Q1767.32 287.613 1767.32 284.002 Q1767.32 280.391 1764.98 278.284 Q1762.65 276.178 1758.64 276.178 Q1756.77 276.178 1754.89 276.594 Q1753.04 277.011 1751.1 277.891 L1751.1 260.53 Z" fill="#000000" fill-rule="evenodd" fill-opacity="1" /><polyline clip-path="url(#clip200)" style="stroke:#0000ff; stroke-width:4; stroke-opacity:1; fill:none" points="
  1519.75,338.29 1670.81,338.29 
  "/>
<path clip-path="url(#clip200)" d="M 0 0 M1716.33 334.621 Q1717.92 331.75 1720.15 330.385 Q1722.37 329.019 1725.38 329.019 Q1729.43 329.019 1731.63 331.866 Q1733.83 334.69 1733.83 339.921 L1733.83 355.57 L1729.54 355.57 L1729.54 340.06 Q1729.54 336.334 1728.23 334.528 Q1726.91 332.722 1724.2 332.722 Q1720.89 332.722 1718.97 334.922 Q1717.04 337.121 1717.04 340.917 L1717.04 355.57 L1712.76 355.57 L1712.76 340.06 Q1712.76 336.31 1711.44 334.528 Q1710.12 332.722 1707.37 332.722 Q1704.11 332.722 1702.18 334.945 Q1700.26 337.144 1700.26 340.917 L1700.26 355.57 L1695.98 355.57 L1695.98 329.644 L1700.26 329.644 L1700.26 333.672 Q1701.72 331.287 1703.76 330.153 Q1705.79 329.019 1708.6 329.019 Q1711.42 329.019 1713.39 330.454 Q1715.38 331.889 1716.33 334.621 Z" fill="#000000" fill-rule="evenodd" fill-opacity="1" /><path clip-path="url(#clip200)" d="M 0 0 M1760.47 341.542 L1760.47 343.625 L1740.89 343.625 Q1741.17 348.023 1743.53 350.338 Q1745.91 352.63 1750.15 352.63 Q1752.6 352.63 1754.89 352.028 Q1757.21 351.426 1759.48 350.222 L1759.48 354.25 Q1757.18 355.222 1754.78 355.732 Q1752.37 356.241 1749.89 356.241 Q1743.69 356.241 1740.05 352.63 Q1736.44 349.019 1736.44 342.861 Q1736.44 336.496 1739.87 332.769 Q1743.32 329.019 1749.15 329.019 Q1754.38 329.019 1757.42 332.398 Q1760.47 335.755 1760.47 341.542 M1756.21 340.292 Q1756.17 336.797 1754.24 334.713 Q1752.35 332.63 1749.2 332.63 Q1745.63 332.63 1743.48 334.644 Q1741.35 336.658 1741.03 340.315 L1756.21 340.292 Z" fill="#000000" fill-rule="evenodd" fill-opacity="1" /><path clip-path="url(#clip200)" d="M 0 0 M1776.72 342.537 Q1771.56 342.537 1769.57 343.718 Q1767.58 344.898 1767.58 347.746 Q1767.58 350.014 1769.06 351.357 Q1770.56 352.676 1773.13 352.676 Q1776.67 352.676 1778.8 350.176 Q1780.96 347.653 1780.96 343.486 L1780.96 342.537 L1776.72 342.537 M1785.22 340.778 L1785.22 355.57 L1780.96 355.57 L1780.96 351.634 Q1779.5 353.995 1777.32 355.13 Q1775.15 356.241 1772 356.241 Q1768.02 356.241 1765.66 354.019 Q1763.32 351.773 1763.32 348.023 Q1763.32 343.648 1766.23 341.426 Q1769.17 339.204 1774.98 339.204 L1780.96 339.204 L1780.96 338.787 Q1780.96 335.847 1779.01 334.25 Q1777.09 332.63 1773.6 332.63 Q1771.37 332.63 1769.27 333.162 Q1767.16 333.695 1765.22 334.759 L1765.22 330.824 Q1767.55 329.922 1769.75 329.482 Q1771.95 329.019 1774.04 329.019 Q1779.66 329.019 1782.44 331.935 Q1785.22 334.852 1785.22 340.778 Z" fill="#000000" fill-rule="evenodd" fill-opacity="1" /><path clip-path="url(#clip200)" d="M 0 0 M1811.23 339.921 L1811.23 355.57 L1806.97 355.57 L1806.97 340.06 Q1806.97 336.38 1805.54 334.551 Q1804.1 332.722 1801.23 332.722 Q1797.79 332.722 1795.79 334.922 Q1793.8 337.121 1793.8 340.917 L1793.8 355.57 L1789.52 355.57 L1789.52 329.644 L1793.8 329.644 L1793.8 333.672 Q1795.33 331.334 1797.39 330.176 Q1799.48 329.019 1802.18 329.019 Q1806.65 329.019 1808.94 331.797 Q1811.23 334.551 1811.23 339.921 Z" fill="#000000" fill-rule="evenodd" fill-opacity="1" /><polyline clip-path="url(#clip200)" style="stroke:#000000; stroke-width:4; stroke-opacity:1; fill:none" points="
  1519.75,398.77 1670.81,398.77 
  "/>
<path clip-path="url(#clip200)" d="M 0 0 M1716.33 395.101 Q1717.92 392.23 1720.15 390.865 Q1722.37 389.499 1725.38 389.499 Q1729.43 389.499 1731.63 392.346 Q1733.83 395.17 1733.83 400.401 L1733.83 416.05 L1729.54 416.05 L1729.54 400.54 Q1729.54 396.814 1728.23 395.008 Q1726.91 393.202 1724.2 393.202 Q1720.89 393.202 1718.97 395.402 Q1717.04 397.601 1717.04 401.397 L1717.04 416.05 L1712.76 416.05 L1712.76 400.54 Q1712.76 396.79 1711.44 395.008 Q1710.12 393.202 1707.37 393.202 Q1704.11 393.202 1702.18 395.425 Q1700.26 397.624 1700.26 401.397 L1700.26 416.05 L1695.98 416.05 L1695.98 390.124 L1700.26 390.124 L1700.26 394.152 Q1701.72 391.767 1703.76 390.633 Q1705.79 389.499 1708.6 389.499 Q1711.42 389.499 1713.39 390.934 Q1715.38 392.369 1716.33 395.101 Z" fill="#000000" fill-rule="evenodd" fill-opacity="1" /><path clip-path="url(#clip200)" d="M 0 0 M1760.47 402.022 L1760.47 404.105 L1740.89 404.105 Q1741.17 408.503 1743.53 410.818 Q1745.91 413.11 1750.15 413.11 Q1752.6 413.11 1754.89 412.508 Q1757.21 411.906 1759.48 410.702 L1759.48 414.73 Q1757.18 415.702 1754.78 416.212 Q1752.37 416.721 1749.89 416.721 Q1743.69 416.721 1740.05 413.11 Q1736.44 409.499 1736.44 403.341 Q1736.44 396.976 1739.87 393.249 Q1743.32 389.499 1749.15 389.499 Q1754.38 389.499 1757.42 392.878 Q1760.47 396.235 1760.47 402.022 M1756.21 400.772 Q1756.17 397.277 1754.24 395.193 Q1752.35 393.11 1749.2 393.11 Q1745.63 393.11 1743.48 395.124 Q1741.35 397.138 1741.03 400.795 L1756.21 400.772 Z" fill="#000000" fill-rule="evenodd" fill-opacity="1" /><path clip-path="url(#clip200)" d="M 0 0 M1782 394.059 L1782 380.031 L1786.26 380.031 L1786.26 416.05 L1782 416.05 L1782 412.161 Q1780.66 414.475 1778.6 415.61 Q1776.56 416.721 1773.69 416.721 Q1768.99 416.721 1766.03 412.971 Q1763.09 409.221 1763.09 403.11 Q1763.09 396.999 1766.03 393.249 Q1768.99 389.499 1773.69 389.499 Q1776.56 389.499 1778.6 390.633 Q1780.66 391.744 1782 394.059 M1767.48 403.11 Q1767.48 407.809 1769.41 410.494 Q1771.35 413.156 1774.73 413.156 Q1778.11 413.156 1780.05 410.494 Q1782 407.809 1782 403.11 Q1782 398.411 1780.05 395.749 Q1778.11 393.064 1774.73 393.064 Q1771.35 393.064 1769.41 395.749 Q1767.48 398.411 1767.48 403.11 Z" fill="#000000" fill-rule="evenodd" fill-opacity="1" /><path clip-path="url(#clip200)" d="M 0 0 M1790.73 390.124 L1794.98 390.124 L1794.98 416.05 L1790.73 416.05 L1790.73 390.124 M1790.73 380.031 L1794.98 380.031 L1794.98 385.425 L1790.73 385.425 L1790.73 380.031 Z" fill="#000000" fill-rule="evenodd" fill-opacity="1" /><path clip-path="url(#clip200)" d="M 0 0 M1811.23 403.017 Q1806.07 403.017 1804.08 404.198 Q1802.09 405.378 1802.09 408.226 Q1802.09 410.494 1803.57 411.837 Q1805.08 413.156 1807.65 413.156 Q1811.19 413.156 1813.32 410.656 Q1815.47 408.133 1815.47 403.966 L1815.47 403.017 L1811.23 403.017 M1819.73 401.258 L1819.73 416.05 L1815.47 416.05 L1815.47 412.114 Q1814.01 414.475 1811.84 415.61 Q1809.66 416.721 1806.51 416.721 Q1802.53 416.721 1800.17 414.499 Q1797.83 412.253 1797.83 408.503 Q1797.83 404.128 1800.75 401.906 Q1803.69 399.684 1809.5 399.684 L1815.47 399.684 L1815.47 399.267 Q1815.47 396.327 1813.53 394.73 Q1811.6 393.11 1808.11 393.11 Q1805.89 393.11 1803.78 393.642 Q1801.67 394.175 1799.73 395.239 L1799.73 391.304 Q1802.07 390.402 1804.27 389.962 Q1806.47 389.499 1808.55 389.499 Q1814.17 389.499 1816.95 392.415 Q1819.73 395.332 1819.73 401.258 Z" fill="#000000" fill-rule="evenodd" fill-opacity="1" /><path clip-path="url(#clip200)" d="M 0 0 M1845.75 400.401 L1845.75 416.05 L1841.49 416.05 L1841.49 400.54 Q1841.49 396.86 1840.05 395.031 Q1838.62 393.202 1835.75 393.202 Q1832.3 393.202 1830.31 395.402 Q1828.32 397.601 1828.32 401.397 L1828.32 416.05 L1824.04 416.05 L1824.04 390.124 L1828.32 390.124 L1828.32 394.152 Q1829.85 391.814 1831.91 390.656 Q1833.99 389.499 1836.7 389.499 Q1841.16 389.499 1843.46 392.277 Q1845.75 395.031 1845.75 400.401 Z" fill="#000000" fill-rule="evenodd" fill-opacity="1" /></svg>
