<?xml version="1.0" encoding="utf-8"?>
<svg xmlns="http://www.w3.org/2000/svg" xmlns:xlink="http://www.w3.org/1999/xlink" width="600" height="400" viewBox="0 0 2400 1600">
<defs>
  <clipPath id="clip020">
    <rect x="0" y="0" width="2400" height="1600"/>
  </clipPath>
</defs>
<path clip-path="url(#clip020)" d="
M0 1600 L2400 1600 L2400 0 L0 0  Z
  " fill="#ffffff" fill-rule="evenodd" fill-opacity="1"/>
<defs>
  <clipPath id="clip021">
    <rect x="480" y="0" width="1681" height="1600"/>
  </clipPath>
</defs>
<path clip-path="url(#clip020)" d="
M86.9921 1521.01 L2352.76 1521.01 L2352.76 47.2441 L86.9921 47.2441  Z
  " fill="#ffffff" fill-rule="evenodd" fill-opacity="1"/>
<defs>
  <clipPath id="clip022">
    <rect x="86" y="47" width="2267" height="1475"/>
  </clipPath>
</defs>
<polyline clip-path="url(#clip022)" style="stroke:#000000; stroke-width:2; stroke-opacity:0.1; fill:none" points="
  150.999,1521.01 150.999,47.2441 
  "/>
<polyline clip-path="url(#clip022)" style="stroke:#000000; stroke-width:2; stroke-opacity:0.1; fill:none" points="
  465.705,1521.01 465.705,47.2441 
  "/>
<polyline clip-path="url(#clip022)" style="stroke:#000000; stroke-width:2; stroke-opacity:0.1; fill:none" points="
  780.41,1521.01 780.41,47.2441 
  "/>
<polyline clip-path="url(#clip022)" style="stroke:#000000; stroke-width:2; stroke-opacity:0.1; fill:none" points="
  1095.12,1521.01 1095.12,47.2441 
  "/>
<polyline clip-path="url(#clip022)" style="stroke:#000000; stroke-width:2; stroke-opacity:0.1; fill:none" points="
  1409.82,1521.01 1409.82,47.2441 
  "/>
<polyline clip-path="url(#clip022)" style="stroke:#000000; stroke-width:2; stroke-opacity:0.1; fill:none" points="
  1724.53,1521.01 1724.53,47.2441 
  "/>
<polyline clip-path="url(#clip022)" style="stroke:#000000; stroke-width:2; stroke-opacity:0.1; fill:none" points="
  2039.23,1521.01 2039.23,47.2441 
  "/>
<polyline clip-path="url(#clip022)" style="stroke:#000000; stroke-width:2; stroke-opacity:0.1; fill:none" points="
  86.9921,1479.3 2352.76,1479.3 
  "/>
<polyline clip-path="url(#clip022)" style="stroke:#000000; stroke-width:2; stroke-opacity:0.1; fill:none" points="
  86.9921,1129.5 2352.76,1129.5 
  "/>
<polyline clip-path="url(#clip022)" style="stroke:#000000; stroke-width:2; stroke-opacity:0.1; fill:none" points="
  86.9921,779.693 2352.76,779.693 
  "/>
<polyline clip-path="url(#clip022)" style="stroke:#000000; stroke-width:2; stroke-opacity:0.1; fill:none" points="
  86.9921,429.891 2352.76,429.891 
  "/>
<polyline clip-path="url(#clip022)" style="stroke:#000000; stroke-width:2; stroke-opacity:0.1; fill:none" points="
  86.9921,80.0881 2352.76,80.0881 
  "/>
<polyline clip-path="url(#clip020)" style="stroke:#000000; stroke-width:4; stroke-opacity:1; fill:none" points="
  86.9921,1521.01 2352.76,1521.01 
  "/>
<polyline clip-path="url(#clip020)" style="stroke:#000000; stroke-width:4; stroke-opacity:1; fill:none" points="
  86.9921,1521.01 86.9921,47.2441 
  "/>
<polyline clip-path="url(#clip020)" style="stroke:#000000; stroke-width:4; stroke-opacity:1; fill:none" points="
  150.999,1521.01 150.999,1503.32 
  "/>
<polyline clip-path="url(#clip020)" style="stroke:#000000; stroke-width:4; stroke-opacity:1; fill:none" points="
  465.705,1521.01 465.705,1503.32 
  "/>
<polyline clip-path="url(#clip020)" style="stroke:#000000; stroke-width:4; stroke-opacity:1; fill:none" points="
  780.41,1521.01 780.41,1503.32 
  "/>
<polyline clip-path="url(#clip020)" style="stroke:#000000; stroke-width:4; stroke-opacity:1; fill:none" points="
  1095.12,1521.01 1095.12,1503.32 
  "/>
<polyline clip-path="url(#clip020)" style="stroke:#000000; stroke-width:4; stroke-opacity:1; fill:none" points="
  1409.82,1521.01 1409.82,1503.32 
  "/>
<polyline clip-path="url(#clip020)" style="stroke:#000000; stroke-width:4; stroke-opacity:1; fill:none" points="
  1724.53,1521.01 1724.53,1503.32 
  "/>
<polyline clip-path="url(#clip020)" style="stroke:#000000; stroke-width:4; stroke-opacity:1; fill:none" points="
  2039.23,1521.01 2039.23,1503.32 
  "/>
<polyline clip-path="url(#clip020)" style="stroke:#000000; stroke-width:4; stroke-opacity:1; fill:none" points="
  86.9921,1479.3 114.181,1479.3 
  "/>
<polyline clip-path="url(#clip020)" style="stroke:#000000; stroke-width:4; stroke-opacity:1; fill:none" points="
  86.9921,1129.5 114.181,1129.5 
  "/>
<polyline clip-path="url(#clip020)" style="stroke:#000000; stroke-width:4; stroke-opacity:1; fill:none" points="
  86.9921,779.693 114.181,779.693 
  "/>
<polyline clip-path="url(#clip020)" style="stroke:#000000; stroke-width:4; stroke-opacity:1; fill:none" points="
  86.9921,429.891 114.181,429.891 
  "/>
<polyline clip-path="url(#clip020)" style="stroke:#000000; stroke-width:4; stroke-opacity:1; fill:none" points="
  86.9921,80.0881 114.181,80.0881 
  "/>
<path clip-path="url(#clip020)" d="M 0 0 M136.763 1555.85 Q140.119 1556.56 141.994 1558.83 Q143.892 1561.1 143.892 1564.43 Q143.892 1569.55 140.374 1572.35 Q136.855 1575.15 130.374 1575.15 Q128.198 1575.15 125.883 1574.71 Q123.592 1574.29 121.138 1573.44 L121.138 1568.92 Q123.082 1570.06 125.397 1570.64 Q127.712 1571.22 130.235 1571.22 Q134.633 1571.22 136.925 1569.48 Q139.24 1567.74 139.24 1564.43 Q139.24 1561.38 137.087 1559.67 Q134.957 1557.93 131.138 1557.93 L127.11 1557.93 L127.11 1554.09 L131.323 1554.09 Q134.772 1554.09 136.601 1552.72 Q138.43 1551.33 138.43 1548.74 Q138.43 1546.08 136.531 1544.67 Q134.656 1543.23 131.138 1543.23 Q129.217 1543.23 127.018 1543.65 Q124.818 1544.06 122.18 1544.94 L122.18 1540.78 Q124.842 1540.04 127.156 1539.67 Q129.494 1539.29 131.555 1539.29 Q136.879 1539.29 139.98 1541.73 Q143.082 1544.13 143.082 1548.25 Q143.082 1551.12 141.439 1553.11 Q139.795 1555.08 136.763 1555.85 Z" fill="#000000" fill-rule="evenodd" fill-opacity="1" /><path clip-path="url(#clip020)" d="M 0 0 M148.962 1568.6 L153.846 1568.6 L153.846 1574.48 L148.962 1574.48 L148.962 1568.6 Z" fill="#000000" fill-rule="evenodd" fill-opacity="1" /><path clip-path="url(#clip020)" d="M 0 0 M168.915 1543 Q165.304 1543 163.476 1546.56 Q161.67 1550.11 161.67 1557.23 Q161.67 1564.34 163.476 1567.91 Q165.304 1571.45 168.915 1571.45 Q172.55 1571.45 174.355 1567.91 Q176.184 1564.34 176.184 1557.23 Q176.184 1550.11 174.355 1546.56 Q172.55 1543 168.915 1543 M168.915 1539.29 Q174.726 1539.29 177.781 1543.9 Q180.86 1548.48 180.86 1557.23 Q180.86 1565.96 177.781 1570.57 Q174.726 1575.15 168.915 1575.15 Q163.105 1575.15 160.027 1570.57 Q156.971 1565.96 156.971 1557.23 Q156.971 1548.48 160.027 1543.9 Q163.105 1539.29 168.915 1539.29 Z" fill="#000000" fill-rule="evenodd" fill-opacity="1" /><path clip-path="url(#clip020)" d="M 0 0 M452.082 1555.85 Q455.438 1556.56 457.313 1558.83 Q459.212 1561.1 459.212 1564.43 Q459.212 1569.55 455.693 1572.35 Q452.175 1575.15 445.693 1575.15 Q443.517 1575.15 441.202 1574.71 Q438.911 1574.29 436.457 1573.44 L436.457 1568.92 Q438.402 1570.06 440.716 1570.64 Q443.031 1571.22 445.554 1571.22 Q449.952 1571.22 452.244 1569.48 Q454.559 1567.74 454.559 1564.43 Q454.559 1561.38 452.406 1559.67 Q450.276 1557.93 446.457 1557.93 L442.429 1557.93 L442.429 1554.09 L446.642 1554.09 Q450.091 1554.09 451.92 1552.72 Q453.749 1551.33 453.749 1548.74 Q453.749 1546.08 451.851 1544.67 Q449.976 1543.23 446.457 1543.23 Q444.536 1543.23 442.337 1543.65 Q440.138 1544.06 437.499 1544.94 L437.499 1540.78 Q440.161 1540.04 442.476 1539.67 Q444.814 1539.29 446.874 1539.29 Q452.198 1539.29 455.3 1541.73 Q458.401 1544.13 458.401 1548.25 Q458.401 1551.12 456.758 1553.11 Q455.114 1555.08 452.082 1555.85 Z" fill="#000000" fill-rule="evenodd" fill-opacity="1" /><path clip-path="url(#clip020)" d="M 0 0 M464.281 1568.6 L469.165 1568.6 L469.165 1574.48 L464.281 1574.48 L464.281 1568.6 Z" fill="#000000" fill-rule="evenodd" fill-opacity="1" /><path clip-path="url(#clip020)" d="M 0 0 M475.045 1570.54 L482.684 1570.54 L482.684 1544.18 L474.374 1545.85 L474.374 1541.59 L482.637 1539.92 L487.313 1539.92 L487.313 1570.54 L494.952 1570.54 L494.952 1574.48 L475.045 1574.48 L475.045 1570.54 Z" fill="#000000" fill-rule="evenodd" fill-opacity="1" /><path clip-path="url(#clip020)" d="M 0 0 M766.973 1555.85 Q770.329 1556.56 772.204 1558.83 Q774.103 1561.1 774.103 1564.43 Q774.103 1569.55 770.584 1572.35 Q767.066 1575.15 760.584 1575.15 Q758.408 1575.15 756.093 1574.71 Q753.802 1574.29 751.348 1573.44 L751.348 1568.92 Q753.292 1570.06 755.607 1570.64 Q757.922 1571.22 760.445 1571.22 Q764.843 1571.22 767.135 1569.48 Q769.45 1567.74 769.45 1564.43 Q769.45 1561.38 767.297 1559.67 Q765.167 1557.93 761.348 1557.93 L757.32 1557.93 L757.32 1554.09 L761.533 1554.09 Q764.982 1554.09 766.811 1552.72 Q768.64 1551.33 768.64 1548.74 Q768.64 1546.08 766.741 1544.67 Q764.866 1543.23 761.348 1543.23 Q759.427 1543.23 757.228 1543.65 Q755.029 1544.06 752.39 1544.94 L752.39 1540.78 Q755.052 1540.04 757.366 1539.67 Q759.704 1539.29 761.765 1539.29 Q767.089 1539.29 770.19 1541.73 Q773.292 1544.13 773.292 1548.25 Q773.292 1551.12 771.649 1553.11 Q770.005 1555.08 766.973 1555.85 Z" fill="#000000" fill-rule="evenodd" fill-opacity="1" /><path clip-path="url(#clip020)" d="M 0 0 M779.172 1568.6 L784.056 1568.6 L784.056 1574.48 L779.172 1574.48 L779.172 1568.6 Z" fill="#000000" fill-rule="evenodd" fill-opacity="1" /><path clip-path="url(#clip020)" d="M 0 0 M793.153 1570.54 L809.473 1570.54 L809.473 1574.48 L787.528 1574.48 L787.528 1570.54 Q790.19 1567.79 794.774 1563.16 Q799.38 1558.51 800.561 1557.17 Q802.806 1554.64 803.686 1552.91 Q804.588 1551.15 804.588 1549.46 Q804.588 1546.7 802.644 1544.97 Q800.723 1543.23 797.621 1543.23 Q795.422 1543.23 792.968 1543.99 Q790.538 1544.76 787.76 1546.31 L787.76 1541.59 Q790.584 1540.45 793.038 1539.87 Q795.491 1539.29 797.528 1539.29 Q802.899 1539.29 806.093 1541.98 Q809.287 1544.67 809.287 1549.16 Q809.287 1551.29 808.477 1553.21 Q807.69 1555.1 805.584 1557.7 Q805.005 1558.37 801.903 1561.59 Q798.801 1564.78 793.153 1570.54 Z" fill="#000000" fill-rule="evenodd" fill-opacity="1" /><path clip-path="url(#clip020)" d="M 0 0 M1081.2 1555.85 Q1084.56 1556.56 1086.44 1558.83 Q1088.33 1561.1 1088.33 1564.43 Q1088.33 1569.55 1084.82 1572.35 Q1081.3 1575.15 1074.82 1575.15 Q1072.64 1575.15 1070.32 1574.71 Q1068.03 1574.29 1065.58 1573.44 L1065.58 1568.92 Q1067.52 1570.06 1069.84 1570.64 Q1072.15 1571.22 1074.68 1571.22 Q1079.07 1571.22 1081.37 1569.48 Q1083.68 1567.74 1083.68 1564.43 Q1083.68 1561.38 1081.53 1559.67 Q1079.4 1557.93 1075.58 1557.93 L1071.55 1557.93 L1071.55 1554.09 L1075.76 1554.09 Q1079.21 1554.09 1081.04 1552.72 Q1082.87 1551.33 1082.87 1548.74 Q1082.87 1546.08 1080.97 1544.67 Q1079.1 1543.23 1075.58 1543.23 Q1073.66 1543.23 1071.46 1543.65 Q1069.26 1544.06 1066.62 1544.94 L1066.62 1540.78 Q1069.28 1540.04 1071.6 1539.67 Q1073.94 1539.29 1076 1539.29 Q1081.32 1539.29 1084.42 1541.73 Q1087.52 1544.13 1087.52 1548.25 Q1087.52 1551.12 1085.88 1553.11 Q1084.24 1555.08 1081.2 1555.85 Z" fill="#000000" fill-rule="evenodd" fill-opacity="1" /><path clip-path="url(#clip020)" d="M 0 0 M1093.4 1568.6 L1098.29 1568.6 L1098.29 1574.48 L1093.4 1574.48 L1093.4 1568.6 Z" fill="#000000" fill-rule="evenodd" fill-opacity="1" /><path clip-path="url(#clip020)" d="M 0 0 M1117.52 1555.85 Q1120.88 1556.56 1122.75 1558.83 Q1124.65 1561.1 1124.65 1564.43 Q1124.65 1569.55 1121.13 1572.35 Q1117.62 1575.15 1111.13 1575.15 Q1108.96 1575.15 1106.64 1574.71 Q1104.35 1574.29 1101.9 1573.44 L1101.9 1568.92 Q1103.84 1570.06 1106.16 1570.64 Q1108.47 1571.22 1111 1571.22 Q1115.39 1571.22 1117.69 1569.48 Q1120 1567.74 1120 1564.43 Q1120 1561.38 1117.85 1559.67 Q1115.72 1557.93 1111.9 1557.93 L1107.87 1557.93 L1107.87 1554.09 L1112.08 1554.09 Q1115.53 1554.09 1117.36 1552.72 Q1119.19 1551.33 1119.19 1548.74 Q1119.19 1546.08 1117.29 1544.67 Q1115.42 1543.23 1111.9 1543.23 Q1109.98 1543.23 1107.78 1543.65 Q1105.58 1544.06 1102.94 1544.94 L1102.94 1540.78 Q1105.6 1540.04 1107.92 1539.67 Q1110.25 1539.29 1112.32 1539.29 Q1117.64 1539.29 1120.74 1541.73 Q1123.84 1544.13 1123.84 1548.25 Q1123.84 1551.12 1122.2 1553.11 Q1120.56 1555.08 1117.52 1555.85 Z" fill="#000000" fill-rule="evenodd" fill-opacity="1" /><path clip-path="url(#clip020)" d="M 0 0 M1395.34 1555.85 Q1398.7 1556.56 1400.57 1558.83 Q1402.47 1561.1 1402.47 1564.43 Q1402.47 1569.55 1398.95 1572.35 Q1395.44 1575.15 1388.95 1575.15 Q1386.78 1575.15 1384.46 1574.71 Q1382.17 1574.29 1379.72 1573.44 L1379.72 1568.92 Q1381.66 1570.06 1383.98 1570.64 Q1386.29 1571.22 1388.81 1571.22 Q1393.21 1571.22 1395.5 1569.48 Q1397.82 1567.74 1397.82 1564.43 Q1397.82 1561.38 1395.67 1559.67 Q1393.54 1557.93 1389.72 1557.93 L1385.69 1557.93 L1385.69 1554.09 L1389.9 1554.09 Q1393.35 1554.09 1395.18 1552.72 Q1397.01 1551.33 1397.01 1548.74 Q1397.01 1546.08 1395.11 1544.67 Q1393.24 1543.23 1389.72 1543.23 Q1387.8 1543.23 1385.6 1543.65 Q1383.4 1544.06 1380.76 1544.94 L1380.76 1540.78 Q1383.42 1540.04 1385.74 1539.67 Q1388.07 1539.29 1390.13 1539.29 Q1395.46 1539.29 1398.56 1541.73 Q1401.66 1544.13 1401.66 1548.25 Q1401.66 1551.12 1400.02 1553.11 Q1398.38 1555.08 1395.34 1555.85 Z" fill="#000000" fill-rule="evenodd" fill-opacity="1" /><path clip-path="url(#clip020)" d="M 0 0 M1407.54 1568.6 L1412.43 1568.6 L1412.43 1574.48 L1407.54 1574.48 L1407.54 1568.6 Z" fill="#000000" fill-rule="evenodd" fill-opacity="1" /><path clip-path="url(#clip020)" d="M 0 0 M1430.34 1543.99 L1418.54 1562.44 L1430.34 1562.44 L1430.34 1543.99 M1429.12 1539.92 L1435 1539.92 L1435 1562.44 L1439.93 1562.44 L1439.93 1566.33 L1435 1566.33 L1435 1574.48 L1430.34 1574.48 L1430.34 1566.33 L1414.74 1566.33 L1414.74 1561.82 L1429.12 1539.92 Z" fill="#000000" fill-rule="evenodd" fill-opacity="1" /><path clip-path="url(#clip020)" d="M 0 0 M1710.79 1555.85 Q1714.15 1556.56 1716.02 1558.83 Q1717.92 1561.1 1717.92 1564.43 Q1717.92 1569.55 1714.4 1572.35 Q1710.88 1575.15 1704.4 1575.15 Q1702.22 1575.15 1699.91 1574.71 Q1697.62 1574.29 1695.16 1573.44 L1695.16 1568.92 Q1697.11 1570.06 1699.42 1570.64 Q1701.74 1571.22 1704.26 1571.22 Q1708.66 1571.22 1710.95 1569.48 Q1713.27 1567.74 1713.27 1564.43 Q1713.27 1561.38 1711.11 1559.67 Q1708.98 1557.93 1705.16 1557.93 L1701.14 1557.93 L1701.14 1554.09 L1705.35 1554.09 Q1708.8 1554.09 1710.63 1552.72 Q1712.46 1551.33 1712.46 1548.74 Q1712.46 1546.08 1710.56 1544.67 Q1708.68 1543.23 1705.16 1543.23 Q1703.24 1543.23 1701.04 1543.65 Q1698.84 1544.06 1696.21 1544.94 L1696.21 1540.78 Q1698.87 1540.04 1701.18 1539.67 Q1703.52 1539.29 1705.58 1539.29 Q1710.9 1539.29 1714.01 1541.73 Q1717.11 1544.13 1717.11 1548.25 Q1717.11 1551.12 1715.47 1553.11 Q1713.82 1555.08 1710.79 1555.85 Z" fill="#000000" fill-rule="evenodd" fill-opacity="1" /><path clip-path="url(#clip020)" d="M 0 0 M1722.99 1568.6 L1727.87 1568.6 L1727.87 1574.48 L1722.99 1574.48 L1722.99 1568.6 Z" fill="#000000" fill-rule="evenodd" fill-opacity="1" /><path clip-path="url(#clip020)" d="M 0 0 M1732.99 1539.92 L1751.34 1539.92 L1751.34 1543.86 L1737.27 1543.86 L1737.27 1552.33 Q1738.29 1551.98 1739.31 1551.82 Q1740.33 1551.63 1741.34 1551.63 Q1747.13 1551.63 1750.51 1554.8 Q1753.89 1557.98 1753.89 1563.39 Q1753.89 1568.97 1750.42 1572.07 Q1746.95 1575.15 1740.63 1575.15 Q1738.45 1575.15 1736.18 1574.78 Q1733.94 1574.41 1731.53 1573.67 L1731.53 1568.97 Q1733.61 1570.1 1735.84 1570.66 Q1738.06 1571.22 1740.53 1571.22 Q1744.54 1571.22 1746.88 1569.11 Q1749.21 1567 1749.21 1563.39 Q1749.21 1559.78 1746.88 1557.67 Q1744.54 1555.57 1740.53 1555.57 Q1738.66 1555.57 1736.78 1555.98 Q1734.93 1556.4 1732.99 1557.28 L1732.99 1539.92 Z" fill="#000000" fill-rule="evenodd" fill-opacity="1" /><path clip-path="url(#clip020)" d="M 0 0 M2024.92 1555.85 Q2028.27 1556.56 2030.15 1558.83 Q2032.05 1561.1 2032.05 1564.43 Q2032.05 1569.55 2028.53 1572.35 Q2025.01 1575.15 2018.53 1575.15 Q2016.35 1575.15 2014.04 1574.71 Q2011.74 1574.29 2009.29 1573.44 L2009.29 1568.92 Q2011.24 1570.06 2013.55 1570.64 Q2015.87 1571.22 2018.39 1571.22 Q2022.79 1571.22 2025.08 1569.48 Q2027.39 1567.74 2027.39 1564.43 Q2027.39 1561.38 2025.24 1559.67 Q2023.11 1557.93 2019.29 1557.93 L2015.26 1557.93 L2015.26 1554.09 L2019.48 1554.09 Q2022.93 1554.09 2024.75 1552.72 Q2026.58 1551.33 2026.58 1548.74 Q2026.58 1546.08 2024.68 1544.67 Q2022.81 1543.23 2019.29 1543.23 Q2017.37 1543.23 2015.17 1543.65 Q2012.97 1544.06 2010.33 1544.94 L2010.33 1540.78 Q2012.99 1540.04 2015.31 1539.67 Q2017.65 1539.29 2019.71 1539.29 Q2025.03 1539.29 2028.13 1541.73 Q2031.24 1544.13 2031.24 1548.25 Q2031.24 1551.12 2029.59 1553.11 Q2027.95 1555.08 2024.92 1555.85 Z" fill="#000000" fill-rule="evenodd" fill-opacity="1" /><path clip-path="url(#clip020)" d="M 0 0 M2037.12 1568.6 L2042 1568.6 L2042 1574.48 L2037.12 1574.48 L2037.12 1568.6 Z" fill="#000000" fill-rule="evenodd" fill-opacity="1" /><path clip-path="url(#clip020)" d="M 0 0 M2057.65 1555.34 Q2054.5 1555.34 2052.65 1557.49 Q2050.82 1559.64 2050.82 1563.39 Q2050.82 1567.12 2052.65 1569.29 Q2054.5 1571.45 2057.65 1571.45 Q2060.8 1571.45 2062.62 1569.29 Q2064.48 1567.12 2064.48 1563.39 Q2064.48 1559.64 2062.62 1557.49 Q2060.8 1555.34 2057.65 1555.34 M2066.93 1540.68 L2066.93 1544.94 Q2065.17 1544.11 2063.37 1543.67 Q2061.58 1543.23 2059.82 1543.23 Q2055.19 1543.23 2052.74 1546.36 Q2050.31 1549.48 2049.96 1555.8 Q2051.33 1553.79 2053.39 1552.72 Q2055.45 1551.63 2057.93 1551.63 Q2063.13 1551.63 2066.14 1554.8 Q2069.18 1557.95 2069.18 1563.39 Q2069.18 1568.72 2066.03 1571.93 Q2062.88 1575.15 2057.65 1575.15 Q2051.65 1575.15 2048.48 1570.57 Q2045.31 1565.96 2045.31 1557.23 Q2045.31 1549.04 2049.2 1544.18 Q2053.09 1539.29 2059.64 1539.29 Q2061.4 1539.29 2063.18 1539.64 Q2064.99 1539.99 2066.93 1540.68 Z" fill="#000000" fill-rule="evenodd" fill-opacity="1" /><path clip-path="url(#clip020)" d="M 0 0 M51.0477 1465.1 Q47.4367 1465.1 45.608 1468.66 Q43.8024 1472.2 43.8024 1479.33 Q43.8024 1486.44 45.608 1490 Q47.4367 1493.55 51.0477 1493.55 Q54.682 1493.55 56.4875 1490 Q58.3162 1486.44 58.3162 1479.33 Q58.3162 1472.2 56.4875 1468.66 Q54.682 1465.1 51.0477 1465.1 M51.0477 1461.39 Q56.8579 1461.39 59.9134 1466 Q62.9921 1470.58 62.9921 1479.33 Q62.9921 1488.06 59.9134 1492.67 Q56.8579 1497.25 51.0477 1497.25 Q45.2376 1497.25 42.1589 1492.67 Q39.1034 1488.06 39.1034 1479.33 Q39.1034 1470.58 42.1589 1466 Q45.2376 1461.39 51.0477 1461.39 Z" fill="#000000" fill-rule="evenodd" fill-opacity="1" /><path clip-path="url(#clip020)" d="M 0 0 M43.0848 1142.84 L50.7237 1142.84 L50.7237 1116.47 L42.4135 1118.14 L42.4135 1113.88 L50.6774 1112.22 L55.3533 1112.22 L55.3533 1142.84 L62.9921 1142.84 L62.9921 1146.78 L43.0848 1146.78 L43.0848 1142.84 Z" fill="#000000" fill-rule="evenodd" fill-opacity="1" /><path clip-path="url(#clip020)" d="M 0 0 M46.6728 793.038 L62.9921 793.038 L62.9921 796.973 L41.0478 796.973 L41.0478 793.038 Q43.7098 790.283 48.2931 785.653 Q52.8996 781.001 54.0801 779.658 Q56.3255 777.135 57.2051 775.399 Q58.1079 773.64 58.1079 771.95 Q58.1079 769.195 56.1635 767.459 Q54.2422 765.723 51.1403 765.723 Q48.9413 765.723 46.4876 766.487 Q44.057 767.251 41.2793 768.802 L41.2793 764.08 Q44.1033 762.945 46.557 762.367 Q49.0107 761.788 51.0477 761.788 Q56.4181 761.788 59.6125 764.473 Q62.8069 767.158 62.8069 771.649 Q62.8069 773.779 61.9968 775.7 Q61.2097 777.598 59.1033 780.191 Q58.5246 780.862 55.4227 784.079 Q52.3209 787.274 46.6728 793.038 Z" fill="#000000" fill-rule="evenodd" fill-opacity="1" /><path clip-path="url(#clip020)" d="M 0 0 M55.8625 428.536 Q59.219 429.254 61.094 431.522 Q62.9921 433.791 62.9921 437.124 Q62.9921 442.24 59.4736 445.041 Q55.9551 447.842 49.4737 447.842 Q47.2978 447.842 44.983 447.402 Q42.6913 446.985 40.2376 446.129 L40.2376 441.615 Q42.1821 442.749 44.4969 443.328 Q46.8117 443.907 49.3348 443.907 Q53.7329 443.907 56.0246 442.171 Q58.3394 440.434 58.3394 437.124 Q58.3394 434.069 56.1866 432.356 Q54.057 430.62 50.2376 430.62 L46.2098 430.62 L46.2098 426.777 L50.4227 426.777 Q53.8718 426.777 55.7005 425.411 Q57.5292 424.022 57.5292 421.43 Q57.5292 418.768 55.6311 417.356 Q53.7561 415.921 50.2376 415.921 Q48.3163 415.921 46.1172 416.337 Q43.9182 416.754 41.2793 417.634 L41.2793 413.467 Q43.9413 412.726 46.2561 412.356 Q48.5941 411.986 50.6542 411.986 Q55.9783 411.986 59.0801 414.416 Q62.1819 416.823 62.1819 420.944 Q62.1819 423.814 60.5384 425.805 Q58.8949 427.772 55.8625 428.536 Z" fill="#000000" fill-rule="evenodd" fill-opacity="1" /><path clip-path="url(#clip020)" d="M 0 0 M53.4088 66.8822 L41.6034 85.3312 L53.4088 85.3312 L53.4088 66.8822 M52.182 62.8081 L58.0616 62.8081 L58.0616 85.3312 L62.9921 85.3312 L62.9921 89.22 L58.0616 89.22 L58.0616 97.3681 L53.4088 97.3681 L53.4088 89.22 L37.8071 89.22 L37.8071 84.7062 L52.182 62.8081 Z" fill="#000000" fill-rule="evenodd" fill-opacity="1" /><path clip-path="url(#clip022)" d="
M151.118 884.647 L151.686 879.607 L152.255 874.556 L152.824 869.493 L153.393 864.419 L153.961 859.335 L154.53 854.24 L155.099 849.136 L155.668 844.022 L156.236 838.899 
  L156.805 833.768 L157.374 828.628 L157.943 823.48 L158.511 818.324 L159.08 813.161 L159.649 807.992 L160.218 802.815 L160.787 797.633 L161.355 792.445 L161.924 787.251 
  L162.493 782.053 L163.062 776.85 L163.63 771.642 L164.199 766.431 L164.768 761.216 L165.337 755.998 L165.905 750.778 L166.474 745.555 L167.043 740.33 L167.612 735.104 
  L168.18 729.877 L168.749 724.649 L169.318 719.421 L169.887 714.193 L170.455 708.965 L171.024 703.738 L171.593 698.513 L172.162 693.289 L172.731 688.067 L173.299 682.848 
  L173.868 677.631 L174.437 672.418 L175.006 667.209 L175.574 662.004 L176.143 656.803 L176.712 651.607 L177.281 646.416 L177.849 641.231 L178.418 636.053 L178.987 630.88 
  L179.556 625.715 L180.124 620.557 L180.693 615.406 L181.262 610.264 L181.831 605.13 L182.4 600.005 L182.968 594.89 L183.537 589.784 L184.106 584.688 L184.675 579.603 
  L185.243 574.528 L185.812 569.465 L186.381 564.413 L186.95 559.374 L187.518 554.347 L188.087 549.333 L188.656 544.332 L189.225 539.344 L189.793 534.371 L190.362 529.412 
  L190.931 524.468 L191.5 519.538 L192.069 514.625 L192.637 509.727 L193.206 504.845 L193.775 499.98 L194.344 495.132 L194.912 490.301 L195.481 485.488 L196.05 480.693 
  L196.619 475.917 L197.187 471.159 L197.756 466.421 L198.325 461.701 L198.894 457.002 L199.462 452.323 L200.031 447.664 L200.6 443.026 L201.169 438.41 L201.738 433.815 
  L202.306 429.241 L202.875 424.69 L203.444 420.162 L204.013 415.656 L204.581 411.173 L205.15 406.714 L205.719 402.279 L206.288 397.867 L206.856 393.48 L207.425 389.118 
  L207.425 1479.3 L206.856 1479.3 L206.288 1479.3 L205.719 1479.3 L205.15 1479.3 L204.581 1479.3 L204.013 1479.3 L203.444 1479.3 L202.875 1479.3 L202.306 1479.3 
  L201.738 1479.3 L201.169 1479.3 L200.6 1479.3 L200.031 1479.3 L199.462 1479.3 L198.894 1479.3 L198.325 1479.3 L197.756 1479.3 L197.187 1479.3 L196.619 1479.3 
  L196.05 1479.3 L195.481 1479.3 L194.912 1479.3 L194.344 1479.3 L193.775 1479.3 L193.206 1479.3 L192.637 1479.3 L192.069 1479.3 L191.5 1479.3 L190.931 1479.3 
  L190.362 1479.3 L189.793 1479.3 L189.225 1479.3 L188.656 1479.3 L188.087 1479.3 L187.518 1479.3 L186.95 1479.3 L186.381 1479.3 L185.812 1479.3 L185.243 1479.3 
  L184.675 1479.3 L184.106 1479.3 L183.537 1479.3 L182.968 1479.3 L182.4 1479.3 L181.831 1479.3 L181.262 1479.3 L180.693 1479.3 L180.124 1479.3 L179.556 1479.3 
  L178.987 1479.3 L178.418 1479.3 L177.849 1479.3 L177.281 1479.3 L176.712 1479.3 L176.143 1479.3 L175.574 1479.3 L175.006 1479.3 L174.437 1479.3 L173.868 1479.3 
  L173.299 1479.3 L172.731 1479.3 L172.162 1479.3 L171.593 1479.3 L171.024 1479.3 L170.455 1479.3 L169.887 1479.3 L169.318 1479.3 L168.749 1479.3 L168.18 1479.3 
  L167.612 1479.3 L167.043 1479.3 L166.474 1479.3 L165.905 1479.3 L165.337 1479.3 L164.768 1479.3 L164.199 1479.3 L163.63 1479.3 L163.062 1479.3 L162.493 1479.3 
  L161.924 1479.3 L161.355 1479.3 L160.787 1479.3 L160.218 1479.3 L159.649 1479.3 L159.08 1479.3 L158.511 1479.3 L157.943 1479.3 L157.374 1479.3 L156.805 1479.3 
  L156.236 1479.3 L155.668 1479.3 L155.099 1479.3 L154.53 1479.3 L153.961 1479.3 L153.393 1479.3 L152.824 1479.3 L152.255 1479.3 L151.686 1479.3 L151.118 1479.3 
   Z
  " fill="#ffa500" fill-rule="evenodd" fill-opacity="0.5"/>
<polyline clip-path="url(#clip022)" style="stroke:#ffa500; stroke-width:4; stroke-opacity:1; fill:none" points="
  151.118,884.647 151.686,879.607 152.255,874.556 152.824,869.493 153.393,864.419 153.961,859.335 154.53,854.24 155.099,849.136 155.668,844.022 156.236,838.899 
  156.805,833.768 157.374,828.628 157.943,823.48 158.511,818.324 159.08,813.161 159.649,807.992 160.218,802.815 160.787,797.633 161.355,792.445 161.924,787.251 
  162.493,782.053 163.062,776.85 163.63,771.642 164.199,766.431 164.768,761.216 165.337,755.998 165.905,750.778 166.474,745.555 167.043,740.33 167.612,735.104 
  168.18,729.877 168.749,724.649 169.318,719.421 169.887,714.193 170.455,708.965 171.024,703.738 171.593,698.513 172.162,693.289 172.731,688.067 173.299,682.848 
  173.868,677.631 174.437,672.418 175.006,667.209 175.574,662.004 176.143,656.803 176.712,651.607 177.281,646.416 177.849,641.231 178.418,636.053 178.987,630.88 
  179.556,625.715 180.124,620.557 180.693,615.406 181.262,610.264 181.831,605.13 182.4,600.005 182.968,594.89 183.537,589.784 184.106,584.688 184.675,579.603 
  185.243,574.528 185.812,569.465 186.381,564.413 186.95,559.374 187.518,554.347 188.087,549.333 188.656,544.332 189.225,539.344 189.793,534.371 190.362,529.412 
  190.931,524.468 191.5,519.538 192.069,514.625 192.637,509.727 193.206,504.845 193.775,499.98 194.344,495.132 194.912,490.301 195.481,485.488 196.05,480.693 
  196.619,475.917 197.187,471.159 197.756,466.421 198.325,461.701 198.894,457.002 199.462,452.323 200.031,447.664 200.6,443.026 201.169,438.41 201.738,433.815 
  202.306,429.241 202.875,424.69 203.444,420.162 204.013,415.656 204.581,411.173 205.15,406.714 205.719,402.279 206.288,397.867 206.856,393.48 207.425,389.118 
  
  "/>
<path clip-path="url(#clip022)" d="
M207.425 389.118 L220.663 295.213 L233.901 217.865 L247.139 158.871 L260.377 118.589 L273.615 96.0029 L286.853 88.9544 L300.091 94.5224 L313.329 109.465 L326.567 130.653 
  L339.805 155.417 L353.043 181.764 L366.281 208.443 L379.519 234.874 L392.757 260.995 L405.995 287.056 L419.233 313.422 L432.471 340.414 L445.709 368.194 L458.947 396.705 
  L472.185 425.647 L485.422 454.498 L498.66 482.571 L511.898 509.116 L525.136 533.463 L538.374 555.173 L551.612 574.175 L564.85 590.832 L578.088 605.915 L591.326 620.457 
  L604.564 635.54 L617.802 652.058 L631.04 670.526 L644.278 690.991 L657.516 713.054 L670.754 735.984 L683.992 758.865 L697.23 780.735 L710.468 800.683 L723.706 817.897 
  L736.944 831.691 L750.182 841.526 L763.42 847.039 L776.658 848.089 L789.896 844.778 L803.134 837.47 L816.372 826.767 L829.61 813.48 L842.848 798.589 L856.086 783.215 
  L869.324 768.583 L882.562 755.964 L895.8 746.578 L909.037 741.457 L922.275 741.283 L935.513 746.251 L948.751 756.011 L961.989 769.711 L975.227 786.151 L988.465 804.007 
  L1001.7 822.059 L1014.94 839.365 L1028.18 855.34 L1041.42 869.74 L1054.66 882.576 L1067.89 894.009 L1081.13 904.264 L1094.37 913.579 L1107.61 922.204 L1120.84 930.396 
  L1134.08 938.433 L1147.32 946.596 L1160.56 955.148 L1173.8 964.315 L1187.03 974.263 L1200.27 985.092 L1213.51 996.827 L1226.75 1009.41 L1239.99 1022.67 L1253.22 1036.33 
  L1266.46 1049.99 L1279.7 1063.17 L1292.94 1075.38 L1306.18 1086.16 L1319.41 1095.2 L1332.65 1102.38 L1345.89 1107.82 L1359.13 1111.82 L1372.37 1114.87 L1385.6 1117.58 
  L1398.84 1120.59 L1412.08 1124.56 L1425.32 1130.06 L1438.56 1137.53 L1451.79 1147.23 L1465.03 1159.17 L1478.27 1173.11 L1491.51 1188.54 L1504.75 1204.82 L1517.98 1221.22 
  L1517.98 1479.3 L1504.75 1479.3 L1491.51 1479.3 L1478.27 1479.3 L1465.03 1479.3 L1451.79 1479.3 L1438.56 1479.3 L1425.32 1479.3 L1412.08 1479.3 L1398.84 1479.3 
  L1385.6 1479.3 L1372.37 1479.3 L1359.13 1479.3 L1345.89 1479.3 L1332.65 1479.3 L1319.41 1479.3 L1306.18 1479.3 L1292.94 1479.3 L1279.7 1479.3 L1266.46 1479.3 
  L1253.22 1479.3 L1239.99 1479.3 L1226.75 1479.3 L1213.51 1479.3 L1200.27 1479.3 L1187.03 1479.3 L1173.8 1479.3 L1160.56 1479.3 L1147.32 1479.3 L1134.08 1479.3 
  L1120.84 1479.3 L1107.61 1479.3 L1094.37 1479.3 L1081.13 1479.3 L1067.89 1479.3 L1054.66 1479.3 L1041.42 1479.3 L1028.18 1479.3 L1014.94 1479.3 L1001.7 1479.3 
  L988.465 1479.3 L975.227 1479.3 L961.989 1479.3 L948.751 1479.3 L935.513 1479.3 L922.275 1479.3 L909.037 1479.3 L895.8 1479.3 L882.562 1479.3 L869.324 1479.3 
  L856.086 1479.3 L842.848 1479.3 L829.61 1479.3 L816.372 1479.3 L803.134 1479.3 L789.896 1479.3 L776.658 1479.3 L763.42 1479.3 L750.182 1479.3 L736.944 1479.3 
  L723.706 1479.3 L710.468 1479.3 L697.23 1479.3 L683.992 1479.3 L670.754 1479.3 L657.516 1479.3 L644.278 1479.3 L631.04 1479.3 L617.802 1479.3 L604.564 1479.3 
  L591.326 1479.3 L578.088 1479.3 L564.85 1479.3 L551.612 1479.3 L538.374 1479.3 L525.136 1479.3 L511.898 1479.3 L498.66 1479.3 L485.422 1479.3 L472.185 1479.3 
  L458.947 1479.3 L445.709 1479.3 L432.471 1479.3 L419.233 1479.3 L405.995 1479.3 L392.757 1479.3 L379.519 1479.3 L366.281 1479.3 L353.043 1479.3 L339.805 1479.3 
  L326.567 1479.3 L313.329 1479.3 L300.091 1479.3 L286.853 1479.3 L273.615 1479.3 L260.377 1479.3 L247.139 1479.3 L233.901 1479.3 L220.663 1479.3 L207.425 1479.3 
   Z
  " fill="#008000" fill-rule="evenodd" fill-opacity="0.5"/>
<polyline clip-path="url(#clip022)" style="stroke:#008000; stroke-width:4; stroke-opacity:1; fill:none" points="
  207.425,389.118 220.663,295.213 233.901,217.865 247.139,158.871 260.377,118.589 273.615,96.0029 286.853,88.9544 300.091,94.5224 313.329,109.465 326.567,130.653 
  339.805,155.417 353.043,181.764 366.281,208.443 379.519,234.874 392.757,260.995 405.995,287.056 419.233,313.422 432.471,340.414 445.709,368.194 458.947,396.705 
  472.185,425.647 485.422,454.498 498.66,482.571 511.898,509.116 525.136,533.463 538.374,555.173 551.612,574.175 564.85,590.832 578.088,605.915 591.326,620.457 
  604.564,635.54 617.802,652.058 631.04,670.526 644.278,690.991 657.516,713.054 670.754,735.984 683.992,758.865 697.23,780.735 710.468,800.683 723.706,817.897 
  736.944,831.691 750.182,841.526 763.42,847.039 776.658,848.089 789.896,844.778 803.134,837.47 816.372,826.767 829.61,813.48 842.848,798.589 856.086,783.215 
  869.324,768.583 882.562,755.964 895.8,746.578 909.037,741.457 922.275,741.283 935.513,746.251 948.751,756.011 961.989,769.711 975.227,786.151 988.465,804.007 
  1001.7,822.059 1014.94,839.365 1028.18,855.34 1041.42,869.74 1054.66,882.576 1067.89,894.009 1081.13,904.264 1094.37,913.579 1107.61,922.204 1120.84,930.396 
  1134.08,938.433 1147.32,946.596 1160.56,955.148 1173.8,964.315 1187.03,974.263 1200.27,985.092 1213.51,996.827 1226.75,1009.41 1239.99,1022.67 1253.22,1036.33 
  1266.46,1049.99 1279.7,1063.17 1292.94,1075.38 1306.18,1086.16 1319.41,1095.2 1332.65,1102.38 1345.89,1107.82 1359.13,1111.82 1372.37,1114.87 1385.6,1117.58 
  1398.84,1120.59 1412.08,1124.56 1425.32,1130.06 1438.56,1137.53 1451.79,1147.23 1465.03,1159.17 1478.27,1173.11 1491.51,1188.54 1504.75,1204.82 1517.98,1221.22 
  
  "/>
<path clip-path="url(#clip022)" d="
M1517.98 1221.22 L1525.77 1230.62 L1533.55 1239.71 L1541.34 1248.39 L1549.12 1256.6 L1556.91 1264.3 L1564.69 1271.49 L1572.47 1278.2 L1580.26 1284.47 L1588.04 1290.38 
  L1595.83 1295.99 L1603.61 1301.39 L1611.4 1306.66 L1619.18 1311.86 L1626.96 1317.04 L1634.75 1322.25 L1642.53 1327.49 L1650.32 1332.77 L1658.1 1338.08 L1665.89 1343.37 
  L1673.67 1348.61 L1681.45 1353.75 L1689.24 1358.75 L1697.02 1363.55 L1704.81 1368.12 L1712.59 1372.44 L1720.38 1376.5 L1728.16 1380.29 L1735.94 1383.82 L1743.73 1387.1 
  L1751.51 1390.17 L1759.3 1393.05 L1767.08 1395.77 L1774.87 1398.34 L1782.65 1400.79 L1790.43 1403.12 L1798.22 1405.34 L1806 1407.45 L1813.79 1409.45 L1821.57 1411.31 
  L1829.36 1413.02 L1837.14 1414.58 L1844.92 1415.98 L1852.71 1417.21 L1860.49 1418.27 L1868.28 1419.16 L1876.06 1419.91 L1883.85 1420.53 L1891.63 1421.04 L1899.42 1421.47 
  L1907.2 1421.85 L1914.98 1422.22 L1922.77 1422.62 L1930.55 1423.07 L1938.34 1423.61 L1946.12 1424.27 L1953.91 1425.08 L1961.69 1426.07 L1969.47 1427.26 L1977.26 1428.65 
  L1985.04 1430.25 L1992.83 1432.07 L2000.61 1434.07 L2008.4 1436.26 L2016.18 1438.59 L2023.96 1441.03 L2031.75 1443.55 L2039.53 1446.11 L2047.32 1448.65 L2055.1 1451.15 
  L2062.89 1453.56 L2070.67 1455.85 L2078.45 1458 L2086.24 1459.99 L2094.02 1461.8 L2101.81 1463.44 L2109.59 1464.91 L2117.38 1466.22 L2125.16 1467.38 L2132.94 1468.41 
  L2140.73 1469.33 L2148.51 1470.15 L2156.3 1470.9 L2164.08 1471.59 L2171.87 1472.23 L2179.65 1472.82 L2187.43 1473.37 L2195.22 1473.89 L2203 1474.37 L2210.79 1474.81 
  L2218.57 1475.22 L2226.36 1475.58 L2234.14 1475.91 L2241.92 1476.2 L2249.71 1476.45 L2257.49 1476.67 L2265.28 1476.86 L2273.06 1477.04 L2280.85 1477.19 L2288.63 1477.34 
  L2288.63 1479.3 L2280.85 1479.3 L2273.06 1479.3 L2265.28 1479.3 L2257.49 1479.3 L2249.71 1479.3 L2241.92 1479.3 L2234.14 1479.3 L2226.36 1479.3 L2218.57 1479.3 
  L2210.79 1479.3 L2203 1479.3 L2195.22 1479.3 L2187.43 1479.3 L2179.65 1479.3 L2171.87 1479.3 L2164.08 1479.3 L2156.3 1479.3 L2148.51 1479.3 L2140.73 1479.3 
  L2132.94 1479.3 L2125.16 1479.3 L2117.38 1479.3 L2109.59 1479.3 L2101.81 1479.3 L2094.02 1479.3 L2086.24 1479.3 L2078.45 1479.3 L2070.67 1479.3 L2062.89 1479.3 
  L2055.1 1479.3 L2047.32 1479.3 L2039.53 1479.3 L2031.75 1479.3 L2023.96 1479.3 L2016.18 1479.3 L2008.4 1479.3 L2000.61 1479.3 L1992.83 1479.3 L1985.04 1479.3 
  L1977.26 1479.3 L1969.47 1479.3 L1961.69 1479.3 L1953.91 1479.3 L1946.12 1479.3 L1938.34 1479.3 L1930.55 1479.3 L1922.77 1479.3 L1914.98 1479.3 L1907.2 1479.3 
  L1899.42 1479.3 L1891.63 1479.3 L1883.85 1479.3 L1876.06 1479.3 L1868.28 1479.3 L1860.49 1479.3 L1852.71 1479.3 L1844.92 1479.3 L1837.14 1479.3 L1829.36 1479.3 
  L1821.57 1479.3 L1813.79 1479.3 L1806 1479.3 L1798.22 1479.3 L1790.43 1479.3 L1782.65 1479.3 L1774.87 1479.3 L1767.08 1479.3 L1759.3 1479.3 L1751.51 1479.3 
  L1743.73 1479.3 L1735.94 1479.3 L1728.16 1479.3 L1720.38 1479.3 L1712.59 1479.3 L1704.81 1479.3 L1697.02 1479.3 L1689.24 1479.3 L1681.45 1479.3 L1673.67 1479.3 
  L1665.89 1479.3 L1658.1 1479.3 L1650.32 1479.3 L1642.53 1479.3 L1634.75 1479.3 L1626.96 1479.3 L1619.18 1479.3 L1611.4 1479.3 L1603.61 1479.3 L1595.83 1479.3 
  L1588.04 1479.3 L1580.26 1479.3 L1572.47 1479.3 L1564.69 1479.3 L1556.91 1479.3 L1549.12 1479.3 L1541.34 1479.3 L1533.55 1479.3 L1525.77 1479.3 L1517.98 1479.3 
   Z
  " fill="#ffa500" fill-rule="evenodd" fill-opacity="0.5"/>
<polyline clip-path="url(#clip022)" style="stroke:#ffa500; stroke-width:4; stroke-opacity:1; fill:none" points="
  1517.98,1221.22 1525.77,1230.62 1533.55,1239.71 1541.34,1248.39 1549.12,1256.6 1556.91,1264.3 1564.69,1271.49 1572.47,1278.2 1580.26,1284.47 1588.04,1290.38 
  1595.83,1295.99 1603.61,1301.39 1611.4,1306.66 1619.18,1311.86 1626.96,1317.04 1634.75,1322.25 1642.53,1327.49 1650.32,1332.77 1658.1,1338.08 1665.89,1343.37 
  1673.67,1348.61 1681.45,1353.75 1689.24,1358.75 1697.02,1363.55 1704.81,1368.12 1712.59,1372.44 1720.38,1376.5 1728.16,1380.29 1735.94,1383.82 1743.73,1387.1 
  1751.51,1390.17 1759.3,1393.05 1767.08,1395.77 1774.87,1398.34 1782.65,1400.79 1790.43,1403.12 1798.22,1405.34 1806,1407.45 1813.79,1409.45 1821.57,1411.31 
  1829.36,1413.02 1837.14,1414.58 1844.92,1415.98 1852.71,1417.21 1860.49,1418.27 1868.28,1419.16 1876.06,1419.91 1883.85,1420.53 1891.63,1421.04 1899.42,1421.47 
  1907.2,1421.85 1914.98,1422.22 1922.77,1422.62 1930.55,1423.07 1938.34,1423.61 1946.12,1424.27 1953.91,1425.08 1961.69,1426.07 1969.47,1427.26 1977.26,1428.65 
  1985.04,1430.25 1992.83,1432.07 2000.61,1434.07 2008.4,1436.26 2016.18,1438.59 2023.96,1441.03 2031.75,1443.55 2039.53,1446.11 2047.32,1448.65 2055.1,1451.15 
  2062.89,1453.56 2070.67,1455.85 2078.45,1458 2086.24,1459.99 2094.02,1461.8 2101.81,1463.44 2109.59,1464.91 2117.38,1466.22 2125.16,1467.38 2132.94,1468.41 
  2140.73,1469.33 2148.51,1470.15 2156.3,1470.9 2164.08,1471.59 2171.87,1472.23 2179.65,1472.82 2187.43,1473.37 2195.22,1473.89 2203,1474.37 2210.79,1474.81 
  2218.57,1475.22 2226.36,1475.58 2234.14,1475.91 2241.92,1476.2 2249.71,1476.45 2257.49,1476.67 2265.28,1476.86 2273.06,1477.04 2280.85,1477.19 2288.63,1477.34 
  
  "/>
<polyline clip-path="url(#clip022)" style="stroke:#0000ff; stroke-width:4; stroke-opacity:1; fill:none" points="
  723.742,1479.3 723.742,817.939 
  "/>
<polyline clip-path="url(#clip022)" style="stroke:#000000; stroke-width:4; stroke-opacity:1; fill:none" points="
  622.68,1479.3 622.68,658.624 
  "/>
<path clip-path="url(#clip020)" d="
M1494.58 459.25 L2277.23 459.25 L2277.23 96.3696 L1494.58 96.3696  Z
  " fill="#ffffff" fill-rule="evenodd" fill-opacity="1"/>
<polyline clip-path="url(#clip020)" style="stroke:#000000; stroke-width:4; stroke-opacity:1; fill:none" points="
  1494.58,459.25 2277.23,459.25 2277.23,96.3696 1494.58,96.3696 1494.58,459.25 
  "/>
<path clip-path="url(#clip020)" d="
M1519.75 181.042 L1670.81 181.042 L1670.81 132.658 L1519.75 132.658 L1519.75 181.042  Z
  " fill="#ffa500" fill-rule="evenodd" fill-opacity="0.5"/>
<polyline clip-path="url(#clip020)" style="stroke:#ffa500; stroke-width:4; stroke-opacity:1; fill:none" points="
  1519.75,132.658 1670.81,132.658 
  "/>
<path clip-path="url(#clip020)" d="M 0 0 M1700.38 161.19 Q1700.38 165.889 1702.3 168.574 Q1704.24 171.236 1707.62 171.236 Q1711 171.236 1712.95 168.574 Q1714.89 165.889 1714.89 161.19 Q1714.89 156.491 1712.95 153.829 Q1711 151.144 1707.62 151.144 Q1704.24 151.144 1702.3 153.829 Q1700.38 156.491 1700.38 161.19 M1714.89 170.241 Q1713.55 172.555 1711.49 173.69 Q1709.45 174.801 1706.58 174.801 Q1701.88 174.801 1698.92 171.051 Q1695.98 167.301 1695.98 161.19 Q1695.98 155.079 1698.92 151.329 Q1701.88 147.579 1706.58 147.579 Q1709.45 147.579 1711.49 148.713 Q1713.55 149.824 1714.89 152.139 L1714.89 148.204 L1719.15 148.204 L1719.15 183.991 L1714.89 183.991 L1714.89 170.241 Z" fill="#000000" fill-rule="evenodd" fill-opacity="1" /><path clip-path="url(#clip020)" d="M 0 0 M1734.22 142.648 Q1730.61 142.648 1728.78 146.213 Q1726.98 149.755 1726.98 156.884 Q1726.98 163.991 1728.78 167.556 Q1730.61 171.097 1734.22 171.097 Q1737.85 171.097 1739.66 167.556 Q1741.49 163.991 1741.49 156.884 Q1741.49 149.755 1739.66 146.213 Q1737.85 142.648 1734.22 142.648 M1734.22 138.945 Q1740.03 138.945 1743.09 143.551 Q1746.17 148.134 1746.17 156.884 Q1746.17 165.611 1743.09 170.218 Q1740.03 174.801 1734.22 174.801 Q1728.41 174.801 1725.33 170.218 Q1722.28 165.611 1722.28 156.884 Q1722.28 148.134 1725.33 143.551 Q1728.41 138.945 1734.22 138.945 Z" fill="#000000" fill-rule="evenodd" fill-opacity="1" /><path clip-path="url(#clip020)" d="M 0 0 M1751.28 139.57 L1769.64 139.57 L1769.64 143.505 L1755.56 143.505 L1755.56 151.977 Q1756.58 151.63 1757.6 151.468 Q1758.62 151.282 1759.64 151.282 Q1765.42 151.282 1768.8 154.454 Q1772.18 157.625 1772.18 163.042 Q1772.18 168.62 1768.71 171.722 Q1765.24 174.801 1758.92 174.801 Q1756.74 174.801 1754.48 174.43 Q1752.23 174.06 1749.82 173.319 L1749.82 168.62 Q1751.91 169.755 1754.13 170.31 Q1756.35 170.866 1758.83 170.866 Q1762.83 170.866 1765.17 168.759 Q1767.51 166.653 1767.51 163.042 Q1767.51 159.431 1765.17 157.324 Q1762.83 155.218 1758.83 155.218 Q1756.95 155.218 1755.08 155.634 Q1753.23 156.051 1751.28 156.931 L1751.28 139.57 Z" fill="#000000" fill-rule="evenodd" fill-opacity="1" /><path clip-path="url(#clip020)" d="
M1519.75 241.522 L1670.81 241.522 L1670.81 193.138 L1519.75 193.138 L1519.75 241.522  Z
  " fill="#008000" fill-rule="evenodd" fill-opacity="0.5"/>
<polyline clip-path="url(#clip020)" style="stroke:#008000; stroke-width:4; stroke-opacity:1; fill:none" points="
  1519.75,193.138 1670.81,193.138 
  "/>
<path clip-path="url(#clip020)" d="M 0 0 M1698.2 233.892 L1698.2 229.633 Q1699.96 230.466 1701.77 230.906 Q1703.57 231.346 1705.31 231.346 Q1709.94 231.346 1712.37 228.244 Q1714.82 225.119 1715.17 218.776 Q1713.83 220.767 1711.77 221.832 Q1709.71 222.897 1707.21 222.897 Q1702.02 222.897 1698.99 219.772 Q1695.98 216.624 1695.98 211.184 Q1695.98 205.86 1699.13 202.642 Q1702.28 199.425 1707.51 199.425 Q1713.5 199.425 1716.65 204.031 Q1719.82 208.614 1719.82 217.364 Q1719.82 225.536 1715.93 230.42 Q1712.07 235.281 1705.52 235.281 Q1703.76 235.281 1701.95 234.934 Q1700.15 234.586 1698.2 233.892 M1707.51 219.239 Q1710.66 219.239 1712.48 217.086 Q1714.34 214.934 1714.34 211.184 Q1714.34 207.457 1712.48 205.304 Q1710.66 203.128 1707.51 203.128 Q1704.36 203.128 1702.51 205.304 Q1700.68 207.457 1700.68 211.184 Q1700.68 214.934 1702.51 217.086 Q1704.36 219.239 1707.51 219.239 Z" fill="#000000" fill-rule="evenodd" fill-opacity="1" /><path clip-path="url(#clip020)" d="M 0 0 M1734.89 203.128 Q1731.28 203.128 1729.45 206.693 Q1727.65 210.235 1727.65 217.364 Q1727.65 224.471 1729.45 228.036 Q1731.28 231.577 1734.89 231.577 Q1738.53 231.577 1740.33 228.036 Q1742.16 224.471 1742.16 217.364 Q1742.16 210.235 1740.33 206.693 Q1738.53 203.128 1734.89 203.128 M1734.89 199.425 Q1740.7 199.425 1743.76 204.031 Q1746.84 208.614 1746.84 217.364 Q1746.84 226.091 1743.76 230.698 Q1740.7 235.281 1734.89 235.281 Q1729.08 235.281 1726 230.698 Q1722.95 226.091 1722.95 217.364 Q1722.95 208.614 1726 204.031 Q1729.08 199.425 1734.89 199.425 Z" fill="#000000" fill-rule="evenodd" fill-opacity="1" /><path clip-path="url(#clip020)" d="M 0 0 M1781.3 219.401 Q1779.29 219.401 1778.13 221.114 Q1777 222.827 1777 225.883 Q1777 228.892 1778.13 230.628 Q1779.29 232.341 1781.3 232.341 Q1783.27 232.341 1784.41 230.628 Q1785.56 228.892 1785.56 225.883 Q1785.56 222.85 1784.41 221.137 Q1783.27 219.401 1781.3 219.401 M1781.3 216.462 Q1784.96 216.462 1787.11 219.008 Q1789.27 221.554 1789.27 225.883 Q1789.27 230.211 1787.09 232.758 Q1784.94 235.281 1781.3 235.281 Q1777.6 235.281 1775.45 232.758 Q1773.29 230.211 1773.29 225.883 Q1773.29 221.531 1775.45 219.008 Q1777.62 216.462 1781.3 216.462 M1757.42 202.364 Q1755.42 202.364 1754.27 204.1 Q1753.13 205.813 1753.13 208.823 Q1753.13 211.878 1754.27 213.591 Q1755.4 215.304 1757.42 215.304 Q1759.43 215.304 1760.56 213.591 Q1761.72 211.878 1761.72 208.823 Q1761.72 205.837 1760.56 204.1 Q1759.41 202.364 1757.42 202.364 M1778.32 199.425 L1782.02 199.425 L1760.4 235.281 L1756.7 235.281 L1778.32 199.425 M1757.42 199.425 Q1761.07 199.425 1763.25 201.971 Q1765.42 204.494 1765.42 208.823 Q1765.42 213.198 1763.25 215.721 Q1761.1 218.244 1757.42 218.244 Q1753.73 218.244 1751.58 215.721 Q1749.45 213.174 1749.45 208.823 Q1749.45 204.517 1751.6 201.971 Q1753.76 199.425 1757.42 199.425 Z" fill="#000000" fill-rule="evenodd" fill-opacity="1" /><path clip-path="url(#clip020)" d="M 0 0 M1830.35 218.961 L1830.35 234.61 L1826.1 234.61 L1826.1 219.1 Q1826.1 215.42 1824.66 213.591 Q1823.22 211.762 1820.35 211.762 Q1816.91 211.762 1814.91 213.962 Q1812.92 216.161 1812.92 219.957 L1812.92 234.61 L1808.64 234.61 L1808.64 208.684 L1812.92 208.684 L1812.92 212.712 Q1814.45 210.374 1816.51 209.216 Q1818.6 208.059 1821.3 208.059 Q1825.77 208.059 1828.06 210.837 Q1830.35 213.591 1830.35 218.961 Z" fill="#000000" fill-rule="evenodd" fill-opacity="1" /><path clip-path="url(#clip020)" d="M 0 0 M1844.87 211.67 Q1841.44 211.67 1839.45 214.355 Q1837.46 217.017 1837.46 221.67 Q1837.46 226.323 1839.43 229.008 Q1841.42 231.67 1844.87 231.67 Q1848.27 231.67 1850.26 228.985 Q1852.25 226.299 1852.25 221.67 Q1852.25 217.063 1850.26 214.378 Q1848.27 211.67 1844.87 211.67 M1844.87 208.059 Q1850.42 208.059 1853.6 211.67 Q1856.77 215.281 1856.77 221.67 Q1856.77 228.036 1853.6 231.67 Q1850.42 235.281 1844.87 235.281 Q1839.29 235.281 1836.12 231.67 Q1832.97 228.036 1832.97 221.67 Q1832.97 215.281 1836.12 211.67 Q1839.29 208.059 1844.87 208.059 Z" fill="#000000" fill-rule="evenodd" fill-opacity="1" /><path clip-path="url(#clip020)" d="M 0 0 M1882.78 218.961 L1882.78 234.61 L1878.53 234.61 L1878.53 219.1 Q1878.53 215.42 1877.09 213.591 Q1875.66 211.762 1872.78 211.762 Q1869.34 211.762 1867.35 213.962 Q1865.35 216.161 1865.35 219.957 L1865.35 234.61 L1861.07 234.61 L1861.07 208.684 L1865.35 208.684 L1865.35 212.712 Q1866.88 210.374 1868.94 209.216 Q1871.03 208.059 1873.73 208.059 Q1878.2 208.059 1880.49 210.837 Q1882.78 213.591 1882.78 218.961 Z" fill="#000000" fill-rule="evenodd" fill-opacity="1" /><path clip-path="url(#clip020)" d="M 0 0 M1885.1 219.725 L1897.58 219.725 L1897.58 223.522 L1885.1 223.522 L1885.1 219.725 Z" fill="#000000" fill-rule="evenodd" fill-opacity="1" /><path clip-path="url(#clip020)" d="M 0 0 M1917.07 212.665 Q1916.35 212.249 1915.49 212.063 Q1914.66 211.855 1913.64 211.855 Q1910.03 211.855 1908.09 214.216 Q1906.16 216.554 1906.16 220.952 L1906.16 234.61 L1901.88 234.61 L1901.88 208.684 L1906.16 208.684 L1906.16 212.712 Q1907.51 210.35 1909.66 209.216 Q1911.81 208.059 1914.89 208.059 Q1915.33 208.059 1915.86 208.128 Q1916.4 208.175 1917.04 208.29 L1917.07 212.665 Z" fill="#000000" fill-rule="evenodd" fill-opacity="1" /><path clip-path="url(#clip020)" d="M 0 0 M1942.67 220.582 L1942.67 222.665 L1923.09 222.665 Q1923.36 227.063 1925.72 229.378 Q1928.11 231.67 1932.34 231.67 Q1934.8 231.67 1937.09 231.068 Q1939.4 230.466 1941.67 229.262 L1941.67 233.29 Q1939.38 234.262 1936.97 234.772 Q1934.57 235.281 1932.09 235.281 Q1925.89 235.281 1922.25 231.67 Q1918.64 228.059 1918.64 221.901 Q1918.64 215.536 1922.07 211.809 Q1925.52 208.059 1931.35 208.059 Q1936.58 208.059 1939.61 211.438 Q1942.67 214.795 1942.67 220.582 M1938.41 219.332 Q1938.36 215.837 1936.44 213.753 Q1934.54 211.67 1931.4 211.67 Q1927.83 211.67 1925.68 213.684 Q1923.55 215.698 1923.22 219.355 L1938.41 219.332 Z" fill="#000000" fill-rule="evenodd" fill-opacity="1" /><path clip-path="url(#clip020)" d="M 0 0 M1947.14 208.684 L1951.4 208.684 L1951.4 235.073 Q1951.4 240.026 1949.5 242.248 Q1947.62 244.471 1943.43 244.471 L1941.81 244.471 L1941.81 240.86 L1942.95 240.86 Q1945.38 240.86 1946.26 239.725 Q1947.14 238.614 1947.14 235.073 L1947.14 208.684 M1947.14 198.591 L1951.4 198.591 L1951.4 203.985 L1947.14 203.985 L1947.14 198.591 Z" fill="#000000" fill-rule="evenodd" fill-opacity="1" /><path clip-path="url(#clip020)" d="M 0 0 M1978.04 220.582 L1978.04 222.665 L1958.46 222.665 Q1958.73 227.063 1961.09 229.378 Q1963.48 231.67 1967.71 231.67 Q1970.17 231.67 1972.46 231.068 Q1974.78 230.466 1977.04 229.262 L1977.04 233.29 Q1974.75 234.262 1972.34 234.772 Q1969.94 235.281 1967.46 235.281 Q1961.26 235.281 1957.62 231.67 Q1954.01 228.059 1954.01 221.901 Q1954.01 215.536 1957.44 211.809 Q1960.89 208.059 1966.72 208.059 Q1971.95 208.059 1974.98 211.438 Q1978.04 214.795 1978.04 220.582 M1973.78 219.332 Q1973.73 215.837 1971.81 213.753 Q1969.91 211.67 1966.77 211.67 Q1963.2 211.67 1961.05 213.684 Q1958.92 215.698 1958.59 219.355 L1973.78 219.332 Z" fill="#000000" fill-rule="evenodd" fill-opacity="1" /><path clip-path="url(#clip020)" d="M 0 0 M2001.16 209.679 L2001.16 213.661 Q1999.36 212.665 1997.53 212.179 Q1995.72 211.67 1993.87 211.67 Q1989.73 211.67 1987.44 214.309 Q1985.15 216.924 1985.15 221.67 Q1985.15 226.415 1987.44 229.054 Q1989.73 231.67 1993.87 231.67 Q1995.72 231.67 1997.53 231.184 Q1999.36 230.674 2001.16 229.679 L2001.16 233.614 Q1999.38 234.448 1997.46 234.864 Q1995.56 235.281 1993.41 235.281 Q1987.55 235.281 1984.1 231.6 Q1980.65 227.92 1980.65 221.67 Q1980.65 215.327 1984.13 211.693 Q1987.62 208.059 1993.69 208.059 Q1995.65 208.059 1997.53 208.475 Q1999.4 208.869 2001.16 209.679 Z" fill="#000000" fill-rule="evenodd" fill-opacity="1" /><path clip-path="url(#clip020)" d="M 0 0 M2009.84 201.323 L2009.84 208.684 L2018.62 208.684 L2018.62 211.994 L2009.84 211.994 L2009.84 226.068 Q2009.84 229.239 2010.7 230.142 Q2011.58 231.045 2014.24 231.045 L2018.62 231.045 L2018.62 234.61 L2014.24 234.61 Q2009.31 234.61 2007.44 232.781 Q2005.56 230.929 2005.56 226.068 L2005.56 211.994 L2002.44 211.994 L2002.44 208.684 L2005.56 208.684 L2005.56 201.323 L2009.84 201.323 Z" fill="#000000" fill-rule="evenodd" fill-opacity="1" /><path clip-path="url(#clip020)" d="M 0 0 M2023.08 208.684 L2027.34 208.684 L2027.34 234.61 L2023.08 234.61 L2023.08 208.684 M2023.08 198.591 L2027.34 198.591 L2027.34 203.985 L2023.08 203.985 L2023.08 198.591 Z" fill="#000000" fill-rule="evenodd" fill-opacity="1" /><path clip-path="url(#clip020)" d="M 0 0 M2041.86 211.67 Q2038.43 211.67 2036.44 214.355 Q2034.45 217.017 2034.45 221.67 Q2034.45 226.323 2036.42 229.008 Q2038.41 231.67 2041.86 231.67 Q2045.26 231.67 2047.25 228.985 Q2049.24 226.299 2049.24 221.67 Q2049.24 217.063 2047.25 214.378 Q2045.26 211.67 2041.86 211.67 M2041.86 208.059 Q2047.41 208.059 2050.58 211.67 Q2053.76 215.281 2053.76 221.67 Q2053.76 228.036 2050.58 231.67 Q2047.41 235.281 2041.86 235.281 Q2036.28 235.281 2033.11 231.67 Q2029.96 228.036 2029.96 221.67 Q2029.96 215.281 2033.11 211.67 Q2036.28 208.059 2041.86 208.059 Z" fill="#000000" fill-rule="evenodd" fill-opacity="1" /><path clip-path="url(#clip020)" d="M 0 0 M2079.77 218.961 L2079.77 234.61 L2075.52 234.61 L2075.52 219.1 Q2075.52 215.42 2074.08 213.591 Q2072.64 211.762 2069.77 211.762 Q2066.33 211.762 2064.33 213.962 Q2062.34 216.161 2062.34 219.957 L2062.34 234.61 L2058.06 234.61 L2058.06 208.684 L2062.34 208.684 L2062.34 212.712 Q2063.87 210.374 2065.93 209.216 Q2068.02 208.059 2070.72 208.059 Q2075.19 208.059 2077.48 210.837 Q2079.77 213.591 2079.77 218.961 Z" fill="#000000" fill-rule="evenodd" fill-opacity="1" /><path clip-path="url(#clip020)" d="M 0 0 M2114.33 212.665 Q2113.62 212.249 2112.76 212.063 Q2111.93 211.855 2110.91 211.855 Q2107.3 211.855 2105.35 214.216 Q2103.43 216.554 2103.43 220.952 L2103.43 234.61 L2099.15 234.61 L2099.15 208.684 L2103.43 208.684 L2103.43 212.712 Q2104.77 210.35 2106.93 209.216 Q2109.08 208.059 2112.16 208.059 Q2112.6 208.059 2113.13 208.128 Q2113.66 208.175 2114.31 208.29 L2114.33 212.665 Z" fill="#000000" fill-rule="evenodd" fill-opacity="1" /><path clip-path="url(#clip020)" d="M 0 0 M2139.94 220.582 L2139.94 222.665 L2120.35 222.665 Q2120.63 227.063 2122.99 229.378 Q2125.38 231.67 2129.61 231.67 Q2132.07 231.67 2134.36 231.068 Q2136.67 230.466 2138.94 229.262 L2138.94 233.29 Q2136.65 234.262 2134.24 234.772 Q2131.83 235.281 2129.36 235.281 Q2123.15 235.281 2119.52 231.67 Q2115.91 228.059 2115.91 221.901 Q2115.91 215.536 2119.33 211.809 Q2122.78 208.059 2128.62 208.059 Q2133.85 208.059 2136.88 211.438 Q2139.94 214.795 2139.94 220.582 M2135.68 219.332 Q2135.63 215.837 2133.71 213.753 Q2131.81 211.67 2128.66 211.67 Q2125.1 211.67 2122.95 213.684 Q2120.82 215.698 2120.49 219.355 L2135.68 219.332 Z" fill="#000000" fill-rule="evenodd" fill-opacity="1" /><path clip-path="url(#clip020)" d="M 0 0 M2161.46 221.346 Q2161.46 216.716 2159.54 214.17 Q2157.64 211.624 2154.2 211.624 Q2150.77 211.624 2148.85 214.17 Q2146.95 216.716 2146.95 221.346 Q2146.95 225.952 2148.85 228.498 Q2150.77 231.045 2154.2 231.045 Q2157.64 231.045 2159.54 228.498 Q2161.46 225.952 2161.46 221.346 M2165.72 231.392 Q2165.72 238.012 2162.78 241.23 Q2159.84 244.471 2153.78 244.471 Q2151.53 244.471 2149.54 244.123 Q2147.55 243.799 2145.68 243.105 L2145.68 238.961 Q2147.55 239.98 2149.38 240.466 Q2151.21 240.952 2153.11 240.952 Q2157.3 240.952 2159.38 238.753 Q2161.46 236.577 2161.46 232.156 L2161.46 230.049 Q2160.14 232.341 2158.08 233.475 Q2156.02 234.61 2153.15 234.61 Q2148.39 234.61 2145.47 230.975 Q2142.55 227.341 2142.55 221.346 Q2142.55 215.327 2145.47 211.693 Q2148.39 208.059 2153.15 208.059 Q2156.02 208.059 2158.08 209.193 Q2160.14 210.327 2161.46 212.619 L2161.46 208.684 L2165.72 208.684 L2165.72 231.392 Z" fill="#000000" fill-rule="evenodd" fill-opacity="1" /><path clip-path="url(#clip020)" d="M 0 0 M2170.19 208.684 L2174.45 208.684 L2174.45 234.61 L2170.19 234.61 L2170.19 208.684 M2170.19 198.591 L2174.45 198.591 L2174.45 203.985 L2170.19 203.985 L2170.19 198.591 Z" fill="#000000" fill-rule="evenodd" fill-opacity="1" /><path clip-path="url(#clip020)" d="M 0 0 M2188.96 211.67 Q2185.54 211.67 2183.55 214.355 Q2181.56 217.017 2181.56 221.67 Q2181.56 226.323 2183.52 229.008 Q2185.51 231.67 2188.96 231.67 Q2192.37 231.67 2194.36 228.985 Q2196.35 226.299 2196.35 221.67 Q2196.35 217.063 2194.36 214.378 Q2192.37 211.67 2188.96 211.67 M2188.96 208.059 Q2194.52 208.059 2197.69 211.67 Q2200.86 215.281 2200.86 221.67 Q2200.86 228.036 2197.69 231.67 Q2194.52 235.281 2188.96 235.281 Q2183.39 235.281 2180.21 231.67 Q2177.07 228.036 2177.07 221.67 Q2177.07 215.281 2180.21 211.67 Q2183.39 208.059 2188.96 208.059 Z" fill="#000000" fill-rule="evenodd" fill-opacity="1" /><path clip-path="url(#clip020)" d="M 0 0 M2226.88 218.961 L2226.88 234.61 L2222.62 234.61 L2222.62 219.1 Q2222.62 215.42 2221.19 213.591 Q2219.75 211.762 2216.88 211.762 Q2213.43 211.762 2211.44 213.962 Q2209.45 216.161 2209.45 219.957 L2209.45 234.61 L2205.17 234.61 L2205.17 208.684 L2209.45 208.684 L2209.45 212.712 Q2210.98 210.374 2213.04 209.216 Q2215.12 208.059 2217.83 208.059 Q2222.3 208.059 2224.59 210.837 Q2226.88 213.591 2226.88 218.961 Z" fill="#000000" fill-rule="evenodd" fill-opacity="1" /><path clip-path="url(#clip020)" d="
M1519.75 302.002 L1670.81 302.002 L1670.81 253.618 L1519.75 253.618 L1519.75 302.002  Z
  " fill="#ffa500" fill-rule="evenodd" fill-opacity="0.5"/>
<polyline clip-path="url(#clip020)" style="stroke:#ffa500; stroke-width:4; stroke-opacity:1; fill:none" points="
  1519.75,253.618 1670.81,253.618 
  "/>
<path clip-path="url(#clip020)" d="M 0 0 M1700.38 282.15 Q1700.38 286.849 1702.3 289.534 Q1704.24 292.196 1707.62 292.196 Q1711 292.196 1712.95 289.534 Q1714.89 286.849 1714.89 282.15 Q1714.89 277.451 1712.95 274.789 Q1711 272.104 1707.62 272.104 Q1704.24 272.104 1702.3 274.789 Q1700.38 277.451 1700.38 282.15 M1714.89 291.201 Q1713.55 293.515 1711.49 294.65 Q1709.45 295.761 1706.58 295.761 Q1701.88 295.761 1698.92 292.011 Q1695.98 288.261 1695.98 282.15 Q1695.98 276.039 1698.92 272.289 Q1701.88 268.539 1706.58 268.539 Q1709.45 268.539 1711.49 269.673 Q1713.55 270.784 1714.89 273.099 L1714.89 269.164 L1719.15 269.164 L1719.15 304.951 L1714.89 304.951 L1714.89 291.201 Z" fill="#000000" fill-rule="evenodd" fill-opacity="1" /><path clip-path="url(#clip020)" d="M 0 0 M1724.36 294.372 L1724.36 290.113 Q1726.12 290.946 1727.92 291.386 Q1729.73 291.826 1731.47 291.826 Q1736.1 291.826 1738.53 288.724 Q1740.98 285.599 1741.33 279.256 Q1739.98 281.247 1737.92 282.312 Q1735.86 283.377 1733.36 283.377 Q1728.18 283.377 1725.15 280.252 Q1722.14 277.104 1722.14 271.664 Q1722.14 266.34 1725.29 263.122 Q1728.43 259.905 1733.67 259.905 Q1739.66 259.905 1742.81 264.511 Q1745.98 269.094 1745.98 277.844 Q1745.98 286.016 1742.09 290.9 Q1738.23 295.761 1731.67 295.761 Q1729.92 295.761 1728.11 295.414 Q1726.3 295.066 1724.36 294.372 M1733.67 279.719 Q1736.81 279.719 1738.64 277.566 Q1740.49 275.414 1740.49 271.664 Q1740.49 267.937 1738.64 265.784 Q1736.81 263.608 1733.67 263.608 Q1730.52 263.608 1728.67 265.784 Q1726.84 267.937 1726.84 271.664 Q1726.84 275.414 1728.67 277.566 Q1730.52 279.719 1733.67 279.719 Z" fill="#000000" fill-rule="evenodd" fill-opacity="1" /><path clip-path="url(#clip020)" d="M 0 0 M1751.1 260.53 L1769.45 260.53 L1769.45 264.465 L1755.38 264.465 L1755.38 272.937 Q1756.4 272.59 1757.42 272.428 Q1758.43 272.242 1759.45 272.242 Q1765.24 272.242 1768.62 275.414 Q1772 278.585 1772 284.002 Q1772 289.58 1768.53 292.682 Q1765.05 295.761 1758.73 295.761 Q1756.56 295.761 1754.29 295.39 Q1752.04 295.02 1749.64 294.279 L1749.64 289.58 Q1751.72 290.715 1753.94 291.27 Q1756.17 291.826 1758.64 291.826 Q1762.65 291.826 1764.98 289.719 Q1767.32 287.613 1767.32 284.002 Q1767.32 280.391 1764.98 278.284 Q1762.65 276.178 1758.64 276.178 Q1756.77 276.178 1754.89 276.594 Q1753.04 277.011 1751.1 277.891 L1751.1 260.53 Z" fill="#000000" fill-rule="evenodd" fill-opacity="1" /><polyline clip-path="url(#clip020)" style="stroke:#0000ff; stroke-width:4; stroke-opacity:1; fill:none" points="
  1519.75,338.29 1670.81,338.29 
  "/>
<path clip-path="url(#clip020)" d="M 0 0 M1716.33 334.621 Q1717.92 331.75 1720.15 330.385 Q1722.37 329.019 1725.38 329.019 Q1729.43 329.019 1731.63 331.866 Q1733.83 334.69 1733.83 339.921 L1733.83 355.57 L1729.54 355.57 L1729.54 340.06 Q1729.54 336.334 1728.23 334.528 Q1726.91 332.722 1724.2 332.722 Q1720.89 332.722 1718.97 334.922 Q1717.04 337.121 1717.04 340.917 L1717.04 355.57 L1712.76 355.57 L1712.76 340.06 Q1712.76 336.31 1711.44 334.528 Q1710.12 332.722 1707.37 332.722 Q1704.11 332.722 1702.18 334.945 Q1700.26 337.144 1700.26 340.917 L1700.26 355.57 L1695.98 355.57 L1695.98 329.644 L1700.26 329.644 L1700.26 333.672 Q1701.72 331.287 1703.76 330.153 Q1705.79 329.019 1708.6 329.019 Q1711.42 329.019 1713.39 330.454 Q1715.38 331.889 1716.33 334.621 Z" fill="#000000" fill-rule="evenodd" fill-opacity="1" /><path clip-path="url(#clip020)" d="M 0 0 M1760.47 341.542 L1760.47 343.625 L1740.89 343.625 Q1741.17 348.023 1743.53 350.338 Q1745.91 352.63 1750.15 352.63 Q1752.6 352.63 1754.89 352.028 Q1757.21 351.426 1759.48 350.222 L1759.48 354.25 Q1757.18 355.222 1754.78 355.732 Q1752.37 356.241 1749.89 356.241 Q1743.69 356.241 1740.05 352.63 Q1736.44 349.019 1736.44 342.861 Q1736.44 336.496 1739.87 332.769 Q1743.32 329.019 1749.15 329.019 Q1754.38 329.019 1757.42 332.398 Q1760.47 335.755 1760.47 341.542 M1756.21 340.292 Q1756.17 336.797 1754.24 334.713 Q1752.35 332.63 1749.2 332.63 Q1745.63 332.63 1743.48 334.644 Q1741.35 336.658 1741.03 340.315 L1756.21 340.292 Z" fill="#000000" fill-rule="evenodd" fill-opacity="1" /><path clip-path="url(#clip020)" d="M 0 0 M1776.72 342.537 Q1771.56 342.537 1769.57 343.718 Q1767.58 344.898 1767.58 347.746 Q1767.58 350.014 1769.06 351.357 Q1770.56 352.676 1773.13 352.676 Q1776.67 352.676 1778.8 350.176 Q1780.96 347.653 1780.96 343.486 L1780.96 342.537 L1776.72 342.537 M1785.22 340.778 L1785.22 355.57 L1780.96 355.57 L1780.96 351.634 Q1779.5 353.995 1777.32 355.13 Q1775.15 356.241 1772 356.241 Q1768.02 356.241 1765.66 354.019 Q1763.32 351.773 1763.32 348.023 Q1763.32 343.648 1766.23 341.426 Q1769.17 339.204 1774.98 339.204 L1780.96 339.204 L1780.96 338.787 Q1780.96 335.847 1779.01 334.25 Q1777.09 332.63 1773.6 332.63 Q1771.37 332.63 1769.27 333.162 Q1767.16 333.695 1765.22 334.759 L1765.22 330.824 Q1767.55 329.922 1769.75 329.482 Q1771.95 329.019 1774.04 329.019 Q1779.66 329.019 1782.44 331.935 Q1785.22 334.852 1785.22 340.778 Z" fill="#000000" fill-rule="evenodd" fill-opacity="1" /><path clip-path="url(#clip020)" d="M 0 0 M1811.23 339.921 L1811.23 355.57 L1806.97 355.57 L1806.97 340.06 Q1806.97 336.38 1805.54 334.551 Q1804.1 332.722 1801.23 332.722 Q1797.79 332.722 1795.79 334.922 Q1793.8 337.121 1793.8 340.917 L1793.8 355.57 L1789.52 355.57 L1789.52 329.644 L1793.8 329.644 L1793.8 333.672 Q1795.33 331.334 1797.39 330.176 Q1799.48 329.019 1802.18 329.019 Q1806.65 329.019 1808.94 331.797 Q1811.23 334.551 1811.23 339.921 Z" fill="#000000" fill-rule="evenodd" fill-opacity="1" /><polyline clip-path="url(#clip020)" style="stroke:#000000; stroke-width:4; stroke-opacity:1; fill:none" points="
  1519.75,398.77 1670.81,398.77 
  "/>
<path clip-path="url(#clip020)" d="M 0 0 M1716.33 395.101 Q1717.92 392.23 1720.15 390.865 Q1722.37 389.499 1725.38 389.499 Q1729.43 389.499 1731.63 392.346 Q1733.83 395.17 1733.83 400.401 L1733.83 416.05 L1729.54 416.05 L1729.54 400.54 Q1729.54 396.814 1728.23 395.008 Q1726.91 393.202 1724.2 393.202 Q1720.89 393.202 1718.97 395.402 Q1717.04 397.601 1717.04 401.397 L1717.04 416.05 L1712.76 416.05 L1712.76 400.54 Q1712.76 396.79 1711.44 395.008 Q1710.12 393.202 1707.37 393.202 Q1704.11 393.202 1702.18 395.425 Q1700.26 397.624 1700.26 401.397 L1700.26 416.05 L1695.98 416.05 L1695.98 390.124 L1700.26 390.124 L1700.26 394.152 Q1701.72 391.767 1703.76 390.633 Q1705.79 389.499 1708.6 389.499 Q1711.42 389.499 1713.39 390.934 Q1715.38 392.369 1716.33 395.101 Z" fill="#000000" fill-rule="evenodd" fill-opacity="1" /><path clip-path="url(#clip020)" d="M 0 0 M1760.47 402.022 L1760.47 404.105 L1740.89 404.105 Q1741.17 408.503 1743.53 410.818 Q1745.91 413.11 1750.15 413.11 Q1752.6 413.11 1754.89 412.508 Q1757.21 411.906 1759.48 410.702 L1759.48 414.73 Q1757.18 415.702 1754.78 416.212 Q1752.37 416.721 1749.89 416.721 Q1743.69 416.721 1740.05 413.11 Q1736.44 409.499 1736.44 403.341 Q1736.44 396.976 1739.87 393.249 Q1743.32 389.499 1749.15 389.499 Q1754.38 389.499 1757.42 392.878 Q1760.47 396.235 1760.47 402.022 M1756.21 400.772 Q1756.17 397.277 1754.24 395.193 Q1752.35 393.11 1749.2 393.11 Q1745.63 393.11 1743.48 395.124 Q1741.35 397.138 1741.03 400.795 L1756.21 400.772 Z" fill="#000000" fill-rule="evenodd" fill-opacity="1" /><path clip-path="url(#clip020)" d="M 0 0 M1782 394.059 L1782 380.031 L1786.26 380.031 L1786.26 416.05 L1782 416.05 L1782 412.161 Q1780.66 414.475 1778.6 415.61 Q1776.56 416.721 1773.69 416.721 Q1768.99 416.721 1766.03 412.971 Q1763.09 409.221 1763.09 403.11 Q1763.09 396.999 1766.03 393.249 Q1768.99 389.499 1773.69 389.499 Q1776.56 389.499 1778.6 390.633 Q1780.66 391.744 1782 394.059 M1767.48 403.11 Q1767.48 407.809 1769.41 410.494 Q1771.35 413.156 1774.73 413.156 Q1778.11 413.156 1780.05 410.494 Q1782 407.809 1782 403.11 Q1782 398.411 1780.05 395.749 Q1778.11 393.064 1774.73 393.064 Q1771.35 393.064 1769.41 395.749 Q1767.48 398.411 1767.48 403.11 Z" fill="#000000" fill-rule="evenodd" fill-opacity="1" /><path clip-path="url(#clip020)" d="M 0 0 M1790.73 390.124 L1794.98 390.124 L1794.98 416.05 L1790.73 416.05 L1790.73 390.124 M1790.73 380.031 L1794.98 380.031 L1794.98 385.425 L1790.73 385.425 L1790.73 380.031 Z" fill="#000000" fill-rule="evenodd" fill-opacity="1" /><path clip-path="url(#clip020)" d="M 0 0 M1811.23 403.017 Q1806.07 403.017 1804.08 404.198 Q1802.09 405.378 1802.09 408.226 Q1802.09 410.494 1803.57 411.837 Q1805.08 413.156 1807.65 413.156 Q1811.19 413.156 1813.32 410.656 Q1815.47 408.133 1815.47 403.966 L1815.47 403.017 L1811.23 403.017 M1819.73 401.258 L1819.73 416.05 L1815.47 416.05 L1815.47 412.114 Q1814.01 414.475 1811.84 415.61 Q1809.66 416.721 1806.51 416.721 Q1802.53 416.721 1800.17 414.499 Q1797.83 412.253 1797.83 408.503 Q1797.83 404.128 1800.75 401.906 Q1803.69 399.684 1809.5 399.684 L1815.47 399.684 L1815.47 399.267 Q1815.47 396.327 1813.53 394.73 Q1811.6 393.11 1808.11 393.11 Q1805.89 393.11 1803.78 393.642 Q1801.67 394.175 1799.73 395.239 L1799.73 391.304 Q1802.07 390.402 1804.27 389.962 Q1806.47 389.499 1808.55 389.499 Q1814.17 389.499 1816.95 392.415 Q1819.73 395.332 1819.73 401.258 Z" fill="#000000" fill-rule="evenodd" fill-opacity="1" /><path clip-path="url(#clip020)" d="M 0 0 M1845.75 400.401 L1845.75 416.05 L1841.49 416.05 L1841.49 400.54 Q1841.49 396.86 1840.05 395.031 Q1838.62 393.202 1835.75 393.202 Q1832.3 393.202 1830.31 395.402 Q1828.32 397.601 1828.32 401.397 L1828.32 416.05 L1824.04 416.05 L1824.04 390.124 L1828.32 390.124 L1828.32 394.152 Q1829.85 391.814 1831.91 390.656 Q1833.99 389.499 1836.7 389.499 Q1841.16 389.499 1843.46 392.277 Q1845.75 395.031 1845.75 400.401 Z" fill="#000000" fill-rule="evenodd" fill-opacity="1" /></svg>
