<?xml version="1.0" encoding="utf-8"?>
<svg xmlns="http://www.w3.org/2000/svg" xmlns:xlink="http://www.w3.org/1999/xlink" width="600" height="400" viewBox="0 0 2400 1600">
<defs>
  <clipPath id="clip250">
    <rect x="0" y="0" width="2400" height="1600"/>
  </clipPath>
</defs>
<path clip-path="url(#clip250)" d="
M0 1600 L2400 1600 L2400 0 L0 0  Z
  " fill="#ffffff" fill-rule="evenodd" fill-opacity="1"/>
<defs>
  <clipPath id="clip251">
    <rect x="480" y="0" width="1681" height="1600"/>
  </clipPath>
</defs>
<path clip-path="url(#clip250)" d="
M110.881 1486.45 L2352.76 1486.45 L2352.76 47.2441 L110.881 47.2441  Z
  " fill="#ffffff" fill-rule="evenodd" fill-opacity="1"/>
<defs>
  <clipPath id="clip252">
    <rect x="110" y="47" width="2243" height="1440"/>
  </clipPath>
</defs>
<polyline clip-path="url(#clip252)" style="stroke:#000000; stroke-width:2; stroke-opacity:0.1; fill:none" points="
  174.084,1486.45 174.084,47.2441 
  "/>
<polyline clip-path="url(#clip252)" style="stroke:#000000; stroke-width:2; stroke-opacity:0.1; fill:none" points="
  693.322,1486.45 693.322,47.2441 
  "/>
<polyline clip-path="url(#clip252)" style="stroke:#000000; stroke-width:2; stroke-opacity:0.1; fill:none" points="
  1212.56,1486.45 1212.56,47.2441 
  "/>
<polyline clip-path="url(#clip252)" style="stroke:#000000; stroke-width:2; stroke-opacity:0.1; fill:none" points="
  1731.8,1486.45 1731.8,47.2441 
  "/>
<polyline clip-path="url(#clip252)" style="stroke:#000000; stroke-width:2; stroke-opacity:0.1; fill:none" points="
  2251.04,1486.45 2251.04,47.2441 
  "/>
<polyline clip-path="url(#clip252)" style="stroke:#000000; stroke-width:2; stroke-opacity:0.1; fill:none" points="
  110.881,1445.72 2352.76,1445.72 
  "/>
<polyline clip-path="url(#clip252)" style="stroke:#000000; stroke-width:2; stroke-opacity:0.1; fill:none" points="
  110.881,1008.9 2352.76,1008.9 
  "/>
<polyline clip-path="url(#clip252)" style="stroke:#000000; stroke-width:2; stroke-opacity:0.1; fill:none" points="
  110.881,572.093 2352.76,572.093 
  "/>
<polyline clip-path="url(#clip252)" style="stroke:#000000; stroke-width:2; stroke-opacity:0.1; fill:none" points="
  110.881,135.282 2352.76,135.282 
  "/>
<polyline clip-path="url(#clip250)" style="stroke:#000000; stroke-width:4; stroke-opacity:1; fill:none" points="
  110.881,1486.45 2352.76,1486.45 
  "/>
<polyline clip-path="url(#clip250)" style="stroke:#000000; stroke-width:4; stroke-opacity:1; fill:none" points="
  110.881,1486.45 110.881,47.2441 
  "/>
<polyline clip-path="url(#clip250)" style="stroke:#000000; stroke-width:4; stroke-opacity:1; fill:none" points="
  174.084,1486.45 174.084,1469.18 
  "/>
<polyline clip-path="url(#clip250)" style="stroke:#000000; stroke-width:4; stroke-opacity:1; fill:none" points="
  693.322,1486.45 693.322,1469.18 
  "/>
<polyline clip-path="url(#clip250)" style="stroke:#000000; stroke-width:4; stroke-opacity:1; fill:none" points="
  1212.56,1486.45 1212.56,1469.18 
  "/>
<polyline clip-path="url(#clip250)" style="stroke:#000000; stroke-width:4; stroke-opacity:1; fill:none" points="
  1731.8,1486.45 1731.8,1469.18 
  "/>
<polyline clip-path="url(#clip250)" style="stroke:#000000; stroke-width:4; stroke-opacity:1; fill:none" points="
  2251.04,1486.45 2251.04,1469.18 
  "/>
<polyline clip-path="url(#clip250)" style="stroke:#000000; stroke-width:4; stroke-opacity:1; fill:none" points="
  110.881,1445.72 137.783,1445.72 
  "/>
<polyline clip-path="url(#clip250)" style="stroke:#000000; stroke-width:4; stroke-opacity:1; fill:none" points="
  110.881,1008.9 137.783,1008.9 
  "/>
<polyline clip-path="url(#clip250)" style="stroke:#000000; stroke-width:4; stroke-opacity:1; fill:none" points="
  110.881,572.093 137.783,572.093 
  "/>
<polyline clip-path="url(#clip250)" style="stroke:#000000; stroke-width:4; stroke-opacity:1; fill:none" points="
  110.881,135.282 137.783,135.282 
  "/>
<path clip-path="url(#clip250)" d="M 0 0 M146.341 1521.29 Q149.698 1522 151.573 1524.27 Q153.471 1526.54 153.471 1529.87 Q153.471 1534.99 149.953 1537.79 Q146.434 1540.59 139.953 1540.59 Q137.777 1540.59 135.462 1540.15 Q133.17 1539.73 130.717 1538.88 L130.717 1534.36 Q132.661 1535.5 134.976 1536.08 Q137.291 1536.66 139.814 1536.66 Q144.212 1536.66 146.504 1534.92 Q148.818 1533.18 148.818 1529.87 Q148.818 1526.82 146.666 1525.11 Q144.536 1523.37 140.717 1523.37 L136.689 1523.37 L136.689 1519.53 L140.902 1519.53 Q144.351 1519.53 146.179 1518.16 Q148.008 1516.77 148.008 1514.18 Q148.008 1511.52 146.11 1510.11 Q144.235 1508.67 140.717 1508.67 Q138.795 1508.67 136.596 1509.09 Q134.397 1509.5 131.758 1510.38 L131.758 1506.22 Q134.42 1505.48 136.735 1505.11 Q139.073 1504.73 141.133 1504.73 Q146.457 1504.73 149.559 1507.17 Q152.661 1509.57 152.661 1513.69 Q152.661 1516.56 151.017 1518.55 Q149.374 1520.52 146.341 1521.29 Z" fill="#000000" fill-rule="evenodd" fill-opacity="1" /><path clip-path="url(#clip250)" d="M 0 0 M158.54 1534.04 L163.425 1534.04 L163.425 1539.92 L158.54 1539.92 L158.54 1534.04 Z" fill="#000000" fill-rule="evenodd" fill-opacity="1" /><path clip-path="url(#clip250)" d="M 0 0 M178.494 1508.44 Q174.883 1508.44 173.054 1512 Q171.249 1515.55 171.249 1522.67 Q171.249 1529.78 173.054 1533.35 Q174.883 1536.89 178.494 1536.89 Q182.128 1536.89 183.934 1533.35 Q185.763 1529.78 185.763 1522.67 Q185.763 1515.55 183.934 1512 Q182.128 1508.44 178.494 1508.44 M178.494 1504.73 Q184.304 1504.73 187.36 1509.34 Q190.438 1513.92 190.438 1522.67 Q190.438 1531.4 187.36 1536.01 Q184.304 1540.59 178.494 1540.59 Q172.684 1540.59 169.605 1536.01 Q166.55 1531.4 166.55 1522.67 Q166.55 1513.92 169.605 1509.34 Q172.684 1504.73 178.494 1504.73 Z" fill="#000000" fill-rule="evenodd" fill-opacity="1" /><path clip-path="url(#clip250)" d="M 0 0 M205.508 1508.44 Q201.897 1508.44 200.068 1512 Q198.263 1515.55 198.263 1522.67 Q198.263 1529.78 200.068 1533.35 Q201.897 1536.89 205.508 1536.89 Q209.142 1536.89 210.948 1533.35 Q212.776 1529.78 212.776 1522.67 Q212.776 1515.55 210.948 1512 Q209.142 1508.44 205.508 1508.44 M205.508 1504.73 Q211.318 1504.73 214.374 1509.34 Q217.452 1513.92 217.452 1522.67 Q217.452 1531.4 214.374 1536.01 Q211.318 1540.59 205.508 1540.59 Q199.698 1540.59 196.619 1536.01 Q193.563 1531.4 193.563 1522.67 Q193.563 1513.92 196.619 1509.34 Q199.698 1504.73 205.508 1504.73 Z" fill="#000000" fill-rule="evenodd" fill-opacity="1" /><path clip-path="url(#clip250)" d="M 0 0 M666.876 1521.29 Q670.232 1522 672.107 1524.27 Q674.005 1526.54 674.005 1529.87 Q674.005 1534.99 670.487 1537.79 Q666.968 1540.59 660.487 1540.59 Q658.311 1540.59 655.996 1540.15 Q653.705 1539.73 651.251 1538.88 L651.251 1534.36 Q653.195 1535.5 655.51 1536.08 Q657.825 1536.66 660.348 1536.66 Q664.746 1536.66 667.038 1534.92 Q669.353 1533.18 669.353 1529.87 Q669.353 1526.82 667.2 1525.11 Q665.07 1523.37 661.251 1523.37 L657.223 1523.37 L657.223 1519.53 L661.436 1519.53 Q664.885 1519.53 666.714 1518.16 Q668.542 1516.77 668.542 1514.18 Q668.542 1511.52 666.644 1510.11 Q664.769 1508.67 661.251 1508.67 Q659.33 1508.67 657.13 1509.09 Q654.931 1509.5 652.293 1510.38 L652.293 1506.22 Q654.955 1505.48 657.269 1505.11 Q659.607 1504.73 661.667 1504.73 Q666.992 1504.73 670.093 1507.17 Q673.195 1509.57 673.195 1513.69 Q673.195 1516.56 671.552 1518.55 Q669.908 1520.52 666.876 1521.29 Z" fill="#000000" fill-rule="evenodd" fill-opacity="1" /><path clip-path="url(#clip250)" d="M 0 0 M679.075 1534.04 L683.959 1534.04 L683.959 1539.92 L679.075 1539.92 L679.075 1534.04 Z" fill="#000000" fill-rule="evenodd" fill-opacity="1" /><path clip-path="url(#clip250)" d="M 0 0 M693.056 1535.98 L709.376 1535.98 L709.376 1539.92 L687.431 1539.92 L687.431 1535.98 Q690.093 1533.23 694.677 1528.6 Q699.283 1523.95 700.464 1522.61 Q702.709 1520.08 703.589 1518.35 Q704.491 1516.59 704.491 1514.9 Q704.491 1512.14 702.547 1510.41 Q700.626 1508.67 697.524 1508.67 Q695.325 1508.67 692.871 1509.43 Q690.44 1510.2 687.663 1511.75 L687.663 1507.03 Q690.487 1505.89 692.94 1505.31 Q695.394 1504.73 697.431 1504.73 Q702.802 1504.73 705.996 1507.42 Q709.19 1510.11 709.19 1514.6 Q709.19 1516.73 708.38 1518.65 Q707.593 1520.54 705.487 1523.14 Q704.908 1523.81 701.806 1527.03 Q698.704 1530.22 693.056 1535.98 Z" fill="#000000" fill-rule="evenodd" fill-opacity="1" /><path clip-path="url(#clip250)" d="M 0 0 M714.491 1505.36 L732.848 1505.36 L732.848 1509.3 L718.774 1509.3 L718.774 1517.77 Q719.792 1517.42 720.811 1517.26 Q721.829 1517.07 722.848 1517.07 Q728.635 1517.07 732.014 1520.24 Q735.394 1523.42 735.394 1528.83 Q735.394 1534.41 731.922 1537.51 Q728.45 1540.59 722.13 1540.59 Q719.954 1540.59 717.686 1540.22 Q715.44 1539.85 713.033 1539.11 L713.033 1534.41 Q715.116 1535.54 717.338 1536.1 Q719.561 1536.66 722.038 1536.66 Q726.042 1536.66 728.38 1534.55 Q730.718 1532.44 730.718 1528.83 Q730.718 1525.22 728.38 1523.11 Q726.042 1521.01 722.038 1521.01 Q720.163 1521.01 718.288 1521.42 Q716.436 1521.84 714.491 1522.72 L714.491 1505.36 Z" fill="#000000" fill-rule="evenodd" fill-opacity="1" /><path clip-path="url(#clip250)" d="M 0 0 M1185.32 1521.29 Q1188.67 1522 1190.55 1524.27 Q1192.44 1526.54 1192.44 1529.87 Q1192.44 1534.99 1188.93 1537.79 Q1185.41 1540.59 1178.93 1540.59 Q1176.75 1540.59 1174.44 1540.15 Q1172.14 1539.73 1169.69 1538.88 L1169.69 1534.36 Q1171.63 1535.5 1173.95 1536.08 Q1176.26 1536.66 1178.79 1536.66 Q1183.19 1536.66 1185.48 1534.92 Q1187.79 1533.18 1187.79 1529.87 Q1187.79 1526.82 1185.64 1525.11 Q1183.51 1523.37 1179.69 1523.37 L1175.66 1523.37 L1175.66 1519.53 L1179.88 1519.53 Q1183.32 1519.53 1185.15 1518.16 Q1186.98 1516.77 1186.98 1514.18 Q1186.98 1511.52 1185.08 1510.11 Q1183.21 1508.67 1179.69 1508.67 Q1177.77 1508.67 1175.57 1509.09 Q1173.37 1509.5 1170.73 1510.38 L1170.73 1506.22 Q1173.39 1505.48 1175.71 1505.11 Q1178.05 1504.73 1180.11 1504.73 Q1185.43 1504.73 1188.53 1507.17 Q1191.63 1509.57 1191.63 1513.69 Q1191.63 1516.56 1189.99 1518.55 Q1188.35 1520.52 1185.32 1521.29 Z" fill="#000000" fill-rule="evenodd" fill-opacity="1" /><path clip-path="url(#clip250)" d="M 0 0 M1197.51 1534.04 L1202.4 1534.04 L1202.4 1539.92 L1197.51 1539.92 L1197.51 1534.04 Z" fill="#000000" fill-rule="evenodd" fill-opacity="1" /><path clip-path="url(#clip250)" d="M 0 0 M1207.51 1505.36 L1225.87 1505.36 L1225.87 1509.3 L1211.8 1509.3 L1211.8 1517.77 Q1212.82 1517.42 1213.83 1517.26 Q1214.85 1517.07 1215.87 1517.07 Q1221.66 1517.07 1225.04 1520.24 Q1228.42 1523.42 1228.42 1528.83 Q1228.42 1534.41 1224.94 1537.51 Q1221.47 1540.59 1215.15 1540.59 Q1212.98 1540.59 1210.71 1540.22 Q1208.46 1539.85 1206.06 1539.11 L1206.06 1534.41 Q1208.14 1535.54 1210.36 1536.1 Q1212.58 1536.66 1215.06 1536.66 Q1219.07 1536.66 1221.4 1534.55 Q1223.74 1532.44 1223.74 1528.83 Q1223.74 1525.22 1221.4 1523.11 Q1219.07 1521.01 1215.06 1521.01 Q1213.19 1521.01 1211.31 1521.42 Q1209.46 1521.84 1207.51 1522.72 L1207.51 1505.36 Z" fill="#000000" fill-rule="evenodd" fill-opacity="1" /><path clip-path="url(#clip250)" d="M 0 0 M1243.49 1508.44 Q1239.88 1508.44 1238.05 1512 Q1236.24 1515.55 1236.24 1522.67 Q1236.24 1529.78 1238.05 1533.35 Q1239.88 1536.89 1243.49 1536.89 Q1247.12 1536.89 1248.93 1533.35 Q1250.75 1529.78 1250.75 1522.67 Q1250.75 1515.55 1248.93 1512 Q1247.12 1508.44 1243.49 1508.44 M1243.49 1504.73 Q1249.3 1504.73 1252.35 1509.34 Q1255.43 1513.92 1255.43 1522.67 Q1255.43 1531.4 1252.35 1536.01 Q1249.3 1540.59 1243.49 1540.59 Q1237.68 1540.59 1234.6 1536.01 Q1231.54 1531.4 1231.54 1522.67 Q1231.54 1513.92 1234.6 1509.34 Q1237.68 1504.73 1243.49 1504.73 Z" fill="#000000" fill-rule="evenodd" fill-opacity="1" /><path clip-path="url(#clip250)" d="M 0 0 M1705 1521.29 Q1708.36 1522 1710.24 1524.27 Q1712.13 1526.54 1712.13 1529.87 Q1712.13 1534.99 1708.62 1537.79 Q1705.1 1540.59 1698.62 1540.59 Q1696.44 1540.59 1694.13 1540.15 Q1691.83 1539.73 1689.38 1538.88 L1689.38 1534.36 Q1691.32 1535.5 1693.64 1536.08 Q1695.95 1536.66 1698.48 1536.66 Q1702.88 1536.66 1705.17 1534.92 Q1707.48 1533.18 1707.48 1529.87 Q1707.48 1526.82 1705.33 1525.11 Q1703.2 1523.37 1699.38 1523.37 L1695.35 1523.37 L1695.35 1519.53 L1699.56 1519.53 Q1703.01 1519.53 1704.84 1518.16 Q1706.67 1516.77 1706.67 1514.18 Q1706.67 1511.52 1704.77 1510.11 Q1702.9 1508.67 1699.38 1508.67 Q1697.46 1508.67 1695.26 1509.09 Q1693.06 1509.5 1690.42 1510.38 L1690.42 1506.22 Q1693.08 1505.48 1695.4 1505.11 Q1697.74 1504.73 1699.8 1504.73 Q1705.12 1504.73 1708.22 1507.17 Q1711.32 1509.57 1711.32 1513.69 Q1711.32 1516.56 1709.68 1518.55 Q1708.04 1520.52 1705 1521.29 Z" fill="#000000" fill-rule="evenodd" fill-opacity="1" /><path clip-path="url(#clip250)" d="M 0 0 M1717.2 1534.04 L1722.09 1534.04 L1722.09 1539.92 L1717.2 1539.92 L1717.2 1534.04 Z" fill="#000000" fill-rule="evenodd" fill-opacity="1" /><path clip-path="url(#clip250)" d="M 0 0 M1725.98 1505.36 L1748.2 1505.36 L1748.2 1507.35 L1735.65 1539.92 L1730.77 1539.92 L1742.57 1509.3 L1725.98 1509.3 L1725.98 1505.36 Z" fill="#000000" fill-rule="evenodd" fill-opacity="1" /><path clip-path="url(#clip250)" d="M 0 0 M1753.31 1505.36 L1771.67 1505.36 L1771.67 1509.3 L1757.6 1509.3 L1757.6 1517.77 Q1758.62 1517.42 1759.63 1517.26 Q1760.65 1517.07 1761.67 1517.07 Q1767.46 1517.07 1770.84 1520.24 Q1774.22 1523.42 1774.22 1528.83 Q1774.22 1534.41 1770.75 1537.51 Q1767.27 1540.59 1760.95 1540.59 Q1758.78 1540.59 1756.51 1540.22 Q1754.26 1539.85 1751.86 1539.11 L1751.86 1534.41 Q1753.94 1535.54 1756.16 1536.1 Q1758.38 1536.66 1760.86 1536.66 Q1764.87 1536.66 1767.2 1534.55 Q1769.54 1532.44 1769.54 1528.83 Q1769.54 1525.22 1767.2 1523.11 Q1764.87 1521.01 1760.86 1521.01 Q1758.99 1521.01 1757.11 1521.42 Q1755.26 1521.84 1753.31 1522.72 L1753.31 1505.36 Z" fill="#000000" fill-rule="evenodd" fill-opacity="1" /><path clip-path="url(#clip250)" d="M 0 0 M2222.06 1509.43 L2210.25 1527.88 L2222.06 1527.88 L2222.06 1509.43 M2220.83 1505.36 L2226.71 1505.36 L2226.71 1527.88 L2231.64 1527.88 L2231.64 1531.77 L2226.71 1531.77 L2226.71 1539.92 L2222.06 1539.92 L2222.06 1531.77 L2206.45 1531.77 L2206.45 1527.26 L2220.83 1505.36 Z" fill="#000000" fill-rule="evenodd" fill-opacity="1" /><path clip-path="url(#clip250)" d="M 0 0 M2236.71 1534.04 L2241.59 1534.04 L2241.59 1539.92 L2236.71 1539.92 L2236.71 1534.04 Z" fill="#000000" fill-rule="evenodd" fill-opacity="1" /><path clip-path="url(#clip250)" d="M 0 0 M2256.66 1508.44 Q2253.05 1508.44 2251.22 1512 Q2249.42 1515.55 2249.42 1522.67 Q2249.42 1529.78 2251.22 1533.35 Q2253.05 1536.89 2256.66 1536.89 Q2260.3 1536.89 2262.1 1533.35 Q2263.93 1529.78 2263.93 1522.67 Q2263.93 1515.55 2262.1 1512 Q2260.3 1508.44 2256.66 1508.44 M2256.66 1504.73 Q2262.47 1504.73 2265.53 1509.34 Q2268.61 1513.92 2268.61 1522.67 Q2268.61 1531.4 2265.53 1536.01 Q2262.47 1540.59 2256.66 1540.59 Q2250.85 1540.59 2247.77 1536.01 Q2244.72 1531.4 2244.72 1522.67 Q2244.72 1513.92 2247.77 1509.34 Q2250.85 1504.73 2256.66 1504.73 Z" fill="#000000" fill-rule="evenodd" fill-opacity="1" /><path clip-path="url(#clip250)" d="M 0 0 M2283.68 1508.44 Q2280.06 1508.44 2278.24 1512 Q2276.43 1515.55 2276.43 1522.67 Q2276.43 1529.78 2278.24 1533.35 Q2280.06 1536.89 2283.68 1536.89 Q2287.31 1536.89 2289.12 1533.35 Q2290.94 1529.78 2290.94 1522.67 Q2290.94 1515.55 2289.12 1512 Q2287.31 1508.44 2283.68 1508.44 M2283.68 1504.73 Q2289.49 1504.73 2292.54 1509.34 Q2295.62 1513.92 2295.62 1522.67 Q2295.62 1531.4 2292.54 1536.01 Q2289.49 1540.59 2283.68 1540.59 Q2277.87 1540.59 2274.79 1536.01 Q2271.73 1531.4 2271.73 1522.67 Q2271.73 1513.92 2274.79 1509.34 Q2277.87 1504.73 2283.68 1504.73 Z" fill="#000000" fill-rule="evenodd" fill-opacity="1" /><path clip-path="url(#clip250)" d="M 0 0 M74.9365 1431.51 Q71.3254 1431.51 69.4967 1435.08 Q67.6912 1438.62 67.6912 1445.75 Q67.6912 1452.86 69.4967 1456.42 Q71.3254 1459.96 74.9365 1459.96 Q78.5707 1459.96 80.3763 1456.42 Q82.205 1452.86 82.205 1445.75 Q82.205 1438.62 80.3763 1435.08 Q78.5707 1431.51 74.9365 1431.51 M74.9365 1427.81 Q80.7467 1427.81 83.8022 1432.42 Q86.8809 1437 86.8809 1445.75 Q86.8809 1454.48 83.8022 1459.08 Q80.7467 1463.67 74.9365 1463.67 Q69.1264 1463.67 66.0477 1459.08 Q62.9921 1454.48 62.9921 1445.75 Q62.9921 1437 66.0477 1432.42 Q69.1264 1427.81 74.9365 1427.81 Z" fill="#000000" fill-rule="evenodd" fill-opacity="1" /><path clip-path="url(#clip250)" d="M 0 0 M66.9736 1022.25 L74.6124 1022.25 L74.6124 995.884 L66.3023 997.55 L66.3023 993.291 L74.5661 991.624 L79.242 991.624 L79.242 1022.25 L86.8809 1022.25 L86.8809 1026.18 L66.9736 1026.18 L66.9736 1022.25 Z" fill="#000000" fill-rule="evenodd" fill-opacity="1" /><path clip-path="url(#clip250)" d="M 0 0 M70.5615 585.438 L86.8809 585.438 L86.8809 589.373 L64.9366 589.373 L64.9366 585.438 Q67.5986 582.683 72.1819 578.054 Q76.7883 573.401 77.9689 572.058 Q80.2143 569.535 81.0939 567.799 Q81.9967 566.04 81.9967 564.35 Q81.9967 561.596 80.0522 559.859 Q78.1309 558.123 75.0291 558.123 Q72.83 558.123 70.3763 558.887 Q67.9458 559.651 65.168 561.202 L65.168 556.48 Q67.9921 555.346 70.4458 554.767 Q72.8995 554.188 74.9365 554.188 Q80.3068 554.188 83.5013 556.873 Q86.6957 559.558 86.6957 564.049 Q86.6957 566.179 85.8855 568.1 Q85.0985 569.998 82.992 572.591 Q82.4133 573.262 79.3115 576.48 Q76.2096 579.674 70.5615 585.438 Z" fill="#000000" fill-rule="evenodd" fill-opacity="1" /><path clip-path="url(#clip250)" d="M 0 0 M79.7513 133.928 Q83.1078 134.645 84.9827 136.914 Q86.8809 139.182 86.8809 142.516 Q86.8809 147.631 83.3624 150.432 Q79.8439 153.233 73.3624 153.233 Q71.1865 153.233 68.8717 152.793 Q66.5801 152.377 64.1264 151.52 L64.1264 147.006 Q66.0708 148.141 68.3856 148.719 Q70.7004 149.298 73.2236 149.298 Q77.6217 149.298 79.9133 147.562 Q82.2281 145.826 82.2281 142.516 Q82.2281 139.46 80.0754 137.747 Q77.9457 136.011 74.1263 136.011 L70.0986 136.011 L70.0986 132.168 L74.3115 132.168 Q77.7606 132.168 79.5893 130.803 Q81.418 129.414 81.418 126.821 Q81.418 124.159 79.5198 122.747 Q77.6448 121.312 74.1263 121.312 Q72.205 121.312 70.006 121.729 Q67.8069 122.145 65.168 123.025 L65.168 118.858 Q67.8301 118.118 70.1449 117.747 Q72.4828 117.377 74.543 117.377 Q79.867 117.377 82.9689 119.807 Q86.0707 122.215 86.0707 126.335 Q86.0707 129.206 84.4272 131.196 Q82.7837 133.164 79.7513 133.928 Z" fill="#000000" fill-rule="evenodd" fill-opacity="1" /><path clip-path="url(#clip252)" d="
M174.33 582.139 L174.594 579.531 L174.858 576.926 L175.122 574.323 L175.386 571.723 L175.65 569.126 L175.914 566.531 L176.178 563.939 L176.442 561.349 L176.706 558.763 
  L176.97 556.179 L177.234 553.598 L177.498 551.021 L177.762 548.446 L178.026 545.875 L178.29 543.306 L178.554 540.741 L178.818 538.179 L179.082 535.621 L179.346 533.066 
  L179.61 530.514 L179.874 527.966 L180.138 525.422 L180.402 522.881 L180.666 520.344 L180.93 517.81 L181.194 515.281 L181.458 512.755 L181.722 510.233 L181.986 507.715 
  L182.25 505.201 L182.514 502.691 L182.778 500.185 L183.042 497.684 L183.306 495.186 L183.57 492.693 L183.834 490.204 L184.098 487.72 L184.362 485.24 L184.626 482.765 
  L184.89 480.294 L185.154 477.827 L185.418 475.366 L185.682 472.909 L185.946 470.457 L186.21 468.009 L186.474 465.567 L186.738 463.129 L187.002 460.696 L187.266 458.269 
  L187.53 455.846 L187.794 453.429 L188.058 451.016 L188.322 448.609 L188.586 446.207 L188.85 443.811 L189.114 441.42 L189.378 439.034 L189.642 436.654 L189.906 434.279 
  L190.17 431.91 L190.434 429.546 L190.698 427.189 L190.962 424.836 L191.226 422.49 L191.49 420.149 L191.754 417.815 L192.018 415.486 L192.282 413.163 L192.546 410.846 
  L192.81 408.535 L193.074 406.23 L193.338 403.932 L193.602 401.639 L193.866 399.353 L194.13 397.073 L194.394 394.799 L194.658 392.532 L194.921 390.271 L195.185 388.017 
  L195.449 385.769 L195.713 383.528 L195.977 381.293 L196.241 379.065 L196.505 376.843 L196.769 374.628 L197.033 372.42 L197.297 370.219 L197.561 368.025 L197.825 365.837 
  L198.089 363.657 L198.353 361.483 L198.617 359.316 L198.881 357.157 L199.145 355.004 L199.409 352.859 L199.673 350.721 L199.937 348.59 L200.201 346.466 L200.465 344.349 
  L200.465 1445.72 L200.201 1445.72 L199.937 1445.72 L199.673 1445.72 L199.409 1445.72 L199.145 1445.72 L198.881 1445.72 L198.617 1445.72 L198.353 1445.72 L198.089 1445.72 
  L197.825 1445.72 L197.561 1445.72 L197.297 1445.72 L197.033 1445.72 L196.769 1445.72 L196.505 1445.72 L196.241 1445.72 L195.977 1445.72 L195.713 1445.72 L195.449 1445.72 
  L195.185 1445.72 L194.921 1445.72 L194.658 1445.72 L194.394 1445.72 L194.13 1445.72 L193.866 1445.72 L193.602 1445.72 L193.338 1445.72 L193.074 1445.72 L192.81 1445.72 
  L192.546 1445.72 L192.282 1445.72 L192.018 1445.72 L191.754 1445.72 L191.49 1445.72 L191.226 1445.72 L190.962 1445.72 L190.698 1445.72 L190.434 1445.72 L190.17 1445.72 
  L189.906 1445.72 L189.642 1445.72 L189.378 1445.72 L189.114 1445.72 L188.85 1445.72 L188.586 1445.72 L188.322 1445.72 L188.058 1445.72 L187.794 1445.72 L187.53 1445.72 
  L187.266 1445.72 L187.002 1445.72 L186.738 1445.72 L186.474 1445.72 L186.21 1445.72 L185.946 1445.72 L185.682 1445.72 L185.418 1445.72 L185.154 1445.72 L184.89 1445.72 
  L184.626 1445.72 L184.362 1445.72 L184.098 1445.72 L183.834 1445.72 L183.57 1445.72 L183.306 1445.72 L183.042 1445.72 L182.778 1445.72 L182.514 1445.72 L182.25 1445.72 
  L181.986 1445.72 L181.722 1445.72 L181.458 1445.72 L181.194 1445.72 L180.93 1445.72 L180.666 1445.72 L180.402 1445.72 L180.138 1445.72 L179.874 1445.72 L179.61 1445.72 
  L179.346 1445.72 L179.082 1445.72 L178.818 1445.72 L178.554 1445.72 L178.29 1445.72 L178.026 1445.72 L177.762 1445.72 L177.498 1445.72 L177.234 1445.72 L176.97 1445.72 
  L176.706 1445.72 L176.442 1445.72 L176.178 1445.72 L175.914 1445.72 L175.65 1445.72 L175.386 1445.72 L175.122 1445.72 L174.858 1445.72 L174.594 1445.72 L174.33 1445.72 
   Z
  " fill="#ffa500" fill-rule="evenodd" fill-opacity="0.5"/>
<polyline clip-path="url(#clip252)" style="stroke:#ffa500; stroke-width:4; stroke-opacity:1; fill:none" points="
  174.33,582.139 174.594,579.531 174.858,576.926 175.122,574.323 175.386,571.723 175.65,569.126 175.914,566.531 176.178,563.939 176.442,561.349 176.706,558.763 
  176.97,556.179 177.234,553.598 177.498,551.021 177.762,548.446 178.026,545.875 178.29,543.306 178.554,540.741 178.818,538.179 179.082,535.621 179.346,533.066 
  179.61,530.514 179.874,527.966 180.138,525.422 180.402,522.881 180.666,520.344 180.93,517.81 181.194,515.281 181.458,512.755 181.722,510.233 181.986,507.715 
  182.25,505.201 182.514,502.691 182.778,500.185 183.042,497.684 183.306,495.186 183.57,492.693 183.834,490.204 184.098,487.72 184.362,485.24 184.626,482.765 
  184.89,480.294 185.154,477.827 185.418,475.366 185.682,472.909 185.946,470.457 186.21,468.009 186.474,465.567 186.738,463.129 187.002,460.696 187.266,458.269 
  187.53,455.846 187.794,453.429 188.058,451.016 188.322,448.609 188.586,446.207 188.85,443.811 189.114,441.42 189.378,439.034 189.642,436.654 189.906,434.279 
  190.17,431.91 190.434,429.546 190.698,427.189 190.962,424.836 191.226,422.49 191.49,420.149 191.754,417.815 192.018,415.486 192.282,413.163 192.546,410.846 
  192.81,408.535 193.074,406.23 193.338,403.932 193.602,401.639 193.866,399.353 194.13,397.073 194.394,394.799 194.658,392.532 194.921,390.271 195.185,388.017 
  195.449,385.769 195.713,383.528 195.977,381.293 196.241,379.065 196.505,376.843 196.769,374.628 197.033,372.42 197.297,370.219 197.561,368.025 197.825,365.837 
  198.089,363.657 198.353,361.483 198.617,359.316 198.881,357.157 199.145,355.004 199.409,352.859 199.673,350.721 199.937,348.59 200.201,346.466 200.465,344.349 
  
  "/>
<path clip-path="url(#clip252)" d="
M200.465 344.349 L214.764 241.531 L229.062 164.486 L243.361 114.64 L257.659 90.4324 L271.957 87.9763 L286.256 102.034 L300.554 127.065 L314.853 158.131 L329.151 191.489 
  L343.449 224.862 L357.748 257.374 L372.046 289.255 L386.345 321.4 L400.643 354.898 L414.941 390.602 L429.24 428.831 L443.538 469.222 L457.837 510.77 L472.135 552.029 
  L486.433 591.429 L500.732 627.627 L515.03 659.797 L529.329 687.77 L543.627 711.997 L557.925 733.33 L572.224 752.713 L586.522 770.865 L600.821 788.065 L615.119 804.108 
  L629.418 818.43 L643.716 830.364 L658.014 839.446 L672.313 845.67 L686.611 849.608 L700.91 852.367 L715.208 855.373 L729.506 860.059 L743.805 867.525 L758.103 878.273 
  L772.402 892.085 L786.7 908.071 L800.998 924.864 L815.297 940.921 L829.595 954.847 L843.894 965.677 L858.192 973.057 L872.49 977.279 L886.789 979.171 L901.087 979.867 
  L915.386 980.511 L929.684 982 L943.982 984.811 L958.281 988.99 L972.579 994.275 L986.878 1000.29 L1001.18 1006.74 L1015.47 1013.54 L1029.77 1020.78 L1044.07 1028.67 
  L1058.37 1037.36 L1072.67 1046.91 L1086.97 1057.22 L1101.26 1068.12 L1115.56 1079.4 L1129.86 1090.96 L1144.16 1102.75 L1158.46 1114.74 L1172.76 1126.87 L1187.06 1138.91 
  L1201.35 1150.51 L1215.65 1161.17 L1229.95 1170.44 L1244.25 1177.98 L1258.55 1183.73 L1272.85 1187.94 L1287.14 1191.16 L1301.44 1194.06 L1315.74 1197.36 L1330.04 1201.59 
  L1344.34 1207.06 L1358.64 1213.79 L1372.93 1221.64 L1387.23 1230.29 L1401.53 1239.43 L1415.83 1248.76 L1430.13 1257.99 L1444.43 1266.83 L1458.73 1274.94 L1473.02 1281.91 
  L1487.32 1287.3 L1501.62 1290.71 L1515.92 1291.89 L1530.22 1290.79 L1544.52 1287.67 L1558.81 1283.09 L1573.11 1277.84 L1587.41 1272.87 L1601.71 1269.13 L1616.01 1267.4 
  L1616.01 1445.72 L1601.71 1445.72 L1587.41 1445.72 L1573.11 1445.72 L1558.81 1445.72 L1544.52 1445.72 L1530.22 1445.72 L1515.92 1445.72 L1501.62 1445.72 L1487.32 1445.72 
  L1473.02 1445.72 L1458.73 1445.72 L1444.43 1445.72 L1430.13 1445.72 L1415.83 1445.72 L1401.53 1445.72 L1387.23 1445.72 L1372.93 1445.72 L1358.64 1445.72 L1344.34 1445.72 
  L1330.04 1445.72 L1315.74 1445.72 L1301.44 1445.72 L1287.14 1445.72 L1272.85 1445.72 L1258.55 1445.72 L1244.25 1445.72 L1229.95 1445.72 L1215.65 1445.72 L1201.35 1445.72 
  L1187.06 1445.72 L1172.76 1445.72 L1158.46 1445.72 L1144.16 1445.72 L1129.86 1445.72 L1115.56 1445.72 L1101.26 1445.72 L1086.97 1445.72 L1072.67 1445.72 L1058.37 1445.72 
  L1044.07 1445.72 L1029.77 1445.72 L1015.47 1445.72 L1001.18 1445.72 L986.878 1445.72 L972.579 1445.72 L958.281 1445.72 L943.982 1445.72 L929.684 1445.72 L915.386 1445.72 
  L901.087 1445.72 L886.789 1445.72 L872.49 1445.72 L858.192 1445.72 L843.894 1445.72 L829.595 1445.72 L815.297 1445.72 L800.998 1445.72 L786.7 1445.72 L772.402 1445.72 
  L758.103 1445.72 L743.805 1445.72 L729.506 1445.72 L715.208 1445.72 L700.91 1445.72 L686.611 1445.72 L672.313 1445.72 L658.014 1445.72 L643.716 1445.72 L629.418 1445.72 
  L615.119 1445.72 L600.821 1445.72 L586.522 1445.72 L572.224 1445.72 L557.925 1445.72 L543.627 1445.72 L529.329 1445.72 L515.03 1445.72 L500.732 1445.72 L486.433 1445.72 
  L472.135 1445.72 L457.837 1445.72 L443.538 1445.72 L429.24 1445.72 L414.941 1445.72 L400.643 1445.72 L386.345 1445.72 L372.046 1445.72 L357.748 1445.72 L343.449 1445.72 
  L329.151 1445.72 L314.853 1445.72 L300.554 1445.72 L286.256 1445.72 L271.957 1445.72 L257.659 1445.72 L243.361 1445.72 L229.062 1445.72 L214.764 1445.72 L200.465 1445.72 
   Z
  " fill="#008000" fill-rule="evenodd" fill-opacity="0.5"/>
<polyline clip-path="url(#clip252)" style="stroke:#008000; stroke-width:4; stroke-opacity:1; fill:none" points="
  200.465,344.349 214.764,241.531 229.062,164.486 243.361,114.64 257.659,90.4324 271.957,87.9763 286.256,102.034 300.554,127.065 314.853,158.131 329.151,191.489 
  343.449,224.862 357.748,257.374 372.046,289.255 386.345,321.4 400.643,354.898 414.941,390.602 429.24,428.831 443.538,469.222 457.837,510.77 472.135,552.029 
  486.433,591.429 500.732,627.627 515.03,659.797 529.329,687.77 543.627,711.997 557.925,733.33 572.224,752.713 586.522,770.865 600.821,788.065 615.119,804.108 
  629.418,818.43 643.716,830.364 658.014,839.446 672.313,845.67 686.611,849.608 700.91,852.367 715.208,855.373 729.506,860.059 743.805,867.525 758.103,878.273 
  772.402,892.085 786.7,908.071 800.998,924.864 815.297,940.921 829.595,954.847 843.894,965.677 858.192,973.057 872.49,977.279 886.789,979.171 901.087,979.867 
  915.386,980.511 929.684,982 943.982,984.811 958.281,988.99 972.579,994.275 986.878,1000.29 1001.18,1006.74 1015.47,1013.54 1029.77,1020.78 1044.07,1028.67 
  1058.37,1037.36 1072.67,1046.91 1086.97,1057.22 1101.26,1068.12 1115.56,1079.4 1129.86,1090.96 1144.16,1102.75 1158.46,1114.74 1172.76,1126.87 1187.06,1138.91 
  1201.35,1150.51 1215.65,1161.17 1229.95,1170.44 1244.25,1177.98 1258.55,1183.73 1272.85,1187.94 1287.14,1191.16 1301.44,1194.06 1315.74,1197.36 1330.04,1201.59 
  1344.34,1207.06 1358.64,1213.79 1372.93,1221.64 1387.23,1230.29 1401.53,1239.43 1415.83,1248.76 1430.13,1257.99 1444.43,1266.83 1458.73,1274.94 1473.02,1281.91 
  1487.32,1287.3 1501.62,1290.71 1515.92,1291.89 1530.22,1290.79 1544.52,1287.67 1558.81,1283.09 1573.11,1277.84 1587.41,1272.87 1601.71,1269.13 1616.01,1267.4 
  
  "/>
<path clip-path="url(#clip252)" d="
M1616.01 1267.4 L1622.81 1267.44 L1629.61 1268.08 L1636.41 1269.33 L1643.21 1271.19 L1650.01 1273.62 L1656.81 1276.58 L1663.61 1280.03 L1670.42 1283.9 L1677.22 1288.14 
  L1684.02 1292.67 L1690.82 1297.42 L1697.62 1302.33 L1704.42 1307.34 L1711.22 1312.4 L1718.02 1317.46 L1724.82 1322.47 L1731.62 1327.4 L1738.43 1332.21 L1745.23 1336.87 
  L1752.03 1341.36 L1758.83 1345.64 L1765.63 1349.7 L1772.43 1353.52 L1779.23 1357.07 L1786.03 1360.35 L1792.83 1363.35 L1799.63 1366.06 L1806.44 1368.5 L1813.24 1370.66 
  L1820.04 1372.58 L1826.84 1374.27 L1833.64 1375.78 L1840.44 1377.13 L1847.24 1378.38 L1854.04 1379.56 L1860.84 1380.71 L1867.64 1381.88 L1874.45 1383.08 L1881.25 1384.35 
  L1888.05 1385.7 L1894.85 1387.14 L1901.65 1388.66 L1908.45 1390.25 L1915.25 1391.9 L1922.05 1393.58 L1928.85 1395.26 L1935.65 1396.91 L1942.46 1398.52 L1949.26 1400.05 
  L1956.06 1401.48 L1962.86 1402.81 L1969.66 1404.03 L1976.46 1405.13 L1983.26 1406.14 L1990.06 1407.05 L1996.86 1407.91 L2003.66 1408.72 L2010.47 1409.51 L2017.27 1410.31 
  L2024.07 1411.13 L2030.87 1412.01 L2037.67 1412.95 L2044.47 1413.96 L2051.27 1415.04 L2058.07 1416.18 L2064.87 1417.38 L2071.67 1418.62 L2078.48 1419.88 L2085.28 1421.13 
  L2092.08 1422.35 L2098.88 1423.51 L2105.68 1424.59 L2112.48 1425.57 L2119.28 1426.43 L2126.08 1427.16 L2132.88 1427.74 L2139.68 1428.18 L2146.49 1428.47 L2153.29 1428.62 
  L2160.09 1428.64 L2166.89 1428.55 L2173.69 1428.36 L2180.49 1428.1 L2187.29 1427.79 L2194.09 1427.45 L2200.89 1427.12 L2207.69 1426.81 L2214.5 1426.56 L2221.3 1426.37 
  L2228.1 1426.29 L2234.9 1426.31 L2241.7 1426.45 L2248.5 1426.72 L2255.3 1427.13 L2262.1 1427.66 L2268.9 1428.32 L2275.7 1429.09 L2282.51 1429.97 L2289.31 1430.92 
  L2289.31 1445.72 L2282.51 1445.72 L2275.7 1445.72 L2268.9 1445.72 L2262.1 1445.72 L2255.3 1445.72 L2248.5 1445.72 L2241.7 1445.72 L2234.9 1445.72 L2228.1 1445.72 
  L2221.3 1445.72 L2214.5 1445.72 L2207.69 1445.72 L2200.89 1445.72 L2194.09 1445.72 L2187.29 1445.72 L2180.49 1445.72 L2173.69 1445.72 L2166.89 1445.72 L2160.09 1445.72 
  L2153.29 1445.72 L2146.49 1445.72 L2139.68 1445.72 L2132.88 1445.72 L2126.08 1445.72 L2119.28 1445.72 L2112.48 1445.72 L2105.68 1445.72 L2098.88 1445.72 L2092.08 1445.72 
  L2085.28 1445.72 L2078.48 1445.72 L2071.67 1445.72 L2064.87 1445.72 L2058.07 1445.72 L2051.27 1445.72 L2044.47 1445.72 L2037.67 1445.72 L2030.87 1445.72 L2024.07 1445.72 
  L2017.27 1445.72 L2010.47 1445.72 L2003.66 1445.72 L1996.86 1445.72 L1990.06 1445.72 L1983.26 1445.72 L1976.46 1445.72 L1969.66 1445.72 L1962.86 1445.72 L1956.06 1445.72 
  L1949.26 1445.72 L1942.46 1445.72 L1935.65 1445.72 L1928.85 1445.72 L1922.05 1445.72 L1915.25 1445.72 L1908.45 1445.72 L1901.65 1445.72 L1894.85 1445.72 L1888.05 1445.72 
  L1881.25 1445.72 L1874.45 1445.72 L1867.64 1445.72 L1860.84 1445.72 L1854.04 1445.72 L1847.24 1445.72 L1840.44 1445.72 L1833.64 1445.72 L1826.84 1445.72 L1820.04 1445.72 
  L1813.24 1445.72 L1806.44 1445.72 L1799.63 1445.72 L1792.83 1445.72 L1786.03 1445.72 L1779.23 1445.72 L1772.43 1445.72 L1765.63 1445.72 L1758.83 1445.72 L1752.03 1445.72 
  L1745.23 1445.72 L1738.43 1445.72 L1731.62 1445.72 L1724.82 1445.72 L1718.02 1445.72 L1711.22 1445.72 L1704.42 1445.72 L1697.62 1445.72 L1690.82 1445.72 L1684.02 1445.72 
  L1677.22 1445.72 L1670.42 1445.72 L1663.61 1445.72 L1656.81 1445.72 L1650.01 1445.72 L1643.21 1445.72 L1636.41 1445.72 L1629.61 1445.72 L1622.81 1445.72 L1616.01 1445.72 
   Z
  " fill="#ffa500" fill-rule="evenodd" fill-opacity="0.5"/>
<polyline clip-path="url(#clip252)" style="stroke:#ffa500; stroke-width:4; stroke-opacity:1; fill:none" points="
  1616.01,1267.4 1622.81,1267.44 1629.61,1268.08 1636.41,1269.33 1643.21,1271.19 1650.01,1273.62 1656.81,1276.58 1663.61,1280.03 1670.42,1283.9 1677.22,1288.14 
  1684.02,1292.67 1690.82,1297.42 1697.62,1302.33 1704.42,1307.34 1711.22,1312.4 1718.02,1317.46 1724.82,1322.47 1731.62,1327.4 1738.43,1332.21 1745.23,1336.87 
  1752.03,1341.36 1758.83,1345.64 1765.63,1349.7 1772.43,1353.52 1779.23,1357.07 1786.03,1360.35 1792.83,1363.35 1799.63,1366.06 1806.44,1368.5 1813.24,1370.66 
  1820.04,1372.58 1826.84,1374.27 1833.64,1375.78 1840.44,1377.13 1847.24,1378.38 1854.04,1379.56 1860.84,1380.71 1867.64,1381.88 1874.45,1383.08 1881.25,1384.35 
  1888.05,1385.7 1894.85,1387.14 1901.65,1388.66 1908.45,1390.25 1915.25,1391.9 1922.05,1393.58 1928.85,1395.26 1935.65,1396.91 1942.46,1398.52 1949.26,1400.05 
  1956.06,1401.48 1962.86,1402.81 1969.66,1404.03 1976.46,1405.13 1983.26,1406.14 1990.06,1407.05 1996.86,1407.91 2003.66,1408.72 2010.47,1409.51 2017.27,1410.31 
  2024.07,1411.13 2030.87,1412.01 2037.67,1412.95 2044.47,1413.96 2051.27,1415.04 2058.07,1416.18 2064.87,1417.38 2071.67,1418.62 2078.48,1419.88 2085.28,1421.13 
  2092.08,1422.35 2098.88,1423.51 2105.68,1424.59 2112.48,1425.57 2119.28,1426.43 2126.08,1427.16 2132.88,1427.74 2139.68,1428.18 2146.49,1428.47 2153.29,1428.62 
  2160.09,1428.64 2166.89,1428.55 2173.69,1428.36 2180.49,1428.1 2187.29,1427.79 2194.09,1427.45 2200.89,1427.12 2207.69,1426.81 2214.5,1426.56 2221.3,1426.37 
  2228.1,1426.29 2234.9,1426.31 2241.7,1426.45 2248.5,1426.72 2255.3,1427.13 2262.1,1427.66 2268.9,1428.32 2275.7,1429.09 2282.51,1429.97 2289.31,1430.92 
  
  "/>
<polyline clip-path="url(#clip252)" style="stroke:#0000ff; stroke-width:4; stroke-opacity:1; fill:none" points="
  679.536,1445.72 679.536,847.887 
  "/>
<polyline clip-path="url(#clip252)" style="stroke:#000000; stroke-width:4; stroke-opacity:1; fill:none" points="
  549.707,1445.72 549.707,721.365 
  "/>
</svg>
