<?xml version="1.0" encoding="utf-8"?>
<svg xmlns="http://www.w3.org/2000/svg" xmlns:xlink="http://www.w3.org/1999/xlink" width="600" height="400" viewBox="0 0 2400 1600">
<defs>
  <clipPath id="clip320">
    <rect x="0" y="0" width="2400" height="1600"/>
  </clipPath>
</defs>
<path clip-path="url(#clip320)" d="
M0 1600 L2400 1600 L2400 0 L0 0  Z
  " fill="#ffffff" fill-rule="evenodd" fill-opacity="1"/>
<defs>
  <clipPath id="clip321">
    <rect x="480" y="0" width="1681" height="1600"/>
  </clipPath>
</defs>
<path clip-path="url(#clip320)" d="
M86.9921 1521.01 L2352.76 1521.01 L2352.76 47.2441 L86.9921 47.2441  Z
  " fill="#ffffff" fill-rule="evenodd" fill-opacity="1"/>
<defs>
  <clipPath id="clip322">
    <rect x="86" y="47" width="2267" height="1475"/>
  </clipPath>
</defs>
<polyline clip-path="url(#clip322)" style="stroke:#000000; stroke-width:2; stroke-opacity:0.1; fill:none" points="
  284.175,1521.01 284.175,47.2441 
  "/>
<polyline clip-path="url(#clip322)" style="stroke:#000000; stroke-width:2; stroke-opacity:0.1; fill:none" points="
  952.356,1521.01 952.356,47.2441 
  "/>
<polyline clip-path="url(#clip322)" style="stroke:#000000; stroke-width:2; stroke-opacity:0.1; fill:none" points="
  1620.54,1521.01 1620.54,47.2441 
  "/>
<polyline clip-path="url(#clip322)" style="stroke:#000000; stroke-width:2; stroke-opacity:0.1; fill:none" points="
  2288.72,1521.01 2288.72,47.2441 
  "/>
<polyline clip-path="url(#clip322)" style="stroke:#000000; stroke-width:2; stroke-opacity:0.1; fill:none" points="
  86.9921,1479.3 2352.76,1479.3 
  "/>
<polyline clip-path="url(#clip322)" style="stroke:#000000; stroke-width:2; stroke-opacity:0.1; fill:none" points="
  86.9921,1225.04 2352.76,1225.04 
  "/>
<polyline clip-path="url(#clip322)" style="stroke:#000000; stroke-width:2; stroke-opacity:0.1; fill:none" points="
  86.9921,970.774 2352.76,970.774 
  "/>
<polyline clip-path="url(#clip322)" style="stroke:#000000; stroke-width:2; stroke-opacity:0.1; fill:none" points="
  86.9921,716.511 2352.76,716.511 
  "/>
<polyline clip-path="url(#clip322)" style="stroke:#000000; stroke-width:2; stroke-opacity:0.1; fill:none" points="
  86.9921,462.249 2352.76,462.249 
  "/>
<polyline clip-path="url(#clip322)" style="stroke:#000000; stroke-width:2; stroke-opacity:0.1; fill:none" points="
  86.9921,207.987 2352.76,207.987 
  "/>
<polyline clip-path="url(#clip320)" style="stroke:#000000; stroke-width:4; stroke-opacity:1; fill:none" points="
  86.9921,1521.01 2352.76,1521.01 
  "/>
<polyline clip-path="url(#clip320)" style="stroke:#000000; stroke-width:4; stroke-opacity:1; fill:none" points="
  86.9921,1521.01 86.9921,47.2441 
  "/>
<polyline clip-path="url(#clip320)" style="stroke:#000000; stroke-width:4; stroke-opacity:1; fill:none" points="
  284.175,1521.01 284.175,1503.32 
  "/>
<polyline clip-path="url(#clip320)" style="stroke:#000000; stroke-width:4; stroke-opacity:1; fill:none" points="
  952.356,1521.01 952.356,1503.32 
  "/>
<polyline clip-path="url(#clip320)" style="stroke:#000000; stroke-width:4; stroke-opacity:1; fill:none" points="
  1620.54,1521.01 1620.54,1503.32 
  "/>
<polyline clip-path="url(#clip320)" style="stroke:#000000; stroke-width:4; stroke-opacity:1; fill:none" points="
  2288.72,1521.01 2288.72,1503.32 
  "/>
<polyline clip-path="url(#clip320)" style="stroke:#000000; stroke-width:4; stroke-opacity:1; fill:none" points="
  86.9921,1479.3 114.181,1479.3 
  "/>
<polyline clip-path="url(#clip320)" style="stroke:#000000; stroke-width:4; stroke-opacity:1; fill:none" points="
  86.9921,1225.04 114.181,1225.04 
  "/>
<polyline clip-path="url(#clip320)" style="stroke:#000000; stroke-width:4; stroke-opacity:1; fill:none" points="
  86.9921,970.774 114.181,970.774 
  "/>
<polyline clip-path="url(#clip320)" style="stroke:#000000; stroke-width:4; stroke-opacity:1; fill:none" points="
  86.9921,716.511 114.181,716.511 
  "/>
<polyline clip-path="url(#clip320)" style="stroke:#000000; stroke-width:4; stroke-opacity:1; fill:none" points="
  86.9921,462.249 114.181,462.249 
  "/>
<polyline clip-path="url(#clip320)" style="stroke:#000000; stroke-width:4; stroke-opacity:1; fill:none" points="
  86.9921,207.987 114.181,207.987 
  "/>
<path clip-path="url(#clip320)" d="M 0 0 M252.983 1543 Q249.372 1543 247.544 1546.56 Q245.738 1550.11 245.738 1557.23 Q245.738 1564.34 247.544 1567.91 Q249.372 1571.45 252.983 1571.45 Q256.618 1571.45 258.423 1567.91 Q260.252 1564.34 260.252 1557.23 Q260.252 1550.11 258.423 1546.56 Q256.618 1543 252.983 1543 M252.983 1539.29 Q258.794 1539.29 261.849 1543.9 Q264.928 1548.48 264.928 1557.23 Q264.928 1565.96 261.849 1570.57 Q258.794 1575.15 252.983 1575.15 Q247.173 1575.15 244.095 1570.57 Q241.039 1565.96 241.039 1557.23 Q241.039 1548.48 244.095 1543.9 Q247.173 1539.29 252.983 1539.29 Z" fill="#000000" fill-rule="evenodd" fill-opacity="1" /><path clip-path="url(#clip320)" d="M 0 0 M269.997 1568.6 L274.881 1568.6 L274.881 1574.48 L269.997 1574.48 L269.997 1568.6 Z" fill="#000000" fill-rule="evenodd" fill-opacity="1" /><path clip-path="url(#clip320)" d="M 0 0 M289.951 1543 Q286.34 1543 284.511 1546.56 Q282.705 1550.11 282.705 1557.23 Q282.705 1564.34 284.511 1567.91 Q286.34 1571.45 289.951 1571.45 Q293.585 1571.45 295.391 1567.91 Q297.219 1564.34 297.219 1557.23 Q297.219 1550.11 295.391 1546.56 Q293.585 1543 289.951 1543 M289.951 1539.29 Q295.761 1539.29 298.816 1543.9 Q301.895 1548.48 301.895 1557.23 Q301.895 1565.96 298.816 1570.57 Q295.761 1575.15 289.951 1575.15 Q284.141 1575.15 281.062 1570.57 Q278.006 1565.96 278.006 1557.23 Q278.006 1548.48 281.062 1543.9 Q284.141 1539.29 289.951 1539.29 Z" fill="#000000" fill-rule="evenodd" fill-opacity="1" /><path clip-path="url(#clip320)" d="M 0 0 M310.992 1570.54 L327.312 1570.54 L327.312 1574.48 L305.367 1574.48 L305.367 1570.54 Q308.029 1567.79 312.613 1563.16 Q317.219 1558.51 318.4 1557.17 Q320.645 1554.64 321.525 1552.91 Q322.427 1551.15 322.427 1549.46 Q322.427 1546.7 320.483 1544.97 Q318.562 1543.23 315.46 1543.23 Q313.261 1543.23 310.807 1543.99 Q308.377 1544.76 305.599 1546.31 L305.599 1541.59 Q308.423 1540.45 310.877 1539.87 Q313.33 1539.29 315.367 1539.29 Q320.738 1539.29 323.932 1541.98 Q327.126 1544.67 327.126 1549.16 Q327.126 1551.29 326.316 1553.21 Q325.529 1555.1 323.423 1557.7 Q322.844 1558.37 319.742 1561.59 Q316.64 1564.78 310.992 1570.54 Z" fill="#000000" fill-rule="evenodd" fill-opacity="1" /><path clip-path="url(#clip320)" d="M 0 0 M920.689 1543 Q917.078 1543 915.25 1546.56 Q913.444 1550.11 913.444 1557.23 Q913.444 1564.34 915.25 1567.91 Q917.078 1571.45 920.689 1571.45 Q924.324 1571.45 926.129 1567.91 Q927.958 1564.34 927.958 1557.23 Q927.958 1550.11 926.129 1546.56 Q924.324 1543 920.689 1543 M920.689 1539.29 Q926.5 1539.29 929.555 1543.9 Q932.634 1548.48 932.634 1557.23 Q932.634 1565.96 929.555 1570.57 Q926.5 1575.15 920.689 1575.15 Q914.879 1575.15 911.801 1570.57 Q908.745 1565.96 908.745 1557.23 Q908.745 1548.48 911.801 1543.9 Q914.879 1539.29 920.689 1539.29 Z" fill="#000000" fill-rule="evenodd" fill-opacity="1" /><path clip-path="url(#clip320)" d="M 0 0 M937.703 1568.6 L942.587 1568.6 L942.587 1574.48 L937.703 1574.48 L937.703 1568.6 Z" fill="#000000" fill-rule="evenodd" fill-opacity="1" /><path clip-path="url(#clip320)" d="M 0 0 M957.657 1543 Q954.046 1543 952.217 1546.56 Q950.411 1550.11 950.411 1557.23 Q950.411 1564.34 952.217 1567.91 Q954.046 1571.45 957.657 1571.45 Q961.291 1571.45 963.097 1567.91 Q964.925 1564.34 964.925 1557.23 Q964.925 1550.11 963.097 1546.56 Q961.291 1543 957.657 1543 M957.657 1539.29 Q963.467 1539.29 966.522 1543.9 Q969.601 1548.48 969.601 1557.23 Q969.601 1565.96 966.522 1570.57 Q963.467 1575.15 957.657 1575.15 Q951.847 1575.15 948.768 1570.57 Q945.712 1565.96 945.712 1557.23 Q945.712 1548.48 948.768 1543.9 Q951.847 1539.29 957.657 1539.29 Z" fill="#000000" fill-rule="evenodd" fill-opacity="1" /><path clip-path="url(#clip320)" d="M 0 0 M988.837 1555.85 Q992.194 1556.56 994.069 1558.83 Q995.967 1561.1 995.967 1564.43 Q995.967 1569.55 992.448 1572.35 Q988.93 1575.15 982.448 1575.15 Q980.272 1575.15 977.958 1574.71 Q975.666 1574.29 973.212 1573.44 L973.212 1568.92 Q975.157 1570.06 977.471 1570.64 Q979.786 1571.22 982.309 1571.22 Q986.708 1571.22 988.999 1569.48 Q991.314 1567.74 991.314 1564.43 Q991.314 1561.38 989.161 1559.67 Q987.032 1557.93 983.212 1557.93 L979.184 1557.93 L979.184 1554.09 L983.397 1554.09 Q986.846 1554.09 988.675 1552.72 Q990.504 1551.33 990.504 1548.74 Q990.504 1546.08 988.606 1544.67 Q986.731 1543.23 983.212 1543.23 Q981.291 1543.23 979.092 1543.65 Q976.893 1544.06 974.254 1544.94 L974.254 1540.78 Q976.916 1540.04 979.231 1539.67 Q981.569 1539.29 983.629 1539.29 Q988.953 1539.29 992.055 1541.73 Q995.157 1544.13 995.157 1548.25 Q995.157 1551.12 993.513 1553.11 Q991.87 1555.08 988.837 1555.85 Z" fill="#000000" fill-rule="evenodd" fill-opacity="1" /><path clip-path="url(#clip320)" d="M 0 0 M1588.3 1543 Q1584.69 1543 1582.86 1546.56 Q1581.06 1550.11 1581.06 1557.23 Q1581.06 1564.34 1582.86 1567.91 Q1584.69 1571.45 1588.3 1571.45 Q1591.94 1571.45 1593.74 1567.91 Q1595.57 1564.34 1595.57 1557.23 Q1595.57 1550.11 1593.74 1546.56 Q1591.94 1543 1588.3 1543 M1588.3 1539.29 Q1594.11 1539.29 1597.17 1543.9 Q1600.25 1548.48 1600.25 1557.23 Q1600.25 1565.96 1597.17 1570.57 Q1594.11 1575.15 1588.3 1575.15 Q1582.49 1575.15 1579.41 1570.57 Q1576.36 1565.96 1576.36 1557.23 Q1576.36 1548.48 1579.41 1543.9 Q1582.49 1539.29 1588.3 1539.29 Z" fill="#000000" fill-rule="evenodd" fill-opacity="1" /><path clip-path="url(#clip320)" d="M 0 0 M1605.32 1568.6 L1610.2 1568.6 L1610.2 1574.48 L1605.32 1574.48 L1605.32 1568.6 Z" fill="#000000" fill-rule="evenodd" fill-opacity="1" /><path clip-path="url(#clip320)" d="M 0 0 M1625.27 1543 Q1621.66 1543 1619.83 1546.56 Q1618.02 1550.11 1618.02 1557.23 Q1618.02 1564.34 1619.83 1567.91 Q1621.66 1571.45 1625.27 1571.45 Q1628.9 1571.45 1630.71 1567.91 Q1632.54 1564.34 1632.54 1557.23 Q1632.54 1550.11 1630.71 1546.56 Q1628.9 1543 1625.27 1543 M1625.27 1539.29 Q1631.08 1539.29 1634.14 1543.9 Q1637.21 1548.48 1637.21 1557.23 Q1637.21 1565.96 1634.14 1570.57 Q1631.08 1575.15 1625.27 1575.15 Q1619.46 1575.15 1616.38 1570.57 Q1613.33 1565.96 1613.33 1557.23 Q1613.33 1548.48 1616.38 1543.9 Q1619.46 1539.29 1625.27 1539.29 Z" fill="#000000" fill-rule="evenodd" fill-opacity="1" /><path clip-path="url(#clip320)" d="M 0 0 M1655.13 1543.99 L1643.33 1562.44 L1655.13 1562.44 L1655.13 1543.99 M1653.9 1539.92 L1659.78 1539.92 L1659.78 1562.44 L1664.71 1562.44 L1664.71 1566.33 L1659.78 1566.33 L1659.78 1574.48 L1655.13 1574.48 L1655.13 1566.33 L1639.53 1566.33 L1639.53 1561.82 L1653.9 1539.92 Z" fill="#000000" fill-rule="evenodd" fill-opacity="1" /><path clip-path="url(#clip320)" d="M 0 0 M2257.22 1543 Q2253.61 1543 2251.78 1546.56 Q2249.98 1550.11 2249.98 1557.23 Q2249.98 1564.34 2251.78 1567.91 Q2253.61 1571.45 2257.22 1571.45 Q2260.86 1571.45 2262.66 1567.91 Q2264.49 1564.34 2264.49 1557.23 Q2264.49 1550.11 2262.66 1546.56 Q2260.86 1543 2257.22 1543 M2257.22 1539.29 Q2263.03 1539.29 2266.09 1543.9 Q2269.17 1548.48 2269.17 1557.23 Q2269.17 1565.96 2266.09 1570.57 Q2263.03 1575.15 2257.22 1575.15 Q2251.41 1575.15 2248.34 1570.57 Q2245.28 1565.96 2245.28 1557.23 Q2245.28 1548.48 2248.34 1543.9 Q2251.41 1539.29 2257.22 1539.29 Z" fill="#000000" fill-rule="evenodd" fill-opacity="1" /><path clip-path="url(#clip320)" d="M 0 0 M2274.24 1568.6 L2279.12 1568.6 L2279.12 1574.48 L2274.24 1574.48 L2274.24 1568.6 Z" fill="#000000" fill-rule="evenodd" fill-opacity="1" /><path clip-path="url(#clip320)" d="M 0 0 M2294.19 1543 Q2290.58 1543 2288.75 1546.56 Q2286.95 1550.11 2286.95 1557.23 Q2286.95 1564.34 2288.75 1567.91 Q2290.58 1571.45 2294.19 1571.45 Q2297.83 1571.45 2299.63 1567.91 Q2301.46 1564.34 2301.46 1557.23 Q2301.46 1550.11 2299.63 1546.56 Q2297.83 1543 2294.19 1543 M2294.19 1539.29 Q2300 1539.29 2303.06 1543.9 Q2306.14 1548.48 2306.14 1557.23 Q2306.14 1565.96 2303.06 1570.57 Q2300 1575.15 2294.19 1575.15 Q2288.38 1575.15 2285.3 1570.57 Q2282.25 1565.96 2282.25 1557.23 Q2282.25 1548.48 2285.3 1543.9 Q2288.38 1539.29 2294.19 1539.29 Z" fill="#000000" fill-rule="evenodd" fill-opacity="1" /><path clip-path="url(#clip320)" d="M 0 0 M2311.25 1539.92 L2329.61 1539.92 L2329.61 1543.86 L2315.53 1543.86 L2315.53 1552.33 Q2316.55 1551.98 2317.57 1551.82 Q2318.59 1551.63 2319.61 1551.63 Q2325.39 1551.63 2328.77 1554.8 Q2332.15 1557.98 2332.15 1563.39 Q2332.15 1568.97 2328.68 1572.07 Q2325.21 1575.15 2318.89 1575.15 Q2316.71 1575.15 2314.45 1574.78 Q2312.2 1574.41 2309.79 1573.67 L2309.79 1568.97 Q2311.88 1570.1 2314.1 1570.66 Q2316.32 1571.22 2318.8 1571.22 Q2322.8 1571.22 2325.14 1569.11 Q2327.48 1567 2327.48 1563.39 Q2327.48 1559.78 2325.14 1557.67 Q2322.8 1555.57 2318.8 1555.57 Q2316.92 1555.57 2315.05 1555.98 Q2313.2 1556.4 2311.25 1557.28 L2311.25 1539.92 Z" fill="#000000" fill-rule="evenodd" fill-opacity="1" /><path clip-path="url(#clip320)" d="M 0 0 M51.0477 1465.1 Q47.4367 1465.1 45.608 1468.66 Q43.8024 1472.2 43.8024 1479.33 Q43.8024 1486.44 45.608 1490 Q47.4367 1493.55 51.0477 1493.55 Q54.682 1493.55 56.4875 1490 Q58.3162 1486.44 58.3162 1479.33 Q58.3162 1472.2 56.4875 1468.66 Q54.682 1465.1 51.0477 1465.1 M51.0477 1461.39 Q56.8579 1461.39 59.9134 1466 Q62.9921 1470.58 62.9921 1479.33 Q62.9921 1488.06 59.9134 1492.67 Q56.8579 1497.25 51.0477 1497.25 Q45.2376 1497.25 42.1589 1492.67 Q39.1034 1488.06 39.1034 1479.33 Q39.1034 1470.58 42.1589 1466 Q45.2376 1461.39 51.0477 1461.39 Z" fill="#000000" fill-rule="evenodd" fill-opacity="1" /><path clip-path="url(#clip320)" d="M 0 0 M16.0711 1238.38 L23.7099 1238.38 L23.7099 1212.01 L15.3998 1213.68 L15.3998 1209.42 L23.6636 1207.76 L28.3395 1207.76 L28.3395 1238.38 L35.9784 1238.38 L35.9784 1242.32 L16.0711 1242.32 L16.0711 1238.38 Z" fill="#000000" fill-rule="evenodd" fill-opacity="1" /><path clip-path="url(#clip320)" d="M 0 0 M51.0477 1210.83 Q47.4367 1210.83 45.608 1214.4 Q43.8024 1217.94 43.8024 1225.07 Q43.8024 1232.18 45.608 1235.74 Q47.4367 1239.28 51.0477 1239.28 Q54.682 1239.28 56.4875 1235.74 Q58.3162 1232.18 58.3162 1225.07 Q58.3162 1217.94 56.4875 1214.4 Q54.682 1210.83 51.0477 1210.83 M51.0477 1207.13 Q56.8579 1207.13 59.9134 1211.74 Q62.9921 1216.32 62.9921 1225.07 Q62.9921 1233.8 59.9134 1238.4 Q56.8579 1242.99 51.0477 1242.99 Q45.2376 1242.99 42.1589 1238.4 Q39.1034 1233.8 39.1034 1225.07 Q39.1034 1216.32 42.1589 1211.74 Q45.2376 1207.13 51.0477 1207.13 Z" fill="#000000" fill-rule="evenodd" fill-opacity="1" /><path clip-path="url(#clip320)" d="M 0 0 M19.659 984.118 L35.9784 984.118 L35.9784 988.054 L14.0341 988.054 L14.0341 984.118 Q16.6961 981.364 21.2794 976.734 Q25.8858 972.081 27.0664 970.739 Q29.3118 968.216 30.1914 966.48 Q31.0941 964.72 31.0941 963.031 Q31.0941 960.276 29.1497 958.54 Q27.2284 956.804 24.1266 956.804 Q21.9275 956.804 19.4738 957.568 Q17.0433 958.331 14.2655 959.882 L14.2655 955.16 Q17.0896 954.026 19.5433 953.447 Q21.997 952.869 24.034 952.869 Q29.4043 952.869 32.5988 955.554 Q35.7932 958.239 35.7932 962.73 Q35.7932 964.859 34.983 966.78 Q34.196 968.679 32.0895 971.271 Q31.5108 971.942 28.409 975.16 Q25.3071 978.354 19.659 984.118 Z" fill="#000000" fill-rule="evenodd" fill-opacity="1" /><path clip-path="url(#clip320)" d="M 0 0 M51.0477 956.572 Q47.4367 956.572 45.608 960.137 Q43.8024 963.679 43.8024 970.808 Q43.8024 977.915 45.608 981.479 Q47.4367 985.021 51.0477 985.021 Q54.682 985.021 56.4875 981.479 Q58.3162 977.915 58.3162 970.808 Q58.3162 963.679 56.4875 960.137 Q54.682 956.572 51.0477 956.572 M51.0477 952.869 Q56.8579 952.869 59.9134 957.475 Q62.9921 962.058 62.9921 970.808 Q62.9921 979.535 59.9134 984.142 Q56.8579 988.725 51.0477 988.725 Q45.2376 988.725 42.1589 984.142 Q39.1034 979.535 39.1034 970.808 Q39.1034 962.058 42.1589 957.475 Q45.2376 952.869 51.0477 952.869 Z" fill="#000000" fill-rule="evenodd" fill-opacity="1" /><path clip-path="url(#clip320)" d="M 0 0 M28.8488 715.157 Q32.2053 715.875 34.0802 718.143 Q35.9784 720.412 35.9784 723.745 Q35.9784 728.861 32.4599 731.662 Q28.9414 734.463 22.4599 734.463 Q20.284 734.463 17.9692 734.023 Q15.6776 733.606 13.2239 732.75 L13.2239 728.236 Q15.1683 729.37 17.4831 729.949 Q19.7979 730.528 22.321 730.528 Q26.7192 730.528 29.0108 728.792 Q31.3256 727.055 31.3256 723.745 Q31.3256 720.69 29.1729 718.977 Q27.0432 717.241 23.2238 717.241 L19.1961 717.241 L19.1961 713.398 L23.409 713.398 Q26.8581 713.398 28.6868 712.032 Q30.5154 710.643 30.5154 708.051 Q30.5154 705.389 28.6173 703.977 Q26.7423 702.542 23.2238 702.542 Q21.3025 702.542 19.1035 702.958 Q16.9044 703.375 14.2655 704.255 L14.2655 700.088 Q16.9276 699.347 19.2424 698.977 Q21.5803 698.606 23.6405 698.606 Q28.9645 698.606 32.0664 701.037 Q35.1682 703.444 35.1682 707.565 Q35.1682 710.435 33.5247 712.426 Q31.8812 714.393 28.8488 715.157 Z" fill="#000000" fill-rule="evenodd" fill-opacity="1" /><path clip-path="url(#clip320)" d="M 0 0 M51.0477 702.31 Q47.4367 702.31 45.608 705.875 Q43.8024 709.417 43.8024 716.546 Q43.8024 723.653 45.608 727.217 Q47.4367 730.759 51.0477 730.759 Q54.682 730.759 56.4875 727.217 Q58.3162 723.653 58.3162 716.546 Q58.3162 709.417 56.4875 705.875 Q54.682 702.31 51.0477 702.31 M51.0477 698.606 Q56.8579 698.606 59.9134 703.213 Q62.9921 707.796 62.9921 716.546 Q62.9921 725.273 59.9134 729.879 Q56.8579 734.463 51.0477 734.463 Q45.2376 734.463 42.1589 729.879 Q39.1034 725.273 39.1034 716.546 Q39.1034 707.796 42.1589 703.213 Q45.2376 698.606 51.0477 698.606 Z" fill="#000000" fill-rule="evenodd" fill-opacity="1" /><path clip-path="url(#clip320)" d="M 0 0 M26.3951 449.044 L14.5896 467.492 L26.3951 467.492 L26.3951 449.044 M25.1683 444.969 L31.0479 444.969 L31.0479 467.492 L35.9784 467.492 L35.9784 471.381 L31.0479 471.381 L31.0479 479.529 L26.3951 479.529 L26.3951 471.381 L10.7933 471.381 L10.7933 466.867 L25.1683 444.969 Z" fill="#000000" fill-rule="evenodd" fill-opacity="1" /><path clip-path="url(#clip320)" d="M 0 0 M51.0477 448.048 Q47.4367 448.048 45.608 451.613 Q43.8024 455.155 43.8024 462.284 Q43.8024 469.391 45.608 472.955 Q47.4367 476.497 51.0477 476.497 Q54.682 476.497 56.4875 472.955 Q58.3162 469.391 58.3162 462.284 Q58.3162 455.155 56.4875 451.613 Q54.682 448.048 51.0477 448.048 M51.0477 444.344 Q56.8579 444.344 59.9134 448.951 Q62.9921 453.534 62.9921 462.284 Q62.9921 471.011 59.9134 475.617 Q56.8579 480.201 51.0477 480.201 Q45.2376 480.201 42.1589 475.617 Q39.1034 471.011 39.1034 462.284 Q39.1034 453.534 42.1589 448.951 Q45.2376 444.344 51.0477 444.344 Z" fill="#000000" fill-rule="evenodd" fill-opacity="1" /><path clip-path="url(#clip320)" d="M 0 0 M15.0757 190.707 L33.4321 190.707 L33.4321 194.643 L19.3581 194.643 L19.3581 203.115 Q20.3766 202.768 21.3951 202.606 Q22.4136 202.42 23.4322 202.42 Q29.2192 202.42 32.5988 205.592 Q35.9784 208.763 35.9784 214.18 Q35.9784 219.758 32.5062 222.86 Q29.034 225.939 22.7146 225.939 Q20.5386 225.939 18.2701 225.568 Q16.0248 225.198 13.6174 224.457 L13.6174 219.758 Q15.7007 220.892 17.9229 221.448 Q20.1451 222.004 22.622 222.004 Q26.6266 222.004 28.9645 219.897 Q31.3025 217.791 31.3025 214.18 Q31.3025 210.568 28.9645 208.462 Q26.6266 206.355 22.622 206.355 Q20.747 206.355 18.872 206.772 Q17.0202 207.189 15.0757 208.068 L15.0757 190.707 Z" fill="#000000" fill-rule="evenodd" fill-opacity="1" /><path clip-path="url(#clip320)" d="M 0 0 M51.0477 193.786 Q47.4367 193.786 45.608 197.351 Q43.8024 200.893 43.8024 208.022 Q43.8024 215.129 45.608 218.693 Q47.4367 222.235 51.0477 222.235 Q54.682 222.235 56.4875 218.693 Q58.3162 215.129 58.3162 208.022 Q58.3162 200.893 56.4875 197.351 Q54.682 193.786 51.0477 193.786 M51.0477 190.082 Q56.8579 190.082 59.9134 194.689 Q62.9921 199.272 62.9921 208.022 Q62.9921 216.749 59.9134 221.355 Q56.8579 225.939 51.0477 225.939 Q45.2376 225.939 42.1589 221.355 Q39.1034 216.749 39.1034 208.022 Q39.1034 199.272 42.1589 194.689 Q45.2376 190.082 51.0477 190.082 Z" fill="#000000" fill-rule="evenodd" fill-opacity="1" /><path clip-path="url(#clip322)" d="
M151.118 1474.33 L157.322 1473.74 L163.527 1473.1 L169.731 1472.43 L175.936 1471.72 L182.14 1470.98 L188.345 1470.23 L194.55 1469.45 L200.754 1468.67 L206.959 1467.88 
  L213.163 1467.1 L219.368 1466.33 L225.572 1465.56 L231.777 1464.82 L237.982 1464.09 L244.186 1463.37 L250.391 1462.66 L256.595 1461.95 L262.8 1461.22 L269.005 1460.47 
  L275.209 1459.66 L281.414 1458.78 L287.618 1457.82 L293.823 1456.73 L300.027 1455.5 L306.232 1454.09 L312.437 1452.49 L318.641 1450.67 L324.846 1448.62 L331.05 1446.3 
  L337.255 1443.72 L343.459 1440.86 L349.664 1437.73 L355.869 1434.33 L362.073 1430.68 L368.278 1426.8 L374.482 1422.71 L380.687 1418.45 L386.892 1414.05 L393.096 1409.57 
  L399.301 1405.04 L405.505 1400.52 L411.71 1396.04 L417.914 1391.65 L424.119 1387.38 L430.324 1383.28 L436.528 1379.36 L442.733 1375.63 L448.937 1372.12 L455.142 1368.8 
  L461.346 1365.66 L467.551 1362.7 L473.756 1359.87 L479.96 1357.13 L486.165 1354.46 L492.369 1351.79 L498.574 1349.09 L504.779 1346.31 L510.983 1343.4 L517.188 1340.33 
  L523.392 1337.07 L529.597 1333.57 L535.801 1329.84 L542.006 1325.84 L548.211 1321.58 L554.415 1317.05 L560.62 1312.27 L566.824 1307.23 L573.029 1301.96 L579.233 1296.46 
  L585.438 1290.74 L591.643 1284.83 L597.847 1278.73 L604.052 1272.44 L610.256 1265.96 L616.461 1259.3 L622.666 1252.44 L628.87 1245.38 L635.075 1238.1 L641.279 1230.59 
  L647.484 1222.83 L653.688 1214.82 L659.893 1206.53 L666.098 1197.98 L672.302 1189.16 L678.507 1180.07 L684.711 1170.72 L690.916 1161.15 L697.12 1151.37 L703.325 1141.42 
  L709.53 1131.31 L715.734 1121.1 L721.939 1110.81 L728.143 1100.49 L734.348 1090.14 L740.553 1079.82 L746.757 1069.53 L752.962 1059.28 L759.166 1049.1 L765.371 1038.98 
  L765.371 1479.3 L759.166 1479.3 L752.962 1479.3 L746.757 1479.3 L740.553 1479.3 L734.348 1479.3 L728.143 1479.3 L721.939 1479.3 L715.734 1479.3 L709.53 1479.3 
  L703.325 1479.3 L697.12 1479.3 L690.916 1479.3 L684.711 1479.3 L678.507 1479.3 L672.302 1479.3 L666.098 1479.3 L659.893 1479.3 L653.688 1479.3 L647.484 1479.3 
  L641.279 1479.3 L635.075 1479.3 L628.87 1479.3 L622.666 1479.3 L616.461 1479.3 L610.256 1479.3 L604.052 1479.3 L597.847 1479.3 L591.643 1479.3 L585.438 1479.3 
  L579.233 1479.3 L573.029 1479.3 L566.824 1479.3 L560.62 1479.3 L554.415 1479.3 L548.211 1479.3 L542.006 1479.3 L535.801 1479.3 L529.597 1479.3 L523.392 1479.3 
  L517.188 1479.3 L510.983 1479.3 L504.779 1479.3 L498.574 1479.3 L492.369 1479.3 L486.165 1479.3 L479.96 1479.3 L473.756 1479.3 L467.551 1479.3 L461.346 1479.3 
  L455.142 1479.3 L448.937 1479.3 L442.733 1479.3 L436.528 1479.3 L430.324 1479.3 L424.119 1479.3 L417.914 1479.3 L411.71 1479.3 L405.505 1479.3 L399.301 1479.3 
  L393.096 1479.3 L386.892 1479.3 L380.687 1479.3 L374.482 1479.3 L368.278 1479.3 L362.073 1479.3 L355.869 1479.3 L349.664 1479.3 L343.459 1479.3 L337.255 1479.3 
  L331.05 1479.3 L324.846 1479.3 L318.641 1479.3 L312.437 1479.3 L306.232 1479.3 L300.027 1479.3 L293.823 1479.3 L287.618 1479.3 L281.414 1479.3 L275.209 1479.3 
  L269.005 1479.3 L262.8 1479.3 L256.595 1479.3 L250.391 1479.3 L244.186 1479.3 L237.982 1479.3 L231.777 1479.3 L225.572 1479.3 L219.368 1479.3 L213.163 1479.3 
  L206.959 1479.3 L200.754 1479.3 L194.55 1479.3 L188.345 1479.3 L182.14 1479.3 L175.936 1479.3 L169.731 1479.3 L163.527 1479.3 L157.322 1479.3 L151.118 1479.3 
   Z
  " fill="#ffa500" fill-rule="evenodd" fill-opacity="0.5"/>
<polyline clip-path="url(#clip322)" style="stroke:#ffa500; stroke-width:4; stroke-opacity:1; fill:none" points="
  151.118,1474.33 157.322,1473.74 163.527,1473.1 169.731,1472.43 175.936,1471.72 182.14,1470.98 188.345,1470.23 194.55,1469.45 200.754,1468.67 206.959,1467.88 
  213.163,1467.1 219.368,1466.33 225.572,1465.56 231.777,1464.82 237.982,1464.09 244.186,1463.37 250.391,1462.66 256.595,1461.95 262.8,1461.22 269.005,1460.47 
  275.209,1459.66 281.414,1458.78 287.618,1457.82 293.823,1456.73 300.027,1455.5 306.232,1454.09 312.437,1452.49 318.641,1450.67 324.846,1448.62 331.05,1446.3 
  337.255,1443.72 343.459,1440.86 349.664,1437.73 355.869,1434.33 362.073,1430.68 368.278,1426.8 374.482,1422.71 380.687,1418.45 386.892,1414.05 393.096,1409.57 
  399.301,1405.04 405.505,1400.52 411.71,1396.04 417.914,1391.65 424.119,1387.38 430.324,1383.28 436.528,1379.36 442.733,1375.63 448.937,1372.12 455.142,1368.8 
  461.346,1365.66 467.551,1362.7 473.756,1359.87 479.96,1357.13 486.165,1354.46 492.369,1351.79 498.574,1349.09 504.779,1346.31 510.983,1343.4 517.188,1340.33 
  523.392,1337.07 529.597,1333.57 535.801,1329.84 542.006,1325.84 548.211,1321.58 554.415,1317.05 560.62,1312.27 566.824,1307.23 573.029,1301.96 579.233,1296.46 
  585.438,1290.74 591.643,1284.83 597.847,1278.73 604.052,1272.44 610.256,1265.96 616.461,1259.3 622.666,1252.44 628.87,1245.38 635.075,1238.1 641.279,1230.59 
  647.484,1222.83 653.688,1214.82 659.893,1206.53 666.098,1197.98 672.302,1189.16 678.507,1180.07 684.711,1170.72 690.916,1161.15 697.12,1151.37 703.325,1141.42 
  709.53,1131.31 715.734,1121.1 721.939,1110.81 728.143,1100.49 734.348,1090.14 740.553,1079.82 746.757,1069.53 752.962,1059.28 759.166,1049.1 765.371,1038.98 
  
  "/>
<path clip-path="url(#clip322)" d="
M765.371 1038.98 L779.925 1015.43 L794.479 992.045 L809.033 968.593 L823.588 944.87 L838.142 920.772 L852.696 896.383 L867.25 872.053 L881.804 848.45 L896.358 826.554 
  L910.913 807.546 L925.467 792.588 L940.021 782.502 L954.575 777.454 L969.129 776.728 L983.683 778.708 L998.238 781.109 L1012.79 781.408 L1027.35 777.391 L1041.9 767.642 
  L1056.45 751.867 L1071.01 730.949 L1085.56 706.742 L1100.12 681.631 L1114.67 657.988 L1129.23 637.609 L1143.78 621.301 L1158.33 608.688 L1172.89 598.311 L1187.44 588.001 
  L1202 575.44 L1216.55 558.75 L1231.1 536.962 L1245.66 510.228 L1260.21 479.737 L1274.77 447.374 L1289.32 415.236 L1303.88 385.152 L1318.43 358.33 L1332.98 335.235 
  L1347.54 315.685 L1362.09 299.127 L1376.65 284.975 L1391.2 272.882 L1405.75 262.846 L1420.31 255.118 L1434.86 249.952 L1449.42 247.307 L1463.97 246.642 L1478.53 246.881 
  L1493.08 246.571 L1507.63 244.191 L1522.19 238.486 L1536.74 228.731 L1551.3 214.857 L1565.85 197.43 L1580.4 177.531 L1594.96 156.587 L1609.51 136.194 L1624.07 117.958 
  L1638.62 103.333 L1653.18 93.4515 L1667.73 88.9544 L1682.28 89.8754 L1696.84 95.6159 L1711.39 105.052 L1725.95 116.765 L1740.5 129.335 L1755.05 141.625 L1769.61 152.971 
  L1784.16 163.241 L1798.72 172.751 L1813.27 182.093 L1827.83 191.903 L1842.38 202.664 L1856.93 214.559 L1871.49 227.41 L1886.04 240.705 L1900.6 253.677 L1915.15 265.409 
  L1929.7 274.952 L1944.26 281.442 L1958.81 284.238 L1973.37 283.074 L1987.92 278.214 L2002.48 270.552 L2017.03 261.597 L2031.58 253.31 L2046.14 247.813 L2060.69 247.015 
  L2075.25 252.269 L2089.8 264.161 L2104.35 282.47 L2118.91 306.335 L2133.46 334.583 L2148.02 366.138 L2162.57 400.421 L2177.13 437.629 L2191.68 478.813 L2206.23 525.686 
  L2206.23 1479.3 L2191.68 1479.3 L2177.13 1479.3 L2162.57 1479.3 L2148.02 1479.3 L2133.46 1479.3 L2118.91 1479.3 L2104.35 1479.3 L2089.8 1479.3 L2075.25 1479.3 
  L2060.69 1479.3 L2046.14 1479.3 L2031.58 1479.3 L2017.03 1479.3 L2002.48 1479.3 L1987.92 1479.3 L1973.37 1479.3 L1958.81 1479.3 L1944.26 1479.3 L1929.7 1479.3 
  L1915.15 1479.3 L1900.6 1479.3 L1886.04 1479.3 L1871.49 1479.3 L1856.93 1479.3 L1842.38 1479.3 L1827.83 1479.3 L1813.27 1479.3 L1798.72 1479.3 L1784.16 1479.3 
  L1769.61 1479.3 L1755.05 1479.3 L1740.5 1479.3 L1725.95 1479.3 L1711.39 1479.3 L1696.84 1479.3 L1682.28 1479.3 L1667.73 1479.3 L1653.18 1479.3 L1638.62 1479.3 
  L1624.07 1479.3 L1609.51 1479.3 L1594.96 1479.3 L1580.4 1479.3 L1565.85 1479.3 L1551.3 1479.3 L1536.74 1479.3 L1522.19 1479.3 L1507.63 1479.3 L1493.08 1479.3 
  L1478.53 1479.3 L1463.97 1479.3 L1449.42 1479.3 L1434.86 1479.3 L1420.31 1479.3 L1405.75 1479.3 L1391.2 1479.3 L1376.65 1479.3 L1362.09 1479.3 L1347.54 1479.3 
  L1332.98 1479.3 L1318.43 1479.3 L1303.88 1479.3 L1289.32 1479.3 L1274.77 1479.3 L1260.21 1479.3 L1245.66 1479.3 L1231.1 1479.3 L1216.55 1479.3 L1202 1479.3 
  L1187.44 1479.3 L1172.89 1479.3 L1158.33 1479.3 L1143.78 1479.3 L1129.23 1479.3 L1114.67 1479.3 L1100.12 1479.3 L1085.56 1479.3 L1071.01 1479.3 L1056.45 1479.3 
  L1041.9 1479.3 L1027.35 1479.3 L1012.79 1479.3 L998.238 1479.3 L983.683 1479.3 L969.129 1479.3 L954.575 1479.3 L940.021 1479.3 L925.467 1479.3 L910.913 1479.3 
  L896.358 1479.3 L881.804 1479.3 L867.25 1479.3 L852.696 1479.3 L838.142 1479.3 L823.588 1479.3 L809.033 1479.3 L794.479 1479.3 L779.925 1479.3 L765.371 1479.3 
   Z
  " fill="#008000" fill-rule="evenodd" fill-opacity="0.5"/>
<polyline clip-path="url(#clip322)" style="stroke:#008000; stroke-width:4; stroke-opacity:1; fill:none" points="
  765.371,1038.98 779.925,1015.43 794.479,992.045 809.033,968.593 823.588,944.87 838.142,920.772 852.696,896.383 867.25,872.053 881.804,848.45 896.358,826.554 
  910.913,807.546 925.467,792.588 940.021,782.502 954.575,777.454 969.129,776.728 983.683,778.708 998.238,781.109 1012.79,781.408 1027.35,777.391 1041.9,767.642 
  1056.45,751.867 1071.01,730.949 1085.56,706.742 1100.12,681.631 1114.67,657.988 1129.23,637.609 1143.78,621.301 1158.33,608.688 1172.89,598.311 1187.44,588.001 
  1202,575.44 1216.55,558.75 1231.1,536.962 1245.66,510.228 1260.21,479.737 1274.77,447.374 1289.32,415.236 1303.88,385.152 1318.43,358.33 1332.98,335.235 
  1347.54,315.685 1362.09,299.127 1376.65,284.975 1391.2,272.882 1405.75,262.846 1420.31,255.118 1434.86,249.952 1449.42,247.307 1463.97,246.642 1478.53,246.881 
  1493.08,246.571 1507.63,244.191 1522.19,238.486 1536.74,228.731 1551.3,214.857 1565.85,197.43 1580.4,177.531 1594.96,156.587 1609.51,136.194 1624.07,117.958 
  1638.62,103.333 1653.18,93.4515 1667.73,88.9544 1682.28,89.8754 1696.84,95.6159 1711.39,105.052 1725.95,116.765 1740.5,129.335 1755.05,141.625 1769.61,152.971 
  1784.16,163.241 1798.72,172.751 1813.27,182.093 1827.83,191.903 1842.38,202.664 1856.93,214.559 1871.49,227.41 1886.04,240.705 1900.6,253.677 1915.15,265.409 
  1929.7,274.952 1944.26,281.442 1958.81,284.238 1973.37,283.074 1987.92,278.214 2002.48,270.552 2017.03,261.597 2031.58,253.31 2046.14,247.813 2060.69,247.015 
  2075.25,252.269 2089.8,264.161 2104.35,282.47 2118.91,306.335 2133.46,334.583 2148.02,366.138 2162.57,400.421 2177.13,437.629 2191.68,478.813 2206.23,525.686 
  
  "/>
<path clip-path="url(#clip322)" d="
M2206.23 525.686 L2207.07 528.58 L2207.9 531.499 L2208.73 534.443 L2209.56 537.414 L2210.4 540.412 L2211.23 543.436 L2212.06 546.488 L2212.89 549.567 L2213.72 552.674 
  L2214.56 555.809 L2215.39 558.973 L2216.22 562.165 L2217.05 565.387 L2217.89 568.638 L2218.72 571.918 L2219.55 575.229 L2220.38 578.569 L2221.21 581.94 L2222.05 585.342 
  L2222.88 588.775 L2223.71 592.238 L2224.54 595.733 L2225.38 599.26 L2226.21 602.818 L2227.04 606.408 L2227.87 610.03 L2228.71 613.685 L2229.54 617.371 L2230.37 621.09 
  L2231.2 624.842 L2232.03 628.626 L2232.87 632.443 L2233.7 636.292 L2234.53 640.175 L2235.36 644.09 L2236.2 648.038 L2237.03 652.019 L2237.86 656.033 L2238.69 660.079 
  L2239.53 664.159 L2240.36 668.271 L2241.19 672.415 L2242.02 676.592 L2242.85 680.802 L2243.69 685.044 L2244.52 689.318 L2245.35 693.624 L2246.18 697.961 L2247.02 702.331 
  L2247.85 706.731 L2248.68 711.163 L2249.51 715.626 L2250.35 720.119 L2251.18 724.643 L2252.01 729.197 L2252.84 733.781 L2253.67 738.393 L2254.51 743.035 L2255.34 747.706 
  L2256.17 752.405 L2257 757.132 L2257.84 761.886 L2258.67 766.668 L2259.5 771.476 L2260.33 776.31 L2261.16 781.17 L2262 786.055 L2262.83 790.964 L2263.66 795.898 
  L2264.49 800.855 L2265.33 805.835 L2266.16 810.837 L2266.99 815.862 L2267.82 820.907 L2268.66 825.974 L2269.49 831.06 L2270.32 836.165 L2271.15 841.289 L2271.98 846.431 
  L2272.82 851.591 L2273.65 856.767 L2274.48 861.959 L2275.31 867.166 L2276.15 872.387 L2276.98 877.622 L2277.81 882.871 L2278.64 888.131 L2279.48 893.403 L2280.31 898.685 
  L2281.14 903.978 L2281.97 909.279 L2282.8 914.589 L2283.64 919.906 L2284.47 925.23 L2285.3 930.559 L2286.13 935.894 L2286.97 941.232 L2287.8 946.574 L2288.63 951.919 
  L2288.63 1479.3 L2287.8 1479.3 L2286.97 1479.3 L2286.13 1479.3 L2285.3 1479.3 L2284.47 1479.3 L2283.64 1479.3 L2282.8 1479.3 L2281.97 1479.3 L2281.14 1479.3 
  L2280.31 1479.3 L2279.48 1479.3 L2278.64 1479.3 L2277.81 1479.3 L2276.98 1479.3 L2276.15 1479.3 L2275.31 1479.3 L2274.48 1479.3 L2273.65 1479.3 L2272.82 1479.3 
  L2271.98 1479.3 L2271.15 1479.3 L2270.32 1479.3 L2269.49 1479.3 L2268.66 1479.3 L2267.82 1479.3 L2266.99 1479.3 L2266.16 1479.3 L2265.33 1479.3 L2264.49 1479.3 
  L2263.66 1479.3 L2262.83 1479.3 L2262 1479.3 L2261.16 1479.3 L2260.33 1479.3 L2259.5 1479.3 L2258.67 1479.3 L2257.84 1479.3 L2257 1479.3 L2256.17 1479.3 
  L2255.34 1479.3 L2254.51 1479.3 L2253.67 1479.3 L2252.84 1479.3 L2252.01 1479.3 L2251.18 1479.3 L2250.35 1479.3 L2249.51 1479.3 L2248.68 1479.3 L2247.85 1479.3 
  L2247.02 1479.3 L2246.18 1479.3 L2245.35 1479.3 L2244.52 1479.3 L2243.69 1479.3 L2242.85 1479.3 L2242.02 1479.3 L2241.19 1479.3 L2240.36 1479.3 L2239.53 1479.3 
  L2238.69 1479.3 L2237.86 1479.3 L2237.03 1479.3 L2236.2 1479.3 L2235.36 1479.3 L2234.53 1479.3 L2233.7 1479.3 L2232.87 1479.3 L2232.03 1479.3 L2231.2 1479.3 
  L2230.37 1479.3 L2229.54 1479.3 L2228.71 1479.3 L2227.87 1479.3 L2227.04 1479.3 L2226.21 1479.3 L2225.38 1479.3 L2224.54 1479.3 L2223.71 1479.3 L2222.88 1479.3 
  L2222.05 1479.3 L2221.21 1479.3 L2220.38 1479.3 L2219.55 1479.3 L2218.72 1479.3 L2217.89 1479.3 L2217.05 1479.3 L2216.22 1479.3 L2215.39 1479.3 L2214.56 1479.3 
  L2213.72 1479.3 L2212.89 1479.3 L2212.06 1479.3 L2211.23 1479.3 L2210.4 1479.3 L2209.56 1479.3 L2208.73 1479.3 L2207.9 1479.3 L2207.07 1479.3 L2206.23 1479.3 
   Z
  " fill="#ffa500" fill-rule="evenodd" fill-opacity="0.5"/>
<polyline clip-path="url(#clip322)" style="stroke:#ffa500; stroke-width:4; stroke-opacity:1; fill:none" points="
  2206.23,525.686 2207.07,528.58 2207.9,531.499 2208.73,534.443 2209.56,537.414 2210.4,540.412 2211.23,543.436 2212.06,546.488 2212.89,549.567 2213.72,552.674 
  2214.56,555.809 2215.39,558.973 2216.22,562.165 2217.05,565.387 2217.89,568.638 2218.72,571.918 2219.55,575.229 2220.38,578.569 2221.21,581.94 2222.05,585.342 
  2222.88,588.775 2223.71,592.238 2224.54,595.733 2225.38,599.26 2226.21,602.818 2227.04,606.408 2227.87,610.03 2228.71,613.685 2229.54,617.371 2230.37,621.09 
  2231.2,624.842 2232.03,628.626 2232.87,632.443 2233.7,636.292 2234.53,640.175 2235.36,644.09 2236.2,648.038 2237.03,652.019 2237.86,656.033 2238.69,660.079 
  2239.53,664.159 2240.36,668.271 2241.19,672.415 2242.02,676.592 2242.85,680.802 2243.69,685.044 2244.52,689.318 2245.35,693.624 2246.18,697.961 2247.02,702.331 
  2247.85,706.731 2248.68,711.163 2249.51,715.626 2250.35,720.119 2251.18,724.643 2252.01,729.197 2252.84,733.781 2253.67,738.393 2254.51,743.035 2255.34,747.706 
  2256.17,752.405 2257,757.132 2257.84,761.886 2258.67,766.668 2259.5,771.476 2260.33,776.31 2261.16,781.17 2262,786.055 2262.83,790.964 2263.66,795.898 
  2264.49,800.855 2265.33,805.835 2266.16,810.837 2266.99,815.862 2267.82,820.907 2268.66,825.974 2269.49,831.06 2270.32,836.165 2271.15,841.289 2271.98,846.431 
  2272.82,851.591 2273.65,856.767 2274.48,861.959 2275.31,867.166 2276.15,872.387 2276.98,877.622 2277.81,882.871 2278.64,888.131 2279.48,893.403 2280.31,898.685 
  2281.14,903.978 2281.97,909.279 2282.8,914.589 2283.64,919.906 2284.47,925.23 2285.3,930.559 2286.13,935.894 2286.97,941.232 2287.8,946.574 2288.63,951.919 
  
  "/>
<polyline clip-path="url(#clip322)" style="stroke:#0000ff; stroke-width:4; stroke-opacity:1; fill:none" points="
  1557.55,1479.3 1557.55,207.746 
  "/>
<polyline clip-path="url(#clip322)" style="stroke:#000000; stroke-width:4; stroke-opacity:1; fill:none" points="
  1598.64,1479.3 1598.64,151.319 
  "/>
<path clip-path="url(#clip320)" d="
M1494.58 459.25 L2277.23 459.25 L2277.23 96.3696 L1494.58 96.3696  Z
  " fill="#ffffff" fill-rule="evenodd" fill-opacity="1"/>
<polyline clip-path="url(#clip320)" style="stroke:#000000; stroke-width:4; stroke-opacity:1; fill:none" points="
  1494.58,459.25 2277.23,459.25 2277.23,96.3696 1494.58,96.3696 1494.58,459.25 
  "/>
<path clip-path="url(#clip320)" d="
M1519.75 181.042 L1670.81 181.042 L1670.81 132.658 L1519.75 132.658 L1519.75 181.042  Z
  " fill="#ffa500" fill-rule="evenodd" fill-opacity="0.5"/>
<polyline clip-path="url(#clip320)" style="stroke:#ffa500; stroke-width:4; stroke-opacity:1; fill:none" points="
  1519.75,132.658 1670.81,132.658 
  "/>
<path clip-path="url(#clip320)" d="M 0 0 M1700.38 161.19 Q1700.38 165.889 1702.3 168.574 Q1704.24 171.236 1707.62 171.236 Q1711 171.236 1712.95 168.574 Q1714.89 165.889 1714.89 161.19 Q1714.89 156.491 1712.95 153.829 Q1711 151.144 1707.62 151.144 Q1704.24 151.144 1702.3 153.829 Q1700.38 156.491 1700.38 161.19 M1714.89 170.241 Q1713.55 172.555 1711.49 173.69 Q1709.45 174.801 1706.58 174.801 Q1701.88 174.801 1698.92 171.051 Q1695.98 167.301 1695.98 161.19 Q1695.98 155.079 1698.92 151.329 Q1701.88 147.579 1706.58 147.579 Q1709.45 147.579 1711.49 148.713 Q1713.55 149.824 1714.89 152.139 L1714.89 148.204 L1719.15 148.204 L1719.15 183.991 L1714.89 183.991 L1714.89 170.241 Z" fill="#000000" fill-rule="evenodd" fill-opacity="1" /><path clip-path="url(#clip320)" d="M 0 0 M1734.22 142.648 Q1730.61 142.648 1728.78 146.213 Q1726.98 149.755 1726.98 156.884 Q1726.98 163.991 1728.78 167.556 Q1730.61 171.097 1734.22 171.097 Q1737.85 171.097 1739.66 167.556 Q1741.49 163.991 1741.49 156.884 Q1741.49 149.755 1739.66 146.213 Q1737.85 142.648 1734.22 142.648 M1734.22 138.945 Q1740.03 138.945 1743.09 143.551 Q1746.17 148.134 1746.17 156.884 Q1746.17 165.611 1743.09 170.218 Q1740.03 174.801 1734.22 174.801 Q1728.41 174.801 1725.33 170.218 Q1722.28 165.611 1722.28 156.884 Q1722.28 148.134 1725.33 143.551 Q1728.41 138.945 1734.22 138.945 Z" fill="#000000" fill-rule="evenodd" fill-opacity="1" /><path clip-path="url(#clip320)" d="M 0 0 M1751.28 139.57 L1769.64 139.57 L1769.64 143.505 L1755.56 143.505 L1755.56 151.977 Q1756.58 151.63 1757.6 151.468 Q1758.62 151.282 1759.64 151.282 Q1765.42 151.282 1768.8 154.454 Q1772.18 157.625 1772.18 163.042 Q1772.18 168.62 1768.71 171.722 Q1765.24 174.801 1758.92 174.801 Q1756.74 174.801 1754.48 174.43 Q1752.23 174.06 1749.82 173.319 L1749.82 168.62 Q1751.91 169.755 1754.13 170.31 Q1756.35 170.866 1758.83 170.866 Q1762.83 170.866 1765.17 168.759 Q1767.51 166.653 1767.51 163.042 Q1767.51 159.431 1765.17 157.324 Q1762.83 155.218 1758.83 155.218 Q1756.95 155.218 1755.08 155.634 Q1753.23 156.051 1751.28 156.931 L1751.28 139.57 Z" fill="#000000" fill-rule="evenodd" fill-opacity="1" /><path clip-path="url(#clip320)" d="
M1519.75 241.522 L1670.81 241.522 L1670.81 193.138 L1519.75 193.138 L1519.75 241.522  Z
  " fill="#008000" fill-rule="evenodd" fill-opacity="0.5"/>
<polyline clip-path="url(#clip320)" style="stroke:#008000; stroke-width:4; stroke-opacity:1; fill:none" points="
  1519.75,193.138 1670.81,193.138 
  "/>
<path clip-path="url(#clip320)" d="M 0 0 M1698.2 233.892 L1698.2 229.633 Q1699.96 230.466 1701.77 230.906 Q1703.57 231.346 1705.31 231.346 Q1709.94 231.346 1712.37 228.244 Q1714.82 225.119 1715.17 218.776 Q1713.83 220.767 1711.77 221.832 Q1709.71 222.897 1707.21 222.897 Q1702.02 222.897 1698.99 219.772 Q1695.98 216.624 1695.98 211.184 Q1695.98 205.86 1699.13 202.642 Q1702.28 199.425 1707.51 199.425 Q1713.5 199.425 1716.65 204.031 Q1719.82 208.614 1719.82 217.364 Q1719.82 225.536 1715.93 230.42 Q1712.07 235.281 1705.52 235.281 Q1703.76 235.281 1701.95 234.934 Q1700.15 234.586 1698.2 233.892 M1707.51 219.239 Q1710.66 219.239 1712.48 217.086 Q1714.34 214.934 1714.34 211.184 Q1714.34 207.457 1712.48 205.304 Q1710.66 203.128 1707.51 203.128 Q1704.36 203.128 1702.51 205.304 Q1700.68 207.457 1700.68 211.184 Q1700.68 214.934 1702.51 217.086 Q1704.36 219.239 1707.51 219.239 Z" fill="#000000" fill-rule="evenodd" fill-opacity="1" /><path clip-path="url(#clip320)" d="M 0 0 M1734.89 203.128 Q1731.28 203.128 1729.45 206.693 Q1727.65 210.235 1727.65 217.364 Q1727.65 224.471 1729.45 228.036 Q1731.28 231.577 1734.89 231.577 Q1738.53 231.577 1740.33 228.036 Q1742.16 224.471 1742.16 217.364 Q1742.16 210.235 1740.33 206.693 Q1738.53 203.128 1734.89 203.128 M1734.89 199.425 Q1740.7 199.425 1743.76 204.031 Q1746.84 208.614 1746.84 217.364 Q1746.84 226.091 1743.76 230.698 Q1740.7 235.281 1734.89 235.281 Q1729.08 235.281 1726 230.698 Q1722.95 226.091 1722.95 217.364 Q1722.95 208.614 1726 204.031 Q1729.08 199.425 1734.89 199.425 Z" fill="#000000" fill-rule="evenodd" fill-opacity="1" /><path clip-path="url(#clip320)" d="M 0 0 M1781.3 219.401 Q1779.29 219.401 1778.13 221.114 Q1777 222.827 1777 225.883 Q1777 228.892 1778.13 230.628 Q1779.29 232.341 1781.3 232.341 Q1783.27 232.341 1784.41 230.628 Q1785.56 228.892 1785.56 225.883 Q1785.56 222.85 1784.41 221.137 Q1783.27 219.401 1781.3 219.401 M1781.3 216.462 Q1784.96 216.462 1787.11 219.008 Q1789.27 221.554 1789.27 225.883 Q1789.27 230.211 1787.09 232.758 Q1784.94 235.281 1781.3 235.281 Q1777.6 235.281 1775.45 232.758 Q1773.29 230.211 1773.29 225.883 Q1773.29 221.531 1775.45 219.008 Q1777.62 216.462 1781.3 216.462 M1757.42 202.364 Q1755.42 202.364 1754.27 204.1 Q1753.13 205.813 1753.13 208.823 Q1753.13 211.878 1754.27 213.591 Q1755.4 215.304 1757.42 215.304 Q1759.43 215.304 1760.56 213.591 Q1761.72 211.878 1761.72 208.823 Q1761.72 205.837 1760.56 204.1 Q1759.41 202.364 1757.42 202.364 M1778.32 199.425 L1782.02 199.425 L1760.4 235.281 L1756.7 235.281 L1778.32 199.425 M1757.42 199.425 Q1761.07 199.425 1763.25 201.971 Q1765.42 204.494 1765.42 208.823 Q1765.42 213.198 1763.25 215.721 Q1761.1 218.244 1757.42 218.244 Q1753.73 218.244 1751.58 215.721 Q1749.45 213.174 1749.45 208.823 Q1749.45 204.517 1751.6 201.971 Q1753.76 199.425 1757.42 199.425 Z" fill="#000000" fill-rule="evenodd" fill-opacity="1" /><path clip-path="url(#clip320)" d="M 0 0 M1830.35 218.961 L1830.35 234.61 L1826.1 234.61 L1826.1 219.1 Q1826.1 215.42 1824.66 213.591 Q1823.22 211.762 1820.35 211.762 Q1816.91 211.762 1814.91 213.962 Q1812.92 216.161 1812.92 219.957 L1812.92 234.61 L1808.64 234.61 L1808.64 208.684 L1812.92 208.684 L1812.92 212.712 Q1814.45 210.374 1816.51 209.216 Q1818.6 208.059 1821.3 208.059 Q1825.77 208.059 1828.06 210.837 Q1830.35 213.591 1830.35 218.961 Z" fill="#000000" fill-rule="evenodd" fill-opacity="1" /><path clip-path="url(#clip320)" d="M 0 0 M1844.87 211.67 Q1841.44 211.67 1839.45 214.355 Q1837.46 217.017 1837.46 221.67 Q1837.46 226.323 1839.43 229.008 Q1841.42 231.67 1844.87 231.67 Q1848.27 231.67 1850.26 228.985 Q1852.25 226.299 1852.25 221.67 Q1852.25 217.063 1850.26 214.378 Q1848.27 211.67 1844.87 211.67 M1844.87 208.059 Q1850.42 208.059 1853.6 211.67 Q1856.77 215.281 1856.77 221.67 Q1856.77 228.036 1853.6 231.67 Q1850.42 235.281 1844.87 235.281 Q1839.29 235.281 1836.12 231.67 Q1832.97 228.036 1832.97 221.67 Q1832.97 215.281 1836.12 211.67 Q1839.29 208.059 1844.87 208.059 Z" fill="#000000" fill-rule="evenodd" fill-opacity="1" /><path clip-path="url(#clip320)" d="M 0 0 M1882.78 218.961 L1882.78 234.61 L1878.53 234.61 L1878.53 219.1 Q1878.53 215.42 1877.09 213.591 Q1875.66 211.762 1872.78 211.762 Q1869.34 211.762 1867.35 213.962 Q1865.35 216.161 1865.35 219.957 L1865.35 234.61 L1861.07 234.61 L1861.07 208.684 L1865.35 208.684 L1865.35 212.712 Q1866.88 210.374 1868.94 209.216 Q1871.03 208.059 1873.73 208.059 Q1878.2 208.059 1880.49 210.837 Q1882.78 213.591 1882.78 218.961 Z" fill="#000000" fill-rule="evenodd" fill-opacity="1" /><path clip-path="url(#clip320)" d="M 0 0 M1885.1 219.725 L1897.58 219.725 L1897.58 223.522 L1885.1 223.522 L1885.1 219.725 Z" fill="#000000" fill-rule="evenodd" fill-opacity="1" /><path clip-path="url(#clip320)" d="M 0 0 M1917.07 212.665 Q1916.35 212.249 1915.49 212.063 Q1914.66 211.855 1913.64 211.855 Q1910.03 211.855 1908.09 214.216 Q1906.16 216.554 1906.16 220.952 L1906.16 234.61 L1901.88 234.61 L1901.88 208.684 L1906.16 208.684 L1906.16 212.712 Q1907.51 210.35 1909.66 209.216 Q1911.81 208.059 1914.89 208.059 Q1915.33 208.059 1915.86 208.128 Q1916.4 208.175 1917.04 208.29 L1917.07 212.665 Z" fill="#000000" fill-rule="evenodd" fill-opacity="1" /><path clip-path="url(#clip320)" d="M 0 0 M1942.67 220.582 L1942.67 222.665 L1923.09 222.665 Q1923.36 227.063 1925.72 229.378 Q1928.11 231.67 1932.34 231.67 Q1934.8 231.67 1937.09 231.068 Q1939.4 230.466 1941.67 229.262 L1941.67 233.29 Q1939.38 234.262 1936.97 234.772 Q1934.57 235.281 1932.09 235.281 Q1925.89 235.281 1922.25 231.67 Q1918.64 228.059 1918.64 221.901 Q1918.64 215.536 1922.07 211.809 Q1925.52 208.059 1931.35 208.059 Q1936.58 208.059 1939.61 211.438 Q1942.67 214.795 1942.67 220.582 M1938.41 219.332 Q1938.36 215.837 1936.44 213.753 Q1934.54 211.67 1931.4 211.67 Q1927.83 211.67 1925.68 213.684 Q1923.55 215.698 1923.22 219.355 L1938.41 219.332 Z" fill="#000000" fill-rule="evenodd" fill-opacity="1" /><path clip-path="url(#clip320)" d="M 0 0 M1947.14 208.684 L1951.4 208.684 L1951.4 235.073 Q1951.4 240.026 1949.5 242.248 Q1947.62 244.471 1943.43 244.471 L1941.81 244.471 L1941.81 240.86 L1942.95 240.86 Q1945.38 240.86 1946.26 239.725 Q1947.14 238.614 1947.14 235.073 L1947.14 208.684 M1947.14 198.591 L1951.4 198.591 L1951.4 203.985 L1947.14 203.985 L1947.14 198.591 Z" fill="#000000" fill-rule="evenodd" fill-opacity="1" /><path clip-path="url(#clip320)" d="M 0 0 M1978.04 220.582 L1978.04 222.665 L1958.46 222.665 Q1958.73 227.063 1961.09 229.378 Q1963.48 231.67 1967.71 231.67 Q1970.17 231.67 1972.46 231.068 Q1974.78 230.466 1977.04 229.262 L1977.04 233.29 Q1974.75 234.262 1972.34 234.772 Q1969.94 235.281 1967.46 235.281 Q1961.26 235.281 1957.62 231.67 Q1954.01 228.059 1954.01 221.901 Q1954.01 215.536 1957.44 211.809 Q1960.89 208.059 1966.72 208.059 Q1971.95 208.059 1974.98 211.438 Q1978.04 214.795 1978.04 220.582 M1973.78 219.332 Q1973.73 215.837 1971.81 213.753 Q1969.91 211.67 1966.77 211.67 Q1963.2 211.67 1961.05 213.684 Q1958.92 215.698 1958.59 219.355 L1973.78 219.332 Z" fill="#000000" fill-rule="evenodd" fill-opacity="1" /><path clip-path="url(#clip320)" d="M 0 0 M2001.16 209.679 L2001.16 213.661 Q1999.36 212.665 1997.53 212.179 Q1995.72 211.67 1993.87 211.67 Q1989.73 211.67 1987.44 214.309 Q1985.15 216.924 1985.15 221.67 Q1985.15 226.415 1987.44 229.054 Q1989.73 231.67 1993.87 231.67 Q1995.72 231.67 1997.53 231.184 Q1999.36 230.674 2001.16 229.679 L2001.16 233.614 Q1999.38 234.448 1997.46 234.864 Q1995.56 235.281 1993.41 235.281 Q1987.55 235.281 1984.1 231.6 Q1980.65 227.92 1980.65 221.67 Q1980.65 215.327 1984.13 211.693 Q1987.62 208.059 1993.69 208.059 Q1995.65 208.059 1997.53 208.475 Q1999.4 208.869 2001.16 209.679 Z" fill="#000000" fill-rule="evenodd" fill-opacity="1" /><path clip-path="url(#clip320)" d="M 0 0 M2009.84 201.323 L2009.84 208.684 L2018.62 208.684 L2018.62 211.994 L2009.84 211.994 L2009.84 226.068 Q2009.84 229.239 2010.7 230.142 Q2011.58 231.045 2014.24 231.045 L2018.62 231.045 L2018.62 234.61 L2014.24 234.61 Q2009.31 234.61 2007.44 232.781 Q2005.56 230.929 2005.56 226.068 L2005.56 211.994 L2002.44 211.994 L2002.44 208.684 L2005.56 208.684 L2005.56 201.323 L2009.84 201.323 Z" fill="#000000" fill-rule="evenodd" fill-opacity="1" /><path clip-path="url(#clip320)" d="M 0 0 M2023.08 208.684 L2027.34 208.684 L2027.34 234.61 L2023.08 234.61 L2023.08 208.684 M2023.08 198.591 L2027.34 198.591 L2027.34 203.985 L2023.08 203.985 L2023.08 198.591 Z" fill="#000000" fill-rule="evenodd" fill-opacity="1" /><path clip-path="url(#clip320)" d="M 0 0 M2041.86 211.67 Q2038.43 211.67 2036.44 214.355 Q2034.45 217.017 2034.45 221.67 Q2034.45 226.323 2036.42 229.008 Q2038.41 231.67 2041.86 231.67 Q2045.26 231.67 2047.25 228.985 Q2049.24 226.299 2049.24 221.67 Q2049.24 217.063 2047.25 214.378 Q2045.26 211.67 2041.86 211.67 M2041.86 208.059 Q2047.41 208.059 2050.58 211.67 Q2053.76 215.281 2053.76 221.67 Q2053.76 228.036 2050.58 231.67 Q2047.41 235.281 2041.86 235.281 Q2036.28 235.281 2033.11 231.67 Q2029.96 228.036 2029.96 221.67 Q2029.96 215.281 2033.11 211.67 Q2036.28 208.059 2041.86 208.059 Z" fill="#000000" fill-rule="evenodd" fill-opacity="1" /><path clip-path="url(#clip320)" d="M 0 0 M2079.77 218.961 L2079.77 234.61 L2075.52 234.61 L2075.52 219.1 Q2075.52 215.42 2074.08 213.591 Q2072.64 211.762 2069.77 211.762 Q2066.33 211.762 2064.33 213.962 Q2062.34 216.161 2062.34 219.957 L2062.34 234.61 L2058.06 234.61 L2058.06 208.684 L2062.34 208.684 L2062.34 212.712 Q2063.87 210.374 2065.93 209.216 Q2068.02 208.059 2070.72 208.059 Q2075.19 208.059 2077.48 210.837 Q2079.77 213.591 2079.77 218.961 Z" fill="#000000" fill-rule="evenodd" fill-opacity="1" /><path clip-path="url(#clip320)" d="M 0 0 M2114.33 212.665 Q2113.62 212.249 2112.76 212.063 Q2111.93 211.855 2110.91 211.855 Q2107.3 211.855 2105.35 214.216 Q2103.43 216.554 2103.43 220.952 L2103.43 234.61 L2099.15 234.61 L2099.15 208.684 L2103.43 208.684 L2103.43 212.712 Q2104.77 210.35 2106.93 209.216 Q2109.08 208.059 2112.16 208.059 Q2112.6 208.059 2113.13 208.128 Q2113.66 208.175 2114.31 208.29 L2114.33 212.665 Z" fill="#000000" fill-rule="evenodd" fill-opacity="1" /><path clip-path="url(#clip320)" d="M 0 0 M2139.94 220.582 L2139.94 222.665 L2120.35 222.665 Q2120.63 227.063 2122.99 229.378 Q2125.38 231.67 2129.61 231.67 Q2132.07 231.67 2134.36 231.068 Q2136.67 230.466 2138.94 229.262 L2138.94 233.29 Q2136.65 234.262 2134.24 234.772 Q2131.83 235.281 2129.36 235.281 Q2123.15 235.281 2119.52 231.67 Q2115.91 228.059 2115.91 221.901 Q2115.91 215.536 2119.33 211.809 Q2122.78 208.059 2128.62 208.059 Q2133.85 208.059 2136.88 211.438 Q2139.94 214.795 2139.94 220.582 M2135.68 219.332 Q2135.63 215.837 2133.71 213.753 Q2131.81 211.67 2128.66 211.67 Q2125.1 211.67 2122.95 213.684 Q2120.82 215.698 2120.49 219.355 L2135.68 219.332 Z" fill="#000000" fill-rule="evenodd" fill-opacity="1" /><path clip-path="url(#clip320)" d="M 0 0 M2161.46 221.346 Q2161.46 216.716 2159.54 214.17 Q2157.64 211.624 2154.2 211.624 Q2150.77 211.624 2148.85 214.17 Q2146.95 216.716 2146.95 221.346 Q2146.95 225.952 2148.85 228.498 Q2150.77 231.045 2154.2 231.045 Q2157.64 231.045 2159.54 228.498 Q2161.46 225.952 2161.46 221.346 M2165.72 231.392 Q2165.72 238.012 2162.78 241.23 Q2159.84 244.471 2153.78 244.471 Q2151.53 244.471 2149.54 244.123 Q2147.55 243.799 2145.68 243.105 L2145.68 238.961 Q2147.55 239.98 2149.38 240.466 Q2151.21 240.952 2153.11 240.952 Q2157.3 240.952 2159.38 238.753 Q2161.46 236.577 2161.46 232.156 L2161.46 230.049 Q2160.14 232.341 2158.08 233.475 Q2156.02 234.61 2153.15 234.61 Q2148.39 234.61 2145.47 230.975 Q2142.55 227.341 2142.55 221.346 Q2142.55 215.327 2145.47 211.693 Q2148.39 208.059 2153.15 208.059 Q2156.02 208.059 2158.08 209.193 Q2160.14 210.327 2161.46 212.619 L2161.46 208.684 L2165.72 208.684 L2165.72 231.392 Z" fill="#000000" fill-rule="evenodd" fill-opacity="1" /><path clip-path="url(#clip320)" d="M 0 0 M2170.19 208.684 L2174.45 208.684 L2174.45 234.61 L2170.19 234.61 L2170.19 208.684 M2170.19 198.591 L2174.45 198.591 L2174.45 203.985 L2170.19 203.985 L2170.19 198.591 Z" fill="#000000" fill-rule="evenodd" fill-opacity="1" /><path clip-path="url(#clip320)" d="M 0 0 M2188.96 211.67 Q2185.54 211.67 2183.55 214.355 Q2181.56 217.017 2181.56 221.67 Q2181.56 226.323 2183.52 229.008 Q2185.51 231.67 2188.96 231.67 Q2192.37 231.67 2194.36 228.985 Q2196.35 226.299 2196.35 221.67 Q2196.35 217.063 2194.36 214.378 Q2192.37 211.67 2188.96 211.67 M2188.96 208.059 Q2194.52 208.059 2197.69 211.67 Q2200.86 215.281 2200.86 221.67 Q2200.86 228.036 2197.69 231.67 Q2194.52 235.281 2188.96 235.281 Q2183.39 235.281 2180.21 231.67 Q2177.07 228.036 2177.07 221.67 Q2177.07 215.281 2180.21 211.67 Q2183.39 208.059 2188.96 208.059 Z" fill="#000000" fill-rule="evenodd" fill-opacity="1" /><path clip-path="url(#clip320)" d="M 0 0 M2226.88 218.961 L2226.88 234.61 L2222.62 234.61 L2222.62 219.1 Q2222.62 215.42 2221.19 213.591 Q2219.75 211.762 2216.88 211.762 Q2213.43 211.762 2211.44 213.962 Q2209.45 216.161 2209.45 219.957 L2209.45 234.61 L2205.17 234.61 L2205.17 208.684 L2209.45 208.684 L2209.45 212.712 Q2210.98 210.374 2213.04 209.216 Q2215.12 208.059 2217.83 208.059 Q2222.3 208.059 2224.59 210.837 Q2226.88 213.591 2226.88 218.961 Z" fill="#000000" fill-rule="evenodd" fill-opacity="1" /><path clip-path="url(#clip320)" d="
M1519.75 302.002 L1670.81 302.002 L1670.81 253.618 L1519.75 253.618 L1519.75 302.002  Z
  " fill="#ffa500" fill-rule="evenodd" fill-opacity="0.5"/>
<polyline clip-path="url(#clip320)" style="stroke:#ffa500; stroke-width:4; stroke-opacity:1; fill:none" points="
  1519.75,253.618 1670.81,253.618 
  "/>
<path clip-path="url(#clip320)" d="M 0 0 M1700.38 282.15 Q1700.38 286.849 1702.3 289.534 Q1704.24 292.196 1707.62 292.196 Q1711 292.196 1712.95 289.534 Q1714.89 286.849 1714.89 282.15 Q1714.89 277.451 1712.95 274.789 Q1711 272.104 1707.62 272.104 Q1704.24 272.104 1702.3 274.789 Q1700.38 277.451 1700.38 282.15 M1714.89 291.201 Q1713.55 293.515 1711.49 294.65 Q1709.45 295.761 1706.58 295.761 Q1701.88 295.761 1698.92 292.011 Q1695.98 288.261 1695.98 282.15 Q1695.98 276.039 1698.92 272.289 Q1701.88 268.539 1706.58 268.539 Q1709.45 268.539 1711.49 269.673 Q1713.55 270.784 1714.89 273.099 L1714.89 269.164 L1719.15 269.164 L1719.15 304.951 L1714.89 304.951 L1714.89 291.201 Z" fill="#000000" fill-rule="evenodd" fill-opacity="1" /><path clip-path="url(#clip320)" d="M 0 0 M1724.36 294.372 L1724.36 290.113 Q1726.12 290.946 1727.92 291.386 Q1729.73 291.826 1731.47 291.826 Q1736.1 291.826 1738.53 288.724 Q1740.98 285.599 1741.33 279.256 Q1739.98 281.247 1737.92 282.312 Q1735.86 283.377 1733.36 283.377 Q1728.18 283.377 1725.15 280.252 Q1722.14 277.104 1722.14 271.664 Q1722.14 266.34 1725.29 263.122 Q1728.43 259.905 1733.67 259.905 Q1739.66 259.905 1742.81 264.511 Q1745.98 269.094 1745.98 277.844 Q1745.98 286.016 1742.09 290.9 Q1738.23 295.761 1731.67 295.761 Q1729.92 295.761 1728.11 295.414 Q1726.3 295.066 1724.36 294.372 M1733.67 279.719 Q1736.81 279.719 1738.64 277.566 Q1740.49 275.414 1740.49 271.664 Q1740.49 267.937 1738.64 265.784 Q1736.81 263.608 1733.67 263.608 Q1730.52 263.608 1728.67 265.784 Q1726.84 267.937 1726.84 271.664 Q1726.84 275.414 1728.67 277.566 Q1730.52 279.719 1733.67 279.719 Z" fill="#000000" fill-rule="evenodd" fill-opacity="1" /><path clip-path="url(#clip320)" d="M 0 0 M1751.1 260.53 L1769.45 260.53 L1769.45 264.465 L1755.38 264.465 L1755.38 272.937 Q1756.4 272.59 1757.42 272.428 Q1758.43 272.242 1759.45 272.242 Q1765.24 272.242 1768.62 275.414 Q1772 278.585 1772 284.002 Q1772 289.58 1768.53 292.682 Q1765.05 295.761 1758.73 295.761 Q1756.56 295.761 1754.29 295.39 Q1752.04 295.02 1749.64 294.279 L1749.64 289.58 Q1751.72 290.715 1753.94 291.27 Q1756.17 291.826 1758.64 291.826 Q1762.65 291.826 1764.98 289.719 Q1767.32 287.613 1767.32 284.002 Q1767.32 280.391 1764.98 278.284 Q1762.65 276.178 1758.64 276.178 Q1756.77 276.178 1754.89 276.594 Q1753.04 277.011 1751.1 277.891 L1751.1 260.53 Z" fill="#000000" fill-rule="evenodd" fill-opacity="1" /><polyline clip-path="url(#clip320)" style="stroke:#0000ff; stroke-width:4; stroke-opacity:1; fill:none" points="
  1519.75,338.29 1670.81,338.29 
  "/>
<path clip-path="url(#clip320)" d="M 0 0 M1716.33 334.621 Q1717.92 331.75 1720.15 330.385 Q1722.37 329.019 1725.38 329.019 Q1729.43 329.019 1731.63 331.866 Q1733.83 334.69 1733.83 339.921 L1733.83 355.57 L1729.54 355.57 L1729.54 340.06 Q1729.54 336.334 1728.23 334.528 Q1726.91 332.722 1724.2 332.722 Q1720.89 332.722 1718.97 334.922 Q1717.04 337.121 1717.04 340.917 L1717.04 355.57 L1712.76 355.57 L1712.76 340.06 Q1712.76 336.31 1711.44 334.528 Q1710.12 332.722 1707.37 332.722 Q1704.11 332.722 1702.18 334.945 Q1700.26 337.144 1700.26 340.917 L1700.26 355.57 L1695.98 355.57 L1695.98 329.644 L1700.26 329.644 L1700.26 333.672 Q1701.72 331.287 1703.76 330.153 Q1705.79 329.019 1708.6 329.019 Q1711.42 329.019 1713.39 330.454 Q1715.38 331.889 1716.33 334.621 Z" fill="#000000" fill-rule="evenodd" fill-opacity="1" /><path clip-path="url(#clip320)" d="M 0 0 M1760.47 341.542 L1760.47 343.625 L1740.89 343.625 Q1741.17 348.023 1743.53 350.338 Q1745.91 352.63 1750.15 352.63 Q1752.6 352.63 1754.89 352.028 Q1757.21 351.426 1759.48 350.222 L1759.48 354.25 Q1757.18 355.222 1754.78 355.732 Q1752.37 356.241 1749.89 356.241 Q1743.69 356.241 1740.05 352.63 Q1736.44 349.019 1736.44 342.861 Q1736.44 336.496 1739.87 332.769 Q1743.32 329.019 1749.15 329.019 Q1754.38 329.019 1757.42 332.398 Q1760.47 335.755 1760.47 341.542 M1756.21 340.292 Q1756.17 336.797 1754.24 334.713 Q1752.35 332.63 1749.2 332.63 Q1745.63 332.63 1743.48 334.644 Q1741.35 336.658 1741.03 340.315 L1756.21 340.292 Z" fill="#000000" fill-rule="evenodd" fill-opacity="1" /><path clip-path="url(#clip320)" d="M 0 0 M1776.72 342.537 Q1771.56 342.537 1769.57 343.718 Q1767.58 344.898 1767.58 347.746 Q1767.58 350.014 1769.06 351.357 Q1770.56 352.676 1773.13 352.676 Q1776.67 352.676 1778.8 350.176 Q1780.96 347.653 1780.96 343.486 L1780.96 342.537 L1776.72 342.537 M1785.22 340.778 L1785.22 355.57 L1780.96 355.57 L1780.96 351.634 Q1779.5 353.995 1777.32 355.13 Q1775.15 356.241 1772 356.241 Q1768.02 356.241 1765.66 354.019 Q1763.32 351.773 1763.32 348.023 Q1763.32 343.648 1766.23 341.426 Q1769.17 339.204 1774.98 339.204 L1780.96 339.204 L1780.96 338.787 Q1780.96 335.847 1779.01 334.25 Q1777.09 332.63 1773.6 332.63 Q1771.37 332.63 1769.27 333.162 Q1767.16 333.695 1765.22 334.759 L1765.22 330.824 Q1767.55 329.922 1769.75 329.482 Q1771.95 329.019 1774.04 329.019 Q1779.66 329.019 1782.44 331.935 Q1785.22 334.852 1785.22 340.778 Z" fill="#000000" fill-rule="evenodd" fill-opacity="1" /><path clip-path="url(#clip320)" d="M 0 0 M1811.23 339.921 L1811.23 355.57 L1806.97 355.57 L1806.97 340.06 Q1806.97 336.38 1805.54 334.551 Q1804.1 332.722 1801.23 332.722 Q1797.79 332.722 1795.79 334.922 Q1793.8 337.121 1793.8 340.917 L1793.8 355.57 L1789.52 355.57 L1789.52 329.644 L1793.8 329.644 L1793.8 333.672 Q1795.33 331.334 1797.39 330.176 Q1799.48 329.019 1802.18 329.019 Q1806.65 329.019 1808.94 331.797 Q1811.23 334.551 1811.23 339.921 Z" fill="#000000" fill-rule="evenodd" fill-opacity="1" /><polyline clip-path="url(#clip320)" style="stroke:#000000; stroke-width:4; stroke-opacity:1; fill:none" points="
  1519.75,398.77 1670.81,398.77 
  "/>
<path clip-path="url(#clip320)" d="M 0 0 M1716.33 395.101 Q1717.92 392.23 1720.15 390.865 Q1722.37 389.499 1725.38 389.499 Q1729.43 389.499 1731.63 392.346 Q1733.83 395.17 1733.83 400.401 L1733.83 416.05 L1729.54 416.05 L1729.54 400.54 Q1729.54 396.814 1728.23 395.008 Q1726.91 393.202 1724.2 393.202 Q1720.89 393.202 1718.97 395.402 Q1717.04 397.601 1717.04 401.397 L1717.04 416.05 L1712.76 416.05 L1712.76 400.54 Q1712.76 396.79 1711.44 395.008 Q1710.12 393.202 1707.37 393.202 Q1704.11 393.202 1702.18 395.425 Q1700.26 397.624 1700.26 401.397 L1700.26 416.05 L1695.98 416.05 L1695.98 390.124 L1700.26 390.124 L1700.26 394.152 Q1701.72 391.767 1703.76 390.633 Q1705.79 389.499 1708.6 389.499 Q1711.42 389.499 1713.39 390.934 Q1715.38 392.369 1716.33 395.101 Z" fill="#000000" fill-rule="evenodd" fill-opacity="1" /><path clip-path="url(#clip320)" d="M 0 0 M1760.47 402.022 L1760.47 404.105 L1740.89 404.105 Q1741.17 408.503 1743.53 410.818 Q1745.91 413.11 1750.15 413.11 Q1752.6 413.11 1754.89 412.508 Q1757.21 411.906 1759.48 410.702 L1759.48 414.73 Q1757.18 415.702 1754.78 416.212 Q1752.37 416.721 1749.89 416.721 Q1743.69 416.721 1740.05 413.11 Q1736.44 409.499 1736.44 403.341 Q1736.44 396.976 1739.87 393.249 Q1743.32 389.499 1749.15 389.499 Q1754.38 389.499 1757.42 392.878 Q1760.47 396.235 1760.47 402.022 M1756.21 400.772 Q1756.17 397.277 1754.24 395.193 Q1752.35 393.11 1749.2 393.11 Q1745.63 393.11 1743.48 395.124 Q1741.35 397.138 1741.03 400.795 L1756.21 400.772 Z" fill="#000000" fill-rule="evenodd" fill-opacity="1" /><path clip-path="url(#clip320)" d="M 0 0 M1782 394.059 L1782 380.031 L1786.26 380.031 L1786.26 416.05 L1782 416.05 L1782 412.161 Q1780.66 414.475 1778.6 415.61 Q1776.56 416.721 1773.69 416.721 Q1768.99 416.721 1766.03 412.971 Q1763.09 409.221 1763.09 403.11 Q1763.09 396.999 1766.03 393.249 Q1768.99 389.499 1773.69 389.499 Q1776.56 389.499 1778.6 390.633 Q1780.66 391.744 1782 394.059 M1767.48 403.11 Q1767.48 407.809 1769.41 410.494 Q1771.35 413.156 1774.73 413.156 Q1778.11 413.156 1780.05 410.494 Q1782 407.809 1782 403.11 Q1782 398.411 1780.05 395.749 Q1778.11 393.064 1774.73 393.064 Q1771.35 393.064 1769.41 395.749 Q1767.48 398.411 1767.48 403.11 Z" fill="#000000" fill-rule="evenodd" fill-opacity="1" /><path clip-path="url(#clip320)" d="M 0 0 M1790.73 390.124 L1794.98 390.124 L1794.98 416.05 L1790.73 416.05 L1790.73 390.124 M1790.73 380.031 L1794.98 380.031 L1794.98 385.425 L1790.73 385.425 L1790.73 380.031 Z" fill="#000000" fill-rule="evenodd" fill-opacity="1" /><path clip-path="url(#clip320)" d="M 0 0 M1811.23 403.017 Q1806.07 403.017 1804.08 404.198 Q1802.09 405.378 1802.09 408.226 Q1802.09 410.494 1803.57 411.837 Q1805.08 413.156 1807.65 413.156 Q1811.19 413.156 1813.32 410.656 Q1815.47 408.133 1815.47 403.966 L1815.47 403.017 L1811.23 403.017 M1819.73 401.258 L1819.73 416.05 L1815.47 416.05 L1815.47 412.114 Q1814.01 414.475 1811.84 415.61 Q1809.66 416.721 1806.51 416.721 Q1802.53 416.721 1800.17 414.499 Q1797.83 412.253 1797.83 408.503 Q1797.83 404.128 1800.75 401.906 Q1803.69 399.684 1809.5 399.684 L1815.47 399.684 L1815.47 399.267 Q1815.47 396.327 1813.53 394.73 Q1811.6 393.11 1808.11 393.11 Q1805.89 393.11 1803.78 393.642 Q1801.67 394.175 1799.73 395.239 L1799.73 391.304 Q1802.07 390.402 1804.27 389.962 Q1806.47 389.499 1808.55 389.499 Q1814.17 389.499 1816.95 392.415 Q1819.73 395.332 1819.73 401.258 Z" fill="#000000" fill-rule="evenodd" fill-opacity="1" /><path clip-path="url(#clip320)" d="M 0 0 M1845.75 400.401 L1845.75 416.05 L1841.49 416.05 L1841.49 400.54 Q1841.49 396.86 1840.05 395.031 Q1838.62 393.202 1835.75 393.202 Q1832.3 393.202 1830.31 395.402 Q1828.32 397.601 1828.32 401.397 L1828.32 416.05 L1824.04 416.05 L1824.04 390.124 L1828.32 390.124 L1828.32 394.152 Q1829.85 391.814 1831.91 390.656 Q1833.99 389.499 1836.7 389.499 Q1841.16 389.499 1843.46 392.277 Q1845.75 395.031 1845.75 400.401 Z" fill="#000000" fill-rule="evenodd" fill-opacity="1" /></svg>
