<?xml version="1.0" encoding="utf-8"?>
<svg xmlns="http://www.w3.org/2000/svg" xmlns:xlink="http://www.w3.org/1999/xlink" width="600" height="400" viewBox="0 0 2400 1600">
<defs>
  <clipPath id="clip990">
    <rect x="0" y="0" width="2400" height="1600"/>
  </clipPath>
</defs>
<path clip-path="url(#clip990)" d="
M0 1600 L2400 1600 L2400 0 L0 0  Z
  " fill="#ffffff" fill-rule="evenodd" fill-opacity="1"/>
<defs>
  <clipPath id="clip991">
    <rect x="480" y="0" width="1681" height="1600"/>
  </clipPath>
</defs>
<path clip-path="url(#clip990)" d="
M86.9921 1521.01 L2352.76 1521.01 L2352.76 47.2441 L86.9921 47.2441  Z
  " fill="#ffffff" fill-rule="evenodd" fill-opacity="1"/>
<defs>
  <clipPath id="clip992">
    <rect x="86" y="47" width="2267" height="1475"/>
  </clipPath>
</defs>
<polyline clip-path="url(#clip992)" style="stroke:#000000; stroke-width:2; stroke-opacity:0.1; fill:none" points="
  441.531,1521.01 441.531,47.2441 
  "/>
<polyline clip-path="url(#clip992)" style="stroke:#000000; stroke-width:2; stroke-opacity:0.1; fill:none" points="
  811.072,1521.01 811.072,47.2441 
  "/>
<polyline clip-path="url(#clip992)" style="stroke:#000000; stroke-width:2; stroke-opacity:0.1; fill:none" points="
  1180.61,1521.01 1180.61,47.2441 
  "/>
<polyline clip-path="url(#clip992)" style="stroke:#000000; stroke-width:2; stroke-opacity:0.1; fill:none" points="
  1550.16,1521.01 1550.16,47.2441 
  "/>
<polyline clip-path="url(#clip992)" style="stroke:#000000; stroke-width:2; stroke-opacity:0.1; fill:none" points="
  1919.7,1521.01 1919.7,47.2441 
  "/>
<polyline clip-path="url(#clip992)" style="stroke:#000000; stroke-width:2; stroke-opacity:0.1; fill:none" points="
  2289.24,1521.01 2289.24,47.2441 
  "/>
<polyline clip-path="url(#clip992)" style="stroke:#000000; stroke-width:2; stroke-opacity:0.1; fill:none" points="
  86.9921,1479.3 2352.76,1479.3 
  "/>
<polyline clip-path="url(#clip992)" style="stroke:#000000; stroke-width:2; stroke-opacity:0.1; fill:none" points="
  86.9921,1185.86 2352.76,1185.86 
  "/>
<polyline clip-path="url(#clip992)" style="stroke:#000000; stroke-width:2; stroke-opacity:0.1; fill:none" points="
  86.9921,892.415 2352.76,892.415 
  "/>
<polyline clip-path="url(#clip992)" style="stroke:#000000; stroke-width:2; stroke-opacity:0.1; fill:none" points="
  86.9921,598.974 2352.76,598.974 
  "/>
<polyline clip-path="url(#clip992)" style="stroke:#000000; stroke-width:2; stroke-opacity:0.1; fill:none" points="
  86.9921,305.533 2352.76,305.533 
  "/>
<polyline clip-path="url(#clip990)" style="stroke:#000000; stroke-width:4; stroke-opacity:1; fill:none" points="
  86.9921,1521.01 2352.76,1521.01 
  "/>
<polyline clip-path="url(#clip990)" style="stroke:#000000; stroke-width:4; stroke-opacity:1; fill:none" points="
  86.9921,1521.01 86.9921,47.2441 
  "/>
<polyline clip-path="url(#clip990)" style="stroke:#000000; stroke-width:4; stroke-opacity:1; fill:none" points="
  441.531,1521.01 441.531,1503.32 
  "/>
<polyline clip-path="url(#clip990)" style="stroke:#000000; stroke-width:4; stroke-opacity:1; fill:none" points="
  811.072,1521.01 811.072,1503.32 
  "/>
<polyline clip-path="url(#clip990)" style="stroke:#000000; stroke-width:4; stroke-opacity:1; fill:none" points="
  1180.61,1521.01 1180.61,1503.32 
  "/>
<polyline clip-path="url(#clip990)" style="stroke:#000000; stroke-width:4; stroke-opacity:1; fill:none" points="
  1550.16,1521.01 1550.16,1503.32 
  "/>
<polyline clip-path="url(#clip990)" style="stroke:#000000; stroke-width:4; stroke-opacity:1; fill:none" points="
  1919.7,1521.01 1919.7,1503.32 
  "/>
<polyline clip-path="url(#clip990)" style="stroke:#000000; stroke-width:4; stroke-opacity:1; fill:none" points="
  2289.24,1521.01 2289.24,1503.32 
  "/>
<polyline clip-path="url(#clip990)" style="stroke:#000000; stroke-width:4; stroke-opacity:1; fill:none" points="
  86.9921,1479.3 114.181,1479.3 
  "/>
<polyline clip-path="url(#clip990)" style="stroke:#000000; stroke-width:4; stroke-opacity:1; fill:none" points="
  86.9921,1185.86 114.181,1185.86 
  "/>
<polyline clip-path="url(#clip990)" style="stroke:#000000; stroke-width:4; stroke-opacity:1; fill:none" points="
  86.9921,892.415 114.181,892.415 
  "/>
<polyline clip-path="url(#clip990)" style="stroke:#000000; stroke-width:4; stroke-opacity:1; fill:none" points="
  86.9921,598.974 114.181,598.974 
  "/>
<polyline clip-path="url(#clip990)" style="stroke:#000000; stroke-width:4; stroke-opacity:1; fill:none" points="
  86.9921,305.533 114.181,305.533 
  "/>
<path clip-path="url(#clip990)" d="M 0 0 M397.33 1543 Q393.718 1543 391.89 1546.56 Q390.084 1550.11 390.084 1557.23 Q390.084 1564.34 391.89 1567.91 Q393.718 1571.45 397.33 1571.45 Q400.964 1571.45 402.769 1567.91 Q404.598 1564.34 404.598 1557.23 Q404.598 1550.11 402.769 1546.56 Q400.964 1543 397.33 1543 M397.33 1539.29 Q403.14 1539.29 406.195 1543.9 Q409.274 1548.48 409.274 1557.23 Q409.274 1565.96 406.195 1570.57 Q403.14 1575.15 397.33 1575.15 Q391.519 1575.15 388.441 1570.57 Q385.385 1565.96 385.385 1557.23 Q385.385 1548.48 388.441 1543.9 Q391.519 1539.29 397.33 1539.29 Z" fill="#000000" fill-rule="evenodd" fill-opacity="1" /><path clip-path="url(#clip990)" d="M 0 0 M414.343 1568.6 L419.228 1568.6 L419.228 1574.48 L414.343 1574.48 L414.343 1568.6 Z" fill="#000000" fill-rule="evenodd" fill-opacity="1" /><path clip-path="url(#clip990)" d="M 0 0 M434.297 1543 Q430.686 1543 428.857 1546.56 Q427.052 1550.11 427.052 1557.23 Q427.052 1564.34 428.857 1567.91 Q430.686 1571.45 434.297 1571.45 Q437.931 1571.45 439.737 1567.91 Q441.565 1564.34 441.565 1557.23 Q441.565 1550.11 439.737 1546.56 Q437.931 1543 434.297 1543 M434.297 1539.29 Q440.107 1539.29 443.163 1543.9 Q446.241 1548.48 446.241 1557.23 Q446.241 1565.96 443.163 1570.57 Q440.107 1575.15 434.297 1575.15 Q428.487 1575.15 425.408 1570.57 Q422.353 1565.96 422.353 1557.23 Q422.353 1548.48 425.408 1543.9 Q428.487 1539.29 434.297 1539.29 Z" fill="#000000" fill-rule="evenodd" fill-opacity="1" /><path clip-path="url(#clip990)" d="M 0 0 M455.338 1570.54 L471.658 1570.54 L471.658 1574.48 L449.714 1574.48 L449.714 1570.54 Q452.376 1567.79 456.959 1563.16 Q461.565 1558.51 462.746 1557.17 Q464.991 1554.64 465.871 1552.91 Q466.774 1551.15 466.774 1549.46 Q466.774 1546.7 464.829 1544.97 Q462.908 1543.23 459.806 1543.23 Q457.607 1543.23 455.153 1543.99 Q452.723 1544.76 449.945 1546.31 L449.945 1541.59 Q452.769 1540.45 455.223 1539.87 Q457.676 1539.29 459.713 1539.29 Q465.084 1539.29 468.278 1541.98 Q471.473 1544.67 471.473 1549.16 Q471.473 1551.29 470.662 1553.21 Q469.875 1555.1 467.769 1557.7 Q467.19 1558.37 464.088 1561.59 Q460.987 1564.78 455.338 1570.54 Z" fill="#000000" fill-rule="evenodd" fill-opacity="1" /><path clip-path="url(#clip990)" d="M 0 0 M476.774 1539.92 L495.13 1539.92 L495.13 1543.86 L481.056 1543.86 L481.056 1552.33 Q482.074 1551.98 483.093 1551.82 Q484.111 1551.63 485.13 1551.63 Q490.917 1551.63 494.297 1554.8 Q497.676 1557.98 497.676 1563.39 Q497.676 1568.97 494.204 1572.07 Q490.732 1575.15 484.412 1575.15 Q482.236 1575.15 479.968 1574.78 Q477.723 1574.41 475.315 1573.67 L475.315 1568.97 Q477.399 1570.1 479.621 1570.66 Q481.843 1571.22 484.32 1571.22 Q488.324 1571.22 490.662 1569.11 Q493 1567 493 1563.39 Q493 1559.78 490.662 1557.67 Q488.324 1555.57 484.32 1555.57 Q482.445 1555.57 480.57 1555.98 Q478.718 1556.4 476.774 1557.28 L476.774 1539.92 Z" fill="#000000" fill-rule="evenodd" fill-opacity="1" /><path clip-path="url(#clip990)" d="M 0 0 M765.899 1543 Q762.288 1543 760.459 1546.56 Q758.654 1550.11 758.654 1557.23 Q758.654 1564.34 760.459 1567.91 Q762.288 1571.45 765.899 1571.45 Q769.533 1571.45 771.339 1567.91 Q773.168 1564.34 773.168 1557.23 Q773.168 1550.11 771.339 1546.56 Q769.533 1543 765.899 1543 M765.899 1539.29 Q771.709 1539.29 774.765 1543.9 Q777.843 1548.48 777.843 1557.23 Q777.843 1565.96 774.765 1570.57 Q771.709 1575.15 765.899 1575.15 Q760.089 1575.15 757.01 1570.57 Q753.955 1565.96 753.955 1557.23 Q753.955 1548.48 757.01 1543.9 Q760.089 1539.29 765.899 1539.29 Z" fill="#000000" fill-rule="evenodd" fill-opacity="1" /><path clip-path="url(#clip990)" d="M 0 0 M782.913 1568.6 L787.797 1568.6 L787.797 1574.48 L782.913 1574.48 L782.913 1568.6 Z" fill="#000000" fill-rule="evenodd" fill-opacity="1" /><path clip-path="url(#clip990)" d="M 0 0 M802.866 1543 Q799.255 1543 797.427 1546.56 Q795.621 1550.11 795.621 1557.23 Q795.621 1564.34 797.427 1567.91 Q799.255 1571.45 802.866 1571.45 Q806.501 1571.45 808.306 1567.91 Q810.135 1564.34 810.135 1557.23 Q810.135 1550.11 808.306 1546.56 Q806.501 1543 802.866 1543 M802.866 1539.29 Q808.677 1539.29 811.732 1543.9 Q814.811 1548.48 814.811 1557.23 Q814.811 1565.96 811.732 1570.57 Q808.677 1575.15 802.866 1575.15 Q797.056 1575.15 793.978 1570.57 Q790.922 1565.96 790.922 1557.23 Q790.922 1548.48 793.978 1543.9 Q797.056 1539.29 802.866 1539.29 Z" fill="#000000" fill-rule="evenodd" fill-opacity="1" /><path clip-path="url(#clip990)" d="M 0 0 M834.047 1555.85 Q837.403 1556.56 839.278 1558.83 Q841.176 1561.1 841.176 1564.43 Q841.176 1569.55 837.658 1572.35 Q834.139 1575.15 827.658 1575.15 Q825.482 1575.15 823.167 1574.71 Q820.876 1574.29 818.422 1573.44 L818.422 1568.92 Q820.366 1570.06 822.681 1570.64 Q824.996 1571.22 827.519 1571.22 Q831.917 1571.22 834.209 1569.48 Q836.524 1567.74 836.524 1564.43 Q836.524 1561.38 834.371 1559.67 Q832.241 1557.93 828.422 1557.93 L824.394 1557.93 L824.394 1554.09 L828.607 1554.09 Q832.056 1554.09 833.885 1552.72 Q835.713 1551.33 835.713 1548.74 Q835.713 1546.08 833.815 1544.67 Q831.94 1543.23 828.422 1543.23 Q826.501 1543.23 824.302 1543.65 Q822.102 1544.06 819.464 1544.94 L819.464 1540.78 Q822.126 1540.04 824.44 1539.67 Q826.778 1539.29 828.839 1539.29 Q834.163 1539.29 837.264 1541.73 Q840.366 1544.13 840.366 1548.25 Q840.366 1551.12 838.723 1553.11 Q837.079 1555.08 834.047 1555.85 Z" fill="#000000" fill-rule="evenodd" fill-opacity="1" /><path clip-path="url(#clip990)" d="M 0 0 M856.246 1543 Q852.635 1543 850.806 1546.56 Q849 1550.11 849 1557.23 Q849 1564.34 850.806 1567.91 Q852.635 1571.45 856.246 1571.45 Q859.88 1571.45 861.686 1567.91 Q863.514 1564.34 863.514 1557.23 Q863.514 1550.11 861.686 1546.56 Q859.88 1543 856.246 1543 M856.246 1539.29 Q862.056 1539.29 865.111 1543.9 Q868.19 1548.48 868.19 1557.23 Q868.19 1565.96 865.111 1570.57 Q862.056 1575.15 856.246 1575.15 Q850.436 1575.15 847.357 1570.57 Q844.301 1565.96 844.301 1557.23 Q844.301 1548.48 847.357 1543.9 Q850.436 1539.29 856.246 1539.29 Z" fill="#000000" fill-rule="evenodd" fill-opacity="1" /><path clip-path="url(#clip990)" d="M 0 0 M1135.94 1543 Q1132.33 1543 1130.5 1546.56 Q1128.69 1550.11 1128.69 1557.23 Q1128.69 1564.34 1130.5 1567.91 Q1132.33 1571.45 1135.94 1571.45 Q1139.57 1571.45 1141.38 1567.91 Q1143.21 1564.34 1143.21 1557.23 Q1143.21 1550.11 1141.38 1546.56 Q1139.57 1543 1135.94 1543 M1135.94 1539.29 Q1141.75 1539.29 1144.8 1543.9 Q1147.88 1548.48 1147.88 1557.23 Q1147.88 1565.96 1144.8 1570.57 Q1141.75 1575.15 1135.94 1575.15 Q1130.13 1575.15 1127.05 1570.57 Q1123.99 1565.96 1123.99 1557.23 Q1123.99 1548.48 1127.05 1543.9 Q1130.13 1539.29 1135.94 1539.29 Z" fill="#000000" fill-rule="evenodd" fill-opacity="1" /><path clip-path="url(#clip990)" d="M 0 0 M1152.95 1568.6 L1157.84 1568.6 L1157.84 1574.48 L1152.95 1574.48 L1152.95 1568.6 Z" fill="#000000" fill-rule="evenodd" fill-opacity="1" /><path clip-path="url(#clip990)" d="M 0 0 M1172.91 1543 Q1169.29 1543 1167.47 1546.56 Q1165.66 1550.11 1165.66 1557.23 Q1165.66 1564.34 1167.47 1567.91 Q1169.29 1571.45 1172.91 1571.45 Q1176.54 1571.45 1178.35 1567.91 Q1180.17 1564.34 1180.17 1557.23 Q1180.17 1550.11 1178.35 1546.56 Q1176.54 1543 1172.91 1543 M1172.91 1539.29 Q1178.72 1539.29 1181.77 1543.9 Q1184.85 1548.48 1184.85 1557.23 Q1184.85 1565.96 1181.77 1570.57 Q1178.72 1575.15 1172.91 1575.15 Q1167.1 1575.15 1164.02 1570.57 Q1160.96 1565.96 1160.96 1557.23 Q1160.96 1548.48 1164.02 1543.9 Q1167.1 1539.29 1172.91 1539.29 Z" fill="#000000" fill-rule="evenodd" fill-opacity="1" /><path clip-path="url(#clip990)" d="M 0 0 M1204.09 1555.85 Q1207.44 1556.56 1209.32 1558.83 Q1211.22 1561.1 1211.22 1564.43 Q1211.22 1569.55 1207.7 1572.35 Q1204.18 1575.15 1197.7 1575.15 Q1195.52 1575.15 1193.21 1574.71 Q1190.92 1574.29 1188.46 1573.44 L1188.46 1568.92 Q1190.41 1570.06 1192.72 1570.64 Q1195.04 1571.22 1197.56 1571.22 Q1201.96 1571.22 1204.25 1569.48 Q1206.56 1567.74 1206.56 1564.43 Q1206.56 1561.38 1204.41 1559.67 Q1202.28 1557.93 1198.46 1557.93 L1194.43 1557.93 L1194.43 1554.09 L1198.65 1554.09 Q1202.1 1554.09 1203.92 1552.72 Q1205.75 1551.33 1205.75 1548.74 Q1205.75 1546.08 1203.85 1544.67 Q1201.98 1543.23 1198.46 1543.23 Q1196.54 1543.23 1194.34 1543.65 Q1192.14 1544.06 1189.5 1544.94 L1189.5 1540.78 Q1192.17 1540.04 1194.48 1539.67 Q1196.82 1539.29 1198.88 1539.29 Q1204.2 1539.29 1207.3 1541.73 Q1210.41 1544.13 1210.41 1548.25 Q1210.41 1551.12 1208.76 1553.11 Q1207.12 1555.08 1204.09 1555.85 Z" fill="#000000" fill-rule="evenodd" fill-opacity="1" /><path clip-path="url(#clip990)" d="M 0 0 M1216.33 1539.92 L1234.69 1539.92 L1234.69 1543.86 L1220.61 1543.86 L1220.61 1552.33 Q1221.63 1551.98 1222.65 1551.82 Q1223.67 1551.63 1224.69 1551.63 Q1230.47 1551.63 1233.85 1554.8 Q1237.23 1557.98 1237.23 1563.39 Q1237.23 1568.97 1233.76 1572.07 Q1230.29 1575.15 1223.97 1575.15 Q1221.79 1575.15 1219.53 1574.78 Q1217.28 1574.41 1214.87 1573.67 L1214.87 1568.97 Q1216.96 1570.1 1219.18 1570.66 Q1221.4 1571.22 1223.88 1571.22 Q1227.88 1571.22 1230.22 1569.11 Q1232.56 1567 1232.56 1563.39 Q1232.56 1559.78 1230.22 1557.67 Q1227.88 1555.57 1223.88 1555.57 Q1222 1555.57 1220.13 1555.98 Q1218.28 1556.4 1216.33 1557.28 L1216.33 1539.92 Z" fill="#000000" fill-rule="evenodd" fill-opacity="1" /><path clip-path="url(#clip990)" d="M 0 0 M1504.42 1543 Q1500.8 1543 1498.98 1546.56 Q1497.17 1550.11 1497.17 1557.23 Q1497.17 1564.34 1498.98 1567.91 Q1500.8 1571.45 1504.42 1571.45 Q1508.05 1571.45 1509.86 1567.91 Q1511.68 1564.34 1511.68 1557.23 Q1511.68 1550.11 1509.86 1546.56 Q1508.05 1543 1504.42 1543 M1504.42 1539.29 Q1510.23 1539.29 1513.28 1543.9 Q1516.36 1548.48 1516.36 1557.23 Q1516.36 1565.96 1513.28 1570.57 Q1510.23 1575.15 1504.42 1575.15 Q1498.61 1575.15 1495.53 1570.57 Q1492.47 1565.96 1492.47 1557.23 Q1492.47 1548.48 1495.53 1543.9 Q1498.61 1539.29 1504.42 1539.29 Z" fill="#000000" fill-rule="evenodd" fill-opacity="1" /><path clip-path="url(#clip990)" d="M 0 0 M1521.43 1568.6 L1526.31 1568.6 L1526.31 1574.48 L1521.43 1574.48 L1521.43 1568.6 Z" fill="#000000" fill-rule="evenodd" fill-opacity="1" /><path clip-path="url(#clip990)" d="M 0 0 M1541.38 1543 Q1537.77 1543 1535.94 1546.56 Q1534.14 1550.11 1534.14 1557.23 Q1534.14 1564.34 1535.94 1567.91 Q1537.77 1571.45 1541.38 1571.45 Q1545.02 1571.45 1546.82 1567.91 Q1548.65 1564.34 1548.65 1557.23 Q1548.65 1550.11 1546.82 1546.56 Q1545.02 1543 1541.38 1543 M1541.38 1539.29 Q1547.19 1539.29 1550.25 1543.9 Q1553.33 1548.48 1553.33 1557.23 Q1553.33 1565.96 1550.25 1570.57 Q1547.19 1575.15 1541.38 1575.15 Q1535.57 1575.15 1532.49 1570.57 Q1529.44 1565.96 1529.44 1557.23 Q1529.44 1548.48 1532.49 1543.9 Q1535.57 1539.29 1541.38 1539.29 Z" fill="#000000" fill-rule="evenodd" fill-opacity="1" /><path clip-path="url(#clip990)" d="M 0 0 M1571.24 1543.99 L1559.44 1562.44 L1571.24 1562.44 L1571.24 1543.99 M1570.02 1539.92 L1575.9 1539.92 L1575.9 1562.44 L1580.83 1562.44 L1580.83 1566.33 L1575.9 1566.33 L1575.9 1574.48 L1571.24 1574.48 L1571.24 1566.33 L1555.64 1566.33 L1555.64 1561.82 L1570.02 1539.92 Z" fill="#000000" fill-rule="evenodd" fill-opacity="1" /><path clip-path="url(#clip990)" d="M 0 0 M1595.9 1543 Q1592.29 1543 1590.46 1546.56 Q1588.65 1550.11 1588.65 1557.23 Q1588.65 1564.34 1590.46 1567.91 Q1592.29 1571.45 1595.9 1571.45 Q1599.53 1571.45 1601.34 1567.91 Q1603.16 1564.34 1603.16 1557.23 Q1603.16 1550.11 1601.34 1546.56 Q1599.53 1543 1595.9 1543 M1595.9 1539.29 Q1601.71 1539.29 1604.76 1543.9 Q1607.84 1548.48 1607.84 1557.23 Q1607.84 1565.96 1604.76 1570.57 Q1601.71 1575.15 1595.9 1575.15 Q1590.09 1575.15 1587.01 1570.57 Q1583.95 1565.96 1583.95 1557.23 Q1583.95 1548.48 1587.01 1543.9 Q1590.09 1539.29 1595.9 1539.29 Z" fill="#000000" fill-rule="evenodd" fill-opacity="1" /><path clip-path="url(#clip990)" d="M 0 0 M1874.45 1543 Q1870.84 1543 1869.02 1546.56 Q1867.21 1550.11 1867.21 1557.23 Q1867.21 1564.34 1869.02 1567.91 Q1870.84 1571.45 1874.45 1571.45 Q1878.09 1571.45 1879.89 1567.91 Q1881.72 1564.34 1881.72 1557.23 Q1881.72 1550.11 1879.89 1546.56 Q1878.09 1543 1874.45 1543 M1874.45 1539.29 Q1880.26 1539.29 1883.32 1543.9 Q1886.4 1548.48 1886.4 1557.23 Q1886.4 1565.96 1883.32 1570.57 Q1880.26 1575.15 1874.45 1575.15 Q1868.64 1575.15 1865.57 1570.57 Q1862.51 1565.96 1862.51 1557.23 Q1862.51 1548.48 1865.57 1543.9 Q1868.64 1539.29 1874.45 1539.29 Z" fill="#000000" fill-rule="evenodd" fill-opacity="1" /><path clip-path="url(#clip990)" d="M 0 0 M1891.47 1568.6 L1896.35 1568.6 L1896.35 1574.48 L1891.47 1574.48 L1891.47 1568.6 Z" fill="#000000" fill-rule="evenodd" fill-opacity="1" /><path clip-path="url(#clip990)" d="M 0 0 M1911.42 1543 Q1907.81 1543 1905.98 1546.56 Q1904.18 1550.11 1904.18 1557.23 Q1904.18 1564.34 1905.98 1567.91 Q1907.81 1571.45 1911.42 1571.45 Q1915.06 1571.45 1916.86 1567.91 Q1918.69 1564.34 1918.69 1557.23 Q1918.69 1550.11 1916.86 1546.56 Q1915.06 1543 1911.42 1543 M1911.42 1539.29 Q1917.23 1539.29 1920.29 1543.9 Q1923.37 1548.48 1923.37 1557.23 Q1923.37 1565.96 1920.29 1570.57 Q1917.23 1575.15 1911.42 1575.15 Q1905.61 1575.15 1902.53 1570.57 Q1899.48 1565.96 1899.48 1557.23 Q1899.48 1548.48 1902.53 1543.9 Q1905.61 1539.29 1911.42 1539.29 Z" fill="#000000" fill-rule="evenodd" fill-opacity="1" /><path clip-path="url(#clip990)" d="M 0 0 M1941.28 1543.99 L1929.48 1562.44 L1941.28 1562.44 L1941.28 1543.99 M1940.06 1539.92 L1945.94 1539.92 L1945.94 1562.44 L1950.87 1562.44 L1950.87 1566.33 L1945.94 1566.33 L1945.94 1574.48 L1941.28 1574.48 L1941.28 1566.33 L1925.68 1566.33 L1925.68 1561.82 L1940.06 1539.92 Z" fill="#000000" fill-rule="evenodd" fill-opacity="1" /><path clip-path="url(#clip990)" d="M 0 0 M1955.98 1539.92 L1974.34 1539.92 L1974.34 1543.86 L1960.26 1543.86 L1960.26 1552.33 Q1961.28 1551.98 1962.3 1551.82 Q1963.32 1551.63 1964.34 1551.63 Q1970.13 1551.63 1973.51 1554.8 Q1976.88 1557.98 1976.88 1563.39 Q1976.88 1568.97 1973.41 1572.07 Q1969.94 1575.15 1963.62 1575.15 Q1961.45 1575.15 1959.18 1574.78 Q1956.93 1574.41 1954.52 1573.67 L1954.52 1568.97 Q1956.61 1570.1 1958.83 1570.66 Q1961.05 1571.22 1963.53 1571.22 Q1967.53 1571.22 1969.87 1569.11 Q1972.21 1567 1972.21 1563.39 Q1972.21 1559.78 1969.87 1557.67 Q1967.53 1555.57 1963.53 1555.57 Q1961.65 1555.57 1959.78 1555.98 Q1957.93 1556.4 1955.98 1557.28 L1955.98 1539.92 Z" fill="#000000" fill-rule="evenodd" fill-opacity="1" /><path clip-path="url(#clip990)" d="M 0 0 M2244.24 1543 Q2240.63 1543 2238.8 1546.56 Q2236.99 1550.11 2236.99 1557.23 Q2236.99 1564.34 2238.8 1567.91 Q2240.63 1571.45 2244.24 1571.45 Q2247.87 1571.45 2249.68 1567.91 Q2251.51 1564.34 2251.51 1557.23 Q2251.51 1550.11 2249.68 1546.56 Q2247.87 1543 2244.24 1543 M2244.24 1539.29 Q2250.05 1539.29 2253.11 1543.9 Q2256.18 1548.48 2256.18 1557.23 Q2256.18 1565.96 2253.11 1570.57 Q2250.05 1575.15 2244.24 1575.15 Q2238.43 1575.15 2235.35 1570.57 Q2232.3 1565.96 2232.3 1557.23 Q2232.3 1548.48 2235.35 1543.9 Q2238.43 1539.29 2244.24 1539.29 Z" fill="#000000" fill-rule="evenodd" fill-opacity="1" /><path clip-path="url(#clip990)" d="M 0 0 M2261.25 1568.6 L2266.14 1568.6 L2266.14 1574.48 L2261.25 1574.48 L2261.25 1568.6 Z" fill="#000000" fill-rule="evenodd" fill-opacity="1" /><path clip-path="url(#clip990)" d="M 0 0 M2281.21 1543 Q2277.6 1543 2275.77 1546.56 Q2273.96 1550.11 2273.96 1557.23 Q2273.96 1564.34 2275.77 1567.91 Q2277.6 1571.45 2281.21 1571.45 Q2284.84 1571.45 2286.65 1567.91 Q2288.48 1564.34 2288.48 1557.23 Q2288.48 1550.11 2286.65 1546.56 Q2284.84 1543 2281.21 1543 M2281.21 1539.29 Q2287.02 1539.29 2290.07 1543.9 Q2293.15 1548.48 2293.15 1557.23 Q2293.15 1565.96 2290.07 1570.57 Q2287.02 1575.15 2281.21 1575.15 Q2275.4 1575.15 2272.32 1570.57 Q2269.26 1565.96 2269.26 1557.23 Q2269.26 1548.48 2272.32 1543.9 Q2275.4 1539.29 2281.21 1539.29 Z" fill="#000000" fill-rule="evenodd" fill-opacity="1" /><path clip-path="url(#clip990)" d="M 0 0 M2298.27 1539.92 L2316.62 1539.92 L2316.62 1543.86 L2302.55 1543.86 L2302.55 1552.33 Q2303.57 1551.98 2304.59 1551.82 Q2305.61 1551.63 2306.62 1551.63 Q2312.41 1551.63 2315.79 1554.8 Q2319.17 1557.98 2319.17 1563.39 Q2319.17 1568.97 2315.7 1572.07 Q2312.23 1575.15 2305.91 1575.15 Q2303.73 1575.15 2301.46 1574.78 Q2299.22 1574.41 2296.81 1573.67 L2296.81 1568.97 Q2298.89 1570.1 2301.11 1570.66 Q2303.34 1571.22 2305.81 1571.22 Q2309.82 1571.22 2312.16 1569.11 Q2314.49 1567 2314.49 1563.39 Q2314.49 1559.78 2312.16 1557.67 Q2309.82 1555.57 2305.81 1555.57 Q2303.94 1555.57 2302.06 1555.98 Q2300.21 1556.4 2298.27 1557.28 L2298.27 1539.92 Z" fill="#000000" fill-rule="evenodd" fill-opacity="1" /><path clip-path="url(#clip990)" d="M 0 0 M2334.24 1543 Q2330.63 1543 2328.8 1546.56 Q2326.99 1550.11 2326.99 1557.23 Q2326.99 1564.34 2328.8 1567.91 Q2330.63 1571.45 2334.24 1571.45 Q2337.87 1571.45 2339.68 1567.91 Q2341.51 1564.34 2341.51 1557.23 Q2341.51 1550.11 2339.68 1546.56 Q2337.87 1543 2334.24 1543 M2334.24 1539.29 Q2340.05 1539.29 2343.1 1543.9 Q2346.18 1548.48 2346.18 1557.23 Q2346.18 1565.96 2343.1 1570.57 Q2340.05 1575.15 2334.24 1575.15 Q2328.43 1575.15 2325.35 1570.57 Q2322.29 1565.96 2322.29 1557.23 Q2322.29 1548.48 2325.35 1543.9 Q2328.43 1539.29 2334.24 1539.29 Z" fill="#000000" fill-rule="evenodd" fill-opacity="1" /><path clip-path="url(#clip990)" d="M 0 0 M51.0477 1465.1 Q47.4367 1465.1 45.608 1468.66 Q43.8024 1472.2 43.8024 1479.33 Q43.8024 1486.44 45.608 1490 Q47.4367 1493.55 51.0477 1493.55 Q54.682 1493.55 56.4875 1490 Q58.3162 1486.44 58.3162 1479.33 Q58.3162 1472.2 56.4875 1468.66 Q54.682 1465.1 51.0477 1465.1 M51.0477 1461.39 Q56.8579 1461.39 59.9134 1466 Q62.9921 1470.58 62.9921 1479.33 Q62.9921 1488.06 59.9134 1492.67 Q56.8579 1497.25 51.0477 1497.25 Q45.2376 1497.25 42.1589 1492.67 Q39.1034 1488.06 39.1034 1479.33 Q39.1034 1470.58 42.1589 1466 Q45.2376 1461.39 51.0477 1461.39 Z" fill="#000000" fill-rule="evenodd" fill-opacity="1" /><path clip-path="url(#clip990)" d="M 0 0 M16.0711 1199.2 L23.7099 1199.2 L23.7099 1172.84 L15.3998 1174.5 L15.3998 1170.24 L23.6636 1168.58 L28.3395 1168.58 L28.3395 1199.2 L35.9784 1199.2 L35.9784 1203.14 L16.0711 1203.14 L16.0711 1199.2 Z" fill="#000000" fill-rule="evenodd" fill-opacity="1" /><path clip-path="url(#clip990)" d="M 0 0 M51.0477 1171.66 Q47.4367 1171.66 45.608 1175.22 Q43.8024 1178.76 43.8024 1185.89 Q43.8024 1193 45.608 1196.56 Q47.4367 1200.1 51.0477 1200.1 Q54.682 1200.1 56.4875 1196.56 Q58.3162 1193 58.3162 1185.89 Q58.3162 1178.76 56.4875 1175.22 Q54.682 1171.66 51.0477 1171.66 M51.0477 1167.95 Q56.8579 1167.95 59.9134 1172.56 Q62.9921 1177.14 62.9921 1185.89 Q62.9921 1194.62 59.9134 1199.22 Q56.8579 1203.81 51.0477 1203.81 Q45.2376 1203.81 42.1589 1199.22 Q39.1034 1194.62 39.1034 1185.89 Q39.1034 1177.14 42.1589 1172.56 Q45.2376 1167.95 51.0477 1167.95 Z" fill="#000000" fill-rule="evenodd" fill-opacity="1" /><path clip-path="url(#clip990)" d="M 0 0 M19.659 905.76 L35.9784 905.76 L35.9784 909.695 L14.0341 909.695 L14.0341 905.76 Q16.6961 903.005 21.2794 898.376 Q25.8858 893.723 27.0664 892.381 Q29.3118 889.857 30.1914 888.121 Q31.0941 886.362 31.0941 884.672 Q31.0941 881.918 29.1497 880.182 Q27.2284 878.445 24.1266 878.445 Q21.9275 878.445 19.4738 879.209 Q17.0433 879.973 14.2655 881.524 L14.2655 876.802 Q17.0896 875.668 19.5433 875.089 Q21.997 874.51 24.034 874.51 Q29.4043 874.51 32.5988 877.195 Q35.7932 879.881 35.7932 884.371 Q35.7932 886.501 34.983 888.422 Q34.196 890.32 32.0895 892.913 Q31.5108 893.584 28.409 896.802 Q25.3071 899.996 19.659 905.76 Z" fill="#000000" fill-rule="evenodd" fill-opacity="1" /><path clip-path="url(#clip990)" d="M 0 0 M51.0477 878.214 Q47.4367 878.214 45.608 881.779 Q43.8024 885.32 43.8024 892.45 Q43.8024 899.556 45.608 903.121 Q47.4367 906.663 51.0477 906.663 Q54.682 906.663 56.4875 903.121 Q58.3162 899.556 58.3162 892.45 Q58.3162 885.32 56.4875 881.779 Q54.682 878.214 51.0477 878.214 M51.0477 874.51 Q56.8579 874.51 59.9134 879.117 Q62.9921 883.7 62.9921 892.45 Q62.9921 901.177 59.9134 905.783 Q56.8579 910.367 51.0477 910.367 Q45.2376 910.367 42.1589 905.783 Q39.1034 901.177 39.1034 892.45 Q39.1034 883.7 42.1589 879.117 Q45.2376 874.51 51.0477 874.51 Z" fill="#000000" fill-rule="evenodd" fill-opacity="1" /><path clip-path="url(#clip990)" d="M 0 0 M28.8488 597.62 Q32.2053 598.337 34.0802 600.606 Q35.9784 602.875 35.9784 606.208 Q35.9784 611.324 32.4599 614.124 Q28.9414 616.925 22.4599 616.925 Q20.284 616.925 17.9692 616.486 Q15.6776 616.069 13.2239 615.212 L13.2239 610.699 Q15.1683 611.833 17.4831 612.411 Q19.7979 612.99 22.321 612.99 Q26.7192 612.99 29.0108 611.254 Q31.3256 609.518 31.3256 606.208 Q31.3256 603.152 29.1729 601.439 Q27.0432 599.703 23.2238 599.703 L19.1961 599.703 L19.1961 595.861 L23.409 595.861 Q26.8581 595.861 28.6868 594.495 Q30.5154 593.106 30.5154 590.513 Q30.5154 587.851 28.6173 586.439 Q26.7423 585.004 23.2238 585.004 Q21.3025 585.004 19.1035 585.421 Q16.9044 585.838 14.2655 586.717 L14.2655 582.551 Q16.9276 581.81 19.2424 581.439 Q21.5803 581.069 23.6405 581.069 Q28.9645 581.069 32.0664 583.5 Q35.1682 585.907 35.1682 590.027 Q35.1682 592.898 33.5247 594.888 Q31.8812 596.856 28.8488 597.62 Z" fill="#000000" fill-rule="evenodd" fill-opacity="1" /><path clip-path="url(#clip990)" d="M 0 0 M51.0477 584.773 Q47.4367 584.773 45.608 588.338 Q43.8024 591.879 43.8024 599.009 Q43.8024 606.115 45.608 609.68 Q47.4367 613.222 51.0477 613.222 Q54.682 613.222 56.4875 609.68 Q58.3162 606.115 58.3162 599.009 Q58.3162 591.879 56.4875 588.338 Q54.682 584.773 51.0477 584.773 M51.0477 581.069 Q56.8579 581.069 59.9134 585.676 Q62.9921 590.259 62.9921 599.009 Q62.9921 607.736 59.9134 612.342 Q56.8579 616.925 51.0477 616.925 Q45.2376 616.925 42.1589 612.342 Q39.1034 607.736 39.1034 599.009 Q39.1034 590.259 42.1589 585.676 Q45.2376 581.069 51.0477 581.069 Z" fill="#000000" fill-rule="evenodd" fill-opacity="1" /><path clip-path="url(#clip990)" d="M 0 0 M26.3951 292.327 L14.5896 310.776 L26.3951 310.776 L26.3951 292.327 M25.1683 288.253 L31.0479 288.253 L31.0479 310.776 L35.9784 310.776 L35.9784 314.665 L31.0479 314.665 L31.0479 322.813 L26.3951 322.813 L26.3951 314.665 L10.7933 314.665 L10.7933 310.151 L25.1683 288.253 Z" fill="#000000" fill-rule="evenodd" fill-opacity="1" /><path clip-path="url(#clip990)" d="M 0 0 M51.0477 291.332 Q47.4367 291.332 45.608 294.896 Q43.8024 298.438 43.8024 305.568 Q43.8024 312.674 45.608 316.239 Q47.4367 319.78 51.0477 319.78 Q54.682 319.78 56.4875 316.239 Q58.3162 312.674 58.3162 305.568 Q58.3162 298.438 56.4875 294.896 Q54.682 291.332 51.0477 291.332 M51.0477 287.628 Q56.8579 287.628 59.9134 292.234 Q62.9921 296.818 62.9921 305.568 Q62.9921 314.294 59.9134 318.901 Q56.8579 323.484 51.0477 323.484 Q45.2376 323.484 42.1589 318.901 Q39.1034 314.294 39.1034 305.568 Q39.1034 296.818 42.1589 292.234 Q45.2376 287.628 51.0477 287.628 Z" fill="#000000" fill-rule="evenodd" fill-opacity="1" /><path clip-path="url(#clip992)" d="
M151.118 1353.17 L154.35 1349.78 L157.582 1346.38 L160.814 1342.96 L164.046 1339.52 L167.278 1336.07 L170.511 1332.61 L173.743 1329.13 L176.975 1325.64 L180.207 1322.14 
  L183.439 1318.63 L186.672 1315.11 L189.904 1311.57 L193.136 1308.03 L196.368 1304.48 L199.6 1300.92 L202.833 1297.36 L206.065 1293.79 L209.297 1290.22 L212.529 1286.65 
  L215.761 1283.08 L218.994 1279.51 L222.226 1275.95 L225.458 1272.39 L228.69 1268.84 L231.922 1265.3 L235.155 1261.76 L238.387 1258.25 L241.619 1254.74 L244.851 1251.25 
  L248.083 1247.78 L251.316 1244.32 L254.548 1240.88 L257.78 1237.45 L261.012 1234.03 L264.244 1230.63 L267.477 1227.24 L270.709 1223.85 L273.941 1220.47 L277.173 1217.09 
  L280.405 1213.7 L283.638 1210.3 L286.87 1206.88 L290.102 1203.44 L293.334 1199.97 L296.566 1196.46 L299.798 1192.9 L303.031 1189.28 L306.263 1185.59 L309.495 1181.83 
  L312.727 1177.97 L315.959 1174 L319.192 1169.92 L322.424 1165.71 L325.656 1161.36 L328.888 1156.86 L332.12 1152.18 L335.353 1147.33 L338.585 1142.28 L341.817 1137.02 
  L345.049 1131.54 L348.281 1125.83 L351.514 1119.87 L354.746 1113.66 L357.978 1107.17 L361.21 1100.4 L364.442 1093.35 L367.675 1085.99 L370.907 1078.33 L374.139 1070.35 
  L377.371 1062.06 L380.603 1053.44 L383.836 1044.48 L387.068 1035.2 L390.3 1025.58 L393.532 1015.63 L396.764 1005.35 L399.997 994.737 L403.229 983.8 L406.461 972.544 
  L409.693 960.977 L412.925 949.106 L416.158 936.944 L419.39 924.5 L422.622 911.789 L425.854 898.826 L429.086 885.627 L432.318 872.21 L435.551 858.595 L438.783 844.801 
  L442.015 830.851 L445.247 816.767 L448.479 802.575 L451.712 788.299 L454.944 773.966 L458.176 759.603 L461.408 745.238 L464.64 730.9 L467.873 716.617 L471.105 702.42 
  L471.105 1479.3 L467.873 1479.3 L464.64 1479.3 L461.408 1479.3 L458.176 1479.3 L454.944 1479.3 L451.712 1479.3 L448.479 1479.3 L445.247 1479.3 L442.015 1479.3 
  L438.783 1479.3 L435.551 1479.3 L432.318 1479.3 L429.086 1479.3 L425.854 1479.3 L422.622 1479.3 L419.39 1479.3 L416.158 1479.3 L412.925 1479.3 L409.693 1479.3 
  L406.461 1479.3 L403.229 1479.3 L399.997 1479.3 L396.764 1479.3 L393.532 1479.3 L390.3 1479.3 L387.068 1479.3 L383.836 1479.3 L380.603 1479.3 L377.371 1479.3 
  L374.139 1479.3 L370.907 1479.3 L367.675 1479.3 L364.442 1479.3 L361.21 1479.3 L357.978 1479.3 L354.746 1479.3 L351.514 1479.3 L348.281 1479.3 L345.049 1479.3 
  L341.817 1479.3 L338.585 1479.3 L335.353 1479.3 L332.12 1479.3 L328.888 1479.3 L325.656 1479.3 L322.424 1479.3 L319.192 1479.3 L315.959 1479.3 L312.727 1479.3 
  L309.495 1479.3 L306.263 1479.3 L303.031 1479.3 L299.798 1479.3 L296.566 1479.3 L293.334 1479.3 L290.102 1479.3 L286.87 1479.3 L283.638 1479.3 L280.405 1479.3 
  L277.173 1479.3 L273.941 1479.3 L270.709 1479.3 L267.477 1479.3 L264.244 1479.3 L261.012 1479.3 L257.78 1479.3 L254.548 1479.3 L251.316 1479.3 L248.083 1479.3 
  L244.851 1479.3 L241.619 1479.3 L238.387 1479.3 L235.155 1479.3 L231.922 1479.3 L228.69 1479.3 L225.458 1479.3 L222.226 1479.3 L218.994 1479.3 L215.761 1479.3 
  L212.529 1479.3 L209.297 1479.3 L206.065 1479.3 L202.833 1479.3 L199.6 1479.3 L196.368 1479.3 L193.136 1479.3 L189.904 1479.3 L186.672 1479.3 L183.439 1479.3 
  L180.207 1479.3 L176.975 1479.3 L173.743 1479.3 L170.511 1479.3 L167.278 1479.3 L164.046 1479.3 L160.814 1479.3 L157.582 1479.3 L154.35 1479.3 L151.118 1479.3 
   Z
  " fill="#ffa500" fill-rule="evenodd" fill-opacity="0.5"/>
<polyline clip-path="url(#clip992)" style="stroke:#ffa500; stroke-width:4; stroke-opacity:1; fill:none" points="
  151.118,1353.17 154.35,1349.78 157.582,1346.38 160.814,1342.96 164.046,1339.52 167.278,1336.07 170.511,1332.61 173.743,1329.13 176.975,1325.64 180.207,1322.14 
  183.439,1318.63 186.672,1315.11 189.904,1311.57 193.136,1308.03 196.368,1304.48 199.6,1300.92 202.833,1297.36 206.065,1293.79 209.297,1290.22 212.529,1286.65 
  215.761,1283.08 218.994,1279.51 222.226,1275.95 225.458,1272.39 228.69,1268.84 231.922,1265.3 235.155,1261.76 238.387,1258.25 241.619,1254.74 244.851,1251.25 
  248.083,1247.78 251.316,1244.32 254.548,1240.88 257.78,1237.45 261.012,1234.03 264.244,1230.63 267.477,1227.24 270.709,1223.85 273.941,1220.47 277.173,1217.09 
  280.405,1213.7 283.638,1210.3 286.87,1206.88 290.102,1203.44 293.334,1199.97 296.566,1196.46 299.798,1192.9 303.031,1189.28 306.263,1185.59 309.495,1181.83 
  312.727,1177.97 315.959,1174 319.192,1169.92 322.424,1165.71 325.656,1161.36 328.888,1156.86 332.12,1152.18 335.353,1147.33 338.585,1142.28 341.817,1137.02 
  345.049,1131.54 348.281,1125.83 351.514,1119.87 354.746,1113.66 357.978,1107.17 361.21,1100.4 364.442,1093.35 367.675,1085.99 370.907,1078.33 374.139,1070.35 
  377.371,1062.06 380.603,1053.44 383.836,1044.48 387.068,1035.2 390.3,1025.58 393.532,1015.63 396.764,1005.35 399.997,994.737 403.229,983.8 406.461,972.544 
  409.693,960.977 412.925,949.106 416.158,936.944 419.39,924.5 422.622,911.789 425.854,898.826 429.086,885.627 432.318,872.21 435.551,858.595 438.783,844.801 
  442.015,830.851 445.247,816.767 448.479,802.575 451.712,788.299 454.944,773.966 458.176,759.603 461.408,745.238 464.64,730.9 467.873,716.617 471.105,702.42 
  
  "/>
<path clip-path="url(#clip992)" d="
M471.105 702.42 L488.452 628.93 L505.8 563.275 L523.147 509.412 L540.495 470.141 L557.842 446.694 L575.19 438.609 L592.537 443.921 L609.885 459.618 L627.232 482.194 
  L644.58 508.168 L661.927 534.423 L679.275 558.343 L696.622 577.777 L713.97 590.937 L731.317 596.319 L748.665 592.739 L766.012 579.501 L783.36 556.652 L800.707 525.253 
  L818.055 487.536 L835.402 446.855 L852.749 407.351 L870.097 373.363 L887.444 348.692 L904.792 335.908 L922.139 335.879 L939.487 347.676 L956.834 368.85 L974.182 395.975 
  L991.529 425.284 L1008.88 453.197 L1026.22 476.65 L1043.57 493.205 L1060.92 501.037 L1078.27 498.917 L1095.61 486.255 L1112.96 463.253 L1130.31 431.067 L1147.66 391.912 
  L1165 348.975 L1182.35 306.118 L1199.7 267.372 L1217.05 236.337 L1234.39 215.605 L1251.74 206.349 L1269.09 208.183 L1286.44 219.321 L1303.78 236.993 L1321.13 258.028 
  L1338.48 279.451 L1355.83 298.968 L1373.17 315.236 L1390.52 327.888 L1407.87 337.368 L1425.22 344.642 L1442.56 350.896 L1459.91 357.286 L1477.26 364.761 L1494.61 373.945 
  L1511.95 385.069 L1529.3 397.912 L1546.65 411.797 L1564 425.63 L1581.34 438.014 L1598.69 447.418 L1616.04 452.369 L1633.39 451.626 L1650.73 444.304 L1668.08 429.949 
  L1685.43 408.572 L1702.78 380.67 L1720.12 347.224 L1737.47 309.68 L1754.82 269.87 L1772.17 229.884 L1789.51 191.879 L1806.86 157.878 L1824.21 129.585 L1841.56 108.259 
  L1858.9 94.6435 L1876.25 88.9544 L1893.6 90.8861 L1910.95 99.6316 L1928.29 113.913 L1945.64 132.047 L1962.99 152.07 L1980.34 171.938 L1997.68 189.781 L2015.03 204.181 
  L2032.38 214.407 L2049.73 220.577 L2067.07 223.715 L2084.42 225.703 L2101.77 229.131 L2119.12 237.077 L2136.46 252.805 L2153.81 279.416 L2171.16 319.46 L2188.51 374.56 
  L2188.51 1479.3 L2171.16 1479.3 L2153.81 1479.3 L2136.46 1479.3 L2119.12 1479.3 L2101.77 1479.3 L2084.42 1479.3 L2067.07 1479.3 L2049.73 1479.3 L2032.38 1479.3 
  L2015.03 1479.3 L1997.68 1479.3 L1980.34 1479.3 L1962.99 1479.3 L1945.64 1479.3 L1928.29 1479.3 L1910.95 1479.3 L1893.6 1479.3 L1876.25 1479.3 L1858.9 1479.3 
  L1841.56 1479.3 L1824.21 1479.3 L1806.86 1479.3 L1789.51 1479.3 L1772.17 1479.3 L1754.82 1479.3 L1737.47 1479.3 L1720.12 1479.3 L1702.78 1479.3 L1685.43 1479.3 
  L1668.08 1479.3 L1650.73 1479.3 L1633.39 1479.3 L1616.04 1479.3 L1598.69 1479.3 L1581.34 1479.3 L1564 1479.3 L1546.65 1479.3 L1529.3 1479.3 L1511.95 1479.3 
  L1494.61 1479.3 L1477.26 1479.3 L1459.91 1479.3 L1442.56 1479.3 L1425.22 1479.3 L1407.87 1479.3 L1390.52 1479.3 L1373.17 1479.3 L1355.83 1479.3 L1338.48 1479.3 
  L1321.13 1479.3 L1303.78 1479.3 L1286.44 1479.3 L1269.09 1479.3 L1251.74 1479.3 L1234.39 1479.3 L1217.05 1479.3 L1199.7 1479.3 L1182.35 1479.3 L1165 1479.3 
  L1147.66 1479.3 L1130.31 1479.3 L1112.96 1479.3 L1095.61 1479.3 L1078.27 1479.3 L1060.92 1479.3 L1043.57 1479.3 L1026.22 1479.3 L1008.88 1479.3 L991.529 1479.3 
  L974.182 1479.3 L956.834 1479.3 L939.487 1479.3 L922.139 1479.3 L904.792 1479.3 L887.444 1479.3 L870.097 1479.3 L852.749 1479.3 L835.402 1479.3 L818.055 1479.3 
  L800.707 1479.3 L783.36 1479.3 L766.012 1479.3 L748.665 1479.3 L731.317 1479.3 L713.97 1479.3 L696.622 1479.3 L679.275 1479.3 L661.927 1479.3 L644.58 1479.3 
  L627.232 1479.3 L609.885 1479.3 L592.537 1479.3 L575.19 1479.3 L557.842 1479.3 L540.495 1479.3 L523.147 1479.3 L505.8 1479.3 L488.452 1479.3 L471.105 1479.3 
   Z
  " fill="#008000" fill-rule="evenodd" fill-opacity="0.5"/>
<polyline clip-path="url(#clip992)" style="stroke:#008000; stroke-width:4; stroke-opacity:1; fill:none" points="
  471.105,702.42 488.452,628.93 505.8,563.275 523.147,509.412 540.495,470.141 557.842,446.694 575.19,438.609 592.537,443.921 609.885,459.618 627.232,482.194 
  644.58,508.168 661.927,534.423 679.275,558.343 696.622,577.777 713.97,590.937 731.317,596.319 748.665,592.739 766.012,579.501 783.36,556.652 800.707,525.253 
  818.055,487.536 835.402,446.855 852.749,407.351 870.097,373.363 887.444,348.692 904.792,335.908 922.139,335.879 939.487,347.676 956.834,368.85 974.182,395.975 
  991.529,425.284 1008.88,453.197 1026.22,476.65 1043.57,493.205 1060.92,501.037 1078.27,498.917 1095.61,486.255 1112.96,463.253 1130.31,431.067 1147.66,391.912 
  1165,348.975 1182.35,306.118 1199.7,267.372 1217.05,236.337 1234.39,215.605 1251.74,206.349 1269.09,208.183 1286.44,219.321 1303.78,236.993 1321.13,258.028 
  1338.48,279.451 1355.83,298.968 1373.17,315.236 1390.52,327.888 1407.87,337.368 1425.22,344.642 1442.56,350.896 1459.91,357.286 1477.26,364.761 1494.61,373.945 
  1511.95,385.069 1529.3,397.912 1546.65,411.797 1564,425.63 1581.34,438.014 1598.69,447.418 1616.04,452.369 1633.39,451.626 1650.73,444.304 1668.08,429.949 
  1685.43,408.572 1702.78,380.67 1720.12,347.224 1737.47,309.68 1754.82,269.87 1772.17,229.884 1789.51,191.879 1806.86,157.878 1824.21,129.585 1841.56,108.259 
  1858.9,94.6435 1876.25,88.9544 1893.6,90.8861 1910.95,99.6316 1928.29,113.913 1945.64,132.047 1962.99,152.07 1980.34,171.938 1997.68,189.781 2015.03,204.181 
  2032.38,214.407 2049.73,220.577 2067.07,223.715 2084.42,225.703 2101.77,229.131 2119.12,237.077 2136.46,252.805 2153.81,279.416 2171.16,319.46 2188.51,374.56 
  
  "/>
<path clip-path="url(#clip992)" d="
M2188.51 374.56 L2189.52 378.252 L2190.53 381.997 L2191.54 385.795 L2192.55 389.645 L2193.56 393.548 L2194.57 397.503 L2195.59 401.511 L2196.6 405.57 L2197.61 409.682 
  L2198.62 413.845 L2199.63 418.059 L2200.64 422.325 L2201.65 426.642 L2202.66 431.01 L2203.68 435.428 L2204.69 439.896 L2205.7 444.414 L2206.71 448.982 L2207.72 453.599 
  L2208.73 458.264 L2209.74 462.978 L2210.76 467.74 L2211.77 472.549 L2212.78 477.406 L2213.79 482.309 L2214.8 487.258 L2215.81 492.253 L2216.82 497.293 L2217.84 502.378 
  L2218.85 507.508 L2219.86 512.68 L2220.87 517.896 L2221.88 523.154 L2222.89 528.454 L2223.9 533.796 L2224.91 539.178 L2225.93 544.6 L2226.94 550.062 L2227.95 555.562 
  L2228.96 561.1 L2229.97 566.676 L2230.98 572.288 L2231.99 577.936 L2233.01 583.62 L2234.02 589.337 L2235.03 595.089 L2236.04 600.873 L2237.05 606.69 L2238.06 612.538 
  L2239.07 618.417 L2240.09 624.325 L2241.1 630.262 L2242.11 636.228 L2243.12 642.221 L2244.13 648.24 L2245.14 654.285 L2246.15 660.354 L2247.16 666.448 L2248.18 672.564 
  L2249.19 678.702 L2250.2 684.862 L2251.21 691.042 L2252.22 697.241 L2253.23 703.458 L2254.24 709.694 L2255.26 715.945 L2256.27 722.213 L2257.28 728.495 L2258.29 734.791 
  L2259.3 741.1 L2260.31 747.42 L2261.32 753.752 L2262.34 760.094 L2263.35 766.444 L2264.36 772.803 L2265.37 779.169 L2266.38 785.54 L2267.39 791.918 L2268.4 798.299 
  L2269.41 804.683 L2270.43 811.07 L2271.44 817.458 L2272.45 823.847 L2273.46 830.235 L2274.47 836.621 L2275.48 843.005 L2276.49 849.385 L2277.51 855.761 L2278.52 862.131 
  L2279.53 868.495 L2280.54 874.852 L2281.55 881.201 L2282.56 887.54 L2283.57 893.87 L2284.59 900.188 L2285.6 906.495 L2286.61 912.788 L2287.62 919.068 L2288.63 925.334 
  L2288.63 1479.3 L2287.62 1479.3 L2286.61 1479.3 L2285.6 1479.3 L2284.59 1479.3 L2283.57 1479.3 L2282.56 1479.3 L2281.55 1479.3 L2280.54 1479.3 L2279.53 1479.3 
  L2278.52 1479.3 L2277.51 1479.3 L2276.49 1479.3 L2275.48 1479.3 L2274.47 1479.3 L2273.46 1479.3 L2272.45 1479.3 L2271.44 1479.3 L2270.43 1479.3 L2269.41 1479.3 
  L2268.4 1479.3 L2267.39 1479.3 L2266.38 1479.3 L2265.37 1479.3 L2264.36 1479.3 L2263.35 1479.3 L2262.34 1479.3 L2261.32 1479.3 L2260.31 1479.3 L2259.3 1479.3 
  L2258.29 1479.3 L2257.28 1479.3 L2256.27 1479.3 L2255.26 1479.3 L2254.24 1479.3 L2253.23 1479.3 L2252.22 1479.3 L2251.21 1479.3 L2250.2 1479.3 L2249.19 1479.3 
  L2248.18 1479.3 L2247.16 1479.3 L2246.15 1479.3 L2245.14 1479.3 L2244.13 1479.3 L2243.12 1479.3 L2242.11 1479.3 L2241.1 1479.3 L2240.09 1479.3 L2239.07 1479.3 
  L2238.06 1479.3 L2237.05 1479.3 L2236.04 1479.3 L2235.03 1479.3 L2234.02 1479.3 L2233.01 1479.3 L2231.99 1479.3 L2230.98 1479.3 L2229.97 1479.3 L2228.96 1479.3 
  L2227.95 1479.3 L2226.94 1479.3 L2225.93 1479.3 L2224.91 1479.3 L2223.9 1479.3 L2222.89 1479.3 L2221.88 1479.3 L2220.87 1479.3 L2219.86 1479.3 L2218.85 1479.3 
  L2217.84 1479.3 L2216.82 1479.3 L2215.81 1479.3 L2214.8 1479.3 L2213.79 1479.3 L2212.78 1479.3 L2211.77 1479.3 L2210.76 1479.3 L2209.74 1479.3 L2208.73 1479.3 
  L2207.72 1479.3 L2206.71 1479.3 L2205.7 1479.3 L2204.69 1479.3 L2203.68 1479.3 L2202.66 1479.3 L2201.65 1479.3 L2200.64 1479.3 L2199.63 1479.3 L2198.62 1479.3 
  L2197.61 1479.3 L2196.6 1479.3 L2195.59 1479.3 L2194.57 1479.3 L2193.56 1479.3 L2192.55 1479.3 L2191.54 1479.3 L2190.53 1479.3 L2189.52 1479.3 L2188.51 1479.3 
   Z
  " fill="#ffa500" fill-rule="evenodd" fill-opacity="0.5"/>
<polyline clip-path="url(#clip992)" style="stroke:#ffa500; stroke-width:4; stroke-opacity:1; fill:none" points="
  2188.51,374.56 2189.52,378.252 2190.53,381.997 2191.54,385.795 2192.55,389.645 2193.56,393.548 2194.57,397.503 2195.59,401.511 2196.6,405.57 2197.61,409.682 
  2198.62,413.845 2199.63,418.059 2200.64,422.325 2201.65,426.642 2202.66,431.01 2203.68,435.428 2204.69,439.896 2205.7,444.414 2206.71,448.982 2207.72,453.599 
  2208.73,458.264 2209.74,462.978 2210.76,467.74 2211.77,472.549 2212.78,477.406 2213.79,482.309 2214.8,487.258 2215.81,492.253 2216.82,497.293 2217.84,502.378 
  2218.85,507.508 2219.86,512.68 2220.87,517.896 2221.88,523.154 2222.89,528.454 2223.9,533.796 2224.91,539.178 2225.93,544.6 2226.94,550.062 2227.95,555.562 
  2228.96,561.1 2229.97,566.676 2230.98,572.288 2231.99,577.936 2233.01,583.62 2234.02,589.337 2235.03,595.089 2236.04,600.873 2237.05,606.69 2238.06,612.538 
  2239.07,618.417 2240.09,624.325 2241.1,630.262 2242.11,636.228 2243.12,642.221 2244.13,648.24 2245.14,654.285 2246.15,660.354 2247.16,666.448 2248.18,672.564 
  2249.19,678.702 2250.2,684.862 2251.21,691.042 2252.22,697.241 2253.23,703.458 2254.24,709.694 2255.26,715.945 2256.27,722.213 2257.28,728.495 2258.29,734.791 
  2259.3,741.1 2260.31,747.42 2261.32,753.752 2262.34,760.094 2263.35,766.444 2264.36,772.803 2265.37,779.169 2266.38,785.54 2267.39,791.918 2268.4,798.299 
  2269.41,804.683 2270.43,811.07 2271.44,817.458 2272.45,823.847 2273.46,830.235 2274.47,836.621 2275.48,843.005 2276.49,849.385 2277.51,855.761 2278.52,862.131 
  2279.53,868.495 2280.54,874.852 2281.55,881.201 2282.56,887.54 2283.57,893.87 2284.59,900.188 2285.6,906.495 2286.61,912.788 2287.62,919.068 2288.63,925.334 
  
  "/>
<polyline clip-path="url(#clip992)" style="stroke:#0000ff; stroke-width:4; stroke-opacity:1; fill:none" points="
  1366.13,1479.3 1366.13,309.069 
  "/>
<polyline clip-path="url(#clip992)" style="stroke:#000000; stroke-width:4; stroke-opacity:1; fill:none" points="
  1384.93,1479.3 1384.93,324.192 
  "/>
<path clip-path="url(#clip990)" d="
M1494.58 459.25 L2277.23 459.25 L2277.23 96.3696 L1494.58 96.3696  Z
  " fill="#ffffff" fill-rule="evenodd" fill-opacity="1"/>
<polyline clip-path="url(#clip990)" style="stroke:#000000; stroke-width:4; stroke-opacity:1; fill:none" points="
  1494.58,459.25 2277.23,459.25 2277.23,96.3696 1494.58,96.3696 1494.58,459.25 
  "/>
<path clip-path="url(#clip990)" d="
M1519.75 181.042 L1670.81 181.042 L1670.81 132.658 L1519.75 132.658 L1519.75 181.042  Z
  " fill="#ffa500" fill-rule="evenodd" fill-opacity="0.5"/>
<polyline clip-path="url(#clip990)" style="stroke:#ffa500; stroke-width:4; stroke-opacity:1; fill:none" points="
  1519.75,132.658 1670.81,132.658 
  "/>
<path clip-path="url(#clip990)" d="M 0 0 M1700.38 161.19 Q1700.38 165.889 1702.3 168.574 Q1704.24 171.236 1707.62 171.236 Q1711 171.236 1712.95 168.574 Q1714.89 165.889 1714.89 161.19 Q1714.89 156.491 1712.95 153.829 Q1711 151.144 1707.62 151.144 Q1704.24 151.144 1702.3 153.829 Q1700.38 156.491 1700.38 161.19 M1714.89 170.241 Q1713.55 172.555 1711.49 173.69 Q1709.45 174.801 1706.58 174.801 Q1701.88 174.801 1698.92 171.051 Q1695.98 167.301 1695.98 161.19 Q1695.98 155.079 1698.92 151.329 Q1701.88 147.579 1706.58 147.579 Q1709.45 147.579 1711.49 148.713 Q1713.55 149.824 1714.89 152.139 L1714.89 148.204 L1719.15 148.204 L1719.15 183.991 L1714.89 183.991 L1714.89 170.241 Z" fill="#000000" fill-rule="evenodd" fill-opacity="1" /><path clip-path="url(#clip990)" d="M 0 0 M1734.22 142.648 Q1730.61 142.648 1728.78 146.213 Q1726.98 149.755 1726.98 156.884 Q1726.98 163.991 1728.78 167.556 Q1730.61 171.097 1734.22 171.097 Q1737.85 171.097 1739.66 167.556 Q1741.49 163.991 1741.49 156.884 Q1741.49 149.755 1739.66 146.213 Q1737.85 142.648 1734.22 142.648 M1734.22 138.945 Q1740.03 138.945 1743.09 143.551 Q1746.17 148.134 1746.17 156.884 Q1746.17 165.611 1743.09 170.218 Q1740.03 174.801 1734.22 174.801 Q1728.41 174.801 1725.33 170.218 Q1722.28 165.611 1722.28 156.884 Q1722.28 148.134 1725.33 143.551 Q1728.41 138.945 1734.22 138.945 Z" fill="#000000" fill-rule="evenodd" fill-opacity="1" /><path clip-path="url(#clip990)" d="M 0 0 M1751.28 139.57 L1769.64 139.57 L1769.64 143.505 L1755.56 143.505 L1755.56 151.977 Q1756.58 151.63 1757.6 151.468 Q1758.62 151.282 1759.64 151.282 Q1765.42 151.282 1768.8 154.454 Q1772.18 157.625 1772.18 163.042 Q1772.18 168.62 1768.71 171.722 Q1765.24 174.801 1758.92 174.801 Q1756.74 174.801 1754.48 174.43 Q1752.23 174.06 1749.82 173.319 L1749.82 168.62 Q1751.91 169.755 1754.13 170.31 Q1756.35 170.866 1758.83 170.866 Q1762.83 170.866 1765.17 168.759 Q1767.51 166.653 1767.51 163.042 Q1767.51 159.431 1765.17 157.324 Q1762.83 155.218 1758.83 155.218 Q1756.95 155.218 1755.08 155.634 Q1753.23 156.051 1751.28 156.931 L1751.28 139.57 Z" fill="#000000" fill-rule="evenodd" fill-opacity="1" /><path clip-path="url(#clip990)" d="
M1519.75 241.522 L1670.81 241.522 L1670.81 193.138 L1519.75 193.138 L1519.75 241.522  Z
  " fill="#008000" fill-rule="evenodd" fill-opacity="0.5"/>
<polyline clip-path="url(#clip990)" style="stroke:#008000; stroke-width:4; stroke-opacity:1; fill:none" points="
  1519.75,193.138 1670.81,193.138 
  "/>
<path clip-path="url(#clip990)" d="M 0 0 M1698.2 233.892 L1698.2 229.633 Q1699.96 230.466 1701.77 230.906 Q1703.57 231.346 1705.31 231.346 Q1709.94 231.346 1712.37 228.244 Q1714.82 225.119 1715.17 218.776 Q1713.83 220.767 1711.77 221.832 Q1709.71 222.897 1707.21 222.897 Q1702.02 222.897 1698.99 219.772 Q1695.98 216.624 1695.98 211.184 Q1695.98 205.86 1699.13 202.642 Q1702.28 199.425 1707.51 199.425 Q1713.5 199.425 1716.65 204.031 Q1719.82 208.614 1719.82 217.364 Q1719.82 225.536 1715.93 230.42 Q1712.07 235.281 1705.52 235.281 Q1703.76 235.281 1701.95 234.934 Q1700.15 234.586 1698.2 233.892 M1707.51 219.239 Q1710.66 219.239 1712.48 217.086 Q1714.34 214.934 1714.34 211.184 Q1714.34 207.457 1712.48 205.304 Q1710.66 203.128 1707.51 203.128 Q1704.36 203.128 1702.51 205.304 Q1700.68 207.457 1700.68 211.184 Q1700.68 214.934 1702.51 217.086 Q1704.36 219.239 1707.51 219.239 Z" fill="#000000" fill-rule="evenodd" fill-opacity="1" /><path clip-path="url(#clip990)" d="M 0 0 M1734.89 203.128 Q1731.28 203.128 1729.45 206.693 Q1727.65 210.235 1727.65 217.364 Q1727.65 224.471 1729.45 228.036 Q1731.28 231.577 1734.89 231.577 Q1738.53 231.577 1740.33 228.036 Q1742.16 224.471 1742.16 217.364 Q1742.16 210.235 1740.33 206.693 Q1738.53 203.128 1734.89 203.128 M1734.89 199.425 Q1740.7 199.425 1743.76 204.031 Q1746.84 208.614 1746.84 217.364 Q1746.84 226.091 1743.76 230.698 Q1740.7 235.281 1734.89 235.281 Q1729.08 235.281 1726 230.698 Q1722.95 226.091 1722.95 217.364 Q1722.95 208.614 1726 204.031 Q1729.08 199.425 1734.89 199.425 Z" fill="#000000" fill-rule="evenodd" fill-opacity="1" /><path clip-path="url(#clip990)" d="M 0 0 M1781.3 219.401 Q1779.29 219.401 1778.13 221.114 Q1777 222.827 1777 225.883 Q1777 228.892 1778.13 230.628 Q1779.29 232.341 1781.3 232.341 Q1783.27 232.341 1784.41 230.628 Q1785.56 228.892 1785.56 225.883 Q1785.56 222.85 1784.41 221.137 Q1783.27 219.401 1781.3 219.401 M1781.3 216.462 Q1784.96 216.462 1787.11 219.008 Q1789.27 221.554 1789.27 225.883 Q1789.27 230.211 1787.09 232.758 Q1784.94 235.281 1781.3 235.281 Q1777.6 235.281 1775.45 232.758 Q1773.29 230.211 1773.29 225.883 Q1773.29 221.531 1775.45 219.008 Q1777.62 216.462 1781.3 216.462 M1757.42 202.364 Q1755.42 202.364 1754.27 204.1 Q1753.13 205.813 1753.13 208.823 Q1753.13 211.878 1754.27 213.591 Q1755.4 215.304 1757.42 215.304 Q1759.43 215.304 1760.56 213.591 Q1761.72 211.878 1761.72 208.823 Q1761.72 205.837 1760.56 204.1 Q1759.41 202.364 1757.42 202.364 M1778.32 199.425 L1782.02 199.425 L1760.4 235.281 L1756.7 235.281 L1778.32 199.425 M1757.42 199.425 Q1761.07 199.425 1763.25 201.971 Q1765.42 204.494 1765.42 208.823 Q1765.42 213.198 1763.25 215.721 Q1761.1 218.244 1757.42 218.244 Q1753.73 218.244 1751.58 215.721 Q1749.45 213.174 1749.45 208.823 Q1749.45 204.517 1751.6 201.971 Q1753.76 199.425 1757.42 199.425 Z" fill="#000000" fill-rule="evenodd" fill-opacity="1" /><path clip-path="url(#clip990)" d="M 0 0 M1830.35 218.961 L1830.35 234.61 L1826.1 234.61 L1826.1 219.1 Q1826.1 215.42 1824.66 213.591 Q1823.22 211.762 1820.35 211.762 Q1816.91 211.762 1814.91 213.962 Q1812.92 216.161 1812.92 219.957 L1812.92 234.61 L1808.64 234.61 L1808.64 208.684 L1812.92 208.684 L1812.92 212.712 Q1814.45 210.374 1816.51 209.216 Q1818.6 208.059 1821.3 208.059 Q1825.77 208.059 1828.06 210.837 Q1830.35 213.591 1830.35 218.961 Z" fill="#000000" fill-rule="evenodd" fill-opacity="1" /><path clip-path="url(#clip990)" d="M 0 0 M1844.87 211.67 Q1841.44 211.67 1839.45 214.355 Q1837.46 217.017 1837.46 221.67 Q1837.46 226.323 1839.43 229.008 Q1841.42 231.67 1844.87 231.67 Q1848.27 231.67 1850.26 228.985 Q1852.25 226.299 1852.25 221.67 Q1852.25 217.063 1850.26 214.378 Q1848.27 211.67 1844.87 211.67 M1844.87 208.059 Q1850.42 208.059 1853.6 211.67 Q1856.77 215.281 1856.77 221.67 Q1856.77 228.036 1853.6 231.67 Q1850.42 235.281 1844.87 235.281 Q1839.29 235.281 1836.12 231.67 Q1832.97 228.036 1832.97 221.67 Q1832.97 215.281 1836.12 211.67 Q1839.29 208.059 1844.87 208.059 Z" fill="#000000" fill-rule="evenodd" fill-opacity="1" /><path clip-path="url(#clip990)" d="M 0 0 M1882.78 218.961 L1882.78 234.61 L1878.53 234.61 L1878.53 219.1 Q1878.53 215.42 1877.09 213.591 Q1875.66 211.762 1872.78 211.762 Q1869.34 211.762 1867.35 213.962 Q1865.35 216.161 1865.35 219.957 L1865.35 234.61 L1861.07 234.61 L1861.07 208.684 L1865.35 208.684 L1865.35 212.712 Q1866.88 210.374 1868.94 209.216 Q1871.03 208.059 1873.73 208.059 Q1878.2 208.059 1880.49 210.837 Q1882.78 213.591 1882.78 218.961 Z" fill="#000000" fill-rule="evenodd" fill-opacity="1" /><path clip-path="url(#clip990)" d="M 0 0 M1885.1 219.725 L1897.58 219.725 L1897.58 223.522 L1885.1 223.522 L1885.1 219.725 Z" fill="#000000" fill-rule="evenodd" fill-opacity="1" /><path clip-path="url(#clip990)" d="M 0 0 M1917.07 212.665 Q1916.35 212.249 1915.49 212.063 Q1914.66 211.855 1913.64 211.855 Q1910.03 211.855 1908.09 214.216 Q1906.16 216.554 1906.16 220.952 L1906.16 234.61 L1901.88 234.61 L1901.88 208.684 L1906.16 208.684 L1906.16 212.712 Q1907.51 210.35 1909.66 209.216 Q1911.81 208.059 1914.89 208.059 Q1915.33 208.059 1915.86 208.128 Q1916.4 208.175 1917.04 208.29 L1917.07 212.665 Z" fill="#000000" fill-rule="evenodd" fill-opacity="1" /><path clip-path="url(#clip990)" d="M 0 0 M1942.67 220.582 L1942.67 222.665 L1923.09 222.665 Q1923.36 227.063 1925.72 229.378 Q1928.11 231.67 1932.34 231.67 Q1934.8 231.67 1937.09 231.068 Q1939.4 230.466 1941.67 229.262 L1941.67 233.29 Q1939.38 234.262 1936.97 234.772 Q1934.57 235.281 1932.09 235.281 Q1925.89 235.281 1922.25 231.67 Q1918.64 228.059 1918.64 221.901 Q1918.64 215.536 1922.07 211.809 Q1925.52 208.059 1931.35 208.059 Q1936.58 208.059 1939.61 211.438 Q1942.67 214.795 1942.67 220.582 M1938.41 219.332 Q1938.36 215.837 1936.44 213.753 Q1934.54 211.67 1931.4 211.67 Q1927.83 211.67 1925.68 213.684 Q1923.55 215.698 1923.22 219.355 L1938.41 219.332 Z" fill="#000000" fill-rule="evenodd" fill-opacity="1" /><path clip-path="url(#clip990)" d="M 0 0 M1947.14 208.684 L1951.4 208.684 L1951.4 235.073 Q1951.4 240.026 1949.5 242.248 Q1947.62 244.471 1943.43 244.471 L1941.81 244.471 L1941.81 240.86 L1942.95 240.86 Q1945.38 240.86 1946.26 239.725 Q1947.14 238.614 1947.14 235.073 L1947.14 208.684 M1947.14 198.591 L1951.4 198.591 L1951.4 203.985 L1947.14 203.985 L1947.14 198.591 Z" fill="#000000" fill-rule="evenodd" fill-opacity="1" /><path clip-path="url(#clip990)" d="M 0 0 M1978.04 220.582 L1978.04 222.665 L1958.46 222.665 Q1958.73 227.063 1961.09 229.378 Q1963.48 231.67 1967.71 231.67 Q1970.17 231.67 1972.46 231.068 Q1974.78 230.466 1977.04 229.262 L1977.04 233.29 Q1974.75 234.262 1972.34 234.772 Q1969.94 235.281 1967.46 235.281 Q1961.26 235.281 1957.62 231.67 Q1954.01 228.059 1954.01 221.901 Q1954.01 215.536 1957.44 211.809 Q1960.89 208.059 1966.72 208.059 Q1971.95 208.059 1974.98 211.438 Q1978.04 214.795 1978.04 220.582 M1973.78 219.332 Q1973.73 215.837 1971.81 213.753 Q1969.91 211.67 1966.77 211.67 Q1963.2 211.67 1961.05 213.684 Q1958.92 215.698 1958.59 219.355 L1973.78 219.332 Z" fill="#000000" fill-rule="evenodd" fill-opacity="1" /><path clip-path="url(#clip990)" d="M 0 0 M2001.16 209.679 L2001.16 213.661 Q1999.36 212.665 1997.53 212.179 Q1995.72 211.67 1993.87 211.67 Q1989.73 211.67 1987.44 214.309 Q1985.15 216.924 1985.15 221.67 Q1985.15 226.415 1987.44 229.054 Q1989.73 231.67 1993.87 231.67 Q1995.72 231.67 1997.53 231.184 Q1999.36 230.674 2001.16 229.679 L2001.16 233.614 Q1999.38 234.448 1997.46 234.864 Q1995.56 235.281 1993.41 235.281 Q1987.55 235.281 1984.1 231.6 Q1980.65 227.92 1980.65 221.67 Q1980.65 215.327 1984.13 211.693 Q1987.62 208.059 1993.69 208.059 Q1995.65 208.059 1997.53 208.475 Q1999.4 208.869 2001.16 209.679 Z" fill="#000000" fill-rule="evenodd" fill-opacity="1" /><path clip-path="url(#clip990)" d="M 0 0 M2009.84 201.323 L2009.84 208.684 L2018.62 208.684 L2018.62 211.994 L2009.84 211.994 L2009.84 226.068 Q2009.84 229.239 2010.7 230.142 Q2011.58 231.045 2014.24 231.045 L2018.62 231.045 L2018.62 234.61 L2014.24 234.61 Q2009.31 234.61 2007.44 232.781 Q2005.56 230.929 2005.56 226.068 L2005.56 211.994 L2002.44 211.994 L2002.44 208.684 L2005.56 208.684 L2005.56 201.323 L2009.84 201.323 Z" fill="#000000" fill-rule="evenodd" fill-opacity="1" /><path clip-path="url(#clip990)" d="M 0 0 M2023.08 208.684 L2027.34 208.684 L2027.34 234.61 L2023.08 234.61 L2023.08 208.684 M2023.08 198.591 L2027.34 198.591 L2027.34 203.985 L2023.08 203.985 L2023.08 198.591 Z" fill="#000000" fill-rule="evenodd" fill-opacity="1" /><path clip-path="url(#clip990)" d="M 0 0 M2041.86 211.67 Q2038.43 211.67 2036.44 214.355 Q2034.45 217.017 2034.45 221.67 Q2034.45 226.323 2036.42 229.008 Q2038.41 231.67 2041.86 231.67 Q2045.26 231.67 2047.25 228.985 Q2049.24 226.299 2049.24 221.67 Q2049.24 217.063 2047.25 214.378 Q2045.26 211.67 2041.86 211.67 M2041.86 208.059 Q2047.41 208.059 2050.58 211.67 Q2053.76 215.281 2053.76 221.67 Q2053.76 228.036 2050.58 231.67 Q2047.41 235.281 2041.86 235.281 Q2036.28 235.281 2033.11 231.67 Q2029.96 228.036 2029.96 221.67 Q2029.96 215.281 2033.11 211.67 Q2036.28 208.059 2041.86 208.059 Z" fill="#000000" fill-rule="evenodd" fill-opacity="1" /><path clip-path="url(#clip990)" d="M 0 0 M2079.77 218.961 L2079.77 234.61 L2075.52 234.61 L2075.52 219.1 Q2075.52 215.42 2074.08 213.591 Q2072.64 211.762 2069.77 211.762 Q2066.33 211.762 2064.33 213.962 Q2062.34 216.161 2062.34 219.957 L2062.34 234.61 L2058.06 234.61 L2058.06 208.684 L2062.34 208.684 L2062.34 212.712 Q2063.87 210.374 2065.93 209.216 Q2068.02 208.059 2070.72 208.059 Q2075.19 208.059 2077.48 210.837 Q2079.77 213.591 2079.77 218.961 Z" fill="#000000" fill-rule="evenodd" fill-opacity="1" /><path clip-path="url(#clip990)" d="M 0 0 M2114.33 212.665 Q2113.62 212.249 2112.76 212.063 Q2111.93 211.855 2110.91 211.855 Q2107.3 211.855 2105.35 214.216 Q2103.43 216.554 2103.43 220.952 L2103.43 234.61 L2099.15 234.61 L2099.15 208.684 L2103.43 208.684 L2103.43 212.712 Q2104.77 210.35 2106.93 209.216 Q2109.08 208.059 2112.16 208.059 Q2112.6 208.059 2113.13 208.128 Q2113.66 208.175 2114.31 208.29 L2114.33 212.665 Z" fill="#000000" fill-rule="evenodd" fill-opacity="1" /><path clip-path="url(#clip990)" d="M 0 0 M2139.94 220.582 L2139.94 222.665 L2120.35 222.665 Q2120.63 227.063 2122.99 229.378 Q2125.38 231.67 2129.61 231.67 Q2132.07 231.67 2134.36 231.068 Q2136.67 230.466 2138.94 229.262 L2138.94 233.29 Q2136.65 234.262 2134.24 234.772 Q2131.83 235.281 2129.36 235.281 Q2123.15 235.281 2119.52 231.67 Q2115.91 228.059 2115.91 221.901 Q2115.91 215.536 2119.33 211.809 Q2122.78 208.059 2128.62 208.059 Q2133.85 208.059 2136.88 211.438 Q2139.94 214.795 2139.94 220.582 M2135.68 219.332 Q2135.63 215.837 2133.71 213.753 Q2131.81 211.67 2128.66 211.67 Q2125.1 211.67 2122.95 213.684 Q2120.82 215.698 2120.49 219.355 L2135.68 219.332 Z" fill="#000000" fill-rule="evenodd" fill-opacity="1" /><path clip-path="url(#clip990)" d="M 0 0 M2161.46 221.346 Q2161.46 216.716 2159.54 214.17 Q2157.64 211.624 2154.2 211.624 Q2150.77 211.624 2148.85 214.17 Q2146.95 216.716 2146.95 221.346 Q2146.95 225.952 2148.85 228.498 Q2150.77 231.045 2154.2 231.045 Q2157.64 231.045 2159.54 228.498 Q2161.46 225.952 2161.46 221.346 M2165.72 231.392 Q2165.72 238.012 2162.78 241.23 Q2159.84 244.471 2153.78 244.471 Q2151.53 244.471 2149.54 244.123 Q2147.55 243.799 2145.68 243.105 L2145.68 238.961 Q2147.55 239.98 2149.38 240.466 Q2151.21 240.952 2153.11 240.952 Q2157.3 240.952 2159.38 238.753 Q2161.46 236.577 2161.46 232.156 L2161.46 230.049 Q2160.14 232.341 2158.08 233.475 Q2156.02 234.61 2153.15 234.61 Q2148.39 234.61 2145.47 230.975 Q2142.55 227.341 2142.55 221.346 Q2142.55 215.327 2145.47 211.693 Q2148.39 208.059 2153.15 208.059 Q2156.02 208.059 2158.08 209.193 Q2160.14 210.327 2161.46 212.619 L2161.46 208.684 L2165.72 208.684 L2165.72 231.392 Z" fill="#000000" fill-rule="evenodd" fill-opacity="1" /><path clip-path="url(#clip990)" d="M 0 0 M2170.19 208.684 L2174.45 208.684 L2174.45 234.61 L2170.19 234.61 L2170.19 208.684 M2170.19 198.591 L2174.45 198.591 L2174.45 203.985 L2170.19 203.985 L2170.19 198.591 Z" fill="#000000" fill-rule="evenodd" fill-opacity="1" /><path clip-path="url(#clip990)" d="M 0 0 M2188.96 211.67 Q2185.54 211.67 2183.55 214.355 Q2181.56 217.017 2181.56 221.67 Q2181.56 226.323 2183.52 229.008 Q2185.51 231.67 2188.96 231.67 Q2192.37 231.67 2194.36 228.985 Q2196.35 226.299 2196.35 221.67 Q2196.35 217.063 2194.36 214.378 Q2192.37 211.67 2188.96 211.67 M2188.96 208.059 Q2194.52 208.059 2197.69 211.67 Q2200.86 215.281 2200.86 221.67 Q2200.86 228.036 2197.69 231.67 Q2194.52 235.281 2188.96 235.281 Q2183.39 235.281 2180.21 231.67 Q2177.07 228.036 2177.07 221.67 Q2177.07 215.281 2180.21 211.67 Q2183.39 208.059 2188.96 208.059 Z" fill="#000000" fill-rule="evenodd" fill-opacity="1" /><path clip-path="url(#clip990)" d="M 0 0 M2226.88 218.961 L2226.88 234.61 L2222.62 234.61 L2222.62 219.1 Q2222.62 215.42 2221.19 213.591 Q2219.75 211.762 2216.88 211.762 Q2213.43 211.762 2211.44 213.962 Q2209.45 216.161 2209.45 219.957 L2209.45 234.61 L2205.17 234.61 L2205.17 208.684 L2209.45 208.684 L2209.45 212.712 Q2210.98 210.374 2213.04 209.216 Q2215.12 208.059 2217.83 208.059 Q2222.3 208.059 2224.59 210.837 Q2226.88 213.591 2226.88 218.961 Z" fill="#000000" fill-rule="evenodd" fill-opacity="1" /><path clip-path="url(#clip990)" d="
M1519.75 302.002 L1670.81 302.002 L1670.81 253.618 L1519.75 253.618 L1519.75 302.002  Z
  " fill="#ffa500" fill-rule="evenodd" fill-opacity="0.5"/>
<polyline clip-path="url(#clip990)" style="stroke:#ffa500; stroke-width:4; stroke-opacity:1; fill:none" points="
  1519.75,253.618 1670.81,253.618 
  "/>
<path clip-path="url(#clip990)" d="M 0 0 M1700.38 282.15 Q1700.38 286.849 1702.3 289.534 Q1704.24 292.196 1707.62 292.196 Q1711 292.196 1712.95 289.534 Q1714.89 286.849 1714.89 282.15 Q1714.89 277.451 1712.95 274.789 Q1711 272.104 1707.62 272.104 Q1704.24 272.104 1702.3 274.789 Q1700.38 277.451 1700.38 282.15 M1714.89 291.201 Q1713.55 293.515 1711.49 294.65 Q1709.45 295.761 1706.58 295.761 Q1701.88 295.761 1698.92 292.011 Q1695.98 288.261 1695.98 282.15 Q1695.98 276.039 1698.92 272.289 Q1701.88 268.539 1706.58 268.539 Q1709.45 268.539 1711.49 269.673 Q1713.55 270.784 1714.89 273.099 L1714.89 269.164 L1719.15 269.164 L1719.15 304.951 L1714.89 304.951 L1714.89 291.201 Z" fill="#000000" fill-rule="evenodd" fill-opacity="1" /><path clip-path="url(#clip990)" d="M 0 0 M1724.36 294.372 L1724.36 290.113 Q1726.12 290.946 1727.92 291.386 Q1729.73 291.826 1731.47 291.826 Q1736.1 291.826 1738.53 288.724 Q1740.98 285.599 1741.33 279.256 Q1739.98 281.247 1737.92 282.312 Q1735.86 283.377 1733.36 283.377 Q1728.18 283.377 1725.15 280.252 Q1722.14 277.104 1722.14 271.664 Q1722.14 266.34 1725.29 263.122 Q1728.43 259.905 1733.67 259.905 Q1739.66 259.905 1742.81 264.511 Q1745.98 269.094 1745.98 277.844 Q1745.98 286.016 1742.09 290.9 Q1738.23 295.761 1731.67 295.761 Q1729.92 295.761 1728.11 295.414 Q1726.3 295.066 1724.36 294.372 M1733.67 279.719 Q1736.81 279.719 1738.64 277.566 Q1740.49 275.414 1740.49 271.664 Q1740.49 267.937 1738.64 265.784 Q1736.81 263.608 1733.67 263.608 Q1730.52 263.608 1728.67 265.784 Q1726.84 267.937 1726.84 271.664 Q1726.84 275.414 1728.67 277.566 Q1730.52 279.719 1733.67 279.719 Z" fill="#000000" fill-rule="evenodd" fill-opacity="1" /><path clip-path="url(#clip990)" d="M 0 0 M1751.1 260.53 L1769.45 260.53 L1769.45 264.465 L1755.38 264.465 L1755.38 272.937 Q1756.4 272.59 1757.42 272.428 Q1758.43 272.242 1759.45 272.242 Q1765.24 272.242 1768.62 275.414 Q1772 278.585 1772 284.002 Q1772 289.58 1768.53 292.682 Q1765.05 295.761 1758.73 295.761 Q1756.56 295.761 1754.29 295.39 Q1752.04 295.02 1749.64 294.279 L1749.64 289.58 Q1751.72 290.715 1753.94 291.27 Q1756.17 291.826 1758.64 291.826 Q1762.65 291.826 1764.98 289.719 Q1767.32 287.613 1767.32 284.002 Q1767.32 280.391 1764.98 278.284 Q1762.65 276.178 1758.64 276.178 Q1756.77 276.178 1754.89 276.594 Q1753.04 277.011 1751.1 277.891 L1751.1 260.53 Z" fill="#000000" fill-rule="evenodd" fill-opacity="1" /><polyline clip-path="url(#clip990)" style="stroke:#0000ff; stroke-width:4; stroke-opacity:1; fill:none" points="
  1519.75,338.29 1670.81,338.29 
  "/>
<path clip-path="url(#clip990)" d="M 0 0 M1716.33 334.621 Q1717.92 331.75 1720.15 330.385 Q1722.37 329.019 1725.38 329.019 Q1729.43 329.019 1731.63 331.866 Q1733.83 334.69 1733.83 339.921 L1733.83 355.57 L1729.54 355.57 L1729.54 340.06 Q1729.54 336.334 1728.23 334.528 Q1726.91 332.722 1724.2 332.722 Q1720.89 332.722 1718.97 334.922 Q1717.04 337.121 1717.04 340.917 L1717.04 355.57 L1712.76 355.57 L1712.76 340.06 Q1712.76 336.31 1711.44 334.528 Q1710.12 332.722 1707.37 332.722 Q1704.11 332.722 1702.18 334.945 Q1700.26 337.144 1700.26 340.917 L1700.26 355.57 L1695.98 355.57 L1695.98 329.644 L1700.26 329.644 L1700.26 333.672 Q1701.72 331.287 1703.76 330.153 Q1705.79 329.019 1708.6 329.019 Q1711.42 329.019 1713.39 330.454 Q1715.38 331.889 1716.33 334.621 Z" fill="#000000" fill-rule="evenodd" fill-opacity="1" /><path clip-path="url(#clip990)" d="M 0 0 M1760.47 341.542 L1760.47 343.625 L1740.89 343.625 Q1741.17 348.023 1743.53 350.338 Q1745.91 352.63 1750.15 352.63 Q1752.6 352.63 1754.89 352.028 Q1757.21 351.426 1759.48 350.222 L1759.48 354.25 Q1757.18 355.222 1754.78 355.732 Q1752.37 356.241 1749.89 356.241 Q1743.69 356.241 1740.05 352.63 Q1736.44 349.019 1736.44 342.861 Q1736.44 336.496 1739.87 332.769 Q1743.32 329.019 1749.15 329.019 Q1754.38 329.019 1757.42 332.398 Q1760.47 335.755 1760.47 341.542 M1756.21 340.292 Q1756.17 336.797 1754.24 334.713 Q1752.35 332.63 1749.2 332.63 Q1745.63 332.63 1743.48 334.644 Q1741.35 336.658 1741.03 340.315 L1756.21 340.292 Z" fill="#000000" fill-rule="evenodd" fill-opacity="1" /><path clip-path="url(#clip990)" d="M 0 0 M1776.72 342.537 Q1771.56 342.537 1769.57 343.718 Q1767.58 344.898 1767.58 347.746 Q1767.58 350.014 1769.06 351.357 Q1770.56 352.676 1773.13 352.676 Q1776.67 352.676 1778.8 350.176 Q1780.96 347.653 1780.96 343.486 L1780.96 342.537 L1776.72 342.537 M1785.22 340.778 L1785.22 355.57 L1780.96 355.57 L1780.96 351.634 Q1779.5 353.995 1777.32 355.13 Q1775.15 356.241 1772 356.241 Q1768.02 356.241 1765.66 354.019 Q1763.32 351.773 1763.32 348.023 Q1763.32 343.648 1766.23 341.426 Q1769.17 339.204 1774.98 339.204 L1780.96 339.204 L1780.96 338.787 Q1780.96 335.847 1779.01 334.25 Q1777.09 332.63 1773.6 332.63 Q1771.37 332.63 1769.27 333.162 Q1767.16 333.695 1765.22 334.759 L1765.22 330.824 Q1767.55 329.922 1769.75 329.482 Q1771.95 329.019 1774.04 329.019 Q1779.66 329.019 1782.44 331.935 Q1785.22 334.852 1785.22 340.778 Z" fill="#000000" fill-rule="evenodd" fill-opacity="1" /><path clip-path="url(#clip990)" d="M 0 0 M1811.23 339.921 L1811.23 355.57 L1806.97 355.57 L1806.97 340.06 Q1806.97 336.38 1805.54 334.551 Q1804.1 332.722 1801.23 332.722 Q1797.79 332.722 1795.79 334.922 Q1793.8 337.121 1793.8 340.917 L1793.8 355.57 L1789.52 355.57 L1789.52 329.644 L1793.8 329.644 L1793.8 333.672 Q1795.33 331.334 1797.39 330.176 Q1799.48 329.019 1802.18 329.019 Q1806.65 329.019 1808.94 331.797 Q1811.23 334.551 1811.23 339.921 Z" fill="#000000" fill-rule="evenodd" fill-opacity="1" /><polyline clip-path="url(#clip990)" style="stroke:#000000; stroke-width:4; stroke-opacity:1; fill:none" points="
  1519.75,398.77 1670.81,398.77 
  "/>
<path clip-path="url(#clip990)" d="M 0 0 M1716.33 395.101 Q1717.92 392.23 1720.15 390.865 Q1722.37 389.499 1725.38 389.499 Q1729.43 389.499 1731.63 392.346 Q1733.83 395.17 1733.83 400.401 L1733.83 416.05 L1729.54 416.05 L1729.54 400.54 Q1729.54 396.814 1728.23 395.008 Q1726.91 393.202 1724.2 393.202 Q1720.89 393.202 1718.97 395.402 Q1717.04 397.601 1717.04 401.397 L1717.04 416.05 L1712.76 416.05 L1712.76 400.54 Q1712.76 396.79 1711.44 395.008 Q1710.12 393.202 1707.37 393.202 Q1704.11 393.202 1702.18 395.425 Q1700.26 397.624 1700.26 401.397 L1700.26 416.05 L1695.98 416.05 L1695.98 390.124 L1700.26 390.124 L1700.26 394.152 Q1701.72 391.767 1703.76 390.633 Q1705.79 389.499 1708.6 389.499 Q1711.42 389.499 1713.39 390.934 Q1715.38 392.369 1716.33 395.101 Z" fill="#000000" fill-rule="evenodd" fill-opacity="1" /><path clip-path="url(#clip990)" d="M 0 0 M1760.47 402.022 L1760.47 404.105 L1740.89 404.105 Q1741.17 408.503 1743.53 410.818 Q1745.91 413.11 1750.15 413.11 Q1752.6 413.11 1754.89 412.508 Q1757.21 411.906 1759.48 410.702 L1759.48 414.73 Q1757.18 415.702 1754.78 416.212 Q1752.37 416.721 1749.89 416.721 Q1743.69 416.721 1740.05 413.11 Q1736.44 409.499 1736.44 403.341 Q1736.44 396.976 1739.87 393.249 Q1743.32 389.499 1749.15 389.499 Q1754.38 389.499 1757.42 392.878 Q1760.47 396.235 1760.47 402.022 M1756.21 400.772 Q1756.17 397.277 1754.24 395.193 Q1752.35 393.11 1749.2 393.11 Q1745.63 393.11 1743.48 395.124 Q1741.35 397.138 1741.03 400.795 L1756.21 400.772 Z" fill="#000000" fill-rule="evenodd" fill-opacity="1" /><path clip-path="url(#clip990)" d="M 0 0 M1782 394.059 L1782 380.031 L1786.26 380.031 L1786.26 416.05 L1782 416.05 L1782 412.161 Q1780.66 414.475 1778.6 415.61 Q1776.56 416.721 1773.69 416.721 Q1768.99 416.721 1766.03 412.971 Q1763.09 409.221 1763.09 403.11 Q1763.09 396.999 1766.03 393.249 Q1768.99 389.499 1773.69 389.499 Q1776.56 389.499 1778.6 390.633 Q1780.66 391.744 1782 394.059 M1767.48 403.11 Q1767.48 407.809 1769.41 410.494 Q1771.35 413.156 1774.73 413.156 Q1778.11 413.156 1780.05 410.494 Q1782 407.809 1782 403.11 Q1782 398.411 1780.05 395.749 Q1778.11 393.064 1774.73 393.064 Q1771.35 393.064 1769.41 395.749 Q1767.48 398.411 1767.48 403.11 Z" fill="#000000" fill-rule="evenodd" fill-opacity="1" /><path clip-path="url(#clip990)" d="M 0 0 M1790.73 390.124 L1794.98 390.124 L1794.98 416.05 L1790.73 416.05 L1790.73 390.124 M1790.73 380.031 L1794.98 380.031 L1794.98 385.425 L1790.73 385.425 L1790.73 380.031 Z" fill="#000000" fill-rule="evenodd" fill-opacity="1" /><path clip-path="url(#clip990)" d="M 0 0 M1811.23 403.017 Q1806.07 403.017 1804.08 404.198 Q1802.09 405.378 1802.09 408.226 Q1802.09 410.494 1803.57 411.837 Q1805.08 413.156 1807.65 413.156 Q1811.19 413.156 1813.32 410.656 Q1815.47 408.133 1815.47 403.966 L1815.47 403.017 L1811.23 403.017 M1819.73 401.258 L1819.73 416.05 L1815.47 416.05 L1815.47 412.114 Q1814.01 414.475 1811.84 415.61 Q1809.66 416.721 1806.51 416.721 Q1802.53 416.721 1800.17 414.499 Q1797.83 412.253 1797.83 408.503 Q1797.83 404.128 1800.75 401.906 Q1803.69 399.684 1809.5 399.684 L1815.47 399.684 L1815.47 399.267 Q1815.47 396.327 1813.53 394.73 Q1811.6 393.11 1808.11 393.11 Q1805.89 393.11 1803.78 393.642 Q1801.67 394.175 1799.73 395.239 L1799.73 391.304 Q1802.07 390.402 1804.27 389.962 Q1806.47 389.499 1808.55 389.499 Q1814.17 389.499 1816.95 392.415 Q1819.73 395.332 1819.73 401.258 Z" fill="#000000" fill-rule="evenodd" fill-opacity="1" /><path clip-path="url(#clip990)" d="M 0 0 M1845.75 400.401 L1845.75 416.05 L1841.49 416.05 L1841.49 400.54 Q1841.49 396.86 1840.05 395.031 Q1838.62 393.202 1835.75 393.202 Q1832.3 393.202 1830.31 395.402 Q1828.32 397.601 1828.32 401.397 L1828.32 416.05 L1824.04 416.05 L1824.04 390.124 L1828.32 390.124 L1828.32 394.152 Q1829.85 391.814 1831.91 390.656 Q1833.99 389.499 1836.7 389.499 Q1841.16 389.499 1843.46 392.277 Q1845.75 395.031 1845.75 400.401 Z" fill="#000000" fill-rule="evenodd" fill-opacity="1" /></svg>
