<?xml version="1.0" encoding="utf-8"?>
<svg xmlns="http://www.w3.org/2000/svg" xmlns:xlink="http://www.w3.org/1999/xlink" width="600" height="400" viewBox="0 0 2400 1600">
<defs>
  <clipPath id="clip960">
    <rect x="0" y="0" width="2400" height="1600"/>
  </clipPath>
</defs>
<path clip-path="url(#clip960)" d="
M0 1600 L2400 1600 L2400 0 L0 0  Z
  " fill="#ffffff" fill-rule="evenodd" fill-opacity="1"/>
<defs>
  <clipPath id="clip961">
    <rect x="480" y="0" width="1681" height="1600"/>
  </clipPath>
</defs>
<path clip-path="url(#clip960)" d="
M86.9921 1521.01 L2352.76 1521.01 L2352.76 47.2441 L86.9921 47.2441  Z
  " fill="#ffffff" fill-rule="evenodd" fill-opacity="1"/>
<defs>
  <clipPath id="clip962">
    <rect x="86" y="47" width="2267" height="1475"/>
  </clipPath>
</defs>
<polyline clip-path="url(#clip962)" style="stroke:#000000; stroke-width:2; stroke-opacity:0.1; fill:none" points="
  244.35,1521.01 244.35,47.2441 
  "/>
<polyline clip-path="url(#clip962)" style="stroke:#000000; stroke-width:2; stroke-opacity:0.1; fill:none" points="
  694.592,1521.01 694.592,47.2441 
  "/>
<polyline clip-path="url(#clip962)" style="stroke:#000000; stroke-width:2; stroke-opacity:0.1; fill:none" points="
  1144.83,1521.01 1144.83,47.2441 
  "/>
<polyline clip-path="url(#clip962)" style="stroke:#000000; stroke-width:2; stroke-opacity:0.1; fill:none" points="
  1595.08,1521.01 1595.08,47.2441 
  "/>
<polyline clip-path="url(#clip962)" style="stroke:#000000; stroke-width:2; stroke-opacity:0.1; fill:none" points="
  2045.32,1521.01 2045.32,47.2441 
  "/>
<polyline clip-path="url(#clip962)" style="stroke:#000000; stroke-width:2; stroke-opacity:0.1; fill:none" points="
  86.9921,1479.3 2352.76,1479.3 
  "/>
<polyline clip-path="url(#clip962)" style="stroke:#000000; stroke-width:2; stroke-opacity:0.1; fill:none" points="
  86.9921,1219.03 2352.76,1219.03 
  "/>
<polyline clip-path="url(#clip962)" style="stroke:#000000; stroke-width:2; stroke-opacity:0.1; fill:none" points="
  86.9921,958.768 2352.76,958.768 
  "/>
<polyline clip-path="url(#clip962)" style="stroke:#000000; stroke-width:2; stroke-opacity:0.1; fill:none" points="
  86.9921,698.503 2352.76,698.503 
  "/>
<polyline clip-path="url(#clip962)" style="stroke:#000000; stroke-width:2; stroke-opacity:0.1; fill:none" points="
  86.9921,438.238 2352.76,438.238 
  "/>
<polyline clip-path="url(#clip962)" style="stroke:#000000; stroke-width:2; stroke-opacity:0.1; fill:none" points="
  86.9921,177.974 2352.76,177.974 
  "/>
<polyline clip-path="url(#clip960)" style="stroke:#000000; stroke-width:4; stroke-opacity:1; fill:none" points="
  86.9921,1521.01 2352.76,1521.01 
  "/>
<polyline clip-path="url(#clip960)" style="stroke:#000000; stroke-width:4; stroke-opacity:1; fill:none" points="
  86.9921,1521.01 86.9921,47.2441 
  "/>
<polyline clip-path="url(#clip960)" style="stroke:#000000; stroke-width:4; stroke-opacity:1; fill:none" points="
  244.35,1521.01 244.35,1503.32 
  "/>
<polyline clip-path="url(#clip960)" style="stroke:#000000; stroke-width:4; stroke-opacity:1; fill:none" points="
  694.592,1521.01 694.592,1503.32 
  "/>
<polyline clip-path="url(#clip960)" style="stroke:#000000; stroke-width:4; stroke-opacity:1; fill:none" points="
  1144.83,1521.01 1144.83,1503.32 
  "/>
<polyline clip-path="url(#clip960)" style="stroke:#000000; stroke-width:4; stroke-opacity:1; fill:none" points="
  1595.08,1521.01 1595.08,1503.32 
  "/>
<polyline clip-path="url(#clip960)" style="stroke:#000000; stroke-width:4; stroke-opacity:1; fill:none" points="
  2045.32,1521.01 2045.32,1503.32 
  "/>
<polyline clip-path="url(#clip960)" style="stroke:#000000; stroke-width:4; stroke-opacity:1; fill:none" points="
  86.9921,1479.3 114.181,1479.3 
  "/>
<polyline clip-path="url(#clip960)" style="stroke:#000000; stroke-width:4; stroke-opacity:1; fill:none" points="
  86.9921,1219.03 114.181,1219.03 
  "/>
<polyline clip-path="url(#clip960)" style="stroke:#000000; stroke-width:4; stroke-opacity:1; fill:none" points="
  86.9921,958.768 114.181,958.768 
  "/>
<polyline clip-path="url(#clip960)" style="stroke:#000000; stroke-width:4; stroke-opacity:1; fill:none" points="
  86.9921,698.503 114.181,698.503 
  "/>
<polyline clip-path="url(#clip960)" style="stroke:#000000; stroke-width:4; stroke-opacity:1; fill:none" points="
  86.9921,438.238 114.181,438.238 
  "/>
<polyline clip-path="url(#clip960)" style="stroke:#000000; stroke-width:4; stroke-opacity:1; fill:none" points="
  86.9921,177.974 114.181,177.974 
  "/>
<path clip-path="url(#clip960)" d="M 0 0 M197.973 1557.65 L227.649 1557.65 L227.649 1561.59 L197.973 1561.59 L197.973 1557.65 Z" fill="#000000" fill-rule="evenodd" fill-opacity="1" /><path clip-path="url(#clip960)" d="M 0 0 M242.718 1543 Q239.107 1543 237.278 1546.56 Q235.473 1550.11 235.473 1557.23 Q235.473 1564.34 237.278 1567.91 Q239.107 1571.45 242.718 1571.45 Q246.352 1571.45 248.158 1567.91 Q249.987 1564.34 249.987 1557.23 Q249.987 1550.11 248.158 1546.56 Q246.352 1543 242.718 1543 M242.718 1539.29 Q248.528 1539.29 251.584 1543.9 Q254.663 1548.48 254.663 1557.23 Q254.663 1565.96 251.584 1570.57 Q248.528 1575.15 242.718 1575.15 Q236.908 1575.15 233.829 1570.57 Q230.774 1565.96 230.774 1557.23 Q230.774 1548.48 233.829 1543.9 Q236.908 1539.29 242.718 1539.29 Z" fill="#000000" fill-rule="evenodd" fill-opacity="1" /><path clip-path="url(#clip960)" d="M 0 0 M259.732 1568.6 L264.616 1568.6 L264.616 1574.48 L259.732 1574.48 L259.732 1568.6 Z" fill="#000000" fill-rule="evenodd" fill-opacity="1" /><path clip-path="url(#clip960)" d="M 0 0 M268.505 1539.92 L290.727 1539.92 L290.727 1541.91 L278.181 1574.48 L273.297 1574.48 L285.102 1543.86 L268.505 1543.86 L268.505 1539.92 Z" fill="#000000" fill-rule="evenodd" fill-opacity="1" /><path clip-path="url(#clip960)" d="M 0 0 M647.683 1557.65 L677.359 1557.65 L677.359 1561.59 L647.683 1561.59 L647.683 1557.65 Z" fill="#000000" fill-rule="evenodd" fill-opacity="1" /><path clip-path="url(#clip960)" d="M 0 0 M692.428 1543 Q688.817 1543 686.988 1546.56 Q685.183 1550.11 685.183 1557.23 Q685.183 1564.34 686.988 1567.91 Q688.817 1571.45 692.428 1571.45 Q696.062 1571.45 697.868 1567.91 Q699.697 1564.34 699.697 1557.23 Q699.697 1550.11 697.868 1546.56 Q696.062 1543 692.428 1543 M692.428 1539.29 Q698.238 1539.29 701.294 1543.9 Q704.372 1548.48 704.372 1557.23 Q704.372 1565.96 701.294 1570.57 Q698.238 1575.15 692.428 1575.15 Q686.618 1575.15 683.539 1570.57 Q680.484 1565.96 680.484 1557.23 Q680.484 1548.48 683.539 1543.9 Q686.618 1539.29 692.428 1539.29 Z" fill="#000000" fill-rule="evenodd" fill-opacity="1" /><path clip-path="url(#clip960)" d="M 0 0 M709.442 1568.6 L714.326 1568.6 L714.326 1574.48 L709.442 1574.48 L709.442 1568.6 Z" fill="#000000" fill-rule="evenodd" fill-opacity="1" /><path clip-path="url(#clip960)" d="M 0 0 M729.974 1555.34 Q726.826 1555.34 724.974 1557.49 Q723.146 1559.64 723.146 1563.39 Q723.146 1567.12 724.974 1569.29 Q726.826 1571.45 729.974 1571.45 Q733.122 1571.45 734.951 1569.29 Q736.803 1567.12 736.803 1563.39 Q736.803 1559.64 734.951 1557.49 Q733.122 1555.34 729.974 1555.34 M739.257 1540.68 L739.257 1544.94 Q737.497 1544.11 735.692 1543.67 Q733.909 1543.23 732.15 1543.23 Q727.52 1543.23 725.067 1546.36 Q722.636 1549.48 722.289 1555.8 Q723.655 1553.79 725.715 1552.72 Q727.775 1551.63 730.252 1551.63 Q735.46 1551.63 738.47 1554.8 Q741.502 1557.95 741.502 1563.39 Q741.502 1568.72 738.354 1571.93 Q735.206 1575.15 729.974 1575.15 Q723.979 1575.15 720.808 1570.57 Q717.636 1565.96 717.636 1557.23 Q717.636 1549.04 721.525 1544.18 Q725.414 1539.29 731.965 1539.29 Q733.724 1539.29 735.507 1539.64 Q737.312 1539.99 739.257 1540.68 Z" fill="#000000" fill-rule="evenodd" fill-opacity="1" /><path clip-path="url(#clip960)" d="M 0 0 M1098.5 1557.65 L1128.18 1557.65 L1128.18 1561.59 L1098.5 1561.59 L1098.5 1557.65 Z" fill="#000000" fill-rule="evenodd" fill-opacity="1" /><path clip-path="url(#clip960)" d="M 0 0 M1143.25 1543 Q1139.64 1543 1137.81 1546.56 Q1136 1550.11 1136 1557.23 Q1136 1564.34 1137.81 1567.91 Q1139.64 1571.45 1143.25 1571.45 Q1146.88 1571.45 1148.69 1567.91 Q1150.52 1564.34 1150.52 1557.23 Q1150.52 1550.11 1148.69 1546.56 Q1146.88 1543 1143.25 1543 M1143.25 1539.29 Q1149.06 1539.29 1152.11 1543.9 Q1155.19 1548.48 1155.19 1557.23 Q1155.19 1565.96 1152.11 1570.57 Q1149.06 1575.15 1143.25 1575.15 Q1137.44 1575.15 1134.36 1570.57 Q1131.3 1565.96 1131.3 1557.23 Q1131.3 1548.48 1134.36 1543.9 Q1137.44 1539.29 1143.25 1539.29 Z" fill="#000000" fill-rule="evenodd" fill-opacity="1" /><path clip-path="url(#clip960)" d="M 0 0 M1160.26 1568.6 L1165.15 1568.6 L1165.15 1574.48 L1160.26 1574.48 L1160.26 1568.6 Z" fill="#000000" fill-rule="evenodd" fill-opacity="1" /><path clip-path="url(#clip960)" d="M 0 0 M1170.26 1539.92 L1188.62 1539.92 L1188.62 1543.86 L1174.55 1543.86 L1174.55 1552.33 Q1175.56 1551.98 1176.58 1551.82 Q1177.6 1551.63 1178.62 1551.63 Q1184.41 1551.63 1187.79 1554.8 Q1191.17 1557.98 1191.17 1563.39 Q1191.17 1568.97 1187.69 1572.07 Q1184.22 1575.15 1177.9 1575.15 Q1175.73 1575.15 1173.46 1574.78 Q1171.21 1574.41 1168.8 1573.67 L1168.8 1568.97 Q1170.89 1570.1 1173.11 1570.66 Q1175.33 1571.22 1177.81 1571.22 Q1181.81 1571.22 1184.15 1569.11 Q1186.49 1567 1186.49 1563.39 Q1186.49 1559.78 1184.15 1557.67 Q1181.81 1555.57 1177.81 1555.57 Q1175.93 1555.57 1174.06 1555.98 Q1172.21 1556.4 1170.26 1557.28 L1170.26 1539.92 Z" fill="#000000" fill-rule="evenodd" fill-opacity="1" /><path clip-path="url(#clip960)" d="M 0 0 M1548.01 1557.65 L1577.68 1557.65 L1577.68 1561.59 L1548.01 1561.59 L1548.01 1557.65 Z" fill="#000000" fill-rule="evenodd" fill-opacity="1" /><path clip-path="url(#clip960)" d="M 0 0 M1592.75 1543 Q1589.14 1543 1587.31 1546.56 Q1585.51 1550.11 1585.51 1557.23 Q1585.51 1564.34 1587.31 1567.91 Q1589.14 1571.45 1592.75 1571.45 Q1596.38 1571.45 1598.19 1567.91 Q1600.02 1564.34 1600.02 1557.23 Q1600.02 1550.11 1598.19 1546.56 Q1596.38 1543 1592.75 1543 M1592.75 1539.29 Q1598.56 1539.29 1601.62 1543.9 Q1604.7 1548.48 1604.7 1557.23 Q1604.7 1565.96 1601.62 1570.57 Q1598.56 1575.15 1592.75 1575.15 Q1586.94 1575.15 1583.86 1570.57 Q1580.81 1565.96 1580.81 1557.23 Q1580.81 1548.48 1583.86 1543.9 Q1586.94 1539.29 1592.75 1539.29 Z" fill="#000000" fill-rule="evenodd" fill-opacity="1" /><path clip-path="url(#clip960)" d="M 0 0 M1609.76 1568.6 L1614.65 1568.6 L1614.65 1574.48 L1609.76 1574.48 L1609.76 1568.6 Z" fill="#000000" fill-rule="evenodd" fill-opacity="1" /><path clip-path="url(#clip960)" d="M 0 0 M1632.57 1543.99 L1620.76 1562.44 L1632.57 1562.44 L1632.57 1543.99 M1631.34 1539.92 L1637.22 1539.92 L1637.22 1562.44 L1642.15 1562.44 L1642.15 1566.33 L1637.22 1566.33 L1637.22 1574.48 L1632.57 1574.48 L1632.57 1566.33 L1616.96 1566.33 L1616.96 1561.82 L1631.34 1539.92 Z" fill="#000000" fill-rule="evenodd" fill-opacity="1" /><path clip-path="url(#clip960)" d="M 0 0 M1998.82 1557.65 L2028.49 1557.65 L2028.49 1561.59 L1998.82 1561.59 L1998.82 1557.65 Z" fill="#000000" fill-rule="evenodd" fill-opacity="1" /><path clip-path="url(#clip960)" d="M 0 0 M2043.56 1543 Q2039.95 1543 2038.12 1546.56 Q2036.31 1550.11 2036.31 1557.23 Q2036.31 1564.34 2038.12 1567.91 Q2039.95 1571.45 2043.56 1571.45 Q2047.19 1571.45 2049 1567.91 Q2050.83 1564.34 2050.83 1557.23 Q2050.83 1550.11 2049 1546.56 Q2047.19 1543 2043.56 1543 M2043.56 1539.29 Q2049.37 1539.29 2052.43 1543.9 Q2055.5 1548.48 2055.5 1557.23 Q2055.5 1565.96 2052.43 1570.57 Q2049.37 1575.15 2043.56 1575.15 Q2037.75 1575.15 2034.67 1570.57 Q2031.62 1565.96 2031.62 1557.23 Q2031.62 1548.48 2034.67 1543.9 Q2037.75 1539.29 2043.56 1539.29 Z" fill="#000000" fill-rule="evenodd" fill-opacity="1" /><path clip-path="url(#clip960)" d="M 0 0 M2060.57 1568.6 L2065.46 1568.6 L2065.46 1574.48 L2060.57 1574.48 L2060.57 1568.6 Z" fill="#000000" fill-rule="evenodd" fill-opacity="1" /><path clip-path="url(#clip960)" d="M 0 0 M2084.69 1555.85 Q2088.05 1556.56 2089.93 1558.83 Q2091.82 1561.1 2091.82 1564.43 Q2091.82 1569.55 2088.31 1572.35 Q2084.79 1575.15 2078.31 1575.15 Q2076.13 1575.15 2073.81 1574.71 Q2071.52 1574.29 2069.07 1573.44 L2069.07 1568.92 Q2071.01 1570.06 2073.33 1570.64 Q2075.64 1571.22 2078.17 1571.22 Q2082.56 1571.22 2084.86 1569.48 Q2087.17 1567.74 2087.17 1564.43 Q2087.17 1561.38 2085.02 1559.67 Q2082.89 1557.93 2079.07 1557.93 L2075.04 1557.93 L2075.04 1554.09 L2079.25 1554.09 Q2082.7 1554.09 2084.53 1552.72 Q2086.36 1551.33 2086.36 1548.74 Q2086.36 1546.08 2084.46 1544.67 Q2082.59 1543.23 2079.07 1543.23 Q2077.15 1543.23 2074.95 1543.65 Q2072.75 1544.06 2070.11 1544.94 L2070.11 1540.78 Q2072.77 1540.04 2075.09 1539.67 Q2077.43 1539.29 2079.49 1539.29 Q2084.81 1539.29 2087.91 1541.73 Q2091.01 1544.13 2091.01 1548.25 Q2091.01 1551.12 2089.37 1553.11 Q2087.73 1555.08 2084.69 1555.85 Z" fill="#000000" fill-rule="evenodd" fill-opacity="1" /><path clip-path="url(#clip960)" d="M 0 0 M51.0477 1465.1 Q47.4367 1465.1 45.608 1468.66 Q43.8024 1472.2 43.8024 1479.33 Q43.8024 1486.44 45.608 1490 Q47.4367 1493.55 51.0477 1493.55 Q54.682 1493.55 56.4875 1490 Q58.3162 1486.44 58.3162 1479.33 Q58.3162 1472.2 56.4875 1468.66 Q54.682 1465.1 51.0477 1465.1 M51.0477 1461.39 Q56.8579 1461.39 59.9134 1466 Q62.9921 1470.58 62.9921 1479.33 Q62.9921 1488.06 59.9134 1492.67 Q56.8579 1497.25 51.0477 1497.25 Q45.2376 1497.25 42.1589 1492.67 Q39.1034 1488.06 39.1034 1479.33 Q39.1034 1470.58 42.1589 1466 Q45.2376 1461.39 51.0477 1461.39 Z" fill="#000000" fill-rule="evenodd" fill-opacity="1" /><path clip-path="url(#clip960)" d="M 0 0 M43.0848 1232.38 L50.7237 1232.38 L50.7237 1206.01 L42.4135 1207.68 L42.4135 1203.42 L50.6774 1201.75 L55.3533 1201.75 L55.3533 1232.38 L62.9921 1232.38 L62.9921 1236.31 L43.0848 1236.31 L43.0848 1232.38 Z" fill="#000000" fill-rule="evenodd" fill-opacity="1" /><path clip-path="url(#clip960)" d="M 0 0 M46.6728 972.113 L62.9921 972.113 L62.9921 976.048 L41.0478 976.048 L41.0478 972.113 Q43.7098 969.358 48.2931 964.729 Q52.8996 960.076 54.0801 958.733 Q56.3255 956.21 57.2051 954.474 Q58.1079 952.715 58.1079 951.025 Q58.1079 948.27 56.1635 946.534 Q54.2422 944.798 51.1403 944.798 Q48.9413 944.798 46.4876 945.562 Q44.057 946.326 41.2793 947.877 L41.2793 943.155 Q44.1033 942.02 46.557 941.442 Q49.0107 940.863 51.0477 940.863 Q56.4181 940.863 59.6125 943.548 Q62.8069 946.233 62.8069 950.724 Q62.8069 952.854 61.9968 954.775 Q61.2097 956.673 59.1033 959.266 Q58.5246 959.937 55.4227 963.155 Q52.3209 966.349 46.6728 972.113 Z" fill="#000000" fill-rule="evenodd" fill-opacity="1" /><path clip-path="url(#clip960)" d="M 0 0 M55.8625 697.149 Q59.219 697.867 61.094 700.135 Q62.9921 702.404 62.9921 705.737 Q62.9921 710.853 59.4736 713.654 Q55.9551 716.455 49.4737 716.455 Q47.2978 716.455 44.983 716.015 Q42.6913 715.598 40.2376 714.742 L40.2376 710.228 Q42.1821 711.362 44.4969 711.941 Q46.8117 712.519 49.3348 712.519 Q53.7329 712.519 56.0246 710.783 Q58.3394 709.047 58.3394 705.737 Q58.3394 702.681 56.1866 700.968 Q54.057 699.232 50.2376 699.232 L46.2098 699.232 L46.2098 695.39 L50.4227 695.39 Q53.8718 695.39 55.7005 694.024 Q57.5292 692.635 57.5292 690.043 Q57.5292 687.381 55.6311 685.969 Q53.7561 684.533 50.2376 684.533 Q48.3163 684.533 46.1172 684.95 Q43.9182 685.367 41.2793 686.246 L41.2793 682.08 Q43.9413 681.339 46.2561 680.969 Q48.5941 680.598 50.6542 680.598 Q55.9783 680.598 59.0801 683.029 Q62.1819 685.436 62.1819 689.556 Q62.1819 692.427 60.5384 694.418 Q58.8949 696.385 55.8625 697.149 Z" fill="#000000" fill-rule="evenodd" fill-opacity="1" /><path clip-path="url(#clip960)" d="M 0 0 M53.4088 425.032 L41.6034 443.481 L53.4088 443.481 L53.4088 425.032 M52.182 420.958 L58.0616 420.958 L58.0616 443.481 L62.9921 443.481 L62.9921 447.37 L58.0616 447.37 L58.0616 455.518 L53.4088 455.518 L53.4088 447.37 L37.8071 447.37 L37.8071 442.856 L52.182 420.958 Z" fill="#000000" fill-rule="evenodd" fill-opacity="1" /><path clip-path="url(#clip960)" d="M 0 0 M42.0895 160.694 L60.4458 160.694 L60.4458 164.629 L46.3718 164.629 L46.3718 173.101 Q47.3904 172.754 48.4089 172.592 Q49.4274 172.407 50.4459 172.407 Q56.2329 172.407 59.6125 175.578 Q62.9921 178.749 62.9921 184.166 Q62.9921 189.744 59.5199 192.846 Q56.0477 195.925 49.7283 195.925 Q47.5524 195.925 45.2839 195.555 Q43.0385 195.184 40.6311 194.443 L40.6311 189.744 Q42.7145 190.879 44.9367 191.434 Q47.1589 191.99 49.6357 191.99 Q53.6403 191.99 55.9783 189.883 Q58.3162 187.777 58.3162 184.166 Q58.3162 180.555 55.9783 178.448 Q53.6403 176.342 49.6357 176.342 Q47.7607 176.342 45.8857 176.758 Q44.0339 177.175 42.0895 178.055 L42.0895 160.694 Z" fill="#000000" fill-rule="evenodd" fill-opacity="1" /><path clip-path="url(#clip962)" d="
M151.118 1459.04 L156.683 1456.68 L162.248 1454.27 L167.813 1451.83 L173.378 1449.41 L178.944 1447.03 L184.509 1444.73 L190.074 1442.55 L195.639 1440.51 L201.204 1438.64 
  L206.77 1436.97 L212.335 1435.5 L217.9 1434.25 L223.465 1433.23 L229.03 1432.44 L234.596 1431.87 L240.161 1431.51 L245.726 1431.35 L251.291 1431.36 L256.856 1431.53 
  L262.422 1431.81 L267.987 1432.19 L273.552 1432.62 L279.117 1433.07 L284.682 1433.51 L290.248 1433.91 L295.813 1434.23 L301.378 1434.46 L306.943 1434.56 L312.508 1434.51 
  L318.074 1434.3 L323.639 1433.91 L329.204 1433.33 L334.769 1432.53 L340.334 1431.51 L345.9 1430.26 L351.465 1428.77 L357.03 1427.01 L362.595 1424.99 L368.16 1422.68 
  L373.726 1420.1 L379.291 1417.23 L384.856 1414.09 L390.421 1410.68 L395.986 1407.02 L401.552 1403.15 L407.117 1399.08 L412.682 1394.86 L418.247 1390.54 L423.812 1386.16 
  L429.378 1381.78 L434.943 1377.43 L440.508 1373.18 L446.073 1369.05 L451.638 1365.1 L457.204 1361.34 L462.769 1357.81 L468.334 1354.52 L473.899 1351.48 L479.464 1348.69 
  L485.03 1346.14 L490.595 1343.82 L496.16 1341.71 L501.725 1339.8 L507.29 1338.06 L512.856 1336.45 L518.421 1334.96 L523.986 1333.56 L529.551 1332.2 L535.116 1330.85 
  L540.682 1329.49 L546.247 1328.07 L551.812 1326.57 L557.377 1324.95 L562.942 1323.18 L568.508 1321.23 L574.073 1319.1 L579.638 1316.76 L585.203 1314.22 L590.768 1311.46 
  L596.334 1308.51 L601.899 1305.37 L607.464 1302.07 L613.029 1298.62 L618.594 1295.06 L624.16 1291.41 L629.725 1287.69 L635.29 1283.92 L640.855 1280.1 L646.42 1276.25 
  L651.986 1272.34 L657.551 1268.37 L663.116 1264.29 L668.681 1260.08 L674.246 1255.66 L679.812 1250.97 L685.377 1245.95 L690.942 1240.51 L696.507 1234.58 L702.072 1228.05 
  L702.072 1479.3 L696.507 1479.3 L690.942 1479.3 L685.377 1479.3 L679.812 1479.3 L674.246 1479.3 L668.681 1479.3 L663.116 1479.3 L657.551 1479.3 L651.986 1479.3 
  L646.42 1479.3 L640.855 1479.3 L635.29 1479.3 L629.725 1479.3 L624.16 1479.3 L618.594 1479.3 L613.029 1479.3 L607.464 1479.3 L601.899 1479.3 L596.334 1479.3 
  L590.768 1479.3 L585.203 1479.3 L579.638 1479.3 L574.073 1479.3 L568.508 1479.3 L562.942 1479.3 L557.377 1479.3 L551.812 1479.3 L546.247 1479.3 L540.682 1479.3 
  L535.116 1479.3 L529.551 1479.3 L523.986 1479.3 L518.421 1479.3 L512.856 1479.3 L507.29 1479.3 L501.725 1479.3 L496.16 1479.3 L490.595 1479.3 L485.03 1479.3 
  L479.464 1479.3 L473.899 1479.3 L468.334 1479.3 L462.769 1479.3 L457.204 1479.3 L451.638 1479.3 L446.073 1479.3 L440.508 1479.3 L434.943 1479.3 L429.378 1479.3 
  L423.812 1479.3 L418.247 1479.3 L412.682 1479.3 L407.117 1479.3 L401.552 1479.3 L395.986 1479.3 L390.421 1479.3 L384.856 1479.3 L379.291 1479.3 L373.726 1479.3 
  L368.16 1479.3 L362.595 1479.3 L357.03 1479.3 L351.465 1479.3 L345.9 1479.3 L340.334 1479.3 L334.769 1479.3 L329.204 1479.3 L323.639 1479.3 L318.074 1479.3 
  L312.508 1479.3 L306.943 1479.3 L301.378 1479.3 L295.813 1479.3 L290.248 1479.3 L284.682 1479.3 L279.117 1479.3 L273.552 1479.3 L267.987 1479.3 L262.422 1479.3 
  L256.856 1479.3 L251.291 1479.3 L245.726 1479.3 L240.161 1479.3 L234.596 1479.3 L229.03 1479.3 L223.465 1479.3 L217.9 1479.3 L212.335 1479.3 L206.77 1479.3 
  L201.204 1479.3 L195.639 1479.3 L190.074 1479.3 L184.509 1479.3 L178.944 1479.3 L173.378 1479.3 L167.813 1479.3 L162.248 1479.3 L156.683 1479.3 L151.118 1479.3 
   Z
  " fill="#ffa500" fill-rule="evenodd" fill-opacity="0.5"/>
<polyline clip-path="url(#clip962)" style="stroke:#ffa500; stroke-width:4; stroke-opacity:1; fill:none" points="
  151.118,1459.04 156.683,1456.68 162.248,1454.27 167.813,1451.83 173.378,1449.41 178.944,1447.03 184.509,1444.73 190.074,1442.55 195.639,1440.51 201.204,1438.64 
  206.77,1436.97 212.335,1435.5 217.9,1434.25 223.465,1433.23 229.03,1432.44 234.596,1431.87 240.161,1431.51 245.726,1431.35 251.291,1431.36 256.856,1431.53 
  262.422,1431.81 267.987,1432.19 273.552,1432.62 279.117,1433.07 284.682,1433.51 290.248,1433.91 295.813,1434.23 301.378,1434.46 306.943,1434.56 312.508,1434.51 
  318.074,1434.3 323.639,1433.91 329.204,1433.33 334.769,1432.53 340.334,1431.51 345.9,1430.26 351.465,1428.77 357.03,1427.01 362.595,1424.99 368.16,1422.68 
  373.726,1420.1 379.291,1417.23 384.856,1414.09 390.421,1410.68 395.986,1407.02 401.552,1403.15 407.117,1399.08 412.682,1394.86 418.247,1390.54 423.812,1386.16 
  429.378,1381.78 434.943,1377.43 440.508,1373.18 446.073,1369.05 451.638,1365.1 457.204,1361.34 462.769,1357.81 468.334,1354.52 473.899,1351.48 479.464,1348.69 
  485.03,1346.14 490.595,1343.82 496.16,1341.71 501.725,1339.8 507.29,1338.06 512.856,1336.45 518.421,1334.96 523.986,1333.56 529.551,1332.2 535.116,1330.85 
  540.682,1329.49 546.247,1328.07 551.812,1326.57 557.377,1324.95 562.942,1323.18 568.508,1321.23 574.073,1319.1 579.638,1316.76 585.203,1314.22 590.768,1311.46 
  596.334,1308.51 601.899,1305.37 607.464,1302.07 613.029,1298.62 618.594,1295.06 624.16,1291.41 629.725,1287.69 635.29,1283.92 640.855,1280.1 646.42,1276.25 
  651.986,1272.34 657.551,1268.37 663.116,1264.29 668.681,1260.08 674.246,1255.66 679.812,1250.97 685.377,1245.95 690.942,1240.51 696.507,1234.58 702.072,1228.05 
  
  "/>
<path clip-path="url(#clip962)" d="
M702.072 1228.05 L713.254 1212.88 L724.436 1194.52 L735.618 1172.72 L746.799 1147.61 L757.981 1119.7 L769.163 1089.87 L780.345 1059.26 L791.527 1028.96 L802.708 999.872 
  L813.89 972.476 L825.072 946.754 L836.254 922.266 L847.435 898.344 L858.617 874.352 L869.799 849.912 L880.981 825.007 L892.162 799.92 L903.344 775.011 L914.526 750.408 
  L925.708 725.736 L936.89 699.962 L948.071 671.452 L959.253 638.226 L970.435 598.371 L981.617 550.524 L992.798 494.331 L1003.98 430.791 L1015.16 362.405 L1026.34 293.04 
  L1037.53 227.498 L1048.71 170.786 L1059.89 127.241 L1071.07 99.6977 L1082.25 88.9544 L1093.43 93.7111 L1104.62 111.009 L1115.8 137.029 L1126.98 167.977 L1138.16 200.776 
  L1149.34 233.384 L1160.52 264.7 L1171.71 294.204 L1182.89 321.508 L1194.07 346.009 L1205.25 366.743 L1216.43 382.444 L1227.62 391.769 L1238.8 393.592 L1249.98 387.313 
  L1261.16 373.125 L1272.34 352.183 L1283.52 326.631 L1294.71 299.443 L1305.89 274.052 L1317.07 253.813 L1328.25 241.388 L1339.43 238.197 L1350.61 244.088 L1361.8 257.327 
  L1372.98 274.943 L1384.16 293.346 L1395.34 309.091 L1406.52 319.584 L1417.71 323.579 L1428.89 321.346 L1440.07 314.489 L1451.25 305.492 L1462.43 297.127 L1473.61 291.898 
  L1484.8 291.63 L1495.98 297.299 L1507.16 309.059 L1518.34 326.415 L1529.52 348.433 L1540.71 373.918 L1551.89 401.528 L1563.07 429.824 L1574.25 457.309 L1585.43 482.486 
  L1596.61 503.999 L1607.8 520.849 L1618.98 532.669 L1630.16 539.965 L1641.34 544.243 L1652.52 547.902 L1663.7 553.866 L1674.89 565.022 L1686.07 583.584 L1697.25 610.586 
  L1708.43 645.654 L1719.61 687.116 L1730.8 732.425 L1741.98 778.754 L1753.16 823.607 L1764.34 865.293 L1775.52 903.162 L1786.7 937.581 L1797.89 969.683 L1809.07 1000.96 
  L1809.07 1479.3 L1797.89 1479.3 L1786.7 1479.3 L1775.52 1479.3 L1764.34 1479.3 L1753.16 1479.3 L1741.98 1479.3 L1730.8 1479.3 L1719.61 1479.3 L1708.43 1479.3 
  L1697.25 1479.3 L1686.07 1479.3 L1674.89 1479.3 L1663.7 1479.3 L1652.52 1479.3 L1641.34 1479.3 L1630.16 1479.3 L1618.98 1479.3 L1607.8 1479.3 L1596.61 1479.3 
  L1585.43 1479.3 L1574.25 1479.3 L1563.07 1479.3 L1551.89 1479.3 L1540.71 1479.3 L1529.52 1479.3 L1518.34 1479.3 L1507.16 1479.3 L1495.98 1479.3 L1484.8 1479.3 
  L1473.61 1479.3 L1462.43 1479.3 L1451.25 1479.3 L1440.07 1479.3 L1428.89 1479.3 L1417.71 1479.3 L1406.52 1479.3 L1395.34 1479.3 L1384.16 1479.3 L1372.98 1479.3 
  L1361.8 1479.3 L1350.61 1479.3 L1339.43 1479.3 L1328.25 1479.3 L1317.07 1479.3 L1305.89 1479.3 L1294.71 1479.3 L1283.52 1479.3 L1272.34 1479.3 L1261.16 1479.3 
  L1249.98 1479.3 L1238.8 1479.3 L1227.62 1479.3 L1216.43 1479.3 L1205.25 1479.3 L1194.07 1479.3 L1182.89 1479.3 L1171.71 1479.3 L1160.52 1479.3 L1149.34 1479.3 
  L1138.16 1479.3 L1126.98 1479.3 L1115.8 1479.3 L1104.62 1479.3 L1093.43 1479.3 L1082.25 1479.3 L1071.07 1479.3 L1059.89 1479.3 L1048.71 1479.3 L1037.53 1479.3 
  L1026.34 1479.3 L1015.16 1479.3 L1003.98 1479.3 L992.798 1479.3 L981.617 1479.3 L970.435 1479.3 L959.253 1479.3 L948.071 1479.3 L936.89 1479.3 L925.708 1479.3 
  L914.526 1479.3 L903.344 1479.3 L892.162 1479.3 L880.981 1479.3 L869.799 1479.3 L858.617 1479.3 L847.435 1479.3 L836.254 1479.3 L825.072 1479.3 L813.89 1479.3 
  L802.708 1479.3 L791.527 1479.3 L780.345 1479.3 L769.163 1479.3 L757.981 1479.3 L746.799 1479.3 L735.618 1479.3 L724.436 1479.3 L713.254 1479.3 L702.072 1479.3 
   Z
  " fill="#008000" fill-rule="evenodd" fill-opacity="0.5"/>
<polyline clip-path="url(#clip962)" style="stroke:#008000; stroke-width:4; stroke-opacity:1; fill:none" points="
  702.072,1228.05 713.254,1212.88 724.436,1194.52 735.618,1172.72 746.799,1147.61 757.981,1119.7 769.163,1089.87 780.345,1059.26 791.527,1028.96 802.708,999.872 
  813.89,972.476 825.072,946.754 836.254,922.266 847.435,898.344 858.617,874.352 869.799,849.912 880.981,825.007 892.162,799.92 903.344,775.011 914.526,750.408 
  925.708,725.736 936.89,699.962 948.071,671.452 959.253,638.226 970.435,598.371 981.617,550.524 992.798,494.331 1003.98,430.791 1015.16,362.405 1026.34,293.04 
  1037.53,227.498 1048.71,170.786 1059.89,127.241 1071.07,99.6977 1082.25,88.9544 1093.43,93.7111 1104.62,111.009 1115.8,137.029 1126.98,167.977 1138.16,200.776 
  1149.34,233.384 1160.52,264.7 1171.71,294.204 1182.89,321.508 1194.07,346.009 1205.25,366.743 1216.43,382.444 1227.62,391.769 1238.8,393.592 1249.98,387.313 
  1261.16,373.125 1272.34,352.183 1283.52,326.631 1294.71,299.443 1305.89,274.052 1317.07,253.813 1328.25,241.388 1339.43,238.197 1350.61,244.088 1361.8,257.327 
  1372.98,274.943 1384.16,293.346 1395.34,309.091 1406.52,319.584 1417.71,323.579 1428.89,321.346 1440.07,314.489 1451.25,305.492 1462.43,297.127 1473.61,291.898 
  1484.8,291.63 1495.98,297.299 1507.16,309.059 1518.34,326.415 1529.52,348.433 1540.71,373.918 1551.89,401.528 1563.07,429.824 1574.25,457.309 1585.43,482.486 
  1596.61,503.999 1607.8,520.849 1618.98,532.669 1630.16,539.965 1641.34,544.243 1652.52,547.902 1663.7,553.866 1674.89,565.022 1686.07,583.584 1697.25,610.586 
  1708.43,645.654 1719.61,687.116 1730.8,732.425 1741.98,778.754 1753.16,823.607 1764.34,865.293 1775.52,903.162 1786.7,937.581 1797.89,969.683 1809.07,1000.96 
  
  "/>
<path clip-path="url(#clip962)" d="
M1809.07 1000.96 L1813.91 1014.62 L1818.76 1028.48 L1823.6 1042.62 L1828.44 1057.08 L1833.29 1071.87 L1838.13 1087 L1842.98 1102.41 L1847.82 1118.06 L1852.66 1133.87 
  L1857.51 1149.73 L1862.35 1165.53 L1867.2 1181.16 L1872.04 1196.5 L1876.88 1211.42 L1881.73 1225.83 L1886.57 1239.6 L1891.42 1252.66 L1896.26 1264.92 L1901.1 1276.34 
  L1905.95 1286.86 L1910.79 1296.48 L1915.64 1305.17 L1920.48 1312.94 L1925.33 1319.83 L1930.17 1325.86 L1935.01 1331.08 L1939.86 1335.54 L1944.7 1339.31 L1949.55 1342.44 
  L1954.39 1345.02 L1959.23 1347.11 L1964.08 1348.79 L1968.92 1350.13 L1973.77 1351.2 L1978.61 1352.08 L1983.45 1352.84 L1988.3 1353.54 L1993.14 1354.25 L1997.99 1355.01 
  L2002.83 1355.89 L2007.67 1356.92 L2012.52 1358.14 L2017.36 1359.59 L2022.21 1361.29 L2027.05 1363.25 L2031.89 1365.48 L2036.74 1367.97 L2041.58 1370.73 L2046.43 1373.73 
  L2051.27 1376.96 L2056.12 1380.39 L2060.96 1383.99 L2065.8 1387.71 L2070.65 1391.54 L2075.49 1395.42 L2080.34 1399.33 L2085.18 1403.22 L2090.02 1407.07 L2094.87 1410.84 
  L2099.71 1414.5 L2104.56 1418.05 L2109.4 1421.45 L2114.24 1424.71 L2119.09 1427.81 L2123.93 1430.76 L2128.78 1433.54 L2133.62 1436.18 L2138.46 1438.66 L2143.31 1441 
  L2148.15 1443.21 L2153 1445.29 L2157.84 1447.24 L2162.68 1449.08 L2167.53 1450.79 L2172.37 1452.38 L2177.22 1453.86 L2182.06 1455.21 L2186.91 1456.44 L2191.75 1457.54 
  L2196.59 1458.52 L2201.44 1459.37 L2206.28 1460.09 L2211.13 1460.68 L2215.97 1461.17 L2220.81 1461.55 L2225.66 1461.83 L2230.5 1462.04 L2235.35 1462.19 L2240.19 1462.29 
  L2245.03 1462.37 L2249.88 1462.45 L2254.72 1462.55 L2259.57 1462.68 L2264.41 1462.87 L2269.25 1463.12 L2274.1 1463.44 L2278.94 1463.84 L2283.79 1464.32 L2288.63 1464.89 
  L2288.63 1479.3 L2283.79 1479.3 L2278.94 1479.3 L2274.1 1479.3 L2269.25 1479.3 L2264.41 1479.3 L2259.57 1479.3 L2254.72 1479.3 L2249.88 1479.3 L2245.03 1479.3 
  L2240.19 1479.3 L2235.35 1479.3 L2230.5 1479.3 L2225.66 1479.3 L2220.81 1479.3 L2215.97 1479.3 L2211.13 1479.3 L2206.28 1479.3 L2201.44 1479.3 L2196.59 1479.3 
  L2191.75 1479.3 L2186.91 1479.3 L2182.06 1479.3 L2177.22 1479.3 L2172.37 1479.3 L2167.53 1479.3 L2162.68 1479.3 L2157.84 1479.3 L2153 1479.3 L2148.15 1479.3 
  L2143.31 1479.3 L2138.46 1479.3 L2133.62 1479.3 L2128.78 1479.3 L2123.93 1479.3 L2119.09 1479.3 L2114.24 1479.3 L2109.4 1479.3 L2104.56 1479.3 L2099.71 1479.3 
  L2094.87 1479.3 L2090.02 1479.3 L2085.18 1479.3 L2080.34 1479.3 L2075.49 1479.3 L2070.65 1479.3 L2065.8 1479.3 L2060.96 1479.3 L2056.12 1479.3 L2051.27 1479.3 
  L2046.43 1479.3 L2041.58 1479.3 L2036.74 1479.3 L2031.89 1479.3 L2027.05 1479.3 L2022.21 1479.3 L2017.36 1479.3 L2012.52 1479.3 L2007.67 1479.3 L2002.83 1479.3 
  L1997.99 1479.3 L1993.14 1479.3 L1988.3 1479.3 L1983.45 1479.3 L1978.61 1479.3 L1973.77 1479.3 L1968.92 1479.3 L1964.08 1479.3 L1959.23 1479.3 L1954.39 1479.3 
  L1949.55 1479.3 L1944.7 1479.3 L1939.86 1479.3 L1935.01 1479.3 L1930.17 1479.3 L1925.33 1479.3 L1920.48 1479.3 L1915.64 1479.3 L1910.79 1479.3 L1905.95 1479.3 
  L1901.1 1479.3 L1896.26 1479.3 L1891.42 1479.3 L1886.57 1479.3 L1881.73 1479.3 L1876.88 1479.3 L1872.04 1479.3 L1867.2 1479.3 L1862.35 1479.3 L1857.51 1479.3 
  L1852.66 1479.3 L1847.82 1479.3 L1842.98 1479.3 L1838.13 1479.3 L1833.29 1479.3 L1828.44 1479.3 L1823.6 1479.3 L1818.76 1479.3 L1813.91 1479.3 L1809.07 1479.3 
   Z
  " fill="#ffa500" fill-rule="evenodd" fill-opacity="0.5"/>
<polyline clip-path="url(#clip962)" style="stroke:#ffa500; stroke-width:4; stroke-opacity:1; fill:none" points="
  1809.07,1000.96 1813.91,1014.62 1818.76,1028.48 1823.6,1042.62 1828.44,1057.08 1833.29,1071.87 1838.13,1087 1842.98,1102.41 1847.82,1118.06 1852.66,1133.87 
  1857.51,1149.73 1862.35,1165.53 1867.2,1181.16 1872.04,1196.5 1876.88,1211.42 1881.73,1225.83 1886.57,1239.6 1891.42,1252.66 1896.26,1264.92 1901.1,1276.34 
  1905.95,1286.86 1910.79,1296.48 1915.64,1305.17 1920.48,1312.94 1925.33,1319.83 1930.17,1325.86 1935.01,1331.08 1939.86,1335.54 1944.7,1339.31 1949.55,1342.44 
  1954.39,1345.02 1959.23,1347.11 1964.08,1348.79 1968.92,1350.13 1973.77,1351.2 1978.61,1352.08 1983.45,1352.84 1988.3,1353.54 1993.14,1354.25 1997.99,1355.01 
  2002.83,1355.89 2007.67,1356.92 2012.52,1358.14 2017.36,1359.59 2022.21,1361.29 2027.05,1363.25 2031.89,1365.48 2036.74,1367.97 2041.58,1370.73 2046.43,1373.73 
  2051.27,1376.96 2056.12,1380.39 2060.96,1383.99 2065.8,1387.71 2070.65,1391.54 2075.49,1395.42 2080.34,1399.33 2085.18,1403.22 2090.02,1407.07 2094.87,1410.84 
  2099.71,1414.5 2104.56,1418.05 2109.4,1421.45 2114.24,1424.71 2119.09,1427.81 2123.93,1430.76 2128.78,1433.54 2133.62,1436.18 2138.46,1438.66 2143.31,1441 
  2148.15,1443.21 2153,1445.29 2157.84,1447.24 2162.68,1449.08 2167.53,1450.79 2172.37,1452.38 2177.22,1453.86 2182.06,1455.21 2186.91,1456.44 2191.75,1457.54 
  2196.59,1458.52 2201.44,1459.37 2206.28,1460.09 2211.13,1460.68 2215.97,1461.17 2220.81,1461.55 2225.66,1461.83 2230.5,1462.04 2235.35,1462.19 2240.19,1462.29 
  2245.03,1462.37 2249.88,1462.45 2254.72,1462.55 2259.57,1462.68 2264.41,1462.87 2269.25,1463.12 2274.1,1463.44 2278.94,1463.84 2283.79,1464.32 2288.63,1464.89 
  
  "/>
<polyline clip-path="url(#clip962)" style="stroke:#0000ff; stroke-width:4; stroke-opacity:1; fill:none" points="
  1281.03,1479.3 1281.03,332.592 
  "/>
<polyline clip-path="url(#clip962)" style="stroke:#000000; stroke-width:4; stroke-opacity:1; fill:none" points="
  1295.06,1479.3 1295.06,298.588 
  "/>
<path clip-path="url(#clip960)" d="
M1494.58 459.25 L2277.23 459.25 L2277.23 96.3696 L1494.58 96.3696  Z
  " fill="#ffffff" fill-rule="evenodd" fill-opacity="1"/>
<polyline clip-path="url(#clip960)" style="stroke:#000000; stroke-width:4; stroke-opacity:1; fill:none" points="
  1494.58,459.25 2277.23,459.25 2277.23,96.3696 1494.58,96.3696 1494.58,459.25 
  "/>
<path clip-path="url(#clip960)" d="
M1519.75 181.042 L1670.81 181.042 L1670.81 132.658 L1519.75 132.658 L1519.75 181.042  Z
  " fill="#ffa500" fill-rule="evenodd" fill-opacity="0.5"/>
<polyline clip-path="url(#clip960)" style="stroke:#ffa500; stroke-width:4; stroke-opacity:1; fill:none" points="
  1519.75,132.658 1670.81,132.658 
  "/>
<path clip-path="url(#clip960)" d="M 0 0 M1700.38 161.19 Q1700.38 165.889 1702.3 168.574 Q1704.24 171.236 1707.62 171.236 Q1711 171.236 1712.95 168.574 Q1714.89 165.889 1714.89 161.19 Q1714.89 156.491 1712.95 153.829 Q1711 151.144 1707.62 151.144 Q1704.24 151.144 1702.3 153.829 Q1700.38 156.491 1700.38 161.19 M1714.89 170.241 Q1713.55 172.555 1711.49 173.69 Q1709.45 174.801 1706.58 174.801 Q1701.88 174.801 1698.92 171.051 Q1695.98 167.301 1695.98 161.19 Q1695.98 155.079 1698.92 151.329 Q1701.88 147.579 1706.58 147.579 Q1709.45 147.579 1711.49 148.713 Q1713.55 149.824 1714.89 152.139 L1714.89 148.204 L1719.15 148.204 L1719.15 183.991 L1714.89 183.991 L1714.89 170.241 Z" fill="#000000" fill-rule="evenodd" fill-opacity="1" /><path clip-path="url(#clip960)" d="M 0 0 M1734.22 142.648 Q1730.61 142.648 1728.78 146.213 Q1726.98 149.755 1726.98 156.884 Q1726.98 163.991 1728.78 167.556 Q1730.61 171.097 1734.22 171.097 Q1737.85 171.097 1739.66 167.556 Q1741.49 163.991 1741.49 156.884 Q1741.49 149.755 1739.66 146.213 Q1737.85 142.648 1734.22 142.648 M1734.22 138.945 Q1740.03 138.945 1743.09 143.551 Q1746.17 148.134 1746.17 156.884 Q1746.17 165.611 1743.09 170.218 Q1740.03 174.801 1734.22 174.801 Q1728.41 174.801 1725.33 170.218 Q1722.28 165.611 1722.28 156.884 Q1722.28 148.134 1725.33 143.551 Q1728.41 138.945 1734.22 138.945 Z" fill="#000000" fill-rule="evenodd" fill-opacity="1" /><path clip-path="url(#clip960)" d="M 0 0 M1751.28 139.57 L1769.64 139.57 L1769.64 143.505 L1755.56 143.505 L1755.56 151.977 Q1756.58 151.63 1757.6 151.468 Q1758.62 151.282 1759.64 151.282 Q1765.42 151.282 1768.8 154.454 Q1772.18 157.625 1772.18 163.042 Q1772.18 168.62 1768.71 171.722 Q1765.24 174.801 1758.92 174.801 Q1756.74 174.801 1754.48 174.43 Q1752.23 174.06 1749.82 173.319 L1749.82 168.62 Q1751.91 169.755 1754.13 170.31 Q1756.35 170.866 1758.83 170.866 Q1762.83 170.866 1765.17 168.759 Q1767.51 166.653 1767.51 163.042 Q1767.51 159.431 1765.17 157.324 Q1762.83 155.218 1758.83 155.218 Q1756.95 155.218 1755.08 155.634 Q1753.23 156.051 1751.28 156.931 L1751.28 139.57 Z" fill="#000000" fill-rule="evenodd" fill-opacity="1" /><path clip-path="url(#clip960)" d="
M1519.75 241.522 L1670.81 241.522 L1670.81 193.138 L1519.75 193.138 L1519.75 241.522  Z
  " fill="#008000" fill-rule="evenodd" fill-opacity="0.5"/>
<polyline clip-path="url(#clip960)" style="stroke:#008000; stroke-width:4; stroke-opacity:1; fill:none" points="
  1519.75,193.138 1670.81,193.138 
  "/>
<path clip-path="url(#clip960)" d="M 0 0 M1698.2 233.892 L1698.2 229.633 Q1699.96 230.466 1701.77 230.906 Q1703.57 231.346 1705.31 231.346 Q1709.94 231.346 1712.37 228.244 Q1714.82 225.119 1715.17 218.776 Q1713.83 220.767 1711.77 221.832 Q1709.71 222.897 1707.21 222.897 Q1702.02 222.897 1698.99 219.772 Q1695.98 216.624 1695.98 211.184 Q1695.98 205.86 1699.13 202.642 Q1702.28 199.425 1707.51 199.425 Q1713.5 199.425 1716.65 204.031 Q1719.82 208.614 1719.82 217.364 Q1719.82 225.536 1715.93 230.42 Q1712.07 235.281 1705.52 235.281 Q1703.76 235.281 1701.95 234.934 Q1700.15 234.586 1698.2 233.892 M1707.51 219.239 Q1710.66 219.239 1712.48 217.086 Q1714.34 214.934 1714.34 211.184 Q1714.34 207.457 1712.48 205.304 Q1710.66 203.128 1707.51 203.128 Q1704.36 203.128 1702.51 205.304 Q1700.68 207.457 1700.68 211.184 Q1700.68 214.934 1702.51 217.086 Q1704.36 219.239 1707.51 219.239 Z" fill="#000000" fill-rule="evenodd" fill-opacity="1" /><path clip-path="url(#clip960)" d="M 0 0 M1734.89 203.128 Q1731.28 203.128 1729.45 206.693 Q1727.65 210.235 1727.65 217.364 Q1727.65 224.471 1729.45 228.036 Q1731.28 231.577 1734.89 231.577 Q1738.53 231.577 1740.33 228.036 Q1742.16 224.471 1742.16 217.364 Q1742.16 210.235 1740.33 206.693 Q1738.53 203.128 1734.89 203.128 M1734.89 199.425 Q1740.7 199.425 1743.76 204.031 Q1746.84 208.614 1746.84 217.364 Q1746.84 226.091 1743.76 230.698 Q1740.7 235.281 1734.89 235.281 Q1729.08 235.281 1726 230.698 Q1722.95 226.091 1722.95 217.364 Q1722.95 208.614 1726 204.031 Q1729.08 199.425 1734.89 199.425 Z" fill="#000000" fill-rule="evenodd" fill-opacity="1" /><path clip-path="url(#clip960)" d="M 0 0 M1781.3 219.401 Q1779.29 219.401 1778.13 221.114 Q1777 222.827 1777 225.883 Q1777 228.892 1778.13 230.628 Q1779.29 232.341 1781.3 232.341 Q1783.27 232.341 1784.41 230.628 Q1785.56 228.892 1785.56 225.883 Q1785.56 222.85 1784.41 221.137 Q1783.27 219.401 1781.3 219.401 M1781.3 216.462 Q1784.96 216.462 1787.11 219.008 Q1789.27 221.554 1789.27 225.883 Q1789.27 230.211 1787.09 232.758 Q1784.94 235.281 1781.3 235.281 Q1777.6 235.281 1775.45 232.758 Q1773.29 230.211 1773.29 225.883 Q1773.29 221.531 1775.45 219.008 Q1777.62 216.462 1781.3 216.462 M1757.42 202.364 Q1755.42 202.364 1754.27 204.1 Q1753.13 205.813 1753.13 208.823 Q1753.13 211.878 1754.27 213.591 Q1755.4 215.304 1757.42 215.304 Q1759.43 215.304 1760.56 213.591 Q1761.72 211.878 1761.72 208.823 Q1761.72 205.837 1760.56 204.1 Q1759.41 202.364 1757.42 202.364 M1778.32 199.425 L1782.02 199.425 L1760.4 235.281 L1756.7 235.281 L1778.32 199.425 M1757.42 199.425 Q1761.07 199.425 1763.25 201.971 Q1765.42 204.494 1765.42 208.823 Q1765.42 213.198 1763.25 215.721 Q1761.1 218.244 1757.42 218.244 Q1753.73 218.244 1751.58 215.721 Q1749.45 213.174 1749.45 208.823 Q1749.45 204.517 1751.6 201.971 Q1753.76 199.425 1757.42 199.425 Z" fill="#000000" fill-rule="evenodd" fill-opacity="1" /><path clip-path="url(#clip960)" d="M 0 0 M1830.35 218.961 L1830.35 234.61 L1826.1 234.61 L1826.1 219.1 Q1826.1 215.42 1824.66 213.591 Q1823.22 211.762 1820.35 211.762 Q1816.91 211.762 1814.91 213.962 Q1812.92 216.161 1812.92 219.957 L1812.92 234.61 L1808.64 234.61 L1808.64 208.684 L1812.92 208.684 L1812.92 212.712 Q1814.45 210.374 1816.51 209.216 Q1818.6 208.059 1821.3 208.059 Q1825.77 208.059 1828.06 210.837 Q1830.35 213.591 1830.35 218.961 Z" fill="#000000" fill-rule="evenodd" fill-opacity="1" /><path clip-path="url(#clip960)" d="M 0 0 M1844.87 211.67 Q1841.44 211.67 1839.45 214.355 Q1837.46 217.017 1837.46 221.67 Q1837.46 226.323 1839.43 229.008 Q1841.42 231.67 1844.87 231.67 Q1848.27 231.67 1850.26 228.985 Q1852.25 226.299 1852.25 221.67 Q1852.25 217.063 1850.26 214.378 Q1848.27 211.67 1844.87 211.67 M1844.87 208.059 Q1850.42 208.059 1853.6 211.67 Q1856.77 215.281 1856.77 221.67 Q1856.77 228.036 1853.6 231.67 Q1850.42 235.281 1844.87 235.281 Q1839.29 235.281 1836.12 231.67 Q1832.97 228.036 1832.97 221.67 Q1832.97 215.281 1836.12 211.67 Q1839.29 208.059 1844.87 208.059 Z" fill="#000000" fill-rule="evenodd" fill-opacity="1" /><path clip-path="url(#clip960)" d="M 0 0 M1882.78 218.961 L1882.78 234.61 L1878.53 234.61 L1878.53 219.1 Q1878.53 215.42 1877.09 213.591 Q1875.66 211.762 1872.78 211.762 Q1869.34 211.762 1867.35 213.962 Q1865.35 216.161 1865.35 219.957 L1865.35 234.61 L1861.07 234.61 L1861.07 208.684 L1865.35 208.684 L1865.35 212.712 Q1866.88 210.374 1868.94 209.216 Q1871.03 208.059 1873.73 208.059 Q1878.2 208.059 1880.49 210.837 Q1882.78 213.591 1882.78 218.961 Z" fill="#000000" fill-rule="evenodd" fill-opacity="1" /><path clip-path="url(#clip960)" d="M 0 0 M1885.1 219.725 L1897.58 219.725 L1897.58 223.522 L1885.1 223.522 L1885.1 219.725 Z" fill="#000000" fill-rule="evenodd" fill-opacity="1" /><path clip-path="url(#clip960)" d="M 0 0 M1917.07 212.665 Q1916.35 212.249 1915.49 212.063 Q1914.66 211.855 1913.64 211.855 Q1910.03 211.855 1908.09 214.216 Q1906.16 216.554 1906.16 220.952 L1906.16 234.61 L1901.88 234.61 L1901.88 208.684 L1906.16 208.684 L1906.16 212.712 Q1907.51 210.35 1909.66 209.216 Q1911.81 208.059 1914.89 208.059 Q1915.33 208.059 1915.86 208.128 Q1916.4 208.175 1917.04 208.29 L1917.07 212.665 Z" fill="#000000" fill-rule="evenodd" fill-opacity="1" /><path clip-path="url(#clip960)" d="M 0 0 M1942.67 220.582 L1942.67 222.665 L1923.09 222.665 Q1923.36 227.063 1925.72 229.378 Q1928.11 231.67 1932.34 231.67 Q1934.8 231.67 1937.09 231.068 Q1939.4 230.466 1941.67 229.262 L1941.67 233.29 Q1939.38 234.262 1936.97 234.772 Q1934.57 235.281 1932.09 235.281 Q1925.89 235.281 1922.25 231.67 Q1918.64 228.059 1918.64 221.901 Q1918.64 215.536 1922.07 211.809 Q1925.52 208.059 1931.35 208.059 Q1936.58 208.059 1939.61 211.438 Q1942.67 214.795 1942.67 220.582 M1938.41 219.332 Q1938.36 215.837 1936.44 213.753 Q1934.54 211.67 1931.4 211.67 Q1927.83 211.67 1925.68 213.684 Q1923.55 215.698 1923.22 219.355 L1938.41 219.332 Z" fill="#000000" fill-rule="evenodd" fill-opacity="1" /><path clip-path="url(#clip960)" d="M 0 0 M1947.14 208.684 L1951.4 208.684 L1951.4 235.073 Q1951.4 240.026 1949.5 242.248 Q1947.62 244.471 1943.43 244.471 L1941.81 244.471 L1941.81 240.86 L1942.95 240.86 Q1945.38 240.86 1946.26 239.725 Q1947.14 238.614 1947.14 235.073 L1947.14 208.684 M1947.14 198.591 L1951.4 198.591 L1951.4 203.985 L1947.14 203.985 L1947.14 198.591 Z" fill="#000000" fill-rule="evenodd" fill-opacity="1" /><path clip-path="url(#clip960)" d="M 0 0 M1978.04 220.582 L1978.04 222.665 L1958.46 222.665 Q1958.73 227.063 1961.09 229.378 Q1963.48 231.67 1967.71 231.67 Q1970.17 231.67 1972.46 231.068 Q1974.78 230.466 1977.04 229.262 L1977.04 233.29 Q1974.75 234.262 1972.34 234.772 Q1969.94 235.281 1967.46 235.281 Q1961.26 235.281 1957.62 231.67 Q1954.01 228.059 1954.01 221.901 Q1954.01 215.536 1957.44 211.809 Q1960.89 208.059 1966.72 208.059 Q1971.95 208.059 1974.98 211.438 Q1978.04 214.795 1978.04 220.582 M1973.78 219.332 Q1973.73 215.837 1971.81 213.753 Q1969.91 211.67 1966.77 211.67 Q1963.2 211.67 1961.05 213.684 Q1958.92 215.698 1958.59 219.355 L1973.78 219.332 Z" fill="#000000" fill-rule="evenodd" fill-opacity="1" /><path clip-path="url(#clip960)" d="M 0 0 M2001.16 209.679 L2001.16 213.661 Q1999.36 212.665 1997.53 212.179 Q1995.72 211.67 1993.87 211.67 Q1989.73 211.67 1987.44 214.309 Q1985.15 216.924 1985.15 221.67 Q1985.15 226.415 1987.44 229.054 Q1989.73 231.67 1993.87 231.67 Q1995.72 231.67 1997.53 231.184 Q1999.36 230.674 2001.16 229.679 L2001.16 233.614 Q1999.38 234.448 1997.46 234.864 Q1995.56 235.281 1993.41 235.281 Q1987.55 235.281 1984.1 231.6 Q1980.65 227.92 1980.65 221.67 Q1980.65 215.327 1984.13 211.693 Q1987.62 208.059 1993.69 208.059 Q1995.65 208.059 1997.53 208.475 Q1999.4 208.869 2001.16 209.679 Z" fill="#000000" fill-rule="evenodd" fill-opacity="1" /><path clip-path="url(#clip960)" d="M 0 0 M2009.84 201.323 L2009.84 208.684 L2018.62 208.684 L2018.62 211.994 L2009.84 211.994 L2009.84 226.068 Q2009.84 229.239 2010.7 230.142 Q2011.58 231.045 2014.24 231.045 L2018.62 231.045 L2018.62 234.61 L2014.24 234.61 Q2009.31 234.61 2007.44 232.781 Q2005.56 230.929 2005.56 226.068 L2005.56 211.994 L2002.44 211.994 L2002.44 208.684 L2005.56 208.684 L2005.56 201.323 L2009.84 201.323 Z" fill="#000000" fill-rule="evenodd" fill-opacity="1" /><path clip-path="url(#clip960)" d="M 0 0 M2023.08 208.684 L2027.34 208.684 L2027.34 234.61 L2023.08 234.61 L2023.08 208.684 M2023.08 198.591 L2027.34 198.591 L2027.34 203.985 L2023.08 203.985 L2023.08 198.591 Z" fill="#000000" fill-rule="evenodd" fill-opacity="1" /><path clip-path="url(#clip960)" d="M 0 0 M2041.86 211.67 Q2038.43 211.67 2036.44 214.355 Q2034.45 217.017 2034.45 221.67 Q2034.45 226.323 2036.42 229.008 Q2038.41 231.67 2041.86 231.67 Q2045.26 231.67 2047.25 228.985 Q2049.24 226.299 2049.24 221.67 Q2049.24 217.063 2047.25 214.378 Q2045.26 211.67 2041.86 211.67 M2041.86 208.059 Q2047.41 208.059 2050.58 211.67 Q2053.76 215.281 2053.76 221.67 Q2053.76 228.036 2050.58 231.67 Q2047.41 235.281 2041.86 235.281 Q2036.28 235.281 2033.11 231.67 Q2029.96 228.036 2029.96 221.67 Q2029.96 215.281 2033.11 211.67 Q2036.28 208.059 2041.86 208.059 Z" fill="#000000" fill-rule="evenodd" fill-opacity="1" /><path clip-path="url(#clip960)" d="M 0 0 M2079.77 218.961 L2079.77 234.61 L2075.52 234.61 L2075.52 219.1 Q2075.52 215.42 2074.08 213.591 Q2072.64 211.762 2069.77 211.762 Q2066.33 211.762 2064.33 213.962 Q2062.34 216.161 2062.34 219.957 L2062.34 234.61 L2058.06 234.61 L2058.06 208.684 L2062.34 208.684 L2062.34 212.712 Q2063.87 210.374 2065.93 209.216 Q2068.02 208.059 2070.72 208.059 Q2075.19 208.059 2077.48 210.837 Q2079.77 213.591 2079.77 218.961 Z" fill="#000000" fill-rule="evenodd" fill-opacity="1" /><path clip-path="url(#clip960)" d="M 0 0 M2114.33 212.665 Q2113.62 212.249 2112.76 212.063 Q2111.93 211.855 2110.91 211.855 Q2107.3 211.855 2105.35 214.216 Q2103.43 216.554 2103.43 220.952 L2103.43 234.61 L2099.15 234.61 L2099.15 208.684 L2103.43 208.684 L2103.43 212.712 Q2104.77 210.35 2106.93 209.216 Q2109.08 208.059 2112.16 208.059 Q2112.6 208.059 2113.13 208.128 Q2113.66 208.175 2114.31 208.29 L2114.33 212.665 Z" fill="#000000" fill-rule="evenodd" fill-opacity="1" /><path clip-path="url(#clip960)" d="M 0 0 M2139.94 220.582 L2139.94 222.665 L2120.35 222.665 Q2120.63 227.063 2122.99 229.378 Q2125.38 231.67 2129.61 231.67 Q2132.07 231.67 2134.36 231.068 Q2136.67 230.466 2138.94 229.262 L2138.94 233.29 Q2136.65 234.262 2134.24 234.772 Q2131.83 235.281 2129.36 235.281 Q2123.15 235.281 2119.52 231.67 Q2115.91 228.059 2115.91 221.901 Q2115.91 215.536 2119.33 211.809 Q2122.78 208.059 2128.62 208.059 Q2133.85 208.059 2136.88 211.438 Q2139.94 214.795 2139.94 220.582 M2135.68 219.332 Q2135.63 215.837 2133.71 213.753 Q2131.81 211.67 2128.66 211.67 Q2125.1 211.67 2122.95 213.684 Q2120.82 215.698 2120.49 219.355 L2135.68 219.332 Z" fill="#000000" fill-rule="evenodd" fill-opacity="1" /><path clip-path="url(#clip960)" d="M 0 0 M2161.46 221.346 Q2161.46 216.716 2159.54 214.17 Q2157.64 211.624 2154.2 211.624 Q2150.77 211.624 2148.85 214.17 Q2146.95 216.716 2146.95 221.346 Q2146.95 225.952 2148.85 228.498 Q2150.77 231.045 2154.2 231.045 Q2157.64 231.045 2159.54 228.498 Q2161.46 225.952 2161.46 221.346 M2165.72 231.392 Q2165.72 238.012 2162.78 241.23 Q2159.84 244.471 2153.78 244.471 Q2151.53 244.471 2149.54 244.123 Q2147.55 243.799 2145.68 243.105 L2145.68 238.961 Q2147.55 239.98 2149.38 240.466 Q2151.21 240.952 2153.11 240.952 Q2157.3 240.952 2159.38 238.753 Q2161.46 236.577 2161.46 232.156 L2161.46 230.049 Q2160.14 232.341 2158.08 233.475 Q2156.02 234.61 2153.15 234.61 Q2148.39 234.61 2145.47 230.975 Q2142.55 227.341 2142.55 221.346 Q2142.55 215.327 2145.47 211.693 Q2148.39 208.059 2153.15 208.059 Q2156.02 208.059 2158.08 209.193 Q2160.14 210.327 2161.46 212.619 L2161.46 208.684 L2165.72 208.684 L2165.72 231.392 Z" fill="#000000" fill-rule="evenodd" fill-opacity="1" /><path clip-path="url(#clip960)" d="M 0 0 M2170.19 208.684 L2174.45 208.684 L2174.45 234.61 L2170.19 234.61 L2170.19 208.684 M2170.19 198.591 L2174.45 198.591 L2174.45 203.985 L2170.19 203.985 L2170.19 198.591 Z" fill="#000000" fill-rule="evenodd" fill-opacity="1" /><path clip-path="url(#clip960)" d="M 0 0 M2188.96 211.67 Q2185.54 211.67 2183.55 214.355 Q2181.56 217.017 2181.56 221.67 Q2181.56 226.323 2183.52 229.008 Q2185.51 231.67 2188.96 231.67 Q2192.37 231.67 2194.36 228.985 Q2196.35 226.299 2196.35 221.67 Q2196.35 217.063 2194.36 214.378 Q2192.37 211.67 2188.96 211.67 M2188.96 208.059 Q2194.52 208.059 2197.69 211.67 Q2200.86 215.281 2200.86 221.67 Q2200.86 228.036 2197.69 231.67 Q2194.52 235.281 2188.96 235.281 Q2183.39 235.281 2180.21 231.67 Q2177.07 228.036 2177.07 221.67 Q2177.07 215.281 2180.21 211.67 Q2183.39 208.059 2188.96 208.059 Z" fill="#000000" fill-rule="evenodd" fill-opacity="1" /><path clip-path="url(#clip960)" d="M 0 0 M2226.88 218.961 L2226.88 234.61 L2222.62 234.61 L2222.62 219.1 Q2222.62 215.42 2221.19 213.591 Q2219.75 211.762 2216.88 211.762 Q2213.43 211.762 2211.44 213.962 Q2209.45 216.161 2209.45 219.957 L2209.45 234.61 L2205.17 234.61 L2205.17 208.684 L2209.45 208.684 L2209.45 212.712 Q2210.98 210.374 2213.04 209.216 Q2215.12 208.059 2217.83 208.059 Q2222.3 208.059 2224.59 210.837 Q2226.88 213.591 2226.88 218.961 Z" fill="#000000" fill-rule="evenodd" fill-opacity="1" /><path clip-path="url(#clip960)" d="
M1519.75 302.002 L1670.81 302.002 L1670.81 253.618 L1519.75 253.618 L1519.75 302.002  Z
  " fill="#ffa500" fill-rule="evenodd" fill-opacity="0.5"/>
<polyline clip-path="url(#clip960)" style="stroke:#ffa500; stroke-width:4; stroke-opacity:1; fill:none" points="
  1519.75,253.618 1670.81,253.618 
  "/>
<path clip-path="url(#clip960)" d="M 0 0 M1700.38 282.15 Q1700.38 286.849 1702.3 289.534 Q1704.24 292.196 1707.62 292.196 Q1711 292.196 1712.95 289.534 Q1714.89 286.849 1714.89 282.15 Q1714.89 277.451 1712.95 274.789 Q1711 272.104 1707.62 272.104 Q1704.24 272.104 1702.3 274.789 Q1700.38 277.451 1700.38 282.15 M1714.89 291.201 Q1713.55 293.515 1711.49 294.65 Q1709.45 295.761 1706.58 295.761 Q1701.88 295.761 1698.92 292.011 Q1695.98 288.261 1695.98 282.15 Q1695.98 276.039 1698.92 272.289 Q1701.88 268.539 1706.58 268.539 Q1709.45 268.539 1711.49 269.673 Q1713.55 270.784 1714.89 273.099 L1714.89 269.164 L1719.15 269.164 L1719.15 304.951 L1714.89 304.951 L1714.89 291.201 Z" fill="#000000" fill-rule="evenodd" fill-opacity="1" /><path clip-path="url(#clip960)" d="M 0 0 M1724.36 294.372 L1724.36 290.113 Q1726.12 290.946 1727.92 291.386 Q1729.73 291.826 1731.47 291.826 Q1736.1 291.826 1738.53 288.724 Q1740.98 285.599 1741.33 279.256 Q1739.98 281.247 1737.92 282.312 Q1735.86 283.377 1733.36 283.377 Q1728.18 283.377 1725.15 280.252 Q1722.14 277.104 1722.14 271.664 Q1722.14 266.34 1725.29 263.122 Q1728.43 259.905 1733.67 259.905 Q1739.66 259.905 1742.81 264.511 Q1745.98 269.094 1745.98 277.844 Q1745.98 286.016 1742.09 290.9 Q1738.23 295.761 1731.67 295.761 Q1729.92 295.761 1728.11 295.414 Q1726.3 295.066 1724.36 294.372 M1733.67 279.719 Q1736.81 279.719 1738.64 277.566 Q1740.49 275.414 1740.49 271.664 Q1740.49 267.937 1738.64 265.784 Q1736.81 263.608 1733.67 263.608 Q1730.52 263.608 1728.67 265.784 Q1726.84 267.937 1726.84 271.664 Q1726.84 275.414 1728.67 277.566 Q1730.52 279.719 1733.67 279.719 Z" fill="#000000" fill-rule="evenodd" fill-opacity="1" /><path clip-path="url(#clip960)" d="M 0 0 M1751.1 260.53 L1769.45 260.53 L1769.45 264.465 L1755.38 264.465 L1755.38 272.937 Q1756.4 272.59 1757.42 272.428 Q1758.43 272.242 1759.45 272.242 Q1765.24 272.242 1768.62 275.414 Q1772 278.585 1772 284.002 Q1772 289.58 1768.53 292.682 Q1765.05 295.761 1758.73 295.761 Q1756.56 295.761 1754.29 295.39 Q1752.04 295.02 1749.64 294.279 L1749.64 289.58 Q1751.72 290.715 1753.94 291.27 Q1756.17 291.826 1758.64 291.826 Q1762.65 291.826 1764.98 289.719 Q1767.32 287.613 1767.32 284.002 Q1767.32 280.391 1764.98 278.284 Q1762.65 276.178 1758.64 276.178 Q1756.77 276.178 1754.89 276.594 Q1753.04 277.011 1751.1 277.891 L1751.1 260.53 Z" fill="#000000" fill-rule="evenodd" fill-opacity="1" /><polyline clip-path="url(#clip960)" style="stroke:#0000ff; stroke-width:4; stroke-opacity:1; fill:none" points="
  1519.75,338.29 1670.81,338.29 
  "/>
<path clip-path="url(#clip960)" d="M 0 0 M1716.33 334.621 Q1717.92 331.75 1720.15 330.385 Q1722.37 329.019 1725.38 329.019 Q1729.43 329.019 1731.63 331.866 Q1733.83 334.69 1733.83 339.921 L1733.83 355.57 L1729.54 355.57 L1729.54 340.06 Q1729.54 336.334 1728.23 334.528 Q1726.91 332.722 1724.2 332.722 Q1720.89 332.722 1718.97 334.922 Q1717.04 337.121 1717.04 340.917 L1717.04 355.57 L1712.76 355.57 L1712.76 340.06 Q1712.76 336.31 1711.44 334.528 Q1710.12 332.722 1707.37 332.722 Q1704.11 332.722 1702.18 334.945 Q1700.26 337.144 1700.26 340.917 L1700.26 355.57 L1695.98 355.57 L1695.98 329.644 L1700.26 329.644 L1700.26 333.672 Q1701.72 331.287 1703.76 330.153 Q1705.79 329.019 1708.6 329.019 Q1711.42 329.019 1713.39 330.454 Q1715.38 331.889 1716.33 334.621 Z" fill="#000000" fill-rule="evenodd" fill-opacity="1" /><path clip-path="url(#clip960)" d="M 0 0 M1760.47 341.542 L1760.47 343.625 L1740.89 343.625 Q1741.17 348.023 1743.53 350.338 Q1745.91 352.63 1750.15 352.63 Q1752.6 352.63 1754.89 352.028 Q1757.21 351.426 1759.48 350.222 L1759.48 354.25 Q1757.18 355.222 1754.78 355.732 Q1752.37 356.241 1749.89 356.241 Q1743.69 356.241 1740.05 352.63 Q1736.44 349.019 1736.44 342.861 Q1736.44 336.496 1739.87 332.769 Q1743.32 329.019 1749.15 329.019 Q1754.38 329.019 1757.42 332.398 Q1760.47 335.755 1760.47 341.542 M1756.21 340.292 Q1756.17 336.797 1754.24 334.713 Q1752.35 332.63 1749.2 332.63 Q1745.63 332.63 1743.48 334.644 Q1741.35 336.658 1741.03 340.315 L1756.21 340.292 Z" fill="#000000" fill-rule="evenodd" fill-opacity="1" /><path clip-path="url(#clip960)" d="M 0 0 M1776.72 342.537 Q1771.56 342.537 1769.57 343.718 Q1767.58 344.898 1767.58 347.746 Q1767.58 350.014 1769.06 351.357 Q1770.56 352.676 1773.13 352.676 Q1776.67 352.676 1778.8 350.176 Q1780.96 347.653 1780.96 343.486 L1780.96 342.537 L1776.72 342.537 M1785.22 340.778 L1785.22 355.57 L1780.96 355.57 L1780.96 351.634 Q1779.5 353.995 1777.32 355.13 Q1775.15 356.241 1772 356.241 Q1768.02 356.241 1765.66 354.019 Q1763.32 351.773 1763.32 348.023 Q1763.32 343.648 1766.23 341.426 Q1769.17 339.204 1774.98 339.204 L1780.96 339.204 L1780.96 338.787 Q1780.96 335.847 1779.01 334.25 Q1777.09 332.63 1773.6 332.63 Q1771.37 332.63 1769.27 333.162 Q1767.16 333.695 1765.22 334.759 L1765.22 330.824 Q1767.55 329.922 1769.75 329.482 Q1771.95 329.019 1774.04 329.019 Q1779.66 329.019 1782.44 331.935 Q1785.22 334.852 1785.22 340.778 Z" fill="#000000" fill-rule="evenodd" fill-opacity="1" /><path clip-path="url(#clip960)" d="M 0 0 M1811.23 339.921 L1811.23 355.57 L1806.97 355.57 L1806.97 340.06 Q1806.97 336.38 1805.54 334.551 Q1804.1 332.722 1801.23 332.722 Q1797.79 332.722 1795.79 334.922 Q1793.8 337.121 1793.8 340.917 L1793.8 355.57 L1789.52 355.57 L1789.52 329.644 L1793.8 329.644 L1793.8 333.672 Q1795.33 331.334 1797.39 330.176 Q1799.48 329.019 1802.18 329.019 Q1806.65 329.019 1808.94 331.797 Q1811.23 334.551 1811.23 339.921 Z" fill="#000000" fill-rule="evenodd" fill-opacity="1" /><polyline clip-path="url(#clip960)" style="stroke:#000000; stroke-width:4; stroke-opacity:1; fill:none" points="
  1519.75,398.77 1670.81,398.77 
  "/>
<path clip-path="url(#clip960)" d="M 0 0 M1716.33 395.101 Q1717.92 392.23 1720.15 390.865 Q1722.37 389.499 1725.38 389.499 Q1729.43 389.499 1731.63 392.346 Q1733.83 395.17 1733.83 400.401 L1733.83 416.05 L1729.54 416.05 L1729.54 400.54 Q1729.54 396.814 1728.23 395.008 Q1726.91 393.202 1724.2 393.202 Q1720.89 393.202 1718.97 395.402 Q1717.04 397.601 1717.04 401.397 L1717.04 416.05 L1712.76 416.05 L1712.76 400.54 Q1712.76 396.79 1711.44 395.008 Q1710.12 393.202 1707.37 393.202 Q1704.11 393.202 1702.18 395.425 Q1700.26 397.624 1700.26 401.397 L1700.26 416.05 L1695.98 416.05 L1695.98 390.124 L1700.26 390.124 L1700.26 394.152 Q1701.72 391.767 1703.76 390.633 Q1705.79 389.499 1708.6 389.499 Q1711.42 389.499 1713.39 390.934 Q1715.38 392.369 1716.33 395.101 Z" fill="#000000" fill-rule="evenodd" fill-opacity="1" /><path clip-path="url(#clip960)" d="M 0 0 M1760.47 402.022 L1760.47 404.105 L1740.89 404.105 Q1741.17 408.503 1743.53 410.818 Q1745.91 413.11 1750.15 413.11 Q1752.6 413.11 1754.89 412.508 Q1757.21 411.906 1759.48 410.702 L1759.48 414.73 Q1757.18 415.702 1754.78 416.212 Q1752.37 416.721 1749.89 416.721 Q1743.69 416.721 1740.05 413.11 Q1736.44 409.499 1736.44 403.341 Q1736.44 396.976 1739.87 393.249 Q1743.32 389.499 1749.15 389.499 Q1754.38 389.499 1757.42 392.878 Q1760.47 396.235 1760.47 402.022 M1756.21 400.772 Q1756.17 397.277 1754.24 395.193 Q1752.35 393.11 1749.2 393.11 Q1745.63 393.11 1743.48 395.124 Q1741.35 397.138 1741.03 400.795 L1756.21 400.772 Z" fill="#000000" fill-rule="evenodd" fill-opacity="1" /><path clip-path="url(#clip960)" d="M 0 0 M1782 394.059 L1782 380.031 L1786.26 380.031 L1786.26 416.05 L1782 416.05 L1782 412.161 Q1780.66 414.475 1778.6 415.61 Q1776.56 416.721 1773.69 416.721 Q1768.99 416.721 1766.03 412.971 Q1763.09 409.221 1763.09 403.11 Q1763.09 396.999 1766.03 393.249 Q1768.99 389.499 1773.69 389.499 Q1776.56 389.499 1778.6 390.633 Q1780.66 391.744 1782 394.059 M1767.48 403.11 Q1767.48 407.809 1769.41 410.494 Q1771.35 413.156 1774.73 413.156 Q1778.11 413.156 1780.05 410.494 Q1782 407.809 1782 403.11 Q1782 398.411 1780.05 395.749 Q1778.11 393.064 1774.73 393.064 Q1771.35 393.064 1769.41 395.749 Q1767.48 398.411 1767.48 403.11 Z" fill="#000000" fill-rule="evenodd" fill-opacity="1" /><path clip-path="url(#clip960)" d="M 0 0 M1790.73 390.124 L1794.98 390.124 L1794.98 416.05 L1790.73 416.05 L1790.73 390.124 M1790.73 380.031 L1794.98 380.031 L1794.98 385.425 L1790.73 385.425 L1790.73 380.031 Z" fill="#000000" fill-rule="evenodd" fill-opacity="1" /><path clip-path="url(#clip960)" d="M 0 0 M1811.23 403.017 Q1806.07 403.017 1804.08 404.198 Q1802.09 405.378 1802.09 408.226 Q1802.09 410.494 1803.57 411.837 Q1805.08 413.156 1807.65 413.156 Q1811.19 413.156 1813.32 410.656 Q1815.47 408.133 1815.47 403.966 L1815.47 403.017 L1811.23 403.017 M1819.73 401.258 L1819.73 416.05 L1815.47 416.05 L1815.47 412.114 Q1814.01 414.475 1811.84 415.61 Q1809.66 416.721 1806.51 416.721 Q1802.53 416.721 1800.17 414.499 Q1797.83 412.253 1797.83 408.503 Q1797.83 404.128 1800.75 401.906 Q1803.69 399.684 1809.5 399.684 L1815.47 399.684 L1815.47 399.267 Q1815.47 396.327 1813.53 394.73 Q1811.6 393.11 1808.11 393.11 Q1805.89 393.11 1803.78 393.642 Q1801.67 394.175 1799.73 395.239 L1799.73 391.304 Q1802.07 390.402 1804.27 389.962 Q1806.47 389.499 1808.55 389.499 Q1814.17 389.499 1816.95 392.415 Q1819.73 395.332 1819.73 401.258 Z" fill="#000000" fill-rule="evenodd" fill-opacity="1" /><path clip-path="url(#clip960)" d="M 0 0 M1845.75 400.401 L1845.75 416.05 L1841.49 416.05 L1841.49 400.54 Q1841.49 396.86 1840.05 395.031 Q1838.62 393.202 1835.75 393.202 Q1832.3 393.202 1830.31 395.402 Q1828.32 397.601 1828.32 401.397 L1828.32 416.05 L1824.04 416.05 L1824.04 390.124 L1828.32 390.124 L1828.32 394.152 Q1829.85 391.814 1831.91 390.656 Q1833.99 389.499 1836.7 389.499 Q1841.16 389.499 1843.46 392.277 Q1845.75 395.031 1845.75 400.401 Z" fill="#000000" fill-rule="evenodd" fill-opacity="1" /></svg>
