<?xml version="1.0" encoding="utf-8"?>
<svg xmlns="http://www.w3.org/2000/svg" xmlns:xlink="http://www.w3.org/1999/xlink" width="600" height="400" viewBox="0 0 2400 1600">
<defs>
  <clipPath id="clip190">
    <rect x="0" y="0" width="2400" height="1600"/>
  </clipPath>
</defs>
<path clip-path="url(#clip190)" d="
M0 1600 L2400 1600 L2400 0 L0 0  Z
  " fill="#ffffff" fill-rule="evenodd" fill-opacity="1"/>
<defs>
  <clipPath id="clip191">
    <rect x="480" y="0" width="1681" height="1600"/>
  </clipPath>
</defs>
<path clip-path="url(#clip190)" d="
M112.177 1486.45 L2352.76 1486.45 L2352.76 47.2441 L112.177 47.2441  Z
  " fill="#ffffff" fill-rule="evenodd" fill-opacity="1"/>
<defs>
  <clipPath id="clip192">
    <rect x="112" y="47" width="2242" height="1440"/>
  </clipPath>
</defs>
<polyline clip-path="url(#clip192)" style="stroke:#000000; stroke-width:2; stroke-opacity:0.1; fill:none" points="
  420.452,1486.45 420.452,47.2441 
  "/>
<polyline clip-path="url(#clip192)" style="stroke:#000000; stroke-width:2; stroke-opacity:0.1; fill:none" points="
  937.465,1486.45 937.465,47.2441 
  "/>
<polyline clip-path="url(#clip192)" style="stroke:#000000; stroke-width:2; stroke-opacity:0.1; fill:none" points="
  1454.48,1486.45 1454.48,47.2441 
  "/>
<polyline clip-path="url(#clip192)" style="stroke:#000000; stroke-width:2; stroke-opacity:0.1; fill:none" points="
  1971.49,1486.45 1971.49,47.2441 
  "/>
<polyline clip-path="url(#clip192)" style="stroke:#000000; stroke-width:2; stroke-opacity:0.1; fill:none" points="
  112.177,1445.72 2352.76,1445.72 
  "/>
<polyline clip-path="url(#clip192)" style="stroke:#000000; stroke-width:2; stroke-opacity:0.1; fill:none" points="
  112.177,1238.56 2352.76,1238.56 
  "/>
<polyline clip-path="url(#clip192)" style="stroke:#000000; stroke-width:2; stroke-opacity:0.1; fill:none" points="
  112.177,1031.4 2352.76,1031.4 
  "/>
<polyline clip-path="url(#clip192)" style="stroke:#000000; stroke-width:2; stroke-opacity:0.1; fill:none" points="
  112.177,824.239 2352.76,824.239 
  "/>
<polyline clip-path="url(#clip192)" style="stroke:#000000; stroke-width:2; stroke-opacity:0.1; fill:none" points="
  112.177,617.08 2352.76,617.08 
  "/>
<polyline clip-path="url(#clip192)" style="stroke:#000000; stroke-width:2; stroke-opacity:0.1; fill:none" points="
  112.177,409.922 2352.76,409.922 
  "/>
<polyline clip-path="url(#clip192)" style="stroke:#000000; stroke-width:2; stroke-opacity:0.1; fill:none" points="
  112.177,202.763 2352.76,202.763 
  "/>
<polyline clip-path="url(#clip190)" style="stroke:#000000; stroke-width:4; stroke-opacity:1; fill:none" points="
  112.177,1486.45 2352.76,1486.45 
  "/>
<polyline clip-path="url(#clip190)" style="stroke:#000000; stroke-width:4; stroke-opacity:1; fill:none" points="
  112.177,1486.45 112.177,47.2441 
  "/>
<polyline clip-path="url(#clip190)" style="stroke:#000000; stroke-width:4; stroke-opacity:1; fill:none" points="
  420.452,1486.45 420.452,1469.18 
  "/>
<polyline clip-path="url(#clip190)" style="stroke:#000000; stroke-width:4; stroke-opacity:1; fill:none" points="
  937.465,1486.45 937.465,1469.18 
  "/>
<polyline clip-path="url(#clip190)" style="stroke:#000000; stroke-width:4; stroke-opacity:1; fill:none" points="
  1454.48,1486.45 1454.48,1469.18 
  "/>
<polyline clip-path="url(#clip190)" style="stroke:#000000; stroke-width:4; stroke-opacity:1; fill:none" points="
  1971.49,1486.45 1971.49,1469.18 
  "/>
<polyline clip-path="url(#clip190)" style="stroke:#000000; stroke-width:4; stroke-opacity:1; fill:none" points="
  112.177,1445.72 139.064,1445.72 
  "/>
<polyline clip-path="url(#clip190)" style="stroke:#000000; stroke-width:4; stroke-opacity:1; fill:none" points="
  112.177,1238.56 139.064,1238.56 
  "/>
<polyline clip-path="url(#clip190)" style="stroke:#000000; stroke-width:4; stroke-opacity:1; fill:none" points="
  112.177,1031.4 139.064,1031.4 
  "/>
<polyline clip-path="url(#clip190)" style="stroke:#000000; stroke-width:4; stroke-opacity:1; fill:none" points="
  112.177,824.239 139.064,824.239 
  "/>
<polyline clip-path="url(#clip190)" style="stroke:#000000; stroke-width:4; stroke-opacity:1; fill:none" points="
  112.177,617.08 139.064,617.08 
  "/>
<polyline clip-path="url(#clip190)" style="stroke:#000000; stroke-width:4; stroke-opacity:1; fill:none" points="
  112.177,409.922 139.064,409.922 
  "/>
<polyline clip-path="url(#clip190)" style="stroke:#000000; stroke-width:4; stroke-opacity:1; fill:none" points="
  112.177,202.763 139.064,202.763 
  "/>
<path clip-path="url(#clip190)" d="M 0 0 M373.717 1523.09 L403.392 1523.09 L403.392 1527.03 L373.717 1527.03 L373.717 1523.09 Z" fill="#000000" fill-rule="evenodd" fill-opacity="1" /><path clip-path="url(#clip190)" d="M 0 0 M418.462 1508.44 Q414.851 1508.44 413.022 1512 Q411.216 1515.55 411.216 1522.67 Q411.216 1529.78 413.022 1533.35 Q414.851 1536.89 418.462 1536.89 Q422.096 1536.89 423.901 1533.35 Q425.73 1529.78 425.73 1522.67 Q425.73 1515.55 423.901 1512 Q422.096 1508.44 418.462 1508.44 M418.462 1504.73 Q424.272 1504.73 427.327 1509.34 Q430.406 1513.92 430.406 1522.67 Q430.406 1531.4 427.327 1536.01 Q424.272 1540.59 418.462 1540.59 Q412.651 1540.59 409.573 1536.01 Q406.517 1531.4 406.517 1522.67 Q406.517 1513.92 409.573 1509.34 Q412.651 1504.73 418.462 1504.73 Z" fill="#000000" fill-rule="evenodd" fill-opacity="1" /><path clip-path="url(#clip190)" d="M 0 0 M435.475 1534.04 L440.36 1534.04 L440.36 1539.92 L435.475 1539.92 L435.475 1534.04 Z" fill="#000000" fill-rule="evenodd" fill-opacity="1" /><path clip-path="url(#clip190)" d="M 0 0 M445.568 1539.2 L445.568 1534.94 Q447.327 1535.78 449.133 1536.22 Q450.938 1536.66 452.674 1536.66 Q457.304 1536.66 459.735 1533.55 Q462.188 1530.43 462.535 1524.09 Q461.193 1526.08 459.133 1527.14 Q457.073 1528.21 454.573 1528.21 Q449.387 1528.21 446.355 1525.08 Q443.346 1521.93 443.346 1516.49 Q443.346 1511.17 446.494 1507.95 Q449.642 1504.73 454.873 1504.73 Q460.869 1504.73 464.017 1509.34 Q467.188 1513.92 467.188 1522.67 Q467.188 1530.85 463.299 1535.73 Q459.434 1540.59 452.883 1540.59 Q451.124 1540.59 449.318 1540.24 Q447.512 1539.9 445.568 1539.2 M454.873 1524.55 Q458.022 1524.55 459.85 1522.4 Q461.702 1520.24 461.702 1516.49 Q461.702 1512.77 459.85 1510.61 Q458.022 1508.44 454.873 1508.44 Q451.725 1508.44 449.874 1510.61 Q448.045 1512.77 448.045 1516.49 Q448.045 1520.24 449.874 1522.4 Q451.725 1524.55 454.873 1524.55 Z" fill="#000000" fill-rule="evenodd" fill-opacity="1" /><path clip-path="url(#clip190)" d="M 0 0 M890.683 1523.09 L920.359 1523.09 L920.359 1527.03 L890.683 1527.03 L890.683 1523.09 Z" fill="#000000" fill-rule="evenodd" fill-opacity="1" /><path clip-path="url(#clip190)" d="M 0 0 M935.428 1508.44 Q931.817 1508.44 929.989 1512 Q928.183 1515.55 928.183 1522.67 Q928.183 1529.78 929.989 1533.35 Q931.817 1536.89 935.428 1536.89 Q939.063 1536.89 940.868 1533.35 Q942.697 1529.78 942.697 1522.67 Q942.697 1515.55 940.868 1512 Q939.063 1508.44 935.428 1508.44 M935.428 1504.73 Q941.239 1504.73 944.294 1509.34 Q947.373 1513.92 947.373 1522.67 Q947.373 1531.4 944.294 1536.01 Q941.239 1540.59 935.428 1540.59 Q929.618 1540.59 926.54 1536.01 Q923.484 1531.4 923.484 1522.67 Q923.484 1513.92 926.54 1509.34 Q929.618 1504.73 935.428 1504.73 Z" fill="#000000" fill-rule="evenodd" fill-opacity="1" /><path clip-path="url(#clip190)" d="M 0 0 M952.442 1534.04 L957.326 1534.04 L957.326 1539.92 L952.442 1539.92 L952.442 1534.04 Z" fill="#000000" fill-rule="evenodd" fill-opacity="1" /><path clip-path="url(#clip190)" d="M 0 0 M972.396 1523.51 Q969.062 1523.51 967.141 1525.29 Q965.243 1527.07 965.243 1530.2 Q965.243 1533.32 967.141 1535.11 Q969.062 1536.89 972.396 1536.89 Q975.729 1536.89 977.65 1535.11 Q979.572 1533.3 979.572 1530.2 Q979.572 1527.07 977.65 1525.29 Q975.752 1523.51 972.396 1523.51 M967.72 1521.52 Q964.711 1520.78 963.021 1518.72 Q961.354 1516.66 961.354 1513.69 Q961.354 1509.55 964.294 1507.14 Q967.257 1504.73 972.396 1504.73 Q977.558 1504.73 980.498 1507.14 Q983.437 1509.55 983.437 1513.69 Q983.437 1516.66 981.748 1518.72 Q980.081 1520.78 977.095 1521.52 Q980.474 1522.3 982.349 1524.6 Q984.248 1526.89 984.248 1530.2 Q984.248 1535.22 981.169 1537.91 Q978.113 1540.59 972.396 1540.59 Q966.678 1540.59 963.6 1537.91 Q960.544 1535.22 960.544 1530.2 Q960.544 1526.89 962.442 1524.6 Q964.34 1522.3 967.72 1521.52 M966.007 1514.13 Q966.007 1516.82 967.674 1518.32 Q969.363 1519.83 972.396 1519.83 Q975.405 1519.83 977.095 1518.32 Q978.808 1516.82 978.808 1514.13 Q978.808 1511.45 977.095 1509.94 Q975.405 1508.44 972.396 1508.44 Q969.363 1508.44 967.674 1509.94 Q966.007 1511.45 966.007 1514.13 Z" fill="#000000" fill-rule="evenodd" fill-opacity="1" /><path clip-path="url(#clip190)" d="M 0 0 M1408.1 1523.09 L1437.78 1523.09 L1437.78 1527.03 L1408.1 1527.03 L1408.1 1523.09 Z" fill="#000000" fill-rule="evenodd" fill-opacity="1" /><path clip-path="url(#clip190)" d="M 0 0 M1452.85 1508.44 Q1449.24 1508.44 1447.41 1512 Q1445.6 1515.55 1445.6 1522.67 Q1445.6 1529.78 1447.41 1533.35 Q1449.24 1536.89 1452.85 1536.89 Q1456.48 1536.89 1458.29 1533.35 Q1460.11 1529.78 1460.11 1522.67 Q1460.11 1515.55 1458.29 1512 Q1456.48 1508.44 1452.85 1508.44 M1452.85 1504.73 Q1458.66 1504.73 1461.71 1509.34 Q1464.79 1513.92 1464.79 1522.67 Q1464.79 1531.4 1461.71 1536.01 Q1458.66 1540.59 1452.85 1540.59 Q1447.04 1540.59 1443.96 1536.01 Q1440.9 1531.4 1440.9 1522.67 Q1440.9 1513.92 1443.96 1509.34 Q1447.04 1504.73 1452.85 1504.73 Z" fill="#000000" fill-rule="evenodd" fill-opacity="1" /><path clip-path="url(#clip190)" d="M 0 0 M1469.86 1534.04 L1474.74 1534.04 L1474.74 1539.92 L1469.86 1539.92 L1469.86 1534.04 Z" fill="#000000" fill-rule="evenodd" fill-opacity="1" /><path clip-path="url(#clip190)" d="M 0 0 M1478.63 1505.36 L1500.86 1505.36 L1500.86 1507.35 L1488.31 1539.92 L1483.43 1539.92 L1495.23 1509.3 L1478.63 1509.3 L1478.63 1505.36 Z" fill="#000000" fill-rule="evenodd" fill-opacity="1" /><path clip-path="url(#clip190)" d="M 0 0 M1924.58 1523.09 L1954.26 1523.09 L1954.26 1527.03 L1924.58 1527.03 L1924.58 1523.09 Z" fill="#000000" fill-rule="evenodd" fill-opacity="1" /><path clip-path="url(#clip190)" d="M 0 0 M1969.33 1508.44 Q1965.72 1508.44 1963.89 1512 Q1962.08 1515.55 1962.08 1522.67 Q1962.08 1529.78 1963.89 1533.35 Q1965.72 1536.89 1969.33 1536.89 Q1972.96 1536.89 1974.77 1533.35 Q1976.6 1529.78 1976.6 1522.67 Q1976.6 1515.55 1974.77 1512 Q1972.96 1508.44 1969.33 1508.44 M1969.33 1504.73 Q1975.14 1504.73 1978.19 1509.34 Q1981.27 1513.92 1981.27 1522.67 Q1981.27 1531.4 1978.19 1536.01 Q1975.14 1540.59 1969.33 1540.59 Q1963.52 1540.59 1960.44 1536.01 Q1957.38 1531.4 1957.38 1522.67 Q1957.38 1513.92 1960.44 1509.34 Q1963.52 1504.73 1969.33 1504.73 Z" fill="#000000" fill-rule="evenodd" fill-opacity="1" /><path clip-path="url(#clip190)" d="M 0 0 M1986.34 1534.04 L1991.23 1534.04 L1991.23 1539.92 L1986.34 1539.92 L1986.34 1534.04 Z" fill="#000000" fill-rule="evenodd" fill-opacity="1" /><path clip-path="url(#clip190)" d="M 0 0 M2006.87 1520.78 Q2003.73 1520.78 2001.87 1522.93 Q2000.04 1525.08 2000.04 1528.83 Q2000.04 1532.56 2001.87 1534.73 Q2003.73 1536.89 2006.87 1536.89 Q2010.02 1536.89 2011.85 1534.73 Q2013.7 1532.56 2013.7 1528.83 Q2013.7 1525.08 2011.85 1522.93 Q2010.02 1520.78 2006.87 1520.78 M2016.16 1506.12 L2016.16 1510.38 Q2014.4 1509.55 2012.59 1509.11 Q2010.81 1508.67 2009.05 1508.67 Q2004.42 1508.67 2001.97 1511.8 Q1999.54 1514.92 1999.19 1521.24 Q2000.55 1519.23 2002.61 1518.16 Q2004.67 1517.07 2007.15 1517.07 Q2012.36 1517.07 2015.37 1520.24 Q2018.4 1523.39 2018.4 1528.83 Q2018.4 1534.16 2015.25 1537.37 Q2012.1 1540.59 2006.87 1540.59 Q2000.88 1540.59 1997.71 1536.01 Q1994.54 1531.4 1994.54 1522.67 Q1994.54 1514.48 1998.42 1509.62 Q2002.31 1504.73 2008.86 1504.73 Q2010.62 1504.73 2012.41 1505.08 Q2014.21 1505.43 2016.16 1506.12 Z" fill="#000000" fill-rule="evenodd" fill-opacity="1" /><path clip-path="url(#clip190)" d="M 0 0 M76.2328 1431.51 Q72.6217 1431.51 70.793 1435.08 Q68.9875 1438.62 68.9875 1445.75 Q68.9875 1452.86 70.793 1456.42 Q72.6217 1459.96 76.2328 1459.96 Q79.867 1459.96 81.6726 1456.42 Q83.5013 1452.86 83.5013 1445.75 Q83.5013 1438.62 81.6726 1435.08 Q79.867 1431.51 76.2328 1431.51 M76.2328 1427.81 Q82.0429 1427.81 85.0985 1432.42 Q88.1772 1437 88.1772 1445.75 Q88.1772 1454.48 85.0985 1459.08 Q82.0429 1463.67 76.2328 1463.67 Q70.4226 1463.67 67.344 1459.08 Q64.2884 1454.48 64.2884 1445.75 Q64.2884 1437 67.344 1432.42 Q70.4226 1427.81 76.2328 1427.81 Z" fill="#000000" fill-rule="evenodd" fill-opacity="1" /><path clip-path="url(#clip190)" d="M 0 0 M68.2699 1251.9 L75.9087 1251.9 L75.9087 1225.54 L67.5986 1227.2 L67.5986 1222.94 L75.8624 1221.28 L80.5383 1221.28 L80.5383 1251.9 L88.1772 1251.9 L88.1772 1255.84 L68.2699 1255.84 L68.2699 1251.9 Z" fill="#000000" fill-rule="evenodd" fill-opacity="1" /><path clip-path="url(#clip190)" d="M 0 0 M71.8578 1044.74 L88.1772 1044.74 L88.1772 1048.68 L66.2328 1048.68 L66.2328 1044.74 Q68.8949 1041.99 73.4782 1037.36 Q78.0846 1032.71 79.2652 1031.36 Q81.5105 1028.84 82.3902 1027.1 Q83.2929 1025.34 83.2929 1023.66 Q83.2929 1020.9 81.3485 1019.16 Q79.4272 1017.43 76.3254 1017.43 Q74.1263 1017.43 71.6726 1018.19 Q69.2421 1018.96 66.4643 1020.51 L66.4643 1015.78 Q69.2884 1014.65 71.7421 1014.07 Q74.1958 1013.49 76.2328 1013.49 Q81.6031 1013.49 84.7976 1016.18 Q87.992 1018.86 87.992 1023.35 Q87.992 1025.48 87.1818 1027.41 Q86.3948 1029.3 84.2883 1031.9 Q83.7096 1032.57 80.6078 1035.78 Q77.5059 1038.98 71.8578 1044.74 Z" fill="#000000" fill-rule="evenodd" fill-opacity="1" /><path clip-path="url(#clip190)" d="M 0 0 M81.0476 822.885 Q84.404 823.603 86.279 825.871 Q88.1772 828.14 88.1772 831.473 Q88.1772 836.589 84.6587 839.39 Q81.1402 842.191 74.6587 842.191 Q72.4828 842.191 70.168 841.751 Q67.8764 841.334 65.4227 840.478 L65.4227 835.964 Q67.3671 837.098 69.6819 837.677 Q71.9967 838.255 74.5198 838.255 Q78.918 838.255 81.2096 836.519 Q83.5244 834.783 83.5244 831.473 Q83.5244 828.418 81.3717 826.705 Q79.242 824.968 75.4226 824.968 L71.3949 824.968 L71.3949 821.126 L75.6078 821.126 Q79.0569 821.126 80.8855 819.76 Q82.7142 818.371 82.7142 815.779 Q82.7142 813.117 80.8161 811.705 Q78.9411 810.269 75.4226 810.269 Q73.5013 810.269 71.3023 810.686 Q69.1032 811.103 66.4643 811.982 L66.4643 807.816 Q69.1264 807.075 71.4412 806.705 Q73.7791 806.334 75.8393 806.334 Q81.1633 806.334 84.2652 808.765 Q87.367 811.172 87.367 815.293 Q87.367 818.163 85.7235 820.154 Q84.08 822.121 81.0476 822.885 Z" fill="#000000" fill-rule="evenodd" fill-opacity="1" /><path clip-path="url(#clip190)" d="M 0 0 M78.5939 603.875 L66.7884 622.324 L78.5939 622.324 L78.5939 603.875 M77.367 599.8 L83.2466 599.8 L83.2466 622.324 L88.1772 622.324 L88.1772 626.212 L83.2466 626.212 L83.2466 634.36 L78.5939 634.36 L78.5939 626.212 L62.9921 626.212 L62.9921 621.699 L77.367 599.8 Z" fill="#000000" fill-rule="evenodd" fill-opacity="1" /><path clip-path="url(#clip190)" d="M 0 0 M67.2745 392.642 L85.6309 392.642 L85.6309 396.577 L71.5569 396.577 L71.5569 405.049 Q72.5754 404.702 73.5939 404.54 Q74.6124 404.355 75.6309 404.355 Q81.418 404.355 84.7976 407.526 Q88.1772 410.697 88.1772 416.114 Q88.1772 421.692 84.705 424.794 Q81.2328 427.873 74.9134 427.873 Q72.7374 427.873 70.4689 427.503 Q68.2236 427.132 65.8162 426.392 L65.8162 421.692 Q67.8995 422.827 70.1217 423.382 Q72.3439 423.938 74.8208 423.938 Q78.8254 423.938 81.1633 421.831 Q83.5013 419.725 83.5013 416.114 Q83.5013 412.503 81.1633 410.396 Q78.8254 408.29 74.8208 408.29 Q72.9458 408.29 71.0708 408.706 Q69.2189 409.123 67.2745 410.003 L67.2745 392.642 Z" fill="#000000" fill-rule="evenodd" fill-opacity="1" /><path clip-path="url(#clip190)" d="M 0 0 M76.6495 200.899 Q73.5013 200.899 71.6495 203.052 Q69.8208 205.205 69.8208 208.955 Q69.8208 212.682 71.6495 214.858 Q73.5013 217.01 76.6495 217.01 Q79.7976 217.01 81.6263 214.858 Q83.4781 212.682 83.4781 208.955 Q83.4781 205.205 81.6263 203.052 Q79.7976 200.899 76.6495 200.899 M85.9318 186.247 L85.9318 190.506 Q84.1726 189.673 82.367 189.233 Q80.5846 188.793 78.8254 188.793 Q74.1958 188.793 71.7421 191.918 Q69.3115 195.043 68.9643 201.362 Q70.33 199.349 72.3902 198.284 Q74.4504 197.196 76.9272 197.196 Q82.1355 197.196 85.1448 200.367 Q88.1772 203.515 88.1772 208.955 Q88.1772 214.279 85.029 217.497 Q81.8809 220.714 76.6495 220.714 Q70.6541 220.714 67.4828 216.131 Q64.3116 211.524 64.3116 202.798 Q64.3116 194.603 68.2004 189.742 Q72.0893 184.858 78.6402 184.858 Q80.3994 184.858 82.1818 185.205 Q83.9874 185.552 85.9318 186.247 Z" fill="#000000" fill-rule="evenodd" fill-opacity="1" /><path clip-path="url(#clip192)" d="
M175.59 1440.67 L180.815 1440.34 L186.041 1440.03 L191.267 1439.75 L196.492 1439.5 L201.718 1439.28 L206.943 1439.09 L212.169 1438.92 L217.395 1438.78 L222.62 1438.66 
  L227.846 1438.55 L233.071 1438.43 L238.297 1438.31 L243.522 1438.17 L248.748 1437.99 L253.974 1437.78 L259.199 1437.51 L264.425 1437.18 L269.65 1436.78 L274.876 1436.3 
  L280.102 1435.75 L285.327 1435.1 L290.553 1434.38 L295.778 1433.56 L301.004 1432.66 L306.23 1431.68 L311.455 1430.61 L316.681 1429.47 L321.906 1428.25 L327.132 1426.97 
  L332.358 1425.6 L337.583 1424.16 L342.809 1422.63 L348.034 1421.01 L353.26 1419.28 L358.486 1417.42 L363.711 1415.4 L368.937 1413.19 L374.162 1410.77 L379.388 1408.1 
  L384.613 1405.13 L389.839 1401.84 L395.065 1398.18 L400.29 1394.14 L405.516 1389.68 L410.741 1384.8 L415.967 1379.51 L421.193 1373.83 L426.418 1367.8 L431.644 1361.48 
  L436.869 1354.95 L442.095 1348.31 L447.321 1341.66 L452.546 1335.13 L457.772 1328.84 L462.997 1322.91 L468.223 1317.47 L473.449 1312.61 L478.674 1308.43 L483.9 1304.98 
  L489.125 1302.31 L494.351 1300.41 L499.577 1299.27 L504.802 1298.82 L510.028 1298.99 L515.253 1299.65 L520.479 1300.69 L525.704 1301.96 L530.93 1303.29 L536.156 1304.53 
  L541.381 1305.53 L546.607 1306.13 L551.832 1306.19 L557.058 1305.58 L562.284 1304.2 L567.509 1301.97 L572.735 1298.8 L577.96 1294.66 L583.186 1289.51 L588.412 1283.35 
  L593.637 1276.16 L598.863 1267.98 L604.088 1258.82 L609.314 1248.73 L614.54 1237.76 L619.765 1225.95 L624.991 1213.36 L630.216 1200.07 L635.442 1186.15 L640.668 1171.66 
  L645.893 1156.67 L651.119 1141.28 L656.344 1125.56 L661.57 1109.59 L666.795 1093.43 L672.021 1077.18 L677.247 1060.9 L682.472 1044.65 L687.698 1028.5 L692.923 1012.49 
  L692.923 1445.72 L687.698 1445.72 L682.472 1445.72 L677.247 1445.72 L672.021 1445.72 L666.795 1445.72 L661.57 1445.72 L656.344 1445.72 L651.119 1445.72 L645.893 1445.72 
  L640.668 1445.72 L635.442 1445.72 L630.216 1445.72 L624.991 1445.72 L619.765 1445.72 L614.54 1445.72 L609.314 1445.72 L604.088 1445.72 L598.863 1445.72 L593.637 1445.72 
  L588.412 1445.72 L583.186 1445.72 L577.96 1445.72 L572.735 1445.72 L567.509 1445.72 L562.284 1445.72 L557.058 1445.72 L551.832 1445.72 L546.607 1445.72 L541.381 1445.72 
  L536.156 1445.72 L530.93 1445.72 L525.704 1445.72 L520.479 1445.72 L515.253 1445.72 L510.028 1445.72 L504.802 1445.72 L499.577 1445.72 L494.351 1445.72 L489.125 1445.72 
  L483.9 1445.72 L478.674 1445.72 L473.449 1445.72 L468.223 1445.72 L462.997 1445.72 L457.772 1445.72 L452.546 1445.72 L447.321 1445.72 L442.095 1445.72 L436.869 1445.72 
  L431.644 1445.72 L426.418 1445.72 L421.193 1445.72 L415.967 1445.72 L410.741 1445.72 L405.516 1445.72 L400.29 1445.72 L395.065 1445.72 L389.839 1445.72 L384.613 1445.72 
  L379.388 1445.72 L374.162 1445.72 L368.937 1445.72 L363.711 1445.72 L358.486 1445.72 L353.26 1445.72 L348.034 1445.72 L342.809 1445.72 L337.583 1445.72 L332.358 1445.72 
  L327.132 1445.72 L321.906 1445.72 L316.681 1445.72 L311.455 1445.72 L306.23 1445.72 L301.004 1445.72 L295.778 1445.72 L290.553 1445.72 L285.327 1445.72 L280.102 1445.72 
  L274.876 1445.72 L269.65 1445.72 L264.425 1445.72 L259.199 1445.72 L253.974 1445.72 L248.748 1445.72 L243.522 1445.72 L238.297 1445.72 L233.071 1445.72 L227.846 1445.72 
  L222.62 1445.72 L217.395 1445.72 L212.169 1445.72 L206.943 1445.72 L201.718 1445.72 L196.492 1445.72 L191.267 1445.72 L186.041 1445.72 L180.815 1445.72 L175.59 1445.72 
   Z
  " fill="#ffa500" fill-rule="evenodd" fill-opacity="0.5"/>
<polyline clip-path="url(#clip192)" style="stroke:#ffa500; stroke-width:4; stroke-opacity:1; fill:none" points="
  175.59,1440.67 180.815,1440.34 186.041,1440.03 191.267,1439.75 196.492,1439.5 201.718,1439.28 206.943,1439.09 212.169,1438.92 217.395,1438.78 222.62,1438.66 
  227.846,1438.55 233.071,1438.43 238.297,1438.31 243.522,1438.17 248.748,1437.99 253.974,1437.78 259.199,1437.51 264.425,1437.18 269.65,1436.78 274.876,1436.3 
  280.102,1435.75 285.327,1435.1 290.553,1434.38 295.778,1433.56 301.004,1432.66 306.23,1431.68 311.455,1430.61 316.681,1429.47 321.906,1428.25 327.132,1426.97 
  332.358,1425.6 337.583,1424.16 342.809,1422.63 348.034,1421.01 353.26,1419.28 358.486,1417.42 363.711,1415.4 368.937,1413.19 374.162,1410.77 379.388,1408.1 
  384.613,1405.13 389.839,1401.84 395.065,1398.18 400.29,1394.14 405.516,1389.68 410.741,1384.8 415.967,1379.51 421.193,1373.83 426.418,1367.8 431.644,1361.48 
  436.869,1354.95 442.095,1348.31 447.321,1341.66 452.546,1335.13 457.772,1328.84 462.997,1322.91 468.223,1317.47 473.449,1312.61 478.674,1308.43 483.9,1304.98 
  489.125,1302.31 494.351,1300.41 499.577,1299.27 504.802,1298.82 510.028,1298.99 515.253,1299.65 520.479,1300.69 525.704,1301.96 530.93,1303.29 536.156,1304.53 
  541.381,1305.53 546.607,1306.13 551.832,1306.19 557.058,1305.58 562.284,1304.2 567.509,1301.97 572.735,1298.8 577.96,1294.66 583.186,1289.51 588.412,1283.35 
  593.637,1276.16 598.863,1267.98 604.088,1258.82 609.314,1248.73 614.54,1237.76 619.765,1225.95 624.991,1213.36 630.216,1200.07 635.442,1186.15 640.668,1171.66 
  645.893,1156.67 651.119,1141.28 656.344,1125.56 661.57,1109.59 666.795,1093.43 672.021,1077.18 677.247,1060.9 682.472,1044.65 687.698,1028.5 692.923,1012.49 
  
  "/>
<path clip-path="url(#clip192)" d="
M692.923 1012.49 L703.747 979.942 L714.571 948.354 L725.394 917.697 L736.218 887.732 L747.041 858.087 L757.865 828.369 L768.689 798.294 L779.512 767.807 L790.336 737.133 
  L801.159 706.757 L811.983 677.333 L822.807 649.568 L833.63 624.105 L844.454 601.445 L855.277 581.897 L866.101 565.519 L876.925 552.054 L887.748 540.854 L898.572 530.865 
  L909.395 520.697 L920.219 508.827 L931.043 493.892 L941.866 474.976 L952.69 451.811 L963.513 424.798 L974.337 394.859 L985.161 363.174 L995.984 330.896 L1006.81 298.942 
  L1017.63 267.911 L1028.46 238.118 L1039.28 209.718 L1050.1 182.861 L1060.93 157.841 L1071.75 135.198 L1082.57 115.767 L1093.4 100.638 L1104.22 91.0114 L1115.04 87.9763 
  L1125.87 92.2291 L1136.69 103.837 L1147.51 122.127 L1158.34 145.76 L1169.16 172.991 L1179.99 202.031 L1190.81 231.403 L1201.63 260.164 L1212.46 287.937 L1223.28 314.769 
  L1234.1 340.867 L1244.93 366.344 L1255.75 391.043 L1266.57 414.509 L1277.4 436.116 L1288.22 455.293 L1299.05 471.766 L1309.87 485.731 L1320.69 497.87 L1331.52 509.196 
  L1342.34 520.755 L1353.16 533.28 L1363.99 546.923 L1374.81 561.167 L1385.63 574.959 L1396.46 587.034 L1407.28 596.316 L1418.1 602.256 L1428.93 605.005 L1439.75 605.352 
  L1450.58 604.5 L1461.4 603.75 L1472.22 604.231 L1483.05 606.729 L1493.87 611.658 L1504.69 619.106 L1515.52 628.916 L1526.34 640.753 L1537.16 654.147 L1547.99 668.548 
  L1558.81 683.399 L1569.64 698.229 L1580.46 712.749 L1591.28 726.896 L1602.11 740.822 L1612.93 754.812 L1623.75 769.196 L1634.58 784.263 L1645.4 800.219 L1656.22 817.174 
  L1667.05 835.163 L1677.87 854.149 L1688.69 874.039 L1699.52 894.689 L1710.34 915.922 L1721.17 937.564 L1731.99 959.487 L1742.81 981.641 L1753.64 1004.07 L1764.46 1026.91 
  L1764.46 1445.72 L1753.64 1445.72 L1742.81 1445.72 L1731.99 1445.72 L1721.17 1445.72 L1710.34 1445.72 L1699.52 1445.72 L1688.69 1445.72 L1677.87 1445.72 L1667.05 1445.72 
  L1656.22 1445.72 L1645.4 1445.72 L1634.58 1445.72 L1623.75 1445.72 L1612.93 1445.72 L1602.11 1445.72 L1591.28 1445.72 L1580.46 1445.72 L1569.64 1445.72 L1558.81 1445.72 
  L1547.99 1445.72 L1537.16 1445.72 L1526.34 1445.72 L1515.52 1445.72 L1504.69 1445.72 L1493.87 1445.72 L1483.05 1445.72 L1472.22 1445.72 L1461.4 1445.72 L1450.58 1445.72 
  L1439.75 1445.72 L1428.93 1445.72 L1418.1 1445.72 L1407.28 1445.72 L1396.46 1445.72 L1385.63 1445.72 L1374.81 1445.72 L1363.99 1445.72 L1353.16 1445.72 L1342.34 1445.72 
  L1331.52 1445.72 L1320.69 1445.72 L1309.87 1445.72 L1299.05 1445.72 L1288.22 1445.72 L1277.4 1445.72 L1266.57 1445.72 L1255.75 1445.72 L1244.93 1445.72 L1234.1 1445.72 
  L1223.28 1445.72 L1212.46 1445.72 L1201.63 1445.72 L1190.81 1445.72 L1179.99 1445.72 L1169.16 1445.72 L1158.34 1445.72 L1147.51 1445.72 L1136.69 1445.72 L1125.87 1445.72 
  L1115.04 1445.72 L1104.22 1445.72 L1093.4 1445.72 L1082.57 1445.72 L1071.75 1445.72 L1060.93 1445.72 L1050.1 1445.72 L1039.28 1445.72 L1028.46 1445.72 L1017.63 1445.72 
  L1006.81 1445.72 L995.984 1445.72 L985.161 1445.72 L974.337 1445.72 L963.513 1445.72 L952.69 1445.72 L941.866 1445.72 L931.043 1445.72 L920.219 1445.72 L909.395 1445.72 
  L898.572 1445.72 L887.748 1445.72 L876.925 1445.72 L866.101 1445.72 L855.277 1445.72 L844.454 1445.72 L833.63 1445.72 L822.807 1445.72 L811.983 1445.72 L801.159 1445.72 
  L790.336 1445.72 L779.512 1445.72 L768.689 1445.72 L757.865 1445.72 L747.041 1445.72 L736.218 1445.72 L725.394 1445.72 L714.571 1445.72 L703.747 1445.72 L692.923 1445.72 
   Z
  " fill="#008000" fill-rule="evenodd" fill-opacity="0.5"/>
<polyline clip-path="url(#clip192)" style="stroke:#008000; stroke-width:4; stroke-opacity:1; fill:none" points="
  692.923,1012.49 703.747,979.942 714.571,948.354 725.394,917.697 736.218,887.732 747.041,858.087 757.865,828.369 768.689,798.294 779.512,767.807 790.336,737.133 
  801.159,706.757 811.983,677.333 822.807,649.568 833.63,624.105 844.454,601.445 855.277,581.897 866.101,565.519 876.925,552.054 887.748,540.854 898.572,530.865 
  909.395,520.697 920.219,508.827 931.043,493.892 941.866,474.976 952.69,451.811 963.513,424.798 974.337,394.859 985.161,363.174 995.984,330.896 1006.81,298.942 
  1017.63,267.911 1028.46,238.118 1039.28,209.718 1050.1,182.861 1060.93,157.841 1071.75,135.198 1082.57,115.767 1093.4,100.638 1104.22,91.0114 1115.04,87.9763 
  1125.87,92.2291 1136.69,103.837 1147.51,122.127 1158.34,145.76 1169.16,172.991 1179.99,202.031 1190.81,231.403 1201.63,260.164 1212.46,287.937 1223.28,314.769 
  1234.1,340.867 1244.93,366.344 1255.75,391.043 1266.57,414.509 1277.4,436.116 1288.22,455.293 1299.05,471.766 1309.87,485.731 1320.69,497.87 1331.52,509.196 
  1342.34,520.755 1353.16,533.28 1363.99,546.923 1374.81,561.167 1385.63,574.959 1396.46,587.034 1407.28,596.316 1418.1,602.256 1428.93,605.005 1439.75,605.352 
  1450.58,604.5 1461.4,603.75 1472.22,604.231 1483.05,606.729 1493.87,611.658 1504.69,619.106 1515.52,628.916 1526.34,640.753 1537.16,654.147 1547.99,668.548 
  1558.81,683.399 1569.64,698.229 1580.46,712.749 1591.28,726.896 1602.11,740.822 1612.93,754.812 1623.75,769.196 1634.58,784.263 1645.4,800.219 1656.22,817.174 
  1667.05,835.163 1677.87,854.149 1688.69,874.039 1699.52,894.689 1710.34,915.922 1721.17,937.564 1731.99,959.487 1742.81,981.641 1753.64,1004.07 1764.46,1026.91 
  
  "/>
<path clip-path="url(#clip192)" d="
M1764.46 1026.91 L1769.76 1038.3 L1775.06 1049.84 L1780.37 1061.56 L1785.67 1073.46 L1790.97 1085.55 L1796.27 1097.81 L1801.57 1110.23 L1806.87 1122.78 L1812.18 1135.42 
  L1817.48 1148.1 L1822.78 1160.74 L1828.08 1173.3 L1833.38 1185.7 L1838.69 1197.87 L1843.99 1209.74 L1849.29 1221.25 L1854.59 1232.36 L1859.89 1243.03 L1865.2 1253.24 
  L1870.5 1262.96 L1875.8 1272.2 L1881.1 1280.98 L1886.4 1289.31 L1891.7 1297.2 L1897.01 1304.7 L1902.31 1311.83 L1907.61 1318.61 L1912.91 1325.05 L1918.21 1331.18 
  L1923.52 1337.01 L1928.82 1342.52 L1934.12 1347.73 L1939.42 1352.62 L1944.72 1357.19 L1950.02 1361.43 L1955.33 1365.33 L1960.63 1368.89 L1965.93 1372.11 L1971.23 1375 
  L1976.53 1377.57 L1981.84 1379.83 L1987.14 1381.81 L1992.44 1383.54 L1997.74 1385.05 L2003.04 1386.37 L2008.35 1387.54 L2013.65 1388.58 L2018.95 1389.54 L2024.25 1390.43 
  L2029.55 1391.29 L2034.85 1392.14 L2040.16 1392.98 L2045.46 1393.82 L2050.76 1394.68 L2056.06 1395.54 L2061.36 1396.41 L2066.67 1397.28 L2071.97 1398.15 L2077.27 1398.99 
  L2082.57 1399.81 L2087.87 1400.59 L2093.17 1401.34 L2098.48 1402.05 L2103.78 1402.72 L2109.08 1403.35 L2114.38 1403.97 L2119.68 1404.57 L2124.99 1405.18 L2130.29 1405.82 
  L2135.59 1406.5 L2140.89 1407.25 L2146.19 1408.08 L2151.5 1409.01 L2156.8 1410.04 L2162.1 1411.18 L2167.4 1412.43 L2172.7 1413.77 L2178 1415.19 L2183.31 1416.66 
  L2188.61 1418.15 L2193.91 1419.64 L2199.21 1421.08 L2204.51 1422.45 L2209.82 1423.7 L2215.12 1424.83 L2220.42 1425.79 L2225.72 1426.59 L2231.02 1427.21 L2236.32 1427.67 
  L2241.63 1427.96 L2246.93 1428.12 L2252.23 1428.18 L2257.53 1428.15 L2262.83 1428.09 L2268.14 1428.03 L2273.44 1428 L2278.74 1428.04 L2284.04 1428.17 L2289.34 1428.42 
  L2289.34 1445.72 L2284.04 1445.72 L2278.74 1445.72 L2273.44 1445.72 L2268.14 1445.72 L2262.83 1445.72 L2257.53 1445.72 L2252.23 1445.72 L2246.93 1445.72 L2241.63 1445.72 
  L2236.32 1445.72 L2231.02 1445.72 L2225.72 1445.72 L2220.42 1445.72 L2215.12 1445.72 L2209.82 1445.72 L2204.51 1445.72 L2199.21 1445.72 L2193.91 1445.72 L2188.61 1445.72 
  L2183.31 1445.72 L2178 1445.72 L2172.7 1445.72 L2167.4 1445.72 L2162.1 1445.72 L2156.8 1445.72 L2151.5 1445.72 L2146.19 1445.72 L2140.89 1445.72 L2135.59 1445.72 
  L2130.29 1445.72 L2124.99 1445.72 L2119.68 1445.72 L2114.38 1445.72 L2109.08 1445.72 L2103.78 1445.72 L2098.48 1445.72 L2093.17 1445.72 L2087.87 1445.72 L2082.57 1445.72 
  L2077.27 1445.72 L2071.97 1445.72 L2066.67 1445.72 L2061.36 1445.72 L2056.06 1445.72 L2050.76 1445.72 L2045.46 1445.72 L2040.16 1445.72 L2034.85 1445.72 L2029.55 1445.72 
  L2024.25 1445.72 L2018.95 1445.72 L2013.65 1445.72 L2008.35 1445.72 L2003.04 1445.72 L1997.74 1445.72 L1992.44 1445.72 L1987.14 1445.72 L1981.84 1445.72 L1976.53 1445.72 
  L1971.23 1445.72 L1965.93 1445.72 L1960.63 1445.72 L1955.33 1445.72 L1950.02 1445.72 L1944.72 1445.72 L1939.42 1445.72 L1934.12 1445.72 L1928.82 1445.72 L1923.52 1445.72 
  L1918.21 1445.72 L1912.91 1445.72 L1907.61 1445.72 L1902.31 1445.72 L1897.01 1445.72 L1891.7 1445.72 L1886.4 1445.72 L1881.1 1445.72 L1875.8 1445.72 L1870.5 1445.72 
  L1865.2 1445.72 L1859.89 1445.72 L1854.59 1445.72 L1849.29 1445.72 L1843.99 1445.72 L1838.69 1445.72 L1833.38 1445.72 L1828.08 1445.72 L1822.78 1445.72 L1817.48 1445.72 
  L1812.18 1445.72 L1806.87 1445.72 L1801.57 1445.72 L1796.27 1445.72 L1790.97 1445.72 L1785.67 1445.72 L1780.37 1445.72 L1775.06 1445.72 L1769.76 1445.72 L1764.46 1445.72 
   Z
  " fill="#ffa500" fill-rule="evenodd" fill-opacity="0.5"/>
<polyline clip-path="url(#clip192)" style="stroke:#ffa500; stroke-width:4; stroke-opacity:1; fill:none" points="
  1764.46,1026.91 1769.76,1038.3 1775.06,1049.84 1780.37,1061.56 1785.67,1073.46 1790.97,1085.55 1796.27,1097.81 1801.57,1110.23 1806.87,1122.78 1812.18,1135.42 
  1817.48,1148.1 1822.78,1160.74 1828.08,1173.3 1833.38,1185.7 1838.69,1197.87 1843.99,1209.74 1849.29,1221.25 1854.59,1232.36 1859.89,1243.03 1865.2,1253.24 
  1870.5,1262.96 1875.8,1272.2 1881.1,1280.98 1886.4,1289.31 1891.7,1297.2 1897.01,1304.7 1902.31,1311.83 1907.61,1318.61 1912.91,1325.05 1918.21,1331.18 
  1923.52,1337.01 1928.82,1342.52 1934.12,1347.73 1939.42,1352.62 1944.72,1357.19 1950.02,1361.43 1955.33,1365.33 1960.63,1368.89 1965.93,1372.11 1971.23,1375 
  1976.53,1377.57 1981.84,1379.83 1987.14,1381.81 1992.44,1383.54 1997.74,1385.05 2003.04,1386.37 2008.35,1387.54 2013.65,1388.58 2018.95,1389.54 2024.25,1390.43 
  2029.55,1391.29 2034.85,1392.14 2040.16,1392.98 2045.46,1393.82 2050.76,1394.68 2056.06,1395.54 2061.36,1396.41 2066.67,1397.28 2071.97,1398.15 2077.27,1398.99 
  2082.57,1399.81 2087.87,1400.59 2093.17,1401.34 2098.48,1402.05 2103.78,1402.72 2109.08,1403.35 2114.38,1403.97 2119.68,1404.57 2124.99,1405.18 2130.29,1405.82 
  2135.59,1406.5 2140.89,1407.25 2146.19,1408.08 2151.5,1409.01 2156.8,1410.04 2162.1,1411.18 2167.4,1412.43 2172.7,1413.77 2178,1415.19 2183.31,1416.66 
  2188.61,1418.15 2193.91,1419.64 2199.21,1421.08 2204.51,1422.45 2209.82,1423.7 2215.12,1424.83 2220.42,1425.79 2225.72,1426.59 2231.02,1427.21 2236.32,1427.67 
  2241.63,1427.96 2246.93,1428.12 2252.23,1428.18 2257.53,1428.15 2262.83,1428.09 2268.14,1428.03 2273.44,1428 2278.74,1428.04 2284.04,1428.17 2289.34,1428.42 
  
  "/>
<polyline clip-path="url(#clip192)" style="stroke:#0000ff; stroke-width:4; stroke-opacity:1; fill:none" points="
  1207.47,1445.72 1207.47,275.28 
  "/>
<polyline clip-path="url(#clip192)" style="stroke:#000000; stroke-width:4; stroke-opacity:1; fill:none" points="
  1177.05,1445.72 1177.05,194.068 
  "/>
</svg>
