<?xml version="1.0" encoding="utf-8"?>
<svg xmlns="http://www.w3.org/2000/svg" xmlns:xlink="http://www.w3.org/1999/xlink" width="600" height="400" viewBox="0 0 2400 1600">
<defs>
  <clipPath id="clip260">
    <rect x="0" y="0" width="2400" height="1600"/>
  </clipPath>
</defs>
<path clip-path="url(#clip260)" d="
M0 1600 L2400 1600 L2400 0 L0 0  Z
  " fill="#ffffff" fill-rule="evenodd" fill-opacity="1"/>
<defs>
  <clipPath id="clip261">
    <rect x="480" y="0" width="1681" height="1600"/>
  </clipPath>
</defs>
<path clip-path="url(#clip260)" d="
M86.9921 1521.01 L2352.76 1521.01 L2352.76 47.2441 L86.9921 47.2441  Z
  " fill="#ffffff" fill-rule="evenodd" fill-opacity="1"/>
<defs>
  <clipPath id="clip262">
    <rect x="86" y="47" width="2267" height="1475"/>
  </clipPath>
</defs>
<polyline clip-path="url(#clip262)" style="stroke:#000000; stroke-width:2; stroke-opacity:0.1; fill:none" points="
  480.29,1521.01 480.29,47.2441 
  "/>
<polyline clip-path="url(#clip262)" style="stroke:#000000; stroke-width:2; stroke-opacity:0.1; fill:none" points="
  949.524,1521.01 949.524,47.2441 
  "/>
<polyline clip-path="url(#clip262)" style="stroke:#000000; stroke-width:2; stroke-opacity:0.1; fill:none" points="
  1418.76,1521.01 1418.76,47.2441 
  "/>
<polyline clip-path="url(#clip262)" style="stroke:#000000; stroke-width:2; stroke-opacity:0.1; fill:none" points="
  1887.99,1521.01 1887.99,47.2441 
  "/>
<polyline clip-path="url(#clip262)" style="stroke:#000000; stroke-width:2; stroke-opacity:0.1; fill:none" points="
  86.9921,1479.3 2352.76,1479.3 
  "/>
<polyline clip-path="url(#clip262)" style="stroke:#000000; stroke-width:2; stroke-opacity:0.1; fill:none" points="
  86.9921,1190.96 2352.76,1190.96 
  "/>
<polyline clip-path="url(#clip262)" style="stroke:#000000; stroke-width:2; stroke-opacity:0.1; fill:none" points="
  86.9921,902.614 2352.76,902.614 
  "/>
<polyline clip-path="url(#clip262)" style="stroke:#000000; stroke-width:2; stroke-opacity:0.1; fill:none" points="
  86.9921,614.272 2352.76,614.272 
  "/>
<polyline clip-path="url(#clip262)" style="stroke:#000000; stroke-width:2; stroke-opacity:0.1; fill:none" points="
  86.9921,325.93 2352.76,325.93 
  "/>
<polyline clip-path="url(#clip260)" style="stroke:#000000; stroke-width:4; stroke-opacity:1; fill:none" points="
  86.9921,1521.01 2352.76,1521.01 
  "/>
<polyline clip-path="url(#clip260)" style="stroke:#000000; stroke-width:4; stroke-opacity:1; fill:none" points="
  86.9921,1521.01 86.9921,47.2441 
  "/>
<polyline clip-path="url(#clip260)" style="stroke:#000000; stroke-width:4; stroke-opacity:1; fill:none" points="
  480.29,1521.01 480.29,1503.32 
  "/>
<polyline clip-path="url(#clip260)" style="stroke:#000000; stroke-width:4; stroke-opacity:1; fill:none" points="
  949.524,1521.01 949.524,1503.32 
  "/>
<polyline clip-path="url(#clip260)" style="stroke:#000000; stroke-width:4; stroke-opacity:1; fill:none" points="
  1418.76,1521.01 1418.76,1503.32 
  "/>
<polyline clip-path="url(#clip260)" style="stroke:#000000; stroke-width:4; stroke-opacity:1; fill:none" points="
  1887.99,1521.01 1887.99,1503.32 
  "/>
<polyline clip-path="url(#clip260)" style="stroke:#000000; stroke-width:4; stroke-opacity:1; fill:none" points="
  86.9921,1479.3 114.181,1479.3 
  "/>
<polyline clip-path="url(#clip260)" style="stroke:#000000; stroke-width:4; stroke-opacity:1; fill:none" points="
  86.9921,1190.96 114.181,1190.96 
  "/>
<polyline clip-path="url(#clip260)" style="stroke:#000000; stroke-width:4; stroke-opacity:1; fill:none" points="
  86.9921,902.614 114.181,902.614 
  "/>
<polyline clip-path="url(#clip260)" style="stroke:#000000; stroke-width:4; stroke-opacity:1; fill:none" points="
  86.9921,614.272 114.181,614.272 
  "/>
<polyline clip-path="url(#clip260)" style="stroke:#000000; stroke-width:4; stroke-opacity:1; fill:none" points="
  86.9921,325.93 114.181,325.93 
  "/>
<path clip-path="url(#clip260)" d="M 0 0 M449.122 1543 Q445.511 1543 443.682 1546.56 Q441.876 1550.11 441.876 1557.23 Q441.876 1564.34 443.682 1567.91 Q445.511 1571.45 449.122 1571.45 Q452.756 1571.45 454.561 1567.91 Q456.39 1564.34 456.39 1557.23 Q456.39 1550.11 454.561 1546.56 Q452.756 1543 449.122 1543 M449.122 1539.29 Q454.932 1539.29 457.987 1543.9 Q461.066 1548.48 461.066 1557.23 Q461.066 1565.96 457.987 1570.57 Q454.932 1575.15 449.122 1575.15 Q443.312 1575.15 440.233 1570.57 Q437.177 1565.96 437.177 1557.23 Q437.177 1548.48 440.233 1543.9 Q443.312 1539.29 449.122 1539.29 Z" fill="#000000" fill-rule="evenodd" fill-opacity="1" /><path clip-path="url(#clip260)" d="M 0 0 M466.135 1568.6 L471.02 1568.6 L471.02 1574.48 L466.135 1574.48 L466.135 1568.6 Z" fill="#000000" fill-rule="evenodd" fill-opacity="1" /><path clip-path="url(#clip260)" d="M 0 0 M490.256 1555.85 Q493.612 1556.56 495.487 1558.83 Q497.385 1561.1 497.385 1564.43 Q497.385 1569.55 493.867 1572.35 Q490.348 1575.15 483.867 1575.15 Q481.691 1575.15 479.376 1574.71 Q477.084 1574.29 474.631 1573.44 L474.631 1568.92 Q476.575 1570.06 478.89 1570.64 Q481.205 1571.22 483.728 1571.22 Q488.126 1571.22 490.418 1569.48 Q492.733 1567.74 492.733 1564.43 Q492.733 1561.38 490.58 1559.67 Q488.45 1557.93 484.631 1557.93 L480.603 1557.93 L480.603 1554.09 L484.816 1554.09 Q488.265 1554.09 490.094 1552.72 Q491.922 1551.33 491.922 1548.74 Q491.922 1546.08 490.024 1544.67 Q488.149 1543.23 484.631 1543.23 Q482.709 1543.23 480.51 1543.65 Q478.311 1544.06 475.672 1544.94 L475.672 1540.78 Q478.334 1540.04 480.649 1539.67 Q482.987 1539.29 485.047 1539.29 Q490.371 1539.29 493.473 1541.73 Q496.575 1544.13 496.575 1548.25 Q496.575 1551.12 494.932 1553.11 Q493.288 1555.08 490.256 1555.85 Z" fill="#000000" fill-rule="evenodd" fill-opacity="1" /><path clip-path="url(#clip260)" d="M 0 0 M502.501 1539.92 L520.857 1539.92 L520.857 1543.86 L506.783 1543.86 L506.783 1552.33 Q507.802 1551.98 508.82 1551.82 Q509.839 1551.63 510.857 1551.63 Q516.644 1551.63 520.024 1554.8 Q523.404 1557.98 523.404 1563.39 Q523.404 1568.97 519.931 1572.07 Q516.459 1575.15 510.14 1575.15 Q507.964 1575.15 505.695 1574.78 Q503.45 1574.41 501.043 1573.67 L501.043 1568.97 Q503.126 1570.1 505.348 1570.66 Q507.57 1571.22 510.047 1571.22 Q514.052 1571.22 516.39 1569.11 Q518.728 1567 518.728 1563.39 Q518.728 1559.78 516.39 1557.67 Q514.052 1555.57 510.047 1555.57 Q508.172 1555.57 506.297 1555.98 Q504.445 1556.4 502.501 1557.28 L502.501 1539.92 Z" fill="#000000" fill-rule="evenodd" fill-opacity="1" /><path clip-path="url(#clip260)" d="M 0 0 M917.29 1543 Q913.679 1543 911.85 1546.56 Q910.045 1550.11 910.045 1557.23 Q910.045 1564.34 911.85 1567.91 Q913.679 1571.45 917.29 1571.45 Q920.924 1571.45 922.73 1567.91 Q924.559 1564.34 924.559 1557.23 Q924.559 1550.11 922.73 1546.56 Q920.924 1543 917.29 1543 M917.29 1539.29 Q923.1 1539.29 926.156 1543.9 Q929.234 1548.48 929.234 1557.23 Q929.234 1565.96 926.156 1570.57 Q923.1 1575.15 917.29 1575.15 Q911.48 1575.15 908.401 1570.57 Q905.346 1565.96 905.346 1557.23 Q905.346 1548.48 908.401 1543.9 Q911.48 1539.29 917.29 1539.29 Z" fill="#000000" fill-rule="evenodd" fill-opacity="1" /><path clip-path="url(#clip260)" d="M 0 0 M934.304 1568.6 L939.188 1568.6 L939.188 1574.48 L934.304 1574.48 L934.304 1568.6 Z" fill="#000000" fill-rule="evenodd" fill-opacity="1" /><path clip-path="url(#clip260)" d="M 0 0 M957.105 1543.99 L945.299 1562.44 L957.105 1562.44 L957.105 1543.99 M955.878 1539.92 L961.757 1539.92 L961.757 1562.44 L966.688 1562.44 L966.688 1566.33 L961.757 1566.33 L961.757 1574.48 L957.105 1574.48 L957.105 1566.33 L941.503 1566.33 L941.503 1561.82 L955.878 1539.92 Z" fill="#000000" fill-rule="evenodd" fill-opacity="1" /><path clip-path="url(#clip260)" d="M 0 0 M981.757 1543 Q978.146 1543 976.318 1546.56 Q974.512 1550.11 974.512 1557.23 Q974.512 1564.34 976.318 1567.91 Q978.146 1571.45 981.757 1571.45 Q985.392 1571.45 987.197 1567.91 Q989.026 1564.34 989.026 1557.23 Q989.026 1550.11 987.197 1546.56 Q985.392 1543 981.757 1543 M981.757 1539.29 Q987.567 1539.29 990.623 1543.9 Q993.702 1548.48 993.702 1557.23 Q993.702 1565.96 990.623 1570.57 Q987.567 1575.15 981.757 1575.15 Q975.947 1575.15 972.868 1570.57 Q969.813 1565.96 969.813 1557.23 Q969.813 1548.48 972.868 1543.9 Q975.947 1539.29 981.757 1539.29 Z" fill="#000000" fill-rule="evenodd" fill-opacity="1" /><path clip-path="url(#clip260)" d="M 0 0 M1387.02 1543 Q1383.41 1543 1381.58 1546.56 Q1379.78 1550.11 1379.78 1557.23 Q1379.78 1564.34 1381.58 1567.91 Q1383.41 1571.45 1387.02 1571.45 Q1390.66 1571.45 1392.46 1567.91 Q1394.29 1564.34 1394.29 1557.23 Q1394.29 1550.11 1392.46 1546.56 Q1390.66 1543 1387.02 1543 M1387.02 1539.29 Q1392.83 1539.29 1395.89 1543.9 Q1398.97 1548.48 1398.97 1557.23 Q1398.97 1565.96 1395.89 1570.57 Q1392.83 1575.15 1387.02 1575.15 Q1381.21 1575.15 1378.13 1570.57 Q1375.08 1565.96 1375.08 1557.23 Q1375.08 1548.48 1378.13 1543.9 Q1381.21 1539.29 1387.02 1539.29 Z" fill="#000000" fill-rule="evenodd" fill-opacity="1" /><path clip-path="url(#clip260)" d="M 0 0 M1404.03 1568.6 L1408.92 1568.6 L1408.92 1574.48 L1404.03 1574.48 L1404.03 1568.6 Z" fill="#000000" fill-rule="evenodd" fill-opacity="1" /><path clip-path="url(#clip260)" d="M 0 0 M1426.84 1543.99 L1415.03 1562.44 L1426.84 1562.44 L1426.84 1543.99 M1425.61 1539.92 L1431.49 1539.92 L1431.49 1562.44 L1436.42 1562.44 L1436.42 1566.33 L1431.49 1566.33 L1431.49 1574.48 L1426.84 1574.48 L1426.84 1566.33 L1411.23 1566.33 L1411.23 1561.82 L1425.61 1539.92 Z" fill="#000000" fill-rule="evenodd" fill-opacity="1" /><path clip-path="url(#clip260)" d="M 0 0 M1441.53 1539.92 L1459.89 1539.92 L1459.89 1543.86 L1445.82 1543.86 L1445.82 1552.33 Q1446.84 1551.98 1447.85 1551.82 Q1448.87 1551.63 1449.89 1551.63 Q1455.68 1551.63 1459.06 1554.8 Q1462.44 1557.98 1462.44 1563.39 Q1462.44 1568.97 1458.97 1572.07 Q1455.49 1575.15 1449.17 1575.15 Q1447 1575.15 1444.73 1574.78 Q1442.48 1574.41 1440.08 1573.67 L1440.08 1568.97 Q1442.16 1570.1 1444.38 1570.66 Q1446.6 1571.22 1449.08 1571.22 Q1453.09 1571.22 1455.42 1569.11 Q1457.76 1567 1457.76 1563.39 Q1457.76 1559.78 1455.42 1557.67 Q1453.09 1555.57 1449.08 1555.57 Q1447.21 1555.57 1445.33 1555.98 Q1443.48 1556.4 1441.53 1557.28 L1441.53 1539.92 Z" fill="#000000" fill-rule="evenodd" fill-opacity="1" /><path clip-path="url(#clip260)" d="M 0 0 M1856.5 1543 Q1852.89 1543 1851.06 1546.56 Q1849.25 1550.11 1849.25 1557.23 Q1849.25 1564.34 1851.06 1567.91 Q1852.89 1571.45 1856.5 1571.45 Q1860.13 1571.45 1861.94 1567.91 Q1863.77 1564.34 1863.77 1557.23 Q1863.77 1550.11 1861.94 1546.56 Q1860.13 1543 1856.5 1543 M1856.5 1539.29 Q1862.31 1539.29 1865.36 1543.9 Q1868.44 1548.48 1868.44 1557.23 Q1868.44 1565.96 1865.36 1570.57 Q1862.31 1575.15 1856.5 1575.15 Q1850.69 1575.15 1847.61 1570.57 Q1844.55 1565.96 1844.55 1557.23 Q1844.55 1548.48 1847.61 1543.9 Q1850.69 1539.29 1856.5 1539.29 Z" fill="#000000" fill-rule="evenodd" fill-opacity="1" /><path clip-path="url(#clip260)" d="M 0 0 M1873.51 1568.6 L1878.4 1568.6 L1878.4 1574.48 L1873.51 1574.48 L1873.51 1568.6 Z" fill="#000000" fill-rule="evenodd" fill-opacity="1" /><path clip-path="url(#clip260)" d="M 0 0 M1883.51 1539.92 L1901.87 1539.92 L1901.87 1543.86 L1887.79 1543.86 L1887.79 1552.33 Q1888.81 1551.98 1889.83 1551.82 Q1890.85 1551.63 1891.87 1551.63 Q1897.65 1551.63 1901.03 1554.8 Q1904.41 1557.98 1904.41 1563.39 Q1904.41 1568.97 1900.94 1572.07 Q1897.47 1575.15 1891.15 1575.15 Q1888.97 1575.15 1886.71 1574.78 Q1884.46 1574.41 1882.05 1573.67 L1882.05 1568.97 Q1884.14 1570.1 1886.36 1570.66 Q1888.58 1571.22 1891.06 1571.22 Q1895.06 1571.22 1897.4 1569.11 Q1899.74 1567 1899.74 1563.39 Q1899.74 1559.78 1897.4 1557.67 Q1895.06 1555.57 1891.06 1555.57 Q1889.18 1555.57 1887.31 1555.98 Q1885.46 1556.4 1883.51 1557.28 L1883.51 1539.92 Z" fill="#000000" fill-rule="evenodd" fill-opacity="1" /><path clip-path="url(#clip260)" d="M 0 0 M1919.48 1543 Q1915.87 1543 1914.04 1546.56 Q1912.24 1550.11 1912.24 1557.23 Q1912.24 1564.34 1914.04 1567.91 Q1915.87 1571.45 1919.48 1571.45 Q1923.12 1571.45 1924.92 1567.91 Q1926.75 1564.34 1926.75 1557.23 Q1926.75 1550.11 1924.92 1546.56 Q1923.12 1543 1919.48 1543 M1919.48 1539.29 Q1925.29 1539.29 1928.35 1543.9 Q1931.43 1548.48 1931.43 1557.23 Q1931.43 1565.96 1928.35 1570.57 Q1925.29 1575.15 1919.48 1575.15 Q1913.67 1575.15 1910.59 1570.57 Q1907.54 1565.96 1907.54 1557.23 Q1907.54 1548.48 1910.59 1543.9 Q1913.67 1539.29 1919.48 1539.29 Z" fill="#000000" fill-rule="evenodd" fill-opacity="1" /><path clip-path="url(#clip260)" d="M 0 0 M14.0804 1465.1 Q10.4693 1465.1 8.64057 1468.66 Q6.83502 1472.2 6.83502 1479.33 Q6.83502 1486.44 8.64057 1490 Q10.4693 1493.55 14.0804 1493.55 Q17.7146 1493.55 19.5201 1490 Q21.3488 1486.44 21.3488 1479.33 Q21.3488 1472.2 19.5201 1468.66 Q17.7146 1465.1 14.0804 1465.1 M14.0804 1461.39 Q19.8905 1461.39 22.946 1466 Q26.0247 1470.58 26.0247 1479.33 Q26.0247 1488.06 22.946 1492.67 Q19.8905 1497.25 14.0804 1497.25 Q8.2702 1497.25 5.19151 1492.67 Q2.13597 1488.06 2.13597 1479.33 Q2.13597 1470.58 5.19151 1466 Q8.2702 1461.39 14.0804 1461.39 Z" fill="#000000" fill-rule="evenodd" fill-opacity="1" /><path clip-path="url(#clip260)" d="M 0 0 M31.0941 1490.7 L35.9784 1490.7 L35.9784 1496.58 L31.0941 1496.58 L31.0941 1490.7 Z" fill="#000000" fill-rule="evenodd" fill-opacity="1" /><path clip-path="url(#clip260)" d="M 0 0 M51.0477 1465.1 Q47.4367 1465.1 45.608 1468.66 Q43.8024 1472.2 43.8024 1479.33 Q43.8024 1486.44 45.608 1490 Q47.4367 1493.55 51.0477 1493.55 Q54.682 1493.55 56.4875 1490 Q58.3162 1486.44 58.3162 1479.33 Q58.3162 1472.2 56.4875 1468.66 Q54.682 1465.1 51.0477 1465.1 M51.0477 1461.39 Q56.8579 1461.39 59.9134 1466 Q62.9921 1470.58 62.9921 1479.33 Q62.9921 1488.06 59.9134 1492.67 Q56.8579 1497.25 51.0477 1497.25 Q45.2376 1497.25 42.1589 1492.67 Q39.1034 1488.06 39.1034 1479.33 Q39.1034 1470.58 42.1589 1466 Q45.2376 1461.39 51.0477 1461.39 Z" fill="#000000" fill-rule="evenodd" fill-opacity="1" /><path clip-path="url(#clip260)" d="M 0 0 M10.7007 1204.3 L27.0201 1204.3 L27.0201 1208.24 L5.07577 1208.24 L5.07577 1204.3 Q7.73779 1201.55 12.3211 1196.92 Q16.9276 1192.26 18.1081 1190.92 Q20.3535 1188.4 21.2331 1186.66 Q22.1359 1184.9 22.1359 1183.21 Q22.1359 1180.46 20.1914 1178.72 Q18.2701 1176.99 15.1683 1176.99 Q12.9692 1176.99 10.5156 1177.75 Q8.08501 1178.51 5.30725 1180.06 L5.30725 1175.34 Q8.13131 1174.21 10.585 1173.63 Q13.0387 1173.05 15.0757 1173.05 Q20.4461 1173.05 23.6405 1175.74 Q26.8349 1178.42 26.8349 1182.91 Q26.8349 1185.04 26.0247 1186.96 Q25.2377 1188.86 23.1312 1191.45 Q22.5525 1192.12 19.4507 1195.34 Q16.3489 1198.54 10.7007 1204.3 Z" fill="#000000" fill-rule="evenodd" fill-opacity="1" /><path clip-path="url(#clip260)" d="M 0 0 M32.0895 1202.36 L36.9737 1202.36 L36.9737 1208.24 L32.0895 1208.24 L32.0895 1202.36 Z" fill="#000000" fill-rule="evenodd" fill-opacity="1" /><path clip-path="url(#clip260)" d="M 0 0 M42.0895 1173.68 L60.4458 1173.68 L60.4458 1177.61 L46.3718 1177.61 L46.3718 1186.08 Q47.3904 1185.74 48.4089 1185.57 Q49.4274 1185.39 50.4459 1185.39 Q56.2329 1185.39 59.6125 1188.56 Q62.9921 1191.73 62.9921 1197.15 Q62.9921 1202.73 59.5199 1205.83 Q56.0477 1208.91 49.7283 1208.91 Q47.5524 1208.91 45.2839 1208.54 Q43.0385 1208.17 40.6311 1207.43 L40.6311 1202.73 Q42.7145 1203.86 44.9367 1204.42 Q47.1589 1204.97 49.6357 1204.97 Q53.6403 1204.97 55.9783 1202.87 Q58.3162 1200.76 58.3162 1197.15 Q58.3162 1193.54 55.9783 1191.43 Q53.6403 1189.32 49.6357 1189.32 Q47.7607 1189.32 45.8857 1189.74 Q44.0339 1190.16 42.0895 1191.04 L42.0895 1173.68 Z" fill="#000000" fill-rule="evenodd" fill-opacity="1" /><path clip-path="url(#clip260)" d="M 0 0 M5.12207 885.334 L23.4784 885.334 L23.4784 889.269 L9.40445 889.269 L9.40445 897.741 Q10.423 897.394 11.4415 897.232 Q12.46 897.047 13.4785 897.047 Q19.2655 897.047 22.6451 900.218 Q26.0247 903.389 26.0247 908.806 Q26.0247 914.384 22.5525 917.486 Q19.0803 920.565 12.7609 920.565 Q10.585 920.565 8.31649 920.195 Q6.07113 919.824 3.66374 919.083 L3.66374 914.384 Q5.74706 915.519 7.96927 916.074 Q10.1915 916.63 12.6683 916.63 Q16.6729 916.63 19.0109 914.523 Q21.3488 912.417 21.3488 908.806 Q21.3488 905.195 19.0109 903.088 Q16.6729 900.982 12.6683 900.982 Q10.7933 900.982 8.91834 901.398 Q7.0665 901.815 5.12207 902.695 L5.12207 885.334 Z" fill="#000000" fill-rule="evenodd" fill-opacity="1" /><path clip-path="url(#clip260)" d="M 0 0 M31.0941 914.014 L35.9784 914.014 L35.9784 919.894 L31.0941 919.894 L31.0941 914.014 Z" fill="#000000" fill-rule="evenodd" fill-opacity="1" /><path clip-path="url(#clip260)" d="M 0 0 M51.0477 888.412 Q47.4367 888.412 45.608 891.977 Q43.8024 895.519 43.8024 902.648 Q43.8024 909.755 45.608 913.32 Q47.4367 916.861 51.0477 916.861 Q54.682 916.861 56.4875 913.32 Q58.3162 909.755 58.3162 902.648 Q58.3162 895.519 56.4875 891.977 Q54.682 888.412 51.0477 888.412 M51.0477 884.709 Q56.8579 884.709 59.9134 889.315 Q62.9921 893.898 62.9921 902.648 Q62.9921 911.375 59.9134 915.982 Q56.8579 920.565 51.0477 920.565 Q45.2376 920.565 42.1589 915.982 Q39.1034 911.375 39.1034 902.648 Q39.1034 893.898 42.1589 889.315 Q45.2376 884.709 51.0477 884.709 Z" fill="#000000" fill-rule="evenodd" fill-opacity="1" /><path clip-path="url(#clip260)" d="M 0 0 M4.79799 596.992 L27.0201 596.992 L27.0201 598.982 L14.4739 631.552 L9.58963 631.552 L21.3951 600.927 L4.79799 600.927 L4.79799 596.992 Z" fill="#000000" fill-rule="evenodd" fill-opacity="1" /><path clip-path="url(#clip260)" d="M 0 0 M32.0895 625.672 L36.9737 625.672 L36.9737 631.552 L32.0895 631.552 L32.0895 625.672 Z" fill="#000000" fill-rule="evenodd" fill-opacity="1" /><path clip-path="url(#clip260)" d="M 0 0 M42.0895 596.992 L60.4458 596.992 L60.4458 600.927 L46.3718 600.927 L46.3718 609.399 Q47.3904 609.052 48.4089 608.89 Q49.4274 608.705 50.4459 608.705 Q56.2329 608.705 59.6125 611.876 Q62.9921 615.047 62.9921 620.464 Q62.9921 626.042 59.5199 629.144 Q56.0477 632.223 49.7283 632.223 Q47.5524 632.223 45.2839 631.853 Q43.0385 631.482 40.6311 630.741 L40.6311 626.042 Q42.7145 627.177 44.9367 627.732 Q47.1589 628.288 49.6357 628.288 Q53.6403 628.288 55.9783 626.181 Q58.3162 624.075 58.3162 620.464 Q58.3162 616.853 55.9783 614.746 Q53.6403 612.64 49.6357 612.64 Q47.7607 612.64 45.8857 613.056 Q44.0339 613.473 42.0895 614.353 L42.0895 596.992 Z" fill="#000000" fill-rule="evenodd" fill-opacity="1" /><path clip-path="url(#clip260)" d="M 0 0 M-20.8963 339.274 L-13.2575 339.274 L-13.2575 312.909 L-21.5676 314.576 L-21.5676 310.316 L-13.3038 308.65 L-8.62786 308.65 L-8.62786 339.274 L-0.989013 339.274 L-0.989013 343.21 L-20.8963 343.21 L-20.8963 339.274 Z" fill="#000000" fill-rule="evenodd" fill-opacity="1" /><path clip-path="url(#clip260)" d="M 0 0 M14.0804 311.728 Q10.4693 311.728 8.64057 315.293 Q6.83502 318.835 6.83502 325.964 Q6.83502 333.071 8.64057 336.636 Q10.4693 340.177 14.0804 340.177 Q17.7146 340.177 19.5201 336.636 Q21.3488 333.071 21.3488 325.964 Q21.3488 318.835 19.5201 315.293 Q17.7146 311.728 14.0804 311.728 M14.0804 308.025 Q19.8905 308.025 22.946 312.631 Q26.0247 317.214 26.0247 325.964 Q26.0247 334.691 22.946 339.298 Q19.8905 343.881 14.0804 343.881 Q8.2702 343.881 5.19151 339.298 Q2.13597 334.691 2.13597 325.964 Q2.13597 317.214 5.19151 312.631 Q8.2702 308.025 14.0804 308.025 Z" fill="#000000" fill-rule="evenodd" fill-opacity="1" /><path clip-path="url(#clip260)" d="M 0 0 M31.0941 337.33 L35.9784 337.33 L35.9784 343.21 L31.0941 343.21 L31.0941 337.33 Z" fill="#000000" fill-rule="evenodd" fill-opacity="1" /><path clip-path="url(#clip260)" d="M 0 0 M51.0477 311.728 Q47.4367 311.728 45.608 315.293 Q43.8024 318.835 43.8024 325.964 Q43.8024 333.071 45.608 336.636 Q47.4367 340.177 51.0477 340.177 Q54.682 340.177 56.4875 336.636 Q58.3162 333.071 58.3162 325.964 Q58.3162 318.835 56.4875 315.293 Q54.682 311.728 51.0477 311.728 M51.0477 308.025 Q56.8579 308.025 59.9134 312.631 Q62.9921 317.214 62.9921 325.964 Q62.9921 334.691 59.9134 339.298 Q56.8579 343.881 51.0477 343.881 Q45.2376 343.881 42.1589 339.298 Q39.1034 334.691 39.1034 325.964 Q39.1034 317.214 42.1589 312.631 Q45.2376 308.025 51.0477 308.025 Z" fill="#000000" fill-rule="evenodd" fill-opacity="1" /><path clip-path="url(#clip262)" d="
M151.118 1471.49 L157.155 1471.24 L163.193 1471.14 L169.23 1471.18 L175.268 1471.35 L181.305 1471.65 L187.343 1472.04 L193.381 1472.51 L199.418 1473.02 L205.456 1473.54 
  L211.493 1474.03 L217.531 1474.48 L223.569 1474.83 L229.606 1475.08 L235.644 1475.21 L241.681 1475.17 L247.719 1474.98 L253.756 1474.59 L259.794 1474.01 L265.832 1473.22 
  L271.869 1472.23 L277.907 1471.02 L283.944 1469.63 L289.982 1468.06 L296.02 1466.35 L302.057 1464.55 L308.095 1462.71 L314.132 1460.88 L320.17 1459.14 L326.207 1457.54 
  L332.245 1456.13 L338.283 1454.96 L344.32 1454.04 L350.358 1453.39 L356.395 1452.97 L362.433 1452.73 L368.471 1452.6 L374.508 1452.48 L380.546 1452.26 L386.583 1451.82 
  L392.621 1451.03 L398.658 1449.8 L404.696 1448.03 L410.734 1445.69 L416.771 1442.74 L422.809 1439.23 L428.846 1435.23 L434.884 1430.85 L440.921 1426.24 L446.959 1421.58 
  L452.997 1417.04 L459.034 1412.79 L465.072 1408.98 L471.109 1405.71 L477.147 1403.04 L483.185 1400.95 L489.222 1399.38 L495.26 1398.2 L501.297 1397.26 L507.335 1396.35 
  L513.372 1395.25 L519.41 1393.76 L525.448 1391.7 L531.485 1388.9 L537.523 1385.27 L543.56 1380.75 L549.598 1375.34 L555.636 1369.11 L561.673 1362.14 L567.711 1354.57 
  L573.748 1346.56 L579.786 1338.29 L585.823 1329.91 L591.861 1321.6 L597.899 1313.5 L603.936 1305.73 L609.974 1298.39 L616.011 1291.54 L622.049 1285.21 L628.087 1279.41 
  L634.124 1274.1 L640.162 1269.23 L646.199 1264.71 L652.237 1260.43 L658.274 1256.24 L664.312 1251.97 L670.35 1247.43 L676.387 1242.38 L682.425 1236.57 L688.462 1229.73 
  L694.5 1221.57 L700.538 1211.8 L706.575 1200.11 L712.613 1186.25 L718.65 1169.96 L724.688 1151.08 L730.725 1129.48 L736.763 1105.15 L742.801 1078.18 L748.838 1048.77 
  L748.838 1479.3 L742.801 1479.3 L736.763 1479.3 L730.725 1479.3 L724.688 1479.3 L718.65 1479.3 L712.613 1479.3 L706.575 1479.3 L700.538 1479.3 L694.5 1479.3 
  L688.462 1479.3 L682.425 1479.3 L676.387 1479.3 L670.35 1479.3 L664.312 1479.3 L658.274 1479.3 L652.237 1479.3 L646.199 1479.3 L640.162 1479.3 L634.124 1479.3 
  L628.087 1479.3 L622.049 1479.3 L616.011 1479.3 L609.974 1479.3 L603.936 1479.3 L597.899 1479.3 L591.861 1479.3 L585.823 1479.3 L579.786 1479.3 L573.748 1479.3 
  L567.711 1479.3 L561.673 1479.3 L555.636 1479.3 L549.598 1479.3 L543.56 1479.3 L537.523 1479.3 L531.485 1479.3 L525.448 1479.3 L519.41 1479.3 L513.372 1479.3 
  L507.335 1479.3 L501.297 1479.3 L495.26 1479.3 L489.222 1479.3 L483.185 1479.3 L477.147 1479.3 L471.109 1479.3 L465.072 1479.3 L459.034 1479.3 L452.997 1479.3 
  L446.959 1479.3 L440.921 1479.3 L434.884 1479.3 L428.846 1479.3 L422.809 1479.3 L416.771 1479.3 L410.734 1479.3 L404.696 1479.3 L398.658 1479.3 L392.621 1479.3 
  L386.583 1479.3 L380.546 1479.3 L374.508 1479.3 L368.471 1479.3 L362.433 1479.3 L356.395 1479.3 L350.358 1479.3 L344.32 1479.3 L338.283 1479.3 L332.245 1479.3 
  L326.207 1479.3 L320.17 1479.3 L314.132 1479.3 L308.095 1479.3 L302.057 1479.3 L296.02 1479.3 L289.982 1479.3 L283.944 1479.3 L277.907 1479.3 L271.869 1479.3 
  L265.832 1479.3 L259.794 1479.3 L253.756 1479.3 L247.719 1479.3 L241.681 1479.3 L235.644 1479.3 L229.606 1479.3 L223.569 1479.3 L217.531 1479.3 L211.493 1479.3 
  L205.456 1479.3 L199.418 1479.3 L193.381 1479.3 L187.343 1479.3 L181.305 1479.3 L175.268 1479.3 L169.23 1479.3 L163.193 1479.3 L157.155 1479.3 L151.118 1479.3 
   Z
  " fill="#ffa500" fill-rule="evenodd" fill-opacity="0.5"/>
<polyline clip-path="url(#clip262)" style="stroke:#ffa500; stroke-width:4; stroke-opacity:1; fill:none" points="
  151.118,1471.49 157.155,1471.24 163.193,1471.14 169.23,1471.18 175.268,1471.35 181.305,1471.65 187.343,1472.04 193.381,1472.51 199.418,1473.02 205.456,1473.54 
  211.493,1474.03 217.531,1474.48 223.569,1474.83 229.606,1475.08 235.644,1475.21 241.681,1475.17 247.719,1474.98 253.756,1474.59 259.794,1474.01 265.832,1473.22 
  271.869,1472.23 277.907,1471.02 283.944,1469.63 289.982,1468.06 296.02,1466.35 302.057,1464.55 308.095,1462.71 314.132,1460.88 320.17,1459.14 326.207,1457.54 
  332.245,1456.13 338.283,1454.96 344.32,1454.04 350.358,1453.39 356.395,1452.97 362.433,1452.73 368.471,1452.6 374.508,1452.48 380.546,1452.26 386.583,1451.82 
  392.621,1451.03 398.658,1449.8 404.696,1448.03 410.734,1445.69 416.771,1442.74 422.809,1439.23 428.846,1435.23 434.884,1430.85 440.921,1426.24 446.959,1421.58 
  452.997,1417.04 459.034,1412.79 465.072,1408.98 471.109,1405.71 477.147,1403.04 483.185,1400.95 489.222,1399.38 495.26,1398.2 501.297,1397.26 507.335,1396.35 
  513.372,1395.25 519.41,1393.76 525.448,1391.7 531.485,1388.9 537.523,1385.27 543.56,1380.75 549.598,1375.34 555.636,1369.11 561.673,1362.14 567.711,1354.57 
  573.748,1346.56 579.786,1338.29 585.823,1329.91 591.861,1321.6 597.899,1313.5 603.936,1305.73 609.974,1298.39 616.011,1291.54 622.049,1285.21 628.087,1279.41 
  634.124,1274.1 640.162,1269.23 646.199,1264.71 652.237,1260.43 658.274,1256.24 664.312,1251.97 670.35,1247.43 676.387,1242.38 682.425,1236.57 688.462,1229.73 
  694.5,1221.57 700.538,1211.8 706.575,1200.11 712.613,1186.25 718.65,1169.96 724.688,1151.08 730.725,1129.48 736.763,1105.15 742.801,1078.18 748.838,1048.77 
  
  "/>
<path clip-path="url(#clip262)" d="
M748.838 1048.77 L758.608 996.931 L768.378 941.819 L778.148 886.396 L787.918 834.152 L797.688 788.658 L807.458 753.017 L817.228 729.303 L826.999 718.126 L836.769 718.432 
  L846.539 727.61 L856.309 741.875 L866.079 756.87 L875.849 768.327 L885.619 772.671 L895.389 767.468 L905.159 751.644 L914.929 725.488 L924.699 690.448 L934.469 648.794 
  L944.239 603.201 L954.009 556.348 L963.779 510.573 L973.549 467.657 L983.319 428.74 L993.089 394.352 L1002.86 364.512 L1012.63 338.858 L1022.4 316.757 L1032.17 297.408 
  L1041.94 279.94 L1051.71 263.53 L1061.48 247.526 L1071.25 231.571 L1081.02 215.67 L1090.79 200.16 L1100.56 185.603 L1110.33 172.592 L1120.1 161.556 L1129.87 152.622 
  L1139.64 145.577 L1149.41 139.943 L1159.18 135.122 L1168.95 130.563 L1178.72 125.868 L1188.49 120.832 L1198.26 115.415 L1208.03 109.694 L1217.8 103.847 L1227.57 98.1934 
  L1237.34 93.2605 L1247.11 89.8383 L1256.88 88.9544 L1266.65 91.743 L1276.42 99.2245 L1286.19 112.055 L1295.96 130.328 L1305.73 153.486 L1315.5 180.378 L1325.27 209.433 
  L1335.04 238.885 L1344.81 266.997 L1354.58 292.234 L1364.35 313.374 L1374.12 329.573 L1383.89 340.415 L1393.66 345.955 L1403.43 346.754 L1413.2 343.859 L1422.97 338.716 
  L1432.74 332.987 L1442.51 328.313 L1452.28 326.076 L1462.05 327.243 L1471.82 332.338 L1481.59 341.541 L1491.36 354.88 L1501.13 372.408 L1510.9 394.302 L1520.67 420.841 
  L1530.44 452.273 L1540.21 488.635 L1549.98 529.609 L1559.75 574.462 L1569.52 622.117 L1579.29 671.301 L1589.06 720.754 L1598.83 769.4 L1608.6 816.458 L1618.37 861.452 
  L1628.14 904.153 L1637.91 944.47 L1647.68 982.337 L1657.45 1017.64 L1667.22 1050.18 L1676.99 1079.69 L1686.76 1105.9 L1696.53 1128.6 L1706.3 1147.68 L1716.07 1163.22 
  L1716.07 1479.3 L1706.3 1479.3 L1696.53 1479.3 L1686.76 1479.3 L1676.99 1479.3 L1667.22 1479.3 L1657.45 1479.3 L1647.68 1479.3 L1637.91 1479.3 L1628.14 1479.3 
  L1618.37 1479.3 L1608.6 1479.3 L1598.83 1479.3 L1589.06 1479.3 L1579.29 1479.3 L1569.52 1479.3 L1559.75 1479.3 L1549.98 1479.3 L1540.21 1479.3 L1530.44 1479.3 
  L1520.67 1479.3 L1510.9 1479.3 L1501.13 1479.3 L1491.36 1479.3 L1481.59 1479.3 L1471.82 1479.3 L1462.05 1479.3 L1452.28 1479.3 L1442.51 1479.3 L1432.74 1479.3 
  L1422.97 1479.3 L1413.2 1479.3 L1403.43 1479.3 L1393.66 1479.3 L1383.89 1479.3 L1374.12 1479.3 L1364.35 1479.3 L1354.58 1479.3 L1344.81 1479.3 L1335.04 1479.3 
  L1325.27 1479.3 L1315.5 1479.3 L1305.73 1479.3 L1295.96 1479.3 L1286.19 1479.3 L1276.42 1479.3 L1266.65 1479.3 L1256.88 1479.3 L1247.11 1479.3 L1237.34 1479.3 
  L1227.57 1479.3 L1217.8 1479.3 L1208.03 1479.3 L1198.26 1479.3 L1188.49 1479.3 L1178.72 1479.3 L1168.95 1479.3 L1159.18 1479.3 L1149.41 1479.3 L1139.64 1479.3 
  L1129.87 1479.3 L1120.1 1479.3 L1110.33 1479.3 L1100.56 1479.3 L1090.79 1479.3 L1081.02 1479.3 L1071.25 1479.3 L1061.48 1479.3 L1051.71 1479.3 L1041.94 1479.3 
  L1032.17 1479.3 L1022.4 1479.3 L1012.63 1479.3 L1002.86 1479.3 L993.089 1479.3 L983.319 1479.3 L973.549 1479.3 L963.779 1479.3 L954.009 1479.3 L944.239 1479.3 
  L934.469 1479.3 L924.699 1479.3 L914.929 1479.3 L905.159 1479.3 L895.389 1479.3 L885.619 1479.3 L875.849 1479.3 L866.079 1479.3 L856.309 1479.3 L846.539 1479.3 
  L836.769 1479.3 L826.999 1479.3 L817.228 1479.3 L807.458 1479.3 L797.688 1479.3 L787.918 1479.3 L778.148 1479.3 L768.378 1479.3 L758.608 1479.3 L748.838 1479.3 
   Z
  " fill="#008000" fill-rule="evenodd" fill-opacity="0.5"/>
<polyline clip-path="url(#clip262)" style="stroke:#008000; stroke-width:4; stroke-opacity:1; fill:none" points="
  748.838,1048.77 758.608,996.931 768.378,941.819 778.148,886.396 787.918,834.152 797.688,788.658 807.458,753.017 817.228,729.303 826.999,718.126 836.769,718.432 
  846.539,727.61 856.309,741.875 866.079,756.87 875.849,768.327 885.619,772.671 895.389,767.468 905.159,751.644 914.929,725.488 924.699,690.448 934.469,648.794 
  944.239,603.201 954.009,556.348 963.779,510.573 973.549,467.657 983.319,428.74 993.089,394.352 1002.86,364.512 1012.63,338.858 1022.4,316.757 1032.17,297.408 
  1041.94,279.94 1051.71,263.53 1061.48,247.526 1071.25,231.571 1081.02,215.67 1090.79,200.16 1100.56,185.603 1110.33,172.592 1120.1,161.556 1129.87,152.622 
  1139.64,145.577 1149.41,139.943 1159.18,135.122 1168.95,130.563 1178.72,125.868 1188.49,120.832 1198.26,115.415 1208.03,109.694 1217.8,103.847 1227.57,98.1934 
  1237.34,93.2605 1247.11,89.8383 1256.88,88.9544 1266.65,91.743 1276.42,99.2245 1286.19,112.055 1295.96,130.328 1305.73,153.486 1315.5,180.378 1325.27,209.433 
  1335.04,238.885 1344.81,266.997 1354.58,292.234 1364.35,313.374 1374.12,329.573 1383.89,340.415 1393.66,345.955 1403.43,346.754 1413.2,343.859 1422.97,338.716 
  1432.74,332.987 1442.51,328.313 1452.28,326.076 1462.05,327.243 1471.82,332.338 1481.59,341.541 1491.36,354.88 1501.13,372.408 1510.9,394.302 1520.67,420.841 
  1530.44,452.273 1540.21,488.635 1549.98,529.609 1559.75,574.462 1569.52,622.117 1579.29,671.301 1589.06,720.754 1598.83,769.4 1608.6,816.458 1618.37,861.452 
  1628.14,904.153 1637.91,944.47 1647.68,982.337 1657.45,1017.64 1667.22,1050.18 1676.99,1079.69 1686.76,1105.9 1696.53,1128.6 1706.3,1147.68 1716.07,1163.22 
  
  "/>
<path clip-path="url(#clip262)" d="
M1716.07 1163.22 L1721.86 1170.86 L1727.64 1177.45 L1733.42 1183.08 L1739.21 1187.91 L1744.99 1192.08 L1750.77 1195.77 L1756.56 1199.16 L1762.34 1202.46 L1768.12 1205.86 
  L1773.91 1209.56 L1779.69 1213.77 L1785.47 1218.64 L1791.26 1224.33 L1797.04 1230.94 L1802.82 1238.52 L1808.61 1247.07 L1814.39 1256.55 L1820.17 1266.85 L1825.96 1277.79 
  L1831.74 1289.18 L1837.52 1300.78 L1843.31 1312.34 L1849.09 1323.62 L1854.87 1334.38 L1860.66 1344.4 L1866.44 1353.54 L1872.22 1361.67 L1878.01 1368.74 L1883.79 1374.73 
  L1889.57 1379.71 L1895.36 1383.76 L1901.14 1387.01 L1906.92 1389.63 L1912.71 1391.78 L1918.49 1393.64 L1924.27 1395.36 L1930.06 1397.09 L1935.84 1398.94 L1941.63 1400.99 
  L1947.41 1403.27 L1953.19 1405.81 L1958.98 1408.58 L1964.76 1411.54 L1970.54 1414.62 L1976.33 1417.77 L1982.11 1420.91 L1987.89 1424 L1993.68 1426.98 L1999.46 1429.84 
  L2005.24 1432.57 L2011.03 1435.15 L2016.81 1437.62 L2022.59 1439.97 L2028.38 1442.24 L2034.16 1444.43 L2039.94 1446.55 L2045.73 1448.58 L2051.51 1450.51 L2057.29 1452.32 
  L2063.08 1453.95 L2068.86 1455.37 L2074.64 1456.55 L2080.43 1457.44 L2086.21 1458.02 L2091.99 1458.28 L2097.78 1458.22 L2103.56 1457.86 L2109.34 1457.24 L2115.13 1456.39 
  L2120.91 1455.39 L2126.69 1454.3 L2132.48 1453.2 L2138.26 1452.17 L2144.04 1451.27 L2149.83 1450.58 L2155.61 1450.14 L2161.4 1450 L2167.18 1450.17 L2172.96 1450.66 
  L2178.75 1451.46 L2184.53 1452.53 L2190.31 1453.82 L2196.1 1455.29 L2201.88 1456.85 L2207.66 1458.45 L2213.45 1460.02 L2219.23 1461.5 L2225.01 1462.84 L2230.8 1464.02 
  L2236.58 1465.01 L2242.36 1465.82 L2248.15 1466.45 L2253.93 1466.93 L2259.71 1467.3 L2265.5 1467.59 L2271.28 1467.85 L2277.06 1468.12 L2282.85 1468.43 L2288.63 1468.81 
  L2288.63 1479.3 L2282.85 1479.3 L2277.06 1479.3 L2271.28 1479.3 L2265.5 1479.3 L2259.71 1479.3 L2253.93 1479.3 L2248.15 1479.3 L2242.36 1479.3 L2236.58 1479.3 
  L2230.8 1479.3 L2225.01 1479.3 L2219.23 1479.3 L2213.45 1479.3 L2207.66 1479.3 L2201.88 1479.3 L2196.1 1479.3 L2190.31 1479.3 L2184.53 1479.3 L2178.75 1479.3 
  L2172.96 1479.3 L2167.18 1479.3 L2161.4 1479.3 L2155.61 1479.3 L2149.83 1479.3 L2144.04 1479.3 L2138.26 1479.3 L2132.48 1479.3 L2126.69 1479.3 L2120.91 1479.3 
  L2115.13 1479.3 L2109.34 1479.3 L2103.56 1479.3 L2097.78 1479.3 L2091.99 1479.3 L2086.21 1479.3 L2080.43 1479.3 L2074.64 1479.3 L2068.86 1479.3 L2063.08 1479.3 
  L2057.29 1479.3 L2051.51 1479.3 L2045.73 1479.3 L2039.94 1479.3 L2034.16 1479.3 L2028.38 1479.3 L2022.59 1479.3 L2016.81 1479.3 L2011.03 1479.3 L2005.24 1479.3 
  L1999.46 1479.3 L1993.68 1479.3 L1987.89 1479.3 L1982.11 1479.3 L1976.33 1479.3 L1970.54 1479.3 L1964.76 1479.3 L1958.98 1479.3 L1953.19 1479.3 L1947.41 1479.3 
  L1941.63 1479.3 L1935.84 1479.3 L1930.06 1479.3 L1924.27 1479.3 L1918.49 1479.3 L1912.71 1479.3 L1906.92 1479.3 L1901.14 1479.3 L1895.36 1479.3 L1889.57 1479.3 
  L1883.79 1479.3 L1878.01 1479.3 L1872.22 1479.3 L1866.44 1479.3 L1860.66 1479.3 L1854.87 1479.3 L1849.09 1479.3 L1843.31 1479.3 L1837.52 1479.3 L1831.74 1479.3 
  L1825.96 1479.3 L1820.17 1479.3 L1814.39 1479.3 L1808.61 1479.3 L1802.82 1479.3 L1797.04 1479.3 L1791.26 1479.3 L1785.47 1479.3 L1779.69 1479.3 L1773.91 1479.3 
  L1768.12 1479.3 L1762.34 1479.3 L1756.56 1479.3 L1750.77 1479.3 L1744.99 1479.3 L1739.21 1479.3 L1733.42 1479.3 L1727.64 1479.3 L1721.86 1479.3 L1716.07 1479.3 
   Z
  " fill="#ffa500" fill-rule="evenodd" fill-opacity="0.5"/>
<polyline clip-path="url(#clip262)" style="stroke:#ffa500; stroke-width:4; stroke-opacity:1; fill:none" points="
  1716.07,1163.22 1721.86,1170.86 1727.64,1177.45 1733.42,1183.08 1739.21,1187.91 1744.99,1192.08 1750.77,1195.77 1756.56,1199.16 1762.34,1202.46 1768.12,1205.86 
  1773.91,1209.56 1779.69,1213.77 1785.47,1218.64 1791.26,1224.33 1797.04,1230.94 1802.82,1238.52 1808.61,1247.07 1814.39,1256.55 1820.17,1266.85 1825.96,1277.79 
  1831.74,1289.18 1837.52,1300.78 1843.31,1312.34 1849.09,1323.62 1854.87,1334.38 1860.66,1344.4 1866.44,1353.54 1872.22,1361.67 1878.01,1368.74 1883.79,1374.73 
  1889.57,1379.71 1895.36,1383.76 1901.14,1387.01 1906.92,1389.63 1912.71,1391.78 1918.49,1393.64 1924.27,1395.36 1930.06,1397.09 1935.84,1398.94 1941.63,1400.99 
  1947.41,1403.27 1953.19,1405.81 1958.98,1408.58 1964.76,1411.54 1970.54,1414.62 1976.33,1417.77 1982.11,1420.91 1987.89,1424 1993.68,1426.98 1999.46,1429.84 
  2005.24,1432.57 2011.03,1435.15 2016.81,1437.62 2022.59,1439.97 2028.38,1442.24 2034.16,1444.43 2039.94,1446.55 2045.73,1448.58 2051.51,1450.51 2057.29,1452.32 
  2063.08,1453.95 2068.86,1455.37 2074.64,1456.55 2080.43,1457.44 2086.21,1458.02 2091.99,1458.28 2097.78,1458.22 2103.56,1457.86 2109.34,1457.24 2115.13,1456.39 
  2120.91,1455.39 2126.69,1454.3 2132.48,1453.2 2138.26,1452.17 2144.04,1451.27 2149.83,1450.58 2155.61,1450.14 2161.4,1450 2167.18,1450.17 2172.96,1450.66 
  2178.75,1451.46 2184.53,1452.53 2190.31,1453.82 2196.1,1455.29 2201.88,1456.85 2207.66,1458.45 2213.45,1460.02 2219.23,1461.5 2225.01,1462.84 2230.8,1464.02 
  2236.58,1465.01 2242.36,1465.82 2248.15,1466.45 2253.93,1466.93 2259.71,1467.3 2265.5,1467.59 2271.28,1467.85 2277.06,1468.12 2282.85,1468.43 2288.63,1468.81 
  
  "/>
<polyline clip-path="url(#clip262)" style="stroke:#0000ff; stroke-width:4; stroke-opacity:1; fill:none" points="
  1224.87,1479.3 1224.87,99.709 
  "/>
<polyline clip-path="url(#clip262)" style="stroke:#000000; stroke-width:4; stroke-opacity:1; fill:none" points="
  1225.81,1479.3 1225.81,99.1799 
  "/>
<path clip-path="url(#clip260)" d="
M1494.58 459.25 L2277.23 459.25 L2277.23 96.3696 L1494.58 96.3696  Z
  " fill="#ffffff" fill-rule="evenodd" fill-opacity="1"/>
<polyline clip-path="url(#clip260)" style="stroke:#000000; stroke-width:4; stroke-opacity:1; fill:none" points="
  1494.58,459.25 2277.23,459.25 2277.23,96.3696 1494.58,96.3696 1494.58,459.25 
  "/>
<path clip-path="url(#clip260)" d="
M1519.75 181.042 L1670.81 181.042 L1670.81 132.658 L1519.75 132.658 L1519.75 181.042  Z
  " fill="#ffa500" fill-rule="evenodd" fill-opacity="0.5"/>
<polyline clip-path="url(#clip260)" style="stroke:#ffa500; stroke-width:4; stroke-opacity:1; fill:none" points="
  1519.75,132.658 1670.81,132.658 
  "/>
<path clip-path="url(#clip260)" d="M 0 0 M1700.38 161.19 Q1700.38 165.889 1702.3 168.574 Q1704.24 171.236 1707.62 171.236 Q1711 171.236 1712.95 168.574 Q1714.89 165.889 1714.89 161.19 Q1714.89 156.491 1712.95 153.829 Q1711 151.144 1707.62 151.144 Q1704.24 151.144 1702.3 153.829 Q1700.38 156.491 1700.38 161.19 M1714.89 170.241 Q1713.55 172.555 1711.49 173.69 Q1709.45 174.801 1706.58 174.801 Q1701.88 174.801 1698.92 171.051 Q1695.98 167.301 1695.98 161.19 Q1695.98 155.079 1698.92 151.329 Q1701.88 147.579 1706.58 147.579 Q1709.45 147.579 1711.49 148.713 Q1713.55 149.824 1714.89 152.139 L1714.89 148.204 L1719.15 148.204 L1719.15 183.991 L1714.89 183.991 L1714.89 170.241 Z" fill="#000000" fill-rule="evenodd" fill-opacity="1" /><path clip-path="url(#clip260)" d="M 0 0 M1734.22 142.648 Q1730.61 142.648 1728.78 146.213 Q1726.98 149.755 1726.98 156.884 Q1726.98 163.991 1728.78 167.556 Q1730.61 171.097 1734.22 171.097 Q1737.85 171.097 1739.66 167.556 Q1741.49 163.991 1741.49 156.884 Q1741.49 149.755 1739.66 146.213 Q1737.85 142.648 1734.22 142.648 M1734.22 138.945 Q1740.03 138.945 1743.09 143.551 Q1746.17 148.134 1746.17 156.884 Q1746.17 165.611 1743.09 170.218 Q1740.03 174.801 1734.22 174.801 Q1728.41 174.801 1725.33 170.218 Q1722.28 165.611 1722.28 156.884 Q1722.28 148.134 1725.33 143.551 Q1728.41 138.945 1734.22 138.945 Z" fill="#000000" fill-rule="evenodd" fill-opacity="1" /><path clip-path="url(#clip260)" d="M 0 0 M1751.28 139.57 L1769.64 139.57 L1769.64 143.505 L1755.56 143.505 L1755.56 151.977 Q1756.58 151.63 1757.6 151.468 Q1758.62 151.282 1759.64 151.282 Q1765.42 151.282 1768.8 154.454 Q1772.18 157.625 1772.18 163.042 Q1772.18 168.62 1768.71 171.722 Q1765.24 174.801 1758.92 174.801 Q1756.74 174.801 1754.48 174.43 Q1752.23 174.06 1749.82 173.319 L1749.82 168.62 Q1751.91 169.755 1754.13 170.31 Q1756.35 170.866 1758.83 170.866 Q1762.83 170.866 1765.17 168.759 Q1767.51 166.653 1767.51 163.042 Q1767.51 159.431 1765.17 157.324 Q1762.83 155.218 1758.83 155.218 Q1756.95 155.218 1755.08 155.634 Q1753.23 156.051 1751.28 156.931 L1751.28 139.57 Z" fill="#000000" fill-rule="evenodd" fill-opacity="1" /><path clip-path="url(#clip260)" d="
M1519.75 241.522 L1670.81 241.522 L1670.81 193.138 L1519.75 193.138 L1519.75 241.522  Z
  " fill="#008000" fill-rule="evenodd" fill-opacity="0.5"/>
<polyline clip-path="url(#clip260)" style="stroke:#008000; stroke-width:4; stroke-opacity:1; fill:none" points="
  1519.75,193.138 1670.81,193.138 
  "/>
<path clip-path="url(#clip260)" d="M 0 0 M1698.2 233.892 L1698.2 229.633 Q1699.96 230.466 1701.77 230.906 Q1703.57 231.346 1705.31 231.346 Q1709.94 231.346 1712.37 228.244 Q1714.82 225.119 1715.17 218.776 Q1713.83 220.767 1711.77 221.832 Q1709.71 222.897 1707.21 222.897 Q1702.02 222.897 1698.99 219.772 Q1695.98 216.624 1695.98 211.184 Q1695.98 205.86 1699.13 202.642 Q1702.28 199.425 1707.51 199.425 Q1713.5 199.425 1716.65 204.031 Q1719.82 208.614 1719.82 217.364 Q1719.82 225.536 1715.93 230.42 Q1712.07 235.281 1705.52 235.281 Q1703.76 235.281 1701.95 234.934 Q1700.15 234.586 1698.2 233.892 M1707.51 219.239 Q1710.66 219.239 1712.48 217.086 Q1714.34 214.934 1714.34 211.184 Q1714.34 207.457 1712.48 205.304 Q1710.66 203.128 1707.51 203.128 Q1704.36 203.128 1702.51 205.304 Q1700.68 207.457 1700.68 211.184 Q1700.68 214.934 1702.51 217.086 Q1704.36 219.239 1707.51 219.239 Z" fill="#000000" fill-rule="evenodd" fill-opacity="1" /><path clip-path="url(#clip260)" d="M 0 0 M1734.89 203.128 Q1731.28 203.128 1729.45 206.693 Q1727.65 210.235 1727.65 217.364 Q1727.65 224.471 1729.45 228.036 Q1731.28 231.577 1734.89 231.577 Q1738.53 231.577 1740.33 228.036 Q1742.16 224.471 1742.16 217.364 Q1742.16 210.235 1740.33 206.693 Q1738.53 203.128 1734.89 203.128 M1734.89 199.425 Q1740.7 199.425 1743.76 204.031 Q1746.84 208.614 1746.84 217.364 Q1746.84 226.091 1743.76 230.698 Q1740.7 235.281 1734.89 235.281 Q1729.08 235.281 1726 230.698 Q1722.95 226.091 1722.95 217.364 Q1722.95 208.614 1726 204.031 Q1729.08 199.425 1734.89 199.425 Z" fill="#000000" fill-rule="evenodd" fill-opacity="1" /><path clip-path="url(#clip260)" d="M 0 0 M1781.3 219.401 Q1779.29 219.401 1778.13 221.114 Q1777 222.827 1777 225.883 Q1777 228.892 1778.13 230.628 Q1779.29 232.341 1781.3 232.341 Q1783.27 232.341 1784.41 230.628 Q1785.56 228.892 1785.56 225.883 Q1785.56 222.85 1784.41 221.137 Q1783.27 219.401 1781.3 219.401 M1781.3 216.462 Q1784.96 216.462 1787.11 219.008 Q1789.27 221.554 1789.27 225.883 Q1789.27 230.211 1787.09 232.758 Q1784.94 235.281 1781.3 235.281 Q1777.6 235.281 1775.45 232.758 Q1773.29 230.211 1773.29 225.883 Q1773.29 221.531 1775.45 219.008 Q1777.62 216.462 1781.3 216.462 M1757.42 202.364 Q1755.42 202.364 1754.27 204.1 Q1753.13 205.813 1753.13 208.823 Q1753.13 211.878 1754.27 213.591 Q1755.4 215.304 1757.42 215.304 Q1759.43 215.304 1760.56 213.591 Q1761.72 211.878 1761.72 208.823 Q1761.72 205.837 1760.56 204.1 Q1759.41 202.364 1757.42 202.364 M1778.32 199.425 L1782.02 199.425 L1760.4 235.281 L1756.7 235.281 L1778.32 199.425 M1757.42 199.425 Q1761.07 199.425 1763.25 201.971 Q1765.42 204.494 1765.42 208.823 Q1765.42 213.198 1763.25 215.721 Q1761.1 218.244 1757.42 218.244 Q1753.73 218.244 1751.58 215.721 Q1749.45 213.174 1749.45 208.823 Q1749.45 204.517 1751.6 201.971 Q1753.76 199.425 1757.42 199.425 Z" fill="#000000" fill-rule="evenodd" fill-opacity="1" /><path clip-path="url(#clip260)" d="M 0 0 M1830.35 218.961 L1830.35 234.61 L1826.1 234.61 L1826.1 219.1 Q1826.1 215.42 1824.66 213.591 Q1823.22 211.762 1820.35 211.762 Q1816.91 211.762 1814.91 213.962 Q1812.92 216.161 1812.92 219.957 L1812.92 234.61 L1808.64 234.61 L1808.64 208.684 L1812.92 208.684 L1812.92 212.712 Q1814.45 210.374 1816.51 209.216 Q1818.6 208.059 1821.3 208.059 Q1825.77 208.059 1828.06 210.837 Q1830.35 213.591 1830.35 218.961 Z" fill="#000000" fill-rule="evenodd" fill-opacity="1" /><path clip-path="url(#clip260)" d="M 0 0 M1844.87 211.67 Q1841.44 211.67 1839.45 214.355 Q1837.46 217.017 1837.46 221.67 Q1837.46 226.323 1839.43 229.008 Q1841.42 231.67 1844.87 231.67 Q1848.27 231.67 1850.26 228.985 Q1852.25 226.299 1852.25 221.67 Q1852.25 217.063 1850.26 214.378 Q1848.27 211.67 1844.87 211.67 M1844.87 208.059 Q1850.42 208.059 1853.6 211.67 Q1856.77 215.281 1856.77 221.67 Q1856.77 228.036 1853.6 231.67 Q1850.42 235.281 1844.87 235.281 Q1839.29 235.281 1836.12 231.67 Q1832.97 228.036 1832.97 221.67 Q1832.97 215.281 1836.12 211.67 Q1839.29 208.059 1844.87 208.059 Z" fill="#000000" fill-rule="evenodd" fill-opacity="1" /><path clip-path="url(#clip260)" d="M 0 0 M1882.78 218.961 L1882.78 234.61 L1878.53 234.61 L1878.53 219.1 Q1878.53 215.42 1877.09 213.591 Q1875.66 211.762 1872.78 211.762 Q1869.34 211.762 1867.35 213.962 Q1865.35 216.161 1865.35 219.957 L1865.35 234.61 L1861.07 234.61 L1861.07 208.684 L1865.35 208.684 L1865.35 212.712 Q1866.88 210.374 1868.94 209.216 Q1871.03 208.059 1873.73 208.059 Q1878.2 208.059 1880.49 210.837 Q1882.78 213.591 1882.78 218.961 Z" fill="#000000" fill-rule="evenodd" fill-opacity="1" /><path clip-path="url(#clip260)" d="M 0 0 M1885.1 219.725 L1897.58 219.725 L1897.58 223.522 L1885.1 223.522 L1885.1 219.725 Z" fill="#000000" fill-rule="evenodd" fill-opacity="1" /><path clip-path="url(#clip260)" d="M 0 0 M1917.07 212.665 Q1916.35 212.249 1915.49 212.063 Q1914.66 211.855 1913.64 211.855 Q1910.03 211.855 1908.09 214.216 Q1906.16 216.554 1906.16 220.952 L1906.16 234.61 L1901.88 234.61 L1901.88 208.684 L1906.16 208.684 L1906.16 212.712 Q1907.51 210.35 1909.66 209.216 Q1911.81 208.059 1914.89 208.059 Q1915.33 208.059 1915.86 208.128 Q1916.4 208.175 1917.04 208.29 L1917.07 212.665 Z" fill="#000000" fill-rule="evenodd" fill-opacity="1" /><path clip-path="url(#clip260)" d="M 0 0 M1942.67 220.582 L1942.67 222.665 L1923.09 222.665 Q1923.36 227.063 1925.72 229.378 Q1928.11 231.67 1932.34 231.67 Q1934.8 231.67 1937.09 231.068 Q1939.4 230.466 1941.67 229.262 L1941.67 233.29 Q1939.38 234.262 1936.97 234.772 Q1934.57 235.281 1932.09 235.281 Q1925.89 235.281 1922.25 231.67 Q1918.64 228.059 1918.64 221.901 Q1918.64 215.536 1922.07 211.809 Q1925.52 208.059 1931.35 208.059 Q1936.58 208.059 1939.61 211.438 Q1942.67 214.795 1942.67 220.582 M1938.41 219.332 Q1938.36 215.837 1936.44 213.753 Q1934.54 211.67 1931.4 211.67 Q1927.83 211.67 1925.68 213.684 Q1923.55 215.698 1923.22 219.355 L1938.41 219.332 Z" fill="#000000" fill-rule="evenodd" fill-opacity="1" /><path clip-path="url(#clip260)" d="M 0 0 M1947.14 208.684 L1951.4 208.684 L1951.4 235.073 Q1951.4 240.026 1949.5 242.248 Q1947.62 244.471 1943.43 244.471 L1941.81 244.471 L1941.81 240.86 L1942.95 240.86 Q1945.38 240.86 1946.26 239.725 Q1947.14 238.614 1947.14 235.073 L1947.14 208.684 M1947.14 198.591 L1951.4 198.591 L1951.4 203.985 L1947.14 203.985 L1947.14 198.591 Z" fill="#000000" fill-rule="evenodd" fill-opacity="1" /><path clip-path="url(#clip260)" d="M 0 0 M1978.04 220.582 L1978.04 222.665 L1958.46 222.665 Q1958.73 227.063 1961.09 229.378 Q1963.48 231.67 1967.71 231.67 Q1970.17 231.67 1972.46 231.068 Q1974.78 230.466 1977.04 229.262 L1977.04 233.29 Q1974.75 234.262 1972.34 234.772 Q1969.94 235.281 1967.46 235.281 Q1961.26 235.281 1957.62 231.67 Q1954.01 228.059 1954.01 221.901 Q1954.01 215.536 1957.44 211.809 Q1960.89 208.059 1966.72 208.059 Q1971.95 208.059 1974.98 211.438 Q1978.04 214.795 1978.04 220.582 M1973.78 219.332 Q1973.73 215.837 1971.81 213.753 Q1969.91 211.67 1966.77 211.67 Q1963.2 211.67 1961.05 213.684 Q1958.92 215.698 1958.59 219.355 L1973.78 219.332 Z" fill="#000000" fill-rule="evenodd" fill-opacity="1" /><path clip-path="url(#clip260)" d="M 0 0 M2001.16 209.679 L2001.16 213.661 Q1999.36 212.665 1997.53 212.179 Q1995.72 211.67 1993.87 211.67 Q1989.73 211.67 1987.44 214.309 Q1985.15 216.924 1985.15 221.67 Q1985.15 226.415 1987.44 229.054 Q1989.73 231.67 1993.87 231.67 Q1995.72 231.67 1997.53 231.184 Q1999.36 230.674 2001.16 229.679 L2001.16 233.614 Q1999.38 234.448 1997.46 234.864 Q1995.56 235.281 1993.41 235.281 Q1987.55 235.281 1984.1 231.6 Q1980.65 227.92 1980.65 221.67 Q1980.65 215.327 1984.13 211.693 Q1987.62 208.059 1993.69 208.059 Q1995.65 208.059 1997.53 208.475 Q1999.4 208.869 2001.16 209.679 Z" fill="#000000" fill-rule="evenodd" fill-opacity="1" /><path clip-path="url(#clip260)" d="M 0 0 M2009.84 201.323 L2009.84 208.684 L2018.62 208.684 L2018.62 211.994 L2009.84 211.994 L2009.84 226.068 Q2009.84 229.239 2010.7 230.142 Q2011.58 231.045 2014.24 231.045 L2018.62 231.045 L2018.62 234.61 L2014.24 234.61 Q2009.31 234.61 2007.44 232.781 Q2005.56 230.929 2005.56 226.068 L2005.56 211.994 L2002.44 211.994 L2002.44 208.684 L2005.56 208.684 L2005.56 201.323 L2009.84 201.323 Z" fill="#000000" fill-rule="evenodd" fill-opacity="1" /><path clip-path="url(#clip260)" d="M 0 0 M2023.08 208.684 L2027.34 208.684 L2027.34 234.61 L2023.08 234.61 L2023.08 208.684 M2023.08 198.591 L2027.34 198.591 L2027.34 203.985 L2023.08 203.985 L2023.08 198.591 Z" fill="#000000" fill-rule="evenodd" fill-opacity="1" /><path clip-path="url(#clip260)" d="M 0 0 M2041.86 211.67 Q2038.43 211.67 2036.44 214.355 Q2034.45 217.017 2034.45 221.67 Q2034.45 226.323 2036.42 229.008 Q2038.41 231.67 2041.86 231.67 Q2045.26 231.67 2047.25 228.985 Q2049.24 226.299 2049.24 221.67 Q2049.24 217.063 2047.25 214.378 Q2045.26 211.67 2041.86 211.67 M2041.86 208.059 Q2047.41 208.059 2050.58 211.67 Q2053.76 215.281 2053.76 221.67 Q2053.76 228.036 2050.58 231.67 Q2047.41 235.281 2041.86 235.281 Q2036.28 235.281 2033.11 231.67 Q2029.96 228.036 2029.96 221.67 Q2029.96 215.281 2033.11 211.67 Q2036.28 208.059 2041.86 208.059 Z" fill="#000000" fill-rule="evenodd" fill-opacity="1" /><path clip-path="url(#clip260)" d="M 0 0 M2079.77 218.961 L2079.77 234.61 L2075.52 234.61 L2075.52 219.1 Q2075.52 215.42 2074.08 213.591 Q2072.64 211.762 2069.77 211.762 Q2066.33 211.762 2064.33 213.962 Q2062.34 216.161 2062.34 219.957 L2062.34 234.61 L2058.06 234.61 L2058.06 208.684 L2062.34 208.684 L2062.34 212.712 Q2063.87 210.374 2065.93 209.216 Q2068.02 208.059 2070.72 208.059 Q2075.19 208.059 2077.48 210.837 Q2079.77 213.591 2079.77 218.961 Z" fill="#000000" fill-rule="evenodd" fill-opacity="1" /><path clip-path="url(#clip260)" d="M 0 0 M2114.33 212.665 Q2113.62 212.249 2112.76 212.063 Q2111.93 211.855 2110.91 211.855 Q2107.3 211.855 2105.35 214.216 Q2103.43 216.554 2103.43 220.952 L2103.43 234.61 L2099.15 234.61 L2099.15 208.684 L2103.43 208.684 L2103.43 212.712 Q2104.77 210.35 2106.93 209.216 Q2109.08 208.059 2112.16 208.059 Q2112.6 208.059 2113.13 208.128 Q2113.66 208.175 2114.31 208.29 L2114.33 212.665 Z" fill="#000000" fill-rule="evenodd" fill-opacity="1" /><path clip-path="url(#clip260)" d="M 0 0 M2139.94 220.582 L2139.94 222.665 L2120.35 222.665 Q2120.63 227.063 2122.99 229.378 Q2125.38 231.67 2129.61 231.67 Q2132.07 231.67 2134.36 231.068 Q2136.67 230.466 2138.94 229.262 L2138.94 233.29 Q2136.65 234.262 2134.24 234.772 Q2131.83 235.281 2129.36 235.281 Q2123.15 235.281 2119.52 231.67 Q2115.91 228.059 2115.91 221.901 Q2115.91 215.536 2119.33 211.809 Q2122.78 208.059 2128.62 208.059 Q2133.85 208.059 2136.88 211.438 Q2139.94 214.795 2139.94 220.582 M2135.68 219.332 Q2135.63 215.837 2133.71 213.753 Q2131.81 211.67 2128.66 211.67 Q2125.1 211.67 2122.95 213.684 Q2120.82 215.698 2120.49 219.355 L2135.68 219.332 Z" fill="#000000" fill-rule="evenodd" fill-opacity="1" /><path clip-path="url(#clip260)" d="M 0 0 M2161.46 221.346 Q2161.46 216.716 2159.54 214.17 Q2157.64 211.624 2154.2 211.624 Q2150.77 211.624 2148.85 214.17 Q2146.95 216.716 2146.95 221.346 Q2146.95 225.952 2148.85 228.498 Q2150.77 231.045 2154.2 231.045 Q2157.64 231.045 2159.54 228.498 Q2161.46 225.952 2161.46 221.346 M2165.72 231.392 Q2165.72 238.012 2162.78 241.23 Q2159.84 244.471 2153.78 244.471 Q2151.53 244.471 2149.54 244.123 Q2147.55 243.799 2145.68 243.105 L2145.68 238.961 Q2147.55 239.98 2149.38 240.466 Q2151.21 240.952 2153.11 240.952 Q2157.3 240.952 2159.38 238.753 Q2161.46 236.577 2161.46 232.156 L2161.46 230.049 Q2160.14 232.341 2158.08 233.475 Q2156.02 234.61 2153.15 234.61 Q2148.39 234.61 2145.47 230.975 Q2142.55 227.341 2142.55 221.346 Q2142.55 215.327 2145.47 211.693 Q2148.39 208.059 2153.15 208.059 Q2156.02 208.059 2158.08 209.193 Q2160.14 210.327 2161.46 212.619 L2161.46 208.684 L2165.72 208.684 L2165.72 231.392 Z" fill="#000000" fill-rule="evenodd" fill-opacity="1" /><path clip-path="url(#clip260)" d="M 0 0 M2170.19 208.684 L2174.45 208.684 L2174.45 234.61 L2170.19 234.61 L2170.19 208.684 M2170.19 198.591 L2174.45 198.591 L2174.45 203.985 L2170.19 203.985 L2170.19 198.591 Z" fill="#000000" fill-rule="evenodd" fill-opacity="1" /><path clip-path="url(#clip260)" d="M 0 0 M2188.96 211.67 Q2185.54 211.67 2183.55 214.355 Q2181.56 217.017 2181.56 221.67 Q2181.56 226.323 2183.52 229.008 Q2185.51 231.67 2188.96 231.67 Q2192.37 231.67 2194.36 228.985 Q2196.35 226.299 2196.35 221.67 Q2196.35 217.063 2194.36 214.378 Q2192.37 211.67 2188.96 211.67 M2188.96 208.059 Q2194.52 208.059 2197.69 211.67 Q2200.86 215.281 2200.86 221.67 Q2200.86 228.036 2197.69 231.67 Q2194.52 235.281 2188.96 235.281 Q2183.39 235.281 2180.21 231.67 Q2177.07 228.036 2177.07 221.67 Q2177.07 215.281 2180.21 211.67 Q2183.39 208.059 2188.96 208.059 Z" fill="#000000" fill-rule="evenodd" fill-opacity="1" /><path clip-path="url(#clip260)" d="M 0 0 M2226.88 218.961 L2226.88 234.61 L2222.62 234.61 L2222.62 219.1 Q2222.62 215.42 2221.19 213.591 Q2219.75 211.762 2216.88 211.762 Q2213.43 211.762 2211.44 213.962 Q2209.45 216.161 2209.45 219.957 L2209.45 234.61 L2205.17 234.61 L2205.17 208.684 L2209.45 208.684 L2209.45 212.712 Q2210.98 210.374 2213.04 209.216 Q2215.12 208.059 2217.83 208.059 Q2222.3 208.059 2224.59 210.837 Q2226.88 213.591 2226.88 218.961 Z" fill="#000000" fill-rule="evenodd" fill-opacity="1" /><path clip-path="url(#clip260)" d="
M1519.75 302.002 L1670.81 302.002 L1670.81 253.618 L1519.75 253.618 L1519.75 302.002  Z
  " fill="#ffa500" fill-rule="evenodd" fill-opacity="0.5"/>
<polyline clip-path="url(#clip260)" style="stroke:#ffa500; stroke-width:4; stroke-opacity:1; fill:none" points="
  1519.75,253.618 1670.81,253.618 
  "/>
<path clip-path="url(#clip260)" d="M 0 0 M1700.38 282.15 Q1700.38 286.849 1702.3 289.534 Q1704.24 292.196 1707.62 292.196 Q1711 292.196 1712.95 289.534 Q1714.89 286.849 1714.89 282.15 Q1714.89 277.451 1712.95 274.789 Q1711 272.104 1707.62 272.104 Q1704.24 272.104 1702.3 274.789 Q1700.38 277.451 1700.38 282.15 M1714.89 291.201 Q1713.55 293.515 1711.49 294.65 Q1709.45 295.761 1706.58 295.761 Q1701.88 295.761 1698.92 292.011 Q1695.98 288.261 1695.98 282.15 Q1695.98 276.039 1698.92 272.289 Q1701.88 268.539 1706.58 268.539 Q1709.45 268.539 1711.49 269.673 Q1713.55 270.784 1714.89 273.099 L1714.89 269.164 L1719.15 269.164 L1719.15 304.951 L1714.89 304.951 L1714.89 291.201 Z" fill="#000000" fill-rule="evenodd" fill-opacity="1" /><path clip-path="url(#clip260)" d="M 0 0 M1724.36 294.372 L1724.36 290.113 Q1726.12 290.946 1727.92 291.386 Q1729.73 291.826 1731.47 291.826 Q1736.1 291.826 1738.53 288.724 Q1740.98 285.599 1741.33 279.256 Q1739.98 281.247 1737.92 282.312 Q1735.86 283.377 1733.36 283.377 Q1728.18 283.377 1725.15 280.252 Q1722.14 277.104 1722.14 271.664 Q1722.14 266.34 1725.29 263.122 Q1728.43 259.905 1733.67 259.905 Q1739.66 259.905 1742.81 264.511 Q1745.98 269.094 1745.98 277.844 Q1745.98 286.016 1742.09 290.9 Q1738.23 295.761 1731.67 295.761 Q1729.92 295.761 1728.11 295.414 Q1726.3 295.066 1724.36 294.372 M1733.67 279.719 Q1736.81 279.719 1738.64 277.566 Q1740.49 275.414 1740.49 271.664 Q1740.49 267.937 1738.64 265.784 Q1736.81 263.608 1733.67 263.608 Q1730.52 263.608 1728.67 265.784 Q1726.84 267.937 1726.84 271.664 Q1726.84 275.414 1728.67 277.566 Q1730.52 279.719 1733.67 279.719 Z" fill="#000000" fill-rule="evenodd" fill-opacity="1" /><path clip-path="url(#clip260)" d="M 0 0 M1751.1 260.53 L1769.45 260.53 L1769.45 264.465 L1755.38 264.465 L1755.38 272.937 Q1756.4 272.59 1757.42 272.428 Q1758.43 272.242 1759.45 272.242 Q1765.24 272.242 1768.62 275.414 Q1772 278.585 1772 284.002 Q1772 289.58 1768.53 292.682 Q1765.05 295.761 1758.73 295.761 Q1756.56 295.761 1754.29 295.39 Q1752.04 295.02 1749.64 294.279 L1749.64 289.58 Q1751.72 290.715 1753.94 291.27 Q1756.17 291.826 1758.64 291.826 Q1762.65 291.826 1764.98 289.719 Q1767.32 287.613 1767.32 284.002 Q1767.32 280.391 1764.98 278.284 Q1762.65 276.178 1758.64 276.178 Q1756.77 276.178 1754.89 276.594 Q1753.04 277.011 1751.1 277.891 L1751.1 260.53 Z" fill="#000000" fill-rule="evenodd" fill-opacity="1" /><polyline clip-path="url(#clip260)" style="stroke:#0000ff; stroke-width:4; stroke-opacity:1; fill:none" points="
  1519.75,338.29 1670.81,338.29 
  "/>
<path clip-path="url(#clip260)" d="M 0 0 M1716.33 334.621 Q1717.92 331.75 1720.15 330.385 Q1722.37 329.019 1725.38 329.019 Q1729.43 329.019 1731.63 331.866 Q1733.83 334.69 1733.83 339.921 L1733.83 355.57 L1729.54 355.57 L1729.54 340.06 Q1729.54 336.334 1728.23 334.528 Q1726.91 332.722 1724.2 332.722 Q1720.89 332.722 1718.97 334.922 Q1717.04 337.121 1717.04 340.917 L1717.04 355.57 L1712.76 355.57 L1712.76 340.06 Q1712.76 336.31 1711.44 334.528 Q1710.12 332.722 1707.37 332.722 Q1704.11 332.722 1702.18 334.945 Q1700.26 337.144 1700.26 340.917 L1700.26 355.57 L1695.98 355.57 L1695.98 329.644 L1700.26 329.644 L1700.26 333.672 Q1701.72 331.287 1703.76 330.153 Q1705.79 329.019 1708.6 329.019 Q1711.42 329.019 1713.39 330.454 Q1715.38 331.889 1716.33 334.621 Z" fill="#000000" fill-rule="evenodd" fill-opacity="1" /><path clip-path="url(#clip260)" d="M 0 0 M1760.47 341.542 L1760.47 343.625 L1740.89 343.625 Q1741.17 348.023 1743.53 350.338 Q1745.91 352.63 1750.15 352.63 Q1752.6 352.63 1754.89 352.028 Q1757.21 351.426 1759.48 350.222 L1759.48 354.25 Q1757.18 355.222 1754.78 355.732 Q1752.37 356.241 1749.89 356.241 Q1743.69 356.241 1740.05 352.63 Q1736.44 349.019 1736.44 342.861 Q1736.44 336.496 1739.87 332.769 Q1743.32 329.019 1749.15 329.019 Q1754.38 329.019 1757.42 332.398 Q1760.47 335.755 1760.47 341.542 M1756.21 340.292 Q1756.17 336.797 1754.24 334.713 Q1752.35 332.63 1749.2 332.63 Q1745.63 332.63 1743.48 334.644 Q1741.35 336.658 1741.03 340.315 L1756.21 340.292 Z" fill="#000000" fill-rule="evenodd" fill-opacity="1" /><path clip-path="url(#clip260)" d="M 0 0 M1776.72 342.537 Q1771.56 342.537 1769.57 343.718 Q1767.58 344.898 1767.58 347.746 Q1767.58 350.014 1769.06 351.357 Q1770.56 352.676 1773.13 352.676 Q1776.67 352.676 1778.8 350.176 Q1780.96 347.653 1780.96 343.486 L1780.96 342.537 L1776.72 342.537 M1785.22 340.778 L1785.22 355.57 L1780.96 355.57 L1780.96 351.634 Q1779.5 353.995 1777.32 355.13 Q1775.15 356.241 1772 356.241 Q1768.02 356.241 1765.66 354.019 Q1763.32 351.773 1763.32 348.023 Q1763.32 343.648 1766.23 341.426 Q1769.17 339.204 1774.98 339.204 L1780.96 339.204 L1780.96 338.787 Q1780.96 335.847 1779.01 334.25 Q1777.09 332.63 1773.6 332.63 Q1771.37 332.63 1769.27 333.162 Q1767.16 333.695 1765.22 334.759 L1765.22 330.824 Q1767.55 329.922 1769.75 329.482 Q1771.95 329.019 1774.04 329.019 Q1779.66 329.019 1782.44 331.935 Q1785.22 334.852 1785.22 340.778 Z" fill="#000000" fill-rule="evenodd" fill-opacity="1" /><path clip-path="url(#clip260)" d="M 0 0 M1811.23 339.921 L1811.23 355.57 L1806.97 355.57 L1806.97 340.06 Q1806.97 336.38 1805.54 334.551 Q1804.1 332.722 1801.23 332.722 Q1797.79 332.722 1795.79 334.922 Q1793.8 337.121 1793.8 340.917 L1793.8 355.57 L1789.52 355.57 L1789.52 329.644 L1793.8 329.644 L1793.8 333.672 Q1795.33 331.334 1797.39 330.176 Q1799.48 329.019 1802.18 329.019 Q1806.65 329.019 1808.94 331.797 Q1811.23 334.551 1811.23 339.921 Z" fill="#000000" fill-rule="evenodd" fill-opacity="1" /><polyline clip-path="url(#clip260)" style="stroke:#000000; stroke-width:4; stroke-opacity:1; fill:none" points="
  1519.75,398.77 1670.81,398.77 
  "/>
<path clip-path="url(#clip260)" d="M 0 0 M1716.33 395.101 Q1717.92 392.23 1720.15 390.865 Q1722.37 389.499 1725.38 389.499 Q1729.43 389.499 1731.63 392.346 Q1733.83 395.17 1733.83 400.401 L1733.83 416.05 L1729.54 416.05 L1729.54 400.54 Q1729.54 396.814 1728.23 395.008 Q1726.91 393.202 1724.2 393.202 Q1720.89 393.202 1718.97 395.402 Q1717.04 397.601 1717.04 401.397 L1717.04 416.05 L1712.76 416.05 L1712.76 400.54 Q1712.76 396.79 1711.44 395.008 Q1710.12 393.202 1707.37 393.202 Q1704.11 393.202 1702.18 395.425 Q1700.26 397.624 1700.26 401.397 L1700.26 416.05 L1695.98 416.05 L1695.98 390.124 L1700.26 390.124 L1700.26 394.152 Q1701.72 391.767 1703.76 390.633 Q1705.79 389.499 1708.6 389.499 Q1711.42 389.499 1713.39 390.934 Q1715.38 392.369 1716.33 395.101 Z" fill="#000000" fill-rule="evenodd" fill-opacity="1" /><path clip-path="url(#clip260)" d="M 0 0 M1760.47 402.022 L1760.47 404.105 L1740.89 404.105 Q1741.17 408.503 1743.53 410.818 Q1745.91 413.11 1750.15 413.11 Q1752.6 413.11 1754.89 412.508 Q1757.21 411.906 1759.48 410.702 L1759.48 414.73 Q1757.18 415.702 1754.78 416.212 Q1752.37 416.721 1749.89 416.721 Q1743.69 416.721 1740.05 413.11 Q1736.44 409.499 1736.44 403.341 Q1736.44 396.976 1739.87 393.249 Q1743.32 389.499 1749.15 389.499 Q1754.38 389.499 1757.42 392.878 Q1760.47 396.235 1760.47 402.022 M1756.21 400.772 Q1756.17 397.277 1754.24 395.193 Q1752.35 393.11 1749.2 393.11 Q1745.63 393.11 1743.48 395.124 Q1741.35 397.138 1741.03 400.795 L1756.21 400.772 Z" fill="#000000" fill-rule="evenodd" fill-opacity="1" /><path clip-path="url(#clip260)" d="M 0 0 M1782 394.059 L1782 380.031 L1786.26 380.031 L1786.26 416.05 L1782 416.05 L1782 412.161 Q1780.66 414.475 1778.6 415.61 Q1776.56 416.721 1773.69 416.721 Q1768.99 416.721 1766.03 412.971 Q1763.09 409.221 1763.09 403.11 Q1763.09 396.999 1766.03 393.249 Q1768.99 389.499 1773.69 389.499 Q1776.56 389.499 1778.6 390.633 Q1780.66 391.744 1782 394.059 M1767.48 403.11 Q1767.48 407.809 1769.41 410.494 Q1771.35 413.156 1774.73 413.156 Q1778.11 413.156 1780.05 410.494 Q1782 407.809 1782 403.11 Q1782 398.411 1780.05 395.749 Q1778.11 393.064 1774.73 393.064 Q1771.35 393.064 1769.41 395.749 Q1767.48 398.411 1767.48 403.11 Z" fill="#000000" fill-rule="evenodd" fill-opacity="1" /><path clip-path="url(#clip260)" d="M 0 0 M1790.73 390.124 L1794.98 390.124 L1794.98 416.05 L1790.73 416.05 L1790.73 390.124 M1790.73 380.031 L1794.98 380.031 L1794.98 385.425 L1790.73 385.425 L1790.73 380.031 Z" fill="#000000" fill-rule="evenodd" fill-opacity="1" /><path clip-path="url(#clip260)" d="M 0 0 M1811.23 403.017 Q1806.07 403.017 1804.08 404.198 Q1802.09 405.378 1802.09 408.226 Q1802.09 410.494 1803.57 411.837 Q1805.08 413.156 1807.65 413.156 Q1811.19 413.156 1813.32 410.656 Q1815.47 408.133 1815.47 403.966 L1815.47 403.017 L1811.23 403.017 M1819.73 401.258 L1819.73 416.05 L1815.47 416.05 L1815.47 412.114 Q1814.01 414.475 1811.84 415.61 Q1809.66 416.721 1806.51 416.721 Q1802.53 416.721 1800.17 414.499 Q1797.83 412.253 1797.83 408.503 Q1797.83 404.128 1800.75 401.906 Q1803.69 399.684 1809.5 399.684 L1815.47 399.684 L1815.47 399.267 Q1815.47 396.327 1813.53 394.73 Q1811.6 393.11 1808.11 393.11 Q1805.89 393.11 1803.78 393.642 Q1801.67 394.175 1799.73 395.239 L1799.73 391.304 Q1802.07 390.402 1804.27 389.962 Q1806.47 389.499 1808.55 389.499 Q1814.17 389.499 1816.95 392.415 Q1819.73 395.332 1819.73 401.258 Z" fill="#000000" fill-rule="evenodd" fill-opacity="1" /><path clip-path="url(#clip260)" d="M 0 0 M1845.75 400.401 L1845.75 416.05 L1841.49 416.05 L1841.49 400.54 Q1841.49 396.86 1840.05 395.031 Q1838.62 393.202 1835.75 393.202 Q1832.3 393.202 1830.31 395.402 Q1828.32 397.601 1828.32 401.397 L1828.32 416.05 L1824.04 416.05 L1824.04 390.124 L1828.32 390.124 L1828.32 394.152 Q1829.85 391.814 1831.91 390.656 Q1833.99 389.499 1836.7 389.499 Q1841.16 389.499 1843.46 392.277 Q1845.75 395.031 1845.75 400.401 Z" fill="#000000" fill-rule="evenodd" fill-opacity="1" /></svg>
