<?xml version="1.0" encoding="utf-8"?>
<svg xmlns="http://www.w3.org/2000/svg" xmlns:xlink="http://www.w3.org/1999/xlink" width="600" height="400" viewBox="0 0 2400 1600">
<defs>
  <clipPath id="clip930">
    <rect x="0" y="0" width="2400" height="1600"/>
  </clipPath>
</defs>
<path clip-path="url(#clip930)" d="
M0 1600 L2400 1600 L2400 0 L0 0  Z
  " fill="#ffffff" fill-rule="evenodd" fill-opacity="1"/>
<defs>
  <clipPath id="clip931">
    <rect x="480" y="0" width="1681" height="1600"/>
  </clipPath>
</defs>
<path clip-path="url(#clip930)" d="
M86.9921 1521.01 L2352.76 1521.01 L2352.76 47.2441 L86.9921 47.2441  Z
  " fill="#ffffff" fill-rule="evenodd" fill-opacity="1"/>
<defs>
  <clipPath id="clip932">
    <rect x="86" y="47" width="2267" height="1475"/>
  </clipPath>
</defs>
<polyline clip-path="url(#clip932)" style="stroke:#000000; stroke-width:2; stroke-opacity:0.1; fill:none" points="
  599.749,1521.01 599.749,47.2441 
  "/>
<polyline clip-path="url(#clip932)" style="stroke:#000000; stroke-width:2; stroke-opacity:0.1; fill:none" points="
  1140.46,1521.01 1140.46,47.2441 
  "/>
<polyline clip-path="url(#clip932)" style="stroke:#000000; stroke-width:2; stroke-opacity:0.1; fill:none" points="
  1681.18,1521.01 1681.18,47.2441 
  "/>
<polyline clip-path="url(#clip932)" style="stroke:#000000; stroke-width:2; stroke-opacity:0.1; fill:none" points="
  2221.89,1521.01 2221.89,47.2441 
  "/>
<polyline clip-path="url(#clip932)" style="stroke:#000000; stroke-width:2; stroke-opacity:0.1; fill:none" points="
  86.9921,1479.3 2352.76,1479.3 
  "/>
<polyline clip-path="url(#clip932)" style="stroke:#000000; stroke-width:2; stroke-opacity:0.1; fill:none" points="
  86.9921,1255.81 2352.76,1255.81 
  "/>
<polyline clip-path="url(#clip932)" style="stroke:#000000; stroke-width:2; stroke-opacity:0.1; fill:none" points="
  86.9921,1032.32 2352.76,1032.32 
  "/>
<polyline clip-path="url(#clip932)" style="stroke:#000000; stroke-width:2; stroke-opacity:0.1; fill:none" points="
  86.9921,808.825 2352.76,808.825 
  "/>
<polyline clip-path="url(#clip932)" style="stroke:#000000; stroke-width:2; stroke-opacity:0.1; fill:none" points="
  86.9921,585.335 2352.76,585.335 
  "/>
<polyline clip-path="url(#clip932)" style="stroke:#000000; stroke-width:2; stroke-opacity:0.1; fill:none" points="
  86.9921,361.844 2352.76,361.844 
  "/>
<polyline clip-path="url(#clip932)" style="stroke:#000000; stroke-width:2; stroke-opacity:0.1; fill:none" points="
  86.9921,138.353 2352.76,138.353 
  "/>
<polyline clip-path="url(#clip930)" style="stroke:#000000; stroke-width:4; stroke-opacity:1; fill:none" points="
  86.9921,1521.01 2352.76,1521.01 
  "/>
<polyline clip-path="url(#clip930)" style="stroke:#000000; stroke-width:4; stroke-opacity:1; fill:none" points="
  86.9921,1521.01 86.9921,47.2441 
  "/>
<polyline clip-path="url(#clip930)" style="stroke:#000000; stroke-width:4; stroke-opacity:1; fill:none" points="
  599.749,1521.01 599.749,1503.32 
  "/>
<polyline clip-path="url(#clip930)" style="stroke:#000000; stroke-width:4; stroke-opacity:1; fill:none" points="
  1140.46,1521.01 1140.46,1503.32 
  "/>
<polyline clip-path="url(#clip930)" style="stroke:#000000; stroke-width:4; stroke-opacity:1; fill:none" points="
  1681.18,1521.01 1681.18,1503.32 
  "/>
<polyline clip-path="url(#clip930)" style="stroke:#000000; stroke-width:4; stroke-opacity:1; fill:none" points="
  2221.89,1521.01 2221.89,1503.32 
  "/>
<polyline clip-path="url(#clip930)" style="stroke:#000000; stroke-width:4; stroke-opacity:1; fill:none" points="
  86.9921,1479.3 114.181,1479.3 
  "/>
<polyline clip-path="url(#clip930)" style="stroke:#000000; stroke-width:4; stroke-opacity:1; fill:none" points="
  86.9921,1255.81 114.181,1255.81 
  "/>
<polyline clip-path="url(#clip930)" style="stroke:#000000; stroke-width:4; stroke-opacity:1; fill:none" points="
  86.9921,1032.32 114.181,1032.32 
  "/>
<polyline clip-path="url(#clip930)" style="stroke:#000000; stroke-width:4; stroke-opacity:1; fill:none" points="
  86.9921,808.825 114.181,808.825 
  "/>
<polyline clip-path="url(#clip930)" style="stroke:#000000; stroke-width:4; stroke-opacity:1; fill:none" points="
  86.9921,585.335 114.181,585.335 
  "/>
<polyline clip-path="url(#clip930)" style="stroke:#000000; stroke-width:4; stroke-opacity:1; fill:none" points="
  86.9921,361.844 114.181,361.844 
  "/>
<polyline clip-path="url(#clip930)" style="stroke:#000000; stroke-width:4; stroke-opacity:1; fill:none" points="
  86.9921,138.353 114.181,138.353 
  "/>
<path clip-path="url(#clip930)" d="M 0 0 M568.581 1543 Q564.97 1543 563.141 1546.56 Q561.335 1550.11 561.335 1557.23 Q561.335 1564.34 563.141 1567.91 Q564.97 1571.45 568.581 1571.45 Q572.215 1571.45 574.02 1567.91 Q575.849 1564.34 575.849 1557.23 Q575.849 1550.11 574.02 1546.56 Q572.215 1543 568.581 1543 M568.581 1539.29 Q574.391 1539.29 577.446 1543.9 Q580.525 1548.48 580.525 1557.23 Q580.525 1565.96 577.446 1570.57 Q574.391 1575.15 568.581 1575.15 Q562.77 1575.15 559.692 1570.57 Q556.636 1565.96 556.636 1557.23 Q556.636 1548.48 559.692 1543.9 Q562.77 1539.29 568.581 1539.29 Z" fill="#000000" fill-rule="evenodd" fill-opacity="1" /><path clip-path="url(#clip930)" d="M 0 0 M585.594 1568.6 L590.479 1568.6 L590.479 1574.48 L585.594 1574.48 L585.594 1568.6 Z" fill="#000000" fill-rule="evenodd" fill-opacity="1" /><path clip-path="url(#clip930)" d="M 0 0 M609.715 1555.85 Q613.071 1556.56 614.946 1558.83 Q616.844 1561.1 616.844 1564.43 Q616.844 1569.55 613.326 1572.35 Q609.807 1575.15 603.326 1575.15 Q601.15 1575.15 598.835 1574.71 Q596.543 1574.29 594.09 1573.44 L594.09 1568.92 Q596.034 1570.06 598.349 1570.64 Q600.664 1571.22 603.187 1571.22 Q607.585 1571.22 609.877 1569.48 Q612.191 1567.74 612.191 1564.43 Q612.191 1561.38 610.039 1559.67 Q607.909 1557.93 604.09 1557.93 L600.062 1557.93 L600.062 1554.09 L604.275 1554.09 Q607.724 1554.09 609.553 1552.72 Q611.381 1551.33 611.381 1548.74 Q611.381 1546.08 609.483 1544.67 Q607.608 1543.23 604.09 1543.23 Q602.168 1543.23 599.969 1543.65 Q597.77 1544.06 595.131 1544.94 L595.131 1540.78 Q597.793 1540.04 600.108 1539.67 Q602.446 1539.29 604.506 1539.29 Q609.83 1539.29 612.932 1541.73 Q616.034 1544.13 616.034 1548.25 Q616.034 1551.12 614.391 1553.11 Q612.747 1555.08 609.715 1555.85 Z" fill="#000000" fill-rule="evenodd" fill-opacity="1" /><path clip-path="url(#clip930)" d="M 0 0 M621.96 1539.92 L640.316 1539.92 L640.316 1543.86 L626.242 1543.86 L626.242 1552.33 Q627.261 1551.98 628.279 1551.82 Q629.298 1551.63 630.316 1551.63 Q636.103 1551.63 639.483 1554.8 Q642.863 1557.98 642.863 1563.39 Q642.863 1568.97 639.39 1572.07 Q635.918 1575.15 629.599 1575.15 Q627.423 1575.15 625.154 1574.78 Q622.909 1574.41 620.502 1573.67 L620.502 1568.97 Q622.585 1570.1 624.807 1570.66 Q627.029 1571.22 629.506 1571.22 Q633.511 1571.22 635.849 1569.11 Q638.187 1567 638.187 1563.39 Q638.187 1559.78 635.849 1557.67 Q633.511 1555.57 629.506 1555.57 Q627.631 1555.57 625.756 1555.98 Q623.904 1556.4 621.96 1557.28 L621.96 1539.92 Z" fill="#000000" fill-rule="evenodd" fill-opacity="1" /><path clip-path="url(#clip930)" d="M 0 0 M1108.23 1543 Q1104.62 1543 1102.79 1546.56 Q1100.98 1550.11 1100.98 1557.23 Q1100.98 1564.34 1102.79 1567.91 Q1104.62 1571.45 1108.23 1571.45 Q1111.86 1571.45 1113.67 1567.91 Q1115.5 1564.34 1115.5 1557.23 Q1115.5 1550.11 1113.67 1546.56 Q1111.86 1543 1108.23 1543 M1108.23 1539.29 Q1114.04 1539.29 1117.1 1543.9 Q1120.17 1548.48 1120.17 1557.23 Q1120.17 1565.96 1117.1 1570.57 Q1114.04 1575.15 1108.23 1575.15 Q1102.42 1575.15 1099.34 1570.57 Q1096.29 1565.96 1096.29 1557.23 Q1096.29 1548.48 1099.34 1543.9 Q1102.42 1539.29 1108.23 1539.29 Z" fill="#000000" fill-rule="evenodd" fill-opacity="1" /><path clip-path="url(#clip930)" d="M 0 0 M1125.24 1568.6 L1130.13 1568.6 L1130.13 1574.48 L1125.24 1574.48 L1125.24 1568.6 Z" fill="#000000" fill-rule="evenodd" fill-opacity="1" /><path clip-path="url(#clip930)" d="M 0 0 M1148.04 1543.99 L1136.24 1562.44 L1148.04 1562.44 L1148.04 1543.99 M1146.82 1539.92 L1152.7 1539.92 L1152.7 1562.44 L1157.63 1562.44 L1157.63 1566.33 L1152.7 1566.33 L1152.7 1574.48 L1148.04 1574.48 L1148.04 1566.33 L1132.44 1566.33 L1132.44 1561.82 L1146.82 1539.92 Z" fill="#000000" fill-rule="evenodd" fill-opacity="1" /><path clip-path="url(#clip930)" d="M 0 0 M1172.7 1543 Q1169.09 1543 1167.26 1546.56 Q1165.45 1550.11 1165.45 1557.23 Q1165.45 1564.34 1167.26 1567.91 Q1169.09 1571.45 1172.7 1571.45 Q1176.33 1571.45 1178.14 1567.91 Q1179.97 1564.34 1179.97 1557.23 Q1179.97 1550.11 1178.14 1546.56 Q1176.33 1543 1172.7 1543 M1172.7 1539.29 Q1178.51 1539.29 1181.56 1543.9 Q1184.64 1548.48 1184.64 1557.23 Q1184.64 1565.96 1181.56 1570.57 Q1178.51 1575.15 1172.7 1575.15 Q1166.89 1575.15 1163.81 1570.57 Q1160.75 1565.96 1160.75 1557.23 Q1160.75 1548.48 1163.81 1543.9 Q1166.89 1539.29 1172.7 1539.29 Z" fill="#000000" fill-rule="evenodd" fill-opacity="1" /><path clip-path="url(#clip930)" d="M 0 0 M1649.44 1543 Q1645.83 1543 1644 1546.56 Q1642.2 1550.11 1642.2 1557.23 Q1642.2 1564.34 1644 1567.91 Q1645.83 1571.45 1649.44 1571.45 Q1653.08 1571.45 1654.88 1567.91 Q1656.71 1564.34 1656.71 1557.23 Q1656.71 1550.11 1654.88 1546.56 Q1653.08 1543 1649.44 1543 M1649.44 1539.29 Q1655.25 1539.29 1658.31 1543.9 Q1661.39 1548.48 1661.39 1557.23 Q1661.39 1565.96 1658.31 1570.57 Q1655.25 1575.15 1649.44 1575.15 Q1643.63 1575.15 1640.55 1570.57 Q1637.5 1565.96 1637.5 1557.23 Q1637.5 1548.48 1640.55 1543.9 Q1643.63 1539.29 1649.44 1539.29 Z" fill="#000000" fill-rule="evenodd" fill-opacity="1" /><path clip-path="url(#clip930)" d="M 0 0 M1666.46 1568.6 L1671.34 1568.6 L1671.34 1574.48 L1666.46 1574.48 L1666.46 1568.6 Z" fill="#000000" fill-rule="evenodd" fill-opacity="1" /><path clip-path="url(#clip930)" d="M 0 0 M1689.26 1543.99 L1677.45 1562.44 L1689.26 1562.44 L1689.26 1543.99 M1688.03 1539.92 L1693.91 1539.92 L1693.91 1562.44 L1698.84 1562.44 L1698.84 1566.33 L1693.91 1566.33 L1693.91 1574.48 L1689.26 1574.48 L1689.26 1566.33 L1673.66 1566.33 L1673.66 1561.82 L1688.03 1539.92 Z" fill="#000000" fill-rule="evenodd" fill-opacity="1" /><path clip-path="url(#clip930)" d="M 0 0 M1703.96 1539.92 L1722.31 1539.92 L1722.31 1543.86 L1708.24 1543.86 L1708.24 1552.33 Q1709.26 1551.98 1710.28 1551.82 Q1711.29 1551.63 1712.31 1551.63 Q1718.1 1551.63 1721.48 1554.8 Q1724.86 1557.98 1724.86 1563.39 Q1724.86 1568.97 1721.39 1572.07 Q1717.91 1575.15 1711.59 1575.15 Q1709.42 1575.15 1707.15 1574.78 Q1704.9 1574.41 1702.5 1573.67 L1702.5 1568.97 Q1704.58 1570.1 1706.8 1570.66 Q1709.03 1571.22 1711.5 1571.22 Q1715.51 1571.22 1717.84 1569.11 Q1720.18 1567 1720.18 1563.39 Q1720.18 1559.78 1717.84 1557.67 Q1715.51 1555.57 1711.5 1555.57 Q1709.63 1555.57 1707.75 1555.98 Q1705.9 1556.4 1703.96 1557.28 L1703.96 1539.92 Z" fill="#000000" fill-rule="evenodd" fill-opacity="1" /><path clip-path="url(#clip930)" d="M 0 0 M2190.4 1543 Q2186.79 1543 2184.96 1546.56 Q2183.15 1550.11 2183.15 1557.23 Q2183.15 1564.34 2184.96 1567.91 Q2186.79 1571.45 2190.4 1571.45 Q2194.03 1571.45 2195.84 1567.91 Q2197.67 1564.34 2197.67 1557.23 Q2197.67 1550.11 2195.84 1546.56 Q2194.03 1543 2190.4 1543 M2190.4 1539.29 Q2196.21 1539.29 2199.27 1543.9 Q2202.34 1548.48 2202.34 1557.23 Q2202.34 1565.96 2199.27 1570.57 Q2196.21 1575.15 2190.4 1575.15 Q2184.59 1575.15 2181.51 1570.57 Q2178.46 1565.96 2178.46 1557.23 Q2178.46 1548.48 2181.51 1543.9 Q2184.59 1539.29 2190.4 1539.29 Z" fill="#000000" fill-rule="evenodd" fill-opacity="1" /><path clip-path="url(#clip930)" d="M 0 0 M2207.41 1568.6 L2212.3 1568.6 L2212.3 1574.48 L2207.41 1574.48 L2207.41 1568.6 Z" fill="#000000" fill-rule="evenodd" fill-opacity="1" /><path clip-path="url(#clip930)" d="M 0 0 M2217.41 1539.92 L2235.77 1539.92 L2235.77 1543.86 L2221.7 1543.86 L2221.7 1552.33 Q2222.71 1551.98 2223.73 1551.82 Q2224.75 1551.63 2225.77 1551.63 Q2231.56 1551.63 2234.94 1554.8 Q2238.32 1557.98 2238.32 1563.39 Q2238.32 1568.97 2234.84 1572.07 Q2231.37 1575.15 2225.05 1575.15 Q2222.88 1575.15 2220.61 1574.78 Q2218.36 1574.41 2215.96 1573.67 L2215.96 1568.97 Q2218.04 1570.1 2220.26 1570.66 Q2222.48 1571.22 2224.96 1571.22 Q2228.96 1571.22 2231.3 1569.11 Q2233.64 1567 2233.64 1563.39 Q2233.64 1559.78 2231.3 1557.67 Q2228.96 1555.57 2224.96 1555.57 Q2223.08 1555.57 2221.21 1555.98 Q2219.36 1556.4 2217.41 1557.28 L2217.41 1539.92 Z" fill="#000000" fill-rule="evenodd" fill-opacity="1" /><path clip-path="url(#clip930)" d="M 0 0 M2253.39 1543 Q2249.77 1543 2247.95 1546.56 Q2246.14 1550.11 2246.14 1557.23 Q2246.14 1564.34 2247.95 1567.91 Q2249.77 1571.45 2253.39 1571.45 Q2257.02 1571.45 2258.83 1567.91 Q2260.65 1564.34 2260.65 1557.23 Q2260.65 1550.11 2258.83 1546.56 Q2257.02 1543 2253.39 1543 M2253.39 1539.29 Q2259.2 1539.29 2262.25 1543.9 Q2265.33 1548.48 2265.33 1557.23 Q2265.33 1565.96 2262.25 1570.57 Q2259.2 1575.15 2253.39 1575.15 Q2247.58 1575.15 2244.5 1570.57 Q2241.44 1565.96 2241.44 1557.23 Q2241.44 1548.48 2244.5 1543.9 Q2247.58 1539.29 2253.39 1539.29 Z" fill="#000000" fill-rule="evenodd" fill-opacity="1" /><path clip-path="url(#clip930)" d="M 0 0 M51.0477 1465.1 Q47.4367 1465.1 45.608 1468.66 Q43.8024 1472.2 43.8024 1479.33 Q43.8024 1486.44 45.608 1490 Q47.4367 1493.55 51.0477 1493.55 Q54.682 1493.55 56.4875 1490 Q58.3162 1486.44 58.3162 1479.33 Q58.3162 1472.2 56.4875 1468.66 Q54.682 1465.1 51.0477 1465.1 M51.0477 1461.39 Q56.8579 1461.39 59.9134 1466 Q62.9921 1470.58 62.9921 1479.33 Q62.9921 1488.06 59.9134 1492.67 Q56.8579 1497.25 51.0477 1497.25 Q45.2376 1497.25 42.1589 1492.67 Q39.1034 1488.06 39.1034 1479.33 Q39.1034 1470.58 42.1589 1466 Q45.2376 1461.39 51.0477 1461.39 Z" fill="#000000" fill-rule="evenodd" fill-opacity="1" /><path clip-path="url(#clip930)" d="M 0 0 M46.6728 1269.15 L62.9921 1269.15 L62.9921 1273.09 L41.0478 1273.09 L41.0478 1269.15 Q43.7098 1266.4 48.2931 1261.77 Q52.8996 1257.11 54.0801 1255.77 Q56.3255 1253.25 57.2051 1251.51 Q58.1079 1249.75 58.1079 1248.06 Q58.1079 1245.31 56.1635 1243.57 Q54.2422 1241.84 51.1403 1241.84 Q48.9413 1241.84 46.4876 1242.6 Q44.057 1243.36 41.2793 1244.92 L41.2793 1240.19 Q44.1033 1239.06 46.557 1238.48 Q49.0107 1237.9 51.0477 1237.9 Q56.4181 1237.9 59.6125 1240.59 Q62.8069 1243.27 62.8069 1247.76 Q62.8069 1249.89 61.9968 1251.81 Q61.2097 1253.71 59.1033 1256.3 Q58.5246 1256.98 55.4227 1260.19 Q52.3209 1263.39 46.6728 1269.15 Z" fill="#000000" fill-rule="evenodd" fill-opacity="1" /><path clip-path="url(#clip930)" d="M 0 0 M53.4088 1019.11 L41.6034 1037.56 L53.4088 1037.56 L53.4088 1019.11 M52.182 1015.04 L58.0616 1015.04 L58.0616 1037.56 L62.9921 1037.56 L62.9921 1041.45 L58.0616 1041.45 L58.0616 1049.6 L53.4088 1049.6 L53.4088 1041.45 L37.8071 1041.45 L37.8071 1036.93 L52.182 1015.04 Z" fill="#000000" fill-rule="evenodd" fill-opacity="1" /><path clip-path="url(#clip930)" d="M 0 0 M51.4644 806.962 Q48.3163 806.962 46.4644 809.115 Q44.6357 811.268 44.6357 815.017 Q44.6357 818.744 46.4644 820.92 Q48.3163 823.073 51.4644 823.073 Q54.6125 823.073 56.4412 820.92 Q58.2931 818.744 58.2931 815.017 Q58.2931 811.268 56.4412 809.115 Q54.6125 806.962 51.4644 806.962 M60.7468 792.309 L60.7468 796.569 Q58.9875 795.735 57.182 795.295 Q55.3996 794.856 53.6403 794.856 Q49.0107 794.856 46.557 797.981 Q44.1265 801.106 43.7793 807.425 Q45.145 805.411 47.2052 804.346 Q49.2653 803.258 51.7422 803.258 Q56.9505 803.258 59.9597 806.43 Q62.9921 809.578 62.9921 815.017 Q62.9921 820.342 59.844 823.559 Q56.6959 826.777 51.4644 826.777 Q45.4691 826.777 42.2978 822.193 Q39.1265 817.587 39.1265 808.86 Q39.1265 800.666 43.0154 795.805 Q46.9042 790.92 53.4551 790.92 Q55.2144 790.92 56.9968 791.268 Q58.8023 791.615 60.7468 792.309 Z" fill="#000000" fill-rule="evenodd" fill-opacity="1" /><path clip-path="url(#clip930)" d="M 0 0 M51.1403 586.203 Q47.807 586.203 45.8857 587.985 Q43.9876 589.768 43.9876 592.892 Q43.9876 596.017 45.8857 597.8 Q47.807 599.582 51.1403 599.582 Q54.4737 599.582 56.3949 597.8 Q58.3162 595.994 58.3162 592.892 Q58.3162 589.768 56.3949 587.985 Q54.4968 586.203 51.1403 586.203 M46.4644 584.212 Q43.4552 583.471 41.7654 581.411 Q40.0987 579.351 40.0987 576.388 Q40.0987 572.244 43.0385 569.837 Q46.0015 567.43 51.1403 567.43 Q56.3023 567.43 59.2421 569.837 Q62.1819 572.244 62.1819 576.388 Q62.1819 579.351 60.4921 581.411 Q58.8255 583.471 55.8394 584.212 Q59.219 584.999 61.094 587.291 Q62.9921 589.582 62.9921 592.892 Q62.9921 597.916 59.9134 600.601 Q56.8579 603.286 51.1403 603.286 Q45.4228 603.286 42.3441 600.601 Q39.2885 597.916 39.2885 592.892 Q39.2885 589.582 41.1867 587.291 Q43.0848 584.999 46.4644 584.212 M44.7515 576.828 Q44.7515 579.513 46.4181 581.018 Q48.1079 582.522 51.1403 582.522 Q54.1496 582.522 55.8394 581.018 Q57.5523 579.513 57.5523 576.828 Q57.5523 574.143 55.8394 572.638 Q54.1496 571.133 51.1403 571.133 Q48.1079 571.133 46.4181 572.638 Q44.7515 574.143 44.7515 576.828 Z" fill="#000000" fill-rule="evenodd" fill-opacity="1" /><path clip-path="url(#clip930)" d="M 0 0 M16.0711 375.189 L23.7099 375.189 L23.7099 348.823 L15.3998 350.49 L15.3998 346.231 L23.6636 344.564 L28.3395 344.564 L28.3395 375.189 L35.9784 375.189 L35.9784 379.124 L16.0711 379.124 L16.0711 375.189 Z" fill="#000000" fill-rule="evenodd" fill-opacity="1" /><path clip-path="url(#clip930)" d="M 0 0 M51.0477 347.643 Q47.4367 347.643 45.608 351.207 Q43.8024 354.749 43.8024 361.879 Q43.8024 368.985 45.608 372.55 Q47.4367 376.092 51.0477 376.092 Q54.682 376.092 56.4875 372.55 Q58.3162 368.985 58.3162 361.879 Q58.3162 354.749 56.4875 351.207 Q54.682 347.643 51.0477 347.643 M51.0477 343.939 Q56.8579 343.939 59.9134 348.545 Q62.9921 353.129 62.9921 361.879 Q62.9921 370.605 59.9134 375.212 Q56.8579 379.795 51.0477 379.795 Q45.2376 379.795 42.1589 375.212 Q39.1034 370.605 39.1034 361.879 Q39.1034 353.129 42.1589 348.545 Q45.2376 343.939 51.0477 343.939 Z" fill="#000000" fill-rule="evenodd" fill-opacity="1" /><path clip-path="url(#clip930)" d="M 0 0 M17.6683 151.698 L25.3071 151.698 L25.3071 125.332 L16.997 126.999 L16.997 122.74 L25.2608 121.073 L29.9367 121.073 L29.9367 151.698 L37.5756 151.698 L37.5756 155.633 L17.6683 155.633 L17.6683 151.698 Z" fill="#000000" fill-rule="evenodd" fill-opacity="1" /><path clip-path="url(#clip930)" d="M 0 0 M46.6728 151.698 L62.9921 151.698 L62.9921 155.633 L41.0478 155.633 L41.0478 151.698 Q43.7098 148.943 48.2931 144.314 Q52.8996 139.661 54.0801 138.318 Q56.3255 135.795 57.2051 134.059 Q58.1079 132.3 58.1079 130.61 Q58.1079 127.856 56.1635 126.119 Q54.2422 124.383 51.1403 124.383 Q48.9413 124.383 46.4876 125.147 Q44.057 125.911 41.2793 127.462 L41.2793 122.74 Q44.1033 121.606 46.557 121.027 Q49.0107 120.448 51.0477 120.448 Q56.4181 120.448 59.6125 123.133 Q62.8069 125.819 62.8069 130.309 Q62.8069 132.439 61.9968 134.36 Q61.2097 136.258 59.1033 138.851 Q58.5246 139.522 55.4227 142.74 Q52.3209 145.934 46.6728 151.698 Z" fill="#000000" fill-rule="evenodd" fill-opacity="1" /><path clip-path="url(#clip932)" d="
M151.118 1404.5 L153.281 1401.14 L155.445 1397.69 L157.609 1394.15 L159.773 1390.53 L161.937 1386.83 L164.101 1383.04 L166.265 1379.17 L168.429 1375.22 L170.593 1371.19 
  L172.757 1367.08 L174.921 1362.9 L177.085 1358.65 L179.249 1354.33 L181.413 1349.94 L183.577 1345.5 L185.741 1340.99 L187.905 1336.43 L190.068 1331.81 L192.232 1327.15 
  L194.396 1322.44 L196.56 1317.69 L198.724 1312.92 L200.888 1308.11 L203.052 1303.27 L205.216 1298.42 L207.38 1293.56 L209.544 1288.69 L211.708 1283.83 L213.872 1278.96 
  L216.036 1274.11 L218.2 1269.28 L220.364 1264.48 L222.528 1259.71 L224.692 1254.99 L226.855 1250.31 L229.019 1245.69 L231.183 1241.13 L233.347 1236.65 L235.511 1232.24 
  L237.675 1227.92 L239.839 1223.69 L242.003 1219.57 L244.167 1215.56 L246.331 1211.66 L248.495 1207.89 L250.659 1204.25 L252.823 1200.74 L254.987 1197.38 L257.151 1194.17 
  L259.315 1191.12 L261.479 1188.23 L263.642 1185.51 L265.806 1182.96 L267.97 1180.6 L270.134 1178.41 L272.298 1176.41 L274.462 1174.6 L276.626 1172.98 L278.79 1171.55 
  L280.954 1170.33 L283.118 1169.3 L285.282 1168.48 L287.446 1167.86 L289.61 1167.44 L291.774 1167.22 L293.938 1167.2 L296.102 1167.38 L298.266 1167.76 L300.429 1168.34 
  L302.593 1169.12 L304.757 1170.08 L306.921 1171.23 L309.085 1172.57 L311.249 1174.09 L313.413 1175.78 L315.577 1177.65 L317.741 1179.68 L319.905 1181.87 L322.069 1184.21 
  L324.233 1186.71 L326.397 1189.34 L328.561 1192.11 L330.725 1195.01 L332.889 1198.02 L335.053 1201.15 L337.216 1204.39 L339.38 1207.72 L341.544 1211.14 L343.708 1214.64 
  L345.872 1218.22 L348.036 1221.86 L350.2 1225.55 L352.364 1229.29 L354.528 1233.07 L356.692 1236.89 L358.856 1240.72 L361.02 1244.57 L363.184 1248.42 L365.348 1252.27 
  L365.348 1479.3 L363.184 1479.3 L361.02 1479.3 L358.856 1479.3 L356.692 1479.3 L354.528 1479.3 L352.364 1479.3 L350.2 1479.3 L348.036 1479.3 L345.872 1479.3 
  L343.708 1479.3 L341.544 1479.3 L339.38 1479.3 L337.216 1479.3 L335.053 1479.3 L332.889 1479.3 L330.725 1479.3 L328.561 1479.3 L326.397 1479.3 L324.233 1479.3 
  L322.069 1479.3 L319.905 1479.3 L317.741 1479.3 L315.577 1479.3 L313.413 1479.3 L311.249 1479.3 L309.085 1479.3 L306.921 1479.3 L304.757 1479.3 L302.593 1479.3 
  L300.429 1479.3 L298.266 1479.3 L296.102 1479.3 L293.938 1479.3 L291.774 1479.3 L289.61 1479.3 L287.446 1479.3 L285.282 1479.3 L283.118 1479.3 L280.954 1479.3 
  L278.79 1479.3 L276.626 1479.3 L274.462 1479.3 L272.298 1479.3 L270.134 1479.3 L267.97 1479.3 L265.806 1479.3 L263.642 1479.3 L261.479 1479.3 L259.315 1479.3 
  L257.151 1479.3 L254.987 1479.3 L252.823 1479.3 L250.659 1479.3 L248.495 1479.3 L246.331 1479.3 L244.167 1479.3 L242.003 1479.3 L239.839 1479.3 L237.675 1479.3 
  L235.511 1479.3 L233.347 1479.3 L231.183 1479.3 L229.019 1479.3 L226.855 1479.3 L224.692 1479.3 L222.528 1479.3 L220.364 1479.3 L218.2 1479.3 L216.036 1479.3 
  L213.872 1479.3 L211.708 1479.3 L209.544 1479.3 L207.38 1479.3 L205.216 1479.3 L203.052 1479.3 L200.888 1479.3 L198.724 1479.3 L196.56 1479.3 L194.396 1479.3 
  L192.232 1479.3 L190.068 1479.3 L187.905 1479.3 L185.741 1479.3 L183.577 1479.3 L181.413 1479.3 L179.249 1479.3 L177.085 1479.3 L174.921 1479.3 L172.757 1479.3 
  L170.593 1479.3 L168.429 1479.3 L166.265 1479.3 L164.101 1479.3 L161.937 1479.3 L159.773 1479.3 L157.609 1479.3 L155.445 1479.3 L153.281 1479.3 L151.118 1479.3 
   Z
  " fill="#ffa500" fill-rule="evenodd" fill-opacity="0.5"/>
<polyline clip-path="url(#clip932)" style="stroke:#ffa500; stroke-width:4; stroke-opacity:1; fill:none" points="
  151.118,1404.5 153.281,1401.14 155.445,1397.69 157.609,1394.15 159.773,1390.53 161.937,1386.83 164.101,1383.04 166.265,1379.17 168.429,1375.22 170.593,1371.19 
  172.757,1367.08 174.921,1362.9 177.085,1358.65 179.249,1354.33 181.413,1349.94 183.577,1345.5 185.741,1340.99 187.905,1336.43 190.068,1331.81 192.232,1327.15 
  194.396,1322.44 196.56,1317.69 198.724,1312.92 200.888,1308.11 203.052,1303.27 205.216,1298.42 207.38,1293.56 209.544,1288.69 211.708,1283.83 213.872,1278.96 
  216.036,1274.11 218.2,1269.28 220.364,1264.48 222.528,1259.71 224.692,1254.99 226.855,1250.31 229.019,1245.69 231.183,1241.13 233.347,1236.65 235.511,1232.24 
  237.675,1227.92 239.839,1223.69 242.003,1219.57 244.167,1215.56 246.331,1211.66 248.495,1207.89 250.659,1204.25 252.823,1200.74 254.987,1197.38 257.151,1194.17 
  259.315,1191.12 261.479,1188.23 263.642,1185.51 265.806,1182.96 267.97,1180.6 270.134,1178.41 272.298,1176.41 274.462,1174.6 276.626,1172.98 278.79,1171.55 
  280.954,1170.33 283.118,1169.3 285.282,1168.48 287.446,1167.86 289.61,1167.44 291.774,1167.22 293.938,1167.2 296.102,1167.38 298.266,1167.76 300.429,1168.34 
  302.593,1169.12 304.757,1170.08 306.921,1171.23 309.085,1172.57 311.249,1174.09 313.413,1175.78 315.577,1177.65 317.741,1179.68 319.905,1181.87 322.069,1184.21 
  324.233,1186.71 326.397,1189.34 328.561,1192.11 330.725,1195.01 332.889,1198.02 335.053,1201.15 337.216,1204.39 339.38,1207.72 341.544,1211.14 343.708,1214.64 
  345.872,1218.22 348.036,1221.86 350.2,1225.55 352.364,1229.29 354.528,1233.07 356.692,1236.89 358.856,1240.72 361.02,1244.57 363.184,1248.42 365.348,1252.27 
  
  "/>
<path clip-path="url(#clip932)" d="
M365.348 1252.27 L381.664 1280.47 L397.981 1305.22 L414.298 1324.55 L430.614 1337.55 L446.931 1344.18 L463.247 1344.98 L479.564 1340.85 L495.881 1333.01 L512.197 1322.97 
  L528.514 1312.38 L544.83 1302.65 L561.147 1294.63 L577.464 1288.26 L593.78 1282.51 L610.097 1275.52 L626.414 1264.84 L642.73 1247.79 L659.047 1221.84 L675.363 1185.27 
  L691.68 1137.72 L707.997 1080.95 L724.313 1019.27 L740.63 959.554 L756.946 910.521 L773.263 881.057 L789.58 877.829 L805.896 902.958 L822.213 952.827 L838.529 1018.77 
  L854.846 1089.6 L871.163 1154.82 L887.479 1207.21 L903.796 1243.72 L920.112 1264.69 L936.429 1272.15 L952.746 1268.27 L969.062 1254.55 L985.379 1231.89 L1001.7 1201.17 
  L1018.01 1163.74 L1034.33 1121.59 L1050.65 1077.02 L1066.96 1031.94 L1083.28 987.131 L1099.6 941.774 L1115.91 893.536 L1132.23 839.228 L1148.55 775.94 L1164.86 702.236 
  L1181.18 618.958 L1197.49 529.341 L1213.81 438.393 L1230.13 351.802 L1246.44 274.735 L1262.76 210.884 L1279.08 161.941 L1295.39 127.585 L1311.71 105.897 L1328.03 94.0899 
  L1344.34 89.3503 L1360.66 89.6032 L1376.98 94.0151 L1393.29 103.1 L1409.61 118.381 L1425.93 141.69 L1442.24 174.317 L1458.56 216.342 L1474.88 266.385 L1491.19 321.86 
  L1507.51 379.529 L1523.83 436.069 L1540.14 488.389 L1556.46 533.748 L1572.78 569.826 L1589.09 594.931 L1605.41 608.31 L1621.73 610.336 L1638.04 602.41 L1654.36 586.601 
  L1670.68 565.255 L1686.99 540.82 L1703.31 515.937 L1719.63 493.63 L1735.94 477.331 L1752.26 470.585 L1768.58 476.444 L1784.89 496.716 L1801.21 531.304 L1817.53 577.876 
  L1833.84 632.094 L1850.16 688.48 L1866.48 741.74 L1882.79 788.122 L1899.11 826.275 L1915.43 857.28 L1931.74 883.914 L1948.06 909.528 L1964.38 937.023 L1980.69 968.23 
  L1980.69 1479.3 L1964.38 1479.3 L1948.06 1479.3 L1931.74 1479.3 L1915.43 1479.3 L1899.11 1479.3 L1882.79 1479.3 L1866.48 1479.3 L1850.16 1479.3 L1833.84 1479.3 
  L1817.53 1479.3 L1801.21 1479.3 L1784.89 1479.3 L1768.58 1479.3 L1752.26 1479.3 L1735.94 1479.3 L1719.63 1479.3 L1703.31 1479.3 L1686.99 1479.3 L1670.68 1479.3 
  L1654.36 1479.3 L1638.04 1479.3 L1621.73 1479.3 L1605.41 1479.3 L1589.09 1479.3 L1572.78 1479.3 L1556.46 1479.3 L1540.14 1479.3 L1523.83 1479.3 L1507.51 1479.3 
  L1491.19 1479.3 L1474.88 1479.3 L1458.56 1479.3 L1442.24 1479.3 L1425.93 1479.3 L1409.61 1479.3 L1393.29 1479.3 L1376.98 1479.3 L1360.66 1479.3 L1344.34 1479.3 
  L1328.03 1479.3 L1311.71 1479.3 L1295.39 1479.3 L1279.08 1479.3 L1262.76 1479.3 L1246.44 1479.3 L1230.13 1479.3 L1213.81 1479.3 L1197.49 1479.3 L1181.18 1479.3 
  L1164.86 1479.3 L1148.55 1479.3 L1132.23 1479.3 L1115.91 1479.3 L1099.6 1479.3 L1083.28 1479.3 L1066.96 1479.3 L1050.65 1479.3 L1034.33 1479.3 L1018.01 1479.3 
  L1001.7 1479.3 L985.379 1479.3 L969.062 1479.3 L952.746 1479.3 L936.429 1479.3 L920.112 1479.3 L903.796 1479.3 L887.479 1479.3 L871.163 1479.3 L854.846 1479.3 
  L838.529 1479.3 L822.213 1479.3 L805.896 1479.3 L789.58 1479.3 L773.263 1479.3 L756.946 1479.3 L740.63 1479.3 L724.313 1479.3 L707.997 1479.3 L691.68 1479.3 
  L675.363 1479.3 L659.047 1479.3 L642.73 1479.3 L626.414 1479.3 L610.097 1479.3 L593.78 1479.3 L577.464 1479.3 L561.147 1479.3 L544.83 1479.3 L528.514 1479.3 
  L512.197 1479.3 L495.881 1479.3 L479.564 1479.3 L463.247 1479.3 L446.931 1479.3 L430.614 1479.3 L414.298 1479.3 L397.981 1479.3 L381.664 1479.3 L365.348 1479.3 
   Z
  " fill="#008000" fill-rule="evenodd" fill-opacity="0.5"/>
<polyline clip-path="url(#clip932)" style="stroke:#008000; stroke-width:4; stroke-opacity:1; fill:none" points="
  365.348,1252.27 381.664,1280.47 397.981,1305.22 414.298,1324.55 430.614,1337.55 446.931,1344.18 463.247,1344.98 479.564,1340.85 495.881,1333.01 512.197,1322.97 
  528.514,1312.38 544.83,1302.65 561.147,1294.63 577.464,1288.26 593.78,1282.51 610.097,1275.52 626.414,1264.84 642.73,1247.79 659.047,1221.84 675.363,1185.27 
  691.68,1137.72 707.997,1080.95 724.313,1019.27 740.63,959.554 756.946,910.521 773.263,881.057 789.58,877.829 805.896,902.958 822.213,952.827 838.529,1018.77 
  854.846,1089.6 871.163,1154.82 887.479,1207.21 903.796,1243.72 920.112,1264.69 936.429,1272.15 952.746,1268.27 969.062,1254.55 985.379,1231.89 1001.7,1201.17 
  1018.01,1163.74 1034.33,1121.59 1050.65,1077.02 1066.96,1031.94 1083.28,987.131 1099.6,941.774 1115.91,893.536 1132.23,839.228 1148.55,775.94 1164.86,702.236 
  1181.18,618.958 1197.49,529.341 1213.81,438.393 1230.13,351.802 1246.44,274.735 1262.76,210.884 1279.08,161.941 1295.39,127.585 1311.71,105.897 1328.03,94.0899 
  1344.34,89.3503 1360.66,89.6032 1376.98,94.0151 1393.29,103.1 1409.61,118.381 1425.93,141.69 1442.24,174.317 1458.56,216.342 1474.88,266.385 1491.19,321.86 
  1507.51,379.529 1523.83,436.069 1540.14,488.389 1556.46,533.748 1572.78,569.826 1589.09,594.931 1605.41,608.31 1621.73,610.336 1638.04,602.41 1654.36,586.601 
  1670.68,565.255 1686.99,540.82 1703.31,515.937 1719.63,493.63 1735.94,477.331 1752.26,470.585 1768.58,476.444 1784.89,496.716 1801.21,531.304 1817.53,577.876 
  1833.84,632.094 1850.16,688.48 1866.48,741.74 1882.79,788.122 1899.11,826.275 1915.43,857.28 1931.74,883.914 1948.06,909.528 1964.38,937.023 1980.69,968.23 
  
  "/>
<path clip-path="url(#clip932)" d="
M1980.69 968.23 L1983.8 974.67 L1986.91 981.267 L1990.02 988.021 L1993.13 994.928 L1996.24 1001.98 L1999.36 1009.18 L2002.47 1016.51 L2005.58 1023.96 L2008.69 1031.54 
  L2011.8 1039.22 L2014.91 1047 L2018.02 1054.86 L2021.13 1062.8 L2024.24 1070.8 L2027.35 1078.85 L2030.46 1086.94 L2033.57 1095.06 L2036.68 1103.2 L2039.79 1111.33 
  L2042.9 1119.46 L2046.01 1127.57 L2049.12 1135.64 L2052.23 1143.68 L2055.34 1151.67 L2058.45 1159.59 L2061.56 1167.46 L2064.68 1175.24 L2067.79 1182.94 L2070.9 1190.56 
  L2074.01 1198.09 L2077.12 1205.51 L2080.23 1212.84 L2083.34 1220.06 L2086.45 1227.17 L2089.56 1234.18 L2092.67 1241.07 L2095.78 1247.85 L2098.89 1254.52 L2102 1261.08 
  L2105.11 1267.52 L2108.22 1273.85 L2111.33 1280.06 L2114.44 1286.17 L2117.55 1292.15 L2120.66 1298.02 L2123.77 1303.78 L2126.89 1309.42 L2130 1314.94 L2133.11 1320.35 
  L2136.22 1325.64 L2139.33 1330.8 L2142.44 1335.84 L2145.55 1340.76 L2148.66 1345.56 L2151.77 1350.22 L2154.88 1354.76 L2157.99 1359.16 L2161.1 1363.43 L2164.21 1367.56 
  L2167.32 1371.55 L2170.43 1375.41 L2173.54 1379.12 L2176.65 1382.7 L2179.76 1386.13 L2182.87 1389.43 L2185.98 1392.58 L2189.09 1395.59 L2192.21 1398.47 L2195.32 1401.22 
  L2198.43 1403.83 L2201.54 1406.32 L2204.65 1408.68 L2207.76 1410.93 L2210.87 1413.06 L2213.98 1415.08 L2217.09 1417 L2220.2 1418.83 L2223.31 1420.56 L2226.42 1422.21 
  L2229.53 1423.79 L2232.64 1425.3 L2235.75 1426.74 L2238.86 1428.14 L2241.97 1429.48 L2245.08 1430.78 L2248.19 1432.04 L2251.3 1433.27 L2254.42 1434.48 L2257.53 1435.67 
  L2260.64 1436.84 L2263.75 1438.01 L2266.86 1439.16 L2269.97 1440.32 L2273.08 1441.47 L2276.19 1442.62 L2279.3 1443.77 L2282.41 1444.92 L2285.52 1446.08 L2288.63 1447.24 
  L2288.63 1479.3 L2285.52 1479.3 L2282.41 1479.3 L2279.3 1479.3 L2276.19 1479.3 L2273.08 1479.3 L2269.97 1479.3 L2266.86 1479.3 L2263.75 1479.3 L2260.64 1479.3 
  L2257.53 1479.3 L2254.42 1479.3 L2251.3 1479.3 L2248.19 1479.3 L2245.08 1479.3 L2241.97 1479.3 L2238.86 1479.3 L2235.75 1479.3 L2232.64 1479.3 L2229.53 1479.3 
  L2226.42 1479.3 L2223.31 1479.3 L2220.2 1479.3 L2217.09 1479.3 L2213.98 1479.3 L2210.87 1479.3 L2207.76 1479.3 L2204.65 1479.3 L2201.54 1479.3 L2198.43 1479.3 
  L2195.32 1479.3 L2192.21 1479.3 L2189.09 1479.3 L2185.98 1479.3 L2182.87 1479.3 L2179.76 1479.3 L2176.65 1479.3 L2173.54 1479.3 L2170.43 1479.3 L2167.32 1479.3 
  L2164.21 1479.3 L2161.1 1479.3 L2157.99 1479.3 L2154.88 1479.3 L2151.77 1479.3 L2148.66 1479.3 L2145.55 1479.3 L2142.44 1479.3 L2139.33 1479.3 L2136.22 1479.3 
  L2133.11 1479.3 L2130 1479.3 L2126.89 1479.3 L2123.77 1479.3 L2120.66 1479.3 L2117.55 1479.3 L2114.44 1479.3 L2111.33 1479.3 L2108.22 1479.3 L2105.11 1479.3 
  L2102 1479.3 L2098.89 1479.3 L2095.78 1479.3 L2092.67 1479.3 L2089.56 1479.3 L2086.45 1479.3 L2083.34 1479.3 L2080.23 1479.3 L2077.12 1479.3 L2074.01 1479.3 
  L2070.9 1479.3 L2067.79 1479.3 L2064.68 1479.3 L2061.56 1479.3 L2058.45 1479.3 L2055.34 1479.3 L2052.23 1479.3 L2049.12 1479.3 L2046.01 1479.3 L2042.9 1479.3 
  L2039.79 1479.3 L2036.68 1479.3 L2033.57 1479.3 L2030.46 1479.3 L2027.35 1479.3 L2024.24 1479.3 L2021.13 1479.3 L2018.02 1479.3 L2014.91 1479.3 L2011.8 1479.3 
  L2008.69 1479.3 L2005.58 1479.3 L2002.47 1479.3 L1999.36 1479.3 L1996.24 1479.3 L1993.13 1479.3 L1990.02 1479.3 L1986.91 1479.3 L1983.8 1479.3 L1980.69 1479.3 
   Z
  " fill="#ffa500" fill-rule="evenodd" fill-opacity="0.5"/>
<polyline clip-path="url(#clip932)" style="stroke:#ffa500; stroke-width:4; stroke-opacity:1; fill:none" points="
  1980.69,968.23 1983.8,974.67 1986.91,981.267 1990.02,988.021 1993.13,994.928 1996.24,1001.98 1999.36,1009.18 2002.47,1016.51 2005.58,1023.96 2008.69,1031.54 
  2011.8,1039.22 2014.91,1047 2018.02,1054.86 2021.13,1062.8 2024.24,1070.8 2027.35,1078.85 2030.46,1086.94 2033.57,1095.06 2036.68,1103.2 2039.79,1111.33 
  2042.9,1119.46 2046.01,1127.57 2049.12,1135.64 2052.23,1143.68 2055.34,1151.67 2058.45,1159.59 2061.56,1167.46 2064.68,1175.24 2067.79,1182.94 2070.9,1190.56 
  2074.01,1198.09 2077.12,1205.51 2080.23,1212.84 2083.34,1220.06 2086.45,1227.17 2089.56,1234.18 2092.67,1241.07 2095.78,1247.85 2098.89,1254.52 2102,1261.08 
  2105.11,1267.52 2108.22,1273.85 2111.33,1280.06 2114.44,1286.17 2117.55,1292.15 2120.66,1298.02 2123.77,1303.78 2126.89,1309.42 2130,1314.94 2133.11,1320.35 
  2136.22,1325.64 2139.33,1330.8 2142.44,1335.84 2145.55,1340.76 2148.66,1345.56 2151.77,1350.22 2154.88,1354.76 2157.99,1359.16 2161.1,1363.43 2164.21,1367.56 
  2167.32,1371.55 2170.43,1375.41 2173.54,1379.12 2176.65,1382.7 2179.76,1386.13 2182.87,1389.43 2185.98,1392.58 2189.09,1395.59 2192.21,1398.47 2195.32,1401.22 
  2198.43,1403.83 2201.54,1406.32 2204.65,1408.68 2207.76,1410.93 2210.87,1413.06 2213.98,1415.08 2217.09,1417 2220.2,1418.83 2223.31,1420.56 2226.42,1422.21 
  2229.53,1423.79 2232.64,1425.3 2235.75,1426.74 2238.86,1428.14 2241.97,1429.48 2245.08,1430.78 2248.19,1432.04 2251.3,1433.27 2254.42,1434.48 2257.53,1435.67 
  2260.64,1436.84 2263.75,1438.01 2266.86,1439.16 2269.97,1440.32 2273.08,1441.47 2276.19,1442.62 2279.3,1443.77 2282.41,1444.92 2285.52,1446.08 2288.63,1447.24 
  
  "/>
<polyline clip-path="url(#clip932)" style="stroke:#0000ff; stroke-width:4; stroke-opacity:1; fill:none" points="
  1353.23,1479.3 1353.23,88.9544 
  "/>
<polyline clip-path="url(#clip932)" style="stroke:#000000; stroke-width:4; stroke-opacity:1; fill:none" points="
  1401.53,1479.3 1401.53,109.918 
  "/>
<path clip-path="url(#clip930)" d="
M1494.58 459.25 L2277.23 459.25 L2277.23 96.3696 L1494.58 96.3696  Z
  " fill="#ffffff" fill-rule="evenodd" fill-opacity="1"/>
<polyline clip-path="url(#clip930)" style="stroke:#000000; stroke-width:4; stroke-opacity:1; fill:none" points="
  1494.58,459.25 2277.23,459.25 2277.23,96.3696 1494.58,96.3696 1494.58,459.25 
  "/>
<path clip-path="url(#clip930)" d="
M1519.75 181.042 L1670.81 181.042 L1670.81 132.658 L1519.75 132.658 L1519.75 181.042  Z
  " fill="#ffa500" fill-rule="evenodd" fill-opacity="0.5"/>
<polyline clip-path="url(#clip930)" style="stroke:#ffa500; stroke-width:4; stroke-opacity:1; fill:none" points="
  1519.75,132.658 1670.81,132.658 
  "/>
<path clip-path="url(#clip930)" d="M 0 0 M1700.38 161.19 Q1700.38 165.889 1702.3 168.574 Q1704.24 171.236 1707.62 171.236 Q1711 171.236 1712.95 168.574 Q1714.89 165.889 1714.89 161.19 Q1714.89 156.491 1712.95 153.829 Q1711 151.144 1707.62 151.144 Q1704.24 151.144 1702.3 153.829 Q1700.38 156.491 1700.38 161.19 M1714.89 170.241 Q1713.55 172.555 1711.49 173.69 Q1709.45 174.801 1706.58 174.801 Q1701.88 174.801 1698.92 171.051 Q1695.98 167.301 1695.98 161.19 Q1695.98 155.079 1698.92 151.329 Q1701.88 147.579 1706.58 147.579 Q1709.45 147.579 1711.49 148.713 Q1713.55 149.824 1714.89 152.139 L1714.89 148.204 L1719.15 148.204 L1719.15 183.991 L1714.89 183.991 L1714.89 170.241 Z" fill="#000000" fill-rule="evenodd" fill-opacity="1" /><path clip-path="url(#clip930)" d="M 0 0 M1734.22 142.648 Q1730.61 142.648 1728.78 146.213 Q1726.98 149.755 1726.98 156.884 Q1726.98 163.991 1728.78 167.556 Q1730.61 171.097 1734.22 171.097 Q1737.85 171.097 1739.66 167.556 Q1741.49 163.991 1741.49 156.884 Q1741.49 149.755 1739.66 146.213 Q1737.85 142.648 1734.22 142.648 M1734.22 138.945 Q1740.03 138.945 1743.09 143.551 Q1746.17 148.134 1746.17 156.884 Q1746.17 165.611 1743.09 170.218 Q1740.03 174.801 1734.22 174.801 Q1728.41 174.801 1725.33 170.218 Q1722.28 165.611 1722.28 156.884 Q1722.28 148.134 1725.33 143.551 Q1728.41 138.945 1734.22 138.945 Z" fill="#000000" fill-rule="evenodd" fill-opacity="1" /><path clip-path="url(#clip930)" d="M 0 0 M1751.28 139.57 L1769.64 139.57 L1769.64 143.505 L1755.56 143.505 L1755.56 151.977 Q1756.58 151.63 1757.6 151.468 Q1758.62 151.282 1759.64 151.282 Q1765.42 151.282 1768.8 154.454 Q1772.18 157.625 1772.18 163.042 Q1772.18 168.62 1768.71 171.722 Q1765.24 174.801 1758.92 174.801 Q1756.74 174.801 1754.48 174.43 Q1752.23 174.06 1749.82 173.319 L1749.82 168.62 Q1751.91 169.755 1754.13 170.31 Q1756.35 170.866 1758.83 170.866 Q1762.83 170.866 1765.17 168.759 Q1767.51 166.653 1767.51 163.042 Q1767.51 159.431 1765.17 157.324 Q1762.83 155.218 1758.83 155.218 Q1756.95 155.218 1755.08 155.634 Q1753.23 156.051 1751.28 156.931 L1751.28 139.57 Z" fill="#000000" fill-rule="evenodd" fill-opacity="1" /><path clip-path="url(#clip930)" d="
M1519.75 241.522 L1670.81 241.522 L1670.81 193.138 L1519.75 193.138 L1519.75 241.522  Z
  " fill="#008000" fill-rule="evenodd" fill-opacity="0.5"/>
<polyline clip-path="url(#clip930)" style="stroke:#008000; stroke-width:4; stroke-opacity:1; fill:none" points="
  1519.75,193.138 1670.81,193.138 
  "/>
<path clip-path="url(#clip930)" d="M 0 0 M1698.2 233.892 L1698.2 229.633 Q1699.96 230.466 1701.77 230.906 Q1703.57 231.346 1705.31 231.346 Q1709.94 231.346 1712.37 228.244 Q1714.82 225.119 1715.17 218.776 Q1713.83 220.767 1711.77 221.832 Q1709.71 222.897 1707.21 222.897 Q1702.02 222.897 1698.99 219.772 Q1695.98 216.624 1695.98 211.184 Q1695.98 205.86 1699.13 202.642 Q1702.28 199.425 1707.51 199.425 Q1713.5 199.425 1716.65 204.031 Q1719.82 208.614 1719.82 217.364 Q1719.82 225.536 1715.93 230.42 Q1712.07 235.281 1705.52 235.281 Q1703.76 235.281 1701.95 234.934 Q1700.15 234.586 1698.2 233.892 M1707.51 219.239 Q1710.66 219.239 1712.48 217.086 Q1714.34 214.934 1714.34 211.184 Q1714.34 207.457 1712.48 205.304 Q1710.66 203.128 1707.51 203.128 Q1704.36 203.128 1702.51 205.304 Q1700.68 207.457 1700.68 211.184 Q1700.68 214.934 1702.51 217.086 Q1704.36 219.239 1707.51 219.239 Z" fill="#000000" fill-rule="evenodd" fill-opacity="1" /><path clip-path="url(#clip930)" d="M 0 0 M1734.89 203.128 Q1731.28 203.128 1729.45 206.693 Q1727.65 210.235 1727.65 217.364 Q1727.65 224.471 1729.45 228.036 Q1731.28 231.577 1734.89 231.577 Q1738.53 231.577 1740.33 228.036 Q1742.16 224.471 1742.16 217.364 Q1742.16 210.235 1740.33 206.693 Q1738.53 203.128 1734.89 203.128 M1734.89 199.425 Q1740.7 199.425 1743.76 204.031 Q1746.84 208.614 1746.84 217.364 Q1746.84 226.091 1743.76 230.698 Q1740.7 235.281 1734.89 235.281 Q1729.08 235.281 1726 230.698 Q1722.95 226.091 1722.95 217.364 Q1722.95 208.614 1726 204.031 Q1729.08 199.425 1734.89 199.425 Z" fill="#000000" fill-rule="evenodd" fill-opacity="1" /><path clip-path="url(#clip930)" d="M 0 0 M1781.3 219.401 Q1779.29 219.401 1778.13 221.114 Q1777 222.827 1777 225.883 Q1777 228.892 1778.13 230.628 Q1779.29 232.341 1781.3 232.341 Q1783.27 232.341 1784.41 230.628 Q1785.56 228.892 1785.56 225.883 Q1785.56 222.85 1784.41 221.137 Q1783.27 219.401 1781.3 219.401 M1781.3 216.462 Q1784.96 216.462 1787.11 219.008 Q1789.27 221.554 1789.27 225.883 Q1789.27 230.211 1787.09 232.758 Q1784.94 235.281 1781.3 235.281 Q1777.6 235.281 1775.45 232.758 Q1773.29 230.211 1773.29 225.883 Q1773.29 221.531 1775.45 219.008 Q1777.62 216.462 1781.3 216.462 M1757.42 202.364 Q1755.42 202.364 1754.27 204.1 Q1753.13 205.813 1753.13 208.823 Q1753.13 211.878 1754.27 213.591 Q1755.4 215.304 1757.42 215.304 Q1759.43 215.304 1760.56 213.591 Q1761.72 211.878 1761.72 208.823 Q1761.72 205.837 1760.56 204.1 Q1759.41 202.364 1757.42 202.364 M1778.32 199.425 L1782.02 199.425 L1760.4 235.281 L1756.7 235.281 L1778.32 199.425 M1757.42 199.425 Q1761.07 199.425 1763.25 201.971 Q1765.42 204.494 1765.42 208.823 Q1765.42 213.198 1763.25 215.721 Q1761.1 218.244 1757.42 218.244 Q1753.73 218.244 1751.58 215.721 Q1749.45 213.174 1749.45 208.823 Q1749.45 204.517 1751.6 201.971 Q1753.76 199.425 1757.42 199.425 Z" fill="#000000" fill-rule="evenodd" fill-opacity="1" /><path clip-path="url(#clip930)" d="M 0 0 M1830.35 218.961 L1830.35 234.61 L1826.1 234.61 L1826.1 219.1 Q1826.1 215.42 1824.66 213.591 Q1823.22 211.762 1820.35 211.762 Q1816.91 211.762 1814.91 213.962 Q1812.92 216.161 1812.92 219.957 L1812.92 234.61 L1808.64 234.61 L1808.64 208.684 L1812.92 208.684 L1812.92 212.712 Q1814.45 210.374 1816.51 209.216 Q1818.6 208.059 1821.3 208.059 Q1825.77 208.059 1828.06 210.837 Q1830.35 213.591 1830.35 218.961 Z" fill="#000000" fill-rule="evenodd" fill-opacity="1" /><path clip-path="url(#clip930)" d="M 0 0 M1844.87 211.67 Q1841.44 211.67 1839.45 214.355 Q1837.46 217.017 1837.46 221.67 Q1837.46 226.323 1839.43 229.008 Q1841.42 231.67 1844.87 231.67 Q1848.27 231.67 1850.26 228.985 Q1852.25 226.299 1852.25 221.67 Q1852.25 217.063 1850.26 214.378 Q1848.27 211.67 1844.87 211.67 M1844.87 208.059 Q1850.42 208.059 1853.6 211.67 Q1856.77 215.281 1856.77 221.67 Q1856.77 228.036 1853.6 231.67 Q1850.42 235.281 1844.87 235.281 Q1839.29 235.281 1836.12 231.67 Q1832.97 228.036 1832.97 221.67 Q1832.97 215.281 1836.12 211.67 Q1839.29 208.059 1844.87 208.059 Z" fill="#000000" fill-rule="evenodd" fill-opacity="1" /><path clip-path="url(#clip930)" d="M 0 0 M1882.78 218.961 L1882.78 234.61 L1878.53 234.61 L1878.53 219.1 Q1878.53 215.42 1877.09 213.591 Q1875.66 211.762 1872.78 211.762 Q1869.34 211.762 1867.35 213.962 Q1865.35 216.161 1865.35 219.957 L1865.35 234.61 L1861.07 234.61 L1861.07 208.684 L1865.35 208.684 L1865.35 212.712 Q1866.88 210.374 1868.94 209.216 Q1871.03 208.059 1873.73 208.059 Q1878.2 208.059 1880.49 210.837 Q1882.78 213.591 1882.78 218.961 Z" fill="#000000" fill-rule="evenodd" fill-opacity="1" /><path clip-path="url(#clip930)" d="M 0 0 M1885.1 219.725 L1897.58 219.725 L1897.58 223.522 L1885.1 223.522 L1885.1 219.725 Z" fill="#000000" fill-rule="evenodd" fill-opacity="1" /><path clip-path="url(#clip930)" d="M 0 0 M1917.07 212.665 Q1916.35 212.249 1915.49 212.063 Q1914.66 211.855 1913.64 211.855 Q1910.03 211.855 1908.09 214.216 Q1906.16 216.554 1906.16 220.952 L1906.16 234.61 L1901.88 234.61 L1901.88 208.684 L1906.16 208.684 L1906.16 212.712 Q1907.51 210.35 1909.66 209.216 Q1911.81 208.059 1914.89 208.059 Q1915.33 208.059 1915.86 208.128 Q1916.4 208.175 1917.04 208.29 L1917.07 212.665 Z" fill="#000000" fill-rule="evenodd" fill-opacity="1" /><path clip-path="url(#clip930)" d="M 0 0 M1942.67 220.582 L1942.67 222.665 L1923.09 222.665 Q1923.36 227.063 1925.72 229.378 Q1928.11 231.67 1932.34 231.67 Q1934.8 231.67 1937.09 231.068 Q1939.4 230.466 1941.67 229.262 L1941.67 233.29 Q1939.38 234.262 1936.97 234.772 Q1934.57 235.281 1932.09 235.281 Q1925.89 235.281 1922.25 231.67 Q1918.64 228.059 1918.64 221.901 Q1918.64 215.536 1922.07 211.809 Q1925.52 208.059 1931.35 208.059 Q1936.58 208.059 1939.61 211.438 Q1942.67 214.795 1942.67 220.582 M1938.41 219.332 Q1938.36 215.837 1936.44 213.753 Q1934.54 211.67 1931.4 211.67 Q1927.83 211.67 1925.68 213.684 Q1923.55 215.698 1923.22 219.355 L1938.41 219.332 Z" fill="#000000" fill-rule="evenodd" fill-opacity="1" /><path clip-path="url(#clip930)" d="M 0 0 M1947.14 208.684 L1951.4 208.684 L1951.4 235.073 Q1951.4 240.026 1949.5 242.248 Q1947.62 244.471 1943.43 244.471 L1941.81 244.471 L1941.81 240.86 L1942.95 240.86 Q1945.38 240.86 1946.26 239.725 Q1947.14 238.614 1947.14 235.073 L1947.14 208.684 M1947.14 198.591 L1951.4 198.591 L1951.4 203.985 L1947.14 203.985 L1947.14 198.591 Z" fill="#000000" fill-rule="evenodd" fill-opacity="1" /><path clip-path="url(#clip930)" d="M 0 0 M1978.04 220.582 L1978.04 222.665 L1958.46 222.665 Q1958.73 227.063 1961.09 229.378 Q1963.48 231.67 1967.71 231.67 Q1970.17 231.67 1972.46 231.068 Q1974.78 230.466 1977.04 229.262 L1977.04 233.29 Q1974.75 234.262 1972.34 234.772 Q1969.94 235.281 1967.46 235.281 Q1961.26 235.281 1957.62 231.67 Q1954.01 228.059 1954.01 221.901 Q1954.01 215.536 1957.44 211.809 Q1960.89 208.059 1966.72 208.059 Q1971.95 208.059 1974.98 211.438 Q1978.04 214.795 1978.04 220.582 M1973.78 219.332 Q1973.73 215.837 1971.81 213.753 Q1969.91 211.67 1966.77 211.67 Q1963.2 211.67 1961.05 213.684 Q1958.92 215.698 1958.59 219.355 L1973.78 219.332 Z" fill="#000000" fill-rule="evenodd" fill-opacity="1" /><path clip-path="url(#clip930)" d="M 0 0 M2001.16 209.679 L2001.16 213.661 Q1999.36 212.665 1997.53 212.179 Q1995.72 211.67 1993.87 211.67 Q1989.73 211.67 1987.44 214.309 Q1985.15 216.924 1985.15 221.67 Q1985.15 226.415 1987.44 229.054 Q1989.73 231.67 1993.87 231.67 Q1995.72 231.67 1997.53 231.184 Q1999.36 230.674 2001.16 229.679 L2001.16 233.614 Q1999.38 234.448 1997.46 234.864 Q1995.56 235.281 1993.41 235.281 Q1987.55 235.281 1984.1 231.6 Q1980.65 227.92 1980.65 221.67 Q1980.65 215.327 1984.13 211.693 Q1987.62 208.059 1993.69 208.059 Q1995.65 208.059 1997.53 208.475 Q1999.4 208.869 2001.16 209.679 Z" fill="#000000" fill-rule="evenodd" fill-opacity="1" /><path clip-path="url(#clip930)" d="M 0 0 M2009.84 201.323 L2009.84 208.684 L2018.62 208.684 L2018.62 211.994 L2009.84 211.994 L2009.84 226.068 Q2009.84 229.239 2010.7 230.142 Q2011.58 231.045 2014.24 231.045 L2018.62 231.045 L2018.62 234.61 L2014.24 234.61 Q2009.31 234.61 2007.44 232.781 Q2005.56 230.929 2005.56 226.068 L2005.56 211.994 L2002.44 211.994 L2002.44 208.684 L2005.56 208.684 L2005.56 201.323 L2009.84 201.323 Z" fill="#000000" fill-rule="evenodd" fill-opacity="1" /><path clip-path="url(#clip930)" d="M 0 0 M2023.08 208.684 L2027.34 208.684 L2027.34 234.61 L2023.08 234.61 L2023.08 208.684 M2023.08 198.591 L2027.34 198.591 L2027.34 203.985 L2023.08 203.985 L2023.08 198.591 Z" fill="#000000" fill-rule="evenodd" fill-opacity="1" /><path clip-path="url(#clip930)" d="M 0 0 M2041.86 211.67 Q2038.43 211.67 2036.44 214.355 Q2034.45 217.017 2034.45 221.67 Q2034.45 226.323 2036.42 229.008 Q2038.41 231.67 2041.86 231.67 Q2045.26 231.67 2047.25 228.985 Q2049.24 226.299 2049.24 221.67 Q2049.24 217.063 2047.25 214.378 Q2045.26 211.67 2041.86 211.67 M2041.86 208.059 Q2047.41 208.059 2050.58 211.67 Q2053.76 215.281 2053.76 221.67 Q2053.76 228.036 2050.58 231.67 Q2047.41 235.281 2041.86 235.281 Q2036.28 235.281 2033.11 231.67 Q2029.96 228.036 2029.96 221.67 Q2029.96 215.281 2033.11 211.67 Q2036.28 208.059 2041.86 208.059 Z" fill="#000000" fill-rule="evenodd" fill-opacity="1" /><path clip-path="url(#clip930)" d="M 0 0 M2079.77 218.961 L2079.77 234.61 L2075.52 234.61 L2075.52 219.1 Q2075.52 215.42 2074.08 213.591 Q2072.64 211.762 2069.77 211.762 Q2066.33 211.762 2064.33 213.962 Q2062.34 216.161 2062.34 219.957 L2062.34 234.61 L2058.06 234.61 L2058.06 208.684 L2062.34 208.684 L2062.34 212.712 Q2063.87 210.374 2065.93 209.216 Q2068.02 208.059 2070.72 208.059 Q2075.19 208.059 2077.48 210.837 Q2079.77 213.591 2079.77 218.961 Z" fill="#000000" fill-rule="evenodd" fill-opacity="1" /><path clip-path="url(#clip930)" d="M 0 0 M2114.33 212.665 Q2113.62 212.249 2112.76 212.063 Q2111.93 211.855 2110.91 211.855 Q2107.3 211.855 2105.35 214.216 Q2103.43 216.554 2103.43 220.952 L2103.43 234.61 L2099.15 234.61 L2099.15 208.684 L2103.43 208.684 L2103.43 212.712 Q2104.77 210.35 2106.93 209.216 Q2109.08 208.059 2112.16 208.059 Q2112.6 208.059 2113.13 208.128 Q2113.66 208.175 2114.31 208.29 L2114.33 212.665 Z" fill="#000000" fill-rule="evenodd" fill-opacity="1" /><path clip-path="url(#clip930)" d="M 0 0 M2139.94 220.582 L2139.94 222.665 L2120.35 222.665 Q2120.63 227.063 2122.99 229.378 Q2125.38 231.67 2129.61 231.67 Q2132.07 231.67 2134.36 231.068 Q2136.67 230.466 2138.94 229.262 L2138.94 233.29 Q2136.65 234.262 2134.24 234.772 Q2131.83 235.281 2129.36 235.281 Q2123.15 235.281 2119.52 231.67 Q2115.91 228.059 2115.91 221.901 Q2115.91 215.536 2119.33 211.809 Q2122.78 208.059 2128.62 208.059 Q2133.85 208.059 2136.88 211.438 Q2139.94 214.795 2139.94 220.582 M2135.68 219.332 Q2135.63 215.837 2133.71 213.753 Q2131.81 211.67 2128.66 211.67 Q2125.1 211.67 2122.95 213.684 Q2120.82 215.698 2120.49 219.355 L2135.68 219.332 Z" fill="#000000" fill-rule="evenodd" fill-opacity="1" /><path clip-path="url(#clip930)" d="M 0 0 M2161.46 221.346 Q2161.46 216.716 2159.54 214.17 Q2157.64 211.624 2154.2 211.624 Q2150.77 211.624 2148.85 214.17 Q2146.95 216.716 2146.95 221.346 Q2146.95 225.952 2148.85 228.498 Q2150.77 231.045 2154.2 231.045 Q2157.64 231.045 2159.54 228.498 Q2161.46 225.952 2161.46 221.346 M2165.72 231.392 Q2165.72 238.012 2162.78 241.23 Q2159.84 244.471 2153.78 244.471 Q2151.53 244.471 2149.54 244.123 Q2147.55 243.799 2145.68 243.105 L2145.68 238.961 Q2147.55 239.98 2149.38 240.466 Q2151.21 240.952 2153.11 240.952 Q2157.3 240.952 2159.38 238.753 Q2161.46 236.577 2161.46 232.156 L2161.46 230.049 Q2160.14 232.341 2158.08 233.475 Q2156.02 234.61 2153.15 234.61 Q2148.39 234.61 2145.47 230.975 Q2142.55 227.341 2142.55 221.346 Q2142.55 215.327 2145.47 211.693 Q2148.39 208.059 2153.15 208.059 Q2156.02 208.059 2158.08 209.193 Q2160.14 210.327 2161.46 212.619 L2161.46 208.684 L2165.72 208.684 L2165.72 231.392 Z" fill="#000000" fill-rule="evenodd" fill-opacity="1" /><path clip-path="url(#clip930)" d="M 0 0 M2170.19 208.684 L2174.45 208.684 L2174.45 234.61 L2170.19 234.61 L2170.19 208.684 M2170.19 198.591 L2174.45 198.591 L2174.45 203.985 L2170.19 203.985 L2170.19 198.591 Z" fill="#000000" fill-rule="evenodd" fill-opacity="1" /><path clip-path="url(#clip930)" d="M 0 0 M2188.96 211.67 Q2185.54 211.67 2183.55 214.355 Q2181.56 217.017 2181.56 221.67 Q2181.56 226.323 2183.52 229.008 Q2185.51 231.67 2188.96 231.67 Q2192.37 231.67 2194.36 228.985 Q2196.35 226.299 2196.35 221.67 Q2196.35 217.063 2194.36 214.378 Q2192.37 211.67 2188.96 211.67 M2188.96 208.059 Q2194.52 208.059 2197.69 211.67 Q2200.86 215.281 2200.86 221.67 Q2200.86 228.036 2197.69 231.67 Q2194.52 235.281 2188.96 235.281 Q2183.39 235.281 2180.21 231.67 Q2177.07 228.036 2177.07 221.67 Q2177.07 215.281 2180.21 211.67 Q2183.39 208.059 2188.96 208.059 Z" fill="#000000" fill-rule="evenodd" fill-opacity="1" /><path clip-path="url(#clip930)" d="M 0 0 M2226.88 218.961 L2226.88 234.61 L2222.62 234.61 L2222.62 219.1 Q2222.62 215.42 2221.19 213.591 Q2219.75 211.762 2216.88 211.762 Q2213.43 211.762 2211.44 213.962 Q2209.45 216.161 2209.45 219.957 L2209.45 234.61 L2205.17 234.61 L2205.17 208.684 L2209.45 208.684 L2209.45 212.712 Q2210.98 210.374 2213.04 209.216 Q2215.12 208.059 2217.83 208.059 Q2222.3 208.059 2224.59 210.837 Q2226.88 213.591 2226.88 218.961 Z" fill="#000000" fill-rule="evenodd" fill-opacity="1" /><path clip-path="url(#clip930)" d="
M1519.75 302.002 L1670.81 302.002 L1670.81 253.618 L1519.75 253.618 L1519.75 302.002  Z
  " fill="#ffa500" fill-rule="evenodd" fill-opacity="0.5"/>
<polyline clip-path="url(#clip930)" style="stroke:#ffa500; stroke-width:4; stroke-opacity:1; fill:none" points="
  1519.75,253.618 1670.81,253.618 
  "/>
<path clip-path="url(#clip930)" d="M 0 0 M1700.38 282.15 Q1700.38 286.849 1702.3 289.534 Q1704.24 292.196 1707.62 292.196 Q1711 292.196 1712.95 289.534 Q1714.89 286.849 1714.89 282.15 Q1714.89 277.451 1712.95 274.789 Q1711 272.104 1707.62 272.104 Q1704.24 272.104 1702.3 274.789 Q1700.38 277.451 1700.38 282.15 M1714.89 291.201 Q1713.55 293.515 1711.49 294.65 Q1709.45 295.761 1706.58 295.761 Q1701.88 295.761 1698.92 292.011 Q1695.98 288.261 1695.98 282.15 Q1695.98 276.039 1698.92 272.289 Q1701.88 268.539 1706.58 268.539 Q1709.45 268.539 1711.49 269.673 Q1713.55 270.784 1714.89 273.099 L1714.89 269.164 L1719.15 269.164 L1719.15 304.951 L1714.89 304.951 L1714.89 291.201 Z" fill="#000000" fill-rule="evenodd" fill-opacity="1" /><path clip-path="url(#clip930)" d="M 0 0 M1724.36 294.372 L1724.36 290.113 Q1726.12 290.946 1727.92 291.386 Q1729.73 291.826 1731.47 291.826 Q1736.1 291.826 1738.53 288.724 Q1740.98 285.599 1741.33 279.256 Q1739.98 281.247 1737.92 282.312 Q1735.86 283.377 1733.36 283.377 Q1728.18 283.377 1725.15 280.252 Q1722.14 277.104 1722.14 271.664 Q1722.14 266.34 1725.29 263.122 Q1728.43 259.905 1733.67 259.905 Q1739.66 259.905 1742.81 264.511 Q1745.98 269.094 1745.98 277.844 Q1745.98 286.016 1742.09 290.9 Q1738.23 295.761 1731.67 295.761 Q1729.92 295.761 1728.11 295.414 Q1726.3 295.066 1724.36 294.372 M1733.67 279.719 Q1736.81 279.719 1738.64 277.566 Q1740.49 275.414 1740.49 271.664 Q1740.49 267.937 1738.64 265.784 Q1736.81 263.608 1733.67 263.608 Q1730.52 263.608 1728.67 265.784 Q1726.84 267.937 1726.84 271.664 Q1726.84 275.414 1728.67 277.566 Q1730.52 279.719 1733.67 279.719 Z" fill="#000000" fill-rule="evenodd" fill-opacity="1" /><path clip-path="url(#clip930)" d="M 0 0 M1751.1 260.53 L1769.45 260.53 L1769.45 264.465 L1755.38 264.465 L1755.38 272.937 Q1756.4 272.59 1757.42 272.428 Q1758.43 272.242 1759.45 272.242 Q1765.24 272.242 1768.62 275.414 Q1772 278.585 1772 284.002 Q1772 289.58 1768.53 292.682 Q1765.05 295.761 1758.73 295.761 Q1756.56 295.761 1754.29 295.39 Q1752.04 295.02 1749.64 294.279 L1749.64 289.58 Q1751.72 290.715 1753.94 291.27 Q1756.17 291.826 1758.64 291.826 Q1762.65 291.826 1764.98 289.719 Q1767.32 287.613 1767.32 284.002 Q1767.32 280.391 1764.98 278.284 Q1762.65 276.178 1758.64 276.178 Q1756.77 276.178 1754.89 276.594 Q1753.04 277.011 1751.1 277.891 L1751.1 260.53 Z" fill="#000000" fill-rule="evenodd" fill-opacity="1" /><polyline clip-path="url(#clip930)" style="stroke:#0000ff; stroke-width:4; stroke-opacity:1; fill:none" points="
  1519.75,338.29 1670.81,338.29 
  "/>
<path clip-path="url(#clip930)" d="M 0 0 M1716.33 334.621 Q1717.92 331.75 1720.15 330.385 Q1722.37 329.019 1725.38 329.019 Q1729.43 329.019 1731.63 331.866 Q1733.83 334.69 1733.83 339.921 L1733.83 355.57 L1729.54 355.57 L1729.54 340.06 Q1729.54 336.334 1728.23 334.528 Q1726.91 332.722 1724.2 332.722 Q1720.89 332.722 1718.97 334.922 Q1717.04 337.121 1717.04 340.917 L1717.04 355.57 L1712.76 355.57 L1712.76 340.06 Q1712.76 336.31 1711.44 334.528 Q1710.12 332.722 1707.37 332.722 Q1704.11 332.722 1702.18 334.945 Q1700.26 337.144 1700.26 340.917 L1700.26 355.57 L1695.98 355.57 L1695.98 329.644 L1700.26 329.644 L1700.26 333.672 Q1701.72 331.287 1703.76 330.153 Q1705.79 329.019 1708.6 329.019 Q1711.42 329.019 1713.39 330.454 Q1715.38 331.889 1716.33 334.621 Z" fill="#000000" fill-rule="evenodd" fill-opacity="1" /><path clip-path="url(#clip930)" d="M 0 0 M1760.47 341.542 L1760.47 343.625 L1740.89 343.625 Q1741.17 348.023 1743.53 350.338 Q1745.91 352.63 1750.15 352.63 Q1752.6 352.63 1754.89 352.028 Q1757.21 351.426 1759.48 350.222 L1759.48 354.25 Q1757.18 355.222 1754.78 355.732 Q1752.37 356.241 1749.89 356.241 Q1743.69 356.241 1740.05 352.63 Q1736.44 349.019 1736.44 342.861 Q1736.44 336.496 1739.87 332.769 Q1743.32 329.019 1749.15 329.019 Q1754.38 329.019 1757.42 332.398 Q1760.47 335.755 1760.47 341.542 M1756.21 340.292 Q1756.17 336.797 1754.24 334.713 Q1752.35 332.63 1749.2 332.63 Q1745.63 332.63 1743.48 334.644 Q1741.35 336.658 1741.03 340.315 L1756.21 340.292 Z" fill="#000000" fill-rule="evenodd" fill-opacity="1" /><path clip-path="url(#clip930)" d="M 0 0 M1776.72 342.537 Q1771.56 342.537 1769.57 343.718 Q1767.58 344.898 1767.58 347.746 Q1767.58 350.014 1769.06 351.357 Q1770.56 352.676 1773.13 352.676 Q1776.67 352.676 1778.8 350.176 Q1780.96 347.653 1780.96 343.486 L1780.96 342.537 L1776.72 342.537 M1785.22 340.778 L1785.22 355.57 L1780.96 355.57 L1780.96 351.634 Q1779.5 353.995 1777.32 355.13 Q1775.15 356.241 1772 356.241 Q1768.02 356.241 1765.66 354.019 Q1763.32 351.773 1763.32 348.023 Q1763.32 343.648 1766.23 341.426 Q1769.17 339.204 1774.98 339.204 L1780.96 339.204 L1780.96 338.787 Q1780.96 335.847 1779.01 334.25 Q1777.09 332.63 1773.6 332.63 Q1771.37 332.63 1769.27 333.162 Q1767.16 333.695 1765.22 334.759 L1765.22 330.824 Q1767.55 329.922 1769.75 329.482 Q1771.95 329.019 1774.04 329.019 Q1779.66 329.019 1782.44 331.935 Q1785.22 334.852 1785.22 340.778 Z" fill="#000000" fill-rule="evenodd" fill-opacity="1" /><path clip-path="url(#clip930)" d="M 0 0 M1811.23 339.921 L1811.23 355.57 L1806.97 355.57 L1806.97 340.06 Q1806.97 336.38 1805.54 334.551 Q1804.1 332.722 1801.23 332.722 Q1797.79 332.722 1795.79 334.922 Q1793.8 337.121 1793.8 340.917 L1793.8 355.57 L1789.52 355.57 L1789.52 329.644 L1793.8 329.644 L1793.8 333.672 Q1795.33 331.334 1797.39 330.176 Q1799.48 329.019 1802.18 329.019 Q1806.65 329.019 1808.94 331.797 Q1811.23 334.551 1811.23 339.921 Z" fill="#000000" fill-rule="evenodd" fill-opacity="1" /><polyline clip-path="url(#clip930)" style="stroke:#000000; stroke-width:4; stroke-opacity:1; fill:none" points="
  1519.75,398.77 1670.81,398.77 
  "/>
<path clip-path="url(#clip930)" d="M 0 0 M1716.33 395.101 Q1717.92 392.23 1720.15 390.865 Q1722.37 389.499 1725.38 389.499 Q1729.43 389.499 1731.63 392.346 Q1733.83 395.17 1733.83 400.401 L1733.83 416.05 L1729.54 416.05 L1729.54 400.54 Q1729.54 396.814 1728.23 395.008 Q1726.91 393.202 1724.2 393.202 Q1720.89 393.202 1718.97 395.402 Q1717.04 397.601 1717.04 401.397 L1717.04 416.05 L1712.76 416.05 L1712.76 400.54 Q1712.76 396.79 1711.44 395.008 Q1710.12 393.202 1707.37 393.202 Q1704.11 393.202 1702.18 395.425 Q1700.26 397.624 1700.26 401.397 L1700.26 416.05 L1695.98 416.05 L1695.98 390.124 L1700.26 390.124 L1700.26 394.152 Q1701.72 391.767 1703.76 390.633 Q1705.79 389.499 1708.6 389.499 Q1711.42 389.499 1713.39 390.934 Q1715.38 392.369 1716.33 395.101 Z" fill="#000000" fill-rule="evenodd" fill-opacity="1" /><path clip-path="url(#clip930)" d="M 0 0 M1760.47 402.022 L1760.47 404.105 L1740.89 404.105 Q1741.17 408.503 1743.53 410.818 Q1745.91 413.11 1750.15 413.11 Q1752.6 413.11 1754.89 412.508 Q1757.21 411.906 1759.48 410.702 L1759.48 414.73 Q1757.18 415.702 1754.78 416.212 Q1752.37 416.721 1749.89 416.721 Q1743.69 416.721 1740.05 413.11 Q1736.44 409.499 1736.44 403.341 Q1736.44 396.976 1739.87 393.249 Q1743.32 389.499 1749.15 389.499 Q1754.38 389.499 1757.42 392.878 Q1760.47 396.235 1760.47 402.022 M1756.21 400.772 Q1756.17 397.277 1754.24 395.193 Q1752.35 393.11 1749.2 393.11 Q1745.63 393.11 1743.48 395.124 Q1741.35 397.138 1741.03 400.795 L1756.21 400.772 Z" fill="#000000" fill-rule="evenodd" fill-opacity="1" /><path clip-path="url(#clip930)" d="M 0 0 M1782 394.059 L1782 380.031 L1786.26 380.031 L1786.26 416.05 L1782 416.05 L1782 412.161 Q1780.66 414.475 1778.6 415.61 Q1776.56 416.721 1773.69 416.721 Q1768.99 416.721 1766.03 412.971 Q1763.09 409.221 1763.09 403.11 Q1763.09 396.999 1766.03 393.249 Q1768.99 389.499 1773.69 389.499 Q1776.56 389.499 1778.6 390.633 Q1780.66 391.744 1782 394.059 M1767.48 403.11 Q1767.48 407.809 1769.41 410.494 Q1771.35 413.156 1774.73 413.156 Q1778.11 413.156 1780.05 410.494 Q1782 407.809 1782 403.11 Q1782 398.411 1780.05 395.749 Q1778.11 393.064 1774.73 393.064 Q1771.35 393.064 1769.41 395.749 Q1767.48 398.411 1767.48 403.11 Z" fill="#000000" fill-rule="evenodd" fill-opacity="1" /><path clip-path="url(#clip930)" d="M 0 0 M1790.73 390.124 L1794.98 390.124 L1794.98 416.05 L1790.73 416.05 L1790.73 390.124 M1790.73 380.031 L1794.98 380.031 L1794.98 385.425 L1790.73 385.425 L1790.73 380.031 Z" fill="#000000" fill-rule="evenodd" fill-opacity="1" /><path clip-path="url(#clip930)" d="M 0 0 M1811.23 403.017 Q1806.07 403.017 1804.08 404.198 Q1802.09 405.378 1802.09 408.226 Q1802.09 410.494 1803.57 411.837 Q1805.08 413.156 1807.65 413.156 Q1811.19 413.156 1813.32 410.656 Q1815.47 408.133 1815.47 403.966 L1815.47 403.017 L1811.23 403.017 M1819.73 401.258 L1819.73 416.05 L1815.47 416.05 L1815.47 412.114 Q1814.01 414.475 1811.84 415.61 Q1809.66 416.721 1806.51 416.721 Q1802.53 416.721 1800.17 414.499 Q1797.83 412.253 1797.83 408.503 Q1797.83 404.128 1800.75 401.906 Q1803.69 399.684 1809.5 399.684 L1815.47 399.684 L1815.47 399.267 Q1815.47 396.327 1813.53 394.73 Q1811.6 393.11 1808.11 393.11 Q1805.89 393.11 1803.78 393.642 Q1801.67 394.175 1799.73 395.239 L1799.73 391.304 Q1802.07 390.402 1804.27 389.962 Q1806.47 389.499 1808.55 389.499 Q1814.17 389.499 1816.95 392.415 Q1819.73 395.332 1819.73 401.258 Z" fill="#000000" fill-rule="evenodd" fill-opacity="1" /><path clip-path="url(#clip930)" d="M 0 0 M1845.75 400.401 L1845.75 416.05 L1841.49 416.05 L1841.49 400.54 Q1841.49 396.86 1840.05 395.031 Q1838.62 393.202 1835.75 393.202 Q1832.3 393.202 1830.31 395.402 Q1828.32 397.601 1828.32 401.397 L1828.32 416.05 L1824.04 416.05 L1824.04 390.124 L1828.32 390.124 L1828.32 394.152 Q1829.85 391.814 1831.91 390.656 Q1833.99 389.499 1836.7 389.499 Q1841.16 389.499 1843.46 392.277 Q1845.75 395.031 1845.75 400.401 Z" fill="#000000" fill-rule="evenodd" fill-opacity="1" /></svg>
