<?xml version="1.0" encoding="utf-8"?>
<svg xmlns="http://www.w3.org/2000/svg" xmlns:xlink="http://www.w3.org/1999/xlink" width="600" height="400" viewBox="0 0 2400 1600">
<defs>
  <clipPath id="clip160">
    <rect x="0" y="0" width="2400" height="1600"/>
  </clipPath>
</defs>
<path clip-path="url(#clip160)" d="
M0 1600 L2400 1600 L2400 0 L0 0  Z
  " fill="#ffffff" fill-rule="evenodd" fill-opacity="1"/>
<defs>
  <clipPath id="clip161">
    <rect x="480" y="0" width="1681" height="1600"/>
  </clipPath>
</defs>
<path clip-path="url(#clip160)" d="
M112.177 1486.45 L2352.76 1486.45 L2352.76 47.2441 L112.177 47.2441  Z
  " fill="#ffffff" fill-rule="evenodd" fill-opacity="1"/>
<defs>
  <clipPath id="clip162">
    <rect x="112" y="47" width="2242" height="1440"/>
  </clipPath>
</defs>
<polyline clip-path="url(#clip162)" style="stroke:#000000; stroke-width:2; stroke-opacity:0.1; fill:none" points="
  495.406,1486.45 495.406,47.2441 
  "/>
<polyline clip-path="url(#clip162)" style="stroke:#000000; stroke-width:2; stroke-opacity:0.1; fill:none" points="
  1095.02,1486.45 1095.02,47.2441 
  "/>
<polyline clip-path="url(#clip162)" style="stroke:#000000; stroke-width:2; stroke-opacity:0.1; fill:none" points="
  1694.64,1486.45 1694.64,47.2441 
  "/>
<polyline clip-path="url(#clip162)" style="stroke:#000000; stroke-width:2; stroke-opacity:0.1; fill:none" points="
  2294.26,1486.45 2294.26,47.2441 
  "/>
<polyline clip-path="url(#clip162)" style="stroke:#000000; stroke-width:2; stroke-opacity:0.1; fill:none" points="
  112.177,1445.72 2352.76,1445.72 
  "/>
<polyline clip-path="url(#clip162)" style="stroke:#000000; stroke-width:2; stroke-opacity:0.1; fill:none" points="
  112.177,1089.99 2352.76,1089.99 
  "/>
<polyline clip-path="url(#clip162)" style="stroke:#000000; stroke-width:2; stroke-opacity:0.1; fill:none" points="
  112.177,734.262 2352.76,734.262 
  "/>
<polyline clip-path="url(#clip162)" style="stroke:#000000; stroke-width:2; stroke-opacity:0.1; fill:none" points="
  112.177,378.535 2352.76,378.535 
  "/>
<polyline clip-path="url(#clip160)" style="stroke:#000000; stroke-width:4; stroke-opacity:1; fill:none" points="
  112.177,1486.45 2352.76,1486.45 
  "/>
<polyline clip-path="url(#clip160)" style="stroke:#000000; stroke-width:4; stroke-opacity:1; fill:none" points="
  112.177,1486.45 112.177,47.2441 
  "/>
<polyline clip-path="url(#clip160)" style="stroke:#000000; stroke-width:4; stroke-opacity:1; fill:none" points="
  495.406,1486.45 495.406,1469.18 
  "/>
<polyline clip-path="url(#clip160)" style="stroke:#000000; stroke-width:4; stroke-opacity:1; fill:none" points="
  1095.02,1486.45 1095.02,1469.18 
  "/>
<polyline clip-path="url(#clip160)" style="stroke:#000000; stroke-width:4; stroke-opacity:1; fill:none" points="
  1694.64,1486.45 1694.64,1469.18 
  "/>
<polyline clip-path="url(#clip160)" style="stroke:#000000; stroke-width:4; stroke-opacity:1; fill:none" points="
  2294.26,1486.45 2294.26,1469.18 
  "/>
<polyline clip-path="url(#clip160)" style="stroke:#000000; stroke-width:4; stroke-opacity:1; fill:none" points="
  112.177,1445.72 139.064,1445.72 
  "/>
<polyline clip-path="url(#clip160)" style="stroke:#000000; stroke-width:4; stroke-opacity:1; fill:none" points="
  112.177,1089.99 139.064,1089.99 
  "/>
<polyline clip-path="url(#clip160)" style="stroke:#000000; stroke-width:4; stroke-opacity:1; fill:none" points="
  112.177,734.262 139.064,734.262 
  "/>
<polyline clip-path="url(#clip160)" style="stroke:#000000; stroke-width:4; stroke-opacity:1; fill:none" points="
  112.177,378.535 139.064,378.535 
  "/>
<path clip-path="url(#clip160)" d="M 0 0 M477.42 1508.44 Q473.809 1508.44 471.98 1512 Q470.175 1515.55 470.175 1522.67 Q470.175 1529.78 471.98 1533.35 Q473.809 1536.89 477.42 1536.89 Q481.054 1536.89 482.86 1533.35 Q484.688 1529.78 484.688 1522.67 Q484.688 1515.55 482.86 1512 Q481.054 1508.44 477.42 1508.44 M477.42 1504.73 Q483.23 1504.73 486.286 1509.34 Q489.364 1513.92 489.364 1522.67 Q489.364 1531.4 486.286 1536.01 Q483.23 1540.59 477.42 1540.59 Q471.61 1540.59 468.531 1536.01 Q465.475 1531.4 465.475 1522.67 Q465.475 1513.92 468.531 1509.34 Q471.61 1504.73 477.42 1504.73 Z" fill="#000000" fill-rule="evenodd" fill-opacity="1" /><path clip-path="url(#clip160)" d="M 0 0 M494.434 1534.04 L499.318 1534.04 L499.318 1539.92 L494.434 1539.92 L494.434 1534.04 Z" fill="#000000" fill-rule="evenodd" fill-opacity="1" /><path clip-path="url(#clip160)" d="M 0 0 M504.434 1505.36 L522.79 1505.36 L522.79 1509.3 L508.716 1509.3 L508.716 1517.77 Q509.735 1517.42 510.753 1517.26 Q511.772 1517.07 512.79 1517.07 Q518.577 1517.07 521.957 1520.24 Q525.336 1523.42 525.336 1528.83 Q525.336 1534.41 521.864 1537.51 Q518.392 1540.59 512.072 1540.59 Q509.897 1540.59 507.628 1540.22 Q505.383 1539.85 502.975 1539.11 L502.975 1534.41 Q505.059 1535.54 507.281 1536.1 Q509.503 1536.66 511.98 1536.66 Q515.984 1536.66 518.322 1534.55 Q520.66 1532.44 520.66 1528.83 Q520.66 1525.22 518.322 1523.11 Q515.984 1521.01 511.98 1521.01 Q510.105 1521.01 508.23 1521.42 Q506.378 1521.84 504.434 1522.72 L504.434 1505.36 Z" fill="#000000" fill-rule="evenodd" fill-opacity="1" /><path clip-path="url(#clip160)" d="M 0 0 M1076.46 1508.44 Q1072.85 1508.44 1071.02 1512 Q1069.21 1515.55 1069.21 1522.67 Q1069.21 1529.78 1071.02 1533.35 Q1072.85 1536.89 1076.46 1536.89 Q1080.09 1536.89 1081.9 1533.35 Q1083.73 1529.78 1083.73 1522.67 Q1083.73 1515.55 1081.9 1512 Q1080.09 1508.44 1076.46 1508.44 M1076.46 1504.73 Q1082.27 1504.73 1085.32 1509.34 Q1088.4 1513.92 1088.4 1522.67 Q1088.4 1531.4 1085.32 1536.01 Q1082.27 1540.59 1076.46 1540.59 Q1070.65 1540.59 1067.57 1536.01 Q1064.51 1531.4 1064.51 1522.67 Q1064.51 1513.92 1067.57 1509.34 Q1070.65 1504.73 1076.46 1504.73 Z" fill="#000000" fill-rule="evenodd" fill-opacity="1" /><path clip-path="url(#clip160)" d="M 0 0 M1093.47 1534.04 L1098.36 1534.04 L1098.36 1539.92 L1093.47 1539.92 L1093.47 1534.04 Z" fill="#000000" fill-rule="evenodd" fill-opacity="1" /><path clip-path="url(#clip160)" d="M 0 0 M1114 1520.78 Q1110.86 1520.78 1109 1522.93 Q1107.18 1525.08 1107.18 1528.83 Q1107.18 1532.56 1109 1534.73 Q1110.86 1536.89 1114 1536.89 Q1117.15 1536.89 1118.98 1534.73 Q1120.83 1532.56 1120.83 1528.83 Q1120.83 1525.08 1118.98 1522.93 Q1117.15 1520.78 1114 1520.78 M1123.29 1506.12 L1123.29 1510.38 Q1121.53 1509.55 1119.72 1509.11 Q1117.94 1508.67 1116.18 1508.67 Q1111.55 1508.67 1109.1 1511.8 Q1106.67 1514.92 1106.32 1521.24 Q1107.69 1519.23 1109.75 1518.16 Q1111.81 1517.07 1114.28 1517.07 Q1119.49 1517.07 1122.5 1520.24 Q1125.53 1523.39 1125.53 1528.83 Q1125.53 1534.16 1122.38 1537.37 Q1119.24 1540.59 1114 1540.59 Q1108.01 1540.59 1104.84 1536.01 Q1101.67 1531.4 1101.67 1522.67 Q1101.67 1514.48 1105.56 1509.62 Q1109.44 1504.73 1116 1504.73 Q1117.75 1504.73 1119.54 1505.08 Q1121.34 1505.43 1123.29 1506.12 Z" fill="#000000" fill-rule="evenodd" fill-opacity="1" /><path clip-path="url(#clip160)" d="M 0 0 M1676.61 1508.44 Q1673 1508.44 1671.17 1512 Q1669.36 1515.55 1669.36 1522.67 Q1669.36 1529.78 1671.17 1533.35 Q1673 1536.89 1676.61 1536.89 Q1680.24 1536.89 1682.05 1533.35 Q1683.88 1529.78 1683.88 1522.67 Q1683.88 1515.55 1682.05 1512 Q1680.24 1508.44 1676.61 1508.44 M1676.61 1504.73 Q1682.42 1504.73 1685.47 1509.34 Q1688.55 1513.92 1688.55 1522.67 Q1688.55 1531.4 1685.47 1536.01 Q1682.42 1540.59 1676.61 1540.59 Q1670.8 1540.59 1667.72 1536.01 Q1664.66 1531.4 1664.66 1522.67 Q1664.66 1513.92 1667.72 1509.34 Q1670.8 1504.73 1676.61 1504.73 Z" fill="#000000" fill-rule="evenodd" fill-opacity="1" /><path clip-path="url(#clip160)" d="M 0 0 M1693.62 1534.04 L1698.51 1534.04 L1698.51 1539.92 L1693.62 1539.92 L1693.62 1534.04 Z" fill="#000000" fill-rule="evenodd" fill-opacity="1" /><path clip-path="url(#clip160)" d="M 0 0 M1702.4 1505.36 L1724.62 1505.36 L1724.62 1507.35 L1712.07 1539.92 L1707.19 1539.92 L1718.99 1509.3 L1702.4 1509.3 L1702.4 1505.36 Z" fill="#000000" fill-rule="evenodd" fill-opacity="1" /><path clip-path="url(#clip160)" d="M 0 0 M2275.82 1508.44 Q2272.21 1508.44 2270.38 1512 Q2268.58 1515.55 2268.58 1522.67 Q2268.58 1529.78 2270.38 1533.35 Q2272.21 1536.89 2275.82 1536.89 Q2279.46 1536.89 2281.26 1533.35 Q2283.09 1529.78 2283.09 1522.67 Q2283.09 1515.55 2281.26 1512 Q2279.46 1508.44 2275.82 1508.44 M2275.82 1504.73 Q2281.63 1504.73 2284.69 1509.34 Q2287.77 1513.92 2287.77 1522.67 Q2287.77 1531.4 2284.69 1536.01 Q2281.63 1540.59 2275.82 1540.59 Q2270.01 1540.59 2266.93 1536.01 Q2263.88 1531.4 2263.88 1522.67 Q2263.88 1513.92 2266.93 1509.34 Q2270.01 1504.73 2275.82 1504.73 Z" fill="#000000" fill-rule="evenodd" fill-opacity="1" /><path clip-path="url(#clip160)" d="M 0 0 M2292.83 1534.04 L2297.72 1534.04 L2297.72 1539.92 L2292.83 1539.92 L2292.83 1534.04 Z" fill="#000000" fill-rule="evenodd" fill-opacity="1" /><path clip-path="url(#clip160)" d="M 0 0 M2312.79 1523.51 Q2309.45 1523.51 2307.53 1525.29 Q2305.64 1527.07 2305.64 1530.2 Q2305.64 1533.32 2307.53 1535.11 Q2309.45 1536.89 2312.79 1536.89 Q2316.12 1536.89 2318.04 1535.11 Q2319.96 1533.3 2319.96 1530.2 Q2319.96 1527.07 2318.04 1525.29 Q2316.14 1523.51 2312.79 1523.51 M2308.11 1521.52 Q2305.1 1520.78 2303.41 1518.72 Q2301.75 1516.66 2301.75 1513.69 Q2301.75 1509.55 2304.69 1507.14 Q2307.65 1504.73 2312.79 1504.73 Q2317.95 1504.73 2320.89 1507.14 Q2323.83 1509.55 2323.83 1513.69 Q2323.83 1516.66 2322.14 1518.72 Q2320.47 1520.78 2317.49 1521.52 Q2320.87 1522.3 2322.74 1524.6 Q2324.64 1526.89 2324.64 1530.2 Q2324.64 1535.22 2321.56 1537.91 Q2318.51 1540.59 2312.79 1540.59 Q2307.07 1540.59 2303.99 1537.91 Q2300.94 1535.22 2300.94 1530.2 Q2300.94 1526.89 2302.83 1524.6 Q2304.73 1522.3 2308.11 1521.52 M2306.4 1514.13 Q2306.4 1516.82 2308.07 1518.32 Q2309.76 1519.83 2312.79 1519.83 Q2315.8 1519.83 2317.49 1518.32 Q2319.2 1516.82 2319.2 1514.13 Q2319.2 1511.45 2317.49 1509.94 Q2315.8 1508.44 2312.79 1508.44 Q2309.76 1508.44 2308.07 1509.94 Q2306.4 1511.45 2306.4 1514.13 Z" fill="#000000" fill-rule="evenodd" fill-opacity="1" /><path clip-path="url(#clip160)" d="M 0 0 M76.2328 1431.51 Q72.6217 1431.51 70.793 1435.08 Q68.9875 1438.62 68.9875 1445.75 Q68.9875 1452.86 70.793 1456.42 Q72.6217 1459.96 76.2328 1459.96 Q79.867 1459.96 81.6726 1456.42 Q83.5013 1452.86 83.5013 1445.75 Q83.5013 1438.62 81.6726 1435.08 Q79.867 1431.51 76.2328 1431.51 M76.2328 1427.81 Q82.0429 1427.81 85.0985 1432.42 Q88.1772 1437 88.1772 1445.75 Q88.1772 1454.48 85.0985 1459.08 Q82.0429 1463.67 76.2328 1463.67 Q70.4226 1463.67 67.344 1459.08 Q64.2884 1454.48 64.2884 1445.75 Q64.2884 1437 67.344 1432.42 Q70.4226 1427.81 76.2328 1427.81 Z" fill="#000000" fill-rule="evenodd" fill-opacity="1" /><path clip-path="url(#clip160)" d="M 0 0 M71.8578 1103.33 L88.1772 1103.33 L88.1772 1107.27 L66.2328 1107.27 L66.2328 1103.33 Q68.8949 1100.58 73.4782 1095.95 Q78.0846 1091.3 79.2652 1089.95 Q81.5105 1087.43 82.3902 1085.69 Q83.2929 1083.94 83.2929 1082.25 Q83.2929 1079.49 81.3485 1077.76 Q79.4272 1076.02 76.3254 1076.02 Q74.1263 1076.02 71.6726 1076.78 Q69.2421 1077.55 66.4643 1079.1 L66.4643 1074.38 Q69.2884 1073.24 71.7421 1072.66 Q74.1958 1072.08 76.2328 1072.08 Q81.6031 1072.08 84.7976 1074.77 Q87.992 1077.45 87.992 1081.94 Q87.992 1084.07 87.1818 1086 Q86.3948 1087.89 84.2883 1090.49 Q83.7096 1091.16 80.6078 1094.38 Q77.5059 1097.57 71.8578 1103.33 Z" fill="#000000" fill-rule="evenodd" fill-opacity="1" /><path clip-path="url(#clip160)" d="M 0 0 M78.5939 721.056 L66.7884 739.505 L78.5939 739.505 L78.5939 721.056 M77.367 716.982 L83.2466 716.982 L83.2466 739.505 L88.1772 739.505 L88.1772 743.394 L83.2466 743.394 L83.2466 751.542 L78.5939 751.542 L78.5939 743.394 L62.9921 743.394 L62.9921 738.88 L77.367 716.982 Z" fill="#000000" fill-rule="evenodd" fill-opacity="1" /><path clip-path="url(#clip160)" d="M 0 0 M76.6495 376.672 Q73.5013 376.672 71.6495 378.825 Q69.8208 380.977 69.8208 384.727 Q69.8208 388.454 71.6495 390.63 Q73.5013 392.783 76.6495 392.783 Q79.7976 392.783 81.6263 390.63 Q83.4781 388.454 83.4781 384.727 Q83.4781 380.977 81.6263 378.825 Q79.7976 376.672 76.6495 376.672 M85.9318 362.019 L85.9318 366.278 Q84.1726 365.445 82.367 365.005 Q80.5846 364.565 78.8254 364.565 Q74.1958 364.565 71.7421 367.69 Q69.3115 370.815 68.9643 377.135 Q70.33 375.121 72.3902 374.056 Q74.4504 372.968 76.9272 372.968 Q82.1355 372.968 85.1448 376.139 Q88.1772 379.288 88.1772 384.727 Q88.1772 390.051 85.029 393.269 Q81.8809 396.487 76.6495 396.487 Q70.6541 396.487 67.4828 391.903 Q64.3116 387.297 64.3116 378.57 Q64.3116 370.376 68.2004 365.515 Q72.0893 360.63 78.6402 360.63 Q80.3994 360.63 82.1818 360.978 Q83.9874 361.325 85.9318 362.019 Z" fill="#000000" fill-rule="evenodd" fill-opacity="1" /><path clip-path="url(#clip162)" d="
M175.59 1439.37 L180.822 1439.06 L186.055 1438.76 L191.288 1438.47 L196.52 1438.18 L201.753 1437.87 L206.986 1437.54 L212.218 1437.16 L217.451 1436.73 L222.684 1436.22 
  L227.916 1435.63 L233.149 1434.94 L238.382 1434.12 L243.614 1433.17 L248.847 1432.07 L254.08 1430.8 L259.312 1429.37 L264.545 1427.76 L269.778 1425.95 L275.01 1423.97 
  L280.243 1421.79 L285.476 1419.43 L290.708 1416.9 L295.941 1414.21 L301.174 1411.38 L306.406 1408.42 L311.639 1405.37 L316.872 1402.24 L322.104 1399.08 L327.337 1395.89 
  L332.569 1392.73 L337.802 1389.61 L343.035 1386.55 L348.267 1383.58 L353.5 1380.72 L358.733 1377.96 L363.965 1375.31 L369.198 1372.77 L374.431 1370.32 L379.663 1367.96 
  L384.896 1365.65 L390.129 1363.4 L395.361 1361.17 L400.594 1358.97 L405.827 1356.77 L411.059 1354.58 L416.292 1352.4 L421.525 1350.25 L426.757 1348.14 L431.99 1346.1 
  L437.223 1344.14 L442.455 1342.29 L447.688 1340.57 L452.921 1338.98 L458.153 1337.54 L463.386 1336.24 L468.619 1335.06 L473.851 1333.98 L479.084 1332.98 L484.317 1332.02 
  L489.549 1331.05 L494.782 1330.05 L500.015 1328.96 L505.247 1327.75 L510.48 1326.38 L515.712 1324.83 L520.945 1323.07 L526.178 1321.09 L531.41 1318.89 L536.643 1316.48 
  L541.876 1313.86 L547.108 1311.05 L552.341 1308.08 L557.574 1304.97 L562.806 1301.76 L568.039 1298.47 L573.272 1295.12 L578.504 1291.73 L583.737 1288.31 L588.97 1284.85 
  L594.202 1281.34 L599.435 1277.74 L604.668 1274.02 L609.9 1270.13 L615.133 1266.02 L620.366 1261.64 L625.598 1256.94 L630.831 1251.88 L636.064 1246.43 L641.296 1240.59 
  L646.529 1234.36 L651.762 1227.77 L656.994 1220.89 L662.227 1213.76 L667.46 1206.49 L672.692 1199.17 L677.925 1191.89 L683.158 1184.78 L688.39 1177.93 L693.623 1171.43 
  L693.623 1445.72 L688.39 1445.72 L683.158 1445.72 L677.925 1445.72 L672.692 1445.72 L667.46 1445.72 L662.227 1445.72 L656.994 1445.72 L651.762 1445.72 L646.529 1445.72 
  L641.296 1445.72 L636.064 1445.72 L630.831 1445.72 L625.598 1445.72 L620.366 1445.72 L615.133 1445.72 L609.9 1445.72 L604.668 1445.72 L599.435 1445.72 L594.202 1445.72 
  L588.97 1445.72 L583.737 1445.72 L578.504 1445.72 L573.272 1445.72 L568.039 1445.72 L562.806 1445.72 L557.574 1445.72 L552.341 1445.72 L547.108 1445.72 L541.876 1445.72 
  L536.643 1445.72 L531.41 1445.72 L526.178 1445.72 L520.945 1445.72 L515.712 1445.72 L510.48 1445.72 L505.247 1445.72 L500.015 1445.72 L494.782 1445.72 L489.549 1445.72 
  L484.317 1445.72 L479.084 1445.72 L473.851 1445.72 L468.619 1445.72 L463.386 1445.72 L458.153 1445.72 L452.921 1445.72 L447.688 1445.72 L442.455 1445.72 L437.223 1445.72 
  L431.99 1445.72 L426.757 1445.72 L421.525 1445.72 L416.292 1445.72 L411.059 1445.72 L405.827 1445.72 L400.594 1445.72 L395.361 1445.72 L390.129 1445.72 L384.896 1445.72 
  L379.663 1445.72 L374.431 1445.72 L369.198 1445.72 L363.965 1445.72 L358.733 1445.72 L353.5 1445.72 L348.267 1445.72 L343.035 1445.72 L337.802 1445.72 L332.569 1445.72 
  L327.337 1445.72 L322.104 1445.72 L316.872 1445.72 L311.639 1445.72 L306.406 1445.72 L301.174 1445.72 L295.941 1445.72 L290.708 1445.72 L285.476 1445.72 L280.243 1445.72 
  L275.01 1445.72 L269.778 1445.72 L264.545 1445.72 L259.312 1445.72 L254.08 1445.72 L248.847 1445.72 L243.614 1445.72 L238.382 1445.72 L233.149 1445.72 L227.916 1445.72 
  L222.684 1445.72 L217.451 1445.72 L212.218 1445.72 L206.986 1445.72 L201.753 1445.72 L196.52 1445.72 L191.288 1445.72 L186.055 1445.72 L180.822 1445.72 L175.59 1445.72 
   Z
  " fill="#ffa500" fill-rule="evenodd" fill-opacity="0.5"/>
<polyline clip-path="url(#clip162)" style="stroke:#ffa500; stroke-width:4; stroke-opacity:1; fill:none" points="
  175.59,1439.37 180.822,1439.06 186.055,1438.76 191.288,1438.47 196.52,1438.18 201.753,1437.87 206.986,1437.54 212.218,1437.16 217.451,1436.73 222.684,1436.22 
  227.916,1435.63 233.149,1434.94 238.382,1434.12 243.614,1433.17 248.847,1432.07 254.08,1430.8 259.312,1429.37 264.545,1427.76 269.778,1425.95 275.01,1423.97 
  280.243,1421.79 285.476,1419.43 290.708,1416.9 295.941,1414.21 301.174,1411.38 306.406,1408.42 311.639,1405.37 316.872,1402.24 322.104,1399.08 327.337,1395.89 
  332.569,1392.73 337.802,1389.61 343.035,1386.55 348.267,1383.58 353.5,1380.72 358.733,1377.96 363.965,1375.31 369.198,1372.77 374.431,1370.32 379.663,1367.96 
  384.896,1365.65 390.129,1363.4 395.361,1361.17 400.594,1358.97 405.827,1356.77 411.059,1354.58 416.292,1352.4 421.525,1350.25 426.757,1348.14 431.99,1346.1 
  437.223,1344.14 442.455,1342.29 447.688,1340.57 452.921,1338.98 458.153,1337.54 463.386,1336.24 468.619,1335.06 473.851,1333.98 479.084,1332.98 484.317,1332.02 
  489.549,1331.05 494.782,1330.05 500.015,1328.96 505.247,1327.75 510.48,1326.38 515.712,1324.83 520.945,1323.07 526.178,1321.09 531.41,1318.89 536.643,1316.48 
  541.876,1313.86 547.108,1311.05 552.341,1308.08 557.574,1304.97 562.806,1301.76 568.039,1298.47 573.272,1295.12 578.504,1291.73 583.737,1288.31 588.97,1284.85 
  594.202,1281.34 599.435,1277.74 604.668,1274.02 609.9,1270.13 615.133,1266.02 620.366,1261.64 625.598,1256.94 630.831,1251.88 636.064,1246.43 641.296,1240.59 
  646.529,1234.36 651.762,1227.77 656.994,1220.89 662.227,1213.76 667.46,1206.49 672.692,1199.17 677.925,1191.89 683.158,1184.78 688.39,1177.93 693.623,1171.43 
  
  "/>
<path clip-path="url(#clip162)" d="
M693.623 1171.43 L705.088 1158.78 L716.553 1148.65 L728.018 1141.01 L739.482 1135.22 L750.947 1130.21 L762.412 1124.58 L773.877 1116.89 L785.342 1105.98 L796.807 1091.19 
  L808.272 1072.56 L819.737 1050.71 L831.202 1026.68 L842.667 1001.47 L854.132 975.718 L865.596 949.493 L877.061 922.3 L888.526 893.366 L899.991 862.025 L911.456 828.068 
  L922.921 791.903 L934.386 754.446 L945.851 716.792 L957.316 679.79 L968.781 643.686 L980.246 607.996 L991.71 571.653 L1003.18 533.409 L1014.64 492.33 L1026.11 448.253 
  L1037.57 402.003 L1049.04 355.331 L1060.5 310.544 L1071.96 269.945 L1083.43 235.221 L1094.89 206.994 L1106.36 184.66 L1117.82 166.622 L1129.29 150.87 L1140.75 135.729 
  L1152.22 120.543 L1163.68 106.051 L1175.15 94.2773 L1186.61 87.9763 L1198.08 89.7631 L1209.54 101.219 L1221.01 122.248 L1232.47 150.885 L1243.94 183.622 L1255.4 216.143 
  L1266.87 244.248 L1278.33 264.697 L1289.8 275.741 L1301.26 277.26 L1312.73 270.552 L1324.19 257.927 L1335.66 242.281 L1347.12 226.751 L1358.59 214.426 L1370.05 208.043 
  L1381.52 209.614 L1392.98 220.034 L1404.45 238.82 L1415.91 264.166 L1427.38 293.371 L1438.84 323.557 L1450.31 352.414 L1461.77 378.729 L1473.24 402.53 L1484.7 424.846 
  L1496.17 447.214 L1507.63 471.15 L1519.1 497.709 L1530.56 527.235 L1542.03 559.32 L1553.49 592.951 L1564.96 626.801 L1576.42 659.6 L1587.89 690.482 L1599.35 719.185 
  L1610.82 746.029 L1622.28 771.673 L1633.75 796.734 L1645.21 821.442 L1656.68 845.472 L1668.14 868.042 L1679.61 888.222 L1691.07 905.349 L1702.53 919.354 L1714 930.884 
  L1725.46 941.171 L1736.93 951.689 L1748.39 963.749 L1759.86 978.168 L1771.32 995.129 L1782.79 1014.24 L1794.25 1034.72 L1805.72 1055.62 L1817.18 1076 L1828.65 1095.01 
  L1828.65 1445.72 L1817.18 1445.72 L1805.72 1445.72 L1794.25 1445.72 L1782.79 1445.72 L1771.32 1445.72 L1759.86 1445.72 L1748.39 1445.72 L1736.93 1445.72 L1725.46 1445.72 
  L1714 1445.72 L1702.53 1445.72 L1691.07 1445.72 L1679.61 1445.72 L1668.14 1445.72 L1656.68 1445.72 L1645.21 1445.72 L1633.75 1445.72 L1622.28 1445.72 L1610.82 1445.72 
  L1599.35 1445.72 L1587.89 1445.72 L1576.42 1445.72 L1564.96 1445.72 L1553.49 1445.72 L1542.03 1445.72 L1530.56 1445.72 L1519.1 1445.72 L1507.63 1445.72 L1496.17 1445.72 
  L1484.7 1445.72 L1473.24 1445.72 L1461.77 1445.72 L1450.31 1445.72 L1438.84 1445.72 L1427.38 1445.72 L1415.91 1445.72 L1404.45 1445.72 L1392.98 1445.72 L1381.52 1445.72 
  L1370.05 1445.72 L1358.59 1445.72 L1347.12 1445.72 L1335.66 1445.72 L1324.19 1445.72 L1312.73 1445.72 L1301.26 1445.72 L1289.8 1445.72 L1278.33 1445.72 L1266.87 1445.72 
  L1255.4 1445.72 L1243.94 1445.72 L1232.47 1445.72 L1221.01 1445.72 L1209.54 1445.72 L1198.08 1445.72 L1186.61 1445.72 L1175.15 1445.72 L1163.68 1445.72 L1152.22 1445.72 
  L1140.75 1445.72 L1129.29 1445.72 L1117.82 1445.72 L1106.36 1445.72 L1094.89 1445.72 L1083.43 1445.72 L1071.96 1445.72 L1060.5 1445.72 L1049.04 1445.72 L1037.57 1445.72 
  L1026.11 1445.72 L1014.64 1445.72 L1003.18 1445.72 L991.71 1445.72 L980.246 1445.72 L968.781 1445.72 L957.316 1445.72 L945.851 1445.72 L934.386 1445.72 L922.921 1445.72 
  L911.456 1445.72 L899.991 1445.72 L888.526 1445.72 L877.061 1445.72 L865.596 1445.72 L854.132 1445.72 L842.667 1445.72 L831.202 1445.72 L819.737 1445.72 L808.272 1445.72 
  L796.807 1445.72 L785.342 1445.72 L773.877 1445.72 L762.412 1445.72 L750.947 1445.72 L739.482 1445.72 L728.018 1445.72 L716.553 1445.72 L705.088 1445.72 L693.623 1445.72 
   Z
  " fill="#008000" fill-rule="evenodd" fill-opacity="0.5"/>
<polyline clip-path="url(#clip162)" style="stroke:#008000; stroke-width:4; stroke-opacity:1; fill:none" points="
  693.623,1171.43 705.088,1158.78 716.553,1148.65 728.018,1141.01 739.482,1135.22 750.947,1130.21 762.412,1124.58 773.877,1116.89 785.342,1105.98 796.807,1091.19 
  808.272,1072.56 819.737,1050.71 831.202,1026.68 842.667,1001.47 854.132,975.718 865.596,949.493 877.061,922.3 888.526,893.366 899.991,862.025 911.456,828.068 
  922.921,791.903 934.386,754.446 945.851,716.792 957.316,679.79 968.781,643.686 980.246,607.996 991.71,571.653 1003.18,533.409 1014.64,492.33 1026.11,448.253 
  1037.57,402.003 1049.04,355.331 1060.5,310.544 1071.96,269.945 1083.43,235.221 1094.89,206.994 1106.36,184.66 1117.82,166.622 1129.29,150.87 1140.75,135.729 
  1152.22,120.543 1163.68,106.051 1175.15,94.2773 1186.61,87.9763 1198.08,89.7631 1209.54,101.219 1221.01,122.248 1232.47,150.885 1243.94,183.622 1255.4,216.143 
  1266.87,244.248 1278.33,264.697 1289.8,275.741 1301.26,277.26 1312.73,270.552 1324.19,257.927 1335.66,242.281 1347.12,226.751 1358.59,214.426 1370.05,208.043 
  1381.52,209.614 1392.98,220.034 1404.45,238.82 1415.91,264.166 1427.38,293.371 1438.84,323.557 1450.31,352.414 1461.77,378.729 1473.24,402.53 1484.7,424.846 
  1496.17,447.214 1507.63,471.15 1519.1,497.709 1530.56,527.235 1542.03,559.32 1553.49,592.951 1564.96,626.801 1576.42,659.6 1587.89,690.482 1599.35,719.185 
  1610.82,746.029 1622.28,771.673 1633.75,796.734 1645.21,821.442 1656.68,845.472 1668.14,868.042 1679.61,888.222 1691.07,905.349 1702.53,919.354 1714,930.884 
  1725.46,941.171 1736.93,951.689 1748.39,963.749 1759.86,978.168 1771.32,995.129 1782.79,1014.24 1794.25,1034.72 1805.72,1055.62 1817.18,1076 1828.65,1095.01 
  
  "/>
<path clip-path="url(#clip162)" d="
M1828.65 1095.01 L1833.3 1102.17 L1837.96 1108.96 L1842.61 1115.36 L1847.26 1121.34 L1851.92 1126.92 L1856.57 1132.09 L1861.22 1136.89 L1865.88 1141.35 L1870.53 1145.54 
  L1875.18 1149.52 L1879.84 1153.38 L1884.49 1157.2 L1889.14 1161.09 L1893.8 1165.14 L1898.45 1169.47 L1903.1 1174.16 L1907.76 1179.3 L1912.41 1184.96 L1917.07 1191.21 
  L1921.72 1198.08 L1926.37 1205.58 L1931.03 1213.7 L1935.68 1222.41 L1940.33 1231.67 L1944.99 1241.39 L1949.64 1251.49 L1954.29 1261.86 L1958.95 1272.39 L1963.6 1282.95 
  L1968.25 1293.42 L1972.91 1303.69 L1977.56 1313.62 L1982.21 1323.12 L1986.87 1332.09 L1991.52 1340.45 L1996.17 1348.14 L2000.83 1355.1 L2005.48 1361.31 L2010.13 1366.76 
  L2014.79 1371.45 L2019.44 1375.39 L2024.1 1378.64 L2028.75 1381.22 L2033.4 1383.21 L2038.06 1384.65 L2042.71 1385.61 L2047.36 1386.17 L2052.02 1386.38 L2056.67 1386.31 
  L2061.32 1386.01 L2065.98 1385.52 L2070.63 1384.89 L2075.28 1384.14 L2079.94 1383.3 L2084.59 1382.37 L2089.24 1381.38 L2093.9 1380.31 L2098.55 1379.17 L2103.2 1377.96 
  L2107.86 1376.68 L2112.51 1375.35 L2117.16 1373.98 L2121.82 1372.6 L2126.47 1371.24 L2131.13 1369.94 L2135.78 1368.75 L2140.43 1367.72 L2145.09 1366.93 L2149.74 1366.41 
  L2154.39 1366.24 L2159.05 1366.46 L2163.7 1367.11 L2168.35 1368.23 L2173.01 1369.82 L2177.66 1371.9 L2182.31 1374.45 L2186.97 1377.43 L2191.62 1380.8 L2196.27 1384.51 
  L2200.93 1388.49 L2205.58 1392.66 L2210.23 1396.95 L2214.89 1401.29 L2219.54 1405.6 L2224.19 1409.8 L2228.85 1413.84 L2233.5 1417.68 L2238.16 1421.26 L2242.81 1424.56 
  L2247.46 1427.55 L2252.12 1430.25 L2256.77 1432.63 L2261.42 1434.72 L2266.08 1436.53 L2270.73 1438.07 L2275.38 1439.38 L2280.04 1440.47 L2284.69 1441.38 L2289.34 1442.13 
  L2289.34 1445.72 L2284.69 1445.72 L2280.04 1445.72 L2275.38 1445.72 L2270.73 1445.72 L2266.08 1445.72 L2261.42 1445.72 L2256.77 1445.72 L2252.12 1445.72 L2247.46 1445.72 
  L2242.81 1445.72 L2238.16 1445.72 L2233.5 1445.72 L2228.85 1445.72 L2224.19 1445.72 L2219.54 1445.72 L2214.89 1445.72 L2210.23 1445.72 L2205.58 1445.72 L2200.93 1445.72 
  L2196.27 1445.72 L2191.62 1445.72 L2186.97 1445.72 L2182.31 1445.72 L2177.66 1445.72 L2173.01 1445.72 L2168.35 1445.72 L2163.7 1445.72 L2159.05 1445.72 L2154.39 1445.72 
  L2149.74 1445.72 L2145.09 1445.72 L2140.43 1445.72 L2135.78 1445.72 L2131.13 1445.72 L2126.47 1445.72 L2121.82 1445.72 L2117.16 1445.72 L2112.51 1445.72 L2107.86 1445.72 
  L2103.2 1445.72 L2098.55 1445.72 L2093.9 1445.72 L2089.24 1445.72 L2084.59 1445.72 L2079.94 1445.72 L2075.28 1445.72 L2070.63 1445.72 L2065.98 1445.72 L2061.32 1445.72 
  L2056.67 1445.72 L2052.02 1445.72 L2047.36 1445.72 L2042.71 1445.72 L2038.06 1445.72 L2033.4 1445.72 L2028.75 1445.72 L2024.1 1445.72 L2019.44 1445.72 L2014.79 1445.72 
  L2010.13 1445.72 L2005.48 1445.72 L2000.83 1445.72 L1996.17 1445.72 L1991.52 1445.72 L1986.87 1445.72 L1982.21 1445.72 L1977.56 1445.72 L1972.91 1445.72 L1968.25 1445.72 
  L1963.6 1445.72 L1958.95 1445.72 L1954.29 1445.72 L1949.64 1445.72 L1944.99 1445.72 L1940.33 1445.72 L1935.68 1445.72 L1931.03 1445.72 L1926.37 1445.72 L1921.72 1445.72 
  L1917.07 1445.72 L1912.41 1445.72 L1907.76 1445.72 L1903.1 1445.72 L1898.45 1445.72 L1893.8 1445.72 L1889.14 1445.72 L1884.49 1445.72 L1879.84 1445.72 L1875.18 1445.72 
  L1870.53 1445.72 L1865.88 1445.72 L1861.22 1445.72 L1856.57 1445.72 L1851.92 1445.72 L1847.26 1445.72 L1842.61 1445.72 L1837.96 1445.72 L1833.3 1445.72 L1828.65 1445.72 
   Z
  " fill="#ffa500" fill-rule="evenodd" fill-opacity="0.5"/>
<polyline clip-path="url(#clip162)" style="stroke:#ffa500; stroke-width:4; stroke-opacity:1; fill:none" points="
  1828.65,1095.01 1833.3,1102.17 1837.96,1108.96 1842.61,1115.36 1847.26,1121.34 1851.92,1126.92 1856.57,1132.09 1861.22,1136.89 1865.88,1141.35 1870.53,1145.54 
  1875.18,1149.52 1879.84,1153.38 1884.49,1157.2 1889.14,1161.09 1893.8,1165.14 1898.45,1169.47 1903.1,1174.16 1907.76,1179.3 1912.41,1184.96 1917.07,1191.21 
  1921.72,1198.08 1926.37,1205.58 1931.03,1213.7 1935.68,1222.41 1940.33,1231.67 1944.99,1241.39 1949.64,1251.49 1954.29,1261.86 1958.95,1272.39 1963.6,1282.95 
  1968.25,1293.42 1972.91,1303.69 1977.56,1313.62 1982.21,1323.12 1986.87,1332.09 1991.52,1340.45 1996.17,1348.14 2000.83,1355.1 2005.48,1361.31 2010.13,1366.76 
  2014.79,1371.45 2019.44,1375.39 2024.1,1378.64 2028.75,1381.22 2033.4,1383.21 2038.06,1384.65 2042.71,1385.61 2047.36,1386.17 2052.02,1386.38 2056.67,1386.31 
  2061.32,1386.01 2065.98,1385.52 2070.63,1384.89 2075.28,1384.14 2079.94,1383.3 2084.59,1382.37 2089.24,1381.38 2093.9,1380.31 2098.55,1379.17 2103.2,1377.96 
  2107.86,1376.68 2112.51,1375.35 2117.16,1373.98 2121.82,1372.6 2126.47,1371.24 2131.13,1369.94 2135.78,1368.75 2140.43,1367.72 2145.09,1366.93 2149.74,1366.41 
  2154.39,1366.24 2159.05,1366.46 2163.7,1367.11 2168.35,1368.23 2173.01,1369.82 2177.66,1371.9 2182.31,1374.45 2186.97,1377.43 2191.62,1380.8 2196.27,1384.51 
  2200.93,1388.49 2205.58,1392.66 2210.23,1396.95 2214.89,1401.29 2219.54,1405.6 2224.19,1409.8 2228.85,1413.84 2233.5,1417.68 2238.16,1421.26 2242.81,1424.56 
  2247.46,1427.55 2252.12,1430.25 2256.77,1432.63 2261.42,1434.72 2266.08,1436.53 2270.73,1438.07 2275.38,1439.38 2280.04,1440.47 2284.69,1441.38 2289.34,1442.13 
  
  "/>
<polyline clip-path="url(#clip162)" style="stroke:#0000ff; stroke-width:4; stroke-opacity:1; fill:none" points="
  1273.34,1445.72 1273.34,256.874 
  "/>
<polyline clip-path="url(#clip162)" style="stroke:#000000; stroke-width:4; stroke-opacity:1; fill:none" points="
  1263.54,1445.72 1263.54,236.753 
  "/>
</svg>
