<?xml version="1.0" encoding="utf-8"?>
<svg xmlns="http://www.w3.org/2000/svg" xmlns:xlink="http://www.w3.org/1999/xlink" width="600" height="400" viewBox="0 0 2400 1600">
<defs>
  <clipPath id="clip280">
    <rect x="0" y="0" width="2400" height="1600"/>
  </clipPath>
</defs>
<path clip-path="url(#clip280)" d="
M0 1600 L2400 1600 L2400 0 L0 0  Z
  " fill="#ffffff" fill-rule="evenodd" fill-opacity="1"/>
<defs>
  <clipPath id="clip281">
    <rect x="480" y="0" width="1681" height="1600"/>
  </clipPath>
</defs>
<path clip-path="url(#clip280)" d="
M139.191 1486.45 L2352.76 1486.45 L2352.76 47.2441 L139.191 47.2441  Z
  " fill="#ffffff" fill-rule="evenodd" fill-opacity="1"/>
<defs>
  <clipPath id="clip282">
    <rect x="139" y="47" width="2215" height="1440"/>
  </clipPath>
</defs>
<polyline clip-path="url(#clip282)" style="stroke:#000000; stroke-width:2; stroke-opacity:0.1; fill:none" points="
  176.572,1486.45 176.572,47.2441 
  "/>
<polyline clip-path="url(#clip282)" style="stroke:#000000; stroke-width:2; stroke-opacity:0.1; fill:none" points="
  663.001,1486.45 663.001,47.2441 
  "/>
<polyline clip-path="url(#clip282)" style="stroke:#000000; stroke-width:2; stroke-opacity:0.1; fill:none" points="
  1149.43,1486.45 1149.43,47.2441 
  "/>
<polyline clip-path="url(#clip282)" style="stroke:#000000; stroke-width:2; stroke-opacity:0.1; fill:none" points="
  1635.86,1486.45 1635.86,47.2441 
  "/>
<polyline clip-path="url(#clip282)" style="stroke:#000000; stroke-width:2; stroke-opacity:0.1; fill:none" points="
  2122.29,1486.45 2122.29,47.2441 
  "/>
<polyline clip-path="url(#clip282)" style="stroke:#000000; stroke-width:2; stroke-opacity:0.1; fill:none" points="
  139.191,1445.72 2352.76,1445.72 
  "/>
<polyline clip-path="url(#clip282)" style="stroke:#000000; stroke-width:2; stroke-opacity:0.1; fill:none" points="
  139.191,1117.23 2352.76,1117.23 
  "/>
<polyline clip-path="url(#clip282)" style="stroke:#000000; stroke-width:2; stroke-opacity:0.1; fill:none" points="
  139.191,788.747 2352.76,788.747 
  "/>
<polyline clip-path="url(#clip282)" style="stroke:#000000; stroke-width:2; stroke-opacity:0.1; fill:none" points="
  139.191,460.262 2352.76,460.262 
  "/>
<polyline clip-path="url(#clip282)" style="stroke:#000000; stroke-width:2; stroke-opacity:0.1; fill:none" points="
  139.191,131.778 2352.76,131.778 
  "/>
<polyline clip-path="url(#clip280)" style="stroke:#000000; stroke-width:4; stroke-opacity:1; fill:none" points="
  139.191,1486.45 2352.76,1486.45 
  "/>
<polyline clip-path="url(#clip280)" style="stroke:#000000; stroke-width:4; stroke-opacity:1; fill:none" points="
  139.191,1486.45 139.191,47.2441 
  "/>
<polyline clip-path="url(#clip280)" style="stroke:#000000; stroke-width:4; stroke-opacity:1; fill:none" points="
  176.572,1486.45 176.572,1469.18 
  "/>
<polyline clip-path="url(#clip280)" style="stroke:#000000; stroke-width:4; stroke-opacity:1; fill:none" points="
  663.001,1486.45 663.001,1469.18 
  "/>
<polyline clip-path="url(#clip280)" style="stroke:#000000; stroke-width:4; stroke-opacity:1; fill:none" points="
  1149.43,1486.45 1149.43,1469.18 
  "/>
<polyline clip-path="url(#clip280)" style="stroke:#000000; stroke-width:4; stroke-opacity:1; fill:none" points="
  1635.86,1486.45 1635.86,1469.18 
  "/>
<polyline clip-path="url(#clip280)" style="stroke:#000000; stroke-width:4; stroke-opacity:1; fill:none" points="
  2122.29,1486.45 2122.29,1469.18 
  "/>
<polyline clip-path="url(#clip280)" style="stroke:#000000; stroke-width:4; stroke-opacity:1; fill:none" points="
  139.191,1445.72 165.754,1445.72 
  "/>
<polyline clip-path="url(#clip280)" style="stroke:#000000; stroke-width:4; stroke-opacity:1; fill:none" points="
  139.191,1117.23 165.754,1117.23 
  "/>
<polyline clip-path="url(#clip280)" style="stroke:#000000; stroke-width:4; stroke-opacity:1; fill:none" points="
  139.191,788.747 165.754,788.747 
  "/>
<polyline clip-path="url(#clip280)" style="stroke:#000000; stroke-width:4; stroke-opacity:1; fill:none" points="
  139.191,460.262 165.754,460.262 
  "/>
<polyline clip-path="url(#clip280)" style="stroke:#000000; stroke-width:4; stroke-opacity:1; fill:none" points="
  139.191,131.778 165.754,131.778 
  "/>
<path clip-path="url(#clip280)" d="M 0 0 M117.035 1523.09 L146.711 1523.09 L146.711 1527.03 L117.035 1527.03 L117.035 1523.09 Z" fill="#000000" fill-rule="evenodd" fill-opacity="1" /><path clip-path="url(#clip280)" d="M 0 0 M161.78 1508.44 Q158.169 1508.44 156.341 1512 Q154.535 1515.55 154.535 1522.67 Q154.535 1529.78 156.341 1533.35 Q158.169 1536.89 161.78 1536.89 Q165.415 1536.89 167.22 1533.35 Q169.049 1529.78 169.049 1522.67 Q169.049 1515.55 167.22 1512 Q165.415 1508.44 161.78 1508.44 M161.78 1504.73 Q167.591 1504.73 170.646 1509.34 Q173.725 1513.92 173.725 1522.67 Q173.725 1531.4 170.646 1536.01 Q167.591 1540.59 161.78 1540.59 Q155.97 1540.59 152.892 1536.01 Q149.836 1531.4 149.836 1522.67 Q149.836 1513.92 152.892 1509.34 Q155.97 1504.73 161.78 1504.73 Z" fill="#000000" fill-rule="evenodd" fill-opacity="1" /><path clip-path="url(#clip280)" d="M 0 0 M178.794 1534.04 L183.678 1534.04 L183.678 1539.92 L178.794 1539.92 L178.794 1534.04 Z" fill="#000000" fill-rule="evenodd" fill-opacity="1" /><path clip-path="url(#clip280)" d="M 0 0 M198.748 1508.44 Q195.137 1508.44 193.308 1512 Q191.503 1515.55 191.503 1522.67 Q191.503 1529.78 193.308 1533.35 Q195.137 1536.89 198.748 1536.89 Q202.382 1536.89 204.188 1533.35 Q206.016 1529.78 206.016 1522.67 Q206.016 1515.55 204.188 1512 Q202.382 1508.44 198.748 1508.44 M198.748 1504.73 Q204.558 1504.73 207.614 1509.34 Q210.692 1513.92 210.692 1522.67 Q210.692 1531.4 207.614 1536.01 Q204.558 1540.59 198.748 1540.59 Q192.938 1540.59 189.859 1536.01 Q186.803 1531.4 186.803 1522.67 Q186.803 1513.92 189.859 1509.34 Q192.938 1504.73 198.748 1504.73 Z" fill="#000000" fill-rule="evenodd" fill-opacity="1" /><path clip-path="url(#clip280)" d="M 0 0 M219.789 1535.98 L236.109 1535.98 L236.109 1539.92 L214.164 1539.92 L214.164 1535.98 Q216.826 1533.23 221.41 1528.6 Q226.016 1523.95 227.197 1522.61 Q229.442 1520.08 230.322 1518.35 Q231.225 1516.59 231.225 1514.9 Q231.225 1512.14 229.28 1510.41 Q227.359 1508.67 224.257 1508.67 Q222.058 1508.67 219.604 1509.43 Q217.174 1510.2 214.396 1511.75 L214.396 1507.03 Q217.22 1505.89 219.674 1505.31 Q222.127 1504.73 224.164 1504.73 Q229.535 1504.73 232.729 1507.42 Q235.924 1510.11 235.924 1514.6 Q235.924 1516.73 235.113 1518.65 Q234.326 1520.54 232.22 1523.14 Q231.641 1523.81 228.539 1527.03 Q225.438 1530.22 219.789 1535.98 Z" fill="#000000" fill-rule="evenodd" fill-opacity="1" /><path clip-path="url(#clip280)" d="M 0 0 M603.279 1523.09 L632.955 1523.09 L632.955 1527.03 L603.279 1527.03 L603.279 1523.09 Z" fill="#000000" fill-rule="evenodd" fill-opacity="1" /><path clip-path="url(#clip280)" d="M 0 0 M648.024 1508.44 Q644.413 1508.44 642.584 1512 Q640.779 1515.55 640.779 1522.67 Q640.779 1529.78 642.584 1533.35 Q644.413 1536.89 648.024 1536.89 Q651.658 1536.89 653.464 1533.35 Q655.292 1529.78 655.292 1522.67 Q655.292 1515.55 653.464 1512 Q651.658 1508.44 648.024 1508.44 M648.024 1504.73 Q653.834 1504.73 656.89 1509.34 Q659.968 1513.92 659.968 1522.67 Q659.968 1531.4 656.89 1536.01 Q653.834 1540.59 648.024 1540.59 Q642.214 1540.59 639.135 1536.01 Q636.08 1531.4 636.08 1522.67 Q636.08 1513.92 639.135 1509.34 Q642.214 1504.73 648.024 1504.73 Z" fill="#000000" fill-rule="evenodd" fill-opacity="1" /><path clip-path="url(#clip280)" d="M 0 0 M665.038 1534.04 L669.922 1534.04 L669.922 1539.92 L665.038 1539.92 L665.038 1534.04 Z" fill="#000000" fill-rule="evenodd" fill-opacity="1" /><path clip-path="url(#clip280)" d="M 0 0 M684.991 1508.44 Q681.38 1508.44 679.552 1512 Q677.746 1515.55 677.746 1522.67 Q677.746 1529.78 679.552 1533.35 Q681.38 1536.89 684.991 1536.89 Q688.626 1536.89 690.431 1533.35 Q692.26 1529.78 692.26 1522.67 Q692.26 1515.55 690.431 1512 Q688.626 1508.44 684.991 1508.44 M684.991 1504.73 Q690.802 1504.73 693.857 1509.34 Q696.936 1513.92 696.936 1522.67 Q696.936 1531.4 693.857 1536.01 Q690.802 1540.59 684.991 1540.59 Q679.181 1540.59 676.103 1536.01 Q673.047 1531.4 673.047 1522.67 Q673.047 1513.92 676.103 1509.34 Q679.181 1504.73 684.991 1504.73 Z" fill="#000000" fill-rule="evenodd" fill-opacity="1" /><path clip-path="url(#clip280)" d="M 0 0 M702.815 1535.98 L710.454 1535.98 L710.454 1509.62 L702.144 1511.29 L702.144 1507.03 L710.408 1505.36 L715.084 1505.36 L715.084 1535.98 L722.723 1535.98 L722.723 1539.92 L702.815 1539.92 L702.815 1535.98 Z" fill="#000000" fill-rule="evenodd" fill-opacity="1" /><path clip-path="url(#clip280)" d="M 0 0 M1117.44 1508.44 Q1113.83 1508.44 1112 1512 Q1110.19 1515.55 1110.19 1522.67 Q1110.19 1529.78 1112 1533.35 Q1113.83 1536.89 1117.44 1536.89 Q1121.07 1536.89 1122.88 1533.35 Q1124.71 1529.78 1124.71 1522.67 Q1124.71 1515.55 1122.88 1512 Q1121.07 1508.44 1117.44 1508.44 M1117.44 1504.73 Q1123.25 1504.73 1126.3 1509.34 Q1129.38 1513.92 1129.38 1522.67 Q1129.38 1531.4 1126.3 1536.01 Q1123.25 1540.59 1117.44 1540.59 Q1111.63 1540.59 1108.55 1536.01 Q1105.49 1531.4 1105.49 1522.67 Q1105.49 1513.92 1108.55 1509.34 Q1111.63 1504.73 1117.44 1504.73 Z" fill="#000000" fill-rule="evenodd" fill-opacity="1" /><path clip-path="url(#clip280)" d="M 0 0 M1134.45 1534.04 L1139.34 1534.04 L1139.34 1539.92 L1134.45 1539.92 L1134.45 1534.04 Z" fill="#000000" fill-rule="evenodd" fill-opacity="1" /><path clip-path="url(#clip280)" d="M 0 0 M1154.41 1508.44 Q1150.8 1508.44 1148.97 1512 Q1147.16 1515.55 1147.16 1522.67 Q1147.16 1529.78 1148.97 1533.35 Q1150.8 1536.89 1154.41 1536.89 Q1158.04 1536.89 1159.85 1533.35 Q1161.67 1529.78 1161.67 1522.67 Q1161.67 1515.55 1159.85 1512 Q1158.04 1508.44 1154.41 1508.44 M1154.41 1504.73 Q1160.22 1504.73 1163.27 1509.34 Q1166.35 1513.92 1166.35 1522.67 Q1166.35 1531.4 1163.27 1536.01 Q1160.22 1540.59 1154.41 1540.59 Q1148.6 1540.59 1145.52 1536.01 Q1142.46 1531.4 1142.46 1522.67 Q1142.46 1513.92 1145.52 1509.34 Q1148.6 1504.73 1154.41 1504.73 Z" fill="#000000" fill-rule="evenodd" fill-opacity="1" /><path clip-path="url(#clip280)" d="M 0 0 M1181.42 1508.44 Q1177.81 1508.44 1175.98 1512 Q1174.17 1515.55 1174.17 1522.67 Q1174.17 1529.78 1175.98 1533.35 Q1177.81 1536.89 1181.42 1536.89 Q1185.05 1536.89 1186.86 1533.35 Q1188.69 1529.78 1188.69 1522.67 Q1188.69 1515.55 1186.86 1512 Q1185.05 1508.44 1181.42 1508.44 M1181.42 1504.73 Q1187.23 1504.73 1190.29 1509.34 Q1193.36 1513.92 1193.36 1522.67 Q1193.36 1531.4 1190.29 1536.01 Q1187.23 1540.59 1181.42 1540.59 Q1175.61 1540.59 1172.53 1536.01 Q1169.48 1531.4 1169.48 1522.67 Q1169.48 1513.92 1172.53 1509.34 Q1175.61 1504.73 1181.42 1504.73 Z" fill="#000000" fill-rule="evenodd" fill-opacity="1" /><path clip-path="url(#clip280)" d="M 0 0 M1604.48 1508.44 Q1600.87 1508.44 1599.04 1512 Q1597.24 1515.55 1597.24 1522.67 Q1597.24 1529.78 1599.04 1533.35 Q1600.87 1536.89 1604.48 1536.89 Q1608.12 1536.89 1609.92 1533.35 Q1611.75 1529.78 1611.75 1522.67 Q1611.75 1515.55 1609.92 1512 Q1608.12 1508.44 1604.48 1508.44 M1604.48 1504.73 Q1610.29 1504.73 1613.35 1509.34 Q1616.43 1513.92 1616.43 1522.67 Q1616.43 1531.4 1613.35 1536.01 Q1610.29 1540.59 1604.48 1540.59 Q1598.67 1540.59 1595.59 1536.01 Q1592.54 1531.4 1592.54 1522.67 Q1592.54 1513.92 1595.59 1509.34 Q1598.67 1504.73 1604.48 1504.73 Z" fill="#000000" fill-rule="evenodd" fill-opacity="1" /><path clip-path="url(#clip280)" d="M 0 0 M1621.49 1534.04 L1626.38 1534.04 L1626.38 1539.92 L1621.49 1539.92 L1621.49 1534.04 Z" fill="#000000" fill-rule="evenodd" fill-opacity="1" /><path clip-path="url(#clip280)" d="M 0 0 M1641.45 1508.44 Q1637.84 1508.44 1636.01 1512 Q1634.2 1515.55 1634.2 1522.67 Q1634.2 1529.78 1636.01 1533.35 Q1637.84 1536.89 1641.45 1536.89 Q1645.08 1536.89 1646.89 1533.35 Q1648.72 1529.78 1648.72 1522.67 Q1648.72 1515.55 1646.89 1512 Q1645.08 1508.44 1641.45 1508.44 M1641.45 1504.73 Q1647.26 1504.73 1650.31 1509.34 Q1653.39 1513.92 1653.39 1522.67 Q1653.39 1531.4 1650.31 1536.01 Q1647.26 1540.59 1641.45 1540.59 Q1635.64 1540.59 1632.56 1536.01 Q1629.5 1531.4 1629.5 1522.67 Q1629.5 1513.92 1632.56 1509.34 Q1635.64 1504.73 1641.45 1504.73 Z" fill="#000000" fill-rule="evenodd" fill-opacity="1" /><path clip-path="url(#clip280)" d="M 0 0 M1659.27 1535.98 L1666.91 1535.98 L1666.91 1509.62 L1658.6 1511.29 L1658.6 1507.03 L1666.86 1505.36 L1671.54 1505.36 L1671.54 1535.98 L1679.18 1535.98 L1679.18 1539.92 L1659.27 1539.92 L1659.27 1535.98 Z" fill="#000000" fill-rule="evenodd" fill-opacity="1" /><path clip-path="url(#clip280)" d="M 0 0 M2091.09 1508.44 Q2087.48 1508.44 2085.66 1512 Q2083.85 1515.55 2083.85 1522.67 Q2083.85 1529.78 2085.66 1533.35 Q2087.48 1536.89 2091.09 1536.89 Q2094.73 1536.89 2096.53 1533.35 Q2098.36 1529.78 2098.36 1522.67 Q2098.36 1515.55 2096.53 1512 Q2094.73 1508.44 2091.09 1508.44 M2091.09 1504.73 Q2096.91 1504.73 2099.96 1509.34 Q2103.04 1513.92 2103.04 1522.67 Q2103.04 1531.4 2099.96 1536.01 Q2096.91 1540.59 2091.09 1540.59 Q2085.28 1540.59 2082.21 1536.01 Q2079.15 1531.4 2079.15 1522.67 Q2079.15 1513.92 2082.21 1509.34 Q2085.28 1504.73 2091.09 1504.73 Z" fill="#000000" fill-rule="evenodd" fill-opacity="1" /><path clip-path="url(#clip280)" d="M 0 0 M2108.11 1534.04 L2112.99 1534.04 L2112.99 1539.92 L2108.11 1539.92 L2108.11 1534.04 Z" fill="#000000" fill-rule="evenodd" fill-opacity="1" /><path clip-path="url(#clip280)" d="M 0 0 M2128.06 1508.44 Q2124.45 1508.44 2122.62 1512 Q2120.82 1515.55 2120.82 1522.67 Q2120.82 1529.78 2122.62 1533.35 Q2124.45 1536.89 2128.06 1536.89 Q2131.7 1536.89 2133.5 1533.35 Q2135.33 1529.78 2135.33 1522.67 Q2135.33 1515.55 2133.5 1512 Q2131.7 1508.44 2128.06 1508.44 M2128.06 1504.73 Q2133.87 1504.73 2136.93 1509.34 Q2140.01 1513.92 2140.01 1522.67 Q2140.01 1531.4 2136.93 1536.01 Q2133.87 1540.59 2128.06 1540.59 Q2122.25 1540.59 2119.17 1536.01 Q2116.12 1531.4 2116.12 1522.67 Q2116.12 1513.92 2119.17 1509.34 Q2122.25 1504.73 2128.06 1504.73 Z" fill="#000000" fill-rule="evenodd" fill-opacity="1" /><path clip-path="url(#clip280)" d="M 0 0 M2149.1 1535.98 L2165.42 1535.98 L2165.42 1539.92 L2143.48 1539.92 L2143.48 1535.98 Q2146.14 1533.23 2150.72 1528.6 Q2155.33 1523.95 2156.51 1522.61 Q2158.76 1520.08 2159.64 1518.35 Q2160.54 1516.59 2160.54 1514.9 Q2160.54 1512.14 2158.59 1510.41 Q2156.67 1508.67 2153.57 1508.67 Q2151.37 1508.67 2148.92 1509.43 Q2146.49 1510.2 2143.71 1511.75 L2143.71 1507.03 Q2146.53 1505.89 2148.99 1505.31 Q2151.44 1504.73 2153.48 1504.73 Q2158.85 1504.73 2162.04 1507.42 Q2165.24 1510.11 2165.24 1514.6 Q2165.24 1516.73 2164.43 1518.65 Q2163.64 1520.54 2161.53 1523.14 Q2160.96 1523.81 2157.85 1527.03 Q2154.75 1530.22 2149.1 1535.98 Z" fill="#000000" fill-rule="evenodd" fill-opacity="1" /><path clip-path="url(#clip280)" d="M 0 0 M103.247 1431.51 Q99.6354 1431.51 97.8068 1435.08 Q96.0012 1438.62 96.0012 1445.75 Q96.0012 1452.86 97.8068 1456.42 Q99.6354 1459.96 103.247 1459.96 Q106.881 1459.96 108.686 1456.42 Q110.515 1452.86 110.515 1445.75 Q110.515 1438.62 108.686 1435.08 Q106.881 1431.51 103.247 1431.51 M103.247 1427.81 Q109.057 1427.81 112.112 1432.42 Q115.191 1437 115.191 1445.75 Q115.191 1454.48 112.112 1459.08 Q109.057 1463.67 103.247 1463.67 Q97.4364 1463.67 94.3577 1459.08 Q91.3022 1454.48 91.3022 1445.75 Q91.3022 1437 94.3577 1432.42 Q97.4364 1427.81 103.247 1427.81 Z" fill="#000000" fill-rule="evenodd" fill-opacity="1" /><path clip-path="url(#clip280)" d="M 0 0 M71.8578 1130.58 L88.1772 1130.58 L88.1772 1134.51 L66.2328 1134.51 L66.2328 1130.58 Q68.8949 1127.82 73.4782 1123.19 Q78.0846 1118.54 79.2652 1117.2 Q81.5105 1114.67 82.3902 1112.94 Q83.2929 1111.18 83.2929 1109.49 Q83.2929 1106.73 81.3485 1105 Q79.4272 1103.26 76.3254 1103.26 Q74.1263 1103.26 71.6726 1104.03 Q69.2421 1104.79 66.4643 1106.34 L66.4643 1101.62 Q69.2884 1100.48 71.7421 1099.9 Q74.1958 1099.33 76.2328 1099.33 Q81.6031 1099.33 84.7976 1102.01 Q87.992 1104.7 87.992 1109.19 Q87.992 1111.32 87.1818 1113.24 Q86.3948 1115.14 84.2883 1117.73 Q83.7096 1118.4 80.6078 1121.62 Q77.5059 1124.81 71.8578 1130.58 Z" fill="#000000" fill-rule="evenodd" fill-opacity="1" /><path clip-path="url(#clip280)" d="M 0 0 M103.247 1103.03 Q99.6354 1103.03 97.8068 1106.59 Q96.0012 1110.14 96.0012 1117.27 Q96.0012 1124.37 97.8068 1127.94 Q99.6354 1131.48 103.247 1131.48 Q106.881 1131.48 108.686 1127.94 Q110.515 1124.37 110.515 1117.27 Q110.515 1110.14 108.686 1106.59 Q106.881 1103.03 103.247 1103.03 M103.247 1099.33 Q109.057 1099.33 112.112 1103.93 Q115.191 1108.52 115.191 1117.27 Q115.191 1125.99 112.112 1130.6 Q109.057 1135.18 103.247 1135.18 Q97.4364 1135.18 94.3577 1130.6 Q91.3022 1125.99 91.3022 1117.27 Q91.3022 1108.52 94.3577 1103.93 Q97.4364 1099.33 103.247 1099.33 Z" fill="#000000" fill-rule="evenodd" fill-opacity="1" /><path clip-path="url(#clip280)" d="M 0 0 M78.5939 775.541 L66.7884 793.99 L78.5939 793.99 L78.5939 775.541 M77.367 771.467 L83.2466 771.467 L83.2466 793.99 L88.1772 793.99 L88.1772 797.879 L83.2466 797.879 L83.2466 806.027 L78.5939 806.027 L78.5939 797.879 L62.9921 797.879 L62.9921 793.365 L77.367 771.467 Z" fill="#000000" fill-rule="evenodd" fill-opacity="1" /><path clip-path="url(#clip280)" d="M 0 0 M103.247 774.546 Q99.6354 774.546 97.8068 778.11 Q96.0012 781.652 96.0012 788.782 Q96.0012 795.888 97.8068 799.453 Q99.6354 802.994 103.247 802.994 Q106.881 802.994 108.686 799.453 Q110.515 795.888 110.515 788.782 Q110.515 781.652 108.686 778.11 Q106.881 774.546 103.247 774.546 M103.247 770.842 Q109.057 770.842 112.112 775.448 Q115.191 780.032 115.191 788.782 Q115.191 797.508 112.112 802.115 Q109.057 806.698 103.247 806.698 Q97.4364 806.698 94.3577 802.115 Q91.3022 797.508 91.3022 788.782 Q91.3022 780.032 94.3577 775.448 Q97.4364 770.842 103.247 770.842 Z" fill="#000000" fill-rule="evenodd" fill-opacity="1" /><path clip-path="url(#clip280)" d="M 0 0 M76.6495 458.399 Q73.5013 458.399 71.6495 460.552 Q69.8208 462.705 69.8208 466.455 Q69.8208 470.181 71.6495 472.357 Q73.5013 474.51 76.6495 474.51 Q79.7976 474.51 81.6263 472.357 Q83.4781 470.181 83.4781 466.455 Q83.4781 462.705 81.6263 460.552 Q79.7976 458.399 76.6495 458.399 M85.9318 443.746 L85.9318 448.006 Q84.1726 447.172 82.367 446.732 Q80.5846 446.293 78.8254 446.293 Q74.1958 446.293 71.7421 449.418 Q69.3115 452.543 68.9643 458.862 Q70.33 456.848 72.3902 455.783 Q74.4504 454.695 76.9272 454.695 Q82.1355 454.695 85.1448 457.867 Q88.1772 461.015 88.1772 466.455 Q88.1772 471.779 85.029 474.996 Q81.8809 478.214 76.6495 478.214 Q70.6541 478.214 67.4828 473.63 Q64.3116 469.024 64.3116 460.297 Q64.3116 452.103 68.2004 447.242 Q72.0893 442.357 78.6402 442.357 Q80.3994 442.357 82.1818 442.705 Q83.9874 443.052 85.9318 443.746 Z" fill="#000000" fill-rule="evenodd" fill-opacity="1" /><path clip-path="url(#clip280)" d="M 0 0 M103.247 446.061 Q99.6354 446.061 97.8068 449.626 Q96.0012 453.168 96.0012 460.297 Q96.0012 467.404 97.8068 470.968 Q99.6354 474.51 103.247 474.51 Q106.881 474.51 108.686 470.968 Q110.515 467.404 110.515 460.297 Q110.515 453.168 108.686 449.626 Q106.881 446.061 103.247 446.061 M103.247 442.357 Q109.057 442.357 112.112 446.964 Q115.191 451.547 115.191 460.297 Q115.191 469.024 112.112 473.63 Q109.057 478.214 103.247 478.214 Q97.4364 478.214 94.3577 473.63 Q91.3022 469.024 91.3022 460.297 Q91.3022 451.547 94.3577 446.964 Q97.4364 442.357 103.247 442.357 Z" fill="#000000" fill-rule="evenodd" fill-opacity="1" /><path clip-path="url(#clip280)" d="M 0 0 M76.3254 132.646 Q72.9921 132.646 71.0708 134.428 Q69.1726 136.211 69.1726 139.336 Q69.1726 142.461 71.0708 144.243 Q72.9921 146.026 76.3254 146.026 Q79.6587 146.026 81.58 144.243 Q83.5013 142.438 83.5013 139.336 Q83.5013 136.211 81.58 134.428 Q79.6819 132.646 76.3254 132.646 M71.6495 130.655 Q68.6402 129.915 66.9504 127.854 Q65.2838 125.794 65.2838 122.831 Q65.2838 118.688 68.2236 116.28 Q71.1865 113.873 76.3254 113.873 Q81.4874 113.873 84.4272 116.28 Q87.367 118.688 87.367 122.831 Q87.367 125.794 85.6772 127.854 Q84.0105 129.915 81.0244 130.655 Q84.404 131.442 86.279 133.734 Q88.1772 136.026 88.1772 139.336 Q88.1772 144.359 85.0985 147.044 Q82.0429 149.729 76.3254 149.729 Q70.6078 149.729 67.5291 147.044 Q64.4736 144.359 64.4736 139.336 Q64.4736 136.026 66.3717 133.734 Q68.2699 131.442 71.6495 130.655 M69.9365 123.271 Q69.9365 125.956 71.6032 127.461 Q73.293 128.966 76.3254 128.966 Q79.3346 128.966 81.0244 127.461 Q82.7374 125.956 82.7374 123.271 Q82.7374 120.586 81.0244 119.081 Q79.3346 117.577 76.3254 117.577 Q73.293 117.577 71.6032 119.081 Q69.9365 120.586 69.9365 123.271 Z" fill="#000000" fill-rule="evenodd" fill-opacity="1" /><path clip-path="url(#clip280)" d="M 0 0 M103.247 117.577 Q99.6354 117.577 97.8068 121.142 Q96.0012 124.683 96.0012 131.813 Q96.0012 138.919 97.8068 142.484 Q99.6354 146.026 103.247 146.026 Q106.881 146.026 108.686 142.484 Q110.515 138.919 110.515 131.813 Q110.515 124.683 108.686 121.142 Q106.881 117.577 103.247 117.577 M103.247 113.873 Q109.057 113.873 112.112 118.479 Q115.191 123.063 115.191 131.813 Q115.191 140.54 112.112 145.146 Q109.057 149.729 103.247 149.729 Q97.4364 149.729 94.3577 145.146 Q91.3022 140.54 91.3022 131.813 Q91.3022 123.063 94.3577 118.479 Q97.4364 113.873 103.247 113.873 Z" fill="#000000" fill-rule="evenodd" fill-opacity="1" /><path clip-path="url(#clip282)" d="
M201.839 1394.97 L205.612 1392.88 L209.385 1390.96 L213.158 1389.2 L216.931 1387.58 L220.704 1386.08 L224.477 1384.69 L228.25 1383.38 L232.023 1382.13 L235.796 1380.92 
  L239.569 1379.72 L243.342 1378.53 L247.115 1377.33 L250.888 1376.12 L254.662 1374.9 L258.435 1373.67 L262.208 1372.44 L265.981 1371.22 L269.754 1370.01 L273.527 1368.83 
  L277.3 1367.67 L281.073 1366.55 L284.846 1365.45 L288.619 1364.37 L292.392 1363.3 L296.165 1362.22 L299.938 1361.12 L303.711 1359.96 L307.484 1358.74 L311.257 1357.43 
  L315.03 1356.03 L318.803 1354.51 L322.576 1352.89 L326.349 1351.16 L330.122 1349.35 L333.895 1347.49 L337.668 1345.59 L341.441 1343.71 L345.214 1341.89 L348.987 1340.18 
  L352.76 1338.62 L356.533 1337.26 L360.307 1336.15 L364.08 1335.3 L367.853 1334.74 L371.626 1334.5 L375.399 1334.56 L379.172 1334.92 L382.945 1335.55 L386.718 1336.42 
  L390.491 1337.5 L394.264 1338.74 L398.037 1340.09 L401.81 1341.49 L405.583 1342.9 L409.356 1344.26 L413.129 1345.54 L416.902 1346.68 L420.675 1347.65 L424.448 1348.42 
  L428.221 1348.98 L431.994 1349.3 L435.767 1349.38 L439.54 1349.2 L443.313 1348.77 L447.086 1348.09 L450.859 1347.16 L454.632 1346 L458.405 1344.61 L462.179 1343.01 
  L465.952 1341.21 L469.725 1339.22 L473.498 1337.08 L477.271 1334.79 L481.044 1332.39 L484.817 1329.9 L488.59 1327.34 L492.363 1324.75 L496.136 1322.15 L499.909 1319.59 
  L503.682 1317.09 L507.455 1314.68 L511.228 1312.4 L515.001 1310.26 L518.774 1308.29 L522.547 1306.5 L526.32 1304.9 L530.093 1303.48 L533.866 1302.24 L537.639 1301.14 
  L541.412 1300.18 L545.185 1299.3 L548.958 1298.48 L552.731 1297.67 L556.504 1296.82 L560.277 1295.9 L564.051 1294.86 L567.824 1293.67 L571.597 1292.31 L575.37 1290.77 
  L575.37 1445.72 L571.597 1445.72 L567.824 1445.72 L564.051 1445.72 L560.277 1445.72 L556.504 1445.72 L552.731 1445.72 L548.958 1445.72 L545.185 1445.72 L541.412 1445.72 
  L537.639 1445.72 L533.866 1445.72 L530.093 1445.72 L526.32 1445.72 L522.547 1445.72 L518.774 1445.72 L515.001 1445.72 L511.228 1445.72 L507.455 1445.72 L503.682 1445.72 
  L499.909 1445.72 L496.136 1445.72 L492.363 1445.72 L488.59 1445.72 L484.817 1445.72 L481.044 1445.72 L477.271 1445.72 L473.498 1445.72 L469.725 1445.72 L465.952 1445.72 
  L462.179 1445.72 L458.405 1445.72 L454.632 1445.72 L450.859 1445.72 L447.086 1445.72 L443.313 1445.72 L439.54 1445.72 L435.767 1445.72 L431.994 1445.72 L428.221 1445.72 
  L424.448 1445.72 L420.675 1445.72 L416.902 1445.72 L413.129 1445.72 L409.356 1445.72 L405.583 1445.72 L401.81 1445.72 L398.037 1445.72 L394.264 1445.72 L390.491 1445.72 
  L386.718 1445.72 L382.945 1445.72 L379.172 1445.72 L375.399 1445.72 L371.626 1445.72 L367.853 1445.72 L364.08 1445.72 L360.307 1445.72 L356.533 1445.72 L352.76 1445.72 
  L348.987 1445.72 L345.214 1445.72 L341.441 1445.72 L337.668 1445.72 L333.895 1445.72 L330.122 1445.72 L326.349 1445.72 L322.576 1445.72 L318.803 1445.72 L315.03 1445.72 
  L311.257 1445.72 L307.484 1445.72 L303.711 1445.72 L299.938 1445.72 L296.165 1445.72 L292.392 1445.72 L288.619 1445.72 L284.846 1445.72 L281.073 1445.72 L277.3 1445.72 
  L273.527 1445.72 L269.754 1445.72 L265.981 1445.72 L262.208 1445.72 L258.435 1445.72 L254.662 1445.72 L250.888 1445.72 L247.115 1445.72 L243.342 1445.72 L239.569 1445.72 
  L235.796 1445.72 L232.023 1445.72 L228.25 1445.72 L224.477 1445.72 L220.704 1445.72 L216.931 1445.72 L213.158 1445.72 L209.385 1445.72 L205.612 1445.72 L201.839 1445.72 
   Z
  " fill="#ffa500" fill-rule="evenodd" fill-opacity="0.5"/>
<polyline clip-path="url(#clip282)" style="stroke:#ffa500; stroke-width:4; stroke-opacity:1; fill:none" points="
  201.839,1394.97 205.612,1392.88 209.385,1390.96 213.158,1389.2 216.931,1387.58 220.704,1386.08 224.477,1384.69 228.25,1383.38 232.023,1382.13 235.796,1380.92 
  239.569,1379.72 243.342,1378.53 247.115,1377.33 250.888,1376.12 254.662,1374.9 258.435,1373.67 262.208,1372.44 265.981,1371.22 269.754,1370.01 273.527,1368.83 
  277.3,1367.67 281.073,1366.55 284.846,1365.45 288.619,1364.37 292.392,1363.3 296.165,1362.22 299.938,1361.12 303.711,1359.96 307.484,1358.74 311.257,1357.43 
  315.03,1356.03 318.803,1354.51 322.576,1352.89 326.349,1351.16 330.122,1349.35 333.895,1347.49 337.668,1345.59 341.441,1343.71 345.214,1341.89 348.987,1340.18 
  352.76,1338.62 356.533,1337.26 360.307,1336.15 364.08,1335.3 367.853,1334.74 371.626,1334.5 375.399,1334.56 379.172,1334.92 382.945,1335.55 386.718,1336.42 
  390.491,1337.5 394.264,1338.74 398.037,1340.09 401.81,1341.49 405.583,1342.9 409.356,1344.26 413.129,1345.54 416.902,1346.68 420.675,1347.65 424.448,1348.42 
  428.221,1348.98 431.994,1349.3 435.767,1349.38 439.54,1349.2 443.313,1348.77 447.086,1348.09 450.859,1347.16 454.632,1346 458.405,1344.61 462.179,1343.01 
  465.952,1341.21 469.725,1339.22 473.498,1337.08 477.271,1334.79 481.044,1332.39 484.817,1329.9 488.59,1327.34 492.363,1324.75 496.136,1322.15 499.909,1319.59 
  503.682,1317.09 507.455,1314.68 511.228,1312.4 515.001,1310.26 518.774,1308.29 522.547,1306.5 526.32,1304.9 530.093,1303.48 533.866,1302.24 537.639,1301.14 
  541.412,1300.18 545.185,1299.3 548.958,1298.48 552.731,1297.67 556.504,1296.82 560.277,1295.9 564.051,1294.86 567.824,1293.67 571.597,1292.31 575.37,1290.77 
  
  "/>
<path clip-path="url(#clip282)" d="
M575.37 1290.77 L590.738 1282.66 L606.106 1273.12 L621.475 1264.88 L636.843 1259.35 L652.212 1255.44 L667.58 1250.87 L682.949 1244.65 L698.317 1238.24 L713.685 1234.63 
  L729.054 1236.44 L744.422 1244.47 L759.791 1257.29 L775.159 1272.15 L790.527 1286.78 L805.896 1300.89 L821.264 1315.88 L836.633 1332.87 L852.001 1350.98 L867.369 1367.76 
  L882.738 1381 L898.106 1390.13 L913.475 1396.01 L928.843 1399.94 L944.212 1402.85 L959.58 1404.99 L974.948 1405.96 L990.317 1405.08 L1005.69 1402.23 L1021.05 1398.36 
  L1036.42 1395.19 L1051.79 1394.08 L1067.16 1394.95 L1082.53 1396.24 L1097.9 1395.87 L1113.26 1392.55 L1128.63 1386.73 L1144 1380.53 L1159.37 1376.51 L1174.74 1375.69 
  L1190.11 1376.67 L1205.47 1376.78 L1220.84 1374.01 L1236.21 1367.86 L1251.58 1358.66 L1266.95 1347.01 L1282.32 1334.27 L1297.69 1322.66 L1313.05 1313.97 L1328.42 1307.76 
  L1343.79 1301.25 L1359.16 1291.15 L1374.53 1275.67 L1389.9 1255.02 L1405.26 1230.52 L1420.63 1203.26 L1436 1173.34 L1451.37 1139.54 L1466.74 1099.88 L1482.11 1052.87 
  L1497.47 999.143 L1512.84 942.294 L1528.21 887.619 L1543.58 838.717 L1558.95 794.483 L1574.32 749.749 L1589.68 699.81 L1605.05 644.678 L1620.42 588.645 L1635.79 535.565 
  L1651.16 484.841 L1666.53 432.192 L1681.9 374.309 L1697.26 313.062 L1712.63 255.595 L1728 210.027 L1743.37 179.85 L1758.74 161.437 L1774.11 146.798 L1789.47 129.463 
  L1804.84 109.089 L1820.21 92.0167 L1835.58 87.9763 L1850.95 104.616 L1866.32 142.463 L1881.68 193.823 L1897.05 247.421 L1912.42 295.445 L1927.79 336.922 L1943.16 375.219 
  L1958.53 413.512 L1973.9 452.805 L1989.26 492.928 L2004.63 534.313 L2020 579.233 L2035.37 631.956 L2050.74 696.943 L2066.11 775.437 L2081.47 863.327 L2096.84 952.731 
  L2096.84 1445.72 L2081.47 1445.72 L2066.11 1445.72 L2050.74 1445.72 L2035.37 1445.72 L2020 1445.72 L2004.63 1445.72 L1989.26 1445.72 L1973.9 1445.72 L1958.53 1445.72 
  L1943.16 1445.72 L1927.79 1445.72 L1912.42 1445.72 L1897.05 1445.72 L1881.68 1445.72 L1866.32 1445.72 L1850.95 1445.72 L1835.58 1445.72 L1820.21 1445.72 L1804.84 1445.72 
  L1789.47 1445.72 L1774.11 1445.72 L1758.74 1445.72 L1743.37 1445.72 L1728 1445.72 L1712.63 1445.72 L1697.26 1445.72 L1681.9 1445.72 L1666.53 1445.72 L1651.16 1445.72 
  L1635.79 1445.72 L1620.42 1445.72 L1605.05 1445.72 L1589.68 1445.72 L1574.32 1445.72 L1558.95 1445.72 L1543.58 1445.72 L1528.21 1445.72 L1512.84 1445.72 L1497.47 1445.72 
  L1482.11 1445.72 L1466.74 1445.72 L1451.37 1445.72 L1436 1445.72 L1420.63 1445.72 L1405.26 1445.72 L1389.9 1445.72 L1374.53 1445.72 L1359.16 1445.72 L1343.79 1445.72 
  L1328.42 1445.72 L1313.05 1445.72 L1297.69 1445.72 L1282.32 1445.72 L1266.95 1445.72 L1251.58 1445.72 L1236.21 1445.72 L1220.84 1445.72 L1205.47 1445.72 L1190.11 1445.72 
  L1174.74 1445.72 L1159.37 1445.72 L1144 1445.72 L1128.63 1445.72 L1113.26 1445.72 L1097.9 1445.72 L1082.53 1445.72 L1067.16 1445.72 L1051.79 1445.72 L1036.42 1445.72 
  L1021.05 1445.72 L1005.69 1445.72 L990.317 1445.72 L974.948 1445.72 L959.58 1445.72 L944.212 1445.72 L928.843 1445.72 L913.475 1445.72 L898.106 1445.72 L882.738 1445.72 
  L867.369 1445.72 L852.001 1445.72 L836.633 1445.72 L821.264 1445.72 L805.896 1445.72 L790.527 1445.72 L775.159 1445.72 L759.791 1445.72 L744.422 1445.72 L729.054 1445.72 
  L713.685 1445.72 L698.317 1445.72 L682.949 1445.72 L667.58 1445.72 L652.212 1445.72 L636.843 1445.72 L621.475 1445.72 L606.106 1445.72 L590.738 1445.72 L575.37 1445.72 
   Z
  " fill="#008000" fill-rule="evenodd" fill-opacity="0.5"/>
<polyline clip-path="url(#clip282)" style="stroke:#008000; stroke-width:4; stroke-opacity:1; fill:none" points="
  575.37,1290.77 590.738,1282.66 606.106,1273.12 621.475,1264.88 636.843,1259.35 652.212,1255.44 667.58,1250.87 682.949,1244.65 698.317,1238.24 713.685,1234.63 
  729.054,1236.44 744.422,1244.47 759.791,1257.29 775.159,1272.15 790.527,1286.78 805.896,1300.89 821.264,1315.88 836.633,1332.87 852.001,1350.98 867.369,1367.76 
  882.738,1381 898.106,1390.13 913.475,1396.01 928.843,1399.94 944.212,1402.85 959.58,1404.99 974.948,1405.96 990.317,1405.08 1005.69,1402.23 1021.05,1398.36 
  1036.42,1395.19 1051.79,1394.08 1067.16,1394.95 1082.53,1396.24 1097.9,1395.87 1113.26,1392.55 1128.63,1386.73 1144,1380.53 1159.37,1376.51 1174.74,1375.69 
  1190.11,1376.67 1205.47,1376.78 1220.84,1374.01 1236.21,1367.86 1251.58,1358.66 1266.95,1347.01 1282.32,1334.27 1297.69,1322.66 1313.05,1313.97 1328.42,1307.76 
  1343.79,1301.25 1359.16,1291.15 1374.53,1275.67 1389.9,1255.02 1405.26,1230.52 1420.63,1203.26 1436,1173.34 1451.37,1139.54 1466.74,1099.88 1482.11,1052.87 
  1497.47,999.143 1512.84,942.294 1528.21,887.619 1543.58,838.717 1558.95,794.483 1574.32,749.749 1589.68,699.81 1605.05,644.678 1620.42,588.645 1635.79,535.565 
  1651.16,484.841 1666.53,432.192 1681.9,374.309 1697.26,313.062 1712.63,255.595 1728,210.027 1743.37,179.85 1758.74,161.437 1774.11,146.798 1789.47,129.463 
  1804.84,109.089 1820.21,92.0167 1835.58,87.9763 1850.95,104.616 1866.32,142.463 1881.68,193.823 1897.05,247.421 1912.42,295.445 1927.79,336.922 1943.16,375.219 
  1958.53,413.512 1973.9,452.805 1989.26,492.928 2004.63,534.313 2020,579.233 2035.37,631.956 2050.74,696.943 2066.11,775.437 2081.47,863.327 2096.84,952.731 
  
  "/>
<path clip-path="url(#clip282)" d="
M2096.84 952.731 L2098.79 963.778 L2100.75 974.709 L2102.7 985.511 L2104.65 996.174 L2106.6 1006.69 L2108.56 1017.04 L2110.51 1027.24 L2112.46 1037.26 L2114.41 1047.1 
  L2116.36 1056.76 L2118.32 1066.23 L2120.27 1075.52 L2122.22 1084.61 L2124.17 1093.52 L2126.13 1102.22 L2128.08 1110.74 L2130.03 1119.06 L2131.98 1127.19 L2133.93 1135.13 
  L2135.89 1142.88 L2137.84 1150.44 L2139.79 1157.81 L2141.74 1165 L2143.69 1172 L2145.65 1178.83 L2147.6 1185.47 L2149.55 1191.93 L2151.5 1198.22 L2153.46 1204.33 
  L2155.41 1210.27 L2157.36 1216.04 L2159.31 1221.63 L2161.26 1227.05 L2163.22 1232.3 L2165.17 1237.38 L2167.12 1242.29 L2169.07 1247.03 L2171.03 1251.59 L2172.98 1255.99 
  L2174.93 1260.21 L2176.88 1264.26 L2178.83 1268.14 L2180.79 1271.84 L2182.74 1275.37 L2184.69 1278.72 L2186.64 1281.9 L2188.59 1284.91 L2190.55 1287.74 L2192.5 1290.4 
  L2194.45 1292.89 L2196.4 1295.2 L2198.36 1297.35 L2200.31 1299.34 L2202.26 1301.16 L2204.21 1302.83 L2206.16 1304.35 L2208.12 1305.72 L2210.07 1306.94 L2212.02 1308.04 
  L2213.97 1309.01 L2215.93 1309.86 L2217.88 1310.6 L2219.83 1311.25 L2221.78 1311.8 L2223.73 1312.28 L2225.69 1312.69 L2227.64 1313.05 L2229.59 1313.37 L2231.54 1313.65 
  L2233.49 1313.92 L2235.45 1314.19 L2237.4 1314.46 L2239.35 1314.76 L2241.3 1315.09 L2243.26 1315.46 L2245.21 1315.89 L2247.16 1316.39 L2249.11 1316.97 L2251.06 1317.64 
  L2253.02 1318.41 L2254.97 1319.28 L2256.92 1320.27 L2258.87 1321.37 L2260.83 1322.6 L2262.78 1323.96 L2264.73 1325.44 L2266.68 1327.06 L2268.63 1328.82 L2270.59 1330.7 
  L2272.54 1332.72 L2274.49 1334.86 L2276.44 1337.13 L2278.39 1339.51 L2280.35 1342.01 L2282.3 1344.61 L2284.25 1347.31 L2286.2 1350.1 L2288.16 1352.97 L2290.11 1355.91 
  L2290.11 1445.72 L2288.16 1445.72 L2286.2 1445.72 L2284.25 1445.72 L2282.3 1445.72 L2280.35 1445.72 L2278.39 1445.72 L2276.44 1445.72 L2274.49 1445.72 L2272.54 1445.72 
  L2270.59 1445.72 L2268.63 1445.72 L2266.68 1445.72 L2264.73 1445.72 L2262.78 1445.72 L2260.83 1445.72 L2258.87 1445.72 L2256.92 1445.72 L2254.97 1445.72 L2253.02 1445.72 
  L2251.06 1445.72 L2249.11 1445.72 L2247.16 1445.72 L2245.21 1445.72 L2243.26 1445.72 L2241.3 1445.72 L2239.35 1445.72 L2237.4 1445.72 L2235.45 1445.72 L2233.49 1445.72 
  L2231.54 1445.72 L2229.59 1445.72 L2227.64 1445.72 L2225.69 1445.72 L2223.73 1445.72 L2221.78 1445.72 L2219.83 1445.72 L2217.88 1445.72 L2215.93 1445.72 L2213.97 1445.72 
  L2212.02 1445.72 L2210.07 1445.72 L2208.12 1445.72 L2206.16 1445.72 L2204.21 1445.72 L2202.26 1445.72 L2200.31 1445.72 L2198.36 1445.72 L2196.4 1445.72 L2194.45 1445.72 
  L2192.5 1445.72 L2190.55 1445.72 L2188.59 1445.72 L2186.64 1445.72 L2184.69 1445.72 L2182.74 1445.72 L2180.79 1445.72 L2178.83 1445.72 L2176.88 1445.72 L2174.93 1445.72 
  L2172.98 1445.72 L2171.03 1445.72 L2169.07 1445.72 L2167.12 1445.72 L2165.17 1445.72 L2163.22 1445.72 L2161.26 1445.72 L2159.31 1445.72 L2157.36 1445.72 L2155.41 1445.72 
  L2153.46 1445.72 L2151.5 1445.72 L2149.55 1445.72 L2147.6 1445.72 L2145.65 1445.72 L2143.69 1445.72 L2141.74 1445.72 L2139.79 1445.72 L2137.84 1445.72 L2135.89 1445.72 
  L2133.93 1445.72 L2131.98 1445.72 L2130.03 1445.72 L2128.08 1445.72 L2126.13 1445.72 L2124.17 1445.72 L2122.22 1445.72 L2120.27 1445.72 L2118.32 1445.72 L2116.36 1445.72 
  L2114.41 1445.72 L2112.46 1445.72 L2110.51 1445.72 L2108.56 1445.72 L2106.6 1445.72 L2104.65 1445.72 L2102.7 1445.72 L2100.75 1445.72 L2098.79 1445.72 L2096.84 1445.72 
   Z
  " fill="#ffa500" fill-rule="evenodd" fill-opacity="0.5"/>
<polyline clip-path="url(#clip282)" style="stroke:#ffa500; stroke-width:4; stroke-opacity:1; fill:none" points="
  2096.84,952.731 2098.79,963.778 2100.75,974.709 2102.7,985.511 2104.65,996.174 2106.6,1006.69 2108.56,1017.04 2110.51,1027.24 2112.46,1037.26 2114.41,1047.1 
  2116.36,1056.76 2118.32,1066.23 2120.27,1075.52 2122.22,1084.61 2124.17,1093.52 2126.13,1102.22 2128.08,1110.74 2130.03,1119.06 2131.98,1127.19 2133.93,1135.13 
  2135.89,1142.88 2137.84,1150.44 2139.79,1157.81 2141.74,1165 2143.69,1172 2145.65,1178.83 2147.6,1185.47 2149.55,1191.93 2151.5,1198.22 2153.46,1204.33 
  2155.41,1210.27 2157.36,1216.04 2159.31,1221.63 2161.26,1227.05 2163.22,1232.3 2165.17,1237.38 2167.12,1242.29 2169.07,1247.03 2171.03,1251.59 2172.98,1255.99 
  2174.93,1260.21 2176.88,1264.26 2178.83,1268.14 2180.79,1271.84 2182.74,1275.37 2184.69,1278.72 2186.64,1281.9 2188.59,1284.91 2190.55,1287.74 2192.5,1290.4 
  2194.45,1292.89 2196.4,1295.2 2198.36,1297.35 2200.31,1299.34 2202.26,1301.16 2204.21,1302.83 2206.16,1304.35 2208.12,1305.72 2210.07,1306.94 2212.02,1308.04 
  2213.97,1309.01 2215.93,1309.86 2217.88,1310.6 2219.83,1311.25 2221.78,1311.8 2223.73,1312.28 2225.69,1312.69 2227.64,1313.05 2229.59,1313.37 2231.54,1313.65 
  2233.49,1313.92 2235.45,1314.19 2237.4,1314.46 2239.35,1314.76 2241.3,1315.09 2243.26,1315.46 2245.21,1315.89 2247.16,1316.39 2249.11,1316.97 2251.06,1317.64 
  2253.02,1318.41 2254.97,1319.28 2256.92,1320.27 2258.87,1321.37 2260.83,1322.6 2262.78,1323.96 2264.73,1325.44 2266.68,1327.06 2268.63,1328.82 2270.59,1330.7 
  2272.54,1332.72 2274.49,1334.86 2276.44,1337.13 2278.39,1339.51 2280.35,1342.01 2282.3,1344.61 2284.25,1347.31 2286.2,1350.1 2288.16,1352.97 2290.11,1355.91 
  
  "/>
<polyline clip-path="url(#clip282)" style="stroke:#0000ff; stroke-width:4; stroke-opacity:1; fill:none" points="
  1641.97,1445.72 1641.97,515.07 
  "/>
<polyline clip-path="url(#clip282)" style="stroke:#000000; stroke-width:4; stroke-opacity:1; fill:none" points="
  1762.31,1445.72 1762.31,158.006 
  "/>
</svg>
