<?xml version="1.0" encoding="utf-8"?>
<svg xmlns="http://www.w3.org/2000/svg" xmlns:xlink="http://www.w3.org/1999/xlink" width="600" height="400" viewBox="0 0 2400 1600">
<defs>
  <clipPath id="clip050">
    <rect x="0" y="0" width="2400" height="1600"/>
  </clipPath>
</defs>
<path clip-path="url(#clip050)" d="
M0 1600 L2400 1600 L2400 0 L0 0  Z
  " fill="#ffffff" fill-rule="evenodd" fill-opacity="1"/>
<defs>
  <clipPath id="clip051">
    <rect x="480" y="0" width="1681" height="1600"/>
  </clipPath>
</defs>
<path clip-path="url(#clip050)" d="
M86.9921 1521.01 L2352.76 1521.01 L2352.76 47.2441 L86.9921 47.2441  Z
  " fill="#ffffff" fill-rule="evenodd" fill-opacity="1"/>
<defs>
  <clipPath id="clip052">
    <rect x="86" y="47" width="2267" height="1475"/>
  </clipPath>
</defs>
<polyline clip-path="url(#clip052)" style="stroke:#000000; stroke-width:2; stroke-opacity:0.1; fill:none" points="
  384.976,1521.01 384.976,47.2441 
  "/>
<polyline clip-path="url(#clip052)" style="stroke:#000000; stroke-width:2; stroke-opacity:0.1; fill:none" points="
  817.767,1521.01 817.767,47.2441 
  "/>
<polyline clip-path="url(#clip052)" style="stroke:#000000; stroke-width:2; stroke-opacity:0.1; fill:none" points="
  1250.56,1521.01 1250.56,47.2441 
  "/>
<polyline clip-path="url(#clip052)" style="stroke:#000000; stroke-width:2; stroke-opacity:0.1; fill:none" points="
  1683.35,1521.01 1683.35,47.2441 
  "/>
<polyline clip-path="url(#clip052)" style="stroke:#000000; stroke-width:2; stroke-opacity:0.1; fill:none" points="
  2116.14,1521.01 2116.14,47.2441 
  "/>
<polyline clip-path="url(#clip052)" style="stroke:#000000; stroke-width:2; stroke-opacity:0.1; fill:none" points="
  86.9921,1479.3 2352.76,1479.3 
  "/>
<polyline clip-path="url(#clip052)" style="stroke:#000000; stroke-width:2; stroke-opacity:0.1; fill:none" points="
  86.9921,1009.8 2352.76,1009.8 
  "/>
<polyline clip-path="url(#clip052)" style="stroke:#000000; stroke-width:2; stroke-opacity:0.1; fill:none" points="
  86.9921,540.308 2352.76,540.308 
  "/>
<polyline clip-path="url(#clip052)" style="stroke:#000000; stroke-width:2; stroke-opacity:0.1; fill:none" points="
  86.9921,70.8131 2352.76,70.8131 
  "/>
<polyline clip-path="url(#clip050)" style="stroke:#000000; stroke-width:4; stroke-opacity:1; fill:none" points="
  86.9921,1521.01 2352.76,1521.01 
  "/>
<polyline clip-path="url(#clip050)" style="stroke:#000000; stroke-width:4; stroke-opacity:1; fill:none" points="
  86.9921,1521.01 86.9921,47.2441 
  "/>
<polyline clip-path="url(#clip050)" style="stroke:#000000; stroke-width:4; stroke-opacity:1; fill:none" points="
  384.976,1521.01 384.976,1503.32 
  "/>
<polyline clip-path="url(#clip050)" style="stroke:#000000; stroke-width:4; stroke-opacity:1; fill:none" points="
  817.767,1521.01 817.767,1503.32 
  "/>
<polyline clip-path="url(#clip050)" style="stroke:#000000; stroke-width:4; stroke-opacity:1; fill:none" points="
  1250.56,1521.01 1250.56,1503.32 
  "/>
<polyline clip-path="url(#clip050)" style="stroke:#000000; stroke-width:4; stroke-opacity:1; fill:none" points="
  1683.35,1521.01 1683.35,1503.32 
  "/>
<polyline clip-path="url(#clip050)" style="stroke:#000000; stroke-width:4; stroke-opacity:1; fill:none" points="
  2116.14,1521.01 2116.14,1503.32 
  "/>
<polyline clip-path="url(#clip050)" style="stroke:#000000; stroke-width:4; stroke-opacity:1; fill:none" points="
  86.9921,1479.3 114.181,1479.3 
  "/>
<polyline clip-path="url(#clip050)" style="stroke:#000000; stroke-width:4; stroke-opacity:1; fill:none" points="
  86.9921,1009.8 114.181,1009.8 
  "/>
<polyline clip-path="url(#clip050)" style="stroke:#000000; stroke-width:4; stroke-opacity:1; fill:none" points="
  86.9921,540.308 114.181,540.308 
  "/>
<polyline clip-path="url(#clip050)" style="stroke:#000000; stroke-width:4; stroke-opacity:1; fill:none" points="
  86.9921,70.8131 114.181,70.8131 
  "/>
<path clip-path="url(#clip050)" d="M 0 0 M311.053 1557.65 L340.729 1557.65 L340.729 1561.59 L311.053 1561.59 L311.053 1557.65 Z" fill="#000000" fill-rule="evenodd" fill-opacity="1" /><path clip-path="url(#clip050)" d="M 0 0 M355.798 1543 Q352.187 1543 350.359 1546.56 Q348.553 1550.11 348.553 1557.23 Q348.553 1564.34 350.359 1567.91 Q352.187 1571.45 355.798 1571.45 Q359.433 1571.45 361.238 1567.91 Q363.067 1564.34 363.067 1557.23 Q363.067 1550.11 361.238 1546.56 Q359.433 1543 355.798 1543 M355.798 1539.29 Q361.608 1539.29 364.664 1543.9 Q367.743 1548.48 367.743 1557.23 Q367.743 1565.96 364.664 1570.57 Q361.608 1575.15 355.798 1575.15 Q349.988 1575.15 346.909 1570.57 Q343.854 1565.96 343.854 1557.23 Q343.854 1548.48 346.909 1543.9 Q349.988 1539.29 355.798 1539.29 Z" fill="#000000" fill-rule="evenodd" fill-opacity="1" /><path clip-path="url(#clip050)" d="M 0 0 M372.812 1568.6 L377.696 1568.6 L377.696 1574.48 L372.812 1574.48 L372.812 1568.6 Z" fill="#000000" fill-rule="evenodd" fill-opacity="1" /><path clip-path="url(#clip050)" d="M 0 0 M392.766 1543 Q389.155 1543 387.326 1546.56 Q385.52 1550.11 385.52 1557.23 Q385.52 1564.34 387.326 1567.91 Q389.155 1571.45 392.766 1571.45 Q396.4 1571.45 398.206 1567.91 Q400.034 1564.34 400.034 1557.23 Q400.034 1550.11 398.206 1546.56 Q396.4 1543 392.766 1543 M392.766 1539.29 Q398.576 1539.29 401.631 1543.9 Q404.71 1548.48 404.71 1557.23 Q404.71 1565.96 401.631 1570.57 Q398.576 1575.15 392.766 1575.15 Q386.956 1575.15 383.877 1570.57 Q380.821 1565.96 380.821 1557.23 Q380.821 1548.48 383.877 1543.9 Q386.956 1539.29 392.766 1539.29 Z" fill="#000000" fill-rule="evenodd" fill-opacity="1" /><path clip-path="url(#clip050)" d="M 0 0 M419.779 1543 Q416.168 1543 414.34 1546.56 Q412.534 1550.11 412.534 1557.23 Q412.534 1564.34 414.34 1567.91 Q416.168 1571.45 419.779 1571.45 Q423.414 1571.45 425.219 1567.91 Q427.048 1564.34 427.048 1557.23 Q427.048 1550.11 425.219 1546.56 Q423.414 1543 419.779 1543 M419.779 1539.29 Q425.59 1539.29 428.645 1543.9 Q431.724 1548.48 431.724 1557.23 Q431.724 1565.96 428.645 1570.57 Q425.59 1575.15 419.779 1575.15 Q413.969 1575.15 410.891 1570.57 Q407.835 1565.96 407.835 1557.23 Q407.835 1548.48 410.891 1543.9 Q413.969 1539.29 419.779 1539.29 Z" fill="#000000" fill-rule="evenodd" fill-opacity="1" /><path clip-path="url(#clip050)" d="M 0 0 M447.372 1555.34 Q444.224 1555.34 442.372 1557.49 Q440.543 1559.64 440.543 1563.39 Q440.543 1567.12 442.372 1569.29 Q444.224 1571.45 447.372 1571.45 Q450.52 1571.45 452.349 1569.29 Q454.201 1567.12 454.201 1563.39 Q454.201 1559.64 452.349 1557.49 Q450.52 1555.34 447.372 1555.34 M456.654 1540.68 L456.654 1544.94 Q454.895 1544.11 453.089 1543.67 Q451.307 1543.23 449.548 1543.23 Q444.918 1543.23 442.465 1546.36 Q440.034 1549.48 439.687 1555.8 Q441.052 1553.79 443.113 1552.72 Q445.173 1551.63 447.65 1551.63 Q452.858 1551.63 455.867 1554.8 Q458.9 1557.95 458.9 1563.39 Q458.9 1568.72 455.751 1571.93 Q452.603 1575.15 447.372 1575.15 Q441.377 1575.15 438.205 1570.57 Q435.034 1565.96 435.034 1557.23 Q435.034 1549.04 438.923 1544.18 Q442.812 1539.29 449.363 1539.29 Q451.122 1539.29 452.904 1539.64 Q454.71 1539.99 456.654 1540.68 Z" fill="#000000" fill-rule="evenodd" fill-opacity="1" /><path clip-path="url(#clip050)" d="M 0 0 M744.249 1557.65 L773.925 1557.65 L773.925 1561.59 L744.249 1561.59 L744.249 1557.65 Z" fill="#000000" fill-rule="evenodd" fill-opacity="1" /><path clip-path="url(#clip050)" d="M 0 0 M788.994 1543 Q785.383 1543 783.555 1546.56 Q781.749 1550.11 781.749 1557.23 Q781.749 1564.34 783.555 1567.91 Q785.383 1571.45 788.994 1571.45 Q792.629 1571.45 794.434 1567.91 Q796.263 1564.34 796.263 1557.23 Q796.263 1550.11 794.434 1546.56 Q792.629 1543 788.994 1543 M788.994 1539.29 Q794.804 1539.29 797.86 1543.9 Q800.939 1548.48 800.939 1557.23 Q800.939 1565.96 797.86 1570.57 Q794.804 1575.15 788.994 1575.15 Q783.184 1575.15 780.105 1570.57 Q777.05 1565.96 777.05 1557.23 Q777.05 1548.48 780.105 1543.9 Q783.184 1539.29 788.994 1539.29 Z" fill="#000000" fill-rule="evenodd" fill-opacity="1" /><path clip-path="url(#clip050)" d="M 0 0 M806.008 1568.6 L810.892 1568.6 L810.892 1574.48 L806.008 1574.48 L806.008 1568.6 Z" fill="#000000" fill-rule="evenodd" fill-opacity="1" /><path clip-path="url(#clip050)" d="M 0 0 M825.962 1543 Q822.351 1543 820.522 1546.56 Q818.716 1550.11 818.716 1557.23 Q818.716 1564.34 820.522 1567.91 Q822.351 1571.45 825.962 1571.45 Q829.596 1571.45 831.401 1567.91 Q833.23 1564.34 833.23 1557.23 Q833.23 1550.11 831.401 1546.56 Q829.596 1543 825.962 1543 M825.962 1539.29 Q831.772 1539.29 834.827 1543.9 Q837.906 1548.48 837.906 1557.23 Q837.906 1565.96 834.827 1570.57 Q831.772 1575.15 825.962 1575.15 Q820.152 1575.15 817.073 1570.57 Q814.017 1565.96 814.017 1557.23 Q814.017 1548.48 817.073 1543.9 Q820.152 1539.29 825.962 1539.29 Z" fill="#000000" fill-rule="evenodd" fill-opacity="1" /><path clip-path="url(#clip050)" d="M 0 0 M852.975 1543 Q849.364 1543 847.536 1546.56 Q845.73 1550.11 845.73 1557.23 Q845.73 1564.34 847.536 1567.91 Q849.364 1571.45 852.975 1571.45 Q856.61 1571.45 858.415 1567.91 Q860.244 1564.34 860.244 1557.23 Q860.244 1550.11 858.415 1546.56 Q856.61 1543 852.975 1543 M852.975 1539.29 Q858.786 1539.29 861.841 1543.9 Q864.92 1548.48 864.92 1557.23 Q864.92 1565.96 861.841 1570.57 Q858.786 1575.15 852.975 1575.15 Q847.165 1575.15 844.087 1570.57 Q841.031 1565.96 841.031 1557.23 Q841.031 1548.48 844.087 1543.9 Q847.165 1539.29 852.975 1539.29 Z" fill="#000000" fill-rule="evenodd" fill-opacity="1" /><path clip-path="url(#clip050)" d="M 0 0 M884.156 1555.85 Q887.512 1556.56 889.387 1558.83 Q891.285 1561.1 891.285 1564.43 Q891.285 1569.55 887.767 1572.35 Q884.248 1575.15 877.767 1575.15 Q875.591 1575.15 873.276 1574.71 Q870.985 1574.29 868.531 1573.44 L868.531 1568.92 Q870.475 1570.06 872.79 1570.64 Q875.105 1571.22 877.628 1571.22 Q882.026 1571.22 884.318 1569.48 Q886.633 1567.74 886.633 1564.43 Q886.633 1561.38 884.48 1559.67 Q882.35 1557.93 878.531 1557.93 L874.503 1557.93 L874.503 1554.09 L878.716 1554.09 Q882.165 1554.09 883.994 1552.72 Q885.822 1551.33 885.822 1548.74 Q885.822 1546.08 883.924 1544.67 Q882.049 1543.23 878.531 1543.23 Q876.61 1543.23 874.411 1543.65 Q872.211 1544.06 869.573 1544.94 L869.573 1540.78 Q872.235 1540.04 874.549 1539.67 Q876.887 1539.29 878.948 1539.29 Q884.272 1539.29 887.373 1541.73 Q890.475 1544.13 890.475 1548.25 Q890.475 1551.12 888.832 1553.11 Q887.188 1555.08 884.156 1555.85 Z" fill="#000000" fill-rule="evenodd" fill-opacity="1" /><path clip-path="url(#clip050)" d="M 0 0 M1205.06 1543 Q1201.45 1543 1199.62 1546.56 Q1197.82 1550.11 1197.82 1557.23 Q1197.82 1564.34 1199.62 1567.91 Q1201.45 1571.45 1205.06 1571.45 Q1208.69 1571.45 1210.5 1567.91 Q1212.33 1564.34 1212.33 1557.23 Q1212.33 1550.11 1210.5 1546.56 Q1208.69 1543 1205.06 1543 M1205.06 1539.29 Q1210.87 1539.29 1213.93 1543.9 Q1217.01 1548.48 1217.01 1557.23 Q1217.01 1565.96 1213.93 1570.57 Q1210.87 1575.15 1205.06 1575.15 Q1199.25 1575.15 1196.17 1570.57 Q1193.12 1565.96 1193.12 1557.23 Q1193.12 1548.48 1196.17 1543.9 Q1199.25 1539.29 1205.06 1539.29 Z" fill="#000000" fill-rule="evenodd" fill-opacity="1" /><path clip-path="url(#clip050)" d="M 0 0 M1222.07 1568.6 L1226.96 1568.6 L1226.96 1574.48 L1222.07 1574.48 L1222.07 1568.6 Z" fill="#000000" fill-rule="evenodd" fill-opacity="1" /><path clip-path="url(#clip050)" d="M 0 0 M1242.03 1543 Q1238.42 1543 1236.59 1546.56 Q1234.78 1550.11 1234.78 1557.23 Q1234.78 1564.34 1236.59 1567.91 Q1238.42 1571.45 1242.03 1571.45 Q1245.66 1571.45 1247.47 1567.91 Q1249.3 1564.34 1249.3 1557.23 Q1249.3 1550.11 1247.47 1546.56 Q1245.66 1543 1242.03 1543 M1242.03 1539.29 Q1247.84 1539.29 1250.89 1543.9 Q1253.97 1548.48 1253.97 1557.23 Q1253.97 1565.96 1250.89 1570.57 Q1247.84 1575.15 1242.03 1575.15 Q1236.22 1575.15 1233.14 1570.57 Q1230.08 1565.96 1230.08 1557.23 Q1230.08 1548.48 1233.14 1543.9 Q1236.22 1539.29 1242.03 1539.29 Z" fill="#000000" fill-rule="evenodd" fill-opacity="1" /><path clip-path="url(#clip050)" d="M 0 0 M1269.04 1543 Q1265.43 1543 1263.6 1546.56 Q1261.8 1550.11 1261.8 1557.23 Q1261.8 1564.34 1263.6 1567.91 Q1265.43 1571.45 1269.04 1571.45 Q1272.68 1571.45 1274.48 1567.91 Q1276.31 1564.34 1276.31 1557.23 Q1276.31 1550.11 1274.48 1546.56 Q1272.68 1543 1269.04 1543 M1269.04 1539.29 Q1274.85 1539.29 1277.91 1543.9 Q1280.99 1548.48 1280.99 1557.23 Q1280.99 1565.96 1277.91 1570.57 Q1274.85 1575.15 1269.04 1575.15 Q1263.23 1575.15 1260.15 1570.57 Q1257.1 1565.96 1257.1 1557.23 Q1257.1 1548.48 1260.15 1543.9 Q1263.23 1539.29 1269.04 1539.29 Z" fill="#000000" fill-rule="evenodd" fill-opacity="1" /><path clip-path="url(#clip050)" d="M 0 0 M1296.06 1543 Q1292.44 1543 1290.62 1546.56 Q1288.81 1550.11 1288.81 1557.23 Q1288.81 1564.34 1290.62 1567.91 Q1292.44 1571.45 1296.06 1571.45 Q1299.69 1571.45 1301.5 1567.91 Q1303.32 1564.34 1303.32 1557.23 Q1303.32 1550.11 1301.5 1546.56 Q1299.69 1543 1296.06 1543 M1296.06 1539.29 Q1301.87 1539.29 1304.92 1543.9 Q1308 1548.48 1308 1557.23 Q1308 1565.96 1304.92 1570.57 Q1301.87 1575.15 1296.06 1575.15 Q1290.25 1575.15 1287.17 1570.57 Q1284.11 1565.96 1284.11 1557.23 Q1284.11 1548.48 1287.17 1543.9 Q1290.25 1539.29 1296.06 1539.29 Z" fill="#000000" fill-rule="evenodd" fill-opacity="1" /><path clip-path="url(#clip050)" d="M 0 0 M1638.18 1543 Q1634.56 1543 1632.74 1546.56 Q1630.93 1550.11 1630.93 1557.23 Q1630.93 1564.34 1632.74 1567.91 Q1634.56 1571.45 1638.18 1571.45 Q1641.81 1571.45 1643.62 1567.91 Q1645.44 1564.34 1645.44 1557.23 Q1645.44 1550.11 1643.62 1546.56 Q1641.81 1543 1638.18 1543 M1638.18 1539.29 Q1643.99 1539.29 1647.04 1543.9 Q1650.12 1548.48 1650.12 1557.23 Q1650.12 1565.96 1647.04 1570.57 Q1643.99 1575.15 1638.18 1575.15 Q1632.37 1575.15 1629.29 1570.57 Q1626.23 1565.96 1626.23 1557.23 Q1626.23 1548.48 1629.29 1543.9 Q1632.37 1539.29 1638.18 1539.29 Z" fill="#000000" fill-rule="evenodd" fill-opacity="1" /><path clip-path="url(#clip050)" d="M 0 0 M1655.19 1568.6 L1660.07 1568.6 L1660.07 1574.48 L1655.19 1574.48 L1655.19 1568.6 Z" fill="#000000" fill-rule="evenodd" fill-opacity="1" /><path clip-path="url(#clip050)" d="M 0 0 M1675.14 1543 Q1671.53 1543 1669.7 1546.56 Q1667.9 1550.11 1667.9 1557.23 Q1667.9 1564.34 1669.7 1567.91 Q1671.53 1571.45 1675.14 1571.45 Q1678.78 1571.45 1680.58 1567.91 Q1682.41 1564.34 1682.41 1557.23 Q1682.41 1550.11 1680.58 1546.56 Q1678.78 1543 1675.14 1543 M1675.14 1539.29 Q1680.95 1539.29 1684.01 1543.9 Q1687.09 1548.48 1687.09 1557.23 Q1687.09 1565.96 1684.01 1570.57 Q1680.95 1575.15 1675.14 1575.15 Q1669.33 1575.15 1666.25 1570.57 Q1663.2 1565.96 1663.2 1557.23 Q1663.2 1548.48 1666.25 1543.9 Q1669.33 1539.29 1675.14 1539.29 Z" fill="#000000" fill-rule="evenodd" fill-opacity="1" /><path clip-path="url(#clip050)" d="M 0 0 M1702.16 1543 Q1698.55 1543 1696.72 1546.56 Q1694.91 1550.11 1694.91 1557.23 Q1694.91 1564.34 1696.72 1567.91 Q1698.55 1571.45 1702.16 1571.45 Q1705.79 1571.45 1707.6 1567.91 Q1709.43 1564.34 1709.43 1557.23 Q1709.43 1550.11 1707.6 1546.56 Q1705.79 1543 1702.16 1543 M1702.16 1539.29 Q1707.97 1539.29 1711.02 1543.9 Q1714.1 1548.48 1714.1 1557.23 Q1714.1 1565.96 1711.02 1570.57 Q1707.97 1575.15 1702.16 1575.15 Q1696.35 1575.15 1693.27 1570.57 Q1690.21 1565.96 1690.21 1557.23 Q1690.21 1548.48 1693.27 1543.9 Q1696.35 1539.29 1702.16 1539.29 Z" fill="#000000" fill-rule="evenodd" fill-opacity="1" /><path clip-path="url(#clip050)" d="M 0 0 M1733.34 1555.85 Q1736.69 1556.56 1738.57 1558.83 Q1740.47 1561.1 1740.47 1564.43 Q1740.47 1569.55 1736.95 1572.35 Q1733.43 1575.15 1726.95 1575.15 Q1724.77 1575.15 1722.46 1574.71 Q1720.17 1574.29 1717.71 1573.44 L1717.71 1568.92 Q1719.66 1570.06 1721.97 1570.64 Q1724.29 1571.22 1726.81 1571.22 Q1731.21 1571.22 1733.5 1569.48 Q1735.81 1567.74 1735.81 1564.43 Q1735.81 1561.38 1733.66 1559.67 Q1731.53 1557.93 1727.71 1557.93 L1723.68 1557.93 L1723.68 1554.09 L1727.9 1554.09 Q1731.35 1554.09 1733.18 1552.72 Q1735 1551.33 1735 1548.74 Q1735 1546.08 1733.11 1544.67 Q1731.23 1543.23 1727.71 1543.23 Q1725.79 1543.23 1723.59 1543.65 Q1721.39 1544.06 1718.75 1544.94 L1718.75 1540.78 Q1721.42 1540.04 1723.73 1539.67 Q1726.07 1539.29 1728.13 1539.29 Q1733.45 1539.29 1736.55 1541.73 Q1739.66 1544.13 1739.66 1548.25 Q1739.66 1551.12 1738.01 1553.11 Q1736.37 1555.08 1733.34 1555.85 Z" fill="#000000" fill-rule="evenodd" fill-opacity="1" /><path clip-path="url(#clip050)" d="M 0 0 M2070.56 1543 Q2066.95 1543 2065.12 1546.56 Q2063.32 1550.11 2063.32 1557.23 Q2063.32 1564.34 2065.12 1567.91 Q2066.95 1571.45 2070.56 1571.45 Q2074.2 1571.45 2076 1567.91 Q2077.83 1564.34 2077.83 1557.23 Q2077.83 1550.11 2076 1546.56 Q2074.2 1543 2070.56 1543 M2070.56 1539.29 Q2076.37 1539.29 2079.43 1543.9 Q2082.51 1548.48 2082.51 1557.23 Q2082.51 1565.96 2079.43 1570.57 Q2076.37 1575.15 2070.56 1575.15 Q2064.75 1575.15 2061.67 1570.57 Q2058.62 1565.96 2058.62 1557.23 Q2058.62 1548.48 2061.67 1543.9 Q2064.75 1539.29 2070.56 1539.29 Z" fill="#000000" fill-rule="evenodd" fill-opacity="1" /><path clip-path="url(#clip050)" d="M 0 0 M2087.58 1568.6 L2092.46 1568.6 L2092.46 1574.48 L2087.58 1574.48 L2087.58 1568.6 Z" fill="#000000" fill-rule="evenodd" fill-opacity="1" /><path clip-path="url(#clip050)" d="M 0 0 M2107.53 1543 Q2103.92 1543 2102.09 1546.56 Q2100.28 1550.11 2100.28 1557.23 Q2100.28 1564.34 2102.09 1567.91 Q2103.92 1571.45 2107.53 1571.45 Q2111.16 1571.45 2112.97 1567.91 Q2114.8 1564.34 2114.8 1557.23 Q2114.8 1550.11 2112.97 1546.56 Q2111.16 1543 2107.53 1543 M2107.53 1539.29 Q2113.34 1539.29 2116.39 1543.9 Q2119.47 1548.48 2119.47 1557.23 Q2119.47 1565.96 2116.39 1570.57 Q2113.34 1575.15 2107.53 1575.15 Q2101.72 1575.15 2098.64 1570.57 Q2095.58 1565.96 2095.58 1557.23 Q2095.58 1548.48 2098.64 1543.9 Q2101.72 1539.29 2107.53 1539.29 Z" fill="#000000" fill-rule="evenodd" fill-opacity="1" /><path clip-path="url(#clip050)" d="M 0 0 M2134.54 1543 Q2130.93 1543 2129.1 1546.56 Q2127.3 1550.11 2127.3 1557.23 Q2127.3 1564.34 2129.1 1567.91 Q2130.93 1571.45 2134.54 1571.45 Q2138.18 1571.45 2139.98 1567.91 Q2141.81 1564.34 2141.81 1557.23 Q2141.81 1550.11 2139.98 1546.56 Q2138.18 1543 2134.54 1543 M2134.54 1539.29 Q2140.35 1539.29 2143.41 1543.9 Q2146.49 1548.48 2146.49 1557.23 Q2146.49 1565.96 2143.41 1570.57 Q2140.35 1575.15 2134.54 1575.15 Q2128.73 1575.15 2125.65 1570.57 Q2122.6 1565.96 2122.6 1557.23 Q2122.6 1548.48 2125.65 1543.9 Q2128.73 1539.29 2134.54 1539.29 Z" fill="#000000" fill-rule="evenodd" fill-opacity="1" /><path clip-path="url(#clip050)" d="M 0 0 M2162.14 1555.34 Q2158.99 1555.34 2157.14 1557.49 Q2155.31 1559.64 2155.31 1563.39 Q2155.31 1567.12 2157.14 1569.29 Q2158.99 1571.45 2162.14 1571.45 Q2165.28 1571.45 2167.11 1569.29 Q2168.96 1567.12 2168.96 1563.39 Q2168.96 1559.64 2167.11 1557.49 Q2165.28 1555.34 2162.14 1555.34 M2171.42 1540.68 L2171.42 1544.94 Q2169.66 1544.11 2167.85 1543.67 Q2166.07 1543.23 2164.31 1543.23 Q2159.68 1543.23 2157.23 1546.36 Q2154.8 1549.48 2154.45 1555.8 Q2155.82 1553.79 2157.88 1552.72 Q2159.94 1551.63 2162.41 1551.63 Q2167.62 1551.63 2170.63 1554.8 Q2173.66 1557.95 2173.66 1563.39 Q2173.66 1568.72 2170.51 1571.93 Q2167.37 1575.15 2162.14 1575.15 Q2156.14 1575.15 2152.97 1570.57 Q2149.8 1565.96 2149.8 1557.23 Q2149.8 1549.04 2153.69 1544.18 Q2157.57 1539.29 2164.13 1539.29 Q2165.89 1539.29 2167.67 1539.64 Q2169.47 1539.99 2171.42 1540.68 Z" fill="#000000" fill-rule="evenodd" fill-opacity="1" /><path clip-path="url(#clip050)" d="M 0 0 M51.0477 1465.1 Q47.4367 1465.1 45.608 1468.66 Q43.8024 1472.2 43.8024 1479.33 Q43.8024 1486.44 45.608 1490 Q47.4367 1493.55 51.0477 1493.55 Q54.682 1493.55 56.4875 1490 Q58.3162 1486.44 58.3162 1479.33 Q58.3162 1472.2 56.4875 1468.66 Q54.682 1465.1 51.0477 1465.1 M51.0477 1461.39 Q56.8579 1461.39 59.9134 1466 Q62.9921 1470.58 62.9921 1479.33 Q62.9921 1488.06 59.9134 1492.67 Q56.8579 1497.25 51.0477 1497.25 Q45.2376 1497.25 42.1589 1492.67 Q39.1034 1488.06 39.1034 1479.33 Q39.1034 1470.58 42.1589 1466 Q45.2376 1461.39 51.0477 1461.39 Z" fill="#000000" fill-rule="evenodd" fill-opacity="1" /><path clip-path="url(#clip050)" d="M 0 0 M15.0757 992.523 L33.4321 992.523 L33.4321 996.458 L19.3581 996.458 L19.3581 1004.93 Q20.3766 1004.58 21.3951 1004.42 Q22.4136 1004.24 23.4322 1004.24 Q29.2192 1004.24 32.5988 1007.41 Q35.9784 1010.58 35.9784 1015.99 Q35.9784 1021.57 32.5062 1024.68 Q29.034 1027.75 22.7146 1027.75 Q20.5386 1027.75 18.2701 1027.38 Q16.0248 1027.01 13.6174 1026.27 L13.6174 1021.57 Q15.7007 1022.71 17.9229 1023.26 Q20.1451 1023.82 22.622 1023.82 Q26.6266 1023.82 28.9645 1021.71 Q31.3025 1019.61 31.3025 1015.99 Q31.3025 1012.38 28.9645 1010.28 Q26.6266 1008.17 22.622 1008.17 Q20.747 1008.17 18.872 1008.59 Q17.0202 1009 15.0757 1009.88 L15.0757 992.523 Z" fill="#000000" fill-rule="evenodd" fill-opacity="1" /><path clip-path="url(#clip050)" d="M 0 0 M51.0477 995.601 Q47.4367 995.601 45.608 999.166 Q43.8024 1002.71 43.8024 1009.84 Q43.8024 1016.94 45.608 1020.51 Q47.4367 1024.05 51.0477 1024.05 Q54.682 1024.05 56.4875 1020.51 Q58.3162 1016.94 58.3162 1009.84 Q58.3162 1002.71 56.4875 999.166 Q54.682 995.601 51.0477 995.601 M51.0477 991.898 Q56.8579 991.898 59.9134 996.504 Q62.9921 1001.09 62.9921 1009.84 Q62.9921 1018.56 59.9134 1023.17 Q56.8579 1027.75 51.0477 1027.75 Q45.2376 1027.75 42.1589 1023.17 Q39.1034 1018.56 39.1034 1009.84 Q39.1034 1001.09 42.1589 996.504 Q45.2376 991.898 51.0477 991.898 Z" fill="#000000" fill-rule="evenodd" fill-opacity="1" /><path clip-path="url(#clip050)" d="M 0 0 M-10.9427 553.653 L-3.30382 553.653 L-3.30382 527.287 L-11.614 528.954 L-11.614 524.695 L-3.35011 523.028 L1.32579 523.028 L1.32579 553.653 L8.96464 553.653 L8.96464 557.588 L-10.9427 557.588 L-10.9427 553.653 Z" fill="#000000" fill-rule="evenodd" fill-opacity="1" /><path clip-path="url(#clip050)" d="M 0 0 M24.034 526.107 Q20.4229 526.107 18.5942 529.671 Q16.7887 533.213 16.7887 540.343 Q16.7887 547.449 18.5942 551.014 Q20.4229 554.556 24.034 554.556 Q27.6682 554.556 29.4738 551.014 Q31.3025 547.449 31.3025 540.343 Q31.3025 533.213 29.4738 529.671 Q27.6682 526.107 24.034 526.107 M24.034 522.403 Q29.8442 522.403 32.8997 527.009 Q35.9784 531.593 35.9784 540.343 Q35.9784 549.069 32.8997 553.676 Q29.8442 558.259 24.034 558.259 Q18.2238 558.259 15.1452 553.676 Q12.0896 549.069 12.0896 540.343 Q12.0896 531.593 15.1452 527.009 Q18.2238 522.403 24.034 522.403 Z" fill="#000000" fill-rule="evenodd" fill-opacity="1" /><path clip-path="url(#clip050)" d="M 0 0 M51.0477 526.107 Q47.4367 526.107 45.608 529.671 Q43.8024 533.213 43.8024 540.343 Q43.8024 547.449 45.608 551.014 Q47.4367 554.556 51.0477 554.556 Q54.682 554.556 56.4875 551.014 Q58.3162 547.449 58.3162 540.343 Q58.3162 533.213 56.4875 529.671 Q54.682 526.107 51.0477 526.107 M51.0477 522.403 Q56.8579 522.403 59.9134 527.009 Q62.9921 531.593 62.9921 540.343 Q62.9921 549.069 59.9134 553.676 Q56.8579 558.259 51.0477 558.259 Q45.2376 558.259 42.1589 553.676 Q39.1034 549.069 39.1034 540.343 Q39.1034 531.593 42.1589 527.009 Q45.2376 522.403 51.0477 522.403 Z" fill="#000000" fill-rule="evenodd" fill-opacity="1" /><path clip-path="url(#clip050)" d="M 0 0 M-9.9473 84.1579 L-2.30845 84.1579 L-2.30845 57.7923 L-10.6186 59.459 L-10.6186 55.1997 L-2.35475 53.5331 L2.32115 53.5331 L2.32115 84.1579 L9.96 84.1579 L9.96 88.0931 L-9.9473 88.0931 L-9.9473 84.1579 Z" fill="#000000" fill-rule="evenodd" fill-opacity="1" /><path clip-path="url(#clip050)" d="M 0 0 M15.0757 53.5331 L33.4321 53.5331 L33.4321 57.4682 L19.3581 57.4682 L19.3581 65.9404 Q20.3766 65.5932 21.3951 65.4312 Q22.4136 65.246 23.4322 65.246 Q29.2192 65.246 32.5988 68.4173 Q35.9784 71.5885 35.9784 77.0052 Q35.9784 82.5839 32.5062 85.6857 Q29.034 88.7644 22.7146 88.7644 Q20.5386 88.7644 18.2701 88.394 Q16.0248 88.0236 13.6174 87.2829 L13.6174 82.5839 Q15.7007 83.7181 17.9229 84.2737 Q20.1451 84.8292 22.622 84.8292 Q26.6266 84.8292 28.9645 82.7227 Q31.3025 80.6163 31.3025 77.0052 Q31.3025 73.3941 28.9645 71.2876 Q26.6266 69.1811 22.622 69.1811 Q20.747 69.1811 18.872 69.5978 Q17.0202 70.0145 15.0757 70.8941 L15.0757 53.5331 Z" fill="#000000" fill-rule="evenodd" fill-opacity="1" /><path clip-path="url(#clip050)" d="M 0 0 M51.0477 56.6118 Q47.4367 56.6118 45.608 60.1766 Q43.8024 63.7182 43.8024 70.8478 Q43.8024 77.9542 45.608 81.519 Q47.4367 85.0607 51.0477 85.0607 Q54.682 85.0607 56.4875 81.519 Q58.3162 77.9542 58.3162 70.8478 Q58.3162 63.7182 56.4875 60.1766 Q54.682 56.6118 51.0477 56.6118 M51.0477 52.9081 Q56.8579 52.9081 59.9134 57.5145 Q62.9921 62.0979 62.9921 70.8478 Q62.9921 79.5746 59.9134 84.1811 Q56.8579 88.7644 51.0477 88.7644 Q45.2376 88.7644 42.1589 84.1811 Q39.1034 79.5746 39.1034 70.8478 Q39.1034 62.0979 42.1589 57.5145 Q45.2376 52.9081 51.0477 52.9081 Z" fill="#000000" fill-rule="evenodd" fill-opacity="1" /><path clip-path="url(#clip052)" d="
M151.118 1442.76 L154.412 1440.86 L157.706 1438.95 L161.001 1437.02 L164.295 1435.08 L167.59 1433.13 L170.884 1431.18 L174.179 1429.21 L177.473 1427.23 L180.768 1425.25 
  L184.062 1423.26 L187.356 1421.25 L190.651 1419.23 L193.945 1417.19 L197.24 1415.12 L200.534 1413.02 L203.829 1410.89 L207.123 1408.71 L210.418 1406.49 L213.712 1404.2 
  L217.006 1401.86 L220.301 1399.44 L223.595 1396.94 L226.89 1394.36 L230.184 1391.68 L233.479 1388.9 L236.773 1386.02 L240.068 1383.02 L243.362 1379.91 L246.656 1376.68 
  L249.951 1373.33 L253.245 1369.85 L256.54 1366.25 L259.834 1362.51 L263.129 1358.65 L266.423 1354.65 L269.718 1350.53 L273.012 1346.28 L276.307 1341.91 L279.601 1337.42 
  L282.895 1332.81 L286.19 1328.09 L289.484 1323.26 L292.779 1318.32 L296.073 1313.28 L299.368 1308.15 L302.662 1302.92 L305.957 1297.61 L309.251 1292.22 L312.545 1286.75 
  L315.84 1281.22 L319.134 1275.62 L322.429 1269.97 L325.723 1264.27 L329.018 1258.53 L332.312 1252.75 L335.607 1246.95 L338.901 1241.13 L342.195 1235.3 L345.49 1229.46 
  L348.784 1223.63 L352.079 1217.82 L355.373 1212.03 L358.668 1206.27 L361.962 1200.54 L365.257 1194.86 L368.551 1189.24 L371.845 1183.67 L375.14 1178.17 L378.434 1172.73 
  L381.729 1167.37 L385.023 1162.08 L388.318 1156.86 L391.612 1151.72 L394.907 1146.65 L398.201 1141.65 L401.495 1136.72 L404.79 1131.85 L408.084 1127.03 L411.379 1122.25 
  L414.673 1117.52 L417.968 1112.81 L421.262 1108.12 L424.557 1103.44 L427.851 1098.76 L431.146 1094.06 L434.44 1089.35 L437.734 1084.6 L441.029 1079.81 L444.323 1074.98 
  L447.618 1070.09 L450.912 1065.15 L454.207 1060.15 L457.501 1055.08 L460.796 1049.95 L464.09 1044.76 L467.384 1039.51 L470.679 1034.21 L473.973 1028.85 L477.268 1023.45 
  L477.268 1479.3 L473.973 1479.3 L470.679 1479.3 L467.384 1479.3 L464.09 1479.3 L460.796 1479.3 L457.501 1479.3 L454.207 1479.3 L450.912 1479.3 L447.618 1479.3 
  L444.323 1479.3 L441.029 1479.3 L437.734 1479.3 L434.44 1479.3 L431.146 1479.3 L427.851 1479.3 L424.557 1479.3 L421.262 1479.3 L417.968 1479.3 L414.673 1479.3 
  L411.379 1479.3 L408.084 1479.3 L404.79 1479.3 L401.495 1479.3 L398.201 1479.3 L394.907 1479.3 L391.612 1479.3 L388.318 1479.3 L385.023 1479.3 L381.729 1479.3 
  L378.434 1479.3 L375.14 1479.3 L371.845 1479.3 L368.551 1479.3 L365.257 1479.3 L361.962 1479.3 L358.668 1479.3 L355.373 1479.3 L352.079 1479.3 L348.784 1479.3 
  L345.49 1479.3 L342.195 1479.3 L338.901 1479.3 L335.607 1479.3 L332.312 1479.3 L329.018 1479.3 L325.723 1479.3 L322.429 1479.3 L319.134 1479.3 L315.84 1479.3 
  L312.545 1479.3 L309.251 1479.3 L305.957 1479.3 L302.662 1479.3 L299.368 1479.3 L296.073 1479.3 L292.779 1479.3 L289.484 1479.3 L286.19 1479.3 L282.895 1479.3 
  L279.601 1479.3 L276.307 1479.3 L273.012 1479.3 L269.718 1479.3 L266.423 1479.3 L263.129 1479.3 L259.834 1479.3 L256.54 1479.3 L253.245 1479.3 L249.951 1479.3 
  L246.656 1479.3 L243.362 1479.3 L240.068 1479.3 L236.773 1479.3 L233.479 1479.3 L230.184 1479.3 L226.89 1479.3 L223.595 1479.3 L220.301 1479.3 L217.006 1479.3 
  L213.712 1479.3 L210.418 1479.3 L207.123 1479.3 L203.829 1479.3 L200.534 1479.3 L197.24 1479.3 L193.945 1479.3 L190.651 1479.3 L187.356 1479.3 L184.062 1479.3 
  L180.768 1479.3 L177.473 1479.3 L174.179 1479.3 L170.884 1479.3 L167.59 1479.3 L164.295 1479.3 L161.001 1479.3 L157.706 1479.3 L154.412 1479.3 L151.118 1479.3 
   Z
  " fill="#ffa500" fill-rule="evenodd" fill-opacity="0.5"/>
<polyline clip-path="url(#clip052)" style="stroke:#ffa500; stroke-width:4; stroke-opacity:1; fill:none" points="
  151.118,1442.76 154.412,1440.86 157.706,1438.95 161.001,1437.02 164.295,1435.08 167.59,1433.13 170.884,1431.18 174.179,1429.21 177.473,1427.23 180.768,1425.25 
  184.062,1423.26 187.356,1421.25 190.651,1419.23 193.945,1417.19 197.24,1415.12 200.534,1413.02 203.829,1410.89 207.123,1408.71 210.418,1406.49 213.712,1404.2 
  217.006,1401.86 220.301,1399.44 223.595,1396.94 226.89,1394.36 230.184,1391.68 233.479,1388.9 236.773,1386.02 240.068,1383.02 243.362,1379.91 246.656,1376.68 
  249.951,1373.33 253.245,1369.85 256.54,1366.25 259.834,1362.51 263.129,1358.65 266.423,1354.65 269.718,1350.53 273.012,1346.28 276.307,1341.91 279.601,1337.42 
  282.895,1332.81 286.19,1328.09 289.484,1323.26 292.779,1318.32 296.073,1313.28 299.368,1308.15 302.662,1302.92 305.957,1297.61 309.251,1292.22 312.545,1286.75 
  315.84,1281.22 319.134,1275.62 322.429,1269.97 325.723,1264.27 329.018,1258.53 332.312,1252.75 335.607,1246.95 338.901,1241.13 342.195,1235.3 345.49,1229.46 
  348.784,1223.63 352.079,1217.82 355.373,1212.03 358.668,1206.27 361.962,1200.54 365.257,1194.86 368.551,1189.24 371.845,1183.67 375.14,1178.17 378.434,1172.73 
  381.729,1167.37 385.023,1162.08 388.318,1156.86 391.612,1151.72 394.907,1146.65 398.201,1141.65 401.495,1136.72 404.79,1131.85 408.084,1127.03 411.379,1122.25 
  414.673,1117.52 417.968,1112.81 421.262,1108.12 424.557,1103.44 427.851,1098.76 431.146,1094.06 434.44,1089.35 437.734,1084.6 441.029,1079.81 444.323,1074.98 
  447.618,1070.09 450.912,1065.15 454.207,1060.15 457.501,1055.08 460.796,1049.95 464.09,1044.76 467.384,1039.51 470.679,1034.21 473.973,1028.85 477.268,1023.45 
  
  "/>
<path clip-path="url(#clip052)" d="
M477.268 1023.45 L490.719 1001.13 L504.17 978.732 L517.622 956.666 L531.073 934.94 L544.524 913.123 L557.976 890.463 L571.427 866.198 L584.878 839.887 L598.33 811.658 
  L611.781 782.26 L625.232 752.911 L638.684 725.014 L652.135 699.842 L665.587 678.286 L679.038 660.753 L692.489 647.193 L705.941 637.228 L719.392 630.313 L732.843 625.873 
  L746.295 623.369 L759.746 622.296 L773.197 622.14 L786.649 622.297 L800.1 622.018 L813.551 620.382 L827.003 616.325 L840.454 608.733 L853.905 596.579 L867.357 579.056 
  L880.808 555.668 L894.259 526.259 L907.711 490.982 L921.162 450.292 L934.613 404.994 L948.065 356.352 L961.516 306.175 L974.967 256.777 L988.419 210.737 L1001.87 170.486 
  L1015.32 137.864 L1028.77 113.808 L1042.22 98.2756 L1055.68 90.4307 L1069.13 88.9544 L1082.58 92.359 L1096.03 99.1909 L1109.48 108.103 L1122.93 117.851 L1136.38 127.279 
  L1149.83 135.344 L1163.29 141.185 L1176.74 144.204 L1190.19 144.138 L1203.64 141.107 L1217.09 135.626 L1230.54 128.574 L1243.99 121.095 L1257.45 114.448 L1270.9 109.828 
  L1284.35 108.248 L1297.8 110.561 L1311.25 117.61 L1324.7 130.454 L1338.15 150.481 L1351.6 179.285 L1365.06 218.25 L1378.51 267.957 L1391.96 327.674 L1405.41 395.161 
  L1418.86 466.94 L1432.31 538.945 L1445.76 607.339 L1459.22 669.209 L1472.67 722.932 L1486.12 768.158 L1499.57 805.507 L1513.02 836.14 L1526.47 861.368 L1539.92 882.399 
  L1553.37 900.219 L1566.83 915.597 L1580.28 929.123 L1593.73 941.252 L1607.18 952.313 L1620.63 962.489 L1634.08 971.796 L1647.53 980.095 L1660.99 987.163 L1674.44 992.819 
  L1687.89 997.067 L1701.34 1000.19 L1714.79 1002.78 L1728.24 1005.59 L1741.69 1009.46 L1755.14 1015.09 L1768.6 1023.04 L1782.05 1033.69 L1795.5 1047.29 L1808.95 1064.05 
  L1808.95 1479.3 L1795.5 1479.3 L1782.05 1479.3 L1768.6 1479.3 L1755.14 1479.3 L1741.69 1479.3 L1728.24 1479.3 L1714.79 1479.3 L1701.34 1479.3 L1687.89 1479.3 
  L1674.44 1479.3 L1660.99 1479.3 L1647.53 1479.3 L1634.08 1479.3 L1620.63 1479.3 L1607.18 1479.3 L1593.73 1479.3 L1580.28 1479.3 L1566.83 1479.3 L1553.37 1479.3 
  L1539.92 1479.3 L1526.47 1479.3 L1513.02 1479.3 L1499.57 1479.3 L1486.12 1479.3 L1472.67 1479.3 L1459.22 1479.3 L1445.76 1479.3 L1432.31 1479.3 L1418.86 1479.3 
  L1405.41 1479.3 L1391.96 1479.3 L1378.51 1479.3 L1365.06 1479.3 L1351.6 1479.3 L1338.15 1479.3 L1324.7 1479.3 L1311.25 1479.3 L1297.8 1479.3 L1284.35 1479.3 
  L1270.9 1479.3 L1257.45 1479.3 L1243.99 1479.3 L1230.54 1479.3 L1217.09 1479.3 L1203.64 1479.3 L1190.19 1479.3 L1176.74 1479.3 L1163.29 1479.3 L1149.83 1479.3 
  L1136.38 1479.3 L1122.93 1479.3 L1109.48 1479.3 L1096.03 1479.3 L1082.58 1479.3 L1069.13 1479.3 L1055.68 1479.3 L1042.22 1479.3 L1028.77 1479.3 L1015.32 1479.3 
  L1001.87 1479.3 L988.419 1479.3 L974.967 1479.3 L961.516 1479.3 L948.065 1479.3 L934.613 1479.3 L921.162 1479.3 L907.711 1479.3 L894.259 1479.3 L880.808 1479.3 
  L867.357 1479.3 L853.905 1479.3 L840.454 1479.3 L827.003 1479.3 L813.551 1479.3 L800.1 1479.3 L786.649 1479.3 L773.197 1479.3 L759.746 1479.3 L746.295 1479.3 
  L732.843 1479.3 L719.392 1479.3 L705.941 1479.3 L692.489 1479.3 L679.038 1479.3 L665.587 1479.3 L652.135 1479.3 L638.684 1479.3 L625.232 1479.3 L611.781 1479.3 
  L598.33 1479.3 L584.878 1479.3 L571.427 1479.3 L557.976 1479.3 L544.524 1479.3 L531.073 1479.3 L517.622 1479.3 L504.17 1479.3 L490.719 1479.3 L477.268 1479.3 
   Z
  " fill="#008000" fill-rule="evenodd" fill-opacity="0.5"/>
<polyline clip-path="url(#clip052)" style="stroke:#008000; stroke-width:4; stroke-opacity:1; fill:none" points="
  477.268,1023.45 490.719,1001.13 504.17,978.732 517.622,956.666 531.073,934.94 544.524,913.123 557.976,890.463 571.427,866.198 584.878,839.887 598.33,811.658 
  611.781,782.26 625.232,752.911 638.684,725.014 652.135,699.842 665.587,678.286 679.038,660.753 692.489,647.193 705.941,637.228 719.392,630.313 732.843,625.873 
  746.295,623.369 759.746,622.296 773.197,622.14 786.649,622.297 800.1,622.018 813.551,620.382 827.003,616.325 840.454,608.733 853.905,596.579 867.357,579.056 
  880.808,555.668 894.259,526.259 907.711,490.982 921.162,450.292 934.613,404.994 948.065,356.352 961.516,306.175 974.967,256.777 988.419,210.737 1001.87,170.486 
  1015.32,137.864 1028.77,113.808 1042.22,98.2756 1055.68,90.4307 1069.13,88.9544 1082.58,92.359 1096.03,99.1909 1109.48,108.103 1122.93,117.851 1136.38,127.279 
  1149.83,135.344 1163.29,141.185 1176.74,144.204 1190.19,144.138 1203.64,141.107 1217.09,135.626 1230.54,128.574 1243.99,121.095 1257.45,114.448 1270.9,109.828 
  1284.35,108.248 1297.8,110.561 1311.25,117.61 1324.7,130.454 1338.15,150.481 1351.6,179.285 1365.06,218.25 1378.51,267.957 1391.96,327.674 1405.41,395.161 
  1418.86,466.94 1432.31,538.945 1445.76,607.339 1459.22,669.209 1472.67,722.932 1486.12,768.158 1499.57,805.507 1513.02,836.14 1526.47,861.368 1539.92,882.399 
  1553.37,900.219 1566.83,915.597 1580.28,929.123 1593.73,941.252 1607.18,952.313 1620.63,962.489 1634.08,971.796 1647.53,980.095 1660.99,987.163 1674.44,992.819 
  1687.89,997.067 1701.34,1000.19 1714.79,1002.78 1728.24,1005.59 1741.69,1009.46 1755.14,1015.09 1768.6,1023.04 1782.05,1033.69 1795.5,1047.29 1808.95,1064.05 
  
  "/>
<path clip-path="url(#clip052)" d="
M1808.95 1064.05 L1813.8 1070.89 L1818.64 1078.16 L1823.49 1085.85 L1828.33 1093.95 L1833.18 1102.46 L1838.02 1111.35 L1842.87 1120.59 L1847.71 1130.16 L1852.56 1140.02 
  L1857.4 1150.12 L1862.25 1160.42 L1867.09 1170.86 L1871.94 1181.39 L1876.78 1191.94 L1881.63 1202.47 L1886.47 1212.91 L1891.32 1223.22 L1896.16 1233.33 L1901.01 1243.21 
  L1905.86 1252.82 L1910.7 1262.12 L1915.55 1271.09 L1920.39 1279.71 L1925.24 1287.96 L1930.08 1295.84 L1934.93 1303.33 L1939.77 1310.45 L1944.62 1317.2 L1949.46 1323.59 
  L1954.31 1329.62 L1959.15 1335.31 L1964 1340.67 L1968.84 1345.71 L1973.69 1350.44 L1978.53 1354.88 L1983.38 1359.04 L1988.22 1362.93 L1993.07 1366.56 L1997.92 1369.94 
  L2002.76 1373.08 L2007.61 1376 L2012.45 1378.7 L2017.3 1381.21 L2022.14 1383.54 L2026.99 1385.71 L2031.83 1387.72 L2036.68 1389.6 L2041.52 1391.37 L2046.37 1393.03 
  L2051.21 1394.61 L2056.06 1396.12 L2060.9 1397.57 L2065.75 1398.97 L2070.59 1400.32 L2075.44 1401.63 L2080.28 1402.91 L2085.13 1404.14 L2089.98 1405.34 L2094.82 1406.48 
  L2099.67 1407.57 L2104.51 1408.6 L2109.36 1409.55 L2114.2 1410.43 L2119.05 1411.21 L2123.89 1411.9 L2128.74 1412.48 L2133.58 1412.96 L2138.43 1413.33 L2143.27 1413.59 
  L2148.12 1413.75 L2152.96 1413.81 L2157.81 1413.79 L2162.65 1413.69 L2167.5 1413.53 L2172.34 1413.32 L2177.19 1413.1 L2182.03 1412.86 L2186.88 1412.65 L2191.73 1412.47 
  L2196.57 1412.36 L2201.42 1412.33 L2206.26 1412.41 L2211.11 1412.62 L2215.95 1412.97 L2220.8 1413.49 L2225.64 1414.19 L2230.49 1415.08 L2235.33 1416.17 L2240.18 1417.46 
  L2245.02 1418.96 L2249.87 1420.66 L2254.71 1422.55 L2259.56 1424.62 L2264.4 1426.86 L2269.25 1429.26 L2274.09 1431.78 L2278.94 1434.4 L2283.79 1437.1 L2288.63 1439.85 
  L2288.63 1479.3 L2283.79 1479.3 L2278.94 1479.3 L2274.09 1479.3 L2269.25 1479.3 L2264.4 1479.3 L2259.56 1479.3 L2254.71 1479.3 L2249.87 1479.3 L2245.02 1479.3 
  L2240.18 1479.3 L2235.33 1479.3 L2230.49 1479.3 L2225.64 1479.3 L2220.8 1479.3 L2215.95 1479.3 L2211.11 1479.3 L2206.26 1479.3 L2201.42 1479.3 L2196.57 1479.3 
  L2191.73 1479.3 L2186.88 1479.3 L2182.03 1479.3 L2177.19 1479.3 L2172.34 1479.3 L2167.5 1479.3 L2162.65 1479.3 L2157.81 1479.3 L2152.96 1479.3 L2148.12 1479.3 
  L2143.27 1479.3 L2138.43 1479.3 L2133.58 1479.3 L2128.74 1479.3 L2123.89 1479.3 L2119.05 1479.3 L2114.2 1479.3 L2109.36 1479.3 L2104.51 1479.3 L2099.67 1479.3 
  L2094.82 1479.3 L2089.98 1479.3 L2085.13 1479.3 L2080.28 1479.3 L2075.44 1479.3 L2070.59 1479.3 L2065.75 1479.3 L2060.9 1479.3 L2056.06 1479.3 L2051.21 1479.3 
  L2046.37 1479.3 L2041.52 1479.3 L2036.68 1479.3 L2031.83 1479.3 L2026.99 1479.3 L2022.14 1479.3 L2017.3 1479.3 L2012.45 1479.3 L2007.61 1479.3 L2002.76 1479.3 
  L1997.92 1479.3 L1993.07 1479.3 L1988.22 1479.3 L1983.38 1479.3 L1978.53 1479.3 L1973.69 1479.3 L1968.84 1479.3 L1964 1479.3 L1959.15 1479.3 L1954.31 1479.3 
  L1949.46 1479.3 L1944.62 1479.3 L1939.77 1479.3 L1934.93 1479.3 L1930.08 1479.3 L1925.24 1479.3 L1920.39 1479.3 L1915.55 1479.3 L1910.7 1479.3 L1905.86 1479.3 
  L1901.01 1479.3 L1896.16 1479.3 L1891.32 1479.3 L1886.47 1479.3 L1881.63 1479.3 L1876.78 1479.3 L1871.94 1479.3 L1867.09 1479.3 L1862.25 1479.3 L1857.4 1479.3 
  L1852.56 1479.3 L1847.71 1479.3 L1842.87 1479.3 L1838.02 1479.3 L1833.18 1479.3 L1828.33 1479.3 L1823.49 1479.3 L1818.64 1479.3 L1813.8 1479.3 L1808.95 1479.3 
   Z
  " fill="#ffa500" fill-rule="evenodd" fill-opacity="0.5"/>
<polyline clip-path="url(#clip052)" style="stroke:#ffa500; stroke-width:4; stroke-opacity:1; fill:none" points="
  1808.95,1064.05 1813.8,1070.89 1818.64,1078.16 1823.49,1085.85 1828.33,1093.95 1833.18,1102.46 1838.02,1111.35 1842.87,1120.59 1847.71,1130.16 1852.56,1140.02 
  1857.4,1150.12 1862.25,1160.42 1867.09,1170.86 1871.94,1181.39 1876.78,1191.94 1881.63,1202.47 1886.47,1212.91 1891.32,1223.22 1896.16,1233.33 1901.01,1243.21 
  1905.86,1252.82 1910.7,1262.12 1915.55,1271.09 1920.39,1279.71 1925.24,1287.96 1930.08,1295.84 1934.93,1303.33 1939.77,1310.45 1944.62,1317.2 1949.46,1323.59 
  1954.31,1329.62 1959.15,1335.31 1964,1340.67 1968.84,1345.71 1973.69,1350.44 1978.53,1354.88 1983.38,1359.04 1988.22,1362.93 1993.07,1366.56 1997.92,1369.94 
  2002.76,1373.08 2007.61,1376 2012.45,1378.7 2017.3,1381.21 2022.14,1383.54 2026.99,1385.71 2031.83,1387.72 2036.68,1389.6 2041.52,1391.37 2046.37,1393.03 
  2051.21,1394.61 2056.06,1396.12 2060.9,1397.57 2065.75,1398.97 2070.59,1400.32 2075.44,1401.63 2080.28,1402.91 2085.13,1404.14 2089.98,1405.34 2094.82,1406.48 
  2099.67,1407.57 2104.51,1408.6 2109.36,1409.55 2114.2,1410.43 2119.05,1411.21 2123.89,1411.9 2128.74,1412.48 2133.58,1412.96 2138.43,1413.33 2143.27,1413.59 
  2148.12,1413.75 2152.96,1413.81 2157.81,1413.79 2162.65,1413.69 2167.5,1413.53 2172.34,1413.32 2177.19,1413.1 2182.03,1412.86 2186.88,1412.65 2191.73,1412.47 
  2196.57,1412.36 2201.42,1412.33 2206.26,1412.41 2211.11,1412.62 2215.95,1412.97 2220.8,1413.49 2225.64,1414.19 2230.49,1415.08 2235.33,1416.17 2240.18,1417.46 
  2245.02,1418.96 2249.87,1420.66 2254.71,1422.55 2259.56,1424.62 2264.4,1426.86 2269.25,1429.26 2274.09,1431.78 2278.94,1434.4 2283.79,1437.1 2288.63,1439.85 
  
  "/>
<polyline clip-path="url(#clip052)" style="stroke:#0000ff; stroke-width:4; stroke-opacity:1; fill:none" points="
  1125.26,1479.3 1125.26,119.537 
  "/>
<polyline clip-path="url(#clip052)" style="stroke:#000000; stroke-width:4; stroke-opacity:1; fill:none" points="
  1122.7,1479.3 1122.7,117.682 
  "/>
<path clip-path="url(#clip050)" d="
M1494.58 459.25 L2277.23 459.25 L2277.23 96.3696 L1494.58 96.3696  Z
  " fill="#ffffff" fill-rule="evenodd" fill-opacity="1"/>
<polyline clip-path="url(#clip050)" style="stroke:#000000; stroke-width:4; stroke-opacity:1; fill:none" points="
  1494.58,459.25 2277.23,459.25 2277.23,96.3696 1494.58,96.3696 1494.58,459.25 
  "/>
<path clip-path="url(#clip050)" d="
M1519.75 181.042 L1670.81 181.042 L1670.81 132.658 L1519.75 132.658 L1519.75 181.042  Z
  " fill="#ffa500" fill-rule="evenodd" fill-opacity="0.5"/>
<polyline clip-path="url(#clip050)" style="stroke:#ffa500; stroke-width:4; stroke-opacity:1; fill:none" points="
  1519.75,132.658 1670.81,132.658 
  "/>
<path clip-path="url(#clip050)" d="M 0 0 M1700.38 161.19 Q1700.38 165.889 1702.3 168.574 Q1704.24 171.236 1707.62 171.236 Q1711 171.236 1712.95 168.574 Q1714.89 165.889 1714.89 161.19 Q1714.89 156.491 1712.95 153.829 Q1711 151.144 1707.62 151.144 Q1704.24 151.144 1702.3 153.829 Q1700.38 156.491 1700.38 161.19 M1714.89 170.241 Q1713.55 172.555 1711.49 173.69 Q1709.45 174.801 1706.58 174.801 Q1701.88 174.801 1698.92 171.051 Q1695.98 167.301 1695.98 161.19 Q1695.98 155.079 1698.92 151.329 Q1701.88 147.579 1706.58 147.579 Q1709.45 147.579 1711.49 148.713 Q1713.55 149.824 1714.89 152.139 L1714.89 148.204 L1719.15 148.204 L1719.15 183.991 L1714.89 183.991 L1714.89 170.241 Z" fill="#000000" fill-rule="evenodd" fill-opacity="1" /><path clip-path="url(#clip050)" d="M 0 0 M1734.22 142.648 Q1730.61 142.648 1728.78 146.213 Q1726.98 149.755 1726.98 156.884 Q1726.98 163.991 1728.78 167.556 Q1730.61 171.097 1734.22 171.097 Q1737.85 171.097 1739.66 167.556 Q1741.49 163.991 1741.49 156.884 Q1741.49 149.755 1739.66 146.213 Q1737.85 142.648 1734.22 142.648 M1734.22 138.945 Q1740.03 138.945 1743.09 143.551 Q1746.17 148.134 1746.17 156.884 Q1746.17 165.611 1743.09 170.218 Q1740.03 174.801 1734.22 174.801 Q1728.41 174.801 1725.33 170.218 Q1722.28 165.611 1722.28 156.884 Q1722.28 148.134 1725.33 143.551 Q1728.41 138.945 1734.22 138.945 Z" fill="#000000" fill-rule="evenodd" fill-opacity="1" /><path clip-path="url(#clip050)" d="M 0 0 M1751.28 139.57 L1769.64 139.57 L1769.64 143.505 L1755.56 143.505 L1755.56 151.977 Q1756.58 151.63 1757.6 151.468 Q1758.62 151.282 1759.64 151.282 Q1765.42 151.282 1768.8 154.454 Q1772.18 157.625 1772.18 163.042 Q1772.18 168.62 1768.71 171.722 Q1765.24 174.801 1758.92 174.801 Q1756.74 174.801 1754.48 174.43 Q1752.23 174.06 1749.82 173.319 L1749.82 168.62 Q1751.91 169.755 1754.13 170.31 Q1756.35 170.866 1758.83 170.866 Q1762.83 170.866 1765.17 168.759 Q1767.51 166.653 1767.51 163.042 Q1767.51 159.431 1765.17 157.324 Q1762.83 155.218 1758.83 155.218 Q1756.95 155.218 1755.08 155.634 Q1753.23 156.051 1751.28 156.931 L1751.28 139.57 Z" fill="#000000" fill-rule="evenodd" fill-opacity="1" /><path clip-path="url(#clip050)" d="
M1519.75 241.522 L1670.81 241.522 L1670.81 193.138 L1519.75 193.138 L1519.75 241.522  Z
  " fill="#008000" fill-rule="evenodd" fill-opacity="0.5"/>
<polyline clip-path="url(#clip050)" style="stroke:#008000; stroke-width:4; stroke-opacity:1; fill:none" points="
  1519.75,193.138 1670.81,193.138 
  "/>
<path clip-path="url(#clip050)" d="M 0 0 M1698.2 233.892 L1698.2 229.633 Q1699.96 230.466 1701.77 230.906 Q1703.57 231.346 1705.31 231.346 Q1709.94 231.346 1712.37 228.244 Q1714.82 225.119 1715.17 218.776 Q1713.83 220.767 1711.77 221.832 Q1709.71 222.897 1707.21 222.897 Q1702.02 222.897 1698.99 219.772 Q1695.98 216.624 1695.98 211.184 Q1695.98 205.86 1699.13 202.642 Q1702.28 199.425 1707.51 199.425 Q1713.5 199.425 1716.65 204.031 Q1719.82 208.614 1719.82 217.364 Q1719.82 225.536 1715.93 230.42 Q1712.07 235.281 1705.52 235.281 Q1703.76 235.281 1701.95 234.934 Q1700.15 234.586 1698.2 233.892 M1707.51 219.239 Q1710.66 219.239 1712.48 217.086 Q1714.34 214.934 1714.34 211.184 Q1714.34 207.457 1712.48 205.304 Q1710.66 203.128 1707.51 203.128 Q1704.36 203.128 1702.51 205.304 Q1700.68 207.457 1700.68 211.184 Q1700.68 214.934 1702.51 217.086 Q1704.36 219.239 1707.51 219.239 Z" fill="#000000" fill-rule="evenodd" fill-opacity="1" /><path clip-path="url(#clip050)" d="M 0 0 M1734.89 203.128 Q1731.28 203.128 1729.45 206.693 Q1727.65 210.235 1727.65 217.364 Q1727.65 224.471 1729.45 228.036 Q1731.28 231.577 1734.89 231.577 Q1738.53 231.577 1740.33 228.036 Q1742.16 224.471 1742.16 217.364 Q1742.16 210.235 1740.33 206.693 Q1738.53 203.128 1734.89 203.128 M1734.89 199.425 Q1740.7 199.425 1743.76 204.031 Q1746.84 208.614 1746.84 217.364 Q1746.84 226.091 1743.76 230.698 Q1740.7 235.281 1734.89 235.281 Q1729.08 235.281 1726 230.698 Q1722.95 226.091 1722.95 217.364 Q1722.95 208.614 1726 204.031 Q1729.08 199.425 1734.89 199.425 Z" fill="#000000" fill-rule="evenodd" fill-opacity="1" /><path clip-path="url(#clip050)" d="M 0 0 M1781.3 219.401 Q1779.29 219.401 1778.13 221.114 Q1777 222.827 1777 225.883 Q1777 228.892 1778.13 230.628 Q1779.29 232.341 1781.3 232.341 Q1783.27 232.341 1784.41 230.628 Q1785.56 228.892 1785.56 225.883 Q1785.56 222.85 1784.41 221.137 Q1783.27 219.401 1781.3 219.401 M1781.3 216.462 Q1784.96 216.462 1787.11 219.008 Q1789.27 221.554 1789.27 225.883 Q1789.27 230.211 1787.09 232.758 Q1784.94 235.281 1781.3 235.281 Q1777.6 235.281 1775.45 232.758 Q1773.29 230.211 1773.29 225.883 Q1773.29 221.531 1775.45 219.008 Q1777.62 216.462 1781.3 216.462 M1757.42 202.364 Q1755.42 202.364 1754.27 204.1 Q1753.13 205.813 1753.13 208.823 Q1753.13 211.878 1754.27 213.591 Q1755.4 215.304 1757.42 215.304 Q1759.43 215.304 1760.56 213.591 Q1761.72 211.878 1761.72 208.823 Q1761.72 205.837 1760.56 204.1 Q1759.41 202.364 1757.42 202.364 M1778.32 199.425 L1782.02 199.425 L1760.4 235.281 L1756.7 235.281 L1778.32 199.425 M1757.42 199.425 Q1761.07 199.425 1763.25 201.971 Q1765.42 204.494 1765.42 208.823 Q1765.42 213.198 1763.25 215.721 Q1761.1 218.244 1757.42 218.244 Q1753.73 218.244 1751.58 215.721 Q1749.45 213.174 1749.45 208.823 Q1749.45 204.517 1751.6 201.971 Q1753.76 199.425 1757.42 199.425 Z" fill="#000000" fill-rule="evenodd" fill-opacity="1" /><path clip-path="url(#clip050)" d="M 0 0 M1830.35 218.961 L1830.35 234.61 L1826.1 234.61 L1826.1 219.1 Q1826.1 215.42 1824.66 213.591 Q1823.22 211.762 1820.35 211.762 Q1816.91 211.762 1814.91 213.962 Q1812.92 216.161 1812.92 219.957 L1812.92 234.61 L1808.64 234.61 L1808.64 208.684 L1812.92 208.684 L1812.92 212.712 Q1814.45 210.374 1816.51 209.216 Q1818.6 208.059 1821.3 208.059 Q1825.77 208.059 1828.06 210.837 Q1830.35 213.591 1830.35 218.961 Z" fill="#000000" fill-rule="evenodd" fill-opacity="1" /><path clip-path="url(#clip050)" d="M 0 0 M1844.87 211.67 Q1841.44 211.67 1839.45 214.355 Q1837.46 217.017 1837.46 221.67 Q1837.46 226.323 1839.43 229.008 Q1841.42 231.67 1844.87 231.67 Q1848.27 231.67 1850.26 228.985 Q1852.25 226.299 1852.25 221.67 Q1852.25 217.063 1850.26 214.378 Q1848.27 211.67 1844.87 211.67 M1844.87 208.059 Q1850.42 208.059 1853.6 211.67 Q1856.77 215.281 1856.77 221.67 Q1856.77 228.036 1853.6 231.67 Q1850.42 235.281 1844.87 235.281 Q1839.29 235.281 1836.12 231.67 Q1832.97 228.036 1832.97 221.67 Q1832.97 215.281 1836.12 211.67 Q1839.29 208.059 1844.87 208.059 Z" fill="#000000" fill-rule="evenodd" fill-opacity="1" /><path clip-path="url(#clip050)" d="M 0 0 M1882.78 218.961 L1882.78 234.61 L1878.53 234.61 L1878.53 219.1 Q1878.53 215.42 1877.09 213.591 Q1875.66 211.762 1872.78 211.762 Q1869.34 211.762 1867.35 213.962 Q1865.35 216.161 1865.35 219.957 L1865.35 234.61 L1861.07 234.61 L1861.07 208.684 L1865.35 208.684 L1865.35 212.712 Q1866.88 210.374 1868.94 209.216 Q1871.03 208.059 1873.73 208.059 Q1878.2 208.059 1880.49 210.837 Q1882.78 213.591 1882.78 218.961 Z" fill="#000000" fill-rule="evenodd" fill-opacity="1" /><path clip-path="url(#clip050)" d="M 0 0 M1885.1 219.725 L1897.58 219.725 L1897.58 223.522 L1885.1 223.522 L1885.1 219.725 Z" fill="#000000" fill-rule="evenodd" fill-opacity="1" /><path clip-path="url(#clip050)" d="M 0 0 M1917.07 212.665 Q1916.35 212.249 1915.49 212.063 Q1914.66 211.855 1913.64 211.855 Q1910.03 211.855 1908.09 214.216 Q1906.16 216.554 1906.16 220.952 L1906.16 234.61 L1901.88 234.61 L1901.88 208.684 L1906.16 208.684 L1906.16 212.712 Q1907.51 210.35 1909.66 209.216 Q1911.81 208.059 1914.89 208.059 Q1915.33 208.059 1915.86 208.128 Q1916.4 208.175 1917.04 208.29 L1917.07 212.665 Z" fill="#000000" fill-rule="evenodd" fill-opacity="1" /><path clip-path="url(#clip050)" d="M 0 0 M1942.67 220.582 L1942.67 222.665 L1923.09 222.665 Q1923.36 227.063 1925.72 229.378 Q1928.11 231.67 1932.34 231.67 Q1934.8 231.67 1937.09 231.068 Q1939.4 230.466 1941.67 229.262 L1941.67 233.29 Q1939.38 234.262 1936.97 234.772 Q1934.57 235.281 1932.09 235.281 Q1925.89 235.281 1922.25 231.67 Q1918.64 228.059 1918.64 221.901 Q1918.64 215.536 1922.07 211.809 Q1925.52 208.059 1931.35 208.059 Q1936.58 208.059 1939.61 211.438 Q1942.67 214.795 1942.67 220.582 M1938.41 219.332 Q1938.36 215.837 1936.44 213.753 Q1934.54 211.67 1931.4 211.67 Q1927.83 211.67 1925.68 213.684 Q1923.55 215.698 1923.22 219.355 L1938.41 219.332 Z" fill="#000000" fill-rule="evenodd" fill-opacity="1" /><path clip-path="url(#clip050)" d="M 0 0 M1947.14 208.684 L1951.4 208.684 L1951.4 235.073 Q1951.4 240.026 1949.5 242.248 Q1947.62 244.471 1943.43 244.471 L1941.81 244.471 L1941.81 240.86 L1942.95 240.86 Q1945.38 240.86 1946.26 239.725 Q1947.14 238.614 1947.14 235.073 L1947.14 208.684 M1947.14 198.591 L1951.4 198.591 L1951.4 203.985 L1947.14 203.985 L1947.14 198.591 Z" fill="#000000" fill-rule="evenodd" fill-opacity="1" /><path clip-path="url(#clip050)" d="M 0 0 M1978.04 220.582 L1978.04 222.665 L1958.46 222.665 Q1958.73 227.063 1961.09 229.378 Q1963.48 231.67 1967.71 231.67 Q1970.17 231.67 1972.46 231.068 Q1974.78 230.466 1977.04 229.262 L1977.04 233.29 Q1974.75 234.262 1972.34 234.772 Q1969.94 235.281 1967.46 235.281 Q1961.26 235.281 1957.62 231.67 Q1954.01 228.059 1954.01 221.901 Q1954.01 215.536 1957.44 211.809 Q1960.89 208.059 1966.72 208.059 Q1971.95 208.059 1974.98 211.438 Q1978.04 214.795 1978.04 220.582 M1973.78 219.332 Q1973.73 215.837 1971.81 213.753 Q1969.91 211.67 1966.77 211.67 Q1963.2 211.67 1961.05 213.684 Q1958.92 215.698 1958.59 219.355 L1973.78 219.332 Z" fill="#000000" fill-rule="evenodd" fill-opacity="1" /><path clip-path="url(#clip050)" d="M 0 0 M2001.16 209.679 L2001.16 213.661 Q1999.36 212.665 1997.53 212.179 Q1995.72 211.67 1993.87 211.67 Q1989.73 211.67 1987.44 214.309 Q1985.15 216.924 1985.15 221.67 Q1985.15 226.415 1987.44 229.054 Q1989.73 231.67 1993.87 231.67 Q1995.72 231.67 1997.53 231.184 Q1999.36 230.674 2001.16 229.679 L2001.16 233.614 Q1999.38 234.448 1997.46 234.864 Q1995.56 235.281 1993.41 235.281 Q1987.55 235.281 1984.1 231.6 Q1980.65 227.92 1980.65 221.67 Q1980.65 215.327 1984.13 211.693 Q1987.62 208.059 1993.69 208.059 Q1995.65 208.059 1997.53 208.475 Q1999.4 208.869 2001.16 209.679 Z" fill="#000000" fill-rule="evenodd" fill-opacity="1" /><path clip-path="url(#clip050)" d="M 0 0 M2009.84 201.323 L2009.84 208.684 L2018.62 208.684 L2018.62 211.994 L2009.84 211.994 L2009.84 226.068 Q2009.84 229.239 2010.7 230.142 Q2011.58 231.045 2014.24 231.045 L2018.62 231.045 L2018.62 234.61 L2014.24 234.61 Q2009.31 234.61 2007.44 232.781 Q2005.56 230.929 2005.56 226.068 L2005.56 211.994 L2002.44 211.994 L2002.44 208.684 L2005.56 208.684 L2005.56 201.323 L2009.84 201.323 Z" fill="#000000" fill-rule="evenodd" fill-opacity="1" /><path clip-path="url(#clip050)" d="M 0 0 M2023.08 208.684 L2027.34 208.684 L2027.34 234.61 L2023.08 234.61 L2023.08 208.684 M2023.08 198.591 L2027.34 198.591 L2027.34 203.985 L2023.08 203.985 L2023.08 198.591 Z" fill="#000000" fill-rule="evenodd" fill-opacity="1" /><path clip-path="url(#clip050)" d="M 0 0 M2041.86 211.67 Q2038.43 211.67 2036.44 214.355 Q2034.45 217.017 2034.45 221.67 Q2034.45 226.323 2036.42 229.008 Q2038.41 231.67 2041.86 231.67 Q2045.26 231.67 2047.25 228.985 Q2049.24 226.299 2049.24 221.67 Q2049.24 217.063 2047.25 214.378 Q2045.26 211.67 2041.86 211.67 M2041.86 208.059 Q2047.41 208.059 2050.58 211.67 Q2053.76 215.281 2053.76 221.67 Q2053.76 228.036 2050.58 231.67 Q2047.41 235.281 2041.86 235.281 Q2036.28 235.281 2033.11 231.67 Q2029.96 228.036 2029.96 221.67 Q2029.96 215.281 2033.11 211.67 Q2036.28 208.059 2041.86 208.059 Z" fill="#000000" fill-rule="evenodd" fill-opacity="1" /><path clip-path="url(#clip050)" d="M 0 0 M2079.77 218.961 L2079.77 234.61 L2075.52 234.61 L2075.52 219.1 Q2075.52 215.42 2074.08 213.591 Q2072.64 211.762 2069.77 211.762 Q2066.33 211.762 2064.33 213.962 Q2062.34 216.161 2062.34 219.957 L2062.34 234.61 L2058.06 234.61 L2058.06 208.684 L2062.34 208.684 L2062.34 212.712 Q2063.87 210.374 2065.93 209.216 Q2068.02 208.059 2070.72 208.059 Q2075.19 208.059 2077.48 210.837 Q2079.77 213.591 2079.77 218.961 Z" fill="#000000" fill-rule="evenodd" fill-opacity="1" /><path clip-path="url(#clip050)" d="M 0 0 M2114.33 212.665 Q2113.62 212.249 2112.76 212.063 Q2111.93 211.855 2110.91 211.855 Q2107.3 211.855 2105.35 214.216 Q2103.43 216.554 2103.43 220.952 L2103.43 234.61 L2099.15 234.61 L2099.15 208.684 L2103.43 208.684 L2103.43 212.712 Q2104.77 210.35 2106.93 209.216 Q2109.08 208.059 2112.16 208.059 Q2112.6 208.059 2113.13 208.128 Q2113.66 208.175 2114.31 208.29 L2114.33 212.665 Z" fill="#000000" fill-rule="evenodd" fill-opacity="1" /><path clip-path="url(#clip050)" d="M 0 0 M2139.94 220.582 L2139.94 222.665 L2120.35 222.665 Q2120.63 227.063 2122.99 229.378 Q2125.38 231.67 2129.61 231.67 Q2132.07 231.67 2134.36 231.068 Q2136.67 230.466 2138.94 229.262 L2138.94 233.29 Q2136.65 234.262 2134.24 234.772 Q2131.83 235.281 2129.36 235.281 Q2123.15 235.281 2119.52 231.67 Q2115.91 228.059 2115.91 221.901 Q2115.91 215.536 2119.33 211.809 Q2122.78 208.059 2128.62 208.059 Q2133.85 208.059 2136.88 211.438 Q2139.94 214.795 2139.94 220.582 M2135.68 219.332 Q2135.63 215.837 2133.71 213.753 Q2131.81 211.67 2128.66 211.67 Q2125.1 211.67 2122.95 213.684 Q2120.82 215.698 2120.49 219.355 L2135.68 219.332 Z" fill="#000000" fill-rule="evenodd" fill-opacity="1" /><path clip-path="url(#clip050)" d="M 0 0 M2161.46 221.346 Q2161.46 216.716 2159.54 214.17 Q2157.64 211.624 2154.2 211.624 Q2150.77 211.624 2148.85 214.17 Q2146.95 216.716 2146.95 221.346 Q2146.95 225.952 2148.85 228.498 Q2150.77 231.045 2154.2 231.045 Q2157.64 231.045 2159.54 228.498 Q2161.46 225.952 2161.46 221.346 M2165.72 231.392 Q2165.72 238.012 2162.78 241.23 Q2159.84 244.471 2153.78 244.471 Q2151.53 244.471 2149.54 244.123 Q2147.55 243.799 2145.68 243.105 L2145.68 238.961 Q2147.55 239.98 2149.38 240.466 Q2151.21 240.952 2153.11 240.952 Q2157.3 240.952 2159.38 238.753 Q2161.46 236.577 2161.46 232.156 L2161.46 230.049 Q2160.14 232.341 2158.08 233.475 Q2156.02 234.61 2153.15 234.61 Q2148.39 234.61 2145.47 230.975 Q2142.55 227.341 2142.55 221.346 Q2142.55 215.327 2145.47 211.693 Q2148.39 208.059 2153.15 208.059 Q2156.02 208.059 2158.08 209.193 Q2160.14 210.327 2161.46 212.619 L2161.46 208.684 L2165.72 208.684 L2165.72 231.392 Z" fill="#000000" fill-rule="evenodd" fill-opacity="1" /><path clip-path="url(#clip050)" d="M 0 0 M2170.19 208.684 L2174.45 208.684 L2174.45 234.61 L2170.19 234.61 L2170.19 208.684 M2170.19 198.591 L2174.45 198.591 L2174.45 203.985 L2170.19 203.985 L2170.19 198.591 Z" fill="#000000" fill-rule="evenodd" fill-opacity="1" /><path clip-path="url(#clip050)" d="M 0 0 M2188.96 211.67 Q2185.54 211.67 2183.55 214.355 Q2181.56 217.017 2181.56 221.67 Q2181.56 226.323 2183.52 229.008 Q2185.51 231.67 2188.96 231.67 Q2192.37 231.67 2194.36 228.985 Q2196.35 226.299 2196.35 221.67 Q2196.35 217.063 2194.36 214.378 Q2192.37 211.67 2188.96 211.67 M2188.96 208.059 Q2194.52 208.059 2197.69 211.67 Q2200.86 215.281 2200.86 221.67 Q2200.86 228.036 2197.69 231.67 Q2194.52 235.281 2188.96 235.281 Q2183.39 235.281 2180.21 231.67 Q2177.07 228.036 2177.07 221.67 Q2177.07 215.281 2180.21 211.67 Q2183.39 208.059 2188.96 208.059 Z" fill="#000000" fill-rule="evenodd" fill-opacity="1" /><path clip-path="url(#clip050)" d="M 0 0 M2226.88 218.961 L2226.88 234.61 L2222.62 234.61 L2222.62 219.1 Q2222.62 215.42 2221.19 213.591 Q2219.75 211.762 2216.88 211.762 Q2213.43 211.762 2211.44 213.962 Q2209.45 216.161 2209.45 219.957 L2209.45 234.61 L2205.17 234.61 L2205.17 208.684 L2209.45 208.684 L2209.45 212.712 Q2210.98 210.374 2213.04 209.216 Q2215.12 208.059 2217.83 208.059 Q2222.3 208.059 2224.59 210.837 Q2226.88 213.591 2226.88 218.961 Z" fill="#000000" fill-rule="evenodd" fill-opacity="1" /><path clip-path="url(#clip050)" d="
M1519.75 302.002 L1670.81 302.002 L1670.81 253.618 L1519.75 253.618 L1519.75 302.002  Z
  " fill="#ffa500" fill-rule="evenodd" fill-opacity="0.5"/>
<polyline clip-path="url(#clip050)" style="stroke:#ffa500; stroke-width:4; stroke-opacity:1; fill:none" points="
  1519.75,253.618 1670.81,253.618 
  "/>
<path clip-path="url(#clip050)" d="M 0 0 M1700.38 282.15 Q1700.38 286.849 1702.3 289.534 Q1704.24 292.196 1707.62 292.196 Q1711 292.196 1712.95 289.534 Q1714.89 286.849 1714.89 282.15 Q1714.89 277.451 1712.95 274.789 Q1711 272.104 1707.62 272.104 Q1704.24 272.104 1702.3 274.789 Q1700.38 277.451 1700.38 282.15 M1714.89 291.201 Q1713.55 293.515 1711.49 294.65 Q1709.45 295.761 1706.58 295.761 Q1701.88 295.761 1698.92 292.011 Q1695.98 288.261 1695.98 282.15 Q1695.98 276.039 1698.92 272.289 Q1701.88 268.539 1706.58 268.539 Q1709.45 268.539 1711.49 269.673 Q1713.55 270.784 1714.89 273.099 L1714.89 269.164 L1719.15 269.164 L1719.15 304.951 L1714.89 304.951 L1714.89 291.201 Z" fill="#000000" fill-rule="evenodd" fill-opacity="1" /><path clip-path="url(#clip050)" d="M 0 0 M1724.36 294.372 L1724.36 290.113 Q1726.12 290.946 1727.92 291.386 Q1729.73 291.826 1731.47 291.826 Q1736.1 291.826 1738.53 288.724 Q1740.98 285.599 1741.33 279.256 Q1739.98 281.247 1737.92 282.312 Q1735.86 283.377 1733.36 283.377 Q1728.18 283.377 1725.15 280.252 Q1722.14 277.104 1722.14 271.664 Q1722.14 266.34 1725.29 263.122 Q1728.43 259.905 1733.67 259.905 Q1739.66 259.905 1742.81 264.511 Q1745.98 269.094 1745.98 277.844 Q1745.98 286.016 1742.09 290.9 Q1738.23 295.761 1731.67 295.761 Q1729.92 295.761 1728.11 295.414 Q1726.3 295.066 1724.36 294.372 M1733.67 279.719 Q1736.81 279.719 1738.64 277.566 Q1740.49 275.414 1740.49 271.664 Q1740.49 267.937 1738.64 265.784 Q1736.81 263.608 1733.67 263.608 Q1730.52 263.608 1728.67 265.784 Q1726.84 267.937 1726.84 271.664 Q1726.84 275.414 1728.67 277.566 Q1730.52 279.719 1733.67 279.719 Z" fill="#000000" fill-rule="evenodd" fill-opacity="1" /><path clip-path="url(#clip050)" d="M 0 0 M1751.1 260.53 L1769.45 260.53 L1769.45 264.465 L1755.38 264.465 L1755.38 272.937 Q1756.4 272.59 1757.42 272.428 Q1758.43 272.242 1759.45 272.242 Q1765.24 272.242 1768.62 275.414 Q1772 278.585 1772 284.002 Q1772 289.58 1768.53 292.682 Q1765.05 295.761 1758.73 295.761 Q1756.56 295.761 1754.29 295.39 Q1752.04 295.02 1749.64 294.279 L1749.64 289.58 Q1751.72 290.715 1753.94 291.27 Q1756.17 291.826 1758.64 291.826 Q1762.65 291.826 1764.98 289.719 Q1767.32 287.613 1767.32 284.002 Q1767.32 280.391 1764.98 278.284 Q1762.65 276.178 1758.64 276.178 Q1756.77 276.178 1754.89 276.594 Q1753.04 277.011 1751.1 277.891 L1751.1 260.53 Z" fill="#000000" fill-rule="evenodd" fill-opacity="1" /><polyline clip-path="url(#clip050)" style="stroke:#0000ff; stroke-width:4; stroke-opacity:1; fill:none" points="
  1519.75,338.29 1670.81,338.29 
  "/>
<path clip-path="url(#clip050)" d="M 0 0 M1716.33 334.621 Q1717.92 331.75 1720.15 330.385 Q1722.37 329.019 1725.38 329.019 Q1729.43 329.019 1731.63 331.866 Q1733.83 334.69 1733.83 339.921 L1733.83 355.57 L1729.54 355.57 L1729.54 340.06 Q1729.54 336.334 1728.23 334.528 Q1726.91 332.722 1724.2 332.722 Q1720.89 332.722 1718.97 334.922 Q1717.04 337.121 1717.04 340.917 L1717.04 355.57 L1712.76 355.57 L1712.76 340.06 Q1712.76 336.31 1711.44 334.528 Q1710.12 332.722 1707.37 332.722 Q1704.11 332.722 1702.18 334.945 Q1700.26 337.144 1700.26 340.917 L1700.26 355.57 L1695.98 355.57 L1695.98 329.644 L1700.26 329.644 L1700.26 333.672 Q1701.72 331.287 1703.76 330.153 Q1705.79 329.019 1708.6 329.019 Q1711.42 329.019 1713.39 330.454 Q1715.38 331.889 1716.33 334.621 Z" fill="#000000" fill-rule="evenodd" fill-opacity="1" /><path clip-path="url(#clip050)" d="M 0 0 M1760.47 341.542 L1760.47 343.625 L1740.89 343.625 Q1741.17 348.023 1743.53 350.338 Q1745.91 352.63 1750.15 352.63 Q1752.6 352.63 1754.89 352.028 Q1757.21 351.426 1759.48 350.222 L1759.48 354.25 Q1757.18 355.222 1754.78 355.732 Q1752.37 356.241 1749.89 356.241 Q1743.69 356.241 1740.05 352.63 Q1736.44 349.019 1736.44 342.861 Q1736.44 336.496 1739.87 332.769 Q1743.32 329.019 1749.15 329.019 Q1754.38 329.019 1757.42 332.398 Q1760.47 335.755 1760.47 341.542 M1756.21 340.292 Q1756.17 336.797 1754.24 334.713 Q1752.35 332.63 1749.2 332.63 Q1745.63 332.63 1743.48 334.644 Q1741.35 336.658 1741.03 340.315 L1756.21 340.292 Z" fill="#000000" fill-rule="evenodd" fill-opacity="1" /><path clip-path="url(#clip050)" d="M 0 0 M1776.72 342.537 Q1771.56 342.537 1769.57 343.718 Q1767.58 344.898 1767.58 347.746 Q1767.58 350.014 1769.06 351.357 Q1770.56 352.676 1773.13 352.676 Q1776.67 352.676 1778.8 350.176 Q1780.96 347.653 1780.96 343.486 L1780.96 342.537 L1776.72 342.537 M1785.22 340.778 L1785.22 355.57 L1780.96 355.57 L1780.96 351.634 Q1779.5 353.995 1777.32 355.13 Q1775.15 356.241 1772 356.241 Q1768.02 356.241 1765.66 354.019 Q1763.32 351.773 1763.32 348.023 Q1763.32 343.648 1766.23 341.426 Q1769.17 339.204 1774.98 339.204 L1780.96 339.204 L1780.96 338.787 Q1780.96 335.847 1779.01 334.25 Q1777.09 332.63 1773.6 332.63 Q1771.37 332.63 1769.27 333.162 Q1767.16 333.695 1765.22 334.759 L1765.22 330.824 Q1767.55 329.922 1769.75 329.482 Q1771.95 329.019 1774.04 329.019 Q1779.66 329.019 1782.44 331.935 Q1785.22 334.852 1785.22 340.778 Z" fill="#000000" fill-rule="evenodd" fill-opacity="1" /><path clip-path="url(#clip050)" d="M 0 0 M1811.23 339.921 L1811.23 355.57 L1806.97 355.57 L1806.97 340.06 Q1806.97 336.38 1805.54 334.551 Q1804.1 332.722 1801.23 332.722 Q1797.79 332.722 1795.79 334.922 Q1793.8 337.121 1793.8 340.917 L1793.8 355.57 L1789.52 355.57 L1789.52 329.644 L1793.8 329.644 L1793.8 333.672 Q1795.33 331.334 1797.39 330.176 Q1799.48 329.019 1802.18 329.019 Q1806.65 329.019 1808.94 331.797 Q1811.23 334.551 1811.23 339.921 Z" fill="#000000" fill-rule="evenodd" fill-opacity="1" /><polyline clip-path="url(#clip050)" style="stroke:#000000; stroke-width:4; stroke-opacity:1; fill:none" points="
  1519.75,398.77 1670.81,398.77 
  "/>
<path clip-path="url(#clip050)" d="M 0 0 M1716.33 395.101 Q1717.92 392.23 1720.15 390.865 Q1722.37 389.499 1725.38 389.499 Q1729.43 389.499 1731.63 392.346 Q1733.83 395.17 1733.83 400.401 L1733.83 416.05 L1729.54 416.05 L1729.54 400.54 Q1729.54 396.814 1728.23 395.008 Q1726.91 393.202 1724.2 393.202 Q1720.89 393.202 1718.97 395.402 Q1717.04 397.601 1717.04 401.397 L1717.04 416.05 L1712.76 416.05 L1712.76 400.54 Q1712.76 396.79 1711.44 395.008 Q1710.12 393.202 1707.37 393.202 Q1704.11 393.202 1702.18 395.425 Q1700.26 397.624 1700.26 401.397 L1700.26 416.05 L1695.98 416.05 L1695.98 390.124 L1700.26 390.124 L1700.26 394.152 Q1701.72 391.767 1703.76 390.633 Q1705.79 389.499 1708.6 389.499 Q1711.42 389.499 1713.39 390.934 Q1715.38 392.369 1716.33 395.101 Z" fill="#000000" fill-rule="evenodd" fill-opacity="1" /><path clip-path="url(#clip050)" d="M 0 0 M1760.47 402.022 L1760.47 404.105 L1740.89 404.105 Q1741.17 408.503 1743.53 410.818 Q1745.91 413.11 1750.15 413.11 Q1752.6 413.11 1754.89 412.508 Q1757.21 411.906 1759.48 410.702 L1759.48 414.73 Q1757.18 415.702 1754.78 416.212 Q1752.37 416.721 1749.89 416.721 Q1743.69 416.721 1740.05 413.11 Q1736.44 409.499 1736.44 403.341 Q1736.44 396.976 1739.87 393.249 Q1743.32 389.499 1749.15 389.499 Q1754.38 389.499 1757.42 392.878 Q1760.47 396.235 1760.47 402.022 M1756.21 400.772 Q1756.17 397.277 1754.24 395.193 Q1752.35 393.11 1749.2 393.11 Q1745.63 393.11 1743.48 395.124 Q1741.35 397.138 1741.03 400.795 L1756.21 400.772 Z" fill="#000000" fill-rule="evenodd" fill-opacity="1" /><path clip-path="url(#clip050)" d="M 0 0 M1782 394.059 L1782 380.031 L1786.26 380.031 L1786.26 416.05 L1782 416.05 L1782 412.161 Q1780.66 414.475 1778.6 415.61 Q1776.56 416.721 1773.69 416.721 Q1768.99 416.721 1766.03 412.971 Q1763.09 409.221 1763.09 403.11 Q1763.09 396.999 1766.03 393.249 Q1768.99 389.499 1773.69 389.499 Q1776.56 389.499 1778.6 390.633 Q1780.66 391.744 1782 394.059 M1767.48 403.11 Q1767.48 407.809 1769.41 410.494 Q1771.35 413.156 1774.73 413.156 Q1778.11 413.156 1780.05 410.494 Q1782 407.809 1782 403.11 Q1782 398.411 1780.05 395.749 Q1778.11 393.064 1774.73 393.064 Q1771.35 393.064 1769.41 395.749 Q1767.48 398.411 1767.48 403.11 Z" fill="#000000" fill-rule="evenodd" fill-opacity="1" /><path clip-path="url(#clip050)" d="M 0 0 M1790.73 390.124 L1794.98 390.124 L1794.98 416.05 L1790.73 416.05 L1790.73 390.124 M1790.73 380.031 L1794.98 380.031 L1794.98 385.425 L1790.73 385.425 L1790.73 380.031 Z" fill="#000000" fill-rule="evenodd" fill-opacity="1" /><path clip-path="url(#clip050)" d="M 0 0 M1811.23 403.017 Q1806.07 403.017 1804.08 404.198 Q1802.09 405.378 1802.09 408.226 Q1802.09 410.494 1803.57 411.837 Q1805.08 413.156 1807.65 413.156 Q1811.19 413.156 1813.32 410.656 Q1815.47 408.133 1815.47 403.966 L1815.47 403.017 L1811.23 403.017 M1819.73 401.258 L1819.73 416.05 L1815.47 416.05 L1815.47 412.114 Q1814.01 414.475 1811.84 415.61 Q1809.66 416.721 1806.51 416.721 Q1802.53 416.721 1800.17 414.499 Q1797.83 412.253 1797.83 408.503 Q1797.83 404.128 1800.75 401.906 Q1803.69 399.684 1809.5 399.684 L1815.47 399.684 L1815.47 399.267 Q1815.47 396.327 1813.53 394.73 Q1811.6 393.11 1808.11 393.11 Q1805.89 393.11 1803.78 393.642 Q1801.67 394.175 1799.73 395.239 L1799.73 391.304 Q1802.07 390.402 1804.27 389.962 Q1806.47 389.499 1808.55 389.499 Q1814.17 389.499 1816.95 392.415 Q1819.73 395.332 1819.73 401.258 Z" fill="#000000" fill-rule="evenodd" fill-opacity="1" /><path clip-path="url(#clip050)" d="M 0 0 M1845.75 400.401 L1845.75 416.05 L1841.49 416.05 L1841.49 400.54 Q1841.49 396.86 1840.05 395.031 Q1838.62 393.202 1835.75 393.202 Q1832.3 393.202 1830.31 395.402 Q1828.32 397.601 1828.32 401.397 L1828.32 416.05 L1824.04 416.05 L1824.04 390.124 L1828.32 390.124 L1828.32 394.152 Q1829.85 391.814 1831.91 390.656 Q1833.99 389.499 1836.7 389.499 Q1841.16 389.499 1843.46 392.277 Q1845.75 395.031 1845.75 400.401 Z" fill="#000000" fill-rule="evenodd" fill-opacity="1" /></svg>
